<?xml version="1.0" encoding="UTF-8" standalone="no"?>
<!DOCTYPE svg PUBLIC "-//W3C//DTD SVG 1.1//EN"
 "http://www.w3.org/Graphics/SVG/1.1/DTD/svg11.dtd">
<!-- Generated by graphviz version 10.0.1 (20240210.2158)
 -->
<!-- Title: ml::maths::time_series::anonymous_namespace{CDecayRateController::cc}::adjustedMaximumMultiplier Pages: 1 -->
<svg width="307pt" height="79pt"
 viewBox="0.00 0.00 307.00 79.00" xmlns="http://www.w3.org/2000/svg" xmlns:xlink="http://www.w3.org/1999/xlink">
<g id="graph0" class="graph" transform="scale(1 1) rotate(0) translate(4 75)">
<title>ml::maths::time_series::anonymous_namespace{CDecayRateController::cc}::adjustedMaximumMultiplier</title>
<!-- Node1 -->
<g id="Node000001" class="node">
<title>Node1</title>
<g id="a_Node000001"><a xlink:title="Adjust the maximum decay rate multiplier for long bucket lengths.">
<polygon fill="#999999" stroke="#666666" points="154,-53 0,-53 0,0 154,0 154,-53"/>
<text text-anchor="start" x="8" y="-39.5" font-family="Helvetica,sans-Serif" font-size="10.00">ml::maths::time_series</text>
<text text-anchor="start" x="8" y="-28.25" font-family="Helvetica,sans-Serif" font-size="10.00">::anonymous_namespace</text>
<text text-anchor="start" x="8" y="-17" font-family="Helvetica,sans-Serif" font-size="10.00">{CDecayRateController::</text>
<text text-anchor="middle" x="77" y="-5.75" font-family="Helvetica,sans-Serif" font-size="10.00">cc}::adjustedMaximumMultiplier</text>
</a>
</g>
</g>
<!-- Node1&#45;&gt;Node1 -->
<g id="edge1_Node000001_Node000001" class="edge">
<title>Node1&#45;&gt;Node1</title>
<g id="a_edge1_Node000001_Node000001"><a xlink:title=" ">
<path fill="none" stroke="#63b8ff" d="M45.62,-53.44C44.95,-63.11 55.41,-71 77,-71 89.82,-71 98.72,-68.22 103.69,-63.94"/>
<polygon fill="#63b8ff" stroke="#63b8ff" points="106.87,-65.38 107.76,-54.82 100.48,-62.52 106.87,-65.38"/>
</a>
</g>
</g>
<!-- Node2 -->
<g id="Node000002" class="node">
<title>Node2</title>
<g id="a_Node000002"><a xlink:href="../../dd/d55/classml_1_1maths_1_1common_1_1_c_tools.html#a0ee3c8a8c133d36faa270f96ff48ae21" target="_top" xlink:title=" ">
<polygon fill="white" stroke="#666666" points="299,-41.75 190,-41.75 190,-11.25 299,-11.25 299,-41.75"/>
<text text-anchor="start" x="198" y="-28.25" font-family="Helvetica,sans-Serif" font-size="10.00">ml::maths::common::</text>
<text text-anchor="middle" x="244.5" y="-17" font-family="Helvetica,sans-Serif" font-size="10.00">CTools::truncate</text>
</a>
</g>
</g>
<!-- Node1&#45;&gt;Node2 -->
<g id="edge2_Node000001_Node000002" class="edge">
<title>Node1&#45;&gt;Node2</title>
<g id="a_edge2_Node000001_Node000002"><a xlink:title=" ">
<path fill="none" stroke="#63b8ff" d="M154.45,-26.5C162.42,-26.5 170.46,-26.5 178.29,-26.5"/>
<polygon fill="#63b8ff" stroke="#63b8ff" points="178.05,-30 188.05,-26.5 178.05,-23 178.05,-30"/>
</a>
</g>
</g>
</g>
</svg>
