<?xml version="1.0" encoding="UTF-8" standalone="no"?>
<!DOCTYPE svg PUBLIC "-//W3C//DTD SVG 1.1//EN"
 "http://www.w3.org/Graphics/SVG/1.1/DTD/svg11.dtd">
<!-- Generated by graphviz version 10.0.1 (20240210.2158)
 -->
<!-- Title: ml::core::CRapidXmlParser::convertChildren Pages: 1 -->
<svg width="342pt" height="186pt"
 viewBox="0.00 0.00 341.50 185.50" xmlns="http://www.w3.org/2000/svg" xmlns:xlink="http://www.w3.org/1999/xlink">
<g id="graph0" class="graph" transform="scale(1 1) rotate(0) translate(4 181.5)">
<title>ml::core::CRapidXmlParser::convertChildren</title>
<!-- Node1 -->
<g id="Node000001" class="node">
<title>Node1</title>
<g id="a_Node000001"><a xlink:title="Called recursively by the convert() method.">
<polygon fill="#999999" stroke="#666666" points="136,-103.5 0,-103.5 0,-73 136,-73 136,-103.5"/>
<text text-anchor="start" x="8" y="-90" font-family="Helvetica,sans-Serif" font-size="10.00">ml::core::CRapidXmlParser</text>
<text text-anchor="middle" x="68" y="-78.75" font-family="Helvetica,sans-Serif" font-size="10.00">::convertChildren</text>
</a>
</g>
</g>
<!-- Node1&#45;&gt;Node1 -->
<g id="edge3_Node000001_Node000001" class="edge">
<title>Node1&#45;&gt;Node1</title>
<g id="a_edge3_Node000001_Node000001"><a xlink:title=" ">
<path fill="none" stroke="#63b8ff" d="M35.26,-103.99C28.58,-113.06 39.49,-121.5 68,-121.5 83.59,-121.5 93.92,-118.97 98.98,-115.2"/>
<polygon fill="#63b8ff" stroke="#63b8ff" points="102.42,-115.9 100.5,-105.48 95.5,-114.82 102.42,-115.9"/>
</a>
</g>
</g>
<!-- Node2 -->
<g id="Node000002" class="node">
<title>Node2</title>
<g id="a_Node000002"><a xlink:href="../../d2/d4b/classml_1_1core_1_1_c_xml_node.html#aceab2f51242f6dadbcea69ca71586f03" target="_top" xlink:title=" ">
<polygon fill="white" stroke="#666666" points="305.38,-177.5 200.12,-177.5 200.12,-147 305.38,-147 305.38,-177.5"/>
<text text-anchor="start" x="208.12" y="-164" font-family="Helvetica,sans-Serif" font-size="10.00">ml::core::CXmlNode</text>
<text text-anchor="middle" x="252.75" y="-152.75" font-family="Helvetica,sans-Serif" font-size="10.00">::attributes</text>
</a>
</g>
</g>
<!-- Node1&#45;&gt;Node2 -->
<g id="edge1_Node000001_Node000002" class="edge">
<title>Node1&#45;&gt;Node2</title>
<g id="a_edge1_Node000001_Node000002"><a xlink:title=" ">
<path fill="none" stroke="#63b8ff" d="M99.15,-103.97C119.43,-114.2 146.93,-127.41 172,-137.25 177.57,-139.44 183.42,-141.57 189.31,-143.6"/>
<polygon fill="#63b8ff" stroke="#63b8ff" points="187.87,-146.81 198.47,-146.68 190.1,-140.18 187.87,-146.81"/>
</a>
</g>
</g>
<!-- Node3 -->
<g id="Node000003" class="node">
<title>Node3</title>
<g id="a_Node000003"><a xlink:href="../../d1/d16/classml_1_1core_1_1_c_xml_node_with_children.html#ab35b303481ab4121d356c2eac45b72cc" target="_top" xlink:title="Get children.">
<polygon fill="white" stroke="#666666" points="333.5,-128.5 172,-128.5 172,-98 333.5,-98 333.5,-128.5"/>
<text text-anchor="start" x="180" y="-115" font-family="Helvetica,sans-Serif" font-size="10.00">ml::core::CXmlNodeWithChildren</text>
<text text-anchor="middle" x="252.75" y="-103.75" font-family="Helvetica,sans-Serif" font-size="10.00">::children</text>
</a>
</g>
</g>
<!-- Node1&#45;&gt;Node3 -->
<g id="edge2_Node000001_Node000003" class="edge">
<title>Node1&#45;&gt;Node3</title>
<g id="a_edge2_Node000001_Node000003"><a xlink:title=" ">
<path fill="none" stroke="#63b8ff" d="M136.27,-97.45C144.09,-98.52 152.16,-99.63 160.23,-100.73"/>
<polygon fill="#63b8ff" stroke="#63b8ff" points="159.73,-104.19 170.12,-102.08 160.68,-97.26 159.73,-104.19"/>
</a>
</g>
</g>
<!-- Node4 -->
<g id="Node000004" class="node">
<title>Node4</title>
<g id="a_Node000004"><a xlink:href="../../d2/d4b/classml_1_1core_1_1_c_xml_node.html#ad646646a4ba181b2fe1c3a8db144fc79" target="_top" xlink:title="Accessors.">
<polygon fill="white" stroke="#666666" points="305.38,-79.5 200.12,-79.5 200.12,-49 305.38,-49 305.38,-79.5"/>
<text text-anchor="start" x="208.12" y="-66" font-family="Helvetica,sans-Serif" font-size="10.00">ml::core::CXmlNode</text>
<text text-anchor="middle" x="252.75" y="-54.75" font-family="Helvetica,sans-Serif" font-size="10.00">::name</text>
</a>
</g>
</g>
<!-- Node1&#45;&gt;Node4 -->
<g id="edge4_Node000001_Node000004" class="edge">
<title>Node1&#45;&gt;Node4</title>
<g id="a_edge4_Node000001_Node000004"><a xlink:title=" ">
<path fill="none" stroke="#63b8ff" d="M136.27,-79.42C153.31,-77.18 171.54,-74.78 188.38,-72.57"/>
<polygon fill="#63b8ff" stroke="#63b8ff" points="188.82,-76.05 198.27,-71.27 187.9,-69.1 188.82,-76.05"/>
</a>
</g>
</g>
<!-- Node5 -->
<g id="Node000005" class="node">
<title>Node5</title>
<g id="a_Node000005"><a xlink:href="../../d2/d4b/classml_1_1core_1_1_c_xml_node.html#a4208a4b69b2fab3ae1849696c504610d" target="_top" xlink:title=" ">
<polygon fill="white" stroke="#666666" points="305.38,-30.5 200.12,-30.5 200.12,0 305.38,0 305.38,-30.5"/>
<text text-anchor="start" x="208.12" y="-17" font-family="Helvetica,sans-Serif" font-size="10.00">ml::core::CXmlNode</text>
<text text-anchor="middle" x="252.75" y="-5.75" font-family="Helvetica,sans-Serif" font-size="10.00">::value</text>
</a>
</g>
</g>
<!-- Node1&#45;&gt;Node5 -->
<g id="edge5_Node000001_Node000005" class="edge">
<title>Node1&#45;&gt;Node5</title>
<g id="a_edge5_Node000001_Node000005"><a xlink:title=" ">
<path fill="none" stroke="#63b8ff" d="M99.64,-72.67C119.88,-62.7 147.17,-49.88 172,-40.25 177.58,-38.09 183.43,-35.97 189.33,-33.94"/>
<polygon fill="#63b8ff" stroke="#63b8ff" points="190.11,-37.37 198.49,-30.88 187.89,-30.73 190.11,-37.37"/>
</a>
</g>
</g>
</g>
</svg>
