<?xml version="1.0" encoding="UTF-8" standalone="no"?>
<!DOCTYPE svg PUBLIC "-//W3C//DTD SVG 1.1//EN"
 "http://www.w3.org/Graphics/SVG/1.1/DTD/svg11.dtd">
<!-- Generated by graphviz version 10.0.1 (20240210.2158)
 -->
<!-- Title: lib/core/CResourceLocator.cc Pages: 1 -->
<svg width="547pt" height="193pt"
 viewBox="0.00 0.00 546.75 193.00" xmlns="http://www.w3.org/2000/svg" xmlns:xlink="http://www.w3.org/1999/xlink">
<g id="graph0" class="graph" transform="scale(1 1) rotate(0) translate(4 189)">
<title>lib/core/CResourceLocator.cc</title>
<!-- Node1 -->
<g id="Node000001" class="node">
<title>Node1</title>
<g id="a_Node000001"><a xlink:title=" ">
<polygon fill="#999999" stroke="#666666" points="329,-185 184,-185 184,-165.75 329,-165.75 329,-185"/>
<text text-anchor="middle" x="256.5" y="-171.5" font-family="Helvetica,sans-Serif" font-size="10.00">lib/core/CResourceLocator.cc</text>
</a>
</g>
</g>
<!-- Node2 -->
<g id="Node000002" class="node">
<title>Node2</title>
<g id="a_Node000002"><a xlink:href="../../d8/d52/_c_resource_locator_8h.html" target="_top" xlink:title=" ">
<polygon fill="white" stroke="#666666" points="127,-129.75 0,-129.75 0,-110.5 127,-110.5 127,-129.75"/>
<text text-anchor="middle" x="63.5" y="-116.25" font-family="Helvetica,sans-Serif" font-size="10.00">core/CResourceLocator.h</text>
</a>
</g>
</g>
<!-- Node1&#45;&gt;Node2 -->
<g id="edge1_Node000001_Node000002" class="edge">
<title>Node1&#45;&gt;Node2</title>
<g id="a_edge1_Node000001_Node000002"><a xlink:title=" ">
<path fill="none" stroke="#63b8ff" d="M223.76,-165.34C191.74,-156.51 142.75,-142.99 107.37,-133.23"/>
<polygon fill="#63b8ff" stroke="#63b8ff" points="108.43,-129.89 97.86,-130.61 106.57,-136.64 108.43,-129.89"/>
</a>
</g>
</g>
<!-- Node6 -->
<g id="Node000006" class="node">
<title>Node6</title>
<g id="a_Node000006"><a xlink:href="../../d0/dee/_c_os_file_funcs_8h.html" target="_top" xlink:title=" ">
<polygon fill="white" stroke="#666666" points="373,-129.75 264,-129.75 264,-110.5 373,-110.5 373,-129.75"/>
<text text-anchor="middle" x="318.5" y="-116.25" font-family="Helvetica,sans-Serif" font-size="10.00">core/COsFileFuncs.h</text>
</a>
</g>
</g>
<!-- Node1&#45;&gt;Node6 -->
<g id="edge6_Node000001_Node000006" class="edge">
<title>Node1&#45;&gt;Node6</title>
<g id="a_edge6_Node000001_Node000006"><a xlink:title=" ">
<path fill="none" stroke="#63b8ff" d="M267.02,-165.34C275.89,-157.72 288.81,-146.62 299.49,-137.45"/>
<polygon fill="#63b8ff" stroke="#63b8ff" points="301.68,-140.18 306.99,-131.01 297.12,-134.87 301.68,-140.18"/>
</a>
</g>
</g>
<!-- Node10 -->
<g id="Node000010" class="node">
<title>Node10</title>
<g id="a_Node000010"><a xlink:href="../../df/d77/_c_prog_name_8h.html" target="_top" xlink:title=" ">
<polygon fill="white" stroke="#666666" points="245.5,-129.75 145.5,-129.75 145.5,-110.5 245.5,-110.5 245.5,-129.75"/>
<text text-anchor="middle" x="195.5" y="-116.25" font-family="Helvetica,sans-Serif" font-size="10.00">core/CProgName.h</text>
</a>
</g>
</g>
<!-- Node1&#45;&gt;Node10 -->
<g id="edge12_Node000001_Node000010" class="edge">
<title>Node1&#45;&gt;Node10</title>
<g id="a_edge12_Node000001_Node000010"><a xlink:title=" ">
<path fill="none" stroke="#63b8ff" d="M246.15,-165.34C237.42,-157.72 224.71,-146.62 214.2,-137.45"/>
<polygon fill="#63b8ff" stroke="#63b8ff" points="216.67,-134.96 206.84,-131.02 212.07,-140.23 216.67,-134.96"/>
</a>
</g>
</g>
<!-- Node11 -->
<g id="Node000011" class="node">
<title>Node11</title>
<g id="a_Node000011"><a xlink:title=" ">
<polygon fill="#e0e0e0" stroke="#999999" points="435.75,-129.75 391.25,-129.75 391.25,-110.5 435.75,-110.5 435.75,-129.75"/>
<text text-anchor="middle" x="413.5" y="-116.25" font-family="Helvetica,sans-Serif" font-size="10.00">cstdlib</text>
</a>
</g>
</g>
<!-- Node1&#45;&gt;Node11 -->
<g id="edge16_Node000001_Node000011" class="edge">
<title>Node1&#45;&gt;Node11</title>
<g id="a_edge16_Node000001_Node000011"><a xlink:title=" ">
<path fill="none" stroke="#63b8ff" d="M283.13,-165.34C309.86,-156.28 351.09,-142.29 380.02,-132.48"/>
<polygon fill="#63b8ff" stroke="#63b8ff" points="381.04,-135.83 389.39,-129.3 378.79,-129.2 381.04,-135.83"/>
</a>
</g>
</g>
<!-- Node3 -->
<g id="Node000003" class="node">
<title>Node3</title>
<g id="a_Node000003"><a xlink:href="../../d7/dc2/_c_non_instantiatable_8h.html" target="_top" xlink:title=" ">
<polygon fill="white" stroke="#666666" points="231.5,-74.5 101.5,-74.5 101.5,-55.25 231.5,-55.25 231.5,-74.5"/>
<text text-anchor="middle" x="166.5" y="-61" font-family="Helvetica,sans-Serif" font-size="10.00">core/CNonInstantiatable.h</text>
</a>
</g>
</g>
<!-- Node2&#45;&gt;Node3 -->
<g id="edge2_Node000002_Node000003" class="edge">
<title>Node2&#45;&gt;Node3</title>
<g id="a_edge2_Node000002_Node000003"><a xlink:title=" ">
<path fill="none" stroke="#63b8ff" d="M80.97,-110.09C96.81,-101.91 120.41,-89.71 138.81,-80.19"/>
<polygon fill="#63b8ff" stroke="#63b8ff" points="140.32,-83.35 147.6,-75.65 137.11,-77.13 140.32,-83.35"/>
</a>
</g>
</g>
<!-- Node4 -->
<g id="Node000004" class="node">
<title>Node4</title>
<g id="a_Node000004"><a xlink:href="../../dd/d0e/core_2_import_export_8h.html" target="_top" xlink:title=" ">
<polygon fill="white" stroke="#666666" points="263.62,-19.25 161.38,-19.25 161.38,0 263.62,0 263.62,-19.25"/>
<text text-anchor="middle" x="212.5" y="-5.75" font-family="Helvetica,sans-Serif" font-size="10.00">core/ImportExport.h</text>
</a>
</g>
</g>
<!-- Node2&#45;&gt;Node4 -->
<g id="edge4_Node000002_Node000004" class="edge">
<title>Node2&#45;&gt;Node4</title>
<g id="a_edge4_Node000002_Node000004"><a xlink:title=" ">
<path fill="none" stroke="#63b8ff" d="M53.78,-110.15C40.83,-97.09 21.01,-72.53 34.5,-55.25 48.77,-36.96 104.43,-25.03 149.75,-18.15"/>
<polygon fill="#63b8ff" stroke="#63b8ff" points="150.13,-21.64 159.53,-16.73 149.13,-14.71 150.13,-21.64"/>
</a>
</g>
</g>
<!-- Node5 -->
<g id="Node000005" class="node">
<title>Node5</title>
<g id="a_Node000005"><a xlink:title=" ">
<polygon fill="#e0e0e0" stroke="#999999" points="83.5,-74.5 43.5,-74.5 43.5,-55.25 83.5,-55.25 83.5,-74.5"/>
<text text-anchor="middle" x="63.5" y="-61" font-family="Helvetica,sans-Serif" font-size="10.00">string</text>
</a>
</g>
</g>
<!-- Node2&#45;&gt;Node5 -->
<g id="edge5_Node000002_Node000005" class="edge">
<title>Node2&#45;&gt;Node5</title>
<g id="a_edge5_Node000002_Node000005"><a xlink:title=" ">
<path fill="none" stroke="#63b8ff" d="M63.5,-110.33C63.5,-103.82 63.5,-94.67 63.5,-86.37"/>
<polygon fill="#63b8ff" stroke="#63b8ff" points="67,-86.37 63.5,-76.37 60,-86.37 67,-86.37"/>
</a>
</g>
</g>
<!-- Node3&#45;&gt;Node4 -->
<g id="edge3_Node000003_Node000004" class="edge">
<title>Node3&#45;&gt;Node4</title>
<g id="a_edge3_Node000003_Node000004"><a xlink:title=" ">
<path fill="none" stroke="#63b8ff" d="M174.1,-55.08C180.38,-47.8 189.51,-37.23 197.3,-28.23"/>
<polygon fill="#63b8ff" stroke="#63b8ff" points="199.86,-30.61 203.75,-20.75 194.56,-26.03 199.86,-30.61"/>
</a>
</g>
</g>
<!-- Node6&#45;&gt;Node3 -->
<g id="edge7_Node000006_Node000003" class="edge">
<title>Node6&#45;&gt;Node3</title>
<g id="a_edge7_Node000006_Node000003"><a xlink:title=" ">
<path fill="none" stroke="#63b8ff" d="M292.72,-110.09C268.15,-101.49 230.91,-88.44 203.24,-78.75"/>
<polygon fill="#63b8ff" stroke="#63b8ff" points="204.43,-75.46 193.84,-75.45 202.12,-82.06 204.43,-75.46"/>
</a>
</g>
</g>
<!-- Node6&#45;&gt;Node4 -->
<g id="edge8_Node000006_Node000004" class="edge">
<title>Node6&#45;&gt;Node4</title>
<g id="a_edge8_Node000006_Node000004"><a xlink:title=" ">
<path fill="none" stroke="#63b8ff" d="M309.83,-110.25C292.2,-92.21 251.94,-51 229.11,-27.63"/>
<polygon fill="#63b8ff" stroke="#63b8ff" points="231.84,-25.42 222.35,-20.71 226.84,-30.31 231.84,-25.42"/>
</a>
</g>
</g>
<!-- Node7 -->
<g id="Node000007" class="node">
<title>Node7</title>
<g id="a_Node000007"><a xlink:title=" ">
<polygon fill="#e0e0e0" stroke="#999999" points="385.25,-74.5 325.75,-74.5 325.75,-55.25 385.25,-55.25 385.25,-74.5"/>
<text text-anchor="middle" x="355.5" y="-61" font-family="Helvetica,sans-Serif" font-size="10.00">sys/stat.h</text>
</a>
</g>
</g>
<!-- Node6&#45;&gt;Node7 -->
<g id="edge9_Node000006_Node000007" class="edge">
<title>Node6&#45;&gt;Node7</title>
<g id="a_edge9_Node000006_Node000007"><a xlink:title=" ">
<path fill="none" stroke="#63b8ff" d="M324.61,-110.33C329.56,-103.21 336.7,-92.93 342.87,-84.05"/>
<polygon fill="#63b8ff" stroke="#63b8ff" points="345.56,-86.31 348.39,-76.1 339.81,-82.32 345.56,-86.31"/>
</a>
</g>
</g>
<!-- Node8 -->
<g id="Node000008" class="node">
<title>Node8</title>
<g id="a_Node000008"><a xlink:title=" ">
<polygon fill="#e0e0e0" stroke="#999999" points="470,-74.5 403,-74.5 403,-55.25 470,-55.25 470,-74.5"/>
<text text-anchor="middle" x="436.5" y="-61" font-family="Helvetica,sans-Serif" font-size="10.00">sys/types.h</text>
</a>
</g>
</g>
<!-- Node6&#45;&gt;Node8 -->
<g id="edge10_Node000006_Node000008" class="edge">
<title>Node6&#45;&gt;Node8</title>
<g id="a_edge10_Node000006_Node000008"><a xlink:title=" ">
<path fill="none" stroke="#63b8ff" d="M338.52,-110.09C356.99,-101.75 384.71,-89.25 405.95,-79.66"/>
<polygon fill="#63b8ff" stroke="#63b8ff" points="407.33,-82.88 415.01,-75.58 404.45,-76.5 407.33,-82.88"/>
</a>
</g>
</g>
<!-- Node9 -->
<g id="Node000009" class="node">
<title>Node9</title>
<g id="a_Node000009"><a xlink:title=" ">
<polygon fill="#e0e0e0" stroke="#999999" points="538.75,-74.5 488.25,-74.5 488.25,-55.25 538.75,-55.25 538.75,-74.5"/>
<text text-anchor="middle" x="513.5" y="-61" font-family="Helvetica,sans-Serif" font-size="10.00">unistd.h</text>
</a>
</g>
</g>
<!-- Node6&#45;&gt;Node9 -->
<g id="edge11_Node000006_Node000009" class="edge">
<title>Node6&#45;&gt;Node9</title>
<g id="a_edge11_Node000006_Node000009"><a xlink:title=" ">
<path fill="none" stroke="#63b8ff" d="M351.58,-110.09C386.39,-100.59 441.02,-85.67 477.05,-75.83"/>
<polygon fill="#63b8ff" stroke="#63b8ff" points="477.86,-79.24 486.58,-73.23 476.01,-72.48 477.86,-79.24"/>
</a>
</g>
</g>
<!-- Node10&#45;&gt;Node3 -->
<g id="edge13_Node000010_Node000003" class="edge">
<title>Node10&#45;&gt;Node3</title>
<g id="a_edge13_Node000010_Node000003"><a xlink:title=" ">
<path fill="none" stroke="#63b8ff" d="M190.71,-110.33C186.96,-103.44 181.59,-93.59 176.87,-84.91"/>
<polygon fill="#63b8ff" stroke="#63b8ff" points="179.97,-83.3 172.12,-76.19 173.83,-86.64 179.97,-83.3"/>
</a>
</g>
</g>
<!-- Node10&#45;&gt;Node4 -->
<g id="edge14_Node000010_Node000004" class="edge">
<title>Node10&#45;&gt;Node4</title>
<g id="a_edge14_Node000010_Node000004"><a xlink:title=" ">
<path fill="none" stroke="#63b8ff" d="M209.43,-110.03C220.18,-102.1 234.24,-89.53 240.5,-74.5 247.03,-58.82 238,-41.15 228.5,-28.38"/>
<polygon fill="#63b8ff" stroke="#63b8ff" points="231.39,-26.38 222.35,-20.85 225.97,-30.81 231.39,-26.38"/>
</a>
</g>
</g>
<!-- Node10&#45;&gt;Node5 -->
<g id="edge15_Node000010_Node000005" class="edge">
<title>Node10&#45;&gt;Node5</title>
<g id="a_edge15_Node000010_Node000005"><a xlink:title=" ">
<path fill="none" stroke="#63b8ff" d="M173.11,-110.09C151.42,-101.34 118.36,-88.01 94.22,-78.27"/>
<polygon fill="#63b8ff" stroke="#63b8ff" points="95.82,-75.14 85.23,-74.64 93.2,-81.63 95.82,-75.14"/>
</a>
</g>
</g>
</g>
</svg>
