<?xml version="1.0" encoding="UTF-8" standalone="no"?>
<!DOCTYPE svg PUBLIC "-//W3C//DTD SVG 1.1//EN"
 "http://www.w3.org/Graphics/SVG/1.1/DTD/svg11.dtd">
<!-- Generated by graphviz version 10.0.1 (20240210.2158)
 -->
<!-- Title: ml::maths::common::CModel::seasonalWeight Pages: 1 -->
<!--zoomable 454 -->

<svg id="main" version="1.1" xmlns="http://www.w3.org/2000/svg" xmlns:xlink="http://www.w3.org/1999/xlink" xml:space="preserve" onload="init(evt)">
<style type="text/css"><![CDATA[
.node, .edge {opacity: 0.7;}
.node.selected, .edge.selected {opacity: 1;}
.edge:hover path { stroke: red; }
.edge:hover polygon { stroke: red; fill: red; }
]]></style>

<defs>
  <circle id="rim" cx="0" cy="0" r="7"/>
  <circle id="rim2" cx="0" cy="0" r="3.5"/>
  <g id="zoomPlus">
    <use xlink:href="#rim" fill="#404040"><set attributeName="fill" to="#808080" begin="zoomplus.mouseover" end="zoomplus.mouseout"/></use>
    <path d="M-4,0h8M0,-4v8" fill="none" stroke="white" stroke-width="1.5" pointer-events="none"/>
  </g>
  <g id="zoomMin">
    <use xlink:href="#rim" fill="#404040"><set attributeName="fill" to="#808080" begin="zoomminus.mouseover" end="zoomminus.mouseout"/></use>
    <path d="M-4,0h8" fill="none" stroke="white" stroke-width="1.5" pointer-events="none"/>
  </g>
  <g id="arrowUp" transform="translate(30 24)">
    <use xlink:href="#rim"/>
    <path pointer-events="none" fill="none" stroke="white" stroke-width="1.5" d="M0,-3.0v7 M-2.5,-0.5L0,-3.0L2.5,-0.5"/>
  </g>
  <g id="arrowRight" transform="rotate(90) translate(36 -43)">
    <use xlink:href="#rim"/>
    <path pointer-events="none" fill="none" stroke="white" stroke-width="1.5" d="M0,-3.0v7 M-2.5,-0.5L0,-3.0L2.5,-0.5"/>
  </g>
  <g id="arrowDown" transform="rotate(180) translate(-30 -48)">
    <use xlink:href="#rim"/>
    <path pointer-events="none" fill="none" stroke="white" stroke-width="1.5" d="M0,-3.0v7 M-2.5,-0.5L0,-3.0L2.5,-0.5"/>
  </g>
  <g id="arrowLeft" transform="rotate(270) translate(-36 17)">
    <use xlink:href="#rim"/>
    <path pointer-events="none" fill="none" stroke="white" stroke-width="1.5" d="M0,-3.0v7 M-2.5,-0.5L0,-3.0L2.5,-0.5"/>
  </g>
  <g id="resetDef">
    <use xlink:href="#rim2" fill="#404040"><set attributeName="fill" to="#808080" begin="reset.mouseover" end="reset.mouseout"/></use>
  </g>
</defs>
<script type="application/ecmascript">
var viewWidth = 543;
var viewHeight = 454;
var sectionId = 'dynsection-27';
</script>
<script type="application/ecmascript" xlink:href="../../svg.min.js"/>
<svg id="graph" class="graph">
<g id="viewport">
<title>ml::maths::common::CModel::seasonalWeight</title>
<!-- Node1 -->
<g id="Node000001" class="node">
<title>Node1</title>
<g id="a_Node000001"><a xlink:title="Fill in the seasonal variance scale at time.">
<polygon fill="#999999" stroke="#666666" points="534.75,-201.5 410,-201.5 410,-171 534.75,-171 534.75,-201.5"/>
<text text-anchor="start" x="418" y="-188" font-family="Helvetica,sans-Serif" font-size="10.00">ml::maths::common::</text>
<text text-anchor="middle" x="472.38" y="-176.75" font-family="Helvetica,sans-Serif" font-size="10.00">CModel::seasonalWeight</text>
</a>
</g>
</g>
<!-- Node2 -->
<g id="Node000002" class="node">
<title>Node2</title>
<g id="a_Node000002"><a xlink:href="../../da/d82/namespaceanonymous__namespace_02_c_probability_and_influence_calculator_test_8cc_03.html#ab9f3f6c6d6bb5392b814464a4c35e070" target="_top" xlink:title=" ">
<polygon fill="white" stroke="#666666" points="374,-395.12 200.5,-395.12 200.5,-353.38 374,-353.38 374,-395.12"/>
<text text-anchor="start" x="208.5" y="-381.62" font-family="Helvetica,sans-Serif" font-size="10.00">anonymous_namespace</text>
<text text-anchor="start" x="208.5" y="-370.38" font-family="Helvetica,sans-Serif" font-size="10.00">{CProbabilityAndInfluenceCalculator</text>
<text text-anchor="middle" x="287.25" y="-359.12" font-family="Helvetica,sans-Serif" font-size="10.00">Test::cc}::computeInfluences</text>
</a>
</g>
</g>
<!-- Node1&#45;&gt;Node2 -->
<g id="edge1_Node000001_Node000002" class="edge">
<title>Node1&#45;&gt;Node2</title>
<g id="a_edge1_Node000001_Node000002"><a xlink:title=" ">
<path fill="none" stroke="#63b8ff" d="M461.94,-211.97C447.93,-246.75 418.4,-308.53 374,-344.25 369.94,-347.51 365.51,-350.43 360.86,-353.04"/>
<polygon fill="#63b8ff" stroke="#63b8ff" points="465.03,-213.69 465.39,-203.11 458.5,-211.15 465.03,-213.69"/>
</a>
</g>
</g>
<!-- Node8 -->
<g id="Node000008" class="node">
<title>Node8</title>
<g id="a_Node000008"><a xlink:href="../../da/d82/namespaceanonymous__namespace_02_c_probability_and_influence_calculator_test_8cc_03.html#a3a646069e309ebaf8208bbc28aebefd9" target="_top" xlink:title=" ">
<polygon fill="white" stroke="#666666" points="374,-335.12 200.5,-335.12 200.5,-293.38 374,-293.38 374,-335.12"/>
<text text-anchor="start" x="208.5" y="-321.62" font-family="Helvetica,sans-Serif" font-size="10.00">anonymous_namespace</text>
<text text-anchor="start" x="208.5" y="-310.38" font-family="Helvetica,sans-Serif" font-size="10.00">{CProbabilityAndInfluenceCalculator</text>
<text text-anchor="middle" x="287.25" y="-299.12" font-family="Helvetica,sans-Serif" font-size="10.00">Test::cc}::computeProbability</text>
</a>
</g>
</g>
<!-- Node1&#45;&gt;Node8 -->
<g id="edge7_Node000001_Node000008" class="edge">
<title>Node1&#45;&gt;Node8</title>
<g id="a_edge7_Node000001_Node000008"><a xlink:title=" ">
<path fill="none" stroke="#63b8ff" d="M452.81,-210.4C434.79,-232.37 405.6,-264.33 374,-284.25 368.93,-287.45 363.48,-290.36 357.86,-292.99"/>
<polygon fill="#63b8ff" stroke="#63b8ff" points="455.35,-212.83 458.87,-202.84 449.89,-208.45 455.35,-212.83"/>
</a>
</g>
</g>
<!-- Node9 -->
<g id="Node000009" class="node">
<title>Node9</title>
<g id="a_Node000009"><a xlink:href="../../dc/d14/classml_1_1model_1_1_c_event_rate_model.html#a6ab02a238c5ad4ffdcd811c520ce1a03" target="_top" xlink:title=" ">
<polygon fill="white" stroke="#666666" points="359.75,-275.5 214.75,-275.5 214.75,-245 359.75,-245 359.75,-275.5"/>
<text text-anchor="start" x="222.75" y="-262" font-family="Helvetica,sans-Serif" font-size="10.00">ml::model::CEventRateModel</text>
<text text-anchor="middle" x="287.25" y="-250.75" font-family="Helvetica,sans-Serif" font-size="10.00">::fill</text>
</a>
</g>
</g>
<!-- Node1&#45;&gt;Node9 -->
<g id="edge11_Node000001_Node000009" class="edge">
<title>Node1&#45;&gt;Node9</title>
<g id="a_edge11_Node000001_Node000009"><a xlink:title=" ">
<path fill="none" stroke="#63b8ff" d="M433.89,-207.13C416.09,-216.52 394.32,-227.25 374,-235.25 365.49,-238.6 356.34,-241.73 347.31,-244.57"/>
<polygon fill="#63b8ff" stroke="#63b8ff" points="435.37,-210.31 442.54,-202.5 432.07,-204.13 435.37,-210.31"/>
</a>
</g>
</g>
<!-- Node10 -->
<g id="Node000010" class="node">
<title>Node10</title>
<g id="a_Node000010"><a xlink:href="../../dc/d14/classml_1_1model_1_1_c_event_rate_model.html#a7f47e57e3eba38ccdfb4924902dd8af8" target="_top" xlink:title=" ">
<polygon fill="white" stroke="#666666" points="359.75,-226.5 214.75,-226.5 214.75,-196 359.75,-196 359.75,-226.5"/>
<text text-anchor="start" x="222.75" y="-213" font-family="Helvetica,sans-Serif" font-size="10.00">ml::model::CEventRateModel</text>
<text text-anchor="middle" x="287.25" y="-201.75" font-family="Helvetica,sans-Serif" font-size="10.00">::fill</text>
</a>
</g>
</g>
<!-- Node1&#45;&gt;Node10 -->
<g id="edge12_Node000001_Node000010" class="edge">
<title>Node1&#45;&gt;Node10</title>
<g id="a_edge12_Node000001_Node000010"><a xlink:title=" ">
<path fill="none" stroke="#63b8ff" d="M398.27,-196.23C385.72,-197.94 372.68,-199.72 360.16,-201.43"/>
<polygon fill="#63b8ff" stroke="#63b8ff" points="398.7,-199.7 408.13,-194.88 397.75,-192.77 398.7,-199.7"/>
</a>
</g>
</g>
<!-- Node12 -->
<g id="Node000012" class="node">
<title>Node12</title>
<g id="a_Node000012"><a xlink:href="../../d0/d77/classml_1_1model_1_1_c_event_rate_population_model.html#a3df1f489824a7a890c2c3a5742d444af" target="_top" xlink:title=" ">
<polygon fill="white" stroke="#666666" points="369.5,-177.5 205,-177.5 205,-147 369.5,-147 369.5,-177.5"/>
<text text-anchor="start" x="213" y="-164" font-family="Helvetica,sans-Serif" font-size="10.00">ml::model::CEventRatePopulation</text>
<text text-anchor="middle" x="287.25" y="-152.75" font-family="Helvetica,sans-Serif" font-size="10.00">Model::fill</text>
</a>
</g>
</g>
<!-- Node1&#45;&gt;Node12 -->
<g id="edge14_Node000001_Node000012" class="edge">
<title>Node1&#45;&gt;Node12</title>
<g id="a_edge14_Node000001_Node000012"><a xlink:title=" ">
<path fill="none" stroke="#63b8ff" d="M398.37,-176.68C389,-175.45 379.36,-174.19 369.87,-172.95"/>
<polygon fill="#63b8ff" stroke="#63b8ff" points="397.76,-180.13 408.13,-177.96 398.67,-173.19 397.76,-180.13"/>
</a>
</g>
</g>
<!-- Node14 -->
<g id="Node000014" class="node">
<title>Node14</title>
<g id="a_Node000014"><a xlink:href="../../da/dfb/classml_1_1model_1_1_c_metric_model.html#aa475ea54f421611c79a8162739dbfb8f" target="_top" xlink:title=" ">
<polygon fill="white" stroke="#666666" points="350,-128.5 224.5,-128.5 224.5,-98 350,-98 350,-128.5"/>
<text text-anchor="start" x="232.5" y="-115" font-family="Helvetica,sans-Serif" font-size="10.00">ml::model::CMetricModel</text>
<text text-anchor="middle" x="287.25" y="-103.75" font-family="Helvetica,sans-Serif" font-size="10.00">::fill</text>
</a>
</g>
</g>
<!-- Node1&#45;&gt;Node14 -->
<g id="edge16_Node000001_Node000014" class="edge">
<title>Node1&#45;&gt;Node14</title>
<g id="a_edge16_Node000001_Node000014"><a xlink:title=" ">
<path fill="none" stroke="#63b8ff" d="M433.07,-165.44C415.41,-156.35 393.97,-146.02 374,-138.25 365.47,-134.93 356.32,-131.82 347.29,-128.99"/>
<polygon fill="#63b8ff" stroke="#63b8ff" points="431.17,-168.4 441.65,-169.92 434.41,-162.19 431.17,-168.4"/>
</a>
</g>
</g>
<!-- Node16 -->
<g id="Node000016" class="node">
<title>Node16</title>
<g id="a_Node000016"><a xlink:href="../../d2/d49/classml_1_1model_1_1_c_metric_population_model.html#ad1b7111685b6d39fa4be3325acbde9e8" target="_top" xlink:title=" ">
<polygon fill="white" stroke="#666666" points="359.75,-79.5 214.75,-79.5 214.75,-49 359.75,-49 359.75,-79.5"/>
<text text-anchor="start" x="222.75" y="-66" font-family="Helvetica,sans-Serif" font-size="10.00">ml::model::CMetricPopulation</text>
<text text-anchor="middle" x="287.25" y="-54.75" font-family="Helvetica,sans-Serif" font-size="10.00">Model::fill</text>
</a>
</g>
</g>
<!-- Node1&#45;&gt;Node16 -->
<g id="edge18_Node000001_Node000016" class="edge">
<title>Node1&#45;&gt;Node16</title>
<g id="a_edge18_Node000001_Node000016"><a xlink:title=" ">
<path fill="none" stroke="#63b8ff" d="M452.99,-161.97C435.1,-139.96 406,-108.15 374,-89.25 367.99,-85.7 361.45,-82.63 354.74,-79.97"/>
<polygon fill="#63b8ff" stroke="#63b8ff" points="450.05,-163.89 459.01,-169.55 455.54,-159.54 450.05,-163.89"/>
</a>
</g>
</g>
<!-- Node18 -->
<g id="Node000018" class="node">
<title>Node18</title>
<g id="a_Node000018"><a xlink:href="../../da/d83/classml_1_1model_1_1_c_model_details_view.html#a8532c48ab20d62810e459bd038d7c1a0" target="_top" xlink:title="Get the model plot data for the specified by field value.">
<polygon fill="white" stroke="#666666" points="358.62,-30.5 215.88,-30.5 215.88,0 358.62,0 358.62,-30.5"/>
<text text-anchor="start" x="223.88" y="-17" font-family="Helvetica,sans-Serif" font-size="10.00">ml::model::CModelDetails</text>
<text text-anchor="middle" x="287.25" y="-5.75" font-family="Helvetica,sans-Serif" font-size="10.00">View::modelPlotForByFieldId</text>
</a>
</g>
</g>
<!-- Node1&#45;&gt;Node18 -->
<g id="edge20_Node000001_Node000018" class="edge">
<title>Node1&#45;&gt;Node18</title>
<g id="a_edge20_Node000001_Node000018"><a xlink:title=" ">
<path fill="none" stroke="#63b8ff" d="M460.84,-160.3C446.21,-127.5 416.62,-71.53 374,-40.25 369.12,-36.67 363.74,-33.6 358.13,-30.97"/>
<polygon fill="#63b8ff" stroke="#63b8ff" points="457.62,-161.67 464.79,-169.47 464.05,-158.9 457.62,-161.67"/>
</a>
</g>
</g>
<!-- Node3 -->
<g id="Node000003" class="node">
<title>Node3</title>
<g id="a_Node000003"><a xlink:href="../../d0/da9/_c_probability_and_influence_calculator_test_8cc.html#a40da8f061edacb8937ae2a825d993584" target="_top" xlink:title=" ">
<polygon fill="white" stroke="#666666" points="155.88,-445.88 8.62,-445.88 8.62,-426.62 155.88,-426.62 155.88,-445.88"/>
<text text-anchor="middle" x="82.25" y="-432.38" font-family="Helvetica,sans-Serif" font-size="10.00">BOOST_AUTO_TEST_CASE</text>
</a>
</g>
</g>
<!-- Node2&#45;&gt;Node3 -->
<g id="edge2_Node000002_Node000003" class="edge">
<title>Node2&#45;&gt;Node3</title>
<g id="a_edge2_Node000002_Node000003"><a xlink:title=" ">
<path fill="none" stroke="#63b8ff" d="M221.12,-399.54C202.95,-406.11 183.09,-412.86 164.5,-418.25 154.51,-421.15 143.71,-423.84 133.35,-426.21"/>
<polygon fill="#63b8ff" stroke="#63b8ff" points="222.29,-402.84 230.47,-396.11 219.88,-396.26 222.29,-402.84"/>
</a>
</g>
</g>
<!-- Node4 -->
<g id="Node000004" class="node">
<title>Node4</title>
<g id="a_Node000004"><a xlink:href="../../d0/da9/_c_probability_and_influence_calculator_test_8cc.html#afda9e7791ec298e1a35053173327396c" target="_top" xlink:title=" ">
<polygon fill="white" stroke="#666666" points="155.88,-408.88 8.62,-408.88 8.62,-389.62 155.88,-389.62 155.88,-408.88"/>
<text text-anchor="middle" x="82.25" y="-395.38" font-family="Helvetica,sans-Serif" font-size="10.00">BOOST_AUTO_TEST_CASE</text>
</a>
</g>
</g>
<!-- Node2&#45;&gt;Node4 -->
<g id="edge3_Node000002_Node000004" class="edge">
<title>Node2&#45;&gt;Node4</title>
<g id="a_edge3_Node000002_Node000004"><a xlink:title=" ">
<path fill="none" stroke="#63b8ff" d="M188.81,-386.25C177.88,-387.6 166.88,-388.95 156.33,-390.25"/>
<polygon fill="#63b8ff" stroke="#63b8ff" points="189.16,-389.73 198.66,-385.04 188.3,-382.79 189.16,-389.73"/>
</a>
</g>
</g>
<!-- Node5 -->
<g id="Node000005" class="node">
<title>Node5</title>
<g id="a_Node000005"><a xlink:href="../../d0/da9/_c_probability_and_influence_calculator_test_8cc.html#ae2ef16122dce9511ab0798fba4c9f253" target="_top" xlink:title=" ">
<polygon fill="white" stroke="#666666" points="155.88,-371.88 8.62,-371.88 8.62,-352.62 155.88,-352.62 155.88,-371.88"/>
<text text-anchor="middle" x="82.25" y="-358.38" font-family="Helvetica,sans-Serif" font-size="10.00">BOOST_AUTO_TEST_CASE</text>
</a>
</g>
</g>
<!-- Node2&#45;&gt;Node5 -->
<g id="edge4_Node000002_Node000005" class="edge">
<title>Node2&#45;&gt;Node5</title>
<g id="a_edge4_Node000002_Node000005"><a xlink:title=" ">
<path fill="none" stroke="#63b8ff" d="M188.81,-368.49C177.88,-367.84 166.88,-367.19 156.33,-366.57"/>
<polygon fill="#63b8ff" stroke="#63b8ff" points="188.46,-371.98 198.65,-369.07 188.87,-364.99 188.46,-371.98"/>
</a>
</g>
</g>
<!-- Node6 -->
<g id="Node000006" class="node">
<title>Node6</title>
<g id="a_Node000006"><a xlink:href="../../d0/da9/_c_probability_and_influence_calculator_test_8cc.html#a47996bc2a5aec01b2d11db1db3e394c9" target="_top" xlink:title=" ">
<polygon fill="white" stroke="#666666" points="155.88,-334.88 8.62,-334.88 8.62,-315.62 155.88,-315.62 155.88,-334.88"/>
<text text-anchor="middle" x="82.25" y="-321.38" font-family="Helvetica,sans-Serif" font-size="10.00">BOOST_AUTO_TEST_CASE</text>
</a>
</g>
</g>
<!-- Node2&#45;&gt;Node6 -->
<g id="edge5_Node000002_Node000006" class="edge">
<title>Node2&#45;&gt;Node6</title>
<g id="a_edge5_Node000002_Node000006"><a xlink:title=" ">
<path fill="none" stroke="#63b8ff" d="M192.68,-350.11C183.17,-347.75 173.65,-345.43 164.5,-343.25 153.26,-340.57 141.1,-337.81 129.71,-335.28"/>
<polygon fill="#63b8ff" stroke="#63b8ff" points="191.8,-353.5 202.35,-352.52 193.49,-346.71 191.8,-353.5"/>
</a>
</g>
</g>
<!-- Node7 -->
<g id="Node000007" class="node">
<title>Node7</title>
<g id="a_Node000007"><a xlink:href="../../d0/da9/_c_probability_and_influence_calculator_test_8cc.html#a557d9c81e96f15fcbfc71636921457b1" target="_top" xlink:title=" ">
<polygon fill="white" stroke="#666666" points="155.88,-297.88 8.62,-297.88 8.62,-278.62 155.88,-278.62 155.88,-297.88"/>
<text text-anchor="middle" x="82.25" y="-284.38" font-family="Helvetica,sans-Serif" font-size="10.00">BOOST_AUTO_TEST_CASE</text>
</a>
</g>
</g>
<!-- Node2&#45;&gt;Node7 -->
<g id="edge6_Node000002_Node000007" class="edge">
<title>Node2&#45;&gt;Node7</title>
<g id="a_edge6_Node000002_Node000007"><a xlink:title=" ">
<path fill="none" stroke="#63b8ff" d="M206.16,-347.7C204.23,-346.59 202.34,-345.44 200.5,-344.25 180.97,-331.61 184.74,-317.71 164.5,-306.25 158.84,-303.05 152.66,-300.41 146.32,-298.25"/>
<polygon fill="#63b8ff" stroke="#63b8ff" points="204.29,-350.67 214.77,-352.21 207.54,-344.47 204.29,-350.67"/>
</a>
</g>
</g>
<!-- Node8&#45;&gt;Node5 -->
<g id="edge8_Node000008_Node000005" class="edge">
<title>Node8&#45;&gt;Node5</title>
<g id="a_edge8_Node000008_Node000005"><a xlink:title=" ">
<path fill="none" stroke="#63b8ff" d="M189.66,-338.27C181.16,-340.32 172.68,-342.34 164.5,-344.25 153.25,-346.88 141.09,-349.63 129.7,-352.16"/>
<polygon fill="#63b8ff" stroke="#63b8ff" points="190.47,-341.68 199.36,-335.92 188.82,-334.87 190.47,-341.68"/>
</a>
</g>
</g>
<!-- Node8&#45;&gt;Node6 -->
<g id="edge9_Node000008_Node000006" class="edge">
<title>Node8&#45;&gt;Node6</title>
<g id="a_edge9_Node000008_Node000006"><a xlink:title=" ">
<path fill="none" stroke="#63b8ff" d="M188.81,-319.53C177.88,-320.12 166.88,-320.72 156.33,-321.29"/>
<polygon fill="#63b8ff" stroke="#63b8ff" points="188.85,-323.03 198.65,-319 188.47,-316.04 188.85,-323.03"/>
</a>
</g>
</g>
<!-- Node8&#45;&gt;Node7 -->
<g id="edge10_Node000008_Node000007" class="edge">
<title>Node8&#45;&gt;Node7</title>
<g id="a_edge10_Node000008_Node000007"><a xlink:title=" ">
<path fill="none" stroke="#63b8ff" d="M188.81,-301.77C177.88,-300.37 166.88,-298.96 156.33,-297.61"/>
<polygon fill="#63b8ff" stroke="#63b8ff" points="188.29,-305.23 198.66,-303.03 189.18,-298.29 188.29,-305.23"/>
</a>
</g>
</g>
<!-- Node11 -->
<g id="Node000011" class="node">
<title>Node11</title>
<g id="a_Node000011"><a xlink:href="../../dc/d14/classml_1_1model_1_1_c_event_rate_model.html#a859435dc2079e62468fe75e069353edf" target="_top" xlink:title=" ">
<polygon fill="white" stroke="#666666" points="154.75,-226.5 9.75,-226.5 9.75,-196 154.75,-196 154.75,-226.5"/>
<text text-anchor="start" x="17.75" y="-213" font-family="Helvetica,sans-Serif" font-size="10.00">ml::model::CEventRateModel</text>
<text text-anchor="middle" x="82.25" y="-201.75" font-family="Helvetica,sans-Serif" font-size="10.00">::computeProbability</text>
</a>
</g>
</g>
<!-- Node10&#45;&gt;Node11 -->
<g id="edge13_Node000010_Node000011" class="edge">
<title>Node10&#45;&gt;Node11</title>
<g id="a_edge13_Node000010_Node000011"><a xlink:title=" ">
<path fill="none" stroke="#63b8ff" d="M202.94,-211.25C187.04,-211.25 170.52,-211.25 155.01,-211.25"/>
<polygon fill="#63b8ff" stroke="#63b8ff" points="202.88,-214.75 212.88,-211.25 202.88,-207.75 202.88,-214.75"/>
</a>
</g>
</g>
<!-- Node13 -->
<g id="Node000013" class="node">
<title>Node13</title>
<g id="a_Node000013"><a xlink:href="../../d0/d77/classml_1_1model_1_1_c_event_rate_population_model.html#a1f6bcc812dfb5fd684f4a6ad6fb51947" target="_top" xlink:title=" ">
<polygon fill="white" stroke="#666666" points="164.5,-177.5 0,-177.5 0,-147 164.5,-147 164.5,-177.5"/>
<text text-anchor="start" x="8" y="-164" font-family="Helvetica,sans-Serif" font-size="10.00">ml::model::CEventRatePopulation</text>
<text text-anchor="middle" x="82.25" y="-152.75" font-family="Helvetica,sans-Serif" font-size="10.00">Model::computeProbability</text>
</a>
</g>
</g>
<!-- Node12&#45;&gt;Node13 -->
<g id="edge15_Node000012_Node000013" class="edge">
<title>Node12&#45;&gt;Node13</title>
<g id="a_edge15_Node000012_Node000013"><a xlink:title=" ">
<path fill="none" stroke="#63b8ff" d="M193.1,-162.25C183.64,-162.25 174.09,-162.25 164.77,-162.25"/>
<polygon fill="#63b8ff" stroke="#63b8ff" points="193.05,-165.75 203.05,-162.25 193.05,-158.75 193.05,-165.75"/>
</a>
</g>
</g>
<!-- Node15 -->
<g id="Node000015" class="node">
<title>Node15</title>
<g id="a_Node000015"><a xlink:href="../../da/dfb/classml_1_1model_1_1_c_metric_model.html#a730885952a2719bff06c7134ea5459a8" target="_top" xlink:title=" ">
<polygon fill="white" stroke="#666666" points="145,-128.5 19.5,-128.5 19.5,-98 145,-98 145,-128.5"/>
<text text-anchor="start" x="27.5" y="-115" font-family="Helvetica,sans-Serif" font-size="10.00">ml::model::CMetricModel</text>
<text text-anchor="middle" x="82.25" y="-103.75" font-family="Helvetica,sans-Serif" font-size="10.00">::computeProbability</text>
</a>
</g>
</g>
<!-- Node14&#45;&gt;Node15 -->
<g id="edge17_Node000014_Node000015" class="edge">
<title>Node14&#45;&gt;Node15</title>
<g id="a_edge17_Node000014_Node000015"><a xlink:title=" ">
<path fill="none" stroke="#63b8ff" d="M212.85,-113.25C190.68,-113.25 166.57,-113.25 145.23,-113.25"/>
<polygon fill="#63b8ff" stroke="#63b8ff" points="212.73,-116.75 222.73,-113.25 212.73,-109.75 212.73,-116.75"/>
</a>
</g>
</g>
<!-- Node17 -->
<g id="Node000017" class="node">
<title>Node17</title>
<g id="a_Node000017"><a xlink:href="../../d2/d49/classml_1_1model_1_1_c_metric_population_model.html#a29261a9ee0d70391b539f75c8320d008" target="_top" xlink:title=" ">
<polygon fill="white" stroke="#666666" points="154.75,-79.5 9.75,-79.5 9.75,-49 154.75,-49 154.75,-79.5"/>
<text text-anchor="start" x="17.75" y="-66" font-family="Helvetica,sans-Serif" font-size="10.00">ml::model::CMetricPopulation</text>
<text text-anchor="middle" x="82.25" y="-54.75" font-family="Helvetica,sans-Serif" font-size="10.00">Model::computeProbability</text>
</a>
</g>
</g>
<!-- Node16&#45;&gt;Node17 -->
<g id="edge19_Node000016_Node000017" class="edge">
<title>Node16&#45;&gt;Node17</title>
<g id="a_edge19_Node000016_Node000017"><a xlink:title=" ">
<path fill="none" stroke="#63b8ff" d="M202.94,-64.25C187.04,-64.25 170.52,-64.25 155.01,-64.25"/>
<polygon fill="#63b8ff" stroke="#63b8ff" points="202.88,-67.75 212.88,-64.25 202.88,-60.75 202.88,-67.75"/>
</a>
</g>
</g>
<!-- Node19 -->
<g id="Node000019" class="node">
<title>Node19</title>
<g id="a_Node000019"><a xlink:href="../../da/d83/classml_1_1model_1_1_c_model_details_view.html#a65d16260e160c3a0de4d599a4871a7fe" target="_top" xlink:title=" ">
<polygon fill="white" stroke="#666666" points="146.88,-30.5 17.62,-30.5 17.62,0 146.88,0 146.88,-30.5"/>
<text text-anchor="start" x="25.62" y="-17" font-family="Helvetica,sans-Serif" font-size="10.00">ml::model::CModelDetails</text>
<text text-anchor="middle" x="82.25" y="-5.75" font-family="Helvetica,sans-Serif" font-size="10.00">View::modelPlot</text>
</a>
</g>
</g>
<!-- Node18&#45;&gt;Node19 -->
<g id="edge21_Node000018_Node000019" class="edge">
<title>Node18&#45;&gt;Node19</title>
<g id="a_edge21_Node000018_Node000019"><a xlink:title=" ">
<path fill="none" stroke="#63b8ff" d="M204.19,-15.25C185.23,-15.25 165.32,-15.25 147.26,-15.25"/>
<polygon fill="#63b8ff" stroke="#63b8ff" points="204.02,-18.75 214.02,-15.25 204.02,-11.75 204.02,-18.75"/>
</a>
</g>
</g>
</g>
</svg>

<g id="navigator" transform="translate(0 0)" fill="#404254">
  <rect fill="#f2f5e9" fill-opacity="0.5" stroke="#606060" stroke-width=".5" x="0" y="0" width="60" height="60"/>
  <use id="zoomplus" xlink:href="#zoomPlus" x="17" y="9" onmousedown="handleZoom(evt,'in')"/>
  <use id="zoomminus" xlink:href="#zoomMin" x="42" y="9" onmousedown="handleZoom(evt,'out')"/>
  <use id="reset" xlink:href="#resetDef" x="30" y="36" onmousedown="handleReset()"/>
   <use id="arrowup" xlink:href="#arrowUp" x="0" y="0" onmousedown="handlePan(0,-1)"/>
  <use id="arrowright" xlink:href="#arrowRight" x="0" y="0" onmousedown="handlePan(1,0)"/>
  <use id="arrowdown" xlink:href="#arrowDown" x="0" y="0" onmousedown="handlePan(0,1)"/>
  <use id="arrowleft" xlink:href="#arrowLeft" x="0" y="0" onmousedown="handlePan(-1,0)"/>
</g>
<svg viewBox="0 0 15 15" width="100%" height="30px" preserveAspectRatio="xMaxYMin meet">
 <g id="arrow_out" transform="scale(0.3 0.3)">
  <a xlink:href="classml_1_1maths_1_1common_1_1_c_model_aa8472dde5e74067b20c594ac2b2fe671_icgraph_org.svg" target="_base">
   <rect id="button" ry="5" rx="5" y="6" x="6" height="38" width="38"
        fill="#f2f5e9" fill-opacity="0.5" stroke="#606060" stroke-width="1.0"/>
   <path id="arrow"
     d="M 11.500037,31.436501 C 11.940474,20.09759 22.043105,11.32322 32.158766,21.979434 L 37.068811,17.246167 C 37.068811,17.246167 37.088388,32 37.088388,32 L 22.160133,31.978069 C 22.160133,31.978069 26.997745,27.140456 26.997745,27.140456 C 18.528582,18.264221 13.291696,25.230495 11.500037,31.436501 z"
     style="fill:#404040;"/>
  </a>
 </g>
</svg>

<style type='text/css'>
<![CDATA[
[data-mouse-over-selected='false'] { opacity: 0.7; }
[data-mouse-over-selected='true']  { opacity: 1.0; }
]]>
</style>
<script type="application/ecmascript"><![CDATA[
document.addEventListener('DOMContentLoaded', (event) => {
  highlightEdges();
  highlightAdjacentNodes();
});
]]></script>
</svg>
