<?xml version="1.0" encoding="UTF-8" standalone="no"?>
<!DOCTYPE svg PUBLIC "-//W3C//DTD SVG 1.1//EN"
 "http://www.w3.org/Graphics/SVG/1.1/DTD/svg11.dtd">
<!-- Generated by graphviz version 10.0.1 (20240210.2158)
 -->
<!-- Title: ml::api::CEncoding::addToJsonStream Pages: 1 -->
<svg width="295pt" height="137pt"
 viewBox="0.00 0.00 295.00 136.50" xmlns="http://www.w3.org/2000/svg" xmlns:xlink="http://www.w3.org/1999/xlink">
<g id="graph0" class="graph" transform="scale(1 1) rotate(0) translate(4 132.5)">
<title>ml::api::CEncoding::addToJsonStream</title>
<!-- Node1 -->
<g id="Node000001" class="node">
<title>Node1</title>
<g id="a_Node000001"><a xlink:title=" ">
<polygon fill="#999999" stroke="#666666" points="287,-79.5 186.25,-79.5 186.25,-49 287,-49 287,-79.5"/>
<text text-anchor="start" x="194.25" y="-66" font-family="Helvetica,sans-Serif" font-size="10.00">ml::api::CEncoding</text>
<text text-anchor="middle" x="236.62" y="-54.75" font-family="Helvetica,sans-Serif" font-size="10.00">::addToJsonStream</text>
</a>
</g>
</g>
<!-- Node2 -->
<g id="Node000002" class="node">
<title>Node2</title>
<g id="a_Node000002"><a xlink:href="../../d7/d76/classml_1_1api_1_1_c_frequency_encoding.html#aede601db817a638c8442e5db2458d92c" target="_top" xlink:title=" ">
<polygon fill="white" stroke="#666666" points="147.62,-128.5 2.62,-128.5 2.62,-98 147.62,-98 147.62,-128.5"/>
<text text-anchor="start" x="10.62" y="-115" font-family="Helvetica,sans-Serif" font-size="10.00">ml::api::CFrequencyEncoding</text>
<text text-anchor="middle" x="75.12" y="-103.75" font-family="Helvetica,sans-Serif" font-size="10.00">::addToJsonStream</text>
</a>
</g>
</g>
<!-- Node1&#45;&gt;Node2 -->
<g id="edge1_Node000001_Node000002" class="edge">
<title>Node1&#45;&gt;Node2</title>
<g id="a_edge1_Node000001_Node000002"><a xlink:title=" ">
<path fill="none" stroke="#63b8ff" d="M175.3,-82.78C159.5,-87.64 142.61,-92.82 127.34,-97.52"/>
<polygon fill="#63b8ff" stroke="#63b8ff" points="176.05,-86.21 184.59,-79.93 174,-79.52 176.05,-86.21"/>
</a>
</g>
</g>
<!-- Node3 -->
<g id="Node000003" class="node">
<title>Node3</title>
<g id="a_Node000003"><a xlink:href="../../d9/d6f/classml_1_1api_1_1_c_one_hot_encoding.html#a3263b6bbc61349ff68477cf274ed4cff" target="_top" xlink:title=" ">
<polygon fill="white" stroke="#666666" points="141.62,-79.5 8.62,-79.5 8.62,-49 141.62,-49 141.62,-79.5"/>
<text text-anchor="start" x="16.62" y="-66" font-family="Helvetica,sans-Serif" font-size="10.00">ml::api::COneHotEncoding</text>
<text text-anchor="middle" x="75.12" y="-54.75" font-family="Helvetica,sans-Serif" font-size="10.00">::addToJsonStream</text>
</a>
</g>
</g>
<!-- Node1&#45;&gt;Node3 -->
<g id="edge2_Node000001_Node000003" class="edge">
<title>Node1&#45;&gt;Node3</title>
<g id="a_edge2_Node000001_Node000003"><a xlink:title=" ">
<path fill="none" stroke="#63b8ff" d="M174.69,-64.25C164.03,-64.25 152.9,-64.25 142.11,-64.25"/>
<polygon fill="#63b8ff" stroke="#63b8ff" points="174.52,-67.75 184.52,-64.25 174.52,-60.75 174.52,-67.75"/>
</a>
</g>
</g>
<!-- Node4 -->
<g id="Node000004" class="node">
<title>Node4</title>
<g id="a_Node000004"><a xlink:href="../../d9/d32/classml_1_1api_1_1_c_target_mean_encoding.html#a1749ff07bf0dd1607b9a8aea9ab65b74" target="_top" xlink:title=" ">
<polygon fill="white" stroke="#666666" points="150.25,-30.5 0,-30.5 0,0 150.25,0 150.25,-30.5"/>
<text text-anchor="start" x="8" y="-17" font-family="Helvetica,sans-Serif" font-size="10.00">ml::api::CTargetMeanEncoding</text>
<text text-anchor="middle" x="75.12" y="-5.75" font-family="Helvetica,sans-Serif" font-size="10.00">::addToJsonStream</text>
</a>
</g>
</g>
<!-- Node1&#45;&gt;Node4 -->
<g id="edge3_Node000001_Node000004" class="edge">
<title>Node1&#45;&gt;Node4</title>
<g id="a_edge3_Node000001_Node000004"><a xlink:title=" ">
<path fill="none" stroke="#63b8ff" d="M175.3,-45.72C159.5,-40.86 142.61,-35.68 127.34,-30.98"/>
<polygon fill="#63b8ff" stroke="#63b8ff" points="174,-48.98 184.59,-48.57 176.05,-42.29 174,-48.98"/>
</a>
</g>
</g>
</g>
</svg>
