<?xml version="1.0" encoding="UTF-8" standalone="no"?>
<!DOCTYPE svg PUBLIC "-//W3C//DTD SVG 1.1//EN"
 "http://www.w3.org/Graphics/SVG/1.1/DTD/svg11.dtd">
<!-- Generated by graphviz version 10.0.1 (20240210.2158)
 -->
<!-- Title: ml::core::CStateMachine::find Pages: 1 -->
<svg width="477pt" height="125pt"
 viewBox="0.00 0.00 476.75 124.50" xmlns="http://www.w3.org/2000/svg" xmlns:xlink="http://www.w3.org/1999/xlink">
<g id="graph0" class="graph" transform="scale(1 1) rotate(0) translate(4 120.5)">
<title>ml::core::CStateMachine::find</title>
<!-- Node1 -->
<g id="Node000001" class="node">
<title>Node1</title>
<g id="a_Node000001"><a xlink:title="Try to find machine in the range [begin, end).">
<polygon fill="#999999" stroke="#666666" points="468.75,-85.12 344,-85.12 344,-54.62 468.75,-54.62 468.75,-85.12"/>
<text text-anchor="start" x="352" y="-71.62" font-family="Helvetica,sans-Serif" font-size="10.00">ml::core::CStateMachine</text>
<text text-anchor="middle" x="406.38" y="-60.38" font-family="Helvetica,sans-Serif" font-size="10.00">::find</text>
</a>
</g>
</g>
<!-- Node2 -->
<g id="Node000002" class="node">
<title>Node2</title>
<g id="a_Node000002"><a xlink:href="../../d1/df6/classml_1_1core_1_1_c_state_machine.html#adfe89e292e16d0b2fb00e6dcb178999d" target="_top" xlink:title=" ">
<polygon fill="white" stroke="#666666" points="308,-85.12 183.25,-85.12 183.25,-54.62 308,-54.62 308,-85.12"/>
<text text-anchor="start" x="191.25" y="-71.62" font-family="Helvetica,sans-Serif" font-size="10.00">ml::core::CStateMachine</text>
<text text-anchor="middle" x="245.62" y="-60.38" font-family="Helvetica,sans-Serif" font-size="10.00">::create</text>
</a>
</g>
</g>
<!-- Node1&#45;&gt;Node2 -->
<g id="edge1_Node000001_Node000002" class="edge">
<title>Node1&#45;&gt;Node2</title>
<g id="a_edge1_Node000001_Node000002"><a xlink:title=" ">
<path fill="none" stroke="#63b8ff" d="M332.29,-69.88C324.27,-69.88 316.15,-69.88 308.29,-69.88"/>
<polygon fill="#63b8ff" stroke="#63b8ff" points="332.03,-73.38 342.03,-69.88 332.03,-66.38 332.03,-73.38"/>
</a>
</g>
</g>
<!-- Node3 -->
<g id="Node000003" class="node">
<title>Node3</title>
<g id="a_Node000003"><a xlink:href="../../d4/d99/_c_state_machine_test_8cc.html#a6131ef48578579de807e302fa76d331f" target="_top" xlink:title=" ">
<polygon fill="white" stroke="#666666" points="147.25,-116.5 0,-116.5 0,-97.25 147.25,-97.25 147.25,-116.5"/>
<text text-anchor="middle" x="73.62" y="-103" font-family="Helvetica,sans-Serif" font-size="10.00">BOOST_AUTO_TEST_CASE</text>
</a>
</g>
</g>
<!-- Node2&#45;&gt;Node3 -->
<g id="edge2_Node000002_Node000003" class="edge">
<title>Node2&#45;&gt;Node3</title>
<g id="a_edge2_Node000002_Node000003"><a xlink:title=" ">
<path fill="none" stroke="#63b8ff" d="M171.61,-85.77C154.44,-89.5 136.6,-93.39 120.97,-96.79"/>
<polygon fill="#63b8ff" stroke="#63b8ff" points="172.26,-89.21 181.29,-83.66 170.78,-82.37 172.26,-89.21"/>
</a>
</g>
</g>
<!-- Node4 -->
<g id="Node000004" class="node">
<title>Node4</title>
<g id="a_Node000004"><a xlink:href="../../d4/d99/_c_state_machine_test_8cc.html#a1d68c9c9ad2692e9d6ddacc5a88211ac" target="_top" xlink:title=" ">
<polygon fill="white" stroke="#666666" points="147.25,-79.5 0,-79.5 0,-60.25 147.25,-60.25 147.25,-79.5"/>
<text text-anchor="middle" x="73.62" y="-66" font-family="Helvetica,sans-Serif" font-size="10.00">BOOST_AUTO_TEST_CASE</text>
</a>
</g>
</g>
<!-- Node2&#45;&gt;Node4 -->
<g id="edge3_Node000002_Node000004" class="edge">
<title>Node2&#45;&gt;Node4</title>
<g id="a_edge3_Node000002_Node000004"><a xlink:title=" ">
<path fill="none" stroke="#63b8ff" d="M171.39,-69.88C163.54,-69.88 155.55,-69.88 147.7,-69.88"/>
<polygon fill="#63b8ff" stroke="#63b8ff" points="171.26,-73.38 181.26,-69.88 171.26,-66.38 171.26,-73.38"/>
</a>
</g>
</g>
<!-- Node5 -->
<g id="Node000005" class="node">
<title>Node5</title>
<g id="a_Node000005"><a xlink:href="../../d2/d37/classanonymous__namespace_02_c_state_machine_test_8cc_03_1_1_c_test_thread.html#a1698b48b5dd6802edc079db5fe82becf" target="_top" xlink:title=" ">
<polygon fill="white" stroke="#666666" points="134.5,-41.75 12.75,-41.75 12.75,0 134.5,0 134.5,-41.75"/>
<text text-anchor="start" x="20.75" y="-28.25" font-family="Helvetica,sans-Serif" font-size="10.00">anonymous_namespace</text>
<text text-anchor="start" x="20.75" y="-17" font-family="Helvetica,sans-Serif" font-size="10.00">{CStateMachineTest::</text>
<text text-anchor="middle" x="73.62" y="-5.75" font-family="Helvetica,sans-Serif" font-size="10.00">cc}::CTestThread::run</text>
</a>
</g>
</g>
<!-- Node2&#45;&gt;Node5 -->
<g id="edge4_Node000002_Node000005" class="edge">
<title>Node2&#45;&gt;Node5</title>
<g id="a_edge4_Node000002_Node000005"><a xlink:title=" ">
<path fill="none" stroke="#63b8ff" d="M179.37,-51.07C164.73,-46.85 149.27,-42.39 134.85,-38.23"/>
<polygon fill="#63b8ff" stroke="#63b8ff" points="178.34,-54.41 188.91,-53.82 180.27,-47.68 178.34,-54.41"/>
</a>
</g>
</g>
</g>
</svg>
