<?xml version="1.0" encoding="UTF-8" standalone="no"?>
<!DOCTYPE svg PUBLIC "-//W3C//DTD SVG 1.1//EN"
 "http://www.w3.org/Graphics/SVG/1.1/DTD/svg11.dtd">
<!-- Generated by graphviz version 10.0.1 (20240210.2158)
 -->
<!-- Title: ml::maths::common::CBasicStatistics::median Pages: 1 -->
<!--zoomable 569 -->

<svg id="main" version="1.1" xmlns="http://www.w3.org/2000/svg" xmlns:xlink="http://www.w3.org/1999/xlink" xml:space="preserve" onload="init(evt)">
<style type="text/css"><![CDATA[
.node, .edge {opacity: 0.7;}
.node.selected, .edge.selected {opacity: 1;}
.edge:hover path { stroke: red; }
.edge:hover polygon { stroke: red; fill: red; }
]]></style>

<defs>
  <circle id="rim" cx="0" cy="0" r="7"/>
  <circle id="rim2" cx="0" cy="0" r="3.5"/>
  <g id="zoomPlus">
    <use xlink:href="#rim" fill="#404040"><set attributeName="fill" to="#808080" begin="zoomplus.mouseover" end="zoomplus.mouseout"/></use>
    <path d="M-4,0h8M0,-4v8" fill="none" stroke="white" stroke-width="1.5" pointer-events="none"/>
  </g>
  <g id="zoomMin">
    <use xlink:href="#rim" fill="#404040"><set attributeName="fill" to="#808080" begin="zoomminus.mouseover" end="zoomminus.mouseout"/></use>
    <path d="M-4,0h8" fill="none" stroke="white" stroke-width="1.5" pointer-events="none"/>
  </g>
  <g id="arrowUp" transform="translate(30 24)">
    <use xlink:href="#rim"/>
    <path pointer-events="none" fill="none" stroke="white" stroke-width="1.5" d="M0,-3.0v7 M-2.5,-0.5L0,-3.0L2.5,-0.5"/>
  </g>
  <g id="arrowRight" transform="rotate(90) translate(36 -43)">
    <use xlink:href="#rim"/>
    <path pointer-events="none" fill="none" stroke="white" stroke-width="1.5" d="M0,-3.0v7 M-2.5,-0.5L0,-3.0L2.5,-0.5"/>
  </g>
  <g id="arrowDown" transform="rotate(180) translate(-30 -48)">
    <use xlink:href="#rim"/>
    <path pointer-events="none" fill="none" stroke="white" stroke-width="1.5" d="M0,-3.0v7 M-2.5,-0.5L0,-3.0L2.5,-0.5"/>
  </g>
  <g id="arrowLeft" transform="rotate(270) translate(-36 17)">
    <use xlink:href="#rim"/>
    <path pointer-events="none" fill="none" stroke="white" stroke-width="1.5" d="M0,-3.0v7 M-2.5,-0.5L0,-3.0L2.5,-0.5"/>
  </g>
  <g id="resetDef">
    <use xlink:href="#rim2" fill="#404040"><set attributeName="fill" to="#808080" begin="reset.mouseover" end="reset.mouseout"/></use>
  </g>
</defs>
<script type="application/ecmascript">
var viewWidth = 936;
var viewHeight = 569;
var sectionId = 'dynsection-12';
</script>
<script type="application/ecmascript" xlink:href="../../svg.min.js"/>
<svg id="graph" class="graph">
<g id="viewport">
<title>ml::maths::common::CBasicStatistics::median</title>
<!-- Node1 -->
<g id="Node000001" class="node">
<title>Node1</title>
<g id="a_Node000001"><a xlink:title="Compute the sample median.">
<polygon fill="#999999" stroke="#666666" points="928.25,-307.12 801.25,-307.12 801.25,-276.62 928.25,-276.62 928.25,-307.12"/>
<text text-anchor="start" x="809.25" y="-293.62" font-family="Helvetica,sans-Serif" font-size="10.00">ml::maths::common::</text>
<text text-anchor="middle" x="864.75" y="-282.38" font-family="Helvetica,sans-Serif" font-size="10.00">CBasicStatistics::median</text>
</a>
</g>
</g>
<!-- Node2 -->
<g id="Node000002" class="node">
<title>Node2</title>
<g id="a_Node000002"><a xlink:href="../../d3/d09/classml_1_1maths_1_1time__series_1_1_c_time_series_correlations.html#a7bec4885f4946d241434d4576793c3df" target="_top" xlink:title="Add a sample for the time series identified by id.">
<polygon fill="white" stroke="#666666" points="746.88,-479.75 615.38,-479.75 615.38,-438 746.88,-438 746.88,-479.75"/>
<text text-anchor="start" x="623.38" y="-466.25" font-family="Helvetica,sans-Serif" font-size="10.00">ml::maths::time_series</text>
<text text-anchor="start" x="623.38" y="-455" font-family="Helvetica,sans-Serif" font-size="10.00">::CTimeSeriesCorrelations</text>
<text text-anchor="middle" x="681.12" y="-443.75" font-family="Helvetica,sans-Serif" font-size="10.00">::addSamples</text>
</a>
</g>
</g>
<!-- Node1&#45;&gt;Node2 -->
<g id="edge1_Node000001_Node000002" class="edge">
<title>Node1&#45;&gt;Node2</title>
<g id="a_edge1_Node000001_Node000002"><a xlink:title=" ">
<path fill="none" stroke="#63b8ff" d="M850.34,-317.28C833.8,-346.49 803.15,-394.21 765.25,-423.88 758.59,-429.09 751.04,-433.66 743.28,-437.62"/>
<polygon fill="#63b8ff" stroke="#63b8ff" points="853.28,-319.19 855.05,-308.75 847.15,-315.81 853.28,-319.19"/>
</a>
</g>
</g>
<!-- Node14 -->
<g id="Node000014" class="node">
<title>Node14</title>
<g id="a_Node000014"><a xlink:href="../../d8/dfa/_c_basic_statistics_test_8cc.html#a165a8a0a48420480575cf5167e473b5e" target="_top" xlink:title=" ">
<polygon fill="white" stroke="#666666" points="539.62,-360.5 392.38,-360.5 392.38,-341.25 539.62,-341.25 539.62,-360.5"/>
<text text-anchor="middle" x="466" y="-347" font-family="Helvetica,sans-Serif" font-size="10.00">BOOST_AUTO_TEST_CASE</text>
</a>
</g>
</g>
<!-- Node1&#45;&gt;Node14 -->
<g id="edge13_Node000001_Node000014" class="edge">
<title>Node1&#45;&gt;Node14</title>
<g id="a_edge13_Node000001_Node000014"><a xlink:title=" ">
<path fill="none" stroke="#63b8ff" d="M847.96,-316.54C830.9,-340.67 801.26,-375.91 765.25,-390.88 667.8,-431.38 538.44,-383.06 488.21,-360.87"/>
<polygon fill="#63b8ff" stroke="#63b8ff" points="850.68,-318.76 853.43,-308.53 844.9,-314.82 850.68,-318.76"/>
</a>
</g>
</g>
<!-- Node15 -->
<g id="Node000015" class="node">
<title>Node15</title>
<g id="a_Node000015"><a xlink:href="../../d8/dfa/_c_basic_statistics_test_8cc.html#aae535603ef0b7ebd14503d18ca8e7804" target="_top" xlink:title=" ">
<polygon fill="white" stroke="#666666" points="754.75,-381.5 607.5,-381.5 607.5,-362.25 754.75,-362.25 754.75,-381.5"/>
<text text-anchor="middle" x="681.12" y="-368" font-family="Helvetica,sans-Serif" font-size="10.00">BOOST_AUTO_TEST_CASE</text>
</a>
</g>
</g>
<!-- Node1&#45;&gt;Node15 -->
<g id="edge14_Node000001_Node000015" class="edge">
<title>Node1&#45;&gt;Node15</title>
<g id="a_edge14_Node000001_Node000015"><a xlink:title=" ">
<path fill="none" stroke="#63b8ff" d="M834.55,-314.07C815.69,-327.42 790.1,-343.73 765.25,-353.88 757.59,-357 749.31,-359.62 741.04,-361.8"/>
<polygon fill="#63b8ff" stroke="#63b8ff" points="836.48,-316.99 842.54,-308.3 832.38,-311.32 836.48,-316.99"/>
</a>
</g>
</g>
<!-- Node16 -->
<g id="Node000016" class="node">
<title>Node16</title>
<g id="a_Node000016"><a xlink:href="../../de/d99/_c_event_rate_model_test_8cc.html#a2943cd3fccc9b882bee3b4de87bfbf59" target="_top" xlink:title=" ">
<polygon fill="white" stroke="#666666" points="762.62,-344.5 599.62,-344.5 599.62,-325.25 762.62,-325.25 762.62,-344.5"/>
<text text-anchor="middle" x="681.12" y="-331" font-family="Helvetica,sans-Serif" font-size="10.00">BOOST_FIXTURE_TEST_CASE</text>
</a>
</g>
</g>
<!-- Node1&#45;&gt;Node16 -->
<g id="edge15_Node000001_Node000016" class="edge">
<title>Node1&#45;&gt;Node16</title>
<g id="a_edge15_Node000001_Node000016"><a xlink:title=" ">
<path fill="none" stroke="#63b8ff" d="M790.05,-309.95C781.69,-311.97 773.29,-313.98 765.25,-315.88 752.72,-318.83 739.1,-321.98 726.59,-324.84"/>
<polygon fill="#63b8ff" stroke="#63b8ff" points="790.62,-313.42 799.52,-307.66 788.98,-306.61 790.62,-313.42"/>
</a>
</g>
</g>
<!-- Node17 -->
<g id="Node000017" class="node">
<title>Node17</title>
<g id="a_Node000017"><a xlink:href="../../dd/d66/classml_1_1maths_1_1analytics_1_1_c_boosted_tree_impl.html#a4217e0d42eff535e5747ddef6c068a18" target="_top" xlink:title="Train the forest and compute loss moments on each fold.">
<polygon fill="white" stroke="#666666" points="765.25,-258.75 597,-258.75 597,-217 765.25,-217 765.25,-258.75"/>
<text text-anchor="start" x="605" y="-245.25" font-family="Helvetica,sans-Serif" font-size="10.00">ml::maths::analytics</text>
<text text-anchor="start" x="605" y="-234" font-family="Helvetica,sans-Serif" font-size="10.00">::CBoostedTreeImpl::crossValidate</text>
<text text-anchor="middle" x="681.12" y="-222.75" font-family="Helvetica,sans-Serif" font-size="10.00">Forest</text>
</a>
</g>
</g>
<!-- Node1&#45;&gt;Node17 -->
<g id="edge16_Node000001_Node000017" class="edge">
<title>Node1&#45;&gt;Node17</title>
<g id="a_edge16_Node000001_Node000017"><a xlink:title=" ">
<path fill="none" stroke="#63b8ff" d="M800.47,-273.06C785.4,-268.58 769.21,-263.77 753.8,-259.18"/>
<polygon fill="#63b8ff" stroke="#63b8ff" points="799.18,-276.33 809.77,-275.82 801.18,-269.62 799.18,-276.33"/>
</a>
</g>
</g>
<!-- Node19 -->
<g id="Node000019" class="node">
<title>Node19</title>
<g id="a_Node000019"><a xlink:href="../../d4/d55/classml_1_1maths_1_1common_1_1_c_basic_statistics.html#a8b31c77e5c2a5b8e22222102ce07662a" target="_top" xlink:title="Compute the median absolute deviation.">
<polygon fill="white" stroke="#666666" points="738.25,-307.12 624,-307.12 624,-276.62 738.25,-276.62 738.25,-307.12"/>
<text text-anchor="start" x="632" y="-293.62" font-family="Helvetica,sans-Serif" font-size="10.00">ml::maths::common::</text>
<text text-anchor="middle" x="681.12" y="-282.38" font-family="Helvetica,sans-Serif" font-size="10.00">CBasicStatistics::mad</text>
</a>
</g>
</g>
<!-- Node1&#45;&gt;Node19 -->
<g id="edge18_Node000001_Node000019" class="edge">
<title>Node1&#45;&gt;Node19</title>
<g id="a_edge18_Node000001_Node000019"><a xlink:title=" ">
<path fill="none" stroke="#63b8ff" d="M789.87,-291.88C772.73,-291.88 754.75,-291.88 738.5,-291.88"/>
<polygon fill="#63b8ff" stroke="#63b8ff" points="789.48,-295.38 799.48,-291.88 789.48,-288.38 789.48,-295.38"/>
</a>
</g>
</g>
<!-- Node20 -->
<g id="Node000020" class="node">
<title>Node20</title>
<g id="a_Node000020"><a xlink:href="../../d2/d96/classml_1_1model_1_1_c_model_tools_1_1_c_category_probability_cache.html#a4865872bc1b8c2cc331ad030bd68db15" target="_top" xlink:title="Calculate or return existing median concentration value.">
<polygon fill="white" stroke="#666666" points="752.88,-198.75 609.38,-198.75 609.38,-157 752.88,-157 752.88,-198.75"/>
<text text-anchor="start" x="617.38" y="-185.25" font-family="Helvetica,sans-Serif" font-size="10.00">ml::model::CModelTools</text>
<text text-anchor="start" x="617.38" y="-174" font-family="Helvetica,sans-Serif" font-size="10.00">::CCategoryProbabilityCache</text>
<text text-anchor="middle" x="681.12" y="-162.75" font-family="Helvetica,sans-Serif" font-size="10.00">::medianConcentration</text>
</a>
</g>
</g>
<!-- Node1&#45;&gt;Node20 -->
<g id="edge20_Node000001_Node000020" class="edge">
<title>Node1&#45;&gt;Node20</title>
<g id="a_edge20_Node000001_Node000020"><a xlink:title=" ">
<path fill="none" stroke="#63b8ff" d="M841.08,-268.34C822.22,-249.85 793.9,-224.52 765.25,-207.88 759.81,-204.72 753.98,-201.8 748.03,-199.13"/>
<polygon fill="#63b8ff" stroke="#63b8ff" points="838.44,-270.64 847.98,-275.23 843.38,-265.69 838.44,-270.64"/>
</a>
</g>
</g>
<!-- Node22 -->
<g id="Node000022" class="node">
<title>Node22</title>
<g id="a_Node000022"><a xlink:href="../../d0/dce/classml_1_1maths_1_1common_1_1_c_one_of_n_prior.html#adbc1ad64f904bf4aed63803108979a95" target="_top" xlink:title="Get the median of the model means.">
<polygon fill="white" stroke="#666666" points="764.88,-139.12 597.38,-139.12 597.38,-108.62 764.88,-108.62 764.88,-139.12"/>
<text text-anchor="start" x="605.38" y="-125.62" font-family="Helvetica,sans-Serif" font-size="10.00">ml::maths::common::</text>
<text text-anchor="middle" x="681.12" y="-114.38" font-family="Helvetica,sans-Serif" font-size="10.00">COneOfNPrior::medianModelMean</text>
</a>
</g>
</g>
<!-- Node1&#45;&gt;Node22 -->
<g id="edge22_Node000001_Node000022" class="edge">
<title>Node1&#45;&gt;Node22</title>
<g id="a_edge22_Node000001_Node000022"><a xlink:title=" ">
<path fill="none" stroke="#63b8ff" d="M852.7,-265.76C837.65,-233.32 807.63,-178.51 765.25,-147.88 760.87,-144.71 756.07,-141.96 751.07,-139.57"/>
<polygon fill="#63b8ff" stroke="#63b8ff" points="849.49,-267.16 856.78,-274.85 855.88,-264.29 849.49,-267.16"/>
</a>
</g>
</g>
<!-- Node28 -->
<g id="Node000028" class="node">
<title>Node28</title>
<g id="a_Node000028"><a xlink:href="../../d1/d32/classml_1_1maths_1_1time__series_1_1_c_trend_component.html#a2b1bfdc056f083de034de103adf5fe7d" target="_top" xlink:title="Age the trend to account for interval elapsed time.">
<polygon fill="white" stroke="#666666" points="757.75,-68.75 604.5,-68.75 604.5,-27 757.75,-27 757.75,-68.75"/>
<text text-anchor="start" x="612.5" y="-55.25" font-family="Helvetica,sans-Serif" font-size="10.00">ml::maths::time_series</text>
<text text-anchor="start" x="612.5" y="-44" font-family="Helvetica,sans-Serif" font-size="10.00">::CTrendComponent::propagate</text>
<text text-anchor="middle" x="681.12" y="-32.75" font-family="Helvetica,sans-Serif" font-size="10.00">ForwardsByTime</text>
</a>
</g>
</g>
<!-- Node1&#45;&gt;Node28 -->
<g id="edge28_Node000001_Node000028" class="edge">
<title>Node1&#45;&gt;Node28</title>
<g id="a_edge28_Node000001_Node000028"><a xlink:title=" ">
<path fill="none" stroke="#63b8ff" d="M855.3,-265.37C841.58,-225.65 811.28,-149.99 765.25,-99.88 754.08,-87.71 739.44,-77.3 725.57,-69.06"/>
<polygon fill="#63b8ff" stroke="#63b8ff" points="851.97,-266.45 858.47,-274.82 858.6,-264.23 851.97,-266.45"/>
</a>
</g>
</g>
<!-- Node3 -->
<g id="Node000003" class="node">
<title>Node3</title>
<g id="a_Node000003"><a xlink:href="../../df/dbc/classml_1_1maths_1_1time__series_1_1_c_univariate_time_series_model.html#abbc951e2c02da8dc7291c1e137066120" target="_top" xlink:title="Update the model with new samples.">
<polygon fill="white" stroke="#666666" points="540.75,-479.75 391.25,-479.75 391.25,-438 540.75,-438 540.75,-479.75"/>
<text text-anchor="start" x="399.25" y="-466.25" font-family="Helvetica,sans-Serif" font-size="10.00">ml::maths::time_series</text>
<text text-anchor="start" x="399.25" y="-455" font-family="Helvetica,sans-Serif" font-size="10.00">::CUnivariateTimeSeriesModel</text>
<text text-anchor="middle" x="466" y="-443.75" font-family="Helvetica,sans-Serif" font-size="10.00">::addSamples</text>
</a>
</g>
</g>
<!-- Node2&#45;&gt;Node3 -->
<g id="edge2_Node000002_Node000003" class="edge">
<title>Node2&#45;&gt;Node3</title>
<g id="a_edge2_Node000002_Node000003"><a xlink:title=" ">
<path fill="none" stroke="#63b8ff" d="M603.57,-458.88C583.2,-458.88 561.25,-458.88 541.02,-458.88"/>
<polygon fill="#63b8ff" stroke="#63b8ff" points="603.51,-462.38 613.51,-458.88 603.51,-455.38 603.51,-462.38"/>
</a>
</g>
</g>
<!-- Node4 -->
<g id="Node000004" class="node">
<title>Node4</title>
<g id="a_Node000004"><a xlink:href="../../d9/d15/_c_time_series_model_test_8cc.html#abc483ac7520debe8bbc5a076238e7a3b" target="_top" xlink:title=" ">
<polygon fill="white" stroke="#666666" points="333.88,-560.5 186.62,-560.5 186.62,-541.25 333.88,-541.25 333.88,-560.5"/>
<text text-anchor="middle" x="260.25" y="-547" font-family="Helvetica,sans-Serif" font-size="10.00">BOOST_AUTO_TEST_CASE</text>
</a>
</g>
</g>
<!-- Node3&#45;&gt;Node4 -->
<g id="edge3_Node000003_Node000004" class="edge">
<title>Node3&#45;&gt;Node4</title>
<g id="a_edge3_Node000003_Node000004"><a xlink:title=" ">
<path fill="none" stroke="#63b8ff" d="M423.94,-486.18C399.07,-501.71 366.21,-520.47 335,-532.88 327.28,-535.94 318.9,-538.59 310.64,-540.84"/>
<polygon fill="#63b8ff" stroke="#63b8ff" points="425.54,-489.31 432.12,-481 421.8,-483.4 425.54,-489.31"/>
</a>
</g>
</g>
<!-- Node5 -->
<g id="Node000005" class="node">
<title>Node5</title>
<g id="a_Node000005"><a xlink:href="../../d1/dde/_c_forecast_test_8cc.html#ad42e086bd0f9327a48da0ca36b1f8a92" target="_top" xlink:title=" ">
<polygon fill="white" stroke="#666666" points="333.88,-523.5 186.62,-523.5 186.62,-504.25 333.88,-504.25 333.88,-523.5"/>
<text text-anchor="middle" x="260.25" y="-510" font-family="Helvetica,sans-Serif" font-size="10.00">BOOST_AUTO_TEST_CASE</text>
</a>
</g>
</g>
<!-- Node3&#45;&gt;Node5 -->
<g id="edge4_Node000003_Node000005" class="edge">
<title>Node3&#45;&gt;Node5</title>
<g id="a_edge4_Node000003_Node000005"><a xlink:title=" ">
<path fill="none" stroke="#63b8ff" d="M380.92,-483.31C365.67,-487.6 349.88,-491.94 335,-495.88 324.93,-498.53 314.06,-501.27 303.83,-503.77"/>
<polygon fill="#63b8ff" stroke="#63b8ff" points="381.78,-486.7 390.45,-480.61 379.88,-479.97 381.78,-486.7"/>
</a>
</g>
</g>
<!-- Node6 -->
<g id="Node000006" class="node">
<title>Node6</title>
<g id="a_Node000006"><a xlink:href="../../d1/dde/_c_forecast_test_8cc.html#a70cc70fe7d81a6f242ec06a81071f5bd" target="_top" xlink:title=" ">
<polygon fill="white" stroke="#666666" points="333.88,-486.5 186.62,-486.5 186.62,-467.25 333.88,-467.25 333.88,-486.5"/>
<text text-anchor="middle" x="260.25" y="-473" font-family="Helvetica,sans-Serif" font-size="10.00">BOOST_AUTO_TEST_CASE</text>
</a>
</g>
</g>
<!-- Node3&#45;&gt;Node6 -->
<g id="edge5_Node000003_Node000006" class="edge">
<title>Node3&#45;&gt;Node6</title>
<g id="a_edge5_Node000003_Node000006"><a xlink:title=" ">
<path fill="none" stroke="#63b8ff" d="M379.49,-466.43C364.47,-467.76 348.95,-469.13 334.31,-470.42"/>
<polygon fill="#63b8ff" stroke="#63b8ff" points="379.7,-469.92 389.36,-465.56 379.09,-462.95 379.7,-469.92"/>
</a>
</g>
</g>
<!-- Node7 -->
<g id="Node000007" class="node">
<title>Node7</title>
<g id="a_Node000007"><a xlink:href="../../d1/dde/_c_forecast_test_8cc.html#a0208c9401947e7d3e4e1b46c59f26337" target="_top" xlink:title=" ">
<polygon fill="white" stroke="#666666" points="333.88,-449.5 186.62,-449.5 186.62,-430.25 333.88,-430.25 333.88,-449.5"/>
<text text-anchor="middle" x="260.25" y="-436" font-family="Helvetica,sans-Serif" font-size="10.00">BOOST_AUTO_TEST_CASE</text>
</a>
</g>
</g>
<!-- Node3&#45;&gt;Node7 -->
<g id="edge6_Node000003_Node000007" class="edge">
<title>Node3&#45;&gt;Node7</title>
<g id="a_edge6_Node000003_Node000007"><a xlink:title=" ">
<path fill="none" stroke="#63b8ff" d="M379.49,-450.9C364.47,-449.5 348.95,-448.05 334.31,-446.69"/>
<polygon fill="#63b8ff" stroke="#63b8ff" points="379.08,-454.38 389.36,-451.82 379.73,-447.41 379.08,-454.38"/>
</a>
</g>
</g>
<!-- Node8 -->
<g id="Node000008" class="node">
<title>Node8</title>
<g id="a_Node000008"><a xlink:href="../../d9/d15/_c_time_series_model_test_8cc.html#ad5ee31f31475c4d41301af0340450ba9" target="_top" xlink:title=" ">
<polygon fill="white" stroke="#666666" points="333.88,-412.5 186.62,-412.5 186.62,-393.25 333.88,-393.25 333.88,-412.5"/>
<text text-anchor="middle" x="260.25" y="-399" font-family="Helvetica,sans-Serif" font-size="10.00">BOOST_AUTO_TEST_CASE</text>
</a>
</g>
</g>
<!-- Node3&#45;&gt;Node8 -->
<g id="edge7_Node000003_Node000008" class="edge">
<title>Node3&#45;&gt;Node8</title>
<g id="a_edge7_Node000003_Node000008"><a xlink:title=" ">
<path fill="none" stroke="#63b8ff" d="M383.37,-434.41C367.37,-429.78 350.69,-425.08 335,-420.88 324.94,-418.18 314.07,-415.43 303.84,-412.92"/>
<polygon fill="#63b8ff" stroke="#63b8ff" points="382.29,-437.73 392.87,-437.17 384.24,-431.01 382.29,-437.73"/>
</a>
</g>
</g>
<!-- Node9 -->
<g id="Node000009" class="node">
<title>Node9</title>
<g id="a_Node000009"><a xlink:href="../../db/dde/classanonymous__namespace_02_c_forecast_test_8cc_03_1_1_c_test.html#a6ede2ad9f3a7a40577da81f22f10d7bf" target="_top" xlink:title=" ">
<polygon fill="white" stroke="#666666" points="321.12,-374.75 199.38,-374.75 199.38,-333 321.12,-333 321.12,-374.75"/>
<text text-anchor="start" x="207.38" y="-361.25" font-family="Helvetica,sans-Serif" font-size="10.00">anonymous_namespace</text>
<text text-anchor="start" x="207.38" y="-350" font-family="Helvetica,sans-Serif" font-size="10.00">{CForecastTest::cc}</text>
<text text-anchor="middle" x="260.25" y="-338.75" font-family="Helvetica,sans-Serif" font-size="10.00">::CTest::run</text>
</a>
</g>
</g>
<!-- Node3&#45;&gt;Node9 -->
<g id="edge8_Node000003_Node000009" class="edge">
<title>Node3&#45;&gt;Node9</title>
<g id="a_edge8_Node000003_Node000009"><a xlink:title=" ">
<path fill="none" stroke="#63b8ff" d="M421.11,-431.54C396.29,-416.6 364.42,-398.26 335,-383.88 328.92,-380.9 322.46,-377.96 315.99,-375.16"/>
<polygon fill="#63b8ff" stroke="#63b8ff" points="419.28,-434.53 429.64,-436.72 422.91,-428.54 419.28,-434.53"/>
</a>
</g>
</g>
<!-- Node10 -->
<g id="Node000010" class="node">
<title>Node10</title>
<g id="a_Node000010"><a xlink:href="../../d1/dde/_c_forecast_test_8cc.html#a28992938b93647afb83a53246e509905" target="_top" xlink:title=" ">
<polygon fill="white" stroke="#666666" points="148.38,-418.5 1.12,-418.5 1.12,-399.25 148.38,-399.25 148.38,-418.5"/>
<text text-anchor="middle" x="74.75" y="-405" font-family="Helvetica,sans-Serif" font-size="10.00">BOOST_AUTO_TEST_CASE</text>
</a>
</g>
</g>
<!-- Node9&#45;&gt;Node10 -->
<g id="edge9_Node000009_Node000010" class="edge">
<title>Node9&#45;&gt;Node10</title>
<g id="a_edge9_Node000009_Node000010"><a xlink:title=" ">
<path fill="none" stroke="#63b8ff" d="M188.46,-378.73C175.56,-382.98 162.17,-387.2 149.5,-390.88 139.88,-393.67 129.47,-396.38 119.59,-398.83"/>
<polygon fill="#63b8ff" stroke="#63b8ff" points="189.34,-382.13 197.73,-375.65 187.13,-375.48 189.34,-382.13"/>
</a>
</g>
</g>
<!-- Node11 -->
<g id="Node000011" class="node">
<title>Node11</title>
<g id="a_Node000011"><a xlink:href="../../d1/dde/_c_forecast_test_8cc.html#a19e2174c93ee23be6129488081463518" target="_top" xlink:title=" ">
<polygon fill="white" stroke="#666666" points="148.38,-381.5 1.12,-381.5 1.12,-362.25 148.38,-362.25 148.38,-381.5"/>
<text text-anchor="middle" x="74.75" y="-368" font-family="Helvetica,sans-Serif" font-size="10.00">BOOST_AUTO_TEST_CASE</text>
</a>
</g>
</g>
<!-- Node9&#45;&gt;Node11 -->
<g id="edge10_Node000009_Node000011" class="edge">
<title>Node9&#45;&gt;Node11</title>
<g id="a_edge10_Node000009_Node000011"><a xlink:title=" ">
<path fill="none" stroke="#63b8ff" d="M187.78,-360.89C174.92,-362.15 161.49,-363.46 148.59,-364.73"/>
<polygon fill="#63b8ff" stroke="#63b8ff" points="187.79,-364.4 197.4,-359.94 187.11,-357.43 187.79,-364.4"/>
</a>
</g>
</g>
<!-- Node12 -->
<g id="Node000012" class="node">
<title>Node12</title>
<g id="a_Node000012"><a xlink:href="../../d1/dde/_c_forecast_test_8cc.html#a6f0a097737936cba7ec32a5bce60ca3d" target="_top" xlink:title=" ">
<polygon fill="white" stroke="#666666" points="148.38,-344.5 1.12,-344.5 1.12,-325.25 148.38,-325.25 148.38,-344.5"/>
<text text-anchor="middle" x="74.75" y="-331" font-family="Helvetica,sans-Serif" font-size="10.00">BOOST_AUTO_TEST_CASE</text>
</a>
</g>
</g>
<!-- Node9&#45;&gt;Node12 -->
<g id="edge11_Node000009_Node000012" class="edge">
<title>Node9&#45;&gt;Node12</title>
<g id="a_edge11_Node000009_Node000012"><a xlink:title=" ">
<path fill="none" stroke="#63b8ff" d="M187.78,-346.47C174.92,-345.14 161.49,-343.75 148.59,-342.42"/>
<polygon fill="#63b8ff" stroke="#63b8ff" points="187.1,-349.92 197.41,-347.47 187.82,-342.96 187.1,-349.92"/>
</a>
</g>
</g>
<!-- Node13 -->
<g id="Node000013" class="node">
<title>Node13</title>
<g id="a_Node000013"><a xlink:href="../../d1/dde/_c_forecast_test_8cc.html#a3bf9a5986a59219078bac60c69302d4b" target="_top" xlink:title=" ">
<polygon fill="white" stroke="#666666" points="148.38,-307.5 1.12,-307.5 1.12,-288.25 148.38,-288.25 148.38,-307.5"/>
<text text-anchor="middle" x="74.75" y="-294" font-family="Helvetica,sans-Serif" font-size="10.00">BOOST_AUTO_TEST_CASE</text>
</a>
</g>
</g>
<!-- Node9&#45;&gt;Node13 -->
<g id="edge12_Node000009_Node000013" class="edge">
<title>Node9&#45;&gt;Node13</title>
<g id="a_edge12_Node000009_Node000013"><a xlink:title=" ">
<path fill="none" stroke="#63b8ff" d="M190.28,-328.89C176.83,-324.33 162.78,-319.78 149.5,-315.88 140.02,-313.08 129.76,-310.38 120,-307.96"/>
<polygon fill="#63b8ff" stroke="#63b8ff" points="188.89,-332.11 199.48,-332.05 191.16,-325.49 188.89,-332.11"/>
</a>
</g>
</g>
<!-- Node18 -->
<g id="Node000018" class="node">
<title>Node18</title>
<g id="a_Node000018"><a xlink:href="../../dd/d66/classml_1_1maths_1_1analytics_1_1_c_boosted_tree_impl.html#a7b597d9575b3aa75b0e2e252271504d5" target="_top" xlink:title=" ">
<polygon fill="white" stroke="#666666" points="555.75,-253.12 376.25,-253.12 376.25,-222.62 555.75,-222.62 555.75,-253.12"/>
<text text-anchor="start" x="384.25" y="-239.62" font-family="Helvetica,sans-Serif" font-size="10.00">ml::maths::analytics</text>
<text text-anchor="middle" x="466" y="-228.38" font-family="Helvetica,sans-Serif" font-size="10.00">::CBoostedTreeImpl::trainIncremental</text>
</a>
</g>
</g>
<!-- Node17&#45;&gt;Node18 -->
<g id="edge17_Node000017_Node000018" class="edge">
<title>Node17&#45;&gt;Node18</title>
<g id="a_edge17_Node000017_Node000018"><a xlink:title=" ">
<path fill="none" stroke="#63b8ff" d="M585.19,-237.88C575.48,-237.88 565.64,-237.88 556,-237.88"/>
<polygon fill="#63b8ff" stroke="#63b8ff" points="584.99,-241.38 594.99,-237.88 584.99,-234.38 584.99,-241.38"/>
</a>
</g>
</g>
<!-- Node19&#45;&gt;Node14 -->
<g id="edge19_Node000019_Node000014" class="edge">
<title>Node19&#45;&gt;Node14</title>
<g id="a_edge19_Node000019_Node000014"><a xlink:title=" ">
<path fill="none" stroke="#63b8ff" d="M612.59,-310.57C576.39,-320.59 533.23,-332.54 503.35,-340.81"/>
<polygon fill="#63b8ff" stroke="#63b8ff" points="613.41,-313.98 622.11,-307.93 611.54,-307.23 613.41,-313.98"/>
</a>
</g>
</g>
<!-- Node21 -->
<g id="Node000021" class="node">
<title>Node21</title>
<g id="a_Node000021"><a xlink:href="../../dc/d14/classml_1_1model_1_1_c_event_rate_model.html#a859435dc2079e62468fe75e069353edf" target="_top" xlink:title=" ">
<polygon fill="white" stroke="#666666" points="538.5,-199.12 393.5,-199.12 393.5,-168.62 538.5,-168.62 538.5,-199.12"/>
<text text-anchor="start" x="401.5" y="-185.62" font-family="Helvetica,sans-Serif" font-size="10.00">ml::model::CEventRateModel</text>
<text text-anchor="middle" x="466" y="-174.38" font-family="Helvetica,sans-Serif" font-size="10.00">::computeProbability</text>
</a>
</g>
</g>
<!-- Node20&#45;&gt;Node21 -->
<g id="edge21_Node000020_Node000021" class="edge">
<title>Node20&#45;&gt;Node21</title>
<g id="a_edge21_Node000020_Node000021"><a xlink:title=" ">
<path fill="none" stroke="#63b8ff" d="M597.84,-180.19C578.35,-180.74 557.72,-181.32 538.75,-181.86"/>
<polygon fill="#63b8ff" stroke="#63b8ff" points="597.75,-183.7 607.64,-179.92 597.55,-176.7 597.75,-183.7"/>
</a>
</g>
</g>
<!-- Node23 -->
<g id="Node000023" class="node">
<title>Node23</title>
<g id="a_Node000023"><a xlink:href="../../d0/dce/classml_1_1maths_1_1common_1_1_c_one_of_n_prior.html#ac1a53fed77db6f52547a297c492b3ae5" target="_top" xlink:title="Get the mean of the marginal likelihood function.">
<polygon fill="white" stroke="#666666" points="561,-150.12 371,-150.12 371,-119.62 561,-119.62 561,-150.12"/>
<text text-anchor="start" x="379" y="-136.62" font-family="Helvetica,sans-Serif" font-size="10.00">ml::maths::common::</text>
<text text-anchor="middle" x="466" y="-125.38" font-family="Helvetica,sans-Serif" font-size="10.00">COneOfNPrior::marginalLikelihoodMean</text>
</a>
</g>
</g>
<!-- Node22&#45;&gt;Node23 -->
<g id="edge23_Node000022_Node000023" class="edge">
<title>Node22&#45;&gt;Node23</title>
<g id="a_edge23_Node000022_Node000023"><a xlink:title=" ">
<path fill="none" stroke="#63b8ff" d="M585.78,-128.74C577.71,-129.16 569.54,-129.58 561.46,-130"/>
<polygon fill="#63b8ff" stroke="#63b8ff" points="585.8,-132.25 595.6,-128.24 585.44,-125.26 585.8,-132.25"/>
</a>
</g>
</g>
<!-- Node27 -->
<g id="Node000027" class="node">
<title>Node27</title>
<g id="a_Node000027"><a xlink:href="../../d0/dce/classml_1_1maths_1_1common_1_1_c_one_of_n_prior.html#a3065e9fd9c8b2f7ba3d20e1b72700987" target="_top" xlink:title="Get the weighted mean of the model nearest means.">
<polygon fill="white" stroke="#666666" points="543.38,-101.75 388.62,-101.75 388.62,-60 543.38,-60 543.38,-101.75"/>
<text text-anchor="start" x="396.62" y="-88.25" font-family="Helvetica,sans-Serif" font-size="10.00">ml::maths::common::</text>
<text text-anchor="start" x="396.62" y="-77" font-family="Helvetica,sans-Serif" font-size="10.00">COneOfNPrior::nearestMarginal</text>
<text text-anchor="middle" x="466" y="-65.75" font-family="Helvetica,sans-Serif" font-size="10.00">LikelihoodMean</text>
</a>
</g>
</g>
<!-- Node22&#45;&gt;Node27 -->
<g id="edge27_Node000022_Node000027" class="edge">
<title>Node22&#45;&gt;Node27</title>
<g id="a_edge27_Node000022_Node000027"><a xlink:title=" ">
<path fill="none" stroke="#63b8ff" d="M591.39,-105.97C575.5,-102.77 559.07,-99.45 543.57,-96.32"/>
<polygon fill="#63b8ff" stroke="#63b8ff" points="590.3,-109.32 600.79,-107.87 591.68,-102.46 590.3,-109.32"/>
</a>
</g>
</g>
<!-- Node24 -->
<g id="Node000024" class="node">
<title>Node24</title>
<g id="a_Node000024"><a xlink:href="../../d0/dce/classml_1_1maths_1_1common_1_1_c_one_of_n_prior.html#a226c797db7aa6a87e010b021959952a8" target="_top" xlink:title="Read parameters from traverser.">
<polygon fill="white" stroke="#666666" points="335,-180.75 185.5,-180.75 185.5,-139 335,-139 335,-180.75"/>
<text text-anchor="start" x="193.5" y="-167.25" font-family="Helvetica,sans-Serif" font-size="10.00">ml::maths::common::</text>
<text text-anchor="start" x="193.5" y="-156" font-family="Helvetica,sans-Serif" font-size="10.00">COneOfNPrior::acceptRestore</text>
<text text-anchor="middle" x="260.25" y="-144.75" font-family="Helvetica,sans-Serif" font-size="10.00">Traverser</text>
</a>
</g>
</g>
<!-- Node23&#45;&gt;Node24 -->
<g id="edge24_Node000023_Node000024" class="edge">
<title>Node23&#45;&gt;Node24</title>
<g id="a_edge24_Node000023_Node000024"><a xlink:title=" ">
<path fill="none" stroke="#63b8ff" d="M359.16,-147.86C351.08,-148.85 343.03,-149.84 335.22,-150.8"/>
<polygon fill="#63b8ff" stroke="#63b8ff" points="359.58,-151.34 369.08,-146.64 358.73,-144.39 359.58,-151.34"/>
</a>
</g>
</g>
<!-- Node26 -->
<g id="Node000026" class="node">
<title>Node26</title>
<g id="a_Node000026"><a xlink:href="../../d7/d56/_c_one_of_n_prior_test_8cc.html#a4fd72c6a5083fbc6ca3bad1d56afe606" target="_top" xlink:title=" ">
<polygon fill="white" stroke="#666666" points="333.88,-120.5 186.62,-120.5 186.62,-101.25 333.88,-101.25 333.88,-120.5"/>
<text text-anchor="middle" x="260.25" y="-107" font-family="Helvetica,sans-Serif" font-size="10.00">BOOST_AUTO_TEST_CASE</text>
</a>
</g>
</g>
<!-- Node23&#45;&gt;Node26 -->
<g id="edge26_Node000023_Node000026" class="edge">
<title>Node23&#45;&gt;Node26</title>
<g id="a_edge26_Node000023_Node000026"><a xlink:title=" ">
<path fill="none" stroke="#63b8ff" d="M359.43,-122.44C350.94,-121.44 342.49,-120.44 334.32,-119.48"/>
<polygon fill="#63b8ff" stroke="#63b8ff" points="358.74,-125.88 369.08,-123.58 359.56,-118.93 358.74,-125.88"/>
</a>
</g>
</g>
<!-- Node25 -->
<g id="Node000025" class="node">
<title>Node25</title>
<g id="a_Node000025"><a xlink:href="../../d0/dce/classml_1_1maths_1_1common_1_1_c_one_of_n_prior.html#ab4c9f531f6dafab42a9e723b6b1a2f71" target="_top" xlink:title="Construct from part of a state document.">
<polygon fill="white" stroke="#666666" points="149.5,-175.12 0,-175.12 0,-144.62 149.5,-144.62 149.5,-175.12"/>
<text text-anchor="start" x="8" y="-161.62" font-family="Helvetica,sans-Serif" font-size="10.00">ml::maths::common::</text>
<text text-anchor="middle" x="74.75" y="-150.38" font-family="Helvetica,sans-Serif" font-size="10.00">COneOfNPrior::COneOfNPrior</text>
</a>
</g>
</g>
<!-- Node24&#45;&gt;Node25 -->
<g id="edge25_Node000024_Node000025" class="edge">
<title>Node24&#45;&gt;Node25</title>
<g id="a_edge25_Node000024_Node000025"><a xlink:title=" ">
<path fill="none" stroke="#63b8ff" d="M173.86,-159.88C165.84,-159.88 157.75,-159.88 149.84,-159.88"/>
<polygon fill="#63b8ff" stroke="#63b8ff" points="173.63,-163.38 183.63,-159.88 173.63,-156.38 173.63,-163.38"/>
</a>
</g>
</g>
<!-- Node29 -->
<g id="Node000029" class="node">
<title>Node29</title>
<g id="a_Node000029"><a xlink:href="../../de/d9a/classml_1_1maths_1_1time__series_1_1_c_time_series_decomposition_detail_1_1_c_components.html#a4e714db14171a8177051d639a423ce90" target="_top" xlink:title="Fit the trend component component to values.">
<polygon fill="white" stroke="#666666" points="550.88,-41.75 381.12,-41.75 381.12,0 550.88,0 550.88,-41.75"/>
<text text-anchor="start" x="389.12" y="-28.25" font-family="Helvetica,sans-Serif" font-size="10.00">ml::maths::time_series</text>
<text text-anchor="start" x="389.12" y="-17" font-family="Helvetica,sans-Serif" font-size="10.00">::CTimeSeriesDecompositionDetail</text>
<text text-anchor="middle" x="466" y="-5.75" font-family="Helvetica,sans-Serif" font-size="10.00">::CComponents::fitTrend</text>
</a>
</g>
</g>
<!-- Node28&#45;&gt;Node29 -->
<g id="edge29_Node000028_Node000029" class="edge">
<title>Node28&#45;&gt;Node29</title>
<g id="a_edge29_Node000028_Node000029"><a xlink:title=" ">
<path fill="none" stroke="#63b8ff" d="M592.72,-36.8C579.05,-35.07 564.94,-33.28 551.34,-31.56"/>
<polygon fill="#63b8ff" stroke="#63b8ff" points="592.22,-40.27 602.58,-38.05 593.1,-33.32 592.22,-40.27"/>
</a>
</g>
</g>
</g>
</svg>

<g id="navigator" transform="translate(0 0)" fill="#404254">
  <rect fill="#f2f5e9" fill-opacity="0.5" stroke="#606060" stroke-width=".5" x="0" y="0" width="60" height="60"/>
  <use id="zoomplus" xlink:href="#zoomPlus" x="17" y="9" onmousedown="handleZoom(evt,'in')"/>
  <use id="zoomminus" xlink:href="#zoomMin" x="42" y="9" onmousedown="handleZoom(evt,'out')"/>
  <use id="reset" xlink:href="#resetDef" x="30" y="36" onmousedown="handleReset()"/>
   <use id="arrowup" xlink:href="#arrowUp" x="0" y="0" onmousedown="handlePan(0,-1)"/>
  <use id="arrowright" xlink:href="#arrowRight" x="0" y="0" onmousedown="handlePan(1,0)"/>
  <use id="arrowdown" xlink:href="#arrowDown" x="0" y="0" onmousedown="handlePan(0,1)"/>
  <use id="arrowleft" xlink:href="#arrowLeft" x="0" y="0" onmousedown="handlePan(-1,0)"/>
</g>
<svg viewBox="0 0 15 15" width="100%" height="30px" preserveAspectRatio="xMaxYMin meet">
 <g id="arrow_out" transform="scale(0.3 0.3)">
  <a xlink:href="classml_1_1maths_1_1common_1_1_c_basic_statistics_af85715f6cd6628a014dbe48cbd74da74_icgraph_org.svg" target="_base">
   <rect id="button" ry="5" rx="5" y="6" x="6" height="38" width="38"
        fill="#f2f5e9" fill-opacity="0.5" stroke="#606060" stroke-width="1.0"/>
   <path id="arrow"
     d="M 11.500037,31.436501 C 11.940474,20.09759 22.043105,11.32322 32.158766,21.979434 L 37.068811,17.246167 C 37.068811,17.246167 37.088388,32 37.088388,32 L 22.160133,31.978069 C 22.160133,31.978069 26.997745,27.140456 26.997745,27.140456 C 18.528582,18.264221 13.291696,25.230495 11.500037,31.436501 z"
     style="fill:#404040;"/>
  </a>
 </g>
</svg>

<style type='text/css'>
<![CDATA[
[data-mouse-over-selected='false'] { opacity: 0.7; }
[data-mouse-over-selected='true']  { opacity: 1.0; }
]]>
</style>
<script type="application/ecmascript"><![CDATA[
document.addEventListener('DOMContentLoaded', (event) => {
  highlightEdges();
  highlightAdjacentNodes();
});
]]></script>
</svg>
