<?xml version="1.0" encoding="UTF-8" standalone="no"?>
<!DOCTYPE svg PUBLIC "-//W3C//DTD SVG 1.1//EN"
 "http://www.w3.org/Graphics/SVG/1.1/DTD/svg11.dtd">
<!-- Generated by graphviz version 10.0.1 (20240210.2158)
 -->
<!-- Title: ml::maths::common::CBasicStatistics::covariancesAccumulator Pages: 1 -->
<svg width="665pt" height="196pt"
 viewBox="0.00 0.00 665.25 196.12" xmlns="http://www.w3.org/2000/svg" xmlns:xlink="http://www.w3.org/1999/xlink">
<g id="graph0" class="graph" transform="scale(1 1) rotate(0) translate(4 192.12)">
<title>ml::maths::common::CBasicStatistics::covariancesAccumulator</title>
<!-- Node1 -->
<g id="Node000001" class="node">
<title>Node1</title>
<g id="a_Node000001"><a xlink:title="Make a covariances accumulator.">
<polygon fill="#999999" stroke="#666666" points="148,-109.12 0,-109.12 0,-67.38 148,-67.38 148,-109.12"/>
<text text-anchor="start" x="8" y="-95.62" font-family="Helvetica,sans-Serif" font-size="10.00">ml::maths::common::</text>
<text text-anchor="start" x="8" y="-84.38" font-family="Helvetica,sans-Serif" font-size="10.00">CBasicStatistics::covariances</text>
<text text-anchor="middle" x="74" y="-73.12" font-family="Helvetica,sans-Serif" font-size="10.00">Accumulator</text>
</a>
</g>
</g>
<!-- Node2 -->
<g id="Node000002" class="node">
<title>Node2</title>
<g id="a_Node000002"><a xlink:href="../../d6/dd5/namespaceml_1_1maths_1_1common.html#a37f8b7909e617ad623600aead4cfc868" target="_top" xlink:title="Compute the distribution mean.">
<polygon fill="white" stroke="#666666" points="317,-97.88 184,-97.88 184,-78.62 317,-78.62 317,-97.88"/>
<text text-anchor="middle" x="250.5" y="-84.38" font-family="Helvetica,sans-Serif" font-size="10.00">ml::maths::common::mean</text>
</a>
</g>
</g>
<!-- Node1&#45;&gt;Node2 -->
<g id="edge1_Node000001_Node000002" class="edge">
<title>Node1&#45;&gt;Node2</title>
<g id="a_edge1_Node000001_Node000002"><a xlink:title=" ">
<path fill="none" stroke="#63b8ff" d="M148.5,-88.25C156.32,-88.25 164.29,-88.25 172.16,-88.25"/>
<polygon fill="#63b8ff" stroke="#63b8ff" points="172.06,-91.75 182.06,-88.25 172.06,-84.75 172.06,-91.75"/>
</a>
</g>
</g>
<!-- Node3 -->
<g id="Node000003" class="node">
<title>Node3</title>
<g id="a_Node000003"><a xlink:href="../../d6/dd5/namespaceml_1_1maths_1_1common.html#aa139fb07823365e51bd2f01178d7a61a" target="_top" xlink:title="Compute the mode for distribution.">
<polygon fill="white" stroke="#666666" points="486,-97.88 353,-97.88 353,-78.62 486,-78.62 486,-97.88"/>
<text text-anchor="middle" x="419.5" y="-84.38" font-family="Helvetica,sans-Serif" font-size="10.00">ml::maths::common::mode</text>
</a>
</g>
</g>
<!-- Node2&#45;&gt;Node3 -->
<g id="edge2_Node000002_Node000003" class="edge">
<title>Node2&#45;&gt;Node3</title>
<g id="a_edge2_Node000002_Node000003"><a xlink:title=" ">
<path fill="none" stroke="#63b8ff" d="M317.02,-88.25C324.97,-88.25 333.15,-88.25 341.25,-88.25"/>
<polygon fill="#63b8ff" stroke="#63b8ff" points="341.1,-91.75 351.1,-88.25 341.1,-84.75 341.1,-91.75"/>
</a>
</g>
</g>
<!-- Node4 -->
<g id="Node000004" class="node">
<title>Node4</title>
<g id="a_Node000004"><a xlink:href="../../d0/d1c/classml_1_1maths_1_1common_1_1_c_log_t_distribution.html#a128ce0a627956e7931be0358fe995d2d" target="_top" xlink:title=" ">
<polygon fill="white" stroke="#666666" points="657.25,-188.12 522,-188.12 522,-146.38 657.25,-146.38 657.25,-188.12"/>
<text text-anchor="start" x="530" y="-174.62" font-family="Helvetica,sans-Serif" font-size="10.00">ml::maths::common::</text>
<text text-anchor="start" x="530" y="-163.38" font-family="Helvetica,sans-Serif" font-size="10.00">CLogTDistribution::degrees</text>
<text text-anchor="middle" x="589.62" y="-152.12" font-family="Helvetica,sans-Serif" font-size="10.00">Freedom</text>
</a>
</g>
</g>
<!-- Node3&#45;&gt;Node4 -->
<g id="edge3_Node000003_Node000004" class="edge">
<title>Node3&#45;&gt;Node4</title>
<g id="a_edge3_Node000003_Node000004"><a xlink:title=" ">
<path fill="none" stroke="#63b8ff" d="M441.03,-98.36C461.48,-108.38 493.8,-124.1 522,-137.25 524.76,-138.54 527.59,-139.85 530.45,-141.16"/>
<polygon fill="#63b8ff" stroke="#63b8ff" points="528.95,-144.33 539.5,-145.31 531.87,-137.96 528.95,-144.33"/>
</a>
</g>
</g>
<!-- Node5 -->
<g id="Node000005" class="node">
<title>Node5</title>
<g id="a_Node000005"><a xlink:href="../../d0/d1c/classml_1_1maths_1_1common_1_1_c_log_t_distribution.html#a4267908e2f6c547fd21f75a77f6bee78" target="_top" xlink:title=" ">
<polygon fill="white" stroke="#666666" points="656.88,-128.5 522.38,-128.5 522.38,-98 656.88,-98 656.88,-128.5"/>
<text text-anchor="start" x="530.38" y="-115" font-family="Helvetica,sans-Serif" font-size="10.00">ml::maths::common::</text>
<text text-anchor="middle" x="589.62" y="-103.75" font-family="Helvetica,sans-Serif" font-size="10.00">CLogTDistribution::location</text>
</a>
</g>
</g>
<!-- Node3&#45;&gt;Node5 -->
<g id="edge4_Node000003_Node000005" class="edge">
<title>Node3&#45;&gt;Node5</title>
<g id="a_edge4_Node000003_Node000005"><a xlink:title=" ">
<path fill="none" stroke="#63b8ff" d="M486.46,-98.06C494.41,-99.24 502.57,-100.45 510.66,-101.66"/>
<polygon fill="#63b8ff" stroke="#63b8ff" points="510.12,-105.11 520.52,-103.12 511.15,-98.19 510.12,-105.11"/>
</a>
</g>
</g>
<!-- Node6 -->
<g id="Node000006" class="node">
<title>Node6</title>
<g id="a_Node000006"><a xlink:href="../../dd/d55/classml_1_1maths_1_1common_1_1_c_tools.html#aa0600053da91719428498ec9968916c3" target="_top" xlink:title="Compute .">
<polygon fill="white" stroke="#666666" points="644.12,-79.5 535.12,-79.5 535.12,-49 644.12,-49 644.12,-79.5"/>
<text text-anchor="start" x="543.12" y="-66" font-family="Helvetica,sans-Serif" font-size="10.00">ml::maths::common::</text>
<text text-anchor="middle" x="589.62" y="-54.75" font-family="Helvetica,sans-Serif" font-size="10.00">CTools::pow2</text>
</a>
</g>
</g>
<!-- Node3&#45;&gt;Node6 -->
<g id="edge5_Node000003_Node000006" class="edge">
<title>Node3&#45;&gt;Node6</title>
<g id="a_edge5_Node000003_Node000006"><a xlink:title=" ">
<path fill="none" stroke="#63b8ff" d="M486.46,-78.83C498.72,-77.08 511.51,-75.26 523.74,-73.51"/>
<polygon fill="#63b8ff" stroke="#63b8ff" points="523.87,-77.03 533.27,-72.15 522.88,-70.1 523.87,-77.03"/>
</a>
</g>
</g>
<!-- Node7 -->
<g id="Node000007" class="node">
<title>Node7</title>
<g id="a_Node000007"><a xlink:href="../../d0/d1c/classml_1_1maths_1_1common_1_1_c_log_t_distribution.html#a8f03f27080a2f59d3da535b4b4f228ef" target="_top" xlink:title=" ">
<polygon fill="white" stroke="#666666" points="651.62,-30.5 527.62,-30.5 527.62,0 651.62,0 651.62,-30.5"/>
<text text-anchor="start" x="535.62" y="-17" font-family="Helvetica,sans-Serif" font-size="10.00">ml::maths::common::</text>
<text text-anchor="middle" x="589.62" y="-5.75" font-family="Helvetica,sans-Serif" font-size="10.00">CLogTDistribution::scale</text>
</a>
</g>
</g>
<!-- Node3&#45;&gt;Node7 -->
<g id="edge6_Node000003_Node000007" class="edge">
<title>Node3&#45;&gt;Node7</title>
<g id="a_edge6_Node000003_Node000007"><a xlink:title=" ">
<path fill="none" stroke="#63b8ff" d="M440.5,-78.19C460.81,-68.12 493.28,-52.41 522,-40.25 526.11,-38.51 530.38,-36.77 534.69,-35.05"/>
<polygon fill="#63b8ff" stroke="#63b8ff" points="535.96,-38.32 544,-31.42 533.41,-31.79 535.96,-38.32"/>
</a>
</g>
</g>
</g>
</svg>
