<?xml version="1.0" encoding="UTF-8" standalone="no"?>
<!DOCTYPE svg PUBLIC "-//W3C//DTD SVG 1.1//EN"
 "http://www.w3.org/Graphics/SVG/1.1/DTD/svg11.dtd">
<!-- Generated by graphviz version 10.0.1 (20240210.2158)
 -->
<!-- Title: ml::maths::common::CBasicStatistics::covariancesAccumulator Pages: 1 -->
<svg width="532pt" height="495pt"
 viewBox="0.00 0.00 531.50 494.50" xmlns="http://www.w3.org/2000/svg" xmlns:xlink="http://www.w3.org/1999/xlink">
<g id="graph0" class="graph" transform="scale(1 1) rotate(0) translate(4 490.5)">
<title>ml::maths::common::CBasicStatistics::covariancesAccumulator</title>
<!-- Node1 -->
<g id="Node000001" class="node">
<title>Node1</title>
<g id="a_Node000001"><a xlink:title="Make a covariances accumulator.">
<polygon fill="#999999" stroke="#666666" points="523.5,-226.75 375.5,-226.75 375.5,-185 523.5,-185 523.5,-226.75"/>
<text text-anchor="start" x="383.5" y="-213.25" font-family="Helvetica,sans-Serif" font-size="10.00">ml::maths::common::</text>
<text text-anchor="start" x="383.5" y="-202" font-family="Helvetica,sans-Serif" font-size="10.00">CBasicStatistics::covariances</text>
<text text-anchor="middle" x="449.5" y="-190.75" font-family="Helvetica,sans-Serif" font-size="10.00">Accumulator</text>
</a>
</g>
</g>
<!-- Node2 -->
<g id="Node000002" class="node">
<title>Node2</title>
<g id="a_Node000002"><a xlink:href="../../dc/d70/classml_1_1maths_1_1common_1_1_c_multivariate_normal_conjugate.html#a8d08d8dbd0f937ddaea0cad67a9c7fc7" target="_top" xlink:title=" ">
<polygon fill="white" stroke="#666666" points="339.5,-275.75 190,-275.75 190,-234 339.5,-234 339.5,-275.75"/>
<text text-anchor="start" x="198" y="-262.25" font-family="Helvetica,sans-Serif" font-size="10.00">ml::maths::common::</text>
<text text-anchor="start" x="198" y="-251" font-family="Helvetica,sans-Serif" font-size="10.00">CMultivariateNormalConjugate</text>
<text text-anchor="middle" x="264.75" y="-239.75" font-family="Helvetica,sans-Serif" font-size="10.00">::addSamples</text>
</a>
</g>
</g>
<!-- Node1&#45;&gt;Node2 -->
<g id="edge1_Node000001_Node000002" class="edge">
<title>Node1&#45;&gt;Node2</title>
<g id="a_edge1_Node000001_Node000002"><a xlink:title=" ">
<path fill="none" stroke="#63b8ff" d="M364.23,-228.47C356.13,-230.64 347.94,-232.84 339.94,-234.98"/>
<polygon fill="#63b8ff" stroke="#63b8ff" points="365.01,-231.89 373.76,-225.91 363.19,-225.12 365.01,-231.89"/>
</a>
</g>
</g>
<!-- Node16 -->
<g id="Node000016" class="node">
<title>Node16</title>
<g id="a_Node000016"><a xlink:href="../../d2/d9c/_c_sampling_test_8cc.html#a86a563ef89bf32042d28a9c6fc168d39" target="_top" xlink:title=" ">
<polygon fill="white" stroke="#666666" points="338.38,-215.5 191.12,-215.5 191.12,-196.25 338.38,-196.25 338.38,-215.5"/>
<text text-anchor="middle" x="264.75" y="-202" font-family="Helvetica,sans-Serif" font-size="10.00">BOOST_AUTO_TEST_CASE</text>
</a>
</g>
</g>
<!-- Node1&#45;&gt;Node16 -->
<g id="edge15_Node000001_Node000016" class="edge">
<title>Node1&#45;&gt;Node16</title>
<g id="a_edge15_Node000001_Node000016"><a xlink:title=" ">
<path fill="none" stroke="#63b8ff" d="M363.86,-205.88C355.47,-205.88 347,-205.88 338.75,-205.88"/>
<polygon fill="#63b8ff" stroke="#63b8ff" points="363.71,-209.38 373.71,-205.88 363.71,-202.38 363.71,-209.38"/>
</a>
</g>
</g>
<!-- Node17 -->
<g id="Node000017" class="node">
<title>Node17</title>
<g id="a_Node000017"><a xlink:href="../../dc/d70/classml_1_1maths_1_1common_1_1_c_multivariate_normal_conjugate.html#ade9140a8cffff689b9efe3a29919e72f" target="_top" xlink:title=" ">
<polygon fill="white" stroke="#666666" points="339.5,-177.75 190,-177.75 190,-136 339.5,-136 339.5,-177.75"/>
<text text-anchor="start" x="198" y="-164.25" font-family="Helvetica,sans-Serif" font-size="10.00">ml::maths::common::</text>
<text text-anchor="start" x="198" y="-153" font-family="Helvetica,sans-Serif" font-size="10.00">CMultivariateNormalConjugate</text>
<text text-anchor="middle" x="264.75" y="-141.75" font-family="Helvetica,sans-Serif" font-size="10.00">::jointLogMarginalLikelihood</text>
</a>
</g>
</g>
<!-- Node1&#45;&gt;Node17 -->
<g id="edge16_Node000001_Node000017" class="edge">
<title>Node1&#45;&gt;Node17</title>
<g id="a_edge16_Node000001_Node000017"><a xlink:title=" ">
<path fill="none" stroke="#63b8ff" d="M364.23,-183.28C356.13,-181.11 347.94,-178.91 339.94,-176.77"/>
<polygon fill="#63b8ff" stroke="#63b8ff" points="363.19,-186.63 373.76,-185.84 365.01,-179.86 363.19,-186.63"/>
</a>
</g>
</g>
<!-- Node3 -->
<g id="Node000003" class="node">
<title>Node3</title>
<g id="a_Node000003"><a xlink:href="../../d3/dcf/_c_multivariate_normal_conjugate_test_8cc.html#af162eb99ecd0ec522c40c28d057ff799" target="_top" xlink:title=" ">
<polygon fill="white" stroke="#666666" points="150.62,-486.5 3.38,-486.5 3.38,-467.25 150.62,-467.25 150.62,-486.5"/>
<text text-anchor="middle" x="77" y="-473" font-family="Helvetica,sans-Serif" font-size="10.00">BOOST_AUTO_TEST_CASE</text>
</a>
</g>
</g>
<!-- Node2&#45;&gt;Node3 -->
<g id="edge2_Node000002_Node000003" class="edge">
<title>Node2&#45;&gt;Node3</title>
<g id="a_edge2_Node000002_Node000003"><a xlink:title=" ">
<path fill="none" stroke="#63b8ff" d="M255.52,-286.95C242.14,-332.41 211.22,-414.93 154,-458.88 149.91,-462.01 145.37,-464.62 140.58,-466.77"/>
<polygon fill="#63b8ff" stroke="#63b8ff" points="258.86,-288 258.21,-277.42 252.12,-286.1 258.86,-288"/>
</a>
</g>
</g>
<!-- Node4 -->
<g id="Node000004" class="node">
<title>Node4</title>
<g id="a_Node000004"><a xlink:href="../../d3/dcf/_c_multivariate_normal_conjugate_test_8cc.html#a55bbf7636623fd2a7f99058f166e8005" target="_top" xlink:title=" ">
<polygon fill="white" stroke="#666666" points="150.62,-449.5 3.38,-449.5 3.38,-430.25 150.62,-430.25 150.62,-449.5"/>
<text text-anchor="middle" x="77" y="-436" font-family="Helvetica,sans-Serif" font-size="10.00">BOOST_AUTO_TEST_CASE</text>
</a>
</g>
</g>
<!-- Node2&#45;&gt;Node4 -->
<g id="edge3_Node000002_Node000004" class="edge">
<title>Node2&#45;&gt;Node4</title>
<g id="a_edge3_Node000002_Node000004"><a xlink:title=" ">
<path fill="none" stroke="#63b8ff" d="M251.59,-286.55C235.28,-324.68 202.62,-387.82 154,-421.88 149.45,-425.06 144.4,-427.69 139.14,-429.86"/>
<polygon fill="#63b8ff" stroke="#63b8ff" points="254.77,-288.02 255.36,-277.44 248.3,-285.34 254.77,-288.02"/>
</a>
</g>
</g>
<!-- Node5 -->
<g id="Node000005" class="node">
<title>Node5</title>
<g id="a_Node000005"><a xlink:href="../../d3/dcf/_c_multivariate_normal_conjugate_test_8cc.html#a8189fb6a14d4275d48dcc0dc1207fc17" target="_top" xlink:title=" ">
<polygon fill="white" stroke="#666666" points="150.62,-412.5 3.38,-412.5 3.38,-393.25 150.62,-393.25 150.62,-412.5"/>
<text text-anchor="middle" x="77" y="-399" font-family="Helvetica,sans-Serif" font-size="10.00">BOOST_AUTO_TEST_CASE</text>
</a>
</g>
</g>
<!-- Node2&#45;&gt;Node5 -->
<g id="edge4_Node000002_Node000005" class="edge">
<title>Node2&#45;&gt;Node5</title>
<g id="a_edge4_Node000002_Node000005"><a xlink:title=" ">
<path fill="none" stroke="#63b8ff" d="M245.98,-285.61C227.04,-315.58 194.24,-360.14 154,-384.88 148.8,-388.07 143.08,-390.7 137.19,-392.86"/>
<polygon fill="#63b8ff" stroke="#63b8ff" points="248.81,-287.7 251.07,-277.35 242.85,-284.03 248.81,-287.7"/>
</a>
</g>
</g>
<!-- Node6 -->
<g id="Node000006" class="node">
<title>Node6</title>
<g id="a_Node000006"><a xlink:href="../../d3/dcf/_c_multivariate_normal_conjugate_test_8cc.html#a0593b6d97cde3e59af064db548633ca0" target="_top" xlink:title=" ">
<polygon fill="white" stroke="#666666" points="150.62,-375.5 3.38,-375.5 3.38,-356.25 150.62,-356.25 150.62,-375.5"/>
<text text-anchor="middle" x="77" y="-362" font-family="Helvetica,sans-Serif" font-size="10.00">BOOST_AUTO_TEST_CASE</text>
</a>
</g>
</g>
<!-- Node2&#45;&gt;Node6 -->
<g id="edge5_Node000002_Node000006" class="edge">
<title>Node2&#45;&gt;Node6</title>
<g id="a_edge5_Node000002_Node000006"><a xlink:title=" ">
<path fill="none" stroke="#63b8ff" d="M236.84,-284.1C216.12,-304.87 185.74,-331.84 154,-347.88 147.71,-351.05 140.83,-353.68 133.88,-355.86"/>
<polygon fill="#63b8ff" stroke="#63b8ff" points="239.3,-286.59 243.78,-276.99 234.29,-281.7 239.3,-286.59"/>
</a>
</g>
</g>
<!-- Node7 -->
<g id="Node000007" class="node">
<title>Node7</title>
<g id="a_Node000007"><a xlink:href="../../d3/dcf/_c_multivariate_normal_conjugate_test_8cc.html#a52d38ad1a8f1b294f4b166e4c5b88fe9" target="_top" xlink:title=" ">
<polygon fill="white" stroke="#666666" points="150.62,-338.5 3.38,-338.5 3.38,-319.25 150.62,-319.25 150.62,-338.5"/>
<text text-anchor="middle" x="77" y="-325" font-family="Helvetica,sans-Serif" font-size="10.00">BOOST_AUTO_TEST_CASE</text>
</a>
</g>
</g>
<!-- Node2&#45;&gt;Node7 -->
<g id="edge6_Node000002_Node000007" class="edge">
<title>Node2&#45;&gt;Node7</title>
<g id="a_edge6_Node000002_Node000007"><a xlink:title=" ">
<path fill="none" stroke="#63b8ff" d="M217.67,-281.49C198.46,-291.77 175.61,-302.93 154,-310.88 145.73,-313.92 136.76,-316.57 127.97,-318.84"/>
<polygon fill="#63b8ff" stroke="#63b8ff" points="219.21,-284.64 226.33,-276.79 215.87,-278.49 219.21,-284.64"/>
</a>
</g>
</g>
<!-- Node8 -->
<g id="Node000008" class="node">
<title>Node8</title>
<g id="a_Node000008"><a xlink:href="../../dc/d5d/_c_multivariate_multimodal_prior_test_8cc.html#aa9c14a97dde3a40c6e18f999716115b9" target="_top" xlink:title=" ">
<polygon fill="white" stroke="#666666" points="150.62,-301.5 3.38,-301.5 3.38,-282.25 150.62,-282.25 150.62,-301.5"/>
<text text-anchor="middle" x="77" y="-288" font-family="Helvetica,sans-Serif" font-size="10.00">BOOST_AUTO_TEST_CASE</text>
</a>
</g>
</g>
<!-- Node2&#45;&gt;Node8 -->
<g id="edge7_Node000002_Node000008" class="edge">
<title>Node2&#45;&gt;Node8</title>
<g id="a_edge7_Node000002_Node000008"><a xlink:title=" ">
<path fill="none" stroke="#63b8ff" d="M178.43,-271.87C161.43,-275.26 144.09,-278.71 128.7,-281.78"/>
<polygon fill="#63b8ff" stroke="#63b8ff" points="178.93,-275.34 188.05,-269.95 177.56,-268.47 178.93,-275.34"/>
</a>
</g>
</g>
<!-- Node9 -->
<g id="Node000009" class="node">
<title>Node9</title>
<g id="a_Node000009"><a xlink:href="../../d3/dcf/_c_multivariate_normal_conjugate_test_8cc.html#a2b3ca0dceaafd9f87732e59b47b6ac40" target="_top" xlink:title=" ">
<polygon fill="white" stroke="#666666" points="150.62,-264.5 3.38,-264.5 3.38,-245.25 150.62,-245.25 150.62,-264.5"/>
<text text-anchor="middle" x="77" y="-251" font-family="Helvetica,sans-Serif" font-size="10.00">BOOST_AUTO_TEST_CASE</text>
</a>
</g>
</g>
<!-- Node2&#45;&gt;Node9 -->
<g id="edge8_Node000002_Node000009" class="edge">
<title>Node2&#45;&gt;Node9</title>
<g id="a_edge8_Node000002_Node000009"><a xlink:title=" ">
<path fill="none" stroke="#63b8ff" d="M178.09,-254.88C169,-254.88 159.81,-254.88 150.89,-254.88"/>
<polygon fill="#63b8ff" stroke="#63b8ff" points="178.02,-258.38 188.02,-254.88 178.02,-251.38 178.02,-258.38"/>
</a>
</g>
</g>
<!-- Node10 -->
<g id="Node000010" class="node">
<title>Node10</title>
<g id="a_Node000010"><a xlink:href="../../d3/dcf/_c_multivariate_normal_conjugate_test_8cc.html#a1d68c9c9ad2692e9d6ddacc5a88211ac" target="_top" xlink:title=" ">
<polygon fill="white" stroke="#666666" points="150.62,-227.5 3.38,-227.5 3.38,-208.25 150.62,-208.25 150.62,-227.5"/>
<text text-anchor="middle" x="77" y="-214" font-family="Helvetica,sans-Serif" font-size="10.00">BOOST_AUTO_TEST_CASE</text>
</a>
</g>
</g>
<!-- Node2&#45;&gt;Node10 -->
<g id="edge9_Node000002_Node000010" class="edge">
<title>Node2&#45;&gt;Node10</title>
<g id="a_edge9_Node000002_Node000010"><a xlink:title=" ">
<path fill="none" stroke="#63b8ff" d="M178.43,-237.88C161.43,-234.49 144.09,-231.04 128.7,-227.97"/>
<polygon fill="#63b8ff" stroke="#63b8ff" points="177.56,-241.28 188.05,-239.8 178.93,-234.41 177.56,-241.28"/>
</a>
</g>
</g>
<!-- Node11 -->
<g id="Node000011" class="node">
<title>Node11</title>
<g id="a_Node000011"><a xlink:href="../../d3/dcf/_c_multivariate_normal_conjugate_test_8cc.html#a7713d2e9c0cc33ac218648f23444bfc5" target="_top" xlink:title=" ">
<polygon fill="white" stroke="#666666" points="150.62,-190.5 3.38,-190.5 3.38,-171.25 150.62,-171.25 150.62,-190.5"/>
<text text-anchor="middle" x="77" y="-177" font-family="Helvetica,sans-Serif" font-size="10.00">BOOST_AUTO_TEST_CASE</text>
</a>
</g>
</g>
<!-- Node2&#45;&gt;Node11 -->
<g id="edge10_Node000002_Node000011" class="edge">
<title>Node2&#45;&gt;Node11</title>
<g id="a_edge10_Node000002_Node000011"><a xlink:title=" ">
<path fill="none" stroke="#63b8ff" d="M197.22,-228.7C194.76,-227.45 192.35,-226.17 190,-224.88 172.74,-215.31 171.95,-207.09 154,-198.88 147.09,-195.72 139.57,-193.08 132.04,-190.88"/>
<polygon fill="#63b8ff" stroke="#63b8ff" points="195.62,-231.81 206.15,-233 198.66,-225.51 195.62,-231.81"/>
</a>
</g>
</g>
<!-- Node12 -->
<g id="Node000012" class="node">
<title>Node12</title>
<g id="a_Node000012"><a xlink:href="../../d3/dcf/_c_multivariate_normal_conjugate_test_8cc.html#a2d1803e07cd07ffb5647e9983b09bb76" target="_top" xlink:title=" ">
<polygon fill="white" stroke="#666666" points="150.62,-153.5 3.38,-153.5 3.38,-134.25 150.62,-134.25 150.62,-153.5"/>
<text text-anchor="middle" x="77" y="-140" font-family="Helvetica,sans-Serif" font-size="10.00">BOOST_AUTO_TEST_CASE</text>
</a>
</g>
</g>
<!-- Node2&#45;&gt;Node12 -->
<g id="edge11_Node000002_Node000012" class="edge">
<title>Node2&#45;&gt;Node12</title>
<g id="a_edge11_Node000002_Node000012"><a xlink:title=" ">
<path fill="none" stroke="#63b8ff" d="M192.8,-227.21C191.84,-226.45 190.91,-225.67 190,-224.88 165.73,-203.63 179.83,-181.19 154,-161.88 149.77,-158.71 145.06,-156.09 140.12,-153.92"/>
<polygon fill="#63b8ff" stroke="#63b8ff" points="190.45,-229.83 200.65,-232.66 194.44,-224.08 190.45,-229.83"/>
</a>
</g>
</g>
<!-- Node13 -->
<g id="Node000013" class="node">
<title>Node13</title>
<g id="a_Node000013"><a xlink:href="../../d3/dcf/_c_multivariate_normal_conjugate_test_8cc.html#a2c8d659343b709fde4b0714ff57d5a9d" target="_top" xlink:title=" ">
<polygon fill="white" stroke="#666666" points="150.62,-116.5 3.38,-116.5 3.38,-97.25 150.62,-97.25 150.62,-116.5"/>
<text text-anchor="middle" x="77" y="-103" font-family="Helvetica,sans-Serif" font-size="10.00">BOOST_AUTO_TEST_CASE</text>
</a>
</g>
</g>
<!-- Node2&#45;&gt;Node13 -->
<g id="edge12_Node000002_Node000013" class="edge">
<title>Node2&#45;&gt;Node13</title>
<g id="a_edge12_Node000002_Node000013"><a xlink:title=" ">
<path fill="none" stroke="#63b8ff" d="M191.82,-226.69C191.2,-226.1 190.59,-225.49 190,-224.88 157.29,-190.8 189.23,-156.34 154,-124.88 150.46,-121.71 146.47,-119.08 142.21,-116.89"/>
<polygon fill="#63b8ff" stroke="#63b8ff" points="189.39,-229.23 199.37,-232.78 193.79,-223.78 189.39,-229.23"/>
</a>
</g>
</g>
<!-- Node14 -->
<g id="Node000014" class="node">
<title>Node14</title>
<g id="a_Node000014"><a xlink:href="../../d3/dcf/_c_multivariate_normal_conjugate_test_8cc.html#a7f012ec2e54e33b2d083a82f4e481d86" target="_top" xlink:title=" ">
<polygon fill="white" stroke="#666666" points="150.62,-79.5 3.38,-79.5 3.38,-60.25 150.62,-60.25 150.62,-79.5"/>
<text text-anchor="middle" x="77" y="-66" font-family="Helvetica,sans-Serif" font-size="10.00">BOOST_AUTO_TEST_CASE</text>
</a>
</g>
</g>
<!-- Node2&#45;&gt;Node14 -->
<g id="edge13_Node000002_Node000014" class="edge">
<title>Node2&#45;&gt;Node14</title>
<g id="a_edge13_Node000002_Node000014"><a xlink:title=" ">
<path fill="none" stroke="#63b8ff" d="M191.08,-226.07C190.71,-225.67 190.35,-225.28 190,-224.88 148.45,-177.57 199.06,-131.85 154,-87.88 150.8,-84.75 147.16,-82.13 143.25,-79.94"/>
<polygon fill="#63b8ff" stroke="#63b8ff" points="188.59,-228.54 198.4,-232.55 193.23,-223.3 188.59,-228.54"/>
</a>
</g>
</g>
<!-- Node15 -->
<g id="Node000015" class="node">
<title>Node15</title>
<g id="a_Node000015"><a xlink:href="../../df/ddb/namespaceanonymous__namespace_02_c_multivariate_normal_conjugate_test_8cc_03.html#a8069fc4bca3e3eff8577b0f6242d9864" target="_top" xlink:title=" ">
<polygon fill="white" stroke="#666666" points="154,-41.75 0,-41.75 0,0 154,0 154,-41.75"/>
<text text-anchor="start" x="8" y="-28.25" font-family="Helvetica,sans-Serif" font-size="10.00">anonymous_namespace</text>
<text text-anchor="start" x="8" y="-17" font-family="Helvetica,sans-Serif" font-size="10.00">{CMultivariateNormalConjugate</text>
<text text-anchor="middle" x="77" y="-5.75" font-family="Helvetica,sans-Serif" font-size="10.00">Test::cc}::calibrationExperiment</text>
</a>
</g>
</g>
<!-- Node2&#45;&gt;Node15 -->
<g id="edge14_Node000002_Node000015" class="edge">
<title>Node2&#45;&gt;Node15</title>
<g id="a_edge14_Node000002_Node000015"><a xlink:title=" ">
<path fill="none" stroke="#63b8ff" d="M191.05,-226.09C190.69,-225.69 190.34,-225.29 190,-224.88 139.47,-164.18 204.84,-111.3 154,-50.88 151.26,-47.62 148.12,-44.71 144.71,-42.12"/>
<polygon fill="#63b8ff" stroke="#63b8ff" points="188.49,-228.5 198.22,-232.7 193.23,-223.35 188.49,-228.5"/>
</a>
</g>
</g>
</g>
</svg>
