<?xml version="1.0" encoding="UTF-8" standalone="no"?>
<!DOCTYPE svg PUBLIC "-//W3C//DTD SVG 1.1//EN"
 "http://www.w3.org/Graphics/SVG/1.1/DTD/svg11.dtd">
<!-- Generated by graphviz version 10.0.1 (20240210.2158)
 -->
<!-- Title: ml::maths::common::CBasicStatistics::maximumLikelihoodCovariances Pages: 1 -->
<svg width="930pt" height="512pt"
 viewBox="0.00 0.00 929.50 511.50" xmlns="http://www.w3.org/2000/svg" xmlns:xlink="http://www.w3.org/1999/xlink">
<g id="graph0" class="graph" transform="scale(1 1) rotate(0) translate(4 507.5)">
<title>ml::maths::common::CBasicStatistics::maximumLikelihoodCovariances</title>
<!-- Node1 -->
<g id="Node000001" class="node">
<title>Node1</title>
<g id="a_Node000001"><a xlink:title=" ">
<polygon fill="#999999" stroke="#666666" points="921.5,-308.75 739.75,-308.75 739.75,-267 921.5,-267 921.5,-308.75"/>
<text text-anchor="start" x="747.75" y="-295.25" font-family="Helvetica,sans-Serif" font-size="10.00">ml::maths::common::</text>
<text text-anchor="start" x="747.75" y="-284" font-family="Helvetica,sans-Serif" font-size="10.00">CBasicStatistics::maximumLikelihood</text>
<text text-anchor="middle" x="830.62" y="-272.75" font-family="Helvetica,sans-Serif" font-size="10.00">Covariances</text>
</a>
</g>
</g>
<!-- Node2 -->
<g id="Node000002" class="node">
<title>Node2</title>
<g id="a_Node000002"><a xlink:href="../../d2/d17/_c_x_means_online_test_8cc.html#adf48b585c1602cf4d19a57a36db15dc6" target="_top" xlink:title=" ">
<polygon fill="white" stroke="#666666" points="693.25,-503.5 546,-503.5 546,-484.25 693.25,-484.25 693.25,-503.5"/>
<text text-anchor="middle" x="619.62" y="-490" font-family="Helvetica,sans-Serif" font-size="10.00">BOOST_AUTO_TEST_CASE</text>
</a>
</g>
</g>
<!-- Node1&#45;&gt;Node2 -->
<g id="edge1_Node000001_Node000002" class="edge">
<title>Node1&#45;&gt;Node2</title>
<g id="a_edge1_Node000001_Node000002"><a xlink:title=" ">
<path fill="none" stroke="#63b8ff" d="M816.02,-319.57C796.89,-360.39 758.18,-430.74 703.75,-469.88 695.34,-475.93 685.42,-480.46 675.42,-483.85"/>
<polygon fill="#63b8ff" stroke="#63b8ff" points="819.19,-321.06 820.16,-310.51 812.82,-318.15 819.19,-321.06"/>
</a>
</g>
</g>
<!-- Node3 -->
<g id="Node000003" class="node">
<title>Node3</title>
<g id="a_Node000003"><a xlink:href="../../d8/dfa/_c_basic_statistics_test_8cc.html#a5ea1badddfda2f6aa36a2b05a01c68d9" target="_top" xlink:title=" ">
<polygon fill="white" stroke="#666666" points="315.5,-398.5 168.25,-398.5 168.25,-379.25 315.5,-379.25 315.5,-398.5"/>
<text text-anchor="middle" x="241.88" y="-385" font-family="Helvetica,sans-Serif" font-size="10.00">BOOST_AUTO_TEST_CASE</text>
</a>
</g>
</g>
<!-- Node1&#45;&gt;Node3 -->
<g id="edge2_Node000001_Node000003" class="edge">
<title>Node1&#45;&gt;Node3</title>
<g id="a_edge2_Node000001_Node000003"><a xlink:title=" ">
<path fill="none" stroke="#63b8ff" d="M814.14,-318.98C794.22,-355.06 755.89,-412.67 703.75,-436.88 548.7,-508.86 333.5,-428.27 264.84,-398.8"/>
<polygon fill="#63b8ff" stroke="#63b8ff" points="817.15,-320.78 818.78,-310.31 810.98,-317.48 817.15,-320.78"/>
</a>
</g>
</g>
<!-- Node4 -->
<g id="Node000004" class="node">
<title>Node4</title>
<g id="a_Node000004"><a xlink:href="../../d2/d17/_c_x_means_online_test_8cc.html#a4d34852194df3559a1ef01cbac95a7da" target="_top" xlink:title=" ">
<polygon fill="white" stroke="#666666" points="693.25,-427.5 546,-427.5 546,-408.25 693.25,-408.25 693.25,-427.5"/>
<text text-anchor="middle" x="619.62" y="-414" font-family="Helvetica,sans-Serif" font-size="10.00">BOOST_AUTO_TEST_CASE</text>
</a>
</g>
</g>
<!-- Node1&#45;&gt;Node4 -->
<g id="edge3_Node000001_Node000004" class="edge">
<title>Node1&#45;&gt;Node4</title>
<g id="a_edge3_Node000001_Node000004"><a xlink:title=" ">
<path fill="none" stroke="#63b8ff" d="M804.56,-317.51C781.12,-343.25 743.81,-379.51 703.75,-399.88 697.56,-403.02 690.85,-405.62 684,-407.76"/>
<polygon fill="#63b8ff" stroke="#63b8ff" points="806.9,-320.14 810.95,-310.35 801.68,-315.48 806.9,-320.14"/>
</a>
</g>
</g>
<!-- Node5 -->
<g id="Node000005" class="node">
<title>Node5</title>
<g id="a_Node000005"><a xlink:href="../../d6/d26/_c_linear_algebra_test_8cc.html#af2dce9c3ea2d44267307d89a1778b0a6" target="_top" xlink:title=" ">
<polygon fill="white" stroke="#666666" points="693.25,-390.5 546,-390.5 546,-371.25 693.25,-371.25 693.25,-390.5"/>
<text text-anchor="middle" x="619.62" y="-377" font-family="Helvetica,sans-Serif" font-size="10.00">BOOST_AUTO_TEST_CASE</text>
</a>
</g>
</g>
<!-- Node1&#45;&gt;Node5 -->
<g id="edge4_Node000001_Node000005" class="edge">
<title>Node1&#45;&gt;Node5</title>
<g id="a_edge4_Node000001_Node000005"><a xlink:title=" ">
<path fill="none" stroke="#63b8ff" d="M791.05,-315.34C766.97,-331.32 734.74,-350.66 703.75,-362.88 695.78,-366.01 687.16,-368.65 678.58,-370.86"/>
<polygon fill="#63b8ff" stroke="#63b8ff" points="792.93,-318.29 799.26,-309.79 789.02,-312.49 792.93,-318.29"/>
</a>
</g>
</g>
<!-- Node6 -->
<g id="Node000006" class="node">
<title>Node6</title>
<g id="a_Node000006"><a xlink:href="../../d7/dff/structml_1_1maths_1_1common_1_1basic__statistics__detail_1_1_s_covariances_ledoit_wolf.html#ae279c75f55598280f6df675efe188b66" target="_top" xlink:title=" ">
<polygon fill="white" stroke="#666666" points="684.25,-353.38 555,-353.38 555,-300.38 684.25,-300.38 684.25,-353.38"/>
<text text-anchor="start" x="563" y="-339.88" font-family="Helvetica,sans-Serif" font-size="10.00">ml::maths::common::</text>
<text text-anchor="start" x="563" y="-328.62" font-family="Helvetica,sans-Serif" font-size="10.00">basic_statistics_detail</text>
<text text-anchor="start" x="563" y="-317.38" font-family="Helvetica,sans-Serif" font-size="10.00">::SCovariancesLedoitWolf</text>
<text text-anchor="middle" x="619.62" y="-306.12" font-family="Helvetica,sans-Serif" font-size="10.00">::estimate</text>
</a>
</g>
</g>
<!-- Node1&#45;&gt;Node6 -->
<g id="edge5_Node000001_Node000006" class="edge">
<title>Node1&#45;&gt;Node6</title>
<g id="a_edge5_Node000001_Node000006"><a xlink:title=" ">
<path fill="none" stroke="#63b8ff" d="M728.18,-306.81C713.35,-309.57 698.45,-312.35 684.66,-314.93"/>
<polygon fill="#63b8ff" stroke="#63b8ff" points="728.8,-310.25 737.99,-304.98 727.51,-303.37 728.8,-310.25"/>
</a>
</g>
</g>
<!-- Node10 -->
<g id="Node000010" class="node">
<title>Node10</title>
<g id="a_Node000010"><a xlink:href="../../d9/da3/structml_1_1maths_1_1common_1_1basic__statistics__detail_1_1_s_covariances_ledoit_wolf_3_01_c_anbe712cdfdefc5a17046f288495b42801.html#ad66a68080cb46129377b0fd5c537f4c0" target="_top" xlink:title=" ">
<polygon fill="white" stroke="#666666" points="703.75,-282 535.5,-282 535.5,-217.75 703.75,-217.75 703.75,-282"/>
<text text-anchor="start" x="543.5" y="-268.5" font-family="Helvetica,sans-Serif" font-size="10.00">ml::maths::common::</text>
<text text-anchor="start" x="543.5" y="-257.25" font-family="Helvetica,sans-Serif" font-size="10.00">basic_statistics_detail</text>
<text text-anchor="start" x="543.5" y="-246" font-family="Helvetica,sans-Serif" font-size="10.00">::SCovariancesLedoitWolf</text>
<text text-anchor="start" x="543.5" y="-234.75" font-family="Helvetica,sans-Serif" font-size="10.00">&lt; CAnnotatedVector&lt; POINT,</text>
<text text-anchor="middle" x="619.62" y="-223.5" font-family="Helvetica,sans-Serif" font-size="10.00"> SCountAndVariance &gt; &gt;::estimate</text>
</a>
</g>
</g>
<!-- Node1&#45;&gt;Node10 -->
<g id="edge11_Node000001_Node000010" class="edge">
<title>Node1&#45;&gt;Node10</title>
<g id="a_edge11_Node000001_Node000010"><a xlink:title=" ">
<path fill="none" stroke="#63b8ff" d="M728.16,-269.43C720.14,-267.97 712.09,-266.51 704.21,-265.07"/>
<polygon fill="#63b8ff" stroke="#63b8ff" points="727.52,-272.87 737.98,-271.21 728.77,-265.98 727.52,-272.87"/>
</a>
</g>
</g>
<!-- Node11 -->
<g id="Node000011" class="node">
<title>Node11</title>
<g id="a_Node000011"><a xlink:href="../../d8/dcd/classml_1_1maths_1_1common_1_1_c_gaussian_info_criterion.html#ab1ce171c6e823625bdeed7122d12a071" target="_top" xlink:title="Compute the log of the determinant of covariance.">
<polygon fill="white" stroke="#666666" points="678.62,-199.75 560.62,-199.75 560.62,-158 678.62,-158 678.62,-199.75"/>
<text text-anchor="start" x="568.62" y="-186.25" font-family="Helvetica,sans-Serif" font-size="10.00">ml::maths::common::</text>
<text text-anchor="start" x="568.62" y="-175" font-family="Helvetica,sans-Serif" font-size="10.00">CGaussianInfoCriterion</text>
<text text-anchor="middle" x="619.62" y="-163.75" font-family="Helvetica,sans-Serif" font-size="10.00">::logDeterminant</text>
</a>
</g>
</g>
<!-- Node1&#45;&gt;Node11 -->
<g id="edge12_Node000001_Node000011" class="edge">
<title>Node1&#45;&gt;Node11</title>
<g id="a_edge12_Node000001_Node000011"><a xlink:title=" ">
<path fill="none" stroke="#63b8ff" d="M790.93,-260.55C766.65,-244.19 734.26,-223.74 703.75,-208.88 695.89,-205.04 687.41,-201.43 678.97,-198.13"/>
<polygon fill="#63b8ff" stroke="#63b8ff" points="788.66,-263.24 798.9,-265.98 792.6,-257.46 788.66,-263.24"/>
</a>
</g>
</g>
<!-- Node13 -->
<g id="Node000013" class="node">
<title>Node13</title>
<g id="a_Node000013"><a xlink:href="../../d5/d5b/classml_1_1maths_1_1common_1_1_c_x_means_online_1_1_c_cluster.html#a8b6d8d9016db551d87c786ccd00d51bd" target="_top" xlink:title="Get the likelihood that x is from this cluster.">
<polygon fill="white" stroke="#666666" points="685.75,-139.75 553.5,-139.75 553.5,-98 685.75,-98 685.75,-139.75"/>
<text text-anchor="start" x="561.5" y="-126.25" font-family="Helvetica,sans-Serif" font-size="10.00">ml::maths::common::</text>
<text text-anchor="start" x="561.5" y="-115" font-family="Helvetica,sans-Serif" font-size="10.00">CXMeansOnline::CCluster</text>
<text text-anchor="middle" x="619.62" y="-103.75" font-family="Helvetica,sans-Serif" font-size="10.00">::logLikelihoodFromCluster</text>
</a>
</g>
</g>
<!-- Node1&#45;&gt;Node13 -->
<g id="edge14_Node000001_Node000013" class="edge">
<title>Node1&#45;&gt;Node13</title>
<g id="a_edge14_Node000001_Node000013"><a xlink:title=" ">
<path fill="none" stroke="#63b8ff" d="M808.98,-257.42C786.43,-226.24 747.62,-178.29 703.75,-148.88 698.27,-145.2 692.29,-141.91 686.12,-138.99"/>
<polygon fill="#63b8ff" stroke="#63b8ff" points="805.93,-259.16 814.57,-265.29 811.63,-255.11 805.93,-259.16"/>
</a>
</g>
</g>
<!-- Node14 -->
<g id="Node000014" class="node">
<title>Node14</title>
<g id="a_Node000014"><a xlink:href="../../d5/d5b/classml_1_1maths_1_1common_1_1_c_x_means_online_1_1_c_cluster.html#abf7a110e46df45b4fe07a4fa65123143" target="_top" xlink:title="Get the closest (in Mahalanobis distance) cluster to x.">
<polygon fill="white" stroke="#666666" points="491.62,-118.75 359.38,-118.75 359.38,-77 491.62,-77 491.62,-118.75"/>
<text text-anchor="start" x="367.38" y="-105.25" font-family="Helvetica,sans-Serif" font-size="10.00">ml::maths::common::</text>
<text text-anchor="start" x="367.38" y="-94" font-family="Helvetica,sans-Serif" font-size="10.00">CXMeansOnline::CCluster</text>
<text text-anchor="middle" x="425.5" y="-82.75" font-family="Helvetica,sans-Serif" font-size="10.00">::nearest</text>
</a>
</g>
</g>
<!-- Node1&#45;&gt;Node14 -->
<g id="edge15_Node000001_Node000014" class="edge">
<title>Node1&#45;&gt;Node14</title>
<g id="a_edge15_Node000001_Node000014"><a xlink:title=" ">
<path fill="none" stroke="#63b8ff" d="M820.25,-255.89C804.68,-209.33 768.59,-124.58 703.75,-88.88 638.57,-52.98 551.08,-63.69 491.95,-77.83"/>
<polygon fill="#63b8ff" stroke="#63b8ff" points="816.83,-256.69 823.23,-265.13 823.49,-254.54 816.83,-256.69"/>
</a>
</g>
</g>
<!-- Node15 -->
<g id="Node000015" class="node">
<title>Node15</title>
<g id="a_Node000015"><a xlink:href="../../d5/d5b/classml_1_1maths_1_1common_1_1_c_x_means_online_1_1_c_cluster.html#a773ac4e01f2bfffc8ed418cd1fb0a4f1" target="_top" xlink:title=" ">
<polygon fill="white" stroke="#666666" points="685.75,-41.75 553.5,-41.75 553.5,0 685.75,0 685.75,-41.75"/>
<text text-anchor="start" x="561.5" y="-28.25" font-family="Helvetica,sans-Serif" font-size="10.00">ml::maths::common::</text>
<text text-anchor="start" x="561.5" y="-17" font-family="Helvetica,sans-Serif" font-size="10.00">CXMeansOnline::CCluster</text>
<text text-anchor="middle" x="619.62" y="-5.75" font-family="Helvetica,sans-Serif" font-size="10.00">::spread</text>
</a>
</g>
</g>
<!-- Node1&#45;&gt;Node15 -->
<g id="edge17_Node000001_Node000015" class="edge">
<title>Node1&#45;&gt;Node15</title>
<g id="a_edge17_Node000001_Node000015"><a xlink:title=" ">
<path fill="none" stroke="#63b8ff" d="M819.87,-255.65C803.45,-206.37 765.84,-112.13 703.75,-55.88 697.95,-50.62 691.24,-46.08 684.2,-42.18"/>
<polygon fill="#63b8ff" stroke="#63b8ff" points="816.54,-256.71 822.95,-265.15 823.2,-254.55 816.54,-256.71"/>
</a>
</g>
</g>
<!-- Node7 -->
<g id="Node000007" class="node">
<title>Node7</title>
<g id="a_Node000007"><a xlink:href="../../d4/d55/classml_1_1maths_1_1common_1_1_c_basic_statistics.html#a869474414e0d0ea31da714ee41adee91" target="_top" xlink:title=" ">
<polygon fill="white" stroke="#666666" points="499.5,-347.75 351.5,-347.75 351.5,-306 499.5,-306 499.5,-347.75"/>
<text text-anchor="start" x="359.5" y="-334.25" font-family="Helvetica,sans-Serif" font-size="10.00">ml::maths::common::</text>
<text text-anchor="start" x="359.5" y="-323" font-family="Helvetica,sans-Serif" font-size="10.00">CBasicStatistics::covariances</text>
<text text-anchor="middle" x="425.5" y="-311.75" font-family="Helvetica,sans-Serif" font-size="10.00">LedoitWolf</text>
</a>
</g>
</g>
<!-- Node6&#45;&gt;Node7 -->
<g id="edge6_Node000006_Node000007" class="edge">
<title>Node6&#45;&gt;Node7</title>
<g id="a_edge6_Node000006_Node000007"><a xlink:title=" ">
<path fill="none" stroke="#63b8ff" d="M543.34,-326.88C529.03,-326.88 514.07,-326.88 499.83,-326.88"/>
<polygon fill="#63b8ff" stroke="#63b8ff" points="543.14,-330.38 553.14,-326.88 543.14,-323.38 543.14,-330.38"/>
</a>
</g>
</g>
<!-- Node7&#45;&gt;Node3 -->
<g id="edge7_Node000007_Node000003" class="edge">
<title>Node7&#45;&gt;Node3</title>
<g id="a_edge7_Node000007_Node000003"><a xlink:title=" ">
<path fill="none" stroke="#63b8ff" d="M351.15,-351.91C323.55,-361.33 293.72,-371.52 272.37,-378.81"/>
<polygon fill="#63b8ff" stroke="#63b8ff" points="352.23,-355.24 360.56,-348.7 349.97,-348.62 352.23,-355.24"/>
</a>
</g>
</g>
<!-- Node8 -->
<g id="Node000008" class="node">
<title>Node8</title>
<g id="a_Node000008"><a xlink:href="../../d5/d5b/classml_1_1maths_1_1common_1_1_c_x_means_online_1_1_c_cluster.html#a9b3a8d896fbb5c2059d2014523b5c8f6" target="_top" xlink:title=" ">
<polygon fill="white" stroke="#666666" points="308,-284.75 175.75,-284.75 175.75,-243 308,-243 308,-284.75"/>
<text text-anchor="start" x="183.75" y="-271.25" font-family="Helvetica,sans-Serif" font-size="10.00">ml::maths::common::</text>
<text text-anchor="start" x="183.75" y="-260" font-family="Helvetica,sans-Serif" font-size="10.00">CXMeansOnline::CCluster</text>
<text text-anchor="middle" x="241.88" y="-248.75" font-family="Helvetica,sans-Serif" font-size="10.00">::splitSearch</text>
</a>
</g>
</g>
<!-- Node7&#45;&gt;Node8 -->
<g id="edge8_Node000007_Node000008" class="edge">
<title>Node7&#45;&gt;Node8</title>
<g id="a_edge8_Node000007_Node000008"><a xlink:title=" ">
<path fill="none" stroke="#63b8ff" d="M352.18,-301.79C336.33,-296.29 319.68,-290.52 304.3,-285.18"/>
<polygon fill="#63b8ff" stroke="#63b8ff" points="350.99,-305.08 361.58,-305.05 353.28,-298.47 350.99,-305.08"/>
</a>
</g>
</g>
<!-- Node9 -->
<g id="Node000009" class="node">
<title>Node9</title>
<g id="a_Node000009"><a xlink:href="../../d5/d5b/classml_1_1maths_1_1common_1_1_c_x_means_online_1_1_c_cluster.html#a810d7b339ac2d556dbad39f33378bd06" target="_top" xlink:title=" ">
<polygon fill="white" stroke="#666666" points="132.25,-284.75 0,-284.75 0,-243 132.25,-243 132.25,-284.75"/>
<text text-anchor="start" x="8" y="-271.25" font-family="Helvetica,sans-Serif" font-size="10.00">ml::maths::common::</text>
<text text-anchor="start" x="8" y="-260" font-family="Helvetica,sans-Serif" font-size="10.00">CXMeansOnline::CCluster</text>
<text text-anchor="middle" x="66.12" y="-248.75" font-family="Helvetica,sans-Serif" font-size="10.00">::split</text>
</a>
</g>
</g>
<!-- Node8&#45;&gt;Node9 -->
<g id="edge9_Node000008_Node000009" class="edge">
<title>Node8&#45;&gt;Node9</title>
<g id="a_edge9_Node000008_Node000009"><a xlink:title=" ">
<path fill="none" stroke="#63b8ff" d="M164.34,-263.88C153.78,-263.88 143.02,-263.88 132.68,-263.88"/>
<polygon fill="#63b8ff" stroke="#63b8ff" points="164.17,-267.38 174.17,-263.88 164.17,-260.38 164.17,-267.38"/>
</a>
</g>
</g>
<!-- Node9&#45;&gt;Node9 -->
<g id="edge10_Node000009_Node000009" class="edge">
<title>Node9&#45;&gt;Node9</title>
<g id="a_edge10_Node000009_Node000009"><a xlink:title=" ">
<path fill="none" stroke="#63b8ff" d="M95.05,-295.86C90.06,-300.01 80.41,-302.75 66.12,-302.75 41.41,-302.75 30.6,-294.55 33.69,-285.07"/>
<polygon fill="#63b8ff" stroke="#63b8ff" points="98.33,-297.1 98.09,-286.51 91.67,-294.93 98.33,-297.1"/>
</a>
</g>
</g>
<!-- Node12 -->
<g id="Node000012" class="node">
<title>Node12</title>
<g id="a_Node000012"><a xlink:href="../../d8/dcd/classml_1_1maths_1_1common_1_1_c_gaussian_info_criterion.html#ac492dcff81db9652ae12665e68fa2bed" target="_top" xlink:title="Update the sufficient statistics for computing info content.">
<polygon fill="white" stroke="#666666" points="495.38,-194.12 355.62,-194.12 355.62,-163.62 495.38,-163.62 495.38,-194.12"/>
<text text-anchor="start" x="363.62" y="-180.62" font-family="Helvetica,sans-Serif" font-size="10.00">ml::maths::common::</text>
<text text-anchor="middle" x="425.5" y="-169.38" font-family="Helvetica,sans-Serif" font-size="10.00">CGaussianInfoCriterion::add</text>
</a>
</g>
</g>
<!-- Node11&#45;&gt;Node12 -->
<g id="edge13_Node000011_Node000012" class="edge">
<title>Node11&#45;&gt;Node12</title>
<g id="a_edge13_Node000011_Node000012"><a xlink:title=" ">
<path fill="none" stroke="#63b8ff" d="M549.02,-178.88C531.69,-178.88 513.11,-178.88 495.8,-178.88"/>
<polygon fill="#63b8ff" stroke="#63b8ff" points="548.69,-182.38 558.69,-178.88 548.69,-175.38 548.69,-182.38"/>
</a>
</g>
</g>
<!-- Node14&#45;&gt;Node8 -->
<g id="edge16_Node000014_Node000008" class="edge">
<title>Node14&#45;&gt;Node8</title>
<g id="a_edge16_Node000014_Node000008"><a xlink:title=" ">
<path fill="none" stroke="#63b8ff" d="M386.76,-125.91C375.2,-134.87 362.61,-145.03 351.5,-154.88 318.91,-183.75 283.78,-220.05 262.56,-242.61"/>
<polygon fill="#63b8ff" stroke="#63b8ff" points="388.76,-128.79 394.56,-119.93 384.49,-123.24 388.76,-128.79"/>
</a>
</g>
</g>
</g>
</svg>
