<?xml version="1.0" encoding="UTF-8" standalone="no"?>
<!DOCTYPE svg PUBLIC "-//W3C//DTD SVG 1.1//EN"
 "http://www.w3.org/Graphics/SVG/1.1/DTD/svg11.dtd">
<!-- Generated by graphviz version 10.0.1 (20240210.2158)
 -->
<!-- Title: ml::maths::time_series::CTimeSeriesSegmentation::removePiecewiseLinearScaledSeasonal Pages: 1 -->
<!--zoomable 337 -->

<svg id="main" version="1.1" xmlns="http://www.w3.org/2000/svg" xmlns:xlink="http://www.w3.org/1999/xlink" xml:space="preserve" onload="init(evt)">
<style type="text/css"><![CDATA[
.node, .edge {opacity: 0.7;}
.node.selected, .edge.selected {opacity: 1;}
.edge:hover path { stroke: red; }
.edge:hover polygon { stroke: red; fill: red; }
]]></style>

<defs>
  <circle id="rim" cx="0" cy="0" r="7"/>
  <circle id="rim2" cx="0" cy="0" r="3.5"/>
  <g id="zoomPlus">
    <use xlink:href="#rim" fill="#404040"><set attributeName="fill" to="#808080" begin="zoomplus.mouseover" end="zoomplus.mouseout"/></use>
    <path d="M-4,0h8M0,-4v8" fill="none" stroke="white" stroke-width="1.5" pointer-events="none"/>
  </g>
  <g id="zoomMin">
    <use xlink:href="#rim" fill="#404040"><set attributeName="fill" to="#808080" begin="zoomminus.mouseover" end="zoomminus.mouseout"/></use>
    <path d="M-4,0h8" fill="none" stroke="white" stroke-width="1.5" pointer-events="none"/>
  </g>
  <g id="arrowUp" transform="translate(30 24)">
    <use xlink:href="#rim"/>
    <path pointer-events="none" fill="none" stroke="white" stroke-width="1.5" d="M0,-3.0v7 M-2.5,-0.5L0,-3.0L2.5,-0.5"/>
  </g>
  <g id="arrowRight" transform="rotate(90) translate(36 -43)">
    <use xlink:href="#rim"/>
    <path pointer-events="none" fill="none" stroke="white" stroke-width="1.5" d="M0,-3.0v7 M-2.5,-0.5L0,-3.0L2.5,-0.5"/>
  </g>
  <g id="arrowDown" transform="rotate(180) translate(-30 -48)">
    <use xlink:href="#rim"/>
    <path pointer-events="none" fill="none" stroke="white" stroke-width="1.5" d="M0,-3.0v7 M-2.5,-0.5L0,-3.0L2.5,-0.5"/>
  </g>
  <g id="arrowLeft" transform="rotate(270) translate(-36 17)">
    <use xlink:href="#rim"/>
    <path pointer-events="none" fill="none" stroke="white" stroke-width="1.5" d="M0,-3.0v7 M-2.5,-0.5L0,-3.0L2.5,-0.5"/>
  </g>
  <g id="resetDef">
    <use xlink:href="#rim2" fill="#404040"><set attributeName="fill" to="#808080" begin="reset.mouseover" end="reset.mouseout"/></use>
  </g>
</defs>
<script type="application/ecmascript">
var viewWidth = 615;
var viewHeight = 337;
var sectionId = 'dynsection-34';
</script>
<script type="application/ecmascript" xlink:href="../../svg.min.js"/>
<svg id="graph" class="graph">
<g id="viewport">
<title>ml::maths::time_series::CTimeSeriesSegmentation::removePiecewiseLinearScaledSeasonal</title>
<!-- Node1 -->
<g id="Node000001" class="node">
<title>Node1</title>
<g id="a_Node000001"><a xlink:title=" ">
<polygon fill="#999999" stroke="#666666" points="196,-79.12 0,-79.12 0,-37.38 196,-37.38 196,-79.12"/>
<text text-anchor="start" x="8" y="-65.62" font-family="Helvetica,sans-Serif" font-size="10.00">ml::maths::time_series</text>
<text text-anchor="start" x="8" y="-54.38" font-family="Helvetica,sans-Serif" font-size="10.00">::CTimeSeriesSegmentation</text>
<text text-anchor="middle" x="98" y="-43.12" font-family="Helvetica,sans-Serif" font-size="10.00">::removePiecewiseLinearScaledSeasonal</text>
</a>
</g>
</g>
<!-- Node2 -->
<g id="Node000002" class="node">
<title>Node2</title>
<g id="a_Node000002"><a xlink:href="../../de/d54/classml_1_1maths_1_1time__series_1_1_c_time_series_segmentation.html#ae400a1bb4e41a0a376a155c56533a752" target="_top" xlink:title=" ">
<polygon fill="white" stroke="#666666" points="404,-159.12 232,-159.12 232,-117.38 404,-117.38 404,-159.12"/>
<text text-anchor="start" x="240" y="-145.62" font-family="Helvetica,sans-Serif" font-size="10.00">ml::maths::time_series</text>
<text text-anchor="start" x="240" y="-134.38" font-family="Helvetica,sans-Serif" font-size="10.00">::CTimeSeriesSegmentation</text>
<text text-anchor="middle" x="318" y="-123.12" font-family="Helvetica,sans-Serif" font-size="10.00">::fitPiecewiseLinearScaledSeasonal</text>
</a>
</g>
</g>
<!-- Node1&#45;&gt;Node2 -->
<g id="edge1_Node000001_Node000002" class="edge">
<title>Node1&#45;&gt;Node2</title>
<g id="a_edge1_Node000001_Node000002"><a xlink:title=" ">
<path fill="none" stroke="#63b8ff" d="M157.13,-79.58C185.22,-89.89 219.11,-102.33 248.45,-113.09"/>
<polygon fill="#63b8ff" stroke="#63b8ff" points="247.01,-116.3 257.61,-116.45 249.43,-109.72 247.01,-116.3"/>
</a>
</g>
</g>
<!-- Node8 -->
<g id="Node000008" class="node">
<title>Node8</title>
<g id="a_Node000008"><a xlink:href="../../de/d54/classml_1_1maths_1_1time__series_1_1_c_time_series_segmentation.html#a51147b595b313b0d5a857f7e8ec6136e" target="_top" xlink:title=" ">
<polygon fill="white" stroke="#666666" points="592.88,-49.12 453.88,-49.12 453.88,-7.38 592.88,-7.38 592.88,-49.12"/>
<text text-anchor="start" x="461.88" y="-35.62" font-family="Helvetica,sans-Serif" font-size="10.00">ml::maths::time_series</text>
<text text-anchor="start" x="461.88" y="-24.38" font-family="Helvetica,sans-Serif" font-size="10.00">::CTimeSeriesSegmentation</text>
<text text-anchor="middle" x="523.38" y="-13.12" font-family="Helvetica,sans-Serif" font-size="10.00">::scaleAt</text>
</a>
</g>
</g>
<!-- Node1&#45;&gt;Node8 -->
<g id="edge11_Node000001_Node000008" class="edge">
<title>Node1&#45;&gt;Node8</title>
<g id="a_edge11_Node000001_Node000008"><a xlink:title=" ">
<path fill="none" stroke="#63b8ff" d="M196.24,-52.95C256.17,-49.49 334.58,-44.64 404,-39.25 416.41,-38.29 429.55,-37.17 442.38,-36.02"/>
<polygon fill="#63b8ff" stroke="#63b8ff" points="442.4,-39.53 452.04,-35.14 441.77,-32.56 442.4,-39.53"/>
</a>
</g>
</g>
<!-- Node9 -->
<g id="Node000009" class="node">
<title>Node9</title>
<g id="a_Node000009"><a xlink:href="../../d4/d55/classml_1_1maths_1_1common_1_1_c_basic_statistics.html#aa7a60039b1bc1a55160fd72d275cc874" target="_top" xlink:title="Get the specified moment provided it exists.">
<polygon fill="white" stroke="#666666" points="383.38,-30.5 252.62,-30.5 252.62,0 383.38,0 383.38,-30.5"/>
<text text-anchor="start" x="260.62" y="-17" font-family="Helvetica,sans-Serif" font-size="10.00">ml::maths::common::</text>
<text text-anchor="middle" x="318" y="-5.75" font-family="Helvetica,sans-Serif" font-size="10.00">CBasicStatistics::moment</text>
</a>
</g>
</g>
<!-- Node1&#45;&gt;Node9 -->
<g id="edge10_Node000001_Node000009" class="edge">
<title>Node1&#45;&gt;Node9</title>
<g id="a_edge10_Node000001_Node000009"><a xlink:title=" ">
<path fill="none" stroke="#63b8ff" d="M196.21,-39.08C211.32,-36.1 226.73,-33.06 241.27,-30.19"/>
<polygon fill="#63b8ff" stroke="#63b8ff" points="241.58,-33.69 250.72,-28.32 240.23,-26.83 241.58,-33.69"/>
</a>
</g>
</g>
<!-- Node3 -->
<g id="Node000003" class="node">
<title>Node3</title>
<g id="a_Node000003"><a xlink:href="../../dc/dbb/structml_1_1maths_1_1common_1_1_c_basic_statistics_1_1_s_sample_central_moments.html#acc61d392a0de1c035fe149a84fd252ca" target="_top" xlink:title="Update the moments with the collection x.">
<polygon fill="white" stroke="#666666" points="606.75,-329.12 440,-329.12 440,-287.38 606.75,-287.38 606.75,-329.12"/>
<text text-anchor="start" x="448" y="-315.62" font-family="Helvetica,sans-Serif" font-size="10.00">ml::maths::common::</text>
<text text-anchor="start" x="448" y="-304.38" font-family="Helvetica,sans-Serif" font-size="10.00">CBasicStatistics::SSampleCentral</text>
<text text-anchor="middle" x="523.38" y="-293.12" font-family="Helvetica,sans-Serif" font-size="10.00">Moments::add</text>
</a>
</g>
</g>
<!-- Node2&#45;&gt;Node3 -->
<g id="edge2_Node000002_Node000003" class="edge">
<title>Node2&#45;&gt;Node3</title>
<g id="a_edge2_Node000002_Node000003"><a xlink:title=" ">
<path fill="none" stroke="#63b8ff" d="M332.24,-159.51C352.14,-189.86 392.53,-245.52 440,-278.25 441.59,-279.35 443.23,-280.41 444.91,-281.44"/>
<polygon fill="#63b8ff" stroke="#63b8ff" points="443.08,-284.43 453.52,-286.23 446.48,-278.31 443.08,-284.43"/>
</a>
</g>
</g>
<!-- Node4 -->
<g id="Node000004" class="node">
<title>Node4</title>
<g id="a_Node000004"><a xlink:href="../../d4/d55/classml_1_1maths_1_1common_1_1_c_basic_statistics.html#a6a8651e3b13d0aaa6577af10dfdd97f7" target="_top" xlink:title="Extract the count from an accumulator object.">
<polygon fill="white" stroke="#666666" points="583.12,-269.5 463.62,-269.5 463.62,-239 583.12,-239 583.12,-269.5"/>
<text text-anchor="start" x="471.62" y="-256" font-family="Helvetica,sans-Serif" font-size="10.00">ml::maths::common::</text>
<text text-anchor="middle" x="523.38" y="-244.75" font-family="Helvetica,sans-Serif" font-size="10.00">CBasicStatistics::count</text>
</a>
</g>
</g>
<!-- Node2&#45;&gt;Node4 -->
<g id="edge3_Node000002_Node000004" class="edge">
<title>Node2&#45;&gt;Node4</title>
<g id="a_edge3_Node000002_Node000004"><a xlink:title=" ">
<path fill="none" stroke="#63b8ff" d="M341.9,-159.4C365.08,-179.81 402.73,-210.33 440,-229.25 444.12,-231.34 448.45,-233.3 452.88,-235.11"/>
<polygon fill="#63b8ff" stroke="#63b8ff" points="451.32,-238.26 461.91,-238.56 453.82,-231.72 451.32,-238.26"/>
</a>
</g>
</g>
<!-- Node5 -->
<g id="Node000005" class="node">
<title>Node5</title>
<g id="a_Node000005"><a xlink:href="../../d4/d55/classml_1_1maths_1_1common_1_1_c_basic_statistics.html#a9a136b1823e9938247cd29bb0ffea440" target="_top" xlink:title="Compute the mean of a pair.">
<polygon fill="white" stroke="#666666" points="583.12,-220.5 463.62,-220.5 463.62,-190 583.12,-190 583.12,-220.5"/>
<text text-anchor="start" x="471.62" y="-207" font-family="Helvetica,sans-Serif" font-size="10.00">ml::maths::common::</text>
<text text-anchor="middle" x="523.38" y="-195.75" font-family="Helvetica,sans-Serif" font-size="10.00">CBasicStatistics::mean</text>
</a>
</g>
</g>
<!-- Node2&#45;&gt;Node5 -->
<g id="edge4_Node000002_Node000005" class="edge">
<title>Node2&#45;&gt;Node5</title>
<g id="a_edge4_Node000002_Node000005"><a xlink:title=" ">
<path fill="none" stroke="#63b8ff" d="M378.85,-159.55C398.3,-166.33 420.02,-173.75 440,-180.25 446.1,-182.23 452.47,-184.25 458.85,-186.25"/>
<polygon fill="#63b8ff" stroke="#63b8ff" points="457.51,-189.49 468.1,-189.11 459.58,-182.81 457.51,-189.49"/>
</a>
</g>
</g>
<!-- Node6 -->
<g id="Node000006" class="node">
<title>Node6</title>
<g id="a_Node000006"><a xlink:href="../../dc/deb/classml_1_1maths_1_1time__series_1_1_c_signal.html#a0f4174befdbb15759143f5adbfa7d0a2" target="_top" xlink:title=" ">
<polygon fill="white" stroke="#666666" points="589.88,-153.5 456.88,-153.5 456.88,-123 589.88,-123 589.88,-153.5"/>
<text text-anchor="start" x="464.88" y="-140" font-family="Helvetica,sans-Serif" font-size="10.00">ml::maths::time_series</text>
<text text-anchor="middle" x="523.38" y="-128.75" font-family="Helvetica,sans-Serif" font-size="10.00">::CSignal::reweightOutliers</text>
</a>
</g>
</g>
<!-- Node2&#45;&gt;Node6 -->
<g id="edge5_Node000002_Node000006" class="edge">
<title>Node2&#45;&gt;Node6</title>
<g id="a_edge5_Node000002_Node000006"><a xlink:title=" ">
<path fill="none" stroke="#63b8ff" d="M404.37,-138.25C417.82,-138.25 431.66,-138.25 444.92,-138.25"/>
<polygon fill="#63b8ff" stroke="#63b8ff" points="444.88,-141.75 454.88,-138.25 444.88,-134.75 444.88,-141.75"/>
</a>
</g>
</g>
<!-- Node7 -->
<g id="Node000007" class="node">
<title>Node7</title>
<g id="a_Node000007"><a xlink:href="../../d4/da6/namespaceml.html#ad281564c6956f9a94ad02cfd663d150d" target="_top" xlink:title="Scales time input to generator.">
<polygon fill="white" stroke="#666666" points="551.25,-86.88 495.5,-86.88 495.5,-67.62 551.25,-67.62 551.25,-86.88"/>
<text text-anchor="middle" x="523.38" y="-73.38" font-family="Helvetica,sans-Serif" font-size="10.00">ml::scale</text>
</a>
</g>
</g>
<!-- Node2&#45;&gt;Node7 -->
<g id="edge7_Node000002_Node000007" class="edge">
<title>Node2&#45;&gt;Node7</title>
<g id="a_edge7_Node000002_Node000007"><a xlink:title=" ">
<path fill="none" stroke="#63b8ff" d="M390.13,-116.92C421.9,-107.39 458.06,-96.54 484.53,-88.6"/>
<polygon fill="#63b8ff" stroke="#63b8ff" points="485.22,-92.05 493.79,-85.82 483.21,-85.34 485.22,-92.05"/>
</a>
</g>
</g>
<!-- Node2&#45;&gt;Node8 -->
<g id="edge9_Node000002_Node000008" class="edge">
<title>Node2&#45;&gt;Node8</title>
<g id="a_edge9_Node000002_Node000008"><a xlink:title=" ">
<path fill="none" stroke="#63b8ff" d="M346.7,-117.2C370.52,-99.79 406.27,-75.25 440,-58.25 442.87,-56.81 445.82,-55.4 448.83,-54.02"/>
<polygon fill="#63b8ff" stroke="#63b8ff" points="450.04,-57.31 457.82,-50.12 447.25,-50.89 450.04,-57.31"/>
</a>
</g>
</g>
<!-- Node6&#45;&gt;Node6 -->
<g id="edge6_Node000006_Node000006" class="edge">
<title>Node6&#45;&gt;Node6</title>
<g id="a_edge6_Node000006_Node000006"><a xlink:title=" ">
<path fill="none" stroke="#63b8ff" d="M486.98,-153.99C479.56,-163.06 491.69,-171.5 523.38,-171.5 540.7,-171.5 552.19,-168.97 557.82,-165.2"/>
<polygon fill="#63b8ff" stroke="#63b8ff" points="561.24,-165.93 559.51,-155.48 554.35,-164.73 561.24,-165.93"/>
</a>
</g>
</g>
<!-- Node7&#45;&gt;Node7 -->
<g id="edge8_Node000007_Node000007" class="edge">
<title>Node7&#45;&gt;Node7</title>
<g id="a_edge8_Node000007_Node000007"><a xlink:title=" ">
<path fill="none" stroke="#63b8ff" d="M495.11,-85.17C475.04,-94.3 484.47,-104.88 523.38,-104.88 553.16,-104.88 565.67,-98.68 560.89,-91.67"/>
<polygon fill="#63b8ff" stroke="#63b8ff" points="563.08,-88.93 552.88,-86.04 559.05,-94.65 563.08,-88.93"/>
</a>
</g>
</g>
</g>
</svg>

<g id="navigator" transform="translate(0 0)" fill="#404254">
  <rect fill="#f2f5e9" fill-opacity="0.5" stroke="#606060" stroke-width=".5" x="0" y="0" width="60" height="60"/>
  <use id="zoomplus" xlink:href="#zoomPlus" x="17" y="9" onmousedown="handleZoom(evt,'in')"/>
  <use id="zoomminus" xlink:href="#zoomMin" x="42" y="9" onmousedown="handleZoom(evt,'out')"/>
  <use id="reset" xlink:href="#resetDef" x="30" y="36" onmousedown="handleReset()"/>
   <use id="arrowup" xlink:href="#arrowUp" x="0" y="0" onmousedown="handlePan(0,-1)"/>
  <use id="arrowright" xlink:href="#arrowRight" x="0" y="0" onmousedown="handlePan(1,0)"/>
  <use id="arrowdown" xlink:href="#arrowDown" x="0" y="0" onmousedown="handlePan(0,1)"/>
  <use id="arrowleft" xlink:href="#arrowLeft" x="0" y="0" onmousedown="handlePan(-1,0)"/>
</g>
<svg viewBox="0 0 15 15" width="100%" height="30px" preserveAspectRatio="xMaxYMin meet">
 <g id="arrow_out" transform="scale(0.3 0.3)">
  <a xlink:href="classml_1_1maths_1_1time__series_1_1_c_time_series_segmentation_af50a1c6e2646a25767eecbfd9605a5e6_cgraph_org.svg" target="_base">
   <rect id="button" ry="5" rx="5" y="6" x="6" height="38" width="38"
        fill="#f2f5e9" fill-opacity="0.5" stroke="#606060" stroke-width="1.0"/>
   <path id="arrow"
     d="M 11.500037,31.436501 C 11.940474,20.09759 22.043105,11.32322 32.158766,21.979434 L 37.068811,17.246167 C 37.068811,17.246167 37.088388,32 37.088388,32 L 22.160133,31.978069 C 22.160133,31.978069 26.997745,27.140456 26.997745,27.140456 C 18.528582,18.264221 13.291696,25.230495 11.500037,31.436501 z"
     style="fill:#404040;"/>
  </a>
 </g>
</svg>

<style type='text/css'>
<![CDATA[
[data-mouse-over-selected='false'] { opacity: 0.7; }
[data-mouse-over-selected='true']  { opacity: 1.0; }
]]>
</style>
<script type="application/ecmascript"><![CDATA[
document.addEventListener('DOMContentLoaded', (event) => {
  highlightEdges();
  highlightAdjacentNodes();
});
]]></script>
</svg>
