<?xml version="1.0" encoding="UTF-8" standalone="no"?>
<!DOCTYPE svg PUBLIC "-//W3C//DTD SVG 1.1//EN"
 "http://www.w3.org/Graphics/SVG/1.1/DTD/svg11.dtd">
<!-- Generated by graphviz version 10.0.1 (20240210.2158)
 -->
<!-- Title: ml::maths::time_series::CTimeSeriesSegmentation::minimumResidualVarianceSplit Pages: 1 -->
<svg width="723pt" height="322pt"
 viewBox="0.00 0.00 723.00 322.12" xmlns="http://www.w3.org/2000/svg" xmlns:xlink="http://www.w3.org/1999/xlink">
<g id="graph0" class="graph" transform="scale(1 1) rotate(0) translate(4 318.12)">
<title>ml::maths::time_series::CTimeSeriesSegmentation::minimumResidualVarianceSplit</title>
<!-- Node1 -->
<g id="Node000001" class="node">
<title>Node1</title>
<g id="a_Node000001"><a xlink:title=" ">
<polygon fill="#999999" stroke="#666666" points="157,-206.12 0,-206.12 0,-164.38 157,-164.38 157,-206.12"/>
<text text-anchor="start" x="8" y="-192.62" font-family="Helvetica,sans-Serif" font-size="10.00">ml::maths::time_series</text>
<text text-anchor="start" x="8" y="-181.38" font-family="Helvetica,sans-Serif" font-size="10.00">::CTimeSeriesSegmentation</text>
<text text-anchor="middle" x="78.5" y="-170.12" font-family="Helvetica,sans-Serif" font-size="10.00">::minimumResidualVarianceSplit</text>
</a>
</g>
</g>
<!-- Node2 -->
<g id="Node000002" class="node">
<title>Node2</title>
<g id="a_Node000002"><a xlink:href="../../dc/dbb/structml_1_1maths_1_1common_1_1_c_basic_statistics_1_1_s_sample_central_moments.html#acc61d392a0de1c035fe149a84fd252ca" target="_top" xlink:title="Update the moments with the collection x.">
<polygon fill="white" stroke="#666666" points="367.25,-314.12 200.5,-314.12 200.5,-272.38 367.25,-272.38 367.25,-314.12"/>
<text text-anchor="start" x="208.5" y="-300.62" font-family="Helvetica,sans-Serif" font-size="10.00">ml::maths::common::</text>
<text text-anchor="start" x="208.5" y="-289.38" font-family="Helvetica,sans-Serif" font-size="10.00">CBasicStatistics::SSampleCentral</text>
<text text-anchor="middle" x="283.88" y="-278.12" font-family="Helvetica,sans-Serif" font-size="10.00">Moments::add</text>
</a>
</g>
</g>
<!-- Node1&#45;&gt;Node2 -->
<g id="edge1_Node000001_Node000002" class="edge">
<title>Node1&#45;&gt;Node2</title>
<g id="a_edge1_Node000001_Node000002"><a xlink:title=" ">
<path fill="none" stroke="#63b8ff" d="M105.7,-206.41C127.89,-223.55 161.11,-247.37 193,-263.25 196.07,-264.78 199.23,-266.26 202.45,-267.68"/>
<polygon fill="#63b8ff" stroke="#63b8ff" points="200.93,-270.84 211.51,-271.47 203.63,-264.38 200.93,-270.84"/>
</a>
</g>
</g>
<!-- Node3 -->
<g id="Node000003" class="node">
<title>Node3</title>
<g id="a_Node000003"><a xlink:href="../../d4/d55/classml_1_1maths_1_1common_1_1_c_basic_statistics.html#a6a8651e3b13d0aaa6577af10dfdd97f7" target="_top" xlink:title="Extract the count from an accumulator object.">
<polygon fill="white" stroke="#666666" points="343.62,-254.5 224.12,-254.5 224.12,-224 343.62,-224 343.62,-254.5"/>
<text text-anchor="start" x="232.12" y="-241" font-family="Helvetica,sans-Serif" font-size="10.00">ml::maths::common::</text>
<text text-anchor="middle" x="283.88" y="-229.75" font-family="Helvetica,sans-Serif" font-size="10.00">CBasicStatistics::count</text>
</a>
</g>
</g>
<!-- Node1&#45;&gt;Node3 -->
<g id="edge2_Node000001_Node000003" class="edge">
<title>Node1&#45;&gt;Node3</title>
<g id="a_edge2_Node000001_Node000003"><a xlink:title=" ">
<path fill="none" stroke="#63b8ff" d="M157.26,-205.9C175.55,-210.75 194.94,-215.9 212.87,-220.66"/>
<polygon fill="#63b8ff" stroke="#63b8ff" points="211.8,-224 222.36,-223.18 213.59,-217.23 211.8,-224"/>
</a>
</g>
</g>
<!-- Node4 -->
<g id="Node000004" class="node">
<title>Node4</title>
<g id="a_Node000004"><a xlink:href="../../d4/d55/classml_1_1maths_1_1common_1_1_c_basic_statistics.html#a45b74921f0f00f81037a3dbfc16c75eb" target="_top" xlink:title=" ">
<polygon fill="white" stroke="#666666" points="374.75,-206.12 193,-206.12 193,-164.38 374.75,-164.38 374.75,-206.12"/>
<text text-anchor="start" x="201" y="-192.62" font-family="Helvetica,sans-Serif" font-size="10.00">ml::maths::common::</text>
<text text-anchor="start" x="201" y="-181.38" font-family="Helvetica,sans-Serif" font-size="10.00">CBasicStatistics::maximumLikelihood</text>
<text text-anchor="middle" x="283.88" y="-170.12" font-family="Helvetica,sans-Serif" font-size="10.00">Variance</text>
</a>
</g>
</g>
<!-- Node1&#45;&gt;Node4 -->
<g id="edge3_Node000001_Node000004" class="edge">
<title>Node1&#45;&gt;Node4</title>
<g id="a_edge3_Node000001_Node000004"><a xlink:title=" ">
<path fill="none" stroke="#63b8ff" d="M157.26,-185.25C165.11,-185.25 173.16,-185.25 181.21,-185.25"/>
<polygon fill="#63b8ff" stroke="#63b8ff" points="181.06,-188.75 191.06,-185.25 181.06,-181.75 181.06,-188.75"/>
</a>
</g>
</g>
<!-- Node5 -->
<g id="Node000005" class="node">
<title>Node5</title>
<g id="a_Node000005"><a xlink:href="../../d4/d55/classml_1_1maths_1_1common_1_1_c_basic_statistics.html#a9a136b1823e9938247cd29bb0ffea440" target="_top" xlink:title="Compute the mean of a pair.">
<polygon fill="white" stroke="#666666" points="343.62,-146.5 224.12,-146.5 224.12,-116 343.62,-116 343.62,-146.5"/>
<text text-anchor="start" x="232.12" y="-133" font-family="Helvetica,sans-Serif" font-size="10.00">ml::maths::common::</text>
<text text-anchor="middle" x="283.88" y="-121.75" font-family="Helvetica,sans-Serif" font-size="10.00">CBasicStatistics::mean</text>
</a>
</g>
</g>
<!-- Node1&#45;&gt;Node5 -->
<g id="edge4_Node000001_Node000005" class="edge">
<title>Node1&#45;&gt;Node5</title>
<g id="a_edge4_Node000001_Node000005"><a xlink:title=" ">
<path fill="none" stroke="#63b8ff" d="M157.26,-164.6C175.55,-159.75 194.94,-154.6 212.87,-149.84"/>
<polygon fill="#63b8ff" stroke="#63b8ff" points="213.59,-153.27 222.36,-147.32 211.8,-146.5 213.59,-153.27"/>
</a>
</g>
</g>
<!-- Node6 -->
<g id="Node000006" class="node">
<title>Node6</title>
<g id="a_Node000006"><a xlink:href="../../d6/dd5/namespaceml_1_1maths_1_1common.html#a37f8b7909e617ad623600aead4cfc868" target="_top" xlink:title="Compute the distribution mean.">
<polygon fill="white" stroke="#666666" points="350.38,-97.88 217.38,-97.88 217.38,-78.62 350.38,-78.62 350.38,-97.88"/>
<text text-anchor="middle" x="283.88" y="-84.38" font-family="Helvetica,sans-Serif" font-size="10.00">ml::maths::common::mean</text>
</a>
</g>
</g>
<!-- Node1&#45;&gt;Node6 -->
<g id="edge5_Node000001_Node000006" class="edge">
<title>Node1&#45;&gt;Node6</title>
<g id="a_edge5_Node000001_Node000006"><a xlink:title=" ">
<path fill="none" stroke="#63b8ff" d="M103.94,-164.18C125.85,-146.39 159.6,-121.58 193,-107.25 197.96,-105.12 203.18,-103.22 208.5,-101.53"/>
<polygon fill="#63b8ff" stroke="#63b8ff" points="209.44,-104.91 218.07,-98.77 207.49,-98.18 209.44,-104.91"/>
</a>
</g>
</g>
<!-- Node7 -->
<g id="Node000007" class="node">
<title>Node7</title>
<g id="a_Node000007"><a xlink:href="../../d6/dd5/namespaceml_1_1maths_1_1common.html#aa139fb07823365e51bd2f01178d7a61a" target="_top" xlink:title="Compute the mode for distribution.">
<polygon fill="white" stroke="#666666" points="543.75,-97.88 410.75,-97.88 410.75,-78.62 543.75,-78.62 543.75,-97.88"/>
<text text-anchor="middle" x="477.25" y="-84.38" font-family="Helvetica,sans-Serif" font-size="10.00">ml::maths::common::mode</text>
</a>
</g>
</g>
<!-- Node6&#45;&gt;Node7 -->
<g id="edge6_Node000006_Node000007" class="edge">
<title>Node6&#45;&gt;Node7</title>
<g id="a_edge6_Node000006_Node000007"><a xlink:title=" ">
<path fill="none" stroke="#63b8ff" d="M350.74,-88.25C366.22,-88.25 382.87,-88.25 398.81,-88.25"/>
<polygon fill="#63b8ff" stroke="#63b8ff" points="398.75,-91.75 408.75,-88.25 398.75,-84.75 398.75,-91.75"/>
</a>
</g>
</g>
<!-- Node8 -->
<g id="Node000008" class="node">
<title>Node8</title>
<g id="a_Node000008"><a xlink:href="../../d0/d1c/classml_1_1maths_1_1common_1_1_c_log_t_distribution.html#a128ce0a627956e7931be0358fe995d2d" target="_top" xlink:title=" ">
<polygon fill="white" stroke="#666666" points="715,-188.12 579.75,-188.12 579.75,-146.38 715,-146.38 715,-188.12"/>
<text text-anchor="start" x="587.75" y="-174.62" font-family="Helvetica,sans-Serif" font-size="10.00">ml::maths::common::</text>
<text text-anchor="start" x="587.75" y="-163.38" font-family="Helvetica,sans-Serif" font-size="10.00">CLogTDistribution::degrees</text>
<text text-anchor="middle" x="647.38" y="-152.12" font-family="Helvetica,sans-Serif" font-size="10.00">Freedom</text>
</a>
</g>
</g>
<!-- Node7&#45;&gt;Node8 -->
<g id="edge7_Node000007_Node000008" class="edge">
<title>Node7&#45;&gt;Node8</title>
<g id="a_edge7_Node000007_Node000008"><a xlink:title=" ">
<path fill="none" stroke="#63b8ff" d="M498.78,-98.36C519.23,-108.38 551.55,-124.1 579.75,-137.25 582.51,-138.54 585.34,-139.85 588.2,-141.16"/>
<polygon fill="#63b8ff" stroke="#63b8ff" points="586.7,-144.33 597.25,-145.31 589.62,-137.96 586.7,-144.33"/>
</a>
</g>
</g>
<!-- Node9 -->
<g id="Node000009" class="node">
<title>Node9</title>
<g id="a_Node000009"><a xlink:href="../../d0/d1c/classml_1_1maths_1_1common_1_1_c_log_t_distribution.html#a4267908e2f6c547fd21f75a77f6bee78" target="_top" xlink:title=" ">
<polygon fill="white" stroke="#666666" points="714.62,-128.5 580.12,-128.5 580.12,-98 714.62,-98 714.62,-128.5"/>
<text text-anchor="start" x="588.12" y="-115" font-family="Helvetica,sans-Serif" font-size="10.00">ml::maths::common::</text>
<text text-anchor="middle" x="647.38" y="-103.75" font-family="Helvetica,sans-Serif" font-size="10.00">CLogTDistribution::location</text>
</a>
</g>
</g>
<!-- Node7&#45;&gt;Node9 -->
<g id="edge8_Node000007_Node000009" class="edge">
<title>Node7&#45;&gt;Node9</title>
<g id="a_edge8_Node000007_Node000009"><a xlink:title=" ">
<path fill="none" stroke="#63b8ff" d="M544.21,-98.06C552.16,-99.24 560.32,-100.45 568.41,-101.66"/>
<polygon fill="#63b8ff" stroke="#63b8ff" points="567.87,-105.11 578.27,-103.12 568.9,-98.19 567.87,-105.11"/>
</a>
</g>
</g>
<!-- Node10 -->
<g id="Node000010" class="node">
<title>Node10</title>
<g id="a_Node000010"><a xlink:href="../../dd/d55/classml_1_1maths_1_1common_1_1_c_tools.html#aa0600053da91719428498ec9968916c3" target="_top" xlink:title="Compute .">
<polygon fill="white" stroke="#666666" points="701.88,-79.5 592.88,-79.5 592.88,-49 701.88,-49 701.88,-79.5"/>
<text text-anchor="start" x="600.88" y="-66" font-family="Helvetica,sans-Serif" font-size="10.00">ml::maths::common::</text>
<text text-anchor="middle" x="647.38" y="-54.75" font-family="Helvetica,sans-Serif" font-size="10.00">CTools::pow2</text>
</a>
</g>
</g>
<!-- Node7&#45;&gt;Node10 -->
<g id="edge9_Node000007_Node000010" class="edge">
<title>Node7&#45;&gt;Node10</title>
<g id="a_edge9_Node000007_Node000010"><a xlink:title=" ">
<path fill="none" stroke="#63b8ff" d="M544.21,-78.83C556.47,-77.08 569.26,-75.26 581.49,-73.51"/>
<polygon fill="#63b8ff" stroke="#63b8ff" points="581.62,-77.03 591.02,-72.15 580.63,-70.1 581.62,-77.03"/>
</a>
</g>
</g>
<!-- Node11 -->
<g id="Node000011" class="node">
<title>Node11</title>
<g id="a_Node000011"><a xlink:href="../../d0/d1c/classml_1_1maths_1_1common_1_1_c_log_t_distribution.html#a8f03f27080a2f59d3da535b4b4f228ef" target="_top" xlink:title=" ">
<polygon fill="white" stroke="#666666" points="709.38,-30.5 585.38,-30.5 585.38,0 709.38,0 709.38,-30.5"/>
<text text-anchor="start" x="593.38" y="-17" font-family="Helvetica,sans-Serif" font-size="10.00">ml::maths::common::</text>
<text text-anchor="middle" x="647.38" y="-5.75" font-family="Helvetica,sans-Serif" font-size="10.00">CLogTDistribution::scale</text>
</a>
</g>
</g>
<!-- Node7&#45;&gt;Node11 -->
<g id="edge10_Node000007_Node000011" class="edge">
<title>Node7&#45;&gt;Node11</title>
<g id="a_edge10_Node000007_Node000011"><a xlink:title=" ">
<path fill="none" stroke="#63b8ff" d="M498.25,-78.19C518.56,-68.12 551.03,-52.41 579.75,-40.25 583.86,-38.51 588.13,-36.77 592.44,-35.05"/>
<polygon fill="#63b8ff" stroke="#63b8ff" points="593.71,-38.32 601.75,-31.42 591.16,-31.79 593.71,-38.32"/>
</a>
</g>
</g>
</g>
</svg>
