<?xml version="1.0" encoding="UTF-8" standalone="no"?>
<!DOCTYPE svg PUBLIC "-//W3C//DTD SVG 1.1//EN"
 "http://www.w3.org/Graphics/SVG/1.1/DTD/svg11.dtd">
<!-- Generated by graphviz version 10.0.1 (20240210.2158)
 -->
<!-- Title: ml::model::CPopulationModel::attributeFirstBucketTimes Pages: 1 -->
<!--zoomable 302 -->

<svg id="main" version="1.1" xmlns="http://www.w3.org/2000/svg" xmlns:xlink="http://www.w3.org/1999/xlink" xml:space="preserve" onload="init(evt)">
<style type="text/css"><![CDATA[
.node, .edge {opacity: 0.7;}
.node.selected, .edge.selected {opacity: 1;}
.edge:hover path { stroke: red; }
.edge:hover polygon { stroke: red; fill: red; }
]]></style>

<defs>
  <circle id="rim" cx="0" cy="0" r="7"/>
  <circle id="rim2" cx="0" cy="0" r="3.5"/>
  <g id="zoomPlus">
    <use xlink:href="#rim" fill="#404040"><set attributeName="fill" to="#808080" begin="zoomplus.mouseover" end="zoomplus.mouseout"/></use>
    <path d="M-4,0h8M0,-4v8" fill="none" stroke="white" stroke-width="1.5" pointer-events="none"/>
  </g>
  <g id="zoomMin">
    <use xlink:href="#rim" fill="#404040"><set attributeName="fill" to="#808080" begin="zoomminus.mouseover" end="zoomminus.mouseout"/></use>
    <path d="M-4,0h8" fill="none" stroke="white" stroke-width="1.5" pointer-events="none"/>
  </g>
  <g id="arrowUp" transform="translate(30 24)">
    <use xlink:href="#rim"/>
    <path pointer-events="none" fill="none" stroke="white" stroke-width="1.5" d="M0,-3.0v7 M-2.5,-0.5L0,-3.0L2.5,-0.5"/>
  </g>
  <g id="arrowRight" transform="rotate(90) translate(36 -43)">
    <use xlink:href="#rim"/>
    <path pointer-events="none" fill="none" stroke="white" stroke-width="1.5" d="M0,-3.0v7 M-2.5,-0.5L0,-3.0L2.5,-0.5"/>
  </g>
  <g id="arrowDown" transform="rotate(180) translate(-30 -48)">
    <use xlink:href="#rim"/>
    <path pointer-events="none" fill="none" stroke="white" stroke-width="1.5" d="M0,-3.0v7 M-2.5,-0.5L0,-3.0L2.5,-0.5"/>
  </g>
  <g id="arrowLeft" transform="rotate(270) translate(-36 17)">
    <use xlink:href="#rim"/>
    <path pointer-events="none" fill="none" stroke="white" stroke-width="1.5" d="M0,-3.0v7 M-2.5,-0.5L0,-3.0L2.5,-0.5"/>
  </g>
  <g id="resetDef">
    <use xlink:href="#rim2" fill="#404040"><set attributeName="fill" to="#808080" begin="reset.mouseover" end="reset.mouseout"/></use>
  </g>
</defs>
<script type="application/ecmascript">
var viewWidth = 562;
var viewHeight = 302;
var sectionId = 'dynsection-5';
</script>
<script type="application/ecmascript" xlink:href="../../svg.min.js"/>
<svg id="graph" class="graph">
<g id="viewport">
<title>ml::model::CPopulationModel::attributeFirstBucketTimes</title>
<!-- Node1 -->
<g id="Node000001" class="node">
<title>Node1</title>
<g id="a_Node000001"><a xlink:title="Get the first time each attribute was seen.">
<polygon fill="#999999" stroke="#666666" points="554.25,-170.5 410,-170.5 410,-140 554.25,-140 554.25,-170.5"/>
<text text-anchor="start" x="418" y="-157" font-family="Helvetica,sans-Serif" font-size="10.00">ml::model::CPopulationModel</text>
<text text-anchor="middle" x="482.12" y="-145.75" font-family="Helvetica,sans-Serif" font-size="10.00">::attributeFirstBucketTimes</text>
</a>
</g>
</g>
<!-- Node2 -->
<g id="Node000002" class="node">
<title>Node2</title>
<g id="a_Node000002"><a xlink:href="../../d1/db3/classml_1_1model_1_1_c_event_rate_population_model_details_view.html#a9184b0710b683f5dd45e62d4a7995029" target="_top" xlink:title="Get the time interval from the first to last data point of byFieldId.">
<polygon fill="white" stroke="#666666" points="374,-293.5 200.5,-293.5 200.5,-263 374,-263 374,-293.5"/>
<text text-anchor="start" x="208.5" y="-280" font-family="Helvetica,sans-Serif" font-size="10.00">ml::model::CEventRatePopulation</text>
<text text-anchor="middle" x="287.25" y="-268.75" font-family="Helvetica,sans-Serif" font-size="10.00">ModelDetailsView::dataTimeInterval</text>
</a>
</g>
</g>
<!-- Node1&#45;&gt;Node2 -->
<g id="edge1_Node000001_Node000002" class="edge">
<title>Node1&#45;&gt;Node2</title>
<g id="a_edge1_Node000001_Node000002"><a xlink:title=" ">
<path fill="none" stroke="#63b8ff" d="M460.72,-179.41C440.74,-201.62 408.37,-233.92 374,-253.25 367.65,-256.82 360.74,-259.93 353.69,-262.61"/>
<polygon fill="#63b8ff" stroke="#63b8ff" points="463.26,-181.83 467.24,-172.01 458,-177.2 463.26,-181.83"/>
</a>
</g>
</g>
<!-- Node3 -->
<g id="Node000003" class="node">
<title>Node3</title>
<g id="a_Node000003"><a xlink:href="../../df/dd1/classml_1_1model_1_1_c_metric_population_model_details_view.html#a989169ca9259355496c96ad8f58acdcf" target="_top" xlink:title="Get the time interval from the first to last data point of byFieldId.">
<polygon fill="white" stroke="#666666" points="374,-244.5 200.5,-244.5 200.5,-214 374,-214 374,-244.5"/>
<text text-anchor="start" x="208.5" y="-231" font-family="Helvetica,sans-Serif" font-size="10.00">ml::model::CMetricPopulation</text>
<text text-anchor="middle" x="287.25" y="-219.75" font-family="Helvetica,sans-Serif" font-size="10.00">ModelDetailsView::dataTimeInterval</text>
</a>
</g>
</g>
<!-- Node1&#45;&gt;Node3 -->
<g id="edge2_Node000001_Node000003" class="edge">
<title>Node1&#45;&gt;Node3</title>
<g id="a_edge2_Node000001_Node000003"><a xlink:title=" ">
<path fill="none" stroke="#63b8ff" d="M440.07,-175.73C420.37,-185.11 396.26,-195.96 374,-204.25 365.13,-207.55 355.63,-210.7 346.28,-213.58"/>
<polygon fill="#63b8ff" stroke="#63b8ff" points="441.37,-178.99 448.86,-171.49 438.33,-172.68 441.37,-178.99"/>
</a>
</g>
</g>
<!-- Node4 -->
<g id="Node000004" class="node">
<title>Node4</title>
<g id="a_Node000004"><a xlink:href="../../d0/d77/classml_1_1model_1_1_c_event_rate_population_model.html#a3df1f489824a7a890c2c3a5742d444af" target="_top" xlink:title=" ">
<polygon fill="white" stroke="#666666" points="369.5,-195.5 205,-195.5 205,-165 369.5,-165 369.5,-195.5"/>
<text text-anchor="start" x="213" y="-182" font-family="Helvetica,sans-Serif" font-size="10.00">ml::model::CEventRatePopulation</text>
<text text-anchor="middle" x="287.25" y="-170.75" font-family="Helvetica,sans-Serif" font-size="10.00">Model::fill</text>
</a>
</g>
</g>
<!-- Node1&#45;&gt;Node4 -->
<g id="edge3_Node000001_Node000004" class="edge">
<title>Node1&#45;&gt;Node4</title>
<g id="a_edge3_Node000001_Node000004"><a xlink:title=" ">
<path fill="none" stroke="#63b8ff" d="M398.19,-166C388.77,-167.22 379.17,-168.47 369.76,-169.69"/>
<polygon fill="#63b8ff" stroke="#63b8ff" points="398.61,-169.47 408.08,-164.72 397.71,-162.53 398.61,-169.47"/>
</a>
</g>
</g>
<!-- Node6 -->
<g id="Node000006" class="node">
<title>Node6</title>
<g id="a_Node000006"><a xlink:href="../../d2/d49/classml_1_1model_1_1_c_metric_population_model.html#ad1b7111685b6d39fa4be3325acbde9e8" target="_top" xlink:title=" ">
<polygon fill="white" stroke="#666666" points="359.75,-146.5 214.75,-146.5 214.75,-116 359.75,-116 359.75,-146.5"/>
<text text-anchor="start" x="222.75" y="-133" font-family="Helvetica,sans-Serif" font-size="10.00">ml::model::CMetricPopulation</text>
<text text-anchor="middle" x="287.25" y="-121.75" font-family="Helvetica,sans-Serif" font-size="10.00">Model::fill</text>
</a>
</g>
</g>
<!-- Node1&#45;&gt;Node6 -->
<g id="edge5_Node000001_Node000006" class="edge">
<title>Node1&#45;&gt;Node6</title>
<g id="a_edge5_Node000001_Node000006"><a xlink:title=" ">
<path fill="none" stroke="#63b8ff" d="M398.45,-144.96C385.65,-143.37 372.53,-141.74 360,-140.18"/>
<polygon fill="#63b8ff" stroke="#63b8ff" points="397.72,-148.4 408.08,-146.16 398.59,-141.45 397.72,-148.4"/>
</a>
</g>
</g>
<!-- Node8 -->
<g id="Node000008" class="node">
<title>Node8</title>
<g id="a_Node000008"><a xlink:href="../../d0/d77/classml_1_1model_1_1_c_event_rate_population_model.html#a50dbd54cdd38c81eb0cef9cd44458c85" target="_top" xlink:title=" ">
<polygon fill="white" stroke="#666666" points="369.5,-97.5 205,-97.5 205,-67 369.5,-67 369.5,-97.5"/>
<text text-anchor="start" x="213" y="-84" font-family="Helvetica,sans-Serif" font-size="10.00">ml::model::CEventRatePopulation</text>
<text text-anchor="middle" x="287.25" y="-72.75" font-family="Helvetica,sans-Serif" font-size="10.00">Model::sample</text>
</a>
</g>
</g>
<!-- Node1&#45;&gt;Node8 -->
<g id="edge7_Node000001_Node000008" class="edge">
<title>Node1&#45;&gt;Node8</title>
<g id="a_edge7_Node000001_Node000008"><a xlink:title=" ">
<path fill="none" stroke="#63b8ff" d="M438.89,-134.71C419.39,-125.65 395.79,-115.26 374,-107.25 365.12,-103.98 355.61,-100.86 346.26,-97.98"/>
<polygon fill="#63b8ff" stroke="#63b8ff" points="437.35,-137.85 447.89,-138.94 440.33,-131.52 437.35,-137.85"/>
</a>
</g>
</g>
<!-- Node9 -->
<g id="Node000009" class="node">
<title>Node9</title>
<g id="a_Node000009"><a xlink:href="../../d2/d49/classml_1_1model_1_1_c_metric_population_model.html#aee59e116a3bb9c8d76bc359b9d7ab554" target="_top" xlink:title=" ">
<polygon fill="white" stroke="#666666" points="359.75,-30.5 214.75,-30.5 214.75,0 359.75,0 359.75,-30.5"/>
<text text-anchor="start" x="222.75" y="-17" font-family="Helvetica,sans-Serif" font-size="10.00">ml::model::CMetricPopulation</text>
<text text-anchor="middle" x="287.25" y="-5.75" font-family="Helvetica,sans-Serif" font-size="10.00">Model::sample</text>
</a>
</g>
</g>
<!-- Node1&#45;&gt;Node9 -->
<g id="edge8_Node000001_Node000009" class="edge">
<title>Node1&#45;&gt;Node9</title>
<g id="a_edge8_Node000001_Node000009"><a xlink:title=" ">
<path fill="none" stroke="#63b8ff" d="M458.76,-131.64C438.09,-110.67 405.84,-80.05 374,-58.25 358.75,-47.81 340.6,-38.34 324.94,-30.96"/>
<polygon fill="#63b8ff" stroke="#63b8ff" points="456.08,-133.9 465.56,-138.63 461.1,-129.02 456.08,-133.9"/>
</a>
</g>
</g>
<!-- Node5 -->
<g id="Node000005" class="node">
<title>Node5</title>
<g id="a_Node000005"><a xlink:href="../../d0/d77/classml_1_1model_1_1_c_event_rate_population_model.html#a1f6bcc812dfb5fd684f4a6ad6fb51947" target="_top" xlink:title=" ">
<polygon fill="white" stroke="#666666" points="164.5,-195.5 0,-195.5 0,-165 164.5,-165 164.5,-195.5"/>
<text text-anchor="start" x="8" y="-182" font-family="Helvetica,sans-Serif" font-size="10.00">ml::model::CEventRatePopulation</text>
<text text-anchor="middle" x="82.25" y="-170.75" font-family="Helvetica,sans-Serif" font-size="10.00">Model::computeProbability</text>
</a>
</g>
</g>
<!-- Node4&#45;&gt;Node5 -->
<g id="edge4_Node000004_Node000005" class="edge">
<title>Node4&#45;&gt;Node5</title>
<g id="a_edge4_Node000004_Node000005"><a xlink:title=" ">
<path fill="none" stroke="#63b8ff" d="M193.1,-180.25C183.64,-180.25 174.09,-180.25 164.77,-180.25"/>
<polygon fill="#63b8ff" stroke="#63b8ff" points="193.05,-183.75 203.05,-180.25 193.05,-176.75 193.05,-183.75"/>
</a>
</g>
</g>
<!-- Node7 -->
<g id="Node000007" class="node">
<title>Node7</title>
<g id="a_Node000007"><a xlink:href="../../d2/d49/classml_1_1model_1_1_c_metric_population_model.html#a29261a9ee0d70391b539f75c8320d008" target="_top" xlink:title=" ">
<polygon fill="white" stroke="#666666" points="154.75,-146.5 9.75,-146.5 9.75,-116 154.75,-116 154.75,-146.5"/>
<text text-anchor="start" x="17.75" y="-133" font-family="Helvetica,sans-Serif" font-size="10.00">ml::model::CMetricPopulation</text>
<text text-anchor="middle" x="82.25" y="-121.75" font-family="Helvetica,sans-Serif" font-size="10.00">Model::computeProbability</text>
</a>
</g>
</g>
<!-- Node6&#45;&gt;Node7 -->
<g id="edge6_Node000006_Node000007" class="edge">
<title>Node6&#45;&gt;Node7</title>
<g id="a_edge6_Node000006_Node000007"><a xlink:title=" ">
<path fill="none" stroke="#63b8ff" d="M202.94,-131.25C187.04,-131.25 170.52,-131.25 155.01,-131.25"/>
<polygon fill="#63b8ff" stroke="#63b8ff" points="202.88,-134.75 212.88,-131.25 202.88,-127.75 202.88,-134.75"/>
</a>
</g>
</g>
<!-- Node9&#45;&gt;Node9 -->
<g id="edge9_Node000009_Node000009" class="edge">
<title>Node9&#45;&gt;Node9</title>
<g id="a_edge9_Node000009_Node000009"><a xlink:title=" ">
<path fill="none" stroke="#63b8ff" d="M319.93,-42.2C314.59,-45.97 303.69,-48.5 287.25,-48.5 257.18,-48.5 245.67,-40.06 252.72,-30.99"/>
<polygon fill="#63b8ff" stroke="#63b8ff" points="323.36,-42.92 321.54,-32.48 316.45,-41.78 323.36,-42.92"/>
</a>
</g>
</g>
</g>
</svg>

<g id="navigator" transform="translate(0 0)" fill="#404254">
  <rect fill="#f2f5e9" fill-opacity="0.5" stroke="#606060" stroke-width=".5" x="0" y="0" width="60" height="60"/>
  <use id="zoomplus" xlink:href="#zoomPlus" x="17" y="9" onmousedown="handleZoom(evt,'in')"/>
  <use id="zoomminus" xlink:href="#zoomMin" x="42" y="9" onmousedown="handleZoom(evt,'out')"/>
  <use id="reset" xlink:href="#resetDef" x="30" y="36" onmousedown="handleReset()"/>
   <use id="arrowup" xlink:href="#arrowUp" x="0" y="0" onmousedown="handlePan(0,-1)"/>
  <use id="arrowright" xlink:href="#arrowRight" x="0" y="0" onmousedown="handlePan(1,0)"/>
  <use id="arrowdown" xlink:href="#arrowDown" x="0" y="0" onmousedown="handlePan(0,1)"/>
  <use id="arrowleft" xlink:href="#arrowLeft" x="0" y="0" onmousedown="handlePan(-1,0)"/>
</g>
<svg viewBox="0 0 15 15" width="100%" height="30px" preserveAspectRatio="xMaxYMin meet">
 <g id="arrow_out" transform="scale(0.3 0.3)">
  <a xlink:href="classml_1_1model_1_1_c_population_model_ada665beba75182a0478cc359a8ed3eb3_icgraph_org.svg" target="_base">
   <rect id="button" ry="5" rx="5" y="6" x="6" height="38" width="38"
        fill="#f2f5e9" fill-opacity="0.5" stroke="#606060" stroke-width="1.0"/>
   <path id="arrow"
     d="M 11.500037,31.436501 C 11.940474,20.09759 22.043105,11.32322 32.158766,21.979434 L 37.068811,17.246167 C 37.068811,17.246167 37.088388,32 37.088388,32 L 22.160133,31.978069 C 22.160133,31.978069 26.997745,27.140456 26.997745,27.140456 C 18.528582,18.264221 13.291696,25.230495 11.500037,31.436501 z"
     style="fill:#404040;"/>
  </a>
 </g>
</svg>

<style type='text/css'>
<![CDATA[
[data-mouse-over-selected='false'] { opacity: 0.7; }
[data-mouse-over-selected='true']  { opacity: 1.0; }
]]>
</style>
<script type="application/ecmascript"><![CDATA[
document.addEventListener('DOMContentLoaded', (event) => {
  highlightEdges();
  highlightAdjacentNodes();
});
]]></script>
</svg>
