<?xml version="1.0" encoding="UTF-8" standalone="no"?>
<!DOCTYPE svg PUBLIC "-//W3C//DTD SVG 1.1//EN"
 "http://www.w3.org/Graphics/SVG/1.1/DTD/svg11.dtd">
<!-- Generated by graphviz version 10.0.1 (20240210.2158)
 -->
<!-- Title: ml::model::CPopulationModel::checksum Pages: 1 -->
<svg width="488pt" height="109pt"
 viewBox="0.00 0.00 488.00 108.50" xmlns="http://www.w3.org/2000/svg" xmlns:xlink="http://www.w3.org/1999/xlink">
<g id="graph0" class="graph" transform="scale(1 1) rotate(0) translate(4 104.5)">
<title>ml::model::CPopulationModel::checksum</title>
<!-- Node1 -->
<g id="Node000001" class="node">
<title>Node1</title>
<g id="a_Node000001"><a xlink:title=" ">
<polygon fill="#999999" stroke="#666666" points="144.25,-79.5 0,-79.5 0,-49 144.25,-49 144.25,-79.5"/>
<text text-anchor="start" x="8" y="-66" font-family="Helvetica,sans-Serif" font-size="10.00">ml::model::CPopulationModel</text>
<text text-anchor="middle" x="72.12" y="-54.75" font-family="Helvetica,sans-Serif" font-size="10.00">::checksum</text>
</a>
</g>
</g>
<!-- Node2 -->
<g id="Node000002" class="node">
<title>Node2</title>
<g id="a_Node000002"><a xlink:href="../../d2/da4/classml_1_1maths_1_1common_1_1_c_checksum.html#aa804e3772700b00633dd3e0a996aa3ad" target="_top" xlink:title="The basic checksum implementation.">
<polygon fill="white" stroke="#666666" points="480,-100.5 364.25,-100.5 364.25,-70 480,-70 480,-100.5"/>
<text text-anchor="start" x="372.25" y="-87" font-family="Helvetica,sans-Serif" font-size="10.00">ml::maths::common::</text>
<text text-anchor="middle" x="422.12" y="-75.75" font-family="Helvetica,sans-Serif" font-size="10.00">CChecksum::calculate</text>
</a>
</g>
</g>
<!-- Node1&#45;&gt;Node2 -->
<g id="edge1_Node000001_Node000002" class="edge">
<title>Node1&#45;&gt;Node2</title>
<g id="a_edge1_Node000001_Node000002"><a xlink:title=" ">
<path fill="none" stroke="#63b8ff" d="M132.51,-80C147.94,-83.41 164.62,-86.52 180.25,-88.25 245.63,-95.48 262.48,-89.31 328.25,-88.25 336.23,-88.12 344.6,-87.93 352.91,-87.71"/>
<polygon fill="#63b8ff" stroke="#63b8ff" points="352.75,-91.21 362.64,-87.42 352.55,-84.21 352.75,-91.21"/>
</a>
</g>
</g>
<!-- Node3 -->
<g id="Node000003" class="node">
<title>Node3</title>
<g id="a_Node000003"><a xlink:href="../../da/d88/classml_1_1model_1_1_c_anomaly_detector_model.html#ade34104e77639b03a902f77f981edcea" target="_top" xlink:title=" ">
<polygon fill="white" stroke="#666666" points="328.25,-79.5 180.25,-79.5 180.25,-49 328.25,-49 328.25,-79.5"/>
<text text-anchor="start" x="188.25" y="-66" font-family="Helvetica,sans-Serif" font-size="10.00">ml::model::CAnomalyDetector</text>
<text text-anchor="middle" x="254.25" y="-54.75" font-family="Helvetica,sans-Serif" font-size="10.00">Model::checksum</text>
</a>
</g>
</g>
<!-- Node1&#45;&gt;Node3 -->
<g id="edge2_Node000001_Node000003" class="edge">
<title>Node1&#45;&gt;Node3</title>
<g id="a_edge2_Node000001_Node000003"><a xlink:title=" ">
<path fill="none" stroke="#63b8ff" d="M144.57,-64.25C152.45,-64.25 160.53,-64.25 168.55,-64.25"/>
<polygon fill="#63b8ff" stroke="#63b8ff" points="168.31,-67.75 178.31,-64.25 168.31,-60.75 168.31,-67.75"/>
</a>
</g>
</g>
<!-- Node4 -->
<g id="Node000004" class="node">
<title>Node4</title>
<g id="a_Node000004"><a xlink:href="../../da/d88/classml_1_1model_1_1_c_anomaly_detector_model.html#a8156c7269ff8ea6a19dfeef12c5a1bb1" target="_top" xlink:title="Get the time series data gatherer.">
<polygon fill="white" stroke="#666666" points="328.25,-30.5 180.25,-30.5 180.25,0 328.25,0 328.25,-30.5"/>
<text text-anchor="start" x="188.25" y="-17" font-family="Helvetica,sans-Serif" font-size="10.00">ml::model::CAnomalyDetector</text>
<text text-anchor="middle" x="254.25" y="-5.75" font-family="Helvetica,sans-Serif" font-size="10.00">Model::dataGatherer</text>
</a>
</g>
</g>
<!-- Node1&#45;&gt;Node4 -->
<g id="edge4_Node000001_Node000004" class="edge">
<title>Node1&#45;&gt;Node4</title>
<g id="a_edge4_Node000001_Node000004"><a xlink:title=" ">
<path fill="none" stroke="#63b8ff" d="M130.61,-48.61C147.75,-43.95 166.71,-38.79 184.49,-33.96"/>
<polygon fill="#63b8ff" stroke="#63b8ff" points="185.19,-37.39 193.92,-31.39 183.35,-30.64 185.19,-37.39"/>
</a>
</g>
</g>
<!-- Node3&#45;&gt;Node2 -->
<g id="edge3_Node000003_Node000002" class="edge">
<title>Node3&#45;&gt;Node2</title>
<g id="a_edge3_Node000003_Node000002"><a xlink:title=" ">
<path fill="none" stroke="#63b8ff" d="M328.49,-73.52C336.63,-74.55 344.9,-75.6 352.97,-76.62"/>
<polygon fill="#63b8ff" stroke="#63b8ff" points="352.36,-80.07 362.72,-77.86 353.24,-73.13 352.36,-80.07"/>
</a>
</g>
</g>
</g>
</svg>
