<?xml version="1.0" encoding="UTF-8" standalone="no"?>
<!DOCTYPE svg PUBLIC "-//W3C//DTD SVG 1.1//EN"
 "http://www.w3.org/Graphics/SVG/1.1/DTD/svg11.dtd">
<!-- Generated by graphviz version 10.0.1 (20240210.2158)
 -->
<!-- Title: ml::model::CModelFactory::defaultInfluenceCalculators Pages: 1 -->
<svg width="341pt" height="162pt"
 viewBox="0.00 0.00 340.75 161.50" xmlns="http://www.w3.org/2000/svg" xmlns:xlink="http://www.w3.org/1999/xlink">
<g id="graph0" class="graph" transform="scale(1 1) rotate(0) translate(4 157.5)">
<title>ml::model::CModelFactory::defaultInfluenceCalculators</title>
<!-- Node1 -->
<g id="Node000001" class="node">
<title>Node1</title>
<g id="a_Node000001"><a xlink:title="Get the influence calculators to use for each feature in features.">
<polygon fill="#999999" stroke="#666666" points="140.5,-91.5 0,-91.5 0,-61 140.5,-61 140.5,-91.5"/>
<text text-anchor="start" x="8" y="-78" font-family="Helvetica,sans-Serif" font-size="10.00">ml::model::CModelFactory</text>
<text text-anchor="middle" x="70.25" y="-66.75" font-family="Helvetica,sans-Serif" font-size="10.00">::defaultInfluenceCalculators</text>
</a>
</g>
</g>
<!-- Node2 -->
<g id="Node000002" class="node">
<title>Node2</title>
<g id="a_Node000002"><a xlink:href="../../da/d0d/classml_1_1model_1_1_c_model_factory.html#af1c2cf6bb7da8eef74e563062aa0f49b" target="_top" xlink:title="Set the features which will be modeled.">
<polygon fill="white" stroke="#666666" points="320.38,-153.5 188.88,-153.5 188.88,-123 320.38,-123 320.38,-153.5"/>
<text text-anchor="start" x="196.88" y="-140" font-family="Helvetica,sans-Serif" font-size="10.00">ml::model::CModelFactory</text>
<text text-anchor="middle" x="254.62" y="-128.75" font-family="Helvetica,sans-Serif" font-size="10.00">::features</text>
</a>
</g>
</g>
<!-- Node1&#45;&gt;Node2 -->
<g id="edge1_Node000001_Node000002" class="edge">
<title>Node1&#45;&gt;Node2</title>
<g id="a_edge1_Node000001_Node000002"><a xlink:title=" ">
<path fill="none" stroke="#63b8ff" d="M113.35,-91.94C132.54,-98.96 155.6,-107.23 176.5,-114.25 181.26,-115.85 186.21,-117.47 191.18,-119.08"/>
<polygon fill="#63b8ff" stroke="#63b8ff" points="190.05,-122.39 200.64,-122.1 192.18,-115.72 190.05,-122.39"/>
</a>
</g>
</g>
<!-- Node3 -->
<g id="Node000003" class="node">
<title>Node3</title>
<g id="a_Node000003"><a xlink:href="../../df/d9c/namespaceml_1_1model__t.html#ae18999793583b551943e533eb0a947ba" target="_top" xlink:title="Get the influence calculator for feature.">
<polygon fill="white" stroke="#666666" points="332.75,-104.88 176.5,-104.88 176.5,-85.62 332.75,-85.62 332.75,-104.88"/>
<text text-anchor="middle" x="254.62" y="-91.38" font-family="Helvetica,sans-Serif" font-size="10.00">ml::model_t::influenceCalculator</text>
</a>
</g>
</g>
<!-- Node1&#45;&gt;Node3 -->
<g id="edge2_Node000001_Node000003" class="edge">
<title>Node1&#45;&gt;Node3</title>
<g id="a_edge2_Node000001_Node000003"><a xlink:title=" ">
<path fill="none" stroke="#63b8ff" d="M140.98,-83.51C148.77,-84.33 156.78,-85.16 164.77,-85.99"/>
<polygon fill="#63b8ff" stroke="#63b8ff" points="164.21,-89.45 174.52,-87.01 164.94,-82.49 164.21,-89.45"/>
</a>
</g>
</g>
<!-- Node4 -->
<g id="Node000004" class="node">
<title>Node4</title>
<g id="a_Node000004"><a xlink:href="../../df/d9c/namespaceml_1_1model__t.html#a5cb06e59ebd2f51812cfd4357eeda4eb" target="_top" xlink:title=" ">
<polygon fill="white" stroke="#666666" points="319.62,-67.88 189.62,-67.88 189.62,-48.62 319.62,-48.62 319.62,-67.88"/>
<text text-anchor="middle" x="254.62" y="-54.38" font-family="Helvetica,sans-Serif" font-size="10.00">ml::model_t::isCategorical</text>
</a>
</g>
</g>
<!-- Node1&#45;&gt;Node4 -->
<g id="edge3_Node000001_Node000004" class="edge">
<title>Node1&#45;&gt;Node4</title>
<g id="a_edge3_Node000001_Node000004"><a xlink:title=" ">
<path fill="none" stroke="#63b8ff" d="M140.98,-69.37C153.14,-68.17 165.85,-66.91 178.16,-65.7"/>
<polygon fill="#63b8ff" stroke="#63b8ff" points="178.21,-69.21 187.82,-64.74 177.52,-62.24 178.21,-69.21"/>
</a>
</g>
</g>
<!-- Node5 -->
<g id="Node000005" class="node">
<title>Node5</title>
<g id="a_Node000005"><a xlink:href="../../da/d0d/classml_1_1model_1_1_c_model_factory.html#aff02396554ebf83c020f27bad1ec634d" target="_top" xlink:title="Get the field values which partition the data for modeling.">
<polygon fill="white" stroke="#666666" points="320.38,-30.5 188.88,-30.5 188.88,0 320.38,0 320.38,-30.5"/>
<text text-anchor="start" x="196.88" y="-17" font-family="Helvetica,sans-Serif" font-size="10.00">ml::model::CModelFactory</text>
<text text-anchor="middle" x="254.62" y="-5.75" font-family="Helvetica,sans-Serif" font-size="10.00">::partitioningFields</text>
</a>
</g>
</g>
<!-- Node1&#45;&gt;Node5 -->
<g id="edge4_Node000001_Node000005" class="edge">
<title>Node1&#45;&gt;Node5</title>
<g id="a_edge4_Node000001_Node000005"><a xlink:title=" ">
<path fill="none" stroke="#63b8ff" d="M114.91,-60.5C133.8,-53.79 156.18,-45.98 176.5,-39.25 181.27,-37.67 186.22,-36.06 191.2,-34.46"/>
<polygon fill="#63b8ff" stroke="#63b8ff" points="192.19,-37.82 200.66,-31.46 190.07,-31.15 192.19,-37.82"/>
</a>
</g>
</g>
</g>
</svg>
