<?xml version="1.0" encoding="UTF-8" standalone="no"?>
<!DOCTYPE svg PUBLIC "-//W3C//DTD SVG 1.1//EN"
 "http://www.w3.org/Graphics/SVG/1.1/DTD/svg11.dtd">
<!-- Generated by graphviz version 10.0.1 (20240210.2158)
 -->
<!-- Title: ml::maths::time_series::CSeasonalComponent::acceptPersistInserter Pages: 1 -->
<svg width="1422pt" height="466pt"
 viewBox="0.00 0.00 1421.50 465.52" xmlns="http://www.w3.org/2000/svg" xmlns:xlink="http://www.w3.org/1999/xlink">
<g id="graph0" class="graph" transform="scale(1 1) rotate(0) translate(4 461.52)">
<title>ml::maths::time_series::CSeasonalComponent::acceptPersistInserter</title>
<!-- Node1 -->
<g id="Node000001" class="node">
<title>Node1</title>
<g id="a_Node000001"><a xlink:title="Persist state by passing information to inserter.">
<polygon fill="#999999" stroke="#666666" points="126.25,-270.48 0,-270.48 0,-228.73 126.25,-228.73 126.25,-270.48"/>
<text text-anchor="start" x="8" y="-256.98" font-family="Helvetica,sans-Serif" font-size="10.00">ml::maths::time_series</text>
<text text-anchor="start" x="8" y="-245.73" font-family="Helvetica,sans-Serif" font-size="10.00">::CSeasonalComponent::</text>
<text text-anchor="middle" x="63.12" y="-234.48" font-family="Helvetica,sans-Serif" font-size="10.00">acceptPersistInserter</text>
</a>
</g>
</g>
<!-- Node2 -->
<g id="Node000002" class="node">
<title>Node2</title>
<g id="a_Node000002"><a xlink:href="../../d3/dc9/classml_1_1maths_1_1time__series_1_1_c_decomposition_component.html#a96c332a26092fad4b7677a2793c1be57" target="_top" xlink:title="Persist state by passing information to inserter.">
<polygon fill="white" stroke="#666666" points="314,-355.48 169,-355.48 169,-313.73 314,-313.73 314,-355.48"/>
<text text-anchor="start" x="177" y="-341.98" font-family="Helvetica,sans-Serif" font-size="10.00">ml::maths::time_series</text>
<text text-anchor="start" x="177" y="-330.73" font-family="Helvetica,sans-Serif" font-size="10.00">::CDecompositionComponent</text>
<text text-anchor="middle" x="241.5" y="-319.48" font-family="Helvetica,sans-Serif" font-size="10.00">::acceptPersistInserter</text>
</a>
</g>
</g>
<!-- Node1&#45;&gt;Node2 -->
<g id="edge1_Node000001_Node000002" class="edge">
<title>Node1&#45;&gt;Node2</title>
<g id="a_edge1_Node000001_Node000002"><a xlink:title=" ">
<path fill="none" stroke="#63b8ff" d="M107.05,-270.76C124.2,-279.17 144.13,-288.9 162.25,-297.61 169.61,-301.15 177.36,-304.85 185.02,-308.49"/>
<polygon fill="#63b8ff" stroke="#63b8ff" points="183.45,-311.61 193.98,-312.74 186.45,-305.29 183.45,-311.61"/>
</a>
</g>
</g>
<!-- Node6 -->
<g id="Node000006" class="node">
<title>Node6</title>
<g id="a_Node000006"><a xlink:href="../../d6/d96/classml_1_1core_1_1_c_state_persist_inserter.html#a21319d2ecfcb0ab1aceecf2a5a463d3a" target="_top" xlink:title="Store a name/value.">
<polygon fill="white" stroke="#666666" points="938,-278.86 786.25,-278.86 786.25,-248.36 938,-248.36 938,-278.86"/>
<text text-anchor="start" x="794.25" y="-265.36" font-family="Helvetica,sans-Serif" font-size="10.00">ml::core::CStatePersistInserter</text>
<text text-anchor="middle" x="862.12" y="-254.11" font-family="Helvetica,sans-Serif" font-size="10.00">::insertValue</text>
</a>
</g>
</g>
<!-- Node1&#45;&gt;Node6 -->
<g id="edge26_Node000001_Node000006" class="edge">
<title>Node1&#45;&gt;Node6</title>
<g id="a_edge26_Node000001_Node000006"><a xlink:title=" ">
<path fill="none" stroke="#63b8ff" d="M76.14,-270.6C92.28,-296.8 123.44,-341.04 162.25,-364.61 238.08,-410.67 268.59,-399.54 356.75,-409.61 526.87,-429.03 600.93,-506.64 742,-409.61 778.86,-384.26 749.57,-350.15 778,-315.61 788.19,-303.24 802.12,-292.93 815.67,-284.85"/>
<polygon fill="#63b8ff" stroke="#63b8ff" points="817.1,-288.06 824.1,-280.1 813.67,-281.96 817.1,-288.06"/>
</a>
</g>
</g>
<!-- Node8 -->
<g id="Node000008" class="node">
<title>Node8</title>
<g id="a_Node000008"><a xlink:href="../../d6/d96/classml_1_1core_1_1_c_state_persist_inserter.html#a599589fbf44e55664572fd485a2ac497" target="_top" xlink:title=" ">
<polygon fill="white" stroke="#666666" points="510.38,-328.86 358.62,-328.86 358.62,-298.36 510.38,-298.36 510.38,-328.86"/>
<text text-anchor="start" x="366.62" y="-315.36" font-family="Helvetica,sans-Serif" font-size="10.00">ml::core::CStatePersistInserter</text>
<text text-anchor="middle" x="434.5" y="-304.11" font-family="Helvetica,sans-Serif" font-size="10.00">::insertLevel</text>
</a>
</g>
</g>
<!-- Node1&#45;&gt;Node8 -->
<g id="edge25_Node000001_Node000008" class="edge">
<title>Node1&#45;&gt;Node8</title>
<g id="a_edge25_Node000001_Node000008"><a xlink:title=" ">
<path fill="none" stroke="#63b8ff" d="M126.37,-260.39C186.94,-270.89 279.49,-286.92 347.16,-298.65"/>
<polygon fill="#63b8ff" stroke="#63b8ff" points="346.28,-302.05 356.73,-300.31 347.48,-295.15 346.28,-302.05"/>
</a>
</g>
</g>
<!-- Node9 -->
<g id="Node000009" class="node">
<title>Node9</title>
<g id="a_Node000009"><a xlink:href="../../db/de4/classml_1_1maths_1_1time__series_1_1_c_seasonal_component_adaptive_bucketing.html#af2f908c37cb427e297cdd82c8c3e2cc4" target="_top" xlink:title="Persist by passing information to the supplied inserter.">
<polygon fill="white" stroke="#666666" points="320.75,-243.48 162.25,-243.48 162.25,-201.73 320.75,-201.73 320.75,-243.48"/>
<text text-anchor="start" x="170.25" y="-229.98" font-family="Helvetica,sans-Serif" font-size="10.00">ml::maths::time_series</text>
<text text-anchor="start" x="170.25" y="-218.73" font-family="Helvetica,sans-Serif" font-size="10.00">::CSeasonalComponentAdaptive</text>
<text text-anchor="middle" x="241.5" y="-207.48" font-family="Helvetica,sans-Serif" font-size="10.00">Bucketing::acceptPersistInserter</text>
</a>
</g>
</g>
<!-- Node1&#45;&gt;Node9 -->
<g id="edge9_Node000001_Node000009" class="edge">
<title>Node1&#45;&gt;Node9</title>
<g id="a_edge9_Node000001_Node000009"><a xlink:title=" ">
<path fill="none" stroke="#63b8ff" d="M126.31,-240.09C134.22,-238.88 142.43,-237.62 150.67,-236.36"/>
<polygon fill="#63b8ff" stroke="#63b8ff" points="151.03,-239.85 160.39,-234.87 149.97,-232.93 151.03,-239.85"/>
</a>
</g>
</g>
<!-- Node15 -->
<g id="Node000015" class="node">
<title>Node15</title>
<g id="a_Node000015"><a xlink:href="../../dc/dbb/structml_1_1maths_1_1common_1_1_c_basic_statistics_1_1_s_sample_central_moments.html#aaef61f5660b9649997b6fc2879e4bec7" target="_top" xlink:title="Convert to a delimited string.">
<polygon fill="white" stroke="#666666" points="945.5,-77.48 778.75,-77.48 778.75,-35.73 945.5,-35.73 945.5,-77.48"/>
<text text-anchor="start" x="786.75" y="-63.98" font-family="Helvetica,sans-Serif" font-size="10.00">ml::maths::common::</text>
<text text-anchor="start" x="786.75" y="-52.73" font-family="Helvetica,sans-Serif" font-size="10.00">CBasicStatistics::SSampleCentral</text>
<text text-anchor="middle" x="862.12" y="-41.48" font-family="Helvetica,sans-Serif" font-size="10.00">Moments::toDelimited</text>
</a>
</g>
</g>
<!-- Node1&#45;&gt;Node15 -->
<g id="edge27_Node000001_Node000015" class="edge">
<title>Node1&#45;&gt;Node15</title>
<g id="a_edge27_Node000001_Node000015"><a xlink:title=" ">
<path fill="none" stroke="#63b8ff" d="M69.8,-228.37C80.82,-191.69 108.86,-117.1 162.25,-82.61 349.74,38.51 628.35,-0.92 770.53,-32.77"/>
<polygon fill="#63b8ff" stroke="#63b8ff" points="769.35,-36.09 779.88,-34.9 770.91,-29.27 769.35,-36.09"/>
</a>
</g>
</g>
<!-- Node20 -->
<g id="Node000020" class="node">
<title>Node20</title>
<g id="a_Node000020"><a xlink:href="../../d8/dca/classml_1_1maths_1_1common_1_1_c_p_r_n_g_1_1_c_xor_o_shiro128_plus.html#ade2dfc116d155a15eb089bf70a67e174" target="_top" xlink:title="Persist to a string.">
<polygon fill="white" stroke="#666666" points="314.75,-133.48 168.25,-133.48 168.25,-91.73 314.75,-91.73 314.75,-133.48"/>
<text text-anchor="start" x="176.25" y="-119.98" font-family="Helvetica,sans-Serif" font-size="10.00">ml::maths::common::</text>
<text text-anchor="start" x="176.25" y="-108.73" font-family="Helvetica,sans-Serif" font-size="10.00">CPRNG::CXorOShiro128Plus</text>
<text text-anchor="middle" x="241.5" y="-97.48" font-family="Helvetica,sans-Serif" font-size="10.00">::toString</text>
</a>
</g>
</g>
<!-- Node1&#45;&gt;Node20 -->
<g id="edge28_Node000001_Node000020" class="edge">
<title>Node1&#45;&gt;Node20</title>
<g id="a_edge28_Node000001_Node000020"><a xlink:title=" ">
<path fill="none" stroke="#63b8ff" d="M91.3,-228.5C121.5,-205.04 170.45,-167.02 203.98,-140.97"/>
<polygon fill="#63b8ff" stroke="#63b8ff" points="206.06,-143.79 211.81,-134.89 201.77,-138.26 206.06,-143.79"/>
</a>
</g>
</g>
<!-- Node3 -->
<g id="Node000003" class="node">
<title>Node3</title>
<g id="a_Node000003"><a xlink:href="../../d1/d87/classml_1_1maths_1_1time__series_1_1_c_decomposition_component_1_1_c_packed_splines.html#a1f3ab39ebbea8c24fb7415199d4fef34" target="_top" xlink:title="Persist state by passing information to inserter.">
<polygon fill="white" stroke="#666666" points="742,-366.48 548.25,-366.48 548.25,-324.73 742,-324.73 742,-366.48"/>
<text text-anchor="start" x="556.25" y="-352.98" font-family="Helvetica,sans-Serif" font-size="10.00">ml::maths::time_series</text>
<text text-anchor="start" x="556.25" y="-341.73" font-family="Helvetica,sans-Serif" font-size="10.00">::CDecompositionComponent</text>
<text text-anchor="middle" x="645.12" y="-330.48" font-family="Helvetica,sans-Serif" font-size="10.00">::CPackedSplines::acceptPersistInserter</text>
</a>
</g>
</g>
<!-- Node2&#45;&gt;Node3 -->
<g id="edge2_Node000002_Node000003" class="edge">
<title>Node2&#45;&gt;Node3</title>
<g id="a_edge2_Node000002_Node000003"><a xlink:title=" ">
<path fill="none" stroke="#63b8ff" d="M314.3,-336.58C376.2,-338.27 466.45,-340.74 536.9,-342.67"/>
<polygon fill="#63b8ff" stroke="#63b8ff" points="536.43,-346.16 546.52,-342.94 536.62,-339.16 536.43,-346.16"/>
</a>
</g>
</g>
<!-- Node2&#45;&gt;Node6 -->
<g id="edge8_Node000002_Node000006" class="edge">
<title>Node2&#45;&gt;Node6</title>
<g id="a_edge8_Node000002_Node000006"><a xlink:title=" ">
<path fill="none" stroke="#63b8ff" d="M291.81,-355.87C386.17,-393.03 595.87,-458.35 742,-375.61 769.06,-360.29 756.22,-337.8 778,-315.61 789.71,-303.68 804.66,-293.26 818.65,-284.93"/>
<polygon fill="#63b8ff" stroke="#63b8ff" points="820.33,-288 827.29,-280 816.87,-281.92 820.33,-288"/>
</a>
</g>
</g>
<!-- Node2&#45;&gt;Node8 -->
<g id="edge7_Node000002_Node000008" class="edge">
<title>Node2&#45;&gt;Node8</title>
<g id="a_edge7_Node000002_Node000008"><a xlink:title=" ">
<path fill="none" stroke="#63b8ff" d="M314.44,-326.7C325.11,-325.53 336.2,-324.31 347.14,-323.1"/>
<polygon fill="#63b8ff" stroke="#63b8ff" points="347.38,-326.6 356.94,-322.03 346.62,-319.64 347.38,-326.6"/>
</a>
</g>
</g>
<!-- Node4 -->
<g id="Node000004" class="node">
<title>Node4</title>
<g id="a_Node000004"><a xlink:href="../../d3/dc9/classml_1_1maths_1_1time__series_1_1_c_decomposition_component.html#a97df4201d641144adf5b18796772b2f8" target="_top" xlink:title="Check if the seasonal component has been estimated.">
<polygon fill="white" stroke="#666666" points="934.62,-366.48 789.62,-366.48 789.62,-324.73 934.62,-324.73 934.62,-366.48"/>
<text text-anchor="start" x="797.62" y="-352.98" font-family="Helvetica,sans-Serif" font-size="10.00">ml::maths::time_series</text>
<text text-anchor="start" x="797.62" y="-341.73" font-family="Helvetica,sans-Serif" font-size="10.00">::CDecompositionComponent</text>
<text text-anchor="middle" x="862.12" y="-330.48" font-family="Helvetica,sans-Serif" font-size="10.00">::initialized</text>
</a>
</g>
</g>
<!-- Node3&#45;&gt;Node4 -->
<g id="edge3_Node000003_Node000004" class="edge">
<title>Node3&#45;&gt;Node4</title>
<g id="a_edge3_Node000003_Node000004"><a xlink:title=" ">
<path fill="none" stroke="#63b8ff" d="M742.31,-345.61C754.13,-345.61 766.14,-345.61 777.75,-345.61"/>
<polygon fill="#63b8ff" stroke="#63b8ff" points="777.69,-349.11 787.69,-345.61 777.69,-342.11 777.69,-349.11"/>
</a>
</g>
</g>
<!-- Node3&#45;&gt;Node6 -->
<g id="edge5_Node000003_Node000006" class="edge">
<title>Node3&#45;&gt;Node6</title>
<g id="a_edge5_Node000003_Node000006"><a xlink:title=" ">
<path fill="none" stroke="#63b8ff" d="M717.36,-324.26C725.71,-321.48 734.08,-318.57 742,-315.61 767.46,-306.1 795.33,-294.03 817.7,-283.91"/>
<polygon fill="#63b8ff" stroke="#63b8ff" points="818.86,-287.23 826.51,-279.9 815.96,-280.86 818.86,-287.23"/>
</a>
</g>
</g>
<!-- Node7 -->
<g id="Node000007" class="node">
<title>Node7</title>
<g id="a_Node000007"><a xlink:href="../../de/df5/classml_1_1core_1_1_c_persist_utils.html#a518f0e6de0314125f712f6daec7ba0dd" target="_top" xlink:title="Wrapper for containers of built in types.">
<polygon fill="white" stroke="#666666" points="920,-214.86 804.25,-214.86 804.25,-184.36 920,-184.36 920,-214.86"/>
<text text-anchor="start" x="812.25" y="-201.36" font-family="Helvetica,sans-Serif" font-size="10.00">ml::core::CPersistUtils</text>
<text text-anchor="middle" x="862.12" y="-190.11" font-family="Helvetica,sans-Serif" font-size="10.00">::toString</text>
</a>
</g>
</g>
<!-- Node3&#45;&gt;Node7 -->
<g id="edge6_Node000003_Node000007" class="edge">
<title>Node3&#45;&gt;Node7</title>
<g id="a_edge6_Node000003_Node000007"><a xlink:title=" ">
<path fill="none" stroke="#63b8ff" d="M729.59,-324.51C734,-321.88 738.18,-318.93 742,-315.61 770.2,-291.08 751.65,-266.12 778,-239.61 785.54,-232.02 794.81,-225.67 804.38,-220.43"/>
<polygon fill="#63b8ff" stroke="#63b8ff" points="805.72,-223.67 813.06,-216.04 802.56,-217.43 805.72,-223.67"/>
</a>
</g>
</g>
<!-- Node5 -->
<g id="Node000005" class="node">
<title>Node5</title>
<g id="a_Node000005"><a xlink:href="../../d1/d87/classml_1_1maths_1_1time__series_1_1_c_decomposition_component_1_1_c_packed_splines.html#a638a84f6600ed79cb6063c02dd83b38b" target="_top" xlink:title="Check if the splines have been initialized.">
<polygon fill="white" stroke="#666666" points="1127.25,-366.48 982.25,-366.48 982.25,-324.73 1127.25,-324.73 1127.25,-366.48"/>
<text text-anchor="start" x="990.25" y="-352.98" font-family="Helvetica,sans-Serif" font-size="10.00">ml::maths::time_series</text>
<text text-anchor="start" x="990.25" y="-341.73" font-family="Helvetica,sans-Serif" font-size="10.00">::CDecompositionComponent</text>
<text text-anchor="middle" x="1054.75" y="-330.48" font-family="Helvetica,sans-Serif" font-size="10.00">::CPackedSplines::initialized</text>
</a>
</g>
</g>
<!-- Node4&#45;&gt;Node5 -->
<g id="edge4_Node000004_Node000005" class="edge">
<title>Node4&#45;&gt;Node5</title>
<g id="a_edge4_Node000004_Node000005"><a xlink:title=" ">
<path fill="none" stroke="#63b8ff" d="M934.92,-345.61C946.6,-345.61 958.78,-345.61 970.7,-345.61"/>
<polygon fill="#63b8ff" stroke="#63b8ff" points="970.51,-349.11 980.51,-345.61 970.51,-342.11 970.51,-349.11"/>
</a>
</g>
</g>
<!-- Node9&#45;&gt;Node6 -->
<g id="edge23_Node000009_Node000006" class="edge">
<title>Node9&#45;&gt;Node6</title>
<g id="a_edge23_Node000009_Node000006"><a xlink:title=" ">
<path fill="none" stroke="#63b8ff" d="M321.06,-223.17C374.91,-223.92 447.96,-225.65 512.25,-229.61 602.05,-235.14 704.48,-245.62 775.01,-253.49"/>
<polygon fill="#63b8ff" stroke="#63b8ff" points="774.22,-256.93 784.54,-254.56 775,-249.97 774.22,-256.93"/>
</a>
</g>
</g>
<!-- Node9&#45;&gt;Node8 -->
<g id="edge22_Node000009_Node000008" class="edge">
<title>Node9&#45;&gt;Node8</title>
<g id="a_edge22_Node000009_Node000008"><a xlink:title=" ">
<path fill="none" stroke="#63b8ff" d="M278.01,-243.98C308.44,-262.2 348.6,-286 356.75,-289.61 360.24,-291.15 363.86,-292.64 367.54,-294.07"/>
<polygon fill="#63b8ff" stroke="#63b8ff" points="366.01,-297.23 376.6,-297.4 368.42,-290.66 366.01,-297.23"/>
</a>
</g>
</g>
<!-- Node10 -->
<g id="Node000010" class="node">
<title>Node10</title>
<g id="a_Node000010"><a xlink:href="../../da/d6c/classml_1_1maths_1_1time__series_1_1_c_seasonal_time_state_serializer.html#a4e3a802dcdaf6579ba6b1a172c3d3842" target="_top" xlink:title="Persist state by passing information to inserter.">
<polygon fill="white" stroke="#666666" points="512.25,-280.48 356.75,-280.48 356.75,-238.73 512.25,-238.73 512.25,-280.48"/>
<text text-anchor="start" x="364.75" y="-266.98" font-family="Helvetica,sans-Serif" font-size="10.00">ml::maths::time_series</text>
<text text-anchor="start" x="364.75" y="-255.73" font-family="Helvetica,sans-Serif" font-size="10.00">::CSeasonalTimeStateSerializer</text>
<text text-anchor="middle" x="434.5" y="-244.48" font-family="Helvetica,sans-Serif" font-size="10.00">::acceptPersistInserter</text>
</a>
</g>
</g>
<!-- Node9&#45;&gt;Node10 -->
<g id="edge10_Node000009_Node000010" class="edge">
<title>Node9&#45;&gt;Node10</title>
<g id="a_edge10_Node000009_Node000010"><a xlink:title=" ">
<path fill="none" stroke="#63b8ff" d="M321.01,-237.82C329.08,-239.38 337.31,-240.97 345.47,-242.56"/>
<polygon fill="#63b8ff" stroke="#63b8ff" points="344.55,-245.94 355.04,-244.41 345.89,-239.07 344.55,-245.94"/>
</a>
</g>
</g>
<!-- Node12 -->
<g id="Node000012" class="node">
<title>Node12</title>
<g id="a_Node000012"><a xlink:href="../../d7/d17/classml_1_1maths_1_1time__series_1_1_c_adaptive_bucketing.html#a6a792bfd62f5be866d0d38af51199167" target="_top" xlink:title="Get the accept persist function bound to this object.">
<polygon fill="white" stroke="#666666" points="496.5,-182.48 372.5,-182.48 372.5,-140.73 496.5,-140.73 496.5,-182.48"/>
<text text-anchor="start" x="380.5" y="-168.98" font-family="Helvetica,sans-Serif" font-size="10.00">ml::maths::time_series</text>
<text text-anchor="start" x="380.5" y="-157.73" font-family="Helvetica,sans-Serif" font-size="10.00">::CAdaptiveBucketing::</text>
<text text-anchor="middle" x="434.5" y="-146.48" font-family="Helvetica,sans-Serif" font-size="10.00">getAcceptPersistInserter</text>
</a>
</g>
</g>
<!-- Node9&#45;&gt;Node12 -->
<g id="edge13_Node000009_Node000012" class="edge">
<title>Node9&#45;&gt;Node12</title>
<g id="a_edge13_Node000009_Node000012"><a xlink:title=" ">
<path fill="none" stroke="#63b8ff" d="M309.3,-201.27C326.23,-195.87 344.48,-190.04 361.65,-184.56"/>
<polygon fill="#63b8ff" stroke="#63b8ff" points="362.27,-188.03 370.73,-181.66 360.14,-181.36 362.27,-188.03"/>
</a>
</g>
</g>
<!-- Node19 -->
<g id="Node000019" class="node">
<title>Node19</title>
<g id="a_Node000019"><a xlink:href="../../de/df5/classml_1_1core_1_1_c_persist_utils.html#a82a406707dfde7a86539a04a2437e9e9" target="_top" xlink:title="Persist collection passing state to inserter using tag for elements.">
<polygon fill="white" stroke="#666666" points="492.38,-122.86 376.62,-122.86 376.62,-92.36 492.38,-92.36 492.38,-122.86"/>
<text text-anchor="start" x="384.62" y="-109.36" font-family="Helvetica,sans-Serif" font-size="10.00">ml::core::CPersistUtils</text>
<text text-anchor="middle" x="434.5" y="-98.11" font-family="Helvetica,sans-Serif" font-size="10.00">::persist</text>
</a>
</g>
</g>
<!-- Node9&#45;&gt;Node19 -->
<g id="edge24_Node000009_Node000019" class="edge">
<title>Node9&#45;&gt;Node19</title>
<g id="a_edge24_Node000009_Node000019"><a xlink:title=" ">
<path fill="none" stroke="#63b8ff" d="M263.94,-201.45C285.69,-181.03 321.13,-150.51 356.75,-131.61 359.74,-130.02 362.85,-128.52 366.03,-127.11"/>
<polygon fill="#63b8ff" stroke="#63b8ff" points="367.04,-130.47 374.97,-123.44 364.39,-124 367.04,-130.47"/>
</a>
</g>
</g>
<!-- Node10&#45;&gt;Node6 -->
<g id="edge11_Node000010_Node000006" class="edge">
<title>Node10&#45;&gt;Node6</title>
<g id="a_edge11_Node000010_Node000006"><a xlink:title=" ">
<path fill="none" stroke="#63b8ff" d="M512.58,-260.33C586.56,-261.03 698.09,-262.08 774.97,-262.8"/>
<polygon fill="#63b8ff" stroke="#63b8ff" points="774.5,-266.29 784.54,-262.89 774.57,-259.3 774.5,-266.29"/>
</a>
</g>
</g>
<!-- Node11 -->
<g id="Node000011" class="node">
<title>Node11</title>
<g id="a_Node000011"><a xlink:href="../../d4/df1/classml_1_1maths_1_1time__series_1_1_c_seasonal_time.html#a9f0955de8c66bb9338948bb364f98d95" target="_top" xlink:title="Convert to a string.">
<polygon fill="white" stroke="#666666" points="710.88,-306.86 579.38,-306.86 579.38,-276.36 710.88,-276.36 710.88,-306.86"/>
<text text-anchor="start" x="587.38" y="-293.36" font-family="Helvetica,sans-Serif" font-size="10.00">ml::maths::time_series</text>
<text text-anchor="middle" x="645.12" y="-282.11" font-family="Helvetica,sans-Serif" font-size="10.00">::CSeasonalTime::toString</text>
</a>
</g>
</g>
<!-- Node10&#45;&gt;Node11 -->
<g id="edge12_Node000010_Node000011" class="edge">
<title>Node10&#45;&gt;Node11</title>
<g id="a_edge12_Node000010_Node000011"><a xlink:title=" ">
<path fill="none" stroke="#63b8ff" d="M512.59,-271.43C530.58,-274.19 549.72,-277.13 567.68,-279.88"/>
<polygon fill="#63b8ff" stroke="#63b8ff" points="567.08,-283.33 577.49,-281.39 568.14,-276.41 567.08,-283.33"/>
</a>
</g>
</g>
<!-- Node13 -->
<g id="Node000013" class="node">
<title>Node13</title>
<g id="a_Node000013"><a xlink:href="../../d7/d17/classml_1_1maths_1_1time__series_1_1_c_adaptive_bucketing.html#a092dd41c0e723bf1939f280c99bcc53e" target="_top" xlink:title="Persist by passing information to the supplied inserter.">
<polygon fill="white" stroke="#666666" points="703.75,-182.48 586.5,-182.48 586.5,-140.73 703.75,-140.73 703.75,-182.48"/>
<text text-anchor="start" x="594.5" y="-168.98" font-family="Helvetica,sans-Serif" font-size="10.00">ml::maths::time_series</text>
<text text-anchor="start" x="594.5" y="-157.73" font-family="Helvetica,sans-Serif" font-size="10.00">::CAdaptiveBucketing::</text>
<text text-anchor="middle" x="645.12" y="-146.48" font-family="Helvetica,sans-Serif" font-size="10.00">acceptPersistInserter</text>
</a>
</g>
</g>
<!-- Node12&#45;&gt;Node13 -->
<g id="edge14_Node000012_Node000013" class="edge">
<title>Node12&#45;&gt;Node13</title>
<g id="a_edge14_Node000012_Node000013"><a xlink:title=" ">
<path fill="none" stroke="#63b8ff" d="M496.97,-161.61C521.46,-161.61 549.77,-161.61 574.98,-161.61"/>
<polygon fill="#63b8ff" stroke="#63b8ff" points="574.8,-165.11 584.8,-161.61 574.8,-158.11 574.8,-165.11"/>
</a>
</g>
</g>
<!-- Node13&#45;&gt;Node6 -->
<g id="edge15_Node000013_Node000006" class="edge">
<title>Node13&#45;&gt;Node6</title>
<g id="a_edge15_Node000013_Node000006"><a xlink:title=" ">
<path fill="none" stroke="#63b8ff" d="M704.11,-179.67C716.9,-184.5 730.16,-190.19 742,-196.61 759.58,-206.14 760.91,-213.22 778,-223.61 789.43,-230.56 802.25,-237.23 814.34,-243.06"/>
<polygon fill="#63b8ff" stroke="#63b8ff" points="812.82,-246.21 823.35,-247.32 815.8,-239.88 812.82,-246.21"/>
</a>
</g>
</g>
<!-- Node13&#45;&gt;Node7 -->
<g id="edge21_Node000013_Node000007" class="edge">
<title>Node13&#45;&gt;Node7</title>
<g id="a_edge21_Node000013_Node000007"><a xlink:title=" ">
<path fill="none" stroke="#63b8ff" d="M704.02,-171.84C731.36,-176.67 764.19,-182.48 792.74,-187.52"/>
<polygon fill="#63b8ff" stroke="#63b8ff" points="791.92,-190.93 802.38,-189.23 793.14,-184.04 791.92,-190.93"/>
</a>
</g>
</g>
<!-- Node14 -->
<g id="Node000014" class="node">
<title>Node14</title>
<g id="a_Node000014"><a xlink:href="../../d0/d3b/classml_1_1maths_1_1common_1_1_c_basic_statistics_1_1_c_order_statistics_stack.html#a6e4d055c5561dd719ef8b826c6ac1dc1" target="_top" xlink:title="Create a member function template so this class works with CPersistUtils::persist.">
<polygon fill="white" stroke="#666666" points="946.25,-166.48 778,-166.48 778,-124.73 946.25,-124.73 946.25,-166.48"/>
<text text-anchor="start" x="786" y="-152.98" font-family="Helvetica,sans-Serif" font-size="10.00">ml::maths::common::</text>
<text text-anchor="start" x="786" y="-141.73" font-family="Helvetica,sans-Serif" font-size="10.00">CBasicStatistics::COrderStatistics</text>
<text text-anchor="middle" x="862.12" y="-130.48" font-family="Helvetica,sans-Serif" font-size="10.00">Stack::toDelimited</text>
</a>
</g>
</g>
<!-- Node13&#45;&gt;Node14 -->
<g id="edge16_Node000013_Node000014" class="edge">
<title>Node13&#45;&gt;Node14</title>
<g id="a_edge16_Node000013_Node000014"><a xlink:title=" ">
<path fill="none" stroke="#63b8ff" d="M704.02,-157.3C723.21,-155.87 745.1,-154.24 766.32,-152.66"/>
<polygon fill="#63b8ff" stroke="#63b8ff" points="766.45,-156.16 776.17,-151.93 765.93,-149.18 766.45,-156.16"/>
</a>
</g>
</g>
<!-- Node13&#45;&gt;Node15 -->
<g id="edge17_Node000013_Node000015" class="edge">
<title>Node13&#45;&gt;Node15</title>
<g id="a_edge17_Node000013_Node000015"><a xlink:title=" ">
<path fill="none" stroke="#63b8ff" d="M689.89,-140.23C723.9,-123.63 771.22,-100.52 807.5,-82.8"/>
<polygon fill="#63b8ff" stroke="#63b8ff" points="808.61,-86.15 816.06,-78.62 805.54,-79.86 808.61,-86.15"/>
</a>
</g>
</g>
<!-- Node16 -->
<g id="Node000016" class="node">
<title>Node16</title>
<g id="a_Node000016"><a xlink:href="../../d4/dba/namespaceml_1_1maths_1_1common_1_1basic__statistics__detail.html#a89ea1ef7f82c3dba1c2cd58ab2ff09f8" target="_top" xlink:title="Function to do conversion to a string.">
<polygon fill="white" stroke="#666666" points="1111.12,-77.48 998.38,-77.48 998.38,-35.73 1111.12,-35.73 1111.12,-77.48"/>
<text text-anchor="start" x="1006.38" y="-63.98" font-family="Helvetica,sans-Serif" font-size="10.00">ml::maths::common::</text>
<text text-anchor="start" x="1006.38" y="-52.73" font-family="Helvetica,sans-Serif" font-size="10.00">basic_statistics_detail</text>
<text text-anchor="middle" x="1054.75" y="-41.48" font-family="Helvetica,sans-Serif" font-size="10.00">::typeToString</text>
</a>
</g>
</g>
<!-- Node15&#45;&gt;Node16 -->
<g id="edge18_Node000015_Node000016" class="edge">
<title>Node15&#45;&gt;Node16</title>
<g id="a_edge18_Node000015_Node000016"><a xlink:title=" ">
<path fill="none" stroke="#63b8ff" d="M945.9,-56.61C959.5,-56.61 973.45,-56.61 986.61,-56.61"/>
<polygon fill="#63b8ff" stroke="#63b8ff" points="986.43,-60.11 996.43,-56.61 986.43,-53.11 986.43,-60.11"/>
</a>
</g>
</g>
<!-- Node17 -->
<g id="Node000017" class="node">
<title>Node17</title>
<g id="a_Node000017"><a xlink:href="../../d1/dfa/classml_1_1core_1_1_c_string_utils.html#a17d4f57243425912a8b30e144a698df1" target="_top" xlink:title="Convert a double to a string with the specified precision.">
<polygon fill="white" stroke="#666666" points="1273.75,-71.86 1163.25,-71.86 1163.25,-41.36 1273.75,-41.36 1273.75,-71.86"/>
<text text-anchor="start" x="1171.25" y="-58.36" font-family="Helvetica,sans-Serif" font-size="10.00">ml::core::CStringUtils</text>
<text text-anchor="middle" x="1218.5" y="-47.11" font-family="Helvetica,sans-Serif" font-size="10.00">::typeToStringPrecise</text>
</a>
</g>
</g>
<!-- Node16&#45;&gt;Node17 -->
<g id="edge19_Node000016_Node000017" class="edge">
<title>Node16&#45;&gt;Node17</title>
<g id="a_edge19_Node000016_Node000017"><a xlink:title=" ">
<path fill="none" stroke="#63b8ff" d="M1111.42,-56.61C1124.28,-56.61 1138.09,-56.61 1151.35,-56.61"/>
<polygon fill="#63b8ff" stroke="#63b8ff" points="1151.31,-60.11 1161.31,-56.61 1151.31,-53.11 1151.31,-60.11"/>
</a>
</g>
</g>
<!-- Node18 -->
<g id="Node000018" class="node">
<title>Node18</title>
<g id="a_Node000018"><a xlink:href="../../d2/d08/classml_1_1core_1_1_c_i_e_e_e754.html#a1a14ca6caea95a6f76caf65b824b9e2c" target="_top" xlink:title=" ">
<polygon fill="white" stroke="#666666" points="1413.5,-71.86 1309.75,-71.86 1309.75,-41.36 1413.5,-41.36 1413.5,-71.86"/>
<text text-anchor="start" x="1317.75" y="-58.36" font-family="Helvetica,sans-Serif" font-size="10.00">ml::core::CIEEE754</text>
<text text-anchor="middle" x="1361.62" y="-47.11" font-family="Helvetica,sans-Serif" font-size="10.00">::round</text>
</a>
</g>
</g>
<!-- Node17&#45;&gt;Node18 -->
<g id="edge20_Node000017_Node000018" class="edge">
<title>Node17&#45;&gt;Node18</title>
<g id="a_edge20_Node000017_Node000018"><a xlink:title=" ">
<path fill="none" stroke="#63b8ff" d="M1274.06,-56.61C1281.97,-56.61 1290.16,-56.61 1298.21,-56.61"/>
<polygon fill="#63b8ff" stroke="#63b8ff" points="1297.93,-60.11 1307.93,-56.61 1297.93,-53.11 1297.93,-60.11"/>
</a>
</g>
</g>
<!-- Node20&#45;&gt;Node7 -->
<g id="edge29_Node000020_Node000007" class="edge">
<title>Node20&#45;&gt;Node7</title>
<g id="a_edge29_Node000020_Node000007"><a xlink:title=" ">
<path fill="none" stroke="#63b8ff" d="M315.12,-91.31C328.84,-88.1 343.14,-85.31 356.75,-83.61 527.97,-62.22 594.5,-42.08 742,-131.61 763.6,-144.72 756.91,-161.7 778,-175.61 782.81,-178.78 788.05,-181.55 793.48,-183.95"/>
<polygon fill="#63b8ff" stroke="#63b8ff" points="792.1,-187.17 802.69,-187.58 794.67,-180.65 792.1,-187.17"/>
</a>
</g>
</g>
</g>
</svg>
