<?xml version="1.0" encoding="UTF-8" standalone="no"?>
<!DOCTYPE svg PUBLIC "-//W3C//DTD SVG 1.1//EN"
 "http://www.w3.org/Graphics/SVG/1.1/DTD/svg11.dtd">
<!-- Generated by graphviz version 10.0.1 (20240210.2158)
 -->
<!-- Title: ml::maths::time_series::CSeasonalComponent::slope Pages: 1 -->
<svg width="701pt" height="218pt"
 viewBox="0.00 0.00 700.50 218.12" xmlns="http://www.w3.org/2000/svg" xmlns:xlink="http://www.w3.org/1999/xlink">
<g id="graph0" class="graph" transform="scale(1 1) rotate(0) translate(4 214.12)">
<title>ml::maths::time_series::CSeasonalComponent::slope</title>
<!-- Node1 -->
<g id="Node000001" class="node">
<title>Node1</title>
<g id="a_Node000001"><a xlink:title="Get the common slope of the bucket regression models.">
<polygon fill="#999999" stroke="#666666" points="149.5,-126.12 0,-126.12 0,-95.62 149.5,-95.62 149.5,-126.12"/>
<text text-anchor="start" x="8" y="-112.62" font-family="Helvetica,sans-Serif" font-size="10.00">ml::maths::time_series</text>
<text text-anchor="middle" x="74.75" y="-101.38" font-family="Helvetica,sans-Serif" font-size="10.00">::CSeasonalComponent::slope</text>
</a>
</g>
</g>
<!-- Node2 -->
<g id="Node000002" class="node">
<title>Node2</title>
<g id="a_Node000002"><a xlink:href="../../db/de4/classml_1_1maths_1_1time__series_1_1_c_seasonal_component_adaptive_bucketing.html#a0234f443748abafc85d09712af578b95" target="_top" xlink:title="Get the common slope of the bucket regression models.">
<polygon fill="white" stroke="#666666" points="344,-131.75 185.5,-131.75 185.5,-90 344,-90 344,-131.75"/>
<text text-anchor="start" x="193.5" y="-118.25" font-family="Helvetica,sans-Serif" font-size="10.00">ml::maths::time_series</text>
<text text-anchor="start" x="193.5" y="-107" font-family="Helvetica,sans-Serif" font-size="10.00">::CSeasonalComponentAdaptive</text>
<text text-anchor="middle" x="264.75" y="-95.75" font-family="Helvetica,sans-Serif" font-size="10.00">Bucketing::slope</text>
</a>
</g>
</g>
<!-- Node1&#45;&gt;Node2 -->
<g id="edge1_Node000001_Node000002" class="edge">
<title>Node1&#45;&gt;Node2</title>
<g id="a_edge1_Node000001_Node000002"><a xlink:title=" ">
<path fill="none" stroke="#63b8ff" d="M149.78,-110.88C157.67,-110.88 165.76,-110.88 173.81,-110.88"/>
<polygon fill="#63b8ff" stroke="#63b8ff" points="173.63,-114.38 183.63,-110.88 173.63,-107.38 173.63,-114.38"/>
</a>
</g>
</g>
<!-- Node3 -->
<g id="Node000003" class="node">
<title>Node3</title>
<g id="a_Node000003"><a xlink:href="../../d4/d5a/classml_1_1maths_1_1common_1_1_c_basic_statistics_1_1_c_min_max.html#a86fe66601db1049b6d8ec0555b1299b1" target="_top" xlink:title="Update the statistic with the collection x.">
<polygon fill="white" stroke="#666666" points="539.25,-210.12 380,-210.12 380,-179.62 539.25,-179.62 539.25,-210.12"/>
<text text-anchor="start" x="388" y="-196.62" font-family="Helvetica,sans-Serif" font-size="10.00">ml::maths::common::</text>
<text text-anchor="middle" x="459.62" y="-185.38" font-family="Helvetica,sans-Serif" font-size="10.00">CBasicStatistics::CMinMax::add</text>
</a>
</g>
</g>
<!-- Node2&#45;&gt;Node3 -->
<g id="edge2_Node000002_Node000003" class="edge">
<title>Node2&#45;&gt;Node3</title>
<g id="a_edge2_Node000002_Node000003"><a xlink:title=" ">
<path fill="none" stroke="#63b8ff" d="M301.96,-132.13C324.02,-144.5 353.06,-159.8 380,-170.88 383.86,-172.46 387.86,-174 391.92,-175.47"/>
<polygon fill="#63b8ff" stroke="#63b8ff" points="390.73,-178.77 401.33,-178.74 393.03,-172.15 390.73,-178.77"/>
</a>
</g>
</g>
<!-- Node4 -->
<g id="Node000004" class="node">
<title>Node4</title>
<g id="a_Node000004"><a xlink:href="../../d7/d17/classml_1_1maths_1_1time__series_1_1_c_adaptive_bucketing.html#a6d4f51305a1c7a66545e3c32c65b64b4" target="_top" xlink:title="Compute the index of the bucket to which time belongs.">
<polygon fill="white" stroke="#666666" points="518.25,-161.75 401,-161.75 401,-120 518.25,-120 518.25,-161.75"/>
<text text-anchor="start" x="409" y="-148.25" font-family="Helvetica,sans-Serif" font-size="10.00">ml::maths::time_series</text>
<text text-anchor="start" x="409" y="-137" font-family="Helvetica,sans-Serif" font-size="10.00">::CAdaptiveBucketing::</text>
<text text-anchor="middle" x="459.62" y="-125.75" font-family="Helvetica,sans-Serif" font-size="10.00">bucket</text>
</a>
</g>
</g>
<!-- Node2&#45;&gt;Node4 -->
<g id="edge3_Node000002_Node000004" class="edge">
<title>Node2&#45;&gt;Node4</title>
<g id="a_edge3_Node000002_Node000004"><a xlink:title=" ">
<path fill="none" stroke="#63b8ff" d="M344.48,-123.12C359.42,-125.44 374.95,-127.86 389.56,-130.13"/>
<polygon fill="#63b8ff" stroke="#63b8ff" points="388.62,-133.53 399.04,-131.61 389.69,-126.61 388.62,-133.53"/>
</a>
</g>
</g>
<!-- Node6 -->
<g id="Node000006" class="node">
<title>Node6</title>
<g id="a_Node000006"><a xlink:href="../../d4/d5a/classml_1_1maths_1_1common_1_1_c_basic_statistics_1_1_c_min_max.html#a99cebcc7653a7f75b0a6abc6b87fb270" target="_top" xlink:title="Get the count of statistics.">
<polygon fill="white" stroke="#666666" points="528.38,-101.75 390.88,-101.75 390.88,-60 528.38,-60 528.38,-101.75"/>
<text text-anchor="start" x="398.88" y="-88.25" font-family="Helvetica,sans-Serif" font-size="10.00">ml::maths::common::</text>
<text text-anchor="start" x="398.88" y="-77" font-family="Helvetica,sans-Serif" font-size="10.00">CBasicStatistics::CMinMax</text>
<text text-anchor="middle" x="459.62" y="-65.75" font-family="Helvetica,sans-Serif" font-size="10.00">::initialized</text>
</a>
</g>
</g>
<!-- Node2&#45;&gt;Node6 -->
<g id="edge5_Node000002_Node000006" class="edge">
<title>Node2&#45;&gt;Node6</title>
<g id="a_edge5_Node000002_Node000006"><a xlink:title=" ">
<path fill="none" stroke="#63b8ff" d="M344.48,-98.63C355.96,-96.84 367.79,-95 379.29,-93.21"/>
<polygon fill="#63b8ff" stroke="#63b8ff" points="379.81,-96.68 389.15,-91.68 378.73,-89.76 379.81,-96.68"/>
</a>
</g>
</g>
<!-- Node7 -->
<g id="Node000007" class="node">
<title>Node7</title>
<g id="a_Node000007"><a xlink:href="../../d4/d5a/classml_1_1maths_1_1common_1_1_c_basic_statistics_1_1_c_min_max.html#ac052ec404660d4d946481a96d7960f00" target="_top" xlink:title="Get the margin by which all the values have the same sign.">
<polygon fill="white" stroke="#666666" points="528.38,-41.75 390.88,-41.75 390.88,0 528.38,0 528.38,-41.75"/>
<text text-anchor="start" x="398.88" y="-28.25" font-family="Helvetica,sans-Serif" font-size="10.00">ml::maths::common::</text>
<text text-anchor="start" x="398.88" y="-17" font-family="Helvetica,sans-Serif" font-size="10.00">CBasicStatistics::CMinMax</text>
<text text-anchor="middle" x="459.62" y="-5.75" font-family="Helvetica,sans-Serif" font-size="10.00">::signMargin</text>
</a>
</g>
</g>
<!-- Node2&#45;&gt;Node7 -->
<g id="edge6_Node000002_Node000007" class="edge">
<title>Node2&#45;&gt;Node7</title>
<g id="a_edge6_Node000002_Node000007"><a xlink:title=" ">
<path fill="none" stroke="#63b8ff" d="M303.53,-89.58C325.52,-77.56 353.96,-62.63 380,-50.88 383.16,-49.45 386.41,-48.03 389.71,-46.63"/>
<polygon fill="#63b8ff" stroke="#63b8ff" points="391.04,-49.86 398.94,-42.8 388.36,-43.4 391.04,-49.86"/>
</a>
</g>
</g>
<!-- Node5 -->
<g id="Node000005" class="node">
<title>Node5</title>
<g id="a_Node000005"><a xlink:href="../../d7/d17/classml_1_1maths_1_1time__series_1_1_c_adaptive_bucketing.html#accb62bcb1fa68ef47631b2139e00b790" target="_top" xlink:title="Get the offset w.r.t. the start of the bucketing of time.">
<polygon fill="white" stroke="#666666" points="692.5,-161.75 575.25,-161.75 575.25,-120 692.5,-120 692.5,-161.75"/>
<text text-anchor="start" x="583.25" y="-148.25" font-family="Helvetica,sans-Serif" font-size="10.00">ml::maths::time_series</text>
<text text-anchor="start" x="583.25" y="-137" font-family="Helvetica,sans-Serif" font-size="10.00">::CAdaptiveBucketing::</text>
<text text-anchor="middle" x="633.88" y="-125.75" font-family="Helvetica,sans-Serif" font-size="10.00">offset</text>
</a>
</g>
</g>
<!-- Node4&#45;&gt;Node5 -->
<g id="edge4_Node000004_Node000005" class="edge">
<title>Node4&#45;&gt;Node5</title>
<g id="a_edge4_Node000004_Node000005"><a xlink:title=" ">
<path fill="none" stroke="#63b8ff" d="M518.46,-140.88C532.95,-140.88 548.63,-140.88 563.61,-140.88"/>
<polygon fill="#63b8ff" stroke="#63b8ff" points="563.38,-144.38 573.38,-140.88 563.38,-137.38 563.38,-144.38"/>
</a>
</g>
</g>
</g>
</svg>
