<?xml version="1.0" encoding="UTF-8" standalone="no"?>
<!DOCTYPE svg PUBLIC "-//W3C//DTD SVG 1.1//EN"
 "http://www.w3.org/Graphics/SVG/1.1/DTD/svg11.dtd">
<!-- Generated by graphviz version 10.0.1 (20240210.2158)
 -->
<!-- Title: ml::core::CConcurrentWrapper::memoryUsage Pages: 1 -->
<svg width="864pt" height="126pt"
 viewBox="0.00 0.00 864.25 125.75" xmlns="http://www.w3.org/2000/svg" xmlns:xlink="http://www.w3.org/1999/xlink">
<g id="graph0" class="graph" transform="scale(1 1) rotate(0) translate(4 121.75)">
<title>ml::core::CConcurrentWrapper::memoryUsage</title>
<!-- Node1 -->
<g id="Node000001" class="node">
<title>Node1</title>
<g id="a_Node000001"><a xlink:title="Get the memory used by this component.">
<polygon fill="#999999" stroke="#666666" points="148.75,-58.12 0,-58.12 0,-27.62 148.75,-27.62 148.75,-58.12"/>
<text text-anchor="start" x="8" y="-44.62" font-family="Helvetica,sans-Serif" font-size="10.00">ml::core::CConcurrentWrapper</text>
<text text-anchor="middle" x="74.38" y="-33.38" font-family="Helvetica,sans-Serif" font-size="10.00">::memoryUsage</text>
</a>
</g>
</g>
<!-- Node2 -->
<g id="Node000002" class="node">
<title>Node2</title>
<g id="a_Node000002"><a xlink:href="../../d2/d16/classml_1_1core_1_1_c_concurrent_queue.html#a045bc2e137defbdadae496b64789c887" target="_top" xlink:title="Get the memory used by this component.">
<polygon fill="white" stroke="#666666" points="326,-58.12 184.75,-58.12 184.75,-27.62 326,-27.62 326,-58.12"/>
<text text-anchor="start" x="192.75" y="-44.62" font-family="Helvetica,sans-Serif" font-size="10.00">ml::core::CConcurrentQueue</text>
<text text-anchor="middle" x="255.38" y="-33.38" font-family="Helvetica,sans-Serif" font-size="10.00">::memoryUsage</text>
</a>
</g>
</g>
<!-- Node1&#45;&gt;Node2 -->
<g id="edge1_Node000001_Node000002" class="edge">
<title>Node1&#45;&gt;Node2</title>
<g id="a_edge1_Node000001_Node000002"><a xlink:title=" ">
<path fill="none" stroke="#63b8ff" d="M149.21,-42.88C157.04,-42.88 165.04,-42.88 172.95,-42.88"/>
<polygon fill="#63b8ff" stroke="#63b8ff" points="172.93,-46.38 182.93,-42.88 172.93,-39.38 172.93,-46.38"/>
</a>
</g>
</g>
<!-- Node3 -->
<g id="Node000003" class="node">
<title>Node3</title>
<g id="a_Node000003"><a xlink:href="../../d0/d74/namespaceml_1_1core_1_1memory.html#a50fe883268170c17625e18a0c5fea04b" target="_top" xlink:title="Default implementation for non&#45;pointer types.">
<polygon fill="white" stroke="#666666" points="516.75,-52.5 362,-52.5 362,-33.25 516.75,-33.25 516.75,-52.5"/>
<text text-anchor="middle" x="439.38" y="-39" font-family="Helvetica,sans-Serif" font-size="10.00">ml::core::memory::dynamicSize</text>
</a>
</g>
</g>
<!-- Node2&#45;&gt;Node3 -->
<g id="edge2_Node000002_Node000003" class="edge">
<title>Node2&#45;&gt;Node3</title>
<g id="a_edge2_Node000002_Node000003"><a xlink:title=" ">
<path fill="none" stroke="#63b8ff" d="M326.48,-42.88C334.31,-42.88 342.35,-42.88 350.37,-42.88"/>
<polygon fill="#63b8ff" stroke="#63b8ff" points="350.14,-46.38 360.14,-42.88 350.14,-39.38 350.14,-46.38"/>
</a>
</g>
</g>
<!-- Node4 -->
<g id="Node000004" class="node">
<title>Node4</title>
<g id="a_Node000004"><a xlink:href="../../d9/d0b/structml_1_1core_1_1memory__detail_1_1_s_memory_dynamic_size.html#a49a680749a1d1861b69990d788154833" target="_top" xlink:title=" ">
<polygon fill="white" stroke="#666666" points="681.25,-117.75 552.75,-117.75 552.75,-76 681.25,-76 681.25,-117.75"/>
<text text-anchor="start" x="560.75" y="-104.25" font-family="Helvetica,sans-Serif" font-size="10.00">ml::core::memory_detail</text>
<text text-anchor="start" x="560.75" y="-93" font-family="Helvetica,sans-Serif" font-size="10.00">::SMemoryDynamicSize::</text>
<text text-anchor="middle" x="617" y="-81.75" font-family="Helvetica,sans-Serif" font-size="10.00">dispatch</text>
</a>
</g>
</g>
<!-- Node3&#45;&gt;Node4 -->
<g id="edge3_Node000003_Node000004" class="edge">
<title>Node3&#45;&gt;Node4</title>
<g id="a_edge3_Node000003_Node000004"><a xlink:title=" ">
<path fill="none" stroke="#63b8ff" d="M473,-52.91C492.27,-58.83 517.5,-66.59 541.39,-73.94"/>
<polygon fill="#63b8ff" stroke="#63b8ff" points="540.22,-77.24 550.81,-76.83 542.28,-70.55 540.22,-77.24"/>
</a>
</g>
</g>
<!-- Node5 -->
<g id="Node000005" class="node">
<title>Node5</title>
<g id="a_Node000005"><a xlink:href="../../db/df7/namespaceml_1_1core_1_1memory__detail.html#ac2d4d02cd0f6d8d7d1355958a49fce43" target="_top" xlink:title="Check if we expect an overloaded dynamicSize function.">
<polygon fill="white" stroke="#666666" points="679.75,-58.12 554.25,-58.12 554.25,-27.62 679.75,-27.62 679.75,-58.12"/>
<text text-anchor="start" x="562.25" y="-44.62" font-family="Helvetica,sans-Serif" font-size="10.00">ml::core::memory_detail</text>
<text text-anchor="middle" x="617" y="-33.38" font-family="Helvetica,sans-Serif" font-size="10.00">::expectMemoryOverload</text>
</a>
</g>
</g>
<!-- Node3&#45;&gt;Node5 -->
<g id="edge4_Node000003_Node000005" class="edge">
<title>Node3&#45;&gt;Node5</title>
<g id="a_edge4_Node000003_Node000005"><a xlink:title=" ">
<path fill="none" stroke="#63b8ff" d="M517.15,-42.88C525.59,-42.88 534.17,-42.88 542.57,-42.88"/>
<polygon fill="#63b8ff" stroke="#63b8ff" points="542.36,-46.38 552.36,-42.88 542.36,-39.38 542.36,-46.38"/>
</a>
</g>
</g>
<!-- Node6 -->
<g id="Node000006" class="node">
<title>Node6</title>
<g id="a_Node000006"><a xlink:href="../../d2/d21/structml_1_1core_1_1memory__detail_1_1_s_dynamic_size_always_zero.html#a710ac6fc2d5760a396bb2d46a66a73b2" target="_top" xlink:title=" ">
<polygon fill="white" stroke="#666666" points="856.25,-41.75 717.25,-41.75 717.25,0 856.25,0 856.25,-41.75"/>
<text text-anchor="start" x="725.25" y="-28.25" font-family="Helvetica,sans-Serif" font-size="10.00">ml::core::memory_detail</text>
<text text-anchor="start" x="725.25" y="-17" font-family="Helvetica,sans-Serif" font-size="10.00">::SDynamicSizeAlwaysZero</text>
<text text-anchor="middle" x="786.75" y="-5.75" font-family="Helvetica,sans-Serif" font-size="10.00">::value</text>
</a>
</g>
</g>
<!-- Node3&#45;&gt;Node6 -->
<g id="edge6_Node000003_Node000006" class="edge">
<title>Node3&#45;&gt;Node6</title>
<g id="a_edge6_Node000003_Node000006"><a xlink:title=" ">
<path fill="none" stroke="#63b8ff" d="M478.03,-32.76C499.7,-27.46 527.55,-21.54 552.75,-18.88 609.55,-12.88 624.14,-18.33 681.25,-18.88 689.08,-18.95 697.24,-19.06 705.4,-19.18"/>
<polygon fill="#63b8ff" stroke="#63b8ff" points="705.32,-22.68 715.38,-19.35 705.44,-15.68 705.32,-22.68"/>
</a>
</g>
</g>
<!-- Node5&#45;&gt;Node6 -->
<g id="edge5_Node000005_Node000006" class="edge">
<title>Node5&#45;&gt;Node6</title>
<g id="a_edge5_Node000005_Node000006"><a xlink:title=" ">
<path fill="none" stroke="#63b8ff" d="M679.99,-34.75C688.36,-33.65 697.04,-32.51 705.67,-31.38"/>
<polygon fill="#63b8ff" stroke="#63b8ff" points="706,-34.86 715.46,-30.09 705.09,-27.92 706,-34.86"/>
</a>
</g>
</g>
</g>
</svg>
