<?xml version="1.0" encoding="UTF-8" standalone="no"?>
<!DOCTYPE svg PUBLIC "-//W3C//DTD SVG 1.1//EN"
 "http://www.w3.org/Graphics/SVG/1.1/DTD/svg11.dtd">
<!-- Generated by graphviz version 10.0.1 (20240210.2158)
 -->
<!-- Title: include/model/CAnnotation.h Pages: 1 -->
<svg width="288pt" height="138pt"
 viewBox="0.00 0.00 287.62 137.75" xmlns="http://www.w3.org/2000/svg" xmlns:xlink="http://www.w3.org/1999/xlink">
<g id="graph0" class="graph" transform="scale(1 1) rotate(0) translate(4 133.75)">
<title>include/model/CAnnotation.h</title>
<!-- Node1 -->
<g id="Node000001" class="node">
<title>Node1</title>
<g id="a_Node000001"><a xlink:title=" ">
<polygon fill="#999999" stroke="#666666" points="237.25,-129.75 96,-129.75 96,-110.5 237.25,-110.5 237.25,-129.75"/>
<text text-anchor="middle" x="166.62" y="-116.25" font-family="Helvetica,sans-Serif" font-size="10.00">include/model/CAnnotation.h</text>
</a>
</g>
</g>
<!-- Node2 -->
<g id="Node000002" class="node">
<title>Node2</title>
<g id="a_Node000002"><a xlink:href="../../db/d04/_core_types_8h.html" target="_top" xlink:title=" ">
<polygon fill="white" stroke="#666666" points="93.25,-74.5 0,-74.5 0,-55.25 93.25,-55.25 93.25,-74.5"/>
<text text-anchor="middle" x="46.62" y="-61" font-family="Helvetica,sans-Serif" font-size="10.00">core/CoreTypes.h</text>
</a>
</g>
</g>
<!-- Node1&#45;&gt;Node2 -->
<g id="edge1_Node000001_Node000002" class="edge">
<title>Node1&#45;&gt;Node2</title>
<g id="a_edge1_Node000001_Node000002"><a xlink:title=" ">
<path fill="none" stroke="#63b8ff" d="M146.27,-110.09C127.39,-101.72 99.04,-89.13 77.4,-79.53"/>
<polygon fill="#63b8ff" stroke="#63b8ff" points="79.02,-76.42 68.46,-75.57 76.19,-82.82 79.02,-76.42"/>
</a>
</g>
</g>
<!-- Node4 -->
<g id="Node000004" class="node">
<title>Node4</title>
<g id="a_Node000004"><a xlink:href="../../de/d8d/model_2_import_export_8h.html" target="_top" xlink:title=" ">
<polygon fill="white" stroke="#666666" points="221.5,-74.5 111.75,-74.5 111.75,-55.25 221.5,-55.25 221.5,-74.5"/>
<text text-anchor="middle" x="166.62" y="-61" font-family="Helvetica,sans-Serif" font-size="10.00">model/ImportExport.h</text>
</a>
</g>
</g>
<!-- Node1&#45;&gt;Node4 -->
<g id="edge3_Node000001_Node000004" class="edge">
<title>Node1&#45;&gt;Node4</title>
<g id="a_edge3_Node000001_Node000004"><a xlink:title=" ">
<path fill="none" stroke="#63b8ff" d="M166.62,-110.33C166.62,-103.82 166.62,-94.67 166.62,-86.37"/>
<polygon fill="#63b8ff" stroke="#63b8ff" points="170.13,-86.37 166.63,-76.37 163.13,-86.37 170.13,-86.37"/>
</a>
</g>
</g>
<!-- Node5 -->
<g id="Node000005" class="node">
<title>Node5</title>
<g id="a_Node000005"><a xlink:title=" ">
<polygon fill="#e0e0e0" stroke="#999999" points="279.62,-74.5 239.62,-74.5 239.62,-55.25 279.62,-55.25 279.62,-74.5"/>
<text text-anchor="middle" x="259.62" y="-61" font-family="Helvetica,sans-Serif" font-size="10.00">string</text>
</a>
</g>
</g>
<!-- Node1&#45;&gt;Node5 -->
<g id="edge4_Node000001_Node000005" class="edge">
<title>Node1&#45;&gt;Node5</title>
<g id="a_edge4_Node000001_Node000005"><a xlink:title=" ">
<path fill="none" stroke="#63b8ff" d="M182.4,-110.09C196.56,-101.98 217.61,-89.93 234.15,-80.46"/>
<polygon fill="#63b8ff" stroke="#63b8ff" points="235.52,-83.71 242.46,-75.7 232.04,-77.64 235.52,-83.71"/>
</a>
</g>
</g>
<!-- Node3 -->
<g id="Node000003" class="node">
<title>Node3</title>
<g id="a_Node000003"><a xlink:title=" ">
<polygon fill="#e0e0e0" stroke="#999999" points="68.12,-19.25 25.12,-19.25 25.12,0 68.12,0 68.12,-19.25"/>
<text text-anchor="middle" x="46.62" y="-5.75" font-family="Helvetica,sans-Serif" font-size="10.00">time.h</text>
</a>
</g>
</g>
<!-- Node2&#45;&gt;Node3 -->
<g id="edge2_Node000002_Node000003" class="edge">
<title>Node2&#45;&gt;Node3</title>
<g id="a_edge2_Node000002_Node000003"><a xlink:title=" ">
<path fill="none" stroke="#63b8ff" d="M46.62,-55.08C46.62,-48.57 46.62,-39.42 46.62,-31.12"/>
<polygon fill="#63b8ff" stroke="#63b8ff" points="50.13,-31.12 46.63,-21.12 43.13,-31.12 50.13,-31.12"/>
</a>
</g>
</g>
</g>
</svg>
