<?xml version="1.0" encoding="UTF-8" standalone="no"?>
<!DOCTYPE svg PUBLIC "-//W3C//DTD SVG 1.1//EN"
 "http://www.w3.org/Graphics/SVG/1.1/DTD/svg11.dtd">
<!-- Generated by graphviz version 10.0.1 (20240210.2158)
 -->
<!-- Title: ml::maths::common::equal_with_tolerance_detail::SNorm&lt; CVectorNx1&lt; T, N &gt; &gt;::dispatch Pages: 1 -->
<svg width="596pt" height="120pt"
 viewBox="0.00 0.00 595.50 120.38" xmlns="http://www.w3.org/2000/svg" xmlns:xlink="http://www.w3.org/1999/xlink">
<g id="graph0" class="graph" transform="scale(1 1) rotate(0) translate(4 116.38)">
<title>ml::maths::common::equal_with_tolerance_detail::SNorm&lt; CVectorNx1&lt; T, N &gt; &gt;::dispatch</title>
<!-- Node1 -->
<g id="Node000001" class="node">
<title>Node1</title>
<g id="a_Node000001"><a xlink:title=" ">
<polygon fill="#999999" stroke="#666666" points="144.25,-85 0,-85 0,-32 144.25,-32 144.25,-85"/>
<text text-anchor="start" x="8" y="-71.5" font-family="Helvetica,sans-Serif" font-size="10.00">ml::maths::common::</text>
<text text-anchor="start" x="8" y="-60.25" font-family="Helvetica,sans-Serif" font-size="10.00">equal_with_tolerance</text>
<text text-anchor="start" x="8" y="-49" font-family="Helvetica,sans-Serif" font-size="10.00">_detail::SNorm&lt; CVectorNx1</text>
<text text-anchor="middle" x="72.12" y="-37.75" font-family="Helvetica,sans-Serif" font-size="10.00">&lt; T, N &gt; &gt;::dispatch</text>
</a>
</g>
</g>
<!-- Node2 -->
<g id="Node000002" class="node">
<title>Node2</title>
<g id="a_Node000002"><a xlink:href="../../d7/d11/classml_1_1maths_1_1common_1_1_c_vector_nx1.html#ac954927b9335015bfcce14a8a6f310d3" target="_top" xlink:title="Euclidean norm.">
<polygon fill="white" stroke="#666666" points="297.5,-73.75 180.25,-73.75 180.25,-43.25 297.5,-43.25 297.5,-73.75"/>
<text text-anchor="start" x="188.25" y="-60.25" font-family="Helvetica,sans-Serif" font-size="10.00">ml::maths::common::</text>
<text text-anchor="middle" x="238.88" y="-49" font-family="Helvetica,sans-Serif" font-size="10.00">CVectorNx1::euclidean</text>
</a>
</g>
</g>
<!-- Node1&#45;&gt;Node2 -->
<g id="edge1_Node000001_Node000002" class="edge">
<title>Node1&#45;&gt;Node2</title>
<g id="a_edge1_Node000001_Node000002"><a xlink:title=" ">
<path fill="none" stroke="#63b8ff" d="M144.43,-58.5C152.37,-58.5 160.46,-58.5 168.38,-58.5"/>
<polygon fill="#63b8ff" stroke="#63b8ff" points="168.33,-62 178.33,-58.5 168.33,-55 168.33,-62"/>
</a>
</g>
</g>
<!-- Node3 -->
<g id="Node000003" class="node">
<title>Node3</title>
<g id="a_Node000003"><a xlink:href="../../d7/d11/classml_1_1maths_1_1common_1_1_c_vector_nx1.html#abcca910e9026ef13d4087e30ee3bcc03" target="_top" xlink:title="Inner product.">
<polygon fill="white" stroke="#666666" points="442.5,-73.75 333.5,-73.75 333.5,-43.25 442.5,-43.25 442.5,-73.75"/>
<text text-anchor="start" x="341.5" y="-60.25" font-family="Helvetica,sans-Serif" font-size="10.00">ml::maths::common::</text>
<text text-anchor="middle" x="388" y="-49" font-family="Helvetica,sans-Serif" font-size="10.00">CVectorNx1::inner</text>
</a>
</g>
</g>
<!-- Node2&#45;&gt;Node3 -->
<g id="edge2_Node000002_Node000003" class="edge">
<title>Node2&#45;&gt;Node3</title>
<g id="a_edge2_Node000002_Node000003"><a xlink:title=" ">
<path fill="none" stroke="#63b8ff" d="M297.6,-58.5C305.59,-58.5 313.84,-58.5 321.95,-58.5"/>
<polygon fill="#63b8ff" stroke="#63b8ff" points="321.77,-62 331.77,-58.5 321.77,-55 321.77,-62"/>
</a>
</g>
</g>
<!-- Node4 -->
<g id="Node000004" class="node">
<title>Node4</title>
<g id="a_Node000004"><a xlink:href="../../d8/d97/structml_1_1maths_1_1common_1_1linear__algebra__detail_1_1_s_vector.html#a20d1bb135682b5741deae937d92e6dc2" target="_top" xlink:title="Get read only reference.">
<polygon fill="white" stroke="#666666" points="587.5,-112.38 478.5,-112.38 478.5,-70.62 587.5,-70.62 587.5,-112.38"/>
<text text-anchor="start" x="486.5" y="-98.88" font-family="Helvetica,sans-Serif" font-size="10.00">ml::maths::common::</text>
<text text-anchor="start" x="486.5" y="-87.62" font-family="Helvetica,sans-Serif" font-size="10.00">linear_algebra_detail</text>
<text text-anchor="middle" x="533" y="-76.38" font-family="Helvetica,sans-Serif" font-size="10.00">::SVector::base</text>
</a>
</g>
</g>
<!-- Node3&#45;&gt;Node4 -->
<g id="edge3_Node000003_Node000004" class="edge">
<title>Node3&#45;&gt;Node4</title>
<g id="a_edge3_Node000003_Node000004"><a xlink:title=" ">
<path fill="none" stroke="#63b8ff" d="M442.65,-70.88C450.61,-72.72 458.88,-74.63 467.03,-76.51"/>
<polygon fill="#63b8ff" stroke="#63b8ff" points="466.04,-79.87 476.57,-78.71 467.61,-73.05 466.04,-79.87"/>
</a>
</g>
</g>
<!-- Node5 -->
<g id="Node000005" class="node">
<title>Node5</title>
<g id="a_Node000005"><a xlink:href="../../d8/d97/structml_1_1maths_1_1common_1_1linear__algebra__detail_1_1_s_vector.html#a58169b3ce034b25724b509f49069311f" target="_top" xlink:title=" ">
<polygon fill="white" stroke="#666666" points="587.5,-53 478.5,-53 478.5,0 587.5,0 587.5,-53"/>
<text text-anchor="start" x="486.5" y="-39.5" font-family="Helvetica,sans-Serif" font-size="10.00">ml::maths::common::</text>
<text text-anchor="start" x="486.5" y="-28.25" font-family="Helvetica,sans-Serif" font-size="10.00">linear_algebra_detail</text>
<text text-anchor="start" x="486.5" y="-17" font-family="Helvetica,sans-Serif" font-size="10.00">::SVector&lt; std::array</text>
<text text-anchor="middle" x="533" y="-5.75" font-family="Helvetica,sans-Serif" font-size="10.00">&lt; T, N &gt; &gt;::inner</text>
</a>
</g>
</g>
<!-- Node3&#45;&gt;Node5 -->
<g id="edge4_Node000003_Node000005" class="edge">
<title>Node3&#45;&gt;Node5</title>
<g id="a_edge4_Node000003_Node000005"><a xlink:title=" ">
<path fill="none" stroke="#63b8ff" d="M442.65,-46.49C450.61,-44.71 458.88,-42.86 467.03,-41.04"/>
<polygon fill="#63b8ff" stroke="#63b8ff" points="467.57,-44.5 476.57,-38.9 466.04,-37.67 467.57,-44.5"/>
</a>
</g>
</g>
</g>
</svg>
