<?xml version="1.0" encoding="UTF-8" standalone="no"?>
<!DOCTYPE svg PUBLIC "-//W3C//DTD SVG 1.1//EN"
 "http://www.w3.org/Graphics/SVG/1.1/DTD/svg11.dtd">
<!-- Generated by graphviz version 10.0.1 (20240210.2158)
 -->
<!-- Title: ml::core::CHashing::murmurHash64 Pages: 1 -->
<svg width="526pt" height="215pt"
 viewBox="0.00 0.00 526.25 214.50" xmlns="http://www.w3.org/2000/svg" xmlns:xlink="http://www.w3.org/1999/xlink">
<g id="graph0" class="graph" transform="scale(1 1) rotate(0) translate(4 210.5)">
<title>ml::core::CHashing::murmurHash64</title>
<!-- Node1 -->
<g id="Node000001" class="node">
<title>Node1</title>
<g id="a_Node000001"><a xlink:title=" ">
<polygon fill="#999999" stroke="#666666" points="518.25,-132.12 417.5,-132.12 417.5,-101.62 518.25,-101.62 518.25,-132.12"/>
<text text-anchor="start" x="425.5" y="-118.62" font-family="Helvetica,sans-Serif" font-size="10.00">ml::core::CHashing</text>
<text text-anchor="middle" x="467.88" y="-107.38" font-family="Helvetica,sans-Serif" font-size="10.00">::murmurHash64</text>
</a>
</g>
</g>
<!-- Node2 -->
<g id="Node000002" class="node">
<title>Node2</title>
<g id="a_Node000002"><a xlink:href="../../da/dcb/_c_hashing_test_8cc.html#af21f45060ac3de743b8cd7e79c0eb4f4" target="_top" xlink:title=" ">
<polygon fill="white" stroke="#666666" points="368.75,-205.5 221.5,-205.5 221.5,-186.25 368.75,-186.25 368.75,-205.5"/>
<text text-anchor="middle" x="295.12" y="-192" font-family="Helvetica,sans-Serif" font-size="10.00">BOOST_AUTO_TEST_CASE</text>
</a>
</g>
</g>
<!-- Node1&#45;&gt;Node2 -->
<g id="edge1_Node000001_Node000002" class="edge">
<title>Node1&#45;&gt;Node2</title>
<g id="a_edge1_Node000001_Node000002"><a xlink:title=" ">
<path fill="none" stroke="#63b8ff" d="M440.37,-139.63C424.3,-152.34 402.83,-167.46 381.5,-176.88 373.3,-180.49 364.35,-183.45 355.43,-185.87"/>
<polygon fill="#63b8ff" stroke="#63b8ff" points="442.44,-142.47 447.99,-133.45 438.02,-137.03 442.44,-142.47"/>
</a>
</g>
</g>
<!-- Node3 -->
<g id="Node000003" class="node">
<title>Node3</title>
<g id="a_Node000003"><a xlink:href="../../d6/d52/classml_1_1core_1_1_c_packed_bit_vector.html#a5bd0fc4f67546e343d4e1df7f7cd2683" target="_top" xlink:title="Get a checksum of this vector&#39;s components.">
<polygon fill="white" stroke="#666666" points="364.25,-168.12 226,-168.12 226,-137.62 364.25,-137.62 364.25,-168.12"/>
<text text-anchor="start" x="234" y="-154.62" font-family="Helvetica,sans-Serif" font-size="10.00">ml::core::CPackedBitVector</text>
<text text-anchor="middle" x="295.12" y="-143.38" font-family="Helvetica,sans-Serif" font-size="10.00">::checksum</text>
</a>
</g>
</g>
<!-- Node1&#45;&gt;Node3 -->
<g id="edge2_Node000001_Node000003" class="edge">
<title>Node1&#45;&gt;Node3</title>
<g id="a_edge2_Node000001_Node000003"><a xlink:title=" ">
<path fill="none" stroke="#63b8ff" d="M405.97,-129.72C392.51,-132.55 378.17,-135.58 364.44,-138.47"/>
<polygon fill="#63b8ff" stroke="#63b8ff" points="406.48,-133.18 415.55,-127.7 405.04,-126.34 406.48,-133.18"/>
</a>
</g>
</g>
<!-- Node7 -->
<g id="Node000007" class="node">
<title>Node7</title>
<g id="a_Node000007"><a xlink:href="../../d0/dce/namespaceml_1_1core_1_1anonymous__namespace_02_c_data_frame_row_slice_8cc_03.html#a3f9440ffea8be0c2de378423fd898aa4" target="_top" xlink:title="Checksum vec.">
<polygon fill="white" stroke="#666666" points="381.5,-101.75 208.75,-101.75 208.75,-60 381.5,-60 381.5,-101.75"/>
<text text-anchor="start" x="216.75" y="-88.25" font-family="Helvetica,sans-Serif" font-size="10.00">ml::core::anonymous</text>
<text text-anchor="start" x="216.75" y="-77" font-family="Helvetica,sans-Serif" font-size="10.00">_namespace{CDataFrameRowSlice</text>
<text text-anchor="middle" x="295.12" y="-65.75" font-family="Helvetica,sans-Serif" font-size="10.00">::cc}::computeChecksum</text>
</a>
</g>
</g>
<!-- Node1&#45;&gt;Node7 -->
<g id="edge6_Node000001_Node000007" class="edge">
<title>Node1&#45;&gt;Node7</title>
<g id="a_edge6_Node000001_Node000007"><a xlink:title=" ">
<path fill="none" stroke="#63b8ff" d="M405.8,-104C397.96,-102.35 389.83,-100.63 381.69,-98.92"/>
<polygon fill="#63b8ff" stroke="#63b8ff" points="405.04,-107.41 415.55,-106.05 406.48,-100.57 405.04,-107.41"/>
</a>
</g>
</g>
<!-- Node9 -->
<g id="Node000009" class="node">
<title>Node9</title>
<g id="a_Node000009"><a xlink:href="../../d1/dc5/structml_1_1core_1_1hash__detail_1_1_s_murmur_hash_for_architecture_3_018_01_4.html#a2f06d272e88a21b625fda41db0cd9b89" target="_top" xlink:title=" ">
<polygon fill="white" stroke="#666666" points="371,-41.75 219.25,-41.75 219.25,0 371,0 371,-41.75"/>
<text text-anchor="start" x="227.25" y="-28.25" font-family="Helvetica,sans-Serif" font-size="10.00">ml::core::hash_detail</text>
<text text-anchor="start" x="227.25" y="-17" font-family="Helvetica,sans-Serif" font-size="10.00">::SMurmurHashForArchitecture</text>
<text text-anchor="middle" x="295.12" y="-5.75" font-family="Helvetica,sans-Serif" font-size="10.00">&lt; 8 &gt;::hash</text>
</a>
</g>
</g>
<!-- Node1&#45;&gt;Node9 -->
<g id="edge9_Node000001_Node000009" class="edge">
<title>Node1&#45;&gt;Node9</title>
<g id="a_edge9_Node000001_Node000009"><a xlink:title=" ">
<path fill="none" stroke="#63b8ff" d="M441.65,-93.88C425.4,-79.99 403.3,-62.73 381.5,-50.88 375.7,-47.72 369.51,-44.8 363.21,-42.11"/>
<polygon fill="#63b8ff" stroke="#63b8ff" points="439.06,-96.27 448.9,-100.21 443.67,-90.99 439.06,-96.27"/>
</a>
</g>
</g>
<!-- Node4 -->
<g id="Node000004" class="node">
<title>Node4</title>
<g id="a_Node000004"><a xlink:href="../../d8/d57/_c_packed_bit_vector_test_8cc.html#a260a41e71273cc7881590a1d0bb08082" target="_top" xlink:title=" ">
<polygon fill="white" stroke="#666666" points="160,-206.5 12.75,-206.5 12.75,-187.25 160,-187.25 160,-206.5"/>
<text text-anchor="middle" x="86.38" y="-193" font-family="Helvetica,sans-Serif" font-size="10.00">BOOST_AUTO_TEST_CASE</text>
</a>
</g>
</g>
<!-- Node3&#45;&gt;Node4 -->
<g id="edge3_Node000003_Node000004" class="edge">
<title>Node3&#45;&gt;Node4</title>
<g id="a_edge3_Node000003_Node000004"><a xlink:title=" ">
<path fill="none" stroke="#63b8ff" d="M214.68,-169.93C200.71,-172.92 186.31,-175.99 172.75,-178.88 160.6,-181.46 147.47,-184.23 135.24,-186.81"/>
<polygon fill="#63b8ff" stroke="#63b8ff" points="215.24,-173.39 224.29,-167.87 213.78,-166.55 215.24,-173.39"/>
</a>
</g>
</g>
<!-- Node5 -->
<g id="Node000005" class="node">
<title>Node5</title>
<g id="a_Node000005"><a xlink:href="../../d8/d57/_c_packed_bit_vector_test_8cc.html#a1d68c9c9ad2692e9d6ddacc5a88211ac" target="_top" xlink:title=" ">
<polygon fill="white" stroke="#666666" points="160,-169.5 12.75,-169.5 12.75,-150.25 160,-150.25 160,-169.5"/>
<text text-anchor="middle" x="86.38" y="-156" font-family="Helvetica,sans-Serif" font-size="10.00">BOOST_AUTO_TEST_CASE</text>
</a>
</g>
</g>
<!-- Node3&#45;&gt;Node5 -->
<g id="edge4_Node000003_Node000005" class="edge">
<title>Node3&#45;&gt;Node5</title>
<g id="a_edge4_Node000003_Node000005"><a xlink:title=" ">
<path fill="none" stroke="#63b8ff" d="M214.1,-155.58C196.41,-156.18 177.76,-156.81 160.36,-157.4"/>
<polygon fill="#63b8ff" stroke="#63b8ff" points="214.18,-159.08 224.05,-155.25 213.94,-152.09 214.18,-159.08"/>
</a>
</g>
</g>
<!-- Node6 -->
<g id="Node000006" class="node">
<title>Node6</title>
<g id="a_Node000006"><a xlink:href="../../d8/d57/_c_packed_bit_vector_test_8cc.html#aa4a029c3579b1bc257dc12fa9b9bef3c" target="_top" xlink:title=" ">
<polygon fill="white" stroke="#666666" points="160,-132.5 12.75,-132.5 12.75,-113.25 160,-113.25 160,-132.5"/>
<text text-anchor="middle" x="86.38" y="-119" font-family="Helvetica,sans-Serif" font-size="10.00">BOOST_AUTO_TEST_CASE</text>
</a>
</g>
</g>
<!-- Node3&#45;&gt;Node6 -->
<g id="edge5_Node000003_Node000006" class="edge">
<title>Node3&#45;&gt;Node6</title>
<g id="a_edge5_Node000003_Node000006"><a xlink:title=" ">
<path fill="none" stroke="#63b8ff" d="M214.25,-141.29C195.3,-138.54 175.24,-135.63 156.81,-132.95"/>
<polygon fill="#63b8ff" stroke="#63b8ff" points="213.67,-144.74 224.07,-142.71 214.68,-137.81 213.67,-144.74"/>
</a>
</g>
</g>
<!-- Node7&#45;&gt;Node7 -->
<g id="edge7_Node000007_Node000007" class="edge">
<title>Node7&#45;&gt;Node7</title>
<g id="a_edge7_Node000007_Node000007"><a xlink:title=" ">
<path fill="none" stroke="#63b8ff" d="M323.56,-112.86C318.65,-117.01 309.17,-119.75 295.12,-119.75 270.83,-119.75 260.2,-111.55 263.24,-102.07"/>
<polygon fill="#63b8ff" stroke="#63b8ff" points="326.84,-114.1 326.55,-103.51 320.17,-111.97 326.84,-114.1"/>
</a>
</g>
</g>
<!-- Node8 -->
<g id="Node000008" class="node">
<title>Node8</title>
<g id="a_Node000008"><a xlink:href="../../d0/dce/namespaceml_1_1core_1_1anonymous__namespace_02_c_data_frame_row_slice_8cc_03.html#a17e96d67ef6e2d0a9f20c2e8ebce5dfc" target="_top" xlink:title="Checksum rows and docHashes.">
<polygon fill="white" stroke="#666666" points="172.75,-94.75 0,-94.75 0,-53 172.75,-53 172.75,-94.75"/>
<text text-anchor="start" x="8" y="-81.25" font-family="Helvetica,sans-Serif" font-size="10.00">ml::core::anonymous</text>
<text text-anchor="start" x="8" y="-70" font-family="Helvetica,sans-Serif" font-size="10.00">_namespace{CDataFrameRowSlice</text>
<text text-anchor="middle" x="86.38" y="-58.75" font-family="Helvetica,sans-Serif" font-size="10.00">::cc}::computeChecksum</text>
</a>
</g>
</g>
<!-- Node7&#45;&gt;Node8 -->
<g id="edge8_Node000007_Node000008" class="edge">
<title>Node7&#45;&gt;Node8</title>
<g id="a_edge8_Node000007_Node000008"><a xlink:title=" ">
<path fill="none" stroke="#63b8ff" d="M197.26,-77.6C189.23,-77.32 181.16,-77.05 173.23,-76.78"/>
<polygon fill="#63b8ff" stroke="#63b8ff" points="196.91,-81.09 207.03,-77.93 197.15,-74.09 196.91,-81.09"/>
</a>
</g>
</g>
</g>
</svg>
