<?xml version="1.0" encoding="UTF-8" standalone="no"?>
<!DOCTYPE svg PUBLIC "-//W3C//DTD SVG 1.1//EN"
 "http://www.w3.org/Graphics/SVG/1.1/DTD/svg11.dtd">
<!-- Generated by graphviz version 10.0.1 (20240210.2158)
 -->
<!-- Title: ml::model::SAttributeProbability::operator&lt; Pages: 1 -->
<svg width="678pt" height="98pt"
 viewBox="0.00 0.00 678.00 98.12" xmlns="http://www.w3.org/2000/svg" xmlns:xlink="http://www.w3.org/1999/xlink">
<g id="graph0" class="graph" transform="scale(1 1) rotate(0) translate(4 94.12)">
<title>ml::model::SAttributeProbability::operator&lt;</title>
<!-- Node1 -->
<g id="Node000001" class="node">
<title>Node1</title>
<g id="a_Node000001"><a xlink:title=" ">
<polygon fill="#999999" stroke="#666666" points="154,-63.12 0,-63.12 0,-32.62 154,-32.62 154,-63.12"/>
<text text-anchor="start" x="8" y="-49.62" font-family="Helvetica,sans-Serif" font-size="10.00">ml::model::SAttributeProbability</text>
<text text-anchor="middle" x="77" y="-38.38" font-family="Helvetica,sans-Serif" font-size="10.00">::operator&lt;</text>
</a>
</g>
</g>
<!-- Node2 -->
<g id="Node000002" class="node">
<title>Node2</title>
<g id="a_Node000002"><a xlink:href="../../d6/d9a/classml_1_1model__t_1_1_c_result_type.html#a767214f21d9804bce11b45381e004b10" target="_top" xlink:title="Get as an unsigned integer.">
<polygon fill="white" stroke="#666666" points="323,-90.12 193,-90.12 193,-59.62 323,-59.62 323,-90.12"/>
<text text-anchor="start" x="201" y="-76.62" font-family="Helvetica,sans-Serif" font-size="10.00">ml::model_t::CResultType</text>
<text text-anchor="middle" x="258" y="-65.38" font-family="Helvetica,sans-Serif" font-size="10.00">::asUint</text>
</a>
</g>
</g>
<!-- Node1&#45;&gt;Node2 -->
<g id="edge1_Node000001_Node000002" class="edge">
<title>Node1&#45;&gt;Node2</title>
<g id="a_edge1_Node000001_Node000002"><a xlink:title=" ">
<path fill="none" stroke="#63b8ff" d="M154.43,-59.4C163.38,-60.75 172.52,-62.13 181.46,-63.48"/>
<polygon fill="#63b8ff" stroke="#63b8ff" points="180.74,-66.91 191.15,-64.94 181.79,-59.99 180.74,-66.91"/>
</a>
</g>
</g>
<!-- Node3 -->
<g id="Node000003" class="node">
<title>Node3</title>
<g id="a_Node000003"><a xlink:href="../../dc/d5c/classml_1_1maths_1_1common_1_1_c_orderings.html#a5a201aef02e6c31059f2ce7699456e60" target="_top" xlink:title="Calls lexicographicalCompareWith supplying std::less&lt;&gt; for comparison.">
<polygon fill="white" stroke="#666666" points="326,-41.75 190,-41.75 190,0 326,0 326,-41.75"/>
<text text-anchor="start" x="198" y="-28.25" font-family="Helvetica,sans-Serif" font-size="10.00">ml::maths::common::</text>
<text text-anchor="start" x="198" y="-17" font-family="Helvetica,sans-Serif" font-size="10.00">COrderings::lexicographical</text>
<text text-anchor="middle" x="258" y="-5.75" font-family="Helvetica,sans-Serif" font-size="10.00">Compare</text>
</a>
</g>
</g>
<!-- Node1&#45;&gt;Node3 -->
<g id="edge2_Node000001_Node000003" class="edge">
<title>Node1&#45;&gt;Node3</title>
<g id="a_edge2_Node000001_Node000003"><a xlink:title=" ">
<path fill="none" stroke="#63b8ff" d="M154.43,-36.35C162.38,-35.15 170.46,-33.93 178.43,-32.73"/>
<polygon fill="#63b8ff" stroke="#63b8ff" points="178.72,-36.22 188.09,-31.27 177.68,-29.3 178.72,-36.22"/>
</a>
</g>
</g>
<!-- Node4 -->
<g id="Node000004" class="node">
<title>Node4</title>
<g id="a_Node000004"><a xlink:href="../../dc/d5c/classml_1_1maths_1_1common_1_1_c_orderings.html#ae59743d66349e20f589c98333e2118ff" target="_top" xlink:title=" ">
<polygon fill="white" stroke="#666666" points="498,-41.75 362,-41.75 362,0 498,0 498,-41.75"/>
<text text-anchor="start" x="370" y="-28.25" font-family="Helvetica,sans-Serif" font-size="10.00">ml::maths::common::</text>
<text text-anchor="start" x="370" y="-17" font-family="Helvetica,sans-Serif" font-size="10.00">COrderings::lexicographical</text>
<text text-anchor="middle" x="430" y="-5.75" font-family="Helvetica,sans-Serif" font-size="10.00">CompareWith</text>
</a>
</g>
</g>
<!-- Node3&#45;&gt;Node4 -->
<g id="edge3_Node000003_Node000004" class="edge">
<title>Node3&#45;&gt;Node4</title>
<g id="a_edge3_Node000003_Node000004"><a xlink:title=" ">
<path fill="none" stroke="#63b8ff" d="M326.19,-20.88C334.14,-20.88 342.3,-20.88 350.39,-20.88"/>
<polygon fill="#63b8ff" stroke="#63b8ff" points="350.23,-24.38 360.23,-20.88 350.23,-17.38 350.23,-24.38"/>
</a>
</g>
</g>
<!-- Node5 -->
<g id="Node000005" class="node">
<title>Node5</title>
<g id="a_Node000005"><a xlink:href="../../dc/d5c/classml_1_1maths_1_1common_1_1_c_orderings.html#ac28e26aa59df21d5c8b12b9ca580b957" target="_top" xlink:title=" ">
<polygon fill="white" stroke="#666666" points="670,-41.75 534,-41.75 534,0 670,0 670,-41.75"/>
<text text-anchor="start" x="542" y="-28.25" font-family="Helvetica,sans-Serif" font-size="10.00">ml::maths::common::</text>
<text text-anchor="start" x="542" y="-17" font-family="Helvetica,sans-Serif" font-size="10.00">COrderings::lexicographical</text>
<text text-anchor="middle" x="602" y="-5.75" font-family="Helvetica,sans-Serif" font-size="10.00">CompareAt</text>
</a>
</g>
</g>
<!-- Node4&#45;&gt;Node5 -->
<g id="edge4_Node000004_Node000005" class="edge">
<title>Node4&#45;&gt;Node5</title>
<g id="a_edge4_Node000004_Node000005"><a xlink:title=" ">
<path fill="none" stroke="#63b8ff" d="M498.19,-20.88C506.14,-20.88 514.3,-20.88 522.39,-20.88"/>
<polygon fill="#63b8ff" stroke="#63b8ff" points="522.23,-24.38 532.23,-20.88 522.23,-17.38 522.23,-24.38"/>
</a>
</g>
</g>
<!-- Node5&#45;&gt;Node5 -->
<g id="edge5_Node000005_Node000005" class="edge">
<title>Node5&#45;&gt;Node5</title>
<g id="a_edge5_Node000005_Node000005"><a xlink:title=" ">
<path fill="none" stroke="#63b8ff" d="M570.25,-42.07C567.23,-51.55 577.81,-59.75 602,-59.75 615.98,-59.75 625.42,-57.01 630.31,-52.86"/>
<polygon fill="#63b8ff" stroke="#63b8ff" points="633.59,-54.1 633.29,-43.51 626.92,-51.98 633.59,-54.1"/>
</a>
</g>
</g>
</g>
</svg>
