<?xml version="1.0" encoding="UTF-8" standalone="no"?>
<!DOCTYPE svg PUBLIC "-//W3C//DTD SVG 1.1//EN"
 "http://www.w3.org/Graphics/SVG/1.1/DTD/svg11.dtd">
<!-- Generated by graphviz version 10.0.1 (20240210.2158)
 -->
<!-- Title: include/maths/common/CAnnotatedVector.h Pages: 1 -->
<!--zoomable 393 -->

<svg id="main" version="1.1" xmlns="http://www.w3.org/2000/svg" xmlns:xlink="http://www.w3.org/1999/xlink" xml:space="preserve" onload="init(evt)">
<style type="text/css"><![CDATA[
.node, .edge {opacity: 0.7;}
.node.selected, .edge.selected {opacity: 1;}
.edge:hover path { stroke: red; }
.edge:hover polygon { stroke: red; fill: red; }
]]></style>

<defs>
  <circle id="rim" cx="0" cy="0" r="7"/>
  <circle id="rim2" cx="0" cy="0" r="3.5"/>
  <g id="zoomPlus">
    <use xlink:href="#rim" fill="#404040"><set attributeName="fill" to="#808080" begin="zoomplus.mouseover" end="zoomplus.mouseout"/></use>
    <path d="M-4,0h8M0,-4v8" fill="none" stroke="white" stroke-width="1.5" pointer-events="none"/>
  </g>
  <g id="zoomMin">
    <use xlink:href="#rim" fill="#404040"><set attributeName="fill" to="#808080" begin="zoomminus.mouseover" end="zoomminus.mouseout"/></use>
    <path d="M-4,0h8" fill="none" stroke="white" stroke-width="1.5" pointer-events="none"/>
  </g>
  <g id="arrowUp" transform="translate(30 24)">
    <use xlink:href="#rim"/>
    <path pointer-events="none" fill="none" stroke="white" stroke-width="1.5" d="M0,-3.0v7 M-2.5,-0.5L0,-3.0L2.5,-0.5"/>
  </g>
  <g id="arrowRight" transform="rotate(90) translate(36 -43)">
    <use xlink:href="#rim"/>
    <path pointer-events="none" fill="none" stroke="white" stroke-width="1.5" d="M0,-3.0v7 M-2.5,-0.5L0,-3.0L2.5,-0.5"/>
  </g>
  <g id="arrowDown" transform="rotate(180) translate(-30 -48)">
    <use xlink:href="#rim"/>
    <path pointer-events="none" fill="none" stroke="white" stroke-width="1.5" d="M0,-3.0v7 M-2.5,-0.5L0,-3.0L2.5,-0.5"/>
  </g>
  <g id="arrowLeft" transform="rotate(270) translate(-36 17)">
    <use xlink:href="#rim"/>
    <path pointer-events="none" fill="none" stroke="white" stroke-width="1.5" d="M0,-3.0v7 M-2.5,-0.5L0,-3.0L2.5,-0.5"/>
  </g>
  <g id="resetDef">
    <use xlink:href="#rim2" fill="#404040"><set attributeName="fill" to="#808080" begin="reset.mouseover" end="reset.mouseout"/></use>
  </g>
</defs>
<script type="application/ecmascript">
var viewWidth = 1950;
var viewHeight = 393;
var sectionId = 'dynsection-0';
</script>
<script type="application/ecmascript" xlink:href="../../svg.min.js"/>
<svg id="graph" class="graph">
<g id="viewport">
<title>include/maths/common/CAnnotatedVector.h</title>
<!-- Node1 -->
<g id="Node000001" class="node">
<title>Node1</title>
<g id="a_Node000001"><a xlink:title=" ">
<polygon fill="#999999" stroke="#666666" points="629.04,-384.5 511.79,-384.5 511.79,-354 629.04,-354 629.04,-384.5"/>
<text text-anchor="start" x="519.79" y="-371" font-family="Helvetica,sans-Serif" font-size="10.00">include/maths/common</text>
<text text-anchor="middle" x="570.41" y="-359.75" font-family="Helvetica,sans-Serif" font-size="10.00">/CAnnotatedVector.h</text>
</a>
</g>
</g>
<!-- Node2 -->
<g id="Node000002" class="node">
<title>Node2</title>
<g id="a_Node000002"><a xlink:href="../../d7/d42/_c_memory_dec_8h.html" target="_top" xlink:title=" ">
<polygon fill="white" stroke="#666666" points="1205.79,-262.75 1099.04,-262.75 1099.04,-243.5 1205.79,-243.5 1205.79,-262.75"/>
<text text-anchor="middle" x="1152.41" y="-249.25" font-family="Helvetica,sans-Serif" font-size="10.00">core/CMemoryDec.h</text>
</a>
</g>
</g>
<!-- Node1&#45;&gt;Node2 -->
<g id="edge1_Node000001_Node000002" class="edge">
<title>Node1&#45;&gt;Node2</title>
<g id="a_edge1_Node000001_Node000002"><a xlink:title=" ">
<path fill="none" stroke="#63b8ff" d="M629.42,-356.68C741.48,-334.7 983.8,-287.19 1094.78,-265.43"/>
<polygon fill="#63b8ff" stroke="#63b8ff" points="1095.44,-268.86 1104.58,-263.51 1094.09,-262 1095.44,-268.86"/>
</a>
</g>
</g>
<!-- Node19 -->
<g id="Node000019" class="node">
<title>Node19</title>
<g id="a_Node000019"><a xlink:title=" ">
<polygon fill="#e0e0e0" stroke="#999999" points="550.54,-135.38 502.29,-135.38 502.29,-116.12 550.54,-116.12 550.54,-135.38"/>
<text text-anchor="middle" x="526.41" y="-121.88" font-family="Helvetica,sans-Serif" font-size="10.00">cstddef</text>
</a>
</g>
</g>
<!-- Node1&#45;&gt;Node19 -->
<g id="edge56_Node000001_Node000019" class="edge">
<title>Node1&#45;&gt;Node19</title>
<g id="a_edge56_Node000001_Node000019"><a xlink:title=" ">
<path fill="none" stroke="#63b8ff" d="M530.52,-353.71C514.38,-345.72 497.26,-334.09 487.41,-318 454.64,-264.47 456.37,-235.38 479.41,-177 484.65,-163.73 495.23,-151.9 505.03,-143.06"/>
<polygon fill="#63b8ff" stroke="#63b8ff" points="507.08,-145.92 512.48,-136.8 502.57,-140.56 507.08,-145.92"/>
</a>
</g>
</g>
<!-- Node21 -->
<g id="Node000021" class="node">
<title>Node21</title>
<g id="a_Node000021"><a xlink:href="../../d0/dc0/_c_type_traits_8h.html" target="_top" xlink:title=" ">
<polygon fill="white" stroke="#666666" points="644.41,-318 496.41,-318 496.41,-298.75 644.41,-298.75 644.41,-318"/>
<text text-anchor="middle" x="570.41" y="-304.5" font-family="Helvetica,sans-Serif" font-size="10.00">maths/common/CTypeTraits.h</text>
</a>
</g>
</g>
<!-- Node1&#45;&gt;Node21 -->
<g id="edge24_Node000001_Node000021" class="edge">
<title>Node1&#45;&gt;Node21</title>
<g id="a_edge24_Node000001_Node000021"><a xlink:title=" ">
<path fill="none" stroke="#63b8ff" d="M570.41,-353.7C570.41,-346.46 570.41,-337.59 570.41,-329.69"/>
<polygon fill="#63b8ff" stroke="#63b8ff" points="573.91,-329.96 570.41,-319.96 566.91,-329.96 573.91,-329.96"/>
</a>
</g>
</g>
<!-- Node3 -->
<g id="Node000003" class="node">
<title>Node3</title>
<g id="a_Node000003"><a xlink:href="../../db/d45/_c_memory_fwd_8h.html" target="_top" xlink:title=" ">
<polygon fill="white" stroke="#666666" points="1326.16,-201.88 1218.66,-201.88 1218.66,-182.62 1326.16,-182.62 1326.16,-201.88"/>
<text text-anchor="middle" x="1272.41" y="-188.38" font-family="Helvetica,sans-Serif" font-size="10.00">core/CMemoryFwd.h</text>
</a>
</g>
</g>
<!-- Node2&#45;&gt;Node3 -->
<g id="edge2_Node000002_Node000003" class="edge">
<title>Node2&#45;&gt;Node3</title>
<g id="a_edge2_Node000002_Node000003"><a xlink:title=" ">
<path fill="none" stroke="#63b8ff" d="M1170.9,-243.05C1190.42,-233.48 1221.45,-218.25 1244.07,-207.16"/>
<polygon fill="#63b8ff" stroke="#63b8ff" points="1245.31,-210.45 1252.74,-202.9 1242.22,-204.16 1245.31,-210.45"/>
</a>
</g>
</g>
<!-- Node6 -->
<g id="Node000006" class="node">
<title>Node6</title>
<g id="a_Node000006"><a xlink:title=" ">
<polygon fill="#e0e0e0" stroke="#999999" points="1455.04,-74.5 1403.79,-74.5 1403.79,-55.25 1455.04,-55.25 1455.04,-74.5"/>
<text text-anchor="middle" x="1429.41" y="-61" font-family="Helvetica,sans-Serif" font-size="10.00">memory</text>
</a>
</g>
</g>
<!-- Node2&#45;&gt;Node6 -->
<g id="edge20_Node000002_Node000006" class="edge">
<title>Node2&#45;&gt;Node6</title>
<g id="a_edge20_Node000002_Node000006"><a xlink:title=" ">
<path fill="none" stroke="#63b8ff" d="M1206.19,-245.34C1243.83,-239.1 1294.49,-227.66 1335.41,-207.5 1354.84,-197.93 1356.44,-190.45 1373.41,-177 1393.76,-160.87 1406.52,-163.54 1419.41,-141 1429,-124.24 1430.88,-102 1430.74,-86.08"/>
<polygon fill="#63b8ff" stroke="#63b8ff" points="1434.25,-86.26 1430.36,-76.4 1427.26,-86.53 1434.25,-86.26"/>
</a>
</g>
</g>
<!-- Node8 -->
<g id="Node000008" class="node">
<title>Node8</title>
<g id="a_Node000008"><a xlink:title=" ">
<polygon fill="#e0e0e0" stroke="#999999" points="1060.41,-74.5 1020.41,-74.5 1020.41,-55.25 1060.41,-55.25 1060.41,-74.5"/>
<text text-anchor="middle" x="1040.41" y="-61" font-family="Helvetica,sans-Serif" font-size="10.00">string</text>
</a>
</g>
</g>
<!-- Node2&#45;&gt;Node8 -->
<g id="edge21_Node000002_Node000008" class="edge">
<title>Node2&#45;&gt;Node8</title>
<g id="a_edge21_Node000002_Node000008"><a xlink:title=" ">
<path fill="none" stroke="#63b8ff" d="M1131.37,-243.05C1116.15,-235.52 1096.11,-223.47 1083.41,-207.5 1054.59,-171.23 1045.03,-115.79 1041.91,-86.18"/>
<polygon fill="#63b8ff" stroke="#63b8ff" points="1045.41,-86.03 1041.03,-76.39 1038.44,-86.66 1045.41,-86.03"/>
</a>
</g>
</g>
<!-- Node9 -->
<g id="Node000009" class="node">
<title>Node9</title>
<g id="a_Node000009"><a xlink:title=" ">
<polygon fill="#e0e0e0" stroke="#999999" points="1126.41,-135.38 1068.41,-135.38 1068.41,-116.12 1126.41,-116.12 1126.41,-135.38"/>
<text text-anchor="middle" x="1097.41" y="-121.88" font-family="Helvetica,sans-Serif" font-size="10.00">functional</text>
</a>
</g>
</g>
<!-- Node2&#45;&gt;Node9 -->
<g id="edge19_Node000002_Node000009" class="edge">
<title>Node2&#45;&gt;Node9</title>
<g id="a_edge19_Node000002_Node000009"><a xlink:title=" ">
<path fill="none" stroke="#63b8ff" d="M1151.29,-243.44C1149.21,-229.07 1143.95,-199.7 1133.41,-177 1128.04,-165.42 1119.88,-153.75 1112.69,-144.58"/>
<polygon fill="#63b8ff" stroke="#63b8ff" points="1115.45,-142.42 1106.41,-136.89 1110.03,-146.85 1115.45,-142.42"/>
</a>
</g>
</g>
<!-- Node11 -->
<g id="Node000011" class="node">
<title>Node11</title>
<g id="a_Node000011"><a xlink:title=" ">
<polygon fill="#e0e0e0" stroke="#999999" points="1206.29,-135.38 1144.54,-135.38 1144.54,-116.12 1206.29,-116.12 1206.29,-135.38"/>
<text text-anchor="middle" x="1175.41" y="-121.88" font-family="Helvetica,sans-Serif" font-size="10.00">type_traits</text>
</a>
</g>
</g>
<!-- Node2&#45;&gt;Node11 -->
<g id="edge22_Node000002_Node000011" class="edge">
<title>Node2&#45;&gt;Node11</title>
<g id="a_edge22_Node000002_Node000011"><a xlink:title=" ">
<path fill="none" stroke="#63b8ff" d="M1155.84,-243.03C1159.06,-234.11 1163.77,-220.05 1166.41,-207.5 1170.68,-187.24 1173.01,-163.67 1174.23,-147.24"/>
<polygon fill="#63b8ff" stroke="#63b8ff" points="1177.72,-147.52 1174.88,-137.31 1170.73,-147.06 1177.72,-147.52"/>
</a>
</g>
</g>
<!-- Node12 -->
<g id="Node000012" class="node">
<title>Node12</title>
<g id="a_Node000012"><a xlink:title=" ">
<polygon fill="#e0e0e0" stroke="#999999" points="1486.66,-207.5 1382.16,-207.5 1382.16,-177 1486.66,-177 1486.66,-207.5"/>
<text text-anchor="start" x="1390.16" y="-194" font-family="Helvetica,sans-Serif" font-size="10.00">boost/circular_buffer</text>
<text text-anchor="middle" x="1434.41" y="-182.75" font-family="Helvetica,sans-Serif" font-size="10.00">_fwd.hpp</text>
</a>
</g>
</g>
<!-- Node2&#45;&gt;Node12 -->
<g id="edge11_Node000002_Node000012" class="edge">
<title>Node2&#45;&gt;Node12</title>
<g id="a_edge11_Node000002_Node000012"><a xlink:title=" ">
<path fill="none" stroke="#63b8ff" d="M1197.12,-243.01C1240.81,-234.07 1309.22,-220 1368.41,-207.5 1369.23,-207.33 1370.05,-207.15 1370.88,-206.98"/>
<polygon fill="#63b8ff" stroke="#63b8ff" points="1371.29,-210.47 1380.35,-204.96 1369.84,-203.62 1371.29,-210.47"/>
</a>
</g>
</g>
<!-- Node13 -->
<g id="Node000013" class="node">
<title>Node13</title>
<g id="a_Node000013"><a xlink:title=" ">
<polygon fill="#e0e0e0" stroke="#999999" points="875.16,-141 749.66,-141 749.66,-110.5 875.16,-110.5 875.16,-141"/>
<text text-anchor="start" x="757.66" y="-127.5" font-family="Helvetica,sans-Serif" font-size="10.00">boost/container/container</text>
<text text-anchor="middle" x="812.41" y="-116.25" font-family="Helvetica,sans-Serif" font-size="10.00">_fwd.hpp</text>
</a>
</g>
</g>
<!-- Node2&#45;&gt;Node13 -->
<g id="edge12_Node000002_Node000013" class="edge">
<title>Node2&#45;&gt;Node13</title>
<g id="a_edge12_Node000002_Node000013"><a xlink:title=" ">
<path fill="none" stroke="#63b8ff" d="M1104.35,-243.03C1068.03,-235.45 1017.3,-223.35 974.41,-207.5 928.93,-190.69 879.42,-164.81 847.27,-146.9"/>
<polygon fill="#63b8ff" stroke="#63b8ff" points="849.21,-143.98 838.78,-142.13 845.78,-150.08 849.21,-143.98"/>
</a>
</g>
</g>
<!-- Node14 -->
<g id="Node000014" class="node">
<title>Node14</title>
<g id="a_Node000014"><a xlink:title=" ">
<polygon fill="#e0e0e0" stroke="#999999" points="1642.16,-207.5 1504.66,-207.5 1504.66,-177 1642.16,-177 1642.16,-207.5"/>
<text text-anchor="start" x="1512.66" y="-194" font-family="Helvetica,sans-Serif" font-size="10.00">boost/multi_index_container</text>
<text text-anchor="middle" x="1573.41" y="-182.75" font-family="Helvetica,sans-Serif" font-size="10.00">_fwd.hpp</text>
</a>
</g>
</g>
<!-- Node2&#45;&gt;Node14 -->
<g id="edge13_Node000002_Node000014" class="edge">
<title>Node2&#45;&gt;Node14</title>
<g id="a_edge13_Node000002_Node000014"><a xlink:title=" ">
<path fill="none" stroke="#63b8ff" d="M1206.01,-246.02C1271.36,-238.37 1385.47,-224.42 1493.44,-207.76"/>
<polygon fill="#63b8ff" stroke="#63b8ff" points="1493.7,-211.26 1503.05,-206.26 1492.63,-204.34 1493.7,-211.26"/>
</a>
</g>
</g>
<!-- Node15 -->
<g id="Node000015" class="node">
<title>Node15</title>
<g id="a_Node000015"><a xlink:title=" ">
<polygon fill="#e0e0e0" stroke="#999999" points="1792.16,-207.5 1660.66,-207.5 1660.66,-177 1792.16,-177 1792.16,-207.5"/>
<text text-anchor="start" x="1668.66" y="-194" font-family="Helvetica,sans-Serif" font-size="10.00">boost/unordered/unordered</text>
<text text-anchor="middle" x="1726.41" y="-182.75" font-family="Helvetica,sans-Serif" font-size="10.00">_map_fwd.hpp</text>
</a>
</g>
</g>
<!-- Node2&#45;&gt;Node15 -->
<g id="edge14_Node000002_Node000015" class="edge">
<title>Node2&#45;&gt;Node15</title>
<g id="a_edge14_Node000002_Node000015"><a xlink:title=" ">
<path fill="none" stroke="#63b8ff" d="M1206.15,-249.06C1295.79,-243.57 1481.7,-230.57 1648.97,-207.75"/>
<polygon fill="#63b8ff" stroke="#63b8ff" points="1649.29,-211.24 1658.72,-206.4 1648.33,-204.3 1649.29,-211.24"/>
</a>
</g>
</g>
<!-- Node16 -->
<g id="Node000016" class="node">
<title>Node16</title>
<g id="a_Node000016"><a xlink:title=" ">
<polygon fill="#e0e0e0" stroke="#999999" points="1942.16,-207.5 1810.66,-207.5 1810.66,-177 1942.16,-177 1942.16,-207.5"/>
<text text-anchor="start" x="1818.66" y="-194" font-family="Helvetica,sans-Serif" font-size="10.00">boost/unordered/unordered</text>
<text text-anchor="middle" x="1876.41" y="-182.75" font-family="Helvetica,sans-Serif" font-size="10.00">_set_fwd.hpp</text>
</a>
</g>
</g>
<!-- Node2&#45;&gt;Node16 -->
<g id="edge15_Node000002_Node000016" class="edge">
<title>Node2&#45;&gt;Node16</title>
<g id="a_edge15_Node000002_Node000016"><a xlink:title=" ">
<path fill="none" stroke="#63b8ff" d="M1206.05,-250.6C1315.55,-247.01 1572.86,-236.21 1798.81,-207.73"/>
<polygon fill="#63b8ff" stroke="#63b8ff" points="1799.25,-211.2 1808.73,-206.46 1798.36,-204.25 1799.25,-211.2"/>
</a>
</g>
</g>
<!-- Node17 -->
<g id="Node000017" class="node">
<title>Node17</title>
<g id="a_Node000017"><a xlink:title=" ">
<polygon fill="#e0e0e0" stroke="#999999" points="1124.29,-201.88 1092.54,-201.88 1092.54,-182.62 1124.29,-182.62 1124.29,-201.88"/>
<text text-anchor="middle" x="1108.41" y="-188.38" font-family="Helvetica,sans-Serif" font-size="10.00">any</text>
</a>
</g>
</g>
<!-- Node2&#45;&gt;Node17 -->
<g id="edge16_Node000002_Node000017" class="edge">
<title>Node2&#45;&gt;Node17</title>
<g id="a_edge16_Node000002_Node000017"><a xlink:title=" ">
<path fill="none" stroke="#63b8ff" d="M1145.73,-243.18C1139.46,-234.8 1129.9,-222.01 1122.03,-211.47"/>
<polygon fill="#63b8ff" stroke="#63b8ff" points="1124.86,-209.4 1116.07,-203.49 1119.25,-213.59 1124.86,-209.4"/>
</a>
</g>
</g>
<!-- Node18 -->
<g id="Node000018" class="node">
<title>Node18</title>
<g id="a_Node000018"><a xlink:title=" ">
<polygon fill="#e0e0e0" stroke="#999999" points="846.29,-201.88 808.54,-201.88 808.54,-182.62 846.29,-182.62 846.29,-201.88"/>
<text text-anchor="middle" x="827.41" y="-188.38" font-family="Helvetica,sans-Serif" font-size="10.00">array</text>
</a>
</g>
</g>
<!-- Node2&#45;&gt;Node18 -->
<g id="edge17_Node000002_Node000018" class="edge">
<title>Node2&#45;&gt;Node18</title>
<g id="a_edge17_Node000002_Node000018"><a xlink:title=" ">
<path fill="none" stroke="#63b8ff" d="M1098.79,-248.07C1039.54,-242.64 941.74,-230.86 860.41,-207.5 859.06,-207.11 857.7,-206.68 856.33,-206.22"/>
<polygon fill="#63b8ff" stroke="#63b8ff" points="857.96,-203.1 847.37,-202.78 855.45,-209.63 857.96,-203.1"/>
</a>
</g>
</g>
<!-- Node2&#45;&gt;Node19 -->
<g id="edge18_Node000002_Node000019" class="edge">
<title>Node2&#45;&gt;Node19</title>
<g id="a_edge18_Node000002_Node000019"><a xlink:title=" ">
<path fill="none" stroke="#63b8ff" d="M1098.77,-248.94C1046.73,-244.39 966.34,-233.49 901.41,-207.5 878.64,-198.38 878.43,-185.49 855.41,-177 731.07,-131.15 687.34,-175.62 559.41,-141 558.06,-140.63 556.69,-140.22 555.31,-139.77"/>
<polygon fill="#63b8ff" stroke="#63b8ff" points="556.93,-136.65 546.34,-136.38 554.46,-143.19 556.93,-136.65"/>
</a>
</g>
</g>
<!-- Node20 -->
<g id="Node000020" class="node">
<title>Node20</title>
<g id="a_Node000020"><a xlink:title=" ">
<polygon fill="#e0e0e0" stroke="#999999" points="401.91,-74.5 358.91,-74.5 358.91,-55.25 401.91,-55.25 401.91,-74.5"/>
<text text-anchor="middle" x="380.41" y="-61" font-family="Helvetica,sans-Serif" font-size="10.00">vector</text>
</a>
</g>
</g>
<!-- Node2&#45;&gt;Node20 -->
<g id="edge23_Node000002_Node000020" class="edge">
<title>Node2&#45;&gt;Node20</title>
<g id="a_edge23_Node000002_Node000020"><a xlink:title=" ">
<path fill="none" stroke="#63b8ff" d="M1133.47,-243.14C1114.97,-234.3 1086.09,-220.3 1061.41,-207.5 981.79,-166.19 970.25,-136.57 884.41,-110.5 795.85,-83.61 511.56,-70.75 413.8,-67.04"/>
<polygon fill="#63b8ff" stroke="#63b8ff" points="413.95,-63.55 403.83,-66.68 413.69,-70.54 413.95,-63.55"/>
</a>
</g>
</g>
<!-- Node4 -->
<g id="Node000004" class="node">
<title>Node4</title>
<g id="a_Node000004"><a xlink:href="../../dd/d19/_c_memory_usage_8h.html" target="_top" xlink:title=" ">
<polygon fill="white" stroke="#666666" points="1410.04,-135.38 1292.79,-135.38 1292.79,-116.12 1410.04,-116.12 1410.04,-135.38"/>
<text text-anchor="middle" x="1351.41" y="-121.88" font-family="Helvetica,sans-Serif" font-size="10.00">core/CMemoryUsage.h</text>
</a>
</g>
</g>
<!-- Node3&#45;&gt;Node4 -->
<g id="edge3_Node000003_Node000004" class="edge">
<title>Node3&#45;&gt;Node4</title>
<g id="a_edge3_Node000003_Node000004"><a xlink:title=" ">
<path fill="none" stroke="#63b8ff" d="M1283.4,-182.28C1295.83,-172.13 1316.32,-155.4 1331.57,-142.95"/>
<polygon fill="#63b8ff" stroke="#63b8ff" points="1333.56,-145.84 1339.1,-136.81 1329.14,-140.42 1333.56,-145.84"/>
</a>
</g>
</g>
<!-- Node3&#45;&gt;Node9 -->
<g id="edge8_Node000003_Node000009" class="edge">
<title>Node3&#45;&gt;Node9</title>
<g id="a_edge8_Node000003_Node000009"><a xlink:title=" ">
<path fill="none" stroke="#63b8ff" d="M1247.64,-182.23C1220.19,-172.21 1174.61,-155.54 1135.41,-141 1134.29,-140.58 1133.15,-140.16 1132,-139.73"/>
<polygon fill="#63b8ff" stroke="#63b8ff" points="1133.54,-136.57 1122.94,-136.35 1131.09,-143.13 1133.54,-136.57"/>
</a>
</g>
</g>
<!-- Node10 -->
<g id="Node000010" class="node">
<title>Node10</title>
<g id="a_Node000010"><a xlink:title=" ">
<polygon fill="#e0e0e0" stroke="#999999" points="1274.29,-135.38 1224.54,-135.38 1224.54,-116.12 1274.29,-116.12 1274.29,-135.38"/>
<text text-anchor="middle" x="1249.41" y="-121.88" font-family="Helvetica,sans-Serif" font-size="10.00">optional</text>
</a>
</g>
</g>
<!-- Node3&#45;&gt;Node10 -->
<g id="edge9_Node000003_Node000010" class="edge">
<title>Node3&#45;&gt;Node10</title>
<g id="a_edge9_Node000003_Node000010"><a xlink:title=" ">
<path fill="none" stroke="#63b8ff" d="M1269.22,-182.28C1265.92,-173.04 1260.68,-158.33 1256.41,-146.38"/>
<polygon fill="#63b8ff" stroke="#63b8ff" points="1259.75,-145.31 1253.09,-137.07 1253.16,-147.66 1259.75,-145.31"/>
</a>
</g>
</g>
<!-- Node3&#45;&gt;Node11 -->
<g id="edge10_Node000003_Node000011" class="edge">
<title>Node3&#45;&gt;Node11</title>
<g id="a_edge10_Node000003_Node000011"><a xlink:title=" ">
<path fill="none" stroke="#63b8ff" d="M1258.93,-182.28C1243.31,-171.89 1217.31,-154.61 1198.46,-142.08"/>
<polygon fill="#63b8ff" stroke="#63b8ff" points="1200.62,-139.31 1190.36,-136.69 1196.75,-145.14 1200.62,-139.31"/>
</a>
</g>
</g>
<!-- Node5 -->
<g id="Node000005" class="node">
<title>Node5</title>
<g id="a_Node000005"><a xlink:href="../../dd/d0e/core_2_import_export_8h.html" target="_top" xlink:title=" ">
<polygon fill="white" stroke="#666666" points="304.54,-19.25 202.29,-19.25 202.29,0 304.54,0 304.54,-19.25"/>
<text text-anchor="middle" x="253.41" y="-5.75" font-family="Helvetica,sans-Serif" font-size="10.00">core/ImportExport.h</text>
</a>
</g>
</g>
<!-- Node4&#45;&gt;Node5 -->
<g id="edge4_Node000004_Node000005" class="edge">
<title>Node4&#45;&gt;Node5</title>
<g id="a_edge4_Node000004_Node000005"><a xlink:title=" ">
<path fill="none" stroke="#63b8ff" d="M1322.54,-115.73C1271.88,-100.33 1163.42,-69.28 1069.41,-55.25 790.92,-13.69 453.8,-9.75 316.34,-10.08"/>
<polygon fill="#63b8ff" stroke="#63b8ff" points="316.33,-6.58 306.34,-10.11 316.36,-13.58 316.33,-6.58"/>
</a>
</g>
</g>
<!-- Node4&#45;&gt;Node6 -->
<g id="edge5_Node000004_Node000006" class="edge">
<title>Node4&#45;&gt;Node6</title>
<g id="a_edge5_Node000004_Node000006"><a xlink:title=" ">
<path fill="none" stroke="#63b8ff" d="M1363.26,-115.81C1375.29,-106.73 1394.15,-92.49 1408.66,-81.54"/>
<polygon fill="#63b8ff" stroke="#63b8ff" points="1410.37,-84.63 1416.25,-75.81 1406.16,-79.04 1410.37,-84.63"/>
</a>
</g>
</g>
<!-- Node7 -->
<g id="Node000007" class="node">
<title>Node7</title>
<g id="a_Node000007"><a xlink:title=" ">
<polygon fill="#e0e0e0" stroke="#999999" points="1377.04,-74.5 1325.79,-74.5 1325.79,-55.25 1377.04,-55.25 1377.04,-74.5"/>
<text text-anchor="middle" x="1351.41" y="-61" font-family="Helvetica,sans-Serif" font-size="10.00">ostream</text>
</a>
</g>
</g>
<!-- Node4&#45;&gt;Node7 -->
<g id="edge6_Node000004_Node000007" class="edge">
<title>Node4&#45;&gt;Node7</title>
<g id="a_edge6_Node000004_Node000007"><a xlink:title=" ">
<path fill="none" stroke="#63b8ff" d="M1351.41,-115.81C1351.41,-108.03 1351.41,-96.45 1351.41,-86.41"/>
<polygon fill="#63b8ff" stroke="#63b8ff" points="1354.91,-86.41 1351.41,-76.41 1347.91,-86.41 1354.91,-86.41"/>
</a>
</g>
</g>
<!-- Node4&#45;&gt;Node8 -->
<g id="edge7_Node000004_Node000008" class="edge">
<title>Node4&#45;&gt;Node8</title>
<g id="a_edge7_Node000004_Node000008"><a xlink:title=" ">
<path fill="none" stroke="#63b8ff" d="M1309.01,-115.69C1300.54,-113.93 1291.7,-112.13 1283.41,-110.5 1207.53,-95.58 1117.99,-79.54 1071.68,-71.36"/>
<polygon fill="#63b8ff" stroke="#63b8ff" points="1072.55,-67.96 1062.1,-69.67 1071.34,-74.85 1072.55,-67.96"/>
</a>
</g>
</g>
<!-- Node21&#45;&gt;Node11 -->
<g id="edge55_Node000021_Node000011" class="edge">
<title>Node21&#45;&gt;Node11</title>
<g id="a_edge55_Node000021_Node000011"><a xlink:title=" ">
<path fill="none" stroke="#63b8ff" d="M604.09,-298.32C692.06,-274.49 935.73,-207.27 1135.41,-141 1136.94,-140.49 1138.51,-139.97 1140.08,-139.43"/>
<polygon fill="#63b8ff" stroke="#63b8ff" points="1140.78,-142.89 1149.08,-136.31 1138.48,-136.28 1140.78,-142.89"/>
</a>
</g>
</g>
<!-- Node22 -->
<g id="Node000022" class="node">
<title>Node22</title>
<g id="a_Node000022"><a xlink:href="../../d6/d75/_c_linear_algebra_fwd_8h.html" target="_top" xlink:title=" ">
<polygon fill="white" stroke="#666666" points="402.04,-207.5 248.79,-207.5 248.79,-177 402.04,-177 402.04,-207.5"/>
<text text-anchor="start" x="256.79" y="-194" font-family="Helvetica,sans-Serif" font-size="10.00">maths/common/CLinearAlgebra</text>
<text text-anchor="middle" x="325.41" y="-182.75" font-family="Helvetica,sans-Serif" font-size="10.00">Fwd.h</text>
</a>
</g>
</g>
<!-- Node21&#45;&gt;Node22 -->
<g id="edge25_Node000021_Node000022" class="edge">
<title>Node21&#45;&gt;Node22</title>
<g id="a_edge25_Node000021_Node000022"><a xlink:title=" ">
<path fill="none" stroke="#63b8ff" d="M551.19,-298.42C511.74,-280.04 420.86,-237.71 367.21,-212.72"/>
<polygon fill="#63b8ff" stroke="#63b8ff" points="368.91,-209.65 358.37,-208.6 365.96,-216 368.91,-209.65"/>
</a>
</g>
</g>
<!-- Node25 -->
<g id="Node000025" class="node">
<title>Node25</title>
<g id="a_Node000025"><a xlink:href="../../d9/d32/_maths_types_8h.html" target="_top" xlink:title=" ">
<polygon fill="white" stroke="#666666" points="644.41,-262.75 496.41,-262.75 496.41,-243.5 644.41,-243.5 644.41,-262.75"/>
<text text-anchor="middle" x="570.41" y="-249.25" font-family="Helvetica,sans-Serif" font-size="10.00">maths/common/MathsTypes.h</text>
</a>
</g>
</g>
<!-- Node21&#45;&gt;Node25 -->
<g id="edge29_Node000021_Node000025" class="edge">
<title>Node21&#45;&gt;Node25</title>
<g id="a_edge29_Node000021_Node000025"><a xlink:title=" ">
<path fill="none" stroke="#63b8ff" d="M570.41,-298.58C570.41,-292.07 570.41,-282.92 570.41,-274.62"/>
<polygon fill="#63b8ff" stroke="#63b8ff" points="573.91,-274.62 570.41,-264.62 566.91,-274.62 573.91,-274.62"/>
</a>
</g>
</g>
<!-- Node22&#45;&gt;Node19 -->
<g id="edge28_Node000022_Node000019" class="edge">
<title>Node22&#45;&gt;Node19</title>
<g id="a_edge28_Node000022_Node000019"><a xlink:title=" ">
<path fill="none" stroke="#63b8ff" d="M379.28,-176.59C412.23,-167.24 455.08,-154.4 492.41,-141 493.36,-140.66 494.32,-140.31 495.29,-139.95"/>
<polygon fill="#63b8ff" stroke="#63b8ff" points="496.27,-143.32 504.28,-136.4 493.7,-136.81 496.27,-143.32"/>
</a>
</g>
</g>
<!-- Node23 -->
<g id="Node000023" class="node">
<title>Node23</title>
<g id="a_Node000023"><a xlink:href="../../d2/de5/maths_2common_2_import_export_8h.html" target="_top" xlink:title=" ">
<polygon fill="white" stroke="#666666" points="400.91,-135.38 249.91,-135.38 249.91,-116.12 400.91,-116.12 400.91,-135.38"/>
<text text-anchor="middle" x="325.41" y="-121.88" font-family="Helvetica,sans-Serif" font-size="10.00">maths/common/ImportExport.h</text>
</a>
</g>
</g>
<!-- Node22&#45;&gt;Node23 -->
<g id="edge26_Node000022_Node000023" class="edge">
<title>Node22&#45;&gt;Node23</title>
<g id="a_edge26_Node000022_Node000023"><a xlink:title=" ">
<path fill="none" stroke="#63b8ff" d="M325.41,-176.61C325.41,-167.83 325.41,-156.52 325.41,-146.9"/>
<polygon fill="#63b8ff" stroke="#63b8ff" points="328.91,-147.09 325.41,-137.09 321.91,-147.09 328.91,-147.09"/>
</a>
</g>
</g>
<!-- Node24 -->
<g id="Node000024" class="node">
<title>Node24</title>
<g id="a_Node000024"><a xlink:title=" ">
<polygon fill="#e0e0e0" stroke="#999999" points="483.79,-135.38 419.04,-135.38 419.04,-116.12 483.79,-116.12 483.79,-135.38"/>
<text text-anchor="middle" x="451.41" y="-121.88" font-family="Helvetica,sans-Serif" font-size="10.00">Eigen/Core</text>
</a>
</g>
</g>
<!-- Node22&#45;&gt;Node24 -->
<g id="edge27_Node000022_Node000024" class="edge">
<title>Node22&#45;&gt;Node24</title>
<g id="a_edge27_Node000022_Node000024"><a xlink:title=" ">
<path fill="none" stroke="#63b8ff" d="M354,-176.61C374.9,-165.92 403.09,-151.49 423.76,-140.9"/>
<polygon fill="#63b8ff" stroke="#63b8ff" points="425.16,-144.12 432.47,-136.45 421.97,-137.89 425.16,-144.12"/>
</a>
</g>
</g>
<!-- Node25&#45;&gt;Node9 -->
<g id="edge52_Node000025_Node000009" class="edge">
<title>Node25&#45;&gt;Node9</title>
<g id="a_edge52_Node000025_Node000009"><a xlink:title=" ">
<path fill="none" stroke="#63b8ff" d="M644.9,-243.92C702.79,-236.71 784.85,-224.67 855.41,-207.5 931.35,-189.02 1017.58,-157.65 1063.83,-139.94"/>
<polygon fill="#63b8ff" stroke="#63b8ff" points="1064.95,-143.26 1073.02,-136.4 1062.43,-136.73 1064.95,-143.26"/>
</a>
</g>
</g>
<!-- Node25&#45;&gt;Node18 -->
<g id="edge50_Node000025_Node000018" class="edge">
<title>Node25&#45;&gt;Node18</title>
<g id="a_edge50_Node000025_Node000018"><a xlink:title=" ">
<path fill="none" stroke="#63b8ff" d="M644.48,-243.03C690.01,-236.14 749.05,-224.84 799.41,-207.5 799.92,-207.33 800.42,-207.15 800.93,-206.96"/>
<polygon fill="#63b8ff" stroke="#63b8ff" points="802.33,-210.17 810.08,-202.94 799.51,-203.76 802.33,-210.17"/>
</a>
</g>
</g>
<!-- Node25&#45;&gt;Node19 -->
<g id="edge51_Node000025_Node000019" class="edge">
<title>Node25&#45;&gt;Node19</title>
<g id="a_edge51_Node000025_Node000019"><a xlink:title=" ">
<path fill="none" stroke="#63b8ff" d="M536.55,-243.14C518.58,-236.46 498.07,-225.33 487.41,-207.5 474.69,-186.22 492.89,-160.17 508.46,-143.52"/>
<polygon fill="#63b8ff" stroke="#63b8ff" points="510.55,-146.37 515.12,-136.81 505.59,-141.44 510.55,-146.37"/>
</a>
</g>
</g>
<!-- Node25&#45;&gt;Node20 -->
<g id="edge54_Node000025_Node000020" class="edge">
<title>Node25&#45;&gt;Node20</title>
<g id="a_edge54_Node000025_Node000020"><a xlink:title=" ">
<path fill="none" stroke="#63b8ff" d="M496.15,-251.51C376.41,-249.52 146.68,-241.27 73.41,-207.5 35.02,-189.81 21.81,-179.96 5.41,-141 -32.47,-50.97 141.89,-110.56 347.44,-74.49"/>
<polygon fill="#63b8ff" stroke="#63b8ff" points="347.81,-77.98 357.02,-72.73 346.55,-71.09 347.81,-77.98"/>
</a>
</g>
</g>
<!-- Node25&#45;&gt;Node23 -->
<g id="edge49_Node000025_Node000023" class="edge">
<title>Node25&#45;&gt;Node23</title>
<g id="a_edge49_Node000025_Node000023"><a xlink:title=" ">
<path fill="none" stroke="#63b8ff" d="M495.96,-252.98C408.77,-252.2 272.04,-244.83 239.41,-207.5 217.15,-182.04 259.39,-155.83 292.18,-140.43"/>
<polygon fill="#63b8ff" stroke="#63b8ff" points="293.35,-143.74 301.03,-136.44 290.47,-137.36 293.35,-143.74"/>
</a>
</g>
</g>
<!-- Node26 -->
<g id="Node000026" class="node">
<title>Node26</title>
<g id="a_Node000026"><a xlink:href="../../dd/d59/_c_float_storage_8h.html" target="_top" xlink:title=" ">
<polygon fill="white" stroke="#666666" points="191.91,-201.88 82.91,-201.88 82.91,-182.62 191.91,-182.62 191.91,-201.88"/>
<text text-anchor="middle" x="137.41" y="-188.38" font-family="Helvetica,sans-Serif" font-size="10.00">core/CFloatStorage.h</text>
</a>
</g>
</g>
<!-- Node25&#45;&gt;Node26 -->
<g id="edge30_Node000025_Node000026" class="edge">
<title>Node25&#45;&gt;Node26</title>
<g id="a_edge30_Node000025_Node000026"><a xlink:title=" ">
<path fill="none" stroke="#63b8ff" d="M495.91,-244.79C422.16,-237.11 306.15,-223.88 206.41,-207.5 200.9,-206.59 195.15,-205.56 189.43,-204.47"/>
<polygon fill="#63b8ff" stroke="#63b8ff" points="190.51,-201.11 180.03,-202.61 189.16,-207.98 190.51,-201.11"/>
</a>
</g>
</g>
<!-- Node34 -->
<g id="Node000034" class="node">
<title>Node34</title>
<g id="a_Node000034"><a xlink:href="../../dd/dc4/_c_small_vector_fwd_8h.html" target="_top" xlink:title=" ">
<polygon fill="white" stroke="#666666" points="790.16,-201.88 664.66,-201.88 664.66,-182.62 790.16,-182.62 790.16,-201.88"/>
<text text-anchor="middle" x="727.41" y="-188.38" font-family="Helvetica,sans-Serif" font-size="10.00">core/CSmallVectorFwd.h</text>
</a>
</g>
</g>
<!-- Node25&#45;&gt;Node34 -->
<g id="edge44_Node000025_Node000034" class="edge">
<title>Node25&#45;&gt;Node34</title>
<g id="a_edge44_Node000025_Node000034"><a xlink:title=" ">
<path fill="none" stroke="#63b8ff" d="M594.6,-243.05C620.76,-233.24 662.71,-217.51 692.45,-206.36"/>
<polygon fill="#63b8ff" stroke="#63b8ff" points="693.65,-209.65 701.78,-202.86 691.19,-203.1 693.65,-209.65"/>
</a>
</g>
</g>
<!-- Node35 -->
<g id="Node000035" class="node">
<title>Node35</title>
<g id="a_Node000035"><a xlink:href="../../db/d04/_core_types_8h.html" target="_top" xlink:title=" ">
<polygon fill="white" stroke="#666666" points="590.04,-201.88 496.79,-201.88 496.79,-182.62 590.04,-182.62 590.04,-201.88"/>
<text text-anchor="middle" x="543.41" y="-188.38" font-family="Helvetica,sans-Serif" font-size="10.00">core/CoreTypes.h</text>
</a>
</g>
</g>
<!-- Node25&#45;&gt;Node35 -->
<g id="edge47_Node000025_Node000035" class="edge">
<title>Node25&#45;&gt;Node35</title>
<g id="a_edge47_Node000025_Node000035"><a xlink:title=" ">
<path fill="none" stroke="#63b8ff" d="M566.31,-243.18C562.59,-235.06 556.96,-222.79 552.22,-212.45"/>
<polygon fill="#63b8ff" stroke="#63b8ff" points="555.53,-211.28 548.18,-203.65 549.17,-214.2 555.53,-211.28"/>
</a>
</g>
</g>
<!-- Node37 -->
<g id="Node000037" class="node">
<title>Node37</title>
<g id="a_Node000037"><a xlink:title=" ">
<polygon fill="#e0e0e0" stroke="#999999" points="647.04,-201.88 607.79,-201.88 607.79,-182.62 647.04,-182.62 647.04,-201.88"/>
<text text-anchor="middle" x="627.41" y="-188.38" font-family="Helvetica,sans-Serif" font-size="10.00">utility</text>
</a>
</g>
</g>
<!-- Node25&#45;&gt;Node37 -->
<g id="edge53_Node000025_Node000037" class="edge">
<title>Node25&#45;&gt;Node37</title>
<g id="a_edge53_Node000025_Node000037"><a xlink:title=" ">
<path fill="none" stroke="#63b8ff" d="M579.07,-243.18C587.44,-234.54 600.34,-221.21 610.71,-210.5"/>
<polygon fill="#63b8ff" stroke="#63b8ff" points="613.18,-212.98 617.62,-203.36 608.15,-208.11 613.18,-212.98"/>
</a>
</g>
</g>
<!-- Node26&#45;&gt;Node23 -->
<g id="edge41_Node000026_Node000023" class="edge">
<title>Node26&#45;&gt;Node23</title>
<g id="a_edge41_Node000026_Node000023"><a xlink:title=" ">
<path fill="none" stroke="#63b8ff" d="M163.95,-182.15C196.42,-171.01 251.59,-152.08 288.27,-139.49"/>
<polygon fill="#63b8ff" stroke="#63b8ff" points="289.26,-142.86 297.58,-136.3 286.99,-136.23 289.26,-142.86"/>
</a>
</g>
</g>
<!-- Node27 -->
<g id="Node000027" class="node">
<title>Node27</title>
<g id="a_Node000027"><a xlink:href="../../d9/d88/_c_string_utils_8h.html" target="_top" xlink:title=" ">
<polygon fill="white" stroke="#666666" points="232.04,-135.38 132.79,-135.38 132.79,-116.12 232.04,-116.12 232.04,-135.38"/>
<text text-anchor="middle" x="182.41" y="-121.88" font-family="Helvetica,sans-Serif" font-size="10.00">core/CStringUtils.h</text>
</a>
</g>
</g>
<!-- Node26&#45;&gt;Node27 -->
<g id="edge31_Node000026_Node000027" class="edge">
<title>Node26&#45;&gt;Node27</title>
<g id="a_edge31_Node000026_Node000027"><a xlink:title=" ">
<path fill="none" stroke="#63b8ff" d="M143.67,-182.28C150.39,-172.65 161.24,-157.1 169.75,-144.9"/>
<polygon fill="#63b8ff" stroke="#63b8ff" points="172.49,-147.09 175.34,-136.88 166.75,-143.08 172.49,-147.09"/>
</a>
</g>
</g>
<!-- Node32 -->
<g id="Node000032" class="node">
<title>Node32</title>
<g id="a_Node000032"><a xlink:title=" ">
<polygon fill="#e0e0e0" stroke="#999999" points="57.91,-135.38 14.91,-135.38 14.91,-116.12 57.91,-116.12 57.91,-135.38"/>
<text text-anchor="middle" x="36.41" y="-121.88" font-family="Helvetica,sans-Serif" font-size="10.00">cmath</text>
</a>
</g>
</g>
<!-- Node26&#45;&gt;Node32 -->
<g id="edge42_Node000026_Node000032" class="edge">
<title>Node26&#45;&gt;Node32</title>
<g id="a_edge42_Node000026_Node000032"><a xlink:title=" ">
<path fill="none" stroke="#63b8ff" d="M123.37,-182.28C107.03,-171.85 79.79,-154.45 60.14,-141.9"/>
<polygon fill="#63b8ff" stroke="#63b8ff" points="62.25,-139.1 51.94,-136.66 58.48,-145 62.25,-139.1"/>
</a>
</g>
</g>
<!-- Node33 -->
<g id="Node000033" class="node">
<title>Node33</title>
<g id="a_Node000033"><a xlink:title=" ">
<polygon fill="#e0e0e0" stroke="#999999" points="115.04,-135.38 75.79,-135.38 75.79,-116.12 115.04,-116.12 115.04,-135.38"/>
<text text-anchor="middle" x="95.41" y="-121.88" font-family="Helvetica,sans-Serif" font-size="10.00">limits</text>
</a>
</g>
</g>
<!-- Node26&#45;&gt;Node33 -->
<g id="edge43_Node000026_Node000033" class="edge">
<title>Node26&#45;&gt;Node33</title>
<g id="a_edge43_Node000026_Node000033"><a xlink:title=" ">
<path fill="none" stroke="#63b8ff" d="M131.57,-182.28C125.37,-172.75 115.38,-157.41 107.47,-145.27"/>
<polygon fill="#63b8ff" stroke="#63b8ff" points="110.42,-143.38 102.03,-136.91 104.55,-147.2 110.42,-143.38"/>
</a>
</g>
</g>
<!-- Node27&#45;&gt;Node5 -->
<g id="edge38_Node000027_Node000005" class="edge">
<title>Node27&#45;&gt;Node5</title>
<g id="a_edge38_Node000027_Node000005"><a xlink:title=" ">
<path fill="none" stroke="#63b8ff" d="M183.16,-115.96C184.67,-102.09 189.11,-74.7 201.41,-55.25 208.65,-43.82 219.71,-33.75 229.77,-26.07"/>
<polygon fill="#63b8ff" stroke="#63b8ff" points="231.64,-29.04 237.73,-20.37 227.56,-23.35 231.64,-29.04"/>
</a>
</g>
</g>
<!-- Node27&#45;&gt;Node8 -->
<g id="edge39_Node000027_Node000008" class="edge">
<title>Node27&#45;&gt;Node8</title>
<g id="a_edge39_Node000027_Node000008"><a xlink:title=" ">
<path fill="none" stroke="#63b8ff" d="M214.72,-115.69C223.03,-113.67 232,-111.76 240.41,-110.5 536.82,-66.21 900.94,-64.86 1008.86,-65.55"/>
<polygon fill="#63b8ff" stroke="#63b8ff" points="1008.64,-69.04 1018.67,-65.62 1008.69,-62.04 1008.64,-69.04"/>
</a>
</g>
</g>
<!-- Node27&#45;&gt;Node20 -->
<g id="edge40_Node000027_Node000020" class="edge">
<title>Node27&#45;&gt;Node20</title>
<g id="a_edge40_Node000027_Node000020"><a xlink:title=" ">
<path fill="none" stroke="#63b8ff" d="M212.92,-115.68C249.39,-104.83 310.19,-86.76 347.64,-75.62"/>
<polygon fill="#63b8ff" stroke="#63b8ff" points="348.42,-79.04 357.01,-72.83 346.42,-72.33 348.42,-79.04"/>
</a>
</g>
</g>
<!-- Node28 -->
<g id="Node000028" class="node">
<title>Node28</title>
<g id="a_Node000028"><a xlink:href="../../d6/dbf/_c_i_e_e_e754_8h.html" target="_top" xlink:title=" ">
<polygon fill="white" stroke="#666666" points="154.66,-74.5 62.16,-74.5 62.16,-55.25 154.66,-55.25 154.66,-74.5"/>
<text text-anchor="middle" x="108.41" y="-61" font-family="Helvetica,sans-Serif" font-size="10.00">core/CIEEE754.h</text>
</a>
</g>
</g>
<!-- Node27&#45;&gt;Node28 -->
<g id="edge32_Node000027_Node000028" class="edge">
<title>Node27&#45;&gt;Node28</title>
<g id="a_edge32_Node000027_Node000028"><a xlink:title=" ">
<path fill="none" stroke="#63b8ff" d="M171.17,-115.81C159.87,-106.82 142.21,-92.76 128.49,-81.85"/>
<polygon fill="#63b8ff" stroke="#63b8ff" points="130.95,-79.33 120.94,-75.84 126.59,-84.81 130.95,-79.33"/>
</a>
</g>
</g>
<!-- Node31 -->
<g id="Node000031" class="node">
<title>Node31</title>
<g id="a_Node000031"><a xlink:href="../../d7/dc2/_c_non_instantiatable_8h.html" target="_top" xlink:title=" ">
<polygon fill="white" stroke="#666666" points="340.41,-74.5 210.41,-74.5 210.41,-55.25 340.41,-55.25 340.41,-74.5"/>
<text text-anchor="middle" x="275.41" y="-61" font-family="Helvetica,sans-Serif" font-size="10.00">core/CNonInstantiatable.h</text>
</a>
</g>
</g>
<!-- Node27&#45;&gt;Node31 -->
<g id="edge36_Node000027_Node000031" class="edge">
<title>Node27&#45;&gt;Node31</title>
<g id="a_edge36_Node000027_Node000031"><a xlink:title=" ">
<path fill="none" stroke="#63b8ff" d="M196.54,-115.81C211.15,-106.56 234.23,-91.95 251.66,-80.92"/>
<polygon fill="#63b8ff" stroke="#63b8ff" points="253.3,-84.02 259.88,-75.71 249.56,-78.1 253.3,-84.02"/>
</a>
</g>
</g>
<!-- Node28&#45;&gt;Node5 -->
<g id="edge33_Node000028_Node000005" class="edge">
<title>Node28&#45;&gt;Node5</title>
<g id="a_edge33_Node000028_Node000005"><a xlink:title=" ">
<path fill="none" stroke="#63b8ff" d="M133.01,-54.84C156.34,-46.27 191.65,-33.31 218.01,-23.63"/>
<polygon fill="#63b8ff" stroke="#63b8ff" points="219.09,-26.96 227.27,-20.22 216.68,-20.39 219.09,-26.96"/>
</a>
</g>
</g>
<!-- Node29 -->
<g id="Node000029" class="node">
<title>Node29</title>
<g id="a_Node000029"><a xlink:title=" ">
<polygon fill="#e0e0e0" stroke="#999999" points="100.04,-19.25 54.79,-19.25 54.79,0 100.04,0 100.04,-19.25"/>
<text text-anchor="middle" x="77.41" y="-5.75" font-family="Helvetica,sans-Serif" font-size="10.00">cstdint</text>
</a>
</g>
</g>
<!-- Node28&#45;&gt;Node29 -->
<g id="edge34_Node000028_Node000029" class="edge">
<title>Node28&#45;&gt;Node29</title>
<g id="a_edge34_Node000028_Node000029"><a xlink:title=" ">
<path fill="none" stroke="#63b8ff" d="M103.29,-55.08C99.24,-48.11 93.42,-38.12 88.33,-29.37"/>
<polygon fill="#63b8ff" stroke="#63b8ff" points="91.46,-27.8 83.41,-20.92 85.41,-31.32 91.46,-27.8"/>
</a>
</g>
</g>
<!-- Node30 -->
<g id="Node000030" class="node">
<title>Node30</title>
<g id="a_Node000030"><a xlink:title=" ">
<polygon fill="#e0e0e0" stroke="#999999" points="163.04,-19.25 117.79,-19.25 117.79,0 163.04,0 163.04,-19.25"/>
<text text-anchor="middle" x="140.41" y="-5.75" font-family="Helvetica,sans-Serif" font-size="10.00">cstring</text>
</a>
</g>
</g>
<!-- Node28&#45;&gt;Node30 -->
<g id="edge35_Node000028_Node000030" class="edge">
<title>Node28&#45;&gt;Node30</title>
<g id="a_edge35_Node000028_Node000030"><a xlink:title=" ">
<path fill="none" stroke="#63b8ff" d="M113.7,-55.08C117.89,-48.11 123.89,-38.12 129.15,-29.37"/>
<polygon fill="#63b8ff" stroke="#63b8ff" points="132.08,-31.28 134.24,-20.91 126.08,-27.68 132.08,-31.28"/>
</a>
</g>
</g>
<!-- Node31&#45;&gt;Node5 -->
<g id="edge37_Node000031_Node000005" class="edge">
<title>Node31&#45;&gt;Node5</title>
<g id="a_edge37_Node000031_Node000005"><a xlink:title=" ">
<path fill="none" stroke="#63b8ff" d="M271.78,-55.08C269,-48.34 265.04,-38.77 261.52,-30.24"/>
<polygon fill="#63b8ff" stroke="#63b8ff" points="264.76,-28.91 257.7,-21.01 258.29,-31.59 264.76,-28.91"/>
</a>
</g>
</g>
<!-- Node34&#45;&gt;Node13 -->
<g id="edge45_Node000034_Node000013" class="edge">
<title>Node34&#45;&gt;Node13</title>
<g id="a_edge45_Node000034_Node000013"><a xlink:title=" ">
<path fill="none" stroke="#63b8ff" d="M739.23,-182.28C750.79,-173.51 768.84,-159.82 784.11,-148.23"/>
<polygon fill="#63b8ff" stroke="#63b8ff" points="786.13,-151.09 791.98,-142.26 781.9,-145.51 786.13,-151.09"/>
</a>
</g>
</g>
<!-- Node34&#45;&gt;Node19 -->
<g id="edge46_Node000034_Node000019" class="edge">
<title>Node34&#45;&gt;Node19</title>
<g id="a_edge46_Node000034_Node000019"><a xlink:title=" ">
<path fill="none" stroke="#63b8ff" d="M692.92,-182.21C658.69,-172.93 604.9,-157.56 559.41,-141 558.62,-140.71 557.82,-140.41 557.02,-140.11"/>
<polygon fill="#63b8ff" stroke="#63b8ff" points="558.49,-136.93 547.91,-136.44 555.88,-143.42 558.49,-136.93"/>
</a>
</g>
</g>
<!-- Node36 -->
<g id="Node000036" class="node">
<title>Node36</title>
<g id="a_Node000036"><a xlink:title=" ">
<polygon fill="#e0e0e0" stroke="#999999" points="611.91,-135.38 568.91,-135.38 568.91,-116.12 611.91,-116.12 611.91,-135.38"/>
<text text-anchor="middle" x="590.41" y="-121.88" font-family="Helvetica,sans-Serif" font-size="10.00">time.h</text>
</a>
</g>
</g>
<!-- Node35&#45;&gt;Node36 -->
<g id="edge48_Node000035_Node000036" class="edge">
<title>Node35&#45;&gt;Node36</title>
<g id="a_edge48_Node000035_Node000036"><a xlink:title=" ">
<path fill="none" stroke="#63b8ff" d="M549.95,-182.28C556.96,-172.65 568.3,-157.1 577.19,-144.9"/>
<polygon fill="#63b8ff" stroke="#63b8ff" points="579.98,-147.01 583.04,-136.87 574.32,-142.89 579.98,-147.01"/>
</a>
</g>
</g>
</g>
</svg>

<g id="navigator" transform="translate(0 0)" fill="#404254">
  <rect fill="#f2f5e9" fill-opacity="0.5" stroke="#606060" stroke-width=".5" x="0" y="0" width="60" height="60"/>
  <use id="zoomplus" xlink:href="#zoomPlus" x="17" y="9" onmousedown="handleZoom(evt,'in')"/>
  <use id="zoomminus" xlink:href="#zoomMin" x="42" y="9" onmousedown="handleZoom(evt,'out')"/>
  <use id="reset" xlink:href="#resetDef" x="30" y="36" onmousedown="handleReset()"/>
   <use id="arrowup" xlink:href="#arrowUp" x="0" y="0" onmousedown="handlePan(0,-1)"/>
  <use id="arrowright" xlink:href="#arrowRight" x="0" y="0" onmousedown="handlePan(1,0)"/>
  <use id="arrowdown" xlink:href="#arrowDown" x="0" y="0" onmousedown="handlePan(0,1)"/>
  <use id="arrowleft" xlink:href="#arrowLeft" x="0" y="0" onmousedown="handlePan(-1,0)"/>
</g>
<svg viewBox="0 0 15 15" width="100%" height="30px" preserveAspectRatio="xMaxYMin meet">
 <g id="arrow_out" transform="scale(0.3 0.3)">
  <a xlink:href="_c_annotated_vector_8h__incl_org.svg" target="_base">
   <rect id="button" ry="5" rx="5" y="6" x="6" height="38" width="38"
        fill="#f2f5e9" fill-opacity="0.5" stroke="#606060" stroke-width="1.0"/>
   <path id="arrow"
     d="M 11.500037,31.436501 C 11.940474,20.09759 22.043105,11.32322 32.158766,21.979434 L 37.068811,17.246167 C 37.068811,17.246167 37.088388,32 37.088388,32 L 22.160133,31.978069 C 22.160133,31.978069 26.997745,27.140456 26.997745,27.140456 C 18.528582,18.264221 13.291696,25.230495 11.500037,31.436501 z"
     style="fill:#404040;"/>
  </a>
 </g>
</svg>

<style type='text/css'>
<![CDATA[
[data-mouse-over-selected='false'] { opacity: 0.7; }
[data-mouse-over-selected='true']  { opacity: 1.0; }
]]>
</style>
<script type="application/ecmascript"><![CDATA[
document.addEventListener('DOMContentLoaded', (event) => {
  highlightEdges();
  highlightAdjacentNodes();
});
]]></script>
</svg>
