<?xml version="1.0" encoding="UTF-8" standalone="no"?>
<!DOCTYPE svg PUBLIC "-//W3C//DTD SVG 1.1//EN"
 "http://www.w3.org/Graphics/SVG/1.1/DTD/svg11.dtd">
<!-- Generated by graphviz version 10.0.1 (20240210.2158)
 -->
<!-- Title: ml::core::CXmlNodeWithChildrenPool::recycle Pages: 1 -->
<svg width="353pt" height="64pt"
 viewBox="0.00 0.00 352.75 64.25" xmlns="http://www.w3.org/2000/svg" xmlns:xlink="http://www.w3.org/1999/xlink">
<g id="graph0" class="graph" transform="scale(1 1) rotate(0) translate(4 60.25)">
<title>ml::core::CXmlNodeWithChildrenPool::recycle</title>
<!-- Node1 -->
<g id="Node000001" class="node">
<title>Node1</title>
<g id="a_Node000001"><a xlink:title="Recycle an XML node, plus any children it may have.">
<polygon fill="#999999" stroke="#666666" points="344.75,-42.88 183.25,-42.88 183.25,-12.37 344.75,-12.37 344.75,-42.88"/>
<text text-anchor="start" x="191.25" y="-29.38" font-family="Helvetica,sans-Serif" font-size="10.00">ml::core::CXmlNodeWithChildren</text>
<text text-anchor="middle" x="264" y="-18.12" font-family="Helvetica,sans-Serif" font-size="10.00">Pool::recycle</text>
</a>
</g>
</g>
<!-- Node2 -->
<g id="Node000002" class="node">
<title>Node2</title>
<g id="a_Node000002"><a xlink:href="../../d8/dd3/_c_rapid_xml_parser_test_8cc.html#af471b1726701c94765f665e7d854356a" target="_top" xlink:title=" ">
<polygon fill="white" stroke="#666666" points="147.25,-56.25 0,-56.25 0,-37 147.25,-37 147.25,-56.25"/>
<text text-anchor="middle" x="73.62" y="-42.75" font-family="Helvetica,sans-Serif" font-size="10.00">BOOST_AUTO_TEST_CASE</text>
</a>
</g>
</g>
<!-- Node1&#45;&gt;Node2 -->
<g id="edge1_Node000001_Node000002" class="edge">
<title>Node1&#45;&gt;Node2</title>
<g id="a_edge1_Node000001_Node000002"><a xlink:title=" ">
<path fill="none" stroke="#63b8ff" d="M171.51,-36.85C163.47,-37.66 155.41,-38.48 147.55,-39.27"/>
<polygon fill="#63b8ff" stroke="#63b8ff" points="171.73,-40.35 181.33,-35.86 171.03,-33.38 171.73,-40.35"/>
</a>
</g>
</g>
<!-- Node3 -->
<g id="Node000003" class="node">
<title>Node3</title>
<g id="a_Node000003"><a xlink:href="../../db/d7e/_c_xml_node_with_children_test_8cc.html#a8ba7aa7843b7d98c0044138293758582" target="_top" xlink:title=" ">
<polygon fill="white" stroke="#666666" points="147.25,-19.25 0,-19.25 0,0 147.25,0 147.25,-19.25"/>
<text text-anchor="middle" x="73.62" y="-5.75" font-family="Helvetica,sans-Serif" font-size="10.00">BOOST_AUTO_TEST_CASE</text>
</a>
</g>
</g>
<!-- Node1&#45;&gt;Node3 -->
<g id="edge2_Node000001_Node000003" class="edge">
<title>Node1&#45;&gt;Node3</title>
<g id="a_edge2_Node000001_Node000003"><a xlink:title=" ">
<path fill="none" stroke="#63b8ff" d="M171.51,-18.88C163.47,-18.11 155.41,-17.34 147.55,-16.59"/>
<polygon fill="#63b8ff" stroke="#63b8ff" points="171.04,-22.35 181.33,-19.82 171.71,-15.39 171.04,-22.35"/>
</a>
</g>
</g>
</g>
</svg>
