<?xml version="1.0" encoding="UTF-8" standalone="no"?>
<!DOCTYPE svg PUBLIC "-//W3C//DTD SVG 1.1//EN"
 "http://www.w3.org/Graphics/SVG/1.1/DTD/svg11.dtd">
<!-- Generated by graphviz version 10.0.1 (20240210.2158)
 -->
<!-- Title: ml::maths::analytics::CBoostedTreeLeafNodeStatisticsScratch::featureBestSplitSearch Pages: 1 -->
<svg width="619pt" height="1380pt"
 viewBox="0.00 0.00 619.25 1379.75" xmlns="http://www.w3.org/2000/svg" xmlns:xlink="http://www.w3.org/1999/xlink">
<g id="graph0" class="graph" transform="scale(1 1) rotate(0) translate(4 1375.75)">
<title>ml::maths::analytics::CBoostedTreeLeafNodeStatisticsScratch::featureBestSplitSearch</title>
<!-- Node1 -->
<g id="Node000001" class="node">
<title>Node1</title>
<g id="a_Node000001"><a xlink:title=" ">
<polygon fill="#999999" stroke="#666666" points="168.25,-707.75 0,-707.75 0,-666 168.25,-666 168.25,-707.75"/>
<text text-anchor="start" x="8" y="-694.25" font-family="Helvetica,sans-Serif" font-size="10.00">ml::maths::analytics</text>
<text text-anchor="start" x="8" y="-683" font-family="Helvetica,sans-Serif" font-size="10.00">::CBoostedTreeLeafNodeStatistics</text>
<text text-anchor="middle" x="84.12" y="-671.75" font-family="Helvetica,sans-Serif" font-size="10.00">Scratch::featureBestSplitSearch</text>
</a>
</g>
</g>
<!-- Node2 -->
<g id="Node000002" class="node">
<title>Node2</title>
<g id="a_Node000002"><a xlink:href="../../d8/db9/classml_1_1maths_1_1analytics_1_1_c_boosted_tree_leaf_node_statistics.html#a4c14256162a26859fd7e8a85ce923921" target="_top" xlink:title=" ">
<polygon fill="white" stroke="#666666" points="389.75,-1371.75 221.5,-1371.75 221.5,-1330 389.75,-1330 389.75,-1371.75"/>
<text text-anchor="start" x="229.5" y="-1358.25" font-family="Helvetica,sans-Serif" font-size="10.00">ml::maths::analytics</text>
<text text-anchor="start" x="229.5" y="-1347" font-family="Helvetica,sans-Serif" font-size="10.00">::CBoostedTreeLeafNodeStatistics</text>
<text text-anchor="middle" x="305.62" y="-1335.75" font-family="Helvetica,sans-Serif" font-size="10.00">::assignMissingToLeft</text>
</a>
</g>
</g>
<!-- Node1&#45;&gt;Node2 -->
<g id="edge1_Node000001_Node000002" class="edge">
<title>Node1&#45;&gt;Node2</title>
<g id="a_edge1_Node000001_Node000002"><a xlink:title=" ">
<path fill="none" stroke="#63b8ff" d="M86.22,-708.06C91.75,-807.52 119.85,-1227.14 204.25,-1320.88 206.61,-1323.49 209.18,-1325.89 211.93,-1328.08"/>
<polygon fill="#63b8ff" stroke="#63b8ff" points="209.74,-1330.82 219.98,-1333.54 213.67,-1325.03 209.74,-1330.82"/>
</a>
</g>
</g>
<!-- Node3 -->
<g id="Node000003" class="node">
<title>Node3</title>
<g id="a_Node000003"><a xlink:href="../../d3/d80/classml_1_1maths_1_1analytics_1_1_c_boosted_tree_leaf_node_statistics_1_1_c_splits_derivatives.html#a2815b9527d549e18b6517d99e39e78f4" target="_top" xlink:title=" ">
<polygon fill="white" stroke="#666666" points="396.88,-1311.75 214.38,-1311.75 214.38,-1270 396.88,-1270 396.88,-1311.75"/>
<text text-anchor="start" x="222.38" y="-1298.25" font-family="Helvetica,sans-Serif" font-size="10.00">ml::maths::analytics</text>
<text text-anchor="start" x="222.38" y="-1287" font-family="Helvetica,sans-Serif" font-size="10.00">::CBoostedTreeLeafNodeStatistics</text>
<text text-anchor="middle" x="305.62" y="-1275.75" font-family="Helvetica,sans-Serif" font-size="10.00">::CSplitsDerivatives::beginDerivatives</text>
</a>
</g>
</g>
<!-- Node1&#45;&gt;Node3 -->
<g id="edge2_Node000001_Node000003" class="edge">
<title>Node1&#45;&gt;Node3</title>
<g id="a_edge2_Node000001_Node000003"><a xlink:title=" ">
<path fill="none" stroke="#63b8ff" d="M86.8,-707.96C94.55,-800.66 129.81,-1171.14 204.25,-1255.88 206.48,-1258.41 208.9,-1260.76 211.47,-1262.94"/>
<polygon fill="#63b8ff" stroke="#63b8ff" points="209.4,-1265.76 219.55,-1268.83 213.53,-1260.11 209.4,-1265.76"/>
</a>
</g>
</g>
<!-- Node4 -->
<g id="Node000004" class="node">
<title>Node4</title>
<g id="a_Node000004"><a xlink:href="../../d8/db9/classml_1_1maths_1_1analytics_1_1_c_boosted_tree_leaf_node_statistics.html#a84e22c61ec7f3b45dd1f754e31d20e93" target="_top" xlink:title=" ">
<polygon fill="white" stroke="#666666" points="611.25,-1269.75 443,-1269.75 443,-1228 611.25,-1228 611.25,-1269.75"/>
<text text-anchor="start" x="451" y="-1256.25" font-family="Helvetica,sans-Serif" font-size="10.00">ml::maths::analytics</text>
<text text-anchor="start" x="451" y="-1245" font-family="Helvetica,sans-Serif" font-size="10.00">::CBoostedTreeLeafNodeStatistics</text>
<text text-anchor="middle" x="527.12" y="-1233.75" font-family="Helvetica,sans-Serif" font-size="10.00">::bestSplitStatistics</text>
</a>
</g>
</g>
<!-- Node1&#45;&gt;Node4 -->
<g id="edge3_Node000001_Node000004" class="edge">
<title>Node1&#45;&gt;Node4</title>
<g id="a_edge3_Node000001_Node000004"><a xlink:title=" ">
<path fill="none" stroke="#63b8ff" d="M86.65,-708.25C93.58,-798.79 125.21,-1149.31 204.25,-1218.88 236.99,-1247.69 348.64,-1252.58 431.3,-1251.96"/>
<polygon fill="#63b8ff" stroke="#63b8ff" points="431.29,-1255.47 441.25,-1251.86 431.21,-1248.47 431.29,-1255.47"/>
</a>
</g>
</g>
<!-- Node5 -->
<g id="Node000005" class="node">
<title>Node5</title>
<g id="a_Node000005"><a xlink:href="../../d8/db9/classml_1_1maths_1_1analytics_1_1_c_boosted_tree_leaf_node_statistics.html#a9751e02247882672acd7f1f3167f888c" target="_top" xlink:title=" ">
<polygon fill="white" stroke="#666666" points="389.75,-1097.75 221.5,-1097.75 221.5,-1056 389.75,-1056 389.75,-1097.75"/>
<text text-anchor="start" x="229.5" y="-1084.25" font-family="Helvetica,sans-Serif" font-size="10.00">ml::maths::analytics</text>
<text text-anchor="start" x="229.5" y="-1073" font-family="Helvetica,sans-Serif" font-size="10.00">::CBoostedTreeLeafNodeStatistics</text>
<text text-anchor="middle" x="305.62" y="-1061.75" font-family="Helvetica,sans-Serif" font-size="10.00">::candidateSplits</text>
</a>
</g>
</g>
<!-- Node1&#45;&gt;Node5 -->
<g id="edge4_Node000001_Node000005" class="edge">
<title>Node1&#45;&gt;Node5</title>
<g id="a_edge4_Node000001_Node000005"><a xlink:title=" ">
<path fill="none" stroke="#63b8ff" d="M85.68,-708.24C88.45,-770.01 105.08,-950.55 204.25,-1046.88 206.5,-1049.06 208.89,-1051.08 211.41,-1052.96"/>
<polygon fill="#63b8ff" stroke="#63b8ff" points="209.44,-1055.85 219.74,-1058.32 213.23,-1049.96 209.44,-1055.85"/>
</a>
</g>
</g>
<!-- Node6 -->
<g id="Node000006" class="node">
<title>Node6</title>
<g id="a_Node000006"><a xlink:href="../../d3/d80/classml_1_1maths_1_1analytics_1_1_c_boosted_tree_leaf_node_statistics_1_1_c_splits_derivatives.html#ae05567c12b2651fe505a30f4b8594d10" target="_top" xlink:title=" ">
<polygon fill="white" stroke="#666666" points="389.75,-1037.75 221.5,-1037.75 221.5,-996 389.75,-996 389.75,-1037.75"/>
<text text-anchor="start" x="229.5" y="-1024.25" font-family="Helvetica,sans-Serif" font-size="10.00">ml::maths::analytics</text>
<text text-anchor="start" x="229.5" y="-1013" font-family="Helvetica,sans-Serif" font-size="10.00">::CBoostedTreeLeafNodeStatistics</text>
<text text-anchor="middle" x="305.62" y="-1001.75" font-family="Helvetica,sans-Serif" font-size="10.00">::CSplitsDerivatives::count</text>
</a>
</g>
</g>
<!-- Node1&#45;&gt;Node6 -->
<g id="edge5_Node000001_Node000006" class="edge">
<title>Node1&#45;&gt;Node6</title>
<g id="a_edge5_Node000001_Node000006"><a xlink:title=" ">
<path fill="none" stroke="#63b8ff" d="M87.29,-708.21C93.99,-762.87 119.33,-909.09 204.25,-986.88 206.56,-988.99 209.01,-990.96 211.58,-992.79"/>
<polygon fill="#63b8ff" stroke="#63b8ff" points="209.68,-995.73 220.03,-998.02 213.37,-989.78 209.68,-995.73"/>
</a>
</g>
</g>
<!-- Node7 -->
<g id="Node000007" class="node">
<title>Node7</title>
<g id="a_Node000007"><a xlink:href="../../d3/d80/classml_1_1maths_1_1analytics_1_1_c_boosted_tree_leaf_node_statistics_1_1_c_splits_derivatives.html#aae7e8f591e8347745084a84c735af05d" target="_top" xlink:title=" ">
<polygon fill="white" stroke="#666666" points="389.75,-977.75 221.5,-977.75 221.5,-936 389.75,-936 389.75,-977.75"/>
<text text-anchor="start" x="229.5" y="-964.25" font-family="Helvetica,sans-Serif" font-size="10.00">ml::maths::analytics</text>
<text text-anchor="start" x="229.5" y="-953" font-family="Helvetica,sans-Serif" font-size="10.00">::CBoostedTreeLeafNodeStatistics</text>
<text text-anchor="middle" x="305.62" y="-941.75" font-family="Helvetica,sans-Serif" font-size="10.00">::CSplitsDerivatives::curvature</text>
</a>
</g>
</g>
<!-- Node1&#45;&gt;Node7 -->
<g id="edge6_Node000001_Node000007" class="edge">
<title>Node1&#45;&gt;Node7</title>
<g id="a_edge6_Node000001_Node000007"><a xlink:title=" ">
<path fill="none" stroke="#63b8ff" d="M89.6,-708.05C100.58,-754.73 133.29,-867.07 204.25,-926.88 206.58,-928.84 209.04,-930.68 211.59,-932.39"/>
<polygon fill="#63b8ff" stroke="#63b8ff" points="209.54,-935.24 219.93,-937.32 213.11,-929.22 209.54,-935.24"/>
</a>
</g>
</g>
<!-- Node8 -->
<g id="Node000008" class="node">
<title>Node8</title>
<g id="a_Node000008"><a xlink:href="../../d8/db9/classml_1_1maths_1_1analytics_1_1_c_boosted_tree_leaf_node_statistics.html#a5f15d6e7e832fda21d73291a536e18ce" target="_top" xlink:title="Get the total curvature of node.">
<polygon fill="white" stroke="#666666" points="389.75,-917.75 221.5,-917.75 221.5,-876 389.75,-876 389.75,-917.75"/>
<text text-anchor="start" x="229.5" y="-904.25" font-family="Helvetica,sans-Serif" font-size="10.00">ml::maths::analytics</text>
<text text-anchor="start" x="229.5" y="-893" font-family="Helvetica,sans-Serif" font-size="10.00">::CBoostedTreeLeafNodeStatistics</text>
<text text-anchor="middle" x="305.62" y="-881.75" font-family="Helvetica,sans-Serif" font-size="10.00">::curvature</text>
</a>
</g>
</g>
<!-- Node1&#45;&gt;Node8 -->
<g id="edge7_Node000001_Node000008" class="edge">
<title>Node1&#45;&gt;Node8</title>
<g id="a_edge7_Node000001_Node000008"><a xlink:title=" ">
<path fill="none" stroke="#63b8ff" d="M93.39,-708.14C109.15,-745.85 147.07,-824.45 204.25,-866.88 206.44,-868.5 208.71,-870.03 211.06,-871.49"/>
<polygon fill="#63b8ff" stroke="#63b8ff" points="209.28,-874.5 219.72,-876.28 212.66,-868.37 209.28,-874.5"/>
</a>
</g>
</g>
<!-- Node9 -->
<g id="Node000009" class="node">
<title>Node9</title>
<g id="a_Node000009"><a xlink:href="../../d8/db9/classml_1_1maths_1_1analytics_1_1_c_boosted_tree_leaf_node_statistics.html#a4674cdb1f5331c5f6ad4b15d5ea995bc" target="_top" xlink:title=" ">
<polygon fill="white" stroke="#666666" points="389.75,-857.75 221.5,-857.75 221.5,-816 389.75,-816 389.75,-857.75"/>
<text text-anchor="start" x="229.5" y="-844.25" font-family="Helvetica,sans-Serif" font-size="10.00">ml::maths::analytics</text>
<text text-anchor="start" x="229.5" y="-833" font-family="Helvetica,sans-Serif" font-size="10.00">::CBoostedTreeLeafNodeStatistics</text>
<text text-anchor="middle" x="305.62" y="-821.75" font-family="Helvetica,sans-Serif" font-size="10.00">::depth</text>
</a>
</g>
</g>
<!-- Node1&#45;&gt;Node9 -->
<g id="edge8_Node000001_Node000009" class="edge">
<title>Node1&#45;&gt;Node9</title>
<g id="a_edge8_Node000001_Node000009"><a xlink:title=" ">
<path fill="none" stroke="#63b8ff" d="M100.47,-707.84C121.15,-734.62 160.43,-780.62 204.25,-806.88 206.44,-808.19 208.68,-809.44 210.98,-810.65"/>
<polygon fill="#63b8ff" stroke="#63b8ff" points="209.42,-813.78 219.95,-814.95 212.45,-807.47 209.42,-813.78"/>
</a>
</g>
</g>
<!-- Node10 -->
<g id="Node000010" class="node">
<title>Node10</title>
<g id="a_Node000010"><a xlink:href="../../dd/d06/classml_1_1maths_1_1analytics_1_1_c_boosted_tree_hyperparameters.html#a0f437a71bd0e511eb3cd3469ce92187c" target="_top" xlink:title="Get the writeable multiplier of the tree depth penalty.">
<polygon fill="white" stroke="#666666" points="385.62,-797.75 225.62,-797.75 225.62,-756 385.62,-756 385.62,-797.75"/>
<text text-anchor="start" x="233.62" y="-784.25" font-family="Helvetica,sans-Serif" font-size="10.00">ml::maths::analytics</text>
<text text-anchor="start" x="233.62" y="-773" font-family="Helvetica,sans-Serif" font-size="10.00">::CBoostedTreeHyperparameters</text>
<text text-anchor="middle" x="305.62" y="-761.75" font-family="Helvetica,sans-Serif" font-size="10.00">::depthPenaltyMultiplier</text>
</a>
</g>
</g>
<!-- Node1&#45;&gt;Node10 -->
<g id="edge9_Node000001_Node000010" class="edge">
<title>Node1&#45;&gt;Node10</title>
<g id="a_edge9_Node000001_Node000010"><a xlink:title=" ">
<path fill="none" stroke="#63b8ff" d="M123.23,-708.23C146.23,-720.57 176.38,-735.79 204.25,-746.88 208.58,-748.6 213.04,-750.27 217.57,-751.89"/>
<polygon fill="#63b8ff" stroke="#63b8ff" points="216.21,-755.13 226.8,-755.09 218.5,-748.51 216.21,-755.13"/>
</a>
</g>
</g>
<!-- Node11 -->
<g id="Node000011" class="node">
<title>Node11</title>
<g id="a_Node000011"><a xlink:href="../../d8/db9/classml_1_1maths_1_1analytics_1_1_c_boosted_tree_leaf_node_statistics.html#ada433c878784c22e42d81c7c4a4c9cb4" target="_top" xlink:title=" ">
<polygon fill="white" stroke="#666666" points="611.25,-1209.75 443,-1209.75 443,-1168 611.25,-1168 611.25,-1209.75"/>
<text text-anchor="start" x="451" y="-1196.25" font-family="Helvetica,sans-Serif" font-size="10.00">ml::maths::analytics</text>
<text text-anchor="start" x="451" y="-1185" font-family="Helvetica,sans-Serif" font-size="10.00">::CBoostedTreeLeafNodeStatistics</text>
<text text-anchor="middle" x="527.12" y="-1173.75" font-family="Helvetica,sans-Serif" font-size="10.00">::derivatives</text>
</a>
</g>
</g>
<!-- Node1&#45;&gt;Node11 -->
<g id="edge10_Node000001_Node000011" class="edge">
<title>Node1&#45;&gt;Node11</title>
<g id="a_edge10_Node000001_Node000011"><a xlink:title=" ">
<path fill="none" stroke="#63b8ff" d="M86.84,-708.22C94.34,-795.49 127.34,-1123.41 204.25,-1184.88 271.8,-1238.86 375.27,-1229.05 446.57,-1212.84"/>
<polygon fill="#63b8ff" stroke="#63b8ff" points="447.33,-1216.25 456.25,-1210.54 445.72,-1209.44 447.33,-1216.25"/>
</a>
</g>
</g>
<!-- Node12 -->
<g id="Node000012" class="node">
<title>Node12</title>
<g id="a_Node000012"><a xlink:href="../../d8/db9/classml_1_1maths_1_1analytics_1_1_c_boosted_tree_leaf_node_statistics.html#ab9ecde2c94a910c6b42d72e49b8cc0b9" target="_top" xlink:title=" ">
<polygon fill="white" stroke="#666666" points="389.75,-737.75 221.5,-737.75 221.5,-696 389.75,-696 389.75,-737.75"/>
<text text-anchor="start" x="229.5" y="-724.25" font-family="Helvetica,sans-Serif" font-size="10.00">ml::maths::analytics</text>
<text text-anchor="start" x="229.5" y="-713" font-family="Helvetica,sans-Serif" font-size="10.00">::CBoostedTreeLeafNodeStatistics</text>
<text text-anchor="middle" x="305.62" y="-701.75" font-family="Helvetica,sans-Serif" font-size="10.00">::dimensionGradient</text>
</a>
</g>
</g>
<!-- Node1&#45;&gt;Node12 -->
<g id="edge11_Node000001_Node000012" class="edge">
<title>Node1&#45;&gt;Node12</title>
<g id="a_edge11_Node000001_Node000012"><a xlink:title=" ">
<path fill="none" stroke="#63b8ff" d="M168.73,-698.3C182.18,-700.14 196.17,-702.05 209.85,-703.92"/>
<polygon fill="#63b8ff" stroke="#63b8ff" points="209.37,-707.39 219.75,-705.27 210.31,-700.45 209.37,-707.39"/>
</a>
</g>
</g>
<!-- Node13 -->
<g id="Node000013" class="node">
<title>Node13</title>
<g id="a_Node000013"><a xlink:href="../../d3/d80/classml_1_1maths_1_1analytics_1_1_c_boosted_tree_leaf_node_statistics_1_1_c_splits_derivatives.html#ad6adae396f583d64a039752b294f7042" target="_top" xlink:title=" ">
<polygon fill="white" stroke="#666666" points="393.12,-677.75 218.12,-677.75 218.12,-636 393.12,-636 393.12,-677.75"/>
<text text-anchor="start" x="226.12" y="-664.25" font-family="Helvetica,sans-Serif" font-size="10.00">ml::maths::analytics</text>
<text text-anchor="start" x="226.12" y="-653" font-family="Helvetica,sans-Serif" font-size="10.00">::CBoostedTreeLeafNodeStatistics</text>
<text text-anchor="middle" x="305.62" y="-641.75" font-family="Helvetica,sans-Serif" font-size="10.00">::CSplitsDerivatives::endDerivatives</text>
</a>
</g>
</g>
<!-- Node1&#45;&gt;Node13 -->
<g id="edge12_Node000001_Node000013" class="edge">
<title>Node1&#45;&gt;Node13</title>
<g id="a_edge12_Node000001_Node000013"><a xlink:title=" ">
<path fill="none" stroke="#63b8ff" d="M168.73,-675.45C181.2,-673.74 194.14,-671.98 206.86,-670.24"/>
<polygon fill="#63b8ff" stroke="#63b8ff" points="207.03,-673.75 216.47,-668.92 206.09,-666.81 207.03,-673.75"/>
</a>
</g>
</g>
<!-- Node14 -->
<g id="Node000014" class="node">
<title>Node14</title>
<g id="a_Node000014"><a xlink:href="../../d8/db9/classml_1_1maths_1_1analytics_1_1_c_boosted_tree_leaf_node_statistics.html#ac0b1892268a7e5aa819aa3ee9c49077b" target="_top" xlink:title="Get the gain in loss of the best split of this leaf.">
<polygon fill="white" stroke="#666666" points="401.75,-618.12 209.5,-618.12 209.5,-587.62 401.75,-587.62 401.75,-618.12"/>
<text text-anchor="start" x="217.5" y="-604.62" font-family="Helvetica,sans-Serif" font-size="10.00">ml::maths::analytics</text>
<text text-anchor="middle" x="305.62" y="-593.38" font-family="Helvetica,sans-Serif" font-size="10.00">::CBoostedTreeLeafNodeStatistics::gain</text>
</a>
</g>
</g>
<!-- Node1&#45;&gt;Node14 -->
<g id="edge13_Node000001_Node000014" class="edge">
<title>Node1&#45;&gt;Node14</title>
<g id="a_edge13_Node000001_Node000014"><a xlink:title=" ">
<path fill="none" stroke="#63b8ff" d="M121.95,-665.53C145,-652.88 175.65,-637.33 204.25,-626.88 209.2,-625.07 214.33,-623.36 219.54,-621.75"/>
<polygon fill="#63b8ff" stroke="#63b8ff" points="220.25,-625.18 228.86,-619.01 218.28,-618.47 220.25,-625.18"/>
</a>
</g>
</g>
<!-- Node15 -->
<g id="Node000015" class="node">
<title>Node15</title>
<g id="a_Node000015"><a xlink:href="../../d3/d80/classml_1_1maths_1_1analytics_1_1_c_boosted_tree_leaf_node_statistics_1_1_c_splits_derivatives.html#a4a743baeb2d5193d61ac0804bcd756b0" target="_top" xlink:title=" ">
<polygon fill="white" stroke="#666666" points="389.75,-569.75 221.5,-569.75 221.5,-528 389.75,-528 389.75,-569.75"/>
<text text-anchor="start" x="229.5" y="-556.25" font-family="Helvetica,sans-Serif" font-size="10.00">ml::maths::analytics</text>
<text text-anchor="start" x="229.5" y="-545" font-family="Helvetica,sans-Serif" font-size="10.00">::CBoostedTreeLeafNodeStatistics</text>
<text text-anchor="middle" x="305.62" y="-533.75" font-family="Helvetica,sans-Serif" font-size="10.00">::CSplitsDerivatives::gradient</text>
</a>
</g>
</g>
<!-- Node1&#45;&gt;Node15 -->
<g id="edge14_Node000001_Node000015" class="edge">
<title>Node1&#45;&gt;Node15</title>
<g id="a_edge14_Node000001_Node000015"><a xlink:title=" ">
<path fill="none" stroke="#63b8ff" d="M103.2,-665.53C124.86,-641.22 163.4,-601.91 204.25,-578.88 206.62,-577.54 209.06,-576.25 211.55,-575.02"/>
<polygon fill="#63b8ff" stroke="#63b8ff" points="213,-578.21 220.65,-570.87 210.09,-571.84 213,-578.21"/>
</a>
</g>
</g>
<!-- Node16 -->
<g id="Node000016" class="node">
<title>Node16</title>
<g id="a_Node000016"><a xlink:href="../../dd/d06/classml_1_1maths_1_1analytics_1_1_c_boosted_tree_hyperparameters.html#a85fcb90e4a2fc6a9f953bca9f99ccd59" target="_top" xlink:title="Get the writeable multiplier of the square leaf weight penalty.">
<polygon fill="white" stroke="#666666" points="385.62,-509.75 225.62,-509.75 225.62,-468 385.62,-468 385.62,-509.75"/>
<text text-anchor="start" x="233.62" y="-496.25" font-family="Helvetica,sans-Serif" font-size="10.00">ml::maths::analytics</text>
<text text-anchor="start" x="233.62" y="-485" font-family="Helvetica,sans-Serif" font-size="10.00">::CBoostedTreeHyperparameters</text>
<text text-anchor="middle" x="305.62" y="-473.75" font-family="Helvetica,sans-Serif" font-size="10.00">::leafWeightPenaltyMultiplier</text>
</a>
</g>
</g>
<!-- Node1&#45;&gt;Node16 -->
<g id="edge15_Node000001_Node000016" class="edge">
<title>Node1&#45;&gt;Node16</title>
<g id="a_edge15_Node000001_Node000016"><a xlink:title=" ">
<path fill="none" stroke="#63b8ff" d="M94.45,-665.62C111.19,-629.91 149.77,-557.95 204.25,-518.88 207.67,-516.43 211.28,-514.17 215.04,-512.1"/>
<polygon fill="#63b8ff" stroke="#63b8ff" points="216.49,-515.29 223.89,-507.71 213.38,-509.02 216.49,-515.29"/>
</a>
</g>
</g>
<!-- Node17 -->
<g id="Node000017" class="node">
<title>Node17</title>
<g id="a_Node000017"><a xlink:href="../../d2/d9a/classml_1_1maths_1_1analytics_1_1_c_boosted_tree_leaf_node_statistics_threading.html#ad8cc0d81e56ecadbadb2d958439c7b77" target="_top" xlink:title="Make the loss function to use for computing leaf node split gain.">
<polygon fill="white" stroke="#666666" points="407,-450.38 204.25,-450.38 204.25,-397.38 407,-397.38 407,-450.38"/>
<text text-anchor="start" x="212.25" y="-436.88" font-family="Helvetica,sans-Serif" font-size="10.00">ml::maths::analytics</text>
<text text-anchor="start" x="212.25" y="-425.62" font-family="Helvetica,sans-Serif" font-size="10.00">::CBoostedTreeLeafNodeStatistics</text>
<text text-anchor="start" x="212.25" y="-414.38" font-family="Helvetica,sans-Serif" font-size="10.00">Threading::makeThreadLocalMinimumLoss</text>
<text text-anchor="middle" x="305.62" y="-403.12" font-family="Helvetica,sans-Serif" font-size="10.00">Function</text>
</a>
</g>
</g>
<!-- Node1&#45;&gt;Node17 -->
<g id="edge16_Node000001_Node000017" class="edge">
<title>Node1&#45;&gt;Node17</title>
<g id="a_edge16_Node000001_Node000017"><a xlink:title=" ">
<path fill="none" stroke="#63b8ff" d="M90.49,-665.63C102.84,-620.93 137.5,-516.53 204.25,-458.88 204.9,-458.31 205.57,-457.75 206.24,-457.21"/>
<polygon fill="#63b8ff" stroke="#63b8ff" points="208.16,-460.14 214.24,-451.46 204.07,-454.45 208.16,-460.14"/>
</a>
</g>
</g>
<!-- Node18 -->
<g id="Node000018" class="node">
<title>Node18</title>
<g id="a_Node000018"><a xlink:href="../../d3/d80/classml_1_1maths_1_1analytics_1_1_c_boosted_tree_leaf_node_statistics_1_1_c_splits_derivatives.html#ad111c38fab6f9737a6af1b8b8ae630ae" target="_top" xlink:title=" ">
<polygon fill="white" stroke="#666666" points="390.5,-379.75 220.75,-379.75 220.75,-338 390.5,-338 390.5,-379.75"/>
<text text-anchor="start" x="228.75" y="-366.25" font-family="Helvetica,sans-Serif" font-size="10.00">ml::maths::analytics</text>
<text text-anchor="start" x="228.75" y="-355" font-family="Helvetica,sans-Serif" font-size="10.00">::CBoostedTreeLeafNodeStatistics</text>
<text text-anchor="middle" x="305.62" y="-343.75" font-family="Helvetica,sans-Serif" font-size="10.00">::CSplitsDerivatives::missingCount</text>
</a>
</g>
</g>
<!-- Node1&#45;&gt;Node18 -->
<g id="edge17_Node000001_Node000018" class="edge">
<title>Node1&#45;&gt;Node18</title>
<g id="a_edge17_Node000001_Node000018"><a xlink:title=" ">
<path fill="none" stroke="#63b8ff" d="M87.34,-665.68C94.14,-611.38 119.73,-466.12 204.25,-388.88 206.36,-386.94 208.6,-385.13 210.93,-383.44"/>
<polygon fill="#63b8ff" stroke="#63b8ff" points="212.5,-386.59 219.08,-378.28 208.75,-380.68 212.5,-386.59"/>
</a>
</g>
</g>
<!-- Node19 -->
<g id="Node000019" class="node">
<title>Node19</title>
<g id="a_Node000019"><a xlink:href="../../d3/d80/classml_1_1maths_1_1analytics_1_1_c_boosted_tree_leaf_node_statistics_1_1_c_splits_derivatives.html#a944b257ca4a8ddc3a98add71f00e387e" target="_top" xlink:title=" ">
<polygon fill="white" stroke="#666666" points="398.75,-319.75 212.5,-319.75 212.5,-278 398.75,-278 398.75,-319.75"/>
<text text-anchor="start" x="220.5" y="-306.25" font-family="Helvetica,sans-Serif" font-size="10.00">ml::maths::analytics</text>
<text text-anchor="start" x="220.5" y="-295" font-family="Helvetica,sans-Serif" font-size="10.00">::CBoostedTreeLeafNodeStatistics</text>
<text text-anchor="middle" x="305.62" y="-283.75" font-family="Helvetica,sans-Serif" font-size="10.00">::CSplitsDerivatives::missingCurvature</text>
</a>
</g>
</g>
<!-- Node1&#45;&gt;Node19 -->
<g id="edge18_Node000001_Node000019" class="edge">
<title>Node1&#45;&gt;Node19</title>
<g id="a_edge18_Node000001_Node000019"><a xlink:title=" ">
<path fill="none" stroke="#63b8ff" d="M85.72,-665.63C88.6,-604.19 105.5,-424.63 204.25,-328.88 204.99,-328.15 205.75,-327.45 206.53,-326.77"/>
<polygon fill="#63b8ff" stroke="#63b8ff" points="208.32,-329.8 214.16,-320.95 204.09,-324.23 208.32,-329.8"/>
</a>
</g>
</g>
<!-- Node20 -->
<g id="Node000020" class="node">
<title>Node20</title>
<g id="a_Node000020"><a xlink:href="../../d3/d80/classml_1_1maths_1_1analytics_1_1_c_boosted_tree_leaf_node_statistics_1_1_c_splits_derivatives.html#aa4099e81c1aed626e80f4595e0d59f87" target="_top" xlink:title=" ">
<polygon fill="white" stroke="#666666" points="395.75,-259.75 215.5,-259.75 215.5,-218 395.75,-218 395.75,-259.75"/>
<text text-anchor="start" x="223.5" y="-246.25" font-family="Helvetica,sans-Serif" font-size="10.00">ml::maths::analytics</text>
<text text-anchor="start" x="223.5" y="-235" font-family="Helvetica,sans-Serif" font-size="10.00">::CBoostedTreeLeafNodeStatistics</text>
<text text-anchor="middle" x="305.62" y="-223.75" font-family="Helvetica,sans-Serif" font-size="10.00">::CSplitsDerivatives::missingGradient</text>
</a>
</g>
</g>
<!-- Node1&#45;&gt;Node20 -->
<g id="edge19_Node000001_Node000020" class="edge">
<title>Node1&#45;&gt;Node20</title>
<g id="a_edge19_Node000001_Node000020"><a xlink:title=" ">
<path fill="none" stroke="#63b8ff" d="M84.53,-665.62C83.81,-597.67 91.06,-383.52 204.25,-268.88 204.98,-268.14 205.72,-267.42 206.48,-266.72"/>
<polygon fill="#63b8ff" stroke="#63b8ff" points="208.31,-269.73 214,-260.8 203.98,-264.23 208.31,-269.73"/>
</a>
</g>
</g>
<!-- Node21 -->
<g id="Node000021" class="node">
<title>Node21</title>
<g id="a_Node000021"><a xlink:href="../../d3/d80/classml_1_1maths_1_1analytics_1_1_c_boosted_tree_leaf_node_statistics_1_1_c_splits_derivatives.html#afc45f07fafbaa771406f1a9b1ee3db03" target="_top" xlink:title=" ">
<polygon fill="white" stroke="#666666" points="401.38,-199.75 209.88,-199.75 209.88,-158 401.38,-158 401.38,-199.75"/>
<text text-anchor="start" x="217.88" y="-186.25" font-family="Helvetica,sans-Serif" font-size="10.00">ml::maths::analytics</text>
<text text-anchor="start" x="217.88" y="-175" font-family="Helvetica,sans-Serif" font-size="10.00">::CBoostedTreeLeafNodeStatistics</text>
<text text-anchor="middle" x="305.62" y="-163.75" font-family="Helvetica,sans-Serif" font-size="10.00">::CSplitsDerivatives::numberDerivatives</text>
</a>
</g>
</g>
<!-- Node1&#45;&gt;Node21 -->
<g id="edge20_Node000001_Node000021" class="edge">
<title>Node1&#45;&gt;Node21</title>
<g id="a_edge20_Node000001_Node000021"><a xlink:title=" ">
<path fill="none" stroke="#63b8ff" d="M87.61,-665.78C97.81,-582.41 139.13,-277.07 204.25,-208.88 204.74,-208.36 205.24,-207.86 205.75,-207.36"/>
<polygon fill="#63b8ff" stroke="#63b8ff" points="207.96,-210.07 213.44,-201 203.5,-204.68 207.96,-210.07"/>
</a>
</g>
</g>
<!-- Node22 -->
<g id="Node000022" class="node">
<title>Node22</title>
<g id="a_Node000022"><a xlink:href="../../dd/d06/classml_1_1maths_1_1analytics_1_1_c_boosted_tree_hyperparameters.html#a30d700c313340279bc99f2eeab4694f7" target="_top" xlink:title="Get the penalty which applies to a leaf at depth depth.">
<polygon fill="white" stroke="#666666" points="385.62,-101.75 225.62,-101.75 225.62,-60 385.62,-60 385.62,-101.75"/>
<text text-anchor="start" x="233.62" y="-88.25" font-family="Helvetica,sans-Serif" font-size="10.00">ml::maths::analytics</text>
<text text-anchor="start" x="233.62" y="-77" font-family="Helvetica,sans-Serif" font-size="10.00">::CBoostedTreeHyperparameters</text>
<text text-anchor="middle" x="305.62" y="-65.75" font-family="Helvetica,sans-Serif" font-size="10.00">::penaltyForDepth</text>
</a>
</g>
</g>
<!-- Node1&#45;&gt;Node22 -->
<g id="edge21_Node000001_Node000022" class="edge">
<title>Node1&#45;&gt;Node22</title>
<g id="a_edge21_Node000001_Node000022"><a xlink:title=" ">
<path fill="none" stroke="#63b8ff" d="M86.79,-665.71C94.49,-572.69 129.59,-200.92 204.25,-115.88 207.79,-111.84 211.83,-108.27 216.19,-105.11"/>
<polygon fill="#63b8ff" stroke="#63b8ff" points="217.71,-108.29 224.3,-100 213.97,-102.37 217.71,-108.29"/>
</a>
</g>
</g>
<!-- Node23 -->
<g id="Node000023" class="node">
<title>Node23</title>
<g id="a_Node000023"><a xlink:href="../../df/d22/classml_1_1maths_1_1analytics_1_1_c_boosted_tree_parameter.html#a2f705c05556ad6e8e2503e357e24a628" target="_top" xlink:title="Get the value.">
<polygon fill="white" stroke="#666666" points="592.12,-126.75 462.12,-126.75 462.12,-85 592.12,-85 592.12,-126.75"/>
<text text-anchor="start" x="470.12" y="-113.25" font-family="Helvetica,sans-Serif" font-size="10.00">ml::maths::analytics</text>
<text text-anchor="start" x="470.12" y="-102" font-family="Helvetica,sans-Serif" font-size="10.00">::CBoostedTreeParameter</text>
<text text-anchor="middle" x="527.12" y="-90.75" font-family="Helvetica,sans-Serif" font-size="10.00">::value</text>
</a>
</g>
</g>
<!-- Node1&#45;&gt;Node23 -->
<g id="edge30_Node000001_Node000023" class="edge">
<title>Node1&#45;&gt;Node23</title>
<g id="a_edge30_Node000001_Node000023"><a xlink:title=" ">
<path fill="none" stroke="#63b8ff" d="M86.66,-665.65C93.67,-574.92 125.77,-220.94 204.25,-148.88 222.08,-132.5 360.82,-118.75 450.24,-111.46"/>
<polygon fill="#63b8ff" stroke="#63b8ff" points="450.5,-114.95 460.19,-110.67 449.94,-107.98 450.5,-114.95"/>
</a>
</g>
</g>
<!-- Node24 -->
<g id="Node000024" class="node">
<title>Node24</title>
<g id="a_Node000024"><a xlink:href="../../d7/d16/classml_1_1maths_1_1analytics_1_1_c_boosted_tree_leaf_node_statistics_scratch.html#a4ebbfaeb4f8d7850feb01ef65b1c2f4a" target="_top" xlink:title=" ">
<polygon fill="white" stroke="#666666" points="389.75,-1157.75 221.5,-1157.75 221.5,-1116 389.75,-1116 389.75,-1157.75"/>
<text text-anchor="start" x="229.5" y="-1144.25" font-family="Helvetica,sans-Serif" font-size="10.00">ml::maths::analytics</text>
<text text-anchor="start" x="229.5" y="-1133" font-family="Helvetica,sans-Serif" font-size="10.00">::CBoostedTreeLeafNodeStatistics</text>
<text text-anchor="middle" x="305.62" y="-1121.75" font-family="Helvetica,sans-Serif" font-size="10.00">Scratch::split</text>
</a>
</g>
</g>
<!-- Node1&#45;&gt;Node24 -->
<g id="edge23_Node000001_Node000024" class="edge">
<title>Node1&#45;&gt;Node24</title>
<g id="a_edge23_Node000001_Node000024"><a xlink:title=" ">
<path fill="none" stroke="#63b8ff" d="M84.49,-708.23C83.67,-776.49 90.63,-991.65 204.25,-1106.88 206.58,-1109.24 209.1,-1111.42 211.75,-1113.44"/>
<polygon fill="#63b8ff" stroke="#63b8ff" points="209.71,-1116.28 220,-1118.81 213.53,-1110.42 209.71,-1116.28"/>
</a>
</g>
</g>
<!-- Node27 -->
<g id="Node000027" class="node">
<title>Node27</title>
<g id="a_Node000027"><a xlink:href="../../dd/d06/classml_1_1maths_1_1analytics_1_1_c_boosted_tree_hyperparameters.html#a76ffa4aec928e1234208ef0bf878d0c8" target="_top" xlink:title="Get the writeable multiplier of the tree size penalty.">
<polygon fill="white" stroke="#666666" points="385.62,-41.75 225.62,-41.75 225.62,0 385.62,0 385.62,-41.75"/>
<text text-anchor="start" x="233.62" y="-28.25" font-family="Helvetica,sans-Serif" font-size="10.00">ml::maths::analytics</text>
<text text-anchor="start" x="233.62" y="-17" font-family="Helvetica,sans-Serif" font-size="10.00">::CBoostedTreeHyperparameters</text>
<text text-anchor="middle" x="305.62" y="-5.75" font-family="Helvetica,sans-Serif" font-size="10.00">::treeSizePenaltyMultiplier</text>
</a>
</g>
</g>
<!-- Node1&#45;&gt;Node27 -->
<g id="edge29_Node000001_Node000027" class="edge">
<title>Node1&#45;&gt;Node27</title>
<g id="a_edge29_Node000001_Node000027"><a xlink:title=" ">
<path fill="none" stroke="#63b8ff" d="M86.21,-665.62C91.69,-565.86 119.62,-144.92 204.25,-50.88 207.7,-47.05 211.61,-43.7 215.84,-40.77"/>
<polygon fill="#63b8ff" stroke="#63b8ff" points="217.45,-43.88 224.27,-35.78 213.88,-37.86 217.45,-43.88"/>
</a>
</g>
</g>
<!-- Node22&#45;&gt;Node23 -->
<g id="edge22_Node000022_Node000023" class="edge">
<title>Node22&#45;&gt;Node23</title>
<g id="a_edge22_Node000022_Node000023"><a xlink:title=" ">
<path fill="none" stroke="#63b8ff" d="M385.87,-89.9C406.9,-92.3 429.56,-94.88 450.4,-97.25"/>
<polygon fill="#63b8ff" stroke="#63b8ff" points="449.93,-100.72 460.27,-98.37 450.73,-93.76 449.93,-100.72"/>
</a>
</g>
</g>
<!-- Node24&#45;&gt;Node4 -->
<g id="edge24_Node000024_Node000004" class="edge">
<title>Node24&#45;&gt;Node4</title>
<g id="a_edge24_Node000024_Node000004"><a xlink:title=" ">
<path fill="none" stroke="#63b8ff" d="M337.89,-1158.08C364.92,-1175.82 405.45,-1201.02 443,-1218.88 446.09,-1220.34 449.27,-1221.78 452.5,-1223.19"/>
<polygon fill="#63b8ff" stroke="#63b8ff" points="450.98,-1226.35 461.56,-1226.97 453.68,-1219.89 450.98,-1226.35"/>
</a>
</g>
</g>
<!-- Node24&#45;&gt;Node11 -->
<g id="edge25_Node000024_Node000011" class="edge">
<title>Node24&#45;&gt;Node11</title>
<g id="a_edge25_Node000024_Node000011"><a xlink:title=" ">
<path fill="none" stroke="#63b8ff" d="M390.23,-1156.68C403.81,-1159.9 417.95,-1163.25 431.76,-1166.52"/>
<polygon fill="#63b8ff" stroke="#63b8ff" points="430.74,-1169.87 441.27,-1168.77 432.35,-1163.06 430.74,-1169.87"/>
</a>
</g>
</g>
<!-- Node24&#45;&gt;Node24 -->
<g id="edge28_Node000024_Node000024" class="edge">
<title>Node24&#45;&gt;Node24</title>
<g id="a_edge28_Node000024_Node000024"><a xlink:title=" ">
<path fill="none" stroke="#63b8ff" d="M264.74,-1158.07C260.85,-1167.55 274.48,-1175.75 305.62,-1175.75 324.12,-1175.75 336.44,-1172.86 342.58,-1168.53"/>
<polygon fill="#63b8ff" stroke="#63b8ff" points="345.73,-1170.08 345.97,-1159.49 339.18,-1167.61 345.73,-1170.08"/>
</a>
</g>
</g>
<!-- Node25 -->
<g id="Node000025" class="node">
<title>Node25</title>
<g id="a_Node000025"><a xlink:href="../../d8/db9/classml_1_1maths_1_1analytics_1_1_c_boosted_tree_leaf_node_statistics.html#ae7a1a84f9895c1193e70aaf7371f9750" target="_top" xlink:title="Check if the left child has fewer rows than the right child.">
<polygon fill="white" stroke="#666666" points="611.25,-1089.75 443,-1089.75 443,-1048 611.25,-1048 611.25,-1089.75"/>
<text text-anchor="start" x="451" y="-1076.25" font-family="Helvetica,sans-Serif" font-size="10.00">ml::maths::analytics</text>
<text text-anchor="start" x="451" y="-1065" font-family="Helvetica,sans-Serif" font-size="10.00">::CBoostedTreeLeafNodeStatistics</text>
<text text-anchor="middle" x="527.12" y="-1053.75" font-family="Helvetica,sans-Serif" font-size="10.00">::leftChildHasFewerRows</text>
</a>
</g>
</g>
<!-- Node24&#45;&gt;Node25 -->
<g id="edge26_Node000024_Node000025" class="edge">
<title>Node24&#45;&gt;Node25</title>
<g id="a_edge26_Node000024_Node000025"><a xlink:title=" ">
<path fill="none" stroke="#63b8ff" d="M378.5,-1115.57C388.09,-1112.67 397.79,-1109.72 407,-1106.88 420.72,-1102.64 435.3,-1098.05 449.38,-1093.58"/>
<polygon fill="#63b8ff" stroke="#63b8ff" points="450.12,-1097.02 458.59,-1090.65 448,-1090.35 450.12,-1097.02"/>
</a>
</g>
</g>
<!-- Node26 -->
<g id="Node000026" class="node">
<title>Node26</title>
<g id="a_Node000026"><a xlink:href="../../d2/d97/classml_1_1maths_1_1analytics_1_1_c_boosted_tree_leaf_node_statistics_1_1_c_workspace.html#a4b08494855ef3adedf8f7efa3541869f" target="_top" xlink:title="Capture the derivatives object to use later.">
<polygon fill="white" stroke="#666666" points="611.25,-1149.75 443,-1149.75 443,-1108 611.25,-1108 611.25,-1149.75"/>
<text text-anchor="start" x="451" y="-1136.25" font-family="Helvetica,sans-Serif" font-size="10.00">ml::maths::analytics</text>
<text text-anchor="start" x="451" y="-1125" font-family="Helvetica,sans-Serif" font-size="10.00">::CBoostedTreeLeafNodeStatistics</text>
<text text-anchor="middle" x="527.12" y="-1113.75" font-family="Helvetica,sans-Serif" font-size="10.00">::CWorkspace::recycle</text>
</a>
</g>
</g>
<!-- Node24&#45;&gt;Node26 -->
<g id="edge27_Node000024_Node000026" class="edge">
<title>Node24&#45;&gt;Node26</title>
<g id="a_edge27_Node000024_Node000026"><a xlink:title=" ">
<path fill="none" stroke="#63b8ff" d="M390.23,-1133.83C403.68,-1133.34 417.67,-1132.83 431.35,-1132.33"/>
<polygon fill="#63b8ff" stroke="#63b8ff" points="431.37,-1135.83 441.24,-1131.97 431.11,-1128.84 431.37,-1135.83"/>
</a>
</g>
</g>
</g>
</svg>
