<?xml version="1.0" encoding="UTF-8" standalone="no"?>
<!DOCTYPE svg PUBLIC "-//W3C//DTD SVG 1.1//EN"
 "http://www.w3.org/Graphics/SVG/1.1/DTD/svg11.dtd">
<!-- Generated by graphviz version 10.0.1 (20240210.2158)
 -->
<!-- Title: ml::model::CMonitoredResource Pages: 1 -->
<!--zoomable 117 -->

<svg id="main" version="1.1" xmlns="http://www.w3.org/2000/svg" xmlns:xlink="http://www.w3.org/1999/xlink" xml:space="preserve" onload="init(evt)">
<style type="text/css"><![CDATA[
.node, .edge {opacity: 0.7;}
.node.selected, .edge.selected {opacity: 1;}
.edge:hover path { stroke: red; }
.edge:hover polygon { stroke: red; fill: red; }
]]></style>

<defs>
  <circle id="rim" cx="0" cy="0" r="7"/>
  <circle id="rim2" cx="0" cy="0" r="3.5"/>
  <g id="zoomPlus">
    <use xlink:href="#rim" fill="#404040"><set attributeName="fill" to="#808080" begin="zoomplus.mouseover" end="zoomplus.mouseout"/></use>
    <path d="M-4,0h8M0,-4v8" fill="none" stroke="white" stroke-width="1.5" pointer-events="none"/>
  </g>
  <g id="zoomMin">
    <use xlink:href="#rim" fill="#404040"><set attributeName="fill" to="#808080" begin="zoomminus.mouseover" end="zoomminus.mouseout"/></use>
    <path d="M-4,0h8" fill="none" stroke="white" stroke-width="1.5" pointer-events="none"/>
  </g>
  <g id="arrowUp" transform="translate(30 24)">
    <use xlink:href="#rim"/>
    <path pointer-events="none" fill="none" stroke="white" stroke-width="1.5" d="M0,-3.0v7 M-2.5,-0.5L0,-3.0L2.5,-0.5"/>
  </g>
  <g id="arrowRight" transform="rotate(90) translate(36 -43)">
    <use xlink:href="#rim"/>
    <path pointer-events="none" fill="none" stroke="white" stroke-width="1.5" d="M0,-3.0v7 M-2.5,-0.5L0,-3.0L2.5,-0.5"/>
  </g>
  <g id="arrowDown" transform="rotate(180) translate(-30 -48)">
    <use xlink:href="#rim"/>
    <path pointer-events="none" fill="none" stroke="white" stroke-width="1.5" d="M0,-3.0v7 M-2.5,-0.5L0,-3.0L2.5,-0.5"/>
  </g>
  <g id="arrowLeft" transform="rotate(270) translate(-36 17)">
    <use xlink:href="#rim"/>
    <path pointer-events="none" fill="none" stroke="white" stroke-width="1.5" d="M0,-3.0v7 M-2.5,-0.5L0,-3.0L2.5,-0.5"/>
  </g>
  <g id="resetDef">
    <use xlink:href="#rim2" fill="#404040"><set attributeName="fill" to="#808080" begin="reset.mouseover" end="reset.mouseout"/></use>
  </g>
</defs>
<script type="application/ecmascript">
var viewWidth = 848;
var viewHeight = 117;
var sectionId = 'dynsection-0';
</script>
<script type="application/ecmascript" xlink:href="../../svg.min.js"/>
<svg id="graph" class="graph">
<g id="viewport">
<title>ml::model::CMonitoredResource</title>
<!-- Node1 -->
<g id="Node000001" class="node">
<title>Node1</title>
<g id="a_Node000001"><a xlink:title="Interface for resource monitoring.">
<polygon fill="#999999" stroke="#666666" points="157,-85.25 0,-85.25 0,-66 157,-66 157,-85.25"/>
<text text-anchor="middle" x="78.5" y="-71.75" font-family="Helvetica,sans-Serif" font-size="10.00">ml::model::CMonitoredResource</text>
</a>
</g>
</g>
<!-- Node2 -->
<g id="Node000002" class="node">
<title>Node2</title>
<g id="a_Node000002"><a xlink:href="../../da/de5/classml_1_1model_1_1_c_anomaly_detector.html" target="_top" xlink:title="Interface for detecting and reporting anomalies in different types of unstructured data.">
<polygon fill="white" stroke="#666666" points="341,-105.25 193,-105.25 193,-86 341,-86 341,-105.25"/>
<text text-anchor="middle" x="267" y="-91.75" font-family="Helvetica,sans-Serif" font-size="10.00">ml::model::CAnomalyDetector</text>
</a>
</g>
</g>
<!-- Node1&#45;&gt;Node2 -->
<g id="edge1_Node000001_Node000002" class="edge">
<title>Node1&#45;&gt;Node2</title>
<g id="a_edge1_Node000001_Node000002"><a xlink:title=" ">
<path fill="none" stroke="#63b8ff" d="M168.56,-85.18C176.6,-86.04 184.68,-86.9 192.56,-87.75"/>
<polygon fill="#63b8ff" stroke="#63b8ff" points="169.06,-81.71 158.75,-84.12 168.32,-88.67 169.06,-81.71"/>
</a>
</g>
</g>
<!-- Node4 -->
<g id="Node000004" class="node">
<title>Node4</title>
<g id="a_Node000004"><a xlink:href="../../da/d11/classml_1_1model_1_1_c_data_categorizer.html" target="_top" xlink:title="Interface for classes that convert a raw event string to a category.">
<polygon fill="white" stroke="#666666" points="338.75,-67.25 195.25,-67.25 195.25,-48 338.75,-48 338.75,-67.25"/>
<text text-anchor="middle" x="267" y="-53.75" font-family="Helvetica,sans-Serif" font-size="10.00">ml::model::CDataCategorizer</text>
</a>
</g>
</g>
<!-- Node1&#45;&gt;Node4 -->
<g id="edge3_Node000001_Node000004" class="edge">
<title>Node1&#45;&gt;Node4</title>
<g id="a_edge3_Node000001_Node000004"><a xlink:title=" ">
<path fill="none" stroke="#63b8ff" d="M168.45,-67.04C177.33,-66.18 186.27,-65.32 194.94,-64.48"/>
<polygon fill="#63b8ff" stroke="#63b8ff" points="168.37,-63.53 158.75,-67.98 169.04,-70.5 168.37,-63.53"/>
</a>
</g>
</g>
<!-- Node3 -->
<g id="Node000003" class="node">
<title>Node3</title>
<g id="a_Node000003"><a xlink:href="../../d6/dac/classml_1_1model_1_1_c_simple_count_detector.html" target="_top" xlink:title="Simply records and reports overall event counts.">
<polygon fill="white" stroke="#666666" points="543,-107.25 377,-107.25 377,-88 543,-88 543,-107.25"/>
<text text-anchor="middle" x="460" y="-93.75" font-family="Helvetica,sans-Serif" font-size="10.00">ml::model::CSimpleCountDetector</text>
</a>
</g>
</g>
<!-- Node2&#45;&gt;Node3 -->
<g id="edge2_Node000002_Node000003" class="edge">
<title>Node2&#45;&gt;Node3</title>
<g id="a_edge2_Node000002_Node000003"><a xlink:title=" ">
<path fill="none" stroke="#63b8ff" d="M352.54,-96.51C360.55,-96.59 368.67,-96.68 376.66,-96.76"/>
<polygon fill="#63b8ff" stroke="#63b8ff" points="352.85,-93.01 342.81,-96.41 352.78,-100.01 352.85,-93.01"/>
</a>
</g>
</g>
<!-- Node5 -->
<g id="Node000005" class="node">
<title>Node5</title>
<g id="a_Node000005"><a xlink:href="../../dc/d68/classml_1_1model_1_1_c_token_list_data_categorizer_base.html" target="_top" xlink:title="Abstract base class for categorising strings based on tokens.">
<polygon fill="white" stroke="#666666" points="527.62,-69.88 392.38,-69.88 392.38,-39.38 527.62,-39.38 527.62,-69.88"/>
<text text-anchor="start" x="400.38" y="-56.38" font-family="Helvetica,sans-Serif" font-size="10.00">ml::model::CTokenListData</text>
<text text-anchor="middle" x="460" y="-45.12" font-family="Helvetica,sans-Serif" font-size="10.00">CategorizerBase</text>
</a>
</g>
</g>
<!-- Node4&#45;&gt;Node5 -->
<g id="edge4_Node000004_Node000005" class="edge">
<title>Node4&#45;&gt;Node5</title>
<g id="a_edge4_Node000004_Node000005"><a xlink:title=" ">
<path fill="none" stroke="#63b8ff" d="M350.6,-56.33C364.41,-56.11 378.58,-55.89 391.93,-55.68"/>
<polygon fill="#63b8ff" stroke="#63b8ff" points="350.58,-52.83 340.63,-56.48 350.69,-59.83 350.58,-52.83"/>
</a>
</g>
</g>
<!-- Node6 -->
<g id="Node000006" class="node">
<title>Node6</title>
<g id="a_Node000006"><a xlink:href="../../d4/d86/classml_1_1model_1_1_c_token_list_data_categorizer.html" target="_top" xlink:title="Concrete implementation class to categorise strings.">
<polygon fill="white" stroke="#666666" points="839.5,-109.25 579,-109.25 579,0 839.5,0 839.5,-109.25"/>
<text text-anchor="start" x="587" y="-95.75" font-family="Helvetica,sans-Serif" font-size="10.00">ml::model::CTokenListData</text>
<text text-anchor="start" x="587" y="-84.5" font-family="Helvetica,sans-Serif" font-size="10.00">Categorizer&lt; DO_WARPING,</text>
<text text-anchor="start" x="587" y="-73.25" font-family="Helvetica,sans-Serif" font-size="10.00"> ALLOW_UNDERSCORE, ALLOW</text>
<text text-anchor="start" x="587" y="-62" font-family="Helvetica,sans-Serif" font-size="10.00">_DOT, ALLOW_DASH, ALLOW_FORWARD</text>
<text text-anchor="start" x="587" y="-50.75" font-family="Helvetica,sans-Serif" font-size="10.00">_SLASH, IGNORE_LEADING_DIGIT,</text>
<text text-anchor="start" x="587" y="-39.5" font-family="Helvetica,sans-Serif" font-size="10.00"> IGNORE_HEX, IGNORE_DATE_WORDS,</text>
<text text-anchor="start" x="587" y="-28.25" font-family="Helvetica,sans-Serif" font-size="10.00"> IGNORE_FIELD_NAMES, MIN_DICTIONARY</text>
<text text-anchor="start" x="587" y="-17" font-family="Helvetica,sans-Serif" font-size="10.00">_LENGTH, TRUNCATE_AT_NEWLINE, DICTIONARY</text>
<text text-anchor="middle" x="709.25" y="-5.75" font-family="Helvetica,sans-Serif" font-size="10.00">_WEIGHT_FUNC &gt;</text>
</a>
</g>
</g>
<!-- Node5&#45;&gt;Node6 -->
<g id="edge5_Node000005_Node000006" class="edge">
<title>Node5&#45;&gt;Node6</title>
<g id="a_edge5_Node000005_Node000006"><a xlink:title=" ">
<path fill="none" stroke="#63b8ff" d="M539.32,-54.62C551.98,-54.62 565.38,-54.62 578.88,-54.62"/>
<polygon fill="#63b8ff" stroke="#63b8ff" points="539.42,-51.13 529.42,-54.63 539.42,-58.13 539.42,-51.13"/>
</a>
</g>
</g>
</g>
</svg>

<g id="navigator" transform="translate(0 0)" fill="#404254">
  <rect fill="#f2f5e9" fill-opacity="0.5" stroke="#606060" stroke-width=".5" x="0" y="0" width="60" height="60"/>
  <use id="zoomplus" xlink:href="#zoomPlus" x="17" y="9" onmousedown="handleZoom(evt,'in')"/>
  <use id="zoomminus" xlink:href="#zoomMin" x="42" y="9" onmousedown="handleZoom(evt,'out')"/>
  <use id="reset" xlink:href="#resetDef" x="30" y="36" onmousedown="handleReset()"/>
   <use id="arrowup" xlink:href="#arrowUp" x="0" y="0" onmousedown="handlePan(0,-1)"/>
  <use id="arrowright" xlink:href="#arrowRight" x="0" y="0" onmousedown="handlePan(1,0)"/>
  <use id="arrowdown" xlink:href="#arrowDown" x="0" y="0" onmousedown="handlePan(0,1)"/>
  <use id="arrowleft" xlink:href="#arrowLeft" x="0" y="0" onmousedown="handlePan(-1,0)"/>
</g>
<svg viewBox="0 0 15 15" width="100%" height="30px" preserveAspectRatio="xMaxYMin meet">
 <g id="arrow_out" transform="scale(0.3 0.3)">
  <a xlink:href="classml_1_1model_1_1_c_monitored_resource__inherit__graph_org.svg" target="_base">
   <rect id="button" ry="5" rx="5" y="6" x="6" height="38" width="38"
        fill="#f2f5e9" fill-opacity="0.5" stroke="#606060" stroke-width="1.0"/>
   <path id="arrow"
     d="M 11.500037,31.436501 C 11.940474,20.09759 22.043105,11.32322 32.158766,21.979434 L 37.068811,17.246167 C 37.068811,17.246167 37.088388,32 37.088388,32 L 22.160133,31.978069 C 22.160133,31.978069 26.997745,27.140456 26.997745,27.140456 C 18.528582,18.264221 13.291696,25.230495 11.500037,31.436501 z"
     style="fill:#404040;"/>
  </a>
 </g>
</svg>

<style type='text/css'>
<![CDATA[
[data-mouse-over-selected='false'] { opacity: 0.7; }
[data-mouse-over-selected='true']  { opacity: 1.0; }
]]>
</style>
<script type="application/ecmascript"><![CDATA[
document.addEventListener('DOMContentLoaded', (event) => {
  highlightEdges();
  highlightAdjacentNodes();
});
]]></script>
</svg>
