<?xml version="1.0" encoding="UTF-8" standalone="no"?>
<!DOCTYPE svg PUBLIC "-//W3C//DTD SVG 1.1//EN"
 "http://www.w3.org/Graphics/SVG/1.1/DTD/svg11.dtd">
<!-- Generated by graphviz version 10.0.1 (20240210.2158)
 -->
<!-- Title: ml::maths::common::CPrior Pages: 1 -->
<!--zoomable 382 -->

<svg id="main" version="1.1" xmlns="http://www.w3.org/2000/svg" xmlns:xlink="http://www.w3.org/1999/xlink" xml:space="preserve" onload="init(evt)">
<style type="text/css"><![CDATA[
.node, .edge {opacity: 0.7;}
.node.selected, .edge.selected {opacity: 1;}
.edge:hover path { stroke: red; }
.edge:hover polygon { stroke: red; fill: red; }
]]></style>

<defs>
  <circle id="rim" cx="0" cy="0" r="7"/>
  <circle id="rim2" cx="0" cy="0" r="3.5"/>
  <g id="zoomPlus">
    <use xlink:href="#rim" fill="#404040"><set attributeName="fill" to="#808080" begin="zoomplus.mouseover" end="zoomplus.mouseout"/></use>
    <path d="M-4,0h8M0,-4v8" fill="none" stroke="white" stroke-width="1.5" pointer-events="none"/>
  </g>
  <g id="zoomMin">
    <use xlink:href="#rim" fill="#404040"><set attributeName="fill" to="#808080" begin="zoomminus.mouseover" end="zoomminus.mouseout"/></use>
    <path d="M-4,0h8" fill="none" stroke="white" stroke-width="1.5" pointer-events="none"/>
  </g>
  <g id="arrowUp" transform="translate(30 24)">
    <use xlink:href="#rim"/>
    <path pointer-events="none" fill="none" stroke="white" stroke-width="1.5" d="M0,-3.0v7 M-2.5,-0.5L0,-3.0L2.5,-0.5"/>
  </g>
  <g id="arrowRight" transform="rotate(90) translate(36 -43)">
    <use xlink:href="#rim"/>
    <path pointer-events="none" fill="none" stroke="white" stroke-width="1.5" d="M0,-3.0v7 M-2.5,-0.5L0,-3.0L2.5,-0.5"/>
  </g>
  <g id="arrowDown" transform="rotate(180) translate(-30 -48)">
    <use xlink:href="#rim"/>
    <path pointer-events="none" fill="none" stroke="white" stroke-width="1.5" d="M0,-3.0v7 M-2.5,-0.5L0,-3.0L2.5,-0.5"/>
  </g>
  <g id="arrowLeft" transform="rotate(270) translate(-36 17)">
    <use xlink:href="#rim"/>
    <path pointer-events="none" fill="none" stroke="white" stroke-width="1.5" d="M0,-3.0v7 M-2.5,-0.5L0,-3.0L2.5,-0.5"/>
  </g>
  <g id="resetDef">
    <use xlink:href="#rim2" fill="#404040"><set attributeName="fill" to="#808080" begin="reset.mouseover" end="reset.mouseout"/></use>
  </g>
</defs>
<script type="application/ecmascript">
var viewWidth = 560;
var viewHeight = 382;
var sectionId = 'dynsection-0';
</script>
<script type="application/ecmascript" xlink:href="../../svg.min.js"/>
<svg id="graph" class="graph">
<g id="viewport">
<title>ml::maths::common::CPrior</title>
<!-- Node1 -->
<g id="Node000001" class="node">
<title>Node1</title>
<g id="a_Node000001"><a xlink:title="Interface for a prior distribution function.">
<polygon fill="#999999" stroke="#666666" points="109,-201.5 0,-201.5 0,-171 109,-171 109,-201.5"/>
<text text-anchor="start" x="8" y="-188" font-family="Helvetica,sans-Serif" font-size="10.00">ml::maths::common::</text>
<text text-anchor="middle" x="54.5" y="-176.75" font-family="Helvetica,sans-Serif" font-size="10.00">CPrior</text>
</a>
</g>
</g>
<!-- Node2 -->
<g id="Node000002" class="node">
<title>Node2</title>
<g id="a_Node000002"><a xlink:href="../../d0/de4/classml_1_1maths_1_1common_1_1_c_constant_prior.html" target="_top" xlink:title="A very lightweight prior for representing data for which expect a single value.">
<polygon fill="white" stroke="#666666" points="279.12,-373.5 170.12,-373.5 170.12,-343 279.12,-343 279.12,-373.5"/>
<text text-anchor="start" x="178.12" y="-360" font-family="Helvetica,sans-Serif" font-size="10.00">ml::maths::common::</text>
<text text-anchor="middle" x="224.62" y="-348.75" font-family="Helvetica,sans-Serif" font-size="10.00">CConstantPrior</text>
</a>
</g>
</g>
<!-- Node1&#45;&gt;Node2 -->
<g id="edge1_Node000001_Node000002" class="edge">
<title>Node1&#45;&gt;Node2</title>
<g id="a_edge1_Node000001_Node000002"><a xlink:title=" ">
<path fill="none" stroke="#63b8ff" d="M64.68,-212.21C77.6,-245.06 104.23,-301.22 145,-333.25 152.32,-339 160.99,-343.44 169.86,-346.87"/>
<polygon fill="#63b8ff" stroke="#63b8ff" points="68.03,-211.17 61.22,-203.06 61.49,-213.65 68.03,-211.17"/>
</a>
</g>
</g>
<!-- Node3 -->
<g id="Node000003" class="node">
<title>Node3</title>
<g id="a_Node000003"><a xlink:href="../../d3/d20/classml_1_1maths_1_1common_1_1_c_gamma_rate_conjugate.html" target="_top" xlink:title="A conjugate prior distribution for a stationary gamma variable.">
<polygon fill="white" stroke="#666666" points="286.25,-324.5 163,-324.5 163,-294 286.25,-294 286.25,-324.5"/>
<text text-anchor="start" x="171" y="-311" font-family="Helvetica,sans-Serif" font-size="10.00">ml::maths::common::</text>
<text text-anchor="middle" x="224.62" y="-299.75" font-family="Helvetica,sans-Serif" font-size="10.00">CGammaRateConjugate</text>
</a>
</g>
</g>
<!-- Node1&#45;&gt;Node3 -->
<g id="edge2_Node000001_Node000003" class="edge">
<title>Node1&#45;&gt;Node3</title>
<g id="a_edge2_Node000001_Node000003"><a xlink:title=" ">
<path fill="none" stroke="#63b8ff" d="M72.24,-210.96C88.43,-233.11 114.91,-264.99 145,-284.25 150.55,-287.8 156.64,-290.88 162.91,-293.55"/>
<polygon fill="#63b8ff" stroke="#63b8ff" points="75.27,-209.19 66.62,-203.08 69.57,-213.25 75.27,-209.19"/>
</a>
</g>
</g>
<!-- Node4 -->
<g id="Node000004" class="node">
<title>Node4</title>
<g id="a_Node000004"><a xlink:href="../../d5/dd0/classml_1_1maths_1_1common_1_1_c_log_normal_mean_prec_conjugate.html" target="_top" xlink:title="A conjugate prior distribution for a log&#45;normal variable.">
<polygon fill="white" stroke="#666666" points="304.25,-275.5 145,-275.5 145,-245 304.25,-245 304.25,-275.5"/>
<text text-anchor="start" x="153" y="-262" font-family="Helvetica,sans-Serif" font-size="10.00">ml::maths::common::</text>
<text text-anchor="middle" x="224.62" y="-250.75" font-family="Helvetica,sans-Serif" font-size="10.00">CLogNormalMeanPrecConjugate</text>
</a>
</g>
</g>
<!-- Node1&#45;&gt;Node4 -->
<g id="edge3_Node000001_Node000004" class="edge">
<title>Node1&#45;&gt;Node4</title>
<g id="a_edge3_Node000001_Node000004"><a xlink:title=" ">
<path fill="none" stroke="#63b8ff" d="M90.66,-207.55C106.85,-216.82 126.52,-227.34 145,-235.25 152.77,-238.58 161.13,-241.7 169.41,-244.53"/>
<polygon fill="#63b8ff" stroke="#63b8ff" points="92.79,-204.74 82.38,-202.74 89.27,-210.79 92.79,-204.74"/>
</a>
</g>
</g>
<!-- Node5 -->
<g id="Node000005" class="node">
<title>Node5</title>
<g id="a_Node000005"><a xlink:href="../../dc/d23/classml_1_1maths_1_1common_1_1_c_multimodal_prior.html" target="_top" xlink:title="Implementation for a multimodal prior distribution.">
<polygon fill="white" stroke="#666666" points="279.12,-226.5 170.12,-226.5 170.12,-196 279.12,-196 279.12,-226.5"/>
<text text-anchor="start" x="178.12" y="-213" font-family="Helvetica,sans-Serif" font-size="10.00">ml::maths::common::</text>
<text text-anchor="middle" x="224.62" y="-201.75" font-family="Helvetica,sans-Serif" font-size="10.00">CMultimodalPrior</text>
</a>
</g>
</g>
<!-- Node1&#45;&gt;Node5 -->
<g id="edge4_Node000001_Node000005" class="edge">
<title>Node1&#45;&gt;Node5</title>
<g id="a_edge4_Node000001_Node000005"><a xlink:title=" ">
<path fill="none" stroke="#63b8ff" d="M120.31,-195.89C136.7,-198.32 154.12,-200.92 169.9,-203.26"/>
<polygon fill="#63b8ff" stroke="#63b8ff" points="121.06,-192.46 110.66,-194.45 120.03,-199.38 121.06,-192.46"/>
</a>
</g>
</g>
<!-- Node6 -->
<g id="Node000006" class="node">
<title>Node6</title>
<g id="a_Node000006"><a xlink:href="../../d5/d97/classml_1_1maths_1_1common_1_1_c_multinomial_conjugate.html" target="_top" xlink:title="A conjugate prior distribution for a multinomial variable.">
<polygon fill="white" stroke="#666666" points="283.25,-177.5 166,-177.5 166,-147 283.25,-147 283.25,-177.5"/>
<text text-anchor="start" x="174" y="-164" font-family="Helvetica,sans-Serif" font-size="10.00">ml::maths::common::</text>
<text text-anchor="middle" x="224.62" y="-152.75" font-family="Helvetica,sans-Serif" font-size="10.00">CMultinomialConjugate</text>
</a>
</g>
</g>
<!-- Node1&#45;&gt;Node6 -->
<g id="edge5_Node000001_Node000006" class="edge">
<title>Node1&#45;&gt;Node6</title>
<g id="a_edge5_Node000001_Node000006"><a xlink:title=" ">
<path fill="none" stroke="#63b8ff" d="M120.34,-176.99C135.22,-174.87 150.96,-172.62 165.54,-170.54"/>
<polygon fill="#63b8ff" stroke="#63b8ff" points="120.06,-173.5 110.66,-178.38 121.05,-180.43 120.06,-173.5"/>
</a>
</g>
</g>
<!-- Node8 -->
<g id="Node000008" class="node">
<title>Node8</title>
<g id="a_Node000008"><a xlink:href="../../d4/d8c/classml_1_1maths_1_1common_1_1_c_normal_mean_prec_conjugate.html" target="_top" xlink:title="A conjugate prior distribution for a normal variable.">
<polygon fill="white" stroke="#666666" points="296.38,-128.5 152.88,-128.5 152.88,-98 296.38,-98 296.38,-128.5"/>
<text text-anchor="start" x="160.88" y="-115" font-family="Helvetica,sans-Serif" font-size="10.00">ml::maths::common::</text>
<text text-anchor="middle" x="224.62" y="-103.75" font-family="Helvetica,sans-Serif" font-size="10.00">CNormalMeanPrecConjugate</text>
</a>
</g>
</g>
<!-- Node1&#45;&gt;Node8 -->
<g id="edge9_Node000001_Node000008" class="edge">
<title>Node1&#45;&gt;Node8</title>
<g id="a_edge9_Node000001_Node000008"><a xlink:title=" ">
<path fill="none" stroke="#63b8ff" d="M91.06,-165.22C107.19,-156.2 126.71,-145.98 145,-138.25 152.92,-134.9 161.44,-131.75 169.85,-128.89"/>
<polygon fill="#63b8ff" stroke="#63b8ff" points="89.79,-161.92 82.82,-169.91 93.24,-168.01 89.79,-161.92"/>
</a>
</g>
</g>
<!-- Node9 -->
<g id="Node000009" class="node">
<title>Node9</title>
<g id="a_Node000009"><a xlink:href="../../d0/dce/classml_1_1maths_1_1common_1_1_c_one_of_n_prior.html" target="_top" xlink:title="Interface for a prior distribution which assumes data are from one of N models.">
<polygon fill="white" stroke="#666666" points="279.12,-79.5 170.12,-79.5 170.12,-49 279.12,-49 279.12,-79.5"/>
<text text-anchor="start" x="178.12" y="-66" font-family="Helvetica,sans-Serif" font-size="10.00">ml::maths::common::</text>
<text text-anchor="middle" x="224.62" y="-54.75" font-family="Helvetica,sans-Serif" font-size="10.00">COneOfNPrior</text>
</a>
</g>
</g>
<!-- Node1&#45;&gt;Node9 -->
<g id="edge10_Node000001_Node000009" class="edge">
<title>Node1&#45;&gt;Node9</title>
<g id="a_edge10_Node000001_Node000009"><a xlink:title=" ">
<path fill="none" stroke="#63b8ff" d="M72.51,-161.5C88.77,-139.59 115.16,-108.24 145,-89.25 152.61,-84.41 161.24,-80.43 169.92,-77.19"/>
<polygon fill="#63b8ff" stroke="#63b8ff" points="69.68,-159.44 66.67,-169.59 75.36,-163.54 69.68,-159.44"/>
</a>
</g>
</g>
<!-- Node10 -->
<g id="Node000010" class="node">
<title>Node10</title>
<g id="a_Node000010"><a xlink:href="../../d6/d88/classml_1_1maths_1_1common_1_1_c_poisson_mean_conjugate.html" target="_top" xlink:title="Interface for a conjugate prior distribution for a Poisson variable.">
<polygon fill="white" stroke="#666666" points="288.12,-30.5 161.12,-30.5 161.12,0 288.12,0 288.12,-30.5"/>
<text text-anchor="start" x="169.12" y="-17" font-family="Helvetica,sans-Serif" font-size="10.00">ml::maths::common::</text>
<text text-anchor="middle" x="224.62" y="-5.75" font-family="Helvetica,sans-Serif" font-size="10.00">CPoissonMeanConjugate</text>
</a>
</g>
</g>
<!-- Node1&#45;&gt;Node10 -->
<g id="edge11_Node000001_Node000010" class="edge">
<title>Node1&#45;&gt;Node10</title>
<g id="a_edge11_Node000001_Node000010"><a xlink:title=" ">
<path fill="none" stroke="#63b8ff" d="M64.93,-159.96C77.98,-127.26 104.59,-71.9 145,-40.25 149.85,-36.45 155.29,-33.23 160.98,-30.48"/>
<polygon fill="#63b8ff" stroke="#63b8ff" points="61.74,-158.5 61.43,-169.09 68.28,-161.01 61.74,-158.5"/>
</a>
</g>
</g>
<!-- Node7 -->
<g id="Node000007" class="node">
<title>Node7</title>
<g id="a_Node000007"><a xlink:href="../../d1/dd8/classml_1_1_c_prior_test_interface_mixin.html" target="_top" xlink:title=" ">
<polygon fill="white" stroke="#666666" points="552,-177.5 340.25,-177.5 340.25,-147 552,-147 552,-177.5"/>
<text text-anchor="start" x="348.25" y="-164" font-family="Helvetica,sans-Serif" font-size="10.00">ml::CPriorTestInterfaceMixin</text>
<text text-anchor="middle" x="446.12" y="-152.75" font-family="Helvetica,sans-Serif" font-size="10.00">&lt; maths::common::CMultinomialConjugate &gt;</text>
</a>
</g>
</g>
<!-- Node6&#45;&gt;Node7 -->
<g id="edge6_Node000006_Node000007" class="edge">
<title>Node6&#45;&gt;Node7</title>
<g id="a_edge6_Node000006_Node000007"><a xlink:title=" ">
<path fill="none" stroke="#63b8ff" d="M294.87,-149.6C309.27,-148.97 324.74,-148.69 340.1,-148.76"/>
<polygon fill="#63b8ff" stroke="#63b8ff" points="294.9,-146.1 285.09,-150.11 295.26,-153.09 294.9,-146.1"/>
</a>
</g>
</g>
<!-- Node6&#45;&gt;Node7 -->
<g id="edge7_Node000006_Node000007" class="edge">
<title>Node6&#45;&gt;Node7</title>
<g id="a_edge7_Node000006_Node000007"><a xlink:title=" ">
<path fill="none" stroke="#63b8ff" d="M294.87,-162.25C309.27,-162.25 324.74,-162.25 340.1,-162.25"/>
<polygon fill="#63b8ff" stroke="#63b8ff" points="295.1,-158.75 285.1,-162.25 295.1,-165.75 295.1,-158.75"/>
</a>
</g>
</g>
<!-- Node6&#45;&gt;Node7 -->
<g id="edge8_Node000006_Node000007" class="edge">
<title>Node6&#45;&gt;Node7</title>
<g id="a_edge8_Node000006_Node000007"><a xlink:title=" ">
<path fill="none" stroke="#63b8ff" d="M294.87,-174.9C309.27,-175.53 324.74,-175.81 340.1,-175.74"/>
<polygon fill="#63b8ff" stroke="#63b8ff" points="295.26,-171.41 285.09,-174.39 294.9,-178.4 295.26,-171.41"/>
</a>
</g>
</g>
</g>
</svg>

<g id="navigator" transform="translate(0 0)" fill="#404254">
  <rect fill="#f2f5e9" fill-opacity="0.5" stroke="#606060" stroke-width=".5" x="0" y="0" width="60" height="60"/>
  <use id="zoomplus" xlink:href="#zoomPlus" x="17" y="9" onmousedown="handleZoom(evt,'in')"/>
  <use id="zoomminus" xlink:href="#zoomMin" x="42" y="9" onmousedown="handleZoom(evt,'out')"/>
  <use id="reset" xlink:href="#resetDef" x="30" y="36" onmousedown="handleReset()"/>
   <use id="arrowup" xlink:href="#arrowUp" x="0" y="0" onmousedown="handlePan(0,-1)"/>
  <use id="arrowright" xlink:href="#arrowRight" x="0" y="0" onmousedown="handlePan(1,0)"/>
  <use id="arrowdown" xlink:href="#arrowDown" x="0" y="0" onmousedown="handlePan(0,1)"/>
  <use id="arrowleft" xlink:href="#arrowLeft" x="0" y="0" onmousedown="handlePan(-1,0)"/>
</g>
<svg viewBox="0 0 15 15" width="100%" height="30px" preserveAspectRatio="xMaxYMin meet">
 <g id="arrow_out" transform="scale(0.3 0.3)">
  <a xlink:href="classml_1_1maths_1_1common_1_1_c_prior__inherit__graph_org.svg" target="_base">
   <rect id="button" ry="5" rx="5" y="6" x="6" height="38" width="38"
        fill="#f2f5e9" fill-opacity="0.5" stroke="#606060" stroke-width="1.0"/>
   <path id="arrow"
     d="M 11.500037,31.436501 C 11.940474,20.09759 22.043105,11.32322 32.158766,21.979434 L 37.068811,17.246167 C 37.068811,17.246167 37.088388,32 37.088388,32 L 22.160133,31.978069 C 22.160133,31.978069 26.997745,27.140456 26.997745,27.140456 C 18.528582,18.264221 13.291696,25.230495 11.500037,31.436501 z"
     style="fill:#404040;"/>
  </a>
 </g>
</svg>

<style type='text/css'>
<![CDATA[
[data-mouse-over-selected='false'] { opacity: 0.7; }
[data-mouse-over-selected='true']  { opacity: 1.0; }
]]>
</style>
<script type="application/ecmascript"><![CDATA[
document.addEventListener('DOMContentLoaded', (event) => {
  highlightEdges();
  highlightAdjacentNodes();
});
]]></script>
</svg>
