<?xml version="1.0" encoding="UTF-8" standalone="no"?>
<!DOCTYPE svg PUBLIC "-//W3C//DTD SVG 1.1//EN"
 "http://www.w3.org/Graphics/SVG/1.1/DTD/svg11.dtd">
<!-- Generated by graphviz version 10.0.1 (20240210.2158)
 -->
<!-- Title: ml::CCovarianceKernel::operator() Pages: 1 -->
<svg width="291pt" height="147pt"
 viewBox="0.00 0.00 291.25 147.12" xmlns="http://www.w3.org/2000/svg" xmlns:xlink="http://www.w3.org/1999/xlink">
<g id="graph0" class="graph" transform="scale(1 1) rotate(0) translate(4 143.12)">
<title>ml::CCovarianceKernel::operator()</title>
<!-- Node1 -->
<g id="Node000001" class="node">
<title>Node1</title>
<g id="a_Node000001"><a xlink:title=" ">
<polygon fill="#999999" stroke="#666666" points="117.25,-90.12 0,-90.12 0,-59.62 117.25,-59.62 117.25,-90.12"/>
<text text-anchor="start" x="8" y="-76.62" font-family="Helvetica,sans-Serif" font-size="10.00">ml::CCovarianceKernel</text>
<text text-anchor="middle" x="58.62" y="-65.38" font-family="Helvetica,sans-Serif" font-size="10.00">::operator()</text>
</a>
</g>
</g>
<!-- Node2 -->
<g id="Node000002" class="node">
<title>Node2</title>
<g id="a_Node000002"><a xlink:href="../../d7/d11/classml_1_1maths_1_1common_1_1_c_vector_nx1.html#a8b13320ac3b008442f01ff2629e413a9" target="_top" xlink:title="Get an iterator over the elements.">
<polygon fill="white" stroke="#666666" points="272.75,-139.12 163.75,-139.12 163.75,-108.62 272.75,-108.62 272.75,-139.12"/>
<text text-anchor="start" x="171.75" y="-125.62" font-family="Helvetica,sans-Serif" font-size="10.00">ml::maths::common::</text>
<text text-anchor="middle" x="218.25" y="-114.38" font-family="Helvetica,sans-Serif" font-size="10.00">CVectorNx1::begin</text>
</a>
</g>
</g>
<!-- Node1&#45;&gt;Node2 -->
<g id="edge1_Node000001_Node000002" class="edge">
<title>Node1&#45;&gt;Node2</title>
<g id="a_edge1_Node000001_Node000002"><a xlink:title=" ">
<path fill="none" stroke="#63b8ff" d="M109.93,-90.51C124.5,-95.04 140.58,-100.04 155.75,-104.76"/>
<polygon fill="#63b8ff" stroke="#63b8ff" points="154.58,-108.06 165.16,-107.68 156.65,-101.37 154.58,-108.06"/>
</a>
</g>
</g>
<!-- Node3 -->
<g id="Node000003" class="node">
<title>Node3</title>
<g id="a_Node000003"><a xlink:href="../../d7/d11/classml_1_1maths_1_1common_1_1_c_vector_nx1.html#ad8327efc1376c289b532924c80d91016" target="_top" xlink:title="Get an iterator to the end of the elements.">
<polygon fill="white" stroke="#666666" points="272.75,-90.12 163.75,-90.12 163.75,-59.62 272.75,-59.62 272.75,-90.12"/>
<text text-anchor="start" x="171.75" y="-76.62" font-family="Helvetica,sans-Serif" font-size="10.00">ml::maths::common::</text>
<text text-anchor="middle" x="218.25" y="-65.38" font-family="Helvetica,sans-Serif" font-size="10.00">CVectorNx1::end</text>
</a>
</g>
</g>
<!-- Node1&#45;&gt;Node3 -->
<g id="edge2_Node000001_Node000003" class="edge">
<title>Node1&#45;&gt;Node3</title>
<g id="a_edge2_Node000001_Node000003"><a xlink:title=" ">
<path fill="none" stroke="#63b8ff" d="M117.42,-74.88C128.69,-74.88 140.58,-74.88 152.07,-74.88"/>
<polygon fill="#63b8ff" stroke="#63b8ff" points="151.87,-78.38 161.87,-74.88 151.87,-71.38 151.87,-78.38"/>
</a>
</g>
</g>
<!-- Node4 -->
<g id="Node000004" class="node">
<title>Node4</title>
<g id="a_Node000004"><a xlink:href="../../d9/d0b/classml_1_1maths_1_1common_1_1_c_multivariate_prior.html#a75b29b55e46905369a324dbf334c483c" target="_top" xlink:title=" ">
<polygon fill="white" stroke="#666666" points="283.25,-41.75 153.25,-41.75 153.25,0 283.25,0 283.25,-41.75"/>
<text text-anchor="start" x="161.25" y="-28.25" font-family="Helvetica,sans-Serif" font-size="10.00">ml::maths::common::</text>
<text text-anchor="start" x="161.25" y="-17" font-family="Helvetica,sans-Serif" font-size="10.00">CMultivariatePrior::</text>
<text text-anchor="middle" x="218.25" y="-5.75" font-family="Helvetica,sans-Serif" font-size="10.00">jointLogMarginalLikelihood</text>
</a>
</g>
</g>
<!-- Node1&#45;&gt;Node4 -->
<g id="edge3_Node000001_Node000004" class="edge">
<title>Node1&#45;&gt;Node4</title>
<g id="a_edge3_Node000001_Node000004"><a xlink:title=" ">
<path fill="none" stroke="#63b8ff" d="M105.22,-59.26C117.48,-55.05 131.07,-50.4 144.42,-45.83"/>
<polygon fill="#63b8ff" stroke="#63b8ff" points="145.29,-49.23 153.62,-42.67 143.02,-42.6 145.29,-49.23"/>
</a>
</g>
</g>
</g>
</svg>
