<?xml version="1.0" encoding="UTF-8" standalone="no"?>
<!DOCTYPE svg PUBLIC "-//W3C//DTD SVG 1.1//EN"
 "http://www.w3.org/Graphics/SVG/1.1/DTD/svg11.dtd">
<!-- Generated by graphviz version 10.0.1 (20240210.2158)
 -->
<!-- Title: ml::maths::common::CBasicStatistics::CMinMax::signMargin Pages: 1 -->
<!--zoomable 162 -->

<svg id="main" version="1.1" xmlns="http://www.w3.org/2000/svg" xmlns:xlink="http://www.w3.org/1999/xlink" xml:space="preserve" onload="init(evt)">
<style type="text/css"><![CDATA[
.node, .edge {opacity: 0.7;}
.node.selected, .edge.selected {opacity: 1;}
.edge:hover path { stroke: red; }
.edge:hover polygon { stroke: red; fill: red; }
]]></style>

<defs>
  <circle id="rim" cx="0" cy="0" r="7"/>
  <circle id="rim2" cx="0" cy="0" r="3.5"/>
  <g id="zoomPlus">
    <use xlink:href="#rim" fill="#404040"><set attributeName="fill" to="#808080" begin="zoomplus.mouseover" end="zoomplus.mouseout"/></use>
    <path d="M-4,0h8M0,-4v8" fill="none" stroke="white" stroke-width="1.5" pointer-events="none"/>
  </g>
  <g id="zoomMin">
    <use xlink:href="#rim" fill="#404040"><set attributeName="fill" to="#808080" begin="zoomminus.mouseover" end="zoomminus.mouseout"/></use>
    <path d="M-4,0h8" fill="none" stroke="white" stroke-width="1.5" pointer-events="none"/>
  </g>
  <g id="arrowUp" transform="translate(30 24)">
    <use xlink:href="#rim"/>
    <path pointer-events="none" fill="none" stroke="white" stroke-width="1.5" d="M0,-3.0v7 M-2.5,-0.5L0,-3.0L2.5,-0.5"/>
  </g>
  <g id="arrowRight" transform="rotate(90) translate(36 -43)">
    <use xlink:href="#rim"/>
    <path pointer-events="none" fill="none" stroke="white" stroke-width="1.5" d="M0,-3.0v7 M-2.5,-0.5L0,-3.0L2.5,-0.5"/>
  </g>
  <g id="arrowDown" transform="rotate(180) translate(-30 -48)">
    <use xlink:href="#rim"/>
    <path pointer-events="none" fill="none" stroke="white" stroke-width="1.5" d="M0,-3.0v7 M-2.5,-0.5L0,-3.0L2.5,-0.5"/>
  </g>
  <g id="arrowLeft" transform="rotate(270) translate(-36 17)">
    <use xlink:href="#rim"/>
    <path pointer-events="none" fill="none" stroke="white" stroke-width="1.5" d="M0,-3.0v7 M-2.5,-0.5L0,-3.0L2.5,-0.5"/>
  </g>
  <g id="resetDef">
    <use xlink:href="#rim2" fill="#404040"><set attributeName="fill" to="#808080" begin="reset.mouseover" end="reset.mouseout"/></use>
  </g>
</defs>
<script type="application/ecmascript">
var viewWidth = 936;
var viewHeight = 162;
var sectionId = 'dynsection-9';
</script>
<script type="application/ecmascript" xlink:href="../../svg.min.js"/>
<svg id="graph" class="graph">
<g id="viewport">
<title>ml::maths::common::CBasicStatistics::CMinMax::signMargin</title>
<!-- Node1 -->
<g id="Node000001" class="node">
<title>Node1</title>
<g id="a_Node000001"><a xlink:title="Get the margin by which all the values have the same sign.">
<polygon fill="#999999" stroke="#666666" points="928.25,-139.75 790.75,-139.75 790.75,-98 928.25,-98 928.25,-139.75"/>
<text text-anchor="start" x="798.75" y="-126.25" font-family="Helvetica,sans-Serif" font-size="10.00">ml::maths::common::</text>
<text text-anchor="start" x="798.75" y="-115" font-family="Helvetica,sans-Serif" font-size="10.00">CBasicStatistics::CMinMax</text>
<text text-anchor="middle" x="859.5" y="-103.75" font-family="Helvetica,sans-Serif" font-size="10.00">::signMargin</text>
</a>
</g>
</g>
<!-- Node2 -->
<g id="Node000002" class="node">
<title>Node2</title>
<g id="a_Node000002"><a xlink:href="../../d8/dfa/_c_basic_statistics_test_8cc.html#a3250df61b2ce5a979c1d4bf3250e9656" target="_top" xlink:title=" ">
<polygon fill="white" stroke="#666666" points="749.12,-153.5 601.88,-153.5 601.88,-134.25 749.12,-134.25 749.12,-153.5"/>
<text text-anchor="middle" x="675.5" y="-140" font-family="Helvetica,sans-Serif" font-size="10.00">BOOST_AUTO_TEST_CASE</text>
</a>
</g>
</g>
<!-- Node1&#45;&gt;Node2 -->
<g id="edge1_Node000001_Node000002" class="edge">
<title>Node1&#45;&gt;Node2</title>
<g id="a_edge1_Node000001_Node000002"><a xlink:title=" ">
<path fill="none" stroke="#63b8ff" d="M779.32,-129.75C769.35,-131.12 759.19,-132.52 749.32,-133.87"/>
<polygon fill="#63b8ff" stroke="#63b8ff" points="779.54,-133.25 788.97,-128.43 778.59,-126.32 779.54,-133.25"/>
</a>
</g>
</g>
<!-- Node3 -->
<g id="Node000003" class="node">
<title>Node3</title>
<g id="a_Node000003"><a xlink:href="../../db/de4/classml_1_1maths_1_1time__series_1_1_c_seasonal_component_adaptive_bucketing.html#a0234f443748abafc85d09712af578b95" target="_top" xlink:title="Get the common slope of the bucket regression models.">
<polygon fill="white" stroke="#666666" points="754.75,-115.75 596.25,-115.75 596.25,-74 754.75,-74 754.75,-115.75"/>
<text text-anchor="start" x="604.25" y="-102.25" font-family="Helvetica,sans-Serif" font-size="10.00">ml::maths::time_series</text>
<text text-anchor="start" x="604.25" y="-91" font-family="Helvetica,sans-Serif" font-size="10.00">::CSeasonalComponentAdaptive</text>
<text text-anchor="middle" x="675.5" y="-79.75" font-family="Helvetica,sans-Serif" font-size="10.00">Bucketing::slope</text>
</a>
</g>
</g>
<!-- Node1&#45;&gt;Node3 -->
<g id="edge2_Node000001_Node000003" class="edge">
<title>Node1&#45;&gt;Node3</title>
<g id="a_edge2_Node000001_Node000003"><a xlink:title=" ">
<path fill="none" stroke="#63b8ff" d="M779.28,-108.43C771.28,-107.37 763.16,-106.3 755.17,-105.25"/>
<polygon fill="#63b8ff" stroke="#63b8ff" points="778.6,-111.87 788.97,-109.71 779.51,-104.93 778.6,-111.87"/>
</a>
</g>
</g>
<!-- Node4 -->
<g id="Node000004" class="node">
<title>Node4</title>
<g id="a_Node000004"><a xlink:href="../../d0/de7/_c_seasonal_component_adaptive_bucketing_test_8cc.html#a7a2446117e41608ffd09eb34186757f3" target="_top" xlink:title=" ">
<polygon fill="white" stroke="#666666" points="365.75,-153.5 218.5,-153.5 218.5,-134.25 365.75,-134.25 365.75,-153.5"/>
<text text-anchor="middle" x="292.12" y="-140" font-family="Helvetica,sans-Serif" font-size="10.00">BOOST_AUTO_TEST_CASE</text>
</a>
</g>
</g>
<!-- Node3&#45;&gt;Node4 -->
<g id="edge3_Node000003_Node000004" class="edge">
<title>Node3&#45;&gt;Node4</title>
<g id="a_edge3_Node000003_Node000004"><a xlink:title=" ">
<path fill="none" stroke="#63b8ff" d="M590.55,-118.81C580.4,-121.14 570.13,-123.24 560.25,-124.88 495.11,-135.65 420.05,-140.31 366.11,-142.34"/>
<polygon fill="#63b8ff" stroke="#63b8ff" points="591.1,-122.27 600.02,-116.55 589.48,-115.46 591.1,-122.27"/>
</a>
</g>
</g>
<!-- Node5 -->
<g id="Node000005" class="node">
<title>Node5</title>
<g id="a_Node000005"><a xlink:href="../../db/de4/classml_1_1maths_1_1time__series_1_1_c_seasonal_component_adaptive_bucketing.html#ae46bcff4e98237ce406cd2f74028c104" target="_top" xlink:title=" ">
<polygon fill="white" stroke="#666666" points="560.25,-115.75 401.75,-115.75 401.75,-74 560.25,-74 560.25,-115.75"/>
<text text-anchor="start" x="409.75" y="-102.25" font-family="Helvetica,sans-Serif" font-size="10.00">ml::maths::time_series</text>
<text text-anchor="start" x="409.75" y="-91" font-family="Helvetica,sans-Serif" font-size="10.00">::CSeasonalComponentAdaptive</text>
<text text-anchor="middle" x="481" y="-79.75" font-family="Helvetica,sans-Serif" font-size="10.00">Bucketing::initialValues</text>
</a>
</g>
</g>
<!-- Node3&#45;&gt;Node5 -->
<g id="edge4_Node000003_Node000005" class="edge">
<title>Node3&#45;&gt;Node5</title>
<g id="a_edge4_Node000003_Node000005"><a xlink:title=" ">
<path fill="none" stroke="#63b8ff" d="M584.65,-94.88C576.63,-94.88 568.55,-94.88 560.64,-94.88"/>
<polygon fill="#63b8ff" stroke="#63b8ff" points="584.41,-98.38 594.41,-94.88 584.41,-91.38 584.41,-98.38"/>
</a>
</g>
</g>
<!-- Node10 -->
<g id="Node000010" class="node">
<title>Node10</title>
<g id="a_Node000010"><a xlink:href="../../d1/d1d/classml_1_1maths_1_1time__series_1_1_c_seasonal_component.html#aee1ec863fda6aa2c868efcaeec45b58d" target="_top" xlink:title="Get the common slope of the bucket regression models.">
<polygon fill="white" stroke="#666666" points="555.75,-56.12 406.25,-56.12 406.25,-25.62 555.75,-25.62 555.75,-56.12"/>
<text text-anchor="start" x="414.25" y="-42.62" font-family="Helvetica,sans-Serif" font-size="10.00">ml::maths::time_series</text>
<text text-anchor="middle" x="481" y="-31.38" font-family="Helvetica,sans-Serif" font-size="10.00">::CSeasonalComponent::slope</text>
</a>
</g>
</g>
<!-- Node3&#45;&gt;Node10 -->
<g id="edge10_Node000003_Node000010" class="edge">
<title>Node3&#45;&gt;Node10</title>
<g id="a_edge10_Node000003_Node000010"><a xlink:title=" ">
<path fill="none" stroke="#63b8ff" d="M587.44,-70.45C570.63,-65.74 553.43,-60.91 537.94,-56.57"/>
<polygon fill="#63b8ff" stroke="#63b8ff" points="586.39,-73.79 596.96,-73.12 588.28,-67.05 586.39,-73.79"/>
</a>
</g>
</g>
<!-- Node5&#45;&gt;Node4 -->
<g id="edge7_Node000005_Node000004" class="edge">
<title>Node5&#45;&gt;Node4</title>
<g id="a_edge7_Node000005_Node000004"><a xlink:title=" ">
<path fill="none" stroke="#63b8ff" d="M391.38,-119.13C382.73,-121.43 374.07,-123.71 365.75,-125.88 355.69,-128.49 344.83,-131.22 334.64,-133.75"/>
<polygon fill="#63b8ff" stroke="#63b8ff" points="392.1,-122.56 400.86,-116.59 390.29,-115.79 392.1,-122.56"/>
</a>
</g>
</g>
<!-- Node6 -->
<g id="Node000006" class="node">
<title>Node6</title>
<g id="a_Node000006"><a xlink:href="../../d0/de7/_c_seasonal_component_adaptive_bucketing_test_8cc.html#a6ace0510d94b4171a5d28caa7232f876" target="_top" xlink:title=" ">
<polygon fill="white" stroke="#666666" points="365.75,-116.5 218.5,-116.5 218.5,-97.25 365.75,-97.25 365.75,-116.5"/>
<text text-anchor="middle" x="292.12" y="-103" font-family="Helvetica,sans-Serif" font-size="10.00">BOOST_AUTO_TEST_CASE</text>
</a>
</g>
</g>
<!-- Node5&#45;&gt;Node6 -->
<g id="edge5_Node000005_Node000006" class="edge">
<title>Node5&#45;&gt;Node6</title>
<g id="a_edge5_Node000005_Node000006"><a xlink:title=" ">
<path fill="none" stroke="#63b8ff" d="M390,-100.65C381.99,-101.17 373.94,-101.69 366.09,-102.19"/>
<polygon fill="#63b8ff" stroke="#63b8ff" points="390.02,-104.16 399.78,-100.03 389.58,-97.17 390.02,-104.16"/>
</a>
</g>
</g>
<!-- Node7 -->
<g id="Node000007" class="node">
<title>Node7</title>
<g id="a_Node000007"><a xlink:href="../../d0/de7/_c_seasonal_component_adaptive_bucketing_test_8cc.html#a83d3db08b40e753bcbf9bc6672205f64" target="_top" xlink:title=" ">
<polygon fill="white" stroke="#666666" points="365.75,-79.5 218.5,-79.5 218.5,-60.25 365.75,-60.25 365.75,-79.5"/>
<text text-anchor="middle" x="292.12" y="-66" font-family="Helvetica,sans-Serif" font-size="10.00">BOOST_AUTO_TEST_CASE</text>
</a>
</g>
</g>
<!-- Node5&#45;&gt;Node7 -->
<g id="edge6_Node000005_Node000007" class="edge">
<title>Node5&#45;&gt;Node7</title>
<g id="a_edge6_Node000005_Node000007"><a xlink:title=" ">
<path fill="none" stroke="#63b8ff" d="M390,-82.84C381.99,-81.76 373.94,-80.69 366.09,-79.64"/>
<polygon fill="#63b8ff" stroke="#63b8ff" points="389.41,-86.29 399.79,-84.14 390.34,-79.35 389.41,-86.29"/>
</a>
</g>
</g>
<!-- Node8 -->
<g id="Node000008" class="node">
<title>Node8</title>
<g id="a_Node000008"><a xlink:href="../../d1/d1d/classml_1_1maths_1_1time__series_1_1_c_seasonal_component.html#aba0b2f1de40ae81b63d2916ced7c15e3" target="_top" xlink:title="Initialize the adaptive bucketing.">
<polygon fill="white" stroke="#666666" points="355.25,-41.75 229,-41.75 229,0 355.25,0 355.25,-41.75"/>
<text text-anchor="start" x="237" y="-28.25" font-family="Helvetica,sans-Serif" font-size="10.00">ml::maths::time_series</text>
<text text-anchor="start" x="237" y="-17" font-family="Helvetica,sans-Serif" font-size="10.00">::CSeasonalComponent::</text>
<text text-anchor="middle" x="292.12" y="-5.75" font-family="Helvetica,sans-Serif" font-size="10.00">initialize</text>
</a>
</g>
</g>
<!-- Node5&#45;&gt;Node8 -->
<g id="edge8_Node000005_Node000008" class="edge">
<title>Node5&#45;&gt;Node8</title>
<g id="a_edge8_Node000005_Node000008"><a xlink:title=" ">
<path fill="none" stroke="#63b8ff" d="M413.44,-69.45C409.48,-67.91 405.56,-66.38 401.75,-64.88 383.29,-57.6 363.14,-49.48 345.26,-42.22"/>
<polygon fill="#63b8ff" stroke="#63b8ff" points="411.96,-72.63 422.54,-72.99 414.49,-66.11 411.96,-72.63"/>
</a>
</g>
</g>
<!-- Node9 -->
<g id="Node000009" class="node">
<title>Node9</title>
<g id="a_Node000009"><a xlink:href="../../de/da5/classml_1_1maths_1_1time__series_1_1_c_new_seasonal_component_summary.html#a4f24706e33caadc86c16b5ad00d7d6c1" target="_top" xlink:title="Create a seasonal component from the initial values.">
<polygon fill="white" stroke="#666666" points="182.5,-41.75 0,-41.75 0,0 182.5,0 182.5,-41.75"/>
<text text-anchor="start" x="8" y="-28.25" font-family="Helvetica,sans-Serif" font-size="10.00">ml::maths::time_series</text>
<text text-anchor="start" x="8" y="-17" font-family="Helvetica,sans-Serif" font-size="10.00">::CNewSeasonalComponentSummary</text>
<text text-anchor="middle" x="91.25" y="-5.75" font-family="Helvetica,sans-Serif" font-size="10.00">::createSeasonalComponent</text>
</a>
</g>
</g>
<!-- Node8&#45;&gt;Node9 -->
<g id="edge9_Node000008_Node000009" class="edge">
<title>Node8&#45;&gt;Node9</title>
<g id="a_edge9_Node000008_Node000009"><a xlink:title=" ">
<path fill="none" stroke="#63b8ff" d="M217.25,-20.88C206.03,-20.88 194.34,-20.88 182.81,-20.88"/>
<polygon fill="#63b8ff" stroke="#63b8ff" points="217.23,-24.38 227.23,-20.88 217.23,-17.38 217.23,-24.38"/>
</a>
</g>
</g>
</g>
</svg>

<g id="navigator" transform="translate(0 0)" fill="#404254">
  <rect fill="#f2f5e9" fill-opacity="0.5" stroke="#606060" stroke-width=".5" x="0" y="0" width="60" height="60"/>
  <use id="zoomplus" xlink:href="#zoomPlus" x="17" y="9" onmousedown="handleZoom(evt,'in')"/>
  <use id="zoomminus" xlink:href="#zoomMin" x="42" y="9" onmousedown="handleZoom(evt,'out')"/>
  <use id="reset" xlink:href="#resetDef" x="30" y="36" onmousedown="handleReset()"/>
   <use id="arrowup" xlink:href="#arrowUp" x="0" y="0" onmousedown="handlePan(0,-1)"/>
  <use id="arrowright" xlink:href="#arrowRight" x="0" y="0" onmousedown="handlePan(1,0)"/>
  <use id="arrowdown" xlink:href="#arrowDown" x="0" y="0" onmousedown="handlePan(0,1)"/>
  <use id="arrowleft" xlink:href="#arrowLeft" x="0" y="0" onmousedown="handlePan(-1,0)"/>
</g>
<svg viewBox="0 0 15 15" width="100%" height="30px" preserveAspectRatio="xMaxYMin meet">
 <g id="arrow_out" transform="scale(0.3 0.3)">
  <a xlink:href="classml_1_1maths_1_1common_1_1_c_basic_statistics_1_1_c_min_max_ac052ec404660d4d946481a96d7960f00_icgraph_org.svg" target="_base">
   <rect id="button" ry="5" rx="5" y="6" x="6" height="38" width="38"
        fill="#f2f5e9" fill-opacity="0.5" stroke="#606060" stroke-width="1.0"/>
   <path id="arrow"
     d="M 11.500037,31.436501 C 11.940474,20.09759 22.043105,11.32322 32.158766,21.979434 L 37.068811,17.246167 C 37.068811,17.246167 37.088388,32 37.088388,32 L 22.160133,31.978069 C 22.160133,31.978069 26.997745,27.140456 26.997745,27.140456 C 18.528582,18.264221 13.291696,25.230495 11.500037,31.436501 z"
     style="fill:#404040;"/>
  </a>
 </g>
</svg>

<style type='text/css'>
<![CDATA[
[data-mouse-over-selected='false'] { opacity: 0.7; }
[data-mouse-over-selected='true']  { opacity: 1.0; }
]]>
</style>
<script type="application/ecmascript"><![CDATA[
document.addEventListener('DOMContentLoaded', (event) => {
  highlightEdges();
  highlightAdjacentNodes();
});
]]></script>
</svg>
