<?xml version="1.0" encoding="UTF-8" standalone="no"?>
<!DOCTYPE svg PUBLIC "-//W3C//DTD SVG 1.1//EN"
 "http://www.w3.org/Graphics/SVG/1.1/DTD/svg11.dtd">
<!-- Generated by graphviz version 10.0.1 (20240210.2158)
 -->
<!-- Title: ml::model::CEventRateBucketGatherer::bucketCompressedLengthPerPerson Pages: 1 -->
<svg width="419pt" height="125pt"
 viewBox="0.00 0.00 419.00 124.88" xmlns="http://www.w3.org/2000/svg" xmlns:xlink="http://www.w3.org/1999/xlink">
<g id="graph0" class="graph" transform="scale(1 1) rotate(0) translate(4 120.88)">
<title>ml::model::CEventRateBucketGatherer::bucketCompressedLengthPerPerson</title>
<!-- Node1 -->
<g id="Node000001" class="node">
<title>Node1</title>
<g id="a_Node000001"><a xlink:title=" ">
<polygon fill="#999999" stroke="#666666" points="173.5,-73.5 0,-73.5 0,-31.75 173.5,-31.75 173.5,-73.5"/>
<text text-anchor="start" x="8" y="-60" font-family="Helvetica,sans-Serif" font-size="10.00">ml::model::CEventRateBucket</text>
<text text-anchor="start" x="8" y="-48.75" font-family="Helvetica,sans-Serif" font-size="10.00">Gatherer::bucketCompressedLength</text>
<text text-anchor="middle" x="86.75" y="-37.5" font-family="Helvetica,sans-Serif" font-size="10.00">PerPerson</text>
</a>
</g>
</g>
<!-- Node2 -->
<g id="Node000002" class="node">
<title>Node2</title>
<g id="a_Node000002"><a xlink:href="../../d0/d91/classml_1_1model_1_1_c_data_gatherer.html#a092d56a944c5207b431c343719e5079b" target="_top" xlink:title="Extract the data from a tuple.">
<polygon fill="white" stroke="#666666" points="340.25,-116.88 209.5,-116.88 209.5,-86.38 340.25,-86.38 340.25,-116.88"/>
<text text-anchor="start" x="217.5" y="-103.38" font-family="Helvetica,sans-Serif" font-size="10.00">ml::model::CDataGatherer</text>
<text text-anchor="middle" x="274.88" y="-92.12" font-family="Helvetica,sans-Serif" font-size="10.00">::extractData</text>
</a>
</g>
</g>
<!-- Node1&#45;&gt;Node2 -->
<g id="edge1_Node000001_Node000002" class="edge">
<title>Node1&#45;&gt;Node2</title>
<g id="a_edge1_Node000001_Node000002"><a xlink:title=" ">
<path fill="none" stroke="#63b8ff" d="M168.85,-73.97C180.31,-76.99 192.02,-80.07 203.26,-83.03"/>
<polygon fill="#63b8ff" stroke="#63b8ff" points="202.29,-86.4 212.86,-85.56 204.08,-79.63 202.29,-86.4"/>
</a>
</g>
</g>
<!-- Node3 -->
<g id="Node000003" class="node">
<title>Node3</title>
<g id="a_Node000003"><a xlink:href="../../d0/d91/classml_1_1model_1_1_c_data_gatherer.html#aaa2f42f2be5d74bd04fa6567fe95860c" target="_top" xlink:title="Extract the person identifier from a tuple.">
<polygon fill="white" stroke="#666666" points="340.25,-67.88 209.5,-67.88 209.5,-37.38 340.25,-37.38 340.25,-67.88"/>
<text text-anchor="start" x="217.5" y="-54.38" font-family="Helvetica,sans-Serif" font-size="10.00">ml::model::CDataGatherer</text>
<text text-anchor="middle" x="274.88" y="-43.12" font-family="Helvetica,sans-Serif" font-size="10.00">::extractPersonId</text>
</a>
</g>
</g>
<!-- Node1&#45;&gt;Node3 -->
<g id="edge2_Node000001_Node000003" class="edge">
<title>Node1&#45;&gt;Node3</title>
<g id="a_edge2_Node000001_Node000003"><a xlink:title=" ">
<path fill="none" stroke="#63b8ff" d="M173.73,-52.62C181.73,-52.62 189.8,-52.62 197.7,-52.62"/>
<polygon fill="#63b8ff" stroke="#63b8ff" points="197.62,-56.13 207.62,-52.63 197.62,-49.13 197.62,-56.13"/>
</a>
</g>
</g>
<!-- Node4 -->
<g id="Node000004" class="node">
<title>Node4</title>
<g id="a_Node000004"><a xlink:href="../../df/d9c/namespaceml_1_1model__t.html#ada583ac75540d0fcaac3a90317bafd3e" target="_top" xlink:title="Get a string description of a model type.">
<polygon fill="white" stroke="#666666" points="320.75,-19.25 229,-19.25 229,0 320.75,0 320.75,-19.25"/>
<text text-anchor="middle" x="274.88" y="-5.75" font-family="Helvetica,sans-Serif" font-size="10.00">ml::model_t::print</text>
</a>
</g>
</g>
<!-- Node1&#45;&gt;Node4 -->
<g id="edge3_Node000001_Node000004" class="edge">
<title>Node1&#45;&gt;Node4</title>
<g id="a_edge3_Node000001_Node000004"><a xlink:title=" ">
<path fill="none" stroke="#63b8ff" d="M173.73,-32.76C189.21,-29.18 204.96,-25.55 219.24,-22.25"/>
<polygon fill="#63b8ff" stroke="#63b8ff" points="219.92,-25.68 228.87,-20.02 218.34,-18.86 219.92,-25.68"/>
</a>
</g>
</g>
<!-- Node5 -->
<g id="Node000005" class="node">
<title>Node5</title>
<g id="a_Node000005"><a xlink:href="../../d3/d2e/private_8h.html#a1c6de65cc31c36fe2ede0d438531d327" target="_top" xlink:title=" ">
<polygon fill="white" stroke="#666666" points="411,-19.25 376.25,-19.25 376.25,0 411,0 411,-19.25"/>
<text text-anchor="middle" x="393.62" y="-5.75" font-family="Helvetica,sans-Serif" font-size="10.00">type</text>
</a>
</g>
</g>
<!-- Node4&#45;&gt;Node5 -->
<g id="edge4_Node000004_Node000005" class="edge">
<title>Node4&#45;&gt;Node5</title>
<g id="a_edge4_Node000004_Node000005"><a xlink:title=" ">
<path fill="none" stroke="#63b8ff" d="M321.01,-9.62C335.6,-9.62 351.35,-9.62 364.36,-9.62"/>
<polygon fill="#63b8ff" stroke="#63b8ff" points="364.35,-13.13 374.35,-9.63 364.35,-6.13 364.35,-13.13"/>
</a>
</g>
</g>
</g>
</svg>
