<?xml version="1.0" encoding="UTF-8" standalone="no"?>
<!DOCTYPE svg PUBLIC "-//W3C//DTD SVG 1.1//EN"
 "http://www.w3.org/Graphics/SVG/1.1/DTD/svg11.dtd">
<!-- Generated by graphviz version 10.0.1 (20240210.2158)
 -->
<!-- Title: ml::model::CEventRateBucketGatherer::initializeFeatureData Pages: 1 -->
<svg width="395pt" height="174pt"
 viewBox="0.00 0.00 395.00 173.88" xmlns="http://www.w3.org/2000/svg" xmlns:xlink="http://www.w3.org/1999/xlink">

<svg id="main" version="1.1" xmlns="http://www.w3.org/2000/svg" xmlns:xlink="http://www.w3.org/1999/xlink" xml:space="preserve" onload="init(evt)">
<style type="text/css"><![CDATA[
.node, .edge {opacity: 0.7;}
.node.selected, .edge.selected {opacity: 1;}
.edge:hover path { stroke: red; }
.edge:hover polygon { stroke: red; fill: red; }
]]></style>
<script type="application/ecmascript" xlink:href="../../svg.min.js"/>
<svg id="graph" class="graph">
<g id="graph0" class="graph" transform="scale(1 1) rotate(0) translate(4 169.88)">
<title>ml::model::CEventRateBucketGatherer::initializeFeatureData</title>
<!-- Node1 -->
<g id="Node000001" class="node">
<title>Node1</title>
<g id="a_Node000001"><a xlink:title="Initialize the feature data gatherers.">
<polygon fill="#999999" stroke="#666666" points="149.5,-91.88 0,-91.88 0,-61.38 149.5,-61.38 149.5,-91.88"/>
<text text-anchor="start" x="8" y="-78.38" font-family="Helvetica,sans-Serif" font-size="10.00">ml::model::CEventRateBucket</text>
<text text-anchor="middle" x="74.75" y="-67.12" font-family="Helvetica,sans-Serif" font-size="10.00">Gatherer::initializeFeatureData</text>
</a>
</g>
</g>
<!-- Node2 -->
<g id="Node000002" class="node">
<title>Node2</title>
<g id="a_Node000002"><a xlink:href="../../d0/d91/classml_1_1model_1_1_c_data_gatherer.html#afc30339d764263f530006b40a5174e66" target="_top" xlink:title=" ">
<polygon fill="white" stroke="#666666" points="316.25,-165.88 185.5,-165.88 185.5,-135.38 316.25,-135.38 316.25,-165.88"/>
<text text-anchor="start" x="193.5" y="-152.38" font-family="Helvetica,sans-Serif" font-size="10.00">ml::model::CDataGatherer</text>
<text text-anchor="middle" x="250.88" y="-141.12" font-family="Helvetica,sans-Serif" font-size="10.00">::feature</text>
</a>
</g>
</g>
<!-- Node1&#45;&gt;Node2 -->
<g id="edge1_Node000001_Node000002" class="edge">
<title>Node1&#45;&gt;Node2</title>
<g id="a_edge1_Node000001_Node000002"><a xlink:title=" ">
<path fill="none" stroke="#63b8ff" d="M109.67,-92.29C131.26,-102.13 159.89,-114.94 185.5,-125.62 189.55,-127.32 193.77,-129.04 198.01,-130.74"/>
<polygon fill="#63b8ff" stroke="#63b8ff" points="196.55,-133.93 207.14,-134.36 199.13,-127.42 196.55,-133.93"/>
</a>
</g>
</g>
<!-- Node3 -->
<g id="Node000003" class="node">
<title>Node3</title>
<g id="a_Node000003"><a xlink:href="../../d0/d91/classml_1_1model_1_1_c_data_gatherer.html#adbf8d74377322ccce1e9e4ff281a1da7" target="_top" xlink:title="Get the number of features on which this is gathering data.">
<polygon fill="white" stroke="#666666" points="316.25,-116.88 185.5,-116.88 185.5,-86.38 316.25,-86.38 316.25,-116.88"/>
<text text-anchor="start" x="193.5" y="-103.38" font-family="Helvetica,sans-Serif" font-size="10.00">ml::model::CDataGatherer</text>
<text text-anchor="middle" x="250.88" y="-92.12" font-family="Helvetica,sans-Serif" font-size="10.00">::numberFeatures</text>
</a>
</g>
</g>
<!-- Node1&#45;&gt;Node3 -->
<g id="edge2_Node000001_Node000003" class="edge">
<title>Node1&#45;&gt;Node3</title>
<g id="a_edge2_Node000001_Node000003"><a xlink:title=" ">
<path fill="none" stroke="#63b8ff" d="M149.85,-87.26C157.84,-88.41 165.98,-89.58 173.99,-90.73"/>
<polygon fill="#63b8ff" stroke="#63b8ff" points="173.3,-94.17 183.7,-92.12 174.3,-87.24 173.3,-94.17"/>
</a>
</g>
</g>
<!-- Node4 -->
<g id="Node000004" class="node">
<title>Node4</title>
<g id="a_Node000004"><a xlink:href="../../d0/d91/classml_1_1model_1_1_c_data_gatherer.html#a21b1d9e3d2afadf78e163e835d969d26" target="_top" xlink:title="Get the global configuration parameters.">
<polygon fill="white" stroke="#666666" points="316.25,-67.88 185.5,-67.88 185.5,-37.38 316.25,-37.38 316.25,-67.88"/>
<text text-anchor="start" x="193.5" y="-54.38" font-family="Helvetica,sans-Serif" font-size="10.00">ml::model::CDataGatherer</text>
<text text-anchor="middle" x="250.88" y="-43.12" font-family="Helvetica,sans-Serif" font-size="10.00">::params</text>
</a>
</g>
</g>
<!-- Node1&#45;&gt;Node4 -->
<g id="edge3_Node000001_Node000004" class="edge">
<title>Node1&#45;&gt;Node4</title>
<g id="a_edge3_Node000001_Node000004"><a xlink:title=" ">
<path fill="none" stroke="#63b8ff" d="M149.85,-66.41C157.84,-65.31 165.98,-64.19 173.99,-63.08"/>
<polygon fill="#63b8ff" stroke="#63b8ff" points="174.27,-66.58 183.7,-61.75 173.31,-59.64 174.27,-66.58"/>
</a>
</g>
</g>
<!-- Node5 -->
<g id="Node000005" class="node">
<title>Node5</title>
<g id="a_Node000005"><a xlink:href="../../df/d9c/namespaceml_1_1model__t.html#ada583ac75540d0fcaac3a90317bafd3e" target="_top" xlink:title="Get a string description of a model type.">
<polygon fill="white" stroke="#666666" points="296.75,-19.25 205,-19.25 205,0 296.75,0 296.75,-19.25"/>
<text text-anchor="middle" x="250.88" y="-5.75" font-family="Helvetica,sans-Serif" font-size="10.00">ml::model_t::print</text>
</a>
</g>
</g>
<!-- Node1&#45;&gt;Node5 -->
<g id="edge4_Node000001_Node000005" class="edge">
<title>Node1&#45;&gt;Node5</title>
<g id="a_edge4_Node000001_Node000005"><a xlink:title=" ">
<path fill="none" stroke="#63b8ff" d="M108.45,-61.04C130.05,-51.06 159.12,-38.24 185.5,-28.62 190.84,-26.68 196.48,-24.79 202.11,-22.99"/>
<polygon fill="#63b8ff" stroke="#63b8ff" points="202.87,-26.42 211.4,-20.14 200.82,-19.73 202.87,-26.42"/>
</a>
</g>
</g>
<!-- Node6 -->
<g id="Node000006" class="node">
<title>Node6</title>
<g id="a_Node000006"><a xlink:href="../../d3/d2e/private_8h.html#a1c6de65cc31c36fe2ede0d438531d327" target="_top" xlink:title=" ">
<polygon fill="white" stroke="#666666" points="387,-19.25 352.25,-19.25 352.25,0 387,0 387,-19.25"/>
<text text-anchor="middle" x="369.62" y="-5.75" font-family="Helvetica,sans-Serif" font-size="10.00">type</text>
</a>
</g>
</g>
<!-- Node5&#45;&gt;Node6 -->
<g id="edge5_Node000005_Node000006" class="edge">
<title>Node5&#45;&gt;Node6</title>
<g id="a_edge5_Node000005_Node000006"><a xlink:title=" ">
<path fill="none" stroke="#63b8ff" d="M297.01,-9.62C311.6,-9.62 327.35,-9.62 340.36,-9.62"/>
<polygon fill="#63b8ff" stroke="#63b8ff" points="340.35,-13.13 350.35,-9.63 340.35,-6.13 340.35,-13.13"/>
</a>
</g>
</g>
</g>
</svg>
</svg>

<style type='text/css'>
<![CDATA[
[data-mouse-over-selected='false'] { opacity: 0.7; }
[data-mouse-over-selected='true']  { opacity: 1.0; }
]]>
</style>
<script type="application/ecmascript"><![CDATA[
document.addEventListener('DOMContentLoaded', (event) => {
  highlightEdges();
  highlightAdjacentNodes();
});
]]></script>
</svg>
