<?xml version="1.0" encoding="UTF-8" standalone="no"?>
<!DOCTYPE svg PUBLIC "-//W3C//DTD SVG 1.1//EN"
 "http://www.w3.org/Graphics/SVG/1.1/DTD/svg11.dtd">
<!-- Generated by graphviz version 10.0.1 (20240210.2158)
 -->
<!-- Title: ml::model::CEventRateBucketGatherer::clear Pages: 1 -->
<!--zoomable 321 -->

<svg id="main" version="1.1" xmlns="http://www.w3.org/2000/svg" xmlns:xlink="http://www.w3.org/1999/xlink" xml:space="preserve" onload="init(evt)">
<style type="text/css"><![CDATA[
.node, .edge {opacity: 0.7;}
.node.selected, .edge.selected {opacity: 1;}
.edge:hover path { stroke: red; }
.edge:hover polygon { stroke: red; fill: red; }
]]></style>

<defs>
  <circle id="rim" cx="0" cy="0" r="7"/>
  <circle id="rim2" cx="0" cy="0" r="3.5"/>
  <g id="zoomPlus">
    <use xlink:href="#rim" fill="#404040"><set attributeName="fill" to="#808080" begin="zoomplus.mouseover" end="zoomplus.mouseout"/></use>
    <path d="M-4,0h8M0,-4v8" fill="none" stroke="white" stroke-width="1.5" pointer-events="none"/>
  </g>
  <g id="zoomMin">
    <use xlink:href="#rim" fill="#404040"><set attributeName="fill" to="#808080" begin="zoomminus.mouseover" end="zoomminus.mouseout"/></use>
    <path d="M-4,0h8" fill="none" stroke="white" stroke-width="1.5" pointer-events="none"/>
  </g>
  <g id="arrowUp" transform="translate(30 24)">
    <use xlink:href="#rim"/>
    <path pointer-events="none" fill="none" stroke="white" stroke-width="1.5" d="M0,-3.0v7 M-2.5,-0.5L0,-3.0L2.5,-0.5"/>
  </g>
  <g id="arrowRight" transform="rotate(90) translate(36 -43)">
    <use xlink:href="#rim"/>
    <path pointer-events="none" fill="none" stroke="white" stroke-width="1.5" d="M0,-3.0v7 M-2.5,-0.5L0,-3.0L2.5,-0.5"/>
  </g>
  <g id="arrowDown" transform="rotate(180) translate(-30 -48)">
    <use xlink:href="#rim"/>
    <path pointer-events="none" fill="none" stroke="white" stroke-width="1.5" d="M0,-3.0v7 M-2.5,-0.5L0,-3.0L2.5,-0.5"/>
  </g>
  <g id="arrowLeft" transform="rotate(270) translate(-36 17)">
    <use xlink:href="#rim"/>
    <path pointer-events="none" fill="none" stroke="white" stroke-width="1.5" d="M0,-3.0v7 M-2.5,-0.5L0,-3.0L2.5,-0.5"/>
  </g>
  <g id="resetDef">
    <use xlink:href="#rim2" fill="#404040"><set attributeName="fill" to="#808080" begin="reset.mouseover" end="reset.mouseout"/></use>
  </g>
</defs>
<script type="application/ecmascript">
var viewWidth = 855;
var viewHeight = 321;
var sectionId = 'dynsection-31';
</script>
<script type="application/ecmascript" xlink:href="../../svg.min.js"/>
<svg id="graph" class="graph">
<g id="viewport">
<title>ml::model::CEventRateBucketGatherer::clear</title>
<!-- Node1 -->
<g id="Node000001" class="node">
<title>Node1</title>
<g id="a_Node000001"><a xlink:title="Clear this data gatherer.">
<polygon fill="#999999" stroke="#666666" points="149.5,-165.88 0,-165.88 0,-135.38 149.5,-135.38 149.5,-165.88"/>
<text text-anchor="start" x="8" y="-152.38" font-family="Helvetica,sans-Serif" font-size="10.00">ml::model::CEventRateBucket</text>
<text text-anchor="middle" x="74.75" y="-141.12" font-family="Helvetica,sans-Serif" font-size="10.00">Gatherer::clear</text>
</a>
</g>
</g>
<!-- Node2 -->
<g id="Node000002" class="node">
<title>Node2</title>
<g id="a_Node000002"><a xlink:href="../../d4/d01/classml_1_1model_1_1_c_bucket_gatherer.html#ae45f9f12dbf9fcfae14f70c694afda6c" target="_top" xlink:title="Clear this data gatherer.">
<polygon fill="white" stroke="#666666" points="330.5,-238.88 190,-238.88 190,-208.38 330.5,-208.38 330.5,-238.88"/>
<text text-anchor="start" x="198" y="-225.38" font-family="Helvetica,sans-Serif" font-size="10.00">ml::model::CBucketGatherer</text>
<text text-anchor="middle" x="260.25" y="-214.12" font-family="Helvetica,sans-Serif" font-size="10.00">::clear</text>
</a>
</g>
</g>
<!-- Node1&#45;&gt;Node2 -->
<g id="edge1_Node000001_Node000002" class="edge">
<title>Node1&#45;&gt;Node2</title>
<g id="a_edge1_Node000001_Node000002"><a xlink:title=" ">
<path fill="none" stroke="#63b8ff" d="M115.12,-166.29C142.69,-177.26 179.76,-192 209.4,-203.79"/>
<polygon fill="#63b8ff" stroke="#63b8ff" points="207.96,-206.99 218.54,-207.43 210.55,-200.48 207.96,-206.99"/>
</a>
</g>
</g>
<!-- Node8 -->
<g id="Node000008" class="node">
<title>Node8</title>
<g id="a_Node000008"><a xlink:href="../../d8/d55/classml_1_1model_1_1_c_event_rate_bucket_gatherer.html#a7d8e0557115e8e6dbdb6bcab51229086" target="_top" xlink:title="Initialize the feature data gatherers.">
<polygon fill="white" stroke="#666666" points="335,-116.88 185.5,-116.88 185.5,-86.38 335,-86.38 335,-116.88"/>
<text text-anchor="start" x="193.5" y="-103.38" font-family="Helvetica,sans-Serif" font-size="10.00">ml::model::CEventRateBucket</text>
<text text-anchor="middle" x="260.25" y="-92.12" font-family="Helvetica,sans-Serif" font-size="10.00">Gatherer::initializeFeatureData</text>
</a>
</g>
</g>
<!-- Node1&#45;&gt;Node8 -->
<g id="edge8_Node000001_Node000008" class="edge">
<title>Node1&#45;&gt;Node8</title>
<g id="a_edge8_Node000001_Node000008"><a xlink:title=" ">
<path fill="none" stroke="#63b8ff" d="M134.57,-134.92C152.02,-130.26 171.3,-125.11 189.38,-120.28"/>
<polygon fill="#63b8ff" stroke="#63b8ff" points="190.23,-123.68 198.99,-117.72 188.42,-116.92 190.23,-123.68"/>
</a>
</g>
</g>
<!-- Node3 -->
<g id="Node000003" class="node">
<title>Node3</title>
<g id="a_Node000003"><a xlink:href="../../d4/d01/classml_1_1model_1_1_c_bucket_gatherer.html#a2c7e791c52bd0462e846a1c00293758e" target="_top" xlink:title="Get an iterator at the beginning the influencing field names.">
<polygon fill="white" stroke="#666666" points="511.5,-312.88 371,-312.88 371,-282.38 511.5,-282.38 511.5,-312.88"/>
<text text-anchor="start" x="379" y="-299.38" font-family="Helvetica,sans-Serif" font-size="10.00">ml::model::CBucketGatherer</text>
<text text-anchor="middle" x="441.25" y="-288.12" font-family="Helvetica,sans-Serif" font-size="10.00">::beginInfluencers</text>
</a>
</g>
</g>
<!-- Node2&#45;&gt;Node3 -->
<g id="edge2_Node000002_Node000003" class="edge">
<title>Node2&#45;&gt;Node3</title>
<g id="a_edge2_Node000002_Node000003"><a xlink:title=" ">
<path fill="none" stroke="#63b8ff" d="M294.6,-239.28C316.21,-249.24 345.07,-262.17 371,-272.62 375.4,-274.4 379.98,-276.18 384.6,-277.94"/>
<polygon fill="#63b8ff" stroke="#63b8ff" points="383.35,-281.21 393.95,-281.44 385.81,-274.66 383.35,-281.21"/>
</a>
</g>
</g>
<!-- Node4 -->
<g id="Node000004" class="node">
<title>Node4</title>
<g id="a_Node000004"><a xlink:href="../../d0/de2/classml_1_1model_1_1_c_bucket_queue.html#a73f57b0d8fc5ae116d41b19d6a0cd3d8" target="_top" xlink:title=" ">
<polygon fill="white" stroke="#666666" points="507,-263.88 375.5,-263.88 375.5,-233.38 507,-233.38 507,-263.88"/>
<text text-anchor="start" x="383.5" y="-250.38" font-family="Helvetica,sans-Serif" font-size="10.00">ml::model::CBucketQueue</text>
<text text-anchor="middle" x="441.25" y="-239.12" font-family="Helvetica,sans-Serif" font-size="10.00">::clear</text>
</a>
</g>
</g>
<!-- Node2&#45;&gt;Node4 -->
<g id="edge3_Node000002_Node000004" class="edge">
<title>Node2&#45;&gt;Node4</title>
<g id="a_edge3_Node000002_Node000004"><a xlink:title=" ">
<path fill="none" stroke="#63b8ff" d="M330.97,-233.36C341.75,-234.87 352.94,-236.43 363.86,-237.96"/>
<polygon fill="#63b8ff" stroke="#63b8ff" points="363.23,-241.4 373.61,-239.32 364.19,-234.47 363.23,-241.4"/>
</a>
</g>
</g>
<!-- Node7 -->
<g id="Node000007" class="node">
<title>Node7</title>
<g id="a_Node000007"><a xlink:href="../../d4/d01/classml_1_1model_1_1_c_bucket_gatherer.html#ac54d017c129c4452424eaede2a5b7949" target="_top" xlink:title="Get an iterator at the end of the influencing field names.">
<polygon fill="white" stroke="#666666" points="511.5,-214.88 371,-214.88 371,-184.38 511.5,-184.38 511.5,-214.88"/>
<text text-anchor="start" x="379" y="-201.38" font-family="Helvetica,sans-Serif" font-size="10.00">ml::model::CBucketGatherer</text>
<text text-anchor="middle" x="441.25" y="-190.12" font-family="Helvetica,sans-Serif" font-size="10.00">::endInfluencers</text>
</a>
</g>
</g>
<!-- Node2&#45;&gt;Node7 -->
<g id="edge7_Node000002_Node000007" class="edge">
<title>Node2&#45;&gt;Node7</title>
<g id="a_edge7_Node000002_Node000007"><a xlink:title=" ">
<path fill="none" stroke="#63b8ff" d="M330.97,-214.28C340.35,-213.02 350.04,-211.72 359.6,-210.44"/>
<polygon fill="#63b8ff" stroke="#63b8ff" points="359.78,-213.95 369.22,-209.15 358.85,-207.01 359.78,-213.95"/>
</a>
</g>
</g>
<!-- Node5 -->
<g id="Node000005" class="node">
<title>Node5</title>
<g id="a_Node000005"><a xlink:href="../../d0/de2/classml_1_1model_1_1_c_bucket_queue.html#aee088622de9e7408e1417d8f3c424512" target="_top" xlink:title="Fill the queue with default constructed bucket values.">
<polygon fill="white" stroke="#666666" points="679,-263.88 547.5,-263.88 547.5,-233.38 679,-233.38 679,-263.88"/>
<text text-anchor="start" x="555.5" y="-250.38" font-family="Helvetica,sans-Serif" font-size="10.00">ml::model::CBucketQueue</text>
<text text-anchor="middle" x="613.25" y="-239.12" font-family="Helvetica,sans-Serif" font-size="10.00">::fill</text>
</a>
</g>
</g>
<!-- Node4&#45;&gt;Node5 -->
<g id="edge4_Node000004_Node000005" class="edge">
<title>Node4&#45;&gt;Node5</title>
<g id="a_edge4_Node000004_Node000005"><a xlink:title=" ">
<path fill="none" stroke="#63b8ff" d="M507.49,-248.62C516.74,-248.62 526.33,-248.62 535.77,-248.62"/>
<polygon fill="#63b8ff" stroke="#63b8ff" points="535.67,-252.13 545.67,-248.63 535.67,-245.13 535.67,-252.13"/>
</a>
</g>
</g>
<!-- Node6 -->
<g id="Node000006" class="node">
<title>Node6</title>
<g id="a_Node000006"><a xlink:href="../../d0/de2/classml_1_1model_1_1_c_bucket_queue.html#a840fde1f2194381acf159ec0e886b98c" target="_top" xlink:title=" ">
<polygon fill="white" stroke="#666666" points="846.5,-263.88 715,-263.88 715,-233.38 846.5,-233.38 846.5,-263.88"/>
<text text-anchor="start" x="723" y="-250.38" font-family="Helvetica,sans-Serif" font-size="10.00">ml::model::CBucketQueue</text>
<text text-anchor="middle" x="780.75" y="-239.12" font-family="Helvetica,sans-Serif" font-size="10.00">::push</text>
</a>
</g>
</g>
<!-- Node5&#45;&gt;Node6 -->
<g id="edge5_Node000005_Node000006" class="edge">
<title>Node5&#45;&gt;Node6</title>
<g id="a_edge5_Node000005_Node000006"><a xlink:title=" ">
<path fill="none" stroke="#63b8ff" d="M679.18,-248.62C687.13,-248.62 695.29,-248.62 703.38,-248.62"/>
<polygon fill="#63b8ff" stroke="#63b8ff" points="703.22,-252.13 713.22,-248.63 703.22,-245.13 703.22,-252.13"/>
</a>
</g>
</g>
<!-- Node6&#45;&gt;Node6 -->
<g id="edge6_Node000006_Node000006" class="edge">
<title>Node6&#45;&gt;Node6</title>
<g id="a_edge6_Node000006_Node000006"><a xlink:title=" ">
<path fill="none" stroke="#63b8ff" d="M751.07,-264.36C745.01,-273.43 754.91,-281.88 780.75,-281.88 794.88,-281.88 804.25,-279.35 808.84,-275.58"/>
<polygon fill="#63b8ff" stroke="#63b8ff" points="812.28,-276.25 810.22,-265.86 805.35,-275.27 812.28,-276.25"/>
</a>
</g>
</g>
<!-- Node9 -->
<g id="Node000009" class="node">
<title>Node9</title>
<g id="a_Node000009"><a xlink:href="../../d0/d91/classml_1_1model_1_1_c_data_gatherer.html#afc30339d764263f530006b40a5174e66" target="_top" xlink:title=" ">
<polygon fill="white" stroke="#666666" points="506.62,-165.88 375.88,-165.88 375.88,-135.38 506.62,-135.38 506.62,-165.88"/>
<text text-anchor="start" x="383.88" y="-152.38" font-family="Helvetica,sans-Serif" font-size="10.00">ml::model::CDataGatherer</text>
<text text-anchor="middle" x="441.25" y="-141.12" font-family="Helvetica,sans-Serif" font-size="10.00">::feature</text>
</a>
</g>
</g>
<!-- Node8&#45;&gt;Node9 -->
<g id="edge9_Node000008_Node000009" class="edge">
<title>Node8&#45;&gt;Node9</title>
<g id="a_edge9_Node000008_Node000009"><a xlink:title=" ">
<path fill="none" stroke="#63b8ff" d="M318.38,-117.26C335.33,-121.9 354.07,-127.03 371.67,-131.85"/>
<polygon fill="#63b8ff" stroke="#63b8ff" points="370.71,-135.22 381.28,-134.48 372.56,-128.47 370.71,-135.22"/>
</a>
</g>
</g>
<!-- Node10 -->
<g id="Node000010" class="node">
<title>Node10</title>
<g id="a_Node000010"><a xlink:href="../../d0/d91/classml_1_1model_1_1_c_data_gatherer.html#adbf8d74377322ccce1e9e4ff281a1da7" target="_top" xlink:title="Get the number of features on which this is gathering data.">
<polygon fill="white" stroke="#666666" points="506.62,-116.88 375.88,-116.88 375.88,-86.38 506.62,-86.38 506.62,-116.88"/>
<text text-anchor="start" x="383.88" y="-103.38" font-family="Helvetica,sans-Serif" font-size="10.00">ml::model::CDataGatherer</text>
<text text-anchor="middle" x="441.25" y="-92.12" font-family="Helvetica,sans-Serif" font-size="10.00">::numberFeatures</text>
</a>
</g>
</g>
<!-- Node8&#45;&gt;Node10 -->
<g id="edge10_Node000008_Node000010" class="edge">
<title>Node8&#45;&gt;Node10</title>
<g id="a_edge10_Node000008_Node000010"><a xlink:title=" ">
<path fill="none" stroke="#63b8ff" d="M335.35,-101.62C344.85,-101.62 354.6,-101.62 364.13,-101.62"/>
<polygon fill="#63b8ff" stroke="#63b8ff" points="364.12,-105.13 374.12,-101.63 364.12,-98.13 364.12,-105.13"/>
</a>
</g>
</g>
<!-- Node11 -->
<g id="Node000011" class="node">
<title>Node11</title>
<g id="a_Node000011"><a xlink:href="../../d0/d91/classml_1_1model_1_1_c_data_gatherer.html#a21b1d9e3d2afadf78e163e835d969d26" target="_top" xlink:title="Get the global configuration parameters.">
<polygon fill="white" stroke="#666666" points="506.62,-67.88 375.88,-67.88 375.88,-37.38 506.62,-37.38 506.62,-67.88"/>
<text text-anchor="start" x="383.88" y="-54.38" font-family="Helvetica,sans-Serif" font-size="10.00">ml::model::CDataGatherer</text>
<text text-anchor="middle" x="441.25" y="-43.12" font-family="Helvetica,sans-Serif" font-size="10.00">::params</text>
</a>
</g>
</g>
<!-- Node8&#45;&gt;Node11 -->
<g id="edge11_Node000008_Node000011" class="edge">
<title>Node8&#45;&gt;Node11</title>
<g id="a_edge11_Node000008_Node000011"><a xlink:title=" ">
<path fill="none" stroke="#63b8ff" d="M318.38,-85.99C335.33,-81.35 354.07,-76.22 371.67,-71.4"/>
<polygon fill="#63b8ff" stroke="#63b8ff" points="372.56,-74.78 381.28,-68.77 370.71,-68.03 372.56,-74.78"/>
</a>
</g>
</g>
<!-- Node12 -->
<g id="Node000012" class="node">
<title>Node12</title>
<g id="a_Node000012"><a xlink:href="../../df/d9c/namespaceml_1_1model__t.html#ada583ac75540d0fcaac3a90317bafd3e" target="_top" xlink:title="Get a string description of a model type.">
<polygon fill="white" stroke="#666666" points="487.12,-19.25 395.38,-19.25 395.38,0 487.12,0 487.12,-19.25"/>
<text text-anchor="middle" x="441.25" y="-5.75" font-family="Helvetica,sans-Serif" font-size="10.00">ml::model_t::print</text>
</a>
</g>
</g>
<!-- Node8&#45;&gt;Node12 -->
<g id="edge12_Node000008_Node000012" class="edge">
<title>Node8&#45;&gt;Node12</title>
<g id="a_edge12_Node000008_Node000012"><a xlink:title=" ">
<path fill="none" stroke="#63b8ff" d="M280.35,-86.14C301.41,-69.76 336.85,-44.18 371,-28.62 375.28,-26.68 379.79,-24.89 384.39,-23.26"/>
<polygon fill="#63b8ff" stroke="#63b8ff" points="385.32,-26.64 393.74,-20.21 383.15,-19.99 385.32,-26.64"/>
</a>
</g>
</g>
<!-- Node13 -->
<g id="Node000013" class="node">
<title>Node13</title>
<g id="a_Node000013"><a xlink:href="../../d3/d2e/private_8h.html#a1c6de65cc31c36fe2ede0d438531d327" target="_top" xlink:title=" ">
<polygon fill="white" stroke="#666666" points="630.62,-19.25 595.88,-19.25 595.88,0 630.62,0 630.62,-19.25"/>
<text text-anchor="middle" x="613.25" y="-5.75" font-family="Helvetica,sans-Serif" font-size="10.00">type</text>
</a>
</g>
</g>
<!-- Node12&#45;&gt;Node13 -->
<g id="edge13_Node000012_Node000013" class="edge">
<title>Node12&#45;&gt;Node13</title>
<g id="a_edge13_Node000012_Node000013"><a xlink:title=" ">
<path fill="none" stroke="#63b8ff" d="M487.36,-9.62C518.1,-9.62 557.84,-9.62 584.15,-9.62"/>
<polygon fill="#63b8ff" stroke="#63b8ff" points="584.03,-13.13 594.03,-9.63 584.03,-6.13 584.03,-13.13"/>
</a>
</g>
</g>
</g>
</svg>

<g id="navigator" transform="translate(0 0)" fill="#404254">
  <rect fill="#f2f5e9" fill-opacity="0.5" stroke="#606060" stroke-width=".5" x="0" y="0" width="60" height="60"/>
  <use id="zoomplus" xlink:href="#zoomPlus" x="17" y="9" onmousedown="handleZoom(evt,'in')"/>
  <use id="zoomminus" xlink:href="#zoomMin" x="42" y="9" onmousedown="handleZoom(evt,'out')"/>
  <use id="reset" xlink:href="#resetDef" x="30" y="36" onmousedown="handleReset()"/>
   <use id="arrowup" xlink:href="#arrowUp" x="0" y="0" onmousedown="handlePan(0,-1)"/>
  <use id="arrowright" xlink:href="#arrowRight" x="0" y="0" onmousedown="handlePan(1,0)"/>
  <use id="arrowdown" xlink:href="#arrowDown" x="0" y="0" onmousedown="handlePan(0,1)"/>
  <use id="arrowleft" xlink:href="#arrowLeft" x="0" y="0" onmousedown="handlePan(-1,0)"/>
</g>
<svg viewBox="0 0 15 15" width="100%" height="30px" preserveAspectRatio="xMaxYMin meet">
 <g id="arrow_out" transform="scale(0.3 0.3)">
  <a xlink:href="classml_1_1model_1_1_c_event_rate_bucket_gatherer_aa462d404776d106559f0cf7ef0ae41b3_cgraph_org.svg" target="_base">
   <rect id="button" ry="5" rx="5" y="6" x="6" height="38" width="38"
        fill="#f2f5e9" fill-opacity="0.5" stroke="#606060" stroke-width="1.0"/>
   <path id="arrow"
     d="M 11.500037,31.436501 C 11.940474,20.09759 22.043105,11.32322 32.158766,21.979434 L 37.068811,17.246167 C 37.068811,17.246167 37.088388,32 37.088388,32 L 22.160133,31.978069 C 22.160133,31.978069 26.997745,27.140456 26.997745,27.140456 C 18.528582,18.264221 13.291696,25.230495 11.500037,31.436501 z"
     style="fill:#404040;"/>
  </a>
 </g>
</svg>

<style type='text/css'>
<![CDATA[
[data-mouse-over-selected='false'] { opacity: 0.7; }
[data-mouse-over-selected='true']  { opacity: 1.0; }
]]>
</style>
<script type="application/ecmascript"><![CDATA[
document.addEventListener('DOMContentLoaded', (event) => {
  highlightEdges();
  highlightAdjacentNodes();
});
]]></script>
</svg>
