<?xml version="1.0" encoding="UTF-8" standalone="no"?>
<!DOCTYPE svg PUBLIC "-//W3C//DTD SVG 1.1//EN"
 "http://www.w3.org/Graphics/SVG/1.1/DTD/svg11.dtd">
<!-- Generated by graphviz version 10.0.1 (20240210.2158)
 -->
<!-- Title: ml::core::COsFileFuncs::stat Pages: 1 -->
<svg width="496pt" height="287pt"
 viewBox="0.00 0.00 496.25 286.88" xmlns="http://www.w3.org/2000/svg" xmlns:xlink="http://www.w3.org/1999/xlink">

<svg id="main" version="1.1" xmlns="http://www.w3.org/2000/svg" xmlns:xlink="http://www.w3.org/1999/xlink" xml:space="preserve" onload="init(evt)">
<style type="text/css"><![CDATA[
.node, .edge {opacity: 0.7;}
.node.selected, .edge.selected {opacity: 1;}
.edge:hover path { stroke: red; }
.edge:hover polygon { stroke: red; fill: red; }
]]></style>
<script type="application/ecmascript" xlink:href="../../svg.min.js"/>
<svg id="graph" class="graph">
<g id="graph0" class="graph" transform="scale(1 1) rotate(0) translate(4 282.88)">
<title>ml::core::COsFileFuncs::stat</title>
<!-- Node1 -->
<g id="Node000001" class="node">
<title>Node1</title>
<g id="a_Node000001"><a xlink:title=" ">
<polygon fill="#999999" stroke="#666666" points="488.25,-171.5 368,-171.5 368,-141 488.25,-141 488.25,-171.5"/>
<text text-anchor="start" x="376" y="-158" font-family="Helvetica,sans-Serif" font-size="10.00">ml::core::COsFileFuncs</text>
<text text-anchor="middle" x="428.12" y="-146.75" font-family="Helvetica,sans-Serif" font-size="10.00">::stat</text>
</a>
</g>
</g>
<!-- Node2 -->
<g id="Node000002" class="node">
<title>Node2</title>
<g id="a_Node000002"><a xlink:href="../../d7/d09/_c_os_file_funcs_test_8cc.html#a5827df3d9b484343d7a8f1ea47c9a001" target="_top" xlink:title=" ">
<polygon fill="white" stroke="#666666" points="331.25,-278.88 184,-278.88 184,-259.62 331.25,-259.62 331.25,-278.88"/>
<text text-anchor="middle" x="257.62" y="-265.38" font-family="Helvetica,sans-Serif" font-size="10.00">BOOST_AUTO_TEST_CASE</text>
</a>
</g>
</g>
<!-- Node1&#45;&gt;Node2 -->
<g id="edge1_Node000001_Node000002" class="edge">
<title>Node1&#45;&gt;Node2</title>
<g id="a_edge1_Node000001_Node000002"><a xlink:title=" ">
<path fill="none" stroke="#63b8ff" d="M406.73,-180.5C388.85,-200.38 361.2,-227.98 332,-245.25 322.19,-251.05 310.81,-255.64 299.98,-259.19"/>
<polygon fill="#63b8ff" stroke="#63b8ff" points="409.26,-182.93 413.23,-173.11 404,-178.3 409.26,-182.93"/>
</a>
</g>
</g>
<!-- Node3 -->
<g id="Node000003" class="node">
<title>Node3</title>
<g id="a_Node000003"><a xlink:href="../../d3/d8e/_c_resource_locator_test_8cc.html#a77a18255ee883a15474dc23330290300" target="_top" xlink:title=" ">
<polygon fill="white" stroke="#666666" points="147.25,-178.88 0,-178.88 0,-159.62 147.25,-159.62 147.25,-178.88"/>
<text text-anchor="middle" x="73.62" y="-165.38" font-family="Helvetica,sans-Serif" font-size="10.00">BOOST_AUTO_TEST_CASE</text>
</a>
</g>
</g>
<!-- Node1&#45;&gt;Node3 -->
<g id="edge2_Node000001_Node000003" class="edge">
<title>Node1&#45;&gt;Node3</title>
<g id="a_edge2_Node000001_Node000003"><a xlink:title=" ">
<path fill="none" stroke="#63b8ff" d="M398.47,-178.61C380.48,-191.19 356.18,-205.66 332,-212.25 268.21,-229.63 248.19,-224.64 183.25,-212.25 150.38,-205.98 114.75,-189.93 93.58,-179.31"/>
<polygon fill="#63b8ff" stroke="#63b8ff" points="400.5,-181.46 406.55,-172.76 396.39,-175.79 400.5,-181.46"/>
</a>
</g>
</g>
<!-- Node4 -->
<g id="Node000004" class="node">
<title>Node4</title>
<g id="a_Node000004"><a xlink:href="../../d6/d79/_c_detached_process_spawner_test_8cc.html#a21da98a62cea8f53af9a8f15b088a236" target="_top" xlink:title=" ">
<polygon fill="white" stroke="#666666" points="331.25,-202.88 184,-202.88 184,-183.62 331.25,-183.62 331.25,-202.88"/>
<text text-anchor="middle" x="257.62" y="-189.38" font-family="Helvetica,sans-Serif" font-size="10.00">BOOST_AUTO_TEST_CASE</text>
</a>
</g>
</g>
<!-- Node1&#45;&gt;Node4 -->
<g id="edge3_Node000001_Node000004" class="edge">
<title>Node1&#45;&gt;Node4</title>
<g id="a_edge3_Node000001_Node000004"><a xlink:title=" ">
<path fill="none" stroke="#63b8ff" d="M356.6,-171.74C339,-175.6 320.59,-179.64 304.53,-183.17"/>
<polygon fill="#63b8ff" stroke="#63b8ff" points="357.22,-175.18 366.24,-169.62 355.72,-168.35 357.22,-175.18"/>
</a>
</g>
</g>
<!-- Node5 -->
<g id="Node000005" class="node">
<title>Node5</title>
<g id="a_Node000005"><a xlink:href="../../d3/d8e/_c_resource_locator_test_8cc.html#ab00b1375745bb244a8629dd0a7683515" target="_top" xlink:title=" ">
<polygon fill="white" stroke="#666666" points="331.25,-165.88 184,-165.88 184,-146.62 331.25,-146.62 331.25,-165.88"/>
<text text-anchor="middle" x="257.62" y="-152.38" font-family="Helvetica,sans-Serif" font-size="10.00">BOOST_AUTO_TEST_CASE</text>
</a>
</g>
</g>
<!-- Node1&#45;&gt;Node5 -->
<g id="edge4_Node000001_Node000005" class="edge">
<title>Node1&#45;&gt;Node5</title>
<g id="a_edge4_Node000001_Node000005"><a xlink:title=" ">
<path fill="none" stroke="#63b8ff" d="M356.34,-156.25C348.18,-156.25 339.86,-156.25 331.67,-156.25"/>
<polygon fill="#63b8ff" stroke="#63b8ff" points="356.2,-159.75 366.2,-156.25 356.2,-152.75 356.2,-159.75"/>
</a>
</g>
</g>
<!-- Node6 -->
<g id="Node000006" class="node">
<title>Node6</title>
<g id="a_Node000006"><a xlink:href="../../d2/d43/classml_1_1core_1_1_c_named_pipe_factory.html#aeb3d422daa98c105e53b00c44a29c0a1" target="_top" xlink:title="Does the supplied file name refer to a named pipe?">
<polygon fill="white" stroke="#666666" points="332,-128.5 183.25,-128.5 183.25,-98 332,-98 332,-128.5"/>
<text text-anchor="start" x="191.25" y="-115" font-family="Helvetica,sans-Serif" font-size="10.00">ml::core::CNamedPipeFactory</text>
<text text-anchor="middle" x="257.62" y="-103.75" font-family="Helvetica,sans-Serif" font-size="10.00">::isNamedPipe</text>
</a>
</g>
</g>
<!-- Node1&#45;&gt;Node6 -->
<g id="edge5_Node000001_Node000006" class="edge">
<title>Node1&#45;&gt;Node6</title>
<g id="a_edge5_Node000001_Node000006"><a xlink:title=" ">
<path fill="none" stroke="#63b8ff" d="M356.69,-138.27C344.52,-135.17 331.96,-131.97 320.06,-128.93"/>
<polygon fill="#63b8ff" stroke="#63b8ff" points="355.7,-141.63 366.25,-140.72 357.43,-134.85 355.7,-141.63"/>
</a>
</g>
</g>
<!-- Node7 -->
<g id="Node000007" class="node">
<title>Node7</title>
<g id="a_Node000007"><a xlink:href="../../dd/dbf/classml_1_1core_1_1_c_logger.html#a184001083a9acfc742e5fc48c92b70c0" target="_top" xlink:title=" ">
<polygon fill="white" stroke="#666666" points="308.75,-30.5 206.5,-30.5 206.5,0 308.75,0 308.75,-30.5"/>
<text text-anchor="start" x="214.5" y="-17" font-family="Helvetica,sans-Serif" font-size="10.00">ml::core::CLogger::</text>
<text text-anchor="middle" x="257.62" y="-5.75" font-family="Helvetica,sans-Serif" font-size="10.00">reconfigureFromFile</text>
</a>
</g>
</g>
<!-- Node1&#45;&gt;Node7 -->
<g id="edge6_Node000001_Node000007" class="edge">
<title>Node1&#45;&gt;Node7</title>
<g id="a_edge6_Node000001_Node000007"><a xlink:title=" ">
<path fill="none" stroke="#63b8ff" d="M412.49,-131.18C396.03,-105.01 366.96,-64.48 332,-40.25 325.03,-35.42 317.05,-31.45 308.97,-28.22"/>
<polygon fill="#63b8ff" stroke="#63b8ff" points="409.37,-132.78 417.58,-139.48 415.34,-129.12 409.37,-132.78"/>
</a>
</g>
</g>
<!-- Node9 -->
<g id="Node000009" class="node">
<title>Node9</title>
<g id="a_Node000009"><a xlink:href="../../d6/dc1/classml_1_1core_1_1_c_resource_locator.html#ad2340bd6b0c702ee790254ac93a94f96" target="_top" xlink:title=" ">
<polygon fill="white" stroke="#666666" points="327.12,-79.5 188.12,-79.5 188.12,-49 327.12,-49 327.12,-79.5"/>
<text text-anchor="start" x="196.12" y="-66" font-family="Helvetica,sans-Serif" font-size="10.00">ml::core::CResourceLocator</text>
<text text-anchor="middle" x="257.62" y="-54.75" font-family="Helvetica,sans-Serif" font-size="10.00">::resourceDir</text>
</a>
</g>
</g>
<!-- Node1&#45;&gt;Node9 -->
<g id="edge8_Node000001_Node000009" class="edge">
<title>Node1&#45;&gt;Node9</title>
<g id="a_edge8_Node000001_Node000009"><a xlink:title=" ">
<path fill="none" stroke="#63b8ff" d="M399.56,-133.65C381.26,-119.46 356.22,-101.58 332,-89.25 325.28,-85.83 318,-82.71 310.71,-79.92"/>
<polygon fill="#63b8ff" stroke="#63b8ff" points="397.27,-136.3 407.29,-139.74 401.61,-130.8 397.27,-136.3"/>
</a>
</g>
</g>
<!-- Node8 -->
<g id="Node000008" class="node">
<title>Node8</title>
<g id="a_Node000008"><a xlink:href="../../dd/dbf/classml_1_1core_1_1_c_logger.html#a51c7c58bb9b9355b36f79d0881658c82" target="_top" xlink:title=" ">
<polygon fill="white" stroke="#666666" points="123.62,-30.5 23.62,-30.5 23.62,0 123.62,0 123.62,-30.5"/>
<text text-anchor="start" x="31.62" y="-17" font-family="Helvetica,sans-Serif" font-size="10.00">ml::core::CLogger::</text>
<text text-anchor="middle" x="73.62" y="-5.75" font-family="Helvetica,sans-Serif" font-size="10.00">reconfigure</text>
</a>
</g>
</g>
<!-- Node7&#45;&gt;Node8 -->
<g id="edge7_Node000007_Node000008" class="edge">
<title>Node7&#45;&gt;Node8</title>
<g id="a_edge7_Node000007_Node000008"><a xlink:title=" ">
<path fill="none" stroke="#63b8ff" d="M194.97,-15.25C171.85,-15.25 145.91,-15.25 124.05,-15.25"/>
<polygon fill="#63b8ff" stroke="#63b8ff" points="194.9,-18.75 204.9,-15.25 194.9,-11.75 194.9,-18.75"/>
</a>
</g>
</g>
<!-- Node9&#45;&gt;Node3 -->
<g id="edge9_Node000009_Node000003" class="edge">
<title>Node9&#45;&gt;Node3</title>
<g id="a_edge9_Node000009_Node000003"><a xlink:title=" ">
<path fill="none" stroke="#63b8ff" d="M193.78,-84.2C190.17,-85.8 186.63,-87.48 183.25,-89.25 144.43,-109.54 104.37,-142.87 85.59,-159.37"/>
<polygon fill="#63b8ff" stroke="#63b8ff" points="194.78,-87.58 202.69,-80.52 192.11,-81.11 194.78,-87.58"/>
</a>
</g>
</g>
<!-- Node10 -->
<g id="Node000010" class="node">
<title>Node10</title>
<g id="a_Node000010"><a xlink:href="../../da/de9/classml_1_1core_1_1_c_word_dictionary.html#a0f9ab94f5fcab00bfa92da527944c9d0" target="_top" xlink:title="Constructor for a singleton is private.">
<polygon fill="white" stroke="#666666" points="139.38,-79.5 7.88,-79.5 7.88,-49 139.38,-49 139.38,-79.5"/>
<text text-anchor="start" x="15.88" y="-66" font-family="Helvetica,sans-Serif" font-size="10.00">ml::core::CWordDictionary</text>
<text text-anchor="middle" x="73.62" y="-54.75" font-family="Helvetica,sans-Serif" font-size="10.00">::CWordDictionary</text>
</a>
</g>
</g>
<!-- Node9&#45;&gt;Node10 -->
<g id="edge10_Node000009_Node000010" class="edge">
<title>Node9&#45;&gt;Node10</title>
<g id="a_edge10_Node000009_Node000010"><a xlink:title=" ">
<path fill="none" stroke="#63b8ff" d="M176.58,-64.25C164.22,-64.25 151.59,-64.25 139.62,-64.25"/>
<polygon fill="#63b8ff" stroke="#63b8ff" points="176.31,-67.75 186.31,-64.25 176.31,-60.75 176.31,-67.75"/>
</a>
</g>
</g>
</g>
</svg>
</svg>

<style type='text/css'>
<![CDATA[
[data-mouse-over-selected='false'] { opacity: 0.7; }
[data-mouse-over-selected='true']  { opacity: 1.0; }
]]>
</style>
<script type="application/ecmascript"><![CDATA[
document.addEventListener('DOMContentLoaded', (event) => {
  highlightEdges();
  highlightAdjacentNodes();
});
]]></script>
</svg>
