<?xml version="1.0" encoding="UTF-8" standalone="no"?>
<!DOCTYPE svg PUBLIC "-//W3C//DTD SVG 1.1//EN"
 "http://www.w3.org/Graphics/SVG/1.1/DTD/svg11.dtd">
<!-- Generated by graphviz version 10.0.1 (20240210.2158)
 -->
<!-- Title: ml::maths::time_series::CAdaptiveBucketing::age Pages: 1 -->
<svg width="543pt" height="370pt"
 viewBox="0.00 0.00 542.75 369.75" xmlns="http://www.w3.org/2000/svg" xmlns:xlink="http://www.w3.org/1999/xlink">
<g id="graph0" class="graph" transform="scale(1 1) rotate(0) translate(4 365.75)">
<title>ml::maths::time_series::CAdaptiveBucketing::age</title>
<!-- Node1 -->
<g id="Node000001" class="node">
<title>Node1</title>
<g id="a_Node000001"><a xlink:title="Age the force moments.">
<polygon fill="#999999" stroke="#666666" points="534.75,-226.12 401.75,-226.12 401.75,-195.62 534.75,-195.62 534.75,-226.12"/>
<text text-anchor="start" x="409.75" y="-212.62" font-family="Helvetica,sans-Serif" font-size="10.00">ml::maths::time_series</text>
<text text-anchor="middle" x="468.25" y="-201.38" font-family="Helvetica,sans-Serif" font-size="10.00">::CAdaptiveBucketing::age</text>
</a>
</g>
</g>
<!-- Node2 -->
<g id="Node000002" class="node">
<title>Node2</title>
<g id="a_Node000002"><a xlink:href="../../de/d1f/classml_1_1maths_1_1time__series_1_1_c_calendar_component_adaptive_bucketing.html#ad4c086cd98ad2c9677e4a7870f70c0e0" target="_top" xlink:title="Age the bucket values to account for time elapsed time.">
<polygon fill="white" stroke="#666666" points="365.75,-311.75 183.25,-311.75 183.25,-270 365.75,-270 365.75,-311.75"/>
<text text-anchor="start" x="191.25" y="-298.25" font-family="Helvetica,sans-Serif" font-size="10.00">ml::maths::time_series</text>
<text text-anchor="start" x="191.25" y="-287" font-family="Helvetica,sans-Serif" font-size="10.00">::CCalendarComponentAdaptive</text>
<text text-anchor="middle" x="274.5" y="-275.75" font-family="Helvetica,sans-Serif" font-size="10.00">Bucketing::propagateForwardsByTime</text>
</a>
</g>
</g>
<!-- Node1&#45;&gt;Node2 -->
<g id="edge1_Node000001_Node000002" class="edge">
<title>Node1&#45;&gt;Node2</title>
<g id="a_edge1_Node000001_Node000002"><a xlink:title=" ">
<path fill="none" stroke="#63b8ff" d="M419.4,-230.84C391.15,-242.62 355.41,-257.54 326.62,-269.55"/>
<polygon fill="#63b8ff" stroke="#63b8ff" points="420.55,-234.15 428.43,-227.07 417.85,-227.69 420.55,-234.15"/>
</a>
</g>
</g>
<!-- Node4 -->
<g id="Node000004" class="node">
<title>Node4</title>
<g id="a_Node000004"><a xlink:href="../../db/de4/classml_1_1maths_1_1time__series_1_1_c_seasonal_component_adaptive_bucketing.html#a55c62f94aeb900586135ae75e9a2b3b7" target="_top" xlink:title=" ">
<polygon fill="white" stroke="#666666" points="365.75,-201.75 183.25,-201.75 183.25,-160 365.75,-160 365.75,-201.75"/>
<text text-anchor="start" x="191.25" y="-188.25" font-family="Helvetica,sans-Serif" font-size="10.00">ml::maths::time_series</text>
<text text-anchor="start" x="191.25" y="-177" font-family="Helvetica,sans-Serif" font-size="10.00">::CSeasonalComponentAdaptive</text>
<text text-anchor="middle" x="274.5" y="-165.75" font-family="Helvetica,sans-Serif" font-size="10.00">Bucketing::propagateForwardsByTime</text>
</a>
</g>
</g>
<!-- Node1&#45;&gt;Node4 -->
<g id="edge3_Node000001_Node000004" class="edge">
<title>Node1&#45;&gt;Node4</title>
<g id="a_edge3_Node000001_Node000004"><a xlink:title=" ">
<path fill="none" stroke="#63b8ff" d="M389.89,-198.77C382.02,-197.54 373.99,-196.28 366,-195.03"/>
<polygon fill="#63b8ff" stroke="#63b8ff" points="389.34,-202.23 399.77,-200.32 390.43,-195.31 389.34,-202.23"/>
</a>
</g>
</g>
<!-- Node3 -->
<g id="Node000003" class="node">
<title>Node3</title>
<g id="a_Node000003"><a xlink:href="../../d2/da4/classml_1_1maths_1_1time__series_1_1_c_calendar_component.html#adca4057c99aa68d23805e87653ae2c32" target="_top" xlink:title="Age out old data to account for elapsed time.">
<polygon fill="white" stroke="#666666" points="140.12,-361.75 7.12,-361.75 7.12,-320 140.12,-320 140.12,-361.75"/>
<text text-anchor="start" x="15.12" y="-348.25" font-family="Helvetica,sans-Serif" font-size="10.00">ml::maths::time_series</text>
<text text-anchor="start" x="15.12" y="-337" font-family="Helvetica,sans-Serif" font-size="10.00">::CCalendarComponent::</text>
<text text-anchor="middle" x="73.62" y="-325.75" font-family="Helvetica,sans-Serif" font-size="10.00">propagateForwardsByTime</text>
</a>
</g>
</g>
<!-- Node2&#45;&gt;Node3 -->
<g id="edge2_Node000002_Node000003" class="edge">
<title>Node2&#45;&gt;Node3</title>
<g id="a_edge2_Node000002_Node000003"><a xlink:title=" ">
<path fill="none" stroke="#63b8ff" d="M177.62,-314.98C165.09,-318.13 152.49,-321.3 140.61,-324.28"/>
<polygon fill="#63b8ff" stroke="#63b8ff" points="178.27,-318.43 187.11,-312.59 176.56,-311.64 178.27,-318.43"/>
</a>
</g>
</g>
<!-- Node5 -->
<g id="Node000005" class="node">
<title>Node5</title>
<g id="a_Node000005"><a xlink:href="../../d0/de7/_c_seasonal_component_adaptive_bucketing_test_8cc.html#a6ace0510d94b4171a5d28caa7232f876" target="_top" xlink:title=" ">
<polygon fill="white" stroke="#666666" points="147.25,-301.5 0,-301.5 0,-282.25 147.25,-282.25 147.25,-301.5"/>
<text text-anchor="middle" x="73.62" y="-288" font-family="Helvetica,sans-Serif" font-size="10.00">BOOST_AUTO_TEST_CASE</text>
</a>
</g>
</g>
<!-- Node4&#45;&gt;Node5 -->
<g id="edge4_Node000004_Node000005" class="edge">
<title>Node4&#45;&gt;Node5</title>
<g id="a_edge4_Node000004_Node000005"><a xlink:title=" ">
<path fill="none" stroke="#63b8ff" d="M242.22,-209.4C217.95,-230.1 182.59,-257.29 147.25,-273.88 140.55,-277.02 133.23,-279.66 125.9,-281.86"/>
<polygon fill="#63b8ff" stroke="#63b8ff" points="244.23,-212.28 249.49,-203.09 239.65,-207 244.23,-212.28"/>
</a>
</g>
</g>
<!-- Node6 -->
<g id="Node000006" class="node">
<title>Node6</title>
<g id="a_Node000006"><a xlink:href="../../d0/de7/_c_seasonal_component_adaptive_bucketing_test_8cc.html#a57d3ec5369f2c114c2fb6aba9f16ea77" target="_top" xlink:title=" ">
<polygon fill="white" stroke="#666666" points="147.25,-264.5 0,-264.5 0,-245.25 147.25,-245.25 147.25,-264.5"/>
<text text-anchor="middle" x="73.62" y="-251" font-family="Helvetica,sans-Serif" font-size="10.00">BOOST_AUTO_TEST_CASE</text>
</a>
</g>
</g>
<!-- Node4&#45;&gt;Node6 -->
<g id="edge5_Node000004_Node000006" class="edge">
<title>Node4&#45;&gt;Node6</title>
<g id="a_edge5_Node000004_Node000006"><a xlink:title=" ">
<path fill="none" stroke="#63b8ff" d="M220.21,-206.99C198,-217.22 171.73,-228.49 147.25,-236.88 138.65,-239.82 129.32,-242.51 120.31,-244.85"/>
<polygon fill="#63b8ff" stroke="#63b8ff" points="221.47,-210.26 229.06,-202.86 218.52,-203.92 221.47,-210.26"/>
</a>
</g>
</g>
<!-- Node7 -->
<g id="Node000007" class="node">
<title>Node7</title>
<g id="a_Node000007"><a xlink:href="../../d0/de7/_c_seasonal_component_adaptive_bucketing_test_8cc.html#ab16c369a2fea1232a8435f0bca6a2675" target="_top" xlink:title=" ">
<polygon fill="white" stroke="#666666" points="147.25,-227.5 0,-227.5 0,-208.25 147.25,-208.25 147.25,-227.5"/>
<text text-anchor="middle" x="73.62" y="-214" font-family="Helvetica,sans-Serif" font-size="10.00">BOOST_AUTO_TEST_CASE</text>
</a>
</g>
</g>
<!-- Node4&#45;&gt;Node7 -->
<g id="edge6_Node000004_Node000007" class="edge">
<title>Node4&#45;&gt;Node7</title>
<g id="a_edge6_Node000004_Node000007"><a xlink:title=" ">
<path fill="none" stroke="#63b8ff" d="M171.53,-199.85C156.79,-202.59 142.12,-205.32 128.82,-207.79"/>
<polygon fill="#63b8ff" stroke="#63b8ff" points="172.11,-203.3 181.3,-198.03 170.83,-196.42 172.11,-203.3"/>
</a>
</g>
</g>
<!-- Node8 -->
<g id="Node000008" class="node">
<title>Node8</title>
<g id="a_Node000008"><a xlink:href="../../d0/de7/_c_seasonal_component_adaptive_bucketing_test_8cc.html#a83d3db08b40e753bcbf9bc6672205f64" target="_top" xlink:title=" ">
<polygon fill="white" stroke="#666666" points="147.25,-190.5 0,-190.5 0,-171.25 147.25,-171.25 147.25,-190.5"/>
<text text-anchor="middle" x="73.62" y="-177" font-family="Helvetica,sans-Serif" font-size="10.00">BOOST_AUTO_TEST_CASE</text>
</a>
</g>
</g>
<!-- Node4&#45;&gt;Node8 -->
<g id="edge7_Node000004_Node000008" class="edge">
<title>Node4&#45;&gt;Node8</title>
<g id="a_edge7_Node000004_Node000008"><a xlink:title=" ">
<path fill="none" stroke="#63b8ff" d="M171.44,-180.88C163.41,-180.88 155.4,-180.88 147.62,-180.88"/>
<polygon fill="#63b8ff" stroke="#63b8ff" points="171.28,-184.38 181.28,-180.88 171.28,-177.38 171.28,-184.38"/>
</a>
</g>
</g>
<!-- Node9 -->
<g id="Node000009" class="node">
<title>Node9</title>
<g id="a_Node000009"><a xlink:href="../../d0/de7/_c_seasonal_component_adaptive_bucketing_test_8cc.html#a7a2446117e41608ffd09eb34186757f3" target="_top" xlink:title=" ">
<polygon fill="white" stroke="#666666" points="147.25,-153.5 0,-153.5 0,-134.25 147.25,-134.25 147.25,-153.5"/>
<text text-anchor="middle" x="73.62" y="-140" font-family="Helvetica,sans-Serif" font-size="10.00">BOOST_AUTO_TEST_CASE</text>
</a>
</g>
</g>
<!-- Node4&#45;&gt;Node9 -->
<g id="edge8_Node000004_Node000009" class="edge">
<title>Node4&#45;&gt;Node9</title>
<g id="a_edge8_Node000004_Node000009"><a xlink:title=" ">
<path fill="none" stroke="#63b8ff" d="M171.53,-161.9C156.79,-159.16 142.12,-156.43 128.82,-153.96"/>
<polygon fill="#63b8ff" stroke="#63b8ff" points="170.83,-165.33 181.3,-163.72 172.11,-158.45 170.83,-165.33"/>
</a>
</g>
</g>
<!-- Node10 -->
<g id="Node000010" class="node">
<title>Node10</title>
<g id="a_Node000010"><a xlink:href="../../d0/de7/_c_seasonal_component_adaptive_bucketing_test_8cc.html#a9d63d724a22497ecdc14720985d34e5a" target="_top" xlink:title=" ">
<polygon fill="white" stroke="#666666" points="147.25,-116.5 0,-116.5 0,-97.25 147.25,-97.25 147.25,-116.5"/>
<text text-anchor="middle" x="73.62" y="-103" font-family="Helvetica,sans-Serif" font-size="10.00">BOOST_AUTO_TEST_CASE</text>
</a>
</g>
</g>
<!-- Node4&#45;&gt;Node10 -->
<g id="edge9_Node000004_Node000010" class="edge">
<title>Node4&#45;&gt;Node10</title>
<g id="a_edge9_Node000004_Node000010"><a xlink:title=" ">
<path fill="none" stroke="#63b8ff" d="M220.21,-154.76C198,-144.53 171.73,-133.26 147.25,-124.88 138.65,-121.93 129.32,-119.24 120.31,-116.9"/>
<polygon fill="#63b8ff" stroke="#63b8ff" points="218.52,-157.83 229.06,-158.89 221.47,-151.49 218.52,-157.83"/>
</a>
</g>
</g>
<!-- Node11 -->
<g id="Node000011" class="node">
<title>Node11</title>
<g id="a_Node000011"><a xlink:href="../../d0/de7/_c_seasonal_component_adaptive_bucketing_test_8cc.html#a77d4b9767e6bf93ec4b49bbd2130e590" target="_top" xlink:title=" ">
<polygon fill="white" stroke="#666666" points="147.25,-79.5 0,-79.5 0,-60.25 147.25,-60.25 147.25,-79.5"/>
<text text-anchor="middle" x="73.62" y="-66" font-family="Helvetica,sans-Serif" font-size="10.00">BOOST_AUTO_TEST_CASE</text>
</a>
</g>
</g>
<!-- Node4&#45;&gt;Node11 -->
<g id="edge10_Node000004_Node000011" class="edge">
<title>Node4&#45;&gt;Node11</title>
<g id="a_edge10_Node000004_Node000011"><a xlink:title=" ">
<path fill="none" stroke="#63b8ff" d="M242.22,-152.35C217.95,-131.65 182.59,-104.46 147.25,-87.88 140.55,-84.73 133.23,-82.09 125.9,-79.89"/>
<polygon fill="#63b8ff" stroke="#63b8ff" points="239.65,-154.75 249.49,-158.66 244.23,-149.47 239.65,-154.75"/>
</a>
</g>
</g>
<!-- Node12 -->
<g id="Node000012" class="node">
<title>Node12</title>
<g id="a_Node000012"><a xlink:href="../../d1/d1d/classml_1_1maths_1_1time__series_1_1_c_seasonal_component.html#a632bc082a236cea6fdf3347ae7cf8dc1" target="_top" xlink:title=" ">
<polygon fill="white" stroke="#666666" points="140.12,-41.75 7.12,-41.75 7.12,0 140.12,0 140.12,-41.75"/>
<text text-anchor="start" x="15.12" y="-28.25" font-family="Helvetica,sans-Serif" font-size="10.00">ml::maths::time_series</text>
<text text-anchor="start" x="15.12" y="-17" font-family="Helvetica,sans-Serif" font-size="10.00">::CSeasonalComponent::</text>
<text text-anchor="middle" x="73.62" y="-5.75" font-family="Helvetica,sans-Serif" font-size="10.00">propagateForwardsByTime</text>
</a>
</g>
</g>
<!-- Node4&#45;&gt;Node12 -->
<g id="edge11_Node000004_Node000012" class="edge">
<title>Node4&#45;&gt;Node12</title>
<g id="a_edge11_Node000004_Node000012"><a xlink:title=" ">
<path fill="none" stroke="#63b8ff" d="M250.61,-151.02C227.24,-122.2 188.6,-78.92 147.25,-50.88 142.62,-47.74 137.61,-44.83 132.46,-42.17"/>
<polygon fill="#63b8ff" stroke="#63b8ff" points="247.73,-153.02 256.7,-158.65 253.2,-148.65 247.73,-153.02"/>
</a>
</g>
</g>
</g>
</svg>
