<?xml version="1.0" encoding="UTF-8" standalone="no"?>
<!DOCTYPE svg PUBLIC "-//W3C//DTD SVG 1.1//EN"
 "http://www.w3.org/Graphics/SVG/1.1/DTD/svg11.dtd">
<!-- Generated by graphviz version 10.0.1 (20240210.2158)
 -->
<!-- Title: ml::maths::time_series::CAdaptiveBucketing::clear Pages: 1 -->
<svg width="905pt" height="144pt"
 viewBox="0.00 0.00 904.75 143.75" xmlns="http://www.w3.org/2000/svg" xmlns:xlink="http://www.w3.org/1999/xlink">
<g id="graph0" class="graph" transform="scale(1 1) rotate(0) translate(4 139.75)">
<title>ml::maths::time_series::CAdaptiveBucketing::clear</title>
<!-- Node1 -->
<g id="Node000001" class="node">
<title>Node1</title>
<g id="a_Node000001"><a xlink:title=" ">
<polygon fill="#999999" stroke="#666666" points="896.75,-100.12 758.5,-100.12 758.5,-69.62 896.75,-69.62 896.75,-100.12"/>
<text text-anchor="start" x="766.5" y="-86.62" font-family="Helvetica,sans-Serif" font-size="10.00">ml::maths::time_series</text>
<text text-anchor="middle" x="827.62" y="-75.38" font-family="Helvetica,sans-Serif" font-size="10.00">::CAdaptiveBucketing::clear</text>
</a>
</g>
</g>
<!-- Node2 -->
<g id="Node000002" class="node">
<title>Node2</title>
<g id="a_Node000002"><a xlink:href="../../de/d1f/classml_1_1maths_1_1time__series_1_1_c_calendar_component_adaptive_bucketing.html#a22d3f8880e91a70d54cb0fa07a967589" target="_top" xlink:title=" ">
<polygon fill="white" stroke="#666666" points="721.75,-135.75 564.75,-135.75 564.75,-94 721.75,-94 721.75,-135.75"/>
<text text-anchor="start" x="572.75" y="-122.25" font-family="Helvetica,sans-Serif" font-size="10.00">ml::maths::time_series</text>
<text text-anchor="start" x="572.75" y="-111" font-family="Helvetica,sans-Serif" font-size="10.00">::CCalendarComponentAdaptive</text>
<text text-anchor="middle" x="643.25" y="-99.75" font-family="Helvetica,sans-Serif" font-size="10.00">Bucketing::clear</text>
</a>
</g>
</g>
<!-- Node1&#45;&gt;Node2 -->
<g id="edge1_Node000001_Node000002" class="edge">
<title>Node1&#45;&gt;Node2</title>
<g id="a_edge1_Node000001_Node000002"><a xlink:title=" ">
<path fill="none" stroke="#63b8ff" d="M746.98,-97.98C738.67,-99.34 730.23,-100.73 721.95,-102.09"/>
<polygon fill="#63b8ff" stroke="#63b8ff" points="747.4,-101.45 756.7,-96.38 746.27,-94.55 747.4,-101.45"/>
</a>
</g>
</g>
<!-- Node5 -->
<g id="Node000005" class="node">
<title>Node5</title>
<g id="a_Node000005"><a xlink:href="../../db/de4/classml_1_1maths_1_1time__series_1_1_c_seasonal_component_adaptive_bucketing.html#aa9ce5165e4ce745342978fb7a7130c5d" target="_top" xlink:title=" ">
<polygon fill="white" stroke="#666666" points="722.5,-75.75 564,-75.75 564,-34 722.5,-34 722.5,-75.75"/>
<text text-anchor="start" x="572" y="-62.25" font-family="Helvetica,sans-Serif" font-size="10.00">ml::maths::time_series</text>
<text text-anchor="start" x="572" y="-51" font-family="Helvetica,sans-Serif" font-size="10.00">::CSeasonalComponentAdaptive</text>
<text text-anchor="middle" x="643.25" y="-39.75" font-family="Helvetica,sans-Serif" font-size="10.00">Bucketing::clear</text>
</a>
</g>
</g>
<!-- Node1&#45;&gt;Node5 -->
<g id="edge4_Node000001_Node000005" class="edge">
<title>Node1&#45;&gt;Node5</title>
<g id="a_edge4_Node000001_Node000005"><a xlink:title=" ">
<path fill="none" stroke="#63b8ff" d="M746.99,-71.78C738.99,-70.46 730.87,-69.12 722.88,-67.81"/>
<polygon fill="#63b8ff" stroke="#63b8ff" points="746.27,-75.2 756.7,-73.37 747.4,-68.3 746.27,-75.2"/>
</a>
</g>
</g>
<!-- Node3 -->
<g id="Node000003" class="node">
<title>Node3</title>
<g id="a_Node000003"><a xlink:href="../../d2/da4/classml_1_1maths_1_1time__series_1_1_c_calendar_component.html#a7d16389504c7ed3db6507202d65ef575" target="_top" xlink:title="Clear all data.">
<polygon fill="white" stroke="#666666" points="527.25,-130.12 381.5,-130.12 381.5,-99.62 527.25,-99.62 527.25,-130.12"/>
<text text-anchor="start" x="389.5" y="-116.62" font-family="Helvetica,sans-Serif" font-size="10.00">ml::maths::time_series</text>
<text text-anchor="middle" x="454.38" y="-105.38" font-family="Helvetica,sans-Serif" font-size="10.00">::CCalendarComponent::clear</text>
</a>
</g>
</g>
<!-- Node2&#45;&gt;Node3 -->
<g id="edge2_Node000002_Node000003" class="edge">
<title>Node2&#45;&gt;Node3</title>
<g id="a_edge2_Node000002_Node000003"><a xlink:title=" ">
<path fill="none" stroke="#63b8ff" d="M553.11,-114.88C544.51,-114.88 535.87,-114.88 527.47,-114.88"/>
<polygon fill="#63b8ff" stroke="#63b8ff" points="552.84,-118.38 562.84,-114.88 552.84,-111.38 552.84,-118.38"/>
</a>
</g>
</g>
<!-- Node4 -->
<g id="Node000004" class="node">
<title>Node4</title>
<g id="a_Node000004"><a xlink:href="../../d2/da4/classml_1_1maths_1_1time__series_1_1_c_calendar_component.html#abf93d70fb6c9be460d1b8046a33cdc91" target="_top" xlink:title="Initialize the adaptive bucketing.">
<polygon fill="white" stroke="#666666" points="344,-135.75 219.25,-135.75 219.25,-94 344,-94 344,-135.75"/>
<text text-anchor="start" x="227.25" y="-122.25" font-family="Helvetica,sans-Serif" font-size="10.00">ml::maths::time_series</text>
<text text-anchor="start" x="227.25" y="-111" font-family="Helvetica,sans-Serif" font-size="10.00">::CCalendarComponent::</text>
<text text-anchor="middle" x="281.62" y="-99.75" font-family="Helvetica,sans-Serif" font-size="10.00">initialize</text>
</a>
</g>
</g>
<!-- Node3&#45;&gt;Node4 -->
<g id="edge3_Node000003_Node000004" class="edge">
<title>Node3&#45;&gt;Node4</title>
<g id="a_edge3_Node000003_Node000004"><a xlink:title=" ">
<path fill="none" stroke="#63b8ff" d="M370.13,-114.88C361.48,-114.88 352.81,-114.88 344.45,-114.88"/>
<polygon fill="#63b8ff" stroke="#63b8ff" points="369.94,-118.38 379.94,-114.88 369.94,-111.38 369.94,-118.38"/>
</a>
</g>
</g>
<!-- Node6 -->
<g id="Node000006" class="node">
<title>Node6</title>
<g id="a_Node000006"><a xlink:href="../../d0/de7/_c_seasonal_component_adaptive_bucketing_test_8cc.html#a77d4b9767e6bf93ec4b49bbd2130e590" target="_top" xlink:title=" ">
<polygon fill="white" stroke="#666666" points="528,-73.5 380.75,-73.5 380.75,-54.25 528,-54.25 528,-73.5"/>
<text text-anchor="middle" x="454.38" y="-60" font-family="Helvetica,sans-Serif" font-size="10.00">BOOST_AUTO_TEST_CASE</text>
</a>
</g>
</g>
<!-- Node5&#45;&gt;Node6 -->
<g id="edge5_Node000005_Node000006" class="edge">
<title>Node5&#45;&gt;Node6</title>
<g id="a_edge5_Node000005_Node000006"><a xlink:title=" ">
<path fill="none" stroke="#63b8ff" d="M552.25,-59.21C544.24,-59.6 536.19,-59.98 528.34,-60.36"/>
<polygon fill="#63b8ff" stroke="#63b8ff" points="552.21,-62.72 562.03,-58.74 551.87,-55.72 552.21,-62.72"/>
</a>
</g>
</g>
<!-- Node7 -->
<g id="Node000007" class="node">
<title>Node7</title>
<g id="a_Node000007"><a xlink:href="../../d1/d1d/classml_1_1maths_1_1time__series_1_1_c_seasonal_component.html#a72b984210afd75cd5f8e3b4722e8633e" target="_top" xlink:title="Clear all data.">
<polygon fill="white" stroke="#666666" points="528,-36.12 380.75,-36.12 380.75,-5.62 528,-5.62 528,-36.12"/>
<text text-anchor="start" x="388.75" y="-22.62" font-family="Helvetica,sans-Serif" font-size="10.00">ml::maths::time_series</text>
<text text-anchor="middle" x="454.38" y="-11.38" font-family="Helvetica,sans-Serif" font-size="10.00">::CSeasonalComponent::clear</text>
</a>
</g>
</g>
<!-- Node5&#45;&gt;Node7 -->
<g id="edge6_Node000005_Node000007" class="edge">
<title>Node5&#45;&gt;Node7</title>
<g id="a_edge6_Node000005_Node000007"><a xlink:title=" ">
<path fill="none" stroke="#63b8ff" d="M552.25,-38.5C544.24,-37.04 536.19,-35.58 528.34,-34.15"/>
<polygon fill="#63b8ff" stroke="#63b8ff" points="551.59,-41.94 562.05,-40.28 552.84,-35.05 551.59,-41.94"/>
</a>
</g>
</g>
<!-- Node8 -->
<g id="Node000008" class="node">
<title>Node8</title>
<g id="a_Node000008"><a xlink:href="../../d1/d1d/classml_1_1maths_1_1time__series_1_1_c_seasonal_component.html#aba0b2f1de40ae81b63d2916ced7c15e3" target="_top" xlink:title="Initialize the adaptive bucketing.">
<polygon fill="white" stroke="#666666" points="344.75,-41.75 218.5,-41.75 218.5,0 344.75,0 344.75,-41.75"/>
<text text-anchor="start" x="226.5" y="-28.25" font-family="Helvetica,sans-Serif" font-size="10.00">ml::maths::time_series</text>
<text text-anchor="start" x="226.5" y="-17" font-family="Helvetica,sans-Serif" font-size="10.00">::CSeasonalComponent::</text>
<text text-anchor="middle" x="281.62" y="-5.75" font-family="Helvetica,sans-Serif" font-size="10.00">initialize</text>
</a>
</g>
</g>
<!-- Node7&#45;&gt;Node8 -->
<g id="edge7_Node000007_Node000008" class="edge">
<title>Node7&#45;&gt;Node8</title>
<g id="a_edge7_Node000007_Node000008"><a xlink:title=" ">
<path fill="none" stroke="#63b8ff" d="M369.07,-20.88C360.99,-20.88 352.89,-20.88 345.07,-20.88"/>
<polygon fill="#63b8ff" stroke="#63b8ff" points="368.95,-24.38 378.95,-20.88 368.95,-17.38 368.95,-24.38"/>
</a>
</g>
</g>
<!-- Node9 -->
<g id="Node000009" class="node">
<title>Node9</title>
<g id="a_Node000009"><a xlink:href="../../de/da5/classml_1_1maths_1_1time__series_1_1_c_new_seasonal_component_summary.html#a4f24706e33caadc86c16b5ad00d7d6c1" target="_top" xlink:title="Create a seasonal component from the initial values.">
<polygon fill="white" stroke="#666666" points="182.5,-41.75 0,-41.75 0,0 182.5,0 182.5,-41.75"/>
<text text-anchor="start" x="8" y="-28.25" font-family="Helvetica,sans-Serif" font-size="10.00">ml::maths::time_series</text>
<text text-anchor="start" x="8" y="-17" font-family="Helvetica,sans-Serif" font-size="10.00">::CNewSeasonalComponentSummary</text>
<text text-anchor="middle" x="91.25" y="-5.75" font-family="Helvetica,sans-Serif" font-size="10.00">::createSeasonalComponent</text>
</a>
</g>
</g>
<!-- Node8&#45;&gt;Node9 -->
<g id="edge8_Node000008_Node000009" class="edge">
<title>Node8&#45;&gt;Node9</title>
<g id="a_edge8_Node000008_Node000009"><a xlink:title=" ">
<path fill="none" stroke="#63b8ff" d="M206.79,-20.88C198.91,-20.88 190.83,-20.88 182.79,-20.88"/>
<polygon fill="#63b8ff" stroke="#63b8ff" points="206.65,-24.38 216.65,-20.88 206.65,-17.38 206.65,-24.38"/>
</a>
</g>
</g>
</g>
</svg>
