<?xml version="1.0" encoding="UTF-8" standalone="no"?>
<!DOCTYPE svg PUBLIC "-//W3C//DTD SVG 1.1//EN"
 "http://www.w3.org/Graphics/SVG/1.1/DTD/svg11.dtd">
<!-- Generated by graphviz version 10.0.1 (20240210.2158)
 -->
<!-- Title: ml::maths::time_series::CAdaptiveBucketing::spread Pages: 1 -->
<!--zoomable 545 -->

<svg id="main" version="1.1" xmlns="http://www.w3.org/2000/svg" xmlns:xlink="http://www.w3.org/1999/xlink" xml:space="preserve" onload="init(evt)">
<style type="text/css"><![CDATA[
.node, .edge {opacity: 0.7;}
.node.selected, .edge.selected {opacity: 1;}
.edge:hover path { stroke: red; }
.edge:hover polygon { stroke: red; fill: red; }
]]></style>

<defs>
  <circle id="rim" cx="0" cy="0" r="7"/>
  <circle id="rim2" cx="0" cy="0" r="3.5"/>
  <g id="zoomPlus">
    <use xlink:href="#rim" fill="#404040"><set attributeName="fill" to="#808080" begin="zoomplus.mouseover" end="zoomplus.mouseout"/></use>
    <path d="M-4,0h8M0,-4v8" fill="none" stroke="white" stroke-width="1.5" pointer-events="none"/>
  </g>
  <g id="zoomMin">
    <use xlink:href="#rim" fill="#404040"><set attributeName="fill" to="#808080" begin="zoomminus.mouseover" end="zoomminus.mouseout"/></use>
    <path d="M-4,0h8" fill="none" stroke="white" stroke-width="1.5" pointer-events="none"/>
  </g>
  <g id="arrowUp" transform="translate(30 24)">
    <use xlink:href="#rim"/>
    <path pointer-events="none" fill="none" stroke="white" stroke-width="1.5" d="M0,-3.0v7 M-2.5,-0.5L0,-3.0L2.5,-0.5"/>
  </g>
  <g id="arrowRight" transform="rotate(90) translate(36 -43)">
    <use xlink:href="#rim"/>
    <path pointer-events="none" fill="none" stroke="white" stroke-width="1.5" d="M0,-3.0v7 M-2.5,-0.5L0,-3.0L2.5,-0.5"/>
  </g>
  <g id="arrowDown" transform="rotate(180) translate(-30 -48)">
    <use xlink:href="#rim"/>
    <path pointer-events="none" fill="none" stroke="white" stroke-width="1.5" d="M0,-3.0v7 M-2.5,-0.5L0,-3.0L2.5,-0.5"/>
  </g>
  <g id="arrowLeft" transform="rotate(270) translate(-36 17)">
    <use xlink:href="#rim"/>
    <path pointer-events="none" fill="none" stroke="white" stroke-width="1.5" d="M0,-3.0v7 M-2.5,-0.5L0,-3.0L2.5,-0.5"/>
  </g>
  <g id="resetDef">
    <use xlink:href="#rim2" fill="#404040"><set attributeName="fill" to="#808080" begin="reset.mouseover" end="reset.mouseout"/></use>
  </g>
</defs>
<script type="application/ecmascript">
var viewWidth = 1088;
var viewHeight = 545;
var sectionId = 'dynsection-57';
</script>
<script type="application/ecmascript" xlink:href="../../svg.min.js"/>
<svg id="graph" class="graph">
<g id="viewport">
<title>ml::maths::time_series::CAdaptiveBucketing::spread</title>
<!-- Node1 -->
<g id="Node000001" class="node">
<title>Node1</title>
<g id="a_Node000001"><a xlink:title="Ensure points are at least separation apart.">
<polygon fill="#999999" stroke="#666666" points="1080,-299.75 962.75,-299.75 962.75,-258 1080,-258 1080,-299.75"/>
<text text-anchor="start" x="970.75" y="-286.25" font-family="Helvetica,sans-Serif" font-size="10.00">ml::maths::time_series</text>
<text text-anchor="start" x="970.75" y="-275" font-family="Helvetica,sans-Serif" font-size="10.00">::CAdaptiveBucketing::</text>
<text text-anchor="middle" x="1021.38" y="-263.75" font-family="Helvetica,sans-Serif" font-size="10.00">spread</text>
</a>
</g>
</g>
<!-- Node2 -->
<g id="Node000002" class="node">
<title>Node2</title>
<g id="a_Node000002"><a xlink:href="../../d6/dda/_c_adaptive_bucketing_test_8cc.html#a06dabf8517078c5c23fff5da7d21aeae" target="_top" xlink:title=" ">
<polygon fill="white" stroke="#666666" points="926.75,-313.5 779.5,-313.5 779.5,-294.25 926.75,-294.25 926.75,-313.5"/>
<text text-anchor="middle" x="853.12" y="-300" font-family="Helvetica,sans-Serif" font-size="10.00">BOOST_AUTO_TEST_CASE</text>
</a>
</g>
</g>
<!-- Node1&#45;&gt;Node2 -->
<g id="edge1_Node000001_Node000002" class="edge">
<title>Node1&#45;&gt;Node2</title>
<g id="a_edge1_Node000001_Node000002"><a xlink:title=" ">
<path fill="none" stroke="#63b8ff" d="M951.59,-289.22C941.61,-290.72 931.35,-292.26 921.41,-293.76"/>
<polygon fill="#63b8ff" stroke="#63b8ff" points="951.83,-292.72 961.2,-287.77 950.79,-285.8 951.83,-292.72"/>
</a>
</g>
</g>
<!-- Node3 -->
<g id="Node000003" class="node">
<title>Node3</title>
<g id="a_Node000003"><a xlink:href="../../d7/d17/classml_1_1maths_1_1time__series_1_1_c_adaptive_bucketing.html#ad8170457fa056f84e9d7425095ad0796" target="_top" xlink:title=" ">
<polygon fill="white" stroke="#666666" points="911.75,-275.75 794.5,-275.75 794.5,-234 911.75,-234 911.75,-275.75"/>
<text text-anchor="start" x="802.5" y="-262.25" font-family="Helvetica,sans-Serif" font-size="10.00">ml::maths::time_series</text>
<text text-anchor="start" x="802.5" y="-251" font-family="Helvetica,sans-Serif" font-size="10.00">::CAdaptiveBucketing::</text>
<text text-anchor="middle" x="853.12" y="-239.75" font-family="Helvetica,sans-Serif" font-size="10.00">refine</text>
</a>
</g>
</g>
<!-- Node1&#45;&gt;Node3 -->
<g id="edge2_Node000001_Node000003" class="edge">
<title>Node1&#45;&gt;Node3</title>
<g id="a_edge2_Node000001_Node000003"><a xlink:title=" ">
<path fill="none" stroke="#63b8ff" d="M951.35,-268.91C938.26,-267.02 924.69,-265.06 911.98,-263.23"/>
<polygon fill="#63b8ff" stroke="#63b8ff" points="950.8,-272.37 961.2,-270.33 951.8,-265.44 950.8,-272.37"/>
</a>
</g>
</g>
<!-- Node4 -->
<g id="Node000004" class="node">
<title>Node4</title>
<g id="a_Node000004"><a xlink:href="../../d0/de7/_c_seasonal_component_adaptive_bucketing_test_8cc.html#acfcbb61c2b3b4e3b314ee4a98279fabe" target="_top" xlink:title=" ">
<polygon fill="white" stroke="#666666" points="743.5,-536.5 596.25,-536.5 596.25,-517.25 743.5,-517.25 743.5,-536.5"/>
<text text-anchor="middle" x="669.88" y="-523" font-family="Helvetica,sans-Serif" font-size="10.00">BOOST_AUTO_TEST_CASE</text>
</a>
</g>
</g>
<!-- Node3&#45;&gt;Node4 -->
<g id="edge3_Node000003_Node000004" class="edge">
<title>Node3&#45;&gt;Node4</title>
<g id="a_edge3_Node000003_Node000004"><a xlink:title=" ">
<path fill="none" stroke="#63b8ff" d="M785.39,-278.63C783.26,-280.56 781.28,-282.63 779.5,-284.88 718.41,-361.76 807.34,-428.25 743.5,-502.88 738.32,-508.93 731.58,-513.46 724.29,-516.86"/>
<polygon fill="#63b8ff" stroke="#63b8ff" points="787.17,-281.67 793.06,-272.86 782.96,-276.08 787.17,-281.67"/>
</a>
</g>
</g>
<!-- Node5 -->
<g id="Node000005" class="node">
<title>Node5</title>
<g id="a_Node000005"><a xlink:href="../../d0/de7/_c_seasonal_component_adaptive_bucketing_test_8cc.html#a6ace0510d94b4171a5d28caa7232f876" target="_top" xlink:title=" ">
<polygon fill="white" stroke="#666666" points="365.75,-492.5 218.5,-492.5 218.5,-473.25 365.75,-473.25 365.75,-492.5"/>
<text text-anchor="middle" x="292.12" y="-479" font-family="Helvetica,sans-Serif" font-size="10.00">BOOST_AUTO_TEST_CASE</text>
</a>
</g>
</g>
<!-- Node3&#45;&gt;Node5 -->
<g id="edge4_Node000003_Node000005" class="edge">
<title>Node3&#45;&gt;Node5</title>
<g id="a_edge4_Node000003_Node000005"><a xlink:title=" ">
<path fill="none" stroke="#63b8ff" d="M784.92,-279.24C782.98,-280.99 781.16,-282.87 779.5,-284.88 728.9,-346.07 803.51,-407.88 743.5,-459.88 688.91,-507.17 479.08,-498.24 366.12,-489.56"/>
<polygon fill="#63b8ff" stroke="#63b8ff" points="787.01,-282.05 792.91,-273.24 782.81,-276.45 787.01,-282.05"/>
</a>
</g>
</g>
<!-- Node6 -->
<g id="Node000006" class="node">
<title>Node6</title>
<g id="a_Node000006"><a xlink:href="../../d0/de7/_c_seasonal_component_adaptive_bucketing_test_8cc.html#ae354c24679da5da159826c646fd65a53" target="_top" xlink:title=" ">
<polygon fill="white" stroke="#666666" points="743.5,-264.5 596.25,-264.5 596.25,-245.25 743.5,-245.25 743.5,-264.5"/>
<text text-anchor="middle" x="669.88" y="-251" font-family="Helvetica,sans-Serif" font-size="10.00">BOOST_AUTO_TEST_CASE</text>
</a>
</g>
</g>
<!-- Node3&#45;&gt;Node6 -->
<g id="edge5_Node000003_Node000006" class="edge">
<title>Node3&#45;&gt;Node6</title>
<g id="a_edge5_Node000003_Node000006"><a xlink:title=" ">
<path fill="none" stroke="#63b8ff" d="M783.15,-254.88C770.27,-254.88 756.77,-254.88 743.78,-254.88"/>
<polygon fill="#63b8ff" stroke="#63b8ff" points="782.76,-258.38 792.76,-254.88 782.76,-251.38 782.76,-258.38"/>
</a>
</g>
</g>
<!-- Node7 -->
<g id="Node000007" class="node">
<title>Node7</title>
<g id="a_Node000007"><a xlink:href="../../d0/de7/_c_seasonal_component_adaptive_bucketing_test_8cc.html#a1d68c9c9ad2692e9d6ddacc5a88211ac" target="_top" xlink:title=" ">
<polygon fill="white" stroke="#666666" points="743.5,-227.5 596.25,-227.5 596.25,-208.25 743.5,-208.25 743.5,-227.5"/>
<text text-anchor="middle" x="669.88" y="-214" font-family="Helvetica,sans-Serif" font-size="10.00">BOOST_AUTO_TEST_CASE</text>
</a>
</g>
</g>
<!-- Node3&#45;&gt;Node7 -->
<g id="edge6_Node000003_Node000007" class="edge">
<title>Node3&#45;&gt;Node7</title>
<g id="a_edge6_Node000003_Node000007"><a xlink:title=" ">
<path fill="none" stroke="#63b8ff" d="M783.17,-240.8C762.23,-236.52 739.64,-231.91 720.26,-227.96"/>
<polygon fill="#63b8ff" stroke="#63b8ff" points="782.3,-244.19 792.8,-242.76 783.7,-237.33 782.3,-244.19"/>
</a>
</g>
</g>
<!-- Node8 -->
<g id="Node000008" class="node">
<title>Node8</title>
<g id="a_Node000008"><a xlink:href="../../d0/de7/_c_seasonal_component_adaptive_bucketing_test_8cc.html#a57d3ec5369f2c114c2fb6aba9f16ea77" target="_top" xlink:title=" ">
<polygon fill="white" stroke="#666666" points="743.5,-190.5 596.25,-190.5 596.25,-171.25 743.5,-171.25 743.5,-190.5"/>
<text text-anchor="middle" x="669.88" y="-177" font-family="Helvetica,sans-Serif" font-size="10.00">BOOST_AUTO_TEST_CASE</text>
</a>
</g>
</g>
<!-- Node3&#45;&gt;Node8 -->
<g id="edge7_Node000003_Node000008" class="edge">
<title>Node3&#45;&gt;Node8</title>
<g id="a_edge7_Node000003_Node000008"><a xlink:title=" ">
<path fill="none" stroke="#63b8ff" d="M806.51,-228.35C787.49,-218.09 764.88,-206.91 743.5,-198.88 735.47,-195.86 726.76,-193.2 718.25,-190.92"/>
<polygon fill="#63b8ff" stroke="#63b8ff" points="804.61,-231.3 815.06,-233.04 807.98,-225.16 804.61,-231.3"/>
</a>
</g>
</g>
<!-- Node9 -->
<g id="Node000009" class="node">
<title>Node9</title>
<g id="a_Node000009"><a xlink:href="../../d0/de7/_c_seasonal_component_adaptive_bucketing_test_8cc.html#ab16c369a2fea1232a8435f0bca6a2675" target="_top" xlink:title=" ">
<polygon fill="white" stroke="#666666" points="743.5,-153.5 596.25,-153.5 596.25,-134.25 743.5,-134.25 743.5,-153.5"/>
<text text-anchor="middle" x="669.88" y="-140" font-family="Helvetica,sans-Serif" font-size="10.00">BOOST_AUTO_TEST_CASE</text>
</a>
</g>
</g>
<!-- Node3&#45;&gt;Node9 -->
<g id="edge8_Node000003_Node000009" class="edge">
<title>Node3&#45;&gt;Node9</title>
<g id="a_edge8_Node000003_Node000009"><a xlink:title=" ">
<path fill="none" stroke="#63b8ff" d="M825.12,-225.36C804.63,-204.67 774.73,-177.96 743.5,-161.88 737.38,-158.72 730.68,-156.11 723.9,-153.93"/>
<polygon fill="#63b8ff" stroke="#63b8ff" points="822.5,-227.69 831.98,-232.43 827.53,-222.82 822.5,-227.69"/>
</a>
</g>
</g>
<!-- Node10 -->
<g id="Node000010" class="node">
<title>Node10</title>
<g id="a_Node000010"><a xlink:href="../../d0/de7/_c_seasonal_component_adaptive_bucketing_test_8cc.html#a83d3db08b40e753bcbf9bc6672205f64" target="_top" xlink:title=" ">
<polygon fill="white" stroke="#666666" points="365.75,-449.5 218.5,-449.5 218.5,-430.25 365.75,-430.25 365.75,-449.5"/>
<text text-anchor="middle" x="292.12" y="-436" font-family="Helvetica,sans-Serif" font-size="10.00">BOOST_AUTO_TEST_CASE</text>
</a>
</g>
</g>
<!-- Node3&#45;&gt;Node10 -->
<g id="edge9_Node000003_Node000010" class="edge">
<title>Node3&#45;&gt;Node10</title>
<g id="a_edge9_Node000003_Node000010"><a xlink:title=" ">
<path fill="none" stroke="#63b8ff" d="M785.47,-278.93C783.33,-280.77 781.33,-282.75 779.5,-284.88 735.67,-335.9 796.05,-389.88 743.5,-431.88 687.22,-476.85 478.65,-461.23 366.17,-448.94"/>
<polygon fill="#63b8ff" stroke="#63b8ff" points="787.06,-282.1 793.08,-273.38 782.93,-276.44 787.06,-282.1"/>
</a>
</g>
</g>
<!-- Node11 -->
<g id="Node000011" class="node">
<title>Node11</title>
<g id="a_Node000011"><a xlink:href="../../d0/de7/_c_seasonal_component_adaptive_bucketing_test_8cc.html#a7a2446117e41608ffd09eb34186757f3" target="_top" xlink:title=" ">
<polygon fill="white" stroke="#666666" points="365.75,-402.5 218.5,-402.5 218.5,-383.25 365.75,-383.25 365.75,-402.5"/>
<text text-anchor="middle" x="292.12" y="-389" font-family="Helvetica,sans-Serif" font-size="10.00">BOOST_AUTO_TEST_CASE</text>
</a>
</g>
</g>
<!-- Node3&#45;&gt;Node11 -->
<g id="edge10_Node000003_Node000011" class="edge">
<title>Node3&#45;&gt;Node11</title>
<g id="a_edge10_Node000003_Node000011"><a xlink:title=" ">
<path fill="none" stroke="#63b8ff" d="M784.76,-281.05C782.95,-282.27 781.19,-283.55 779.5,-284.88 758.23,-301.54 766.9,-320.36 743.5,-333.88 677.34,-372.1 477.29,-360.39 401.75,-371.88 381.72,-374.92 359.75,-379.02 340.84,-382.79"/>
<polygon fill="#63b8ff" stroke="#63b8ff" points="786.17,-284.29 792.89,-276.1 782.53,-278.31 786.17,-284.29"/>
</a>
</g>
</g>
<!-- Node12 -->
<g id="Node000012" class="node">
<title>Node12</title>
<g id="a_Node000012"><a xlink:href="../../d0/de7/_c_seasonal_component_adaptive_bucketing_test_8cc.html#a9d63d724a22497ecdc14720985d34e5a" target="_top" xlink:title=" ">
<polygon fill="white" stroke="#666666" points="743.5,-116.5 596.25,-116.5 596.25,-97.25 743.5,-97.25 743.5,-116.5"/>
<text text-anchor="middle" x="669.88" y="-103" font-family="Helvetica,sans-Serif" font-size="10.00">BOOST_AUTO_TEST_CASE</text>
</a>
</g>
</g>
<!-- Node3&#45;&gt;Node12 -->
<g id="edge11_Node000003_Node000012" class="edge">
<title>Node3&#45;&gt;Node12</title>
<g id="a_edge11_Node000003_Node000012"><a xlink:title=" ">
<path fill="none" stroke="#63b8ff" d="M834.56,-224.22C815.82,-194.33 783.38,-149.81 743.5,-124.88 738.43,-121.71 732.84,-119.1 727.08,-116.94"/>
<polygon fill="#63b8ff" stroke="#63b8ff" points="831.39,-225.75 839.59,-232.46 837.37,-222.1 831.39,-225.75"/>
</a>
</g>
</g>
<!-- Node13 -->
<g id="Node000013" class="node">
<title>Node13</title>
<g id="a_Node000013"><a xlink:href="../../d0/de7/_c_seasonal_component_adaptive_bucketing_test_8cc.html#a77d4b9767e6bf93ec4b49bbd2130e590" target="_top" xlink:title=" ">
<polygon fill="white" stroke="#666666" points="743.5,-79.5 596.25,-79.5 596.25,-60.25 743.5,-60.25 743.5,-79.5"/>
<text text-anchor="middle" x="669.88" y="-66" font-family="Helvetica,sans-Serif" font-size="10.00">BOOST_AUTO_TEST_CASE</text>
</a>
</g>
</g>
<!-- Node3&#45;&gt;Node13 -->
<g id="edge12_Node000003_Node000013" class="edge">
<title>Node3&#45;&gt;Node13</title>
<g id="a_edge12_Node000003_Node000013"><a xlink:title=" ">
<path fill="none" stroke="#63b8ff" d="M840.12,-223.28C824.01,-185.24 791.72,-122.19 743.5,-87.88 739.05,-84.71 734.11,-82.1 728.96,-79.95"/>
<polygon fill="#63b8ff" stroke="#63b8ff" points="836.81,-224.44 843.84,-232.37 843.29,-221.79 836.81,-224.44"/>
</a>
</g>
</g>
<!-- Node14 -->
<g id="Node000014" class="node">
<title>Node14</title>
<g id="a_Node000014"><a xlink:href="../../d7/d17/classml_1_1maths_1_1time__series_1_1_c_adaptive_bucketing.html#a7332f86f46b93cd58e4e70aa5096f0bb" target="_top" xlink:title=" ">
<polygon fill="white" stroke="#666666" points="728.5,-422.75 611.25,-422.75 611.25,-381 728.5,-381 728.5,-422.75"/>
<text text-anchor="start" x="619.25" y="-409.25" font-family="Helvetica,sans-Serif" font-size="10.00">ml::maths::time_series</text>
<text text-anchor="start" x="619.25" y="-398" font-family="Helvetica,sans-Serif" font-size="10.00">::CAdaptiveBucketing::</text>
<text text-anchor="middle" x="669.88" y="-386.75" font-family="Helvetica,sans-Serif" font-size="10.00">initialValues</text>
</a>
</g>
</g>
<!-- Node3&#45;&gt;Node14 -->
<g id="edge13_Node000003_Node000014" class="edge">
<title>Node3&#45;&gt;Node14</title>
<g id="a_edge13_Node000003_Node000014"><a xlink:title=" ">
<path fill="none" stroke="#63b8ff" d="M784.59,-280.38C782.81,-281.81 781.11,-283.3 779.5,-284.88 751.05,-312.71 771.14,-338.24 743.5,-366.88 738.45,-372.11 732.45,-376.67 726.1,-380.6"/>
<polygon fill="#63b8ff" stroke="#63b8ff" points="786.53,-283.3 792.78,-274.74 782.56,-277.53 786.53,-283.3"/>
</a>
</g>
</g>
<!-- Node18 -->
<g id="Node000018" class="node">
<title>Node18</title>
<g id="a_Node000018"><a xlink:href="../../d2/da4/classml_1_1maths_1_1time__series_1_1_c_calendar_component.html#a52413b96720bac163a882f8bd99127c8" target="_top" xlink:title=" ">
<polygon fill="white" stroke="#666666" points="732.25,-41.75 607.5,-41.75 607.5,0 732.25,0 732.25,-41.75"/>
<text text-anchor="start" x="615.5" y="-28.25" font-family="Helvetica,sans-Serif" font-size="10.00">ml::maths::time_series</text>
<text text-anchor="start" x="615.5" y="-17" font-family="Helvetica,sans-Serif" font-size="10.00">::CCalendarComponent::</text>
<text text-anchor="middle" x="669.88" y="-5.75" font-family="Helvetica,sans-Serif" font-size="10.00">interpolate</text>
</a>
</g>
</g>
<!-- Node3&#45;&gt;Node18 -->
<g id="edge20_Node000003_Node000018" class="edge">
<title>Node3&#45;&gt;Node18</title>
<g id="a_edge20_Node000003_Node000018"><a xlink:title=" ">
<path fill="none" stroke="#63b8ff" d="M842.75,-222.97C828.26,-178.74 796.41,-98.86 743.5,-50.88 739.96,-47.67 736.04,-44.78 731.89,-42.17"/>
<polygon fill="#63b8ff" stroke="#63b8ff" points="839.33,-223.75 845.69,-232.22 846,-221.63 839.33,-223.75"/>
</a>
</g>
</g>
<!-- Node21 -->
<g id="Node000021" class="node">
<title>Node21</title>
<g id="a_Node000021"><a xlink:href="../../d1/d1d/classml_1_1maths_1_1time__series_1_1_c_seasonal_component.html#a5928687b847c2441307221b88e60df35" target="_top" xlink:title=" ">
<polygon fill="white" stroke="#666666" points="733,-324.75 606.75,-324.75 606.75,-283 733,-283 733,-324.75"/>
<text text-anchor="start" x="614.75" y="-311.25" font-family="Helvetica,sans-Serif" font-size="10.00">ml::maths::time_series</text>
<text text-anchor="start" x="614.75" y="-300" font-family="Helvetica,sans-Serif" font-size="10.00">::CSeasonalComponent::</text>
<text text-anchor="middle" x="669.88" y="-288.75" font-family="Helvetica,sans-Serif" font-size="10.00">interpolate</text>
</a>
</g>
</g>
<!-- Node3&#45;&gt;Node21 -->
<g id="edge23_Node000003_Node000021" class="edge">
<title>Node3&#45;&gt;Node21</title>
<g id="a_edge23_Node000003_Node000021"><a xlink:title=" ">
<path fill="none" stroke="#63b8ff" d="M783.16,-273.52C766.84,-277.93 749.52,-282.61 733.5,-286.94"/>
<polygon fill="#63b8ff" stroke="#63b8ff" points="784.08,-276.9 792.82,-270.91 782.25,-270.14 784.08,-276.9"/>
</a>
</g>
</g>
<!-- Node15 -->
<g id="Node000015" class="node">
<title>Node15</title>
<g id="a_Node000015"><a xlink:href="../../db/de4/classml_1_1maths_1_1time__series_1_1_c_seasonal_component_adaptive_bucketing.html#ae46bcff4e98237ce406cd2f74028c104" target="_top" xlink:title=" ">
<polygon fill="white" stroke="#666666" points="560.25,-422.75 401.75,-422.75 401.75,-381 560.25,-381 560.25,-422.75"/>
<text text-anchor="start" x="409.75" y="-409.25" font-family="Helvetica,sans-Serif" font-size="10.00">ml::maths::time_series</text>
<text text-anchor="start" x="409.75" y="-398" font-family="Helvetica,sans-Serif" font-size="10.00">::CSeasonalComponentAdaptive</text>
<text text-anchor="middle" x="481" y="-386.75" font-family="Helvetica,sans-Serif" font-size="10.00">Bucketing::initialValues</text>
</a>
</g>
</g>
<!-- Node14&#45;&gt;Node15 -->
<g id="edge14_Node000014_Node000015" class="edge">
<title>Node14&#45;&gt;Node15</title>
<g id="a_edge14_Node000014_Node000015"><a xlink:title=" ">
<path fill="none" stroke="#63b8ff" d="M599.39,-401.88C586.77,-401.88 573.53,-401.88 560.67,-401.88"/>
<polygon fill="#63b8ff" stroke="#63b8ff" points="599.26,-405.38 609.26,-401.88 599.26,-398.38 599.26,-405.38"/>
</a>
</g>
</g>
<!-- Node15&#45;&gt;Node5 -->
<g id="edge15_Node000015_Node000005" class="edge">
<title>Node15&#45;&gt;Node5</title>
<g id="a_edge15_Node000015_Node000005"><a xlink:title=" ">
<path fill="none" stroke="#63b8ff" d="M430.68,-428.42C410.8,-438.61 387.48,-449.92 365.75,-458.88 353.35,-463.99 339.43,-468.8 327.12,-472.76"/>
<polygon fill="#63b8ff" stroke="#63b8ff" points="432.11,-431.62 439.39,-423.91 428.9,-425.4 432.11,-431.62"/>
</a>
</g>
</g>
<!-- Node15&#45;&gt;Node10 -->
<g id="edge16_Node000015_Node000010" class="edge">
<title>Node15&#45;&gt;Node10</title>
<g id="a_edge16_Node000015_Node000010"><a xlink:title=" ">
<path fill="none" stroke="#63b8ff" d="M390.05,-420.17C373.75,-423.48 357.31,-426.82 342.72,-429.79"/>
<polygon fill="#63b8ff" stroke="#63b8ff" points="390.7,-423.6 399.81,-418.18 389.31,-416.74 390.7,-423.6"/>
</a>
</g>
</g>
<!-- Node15&#45;&gt;Node11 -->
<g id="edge17_Node000015_Node000011" class="edge">
<title>Node15&#45;&gt;Node11</title>
<g id="a_edge17_Node000015_Node000011"><a xlink:title=" ">
<path fill="none" stroke="#63b8ff" d="M390,-397.54C381.99,-397.15 373.94,-396.77 366.09,-396.39"/>
<polygon fill="#63b8ff" stroke="#63b8ff" points="389.62,-401.03 399.78,-398.01 389.96,-394.03 389.62,-401.03"/>
</a>
</g>
</g>
<!-- Node16 -->
<g id="Node000016" class="node">
<title>Node16</title>
<g id="a_Node000016"><a xlink:href="../../d1/d1d/classml_1_1maths_1_1time__series_1_1_c_seasonal_component.html#aba0b2f1de40ae81b63d2916ced7c15e3" target="_top" xlink:title="Initialize the adaptive bucketing.">
<polygon fill="white" stroke="#666666" points="355.25,-356.75 229,-356.75 229,-315 355.25,-315 355.25,-356.75"/>
<text text-anchor="start" x="237" y="-343.25" font-family="Helvetica,sans-Serif" font-size="10.00">ml::maths::time_series</text>
<text text-anchor="start" x="237" y="-332" font-family="Helvetica,sans-Serif" font-size="10.00">::CSeasonalComponent::</text>
<text text-anchor="middle" x="292.12" y="-320.75" font-family="Helvetica,sans-Serif" font-size="10.00">initialize</text>
</a>
</g>
</g>
<!-- Node15&#45;&gt;Node16 -->
<g id="edge18_Node000015_Node000016" class="edge">
<title>Node15&#45;&gt;Node16</title>
<g id="a_edge18_Node000015_Node000016"><a xlink:title=" ">
<path fill="none" stroke="#63b8ff" d="M408.95,-376.78C390.62,-370.31 371.06,-363.4 353.33,-357.14"/>
<polygon fill="#63b8ff" stroke="#63b8ff" points="407.56,-380 418.16,-380.03 409.89,-373.4 407.56,-380"/>
</a>
</g>
</g>
<!-- Node17 -->
<g id="Node000017" class="node">
<title>Node17</title>
<g id="a_Node000017"><a xlink:href="../../de/da5/classml_1_1maths_1_1time__series_1_1_c_new_seasonal_component_summary.html#a4f24706e33caadc86c16b5ad00d7d6c1" target="_top" xlink:title="Create a seasonal component from the initial values.">
<polygon fill="white" stroke="#666666" points="182.5,-356.75 0,-356.75 0,-315 182.5,-315 182.5,-356.75"/>
<text text-anchor="start" x="8" y="-343.25" font-family="Helvetica,sans-Serif" font-size="10.00">ml::maths::time_series</text>
<text text-anchor="start" x="8" y="-332" font-family="Helvetica,sans-Serif" font-size="10.00">::CNewSeasonalComponentSummary</text>
<text text-anchor="middle" x="91.25" y="-320.75" font-family="Helvetica,sans-Serif" font-size="10.00">::createSeasonalComponent</text>
</a>
</g>
</g>
<!-- Node16&#45;&gt;Node17 -->
<g id="edge19_Node000016_Node000017" class="edge">
<title>Node16&#45;&gt;Node17</title>
<g id="a_edge19_Node000016_Node000017"><a xlink:title=" ">
<path fill="none" stroke="#63b8ff" d="M217.25,-335.88C206.03,-335.88 194.34,-335.88 182.81,-335.88"/>
<polygon fill="#63b8ff" stroke="#63b8ff" points="217.23,-339.38 227.23,-335.88 217.23,-332.38 217.23,-339.38"/>
</a>
</g>
</g>
<!-- Node19 -->
<g id="Node000019" class="node">
<title>Node19</title>
<g id="a_Node000019"><a xlink:href="../../d2/da4/classml_1_1maths_1_1time__series_1_1_c_calendar_component.html#a00a981aefb89b1fbd233341a369106f1" target="_top" xlink:title="Linearly scale the component&#39;s by scale.">
<polygon fill="white" stroke="#666666" points="543.38,-41.75 418.62,-41.75 418.62,0 543.38,0 543.38,-41.75"/>
<text text-anchor="start" x="426.62" y="-28.25" font-family="Helvetica,sans-Serif" font-size="10.00">ml::maths::time_series</text>
<text text-anchor="start" x="426.62" y="-17" font-family="Helvetica,sans-Serif" font-size="10.00">::CCalendarComponent::</text>
<text text-anchor="middle" x="481" y="-5.75" font-family="Helvetica,sans-Serif" font-size="10.00">linearScale</text>
</a>
</g>
</g>
<!-- Node18&#45;&gt;Node19 -->
<g id="edge21_Node000018_Node000019" class="edge">
<title>Node18&#45;&gt;Node19</title>
<g id="a_edge21_Node000018_Node000019"><a xlink:title=" ">
<path fill="none" stroke="#63b8ff" d="M595.97,-20.88C578.67,-20.88 560.38,-20.88 543.64,-20.88"/>
<polygon fill="#63b8ff" stroke="#63b8ff" points="595.65,-24.38 605.65,-20.88 595.65,-17.38 595.65,-24.38"/>
</a>
</g>
</g>
<!-- Node20 -->
<g id="Node000020" class="node">
<title>Node20</title>
<g id="a_Node000020"><a xlink:href="../../d9/d5e/classml_1_1maths_1_1time__series_1_1_c_scale.html#aaeef51dd980bf63d603f1b9123229039" target="_top" xlink:title=" ">
<polygon fill="white" stroke="#666666" points="350,-36.12 234.25,-36.12 234.25,-5.62 350,-5.62 350,-36.12"/>
<text text-anchor="start" x="242.25" y="-22.62" font-family="Helvetica,sans-Serif" font-size="10.00">ml::maths::time_series</text>
<text text-anchor="middle" x="292.12" y="-11.38" font-family="Helvetica,sans-Serif" font-size="10.00">::CScale::apply</text>
</a>
</g>
</g>
<!-- Node19&#45;&gt;Node20 -->
<g id="edge22_Node000019_Node000020" class="edge">
<title>Node19&#45;&gt;Node20</title>
<g id="a_edge22_Node000019_Node000020"><a xlink:title=" ">
<path fill="none" stroke="#63b8ff" d="M406.79,-20.88C388.05,-20.88 368.16,-20.88 350.34,-20.88"/>
<polygon fill="#63b8ff" stroke="#63b8ff" points="406.78,-24.38 416.78,-20.88 406.78,-17.38 406.78,-24.38"/>
</a>
</g>
</g>
<!-- Node21&#45;&gt;Node16 -->
<g id="edge24_Node000021_Node000016" class="edge">
<title>Node21&#45;&gt;Node16</title>
<g id="a_edge24_Node000021_Node000016"><a xlink:title=" ">
<path fill="none" stroke="#63b8ff" d="M595.07,-310.16C525.26,-316.11 421.63,-324.93 355.74,-330.54"/>
<polygon fill="#63b8ff" stroke="#63b8ff" points="595.23,-313.66 604.9,-309.32 594.64,-306.68 595.23,-313.66"/>
</a>
</g>
</g>
<!-- Node22 -->
<g id="Node000022" class="node">
<title>Node22</title>
<g id="a_Node000022"><a xlink:href="../../d1/d1d/classml_1_1maths_1_1time__series_1_1_c_seasonal_component.html#ac4bc65a11d95ba4e8449f4b8fe997aac" target="_top" xlink:title="Linearly scale the component&#39;s by scale.">
<polygon fill="white" stroke="#666666" points="544.12,-286.75 417.88,-286.75 417.88,-245 544.12,-245 544.12,-286.75"/>
<text text-anchor="start" x="425.88" y="-273.25" font-family="Helvetica,sans-Serif" font-size="10.00">ml::maths::time_series</text>
<text text-anchor="start" x="425.88" y="-262" font-family="Helvetica,sans-Serif" font-size="10.00">::CSeasonalComponent::</text>
<text text-anchor="middle" x="481" y="-250.75" font-family="Helvetica,sans-Serif" font-size="10.00">linearScale</text>
</a>
</g>
</g>
<!-- Node21&#45;&gt;Node22 -->
<g id="edge25_Node000021_Node000022" class="edge">
<title>Node21&#45;&gt;Node22</title>
<g id="a_edge25_Node000021_Node000022"><a xlink:title=" ">
<path fill="none" stroke="#63b8ff" d="M595.45,-288.95C578.58,-285.51 560.79,-281.9 544.43,-278.57"/>
<polygon fill="#63b8ff" stroke="#63b8ff" points="594.41,-292.3 604.91,-290.87 595.8,-285.44 594.41,-292.3"/>
</a>
</g>
</g>
<!-- Node23 -->
<g id="Node000023" class="node">
<title>Node23</title>
<g id="a_Node000023"><a xlink:href="../../d9/d5e/classml_1_1maths_1_1time__series_1_1_c_scale.html#a466e04eb941540e537a5b5dd3d48433b" target="_top" xlink:title=" ">
<polygon fill="white" stroke="#666666" points="350,-281.12 234.25,-281.12 234.25,-250.62 350,-250.62 350,-281.12"/>
<text text-anchor="start" x="242.25" y="-267.62" font-family="Helvetica,sans-Serif" font-size="10.00">ml::maths::time_series</text>
<text text-anchor="middle" x="292.12" y="-256.38" font-family="Helvetica,sans-Serif" font-size="10.00">::CScale::apply</text>
</a>
</g>
</g>
<!-- Node22&#45;&gt;Node23 -->
<g id="edge26_Node000022_Node000023" class="edge">
<title>Node22&#45;&gt;Node23</title>
<g id="a_edge26_Node000022_Node000023"><a xlink:title=" ">
<path fill="none" stroke="#63b8ff" d="M406.1,-265.88C387.51,-265.88 367.83,-265.88 350.2,-265.88"/>
<polygon fill="#63b8ff" stroke="#63b8ff" points="406,-269.38 416,-265.88 406,-262.38 406,-269.38"/>
</a>
</g>
</g>
</g>
</svg>

<g id="navigator" transform="translate(0 0)" fill="#404254">
  <rect fill="#f2f5e9" fill-opacity="0.5" stroke="#606060" stroke-width=".5" x="0" y="0" width="60" height="60"/>
  <use id="zoomplus" xlink:href="#zoomPlus" x="17" y="9" onmousedown="handleZoom(evt,'in')"/>
  <use id="zoomminus" xlink:href="#zoomMin" x="42" y="9" onmousedown="handleZoom(evt,'out')"/>
  <use id="reset" xlink:href="#resetDef" x="30" y="36" onmousedown="handleReset()"/>
   <use id="arrowup" xlink:href="#arrowUp" x="0" y="0" onmousedown="handlePan(0,-1)"/>
  <use id="arrowright" xlink:href="#arrowRight" x="0" y="0" onmousedown="handlePan(1,0)"/>
  <use id="arrowdown" xlink:href="#arrowDown" x="0" y="0" onmousedown="handlePan(0,1)"/>
  <use id="arrowleft" xlink:href="#arrowLeft" x="0" y="0" onmousedown="handlePan(-1,0)"/>
</g>
<svg viewBox="0 0 15 15" width="100%" height="30px" preserveAspectRatio="xMaxYMin meet">
 <g id="arrow_out" transform="scale(0.3 0.3)">
  <a xlink:href="classml_1_1maths_1_1time__series_1_1_c_adaptive_bucketing_a43d4a3d0beb2ca7b29496d61f56e0224_icgraph_org.svg" target="_base">
   <rect id="button" ry="5" rx="5" y="6" x="6" height="38" width="38"
        fill="#f2f5e9" fill-opacity="0.5" stroke="#606060" stroke-width="1.0"/>
   <path id="arrow"
     d="M 11.500037,31.436501 C 11.940474,20.09759 22.043105,11.32322 32.158766,21.979434 L 37.068811,17.246167 C 37.068811,17.246167 37.088388,32 37.088388,32 L 22.160133,31.978069 C 22.160133,31.978069 26.997745,27.140456 26.997745,27.140456 C 18.528582,18.264221 13.291696,25.230495 11.500037,31.436501 z"
     style="fill:#404040;"/>
  </a>
 </g>
</svg>

<style type='text/css'>
<![CDATA[
[data-mouse-over-selected='false'] { opacity: 0.7; }
[data-mouse-over-selected='true']  { opacity: 1.0; }
]]>
</style>
<script type="application/ecmascript"><![CDATA[
document.addEventListener('DOMContentLoaded', (event) => {
  highlightEdges();
  highlightAdjacentNodes();
});
]]></script>
</svg>
