<?xml version="1.0" encoding="UTF-8" standalone="no"?>
<!DOCTYPE svg PUBLIC "-//W3C//DTD SVG 1.1//EN"
 "http://www.w3.org/Graphics/SVG/1.1/DTD/svg11.dtd">
<!-- Generated by graphviz version 10.0.1 (20240210.2158)
 -->
<!-- Title: ml::CUnitKernel&lt; N &gt; Pages: 1 -->
<svg width="494pt" height="137pt"
 viewBox="0.00 0.00 494.25 136.50" xmlns="http://www.w3.org/2000/svg" xmlns:xlink="http://www.w3.org/1999/xlink">

<svg id="main" version="1.1" xmlns="http://www.w3.org/2000/svg" xmlns:xlink="http://www.w3.org/1999/xlink" xml:space="preserve" onload="init(evt)">
<style type="text/css"><![CDATA[
.node, .edge {opacity: 0.7;}
.node.selected, .edge.selected {opacity: 1;}
.edge:hover path { stroke: red; }
.edge:hover polygon { stroke: red; fill: red; }
]]></style>
<script type="application/ecmascript" xlink:href="../../svg.min.js"/>
<svg id="graph" class="graph">
<g id="graph0" class="graph" transform="scale(1 1) rotate(0) translate(4 132.5)">
<title>ml::CUnitKernel&lt; N &gt;</title>
<!-- Node1 -->
<g id="Node000001" class="node">
<title>Node1</title>
<g id="a_Node000001"><a xlink:title="A constant unit kernel.">
<polygon fill="#999999" stroke="#666666" points="486.25,-73.88 375,-73.88 375,-54.62 486.25,-54.62 486.25,-73.88"/>
<text text-anchor="middle" x="430.62" y="-60.38" font-family="Helvetica,sans-Serif" font-size="10.00">ml::CUnitKernel&lt; N &gt;</text>
</a>
</g>
</g>
<!-- Node2 -->
<g id="Node000002" class="node">
<title>Node2</title>
<g id="a_Node000002"><a xlink:href="../../d6/de8/classml_1_1core_1_1_c_small_vector.html" target="_top" xlink:title="This inherits from boost::container::small_vector.">
<polygon fill="white" stroke="#666666" points="270,-128.5 152,-128.5 152,-98 270,-98 270,-128.5"/>
<text text-anchor="start" x="160" y="-115" font-family="Helvetica,sans-Serif" font-size="10.00">ml::core::CSmallVector</text>
<text text-anchor="middle" x="211" y="-103.75" font-family="Helvetica,sans-Serif" font-size="10.00">&lt; typename, size_t &gt;</text>
</a>
</g>
</g>
<!-- Node2&#45;&gt;Node1 -->
<g id="edge1_Node000001_Node000002" class="edge">
<title>Node2&#45;&gt;Node1</title>
<g id="a_edge1_Node000001_Node000002"><a xlink:title=" ">
<path fill="none" stroke="#9a32cd" stroke-dasharray="5,2" d="M281.12,-97.69C315.09,-90.04 355.05,-81.04 384.96,-74.31"/>
<polygon fill="#9a32cd" stroke="#9a32cd" points="280.78,-94.18 271.8,-99.79 282.32,-101 280.78,-94.18"/>
</a>
</g>
<text text-anchor="middle" x="322.5" y="-97" font-family="Helvetica,sans-Serif" font-size="10.00" fill="grey"> SINGLE_UNIT</text>
</g>
<!-- Node3 -->
<g id="Node000003" class="node">
<title>Node3</title>
<g id="a_Node000003"><a xlink:title=" ">
<polygon fill="white" stroke="#666666" points="115,-103.5 0,-103.5 0,-73 115,-73 115,-103.5"/>
<text text-anchor="start" x="8" y="-90" font-family="Helvetica,sans-Serif" font-size="10.00">boost::container::small</text>
<text text-anchor="middle" x="57.5" y="-78.75" font-family="Helvetica,sans-Serif" font-size="10.00">_vector&lt; T, N &gt;</text>
</a>
</g>
</g>
<!-- Node3&#45;&gt;Node2 -->
<g id="edge2_Node000002_Node000003" class="edge">
<title>Node3&#45;&gt;Node2</title>
<g id="a_edge2_Node000002_Node000003"><a xlink:title=" ">
<path fill="none" stroke="#63b8ff" d="M126.6,-99.49C134.93,-100.86 143.4,-102.26 151.57,-103.61"/>
<polygon fill="#63b8ff" stroke="#63b8ff" points="127.27,-96.05 116.84,-97.88 126.13,-102.96 127.27,-96.05"/>
</a>
</g>
</g>
<!-- Node5 -->
<g id="Node000005" class="node">
<title>Node5</title>
<g id="a_Node000005"><a xlink:href="../../d6/de8/classml_1_1core_1_1_c_small_vector.html" target="_top" xlink:title=" ">
<polygon fill="white" stroke="#666666" points="270,-79.5 152,-79.5 152,-49 270,-49 270,-79.5"/>
<text text-anchor="start" x="160" y="-66" font-family="Helvetica,sans-Serif" font-size="10.00">ml::core::CSmallVector</text>
<text text-anchor="middle" x="211" y="-54.75" font-family="Helvetica,sans-Serif" font-size="10.00">&lt; TDouble10Vec, 1 &gt;</text>
</a>
</g>
</g>
<!-- Node3&#45;&gt;Node5 -->
<g id="edge5_Node000005_Node000003" class="edge">
<title>Node3&#45;&gt;Node5</title>
<g id="a_edge5_Node000005_Node000003"><a xlink:title=" ">
<path fill="none" stroke="#63b8ff" d="M126.6,-77.46C134.93,-76.14 143.4,-74.8 151.57,-73.51"/>
<polygon fill="#63b8ff" stroke="#63b8ff" points="126.17,-73.99 116.84,-79.01 127.26,-80.9 126.17,-73.99"/>
</a>
</g>
</g>
<!-- Node4 -->
<g id="Node000004" class="node">
<title>Node4</title>
<g id="a_Node000004"><a xlink:href="../../d9/d0b/classml_1_1maths_1_1common_1_1_c_multivariate_prior.html" target="_top" xlink:title="Interface for a multivariate prior distribution function.">
<polygon fill="white" stroke="#666666" points="265.5,-30.5 156.5,-30.5 156.5,0 265.5,0 265.5,-30.5"/>
<text text-anchor="start" x="164.5" y="-17" font-family="Helvetica,sans-Serif" font-size="10.00">ml::maths::common::</text>
<text text-anchor="middle" x="211" y="-5.75" font-family="Helvetica,sans-Serif" font-size="10.00">CMultivariatePrior</text>
</a>
</g>
</g>
<!-- Node4&#45;&gt;Node1 -->
<g id="edge3_Node000001_Node000004" class="edge">
<title>Node4&#45;&gt;Node1</title>
<g id="a_edge3_Node000001_Node000004"><a xlink:title=" ">
<path fill="none" stroke="#9a32cd" stroke-dasharray="5,2" d="M276.83,-29.85C311.65,-37.69 353.71,-47.16 384.88,-54.17"/>
<polygon fill="#9a32cd" stroke="#9a32cd" points="277.8,-26.48 267.27,-27.69 276.26,-33.31 277.8,-26.48"/>
</a>
</g>
<text text-anchor="middle" x="322.5" y="-49" font-family="Helvetica,sans-Serif" font-size="10.00" fill="grey"> m_Prior</text>
</g>
<!-- Node5&#45;&gt;Node1 -->
<g id="edge4_Node000001_Node000005" class="edge">
<title>Node5&#45;&gt;Node1</title>
<g id="a_edge4_Node000001_Node000005"><a xlink:title=" ">
<path fill="none" stroke="#9a32cd" stroke-dasharray="5,2" d="M281.59,-64.25C311.64,-64.25 346.29,-64.25 374.52,-64.25"/>
<polygon fill="#9a32cd" stroke="#9a32cd" points="281.83,-60.75 271.83,-64.25 281.83,-67.75 281.83,-60.75"/>
</a>
</g>
<text text-anchor="middle" x="322.5" y="-66" font-family="Helvetica,sans-Serif" font-size="10.00" fill="grey"> m_X</text>
</g>
</g>
</svg>
</svg>

<style type='text/css'>
<![CDATA[
[data-mouse-over-selected='false'] { opacity: 0.7; }
[data-mouse-over-selected='true']  { opacity: 1.0; }
]]>
</style>
<script type="application/ecmascript"><![CDATA[
document.addEventListener('DOMContentLoaded', (event) => {
  highlightEdges();
  highlightAdjacentNodes();
});
]]></script>
</svg>
