<?xml version="1.0" encoding="UTF-8" standalone="no"?>
<!DOCTYPE svg PUBLIC "-//W3C//DTD SVG 1.1//EN"
 "http://www.w3.org/Graphics/SVG/1.1/DTD/svg11.dtd">
<!-- Generated by graphviz version 10.0.1 (20240210.2158)
 -->
<!-- Title: ml::model::CCategoryExamplesCollector::acceptPersistInserter Pages: 1 -->
<!--zoomable 101 -->

<svg id="main" version="1.1" xmlns="http://www.w3.org/2000/svg" xmlns:xlink="http://www.w3.org/1999/xlink" xml:space="preserve" onload="init(evt)">
<style type="text/css"><![CDATA[
.node, .edge {opacity: 0.7;}
.node.selected, .edge.selected {opacity: 1;}
.edge:hover path { stroke: red; }
.edge:hover polygon { stroke: red; fill: red; }
]]></style>

<defs>
  <circle id="rim" cx="0" cy="0" r="7"/>
  <circle id="rim2" cx="0" cy="0" r="3.5"/>
  <g id="zoomPlus">
    <use xlink:href="#rim" fill="#404040"><set attributeName="fill" to="#808080" begin="zoomplus.mouseover" end="zoomplus.mouseout"/></use>
    <path d="M-4,0h8M0,-4v8" fill="none" stroke="white" stroke-width="1.5" pointer-events="none"/>
  </g>
  <g id="zoomMin">
    <use xlink:href="#rim" fill="#404040"><set attributeName="fill" to="#808080" begin="zoomminus.mouseover" end="zoomminus.mouseout"/></use>
    <path d="M-4,0h8" fill="none" stroke="white" stroke-width="1.5" pointer-events="none"/>
  </g>
  <g id="arrowUp" transform="translate(30 24)">
    <use xlink:href="#rim"/>
    <path pointer-events="none" fill="none" stroke="white" stroke-width="1.5" d="M0,-3.0v7 M-2.5,-0.5L0,-3.0L2.5,-0.5"/>
  </g>
  <g id="arrowRight" transform="rotate(90) translate(36 -43)">
    <use xlink:href="#rim"/>
    <path pointer-events="none" fill="none" stroke="white" stroke-width="1.5" d="M0,-3.0v7 M-2.5,-0.5L0,-3.0L2.5,-0.5"/>
  </g>
  <g id="arrowDown" transform="rotate(180) translate(-30 -48)">
    <use xlink:href="#rim"/>
    <path pointer-events="none" fill="none" stroke="white" stroke-width="1.5" d="M0,-3.0v7 M-2.5,-0.5L0,-3.0L2.5,-0.5"/>
  </g>
  <g id="arrowLeft" transform="rotate(270) translate(-36 17)">
    <use xlink:href="#rim"/>
    <path pointer-events="none" fill="none" stroke="white" stroke-width="1.5" d="M0,-3.0v7 M-2.5,-0.5L0,-3.0L2.5,-0.5"/>
  </g>
  <g id="resetDef">
    <use xlink:href="#rim2" fill="#404040"><set attributeName="fill" to="#808080" begin="reset.mouseover" end="reset.mouseout"/></use>
  </g>
</defs>
<script type="application/ecmascript">
var viewWidth = 990;
var viewHeight = 101;
var sectionId = 'dynsection-2';
</script>
<script type="application/ecmascript" xlink:href="../../svg.min.js"/>
<svg id="graph" class="graph">
<g id="viewport">
<title>ml::model::CCategoryExamplesCollector::acceptPersistInserter</title>
<!-- Node1 -->
<g id="Node000001" class="node">
<title>Node1</title>
<g id="a_Node000001"><a xlink:title="Persist state by passing information to the supplied inserter.">
<polygon fill="#999999" stroke="#666666" points="981.5,-45.88 826,-45.88 826,-15.37 981.5,-15.37 981.5,-45.88"/>
<text text-anchor="start" x="834" y="-32.38" font-family="Helvetica,sans-Serif" font-size="10.00">ml::model::CCategoryExamples</text>
<text text-anchor="middle" x="903.75" y="-21.12" font-family="Helvetica,sans-Serif" font-size="10.00">Collector::acceptPersistInserter</text>
</a>
</g>
</g>
<!-- Node2 -->
<g id="Node000002" class="node">
<title>Node2</title>
<g id="a_Node000002"><a xlink:href="../../df/d1f/classml_1_1api_1_1_c_single_field_data_categorizer.html#a43bc4adab9325e1806eb8f2d14d4cc98" target="_top" xlink:title="Used by deferred persistence functions.">
<polygon fill="white" stroke="#666666" points="790,-67.88 624.75,-67.88 624.75,-37.38 790,-37.38 790,-67.88"/>
<text text-anchor="start" x="632.75" y="-54.38" font-family="Helvetica,sans-Serif" font-size="10.00">ml::api::CSingleFieldData</text>
<text text-anchor="middle" x="707.38" y="-43.12" font-family="Helvetica,sans-Serif" font-size="10.00">Categorizer::acceptPersistInserter</text>
</a>
</g>
</g>
<!-- Node1&#45;&gt;Node2 -->
<g id="edge1_Node000001_Node000002" class="edge">
<title>Node1&#45;&gt;Node2</title>
<g id="a_edge1_Node000001_Node000002"><a xlink:title=" ">
<path fill="none" stroke="#63b8ff" d="M814.45,-40.62C806.47,-41.52 798.41,-42.43 790.49,-43.33"/>
<polygon fill="#63b8ff" stroke="#63b8ff" points="814.6,-44.12 824.14,-39.52 813.81,-37.17 814.6,-44.12"/>
</a>
</g>
</g>
<!-- Node8 -->
<g id="Node000008" class="node">
<title>Node8</title>
<g id="a_Node000008"><a xlink:href="../../d9/d6a/_c_category_examples_collector_test_8cc.html#a1d68c9c9ad2692e9d6ddacc5a88211ac" target="_top" xlink:title=" ">
<polygon fill="white" stroke="#666666" points="781,-19.25 633.75,-19.25 633.75,0 781,0 781,-19.25"/>
<text text-anchor="middle" x="707.38" y="-5.75" font-family="Helvetica,sans-Serif" font-size="10.00">BOOST_AUTO_TEST_CASE</text>
</a>
</g>
</g>
<!-- Node1&#45;&gt;Node8 -->
<g id="edge8_Node000001_Node000008" class="edge">
<title>Node1&#45;&gt;Node8</title>
<g id="a_edge8_Node000001_Node000008"><a xlink:title=" ">
<path fill="none" stroke="#63b8ff" d="M814.23,-21.06C803.2,-19.87 792.02,-18.66 781.27,-17.5"/>
<polygon fill="#63b8ff" stroke="#63b8ff" points="813.83,-24.54 824.14,-22.13 814.58,-17.58 813.83,-24.54"/>
</a>
</g>
</g>
<!-- Node3 -->
<g id="Node000003" class="node">
<title>Node3</title>
<g id="a_Node000003"><a xlink:href="../../df/d1f/classml_1_1api_1_1_c_single_field_data_categorizer.html#a20b4953e777465ef5e38bf979c5bd621" target="_top" xlink:title=" ">
<polygon fill="white" stroke="#666666" points="588.75,-92.88 388.25,-92.88 388.25,-62.38 588.75,-62.38 588.75,-92.88"/>
<text text-anchor="start" x="396.25" y="-79.38" font-family="Helvetica,sans-Serif" font-size="10.00">ml::api::CSingleFieldData</text>
<text text-anchor="middle" x="488.5" y="-68.12" font-family="Helvetica,sans-Serif" font-size="10.00">Categorizer::makeBackgroundPersistFunc</text>
</a>
</g>
</g>
<!-- Node2&#45;&gt;Node3 -->
<g id="edge2_Node000002_Node000003" class="edge">
<title>Node2&#45;&gt;Node3</title>
<g id="a_edge2_Node000002_Node000003"><a xlink:title=" ">
<path fill="none" stroke="#63b8ff" d="M613.21,-63.36C605.23,-64.28 597.15,-65.22 589.13,-66.14"/>
<polygon fill="#63b8ff" stroke="#63b8ff" points="613.35,-66.87 622.88,-62.25 612.55,-59.92 613.35,-66.87"/>
</a>
</g>
</g>
<!-- Node7 -->
<g id="Node000007" class="node">
<title>Node7</title>
<g id="a_Node000007"><a xlink:href="../../df/d1f/classml_1_1api_1_1_c_single_field_data_categorizer.html#a5a8c6ac2523e03bcfe14df2e0cd7d717" target="_top" xlink:title=" ">
<polygon fill="white" stroke="#666666" points="587.25,-43.88 389.75,-43.88 389.75,-13.37 587.25,-13.37 587.25,-43.88"/>
<text text-anchor="start" x="397.75" y="-30.38" font-family="Helvetica,sans-Serif" font-size="10.00">ml::api::CSingleFieldData</text>
<text text-anchor="middle" x="488.5" y="-19.12" font-family="Helvetica,sans-Serif" font-size="10.00">Categorizer::makeForegroundPersistFunc</text>
</a>
</g>
</g>
<!-- Node2&#45;&gt;Node7 -->
<g id="edge6_Node000002_Node000007" class="edge">
<title>Node2&#45;&gt;Node7</title>
<g id="a_edge6_Node000002_Node000007"><a xlink:title=" ">
<path fill="none" stroke="#63b8ff" d="M613.02,-42.29C604.62,-41.36 596.1,-40.42 587.66,-39.49"/>
<polygon fill="#63b8ff" stroke="#63b8ff" points="612.56,-45.76 622.88,-43.39 613.33,-38.81 612.56,-45.76"/>
</a>
</g>
</g>
<!-- Node4 -->
<g id="Node000004" class="node">
<title>Node4</title>
<g id="a_Node000004"><a xlink:href="../../df/d07/namespaceanonymous__namespace_02_c_single_field_data_categorizer_test_8cc_03.html#ae49b45d01d6e053b3b66dea1a15c6867" target="_top" xlink:title=" ">
<polygon fill="white" stroke="#666666" points="352.25,-73.5 183.25,-73.5 183.25,-31.75 352.25,-31.75 352.25,-73.5"/>
<text text-anchor="start" x="191.25" y="-60" font-family="Helvetica,sans-Serif" font-size="10.00">anonymous_namespace</text>
<text text-anchor="start" x="191.25" y="-48.75" font-family="Helvetica,sans-Serif" font-size="10.00">{CSingleFieldDataCategorizer</text>
<text text-anchor="middle" x="267.75" y="-37.5" font-family="Helvetica,sans-Serif" font-size="10.00">Test::cc}::checkPersistAndRestore</text>
</a>
</g>
</g>
<!-- Node3&#45;&gt;Node4 -->
<g id="edge3_Node000003_Node000004" class="edge">
<title>Node3&#45;&gt;Node4</title>
<g id="a_edge3_Node000003_Node000004"><a xlink:title=" ">
<path fill="none" stroke="#63b8ff" d="M376.63,-64.95C368.55,-64.03 360.47,-63.11 352.59,-62.21"/>
<polygon fill="#63b8ff" stroke="#63b8ff" points="376.21,-68.43 386.54,-66.09 377,-61.47 376.21,-68.43"/>
</a>
</g>
</g>
<!-- Node5 -->
<g id="Node000005" class="node">
<title>Node5</title>
<g id="a_Node000005"><a xlink:href="../../de/dd5/_c_single_field_data_categorizer_test_8cc.html#ad47c43a22cb167f5fc2092dd440f2220" target="_top" xlink:title=" ">
<polygon fill="white" stroke="#666666" points="147.25,-81.25 0,-81.25 0,-62 147.25,-62 147.25,-81.25"/>
<text text-anchor="middle" x="73.62" y="-67.75" font-family="Helvetica,sans-Serif" font-size="10.00">BOOST_AUTO_TEST_CASE</text>
</a>
</g>
</g>
<!-- Node4&#45;&gt;Node5 -->
<g id="edge4_Node000004_Node000005" class="edge">
<title>Node4&#45;&gt;Node5</title>
<g id="a_edge4_Node000004_Node000005"><a xlink:title=" ">
<path fill="none" stroke="#63b8ff" d="M171.45,-62.05C163.44,-62.84 155.41,-63.64 147.6,-64.41"/>
<polygon fill="#63b8ff" stroke="#63b8ff" points="171.65,-65.55 181.25,-61.08 170.96,-58.58 171.65,-65.55"/>
</a>
</g>
</g>
<!-- Node6 -->
<g id="Node000006" class="node">
<title>Node6</title>
<g id="a_Node000006"><a xlink:href="../../de/dd5/_c_single_field_data_categorizer_test_8cc.html#aa75c4d8a9602f64c4b8ea42bfe5e469e" target="_top" xlink:title=" ">
<polygon fill="white" stroke="#666666" points="147.25,-44.25 0,-44.25 0,-25 147.25,-25 147.25,-44.25"/>
<text text-anchor="middle" x="73.62" y="-30.75" font-family="Helvetica,sans-Serif" font-size="10.00">BOOST_AUTO_TEST_CASE</text>
</a>
</g>
</g>
<!-- Node4&#45;&gt;Node6 -->
<g id="edge5_Node000004_Node000006" class="edge">
<title>Node4&#45;&gt;Node6</title>
<g id="a_edge5_Node000004_Node000006"><a xlink:title=" ">
<path fill="none" stroke="#63b8ff" d="M171.45,-43.7C163.44,-42.95 155.41,-42.19 147.6,-41.46"/>
<polygon fill="#63b8ff" stroke="#63b8ff" points="170.97,-47.17 181.25,-44.61 171.62,-40.2 170.97,-47.17"/>
</a>
</g>
</g>
<!-- Node7&#45;&gt;Node4 -->
<g id="edge7_Node000007_Node000004" class="edge">
<title>Node7&#45;&gt;Node4</title>
<g id="a_edge7_Node000007_Node000004"><a xlink:title=" ">
<path fill="none" stroke="#63b8ff" d="M378.08,-40.63C369.51,-41.57 360.94,-42.51 352.58,-43.43"/>
<polygon fill="#63b8ff" stroke="#63b8ff" points="378.26,-44.13 387.82,-39.56 377.5,-37.17 378.26,-44.13"/>
</a>
</g>
</g>
</g>
</svg>

<g id="navigator" transform="translate(0 0)" fill="#404254">
  <rect fill="#f2f5e9" fill-opacity="0.5" stroke="#606060" stroke-width=".5" x="0" y="0" width="60" height="60"/>
  <use id="zoomplus" xlink:href="#zoomPlus" x="17" y="9" onmousedown="handleZoom(evt,'in')"/>
  <use id="zoomminus" xlink:href="#zoomMin" x="42" y="9" onmousedown="handleZoom(evt,'out')"/>
  <use id="reset" xlink:href="#resetDef" x="30" y="36" onmousedown="handleReset()"/>
   <use id="arrowup" xlink:href="#arrowUp" x="0" y="0" onmousedown="handlePan(0,-1)"/>
  <use id="arrowright" xlink:href="#arrowRight" x="0" y="0" onmousedown="handlePan(1,0)"/>
  <use id="arrowdown" xlink:href="#arrowDown" x="0" y="0" onmousedown="handlePan(0,1)"/>
  <use id="arrowleft" xlink:href="#arrowLeft" x="0" y="0" onmousedown="handlePan(-1,0)"/>
</g>
<svg viewBox="0 0 15 15" width="100%" height="30px" preserveAspectRatio="xMaxYMin meet">
 <g id="arrow_out" transform="scale(0.3 0.3)">
  <a xlink:href="classml_1_1model_1_1_c_category_examples_collector_ac50c7a872afade137518ba5b65e57928_icgraph_org.svg" target="_base">
   <rect id="button" ry="5" rx="5" y="6" x="6" height="38" width="38"
        fill="#f2f5e9" fill-opacity="0.5" stroke="#606060" stroke-width="1.0"/>
   <path id="arrow"
     d="M 11.500037,31.436501 C 11.940474,20.09759 22.043105,11.32322 32.158766,21.979434 L 37.068811,17.246167 C 37.068811,17.246167 37.088388,32 37.088388,32 L 22.160133,31.978069 C 22.160133,31.978069 26.997745,27.140456 26.997745,27.140456 C 18.528582,18.264221 13.291696,25.230495 11.500037,31.436501 z"
     style="fill:#404040;"/>
  </a>
 </g>
</svg>

<style type='text/css'>
<![CDATA[
[data-mouse-over-selected='false'] { opacity: 0.7; }
[data-mouse-over-selected='true']  { opacity: 1.0; }
]]>
</style>
<script type="application/ecmascript"><![CDATA[
document.addEventListener('DOMContentLoaded', (event) => {
  highlightEdges();
  highlightAdjacentNodes();
});
]]></script>
</svg>
