<?xml version="1.0" encoding="UTF-8" standalone="no"?>
<!DOCTYPE svg PUBLIC "-//W3C//DTD SVG 1.1//EN"
 "http://www.w3.org/Graphics/SVG/1.1/DTD/svg11.dtd">
<!-- Generated by graphviz version 10.0.1 (20240210.2158)
 -->
<!-- Title: ml::model::CCategoryExamplesCollector::acceptRestoreTraverser Pages: 1 -->
<!--zoomable 284 -->

<svg id="main" version="1.1" xmlns="http://www.w3.org/2000/svg" xmlns:xlink="http://www.w3.org/1999/xlink" xml:space="preserve" onload="init(evt)">
<style type="text/css"><![CDATA[
.node, .edge {opacity: 0.7;}
.node.selected, .edge.selected {opacity: 1;}
.edge:hover path { stroke: red; }
.edge:hover polygon { stroke: red; fill: red; }
]]></style>

<defs>
  <circle id="rim" cx="0" cy="0" r="7"/>
  <circle id="rim2" cx="0" cy="0" r="3.5"/>
  <g id="zoomPlus">
    <use xlink:href="#rim" fill="#404040"><set attributeName="fill" to="#808080" begin="zoomplus.mouseover" end="zoomplus.mouseout"/></use>
    <path d="M-4,0h8M0,-4v8" fill="none" stroke="white" stroke-width="1.5" pointer-events="none"/>
  </g>
  <g id="zoomMin">
    <use xlink:href="#rim" fill="#404040"><set attributeName="fill" to="#808080" begin="zoomminus.mouseover" end="zoomminus.mouseout"/></use>
    <path d="M-4,0h8" fill="none" stroke="white" stroke-width="1.5" pointer-events="none"/>
  </g>
  <g id="arrowUp" transform="translate(30 24)">
    <use xlink:href="#rim"/>
    <path pointer-events="none" fill="none" stroke="white" stroke-width="1.5" d="M0,-3.0v7 M-2.5,-0.5L0,-3.0L2.5,-0.5"/>
  </g>
  <g id="arrowRight" transform="rotate(90) translate(36 -43)">
    <use xlink:href="#rim"/>
    <path pointer-events="none" fill="none" stroke="white" stroke-width="1.5" d="M0,-3.0v7 M-2.5,-0.5L0,-3.0L2.5,-0.5"/>
  </g>
  <g id="arrowDown" transform="rotate(180) translate(-30 -48)">
    <use xlink:href="#rim"/>
    <path pointer-events="none" fill="none" stroke="white" stroke-width="1.5" d="M0,-3.0v7 M-2.5,-0.5L0,-3.0L2.5,-0.5"/>
  </g>
  <g id="arrowLeft" transform="rotate(270) translate(-36 17)">
    <use xlink:href="#rim"/>
    <path pointer-events="none" fill="none" stroke="white" stroke-width="1.5" d="M0,-3.0v7 M-2.5,-0.5L0,-3.0L2.5,-0.5"/>
  </g>
  <g id="resetDef">
    <use xlink:href="#rim2" fill="#404040"><set attributeName="fill" to="#808080" begin="reset.mouseover" end="reset.mouseout"/></use>
  </g>
</defs>
<script type="application/ecmascript">
var viewWidth = 720;
var viewHeight = 284;
var sectionId = 'dynsection-3';
</script>
<script type="application/ecmascript" xlink:href="../../svg.min.js"/>
<svg id="graph" class="graph">
<g id="viewport">
<title>ml::model::CCategoryExamplesCollector::acceptRestoreTraverser</title>
<!-- Node1 -->
<g id="Node000001" class="node">
<title>Node1</title>
<g id="a_Node000001"><a xlink:title="Populate the object from part of a state document.">
<polygon fill="#999999" stroke="#666666" points="166,-199.5 0,-199.5 0,-169 166,-169 166,-199.5"/>
<text text-anchor="start" x="8" y="-186" font-family="Helvetica,sans-Serif" font-size="10.00">ml::model::CCategoryExamples</text>
<text text-anchor="middle" x="83" y="-174.75" font-family="Helvetica,sans-Serif" font-size="10.00">Collector::acceptRestoreTraverser</text>
</a>
</g>
</g>
<!-- Node2 -->
<g id="Node000002" class="node">
<title>Node2</title>
<g id="a_Node000002"><a xlink:href="../../d2/d3f/classml_1_1core_1_1_c_state_restore_traverser.html#af68782b2ed0c98177d130d9196f97889" target="_top" xlink:title=" ">
<polygon fill="white" stroke="#666666" points="565.5,-275.5 401.75,-275.5 401.75,-245 565.5,-245 565.5,-275.5"/>
<text text-anchor="start" x="409.75" y="-262" font-family="Helvetica,sans-Serif" font-size="10.00">ml::core::CStateRestoreTraverser</text>
<text text-anchor="middle" x="483.62" y="-250.75" font-family="Helvetica,sans-Serif" font-size="10.00">::name</text>
</a>
</g>
</g>
<!-- Node1&#45;&gt;Node2 -->
<g id="edge1_Node000001_Node000002" class="edge">
<title>Node1&#45;&gt;Node2</title>
<g id="a_edge1_Node000001_Node000002"><a xlink:title=" ">
<path fill="none" stroke="#63b8ff" d="M150.02,-199.99C166.93,-203.85 185.11,-207.84 202,-211.25 264.59,-223.87 335.43,-236.22 390.27,-245.37"/>
<polygon fill="#63b8ff" stroke="#63b8ff" points="389.43,-248.78 399.87,-246.96 390.58,-241.87 389.43,-248.78"/>
</a>
</g>
</g>
<!-- Node3 -->
<g id="Node000003" class="node">
<title>Node3</title>
<g id="a_Node000003"><a xlink:href="../../d2/d3f/classml_1_1core_1_1_c_state_restore_traverser.html#a733d8051e128c5d7421707afadb31ab7" target="_top" xlink:title=" ">
<polygon fill="white" stroke="#666666" points="565.5,-226.5 401.75,-226.5 401.75,-196 565.5,-196 565.5,-226.5"/>
<text text-anchor="start" x="409.75" y="-213" font-family="Helvetica,sans-Serif" font-size="10.00">ml::core::CStateRestoreTraverser</text>
<text text-anchor="middle" x="483.62" y="-201.75" font-family="Helvetica,sans-Serif" font-size="10.00">::next</text>
</a>
</g>
</g>
<!-- Node1&#45;&gt;Node3 -->
<g id="edge2_Node000001_Node000003" class="edge">
<title>Node1&#45;&gt;Node3</title>
<g id="a_edge2_Node000001_Node000003"><a xlink:title=" ">
<path fill="none" stroke="#63b8ff" d="M166.11,-189.81C231.31,-194.23 322.46,-200.4 390.21,-204.99"/>
<polygon fill="#63b8ff" stroke="#63b8ff" points="389.58,-208.46 399.79,-205.64 390.05,-201.47 389.58,-208.46"/>
</a>
</g>
</g>
<!-- Node4 -->
<g id="Node000004" class="node">
<title>Node4</title>
<g id="a_Node000004"><a xlink:href="../../d7/da9/classml_1_1model_1_1_c_category_examples_collector.html#aa35d1589ba432a9c8c8f7e06c93be177" target="_top" xlink:title=" ">
<polygon fill="white" stroke="#666666" points="361.62,-178.5 206.12,-178.5 206.12,-148 361.62,-148 361.62,-178.5"/>
<text text-anchor="start" x="214.12" y="-165" font-family="Helvetica,sans-Serif" font-size="10.00">ml::model::CCategoryExamples</text>
<text text-anchor="middle" x="283.88" y="-153.75" font-family="Helvetica,sans-Serif" font-size="10.00">Collector::restoreExamples</text>
</a>
</g>
</g>
<!-- Node1&#45;&gt;Node4 -->
<g id="edge3_Node000001_Node000004" class="edge">
<title>Node1&#45;&gt;Node4</title>
<g id="a_edge3_Node000001_Node000004"><a xlink:title=" ">
<path fill="none" stroke="#63b8ff" d="M166.33,-175.56C175.59,-174.58 185.07,-173.58 194.41,-172.59"/>
<polygon fill="#63b8ff" stroke="#63b8ff" points="194.63,-176.09 204.21,-171.56 193.9,-169.13 194.63,-176.09"/>
</a>
</g>
</g>
<!-- Node10 -->
<g id="Node000010" class="node">
<title>Node10</title>
<g id="a_Node000010"><a xlink:href="../../d2/d3f/classml_1_1core_1_1_c_state_restore_traverser.html#a210456e80c83786dec276d39556fd9e4" target="_top" xlink:title=" ">
<polygon fill="white" stroke="#666666" points="365.75,-129.5 202,-129.5 202,-99 365.75,-99 365.75,-129.5"/>
<text text-anchor="start" x="210" y="-116" font-family="Helvetica,sans-Serif" font-size="10.00">ml::core::CStateRestoreTraverser</text>
<text text-anchor="middle" x="283.88" y="-104.75" font-family="Helvetica,sans-Serif" font-size="10.00">::traverseSubLevel</text>
</a>
</g>
</g>
<!-- Node1&#45;&gt;Node10 -->
<g id="edge11_Node000001_Node000010" class="edge">
<title>Node1&#45;&gt;Node10</title>
<g id="a_edge11_Node000001_Node000010"><a xlink:title=" ">
<path fill="none" stroke="#63b8ff" d="M123.37,-168.51C146.2,-159.56 175.57,-148.36 202,-139.25 207.73,-137.27 213.72,-135.29 219.72,-133.34"/>
<polygon fill="#63b8ff" stroke="#63b8ff" points="220.6,-136.73 229.07,-130.36 218.48,-130.06 220.6,-136.73"/>
</a>
</g>
</g>
<!-- Node4&#45;&gt;Node2 -->
<g id="edge8_Node000004_Node000002" class="edge">
<title>Node4&#45;&gt;Node2</title>
<g id="a_edge8_Node000004_Node000002"><a xlink:title=" ">
<path fill="none" stroke="#63b8ff" d="M306.36,-178.79C329.13,-194.7 366.59,-219.3 401.75,-235.25 405.97,-237.16 410.37,-238.98 414.85,-240.71"/>
<polygon fill="#63b8ff" stroke="#63b8ff" points="413.37,-243.89 423.97,-244.02 415.77,-237.32 413.37,-243.89"/>
</a>
</g>
</g>
<!-- Node4&#45;&gt;Node3 -->
<g id="edge9_Node000004_Node000003" class="edge">
<title>Node4&#45;&gt;Node3</title>
<g id="a_edge9_Node000004_Node000003"><a xlink:title=" ">
<path fill="none" stroke="#63b8ff" d="M349.63,-178.97C367.99,-183.42 388.14,-188.32 407.08,-192.91"/>
<polygon fill="#63b8ff" stroke="#63b8ff" points="406.05,-196.27 416.6,-195.22 407.7,-189.46 406.05,-196.27"/>
</a>
</g>
</g>
<!-- Node5 -->
<g id="Node000005" class="node">
<title>Node5</title>
<g id="a_Node000005"><a xlink:href="../../d7/da9/classml_1_1model_1_1_c_category_examples_collector.html#aacd44abd96032a41d0c29327e15fc2a9" target="_top" xlink:title=" ">
<polygon fill="white" stroke="#666666" points="561.38,-79.5 405.88,-79.5 405.88,-49 561.38,-49 561.38,-79.5"/>
<text text-anchor="start" x="413.88" y="-66" font-family="Helvetica,sans-Serif" font-size="10.00">ml::model::CCategoryExamples</text>
<text text-anchor="middle" x="483.62" y="-54.75" font-family="Helvetica,sans-Serif" font-size="10.00">Collector::examples</text>
</a>
</g>
</g>
<!-- Node4&#45;&gt;Node5 -->
<g id="edge4_Node000004_Node000005" class="edge">
<title>Node4&#45;&gt;Node5</title>
<g id="a_edge4_Node000004_Node000005"><a xlink:title=" ">
<path fill="none" stroke="#63b8ff" d="M349.39,-147.55C355.17,-144.91 360.72,-141.83 365.75,-138.25 387.77,-122.58 379.73,-104.92 401.75,-89.25 403.79,-87.8 405.92,-86.42 408.12,-85.13"/>
<polygon fill="#63b8ff" stroke="#63b8ff" points="409.5,-88.36 416.77,-80.65 406.28,-82.14 409.5,-88.36"/>
</a>
</g>
</g>
<!-- Node6 -->
<g id="Node000006" class="node">
<title>Node6</title>
<g id="a_Node000006"><a xlink:href="../../d6/d7a/classml_1_1model_1_1_c_local_category_id.html#a315d9733c0ab1d1517f9f1221c7ba3c4" target="_top" xlink:title="Parse from string. Returns false if unsuccessful.">
<polygon fill="white" stroke="#666666" points="551.25,-30.5 416,-30.5 416,0 551.25,0 551.25,-30.5"/>
<text text-anchor="start" x="424" y="-17" font-family="Helvetica,sans-Serif" font-size="10.00">ml::model::CLocalCategory</text>
<text text-anchor="middle" x="483.62" y="-5.75" font-family="Helvetica,sans-Serif" font-size="10.00">Id::fromString</text>
</a>
</g>
</g>
<!-- Node4&#45;&gt;Node6 -->
<g id="edge5_Node000004_Node000006" class="edge">
<title>Node4&#45;&gt;Node6</title>
<g id="a_edge5_Node000004_Node000006"><a xlink:title=" ">
<path fill="none" stroke="#63b8ff" d="M352.9,-147.66C357.55,-145 361.91,-141.89 365.75,-138.25 399.41,-106.31 368.09,-72.19 401.75,-40.25 403.18,-38.89 404.68,-37.61 406.24,-36.4"/>
<polygon fill="#63b8ff" stroke="#63b8ff" points="408.04,-39.4 414.5,-31.01 404.22,-33.54 408.04,-39.4"/>
</a>
</g>
</g>
<!-- Node8 -->
<g id="Node000008" class="node">
<title>Node8</title>
<g id="a_Node000008"><a xlink:href="../../d6/d7a/classml_1_1model_1_1_c_local_category_id.html#a578496142b73983101e1eb8f0157062d" target="_top" xlink:title="Does the object represent a valid category?">
<polygon fill="white" stroke="#666666" points="551.25,-177.5 416,-177.5 416,-147 551.25,-147 551.25,-177.5"/>
<text text-anchor="start" x="424" y="-164" font-family="Helvetica,sans-Serif" font-size="10.00">ml::model::CLocalCategory</text>
<text text-anchor="middle" x="483.62" y="-152.75" font-family="Helvetica,sans-Serif" font-size="10.00">Id::isValid</text>
</a>
</g>
</g>
<!-- Node4&#45;&gt;Node8 -->
<g id="edge7_Node000004_Node000008" class="edge">
<title>Node4&#45;&gt;Node8</title>
<g id="a_edge7_Node000004_Node000008"><a xlink:title=" ">
<path fill="none" stroke="#63b8ff" d="M361.9,-162.86C375.93,-162.79 390.58,-162.72 404.64,-162.64"/>
<polygon fill="#63b8ff" stroke="#63b8ff" points="404.27,-166.15 414.26,-162.6 404.24,-159.15 404.27,-166.15"/>
</a>
</g>
</g>
<!-- Node9 -->
<g id="Node000009" class="node">
<title>Node9</title>
<g id="a_Node000009"><a xlink:href="../../d2/d3f/classml_1_1core_1_1_c_state_restore_traverser.html#a296f348a615834e66071cdd4b2802ea7" target="_top" xlink:title=" ">
<polygon fill="white" stroke="#666666" points="565.5,-128.5 401.75,-128.5 401.75,-98 565.5,-98 565.5,-128.5"/>
<text text-anchor="start" x="409.75" y="-115" font-family="Helvetica,sans-Serif" font-size="10.00">ml::core::CStateRestoreTraverser</text>
<text text-anchor="middle" x="483.62" y="-103.75" font-family="Helvetica,sans-Serif" font-size="10.00">::value</text>
</a>
</g>
</g>
<!-- Node4&#45;&gt;Node9 -->
<g id="edge10_Node000004_Node000009" class="edge">
<title>Node4&#45;&gt;Node9</title>
<g id="a_edge10_Node000004_Node000009"><a xlink:title=" ">
<path fill="none" stroke="#63b8ff" d="M346.9,-147.57C366.78,-142.54 388.97,-136.93 409.56,-131.72"/>
<polygon fill="#63b8ff" stroke="#63b8ff" points="410.17,-135.18 419.01,-129.33 408.46,-128.39 410.17,-135.18"/>
</a>
</g>
</g>
<!-- Node7 -->
<g id="Node000007" class="node">
<title>Node7</title>
<g id="a_Node000007"><a xlink:href="../../d1/dfa/classml_1_1core_1_1_c_string_utils.html#a932b52350cb193f474a02ee4758edc22" target="_top" xlink:title="Convert a string to a type.">
<polygon fill="white" stroke="#666666" points="712,-30.5 601.5,-30.5 601.5,0 712,0 712,-30.5"/>
<text text-anchor="start" x="609.5" y="-17" font-family="Helvetica,sans-Serif" font-size="10.00">ml::core::CStringUtils</text>
<text text-anchor="middle" x="656.75" y="-5.75" font-family="Helvetica,sans-Serif" font-size="10.00">::stringToType</text>
</a>
</g>
</g>
<!-- Node6&#45;&gt;Node7 -->
<g id="edge6_Node000006_Node000007" class="edge">
<title>Node6&#45;&gt;Node7</title>
<g id="a_edge6_Node000006_Node000007"><a xlink:title=" ">
<path fill="none" stroke="#63b8ff" d="M551.28,-15.25C563.92,-15.25 577.15,-15.25 589.77,-15.25"/>
<polygon fill="#63b8ff" stroke="#63b8ff" points="589.65,-18.75 599.65,-15.25 589.65,-11.75 589.65,-18.75"/>
</a>
</g>
</g>
</g>
</svg>

<g id="navigator" transform="translate(0 0)" fill="#404254">
  <rect fill="#f2f5e9" fill-opacity="0.5" stroke="#606060" stroke-width=".5" x="0" y="0" width="60" height="60"/>
  <use id="zoomplus" xlink:href="#zoomPlus" x="17" y="9" onmousedown="handleZoom(evt,'in')"/>
  <use id="zoomminus" xlink:href="#zoomMin" x="42" y="9" onmousedown="handleZoom(evt,'out')"/>
  <use id="reset" xlink:href="#resetDef" x="30" y="36" onmousedown="handleReset()"/>
   <use id="arrowup" xlink:href="#arrowUp" x="0" y="0" onmousedown="handlePan(0,-1)"/>
  <use id="arrowright" xlink:href="#arrowRight" x="0" y="0" onmousedown="handlePan(1,0)"/>
  <use id="arrowdown" xlink:href="#arrowDown" x="0" y="0" onmousedown="handlePan(0,1)"/>
  <use id="arrowleft" xlink:href="#arrowLeft" x="0" y="0" onmousedown="handlePan(-1,0)"/>
</g>
<svg viewBox="0 0 15 15" width="100%" height="30px" preserveAspectRatio="xMaxYMin meet">
 <g id="arrow_out" transform="scale(0.3 0.3)">
  <a xlink:href="classml_1_1model_1_1_c_category_examples_collector_a0aa3dafbc782fc2d9b03222411c673be_cgraph_org.svg" target="_base">
   <rect id="button" ry="5" rx="5" y="6" x="6" height="38" width="38"
        fill="#f2f5e9" fill-opacity="0.5" stroke="#606060" stroke-width="1.0"/>
   <path id="arrow"
     d="M 11.500037,31.436501 C 11.940474,20.09759 22.043105,11.32322 32.158766,21.979434 L 37.068811,17.246167 C 37.068811,17.246167 37.088388,32 37.088388,32 L 22.160133,31.978069 C 22.160133,31.978069 26.997745,27.140456 26.997745,27.140456 C 18.528582,18.264221 13.291696,25.230495 11.500037,31.436501 z"
     style="fill:#404040;"/>
  </a>
 </g>
</svg>

<style type='text/css'>
<![CDATA[
[data-mouse-over-selected='false'] { opacity: 0.7; }
[data-mouse-over-selected='true']  { opacity: 1.0; }
]]>
</style>
<script type="application/ecmascript"><![CDATA[
document.addEventListener('DOMContentLoaded', (event) => {
  highlightEdges();
  highlightAdjacentNodes();
});
]]></script>
</svg>
