<?xml version="1.0" encoding="UTF-8" standalone="no"?>
<!DOCTYPE svg PUBLIC "-//W3C//DTD SVG 1.1//EN"
 "http://www.w3.org/Graphics/SVG/1.1/DTD/svg11.dtd">
<!-- Generated by graphviz version 10.0.1 (20240210.2158)
 -->
<!-- Title: ml::maths::common::CModelAddSamplesParams::bucketOccupancy Pages: 1 -->
<svg width="934pt" height="125pt"
 viewBox="0.00 0.00 934.00 124.50" xmlns="http://www.w3.org/2000/svg" xmlns:xlink="http://www.w3.org/1999/xlink">
<g id="graph0" class="graph" transform="scale(1 1) rotate(0) translate(4 120.5)">
<title>ml::maths::common::CModelAddSamplesParams::bucketOccupancy</title>
<!-- Node1 -->
<g id="Node000001" class="node">
<title>Node1</title>
<g id="a_Node000001"><a xlink:title="Set the proportion of non&#45;empty buckets.">
<polygon fill="#999999" stroke="#666666" points="926,-90.75 787,-90.75 787,-49 926,-49 926,-90.75"/>
<text text-anchor="start" x="795" y="-77.25" font-family="Helvetica,sans-Serif" font-size="10.00">ml::maths::common::</text>
<text text-anchor="start" x="795" y="-66" font-family="Helvetica,sans-Serif" font-size="10.00">CModelAddSamplesParams</text>
<text text-anchor="middle" x="856.5" y="-54.75" font-family="Helvetica,sans-Serif" font-size="10.00">::bucketOccupancy</text>
</a>
</g>
</g>
<!-- Node2 -->
<g id="Node000002" class="node">
<title>Node2</title>
<g id="a_Node000002"><a xlink:href="../../de/d99/_c_event_rate_model_test_8cc.html#afbf5771947069fba0cb453004a4a4d67" target="_top" xlink:title=" ">
<polygon fill="white" stroke="#666666" points="740.12,-116.5 577.12,-116.5 577.12,-97.25 740.12,-97.25 740.12,-116.5"/>
<text text-anchor="middle" x="658.62" y="-103" font-family="Helvetica,sans-Serif" font-size="10.00">BOOST_FIXTURE_TEST_CASE</text>
</a>
</g>
</g>
<!-- Node1&#45;&gt;Node2 -->
<g id="edge1_Node000001_Node000002" class="edge">
<title>Node1&#45;&gt;Node2</title>
<g id="a_edge1_Node000001_Node000002"><a xlink:title=" ">
<path fill="none" stroke="#63b8ff" d="M775.53,-84.98C754.52,-88.95 732.38,-93.13 713.13,-96.77"/>
<polygon fill="#63b8ff" stroke="#63b8ff" points="776.05,-88.44 785.23,-83.15 774.75,-81.57 776.05,-88.44"/>
</a>
</g>
</g>
<!-- Node3 -->
<g id="Node000003" class="node">
<title>Node3</title>
<g id="a_Node000003"><a xlink:href="../../d9/d0f/_c_event_rate_population_model_test_8cc.html#a643715f989121577e525d568ff1f20db" target="_top" xlink:title=" ">
<polygon fill="white" stroke="#666666" points="740.12,-79.5 577.12,-79.5 577.12,-60.25 740.12,-60.25 740.12,-79.5"/>
<text text-anchor="middle" x="658.62" y="-66" font-family="Helvetica,sans-Serif" font-size="10.00">BOOST_FIXTURE_TEST_CASE</text>
</a>
</g>
</g>
<!-- Node1&#45;&gt;Node3 -->
<g id="edge2_Node000001_Node000003" class="edge">
<title>Node1&#45;&gt;Node3</title>
<g id="a_edge2_Node000001_Node000003"><a xlink:title=" ">
<path fill="none" stroke="#63b8ff" d="M775.31,-69.88C763.76,-69.88 751.88,-69.88 740.32,-69.88"/>
<polygon fill="#63b8ff" stroke="#63b8ff" points="775.2,-73.38 785.2,-69.88 775.2,-66.38 775.2,-73.38"/>
</a>
</g>
</g>
<!-- Node4 -->
<g id="Node000004" class="node">
<title>Node4</title>
<g id="a_Node000004"><a xlink:href="../../de/d8b/classml_1_1maths_1_1time__series_1_1_c_multivariate_time_series_model.html#a72f05e1a21ee909104337288657b148a" target="_top" xlink:title=" ">
<polygon fill="white" stroke="#666666" points="751,-41.75 566.25,-41.75 566.25,0 751,0 751,-41.75"/>
<text text-anchor="start" x="574.25" y="-28.25" font-family="Helvetica,sans-Serif" font-size="10.00">ml::maths::time_series</text>
<text text-anchor="start" x="574.25" y="-17" font-family="Helvetica,sans-Serif" font-size="10.00">::CMultivariateTimeSeriesModel</text>
<text text-anchor="middle" x="658.62" y="-5.75" font-family="Helvetica,sans-Serif" font-size="10.00">::reinitializeStateGivenNewComponent</text>
</a>
</g>
</g>
<!-- Node1&#45;&gt;Node4 -->
<g id="edge3_Node000001_Node000004" class="edge">
<title>Node1&#45;&gt;Node4</title>
<g id="a_edge3_Node000001_Node000004"><a xlink:title=" ">
<path fill="none" stroke="#63b8ff" d="M775.76,-49.93C765.54,-47.37 755.05,-44.75 744.76,-42.17"/>
<polygon fill="#63b8ff" stroke="#63b8ff" points="774.7,-53.27 785.25,-52.3 776.4,-46.48 774.7,-53.27"/>
</a>
</g>
</g>
<!-- Node5 -->
<g id="Node000005" class="node">
<title>Node5</title>
<g id="a_Node000005"><a xlink:href="../../de/d8b/classml_1_1maths_1_1time__series_1_1_c_multivariate_time_series_model.html#abf9f4648dfe56cf1076407a088ab24f6" target="_top" xlink:title="Update the trend with samples.">
<polygon fill="white" stroke="#666666" points="530.25,-41.75 374.75,-41.75 374.75,0 530.25,0 530.25,-41.75"/>
<text text-anchor="start" x="382.75" y="-28.25" font-family="Helvetica,sans-Serif" font-size="10.00">ml::maths::time_series</text>
<text text-anchor="start" x="382.75" y="-17" font-family="Helvetica,sans-Serif" font-size="10.00">::CMultivariateTimeSeriesModel</text>
<text text-anchor="middle" x="452.5" y="-5.75" font-family="Helvetica,sans-Serif" font-size="10.00">::updateTrend</text>
</a>
</g>
</g>
<!-- Node4&#45;&gt;Node5 -->
<g id="edge4_Node000004_Node000005" class="edge">
<title>Node4&#45;&gt;Node5</title>
<g id="a_edge4_Node000004_Node000005"><a xlink:title=" ">
<path fill="none" stroke="#63b8ff" d="M554.57,-20.88C546.46,-20.88 538.36,-20.88 530.48,-20.88"/>
<polygon fill="#63b8ff" stroke="#63b8ff" points="554.5,-24.38 564.5,-20.88 554.5,-17.38 554.5,-24.38"/>
</a>
</g>
</g>
<!-- Node6 -->
<g id="Node000006" class="node">
<title>Node6</title>
<g id="a_Node000006"><a xlink:href="../../de/d8b/classml_1_1maths_1_1time__series_1_1_c_multivariate_time_series_model.html#ac1749b25a670d20a8a7a930dcbf4af15" target="_top" xlink:title="Update the model with new samples.">
<polygon fill="white" stroke="#666666" points="338.75,-41.75 183.25,-41.75 183.25,0 338.75,0 338.75,-41.75"/>
<text text-anchor="start" x="191.25" y="-28.25" font-family="Helvetica,sans-Serif" font-size="10.00">ml::maths::time_series</text>
<text text-anchor="start" x="191.25" y="-17" font-family="Helvetica,sans-Serif" font-size="10.00">::CMultivariateTimeSeriesModel</text>
<text text-anchor="middle" x="261" y="-5.75" font-family="Helvetica,sans-Serif" font-size="10.00">::addSamples</text>
</a>
</g>
</g>
<!-- Node5&#45;&gt;Node6 -->
<g id="edge5_Node000005_Node000006" class="edge">
<title>Node5&#45;&gt;Node6</title>
<g id="a_edge5_Node000005_Node000006"><a xlink:title=" ">
<path fill="none" stroke="#63b8ff" d="M363.11,-20.88C355.06,-20.88 346.95,-20.88 339.01,-20.88"/>
<polygon fill="#63b8ff" stroke="#63b8ff" points="362.91,-24.38 372.91,-20.88 362.91,-17.38 362.91,-24.38"/>
</a>
</g>
</g>
<!-- Node7 -->
<g id="Node000007" class="node">
<title>Node7</title>
<g id="a_Node000007"><a xlink:href="../../d9/d15/_c_time_series_model_test_8cc.html#abc483ac7520debe8bbc5a076238e7a3b" target="_top" xlink:title=" ">
<polygon fill="white" stroke="#666666" points="147.25,-30.5 0,-30.5 0,-11.25 147.25,-11.25 147.25,-30.5"/>
<text text-anchor="middle" x="73.62" y="-17" font-family="Helvetica,sans-Serif" font-size="10.00">BOOST_AUTO_TEST_CASE</text>
</a>
</g>
</g>
<!-- Node6&#45;&gt;Node7 -->
<g id="edge6_Node000006_Node000007" class="edge">
<title>Node6&#45;&gt;Node7</title>
<g id="a_edge6_Node000006_Node000007"><a xlink:title=" ">
<path fill="none" stroke="#63b8ff" d="M171.63,-20.88C163.56,-20.88 155.44,-20.88 147.53,-20.88"/>
<polygon fill="#63b8ff" stroke="#63b8ff" points="171.48,-24.38 181.48,-20.88 171.48,-17.38 171.48,-24.38"/>
</a>
</g>
</g>
</g>
</svg>
