<?xml version="1.0" encoding="UTF-8" standalone="no"?>
<!DOCTYPE svg PUBLIC "-//W3C//DTD SVG 1.1//EN"
 "http://www.w3.org/Graphics/SVG/1.1/DTD/svg11.dtd">
<!-- Generated by graphviz version 10.0.1 (20240210.2158)
 -->
<!-- Title: ml::maths::common::CVector::toVector Pages: 1 -->
<svg width="262pt" height="88pt"
 viewBox="0.00 0.00 262.00 87.50" xmlns="http://www.w3.org/2000/svg" xmlns:xlink="http://www.w3.org/1999/xlink">
<g id="graph0" class="graph" transform="scale(1 1) rotate(0) translate(4 83.5)">
<title>ml::maths::common::CVector::toVector</title>
<!-- Node1 -->
<g id="Node000001" class="node">
<title>Node1</title>
<g id="a_Node000001"><a xlink:title="Convert to a vector.">
<polygon fill="#999999" stroke="#666666" points="109,-54.5 0,-54.5 0,-24 109,-24 109,-54.5"/>
<text text-anchor="start" x="8" y="-41" font-family="Helvetica,sans-Serif" font-size="10.00">ml::maths::common::</text>
<text text-anchor="middle" x="54.5" y="-29.75" font-family="Helvetica,sans-Serif" font-size="10.00">CVector::toVector</text>
</a>
</g>
</g>
<!-- Node2 -->
<g id="Node000002" class="node">
<title>Node2</title>
<g id="a_Node000002"><a xlink:href="../../df/d08/classml_1_1maths_1_1common_1_1_c_vector.html#a93afa1dead27287a6585cba1ffa3096e" target="_top" xlink:title="Get an iterator over the elements.">
<polygon fill="white" stroke="#666666" points="254,-79.5 145,-79.5 145,-49 254,-49 254,-79.5"/>
<text text-anchor="start" x="153" y="-66" font-family="Helvetica,sans-Serif" font-size="10.00">ml::maths::common::</text>
<text text-anchor="middle" x="199.5" y="-54.75" font-family="Helvetica,sans-Serif" font-size="10.00">CVector::begin</text>
</a>
</g>
</g>
<!-- Node1&#45;&gt;Node2 -->
<g id="edge1_Node000001_Node000002" class="edge">
<title>Node1&#45;&gt;Node2</title>
<g id="a_edge1_Node000001_Node000002"><a xlink:title=" ">
<path fill="none" stroke="#63b8ff" d="M109.15,-48.63C117.02,-50.01 125.19,-51.43 133.26,-52.84"/>
<polygon fill="#63b8ff" stroke="#63b8ff" points="132.6,-56.28 143.05,-54.56 133.81,-49.39 132.6,-56.28"/>
</a>
</g>
</g>
<!-- Node3 -->
<g id="Node000003" class="node">
<title>Node3</title>
<g id="a_Node000003"><a xlink:href="../../df/d08/classml_1_1maths_1_1common_1_1_c_vector.html#a59be73526315ceb7d469351f8ecafb00" target="_top" xlink:title="Get an iterator to the end of the elements.">
<polygon fill="white" stroke="#666666" points="254,-30.5 145,-30.5 145,0 254,0 254,-30.5"/>
<text text-anchor="start" x="153" y="-17" font-family="Helvetica,sans-Serif" font-size="10.00">ml::maths::common::</text>
<text text-anchor="middle" x="199.5" y="-5.75" font-family="Helvetica,sans-Serif" font-size="10.00">CVector::end</text>
</a>
</g>
</g>
<!-- Node1&#45;&gt;Node3 -->
<g id="edge2_Node000001_Node000003" class="edge">
<title>Node1&#45;&gt;Node3</title>
<g id="a_edge2_Node000001_Node000003"><a xlink:title=" ">
<path fill="none" stroke="#63b8ff" d="M109.15,-30.25C117.02,-28.93 125.19,-27.55 133.26,-26.2"/>
<polygon fill="#63b8ff" stroke="#63b8ff" points="133.77,-29.66 143.05,-24.56 132.61,-22.76 133.77,-29.66"/>
</a>
</g>
</g>
</g>
</svg>
