<?xml version="1.0" encoding="UTF-8" standalone="no"?>
<!DOCTYPE svg PUBLIC "-//W3C//DTD SVG 1.1//EN"
 "http://www.w3.org/Graphics/SVG/1.1/DTD/svg11.dtd">
<!-- Generated by graphviz version 10.0.1 (20240210.2158)
 -->
<!-- Title: ml::core::CStopWatch::calcDuration Pages: 1 -->
<svg width="1226pt" height="848pt"
 viewBox="0.00 0.00 1225.50 848.25" xmlns="http://www.w3.org/2000/svg" xmlns:xlink="http://www.w3.org/1999/xlink">
<g id="graph0" class="graph" transform="scale(1 1) rotate(0) translate(4 844.25)">
<title>ml::core::CStopWatch::calcDuration</title>
<!-- Node1 -->
<g id="Node000001" class="node">
<title>Node1</title>
<g id="a_Node000001"><a xlink:title=" ">
<polygon fill="#999999" stroke="#666666" points="1217.5,-390.88 1104.75,-390.88 1104.75,-360.38 1217.5,-360.38 1217.5,-390.88"/>
<text text-anchor="start" x="1112.75" y="-377.38" font-family="Helvetica,sans-Serif" font-size="10.00">ml::core::CStopWatch</text>
<text text-anchor="middle" x="1161.12" y="-366.12" font-family="Helvetica,sans-Serif" font-size="10.00">::calcDuration</text>
</a>
</g>
</g>
<!-- Node2 -->
<g id="Node000002" class="node">
<title>Node2</title>
<g id="a_Node000002"><a xlink:href="../../d7/d51/classml_1_1core_1_1_c_stop_watch.html#a65e39fed78d188860db1da8d6c29a642" target="_top" xlink:title=" ">
<polygon fill="white" stroke="#666666" points="1068.75,-505.25 937.25,-505.25 937.25,-486 1068.75,-486 1068.75,-505.25"/>
<text text-anchor="middle" x="1003" y="-491.75" font-family="Helvetica,sans-Serif" font-size="10.00">ml::core::CStopWatch::lap</text>
</a>
</g>
</g>
<!-- Node1&#45;&gt;Node2 -->
<g id="edge1_Node000001_Node000002" class="edge">
<title>Node1&#45;&gt;Node2</title>
<g id="a_edge1_Node000001_Node000002"><a xlink:title=" ">
<path fill="none" stroke="#63b8ff" d="M1130.69,-398.25C1096.62,-424.44 1042,-466.42 1017.11,-485.55"/>
<polygon fill="#63b8ff" stroke="#63b8ff" points="1132.72,-401.1 1138.51,-392.24 1128.45,-395.55 1132.72,-401.1"/>
</a>
</g>
</g>
<!-- Node28 -->
<g id="Node000028" class="node">
<title>Node28</title>
<g id="a_Node000028"><a xlink:href="../../d7/d51/classml_1_1core_1_1_c_stop_watch.html#a6b3d0226f0409ca0b2ff2313db3e6521" target="_top" xlink:title="Stop the stop watch and retrieve the accumulated reading.">
<polygon fill="white" stroke="#666666" points="1059.38,-289.88 946.62,-289.88 946.62,-259.38 1059.38,-259.38 1059.38,-289.88"/>
<text text-anchor="start" x="954.62" y="-276.38" font-family="Helvetica,sans-Serif" font-size="10.00">ml::core::CStopWatch</text>
<text text-anchor="middle" x="1003" y="-265.12" font-family="Helvetica,sans-Serif" font-size="10.00">::stop</text>
</a>
</g>
</g>
<!-- Node1&#45;&gt;Node28 -->
<g id="edge27_Node000001_Node000028" class="edge">
<title>Node1&#45;&gt;Node28</title>
<g id="a_edge27_Node000001_Node000028"><a xlink:title=" ">
<path fill="none" stroke="#63b8ff" d="M1126.59,-353.93C1097.05,-334.82 1054.73,-307.45 1028.34,-290.37"/>
<polygon fill="#63b8ff" stroke="#63b8ff" points="1124.5,-356.75 1134.8,-359.24 1128.31,-350.87 1124.5,-356.75"/>
</a>
</g>
</g>
<!-- Node3 -->
<g id="Node000003" class="node">
<title>Node3</title>
<g id="a_Node000003"><a xlink:href="../../d4/d7d/_c_compressed_lfu_cache_test_8cc.html#a521ce268b22aa8a6d93687e15efd8624" target="_top" xlink:title=" ">
<polygon fill="white" stroke="#666666" points="885.12,-646.25 737.88,-646.25 737.88,-627 885.12,-627 885.12,-646.25"/>
<text text-anchor="middle" x="811.5" y="-632.75" font-family="Helvetica,sans-Serif" font-size="10.00">BOOST_AUTO_TEST_CASE</text>
</a>
</g>
</g>
<!-- Node2&#45;&gt;Node3 -->
<g id="edge2_Node000002_Node000003" class="edge">
<title>Node2&#45;&gt;Node3</title>
<g id="a_edge2_Node000002_Node000003"><a xlink:title=" ">
<path fill="none" stroke="#63b8ff" d="M991.39,-515.44C975.58,-542.95 943.14,-592.19 901.25,-617.62 895.32,-621.22 888.81,-624.15 882.09,-626.52"/>
<polygon fill="#63b8ff" stroke="#63b8ff" points="994.42,-517.19 996.23,-506.75 988.31,-513.79 994.42,-517.19"/>
</a>
</g>
</g>
<!-- Node4 -->
<g id="Node000004" class="node">
<title>Node4</title>
<g id="a_Node000004"><a xlink:href="../../da/df7/_c_stop_watch_test_8cc.html#a098d230d48660750002b724c0b3b1408" target="_top" xlink:title=" ">
<polygon fill="white" stroke="#666666" points="885.12,-462.25 737.88,-462.25 737.88,-443 885.12,-443 885.12,-462.25"/>
<text text-anchor="middle" x="811.5" y="-448.75" font-family="Helvetica,sans-Serif" font-size="10.00">BOOST_AUTO_TEST_CASE</text>
</a>
</g>
</g>
<!-- Node2&#45;&gt;Node4 -->
<g id="edge3_Node000002_Node000004" class="edge">
<title>Node2&#45;&gt;Node4</title>
<g id="a_edge3_Node000002_Node000004"><a xlink:title=" ">
<path fill="none" stroke="#63b8ff" d="M949.83,-482.96C934.22,-479.23 917.06,-475.2 901.25,-471.62 888.03,-468.64 873.68,-465.51 860.45,-462.68"/>
<polygon fill="#63b8ff" stroke="#63b8ff" points="948.86,-486.32 959.4,-485.25 950.49,-479.52 948.86,-486.32"/>
</a>
</g>
</g>
<!-- Node5 -->
<g id="Node000005" class="node">
<title>Node5</title>
<g id="a_Node000005"><a xlink:href="../../dc/dc6/classml_1_1maths_1_1analytics_1_1_c_outliers.html#a5d299ad0718f789512e73279548fc921" target="_top" xlink:title=" ">
<polygon fill="white" stroke="#666666" points="864.88,-608.88 758.12,-608.88 758.12,-578.38 864.88,-578.38 864.88,-608.88"/>
<text text-anchor="start" x="766.12" y="-595.38" font-family="Helvetica,sans-Serif" font-size="10.00">ml::maths::analytics</text>
<text text-anchor="middle" x="811.5" y="-584.12" font-family="Helvetica,sans-Serif" font-size="10.00">::COutliers::compute</text>
</a>
</g>
</g>
<!-- Node2&#45;&gt;Node5 -->
<g id="edge4_Node000002_Node000005" class="edge">
<title>Node2&#45;&gt;Node5</title>
<g id="a_edge4_Node000002_Node000005"><a xlink:title=" ">
<path fill="none" stroke="#63b8ff" d="M982.56,-512.95C963.2,-529.4 931.99,-553.74 901.25,-568.62 890.01,-574.06 877.38,-578.51 865.25,-582.06"/>
<polygon fill="#63b8ff" stroke="#63b8ff" points="984.65,-515.77 989.92,-506.58 980.07,-510.48 984.65,-515.77"/>
</a>
</g>
</g>
<!-- Node24 -->
<g id="Node000024" class="node">
<title>Node24</title>
<g id="a_Node000024"><a xlink:href="../../d4/d49/classml_1_1api_1_1_c_forecast_runner.html#a7d8c08b07ee409abf5bc83772887ee78" target="_top" xlink:title="The worker loop.">
<polygon fill="white" stroke="#666666" points="875.75,-424.88 747.25,-424.88 747.25,-394.38 875.75,-394.38 875.75,-424.88"/>
<text text-anchor="start" x="755.25" y="-411.38" font-family="Helvetica,sans-Serif" font-size="10.00">ml::api::CForecastRunner</text>
<text text-anchor="middle" x="811.5" y="-400.12" font-family="Helvetica,sans-Serif" font-size="10.00">::forecastWorker</text>
</a>
</g>
</g>
<!-- Node2&#45;&gt;Node24 -->
<g id="edge23_Node000002_Node000024" class="edge">
<title>Node2&#45;&gt;Node24</title>
<g id="a_edge23_Node000002_Node000024"><a xlink:title=" ">
<path fill="none" stroke="#63b8ff" d="M979.32,-479.02C959.55,-465.22 929.67,-445.9 901.25,-433.62 893.19,-430.14 884.5,-427.05 875.82,-424.34"/>
<polygon fill="#63b8ff" stroke="#63b8ff" points="977.26,-481.86 987.44,-484.8 981.32,-476.15 977.26,-481.86"/>
</a>
</g>
</g>
<!-- Node26 -->
<g id="Node000026" class="node">
<title>Node26</title>
<g id="a_Node000026"><a xlink:href="../../dd/d66/classml_1_1maths_1_1analytics_1_1_c_boosted_tree_impl.html#a79498dfb2ed839138d82cd45c755fa48" target="_top" xlink:title="Train the model on the values in frame.">
<polygon fill="white" stroke="#666666" points="875.75,-510.88 747.25,-510.88 747.25,-480.38 875.75,-480.38 875.75,-510.88"/>
<text text-anchor="start" x="755.25" y="-497.38" font-family="Helvetica,sans-Serif" font-size="10.00">ml::maths::analytics</text>
<text text-anchor="middle" x="811.5" y="-486.12" font-family="Helvetica,sans-Serif" font-size="10.00">::CBoostedTreeImpl::train</text>
</a>
</g>
</g>
<!-- Node2&#45;&gt;Node26 -->
<g id="edge25_Node000002_Node000026" class="edge">
<title>Node2&#45;&gt;Node26</title>
<g id="a_edge25_Node000002_Node000026"><a xlink:title=" ">
<path fill="none" stroke="#63b8ff" d="M925.59,-495.62C909.21,-495.62 892.07,-495.62 876.23,-495.62"/>
<polygon fill="#63b8ff" stroke="#63b8ff" points="925.27,-499.13 935.27,-495.63 925.27,-492.13 925.27,-499.13"/>
</a>
</g>
</g>
<!-- Node27 -->
<g id="Node000027" class="node">
<title>Node27</title>
<g id="a_Node000027"><a xlink:href="../../dd/d66/classml_1_1maths_1_1analytics_1_1_c_boosted_tree_impl.html#a7b597d9575b3aa75b0e2e252271504d5" target="_top" xlink:title=" ">
<polygon fill="white" stroke="#666666" points="901.25,-559.88 721.75,-559.88 721.75,-529.38 901.25,-529.38 901.25,-559.88"/>
<text text-anchor="start" x="729.75" y="-546.38" font-family="Helvetica,sans-Serif" font-size="10.00">ml::maths::analytics</text>
<text text-anchor="middle" x="811.5" y="-535.12" font-family="Helvetica,sans-Serif" font-size="10.00">::CBoostedTreeImpl::trainIncremental</text>
</a>
</g>
</g>
<!-- Node2&#45;&gt;Node27 -->
<g id="edge26_Node000002_Node000027" class="edge">
<title>Node2&#45;&gt;Node27</title>
<g id="a_edge26_Node000002_Node000027"><a xlink:title=" ">
<path fill="none" stroke="#63b8ff" d="M952.13,-508.52C927.96,-514.77 898.73,-522.33 873.27,-528.91"/>
<polygon fill="#63b8ff" stroke="#63b8ff" points="952.92,-511.93 961.73,-506.04 951.17,-505.15 952.92,-511.93"/>
</a>
</g>
</g>
<!-- Node6 -->
<g id="Node000006" class="node">
<title>Node6</title>
<g id="a_Node000006"><a xlink:href="../../d2/d02/namespaceanonymous__namespace_02_c_data_frame_analysis_instrumentation_test_8cc_03.html#aa9a4a8bbb035668c223b9ff226af0e95" target="_top" xlink:title=" ">
<polygon fill="white" stroke="#666666" points="685.75,-683.5 505.5,-683.5 505.5,-641.75 685.75,-641.75 685.75,-683.5"/>
<text text-anchor="start" x="513.5" y="-670" font-family="Helvetica,sans-Serif" font-size="10.00">anonymous_namespace</text>
<text text-anchor="start" x="513.5" y="-658.75" font-family="Helvetica,sans-Serif" font-size="10.00">{CDataFrameAnalysisInstrumentation</text>
<text text-anchor="middle" x="595.62" y="-647.5" font-family="Helvetica,sans-Serif" font-size="10.00">Test::cc}::addOutlierTestData</text>
</a>
</g>
</g>
<!-- Node5&#45;&gt;Node6 -->
<g id="edge5_Node000005_Node000006" class="edge">
<title>Node5&#45;&gt;Node6</title>
<g id="a_edge5_Node000005_Node000006"><a xlink:title=" ">
<path fill="none" stroke="#63b8ff" d="M747.23,-609.64C738.61,-612.14 729.93,-614.83 721.75,-617.62 705.35,-623.23 701.97,-626.52 685.75,-632.62 677.96,-635.56 669.73,-638.51 661.56,-641.36"/>
<polygon fill="#63b8ff" stroke="#63b8ff" points="747.94,-613.08 756.61,-607 746.03,-606.35 747.94,-613.08"/>
</a>
</g>
</g>
<!-- Node8 -->
<g id="Node000008" class="node">
<title>Node8</title>
<g id="a_Node000008"><a xlink:href="../../df/d24/namespaceanonymous__namespace_02_c_data_frame_analyzer_outlier_test_8cc_03.html#a5dd32fd0f5e488ca30a0bdb7c81f8401" target="_top" xlink:title=" ">
<polygon fill="white" stroke="#666666" points="667.75,-623.5 523.5,-623.5 523.5,-581.75 667.75,-581.75 667.75,-623.5"/>
<text text-anchor="start" x="531.5" y="-610" font-family="Helvetica,sans-Serif" font-size="10.00">anonymous_namespace</text>
<text text-anchor="start" x="531.5" y="-598.75" font-family="Helvetica,sans-Serif" font-size="10.00">{CDataFrameAnalyzerOutlier</text>
<text text-anchor="middle" x="595.62" y="-587.5" font-family="Helvetica,sans-Serif" font-size="10.00">Test::cc}::addOutlierTestData</text>
</a>
</g>
</g>
<!-- Node5&#45;&gt;Node8 -->
<g id="edge7_Node000005_Node000008" class="edge">
<title>Node5&#45;&gt;Node8</title>
<g id="a_edge7_Node000005_Node000008"><a xlink:title=" ">
<path fill="none" stroke="#63b8ff" d="M746.25,-596.33C721.66,-597.36 693.48,-598.55 668.25,-599.61"/>
<polygon fill="#63b8ff" stroke="#63b8ff" points="746.28,-599.83 756.12,-595.91 745.98,-592.84 746.28,-599.83"/>
</a>
</g>
</g>
<!-- Node16 -->
<g id="Node000016" class="node">
<title>Node16</title>
<g id="a_Node000016"><a xlink:href="../../d9/ddb/_c_outliers_test_8cc.html#a6e4fb7aca3a08daf649a3ba43e7ea042" target="_top" xlink:title=" ">
<polygon fill="white" stroke="#666666" points="669.25,-563.25 522,-563.25 522,-544 669.25,-544 669.25,-563.25"/>
<text text-anchor="middle" x="595.62" y="-549.75" font-family="Helvetica,sans-Serif" font-size="10.00">BOOST_AUTO_TEST_CASE</text>
</a>
</g>
</g>
<!-- Node5&#45;&gt;Node16 -->
<g id="edge15_Node000005_Node000016" class="edge">
<title>Node5&#45;&gt;Node16</title>
<g id="a_edge15_Node000005_Node000016"><a xlink:title=" ">
<path fill="none" stroke="#63b8ff" d="M746.66,-581.68C716.11,-575.97 679.92,-569.2 650.74,-563.75"/>
<polygon fill="#63b8ff" stroke="#63b8ff" points="745.67,-585.06 756.14,-583.46 746.96,-578.18 745.67,-585.06"/>
</a>
</g>
</g>
<!-- Node17 -->
<g id="Node000017" class="node">
<title>Node17</title>
<g id="a_Node000017"><a xlink:href="../../d9/ddb/_c_outliers_test_8cc.html#ace85ddad1987616adc05b08b50da259a" target="_top" xlink:title=" ">
<polygon fill="white" stroke="#666666" points="669.25,-526.25 522,-526.25 522,-507 669.25,-507 669.25,-526.25"/>
<text text-anchor="middle" x="595.62" y="-512.75" font-family="Helvetica,sans-Serif" font-size="10.00">BOOST_AUTO_TEST_CASE</text>
</a>
</g>
</g>
<!-- Node5&#45;&gt;Node17 -->
<g id="edge16_Node000005_Node000017" class="edge">
<title>Node5&#45;&gt;Node17</title>
<g id="a_edge16_Node000005_Node000017"><a xlink:title=" ">
<path fill="none" stroke="#63b8ff" d="M746.99,-579.81C738.23,-576.75 729.57,-573.06 721.75,-568.62 702.6,-557.77 705.29,-544.75 685.75,-534.62 679.58,-531.43 672.9,-528.8 666.07,-526.64"/>
<polygon fill="#63b8ff" stroke="#63b8ff" points="745.63,-583.05 756.23,-582.78 747.77,-576.39 745.63,-583.05"/>
</a>
</g>
</g>
<!-- Node18 -->
<g id="Node000018" class="node">
<title>Node18</title>
<g id="a_Node000018"><a xlink:href="../../d9/ddb/_c_outliers_test_8cc.html#a290388a3154ee22e72b7805573aa0463" target="_top" xlink:title=" ">
<polygon fill="white" stroke="#666666" points="669.25,-489.25 522,-489.25 522,-470 669.25,-470 669.25,-489.25"/>
<text text-anchor="middle" x="595.62" y="-475.75" font-family="Helvetica,sans-Serif" font-size="10.00">BOOST_AUTO_TEST_CASE</text>
</a>
</g>
</g>
<!-- Node5&#45;&gt;Node18 -->
<g id="edge17_Node000005_Node000018" class="edge">
<title>Node5&#45;&gt;Node18</title>
<g id="a_edge17_Node000005_Node000018"><a xlink:title=" ">
<path fill="none" stroke="#63b8ff" d="M746.98,-582.77C737.89,-579.28 729.13,-574.69 721.75,-568.62 694.42,-546.16 713.91,-519.05 685.75,-497.62 680.85,-493.9 675.38,-490.89 669.61,-488.46"/>
<polygon fill="#63b8ff" stroke="#63b8ff" points="745.72,-586.04 756.31,-585.88 747.94,-579.4 745.72,-586.04"/>
</a>
</g>
</g>
<!-- Node19 -->
<g id="Node000019" class="node">
<title>Node19</title>
<g id="a_Node000019"><a xlink:href="../../d9/ddb/_c_outliers_test_8cc.html#a4d9b0bbb2d452225d3107a706d56392f" target="_top" xlink:title=" ">
<polygon fill="white" stroke="#666666" points="669.25,-452.25 522,-452.25 522,-433 669.25,-433 669.25,-452.25"/>
<text text-anchor="middle" x="595.62" y="-438.75" font-family="Helvetica,sans-Serif" font-size="10.00">BOOST_AUTO_TEST_CASE</text>
</a>
</g>
</g>
<!-- Node5&#45;&gt;Node19 -->
<g id="edge18_Node000005_Node000019" class="edge">
<title>Node5&#45;&gt;Node19</title>
<g id="a_edge18_Node000005_Node000019"><a xlink:title=" ">
<path fill="none" stroke="#63b8ff" d="M747.11,-584.07C737.77,-580.43 728.9,-575.45 721.75,-568.62 685.14,-533.7 723.65,-494.15 685.75,-460.62 680.9,-456.34 675.32,-452.96 669.37,-450.31"/>
<polygon fill="#63b8ff" stroke="#63b8ff" points="745.75,-587.31 756.35,-587.16 747.97,-580.67 745.75,-587.31"/>
</a>
</g>
</g>
<!-- Node20 -->
<g id="Node000020" class="node">
<title>Node20</title>
<g id="a_Node000020"><a xlink:href="../../d9/ddb/_c_outliers_test_8cc.html#a113e717ca13d2ecc8be686b91aee8872" target="_top" xlink:title=" ">
<polygon fill="white" stroke="#666666" points="669.25,-840.25 522,-840.25 522,-821 669.25,-821 669.25,-840.25"/>
<text text-anchor="middle" x="595.62" y="-826.75" font-family="Helvetica,sans-Serif" font-size="10.00">BOOST_AUTO_TEST_CASE</text>
</a>
</g>
</g>
<!-- Node5&#45;&gt;Node20 -->
<g id="edge19_Node000005_Node000020" class="edge">
<title>Node5&#45;&gt;Node20</title>
<g id="a_edge19_Node000005_Node000020"><a xlink:title=" ">
<path fill="none" stroke="#63b8ff" d="M746.94,-601.33C737.46,-604.99 728.59,-610.21 721.75,-617.62 662.02,-682.43 747.54,-749.79 685.75,-812.62 681.1,-817.35 675.58,-821.01 669.59,-823.83"/>
<polygon fill="#63b8ff" stroke="#63b8ff" points="747.94,-604.69 756.4,-598.31 745.8,-598.02 747.94,-604.69"/>
</a>
</g>
</g>
<!-- Node21 -->
<g id="Node000021" class="node">
<title>Node21</title>
<g id="a_Node000021"><a xlink:href="../../d9/db9/namespaceanonymous__namespace_02_c_outliers_test_8cc_03.html#a95449a6003d1168195678f6dd2d5c642" target="_top" xlink:title=" ">
<polygon fill="white" stroke="#666666" points="658,-803.12 533.25,-803.12 533.25,-750.12 658,-750.12 658,-803.12"/>
<text text-anchor="start" x="541.25" y="-789.62" font-family="Helvetica,sans-Serif" font-size="10.00">anonymous_namespace</text>
<text text-anchor="start" x="541.25" y="-778.38" font-family="Helvetica,sans-Serif" font-size="10.00">{COutliersTest::cc}</text>
<text text-anchor="start" x="541.25" y="-767.12" font-family="Helvetica,sans-Serif" font-size="10.00">::outlierErrorStatisticsFor</text>
<text text-anchor="middle" x="595.62" y="-755.88" font-family="Helvetica,sans-Serif" font-size="10.00">Ensemble</text>
</a>
</g>
</g>
<!-- Node5&#45;&gt;Node21 -->
<g id="edge20_Node000005_Node000021" class="edge">
<title>Node5&#45;&gt;Node21</title>
<g id="a_edge20_Node000005_Node000021"><a xlink:title=" ">
<path fill="none" stroke="#63b8ff" d="M747.24,-602.07C737.81,-605.64 728.87,-610.65 721.75,-617.62 681.06,-657.48 723.98,-698.4 685.75,-740.62 678.25,-748.91 668.56,-755.33 658.36,-760.28"/>
<polygon fill="#63b8ff" stroke="#63b8ff" points="748.14,-605.46 756.6,-599.07 746.01,-598.79 748.14,-605.46"/>
</a>
</g>
</g>
<!-- Node23 -->
<g id="Node000023" class="node">
<title>Node23</title>
<g id="a_Node000023"><a xlink:href="../../d2/d7c/classml_1_1api_1_1_c_data_frame_outliers_runner.html#a32b0d6e6db2f1ed87b8cf8d63141d91f" target="_top" xlink:title=" ">
<polygon fill="white" stroke="#666666" points="666.25,-731.88 525,-731.88 525,-701.38 666.25,-701.38 666.25,-731.88"/>
<text text-anchor="start" x="533" y="-718.38" font-family="Helvetica,sans-Serif" font-size="10.00">ml::api::CDataFrameOutliers</text>
<text text-anchor="middle" x="595.62" y="-707.12" font-family="Helvetica,sans-Serif" font-size="10.00">Runner::runImpl</text>
</a>
</g>
</g>
<!-- Node5&#45;&gt;Node23 -->
<g id="edge22_Node000005_Node000023" class="edge">
<title>Node5&#45;&gt;Node23</title>
<g id="a_edge22_Node000005_Node000023"><a xlink:title=" ">
<path fill="none" stroke="#63b8ff" d="M746.88,-603.58C737.8,-606.98 729.07,-611.54 721.75,-617.62 693.32,-641.27 714.19,-669 685.75,-692.62 680.08,-697.33 673.57,-701.13 666.7,-704.18"/>
<polygon fill="#63b8ff" stroke="#63b8ff" points="747.77,-606.97 756.2,-600.55 745.61,-600.31 747.77,-606.97"/>
</a>
</g>
</g>
<!-- Node7 -->
<g id="Node000007" class="node">
<title>Node7</title>
<g id="a_Node000007"><a xlink:href="../../d8/d04/_c_data_frame_analysis_instrumentation_test_8cc.html#a04a2762527ff8fd68155ac8f2e99dced" target="_top" xlink:title=" ">
<polygon fill="white" stroke="#666666" points="469.5,-736.25 306.5,-736.25 306.5,-717 469.5,-717 469.5,-736.25"/>
<text text-anchor="middle" x="388" y="-722.75" font-family="Helvetica,sans-Serif" font-size="10.00">BOOST_FIXTURE_TEST_CASE</text>
</a>
</g>
</g>
<!-- Node6&#45;&gt;Node7 -->
<g id="edge6_Node000006_Node000007" class="edge">
<title>Node6&#45;&gt;Node7</title>
<g id="a_edge6_Node000006_Node000007"><a xlink:title=" ">
<path fill="none" stroke="#63b8ff" d="M518.66,-687.66C514.19,-689.3 509.78,-690.96 505.5,-692.62 489.19,-698.98 486.13,-703.13 469.5,-708.62 460.39,-711.64 450.53,-714.3 440.95,-716.6"/>
<polygon fill="#63b8ff" stroke="#63b8ff" points="519.5,-691.07 527.72,-684.4 517.13,-684.49 519.5,-691.07"/>
</a>
</g>
</g>
<!-- Node9 -->
<g id="Node000009" class="node">
<title>Node9</title>
<g id="a_Node000009"><a xlink:href="../../d9/d90/_c_data_frame_analyzer_outlier_test_8cc.html#ae0228eeffe0e4c37011f59e7901e24ac" target="_top" xlink:title=" ">
<polygon fill="white" stroke="#666666" points="461.62,-514.25 314.38,-514.25 314.38,-495 461.62,-495 461.62,-514.25"/>
<text text-anchor="middle" x="388" y="-500.75" font-family="Helvetica,sans-Serif" font-size="10.00">BOOST_AUTO_TEST_CASE</text>
</a>
</g>
</g>
<!-- Node8&#45;&gt;Node9 -->
<g id="edge8_Node000008_Node000009" class="edge">
<title>Node8&#45;&gt;Node9</title>
<g id="a_edge8_Node000008_Node000009"><a xlink:title=" ">
<path fill="none" stroke="#63b8ff" d="M513.14,-577.72C510.5,-576.12 507.94,-574.43 505.5,-572.62 483.47,-556.37 492.35,-537.71 469.5,-522.62 464.72,-519.47 459.47,-516.86 454.01,-514.7"/>
<polygon fill="#63b8ff" stroke="#63b8ff" points="511.24,-580.67 521.69,-582.37 514.58,-574.52 511.24,-580.67"/>
</a>
</g>
</g>
<!-- Node10 -->
<g id="Node000010" class="node">
<title>Node10</title>
<g id="a_Node000010"><a xlink:href="../../d9/d90/_c_data_frame_analyzer_outlier_test_8cc.html#aee2fedeae9e50894ff9e2a3d2e060e73" target="_top" xlink:title=" ">
<polygon fill="white" stroke="#666666" points="461.62,-477.25 314.38,-477.25 314.38,-458 461.62,-458 461.62,-477.25"/>
<text text-anchor="middle" x="388" y="-463.75" font-family="Helvetica,sans-Serif" font-size="10.00">BOOST_AUTO_TEST_CASE</text>
</a>
</g>
</g>
<!-- Node8&#45;&gt;Node10 -->
<g id="edge9_Node000008_Node000010" class="edge">
<title>Node8&#45;&gt;Node10</title>
<g id="a_edge9_Node000008_Node000010"><a xlink:title=" ">
<path fill="none" stroke="#63b8ff" d="M513.66,-579.2C510.78,-577.19 508.04,-575 505.5,-572.62 474.93,-544.05 501.53,-512.56 469.5,-485.62 465.77,-482.49 461.62,-479.87 457.21,-477.69"/>
<polygon fill="#63b8ff" stroke="#63b8ff" points="511.64,-582.07 522,-584.28 515.28,-576.09 511.64,-582.07"/>
</a>
</g>
</g>
<!-- Node11 -->
<g id="Node000011" class="node">
<title>Node11</title>
<g id="a_Node000011"><a xlink:href="../../d9/d90/_c_data_frame_analyzer_outlier_test_8cc.html#a75060a9afed61ad1bc451441de890c06" target="_top" xlink:title=" ">
<polygon fill="white" stroke="#666666" points="461.62,-699.25 314.38,-699.25 314.38,-680 461.62,-680 461.62,-699.25"/>
<text text-anchor="middle" x="388" y="-685.75" font-family="Helvetica,sans-Serif" font-size="10.00">BOOST_AUTO_TEST_CASE</text>
</a>
</g>
</g>
<!-- Node8&#45;&gt;Node11 -->
<g id="edge10_Node000008_Node000011" class="edge">
<title>Node8&#45;&gt;Node11</title>
<g id="a_edge10_Node000008_Node000011"><a xlink:title=" ">
<path fill="none" stroke="#63b8ff" d="M512.94,-628.18C510.38,-629.59 507.9,-631.07 505.5,-632.62 485.7,-645.45 489.94,-659.85 469.5,-671.62 464.04,-674.77 458.08,-677.37 451.95,-679.51"/>
<polygon fill="#63b8ff" stroke="#63b8ff" points="514.35,-631.38 521.7,-623.75 511.2,-625.13 514.35,-631.38"/>
</a>
</g>
</g>
<!-- Node12 -->
<g id="Node000012" class="node">
<title>Node12</title>
<g id="a_Node000012"><a xlink:href="../../d9/d90/_c_data_frame_analyzer_outlier_test_8cc.html#a8fc33f0525ee64d9ae80cf67f6583bc9" target="_top" xlink:title=" ">
<polygon fill="white" stroke="#666666" points="461.62,-662.25 314.38,-662.25 314.38,-643 461.62,-643 461.62,-662.25"/>
<text text-anchor="middle" x="388" y="-648.75" font-family="Helvetica,sans-Serif" font-size="10.00">BOOST_AUTO_TEST_CASE</text>
</a>
</g>
</g>
<!-- Node8&#45;&gt;Node12 -->
<g id="edge11_Node000008_Node000012" class="edge">
<title>Node8&#45;&gt;Node12</title>
<g id="a_edge11_Node000008_Node000012"><a xlink:title=" ">
<path fill="none" stroke="#63b8ff" d="M512.43,-624.02C498.14,-627.64 483.4,-631.29 469.5,-634.62 458.36,-637.29 446.32,-640.05 435.03,-642.59"/>
<polygon fill="#63b8ff" stroke="#63b8ff" points="512.96,-627.5 521.79,-621.65 511.23,-620.72 512.96,-627.5"/>
</a>
</g>
</g>
<!-- Node13 -->
<g id="Node000013" class="node">
<title>Node13</title>
<g id="a_Node000013"><a xlink:href="../../d9/d90/_c_data_frame_analyzer_outlier_test_8cc.html#aee2c8331ec41472f291c38105dbe65dc" target="_top" xlink:title=" ">
<polygon fill="white" stroke="#666666" points="461.62,-625.25 314.38,-625.25 314.38,-606 461.62,-606 461.62,-625.25"/>
<text text-anchor="middle" x="388" y="-611.75" font-family="Helvetica,sans-Serif" font-size="10.00">BOOST_AUTO_TEST_CASE</text>
</a>
</g>
</g>
<!-- Node8&#45;&gt;Node13 -->
<g id="edge12_Node000008_Node000013" class="edge">
<title>Node8&#45;&gt;Node13</title>
<g id="a_edge12_Node000008_Node000013"><a xlink:title=" ">
<path fill="none" stroke="#63b8ff" d="M511.97,-607.85C495.42,-608.9 478.15,-609.99 461.96,-611.01"/>
<polygon fill="#63b8ff" stroke="#63b8ff" points="512.01,-611.35 521.77,-607.23 511.57,-604.37 512.01,-611.35"/>
</a>
</g>
</g>
<!-- Node14 -->
<g id="Node000014" class="node">
<title>Node14</title>
<g id="a_Node000014"><a xlink:href="../../d9/d90/_c_data_frame_analyzer_outlier_test_8cc.html#a3ae1cd7494be69d378bd3cf93c12930f" target="_top" xlink:title=" ">
<polygon fill="white" stroke="#666666" points="461.62,-588.25 314.38,-588.25 314.38,-569 461.62,-569 461.62,-588.25"/>
<text text-anchor="middle" x="388" y="-574.75" font-family="Helvetica,sans-Serif" font-size="10.00">BOOST_AUTO_TEST_CASE</text>
</a>
</g>
</g>
<!-- Node8&#45;&gt;Node14 -->
<g id="edge13_Node000008_Node000014" class="edge">
<title>Node8&#45;&gt;Node14</title>
<g id="a_edge13_Node000008_Node000014"><a xlink:title=" ">
<path fill="none" stroke="#63b8ff" d="M511.97,-592.98C495.42,-591.05 478.15,-589.03 461.96,-587.14"/>
<polygon fill="#63b8ff" stroke="#63b8ff" points="511.44,-596.44 521.78,-594.12 512.25,-589.49 511.44,-596.44"/>
</a>
</g>
</g>
<!-- Node15 -->
<g id="Node000015" class="node">
<title>Node15</title>
<g id="a_Node000015"><a xlink:href="../../d9/d90/_c_data_frame_analyzer_outlier_test_8cc.html#a9e9aef665553b1e1bc604609f5d8a758" target="_top" xlink:title=" ">
<polygon fill="white" stroke="#666666" points="461.62,-551.25 314.38,-551.25 314.38,-532 461.62,-532 461.62,-551.25"/>
<text text-anchor="middle" x="388" y="-537.75" font-family="Helvetica,sans-Serif" font-size="10.00">BOOST_AUTO_TEST_CASE</text>
</a>
</g>
</g>
<!-- Node8&#45;&gt;Node15 -->
<g id="edge14_Node000008_Node000015" class="edge">
<title>Node8&#45;&gt;Node15</title>
<g id="a_edge14_Node000008_Node000015"><a xlink:title=" ">
<path fill="none" stroke="#63b8ff" d="M520.01,-577.64C515.09,-575.96 510.22,-574.27 505.5,-572.62 489.44,-567.02 485.83,-564.38 469.5,-559.62 459.6,-556.74 448.9,-554.06 438.64,-551.69"/>
<polygon fill="#63b8ff" stroke="#63b8ff" points="518.76,-580.92 529.36,-580.84 521.03,-574.29 518.76,-580.92"/>
</a>
</g>
</g>
<!-- Node22 -->
<g id="Node000022" class="node">
<title>Node22</title>
<g id="a_Node000022"><a xlink:href="../../d9/ddb/_c_outliers_test_8cc.html#a8767768c71c3c399abb77e3acfa660bf" target="_top" xlink:title=" ">
<polygon fill="white" stroke="#666666" points="461.62,-786.25 314.38,-786.25 314.38,-767 461.62,-767 461.62,-786.25"/>
<text text-anchor="middle" x="388" y="-772.75" font-family="Helvetica,sans-Serif" font-size="10.00">BOOST_AUTO_TEST_CASE</text>
</a>
</g>
</g>
<!-- Node21&#45;&gt;Node22 -->
<g id="edge21_Node000021_Node000022" class="edge">
<title>Node21&#45;&gt;Node22</title>
<g id="a_edge21_Node000021_Node000022"><a xlink:title=" ">
<path fill="none" stroke="#63b8ff" d="M521.43,-776.62C502.08,-776.62 481.21,-776.62 461.88,-776.62"/>
<polygon fill="#63b8ff" stroke="#63b8ff" points="521.42,-780.13 531.42,-776.63 521.42,-773.13 521.42,-780.13"/>
</a>
</g>
</g>
<!-- Node25 -->
<g id="Node000025" class="node">
<title>Node25</title>
<g id="a_Node000025"><a xlink:href="../../d4/d49/classml_1_1api_1_1_c_forecast_runner.html#a7c3b0698d5c05092e8556570ce92ac69" target="_top" xlink:title=" ">
<polygon fill="white" stroke="#666666" points="659.88,-414.88 531.38,-414.88 531.38,-384.38 659.88,-384.38 659.88,-414.88"/>
<text text-anchor="start" x="539.38" y="-401.38" font-family="Helvetica,sans-Serif" font-size="10.00">ml::api::CForecastRunner</text>
<text text-anchor="middle" x="595.62" y="-390.12" font-family="Helvetica,sans-Serif" font-size="10.00">::CForecastRunner</text>
</a>
</g>
</g>
<!-- Node24&#45;&gt;Node25 -->
<g id="edge24_Node000024_Node000025" class="edge">
<title>Node24&#45;&gt;Node25</title>
<g id="a_edge24_Node000024_Node000025"><a xlink:title=" ">
<path fill="none" stroke="#63b8ff" d="M735.47,-406.12C710.94,-404.97 683.95,-403.71 660.34,-402.6"/>
<polygon fill="#63b8ff" stroke="#63b8ff" points="735.25,-409.61 745.4,-406.58 735.57,-402.62 735.25,-409.61"/>
</a>
</g>
</g>
<!-- Node28&#45;&gt;Node4 -->
<g id="edge34_Node000028_Node000004" class="edge">
<title>Node28&#45;&gt;Node4</title>
<g id="a_edge34_Node000028_Node000004"><a xlink:title=" ">
<path fill="none" stroke="#63b8ff" d="M992.88,-300.8C978.96,-336.66 948.92,-400.42 901.25,-433.62 896.08,-437.23 890.36,-440.17 884.38,-442.57"/>
<polygon fill="#63b8ff" stroke="#63b8ff" points="996.08,-302.22 996.3,-291.62 989.53,-299.77 996.08,-302.22"/>
</a>
</g>
</g>
<!-- Node28&#45;&gt;Node24 -->
<g id="edge36_Node000028_Node000024" class="edge">
<title>Node28&#45;&gt;Node24</title>
<g id="a_edge36_Node000028_Node000024"><a xlink:title=" ">
<path fill="none" stroke="#63b8ff" d="M985.92,-299.43C968.17,-324.81 937.31,-363.57 901.25,-385.62 893.49,-390.37 884.78,-394.2 875.94,-397.27"/>
<polygon fill="#63b8ff" stroke="#63b8ff" points="988.68,-301.58 991.42,-291.35 982.9,-297.64 988.68,-301.58"/>
</a>
</g>
</g>
<!-- Node28&#45;&gt;Node26 -->
<g id="edge50_Node000028_Node000026" class="edge">
<title>Node28&#45;&gt;Node26</title>
<g id="a_edge50_Node000028_Node000026"><a xlink:title=" ">
<path fill="none" stroke="#63b8ff" d="M995.82,-301.24C984.54,-343.78 956.51,-426.84 901.25,-471.62 893.81,-477.65 884.98,-482.18 875.83,-485.57"/>
<polygon fill="#63b8ff" stroke="#63b8ff" points="999.2,-302.17 998.25,-291.61 992.41,-300.45 999.2,-302.17"/>
</a>
</g>
</g>
<!-- Node29 -->
<g id="Node000029" class="node">
<title>Node29</title>
<g id="a_Node000029"><a xlink:href="../../d7/d59/_c_data_frame_analyzer_training_test_8cc.html#a2784e1cbb8e7098306cbd2d403c87e5b" target="_top" xlink:title=" ">
<polygon fill="white" stroke="#666666" points="885.12,-130.25 737.88,-130.25 737.88,-111 885.12,-111 885.12,-130.25"/>
<text text-anchor="middle" x="811.5" y="-116.75" font-family="Helvetica,sans-Serif" font-size="10.00">BOOST_AUTO_TEST_CASE</text>
</a>
</g>
</g>
<!-- Node28&#45;&gt;Node29 -->
<g id="edge28_Node000028_Node000029" class="edge">
<title>Node28&#45;&gt;Node29</title>
<g id="a_edge28_Node000028_Node000029"><a xlink:title=" ">
<path fill="none" stroke="#63b8ff" d="M990.18,-249.2C974.43,-218.24 943.53,-166.74 901.25,-139.62 895.55,-135.97 889.26,-133 882.73,-130.6"/>
<polygon fill="#63b8ff" stroke="#63b8ff" points="986.89,-250.43 994.45,-257.86 993.17,-247.34 986.89,-250.43"/>
</a>
</g>
</g>
<!-- Node30 -->
<g id="Node000030" class="node">
<title>Node30</title>
<g id="a_Node000030"><a xlink:href="../../da/dcb/_c_hashing_test_8cc.html#af21f45060ac3de743b8cd7e79c0eb4f4" target="_top" xlink:title=" ">
<polygon fill="white" stroke="#666666" points="885.12,-93.25 737.88,-93.25 737.88,-74 885.12,-74 885.12,-93.25"/>
<text text-anchor="middle" x="811.5" y="-79.75" font-family="Helvetica,sans-Serif" font-size="10.00">BOOST_AUTO_TEST_CASE</text>
</a>
</g>
</g>
<!-- Node28&#45;&gt;Node30 -->
<g id="edge29_Node000028_Node000030" class="edge">
<title>Node28&#45;&gt;Node30</title>
<g id="a_edge29_Node000028_Node000030"><a xlink:title=" ">
<path fill="none" stroke="#63b8ff" d="M994.25,-248.08C981.51,-209.42 952.33,-138.23 901.25,-101.62 896.39,-98.15 891.02,-95.3 885.4,-92.98"/>
<polygon fill="#63b8ff" stroke="#63b8ff" points="990.88,-249.04 997.22,-257.52 997.56,-246.93 990.88,-249.04"/>
</a>
</g>
</g>
<!-- Node31 -->
<g id="Node000031" class="node">
<title>Node31</title>
<g id="a_Node000031"><a xlink:href="../../d7/d10/_c_string_utils_test_8cc.html#a15d3106c5f571506837831873e09e60d" target="_top" xlink:title=" ">
<polygon fill="white" stroke="#666666" points="885.12,-56.25 737.88,-56.25 737.88,-37 885.12,-37 885.12,-56.25"/>
<text text-anchor="middle" x="811.5" y="-42.75" font-family="Helvetica,sans-Serif" font-size="10.00">BOOST_AUTO_TEST_CASE</text>
</a>
</g>
</g>
<!-- Node28&#45;&gt;Node31 -->
<g id="edge30_Node000028_Node000031" class="edge">
<title>Node28&#45;&gt;Node31</title>
<g id="a_edge30_Node000028_Node000031"><a xlink:title=" ">
<path fill="none" stroke="#63b8ff" d="M997.11,-247.78C987.39,-202.49 961.15,-111.29 901.25,-64.62 896.41,-60.86 890.99,-57.82 885.27,-55.38"/>
<polygon fill="#63b8ff" stroke="#63b8ff" points="993.67,-248.42 999.08,-257.52 1000.53,-247.03 993.67,-248.42"/>
</a>
</g>
</g>
<!-- Node32 -->
<g id="Node000032" class="node">
<title>Node32</title>
<g id="a_Node000032"><a xlink:href="../../d7/d59/_c_data_frame_analyzer_training_test_8cc.html#a87e7d3cff2a26ee8ec0868c6b1ed2a33" target="_top" xlink:title=" ">
<polygon fill="white" stroke="#666666" points="885.12,-19.25 737.88,-19.25 737.88,0 885.12,0 885.12,-19.25"/>
<text text-anchor="middle" x="811.5" y="-5.75" font-family="Helvetica,sans-Serif" font-size="10.00">BOOST_AUTO_TEST_CASE</text>
</a>
</g>
</g>
<!-- Node28&#45;&gt;Node32 -->
<g id="edge31_Node000028_Node000032" class="edge">
<title>Node28&#45;&gt;Node32</title>
<g id="a_edge31_Node000028_Node000032"><a xlink:title=" ">
<path fill="none" stroke="#63b8ff" d="M999.21,-247.53C992.41,-196.17 970.11,-84.67 901.25,-27.62 896.53,-23.71 891.19,-20.58 885.52,-18.07"/>
<polygon fill="#63b8ff" stroke="#63b8ff" points="995.74,-247.94 1000.41,-257.45 1002.69,-247.1 995.74,-247.94"/>
</a>
</g>
</g>
<!-- Node33 -->
<g id="Node000033" class="node">
<title>Node33</title>
<g id="a_Node000033"><a xlink:href="../../db/de9/_c_k_most_correlated_test_8cc.html#a51cb3a96be6e10a3f2dff8ef985b6028" target="_top" xlink:title=" ">
<polygon fill="white" stroke="#666666" points="885.12,-376.25 737.88,-376.25 737.88,-357 885.12,-357 885.12,-376.25"/>
<text text-anchor="middle" x="811.5" y="-362.75" font-family="Helvetica,sans-Serif" font-size="10.00">BOOST_AUTO_TEST_CASE</text>
</a>
</g>
</g>
<!-- Node28&#45;&gt;Node33 -->
<g id="edge32_Node000028_Node000033" class="edge">
<title>Node28&#45;&gt;Node33</title>
<g id="a_edge32_Node000028_Node000033"><a xlink:title=" ">
<path fill="none" stroke="#63b8ff" d="M977.15,-297.7C957.86,-314.35 929.69,-336.03 901.25,-348.62 894.06,-351.81 886.3,-354.43 878.45,-356.6"/>
<polygon fill="#63b8ff" stroke="#63b8ff" points="979.3,-300.47 984.48,-291.23 974.67,-295.22 979.3,-300.47"/>
</a>
</g>
</g>
<!-- Node34 -->
<g id="Node000034" class="node">
<title>Node34</title>
<g id="a_Node000034"><a xlink:href="../../d6/df5/_c_static_thread_pool_test_8cc.html#a1cb4272013656ddc1774d30311781706" target="_top" xlink:title=" ">
<polygon fill="white" stroke="#666666" points="885.12,-339.25 737.88,-339.25 737.88,-320 885.12,-320 885.12,-339.25"/>
<text text-anchor="middle" x="811.5" y="-325.75" font-family="Helvetica,sans-Serif" font-size="10.00">BOOST_AUTO_TEST_CASE</text>
</a>
</g>
</g>
<!-- Node28&#45;&gt;Node34 -->
<g id="edge33_Node000028_Node000034" class="edge">
<title>Node28&#45;&gt;Node34</title>
<g id="a_edge33_Node000028_Node000034"><a xlink:title=" ">
<path fill="none" stroke="#63b8ff" d="M953.29,-294.21C936.92,-300.33 918.46,-306.75 901.25,-311.62 890.81,-314.58 879.55,-317.25 868.68,-319.58"/>
<polygon fill="#63b8ff" stroke="#63b8ff" points="954.18,-297.61 962.28,-290.79 951.69,-291.07 954.18,-297.61"/>
</a>
</g>
</g>
<!-- Node35 -->
<g id="Node000035" class="node">
<title>Node35</title>
<g id="a_Node000035"><a xlink:href="../../d6/df5/_c_static_thread_pool_test_8cc.html#a9bbfb1a54d5c70ad67f46b1095bff032" target="_top" xlink:title=" ">
<polygon fill="white" stroke="#666666" points="885.12,-302.25 737.88,-302.25 737.88,-283 885.12,-283 885.12,-302.25"/>
<text text-anchor="middle" x="811.5" y="-288.75" font-family="Helvetica,sans-Serif" font-size="10.00">BOOST_AUTO_TEST_CASE</text>
</a>
</g>
</g>
<!-- Node28&#45;&gt;Node35 -->
<g id="edge35_Node000028_Node000035" class="edge">
<title>Node28&#45;&gt;Node35</title>
<g id="a_edge35_Node000028_Node000035"><a xlink:title=" ">
<path fill="none" stroke="#63b8ff" d="M934.78,-281.01C918.82,-282.53 901.72,-284.15 885.51,-285.69"/>
<polygon fill="#63b8ff" stroke="#63b8ff" points="935.04,-284.5 944.66,-280.07 934.38,-277.53 935.04,-284.5"/>
</a>
</g>
</g>
<!-- Node36 -->
<g id="Node000036" class="node">
<title>Node36</title>
<g id="a_Node000036"><a xlink:href="../../da/d80/bin_2pytorch__inference_2_main_8cc.html#a3b30d4583627b6e9c54794197a465ce0" target="_top" xlink:title=" ">
<polygon fill="white" stroke="#666666" points="852.12,-265.25 770.88,-265.25 770.88,-246 852.12,-246 852.12,-265.25"/>
<text text-anchor="middle" x="811.5" y="-251.75" font-family="Helvetica,sans-Serif" font-size="10.00">handleRequest</text>
</a>
</g>
</g>
<!-- Node28&#45;&gt;Node36 -->
<g id="edge37_Node000028_Node000036" class="edge">
<title>Node28&#45;&gt;Node36</title>
<g id="a_edge37_Node000028_Node000036"><a xlink:title=" ">
<path fill="none" stroke="#63b8ff" d="M935.01,-267.91C907.48,-265.15 876.52,-262.04 852.61,-259.65"/>
<polygon fill="#63b8ff" stroke="#63b8ff" points="934.36,-271.36 944.66,-268.88 935.06,-264.4 934.36,-271.36"/>
</a>
</g>
</g>
<!-- Node38 -->
<g id="Node000038" class="node">
<title>Node38</title>
<g id="a_Node000038"><a xlink:href="../../d9/dee/classml_1_1api_1_1_c_anomaly_job.html#af8bea3a425a0f4edfe99bb0ef525fb13" target="_top" xlink:title="Write out interim results for the bucket starting at bucketStartTime.">
<polygon fill="white" stroke="#666666" points="867.88,-227.88 755.12,-227.88 755.12,-197.38 867.88,-197.38 867.88,-227.88"/>
<text text-anchor="start" x="763.12" y="-214.38" font-family="Helvetica,sans-Serif" font-size="10.00">ml::api::CAnomalyJob</text>
<text text-anchor="middle" x="811.5" y="-203.12" font-family="Helvetica,sans-Serif" font-size="10.00">::outputInterimResults</text>
</a>
</g>
</g>
<!-- Node28&#45;&gt;Node38 -->
<g id="edge39_Node000028_Node000038" class="edge">
<title>Node28&#45;&gt;Node38</title>
<g id="a_edge39_Node000028_Node000038"><a xlink:title=" ">
<path fill="none" stroke="#63b8ff" d="M952.71,-254.95C936.44,-248.75 918.18,-242.09 901.25,-236.62 890.62,-233.19 879.16,-229.84 868.13,-226.78"/>
<polygon fill="#63b8ff" stroke="#63b8ff" points="951.07,-258.07 961.66,-258.4 953.59,-251.54 951.07,-258.07"/>
</a>
</g>
</g>
<!-- Node43 -->
<g id="Node000043" class="node">
<title>Node43</title>
<g id="a_Node000043"><a xlink:href="../../d9/dee/classml_1_1api_1_1_c_anomaly_job.html#a13e6b57c735a0fbab0c720e3f82b6f7d" target="_top" xlink:title="Write out the results for the bucket starting at bucketStartTime.">
<polygon fill="white" stroke="#666666" points="867.88,-178.88 755.12,-178.88 755.12,-148.38 867.88,-148.38 867.88,-178.88"/>
<text text-anchor="start" x="763.12" y="-165.38" font-family="Helvetica,sans-Serif" font-size="10.00">ml::api::CAnomalyJob</text>
<text text-anchor="middle" x="811.5" y="-154.12" font-family="Helvetica,sans-Serif" font-size="10.00">::outputResults</text>
</a>
</g>
</g>
<!-- Node28&#45;&gt;Node43 -->
<g id="edge44_Node000028_Node000043" class="edge">
<title>Node28&#45;&gt;Node43</title>
<g id="a_edge44_Node000028_Node000043"><a xlink:title=" ">
<path fill="none" stroke="#63b8ff" d="M980.07,-250.89C960.97,-231.55 931.64,-204.86 901.25,-188.62 890.94,-183.12 879.3,-178.72 867.91,-175.25"/>
<polygon fill="#63b8ff" stroke="#63b8ff" points="977.33,-253.1 986.79,-257.85 982.36,-248.23 977.33,-253.1"/>
</a>
</g>
</g>
<!-- Node37 -->
<g id="Node000037" class="node">
<title>Node37</title>
<g id="a_Node000037"><a xlink:href="../../da/d80/bin_2pytorch__inference_2_main_8cc.html#a3c04138a5bfe5d72780bb7e82a18e627" target="_top" xlink:title=" ">
<polygon fill="white" stroke="#666666" points="614.12,-265.25 577.12,-265.25 577.12,-246 614.12,-246 614.12,-265.25"/>
<text text-anchor="middle" x="595.62" y="-251.75" font-family="Helvetica,sans-Serif" font-size="10.00">main</text>
</a>
</g>
</g>
<!-- Node36&#45;&gt;Node37 -->
<g id="edge38_Node000036_Node000037" class="edge">
<title>Node36&#45;&gt;Node37</title>
<g id="a_edge38_Node000036_Node000037"><a xlink:title=" ">
<path fill="none" stroke="#63b8ff" d="M759.1,-255.62C712.36,-255.62 646.05,-255.62 614.56,-255.62"/>
<polygon fill="#63b8ff" stroke="#63b8ff" points="759.01,-259.13 769.01,-255.63 759.01,-252.13 759.01,-259.13"/>
</a>
</g>
</g>
<!-- Node39 -->
<g id="Node000039" class="node">
<title>Node39</title>
<g id="a_Node000039"><a xlink:href="../../d9/dee/classml_1_1api_1_1_c_anomaly_job.html#a9f65dd0e424bca17de0073ad974fa819" target="_top" xlink:title=" ">
<polygon fill="white" stroke="#666666" points="665.12,-227.88 526.12,-227.88 526.12,-197.38 665.12,-197.38 665.12,-227.88"/>
<text text-anchor="start" x="534.12" y="-214.38" font-family="Helvetica,sans-Serif" font-size="10.00">ml::api::CAnomalyJob</text>
<text text-anchor="middle" x="595.62" y="-203.12" font-family="Helvetica,sans-Serif" font-size="10.00">::outputResultsWithinRange</text>
</a>
</g>
</g>
<!-- Node38&#45;&gt;Node39 -->
<g id="edge40_Node000038_Node000039" class="edge">
<title>Node38&#45;&gt;Node39</title>
<g id="a_edge40_Node000038_Node000039"><a xlink:title=" ">
<path fill="none" stroke="#63b8ff" d="M743.68,-212.62C718.76,-212.62 690.45,-212.62 665.36,-212.62"/>
<polygon fill="#63b8ff" stroke="#63b8ff" points="743.35,-216.13 753.35,-212.63 743.35,-209.13 743.35,-216.13"/>
</a>
</g>
</g>
<!-- Node40 -->
<g id="Node000040" class="node">
<title>Node40</title>
<g id="a_Node000040"><a xlink:href="../../d9/dee/classml_1_1api_1_1_c_anomaly_job.html#ad73da3c668b230305f4bed2fe3fc5b2c" target="_top" xlink:title="Generate interim results.">
<polygon fill="white" stroke="#666666" points="449.62,-227.88 326.38,-227.88 326.38,-197.38 449.62,-197.38 449.62,-227.88"/>
<text text-anchor="start" x="334.38" y="-214.38" font-family="Helvetica,sans-Serif" font-size="10.00">ml::api::CAnomalyJob</text>
<text text-anchor="middle" x="388" y="-203.12" font-family="Helvetica,sans-Serif" font-size="10.00">::generateInterimResults</text>
</a>
</g>
</g>
<!-- Node39&#45;&gt;Node40 -->
<g id="edge41_Node000039_Node000040" class="edge">
<title>Node39&#45;&gt;Node40</title>
<g id="a_edge41_Node000039_Node000040"><a xlink:title=" ">
<path fill="none" stroke="#63b8ff" d="M514.48,-212.62C493.08,-212.62 470.29,-212.62 450.09,-212.62"/>
<polygon fill="#63b8ff" stroke="#63b8ff" points="514.36,-216.13 524.36,-212.63 514.36,-209.13 514.36,-216.13"/>
</a>
</g>
</g>
<!-- Node41 -->
<g id="Node000041" class="node">
<title>Node41</title>
<g id="a_Node000041"><a xlink:href="../../d9/dee/classml_1_1api_1_1_c_anomaly_job.html#a176e0e5e3eaa3e802ff4da6773e33c35" target="_top" xlink:title=" ">
<polygon fill="white" stroke="#666666" points="270.5,-178.88 148.75,-178.88 148.75,-148.38 270.5,-148.38 270.5,-178.88"/>
<text text-anchor="start" x="156.75" y="-165.38" font-family="Helvetica,sans-Serif" font-size="10.00">ml::api::CAnomalyJob</text>
<text text-anchor="middle" x="209.62" y="-154.12" font-family="Helvetica,sans-Serif" font-size="10.00">::handleControlMessage</text>
</a>
</g>
</g>
<!-- Node40&#45;&gt;Node41 -->
<g id="edge42_Node000040_Node000041" class="edge">
<title>Node40&#45;&gt;Node41</title>
<g id="a_edge42_Node000040_Node000041"><a xlink:title=" ">
<path fill="none" stroke="#63b8ff" d="M320.06,-194.03C302.66,-189.19 284.1,-184.04 267.29,-179.37"/>
<polygon fill="#63b8ff" stroke="#63b8ff" points="318.68,-197.28 329.25,-196.58 320.55,-190.53 318.68,-197.28"/>
</a>
</g>
</g>
<!-- Node42 -->
<g id="Node000042" class="node">
<title>Node42</title>
<g id="a_Node000042"><a xlink:href="../../d9/dee/classml_1_1api_1_1_c_anomaly_job.html#a7b4418f8987b9618eb3534c80d8d1617" target="_top" xlink:title=" ">
<polygon fill="white" stroke="#666666" points="112.75,-156.88 0,-156.88 0,-126.38 112.75,-126.38 112.75,-156.88"/>
<text text-anchor="start" x="8" y="-143.38" font-family="Helvetica,sans-Serif" font-size="10.00">ml::api::CAnomalyJob</text>
<text text-anchor="middle" x="56.38" y="-132.12" font-family="Helvetica,sans-Serif" font-size="10.00">::handleRecord</text>
</a>
</g>
</g>
<!-- Node41&#45;&gt;Node42 -->
<g id="edge43_Node000041_Node000042" class="edge">
<title>Node41&#45;&gt;Node42</title>
<g id="a_edge43_Node000041_Node000042"><a xlink:title=" ">
<path fill="none" stroke="#63b8ff" d="M137.05,-153.21C128.96,-152.04 120.81,-150.85 112.96,-149.71"/>
<polygon fill="#63b8ff" stroke="#63b8ff" points="136.51,-156.67 146.91,-154.65 137.52,-149.75 136.51,-156.67"/>
</a>
</g>
</g>
<!-- Node43&#45;&gt;Node39 -->
<g id="edge49_Node000043_Node000039" class="edge">
<title>Node43&#45;&gt;Node39</title>
<g id="a_edge49_Node000043_Node000039"><a xlink:title=" ">
<path fill="none" stroke="#63b8ff" d="M743.68,-178.93C718.76,-184.64 690.45,-191.13 665.36,-196.88"/>
<polygon fill="#63b8ff" stroke="#63b8ff" points="744.42,-182.35 753.39,-176.71 742.86,-175.53 744.42,-182.35"/>
</a>
</g>
</g>
<!-- Node44 -->
<g id="Node000044" class="node">
<title>Node44</title>
<g id="a_Node000044"><a xlink:href="../../d9/dee/classml_1_1api_1_1_c_anomaly_job.html#a2fd3ad014eff086eb116db9026050cf5" target="_top" xlink:title="Output any results new results which are available at time.">
<polygon fill="white" stroke="#666666" points="662.5,-178.88 528.75,-178.88 528.75,-148.38 662.5,-148.38 662.5,-178.88"/>
<text text-anchor="start" x="536.75" y="-165.38" font-family="Helvetica,sans-Serif" font-size="10.00">ml::api::CAnomalyJob</text>
<text text-anchor="middle" x="595.62" y="-154.12" font-family="Helvetica,sans-Serif" font-size="10.00">::outputBucketResultsUntil</text>
</a>
</g>
</g>
<!-- Node43&#45;&gt;Node44 -->
<g id="edge45_Node000043_Node000044" class="edge">
<title>Node43&#45;&gt;Node44</title>
<g id="a_edge45_Node000043_Node000044"><a xlink:title=" ">
<path fill="none" stroke="#63b8ff" d="M743.66,-163.62C717.84,-163.62 688.37,-163.62 662.63,-163.62"/>
<polygon fill="#63b8ff" stroke="#63b8ff" points="743.35,-167.13 753.35,-163.63 743.35,-160.13 743.35,-167.13"/>
</a>
</g>
</g>
<!-- Node44&#45;&gt;Node42 -->
<g id="edge48_Node000044_Node000042" class="edge">
<title>Node44&#45;&gt;Node42</title>
<g id="a_edge48_Node000044_Node000042"><a xlink:title=" ">
<path fill="none" stroke="#63b8ff" d="M517.13,-146.4C501.45,-143.58 485,-141.1 469.5,-139.62 342.53,-127.56 192.57,-133.27 113.19,-137.84"/>
<polygon fill="#63b8ff" stroke="#63b8ff" points="516.44,-149.83 526.91,-148.22 517.73,-142.95 516.44,-149.83"/>
</a>
</g>
</g>
<!-- Node45 -->
<g id="Node000045" class="node">
<title>Node45</title>
<g id="a_Node000045"><a xlink:href="../../d9/dee/classml_1_1api_1_1_c_anomaly_job.html#a9680062014284b51fb38536b2a5dafb8" target="_top" xlink:title=" ">
<polygon fill="white" stroke="#666666" points="444.38,-178.88 331.62,-178.88 331.62,-148.38 444.38,-148.38 444.38,-178.88"/>
<text text-anchor="start" x="339.62" y="-165.38" font-family="Helvetica,sans-Serif" font-size="10.00">ml::api::CAnomalyJob</text>
<text text-anchor="middle" x="388" y="-154.12" font-family="Helvetica,sans-Serif" font-size="10.00">::advanceTime</text>
</a>
</g>
</g>
<!-- Node44&#45;&gt;Node45 -->
<g id="edge46_Node000044_Node000045" class="edge">
<title>Node44&#45;&gt;Node45</title>
<g id="a_edge46_Node000044_Node000045"><a xlink:title=" ">
<path fill="none" stroke="#63b8ff" d="M517.16,-163.62C493.08,-163.62 467.02,-163.62 444.73,-163.62"/>
<polygon fill="#63b8ff" stroke="#63b8ff" points="516.92,-167.13 526.92,-163.63 516.92,-160.13 516.92,-167.13"/>
</a>
</g>
</g>
<!-- Node45&#45;&gt;Node41 -->
<g id="edge47_Node000045_Node000041" class="edge">
<title>Node45&#45;&gt;Node41</title>
<g id="a_edge47_Node000045_Node000041"><a xlink:title=" ">
<path fill="none" stroke="#63b8ff" d="M319.72,-163.62C303.68,-163.62 286.66,-163.62 270.95,-163.62"/>
<polygon fill="#63b8ff" stroke="#63b8ff" points="319.68,-167.13 329.68,-163.63 319.68,-160.13 319.68,-167.13"/>
</a>
</g>
</g>
</g>
</svg>
