<?xml version="1.0" encoding="UTF-8" standalone="no"?>
<!DOCTYPE svg PUBLIC "-//W3C//DTD SVG 1.1//EN"
 "http://www.w3.org/Graphics/SVG/1.1/DTD/svg11.dtd">
<!-- Generated by graphviz version 10.0.1 (20240210.2158)
 -->
<!-- Title: ml::maths::time_series::CTimeSeriesDecompositionDetail::CComponents Pages: 1 -->
<!--zoomable 391 -->

<svg id="main" version="1.1" xmlns="http://www.w3.org/2000/svg" xmlns:xlink="http://www.w3.org/1999/xlink" xml:space="preserve" onload="init(evt)">
<style type="text/css"><![CDATA[
.node, .edge {opacity: 0.7;}
.node.selected, .edge.selected {opacity: 1;}
.edge:hover path { stroke: red; }
.edge:hover polygon { stroke: red; fill: red; }
]]></style>

<defs>
  <circle id="rim" cx="0" cy="0" r="7"/>
  <circle id="rim2" cx="0" cy="0" r="3.5"/>
  <g id="zoomPlus">
    <use xlink:href="#rim" fill="#404040"><set attributeName="fill" to="#808080" begin="zoomplus.mouseover" end="zoomplus.mouseout"/></use>
    <path d="M-4,0h8M0,-4v8" fill="none" stroke="white" stroke-width="1.5" pointer-events="none"/>
  </g>
  <g id="zoomMin">
    <use xlink:href="#rim" fill="#404040"><set attributeName="fill" to="#808080" begin="zoomminus.mouseover" end="zoomminus.mouseout"/></use>
    <path d="M-4,0h8" fill="none" stroke="white" stroke-width="1.5" pointer-events="none"/>
  </g>
  <g id="arrowUp" transform="translate(30 24)">
    <use xlink:href="#rim"/>
    <path pointer-events="none" fill="none" stroke="white" stroke-width="1.5" d="M0,-3.0v7 M-2.5,-0.5L0,-3.0L2.5,-0.5"/>
  </g>
  <g id="arrowRight" transform="rotate(90) translate(36 -43)">
    <use xlink:href="#rim"/>
    <path pointer-events="none" fill="none" stroke="white" stroke-width="1.5" d="M0,-3.0v7 M-2.5,-0.5L0,-3.0L2.5,-0.5"/>
  </g>
  <g id="arrowDown" transform="rotate(180) translate(-30 -48)">
    <use xlink:href="#rim"/>
    <path pointer-events="none" fill="none" stroke="white" stroke-width="1.5" d="M0,-3.0v7 M-2.5,-0.5L0,-3.0L2.5,-0.5"/>
  </g>
  <g id="arrowLeft" transform="rotate(270) translate(-36 17)">
    <use xlink:href="#rim"/>
    <path pointer-events="none" fill="none" stroke="white" stroke-width="1.5" d="M0,-3.0v7 M-2.5,-0.5L0,-3.0L2.5,-0.5"/>
  </g>
  <g id="resetDef">
    <use xlink:href="#rim2" fill="#404040"><set attributeName="fill" to="#808080" begin="reset.mouseover" end="reset.mouseout"/></use>
  </g>
</defs>
<script type="application/ecmascript">
var viewWidth = 1392;
var viewHeight = 391;
var sectionId = 'dynsection-1';
</script>
<script type="application/ecmascript" xlink:href="../../svg.min.js"/>
<svg id="graph" class="graph">
<g id="viewport">
<title>ml::maths::time_series::CTimeSeriesDecompositionDetail::CComponents</title>
<!-- Node1 -->
<g id="Node000001" class="node">
<title>Node1</title>
<g id="a_Node000001"><a xlink:title="Holds and updates the components of the decomposition.">
<polygon fill="#999999" stroke="#666666" points="1384.25,-275.19 1214.5,-275.19 1214.5,-233.44 1384.25,-233.44 1384.25,-275.19"/>
<text text-anchor="start" x="1222.5" y="-261.69" font-family="Helvetica,sans-Serif" font-size="10.00">ml::maths::time_series</text>
<text text-anchor="start" x="1222.5" y="-250.44" font-family="Helvetica,sans-Serif" font-size="10.00">::CTimeSeriesDecompositionDetail</text>
<text text-anchor="middle" x="1299.38" y="-239.19" font-family="Helvetica,sans-Serif" font-size="10.00">::CComponents</text>
</a>
</g>
</g>
<!-- Node2 -->
<g id="Node000002" class="node">
<title>Node2</title>
<g id="a_Node000002"><a xlink:href="../../dc/d37/classml_1_1maths_1_1time__series_1_1_c_time_series_decomposition_detail_1_1_c_handler.html" target="_top" xlink:title="The basic interface for one aspect of the modeling of a time series decomposition.">
<polygon fill="white" stroke="#666666" points="1099.75,-380.19 930,-380.19 930,-338.44 1099.75,-338.44 1099.75,-380.19"/>
<text text-anchor="start" x="938" y="-366.69" font-family="Helvetica,sans-Serif" font-size="10.00">ml::maths::time_series</text>
<text text-anchor="start" x="938" y="-355.44" font-family="Helvetica,sans-Serif" font-size="10.00">::CTimeSeriesDecompositionDetail</text>
<text text-anchor="middle" x="1014.88" y="-344.19" font-family="Helvetica,sans-Serif" font-size="10.00">::CHandler</text>
</a>
</g>
</g>
<!-- Node2&#45;&gt;Node1 -->
<g id="edge1_Node000001_Node000002" class="edge">
<title>Node2&#45;&gt;Node1</title>
<g id="a_edge1_Node000001_Node000002"><a xlink:title=" ">
<path fill="none" stroke="#63b8ff" d="M1110.98,-338.05C1138.98,-330.58 1169.37,-321.27 1196.5,-310.32 1220.08,-300.8 1245.13,-287.08 1264.49,-275.61"/>
<polygon fill="#63b8ff" stroke="#63b8ff" points="1110.22,-334.63 1101.43,-340.54 1111.99,-341.4 1110.22,-334.63"/>
</a>
</g>
</g>
<!-- Node3 -->
<g id="Node000003" class="node">
<title>Node3</title>
<g id="a_Node000003"><a xlink:href="../../d7/d1c/classml_1_1maths_1_1time__series_1_1_c_time_series_decomposition_detail_1_1_c_mediator.html" target="_top" xlink:title="Manages communication between handlers.">
<polygon fill="white" stroke="#666666" points="752.62,-383.19 582.88,-383.19 582.88,-341.44 752.62,-341.44 752.62,-383.19"/>
<text text-anchor="start" x="590.88" y="-369.69" font-family="Helvetica,sans-Serif" font-size="10.00">ml::maths::time_series</text>
<text text-anchor="start" x="590.88" y="-358.44" font-family="Helvetica,sans-Serif" font-size="10.00">::CTimeSeriesDecompositionDetail</text>
<text text-anchor="middle" x="667.75" y="-347.19" font-family="Helvetica,sans-Serif" font-size="10.00">::CMediator</text>
</a>
</g>
</g>
<!-- Node3&#45;&gt;Node2 -->
<g id="edge2_Node000002_Node000003" class="edge">
<title>Node3&#45;&gt;Node2</title>
<g id="a_edge2_Node000002_Node000003"><a xlink:title=" ">
<path fill="none" stroke="#9a32cd" stroke-dasharray="5,2" d="M763.95,-361.49C815.82,-361.04 879.44,-360.49 929.51,-360.05"/>
<polygon fill="#9a32cd" stroke="#9a32cd" points="764.22,-357.99 754.25,-361.57 764.28,-364.99 764.22,-357.99"/>
</a>
</g>
<text text-anchor="middle" x="844.88" y="-363.07" font-family="Helvetica,sans-Serif" font-size="10.00" fill="grey"> m_Mediator</text>
</g>
<!-- Node4 -->
<g id="Node000004" class="node">
<title>Node4</title>
<g id="a_Node000004"><a xlink:href="../../d1/df6/classml_1_1core_1_1_c_state_machine.html" target="_top" xlink:title="A simple state machine implementation.">
<polygon fill="white" stroke="#666666" points="1077.25,-317.94 952.5,-317.94 952.5,-298.69 1077.25,-298.69 1077.25,-317.94"/>
<text text-anchor="middle" x="1014.88" y="-304.44" font-family="Helvetica,sans-Serif" font-size="10.00">ml::core::CStateMachine</text>
</a>
</g>
</g>
<!-- Node4&#45;&gt;Node1 -->
<g id="edge3_Node000001_Node000004" class="edge">
<title>Node4&#45;&gt;Node1</title>
<g id="a_edge3_Node000001_Node000004"><a xlink:title=" ">
<path fill="none" stroke="#9a32cd" stroke-dasharray="5,2" d="M1089.08,-300.54C1122.09,-296.43 1161.44,-290.69 1196.5,-283.32 1206.85,-281.14 1217.69,-278.48 1228.27,-275.66"/>
<polygon fill="#9a32cd" stroke="#9a32cd" points="1088.7,-297.06 1079.19,-301.75 1089.54,-304.01 1088.7,-297.06"/>
</a>
</g>
<text text-anchor="middle" x="1157.12" y="-297.07" font-family="Helvetica,sans-Serif" font-size="10.00" fill="grey"> m_Machine</text>
</g>
<!-- Node5 -->
<g id="Node000005" class="node">
<title>Node5</title>
<g id="a_Node000005"><a xlink:href="../../df/d93/classml_1_1core_1_1_c_state_machine_1_1_c_machine_deque.html" target="_top" xlink:title="A custom paired down std::deque like container.">
<polygon fill="white" stroke="#666666" points="730.12,-323.57 605.38,-323.57 605.38,-293.07 730.12,-293.07 730.12,-323.57"/>
<text text-anchor="start" x="613.38" y="-310.07" font-family="Helvetica,sans-Serif" font-size="10.00">ml::core::CStateMachine</text>
<text text-anchor="middle" x="667.75" y="-298.82" font-family="Helvetica,sans-Serif" font-size="10.00">::CMachineDeque</text>
</a>
</g>
</g>
<!-- Node5&#45;&gt;Node4 -->
<g id="edge4_Node000004_Node000005" class="edge">
<title>Node5&#45;&gt;Node4</title>
<g id="a_edge4_Node000004_Node000005"><a xlink:title=" ">
<path fill="none" stroke="#9a32cd" stroke-dasharray="5,2" d="M741.79,-308.32C804.26,-308.32 893.16,-308.32 952.13,-308.32"/>
<polygon fill="#9a32cd" stroke="#9a32cd" points="741.97,-304.82 731.96,-308.32 741.96,-311.82 741.97,-304.82"/>
</a>
</g>
<text text-anchor="middle" x="844.88" y="-310.07" font-family="Helvetica,sans-Serif" font-size="10.00" fill="grey"> ms_Machines</text>
</g>
<!-- Node6 -->
<g id="Node000006" class="node">
<title>Node6</title>
<g id="a_Node000006"><a xlink:href="../../d8/d62/classml_1_1maths_1_1time__series_1_1_c_time_series_decomposition_detail_1_1_c_components_1_1_c_gain_controller.html" target="_top" xlink:title="Manages the setting of the error gain when updating the components with a value.">
<polygon fill="white" stroke="#666666" points="1099.75,-233.19 930,-233.19 930,-191.44 1099.75,-191.44 1099.75,-233.19"/>
<text text-anchor="start" x="938" y="-219.69" font-family="Helvetica,sans-Serif" font-size="10.00">ml::maths::time_series</text>
<text text-anchor="start" x="938" y="-208.44" font-family="Helvetica,sans-Serif" font-size="10.00">::CTimeSeriesDecompositionDetail</text>
<text text-anchor="middle" x="1014.88" y="-197.19" font-family="Helvetica,sans-Serif" font-size="10.00">::CComponents::CGainController</text>
</a>
</g>
</g>
<!-- Node6&#45;&gt;Node1 -->
<g id="edge5_Node000001_Node000006" class="edge">
<title>Node6&#45;&gt;Node1</title>
<g id="a_edge5_Node000001_Node000006"><a xlink:title=" ">
<path fill="none" stroke="#9a32cd" stroke-dasharray="5,2" d="M1111.04,-226.47C1144.47,-231.44 1181.76,-236.98 1214.22,-241.8"/>
<polygon fill="#9a32cd" stroke="#9a32cd" points="1111.77,-223.04 1101.37,-225.03 1110.74,-229.96 1111.77,-223.04"/>
</a>
</g>
<text text-anchor="middle" x="1157.12" y="-239.07" font-family="Helvetica,sans-Serif" font-size="10.00" fill="grey"> m_GainController</text>
</g>
<!-- Node7 -->
<g id="Node000007" class="node">
<title>Node7</title>
<g id="a_Node000007"><a xlink:href="../../d5/d01/structml_1_1maths_1_1common_1_1_c_basic_statistics_1_1_s_sample_mean.html" target="_top" xlink:title=" ">
<polygon fill="white" stroke="#666666" points="754.5,-275.19 581,-275.19 581,-233.44 754.5,-233.44 754.5,-275.19"/>
<text text-anchor="start" x="589" y="-261.69" font-family="Helvetica,sans-Serif" font-size="10.00">ml::maths::common::</text>
<text text-anchor="start" x="589" y="-250.44" font-family="Helvetica,sans-Serif" font-size="10.00">CBasicStatistics::SSampleMean</text>
<text text-anchor="middle" x="667.75" y="-239.19" font-family="Helvetica,sans-Serif" font-size="10.00">&lt; maths::common::CFloatStorage &gt;</text>
</a>
</g>
</g>
<!-- Node7&#45;&gt;Node1 -->
<g id="edge19_Node000001_Node000007" class="edge">
<title>Node7&#45;&gt;Node1</title>
<g id="a_edge19_Node000001_Node000007"><a xlink:title=" ">
<path fill="none" stroke="#9a32cd" stroke-dasharray="5,2" d="M765.99,-255.25C769.96,-255.28 773.9,-255.3 777.75,-255.32 931.63,-256.02 1111.1,-255.35 1214.06,-254.82"/>
<polygon fill="#9a32cd" stroke="#9a32cd" points="766.26,-251.76 756.24,-255.19 766.22,-258.76 766.26,-251.76"/>
</a>
</g>
<text text-anchor="middle" x="1014.88" y="-257.07" font-family="Helvetica,sans-Serif" font-size="10.00" fill="grey"> m_MeanVarianceScale</text>
</g>
<!-- Node7&#45;&gt;Node6 -->
<g id="edge6_Node000006_Node000007" class="edge">
<title>Node7&#45;&gt;Node6</title>
<g id="a_edge6_Node000006_Node000007"><a xlink:title=" ">
<path fill="none" stroke="#9a32cd" stroke-dasharray="5,2" d="M766.1,-242.47C817.62,-236.2 880.26,-228.58 929.67,-222.56"/>
<polygon fill="#9a32cd" stroke="#9a32cd" points="765.96,-238.96 756.45,-243.64 766.8,-245.91 765.96,-238.96"/>
</a>
</g>
<text text-anchor="middle" x="844.88" y="-242.07" font-family="Helvetica,sans-Serif" font-size="10.00" fill="grey"> m_MeanSumAmplitudes</text>
</g>
<!-- Node8 -->
<g id="Node000008" class="node">
<title>Node8</title>
<g id="a_Node000008"><a xlink:href="../../d6/db6/classml_1_1maths_1_1common_1_1_c_least_squares_online_regression.html" target="_top" xlink:title=" ">
<polygon fill="white" stroke="#666666" points="759.75,-215.57 575.75,-215.57 575.75,-185.07 759.75,-185.07 759.75,-215.57"/>
<text text-anchor="start" x="583.75" y="-202.07" font-family="Helvetica,sans-Serif" font-size="10.00">ml::maths::common::</text>
<text text-anchor="middle" x="667.75" y="-190.82" font-family="Helvetica,sans-Serif" font-size="10.00">CLeastSquaresOnlineRegression&lt; 1 &gt;</text>
</a>
</g>
</g>
<!-- Node8&#45;&gt;Node6 -->
<g id="edge7_Node000006_Node000008" class="edge">
<title>Node8&#45;&gt;Node6</title>
<g id="a_edge7_Node000006_Node000008"><a xlink:title=" ">
<path fill="none" stroke="#9a32cd" stroke-dasharray="5,2" d="M771.47,-201.89C814.85,-202.77 865.9,-204.11 912,-206.07 917.75,-206.31 923.69,-206.59 929.67,-206.9"/>
<polygon fill="#9a32cd" stroke="#9a32cd" points="771.61,-198.39 761.54,-201.69 771.47,-205.39 771.61,-198.39"/>
</a>
</g>
<text text-anchor="middle" x="844.88" y="-208.07" font-family="Helvetica,sans-Serif" font-size="10.00" fill="grey"> m_MeanSumAmplitudesTrend</text>
</g>
<!-- Node9 -->
<g id="Node000009" class="node">
<title>Node9</title>
<g id="a_Node000009"><a xlink:title=" ">
<polygon fill="white" stroke="#666666" points="461,-190.82 242.5,-190.82 242.5,-137.82 461,-137.82 461,-190.82"/>
<text text-anchor="start" x="250.5" y="-177.32" font-family="Helvetica,sans-Serif" font-size="10.00">boost::addable&lt; CLeastSquares</text>
<text text-anchor="start" x="250.5" y="-166.07" font-family="Helvetica,sans-Serif" font-size="10.00">OnlineRegression&lt; N_, CFloatStorage</text>
<text text-anchor="start" x="250.5" y="-154.82" font-family="Helvetica,sans-Serif" font-size="10.00"> &gt;, boost::subtractable&lt; CLeastSquaresOnline</text>
<text text-anchor="middle" x="351.75" y="-143.57" font-family="Helvetica,sans-Serif" font-size="10.00">Regression&lt; N_, CFloatStorage &gt; &gt; &gt;</text>
</a>
</g>
</g>
<!-- Node9&#45;&gt;Node8 -->
<g id="edge8_Node000008_Node000009" class="edge">
<title>Node9&#45;&gt;Node8</title>
<g id="a_edge8_Node000008_Node000009"><a xlink:title=" ">
<path fill="none" stroke="#8b1a1a" d="M472.26,-178.02C506.48,-181.94 543.22,-186.15 575.46,-189.85"/>
<polygon fill="#8b1a1a" stroke="#8b1a1a" points="473.09,-174.59 462.75,-176.93 472.29,-181.55 473.09,-174.59"/>
</a>
</g>
</g>
<!-- Node10 -->
<g id="Node000010" class="node">
<title>Node10</title>
<g id="a_Node000010"><a xlink:href="../../d2/d43/classml_1_1core_1_1_c_persistence_tag.html" target="_top" xlink:title="Convenience container class for holding persistence tags.">
<polygon fill="white" stroke="#666666" points="417.88,-119.94 285.62,-119.94 285.62,-100.69 417.88,-100.69 417.88,-119.94"/>
<text text-anchor="middle" x="351.75" y="-106.44" font-family="Helvetica,sans-Serif" font-size="10.00">ml::core::CPersistenceTag</text>
</a>
</g>
</g>
<!-- Node10&#45;&gt;Node8 -->
<g id="edge9_Node000008_Node000010" class="edge">
<title>Node10&#45;&gt;Node8</title>
<g id="a_edge9_Node000008_Node000010"><a xlink:title=" ">
<path fill="none" stroke="#9a32cd" stroke-dasharray="5,2" d="M429.25,-121.21C439.98,-123.27 450.81,-125.63 461,-128.32 513.51,-142.16 524.45,-152.48 575.75,-170.32 589.42,-175.07 604.31,-180.06 618.01,-184.57"/>
<polygon fill="#9a32cd" stroke="#9a32cd" points="430.09,-117.8 419.63,-119.45 428.83,-124.69 430.09,-117.8"/>
</a>
</g>
<text text-anchor="middle" x="518.38" y="-165.07" font-family="Helvetica,sans-Serif" font-size="10.00" fill="grey"> STATISTIC_TAG</text>
</g>
<!-- Node11 -->
<g id="Node000011" class="node">
<title>Node11</title>
<g id="a_Node000011"><a xlink:href="../../d5/d2c/classml_1_1core_1_1_c_float_storage.html" target="_top" xlink:title="This class should be used in place of float whenever that class is required.">
<polygon fill="white" stroke="#666666" points="120.25,-76.94 0,-76.94 0,-57.69 120.25,-57.69 120.25,-76.94"/>
<text text-anchor="middle" x="60.12" y="-63.44" font-family="Helvetica,sans-Serif" font-size="10.00">ml::core::CFloatStorage</text>
</a>
</g>
</g>
<!-- Node11&#45;&gt;Node8 -->
<g id="edge10_Node000008_Node000011" class="edge">
<title>Node11&#45;&gt;Node8</title>
<g id="a_edge10_Node000008_Node000011"><a xlink:title=" ">
<path fill="none" stroke="#9a32cd" stroke-dasharray="5,2" d="M72.05,-86.97C96.31,-128.31 159.18,-223.41 242.5,-259.32 371.61,-314.96 426.33,-283.25 557.75,-233.32 566.11,-230.14 567.38,-227.47 575.75,-224.32 583.7,-221.32 592.17,-218.55 600.63,-216.04"/>
<polygon fill="#9a32cd" stroke="#9a32cd" points="75.12,-85.3 67.12,-78.36 69.05,-88.77 75.12,-85.3"/>
</a>
</g>
<text text-anchor="middle" x="351.75" y="-290.07" font-family="Helvetica,sans-Serif" font-size="10.00" fill="grey"> MAX_CONDITION</text>
</g>
<!-- Node16 -->
<g id="Node000016" class="node">
<title>Node16</title>
<g id="a_Node000016"><a xlink:href="../../d4/d8c/classml_1_1maths_1_1common_1_1_c_normal_mean_prec_conjugate.html" target="_top" xlink:title="A conjugate prior distribution for a normal variable.">
<polygon fill="white" stroke="#666666" points="739.5,-45.57 596,-45.57 596,-15.07 739.5,-15.07 739.5,-45.57"/>
<text text-anchor="start" x="604" y="-32.07" font-family="Helvetica,sans-Serif" font-size="10.00">ml::maths::common::</text>
<text text-anchor="middle" x="667.75" y="-20.82" font-family="Helvetica,sans-Serif" font-size="10.00">CNormalMeanPrecConjugate</text>
</a>
</g>
</g>
<!-- Node11&#45;&gt;Node16 -->
<g id="edge18_Node000016_Node000011" class="edge">
<title>Node11&#45;&gt;Node16</title>
<g id="a_edge18_Node000016_Node000011"><a xlink:title=" ">
<path fill="none" stroke="#9a32cd" stroke-dasharray="5,2" d="M94.99,-53.06C130.86,-38.79 189.53,-17.8 242.5,-9.57 365.65,9.56 511.09,-5.61 595.73,-18.13"/>
<polygon fill="#9a32cd" stroke="#9a32cd" points="93.98,-49.69 86.02,-56.68 96.6,-56.18 93.98,-49.69"/>
</a>
</g>
<text text-anchor="middle" x="351.75" y="-34.57" font-family="Helvetica,sans-Serif" font-size="10.00" fill="grey"> m_GammaShape</text>
<text text-anchor="middle" x="351.75" y="-23.32" font-family="Helvetica,sans-Serif" font-size="10.00" fill="grey">m_GaussianMean</text>
<text text-anchor="middle" x="351.75" y="-12.07" font-family="Helvetica,sans-Serif" font-size="10.00" fill="grey">m_GaussianPrecision</text>
</g>
<!-- Node17 -->
<g id="Node000017" class="node">
<title>Node17</title>
<g id="a_Node000017"><a xlink:href="../../d6/d99/classml_1_1maths_1_1common_1_1_c_prior.html" target="_top" xlink:title="Interface for a prior distribution function.">
<polygon fill="white" stroke="#666666" points="406.25,-82.57 297.25,-82.57 297.25,-52.07 406.25,-52.07 406.25,-82.57"/>
<text text-anchor="start" x="305.25" y="-69.07" font-family="Helvetica,sans-Serif" font-size="10.00">ml::maths::common::</text>
<text text-anchor="middle" x="351.75" y="-57.82" font-family="Helvetica,sans-Serif" font-size="10.00">CPrior</text>
</a>
</g>
</g>
<!-- Node11&#45;&gt;Node17 -->
<g id="edge17_Node000017_Node000011" class="edge">
<title>Node11&#45;&gt;Node17</title>
<g id="a_edge17_Node000017_Node000011"><a xlink:title=" ">
<path fill="none" stroke="#9a32cd" stroke-dasharray="5,2" d="M131.68,-67.32C182.6,-67.32 250.3,-67.32 296.89,-67.32"/>
<polygon fill="#9a32cd" stroke="#9a32cd" points="131.95,-63.82 121.95,-67.32 131.95,-70.82 131.95,-63.82"/>
</a>
</g>
<text text-anchor="middle" x="181.38" y="-80.32" font-family="Helvetica,sans-Serif" font-size="10.00" fill="grey"> m_DecayRate</text>
<text text-anchor="middle" x="181.38" y="-69.07" font-family="Helvetica,sans-Serif" font-size="10.00" fill="grey">m_NumberSamples</text>
</g>
<!-- Node12 -->
<g id="Node000012" class="node">
<title>Node12</title>
<g id="a_Node000012"><a xlink:href="../../d5/d01/structml_1_1maths_1_1common_1_1_c_basic_statistics_1_1_s_sample_mean.html" target="_top" xlink:title=" ">
<polygon fill="white" stroke="#666666" points="431.38,-250.19 272.12,-250.19 272.12,-208.44 431.38,-208.44 431.38,-250.19"/>
<text text-anchor="start" x="280.12" y="-236.69" font-family="Helvetica,sans-Serif" font-size="10.00">ml::maths::common::</text>
<text text-anchor="start" x="280.12" y="-225.44" font-family="Helvetica,sans-Serif" font-size="10.00">CBasicStatistics::SSampleMean</text>
<text text-anchor="middle" x="351.75" y="-214.19" font-family="Helvetica,sans-Serif" font-size="10.00">&lt; TVector &gt;</text>
</a>
</g>
</g>
<!-- Node12&#45;&gt;Node8 -->
<g id="edge11_Node000008_Node000012" class="edge">
<title>Node12&#45;&gt;Node8</title>
<g id="a_edge11_Node000008_Node000012"><a xlink:title=" ">
<path fill="none" stroke="#9a32cd" stroke-dasharray="5,2" d="M442.81,-221C484.37,-217.16 533.63,-212.61 575.36,-208.76"/>
<polygon fill="#9a32cd" stroke="#9a32cd" points="442.72,-217.49 433.09,-221.9 443.37,-224.46 442.72,-217.49"/>
</a>
</g>
<text text-anchor="middle" x="518.38" y="-220.07" font-family="Helvetica,sans-Serif" font-size="10.00" fill="grey"> m_S</text>
</g>
<!-- Node13 -->
<g id="Node000013" class="node">
<title>Node13</title>
<g id="a_Node000013"><a xlink:href="../../d1/d32/classml_1_1maths_1_1time__series_1_1_c_trend_component.html" target="_top" xlink:title="Models the trend component of a time series.">
<polygon fill="white" stroke="#666666" points="1072.75,-105.57 957,-105.57 957,-75.07 1072.75,-75.07 1072.75,-105.57"/>
<text text-anchor="start" x="965" y="-92.07" font-family="Helvetica,sans-Serif" font-size="10.00">ml::maths::time_series</text>
<text text-anchor="middle" x="1014.88" y="-80.82" font-family="Helvetica,sans-Serif" font-size="10.00">::CTrendComponent</text>
</a>
</g>
</g>
<!-- Node13&#45;&gt;Node1 -->
<g id="edge12_Node000001_Node000013" class="edge">
<title>Node13&#45;&gt;Node1</title>
<g id="a_edge12_Node000001_Node000013"><a xlink:title=" ">
<path fill="none" stroke="#9a32cd" stroke-dasharray="5,2" d="M1084.14,-92.65C1119.8,-96.52 1162.88,-105.57 1196.5,-126.07 1239.72,-152.41 1272.09,-204.13 1287.8,-233.19"/>
<polygon fill="#9a32cd" stroke="#9a32cd" points="1084.64,-89.18 1074.36,-91.71 1083.98,-96.15 1084.64,-89.18"/>
</a>
</g>
<text text-anchor="middle" x="1157.12" y="-128.07" font-family="Helvetica,sans-Serif" font-size="10.00" fill="grey"> m_Trend</text>
</g>
<!-- Node14 -->
<g id="Node000014" class="node">
<title>Node14</title>
<g id="a_Node000014"><a xlink:href="../../d8/d84/structml_1_1maths_1_1common_1_1_c_basic_statistics_1_1_s_sample_mean_var.html" target="_top" xlink:title=" ">
<polygon fill="white" stroke="#666666" points="747.38,-161.19 588.12,-161.19 588.12,-119.44 747.38,-119.44 747.38,-161.19"/>
<text text-anchor="start" x="596.12" y="-147.69" font-family="Helvetica,sans-Serif" font-size="10.00">ml::maths::common::</text>
<text text-anchor="start" x="596.12" y="-136.44" font-family="Helvetica,sans-Serif" font-size="10.00">CBasicStatistics::SSampleMean</text>
<text text-anchor="middle" x="667.75" y="-125.19" font-family="Helvetica,sans-Serif" font-size="10.00">Var&lt; double &gt;</text>
</a>
</g>
</g>
<!-- Node14&#45;&gt;Node1 -->
<g id="edge20_Node000001_Node000014" class="edge">
<title>Node14&#45;&gt;Node1</title>
<g id="a_edge20_Node000001_Node000014"><a xlink:title=" ">
<path fill="none" stroke="#9a32cd" stroke-dasharray="5,2" d="M759.16,-140.21C866.15,-140.81 1037.61,-144.3 1099.75,-159.82 1161.07,-175.12 1226.12,-210.14 1264.45,-232.98"/>
<polygon fill="#9a32cd" stroke="#9a32cd" points="759.26,-136.71 749.24,-140.16 759.22,-143.71 759.26,-136.71"/>
</a>
</g>
<text text-anchor="middle" x="1014.88" y="-173.32" font-family="Helvetica,sans-Serif" font-size="10.00" fill="grey"> m_PredictionErrorWithTrend</text>
<text text-anchor="middle" x="1014.88" y="-162.07" font-family="Helvetica,sans-Serif" font-size="10.00" fill="grey">m_PredictionErrorWithoutTrend</text>
</g>
<!-- Node14&#45;&gt;Node13 -->
<g id="edge13_Node000013_Node000014" class="edge">
<title>Node14&#45;&gt;Node13</title>
<g id="a_edge13_Node000013_Node000014"><a xlink:title=" ">
<path fill="none" stroke="#9a32cd" stroke-dasharray="5,2" d="M758.56,-127.31C821.16,-118.24 902.81,-106.41 956.72,-98.6"/>
<polygon fill="#9a32cd" stroke="#9a32cd" points="758.39,-123.79 748.99,-128.69 759.39,-130.72 758.39,-123.79"/>
</a>
</g>
<text text-anchor="middle" x="844.88" y="-126.07" font-family="Helvetica,sans-Serif" font-size="10.00" fill="grey"> m_ValueMoments</text>
</g>
<!-- Node15 -->
<g id="Node000015" class="node">
<title>Node15</title>
<g id="a_Node000015"><a xlink:href="../../d4/dc5/classml_1_1maths_1_1common_1_1_c_naive_bayes.html" target="_top" xlink:title="Implements a Naive Bayes classifier.">
<polygon fill="white" stroke="#666666" points="722.25,-94.57 613.25,-94.57 613.25,-64.07 722.25,-64.07 722.25,-94.57"/>
<text text-anchor="start" x="621.25" y="-81.07" font-family="Helvetica,sans-Serif" font-size="10.00">ml::maths::common::</text>
<text text-anchor="middle" x="667.75" y="-69.82" font-family="Helvetica,sans-Serif" font-size="10.00">CNaiveBayes</text>
</a>
</g>
</g>
<!-- Node15&#45;&gt;Node13 -->
<g id="edge14_Node000013_Node000015" class="edge">
<title>Node15&#45;&gt;Node13</title>
<g id="a_edge14_Node000013_Node000015"><a xlink:title=" ">
<path fill="none" stroke="#9a32cd" stroke-dasharray="5,2" d="M733.8,-78.19C782.82,-77.71 851.67,-77.82 912,-80.82 926.46,-81.53 942.04,-82.76 956.56,-84.09"/>
<polygon fill="#9a32cd" stroke="#9a32cd" points="733.89,-74.69 723.92,-78.3 733.96,-81.69 733.89,-74.69"/>
</a>
</g>
<text text-anchor="start" x="780" y="-94.32" font-family="Helvetica,sans-Serif" font-size="10.00" fill="grey"> m_ProbabilityOfLevelChange</text>
<text text-anchor="middle" x="844.88" y="-83.07" font-family="Helvetica,sans-Serif" font-size="10.00" fill="grey">Model</text>
</g>
<!-- Node16&#45;&gt;Node13 -->
<g id="edge15_Node000013_Node000016" class="edge">
<title>Node16&#45;&gt;Node13</title>
<g id="a_edge15_Node000013_Node000016"><a xlink:title=" ">
<path fill="none" stroke="#9a32cd" stroke-dasharray="5,2" d="M751.27,-32.03C798.77,-34.39 859.31,-39.77 912,-51.82 935.22,-57.13 960.27,-66.54 979.71,-74.72"/>
<polygon fill="#9a32cd" stroke="#9a32cd" points="751.46,-28.53 741.31,-31.57 751.14,-35.52 751.46,-28.53"/>
</a>
</g>
<text text-anchor="start" x="780.38" y="-65.32" font-family="Helvetica,sans-Serif" font-size="10.00" fill="grey"> m_MagnitudeOfLevelChange</text>
<text text-anchor="middle" x="844.88" y="-54.07" font-family="Helvetica,sans-Serif" font-size="10.00" fill="grey">Model</text>
</g>
<!-- Node17&#45;&gt;Node16 -->
<g id="edge16_Node000016_Node000017" class="edge">
<title>Node17&#45;&gt;Node16</title>
<g id="a_edge16_Node000016_Node000017"><a xlink:title=" ">
<path fill="none" stroke="#63b8ff" d="M418.12,-59.61C469.94,-53.51 542.26,-44.99 595.54,-38.71"/>
<polygon fill="#63b8ff" stroke="#63b8ff" points="417.75,-56.13 408.23,-60.78 418.57,-63.08 417.75,-56.13"/>
</a>
</g>
</g>
</g>
</svg>

<g id="navigator" transform="translate(0 0)" fill="#404254">
  <rect fill="#f2f5e9" fill-opacity="0.5" stroke="#606060" stroke-width=".5" x="0" y="0" width="60" height="60"/>
  <use id="zoomplus" xlink:href="#zoomPlus" x="17" y="9" onmousedown="handleZoom(evt,'in')"/>
  <use id="zoomminus" xlink:href="#zoomMin" x="42" y="9" onmousedown="handleZoom(evt,'out')"/>
  <use id="reset" xlink:href="#resetDef" x="30" y="36" onmousedown="handleReset()"/>
   <use id="arrowup" xlink:href="#arrowUp" x="0" y="0" onmousedown="handlePan(0,-1)"/>
  <use id="arrowright" xlink:href="#arrowRight" x="0" y="0" onmousedown="handlePan(1,0)"/>
  <use id="arrowdown" xlink:href="#arrowDown" x="0" y="0" onmousedown="handlePan(0,1)"/>
  <use id="arrowleft" xlink:href="#arrowLeft" x="0" y="0" onmousedown="handlePan(-1,0)"/>
</g>
<svg viewBox="0 0 15 15" width="100%" height="30px" preserveAspectRatio="xMaxYMin meet">
 <g id="arrow_out" transform="scale(0.3 0.3)">
  <a xlink:href="classml_1_1maths_1_1time__series_1_1_c_time_series_decomposition_detail_1_1_c_components__coll__graph_org.svg" target="_base">
   <rect id="button" ry="5" rx="5" y="6" x="6" height="38" width="38"
        fill="#f2f5e9" fill-opacity="0.5" stroke="#606060" stroke-width="1.0"/>
   <path id="arrow"
     d="M 11.500037,31.436501 C 11.940474,20.09759 22.043105,11.32322 32.158766,21.979434 L 37.068811,17.246167 C 37.068811,17.246167 37.088388,32 37.088388,32 L 22.160133,31.978069 C 22.160133,31.978069 26.997745,27.140456 26.997745,27.140456 C 18.528582,18.264221 13.291696,25.230495 11.500037,31.436501 z"
     style="fill:#404040;"/>
  </a>
 </g>
</svg>

<style type='text/css'>
<![CDATA[
[data-mouse-over-selected='false'] { opacity: 0.7; }
[data-mouse-over-selected='true']  { opacity: 1.0; }
]]>
</style>
<script type="application/ecmascript"><![CDATA[
document.addEventListener('DOMContentLoaded', (event) => {
  highlightEdges();
  highlightAdjacentNodes();
});
]]></script>
</svg>
