<?xml version="1.0" encoding="UTF-8" standalone="no"?>
<!DOCTYPE svg PUBLIC "-//W3C//DTD SVG 1.1//EN"
 "http://www.w3.org/Graphics/SVG/1.1/DTD/svg11.dtd">
<!-- Generated by graphviz version 10.0.1 (20240210.2158)
 -->
<!-- Title: ml::model::anonymous_namespace{CEventRateBucketGatherer::cc}::SStrDataBucketSerializer::operator() Pages: 1 -->
<svg width="406pt" height="292pt"
 viewBox="0.00 0.00 406.00 291.50" xmlns="http://www.w3.org/2000/svg" xmlns:xlink="http://www.w3.org/1999/xlink">
<g id="graph0" class="graph" transform="scale(1 1) rotate(0) translate(4 287.5)">
<title>ml::model::anonymous_namespace{CEventRateBucketGatherer::cc}::SStrDataBucketSerializer::operator()</title>
<!-- Node1 -->
<g id="Node000001" class="node">
<title>Node1</title>
<g id="a_Node000001"><a xlink:title=" ">
<polygon fill="#999999" stroke="#666666" points="190.75,-173.75 0,-173.75 0,-120.75 190.75,-120.75 190.75,-173.75"/>
<text text-anchor="start" x="8" y="-160.25" font-family="Helvetica,sans-Serif" font-size="10.00">ml::model::anonymous</text>
<text text-anchor="start" x="8" y="-149" font-family="Helvetica,sans-Serif" font-size="10.00">_namespace{CEventRateBucket</text>
<text text-anchor="start" x="8" y="-137.75" font-family="Helvetica,sans-Serif" font-size="10.00">Gatherer::cc}::SStrDataBucketSerializer</text>
<text text-anchor="middle" x="95.38" y="-126.5" font-family="Helvetica,sans-Serif" font-size="10.00">::operator()</text>
</a>
</g>
</g>
<!-- Node2 -->
<g id="Node000002" class="node">
<title>Node2</title>
<g id="a_Node000002"><a xlink:href="../../d2/d3f/classml_1_1core_1_1_c_state_restore_traverser.html#af68782b2ed0c98177d130d9196f97889" target="_top" xlink:title=" ">
<polygon fill="white" stroke="#666666" points="394.25,-283.5 230.5,-283.5 230.5,-253 394.25,-253 394.25,-283.5"/>
<text text-anchor="start" x="238.5" y="-270" font-family="Helvetica,sans-Serif" font-size="10.00">ml::core::CStateRestoreTraverser</text>
<text text-anchor="middle" x="312.38" y="-258.75" font-family="Helvetica,sans-Serif" font-size="10.00">::name</text>
</a>
</g>
</g>
<!-- Node1&#45;&gt;Node2 -->
<g id="edge1_Node000001_Node000002" class="edge">
<title>Node1&#45;&gt;Node2</title>
<g id="a_edge1_Node000001_Node000002"><a xlink:title=" ">
<path fill="none" stroke="#63b8ff" d="M126.51,-174.21C151.74,-195.55 189.49,-224.75 226.75,-243.25 230.47,-245.1 234.35,-246.83 238.31,-248.46"/>
<polygon fill="#63b8ff" stroke="#63b8ff" points="236.94,-251.68 247.53,-251.98 239.44,-245.14 236.94,-251.68"/>
</a>
</g>
</g>
<!-- Node3 -->
<g id="Node000003" class="node">
<title>Node3</title>
<g id="a_Node000003"><a xlink:href="../../d2/d3f/classml_1_1core_1_1_c_state_restore_traverser.html#a733d8051e128c5d7421707afadb31ab7" target="_top" xlink:title=" ">
<polygon fill="white" stroke="#666666" points="394.25,-234.5 230.5,-234.5 230.5,-204 394.25,-204 394.25,-234.5"/>
<text text-anchor="start" x="238.5" y="-221" font-family="Helvetica,sans-Serif" font-size="10.00">ml::core::CStateRestoreTraverser</text>
<text text-anchor="middle" x="312.38" y="-209.75" font-family="Helvetica,sans-Serif" font-size="10.00">::next</text>
</a>
</g>
</g>
<!-- Node1&#45;&gt;Node3 -->
<g id="edge2_Node000001_Node000003" class="edge">
<title>Node1&#45;&gt;Node3</title>
<g id="a_edge2_Node000001_Node000003"><a xlink:title=" ">
<path fill="none" stroke="#63b8ff" d="M166.4,-174.15C185.84,-181.31 207.02,-188.83 226.75,-195.25 232.06,-196.98 237.58,-198.7 243.14,-200.39"/>
<polygon fill="#63b8ff" stroke="#63b8ff" points="241.81,-203.64 252.39,-203.14 243.8,-196.93 241.81,-203.64"/>
</a>
</g>
</g>
<!-- Node4 -->
<g id="Node000004" class="node">
<title>Node4</title>
<g id="a_Node000004"><a xlink:href="../../d4/d84/namespaceml_1_1model_1_1anonymous__namespace_02_c_event_rate_bucket_gatherer_8cc_03.html#a8533554b25b22512d96609e2c9e27212" target="_top" xlink:title=" ">
<polygon fill="white" stroke="#666666" points="392,-168.12 232.75,-168.12 232.75,-126.38 392,-126.38 392,-168.12"/>
<text text-anchor="start" x="240.75" y="-154.62" font-family="Helvetica,sans-Serif" font-size="10.00">ml::model::anonymous</text>
<text text-anchor="start" x="240.75" y="-143.38" font-family="Helvetica,sans-Serif" font-size="10.00">_namespace{CEventRateBucket</text>
<text text-anchor="middle" x="312.38" y="-132.12" font-family="Helvetica,sans-Serif" font-size="10.00">Gatherer::cc}::PERSON_TAG</text>
</a>
</g>
</g>
<!-- Node1&#45;&gt;Node4 -->
<g id="edge3_Node000001_Node000004" class="edge">
<title>Node1&#45;&gt;Node4</title>
<g id="a_edge3_Node000001_Node000004"><a xlink:title=" ">
<path fill="none" stroke="#63b8ff" d="M190.99,-147.25C201.06,-147.25 211.28,-147.25 221.29,-147.25"/>
<polygon fill="#63b8ff" stroke="#63b8ff" points="220.98,-150.75 230.98,-147.25 220.98,-143.75 220.98,-150.75"/>
</a>
</g>
</g>
<!-- Node5 -->
<g id="Node000005" class="node">
<title>Node5</title>
<g id="a_Node000005"><a xlink:href="../../d4/d84/namespaceml_1_1model_1_1anonymous__namespace_02_c_event_rate_bucket_gatherer_8cc_03.html#a3e104a1861e4041c3c42561a7e97d715" target="_top" xlink:title=" ">
<polygon fill="white" stroke="#666666" points="398,-90.12 226.75,-90.12 226.75,-48.38 398,-48.38 398,-90.12"/>
<text text-anchor="start" x="234.75" y="-76.62" font-family="Helvetica,sans-Serif" font-size="10.00">ml::model::anonymous</text>
<text text-anchor="start" x="234.75" y="-65.38" font-family="Helvetica,sans-Serif" font-size="10.00">_namespace{CEventRateBucket</text>
<text text-anchor="middle" x="312.38" y="-54.12" font-family="Helvetica,sans-Serif" font-size="10.00">Gatherer::cc}::STRING_ITEM_TAG</text>
</a>
</g>
</g>
<!-- Node1&#45;&gt;Node5 -->
<g id="edge5_Node000001_Node000005" class="edge">
<title>Node1&#45;&gt;Node5</title>
<g id="a_edge5_Node000001_Node000005"><a xlink:title=" ">
<path fill="none" stroke="#63b8ff" d="M170.67,-120.3C193.82,-111.9 219.26,-102.67 242.06,-94.4"/>
<polygon fill="#63b8ff" stroke="#63b8ff" points="243.05,-97.76 251.26,-91.06 240.66,-91.18 243.05,-97.76"/>
</a>
</g>
</g>
<!-- Node6 -->
<g id="Node000006" class="node">
<title>Node6</title>
<g id="a_Node000006"><a xlink:href="../../d2/d3f/classml_1_1core_1_1_c_state_restore_traverser.html#a210456e80c83786dec276d39556fd9e4" target="_top" xlink:title=" ">
<polygon fill="white" stroke="#666666" points="394.25,-30.5 230.5,-30.5 230.5,0 394.25,0 394.25,-30.5"/>
<text text-anchor="start" x="238.5" y="-17" font-family="Helvetica,sans-Serif" font-size="10.00">ml::core::CStateRestoreTraverser</text>
<text text-anchor="middle" x="312.38" y="-5.75" font-family="Helvetica,sans-Serif" font-size="10.00">::traverseSubLevel</text>
</a>
</g>
</g>
<!-- Node1&#45;&gt;Node6 -->
<g id="edge7_Node000001_Node000006" class="edge">
<title>Node1&#45;&gt;Node6</title>
<g id="a_edge7_Node000001_Node000006"><a xlink:title=" ">
<path fill="none" stroke="#63b8ff" d="M121.94,-120.45C146.63,-96.03 186.17,-60.59 226.75,-39.25 229.44,-37.83 232.23,-36.49 235.08,-35.22"/>
<polygon fill="#63b8ff" stroke="#63b8ff" points="236.28,-38.51 244.22,-31.5 233.64,-32.03 236.28,-38.51"/>
</a>
</g>
</g>
<!-- Node4&#45;&gt;Node4 -->
<g id="edge4_Node000004_Node000004" class="edge">
<title>Node4&#45;&gt;Node4</title>
<g id="a_edge4_Node000004_Node000004"><a xlink:title=" ">
<path fill="none" stroke="#63b8ff" d="M272.32,-168.44C268.51,-177.92 281.86,-186.12 312.38,-186.12 330.49,-186.12 342.56,-183.23 348.58,-178.9"/>
<polygon fill="#63b8ff" stroke="#63b8ff" points="351.73,-180.46 351.9,-169.86 345.16,-178.04 351.73,-180.46"/>
</a>
</g>
</g>
<!-- Node5&#45;&gt;Node5 -->
<g id="edge6_Node000005_Node000005" class="edge">
<title>Node5&#45;&gt;Node5</title>
<g id="a_edge6_Node000005_Node000005"><a xlink:title=" ">
<path fill="none" stroke="#63b8ff" d="M272.32,-90.44C268.51,-99.92 281.86,-108.12 312.38,-108.12 330.49,-108.12 342.56,-105.23 348.58,-100.9"/>
<polygon fill="#63b8ff" stroke="#63b8ff" points="351.73,-102.46 351.9,-91.86 345.16,-100.04 351.73,-102.46"/>
</a>
</g>
</g>
</g>
</svg>
