<?xml version="1.0" encoding="UTF-8" standalone="no"?>
<!DOCTYPE svg PUBLIC "-//W3C//DTD SVG 1.1//EN"
 "http://www.w3.org/Graphics/SVG/1.1/DTD/svg11.dtd">
<!-- Generated by graphviz version 10.0.1 (20240210.2158)
 -->
<!-- Title: ml::api::CJsonOutputWriter::~CJsonOutputWriter Pages: 1 -->
<svg width="691pt" height="88pt"
 viewBox="0.00 0.00 690.75 87.50" xmlns="http://www.w3.org/2000/svg" xmlns:xlink="http://www.w3.org/1999/xlink">
<g id="graph0" class="graph" transform="scale(1 1) rotate(0) translate(4 83.5)">
<title>ml::api::CJsonOutputWriter::~CJsonOutputWriter</title>
<!-- Node1 -->
<g id="Node000001" class="node">
<title>Node1</title>
<g id="a_Node000001"><a xlink:title="Destructor flushes the stream.">
<polygon fill="#999999" stroke="#666666" points="134.5,-54.5 0,-54.5 0,-24 134.5,-24 134.5,-54.5"/>
<text text-anchor="start" x="8" y="-41" font-family="Helvetica,sans-Serif" font-size="10.00">ml::api::CJsonOutputWriter</text>
<text text-anchor="middle" x="67.25" y="-29.75" font-family="Helvetica,sans-Serif" font-size="10.00">::~CJsonOutputWriter</text>
</a>
</g>
</g>
<!-- Node2 -->
<g id="Node000002" class="node">
<title>Node2</title>
<g id="a_Node000002"><a xlink:href="../../d3/d28/classml_1_1api_1_1_c_json_output_writer.html#afc722d7c5c58211fb12b30ab3f9ab76e" target="_top" xlink:title=" ">
<polygon fill="white" stroke="#666666" points="305,-54.5 170.5,-54.5 170.5,-24 305,-24 305,-54.5"/>
<text text-anchor="start" x="178.5" y="-41" font-family="Helvetica,sans-Serif" font-size="10.00">ml::api::CJsonOutputWriter</text>
<text text-anchor="middle" x="237.75" y="-29.75" font-family="Helvetica,sans-Serif" font-size="10.00">::finalise</text>
</a>
</g>
</g>
<!-- Node1&#45;&gt;Node2 -->
<g id="edge1_Node000001_Node000002" class="edge">
<title>Node1&#45;&gt;Node2</title>
<g id="a_edge1_Node000001_Node000002"><a xlink:title=" ">
<path fill="none" stroke="#63b8ff" d="M134.85,-39.25C142.72,-39.25 150.82,-39.25 158.83,-39.25"/>
<polygon fill="#63b8ff" stroke="#63b8ff" points="158.57,-42.75 168.57,-39.25 158.57,-35.75 158.57,-42.75"/>
</a>
</g>
</g>
<!-- Node3 -->
<g id="Node000003" class="node">
<title>Node3</title>
<g id="a_Node000003"><a xlink:href="../../d8/dc0/classml_1_1core_1_1_c_boost_json_concurrent_line_writer.html#ad334ee264d822aad2e5eda619049a72a" target="_top" xlink:title=" ">
<polygon fill="white" stroke="#666666" points="500.25,-54.5 341,-54.5 341,-24 500.25,-24 500.25,-54.5"/>
<text text-anchor="start" x="349" y="-41" font-family="Helvetica,sans-Serif" font-size="10.00">ml::core::CBoostJsonConcurrent</text>
<text text-anchor="middle" x="420.62" y="-29.75" font-family="Helvetica,sans-Serif" font-size="10.00">LineWriter::flush</text>
</a>
</g>
</g>
<!-- Node2&#45;&gt;Node3 -->
<g id="edge2_Node000002_Node000003" class="edge">
<title>Node2&#45;&gt;Node3</title>
<g id="a_edge2_Node000002_Node000003"><a xlink:title=" ">
<path fill="none" stroke="#63b8ff" d="M305.33,-39.25C313.14,-39.25 321.2,-39.25 329.26,-39.25"/>
<polygon fill="#63b8ff" stroke="#63b8ff" points="329.11,-42.75 339.11,-39.25 329.11,-35.75 329.11,-42.75"/>
</a>
</g>
</g>
<!-- Node4 -->
<g id="Node000004" class="node">
<title>Node4</title>
<g id="a_Node000004"><a xlink:href="../../de/d68/classml_1_1core_1_1_c_boost_json_writer_base.html#a43e84f02ec131b99d4f1844f94634301" target="_top" xlink:title=" ">
<polygon fill="white" stroke="#666666" points="677.88,-79.5 541.12,-79.5 541.12,-49 677.88,-49 677.88,-79.5"/>
<text text-anchor="start" x="549.12" y="-66" font-family="Helvetica,sans-Serif" font-size="10.00">ml::core::CBoostJsonWriter</text>
<text text-anchor="middle" x="609.5" y="-54.75" font-family="Helvetica,sans-Serif" font-size="10.00">Base::flush</text>
</a>
</g>
</g>
<!-- Node3&#45;&gt;Node4 -->
<g id="edge3_Node000003_Node000004" class="edge">
<title>Node3&#45;&gt;Node4</title>
<g id="a_edge3_Node000003_Node000004"><a xlink:title=" ">
<path fill="none" stroke="#63b8ff" d="M500.61,-49.82C510.2,-51.1 520,-52.41 529.6,-53.69"/>
<polygon fill="#63b8ff" stroke="#63b8ff" points="528.86,-57.13 539.24,-54.98 529.79,-50.19 528.86,-57.13"/>
</a>
</g>
</g>
<!-- Node5 -->
<g id="Node000005" class="node">
<title>Node5</title>
<g id="a_Node000005"><a xlink:href="../../d0/d1b/classml_1_1core_1_1_c_json_output_stream_wrapper.html#a8eedb9769cd12d61a8c647dbbfa890de" target="_top" xlink:title=" ">
<polygon fill="white" stroke="#666666" points="682.75,-30.5 536.25,-30.5 536.25,0 682.75,0 682.75,-30.5"/>
<text text-anchor="start" x="544.25" y="-17" font-family="Helvetica,sans-Serif" font-size="10.00">ml::core::CJsonOutputStream</text>
<text text-anchor="middle" x="609.5" y="-5.75" font-family="Helvetica,sans-Serif" font-size="10.00">Wrapper::flush</text>
</a>
</g>
</g>
<!-- Node3&#45;&gt;Node5 -->
<g id="edge4_Node000003_Node000005" class="edge">
<title>Node3&#45;&gt;Node5</title>
<g id="a_edge4_Node000003_Node000005"><a xlink:title=" ">
<path fill="none" stroke="#63b8ff" d="M500.61,-29.11C508.6,-28.08 516.73,-27.04 524.77,-26"/>
<polygon fill="#63b8ff" stroke="#63b8ff" points="525.07,-29.49 534.54,-24.75 524.17,-22.55 525.07,-29.49"/>
</a>
</g>
</g>
</g>
</svg>
