<?xml version="1.0" encoding="UTF-8" standalone="no"?>
<!DOCTYPE svg PUBLIC "-//W3C//DTD SVG 1.1//EN"
 "http://www.w3.org/Graphics/SVG/1.1/DTD/svg11.dtd">
<!-- Generated by graphviz version 10.0.1 (20240210.2158)
 -->
<!-- Title: ml::maths::common::CMultinomialConjugate::shrink Pages: 1 -->
<svg width="672pt" height="495pt"
 viewBox="0.00 0.00 672.00 494.88" xmlns="http://www.w3.org/2000/svg" xmlns:xlink="http://www.w3.org/1999/xlink">
<g id="graph0" class="graph" transform="scale(1 1) rotate(0) translate(4 490.88)">
<title>ml::maths::common::CMultinomialConjugate::shrink</title>
<!-- Node1 -->
<g id="Node000001" class="node">
<title>Node1</title>
<g id="a_Node000001"><a xlink:title=" ">
<polygon fill="#999999" stroke="#666666" points="664,-306.12 546.75,-306.12 546.75,-264.38 664,-264.38 664,-306.12"/>
<text text-anchor="start" x="554.75" y="-292.62" font-family="Helvetica,sans-Serif" font-size="10.00">ml::maths::common::</text>
<text text-anchor="start" x="554.75" y="-281.38" font-family="Helvetica,sans-Serif" font-size="10.00">CMultinomialConjugate</text>
<text text-anchor="middle" x="605.38" y="-270.12" font-family="Helvetica,sans-Serif" font-size="10.00">::shrink</text>
</a>
</g>
</g>
<!-- Node2 -->
<g id="Node000002" class="node">
<title>Node2</title>
<g id="a_Node000002"><a xlink:href="../../d5/d97/classml_1_1maths_1_1common_1_1_c_multinomial_conjugate.html#a1b818eae8512e8eb599d0ec1822a9830" target="_top" xlink:title="Read parameters from traverser.">
<polygon fill="white" stroke="#666666" points="510.75,-336.12 383.75,-336.12 383.75,-294.38 510.75,-294.38 510.75,-336.12"/>
<text text-anchor="start" x="391.75" y="-322.62" font-family="Helvetica,sans-Serif" font-size="10.00">ml::maths::common::</text>
<text text-anchor="start" x="391.75" y="-311.38" font-family="Helvetica,sans-Serif" font-size="10.00">CMultinomialConjugate</text>
<text text-anchor="middle" x="447.25" y="-300.12" font-family="Helvetica,sans-Serif" font-size="10.00">::acceptRestoreTraverser</text>
</a>
</g>
</g>
<!-- Node1&#45;&gt;Node2 -->
<g id="edge1_Node000001_Node000002" class="edge">
<title>Node1&#45;&gt;Node2</title>
<g id="a_edge1_Node000001_Node000002"><a xlink:title=" ">
<path fill="none" stroke="#63b8ff" d="M535.42,-298.5C527.37,-300.05 519.18,-301.62 511.22,-303.15"/>
<polygon fill="#63b8ff" stroke="#63b8ff" points="536.04,-301.95 545.2,-296.62 534.72,-295.07 536.04,-301.95"/>
</a>
</g>
</g>
<!-- Node3 -->
<g id="Node000003" class="node">
<title>Node3</title>
<g id="a_Node000003"><a xlink:href="../../d5/d97/classml_1_1maths_1_1common_1_1_c_multinomial_conjugate.html#aff23285c867b0b62fe5540733a9045e3" target="_top" xlink:title=" ">
<polygon fill="white" stroke="#666666" points="505.88,-276.12 388.62,-276.12 388.62,-234.38 505.88,-234.38 505.88,-276.12"/>
<text text-anchor="start" x="396.62" y="-262.62" font-family="Helvetica,sans-Serif" font-size="10.00">ml::maths::common::</text>
<text text-anchor="start" x="396.62" y="-251.38" font-family="Helvetica,sans-Serif" font-size="10.00">CMultinomialConjugate</text>
<text text-anchor="middle" x="447.25" y="-240.12" font-family="Helvetica,sans-Serif" font-size="10.00">::addSamples</text>
</a>
</g>
</g>
<!-- Node1&#45;&gt;Node3 -->
<g id="edge2_Node000001_Node000003" class="edge">
<title>Node1&#45;&gt;Node3</title>
<g id="a_edge2_Node000001_Node000003"><a xlink:title=" ">
<path fill="none" stroke="#63b8ff" d="M535.38,-271.99C525.65,-270.12 515.72,-268.22 506.23,-266.39"/>
<polygon fill="#63b8ff" stroke="#63b8ff" points="534.72,-275.43 545.2,-273.88 536.04,-268.55 534.72,-275.43"/>
</a>
</g>
</g>
<!-- Node4 -->
<g id="Node000004" class="node">
<title>Node4</title>
<g id="a_Node000004"><a xlink:href="../../df/d44/_c_annotated_probability_builder_test_8cc.html#a2cb83f2ff7f553cb533ab5676423bd1f" target="_top" xlink:title=" ">
<polygon fill="white" stroke="#666666" points="339.12,-486.88 191.88,-486.88 191.88,-467.62 339.12,-467.62 339.12,-486.88"/>
<text text-anchor="middle" x="265.5" y="-473.38" font-family="Helvetica,sans-Serif" font-size="10.00">BOOST_AUTO_TEST_CASE</text>
</a>
</g>
</g>
<!-- Node3&#45;&gt;Node4 -->
<g id="edge3_Node000003_Node000004" class="edge">
<title>Node3&#45;&gt;Node4</title>
<g id="a_edge3_Node000003_Node000004"><a xlink:title=" ">
<path fill="none" stroke="#63b8ff" d="M384.47,-284.35C384.23,-284.65 383.99,-284.95 383.75,-285.25 335.1,-347.46 403.2,-403.02 347.75,-459.25 344.71,-462.34 341.26,-464.95 337.55,-467.15"/>
<polygon fill="#63b8ff" stroke="#63b8ff" points="386.68,-287.09 391.37,-277.59 381.78,-282.09 386.68,-287.09"/>
</a>
</g>
</g>
<!-- Node5 -->
<g id="Node000005" class="node">
<title>Node5</title>
<g id="a_Node000005"><a xlink:href="../../df/d44/_c_annotated_probability_builder_test_8cc.html#af013a2a9f9a43e773eb0c71a29927f0e" target="_top" xlink:title=" ">
<polygon fill="white" stroke="#666666" points="339.12,-449.88 191.88,-449.88 191.88,-430.62 339.12,-430.62 339.12,-449.88"/>
<text text-anchor="middle" x="265.5" y="-436.38" font-family="Helvetica,sans-Serif" font-size="10.00">BOOST_AUTO_TEST_CASE</text>
</a>
</g>
</g>
<!-- Node3&#45;&gt;Node5 -->
<g id="edge4_Node000003_Node000005" class="edge">
<title>Node3&#45;&gt;Node5</title>
<g id="a_edge4_Node000003_Node000005"><a xlink:title=" ">
<path fill="none" stroke="#63b8ff" d="M384.78,-284.05C384.43,-284.44 384.09,-284.84 383.75,-285.25 343.67,-333.8 393.13,-378.61 347.75,-422.25 344.52,-425.35 340.88,-427.97 336.98,-430.17"/>
<polygon fill="#63b8ff" stroke="#63b8ff" points="386.89,-286.86 391.82,-277.49 382.12,-281.74 386.89,-286.86"/>
</a>
</g>
</g>
<!-- Node6 -->
<g id="Node000006" class="node">
<title>Node6</title>
<g id="a_Node000006"><a xlink:href="../../d9/d37/_c_multinomial_conjugate_test_8cc.html#a9789208dc6543d39cd8f9ba3a2c9d229" target="_top" xlink:title=" ">
<polygon fill="white" stroke="#666666" points="339.12,-412.88 191.88,-412.88 191.88,-393.62 339.12,-393.62 339.12,-412.88"/>
<text text-anchor="middle" x="265.5" y="-399.38" font-family="Helvetica,sans-Serif" font-size="10.00">BOOST_AUTO_TEST_CASE</text>
</a>
</g>
</g>
<!-- Node3&#45;&gt;Node6 -->
<g id="edge5_Node000003_Node000006" class="edge">
<title>Node3&#45;&gt;Node6</title>
<g id="a_edge5_Node000003_Node000006"><a xlink:title=" ">
<path fill="none" stroke="#63b8ff" d="M384.86,-284.06C384.48,-284.45 384.11,-284.85 383.75,-285.25 352.09,-320.31 383.21,-354.05 347.75,-385.25 344.17,-388.4 340.16,-391.04 335.9,-393.24"/>
<polygon fill="#63b8ff" stroke="#63b8ff" points="387.15,-286.71 392.4,-277.5 382.56,-281.42 387.15,-286.71"/>
</a>
</g>
</g>
<!-- Node7 -->
<g id="Node000007" class="node">
<title>Node7</title>
<g id="a_Node000007"><a xlink:href="../../d9/d37/_c_multinomial_conjugate_test_8cc.html#a8189fb6a14d4275d48dcc0dc1207fc17" target="_top" xlink:title=" ">
<polygon fill="white" stroke="#666666" points="339.12,-375.88 191.88,-375.88 191.88,-356.62 339.12,-356.62 339.12,-375.88"/>
<text text-anchor="middle" x="265.5" y="-362.38" font-family="Helvetica,sans-Serif" font-size="10.00">BOOST_AUTO_TEST_CASE</text>
</a>
</g>
</g>
<!-- Node3&#45;&gt;Node7 -->
<g id="edge6_Node000003_Node000007" class="edge">
<title>Node3&#45;&gt;Node7</title>
<g id="a_edge6_Node000003_Node000007"><a xlink:title=" ">
<path fill="none" stroke="#63b8ff" d="M386.06,-283.19C385.27,-283.86 384.5,-284.55 383.75,-285.25 360.14,-307.22 373.72,-329.12 347.75,-348.25 343.45,-351.42 338.69,-354.05 333.7,-356.23"/>
<polygon fill="#63b8ff" stroke="#63b8ff" points="387.93,-286.17 393.85,-277.38 383.74,-280.55 387.93,-286.17"/>
</a>
</g>
</g>
<!-- Node8 -->
<g id="Node000008" class="node">
<title>Node8</title>
<g id="a_Node000008"><a xlink:href="../../d9/d37/_c_multinomial_conjugate_test_8cc.html#a2b3ca0dceaafd9f87732e59b47b6ac40" target="_top" xlink:title=" ">
<polygon fill="white" stroke="#666666" points="339.12,-338.88 191.88,-338.88 191.88,-319.62 339.12,-319.62 339.12,-338.88"/>
<text text-anchor="middle" x="265.5" y="-325.38" font-family="Helvetica,sans-Serif" font-size="10.00">BOOST_AUTO_TEST_CASE</text>
</a>
</g>
</g>
<!-- Node3&#45;&gt;Node8 -->
<g id="edge7_Node000003_Node000008" class="edge">
<title>Node3&#45;&gt;Node8</title>
<g id="a_edge7_Node000003_Node000008"><a xlink:title=" ">
<path fill="none" stroke="#63b8ff" d="M389.58,-281.89C387.6,-283 385.65,-284.12 383.75,-285.25 366.79,-295.34 365.76,-303.17 347.75,-311.25 340.76,-314.38 333.19,-316.99 325.57,-319.16"/>
<polygon fill="#63b8ff" stroke="#63b8ff" points="391.2,-284.99 398.35,-277.18 387.89,-278.83 391.2,-284.99"/>
</a>
</g>
</g>
<!-- Node9 -->
<g id="Node000009" class="node">
<title>Node9</title>
<g id="a_Node000009"><a xlink:href="../../d9/d37/_c_multinomial_conjugate_test_8cc.html#a1d68c9c9ad2692e9d6ddacc5a88211ac" target="_top" xlink:title=" ">
<polygon fill="white" stroke="#666666" points="339.12,-301.88 191.88,-301.88 191.88,-282.62 339.12,-282.62 339.12,-301.88"/>
<text text-anchor="middle" x="265.5" y="-288.38" font-family="Helvetica,sans-Serif" font-size="10.00">BOOST_AUTO_TEST_CASE</text>
</a>
</g>
</g>
<!-- Node3&#45;&gt;Node9 -->
<g id="edge8_Node000003_Node000009" class="edge">
<title>Node3&#45;&gt;Node9</title>
<g id="a_edge8_Node000003_Node000009"><a xlink:title=" ">
<path fill="none" stroke="#63b8ff" d="M377.15,-269.47C356.6,-273.7 334.5,-278.25 315.51,-282.16"/>
<polygon fill="#63b8ff" stroke="#63b8ff" points="377.82,-272.91 386.9,-267.47 376.4,-266.05 377.82,-272.91"/>
</a>
</g>
</g>
<!-- Node10 -->
<g id="Node000010" class="node">
<title>Node10</title>
<g id="a_Node000010"><a xlink:href="../../dd/d6c/_c_maths_memory_test_8cc.html#a7d9e2f543a1acdf0e079edab6d22a60e" target="_top" xlink:title=" ">
<polygon fill="white" stroke="#666666" points="339.12,-264.88 191.88,-264.88 191.88,-245.62 339.12,-245.62 339.12,-264.88"/>
<text text-anchor="middle" x="265.5" y="-251.38" font-family="Helvetica,sans-Serif" font-size="10.00">BOOST_AUTO_TEST_CASE</text>
</a>
</g>
</g>
<!-- Node3&#45;&gt;Node10 -->
<g id="edge9_Node000003_Node000010" class="edge">
<title>Node3&#45;&gt;Node10</title>
<g id="a_edge9_Node000003_Node000010"><a xlink:title=" ">
<path fill="none" stroke="#63b8ff" d="M377.2,-255.25C364.82,-255.25 351.89,-255.25 339.4,-255.25"/>
<polygon fill="#63b8ff" stroke="#63b8ff" points="376.87,-258.75 386.87,-255.25 376.87,-251.75 376.87,-258.75"/>
</a>
</g>
</g>
<!-- Node11 -->
<g id="Node000011" class="node">
<title>Node11</title>
<g id="a_Node000011"><a xlink:href="../../d9/d37/_c_multinomial_conjugate_test_8cc.html#add1709563bb83b07b590394daeb0c33b" target="_top" xlink:title=" ">
<polygon fill="white" stroke="#666666" points="339.12,-227.88 191.88,-227.88 191.88,-208.62 339.12,-208.62 339.12,-227.88"/>
<text text-anchor="middle" x="265.5" y="-214.38" font-family="Helvetica,sans-Serif" font-size="10.00">BOOST_AUTO_TEST_CASE</text>
</a>
</g>
</g>
<!-- Node3&#45;&gt;Node11 -->
<g id="edge10_Node000003_Node000011" class="edge">
<title>Node3&#45;&gt;Node11</title>
<g id="a_edge10_Node000003_Node000011"><a xlink:title=" ">
<path fill="none" stroke="#63b8ff" d="M377.15,-241.03C356.6,-236.8 334.5,-232.25 315.51,-228.34"/>
<polygon fill="#63b8ff" stroke="#63b8ff" points="376.4,-244.45 386.9,-243.03 377.82,-237.59 376.4,-244.45"/>
</a>
</g>
</g>
<!-- Node12 -->
<g id="Node000012" class="node">
<title>Node12</title>
<g id="a_Node000012"><a xlink:href="../../d9/d37/_c_multinomial_conjugate_test_8cc.html#a2d1803e07cd07ffb5647e9983b09bb76" target="_top" xlink:title=" ">
<polygon fill="white" stroke="#666666" points="339.12,-190.88 191.88,-190.88 191.88,-171.62 339.12,-171.62 339.12,-190.88"/>
<text text-anchor="middle" x="265.5" y="-177.38" font-family="Helvetica,sans-Serif" font-size="10.00">BOOST_AUTO_TEST_CASE</text>
</a>
</g>
</g>
<!-- Node3&#45;&gt;Node12 -->
<g id="edge11_Node000003_Node000012" class="edge">
<title>Node3&#45;&gt;Node12</title>
<g id="a_edge11_Node000003_Node000012"><a xlink:title=" ">
<path fill="none" stroke="#63b8ff" d="M404.95,-228.11C387.82,-217.84 367.39,-206.81 347.75,-199.25 339.66,-196.14 330.9,-193.49 322.23,-191.27"/>
<polygon fill="#63b8ff" stroke="#63b8ff" points="402.98,-231 413.33,-233.24 406.64,-225.03 402.98,-231"/>
</a>
</g>
</g>
<!-- Node13 -->
<g id="Node000013" class="node">
<title>Node13</title>
<g id="a_Node000013"><a xlink:href="../../d9/d37/_c_multinomial_conjugate_test_8cc.html#a2c8d659343b709fde4b0714ff57d5a9d" target="_top" xlink:title=" ">
<polygon fill="white" stroke="#666666" points="339.12,-153.88 191.88,-153.88 191.88,-134.62 339.12,-134.62 339.12,-153.88"/>
<text text-anchor="middle" x="265.5" y="-140.38" font-family="Helvetica,sans-Serif" font-size="10.00">BOOST_AUTO_TEST_CASE</text>
</a>
</g>
</g>
<!-- Node3&#45;&gt;Node13 -->
<g id="edge12_Node000003_Node000013" class="edge">
<title>Node3&#45;&gt;Node13</title>
<g id="a_edge12_Node000003_Node000013"><a xlink:title=" ">
<path fill="none" stroke="#63b8ff" d="M422.51,-225.54C404.24,-204.7 377.21,-177.86 347.75,-162.25 341.75,-159.07 335.21,-156.45 328.54,-154.29"/>
<polygon fill="#63b8ff" stroke="#63b8ff" points="419.64,-227.58 428.8,-232.91 424.96,-223.03 419.64,-227.58"/>
</a>
</g>
</g>
<!-- Node14 -->
<g id="Node000014" class="node">
<title>Node14</title>
<g id="a_Node000014"><a xlink:href="../../d9/d37/_c_multinomial_conjugate_test_8cc.html#a7f012ec2e54e33b2d083a82f4e481d86" target="_top" xlink:title=" ">
<polygon fill="white" stroke="#666666" points="339.12,-116.88 191.88,-116.88 191.88,-97.62 339.12,-97.62 339.12,-116.88"/>
<text text-anchor="middle" x="265.5" y="-103.38" font-family="Helvetica,sans-Serif" font-size="10.00">BOOST_AUTO_TEST_CASE</text>
</a>
</g>
</g>
<!-- Node3&#45;&gt;Node14 -->
<g id="edge13_Node000003_Node000014" class="edge">
<title>Node3&#45;&gt;Node14</title>
<g id="a_edge13_Node000003_Node000014"><a xlink:title=" ">
<path fill="none" stroke="#63b8ff" d="M430.94,-224C414.55,-193.94 385.7,-149.59 347.75,-125.25 342.76,-122.05 337.29,-119.42 331.61,-117.25"/>
<polygon fill="#63b8ff" stroke="#63b8ff" points="427.73,-225.43 435.5,-232.64 433.92,-222.16 427.73,-225.43"/>
</a>
</g>
</g>
<!-- Node15 -->
<g id="Node000015" class="node">
<title>Node15</title>
<g id="a_Node000015"><a xlink:href="../../d0/d77/classml_1_1model_1_1_c_event_rate_population_model.html#a1f6bcc812dfb5fd684f4a6ad6fb51947" target="_top" xlink:title=" ">
<polygon fill="white" stroke="#666666" points="347.75,-79.5 183.25,-79.5 183.25,-49 347.75,-49 347.75,-79.5"/>
<text text-anchor="start" x="191.25" y="-66" font-family="Helvetica,sans-Serif" font-size="10.00">ml::model::CEventRatePopulation</text>
<text text-anchor="middle" x="265.5" y="-54.75" font-family="Helvetica,sans-Serif" font-size="10.00">Model::computeProbability</text>
</a>
</g>
</g>
<!-- Node3&#45;&gt;Node15 -->
<g id="edge14_Node000003_Node000015" class="edge">
<title>Node3&#45;&gt;Node15</title>
<g id="a_edge14_Node000003_Node000015"><a xlink:title=" ">
<path fill="none" stroke="#63b8ff" d="M435.81,-223.72C421.72,-186.02 393.04,-123.59 347.75,-88.25 343.69,-85.08 339.22,-82.33 334.53,-79.95"/>
<polygon fill="#63b8ff" stroke="#63b8ff" points="432.36,-224.47 439.04,-232.69 438.94,-222.1 432.36,-224.47"/>
</a>
</g>
</g>
<!-- Node16 -->
<g id="Node000016" class="node">
<title>Node16</title>
<g id="a_Node000016"><a xlink:href="../../dc/d14/classml_1_1model_1_1_c_event_rate_model.html#a5f6241aadc05102c032854e593798b2c" target="_top" xlink:title=" ">
<polygon fill="white" stroke="#666666" points="338,-30.5 193,-30.5 193,0 338,0 338,-30.5"/>
<text text-anchor="start" x="201" y="-17" font-family="Helvetica,sans-Serif" font-size="10.00">ml::model::CEventRateModel</text>
<text text-anchor="middle" x="265.5" y="-5.75" font-family="Helvetica,sans-Serif" font-size="10.00">::sample</text>
</a>
</g>
</g>
<!-- Node3&#45;&gt;Node16 -->
<g id="edge15_Node000003_Node000016" class="edge">
<title>Node3&#45;&gt;Node16</title>
<g id="a_edge15_Node000003_Node000016"><a xlink:title=" ">
<path fill="none" stroke="#63b8ff" d="M440.17,-223.07C429.64,-176.13 403.53,-89.16 347.75,-40.25 343.64,-36.65 339.03,-33.57 334.13,-30.93"/>
<polygon fill="#63b8ff" stroke="#63b8ff" points="436.7,-223.57 442.21,-232.62 443.55,-222.11 436.7,-223.57"/>
</a>
</g>
</g>
<!-- Node17 -->
<g id="Node000017" class="node">
<title>Node17</title>
<g id="a_Node000017"><a xlink:href="../../df/d44/_c_model_memory_test_8cc.html#a84a19efc4ae2859d720e5a7a5d5836e5" target="_top" xlink:title=" ">
<polygon fill="white" stroke="#666666" points="147.25,-24.88 0,-24.88 0,-5.63 147.25,-5.63 147.25,-24.88"/>
<text text-anchor="middle" x="73.62" y="-11.38" font-family="Helvetica,sans-Serif" font-size="10.00">BOOST_AUTO_TEST_CASE</text>
</a>
</g>
</g>
<!-- Node16&#45;&gt;Node17 -->
<g id="edge16_Node000016_Node000017" class="edge">
<title>Node16&#45;&gt;Node17</title>
<g id="a_edge16_Node000016_Node000017"><a xlink:title=" ">
<path fill="none" stroke="#63b8ff" d="M181.49,-15.25C170.15,-15.25 158.59,-15.25 147.46,-15.25"/>
<polygon fill="#63b8ff" stroke="#63b8ff" points="181.2,-18.75 191.2,-15.25 181.2,-11.75 181.2,-18.75"/>
</a>
</g>
</g>
</g>
</svg>
