<?xml version="1.0" encoding="UTF-8" standalone="no"?>
<!DOCTYPE svg PUBLIC "-//W3C//DTD SVG 1.1//EN"
 "http://www.w3.org/Graphics/SVG/1.1/DTD/svg11.dtd">
<!-- Generated by graphviz version 10.0.1 (20240210.2158)
 -->
<!-- Title: ml::maths::common::CMultinomialConjugate::probabilitiesOfLessLikelyCategories Pages: 1 -->
<svg width="568pt" height="350pt"
 viewBox="0.00 0.00 567.50 349.50" xmlns="http://www.w3.org/2000/svg" xmlns:xlink="http://www.w3.org/1999/xlink">
<g id="graph0" class="graph" transform="scale(1 1) rotate(0) translate(4 345.5)">
<title>ml::maths::common::CMultinomialConjugate::probabilitiesOfLessLikelyCategories</title>
<!-- Node1 -->
<g id="Node000001" class="node">
<title>Node1</title>
<g id="a_Node000001"><a xlink:title=" ">
<polygon fill="#999999" stroke="#666666" points="178,-187.12 0,-187.12 0,-145.38 178,-145.38 178,-187.12"/>
<text text-anchor="start" x="8" y="-173.62" font-family="Helvetica,sans-Serif" font-size="10.00">ml::maths::common::</text>
<text text-anchor="start" x="8" y="-162.38" font-family="Helvetica,sans-Serif" font-size="10.00">CMultinomialConjugate</text>
<text text-anchor="middle" x="89" y="-151.12" font-family="Helvetica,sans-Serif" font-size="10.00">::probabilitiesOfLessLikelyCategories</text>
</a>
</g>
</g>
<!-- Node2 -->
<g id="Node000002" class="node">
<title>Node2</title>
<g id="a_Node000002"><a xlink:href="../../dc/dbb/structml_1_1maths_1_1common_1_1_c_basic_statistics_1_1_s_sample_central_moments.html#acc61d392a0de1c035fe149a84fd252ca" target="_top" xlink:title="Update the moments with the collection x.">
<polygon fill="white" stroke="#666666" points="380.75,-263.12 214,-263.12 214,-221.38 380.75,-221.38 380.75,-263.12"/>
<text text-anchor="start" x="222" y="-249.62" font-family="Helvetica,sans-Serif" font-size="10.00">ml::maths::common::</text>
<text text-anchor="start" x="222" y="-238.38" font-family="Helvetica,sans-Serif" font-size="10.00">CBasicStatistics::SSampleCentral</text>
<text text-anchor="middle" x="297.38" y="-227.12" font-family="Helvetica,sans-Serif" font-size="10.00">Moments::add</text>
</a>
</g>
</g>
<!-- Node1&#45;&gt;Node2 -->
<g id="edge1_Node000001_Node000002" class="edge">
<title>Node1&#45;&gt;Node2</title>
<g id="a_edge1_Node000001_Node000002"><a xlink:title=" ">
<path fill="none" stroke="#63b8ff" d="M147.39,-187.62C168.34,-195.4 192.23,-204.25 214,-212.25 218.34,-213.84 222.81,-215.48 227.32,-217.13"/>
<polygon fill="#63b8ff" stroke="#63b8ff" points="225.84,-220.32 236.44,-220.47 228.25,-213.75 225.84,-220.32"/>
</a>
</g>
</g>
<!-- Node3 -->
<g id="Node000003" class="node">
<title>Node3</title>
<g id="a_Node000003"><a xlink:href="../../d6/dd5/namespaceml_1_1maths_1_1common.html#a60cfac60a7086ae3449408c2a79beee5" target="_top" xlink:title="Compute the c.d.f. at x for distribution.">
<polygon fill="white" stroke="#666666" points="358.62,-154.88 236.12,-154.88 236.12,-135.62 358.62,-135.62 358.62,-154.88"/>
<text text-anchor="middle" x="297.38" y="-141.38" font-family="Helvetica,sans-Serif" font-size="10.00">ml::maths::common::cdf</text>
</a>
</g>
</g>
<!-- Node1&#45;&gt;Node3 -->
<g id="edge2_Node000001_Node000003" class="edge">
<title>Node1&#45;&gt;Node3</title>
<g id="a_edge2_Node000001_Node000003"><a xlink:title=" ">
<path fill="none" stroke="#63b8ff" d="M178.42,-157.25C193.85,-155.68 209.73,-154.07 224.64,-152.55"/>
<polygon fill="#63b8ff" stroke="#63b8ff" points="224.73,-156.06 234.33,-151.56 224.02,-149.09 224.73,-156.06"/>
</a>
</g>
</g>
<!-- Node10 -->
<g id="Node000010" class="node">
<title>Node10</title>
<g id="a_Node000010"><a xlink:href="../../d6/dd5/namespaceml_1_1maths_1_1common.html#a3cc73a771faf1159e2fb0fdd875e3cbb" target="_top" xlink:title="Compute one minus the c.d.f. at x for distribution.">
<polygon fill="white" stroke="#666666" points="351.88,-203.5 242.88,-203.5 242.88,-173 351.88,-173 351.88,-203.5"/>
<text text-anchor="start" x="250.88" y="-190" font-family="Helvetica,sans-Serif" font-size="10.00">ml::maths::common::</text>
<text text-anchor="middle" x="297.38" y="-178.75" font-family="Helvetica,sans-Serif" font-size="10.00">cdfComplement</text>
</a>
</g>
</g>
<!-- Node1&#45;&gt;Node10 -->
<g id="edge10_Node000001_Node000010" class="edge">
<title>Node1&#45;&gt;Node10</title>
<g id="a_edge10_Node000001_Node000010"><a xlink:title=" ">
<path fill="none" stroke="#63b8ff" d="M178.42,-175.68C196.11,-177.56 214.39,-179.51 231.12,-181.29"/>
<polygon fill="#63b8ff" stroke="#63b8ff" points="230.61,-184.76 240.93,-182.34 231.36,-177.8 230.61,-184.76"/>
</a>
</g>
</g>
<!-- Node12 -->
<g id="Node000012" class="node">
<title>Node12</title>
<g id="a_Node000012"><a xlink:href="../../d4/d55/classml_1_1maths_1_1common_1_1_c_basic_statistics.html#a9a136b1823e9938247cd29bb0ffea440" target="_top" xlink:title="Compute the mean of a pair.">
<polygon fill="white" stroke="#666666" points="357.12,-117.5 237.62,-117.5 237.62,-87 357.12,-87 357.12,-117.5"/>
<text text-anchor="start" x="245.62" y="-104" font-family="Helvetica,sans-Serif" font-size="10.00">ml::maths::common::</text>
<text text-anchor="middle" x="297.38" y="-92.75" font-family="Helvetica,sans-Serif" font-size="10.00">CBasicStatistics::mean</text>
</a>
</g>
</g>
<!-- Node1&#45;&gt;Node12 -->
<g id="edge17_Node000001_Node000012" class="edge">
<title>Node1&#45;&gt;Node12</title>
<g id="a_edge17_Node000001_Node000012"><a xlink:title=" ">
<path fill="none" stroke="#63b8ff" d="M154.89,-144.93C173.9,-138.79 194.75,-132.16 214,-126.25 219.47,-124.57 225.15,-122.86 230.85,-121.16"/>
<polygon fill="#63b8ff" stroke="#63b8ff" points="231.76,-124.54 240.36,-118.34 229.77,-117.82 231.76,-124.54"/>
</a>
</g>
</g>
<!-- Node4 -->
<g id="Node000004" class="node">
<title>Node4</title>
<g id="a_Node000004"><a xlink:href="../../d0/d1c/classml_1_1maths_1_1common_1_1_c_log_t_distribution.html#a128ce0a627956e7931be0358fe995d2d" target="_top" xlink:title=" ">
<polygon fill="white" stroke="#666666" points="555.75,-188.12 420.5,-188.12 420.5,-146.38 555.75,-146.38 555.75,-188.12"/>
<text text-anchor="start" x="428.5" y="-174.62" font-family="Helvetica,sans-Serif" font-size="10.00">ml::maths::common::</text>
<text text-anchor="start" x="428.5" y="-163.38" font-family="Helvetica,sans-Serif" font-size="10.00">CLogTDistribution::degrees</text>
<text text-anchor="middle" x="488.12" y="-152.12" font-family="Helvetica,sans-Serif" font-size="10.00">Freedom</text>
</a>
</g>
</g>
<!-- Node3&#45;&gt;Node4 -->
<g id="edge3_Node000003_Node000004" class="edge">
<title>Node3&#45;&gt;Node4</title>
<g id="a_edge3_Node000003_Node000004"><a xlink:title=" ">
<path fill="none" stroke="#63b8ff" d="M358.88,-152.3C374.73,-154.15 392.06,-156.17 408.71,-158.11"/>
<polygon fill="#63b8ff" stroke="#63b8ff" points="408.26,-161.58 418.59,-159.26 409.07,-154.63 408.26,-161.58"/>
</a>
</g>
</g>
<!-- Node5 -->
<g id="Node000005" class="node">
<title>Node5</title>
<g id="a_Node000005"><a xlink:href="../../dd/dc8/classml_1_1maths_1_1common_1_1_c_maths_funcs.html#a55029f09f9f7e9eb786219fefbb8ff72" target="_top" xlink:title="Check if value is NaN.">
<polygon fill="white" stroke="#666666" points="542.62,-128.5 433.62,-128.5 433.62,-98 542.62,-98 542.62,-128.5"/>
<text text-anchor="start" x="441.62" y="-115" font-family="Helvetica,sans-Serif" font-size="10.00">ml::maths::common::</text>
<text text-anchor="middle" x="488.12" y="-103.75" font-family="Helvetica,sans-Serif" font-size="10.00">CMathsFuncs::isNan</text>
</a>
</g>
</g>
<!-- Node3&#45;&gt;Node5 -->
<g id="edge4_Node000003_Node000005" class="edge">
<title>Node3&#45;&gt;Node5</title>
<g id="a_edge4_Node000003_Node000005"><a xlink:title=" ">
<path fill="none" stroke="#63b8ff" d="M358.1,-135.12C378.42,-131.68 401.23,-127.81 421.96,-124.3"/>
<polygon fill="#63b8ff" stroke="#63b8ff" points="422.46,-127.76 431.73,-122.64 421.29,-120.86 422.46,-127.76"/>
</a>
</g>
</g>
<!-- Node6 -->
<g id="Node000006" class="node">
<title>Node6</title>
<g id="a_Node000006"><a xlink:href="../../d0/d1c/classml_1_1maths_1_1common_1_1_c_log_t_distribution.html#a4267908e2f6c547fd21f75a77f6bee78" target="_top" xlink:title=" ">
<polygon fill="white" stroke="#666666" points="555.38,-79.5 420.88,-79.5 420.88,-49 555.38,-49 555.38,-79.5"/>
<text text-anchor="start" x="428.88" y="-66" font-family="Helvetica,sans-Serif" font-size="10.00">ml::maths::common::</text>
<text text-anchor="middle" x="488.12" y="-54.75" font-family="Helvetica,sans-Serif" font-size="10.00">CLogTDistribution::location</text>
</a>
</g>
</g>
<!-- Node3&#45;&gt;Node6 -->
<g id="edge5_Node000003_Node000006" class="edge">
<title>Node3&#45;&gt;Node6</title>
<g id="a_edge5_Node000003_Node000006"><a xlink:title=" ">
<path fill="none" stroke="#63b8ff" d="M358.83,-135.56C366.47,-133.12 373.97,-130.07 380.75,-126.25 400.74,-114.99 397.44,-101.64 416.75,-89.25 419.14,-87.72 421.63,-86.27 424.19,-84.89"/>
<polygon fill="#63b8ff" stroke="#63b8ff" points="425.52,-88.14 432.99,-80.62 422.47,-81.84 425.52,-88.14"/>
</a>
</g>
</g>
<!-- Node7 -->
<g id="Node000007" class="node">
<title>Node7</title>
<g id="a_Node000007"><a xlink:href="../../dd/d55/classml_1_1maths_1_1common_1_1_c_tools.html#a3b1d398255cd218c09ddfe9f75cfa829" target="_top" xlink:title=" ">
<polygon fill="white" stroke="#666666" points="542.62,-30.5 433.62,-30.5 433.62,0 542.62,0 542.62,-30.5"/>
<text text-anchor="start" x="441.62" y="-17" font-family="Helvetica,sans-Serif" font-size="10.00">ml::maths::common::</text>
<text text-anchor="middle" x="488.12" y="-5.75" font-family="Helvetica,sans-Serif" font-size="10.00">CTools::safeCdf</text>
</a>
</g>
</g>
<!-- Node3&#45;&gt;Node7 -->
<g id="edge6_Node000003_Node000007" class="edge">
<title>Node3&#45;&gt;Node7</title>
<g id="a_edge6_Node000003_Node000007"><a xlink:title=" ">
<path fill="none" stroke="#63b8ff" d="M358.72,-138.43C366.72,-135.58 374.35,-131.64 380.75,-126.25 412.43,-99.54 386.65,-68.73 416.75,-40.25 418.85,-38.26 421.12,-36.43 423.51,-34.74"/>
<polygon fill="#63b8ff" stroke="#63b8ff" points="425.16,-37.83 431.96,-29.7 421.58,-31.82 425.16,-37.83"/>
</a>
</g>
</g>
<!-- Node8 -->
<g id="Node000008" class="node">
<title>Node8</title>
<g id="a_Node000008"><a xlink:href="../../d0/d1c/classml_1_1maths_1_1common_1_1_c_log_t_distribution.html#a8f03f27080a2f59d3da535b4b4f228ef" target="_top" xlink:title=" ">
<polygon fill="white" stroke="#666666" points="550.12,-292.5 426.12,-292.5 426.12,-262 550.12,-262 550.12,-292.5"/>
<text text-anchor="start" x="434.12" y="-279" font-family="Helvetica,sans-Serif" font-size="10.00">ml::maths::common::</text>
<text text-anchor="middle" x="488.12" y="-267.75" font-family="Helvetica,sans-Serif" font-size="10.00">CLogTDistribution::scale</text>
</a>
</g>
</g>
<!-- Node3&#45;&gt;Node8 -->
<g id="edge7_Node000003_Node000008" class="edge">
<title>Node3&#45;&gt;Node8</title>
<g id="a_edge7_Node000003_Node000008"><a xlink:title=" ">
<path fill="none" stroke="#63b8ff" d="M358.78,-152C366.77,-154.86 374.39,-158.82 380.75,-164.25 413.2,-191.95 385.75,-223.93 416.75,-253.25 417.38,-253.85 418.03,-254.43 418.69,-255"/>
<polygon fill="#63b8ff" stroke="#63b8ff" points="416.6,-257.81 426.78,-260.74 420.65,-252.1 416.6,-257.81"/>
</a>
</g>
</g>
<!-- Node9 -->
<g id="Node000009" class="node">
<title>Node9</title>
<g id="a_Node000009"><a xlink:href="../../d4/da6/namespaceml.html#ad281564c6956f9a94ad02cfd663d150d" target="_top" xlink:title="Scales time input to generator.">
<polygon fill="white" stroke="#666666" points="516,-225.88 460.25,-225.88 460.25,-206.62 516,-206.62 516,-225.88"/>
<text text-anchor="middle" x="488.12" y="-212.38" font-family="Helvetica,sans-Serif" font-size="10.00">ml::scale</text>
</a>
</g>
</g>
<!-- Node3&#45;&gt;Node9 -->
<g id="edge8_Node000003_Node000009" class="edge">
<title>Node3&#45;&gt;Node9</title>
<g id="a_edge8_Node000003_Node000009"><a xlink:title=" ">
<path fill="none" stroke="#63b8ff" d="M358.63,-155.31C366.3,-157.69 373.87,-160.63 380.75,-164.25 399.96,-174.36 397.73,-186.79 416.75,-197.25 426.63,-202.68 438.15,-206.63 448.98,-209.48"/>
<polygon fill="#63b8ff" stroke="#63b8ff" points="447.9,-212.82 458.44,-211.71 449.51,-206.01 447.9,-212.82"/>
</a>
</g>
</g>
<!-- Node9&#45;&gt;Node9 -->
<g id="edge9_Node000009_Node000009" class="edge">
<title>Node9&#45;&gt;Node9</title>
<g id="a_edge9_Node000009_Node000009"><a xlink:title=" ">
<path fill="none" stroke="#63b8ff" d="M459.96,-225.16C443.9,-234.05 453.29,-243.88 488.12,-243.88 512.07,-243.88 524,-239.23 523.89,-233.44"/>
<polygon fill="#63b8ff" stroke="#63b8ff" points="526.66,-231.28 517.32,-226.28 521.5,-236.01 526.66,-231.28"/>
</a>
</g>
</g>
<!-- Node10&#45;&gt;Node4 -->
<g id="edge11_Node000010_Node000004" class="edge">
<title>Node10&#45;&gt;Node4</title>
<g id="a_edge11_Node000010_Node000004"><a xlink:title=" ">
<path fill="none" stroke="#63b8ff" d="M352.21,-182.26C369.8,-180.3 389.71,-178.09 408.72,-175.97"/>
<polygon fill="#63b8ff" stroke="#63b8ff" points="409.05,-179.46 418.6,-174.87 408.27,-172.5 409.05,-179.46"/>
</a>
</g>
</g>
<!-- Node10&#45;&gt;Node5 -->
<g id="edge12_Node000010_Node000005" class="edge">
<title>Node10&#45;&gt;Node5</title>
<g id="a_edge12_Node000010_Node000005"><a xlink:title=" ">
<path fill="none" stroke="#63b8ff" d="M352.18,-175.62C361.93,-172.48 371.82,-168.71 380.75,-164.25 398.64,-155.31 399.07,-146.59 416.75,-137.25 419.3,-135.9 421.93,-134.61 424.63,-133.37"/>
<polygon fill="#63b8ff" stroke="#63b8ff" points="426,-136.59 433.82,-129.45 423.25,-130.15 426,-136.59"/>
</a>
</g>
</g>
<!-- Node10&#45;&gt;Node6 -->
<g id="edge13_Node000010_Node000006" class="edge">
<title>Node10&#45;&gt;Node6</title>
<g id="a_edge13_Node000010_Node000006"><a xlink:title=" ">
<path fill="none" stroke="#63b8ff" d="M352.19,-179.63C362.48,-176.12 372.57,-171.19 380.75,-164.25 408.95,-140.33 389.25,-113.97 416.75,-89.25 418.02,-88.11 419.34,-87.03 420.7,-85.99"/>
<polygon fill="#63b8ff" stroke="#63b8ff" points="422.51,-88.99 429.03,-80.64 418.72,-83.1 422.51,-88.99"/>
</a>
</g>
</g>
<!-- Node10&#45;&gt;Node8 -->
<g id="edge15_Node000010_Node000008" class="edge">
<title>Node10&#45;&gt;Node8</title>
<g id="a_edge15_Node000010_Node000008"><a xlink:title=" ">
<path fill="none" stroke="#63b8ff" d="M352.14,-199.12C362.1,-202.44 372.08,-206.73 380.75,-212.25 401.21,-225.27 396.59,-239.77 416.75,-253.25 418.37,-254.34 420.05,-255.38 421.77,-256.37"/>
<polygon fill="#63b8ff" stroke="#63b8ff" points="420.15,-259.48 430.64,-260.94 423.35,-253.25 420.15,-259.48"/>
</a>
</g>
</g>
<!-- Node10&#45;&gt;Node9 -->
<g id="edge16_Node000010_Node000009" class="edge">
<title>Node10&#45;&gt;Node9</title>
<g id="a_edge16_Node000010_Node000009"><a xlink:title=" ">
<path fill="none" stroke="#63b8ff" d="M352.21,-196.24C383.01,-200.8 420.91,-206.43 448.7,-210.55"/>
<polygon fill="#63b8ff" stroke="#63b8ff" points="448.03,-213.99 458.44,-211.99 449.06,-207.06 448.03,-213.99"/>
</a>
</g>
</g>
<!-- Node11 -->
<g id="Node000011" class="node">
<title>Node11</title>
<g id="a_Node000011"><a xlink:href="../../dd/d55/classml_1_1maths_1_1common_1_1_c_tools.html#ac3ef2df2cd1470db6ff9be51a0ea071b" target="_top" xlink:title=" ">
<polygon fill="white" stroke="#666666" points="559.5,-341.5 416.75,-341.5 416.75,-311 559.5,-311 559.5,-341.5"/>
<text text-anchor="start" x="424.75" y="-328" font-family="Helvetica,sans-Serif" font-size="10.00">ml::maths::common::</text>
<text text-anchor="middle" x="488.12" y="-316.75" font-family="Helvetica,sans-Serif" font-size="10.00">CTools::safeCdfComplement</text>
</a>
</g>
</g>
<!-- Node10&#45;&gt;Node11 -->
<g id="edge14_Node000010_Node000011" class="edge">
<title>Node10&#45;&gt;Node11</title>
<g id="a_edge14_Node000010_Node000011"><a xlink:title=" ">
<path fill="none" stroke="#63b8ff" d="M352.11,-196.33C362.52,-199.87 372.68,-204.96 380.75,-212.25 412.4,-240.86 385.94,-271.73 416.75,-301.25 417.8,-302.26 418.9,-303.23 420.03,-304.16"/>
<polygon fill="#63b8ff" stroke="#63b8ff" points="417.89,-306.93 428.12,-309.7 421.85,-301.16 417.89,-306.93"/>
</a>
</g>
</g>
</g>
</svg>
