<?xml version="1.0" encoding="UTF-8" standalone="no"?>
<!DOCTYPE svg PUBLIC "-//W3C//DTD SVG 1.1//EN"
 "http://www.w3.org/Graphics/SVG/1.1/DTD/svg11.dtd">
<!-- Generated by graphviz version 10.0.1 (20240210.2158)
 -->
<!-- Title: ml::maths::common::CMultivariateNormalConjugateFactory::nonInformative Pages: 1 -->
<!--zoomable 382 -->

<svg id="main" version="1.1" xmlns="http://www.w3.org/2000/svg" xmlns:xlink="http://www.w3.org/1999/xlink" xml:space="preserve" onload="init(evt)">
<style type="text/css"><![CDATA[
.node, .edge {opacity: 0.7;}
.node.selected, .edge.selected {opacity: 1;}
.edge:hover path { stroke: red; }
.edge:hover polygon { stroke: red; fill: red; }
]]></style>

<defs>
  <circle id="rim" cx="0" cy="0" r="7"/>
  <circle id="rim2" cx="0" cy="0" r="3.5"/>
  <g id="zoomPlus">
    <use xlink:href="#rim" fill="#404040"><set attributeName="fill" to="#808080" begin="zoomplus.mouseover" end="zoomplus.mouseout"/></use>
    <path d="M-4,0h8M0,-4v8" fill="none" stroke="white" stroke-width="1.5" pointer-events="none"/>
  </g>
  <g id="zoomMin">
    <use xlink:href="#rim" fill="#404040"><set attributeName="fill" to="#808080" begin="zoomminus.mouseover" end="zoomminus.mouseout"/></use>
    <path d="M-4,0h8" fill="none" stroke="white" stroke-width="1.5" pointer-events="none"/>
  </g>
  <g id="arrowUp" transform="translate(30 24)">
    <use xlink:href="#rim"/>
    <path pointer-events="none" fill="none" stroke="white" stroke-width="1.5" d="M0,-3.0v7 M-2.5,-0.5L0,-3.0L2.5,-0.5"/>
  </g>
  <g id="arrowRight" transform="rotate(90) translate(36 -43)">
    <use xlink:href="#rim"/>
    <path pointer-events="none" fill="none" stroke="white" stroke-width="1.5" d="M0,-3.0v7 M-2.5,-0.5L0,-3.0L2.5,-0.5"/>
  </g>
  <g id="arrowDown" transform="rotate(180) translate(-30 -48)">
    <use xlink:href="#rim"/>
    <path pointer-events="none" fill="none" stroke="white" stroke-width="1.5" d="M0,-3.0v7 M-2.5,-0.5L0,-3.0L2.5,-0.5"/>
  </g>
  <g id="arrowLeft" transform="rotate(270) translate(-36 17)">
    <use xlink:href="#rim"/>
    <path pointer-events="none" fill="none" stroke="white" stroke-width="1.5" d="M0,-3.0v7 M-2.5,-0.5L0,-3.0L2.5,-0.5"/>
  </g>
  <g id="resetDef">
    <use xlink:href="#rim2" fill="#404040"><set attributeName="fill" to="#808080" begin="reset.mouseover" end="reset.mouseout"/></use>
  </g>
</defs>
<script type="application/ecmascript">
var viewWidth = 757;
var viewHeight = 382;
var sectionId = 'dynsection-0';
</script>
<script type="application/ecmascript" xlink:href="../../svg.min.js"/>
<svg id="graph" class="graph">
<g id="viewport">
<title>ml::maths::common::CMultivariateNormalConjugateFactory::nonInformative</title>
<!-- Node1 -->
<g id="Node000001" class="node">
<title>Node1</title>
<g id="a_Node000001"><a xlink:title="Create a new non&#45;informative multivariate normal prior.">
<polygon fill="#999999" stroke="#666666" points="748.75,-330.12 599.25,-330.12 599.25,-288.38 748.75,-288.38 748.75,-330.12"/>
<text text-anchor="start" x="607.25" y="-316.62" font-family="Helvetica,sans-Serif" font-size="10.00">ml::maths::common::</text>
<text text-anchor="start" x="607.25" y="-305.38" font-family="Helvetica,sans-Serif" font-size="10.00">CMultivariateNormalConjugate</text>
<text text-anchor="middle" x="674" y="-294.12" font-family="Helvetica,sans-Serif" font-size="10.00">Factory::nonInformative</text>
</a>
</g>
</g>
<!-- Node2 -->
<g id="Node000002" class="node">
<title>Node2</title>
<g id="a_Node000002"><a xlink:href="../../dc/d5d/_c_multivariate_multimodal_prior_test_8cc.html#a774795705f2fde05e0c4ef08afa73952" target="_top" xlink:title=" ">
<polygon fill="white" stroke="#666666" points="563.25,-361.88 416,-361.88 416,-342.62 563.25,-342.62 563.25,-361.88"/>
<text text-anchor="middle" x="489.62" y="-348.38" font-family="Helvetica,sans-Serif" font-size="10.00">BOOST_AUTO_TEST_CASE</text>
</a>
</g>
</g>
<!-- Node1&#45;&gt;Node2 -->
<g id="edge1_Node000001_Node000002" class="edge">
<title>Node1&#45;&gt;Node2</title>
<g id="a_edge1_Node000001_Node000002"><a xlink:title=" ">
<path fill="none" stroke="#63b8ff" d="M587.76,-329.35C568.87,-333.8 549.64,-338.34 533.33,-342.18"/>
<polygon fill="#63b8ff" stroke="#63b8ff" points="588.42,-332.79 597.35,-327.09 586.81,-325.98 588.42,-332.79"/>
</a>
</g>
</g>
<!-- Node3 -->
<g id="Node000003" class="node">
<title>Node3</title>
<g id="a_Node000003"><a xlink:href="../../da/d0d/classml_1_1model_1_1_c_model_factory.html#a06f88dc8661011008746446c458a91e0" target="_top" xlink:title=" ">
<polygon fill="white" stroke="#666666" points="555.38,-324.5 423.88,-324.5 423.88,-294 555.38,-294 555.38,-324.5"/>
<text text-anchor="start" x="431.88" y="-311" font-family="Helvetica,sans-Serif" font-size="10.00">ml::model::CModelFactory</text>
<text text-anchor="middle" x="489.62" y="-299.75" font-family="Helvetica,sans-Serif" font-size="10.00">::latLongPrior</text>
</a>
</g>
</g>
<!-- Node1&#45;&gt;Node3 -->
<g id="edge2_Node000001_Node000003" class="edge">
<title>Node1&#45;&gt;Node3</title>
<g id="a_edge2_Node000001_Node000003"><a xlink:title=" ">
<path fill="none" stroke="#63b8ff" d="M587.33,-309.25C576.68,-309.25 565.93,-309.25 555.66,-309.25"/>
<polygon fill="#63b8ff" stroke="#63b8ff" points="587.31,-312.75 597.31,-309.25 587.31,-305.75 587.31,-312.75"/>
</a>
</g>
</g>
<!-- Node7 -->
<g id="Node000007" class="node">
<title>Node7</title>
<g id="a_Node000007"><a xlink:href="../../da/d0d/classml_1_1model_1_1_c_model_factory.html#a7aa272b13d821a7fd58daf9add869f28" target="_top" xlink:title=" ">
<polygon fill="white" stroke="#666666" points="555.38,-226.5 423.88,-226.5 423.88,-196 555.38,-196 555.38,-226.5"/>
<text text-anchor="start" x="431.88" y="-213" font-family="Helvetica,sans-Serif" font-size="10.00">ml::model::CModelFactory</text>
<text text-anchor="middle" x="489.62" y="-201.75" font-family="Helvetica,sans-Serif" font-size="10.00">::multivariateNormalPrior</text>
</a>
</g>
</g>
<!-- Node1&#45;&gt;Node7 -->
<g id="edge6_Node000001_Node000007" class="edge">
<title>Node1&#45;&gt;Node7</title>
<g id="a_edge6_Node000001_Node000007"><a xlink:title=" ">
<path fill="none" stroke="#63b8ff" d="M623.44,-282.62C590.19,-264.75 547.54,-241.83 519.67,-226.86"/>
<polygon fill="#63b8ff" stroke="#63b8ff" points="621.63,-285.62 632.09,-287.27 624.94,-279.45 621.63,-285.62"/>
</a>
</g>
</g>
<!-- Node4 -->
<g id="Node000004" class="node">
<title>Node4</title>
<g id="a_Node000004"><a xlink:href="../../db/d97/classml_1_1model_1_1_c_metric_model_factory.html#a08409a18c23d0057c80e75fcc5c75774" target="_top" xlink:title=" ">
<polygon fill="white" stroke="#666666" points="368.75,-373.5 210.25,-373.5 210.25,-343 368.75,-343 368.75,-373.5"/>
<text text-anchor="start" x="218.25" y="-360" font-family="Helvetica,sans-Serif" font-size="10.00">ml::model::CMetricModelFactory</text>
<text text-anchor="middle" x="289.5" y="-348.75" font-family="Helvetica,sans-Serif" font-size="10.00">::defaultMultivariatePrior</text>
</a>
</g>
</g>
<!-- Node3&#45;&gt;Node4 -->
<g id="edge3_Node000003_Node000004" class="edge">
<title>Node3&#45;&gt;Node4</title>
<g id="a_edge3_Node000003_Node000004"><a xlink:title=" ">
<path fill="none" stroke="#63b8ff" d="M413.99,-327.71C394.23,-332.6 373.09,-337.82 353.99,-342.55"/>
<polygon fill="#63b8ff" stroke="#63b8ff" points="414.78,-331.12 423.65,-325.32 413.1,-324.32 414.78,-331.12"/>
</a>
</g>
</g>
<!-- Node6 -->
<g id="Node000006" class="node">
<title>Node6</title>
<g id="a_Node000006"><a xlink:href="../../d4/db9/classml_1_1model_1_1_c_metric_population_model_factory.html#a2cd66121616e44c942e703b95a6e5bc7" target="_top" xlink:title=" ">
<polygon fill="white" stroke="#666666" points="380,-324.5 199,-324.5 199,-294 380,-294 380,-324.5"/>
<text text-anchor="start" x="207" y="-311" font-family="Helvetica,sans-Serif" font-size="10.00">ml::model::CMetricPopulation</text>
<text text-anchor="middle" x="289.5" y="-299.75" font-family="Helvetica,sans-Serif" font-size="10.00">ModelFactory::defaultMultivariatePrior</text>
</a>
</g>
</g>
<!-- Node3&#45;&gt;Node6 -->
<g id="edge5_Node000003_Node000006" class="edge">
<title>Node3&#45;&gt;Node6</title>
<g id="a_edge5_Node000003_Node000006"><a xlink:title=" ">
<path fill="none" stroke="#63b8ff" d="M411.99,-309.25C401.67,-309.25 391,-309.25 380.47,-309.25"/>
<polygon fill="#63b8ff" stroke="#63b8ff" points="411.96,-312.75 421.96,-309.25 411.96,-305.75 411.96,-312.75"/>
</a>
</g>
</g>
<!-- Node5 -->
<g id="Node000005" class="node">
<title>Node5</title>
<g id="a_Node000005"><a xlink:href="../../de/d77/_c_metric_model_test_8cc.html#a8c99a404d3b1252215e0de8accceccff" target="_top" xlink:title=" ">
<polygon fill="white" stroke="#666666" points="163,-367.88 0,-367.88 0,-348.62 163,-348.62 163,-367.88"/>
<text text-anchor="middle" x="81.5" y="-354.38" font-family="Helvetica,sans-Serif" font-size="10.00">BOOST_FIXTURE_TEST_CASE</text>
</a>
</g>
</g>
<!-- Node4&#45;&gt;Node5 -->
<g id="edge4_Node000004_Node000005" class="edge">
<title>Node4&#45;&gt;Node5</title>
<g id="a_edge4_Node000004_Node000005"><a xlink:title=" ">
<path fill="none" stroke="#63b8ff" d="M198.85,-358.25C187.09,-358.25 175.09,-358.25 163.48,-358.25"/>
<polygon fill="#63b8ff" stroke="#63b8ff" points="198.52,-361.75 208.52,-358.25 198.52,-354.75 198.52,-361.75"/>
</a>
</g>
</g>
<!-- Node7&#45;&gt;Node4 -->
<g id="edge13_Node000007_Node000004" class="edge">
<title>Node7&#45;&gt;Node4</title>
<g id="a_edge13_Node000007_Node000004"><a xlink:title=" ">
<path fill="none" stroke="#63b8ff" d="M464.1,-234.62C449.62,-248.82 431.2,-267.56 416,-285.25 398.62,-305.48 402.01,-318.2 380,-333.25 374.67,-336.89 368.83,-340.01 362.75,-342.67"/>
<polygon fill="#63b8ff" stroke="#63b8ff" points="466.3,-237.37 471.04,-227.89 461.42,-232.35 466.3,-237.37"/>
</a>
</g>
</g>
<!-- Node7&#45;&gt;Node6 -->
<g id="edge14_Node000007_Node000006" class="edge">
<title>Node7&#45;&gt;Node6</title>
<g id="a_edge14_Node000007_Node000006"><a xlink:title=" ">
<path fill="none" stroke="#63b8ff" d="M460.72,-233.67C439.61,-249.69 409.34,-270.72 380,-284.25 372.38,-287.76 364.17,-290.88 355.91,-293.62"/>
<polygon fill="#63b8ff" stroke="#63b8ff" points="462.76,-236.52 468.53,-227.64 458.48,-230.98 462.76,-236.52"/>
</a>
</g>
</g>
<!-- Node8 -->
<g id="Node000008" class="node">
<title>Node8</title>
<g id="a_Node000008"><a xlink:href="../../d9/db0/classml_1_1model_1_1_c_event_rate_model_factory.html#a3d3de4d332302fe71340e515251f1497" target="_top" xlink:title=" ">
<polygon fill="white" stroke="#666666" points="362,-275.5 217,-275.5 217,-245 362,-245 362,-275.5"/>
<text text-anchor="start" x="225" y="-262" font-family="Helvetica,sans-Serif" font-size="10.00">ml::model::CEventRateModel</text>
<text text-anchor="middle" x="289.5" y="-250.75" font-family="Helvetica,sans-Serif" font-size="10.00">Factory::defaultCorrelatePrior</text>
</a>
</g>
</g>
<!-- Node7&#45;&gt;Node8 -->
<g id="edge7_Node000007_Node000008" class="edge">
<title>Node7&#45;&gt;Node8</title>
<g id="a_edge7_Node000007_Node000008"><a xlink:title=" ">
<path fill="none" stroke="#63b8ff" d="M413.99,-229.71C394.23,-234.6 373.09,-239.82 353.99,-244.55"/>
<polygon fill="#63b8ff" stroke="#63b8ff" points="414.78,-233.12 423.65,-227.32 413.1,-226.32 414.78,-233.12"/>
</a>
</g>
</g>
<!-- Node9 -->
<g id="Node000009" class="node">
<title>Node9</title>
<g id="a_Node000009"><a xlink:href="../../df/dad/classml_1_1model_1_1_c_event_rate_population_model_factory.html#a18acb8456140c087529e081c2fb5f85c" target="_top" xlink:title=" ">
<polygon fill="white" stroke="#666666" points="374.75,-226.5 204.25,-226.5 204.25,-196 374.75,-196 374.75,-226.5"/>
<text text-anchor="start" x="212.25" y="-213" font-family="Helvetica,sans-Serif" font-size="10.00">ml::model::CEventRatePopulation</text>
<text text-anchor="middle" x="289.5" y="-201.75" font-family="Helvetica,sans-Serif" font-size="10.00">ModelFactory::defaultCorrelatePrior</text>
</a>
</g>
</g>
<!-- Node7&#45;&gt;Node9 -->
<g id="edge8_Node000007_Node000009" class="edge">
<title>Node7&#45;&gt;Node9</title>
<g id="a_edge8_Node000007_Node000009"><a xlink:title=" ">
<path fill="none" stroke="#63b8ff" d="M412.06,-211.25C399.97,-211.25 387.4,-211.25 375.14,-211.25"/>
<polygon fill="#63b8ff" stroke="#63b8ff" points="411.96,-214.75 421.96,-211.25 411.96,-207.75 411.96,-214.75"/>
</a>
</g>
</g>
<!-- Node10 -->
<g id="Node000010" class="node">
<title>Node10</title>
<g id="a_Node000010"><a xlink:href="../../db/d97/classml_1_1model_1_1_c_metric_model_factory.html#aa7b86886ff6219f20d92ef2bd9c1fbc5" target="_top" xlink:title=" ">
<polygon fill="white" stroke="#666666" points="368.75,-177.5 210.25,-177.5 210.25,-147 368.75,-147 368.75,-177.5"/>
<text text-anchor="start" x="218.25" y="-164" font-family="Helvetica,sans-Serif" font-size="10.00">ml::model::CMetricModelFactory</text>
<text text-anchor="middle" x="289.5" y="-152.75" font-family="Helvetica,sans-Serif" font-size="10.00">::defaultCorrelatePrior</text>
</a>
</g>
</g>
<!-- Node7&#45;&gt;Node10 -->
<g id="edge9_Node000007_Node000010" class="edge">
<title>Node7&#45;&gt;Node10</title>
<g id="a_edge9_Node000007_Node000010"><a xlink:title=" ">
<path fill="none" stroke="#63b8ff" d="M413.99,-192.79C394.23,-187.9 373.09,-182.68 353.99,-177.95"/>
<polygon fill="#63b8ff" stroke="#63b8ff" points="413.1,-196.18 423.65,-195.18 414.78,-189.38 413.1,-196.18"/>
</a>
</g>
</g>
<!-- Node11 -->
<g id="Node000011" class="node">
<title>Node11</title>
<g id="a_Node000011"><a xlink:href="../../d4/db9/classml_1_1model_1_1_c_metric_population_model_factory.html#a82d070ccd1a649269177a7428f34bc07" target="_top" xlink:title=" ">
<polygon fill="white" stroke="#666666" points="374.75,-128.5 204.25,-128.5 204.25,-98 374.75,-98 374.75,-128.5"/>
<text text-anchor="start" x="212.25" y="-115" font-family="Helvetica,sans-Serif" font-size="10.00">ml::model::CMetricPopulation</text>
<text text-anchor="middle" x="289.5" y="-103.75" font-family="Helvetica,sans-Serif" font-size="10.00">ModelFactory::defaultCorrelatePrior</text>
</a>
</g>
</g>
<!-- Node7&#45;&gt;Node11 -->
<g id="edge10_Node000007_Node000011" class="edge">
<title>Node7&#45;&gt;Node11</title>
<g id="a_edge10_Node000007_Node000011"><a xlink:title=" ">
<path fill="none" stroke="#63b8ff" d="M460.72,-188.83C439.61,-172.81 409.34,-151.78 380,-138.25 372.38,-134.74 364.17,-131.62 355.91,-128.88"/>
<polygon fill="#63b8ff" stroke="#63b8ff" points="458.48,-191.52 468.53,-194.86 462.76,-185.98 458.48,-191.52"/>
</a>
</g>
</g>
<!-- Node12 -->
<g id="Node000012" class="node">
<title>Node12</title>
<g id="a_Node000012"><a xlink:href="../../d9/db0/classml_1_1model_1_1_c_event_rate_model_factory.html#a90e79691642800c7a9cefc02e8905339" target="_top" xlink:title=" ">
<polygon fill="white" stroke="#666666" points="366.88,-79.5 212.12,-79.5 212.12,-49 366.88,-49 366.88,-79.5"/>
<text text-anchor="start" x="220.12" y="-66" font-family="Helvetica,sans-Serif" font-size="10.00">ml::model::CEventRateModel</text>
<text text-anchor="middle" x="289.5" y="-54.75" font-family="Helvetica,sans-Serif" font-size="10.00">Factory::defaultMultivariatePrior</text>
</a>
</g>
</g>
<!-- Node7&#45;&gt;Node12 -->
<g id="edge11_Node000007_Node000012" class="edge">
<title>Node7&#45;&gt;Node12</title>
<g id="a_edge11_Node000007_Node000012"><a xlink:title=" ">
<path fill="none" stroke="#63b8ff" d="M472.78,-186.13C453.98,-158.36 420.07,-114.25 380,-89.25 374.25,-85.66 367.98,-82.58 361.51,-79.93"/>
<polygon fill="#63b8ff" stroke="#63b8ff" points="469.74,-187.88 478.18,-194.29 475.58,-184.02 469.74,-187.88"/>
</a>
</g>
</g>
<!-- Node13 -->
<g id="Node000013" class="node">
<title>Node13</title>
<g id="a_Node000013"><a xlink:href="../../df/dad/classml_1_1model_1_1_c_event_rate_population_model_factory.html#ade1ceda9bc3f003a345ef030cc391489" target="_top" xlink:title=" ">
<polygon fill="white" stroke="#666666" points="380,-30.5 199,-30.5 199,0 380,0 380,-30.5"/>
<text text-anchor="start" x="207" y="-17" font-family="Helvetica,sans-Serif" font-size="10.00">ml::model::CEventRatePopulation</text>
<text text-anchor="middle" x="289.5" y="-5.75" font-family="Helvetica,sans-Serif" font-size="10.00">ModelFactory::defaultMultivariatePrior</text>
</a>
</g>
</g>
<!-- Node7&#45;&gt;Node13 -->
<g id="edge12_Node000007_Node000013" class="edge">
<title>Node7&#45;&gt;Node13</title>
<g id="a_edge12_Node000007_Node000013"><a xlink:title=" ">
<path fill="none" stroke="#63b8ff" d="M479,-184.89C463.84,-147.11 430.8,-77.96 380,-40.25 375.08,-36.6 369.64,-33.48 363.96,-30.81"/>
<polygon fill="#63b8ff" stroke="#63b8ff" points="475.7,-186.07 482.58,-194.13 482.23,-183.54 475.7,-186.07"/>
</a>
</g>
</g>
</g>
</svg>

<g id="navigator" transform="translate(0 0)" fill="#404254">
  <rect fill="#f2f5e9" fill-opacity="0.5" stroke="#606060" stroke-width=".5" x="0" y="0" width="60" height="60"/>
  <use id="zoomplus" xlink:href="#zoomPlus" x="17" y="9" onmousedown="handleZoom(evt,'in')"/>
  <use id="zoomminus" xlink:href="#zoomMin" x="42" y="9" onmousedown="handleZoom(evt,'out')"/>
  <use id="reset" xlink:href="#resetDef" x="30" y="36" onmousedown="handleReset()"/>
   <use id="arrowup" xlink:href="#arrowUp" x="0" y="0" onmousedown="handlePan(0,-1)"/>
  <use id="arrowright" xlink:href="#arrowRight" x="0" y="0" onmousedown="handlePan(1,0)"/>
  <use id="arrowdown" xlink:href="#arrowDown" x="0" y="0" onmousedown="handlePan(0,1)"/>
  <use id="arrowleft" xlink:href="#arrowLeft" x="0" y="0" onmousedown="handlePan(-1,0)"/>
</g>
<svg viewBox="0 0 15 15" width="100%" height="30px" preserveAspectRatio="xMaxYMin meet">
 <g id="arrow_out" transform="scale(0.3 0.3)">
  <a xlink:href="classml_1_1maths_1_1common_1_1_c_multivariate_normal_conjugate_factory_a4ac9fcb997cb27402ebc945a7ef78f1f_icgraph_org.svg" target="_base">
   <rect id="button" ry="5" rx="5" y="6" x="6" height="38" width="38"
        fill="#f2f5e9" fill-opacity="0.5" stroke="#606060" stroke-width="1.0"/>
   <path id="arrow"
     d="M 11.500037,31.436501 C 11.940474,20.09759 22.043105,11.32322 32.158766,21.979434 L 37.068811,17.246167 C 37.068811,17.246167 37.088388,32 37.088388,32 L 22.160133,31.978069 C 22.160133,31.978069 26.997745,27.140456 26.997745,27.140456 C 18.528582,18.264221 13.291696,25.230495 11.500037,31.436501 z"
     style="fill:#404040;"/>
  </a>
 </g>
</svg>

<style type='text/css'>
<![CDATA[
[data-mouse-over-selected='false'] { opacity: 0.7; }
[data-mouse-over-selected='true']  { opacity: 1.0; }
]]>
</style>
<script type="application/ecmascript"><![CDATA[
document.addEventListener('DOMContentLoaded', (event) => {
  highlightEdges();
  highlightAdjacentNodes();
});
]]></script>
</svg>
