<?xml version="1.0" encoding="UTF-8" standalone="no"?>
<!DOCTYPE svg PUBLIC "-//W3C//DTD SVG 1.1//EN"
 "http://www.w3.org/Graphics/SVG/1.1/DTD/svg11.dtd">
<!-- Generated by graphviz version 10.0.1 (20240210.2158)
 -->
<!-- Title: ml::maths::common::CMultinomialConjugate::CMultinomialConjugate Pages: 1 -->
<svg width="331pt" height="88pt"
 viewBox="0.00 0.00 331.00 87.50" xmlns="http://www.w3.org/2000/svg" xmlns:xlink="http://www.w3.org/1999/xlink">
<g id="graph0" class="graph" transform="scale(1 1) rotate(0) translate(4 83.5)">
<title>ml::maths::common::CMultinomialConjugate::CMultinomialConjugate</title>
<!-- Node1 -->
<g id="Node000001" class="node">
<title>Node1</title>
<g id="a_Node000001"><a xlink:title="Construct from part of an state document.">
<polygon fill="#999999" stroke="#666666" points="123.25,-60.12 0,-60.12 0,-18.38 123.25,-18.38 123.25,-60.12"/>
<text text-anchor="start" x="8" y="-46.62" font-family="Helvetica,sans-Serif" font-size="10.00">ml::maths::common::</text>
<text text-anchor="start" x="8" y="-35.38" font-family="Helvetica,sans-Serif" font-size="10.00">CMultinomialConjugate</text>
<text text-anchor="middle" x="61.62" y="-24.12" font-family="Helvetica,sans-Serif" font-size="10.00">::CMultinomialConjugate</text>
</a>
</g>
</g>
<!-- Node2 -->
<g id="Node000002" class="node">
<title>Node2</title>
<g id="a_Node000002"><a xlink:href="../../d2/d3f/classml_1_1core_1_1_c_state_restore_traverser.html#aca803b26910f74a487f9dfd94ab7d305" target="_top" xlink:title=" ">
<polygon fill="white" stroke="#666666" points="323,-79.5 159.25,-79.5 159.25,-49 323,-49 323,-79.5"/>
<text text-anchor="start" x="167.25" y="-66" font-family="Helvetica,sans-Serif" font-size="10.00">ml::core::CStateRestoreTraverser</text>
<text text-anchor="middle" x="241.12" y="-54.75" font-family="Helvetica,sans-Serif" font-size="10.00">::setBadState</text>
</a>
</g>
</g>
<!-- Node1&#45;&gt;Node2 -->
<g id="edge1_Node000001_Node000002" class="edge">
<title>Node1&#45;&gt;Node2</title>
<g id="a_edge1_Node000001_Node000002"><a xlink:title=" ">
<path fill="none" stroke="#63b8ff" d="M123.71,-47.85C131.41,-48.94 139.42,-50.07 147.48,-51.2"/>
<polygon fill="#63b8ff" stroke="#63b8ff" points="146.98,-54.66 157.37,-52.59 147.95,-47.73 146.98,-54.66"/>
</a>
</g>
</g>
<!-- Node3 -->
<g id="Node000003" class="node">
<title>Node3</title>
<g id="a_Node000003"><a xlink:href="../../d2/d3f/classml_1_1core_1_1_c_state_restore_traverser.html#a210456e80c83786dec276d39556fd9e4" target="_top" xlink:title=" ">
<polygon fill="white" stroke="#666666" points="323,-30.5 159.25,-30.5 159.25,0 323,0 323,-30.5"/>
<text text-anchor="start" x="167.25" y="-17" font-family="Helvetica,sans-Serif" font-size="10.00">ml::core::CStateRestoreTraverser</text>
<text text-anchor="middle" x="241.12" y="-5.75" font-family="Helvetica,sans-Serif" font-size="10.00">::traverseSubLevel</text>
</a>
</g>
</g>
<!-- Node1&#45;&gt;Node3 -->
<g id="edge2_Node000001_Node000003" class="edge">
<title>Node1&#45;&gt;Node3</title>
<g id="a_edge2_Node000001_Node000003"><a xlink:title=" ">
<path fill="none" stroke="#63b8ff" d="M123.71,-30.99C131.41,-29.95 139.42,-28.87 147.48,-27.78"/>
<polygon fill="#63b8ff" stroke="#63b8ff" points="147.92,-31.25 157.36,-26.44 146.99,-24.31 147.92,-31.25"/>
</a>
</g>
</g>
</g>
</svg>
