<?xml version="1.0" encoding="UTF-8" standalone="no"?>
<!DOCTYPE svg PUBLIC "-//W3C//DTD SVG 1.1//EN"
 "http://www.w3.org/Graphics/SVG/1.1/DTD/svg11.dtd">
<!-- Generated by graphviz version 10.0.1 (20240210.2158)
 -->
<!-- Title: include/core/BoostMultiIndex.h Pages: 1 -->
<svg width="1012pt" height="382pt"
 viewBox="0.00 0.00 1012.38 382.25" xmlns="http://www.w3.org/2000/svg" xmlns:xlink="http://www.w3.org/1999/xlink">
<g id="graph0" class="graph" transform="scale(1 1) rotate(0) translate(4 378.25)">
<title>include/core/BoostMultiIndex.h</title>
<!-- Node1 -->
<g id="Node000001" class="node">
<title>Node1</title>
<g id="a_Node000001"><a xlink:title=" ">
<polygon fill="#999999" stroke="#666666" points="807.62,-374.25 657.38,-374.25 657.38,-355 807.62,-355 807.62,-374.25"/>
<text text-anchor="middle" x="732.5" y="-360.75" font-family="Helvetica,sans-Serif" font-size="10.00">include/core/BoostMultiIndex.h</text>
</a>
</g>
</g>
<!-- Node2 -->
<g id="Node000002" class="node">
<title>Node2</title>
<g id="a_Node000002"><a xlink:href="../../d3/d88/_c_memory_def_multi_index_8h.html" target="_top" xlink:title=" ">
<polygon fill="white" stroke="#666666" points="650,-319 499,-319 499,-288.5 650,-288.5 650,-319"/>
<text text-anchor="start" x="507" y="-305.5" font-family="Helvetica,sans-Serif" font-size="10.00">include/core/CMemoryDefMulti</text>
<text text-anchor="middle" x="574.5" y="-294.25" font-family="Helvetica,sans-Serif" font-size="10.00">Index.h</text>
</a>
</g>
</g>
<!-- Node1&#45;&gt;Node2 -->
<g id="edge1_Node000001_Node000002" class="edge">
<title>Node1&#45;&gt;Node2</title>
<g id="a_edge1_Node000001_Node000002"><a xlink:title=" ">
<path fill="none" stroke="#63b8ff" d="M697.45,-350.56C672.73,-341.35 639.58,-329 613.94,-319.44"/>
<polygon fill="#63b8ff" stroke="#63b8ff" points="696.15,-353.81 706.74,-354.03 698.59,-347.25 696.15,-353.81"/>
</a>
</g>
</g>
<!-- Node5 -->
<g id="Node000005" class="node">
<title>Node5</title>
<g id="a_Node000005"><a xlink:href="../../de/d59/_c_token_list_data_categorizer_base_8h.html" target="_top" xlink:title=" ">
<polygon fill="white" stroke="#666666" points="796.75,-319 668.25,-319 668.25,-288.5 796.75,-288.5 796.75,-319"/>
<text text-anchor="start" x="676.25" y="-305.5" font-family="Helvetica,sans-Serif" font-size="10.00">include/model/CTokenList</text>
<text text-anchor="middle" x="732.5" y="-294.25" font-family="Helvetica,sans-Serif" font-size="10.00">DataCategorizerBase.h</text>
</a>
</g>
</g>
<!-- Node1&#45;&gt;Node5 -->
<g id="edge4_Node000001_Node000005" class="edge">
<title>Node1&#45;&gt;Node5</title>
<g id="a_edge4_Node000001_Node000005"><a xlink:title=" ">
<path fill="none" stroke="#63b8ff" d="M732.5,-343.42C732.5,-335.49 732.5,-326.56 732.5,-319.28"/>
<polygon fill="#63b8ff" stroke="#63b8ff" points="729,-343.17 732.5,-353.17 736,-343.17 729,-343.17"/>
</a>
</g>
</g>
<!-- Node22 -->
<g id="Node000022" class="node">
<title>Node22</title>
<g id="a_Node000022"><a xlink:href="../../d1/dff/_c_container_throughput_test_8cc.html" target="_top" xlink:title=" ">
<polygon fill="white" stroke="#666666" points="950.12,-319 814.88,-319 814.88,-288.5 950.12,-288.5 950.12,-319"/>
<text text-anchor="start" x="822.88" y="-305.5" font-family="Helvetica,sans-Serif" font-size="10.00">lib/core/unittest/CContainer</text>
<text text-anchor="middle" x="882.5" y="-294.25" font-family="Helvetica,sans-Serif" font-size="10.00">ThroughputTest.cc</text>
</a>
</g>
</g>
<!-- Node1&#45;&gt;Node22 -->
<g id="edge23_Node000001_Node000022" class="edge">
<title>Node1&#45;&gt;Node22</title>
<g id="a_edge23_Node000001_Node000022"><a xlink:title=" ">
<path fill="none" stroke="#63b8ff" d="M766.09,-350.44C789.53,-341.24 820.82,-328.96 845.06,-319.44"/>
<polygon fill="#63b8ff" stroke="#63b8ff" points="765.05,-347.09 757.02,-354 767.61,-353.61 765.05,-347.09"/>
</a>
</g>
</g>
<!-- Node3 -->
<g id="Node000003" class="node">
<title>Node3</title>
<g id="a_Node000003"><a xlink:href="../../dd/da1/_c_token_list_data_categorizer_base_8cc.html" target="_top" xlink:title=" ">
<polygon fill="white" stroke="#666666" points="649.75,-246.88 521.25,-246.88 521.25,-216.38 649.75,-216.38 649.75,-246.88"/>
<text text-anchor="start" x="529.25" y="-233.38" font-family="Helvetica,sans-Serif" font-size="10.00">lib/model/CTokenListData</text>
<text text-anchor="middle" x="585.5" y="-222.12" font-family="Helvetica,sans-Serif" font-size="10.00">CategorizerBase.cc</text>
</a>
</g>
</g>
<!-- Node2&#45;&gt;Node3 -->
<g id="edge2_Node000002_Node000003" class="edge">
<title>Node2&#45;&gt;Node3</title>
<g id="a_edge2_Node000002_Node000003"><a xlink:title=" ">
<path fill="none" stroke="#63b8ff" d="M578.52,-277.1C580.11,-267.01 581.87,-255.78 583.22,-247.14"/>
<polygon fill="#63b8ff" stroke="#63b8ff" points="575.11,-276.3 577.01,-286.72 582.02,-277.39 575.11,-276.3"/>
</a>
</g>
</g>
<!-- Node4 -->
<g id="Node000004" class="node">
<title>Node4</title>
<g id="a_Node000004"><a xlink:href="../../d7/dda/_s_model_params_8cc.html" target="_top" xlink:title=" ">
<polygon fill="white" stroke="#666666" points="503.62,-241.25 365.38,-241.25 365.38,-222 503.62,-222 503.62,-241.25"/>
<text text-anchor="middle" x="434.5" y="-227.75" font-family="Helvetica,sans-Serif" font-size="10.00">lib/model/SModelParams.cc</text>
</a>
</g>
</g>
<!-- Node2&#45;&gt;Node4 -->
<g id="edge3_Node000002_Node000004" class="edge">
<title>Node2&#45;&gt;Node4</title>
<g id="a_edge3_Node000002_Node000004"><a xlink:title=" ">
<path fill="none" stroke="#63b8ff" d="M535.21,-283.07C508.17,-269.52 473.5,-252.16 452.7,-241.74"/>
<polygon fill="#63b8ff" stroke="#63b8ff" points="533.29,-286.02 543.8,-287.37 536.42,-279.76 533.29,-286.02"/>
</a>
</g>
</g>
<!-- Node5&#45;&gt;Node3 -->
<g id="edge21_Node000005_Node000003" class="edge">
<title>Node5&#45;&gt;Node3</title>
<g id="a_edge21_Node000005_Node000003"><a xlink:title=" ">
<path fill="none" stroke="#63b8ff" d="M691.52,-283.2C667.68,-271.83 638.12,-257.73 616.28,-247.31"/>
<polygon fill="#63b8ff" stroke="#63b8ff" points="689.79,-286.25 700.32,-287.4 692.8,-279.93 689.79,-286.25"/>
</a>
</g>
</g>
<!-- Node6 -->
<g id="Node000006" class="node">
<title>Node6</title>
<g id="a_Node000006"><a xlink:href="../../d3/df2/_c_token_list_data_categorizer_8h.html" target="_top" xlink:title=" ">
<polygon fill="white" stroke="#666666" points="796.75,-246.88 668.25,-246.88 668.25,-216.38 796.75,-216.38 796.75,-246.88"/>
<text text-anchor="start" x="676.25" y="-233.38" font-family="Helvetica,sans-Serif" font-size="10.00">include/model/CTokenList</text>
<text text-anchor="middle" x="732.5" y="-222.12" font-family="Helvetica,sans-Serif" font-size="10.00">DataCategorizer.h</text>
</a>
</g>
</g>
<!-- Node5&#45;&gt;Node6 -->
<g id="edge5_Node000005_Node000006" class="edge">
<title>Node5&#45;&gt;Node6</title>
<g id="a_edge5_Node000005_Node000006"><a xlink:title=" ">
<path fill="none" stroke="#63b8ff" d="M732.5,-276.77C732.5,-266.76 732.5,-255.69 732.5,-247.14"/>
<polygon fill="#63b8ff" stroke="#63b8ff" points="729,-276.71 732.5,-286.71 736,-276.71 729,-276.71"/>
</a>
</g>
</g>
<!-- Node21 -->
<g id="Node000021" class="node">
<title>Node21</title>
<g id="a_Node000021"><a xlink:href="../../d5/dc1/_c_token_list_data_categorizer_base_test_8cc.html" target="_top" xlink:title=" ">
<polygon fill="white" stroke="#666666" points="954.38,-252.5 814.62,-252.5 814.62,-210.75 954.38,-210.75 954.38,-252.5"/>
<text text-anchor="start" x="822.62" y="-239" font-family="Helvetica,sans-Serif" font-size="10.00">lib/model/unittest</text>
<text text-anchor="start" x="822.62" y="-227.75" font-family="Helvetica,sans-Serif" font-size="10.00">/CTokenListDataCategorizer</text>
<text text-anchor="middle" x="884.5" y="-216.5" font-family="Helvetica,sans-Serif" font-size="10.00">BaseTest.cc</text>
</a>
</g>
</g>
<!-- Node5&#45;&gt;Node21 -->
<g id="edge22_Node000005_Node000021" class="edge">
<title>Node5&#45;&gt;Node21</title>
<g id="a_edge22_Node000005_Node000021"><a xlink:title=" ">
<path fill="none" stroke="#63b8ff" d="M774.67,-283.29C795.19,-273.83 819.83,-262.46 840.57,-252.89"/>
<polygon fill="#63b8ff" stroke="#63b8ff" points="773.35,-280.05 765.74,-287.42 776.28,-286.4 773.35,-280.05"/>
</a>
</g>
</g>
<!-- Node7 -->
<g id="Node000007" class="node">
<title>Node7</title>
<g id="a_Node000007"><a xlink:href="../../d6/dc2/_c_field_data_categorizer_8h.html" target="_top" xlink:title=" ">
<polygon fill="white" stroke="#666666" points="574.88,-163.5 402.12,-163.5 402.12,-144.25 574.88,-144.25 574.88,-163.5"/>
<text text-anchor="middle" x="488.5" y="-150" font-family="Helvetica,sans-Serif" font-size="10.00">include/api/CFieldDataCategorizer.h</text>
</a>
</g>
</g>
<!-- Node6&#45;&gt;Node7 -->
<g id="edge6_Node000006_Node000007" class="edge">
<title>Node6&#45;&gt;Node7</title>
<g id="a_edge6_Node000006_Node000007"><a xlink:title=" ">
<path fill="none" stroke="#63b8ff" d="M674.32,-212.56C624.98,-197.25 556.25,-175.91 517.71,-163.94"/>
<polygon fill="#63b8ff" stroke="#63b8ff" points="673.13,-215.86 683.72,-215.48 675.21,-209.17 673.13,-215.86"/>
</a>
</g>
</g>
<!-- Node12 -->
<g id="Node000012" class="node">
<title>Node12</title>
<g id="a_Node000012"><a xlink:href="../../de/dd5/_c_single_field_data_categorizer_test_8cc.html" target="_top" xlink:title=" ">
<polygon fill="white" stroke="#666666" points="839.75,-97 699.25,-97 699.25,-66.5 839.75,-66.5 839.75,-97"/>
<text text-anchor="start" x="707.25" y="-83.5" font-family="Helvetica,sans-Serif" font-size="10.00">lib/api/unittest/CSingle</text>
<text text-anchor="middle" x="769.5" y="-72.25" font-family="Helvetica,sans-Serif" font-size="10.00">FieldDataCategorizerTest.cc</text>
</a>
</g>
</g>
<!-- Node6&#45;&gt;Node12 -->
<g id="edge18_Node000006_Node000012" class="edge">
<title>Node6&#45;&gt;Node12</title>
<g id="a_edge18_Node000006_Node000012"><a xlink:title=" ">
<path fill="none" stroke="#63b8ff" d="M716.49,-206.42C705.2,-186.11 693.97,-156.7 705.5,-133 712.91,-117.75 727.44,-105.76 740.78,-97.32"/>
<polygon fill="#63b8ff" stroke="#63b8ff" points="713.37,-208.04 721.5,-214.84 719.39,-204.45 713.37,-208.04"/>
</a>
</g>
</g>
<!-- Node19 -->
<g id="Node000019" class="node">
<title>Node19</title>
<g id="a_Node000019"><a xlink:href="../../d3/d6e/_c_resource_monitor_test_8cc.html" target="_top" xlink:title=" ">
<polygon fill="white" stroke="#666666" points="847,-169.12 714,-169.12 714,-138.62 847,-138.62 847,-169.12"/>
<text text-anchor="start" x="722" y="-155.62" font-family="Helvetica,sans-Serif" font-size="10.00">lib/model/unittest</text>
<text text-anchor="middle" x="780.5" y="-144.38" font-family="Helvetica,sans-Serif" font-size="10.00">/CResourceMonitorTest.cc</text>
</a>
</g>
</g>
<!-- Node6&#45;&gt;Node19 -->
<g id="edge19_Node000006_Node000019" class="edge">
<title>Node6&#45;&gt;Node19</title>
<g id="a_edge19_Node000006_Node000019"><a xlink:title=" ">
<path fill="none" stroke="#63b8ff" d="M747.83,-206.44C755.54,-194.26 764.64,-179.9 771.27,-169.44"/>
<polygon fill="#63b8ff" stroke="#63b8ff" points="744.96,-204.42 742.57,-214.74 750.87,-208.17 744.96,-204.42"/>
</a>
</g>
</g>
<!-- Node20 -->
<g id="Node000020" class="node">
<title>Node20</title>
<g id="a_Node000020"><a xlink:href="../../db/d4f/_c_token_list_data_categorizer_test_8cc.html" target="_top" xlink:title=" ">
<polygon fill="white" stroke="#666666" points="1004.38,-174.75 864.62,-174.75 864.62,-133 1004.38,-133 1004.38,-174.75"/>
<text text-anchor="start" x="872.62" y="-161.25" font-family="Helvetica,sans-Serif" font-size="10.00">lib/model/unittest</text>
<text text-anchor="start" x="872.62" y="-150" font-family="Helvetica,sans-Serif" font-size="10.00">/CTokenListDataCategorizer</text>
<text text-anchor="middle" x="934.5" y="-138.75" font-family="Helvetica,sans-Serif" font-size="10.00">Test.cc</text>
</a>
</g>
</g>
<!-- Node6&#45;&gt;Node20 -->
<g id="edge20_Node000006_Node000020" class="edge">
<title>Node6&#45;&gt;Node20</title>
<g id="a_edge20_Node000006_Node000020"><a xlink:title=" ">
<path fill="none" stroke="#63b8ff" d="M782.03,-212.05C811.84,-200.87 849.81,-186.63 880.4,-175.16"/>
<polygon fill="#63b8ff" stroke="#63b8ff" points="781,-208.7 772.86,-215.49 783.46,-215.25 781,-208.7"/>
</a>
</g>
</g>
<!-- Node8 -->
<g id="Node000008" class="node">
<title>Node8</title>
<g id="a_Node000008"><a xlink:href="../../d2/dab/bin_2autodetect_2_main_8cc.html" target="_top" xlink:title=" ">
<polygon fill="white" stroke="#666666" points="115,-91.38 0,-91.38 0,-72.12 115,-72.12 115,-91.38"/>
<text text-anchor="middle" x="57.5" y="-77.88" font-family="Helvetica,sans-Serif" font-size="10.00">bin/autodetect/Main.cc</text>
</a>
</g>
</g>
<!-- Node7&#45;&gt;Node8 -->
<g id="edge7_Node000007_Node000008" class="edge">
<title>Node7&#45;&gt;Node8</title>
<g id="a_edge7_Node000007_Node000008"><a xlink:title=" ">
<path fill="none" stroke="#63b8ff" d="M410.5,-142.22C336.65,-131.82 222.75,-114.97 124.5,-97 116.08,-95.46 107.09,-93.66 98.53,-91.86"/>
<polygon fill="#63b8ff" stroke="#63b8ff" points="409.67,-145.64 420.05,-143.56 410.64,-138.7 409.67,-145.64"/>
</a>
</g>
</g>
<!-- Node9 -->
<g id="Node000009" class="node">
<title>Node9</title>
<g id="a_Node000009"><a xlink:href="../../de/d5e/bin_2categorize_2_main_8cc.html" target="_top" xlink:title=" ">
<polygon fill="white" stroke="#666666" points="247.62,-91.38 133.38,-91.38 133.38,-72.12 247.62,-72.12 247.62,-91.38"/>
<text text-anchor="middle" x="190.5" y="-77.88" font-family="Helvetica,sans-Serif" font-size="10.00">bin/categorize/Main.cc</text>
</a>
</g>
</g>
<!-- Node7&#45;&gt;Node9 -->
<g id="edge8_Node000007_Node000009" class="edge">
<title>Node7&#45;&gt;Node9</title>
<g id="a_edge8_Node000007_Node000009"><a xlink:title=" ">
<path fill="none" stroke="#63b8ff" d="M438.94,-141.21C379.97,-127.34 282.75,-104.46 229.08,-91.83"/>
<polygon fill="#63b8ff" stroke="#63b8ff" points="437.84,-144.55 448.37,-143.43 439.44,-137.73 437.84,-144.55"/>
</a>
</g>
</g>
<!-- Node10 -->
<g id="Node000010" class="node">
<title>Node10</title>
<g id="a_Node000010"><a xlink:href="../../d5/d77/_c_field_data_categorizer_8cc.html" target="_top" xlink:title=" ">
<polygon fill="white" stroke="#666666" points="423,-91.38 266,-91.38 266,-72.12 423,-72.12 423,-91.38"/>
<text text-anchor="middle" x="344.5" y="-77.88" font-family="Helvetica,sans-Serif" font-size="10.00">lib/api/CFieldDataCategorizer.cc</text>
</a>
</g>
</g>
<!-- Node7&#45;&gt;Node10 -->
<g id="edge9_Node000007_Node000010" class="edge">
<title>Node7&#45;&gt;Node10</title>
<g id="a_edge9_Node000007_Node000010"><a xlink:title=" ">
<path fill="none" stroke="#63b8ff" d="M459.71,-138.86C430.9,-124.83 387.44,-103.66 362.96,-91.74"/>
<polygon fill="#63b8ff" stroke="#63b8ff" points="458.09,-141.96 468.61,-143.19 461.15,-135.66 458.09,-141.96"/>
</a>
</g>
</g>
<!-- Node11 -->
<g id="Node000011" class="node">
<title>Node11</title>
<g id="a_Node000011"><a xlink:href="../../d5/d82/lib_2api_2dump__state_2_main_8cc.html" target="_top" xlink:title=" ">
<polygon fill="white" stroke="#666666" points="536.25,-97 440.75,-97 440.75,-66.5 536.25,-66.5 536.25,-97"/>
<text text-anchor="start" x="448.75" y="-83.5" font-family="Helvetica,sans-Serif" font-size="10.00">lib/api/dump_state</text>
<text text-anchor="middle" x="488.5" y="-72.25" font-family="Helvetica,sans-Serif" font-size="10.00">/Main.cc</text>
</a>
</g>
</g>
<!-- Node7&#45;&gt;Node11 -->
<g id="edge10_Node000007_Node000011" class="edge">
<title>Node7&#45;&gt;Node11</title>
<g id="a_edge10_Node000007_Node000011"><a xlink:title=" ">
<path fill="none" stroke="#63b8ff" d="M488.5,-132.67C488.5,-121.41 488.5,-107.64 488.5,-97.42"/>
<polygon fill="#63b8ff" stroke="#63b8ff" points="485,-132.48 488.5,-142.48 492,-132.48 485,-132.48"/>
</a>
</g>
</g>
<!-- Node7&#45;&gt;Node12 -->
<g id="edge11_Node000007_Node000012" class="edge">
<title>Node7&#45;&gt;Node12</title>
<g id="a_edge11_Node000007_Node000012"><a xlink:title=" ">
<path fill="none" stroke="#63b8ff" d="M535.99,-141.02C584.13,-129.01 658.71,-110.4 710.59,-97.45"/>
<polygon fill="#63b8ff" stroke="#63b8ff" points="535.27,-137.6 526.42,-143.41 536.97,-144.39 535.27,-137.6"/>
</a>
</g>
</g>
<!-- Node13 -->
<g id="Node000013" class="node">
<title>Node13</title>
<g id="a_Node000013"><a xlink:href="../../dc/d56/_c_test_field_data_categorizer_8h.html" target="_top" xlink:title=" ">
<polygon fill="white" stroke="#666666" points="681,-97 554,-97 554,-66.5 681,-66.5 681,-97"/>
<text text-anchor="start" x="562" y="-83.5" font-family="Helvetica,sans-Serif" font-size="10.00">lib/api/unittest/CTestField</text>
<text text-anchor="middle" x="617.5" y="-72.25" font-family="Helvetica,sans-Serif" font-size="10.00">DataCategorizer.h</text>
</a>
</g>
</g>
<!-- Node7&#45;&gt;Node13 -->
<g id="edge12_Node000007_Node000013" class="edge">
<title>Node7&#45;&gt;Node13</title>
<g id="a_edge12_Node000007_Node000013"><a xlink:title=" ">
<path fill="none" stroke="#63b8ff" d="M515.13,-138.4C537.22,-126.39 568.48,-109.4 590.64,-97.35"/>
<polygon fill="#63b8ff" stroke="#63b8ff" points="513.54,-135.28 506.43,-143.13 516.89,-141.43 513.54,-135.28"/>
</a>
</g>
</g>
<!-- Node14 -->
<g id="Node000014" class="node">
<title>Node14</title>
<g id="a_Node000014"><a xlink:href="../../d6/d2e/_c_field_data_categorizer_test_8cc.html" target="_top" xlink:title=" ">
<polygon fill="white" stroke="#666666" points="382.12,-30.5 252.88,-30.5 252.88,0 382.12,0 382.12,-30.5"/>
<text text-anchor="start" x="260.88" y="-17" font-family="Helvetica,sans-Serif" font-size="10.00">lib/api/unittest/CFieldData</text>
<text text-anchor="middle" x="317.5" y="-5.75" font-family="Helvetica,sans-Serif" font-size="10.00">CategorizerTest.cc</text>
</a>
</g>
</g>
<!-- Node13&#45;&gt;Node14 -->
<g id="edge13_Node000013_Node000014" class="edge">
<title>Node13&#45;&gt;Node14</title>
<g id="a_edge13_Node000013_Node000014"><a xlink:title=" ">
<path fill="none" stroke="#63b8ff" d="M542.29,-64.58C493.07,-54 429.43,-40.31 382.43,-30.21"/>
<polygon fill="#63b8ff" stroke="#63b8ff" points="541.52,-67.99 552.03,-66.67 542.99,-61.15 541.52,-67.99"/>
</a>
</g>
</g>
<!-- Node15 -->
<g id="Node000015" class="node">
<title>Node15</title>
<g id="a_Node000015"><a xlink:href="../../df/df3/_c_persistence_manager_test_8cc.html" target="_top" xlink:title=" ">
<polygon fill="white" stroke="#666666" points="539,-30.5 400,-30.5 400,0 539,0 539,-30.5"/>
<text text-anchor="start" x="408" y="-17" font-family="Helvetica,sans-Serif" font-size="10.00">lib/api/unittest/CPersistence</text>
<text text-anchor="middle" x="469.5" y="-5.75" font-family="Helvetica,sans-Serif" font-size="10.00">ManagerTest.cc</text>
</a>
</g>
</g>
<!-- Node13&#45;&gt;Node15 -->
<g id="edge14_Node000013_Node000015" class="edge">
<title>Node13&#45;&gt;Node15</title>
<g id="a_edge14_Node000013_Node000015"><a xlink:title=" ">
<path fill="none" stroke="#63b8ff" d="M573.6,-61.62C551.07,-51.8 524.07,-40.03 503.21,-30.94"/>
<polygon fill="#63b8ff" stroke="#63b8ff" points="571.96,-64.72 582.53,-65.51 574.76,-58.31 571.96,-64.72"/>
</a>
</g>
</g>
<!-- Node16 -->
<g id="Node000016" class="node">
<title>Node16</title>
<g id="a_Node000016"><a xlink:href="../../d1/d67/_c_restore_previous_state_test_8cc.html" target="_top" xlink:title=" ">
<polygon fill="white" stroke="#666666" points="678.38,-30.5 556.62,-30.5 556.62,0 678.38,0 678.38,-30.5"/>
<text text-anchor="start" x="564.62" y="-17" font-family="Helvetica,sans-Serif" font-size="10.00">lib/api/unittest/CRestore</text>
<text text-anchor="middle" x="617.5" y="-5.75" font-family="Helvetica,sans-Serif" font-size="10.00">PreviousStateTest.cc</text>
</a>
</g>
</g>
<!-- Node13&#45;&gt;Node16 -->
<g id="edge15_Node000013_Node000016" class="edge">
<title>Node13&#45;&gt;Node16</title>
<g id="a_edge15_Node000013_Node000016"><a xlink:title=" ">
<path fill="none" stroke="#63b8ff" d="M617.5,-54.81C617.5,-46.64 617.5,-37.91 617.5,-30.83"/>
<polygon fill="#63b8ff" stroke="#63b8ff" points="614,-54.6 617.5,-64.6 621,-54.6 614,-54.6"/>
</a>
</g>
</g>
<!-- Node17 -->
<g id="Node000017" class="node">
<title>Node17</title>
<g id="a_Node000017"><a xlink:href="../../d4/de2/_c_single_stream_data_adder_test_8cc.html" target="_top" xlink:title=" ">
<polygon fill="white" stroke="#666666" points="822.62,-30.5 696.38,-30.5 696.38,0 822.62,0 822.62,-30.5"/>
<text text-anchor="start" x="704.38" y="-17" font-family="Helvetica,sans-Serif" font-size="10.00">lib/api/unittest/CSingle</text>
<text text-anchor="middle" x="759.5" y="-5.75" font-family="Helvetica,sans-Serif" font-size="10.00">StreamDataAdderTest.cc</text>
</a>
</g>
</g>
<!-- Node13&#45;&gt;Node17 -->
<g id="edge16_Node000013_Node000017" class="edge">
<title>Node13&#45;&gt;Node17</title>
<g id="a_edge16_Node000013_Node000017"><a xlink:title=" ">
<path fill="none" stroke="#63b8ff" d="M659.96,-61.47C681.59,-51.64 707.46,-39.89 727.41,-30.83"/>
<polygon fill="#63b8ff" stroke="#63b8ff" points="658.76,-58.17 651.1,-65.49 661.65,-64.54 658.76,-58.17"/>
</a>
</g>
</g>
<!-- Node18 -->
<g id="Node000018" class="node">
<title>Node18</title>
<g id="a_Node000018"><a xlink:href="../../d0/d5d/_c_test_field_data_categorizer_8cc.html" target="_top" xlink:title=" ">
<polygon fill="white" stroke="#666666" points="968,-30.5 841,-30.5 841,0 968,0 968,-30.5"/>
<text text-anchor="start" x="849" y="-17" font-family="Helvetica,sans-Serif" font-size="10.00">lib/api/unittest/CTestField</text>
<text text-anchor="middle" x="904.5" y="-5.75" font-family="Helvetica,sans-Serif" font-size="10.00">DataCategorizer.cc</text>
</a>
</g>
</g>
<!-- Node13&#45;&gt;Node18 -->
<g id="edge17_Node000013_Node000018" class="edge">
<title>Node13&#45;&gt;Node18</title>
<g id="a_edge17_Node000013_Node000018"><a xlink:title=" ">
<path fill="none" stroke="#63b8ff" d="M692.35,-63.93C738.51,-53.55 797.09,-40.39 840.98,-30.52"/>
<polygon fill="#63b8ff" stroke="#63b8ff" points="691.66,-60.5 682.67,-66.1 693.2,-67.33 691.66,-60.5"/>
</a>
</g>
</g>
</g>
</svg>
