<?xml version="1.0" encoding="UTF-8" standalone="no"?>
<!DOCTYPE svg PUBLIC "-//W3C//DTD SVG 1.1//EN"
 "http://www.w3.org/Graphics/SVG/1.1/DTD/svg11.dtd">
<!-- Generated by graphviz version 10.0.1 (20240210.2158)
 -->
<!-- Title: ml::api::CFieldDataCategorizer::periodicPersistStateInForeground Pages: 1 -->
<svg width="543pt" height="137pt"
 viewBox="0.00 0.00 542.75 136.50" xmlns="http://www.w3.org/2000/svg" xmlns:xlink="http://www.w3.org/1999/xlink">
<g id="graph0" class="graph" transform="scale(1 1) rotate(0) translate(4 132.5)">
<title>ml::api::CFieldDataCategorizer::periodicPersistStateInForeground</title>
<!-- Node1 -->
<g id="Node000001" class="node">
<title>Node1</title>
<g id="a_Node000001"><a xlink:title=" ">
<polygon fill="#999999" stroke="#666666" points="166.75,-54.5 0,-54.5 0,-24 166.75,-24 166.75,-54.5"/>
<text text-anchor="start" x="8" y="-41" font-family="Helvetica,sans-Serif" font-size="10.00">ml::api::CFieldDataCategorizer</text>
<text text-anchor="middle" x="83.38" y="-29.75" font-family="Helvetica,sans-Serif" font-size="10.00">::periodicPersistStateInForeground</text>
</a>
</g>
</g>
<!-- Node2 -->
<g id="Node000002" class="node">
<title>Node2</title>
<g id="a_Node000002"><a xlink:href="../../db/d84/classml_1_1api_1_1_c_persistence_manager.html#a723188ea0d10c33e9955e4452ecc6010" target="_top" xlink:title=" ">
<polygon fill="white" stroke="#666666" points="350.75,-79.5 202.75,-79.5 202.75,-49 350.75,-49 350.75,-79.5"/>
<text text-anchor="start" x="210.75" y="-66" font-family="Helvetica,sans-Serif" font-size="10.00">ml::api::CPersistenceManager</text>
<text text-anchor="middle" x="276.75" y="-54.75" font-family="Helvetica,sans-Serif" font-size="10.00">::addPersistFunc</text>
</a>
</g>
</g>
<!-- Node1&#45;&gt;Node2 -->
<g id="edge1_Node000001_Node000002" class="edge">
<title>Node1&#45;&gt;Node2</title>
<g id="a_edge1_Node000001_Node000002"><a xlink:title=" ">
<path fill="none" stroke="#63b8ff" d="M167.2,-50.07C175.17,-51.11 183.25,-52.17 191.23,-53.21"/>
<polygon fill="#63b8ff" stroke="#63b8ff" points="190.55,-56.65 200.92,-54.47 191.46,-49.71 190.55,-56.65"/>
</a>
</g>
</g>
<!-- Node6 -->
<g id="Node000006" class="node">
<title>Node6</title>
<g id="a_Node000006"><a xlink:href="../../db/d84/classml_1_1api_1_1_c_persistence_manager.html#aed37bfbdd625c31ad8814af6a780f5b9" target="_top" xlink:title="Configure persistence to be performed in the foreground.">
<polygon fill="white" stroke="#666666" points="350.75,-30.5 202.75,-30.5 202.75,0 350.75,0 350.75,-30.5"/>
<text text-anchor="start" x="210.75" y="-17" font-family="Helvetica,sans-Serif" font-size="10.00">ml::api::CPersistenceManager</text>
<text text-anchor="middle" x="276.75" y="-5.75" font-family="Helvetica,sans-Serif" font-size="10.00">::useForegroundPersistence</text>
</a>
</g>
</g>
<!-- Node1&#45;&gt;Node6 -->
<g id="edge5_Node000001_Node000006" class="edge">
<title>Node1&#45;&gt;Node6</title>
<g id="a_edge5_Node000001_Node000006"><a xlink:title=" ">
<path fill="none" stroke="#63b8ff" d="M167.2,-28.86C175.17,-27.86 183.25,-26.85 191.23,-25.85"/>
<polygon fill="#63b8ff" stroke="#63b8ff" points="191.43,-29.35 200.92,-24.63 190.56,-22.41 191.43,-29.35"/>
</a>
</g>
</g>
<!-- Node3 -->
<g id="Node000003" class="node">
<title>Node3</title>
<g id="a_Node000003"><a xlink:href="../../db/d84/classml_1_1api_1_1_c_persistence_manager.html#a0c1ba61de9599d565cd6f8bd595aa23f" target="_top" xlink:title="Is background persistence currently in progress?">
<polygon fill="white" stroke="#666666" points="534.75,-128.5 386.75,-128.5 386.75,-98 534.75,-98 534.75,-128.5"/>
<text text-anchor="start" x="394.75" y="-115" font-family="Helvetica,sans-Serif" font-size="10.00">ml::api::CPersistenceManager</text>
<text text-anchor="middle" x="460.75" y="-103.75" font-family="Helvetica,sans-Serif" font-size="10.00">::isBusy</text>
</a>
</g>
</g>
<!-- Node2&#45;&gt;Node3 -->
<g id="edge2_Node000002_Node000003" class="edge">
<title>Node2&#45;&gt;Node3</title>
<g id="a_edge2_Node000002_Node000003"><a xlink:title=" ">
<path fill="none" stroke="#63b8ff" d="M336.09,-79.96C353.39,-84.62 372.52,-89.76 390.45,-94.59"/>
<polygon fill="#63b8ff" stroke="#63b8ff" points="389.4,-97.94 399.97,-97.16 391.22,-91.18 389.4,-97.94"/>
</a>
</g>
</g>
<!-- Node4 -->
<g id="Node000004" class="node">
<title>Node4</title>
<g id="a_Node000004"><a xlink:href="../../dd/d6b/classml_1_1core_1_1_c_thread.html#add8f5de1cd33a71f2330b865941ec77c" target="_top" xlink:title="Has the thread been started?">
<polygon fill="white" stroke="#666666" points="511.12,-79.5 410.38,-79.5 410.38,-49 511.12,-49 511.12,-79.5"/>
<text text-anchor="start" x="418.38" y="-66" font-family="Helvetica,sans-Serif" font-size="10.00">ml::core::CThread::</text>
<text text-anchor="middle" x="460.75" y="-54.75" font-family="Helvetica,sans-Serif" font-size="10.00">isStarted</text>
</a>
</g>
</g>
<!-- Node2&#45;&gt;Node4 -->
<g id="edge3_Node000002_Node000004" class="edge">
<title>Node2&#45;&gt;Node4</title>
<g id="a_edge3_Node000002_Node000004"><a xlink:title=" ">
<path fill="none" stroke="#63b8ff" d="M350.99,-64.25C366.81,-64.25 383.38,-64.25 398.67,-64.25"/>
<polygon fill="#63b8ff" stroke="#63b8ff" points="398.58,-67.75 408.58,-64.25 398.58,-60.75 398.58,-67.75"/>
</a>
</g>
</g>
<!-- Node5 -->
<g id="Node000005" class="node">
<title>Node5</title>
<g id="a_Node000005"><a xlink:href="../../dd/d6b/classml_1_1core_1_1_c_thread.html#ac25482f1bd4c99b31b3d92dec69d8b43" target="_top" xlink:title=" ">
<polygon fill="white" stroke="#666666" points="511.12,-30.5 410.38,-30.5 410.38,0 511.12,0 511.12,-30.5"/>
<text text-anchor="start" x="418.38" y="-17" font-family="Helvetica,sans-Serif" font-size="10.00">ml::core::CThread::</text>
<text text-anchor="middle" x="460.75" y="-5.75" font-family="Helvetica,sans-Serif" font-size="10.00">waitForFinish</text>
</a>
</g>
</g>
<!-- Node2&#45;&gt;Node5 -->
<g id="edge4_Node000002_Node000005" class="edge">
<title>Node2&#45;&gt;Node5</title>
<g id="a_edge4_Node000002_Node000005"><a xlink:title=" ">
<path fill="none" stroke="#63b8ff" d="M336.09,-48.54C356.18,-43.14 378.71,-37.07 398.99,-31.61"/>
<polygon fill="#63b8ff" stroke="#63b8ff" points="399.79,-35.02 408.53,-29.04 397.97,-28.26 399.79,-35.02"/>
</a>
</g>
</g>
</g>
</svg>
