<?xml version="1.0" encoding="UTF-8" standalone="no"?>
<!DOCTYPE svg PUBLIC "-//W3C//DTD SVG 1.1//EN"
 "http://www.w3.org/Graphics/SVG/1.1/DTD/svg11.dtd">
<!-- Generated by graphviz version 10.0.1 (20240210.2158)
 -->
<!-- Title: ml::maths::time_series::CUndoableChangePointStateSerializer::operator() Pages: 1 -->
<svg width="406pt" height="284pt"
 viewBox="0.00 0.00 406.00 283.50" xmlns="http://www.w3.org/2000/svg" xmlns:xlink="http://www.w3.org/1999/xlink">
<g id="graph0" class="graph" transform="scale(1 1) rotate(0) translate(4 279.5)">
<title>ml::maths::time_series::CUndoableChangePointStateSerializer::operator()</title>
<!-- Node1 -->
<g id="Node000001" class="node">
<title>Node1</title>
<g id="a_Node000001"><a xlink:title=" ">
<polygon fill="#999999" stroke="#666666" points="190.75,-158.12 0,-158.12 0,-116.38 190.75,-116.38 190.75,-158.12"/>
<text text-anchor="start" x="8" y="-144.62" font-family="Helvetica,sans-Serif" font-size="10.00">ml::maths::time_series</text>
<text text-anchor="start" x="8" y="-133.38" font-family="Helvetica,sans-Serif" font-size="10.00">::CUndoableChangePointStateSerializer</text>
<text text-anchor="middle" x="95.38" y="-122.12" font-family="Helvetica,sans-Serif" font-size="10.00">::operator()</text>
</a>
</g>
</g>
<!-- Node2 -->
<g id="Node000002" class="node">
<title>Node2</title>
<g id="a_Node000002"><a xlink:href="../../d6/d96/classml_1_1core_1_1_c_state_persist_inserter.html#a21319d2ecfcb0ab1aceecf2a5a463d3a" target="_top" xlink:title="Store a name/value.">
<polygon fill="white" stroke="#666666" points="388.25,-275.5 236.5,-275.5 236.5,-245 388.25,-245 388.25,-275.5"/>
<text text-anchor="start" x="244.5" y="-262" font-family="Helvetica,sans-Serif" font-size="10.00">ml::core::CStatePersistInserter</text>
<text text-anchor="middle" x="312.38" y="-250.75" font-family="Helvetica,sans-Serif" font-size="10.00">::insertValue</text>
</a>
</g>
</g>
<!-- Node1&#45;&gt;Node2 -->
<g id="edge1_Node000001_Node000002" class="edge">
<title>Node1&#45;&gt;Node2</title>
<g id="a_edge1_Node000001_Node000002"><a xlink:title=" ">
<path fill="none" stroke="#63b8ff" d="M119.17,-158.44C143.93,-180.45 185.51,-214.52 226.75,-235.25 230.46,-237.11 234.33,-238.86 238.29,-240.5"/>
<polygon fill="#63b8ff" stroke="#63b8ff" points="236.91,-243.72 247.5,-244.04 239.42,-237.19 236.91,-243.72"/>
</a>
</g>
</g>
<!-- Node3 -->
<g id="Node000003" class="node">
<title>Node3</title>
<g id="a_Node000003"><a xlink:href="../../de/ddc/classml_1_1maths_1_1time__series_1_1_c_change_point.html#a633483f5354832ebc40673ab56cd4896" target="_top" xlink:title=" ">
<polygon fill="white" stroke="#666666" points="398,-226.5 226.75,-226.5 226.75,-196 398,-196 398,-226.5"/>
<text text-anchor="start" x="234.75" y="-213" font-family="Helvetica,sans-Serif" font-size="10.00">ml::maths::time_series</text>
<text text-anchor="middle" x="312.38" y="-201.75" font-family="Helvetica,sans-Serif" font-size="10.00">::CChangePoint::predictionVariance</text>
</a>
</g>
</g>
<!-- Node1&#45;&gt;Node3 -->
<g id="edge2_Node000001_Node000003" class="edge">
<title>Node1&#45;&gt;Node3</title>
<g id="a_edge2_Node000001_Node000003"><a xlink:title=" ">
<path fill="none" stroke="#63b8ff" d="M150.3,-158.51C173.66,-167.47 201.42,-177.76 226.75,-186.25 232.8,-188.28 239.12,-190.31 245.46,-192.28"/>
<polygon fill="#63b8ff" stroke="#63b8ff" points="244.08,-195.52 254.67,-195.11 246.13,-188.83 244.08,-195.52"/>
</a>
</g>
</g>
<!-- Node4 -->
<g id="Node000004" class="node">
<title>Node4</title>
<g id="a_Node000004"><a xlink:href="../../de/ddc/classml_1_1maths_1_1time__series_1_1_c_change_point.html#a3dcca91b7bec3a23f83b6a7cfdc2869c" target="_top" xlink:title=" ">
<polygon fill="white" stroke="#666666" points="395.75,-177.5 229,-177.5 229,-147 395.75,-147 395.75,-177.5"/>
<text text-anchor="start" x="237" y="-164" font-family="Helvetica,sans-Serif" font-size="10.00">ml::maths::time_series</text>
<text text-anchor="middle" x="312.38" y="-152.75" font-family="Helvetica,sans-Serif" font-size="10.00">::CChangePoint::significantPValue</text>
</a>
</g>
</g>
<!-- Node1&#45;&gt;Node4 -->
<g id="edge3_Node000001_Node000004" class="edge">
<title>Node1&#45;&gt;Node4</title>
<g id="a_edge3_Node000001_Node000004"><a xlink:title=" ">
<path fill="none" stroke="#63b8ff" d="M190.99,-148.25C199.69,-149.26 208.49,-150.29 217.19,-151.3"/>
<polygon fill="#63b8ff" stroke="#63b8ff" points="216.68,-154.76 227.02,-152.44 217.49,-147.81 216.68,-154.76"/>
</a>
</g>
</g>
<!-- Node5 -->
<g id="Node000005" class="node">
<title>Node5</title>
<g id="a_Node000005"><a xlink:href="../../de/ddc/classml_1_1maths_1_1time__series_1_1_c_change_point.html#adcc61221f8e7dd7f45c41d42dd5a851a" target="_top" xlink:title=" ">
<polygon fill="white" stroke="#666666" points="370.25,-128.5 254.5,-128.5 254.5,-98 370.25,-98 370.25,-128.5"/>
<text text-anchor="start" x="262.5" y="-115" font-family="Helvetica,sans-Serif" font-size="10.00">ml::maths::time_series</text>
<text text-anchor="middle" x="312.38" y="-103.75" font-family="Helvetica,sans-Serif" font-size="10.00">::CChangePoint::time</text>
</a>
</g>
</g>
<!-- Node1&#45;&gt;Node5 -->
<g id="edge4_Node000001_Node000005" class="edge">
<title>Node1&#45;&gt;Node5</title>
<g id="a_edge4_Node000001_Node000005"><a xlink:title=" ">
<path fill="none" stroke="#63b8ff" d="M190.99,-126.69C208.47,-124.74 226.42,-122.73 242.94,-120.89"/>
<polygon fill="#63b8ff" stroke="#63b8ff" points="243.07,-124.4 252.62,-119.81 242.29,-117.44 243.07,-124.4"/>
</a>
</g>
</g>
<!-- Node6 -->
<g id="Node000006" class="node">
<title>Node6</title>
<g id="a_Node000006"><a xlink:href="../../de/ddc/classml_1_1maths_1_1time__series_1_1_c_change_point.html#a1075907c4fdffec597a67c3aa4aac827" target="_top" xlink:title=" ">
<polygon fill="white" stroke="#666666" points="370.25,-79.5 254.5,-79.5 254.5,-49 370.25,-49 370.25,-79.5"/>
<text text-anchor="start" x="262.5" y="-66" font-family="Helvetica,sans-Serif" font-size="10.00">ml::maths::time_series</text>
<text text-anchor="middle" x="312.38" y="-54.75" font-family="Helvetica,sans-Serif" font-size="10.00">::CChangePoint::type</text>
</a>
</g>
</g>
<!-- Node1&#45;&gt;Node6 -->
<g id="edge5_Node000001_Node000006" class="edge">
<title>Node1&#45;&gt;Node6</title>
<g id="a_edge5_Node000001_Node000006"><a xlink:title=" ">
<path fill="none" stroke="#63b8ff" d="M151.92,-115.89C174.96,-107.27 202.02,-97.44 226.75,-89.25 232.9,-87.21 239.32,-85.17 245.77,-83.17"/>
<polygon fill="#63b8ff" stroke="#63b8ff" points="246.6,-86.58 255.14,-80.31 244.55,-79.88 246.6,-86.58"/>
</a>
</g>
</g>
<!-- Node7 -->
<g id="Node000007" class="node">
<title>Node7</title>
<g id="a_Node000007"><a xlink:href="../../de/ddc/classml_1_1maths_1_1time__series_1_1_c_change_point.html#ae384fc55894537047b1c488540e2523b" target="_top" xlink:title=" ">
<polygon fill="white" stroke="#666666" points="370.25,-30.5 254.5,-30.5 254.5,0 370.25,0 370.25,-30.5"/>
<text text-anchor="start" x="262.5" y="-17" font-family="Helvetica,sans-Serif" font-size="10.00">ml::maths::time_series</text>
<text text-anchor="middle" x="312.38" y="-5.75" font-family="Helvetica,sans-Serif" font-size="10.00">::CChangePoint::value</text>
</a>
</g>
</g>
<!-- Node1&#45;&gt;Node7 -->
<g id="edge6_Node000001_Node000007" class="edge">
<title>Node1&#45;&gt;Node7</title>
<g id="a_edge6_Node000001_Node000007"><a xlink:title=" ">
<path fill="none" stroke="#63b8ff" d="M119.66,-115.88C144.52,-94.1 185.87,-60.68 226.75,-40.25 232.15,-37.55 237.88,-35.09 243.73,-32.87"/>
<polygon fill="#63b8ff" stroke="#63b8ff" points="244.65,-36.25 252.9,-29.6 242.3,-29.66 244.65,-36.25"/>
</a>
</g>
</g>
</g>
</svg>
