<?xml version="1.0" encoding="UTF-8" standalone="no"?>
<!DOCTYPE svg PUBLIC "-//W3C//DTD SVG 1.1//EN"
 "http://www.w3.org/Graphics/SVG/1.1/DTD/svg11.dtd">
<!-- Generated by graphviz version 10.0.1 (20240210.2158)
 -->
<!-- Title: ml::model::CAnomalyDetectorModel::estimateMemoryUsageOrComputeAndUpdate Pages: 1 -->
<svg width="973pt" height="372pt"
 viewBox="0.00 0.00 973.00 371.88" xmlns="http://www.w3.org/2000/svg" xmlns:xlink="http://www.w3.org/1999/xlink">
<g id="graph0" class="graph" transform="scale(1 1) rotate(0) translate(4 367.88)">
<title>ml::model::CAnomalyDetectorModel::estimateMemoryUsageOrComputeAndUpdate</title>
<!-- Node1 -->
<g id="Node000001" class="node">
<title>Node1</title>
<g id="a_Node000001"><a xlink:title=" ">
<polygon fill="#999999" stroke="#666666" points="965,-177.5 765.25,-177.5 765.25,-135.75 965,-135.75 965,-177.5"/>
<text text-anchor="start" x="773.25" y="-164" font-family="Helvetica,sans-Serif" font-size="10.00">ml::model::CAnomalyDetector</text>
<text text-anchor="start" x="773.25" y="-152.75" font-family="Helvetica,sans-Serif" font-size="10.00">Model::estimateMemoryUsageOrCompute</text>
<text text-anchor="middle" x="865.12" y="-141.5" font-family="Helvetica,sans-Serif" font-size="10.00">AndUpdate</text>
</a>
</g>
</g>
<!-- Node2 -->
<g id="Node000002" class="node">
<title>Node2</title>
<g id="a_Node000002"><a xlink:href="../../d1/d04/classml_1_1model_1_1_c_individual_model.html#a20af83aaaf5b28ed588570cb82f5d938" target="_top" xlink:title="Monitor the resource usage while creating new models.">
<polygon fill="white" stroke="#666666" points="516.38,-140.88 376.62,-140.88 376.62,-110.38 516.38,-110.38 516.38,-140.88"/>
<text text-anchor="start" x="384.62" y="-127.38" font-family="Helvetica,sans-Serif" font-size="10.00">ml::model::CIndividualModel</text>
<text text-anchor="middle" x="446.5" y="-116.12" font-family="Helvetica,sans-Serif" font-size="10.00">::createUpdateNewModels</text>
</a>
</g>
</g>
<!-- Node1&#45;&gt;Node2 -->
<g id="edge1_Node000001_Node000002" class="edge">
<title>Node1&#45;&gt;Node2</title>
<g id="a_edge1_Node000001_Node000002"><a xlink:title=" ">
<path fill="none" stroke="#63b8ff" d="M771.43,-180.11C711.52,-191.39 632.39,-198.91 564.75,-180.62 546.87,-175.79 545.33,-167.88 528.75,-159.62 515.75,-153.15 501.21,-146.8 488.06,-141.37"/>
<polygon fill="#63b8ff" stroke="#63b8ff" points="771.75,-183.61 780.9,-178.26 770.41,-176.74 771.75,-183.61"/>
</a>
</g>
</g>
<!-- Node11 -->
<g id="Node000011" class="node">
<title>Node11</title>
<g id="a_Node000011"><a xlink:href="../../dc/d29/classml_1_1model_1_1_c_population_model.html#a6bd28fb1538ffd56b46d06329df30bdb" target="_top" xlink:title="Monitor the resource usage while creating new models.">
<polygon fill="white" stroke="#666666" points="719.12,-257.88 574.88,-257.88 574.88,-227.38 719.12,-227.38 719.12,-257.88"/>
<text text-anchor="start" x="582.88" y="-244.38" font-family="Helvetica,sans-Serif" font-size="10.00">ml::model::CPopulationModel</text>
<text text-anchor="middle" x="647" y="-233.12" font-family="Helvetica,sans-Serif" font-size="10.00">::createUpdateNewModels</text>
</a>
</g>
</g>
<!-- Node1&#45;&gt;Node11 -->
<g id="edge10_Node000001_Node000011" class="edge">
<title>Node1&#45;&gt;Node11</title>
<g id="a_edge10_Node000001_Node000011"><a xlink:title=" ">
<path fill="none" stroke="#63b8ff" d="M805.2,-182.39C781.69,-192.44 754.31,-203.87 729.25,-213.62 717.67,-218.14 705.05,-222.77 693.3,-226.97"/>
<polygon fill="#63b8ff" stroke="#63b8ff" points="806.5,-185.64 814.31,-178.47 803.74,-179.2 806.5,-185.64"/>
</a>
</g>
</g>
<!-- Node16 -->
<g id="Node000016" class="node">
<title>Node16</title>
<g id="a_Node000016"><a xlink:href="../../d0/d77/classml_1_1model_1_1_c_event_rate_population_model.html#a4e7fae88f2658ec19770fa01c5d1472b" target="_top" xlink:title="Update the correlation models.">
<polygon fill="white" stroke="#666666" points="729.25,-171.88 564.75,-171.88 564.75,-141.38 729.25,-141.38 729.25,-171.88"/>
<text text-anchor="start" x="572.75" y="-158.38" font-family="Helvetica,sans-Serif" font-size="10.00">ml::model::CEventRatePopulation</text>
<text text-anchor="middle" x="647" y="-147.12" font-family="Helvetica,sans-Serif" font-size="10.00">Model::refreshCorrelationModels</text>
</a>
</g>
</g>
<!-- Node1&#45;&gt;Node16 -->
<g id="edge16_Node000001_Node000016" class="edge">
<title>Node1&#45;&gt;Node16</title>
<g id="a_edge16_Node000001_Node000016"><a xlink:title=" ">
<path fill="none" stroke="#63b8ff" d="M753.48,-156.62C745.39,-156.62 737.32,-156.62 729.45,-156.62"/>
<polygon fill="#63b8ff" stroke="#63b8ff" points="753.4,-160.13 763.4,-156.63 753.4,-153.13 753.4,-160.13"/>
</a>
</g>
</g>
<!-- Node17 -->
<g id="Node000017" class="node">
<title>Node17</title>
<g id="a_Node000017"><a xlink:href="../../d1/d04/classml_1_1model_1_1_c_individual_model.html#af5613df5c891fce641e6ea98ef4b361d" target="_top" xlink:title="Update the correlation models.">
<polygon fill="white" stroke="#666666" points="716.88,-122.88 577.12,-122.88 577.12,-92.38 716.88,-92.38 716.88,-122.88"/>
<text text-anchor="start" x="585.12" y="-109.38" font-family="Helvetica,sans-Serif" font-size="10.00">ml::model::CIndividualModel</text>
<text text-anchor="middle" x="647" y="-98.12" font-family="Helvetica,sans-Serif" font-size="10.00">::refreshCorrelationModels</text>
</a>
</g>
</g>
<!-- Node1&#45;&gt;Node17 -->
<g id="edge17_Node000001_Node000017" class="edge">
<title>Node1&#45;&gt;Node17</title>
<g id="a_edge17_Node000001_Node000017"><a xlink:title=" ">
<path fill="none" stroke="#63b8ff" d="M759.1,-132.81C744.86,-129.58 730.55,-126.34 717.15,-123.3"/>
<polygon fill="#63b8ff" stroke="#63b8ff" points="757.96,-136.14 768.48,-134.94 759.5,-129.32 757.96,-136.14"/>
</a>
</g>
</g>
<!-- Node18 -->
<g id="Node000018" class="node">
<title>Node18</title>
<g id="a_Node000018"><a xlink:href="../../d2/d49/classml_1_1model_1_1_c_metric_population_model.html#aa82ee3f5efba44916ffee8d1ebc14577" target="_top" xlink:title="Update the correlation models.">
<polygon fill="white" stroke="#666666" points="725.5,-73.88 568.5,-73.88 568.5,-43.38 725.5,-43.38 725.5,-73.88"/>
<text text-anchor="start" x="576.5" y="-60.38" font-family="Helvetica,sans-Serif" font-size="10.00">ml::model::CMetricPopulation</text>
<text text-anchor="middle" x="647" y="-49.12" font-family="Helvetica,sans-Serif" font-size="10.00">Model::refreshCorrelationModels</text>
</a>
</g>
</g>
<!-- Node1&#45;&gt;Node18 -->
<g id="edge19_Node000001_Node000018" class="edge">
<title>Node1&#45;&gt;Node18</title>
<g id="a_edge19_Node000001_Node000018"><a xlink:title=" ">
<path fill="none" stroke="#63b8ff" d="M819.46,-129.55C793.7,-114.69 760.35,-96.68 729.25,-83.62 721.22,-80.26 712.58,-77.11 704.03,-74.27"/>
<polygon fill="#63b8ff" stroke="#63b8ff" points="817.58,-132.51 827.98,-134.52 821.11,-126.46 817.58,-132.51"/>
</a>
</g>
</g>
<!-- Node3 -->
<g id="Node000003" class="node">
<title>Node3</title>
<g id="a_Node000003"><a xlink:href="../../dc/d14/classml_1_1model_1_1_c_event_rate_model.html#a5f6241aadc05102c032854e593798b2c" target="_top" xlink:title=" ">
<polygon fill="white" stroke="#666666" points="328.25,-263.88 183.25,-263.88 183.25,-233.38 328.25,-233.38 328.25,-263.88"/>
<text text-anchor="start" x="191.25" y="-250.38" font-family="Helvetica,sans-Serif" font-size="10.00">ml::model::CEventRateModel</text>
<text text-anchor="middle" x="255.75" y="-239.12" font-family="Helvetica,sans-Serif" font-size="10.00">::sample</text>
</a>
</g>
</g>
<!-- Node2&#45;&gt;Node3 -->
<g id="edge2_Node000002_Node000003" class="edge">
<title>Node2&#45;&gt;Node3</title>
<g id="a_edge2_Node000002_Node000003"><a xlink:title=" ">
<path fill="none" stroke="#63b8ff" d="M383.31,-146.43C376.47,-150.2 369.93,-154.57 364.25,-159.62 339.87,-181.32 353.27,-202.67 328.25,-223.62 323.92,-227.26 319.02,-230.37 313.87,-233.05"/>
<polygon fill="#63b8ff" stroke="#63b8ff" points="384.77,-149.61 392.15,-142.01 381.64,-143.35 384.77,-149.61"/>
</a>
</g>
</g>
<!-- Node5 -->
<g id="Node000005" class="node">
<title>Node5</title>
<g id="a_Node000005"><a xlink:href="../../da/dfb/classml_1_1model_1_1_c_metric_model.html#adafa1ccfb4f10c872ea039bbb2ff80b6" target="_top" xlink:title=" ">
<polygon fill="white" stroke="#666666" points="318.5,-214.88 193,-214.88 193,-184.38 318.5,-184.38 318.5,-214.88"/>
<text text-anchor="start" x="201" y="-201.38" font-family="Helvetica,sans-Serif" font-size="10.00">ml::model::CMetricModel</text>
<text text-anchor="middle" x="255.75" y="-190.12" font-family="Helvetica,sans-Serif" font-size="10.00">::sample</text>
</a>
</g>
</g>
<!-- Node2&#45;&gt;Node5 -->
<g id="edge4_Node000002_Node000005" class="edge">
<title>Node2&#45;&gt;Node5</title>
<g id="a_edge4_Node000002_Node000005"><a xlink:title=" ">
<path fill="none" stroke="#63b8ff" d="M397.51,-145.72C365.93,-158.93 330.08,-173.92 328.25,-174.62 320.15,-177.73 311.47,-180.9 303.05,-183.89"/>
<polygon fill="#63b8ff" stroke="#63b8ff" points="398.73,-149 406.61,-141.91 396.03,-142.54 398.73,-149"/>
</a>
</g>
</g>
<!-- Node7 -->
<g id="Node000007" class="node">
<title>Node7</title>
<g id="a_Node000007"><a xlink:href="../../dc/d14/classml_1_1model_1_1_c_event_rate_model.html#a60955fb365980cd8c47e2e6eb16dc746" target="_top" xlink:title=" ">
<polygon fill="white" stroke="#666666" points="328.25,-165.88 183.25,-165.88 183.25,-135.38 328.25,-135.38 328.25,-165.88"/>
<text text-anchor="start" x="191.25" y="-152.38" font-family="Helvetica,sans-Serif" font-size="10.00">ml::model::CEventRateModel</text>
<text text-anchor="middle" x="255.75" y="-141.12" font-family="Helvetica,sans-Serif" font-size="10.00">::sampleBucketStatistics</text>
</a>
</g>
</g>
<!-- Node2&#45;&gt;Node7 -->
<g id="edge6_Node000002_Node000007" class="edge">
<title>Node2&#45;&gt;Node7</title>
<g id="a_edge6_Node000002_Node000007"><a xlink:title=" ">
<path fill="none" stroke="#63b8ff" d="M365.2,-136.26C353,-137.88 340.49,-139.53 328.49,-141.12"/>
<polygon fill="#63b8ff" stroke="#63b8ff" points="365.33,-139.77 374.79,-134.99 364.41,-132.83 365.33,-139.77"/>
</a>
</g>
</g>
<!-- Node8 -->
<g id="Node000008" class="node">
<title>Node8</title>
<g id="a_Node000008"><a xlink:href="../../da/dfb/classml_1_1model_1_1_c_metric_model.html#acdd3555393b6e886576132bd820d28d3" target="_top" xlink:title=" ">
<polygon fill="white" stroke="#666666" points="318.5,-116.88 193,-116.88 193,-86.38 318.5,-86.38 318.5,-116.88"/>
<text text-anchor="start" x="201" y="-103.38" font-family="Helvetica,sans-Serif" font-size="10.00">ml::model::CMetricModel</text>
<text text-anchor="middle" x="255.75" y="-92.12" font-family="Helvetica,sans-Serif" font-size="10.00">::sampleBucketStatistics</text>
</a>
</g>
</g>
<!-- Node2&#45;&gt;Node8 -->
<g id="edge7_Node000002_Node000008" class="edge">
<title>Node2&#45;&gt;Node8</title>
<g id="a_edge7_Node000002_Node000008"><a xlink:title=" ">
<path fill="none" stroke="#63b8ff" d="M365.11,-115.4C349.61,-113.43 333.58,-111.39 318.77,-109.51"/>
<polygon fill="#63b8ff" stroke="#63b8ff" points="364.43,-118.84 374.79,-116.63 365.31,-111.9 364.43,-118.84"/>
</a>
</g>
</g>
<!-- Node9 -->
<g id="Node000009" class="node">
<title>Node9</title>
<g id="a_Node000009"><a xlink:href="../../d6/dcc/class_c_mock_event_rate_model.html#a1a960d16ae03344d6108bbdf4a572263" target="_top" xlink:title=" ">
<polygon fill="white" stroke="#666666" points="315.88,-67.88 195.62,-67.88 195.62,-37.38 315.88,-37.38 315.88,-67.88"/>
<text text-anchor="start" x="203.62" y="-54.38" font-family="Helvetica,sans-Serif" font-size="10.00">CMockEventRateModel</text>
<text text-anchor="middle" x="255.75" y="-43.12" font-family="Helvetica,sans-Serif" font-size="10.00">::test</text>
</a>
</g>
</g>
<!-- Node2&#45;&gt;Node9 -->
<g id="edge8_Node000002_Node000009" class="edge">
<title>Node2&#45;&gt;Node9</title>
<g id="a_edge8_Node000002_Node000009"><a xlink:title=" ">
<path fill="none" stroke="#63b8ff" d="M398.09,-105.56C376.83,-96.73 351.39,-86.4 328.25,-77.62 320.01,-74.5 311.19,-71.3 302.65,-68.28"/>
<polygon fill="#63b8ff" stroke="#63b8ff" points="396.49,-108.69 407.07,-109.3 399.19,-102.22 396.49,-108.69"/>
</a>
</g>
</g>
<!-- Node10 -->
<g id="Node000010" class="node">
<title>Node10</title>
<g id="a_Node000010"><a xlink:href="../../d2/d1d/class_c_mock_metric_model.html#a79bf681efe8f6169bf4b7b6d10d902ac" target="_top" xlink:title=" ">
<polygon fill="white" stroke="#666666" points="317.38,-19.25 194.12,-19.25 194.12,0 317.38,0 317.38,-19.25"/>
<text text-anchor="middle" x="255.75" y="-5.75" font-family="Helvetica,sans-Serif" font-size="10.00">CMockMetricModel::test</text>
</a>
</g>
</g>
<!-- Node2&#45;&gt;Node10 -->
<g id="edge9_Node000002_Node000010" class="edge">
<title>Node2&#45;&gt;Node10</title>
<g id="a_edge9_Node000002_Node000010"><a xlink:title=" ">
<path fill="none" stroke="#63b8ff" d="M423.06,-101.9C400.94,-79.85 365.16,-47.63 328.25,-28.62 321.28,-25.04 313.58,-22.08 305.88,-19.66"/>
<polygon fill="#63b8ff" stroke="#63b8ff" points="420.55,-104.34 430.06,-109.01 425.54,-99.43 420.55,-104.34"/>
</a>
</g>
</g>
<!-- Node4 -->
<g id="Node000004" class="node">
<title>Node4</title>
<g id="a_Node000004"><a xlink:href="../../df/d44/_c_model_memory_test_8cc.html#a84a19efc4ae2859d720e5a7a5d5836e5" target="_top" xlink:title=" ">
<polygon fill="white" stroke="#666666" points="147.25,-258.25 0,-258.25 0,-239 147.25,-239 147.25,-258.25"/>
<text text-anchor="middle" x="73.62" y="-244.75" font-family="Helvetica,sans-Serif" font-size="10.00">BOOST_AUTO_TEST_CASE</text>
</a>
</g>
</g>
<!-- Node3&#45;&gt;Node4 -->
<g id="edge3_Node000003_Node000004" class="edge">
<title>Node3&#45;&gt;Node4</title>
<g id="a_edge3_Node000003_Node000004"><a xlink:title=" ">
<path fill="none" stroke="#63b8ff" d="M171.3,-248.62C163.4,-248.62 155.44,-248.62 147.65,-248.62"/>
<polygon fill="#63b8ff" stroke="#63b8ff" points="171.27,-252.13 181.27,-248.63 171.27,-245.13 171.27,-252.13"/>
</a>
</g>
</g>
<!-- Node6 -->
<g id="Node000006" class="node">
<title>Node6</title>
<g id="a_Node000006"><a xlink:href="../../df/d44/_c_model_memory_test_8cc.html#aadb4ceb11ad77a33ace61c59ca8117b4" target="_top" xlink:title=" ">
<polygon fill="white" stroke="#666666" points="147.25,-209.25 0,-209.25 0,-190 147.25,-190 147.25,-209.25"/>
<text text-anchor="middle" x="73.62" y="-195.75" font-family="Helvetica,sans-Serif" font-size="10.00">BOOST_AUTO_TEST_CASE</text>
</a>
</g>
</g>
<!-- Node5&#45;&gt;Node6 -->
<g id="edge5_Node000005_Node000006" class="edge">
<title>Node5&#45;&gt;Node6</title>
<g id="a_edge5_Node000005_Node000006"><a xlink:title=" ">
<path fill="none" stroke="#63b8ff" d="M181.16,-199.62C170.12,-199.62 158.74,-199.62 147.71,-199.62"/>
<polygon fill="#63b8ff" stroke="#63b8ff" points="181,-203.13 191,-199.63 181,-196.13 181,-203.13"/>
</a>
</g>
</g>
<!-- Node12 -->
<g id="Node000012" class="node">
<title>Node12</title>
<g id="a_Node000012"><a xlink:href="../../d0/d77/classml_1_1model_1_1_c_event_rate_population_model.html#a50dbd54cdd38c81eb0cef9cd44458c85" target="_top" xlink:title=" ">
<polygon fill="white" stroke="#666666" points="528.75,-314.88 364.25,-314.88 364.25,-284.38 528.75,-284.38 528.75,-314.88"/>
<text text-anchor="start" x="372.25" y="-301.38" font-family="Helvetica,sans-Serif" font-size="10.00">ml::model::CEventRatePopulation</text>
<text text-anchor="middle" x="446.5" y="-290.12" font-family="Helvetica,sans-Serif" font-size="10.00">Model::sample</text>
</a>
</g>
</g>
<!-- Node11&#45;&gt;Node12 -->
<g id="edge11_Node000011_Node000012" class="edge">
<title>Node11&#45;&gt;Node12</title>
<g id="a_edge11_Node000011_Node000012"><a xlink:title=" ">
<path fill="none" stroke="#63b8ff" d="M580.23,-261.51C554.89,-268.79 526.26,-277.01 502.09,-283.95"/>
<polygon fill="#63b8ff" stroke="#63b8ff" points="581.13,-264.89 589.78,-258.77 579.2,-258.17 581.13,-264.89"/>
</a>
</g>
</g>
<!-- Node13 -->
<g id="Node000013" class="node">
<title>Node13</title>
<g id="a_Node000013"><a xlink:href="../../d2/d49/classml_1_1model_1_1_c_metric_population_model.html#aee59e116a3bb9c8d76bc359b9d7ab554" target="_top" xlink:title=" ">
<polygon fill="white" stroke="#666666" points="519,-247.88 374,-247.88 374,-217.38 519,-217.38 519,-247.88"/>
<text text-anchor="start" x="382" y="-234.38" font-family="Helvetica,sans-Serif" font-size="10.00">ml::model::CMetricPopulation</text>
<text text-anchor="middle" x="446.5" y="-223.12" font-family="Helvetica,sans-Serif" font-size="10.00">Model::sample</text>
</a>
</g>
</g>
<!-- Node11&#45;&gt;Node13 -->
<g id="edge12_Node000011_Node000013" class="edge">
<title>Node11&#45;&gt;Node13</title>
<g id="a_edge12_Node000011_Node000013"><a xlink:title=" ">
<path fill="none" stroke="#63b8ff" d="M563.5,-238.47C548.81,-237.73 533.61,-236.96 519.25,-236.24"/>
<polygon fill="#63b8ff" stroke="#63b8ff" points="562.94,-241.95 573.11,-238.95 563.29,-234.95 562.94,-241.95"/>
</a>
</g>
</g>
<!-- Node14 -->
<g id="Node000014" class="node">
<title>Node14</title>
<g id="a_Node000014"><a xlink:href="../../d0/d77/classml_1_1model_1_1_c_event_rate_population_model.html#af772818e59f98fba772923915e6e0d32" target="_top" xlink:title=" ">
<polygon fill="white" stroke="#666666" points="528.75,-198.88 364.25,-198.88 364.25,-168.38 528.75,-168.38 528.75,-198.88"/>
<text text-anchor="start" x="372.25" y="-185.38" font-family="Helvetica,sans-Serif" font-size="10.00">ml::model::CEventRatePopulation</text>
<text text-anchor="middle" x="446.5" y="-174.12" font-family="Helvetica,sans-Serif" font-size="10.00">Model::sampleBucketStatistics</text>
</a>
</g>
</g>
<!-- Node11&#45;&gt;Node14 -->
<g id="edge14_Node000011_Node000014" class="edge">
<title>Node11&#45;&gt;Node14</title>
<g id="a_edge14_Node000011_Node000014"><a xlink:title=" ">
<path fill="none" stroke="#63b8ff" d="M582.37,-223.71C555.88,-215.84 525.5,-206.81 500.29,-199.31"/>
<polygon fill="#63b8ff" stroke="#63b8ff" points="581.03,-226.97 591.62,-226.46 583.03,-220.26 581.03,-226.97"/>
</a>
</g>
</g>
<!-- Node15 -->
<g id="Node000015" class="node">
<title>Node15</title>
<g id="a_Node000015"><a xlink:href="../../d2/d49/classml_1_1model_1_1_c_metric_population_model.html#aab1df5b44c7137345d39ea37dc476eda" target="_top" xlink:title=" ">
<polygon fill="white" stroke="#666666" points="522.38,-363.88 370.62,-363.88 370.62,-333.38 522.38,-333.38 522.38,-363.88"/>
<text text-anchor="start" x="378.62" y="-350.38" font-family="Helvetica,sans-Serif" font-size="10.00">ml::model::CMetricPopulation</text>
<text text-anchor="middle" x="446.5" y="-339.12" font-family="Helvetica,sans-Serif" font-size="10.00">Model::sampleBucketStatistics</text>
</a>
</g>
</g>
<!-- Node11&#45;&gt;Node15 -->
<g id="edge15_Node000011_Node000015" class="edge">
<title>Node11&#45;&gt;Node15</title>
<g id="a_edge15_Node000011_Node000015"><a xlink:title=" ">
<path fill="none" stroke="#63b8ff" d="M618.44,-265.3C595.58,-283.19 561.62,-307.68 528.75,-323.62 521.58,-327.1 513.82,-330.23 506.04,-332.99"/>
<polygon fill="#63b8ff" stroke="#63b8ff" points="620.38,-268.23 626.03,-259.27 616.03,-262.75 620.38,-268.23"/>
</a>
</g>
</g>
<!-- Node13&#45;&gt;Node13 -->
<g id="edge13_Node000013_Node000013" class="edge">
<title>Node13&#45;&gt;Node13</title>
<g id="a_edge13_Node000013_Node000013"><a xlink:title=" ">
<path fill="none" stroke="#63b8ff" d="M478.49,-259.58C473.26,-263.35 462.6,-265.88 446.5,-265.88 417.07,-265.88 405.8,-257.43 412.7,-248.36"/>
<polygon fill="#63b8ff" stroke="#63b8ff" points="481.92,-260.29 480.06,-249.86 475.01,-259.17 481.92,-260.29"/>
</a>
</g>
</g>
<!-- Node17&#45;&gt;Node2 -->
<g id="edge18_Node000017_Node000002" class="edge">
<title>Node17&#45;&gt;Node2</title>
<g id="a_edge18_Node000017_Node000002"><a xlink:title=" ">
<path fill="none" stroke="#63b8ff" d="M565.74,-114.9C549.5,-116.38 532.56,-117.91 516.74,-119.35"/>
<polygon fill="#63b8ff" stroke="#63b8ff" points="565.7,-118.42 575.35,-114.03 565.07,-111.45 565.7,-118.42"/>
</a>
</g>
</g>
</g>
</svg>
