<?xml version="1.0" encoding="UTF-8" standalone="no"?>
<!DOCTYPE svg PUBLIC "-//W3C//DTD SVG 1.1//EN"
 "http://www.w3.org/Graphics/SVG/1.1/DTD/svg11.dtd">
<!-- Generated by graphviz version 10.0.1 (20240210.2158)
 -->
<!-- Title: ml::model::CAnomalyDetectorModel::addResults Pages: 1 -->
<svg width="795pt" height="578pt"
 viewBox="0.00 0.00 794.50 577.50" xmlns="http://www.w3.org/2000/svg" xmlns:xlink="http://www.w3.org/1999/xlink">
<g id="graph0" class="graph" transform="scale(1 1) rotate(0) translate(4 573.5)">
<title>ml::model::CAnomalyDetectorModel::addResults</title>
<!-- Node1 -->
<g id="Node000001" class="node">
<title>Node1</title>
<g id="a_Node000001"><a xlink:title=" ">
<polygon fill="#999999" stroke="#666666" points="148,-275.5 0,-275.5 0,-245 148,-245 148,-275.5"/>
<text text-anchor="start" x="8" y="-262" font-family="Helvetica,sans-Serif" font-size="10.00">ml::model::CAnomalyDetector</text>
<text text-anchor="middle" x="74" y="-250.75" font-family="Helvetica,sans-Serif" font-size="10.00">Model::addResults</text>
</a>
</g>
</g>
<!-- Node2 -->
<g id="Node000002" class="node">
<title>Node2</title>
<g id="a_Node000002"><a xlink:href="../../d4/d82/classml_1_1model_1_1_c_partitioning_fields.html#ae091ecfc6abc4ec284fe69c55b4f400b" target="_top" xlink:title="Append the field (name, value) pair (fieldName, fieldValue).">
<polygon fill="white" stroke="#666666" points="322.62,-520.5 201.62,-520.5 201.62,-490 322.62,-490 322.62,-520.5"/>
<text text-anchor="start" x="209.62" y="-507" font-family="Helvetica,sans-Serif" font-size="10.00">ml::model::CPartitioning</text>
<text text-anchor="middle" x="262.12" y="-495.75" font-family="Helvetica,sans-Serif" font-size="10.00">Fields::add</text>
</a>
</g>
</g>
<!-- Node1&#45;&gt;Node2 -->
<g id="edge1_Node000001_Node000002" class="edge">
<title>Node1&#45;&gt;Node2</title>
<g id="a_edge1_Node000001_Node000002"><a xlink:title=" ">
<path fill="none" stroke="#63b8ff" d="M78.31,-275.87C87.6,-315.9 117.69,-423.01 184,-480.25 186.32,-482.25 188.8,-484.09 191.4,-485.79"/>
<polygon fill="#63b8ff" stroke="#63b8ff" points="189.49,-488.73 199.93,-490.56 192.91,-482.62 189.49,-488.73"/>
</a>
</g>
</g>
<!-- Node3 -->
<g id="Node000003" class="node">
<title>Node3</title>
<g id="a_Node000003"><a xlink:href="../../d5/df2/classml_1_1model_1_1_c_hierarchical_results.html#a3025adbfa186fbaa313b56be03c1e00d" target="_top" xlink:title=" ">
<polygon fill="white" stroke="#666666" points="325.25,-422.5 199,-422.5 199,-392 325.25,-392 325.25,-422.5"/>
<text text-anchor="start" x="207" y="-409" font-family="Helvetica,sans-Serif" font-size="10.00">ml::model::CHierarchical</text>
<text text-anchor="middle" x="262.12" y="-397.75" font-family="Helvetica,sans-Serif" font-size="10.00">Results::addModelResult</text>
</a>
</g>
</g>
<!-- Node1&#45;&gt;Node3 -->
<g id="edge2_Node000001_Node000003" class="edge">
<title>Node1&#45;&gt;Node3</title>
<g id="a_edge2_Node000001_Node000003"><a xlink:title=" ">
<path fill="none" stroke="#63b8ff" d="M84.79,-275.74C101.85,-301.52 139.5,-353.25 184,-382.25 186.37,-383.8 188.85,-385.25 191.4,-386.63"/>
<polygon fill="#63b8ff" stroke="#63b8ff" points="189.64,-389.66 200.16,-390.86 192.68,-383.36 189.64,-389.66"/>
</a>
</g>
</g>
<!-- Node11 -->
<g id="Node000011" class="node">
<title>Node11</title>
<g id="a_Node000011"><a xlink:href="../../d5/df2/classml_1_1model_1_1_c_hierarchical_results.html#a4d84c18ca5918bd2a44398fee2bde7a6" target="_top" xlink:title="Add a dummy result for a simple count detector.">
<polygon fill="white" stroke="#666666" points="340.25,-471.5 184,-471.5 184,-441 340.25,-441 340.25,-471.5"/>
<text text-anchor="start" x="192" y="-458" font-family="Helvetica,sans-Serif" font-size="10.00">ml::model::CHierarchical</text>
<text text-anchor="middle" x="262.12" y="-446.75" font-family="Helvetica,sans-Serif" font-size="10.00">Results::addSimpleCountResult</text>
</a>
</g>
</g>
<!-- Node1&#45;&gt;Node11 -->
<g id="edge10_Node000001_Node000011" class="edge">
<title>Node1&#45;&gt;Node11</title>
<g id="a_edge10_Node000001_Node000011"><a xlink:title=" ">
<path fill="none" stroke="#63b8ff" d="M80.66,-275.78C93.63,-309.23 128.72,-388.49 184,-431.25 185.75,-432.61 187.58,-433.89 189.47,-435.11"/>
<polygon fill="#63b8ff" stroke="#63b8ff" points="187.59,-438.06 198.03,-439.89 191.01,-431.96 187.59,-438.06"/>
</a>
</g>
</g>
<!-- Node13 -->
<g id="Node000013" class="node">
<title>Node13</title>
<g id="a_Node000013"><a xlink:href="../../d4/d82/classml_1_1model_1_1_c_partitioning_fields.html#a95c26f5c054c1d0a123afd6b153ded01" target="_top" xlink:title="Get a read only reference to the last field (name, value) pair.">
<polygon fill="white" stroke="#666666" points="322.62,-373.5 201.62,-373.5 201.62,-343 322.62,-343 322.62,-373.5"/>
<text text-anchor="start" x="209.62" y="-360" font-family="Helvetica,sans-Serif" font-size="10.00">ml::model::CPartitioning</text>
<text text-anchor="middle" x="262.12" y="-348.75" font-family="Helvetica,sans-Serif" font-size="10.00">Fields::back</text>
</a>
</g>
</g>
<!-- Node1&#45;&gt;Node13 -->
<g id="edge16_Node000001_Node000013" class="edge">
<title>Node1&#45;&gt;Node13</title>
<g id="a_edge16_Node000001_Node000013"><a xlink:title=" ">
<path fill="none" stroke="#63b8ff" d="M94.48,-275.74C115.54,-291.88 150.6,-317.04 184,-333.25 187.77,-335.08 191.7,-336.82 195.71,-338.47"/>
<polygon fill="#63b8ff" stroke="#63b8ff" points="194.44,-341.73 205.03,-342.07 196.96,-335.2 194.44,-341.73"/>
</a>
</g>
</g>
<!-- Node14 -->
<g id="Node000014" class="node">
<title>Node14</title>
<g id="a_Node000014"><a xlink:href="../../da/d88/classml_1_1model_1_1_c_anomaly_detector_model.html#a4f4a336a8a857ad9c96255b3b9dbbd0f" target="_top" xlink:title="Check if bucket statistics are available for the specified time.">
<polygon fill="white" stroke="#666666" points="336.12,-324.5 188.12,-324.5 188.12,-294 336.12,-294 336.12,-324.5"/>
<text text-anchor="start" x="196.12" y="-311" font-family="Helvetica,sans-Serif" font-size="10.00">ml::model::CAnomalyDetector</text>
<text text-anchor="middle" x="262.12" y="-299.75" font-family="Helvetica,sans-Serif" font-size="10.00">Model::bucketStatsAvailable</text>
</a>
</g>
</g>
<!-- Node1&#45;&gt;Node14 -->
<g id="edge17_Node000001_Node000014" class="edge">
<title>Node1&#45;&gt;Node14</title>
<g id="a_edge17_Node000001_Node000014"><a xlink:title=" ">
<path fill="none" stroke="#63b8ff" d="M134.66,-275.96C152.44,-280.64 172.1,-285.81 190.51,-290.66"/>
<polygon fill="#63b8ff" stroke="#63b8ff" points="189.46,-294 200.02,-293.16 191.24,-287.23 189.46,-294"/>
</a>
</g>
</g>
<!-- Node15 -->
<g id="Node000015" class="node">
<title>Node15</title>
<g id="a_Node000015"><a xlink:href="../../da/d88/classml_1_1model_1_1_c_anomaly_detector_model.html#a2364cc77ab5b9e9fa50dc3b67ac3237a" target="_top" xlink:title="Get the model category.">
<polygon fill="white" stroke="#666666" points="336.12,-275.5 188.12,-275.5 188.12,-245 336.12,-245 336.12,-275.5"/>
<text text-anchor="start" x="196.12" y="-262" font-family="Helvetica,sans-Serif" font-size="10.00">ml::model::CAnomalyDetector</text>
<text text-anchor="middle" x="262.12" y="-250.75" font-family="Helvetica,sans-Serif" font-size="10.00">Model::category</text>
</a>
</g>
</g>
<!-- Node1&#45;&gt;Node15 -->
<g id="edge18_Node000001_Node000015" class="edge">
<title>Node1&#45;&gt;Node15</title>
<g id="a_edge18_Node000001_Node000015"><a xlink:title=" ">
<path fill="none" stroke="#63b8ff" d="M148.29,-260.25C157.55,-260.25 167.08,-260.25 176.5,-260.25"/>
<polygon fill="#63b8ff" stroke="#63b8ff" points="176.38,-263.75 186.38,-260.25 176.38,-256.75 176.38,-263.75"/>
</a>
</g>
</g>
<!-- Node16 -->
<g id="Node000016" class="node">
<title>Node16</title>
<g id="a_Node000016"><a xlink:href="../../da/d88/classml_1_1model_1_1_c_anomaly_detector_model.html#a85fbddcfc8390f53b94b003f24d63810" target="_top" xlink:title=" ">
<polygon fill="white" stroke="#666666" points="336.12,-226.5 188.12,-226.5 188.12,-196 336.12,-196 336.12,-226.5"/>
<text text-anchor="start" x="196.12" y="-213" font-family="Helvetica,sans-Serif" font-size="10.00">ml::model::CAnomalyDetector</text>
<text text-anchor="middle" x="262.12" y="-201.75" font-family="Helvetica,sans-Serif" font-size="10.00">Model::computeProbability</text>
</a>
</g>
</g>
<!-- Node1&#45;&gt;Node16 -->
<g id="edge19_Node000001_Node000016" class="edge">
<title>Node1&#45;&gt;Node16</title>
<g id="a_edge19_Node000001_Node000016"><a xlink:title=" ">
<path fill="none" stroke="#63b8ff" d="M134.66,-244.54C152.44,-239.86 172.1,-234.69 190.51,-229.84"/>
<polygon fill="#63b8ff" stroke="#63b8ff" points="191.24,-233.27 200.02,-227.34 189.46,-226.5 191.24,-233.27"/>
</a>
</g>
</g>
<!-- Node17 -->
<g id="Node000017" class="node">
<title>Node17</title>
<g id="a_Node000017"><a xlink:href="../../da/d88/classml_1_1model_1_1_c_anomaly_detector_model.html#aed1c49f1908d0621d0ca8c0f010d5618" target="_top" xlink:title=" ">
<polygon fill="white" stroke="#666666" points="338.75,-177.5 185.5,-177.5 185.5,-147 338.75,-147 338.75,-177.5"/>
<text text-anchor="start" x="193.5" y="-164" font-family="Helvetica,sans-Serif" font-size="10.00">ml::model::CAnomalyDetector</text>
<text text-anchor="middle" x="262.12" y="-152.75" font-family="Helvetica,sans-Serif" font-size="10.00">Model::currentBucketPersonIds</text>
</a>
</g>
</g>
<!-- Node1&#45;&gt;Node17 -->
<g id="edge20_Node000001_Node000017" class="edge">
<title>Node1&#45;&gt;Node17</title>
<g id="a_edge20_Node000001_Node000017"><a xlink:title=" ">
<path fill="none" stroke="#63b8ff" d="M94.48,-244.76C115.54,-228.62 150.6,-203.46 184,-187.25 187.77,-185.42 191.7,-183.68 195.71,-182.03"/>
<polygon fill="#63b8ff" stroke="#63b8ff" points="196.96,-185.3 205.03,-178.43 194.44,-178.77 196.96,-185.3"/>
</a>
</g>
</g>
<!-- Node18 -->
<g id="Node000018" class="node">
<title>Node18</title>
<g id="a_Node000018"><a xlink:href="../../d4/d1f/namespaceml_1_1model_1_1function__t.html#a31a129ca64e498ea1efccc3ef6f6c12e" target="_top" xlink:title="Get the name of function.">
<polygon fill="white" stroke="#666666" points="311.75,-128.5 212.5,-128.5 212.5,-98 311.75,-98 311.75,-128.5"/>
<text text-anchor="start" x="220.5" y="-115" font-family="Helvetica,sans-Serif" font-size="10.00">ml::model::function</text>
<text text-anchor="middle" x="262.12" y="-103.75" font-family="Helvetica,sans-Serif" font-size="10.00">_t::name</text>
</a>
</g>
</g>
<!-- Node1&#45;&gt;Node18 -->
<g id="edge21_Node000001_Node000018" class="edge">
<title>Node1&#45;&gt;Node18</title>
<g id="a_edge21_Node000001_Node000018"><a xlink:title=" ">
<path fill="none" stroke="#63b8ff" d="M84.79,-244.76C101.85,-218.98 139.5,-167.25 184,-138.25 189.44,-134.71 195.42,-131.63 201.58,-128.96"/>
<polygon fill="#63b8ff" stroke="#63b8ff" points="202.59,-132.32 210.62,-125.41 200.03,-125.81 202.59,-132.32"/>
</a>
</g>
</g>
<!-- Node24 -->
<g id="Node000024" class="node">
<title>Node24</title>
<g id="a_Node000024"><a xlink:href="../../da/d88/classml_1_1model_1_1_c_anomaly_detector_model.html#a7e062309a949de4c9d61ae904a16c65f" target="_top" xlink:title=" ">
<polygon fill="white" stroke="#666666" points="336.12,-79.5 188.12,-79.5 188.12,-49 336.12,-49 336.12,-79.5"/>
<text text-anchor="start" x="196.12" y="-66" font-family="Helvetica,sans-Serif" font-size="10.00">ml::model::CAnomalyDetector</text>
<text text-anchor="middle" x="262.12" y="-54.75" font-family="Helvetica,sans-Serif" font-size="10.00">Model::personName</text>
</a>
</g>
</g>
<!-- Node1&#45;&gt;Node24 -->
<g id="edge29_Node000001_Node000024" class="edge">
<title>Node1&#45;&gt;Node24</title>
<g id="a_edge29_Node000001_Node000024"><a xlink:title=" ">
<path fill="none" stroke="#63b8ff" d="M80.66,-244.72C93.63,-211.27 128.72,-132.01 184,-89.25 185.75,-87.89 187.58,-86.61 189.47,-85.39"/>
<polygon fill="#63b8ff" stroke="#63b8ff" points="191.01,-88.54 198.03,-80.61 187.59,-82.44 191.01,-88.54"/>
</a>
</g>
</g>
<!-- Node26 -->
<g id="Node000026" class="node">
<title>Node26</title>
<g id="a_Node000026"><a xlink:href="../../d5/df2/classml_1_1model_1_1_c_hierarchical_results.html#a2f7f6215e7c838871e490d446ea6afb3" target="_top" xlink:title="Get type of result.">
<polygon fill="white" stroke="#666666" points="324.12,-30.5 200.12,-30.5 200.12,0 324.12,0 324.12,-30.5"/>
<text text-anchor="start" x="208.12" y="-17" font-family="Helvetica,sans-Serif" font-size="10.00">ml::model::CHierarchical</text>
<text text-anchor="middle" x="262.12" y="-5.75" font-family="Helvetica,sans-Serif" font-size="10.00">Results::resultType</text>
</a>
</g>
</g>
<!-- Node1&#45;&gt;Node26 -->
<g id="edge32_Node000001_Node000026" class="edge">
<title>Node1&#45;&gt;Node26</title>
<g id="a_edge32_Node000001_Node000026"><a xlink:title=" ">
<path fill="none" stroke="#63b8ff" d="M78.31,-244.63C87.6,-204.6 117.69,-97.49 184,-40.25 185.9,-38.61 187.92,-37.07 190.02,-35.63"/>
<polygon fill="#63b8ff" stroke="#63b8ff" points="191.53,-38.8 198.39,-30.73 187.99,-32.76 191.53,-38.8"/>
</a>
</g>
</g>
<!-- Node4 -->
<g id="Node000004" class="node">
<title>Node4</title>
<g id="a_Node000004"><a xlink:href="../../da/d88/classml_1_1model_1_1_c_anomaly_detector_model.html#aba56af5c27a1bb113941c81977171f5e" target="_top" xlink:title="Get the length of the time interval used to aggregate data.">
<polygon fill="white" stroke="#666666" points="536.62,-471.5 388.62,-471.5 388.62,-441 536.62,-441 536.62,-471.5"/>
<text text-anchor="start" x="396.62" y="-458" font-family="Helvetica,sans-Serif" font-size="10.00">ml::model::CAnomalyDetector</text>
<text text-anchor="middle" x="462.62" y="-446.75" font-family="Helvetica,sans-Serif" font-size="10.00">Model::bucketLength</text>
</a>
</g>
</g>
<!-- Node3&#45;&gt;Node4 -->
<g id="edge3_Node000003_Node000004" class="edge">
<title>Node3&#45;&gt;Node4</title>
<g id="a_edge3_Node000003_Node000004"><a xlink:title=" ">
<path fill="none" stroke="#63b8ff" d="M325.66,-422.69C345.12,-427.49 366.78,-432.84 386.99,-437.83"/>
<polygon fill="#63b8ff" stroke="#63b8ff" points="386.02,-441.19 396.57,-440.19 387.7,-434.4 386.02,-441.19"/>
</a>
</g>
</g>
<!-- Node6 -->
<g id="Node000006" class="node">
<title>Node6</title>
<g id="a_Node000006"><a xlink:href="../../db/d69/classml_1_1model_1_1_c_search_key.html#a85b7baebf081bd3691b407274032651e" target="_top" xlink:title="Get the by field name.">
<polygon fill="white" stroke="#666666" points="522.75,-275.5 402.5,-275.5 402.5,-245 522.75,-245 522.75,-275.5"/>
<text text-anchor="start" x="410.5" y="-262" font-family="Helvetica,sans-Serif" font-size="10.00">ml::model::CSearchKey</text>
<text text-anchor="middle" x="462.62" y="-250.75" font-family="Helvetica,sans-Serif" font-size="10.00">::byFieldName</text>
</a>
</g>
</g>
<!-- Node3&#45;&gt;Node6 -->
<g id="edge5_Node000003_Node000006" class="edge">
<title>Node3&#45;&gt;Node6</title>
<g id="a_edge5_Node000003_Node000006"><a xlink:title=" ">
<path fill="none" stroke="#63b8ff" d="M325.38,-392.83C330.8,-389.93 335.88,-386.44 340.25,-382.25 373.44,-350.42 342.61,-316.6 376.25,-285.25 380.84,-280.97 386.12,-277.42 391.76,-274.48"/>
<polygon fill="#63b8ff" stroke="#63b8ff" points="393.15,-277.69 400.85,-270.42 390.29,-271.3 393.15,-277.69"/>
</a>
</g>
</g>
<!-- Node7 -->
<g id="Node000007" class="node">
<title>Node7</title>
<g id="a_Node000007"><a xlink:href="../../da/d88/classml_1_1model_1_1_c_anomaly_detector_model.html#a8156c7269ff8ea6a19dfeef12c5a1bb1" target="_top" xlink:title="Get the time series data gatherer.">
<polygon fill="white" stroke="#666666" points="536.62,-422.5 388.62,-422.5 388.62,-392 536.62,-392 536.62,-422.5"/>
<text text-anchor="start" x="396.62" y="-409" font-family="Helvetica,sans-Serif" font-size="10.00">ml::model::CAnomalyDetector</text>
<text text-anchor="middle" x="462.62" y="-397.75" font-family="Helvetica,sans-Serif" font-size="10.00">Model::dataGatherer</text>
</a>
</g>
</g>
<!-- Node3&#45;&gt;Node7 -->
<g id="edge6_Node000003_Node000007" class="edge">
<title>Node3&#45;&gt;Node7</title>
<g id="a_edge6_Node000003_Node000007"><a xlink:title=" ">
<path fill="none" stroke="#63b8ff" d="M325.66,-407.25C341.97,-407.25 359.83,-407.25 377.08,-407.25"/>
<polygon fill="#63b8ff" stroke="#63b8ff" points="376.79,-410.75 386.79,-407.25 376.79,-403.75 376.79,-410.75"/>
</a>
</g>
</g>
<!-- Node8 -->
<g id="Node000008" class="node">
<title>Node8</title>
<g id="a_Node000008"><a xlink:href="../../d5/df2/classml_1_1model_1_1_c_hierarchical_results.html#af0c1c424e1387b17b3fc3d3512e24364" target="_top" xlink:title="Create a new leaf node for the simple search simpleSearch.">
<polygon fill="white" stroke="#666666" points="524.62,-373.5 400.62,-373.5 400.62,-343 524.62,-343 524.62,-373.5"/>
<text text-anchor="start" x="408.62" y="-360" font-family="Helvetica,sans-Serif" font-size="10.00">ml::model::CHierarchical</text>
<text text-anchor="middle" x="462.62" y="-348.75" font-family="Helvetica,sans-Serif" font-size="10.00">Results::newLeaf</text>
</a>
</g>
</g>
<!-- Node3&#45;&gt;Node8 -->
<g id="edge7_Node000003_Node000008" class="edge">
<title>Node3&#45;&gt;Node8</title>
<g id="a_edge7_Node000003_Node000008"><a xlink:title=" ">
<path fill="none" stroke="#63b8ff" d="M325.66,-391.81C345.89,-386.82 368.49,-381.24 389.36,-376.09"/>
<polygon fill="#63b8ff" stroke="#63b8ff" points="390.09,-379.51 398.95,-373.72 388.41,-372.72 390.09,-379.51"/>
</a>
</g>
</g>
<!-- Node9 -->
<g id="Node000009" class="node">
<title>Node9</title>
<g id="a_Node000009"><a xlink:href="../../d0/d91/classml_1_1model_1_1_c_data_gatherer.html#ad52ab469da0ee958cf60af651e5e3dea" target="_top" xlink:title="Return the search key for which this is gathering data.">
<polygon fill="white" stroke="#666666" points="528,-324.5 397.25,-324.5 397.25,-294 528,-294 528,-324.5"/>
<text text-anchor="start" x="405.25" y="-311" font-family="Helvetica,sans-Serif" font-size="10.00">ml::model::CDataGatherer</text>
<text text-anchor="middle" x="462.62" y="-299.75" font-family="Helvetica,sans-Serif" font-size="10.00">::searchKey</text>
</a>
</g>
</g>
<!-- Node3&#45;&gt;Node9 -->
<g id="edge8_Node000003_Node000009" class="edge">
<title>Node3&#45;&gt;Node9</title>
<g id="a_edge8_Node000003_Node000009"><a xlink:title=" ">
<path fill="none" stroke="#63b8ff" d="M323.83,-391.62C329.63,-388.95 335.21,-385.85 340.25,-382.25 361.95,-366.75 354.33,-349.44 376.25,-334.25 379.62,-331.91 383.21,-329.79 386.94,-327.87"/>
<polygon fill="#63b8ff" stroke="#63b8ff" points="388.07,-331.2 395.7,-323.85 385.15,-324.84 388.07,-331.2"/>
</a>
</g>
</g>
<!-- Node10 -->
<g id="Node000010" class="node">
<title>Node10</title>
<g id="a_Node000010"><a xlink:href="../../d0/d91/classml_1_1model_1_1_c_data_gatherer.html#a4cfa47ec8e427ce644d9c1296c3bb935" target="_top" xlink:title="Have we been configured to use NULL values?">
<polygon fill="white" stroke="#666666" points="528,-520.5 397.25,-520.5 397.25,-490 528,-490 528,-520.5"/>
<text text-anchor="start" x="405.25" y="-507" font-family="Helvetica,sans-Serif" font-size="10.00">ml::model::CDataGatherer</text>
<text text-anchor="middle" x="462.62" y="-495.75" font-family="Helvetica,sans-Serif" font-size="10.00">::useNull</text>
</a>
</g>
</g>
<!-- Node3&#45;&gt;Node10 -->
<g id="edge9_Node000003_Node000010" class="edge">
<title>Node3&#45;&gt;Node10</title>
<g id="a_edge9_Node000003_Node000010"><a xlink:title=" ">
<path fill="none" stroke="#63b8ff" d="M323.83,-422.88C329.63,-425.55 335.21,-428.65 340.25,-432.25 361.95,-447.75 354.33,-465.06 376.25,-480.25 379.62,-482.59 383.21,-484.71 386.94,-486.63"/>
<polygon fill="#63b8ff" stroke="#63b8ff" points="385.15,-489.66 395.7,-490.65 388.07,-483.3 385.15,-489.66"/>
</a>
</g>
</g>
<!-- Node5 -->
<g id="Node000005" class="node">
<title>Node5</title>
<g id="a_Node000005"><a xlink:href="../../d0/d91/classml_1_1model_1_1_c_data_gatherer.html#acea33437fdc2fb56e45d93d41deffc87" target="_top" xlink:title="Get the length of the bucketing time interval.">
<polygon fill="white" stroke="#666666" points="715.75,-471.5 585,-471.5 585,-441 715.75,-441 715.75,-471.5"/>
<text text-anchor="start" x="593" y="-458" font-family="Helvetica,sans-Serif" font-size="10.00">ml::model::CDataGatherer</text>
<text text-anchor="middle" x="650.38" y="-446.75" font-family="Helvetica,sans-Serif" font-size="10.00">::bucketLength</text>
</a>
</g>
</g>
<!-- Node4&#45;&gt;Node5 -->
<g id="edge4_Node000004_Node000005" class="edge">
<title>Node4&#45;&gt;Node5</title>
<g id="a_edge4_Node000004_Node000005"><a xlink:title=" ">
<path fill="none" stroke="#63b8ff" d="M537.04,-456.25C548.95,-456.25 561.31,-456.25 573.28,-456.25"/>
<polygon fill="#63b8ff" stroke="#63b8ff" points="573.1,-459.75 583.1,-456.25 573.1,-452.75 573.1,-459.75"/>
</a>
</g>
</g>
<!-- Node11&#45;&gt;Node4 -->
<g id="edge11_Node000011_Node000004" class="edge">
<title>Node11&#45;&gt;Node4</title>
<g id="a_edge11_Node000011_Node000004"><a xlink:title=" ">
<path fill="none" stroke="#63b8ff" d="M340.72,-456.25C352.59,-456.25 364.89,-456.25 376.9,-456.25"/>
<polygon fill="#63b8ff" stroke="#63b8ff" points="376.79,-459.75 386.79,-456.25 376.79,-452.75 376.79,-459.75"/>
</a>
</g>
</g>
<!-- Node11&#45;&gt;Node7 -->
<g id="edge12_Node000011_Node000007" class="edge">
<title>Node11&#45;&gt;Node7</title>
<g id="a_edge12_Node000011_Node000007"><a xlink:title=" ">
<path fill="none" stroke="#63b8ff" d="M326.75,-440.54C345.89,-435.82 367.07,-430.59 386.87,-425.7"/>
<polygon fill="#63b8ff" stroke="#63b8ff" points="387.68,-429.11 396.55,-423.31 386,-422.31 387.68,-429.11"/>
</a>
</g>
</g>
<!-- Node11&#45;&gt;Node8 -->
<g id="edge13_Node000011_Node000008" class="edge">
<title>Node11&#45;&gt;Node8</title>
<g id="a_edge13_Node000011_Node000008"><a xlink:title=" ">
<path fill="none" stroke="#63b8ff" d="M323.83,-440.62C329.63,-437.95 335.21,-434.85 340.25,-431.25 361.95,-415.75 354.33,-398.44 376.25,-383.25 380.43,-380.35 384.95,-377.78 389.66,-375.51"/>
<polygon fill="#63b8ff" stroke="#63b8ff" points="390.98,-378.75 398.79,-371.59 388.22,-372.32 390.98,-378.75"/>
</a>
</g>
</g>
<!-- Node11&#45;&gt;Node10 -->
<g id="edge15_Node000011_Node000010" class="edge">
<title>Node11&#45;&gt;Node10</title>
<g id="a_edge15_Node000011_Node000010"><a xlink:title=" ">
<path fill="none" stroke="#63b8ff" d="M326.75,-471.96C345.89,-476.68 367.07,-481.91 386.87,-486.8"/>
<polygon fill="#63b8ff" stroke="#63b8ff" points="386,-490.19 396.55,-489.19 387.68,-483.39 386,-490.19"/>
</a>
</g>
</g>
<!-- Node12 -->
<g id="Node000012" class="node">
<title>Node12</title>
<g id="a_Node000012"><a xlink:href="../../da/d88/classml_1_1model_1_1_c_anomaly_detector_model.html#aab28b49e2d39f4cf86a9b1712f4c520f" target="_top" xlink:title="Get the descriptions of any occurring scheduled event descriptions for the bucket time.">
<polygon fill="white" stroke="#666666" points="549,-569.5 376.25,-569.5 376.25,-539 549,-539 549,-569.5"/>
<text text-anchor="start" x="384.25" y="-556" font-family="Helvetica,sans-Serif" font-size="10.00">ml::model::CAnomalyDetector</text>
<text text-anchor="middle" x="462.62" y="-544.75" font-family="Helvetica,sans-Serif" font-size="10.00">Model::scheduledEventDescriptions</text>
</a>
</g>
</g>
<!-- Node11&#45;&gt;Node12 -->
<g id="edge14_Node000011_Node000012" class="edge">
<title>Node11&#45;&gt;Node12</title>
<g id="a_edge14_Node000011_Node000012"><a xlink:title=" ">
<path fill="none" stroke="#63b8ff" d="M323.83,-471.88C329.63,-474.55 335.21,-477.65 340.25,-481.25 361.95,-496.75 354.33,-514.06 376.25,-529.25 378.45,-530.77 380.73,-532.2 383.09,-533.55"/>
<polygon fill="#63b8ff" stroke="#63b8ff" points="381.27,-536.55 391.78,-537.92 384.42,-530.3 381.27,-536.55"/>
</a>
</g>
</g>
<!-- Node19 -->
<g id="Node000019" class="node">
<title>Node19</title>
<g id="a_Node000019"><a xlink:href="../../d4/d1f/namespaceml_1_1model_1_1function__t.html#a1f7f2573b471fabd80efd3225eed55d8" target="_top" xlink:title="The inverse mapping from features to function.">
<polygon fill="white" stroke="#666666" points="512.25,-138.5 413,-138.5 413,-108 512.25,-108 512.25,-138.5"/>
<text text-anchor="start" x="421" y="-125" font-family="Helvetica,sans-Serif" font-size="10.00">ml::model::function</text>
<text text-anchor="middle" x="462.62" y="-113.75" font-family="Helvetica,sans-Serif" font-size="10.00">_t::function</text>
</a>
</g>
</g>
<!-- Node18&#45;&gt;Node19 -->
<g id="edge22_Node000018_Node000019" class="edge">
<title>Node18&#45;&gt;Node19</title>
<g id="a_edge22_Node000018_Node000019"><a xlink:title=" ">
<path fill="none" stroke="#63b8ff" d="M312.19,-115.72C339.13,-117.08 372.77,-118.77 401.31,-120.21"/>
<polygon fill="#63b8ff" stroke="#63b8ff" points="401.1,-123.71 411.27,-120.71 401.46,-116.71 401.1,-123.71"/>
</a>
</g>
</g>
<!-- Node20 -->
<g id="Node000020" class="node">
<title>Node20</title>
<g id="a_Node000020"><a xlink:href="../../d4/d1f/namespaceml_1_1model_1_1function__t.html#abb2b62461ba7b3fcde91fc087dc7cbc6" target="_top" xlink:title="Get the mapping from function to data features.">
<polygon fill="white" stroke="#666666" points="700,-187.5 600.75,-187.5 600.75,-157 700,-157 700,-187.5"/>
<text text-anchor="start" x="608.75" y="-174" font-family="Helvetica,sans-Serif" font-size="10.00">ml::model::function</text>
<text text-anchor="middle" x="650.38" y="-162.75" font-family="Helvetica,sans-Serif" font-size="10.00">_t::features</text>
</a>
</g>
</g>
<!-- Node19&#45;&gt;Node20 -->
<g id="edge23_Node000019_Node000020" class="edge">
<title>Node19&#45;&gt;Node20</title>
<g id="a_edge23_Node000019_Node000020"><a xlink:title=" ">
<path fill="none" stroke="#63b8ff" d="M512.43,-130.1C539.54,-136.29 573.18,-145.16 600.33,-153.28"/>
<polygon fill="#63b8ff" stroke="#63b8ff" points="599.12,-156.57 609.7,-156.14 601.16,-149.88 599.12,-156.57"/>
</a>
</g>
</g>
<!-- Node21 -->
<g id="Node000021" class="node">
<title>Node21</title>
<g id="a_Node000021"><a xlink:href="../../d4/d1f/namespaceml_1_1model_1_1function__t.html#aa88a7200c31df8bfe9ff9021e06f86f8" target="_top" xlink:title="Get a string description of function.">
<polygon fill="white" stroke="#666666" points="700,-138.5 600.75,-138.5 600.75,-108 700,-108 700,-138.5"/>
<text text-anchor="start" x="608.75" y="-125" font-family="Helvetica,sans-Serif" font-size="10.00">ml::model::function</text>
<text text-anchor="middle" x="650.38" y="-113.75" font-family="Helvetica,sans-Serif" font-size="10.00">_t::print</text>
</a>
</g>
</g>
<!-- Node19&#45;&gt;Node21 -->
<g id="edge25_Node000019_Node000021" class="edge">
<title>Node19&#45;&gt;Node21</title>
<g id="a_edge25_Node000019_Node000021"><a xlink:title=" ">
<path fill="none" stroke="#63b8ff" d="M512.43,-117.23C535.81,-116.39 564.05,-116.28 588.79,-116.88"/>
<polygon fill="#63b8ff" stroke="#63b8ff" points="588.64,-120.37 598.74,-117.17 588.85,-113.38 588.64,-120.37"/>
</a>
</g>
</g>
<!-- Node22 -->
<g id="Node000022" class="node">
<title>Node22</title>
<g id="a_Node000022"><a xlink:href="../../df/d9c/namespaceml_1_1model__t.html#ada583ac75540d0fcaac3a90317bafd3e" target="_top" xlink:title="Get a string description of a model type.">
<polygon fill="white" stroke="#666666" points="696.25,-89.88 604.5,-89.88 604.5,-70.62 696.25,-70.62 696.25,-89.88"/>
<text text-anchor="middle" x="650.38" y="-76.38" font-family="Helvetica,sans-Serif" font-size="10.00">ml::model_t::print</text>
</a>
</g>
</g>
<!-- Node19&#45;&gt;Node22 -->
<g id="edge27_Node000019_Node000022" class="edge">
<title>Node19&#45;&gt;Node22</title>
<g id="a_edge27_Node000019_Node000022"><a xlink:title=" ">
<path fill="none" stroke="#63b8ff" d="M512.43,-111.95C537.62,-106.12 568.43,-98.99 594.45,-92.96"/>
<polygon fill="#63b8ff" stroke="#63b8ff" points="595.22,-96.38 604.18,-90.71 593.65,-89.56 595.22,-96.38"/>
</a>
</g>
</g>
<!-- Node20&#45;&gt;Node19 -->
<g id="edge24_Node000020_Node000019" class="edge">
<title>Node20&#45;&gt;Node19</title>
<g id="a_edge24_Node000020_Node000019"><a xlink:title=" ">
<path fill="none" stroke="#63b8ff" d="M600.32,-165.34C573.32,-159.17 539.92,-150.37 512.89,-142.28"/>
<polygon fill="#63b8ff" stroke="#63b8ff" points="514.15,-139.01 503.56,-139.44 512.1,-145.7 514.15,-139.01"/>
</a>
</g>
</g>
<!-- Node21&#45;&gt;Node19 -->
<g id="edge26_Node000021_Node000019" class="edge">
<title>Node21&#45;&gt;Node19</title>
<g id="a_edge26_Node000021_Node000019"><a xlink:title=" ">
<path fill="none" stroke="#63b8ff" d="M600.25,-129.28C576.82,-130.11 548.58,-130.22 523.87,-129.62"/>
<polygon fill="#63b8ff" stroke="#63b8ff" points="524.04,-126.12 513.94,-129.32 523.83,-133.12 524.04,-126.12"/>
</a>
</g>
</g>
<!-- Node23 -->
<g id="Node000023" class="node">
<title>Node23</title>
<g id="a_Node000023"><a xlink:href="../../d3/d2e/private_8h.html#a1c6de65cc31c36fe2ede0d438531d327" target="_top" xlink:title=" ">
<polygon fill="white" stroke="#666666" points="786.5,-67.88 751.75,-67.88 751.75,-48.62 786.5,-48.62 786.5,-67.88"/>
<text text-anchor="middle" x="769.12" y="-54.38" font-family="Helvetica,sans-Serif" font-size="10.00">type</text>
</a>
</g>
</g>
<!-- Node22&#45;&gt;Node23 -->
<g id="edge28_Node000022_Node000023" class="edge">
<title>Node22&#45;&gt;Node23</title>
<g id="a_edge28_Node000022_Node000023"><a xlink:title=" ">
<path fill="none" stroke="#63b8ff" d="M696.51,-71.74C711.25,-68.97 727.18,-65.97 740.26,-63.5"/>
<polygon fill="#63b8ff" stroke="#63b8ff" points="740.69,-66.98 749.87,-61.69 739.4,-60.1 740.69,-66.98"/>
</a>
</g>
</g>
<!-- Node25 -->
<g id="Node000025" class="node">
<title>Node25</title>
<g id="a_Node000025"><a xlink:href="../../d1/dfa/classml_1_1core_1_1_c_string_utils.html#a0309dd25326b7d77c70fe5e6949b9e71" target="_top" xlink:title="Convert a type to a string.">
<polygon fill="white" stroke="#666666" points="705.62,-52.5 595.12,-52.5 595.12,-22 705.62,-22 705.62,-52.5"/>
<text text-anchor="start" x="603.12" y="-39" font-family="Helvetica,sans-Serif" font-size="10.00">ml::core::CStringUtils</text>
<text text-anchor="middle" x="650.38" y="-27.75" font-family="Helvetica,sans-Serif" font-size="10.00">::typeToString</text>
</a>
</g>
</g>
<!-- Node24&#45;&gt;Node25 -->
<g id="edge30_Node000024_Node000025" class="edge">
<title>Node24&#45;&gt;Node25</title>
<g id="a_edge30_Node000024_Node000025"><a xlink:title=" ">
<path fill="none" stroke="#63b8ff" d="M336.23,-59.14C407.5,-54.16 514.89,-46.65 583.56,-41.85"/>
<polygon fill="#63b8ff" stroke="#63b8ff" points="583.41,-45.37 593.15,-41.18 582.93,-38.39 583.41,-45.37"/>
</a>
</g>
</g>
<!-- Node25&#45;&gt;Node23 -->
<g id="edge31_Node000025_Node000023" class="edge">
<title>Node25&#45;&gt;Node23</title>
<g id="a_edge31_Node000025_Node000023"><a xlink:title=" ">
<path fill="none" stroke="#63b8ff" d="M705.99,-47.07C717.85,-49.21 729.91,-51.38 740.22,-53.23"/>
<polygon fill="#63b8ff" stroke="#63b8ff" points="739.44,-56.65 749.9,-54.97 740.68,-49.76 739.44,-56.65"/>
</a>
</g>
</g>
</g>
</svg>
