<?xml version="1.0" encoding="UTF-8" standalone="no"?>
<!DOCTYPE svg PUBLIC "-//W3C//DTD SVG 1.1//EN"
 "http://www.w3.org/Graphics/SVG/1.1/DTD/svg11.dtd">
<!-- Generated by graphviz version 10.0.1 (20240210.2158)
 -->
<!-- Title: ml::model::CAnomalyDetectorModel::personBucketCounts Pages: 1 -->
<svg width="747pt" height="406pt"
 viewBox="0.00 0.00 747.00 405.50" xmlns="http://www.w3.org/2000/svg" xmlns:xlink="http://www.w3.org/1999/xlink">
<g id="graph0" class="graph" transform="scale(1 1) rotate(0) translate(4 401.5)">
<title>ml::model::CAnomalyDetectorModel::personBucketCounts</title>
<!-- Node1 -->
<g id="Node000001" class="node">
<title>Node1</title>
<g id="a_Node000001"><a xlink:title="Get the person bucket counts.">
<polygon fill="#999999" stroke="#666666" points="739,-274.5 591,-274.5 591,-244 739,-244 739,-274.5"/>
<text text-anchor="start" x="599" y="-261" font-family="Helvetica,sans-Serif" font-size="10.00">ml::model::CAnomalyDetector</text>
<text text-anchor="middle" x="665" y="-249.75" font-family="Helvetica,sans-Serif" font-size="10.00">Model::personBucketCounts</text>
</a>
</g>
</g>
<!-- Node2 -->
<g id="Node000002" class="node">
<title>Node2</title>
<g id="a_Node000002"><a xlink:href="../../df/d84/classml_1_1model_1_1_c_counting_model.html#a1c8e2c60519557cc94d52ae88fc5d07e" target="_top" xlink:title="Persist state by passing information to the supplied inserter.">
<polygon fill="white" stroke="#666666" points="551.62,-397.5 414.12,-397.5 414.12,-367 551.62,-367 551.62,-397.5"/>
<text text-anchor="start" x="422.12" y="-384" font-family="Helvetica,sans-Serif" font-size="10.00">ml::model::CCountingModel</text>
<text text-anchor="middle" x="482.88" y="-372.75" font-family="Helvetica,sans-Serif" font-size="10.00">::acceptPersistInserter</text>
</a>
</g>
</g>
<!-- Node1&#45;&gt;Node2 -->
<g id="edge1_Node000001_Node000002" class="edge">
<title>Node1&#45;&gt;Node2</title>
<g id="a_edge1_Node000001_Node000002"><a xlink:title=" ">
<path fill="none" stroke="#63b8ff" d="M642.56,-283.34C621.97,-305.22 589.05,-337.06 555,-357.25 549.15,-360.72 542.73,-363.81 536.24,-366.54"/>
<polygon fill="#63b8ff" stroke="#63b8ff" points="645.09,-285.76 649.31,-276.04 639.95,-281.01 645.09,-285.76"/>
</a>
</g>
</g>
<!-- Node3 -->
<g id="Node000003" class="node">
<title>Node3</title>
<g id="a_Node000003"><a xlink:href="../../df/d84/classml_1_1model_1_1_c_counting_model.html#a446c3501833fac0c13e6de1416aae494" target="_top" xlink:title="Add to the contents of the object.">
<polygon fill="white" stroke="#666666" points="551.62,-348.5 414.12,-348.5 414.12,-318 551.62,-318 551.62,-348.5"/>
<text text-anchor="start" x="422.12" y="-335" font-family="Helvetica,sans-Serif" font-size="10.00">ml::model::CCountingModel</text>
<text text-anchor="middle" x="482.88" y="-323.75" font-family="Helvetica,sans-Serif" font-size="10.00">::acceptRestoreTraverser</text>
</a>
</g>
</g>
<!-- Node1&#45;&gt;Node3 -->
<g id="edge2_Node000001_Node000003" class="edge">
<title>Node1&#45;&gt;Node3</title>
<g id="a_edge2_Node000001_Node000003"><a xlink:title=" ">
<path fill="none" stroke="#63b8ff" d="M620.65,-279.75C600.81,-288.87 576.88,-299.5 555,-308.25 547.1,-311.41 538.63,-314.57 530.38,-317.54"/>
<polygon fill="#63b8ff" stroke="#63b8ff" points="621.94,-283.01 629.55,-275.63 619,-276.66 621.94,-283.01"/>
</a>
</g>
</g>
<!-- Node4 -->
<g id="Node000004" class="node">
<title>Node4</title>
<g id="a_Node000004"><a xlink:href="../../d1/d04/classml_1_1model_1_1_c_individual_model.html#acd4e0a8b4659d0cb1302ebb17778f847" target="_top" xlink:title="Persist state by passing information to the supplied inserter.">
<polygon fill="white" stroke="#666666" points="552.75,-299.5 413,-299.5 413,-269 552.75,-269 552.75,-299.5"/>
<text text-anchor="start" x="421" y="-286" font-family="Helvetica,sans-Serif" font-size="10.00">ml::model::CIndividualModel</text>
<text text-anchor="middle" x="482.88" y="-274.75" font-family="Helvetica,sans-Serif" font-size="10.00">::doAcceptPersistInserter</text>
</a>
</g>
</g>
<!-- Node1&#45;&gt;Node4 -->
<g id="edge3_Node000001_Node000004" class="edge">
<title>Node1&#45;&gt;Node4</title>
<g id="a_edge3_Node000001_Node000004"><a xlink:title=" ">
<path fill="none" stroke="#63b8ff" d="M579.54,-270.97C570.65,-272.21 561.69,-273.45 553,-274.66"/>
<polygon fill="#63b8ff" stroke="#63b8ff" points="579.81,-274.47 589.24,-269.63 578.85,-267.53 579.81,-274.47"/>
</a>
</g>
</g>
<!-- Node7 -->
<g id="Node000007" class="node">
<title>Node7</title>
<g id="a_Node000007"><a xlink:href="../../dc/d29/classml_1_1model_1_1_c_population_model.html#a3782a8ef83638949ff680eed01b25271" target="_top" xlink:title="Persist state by passing information to the supplied inserter.">
<polygon fill="white" stroke="#666666" points="555,-250.5 410.75,-250.5 410.75,-220 555,-220 555,-250.5"/>
<text text-anchor="start" x="418.75" y="-237" font-family="Helvetica,sans-Serif" font-size="10.00">ml::model::CPopulationModel</text>
<text text-anchor="middle" x="482.88" y="-225.75" font-family="Helvetica,sans-Serif" font-size="10.00">::doAcceptPersistInserter</text>
</a>
</g>
</g>
<!-- Node1&#45;&gt;Node7 -->
<g id="edge6_Node000001_Node000007" class="edge">
<title>Node1&#45;&gt;Node7</title>
<g id="a_edge6_Node000001_Node000007"><a xlink:title=" ">
<path fill="none" stroke="#63b8ff" d="M579.41,-247.98C571.35,-246.91 563.24,-245.82 555.32,-244.77"/>
<polygon fill="#63b8ff" stroke="#63b8ff" points="578.86,-251.44 589.24,-249.29 579.79,-244.5 578.86,-251.44"/>
</a>
</g>
</g>
<!-- Node10 -->
<g id="Node000010" class="node">
<title>Node10</title>
<g id="a_Node000010"><a xlink:href="../../d1/d04/classml_1_1model_1_1_c_individual_model.html#a4cdec68d47c3fc48c1f9bcc497561dc6" target="_top" xlink:title="Restore the model reading state from the supplied traverser.">
<polygon fill="white" stroke="#666666" points="552.75,-177.5 413,-177.5 413,-147 552.75,-147 552.75,-177.5"/>
<text text-anchor="start" x="421" y="-164" font-family="Helvetica,sans-Serif" font-size="10.00">ml::model::CIndividualModel</text>
<text text-anchor="middle" x="482.88" y="-152.75" font-family="Helvetica,sans-Serif" font-size="10.00">::doAcceptRestoreTraverser</text>
</a>
</g>
</g>
<!-- Node1&#45;&gt;Node10 -->
<g id="edge9_Node000001_Node000010" class="edge">
<title>Node1&#45;&gt;Node10</title>
<g id="a_edge9_Node000001_Node000010"><a xlink:title=" ">
<path fill="none" stroke="#63b8ff" d="M625.11,-238.3C591.44,-220.18 543.5,-194.36 513.04,-177.96"/>
<polygon fill="#63b8ff" stroke="#63b8ff" points="623.26,-241.29 633.73,-242.95 626.58,-235.12 623.26,-241.29"/>
</a>
</g>
</g>
<!-- Node15 -->
<g id="Node000015" class="node">
<title>Node15</title>
<g id="a_Node000015"><a xlink:href="../../dc/d29/classml_1_1model_1_1_c_population_model.html#adb364e3b8658b4e3bbb2bab8150be8d5" target="_top" xlink:title="Restore the model reading state from the supplied traverser.">
<polygon fill="white" stroke="#666666" points="555,-79.5 410.75,-79.5 410.75,-49 555,-49 555,-79.5"/>
<text text-anchor="start" x="418.75" y="-66" font-family="Helvetica,sans-Serif" font-size="10.00">ml::model::CPopulationModel</text>
<text text-anchor="middle" x="482.88" y="-54.75" font-family="Helvetica,sans-Serif" font-size="10.00">::doAcceptRestoreTraverser</text>
</a>
</g>
</g>
<!-- Node1&#45;&gt;Node15 -->
<g id="edge14_Node000001_Node000015" class="edge">
<title>Node1&#45;&gt;Node15</title>
<g id="a_edge14_Node000001_Node000015"><a xlink:title=" ">
<path fill="none" stroke="#63b8ff" d="M643,-235.49C621.22,-210.94 586.05,-171.62 555,-138.25 536.06,-117.9 513.79,-94.87 499.29,-79.99"/>
<polygon fill="#63b8ff" stroke="#63b8ff" points="640.14,-237.53 649.39,-242.69 645.37,-232.89 640.14,-237.53"/>
</a>
</g>
</g>
<!-- Node5 -->
<g id="Node000005" class="node">
<title>Node5</title>
<g id="a_Node000005"><a xlink:href="../../dc/d14/classml_1_1model_1_1_c_event_rate_model.html#afeb022f8b17e8546a8f8855842b0da3a" target="_top" xlink:title="Persist state by passing information to inserter.">
<polygon fill="white" stroke="#666666" points="365,-373.5 220,-373.5 220,-343 365,-343 365,-373.5"/>
<text text-anchor="start" x="228" y="-360" font-family="Helvetica,sans-Serif" font-size="10.00">ml::model::CEventRateModel</text>
<text text-anchor="middle" x="292.5" y="-348.75" font-family="Helvetica,sans-Serif" font-size="10.00">::acceptPersistInserter</text>
</a>
</g>
</g>
<!-- Node4&#45;&gt;Node5 -->
<g id="edge4_Node000004_Node000005" class="edge">
<title>Node4&#45;&gt;Node5</title>
<g id="a_edge4_Node000004_Node000005"><a xlink:title=" ">
<path fill="none" stroke="#63b8ff" d="M421.63,-304.22C417.91,-305.82 414.25,-307.5 410.75,-309.25 393.54,-317.84 392.12,-325 374.75,-333.25 367.55,-336.67 359.77,-339.76 351.98,-342.5"/>
<polygon fill="#63b8ff" stroke="#63b8ff" points="422.89,-307.48 430.84,-300.47 420.25,-301 422.89,-307.48"/>
</a>
</g>
</g>
<!-- Node6 -->
<g id="Node000006" class="node">
<title>Node6</title>
<g id="a_Node000006"><a xlink:href="../../da/dfb/classml_1_1model_1_1_c_metric_model.html#ad0e493f420c13f8723b82632b345e448" target="_top" xlink:title="Persist state by passing information to inserter.">
<polygon fill="white" stroke="#666666" points="355.25,-324.5 229.75,-324.5 229.75,-294 355.25,-294 355.25,-324.5"/>
<text text-anchor="start" x="237.75" y="-311" font-family="Helvetica,sans-Serif" font-size="10.00">ml::model::CMetricModel</text>
<text text-anchor="middle" x="292.5" y="-299.75" font-family="Helvetica,sans-Serif" font-size="10.00">::acceptPersistInserter</text>
</a>
</g>
</g>
<!-- Node4&#45;&gt;Node6 -->
<g id="edge5_Node000004_Node000006" class="edge">
<title>Node4&#45;&gt;Node6</title>
<g id="a_edge5_Node000004_Node000006"><a xlink:title=" ">
<path fill="none" stroke="#63b8ff" d="M401.46,-294.92C386.09,-296.96 370.22,-299.07 355.54,-301.02"/>
<polygon fill="#63b8ff" stroke="#63b8ff" points="401.58,-298.44 411.03,-293.65 400.66,-291.5 401.58,-298.44"/>
</a>
</g>
</g>
<!-- Node8 -->
<g id="Node000008" class="node">
<title>Node8</title>
<g id="a_Node000008"><a xlink:href="../../d0/d77/classml_1_1model_1_1_c_event_rate_population_model.html#a7b15945e4bed81aef355a0cea18a60b9" target="_top" xlink:title="Persist state by passing information to the supplied inserter.">
<polygon fill="white" stroke="#666666" points="374.75,-275.5 210.25,-275.5 210.25,-245 374.75,-245 374.75,-275.5"/>
<text text-anchor="start" x="218.25" y="-262" font-family="Helvetica,sans-Serif" font-size="10.00">ml::model::CEventRatePopulation</text>
<text text-anchor="middle" x="292.5" y="-250.75" font-family="Helvetica,sans-Serif" font-size="10.00">Model::acceptPersistInserter</text>
</a>
</g>
</g>
<!-- Node7&#45;&gt;Node8 -->
<g id="edge7_Node000007_Node000008" class="edge">
<title>Node7&#45;&gt;Node8</title>
<g id="a_edge7_Node000007_Node000008"><a xlink:title=" ">
<path fill="none" stroke="#63b8ff" d="M399.16,-246.23C391.15,-247.29 383.03,-248.37 375.03,-249.43"/>
<polygon fill="#63b8ff" stroke="#63b8ff" points="399.44,-249.72 408.89,-244.94 398.52,-242.78 399.44,-249.72"/>
</a>
</g>
</g>
<!-- Node9 -->
<g id="Node000009" class="node">
<title>Node9</title>
<g id="a_Node000009"><a xlink:href="../../d2/d49/classml_1_1model_1_1_c_metric_population_model.html#aea710498b24a82acd1aeaea7f69b2154" target="_top" xlink:title="Persist state by passing information to the supplied inserter.">
<polygon fill="white" stroke="#666666" points="365,-226.5 220,-226.5 220,-196 365,-196 365,-226.5"/>
<text text-anchor="start" x="228" y="-213" font-family="Helvetica,sans-Serif" font-size="10.00">ml::model::CMetricPopulation</text>
<text text-anchor="middle" x="292.5" y="-201.75" font-family="Helvetica,sans-Serif" font-size="10.00">Model::acceptPersistInserter</text>
</a>
</g>
</g>
<!-- Node7&#45;&gt;Node9 -->
<g id="edge8_Node000007_Node000009" class="edge">
<title>Node7&#45;&gt;Node9</title>
<g id="a_edge8_Node000007_Node000009"><a xlink:title=" ">
<path fill="none" stroke="#63b8ff" d="M399.18,-224.71C387.87,-223.27 376.34,-221.8 365.25,-220.39"/>
<polygon fill="#63b8ff" stroke="#63b8ff" points="398.53,-228.16 408.89,-225.95 399.41,-221.22 398.53,-228.16"/>
</a>
</g>
</g>
<!-- Node11 -->
<g id="Node000011" class="node">
<title>Node11</title>
<g id="a_Node000011"><a xlink:href="../../dc/d14/classml_1_1model_1_1_c_event_rate_model.html#a6f8f5dc995a35c2935947e846e5e82ff" target="_top" xlink:title="Restore reading state from traverser.">
<polygon fill="white" stroke="#666666" points="365,-177.5 220,-177.5 220,-147 365,-147 365,-177.5"/>
<text text-anchor="start" x="228" y="-164" font-family="Helvetica,sans-Serif" font-size="10.00">ml::model::CEventRateModel</text>
<text text-anchor="middle" x="292.5" y="-152.75" font-family="Helvetica,sans-Serif" font-size="10.00">::acceptRestoreTraverser</text>
</a>
</g>
</g>
<!-- Node10&#45;&gt;Node11 -->
<g id="edge10_Node000010_Node000011" class="edge">
<title>Node10&#45;&gt;Node11</title>
<g id="a_edge10_Node000010_Node000011"><a xlink:title=" ">
<path fill="none" stroke="#63b8ff" d="M401.19,-162.25C389.23,-162.25 376.98,-162.25 365.22,-162.25"/>
<polygon fill="#63b8ff" stroke="#63b8ff" points="401.02,-165.75 411.02,-162.25 401.02,-158.75 401.02,-165.75"/>
</a>
</g>
</g>
<!-- Node13 -->
<g id="Node000013" class="node">
<title>Node13</title>
<g id="a_Node000013"><a xlink:href="../../da/dfb/classml_1_1model_1_1_c_metric_model.html#a2a17aefca31ae55eb498c8b09f8c64bc" target="_top" xlink:title="Restore reading state from traverser.">
<polygon fill="white" stroke="#666666" points="356,-128.5 229,-128.5 229,-98 356,-98 356,-128.5"/>
<text text-anchor="start" x="237" y="-115" font-family="Helvetica,sans-Serif" font-size="10.00">ml::model::CMetricModel</text>
<text text-anchor="middle" x="292.5" y="-103.75" font-family="Helvetica,sans-Serif" font-size="10.00">::acceptRestoreTraverser</text>
</a>
</g>
</g>
<!-- Node10&#45;&gt;Node13 -->
<g id="edge12_Node000010_Node000013" class="edge">
<title>Node10&#45;&gt;Node13</title>
<g id="a_edge12_Node000010_Node000013"><a xlink:title=" ">
<path fill="none" stroke="#63b8ff" d="M410.39,-143.66C391.75,-138.81 371.86,-133.63 353.86,-128.95"/>
<polygon fill="#63b8ff" stroke="#63b8ff" points="409.47,-147.03 420.03,-146.16 411.23,-140.26 409.47,-147.03"/>
</a>
</g>
</g>
<!-- Node12 -->
<g id="Node000012" class="node">
<title>Node12</title>
<g id="a_Node000012"><a xlink:href="../../dc/d14/classml_1_1model_1_1_c_event_rate_model.html#a7c8373ba03a89e9dc49a6ab803b7625d" target="_top" xlink:title=" ">
<polygon fill="white" stroke="#666666" points="159.62,-177.5 14.62,-177.5 14.62,-147 159.62,-147 159.62,-177.5"/>
<text text-anchor="start" x="22.62" y="-164" font-family="Helvetica,sans-Serif" font-size="10.00">ml::model::CEventRateModel</text>
<text text-anchor="middle" x="87.12" y="-152.75" font-family="Helvetica,sans-Serif" font-size="10.00">::CEventRateModel</text>
</a>
</g>
</g>
<!-- Node11&#45;&gt;Node12 -->
<g id="edge11_Node000011_Node000012" class="edge">
<title>Node11&#45;&gt;Node12</title>
<g id="a_edge11_Node000011_Node000012"><a xlink:title=" ">
<path fill="none" stroke="#63b8ff" d="M208.04,-162.25C192.1,-162.25 175.55,-162.25 160.02,-162.25"/>
<polygon fill="#63b8ff" stroke="#63b8ff" points="208,-165.75 218,-162.25 208,-158.75 208,-165.75"/>
</a>
</g>
</g>
<!-- Node14 -->
<g id="Node000014" class="node">
<title>Node14</title>
<g id="a_Node000014"><a xlink:href="../../da/dfb/classml_1_1model_1_1_c_metric_model.html#af612a9f6e4723891cf536bf1c97229f3" target="_top" xlink:title=" ">
<polygon fill="white" stroke="#666666" points="149.88,-128.5 24.38,-128.5 24.38,-98 149.88,-98 149.88,-128.5"/>
<text text-anchor="start" x="32.38" y="-115" font-family="Helvetica,sans-Serif" font-size="10.00">ml::model::CMetricModel</text>
<text text-anchor="middle" x="87.12" y="-103.75" font-family="Helvetica,sans-Serif" font-size="10.00">::CMetricModel</text>
</a>
</g>
</g>
<!-- Node13&#45;&gt;Node14 -->
<g id="edge13_Node000013_Node000014" class="edge">
<title>Node13&#45;&gt;Node14</title>
<g id="a_edge13_Node000013_Node000014"><a xlink:title=" ">
<path fill="none" stroke="#63b8ff" d="M217.21,-113.25C195.16,-113.25 171.26,-113.25 150.09,-113.25"/>
<polygon fill="#63b8ff" stroke="#63b8ff" points="217.03,-116.75 227.03,-113.25 217.03,-109.75 217.03,-116.75"/>
</a>
</g>
</g>
<!-- Node16 -->
<g id="Node000016" class="node">
<title>Node16</title>
<g id="a_Node000016"><a xlink:href="../../d0/d77/classml_1_1model_1_1_c_event_rate_population_model.html#a1ac375cfadf9ff01f2ab44b97245eea6" target="_top" xlink:title="Add to the contents of the object.">
<polygon fill="white" stroke="#666666" points="374.75,-79.5 210.25,-79.5 210.25,-49 374.75,-49 374.75,-79.5"/>
<text text-anchor="start" x="218.25" y="-66" font-family="Helvetica,sans-Serif" font-size="10.00">ml::model::CEventRatePopulation</text>
<text text-anchor="middle" x="292.5" y="-54.75" font-family="Helvetica,sans-Serif" font-size="10.00">Model::acceptRestoreTraverser</text>
</a>
</g>
</g>
<!-- Node15&#45;&gt;Node16 -->
<g id="edge15_Node000015_Node000016" class="edge">
<title>Node15&#45;&gt;Node16</title>
<g id="a_edge15_Node000015_Node000016"><a xlink:title=" ">
<path fill="none" stroke="#63b8ff" d="M398.89,-64.25C390.97,-64.25 382.94,-64.25 375.03,-64.25"/>
<polygon fill="#63b8ff" stroke="#63b8ff" points="398.88,-67.75 408.88,-64.25 398.88,-60.75 398.88,-67.75"/>
</a>
</g>
</g>
<!-- Node18 -->
<g id="Node000018" class="node">
<title>Node18</title>
<g id="a_Node000018"><a xlink:href="../../d2/d49/classml_1_1model_1_1_c_metric_population_model.html#a8e8476792d09c0f2fcbe18a1d579af4e" target="_top" xlink:title="Add to the contents of the object.">
<polygon fill="white" stroke="#666666" points="369.12,-30.5 215.88,-30.5 215.88,0 369.12,0 369.12,-30.5"/>
<text text-anchor="start" x="223.88" y="-17" font-family="Helvetica,sans-Serif" font-size="10.00">ml::model::CMetricPopulation</text>
<text text-anchor="middle" x="292.5" y="-5.75" font-family="Helvetica,sans-Serif" font-size="10.00">Model::acceptRestoreTraverser</text>
</a>
</g>
</g>
<!-- Node15&#45;&gt;Node18 -->
<g id="edge17_Node000015_Node000018" class="edge">
<title>Node15&#45;&gt;Node18</title>
<g id="a_edge17_Node000015_Node000018"><a xlink:title=" ">
<path fill="none" stroke="#63b8ff" d="M410.39,-45.66C391.75,-40.81 371.86,-35.63 353.86,-30.95"/>
<polygon fill="#63b8ff" stroke="#63b8ff" points="409.47,-49.03 420.03,-48.16 411.23,-42.26 409.47,-49.03"/>
</a>
</g>
</g>
<!-- Node17 -->
<g id="Node000017" class="node">
<title>Node17</title>
<g id="a_Node000017"><a xlink:href="../../d0/d77/classml_1_1model_1_1_c_event_rate_population_model.html#a2a67d73faab6ff54655e058738c44d21" target="_top" xlink:title=" ">
<polygon fill="white" stroke="#666666" points="174.25,-79.5 0,-79.5 0,-49 174.25,-49 174.25,-79.5"/>
<text text-anchor="start" x="8" y="-66" font-family="Helvetica,sans-Serif" font-size="10.00">ml::model::CEventRatePopulation</text>
<text text-anchor="middle" x="87.12" y="-54.75" font-family="Helvetica,sans-Serif" font-size="10.00">Model::CEventRatePopulationModel</text>
</a>
</g>
</g>
<!-- Node16&#45;&gt;Node17 -->
<g id="edge16_Node000016_Node000017" class="edge">
<title>Node16&#45;&gt;Node17</title>
<g id="a_edge16_Node000016_Node000017"><a xlink:title=" ">
<path fill="none" stroke="#63b8ff" d="M198.71,-64.25C190.71,-64.25 182.63,-64.25 174.69,-64.25"/>
<polygon fill="#63b8ff" stroke="#63b8ff" points="198.44,-67.75 208.44,-64.25 198.44,-60.75 198.44,-67.75"/>
</a>
</g>
</g>
<!-- Node19 -->
<g id="Node000019" class="node">
<title>Node19</title>
<g id="a_Node000019"><a xlink:href="../../d2/d49/classml_1_1model_1_1_c_metric_population_model.html#a457145bf09b5ea76f7b8174152355d1d" target="_top" xlink:title=" ">
<polygon fill="white" stroke="#666666" points="164.5,-30.5 9.75,-30.5 9.75,0 164.5,0 164.5,-30.5"/>
<text text-anchor="start" x="17.75" y="-17" font-family="Helvetica,sans-Serif" font-size="10.00">ml::model::CMetricPopulation</text>
<text text-anchor="middle" x="87.12" y="-5.75" font-family="Helvetica,sans-Serif" font-size="10.00">Model::CMetricPopulationModel</text>
</a>
</g>
</g>
<!-- Node18&#45;&gt;Node19 -->
<g id="edge18_Node000018_Node000019" class="edge">
<title>Node18&#45;&gt;Node19</title>
<g id="a_edge18_Node000018_Node000019"><a xlink:title=" ">
<path fill="none" stroke="#63b8ff" d="M204.08,-15.25C190.99,-15.25 177.57,-15.25 164.73,-15.25"/>
<polygon fill="#63b8ff" stroke="#63b8ff" points="203.97,-18.75 213.97,-15.25 203.97,-11.75 203.97,-18.75"/>
</a>
</g>
</g>
</g>
</svg>
