<?xml version="1.0" encoding="UTF-8" standalone="no"?>
<!DOCTYPE svg PUBLIC "-//W3C//DTD SVG 1.1//EN"
 "http://www.w3.org/Graphics/SVG/1.1/DTD/svg11.dtd">
<!-- Generated by graphviz version 10.0.1 (20240210.2158)
 -->
<!-- Title: ml::model::CGathererTools::CSumGatherer::acceptRestoreTraverser Pages: 1 -->
<svg width="606pt" height="207pt"
 viewBox="0.00 0.00 605.75 206.50" xmlns="http://www.w3.org/2000/svg" xmlns:xlink="http://www.w3.org/1999/xlink">
<g id="graph0" class="graph" transform="scale(1 1) rotate(0) translate(4 202.5)">
<title>ml::model::CGathererTools::CSumGatherer::acceptRestoreTraverser</title>
<!-- Node1 -->
<g id="Node000001" class="node">
<title>Node1</title>
<g id="a_Node000001"><a xlink:title="Create from part of a state document.">
<polygon fill="#999999" stroke="#666666" points="198.25,-122.5 0,-122.5 0,-92 198.25,-92 198.25,-122.5"/>
<text text-anchor="start" x="8" y="-109" font-family="Helvetica,sans-Serif" font-size="10.00">ml::model::CGathererTools</text>
<text text-anchor="middle" x="99.12" y="-97.75" font-family="Helvetica,sans-Serif" font-size="10.00">::CSumGatherer::acceptRestoreTraverser</text>
</a>
</g>
</g>
<!-- Node2 -->
<g id="Node000002" class="node">
<title>Node2</title>
<g id="a_Node000002"><a xlink:href="../../d3/d6e/classml_1_1model_1_1_c_data_classifier.html#ab16d46b00dd1364938d3e9f3e78d73c4" target="_top" xlink:title="Create from part of an XML document.">
<polygon fill="white" stroke="#666666" points="383.38,-165.5 248.88,-165.5 248.88,-135 383.38,-135 383.38,-165.5"/>
<text text-anchor="start" x="256.88" y="-152" font-family="Helvetica,sans-Serif" font-size="10.00">ml::model::CDataClassifier</text>
<text text-anchor="middle" x="316.12" y="-140.75" font-family="Helvetica,sans-Serif" font-size="10.00">::acceptRestoreTraverser</text>
</a>
</g>
</g>
<!-- Node1&#45;&gt;Node2 -->
<g id="edge1_Node000001_Node000002" class="edge">
<title>Node1&#45;&gt;Node2</title>
<g id="a_edge1_Node000001_Node000002"><a xlink:title=" ">
<path fill="none" stroke="#63b8ff" d="M178.66,-122.96C197.81,-126.79 218.29,-130.88 237.4,-134.71"/>
<polygon fill="#63b8ff" stroke="#63b8ff" points="236.5,-138.09 247,-136.62 237.88,-131.23 236.5,-138.09"/>
</a>
</g>
</g>
<!-- Node3 -->
<g id="Node000003" class="node">
<title>Node3</title>
<g id="a_Node000003"><a xlink:href="../../d2/d3f/classml_1_1core_1_1_c_state_restore_traverser.html#af68782b2ed0c98177d130d9196f97889" target="_top" xlink:title=" ">
<polygon fill="white" stroke="#666666" points="597.75,-198.5 434,-198.5 434,-168 597.75,-168 597.75,-198.5"/>
<text text-anchor="start" x="442" y="-185" font-family="Helvetica,sans-Serif" font-size="10.00">ml::core::CStateRestoreTraverser</text>
<text text-anchor="middle" x="515.88" y="-173.75" font-family="Helvetica,sans-Serif" font-size="10.00">::name</text>
</a>
</g>
</g>
<!-- Node1&#45;&gt;Node3 -->
<g id="edge4_Node000001_Node000003" class="edge">
<title>Node1&#45;&gt;Node3</title>
<g id="a_edge4_Node000001_Node000003"><a xlink:title=" ">
<path fill="none" stroke="#63b8ff" d="M123.61,-122.94C149.46,-139.23 192.86,-163.79 234.25,-174.25 295.7,-189.79 367.14,-191.86 422.55,-190.14"/>
<polygon fill="#63b8ff" stroke="#63b8ff" points="422.39,-193.65 432.25,-189.79 422.13,-186.66 422.39,-193.65"/>
</a>
</g>
</g>
<!-- Node4 -->
<g id="Node000004" class="node">
<title>Node4</title>
<g id="a_Node000004"><a xlink:href="../../d2/d3f/classml_1_1core_1_1_c_state_restore_traverser.html#a733d8051e128c5d7421707afadb31ab7" target="_top" xlink:title=" ">
<polygon fill="white" stroke="#666666" points="597.75,-140.5 434,-140.5 434,-110 597.75,-110 597.75,-140.5"/>
<text text-anchor="start" x="442" y="-127" font-family="Helvetica,sans-Serif" font-size="10.00">ml::core::CStateRestoreTraverser</text>
<text text-anchor="middle" x="515.88" y="-115.75" font-family="Helvetica,sans-Serif" font-size="10.00">::next</text>
</a>
</g>
</g>
<!-- Node1&#45;&gt;Node4 -->
<g id="edge5_Node000001_Node000004" class="edge">
<title>Node1&#45;&gt;Node4</title>
<g id="a_edge5_Node000001_Node000004"><a xlink:title=" ">
<path fill="none" stroke="#63b8ff" d="M198.68,-111.53C266.51,-114.47 356.01,-118.36 422.47,-121.24"/>
<polygon fill="#63b8ff" stroke="#63b8ff" points="422.11,-124.73 432.25,-121.66 422.41,-117.73 422.11,-124.73"/>
</a>
</g>
</g>
<!-- Node5 -->
<g id="Node000005" class="node">
<title>Node5</title>
<g id="a_Node000005"><a xlink:href="../../d2/d3f/classml_1_1core_1_1_c_state_restore_traverser.html#a210456e80c83786dec276d39556fd9e4" target="_top" xlink:title=" ">
<polygon fill="white" stroke="#666666" points="398,-79.5 234.25,-79.5 234.25,-49 398,-49 398,-79.5"/>
<text text-anchor="start" x="242.25" y="-66" font-family="Helvetica,sans-Serif" font-size="10.00">ml::core::CStateRestoreTraverser</text>
<text text-anchor="middle" x="316.12" y="-54.75" font-family="Helvetica,sans-Serif" font-size="10.00">::traverseSubLevel</text>
</a>
</g>
</g>
<!-- Node1&#45;&gt;Node5 -->
<g id="edge6_Node000001_Node000005" class="edge">
<title>Node1&#45;&gt;Node5</title>
<g id="a_edge6_Node000001_Node000005"><a xlink:title=" ">
<path fill="none" stroke="#63b8ff" d="M178.66,-91.54C193.81,-88.51 209.8,-85.32 225.28,-82.22"/>
<polygon fill="#63b8ff" stroke="#63b8ff" points="225.84,-85.68 234.96,-80.28 224.47,-78.81 225.84,-85.68"/>
</a>
</g>
</g>
<!-- Node6 -->
<g id="Node000006" class="node">
<title>Node6</title>
<g id="a_Node000006"><a xlink:href="../../d2/d3f/classml_1_1core_1_1_c_state_restore_traverser.html#a296f348a615834e66071cdd4b2802ea7" target="_top" xlink:title=" ">
<polygon fill="white" stroke="#666666" points="398,-30.5 234.25,-30.5 234.25,0 398,0 398,-30.5"/>
<text text-anchor="start" x="242.25" y="-17" font-family="Helvetica,sans-Serif" font-size="10.00">ml::core::CStateRestoreTraverser</text>
<text text-anchor="middle" x="316.12" y="-5.75" font-family="Helvetica,sans-Serif" font-size="10.00">::value</text>
</a>
</g>
</g>
<!-- Node1&#45;&gt;Node6 -->
<g id="edge7_Node000001_Node000006" class="edge">
<title>Node1&#45;&gt;Node6</title>
<g id="a_edge7_Node000001_Node000006"><a xlink:title=" ">
<path fill="none" stroke="#63b8ff" d="M128.03,-91.63C154.74,-77.08 196.44,-55.42 234.25,-40.25 239.19,-38.27 244.35,-36.35 249.57,-34.51"/>
<polygon fill="#63b8ff" stroke="#63b8ff" points="250.54,-37.87 258.89,-31.34 248.29,-31.25 250.54,-37.87"/>
</a>
</g>
</g>
<!-- Node2&#45;&gt;Node3 -->
<g id="edge2_Node000002_Node000003" class="edge">
<title>Node2&#45;&gt;Node3</title>
<g id="a_edge2_Node000002_Node000003"><a xlink:title=" ">
<path fill="none" stroke="#63b8ff" d="M383.8,-161.38C396.33,-163.47 409.63,-165.69 422.77,-167.88"/>
<polygon fill="#63b8ff" stroke="#63b8ff" points="421.81,-171.27 432.25,-169.46 422.97,-164.36 421.81,-171.27"/>
</a>
</g>
</g>
<!-- Node2&#45;&gt;Node4 -->
<g id="edge3_Node000002_Node000004" class="edge">
<title>Node2&#45;&gt;Node4</title>
<g id="a_edge3_Node000002_Node000004"><a xlink:title=" ">
<path fill="none" stroke="#63b8ff" d="M383.8,-141.82C396.2,-140.25 409.36,-138.59 422.37,-136.94"/>
<polygon fill="#63b8ff" stroke="#63b8ff" points="422.76,-140.42 432.24,-135.7 421.88,-133.48 422.76,-140.42"/>
</a>
</g>
</g>
</g>
</svg>
