<?xml version="1.0" encoding="UTF-8" standalone="no"?>
<!DOCTYPE svg PUBLIC "-//W3C//DTD SVG 1.1//EN"
 "http://www.w3.org/Graphics/SVG/1.1/DTD/svg11.dtd">
<!-- Generated by graphviz version 10.0.1 (20240210.2158)
 -->
<!-- Title: ml::model::CDataGatherer::removePeople Pages: 1 -->
<svg width="1029pt" height="247pt"
 viewBox="0.00 0.00 1028.75 246.50" xmlns="http://www.w3.org/2000/svg" xmlns:xlink="http://www.w3.org/1999/xlink">
<g id="graph0" class="graph" transform="scale(1 1) rotate(0) translate(4 242.5)">
<title>ml::model::CDataGatherer::removePeople</title>
<!-- Node1 -->
<g id="Node000001" class="node">
<title>Node1</title>
<g id="a_Node000001"><a xlink:title=" ">
<polygon fill="#999999" stroke="#666666" points="130.75,-189.5 0,-189.5 0,-159 130.75,-159 130.75,-189.5"/>
<text text-anchor="start" x="8" y="-176" font-family="Helvetica,sans-Serif" font-size="10.00">ml::model::CDataGatherer</text>
<text text-anchor="middle" x="65.38" y="-164.75" font-family="Helvetica,sans-Serif" font-size="10.00">::removePeople</text>
</a>
</g>
</g>
<!-- Node2 -->
<g id="Node000002" class="node">
<title>Node2</title>
<g id="a_Node000002"><a xlink:href="../../d0/d91/classml_1_1model_1_1_c_data_gatherer.html#ab77b58e133683b882f2b07618cd670a8" target="_top" xlink:title="Is this a population data gatherer?">
<polygon fill="white" stroke="#666666" points="300.5,-238.5 169.75,-238.5 169.75,-208 300.5,-208 300.5,-238.5"/>
<text text-anchor="start" x="177.75" y="-225" font-family="Helvetica,sans-Serif" font-size="10.00">ml::model::CDataGatherer</text>
<text text-anchor="middle" x="235.12" y="-213.75" font-family="Helvetica,sans-Serif" font-size="10.00">::isPopulation</text>
</a>
</g>
</g>
<!-- Node1&#45;&gt;Node2 -->
<g id="edge1_Node000001_Node000002" class="edge">
<title>Node1&#45;&gt;Node2</title>
<g id="a_edge1_Node000001_Node000002"><a xlink:title=" ">
<path fill="none" stroke="#63b8ff" d="M119.91,-189.89C135.72,-194.51 153.19,-199.61 169.62,-204.41"/>
<polygon fill="#63b8ff" stroke="#63b8ff" points="168.2,-207.64 178.78,-207.08 170.16,-200.92 168.2,-207.64"/>
</a>
</g>
</g>
<!-- Node3 -->
<g id="Node000003" class="node">
<title>Node3</title>
<g id="a_Node000003"><a xlink:href="../../d0/d91/classml_1_1model_1_1_c_data_gatherer.html#a7764c1ec39238f2f60c456948093f84b" target="_top" xlink:title=" ">
<polygon fill="white" stroke="#666666" points="300.5,-189.5 169.75,-189.5 169.75,-159 300.5,-159 300.5,-189.5"/>
<text text-anchor="start" x="177.75" y="-176" font-family="Helvetica,sans-Serif" font-size="10.00">ml::model::CDataGatherer</text>
<text text-anchor="middle" x="235.12" y="-164.75" font-family="Helvetica,sans-Serif" font-size="10.00">::numberPeople</text>
</a>
</g>
</g>
<!-- Node1&#45;&gt;Node3 -->
<g id="edge2_Node000001_Node000003" class="edge">
<title>Node1&#45;&gt;Node3</title>
<g id="a_edge2_Node000001_Node000003"><a xlink:title=" ">
<path fill="none" stroke="#63b8ff" d="M131.23,-174.25C140.05,-174.25 149.16,-174.25 158.15,-174.25"/>
<polygon fill="#63b8ff" stroke="#63b8ff" points="157.93,-177.75 167.93,-174.25 157.93,-170.75 157.93,-177.75"/>
</a>
</g>
</g>
<!-- Node5 -->
<g id="Node000005" class="node">
<title>Node5</title>
<g id="a_Node000005"><a xlink:href="../../d3/d3b/classml_1_1model_1_1_c_dynamic_string_id_registry.html#a60e2bdb493b54fc3ee4bf769ac59989e" target="_top" xlink:title=" ">
<polygon fill="white" stroke="#666666" points="303.5,-140.5 166.75,-140.5 166.75,-110 303.5,-110 303.5,-140.5"/>
<text text-anchor="start" x="174.75" y="-127" font-family="Helvetica,sans-Serif" font-size="10.00">ml::model::CDynamicString</text>
<text text-anchor="middle" x="235.12" y="-115.75" font-family="Helvetica,sans-Serif" font-size="10.00">IdRegistry::removeNames</text>
</a>
</g>
</g>
<!-- Node1&#45;&gt;Node5 -->
<g id="edge4_Node000001_Node000005" class="edge">
<title>Node1&#45;&gt;Node5</title>
<g id="a_edge4_Node000001_Node000005"><a xlink:title=" ">
<path fill="none" stroke="#63b8ff" d="M119.91,-158.61C135.72,-153.99 153.19,-148.89 169.62,-144.09"/>
<polygon fill="#63b8ff" stroke="#63b8ff" points="170.16,-147.58 178.78,-141.42 168.2,-140.86 170.16,-147.58"/>
</a>
</g>
</g>
<!-- Node4 -->
<g id="Node000004" class="node">
<title>Node4</title>
<g id="a_Node000004"><a xlink:href="../../d3/d3b/classml_1_1model_1_1_c_dynamic_string_id_registry.html#a48738901bb6e09e5ec631806d8e6215c" target="_top" xlink:title=" ">
<polygon fill="white" stroke="#666666" points="476.25,-189.5 339.5,-189.5 339.5,-159 476.25,-159 476.25,-189.5"/>
<text text-anchor="start" x="347.5" y="-176" font-family="Helvetica,sans-Serif" font-size="10.00">ml::model::CDynamicString</text>
<text text-anchor="middle" x="407.88" y="-164.75" font-family="Helvetica,sans-Serif" font-size="10.00">IdRegistry::numberNames</text>
</a>
</g>
</g>
<!-- Node3&#45;&gt;Node4 -->
<g id="edge3_Node000003_Node000004" class="edge">
<title>Node3&#45;&gt;Node4</title>
<g id="a_edge3_Node000003_Node000004"><a xlink:title=" ">
<path fill="none" stroke="#63b8ff" d="M300.68,-174.25C309.51,-174.25 318.66,-174.25 327.71,-174.25"/>
<polygon fill="#63b8ff" stroke="#63b8ff" points="327.59,-177.75 337.59,-174.25 327.59,-170.75 327.59,-177.75"/>
</a>
</g>
</g>
<!-- Node5&#45;&gt;Node4 -->
<g id="edge14_Node000005_Node000004" class="edge">
<title>Node5&#45;&gt;Node4</title>
<g id="a_edge14_Node000005_Node000004"><a xlink:title=" ">
<path fill="none" stroke="#63b8ff" d="M290.62,-140.89C306.71,-145.51 324.5,-150.61 341.21,-155.41"/>
<polygon fill="#63b8ff" stroke="#63b8ff" points="339.99,-158.7 350.56,-158.09 341.92,-151.97 339.99,-158.7"/>
</a>
</g>
</g>
<!-- Node6 -->
<g id="Node000006" class="node">
<title>Node6</title>
<g id="a_Node000006"><a xlink:href="../../d3/d3b/classml_1_1model_1_1_c_dynamic_string_id_registry.html#a8d9d0f248ce54fe797a09237e12a58bc" target="_top" xlink:title=" ">
<polygon fill="white" stroke="#666666" points="476.25,-140.5 339.5,-140.5 339.5,-110 476.25,-110 476.25,-140.5"/>
<text text-anchor="start" x="347.5" y="-127" font-family="Helvetica,sans-Serif" font-size="10.00">ml::model::CDynamicString</text>
<text text-anchor="middle" x="407.88" y="-115.75" font-family="Helvetica,sans-Serif" font-size="10.00">IdRegistry::id</text>
</a>
</g>
</g>
<!-- Node5&#45;&gt;Node6 -->
<g id="edge5_Node000005_Node000006" class="edge">
<title>Node5&#45;&gt;Node6</title>
<g id="a_edge5_Node000005_Node000006"><a xlink:title=" ">
<path fill="none" stroke="#63b8ff" d="M303.61,-125.25C311.53,-125.25 319.66,-125.25 327.73,-125.25"/>
<polygon fill="#63b8ff" stroke="#63b8ff" points="327.53,-128.75 337.53,-125.25 327.53,-121.75 327.53,-128.75"/>
</a>
</g>
</g>
<!-- Node8 -->
<g id="Node000008" class="node">
<title>Node8</title>
<g id="a_Node000008"><a xlink:href="../../dd/d75/classml_1_1core_1_1_c_compressed_dictionary.html#ad9fd3a9d86ddfb73b3395df3227b851a" target="_top" xlink:title="Translate word to a dictionary word.">
<polygon fill="white" stroke="#666666" points="676.75,-79.5 512.25,-79.5 512.25,-49 676.75,-49 676.75,-79.5"/>
<text text-anchor="start" x="520.25" y="-66" font-family="Helvetica,sans-Serif" font-size="10.00">ml::core::CCompressedDictionary</text>
<text text-anchor="middle" x="594.5" y="-54.75" font-family="Helvetica,sans-Serif" font-size="10.00">::word</text>
</a>
</g>
</g>
<!-- Node5&#45;&gt;Node8 -->
<g id="edge15_Node000005_Node000008" class="edge">
<title>Node5&#45;&gt;Node8</title>
<g id="a_edge15_Node000005_Node000008"><a xlink:title=" ">
<path fill="none" stroke="#63b8ff" d="M299.92,-109.56C312.97,-106.6 326.65,-103.67 339.5,-101.25 392.61,-91.24 452.4,-82.41 500.63,-75.89"/>
<polygon fill="#63b8ff" stroke="#63b8ff" points="501.05,-79.36 510.5,-74.56 500.12,-72.42 501.05,-79.36"/>
</a>
</g>
</g>
<!-- Node7 -->
<g id="Node000007" class="node">
<title>Node7</title>
<g id="a_Node000007"><a xlink:href="../../d3/d3b/classml_1_1model_1_1_c_dynamic_string_id_registry.html#a81a1671a3a7bb10d96da0cb54144a3c4" target="_top" xlink:title=" ">
<polygon fill="white" stroke="#666666" points="662.88,-146.5 526.12,-146.5 526.12,-116 662.88,-116 662.88,-146.5"/>
<text text-anchor="start" x="534.12" y="-133" font-family="Helvetica,sans-Serif" font-size="10.00">ml::model::CDynamicString</text>
<text text-anchor="middle" x="594.5" y="-121.75" font-family="Helvetica,sans-Serif" font-size="10.00">IdRegistry::name</text>
</a>
</g>
</g>
<!-- Node6&#45;&gt;Node7 -->
<g id="edge6_Node000006_Node000007" class="edge">
<title>Node6&#45;&gt;Node7</title>
<g id="a_edge6_Node000006_Node000007"><a xlink:title=" ">
<path fill="none" stroke="#63b8ff" d="M476.57,-120.92C488.87,-121.09 501.79,-121.46 514.37,-121.99"/>
<polygon fill="#63b8ff" stroke="#63b8ff" points="514.15,-125.48 524.3,-122.45 514.47,-118.49 514.15,-125.48"/>
</a>
</g>
</g>
<!-- Node6&#45;&gt;Node8 -->
<g id="edge8_Node000006_Node000008" class="edge">
<title>Node6&#45;&gt;Node8</title>
<g id="a_edge8_Node000006_Node000008"><a xlink:title=" ">
<path fill="none" stroke="#63b8ff" d="M456.42,-109.54C480.54,-101.57 510.04,-91.83 535.49,-83.42"/>
<polygon fill="#63b8ff" stroke="#63b8ff" points="536.28,-86.84 544.68,-80.38 534.09,-80.19 536.28,-86.84"/>
</a>
</g>
</g>
<!-- Node7&#45;&gt;Node6 -->
<g id="edge7_Node000007_Node000006" class="edge">
<title>Node7&#45;&gt;Node6</title>
<g id="a_edge7_Node000007_Node000006"><a xlink:title=" ">
<path fill="none" stroke="#63b8ff" d="M525.81,-135.58C513.52,-135.41 500.6,-135.04 488.01,-134.51"/>
<polygon fill="#63b8ff" stroke="#63b8ff" points="488.24,-131.02 478.09,-134.05 487.91,-138.01 488.24,-131.02"/>
</a>
</g>
</g>
<!-- Node8&#45;&gt;Node8 -->
<g id="edge13_Node000008_Node000008" class="edge">
<title>Node8&#45;&gt;Node8</title>
<g id="a_edge13_Node000008_Node000008"><a xlink:title=" ">
<path fill="none" stroke="#63b8ff" d="M561.43,-79.99C554.68,-89.06 565.7,-97.5 594.5,-97.5 610.25,-97.5 620.68,-94.97 625.8,-91.2"/>
<polygon fill="#63b8ff" stroke="#63b8ff" points="629.23,-91.9 627.33,-81.48 622.32,-90.81 629.23,-91.9"/>
</a>
</g>
</g>
<!-- Node9 -->
<g id="Node000009" class="node">
<title>Node9</title>
<g id="a_Node000009"><a xlink:href="../../db/d19/classml_1_1core_1_1_c_compressed_dictionary_1_1_c_translator.html#ade14a464041834a501408e4fd90d5540" target="_top" xlink:title=" ">
<polygon fill="white" stroke="#666666" points="877.25,-128.5 712.75,-128.5 712.75,-98 877.25,-98 877.25,-128.5"/>
<text text-anchor="start" x="720.75" y="-115" font-family="Helvetica,sans-Serif" font-size="10.00">ml::core::CCompressedDictionary</text>
<text text-anchor="middle" x="795" y="-103.75" font-family="Helvetica,sans-Serif" font-size="10.00">::CTranslator::add</text>
</a>
</g>
</g>
<!-- Node8&#45;&gt;Node9 -->
<g id="edge9_Node000008_Node000009" class="edge">
<title>Node8&#45;&gt;Node9</title>
<g id="a_edge9_Node000008_Node000009"><a xlink:title=" ">
<path fill="none" stroke="#63b8ff" d="M659.13,-79.96C678.27,-84.68 699.45,-89.91 719.24,-94.8"/>
<polygon fill="#63b8ff" stroke="#63b8ff" points="718.38,-98.19 728.92,-97.19 720.05,-91.39 718.38,-98.19"/>
</a>
</g>
</g>
<!-- Node11 -->
<g id="Node000011" class="node">
<title>Node11</title>
<g id="a_Node000011"><a xlink:href="../../dd/d75/classml_1_1core_1_1_c_compressed_dictionary.html#a13928a12bd86baccea13712035961802" target="_top" xlink:title="Get a translator for the dictionary.">
<polygon fill="white" stroke="#666666" points="877.25,-79.5 712.75,-79.5 712.75,-49 877.25,-49 877.25,-79.5"/>
<text text-anchor="start" x="720.75" y="-66" font-family="Helvetica,sans-Serif" font-size="10.00">ml::core::CCompressedDictionary</text>
<text text-anchor="middle" x="795" y="-54.75" font-family="Helvetica,sans-Serif" font-size="10.00">::translator</text>
</a>
</g>
</g>
<!-- Node8&#45;&gt;Node11 -->
<g id="edge11_Node000008_Node000011" class="edge">
<title>Node8&#45;&gt;Node11</title>
<g id="a_edge11_Node000008_Node000011"><a xlink:title=" ">
<path fill="none" stroke="#63b8ff" d="M677.1,-64.25C685.02,-64.25 693.1,-64.25 701.12,-64.25"/>
<polygon fill="#63b8ff" stroke="#63b8ff" points="700.89,-67.75 710.89,-64.25 700.89,-60.75 700.89,-67.75"/>
</a>
</g>
</g>
<!-- Node12 -->
<g id="Node000012" class="node">
<title>Node12</title>
<g id="a_Node000012"><a xlink:href="../../db/d19/classml_1_1core_1_1_c_compressed_dictionary_1_1_c_translator.html#ac2086c554c00278219bf073d2a5736c2" target="_top" xlink:title=" ">
<polygon fill="white" stroke="#666666" points="877.25,-30.5 712.75,-30.5 712.75,0 877.25,0 877.25,-30.5"/>
<text text-anchor="start" x="720.75" y="-17" font-family="Helvetica,sans-Serif" font-size="10.00">ml::core::CCompressedDictionary</text>
<text text-anchor="middle" x="795" y="-5.75" font-family="Helvetica,sans-Serif" font-size="10.00">::CTranslator::word</text>
</a>
</g>
</g>
<!-- Node8&#45;&gt;Node12 -->
<g id="edge12_Node000008_Node000012" class="edge">
<title>Node8&#45;&gt;Node12</title>
<g id="a_edge12_Node000008_Node000012"><a xlink:title=" ">
<path fill="none" stroke="#63b8ff" d="M659.13,-48.54C678.27,-43.82 699.45,-38.59 719.24,-33.7"/>
<polygon fill="#63b8ff" stroke="#63b8ff" points="720.05,-37.11 728.92,-31.31 718.38,-30.31 720.05,-37.11"/>
</a>
</g>
</g>
<!-- Node10 -->
<g id="Node000010" class="node">
<title>Node10</title>
<g id="a_Node000010"><a xlink:href="../../d1/dbe/classml_1_1core_1_1_c_hashing.html#ade1c3a08b72697f0009fa91d14daa719" target="_top" xlink:title=" ">
<polygon fill="white" stroke="#666666" points="1020.75,-128.5 913.25,-128.5 913.25,-98 1020.75,-98 1020.75,-128.5"/>
<text text-anchor="start" x="921.25" y="-115" font-family="Helvetica,sans-Serif" font-size="10.00">ml::core::CHashing</text>
<text text-anchor="middle" x="967" y="-103.75" font-family="Helvetica,sans-Serif" font-size="10.00">::safeMurmurHash64</text>
</a>
</g>
</g>
<!-- Node9&#45;&gt;Node10 -->
<g id="edge10_Node000009_Node000010" class="edge">
<title>Node9&#45;&gt;Node10</title>
<g id="a_edge10_Node000009_Node000010"><a xlink:title=" ">
<path fill="none" stroke="#63b8ff" d="M877.51,-113.25C885.64,-113.25 893.82,-113.25 901.73,-113.25"/>
<polygon fill="#63b8ff" stroke="#63b8ff" points="901.6,-116.75 911.6,-113.25 901.6,-109.75 901.6,-116.75"/>
</a>
</g>
</g>
</g>
</svg>
