<?xml version="1.0" encoding="UTF-8" standalone="no"?>
<!DOCTYPE svg PUBLIC "-//W3C//DTD SVG 1.1//EN"
 "http://www.w3.org/Graphics/SVG/1.1/DTD/svg11.dtd">
<!-- Generated by graphviz version 10.0.1 (20240210.2158)
 -->
<!-- Title: ml::model::CDataGatherer::checksum Pages: 1 -->
<!--zoomable 458 -->

<svg id="main" version="1.1" xmlns="http://www.w3.org/2000/svg" xmlns:xlink="http://www.w3.org/1999/xlink" xml:space="preserve" onload="init(evt)">
<style type="text/css"><![CDATA[
.node, .edge {opacity: 0.7;}
.node.selected, .edge.selected {opacity: 1;}
.edge:hover path { stroke: red; }
.edge:hover polygon { stroke: red; fill: red; }
]]></style>

<defs>
  <circle id="rim" cx="0" cy="0" r="7"/>
  <circle id="rim2" cx="0" cy="0" r="3.5"/>
  <g id="zoomPlus">
    <use xlink:href="#rim" fill="#404040"><set attributeName="fill" to="#808080" begin="zoomplus.mouseover" end="zoomplus.mouseout"/></use>
    <path d="M-4,0h8M0,-4v8" fill="none" stroke="white" stroke-width="1.5" pointer-events="none"/>
  </g>
  <g id="zoomMin">
    <use xlink:href="#rim" fill="#404040"><set attributeName="fill" to="#808080" begin="zoomminus.mouseover" end="zoomminus.mouseout"/></use>
    <path d="M-4,0h8" fill="none" stroke="white" stroke-width="1.5" pointer-events="none"/>
  </g>
  <g id="arrowUp" transform="translate(30 24)">
    <use xlink:href="#rim"/>
    <path pointer-events="none" fill="none" stroke="white" stroke-width="1.5" d="M0,-3.0v7 M-2.5,-0.5L0,-3.0L2.5,-0.5"/>
  </g>
  <g id="arrowRight" transform="rotate(90) translate(36 -43)">
    <use xlink:href="#rim"/>
    <path pointer-events="none" fill="none" stroke="white" stroke-width="1.5" d="M0,-3.0v7 M-2.5,-0.5L0,-3.0L2.5,-0.5"/>
  </g>
  <g id="arrowDown" transform="rotate(180) translate(-30 -48)">
    <use xlink:href="#rim"/>
    <path pointer-events="none" fill="none" stroke="white" stroke-width="1.5" d="M0,-3.0v7 M-2.5,-0.5L0,-3.0L2.5,-0.5"/>
  </g>
  <g id="arrowLeft" transform="rotate(270) translate(-36 17)">
    <use xlink:href="#rim"/>
    <path pointer-events="none" fill="none" stroke="white" stroke-width="1.5" d="M0,-3.0v7 M-2.5,-0.5L0,-3.0L2.5,-0.5"/>
  </g>
  <g id="resetDef">
    <use xlink:href="#rim2" fill="#404040"><set attributeName="fill" to="#808080" begin="reset.mouseover" end="reset.mouseout"/></use>
  </g>
</defs>
<script type="application/ecmascript">
var viewWidth = 723;
var viewHeight = 458;
var sectionId = 'dynsection-26';
</script>
<script type="application/ecmascript" xlink:href="../../svg.min.js"/>
<svg id="graph" class="graph">
<g id="viewport">
<title>ml::model::CDataGatherer::checksum</title>
<!-- Node1 -->
<g id="Node000001" class="node">
<title>Node1</title>
<g id="a_Node000001"><a xlink:title="Get the checksum of this gatherer.">
<polygon fill="#999999" stroke="#666666" points="715,-202.88 584.25,-202.88 584.25,-172.38 715,-172.38 715,-202.88"/>
<text text-anchor="start" x="592.25" y="-189.38" font-family="Helvetica,sans-Serif" font-size="10.00">ml::model::CDataGatherer</text>
<text text-anchor="middle" x="649.62" y="-178.12" font-family="Helvetica,sans-Serif" font-size="10.00">::checksum</text>
</a>
</g>
</g>
<!-- Node2 -->
<g id="Node000002" class="node">
<title>Node2</title>
<g id="a_Node000002"><a xlink:href="../../dd/de0/namespaceanonymous__namespace_02_c_event_rate_data_gatherer_test_8cc_03.html#a69b9a5936291d974ec4dafca3585f9c9" target="_top" xlink:title=" ">
<polygon fill="white" stroke="#666666" points="548.25,-313.5 398,-313.5 398,-271.75 548.25,-271.75 548.25,-313.5"/>
<text text-anchor="start" x="406" y="-300" font-family="Helvetica,sans-Serif" font-size="10.00">anonymous_namespace</text>
<text text-anchor="start" x="406" y="-288.75" font-family="Helvetica,sans-Serif" font-size="10.00">{CEventRateDataGathererTest</text>
<text text-anchor="middle" x="473.12" y="-277.5" font-family="Helvetica,sans-Serif" font-size="10.00">::cc}::testPersistence</text>
</a>
</g>
</g>
<!-- Node1&#45;&gt;Node2 -->
<g id="edge1_Node000001_Node000002" class="edge">
<title>Node1&#45;&gt;Node2</title>
<g id="a_edge1_Node000001_Node000002"><a xlink:title=" ">
<path fill="none" stroke="#63b8ff" d="M612.78,-209.19C582.57,-227.37 539.58,-253.24 509.5,-271.34"/>
<polygon fill="#63b8ff" stroke="#63b8ff" points="614.44,-212.28 621.2,-204.12 610.83,-206.28 614.44,-212.28"/>
</a>
</g>
</g>
<!-- Node12 -->
<g id="Node000012" class="node">
<title>Node12</title>
<g id="a_Node000012"><a xlink:href="../../dc/d77/namespaceanonymous__namespace_02_c_metric_data_gatherer_test_8cc_03.html#ab4dfaec54ea1ad2d393264be0e20c914" target="_top" xlink:title=" ">
<polygon fill="white" stroke="#666666" points="538.5,-104.5 407.75,-104.5 407.75,-62.75 538.5,-62.75 538.5,-104.5"/>
<text text-anchor="start" x="415.75" y="-91" font-family="Helvetica,sans-Serif" font-size="10.00">anonymous_namespace</text>
<text text-anchor="start" x="415.75" y="-79.75" font-family="Helvetica,sans-Serif" font-size="10.00">{CMetricDataGathererTest</text>
<text text-anchor="middle" x="473.12" y="-68.5" font-family="Helvetica,sans-Serif" font-size="10.00">::cc}::testPersistence</text>
</a>
</g>
</g>
<!-- Node1&#45;&gt;Node12 -->
<g id="edge11_Node000001_Node000012" class="edge">
<title>Node1&#45;&gt;Node12</title>
<g id="a_edge11_Node000001_Node000012"><a xlink:title=" ">
<path fill="none" stroke="#63b8ff" d="M612.81,-166.28C582.71,-148.34 539.89,-122.82 509.82,-104.9"/>
<polygon fill="#63b8ff" stroke="#63b8ff" points="610.82,-169.17 621.2,-171.28 614.4,-163.15 610.82,-169.17"/>
</a>
</g>
</g>
<!-- Node3 -->
<g id="Node000003" class="node">
<title>Node3</title>
<g id="a_Node000003"><a xlink:href="../../d5/da2/_c_event_rate_data_gatherer_test_8cc.html#a6e472624210013ff9414f9af3f1dccd3" target="_top" xlink:title=" ">
<polygon fill="white" stroke="#666666" points="362,-450.25 199,-450.25 199,-431 362,-431 362,-450.25"/>
<text text-anchor="middle" x="280.5" y="-436.75" font-family="Helvetica,sans-Serif" font-size="10.00">BOOST_FIXTURE_TEST_CASE</text>
</a>
</g>
</g>
<!-- Node2&#45;&gt;Node3 -->
<g id="edge2_Node000002_Node000003" class="edge">
<title>Node2&#45;&gt;Node3</title>
<g id="a_edge2_Node000002_Node000003"><a xlink:title=" ">
<path fill="none" stroke="#63b8ff" d="M454.34,-323.47C435.36,-353.52 402.48,-398.14 362,-422.62 356.73,-425.81 350.96,-428.44 345.01,-430.6"/>
<polygon fill="#63b8ff" stroke="#63b8ff" points="457.18,-325.53 459.44,-315.18 451.22,-321.86 457.18,-325.53"/>
</a>
</g>
</g>
<!-- Node4 -->
<g id="Node000004" class="node">
<title>Node4</title>
<g id="a_Node000004"><a xlink:href="../../d5/da2/_c_event_rate_data_gatherer_test_8cc.html#a6da202656e3e0d379ce31b330b68e509" target="_top" xlink:title=" ">
<polygon fill="white" stroke="#666666" points="362,-413.25 199,-413.25 199,-394 362,-394 362,-413.25"/>
<text text-anchor="middle" x="280.5" y="-399.75" font-family="Helvetica,sans-Serif" font-size="10.00">BOOST_FIXTURE_TEST_CASE</text>
</a>
</g>
</g>
<!-- Node2&#45;&gt;Node4 -->
<g id="edge3_Node000002_Node000004" class="edge">
<title>Node2&#45;&gt;Node4</title>
<g id="a_edge3_Node000002_Node000004"><a xlink:title=" ">
<path fill="none" stroke="#63b8ff" d="M445.16,-321.96C424.4,-342.8 393.92,-369.79 362,-385.62 355.59,-388.81 348.61,-391.43 341.53,-393.6"/>
<polygon fill="#63b8ff" stroke="#63b8ff" points="447.64,-324.43 452.12,-314.83 442.63,-319.55 447.64,-324.43"/>
</a>
</g>
</g>
<!-- Node5 -->
<g id="Node000005" class="node">
<title>Node5</title>
<g id="a_Node000005"><a xlink:href="../../d5/da2/_c_event_rate_data_gatherer_test_8cc.html#a0f4a44b9befd04016d05beba506c2141" target="_top" xlink:title=" ">
<polygon fill="white" stroke="#666666" points="362,-376.25 199,-376.25 199,-357 362,-357 362,-376.25"/>
<text text-anchor="middle" x="280.5" y="-362.75" font-family="Helvetica,sans-Serif" font-size="10.00">BOOST_FIXTURE_TEST_CASE</text>
</a>
</g>
</g>
<!-- Node2&#45;&gt;Node5 -->
<g id="edge4_Node000002_Node000005" class="edge">
<title>Node2&#45;&gt;Node5</title>
<g id="a_edge4_Node000002_Node000005"><a xlink:title=" ">
<path fill="none" stroke="#63b8ff" d="M425.93,-319.37C406.66,-329.67 383.73,-340.81 362,-348.62 353.51,-351.68 344.32,-354.32 335.3,-356.56"/>
<polygon fill="#63b8ff" stroke="#63b8ff" points="427.5,-322.51 434.61,-314.65 424.16,-316.36 427.5,-322.51"/>
</a>
</g>
</g>
<!-- Node6 -->
<g id="Node000006" class="node">
<title>Node6</title>
<g id="a_Node000006"><a xlink:href="../../d5/da2/_c_event_rate_data_gatherer_test_8cc.html#ae0fdf33f58fb6e5b83c3fea6910a3550" target="_top" xlink:title=" ">
<polygon fill="white" stroke="#666666" points="362,-339.25 199,-339.25 199,-320 362,-320 362,-339.25"/>
<text text-anchor="middle" x="280.5" y="-325.75" font-family="Helvetica,sans-Serif" font-size="10.00">BOOST_FIXTURE_TEST_CASE</text>
</a>
</g>
</g>
<!-- Node2&#45;&gt;Node6 -->
<g id="edge5_Node000002_Node000006" class="edge">
<title>Node2&#45;&gt;Node6</title>
<g id="a_edge5_Node000002_Node000006"><a xlink:title=" ">
<path fill="none" stroke="#63b8ff" d="M386.46,-309.25C368.43,-312.75 349.93,-316.34 333.58,-319.52"/>
<polygon fill="#63b8ff" stroke="#63b8ff" points="386.97,-312.72 396.12,-307.38 385.64,-305.85 386.97,-312.72"/>
</a>
</g>
</g>
<!-- Node7 -->
<g id="Node000007" class="node">
<title>Node7</title>
<g id="a_Node000007"><a xlink:href="../../d5/da2/_c_event_rate_data_gatherer_test_8cc.html#af9e2b18bcf7be455a3ed21d7beddd409" target="_top" xlink:title=" ">
<polygon fill="white" stroke="#666666" points="362,-302.25 199,-302.25 199,-283 362,-283 362,-302.25"/>
<text text-anchor="middle" x="280.5" y="-288.75" font-family="Helvetica,sans-Serif" font-size="10.00">BOOST_FIXTURE_TEST_CASE</text>
</a>
</g>
</g>
<!-- Node2&#45;&gt;Node7 -->
<g id="edge6_Node000002_Node000007" class="edge">
<title>Node2&#45;&gt;Node7</title>
<g id="a_edge6_Node000002_Node000007"><a xlink:title=" ">
<path fill="none" stroke="#63b8ff" d="M386.36,-292.62C378.34,-292.62 370.24,-292.62 362.27,-292.62"/>
<polygon fill="#63b8ff" stroke="#63b8ff" points="386.09,-296.13 396.09,-292.63 386.09,-289.13 386.09,-296.13"/>
</a>
</g>
</g>
<!-- Node8 -->
<g id="Node000008" class="node">
<title>Node8</title>
<g id="a_Node000008"><a xlink:href="../../d5/da2/_c_event_rate_data_gatherer_test_8cc.html#a870470ad3f01bd8345aaddfa633c41da" target="_top" xlink:title=" ">
<polygon fill="white" stroke="#666666" points="362,-265.25 199,-265.25 199,-246 362,-246 362,-265.25"/>
<text text-anchor="middle" x="280.5" y="-251.75" font-family="Helvetica,sans-Serif" font-size="10.00">BOOST_FIXTURE_TEST_CASE</text>
</a>
</g>
</g>
<!-- Node2&#45;&gt;Node8 -->
<g id="edge7_Node000002_Node000008" class="edge">
<title>Node2&#45;&gt;Node8</title>
<g id="a_edge7_Node000002_Node000008"><a xlink:title=" ">
<path fill="none" stroke="#63b8ff" d="M386.46,-276C368.43,-272.5 349.93,-268.91 333.58,-265.73"/>
<polygon fill="#63b8ff" stroke="#63b8ff" points="385.64,-279.4 396.12,-277.87 386.97,-272.53 385.64,-279.4"/>
</a>
</g>
</g>
<!-- Node9 -->
<g id="Node000009" class="node">
<title>Node9</title>
<g id="a_Node000009"><a xlink:href="../../d5/da2/_c_event_rate_data_gatherer_test_8cc.html#ade7c33426159fefcce1ead2519bf5f51" target="_top" xlink:title=" ">
<polygon fill="white" stroke="#666666" points="362,-228.25 199,-228.25 199,-209 362,-209 362,-228.25"/>
<text text-anchor="middle" x="280.5" y="-214.75" font-family="Helvetica,sans-Serif" font-size="10.00">BOOST_FIXTURE_TEST_CASE</text>
</a>
</g>
</g>
<!-- Node2&#45;&gt;Node9 -->
<g id="edge8_Node000002_Node000009" class="edge">
<title>Node2&#45;&gt;Node9</title>
<g id="a_edge8_Node000002_Node000009"><a xlink:title=" ">
<path fill="none" stroke="#63b8ff" d="M425.93,-265.88C406.66,-255.58 383.73,-244.44 362,-236.62 353.51,-233.57 344.32,-230.93 335.3,-228.69"/>
<polygon fill="#63b8ff" stroke="#63b8ff" points="424.16,-268.89 434.61,-270.6 427.5,-262.74 424.16,-268.89"/>
</a>
</g>
</g>
<!-- Node10 -->
<g id="Node000010" class="node">
<title>Node10</title>
<g id="a_Node000010"><a xlink:href="../../dd/de0/namespaceanonymous__namespace_02_c_event_rate_data_gatherer_test_8cc_03.html#ab775aa183ae52bc123e0eb51a205150b" target="_top" xlink:title=" ">
<polygon fill="white" stroke="#666666" points="355.62,-190.5 205.38,-190.5 205.38,-148.75 355.62,-148.75 355.62,-190.5"/>
<text text-anchor="start" x="213.38" y="-177" font-family="Helvetica,sans-Serif" font-size="10.00">anonymous_namespace</text>
<text text-anchor="start" x="213.38" y="-165.75" font-family="Helvetica,sans-Serif" font-size="10.00">{CEventRateDataGathererTest</text>
<text text-anchor="middle" x="280.5" y="-154.5" font-family="Helvetica,sans-Serif" font-size="10.00">::cc}::testInfluencerPerFeature</text>
</a>
</g>
</g>
<!-- Node2&#45;&gt;Node10 -->
<g id="edge9_Node000002_Node000010" class="edge">
<title>Node2&#45;&gt;Node10</title>
<g id="a_edge9_Node000002_Node000010"><a xlink:title=" ">
<path fill="none" stroke="#63b8ff" d="M443.3,-263.43C422.24,-243.37 392.19,-217.27 362,-199.62 356.59,-196.46 350.79,-193.53 344.87,-190.84"/>
<polygon fill="#63b8ff" stroke="#63b8ff" points="440.76,-265.84 450.38,-270.28 445.63,-260.81 440.76,-265.84"/>
</a>
</g>
</g>
<!-- Node11 -->
<g id="Node000011" class="node">
<title>Node11</title>
<g id="a_Node000011"><a xlink:href="../../d5/da2/_c_event_rate_data_gatherer_test_8cc.html#aa0270f638cf60477971b5412c5017bea" target="_top" xlink:title=" ">
<polygon fill="white" stroke="#666666" points="163,-179.25 0,-179.25 0,-160 163,-160 163,-179.25"/>
<text text-anchor="middle" x="81.5" y="-165.75" font-family="Helvetica,sans-Serif" font-size="10.00">BOOST_FIXTURE_TEST_CASE</text>
</a>
</g>
</g>
<!-- Node10&#45;&gt;Node11 -->
<g id="edge10_Node000010_Node000011" class="edge">
<title>Node10&#45;&gt;Node11</title>
<g id="a_edge10_Node000010_Node000011"><a xlink:title=" ">
<path fill="none" stroke="#63b8ff" d="M193.73,-169.62C183.63,-169.62 173.36,-169.62 163.34,-169.62"/>
<polygon fill="#63b8ff" stroke="#63b8ff" points="193.51,-173.13 203.51,-169.63 193.51,-166.13 193.51,-173.13"/>
</a>
</g>
</g>
<!-- Node13 -->
<g id="Node000013" class="node">
<title>Node13</title>
<g id="a_Node000013"><a xlink:href="../../df/d7a/_c_metric_data_gatherer_test_8cc.html#ae0fdf33f58fb6e5b83c3fea6910a3550" target="_top" xlink:title=" ">
<polygon fill="white" stroke="#666666" points="362,-130.25 199,-130.25 199,-111 362,-111 362,-130.25"/>
<text text-anchor="middle" x="280.5" y="-116.75" font-family="Helvetica,sans-Serif" font-size="10.00">BOOST_FIXTURE_TEST_CASE</text>
</a>
</g>
</g>
<!-- Node12&#45;&gt;Node13 -->
<g id="edge12_Node000012_Node000013" class="edge">
<title>Node12&#45;&gt;Node13</title>
<g id="a_edge12_Node000012_Node000013"><a xlink:title=" ">
<path fill="none" stroke="#63b8ff" d="M396.14,-98.37C375.13,-102.45 352.81,-106.78 333.5,-110.53"/>
<polygon fill="#63b8ff" stroke="#63b8ff" points="396.69,-101.83 405.84,-96.49 395.35,-94.96 396.69,-101.83"/>
</a>
</g>
</g>
<!-- Node14 -->
<g id="Node000014" class="node">
<title>Node14</title>
<g id="a_Node000014"><a xlink:href="../../df/d7a/_c_metric_data_gatherer_test_8cc.html#ad1ac434a57a5bb8168f0161efbc3ac44" target="_top" xlink:title=" ">
<polygon fill="white" stroke="#666666" points="362,-93.25 199,-93.25 199,-74 362,-74 362,-93.25"/>
<text text-anchor="middle" x="280.5" y="-79.75" font-family="Helvetica,sans-Serif" font-size="10.00">BOOST_FIXTURE_TEST_CASE</text>
</a>
</g>
</g>
<!-- Node12&#45;&gt;Node14 -->
<g id="edge13_Node000012_Node000014" class="edge">
<title>Node12&#45;&gt;Node14</title>
<g id="a_edge13_Node000012_Node000014"><a xlink:title=" ">
<path fill="none" stroke="#63b8ff" d="M395.95,-83.62C384.89,-83.62 373.48,-83.62 362.33,-83.62"/>
<polygon fill="#63b8ff" stroke="#63b8ff" points="395.81,-87.13 405.81,-83.63 395.81,-80.13 395.81,-87.13"/>
</a>
</g>
</g>
<!-- Node15 -->
<g id="Node000015" class="node">
<title>Node15</title>
<g id="a_Node000015"><a xlink:href="../../df/d7a/_c_metric_data_gatherer_test_8cc.html#a870470ad3f01bd8345aaddfa633c41da" target="_top" xlink:title=" ">
<polygon fill="white" stroke="#666666" points="362,-56.25 199,-56.25 199,-37 362,-37 362,-56.25"/>
<text text-anchor="middle" x="280.5" y="-42.75" font-family="Helvetica,sans-Serif" font-size="10.00">BOOST_FIXTURE_TEST_CASE</text>
</a>
</g>
</g>
<!-- Node12&#45;&gt;Node15 -->
<g id="edge14_Node000012_Node000015" class="edge">
<title>Node12&#45;&gt;Node15</title>
<g id="a_edge14_Node000012_Node000015"><a xlink:title=" ">
<path fill="none" stroke="#63b8ff" d="M396.14,-68.88C375.13,-64.8 352.81,-60.47 333.5,-56.72"/>
<polygon fill="#63b8ff" stroke="#63b8ff" points="395.35,-72.29 405.84,-70.76 396.69,-65.42 395.35,-72.29"/>
</a>
</g>
</g>
<!-- Node16 -->
<g id="Node000016" class="node">
<title>Node16</title>
<g id="a_Node000016"><a xlink:href="../../df/d7a/_c_metric_data_gatherer_test_8cc.html#a2b753746ccc5071c4b0414e6569279c8" target="_top" xlink:title=" ">
<polygon fill="white" stroke="#666666" points="362,-19.25 199,-19.25 199,0 362,0 362,-19.25"/>
<text text-anchor="middle" x="280.5" y="-5.75" font-family="Helvetica,sans-Serif" font-size="10.00">BOOST_FIXTURE_TEST_CASE</text>
</a>
</g>
</g>
<!-- Node12&#45;&gt;Node16 -->
<g id="edge15_Node000012_Node000016" class="edge">
<title>Node12&#45;&gt;Node16</title>
<g id="a_edge15_Node000012_Node000016"><a xlink:title=" ">
<path fill="none" stroke="#63b8ff" d="M425.93,-56.88C406.66,-46.58 383.73,-35.44 362,-27.62 353.51,-24.57 344.32,-21.93 335.3,-19.69"/>
<polygon fill="#63b8ff" stroke="#63b8ff" points="424.16,-59.89 434.61,-61.6 427.5,-53.74 424.16,-59.89"/>
</a>
</g>
</g>
</g>
</svg>

<g id="navigator" transform="translate(0 0)" fill="#404254">
  <rect fill="#f2f5e9" fill-opacity="0.5" stroke="#606060" stroke-width=".5" x="0" y="0" width="60" height="60"/>
  <use id="zoomplus" xlink:href="#zoomPlus" x="17" y="9" onmousedown="handleZoom(evt,'in')"/>
  <use id="zoomminus" xlink:href="#zoomMin" x="42" y="9" onmousedown="handleZoom(evt,'out')"/>
  <use id="reset" xlink:href="#resetDef" x="30" y="36" onmousedown="handleReset()"/>
   <use id="arrowup" xlink:href="#arrowUp" x="0" y="0" onmousedown="handlePan(0,-1)"/>
  <use id="arrowright" xlink:href="#arrowRight" x="0" y="0" onmousedown="handlePan(1,0)"/>
  <use id="arrowdown" xlink:href="#arrowDown" x="0" y="0" onmousedown="handlePan(0,1)"/>
  <use id="arrowleft" xlink:href="#arrowLeft" x="0" y="0" onmousedown="handlePan(-1,0)"/>
</g>
<svg viewBox="0 0 15 15" width="100%" height="30px" preserveAspectRatio="xMaxYMin meet">
 <g id="arrow_out" transform="scale(0.3 0.3)">
  <a xlink:href="classml_1_1model_1_1_c_data_gatherer_a20388c0cda0e54f73b61ede357a1aa03_icgraph_org.svg" target="_base">
   <rect id="button" ry="5" rx="5" y="6" x="6" height="38" width="38"
        fill="#f2f5e9" fill-opacity="0.5" stroke="#606060" stroke-width="1.0"/>
   <path id="arrow"
     d="M 11.500037,31.436501 C 11.940474,20.09759 22.043105,11.32322 32.158766,21.979434 L 37.068811,17.246167 C 37.068811,17.246167 37.088388,32 37.088388,32 L 22.160133,31.978069 C 22.160133,31.978069 26.997745,27.140456 26.997745,27.140456 C 18.528582,18.264221 13.291696,25.230495 11.500037,31.436501 z"
     style="fill:#404040;"/>
  </a>
 </g>
</svg>

<style type='text/css'>
<![CDATA[
[data-mouse-over-selected='false'] { opacity: 0.7; }
[data-mouse-over-selected='true']  { opacity: 1.0; }
]]>
</style>
<script type="application/ecmascript"><![CDATA[
document.addEventListener('DOMContentLoaded', (event) => {
  highlightEdges();
  highlightAdjacentNodes();
});
]]></script>
</svg>
