<?xml version="1.0" encoding="UTF-8" standalone="no"?>
<!DOCTYPE svg PUBLIC "-//W3C//DTD SVG 1.1//EN"
 "http://www.w3.org/Graphics/SVG/1.1/DTD/svg11.dtd">
<!-- Generated by graphviz version 10.0.1 (20240210.2158)
 -->
<!-- Title: ml::api::CHierarchicalResultsWriter::SResults Pages: 1 -->
<svg width="617pt" height="153pt"
 viewBox="0.00 0.00 617.25 153.25" xmlns="http://www.w3.org/2000/svg" xmlns:xlink="http://www.w3.org/1999/xlink">
<g id="graph0" class="graph" transform="scale(1 1) rotate(0) translate(4 149.25)">
<title>ml::api::CHierarchicalResultsWriter::SResults</title>
<!-- Node1 -->
<g id="Node000001" class="node">
<title>Node1</title>
<g id="a_Node000001"><a xlink:title="Type which wraps up the results of anomaly detection.">
<polygon fill="#999999" stroke="#666666" points="609.25,-79.5 465,-79.5 465,-49 609.25,-49 609.25,-79.5"/>
<text text-anchor="start" x="473" y="-66" font-family="Helvetica,sans-Serif" font-size="10.00">ml::api::CHierarchicalResults</text>
<text text-anchor="middle" x="537.12" y="-54.75" font-family="Helvetica,sans-Serif" font-size="10.00">Writer::SResults</text>
</a>
</g>
</g>
<!-- Node2 -->
<g id="Node000002" class="node">
<title>Node2</title>
<g id="a_Node000002"><a xlink:href="../../d6/de8/classml_1_1core_1_1_c_small_vector.html" target="_top" xlink:title=" ">
<polygon fill="white" stroke="#666666" points="279.75,-128.5 161.75,-128.5 161.75,-98 279.75,-98 279.75,-128.5"/>
<text text-anchor="start" x="169.75" y="-115" font-family="Helvetica,sans-Serif" font-size="10.00">ml::core::CSmallVector</text>
<text text-anchor="middle" x="220.75" y="-103.75" font-family="Helvetica,sans-Serif" font-size="10.00">&lt; double, 1 &gt;</text>
</a>
</g>
</g>
<!-- Node2&#45;&gt;Node1 -->
<g id="edge1_Node000001_Node000002" class="edge">
<title>Node2&#45;&gt;Node1</title>
<g id="a_edge1_Node000001_Node000002"><a xlink:title=" ">
<path fill="none" stroke="#9a32cd" stroke-dasharray="5,2" d="M291.42,-103.05C335.95,-96.45 394.91,-87.56 447,-79.25 452.73,-78.33 458.67,-77.37 464.63,-76.39"/>
<polygon fill="#9a32cd" stroke="#9a32cd" points="291.01,-99.57 281.63,-104.49 292.03,-106.49 291.01,-99.57"/>
</a>
</g>
<text text-anchor="middle" x="377.25" y="-135.75" font-family="Helvetica,sans-Serif" font-size="10.00" fill="grey"> s_BaselineMean</text>
<text text-anchor="middle" x="377.25" y="-124.5" font-family="Helvetica,sans-Serif" font-size="10.00" fill="grey">s_CurrentMean</text>
<text text-anchor="middle" x="377.25" y="-113.25" font-family="Helvetica,sans-Serif" font-size="10.00" fill="grey">s_FunctionValue</text>
<text text-anchor="middle" x="377.25" y="-102" font-family="Helvetica,sans-Serif" font-size="10.00" fill="grey">s_PopulationAverage</text>
</g>
<!-- Node3 -->
<g id="Node000003" class="node">
<title>Node3</title>
<g id="a_Node000003"><a xlink:title=" ">
<polygon fill="white" stroke="#666666" points="115,-103.5 0,-103.5 0,-73 115,-73 115,-103.5"/>
<text text-anchor="start" x="8" y="-90" font-family="Helvetica,sans-Serif" font-size="10.00">boost::container::small</text>
<text text-anchor="middle" x="57.5" y="-78.75" font-family="Helvetica,sans-Serif" font-size="10.00">_vector&lt; T, N &gt;</text>
</a>
</g>
</g>
<!-- Node3&#45;&gt;Node2 -->
<g id="edge2_Node000002_Node000003" class="edge">
<title>Node3&#45;&gt;Node2</title>
<g id="a_edge2_Node000002_Node000003"><a xlink:title=" ">
<path fill="none" stroke="#63b8ff" d="M126.4,-98.78C138.07,-100.59 150.11,-102.45 161.51,-104.22"/>
<polygon fill="#63b8ff" stroke="#63b8ff" points="127.26,-95.37 116.85,-97.3 126.19,-102.29 127.26,-95.37"/>
</a>
</g>
</g>
<!-- Node4 -->
<g id="Node000004" class="node">
<title>Node4</title>
<g id="a_Node000004"><a xlink:href="../../d6/de8/classml_1_1core_1_1_c_small_vector.html" target="_top" xlink:title=" ">
<polygon fill="white" stroke="#666666" points="279.75,-79.5 161.75,-79.5 161.75,-49 279.75,-49 279.75,-79.5"/>
<text text-anchor="start" x="169.75" y="-66" font-family="Helvetica,sans-Serif" font-size="10.00">ml::core::CSmallVector</text>
<text text-anchor="middle" x="220.75" y="-54.75" font-family="Helvetica,sans-Serif" font-size="10.00">&lt; std::string, 1 &gt;</text>
</a>
</g>
</g>
<!-- Node3&#45;&gt;Node4 -->
<g id="edge4_Node000004_Node000003" class="edge">
<title>Node3&#45;&gt;Node4</title>
<g id="a_edge4_Node000004_Node000003"><a xlink:title=" ">
<path fill="none" stroke="#63b8ff" d="M126.4,-78.14C138.07,-76.41 150.11,-74.61 161.51,-72.92"/>
<polygon fill="#63b8ff" stroke="#63b8ff" points="126.22,-74.63 116.85,-79.57 127.25,-81.56 126.22,-74.63"/>
</a>
</g>
</g>
<!-- Node4&#45;&gt;Node1 -->
<g id="edge3_Node000001_Node000004" class="edge">
<title>Node4&#45;&gt;Node1</title>
<g id="a_edge3_Node000001_Node000004"><a xlink:title=" ">
<path fill="none" stroke="#9a32cd" stroke-dasharray="5,2" d="M291.48,-64.25C342.91,-64.25 412.67,-64.25 464.53,-64.25"/>
<polygon fill="#9a32cd" stroke="#9a32cd" points="291.66,-60.75 281.66,-64.25 291.66,-67.75 291.66,-60.75"/>
</a>
</g>
<text text-anchor="middle" x="377.25" y="-66" font-family="Helvetica,sans-Serif" font-size="10.00" fill="grey"> s_ScheduledEventDescriptions</text>
</g>
<!-- Node5 -->
<g id="Node000005" class="node">
<title>Node5</title>
<g id="a_Node000005"><a xlink:href="../../dc/d00/structml_1_1maths_1_1common_1_1_s_anomaly_score_explanation.html" target="_top" xlink:title="Describes the impact of different factors on the anomaly score.">
<polygon fill="white" stroke="#666666" points="289.5,-30.5 152,-30.5 152,0 289.5,0 289.5,-30.5"/>
<text text-anchor="start" x="160" y="-17" font-family="Helvetica,sans-Serif" font-size="10.00">ml::maths::common::</text>
<text text-anchor="middle" x="220.75" y="-5.75" font-family="Helvetica,sans-Serif" font-size="10.00">SAnomalyScoreExplanation</text>
</a>
</g>
</g>
<!-- Node5&#45;&gt;Node1 -->
<g id="edge5_Node000001_Node000005" class="edge">
<title>Node5&#45;&gt;Node1</title>
<g id="a_edge5_Node000001_Node000005"><a xlink:title=" ">
<path fill="none" stroke="#9a32cd" stroke-dasharray="5,2" d="M301.12,-26.73C344.29,-33.08 398.62,-41.24 447,-49 452.73,-49.92 458.67,-50.89 464.64,-51.88"/>
<polygon fill="#9a32cd" stroke="#9a32cd" points="301.72,-23.28 291.32,-25.29 300.7,-30.21 301.72,-23.28"/>
</a>
</g>
<text text-anchor="middle" x="377.25" y="-50" font-family="Helvetica,sans-Serif" font-size="10.00" fill="grey"> s_AnomalyScoreExplanation</text>
</g>
</g>
</svg>
