<?xml version="1.0" encoding="UTF-8" standalone="no"?>
<!DOCTYPE svg PUBLIC "-//W3C//DTD SVG 1.1//EN"
 "http://www.w3.org/Graphics/SVG/1.1/DTD/svg11.dtd">
<!-- Generated by graphviz version 10.0.1 (20240210.2158)
 -->
<!-- Title: ml::model::CCountingModel::updateCurrentBucketsStats Pages: 1 -->
<!--zoomable 101 -->

<svg id="main" version="1.1" xmlns="http://www.w3.org/2000/svg" xmlns:xlink="http://www.w3.org/1999/xlink" xml:space="preserve" onload="init(evt)">
<style type="text/css"><![CDATA[
.node, .edge {opacity: 0.7;}
.node.selected, .edge.selected {opacity: 1;}
.edge:hover path { stroke: red; }
.edge:hover polygon { stroke: red; fill: red; }
]]></style>

<defs>
  <circle id="rim" cx="0" cy="0" r="7"/>
  <circle id="rim2" cx="0" cy="0" r="3.5"/>
  <g id="zoomPlus">
    <use xlink:href="#rim" fill="#404040"><set attributeName="fill" to="#808080" begin="zoomplus.mouseover" end="zoomplus.mouseout"/></use>
    <path d="M-4,0h8M0,-4v8" fill="none" stroke="white" stroke-width="1.5" pointer-events="none"/>
  </g>
  <g id="zoomMin">
    <use xlink:href="#rim" fill="#404040"><set attributeName="fill" to="#808080" begin="zoomminus.mouseover" end="zoomminus.mouseout"/></use>
    <path d="M-4,0h8" fill="none" stroke="white" stroke-width="1.5" pointer-events="none"/>
  </g>
  <g id="arrowUp" transform="translate(30 24)">
    <use xlink:href="#rim"/>
    <path pointer-events="none" fill="none" stroke="white" stroke-width="1.5" d="M0,-3.0v7 M-2.5,-0.5L0,-3.0L2.5,-0.5"/>
  </g>
  <g id="arrowRight" transform="rotate(90) translate(36 -43)">
    <use xlink:href="#rim"/>
    <path pointer-events="none" fill="none" stroke="white" stroke-width="1.5" d="M0,-3.0v7 M-2.5,-0.5L0,-3.0L2.5,-0.5"/>
  </g>
  <g id="arrowDown" transform="rotate(180) translate(-30 -48)">
    <use xlink:href="#rim"/>
    <path pointer-events="none" fill="none" stroke="white" stroke-width="1.5" d="M0,-3.0v7 M-2.5,-0.5L0,-3.0L2.5,-0.5"/>
  </g>
  <g id="arrowLeft" transform="rotate(270) translate(-36 17)">
    <use xlink:href="#rim"/>
    <path pointer-events="none" fill="none" stroke="white" stroke-width="1.5" d="M0,-3.0v7 M-2.5,-0.5L0,-3.0L2.5,-0.5"/>
  </g>
  <g id="resetDef">
    <use xlink:href="#rim2" fill="#404040"><set attributeName="fill" to="#808080" begin="reset.mouseover" end="reset.mouseout"/></use>
  </g>
</defs>
<script type="application/ecmascript">
var viewWidth = 523;
var viewHeight = 101;
var sectionId = 'dynsection-37';
</script>
<script type="application/ecmascript" xlink:href="../../svg.min.js"/>
<svg id="graph" class="graph">
<g id="viewport">
<title>ml::model::CCountingModel::updateCurrentBucketsStats</title>
<!-- Node1 -->
<g id="Node000001" class="node">
<title>Node1</title>
<g id="a_Node000001"><a xlink:title="Update start time and counts for the given bucket.">
<polygon fill="#999999" stroke="#666666" points="515.25,-60.88 372.5,-60.88 372.5,-30.38 515.25,-30.38 515.25,-60.88"/>
<text text-anchor="start" x="380.5" y="-47.38" font-family="Helvetica,sans-Serif" font-size="10.00">ml::model::CCountingModel</text>
<text text-anchor="middle" x="443.88" y="-36.12" font-family="Helvetica,sans-Serif" font-size="10.00">::updateCurrentBucketsStats</text>
</a>
</g>
</g>
<!-- Node2 -->
<g id="Node000002" class="node">
<title>Node2</title>
<g id="a_Node000002"><a xlink:href="../../df/d84/classml_1_1model_1_1_c_counting_model.html#a588af24e4a97df7554e795002c741ddc" target="_top" xlink:title=" ">
<polygon fill="white" stroke="#666666" points="336.5,-85.88 199,-85.88 199,-55.38 336.5,-55.38 336.5,-85.88"/>
<text text-anchor="start" x="207" y="-72.38" font-family="Helvetica,sans-Serif" font-size="10.00">ml::model::CCountingModel</text>
<text text-anchor="middle" x="267.75" y="-61.12" font-family="Helvetica,sans-Serif" font-size="10.00">::sample</text>
</a>
</g>
</g>
<!-- Node1&#45;&gt;Node2 -->
<g id="edge1_Node000001_Node000002" class="edge">
<title>Node1&#45;&gt;Node2</title>
<g id="a_edge1_Node000001_Node000002"><a xlink:title=" ">
<path fill="none" stroke="#63b8ff" d="M360.83,-57.4C352.84,-58.55 344.8,-59.71 336.98,-60.83"/>
<polygon fill="#63b8ff" stroke="#63b8ff" points="361.15,-60.89 370.55,-56.01 360.16,-53.97 361.15,-60.89"/>
</a>
</g>
</g>
<!-- Node6 -->
<g id="Node000006" class="node">
<title>Node6</title>
<g id="a_Node000006"><a xlink:href="../../df/d84/classml_1_1model_1_1_c_counting_model.html#a05a6203b31b0219d05a42f855da666c9" target="_top" xlink:title=" ">
<polygon fill="white" stroke="#666666" points="336.5,-36.88 199,-36.88 199,-6.37 336.5,-6.37 336.5,-36.88"/>
<text text-anchor="start" x="207" y="-23.38" font-family="Helvetica,sans-Serif" font-size="10.00">ml::model::CCountingModel</text>
<text text-anchor="middle" x="267.75" y="-12.12" font-family="Helvetica,sans-Serif" font-size="10.00">::sampleBucketStatistics</text>
</a>
</g>
</g>
<!-- Node1&#45;&gt;Node6 -->
<g id="edge5_Node000001_Node000006" class="edge">
<title>Node1&#45;&gt;Node6</title>
<g id="a_edge5_Node000001_Node000006"><a xlink:title=" ">
<path fill="none" stroke="#63b8ff" d="M360.83,-34.32C352.84,-33.22 344.8,-32.11 336.98,-31.03"/>
<polygon fill="#63b8ff" stroke="#63b8ff" points="360.17,-37.76 370.55,-35.66 361.12,-30.82 360.17,-37.76"/>
</a>
</g>
</g>
<!-- Node3 -->
<g id="Node000003" class="node">
<title>Node3</title>
<g id="a_Node000003"><a xlink:href="../../d7/d26/_c_counting_model_test_8cc.html#a41316982f546b1f08a56adff44df03f4" target="_top" xlink:title=" ">
<polygon fill="white" stroke="#666666" points="163,-93.25 0,-93.25 0,-74 163,-74 163,-93.25"/>
<text text-anchor="middle" x="81.5" y="-79.75" font-family="Helvetica,sans-Serif" font-size="10.00">BOOST_FIXTURE_TEST_CASE</text>
</a>
</g>
</g>
<!-- Node2&#45;&gt;Node3 -->
<g id="edge2_Node000002_Node000003" class="edge">
<title>Node2&#45;&gt;Node3</title>
<g id="a_edge2_Node000002_Node000003"><a xlink:title=" ">
<path fill="none" stroke="#63b8ff" d="M187.22,-76.24C179.32,-76.79 171.31,-77.36 163.4,-77.92"/>
<polygon fill="#63b8ff" stroke="#63b8ff" points="187.43,-79.73 197.16,-75.54 186.93,-72.75 187.43,-79.73"/>
</a>
</g>
</g>
<!-- Node4 -->
<g id="Node000004" class="node">
<title>Node4</title>
<g id="a_Node000004"><a xlink:href="../../de/d99/_c_event_rate_model_test_8cc.html#a3ea0d03f40a2fc72250572411eb0b77a" target="_top" xlink:title=" ">
<polygon fill="white" stroke="#666666" points="163,-56.25 0,-56.25 0,-37 163,-37 163,-56.25"/>
<text text-anchor="middle" x="81.5" y="-42.75" font-family="Helvetica,sans-Serif" font-size="10.00">BOOST_FIXTURE_TEST_CASE</text>
</a>
</g>
</g>
<!-- Node2&#45;&gt;Node4 -->
<g id="edge3_Node000002_Node000004" class="edge">
<title>Node2&#45;&gt;Node4</title>
<g id="a_edge3_Node000002_Node000004"><a xlink:title=" ">
<path fill="none" stroke="#63b8ff" d="M187.29,-60.27C178.22,-59.09 168.98,-57.89 159.94,-56.71"/>
<polygon fill="#63b8ff" stroke="#63b8ff" points="186.8,-63.74 197.16,-61.56 187.7,-56.8 186.8,-63.74"/>
</a>
</g>
</g>
<!-- Node5 -->
<g id="Node000005" class="node">
<title>Node5</title>
<g id="a_Node000005"><a xlink:href="../../de/d77/_c_metric_model_test_8cc.html#a99a02491bdf3a9c3d44f7dfeb59a59c1" target="_top" xlink:title=" ">
<polygon fill="white" stroke="#666666" points="163,-19.25 0,-19.25 0,0 163,0 163,-19.25"/>
<text text-anchor="middle" x="81.5" y="-5.75" font-family="Helvetica,sans-Serif" font-size="10.00">BOOST_FIXTURE_TEST_CASE</text>
</a>
</g>
</g>
<!-- Node2&#45;&gt;Node5 -->
<g id="edge4_Node000002_Node000005" class="edge">
<title>Node2&#45;&gt;Node5</title>
<g id="a_edge4_Node000002_Node000005"><a xlink:title=" ">
<path fill="none" stroke="#63b8ff" d="M211.46,-50.8C207.22,-49.1 203.03,-47.37 199,-45.62 182.58,-38.52 179.85,-33.62 163,-27.62 154.5,-24.6 145.31,-21.97 136.28,-19.73"/>
<polygon fill="#63b8ff" stroke="#63b8ff" points="210.01,-53.99 220.6,-54.36 212.56,-47.47 210.01,-53.99"/>
</a>
</g>
</g>
<!-- Node6&#45;&gt;Node3 -->
<g id="edge6_Node000006_Node000003" class="edge">
<title>Node6&#45;&gt;Node3</title>
<g id="a_edge6_Node000006_Node000003"><a xlink:title=" ">
<path fill="none" stroke="#63b8ff" d="M211.21,-41.43C207.06,-43.13 202.94,-44.87 199,-46.62 182.48,-53.99 179.98,-59.37 163,-65.62 154.67,-68.69 145.65,-71.33 136.77,-73.57"/>
<polygon fill="#63b8ff" stroke="#63b8ff" points="212.16,-44.82 220.18,-37.9 209.59,-38.31 212.16,-44.82"/>
</a>
</g>
</g>
<!-- Node6&#45;&gt;Node4 -->
<g id="edge7_Node000006_Node000004" class="edge">
<title>Node6&#45;&gt;Node4</title>
<g id="a_edge7_Node000006_Node000004"><a xlink:title=" ">
<path fill="none" stroke="#63b8ff" d="M187.34,-32.4C177.2,-33.78 166.86,-35.18 156.81,-36.54"/>
<polygon fill="#63b8ff" stroke="#63b8ff" points="187.73,-35.88 197.17,-31.07 186.79,-28.94 187.73,-35.88"/>
</a>
</g>
</g>
<!-- Node6&#45;&gt;Node5 -->
<g id="edge8_Node000006_Node000005" class="edge">
<title>Node6&#45;&gt;Node5</title>
<g id="a_edge8_Node000006_Node000005"><a xlink:title=" ">
<path fill="none" stroke="#63b8ff" d="M187.22,-16.45C179.32,-15.93 171.31,-15.41 163.4,-14.89"/>
<polygon fill="#63b8ff" stroke="#63b8ff" points="186.95,-19.93 197.16,-17.09 187.4,-12.95 186.95,-19.93"/>
</a>
</g>
</g>
</g>
</svg>

<g id="navigator" transform="translate(0 0)" fill="#404254">
  <rect fill="#f2f5e9" fill-opacity="0.5" stroke="#606060" stroke-width=".5" x="0" y="0" width="60" height="60"/>
  <use id="zoomplus" xlink:href="#zoomPlus" x="17" y="9" onmousedown="handleZoom(evt,'in')"/>
  <use id="zoomminus" xlink:href="#zoomMin" x="42" y="9" onmousedown="handleZoom(evt,'out')"/>
  <use id="reset" xlink:href="#resetDef" x="30" y="36" onmousedown="handleReset()"/>
   <use id="arrowup" xlink:href="#arrowUp" x="0" y="0" onmousedown="handlePan(0,-1)"/>
  <use id="arrowright" xlink:href="#arrowRight" x="0" y="0" onmousedown="handlePan(1,0)"/>
  <use id="arrowdown" xlink:href="#arrowDown" x="0" y="0" onmousedown="handlePan(0,1)"/>
  <use id="arrowleft" xlink:href="#arrowLeft" x="0" y="0" onmousedown="handlePan(-1,0)"/>
</g>
<svg viewBox="0 0 15 15" width="100%" height="30px" preserveAspectRatio="xMaxYMin meet">
 <g id="arrow_out" transform="scale(0.3 0.3)">
  <a xlink:href="classml_1_1model_1_1_c_counting_model_ae6003b40d2afae26304656546e63928f_icgraph_org.svg" target="_base">
   <rect id="button" ry="5" rx="5" y="6" x="6" height="38" width="38"
        fill="#f2f5e9" fill-opacity="0.5" stroke="#606060" stroke-width="1.0"/>
   <path id="arrow"
     d="M 11.500037,31.436501 C 11.940474,20.09759 22.043105,11.32322 32.158766,21.979434 L 37.068811,17.246167 C 37.068811,17.246167 37.088388,32 37.088388,32 L 22.160133,31.978069 C 22.160133,31.978069 26.997745,27.140456 26.997745,27.140456 C 18.528582,18.264221 13.291696,25.230495 11.500037,31.436501 z"
     style="fill:#404040;"/>
  </a>
 </g>
</svg>

<style type='text/css'>
<![CDATA[
[data-mouse-over-selected='false'] { opacity: 0.7; }
[data-mouse-over-selected='true']  { opacity: 1.0; }
]]>
</style>
<script type="application/ecmascript"><![CDATA[
document.addEventListener('DOMContentLoaded', (event) => {
  highlightEdges();
  highlightAdjacentNodes();
});
]]></script>
</svg>
