<?xml version="1.0" encoding="UTF-8" standalone="no"?>
<!DOCTYPE svg PUBLIC "-//W3C//DTD SVG 1.1//EN"
 "http://www.w3.org/Graphics/SVG/1.1/DTD/svg11.dtd">
<!-- Generated by graphviz version 10.0.1 (20240210.2158)
 -->
<!-- Title: ml::maths::common::CLogNormalMeanPrecConjugate::printJointDensityFunction Pages: 1 -->
<svg width="558pt" height="311pt"
 viewBox="0.00 0.00 557.75 311.12" xmlns="http://www.w3.org/2000/svg" xmlns:xlink="http://www.w3.org/1999/xlink">
<g id="graph0" class="graph" transform="scale(1 1) rotate(0) translate(4 307.12)">
<title>ml::maths::common::CLogNormalMeanPrecConjugate::printJointDensityFunction</title>
<!-- Node1 -->
<g id="Node000001" class="node">
<title>Node1</title>
<g id="a_Node000001"><a xlink:title=" ">
<polygon fill="#999999" stroke="#666666" points="159.25,-172.12 0,-172.12 0,-130.38 159.25,-130.38 159.25,-172.12"/>
<text text-anchor="start" x="8" y="-158.62" font-family="Helvetica,sans-Serif" font-size="10.00">ml::maths::common::</text>
<text text-anchor="start" x="8" y="-147.38" font-family="Helvetica,sans-Serif" font-size="10.00">CLogNormalMeanPrecConjugate</text>
<text text-anchor="middle" x="79.62" y="-136.12" font-family="Helvetica,sans-Serif" font-size="10.00">::printJointDensityFunction</text>
</a>
</g>
</g>
<!-- Node2 -->
<g id="Node000002" class="node">
<title>Node2</title>
<g id="a_Node000002"><a xlink:href="../../d5/dd0/classml_1_1maths_1_1common_1_1_c_log_normal_mean_prec_conjugate.html#af33f59276ed9871bc2a6ed69f2a2c247" target="_top" xlink:title="Check if this is a non&#45;informative prior.">
<polygon fill="white" stroke="#666666" points="549.75,-303.12 390.5,-303.12 390.5,-261.38 549.75,-261.38 549.75,-303.12"/>
<text text-anchor="start" x="398.5" y="-289.62" font-family="Helvetica,sans-Serif" font-size="10.00">ml::maths::common::</text>
<text text-anchor="start" x="398.5" y="-278.38" font-family="Helvetica,sans-Serif" font-size="10.00">CLogNormalMeanPrecConjugate</text>
<text text-anchor="middle" x="470.12" y="-267.12" font-family="Helvetica,sans-Serif" font-size="10.00">::isNonInformative</text>
</a>
</g>
</g>
<!-- Node1&#45;&gt;Node2 -->
<g id="edge1_Node000001_Node000002" class="edge">
<title>Node1&#45;&gt;Node2</title>
<g id="a_edge1_Node000001_Node000002"><a xlink:title=" ">
<path fill="none" stroke="#63b8ff" d="M101.79,-172.53C123.36,-192.85 158.73,-222.63 195.25,-238.25 253.33,-263.1 323.79,-274.03 378.7,-278.79"/>
<polygon fill="#63b8ff" stroke="#63b8ff" points="378.41,-282.28 388.66,-279.59 378.98,-275.3 378.41,-282.28"/>
</a>
</g>
</g>
<!-- Node3 -->
<g id="Node000003" class="node">
<title>Node3</title>
<g id="a_Node000003"><a xlink:href="../../d5/dd0/classml_1_1maths_1_1common_1_1_c_log_normal_mean_prec_conjugate.html#ad4b369ad6905097d7410a4be83e36a62" target="_top" xlink:title=" ">
<polygon fill="white" stroke="#666666" points="354.5,-229.12 195.25,-229.12 195.25,-187.38 354.5,-187.38 354.5,-229.12"/>
<text text-anchor="start" x="203.25" y="-215.62" font-family="Helvetica,sans-Serif" font-size="10.00">ml::maths::common::</text>
<text text-anchor="start" x="203.25" y="-204.38" font-family="Helvetica,sans-Serif" font-size="10.00">CLogNormalMeanPrecConjugate</text>
<text text-anchor="middle" x="274.88" y="-193.12" font-family="Helvetica,sans-Serif" font-size="10.00">::normalPrecision</text>
</a>
</g>
</g>
<!-- Node1&#45;&gt;Node3 -->
<g id="edge2_Node000001_Node000003" class="edge">
<title>Node1&#45;&gt;Node3</title>
<g id="a_edge2_Node000001_Node000003"><a xlink:title=" ">
<path fill="none" stroke="#63b8ff" d="M152.86,-172.56C165.13,-176.18 177.96,-179.96 190.49,-183.66"/>
<polygon fill="#63b8ff" stroke="#63b8ff" points="189.37,-186.97 199.96,-186.45 191.35,-180.26 189.37,-186.97"/>
</a>
</g>
</g>
<!-- Node4 -->
<g id="Node000004" class="node">
<title>Node4</title>
<g id="a_Node000004"><a xlink:href="../../d6/dd5/namespaceml_1_1maths_1_1common.html#ac476b9273936034b5333b76fd6e8a7de" target="_top" xlink:title="Compute the p.d.f. at x for distribution.">
<polygon fill="white" stroke="#666666" points="336.12,-136.88 213.62,-136.88 213.62,-117.62 336.12,-117.62 336.12,-136.88"/>
<text text-anchor="middle" x="274.88" y="-123.38" font-family="Helvetica,sans-Serif" font-size="10.00">ml::maths::common::pdf</text>
</a>
</g>
</g>
<!-- Node1&#45;&gt;Node4 -->
<g id="edge4_Node000001_Node000004" class="edge">
<title>Node1&#45;&gt;Node4</title>
<g id="a_edge4_Node000001_Node000004"><a xlink:title=" ">
<path fill="none" stroke="#63b8ff" d="M159.51,-141.45C173.53,-139.71 188.07,-137.91 201.89,-136.19"/>
<polygon fill="#63b8ff" stroke="#63b8ff" points="202.31,-139.66 211.8,-134.96 201.45,-132.72 202.31,-139.66"/>
</a>
</g>
</g>
<!-- Node7 -->
<g id="Node000007" class="node">
<title>Node7</title>
<g id="a_Node000007"><a xlink:href="../../dd/d55/classml_1_1maths_1_1common_1_1_c_tools.html#a4a647fc88044a7ef18aedd86b37619f0" target="_top" xlink:title=" ">
<polygon fill="white" stroke="#666666" points="524.62,-30.5 415.62,-30.5 415.62,0 524.62,0 524.62,-30.5"/>
<text text-anchor="start" x="423.62" y="-17" font-family="Helvetica,sans-Serif" font-size="10.00">ml::maths::common::</text>
<text text-anchor="middle" x="470.12" y="-5.75" font-family="Helvetica,sans-Serif" font-size="10.00">CTools::safePdf</text>
</a>
</g>
</g>
<!-- Node1&#45;&gt;Node7 -->
<g id="edge11_Node000001_Node000007" class="edge">
<title>Node1&#45;&gt;Node7</title>
<g id="a_edge11_Node000001_Node000007"><a xlink:title=" ">
<path fill="none" stroke="#63b8ff" d="M136.55,-129.94C198.34,-106.64 300.98,-68.71 390.5,-39.25 395.49,-37.61 400.67,-35.94 405.89,-34.29"/>
<polygon fill="#63b8ff" stroke="#63b8ff" points="406.64,-37.72 415.14,-31.39 404.55,-31.04 406.64,-37.72"/>
</a>
</g>
</g>
<!-- Node3&#45;&gt;Node2 -->
<g id="edge3_Node000003_Node000002" class="edge">
<title>Node3&#45;&gt;Node2</title>
<g id="a_edge3_Node000003_Node000002"><a xlink:title=" ">
<path fill="none" stroke="#63b8ff" d="M331.25,-229.53C350.06,-236.75 371.19,-244.86 390.5,-252.25 394.53,-253.79 398.68,-255.38 402.86,-256.98"/>
<polygon fill="#63b8ff" stroke="#63b8ff" points="401.28,-260.12 411.87,-260.42 403.78,-253.58 401.28,-260.12"/>
</a>
</g>
</g>
<!-- Node5 -->
<g id="Node000005" class="node">
<title>Node5</title>
<g id="a_Node000005"><a xlink:href="../../d0/d1c/classml_1_1maths_1_1common_1_1_c_log_t_distribution.html#a128ce0a627956e7931be0358fe995d2d" target="_top" xlink:title=" ">
<polygon fill="white" stroke="#666666" points="537.75,-243.12 402.5,-243.12 402.5,-201.38 537.75,-201.38 537.75,-243.12"/>
<text text-anchor="start" x="410.5" y="-229.62" font-family="Helvetica,sans-Serif" font-size="10.00">ml::maths::common::</text>
<text text-anchor="start" x="410.5" y="-218.38" font-family="Helvetica,sans-Serif" font-size="10.00">CLogTDistribution::degrees</text>
<text text-anchor="middle" x="470.12" y="-207.12" font-family="Helvetica,sans-Serif" font-size="10.00">Freedom</text>
</a>
</g>
</g>
<!-- Node4&#45;&gt;Node5 -->
<g id="edge5_Node000004_Node000005" class="edge">
<title>Node4&#45;&gt;Node5</title>
<g id="a_edge5_Node000004_Node000005"><a xlink:title=" ">
<path fill="none" stroke="#63b8ff" d="M291.79,-137.3C313.56,-150.8 354.07,-175.09 390.5,-192.25 393.57,-193.7 396.74,-195.13 399.95,-196.54"/>
<polygon fill="#63b8ff" stroke="#63b8ff" points="398.35,-199.66 408.93,-200.35 401.09,-193.22 398.35,-199.66"/>
</a>
</g>
</g>
<!-- Node6 -->
<g id="Node000006" class="node">
<title>Node6</title>
<g id="a_Node000006"><a xlink:href="../../d0/d1c/classml_1_1maths_1_1common_1_1_c_log_t_distribution.html#a4267908e2f6c547fd21f75a77f6bee78" target="_top" xlink:title=" ">
<polygon fill="white" stroke="#666666" points="537.38,-183.5 402.88,-183.5 402.88,-153 537.38,-153 537.38,-183.5"/>
<text text-anchor="start" x="410.88" y="-170" font-family="Helvetica,sans-Serif" font-size="10.00">ml::maths::common::</text>
<text text-anchor="middle" x="470.12" y="-158.75" font-family="Helvetica,sans-Serif" font-size="10.00">CLogTDistribution::location</text>
</a>
</g>
</g>
<!-- Node4&#45;&gt;Node6 -->
<g id="edge6_Node000004_Node000006" class="edge">
<title>Node4&#45;&gt;Node6</title>
<g id="a_edge6_Node000004_Node000006"><a xlink:title=" ">
<path fill="none" stroke="#63b8ff" d="M323.15,-137.28C343.7,-141.64 368.32,-146.86 391.44,-151.77"/>
<polygon fill="#63b8ff" stroke="#63b8ff" points="390.65,-155.18 401.16,-153.83 392.1,-148.33 390.65,-155.18"/>
</a>
</g>
</g>
<!-- Node4&#45;&gt;Node7 -->
<g id="edge7_Node000004_Node000007" class="edge">
<title>Node4&#45;&gt;Node7</title>
<g id="a_edge7_Node000004_Node000007"><a xlink:title=" ">
<path fill="none" stroke="#63b8ff" d="M290.34,-117.3C306.32,-106.2 332.68,-87.51 354.5,-70.25 371.06,-57.15 372.01,-49.44 390.5,-39.25 395.1,-36.71 400.01,-34.41 405.03,-32.33"/>
<polygon fill="#63b8ff" stroke="#63b8ff" points="405.94,-35.73 414.04,-28.89 403.45,-29.19 405.94,-35.73"/>
</a>
</g>
</g>
<!-- Node8 -->
<g id="Node000008" class="node">
<title>Node8</title>
<g id="a_Node000008"><a xlink:href="../../d0/d1c/classml_1_1maths_1_1common_1_1_c_log_t_distribution.html#a8f03f27080a2f59d3da535b4b4f228ef" target="_top" xlink:title=" ">
<polygon fill="white" stroke="#666666" points="532.12,-134.5 408.12,-134.5 408.12,-104 532.12,-104 532.12,-134.5"/>
<text text-anchor="start" x="416.12" y="-121" font-family="Helvetica,sans-Serif" font-size="10.00">ml::maths::common::</text>
<text text-anchor="middle" x="470.12" y="-109.75" font-family="Helvetica,sans-Serif" font-size="10.00">CLogTDistribution::scale</text>
</a>
</g>
</g>
<!-- Node4&#45;&gt;Node8 -->
<g id="edge8_Node000004_Node000008" class="edge">
<title>Node4&#45;&gt;Node8</title>
<g id="a_edge8_Node000004_Node000008"><a xlink:title=" ">
<path fill="none" stroke="#63b8ff" d="M336.49,-124.74C355.46,-123.96 376.59,-123.08 396.31,-122.26"/>
<polygon fill="#63b8ff" stroke="#63b8ff" points="396.37,-125.77 406.22,-121.85 396.08,-118.77 396.37,-125.77"/>
</a>
</g>
</g>
<!-- Node9 -->
<g id="Node000009" class="node">
<title>Node9</title>
<g id="a_Node000009"><a xlink:href="../../d4/da6/namespaceml.html#ad281564c6956f9a94ad02cfd663d150d" target="_top" xlink:title="Scales time input to generator.">
<polygon fill="white" stroke="#666666" points="498,-67.88 442.25,-67.88 442.25,-48.62 498,-48.62 498,-67.88"/>
<text text-anchor="middle" x="470.12" y="-54.38" font-family="Helvetica,sans-Serif" font-size="10.00">ml::scale</text>
</a>
</g>
</g>
<!-- Node4&#45;&gt;Node9 -->
<g id="edge9_Node000004_Node000009" class="edge">
<title>Node4&#45;&gt;Node9</title>
<g id="a_edge9_Node000004_Node000009"><a xlink:title=" ">
<path fill="none" stroke="#63b8ff" d="M303.98,-117.22C337.61,-105.21 394.06,-85.05 431.45,-71.7"/>
<polygon fill="#63b8ff" stroke="#63b8ff" points="432.26,-75.13 440.5,-68.47 429.91,-68.54 432.26,-75.13"/>
</a>
</g>
</g>
<!-- Node9&#45;&gt;Node9 -->
<g id="edge10_Node000009_Node000009" class="edge">
<title>Node9&#45;&gt;Node9</title>
<g id="a_edge10_Node000009_Node000009"><a xlink:title=" ">
<path fill="none" stroke="#63b8ff" d="M441.83,-66.88C424.66,-75.84 434.09,-85.88 470.12,-85.88 495.46,-85.88 507.65,-80.91 506.68,-74.85"/>
<polygon fill="#63b8ff" stroke="#63b8ff" points="509.13,-72.35 499.51,-67.93 504.27,-77.39 509.13,-72.35"/>
</a>
</g>
</g>
</g>
</svg>
