<?xml version="1.0" encoding="UTF-8" standalone="no"?>
<!DOCTYPE svg PUBLIC "-//W3C//DTD SVG 1.1//EN"
 "http://www.w3.org/Graphics/SVG/1.1/DTD/svg11.dtd">
<!-- Generated by graphviz version 10.0.1 (20240210.2158)
 -->
<!-- Title: ml::core::CJsonStatePersistInserter::~CJsonStatePersistInserter Pages: 1 -->
<!--zoomable 161 -->

<svg id="main" version="1.1" xmlns="http://www.w3.org/2000/svg" xmlns:xlink="http://www.w3.org/1999/xlink" xml:space="preserve" onload="init(evt)">
<style type="text/css"><![CDATA[
.node, .edge {opacity: 0.7;}
.node.selected, .edge.selected {opacity: 1;}
.edge:hover path { stroke: red; }
.edge:hover polygon { stroke: red; fill: red; }
]]></style>

<defs>
  <circle id="rim" cx="0" cy="0" r="7"/>
  <circle id="rim2" cx="0" cy="0" r="3.5"/>
  <g id="zoomPlus">
    <use xlink:href="#rim" fill="#404040"><set attributeName="fill" to="#808080" begin="zoomplus.mouseover" end="zoomplus.mouseout"/></use>
    <path d="M-4,0h8M0,-4v8" fill="none" stroke="white" stroke-width="1.5" pointer-events="none"/>
  </g>
  <g id="zoomMin">
    <use xlink:href="#rim" fill="#404040"><set attributeName="fill" to="#808080" begin="zoomminus.mouseover" end="zoomminus.mouseout"/></use>
    <path d="M-4,0h8" fill="none" stroke="white" stroke-width="1.5" pointer-events="none"/>
  </g>
  <g id="arrowUp" transform="translate(30 24)">
    <use xlink:href="#rim"/>
    <path pointer-events="none" fill="none" stroke="white" stroke-width="1.5" d="M0,-3.0v7 M-2.5,-0.5L0,-3.0L2.5,-0.5"/>
  </g>
  <g id="arrowRight" transform="rotate(90) translate(36 -43)">
    <use xlink:href="#rim"/>
    <path pointer-events="none" fill="none" stroke="white" stroke-width="1.5" d="M0,-3.0v7 M-2.5,-0.5L0,-3.0L2.5,-0.5"/>
  </g>
  <g id="arrowDown" transform="rotate(180) translate(-30 -48)">
    <use xlink:href="#rim"/>
    <path pointer-events="none" fill="none" stroke="white" stroke-width="1.5" d="M0,-3.0v7 M-2.5,-0.5L0,-3.0L2.5,-0.5"/>
  </g>
  <g id="arrowLeft" transform="rotate(270) translate(-36 17)">
    <use xlink:href="#rim"/>
    <path pointer-events="none" fill="none" stroke="white" stroke-width="1.5" d="M0,-3.0v7 M-2.5,-0.5L0,-3.0L2.5,-0.5"/>
  </g>
  <g id="resetDef">
    <use xlink:href="#rim2" fill="#404040"><set attributeName="fill" to="#808080" begin="reset.mouseover" end="reset.mouseout"/></use>
  </g>
</defs>
<script type="application/ecmascript">
var viewWidth = 695;
var viewHeight = 161;
var sectionId = 'dynsection-3';
</script>
<script type="application/ecmascript" xlink:href="../../svg.min.js"/>
<svg id="graph" class="graph">
<g id="viewport">
<title>ml::core::CJsonStatePersistInserter::~CJsonStatePersistInserter</title>
<!-- Node1 -->
<g id="Node000001" class="node">
<title>Node1</title>
<g id="a_Node000001"><a xlink:title="Destructor flushes.">
<polygon fill="#999999" stroke="#666666" points="176.5,-79.5 0,-79.5 0,-49 176.5,-49 176.5,-79.5"/>
<text text-anchor="start" x="8" y="-66" font-family="Helvetica,sans-Serif" font-size="10.00">ml::core::CJsonStatePersist</text>
<text text-anchor="middle" x="88.25" y="-54.75" font-family="Helvetica,sans-Serif" font-size="10.00">Inserter::~CJsonStatePersistInserter</text>
</a>
</g>
</g>
<!-- Node2 -->
<g id="Node000002" class="node">
<title>Node2</title>
<g id="a_Node000002"><a xlink:href="../../d0/def/classml_1_1core_1_1_c_boost_json_line_writer.html#ab672c16b5f9ed1b44cb2d29a28c879b5" target="_top" xlink:title=" ">
<polygon fill="white" stroke="#666666" points="341.75,-79.5 212.5,-79.5 212.5,-49 341.75,-49 341.75,-79.5"/>
<text text-anchor="start" x="220.5" y="-66" font-family="Helvetica,sans-Serif" font-size="10.00">ml::core::CBoostJsonLine</text>
<text text-anchor="middle" x="277.12" y="-54.75" font-family="Helvetica,sans-Serif" font-size="10.00">Writer::onObjectEnd</text>
</a>
</g>
</g>
<!-- Node1&#45;&gt;Node2 -->
<g id="edge1_Node000001_Node000002" class="edge">
<title>Node1&#45;&gt;Node2</title>
<g id="a_edge1_Node000001_Node000002"><a xlink:title=" ">
<path fill="none" stroke="#63b8ff" d="M176.94,-64.25C184.91,-64.25 192.93,-64.25 200.77,-64.25"/>
<polygon fill="#63b8ff" stroke="#63b8ff" points="200.59,-67.75 210.59,-64.25 200.59,-60.75 200.59,-67.75"/>
</a>
</g>
</g>
<!-- Node3 -->
<g id="Node000003" class="node">
<title>Node3</title>
<g id="a_Node000003"><a xlink:href="../../de/d68/classml_1_1core_1_1_c_boost_json_writer_base.html#a5c143d822ec423894dc475bb343616a9" target="_top" xlink:title=" ">
<polygon fill="white" stroke="#666666" points="514.5,-128.5 377.75,-128.5 377.75,-98 514.5,-98 514.5,-128.5"/>
<text text-anchor="start" x="385.75" y="-115" font-family="Helvetica,sans-Serif" font-size="10.00">ml::core::CBoostJsonWriter</text>
<text text-anchor="middle" x="446.12" y="-103.75" font-family="Helvetica,sans-Serif" font-size="10.00">Base::onObjectEnd</text>
</a>
</g>
</g>
<!-- Node2&#45;&gt;Node3 -->
<g id="edge2_Node000002_Node000003" class="edge">
<title>Node2&#45;&gt;Node3</title>
<g id="a_edge2_Node000002_Node000003"><a xlink:title=" ">
<path fill="none" stroke="#63b8ff" d="M331.42,-79.89C347.01,-84.46 364.23,-89.51 380.44,-94.27"/>
<polygon fill="#63b8ff" stroke="#63b8ff" points="379.44,-97.62 390.02,-97.08 381.41,-90.91 379.44,-97.62"/>
</a>
</g>
</g>
<!-- Node6 -->
<g id="Node000006" class="node">
<title>Node6</title>
<g id="a_Node000006"><a xlink:href="../../de/d68/classml_1_1core_1_1_c_boost_json_writer_base.html#a86c7ffb5926b088e920d4b52e76ea6af" target="_top" xlink:title=" ">
<polygon fill="white" stroke="#666666" points="514.5,-79.5 377.75,-79.5 377.75,-49 514.5,-49 514.5,-79.5"/>
<text text-anchor="start" x="385.75" y="-66" font-family="Helvetica,sans-Serif" font-size="10.00">ml::core::CBoostJsonWriter</text>
<text text-anchor="middle" x="446.12" y="-54.75" font-family="Helvetica,sans-Serif" font-size="10.00">Base::put</text>
</a>
</g>
</g>
<!-- Node2&#45;&gt;Node6 -->
<g id="edge5_Node000002_Node000006" class="edge">
<title>Node2&#45;&gt;Node6</title>
<g id="a_edge5_Node000002_Node000006"><a xlink:title=" ">
<path fill="none" stroke="#63b8ff" d="M342.21,-64.25C350.03,-64.25 358.08,-64.25 366.08,-64.25"/>
<polygon fill="#63b8ff" stroke="#63b8ff" points="365.81,-67.75 375.81,-64.25 365.81,-60.75 365.81,-67.75"/>
</a>
</g>
</g>
<!-- Node7 -->
<g id="Node000007" class="node">
<title>Node7</title>
<g id="a_Node000007"><a xlink:href="../../de/d68/classml_1_1core_1_1_c_boost_json_writer_base.html#a3b00b82d137a049ffeb3042ceb62ded3" target="_top" xlink:title=" ">
<polygon fill="white" stroke="#666666" points="514.5,-30.5 377.75,-30.5 377.75,0 514.5,0 514.5,-30.5"/>
<text text-anchor="start" x="385.75" y="-17" font-family="Helvetica,sans-Serif" font-size="10.00">ml::core::CBoostJsonWriter</text>
<text text-anchor="middle" x="446.12" y="-5.75" font-family="Helvetica,sans-Serif" font-size="10.00">Base::topLevel</text>
</a>
</g>
</g>
<!-- Node2&#45;&gt;Node7 -->
<g id="edge6_Node000002_Node000007" class="edge">
<title>Node2&#45;&gt;Node7</title>
<g id="a_edge6_Node000002_Node000007"><a xlink:title=" ">
<path fill="none" stroke="#63b8ff" d="M331.42,-48.61C347.01,-44.04 364.23,-38.99 380.44,-34.23"/>
<polygon fill="#63b8ff" stroke="#63b8ff" points="381.41,-37.59 390.02,-31.42 379.44,-30.88 381.41,-37.59"/>
</a>
</g>
</g>
<!-- Node4 -->
<g id="Node000004" class="node">
<title>Node4</title>
<g id="a_Node000004"><a xlink:href="../../de/d68/classml_1_1core_1_1_c_boost_json_writer_base.html#adb061fcc70caf7532a29e853ae1a3aa5" target="_top" xlink:title=" ">
<polygon fill="white" stroke="#666666" points="687.25,-152.5 550.5,-152.5 550.5,-122 687.25,-122 687.25,-152.5"/>
<text text-anchor="start" x="558.5" y="-139" font-family="Helvetica,sans-Serif" font-size="10.00">ml::core::CBoostJsonWriter</text>
<text text-anchor="middle" x="618.88" y="-127.75" font-family="Helvetica,sans-Serif" font-size="10.00">Base::append</text>
</a>
</g>
</g>
<!-- Node3&#45;&gt;Node4 -->
<g id="edge3_Node000003_Node000004" class="edge">
<title>Node3&#45;&gt;Node4</title>
<g id="a_edge3_Node000003_Node000004"><a xlink:title=" ">
<path fill="none" stroke="#63b8ff" d="M514.61,-122.74C522.53,-123.85 530.66,-124.99 538.73,-126.13"/>
<polygon fill="#63b8ff" stroke="#63b8ff" points="538.15,-129.58 548.54,-127.5 539.13,-122.65 538.15,-129.58"/>
</a>
</g>
</g>
<!-- Node5 -->
<g id="Node000005" class="node">
<title>Node5</title>
<g id="a_Node000005"><a xlink:href="../../de/d68/classml_1_1core_1_1_c_boost_json_writer_base.html#a9a5d865616f6cc71fc27a44990038359" target="_top" xlink:title=" ">
<polygon fill="white" stroke="#666666" points="687.25,-103.5 550.5,-103.5 550.5,-73 687.25,-73 687.25,-103.5"/>
<text text-anchor="start" x="558.5" y="-90" font-family="Helvetica,sans-Serif" font-size="10.00">ml::core::CBoostJsonWriter</text>
<text text-anchor="middle" x="618.88" y="-78.75" font-family="Helvetica,sans-Serif" font-size="10.00">Base::checkPrerequisites</text>
</a>
</g>
</g>
<!-- Node3&#45;&gt;Node5 -->
<g id="edge4_Node000003_Node000005" class="edge">
<title>Node3&#45;&gt;Node5</title>
<g id="a_edge4_Node000003_Node000005"><a xlink:title=" ">
<path fill="none" stroke="#63b8ff" d="M514.61,-103.37C522.53,-102.21 530.66,-101.02 538.73,-99.84"/>
<polygon fill="#63b8ff" stroke="#63b8ff" points="539.16,-103.31 548.54,-98.4 538.14,-96.39 539.16,-103.31"/>
</a>
</g>
</g>
<!-- Node8 -->
<g id="Node000008" class="node">
<title>Node8</title>
<g id="a_Node000008"><a xlink:href="../../de/d68/classml_1_1core_1_1_c_boost_json_writer_base.html#aa6cd752efab09073962c43c2bd3a8317" target="_top" xlink:title=" ">
<polygon fill="white" stroke="#666666" points="687.25,-30.5 550.5,-30.5 550.5,0 687.25,0 687.25,-30.5"/>
<text text-anchor="start" x="558.5" y="-17" font-family="Helvetica,sans-Serif" font-size="10.00">ml::core::CBoostJsonWriter</text>
<text text-anchor="middle" x="618.88" y="-5.75" font-family="Helvetica,sans-Serif" font-size="10.00">Base::isComplete</text>
</a>
</g>
</g>
<!-- Node7&#45;&gt;Node8 -->
<g id="edge7_Node000007_Node000008" class="edge">
<title>Node7&#45;&gt;Node8</title>
<g id="a_edge7_Node000007_Node000008"><a xlink:title=" ">
<path fill="none" stroke="#63b8ff" d="M514.61,-15.25C522.53,-15.25 530.66,-15.25 538.73,-15.25"/>
<polygon fill="#63b8ff" stroke="#63b8ff" points="538.53,-18.75 548.53,-15.25 538.53,-11.75 538.53,-18.75"/>
</a>
</g>
</g>
</g>
</svg>

<g id="navigator" transform="translate(0 0)" fill="#404254">
  <rect fill="#f2f5e9" fill-opacity="0.5" stroke="#606060" stroke-width=".5" x="0" y="0" width="60" height="60"/>
  <use id="zoomplus" xlink:href="#zoomPlus" x="17" y="9" onmousedown="handleZoom(evt,'in')"/>
  <use id="zoomminus" xlink:href="#zoomMin" x="42" y="9" onmousedown="handleZoom(evt,'out')"/>
  <use id="reset" xlink:href="#resetDef" x="30" y="36" onmousedown="handleReset()"/>
   <use id="arrowup" xlink:href="#arrowUp" x="0" y="0" onmousedown="handlePan(0,-1)"/>
  <use id="arrowright" xlink:href="#arrowRight" x="0" y="0" onmousedown="handlePan(1,0)"/>
  <use id="arrowdown" xlink:href="#arrowDown" x="0" y="0" onmousedown="handlePan(0,1)"/>
  <use id="arrowleft" xlink:href="#arrowLeft" x="0" y="0" onmousedown="handlePan(-1,0)"/>
</g>
<svg viewBox="0 0 15 15" width="100%" height="30px" preserveAspectRatio="xMaxYMin meet">
 <g id="arrow_out" transform="scale(0.3 0.3)">
  <a xlink:href="classml_1_1core_1_1_c_json_state_persist_inserter_af63ff45154cdf7d27a5724d44e918af9_cgraph_org.svg" target="_base">
   <rect id="button" ry="5" rx="5" y="6" x="6" height="38" width="38"
        fill="#f2f5e9" fill-opacity="0.5" stroke="#606060" stroke-width="1.0"/>
   <path id="arrow"
     d="M 11.500037,31.436501 C 11.940474,20.09759 22.043105,11.32322 32.158766,21.979434 L 37.068811,17.246167 C 37.068811,17.246167 37.088388,32 37.088388,32 L 22.160133,31.978069 C 22.160133,31.978069 26.997745,27.140456 26.997745,27.140456 C 18.528582,18.264221 13.291696,25.230495 11.500037,31.436501 z"
     style="fill:#404040;"/>
  </a>
 </g>
</svg>

<style type='text/css'>
<![CDATA[
[data-mouse-over-selected='false'] { opacity: 0.7; }
[data-mouse-over-selected='true']  { opacity: 1.0; }
]]>
</style>
<script type="application/ecmascript"><![CDATA[
document.addEventListener('DOMContentLoaded', (event) => {
  highlightEdges();
  highlightAdjacentNodes();
});
]]></script>
</svg>
