<?xml version="1.0" encoding="UTF-8" standalone="no"?>
<!DOCTYPE svg PUBLIC "-//W3C//DTD SVG 1.1//EN"
 "http://www.w3.org/Graphics/SVG/1.1/DTD/svg11.dtd">
<!-- Generated by graphviz version 10.0.1 (20240210.2158)
 -->
<!-- Title: ml::api::CAnomalyJobConfig::initFromFile Pages: 1 -->
<!--zoomable 524 -->

<svg id="main" version="1.1" xmlns="http://www.w3.org/2000/svg" xmlns:xlink="http://www.w3.org/1999/xlink" xml:space="preserve" onload="init(evt)">
<style type="text/css"><![CDATA[
.node, .edge {opacity: 0.7;}
.node.selected, .edge.selected {opacity: 1;}
.edge:hover path { stroke: red; }
.edge:hover polygon { stroke: red; fill: red; }
]]></style>

<defs>
  <circle id="rim" cx="0" cy="0" r="7"/>
  <circle id="rim2" cx="0" cy="0" r="3.5"/>
  <g id="zoomPlus">
    <use xlink:href="#rim" fill="#404040"><set attributeName="fill" to="#808080" begin="zoomplus.mouseover" end="zoomplus.mouseout"/></use>
    <path d="M-4,0h8M0,-4v8" fill="none" stroke="white" stroke-width="1.5" pointer-events="none"/>
  </g>
  <g id="zoomMin">
    <use xlink:href="#rim" fill="#404040"><set attributeName="fill" to="#808080" begin="zoomminus.mouseover" end="zoomminus.mouseout"/></use>
    <path d="M-4,0h8" fill="none" stroke="white" stroke-width="1.5" pointer-events="none"/>
  </g>
  <g id="arrowUp" transform="translate(30 24)">
    <use xlink:href="#rim"/>
    <path pointer-events="none" fill="none" stroke="white" stroke-width="1.5" d="M0,-3.0v7 M-2.5,-0.5L0,-3.0L2.5,-0.5"/>
  </g>
  <g id="arrowRight" transform="rotate(90) translate(36 -43)">
    <use xlink:href="#rim"/>
    <path pointer-events="none" fill="none" stroke="white" stroke-width="1.5" d="M0,-3.0v7 M-2.5,-0.5L0,-3.0L2.5,-0.5"/>
  </g>
  <g id="arrowDown" transform="rotate(180) translate(-30 -48)">
    <use xlink:href="#rim"/>
    <path pointer-events="none" fill="none" stroke="white" stroke-width="1.5" d="M0,-3.0v7 M-2.5,-0.5L0,-3.0L2.5,-0.5"/>
  </g>
  <g id="arrowLeft" transform="rotate(270) translate(-36 17)">
    <use xlink:href="#rim"/>
    <path pointer-events="none" fill="none" stroke="white" stroke-width="1.5" d="M0,-3.0v7 M-2.5,-0.5L0,-3.0L2.5,-0.5"/>
  </g>
  <g id="resetDef">
    <use xlink:href="#rim2" fill="#404040"><set attributeName="fill" to="#808080" begin="reset.mouseover" end="reset.mouseout"/></use>
  </g>
</defs>
<script type="application/ecmascript">
var viewWidth = 1449;
var viewHeight = 524;
var sectionId = 'dynsection-4';
</script>
<script type="application/ecmascript" xlink:href="../../svg.min.js"/>
<svg id="graph" class="graph">
<g id="viewport">
<title>ml::api::CAnomalyJobConfig::initFromFile</title>
<!-- Node1 -->
<g id="Node000001" class="node">
<title>Node1</title>
<g id="a_Node000001"><a xlink:title=" ">
<polygon fill="#999999" stroke="#666666" points="141.25,-251.5 0,-251.5 0,-221 141.25,-221 141.25,-251.5"/>
<text text-anchor="start" x="8" y="-238" font-family="Helvetica,sans-Serif" font-size="10.00">ml::api::CAnomalyJobConfig</text>
<text text-anchor="middle" x="70.62" y="-226.75" font-family="Helvetica,sans-Serif" font-size="10.00">::initFromFile</text>
</a>
</g>
</g>
<!-- Node2 -->
<g id="Node000002" class="node">
<title>Node2</title>
<g id="a_Node000002"><a xlink:href="../../db/dde/classml_1_1api_1_1_c_anomaly_job_config.html#aaf3d171ce78f9a20a3e1b75a35286c21" target="_top" xlink:title=" ">
<polygon fill="white" stroke="#666666" points="318.5,-276.5 177.25,-276.5 177.25,-246 318.5,-246 318.5,-276.5"/>
<text text-anchor="start" x="185.25" y="-263" font-family="Helvetica,sans-Serif" font-size="10.00">ml::api::CAnomalyJobConfig</text>
<text text-anchor="middle" x="247.88" y="-251.75" font-family="Helvetica,sans-Serif" font-size="10.00">::parse</text>
</a>
</g>
</g>
<!-- Node1&#45;&gt;Node2 -->
<g id="edge1_Node000001_Node000002" class="edge">
<title>Node1&#45;&gt;Node2</title>
<g id="a_edge1_Node000001_Node000002"><a xlink:title=" ">
<path fill="none" stroke="#63b8ff" d="M141.64,-246.24C149.55,-247.37 157.65,-248.52 165.69,-249.67"/>
<polygon fill="#63b8ff" stroke="#63b8ff" points="165.07,-253.12 175.47,-251.06 166.06,-246.19 165.07,-253.12"/>
</a>
</g>
</g>
<!-- Node25 -->
<g id="Node000025" class="node">
<title>Node25</title>
<g id="a_Node000025"><a xlink:href="../../d1/dfa/classml_1_1core_1_1_c_string_utils.html#a2914f08c567425464f7119fe5ab2e611" target="_top" xlink:title=" ">
<polygon fill="white" stroke="#666666" points="303.12,-227.5 192.62,-227.5 192.62,-197 303.12,-197 303.12,-227.5"/>
<text text-anchor="start" x="200.62" y="-214" font-family="Helvetica,sans-Serif" font-size="10.00">ml::core::CStringUtils</text>
<text text-anchor="middle" x="247.88" y="-202.75" font-family="Helvetica,sans-Serif" font-size="10.00">::readFileToString</text>
</a>
</g>
</g>
<!-- Node1&#45;&gt;Node25 -->
<g id="edge35_Node000001_Node000025" class="edge">
<title>Node1&#45;&gt;Node25</title>
<g id="a_edge35_Node000001_Node000025"><a xlink:title=" ">
<path fill="none" stroke="#63b8ff" d="M141.64,-226.66C154.7,-224.87 168.29,-223.01 181.21,-221.24"/>
<polygon fill="#63b8ff" stroke="#63b8ff" points="181.42,-224.75 190.85,-219.92 180.47,-217.81 181.42,-224.75"/>
</a>
</g>
</g>
<!-- Node3 -->
<g id="Node000003" class="node">
<title>Node3</title>
<g id="a_Node000003"><a xlink:href="../../db/dde/classml_1_1api_1_1_c_anomaly_job_config.html#aa567d53eb9b2ecd445679c1ca52029fa" target="_top" xlink:title=" ">
<polygon fill="white" stroke="#666666" points="702.25,-507.5 561,-507.5 561,-477 702.25,-477 702.25,-507.5"/>
<text text-anchor="start" x="569" y="-494" font-family="Helvetica,sans-Serif" font-size="10.00">ml::api::CAnomalyJobConfig</text>
<text text-anchor="middle" x="631.62" y="-482.75" font-family="Helvetica,sans-Serif" font-size="10.00">::analysisConfig</text>
</a>
</g>
</g>
<!-- Node2&#45;&gt;Node3 -->
<g id="edge2_Node000002_Node000003" class="edge">
<title>Node2&#45;&gt;Node3</title>
<g id="a_edge2_Node000002_Node000003"><a xlink:title=" ">
<path fill="none" stroke="#63b8ff" d="M250.83,-276.91C257.03,-319.02 280.4,-434.74 354.5,-483.25 413.31,-521.75 495.28,-519.12 554.62,-509.83"/>
<polygon fill="#63b8ff" stroke="#63b8ff" points="555.02,-513.31 564.31,-508.21 553.87,-506.41 555.02,-513.31"/>
</a>
</g>
</g>
<!-- Node4 -->
<g id="Node000004" class="node">
<title>Node4</title>
<g id="a_Node000004"><a xlink:href="../../db/dde/classml_1_1api_1_1_c_anomaly_job_config.html#a8f07f7d6547db418e4dc0e29ed934749" target="_top" xlink:title=" ">
<polygon fill="white" stroke="#666666" points="702.25,-252.5 561,-252.5 561,-222 702.25,-222 702.25,-252.5"/>
<text text-anchor="start" x="569" y="-239" font-family="Helvetica,sans-Serif" font-size="10.00">ml::api::CAnomalyJobConfig</text>
<text text-anchor="middle" x="631.62" y="-227.75" font-family="Helvetica,sans-Serif" font-size="10.00">::analysisLimits</text>
</a>
</g>
</g>
<!-- Node2&#45;&gt;Node4 -->
<g id="edge3_Node000002_Node000004" class="edge">
<title>Node2&#45;&gt;Node4</title>
<g id="a_edge3_Node000002_Node000004"><a xlink:title=" ">
<path fill="none" stroke="#63b8ff" d="M297.03,-245.56C304.33,-242.72 311.7,-239.59 318.5,-236.25 335.54,-227.88 336.28,-218.57 354.5,-213.25 425.41,-192.53 510.57,-205.29 567.39,-218.83"/>
<polygon fill="#63b8ff" stroke="#63b8ff" points="566.35,-222.18 576.89,-221.18 568.02,-215.38 566.35,-222.18"/>
</a>
</g>
</g>
<!-- Node5 -->
<g id="Node000005" class="node">
<title>Node5</title>
<g id="a_Node000005"><a xlink:href="../../d9/da7/classml_1_1api_1_1_c_anomaly_job_config_1_1_c_analysis_config.html#a310ee8a540a6e8466db2b6c07da2abda" target="_top" xlink:title=" ">
<polygon fill="white" stroke="#666666" points="718.75,-440.5 544.5,-440.5 544.5,-410 718.75,-410 718.75,-440.5"/>
<text text-anchor="start" x="552.5" y="-427" font-family="Helvetica,sans-Serif" font-size="10.00">ml::api::CAnomalyJobConfig</text>
<text text-anchor="middle" x="631.62" y="-415.75" font-family="Helvetica,sans-Serif" font-size="10.00">::CAnalysisConfig::durationSeconds</text>
</a>
</g>
</g>
<!-- Node2&#45;&gt;Node5 -->
<g id="edge4_Node000002_Node000005" class="edge">
<title>Node2&#45;&gt;Node5</title>
<g id="a_edge4_Node000002_Node000005"><a xlink:title=" ">
<path fill="none" stroke="#63b8ff" d="M257.64,-276.68C273.37,-302.77 309,-355.21 354.5,-380.25 408.84,-410.16 477.67,-421.43 533.02,-425.21"/>
<polygon fill="#63b8ff" stroke="#63b8ff" points="532.56,-428.69 542.75,-425.8 532.98,-421.7 532.56,-428.69"/>
</a>
</g>
</g>
<!-- Node13 -->
<g id="Node000013" class="node">
<title>Node13</title>
<g id="a_Node000013"><a xlink:href="../../db/dde/classml_1_1api_1_1_c_anomaly_job_config.html#a07903a5cdb9deb3698de63e807850535" target="_top" xlink:title=" ">
<polygon fill="white" stroke="#666666" points="496.88,-128.5 355.62,-128.5 355.62,-98 496.88,-98 496.88,-128.5"/>
<text text-anchor="start" x="363.62" y="-115" font-family="Helvetica,sans-Serif" font-size="10.00">ml::api::CAnomalyJobConfig</text>
<text text-anchor="middle" x="426.25" y="-103.75" font-family="Helvetica,sans-Serif" font-size="10.00">::intervalStagger</text>
</a>
</g>
</g>
<!-- Node2&#45;&gt;Node13 -->
<g id="edge14_Node000002_Node000013" class="edge">
<title>Node2&#45;&gt;Node13</title>
<g id="a_edge14_Node000002_Node000013"><a xlink:title=" ">
<path fill="none" stroke="#63b8ff" d="M306.09,-245.57C310.61,-242.93 314.83,-239.84 318.5,-236.25 350.46,-204.95 323.24,-174.25 354.5,-142.25 357.1,-139.59 359.97,-137.17 363.04,-134.96"/>
<polygon fill="#63b8ff" stroke="#63b8ff" points="364.76,-138.01 371.4,-129.76 361.06,-132.06 364.76,-138.01"/>
</a>
</g>
</g>
<!-- Node14 -->
<g id="Node000014" class="node">
<title>Node14</title>
<g id="a_Node000014"><a xlink:href="../../db/dde/classml_1_1api_1_1_c_anomaly_job_config.html#a831d4d68e3a918a165ef504ecebeadde" target="_top" xlink:title=" ">
<polygon fill="white" stroke="#666666" points="702.25,-187.5 561,-187.5 561,-157 702.25,-157 702.25,-187.5"/>
<text text-anchor="start" x="569" y="-174" font-family="Helvetica,sans-Serif" font-size="10.00">ml::api::CAnomalyJobConfig</text>
<text text-anchor="middle" x="631.62" y="-162.75" font-family="Helvetica,sans-Serif" font-size="10.00">::modelPlotConfig</text>
</a>
</g>
</g>
<!-- Node2&#45;&gt;Node14 -->
<g id="edge15_Node000002_Node000014" class="edge">
<title>Node2&#45;&gt;Node14</title>
<g id="a_edge15_Node000002_Node000014"><a xlink:title=" ">
<path fill="none" stroke="#63b8ff" d="M300.72,-245.65C306.92,-242.92 312.99,-239.8 318.5,-236.25 337.79,-223.83 333.82,-209.19 354.5,-199.25 415.34,-169.99 492.33,-164.68 549.54,-165.86"/>
<polygon fill="#63b8ff" stroke="#63b8ff" points="549.11,-169.35 559.2,-166.13 549.31,-162.35 549.11,-169.35"/>
</a>
</g>
</g>
<!-- Node15 -->
<g id="Node000015" class="node">
<title>Node15</title>
<g id="a_Node000015"><a xlink:href="../../d9/da7/classml_1_1api_1_1_c_anomaly_job_config_1_1_c_analysis_config.html#a43a8046f720be1fddb409adc60e4bb82" target="_top" xlink:title="Parse a JSON value representing an entire analysis config object.">
<polygon fill="white" stroke="#666666" points="496.88,-474.5 355.62,-474.5 355.62,-444 496.88,-444 496.88,-474.5"/>
<text text-anchor="start" x="363.62" y="-461" font-family="Helvetica,sans-Serif" font-size="10.00">ml::api::CAnomalyJobConfig</text>
<text text-anchor="middle" x="426.25" y="-449.75" font-family="Helvetica,sans-Serif" font-size="10.00">::CAnalysisConfig::parse</text>
</a>
</g>
</g>
<!-- Node2&#45;&gt;Node15 -->
<g id="edge16_Node000002_Node000015" class="edge">
<title>Node2&#45;&gt;Node15</title>
<g id="a_edge16_Node000002_Node000015"><a xlink:title=" ">
<path fill="none" stroke="#63b8ff" d="M254.62,-276.54C267.58,-309.14 302.13,-386.09 354.5,-430.25 357.94,-433.15 361.71,-435.79 365.66,-438.19"/>
<polygon fill="#63b8ff" stroke="#63b8ff" points="363.99,-441.27 374.45,-442.95 367.32,-435.11 363.99,-441.27"/>
</a>
</g>
</g>
<!-- Node16 -->
<g id="Node000016" class="node">
<title>Node16</title>
<g id="a_Node000016"><a xlink:href="../../d3/d01/classml_1_1api_1_1_c_anomaly_job_config_reader.html#ae1c4da32a4b4ceacd257d508a1d60f42" target="_top" xlink:title="Extract the parameters from a JSON object.">
<polygon fill="white" stroke="#666666" points="702.25,-350.5 561,-350.5 561,-320 702.25,-320 702.25,-350.5"/>
<text text-anchor="start" x="569" y="-337" font-family="Helvetica,sans-Serif" font-size="10.00">ml::api::CAnomalyJobConfig</text>
<text text-anchor="middle" x="631.62" y="-325.75" font-family="Helvetica,sans-Serif" font-size="10.00">Reader::read</text>
</a>
</g>
</g>
<!-- Node2&#45;&gt;Node16 -->
<g id="edge33_Node000002_Node000016" class="edge">
<title>Node2&#45;&gt;Node16</title>
<g id="a_edge33_Node000002_Node000016"><a xlink:title=" ">
<path fill="none" stroke="#63b8ff" d="M259.63,-276.91C276.61,-300.1 312.12,-342.62 354.5,-359.25 426.94,-387.68 518.05,-370.61 575.33,-354.19"/>
<polygon fill="#63b8ff" stroke="#63b8ff" points="576.28,-357.56 584.87,-351.35 574.29,-350.84 576.28,-357.56"/>
</a>
</g>
</g>
<!-- Node19 -->
<g id="Node000019" class="node">
<title>Node19</title>
<g id="a_Node000019"><a xlink:href="../../d0/d19/classml_1_1api_1_1_c_anomaly_job_config_1_1_c_analysis_limits.html#a5929e7126e7f2caec8e7ed6cebf20eb8" target="_top" xlink:title=" ">
<polygon fill="white" stroke="#666666" points="496.88,-301.5 355.62,-301.5 355.62,-271 496.88,-271 496.88,-301.5"/>
<text text-anchor="start" x="363.62" y="-288" font-family="Helvetica,sans-Serif" font-size="10.00">ml::api::CAnomalyJobConfig</text>
<text text-anchor="middle" x="426.25" y="-276.75" font-family="Helvetica,sans-Serif" font-size="10.00">::CAnalysisLimits::parse</text>
</a>
</g>
</g>
<!-- Node2&#45;&gt;Node19 -->
<g id="edge22_Node000002_Node000019" class="edge">
<title>Node2&#45;&gt;Node19</title>
<g id="a_edge22_Node000002_Node000019"><a xlink:title=" ">
<path fill="none" stroke="#63b8ff" d="M318.84,-271.17C327.1,-272.34 335.59,-273.54 343.99,-274.73"/>
<polygon fill="#63b8ff" stroke="#63b8ff" points="343.48,-278.19 353.87,-276.13 344.46,-271.26 343.48,-278.19"/>
</a>
</g>
</g>
<!-- Node21 -->
<g id="Node000021" class="node">
<title>Node21</title>
<g id="a_Node000021"><a xlink:href="../../d2/d30/classml_1_1api_1_1_c_anomaly_job_config_1_1_c_data_description.html#a2b65c7f0d73bb46292f4ce0e7221e113" target="_top" xlink:title=" ">
<polygon fill="white" stroke="#666666" points="496.88,-350.5 355.62,-350.5 355.62,-320 496.88,-320 496.88,-350.5"/>
<text text-anchor="start" x="363.62" y="-337" font-family="Helvetica,sans-Serif" font-size="10.00">ml::api::CAnomalyJobConfig</text>
<text text-anchor="middle" x="426.25" y="-325.75" font-family="Helvetica,sans-Serif" font-size="10.00">::CDataDescription::parse</text>
</a>
</g>
</g>
<!-- Node2&#45;&gt;Node21 -->
<g id="edge26_Node000002_Node000021" class="edge">
<title>Node2&#45;&gt;Node21</title>
<g id="a_edge26_Node000002_Node000021"><a xlink:title=" ">
<path fill="none" stroke="#63b8ff" d="M280.42,-276.84C301.24,-286.89 329.23,-299.95 354.5,-310.25 359.03,-312.1 363.76,-313.94 368.53,-315.74"/>
<polygon fill="#63b8ff" stroke="#63b8ff" points="366.95,-318.89 377.54,-319.08 369.38,-312.33 366.95,-318.89"/>
</a>
</g>
</g>
<!-- Node22 -->
<g id="Node000022" class="node">
<title>Node22</title>
<g id="a_Node000022"><a xlink:href="../../dc/dd7/classml_1_1api_1_1_c_anomaly_job_config_1_1_c_model_plot_config.html#adf27a9d0066558d3d2c7bb580456d155" target="_top" xlink:title=" ">
<polygon fill="white" stroke="#666666" points="496.88,-252.5 355.62,-252.5 355.62,-222 496.88,-222 496.88,-252.5"/>
<text text-anchor="start" x="363.62" y="-239" font-family="Helvetica,sans-Serif" font-size="10.00">ml::api::CAnomalyJobConfig</text>
<text text-anchor="middle" x="426.25" y="-227.75" font-family="Helvetica,sans-Serif" font-size="10.00">::CModelPlotConfig::parse</text>
</a>
</g>
</g>
<!-- Node2&#45;&gt;Node22 -->
<g id="edge29_Node000002_Node000022" class="edge">
<title>Node2&#45;&gt;Node22</title>
<g id="a_edge29_Node000002_Node000022"><a xlink:title=" ">
<path fill="none" stroke="#63b8ff" d="M318.84,-251.73C327.1,-250.61 335.59,-249.45 343.99,-248.31"/>
<polygon fill="#63b8ff" stroke="#63b8ff" points="344.44,-251.78 353.87,-246.96 343.49,-244.84 344.44,-251.78"/>
</a>
</g>
</g>
<!-- Node23 -->
<g id="Node000023" class="node">
<title>Node23</title>
<g id="a_Node000023"><a xlink:href="../../d5/d07/classml_1_1core_1_1_c_boost_json_parser.html#af72dcb0c0282a3644f340eeea38caa8c" target="_top" xlink:title=" ">
<polygon fill="white" stroke="#666666" points="496.12,-79.5 356.38,-79.5 356.38,-49 496.12,-49 496.12,-79.5"/>
<text text-anchor="start" x="364.38" y="-66" font-family="Helvetica,sans-Serif" font-size="10.00">ml::core::CBoostJsonParser</text>
<text text-anchor="middle" x="426.25" y="-54.75" font-family="Helvetica,sans-Serif" font-size="10.00">::parse</text>
</a>
</g>
</g>
<!-- Node2&#45;&gt;Node23 -->
<g id="edge32_Node000002_Node000023" class="edge">
<title>Node2&#45;&gt;Node23</title>
<g id="a_edge32_Node000002_Node000023"><a xlink:title=" ">
<path fill="none" stroke="#63b8ff" d="M307.25,-245.63C311.4,-242.98 315.23,-239.88 318.5,-236.25 363.51,-186.27 309.36,-139.12 354.5,-89.25 355.21,-88.47 355.94,-87.71 356.7,-86.98"/>
<polygon fill="#63b8ff" stroke="#63b8ff" points="358.71,-89.85 364.42,-80.92 354.39,-84.34 358.71,-89.85"/>
</a>
</g>
</g>
<!-- Node24 -->
<g id="Node000024" class="node">
<title>Node24</title>
<g id="a_Node000024"><a xlink:href="../../d9/da7/classml_1_1api_1_1_c_anomaly_job_config_1_1_c_analysis_config.html#adbefdba652bb4ca7efa998947f7e955f" target="_top" xlink:title=" ">
<polygon fill="white" stroke="#666666" points="498,-30.5 354.5,-30.5 354.5,0 498,0 498,-30.5"/>
<text text-anchor="start" x="362.5" y="-17" font-family="Helvetica,sans-Serif" font-size="10.00">ml::api::CAnomalyJobConfig</text>
<text text-anchor="middle" x="426.25" y="-5.75" font-family="Helvetica,sans-Serif" font-size="10.00">::CAnalysisConfig::setConfig</text>
</a>
</g>
</g>
<!-- Node2&#45;&gt;Node24 -->
<g id="edge34_Node000002_Node000024" class="edge">
<title>Node2&#45;&gt;Node24</title>
<g id="a_edge34_Node000002_Node000024"><a xlink:title=" ">
<path fill="none" stroke="#63b8ff" d="M307.81,-245.62C311.78,-242.97 315.42,-239.87 318.5,-236.25 375.82,-168.73 297.01,-107.62 354.5,-40.25 355.18,-39.45 355.9,-38.67 356.63,-37.92"/>
<polygon fill="#63b8ff" stroke="#63b8ff" points="358.67,-40.78 364.2,-31.74 354.24,-35.35 358.67,-40.78"/>
</a>
</g>
</g>
<!-- Node6 -->
<g id="Node000006" class="node">
<title>Node6</title>
<g id="a_Node000006"><a xlink:href="../../dd/df4/classml_1_1core_1_1_c_time_utils.html#af5dc9b5d3ef8f09dd2808fce728eaa08" target="_top" xlink:title=" ">
<polygon fill="white" stroke="#666666" points="933.5,-440.5 781.75,-440.5 781.75,-410 933.5,-410 933.5,-440.5"/>
<text text-anchor="start" x="789.75" y="-427" font-family="Helvetica,sans-Serif" font-size="10.00">ml::core::CTimeUtils</text>
<text text-anchor="middle" x="857.62" y="-415.75" font-family="Helvetica,sans-Serif" font-size="10.00">::timeDurationStringToSeconds</text>
</a>
</g>
</g>
<!-- Node5&#45;&gt;Node6 -->
<g id="edge5_Node000005_Node000006" class="edge">
<title>Node5&#45;&gt;Node6</title>
<g id="a_edge5_Node000005_Node000006"><a xlink:title=" ">
<path fill="none" stroke="#63b8ff" d="M719.23,-425.25C735.93,-425.25 753.43,-425.25 770.14,-425.25"/>
<polygon fill="#63b8ff" stroke="#63b8ff" points="770.04,-428.75 780.04,-425.25 770.04,-421.75 770.04,-428.75"/>
</a>
</g>
</g>
<!-- Node7 -->
<g id="Node000007" class="node">
<title>Node7</title>
<g id="a_Node000007"><a xlink:href="../../dd/dea/classml_1_1core_1_1_c_regex.html#a01594c0e7e71f5bc359129dbfda8c6b8" target="_top" xlink:title=" ">
<polygon fill="white" stroke="#666666" points="1110,-498.88 998,-498.88 998,-479.62 1110,-479.62 1110,-498.88"/>
<text text-anchor="middle" x="1054" y="-485.38" font-family="Helvetica,sans-Serif" font-size="10.00">ml::core::CRegex::init</text>
</a>
</g>
</g>
<!-- Node6&#45;&gt;Node7 -->
<g id="edge6_Node000006_Node000007" class="edge">
<title>Node6&#45;&gt;Node7</title>
<g id="a_edge6_Node000006_Node000007"><a xlink:title=" ">
<path fill="none" stroke="#63b8ff" d="M900.86,-440.93C925.55,-449.9 957.39,-461.15 986,-470.25 992.2,-472.22 998.75,-474.2 1005.24,-476.11"/>
<polygon fill="#63b8ff" stroke="#63b8ff" points="1003.98,-479.39 1014.56,-478.79 1005.92,-472.66 1003.98,-479.39"/>
</a>
</g>
</g>
<!-- Node8 -->
<g id="Node000008" class="node">
<title>Node8</title>
<g id="a_Node000008"><a xlink:href="../../d1/dfa/classml_1_1core_1_1_c_string_utils.html#a932b52350cb193f474a02ee4758edc22" target="_top" xlink:title="Convert a string to a type.">
<polygon fill="white" stroke="#666666" points="1109.25,-461.5 998.75,-461.5 998.75,-431 1109.25,-431 1109.25,-461.5"/>
<text text-anchor="start" x="1006.75" y="-448" font-family="Helvetica,sans-Serif" font-size="10.00">ml::core::CStringUtils</text>
<text text-anchor="middle" x="1054" y="-436.75" font-family="Helvetica,sans-Serif" font-size="10.00">::stringToType</text>
</a>
</g>
</g>
<!-- Node6&#45;&gt;Node8 -->
<g id="edge7_Node000006_Node000008" class="edge">
<title>Node6&#45;&gt;Node8</title>
<g id="a_edge7_Node000006_Node000008"><a xlink:title=" ">
<path fill="none" stroke="#63b8ff" d="M933.78,-433.37C951.48,-435.28 970.21,-437.31 987.45,-439.17"/>
<polygon fill="#63b8ff" stroke="#63b8ff" points="986.72,-442.61 997.03,-440.2 987.47,-435.65 986.72,-442.61"/>
</a>
</g>
</g>
<!-- Node9 -->
<g id="Node000009" class="node">
<title>Node9</title>
<g id="a_Node000009"><a xlink:href="../../dd/dea/classml_1_1core_1_1_c_regex.html#accf2085b2c74e7d8b0c771c5677f50c5" target="_top" xlink:title=" ">
<polygon fill="white" stroke="#666666" points="1122,-412.88 986,-412.88 986,-393.62 1122,-393.62 1122,-412.88"/>
<text text-anchor="middle" x="1054" y="-399.38" font-family="Helvetica,sans-Serif" font-size="10.00">ml::core::CRegex::tokenise</text>
</a>
</g>
</g>
<!-- Node6&#45;&gt;Node9 -->
<g id="edge8_Node000006_Node000009" class="edge">
<title>Node6&#45;&gt;Node9</title>
<g id="a_edge8_Node000006_Node000009"><a xlink:title=" ">
<path fill="none" stroke="#63b8ff" d="M933.78,-416.74C947.13,-415.23 961.07,-413.66 974.51,-412.13"/>
<polygon fill="#63b8ff" stroke="#63b8ff" points="974.62,-415.64 984.16,-411.04 973.83,-408.69 974.62,-415.64"/>
</a>
</g>
</g>
<!-- Node12 -->
<g id="Node000012" class="node">
<title>Node12</title>
<g id="a_Node000012"><a xlink:href="../../d1/dfa/classml_1_1core_1_1_c_string_utils.html#afe172d321b5ba2b6c5e67144455b86b2" target="_top" xlink:title="Convert a string to lower case.">
<polygon fill="white" stroke="#666666" points="1109.25,-375.5 998.75,-375.5 998.75,-345 1109.25,-345 1109.25,-375.5"/>
<text text-anchor="start" x="1006.75" y="-362" font-family="Helvetica,sans-Serif" font-size="10.00">ml::core::CStringUtils</text>
<text text-anchor="middle" x="1054" y="-350.75" font-family="Helvetica,sans-Serif" font-size="10.00">::toLower</text>
</a>
</g>
</g>
<!-- Node6&#45;&gt;Node12 -->
<g id="edge13_Node000006_Node000012" class="edge">
<title>Node6&#45;&gt;Node12</title>
<g id="a_edge13_Node000006_Node000012"><a xlink:title=" ">
<path fill="none" stroke="#63b8ff" d="M905.68,-409.52C932.68,-400.49 966.78,-389.08 995.38,-379.52"/>
<polygon fill="#63b8ff" stroke="#63b8ff" points="996.23,-382.92 1004.61,-376.43 994.01,-376.28 996.23,-382.92"/>
</a>
</g>
</g>
<!-- Node10 -->
<g id="Node000010" class="node">
<title>Node10</title>
<g id="a_Node000010"><a xlink:href="../../dd/dea/classml_1_1core_1_1_c_regex.html#a7e4833803d42770d9effe93c1cc1c368" target="_top" xlink:title="Simple match test for a string.">
<polygon fill="white" stroke="#666666" points="1294.75,-384.88 1158,-384.88 1158,-365.62 1294.75,-365.62 1294.75,-384.88"/>
<text text-anchor="middle" x="1226.38" y="-371.38" font-family="Helvetica,sans-Serif" font-size="10.00">ml::core::CRegex::matches</text>
</a>
</g>
</g>
<!-- Node9&#45;&gt;Node10 -->
<g id="edge9_Node000009_Node000010" class="edge">
<title>Node9&#45;&gt;Node10</title>
<g id="a_edge9_Node000009_Node000010"><a xlink:title=" ">
<path fill="none" stroke="#63b8ff" d="M1116.51,-393.14C1128.33,-391.2 1140.81,-389.15 1152.94,-387.15"/>
<polygon fill="#63b8ff" stroke="#63b8ff" points="1153.16,-390.66 1162.46,-385.59 1152.03,-383.76 1153.16,-390.66"/>
</a>
</g>
</g>
<!-- Node11 -->
<g id="Node000011" class="node">
<title>Node11</title>
<g id="a_Node000011"><a xlink:href="../../dd/dea/classml_1_1core_1_1_c_regex.html#a63fb8c58c14c3319f3f0308306f7adcb" target="_top" xlink:title="Get the pattern string (not a reference due to boost API)">
<polygon fill="white" stroke="#666666" points="1441.25,-412.88 1330.75,-412.88 1330.75,-393.62 1441.25,-393.62 1441.25,-412.88"/>
<text text-anchor="middle" x="1386" y="-399.38" font-family="Helvetica,sans-Serif" font-size="10.00">ml::core::CRegex::str</text>
</a>
</g>
</g>
<!-- Node9&#45;&gt;Node11 -->
<g id="edge12_Node000009_Node000011" class="edge">
<title>Node9&#45;&gt;Node11</title>
<g id="a_edge12_Node000009_Node000011"><a xlink:title=" ">
<path fill="none" stroke="#63b8ff" d="M1122.26,-409.98C1134.16,-410.92 1146.43,-411.75 1158,-412.25 1218.72,-414.9 1234.05,-415.27 1294.75,-412.25 1302.75,-411.85 1311.14,-411.26 1319.44,-410.56"/>
<polygon fill="#63b8ff" stroke="#63b8ff" points="1319.51,-414.07 1329.15,-409.69 1318.88,-407.09 1319.51,-414.07"/>
</a>
</g>
</g>
<!-- Node10&#45;&gt;Node10 -->
<g id="edge10_Node000010_Node000010" class="edge">
<title>Node10&#45;&gt;Node10</title>
<g id="a_edge10_Node000010_Node000010"><a xlink:title=" ">
<path fill="none" stroke="#63b8ff" d="M1201.38,-385.16C1189.99,-393.77 1198.32,-402.88 1226.38,-402.88 1242.16,-402.88 1251.7,-399.99 1255,-395.94"/>
<polygon fill="#63b8ff" stroke="#63b8ff" points="1258.36,-394.96 1251.85,-386.6 1251.73,-397.19 1258.36,-394.96"/>
</a>
</g>
</g>
<!-- Node10&#45;&gt;Node11 -->
<g id="edge11_Node000010_Node000011" class="edge">
<title>Node10&#45;&gt;Node11</title>
<g id="a_edge11_Node000010_Node000011"><a xlink:title=" ">
<path fill="none" stroke="#63b8ff" d="M1284.28,-385.36C1295.64,-387.38 1307.66,-389.51 1319.29,-391.58"/>
<polygon fill="#63b8ff" stroke="#63b8ff" points="1318.34,-394.96 1328.79,-393.27 1319.56,-388.07 1318.34,-394.96"/>
</a>
</g>
</g>
<!-- Node15&#45;&gt;Node3 -->
<g id="edge17_Node000015_Node000003" class="edge">
<title>Node15&#45;&gt;Node3</title>
<g id="a_edge17_Node000015_Node000003"><a xlink:title=" ">
<path fill="none" stroke="#63b8ff" d="M497.24,-470.61C514.02,-473.33 532.07,-476.26 549.32,-479.06"/>
<polygon fill="#63b8ff" stroke="#63b8ff" points="548.58,-482.48 559.01,-480.63 549.7,-475.57 548.58,-482.48"/>
</a>
</g>
</g>
<!-- Node15&#45;&gt;Node5 -->
<g id="edge18_Node000015_Node000005" class="edge">
<title>Node15&#45;&gt;Node5</title>
<g id="a_edge18_Node000015_Node000005"><a xlink:title=" ">
<path fill="none" stroke="#63b8ff" d="M497.24,-447.55C508.85,-445.61 521.08,-443.56 533.22,-441.53"/>
<polygon fill="#63b8ff" stroke="#63b8ff" points="533.55,-445.03 542.84,-439.93 532.4,-438.12 533.55,-445.03"/>
</a>
</g>
</g>
<!-- Node15&#45;&gt;Node16 -->
<g id="edge19_Node000015_Node000016" class="edge">
<title>Node15&#45;&gt;Node16</title>
<g id="a_edge19_Node000015_Node000016"><a xlink:title=" ">
<path fill="none" stroke="#63b8ff" d="M453.01,-443.55C489.07,-421.56 554.74,-381.52 595.33,-356.77"/>
<polygon fill="#63b8ff" stroke="#63b8ff" points="597.07,-359.81 603.78,-351.62 593.42,-353.83 597.07,-359.81"/>
</a>
</g>
</g>
<!-- Node17 -->
<g id="Node000017" class="node">
<title>Node17</title>
<g id="a_Node000017"><a xlink:href="../../dc/df4/classml_1_1api_1_1_c_anomaly_job_parameters.html#a291245b6452b5bbdf0b5e00aaeed7ddc" target="_top" xlink:title="Add parameter.">
<polygon fill="white" stroke="#666666" points="950,-321.88 765.25,-321.88 765.25,-302.62 950,-302.62 950,-321.88"/>
<text text-anchor="middle" x="857.62" y="-308.38" font-family="Helvetica,sans-Serif" font-size="10.00">ml::api::CAnomalyJobParameters::add</text>
</a>
</g>
</g>
<!-- Node16&#45;&gt;Node17 -->
<g id="edge20_Node000016_Node000017" class="edge">
<title>Node16&#45;&gt;Node17</title>
<g id="a_edge20_Node000016_Node000017"><a xlink:title=" ">
<path fill="none" stroke="#63b8ff" d="M702.58,-328.07C718.8,-326.4 736.39,-324.6 753.69,-322.82"/>
<polygon fill="#63b8ff" stroke="#63b8ff" points="753.9,-326.32 763.49,-321.81 753.19,-319.35 753.9,-326.32"/>
</a>
</g>
</g>
<!-- Node18 -->
<g id="Node000018" class="node">
<title>Node18</title>
<g id="a_Node000018"><a xlink:href="../../dd/dbb/classml_1_1api_1_1_c_anomaly_job_config_reader_1_1_c_parameter.html#ad10e452ce3499aa3721dbf407cb96bf7" target="_top" xlink:title="Get the name of the parameter.">
<polygon fill="white" stroke="#666666" points="928.25,-370.5 787,-370.5 787,-340 928.25,-340 928.25,-370.5"/>
<text text-anchor="start" x="795" y="-357" font-family="Helvetica,sans-Serif" font-size="10.00">ml::api::CAnomalyJobConfig</text>
<text text-anchor="middle" x="857.62" y="-345.75" font-family="Helvetica,sans-Serif" font-size="10.00">Reader::CParameter::name</text>
</a>
</g>
</g>
<!-- Node16&#45;&gt;Node18 -->
<g id="edge21_Node000016_Node000018" class="edge">
<title>Node16&#45;&gt;Node18</title>
<g id="a_edge21_Node000016_Node000018"><a xlink:title=" ">
<path fill="none" stroke="#63b8ff" d="M702.58,-341.5C725.74,-343.56 751.71,-345.88 775.63,-348.02"/>
<polygon fill="#63b8ff" stroke="#63b8ff" points="775.04,-351.48 785.31,-348.88 775.66,-344.51 775.04,-351.48"/>
</a>
</g>
</g>
<!-- Node19&#45;&gt;Node4 -->
<g id="edge23_Node000019_Node000004" class="edge">
<title>Node19&#45;&gt;Node4</title>
<g id="a_edge23_Node000019_Node000004"><a xlink:title=" ">
<path fill="none" stroke="#63b8ff" d="M492.44,-270.54C512.14,-265.8 533.95,-260.54 554.32,-255.64"/>
<polygon fill="#63b8ff" stroke="#63b8ff" points="555.08,-259.05 563.99,-253.31 553.44,-252.25 555.08,-259.05"/>
</a>
</g>
</g>
<!-- Node19&#45;&gt;Node16 -->
<g id="edge25_Node000019_Node000016" class="edge">
<title>Node19&#45;&gt;Node16</title>
<g id="a_edge25_Node000019_Node000016"><a xlink:title=" ">
<path fill="none" stroke="#63b8ff" d="M492.44,-301.96C512.14,-306.7 533.95,-311.96 554.32,-316.86"/>
<polygon fill="#63b8ff" stroke="#63b8ff" points="553.44,-320.25 563.99,-319.19 555.08,-313.45 553.44,-320.25"/>
</a>
</g>
</g>
<!-- Node20 -->
<g id="Node000020" class="node">
<title>Node20</title>
<g id="a_Node000020"><a xlink:href="../../d0/d19/classml_1_1api_1_1_c_anomaly_job_config_1_1_c_analysis_limits.html#ae7152e360412c800975ba7f22d4a727a" target="_top" xlink:title=" ">
<polygon fill="white" stroke="#666666" points="729.25,-301.5 534,-301.5 534,-271 729.25,-271 729.25,-301.5"/>
<text text-anchor="start" x="542" y="-288" font-family="Helvetica,sans-Serif" font-size="10.00">ml::api::CAnomalyJobConfig</text>
<text text-anchor="middle" x="631.62" y="-276.75" font-family="Helvetica,sans-Serif" font-size="10.00">::CAnalysisLimits::modelMemoryLimitMb</text>
</a>
</g>
</g>
<!-- Node19&#45;&gt;Node20 -->
<g id="edge24_Node000019_Node000020" class="edge">
<title>Node19&#45;&gt;Node20</title>
<g id="a_edge24_Node000019_Node000020"><a xlink:title=" ">
<path fill="none" stroke="#63b8ff" d="M497.24,-286.25C505.3,-286.25 513.65,-286.25 522.07,-286.25"/>
<polygon fill="#63b8ff" stroke="#63b8ff" points="522.04,-289.75 532.04,-286.25 522.04,-282.75 522.04,-289.75"/>
</a>
</g>
</g>
<!-- Node21&#45;&gt;Node4 -->
<g id="edge27_Node000021_Node000004" class="edge">
<title>Node21&#45;&gt;Node4</title>
<g id="a_edge27_Node000021_Node000004"><a xlink:title=" ">
<path fill="none" stroke="#63b8ff" d="M482.22,-319.54C487.79,-316.88 493.17,-313.8 498,-310.25 519.49,-294.46 511.85,-277.09 534,-262.25 539.04,-258.87 544.51,-255.95 550.19,-253.43"/>
<polygon fill="#63b8ff" stroke="#63b8ff" points="551.2,-256.79 559.2,-249.85 548.62,-250.29 551.2,-256.79"/>
</a>
</g>
</g>
<!-- Node21&#45;&gt;Node16 -->
<g id="edge28_Node000021_Node000016" class="edge">
<title>Node21&#45;&gt;Node16</title>
<g id="a_edge28_Node000021_Node000016"><a xlink:title=" ">
<path fill="none" stroke="#63b8ff" d="M497.24,-335.25C514.02,-335.25 532.07,-335.25 549.32,-335.25"/>
<polygon fill="#63b8ff" stroke="#63b8ff" points="548.99,-338.75 558.99,-335.25 548.99,-331.75 548.99,-338.75"/>
</a>
</g>
</g>
<!-- Node22&#45;&gt;Node14 -->
<g id="edge30_Node000022_Node000014" class="edge">
<title>Node22&#45;&gt;Node14</title>
<g id="a_edge30_Node000022_Node000014"><a xlink:title=" ">
<path fill="none" stroke="#63b8ff" d="M476.48,-221.52C504.86,-212.45 540.73,-200.98 570.73,-191.39"/>
<polygon fill="#63b8ff" stroke="#63b8ff" points="571.59,-194.79 580.05,-188.41 569.46,-188.12 571.59,-194.79"/>
</a>
</g>
</g>
<!-- Node22&#45;&gt;Node16 -->
<g id="edge31_Node000022_Node000016" class="edge">
<title>Node22&#45;&gt;Node16</title>
<g id="a_edge31_Node000022_Node000016"><a xlink:title=" ">
<path fill="none" stroke="#63b8ff" d="M482.22,-252.96C487.79,-255.62 493.17,-258.7 498,-262.25 519.49,-278.04 511.85,-295.41 534,-310.25 539.04,-313.63 544.51,-316.55 550.19,-319.07"/>
<polygon fill="#63b8ff" stroke="#63b8ff" points="548.62,-322.21 559.2,-322.65 551.2,-315.71 548.62,-322.21"/>
</a>
</g>
</g>
</g>
</svg>

<g id="navigator" transform="translate(0 0)" fill="#404254">
  <rect fill="#f2f5e9" fill-opacity="0.5" stroke="#606060" stroke-width=".5" x="0" y="0" width="60" height="60"/>
  <use id="zoomplus" xlink:href="#zoomPlus" x="17" y="9" onmousedown="handleZoom(evt,'in')"/>
  <use id="zoomminus" xlink:href="#zoomMin" x="42" y="9" onmousedown="handleZoom(evt,'out')"/>
  <use id="reset" xlink:href="#resetDef" x="30" y="36" onmousedown="handleReset()"/>
   <use id="arrowup" xlink:href="#arrowUp" x="0" y="0" onmousedown="handlePan(0,-1)"/>
  <use id="arrowright" xlink:href="#arrowRight" x="0" y="0" onmousedown="handlePan(1,0)"/>
  <use id="arrowdown" xlink:href="#arrowDown" x="0" y="0" onmousedown="handlePan(0,1)"/>
  <use id="arrowleft" xlink:href="#arrowLeft" x="0" y="0" onmousedown="handlePan(-1,0)"/>
</g>
<svg viewBox="0 0 15 15" width="100%" height="30px" preserveAspectRatio="xMaxYMin meet">
 <g id="arrow_out" transform="scale(0.3 0.3)">
  <a xlink:href="classml_1_1api_1_1_c_anomaly_job_config_a9b126409401d471c8b81b82f66d1698c_cgraph_org.svg" target="_base">
   <rect id="button" ry="5" rx="5" y="6" x="6" height="38" width="38"
        fill="#f2f5e9" fill-opacity="0.5" stroke="#606060" stroke-width="1.0"/>
   <path id="arrow"
     d="M 11.500037,31.436501 C 11.940474,20.09759 22.043105,11.32322 32.158766,21.979434 L 37.068811,17.246167 C 37.068811,17.246167 37.088388,32 37.088388,32 L 22.160133,31.978069 C 22.160133,31.978069 26.997745,27.140456 26.997745,27.140456 C 18.528582,18.264221 13.291696,25.230495 11.500037,31.436501 z"
     style="fill:#404040;"/>
  </a>
 </g>
</svg>

<style type='text/css'>
<![CDATA[
[data-mouse-over-selected='false'] { opacity: 0.7; }
[data-mouse-over-selected='true']  { opacity: 1.0; }
]]>
</style>
<script type="application/ecmascript"><![CDATA[
document.addEventListener('DOMContentLoaded', (event) => {
  highlightEdges();
  highlightAdjacentNodes();
});
]]></script>
</svg>
