<?xml version="1.0" encoding="UTF-8" standalone="no"?>
<!DOCTYPE svg PUBLIC "-//W3C//DTD SVG 1.1//EN"
 "http://www.w3.org/Graphics/SVG/1.1/DTD/svg11.dtd">
<!-- Generated by graphviz version 10.0.1 (20240210.2158)
 -->
<!-- Title: ml::maths::common::COrderings::simultaneousSortWith Pages: 1 -->
<svg width="602pt" height="63pt"
 viewBox="0.00 0.00 601.50 62.50" xmlns="http://www.w3.org/2000/svg" xmlns:xlink="http://www.w3.org/1999/xlink">
<g id="graph0" class="graph" transform="scale(1 1) rotate(0) translate(4 58.5)">
<title>ml::maths::common::COrderings::simultaneousSortWith</title>
<!-- Node1 -->
<g id="Node000001" class="node">
<title>Node1</title>
<g id="a_Node000001"><a xlink:title=" ">
<polygon fill="#999999" stroke="#666666" points="167.5,-30.5 0,-30.5 0,0 167.5,0 167.5,-30.5"/>
<text text-anchor="start" x="8" y="-17" font-family="Helvetica,sans-Serif" font-size="10.00">ml::maths::common::</text>
<text text-anchor="middle" x="83.75" y="-5.75" font-family="Helvetica,sans-Serif" font-size="10.00">COrderings::simultaneousSortWith</text>
</a>
</g>
</g>
<!-- Node2 -->
<g id="Node000002" class="node">
<title>Node2</title>
<g id="a_Node000002"><a xlink:href="../../d6/dd5/namespaceml_1_1maths_1_1common.html#a89623dbfeec6e6b6599645ef8fd3f4d1" target="_top" xlink:title="Free swap picked up by std:: algorithms etc.">
<polygon fill="white" stroke="#666666" points="335.75,-45.88 203.5,-45.88 203.5,-26.62 335.75,-26.62 335.75,-45.88"/>
<text text-anchor="middle" x="269.62" y="-32.38" font-family="Helvetica,sans-Serif" font-size="10.00">ml::maths::common::swap</text>
</a>
</g>
</g>
<!-- Node1&#45;&gt;Node2 -->
<g id="edge1_Node000001_Node000002" class="edge">
<title>Node1&#45;&gt;Node2</title>
<g id="a_edge1_Node000001_Node000002"><a xlink:title=" ">
<path fill="none" stroke="#63b8ff" d="M167.81,-24.74C175.74,-25.64 183.76,-26.56 191.63,-27.46"/>
<polygon fill="#63b8ff" stroke="#63b8ff" points="191.18,-30.93 201.51,-28.59 191.98,-23.97 191.18,-30.93"/>
</a>
</g>
</g>
<!-- Node4 -->
<g id="Node000004" class="node">
<title>Node4</title>
<g id="a_Node000004"><a xlink:href="../../d8/dcc/namespacestd.html#a434882411757f6c0833c939d997bc4e3" target="_top" xlink:title=" ">
<polygon fill="white" stroke="#666666" points="593.5,-26.88 534.75,-26.88 534.75,-7.62 593.5,-7.62 593.5,-26.88"/>
<text text-anchor="middle" x="564.12" y="-13.38" font-family="Helvetica,sans-Serif" font-size="10.00">std::swap</text>
</a>
</g>
</g>
<!-- Node1&#45;&gt;Node4 -->
<g id="edge5_Node000001_Node000004" class="edge">
<title>Node1&#45;&gt;Node4</title>
<g id="a_edge5_Node000001_Node000004"><a xlink:title=" ">
<path fill="none" stroke="#63b8ff" d="M167.62,-14.49C251.21,-13.91 383.94,-13.47 498.75,-15.25 506.56,-15.37 514.91,-15.58 522.91,-15.81"/>
<polygon fill="#63b8ff" stroke="#63b8ff" points="522.67,-19.3 532.78,-16.12 522.89,-12.31 522.67,-19.3"/>
</a>
</g>
</g>
<!-- Node3 -->
<g id="Node000003" class="node">
<title>Node3</title>
<g id="a_Node000003"><a xlink:href="../../de/d86/classml_1_1maths_1_1common_1_1_c_symmetric_matrix.html#aa75a541cfcefc1486352316761c24ed0" target="_top" xlink:title="Efficiently swap the contents of two matrices.">
<polygon fill="white" stroke="#666666" points="498.75,-54.5 371.75,-54.5 371.75,-24 498.75,-24 498.75,-54.5"/>
<text text-anchor="start" x="379.75" y="-41" font-family="Helvetica,sans-Serif" font-size="10.00">ml::maths::common::</text>
<text text-anchor="middle" x="435.25" y="-29.75" font-family="Helvetica,sans-Serif" font-size="10.00">CSymmetricMatrix::swap</text>
</a>
</g>
</g>
<!-- Node2&#45;&gt;Node3 -->
<g id="edge2_Node000002_Node000003" class="edge">
<title>Node2&#45;&gt;Node3</title>
<g id="a_edge2_Node000002_Node000003"><a xlink:title=" ">
<path fill="none" stroke="#63b8ff" d="M336.23,-37.45C344,-37.6 351.97,-37.74 359.85,-37.89"/>
<polygon fill="#63b8ff" stroke="#63b8ff" points="359.71,-41.38 369.77,-38.07 359.84,-34.38 359.71,-41.38"/>
</a>
</g>
</g>
<!-- Node3&#45;&gt;Node4 -->
<g id="edge3_Node000003_Node000004" class="edge">
<title>Node3&#45;&gt;Node4</title>
<g id="a_edge3_Node000003_Node000004"><a xlink:title=" ">
<path fill="none" stroke="#63b8ff" d="M498.94,-28.38C507.15,-26.96 515.38,-25.53 523.07,-24.2"/>
<polygon fill="#63b8ff" stroke="#63b8ff" points="523.52,-27.67 532.77,-22.51 522.32,-20.77 523.52,-27.67"/>
</a>
</g>
</g>
<!-- Node4&#45;&gt;Node4 -->
<g id="edge4_Node000004_Node000004" class="edge">
<title>Node4&#45;&gt;Node4</title>
<g id="a_edge4_Node000004_Node000004"><a xlink:title=" ">
<path fill="none" stroke="#63b8ff" d="M543.95,-27.16C534.75,-35.77 541.47,-44.88 564.12,-44.88 576.51,-44.88 584.14,-42.15 587,-38.28"/>
<polygon fill="#63b8ff" stroke="#63b8ff" points="590.42,-37.53 584.66,-28.63 583.62,-39.18 590.42,-37.53"/>
</a>
</g>
</g>
</g>
</svg>
