<?xml version="1.0" encoding="UTF-8" standalone="no"?>
<!DOCTYPE svg PUBLIC "-//W3C//DTD SVG 1.1//EN"
 "http://www.w3.org/Graphics/SVG/1.1/DTD/svg11.dtd">
<!-- Generated by graphviz version 10.0.1 (20240210.2158)
 -->
<!-- Title: ml::model::CAnomalyScore::CNormalizer::normalize Pages: 1 -->
<svg width="562pt" height="274pt"
 viewBox="0.00 0.00 562.25 274.25" xmlns="http://www.w3.org/2000/svg" xmlns:xlink="http://www.w3.org/1999/xlink">
<g id="graph0" class="graph" transform="scale(1 1) rotate(0) translate(4 270.25)">
<title>ml::model::CAnomalyScore::CNormalizer::normalize</title>
<!-- Node1 -->
<g id="Node000001" class="node">
<title>Node1</title>
<g id="a_Node000001"><a xlink:title=" ">
<polygon fill="#999999" stroke="#666666" points="136,-175.88 0,-175.88 0,-145.38 136,-145.38 136,-175.88"/>
<text text-anchor="start" x="8" y="-162.38" font-family="Helvetica,sans-Serif" font-size="10.00">ml::model::CAnomalyScore</text>
<text text-anchor="middle" x="68" y="-151.12" font-family="Helvetica,sans-Serif" font-size="10.00">::CNormalizer::normalize</text>
</a>
</g>
</g>
<!-- Node2 -->
<g id="Node000002" class="node">
<title>Node2</title>
<g id="a_Node000002"><a xlink:href="../../dd/d55/classml_1_1maths_1_1common_1_1_c_tools.html#aa109a900bcefae1f4d36f8b89d71d93a" target="_top" xlink:title="Linearly interpolate a function on the interval [a, b].">
<polygon fill="white" stroke="#666666" points="342.12,-261.88 212.88,-261.88 212.88,-231.38 342.12,-231.38 342.12,-261.88"/>
<text text-anchor="start" x="220.88" y="-248.38" font-family="Helvetica,sans-Serif" font-size="10.00">ml::maths::common::</text>
<text text-anchor="middle" x="277.5" y="-237.12" font-family="Helvetica,sans-Serif" font-size="10.00">CTools::linearlyInterpolate</text>
</a>
</g>
</g>
<!-- Node1&#45;&gt;Node2 -->
<g id="edge1_Node000001_Node000002" class="edge">
<title>Node1&#45;&gt;Node2</title>
<g id="a_edge1_Node000001_Node000002"><a xlink:title=" ">
<path fill="none" stroke="#63b8ff" d="M93.17,-176.14C113.54,-188.68 143.81,-206.1 172,-217.62 181.41,-221.47 191.49,-224.98 201.55,-228.13"/>
<polygon fill="#63b8ff" stroke="#63b8ff" points="200.39,-231.44 210.98,-230.97 202.41,-224.74 200.39,-231.44"/>
</a>
</g>
</g>
<!-- Node3 -->
<g id="Node000003" class="node">
<title>Node3</title>
<g id="a_Node000003"><a xlink:href="../../d8/dcc/namespacestd.html#a434882411757f6c0833c939d997bc4e3" target="_top" xlink:title=" ">
<polygon fill="white" stroke="#666666" points="516,-248.25 457.25,-248.25 457.25,-229 516,-229 516,-248.25"/>
<text text-anchor="middle" x="486.62" y="-234.75" font-family="Helvetica,sans-Serif" font-size="10.00">std::swap</text>
</a>
</g>
</g>
<!-- Node1&#45;&gt;Node3 -->
<g id="edge11_Node000001_Node000003" class="edge">
<title>Node1&#45;&gt;Node3</title>
<g id="a_edge11_Node000001_Node000003"><a xlink:title=" ">
<path fill="none" stroke="#63b8ff" d="M133.98,-176.37C146.57,-179.25 159.67,-182.13 172,-184.62 269.98,-204.46 386.13,-223.23 445.82,-232.54"/>
<polygon fill="#63b8ff" stroke="#63b8ff" points="445.07,-235.96 455.49,-234.04 446.14,-229.04 445.07,-235.96"/>
</a>
</g>
</g>
<!-- Node4 -->
<g id="Node000004" class="node">
<title>Node4</title>
<g id="a_Node000004"><a xlink:href="../../d0/dc8/classml_1_1model_1_1_c_anomaly_score_1_1_c_normalizer_1_1_c_maximum_score_scope.html#aa285b04d09b059cf51060f417afcf5c2" target="_top" xlink:title="Get a human readable description of the scope.">
<polygon fill="white" stroke="#666666" points="383,-175.88 172,-175.88 172,-145.38 383,-145.38 383,-175.88"/>
<text text-anchor="start" x="180" y="-162.38" font-family="Helvetica,sans-Serif" font-size="10.00">ml::model::CAnomalyScore</text>
<text text-anchor="middle" x="277.5" y="-151.12" font-family="Helvetica,sans-Serif" font-size="10.00">::CNormalizer::CMaximumScoreScope::print</text>
</a>
</g>
</g>
<!-- Node1&#45;&gt;Node4 -->
<g id="edge4_Node000001_Node000004" class="edge">
<title>Node1&#45;&gt;Node4</title>
<g id="a_edge4_Node000001_Node000004"><a xlink:title=" ">
<path fill="none" stroke="#63b8ff" d="M136.37,-160.62C144.18,-160.62 152.3,-160.62 160.53,-160.62"/>
<polygon fill="#63b8ff" stroke="#63b8ff" points="160.29,-164.13 170.29,-160.63 160.29,-157.13 160.29,-164.13"/>
</a>
</g>
</g>
<!-- Node5 -->
<g id="Node000005" class="node">
<title>Node5</title>
<g id="a_Node000005"><a xlink:href="../../d6/dd5/namespaceml_1_1maths_1_1common.html#a4895b044355daad6067187c66cc4212f" target="_top" xlink:title="Compute the q&#39;th quantile for distribution.">
<polygon fill="white" stroke="#666666" points="332,-126.88 223,-126.88 223,-96.38 332,-96.38 332,-126.88"/>
<text text-anchor="start" x="231" y="-113.38" font-family="Helvetica,sans-Serif" font-size="10.00">ml::maths::common::</text>
<text text-anchor="middle" x="277.5" y="-102.12" font-family="Helvetica,sans-Serif" font-size="10.00">quantile</text>
</a>
</g>
</g>
<!-- Node1&#45;&gt;Node5 -->
<g id="edge5_Node000001_Node000005" class="edge">
<title>Node1&#45;&gt;Node5</title>
<g id="a_edge5_Node000001_Node000005"><a xlink:title=" ">
<path fill="none" stroke="#63b8ff" d="M135.51,-144.92C159.98,-139.14 187.63,-132.61 211.92,-126.88"/>
<polygon fill="#63b8ff" stroke="#63b8ff" points="212.42,-130.35 221.35,-124.65 210.81,-123.54 212.42,-130.35"/>
</a>
</g>
</g>
<!-- Node10 -->
<g id="Node000010" class="node">
<title>Node10</title>
<g id="a_Node000010"><a xlink:href="../../dd/d55/classml_1_1maths_1_1common_1_1_c_tools.html#a0ee3c8a8c133d36faa270f96ff48ae21" target="_top" xlink:title=" ">
<polygon fill="white" stroke="#666666" points="332,-77.88 223,-77.88 223,-47.38 332,-47.38 332,-77.88"/>
<text text-anchor="start" x="231" y="-64.38" font-family="Helvetica,sans-Serif" font-size="10.00">ml::maths::common::</text>
<text text-anchor="middle" x="277.5" y="-53.12" font-family="Helvetica,sans-Serif" font-size="10.00">CTools::truncate</text>
</a>
</g>
</g>
<!-- Node1&#45;&gt;Node10 -->
<g id="edge12_Node000001_Node000010" class="edge">
<title>Node1&#45;&gt;Node10</title>
<g id="a_edge12_Node000001_Node000010"><a xlink:title=" ">
<path fill="none" stroke="#63b8ff" d="M86.31,-145.17C105.8,-128.57 139.06,-102.56 172,-87.62 184.34,-82.03 198.1,-77.59 211.47,-74.11"/>
<polygon fill="#63b8ff" stroke="#63b8ff" points="212.21,-77.54 221.1,-71.77 210.56,-70.73 212.21,-77.54"/>
</a>
</g>
</g>
<!-- Node2&#45;&gt;Node3 -->
<g id="edge2_Node000002_Node000003" class="edge">
<title>Node2&#45;&gt;Node3</title>
<g id="a_edge2_Node000002_Node000003"><a xlink:title=" ">
<path fill="none" stroke="#63b8ff" d="M342.62,-244.15C376.24,-242.85 416.39,-241.3 445.57,-240.17"/>
<polygon fill="#63b8ff" stroke="#63b8ff" points="445.6,-243.67 455.45,-239.79 445.33,-236.68 445.6,-243.67"/>
</a>
</g>
</g>
<!-- Node3&#45;&gt;Node3 -->
<g id="edge3_Node000003_Node000003" class="edge">
<title>Node3&#45;&gt;Node3</title>
<g id="a_edge3_Node000003_Node000003"><a xlink:title=" ">
<path fill="none" stroke="#63b8ff" d="M456.91,-246.97C437.71,-256 447.62,-266.25 486.62,-266.25 515.88,-266.25 528.76,-260.48 525.28,-253.79"/>
<polygon fill="#63b8ff" stroke="#63b8ff" points="527.61,-251.17 517.54,-247.89 523.37,-256.73 527.61,-251.17"/>
</a>
</g>
</g>
<!-- Node6 -->
<g id="Node000006" class="node">
<title>Node6</title>
<g id="a_Node000006"><a xlink:href="../../d0/d1c/classml_1_1maths_1_1common_1_1_c_log_t_distribution.html#a128ce0a627956e7931be0358fe995d2d" target="_top" xlink:title=" ">
<polygon fill="white" stroke="#666666" points="554.25,-194.5 419,-194.5 419,-152.75 554.25,-152.75 554.25,-194.5"/>
<text text-anchor="start" x="427" y="-181" font-family="Helvetica,sans-Serif" font-size="10.00">ml::maths::common::</text>
<text text-anchor="start" x="427" y="-169.75" font-family="Helvetica,sans-Serif" font-size="10.00">CLogTDistribution::degrees</text>
<text text-anchor="middle" x="486.62" y="-158.5" font-family="Helvetica,sans-Serif" font-size="10.00">Freedom</text>
</a>
</g>
</g>
<!-- Node5&#45;&gt;Node6 -->
<g id="edge6_Node000005_Node000006" class="edge">
<title>Node5&#45;&gt;Node6</title>
<g id="a_edge6_Node000005_Node000006"><a xlink:title=" ">
<path fill="none" stroke="#63b8ff" d="M332.24,-123.27C348.63,-127.15 366.65,-131.74 383,-136.62 394.81,-140.15 407.25,-144.28 419.23,-148.47"/>
<polygon fill="#63b8ff" stroke="#63b8ff" points="418.05,-151.77 428.65,-151.82 420.4,-145.17 418.05,-151.77"/>
</a>
</g>
</g>
<!-- Node7 -->
<g id="Node000007" class="node">
<title>Node7</title>
<g id="a_Node000007"><a xlink:href="../../d0/d1c/classml_1_1maths_1_1common_1_1_c_log_t_distribution.html#a4267908e2f6c547fd21f75a77f6bee78" target="_top" xlink:title=" ">
<polygon fill="white" stroke="#666666" points="553.88,-134.88 419.38,-134.88 419.38,-104.38 553.88,-104.38 553.88,-134.88"/>
<text text-anchor="start" x="427.38" y="-121.38" font-family="Helvetica,sans-Serif" font-size="10.00">ml::maths::common::</text>
<text text-anchor="middle" x="486.62" y="-110.12" font-family="Helvetica,sans-Serif" font-size="10.00">CLogTDistribution::location</text>
</a>
</g>
</g>
<!-- Node5&#45;&gt;Node7 -->
<g id="edge7_Node000005_Node000007" class="edge">
<title>Node5&#45;&gt;Node7</title>
<g id="a_edge7_Node000005_Node000007"><a xlink:title=" ">
<path fill="none" stroke="#63b8ff" d="M332.38,-113.71C355.35,-114.59 382.6,-115.65 407.7,-116.62"/>
<polygon fill="#63b8ff" stroke="#63b8ff" points="407.42,-120.11 417.55,-117 407.69,-113.11 407.42,-120.11"/>
</a>
</g>
</g>
<!-- Node8 -->
<g id="Node000008" class="node">
<title>Node8</title>
<g id="a_Node000008"><a xlink:href="../../d0/d1c/classml_1_1maths_1_1common_1_1_c_log_t_distribution.html#a8f03f27080a2f59d3da535b4b4f228ef" target="_top" xlink:title=" ">
<polygon fill="white" stroke="#666666" points="548.62,-85.88 424.62,-85.88 424.62,-55.38 548.62,-55.38 548.62,-85.88"/>
<text text-anchor="start" x="432.62" y="-72.38" font-family="Helvetica,sans-Serif" font-size="10.00">ml::maths::common::</text>
<text text-anchor="middle" x="486.62" y="-61.12" font-family="Helvetica,sans-Serif" font-size="10.00">CLogTDistribution::scale</text>
</a>
</g>
</g>
<!-- Node5&#45;&gt;Node8 -->
<g id="edge8_Node000005_Node000008" class="edge">
<title>Node5&#45;&gt;Node8</title>
<g id="a_edge8_Node000005_Node000008"><a xlink:title=" ">
<path fill="none" stroke="#63b8ff" d="M332.38,-100.96C357.03,-96.08 386.59,-90.23 413.15,-84.97"/>
<polygon fill="#63b8ff" stroke="#63b8ff" points="413.71,-88.43 422.84,-83.05 412.35,-81.56 413.71,-88.43"/>
</a>
</g>
</g>
<!-- Node9 -->
<g id="Node000009" class="node">
<title>Node9</title>
<g id="a_Node000009"><a xlink:href="../../d4/da6/namespaceml.html#ad281564c6956f9a94ad02cfd663d150d" target="_top" xlink:title="Scales time input to generator.">
<polygon fill="white" stroke="#666666" points="514.5,-19.25 458.75,-19.25 458.75,0 514.5,0 514.5,-19.25"/>
<text text-anchor="middle" x="486.62" y="-5.75" font-family="Helvetica,sans-Serif" font-size="10.00">ml::scale</text>
</a>
</g>
</g>
<!-- Node5&#45;&gt;Node9 -->
<g id="edge9_Node000005_Node000009" class="edge">
<title>Node5&#45;&gt;Node9</title>
<g id="a_edge9_Node000005_Node000009"><a xlink:title=" ">
<path fill="none" stroke="#63b8ff" d="M332.43,-105.14C349.45,-101.46 367.77,-95.68 383,-86.62 403.56,-74.4 400.29,-61.52 419,-46.62 429.46,-38.3 442.05,-30.78 453.45,-24.73"/>
<polygon fill="#63b8ff" stroke="#63b8ff" points="454.83,-27.95 462.14,-20.29 451.64,-21.72 454.83,-27.95"/>
</a>
</g>
</g>
<!-- Node9&#45;&gt;Node9 -->
<g id="edge10_Node000009_Node000009" class="edge">
<title>Node9&#45;&gt;Node9</title>
<g id="a_edge10_Node000009_Node000009"><a xlink:title=" ">
<path fill="none" stroke="#63b8ff" d="M458.48,-17.26C437.22,-26.45 446.6,-37.25 486.62,-37.25 517.9,-37.25 530.46,-30.66 524.33,-23.39"/>
<polygon fill="#63b8ff" stroke="#63b8ff" points="526.35,-20.54 516.04,-18.08 522.57,-26.43 526.35,-20.54"/>
</a>
</g>
</g>
</g>
</svg>
