<?xml version="1.0" encoding="UTF-8" standalone="no"?>
<!DOCTYPE svg PUBLIC "-//W3C//DTD SVG 1.1//EN"
 "http://www.w3.org/Graphics/SVG/1.1/DTD/svg11.dtd">
<!-- Generated by graphviz version 10.0.1 (20240210.2158)
 -->
<!-- Title: ml::api::CNdJsonOutputWriter Pages: 1 -->
<svg width="303pt" height="218pt"
 viewBox="0.00 0.00 303.25 217.50" xmlns="http://www.w3.org/2000/svg" xmlns:xlink="http://www.w3.org/1999/xlink">
<g id="graph0" class="graph" transform="scale(1 1) rotate(0) translate(4 213.5)">
<title>ml::api::CNdJsonOutputWriter</title>
<!-- Node1 -->
<g id="Node000001" class="node">
<title>Node1</title>
<g id="a_Node000001"><a xlink:title="Write output data in JSON format, one document per line.">
<polygon fill="#999999" stroke="#666666" points="161.38,-19.25 14.12,-19.25 14.12,0 161.38,0 161.38,-19.25"/>
<text text-anchor="middle" x="87.75" y="-5.75" font-family="Helvetica,sans-Serif" font-size="10.00">ml::api::CNdJsonOutputWriter</text>
</a>
</g>
</g>
<!-- Node2 -->
<g id="Node000002" class="node">
<title>Node2</title>
<g id="a_Node000002"><a xlink:href="../../df/d34/classml_1_1api_1_1_c_simple_output_writer.html" target="_top" xlink:title="Interface for simple output of homogenous key/value pairs.">
<polygon fill="white" stroke="#666666" points="143.5,-85.75 0,-85.75 0,-66.5 143.5,-66.5 143.5,-85.75"/>
<text text-anchor="middle" x="71.75" y="-72.25" font-family="Helvetica,sans-Serif" font-size="10.00">ml::api::CSimpleOutputWriter</text>
</a>
</g>
</g>
<!-- Node2&#45;&gt;Node1 -->
<g id="edge1_Node000001_Node000002" class="edge">
<title>Node2&#45;&gt;Node1</title>
<g id="a_edge1_Node000001_Node000002"><a xlink:title=" ">
<path fill="none" stroke="#63b8ff" d="M76.74,-55.02C79.69,-43.12 83.28,-28.63 85.54,-19.52"/>
<polygon fill="#63b8ff" stroke="#63b8ff" points="73.35,-54.14 74.34,-64.69 80.14,-55.82 73.35,-54.14"/>
</a>
</g>
</g>
<!-- Node3 -->
<g id="Node000003" class="node">
<title>Node3</title>
<g id="a_Node000003"><a xlink:href="../../d8/d43/classml_1_1core_1_1_c_stream_writer.html" target="_top" xlink:title=" ">
<polygon fill="white" stroke="#666666" points="283.62,-85.75 161.88,-85.75 161.88,-66.5 283.62,-66.5 283.62,-85.75"/>
<text text-anchor="middle" x="222.75" y="-72.25" font-family="Helvetica,sans-Serif" font-size="10.00">ml::core::CStreamWriter</text>
</a>
</g>
</g>
<!-- Node3&#45;&gt;Node1 -->
<g id="edge2_Node000001_Node000003" class="edge">
<title>Node3&#45;&gt;Node1</title>
<g id="a_edge2_Node000001_Node000003"><a xlink:title=" ">
<path fill="none" stroke="#9a32cd" stroke-dasharray="5,2" d="M193.54,-61.17C167.22,-48.59 129.28,-30.47 106.71,-19.68"/>
<polygon fill="#9a32cd" stroke="#9a32cd" points="191.8,-64.22 202.33,-65.37 194.81,-57.9 191.8,-64.22"/>
</a>
</g>
<text text-anchor="middle" x="183.75" y="-39" font-family="Helvetica,sans-Serif" font-size="10.00" fill="grey"> m_Writer</text>
</g>
<!-- Node4 -->
<g id="Node000004" class="node">
<title>Node4</title>
<g id="a_Node000004"><a xlink:href="../../d0/def/classml_1_1core_1_1_c_boost_json_line_writer.html" target="_top" xlink:title=" ">
<polygon fill="white" stroke="#666666" points="294.5,-142 151,-142 151,-122.75 294.5,-122.75 294.5,-142"/>
<text text-anchor="middle" x="222.75" y="-128.5" font-family="Helvetica,sans-Serif" font-size="10.00">TBoostJsonLineWriterStream</text>
</a>
</g>
</g>
<!-- Node4&#45;&gt;Node3 -->
<g id="edge3_Node000003_Node000004" class="edge">
<title>Node4&#45;&gt;Node3</title>
<g id="a_edge3_Node000003_Node000004"><a xlink:title=" ">
<path fill="none" stroke="#63b8ff" d="M222.75,-111.19C222.75,-102.48 222.75,-92.74 222.75,-85.92"/>
<polygon fill="#63b8ff" stroke="#63b8ff" points="219.25,-110.9 222.75,-120.9 226.25,-110.9 219.25,-110.9"/>
</a>
</g>
</g>
<!-- Node5 -->
<g id="Node000005" class="node">
<title>Node5</title>
<g id="a_Node000005"><a xlink:href="../../de/d68/classml_1_1core_1_1_c_boost_json_writer_base.html" target="_top" xlink:title="A Json writer with fixed length allocator pool With utility functions for adding fields to JSON objec...">
<polygon fill="white" stroke="#666666" points="295.25,-209.5 150.25,-209.5 150.25,-179 295.25,-179 295.25,-209.5"/>
<text text-anchor="start" x="158.25" y="-196" font-family="Helvetica,sans-Serif" font-size="10.00">ml::core::CBoostJsonWriter</text>
<text text-anchor="middle" x="222.75" y="-184.75" font-family="Helvetica,sans-Serif" font-size="10.00">Base&lt; OUTPUT_STREAM &gt;</text>
</a>
</g>
</g>
<!-- Node5&#45;&gt;Node4 -->
<g id="edge4_Node000004_Node000005" class="edge">
<title>Node5&#45;&gt;Node4</title>
<g id="a_edge4_Node000004_Node000005"><a xlink:title=" ">
<path fill="none" stroke="#63b8ff" d="M222.75,-167.52C222.75,-158.54 222.75,-149.04 222.75,-142.35"/>
<polygon fill="#63b8ff" stroke="#63b8ff" points="219.25,-167.24 222.75,-177.24 226.25,-167.24 219.25,-167.24"/>
</a>
</g>
</g>
</g>
</svg>
