<?xml version="1.0" encoding="UTF-8" standalone="no"?>
<!DOCTYPE svg PUBLIC "-//W3C//DTD SVG 1.1//EN"
 "http://www.w3.org/Graphics/SVG/1.1/DTD/svg11.dtd">
<!-- Generated by graphviz version 10.0.1 (20240210.2158)
 -->
<!-- Title: ml::model::CEventRatePopulationModel::updateRecycledModels Pages: 1 -->
<!--zoomable 535 -->

<svg id="main" version="1.1" xmlns="http://www.w3.org/2000/svg" xmlns:xlink="http://www.w3.org/1999/xlink" xml:space="preserve" onload="init(evt)">
<style type="text/css"><![CDATA[
.node, .edge {opacity: 0.7;}
.node.selected, .edge.selected {opacity: 1;}
.edge:hover path { stroke: red; }
.edge:hover polygon { stroke: red; fill: red; }
]]></style>

<defs>
  <circle id="rim" cx="0" cy="0" r="7"/>
  <circle id="rim2" cx="0" cy="0" r="3.5"/>
  <g id="zoomPlus">
    <use xlink:href="#rim" fill="#404040"><set attributeName="fill" to="#808080" begin="zoomplus.mouseover" end="zoomplus.mouseout"/></use>
    <path d="M-4,0h8M0,-4v8" fill="none" stroke="white" stroke-width="1.5" pointer-events="none"/>
  </g>
  <g id="zoomMin">
    <use xlink:href="#rim" fill="#404040"><set attributeName="fill" to="#808080" begin="zoomminus.mouseover" end="zoomminus.mouseout"/></use>
    <path d="M-4,0h8" fill="none" stroke="white" stroke-width="1.5" pointer-events="none"/>
  </g>
  <g id="arrowUp" transform="translate(30 24)">
    <use xlink:href="#rim"/>
    <path pointer-events="none" fill="none" stroke="white" stroke-width="1.5" d="M0,-3.0v7 M-2.5,-0.5L0,-3.0L2.5,-0.5"/>
  </g>
  <g id="arrowRight" transform="rotate(90) translate(36 -43)">
    <use xlink:href="#rim"/>
    <path pointer-events="none" fill="none" stroke="white" stroke-width="1.5" d="M0,-3.0v7 M-2.5,-0.5L0,-3.0L2.5,-0.5"/>
  </g>
  <g id="arrowDown" transform="rotate(180) translate(-30 -48)">
    <use xlink:href="#rim"/>
    <path pointer-events="none" fill="none" stroke="white" stroke-width="1.5" d="M0,-3.0v7 M-2.5,-0.5L0,-3.0L2.5,-0.5"/>
  </g>
  <g id="arrowLeft" transform="rotate(270) translate(-36 17)">
    <use xlink:href="#rim"/>
    <path pointer-events="none" fill="none" stroke="white" stroke-width="1.5" d="M0,-3.0v7 M-2.5,-0.5L0,-3.0L2.5,-0.5"/>
  </g>
  <g id="resetDef">
    <use xlink:href="#rim2" fill="#404040"><set attributeName="fill" to="#808080" begin="reset.mouseover" end="reset.mouseout"/></use>
  </g>
</defs>
<script type="application/ecmascript">
var viewWidth = 1125;
var viewHeight = 535;
var sectionId = 'dynsection-46';
</script>
<script type="application/ecmascript" xlink:href="../../svg.min.js"/>
<svg id="graph" class="graph">
<g id="viewport">
<title>ml::model::CEventRatePopulationModel::updateRecycledModels</title>
<!-- Node1 -->
<g id="Node000001" class="node">
<title>Node1</title>
<g id="a_Node000001"><a xlink:title="Initialize the time series models for recycled attributes and/or people.">
<polygon fill="#999999" stroke="#666666" points="164.5,-152.5 0,-152.5 0,-122 164.5,-122 164.5,-152.5"/>
<text text-anchor="start" x="8" y="-139" font-family="Helvetica,sans-Serif" font-size="10.00">ml::model::CEventRatePopulation</text>
<text text-anchor="middle" x="82.25" y="-127.75" font-family="Helvetica,sans-Serif" font-size="10.00">Model::updateRecycledModels</text>
</a>
</g>
</g>
<!-- Node2 -->
<g id="Node000002" class="node">
<title>Node2</title>
<g id="a_Node000002"><a xlink:href="../../d0/d77/classml_1_1model_1_1_c_event_rate_population_model.html#a567b2377b2c355f68a3de55317742586" target="_top" xlink:title=" ">
<polygon fill="white" stroke="#666666" points="365,-336.5 200.5,-336.5 200.5,-306 365,-306 365,-336.5"/>
<text text-anchor="start" x="208.5" y="-323" font-family="Helvetica,sans-Serif" font-size="10.00">ml::model::CEventRatePopulation</text>
<text text-anchor="middle" x="282.75" y="-311.75" font-family="Helvetica,sans-Serif" font-size="10.00">Model::correlates</text>
</a>
</g>
</g>
<!-- Node1&#45;&gt;Node2 -->
<g id="edge1_Node000001_Node000002" class="edge">
<title>Node1&#45;&gt;Node2</title>
<g id="a_edge1_Node000001_Node000002"><a xlink:title=" ">
<path fill="none" stroke="#63b8ff" d="M100.17,-152.94C135.11,-185.32 215.38,-259.73 256.49,-297.83"/>
<polygon fill="#63b8ff" stroke="#63b8ff" points="254.05,-300.34 263.76,-304.57 258.8,-295.21 254.05,-300.34"/>
</a>
</g>
</g>
<!-- Node13 -->
<g id="Node000013" class="node">
<title>Node13</title>
<g id="a_Node000013"><a xlink:href="../../da/d88/classml_1_1model_1_1_c_anomaly_detector_model.html#a8156c7269ff8ea6a19dfeef12c5a1bb1" target="_top" xlink:title="Get the time series data gatherer.">
<polygon fill="white" stroke="#666666" points="557.25,-177.5 409.25,-177.5 409.25,-147 557.25,-147 557.25,-177.5"/>
<text text-anchor="start" x="417.25" y="-164" font-family="Helvetica,sans-Serif" font-size="10.00">ml::model::CAnomalyDetector</text>
<text text-anchor="middle" x="483.25" y="-152.75" font-family="Helvetica,sans-Serif" font-size="10.00">Model::dataGatherer</text>
</a>
</g>
</g>
<!-- Node1&#45;&gt;Node13 -->
<g id="edge13_Node000001_Node000013" class="edge">
<title>Node1&#45;&gt;Node13</title>
<g id="a_edge13_Node000001_Node000013"><a xlink:title=" ">
<path fill="none" stroke="#63b8ff" d="M164.96,-142.37C232.88,-146.63 329.18,-152.66 397.84,-156.96"/>
<polygon fill="#63b8ff" stroke="#63b8ff" points="397.33,-160.44 407.53,-157.57 397.77,-153.45 397.33,-160.44"/>
</a>
</g>
</g>
<!-- Node14 -->
<g id="Node000014" class="node">
<title>Node14</title>
<g id="a_Node000014"><a xlink:href="../../d0/d91/classml_1_1model_1_1_c_data_gatherer.html#a6ae3160753160071b5f4d2fd8125ddf6" target="_top" xlink:title="Get unique identifiers of any attributes that have been recycled.">
<polygon fill="white" stroke="#666666" points="548.62,-30.5 417.88,-30.5 417.88,0 548.62,0 548.62,-30.5"/>
<text text-anchor="start" x="425.88" y="-17" font-family="Helvetica,sans-Serif" font-size="10.00">ml::model::CDataGatherer</text>
<text text-anchor="middle" x="483.25" y="-5.75" font-family="Helvetica,sans-Serif" font-size="10.00">::recycledAttributeIds</text>
</a>
</g>
</g>
<!-- Node1&#45;&gt;Node14 -->
<g id="edge14_Node000001_Node000014" class="edge">
<title>Node1&#45;&gt;Node14</title>
<g id="a_edge14_Node000001_Node000014"><a xlink:title=" ">
<path fill="none" stroke="#63b8ff" d="M118.2,-121.53C141.27,-111.5 172.34,-98.67 200.5,-89.25 269.19,-66.28 349.19,-45.85 406.36,-32.31"/>
<polygon fill="#63b8ff" stroke="#63b8ff" points="407.07,-35.74 416,-30.04 405.47,-28.93 407.07,-35.74"/>
</a>
</g>
</g>
<!-- Node16 -->
<g id="Node000016" class="node">
<title>Node16</title>
<g id="a_Node000016"><a xlink:href="../../dc/d29/classml_1_1model_1_1_c_population_model.html#a5166f59bc49afb6bc26018be5c4ea8df" target="_top" xlink:title=" ">
<polygon fill="white" stroke="#666666" points="354.88,-128.5 210.62,-128.5 210.62,-98 354.88,-98 354.88,-128.5"/>
<text text-anchor="start" x="218.62" y="-115" font-family="Helvetica,sans-Serif" font-size="10.00">ml::model::CPopulationModel</text>
<text text-anchor="middle" x="282.75" y="-103.75" font-family="Helvetica,sans-Serif" font-size="10.00">::updateRecycledModels</text>
</a>
</g>
</g>
<!-- Node1&#45;&gt;Node16 -->
<g id="edge16_Node000001_Node000016" class="edge">
<title>Node1&#45;&gt;Node16</title>
<g id="a_edge16_Node000001_Node000016"><a xlink:title=" ">
<path fill="none" stroke="#63b8ff" d="M164.85,-127.38C176.15,-126.02 187.78,-124.61 199.11,-123.24"/>
<polygon fill="#63b8ff" stroke="#63b8ff" points="199.3,-126.74 208.81,-122.07 198.46,-119.79 199.3,-126.74"/>
</a>
</g>
</g>
<!-- Node3 -->
<g id="Node000003" class="node">
<title>Node3</title>
<g id="a_Node000003"><a xlink:href="../../d7/d92/classml_1_1maths_1_1common_1_1_c_model.html#a723df93e21eba7a5aad0bcaa6ce05a3f" target="_top" xlink:title="Get the correlated time series identifier pairs if any.">
<polygon fill="white" stroke="#666666" points="537.75,-312.5 428.75,-312.5 428.75,-282 537.75,-282 537.75,-312.5"/>
<text text-anchor="start" x="436.75" y="-299" font-family="Helvetica,sans-Serif" font-size="10.00">ml::maths::common::</text>
<text text-anchor="middle" x="483.25" y="-287.75" font-family="Helvetica,sans-Serif" font-size="10.00">CModel::correlates</text>
</a>
</g>
</g>
<!-- Node2&#45;&gt;Node3 -->
<g id="edge2_Node000002_Node000003" class="edge">
<title>Node2&#45;&gt;Node3</title>
<g id="a_edge2_Node000002_Node000003"><a xlink:title=" ">
<path fill="none" stroke="#63b8ff" d="M365.35,-311.38C382.64,-309.29 400.66,-307.11 417.24,-305.11"/>
<polygon fill="#63b8ff" stroke="#63b8ff" points="417.45,-308.61 426.95,-303.94 416.61,-301.66 417.45,-308.61"/>
</a>
</g>
</g>
<!-- Node4 -->
<g id="Node000004" class="node">
<title>Node4</title>
<g id="a_Node000004"><a xlink:href="../../df/d9c/namespaceml_1_1model__t.html#a9ac31e9688577d75c839165d8ac1b667" target="_top" xlink:title="Get the dimension of the feature feature.">
<polygon fill="white" stroke="#666666" points="541.88,-263.88 424.62,-263.88 424.62,-244.62 541.88,-244.62 541.88,-263.88"/>
<text text-anchor="middle" x="483.25" y="-250.38" font-family="Helvetica,sans-Serif" font-size="10.00">ml::model_t::dimension</text>
</a>
</g>
</g>
<!-- Node2&#45;&gt;Node4 -->
<g id="edge3_Node000002_Node000004" class="edge">
<title>Node2&#45;&gt;Node4</title>
<g id="a_edge3_Node000002_Node000004"><a xlink:title=" ">
<path fill="none" stroke="#63b8ff" d="M317.85,-305.61C340.96,-295.42 372.4,-282.38 401,-273.25 407.87,-271.05 415.15,-268.99 422.41,-267.1"/>
<polygon fill="#63b8ff" stroke="#63b8ff" points="423.04,-270.55 431.89,-264.72 421.34,-263.76 423.04,-270.55"/>
</a>
</g>
</g>
<!-- Node5 -->
<g id="Node000005" class="node">
<title>Node5</title>
<g id="a_Node000005"><a xlink:href="../../d0/d91/classml_1_1model_1_1_c_data_gatherer.html#a6a78bb3800805de96968d1e28728ad44" target="_top" xlink:title="Extract the attribute identifier from a tuple.">
<polygon fill="white" stroke="#666666" points="548.62,-226.5 417.88,-226.5 417.88,-196 548.62,-196 548.62,-226.5"/>
<text text-anchor="start" x="425.88" y="-213" font-family="Helvetica,sans-Serif" font-size="10.00">ml::model::CDataGatherer</text>
<text text-anchor="middle" x="483.25" y="-201.75" font-family="Helvetica,sans-Serif" font-size="10.00">::extractAttributeId</text>
</a>
</g>
</g>
<!-- Node2&#45;&gt;Node5 -->
<g id="edge4_Node000002_Node000005" class="edge">
<title>Node2&#45;&gt;Node5</title>
<g id="a_edge4_Node000002_Node000005"><a xlink:title=" ">
<path fill="none" stroke="#63b8ff" d="M300.77,-305.78C322.54,-286.72 362.09,-254.53 401,-235.25 403.9,-233.81 406.91,-232.44 409.98,-231.14"/>
<polygon fill="#63b8ff" stroke="#63b8ff" points="411.15,-234.44 419.19,-227.54 408.6,-227.92 411.15,-234.44"/>
</a>
</g>
</g>
<!-- Node6 -->
<g id="Node000006" class="node">
<title>Node6</title>
<g id="a_Node000006"><a xlink:href="../../d0/d77/classml_1_1model_1_1_c_event_rate_population_model.html#a7f91fd669d77656422b4e21fe69291a9" target="_top" xlink:title="Get the feature data corresponding to feature at time.">
<polygon fill="white" stroke="#666666" points="565.5,-526.5 401,-526.5 401,-496 565.5,-496 565.5,-526.5"/>
<text text-anchor="start" x="409" y="-513" font-family="Helvetica,sans-Serif" font-size="10.00">ml::model::CEventRatePopulation</text>
<text text-anchor="middle" x="483.25" y="-501.75" font-family="Helvetica,sans-Serif" font-size="10.00">Model::featureData</text>
</a>
</g>
</g>
<!-- Node2&#45;&gt;Node6 -->
<g id="edge5_Node000002_Node000006" class="edge">
<title>Node2&#45;&gt;Node6</title>
<g id="a_edge5_Node000002_Node000006"><a xlink:title=" ">
<path fill="none" stroke="#63b8ff" d="M290.39,-336.55C305.31,-369.08 344.6,-445.5 401,-486.25 403.04,-487.72 405.17,-489.11 407.37,-490.42"/>
<polygon fill="#63b8ff" stroke="#63b8ff" points="405.55,-493.42 416.03,-494.96 408.8,-487.22 405.55,-493.42"/>
</a>
</g>
</g>
<!-- Node10 -->
<g id="Node000010" class="node">
<title>Node10</title>
<g id="a_Node000010"><a xlink:href="../../d0/d77/classml_1_1model_1_1_c_event_rate_population_model.html#af92625c71c433efde0537885486e294d" target="_top" xlink:title=" ">
<polygon fill="white" stroke="#666666" points="565.5,-459.5 401,-459.5 401,-429 565.5,-429 565.5,-459.5"/>
<text text-anchor="start" x="409" y="-446" font-family="Helvetica,sans-Serif" font-size="10.00">ml::model::CEventRatePopulation</text>
<text text-anchor="middle" x="483.25" y="-434.75" font-family="Helvetica,sans-Serif" font-size="10.00">Model::model</text>
</a>
</g>
</g>
<!-- Node2&#45;&gt;Node10 -->
<g id="edge9_Node000002_Node000010" class="edge">
<title>Node2&#45;&gt;Node10</title>
<g id="a_edge9_Node000002_Node000010"><a xlink:title=" ">
<path fill="none" stroke="#63b8ff" d="M298.21,-336.72C319.02,-358.14 359.5,-396.72 401,-419.25 404.24,-421.01 407.63,-422.67 411.09,-424.22"/>
<polygon fill="#63b8ff" stroke="#63b8ff" points="409.71,-427.43 420.29,-428 412.37,-420.96 409.71,-427.43"/>
</a>
</g>
</g>
<!-- Node11 -->
<g id="Node000011" class="node">
<title>Node11</title>
<g id="a_Node000011"><a xlink:href="../../da/d88/classml_1_1model_1_1_c_anomaly_detector_model.html#ac686c4aa0380892a80c605adbdf36842" target="_top" xlink:title="Get the global configuration parameters.">
<polygon fill="white" stroke="#666666" points="557.25,-410.5 409.25,-410.5 409.25,-380 557.25,-380 557.25,-410.5"/>
<text text-anchor="start" x="417.25" y="-397" font-family="Helvetica,sans-Serif" font-size="10.00">ml::model::CAnomalyDetector</text>
<text text-anchor="middle" x="483.25" y="-385.75" font-family="Helvetica,sans-Serif" font-size="10.00">Model::params</text>
</a>
</g>
</g>
<!-- Node2&#45;&gt;Node11 -->
<g id="edge11_Node000002_Node000011" class="edge">
<title>Node2&#45;&gt;Node11</title>
<g id="a_edge11_Node000002_Node000011"><a xlink:title=" ">
<path fill="none" stroke="#63b8ff" d="M318.8,-336.95C341.92,-347.04 372.99,-360.12 401,-370.25 406.41,-372.21 412.06,-374.15 417.75,-376.04"/>
<polygon fill="#63b8ff" stroke="#63b8ff" points="416.65,-379.36 427.24,-379.11 418.81,-372.7 416.65,-379.36"/>
</a>
</g>
</g>
<!-- Node12 -->
<g id="Node000012" class="node">
<title>Node12</title>
<g id="a_Node000012"><a xlink:href="../../dc/d29/classml_1_1model_1_1_c_population_model.html#a07ce54312f4db453d4f9125a0c43b080" target="_top" xlink:title=" ">
<polygon fill="white" stroke="#666666" points="555.38,-361.5 411.12,-361.5 411.12,-331 555.38,-331 555.38,-361.5"/>
<text text-anchor="start" x="419.12" y="-348" font-family="Helvetica,sans-Serif" font-size="10.00">ml::model::CPopulationModel</text>
<text text-anchor="middle" x="483.25" y="-336.75" font-family="Helvetica,sans-Serif" font-size="10.00">::personRange</text>
</a>
</g>
</g>
<!-- Node2&#45;&gt;Node12 -->
<g id="edge12_Node000002_Node000012" class="edge">
<title>Node2&#45;&gt;Node12</title>
<g id="a_edge12_Node000002_Node000012"><a xlink:title=" ">
<path fill="none" stroke="#63b8ff" d="M365.35,-331.53C376.65,-332.95 388.28,-334.41 399.61,-335.84"/>
<polygon fill="#63b8ff" stroke="#63b8ff" points="398.95,-339.29 409.31,-337.06 399.83,-332.34 398.95,-339.29"/>
</a>
</g>
</g>
<!-- Node7 -->
<g id="Node000007" class="node">
<title>Node7</title>
<g id="a_Node000007"><a xlink:href="../../d0/d77/classml_1_1model_1_1_c_event_rate_population_model.html#aa3342e2e5773af3f39d810405de46e35" target="_top" xlink:title="Check if bucket statistics are available for the specified time.">
<polygon fill="white" stroke="#666666" points="766,-526.5 601.5,-526.5 601.5,-496 766,-496 766,-526.5"/>
<text text-anchor="start" x="609.5" y="-513" font-family="Helvetica,sans-Serif" font-size="10.00">ml::model::CEventRatePopulation</text>
<text text-anchor="middle" x="683.75" y="-501.75" font-family="Helvetica,sans-Serif" font-size="10.00">Model::bucketStatsAvailable</text>
</a>
</g>
</g>
<!-- Node6&#45;&gt;Node7 -->
<g id="edge6_Node000006_Node000007" class="edge">
<title>Node6&#45;&gt;Node7</title>
<g id="a_edge6_Node000006_Node000007"><a xlink:title=" ">
<path fill="none" stroke="#63b8ff" d="M565.85,-511.25C573.77,-511.25 581.85,-511.25 589.87,-511.25"/>
<polygon fill="#63b8ff" stroke="#63b8ff" points="589.64,-514.75 599.64,-511.25 589.64,-507.75 589.64,-514.75"/>
</a>
</g>
</g>
<!-- Node8 -->
<g id="Node000008" class="node">
<title>Node8</title>
<g id="a_Node000008"><a xlink:href="../../da/d88/classml_1_1model_1_1_c_anomaly_detector_model.html#aba56af5c27a1bb113941c81977171f5e" target="_top" xlink:title="Get the length of the time interval used to aggregate data.">
<polygon fill="white" stroke="#666666" points="950,-526.5 802,-526.5 802,-496 950,-496 950,-526.5"/>
<text text-anchor="start" x="810" y="-513" font-family="Helvetica,sans-Serif" font-size="10.00">ml::model::CAnomalyDetector</text>
<text text-anchor="middle" x="876" y="-501.75" font-family="Helvetica,sans-Serif" font-size="10.00">Model::bucketLength</text>
</a>
</g>
</g>
<!-- Node7&#45;&gt;Node8 -->
<g id="edge7_Node000007_Node000008" class="edge">
<title>Node7&#45;&gt;Node8</title>
<g id="a_edge7_Node000007_Node000008"><a xlink:title=" ">
<path fill="none" stroke="#63b8ff" d="M766.26,-511.25C774.28,-511.25 782.43,-511.25 790.48,-511.25"/>
<polygon fill="#63b8ff" stroke="#63b8ff" points="790.26,-514.75 800.26,-511.25 790.26,-507.75 790.26,-514.75"/>
</a>
</g>
</g>
<!-- Node9 -->
<g id="Node000009" class="node">
<title>Node9</title>
<g id="a_Node000009"><a xlink:href="../../d0/d91/classml_1_1model_1_1_c_data_gatherer.html#acea33437fdc2fb56e45d93d41deffc87" target="_top" xlink:title="Get the length of the bucketing time interval.">
<polygon fill="white" stroke="#666666" points="1116.75,-526.5 986,-526.5 986,-496 1116.75,-496 1116.75,-526.5"/>
<text text-anchor="start" x="994" y="-513" font-family="Helvetica,sans-Serif" font-size="10.00">ml::model::CDataGatherer</text>
<text text-anchor="middle" x="1051.38" y="-501.75" font-family="Helvetica,sans-Serif" font-size="10.00">::bucketLength</text>
</a>
</g>
</g>
<!-- Node8&#45;&gt;Node9 -->
<g id="edge8_Node000008_Node000009" class="edge">
<title>Node8&#45;&gt;Node9</title>
<g id="a_edge8_Node000008_Node000009"><a xlink:title=" ">
<path fill="none" stroke="#63b8ff" d="M950.28,-511.25C958.16,-511.25 966.2,-511.25 974.12,-511.25"/>
<polygon fill="#63b8ff" stroke="#63b8ff" points="974.09,-514.75 984.09,-511.25 974.09,-507.75 974.09,-514.75"/>
</a>
</g>
</g>
<!-- Node10&#45;&gt;Node10 -->
<g id="edge10_Node000010_Node000010" class="edge">
<title>Node10&#45;&gt;Node10</title>
<g id="a_edge10_Node000010_Node000010"><a xlink:title=" ">
<path fill="none" stroke="#63b8ff" d="M447.72,-459.99C440.47,-469.06 452.31,-477.5 483.25,-477.5 500.17,-477.5 511.38,-474.97 516.87,-471.2"/>
<polygon fill="#63b8ff" stroke="#63b8ff" points="520.3,-471.92 518.53,-461.48 513.4,-470.75 520.3,-471.92"/>
</a>
</g>
</g>
<!-- Node15 -->
<g id="Node000015" class="node">
<title>Node15</title>
<g id="a_Node000015"><a xlink:href="../../d3/d3b/classml_1_1model_1_1_c_dynamic_string_id_registry.html#adc5d59447dd8ce35097cd9256046c91e" target="_top" xlink:title="Get unique identifiers of any names that have been recycled.">
<polygon fill="white" stroke="#666666" points="752.12,-79.5 615.38,-79.5 615.38,-49 752.12,-49 752.12,-79.5"/>
<text text-anchor="start" x="623.38" y="-66" font-family="Helvetica,sans-Serif" font-size="10.00">ml::model::CDynamicString</text>
<text text-anchor="middle" x="683.75" y="-54.75" font-family="Helvetica,sans-Serif" font-size="10.00">IdRegistry::recycledIds</text>
</a>
</g>
</g>
<!-- Node14&#45;&gt;Node15 -->
<g id="edge15_Node000014_Node000015" class="edge">
<title>Node14&#45;&gt;Node15</title>
<g id="a_edge15_Node000014_Node000015"><a xlink:title=" ">
<path fill="none" stroke="#63b8ff" d="M547.88,-30.96C567.02,-35.68 588.2,-40.91 607.99,-45.8"/>
<polygon fill="#63b8ff" stroke="#63b8ff" points="607.13,-49.19 617.67,-48.19 608.8,-42.39 607.13,-49.19"/>
</a>
</g>
</g>
<!-- Node16&#45;&gt;Node13 -->
<g id="edge17_Node000016_Node000013" class="edge">
<title>Node16&#45;&gt;Node13</title>
<g id="a_edge17_Node000016_Node000013"><a xlink:title=" ">
<path fill="none" stroke="#63b8ff" d="M347.38,-128.96C366.52,-133.68 387.7,-138.91 407.49,-143.8"/>
<polygon fill="#63b8ff" stroke="#63b8ff" points="406.63,-147.19 417.17,-146.19 408.3,-140.39 406.63,-147.19"/>
</a>
</g>
</g>
<!-- Node16&#45;&gt;Node14 -->
<g id="edge18_Node000016_Node000014" class="edge">
<title>Node16&#45;&gt;Node14</title>
<g id="a_edge18_Node000016_Node000014"><a xlink:title=" ">
<path fill="none" stroke="#63b8ff" d="M304.85,-97.77C327.63,-81.62 365.44,-56.46 401,-40.25 405.23,-38.32 409.65,-36.49 414.15,-34.76"/>
<polygon fill="#63b8ff" stroke="#63b8ff" points="415.11,-38.13 423.31,-31.43 412.72,-31.56 415.11,-38.13"/>
</a>
</g>
</g>
<!-- Node17 -->
<g id="Node000017" class="node">
<title>Node17</title>
<g id="a_Node000017"><a xlink:href="../../d0/d91/classml_1_1model_1_1_c_data_gatherer.html#abfdf685a3e3bd9099ba9cbd2cb31a842" target="_top" xlink:title="Get unique identifiers of any people that have been recycled.">
<polygon fill="white" stroke="#666666" points="548.62,-128.5 417.88,-128.5 417.88,-98 548.62,-98 548.62,-128.5"/>
<text text-anchor="start" x="425.88" y="-115" font-family="Helvetica,sans-Serif" font-size="10.00">ml::model::CDataGatherer</text>
<text text-anchor="middle" x="483.25" y="-103.75" font-family="Helvetica,sans-Serif" font-size="10.00">::recycledPersonIds</text>
</a>
</g>
</g>
<!-- Node16&#45;&gt;Node17 -->
<g id="edge19_Node000016_Node000017" class="edge">
<title>Node16&#45;&gt;Node17</title>
<g id="a_edge19_Node000016_Node000017"><a xlink:title=" ">
<path fill="none" stroke="#63b8ff" d="M355.13,-113.25C371.66,-113.25 389.31,-113.25 406.03,-113.25"/>
<polygon fill="#63b8ff" stroke="#63b8ff" points="405.92,-116.75 415.92,-113.25 405.92,-109.75 405.92,-116.75"/>
</a>
</g>
</g>
<!-- Node18 -->
<g id="Node000018" class="node">
<title>Node18</title>
<g id="a_Node000018"><a xlink:href="../../da/d88/classml_1_1model_1_1_c_anomaly_detector_model.html#a08e148d55e471baa28b50b6b41c5aa99" target="_top" xlink:title=" ">
<polygon fill="white" stroke="#666666" points="558.38,-79.5 408.12,-79.5 408.12,-49 558.38,-49 558.38,-79.5"/>
<text text-anchor="start" x="416.12" y="-66" font-family="Helvetica,sans-Serif" font-size="10.00">ml::model::CAnomalyDetector</text>
<text text-anchor="middle" x="483.25" y="-54.75" font-family="Helvetica,sans-Serif" font-size="10.00">Model::updateRecycledModels</text>
</a>
</g>
</g>
<!-- Node16&#45;&gt;Node18 -->
<g id="edge21_Node000016_Node000018" class="edge">
<title>Node16&#45;&gt;Node18</title>
<g id="a_edge21_Node000016_Node000018"><a xlink:title=" ">
<path fill="none" stroke="#63b8ff" d="M347.38,-97.54C366.52,-92.82 387.7,-87.59 407.49,-82.7"/>
<polygon fill="#63b8ff" stroke="#63b8ff" points="408.3,-86.11 417.17,-80.31 406.63,-79.31 408.3,-86.11"/>
</a>
</g>
</g>
<!-- Node17&#45;&gt;Node15 -->
<g id="edge20_Node000017_Node000015" class="edge">
<title>Node17&#45;&gt;Node15</title>
<g id="a_edge20_Node000017_Node000015"><a xlink:title=" ">
<path fill="none" stroke="#63b8ff" d="M547.88,-97.54C567.02,-92.82 588.2,-87.59 607.99,-82.7"/>
<polygon fill="#63b8ff" stroke="#63b8ff" points="608.8,-86.11 617.67,-80.31 607.13,-79.31 608.8,-86.11"/>
</a>
</g>
</g>
</g>
</svg>

<g id="navigator" transform="translate(0 0)" fill="#404254">
  <rect fill="#f2f5e9" fill-opacity="0.5" stroke="#606060" stroke-width=".5" x="0" y="0" width="60" height="60"/>
  <use id="zoomplus" xlink:href="#zoomPlus" x="17" y="9" onmousedown="handleZoom(evt,'in')"/>
  <use id="zoomminus" xlink:href="#zoomMin" x="42" y="9" onmousedown="handleZoom(evt,'out')"/>
  <use id="reset" xlink:href="#resetDef" x="30" y="36" onmousedown="handleReset()"/>
   <use id="arrowup" xlink:href="#arrowUp" x="0" y="0" onmousedown="handlePan(0,-1)"/>
  <use id="arrowright" xlink:href="#arrowRight" x="0" y="0" onmousedown="handlePan(1,0)"/>
  <use id="arrowdown" xlink:href="#arrowDown" x="0" y="0" onmousedown="handlePan(0,1)"/>
  <use id="arrowleft" xlink:href="#arrowLeft" x="0" y="0" onmousedown="handlePan(-1,0)"/>
</g>
<svg viewBox="0 0 15 15" width="100%" height="30px" preserveAspectRatio="xMaxYMin meet">
 <g id="arrow_out" transform="scale(0.3 0.3)">
  <a xlink:href="classml_1_1model_1_1_c_event_rate_population_model_a51dadb84c5ebdf79c105f299be36671e_cgraph_org.svg" target="_base">
   <rect id="button" ry="5" rx="5" y="6" x="6" height="38" width="38"
        fill="#f2f5e9" fill-opacity="0.5" stroke="#606060" stroke-width="1.0"/>
   <path id="arrow"
     d="M 11.500037,31.436501 C 11.940474,20.09759 22.043105,11.32322 32.158766,21.979434 L 37.068811,17.246167 C 37.068811,17.246167 37.088388,32 37.088388,32 L 22.160133,31.978069 C 22.160133,31.978069 26.997745,27.140456 26.997745,27.140456 C 18.528582,18.264221 13.291696,25.230495 11.500037,31.436501 z"
     style="fill:#404040;"/>
  </a>
 </g>
</svg>

<style type='text/css'>
<![CDATA[
[data-mouse-over-selected='false'] { opacity: 0.7; }
[data-mouse-over-selected='true']  { opacity: 1.0; }
]]>
</style>
<script type="application/ecmascript"><![CDATA[
document.addEventListener('DOMContentLoaded', (event) => {
  highlightEdges();
  highlightAdjacentNodes();
});
]]></script>
</svg>
