<?xml version="1.0" encoding="UTF-8" standalone="no"?>
<!DOCTYPE svg PUBLIC "-//W3C//DTD SVG 1.1//EN"
 "http://www.w3.org/Graphics/SVG/1.1/DTD/svg11.dtd">
<!-- Generated by graphviz version 10.0.1 (20240210.2158)
 -->
<!-- Title: ml::model::CEventRatePopulationModel::CEventRatePopulationModel Pages: 1 -->
<svg width="1335pt" height="719pt"
 viewBox="0.00 0.00 1335.00 718.50" xmlns="http://www.w3.org/2000/svg" xmlns:xlink="http://www.w3.org/1999/xlink">
<g id="graph0" class="graph" transform="scale(1 1) rotate(0) translate(4 714.5)">
<title>ml::model::CEventRatePopulationModel::CEventRatePopulationModel</title>
<!-- Node1 -->
<g id="Node000001" class="node">
<title>Node1</title>
<g id="a_Node000001"><a xlink:title=" ">
<polygon fill="#999999" stroke="#666666" points="174.25,-293.5 0,-293.5 0,-263 174.25,-263 174.25,-293.5"/>
<text text-anchor="start" x="8" y="-280" font-family="Helvetica,sans-Serif" font-size="10.00">ml::model::CEventRatePopulation</text>
<text text-anchor="middle" x="87.12" y="-268.75" font-family="Helvetica,sans-Serif" font-size="10.00">Model::CEventRatePopulationModel</text>
</a>
</g>
</g>
<!-- Node2 -->
<g id="Node000002" class="node">
<title>Node2</title>
<g id="a_Node000002"><a xlink:href="../../d0/d77/classml_1_1model_1_1_c_event_rate_population_model.html#a1ac375cfadf9ff01f2ab44b97245eea6" target="_top" xlink:title="Add to the contents of the object.">
<polygon fill="white" stroke="#666666" points="374.75,-315.5 210.25,-315.5 210.25,-285 374.75,-285 374.75,-315.5"/>
<text text-anchor="start" x="218.25" y="-302" font-family="Helvetica,sans-Serif" font-size="10.00">ml::model::CEventRatePopulation</text>
<text text-anchor="middle" x="292.5" y="-290.75" font-family="Helvetica,sans-Serif" font-size="10.00">Model::acceptRestoreTraverser</text>
</a>
</g>
</g>
<!-- Node1&#45;&gt;Node2 -->
<g id="edge1_Node000001_Node000002" class="edge">
<title>Node1&#45;&gt;Node2</title>
<g id="a_edge1_Node000001_Node000002"><a xlink:title=" ">
<path fill="none" stroke="#63b8ff" d="M174.67,-287.61C182.61,-288.47 190.67,-289.34 198.66,-290.21"/>
<polygon fill="#63b8ff" stroke="#63b8ff" points="198.06,-293.66 208.38,-291.26 198.81,-286.7 198.06,-293.66"/>
</a>
</g>
</g>
<!-- Node25 -->
<g id="Node000025" class="node">
<title>Node25</title>
<g id="a_Node000025"><a xlink:href="../../d2/d3f/classml_1_1core_1_1_c_state_restore_traverser.html#a210456e80c83786dec276d39556fd9e4" target="_top" xlink:title=" ">
<polygon fill="white" stroke="#666666" points="574.88,-127.5 411.12,-127.5 411.12,-97 574.88,-97 574.88,-127.5"/>
<text text-anchor="start" x="419.12" y="-114" font-family="Helvetica,sans-Serif" font-size="10.00">ml::core::CStateRestoreTraverser</text>
<text text-anchor="middle" x="493" y="-102.75" font-family="Helvetica,sans-Serif" font-size="10.00">::traverseSubLevel</text>
</a>
</g>
</g>
<!-- Node1&#45;&gt;Node25 -->
<g id="edge37_Node000001_Node000025" class="edge">
<title>Node1&#45;&gt;Node25</title>
<g id="a_edge37_Node000001_Node000025"><a xlink:title=" ">
<path fill="none" stroke="#63b8ff" d="M174.72,-275.77C247.63,-271.98 344.69,-262.41 374.75,-238.25 410.59,-209.44 378.03,-173.56 410.75,-141.25 413.55,-138.48 416.64,-135.98 419.91,-133.71"/>
<polygon fill="#63b8ff" stroke="#63b8ff" points="421.5,-136.84 428.3,-128.71 417.92,-130.83 421.5,-136.84"/>
</a>
</g>
</g>
<!-- Node26 -->
<g id="Node000026" class="node">
<title>Node26</title>
<g id="a_Node000026"><a xlink:href="../../d0/d77/classml_1_1model_1_1_c_event_rate_population_model.html#aa984f269458c6162aea9346f10955136" target="_top" xlink:title="Initialize the feature models.">
<polygon fill="white" stroke="#666666" points="575.25,-661.5 410.75,-661.5 410.75,-631 575.25,-631 575.25,-661.5"/>
<text text-anchor="start" x="418.75" y="-648" font-family="Helvetica,sans-Serif" font-size="10.00">ml::model::CEventRatePopulation</text>
<text text-anchor="middle" x="493" y="-636.75" font-family="Helvetica,sans-Serif" font-size="10.00">Model::initialize</text>
</a>
</g>
</g>
<!-- Node1&#45;&gt;Node26 -->
<g id="edge33_Node000001_Node000026" class="edge">
<title>Node1&#45;&gt;Node26</title>
<g id="a_edge33_Node000001_Node000026"><a xlink:title=" ">
<path fill="none" stroke="#63b8ff" d="M98.77,-293.85C135.69,-346.83 263.96,-521.81 410.75,-617.25 415.77,-620.52 421.21,-623.47 426.81,-626.13"/>
<polygon fill="#63b8ff" stroke="#63b8ff" points="425.06,-629.18 435.62,-629.99 427.87,-622.77 425.06,-629.18"/>
</a>
</g>
</g>
<!-- Node27 -->
<g id="Node000027" class="node">
<title>Node27</title>
<g id="a_Node000027"><a xlink:href="../../d2/d3f/classml_1_1core_1_1_c_state_restore_traverser.html#aca803b26910f74a487f9dfd94ab7d305" target="_top" xlink:title=" ">
<polygon fill="white" stroke="#666666" points="374.38,-229.5 210.62,-229.5 210.62,-199 374.38,-199 374.38,-229.5"/>
<text text-anchor="start" x="218.62" y="-216" font-family="Helvetica,sans-Serif" font-size="10.00">ml::core::CStateRestoreTraverser</text>
<text text-anchor="middle" x="292.5" y="-204.75" font-family="Helvetica,sans-Serif" font-size="10.00">::setBadState</text>
</a>
</g>
</g>
<!-- Node1&#45;&gt;Node27 -->
<g id="edge36_Node000001_Node000027" class="edge">
<title>Node1&#45;&gt;Node27</title>
<g id="a_edge36_Node000001_Node000027"><a xlink:title=" ">
<path fill="none" stroke="#63b8ff" d="M138.14,-262.51C166.21,-253.68 201.44,-242.59 231.05,-233.27"/>
<polygon fill="#63b8ff" stroke="#63b8ff" points="231.75,-236.72 240.24,-230.38 229.65,-230.04 231.75,-236.72"/>
</a>
</g>
</g>
<!-- Node3 -->
<g id="Node000003" class="node">
<title>Node3</title>
<g id="a_Node000003"><a xlink:href="../../d0/d77/classml_1_1model_1_1_c_event_rate_population_model.html#a567b2377b2c355f68a3de55317742586" target="_top" xlink:title=" ">
<polygon fill="white" stroke="#666666" points="575.25,-489.5 410.75,-489.5 410.75,-459 575.25,-459 575.25,-489.5"/>
<text text-anchor="start" x="418.75" y="-476" font-family="Helvetica,sans-Serif" font-size="10.00">ml::model::CEventRatePopulation</text>
<text text-anchor="middle" x="493" y="-464.75" font-family="Helvetica,sans-Serif" font-size="10.00">Model::correlates</text>
</a>
</g>
</g>
<!-- Node2&#45;&gt;Node3 -->
<g id="edge2_Node000002_Node000003" class="edge">
<title>Node2&#45;&gt;Node3</title>
<g id="a_edge2_Node000002_Node000003"><a xlink:title=" ">
<path fill="none" stroke="#63b8ff" d="M311.47,-316C346.6,-346.8 424.55,-415.13 465.58,-451.09"/>
<polygon fill="#63b8ff" stroke="#63b8ff" points="463.25,-453.71 473.08,-457.67 467.87,-448.44 463.25,-453.71"/>
</a>
</g>
</g>
<!-- Node11 -->
<g id="Node000011" class="node">
<title>Node11</title>
<g id="a_Node000011"><a xlink:href="../../d0/d77/classml_1_1model_1_1_c_event_rate_population_model.html#af92625c71c433efde0537885486e294d" target="_top" xlink:title=" ">
<polygon fill="white" stroke="#666666" points="775.75,-643.5 611.25,-643.5 611.25,-613 775.75,-613 775.75,-643.5"/>
<text text-anchor="start" x="619.25" y="-630" font-family="Helvetica,sans-Serif" font-size="10.00">ml::model::CEventRatePopulation</text>
<text text-anchor="middle" x="693.5" y="-618.75" font-family="Helvetica,sans-Serif" font-size="10.00">Model::model</text>
</a>
</g>
</g>
<!-- Node2&#45;&gt;Node11 -->
<g id="edge21_Node000002_Node000011" class="edge">
<title>Node2&#45;&gt;Node11</title>
<g id="a_edge21_Node000002_Node000011"><a xlink:title=" ">
<path fill="none" stroke="#63b8ff" d="M297.99,-315.76C309.75,-353.45 345.13,-450.25 410.75,-498.25 471.31,-542.55 515.62,-490.7 575.25,-536.25 602.11,-556.77 585.14,-581.78 611.25,-603.25 612.78,-604.51 614.37,-605.7 616.01,-606.83"/>
<polygon fill="#63b8ff" stroke="#63b8ff" points="614.22,-609.84 624.61,-611.92 617.79,-603.82 614.22,-609.84"/>
</a>
</g>
</g>
<!-- Node12 -->
<g id="Node000012" class="node">
<title>Node12</title>
<g id="a_Node000012"><a xlink:href="../../da/d88/classml_1_1model_1_1_c_anomaly_detector_model.html#ac686c4aa0380892a80c605adbdf36842" target="_top" xlink:title="Get the global configuration parameters.">
<polygon fill="white" stroke="#666666" points="767.5,-710.5 619.5,-710.5 619.5,-680 767.5,-680 767.5,-710.5"/>
<text text-anchor="start" x="627.5" y="-697" font-family="Helvetica,sans-Serif" font-size="10.00">ml::model::CAnomalyDetector</text>
<text text-anchor="middle" x="693.5" y="-685.75" font-family="Helvetica,sans-Serif" font-size="10.00">Model::params</text>
</a>
</g>
</g>
<!-- Node2&#45;&gt;Node12 -->
<g id="edge25_Node000002_Node000012" class="edge">
<title>Node2&#45;&gt;Node12</title>
<g id="a_edge25_Node000002_Node000012"><a xlink:title=" ">
<path fill="none" stroke="#63b8ff" d="M304.92,-315.62C322.39,-339.85 355.74,-388.94 374.75,-435.25 400.62,-498.28 362.34,-536.32 410.75,-584.25 464.07,-637.04 512.37,-581.31 575.25,-622.25 597.6,-636.8 589.44,-654.91 611.25,-670.25 613.31,-671.7 615.46,-673.07 617.67,-674.35"/>
<polygon fill="#63b8ff" stroke="#63b8ff" points="615.88,-677.37 626.38,-678.83 619.08,-671.15 615.88,-677.37"/>
</a>
</g>
</g>
<!-- Node14 -->
<g id="Node000014" class="node">
<title>Node14</title>
<g id="a_Node000014"><a xlink:href="../../dc/d29/classml_1_1model_1_1_c_population_model.html#adb364e3b8658b4e3bbb2bab8150be8d5" target="_top" xlink:title="Restore the model reading state from the supplied traverser.">
<polygon fill="white" stroke="#666666" points="565.12,-213.5 420.88,-213.5 420.88,-183 565.12,-183 565.12,-213.5"/>
<text text-anchor="start" x="428.88" y="-200" font-family="Helvetica,sans-Serif" font-size="10.00">ml::model::CPopulationModel</text>
<text text-anchor="middle" x="493" y="-188.75" font-family="Helvetica,sans-Serif" font-size="10.00">::doAcceptRestoreTraverser</text>
</a>
</g>
</g>
<!-- Node2&#45;&gt;Node14 -->
<g id="edge14_Node000002_Node000014" class="edge">
<title>Node2&#45;&gt;Node14</title>
<g id="a_edge14_Node000002_Node000014"><a xlink:title=" ">
<path fill="none" stroke="#63b8ff" d="M350.11,-284.57C358.76,-280.92 367.28,-276.51 374.75,-271.25 395.4,-256.69 390.1,-241.81 410.75,-227.25 415.18,-224.12 419.99,-221.3 424.97,-218.76"/>
<polygon fill="#63b8ff" stroke="#63b8ff" points="426.42,-221.95 434.02,-214.57 423.47,-215.6 426.42,-221.95"/>
</a>
</g>
</g>
<!-- Node15 -->
<g id="Node000015" class="node">
<title>Node15</title>
<g id="a_Node000015"><a xlink:href="../../d2/d3f/classml_1_1core_1_1_c_state_restore_traverser.html#af68782b2ed0c98177d130d9196f97889" target="_top" xlink:title=" ">
<polygon fill="white" stroke="#666666" points="775.38,-275.5 611.62,-275.5 611.62,-245 775.38,-245 775.38,-275.5"/>
<text text-anchor="start" x="619.62" y="-262" font-family="Helvetica,sans-Serif" font-size="10.00">ml::core::CStateRestoreTraverser</text>
<text text-anchor="middle" x="693.5" y="-250.75" font-family="Helvetica,sans-Serif" font-size="10.00">::name</text>
</a>
</g>
</g>
<!-- Node2&#45;&gt;Node15 -->
<g id="edge23_Node000002_Node000015" class="edge">
<title>Node2&#45;&gt;Node15</title>
<g id="a_edge23_Node000002_Node000015"><a xlink:title=" ">
<path fill="none" stroke="#63b8ff" d="M375.21,-292.06C440.54,-285.51 532.13,-276.33 600.12,-269.51"/>
<polygon fill="#63b8ff" stroke="#63b8ff" points="600.14,-273.03 609.74,-268.55 599.44,-266.06 600.14,-273.03"/>
</a>
</g>
</g>
<!-- Node16 -->
<g id="Node000016" class="node">
<title>Node16</title>
<g id="a_Node000016"><a xlink:href="../../d2/d3f/classml_1_1core_1_1_c_state_restore_traverser.html#a733d8051e128c5d7421707afadb31ab7" target="_top" xlink:title=" ">
<polygon fill="white" stroke="#666666" points="775.38,-226.5 611.62,-226.5 611.62,-196 775.38,-196 775.38,-226.5"/>
<text text-anchor="start" x="619.62" y="-213" font-family="Helvetica,sans-Serif" font-size="10.00">ml::core::CStateRestoreTraverser</text>
<text text-anchor="middle" x="693.5" y="-201.75" font-family="Helvetica,sans-Serif" font-size="10.00">::next</text>
</a>
</g>
</g>
<!-- Node2&#45;&gt;Node16 -->
<g id="edge24_Node000002_Node000016" class="edge">
<title>Node2&#45;&gt;Node16</title>
<g id="a_edge24_Node000002_Node000016"><a xlink:title=" ">
<path fill="none" stroke="#63b8ff" d="M348.18,-284.51C367.84,-279.07 390.22,-273.12 410.75,-268.25 473.67,-253.32 545.07,-238.9 600.26,-228.3"/>
<polygon fill="#63b8ff" stroke="#63b8ff" points="600.77,-231.76 609.94,-226.45 599.46,-224.89 600.77,-231.76"/>
</a>
</g>
</g>
<!-- Node18 -->
<g id="Node000018" class="node">
<title>Node18</title>
<g id="a_Node000018"><a xlink:href="../../de/df5/classml_1_1core_1_1_c_persist_utils.html#a072afe5547a4892cfb84eafcda2619c2" target="_top" xlink:title="Restore collection reading state from traverser expecting tag for elements.">
<polygon fill="white" stroke="#666666" points="751.38,-30.5 635.62,-30.5 635.62,0 751.38,0 751.38,-30.5"/>
<text text-anchor="start" x="643.62" y="-17" font-family="Helvetica,sans-Serif" font-size="10.00">ml::core::CPersistUtils</text>
<text text-anchor="middle" x="693.5" y="-5.75" font-family="Helvetica,sans-Serif" font-size="10.00">::restore</text>
</a>
</g>
</g>
<!-- Node2&#45;&gt;Node18 -->
<g id="edge26_Node000002_Node000018" class="edge">
<title>Node2&#45;&gt;Node18</title>
<g id="a_edge26_Node000002_Node000018"><a xlink:title=" ">
<path fill="none" stroke="#63b8ff" d="M354.27,-284.6C361.79,-280.79 368.89,-276.08 374.75,-270.25 407.05,-238.11 376.48,-204.28 410.75,-174.25 467.19,-124.8 518.81,-185.7 575.25,-136.25 609.52,-106.22 578.07,-71.49 611.25,-40.25 615.27,-36.47 619.85,-33.25 624.74,-30.53"/>
<polygon fill="#63b8ff" stroke="#63b8ff" points="626.24,-33.69 633.77,-26.24 623.23,-27.37 626.24,-33.69"/>
</a>
</g>
</g>
<!-- Node21 -->
<g id="Node000021" class="node">
<title>Node21</title>
<g id="a_Node000021"><a xlink:href="../../d7/d92/classml_1_1maths_1_1common_1_1_c_model.html#a182ccc4daf5025b0feb707789a203935" target="_top" xlink:title="Tell this to model correlations.">
<polygon fill="white" stroke="#666666" points="560.25,-575.5 425.75,-575.5 425.75,-545 560.25,-545 560.25,-575.5"/>
<text text-anchor="start" x="433.75" y="-562" font-family="Helvetica,sans-Serif" font-size="10.00">ml::maths::common::</text>
<text text-anchor="middle" x="493" y="-550.75" font-family="Helvetica,sans-Serif" font-size="10.00">CModel::modelCorrelations</text>
</a>
</g>
</g>
<!-- Node2&#45;&gt;Node21 -->
<g id="edge22_Node000002_Node000021" class="edge">
<title>Node2&#45;&gt;Node21</title>
<g id="a_edge22_Node000002_Node000021"><a xlink:title=" ">
<path fill="none" stroke="#63b8ff" d="M299.66,-315.91C318.31,-362.65 375.06,-499.82 410.75,-531.25 414.07,-534.17 417.7,-536.81 421.54,-539.18"/>
<polygon fill="#63b8ff" stroke="#63b8ff" points="419.62,-542.12 430.08,-543.84 422.97,-535.98 419.62,-542.12"/>
</a>
</g>
</g>
<!-- Node22 -->
<g id="Node000022" class="node">
<title>Node22</title>
<g id="a_Node000022"><a xlink:href="../../d5/d97/classml_1_1maths_1_1common_1_1_c_multinomial_conjugate.html#a42234485447630f5f9cf0dd8c87b116a" target="_top" xlink:title="Efficient swap of the contents of this prior and other.">
<polygon fill="white" stroke="#666666" points="566.25,-337.5 419.75,-337.5 419.75,-307 566.25,-307 566.25,-337.5"/>
<text text-anchor="start" x="427.75" y="-324" font-family="Helvetica,sans-Serif" font-size="10.00">ml::maths::common::</text>
<text text-anchor="middle" x="493" y="-312.75" font-family="Helvetica,sans-Serif" font-size="10.00">CMultinomialConjugate::swap</text>
</a>
</g>
</g>
<!-- Node2&#45;&gt;Node22 -->
<g id="edge27_Node000002_Node000022" class="edge">
<title>Node2&#45;&gt;Node22</title>
<g id="a_edge27_Node000002_Node000022"><a xlink:title=" ">
<path fill="none" stroke="#63b8ff" d="M375.1,-309.29C385.97,-310.5 397.13,-311.74 408.05,-312.95"/>
<polygon fill="#63b8ff" stroke="#63b8ff" points="407.47,-316.4 417.8,-314.03 408.25,-309.45 407.47,-316.4"/>
</a>
</g>
</g>
<!-- Node2&#45;&gt;Node25 -->
<g id="edge32_Node000002_Node000025" class="edge">
<title>Node2&#45;&gt;Node25</title>
<g id="a_edge32_Node000002_Node000025"><a xlink:title=" ">
<path fill="none" stroke="#63b8ff" d="M357.16,-284.57C363.69,-281 369.75,-276.62 374.75,-271.25 415.57,-227.35 369.93,-185.15 410.75,-141.25 413.17,-138.65 415.84,-136.28 418.69,-134.12"/>
<polygon fill="#63b8ff" stroke="#63b8ff" points="420.54,-137.09 427.07,-128.74 416.76,-131.2 420.54,-137.09"/>
</a>
</g>
</g>
<!-- Node4 -->
<g id="Node000004" class="node">
<title>Node4</title>
<g id="a_Node000004"><a xlink:href="../../d7/d92/classml_1_1maths_1_1common_1_1_c_model.html#a723df93e21eba7a5aad0bcaa6ce05a3f" target="_top" xlink:title="Get the correlated time series identifier pairs if any.">
<polygon fill="white" stroke="#666666" points="748,-594.5 639,-594.5 639,-564 748,-564 748,-594.5"/>
<text text-anchor="start" x="647" y="-581" font-family="Helvetica,sans-Serif" font-size="10.00">ml::maths::common::</text>
<text text-anchor="middle" x="693.5" y="-569.75" font-family="Helvetica,sans-Serif" font-size="10.00">CModel::correlates</text>
</a>
</g>
</g>
<!-- Node3&#45;&gt;Node4 -->
<g id="edge3_Node000003_Node000004" class="edge">
<title>Node3&#45;&gt;Node4</title>
<g id="a_edge3_Node000003_Node000004"><a xlink:title=" ">
<path fill="none" stroke="#63b8ff" d="M552.26,-489.97C560.41,-493.59 568.36,-497.96 575.25,-503.25 597.56,-520.35 588.47,-538.78 611.25,-555.25 616.44,-559.01 622.22,-562.18 628.23,-564.86"/>
<polygon fill="#63b8ff" stroke="#63b8ff" points="626.52,-567.94 637.11,-568.36 629.09,-561.43 626.52,-567.94"/>
</a>
</g>
</g>
<!-- Node5 -->
<g id="Node000005" class="node">
<title>Node5</title>
<g id="a_Node000005"><a xlink:href="../../df/d9c/namespaceml_1_1model__t.html#a9ac31e9688577d75c839165d8ac1b667" target="_top" xlink:title="Get the dimension of the feature feature.">
<polygon fill="white" stroke="#666666" points="752.12,-545.88 634.88,-545.88 634.88,-526.62 752.12,-526.62 752.12,-545.88"/>
<text text-anchor="middle" x="693.5" y="-532.38" font-family="Helvetica,sans-Serif" font-size="10.00">ml::model_t::dimension</text>
</a>
</g>
</g>
<!-- Node3&#45;&gt;Node5 -->
<g id="edge4_Node000003_Node000005" class="edge">
<title>Node3&#45;&gt;Node5</title>
<g id="a_edge4_Node000003_Node000005"><a xlink:title=" ">
<path fill="none" stroke="#63b8ff" d="M538.78,-489.98C550.66,-494.22 563.46,-498.86 575.25,-503.25 591.34,-509.25 594.85,-512.17 611.25,-517.25 618.41,-519.47 625.99,-521.56 633.54,-523.5"/>
<polygon fill="#63b8ff" stroke="#63b8ff" points="632.49,-526.85 643.04,-525.85 634.17,-520.05 632.49,-526.85"/>
</a>
</g>
</g>
<!-- Node6 -->
<g id="Node000006" class="node">
<title>Node6</title>
<g id="a_Node000006"><a xlink:href="../../d0/d91/classml_1_1model_1_1_c_data_gatherer.html#a6a78bb3800805de96968d1e28728ad44" target="_top" xlink:title="Extract the attribute identifier from a tuple.">
<polygon fill="white" stroke="#666666" points="758.88,-508.5 628.12,-508.5 628.12,-478 758.88,-478 758.88,-508.5"/>
<text text-anchor="start" x="636.12" y="-495" font-family="Helvetica,sans-Serif" font-size="10.00">ml::model::CDataGatherer</text>
<text text-anchor="middle" x="693.5" y="-483.75" font-family="Helvetica,sans-Serif" font-size="10.00">::extractAttributeId</text>
</a>
</g>
</g>
<!-- Node3&#45;&gt;Node6 -->
<g id="edge5_Node000003_Node000006" class="edge">
<title>Node3&#45;&gt;Node6</title>
<g id="a_edge5_Node000003_Node000006"><a xlink:title=" ">
<path fill="none" stroke="#63b8ff" d="M575.6,-482.06C589.21,-483.36 603.29,-484.71 616.75,-486"/>
<polygon fill="#63b8ff" stroke="#63b8ff" points="616.1,-489.45 626.39,-486.92 616.77,-482.48 616.1,-489.45"/>
</a>
</g>
</g>
<!-- Node7 -->
<g id="Node000007" class="node">
<title>Node7</title>
<g id="a_Node000007"><a xlink:href="../../d0/d77/classml_1_1model_1_1_c_event_rate_population_model.html#a7f91fd669d77656422b4e21fe69291a9" target="_top" xlink:title="Get the feature data corresponding to feature at time.">
<polygon fill="white" stroke="#666666" points="775.75,-459.5 611.25,-459.5 611.25,-429 775.75,-429 775.75,-459.5"/>
<text text-anchor="start" x="619.25" y="-446" font-family="Helvetica,sans-Serif" font-size="10.00">ml::model::CEventRatePopulation</text>
<text text-anchor="middle" x="693.5" y="-434.75" font-family="Helvetica,sans-Serif" font-size="10.00">Model::featureData</text>
</a>
</g>
</g>
<!-- Node3&#45;&gt;Node7 -->
<g id="edge6_Node000003_Node000007" class="edge">
<title>Node3&#45;&gt;Node7</title>
<g id="a_edge6_Node000003_Node000007"><a xlink:title=" ">
<path fill="none" stroke="#63b8ff" d="M575.6,-461.92C583.52,-460.72 591.6,-459.5 599.62,-458.29"/>
<polygon fill="#63b8ff" stroke="#63b8ff" points="600.04,-461.76 609.4,-456.81 598.99,-454.84 600.04,-461.76"/>
</a>
</g>
</g>
<!-- Node3&#45;&gt;Node11 -->
<g id="edge10_Node000003_Node000011" class="edge">
<title>Node3&#45;&gt;Node11</title>
<g id="a_edge10_Node000003_Node000011"><a xlink:title=" ">
<path fill="none" stroke="#63b8ff" d="M556.46,-489.88C563.36,-493.46 569.84,-497.86 575.25,-503.25 608.7,-536.61 577.07,-570.64 611.25,-603.25 612.45,-604.4 613.7,-605.49 615,-606.53"/>
<polygon fill="#63b8ff" stroke="#63b8ff" points="612.64,-609.16 622.88,-611.87 616.57,-603.37 612.64,-609.16"/>
</a>
</g>
</g>
<!-- Node3&#45;&gt;Node12 -->
<g id="edge12_Node000003_Node000012" class="edge">
<title>Node3&#45;&gt;Node12</title>
<g id="a_edge12_Node000003_Node000012"><a xlink:title=" ">
<path fill="none" stroke="#63b8ff" d="M523.14,-489.86C540.69,-500.68 562.11,-516.65 575.25,-536.25 609.6,-587.47 568.44,-625.87 611.25,-670.25 612.12,-671.15 613.02,-672.02 613.95,-672.86"/>
<polygon fill="#63b8ff" stroke="#63b8ff" points="611.7,-675.55 621.81,-678.7 615.87,-669.93 611.7,-675.55"/>
</a>
</g>
</g>
<!-- Node13 -->
<g id="Node000013" class="node">
<title>Node13</title>
<g id="a_Node000013"><a xlink:href="../../dc/d29/classml_1_1model_1_1_c_population_model.html#a07ce54312f4db453d4f9125a0c43b080" target="_top" xlink:title=" ">
<polygon fill="white" stroke="#666666" points="765.62,-410.5 621.38,-410.5 621.38,-380 765.62,-380 765.62,-410.5"/>
<text text-anchor="start" x="629.38" y="-397" font-family="Helvetica,sans-Serif" font-size="10.00">ml::model::CPopulationModel</text>
<text text-anchor="middle" x="693.5" y="-385.75" font-family="Helvetica,sans-Serif" font-size="10.00">::personRange</text>
</a>
</g>
</g>
<!-- Node3&#45;&gt;Node13 -->
<g id="edge13_Node000003_Node000013" class="edge">
<title>Node3&#45;&gt;Node13</title>
<g id="a_edge13_Node000003_Node000013"><a xlink:title=" ">
<path fill="none" stroke="#63b8ff" d="M524.87,-458.66C548.24,-447.2 581.31,-431.69 611.25,-420.25 616.46,-418.26 621.9,-416.31 627.39,-414.44"/>
<polygon fill="#63b8ff" stroke="#63b8ff" points="628.14,-417.88 636.53,-411.41 625.93,-411.23 628.14,-417.88"/>
</a>
</g>
</g>
<!-- Node8 -->
<g id="Node000008" class="node">
<title>Node8</title>
<g id="a_Node000008"><a xlink:href="../../d0/d77/classml_1_1model_1_1_c_event_rate_population_model.html#aa3342e2e5773af3f39d810405de46e35" target="_top" xlink:title="Check if bucket statistics are available for the specified time.">
<polygon fill="white" stroke="#666666" points="976.25,-459.5 811.75,-459.5 811.75,-429 976.25,-429 976.25,-459.5"/>
<text text-anchor="start" x="819.75" y="-446" font-family="Helvetica,sans-Serif" font-size="10.00">ml::model::CEventRatePopulation</text>
<text text-anchor="middle" x="894" y="-434.75" font-family="Helvetica,sans-Serif" font-size="10.00">Model::bucketStatsAvailable</text>
</a>
</g>
</g>
<!-- Node7&#45;&gt;Node8 -->
<g id="edge7_Node000007_Node000008" class="edge">
<title>Node7&#45;&gt;Node8</title>
<g id="a_edge7_Node000007_Node000008"><a xlink:title=" ">
<path fill="none" stroke="#63b8ff" d="M776.1,-444.25C784.02,-444.25 792.1,-444.25 800.12,-444.25"/>
<polygon fill="#63b8ff" stroke="#63b8ff" points="799.89,-447.75 809.89,-444.25 799.89,-440.75 799.89,-447.75"/>
</a>
</g>
</g>
<!-- Node9 -->
<g id="Node000009" class="node">
<title>Node9</title>
<g id="a_Node000009"><a xlink:href="../../da/d88/classml_1_1model_1_1_c_anomaly_detector_model.html#aba56af5c27a1bb113941c81977171f5e" target="_top" xlink:title="Get the length of the time interval used to aggregate data.">
<polygon fill="white" stroke="#666666" points="1160.25,-459.5 1012.25,-459.5 1012.25,-429 1160.25,-429 1160.25,-459.5"/>
<text text-anchor="start" x="1020.25" y="-446" font-family="Helvetica,sans-Serif" font-size="10.00">ml::model::CAnomalyDetector</text>
<text text-anchor="middle" x="1086.25" y="-434.75" font-family="Helvetica,sans-Serif" font-size="10.00">Model::bucketLength</text>
</a>
</g>
</g>
<!-- Node8&#45;&gt;Node9 -->
<g id="edge8_Node000008_Node000009" class="edge">
<title>Node8&#45;&gt;Node9</title>
<g id="a_edge8_Node000008_Node000009"><a xlink:title=" ">
<path fill="none" stroke="#63b8ff" d="M976.51,-444.25C984.53,-444.25 992.68,-444.25 1000.73,-444.25"/>
<polygon fill="#63b8ff" stroke="#63b8ff" points="1000.51,-447.75 1010.51,-444.25 1000.51,-440.75 1000.51,-447.75"/>
</a>
</g>
</g>
<!-- Node10 -->
<g id="Node000010" class="node">
<title>Node10</title>
<g id="a_Node000010"><a xlink:href="../../d0/d91/classml_1_1model_1_1_c_data_gatherer.html#acea33437fdc2fb56e45d93d41deffc87" target="_top" xlink:title="Get the length of the bucketing time interval.">
<polygon fill="white" stroke="#666666" points="1327,-459.5 1196.25,-459.5 1196.25,-429 1327,-429 1327,-459.5"/>
<text text-anchor="start" x="1204.25" y="-446" font-family="Helvetica,sans-Serif" font-size="10.00">ml::model::CDataGatherer</text>
<text text-anchor="middle" x="1261.62" y="-434.75" font-family="Helvetica,sans-Serif" font-size="10.00">::bucketLength</text>
</a>
</g>
</g>
<!-- Node9&#45;&gt;Node10 -->
<g id="edge9_Node000009_Node000010" class="edge">
<title>Node9&#45;&gt;Node10</title>
<g id="a_edge9_Node000009_Node000010"><a xlink:title=" ">
<path fill="none" stroke="#63b8ff" d="M1160.53,-444.25C1168.41,-444.25 1176.45,-444.25 1184.37,-444.25"/>
<polygon fill="#63b8ff" stroke="#63b8ff" points="1184.34,-447.75 1194.34,-444.25 1184.34,-440.75 1184.34,-447.75"/>
</a>
</g>
</g>
<!-- Node11&#45;&gt;Node11 -->
<g id="edge11_Node000011_Node000011" class="edge">
<title>Node11&#45;&gt;Node11</title>
<g id="a_edge11_Node000011_Node000011"><a xlink:title=" ">
<path fill="none" stroke="#63b8ff" d="M657.97,-643.99C650.72,-653.06 662.56,-661.5 693.5,-661.5 710.42,-661.5 721.63,-658.97 727.12,-655.2"/>
<polygon fill="#63b8ff" stroke="#63b8ff" points="730.55,-655.92 728.78,-645.48 723.65,-654.75 730.55,-655.92"/>
</a>
</g>
</g>
<!-- Node14&#45;&gt;Node15 -->
<g id="edge15_Node000014_Node000015" class="edge">
<title>Node14&#45;&gt;Node15</title>
<g id="a_edge15_Node000014_Node000015"><a xlink:title=" ">
<path fill="none" stroke="#63b8ff" d="M543.61,-213.99C564.48,-220.59 589.04,-228.33 611.25,-235.25 617.48,-237.19 623.98,-239.21 630.47,-241.21"/>
<polygon fill="#63b8ff" stroke="#63b8ff" points="629.31,-244.52 639.89,-244.12 631.37,-237.83 629.31,-244.52"/>
</a>
</g>
</g>
<!-- Node14&#45;&gt;Node16 -->
<g id="edge16_Node000014_Node000016" class="edge">
<title>Node14&#45;&gt;Node16</title>
<g id="a_edge16_Node000014_Node000016"><a xlink:title=" ">
<path fill="none" stroke="#63b8ff" d="M565.38,-202.92C576.67,-203.66 588.48,-204.44 600.16,-205.2"/>
<polygon fill="#63b8ff" stroke="#63b8ff" points="599.58,-208.67 609.79,-205.83 600.04,-201.69 599.58,-208.67"/>
</a>
</g>
</g>
<!-- Node17 -->
<g id="Node000017" class="node">
<title>Node17</title>
<g id="a_Node000017"><a xlink:href="../../da/d88/classml_1_1model_1_1_c_anomaly_detector_model.html#ae8ee1fb659a027d9ce811237b0757e6e" target="_top" xlink:title="Get the person bucket counts.">
<polygon fill="white" stroke="#666666" points="767.5,-128.5 619.5,-128.5 619.5,-98 767.5,-98 767.5,-128.5"/>
<text text-anchor="start" x="627.5" y="-115" font-family="Helvetica,sans-Serif" font-size="10.00">ml::model::CAnomalyDetector</text>
<text text-anchor="middle" x="693.5" y="-103.75" font-family="Helvetica,sans-Serif" font-size="10.00">Model::personBucketCounts</text>
</a>
</g>
</g>
<!-- Node14&#45;&gt;Node17 -->
<g id="edge17_Node000014_Node000017" class="edge">
<title>Node14&#45;&gt;Node17</title>
<g id="a_edge17_Node000014_Node000017"><a xlink:title=" ">
<path fill="none" stroke="#63b8ff" d="M546.85,-182.59C556.59,-178.82 566.45,-174.37 575.25,-169.25 593.5,-158.63 592.77,-148.46 611.25,-138.25 614.42,-136.5 617.72,-134.86 621.1,-133.32"/>
<polygon fill="#63b8ff" stroke="#63b8ff" points="622.18,-136.66 630.06,-129.58 619.48,-130.2 622.18,-136.66"/>
</a>
</g>
</g>
<!-- Node14&#45;&gt;Node18 -->
<g id="edge18_Node000014_Node000018" class="edge">
<title>Node14&#45;&gt;Node18</title>
<g id="a_edge18_Node000014_Node000018"><a xlink:title=" ">
<path fill="none" stroke="#63b8ff" d="M557.65,-182.56C564.18,-179 570.25,-174.62 575.25,-169.25 615.83,-125.7 569.72,-82.89 611.25,-40.25 615.33,-36.06 620.09,-32.57 625.23,-29.66"/>
<polygon fill="#63b8ff" stroke="#63b8ff" points="626.61,-32.88 634.12,-25.41 623.59,-26.57 626.61,-32.88"/>
</a>
</g>
</g>
<!-- Node19 -->
<g id="Node000019" class="node">
<title>Node19</title>
<g id="a_Node000019"><a xlink:href="../../d1/dfa/classml_1_1core_1_1_c_string_utils.html#a932b52350cb193f474a02ee4758edc22" target="_top" xlink:title="Convert a string to a type.">
<polygon fill="white" stroke="#666666" points="748.75,-79.5 638.25,-79.5 638.25,-49 748.75,-49 748.75,-79.5"/>
<text text-anchor="start" x="646.25" y="-66" font-family="Helvetica,sans-Serif" font-size="10.00">ml::core::CStringUtils</text>
<text text-anchor="middle" x="693.5" y="-54.75" font-family="Helvetica,sans-Serif" font-size="10.00">::stringToType</text>
</a>
</g>
</g>
<!-- Node14&#45;&gt;Node19 -->
<g id="edge19_Node000014_Node000019" class="edge">
<title>Node14&#45;&gt;Node19</title>
<g id="a_edge19_Node000014_Node000019"><a xlink:title=" ">
<path fill="none" stroke="#63b8ff" d="M555.24,-182.62C562.52,-179.03 569.42,-174.63 575.25,-169.25 603.9,-142.81 582.02,-115.05 611.25,-89.25 616.14,-84.93 621.76,-81.36 627.72,-78.41"/>
<polygon fill="#63b8ff" stroke="#63b8ff" points="628.8,-81.75 636.61,-74.59 626.04,-75.32 628.8,-81.75"/>
</a>
</g>
</g>
<!-- Node20 -->
<g id="Node000020" class="node">
<title>Node20</title>
<g id="a_Node000020"><a xlink:href="../../d2/d3f/classml_1_1core_1_1_c_state_restore_traverser.html#a296f348a615834e66071cdd4b2802ea7" target="_top" xlink:title=" ">
<polygon fill="white" stroke="#666666" points="775.38,-177.5 611.62,-177.5 611.62,-147 775.38,-147 775.38,-177.5"/>
<text text-anchor="start" x="619.62" y="-164" font-family="Helvetica,sans-Serif" font-size="10.00">ml::core::CStateRestoreTraverser</text>
<text text-anchor="middle" x="693.5" y="-152.75" font-family="Helvetica,sans-Serif" font-size="10.00">::value</text>
</a>
</g>
</g>
<!-- Node14&#45;&gt;Node20 -->
<g id="edge20_Node000014_Node000020" class="edge">
<title>Node14&#45;&gt;Node20</title>
<g id="a_edge20_Node000014_Node000020"><a xlink:title=" ">
<path fill="none" stroke="#63b8ff" d="M565.38,-185.3C576.67,-183.26 588.48,-181.12 600.16,-179"/>
<polygon fill="#63b8ff" stroke="#63b8ff" points="600.6,-182.47 609.81,-177.25 599.35,-175.59 600.6,-182.47"/>
</a>
</g>
</g>
<!-- Node23 -->
<g id="Node000023" class="node">
<title>Node23</title>
<g id="a_Node000023"><a xlink:href="../../d6/d99/classml_1_1maths_1_1common_1_1_c_prior.html#a4ef6e7ff28c4e5a1c85a17a841b373fb" target="_top" xlink:title="Swap the contents of this prior and other.">
<polygon fill="white" stroke="#666666" points="748,-324.5 639,-324.5 639,-294 748,-294 748,-324.5"/>
<text text-anchor="start" x="647" y="-311" font-family="Helvetica,sans-Serif" font-size="10.00">ml::maths::common::</text>
<text text-anchor="middle" x="693.5" y="-299.75" font-family="Helvetica,sans-Serif" font-size="10.00">CPrior::swap</text>
</a>
</g>
</g>
<!-- Node22&#45;&gt;Node23 -->
<g id="edge28_Node000022_Node000023" class="edge">
<title>Node22&#45;&gt;Node23</title>
<g id="a_edge28_Node000022_Node000023"><a xlink:title=" ">
<path fill="none" stroke="#63b8ff" d="M566.51,-317.5C586.32,-316.2 607.67,-314.81 627.06,-313.54"/>
<polygon fill="#63b8ff" stroke="#63b8ff" points="627.27,-317.03 637.02,-312.88 626.82,-310.04 627.27,-317.03"/>
</a>
</g>
</g>
<!-- Node24 -->
<g id="Node000024" class="node">
<title>Node24</title>
<g id="a_Node000024"><a xlink:href="../../d8/dcc/namespacestd.html#a434882411757f6c0833c939d997bc4e3" target="_top" xlink:title=" ">
<polygon fill="white" stroke="#666666" points="923.38,-340.88 864.62,-340.88 864.62,-321.62 923.38,-321.62 923.38,-340.88"/>
<text text-anchor="middle" x="894" y="-327.38" font-family="Helvetica,sans-Serif" font-size="10.00">std::swap</text>
</a>
</g>
</g>
<!-- Node22&#45;&gt;Node24 -->
<g id="edge31_Node000022_Node000024" class="edge">
<title>Node22&#45;&gt;Node24</title>
<g id="a_edge31_Node000022_Node000024"><a xlink:title=" ">
<path fill="none" stroke="#63b8ff" d="M566.48,-330.12C581.27,-331.42 596.75,-332.57 611.25,-333.25 697.29,-337.28 798.26,-334.82 852.92,-332.89"/>
<polygon fill="#63b8ff" stroke="#63b8ff" points="852.8,-336.4 862.67,-332.53 852.55,-329.4 852.8,-336.4"/>
</a>
</g>
</g>
<!-- Node23&#45;&gt;Node24 -->
<g id="edge29_Node000023_Node000024" class="edge">
<title>Node23&#45;&gt;Node24</title>
<g id="a_edge29_Node000023_Node000024"><a xlink:title=" ">
<path fill="none" stroke="#63b8ff" d="M748.48,-315.23C781.42,-318.88 822.82,-323.47 852.86,-326.8"/>
<polygon fill="#63b8ff" stroke="#63b8ff" points="852.35,-330.27 862.67,-327.89 853.12,-323.31 852.35,-330.27"/>
</a>
</g>
</g>
<!-- Node24&#45;&gt;Node24 -->
<g id="edge30_Node000024_Node000024" class="edge">
<title>Node24&#45;&gt;Node24</title>
<g id="a_edge30_Node000024_Node000024"><a xlink:title=" ">
<path fill="none" stroke="#63b8ff" d="M864.37,-340.88C849.95,-349.57 859.83,-358.88 894,-358.88 914.82,-358.88 926.62,-355.42 929.4,-350.75"/>
<polygon fill="#63b8ff" stroke="#63b8ff" points="932.46,-349.05 924.4,-342.18 926.42,-352.58 932.46,-349.05"/>
</a>
</g>
</g>
<!-- Node26&#45;&gt;Node11 -->
<g id="edge34_Node000026_Node000011" class="edge">
<title>Node26&#45;&gt;Node11</title>
<g id="a_edge34_Node000026_Node000011"><a xlink:title=" ">
<path fill="none" stroke="#63b8ff" d="M575.6,-638.85C583.52,-638.13 591.6,-637.4 599.62,-636.67"/>
<polygon fill="#63b8ff" stroke="#63b8ff" points="599.75,-640.18 609.39,-635.79 599.12,-633.2 599.75,-640.18"/>
</a>
</g>
</g>
<!-- Node26&#45;&gt;Node12 -->
<g id="edge35_Node000026_Node000012" class="edge">
<title>Node26&#45;&gt;Node12</title>
<g id="a_edge35_Node000026_Node000012"><a xlink:title=" ">
<path fill="none" stroke="#63b8ff" d="M557.63,-661.96C576.77,-666.68 597.95,-671.91 617.74,-676.8"/>
<polygon fill="#63b8ff" stroke="#63b8ff" points="616.88,-680.19 627.42,-679.19 618.55,-673.39 616.88,-680.19"/>
</a>
</g>
</g>
</g>
</svg>
