<?xml version="1.0" encoding="UTF-8" standalone="no"?>
<!DOCTYPE svg PUBLIC "-//W3C//DTD SVG 1.1//EN"
 "http://www.w3.org/Graphics/SVG/1.1/DTD/svg11.dtd">
<!-- Generated by graphviz version 10.0.1 (20240210.2158)
 -->
<!-- Title: include/core/CRapidXmlStatePersistInserter.h Pages: 1 -->
<!--zoomable 260 -->

<svg id="main" version="1.1" xmlns="http://www.w3.org/2000/svg" xmlns:xlink="http://www.w3.org/1999/xlink" xml:space="preserve" onload="init(evt)">
<style type="text/css"><![CDATA[
.node, .edge {opacity: 0.7;}
.node.selected, .edge.selected {opacity: 1;}
.edge:hover path { stroke: red; }
.edge:hover polygon { stroke: red; fill: red; }
]]></style>

<defs>
  <circle id="rim" cx="0" cy="0" r="7"/>
  <circle id="rim2" cx="0" cy="0" r="3.5"/>
  <g id="zoomPlus">
    <use xlink:href="#rim" fill="#404040"><set attributeName="fill" to="#808080" begin="zoomplus.mouseover" end="zoomplus.mouseout"/></use>
    <path d="M-4,0h8M0,-4v8" fill="none" stroke="white" stroke-width="1.5" pointer-events="none"/>
  </g>
  <g id="zoomMin">
    <use xlink:href="#rim" fill="#404040"><set attributeName="fill" to="#808080" begin="zoomminus.mouseover" end="zoomminus.mouseout"/></use>
    <path d="M-4,0h8" fill="none" stroke="white" stroke-width="1.5" pointer-events="none"/>
  </g>
  <g id="arrowUp" transform="translate(30 24)">
    <use xlink:href="#rim"/>
    <path pointer-events="none" fill="none" stroke="white" stroke-width="1.5" d="M0,-3.0v7 M-2.5,-0.5L0,-3.0L2.5,-0.5"/>
  </g>
  <g id="arrowRight" transform="rotate(90) translate(36 -43)">
    <use xlink:href="#rim"/>
    <path pointer-events="none" fill="none" stroke="white" stroke-width="1.5" d="M0,-3.0v7 M-2.5,-0.5L0,-3.0L2.5,-0.5"/>
  </g>
  <g id="arrowDown" transform="rotate(180) translate(-30 -48)">
    <use xlink:href="#rim"/>
    <path pointer-events="none" fill="none" stroke="white" stroke-width="1.5" d="M0,-3.0v7 M-2.5,-0.5L0,-3.0L2.5,-0.5"/>
  </g>
  <g id="arrowLeft" transform="rotate(270) translate(-36 17)">
    <use xlink:href="#rim"/>
    <path pointer-events="none" fill="none" stroke="white" stroke-width="1.5" d="M0,-3.0v7 M-2.5,-0.5L0,-3.0L2.5,-0.5"/>
  </g>
  <g id="resetDef">
    <use xlink:href="#rim2" fill="#404040"><set attributeName="fill" to="#808080" begin="reset.mouseover" end="reset.mouseout"/></use>
  </g>
</defs>
<script type="application/ecmascript">
var viewWidth = 792;
var viewHeight = 260;
var sectionId = 'dynsection-0';
</script>
<script type="application/ecmascript" xlink:href="../../svg.min.js"/>
<svg id="graph" class="graph">
<g id="viewport">
<title>include/core/CRapidXmlStatePersistInserter.h</title>
<!-- Node1 -->
<g id="Node000001" class="node">
<title>Node1</title>
<g id="a_Node000001"><a xlink:title=" ">
<polygon fill="#999999" stroke="#666666" points="536.12,-251.5 391.12,-251.5 391.12,-221 536.12,-221 536.12,-251.5"/>
<text text-anchor="start" x="399.12" y="-238" font-family="Helvetica,sans-Serif" font-size="10.00">include/core/CRapidXmlState</text>
<text text-anchor="middle" x="463.62" y="-226.75" font-family="Helvetica,sans-Serif" font-size="10.00">PersistInserter.h</text>
</a>
</g>
</g>
<!-- Node2 -->
<g id="Node000002" class="node">
<title>Node2</title>
<g id="a_Node000002"><a xlink:href="../../d2/d2e/_c_state_persist_inserter_8h.html" target="_top" xlink:title=" ">
<polygon fill="white" stroke="#666666" points="435.5,-185 295.75,-185 295.75,-165.75 435.5,-165.75 435.5,-185"/>
<text text-anchor="middle" x="365.62" y="-171.5" font-family="Helvetica,sans-Serif" font-size="10.00">core/CStatePersistInserter.h</text>
</a>
</g>
</g>
<!-- Node1&#45;&gt;Node2 -->
<g id="edge1_Node000001_Node000002" class="edge">
<title>Node1&#45;&gt;Node2</title>
<g id="a_edge1_Node000001_Node000002"><a xlink:title=" ">
<path fill="none" stroke="#63b8ff" d="M439.15,-220.55C424.22,-211.58 405.21,-200.16 390.26,-191.17"/>
<polygon fill="#63b8ff" stroke="#63b8ff" points="392.33,-188.33 381.95,-186.18 388.72,-194.33 392.33,-188.33"/>
</a>
</g>
</g>
<!-- Node4 -->
<g id="Node000004" class="node">
<title>Node4</title>
<g id="a_Node000004"><a xlink:href="../../dd/d0e/core_2_import_export_8h.html" target="_top" xlink:title=" ">
<polygon fill="white" stroke="#666666" points="339.75,-19.25 237.5,-19.25 237.5,0 339.75,0 339.75,-19.25"/>
<text text-anchor="middle" x="288.62" y="-5.75" font-family="Helvetica,sans-Serif" font-size="10.00">core/ImportExport.h</text>
</a>
</g>
</g>
<!-- Node1&#45;&gt;Node4 -->
<g id="edge21_Node000001_Node000004" class="edge">
<title>Node1&#45;&gt;Node4</title>
<g id="a_edge21_Node000001_Node000004"><a xlink:title=" ">
<path fill="none" stroke="#63b8ff" d="M390.96,-234.64C315.18,-229.57 200.14,-208.4 146.62,-129.75 114.18,-82.06 196.79,-42.75 249.24,-23.47"/>
<polygon fill="#63b8ff" stroke="#63b8ff" points="250.25,-26.82 258.5,-20.17 247.9,-20.23 250.25,-26.82"/>
</a>
</g>
</g>
<!-- Node13 -->
<g id="Node000013" class="node">
<title>Node13</title>
<g id="a_Node000013"><a xlink:href="../../d8/de8/_c_string_cache_8h.html" target="_top" xlink:title=" ">
<polygon fill="white" stroke="#666666" points="678.38,-129.75 570.88,-129.75 570.88,-110.5 678.38,-110.5 678.38,-129.75"/>
<text text-anchor="middle" x="624.62" y="-116.25" font-family="Helvetica,sans-Serif" font-size="10.00">core/CStringCache.h</text>
</a>
</g>
</g>
<!-- Node1&#45;&gt;Node13 -->
<g id="edge17_Node000001_Node000013" class="edge">
<title>Node1&#45;&gt;Node13</title>
<g id="a_edge17_Node000001_Node000013"><a xlink:title=" ">
<path fill="none" stroke="#63b8ff" d="M463.69,-220.78C464.55,-205.19 468.31,-180.62 482.62,-165.75 502.71,-144.89 532.42,-133.74 559.48,-127.8"/>
<polygon fill="#63b8ff" stroke="#63b8ff" points="559.87,-131.29 569,-125.92 558.51,-124.43 559.87,-131.29"/>
</a>
</g>
</g>
<!-- Node15 -->
<g id="Node000015" class="node">
<title>Node15</title>
<g id="a_Node000015"><a xlink:title=" ">
<polygon fill="#e0e0e0" stroke="#999999" points="603.25,-185 492,-185 492,-165.75 603.25,-165.75 603.25,-185"/>
<text text-anchor="middle" x="547.62" y="-171.5" font-family="Helvetica,sans-Serif" font-size="10.00">rapidxml/rapidxml.hpp</text>
</a>
</g>
</g>
<!-- Node1&#45;&gt;Node15 -->
<g id="edge22_Node000001_Node000015" class="edge">
<title>Node1&#45;&gt;Node15</title>
<g id="a_edge22_Node000001_Node000015"><a xlink:title=" ">
<path fill="none" stroke="#63b8ff" d="M484.39,-220.7C496.81,-211.99 512.59,-200.93 525.28,-192.03"/>
<polygon fill="#63b8ff" stroke="#63b8ff" points="527.26,-194.93 533.44,-186.32 523.24,-189.19 527.26,-194.93"/>
</a>
</g>
</g>
<!-- Node16 -->
<g id="Node000016" class="node">
<title>Node16</title>
<g id="a_Node000016"><a xlink:title=" ">
<polygon fill="#e0e0e0" stroke="#999999" points="656,-185 621.25,-185 621.25,-165.75 656,-165.75 656,-185"/>
<text text-anchor="middle" x="638.62" y="-171.5" font-family="Helvetica,sans-Serif" font-size="10.00">map</text>
</a>
</g>
</g>
<!-- Node1&#45;&gt;Node16 -->
<g id="edge23_Node000001_Node000016" class="edge">
<title>Node1&#45;&gt;Node16</title>
<g id="a_edge23_Node000001_Node000016"><a xlink:title=" ">
<path fill="none" stroke="#63b8ff" d="M507.33,-220.55C539.54,-209.71 582.42,-195.28 610.27,-185.91"/>
<polygon fill="#63b8ff" stroke="#63b8ff" points="611.06,-189.34 619.42,-182.83 608.83,-182.71 611.06,-189.34"/>
</a>
</g>
</g>
<!-- Node3 -->
<g id="Node000003" class="node">
<title>Node3</title>
<g id="a_Node000003"><a xlink:href="../../db/d30/_c_non_copyable_8h.html" target="_top" xlink:title=" ">
<polygon fill="white" stroke="#666666" points="338,-129.75 225.25,-129.75 225.25,-110.5 338,-110.5 338,-129.75"/>
<text text-anchor="middle" x="281.62" y="-116.25" font-family="Helvetica,sans-Serif" font-size="10.00">core/CNonCopyable.h</text>
</a>
</g>
</g>
<!-- Node2&#45;&gt;Node3 -->
<g id="edge2_Node000002_Node000003" class="edge">
<title>Node2&#45;&gt;Node3</title>
<g id="a_edge2_Node000002_Node000003"><a xlink:title=" ">
<path fill="none" stroke="#63b8ff" d="M351.38,-165.34C338.83,-157.39 320.29,-145.64 305.48,-136.25"/>
<polygon fill="#63b8ff" stroke="#63b8ff" points="307.54,-133.41 297.22,-131.01 303.79,-139.32 307.54,-133.41"/>
</a>
</g>
</g>
<!-- Node2&#45;&gt;Node4 -->
<g id="edge14_Node000002_Node000004" class="edge">
<title>Node2&#45;&gt;Node4</title>
<g id="a_edge14_Node000002_Node000004"><a xlink:title=" ">
<path fill="none" stroke="#63b8ff" d="M364.51,-165.5C362.56,-152.57 357.64,-128.17 346.62,-110.5 334.15,-90.48 320.1,-94.52 307.62,-74.5 299.28,-61.11 294.43,-43.85 291.73,-30.65"/>
<polygon fill="#63b8ff" stroke="#63b8ff" points="295.2,-30.22 290.01,-20.99 288.31,-31.45 295.2,-30.22"/>
</a>
</g>
</g>
<!-- Node5 -->
<g id="Node000005" class="node">
<title>Node5</title>
<g id="a_Node000005"><a xlink:href="../../d9/d88/_c_string_utils_8h.html" target="_top" xlink:title=" ">
<polygon fill="white" stroke="#666666" points="493.25,-129.75 394,-129.75 394,-110.5 493.25,-110.5 493.25,-129.75"/>
<text text-anchor="middle" x="443.62" y="-116.25" font-family="Helvetica,sans-Serif" font-size="10.00">core/CStringUtils.h</text>
</a>
</g>
</g>
<!-- Node2&#45;&gt;Node5 -->
<g id="edge4_Node000002_Node000005" class="edge">
<title>Node2&#45;&gt;Node5</title>
<g id="a_edge4_Node000002_Node000005"><a xlink:title=" ">
<path fill="none" stroke="#63b8ff" d="M378.86,-165.34C390.4,-157.46 407.39,-145.86 421.07,-136.52"/>
<polygon fill="#63b8ff" stroke="#63b8ff" points="422.79,-139.58 429.08,-131.06 418.85,-133.8 422.79,-139.58"/>
</a>
</g>
</g>
<!-- Node10 -->
<g id="Node000010" class="node">
<title>Node10</title>
<g id="a_Node000010"><a xlink:title=" ">
<polygon fill="#e0e0e0" stroke="#999999" points="604.62,-74.5 564.62,-74.5 564.62,-55.25 604.62,-55.25 604.62,-74.5"/>
<text text-anchor="middle" x="584.62" y="-61" font-family="Helvetica,sans-Serif" font-size="10.00">string</text>
</a>
</g>
</g>
<!-- Node2&#45;&gt;Node10 -->
<g id="edge16_Node000002_Node000010" class="edge">
<title>Node2&#45;&gt;Node10</title>
<g id="a_edge16_Node000002_Node000010"><a xlink:title=" ">
<path fill="none" stroke="#63b8ff" d="M405.47,-165.31C433.62,-157.99 471.7,-146.18 502.62,-129.75 526.87,-116.87 551.26,-96.74 567.06,-82.52"/>
<polygon fill="#63b8ff" stroke="#63b8ff" points="569.2,-85.31 574.19,-75.96 564.46,-80.16 569.2,-85.31"/>
</a>
</g>
</g>
<!-- Node12 -->
<g id="Node000012" class="node">
<title>Node12</title>
<g id="a_Node000012"><a xlink:title=" ">
<polygon fill="#e0e0e0" stroke="#999999" points="207.25,-129.75 156,-129.75 156,-110.5 207.25,-110.5 207.25,-129.75"/>
<text text-anchor="middle" x="181.62" y="-116.25" font-family="Helvetica,sans-Serif" font-size="10.00">ostream</text>
</a>
</g>
</g>
<!-- Node2&#45;&gt;Node12 -->
<g id="edge15_Node000002_Node000012" class="edge">
<title>Node2&#45;&gt;Node12</title>
<g id="a_edge15_Node000002_Node000012"><a xlink:title=" ">
<path fill="none" stroke="#63b8ff" d="M334.41,-165.34C302.35,-156.06 252.48,-141.63 218.49,-131.79"/>
<polygon fill="#63b8ff" stroke="#63b8ff" points="219.66,-128.49 209.08,-129.07 217.71,-135.21 219.66,-128.49"/>
</a>
</g>
</g>
<!-- Node3&#45;&gt;Node4 -->
<g id="edge3_Node000003_Node000004" class="edge">
<title>Node3&#45;&gt;Node4</title>
<g id="a_edge3_Node000003_Node000004"><a xlink:title=" ">
<path fill="none" stroke="#63b8ff" d="M279.23,-110.42C276.18,-98.09 271.62,-74.88 274.62,-55.25 275.9,-46.93 278.44,-38.03 281.01,-30.38"/>
<polygon fill="#63b8ff" stroke="#63b8ff" points="284.26,-31.68 284.38,-21.08 277.68,-29.29 284.26,-31.68"/>
</a>
</g>
</g>
<!-- Node5&#45;&gt;Node4 -->
<g id="edge11_Node000005_Node000004" class="edge">
<title>Node5&#45;&gt;Node4</title>
<g id="a_edge11_Node000005_Node000004"><a xlink:title=" ">
<path fill="none" stroke="#63b8ff" d="M468.79,-110.08C496.86,-98.62 536.08,-77.65 517.62,-55.25 496.91,-30.1 411.79,-18.94 351.39,-14.11"/>
<polygon fill="#63b8ff" stroke="#63b8ff" points="351.79,-10.63 341.56,-13.37 351.27,-17.61 351.79,-10.63"/>
</a>
</g>
</g>
<!-- Node6 -->
<g id="Node000006" class="node">
<title>Node6</title>
<g id="a_Node000006"><a xlink:href="../../d6/dbf/_c_i_e_e_e754_8h.html" target="_top" xlink:title=" ">
<polygon fill="white" stroke="#666666" points="99.88,-74.5 7.38,-74.5 7.38,-55.25 99.88,-55.25 99.88,-74.5"/>
<text text-anchor="middle" x="53.62" y="-61" font-family="Helvetica,sans-Serif" font-size="10.00">core/CIEEE754.h</text>
</a>
</g>
</g>
<!-- Node5&#45;&gt;Node6 -->
<g id="edge5_Node000005_Node000006" class="edge">
<title>Node5&#45;&gt;Node6</title>
<g id="a_edge5_Node000005_Node000006"><a xlink:title=" ">
<path fill="none" stroke="#63b8ff" d="M393.84,-112.33C321.57,-102.46 187.91,-84.21 111.4,-73.76"/>
<polygon fill="#63b8ff" stroke="#63b8ff" points="111.96,-70.31 101.58,-72.42 111.02,-77.24 111.96,-70.31"/>
</a>
</g>
</g>
<!-- Node9 -->
<g id="Node000009" class="node">
<title>Node9</title>
<g id="a_Node000009"><a xlink:href="../../d7/dc2/_c_non_instantiatable_8h.html" target="_top" xlink:title=" ">
<polygon fill="white" stroke="#666666" points="508.62,-74.5 378.62,-74.5 378.62,-55.25 508.62,-55.25 508.62,-74.5"/>
<text text-anchor="middle" x="443.62" y="-61" font-family="Helvetica,sans-Serif" font-size="10.00">core/CNonInstantiatable.h</text>
</a>
</g>
</g>
<!-- Node5&#45;&gt;Node9 -->
<g id="edge9_Node000005_Node000009" class="edge">
<title>Node5&#45;&gt;Node9</title>
<g id="a_edge9_Node000005_Node000009"><a xlink:title=" ">
<path fill="none" stroke="#63b8ff" d="M443.62,-110.33C443.62,-103.82 443.62,-94.67 443.62,-86.37"/>
<polygon fill="#63b8ff" stroke="#63b8ff" points="447.13,-86.37 443.63,-76.37 440.13,-86.37 447.13,-86.37"/>
</a>
</g>
</g>
<!-- Node5&#45;&gt;Node10 -->
<g id="edge12_Node000005_Node000010" class="edge">
<title>Node5&#45;&gt;Node10</title>
<g id="a_edge12_Node000005_Node000010"><a xlink:title=" ">
<path fill="none" stroke="#63b8ff" d="M467.54,-110.09C491.22,-101.15 527.6,-87.41 553.51,-77.62"/>
<polygon fill="#63b8ff" stroke="#63b8ff" points="554.72,-80.91 562.84,-74.1 552.25,-74.36 554.72,-80.91"/>
</a>
</g>
</g>
<!-- Node11 -->
<g id="Node000011" class="node">
<title>Node11</title>
<g id="a_Node000011"><a xlink:title=" ">
<polygon fill="#e0e0e0" stroke="#999999" points="360.12,-74.5 317.12,-74.5 317.12,-55.25 360.12,-55.25 360.12,-74.5"/>
<text text-anchor="middle" x="338.62" y="-61" font-family="Helvetica,sans-Serif" font-size="10.00">vector</text>
</a>
</g>
</g>
<!-- Node5&#45;&gt;Node11 -->
<g id="edge13_Node000005_Node000011" class="edge">
<title>Node5&#45;&gt;Node11</title>
<g id="a_edge13_Node000005_Node000011"><a xlink:title=" ">
<path fill="none" stroke="#63b8ff" d="M425.81,-110.09C409.6,-101.87 385.39,-89.59 366.59,-80.06"/>
<polygon fill="#63b8ff" stroke="#63b8ff" points="368.38,-77.04 357.87,-75.64 365.21,-83.28 368.38,-77.04"/>
</a>
</g>
</g>
<!-- Node6&#45;&gt;Node4 -->
<g id="edge6_Node000006_Node000004" class="edge">
<title>Node6&#45;&gt;Node4</title>
<g id="a_edge6_Node000006_Node000004"><a xlink:title=" ">
<path fill="none" stroke="#63b8ff" d="M93.76,-54.78C133.47,-45.78 194.4,-31.98 237.55,-22.2"/>
<polygon fill="#63b8ff" stroke="#63b8ff" points="238.2,-25.64 247.18,-20.02 236.66,-18.81 238.2,-25.64"/>
</a>
</g>
</g>
<!-- Node7 -->
<g id="Node000007" class="node">
<title>Node7</title>
<g id="a_Node000007"><a xlink:title=" ">
<polygon fill="#e0e0e0" stroke="#999999" points="45.25,-19.25 0,-19.25 0,0 45.25,0 45.25,-19.25"/>
<text text-anchor="middle" x="22.62" y="-5.75" font-family="Helvetica,sans-Serif" font-size="10.00">cstdint</text>
</a>
</g>
</g>
<!-- Node6&#45;&gt;Node7 -->
<g id="edge7_Node000006_Node000007" class="edge">
<title>Node6&#45;&gt;Node7</title>
<g id="a_edge7_Node000006_Node000007"><a xlink:title=" ">
<path fill="none" stroke="#63b8ff" d="M48.51,-55.08C44.45,-48.11 38.63,-38.12 33.54,-29.37"/>
<polygon fill="#63b8ff" stroke="#63b8ff" points="36.67,-27.8 28.62,-20.92 30.62,-31.32 36.67,-27.8"/>
</a>
</g>
</g>
<!-- Node8 -->
<g id="Node000008" class="node">
<title>Node8</title>
<g id="a_Node000008"><a xlink:title=" ">
<polygon fill="#e0e0e0" stroke="#999999" points="108.25,-19.25 63,-19.25 63,0 108.25,0 108.25,-19.25"/>
<text text-anchor="middle" x="85.62" y="-5.75" font-family="Helvetica,sans-Serif" font-size="10.00">cstring</text>
</a>
</g>
</g>
<!-- Node6&#45;&gt;Node8 -->
<g id="edge8_Node000006_Node000008" class="edge">
<title>Node6&#45;&gt;Node8</title>
<g id="a_edge8_Node000006_Node000008"><a xlink:title=" ">
<path fill="none" stroke="#63b8ff" d="M58.91,-55.08C63.1,-48.11 69.1,-38.12 74.36,-29.37"/>
<polygon fill="#63b8ff" stroke="#63b8ff" points="77.3,-31.28 79.45,-20.91 71.3,-27.68 77.3,-31.28"/>
</a>
</g>
</g>
<!-- Node9&#45;&gt;Node4 -->
<g id="edge10_Node000009_Node000004" class="edge">
<title>Node9&#45;&gt;Node4</title>
<g id="a_edge10_Node000009_Node000004"><a xlink:title=" ">
<path fill="none" stroke="#63b8ff" d="M417.33,-54.84C392.17,-46.2 353.97,-33.07 325.72,-23.37"/>
<polygon fill="#63b8ff" stroke="#63b8ff" points="327.07,-20.13 316.48,-20.19 324.8,-26.75 327.07,-20.13"/>
</a>
</g>
</g>
<!-- Node13&#45;&gt;Node4 -->
<g id="edge18_Node000013_Node000004" class="edge">
<title>Node13&#45;&gt;Node4</title>
<g id="a_edge18_Node000013_Node000004"><a xlink:title=" ">
<path fill="none" stroke="#63b8ff" d="M626.04,-110.22C627.68,-96.34 628.51,-69.64 613.62,-55.25 577.3,-20.14 435.24,-12.26 351.44,-10.73"/>
<polygon fill="#63b8ff" stroke="#63b8ff" points="351.59,-7.24 341.53,-10.58 351.48,-14.23 351.59,-7.24"/>
</a>
</g>
</g>
<!-- Node13&#45;&gt;Node10 -->
<g id="edge20_Node000013_Node000010" class="edge">
<title>Node13&#45;&gt;Node10</title>
<g id="a_edge20_Node000013_Node000010"><a xlink:title=" ">
<path fill="none" stroke="#63b8ff" d="M618.02,-110.33C612.67,-103.21 604.95,-92.93 598.28,-84.05"/>
<polygon fill="#63b8ff" stroke="#63b8ff" points="601.09,-81.96 592.28,-76.07 595.49,-86.17 601.09,-81.96"/>
</a>
</g>
</g>
<!-- Node14 -->
<g id="Node000014" class="node">
<title>Node14</title>
<g id="a_Node000014"><a xlink:title=" ">
<polygon fill="#e0e0e0" stroke="#999999" points="784.25,-74.5 661,-74.5 661,-55.25 784.25,-55.25 784.25,-74.5"/>
<text text-anchor="middle" x="722.62" y="-61" font-family="Helvetica,sans-Serif" font-size="10.00">boost/unordered_set.hpp</text>
</a>
</g>
</g>
<!-- Node13&#45;&gt;Node14 -->
<g id="edge19_Node000013_Node000014" class="edge">
<title>Node13&#45;&gt;Node14</title>
<g id="a_edge19_Node000013_Node000014"><a xlink:title=" ">
<path fill="none" stroke="#63b8ff" d="M641.25,-110.09C656.31,-101.91 678.77,-89.71 696.28,-80.19"/>
<polygon fill="#63b8ff" stroke="#63b8ff" points="697.47,-83.52 704.59,-75.68 694.13,-77.37 697.47,-83.52"/>
</a>
</g>
</g>
</g>
</svg>

<g id="navigator" transform="translate(0 0)" fill="#404254">
  <rect fill="#f2f5e9" fill-opacity="0.5" stroke="#606060" stroke-width=".5" x="0" y="0" width="60" height="60"/>
  <use id="zoomplus" xlink:href="#zoomPlus" x="17" y="9" onmousedown="handleZoom(evt,'in')"/>
  <use id="zoomminus" xlink:href="#zoomMin" x="42" y="9" onmousedown="handleZoom(evt,'out')"/>
  <use id="reset" xlink:href="#resetDef" x="30" y="36" onmousedown="handleReset()"/>
   <use id="arrowup" xlink:href="#arrowUp" x="0" y="0" onmousedown="handlePan(0,-1)"/>
  <use id="arrowright" xlink:href="#arrowRight" x="0" y="0" onmousedown="handlePan(1,0)"/>
  <use id="arrowdown" xlink:href="#arrowDown" x="0" y="0" onmousedown="handlePan(0,1)"/>
  <use id="arrowleft" xlink:href="#arrowLeft" x="0" y="0" onmousedown="handlePan(-1,0)"/>
</g>
<svg viewBox="0 0 15 15" width="100%" height="30px" preserveAspectRatio="xMaxYMin meet">
 <g id="arrow_out" transform="scale(0.3 0.3)">
  <a xlink:href="_c_rapid_xml_state_persist_inserter_8h__incl_org.svg" target="_base">
   <rect id="button" ry="5" rx="5" y="6" x="6" height="38" width="38"
        fill="#f2f5e9" fill-opacity="0.5" stroke="#606060" stroke-width="1.0"/>
   <path id="arrow"
     d="M 11.500037,31.436501 C 11.940474,20.09759 22.043105,11.32322 32.158766,21.979434 L 37.068811,17.246167 C 37.068811,17.246167 37.088388,32 37.088388,32 L 22.160133,31.978069 C 22.160133,31.978069 26.997745,27.140456 26.997745,27.140456 C 18.528582,18.264221 13.291696,25.230495 11.500037,31.436501 z"
     style="fill:#404040;"/>
  </a>
 </g>
</svg>

<style type='text/css'>
<![CDATA[
[data-mouse-over-selected='false'] { opacity: 0.7; }
[data-mouse-over-selected='true']  { opacity: 1.0; }
]]>
</style>
<script type="application/ecmascript"><![CDATA[
document.addEventListener('DOMContentLoaded', (event) => {
  highlightEdges();
  highlightAdjacentNodes();
});
]]></script>
</svg>
