<?xml version="1.0" encoding="UTF-8" standalone="no"?>
<!DOCTYPE svg PUBLIC "-//W3C//DTD SVG 1.1//EN"
 "http://www.w3.org/Graphics/SVG/1.1/DTD/svg11.dtd">
<!-- Generated by graphviz version 10.0.1 (20240210.2158)
 -->
<!-- Title: ml::maths::common::CSymmetricMatrix::CSymmetricMatrix Pages: 1 -->
<svg width="351pt" height="137pt"
 viewBox="0.00 0.00 350.50 136.50" xmlns="http://www.w3.org/2000/svg" xmlns:xlink="http://www.w3.org/1999/xlink">
<g id="graph0" class="graph" transform="scale(1 1) rotate(0) translate(4 132.5)">
<title>ml::maths::common::CSymmetricMatrix::CSymmetricMatrix</title>
<!-- Node1 -->
<g id="Node000001" class="node">
<title>Node1</title>
<g id="a_Node000001"><a xlink:title=" ">
<polygon fill="#999999" stroke="#666666" points="158.5,-85.12 0,-85.12 0,-43.38 158.5,-43.38 158.5,-85.12"/>
<text text-anchor="start" x="8" y="-71.62" font-family="Helvetica,sans-Serif" font-size="10.00">ml::maths::common::</text>
<text text-anchor="start" x="8" y="-60.38" font-family="Helvetica,sans-Serif" font-size="10.00">CSymmetricMatrix::CSymmetric</text>
<text text-anchor="middle" x="79.25" y="-49.12" font-family="Helvetica,sans-Serif" font-size="10.00">Matrix</text>
</a>
</g>
</g>
<!-- Node2 -->
<g id="Node000002" class="node">
<title>Node2</title>
<g id="a_Node000002"><a xlink:href="../../de/d86/classml_1_1maths_1_1common_1_1_c_symmetric_matrix.html#a2c86a4206e4c99c7536bf2a8fc209a70" target="_top" xlink:title="Get an iterator over the elements.">
<polygon fill="white" stroke="#666666" points="332,-128.5 205,-128.5 205,-98 332,-98 332,-128.5"/>
<text text-anchor="start" x="213" y="-115" font-family="Helvetica,sans-Serif" font-size="10.00">ml::maths::common::</text>
<text text-anchor="middle" x="268.5" y="-103.75" font-family="Helvetica,sans-Serif" font-size="10.00">CSymmetricMatrix::begin</text>
</a>
</g>
</g>
<!-- Node1&#45;&gt;Node2 -->
<g id="edge1_Node000001_Node000002" class="edge">
<title>Node1&#45;&gt;Node2</title>
<g id="a_edge1_Node000001_Node000002"><a xlink:title=" ">
<path fill="none" stroke="#63b8ff" d="M158.85,-84.82C171.26,-88.07 184.04,-91.41 196.27,-94.61"/>
<polygon fill="#63b8ff" stroke="#63b8ff" points="195.3,-97.97 205.86,-97.12 197.07,-91.2 195.3,-97.97"/>
</a>
</g>
</g>
<!-- Node3 -->
<g id="Node000003" class="node">
<title>Node3</title>
<g id="a_Node000003"><a xlink:href="../../de/d86/classml_1_1maths_1_1common_1_1_c_symmetric_matrix.html#a47d5af1629541ad3b1fdb5ab521e30bd" target="_top" xlink:title="Compute the dimension from the number of elements.">
<polygon fill="white" stroke="#666666" points="342.5,-79.5 194.5,-79.5 194.5,-49 342.5,-49 342.5,-79.5"/>
<text text-anchor="start" x="202.5" y="-66" font-family="Helvetica,sans-Serif" font-size="10.00">ml::maths::common::</text>
<text text-anchor="middle" x="268.5" y="-54.75" font-family="Helvetica,sans-Serif" font-size="10.00">CSymmetricMatrix::dimension</text>
</a>
</g>
</g>
<!-- Node1&#45;&gt;Node3 -->
<g id="edge2_Node000001_Node000003" class="edge">
<title>Node1&#45;&gt;Node3</title>
<g id="a_edge2_Node000001_Node000003"><a xlink:title=" ">
<path fill="none" stroke="#63b8ff" d="M158.85,-64.25C166.81,-64.25 174.91,-64.25 182.93,-64.25"/>
<polygon fill="#63b8ff" stroke="#63b8ff" points="182.67,-67.75 192.67,-64.25 182.67,-60.75 182.67,-67.75"/>
</a>
</g>
</g>
<!-- Node4 -->
<g id="Node000004" class="node">
<title>Node4</title>
<g id="a_Node000004"><a xlink:href="../../de/d86/classml_1_1maths_1_1common_1_1_c_symmetric_matrix.html#a268cb72b76f81b7e731e89ac5e531c30" target="_top" xlink:title="Get an iterator to the end of the elements.">
<polygon fill="white" stroke="#666666" points="328.25,-30.5 208.75,-30.5 208.75,0 328.25,0 328.25,-30.5"/>
<text text-anchor="start" x="216.75" y="-17" font-family="Helvetica,sans-Serif" font-size="10.00">ml::maths::common::</text>
<text text-anchor="middle" x="268.5" y="-5.75" font-family="Helvetica,sans-Serif" font-size="10.00">CSymmetricMatrix::end</text>
</a>
</g>
</g>
<!-- Node1&#45;&gt;Node4 -->
<g id="edge3_Node000001_Node000004" class="edge">
<title>Node1&#45;&gt;Node4</title>
<g id="a_edge3_Node000001_Node000004"><a xlink:title=" ">
<path fill="none" stroke="#63b8ff" d="M158.85,-43.68C171.7,-40.32 184.93,-36.86 197.56,-33.55"/>
<polygon fill="#63b8ff" stroke="#63b8ff" points="198.21,-37 207,-31.08 196.44,-30.23 198.21,-37"/>
</a>
</g>
</g>
</g>
</svg>
