<?xml version="1.0" encoding="UTF-8" standalone="no"?>
<!DOCTYPE svg PUBLIC "-//W3C//DTD SVG 1.1//EN"
 "http://www.w3.org/Graphics/SVG/1.1/DTD/svg11.dtd">
<!-- Generated by graphviz version 10.0.1 (20240210.2158)
 -->
<!-- Title: ml::maths::common::CSymmetricMatrix::rows Pages: 1 -->
<svg width="316pt" height="531pt"
 viewBox="0.00 0.00 316.00 531.25" xmlns="http://www.w3.org/2000/svg" xmlns:xlink="http://www.w3.org/1999/xlink">
<g id="graph0" class="graph" transform="scale(1 1) rotate(0) translate(4 527.25)">
<title>ml::maths::common::CSymmetricMatrix::rows</title>
<!-- Node1 -->
<g id="Node000001" class="node">
<title>Node1</title>
<g id="a_Node000001"><a xlink:title="Get the number of rows.">
<polygon fill="#999999" stroke="#666666" points="308,-270.88 183.25,-270.88 183.25,-240.38 308,-240.38 308,-270.88"/>
<text text-anchor="start" x="191.25" y="-257.38" font-family="Helvetica,sans-Serif" font-size="10.00">ml::maths::common::</text>
<text text-anchor="middle" x="245.62" y="-246.12" font-family="Helvetica,sans-Serif" font-size="10.00">CSymmetricMatrix::rows</text>
</a>
</g>
</g>
<!-- Node2 -->
<g id="Node000002" class="node">
<title>Node2</title>
<g id="a_Node000002"><a xlink:href="../../d6/d26/_c_linear_algebra_test_8cc.html#a0fdf947d2a3f6c81e6f1836ac386f2f0" target="_top" xlink:title=" ">
<polygon fill="white" stroke="#666666" points="147.25,-523.25 0,-523.25 0,-504 147.25,-504 147.25,-523.25"/>
<text text-anchor="middle" x="73.62" y="-509.75" font-family="Helvetica,sans-Serif" font-size="10.00">BOOST_AUTO_TEST_CASE</text>
</a>
</g>
</g>
<!-- Node1&#45;&gt;Node2 -->
<g id="edge1_Node000001_Node000002" class="edge">
<title>Node1&#45;&gt;Node2</title>
<g id="a_edge1_Node000001_Node000002"><a xlink:title=" ">
<path fill="none" stroke="#63b8ff" d="M241.51,-282.53C234.31,-332.11 211.85,-437.98 147.25,-494.62 143.13,-498.23 138.41,-501.17 133.4,-503.56"/>
<polygon fill="#63b8ff" stroke="#63b8ff" points="244.97,-283.08 242.83,-272.7 238.03,-282.15 244.97,-283.08"/>
</a>
</g>
</g>
<!-- Node3 -->
<g id="Node000003" class="node">
<title>Node3</title>
<g id="a_Node000003"><a xlink:href="../../d6/dd5/namespaceml_1_1maths_1_1common.html#a895967ba564070f51682f9f72a4df5fd" target="_top" xlink:title=" ">
<polygon fill="white" stroke="#666666" points="130.75,-485.88 16.5,-485.88 16.5,-455.38 130.75,-455.38 130.75,-485.88"/>
<text text-anchor="start" x="24.5" y="-472.38" font-family="Helvetica,sans-Serif" font-size="10.00">ml::maths::common::</text>
<text text-anchor="middle" x="73.62" y="-461.12" font-family="Helvetica,sans-Serif" font-size="10.00">gaussianLogLikelihood</text>
</a>
</g>
</g>
<!-- Node1&#45;&gt;Node3 -->
<g id="edge2_Node000001_Node000003" class="edge">
<title>Node1&#45;&gt;Node3</title>
<g id="a_edge2_Node000001_Node000003"><a xlink:title=" ">
<path fill="none" stroke="#63b8ff" d="M237.96,-282.06C226.36,-322.85 198.61,-401.09 147.25,-445.62 142.41,-449.82 136.84,-453.32 130.97,-456.24"/>
<polygon fill="#63b8ff" stroke="#63b8ff" points="241.29,-283.17 240.54,-272.6 234.53,-281.33 241.29,-283.17"/>
</a>
</g>
</g>
<!-- Node4 -->
<g id="Node000004" class="node">
<title>Node4</title>
<g id="a_Node000004"><a xlink:href="../../d6/dd5/namespaceml_1_1maths_1_1common.html#a28042b9ef8c5f30dfe3212373d8f0363" target="_top" xlink:title=" ">
<polygon fill="white" stroke="#666666" points="129.62,-436.88 17.63,-436.88 17.63,-406.38 129.62,-406.38 129.62,-436.88"/>
<text text-anchor="start" x="25.62" y="-423.38" font-family="Helvetica,sans-Serif" font-size="10.00">ml::maths::common::</text>
<text text-anchor="middle" x="73.62" y="-412.12" font-family="Helvetica,sans-Serif" font-size="10.00">inverseQuadraticForm</text>
</a>
</g>
</g>
<!-- Node1&#45;&gt;Node4 -->
<g id="edge3_Node000001_Node000004" class="edge">
<title>Node1&#45;&gt;Node4</title>
<g id="a_edge3_Node000001_Node000004"><a xlink:title=" ">
<path fill="none" stroke="#63b8ff" d="M233.15,-281.35C217.87,-312.84 187.96,-365.75 147.25,-396.62 142.04,-400.57 136.17,-403.93 130.08,-406.77"/>
<polygon fill="#63b8ff" stroke="#63b8ff" points="236.2,-283.09 237.3,-272.55 229.87,-280.11 236.2,-283.09"/>
</a>
</g>
</g>
<!-- Node5 -->
<g id="Node000005" class="node">
<title>Node5</title>
<g id="a_Node000005"><a xlink:href="../../d6/dd5/namespaceml_1_1maths_1_1common.html#afbb3fbb8cddfb1c0a0bb056d17451af8" target="_top" xlink:title=" ">
<polygon fill="white" stroke="#666666" points="128.12,-387.88 19.12,-387.88 19.12,-357.38 128.12,-357.38 128.12,-387.88"/>
<text text-anchor="start" x="27.12" y="-374.38" font-family="Helvetica,sans-Serif" font-size="10.00">ml::maths::common::</text>
<text text-anchor="middle" x="73.62" y="-363.12" font-family="Helvetica,sans-Serif" font-size="10.00">logDeterminant</text>
</a>
</g>
</g>
<!-- Node1&#45;&gt;Node5 -->
<g id="edge4_Node000001_Node000005" class="edge">
<title>Node1&#45;&gt;Node5</title>
<g id="a_edge4_Node000001_Node000005"><a xlink:title=" ">
<path fill="none" stroke="#63b8ff" d="M224.71,-279.96C206.5,-300.81 177.8,-330.28 147.25,-348.62 141.44,-352.11 135.07,-355.16 128.58,-357.81"/>
<polygon fill="#63b8ff" stroke="#63b8ff" points="227.26,-282.37 231.1,-272.49 221.94,-277.82 227.26,-282.37"/>
</a>
</g>
</g>
<!-- Node6 -->
<g id="Node000006" class="node">
<title>Node6</title>
<g id="a_Node000006"><a xlink:href="../../d6/dd5/namespaceml_1_1maths_1_1common.html#a25f5acd10de64dbd1d3278a735d95a13" target="_top" xlink:title="Overload maximum for CSymmetricMatrix.">
<polygon fill="white" stroke="#666666" points="137.5,-339.25 9.75,-339.25 9.75,-320 137.5,-320 137.5,-339.25"/>
<text text-anchor="middle" x="73.62" y="-325.75" font-family="Helvetica,sans-Serif" font-size="10.00">ml::maths::common::max</text>
</a>
</g>
</g>
<!-- Node1&#45;&gt;Node6 -->
<g id="edge5_Node000001_Node000006" class="edge">
<title>Node1&#45;&gt;Node6</title>
<g id="a_edge5_Node000001_Node000006"><a xlink:title=" ">
<path fill="none" stroke="#63b8ff" d="M211.94,-277.5C193.56,-288.99 169.84,-302.54 147.25,-311.62 139.66,-314.68 131.4,-317.32 123.27,-319.57"/>
<polygon fill="#63b8ff" stroke="#63b8ff" points="213.73,-280.51 220.28,-272.18 209.96,-274.61 213.73,-280.51"/>
</a>
</g>
</g>
<!-- Node7 -->
<g id="Node000007" class="node">
<title>Node7</title>
<g id="a_Node000007"><a xlink:href="../../d6/dd5/namespaceml_1_1maths_1_1common.html#aeb2445ff0a73e59ca76bdabbc6ad4539" target="_top" xlink:title="Overload maximum for CSymmetricMatrix.">
<polygon fill="white" stroke="#666666" points="137.5,-302.25 9.75,-302.25 9.75,-283 137.5,-283 137.5,-302.25"/>
<text text-anchor="middle" x="73.62" y="-288.75" font-family="Helvetica,sans-Serif" font-size="10.00">ml::maths::common::max</text>
</a>
</g>
</g>
<!-- Node1&#45;&gt;Node7 -->
<g id="edge6_Node000001_Node000007" class="edge">
<title>Node1&#45;&gt;Node7</title>
<g id="a_edge6_Node000001_Node000007"><a xlink:title=" ">
<path fill="none" stroke="#63b8ff" d="M171.61,-271.52C154.44,-275.25 136.6,-279.14 120.97,-282.54"/>
<polygon fill="#63b8ff" stroke="#63b8ff" points="172.26,-274.96 181.29,-269.41 170.78,-268.12 172.26,-274.96"/>
</a>
</g>
</g>
<!-- Node8 -->
<g id="Node000008" class="node">
<title>Node8</title>
<g id="a_Node000008"><a xlink:href="../../d6/dd5/namespaceml_1_1maths_1_1common.html#a8471899940ca9b92087dd02ff959a599" target="_top" xlink:title="Overload maximum for CSymmetricMatrix.">
<polygon fill="white" stroke="#666666" points="137.5,-265.25 9.75,-265.25 9.75,-246 137.5,-246 137.5,-265.25"/>
<text text-anchor="middle" x="73.62" y="-251.75" font-family="Helvetica,sans-Serif" font-size="10.00">ml::maths::common::max</text>
</a>
</g>
</g>
<!-- Node1&#45;&gt;Node8 -->
<g id="edge7_Node000001_Node000008" class="edge">
<title>Node1&#45;&gt;Node8</title>
<g id="a_edge7_Node000001_Node000008"><a xlink:title=" ">
<path fill="none" stroke="#63b8ff" d="M171.3,-255.62C160.16,-255.62 148.76,-255.62 137.86,-255.62"/>
<polygon fill="#63b8ff" stroke="#63b8ff" points="171.26,-259.13 181.26,-255.63 171.26,-252.13 171.26,-259.13"/>
</a>
</g>
</g>
<!-- Node9 -->
<g id="Node000009" class="node">
<title>Node9</title>
<g id="a_Node000009"><a xlink:href="../../d6/dd5/namespaceml_1_1maths_1_1common.html#ab53b45d0cb7b89600d5fa2a304ec29a5" target="_top" xlink:title="Overload minimum for CSymmetricMatrix.">
<polygon fill="white" stroke="#666666" points="136,-228.25 11.25,-228.25 11.25,-209 136,-209 136,-228.25"/>
<text text-anchor="middle" x="73.62" y="-214.75" font-family="Helvetica,sans-Serif" font-size="10.00">ml::maths::common::min</text>
</a>
</g>
</g>
<!-- Node1&#45;&gt;Node9 -->
<g id="edge8_Node000001_Node000009" class="edge">
<title>Node1&#45;&gt;Node9</title>
<g id="a_edge8_Node000001_Node000009"><a xlink:title=" ">
<path fill="none" stroke="#63b8ff" d="M171.61,-239.73C154.44,-236 136.6,-232.11 120.97,-228.71"/>
<polygon fill="#63b8ff" stroke="#63b8ff" points="170.78,-243.13 181.29,-241.84 172.26,-236.29 170.78,-243.13"/>
</a>
</g>
</g>
<!-- Node10 -->
<g id="Node000010" class="node">
<title>Node10</title>
<g id="a_Node000010"><a xlink:href="../../d6/dd5/namespaceml_1_1maths_1_1common.html#a05e590ea647548b0b297e549770d7053" target="_top" xlink:title="Overload minimum for CSymmetricMatrix.">
<polygon fill="white" stroke="#666666" points="136,-191.25 11.25,-191.25 11.25,-172 136,-172 136,-191.25"/>
<text text-anchor="middle" x="73.62" y="-177.75" font-family="Helvetica,sans-Serif" font-size="10.00">ml::maths::common::min</text>
</a>
</g>
</g>
<!-- Node1&#45;&gt;Node10 -->
<g id="edge9_Node000001_Node000010" class="edge">
<title>Node1&#45;&gt;Node10</title>
<g id="a_edge9_Node000001_Node000010"><a xlink:title=" ">
<path fill="none" stroke="#63b8ff" d="M211.94,-233.75C193.56,-222.26 169.84,-208.71 147.25,-199.62 139.66,-196.57 131.4,-193.93 123.27,-191.68"/>
<polygon fill="#63b8ff" stroke="#63b8ff" points="209.96,-236.64 220.28,-239.07 213.73,-230.74 209.96,-236.64"/>
</a>
</g>
</g>
<!-- Node11 -->
<g id="Node000011" class="node">
<title>Node11</title>
<g id="a_Node000011"><a xlink:href="../../d6/dd5/namespaceml_1_1maths_1_1common.html#a55410124b0e03a58a78389b076154062" target="_top" xlink:title="Overload minimum for CSymmetricMatrix.">
<polygon fill="white" stroke="#666666" points="136,-154.25 11.25,-154.25 11.25,-135 136,-135 136,-154.25"/>
<text text-anchor="middle" x="73.62" y="-140.75" font-family="Helvetica,sans-Serif" font-size="10.00">ml::maths::common::min</text>
</a>
</g>
</g>
<!-- Node1&#45;&gt;Node11 -->
<g id="edge10_Node000001_Node000011" class="edge">
<title>Node1&#45;&gt;Node11</title>
<g id="a_edge10_Node000001_Node000011"><a xlink:title=" ">
<path fill="none" stroke="#63b8ff" d="M225.66,-231.43C207.7,-210.17 178.83,-179.99 147.25,-162.62 141.44,-159.43 135.07,-156.8 128.58,-154.63"/>
<polygon fill="#63b8ff" stroke="#63b8ff" points="222.87,-233.55 231.93,-239.05 228.27,-229.1 222.87,-233.55"/>
</a>
</g>
</g>
<!-- Node12 -->
<g id="Node000012" class="node">
<title>Node12</title>
<g id="a_Node000012"><a xlink:href="../../d6/dd5/namespaceml_1_1maths_1_1common.html#ade96659972eec9741d2f1b3f5fae9b19" target="_top" xlink:title=" ">
<polygon fill="white" stroke="#666666" points="128.12,-116.88 19.12,-116.88 19.12,-86.38 128.12,-86.38 128.12,-116.88"/>
<text text-anchor="start" x="27.12" y="-103.38" font-family="Helvetica,sans-Serif" font-size="10.00">ml::maths::common::</text>
<text text-anchor="middle" x="73.62" y="-92.12" font-family="Helvetica,sans-Serif" font-size="10.00">operator*</text>
</a>
</g>
</g>
<!-- Node1&#45;&gt;Node12 -->
<g id="edge11_Node000001_Node000012" class="edge">
<title>Node1&#45;&gt;Node12</title>
<g id="a_edge11_Node000001_Node000012"><a xlink:title=" ">
<path fill="none" stroke="#63b8ff" d="M231.74,-230.08C215.74,-200.81 185.78,-153.34 147.25,-125.62 141.54,-121.52 135.08,-118.08 128.42,-115.21"/>
<polygon fill="#63b8ff" stroke="#63b8ff" points="228.5,-231.44 236.29,-238.63 234.69,-228.16 228.5,-231.44"/>
</a>
</g>
</g>
<!-- Node13 -->
<g id="Node000013" class="node">
<title>Node13</title>
<g id="a_Node000013"><a xlink:href="../../d6/dd5/namespaceml_1_1maths_1_1common.html#a1fa552ed70f1dff561a0d742ae238d76" target="_top" xlink:title="Output for debug.">
<polygon fill="white" stroke="#666666" points="128.12,-67.88 19.12,-67.88 19.12,-37.38 128.12,-37.38 128.12,-67.88"/>
<text text-anchor="start" x="27.12" y="-54.38" font-family="Helvetica,sans-Serif" font-size="10.00">ml::maths::common::</text>
<text text-anchor="middle" x="73.62" y="-43.12" font-family="Helvetica,sans-Serif" font-size="10.00">operator&lt;&lt;</text>
</a>
</g>
</g>
<!-- Node1&#45;&gt;Node13 -->
<g id="edge12_Node000001_Node000013" class="edge">
<title>Node1&#45;&gt;Node13</title>
<g id="a_edge12_Node000001_Node000013"><a xlink:title=" ">
<path fill="none" stroke="#63b8ff" d="M236.95,-229.2C224.41,-190.54 195.92,-118.69 147.25,-77.62 141.64,-72.9 135.1,-69.04 128.27,-65.91"/>
<polygon fill="#63b8ff" stroke="#63b8ff" points="233.57,-230.11 239.89,-238.62 240.25,-228.03 233.57,-230.11"/>
</a>
</g>
</g>
<!-- Node14 -->
<g id="Node000014" class="node">
<title>Node14</title>
<g id="a_Node000014"><a xlink:href="../../d6/dd5/namespaceml_1_1maths_1_1common.html#a280a75b5d714a9c34c932d22c8016721" target="_top" xlink:title="Overload sqrt for CSymmetricMatrix.">
<polygon fill="white" stroke="#666666" points="136.38,-19.25 10.88,-19.25 10.88,0 136.38,0 136.38,-19.25"/>
<text text-anchor="middle" x="73.62" y="-5.75" font-family="Helvetica,sans-Serif" font-size="10.00">ml::maths::common::sqrt</text>
</a>
</g>
</g>
<!-- Node1&#45;&gt;Node14 -->
<g id="edge13_Node000001_Node000014" class="edge">
<title>Node1&#45;&gt;Node14</title>
<g id="a_edge13_Node000001_Node000014"><a xlink:title=" ">
<path fill="none" stroke="#63b8ff" d="M240.85,-228.71C232.72,-181.04 208.99,-81.77 147.25,-28.62 143,-24.97 138.13,-22.01 132.97,-19.6"/>
<polygon fill="#63b8ff" stroke="#63b8ff" points="237.37,-229.11 242.4,-238.43 244.29,-228.01 237.37,-229.11"/>
</a>
</g>
</g>
</g>
</svg>
