<?xml version="1.0" encoding="UTF-8" standalone="no"?>
<!DOCTYPE svg PUBLIC "-//W3C//DTD SVG 1.1//EN"
 "http://www.w3.org/Graphics/SVG/1.1/DTD/svg11.dtd">
<!-- Generated by graphviz version 10.0.1 (20240210.2158)
 -->
<!-- Title: ml::maths::common::CNaturalBreaksClassifier::sample Pages: 1 -->
<svg width="918pt" height="422pt"
 viewBox="0.00 0.00 917.50 421.80" xmlns="http://www.w3.org/2000/svg" xmlns:xlink="http://www.w3.org/1999/xlink">
<g id="graph0" class="graph" transform="scale(1 1) rotate(0) translate(4 417.8)">
<title>ml::maths::common::CNaturalBreaksClassifier::sample</title>
<!-- Node1 -->
<g id="Node000001" class="node">
<title>Node1</title>
<g id="a_Node000001"><a xlink:title=" ">
<polygon fill="#999999" stroke="#666666" points="127,-224.12 0,-224.12 0,-182.38 127,-182.38 127,-224.12"/>
<text text-anchor="start" x="8" y="-210.62" font-family="Helvetica,sans-Serif" font-size="10.00">ml::maths::common::</text>
<text text-anchor="start" x="8" y="-199.38" font-family="Helvetica,sans-Serif" font-size="10.00">CNaturalBreaksClassifier</text>
<text text-anchor="middle" x="63.5" y="-188.12" font-family="Helvetica,sans-Serif" font-size="10.00">::sample</text>
</a>
</g>
</g>
<!-- Node1&#45;&gt;Node1 -->
<g id="edge19_Node000001_Node000001" class="edge">
<title>Node1&#45;&gt;Node1</title>
<g id="a_edge19_Node000001_Node000001"><a xlink:title=" ">
<path fill="none" stroke="#63b8ff" d="M27.53,-224.44C24.11,-233.92 36.1,-242.12 63.5,-242.12 79.34,-242.12 90.03,-239.38 95.57,-235.24"/>
<polygon fill="#63b8ff" stroke="#63b8ff" points="98.85,-236.46 98.95,-225.87 92.27,-234.09 98.85,-236.46"/>
</a>
</g>
</g>
<!-- Node2 -->
<g id="Node000002" class="node">
<title>Node2</title>
<g id="a_Node000002"><a xlink:href="../../d4/d55/classml_1_1maths_1_1common_1_1_c_basic_statistics.html#a6a8651e3b13d0aaa6577af10dfdd97f7" target="_top" xlink:title="Extract the count from an accumulator object.">
<polygon fill="white" stroke="#666666" points="878.38,-367.5 758.88,-367.5 758.88,-337 878.38,-337 878.38,-367.5"/>
<text text-anchor="start" x="766.88" y="-354" font-family="Helvetica,sans-Serif" font-size="10.00">ml::maths::common::</text>
<text text-anchor="middle" x="818.62" y="-342.75" font-family="Helvetica,sans-Serif" font-size="10.00">CBasicStatistics::count</text>
</a>
</g>
</g>
<!-- Node1&#45;&gt;Node2 -->
<g id="edge1_Node000001_Node000002" class="edge">
<title>Node1&#45;&gt;Node2</title>
<g id="a_edge1_Node000001_Node000002"><a xlink:title=" ">
<path fill="none" stroke="#63b8ff" d="M71.17,-224.45C83.22,-258.66 112.2,-324.94 163,-352.25 356.65,-456.37 631.47,-403.12 754.18,-370.89"/>
<polygon fill="#63b8ff" stroke="#63b8ff" points="755,-374.3 763.76,-368.33 753.19,-367.53 755,-374.3"/>
</a>
</g>
</g>
<!-- Node3 -->
<g id="Node000003" class="node">
<title>Node3</title>
<g id="a_Node000003"><a xlink:href="../../d3/d93/classml_1_1maths_1_1common_1_1_c_sampling.html#a3092e5a870fc391084295576725ef16f" target="_top" xlink:title=" ">
<polygon fill="white" stroke="#666666" points="346.62,-343.5 170.12,-343.5 170.12,-313 346.62,-313 346.62,-343.5"/>
<text text-anchor="start" x="178.12" y="-330" font-family="Helvetica,sans-Serif" font-size="10.00">ml::maths::common::</text>
<text text-anchor="middle" x="258.38" y="-318.75" font-family="Helvetica,sans-Serif" font-size="10.00">CSampling::gammaSampleQuantiles</text>
</a>
</g>
</g>
<!-- Node1&#45;&gt;Node3 -->
<g id="edge2_Node000001_Node000003" class="edge">
<title>Node1&#45;&gt;Node3</title>
<g id="a_edge2_Node000001_Node000003"><a xlink:title=" ">
<path fill="none" stroke="#63b8ff" d="M79.41,-224.39C96.82,-247.49 127.79,-283.93 163,-304.25 165.35,-305.6 167.77,-306.88 170.25,-308.09"/>
<polygon fill="#63b8ff" stroke="#63b8ff" points="168.77,-311.27 179.34,-312.06 171.57,-304.85 168.77,-311.27"/>
</a>
</g>
</g>
<!-- Node4 -->
<g id="Node000004" class="node">
<title>Node4</title>
<g id="a_Node000004"><a xlink:href="../../d4/d55/classml_1_1maths_1_1common_1_1_c_basic_statistics.html#a45b74921f0f00f81037a3dbfc16c75eb" target="_top" xlink:title=" ">
<polygon fill="white" stroke="#666666" points="909.5,-274.12 727.75,-274.12 727.75,-232.38 909.5,-232.38 909.5,-274.12"/>
<text text-anchor="start" x="735.75" y="-260.62" font-family="Helvetica,sans-Serif" font-size="10.00">ml::maths::common::</text>
<text text-anchor="start" x="735.75" y="-249.38" font-family="Helvetica,sans-Serif" font-size="10.00">CBasicStatistics::maximumLikelihood</text>
<text text-anchor="middle" x="818.62" y="-238.12" font-family="Helvetica,sans-Serif" font-size="10.00">Variance</text>
</a>
</g>
</g>
<!-- Node1&#45;&gt;Node4 -->
<g id="edge3_Node000001_Node000004" class="edge">
<title>Node1&#45;&gt;Node4</title>
<g id="a_edge3_Node000001_Node000004"><a xlink:title=" ">
<path fill="none" stroke="#63b8ff" d="M101.07,-181.99C119.08,-172.73 141.51,-162.93 163,-158.25 393.38,-108.12 463.85,-140.83 691.75,-201.25 716.01,-207.68 741.79,-217.72 763.66,-227.26"/>
<polygon fill="#63b8ff" stroke="#63b8ff" points="762.11,-230.41 772.67,-231.28 764.96,-224.01 762.11,-230.41"/>
</a>
</g>
</g>
<!-- Node5 -->
<g id="Node000005" class="node">
<title>Node5</title>
<g id="a_Node000005"><a xlink:href="../../d4/d55/classml_1_1maths_1_1common_1_1_c_basic_statistics.html#a9a136b1823e9938247cd29bb0ffea440" target="_top" xlink:title="Compute the mean of a pair.">
<polygon fill="white" stroke="#666666" points="685,-240.5 565.5,-240.5 565.5,-210 685,-210 685,-240.5"/>
<text text-anchor="start" x="573.5" y="-227" font-family="Helvetica,sans-Serif" font-size="10.00">ml::maths::common::</text>
<text text-anchor="middle" x="625.25" y="-215.75" font-family="Helvetica,sans-Serif" font-size="10.00">CBasicStatistics::mean</text>
</a>
</g>
</g>
<!-- Node1&#45;&gt;Node5 -->
<g id="edge4_Node000001_Node000005" class="edge">
<title>Node1&#45;&gt;Node5</title>
<g id="a_edge4_Node000001_Node000005"><a xlink:title=" ">
<path fill="none" stroke="#63b8ff" d="M127.35,-205.72C232.58,-209.86 443.7,-218.15 553.8,-222.48"/>
<polygon fill="#63b8ff" stroke="#63b8ff" points="553.46,-225.97 563.59,-222.87 553.73,-218.98 553.46,-225.97"/>
</a>
</g>
</g>
<!-- Node6 -->
<g id="Node000006" class="node">
<title>Node6</title>
<g id="a_Node000006"><a xlink:href="../../d4/d55/classml_1_1maths_1_1common_1_1_c_basic_statistics.html#a4062b0969553b6d4137ff5f348f2adad" target="_top" xlink:title="Make a mean accumulator.">
<polygon fill="white" stroke="#666666" points="353.75,-197.5 163,-197.5 163,-167 353.75,-167 353.75,-197.5"/>
<text text-anchor="start" x="171" y="-184" font-family="Helvetica,sans-Serif" font-size="10.00">ml::maths::common::</text>
<text text-anchor="middle" x="258.38" y="-172.75" font-family="Helvetica,sans-Serif" font-size="10.00">CBasicStatistics::momentsAccumulator</text>
</a>
</g>
</g>
<!-- Node1&#45;&gt;Node6 -->
<g id="edge5_Node000001_Node000006" class="edge">
<title>Node1&#45;&gt;Node6</title>
<g id="a_edge5_Node000001_Node000006"><a xlink:title=" ">
<path fill="none" stroke="#63b8ff" d="M127.39,-196.4C135.17,-195.56 143.29,-194.67 151.5,-193.78"/>
<polygon fill="#63b8ff" stroke="#63b8ff" points="151.66,-197.28 161.22,-192.72 150.9,-190.32 151.66,-197.28"/>
</a>
</g>
</g>
<!-- Node7 -->
<g id="Node000007" class="node">
<title>Node7</title>
<g id="a_Node000007"><a xlink:href="../../d3/d93/classml_1_1maths_1_1common_1_1_c_sampling.html#aac83e97cf2d085ba89359cd5ac20d1ee" target="_top" xlink:title=" ">
<polygon fill="white" stroke="#666666" points="345.12,-111.5 171.62,-111.5 171.62,-81 345.12,-81 345.12,-111.5"/>
<text text-anchor="start" x="179.62" y="-98" font-family="Helvetica,sans-Serif" font-size="10.00">ml::maths::common::</text>
<text text-anchor="middle" x="258.38" y="-86.75" font-family="Helvetica,sans-Serif" font-size="10.00">CSampling::normalSampleQuantiles</text>
</a>
</g>
</g>
<!-- Node1&#45;&gt;Node7 -->
<g id="edge6_Node000001_Node000007" class="edge">
<title>Node1&#45;&gt;Node7</title>
<g id="a_edge6_Node000001_Node000007"><a xlink:title=" ">
<path fill="none" stroke="#63b8ff" d="M86.28,-182.04C105.2,-164.64 134.04,-140.47 163,-125.25 169.63,-121.77 176.74,-118.63 183.98,-115.82"/>
<polygon fill="#63b8ff" stroke="#63b8ff" points="185.01,-119.17 193.21,-112.45 182.62,-112.59 185.01,-119.17"/>
</a>
</g>
</g>
<!-- Node14 -->
<g id="Node000014" class="node">
<title>Node14</title>
<g id="a_Node000014"><a xlink:href="../../d6/d59/classml_1_1maths_1_1common_1_1_c_natural_breaks_classifier.html#a70aadff7ed11ca66ff3e0b2c17b02233" target="_top" xlink:title="Reduce the number of tuples until we satisfy the space constraint.">
<polygon fill="white" stroke="#666666" points="321.88,-295.12 194.88,-295.12 194.88,-253.38 321.88,-253.38 321.88,-295.12"/>
<text text-anchor="start" x="202.88" y="-281.62" font-family="Helvetica,sans-Serif" font-size="10.00">ml::maths::common::</text>
<text text-anchor="start" x="202.88" y="-270.38" font-family="Helvetica,sans-Serif" font-size="10.00">CNaturalBreaksClassifier</text>
<text text-anchor="middle" x="258.38" y="-259.12" font-family="Helvetica,sans-Serif" font-size="10.00">::reduce</text>
</a>
</g>
</g>
<!-- Node1&#45;&gt;Node14 -->
<g id="edge13_Node000001_Node000014" class="edge">
<title>Node1&#45;&gt;Node14</title>
<g id="a_edge13_Node000001_Node000014"><a xlink:title=" ">
<path fill="none" stroke="#63b8ff" d="M122.37,-224.55C143.35,-232.27 167.24,-241.07 189.04,-249.09"/>
<polygon fill="#63b8ff" stroke="#63b8ff" points="187.53,-252.27 198.13,-252.44 189.95,-245.7 187.53,-252.27"/>
</a>
</g>
</g>
<!-- Node17 -->
<g id="Node000017" class="node">
<title>Node17</title>
<g id="a_Node000017"><a xlink:href="../../dd/d55/classml_1_1maths_1_1common_1_1_c_tools.html#a0ee3c8a8c133d36faa270f96ff48ae21" target="_top" xlink:title=" ">
<polygon fill="white" stroke="#666666" points="312.88,-62.5 203.88,-62.5 203.88,-32 312.88,-32 312.88,-62.5"/>
<text text-anchor="start" x="211.88" y="-49" font-family="Helvetica,sans-Serif" font-size="10.00">ml::maths::common::</text>
<text text-anchor="middle" x="258.38" y="-37.75" font-family="Helvetica,sans-Serif" font-size="10.00">CTools::truncate</text>
</a>
</g>
</g>
<!-- Node1&#45;&gt;Node17 -->
<g id="edge20_Node000001_Node000017" class="edge">
<title>Node1&#45;&gt;Node17</title>
<g id="a_edge20_Node000001_Node000017"><a xlink:title=" ">
<path fill="none" stroke="#63b8ff" d="M74.66,-182.05C89.78,-152.82 120.98,-100.54 163,-72.25 171.97,-66.21 182.34,-61.63 192.85,-58.15"/>
<polygon fill="#63b8ff" stroke="#63b8ff" points="193.74,-61.53 202.34,-55.34 191.76,-54.82 193.74,-61.53"/>
</a>
</g>
</g>
<!-- Node8 -->
<g id="Node000008" class="node">
<title>Node8</title>
<g id="a_Node000008"><a xlink:href="../../d6/dd5/namespaceml_1_1maths_1_1common.html#a37f8b7909e617ad623600aead4cfc868" target="_top" xlink:title="Compute the distribution mean.">
<polygon fill="white" stroke="#666666" points="522.75,-105.88 389.75,-105.88 389.75,-86.62 522.75,-86.62 522.75,-105.88"/>
<text text-anchor="middle" x="456.25" y="-92.38" font-family="Helvetica,sans-Serif" font-size="10.00">ml::maths::common::mean</text>
</a>
</g>
</g>
<!-- Node7&#45;&gt;Node8 -->
<g id="edge7_Node000007_Node000008" class="edge">
<title>Node7&#45;&gt;Node8</title>
<g id="a_edge7_Node000007_Node000008"><a xlink:title=" ">
<path fill="none" stroke="#63b8ff" d="M345.57,-96.25C356.35,-96.25 367.32,-96.25 377.95,-96.25"/>
<polygon fill="#63b8ff" stroke="#63b8ff" points="377.82,-99.75 387.82,-96.25 377.82,-92.75 377.82,-99.75"/>
</a>
</g>
</g>
<!-- Node9 -->
<g id="Node000009" class="node">
<title>Node9</title>
<g id="a_Node000009"><a xlink:href="../../d6/dd5/namespaceml_1_1maths_1_1common.html#aa139fb07823365e51bd2f01178d7a61a" target="_top" xlink:title="Compute the mode for distribution.">
<polygon fill="white" stroke="#666666" points="691.75,-105.88 558.75,-105.88 558.75,-86.62 691.75,-86.62 691.75,-105.88"/>
<text text-anchor="middle" x="625.25" y="-92.38" font-family="Helvetica,sans-Serif" font-size="10.00">ml::maths::common::mode</text>
</a>
</g>
</g>
<!-- Node8&#45;&gt;Node9 -->
<g id="edge8_Node000008_Node000009" class="edge">
<title>Node8&#45;&gt;Node9</title>
<g id="a_edge8_Node000008_Node000009"><a xlink:title=" ">
<path fill="none" stroke="#63b8ff" d="M522.77,-96.25C530.72,-96.25 538.9,-96.25 547,-96.25"/>
<polygon fill="#63b8ff" stroke="#63b8ff" points="546.85,-99.75 556.85,-96.25 546.85,-92.75 546.85,-99.75"/>
</a>
</g>
</g>
<!-- Node10 -->
<g id="Node000010" class="node">
<title>Node10</title>
<g id="a_Node000010"><a xlink:href="../../d0/d1c/classml_1_1maths_1_1common_1_1_c_log_t_distribution.html#a128ce0a627956e7931be0358fe995d2d" target="_top" xlink:title=" ">
<polygon fill="white" stroke="#666666" points="886.25,-90.12 751,-90.12 751,-48.38 886.25,-48.38 886.25,-90.12"/>
<text text-anchor="start" x="759" y="-76.62" font-family="Helvetica,sans-Serif" font-size="10.00">ml::maths::common::</text>
<text text-anchor="start" x="759" y="-65.38" font-family="Helvetica,sans-Serif" font-size="10.00">CLogTDistribution::degrees</text>
<text text-anchor="middle" x="818.62" y="-54.12" font-family="Helvetica,sans-Serif" font-size="10.00">Freedom</text>
</a>
</g>
</g>
<!-- Node9&#45;&gt;Node10 -->
<g id="edge9_Node000009_Node000010" class="edge">
<title>Node9&#45;&gt;Node10</title>
<g id="a_edge9_Node000009_Node000010"><a xlink:title=" ">
<path fill="none" stroke="#63b8ff" d="M692.11,-86.96C707.34,-84.81 723.68,-82.5 739.38,-80.29"/>
<polygon fill="#63b8ff" stroke="#63b8ff" points="739.76,-83.77 749.17,-78.91 738.78,-76.84 739.76,-83.77"/>
</a>
</g>
</g>
<!-- Node11 -->
<g id="Node000011" class="node">
<title>Node11</title>
<g id="a_Node000011"><a xlink:href="../../d0/d1c/classml_1_1maths_1_1common_1_1_c_log_t_distribution.html#a4267908e2f6c547fd21f75a77f6bee78" target="_top" xlink:title=" ">
<polygon fill="white" stroke="#666666" points="885.88,-30.5 751.38,-30.5 751.38,0 885.88,0 885.88,-30.5"/>
<text text-anchor="start" x="759.38" y="-17" font-family="Helvetica,sans-Serif" font-size="10.00">ml::maths::common::</text>
<text text-anchor="middle" x="818.62" y="-5.75" font-family="Helvetica,sans-Serif" font-size="10.00">CLogTDistribution::location</text>
</a>
</g>
</g>
<!-- Node9&#45;&gt;Node11 -->
<g id="edge10_Node000009_Node000011" class="edge">
<title>Node9&#45;&gt;Node11</title>
<g id="a_edge10_Node000009_Node000011"><a xlink:title=" ">
<path fill="none" stroke="#63b8ff" d="M641.13,-86.31C660.4,-73.82 695.36,-52.42 727.75,-39.25 731.84,-37.59 736.08,-36 740.4,-34.5"/>
<polygon fill="#63b8ff" stroke="#63b8ff" points="741.38,-37.87 749.79,-31.42 739.2,-31.22 741.38,-37.87"/>
</a>
</g>
</g>
<!-- Node12 -->
<g id="Node000012" class="node">
<title>Node12</title>
<g id="a_Node000012"><a xlink:href="../../dd/d55/classml_1_1maths_1_1common_1_1_c_tools.html#aa0600053da91719428498ec9968916c3" target="_top" xlink:title="Compute .">
<polygon fill="white" stroke="#666666" points="873.12,-187.5 764.12,-187.5 764.12,-157 873.12,-157 873.12,-187.5"/>
<text text-anchor="start" x="772.12" y="-174" font-family="Helvetica,sans-Serif" font-size="10.00">ml::maths::common::</text>
<text text-anchor="middle" x="818.62" y="-162.75" font-family="Helvetica,sans-Serif" font-size="10.00">CTools::pow2</text>
</a>
</g>
</g>
<!-- Node9&#45;&gt;Node12 -->
<g id="edge11_Node000009_Node000012" class="edge">
<title>Node9&#45;&gt;Node12</title>
<g id="a_edge11_Node000009_Node000012"><a xlink:title=" ">
<path fill="none" stroke="#63b8ff" d="M650.87,-106.24C663.31,-111.52 678.53,-118.32 691.75,-125.25 708.36,-133.95 710.55,-139.78 727.75,-147.25 735.79,-150.74 744.45,-153.88 753.11,-156.65"/>
<polygon fill="#63b8ff" stroke="#63b8ff" points="751.99,-159.97 762.58,-159.52 754.03,-153.27 751.99,-159.97"/>
</a>
</g>
</g>
<!-- Node13 -->
<g id="Node000013" class="node">
<title>Node13</title>
<g id="a_Node000013"><a xlink:href="../../d0/d1c/classml_1_1maths_1_1common_1_1_c_log_t_distribution.html#a8f03f27080a2f59d3da535b4b4f228ef" target="_top" xlink:title=" ">
<polygon fill="white" stroke="#666666" points="880.62,-138.5 756.62,-138.5 756.62,-108 880.62,-108 880.62,-138.5"/>
<text text-anchor="start" x="764.62" y="-125" font-family="Helvetica,sans-Serif" font-size="10.00">ml::maths::common::</text>
<text text-anchor="middle" x="818.62" y="-113.75" font-family="Helvetica,sans-Serif" font-size="10.00">CLogTDistribution::scale</text>
</a>
</g>
</g>
<!-- Node9&#45;&gt;Node13 -->
<g id="edge12_Node000009_Node000013" class="edge">
<title>Node9&#45;&gt;Node13</title>
<g id="a_edge12_Node000009_Node000013"><a xlink:title=" ">
<path fill="none" stroke="#63b8ff" d="M692.11,-105.54C709.14,-107.94 727.57,-110.54 744.93,-112.99"/>
<polygon fill="#63b8ff" stroke="#63b8ff" points="744.26,-116.43 754.65,-114.37 745.24,-109.5 744.26,-116.43"/>
</a>
</g>
</g>
<!-- Node15 -->
<g id="Node000015" class="node">
<title>Node15</title>
<g id="a_Node000015"><a xlink:href="../../d6/d59/classml_1_1maths_1_1common_1_1_c_natural_breaks_classifier.html#a6c65badb9cba6c03fdde185b4ab8f501" target="_top" xlink:title="Get the indices of the closest categories.">
<polygon fill="white" stroke="#666666" points="519.75,-295.12 392.75,-295.12 392.75,-253.38 519.75,-253.38 519.75,-295.12"/>
<text text-anchor="start" x="400.75" y="-281.62" font-family="Helvetica,sans-Serif" font-size="10.00">ml::maths::common::</text>
<text text-anchor="start" x="400.75" y="-270.38" font-family="Helvetica,sans-Serif" font-size="10.00">CNaturalBreaksClassifier</text>
<text text-anchor="middle" x="456.25" y="-259.12" font-family="Helvetica,sans-Serif" font-size="10.00">::closestPair</text>
</a>
</g>
</g>
<!-- Node14&#45;&gt;Node15 -->
<g id="edge14_Node000014_Node000015" class="edge">
<title>Node14&#45;&gt;Node15</title>
<g id="a_edge14_Node000014_Node000015"><a xlink:title=" ">
<path fill="none" stroke="#63b8ff" d="M322.16,-274.25C340.96,-274.25 361.76,-274.25 381.21,-274.25"/>
<polygon fill="#63b8ff" stroke="#63b8ff" points="380.97,-277.75 390.97,-274.25 380.97,-270.75 380.97,-277.75"/>
</a>
</g>
</g>
<!-- Node15&#45;&gt;Node5 -->
<g id="edge18_Node000015_Node000005" class="edge">
<title>Node15&#45;&gt;Node5</title>
<g id="a_edge18_Node000015_Node000005"><a xlink:title=" ">
<path fill="none" stroke="#63b8ff" d="M519.91,-255.86C533,-252.02 546.81,-247.97 559.96,-244.11"/>
<polygon fill="#63b8ff" stroke="#63b8ff" points="560.75,-247.53 569.36,-241.36 558.78,-240.81 560.75,-247.53"/>
</a>
</g>
</g>
<!-- Node16 -->
<g id="Node000016" class="node">
<title>Node16</title>
<g id="a_Node000016"><a xlink:href="../../d6/d59/classml_1_1maths_1_1common_1_1_c_natural_breaks_classifier.html#a0c0ba018ea39b0e44381d376369b9e89" target="_top" xlink:title="Get the total deviation of the specified class.">
<polygon fill="white" stroke="#666666" points="688.75,-300.12 561.75,-300.12 561.75,-258.38 688.75,-258.38 688.75,-300.12"/>
<text text-anchor="start" x="569.75" y="-286.62" font-family="Helvetica,sans-Serif" font-size="10.00">ml::maths::common::</text>
<text text-anchor="start" x="569.75" y="-275.38" font-family="Helvetica,sans-Serif" font-size="10.00">CNaturalBreaksClassifier</text>
<text text-anchor="middle" x="625.25" y="-264.12" font-family="Helvetica,sans-Serif" font-size="10.00">::deviation</text>
</a>
</g>
</g>
<!-- Node15&#45;&gt;Node16 -->
<g id="edge15_Node000015_Node000016" class="edge">
<title>Node15&#45;&gt;Node16</title>
<g id="a_edge15_Node000015_Node000016"><a xlink:title=" ">
<path fill="none" stroke="#63b8ff" d="M519.91,-276.13C529.79,-276.42 540.1,-276.73 550.21,-277.03"/>
<polygon fill="#63b8ff" stroke="#63b8ff" points="549.9,-280.53 560,-277.33 550.11,-273.53 549.9,-280.53"/>
</a>
</g>
</g>
<!-- Node16&#45;&gt;Node2 -->
<g id="edge16_Node000016_Node000002" class="edge">
<title>Node16&#45;&gt;Node2</title>
<g id="a_edge16_Node000016_Node000002"><a xlink:title=" ">
<path fill="none" stroke="#63b8ff" d="M682.12,-300.56C708.57,-310.65 739.96,-322.62 765.87,-332.51"/>
<polygon fill="#63b8ff" stroke="#63b8ff" points="764.6,-335.77 775.19,-336.06 767.09,-329.23 764.6,-335.77"/>
</a>
</g>
</g>
<!-- Node16&#45;&gt;Node4 -->
<g id="edge17_Node000016_Node000004" class="edge">
<title>Node16&#45;&gt;Node4</title>
<g id="a_edge17_Node000016_Node000004"><a xlink:title=" ">
<path fill="none" stroke="#63b8ff" d="M689.18,-270.7C697.85,-269.52 706.94,-268.29 716.09,-267.04"/>
<polygon fill="#63b8ff" stroke="#63b8ff" points="716.33,-270.54 725.77,-265.73 715.39,-263.61 716.33,-270.54"/>
</a>
</g>
</g>
</g>
</svg>
