<?xml version="1.0" encoding="UTF-8" standalone="no"?>
<!DOCTYPE svg PUBLIC "-//W3C//DTD SVG 1.1//EN"
 "http://www.w3.org/Graphics/SVG/1.1/DTD/svg11.dtd">
<!-- Generated by graphviz version 10.0.1 (20240210.2158)
 -->
<!-- Title: ml::core::CPatternSet::initFromJson Pages: 1 -->
<svg width="698pt" height="253pt"
 viewBox="0.00 0.00 697.75 252.50" xmlns="http://www.w3.org/2000/svg" xmlns:xlink="http://www.w3.org/1999/xlink">
<g id="graph0" class="graph" transform="scale(1 1) rotate(0) translate(4 248.5)">
<title>ml::core::CPatternSet::initFromJson</title>
<!-- Node1 -->
<g id="Node000001" class="node">
<title>Node1</title>
<g id="a_Node000001"><a xlink:title="Initialise the set from JSON that is an array of strings.">
<polygon fill="#999999" stroke="#666666" points="111.25,-103.5 0,-103.5 0,-73 111.25,-73 111.25,-103.5"/>
<text text-anchor="start" x="8" y="-90" font-family="Helvetica,sans-Serif" font-size="10.00">ml::core::CPatternSet</text>
<text text-anchor="middle" x="55.62" y="-78.75" font-family="Helvetica,sans-Serif" font-size="10.00">::initFromJson</text>
</a>
</g>
</g>
<!-- Node2 -->
<g id="Node000002" class="node">
<title>Node2</title>
<g id="a_Node000002"><a xlink:href="../../d5/d9a/classml_1_1core_1_1_c_flat_prefix_tree.html#ac9c0287e7f45f33df1ec6065e6ddd1ec" target="_top" xlink:title=" ">
<polygon fill="white" stroke="#666666" points="280.25,-177.5 154,-177.5 154,-147 280.25,-147 280.25,-177.5"/>
<text text-anchor="start" x="162" y="-164" font-family="Helvetica,sans-Serif" font-size="10.00">ml::core::CFlatPrefixTree</text>
<text text-anchor="middle" x="217.12" y="-152.75" font-family="Helvetica,sans-Serif" font-size="10.00">::build</text>
</a>
</g>
</g>
<!-- Node1&#45;&gt;Node2 -->
<g id="edge1_Node000001_Node000002" class="edge">
<title>Node1&#45;&gt;Node2</title>
<g id="a_edge1_Node000001_Node000002"><a xlink:title=" ">
<path fill="none" stroke="#63b8ff" d="M83.07,-103.89C100.87,-114.08 125.06,-127.29 147.25,-137.25 151.18,-139.02 155.29,-140.75 159.44,-142.44"/>
<polygon fill="#63b8ff" stroke="#63b8ff" points="157.81,-145.56 168.4,-145.95 160.37,-139.04 157.81,-145.56"/>
</a>
</g>
</g>
<!-- Node8 -->
<g id="Node000008" class="node">
<title>Node8</title>
<g id="a_Node000008"><a xlink:href="../../dd/d58/classml_1_1core_1_1_c_pattern_set.html#a62424ef1b7965a18841cf83339115a8a" target="_top" xlink:title="Clears the set.">
<polygon fill="white" stroke="#666666" points="272.75,-128.5 161.5,-128.5 161.5,-98 272.75,-98 272.75,-128.5"/>
<text text-anchor="start" x="169.5" y="-115" font-family="Helvetica,sans-Serif" font-size="10.00">ml::core::CPatternSet</text>
<text text-anchor="middle" x="217.12" y="-103.75" font-family="Helvetica,sans-Serif" font-size="10.00">::clear</text>
</a>
</g>
</g>
<!-- Node1&#45;&gt;Node8 -->
<g id="edge9_Node000001_Node000008" class="edge">
<title>Node1&#45;&gt;Node8</title>
<g id="a_edge9_Node000001_Node000008"><a xlink:title=" ">
<path fill="none" stroke="#63b8ff" d="M111.52,-96.85C123.92,-98.8 137.22,-100.88 150.03,-102.89"/>
<polygon fill="#63b8ff" stroke="#63b8ff" points="149.22,-106.31 159.64,-104.4 150.3,-99.39 149.22,-106.31"/>
</a>
</g>
</g>
<!-- Node10 -->
<g id="Node000010" class="node">
<title>Node10</title>
<g id="a_Node000010"><a xlink:href="../../d5/d07/classml_1_1core_1_1_c_boost_json_parser.html#af72dcb0c0282a3644f340eeea38caa8c" target="_top" xlink:title=" ">
<polygon fill="white" stroke="#666666" points="287,-79.5 147.25,-79.5 147.25,-49 287,-49 287,-79.5"/>
<text text-anchor="start" x="155.25" y="-66" font-family="Helvetica,sans-Serif" font-size="10.00">ml::core::CBoostJsonParser</text>
<text text-anchor="middle" x="217.12" y="-54.75" font-family="Helvetica,sans-Serif" font-size="10.00">::parse</text>
</a>
</g>
</g>
<!-- Node1&#45;&gt;Node10 -->
<g id="edge11_Node000001_Node000010" class="edge">
<title>Node1&#45;&gt;Node10</title>
<g id="a_edge11_Node000001_Node000010"><a xlink:title=" ">
<path fill="none" stroke="#63b8ff" d="M111.52,-79.99C119.32,-78.82 127.48,-77.59 135.65,-76.36"/>
<polygon fill="#63b8ff" stroke="#63b8ff" points="135.9,-79.86 145.27,-74.91 134.86,-72.94 135.9,-79.86"/>
</a>
</g>
</g>
<!-- Node11 -->
<g id="Node000011" class="node">
<title>Node11</title>
<g id="a_Node000011"><a xlink:href="../../dd/d58/classml_1_1core_1_1_c_pattern_set.html#acd862d4a1264604cb342e91a03817455" target="_top" xlink:title=" ">
<polygon fill="white" stroke="#666666" points="281,-30.5 153.25,-30.5 153.25,0 281,0 281,-30.5"/>
<text text-anchor="start" x="161.25" y="-17" font-family="Helvetica,sans-Serif" font-size="10.00">ml::core::CPatternSet</text>
<text text-anchor="middle" x="217.12" y="-5.75" font-family="Helvetica,sans-Serif" font-size="10.00">::sortAndPruneDuplicates</text>
</a>
</g>
</g>
<!-- Node1&#45;&gt;Node11 -->
<g id="edge12_Node000001_Node000011" class="edge">
<title>Node1&#45;&gt;Node11</title>
<g id="a_edge12_Node000001_Node000011"><a xlink:title=" ">
<path fill="none" stroke="#63b8ff" d="M83.9,-72.53C101.64,-62.62 125.44,-49.93 147.25,-40.25 151.26,-38.47 155.43,-36.72 159.66,-35.02"/>
<polygon fill="#63b8ff" stroke="#63b8ff" points="160.74,-38.35 168.79,-31.46 158.2,-31.83 160.74,-38.35"/>
</a>
</g>
</g>
<!-- Node3 -->
<g id="Node000003" class="node">
<title>Node3</title>
<g id="a_Node000003"><a xlink:href="../../d5/d9a/classml_1_1core_1_1_c_flat_prefix_tree.html#a3c93c774f1385bee9d579c358ea7462b" target="_top" xlink:title="The recursive building helper.">
<polygon fill="white" stroke="#666666" points="449.25,-226.5 323,-226.5 323,-196 449.25,-196 449.25,-226.5"/>
<text text-anchor="start" x="331" y="-213" font-family="Helvetica,sans-Serif" font-size="10.00">ml::core::CFlatPrefixTree</text>
<text text-anchor="middle" x="386.12" y="-201.75" font-family="Helvetica,sans-Serif" font-size="10.00">::buildRecursively</text>
</a>
</g>
</g>
<!-- Node2&#45;&gt;Node3 -->
<g id="edge2_Node000002_Node000003" class="edge">
<title>Node2&#45;&gt;Node3</title>
<g id="a_edge2_Node000002_Node000003"><a xlink:title=" ">
<path fill="none" stroke="#63b8ff" d="M271.42,-177.89C287.01,-182.46 304.23,-187.51 320.44,-192.27"/>
<polygon fill="#63b8ff" stroke="#63b8ff" points="319.44,-195.62 330.02,-195.08 321.41,-188.91 319.44,-195.62"/>
</a>
</g>
</g>
<!-- Node6 -->
<g id="Node000006" class="node">
<title>Node6</title>
<g id="a_Node000006"><a xlink:href="../../d5/d9a/classml_1_1core_1_1_c_flat_prefix_tree.html#ad06d73c85fb99d9a9888376159c88fd4" target="_top" xlink:title="Pretty&#45;prints the tree.">
<polygon fill="white" stroke="#666666" points="449.25,-177.5 323,-177.5 323,-147 449.25,-147 449.25,-177.5"/>
<text text-anchor="start" x="331" y="-164" font-family="Helvetica,sans-Serif" font-size="10.00">ml::core::CFlatPrefixTree</text>
<text text-anchor="middle" x="386.12" y="-152.75" font-family="Helvetica,sans-Serif" font-size="10.00">::print</text>
</a>
</g>
</g>
<!-- Node2&#45;&gt;Node6 -->
<g id="edge6_Node000002_Node000006" class="edge">
<title>Node2&#45;&gt;Node6</title>
<g id="a_edge6_Node000002_Node000006"><a xlink:title=" ">
<path fill="none" stroke="#63b8ff" d="M280.31,-162.25C290.35,-162.25 300.83,-162.25 311.11,-162.25"/>
<polygon fill="#63b8ff" stroke="#63b8ff" points="311.1,-165.75 321.1,-162.25 311.1,-158.75 311.1,-165.75"/>
</a>
</g>
</g>
<!-- Node3&#45;&gt;Node3 -->
<g id="edge3_Node000003_Node000003" class="edge">
<title>Node3&#45;&gt;Node3</title>
<g id="a_edge3_Node000003_Node000003"><a xlink:title=" ">
<path fill="none" stroke="#63b8ff" d="M356.71,-226.99C350.71,-236.06 360.51,-244.5 386.12,-244.5 400.13,-244.5 409.41,-241.97 413.96,-238.2"/>
<polygon fill="#63b8ff" stroke="#63b8ff" points="417.4,-238.87 415.33,-228.48 410.47,-237.9 417.4,-238.87"/>
</a>
</g>
</g>
<!-- Node4 -->
<g id="Node000004" class="node">
<title>Node4</title>
<g id="a_Node000004"><a xlink:href="../../d5/d9a/classml_1_1core_1_1_c_flat_prefix_tree.html#ad118d5a20419d6b6f4739b353fe9ba34" target="_top" xlink:title=" ">
<polygon fill="white" stroke="#666666" points="619,-226.5 485.25,-226.5 485.25,-196 619,-196 619,-226.5"/>
<text text-anchor="start" x="493.25" y="-213" font-family="Helvetica,sans-Serif" font-size="10.00">ml::core::CFlatPrefixTree</text>
<text text-anchor="middle" x="552.12" y="-201.75" font-family="Helvetica,sans-Serif" font-size="10.00">::extractDistinctCharacters</text>
</a>
</g>
</g>
<!-- Node3&#45;&gt;Node4 -->
<g id="edge4_Node000003_Node000004" class="edge">
<title>Node3&#45;&gt;Node4</title>
<g id="a_edge4_Node000003_Node000004"><a xlink:title=" ">
<path fill="none" stroke="#63b8ff" d="M449.59,-211.25C457.47,-211.25 465.6,-211.25 473.67,-211.25"/>
<polygon fill="#63b8ff" stroke="#63b8ff" points="473.5,-214.75 483.5,-211.25 473.5,-207.75 473.5,-214.75"/>
</a>
</g>
</g>
<!-- Node5 -->
<g id="Node000005" class="node">
<title>Node5</title>
<g id="a_Node000005"><a xlink:href="../../d3/d2e/private_8h.html#a1c6de65cc31c36fe2ede0d438531d327" target="_top" xlink:title=" ">
<polygon fill="white" stroke="#666666" points="689.75,-195.88 655,-195.88 655,-176.62 689.75,-176.62 689.75,-195.88"/>
<text text-anchor="middle" x="672.38" y="-182.38" font-family="Helvetica,sans-Serif" font-size="10.00">type</text>
</a>
</g>
</g>
<!-- Node4&#45;&gt;Node5 -->
<g id="edge5_Node000004_Node000005" class="edge">
<title>Node4&#45;&gt;Node5</title>
<g id="a_edge5_Node000004_Node000005"><a xlink:title=" ">
<path fill="none" stroke="#63b8ff" d="M619.16,-197.29C627.67,-195.49 635.99,-193.73 643.39,-192.17"/>
<polygon fill="#63b8ff" stroke="#63b8ff" points="643.97,-195.62 653.03,-190.13 642.52,-188.77 643.97,-195.62"/>
</a>
</g>
</g>
<!-- Node7 -->
<g id="Node000007" class="node">
<title>Node7</title>
<g id="a_Node000007"><a xlink:href="../../d1/dfa/classml_1_1core_1_1_c_string_utils.html#a0309dd25326b7d77c70fe5e6949b9e71" target="_top" xlink:title="Convert a type to a string.">
<polygon fill="white" stroke="#666666" points="607.38,-177.5 496.88,-177.5 496.88,-147 607.38,-147 607.38,-177.5"/>
<text text-anchor="start" x="504.88" y="-164" font-family="Helvetica,sans-Serif" font-size="10.00">ml::core::CStringUtils</text>
<text text-anchor="middle" x="552.12" y="-152.75" font-family="Helvetica,sans-Serif" font-size="10.00">::typeToString</text>
</a>
</g>
</g>
<!-- Node6&#45;&gt;Node7 -->
<g id="edge7_Node000006_Node000007" class="edge">
<title>Node6&#45;&gt;Node7</title>
<g id="a_edge7_Node000006_Node000007"><a xlink:title=" ">
<path fill="none" stroke="#63b8ff" d="M449.59,-162.25C461.32,-162.25 473.62,-162.25 485.45,-162.25"/>
<polygon fill="#63b8ff" stroke="#63b8ff" points="485.09,-165.75 495.09,-162.25 485.09,-158.75 485.09,-165.75"/>
</a>
</g>
</g>
<!-- Node7&#45;&gt;Node5 -->
<g id="edge8_Node000007_Node000005" class="edge">
<title>Node7&#45;&gt;Node5</title>
<g id="a_edge8_Node000007_Node000005"><a xlink:title=" ">
<path fill="none" stroke="#63b8ff" d="M607.75,-173.34C620.15,-175.85 632.81,-178.42 643.55,-180.6"/>
<polygon fill="#63b8ff" stroke="#63b8ff" points="642.74,-184.01 653.24,-182.57 644.14,-177.15 642.74,-184.01"/>
</a>
</g>
</g>
<!-- Node9 -->
<g id="Node000009" class="node">
<title>Node9</title>
<g id="a_Node000009"><a xlink:href="../../d5/d9a/classml_1_1core_1_1_c_flat_prefix_tree.html#ac3d4b4ced0b4fa847a0405f2535cf732" target="_top" xlink:title="Clears the tree.">
<polygon fill="white" stroke="#666666" points="449.25,-128.5 323,-128.5 323,-98 449.25,-98 449.25,-128.5"/>
<text text-anchor="start" x="331" y="-115" font-family="Helvetica,sans-Serif" font-size="10.00">ml::core::CFlatPrefixTree</text>
<text text-anchor="middle" x="386.12" y="-103.75" font-family="Helvetica,sans-Serif" font-size="10.00">::clear</text>
</a>
</g>
</g>
<!-- Node8&#45;&gt;Node9 -->
<g id="edge10_Node000008_Node000009" class="edge">
<title>Node8&#45;&gt;Node9</title>
<g id="a_edge10_Node000008_Node000009"><a xlink:title=" ">
<path fill="none" stroke="#63b8ff" d="M272.81,-113.25C285.17,-113.25 298.49,-113.25 311.49,-113.25"/>
<polygon fill="#63b8ff" stroke="#63b8ff" points="311.28,-116.75 321.28,-113.25 311.28,-109.75 311.28,-116.75"/>
</a>
</g>
</g>
</g>
</svg>
