<?xml version="1.0" encoding="UTF-8" standalone="no"?>
<!DOCTYPE svg PUBLIC "-//W3C//DTD SVG 1.1//EN"
 "http://www.w3.org/Graphics/SVG/1.1/DTD/svg11.dtd">
<!-- Generated by graphviz version 10.0.1 (20240210.2158)
 -->
<!-- Title: ml::core::CBoostJsonWriterBase::checkArrayNumberFinite Pages: 1 -->
<svg width="1751pt" height="529pt"
 viewBox="0.00 0.00 1751.25 528.88" xmlns="http://www.w3.org/2000/svg" xmlns:xlink="http://www.w3.org/1999/xlink">
<g id="graph0" class="graph" transform="scale(1 1) rotate(0) translate(4 524.88)">
<title>ml::core::CBoostJsonWriterBase::checkArrayNumberFinite</title>
<!-- Node1 -->
<g id="Node000001" class="node">
<title>Node1</title>
<g id="a_Node000001"><a xlink:title="Log a message if we&#39;re trying to add nan/infinity to a JSON array.">
<polygon fill="#999999" stroke="#666666" points="1743.25,-305.5 1590.75,-305.5 1590.75,-275 1743.25,-275 1743.25,-305.5"/>
<text text-anchor="start" x="1598.75" y="-292" font-family="Helvetica,sans-Serif" font-size="10.00">ml::core::CBoostJsonWriter</text>
<text text-anchor="middle" x="1667" y="-280.75" font-family="Helvetica,sans-Serif" font-size="10.00">Base::checkArrayNumberFinite</text>
</a>
</g>
</g>
<!-- Node2 -->
<g id="Node000002" class="node">
<title>Node2</title>
<g id="a_Node000002"><a xlink:href="../../de/d68/classml_1_1core_1_1_c_boost_json_writer_base.html#a31e64f6c9f4a6e0f8be1922a94df1b12" target="_top" xlink:title=" ">
<polygon fill="white" stroke="#666666" points="1534.5,-359.5 1373.75,-359.5 1373.75,-329 1534.5,-329 1534.5,-359.5"/>
<text text-anchor="start" x="1381.75" y="-346" font-family="Helvetica,sans-Serif" font-size="10.00">ml::core::CBoostJsonWriter</text>
<text text-anchor="middle" x="1454.12" y="-334.75" font-family="Helvetica,sans-Serif" font-size="10.00">Base::addDoubleArrayFieldToObj</text>
</a>
</g>
</g>
<!-- Node1&#45;&gt;Node2 -->
<g id="edge1_Node000001_Node000002" class="edge">
<title>Node1&#45;&gt;Node2</title>
<g id="a_edge1_Node000001_Node000002"><a xlink:title=" ">
<path fill="none" stroke="#63b8ff" d="M1598.13,-308.86C1583.82,-312.7 1568.81,-316.66 1554.75,-320.25 1543.98,-323 1532.52,-325.84 1521.37,-328.56"/>
<polygon fill="#63b8ff" stroke="#63b8ff" points="1598.7,-312.34 1607.45,-306.36 1596.88,-305.58 1598.7,-312.34"/>
</a>
</g>
</g>
<!-- Node31 -->
<g id="Node000031" class="node">
<title>Node31</title>
<g id="a_Node000031"><a xlink:href="../../de/d68/classml_1_1core_1_1_c_boost_json_writer_base.html#a93c16b54dea909de8a89aedca4917c59" target="_top" xlink:title=" ">
<polygon fill="white" stroke="#666666" points="1540.12,-311.12 1368.12,-311.12 1368.12,-269.38 1540.12,-269.38 1540.12,-311.12"/>
<text text-anchor="start" x="1376.12" y="-297.62" font-family="Helvetica,sans-Serif" font-size="10.00">ml::core::CBoostJsonWriter</text>
<text text-anchor="start" x="1376.12" y="-286.38" font-family="Helvetica,sans-Serif" font-size="10.00">Base::addDoubleDoubleDoublePrPr</text>
<text text-anchor="middle" x="1454.12" y="-275.12" font-family="Helvetica,sans-Serif" font-size="10.00">ArrayFieldToObj</text>
</a>
</g>
</g>
<!-- Node1&#45;&gt;Node31 -->
<g id="edge35_Node000001_Node000031" class="edge">
<title>Node1&#45;&gt;Node31</title>
<g id="a_edge35_Node000001_Node000031"><a xlink:title=" ">
<path fill="none" stroke="#63b8ff" d="M1579.32,-290.25C1566.51,-290.25 1553.31,-290.25 1540.52,-290.25"/>
<polygon fill="#63b8ff" stroke="#63b8ff" points="1578.95,-293.75 1588.95,-290.25 1578.95,-286.75 1578.95,-293.75"/>
</a>
</g>
</g>
<!-- Node32 -->
<g id="Node000032" class="node">
<title>Node32</title>
<g id="a_Node000032"><a xlink:href="../../de/d68/classml_1_1core_1_1_c_boost_json_writer_base.html#a91c8d5dbe3daa2a8f6ba97258a212205" target="_top" xlink:title=" ">
<polygon fill="white" stroke="#666666" points="1554.75,-251.5 1353.5,-251.5 1353.5,-221 1554.75,-221 1554.75,-251.5"/>
<text text-anchor="start" x="1361.5" y="-238" font-family="Helvetica,sans-Serif" font-size="10.00">ml::core::CBoostJsonWriter</text>
<text text-anchor="middle" x="1454.12" y="-226.75" font-family="Helvetica,sans-Serif" font-size="10.00">Base::addDoubleDoublePrArrayFieldToObj</text>
</a>
</g>
</g>
<!-- Node1&#45;&gt;Node32 -->
<g id="edge36_Node000001_Node000032" class="edge">
<title>Node1&#45;&gt;Node32</title>
<g id="a_edge36_Node000001_Node000032"><a xlink:title=" ">
<path fill="none" stroke="#63b8ff" d="M1598.13,-271.64C1583.82,-267.8 1568.81,-263.84 1554.75,-260.25 1543.98,-257.5 1532.52,-254.66 1521.37,-251.94"/>
<polygon fill="#63b8ff" stroke="#63b8ff" points="1596.88,-274.92 1607.45,-274.14 1598.7,-268.16 1596.88,-274.92"/>
</a>
</g>
</g>
<!-- Node3 -->
<g id="Node000003" class="node">
<title>Node3</title>
<g id="a_Node000003"><a xlink:href="../../d3/d28/classml_1_1api_1_1_c_json_output_writer.html#aca7caa6b68d3b0ac4146d8bd8a29ac5f" target="_top" xlink:title="Write the fields for an event rate detector.">
<polygon fill="white" stroke="#666666" points="1315.62,-408.5 1181.12,-408.5 1181.12,-378 1315.62,-378 1315.62,-408.5"/>
<text text-anchor="start" x="1189.12" y="-395" font-family="Helvetica,sans-Serif" font-size="10.00">ml::api::CJsonOutputWriter</text>
<text text-anchor="middle" x="1248.38" y="-383.75" font-family="Helvetica,sans-Serif" font-size="10.00">::addEventRateFields</text>
</a>
</g>
</g>
<!-- Node2&#45;&gt;Node3 -->
<g id="edge2_Node000002_Node000003" class="edge">
<title>Node2&#45;&gt;Node3</title>
<g id="a_edge2_Node000002_Node000003"><a xlink:title=" ">
<path fill="none" stroke="#63b8ff" d="M1376.65,-362.64C1356.25,-367.55 1334.4,-372.8 1314.66,-377.55"/>
<polygon fill="#63b8ff" stroke="#63b8ff" points="1377.44,-366.05 1386.34,-360.31 1375.8,-359.25 1377.44,-366.05"/>
</a>
</g>
</g>
<!-- Node29 -->
<g id="Node000029" class="node">
<title>Node29</title>
<g id="a_Node000029"><a xlink:href="../../d3/d28/classml_1_1api_1_1_c_json_output_writer.html#a1e50db71f53b75e84de0d3005530ed58" target="_top" xlink:title="Add the fields for a metric detector.">
<polygon fill="white" stroke="#666666" points="1315.62,-359.5 1181.12,-359.5 1181.12,-329 1315.62,-329 1315.62,-359.5"/>
<text text-anchor="start" x="1189.12" y="-346" font-family="Helvetica,sans-Serif" font-size="10.00">ml::api::CJsonOutputWriter</text>
<text text-anchor="middle" x="1248.38" y="-334.75" font-family="Helvetica,sans-Serif" font-size="10.00">::addMetricFields</text>
</a>
</g>
</g>
<!-- Node2&#45;&gt;Node29 -->
<g id="edge31_Node000002_Node000029" class="edge">
<title>Node2&#45;&gt;Node29</title>
<g id="a_edge31_Node000002_Node000029"><a xlink:title=" ">
<path fill="none" stroke="#63b8ff" d="M1362.25,-344.25C1346.73,-344.25 1330.87,-344.25 1316.12,-344.25"/>
<polygon fill="#63b8ff" stroke="#63b8ff" points="1361.96,-347.75 1371.96,-344.25 1361.96,-340.75 1361.96,-347.75"/>
</a>
</g>
</g>
<!-- Node30 -->
<g id="Node000030" class="node">
<title>Node30</title>
<g id="a_Node000030"><a xlink:href="../../d3/d28/classml_1_1api_1_1_c_json_output_writer.html#a441244a277976fa5ed070909be0e7fdd" target="_top" xlink:title="Write the fields for a population detector cause.">
<polygon fill="white" stroke="#666666" points="1317.5,-310.5 1179.25,-310.5 1179.25,-280 1317.5,-280 1317.5,-310.5"/>
<text text-anchor="start" x="1187.25" y="-297" font-family="Helvetica,sans-Serif" font-size="10.00">ml::api::CJsonOutputWriter</text>
<text text-anchor="middle" x="1248.38" y="-285.75" font-family="Helvetica,sans-Serif" font-size="10.00">::addPopulationCauseFields</text>
</a>
</g>
</g>
<!-- Node2&#45;&gt;Node30 -->
<g id="edge33_Node000002_Node000030" class="edge">
<title>Node2&#45;&gt;Node30</title>
<g id="a_edge33_Node000002_Node000030"><a xlink:title=" ">
<path fill="none" stroke="#63b8ff" d="M1376.65,-325.86C1356.25,-320.95 1334.4,-315.7 1314.66,-310.95"/>
<polygon fill="#63b8ff" stroke="#63b8ff" points="1375.8,-329.25 1386.34,-328.19 1377.44,-322.45 1375.8,-329.25"/>
</a>
</g>
</g>
<!-- Node4 -->
<g id="Node000004" class="node">
<title>Node4</title>
<g id="a_Node000004"><a xlink:href="../../d3/d28/classml_1_1api_1_1_c_json_output_writer.html#aa0402d76fde7dfca225410e68c060086" target="_top" xlink:title=" ">
<polygon fill="white" stroke="#666666" points="1143.25,-359.5 1008.75,-359.5 1008.75,-329 1143.25,-329 1143.25,-359.5"/>
<text text-anchor="start" x="1016.75" y="-346" font-family="Helvetica,sans-Serif" font-size="10.00">ml::api::CJsonOutputWriter</text>
<text text-anchor="middle" x="1076" y="-334.75" font-family="Helvetica,sans-Serif" font-size="10.00">::acceptResult</text>
</a>
</g>
</g>
<!-- Node3&#45;&gt;Node4 -->
<g id="edge3_Node000003_Node000004" class="edge">
<title>Node3&#45;&gt;Node4</title>
<g id="a_edge3_Node000003_Node000004"><a xlink:title=" ">
<path fill="none" stroke="#63b8ff" d="M1182.23,-374.52C1165.57,-369.72 1147.82,-364.62 1131.74,-359.99"/>
<polygon fill="#63b8ff" stroke="#63b8ff" points="1180.97,-377.79 1191.54,-377.19 1182.9,-371.07 1180.97,-377.79"/>
</a>
</g>
</g>
<!-- Node5 -->
<g id="Node000005" class="node">
<title>Node5</title>
<g id="a_Node000005"><a xlink:href="../../d8/dc0/_c_json_output_writer_test_8cc.html#a10dd941bcf21709d2f99841e4b424f78" target="_top" xlink:title=" ">
<polygon fill="white" stroke="#666666" points="972,-520.88 824.75,-520.88 824.75,-501.62 972,-501.62 972,-520.88"/>
<text text-anchor="middle" x="898.38" y="-507.38" font-family="Helvetica,sans-Serif" font-size="10.00">BOOST_AUTO_TEST_CASE</text>
</a>
</g>
</g>
<!-- Node4&#45;&gt;Node5 -->
<g id="edge4_Node000004_Node000005" class="edge">
<title>Node4&#45;&gt;Node5</title>
<g id="a_edge4_Node000004_Node000005"><a xlink:title=" ">
<path fill="none" stroke="#63b8ff" d="M1064.38,-370.07C1049.18,-403.73 1017.96,-461.99 972.75,-493.25 968.11,-496.46 962.96,-499.1 957.6,-501.26"/>
<polygon fill="#63b8ff" stroke="#63b8ff" points="1067.52,-371.62 1068.32,-361.06 1061.11,-368.82 1067.52,-371.62"/>
</a>
</g>
</g>
<!-- Node6 -->
<g id="Node000006" class="node">
<title>Node6</title>
<g id="a_Node000006"><a xlink:href="../../d8/dc0/_c_json_output_writer_test_8cc.html#aee5b1ce892fe7e541692a0baf48c2221" target="_top" xlink:title=" ">
<polygon fill="white" stroke="#666666" points="972,-483.88 824.75,-483.88 824.75,-464.62 972,-464.62 972,-483.88"/>
<text text-anchor="middle" x="898.38" y="-470.38" font-family="Helvetica,sans-Serif" font-size="10.00">BOOST_AUTO_TEST_CASE</text>
</a>
</g>
</g>
<!-- Node4&#45;&gt;Node6 -->
<g id="edge5_Node000004_Node000006" class="edge">
<title>Node4&#45;&gt;Node6</title>
<g id="a_edge5_Node000004_Node000006"><a xlink:title=" ">
<path fill="none" stroke="#63b8ff" d="M1058.75,-369.45C1040.8,-395.2 1009.53,-434.42 972.75,-456.25 967.45,-459.4 961.62,-461.99 955.64,-464.14"/>
<polygon fill="#63b8ff" stroke="#63b8ff" points="1061.6,-371.47 1064.32,-361.23 1055.81,-367.54 1061.6,-371.47"/>
</a>
</g>
</g>
<!-- Node7 -->
<g id="Node000007" class="node">
<title>Node7</title>
<g id="a_Node000007"><a xlink:href="../../d8/dc0/_c_json_output_writer_test_8cc.html#a8a9de054f7d982129bea9300da31a3cf" target="_top" xlink:title=" ">
<polygon fill="white" stroke="#666666" points="972,-446.88 824.75,-446.88 824.75,-427.62 972,-427.62 972,-446.88"/>
<text text-anchor="middle" x="898.38" y="-433.38" font-family="Helvetica,sans-Serif" font-size="10.00">BOOST_AUTO_TEST_CASE</text>
</a>
</g>
</g>
<!-- Node4&#45;&gt;Node7 -->
<g id="edge6_Node000004_Node000007" class="edge">
<title>Node4&#45;&gt;Node7</title>
<g id="a_edge6_Node000004_Node000007"><a xlink:title=" ">
<path fill="none" stroke="#63b8ff" d="M1049.62,-367.3C1029.96,-384 1001.34,-405.91 972.75,-419.25 966.09,-422.36 958.84,-424.97 951.57,-427.15"/>
<polygon fill="#63b8ff" stroke="#63b8ff" points="1051.85,-370 1057.11,-360.8 1047.26,-364.71 1051.85,-370"/>
</a>
</g>
</g>
<!-- Node8 -->
<g id="Node000008" class="node">
<title>Node8</title>
<g id="a_Node000008"><a xlink:href="../../d8/dc0/_c_json_output_writer_test_8cc.html#a9a23c17843d4e6b8ddc5b9f9ddea6909" target="_top" xlink:title=" ">
<polygon fill="white" stroke="#666666" points="972,-409.88 824.75,-409.88 824.75,-390.62 972,-390.62 972,-409.88"/>
<text text-anchor="middle" x="898.38" y="-396.38" font-family="Helvetica,sans-Serif" font-size="10.00">BOOST_AUTO_TEST_CASE</text>
</a>
</g>
</g>
<!-- Node4&#45;&gt;Node8 -->
<g id="edge7_Node000004_Node000008" class="edge">
<title>Node4&#45;&gt;Node8</title>
<g id="a_edge7_Node000004_Node000008"><a xlink:title=" ">
<path fill="none" stroke="#63b8ff" d="M1025.46,-363.97C1008.84,-370.23 990.12,-376.91 972.75,-382.25 963.47,-385.1 953.43,-387.81 943.83,-390.22"/>
<polygon fill="#63b8ff" stroke="#63b8ff" points="1026.52,-367.31 1034.62,-360.48 1024.03,-360.77 1026.52,-367.31"/>
</a>
</g>
</g>
<!-- Node9 -->
<g id="Node000009" class="node">
<title>Node9</title>
<g id="a_Node000009"><a xlink:href="../../d8/dc0/_c_json_output_writer_test_8cc.html#a9047621d25a170633074247b3797a0bf" target="_top" xlink:title=" ">
<polygon fill="white" stroke="#666666" points="972,-372.88 824.75,-372.88 824.75,-353.62 972,-353.62 972,-372.88"/>
<text text-anchor="middle" x="898.38" y="-359.38" font-family="Helvetica,sans-Serif" font-size="10.00">BOOST_AUTO_TEST_CASE</text>
</a>
</g>
</g>
<!-- Node4&#45;&gt;Node9 -->
<g id="edge8_Node000004_Node000009" class="edge">
<title>Node4&#45;&gt;Node9</title>
<g id="a_edge8_Node000004_Node000009"><a xlink:title=" ">
<path fill="none" stroke="#63b8ff" d="M996.94,-352.7C988.78,-353.58 980.52,-354.47 972.43,-355.35"/>
<polygon fill="#63b8ff" stroke="#63b8ff" points="997.28,-356.18 1006.85,-351.62 996.53,-349.22 997.28,-356.18"/>
</a>
</g>
</g>
<!-- Node10 -->
<g id="Node000010" class="node">
<title>Node10</title>
<g id="a_Node000010"><a xlink:href="../../d8/dc0/_c_json_output_writer_test_8cc.html#a858555595538e8c732a1b45c9d23a1e1" target="_top" xlink:title=" ">
<polygon fill="white" stroke="#666666" points="972,-335.88 824.75,-335.88 824.75,-316.62 972,-316.62 972,-335.88"/>
<text text-anchor="middle" x="898.38" y="-322.38" font-family="Helvetica,sans-Serif" font-size="10.00">BOOST_AUTO_TEST_CASE</text>
</a>
</g>
</g>
<!-- Node4&#45;&gt;Node10 -->
<g id="edge9_Node000004_Node000010" class="edge">
<title>Node4&#45;&gt;Node10</title>
<g id="a_edge9_Node000004_Node000010"><a xlink:title=" ">
<path fill="none" stroke="#63b8ff" d="M996.94,-336.25C988.78,-335.41 980.52,-334.57 972.43,-333.74"/>
<polygon fill="#63b8ff" stroke="#63b8ff" points="996.54,-339.73 1006.85,-337.26 997.26,-332.76 996.54,-339.73"/>
</a>
</g>
</g>
<!-- Node11 -->
<g id="Node000011" class="node">
<title>Node11</title>
<g id="a_Node000011"><a xlink:href="../../dd/d5a/namespaceanonymous__namespace_02_c_json_output_writer_test_8cc_03.html#ab7d4c55c291d26867f59a5e821abbfd3" target="_top" xlink:title=" ">
<polygon fill="white" stroke="#666666" points="968.25,-298.12 828.5,-298.12 828.5,-256.38 968.25,-256.38 968.25,-298.12"/>
<text text-anchor="start" x="836.5" y="-284.62" font-family="Helvetica,sans-Serif" font-size="10.00">anonymous_namespace</text>
<text text-anchor="start" x="836.5" y="-273.38" font-family="Helvetica,sans-Serif" font-size="10.00">{CJsonOutputWriterTest</text>
<text text-anchor="middle" x="898.38" y="-262.12" font-family="Helvetica,sans-Serif" font-size="10.00">::cc}::testBucketWriteHelper</text>
</a>
</g>
</g>
<!-- Node4&#45;&gt;Node11 -->
<g id="edge10_Node000004_Node000011" class="edge">
<title>Node4&#45;&gt;Node11</title>
<g id="a_edge10_Node000004_Node000011"><a xlink:title=" ">
<path fill="none" stroke="#63b8ff" d="M1023.31,-324.53C1001.92,-316.37 977.06,-306.89 955.25,-298.57"/>
<polygon fill="#63b8ff" stroke="#63b8ff" points="1021.82,-327.71 1032.41,-328 1024.31,-321.17 1021.82,-327.71"/>
</a>
</g>
</g>
<!-- Node14 -->
<g id="Node000014" class="node">
<title>Node14</title>
<g id="a_Node000014"><a xlink:href="../../dd/d5a/namespaceanonymous__namespace_02_c_json_output_writer_test_8cc_03.html#a02f4a5cc8573d63394152ba35a2ab78e" target="_top" xlink:title=" ">
<polygon fill="white" stroke="#666666" points="972.75,-238.75 824,-238.75 824,-185.75 972.75,-185.75 972.75,-238.75"/>
<text text-anchor="start" x="832" y="-225.25" font-family="Helvetica,sans-Serif" font-size="10.00">anonymous_namespace</text>
<text text-anchor="start" x="832" y="-214" font-family="Helvetica,sans-Serif" font-size="10.00">{CJsonOutputWriterTest</text>
<text text-anchor="start" x="832" y="-202.75" font-family="Helvetica,sans-Serif" font-size="10.00">::cc}::testLimitedRecordsWrite</text>
<text text-anchor="middle" x="898.38" y="-191.5" font-family="Helvetica,sans-Serif" font-size="10.00">Helper</text>
</a>
</g>
</g>
<!-- Node4&#45;&gt;Node14 -->
<g id="edge13_Node000004_Node000014" class="edge">
<title>Node4&#45;&gt;Node14</title>
<g id="a_edge13_Node000004_Node000014"><a xlink:title=" ">
<path fill="none" stroke="#63b8ff" d="M1053.69,-320.13C1034.15,-299.01 1003.63,-268.47 972.75,-247.25 968.68,-244.45 964.35,-241.77 959.91,-239.21"/>
<polygon fill="#63b8ff" stroke="#63b8ff" points="1051.03,-322.39 1060.35,-327.43 1056.2,-317.68 1051.03,-322.39"/>
</a>
</g>
</g>
<!-- Node17 -->
<g id="Node000017" class="node">
<title>Node17</title>
<g id="a_Node000017"><a xlink:href="../../dd/d5a/namespaceanonymous__namespace_02_c_json_output_writer_test_8cc_03.html#af63092b72e441d5fcd9051e0ca4df2c0" target="_top" xlink:title=" ">
<polygon fill="white" stroke="#666666" points="966,-168.12 830.75,-168.12 830.75,-126.38 966,-126.38 966,-168.12"/>
<text text-anchor="start" x="838.75" y="-154.62" font-family="Helvetica,sans-Serif" font-size="10.00">anonymous_namespace</text>
<text text-anchor="start" x="838.75" y="-143.38" font-family="Helvetica,sans-Serif" font-size="10.00">{CJsonOutputWriterTest</text>
<text text-anchor="middle" x="898.38" y="-132.12" font-family="Helvetica,sans-Serif" font-size="10.00">::cc}::testThroughputHelper</text>
</a>
</g>
</g>
<!-- Node4&#45;&gt;Node17 -->
<g id="edge16_Node000004_Node000017" class="edge">
<title>Node4&#45;&gt;Node17</title>
<g id="a_edge16_Node000004_Node000017"><a xlink:title=" ">
<path fill="none" stroke="#63b8ff" d="M1065.42,-318.28C1050.74,-281.83 1019.4,-215.56 972.75,-176.25 969.4,-173.43 965.74,-170.85 961.9,-168.52"/>
<polygon fill="#63b8ff" stroke="#63b8ff" points="1062.15,-319.54 1069.04,-327.59 1068.67,-317 1062.15,-319.54"/>
</a>
</g>
</g>
<!-- Node20 -->
<g id="Node000020" class="node">
<title>Node20</title>
<g id="a_Node000020"><a xlink:href="../../d9/dee/classml_1_1api_1_1_c_anomaly_job.html#a0da41bef834a954e36c08d3b349a0f27" target="_top" xlink:title=" ">
<polygon fill="white" stroke="#666666" points="954.75,-101.5 842,-101.5 842,-71 954.75,-71 954.75,-101.5"/>
<text text-anchor="start" x="850" y="-88" font-family="Helvetica,sans-Serif" font-size="10.00">ml::api::CAnomalyJob</text>
<text text-anchor="middle" x="898.38" y="-76.75" font-family="Helvetica,sans-Serif" font-size="10.00">::writeOutResults</text>
</a>
</g>
</g>
<!-- Node4&#45;&gt;Node20 -->
<g id="edge19_Node000004_Node000020" class="edge">
<title>Node4&#45;&gt;Node20</title>
<g id="a_edge19_Node000004_Node000020"><a xlink:title=" ">
<path fill="none" stroke="#63b8ff" d="M1069.68,-317.55C1059.1,-270.96 1031.22,-174.36 972.75,-117.25 966.42,-111.07 958.67,-106.04 950.6,-101.97"/>
<polygon fill="#63b8ff" stroke="#63b8ff" points="1066.25,-318.26 1071.79,-327.3 1073.1,-316.78 1066.25,-318.26"/>
</a>
</g>
</g>
<!-- Node12 -->
<g id="Node000012" class="node">
<title>Node12</title>
<g id="a_Node000012"><a xlink:href="../../d8/dc0/_c_json_output_writer_test_8cc.html#a821b6725171455d47f7ed9a492fecd57" target="_top" xlink:title=" ">
<polygon fill="white" stroke="#666666" points="788,-323.88 640.75,-323.88 640.75,-304.62 788,-304.62 788,-323.88"/>
<text text-anchor="middle" x="714.38" y="-310.38" font-family="Helvetica,sans-Serif" font-size="10.00">BOOST_AUTO_TEST_CASE</text>
</a>
</g>
</g>
<!-- Node11&#45;&gt;Node12 -->
<g id="edge11_Node000011_Node000012" class="edge">
<title>Node11&#45;&gt;Node12</title>
<g id="a_edge11_Node000011_Node000012"><a xlink:title=" ">
<path fill="none" stroke="#63b8ff" d="M816.85,-293.62C799.2,-297.21 781.01,-300.91 764.99,-304.16"/>
<polygon fill="#63b8ff" stroke="#63b8ff" points="817.46,-297.07 826.57,-291.65 816.07,-290.21 817.46,-297.07"/>
</a>
</g>
</g>
<!-- Node13 -->
<g id="Node000013" class="node">
<title>Node13</title>
<g id="a_Node000013"><a xlink:href="../../d8/dc0/_c_json_output_writer_test_8cc.html#a6a80a1e38a072f384e5c54f3fc0ee40b" target="_top" xlink:title=" ">
<polygon fill="white" stroke="#666666" points="788,-286.88 640.75,-286.88 640.75,-267.62 788,-267.62 788,-286.88"/>
<text text-anchor="middle" x="714.38" y="-273.38" font-family="Helvetica,sans-Serif" font-size="10.00">BOOST_AUTO_TEST_CASE</text>
</a>
</g>
</g>
<!-- Node11&#45;&gt;Node13 -->
<g id="edge12_Node000011_Node000013" class="edge">
<title>Node11&#45;&gt;Node13</title>
<g id="a_edge12_Node000011_Node000013"><a xlink:title=" ">
<path fill="none" stroke="#63b8ff" d="M816.68,-277.25C807.28,-277.25 797.73,-277.25 788.44,-277.25"/>
<polygon fill="#63b8ff" stroke="#63b8ff" points="816.54,-280.75 826.54,-277.25 816.54,-273.75 816.54,-280.75"/>
</a>
</g>
</g>
<!-- Node15 -->
<g id="Node000015" class="node">
<title>Node15</title>
<g id="a_Node000015"><a xlink:href="../../d8/dc0/_c_json_output_writer_test_8cc.html#a21dd18c962b3c436a79fafcf5d9ebf70" target="_top" xlink:title=" ">
<polygon fill="white" stroke="#666666" points="788,-249.88 640.75,-249.88 640.75,-230.62 788,-230.62 788,-249.88"/>
<text text-anchor="middle" x="714.38" y="-236.38" font-family="Helvetica,sans-Serif" font-size="10.00">BOOST_AUTO_TEST_CASE</text>
</a>
</g>
</g>
<!-- Node14&#45;&gt;Node15 -->
<g id="edge14_Node000014_Node000015" class="edge">
<title>Node14&#45;&gt;Node15</title>
<g id="a_edge14_Node000014_Node000015"><a xlink:title=" ">
<path fill="none" stroke="#63b8ff" d="M812.29,-225.34C801.79,-226.96 791.19,-228.59 781.04,-230.15"/>
<polygon fill="#63b8ff" stroke="#63b8ff" points="812.76,-228.81 822.12,-223.83 811.7,-221.89 812.76,-228.81"/>
</a>
</g>
</g>
<!-- Node16 -->
<g id="Node000016" class="node">
<title>Node16</title>
<g id="a_Node000016"><a xlink:href="../../d8/dc0/_c_json_output_writer_test_8cc.html#aaececfea90f9b46784098c92d2b7dc33" target="_top" xlink:title=" ">
<polygon fill="white" stroke="#666666" points="788,-212.88 640.75,-212.88 640.75,-193.62 788,-193.62 788,-212.88"/>
<text text-anchor="middle" x="714.38" y="-199.38" font-family="Helvetica,sans-Serif" font-size="10.00">BOOST_AUTO_TEST_CASE</text>
</a>
</g>
</g>
<!-- Node14&#45;&gt;Node16 -->
<g id="edge15_Node000014_Node000016" class="edge">
<title>Node14&#45;&gt;Node16</title>
<g id="a_edge15_Node000014_Node000016"><a xlink:title=" ">
<path fill="none" stroke="#63b8ff" d="M812.34,-208.05C804.33,-207.65 796.25,-207.25 788.36,-206.86"/>
<polygon fill="#63b8ff" stroke="#63b8ff" points="811.94,-211.53 822.1,-208.53 812.28,-204.54 811.94,-211.53"/>
</a>
</g>
</g>
<!-- Node18 -->
<g id="Node000018" class="node">
<title>Node18</title>
<g id="a_Node000018"><a xlink:href="../../d8/dc0/_c_json_output_writer_test_8cc.html#a3cb94be5e15aff65228d0450f2b60c9e" target="_top" xlink:title=" ">
<polygon fill="white" stroke="#666666" points="788,-175.88 640.75,-175.88 640.75,-156.62 788,-156.62 788,-175.88"/>
<text text-anchor="middle" x="714.38" y="-162.38" font-family="Helvetica,sans-Serif" font-size="10.00">BOOST_AUTO_TEST_CASE</text>
</a>
</g>
</g>
<!-- Node17&#45;&gt;Node18 -->
<g id="edge17_Node000017_Node000018" class="edge">
<title>Node17&#45;&gt;Node18</title>
<g id="a_edge17_Node000017_Node000018"><a xlink:title=" ">
<path fill="none" stroke="#63b8ff" d="M819.01,-155.43C808.83,-156.49 798.44,-157.58 788.35,-158.63"/>
<polygon fill="#63b8ff" stroke="#63b8ff" points="819.29,-158.92 828.87,-154.4 818.57,-151.96 819.29,-158.92"/>
</a>
</g>
</g>
<!-- Node19 -->
<g id="Node000019" class="node">
<title>Node19</title>
<g id="a_Node000019"><a xlink:href="../../d8/dc0/_c_json_output_writer_test_8cc.html#a0b90c67ce4944feb594bac86eaab6658" target="_top" xlink:title=" ">
<polygon fill="white" stroke="#666666" points="788,-138.88 640.75,-138.88 640.75,-119.62 788,-119.62 788,-138.88"/>
<text text-anchor="middle" x="714.38" y="-125.38" font-family="Helvetica,sans-Serif" font-size="10.00">BOOST_AUTO_TEST_CASE</text>
</a>
</g>
</g>
<!-- Node17&#45;&gt;Node19 -->
<g id="edge18_Node000017_Node000019" class="edge">
<title>Node17&#45;&gt;Node19</title>
<g id="a_edge18_Node000017_Node000019"><a xlink:title=" ">
<path fill="none" stroke="#63b8ff" d="M819.01,-139.5C808.83,-138.49 798.44,-137.47 788.35,-136.47"/>
<polygon fill="#63b8ff" stroke="#63b8ff" points="818.58,-142.97 828.87,-140.48 819.27,-136.01 818.58,-142.97"/>
</a>
</g>
</g>
<!-- Node21 -->
<g id="Node000021" class="node">
<title>Node21</title>
<g id="a_Node000021"><a xlink:href="../../d9/dee/classml_1_1api_1_1_c_anomaly_job.html#af8bea3a425a0f4edfe99bb0ef525fb13" target="_top" xlink:title="Write out interim results for the bucket starting at bucketStartTime.">
<polygon fill="white" stroke="#666666" points="770.75,-101.5 658,-101.5 658,-71 770.75,-71 770.75,-101.5"/>
<text text-anchor="start" x="666" y="-88" font-family="Helvetica,sans-Serif" font-size="10.00">ml::api::CAnomalyJob</text>
<text text-anchor="middle" x="714.38" y="-76.75" font-family="Helvetica,sans-Serif" font-size="10.00">::outputInterimResults</text>
</a>
</g>
</g>
<!-- Node20&#45;&gt;Node21 -->
<g id="edge20_Node000020_Node000021" class="edge">
<title>Node20&#45;&gt;Node21</title>
<g id="a_edge20_Node000020_Node000021"><a xlink:title=" ">
<path fill="none" stroke="#63b8ff" d="M830.47,-86.25C810.9,-86.25 789.73,-86.25 770.94,-86.25"/>
<polygon fill="#63b8ff" stroke="#63b8ff" points="830.27,-89.75 840.27,-86.25 830.27,-82.75 830.27,-89.75"/>
</a>
</g>
</g>
<!-- Node26 -->
<g id="Node000026" class="node">
<title>Node26</title>
<g id="a_Node000026"><a xlink:href="../../d9/dee/classml_1_1api_1_1_c_anomaly_job.html#a13e6b57c735a0fbab0c720e3f82b6f7d" target="_top" xlink:title="Write out the results for the bucket starting at bucketStartTime.">
<polygon fill="white" stroke="#666666" points="770.75,-52.5 658,-52.5 658,-22 770.75,-22 770.75,-52.5"/>
<text text-anchor="start" x="666" y="-39" font-family="Helvetica,sans-Serif" font-size="10.00">ml::api::CAnomalyJob</text>
<text text-anchor="middle" x="714.38" y="-27.75" font-family="Helvetica,sans-Serif" font-size="10.00">::outputResults</text>
</a>
</g>
</g>
<!-- Node20&#45;&gt;Node26 -->
<g id="edge25_Node000020_Node000026" class="edge">
<title>Node20&#45;&gt;Node26</title>
<g id="a_edge25_Node000020_Node000026"><a xlink:title=" ">
<path fill="none" stroke="#63b8ff" d="M830.75,-68.31C811.1,-63.02 789.82,-57.29 770.94,-52.21"/>
<polygon fill="#63b8ff" stroke="#63b8ff" points="829.75,-71.67 840.32,-70.89 831.57,-64.91 829.75,-71.67"/>
</a>
</g>
</g>
<!-- Node22 -->
<g id="Node000022" class="node">
<title>Node22</title>
<g id="a_Node000022"><a xlink:href="../../d9/dee/classml_1_1api_1_1_c_anomaly_job.html#a9f65dd0e424bca17de0073ad974fa819" target="_top" xlink:title=" ">
<polygon fill="white" stroke="#666666" points="604.75,-101.5 465.75,-101.5 465.75,-71 604.75,-71 604.75,-101.5"/>
<text text-anchor="start" x="473.75" y="-88" font-family="Helvetica,sans-Serif" font-size="10.00">ml::api::CAnomalyJob</text>
<text text-anchor="middle" x="535.25" y="-76.75" font-family="Helvetica,sans-Serif" font-size="10.00">::outputResultsWithinRange</text>
</a>
</g>
</g>
<!-- Node21&#45;&gt;Node22 -->
<g id="edge21_Node000021_Node000022" class="edge">
<title>Node21&#45;&gt;Node22</title>
<g id="a_edge21_Node000021_Node000022"><a xlink:title=" ">
<path fill="none" stroke="#63b8ff" d="M646.6,-86.25C633,-86.25 618.68,-86.25 605.01,-86.25"/>
<polygon fill="#63b8ff" stroke="#63b8ff" points="646.3,-89.75 656.3,-86.25 646.3,-82.75 646.3,-89.75"/>
</a>
</g>
</g>
<!-- Node23 -->
<g id="Node000023" class="node">
<title>Node23</title>
<g id="a_Node000023"><a xlink:href="../../d9/dee/classml_1_1api_1_1_c_anomaly_job.html#ad73da3c668b230305f4bed2fe3fc5b2c" target="_top" xlink:title="Generate interim results.">
<polygon fill="white" stroke="#666666" points="429.75,-101.5 306.5,-101.5 306.5,-71 429.75,-71 429.75,-101.5"/>
<text text-anchor="start" x="314.5" y="-88" font-family="Helvetica,sans-Serif" font-size="10.00">ml::api::CAnomalyJob</text>
<text text-anchor="middle" x="368.12" y="-76.75" font-family="Helvetica,sans-Serif" font-size="10.00">::generateInterimResults</text>
</a>
</g>
</g>
<!-- Node22&#45;&gt;Node23 -->
<g id="edge22_Node000022_Node000023" class="edge">
<title>Node22&#45;&gt;Node23</title>
<g id="a_edge22_Node000022_Node000023"><a xlink:title=" ">
<path fill="none" stroke="#63b8ff" d="M454.24,-86.25C446.13,-86.25 437.99,-86.25 430.13,-86.25"/>
<polygon fill="#63b8ff" stroke="#63b8ff" points="454.14,-89.75 464.14,-86.25 454.14,-82.75 454.14,-89.75"/>
</a>
</g>
</g>
<!-- Node24 -->
<g id="Node000024" class="node">
<title>Node24</title>
<g id="a_Node000024"><a xlink:href="../../d9/dee/classml_1_1api_1_1_c_anomaly_job.html#a176e0e5e3eaa3e802ff4da6773e33c35" target="_top" xlink:title=" ">
<polygon fill="white" stroke="#666666" points="270.5,-52.5 148.75,-52.5 148.75,-22 270.5,-22 270.5,-52.5"/>
<text text-anchor="start" x="156.75" y="-39" font-family="Helvetica,sans-Serif" font-size="10.00">ml::api::CAnomalyJob</text>
<text text-anchor="middle" x="209.62" y="-27.75" font-family="Helvetica,sans-Serif" font-size="10.00">::handleControlMessage</text>
</a>
</g>
</g>
<!-- Node23&#45;&gt;Node24 -->
<g id="edge23_Node000023_Node000024" class="edge">
<title>Node23&#45;&gt;Node24</title>
<g id="a_edge23_Node000023_Node000024"><a xlink:title=" ">
<path fill="none" stroke="#63b8ff" d="M306.41,-67.24C291.36,-62.53 275.39,-57.53 260.9,-52.99"/>
<polygon fill="#63b8ff" stroke="#63b8ff" points="305.14,-70.51 315.73,-70.16 307.24,-63.83 305.14,-70.51"/>
</a>
</g>
</g>
<!-- Node25 -->
<g id="Node000025" class="node">
<title>Node25</title>
<g id="a_Node000025"><a xlink:href="../../d9/dee/classml_1_1api_1_1_c_anomaly_job.html#a7b4418f8987b9618eb3534c80d8d1617" target="_top" xlink:title=" ">
<polygon fill="white" stroke="#666666" points="112.75,-30.5 0,-30.5 0,0 112.75,0 112.75,-30.5"/>
<text text-anchor="start" x="8" y="-17" font-family="Helvetica,sans-Serif" font-size="10.00">ml::api::CAnomalyJob</text>
<text text-anchor="middle" x="56.38" y="-5.75" font-family="Helvetica,sans-Serif" font-size="10.00">::handleRecord</text>
</a>
</g>
</g>
<!-- Node24&#45;&gt;Node25 -->
<g id="edge24_Node000024_Node000025" class="edge">
<title>Node24&#45;&gt;Node25</title>
<g id="a_edge24_Node000024_Node000025"><a xlink:title=" ">
<path fill="none" stroke="#63b8ff" d="M137.05,-26.84C128.96,-25.66 120.81,-24.48 112.96,-23.34"/>
<polygon fill="#63b8ff" stroke="#63b8ff" points="136.51,-30.3 146.91,-28.27 137.52,-23.37 136.51,-30.3"/>
</a>
</g>
</g>
<!-- Node26&#45;&gt;Node22 -->
<g id="edge30_Node000026_Node000022" class="edge">
<title>Node26&#45;&gt;Node22</title>
<g id="a_edge30_Node000026_Node000022"><a xlink:title=" ">
<path fill="none" stroke="#63b8ff" d="M646.73,-55.69C629.09,-60.57 610.21,-65.79 593.14,-70.51"/>
<polygon fill="#63b8ff" stroke="#63b8ff" points="647.65,-59.06 656.36,-53.02 645.79,-52.32 647.65,-59.06"/>
</a>
</g>
</g>
<!-- Node27 -->
<g id="Node000027" class="node">
<title>Node27</title>
<g id="a_Node000027"><a xlink:href="../../d9/dee/classml_1_1api_1_1_c_anomaly_job.html#a2fd3ad014eff086eb116db9026050cf5" target="_top" xlink:title="Output any results new results which are available at time.">
<polygon fill="white" stroke="#666666" points="602.12,-52.5 468.38,-52.5 468.38,-22 602.12,-22 602.12,-52.5"/>
<text text-anchor="start" x="476.38" y="-39" font-family="Helvetica,sans-Serif" font-size="10.00">ml::api::CAnomalyJob</text>
<text text-anchor="middle" x="535.25" y="-27.75" font-family="Helvetica,sans-Serif" font-size="10.00">::outputBucketResultsUntil</text>
</a>
</g>
</g>
<!-- Node26&#45;&gt;Node27 -->
<g id="edge26_Node000026_Node000027" class="edge">
<title>Node26&#45;&gt;Node27</title>
<g id="a_edge26_Node000026_Node000027"><a xlink:title=" ">
<path fill="none" stroke="#63b8ff" d="M646.47,-37.25C632.07,-37.25 616.85,-37.25 602.48,-37.25"/>
<polygon fill="#63b8ff" stroke="#63b8ff" points="646.3,-40.75 656.3,-37.25 646.3,-33.75 646.3,-40.75"/>
</a>
</g>
</g>
<!-- Node27&#45;&gt;Node25 -->
<g id="edge29_Node000027_Node000025" class="edge">
<title>Node27&#45;&gt;Node25</title>
<g id="a_edge29_Node000027_Node000025"><a xlink:title=" ">
<path fill="none" stroke="#63b8ff" d="M465.22,-19.09C453.46,-16.66 441.31,-14.56 429.75,-13.25 317.98,-0.58 186.12,-6.06 113.11,-10.87"/>
<polygon fill="#63b8ff" stroke="#63b8ff" points="464.35,-22.48 474.86,-21.18 465.83,-15.64 464.35,-22.48"/>
</a>
</g>
</g>
<!-- Node28 -->
<g id="Node000028" class="node">
<title>Node28</title>
<g id="a_Node000028"><a xlink:href="../../d9/dee/classml_1_1api_1_1_c_anomaly_job.html#a9680062014284b51fb38536b2a5dafb8" target="_top" xlink:title=" ">
<polygon fill="white" stroke="#666666" points="424.5,-52.5 311.75,-52.5 311.75,-22 424.5,-22 424.5,-52.5"/>
<text text-anchor="start" x="319.75" y="-39" font-family="Helvetica,sans-Serif" font-size="10.00">ml::api::CAnomalyJob</text>
<text text-anchor="middle" x="368.12" y="-27.75" font-family="Helvetica,sans-Serif" font-size="10.00">::advanceTime</text>
</a>
</g>
</g>
<!-- Node27&#45;&gt;Node28 -->
<g id="edge27_Node000027_Node000028" class="edge">
<title>Node27&#45;&gt;Node28</title>
<g id="a_edge27_Node000027_Node000028"><a xlink:title=" ">
<path fill="none" stroke="#63b8ff" d="M456.83,-37.25C446,-37.25 435.06,-37.25 424.74,-37.25"/>
<polygon fill="#63b8ff" stroke="#63b8ff" points="456.53,-40.75 466.53,-37.25 456.53,-33.75 456.53,-40.75"/>
</a>
</g>
</g>
<!-- Node28&#45;&gt;Node24 -->
<g id="edge28_Node000028_Node000024" class="edge">
<title>Node28&#45;&gt;Node24</title>
<g id="a_edge28_Node000028_Node000024"><a xlink:title=" ">
<path fill="none" stroke="#63b8ff" d="M300.2,-37.25C290.45,-37.25 280.45,-37.25 270.84,-37.25"/>
<polygon fill="#63b8ff" stroke="#63b8ff" points="299.99,-40.75 309.99,-37.25 299.99,-33.75 299.99,-40.75"/>
</a>
</g>
</g>
<!-- Node29&#45;&gt;Node4 -->
<g id="edge32_Node000029_Node000004" class="edge">
<title>Node29&#45;&gt;Node4</title>
<g id="a_edge32_Node000029_Node000004"><a xlink:title=" ">
<path fill="none" stroke="#63b8ff" d="M1169.71,-344.25C1161.03,-344.25 1152.26,-344.25 1143.74,-344.25"/>
<polygon fill="#63b8ff" stroke="#63b8ff" points="1169.5,-347.75 1179.5,-344.25 1169.5,-340.75 1169.5,-347.75"/>
</a>
</g>
</g>
<!-- Node30&#45;&gt;Node4 -->
<g id="edge34_Node000030_Node000004" class="edge">
<title>Node30&#45;&gt;Node4</title>
<g id="a_edge34_Node000030_Node000004"><a xlink:title=" ">
<path fill="none" stroke="#63b8ff" d="M1182.23,-313.98C1165.57,-318.78 1147.82,-323.88 1131.74,-328.51"/>
<polygon fill="#63b8ff" stroke="#63b8ff" points="1182.9,-317.43 1191.54,-311.31 1180.97,-310.71 1182.9,-317.43"/>
</a>
</g>
</g>
</g>
</svg>
