<?xml version="1.0" encoding="UTF-8" standalone="no"?>
<!DOCTYPE svg PUBLIC "-//W3C//DTD SVG 1.1//EN"
 "http://www.w3.org/Graphics/SVG/1.1/DTD/svg11.dtd">
<!-- Generated by graphviz version 10.0.1 (20240210.2158)
 -->
<!-- Title: ml::core::CBoostJsonWriterBase::makeDoc Pages: 1 -->
<svg width="657pt" height="39pt"
 viewBox="0.00 0.00 657.00 38.50" xmlns="http://www.w3.org/2000/svg" xmlns:xlink="http://www.w3.org/1999/xlink">
<g id="graph0" class="graph" transform="scale(1 1) rotate(0) translate(4 34.5)">
<title>ml::core::CBoostJsonWriterBase::makeDoc</title>
<!-- Node1 -->
<g id="Node000001" class="node">
<title>Node1</title>
<g id="a_Node000001"><a xlink:title="Return a new boost::json document.">
<polygon fill="#999999" stroke="#666666" points="136.75,-30.5 0,-30.5 0,0 136.75,0 136.75,-30.5"/>
<text text-anchor="start" x="8" y="-17" font-family="Helvetica,sans-Serif" font-size="10.00">ml::core::CBoostJsonWriter</text>
<text text-anchor="middle" x="68.38" y="-5.75" font-family="Helvetica,sans-Serif" font-size="10.00">Base::makeDoc</text>
</a>
</g>
</g>
<!-- Node2 -->
<g id="Node000002" class="node">
<title>Node2</title>
<g id="a_Node000002"><a xlink:href="../../de/d68/classml_1_1core_1_1_c_boost_json_writer_base.html#a1a4e776753ad90ee9fd2c68dc5aedf5a" target="_top" xlink:title=" ">
<polygon fill="white" stroke="#666666" points="309.5,-30.5 172.75,-30.5 172.75,0 309.5,0 309.5,-30.5"/>
<text text-anchor="start" x="180.75" y="-17" font-family="Helvetica,sans-Serif" font-size="10.00">ml::core::CBoostJsonWriter</text>
<text text-anchor="middle" x="241.12" y="-5.75" font-family="Helvetica,sans-Serif" font-size="10.00">Base::getStoragePointer</text>
</a>
</g>
</g>
<!-- Node1&#45;&gt;Node2 -->
<g id="edge1_Node000001_Node000002" class="edge">
<title>Node1&#45;&gt;Node2</title>
<g id="a_edge1_Node000001_Node000002"><a xlink:title=" ">
<path fill="none" stroke="#63b8ff" d="M136.86,-15.25C144.78,-15.25 152.91,-15.25 160.98,-15.25"/>
<polygon fill="#63b8ff" stroke="#63b8ff" points="160.78,-18.75 170.78,-15.25 160.78,-11.75 160.78,-18.75"/>
</a>
</g>
</g>
<!-- Node3 -->
<g id="Node000003" class="node">
<title>Node3</title>
<g id="a_Node000003"><a xlink:href="../../de/d68/classml_1_1core_1_1_c_boost_json_writer_base.html#a32db0bc2a291141e60a96d39ed8bb5ad" target="_top" xlink:title=" ">
<polygon fill="white" stroke="#666666" points="482.25,-30.5 345.5,-30.5 345.5,0 482.25,0 482.25,-30.5"/>
<text text-anchor="start" x="353.5" y="-17" font-family="Helvetica,sans-Serif" font-size="10.00">ml::core::CBoostJsonWriter</text>
<text text-anchor="middle" x="413.88" y="-5.75" font-family="Helvetica,sans-Serif" font-size="10.00">Base::getAllocator</text>
</a>
</g>
</g>
<!-- Node2&#45;&gt;Node3 -->
<g id="edge2_Node000002_Node000003" class="edge">
<title>Node2&#45;&gt;Node3</title>
<g id="a_edge2_Node000002_Node000003"><a xlink:title=" ">
<path fill="none" stroke="#63b8ff" d="M309.61,-15.25C317.53,-15.25 325.66,-15.25 333.73,-15.25"/>
<polygon fill="#63b8ff" stroke="#63b8ff" points="333.53,-18.75 343.53,-15.25 333.53,-11.75 333.53,-18.75"/>
</a>
</g>
</g>
<!-- Node4 -->
<g id="Node000004" class="node">
<title>Node4</title>
<g id="a_Node000004"><a xlink:href="../../dc/db5/classml_1_1core_1_1_c_boost_json_pool_allocator.html#a98200c8989d605f86f133014ba20b34e" target="_top" xlink:title=" ">
<polygon fill="white" stroke="#666666" points="649,-30.5 518.25,-30.5 518.25,0 649,0 649,-30.5"/>
<text text-anchor="start" x="526.25" y="-17" font-family="Helvetica,sans-Serif" font-size="10.00">ml::core::CBoostJsonPool</text>
<text text-anchor="middle" x="583.62" y="-5.75" font-family="Helvetica,sans-Serif" font-size="10.00">Allocator::get</text>
</a>
</g>
</g>
<!-- Node3&#45;&gt;Node4 -->
<g id="edge3_Node000003_Node000004" class="edge">
<title>Node3&#45;&gt;Node4</title>
<g id="a_edge3_Node000003_Node000004"><a xlink:title=" ">
<path fill="none" stroke="#63b8ff" d="M482.62,-15.25C490.44,-15.25 498.46,-15.25 506.38,-15.25"/>
<polygon fill="#63b8ff" stroke="#63b8ff" points="506.37,-18.75 516.37,-15.25 506.37,-11.75 506.37,-18.75"/>
</a>
</g>
</g>
</g>
</svg>
