<?xml version="1.0" encoding="UTF-8" standalone="no"?>
<!DOCTYPE svg PUBLIC "-//W3C//DTD SVG 1.1//EN"
 "http://www.w3.org/Graphics/SVG/1.1/DTD/svg11.dtd">
<!-- Generated by graphviz version 10.0.1 (20240210.2158)
 -->
<!-- Title: ml::core::CBoostJsonWriterBase::addStringArrayFieldToObj Pages: 1 -->
<svg width="1280pt" height="174pt"
 viewBox="0.00 0.00 1279.75 173.50" xmlns="http://www.w3.org/2000/svg" xmlns:xlink="http://www.w3.org/1999/xlink">
<g id="graph0" class="graph" transform="scale(1 1) rotate(0) translate(4 169.5)">
<title>ml::core::CBoostJsonWriterBase::addStringArrayFieldToObj</title>
<!-- Node1 -->
<g id="Node000001" class="node">
<title>Node1</title>
<g id="a_Node000001"><a xlink:title=" ">
<polygon fill="#999999" stroke="#666666" points="1271.75,-79.5 1116.25,-79.5 1116.25,-49 1271.75,-49 1271.75,-79.5"/>
<text text-anchor="start" x="1124.25" y="-66" font-family="Helvetica,sans-Serif" font-size="10.00">ml::core::CBoostJsonWriter</text>
<text text-anchor="middle" x="1194" y="-54.75" font-family="Helvetica,sans-Serif" font-size="10.00">Base::addStringArrayFieldToObj</text>
</a>
</g>
</g>
<!-- Node2 -->
<g id="Node000002" class="node">
<title>Node2</title>
<g id="a_Node000002"><a xlink:href="../../df/d36/classml_1_1model_1_1_c_forecast_data_sink.html#a25968f9272e8bb40652eb5716c7b62f5" target="_top" xlink:title="Write an error message to signal a problem with forecasting.">
<polygon fill="white" stroke="#666666" points="1080.25,-128.5 948.75,-128.5 948.75,-98 1080.25,-98 1080.25,-128.5"/>
<text text-anchor="start" x="956.75" y="-115" font-family="Helvetica,sans-Serif" font-size="10.00">ml::model::CForecastData</text>
<text text-anchor="middle" x="1014.5" y="-103.75" font-family="Helvetica,sans-Serif" font-size="10.00">Sink::writeErrorMessage</text>
</a>
</g>
</g>
<!-- Node1&#45;&gt;Node2 -->
<g id="edge1_Node000001_Node000002" class="edge">
<title>Node1&#45;&gt;Node2</title>
<g id="a_edge1_Node000001_Node000002"><a xlink:title=" ">
<path fill="none" stroke="#63b8ff" d="M1125.63,-82.85C1108.12,-87.68 1089.44,-92.84 1072.53,-97.51"/>
<polygon fill="#63b8ff" stroke="#63b8ff" points="1126.18,-86.33 1134.89,-80.29 1124.32,-79.58 1126.18,-86.33"/>
</a>
</g>
</g>
<!-- Node9 -->
<g id="Node000009" class="node">
<title>Node9</title>
<g id="a_Node000009"><a xlink:href="../../df/d36/classml_1_1model_1_1_c_forecast_data_sink.html#a4f5ace014d33710ace6fe71f9fcf6149" target="_top" xlink:title=" ">
<polygon fill="white" stroke="#666666" points="1080.25,-79.5 948.75,-79.5 948.75,-49 1080.25,-49 1080.25,-79.5"/>
<text text-anchor="start" x="956.75" y="-66" font-family="Helvetica,sans-Serif" font-size="10.00">ml::model::CForecastData</text>
<text text-anchor="middle" x="1014.5" y="-54.75" font-family="Helvetica,sans-Serif" font-size="10.00">Sink::writeFinalMessage</text>
</a>
</g>
</g>
<!-- Node1&#45;&gt;Node9 -->
<g id="edge9_Node000001_Node000009" class="edge">
<title>Node1&#45;&gt;Node9</title>
<g id="a_edge9_Node000001_Node000009"><a xlink:title=" ">
<path fill="none" stroke="#63b8ff" d="M1104.53,-64.25C1096.46,-64.25 1088.38,-64.25 1080.57,-64.25"/>
<polygon fill="#63b8ff" stroke="#63b8ff" points="1104.41,-67.75 1114.41,-64.25 1104.41,-60.75 1104.41,-67.75"/>
</a>
</g>
</g>
<!-- Node11 -->
<g id="Node000011" class="node">
<title>Node11</title>
<g id="a_Node000011"><a xlink:href="../../df/d36/classml_1_1model_1_1_c_forecast_data_sink.html#afa1fe7d725fe2608a5b7d177426d062b" target="_top" xlink:title="Write Statistics about the forecast, also marks the ending.">
<polygon fill="white" stroke="#666666" points="1080.25,-30.5 948.75,-30.5 948.75,0 1080.25,0 1080.25,-30.5"/>
<text text-anchor="start" x="956.75" y="-17" font-family="Helvetica,sans-Serif" font-size="10.00">ml::model::CForecastData</text>
<text text-anchor="middle" x="1014.5" y="-5.75" font-family="Helvetica,sans-Serif" font-size="10.00">Sink::writeStats</text>
</a>
</g>
</g>
<!-- Node1&#45;&gt;Node11 -->
<g id="edge12_Node000001_Node000011" class="edge">
<title>Node1&#45;&gt;Node11</title>
<g id="a_edge12_Node000001_Node000011"><a xlink:title=" ">
<path fill="none" stroke="#63b8ff" d="M1125.63,-45.65C1108.12,-40.82 1089.44,-35.66 1072.53,-30.99"/>
<polygon fill="#63b8ff" stroke="#63b8ff" points="1124.32,-48.92 1134.89,-48.21 1126.18,-42.17 1124.32,-48.92"/>
</a>
</g>
</g>
<!-- Node3 -->
<g id="Node000003" class="node">
<title>Node3</title>
<g id="a_Node000003"><a xlink:href="../../d4/d49/classml_1_1api_1_1_c_forecast_runner.html#a2b5245c332ee26153530e0ba3cb41a81" target="_top" xlink:title="send an error message">
<polygon fill="white" stroke="#666666" points="912.75,-128.5 784.25,-128.5 784.25,-98 912.75,-98 912.75,-128.5"/>
<text text-anchor="start" x="792.25" y="-115" font-family="Helvetica,sans-Serif" font-size="10.00">ml::api::CForecastRunner</text>
<text text-anchor="middle" x="848.5" y="-103.75" font-family="Helvetica,sans-Serif" font-size="10.00">::sendErrorMessage</text>
</a>
</g>
</g>
<!-- Node2&#45;&gt;Node3 -->
<g id="edge2_Node000002_Node000003" class="edge">
<title>Node2&#45;&gt;Node3</title>
<g id="a_edge2_Node000002_Node000003"><a xlink:title=" ">
<path fill="none" stroke="#63b8ff" d="M937.29,-113.25C929.18,-113.25 920.99,-113.25 913.04,-113.25"/>
<polygon fill="#63b8ff" stroke="#63b8ff" points="937.17,-116.75 947.17,-113.25 937.17,-109.75 937.17,-116.75"/>
</a>
</g>
</g>
<!-- Node4 -->
<g id="Node000004" class="node">
<title>Node4</title>
<g id="a_Node000004"><a xlink:href="../../d4/d49/classml_1_1api_1_1_c_forecast_runner.html#a62c5af6f1d46a8a1e3d1baa9fcb87f44" target="_top" xlink:title="pushes new jobs into the internal &#39;queue&#39; (thread boundary)">
<polygon fill="white" stroke="#666666" points="748.25,-165.5 619.75,-165.5 619.75,-135 748.25,-135 748.25,-165.5"/>
<text text-anchor="start" x="627.75" y="-152" font-family="Helvetica,sans-Serif" font-size="10.00">ml::api::CForecastRunner</text>
<text text-anchor="middle" x="684" y="-140.75" font-family="Helvetica,sans-Serif" font-size="10.00">::push</text>
</a>
</g>
</g>
<!-- Node3&#45;&gt;Node4 -->
<g id="edge3_Node000003_Node000004" class="edge">
<title>Node3&#45;&gt;Node4</title>
<g id="a_edge3_Node000003_Node000004"><a xlink:title=" ">
<path fill="none" stroke="#63b8ff" d="M773.14,-130.18C764.96,-132.04 756.69,-133.93 748.65,-135.76"/>
<polygon fill="#63b8ff" stroke="#63b8ff" points="773.76,-133.63 782.73,-128 772.2,-126.8 773.76,-133.63"/>
</a>
</g>
</g>
<!-- Node5 -->
<g id="Node000005" class="node">
<title>Node5</title>
<g id="a_Node000005"><a xlink:href="../../d4/d49/classml_1_1api_1_1_c_forecast_runner.html#ad8607aeb873f1214a5abd71746d22211" target="_top" xlink:title=" ">
<polygon fill="white" stroke="#666666" points="583.75,-122.5 455.25,-122.5 455.25,-92 583.75,-92 583.75,-122.5"/>
<text text-anchor="start" x="463.25" y="-109" font-family="Helvetica,sans-Serif" font-size="10.00">ml::api::CForecastRunner</text>
<text text-anchor="middle" x="519.5" y="-97.75" font-family="Helvetica,sans-Serif" font-size="10.00">::pushForecastJob</text>
</a>
</g>
</g>
<!-- Node3&#45;&gt;Node5 -->
<g id="edge8_Node000003_Node000005" class="edge">
<title>Node3&#45;&gt;Node5</title>
<g id="a_edge8_Node000003_Node000005"><a xlink:title=" ">
<path fill="none" stroke="#63b8ff" d="M772.59,-111.88C715.59,-110.83 638.02,-109.41 584.04,-108.42"/>
<polygon fill="#63b8ff" stroke="#63b8ff" points="772.49,-115.37 782.55,-112.06 772.62,-108.38 772.49,-115.37"/>
</a>
</g>
</g>
<!-- Node4&#45;&gt;Node5 -->
<g id="edge4_Node000004_Node000005" class="edge">
<title>Node4&#45;&gt;Node5</title>
<g id="a_edge4_Node000004_Node000005"><a xlink:title=" ">
<path fill="none" stroke="#63b8ff" d="M612.96,-131.72C601.93,-128.8 590.62,-125.8 579.85,-122.96"/>
<polygon fill="#63b8ff" stroke="#63b8ff" points="611.85,-135.04 622.41,-134.22 613.64,-128.28 611.85,-135.04"/>
</a>
</g>
</g>
<!-- Node6 -->
<g id="Node000006" class="node">
<title>Node6</title>
<g id="a_Node000006"><a xlink:href="../../d9/dee/classml_1_1api_1_1_c_anomaly_job.html#aa7cbbc4df294ffac26166f761afb236f" target="_top" xlink:title="Update configuration.">
<polygon fill="white" stroke="#666666" points="419.25,-122.5 306.5,-122.5 306.5,-92 419.25,-92 419.25,-122.5"/>
<text text-anchor="start" x="314.5" y="-109" font-family="Helvetica,sans-Serif" font-size="10.00">ml::api::CAnomalyJob</text>
<text text-anchor="middle" x="362.88" y="-97.75" font-family="Helvetica,sans-Serif" font-size="10.00">::doForecast</text>
</a>
</g>
</g>
<!-- Node5&#45;&gt;Node6 -->
<g id="edge5_Node000005_Node000006" class="edge">
<title>Node5&#45;&gt;Node6</title>
<g id="a_edge5_Node000005_Node000006"><a xlink:title=" ">
<path fill="none" stroke="#63b8ff" d="M443.68,-107.25C435.51,-107.25 427.31,-107.25 419.44,-107.25"/>
<polygon fill="#63b8ff" stroke="#63b8ff" points="443.65,-110.75 453.65,-107.25 443.65,-103.75 443.65,-110.75"/>
</a>
</g>
</g>
<!-- Node7 -->
<g id="Node000007" class="node">
<title>Node7</title>
<g id="a_Node000007"><a xlink:href="../../d9/dee/classml_1_1api_1_1_c_anomaly_job.html#a176e0e5e3eaa3e802ff4da6773e33c35" target="_top" xlink:title=" ">
<polygon fill="white" stroke="#666666" points="270.5,-122.5 148.75,-122.5 148.75,-92 270.5,-92 270.5,-122.5"/>
<text text-anchor="start" x="156.75" y="-109" font-family="Helvetica,sans-Serif" font-size="10.00">ml::api::CAnomalyJob</text>
<text text-anchor="middle" x="209.62" y="-97.75" font-family="Helvetica,sans-Serif" font-size="10.00">::handleControlMessage</text>
</a>
</g>
</g>
<!-- Node6&#45;&gt;Node7 -->
<g id="edge6_Node000006_Node000007" class="edge">
<title>Node6&#45;&gt;Node7</title>
<g id="a_edge6_Node000006_Node000007"><a xlink:title=" ">
<path fill="none" stroke="#63b8ff" d="M295.15,-107.25C287.08,-107.25 278.88,-107.25 270.92,-107.25"/>
<polygon fill="#63b8ff" stroke="#63b8ff" points="294.9,-110.75 304.9,-107.25 294.9,-103.75 294.9,-110.75"/>
</a>
</g>
</g>
<!-- Node8 -->
<g id="Node000008" class="node">
<title>Node8</title>
<g id="a_Node000008"><a xlink:href="../../d9/dee/classml_1_1api_1_1_c_anomaly_job.html#a7b4418f8987b9618eb3534c80d8d1617" target="_top" xlink:title=" ">
<polygon fill="white" stroke="#666666" points="112.75,-122.5 0,-122.5 0,-92 112.75,-92 112.75,-122.5"/>
<text text-anchor="start" x="8" y="-109" font-family="Helvetica,sans-Serif" font-size="10.00">ml::api::CAnomalyJob</text>
<text text-anchor="middle" x="56.38" y="-97.75" font-family="Helvetica,sans-Serif" font-size="10.00">::handleRecord</text>
</a>
</g>
</g>
<!-- Node7&#45;&gt;Node8 -->
<g id="edge7_Node000007_Node000008" class="edge">
<title>Node7&#45;&gt;Node8</title>
<g id="a_edge7_Node000007_Node000008"><a xlink:title=" ">
<path fill="none" stroke="#63b8ff" d="M137.05,-107.25C128.96,-107.25 120.81,-107.25 112.96,-107.25"/>
<polygon fill="#63b8ff" stroke="#63b8ff" points="136.9,-110.75 146.9,-107.25 136.9,-103.75 136.9,-110.75"/>
</a>
</g>
</g>
<!-- Node10 -->
<g id="Node000010" class="node">
<title>Node10</title>
<g id="a_Node000010"><a xlink:href="../../d4/d49/classml_1_1api_1_1_c_forecast_runner.html#a39596898246241b58962c7cf80e2889d" target="_top" xlink:title="send a final message">
<polygon fill="white" stroke="#666666" points="748.25,-79.5 619.75,-79.5 619.75,-49 748.25,-49 748.25,-79.5"/>
<text text-anchor="start" x="627.75" y="-66" font-family="Helvetica,sans-Serif" font-size="10.00">ml::api::CForecastRunner</text>
<text text-anchor="middle" x="684" y="-54.75" font-family="Helvetica,sans-Serif" font-size="10.00">::sendFinalMessage</text>
</a>
</g>
</g>
<!-- Node9&#45;&gt;Node10 -->
<g id="edge10_Node000009_Node000010" class="edge">
<title>Node9&#45;&gt;Node10</title>
<g id="a_edge10_Node000009_Node000010"><a xlink:title=" ">
<path fill="none" stroke="#63b8ff" d="M937.43,-64.25C880.19,-64.25 802.63,-64.25 748.65,-64.25"/>
<polygon fill="#63b8ff" stroke="#63b8ff" points="937.09,-67.75 947.09,-64.25 937.09,-60.75 937.09,-67.75"/>
</a>
</g>
</g>
<!-- Node10&#45;&gt;Node5 -->
<g id="edge11_Node000010_Node000005" class="edge">
<title>Node10&#45;&gt;Node5</title>
<g id="a_edge11_Node000010_Node000005"><a xlink:title=" ">
<path fill="none" stroke="#63b8ff" d="M612.96,-82.78C601.93,-85.7 590.62,-88.7 579.85,-91.54"/>
<polygon fill="#63b8ff" stroke="#63b8ff" points="613.64,-86.22 622.41,-80.28 611.85,-79.46 613.64,-86.22"/>
</a>
</g>
</g>
<!-- Node12 -->
<g id="Node000012" class="node">
<title>Node12</title>
<g id="a_Node000012"><a xlink:href="../../d4/d49/classml_1_1api_1_1_c_forecast_runner.html#a7d8c08b07ee409abf5bc83772887ee78" target="_top" xlink:title="The worker loop.">
<polygon fill="white" stroke="#666666" points="912.75,-30.5 784.25,-30.5 784.25,0 912.75,0 912.75,-30.5"/>
<text text-anchor="start" x="792.25" y="-17" font-family="Helvetica,sans-Serif" font-size="10.00">ml::api::CForecastRunner</text>
<text text-anchor="middle" x="848.5" y="-5.75" font-family="Helvetica,sans-Serif" font-size="10.00">::forecastWorker</text>
</a>
</g>
</g>
<!-- Node11&#45;&gt;Node12 -->
<g id="edge13_Node000011_Node000012" class="edge">
<title>Node11&#45;&gt;Node12</title>
<g id="a_edge13_Node000011_Node000012"><a xlink:title=" ">
<path fill="none" stroke="#63b8ff" d="M937.29,-15.25C929.18,-15.25 920.99,-15.25 913.04,-15.25"/>
<polygon fill="#63b8ff" stroke="#63b8ff" points="937.17,-18.75 947.17,-15.25 937.17,-11.75 937.17,-18.75"/>
</a>
</g>
</g>
<!-- Node13 -->
<g id="Node000013" class="node">
<title>Node13</title>
<g id="a_Node000013"><a xlink:href="../../d4/d49/classml_1_1api_1_1_c_forecast_runner.html#a7c3b0698d5c05092e8556570ce92ac69" target="_top" xlink:title=" ">
<polygon fill="white" stroke="#666666" points="748.25,-30.5 619.75,-30.5 619.75,0 748.25,0 748.25,-30.5"/>
<text text-anchor="start" x="627.75" y="-17" font-family="Helvetica,sans-Serif" font-size="10.00">ml::api::CForecastRunner</text>
<text text-anchor="middle" x="684" y="-5.75" font-family="Helvetica,sans-Serif" font-size="10.00">::CForecastRunner</text>
</a>
</g>
</g>
<!-- Node12&#45;&gt;Node13 -->
<g id="edge14_Node000012_Node000013" class="edge">
<title>Node12&#45;&gt;Node13</title>
<g id="a_edge14_Node000012_Node000013"><a xlink:title=" ">
<path fill="none" stroke="#63b8ff" d="M772.86,-15.25C764.77,-15.25 756.6,-15.25 748.65,-15.25"/>
<polygon fill="#63b8ff" stroke="#63b8ff" points="772.69,-18.75 782.69,-15.25 772.69,-11.75 772.69,-18.75"/>
</a>
</g>
</g>
</g>
</svg>
