<?xml version="1.0" encoding="UTF-8" standalone="no"?>
<!DOCTYPE svg PUBLIC "-//W3C//DTD SVG 1.1//EN"
 "http://www.w3.org/Graphics/SVG/1.1/DTD/svg11.dtd">
<!-- Generated by graphviz version 10.0.1 (20240210.2158)
 -->
<!-- Title: ml::maths::common::CAvailableModeDistributions::toString Pages: 1 -->
<svg width="533pt" height="50pt"
 viewBox="0.00 0.00 533.00 49.75" xmlns="http://www.w3.org/2000/svg" xmlns:xlink="http://www.w3.org/1999/xlink">
<g id="graph0" class="graph" transform="scale(1 1) rotate(0) translate(4 45.75)">
<title>ml::maths::common::CAvailableModeDistributions::toString</title>
<!-- Node1 -->
<g id="Node000001" class="node">
<title>Node1</title>
<g id="a_Node000001"><a xlink:title="Conversion to a string.">
<polygon fill="#999999" stroke="#666666" points="525,-41.75 383,-41.75 383,0 525,0 525,-41.75"/>
<text text-anchor="start" x="391" y="-28.25" font-family="Helvetica,sans-Serif" font-size="10.00">ml::maths::common::</text>
<text text-anchor="start" x="391" y="-17" font-family="Helvetica,sans-Serif" font-size="10.00">CAvailableModeDistributions</text>
<text text-anchor="middle" x="454" y="-5.75" font-family="Helvetica,sans-Serif" font-size="10.00">::toString</text>
</a>
</g>
</g>
<!-- Node2 -->
<g id="Node000002" class="node">
<title>Node2</title>
<g id="a_Node000002"><a xlink:href="../../d7/d0b/classml_1_1maths_1_1common_1_1_c_x_means_online1d.html#a04bced720f6ba88da8d270015b20bf66" target="_top" xlink:title="Persist state by passing information to the supplied inserter.">
<polygon fill="white" stroke="#666666" points="347,-41.75 183.25,-41.75 183.25,0 347,0 347,-41.75"/>
<text text-anchor="start" x="191.25" y="-28.25" font-family="Helvetica,sans-Serif" font-size="10.00">ml::maths::common::</text>
<text text-anchor="start" x="191.25" y="-17" font-family="Helvetica,sans-Serif" font-size="10.00">CXMeansOnline1d::acceptPersist</text>
<text text-anchor="middle" x="265.12" y="-5.75" font-family="Helvetica,sans-Serif" font-size="10.00">Inserter</text>
</a>
</g>
</g>
<!-- Node1&#45;&gt;Node2 -->
<g id="edge1_Node000001_Node000002" class="edge">
<title>Node1&#45;&gt;Node2</title>
<g id="a_edge1_Node000001_Node000002"><a xlink:title=" ">
<path fill="none" stroke="#63b8ff" d="M371.18,-20.88C363.3,-20.88 355.31,-20.88 347.43,-20.88"/>
<polygon fill="#63b8ff" stroke="#63b8ff" points="371.1,-24.38 381.1,-20.88 371.1,-17.38 371.1,-24.38"/>
</a>
</g>
</g>
<!-- Node3 -->
<g id="Node000003" class="node">
<title>Node3</title>
<g id="a_Node000003"><a xlink:href="../../d2/dd5/_c_x_means_online1d_test_8cc.html#a1d68c9c9ad2692e9d6ddacc5a88211ac" target="_top" xlink:title=" ">
<polygon fill="white" stroke="#666666" points="147.25,-30.5 0,-30.5 0,-11.25 147.25,-11.25 147.25,-30.5"/>
<text text-anchor="middle" x="73.62" y="-17" font-family="Helvetica,sans-Serif" font-size="10.00">BOOST_AUTO_TEST_CASE</text>
</a>
</g>
</g>
<!-- Node2&#45;&gt;Node3 -->
<g id="edge2_Node000002_Node000003" class="edge">
<title>Node2&#45;&gt;Node3</title>
<g id="a_edge2_Node000002_Node000003"><a xlink:title=" ">
<path fill="none" stroke="#63b8ff" d="M171.58,-20.88C163.52,-20.88 155.44,-20.88 147.57,-20.88"/>
<polygon fill="#63b8ff" stroke="#63b8ff" points="171.42,-24.38 181.42,-20.88 171.42,-17.38 171.42,-24.38"/>
</a>
</g>
</g>
</g>
</svg>
