<?xml version="1.0" encoding="UTF-8" standalone="no"?>
<!DOCTYPE svg PUBLIC "-//W3C//DTD SVG 1.1//EN"
 "http://www.w3.org/Graphics/SVG/1.1/DTD/svg11.dtd">
<!-- Generated by graphviz version 10.0.1 (20240210.2158)
 -->
<!-- Title: ml::maths::common::CAvailableModeDistributions::haveNormal Pages: 1 -->
<!--zoomable 97 -->

<svg id="main" version="1.1" xmlns="http://www.w3.org/2000/svg" xmlns:xlink="http://www.w3.org/1999/xlink" xml:space="preserve" onload="init(evt)">
<style type="text/css"><![CDATA[
.node, .edge {opacity: 0.7;}
.node.selected, .edge.selected {opacity: 1;}
.edge:hover path { stroke: red; }
.edge:hover polygon { stroke: red; fill: red; }
]]></style>

<defs>
  <circle id="rim" cx="0" cy="0" r="7"/>
  <circle id="rim2" cx="0" cy="0" r="3.5"/>
  <g id="zoomPlus">
    <use xlink:href="#rim" fill="#404040"><set attributeName="fill" to="#808080" begin="zoomplus.mouseover" end="zoomplus.mouseout"/></use>
    <path d="M-4,0h8M0,-4v8" fill="none" stroke="white" stroke-width="1.5" pointer-events="none"/>
  </g>
  <g id="zoomMin">
    <use xlink:href="#rim" fill="#404040"><set attributeName="fill" to="#808080" begin="zoomminus.mouseover" end="zoomminus.mouseout"/></use>
    <path d="M-4,0h8" fill="none" stroke="white" stroke-width="1.5" pointer-events="none"/>
  </g>
  <g id="arrowUp" transform="translate(30 24)">
    <use xlink:href="#rim"/>
    <path pointer-events="none" fill="none" stroke="white" stroke-width="1.5" d="M0,-3.0v7 M-2.5,-0.5L0,-3.0L2.5,-0.5"/>
  </g>
  <g id="arrowRight" transform="rotate(90) translate(36 -43)">
    <use xlink:href="#rim"/>
    <path pointer-events="none" fill="none" stroke="white" stroke-width="1.5" d="M0,-3.0v7 M-2.5,-0.5L0,-3.0L2.5,-0.5"/>
  </g>
  <g id="arrowDown" transform="rotate(180) translate(-30 -48)">
    <use xlink:href="#rim"/>
    <path pointer-events="none" fill="none" stroke="white" stroke-width="1.5" d="M0,-3.0v7 M-2.5,-0.5L0,-3.0L2.5,-0.5"/>
  </g>
  <g id="arrowLeft" transform="rotate(270) translate(-36 17)">
    <use xlink:href="#rim"/>
    <path pointer-events="none" fill="none" stroke="white" stroke-width="1.5" d="M0,-3.0v7 M-2.5,-0.5L0,-3.0L2.5,-0.5"/>
  </g>
  <g id="resetDef">
    <use xlink:href="#rim2" fill="#404040"><set attributeName="fill" to="#808080" begin="reset.mouseover" end="reset.mouseout"/></use>
  </g>
</defs>
<script type="application/ecmascript">
var viewWidth = 644;
var viewHeight = 97;
var sectionId = 'dynsection-4';
</script>
<script type="application/ecmascript" xlink:href="../../svg.min.js"/>
<svg id="graph" class="graph">
<g id="viewport">
<title>ml::maths::common::CAvailableModeDistributions::haveNormal</title>
<!-- Node1 -->
<g id="Node000001" class="node">
<title>Node1</title>
<g id="a_Node000001"><a xlink:title="Check if the normal distribution is available.">
<polygon fill="#999999" stroke="#666666" points="635.5,-65.75 493.5,-65.75 493.5,-24 635.5,-24 635.5,-65.75"/>
<text text-anchor="start" x="501.5" y="-52.25" font-family="Helvetica,sans-Serif" font-size="10.00">ml::maths::common::</text>
<text text-anchor="start" x="501.5" y="-41" font-family="Helvetica,sans-Serif" font-size="10.00">CAvailableModeDistributions</text>
<text text-anchor="middle" x="564.5" y="-29.75" font-family="Helvetica,sans-Serif" font-size="10.00">::haveNormal</text>
</a>
</g>
</g>
<!-- Node2 -->
<g id="Node000002" class="node">
<title>Node2</title>
<g id="a_Node000002"><a xlink:href="../../d1/ddd/namespaceml_1_1maths_1_1common_1_1anonymous__namespace_02_c_x_means_online1d_8cc_03_1_1detail.html#a4272b1252aa4a82ba08e9ee3b231d2f3" target="_top" xlink:title=" ">
<polygon fill="white" stroke="#666666" points="279.5,-71.38 157.75,-71.38 157.75,-18.38 279.5,-18.38 279.5,-71.38"/>
<text text-anchor="start" x="165.75" y="-57.88" font-family="Helvetica,sans-Serif" font-size="10.00">ml::maths::common::</text>
<text text-anchor="start" x="165.75" y="-46.62" font-family="Helvetica,sans-Serif" font-size="10.00">anonymous_namespace</text>
<text text-anchor="start" x="165.75" y="-35.38" font-family="Helvetica,sans-Serif" font-size="10.00">{CXMeansOnline1d::cc}</text>
<text text-anchor="middle" x="218.62" y="-24.12" font-family="Helvetica,sans-Serif" font-size="10.00">::detail::BICGain</text>
</a>
</g>
</g>
<!-- Node1&#45;&gt;Node2 -->
<g id="edge1_Node000001_Node000002" class="edge">
<title>Node1&#45;&gt;Node2</title>
<g id="a_edge1_Node000001_Node000002"><a xlink:title=" ">
<path fill="none" stroke="#63b8ff" d="M481.62,-49.97C473.48,-50.34 465.33,-50.65 457.5,-50.88 394.41,-52.66 378.58,-52.85 315.5,-50.88 304,-50.52 291.73,-49.91 279.95,-49.23"/>
<polygon fill="#63b8ff" stroke="#63b8ff" points="481.77,-53.47 491.59,-49.49 481.44,-46.48 481.77,-53.47"/>
</a>
</g>
</g>
<!-- Node4 -->
<g id="Node000004" class="node">
<title>Node4</title>
<g id="a_Node000004"><a xlink:href="../../d1/d55/classml_1_1maths_1_1common_1_1_c_available_mode_distributions.html#aee88bed60fb4c3aedd04a9cef7e0e1ba" target="_top" xlink:title="Get the number of parameters used to model a mode.">
<polygon fill="white" stroke="#666666" points="457.5,-41.75 315.5,-41.75 315.5,0 457.5,0 457.5,-41.75"/>
<text text-anchor="start" x="323.5" y="-28.25" font-family="Helvetica,sans-Serif" font-size="10.00">ml::maths::common::</text>
<text text-anchor="start" x="323.5" y="-17" font-family="Helvetica,sans-Serif" font-size="10.00">CAvailableModeDistributions</text>
<text text-anchor="middle" x="386.5" y="-5.75" font-family="Helvetica,sans-Serif" font-size="10.00">::parameters</text>
</a>
</g>
</g>
<!-- Node1&#45;&gt;Node4 -->
<g id="edge5_Node000001_Node000004" class="edge">
<title>Node1&#45;&gt;Node4</title>
<g id="a_edge5_Node000001_Node000004"><a xlink:title=" ">
<path fill="none" stroke="#63b8ff" d="M481.95,-33.75C473.94,-32.66 465.87,-31.56 457.99,-30.49"/>
<polygon fill="#63b8ff" stroke="#63b8ff" points="481.3,-37.2 491.68,-35.08 482.25,-30.26 481.3,-37.2"/>
</a>
</g>
</g>
<!-- Node2&#45;&gt;Node2 -->
<g id="edge2_Node000002_Node000002" class="edge">
<title>Node2&#45;&gt;Node2</title>
<g id="a_edge2_Node000002_Node000002"><a xlink:title=" ">
<path fill="none" stroke="#63b8ff" d="M243.76,-82.31C239.08,-86.59 230.7,-89.38 218.62,-89.38 198.29,-89.38 188.44,-81.49 189.08,-71.81"/>
<polygon fill="#63b8ff" stroke="#63b8ff" points="246.93,-83.78 247.59,-73.21 240.48,-81.07 246.93,-83.78"/>
</a>
</g>
</g>
<!-- Node3 -->
<g id="Node000003" class="node">
<title>Node3</title>
<g id="a_Node000003"><a xlink:href="../../d1/ddd/namespaceml_1_1maths_1_1common_1_1anonymous__namespace_02_c_x_means_online1d_8cc_03_1_1detail.html#aff28339f2faf6f7093bc187123891e9d" target="_top" xlink:title=" ">
<polygon fill="white" stroke="#666666" points="121.75,-71.38 0,-71.38 0,-18.38 121.75,-18.38 121.75,-71.38"/>
<text text-anchor="start" x="8" y="-57.88" font-family="Helvetica,sans-Serif" font-size="10.00">ml::maths::common::</text>
<text text-anchor="start" x="8" y="-46.62" font-family="Helvetica,sans-Serif" font-size="10.00">anonymous_namespace</text>
<text text-anchor="start" x="8" y="-35.38" font-family="Helvetica,sans-Serif" font-size="10.00">{CXMeansOnline1d::cc}</text>
<text text-anchor="middle" x="60.88" y="-24.12" font-family="Helvetica,sans-Serif" font-size="10.00">::detail::splitSearch</text>
</a>
</g>
</g>
<!-- Node2&#45;&gt;Node3 -->
<g id="edge3_Node000002_Node000003" class="edge">
<title>Node2&#45;&gt;Node3</title>
<g id="a_edge3_Node000002_Node000003"><a xlink:title=" ">
<path fill="none" stroke="#63b8ff" d="M146.17,-44.88C138.15,-44.88 130.05,-44.88 122.19,-44.88"/>
<polygon fill="#63b8ff" stroke="#63b8ff" points="145.89,-48.38 155.89,-44.88 145.89,-41.38 145.89,-48.38"/>
</a>
</g>
</g>
<!-- Node3&#45;&gt;Node3 -->
<g id="edge4_Node000003_Node000003" class="edge">
<title>Node3&#45;&gt;Node3</title>
<g id="a_edge4_Node000003_Node000003"><a xlink:title=" ">
<path fill="none" stroke="#63b8ff" d="M86.01,-82.31C81.33,-86.59 72.95,-89.38 60.88,-89.38 40.54,-89.38 30.69,-81.49 31.33,-71.81"/>
<polygon fill="#63b8ff" stroke="#63b8ff" points="89.18,-83.78 89.84,-73.21 82.73,-81.07 89.18,-83.78"/>
</a>
</g>
</g>
<!-- Node4&#45;&gt;Node2 -->
<g id="edge6_Node000004_Node000002" class="edge">
<title>Node4&#45;&gt;Node2</title>
<g id="a_edge6_Node000004_Node000002"><a xlink:title=" ">
<path fill="none" stroke="#63b8ff" d="M303.79,-32.7C295.73,-33.86 287.65,-35.03 279.86,-36.16"/>
<polygon fill="#63b8ff" stroke="#63b8ff" points="304.26,-36.17 313.66,-31.27 303.26,-29.24 304.26,-36.17"/>
</a>
</g>
</g>
</g>
</svg>

<g id="navigator" transform="translate(0 0)" fill="#404254">
  <rect fill="#f2f5e9" fill-opacity="0.5" stroke="#606060" stroke-width=".5" x="0" y="0" width="60" height="60"/>
  <use id="zoomplus" xlink:href="#zoomPlus" x="17" y="9" onmousedown="handleZoom(evt,'in')"/>
  <use id="zoomminus" xlink:href="#zoomMin" x="42" y="9" onmousedown="handleZoom(evt,'out')"/>
  <use id="reset" xlink:href="#resetDef" x="30" y="36" onmousedown="handleReset()"/>
   <use id="arrowup" xlink:href="#arrowUp" x="0" y="0" onmousedown="handlePan(0,-1)"/>
  <use id="arrowright" xlink:href="#arrowRight" x="0" y="0" onmousedown="handlePan(1,0)"/>
  <use id="arrowdown" xlink:href="#arrowDown" x="0" y="0" onmousedown="handlePan(0,1)"/>
  <use id="arrowleft" xlink:href="#arrowLeft" x="0" y="0" onmousedown="handlePan(-1,0)"/>
</g>
<svg viewBox="0 0 15 15" width="100%" height="30px" preserveAspectRatio="xMaxYMin meet">
 <g id="arrow_out" transform="scale(0.3 0.3)">
  <a xlink:href="classml_1_1maths_1_1common_1_1_c_available_mode_distributions_af38bbcf61b6fae20b537cdf9eca16d51_icgraph_org.svg" target="_base">
   <rect id="button" ry="5" rx="5" y="6" x="6" height="38" width="38"
        fill="#f2f5e9" fill-opacity="0.5" stroke="#606060" stroke-width="1.0"/>
   <path id="arrow"
     d="M 11.500037,31.436501 C 11.940474,20.09759 22.043105,11.32322 32.158766,21.979434 L 37.068811,17.246167 C 37.068811,17.246167 37.088388,32 37.088388,32 L 22.160133,31.978069 C 22.160133,31.978069 26.997745,27.140456 26.997745,27.140456 C 18.528582,18.264221 13.291696,25.230495 11.500037,31.436501 z"
     style="fill:#404040;"/>
  </a>
 </g>
</svg>

<style type='text/css'>
<![CDATA[
[data-mouse-over-selected='false'] { opacity: 0.7; }
[data-mouse-over-selected='true']  { opacity: 1.0; }
]]>
</style>
<script type="application/ecmascript"><![CDATA[
document.addEventListener('DOMContentLoaded', (event) => {
  highlightEdges();
  highlightAdjacentNodes();
});
]]></script>
</svg>
