<?xml version="1.0" encoding="UTF-8" standalone="no"?>
<!DOCTYPE svg PUBLIC "-//W3C//DTD SVG 1.1//EN"
 "http://www.w3.org/Graphics/SVG/1.1/DTD/svg11.dtd">
<!-- Generated by graphviz version 10.0.1 (20240210.2158)
 -->
<!-- Title: ml::model::CHierarchicalResultsNormalizer::visit Pages: 1 -->
<!--zoomable 355 -->

<svg id="main" version="1.1" xmlns="http://www.w3.org/2000/svg" xmlns:xlink="http://www.w3.org/1999/xlink" xml:space="preserve" onload="init(evt)">
<style type="text/css"><![CDATA[
.node, .edge {opacity: 0.7;}
.node.selected, .edge.selected {opacity: 1;}
.edge:hover path { stroke: red; }
.edge:hover polygon { stroke: red; fill: red; }
]]></style>

<defs>
  <circle id="rim" cx="0" cy="0" r="7"/>
  <circle id="rim2" cx="0" cy="0" r="3.5"/>
  <g id="zoomPlus">
    <use xlink:href="#rim" fill="#404040"><set attributeName="fill" to="#808080" begin="zoomplus.mouseover" end="zoomplus.mouseout"/></use>
    <path d="M-4,0h8M0,-4v8" fill="none" stroke="white" stroke-width="1.5" pointer-events="none"/>
  </g>
  <g id="zoomMin">
    <use xlink:href="#rim" fill="#404040"><set attributeName="fill" to="#808080" begin="zoomminus.mouseover" end="zoomminus.mouseout"/></use>
    <path d="M-4,0h8" fill="none" stroke="white" stroke-width="1.5" pointer-events="none"/>
  </g>
  <g id="arrowUp" transform="translate(30 24)">
    <use xlink:href="#rim"/>
    <path pointer-events="none" fill="none" stroke="white" stroke-width="1.5" d="M0,-3.0v7 M-2.5,-0.5L0,-3.0L2.5,-0.5"/>
  </g>
  <g id="arrowRight" transform="rotate(90) translate(36 -43)">
    <use xlink:href="#rim"/>
    <path pointer-events="none" fill="none" stroke="white" stroke-width="1.5" d="M0,-3.0v7 M-2.5,-0.5L0,-3.0L2.5,-0.5"/>
  </g>
  <g id="arrowDown" transform="rotate(180) translate(-30 -48)">
    <use xlink:href="#rim"/>
    <path pointer-events="none" fill="none" stroke="white" stroke-width="1.5" d="M0,-3.0v7 M-2.5,-0.5L0,-3.0L2.5,-0.5"/>
  </g>
  <g id="arrowLeft" transform="rotate(270) translate(-36 17)">
    <use xlink:href="#rim"/>
    <path pointer-events="none" fill="none" stroke="white" stroke-width="1.5" d="M0,-3.0v7 M-2.5,-0.5L0,-3.0L2.5,-0.5"/>
  </g>
  <g id="resetDef">
    <use xlink:href="#rim2" fill="#404040"><set attributeName="fill" to="#808080" begin="reset.mouseover" end="reset.mouseout"/></use>
  </g>
</defs>
<script type="application/ecmascript">
var viewWidth = 555;
var viewHeight = 355;
var sectionId = 'dynsection-37';
</script>
<script type="application/ecmascript" xlink:href="../../svg.min.js"/>
<svg id="graph" class="graph">
<g id="viewport">
<title>ml::model::CHierarchicalResultsNormalizer::visit</title>
<!-- Node1 -->
<g id="Node000001" class="node">
<title>Node1</title>
<g id="a_Node000001"><a xlink:title="Update the normalizer with the node&#39;s anomaly score.">
<polygon fill="#999999" stroke="#666666" points="124,-177.12 0,-177.12 0,-146.62 124,-146.62 124,-177.12"/>
<text text-anchor="start" x="8" y="-163.62" font-family="Helvetica,sans-Serif" font-size="10.00">ml::model::CHierarchical</text>
<text text-anchor="middle" x="62" y="-152.38" font-family="Helvetica,sans-Serif" font-size="10.00">ResultsNormalizer::visit</text>
</a>
</g>
</g>
<!-- Node2 -->
<g id="Node000002" class="node">
<title>Node2</title>
<g id="a_Node000002"><a xlink:href="../../dd/d55/classml_1_1maths_1_1common_1_1_c_tools.html#a9954774ced7b4e70fd5e029934d59af9" target="_top" xlink:title=" ">
<polygon fill="white" stroke="#666666" points="324.5,-347.12 209.5,-347.12 209.5,-316.62 324.5,-316.62 324.5,-347.12"/>
<text text-anchor="start" x="217.5" y="-333.62" font-family="Helvetica,sans-Serif" font-size="10.00">ml::maths::common::</text>
<text text-anchor="middle" x="267" y="-322.38" font-family="Helvetica,sans-Serif" font-size="10.00">CTools::anomalyScore</text>
</a>
</g>
</g>
<!-- Node1&#45;&gt;Node2 -->
<g id="edge1_Node000001_Node000002" class="edge">
<title>Node1&#45;&gt;Node2</title>
<g id="a_edge1_Node000001_Node000002"><a xlink:title=" ">
<path fill="none" stroke="#63b8ff" d="M68.76,-177.52C80.75,-207.8 111.39,-274.37 160,-307.88 171.23,-315.61 184.56,-320.9 197.92,-324.49"/>
<polygon fill="#63b8ff" stroke="#63b8ff" points="197.09,-327.89 207.63,-326.78 198.7,-321.08 197.09,-327.89"/>
</a>
</g>
</g>
<!-- Node4 -->
<g id="Node000004" class="node">
<title>Node4</title>
<g id="a_Node000004"><a xlink:href="../../d8/dff/classml_1_1model_1_1_c_hierarchical_results_level_set.html#a0740c5f41f1555d14604e7ed0aff051e" target="_top" xlink:title=" ">
<polygon fill="white" stroke="#666666" points="340.25,-298.38 193.75,-298.38 193.75,-245.38 340.25,-245.38 340.25,-298.38"/>
<text text-anchor="start" x="201.75" y="-284.88" font-family="Helvetica,sans-Serif" font-size="10.00">ml::model::CHierarchical</text>
<text text-anchor="start" x="201.75" y="-273.62" font-family="Helvetica,sans-Serif" font-size="10.00">ResultsLevelSet&lt; hierarchical</text>
<text text-anchor="start" x="201.75" y="-262.38" font-family="Helvetica,sans-Serif" font-size="10.00">_results_normalizer_detail</text>
<text text-anchor="middle" x="267" y="-251.12" font-family="Helvetica,sans-Serif" font-size="10.00">::SNormalizer &gt;::elements</text>
</a>
</g>
</g>
<!-- Node1&#45;&gt;Node4 -->
<g id="edge3_Node000001_Node000004" class="edge">
<title>Node1&#45;&gt;Node4</title>
<g id="a_edge3_Node000001_Node000004"><a xlink:title=" ">
<path fill="none" stroke="#63b8ff" d="M79.63,-177.62C98.03,-194.32 129.17,-220.49 160,-236.88 167.18,-240.69 174.85,-244.19 182.66,-247.39"/>
<polygon fill="#63b8ff" stroke="#63b8ff" points="181.36,-250.64 191.95,-251 183.89,-244.11 181.36,-250.64"/>
</a>
</g>
</g>
<!-- Node5 -->
<g id="Node000005" class="node">
<title>Node5</title>
<g id="a_Node000005"><a xlink:href="../../df/d93/classml_1_1model_1_1_c_hierarchical_results_normalizer.html#a9ff79d613deecb15d1517bb3911ea063" target="_top" xlink:title=" ">
<polygon fill="white" stroke="#666666" points="345.12,-209.75 188.88,-209.75 188.88,-168 345.12,-168 345.12,-209.75"/>
<text text-anchor="start" x="196.88" y="-196.25" font-family="Helvetica,sans-Serif" font-size="10.00">ml::model::CHierarchical</text>
<text text-anchor="start" x="196.88" y="-185" font-family="Helvetica,sans-Serif" font-size="10.00">ResultsNormalizer::isMemberOf</text>
<text text-anchor="middle" x="267" y="-173.75" font-family="Helvetica,sans-Serif" font-size="10.00">Population</text>
</a>
</g>
</g>
<!-- Node1&#45;&gt;Node5 -->
<g id="edge4_Node000001_Node000005" class="edge">
<title>Node1&#45;&gt;Node5</title>
<g id="a_edge4_Node000001_Node000005"><a xlink:title=" ">
<path fill="none" stroke="#63b8ff" d="M124.46,-170.05C141.1,-172.26 159.45,-174.7 177.26,-177.07"/>
<polygon fill="#63b8ff" stroke="#63b8ff" points="176.69,-180.53 187.07,-178.38 177.62,-173.59 176.69,-180.53"/>
</a>
</g>
</g>
<!-- Node8 -->
<g id="Node000008" class="node">
<title>Node8</title>
<g id="a_Node000008"><a xlink:href="../../db/d5f/classml_1_1model_1_1_c_anomaly_detector_model_config.html#a9b1d57a801d6c7e3d004e2f09cd46f74" target="_top" xlink:title="Set the maximum anomalous probability.">
<polygon fill="white" stroke="#666666" points="374,-150.12 160,-150.12 160,-119.62 374,-119.62 374,-150.12"/>
<text text-anchor="start" x="168" y="-136.62" font-family="Helvetica,sans-Serif" font-size="10.00">ml::model::CAnomalyDetector</text>
<text text-anchor="middle" x="267" y="-125.38" font-family="Helvetica,sans-Serif" font-size="10.00">ModelConfig::maximumAnomalousProbability</text>
</a>
</g>
</g>
<!-- Node1&#45;&gt;Node8 -->
<g id="edge8_Node000001_Node000008" class="edge">
<title>Node1&#45;&gt;Node8</title>
<g id="a_edge8_Node000001_Node000008"><a xlink:title=" ">
<path fill="none" stroke="#63b8ff" d="M124.46,-153.7C132.16,-152.68 140.23,-151.6 148.44,-150.51"/>
<polygon fill="#63b8ff" stroke="#63b8ff" points="148.76,-154 158.21,-149.21 147.83,-147.06 148.76,-154"/>
</a>
</g>
</g>
<!-- Node10 -->
<g id="Node000010" class="node">
<title>Node10</title>
<g id="a_Node000010"><a xlink:href="../../d6/de7/structml_1_1model_1_1hierarchical__results__detail_1_1_s_result_spec.html#a625e189aea7a1220b110ebeec8ae8a10" target="_top" xlink:title="Print of the specification for debugging.">
<polygon fill="white" stroke="#666666" points="338.38,-101.75 195.62,-101.75 195.62,-60 338.38,-60 338.38,-101.75"/>
<text text-anchor="start" x="203.62" y="-88.25" font-family="Helvetica,sans-Serif" font-size="10.00">ml::model::hierarchical</text>
<text text-anchor="start" x="203.62" y="-77" font-family="Helvetica,sans-Serif" font-size="10.00">_results_detail::SResultSpec</text>
<text text-anchor="middle" x="267" y="-65.75" font-family="Helvetica,sans-Serif" font-size="10.00">::print</text>
</a>
</g>
</g>
<!-- Node1&#45;&gt;Node10 -->
<g id="edge10_Node000001_Node000010" class="edge">
<title>Node1&#45;&gt;Node10</title>
<g id="a_edge10_Node000001_Node000010"><a xlink:title=" ">
<path fill="none" stroke="#63b8ff" d="M89.05,-146.27C108.19,-135.28 135.09,-120.82 160,-110.88 167.78,-107.77 176,-104.85 184.29,-102.14"/>
<polygon fill="#63b8ff" stroke="#63b8ff" points="185.25,-105.5 193.74,-99.15 183.15,-98.83 185.25,-105.5"/>
</a>
</g>
</g>
<!-- Node12 -->
<g id="Node000012" class="node">
<title>Node12</title>
<g id="a_Node000012"><a xlink:href="../../dd/dab/structml_1_1model_1_1hierarchical__results__detail_1_1_s_node.html#ac889be9e65e4598ebddb00bd2a131eba" target="_top" xlink:title="Returns the aggregate probability for the node.">
<polygon fill="white" stroke="#666666" points="324.5,-41.75 209.5,-41.75 209.5,0 324.5,0 324.5,-41.75"/>
<text text-anchor="start" x="217.5" y="-28.25" font-family="Helvetica,sans-Serif" font-size="10.00">ml::model::hierarchical</text>
<text text-anchor="start" x="217.5" y="-17" font-family="Helvetica,sans-Serif" font-size="10.00">_results_detail::SNode</text>
<text text-anchor="middle" x="267" y="-5.75" font-family="Helvetica,sans-Serif" font-size="10.00">::probability</text>
</a>
</g>
</g>
<!-- Node1&#45;&gt;Node12 -->
<g id="edge12_Node000001_Node000012" class="edge">
<title>Node1&#45;&gt;Node12</title>
<g id="a_edge12_Node000001_Node000012"><a xlink:title=" ">
<path fill="none" stroke="#63b8ff" d="M72.26,-146.45C87.51,-122.38 120.21,-76.06 160,-50.88 171.67,-43.49 185.19,-37.89 198.58,-33.64"/>
<polygon fill="#63b8ff" stroke="#63b8ff" points="199.19,-37.11 207.81,-30.95 197.23,-30.39 199.19,-37.11"/>
</a>
</g>
</g>
<!-- Node3 -->
<g id="Node000003" class="node">
<title>Node3</title>
<g id="a_Node000003"><a xlink:href="../../dd/d55/classml_1_1maths_1_1common_1_1_c_tools.html#ab6f36e9dea375508adf0d7604a97a2f5" target="_top" xlink:title=" ">
<polygon fill="white" stroke="#666666" points="546,-347.12 410.75,-347.12 410.75,-316.62 546,-316.62 546,-347.12"/>
<text text-anchor="start" x="418.75" y="-333.62" font-family="Helvetica,sans-Serif" font-size="10.00">ml::maths::common::</text>
<text text-anchor="middle" x="478.38" y="-322.38" font-family="Helvetica,sans-Serif" font-size="10.00">CTools::smallestProbability</text>
</a>
</g>
</g>
<!-- Node2&#45;&gt;Node3 -->
<g id="edge2_Node000002_Node000003" class="edge">
<title>Node2&#45;&gt;Node3</title>
<g id="a_edge2_Node000002_Node000003"><a xlink:title=" ">
<path fill="none" stroke="#63b8ff" d="M324.94,-331.88C347.73,-331.88 374.36,-331.88 398.93,-331.88"/>
<polygon fill="#63b8ff" stroke="#63b8ff" points="398.91,-335.38 408.91,-331.88 398.91,-328.38 398.91,-335.38"/>
</a>
</g>
</g>
<!-- Node5&#45;&gt;Node5 -->
<g id="edge6_Node000005_Node000005" class="edge">
<title>Node5&#45;&gt;Node5</title>
<g id="a_edge6_Node000005_Node000005"><a xlink:title=" ">
<path fill="none" stroke="#63b8ff" d="M229.16,-210.07C225.56,-219.55 238.17,-227.75 267,-227.75 284.12,-227.75 295.52,-224.86 301.2,-220.53"/>
<polygon fill="#63b8ff" stroke="#63b8ff" points="304.36,-222.09 304.34,-211.5 297.75,-219.79 304.36,-222.09"/>
</a>
</g>
</g>
<!-- Node6 -->
<g id="Node000006" class="node">
<title>Node6</title>
<g id="a_Node000006"><a xlink:href="../../dc/d05/classml_1_1model_1_1_c_hierarchical_results_visitor.html#adedccb34126f54fa542741d102a483d8" target="_top" xlink:title="Check if the node is a leaf.">
<polygon fill="white" stroke="#666666" points="540.38,-251.12 416.38,-251.12 416.38,-220.62 540.38,-220.62 540.38,-251.12"/>
<text text-anchor="start" x="424.38" y="-237.62" font-family="Helvetica,sans-Serif" font-size="10.00">ml::model::CHierarchical</text>
<text text-anchor="middle" x="478.38" y="-226.38" font-family="Helvetica,sans-Serif" font-size="10.00">ResultsVisitor::isLeaf</text>
</a>
</g>
</g>
<!-- Node5&#45;&gt;Node6 -->
<g id="edge5_Node000005_Node000006" class="edge">
<title>Node5&#45;&gt;Node6</title>
<g id="a_edge5_Node000005_Node000006"><a xlink:title=" ">
<path fill="none" stroke="#63b8ff" d="M345.37,-206.24C364.84,-210.61 385.68,-215.29 404.9,-219.61"/>
<polygon fill="#63b8ff" stroke="#63b8ff" points="404.01,-222.99 414.54,-221.77 405.55,-216.16 404.01,-222.99"/>
</a>
</g>
</g>
<!-- Node7 -->
<g id="Node000007" class="node">
<title>Node7</title>
<g id="a_Node000007"><a xlink:href="../../dc/d05/classml_1_1model_1_1_c_hierarchical_results_visitor.html#a074d1c1ecbc9e7c97ad336c1d4bc7b08" target="_top" xlink:title="Check if the node is a population result.">
<polygon fill="white" stroke="#666666" points="546.75,-202.12 410,-202.12 410,-171.62 546.75,-171.62 546.75,-202.12"/>
<text text-anchor="start" x="418" y="-188.62" font-family="Helvetica,sans-Serif" font-size="10.00">ml::model::CHierarchical</text>
<text text-anchor="middle" x="478.38" y="-177.38" font-family="Helvetica,sans-Serif" font-size="10.00">ResultsVisitor::isPopulation</text>
</a>
</g>
</g>
<!-- Node5&#45;&gt;Node7 -->
<g id="edge7_Node000005_Node000007" class="edge">
<title>Node5&#45;&gt;Node7</title>
<g id="a_edge7_Node000005_Node000007"><a xlink:title=" ">
<path fill="none" stroke="#63b8ff" d="M345.37,-188.14C362.66,-187.97 381.03,-187.8 398.39,-187.63"/>
<polygon fill="#63b8ff" stroke="#63b8ff" points="398.15,-191.13 408.12,-187.54 398.09,-184.13 398.15,-191.13"/>
</a>
</g>
</g>
<!-- Node9 -->
<g id="Node000009" class="node">
<title>Node9</title>
<g id="a_Node000009"><a xlink:href="../../dd/d55/classml_1_1maths_1_1common_1_1_c_tools.html#a0ee3c8a8c133d36faa270f96ff48ae21" target="_top" xlink:title=" ">
<polygon fill="white" stroke="#666666" points="532.88,-150.12 423.88,-150.12 423.88,-119.62 532.88,-119.62 532.88,-150.12"/>
<text text-anchor="start" x="431.88" y="-136.62" font-family="Helvetica,sans-Serif" font-size="10.00">ml::maths::common::</text>
<text text-anchor="middle" x="478.38" y="-125.38" font-family="Helvetica,sans-Serif" font-size="10.00">CTools::truncate</text>
</a>
</g>
</g>
<!-- Node8&#45;&gt;Node9 -->
<g id="edge9_Node000008_Node000009" class="edge">
<title>Node8&#45;&gt;Node9</title>
<g id="a_edge9_Node000008_Node000009"><a xlink:title=" ">
<path fill="none" stroke="#63b8ff" d="M374.22,-134.88C387.18,-134.88 400.12,-134.88 412.22,-134.88"/>
<polygon fill="#63b8ff" stroke="#63b8ff" points="412.04,-138.38 422.04,-134.88 412.04,-131.38 412.04,-138.38"/>
</a>
</g>
</g>
<!-- Node11 -->
<g id="Node000011" class="node">
<title>Node11</title>
<g id="a_Node000011"><a xlink:href="../../d1/dfa/classml_1_1core_1_1_c_string_utils.html#a9f6a4501b11b285d20b91afd7f4473e4" target="_top" xlink:title="Convert a double to a pretty string (single precision using g formatting).">
<polygon fill="white" stroke="#666666" points="533.62,-96.12 423.12,-96.12 423.12,-65.62 533.62,-65.62 533.62,-96.12"/>
<text text-anchor="start" x="431.12" y="-82.62" font-family="Helvetica,sans-Serif" font-size="10.00">ml::core::CStringUtils</text>
<text text-anchor="middle" x="478.38" y="-71.38" font-family="Helvetica,sans-Serif" font-size="10.00">::typeToStringPretty</text>
</a>
</g>
</g>
<!-- Node10&#45;&gt;Node11 -->
<g id="edge11_Node000010_Node000011" class="edge">
<title>Node10&#45;&gt;Node11</title>
<g id="a_edge11_Node000010_Node000011"><a xlink:title=" ">
<path fill="none" stroke="#63b8ff" d="M338.59,-80.88C362.05,-80.88 388.08,-80.88 411.19,-80.88"/>
<polygon fill="#63b8ff" stroke="#63b8ff" points="411.12,-84.38 421.12,-80.88 411.12,-77.38 411.12,-84.38"/>
</a>
</g>
</g>
</g>
</svg>

<g id="navigator" transform="translate(0 0)" fill="#404254">
  <rect fill="#f2f5e9" fill-opacity="0.5" stroke="#606060" stroke-width=".5" x="0" y="0" width="60" height="60"/>
  <use id="zoomplus" xlink:href="#zoomPlus" x="17" y="9" onmousedown="handleZoom(evt,'in')"/>
  <use id="zoomminus" xlink:href="#zoomMin" x="42" y="9" onmousedown="handleZoom(evt,'out')"/>
  <use id="reset" xlink:href="#resetDef" x="30" y="36" onmousedown="handleReset()"/>
   <use id="arrowup" xlink:href="#arrowUp" x="0" y="0" onmousedown="handlePan(0,-1)"/>
  <use id="arrowright" xlink:href="#arrowRight" x="0" y="0" onmousedown="handlePan(1,0)"/>
  <use id="arrowdown" xlink:href="#arrowDown" x="0" y="0" onmousedown="handlePan(0,1)"/>
  <use id="arrowleft" xlink:href="#arrowLeft" x="0" y="0" onmousedown="handlePan(-1,0)"/>
</g>
<svg viewBox="0 0 15 15" width="100%" height="30px" preserveAspectRatio="xMaxYMin meet">
 <g id="arrow_out" transform="scale(0.3 0.3)">
  <a xlink:href="classml_1_1model_1_1_c_hierarchical_results_normalizer_a9cb313c2f99ef07256898e6ec713e032_cgraph_org.svg" target="_base">
   <rect id="button" ry="5" rx="5" y="6" x="6" height="38" width="38"
        fill="#f2f5e9" fill-opacity="0.5" stroke="#606060" stroke-width="1.0"/>
   <path id="arrow"
     d="M 11.500037,31.436501 C 11.940474,20.09759 22.043105,11.32322 32.158766,21.979434 L 37.068811,17.246167 C 37.068811,17.246167 37.088388,32 37.088388,32 L 22.160133,31.978069 C 22.160133,31.978069 26.997745,27.140456 26.997745,27.140456 C 18.528582,18.264221 13.291696,25.230495 11.500037,31.436501 z"
     style="fill:#404040;"/>
  </a>
 </g>
</svg>

<style type='text/css'>
<![CDATA[
[data-mouse-over-selected='false'] { opacity: 0.7; }
[data-mouse-over-selected='true']  { opacity: 1.0; }
]]>
</style>
<script type="application/ecmascript"><![CDATA[
document.addEventListener('DOMContentLoaded', (event) => {
  highlightEdges();
  highlightAdjacentNodes();
});
]]></script>
</svg>
