<?xml version="1.0" encoding="UTF-8" standalone="no"?>
<!DOCTYPE svg PUBLIC "-//W3C//DTD SVG 1.1//EN"
 "http://www.w3.org/Graphics/SVG/1.1/DTD/svg11.dtd">
<!-- Generated by graphviz version 10.0.1 (20240210.2158)
 -->
<!-- Title: ml::maths::common::mixture_detail::CCdfAdapter::operator() Pages: 1 -->
<svg width="478pt" height="301pt"
 viewBox="0.00 0.00 477.50 300.50" xmlns="http://www.w3.org/2000/svg" xmlns:xlink="http://www.w3.org/1999/xlink">
<g id="graph0" class="graph" transform="scale(1 1) rotate(0) translate(4 296.5)">
<title>ml::maths::common::mixture_detail::CCdfAdapter::operator()</title>
<!-- Node1 -->
<g id="Node000001" class="node">
<title>Node1</title>
<g id="a_Node000001"><a xlink:title=" ">
<polygon fill="#999999" stroke="#666666" points="139.75,-164.5 0,-164.5 0,-122.75 139.75,-122.75 139.75,-164.5"/>
<text text-anchor="start" x="8" y="-151" font-family="Helvetica,sans-Serif" font-size="10.00">ml::maths::common::</text>
<text text-anchor="start" x="8" y="-139.75" font-family="Helvetica,sans-Serif" font-size="10.00">mixture_detail::CCdfAdapter</text>
<text text-anchor="middle" x="69.88" y="-128.5" font-family="Helvetica,sans-Serif" font-size="10.00">::operator()</text>
</a>
</g>
</g>
<!-- Node2 -->
<g id="Node000002" class="node">
<title>Node2</title>
<g id="a_Node000002"><a xlink:href="../../d6/dd5/namespaceml_1_1maths_1_1common.html#a60cfac60a7086ae3449408c2a79beee5" target="_top" xlink:title="Compute the c.d.f. at x for distribution.">
<polygon fill="white" stroke="#666666" points="298.25,-153.25 175.75,-153.25 175.75,-134 298.25,-134 298.25,-153.25"/>
<text text-anchor="middle" x="237" y="-139.75" font-family="Helvetica,sans-Serif" font-size="10.00">ml::maths::common::cdf</text>
</a>
</g>
</g>
<!-- Node1&#45;&gt;Node2 -->
<g id="edge1_Node000001_Node000002" class="edge">
<title>Node1&#45;&gt;Node2</title>
<g id="a_edge1_Node000001_Node000002"><a xlink:title=" ">
<path fill="none" stroke="#63b8ff" d="M139.95,-143.62C147.84,-143.62 155.91,-143.62 163.85,-143.62"/>
<polygon fill="#63b8ff" stroke="#63b8ff" points="163.83,-147.13 173.83,-143.63 163.83,-140.13 163.83,-147.13"/>
</a>
</g>
</g>
<!-- Node3 -->
<g id="Node000003" class="node">
<title>Node3</title>
<g id="a_Node000003"><a xlink:href="../../d0/d1c/classml_1_1maths_1_1common_1_1_c_log_t_distribution.html#a128ce0a627956e7931be0358fe995d2d" target="_top" xlink:title=" ">
<polygon fill="white" stroke="#666666" points="469.5,-292.5 334.25,-292.5 334.25,-250.75 469.5,-250.75 469.5,-292.5"/>
<text text-anchor="start" x="342.25" y="-279" font-family="Helvetica,sans-Serif" font-size="10.00">ml::maths::common::</text>
<text text-anchor="start" x="342.25" y="-267.75" font-family="Helvetica,sans-Serif" font-size="10.00">CLogTDistribution::degrees</text>
<text text-anchor="middle" x="401.88" y="-256.5" font-family="Helvetica,sans-Serif" font-size="10.00">Freedom</text>
</a>
</g>
</g>
<!-- Node2&#45;&gt;Node3 -->
<g id="edge2_Node000002_Node000003" class="edge">
<title>Node2&#45;&gt;Node3</title>
<g id="a_edge2_Node000002_Node000003"><a xlink:title=" ">
<path fill="none" stroke="#63b8ff" d="M245.76,-153.73C260.96,-172.97 296.49,-215.31 334.25,-241.62 335.79,-242.7 337.37,-243.75 338.99,-244.77"/>
<polygon fill="#63b8ff" stroke="#63b8ff" points="336.84,-247.57 347.24,-249.59 340.38,-241.53 336.84,-247.57"/>
</a>
</g>
</g>
<!-- Node4 -->
<g id="Node000004" class="node">
<title>Node4</title>
<g id="a_Node000004"><a xlink:href="../../dd/dc8/classml_1_1maths_1_1common_1_1_c_maths_funcs.html#a55029f09f9f7e9eb786219fefbb8ff72" target="_top" xlink:title="Check if value is NaN.">
<polygon fill="white" stroke="#666666" points="456.38,-232.88 347.38,-232.88 347.38,-202.38 456.38,-202.38 456.38,-232.88"/>
<text text-anchor="start" x="355.38" y="-219.38" font-family="Helvetica,sans-Serif" font-size="10.00">ml::maths::common::</text>
<text text-anchor="middle" x="401.88" y="-208.12" font-family="Helvetica,sans-Serif" font-size="10.00">CMathsFuncs::isNan</text>
</a>
</g>
</g>
<!-- Node2&#45;&gt;Node4 -->
<g id="edge3_Node000002_Node000004" class="edge">
<title>Node2&#45;&gt;Node4</title>
<g id="a_edge3_Node000002_Node000004"><a xlink:title=" ">
<path fill="none" stroke="#63b8ff" d="M256.16,-153.64C275.29,-164.01 306.45,-180.38 334.25,-192.62 338.21,-194.37 342.33,-196.1 346.49,-197.8"/>
<polygon fill="#63b8ff" stroke="#63b8ff" points="344.88,-200.92 355.46,-201.35 347.46,-194.41 344.88,-200.92"/>
</a>
</g>
</g>
<!-- Node5 -->
<g id="Node000005" class="node">
<title>Node5</title>
<g id="a_Node000005"><a xlink:href="../../d0/d1c/classml_1_1maths_1_1common_1_1_c_log_t_distribution.html#a4267908e2f6c547fd21f75a77f6bee78" target="_top" xlink:title=" ">
<polygon fill="white" stroke="#666666" points="469.12,-183.88 334.62,-183.88 334.62,-153.38 469.12,-153.38 469.12,-183.88"/>
<text text-anchor="start" x="342.62" y="-170.38" font-family="Helvetica,sans-Serif" font-size="10.00">ml::maths::common::</text>
<text text-anchor="middle" x="401.88" y="-159.12" font-family="Helvetica,sans-Serif" font-size="10.00">CLogTDistribution::location</text>
</a>
</g>
</g>
<!-- Node2&#45;&gt;Node5 -->
<g id="edge4_Node000002_Node000005" class="edge">
<title>Node2&#45;&gt;Node5</title>
<g id="a_edge4_Node000002_Node000005"><a xlink:title=" ">
<path fill="none" stroke="#63b8ff" d="M298.65,-152.93C306.61,-154.16 314.85,-155.42 323.05,-156.68"/>
<polygon fill="#63b8ff" stroke="#63b8ff" points="322.25,-160.1 332.66,-158.15 323.31,-153.18 322.25,-160.1"/>
</a>
</g>
</g>
<!-- Node6 -->
<g id="Node000006" class="node">
<title>Node6</title>
<g id="a_Node000006"><a xlink:href="../../dd/d55/classml_1_1maths_1_1common_1_1_c_tools.html#a3b1d398255cd218c09ddfe9f75cfa829" target="_top" xlink:title=" ">
<polygon fill="white" stroke="#666666" points="456.38,-134.88 347.38,-134.88 347.38,-104.38 456.38,-104.38 456.38,-134.88"/>
<text text-anchor="start" x="355.38" y="-121.38" font-family="Helvetica,sans-Serif" font-size="10.00">ml::maths::common::</text>
<text text-anchor="middle" x="401.88" y="-110.12" font-family="Helvetica,sans-Serif" font-size="10.00">CTools::safeCdf</text>
</a>
</g>
</g>
<!-- Node2&#45;&gt;Node6 -->
<g id="edge5_Node000002_Node000006" class="edge">
<title>Node2&#45;&gt;Node6</title>
<g id="a_edge5_Node000002_Node000006"><a xlink:title=" ">
<path fill="none" stroke="#63b8ff" d="M298.65,-134.69C310.77,-132.9 323.54,-131.02 335.8,-129.21"/>
<polygon fill="#63b8ff" stroke="#63b8ff" points="336,-132.72 345.39,-127.8 334.98,-125.8 336,-132.72"/>
</a>
</g>
</g>
<!-- Node7 -->
<g id="Node000007" class="node">
<title>Node7</title>
<g id="a_Node000007"><a xlink:href="../../d0/d1c/classml_1_1maths_1_1common_1_1_c_log_t_distribution.html#a8f03f27080a2f59d3da535b4b4f228ef" target="_top" xlink:title=" ">
<polygon fill="white" stroke="#666666" points="463.88,-85.88 339.88,-85.88 339.88,-55.38 463.88,-55.38 463.88,-85.88"/>
<text text-anchor="start" x="347.88" y="-72.38" font-family="Helvetica,sans-Serif" font-size="10.00">ml::maths::common::</text>
<text text-anchor="middle" x="401.88" y="-61.12" font-family="Helvetica,sans-Serif" font-size="10.00">CLogTDistribution::scale</text>
</a>
</g>
</g>
<!-- Node2&#45;&gt;Node7 -->
<g id="edge6_Node000002_Node000007" class="edge">
<title>Node2&#45;&gt;Node7</title>
<g id="a_edge6_Node000002_Node000007"><a xlink:title=" ">
<path fill="none" stroke="#63b8ff" d="M256.54,-133.66C275.72,-123.52 306.69,-107.63 334.25,-95.62 338.28,-93.87 342.47,-92.12 346.7,-90.41"/>
<polygon fill="#63b8ff" stroke="#63b8ff" points="347.82,-93.73 355.84,-86.81 345.25,-87.22 347.82,-93.73"/>
</a>
</g>
</g>
<!-- Node8 -->
<g id="Node000008" class="node">
<title>Node8</title>
<g id="a_Node000008"><a xlink:href="../../d4/da6/namespaceml.html#ad281564c6956f9a94ad02cfd663d150d" target="_top" xlink:title="Scales time input to generator.">
<polygon fill="white" stroke="#666666" points="429.75,-19.25 374,-19.25 374,0 429.75,0 429.75,-19.25"/>
<text text-anchor="middle" x="401.88" y="-5.75" font-family="Helvetica,sans-Serif" font-size="10.00">ml::scale</text>
</a>
</g>
</g>
<!-- Node2&#45;&gt;Node8 -->
<g id="edge7_Node000002_Node000008" class="edge">
<title>Node2&#45;&gt;Node8</title>
<g id="a_edge7_Node000002_Node000008"><a xlink:title=" ">
<path fill="none" stroke="#63b8ff" d="M246.23,-133.62C261.95,-114.94 297.94,-74.12 334.25,-46.62 344.99,-38.49 357.73,-30.97 369.17,-24.87"/>
<polygon fill="#63b8ff" stroke="#63b8ff" points="370.6,-28.07 377.88,-20.38 367.39,-21.85 370.6,-28.07"/>
</a>
</g>
</g>
<!-- Node8&#45;&gt;Node8 -->
<g id="edge8_Node000008_Node000008" class="edge">
<title>Node8&#45;&gt;Node8</title>
<g id="a_edge8_Node000008_Node000008"><a xlink:title=" ">
<path fill="none" stroke="#63b8ff" d="M376.06,-19.54C364.29,-28.15 372.89,-37.25 401.88,-37.25 418.18,-37.25 428.03,-34.37 431.44,-30.32"/>
<polygon fill="#63b8ff" stroke="#63b8ff" points="434.78,-29.26 428.18,-20.97 428.17,-31.56 434.78,-29.26"/>
</a>
</g>
</g>
</g>
</svg>
