<?xml version="1.0" encoding="UTF-8" standalone="no"?>
<!DOCTYPE svg PUBLIC "-//W3C//DTD SVG 1.1//EN"
 "http://www.w3.org/Graphics/SVG/1.1/DTD/svg11.dtd">
<!-- Generated by graphviz version 10.0.1 (20240210.2158)
 -->
<!-- Title: ml::maths::common::CMultivariateNormalConjugate::marginalLikelihoodCovariance Pages: 1 -->
<svg width="582pt" height="57pt"
 viewBox="0.00 0.00 582.00 56.50" xmlns="http://www.w3.org/2000/svg" xmlns:xlink="http://www.w3.org/1999/xlink">
<g id="graph0" class="graph" transform="scale(1 1) rotate(0) translate(4 52.5)">
<title>ml::maths::common::CMultivariateNormalConjugate::marginalLikelihoodCovariance</title>
<!-- Node1 -->
<g id="Node000001" class="node">
<title>Node1</title>
<g id="a_Node000001"><a xlink:title="Get the covariance matrix for the marginal likelihood.">
<polygon fill="#999999" stroke="#666666" points="151.75,-41.75 0,-41.75 0,0 151.75,0 151.75,-41.75"/>
<text text-anchor="start" x="8" y="-28.25" font-family="Helvetica,sans-Serif" font-size="10.00">ml::maths::common::</text>
<text text-anchor="start" x="8" y="-17" font-family="Helvetica,sans-Serif" font-size="10.00">CMultivariateNormalConjugate</text>
<text text-anchor="middle" x="75.88" y="-5.75" font-family="Helvetica,sans-Serif" font-size="10.00">::marginalLikelihoodCovariance</text>
</a>
</g>
</g>
<!-- Node2 -->
<g id="Node000002" class="node">
<title>Node2</title>
<g id="a_Node000002"><a xlink:href="../../dc/d70/classml_1_1maths_1_1common_1_1_c_multivariate_normal_conjugate.html#adf9bfad63f32b984fed17da61c051b69" target="_top" xlink:title="Get the covariance matrix for the marginal likelihood.">
<polygon fill="white" stroke="#666666" points="337.25,-41.75 187.75,-41.75 187.75,0 337.25,0 337.25,-41.75"/>
<text text-anchor="start" x="195.75" y="-28.25" font-family="Helvetica,sans-Serif" font-size="10.00">ml::maths::common::</text>
<text text-anchor="start" x="195.75" y="-17" font-family="Helvetica,sans-Serif" font-size="10.00">CMultivariateNormalConjugate</text>
<text text-anchor="middle" x="262.5" y="-5.75" font-family="Helvetica,sans-Serif" font-size="10.00">::covarianceMatrix</text>
</a>
</g>
</g>
<!-- Node1&#45;&gt;Node2 -->
<g id="edge1_Node000001_Node000002" class="edge">
<title>Node1&#45;&gt;Node2</title>
<g id="a_edge1_Node000001_Node000002"><a xlink:title=" ">
<path fill="none" stroke="#63b8ff" d="M152.24,-20.88C160.01,-20.88 167.94,-20.88 175.82,-20.88"/>
<polygon fill="#63b8ff" stroke="#63b8ff" points="175.76,-24.38 185.76,-20.88 175.76,-17.38 175.76,-24.38"/>
</a>
</g>
</g>
<!-- Node3 -->
<g id="Node000003" class="node">
<title>Node3</title>
<g id="a_Node000003"><a xlink:href="../../d6/dd5/namespaceml_1_1maths_1_1common.html#a8d5dbb77e3307e72f667c8c5ad4a53e1" target="_top" xlink:title="Scale the i&#39;th row and column by scale.">
<polygon fill="white" stroke="#666666" points="482.25,-36.12 373.25,-36.12 373.25,-5.62 482.25,-5.62 482.25,-36.12"/>
<text text-anchor="start" x="381.25" y="-22.62" font-family="Helvetica,sans-Serif" font-size="10.00">ml::maths::common::</text>
<text text-anchor="middle" x="427.75" y="-11.38" font-family="Helvetica,sans-Serif" font-size="10.00">scaleCovariances</text>
</a>
</g>
</g>
<!-- Node2&#45;&gt;Node3 -->
<g id="edge2_Node000002_Node000003" class="edge">
<title>Node2&#45;&gt;Node3</title>
<g id="a_edge2_Node000002_Node000003"><a xlink:title=" ">
<path fill="none" stroke="#63b8ff" d="M337.48,-20.88C345.53,-20.88 353.68,-20.88 361.61,-20.88"/>
<polygon fill="#63b8ff" stroke="#63b8ff" points="361.53,-24.38 371.53,-20.88 361.53,-17.38 361.53,-24.38"/>
</a>
</g>
</g>
<!-- Node4 -->
<g id="Node000004" class="node">
<title>Node4</title>
<g id="a_Node000004"><a xlink:href="../../d4/da6/namespaceml.html#ad281564c6956f9a94ad02cfd663d150d" target="_top" xlink:title="Scales time input to generator.">
<polygon fill="white" stroke="#666666" points="574,-30.5 518.25,-30.5 518.25,-11.25 574,-11.25 574,-30.5"/>
<text text-anchor="middle" x="546.12" y="-17" font-family="Helvetica,sans-Serif" font-size="10.00">ml::scale</text>
</a>
</g>
</g>
<!-- Node3&#45;&gt;Node4 -->
<g id="edge3_Node000003_Node000004" class="edge">
<title>Node3&#45;&gt;Node4</title>
<g id="a_edge3_Node000003_Node000004"><a xlink:title=" ">
<path fill="none" stroke="#63b8ff" d="M482.51,-20.88C490.66,-20.88 498.92,-20.88 506.66,-20.88"/>
<polygon fill="#63b8ff" stroke="#63b8ff" points="506.39,-24.38 516.39,-20.88 506.39,-17.38 506.39,-24.38"/>
</a>
</g>
</g>
<!-- Node4&#45;&gt;Node4 -->
<g id="edge4_Node000004_Node000004" class="edge">
<title>Node4&#45;&gt;Node4</title>
<g id="a_edge4_Node000004_Node000004"><a xlink:title=" ">
<path fill="none" stroke="#63b8ff" d="M527.59,-30.79C519.14,-39.4 525.32,-48.5 546.12,-48.5 557.5,-48.5 564.51,-45.78 567.14,-41.9"/>
<polygon fill="#63b8ff" stroke="#63b8ff" points="570.58,-41.26 564.99,-32.27 563.75,-42.79 570.58,-41.26"/>
</a>
</g>
</g>
</g>
</svg>
