<?xml version="1.0" encoding="UTF-8" standalone="no"?>
<!DOCTYPE svg PUBLIC "-//W3C//DTD SVG 1.1//EN"
 "http://www.w3.org/Graphics/SVG/1.1/DTD/svg11.dtd">
<!-- Generated by graphviz version 10.0.1 (20240210.2158)
 -->
<!-- Title: ml::maths::common::CMultivariateNormalConjugate::print Pages: 1 -->
<!--zoomable 171 -->

<svg id="main" version="1.1" xmlns="http://www.w3.org/2000/svg" xmlns:xlink="http://www.w3.org/1999/xlink" xml:space="preserve" onload="init(evt)">
<style type="text/css"><![CDATA[
.node, .edge {opacity: 0.7;}
.node.selected, .edge.selected {opacity: 1;}
.edge:hover path { stroke: red; }
.edge:hover polygon { stroke: red; fill: red; }
]]></style>

<defs>
  <circle id="rim" cx="0" cy="0" r="7"/>
  <circle id="rim2" cx="0" cy="0" r="3.5"/>
  <g id="zoomPlus">
    <use xlink:href="#rim" fill="#404040"><set attributeName="fill" to="#808080" begin="zoomplus.mouseover" end="zoomplus.mouseout"/></use>
    <path d="M-4,0h8M0,-4v8" fill="none" stroke="white" stroke-width="1.5" pointer-events="none"/>
  </g>
  <g id="zoomMin">
    <use xlink:href="#rim" fill="#404040"><set attributeName="fill" to="#808080" begin="zoomminus.mouseover" end="zoomminus.mouseout"/></use>
    <path d="M-4,0h8" fill="none" stroke="white" stroke-width="1.5" pointer-events="none"/>
  </g>
  <g id="arrowUp" transform="translate(30 24)">
    <use xlink:href="#rim"/>
    <path pointer-events="none" fill="none" stroke="white" stroke-width="1.5" d="M0,-3.0v7 M-2.5,-0.5L0,-3.0L2.5,-0.5"/>
  </g>
  <g id="arrowRight" transform="rotate(90) translate(36 -43)">
    <use xlink:href="#rim"/>
    <path pointer-events="none" fill="none" stroke="white" stroke-width="1.5" d="M0,-3.0v7 M-2.5,-0.5L0,-3.0L2.5,-0.5"/>
  </g>
  <g id="arrowDown" transform="rotate(180) translate(-30 -48)">
    <use xlink:href="#rim"/>
    <path pointer-events="none" fill="none" stroke="white" stroke-width="1.5" d="M0,-3.0v7 M-2.5,-0.5L0,-3.0L2.5,-0.5"/>
  </g>
  <g id="arrowLeft" transform="rotate(270) translate(-36 17)">
    <use xlink:href="#rim"/>
    <path pointer-events="none" fill="none" stroke="white" stroke-width="1.5" d="M0,-3.0v7 M-2.5,-0.5L0,-3.0L2.5,-0.5"/>
  </g>
  <g id="resetDef">
    <use xlink:href="#rim2" fill="#404040"><set attributeName="fill" to="#808080" begin="reset.mouseover" end="reset.mouseout"/></use>
  </g>
</defs>
<script type="application/ecmascript">
var viewWidth = 610;
var viewHeight = 171;
var sectionId = 'dynsection-40';
</script>
<script type="application/ecmascript" xlink:href="../../svg.min.js"/>
<svg id="graph" class="graph">
<g id="viewport">
<title>ml::maths::common::CMultivariateNormalConjugate::print</title>
<!-- Node1 -->
<g id="Node000001" class="node">
<title>Node1</title>
<g id="a_Node000001"><a xlink:title=" ">
<polygon fill="#999999" stroke="#666666" points="149.5,-95.75 0,-95.75 0,-54 149.5,-54 149.5,-95.75"/>
<text text-anchor="start" x="8" y="-82.25" font-family="Helvetica,sans-Serif" font-size="10.00">ml::maths::common::</text>
<text text-anchor="start" x="8" y="-71" font-family="Helvetica,sans-Serif" font-size="10.00">CMultivariateNormalConjugate</text>
<text text-anchor="middle" x="74.75" y="-59.75" font-family="Helvetica,sans-Serif" font-size="10.00">::print</text>
</a>
</g>
</g>
<!-- Node2 -->
<g id="Node000002" class="node">
<title>Node2</title>
<g id="a_Node000002"><a xlink:href="../../dc/d70/classml_1_1maths_1_1common_1_1_c_multivariate_normal_conjugate.html#adf9bfad63f32b984fed17da61c051b69" target="_top" xlink:title="Get the covariance matrix for the marginal likelihood.">
<polygon fill="white" stroke="#666666" points="350,-155.75 200.5,-155.75 200.5,-114 350,-114 350,-155.75"/>
<text text-anchor="start" x="208.5" y="-142.25" font-family="Helvetica,sans-Serif" font-size="10.00">ml::maths::common::</text>
<text text-anchor="start" x="208.5" y="-131" font-family="Helvetica,sans-Serif" font-size="10.00">CMultivariateNormalConjugate</text>
<text text-anchor="middle" x="275.25" y="-119.75" font-family="Helvetica,sans-Serif" font-size="10.00">::covarianceMatrix</text>
</a>
</g>
</g>
<!-- Node1&#45;&gt;Node2 -->
<g id="edge1_Node000001_Node000002" class="edge">
<title>Node1&#45;&gt;Node2</title>
<g id="a_edge1_Node000001_Node000002"><a xlink:title=" ">
<path fill="none" stroke="#63b8ff" d="M146.29,-96.2C161.41,-100.77 177.51,-105.63 192.99,-110.31"/>
<polygon fill="#63b8ff" stroke="#63b8ff" points="191.57,-113.54 202.15,-113.08 193.59,-106.84 191.57,-113.54"/>
</a>
</g>
</g>
<!-- Node5 -->
<g id="Node000005" class="node">
<title>Node5</title>
<g id="a_Node000005"><a xlink:href="../../dc/d70/classml_1_1maths_1_1common_1_1_c_multivariate_normal_conjugate.html#a282358c48df9393af90423cf34979d4f" target="_top" xlink:title="Check if this is a non&#45;informative prior.">
<polygon fill="white" stroke="#666666" points="350,-95.75 200.5,-95.75 200.5,-54 350,-54 350,-95.75"/>
<text text-anchor="start" x="208.5" y="-82.25" font-family="Helvetica,sans-Serif" font-size="10.00">ml::maths::common::</text>
<text text-anchor="start" x="208.5" y="-71" font-family="Helvetica,sans-Serif" font-size="10.00">CMultivariateNormalConjugate</text>
<text text-anchor="middle" x="275.25" y="-59.75" font-family="Helvetica,sans-Serif" font-size="10.00">::isNonInformative</text>
</a>
</g>
</g>
<!-- Node1&#45;&gt;Node5 -->
<g id="edge5_Node000001_Node000005" class="edge">
<title>Node1&#45;&gt;Node5</title>
<g id="a_edge5_Node000001_Node000005"><a xlink:title=" ">
<path fill="none" stroke="#63b8ff" d="M149.95,-74.88C162.64,-74.88 175.91,-74.88 188.87,-74.88"/>
<polygon fill="#63b8ff" stroke="#63b8ff" points="188.63,-78.38 198.63,-74.88 188.63,-71.38 188.63,-78.38"/>
</a>
</g>
</g>
<!-- Node6 -->
<g id="Node000006" class="node">
<title>Node6</title>
<g id="a_Node000006"><a xlink:href="../../dc/d70/classml_1_1maths_1_1common_1_1_c_multivariate_normal_conjugate.html#a443affb1b42ac877baaaf89fa2da457f" target="_top" xlink:title="Get the expected mean of the marginal likelihood.">
<polygon fill="white" stroke="#666666" points="365,-36.12 185.5,-36.12 185.5,-5.62 365,-5.62 365,-36.12"/>
<text text-anchor="start" x="193.5" y="-22.62" font-family="Helvetica,sans-Serif" font-size="10.00">ml::maths::common::</text>
<text text-anchor="middle" x="275.25" y="-11.38" font-family="Helvetica,sans-Serif" font-size="10.00">CMultivariateNormalConjugate::mean</text>
</a>
</g>
</g>
<!-- Node1&#45;&gt;Node6 -->
<g id="edge6_Node000001_Node000006" class="edge">
<title>Node1&#45;&gt;Node6</title>
<g id="a_edge6_Node000001_Node000006"><a xlink:title=" ">
<path fill="none" stroke="#63b8ff" d="M149.83,-54.6C161.76,-51.34 173.97,-48.01 185.5,-44.88 191.81,-43.16 198.38,-41.38 204.96,-39.59"/>
<polygon fill="#63b8ff" stroke="#63b8ff" points="205.8,-42.99 214.54,-37 203.97,-36.23 205.8,-42.99"/>
</a>
</g>
</g>
<!-- Node3 -->
<g id="Node000003" class="node">
<title>Node3</title>
<g id="a_Node000003"><a xlink:href="../../d6/dd5/namespaceml_1_1maths_1_1common.html#a8d5dbb77e3307e72f667c8c5ad4a53e1" target="_top" xlink:title="Scale the i&#39;th row and column by scale.">
<polygon fill="white" stroke="#666666" points="510,-150.12 401,-150.12 401,-119.62 510,-119.62 510,-150.12"/>
<text text-anchor="start" x="409" y="-136.62" font-family="Helvetica,sans-Serif" font-size="10.00">ml::maths::common::</text>
<text text-anchor="middle" x="455.5" y="-125.38" font-family="Helvetica,sans-Serif" font-size="10.00">scaleCovariances</text>
</a>
</g>
</g>
<!-- Node2&#45;&gt;Node3 -->
<g id="edge2_Node000002_Node000003" class="edge">
<title>Node2&#45;&gt;Node3</title>
<g id="a_edge2_Node000002_Node000003"><a xlink:title=" ">
<path fill="none" stroke="#63b8ff" d="M350.3,-134.88C363.18,-134.88 376.51,-134.88 389.14,-134.88"/>
<polygon fill="#63b8ff" stroke="#63b8ff" points="389.01,-138.38 399.01,-134.88 389.01,-131.38 389.01,-138.38"/>
</a>
</g>
</g>
<!-- Node4 -->
<g id="Node000004" class="node">
<title>Node4</title>
<g id="a_Node000004"><a xlink:href="../../d4/da6/namespaceml.html#ad281564c6956f9a94ad02cfd663d150d" target="_top" xlink:title="Scales time input to generator.">
<polygon fill="white" stroke="#666666" points="601.75,-144.5 546,-144.5 546,-125.25 601.75,-125.25 601.75,-144.5"/>
<text text-anchor="middle" x="573.88" y="-131" font-family="Helvetica,sans-Serif" font-size="10.00">ml::scale</text>
</a>
</g>
</g>
<!-- Node3&#45;&gt;Node4 -->
<g id="edge3_Node000003_Node000004" class="edge">
<title>Node3&#45;&gt;Node4</title>
<g id="a_edge3_Node000003_Node000004"><a xlink:title=" ">
<path fill="none" stroke="#63b8ff" d="M510.26,-134.88C518.41,-134.88 526.67,-134.88 534.41,-134.88"/>
<polygon fill="#63b8ff" stroke="#63b8ff" points="534.14,-138.38 544.14,-134.88 534.14,-131.38 534.14,-138.38"/>
</a>
</g>
</g>
<!-- Node4&#45;&gt;Node4 -->
<g id="edge4_Node000004_Node000004" class="edge">
<title>Node4&#45;&gt;Node4</title>
<g id="a_edge4_Node000004_Node000004"><a xlink:title=" ">
<path fill="none" stroke="#63b8ff" d="M555.34,-144.79C546.89,-153.4 553.07,-162.5 573.88,-162.5 585.25,-162.5 592.26,-159.78 594.89,-155.9"/>
<polygon fill="#63b8ff" stroke="#63b8ff" points="598.33,-155.26 592.74,-146.27 591.5,-156.79 598.33,-155.26"/>
</a>
</g>
</g>
<!-- Node7 -->
<g id="Node000007" class="node">
<title>Node7</title>
<g id="a_Node000007"><a xlink:href="../../d9/d0b/classml_1_1maths_1_1common_1_1_c_multivariate_prior.html#a1cdd59c83e4751618dd40701b33e56c2" target="_top" xlink:title="Check if the prior is being used to model integer data.">
<polygon fill="white" stroke="#666666" points="510,-41.75 401,-41.75 401,0 510,0 510,-41.75"/>
<text text-anchor="start" x="409" y="-28.25" font-family="Helvetica,sans-Serif" font-size="10.00">ml::maths::common::</text>
<text text-anchor="start" x="409" y="-17" font-family="Helvetica,sans-Serif" font-size="10.00">CMultivariatePrior::</text>
<text text-anchor="middle" x="455.5" y="-5.75" font-family="Helvetica,sans-Serif" font-size="10.00">isInteger</text>
</a>
</g>
</g>
<!-- Node6&#45;&gt;Node7 -->
<g id="edge7_Node000006_Node000007" class="edge">
<title>Node6&#45;&gt;Node7</title>
<g id="a_edge7_Node000006_Node000007"><a xlink:title=" ">
<path fill="none" stroke="#63b8ff" d="M365.38,-20.88C373.35,-20.88 381.33,-20.88 389.05,-20.88"/>
<polygon fill="#63b8ff" stroke="#63b8ff" points="389.02,-24.38 399.02,-20.88 389.02,-17.38 389.02,-24.38"/>
</a>
</g>
</g>
</g>
</svg>

<g id="navigator" transform="translate(0 0)" fill="#404254">
  <rect fill="#f2f5e9" fill-opacity="0.5" stroke="#606060" stroke-width=".5" x="0" y="0" width="60" height="60"/>
  <use id="zoomplus" xlink:href="#zoomPlus" x="17" y="9" onmousedown="handleZoom(evt,'in')"/>
  <use id="zoomminus" xlink:href="#zoomMin" x="42" y="9" onmousedown="handleZoom(evt,'out')"/>
  <use id="reset" xlink:href="#resetDef" x="30" y="36" onmousedown="handleReset()"/>
   <use id="arrowup" xlink:href="#arrowUp" x="0" y="0" onmousedown="handlePan(0,-1)"/>
  <use id="arrowright" xlink:href="#arrowRight" x="0" y="0" onmousedown="handlePan(1,0)"/>
  <use id="arrowdown" xlink:href="#arrowDown" x="0" y="0" onmousedown="handlePan(0,1)"/>
  <use id="arrowleft" xlink:href="#arrowLeft" x="0" y="0" onmousedown="handlePan(-1,0)"/>
</g>
<svg viewBox="0 0 15 15" width="100%" height="30px" preserveAspectRatio="xMaxYMin meet">
 <g id="arrow_out" transform="scale(0.3 0.3)">
  <a xlink:href="classml_1_1maths_1_1common_1_1_c_multivariate_normal_conjugate_a0ae070da0ce5e7d52a989a5fee50f2e3_cgraph_org.svg" target="_base">
   <rect id="button" ry="5" rx="5" y="6" x="6" height="38" width="38"
        fill="#f2f5e9" fill-opacity="0.5" stroke="#606060" stroke-width="1.0"/>
   <path id="arrow"
     d="M 11.500037,31.436501 C 11.940474,20.09759 22.043105,11.32322 32.158766,21.979434 L 37.068811,17.246167 C 37.068811,17.246167 37.088388,32 37.088388,32 L 22.160133,31.978069 C 22.160133,31.978069 26.997745,27.140456 26.997745,27.140456 C 18.528582,18.264221 13.291696,25.230495 11.500037,31.436501 z"
     style="fill:#404040;"/>
  </a>
 </g>
</svg>

<style type='text/css'>
<![CDATA[
[data-mouse-over-selected='false'] { opacity: 0.7; }
[data-mouse-over-selected='true']  { opacity: 1.0; }
]]>
</style>
<script type="application/ecmascript"><![CDATA[
document.addEventListener('DOMContentLoaded', (event) => {
  highlightEdges();
  highlightAdjacentNodes();
});
]]></script>
</svg>
