<?xml version="1.0" encoding="UTF-8" standalone="no"?>
<!DOCTYPE svg PUBLIC "-//W3C//DTD SVG 1.1//EN"
 "http://www.w3.org/Graphics/SVG/1.1/DTD/svg11.dtd">
<!-- Generated by graphviz version 10.0.1 (20240210.2158)
 -->
<!-- Title: ml::maths::common::CMultivariateNormalConjugate::sampleMarginalLikelihood Pages: 1 -->
<svg width="1042pt" height="268pt"
 viewBox="0.00 0.00 1041.50 267.50" xmlns="http://www.w3.org/2000/svg" xmlns:xlink="http://www.w3.org/1999/xlink">
<g id="graph0" class="graph" transform="scale(1 1) rotate(0) translate(4 263.5)">
<title>ml::maths::common::CMultivariateNormalConjugate::sampleMarginalLikelihood</title>
<!-- Node1 -->
<g id="Node000001" class="node">
<title>Node1</title>
<g id="a_Node000001"><a xlink:title=" ">
<polygon fill="#999999" stroke="#666666" points="149.5,-151.5 0,-151.5 0,-109.75 149.5,-109.75 149.5,-151.5"/>
<text text-anchor="start" x="8" y="-138" font-family="Helvetica,sans-Serif" font-size="10.00">ml::maths::common::</text>
<text text-anchor="start" x="8" y="-126.75" font-family="Helvetica,sans-Serif" font-size="10.00">CMultivariateNormalConjugate</text>
<text text-anchor="middle" x="74.75" y="-115.5" font-family="Helvetica,sans-Serif" font-size="10.00">::sampleMarginalLikelihood</text>
</a>
</g>
</g>
<!-- Node2 -->
<g id="Node000002" class="node">
<title>Node2</title>
<g id="a_Node000002"><a xlink:href="../../dc/d70/classml_1_1maths_1_1common_1_1_c_multivariate_normal_conjugate.html#a282358c48df9393af90423cf34979d4f" target="_top" xlink:title="Check if this is a non&#45;informative prior.">
<polygon fill="white" stroke="#666666" points="350,-259.5 200.5,-259.5 200.5,-217.75 350,-217.75 350,-259.5"/>
<text text-anchor="start" x="208.5" y="-246" font-family="Helvetica,sans-Serif" font-size="10.00">ml::maths::common::</text>
<text text-anchor="start" x="208.5" y="-234.75" font-family="Helvetica,sans-Serif" font-size="10.00">CMultivariateNormalConjugate</text>
<text text-anchor="middle" x="275.25" y="-223.5" font-family="Helvetica,sans-Serif" font-size="10.00">::isNonInformative</text>
</a>
</g>
</g>
<!-- Node1&#45;&gt;Node2 -->
<g id="edge1_Node000001_Node000002" class="edge">
<title>Node1&#45;&gt;Node2</title>
<g id="a_edge1_Node000001_Node000002"><a xlink:title=" ">
<path fill="none" stroke="#63b8ff" d="M100.98,-151.82C122.39,-168.97 154.48,-192.79 185.5,-208.62 188.35,-210.08 191.29,-211.49 194.28,-212.85"/>
<polygon fill="#63b8ff" stroke="#63b8ff" points="192.68,-215.97 203.25,-216.7 195.44,-209.54 192.68,-215.97"/>
</a>
</g>
</g>
<!-- Node3 -->
<g id="Node000003" class="node">
<title>Node3</title>
<g id="a_Node000003"><a xlink:href="../../dc/d70/classml_1_1maths_1_1common_1_1_c_multivariate_normal_conjugate.html#a443affb1b42ac877baaaf89fa2da457f" target="_top" xlink:title="Get the expected mean of the marginal likelihood.">
<polygon fill="white" stroke="#666666" points="365,-199.88 185.5,-199.88 185.5,-169.38 365,-169.38 365,-199.88"/>
<text text-anchor="start" x="193.5" y="-186.38" font-family="Helvetica,sans-Serif" font-size="10.00">ml::maths::common::</text>
<text text-anchor="middle" x="275.25" y="-175.12" font-family="Helvetica,sans-Serif" font-size="10.00">CMultivariateNormalConjugate::mean</text>
</a>
</g>
</g>
<!-- Node1&#45;&gt;Node3 -->
<g id="edge2_Node000001_Node000003" class="edge">
<title>Node1&#45;&gt;Node3</title>
<g id="a_edge2_Node000001_Node000003"><a xlink:title=" ">
<path fill="none" stroke="#63b8ff" d="M149.83,-150.9C161.76,-154.16 173.97,-157.49 185.5,-160.62 191.81,-162.34 198.38,-164.12 204.96,-165.91"/>
<polygon fill="#63b8ff" stroke="#63b8ff" points="203.97,-169.27 214.54,-168.5 205.8,-162.51 203.97,-169.27"/>
</a>
</g>
</g>
<!-- Node5 -->
<g id="Node000005" class="node">
<title>Node5</title>
<g id="a_Node000005"><a xlink:href="../../d9/d0b/classml_1_1maths_1_1common_1_1_c_multivariate_prior.html#a50c918a456ffddc195707ba3b60aa6a5" target="_top" xlink:title="Get the number of samples received.">
<polygon fill="white" stroke="#666666" points="329.75,-151.5 220.75,-151.5 220.75,-109.75 329.75,-109.75 329.75,-151.5"/>
<text text-anchor="start" x="228.75" y="-138" font-family="Helvetica,sans-Serif" font-size="10.00">ml::maths::common::</text>
<text text-anchor="start" x="228.75" y="-126.75" font-family="Helvetica,sans-Serif" font-size="10.00">CMultivariatePrior::</text>
<text text-anchor="middle" x="275.25" y="-115.5" font-family="Helvetica,sans-Serif" font-size="10.00">numberSamples</text>
</a>
</g>
</g>
<!-- Node1&#45;&gt;Node5 -->
<g id="edge4_Node000001_Node000005" class="edge">
<title>Node1&#45;&gt;Node5</title>
<g id="a_edge4_Node000001_Node000005"><a xlink:title=" ">
<path fill="none" stroke="#63b8ff" d="M149.95,-130.62C169.28,-130.62 189.97,-130.62 208.81,-130.62"/>
<polygon fill="#63b8ff" stroke="#63b8ff" points="208.76,-134.13 218.76,-130.63 208.76,-127.13 208.76,-134.13"/>
</a>
</g>
</g>
<!-- Node6 -->
<g id="Node000006" class="node">
<title>Node6</title>
<g id="a_Node000006"><a xlink:href="../../d6/dd5/namespaceml_1_1maths_1_1common.html#a023c0d45a9a40d3f84c6b499527160dc" target="_top" xlink:title=" ">
<polygon fill="white" stroke="#666666" points="329.75,-91.88 220.75,-91.88 220.75,-61.38 329.75,-61.38 329.75,-91.88"/>
<text text-anchor="start" x="228.75" y="-78.38" font-family="Helvetica,sans-Serif" font-size="10.00">ml::maths::common::</text>
<text text-anchor="middle" x="275.25" y="-67.12" font-family="Helvetica,sans-Serif" font-size="10.00">sampleGaussian</text>
</a>
</g>
</g>
<!-- Node1&#45;&gt;Node6 -->
<g id="edge5_Node000001_Node000006" class="edge">
<title>Node1&#45;&gt;Node6</title>
<g id="a_edge5_Node000001_Node000006"><a xlink:title=" ">
<path fill="none" stroke="#63b8ff" d="M149.83,-110.35C161.76,-107.09 173.97,-103.76 185.5,-100.62 193.23,-98.52 201.34,-96.32 209.38,-94.14"/>
<polygon fill="#63b8ff" stroke="#63b8ff" points="210.07,-97.58 218.81,-91.59 208.24,-90.83 210.07,-97.58"/>
</a>
</g>
</g>
<!-- Node14 -->
<g id="Node000014" class="node">
<title>Node14</title>
<g id="a_Node000014"><a xlink:href="../../d6/dd5/namespaceml_1_1maths_1_1common.html#a8d5dbb77e3307e72f667c8c5ad4a53e1" target="_top" xlink:title="Scale the i&#39;th row and column by scale.">
<polygon fill="white" stroke="#666666" points="329.75,-33.88 220.75,-33.88 220.75,-3.37 329.75,-3.37 329.75,-33.88"/>
<text text-anchor="start" x="228.75" y="-20.38" font-family="Helvetica,sans-Serif" font-size="10.00">ml::maths::common::</text>
<text text-anchor="middle" x="275.25" y="-9.12" font-family="Helvetica,sans-Serif" font-size="10.00">scaleCovariances</text>
</a>
</g>
</g>
<!-- Node1&#45;&gt;Node14 -->
<g id="edge14_Node000001_Node000014" class="edge">
<title>Node1&#45;&gt;Node14</title>
<g id="a_edge14_Node000001_Node000014"><a xlink:title=" ">
<path fill="none" stroke="#63b8ff" d="M101.59,-109.42C123.09,-92.48 155.01,-68.96 185.5,-52.62 195.11,-47.48 205.66,-42.72 216.04,-38.5"/>
<polygon fill="#63b8ff" stroke="#63b8ff" points="217.31,-41.76 225.34,-34.85 214.75,-35.25 217.31,-41.76"/>
</a>
</g>
</g>
<!-- Node4 -->
<g id="Node000004" class="node">
<title>Node4</title>
<g id="a_Node000004"><a xlink:href="../../d9/d0b/classml_1_1maths_1_1common_1_1_c_multivariate_prior.html#a1cdd59c83e4751618dd40701b33e56c2" target="_top" xlink:title="Check if the prior is being used to model integer data.">
<polygon fill="white" stroke="#666666" points="517.12,-205.5 408.12,-205.5 408.12,-163.75 517.12,-163.75 517.12,-205.5"/>
<text text-anchor="start" x="416.12" y="-192" font-family="Helvetica,sans-Serif" font-size="10.00">ml::maths::common::</text>
<text text-anchor="start" x="416.12" y="-180.75" font-family="Helvetica,sans-Serif" font-size="10.00">CMultivariatePrior::</text>
<text text-anchor="middle" x="462.62" y="-169.5" font-family="Helvetica,sans-Serif" font-size="10.00">isInteger</text>
</a>
</g>
</g>
<!-- Node3&#45;&gt;Node4 -->
<g id="edge3_Node000003_Node000004" class="edge">
<title>Node3&#45;&gt;Node4</title>
<g id="a_edge3_Node000003_Node000004"><a xlink:title=" ">
<path fill="none" stroke="#63b8ff" d="M365.41,-184.62C375.81,-184.62 386.27,-184.62 396.26,-184.62"/>
<polygon fill="#63b8ff" stroke="#63b8ff" points="396.23,-188.13 406.23,-184.63 396.23,-181.13 396.23,-188.13"/>
</a>
</g>
</g>
<!-- Node7 -->
<g id="Node000007" class="node">
<title>Node7</title>
<g id="a_Node000007"><a xlink:href="../../d6/dd5/namespaceml_1_1maths_1_1common.html#a37f8b7909e617ad623600aead4cfc868" target="_top" xlink:title="Compute the distribution mean.">
<polygon fill="white" stroke="#666666" points="693.25,-110.25 560.25,-110.25 560.25,-91 693.25,-91 693.25,-110.25"/>
<text text-anchor="middle" x="626.75" y="-96.75" font-family="Helvetica,sans-Serif" font-size="10.00">ml::maths::common::mean</text>
</a>
</g>
</g>
<!-- Node6&#45;&gt;Node7 -->
<g id="edge6_Node000006_Node000007" class="edge">
<title>Node6&#45;&gt;Node7</title>
<g id="a_edge6_Node000006_Node000007"><a xlink:title=" ">
<path fill="none" stroke="#63b8ff" d="M329.96,-90.86C357.11,-97.8 387.17,-104.99 401,-106.62 455.4,-113.07 469.5,-108.24 524.25,-106.62 532.2,-106.39 540.49,-106.05 548.76,-105.66"/>
<polygon fill="#63b8ff" stroke="#63b8ff" points="548.66,-109.16 558.47,-105.16 548.31,-102.17 548.66,-109.16"/>
</a>
</g>
</g>
<!-- Node13 -->
<g id="Node000013" class="node">
<title>Node13</title>
<g id="a_Node000013"><a xlink:href="../../d6/d1b/namespaceml_1_1maths_1_1common_1_1linear__algebra__tools__detail.html#aa6705f8255aa8a933960294fff3caa56" target="_top" xlink:title=" ">
<polygon fill="white" stroke="#666666" points="524.25,-97.5 401,-97.5 401,-55.75 524.25,-55.75 524.25,-97.5"/>
<text text-anchor="start" x="409" y="-84" font-family="Helvetica,sans-Serif" font-size="10.00">ml::maths::common::</text>
<text text-anchor="start" x="409" y="-72.75" font-family="Helvetica,sans-Serif" font-size="10.00">linear_algebra_tools</text>
<text text-anchor="middle" x="462.62" y="-61.5" font-family="Helvetica,sans-Serif" font-size="10.00">_detail::sampleGaussian</text>
</a>
</g>
</g>
<!-- Node6&#45;&gt;Node13 -->
<g id="edge12_Node000006_Node000013" class="edge">
<title>Node6&#45;&gt;Node13</title>
<g id="a_edge12_Node000006_Node000013"><a xlink:title=" ">
<path fill="none" stroke="#63b8ff" d="M329.87,-76.62C348.37,-76.62 369.42,-76.62 389.17,-76.62"/>
<polygon fill="#63b8ff" stroke="#63b8ff" points="389.11,-80.13 399.11,-76.63 389.11,-73.13 389.11,-80.13"/>
</a>
</g>
</g>
<!-- Node8 -->
<g id="Node000008" class="node">
<title>Node8</title>
<g id="a_Node000008"><a xlink:href="../../d6/dd5/namespaceml_1_1maths_1_1common.html#aa139fb07823365e51bd2f01178d7a61a" target="_top" xlink:title="Compute the mode for distribution.">
<polygon fill="white" stroke="#666666" points="862.25,-110.25 729.25,-110.25 729.25,-91 862.25,-91 862.25,-110.25"/>
<text text-anchor="middle" x="795.75" y="-96.75" font-family="Helvetica,sans-Serif" font-size="10.00">ml::maths::common::mode</text>
</a>
</g>
</g>
<!-- Node7&#45;&gt;Node8 -->
<g id="edge7_Node000007_Node000008" class="edge">
<title>Node7&#45;&gt;Node8</title>
<g id="a_edge7_Node000007_Node000008"><a xlink:title=" ">
<path fill="none" stroke="#63b8ff" d="M693.27,-100.62C701.22,-100.62 709.4,-100.62 717.5,-100.62"/>
<polygon fill="#63b8ff" stroke="#63b8ff" points="717.35,-104.13 727.35,-100.63 717.35,-97.13 717.35,-104.13"/>
</a>
</g>
</g>
<!-- Node9 -->
<g id="Node000009" class="node">
<title>Node9</title>
<g id="a_Node000009"><a xlink:href="../../d0/d1c/classml_1_1maths_1_1common_1_1_c_log_t_distribution.html#a128ce0a627956e7931be0358fe995d2d" target="_top" xlink:title=" ">
<polygon fill="white" stroke="#666666" points="1033.5,-200.5 898.25,-200.5 898.25,-158.75 1033.5,-158.75 1033.5,-200.5"/>
<text text-anchor="start" x="906.25" y="-187" font-family="Helvetica,sans-Serif" font-size="10.00">ml::maths::common::</text>
<text text-anchor="start" x="906.25" y="-175.75" font-family="Helvetica,sans-Serif" font-size="10.00">CLogTDistribution::degrees</text>
<text text-anchor="middle" x="965.88" y="-164.5" font-family="Helvetica,sans-Serif" font-size="10.00">Freedom</text>
</a>
</g>
</g>
<!-- Node8&#45;&gt;Node9 -->
<g id="edge8_Node000008_Node000009" class="edge">
<title>Node8&#45;&gt;Node9</title>
<g id="a_edge8_Node000008_Node000009"><a xlink:title=" ">
<path fill="none" stroke="#63b8ff" d="M817.28,-110.73C837.73,-120.76 870.05,-136.47 898.25,-149.62 901.01,-150.91 903.84,-152.22 906.7,-153.54"/>
<polygon fill="#63b8ff" stroke="#63b8ff" points="905.2,-156.7 915.75,-157.68 908.12,-150.34 905.2,-156.7"/>
</a>
</g>
</g>
<!-- Node10 -->
<g id="Node000010" class="node">
<title>Node10</title>
<g id="a_Node000010"><a xlink:href="../../d0/d1c/classml_1_1maths_1_1common_1_1_c_log_t_distribution.html#a4267908e2f6c547fd21f75a77f6bee78" target="_top" xlink:title=" ">
<polygon fill="white" stroke="#666666" points="1033.12,-140.88 898.62,-140.88 898.62,-110.38 1033.12,-110.38 1033.12,-140.88"/>
<text text-anchor="start" x="906.62" y="-127.38" font-family="Helvetica,sans-Serif" font-size="10.00">ml::maths::common::</text>
<text text-anchor="middle" x="965.88" y="-116.12" font-family="Helvetica,sans-Serif" font-size="10.00">CLogTDistribution::location</text>
</a>
</g>
</g>
<!-- Node8&#45;&gt;Node10 -->
<g id="edge9_Node000008_Node000010" class="edge">
<title>Node8&#45;&gt;Node10</title>
<g id="a_edge9_Node000008_Node000010"><a xlink:title=" ">
<path fill="none" stroke="#63b8ff" d="M862.71,-110.43C870.66,-111.61 878.82,-112.83 886.91,-114.03"/>
<polygon fill="#63b8ff" stroke="#63b8ff" points="886.37,-117.49 896.77,-115.5 887.4,-110.57 886.37,-117.49"/>
</a>
</g>
</g>
<!-- Node11 -->
<g id="Node000011" class="node">
<title>Node11</title>
<g id="a_Node000011"><a xlink:href="../../dd/d55/classml_1_1maths_1_1common_1_1_c_tools.html#aa0600053da91719428498ec9968916c3" target="_top" xlink:title="Compute .">
<polygon fill="white" stroke="#666666" points="1020.38,-91.88 911.38,-91.88 911.38,-61.38 1020.38,-61.38 1020.38,-91.88"/>
<text text-anchor="start" x="919.38" y="-78.38" font-family="Helvetica,sans-Serif" font-size="10.00">ml::maths::common::</text>
<text text-anchor="middle" x="965.88" y="-67.12" font-family="Helvetica,sans-Serif" font-size="10.00">CTools::pow2</text>
</a>
</g>
</g>
<!-- Node8&#45;&gt;Node11 -->
<g id="edge10_Node000008_Node000011" class="edge">
<title>Node8&#45;&gt;Node11</title>
<g id="a_edge10_Node000008_Node000011"><a xlink:title=" ">
<path fill="none" stroke="#63b8ff" d="M862.71,-91.21C874.97,-89.46 887.76,-87.63 899.99,-85.89"/>
<polygon fill="#63b8ff" stroke="#63b8ff" points="900.12,-89.4 909.52,-84.53 899.13,-82.48 900.12,-89.4"/>
</a>
</g>
</g>
<!-- Node12 -->
<g id="Node000012" class="node">
<title>Node12</title>
<g id="a_Node000012"><a xlink:href="../../d0/d1c/classml_1_1maths_1_1common_1_1_c_log_t_distribution.html#a8f03f27080a2f59d3da535b4b4f228ef" target="_top" xlink:title=" ">
<polygon fill="white" stroke="#666666" points="1027.88,-42.88 903.88,-42.88 903.88,-12.37 1027.88,-12.37 1027.88,-42.88"/>
<text text-anchor="start" x="911.88" y="-29.38" font-family="Helvetica,sans-Serif" font-size="10.00">ml::maths::common::</text>
<text text-anchor="middle" x="965.88" y="-18.12" font-family="Helvetica,sans-Serif" font-size="10.00">CLogTDistribution::scale</text>
</a>
</g>
</g>
<!-- Node8&#45;&gt;Node12 -->
<g id="edge11_Node000008_Node000012" class="edge">
<title>Node8&#45;&gt;Node12</title>
<g id="a_edge11_Node000008_Node000012"><a xlink:title=" ">
<path fill="none" stroke="#63b8ff" d="M816.75,-90.57C837.06,-80.49 869.53,-64.78 898.25,-52.62 902.36,-50.89 906.63,-49.14 910.94,-47.43"/>
<polygon fill="#63b8ff" stroke="#63b8ff" points="912.21,-50.69 920.25,-43.8 909.66,-44.17 912.21,-50.69"/>
</a>
</g>
</g>
<!-- Node13&#45;&gt;Node7 -->
<g id="edge13_Node000013_Node000007" class="edge">
<title>Node13&#45;&gt;Node7</title>
<g id="a_edge13_Node000013_Node000007"><a xlink:title=" ">
<path fill="none" stroke="#63b8ff" d="M524.46,-85.63C532.33,-86.8 540.48,-88 548.58,-89.2"/>
<polygon fill="#63b8ff" stroke="#63b8ff" points="548.06,-92.66 558.47,-90.66 549.09,-85.74 548.06,-92.66"/>
</a>
</g>
</g>
<!-- Node15 -->
<g id="Node000015" class="node">
<title>Node15</title>
<g id="a_Node000015"><a xlink:href="../../d4/da6/namespaceml.html#ad281564c6956f9a94ad02cfd663d150d" target="_top" xlink:title="Scales time input to generator.">
<polygon fill="white" stroke="#666666" points="490.5,-19.25 434.75,-19.25 434.75,0 490.5,0 490.5,-19.25"/>
<text text-anchor="middle" x="462.62" y="-5.75" font-family="Helvetica,sans-Serif" font-size="10.00">ml::scale</text>
</a>
</g>
</g>
<!-- Node14&#45;&gt;Node15 -->
<g id="edge15_Node000014_Node000015" class="edge">
<title>Node14&#45;&gt;Node15</title>
<g id="a_edge15_Node000014_Node000015"><a xlink:title=" ">
<path fill="none" stroke="#63b8ff" d="M329.87,-16.02C359.67,-14.57 396.08,-12.81 423.06,-11.5"/>
<polygon fill="#63b8ff" stroke="#63b8ff" points="423.04,-15 432.86,-11.02 422.7,-8.01 423.04,-15"/>
</a>
</g>
</g>
<!-- Node15&#45;&gt;Node15 -->
<g id="edge16_Node000015_Node000015" class="edge">
<title>Node15&#45;&gt;Node15</title>
<g id="a_edge16_Node000015_Node000015"><a xlink:title=" ">
<path fill="none" stroke="#63b8ff" d="M436.93,-19.54C425.21,-28.15 433.77,-37.25 462.62,-37.25 478.85,-37.25 488.66,-34.37 492.05,-30.32"/>
<polygon fill="#63b8ff" stroke="#63b8ff" points="495.4,-29.27 488.82,-20.97 488.78,-31.56 495.4,-29.27"/>
</a>
</g>
</g>
</g>
</svg>
