<?xml version="1.0" encoding="UTF-8" standalone="no"?>
<!DOCTYPE svg PUBLIC "-//W3C//DTD SVG 1.1//EN"
 "http://www.w3.org/Graphics/SVG/1.1/DTD/svg11.dtd">
<!-- Generated by graphviz version 10.0.1 (20240210.2158)
 -->
<!-- Title: ml::maths::common::CMultivariateNormalConjugate::randomSamplePrecisionMatrixPrior Pages: 1 -->
<!--zoomable 334 -->

<svg id="main" version="1.1" xmlns="http://www.w3.org/2000/svg" xmlns:xlink="http://www.w3.org/1999/xlink" xml:space="preserve" onload="init(evt)">
<style type="text/css"><![CDATA[
.node, .edge {opacity: 0.7;}
.node.selected, .edge.selected {opacity: 1;}
.edge:hover path { stroke: red; }
.edge:hover polygon { stroke: red; fill: red; }
]]></style>

<defs>
  <circle id="rim" cx="0" cy="0" r="7"/>
  <circle id="rim2" cx="0" cy="0" r="3.5"/>
  <g id="zoomPlus">
    <use xlink:href="#rim" fill="#404040"><set attributeName="fill" to="#808080" begin="zoomplus.mouseover" end="zoomplus.mouseout"/></use>
    <path d="M-4,0h8M0,-4v8" fill="none" stroke="white" stroke-width="1.5" pointer-events="none"/>
  </g>
  <g id="zoomMin">
    <use xlink:href="#rim" fill="#404040"><set attributeName="fill" to="#808080" begin="zoomminus.mouseover" end="zoomminus.mouseout"/></use>
    <path d="M-4,0h8" fill="none" stroke="white" stroke-width="1.5" pointer-events="none"/>
  </g>
  <g id="arrowUp" transform="translate(30 24)">
    <use xlink:href="#rim"/>
    <path pointer-events="none" fill="none" stroke="white" stroke-width="1.5" d="M0,-3.0v7 M-2.5,-0.5L0,-3.0L2.5,-0.5"/>
  </g>
  <g id="arrowRight" transform="rotate(90) translate(36 -43)">
    <use xlink:href="#rim"/>
    <path pointer-events="none" fill="none" stroke="white" stroke-width="1.5" d="M0,-3.0v7 M-2.5,-0.5L0,-3.0L2.5,-0.5"/>
  </g>
  <g id="arrowDown" transform="rotate(180) translate(-30 -48)">
    <use xlink:href="#rim"/>
    <path pointer-events="none" fill="none" stroke="white" stroke-width="1.5" d="M0,-3.0v7 M-2.5,-0.5L0,-3.0L2.5,-0.5"/>
  </g>
  <g id="arrowLeft" transform="rotate(270) translate(-36 17)">
    <use xlink:href="#rim"/>
    <path pointer-events="none" fill="none" stroke="white" stroke-width="1.5" d="M0,-3.0v7 M-2.5,-0.5L0,-3.0L2.5,-0.5"/>
  </g>
  <g id="resetDef">
    <use xlink:href="#rim2" fill="#404040"><set attributeName="fill" to="#808080" begin="reset.mouseover" end="reset.mouseout"/></use>
  </g>
</defs>
<script type="application/ecmascript">
var viewWidth = 897;
var viewHeight = 334;
var sectionId = 'dynsection-46';
</script>
<script type="application/ecmascript" xlink:href="../../svg.min.js"/>
<svg id="graph" class="graph">
<g id="viewport">
<title>ml::maths::common::CMultivariateNormalConjugate::randomSamplePrecisionMatrixPrior</title>
<!-- Node1 -->
<g id="Node000001" class="node">
<title>Node1</title>
<g id="a_Node000001"><a xlink:title="Randomly sample the covariance matrix prior.">
<polygon fill="#999999" stroke="#666666" points="175,-214.12 0,-214.12 0,-172.38 175,-172.38 175,-214.12"/>
<text text-anchor="start" x="8" y="-200.62" font-family="Helvetica,sans-Serif" font-size="10.00">ml::maths::common::</text>
<text text-anchor="start" x="8" y="-189.38" font-family="Helvetica,sans-Serif" font-size="10.00">CMultivariateNormalConjugate</text>
<text text-anchor="middle" x="87.5" y="-178.12" font-family="Helvetica,sans-Serif" font-size="10.00">::randomSamplePrecisionMatrixPrior</text>
</a>
</g>
</g>
<!-- Node2 -->
<g id="Node000002" class="node">
<title>Node2</title>
<g id="a_Node000002"><a xlink:href="../../d3/d93/classml_1_1maths_1_1common_1_1_c_sampling.html#aafa64b0571cf954cecd05e1a7fa2947b" target="_top" xlink:title=" ">
<polygon fill="white" stroke="#666666" points="362.75,-325.5 211,-325.5 211,-295 362.75,-295 362.75,-325.5"/>
<text text-anchor="start" x="219" y="-312" font-family="Helvetica,sans-Serif" font-size="10.00">ml::maths::common::</text>
<text text-anchor="middle" x="286.88" y="-300.75" font-family="Helvetica,sans-Serif" font-size="10.00">CSampling::chiSquaredSample</text>
</a>
</g>
</g>
<!-- Node1&#45;&gt;Node2 -->
<g id="edge1_Node000001_Node000002" class="edge">
<title>Node1&#45;&gt;Node2</title>
<g id="a_edge1_Node000001_Node000002"><a xlink:title=" ">
<path fill="none" stroke="#63b8ff" d="M113.99,-214.51C137.93,-233.74 175.31,-261.93 211,-281.25 216.81,-284.4 223.04,-287.37 229.33,-290.13"/>
<polygon fill="#63b8ff" stroke="#63b8ff" points="227.94,-293.34 238.51,-293.98 230.64,-286.89 227.94,-293.34"/>
</a>
</g>
</g>
<!-- Node3 -->
<g id="Node000003" class="node">
<title>Node3</title>
<g id="a_Node000003"><a xlink:href="../../d6/dd5/namespaceml_1_1maths_1_1common.html#a34bef9485ad1614fd6e15739fb080937" target="_top" xlink:title=" ">
<polygon fill="white" stroke="#666666" points="528,-278.5 419,-278.5 419,-248 528,-248 528,-278.5"/>
<text text-anchor="start" x="427" y="-265" font-family="Helvetica,sans-Serif" font-size="10.00">ml::maths::common::</text>
<text text-anchor="middle" x="473.5" y="-253.75" font-family="Helvetica,sans-Serif" font-size="10.00">fromDenseMatrix</text>
</a>
</g>
</g>
<!-- Node1&#45;&gt;Node3 -->
<g id="edge2_Node000001_Node000003" class="edge">
<title>Node1&#45;&gt;Node3</title>
<g id="a_edge2_Node000001_Node000003"><a xlink:title=" ">
<path fill="none" stroke="#63b8ff" d="M126.38,-214.6C149.95,-226.77 181.33,-241 211,-248.25 276.44,-264.24 353.7,-266.75 407.19,-266.02"/>
<polygon fill="#63b8ff" stroke="#63b8ff" points="407.12,-269.52 417.06,-265.84 407,-262.52 407.12,-269.52"/>
</a>
</g>
</g>
<!-- Node5 -->
<g id="Node000005" class="node">
<title>Node5</title>
<g id="a_Node000005"><a xlink:href="../../dc/d70/classml_1_1maths_1_1common_1_1_c_multivariate_normal_conjugate.html#a282358c48df9393af90423cf34979d4f" target="_top" xlink:title="Check if this is a non&#45;informative prior.">
<polygon fill="white" stroke="#666666" points="548.25,-227.12 398.75,-227.12 398.75,-185.38 548.25,-185.38 548.25,-227.12"/>
<text text-anchor="start" x="406.75" y="-213.62" font-family="Helvetica,sans-Serif" font-size="10.00">ml::maths::common::</text>
<text text-anchor="start" x="406.75" y="-202.38" font-family="Helvetica,sans-Serif" font-size="10.00">CMultivariateNormalConjugate</text>
<text text-anchor="middle" x="473.5" y="-191.12" font-family="Helvetica,sans-Serif" font-size="10.00">::isNonInformative</text>
</a>
</g>
</g>
<!-- Node1&#45;&gt;Node5 -->
<g id="edge4_Node000001_Node000005" class="edge">
<title>Node1&#45;&gt;Node5</title>
<g id="a_edge4_Node000001_Node000005"><a xlink:title=" ">
<path fill="none" stroke="#63b8ff" d="M175.41,-187.26C229.41,-184.63 300.22,-183.16 362.75,-188.25 370.69,-188.9 378.92,-189.8 387.14,-190.87"/>
<polygon fill="#63b8ff" stroke="#63b8ff" points="386.43,-194.3 396.82,-192.2 387.39,-187.37 386.43,-194.3"/>
</a>
</g>
</g>
<!-- Node6 -->
<g id="Node000006" class="node">
<title>Node6</title>
<g id="a_Node000006"><a xlink:href="../../d3/d93/classml_1_1maths_1_1common_1_1_c_sampling.html#acdaa76bc07ddbc929d93e35ab4ff1bcf" target="_top" xlink:title=" ">
<polygon fill="white" stroke="#666666" points="353,-103.5 220.75,-103.5 220.75,-73 353,-73 353,-103.5"/>
<text text-anchor="start" x="228.75" y="-90" font-family="Helvetica,sans-Serif" font-size="10.00">ml::maths::common::</text>
<text text-anchor="middle" x="286.88" y="-78.75" font-family="Helvetica,sans-Serif" font-size="10.00">CSampling::normalSample</text>
</a>
</g>
</g>
<!-- Node1&#45;&gt;Node6 -->
<g id="edge5_Node000001_Node000006" class="edge">
<title>Node1&#45;&gt;Node6</title>
<g id="a_edge5_Node000001_Node000006"><a xlink:title=" ">
<path fill="none" stroke="#63b8ff" d="M119.3,-171.91C143.53,-155.67 178.52,-133.44 211,-117.25 217.3,-114.11 224.04,-111.08 230.78,-108.23"/>
<polygon fill="#63b8ff" stroke="#63b8ff" points="231.99,-111.52 239.94,-104.51 229.35,-105.04 231.99,-111.52"/>
</a>
</g>
</g>
<!-- Node13 -->
<g id="Node000013" class="node">
<title>Node13</title>
<g id="a_Node000013"><a xlink:href="../../dc/d70/classml_1_1maths_1_1common_1_1_c_multivariate_normal_conjugate.html#ad453c7cd345c0a5db00cc693e60f232f" target="_top" xlink:title="Get the expected precision matrix of the marginal likelhood.">
<polygon fill="white" stroke="#666666" points="361.62,-239.12 212.12,-239.12 212.12,-197.38 361.62,-197.38 361.62,-239.12"/>
<text text-anchor="start" x="220.12" y="-225.62" font-family="Helvetica,sans-Serif" font-size="10.00">ml::maths::common::</text>
<text text-anchor="start" x="220.12" y="-214.38" font-family="Helvetica,sans-Serif" font-size="10.00">CMultivariateNormalConjugate</text>
<text text-anchor="middle" x="286.88" y="-203.12" font-family="Helvetica,sans-Serif" font-size="10.00">::precision</text>
</a>
</g>
</g>
<!-- Node1&#45;&gt;Node13 -->
<g id="edge12_Node000001_Node000013" class="edge">
<title>Node1&#45;&gt;Node13</title>
<g id="a_edge12_Node000001_Node000013"><a xlink:title=" ">
<path fill="none" stroke="#63b8ff" d="M175.36,-204.25C183.68,-205.31 192.11,-206.37 200.42,-207.43"/>
<polygon fill="#63b8ff" stroke="#63b8ff" points="199.78,-210.87 210.14,-208.66 200.66,-203.93 199.78,-210.87"/>
</a>
</g>
</g>
<!-- Node14 -->
<g id="Node000014" class="node">
<title>Node14</title>
<g id="a_Node000014"><a xlink:href="../../d6/dd5/namespaceml_1_1maths_1_1common.html#a1c40333c5d651a6df33cd4dd72b390b5" target="_top" xlink:title="Get the Eigen matrix for matrix.">
<polygon fill="white" stroke="#666666" points="528,-160.5 419,-160.5 419,-130 528,-130 528,-160.5"/>
<text text-anchor="start" x="427" y="-147" font-family="Helvetica,sans-Serif" font-size="10.00">ml::maths::common::</text>
<text text-anchor="middle" x="473.5" y="-135.75" font-family="Helvetica,sans-Serif" font-size="10.00">toDenseMatrix</text>
</a>
</g>
</g>
<!-- Node1&#45;&gt;Node14 -->
<g id="edge16_Node000001_Node000014" class="edge">
<title>Node1&#45;&gt;Node14</title>
<g id="a_edge16_Node000001_Node000014"><a xlink:title=" ">
<path fill="none" stroke="#63b8ff" d="M175.16,-182.42C245.69,-173.6 343.69,-161.35 407.59,-153.36"/>
<polygon fill="#63b8ff" stroke="#63b8ff" points="407.73,-156.87 417.22,-152.16 406.86,-149.93 407.73,-156.87"/>
</a>
</g>
</g>
<!-- Node4 -->
<g id="Node000004" class="node">
<title>Node4</title>
<g id="a_Node000004"><a xlink:href="../../d3/d2e/private_8h.html#a1c6de65cc31c36fe2ede0d438531d327" target="_top" xlink:title=" ">
<polygon fill="white" stroke="#666666" points="668.12,-272.88 633.38,-272.88 633.38,-253.62 668.12,-253.62 668.12,-272.88"/>
<text text-anchor="middle" x="650.75" y="-259.38" font-family="Helvetica,sans-Serif" font-size="10.00">type</text>
</a>
</g>
</g>
<!-- Node3&#45;&gt;Node4 -->
<g id="edge3_Node000003_Node000004" class="edge">
<title>Node3&#45;&gt;Node4</title>
<g id="a_edge3_Node000003_Node000004"><a xlink:title=" ">
<path fill="none" stroke="#63b8ff" d="M528.03,-263.25C559,-263.25 596.7,-263.25 621.86,-263.25"/>
<polygon fill="#63b8ff" stroke="#63b8ff" points="621.61,-266.75 631.61,-263.25 621.61,-259.75 621.61,-266.75"/>
</a>
</g>
</g>
<!-- Node7 -->
<g id="Node000007" class="node">
<title>Node7</title>
<g id="a_Node000007"><a xlink:href="../../d6/dd5/namespaceml_1_1maths_1_1common.html#a37f8b7909e617ad623600aead4cfc868" target="_top" xlink:title="Compute the distribution mean.">
<polygon fill="white" stroke="#666666" points="540,-97.88 407,-97.88 407,-78.62 540,-78.62 540,-97.88"/>
<text text-anchor="middle" x="473.5" y="-84.38" font-family="Helvetica,sans-Serif" font-size="10.00">ml::maths::common::mean</text>
</a>
</g>
</g>
<!-- Node6&#45;&gt;Node7 -->
<g id="edge6_Node000006_Node000007" class="edge">
<title>Node6&#45;&gt;Node7</title>
<g id="a_edge6_Node000006_Node000007"><a xlink:title=" ">
<path fill="none" stroke="#63b8ff" d="M353.49,-88.25C367.14,-88.25 381.66,-88.25 395.68,-88.25"/>
<polygon fill="#63b8ff" stroke="#63b8ff" points="395.28,-91.75 405.28,-88.25 395.28,-84.75 395.28,-91.75"/>
</a>
</g>
</g>
<!-- Node8 -->
<g id="Node000008" class="node">
<title>Node8</title>
<g id="a_Node000008"><a xlink:href="../../d6/dd5/namespaceml_1_1maths_1_1common.html#aa139fb07823365e51bd2f01178d7a61a" target="_top" xlink:title="Compute the mode for distribution.">
<polygon fill="white" stroke="#666666" points="717.25,-97.88 584.25,-97.88 584.25,-78.62 717.25,-78.62 717.25,-97.88"/>
<text text-anchor="middle" x="650.75" y="-84.38" font-family="Helvetica,sans-Serif" font-size="10.00">ml::maths::common::mode</text>
</a>
</g>
</g>
<!-- Node7&#45;&gt;Node8 -->
<g id="edge7_Node000007_Node000008" class="edge">
<title>Node7&#45;&gt;Node8</title>
<g id="a_edge7_Node000007_Node000008"><a xlink:title=" ">
<path fill="none" stroke="#63b8ff" d="M540.26,-88.25C550.85,-88.25 561.9,-88.25 572.74,-88.25"/>
<polygon fill="#63b8ff" stroke="#63b8ff" points="572.4,-91.75 582.4,-88.25 572.4,-84.75 572.4,-91.75"/>
</a>
</g>
</g>
<!-- Node9 -->
<g id="Node000009" class="node">
<title>Node9</title>
<g id="a_Node000009"><a xlink:href="../../d0/d1c/classml_1_1maths_1_1common_1_1_c_log_t_distribution.html#a128ce0a627956e7931be0358fe995d2d" target="_top" xlink:title=" ">
<polygon fill="white" stroke="#666666" points="888.5,-188.12 753.25,-188.12 753.25,-146.38 888.5,-146.38 888.5,-188.12"/>
<text text-anchor="start" x="761.25" y="-174.62" font-family="Helvetica,sans-Serif" font-size="10.00">ml::maths::common::</text>
<text text-anchor="start" x="761.25" y="-163.38" font-family="Helvetica,sans-Serif" font-size="10.00">CLogTDistribution::degrees</text>
<text text-anchor="middle" x="820.88" y="-152.12" font-family="Helvetica,sans-Serif" font-size="10.00">Freedom</text>
</a>
</g>
</g>
<!-- Node8&#45;&gt;Node9 -->
<g id="edge8_Node000008_Node000009" class="edge">
<title>Node8&#45;&gt;Node9</title>
<g id="a_edge8_Node000008_Node000009"><a xlink:title=" ">
<path fill="none" stroke="#63b8ff" d="M672.28,-98.36C692.73,-108.38 725.05,-124.1 753.25,-137.25 756.01,-138.54 758.84,-139.85 761.7,-141.16"/>
<polygon fill="#63b8ff" stroke="#63b8ff" points="760.2,-144.33 770.75,-145.31 763.12,-137.96 760.2,-144.33"/>
</a>
</g>
</g>
<!-- Node10 -->
<g id="Node000010" class="node">
<title>Node10</title>
<g id="a_Node000010"><a xlink:href="../../d0/d1c/classml_1_1maths_1_1common_1_1_c_log_t_distribution.html#a4267908e2f6c547fd21f75a77f6bee78" target="_top" xlink:title=" ">
<polygon fill="white" stroke="#666666" points="888.12,-128.5 753.62,-128.5 753.62,-98 888.12,-98 888.12,-128.5"/>
<text text-anchor="start" x="761.62" y="-115" font-family="Helvetica,sans-Serif" font-size="10.00">ml::maths::common::</text>
<text text-anchor="middle" x="820.88" y="-103.75" font-family="Helvetica,sans-Serif" font-size="10.00">CLogTDistribution::location</text>
</a>
</g>
</g>
<!-- Node8&#45;&gt;Node10 -->
<g id="edge9_Node000008_Node000010" class="edge">
<title>Node8&#45;&gt;Node10</title>
<g id="a_edge9_Node000008_Node000010"><a xlink:title=" ">
<path fill="none" stroke="#63b8ff" d="M717.71,-98.06C725.66,-99.24 733.82,-100.45 741.91,-101.66"/>
<polygon fill="#63b8ff" stroke="#63b8ff" points="741.37,-105.11 751.77,-103.12 742.4,-98.19 741.37,-105.11"/>
</a>
</g>
</g>
<!-- Node11 -->
<g id="Node000011" class="node">
<title>Node11</title>
<g id="a_Node000011"><a xlink:href="../../dd/d55/classml_1_1maths_1_1common_1_1_c_tools.html#aa0600053da91719428498ec9968916c3" target="_top" xlink:title="Compute .">
<polygon fill="white" stroke="#666666" points="875.38,-79.5 766.38,-79.5 766.38,-49 875.38,-49 875.38,-79.5"/>
<text text-anchor="start" x="774.38" y="-66" font-family="Helvetica,sans-Serif" font-size="10.00">ml::maths::common::</text>
<text text-anchor="middle" x="820.88" y="-54.75" font-family="Helvetica,sans-Serif" font-size="10.00">CTools::pow2</text>
</a>
</g>
</g>
<!-- Node8&#45;&gt;Node11 -->
<g id="edge10_Node000008_Node000011" class="edge">
<title>Node8&#45;&gt;Node11</title>
<g id="a_edge10_Node000008_Node000011"><a xlink:title=" ">
<path fill="none" stroke="#63b8ff" d="M717.71,-78.83C729.97,-77.08 742.76,-75.26 754.99,-73.51"/>
<polygon fill="#63b8ff" stroke="#63b8ff" points="755.12,-77.03 764.52,-72.15 754.13,-70.1 755.12,-77.03"/>
</a>
</g>
</g>
<!-- Node12 -->
<g id="Node000012" class="node">
<title>Node12</title>
<g id="a_Node000012"><a xlink:href="../../d0/d1c/classml_1_1maths_1_1common_1_1_c_log_t_distribution.html#a8f03f27080a2f59d3da535b4b4f228ef" target="_top" xlink:title=" ">
<polygon fill="white" stroke="#666666" points="882.88,-30.5 758.88,-30.5 758.88,0 882.88,0 882.88,-30.5"/>
<text text-anchor="start" x="766.88" y="-17" font-family="Helvetica,sans-Serif" font-size="10.00">ml::maths::common::</text>
<text text-anchor="middle" x="820.88" y="-5.75" font-family="Helvetica,sans-Serif" font-size="10.00">CLogTDistribution::scale</text>
</a>
</g>
</g>
<!-- Node8&#45;&gt;Node12 -->
<g id="edge11_Node000008_Node000012" class="edge">
<title>Node8&#45;&gt;Node12</title>
<g id="a_edge11_Node000008_Node000012"><a xlink:title=" ">
<path fill="none" stroke="#63b8ff" d="M671.75,-78.19C692.06,-68.12 724.53,-52.41 753.25,-40.25 757.36,-38.51 761.63,-36.77 765.94,-35.05"/>
<polygon fill="#63b8ff" stroke="#63b8ff" points="767.21,-38.32 775.25,-31.42 764.66,-31.79 767.21,-38.32"/>
</a>
</g>
</g>
<!-- Node13&#45;&gt;Node3 -->
<g id="edge13_Node000013_Node000003" class="edge">
<title>Node13&#45;&gt;Node3</title>
<g id="a_edge13_Node000013_Node000003"><a xlink:title=" ">
<path fill="none" stroke="#63b8ff" d="M361.91,-236.29C377.01,-239.98 392.8,-243.83 407.57,-247.42"/>
<polygon fill="#63b8ff" stroke="#63b8ff" points="406.61,-250.79 417.16,-249.76 408.27,-243.99 406.61,-250.79"/>
</a>
</g>
</g>
<!-- Node13&#45;&gt;Node5 -->
<g id="edge14_Node000013_Node000005" class="edge">
<title>Node13&#45;&gt;Node5</title>
<g id="a_edge14_Node000013_Node000005"><a xlink:title=" ">
<path fill="none" stroke="#63b8ff" d="M361.91,-213.44C370.18,-212.9 378.66,-212.35 387.07,-211.8"/>
<polygon fill="#63b8ff" stroke="#63b8ff" points="387.19,-215.3 396.94,-211.16 386.74,-208.32 387.19,-215.3"/>
</a>
</g>
</g>
<!-- Node13&#45;&gt;Node14 -->
<g id="edge15_Node000013_Node000014" class="edge">
<title>Node13&#45;&gt;Node14</title>
<g id="a_edge15_Node000013_Node000014"><a xlink:title=" ">
<path fill="none" stroke="#63b8ff" d="M341.77,-196.94C367.18,-186.89 397.3,-174.98 422.23,-165.13"/>
<polygon fill="#63b8ff" stroke="#63b8ff" points="423.5,-168.39 431.52,-161.45 420.93,-161.88 423.5,-168.39"/>
</a>
</g>
</g>
</g>
</svg>

<g id="navigator" transform="translate(0 0)" fill="#404254">
  <rect fill="#f2f5e9" fill-opacity="0.5" stroke="#606060" stroke-width=".5" x="0" y="0" width="60" height="60"/>
  <use id="zoomplus" xlink:href="#zoomPlus" x="17" y="9" onmousedown="handleZoom(evt,'in')"/>
  <use id="zoomminus" xlink:href="#zoomMin" x="42" y="9" onmousedown="handleZoom(evt,'out')"/>
  <use id="reset" xlink:href="#resetDef" x="30" y="36" onmousedown="handleReset()"/>
   <use id="arrowup" xlink:href="#arrowUp" x="0" y="0" onmousedown="handlePan(0,-1)"/>
  <use id="arrowright" xlink:href="#arrowRight" x="0" y="0" onmousedown="handlePan(1,0)"/>
  <use id="arrowdown" xlink:href="#arrowDown" x="0" y="0" onmousedown="handlePan(0,1)"/>
  <use id="arrowleft" xlink:href="#arrowLeft" x="0" y="0" onmousedown="handlePan(-1,0)"/>
</g>
<svg viewBox="0 0 15 15" width="100%" height="30px" preserveAspectRatio="xMaxYMin meet">
 <g id="arrow_out" transform="scale(0.3 0.3)">
  <a xlink:href="classml_1_1maths_1_1common_1_1_c_multivariate_normal_conjugate_ac6fe9c56bac4ebdcf0aa1b22e3c73e71_cgraph_org.svg" target="_base">
   <rect id="button" ry="5" rx="5" y="6" x="6" height="38" width="38"
        fill="#f2f5e9" fill-opacity="0.5" stroke="#606060" stroke-width="1.0"/>
   <path id="arrow"
     d="M 11.500037,31.436501 C 11.940474,20.09759 22.043105,11.32322 32.158766,21.979434 L 37.068811,17.246167 C 37.068811,17.246167 37.088388,32 37.088388,32 L 22.160133,31.978069 C 22.160133,31.978069 26.997745,27.140456 26.997745,27.140456 C 18.528582,18.264221 13.291696,25.230495 11.500037,31.436501 z"
     style="fill:#404040;"/>
  </a>
 </g>
</svg>

<style type='text/css'>
<![CDATA[
[data-mouse-over-selected='false'] { opacity: 0.7; }
[data-mouse-over-selected='true']  { opacity: 1.0; }
]]>
</style>
<script type="application/ecmascript"><![CDATA[
document.addEventListener('DOMContentLoaded', (event) => {
  highlightEdges();
  highlightAdjacentNodes();
});
]]></script>
</svg>
