<?xml version="1.0" encoding="UTF-8" standalone="no"?>
<!DOCTYPE svg PUBLIC "-//W3C//DTD SVG 1.1//EN"
 "http://www.w3.org/Graphics/SVG/1.1/DTD/svg11.dtd">
<!-- Generated by graphviz version 10.0.1 (20240210.2158)
 -->
<!-- Title: ml::maths::common::CTools::SIntervalExpectation::operator() Pages: 1 -->
<svg width="661pt" height="437pt"
 viewBox="0.00 0.00 660.75 436.50" xmlns="http://www.w3.org/2000/svg" xmlns:xlink="http://www.w3.org/1999/xlink">
<g id="graph0" class="graph" transform="scale(1 1) rotate(0) translate(4 432.5)">
<title>ml::maths::common::CTools::SIntervalExpectation::operator()</title>
<!-- Node1 -->
<g id="Node000001" class="node">
<title>Node1</title>
<g id="a_Node000001"><a xlink:title=" ">
<polygon fill="#999999" stroke="#666666" points="143.5,-154.12 0,-154.12 0,-112.38 143.5,-112.38 143.5,-154.12"/>
<text text-anchor="start" x="8" y="-140.62" font-family="Helvetica,sans-Serif" font-size="10.00">ml::maths::common::</text>
<text text-anchor="start" x="8" y="-129.38" font-family="Helvetica,sans-Serif" font-size="10.00">CTools::SIntervalExpectation</text>
<text text-anchor="middle" x="71.75" y="-118.12" font-family="Helvetica,sans-Serif" font-size="10.00">::operator()</text>
</a>
</g>
</g>
<!-- Node2 -->
<g id="Node000002" class="node">
<title>Node2</title>
<g id="a_Node000002"><a xlink:href="../../d6/dd5/namespaceml_1_1maths_1_1common.html#a60cfac60a7086ae3449408c2a79beee5" target="_top" xlink:title="Compute the c.d.f. at x for distribution.">
<polygon fill="white" stroke="#666666" points="476.25,-265.88 353.75,-265.88 353.75,-246.62 476.25,-246.62 476.25,-265.88"/>
<text text-anchor="middle" x="415" y="-252.38" font-family="Helvetica,sans-Serif" font-size="10.00">ml::maths::common::cdf</text>
</a>
</g>
</g>
<!-- Node1&#45;&gt;Node2 -->
<g id="edge1_Node000001_Node000002" class="edge">
<title>Node1&#45;&gt;Node2</title>
<g id="a_edge1_Node000001_Node000002"><a xlink:title=" ">
<path fill="none" stroke="#63b8ff" d="M93.61,-154.3C113.78,-173.34 146.12,-200.58 179.5,-215.25 231.17,-237.96 294.44,-248.1 342.23,-252.63"/>
<polygon fill="#63b8ff" stroke="#63b8ff" points="341.64,-256.09 351.9,-253.48 342.25,-249.12 341.64,-256.09"/>
</a>
</g>
</g>
<!-- Node8 -->
<g id="Node000008" class="node">
<title>Node8</title>
<g id="a_Node000008"><a xlink:href="../../d4/da6/namespaceml.html#ad281564c6956f9a94ad02cfd663d150d" target="_top" xlink:title="Scales time input to generator.">
<polygon fill="white" stroke="#666666" points="613,-155.88 557.25,-155.88 557.25,-136.62 613,-136.62 613,-155.88"/>
<text text-anchor="middle" x="585.12" y="-142.38" font-family="Helvetica,sans-Serif" font-size="10.00">ml::scale</text>
</a>
</g>
</g>
<!-- Node1&#45;&gt;Node8 -->
<g id="edge16_Node000001_Node000008" class="edge">
<title>Node1&#45;&gt;Node8</title>
<g id="a_edge16_Node000001_Node000008"><a xlink:title=" ">
<path fill="none" stroke="#63b8ff" d="M143.85,-135.06C253.43,-137.84 459.87,-143.09 545.44,-145.27"/>
<polygon fill="#63b8ff" stroke="#63b8ff" points="545.33,-148.76 555.42,-145.52 545.51,-141.77 545.33,-148.76"/>
</a>
</g>
</g>
<!-- Node9 -->
<g id="Node000009" class="node">
<title>Node9</title>
<g id="a_Node000009"><a xlink:href="../../d6/dd5/namespaceml_1_1maths_1_1common.html#a37f8b7909e617ad623600aead4cfc868" target="_top" xlink:title="Compute the distribution mean.">
<polygon fill="white" stroke="#666666" points="312.5,-205.88 179.5,-205.88 179.5,-186.62 312.5,-186.62 312.5,-205.88"/>
<text text-anchor="middle" x="246" y="-192.38" font-family="Helvetica,sans-Serif" font-size="10.00">ml::maths::common::mean</text>
</a>
</g>
</g>
<!-- Node1&#45;&gt;Node9 -->
<g id="edge9_Node000001_Node000009" class="edge">
<title>Node1&#45;&gt;Node9</title>
<g id="a_edge9_Node000001_Node000009"><a xlink:title=" ">
<path fill="none" stroke="#63b8ff" d="M131.07,-154.58C156.11,-163.74 184.68,-174.19 206.94,-182.33"/>
<polygon fill="#63b8ff" stroke="#63b8ff" points="205.62,-185.57 216.21,-185.72 208.02,-179 205.62,-185.57"/>
</a>
</g>
</g>
<!-- Node11 -->
<g id="Node000011" class="node">
<title>Node11</title>
<g id="a_Node000011"><a xlink:href="../../dd/d55/classml_1_1maths_1_1common_1_1_c_tools.html#aa0600053da91719428498ec9968916c3" target="_top" xlink:title="Compute .">
<polygon fill="white" stroke="#666666" points="639.62,-118.5 530.62,-118.5 530.62,-88 639.62,-88 639.62,-118.5"/>
<text text-anchor="start" x="538.62" y="-105" font-family="Helvetica,sans-Serif" font-size="10.00">ml::maths::common::</text>
<text text-anchor="middle" x="585.12" y="-93.75" font-family="Helvetica,sans-Serif" font-size="10.00">CTools::pow2</text>
</a>
</g>
</g>
<!-- Node1&#45;&gt;Node11 -->
<g id="edge15_Node000001_Node000011" class="edge">
<title>Node1&#45;&gt;Node11</title>
<g id="a_edge15_Node000001_Node000011"><a xlink:title=" ">
<path fill="none" stroke="#63b8ff" d="M143.85,-129.08C243.41,-123.24 422.9,-112.71 519.08,-107.07"/>
<polygon fill="#63b8ff" stroke="#63b8ff" points="519.1,-110.57 528.88,-106.49 518.69,-103.58 519.1,-110.57"/>
</a>
</g>
</g>
<!-- Node12 -->
<g id="Node000012" class="node">
<title>Node12</title>
<g id="a_Node000012"><a xlink:href="../../d8/dcc/namespacestd.html#a434882411757f6c0833c939d997bc4e3" target="_top" xlink:title=" ">
<polygon fill="white" stroke="#666666" points="275.38,-67.88 216.62,-67.88 216.62,-48.62 275.38,-48.62 275.38,-67.88"/>
<text text-anchor="middle" x="246" y="-54.38" font-family="Helvetica,sans-Serif" font-size="10.00">std::swap</text>
</a>
</g>
</g>
<!-- Node1&#45;&gt;Node12 -->
<g id="edge17_Node000001_Node000012" class="edge">
<title>Node1&#45;&gt;Node12</title>
<g id="a_edge17_Node000001_Node000012"><a xlink:title=" ">
<path fill="none" stroke="#63b8ff" d="M121.65,-111.96C150.37,-99.45 185.93,-83.97 211.48,-72.85"/>
<polygon fill="#63b8ff" stroke="#63b8ff" points="212.6,-76.17 220.38,-68.97 209.81,-69.75 212.6,-76.17"/>
</a>
</g>
</g>
<!-- Node13 -->
<g id="Node000013" class="node">
<title>Node13</title>
<g id="a_Node000013"><a xlink:href="../../dd/d55/classml_1_1maths_1_1common_1_1_c_tools.html#a0ee3c8a8c133d36faa270f96ff48ae21" target="_top" xlink:title=" ">
<polygon fill="white" stroke="#666666" points="300.5,-30.5 191.5,-30.5 191.5,0 300.5,0 300.5,-30.5"/>
<text text-anchor="start" x="199.5" y="-17" font-family="Helvetica,sans-Serif" font-size="10.00">ml::maths::common::</text>
<text text-anchor="middle" x="246" y="-5.75" font-family="Helvetica,sans-Serif" font-size="10.00">CTools::truncate</text>
</a>
</g>
</g>
<!-- Node1&#45;&gt;Node13 -->
<g id="edge19_Node000001_Node000013" class="edge">
<title>Node1&#45;&gt;Node13</title>
<g id="a_edge19_Node000001_Node000013"><a xlink:title=" ">
<path fill="none" stroke="#63b8ff" d="M92.2,-112.03C112.33,-91.12 145.54,-59.45 179.5,-39.25 181.41,-38.11 183.39,-37.01 185.41,-35.96"/>
<polygon fill="#63b8ff" stroke="#63b8ff" points="186.9,-39.12 194.42,-31.65 183.89,-32.8 186.9,-39.12"/>
</a>
</g>
</g>
<!-- Node3 -->
<g id="Node000003" class="node">
<title>Node3</title>
<g id="a_Node000003"><a xlink:href="../../d0/d1c/classml_1_1maths_1_1common_1_1_c_log_t_distribution.html#a128ce0a627956e7931be0358fe995d2d" target="_top" xlink:title=" ">
<polygon fill="white" stroke="#666666" points="652.75,-331.12 517.5,-331.12 517.5,-289.38 652.75,-289.38 652.75,-331.12"/>
<text text-anchor="start" x="525.5" y="-317.62" font-family="Helvetica,sans-Serif" font-size="10.00">ml::maths::common::</text>
<text text-anchor="start" x="525.5" y="-306.38" font-family="Helvetica,sans-Serif" font-size="10.00">CLogTDistribution::degrees</text>
<text text-anchor="middle" x="585.12" y="-295.12" font-family="Helvetica,sans-Serif" font-size="10.00">Freedom</text>
</a>
</g>
</g>
<!-- Node2&#45;&gt;Node3 -->
<g id="edge2_Node000002_Node000003" class="edge">
<title>Node2&#45;&gt;Node3</title>
<g id="a_edge2_Node000002_Node000003"><a xlink:title=" ">
<path fill="none" stroke="#63b8ff" d="M447.23,-266.28C464.13,-271.71 485.82,-278.68 506.93,-285.46"/>
<polygon fill="#63b8ff" stroke="#63b8ff" points="505.86,-288.79 516.45,-288.51 508,-282.12 505.86,-288.79"/>
</a>
</g>
</g>
<!-- Node4 -->
<g id="Node000004" class="node">
<title>Node4</title>
<g id="a_Node000004"><a xlink:href="../../dd/dc8/classml_1_1maths_1_1common_1_1_c_maths_funcs.html#a55029f09f9f7e9eb786219fefbb8ff72" target="_top" xlink:title="Check if value is NaN.">
<polygon fill="white" stroke="#666666" points="639.62,-379.5 530.62,-379.5 530.62,-349 639.62,-349 639.62,-379.5"/>
<text text-anchor="start" x="538.62" y="-366" font-family="Helvetica,sans-Serif" font-size="10.00">ml::maths::common::</text>
<text text-anchor="middle" x="585.12" y="-354.75" font-family="Helvetica,sans-Serif" font-size="10.00">CMathsFuncs::isNan</text>
</a>
</g>
</g>
<!-- Node2&#45;&gt;Node4 -->
<g id="edge3_Node000002_Node000004" class="edge">
<title>Node2&#45;&gt;Node4</title>
<g id="a_edge3_Node000002_Node000004"><a xlink:title=" ">
<path fill="none" stroke="#63b8ff" d="M425.77,-266.37C442.92,-283.63 480.15,-318.94 517.5,-340.25 519.67,-341.49 521.91,-342.68 524.21,-343.83"/>
<polygon fill="#63b8ff" stroke="#63b8ff" points="522.58,-346.93 533.13,-347.93 525.5,-340.57 522.58,-346.93"/>
</a>
</g>
</g>
<!-- Node5 -->
<g id="Node000005" class="node">
<title>Node5</title>
<g id="a_Node000005"><a xlink:href="../../d0/d1c/classml_1_1maths_1_1common_1_1_c_log_t_distribution.html#a4267908e2f6c547fd21f75a77f6bee78" target="_top" xlink:title=" ">
<polygon fill="white" stroke="#666666" points="652.38,-271.5 517.88,-271.5 517.88,-241 652.38,-241 652.38,-271.5"/>
<text text-anchor="start" x="525.88" y="-258" font-family="Helvetica,sans-Serif" font-size="10.00">ml::maths::common::</text>
<text text-anchor="middle" x="585.12" y="-246.75" font-family="Helvetica,sans-Serif" font-size="10.00">CLogTDistribution::location</text>
</a>
</g>
</g>
<!-- Node2&#45;&gt;Node5 -->
<g id="edge4_Node000002_Node000005" class="edge">
<title>Node2&#45;&gt;Node5</title>
<g id="a_edge4_Node000002_Node000005"><a xlink:title=" ">
<path fill="none" stroke="#63b8ff" d="M476.7,-256.25C486.23,-256.25 496.2,-256.25 506.05,-256.25"/>
<polygon fill="#63b8ff" stroke="#63b8ff" points="506.03,-259.75 516.03,-256.25 506.03,-252.75 506.03,-259.75"/>
</a>
</g>
</g>
<!-- Node6 -->
<g id="Node000006" class="node">
<title>Node6</title>
<g id="a_Node000006"><a xlink:href="../../dd/d55/classml_1_1maths_1_1common_1_1_c_tools.html#a3b1d398255cd218c09ddfe9f75cfa829" target="_top" xlink:title=" ">
<polygon fill="white" stroke="#666666" points="639.62,-428.5 530.62,-428.5 530.62,-398 639.62,-398 639.62,-428.5"/>
<text text-anchor="start" x="538.62" y="-415" font-family="Helvetica,sans-Serif" font-size="10.00">ml::maths::common::</text>
<text text-anchor="middle" x="585.12" y="-403.75" font-family="Helvetica,sans-Serif" font-size="10.00">CTools::safeCdf</text>
</a>
</g>
</g>
<!-- Node2&#45;&gt;Node6 -->
<g id="edge5_Node000002_Node000006" class="edge">
<title>Node2&#45;&gt;Node6</title>
<g id="a_edge5_Node000002_Node000006"><a xlink:title=" ">
<path fill="none" stroke="#63b8ff" d="M420.99,-266.03C433.79,-290.18 470.1,-353.17 517.5,-388.25 519.29,-389.57 521.15,-390.83 523.08,-392.03"/>
<polygon fill="#63b8ff" stroke="#63b8ff" points="521.31,-395.06 531.76,-396.81 524.69,-388.93 521.31,-395.06"/>
</a>
</g>
</g>
<!-- Node7 -->
<g id="Node000007" class="node">
<title>Node7</title>
<g id="a_Node000007"><a xlink:href="../../d0/d1c/classml_1_1maths_1_1common_1_1_c_log_t_distribution.html#a8f03f27080a2f59d3da535b4b4f228ef" target="_top" xlink:title=" ">
<polygon fill="white" stroke="#666666" points="647.12,-222.5 523.12,-222.5 523.12,-192 647.12,-192 647.12,-222.5"/>
<text text-anchor="start" x="531.12" y="-209" font-family="Helvetica,sans-Serif" font-size="10.00">ml::maths::common::</text>
<text text-anchor="middle" x="585.12" y="-197.75" font-family="Helvetica,sans-Serif" font-size="10.00">CLogTDistribution::scale</text>
</a>
</g>
</g>
<!-- Node2&#45;&gt;Node7 -->
<g id="edge6_Node000002_Node000007" class="edge">
<title>Node2&#45;&gt;Node7</title>
<g id="a_edge6_Node000002_Node000007"><a xlink:title=" ">
<path fill="none" stroke="#63b8ff" d="M450.43,-246.22C470.25,-240.44 495.81,-232.99 519.26,-226.16"/>
<polygon fill="#63b8ff" stroke="#63b8ff" points="520.14,-229.55 528.76,-223.39 518.18,-222.82 520.14,-229.55"/>
</a>
</g>
</g>
<!-- Node2&#45;&gt;Node8 -->
<g id="edge7_Node000002_Node000008" class="edge">
<title>Node2&#45;&gt;Node8</title>
<g id="a_edge7_Node000002_Node000008"><a xlink:title=" ">
<path fill="none" stroke="#63b8ff" d="M444.94,-246.25C456.93,-241.31 470.56,-234.59 481.5,-226.25 501.32,-211.13 498.28,-199.12 517.5,-183.25 527.65,-174.86 539.98,-167.41 551.26,-161.42"/>
<polygon fill="#63b8ff" stroke="#63b8ff" points="552.55,-164.69 559.88,-157.04 549.38,-158.45 552.55,-164.69"/>
</a>
</g>
</g>
<!-- Node8&#45;&gt;Node8 -->
<g id="edge8_Node000008_Node000008" class="edge">
<title>Node8&#45;&gt;Node8</title>
<g id="a_edge8_Node000008_Node000008"><a xlink:title=" ">
<path fill="none" stroke="#63b8ff" d="M558.49,-156.16C546.34,-164.77 555.22,-173.88 585.12,-173.88 601.95,-173.88 612.11,-170.99 615.63,-166.94"/>
<polygon fill="#63b8ff" stroke="#63b8ff" points="618.94,-165.82 612.27,-157.59 612.36,-168.18 618.94,-165.82"/>
</a>
</g>
</g>
<!-- Node10 -->
<g id="Node000010" class="node">
<title>Node10</title>
<g id="a_Node000010"><a xlink:href="../../d6/dd5/namespaceml_1_1maths_1_1common.html#aa139fb07823365e51bd2f01178d7a61a" target="_top" xlink:title="Compute the mode for distribution.">
<polygon fill="white" stroke="#666666" points="481.5,-216.88 348.5,-216.88 348.5,-197.62 481.5,-197.62 481.5,-216.88"/>
<text text-anchor="middle" x="415" y="-203.38" font-family="Helvetica,sans-Serif" font-size="10.00">ml::maths::common::mode</text>
</a>
</g>
</g>
<!-- Node9&#45;&gt;Node10 -->
<g id="edge10_Node000009_Node000010" class="edge">
<title>Node9&#45;&gt;Node10</title>
<g id="a_edge10_Node000009_Node000010"><a xlink:title=" ">
<path fill="none" stroke="#63b8ff" d="M312.52,-200.57C320.47,-201.09 328.65,-201.63 336.75,-202.16"/>
<polygon fill="#63b8ff" stroke="#63b8ff" points="336.4,-205.65 346.61,-202.81 336.86,-198.66 336.4,-205.65"/>
</a>
</g>
</g>
<!-- Node10&#45;&gt;Node3 -->
<g id="edge11_Node000010_Node000003" class="edge">
<title>Node10&#45;&gt;Node3</title>
<g id="a_edge11_Node000010_Node000003"><a xlink:title=" ">
<path fill="none" stroke="#63b8ff" d="M444.94,-217.25C456.93,-222.19 470.56,-228.91 481.5,-237.25 501.32,-252.37 497.63,-265.2 517.5,-280.25 518.8,-281.23 520.13,-282.19 521.49,-283.13"/>
<polygon fill="#63b8ff" stroke="#63b8ff" points="519.23,-285.84 529.57,-288.16 522.93,-279.9 519.23,-285.84"/>
</a>
</g>
</g>
<!-- Node10&#45;&gt;Node5 -->
<g id="edge12_Node000010_Node000005" class="edge">
<title>Node10&#45;&gt;Node5</title>
<g id="a_edge12_Node000010_Node000005"><a xlink:title=" ">
<path fill="none" stroke="#63b8ff" d="M450.43,-217.28C470.25,-223.06 495.81,-230.51 519.26,-237.34"/>
<polygon fill="#63b8ff" stroke="#63b8ff" points="518.18,-240.68 528.76,-240.11 520.14,-233.95 518.18,-240.68"/>
</a>
</g>
</g>
<!-- Node10&#45;&gt;Node7 -->
<g id="edge14_Node000010_Node000007" class="edge">
<title>Node10&#45;&gt;Node7</title>
<g id="a_edge14_Node000010_Node000007"><a xlink:title=" ">
<path fill="none" stroke="#63b8ff" d="M481.96,-207.25C491.62,-207.25 501.61,-207.25 511.39,-207.25"/>
<polygon fill="#63b8ff" stroke="#63b8ff" points="511.23,-210.75 521.22,-207.25 511.22,-203.75 511.23,-210.75"/>
</a>
</g>
</g>
<!-- Node10&#45;&gt;Node11 -->
<g id="edge13_Node000010_Node000011" class="edge">
<title>Node10&#45;&gt;Node11</title>
<g id="a_edge13_Node000010_Node000011"><a xlink:title=" ">
<path fill="none" stroke="#63b8ff" d="M426.15,-197.38C443.56,-180.91 480.81,-147.61 517.5,-127.25 519.81,-125.97 522.21,-124.73 524.65,-123.54"/>
<polygon fill="#63b8ff" stroke="#63b8ff" points="525.86,-126.83 533.55,-119.54 522.99,-120.45 525.86,-126.83"/>
</a>
</g>
</g>
<!-- Node12&#45;&gt;Node12 -->
<g id="edge18_Node000012_Node000012" class="edge">
<title>Node12&#45;&gt;Node12</title>
<g id="a_edge18_Node000012_Node000012"><a xlink:title=" ">
<path fill="none" stroke="#63b8ff" d="M219.54,-68.16C207.47,-76.77 216.29,-85.88 246,-85.88 262.71,-85.88 272.81,-82.99 276.3,-78.94"/>
<polygon fill="#63b8ff" stroke="#63b8ff" points="279.62,-77.83 272.97,-69.59 273.03,-80.18 279.62,-77.83"/>
</a>
</g>
</g>
</g>
</svg>
