<?xml version="1.0" encoding="UTF-8" standalone="no"?>
<!DOCTYPE svg PUBLIC "-//W3C//DTD SVG 1.1//EN"
 "http://www.w3.org/Graphics/SVG/1.1/DTD/svg11.dtd">
<!-- Generated by graphviz version 10.0.1 (20240210.2158)
 -->
<!-- Title: lib/core/CStrCaseCmp.cc Pages: 1 -->
<svg width="293pt" height="193pt"
 viewBox="0.00 0.00 292.75 193.00" xmlns="http://www.w3.org/2000/svg" xmlns:xlink="http://www.w3.org/1999/xlink">
<g id="graph0" class="graph" transform="scale(1 1) rotate(0) translate(4 189)">
<title>lib/core/CStrCaseCmp.cc</title>
<!-- Node1 -->
<g id="Node000001" class="node">
<title>Node1</title>
<g id="a_Node000001"><a xlink:title=" ">
<polygon fill="#999999" stroke="#666666" points="272.25,-185 143.75,-185 143.75,-165.75 272.25,-165.75 272.25,-185"/>
<text text-anchor="middle" x="208" y="-171.5" font-family="Helvetica,sans-Serif" font-size="10.00">lib/core/CStrCaseCmp.cc</text>
</a>
</g>
</g>
<!-- Node2 -->
<g id="Node000002" class="node">
<title>Node2</title>
<g id="a_Node000002"><a xlink:href="../../dc/d2a/_c_str_case_cmp_8h.html" target="_top" xlink:title=" ">
<polygon fill="white" stroke="#666666" points="213.25,-129.75 102.75,-129.75 102.75,-110.5 213.25,-110.5 213.25,-129.75"/>
<text text-anchor="middle" x="158" y="-116.25" font-family="Helvetica,sans-Serif" font-size="10.00">core/CStrCaseCmp.h</text>
</a>
</g>
</g>
<!-- Node1&#45;&gt;Node2 -->
<g id="edge1_Node000001_Node000002" class="edge">
<title>Node1&#45;&gt;Node2</title>
<g id="a_edge1_Node000001_Node000002"><a xlink:title=" ">
<path fill="none" stroke="#63b8ff" d="M199.74,-165.58C192.84,-158.23 182.78,-147.51 174.26,-138.44"/>
<polygon fill="#63b8ff" stroke="#63b8ff" points="176.87,-136.11 167.47,-131.21 171.77,-140.9 176.87,-136.11"/>
</a>
</g>
</g>
<!-- Node6 -->
<g id="Node000006" class="node">
<title>Node6</title>
<g id="a_Node000006"><a xlink:title=" ">
<polygon fill="#e0e0e0" stroke="#999999" points="284.75,-129.75 231.25,-129.75 231.25,-110.5 284.75,-110.5 284.75,-129.75"/>
<text text-anchor="middle" x="258" y="-116.25" font-family="Helvetica,sans-Serif" font-size="10.00">strings.h</text>
</a>
</g>
</g>
<!-- Node1&#45;&gt;Node6 -->
<g id="edge6_Node000001_Node000006" class="edge">
<title>Node1&#45;&gt;Node6</title>
<g id="a_edge6_Node000001_Node000006"><a xlink:title=" ">
<path fill="none" stroke="#63b8ff" d="M216.26,-165.58C223.16,-158.23 233.22,-147.51 241.74,-138.44"/>
<polygon fill="#63b8ff" stroke="#63b8ff" points="244.23,-140.9 248.53,-131.21 239.13,-136.11 244.23,-140.9"/>
</a>
</g>
</g>
<!-- Node3 -->
<g id="Node000003" class="node">
<title>Node3</title>
<g id="a_Node000003"><a xlink:href="../../d7/dc2/_c_non_instantiatable_8h.html" target="_top" xlink:title=" ">
<polygon fill="white" stroke="#666666" points="130,-74.5 0,-74.5 0,-55.25 130,-55.25 130,-74.5"/>
<text text-anchor="middle" x="65" y="-61" font-family="Helvetica,sans-Serif" font-size="10.00">core/CNonInstantiatable.h</text>
</a>
</g>
</g>
<!-- Node2&#45;&gt;Node3 -->
<g id="edge2_Node000002_Node000003" class="edge">
<title>Node2&#45;&gt;Node3</title>
<g id="a_edge2_Node000002_Node000003"><a xlink:title=" ">
<path fill="none" stroke="#63b8ff" d="M142.22,-110.09C128.06,-101.98 107.02,-89.93 90.47,-80.46"/>
<polygon fill="#63b8ff" stroke="#63b8ff" points="92.58,-77.64 82.17,-75.7 89.11,-83.71 92.58,-77.64"/>
</a>
</g>
</g>
<!-- Node4 -->
<g id="Node000004" class="node">
<title>Node4</title>
<g id="a_Node000004"><a xlink:href="../../dd/d0e/core_2_import_export_8h.html" target="_top" xlink:title=" ">
<polygon fill="white" stroke="#666666" points="162.12,-19.25 59.88,-19.25 59.88,0 162.12,0 162.12,-19.25"/>
<text text-anchor="middle" x="111" y="-5.75" font-family="Helvetica,sans-Serif" font-size="10.00">core/ImportExport.h</text>
</a>
</g>
</g>
<!-- Node2&#45;&gt;Node4 -->
<g id="edge4_Node000002_Node000004" class="edge">
<title>Node2&#45;&gt;Node4</title>
<g id="a_edge4_Node000002_Node000004"><a xlink:title=" ">
<path fill="none" stroke="#63b8ff" d="M156.15,-110.17C153.36,-97.57 147.49,-74.01 139,-55.25 134.86,-46.09 129.12,-36.58 123.91,-28.7"/>
<polygon fill="#63b8ff" stroke="#63b8ff" points="126.96,-26.95 118.41,-20.7 121.19,-30.92 126.96,-26.95"/>
</a>
</g>
</g>
<!-- Node5 -->
<g id="Node000005" class="node">
<title>Node5</title>
<g id="a_Node000005"><a xlink:title=" ">
<polygon fill="#e0e0e0" stroke="#999999" points="237.62,-74.5 186.38,-74.5 186.38,-55.25 237.62,-55.25 237.62,-74.5"/>
<text text-anchor="middle" x="212" y="-61" font-family="Helvetica,sans-Serif" font-size="10.00">stddef.h</text>
</a>
</g>
</g>
<!-- Node2&#45;&gt;Node5 -->
<g id="edge5_Node000002_Node000005" class="edge">
<title>Node2&#45;&gt;Node5</title>
<g id="a_edge5_Node000002_Node000005"><a xlink:title=" ">
<path fill="none" stroke="#63b8ff" d="M166.92,-110.33C174.45,-102.9 185.47,-92.04 194.73,-82.91"/>
<polygon fill="#63b8ff" stroke="#63b8ff" points="197.15,-85.44 201.81,-75.92 192.23,-80.45 197.15,-85.44"/>
</a>
</g>
</g>
<!-- Node3&#45;&gt;Node4 -->
<g id="edge3_Node000003_Node000004" class="edge">
<title>Node3&#45;&gt;Node4</title>
<g id="a_edge3_Node000003_Node000004"><a xlink:title=" ">
<path fill="none" stroke="#63b8ff" d="M72.6,-55.08C78.88,-47.8 88.01,-37.23 95.8,-28.23"/>
<polygon fill="#63b8ff" stroke="#63b8ff" points="98.36,-30.61 102.25,-20.75 93.06,-26.03 98.36,-30.61"/>
</a>
</g>
</g>
</g>
</svg>
