<?xml version="1.0" encoding="UTF-8" standalone="no"?>
<!DOCTYPE svg PUBLIC "-//W3C//DTD SVG 1.1//EN"
 "http://www.w3.org/Graphics/SVG/1.1/DTD/svg11.dtd">
<!-- Generated by graphviz version 10.0.1 (20240210.2158)
 -->
<!-- Title: ml::core::CPackedBitVector::inner Pages: 1 -->
<!--zoomable 118 -->

<svg id="main" version="1.1" xmlns="http://www.w3.org/2000/svg" xmlns:xlink="http://www.w3.org/1999/xlink" xml:space="preserve" onload="init(evt)">
<style type="text/css"><![CDATA[
.node, .edge {opacity: 0.7;}
.node.selected, .edge.selected {opacity: 1;}
.edge:hover path { stroke: red; }
.edge:hover polygon { stroke: red; fill: red; }
]]></style>

<defs>
  <circle id="rim" cx="0" cy="0" r="7"/>
  <circle id="rim2" cx="0" cy="0" r="3.5"/>
  <g id="zoomPlus">
    <use xlink:href="#rim" fill="#404040"><set attributeName="fill" to="#808080" begin="zoomplus.mouseover" end="zoomplus.mouseout"/></use>
    <path d="M-4,0h8M0,-4v8" fill="none" stroke="white" stroke-width="1.5" pointer-events="none"/>
  </g>
  <g id="zoomMin">
    <use xlink:href="#rim" fill="#404040"><set attributeName="fill" to="#808080" begin="zoomminus.mouseover" end="zoomminus.mouseout"/></use>
    <path d="M-4,0h8" fill="none" stroke="white" stroke-width="1.5" pointer-events="none"/>
  </g>
  <g id="arrowUp" transform="translate(30 24)">
    <use xlink:href="#rim"/>
    <path pointer-events="none" fill="none" stroke="white" stroke-width="1.5" d="M0,-3.0v7 M-2.5,-0.5L0,-3.0L2.5,-0.5"/>
  </g>
  <g id="arrowRight" transform="rotate(90) translate(36 -43)">
    <use xlink:href="#rim"/>
    <path pointer-events="none" fill="none" stroke="white" stroke-width="1.5" d="M0,-3.0v7 M-2.5,-0.5L0,-3.0L2.5,-0.5"/>
  </g>
  <g id="arrowDown" transform="rotate(180) translate(-30 -48)">
    <use xlink:href="#rim"/>
    <path pointer-events="none" fill="none" stroke="white" stroke-width="1.5" d="M0,-3.0v7 M-2.5,-0.5L0,-3.0L2.5,-0.5"/>
  </g>
  <g id="arrowLeft" transform="rotate(270) translate(-36 17)">
    <use xlink:href="#rim"/>
    <path pointer-events="none" fill="none" stroke="white" stroke-width="1.5" d="M0,-3.0v7 M-2.5,-0.5L0,-3.0L2.5,-0.5"/>
  </g>
  <g id="resetDef">
    <use xlink:href="#rim2" fill="#404040"><set attributeName="fill" to="#808080" begin="reset.mouseover" end="reset.mouseout"/></use>
  </g>
</defs>
<script type="application/ecmascript">
var viewWidth = 716;
var viewHeight = 118;
var sectionId = 'dynsection-25';
</script>
<script type="application/ecmascript" xlink:href="../../svg.min.js"/>
<svg id="graph" class="graph">
<g id="viewport">
<title>ml::core::CPackedBitVector::inner</title>
<!-- Node1 -->
<g id="Node000001" class="node">
<title>Node1</title>
<g id="a_Node000001"><a xlink:title="Inner product.">
<polygon fill="#999999" stroke="#666666" points="707.5,-90.12 569.25,-90.12 569.25,-59.62 707.5,-59.62 707.5,-90.12"/>
<text text-anchor="start" x="577.25" y="-76.62" font-family="Helvetica,sans-Serif" font-size="10.00">ml::core::CPackedBitVector</text>
<text text-anchor="middle" x="638.38" y="-65.38" font-family="Helvetica,sans-Serif" font-size="10.00">::inner</text>
</a>
</g>
</g>
<!-- Node2 -->
<g id="Node000002" class="node">
<title>Node2</title>
<g id="a_Node000002"><a xlink:href="../../d8/d57/_c_packed_bit_vector_test_8cc.html#ac4e319dcef8b8375ad7968b7341ea453" target="_top" xlink:title=" ">
<polygon fill="white" stroke="#666666" points="528.38,-109.5 381.12,-109.5 381.12,-90.25 528.38,-90.25 528.38,-109.5"/>
<text text-anchor="middle" x="454.75" y="-96" font-family="Helvetica,sans-Serif" font-size="10.00">BOOST_AUTO_TEST_CASE</text>
</a>
</g>
</g>
<!-- Node1&#45;&gt;Node2 -->
<g id="edge1_Node000001_Node000002" class="edge">
<title>Node1&#45;&gt;Node2</title>
<g id="a_edge1_Node000001_Node000002"><a xlink:title=" ">
<path fill="none" stroke="#63b8ff" d="M557.72,-85.84C548.05,-87.17 538.21,-88.52 528.64,-89.84"/>
<polygon fill="#63b8ff" stroke="#63b8ff" points="558.04,-89.33 567.47,-84.5 557.09,-82.39 558.04,-89.33"/>
</a>
</g>
</g>
<!-- Node3 -->
<g id="Node000003" class="node">
<title>Node3</title>
<g id="a_Node000003"><a xlink:href="../../df/d0a/structml_1_1maths_1_1common_1_1_c_k_most_correlated_1_1_s_correlation.html#a6c5f31d8960d415f9b022f028a0ae177" target="_top" xlink:title=" ">
<polygon fill="white" stroke="#666666" points="533.25,-71.75 376.25,-71.75 376.25,-30 533.25,-30 533.25,-71.75"/>
<text text-anchor="start" x="384.25" y="-58.25" font-family="Helvetica,sans-Serif" font-size="10.00">ml::maths::common::</text>
<text text-anchor="start" x="384.25" y="-47" font-family="Helvetica,sans-Serif" font-size="10.00">CKMostCorrelated::SCorrelation</text>
<text text-anchor="middle" x="454.75" y="-35.75" font-family="Helvetica,sans-Serif" font-size="10.00">::correlation</text>
</a>
</g>
</g>
<!-- Node1&#45;&gt;Node3 -->
<g id="edge2_Node000001_Node000003" class="edge">
<title>Node1&#45;&gt;Node3</title>
<g id="a_edge2_Node000001_Node000003"><a xlink:title=" ">
<path fill="none" stroke="#63b8ff" d="M557.72,-64.35C549.7,-63.29 541.55,-62.21 533.54,-61.15"/>
<polygon fill="#63b8ff" stroke="#63b8ff" points="557.1,-67.8 567.47,-65.64 558.01,-60.86 557.1,-67.8"/>
</a>
</g>
</g>
<!-- Node4 -->
<g id="Node000004" class="node">
<title>Node4</title>
<g id="a_Node000004"><a xlink:href="../../d8/de0/namespaceanonymous__namespace_02_c_k_most_correlated_test_8cc_03.html#ac5eabf80b6d499328f4a97a1298dbd3d" target="_top" xlink:title=" ">
<polygon fill="white" stroke="#666666" points="324.88,-101.75 198.62,-101.75 198.62,-60 324.88,-60 324.88,-101.75"/>
<text text-anchor="start" x="206.62" y="-88.25" font-family="Helvetica,sans-Serif" font-size="10.00">anonymous_namespace</text>
<text text-anchor="start" x="206.62" y="-77" font-family="Helvetica,sans-Serif" font-size="10.00">{CKMostCorrelatedTest</text>
<text text-anchor="middle" x="261.75" y="-65.75" font-family="Helvetica,sans-Serif" font-size="10.00">::cc}::estimateCorrelation</text>
</a>
</g>
</g>
<!-- Node3&#45;&gt;Node4 -->
<g id="edge3_Node000003_Node000004" class="edge">
<title>Node3&#45;&gt;Node4</title>
<g id="a_edge3_Node000003_Node000004"><a xlink:title=" ">
<path fill="none" stroke="#63b8ff" d="M364.67,-64.87C351.36,-66.96 337.88,-69.07 325.28,-71.05"/>
<polygon fill="#63b8ff" stroke="#63b8ff" points="364.96,-68.36 374.29,-63.36 363.87,-61.45 364.96,-68.36"/>
</a>
</g>
</g>
<!-- Node6 -->
<g id="Node000006" class="node">
<title>Node6</title>
<g id="a_Node000006"><a xlink:href="../../df/d0a/structml_1_1maths_1_1common_1_1_c_k_most_correlated_1_1_s_correlation.html#a1605b642b62cb8e1cf1ba6eea3479e82" target="_top" xlink:title=" ">
<polygon fill="white" stroke="#666666" points="340.25,-41.75 183.25,-41.75 183.25,0 340.25,0 340.25,-41.75"/>
<text text-anchor="start" x="191.25" y="-28.25" font-family="Helvetica,sans-Serif" font-size="10.00">ml::maths::common::</text>
<text text-anchor="start" x="191.25" y="-17" font-family="Helvetica,sans-Serif" font-size="10.00">CKMostCorrelated::SCorrelation</text>
<text text-anchor="middle" x="261.75" y="-5.75" font-family="Helvetica,sans-Serif" font-size="10.00">::SCorrelation</text>
</a>
</g>
</g>
<!-- Node3&#45;&gt;Node6 -->
<g id="edge5_Node000003_Node000006" class="edge">
<title>Node3&#45;&gt;Node6</title>
<g id="a_edge5_Node000003_Node000006"><a xlink:title=" ">
<path fill="none" stroke="#63b8ff" d="M364.5,-36.86C356.47,-35.6 348.38,-34.33 340.46,-33.08"/>
<polygon fill="#63b8ff" stroke="#63b8ff" points="363.87,-40.3 374.29,-38.39 364.96,-33.39 363.87,-40.3"/>
</a>
</g>
</g>
<!-- Node5 -->
<g id="Node000005" class="node">
<title>Node5</title>
<g id="a_Node000005"><a xlink:href="../../db/de9/_c_k_most_correlated_test_8cc.html#a550e1f0a501cda708bd8243f3aa45c91" target="_top" xlink:title=" ">
<polygon fill="white" stroke="#666666" points="147.25,-90.5 0,-90.5 0,-71.25 147.25,-71.25 147.25,-90.5"/>
<text text-anchor="middle" x="73.62" y="-77" font-family="Helvetica,sans-Serif" font-size="10.00">BOOST_AUTO_TEST_CASE</text>
</a>
</g>
</g>
<!-- Node4&#45;&gt;Node5 -->
<g id="edge4_Node000004_Node000005" class="edge">
<title>Node4&#45;&gt;Node5</title>
<g id="a_edge4_Node000004_Node000005"><a xlink:title=" ">
<path fill="none" stroke="#63b8ff" d="M187.01,-80.88C174.03,-80.88 160.53,-80.88 147.58,-80.88"/>
<polygon fill="#63b8ff" stroke="#63b8ff" points="186.74,-84.38 196.74,-80.88 186.74,-77.38 186.74,-84.38"/>
</a>
</g>
</g>
</g>
</svg>

<g id="navigator" transform="translate(0 0)" fill="#404254">
  <rect fill="#f2f5e9" fill-opacity="0.5" stroke="#606060" stroke-width=".5" x="0" y="0" width="60" height="60"/>
  <use id="zoomplus" xlink:href="#zoomPlus" x="17" y="9" onmousedown="handleZoom(evt,'in')"/>
  <use id="zoomminus" xlink:href="#zoomMin" x="42" y="9" onmousedown="handleZoom(evt,'out')"/>
  <use id="reset" xlink:href="#resetDef" x="30" y="36" onmousedown="handleReset()"/>
   <use id="arrowup" xlink:href="#arrowUp" x="0" y="0" onmousedown="handlePan(0,-1)"/>
  <use id="arrowright" xlink:href="#arrowRight" x="0" y="0" onmousedown="handlePan(1,0)"/>
  <use id="arrowdown" xlink:href="#arrowDown" x="0" y="0" onmousedown="handlePan(0,1)"/>
  <use id="arrowleft" xlink:href="#arrowLeft" x="0" y="0" onmousedown="handlePan(-1,0)"/>
</g>
<svg viewBox="0 0 15 15" width="100%" height="30px" preserveAspectRatio="xMaxYMin meet">
 <g id="arrow_out" transform="scale(0.3 0.3)">
  <a xlink:href="classml_1_1core_1_1_c_packed_bit_vector_ab185b65c26283d2e2e16fd5d25b812b3_icgraph_org.svg" target="_base">
   <rect id="button" ry="5" rx="5" y="6" x="6" height="38" width="38"
        fill="#f2f5e9" fill-opacity="0.5" stroke="#606060" stroke-width="1.0"/>
   <path id="arrow"
     d="M 11.500037,31.436501 C 11.940474,20.09759 22.043105,11.32322 32.158766,21.979434 L 37.068811,17.246167 C 37.068811,17.246167 37.088388,32 37.088388,32 L 22.160133,31.978069 C 22.160133,31.978069 26.997745,27.140456 26.997745,27.140456 C 18.528582,18.264221 13.291696,25.230495 11.500037,31.436501 z"
     style="fill:#404040;"/>
  </a>
 </g>
</svg>

<style type='text/css'>
<![CDATA[
[data-mouse-over-selected='false'] { opacity: 0.7; }
[data-mouse-over-selected='true']  { opacity: 1.0; }
]]>
</style>
<script type="application/ecmascript"><![CDATA[
document.addEventListener('DOMContentLoaded', (event) => {
  highlightEdges();
  highlightAdjacentNodes();
});
]]></script>
</svg>
