<?xml version="1.0" encoding="UTF-8" standalone="no"?>
<!DOCTYPE svg PUBLIC "-//W3C//DTD SVG 1.1//EN"
 "http://www.w3.org/Graphics/SVG/1.1/DTD/svg11.dtd">
<!-- Generated by graphviz version 10.0.1 (20240210.2158)
 -->
<!-- Title: ml::core::CPackedBitVector::lineScan Pages: 1 -->
<svg width="890pt" height="264pt"
 viewBox="0.00 0.00 889.75 264.12" xmlns="http://www.w3.org/2000/svg" xmlns:xlink="http://www.w3.org/1999/xlink">
<g id="graph0" class="graph" transform="scale(1 1) rotate(0) translate(4 260.12)">
<title>ml::core::CPackedBitVector::lineScan</title>
<!-- Node1 -->
<g id="Node000001" class="node">
<title>Node1</title>
<g id="a_Node000001"><a xlink:title=" ">
<polygon fill="#999999" stroke="#666666" points="881.75,-139.12 743.5,-139.12 743.5,-108.62 881.75,-108.62 881.75,-139.12"/>
<text text-anchor="start" x="751.5" y="-125.62" font-family="Helvetica,sans-Serif" font-size="10.00">ml::core::CPackedBitVector</text>
<text text-anchor="middle" x="812.62" y="-114.38" font-family="Helvetica,sans-Serif" font-size="10.00">::lineScan</text>
</a>
</g>
</g>
<!-- Node2 -->
<g id="Node000002" class="node">
<title>Node2</title>
<g id="a_Node000002"><a xlink:href="../../d6/d52/classml_1_1core_1_1_c_packed_bit_vector.html#a629f201d3113c10de014edf398a36a3b" target="_top" xlink:title=" ">
<polygon fill="white" stroke="#666666" points="707.5,-185.12 569.25,-185.12 569.25,-154.62 707.5,-154.62 707.5,-185.12"/>
<text text-anchor="start" x="577.25" y="-171.62" font-family="Helvetica,sans-Serif" font-size="10.00">ml::core::CPackedBitVector</text>
<text text-anchor="middle" x="638.38" y="-160.38" font-family="Helvetica,sans-Serif" font-size="10.00">::bitwise</text>
</a>
</g>
</g>
<!-- Node1&#45;&gt;Node2 -->
<g id="edge1_Node000001_Node000002" class="edge">
<title>Node1&#45;&gt;Node2</title>
<g id="a_edge1_Node000001_Node000002"><a xlink:title=" ">
<path fill="none" stroke="#63b8ff" d="M741.9,-142.5C727.4,-146.37 712.26,-150.41 698.2,-154.17"/>
<polygon fill="#63b8ff" stroke="#63b8ff" points="742.61,-145.93 751.37,-139.97 740.8,-139.17 742.61,-145.93"/>
</a>
</g>
</g>
<!-- Node6 -->
<g id="Node000006" class="node">
<title>Node6</title>
<g id="a_Node000006"><a xlink:href="../../d6/d52/classml_1_1core_1_1_c_packed_bit_vector.html#ab185b65c26283d2e2e16fd5d25b812b3" target="_top" xlink:title="Inner product.">
<polygon fill="white" stroke="#666666" points="707.5,-115.12 569.25,-115.12 569.25,-84.62 707.5,-84.62 707.5,-115.12"/>
<text text-anchor="start" x="577.25" y="-101.62" font-family="Helvetica,sans-Serif" font-size="10.00">ml::core::CPackedBitVector</text>
<text text-anchor="middle" x="638.38" y="-90.38" font-family="Helvetica,sans-Serif" font-size="10.00">::inner</text>
</a>
</g>
</g>
<!-- Node1&#45;&gt;Node6 -->
<g id="edge5_Node000001_Node000006" class="edge">
<title>Node1&#45;&gt;Node6</title>
<g id="a_edge5_Node000001_Node000006"><a xlink:title=" ">
<path fill="none" stroke="#63b8ff" d="M731.86,-112.76C723.88,-111.65 715.84,-110.53 707.99,-109.44"/>
<polygon fill="#63b8ff" stroke="#63b8ff" points="731.17,-116.2 741.55,-114.11 732.13,-109.27 731.17,-116.2"/>
</a>
</g>
</g>
<!-- Node3 -->
<g id="Node000003" class="node">
<title>Node3</title>
<g id="a_Node000003"><a xlink:href="../../d6/d52/classml_1_1core_1_1_c_packed_bit_vector.html#acc7327856ef0eead14baf0534fb877d6" target="_top" xlink:title="Update to the bitwise and of this and other.">
<polygon fill="white" stroke="#666666" points="523.88,-256.12 385.62,-256.12 385.62,-225.62 523.88,-225.62 523.88,-256.12"/>
<text text-anchor="start" x="393.62" y="-242.62" font-family="Helvetica,sans-Serif" font-size="10.00">ml::core::CPackedBitVector</text>
<text text-anchor="middle" x="454.75" y="-231.38" font-family="Helvetica,sans-Serif" font-size="10.00">::operator&amp;=</text>
</a>
</g>
</g>
<!-- Node2&#45;&gt;Node3 -->
<g id="edge2_Node000002_Node000003" class="edge">
<title>Node2&#45;&gt;Node3</title>
<g id="a_edge2_Node000002_Node000003"><a xlink:title=" ">
<path fill="none" stroke="#63b8ff" d="M593.98,-190.26C575.45,-198.64 553.47,-208.17 533.25,-215.88 524.79,-219.1 515.72,-222.27 506.87,-225.22"/>
<polygon fill="#63b8ff" stroke="#63b8ff" points="595.43,-193.44 603.07,-186.1 592.52,-187.07 595.43,-193.44"/>
</a>
</g>
</g>
<!-- Node4 -->
<g id="Node000004" class="node">
<title>Node4</title>
<g id="a_Node000004"><a xlink:href="../../d6/d52/classml_1_1core_1_1_c_packed_bit_vector.html#aedad0e16cadd02fb0c7f6f9ccd91fc1d" target="_top" xlink:title="Update to the bitwise xor of this and other.">
<polygon fill="white" stroke="#666666" points="523.88,-207.12 385.62,-207.12 385.62,-176.62 523.88,-176.62 523.88,-207.12"/>
<text text-anchor="start" x="393.62" y="-193.62" font-family="Helvetica,sans-Serif" font-size="10.00">ml::core::CPackedBitVector</text>
<text text-anchor="middle" x="454.75" y="-182.38" font-family="Helvetica,sans-Serif" font-size="10.00">::operator^=</text>
</a>
</g>
</g>
<!-- Node2&#45;&gt;Node4 -->
<g id="edge3_Node000002_Node000004" class="edge">
<title>Node2&#45;&gt;Node4</title>
<g id="a_edge3_Node000002_Node000004"><a xlink:title=" ">
<path fill="none" stroke="#63b8ff" d="M557.83,-179.51C546.58,-180.87 535.1,-182.26 524.09,-183.6"/>
<polygon fill="#63b8ff" stroke="#63b8ff" points="557.96,-183.02 567.47,-178.34 557.12,-176.07 557.96,-183.02"/>
</a>
</g>
</g>
<!-- Node5 -->
<g id="Node000005" class="node">
<title>Node5</title>
<g id="a_Node000005"><a xlink:href="../../d6/d52/classml_1_1core_1_1_c_packed_bit_vector.html#a84beb97ead75948e7118b06d2a0c752f" target="_top" xlink:title="Update to the bitwise or of this and other.">
<polygon fill="white" stroke="#666666" points="523.88,-158.12 385.62,-158.12 385.62,-127.62 523.88,-127.62 523.88,-158.12"/>
<text text-anchor="start" x="393.62" y="-144.62" font-family="Helvetica,sans-Serif" font-size="10.00">ml::core::CPackedBitVector</text>
<text text-anchor="middle" x="454.75" y="-133.38" font-family="Helvetica,sans-Serif" font-size="10.00">::operator|=</text>
</a>
</g>
</g>
<!-- Node2&#45;&gt;Node5 -->
<g id="edge4_Node000002_Node000005" class="edge">
<title>Node2&#45;&gt;Node5</title>
<g id="a_edge4_Node000002_Node000005"><a xlink:title=" ">
<path fill="none" stroke="#63b8ff" d="M557.83,-158.05C546.58,-156.38 535.1,-154.67 524.09,-153.03"/>
<polygon fill="#63b8ff" stroke="#63b8ff" points="557.07,-161.47 567.47,-159.48 558.1,-154.55 557.07,-161.47"/>
</a>
</g>
</g>
<!-- Node7 -->
<g id="Node000007" class="node">
<title>Node7</title>
<g id="a_Node000007"><a xlink:href="../../d8/d57/_c_packed_bit_vector_test_8cc.html#ac4e319dcef8b8375ad7968b7341ea453" target="_top" xlink:title=" ">
<polygon fill="white" stroke="#666666" points="528.38,-109.5 381.12,-109.5 381.12,-90.25 528.38,-90.25 528.38,-109.5"/>
<text text-anchor="middle" x="454.75" y="-96" font-family="Helvetica,sans-Serif" font-size="10.00">BOOST_AUTO_TEST_CASE</text>
</a>
</g>
</g>
<!-- Node6&#45;&gt;Node7 -->
<g id="edge6_Node000006_Node000007" class="edge">
<title>Node6&#45;&gt;Node7</title>
<g id="a_edge6_Node000006_Node000007"><a xlink:title=" ">
<path fill="none" stroke="#63b8ff" d="M557.72,-99.88C548.05,-99.88 538.21,-99.88 528.64,-99.88"/>
<polygon fill="#63b8ff" stroke="#63b8ff" points="557.46,-103.38 567.46,-99.88 557.46,-96.38 557.46,-103.38"/>
</a>
</g>
</g>
<!-- Node8 -->
<g id="Node000008" class="node">
<title>Node8</title>
<g id="a_Node000008"><a xlink:href="../../df/d0a/structml_1_1maths_1_1common_1_1_c_k_most_correlated_1_1_s_correlation.html#a6c5f31d8960d415f9b022f028a0ae177" target="_top" xlink:title=" ">
<polygon fill="white" stroke="#666666" points="533.25,-71.75 376.25,-71.75 376.25,-30 533.25,-30 533.25,-71.75"/>
<text text-anchor="start" x="384.25" y="-58.25" font-family="Helvetica,sans-Serif" font-size="10.00">ml::maths::common::</text>
<text text-anchor="start" x="384.25" y="-47" font-family="Helvetica,sans-Serif" font-size="10.00">CKMostCorrelated::SCorrelation</text>
<text text-anchor="middle" x="454.75" y="-35.75" font-family="Helvetica,sans-Serif" font-size="10.00">::correlation</text>
</a>
</g>
</g>
<!-- Node6&#45;&gt;Node8 -->
<g id="edge7_Node000006_Node000008" class="edge">
<title>Node6&#45;&gt;Node8</title>
<g id="a_edge7_Node000006_Node000008"><a xlink:title=" ">
<path fill="none" stroke="#63b8ff" d="M568.05,-81.17C556.76,-78.13 545,-74.95 533.52,-71.86"/>
<polygon fill="#63b8ff" stroke="#63b8ff" points="567.13,-84.55 577.7,-83.77 568.95,-77.79 567.13,-84.55"/>
</a>
</g>
</g>
<!-- Node9 -->
<g id="Node000009" class="node">
<title>Node9</title>
<g id="a_Node000009"><a xlink:href="../../d8/de0/namespaceanonymous__namespace_02_c_k_most_correlated_test_8cc_03.html#ac5eabf80b6d499328f4a97a1298dbd3d" target="_top" xlink:title=" ">
<polygon fill="white" stroke="#666666" points="324.88,-101.75 198.62,-101.75 198.62,-60 324.88,-60 324.88,-101.75"/>
<text text-anchor="start" x="206.62" y="-88.25" font-family="Helvetica,sans-Serif" font-size="10.00">anonymous_namespace</text>
<text text-anchor="start" x="206.62" y="-77" font-family="Helvetica,sans-Serif" font-size="10.00">{CKMostCorrelatedTest</text>
<text text-anchor="middle" x="261.75" y="-65.75" font-family="Helvetica,sans-Serif" font-size="10.00">::cc}::estimateCorrelation</text>
</a>
</g>
</g>
<!-- Node8&#45;&gt;Node9 -->
<g id="edge8_Node000008_Node000009" class="edge">
<title>Node8&#45;&gt;Node9</title>
<g id="a_edge8_Node000008_Node000009"><a xlink:title=" ">
<path fill="none" stroke="#63b8ff" d="M364.67,-64.87C351.36,-66.96 337.88,-69.07 325.28,-71.05"/>
<polygon fill="#63b8ff" stroke="#63b8ff" points="364.96,-68.36 374.29,-63.36 363.87,-61.45 364.96,-68.36"/>
</a>
</g>
</g>
<!-- Node11 -->
<g id="Node000011" class="node">
<title>Node11</title>
<g id="a_Node000011"><a xlink:href="../../df/d0a/structml_1_1maths_1_1common_1_1_c_k_most_correlated_1_1_s_correlation.html#a1605b642b62cb8e1cf1ba6eea3479e82" target="_top" xlink:title=" ">
<polygon fill="white" stroke="#666666" points="340.25,-41.75 183.25,-41.75 183.25,0 340.25,0 340.25,-41.75"/>
<text text-anchor="start" x="191.25" y="-28.25" font-family="Helvetica,sans-Serif" font-size="10.00">ml::maths::common::</text>
<text text-anchor="start" x="191.25" y="-17" font-family="Helvetica,sans-Serif" font-size="10.00">CKMostCorrelated::SCorrelation</text>
<text text-anchor="middle" x="261.75" y="-5.75" font-family="Helvetica,sans-Serif" font-size="10.00">::SCorrelation</text>
</a>
</g>
</g>
<!-- Node8&#45;&gt;Node11 -->
<g id="edge10_Node000008_Node000011" class="edge">
<title>Node8&#45;&gt;Node11</title>
<g id="a_edge10_Node000008_Node000011"><a xlink:title=" ">
<path fill="none" stroke="#63b8ff" d="M364.5,-36.86C356.47,-35.6 348.38,-34.33 340.46,-33.08"/>
<polygon fill="#63b8ff" stroke="#63b8ff" points="363.87,-40.3 374.29,-38.39 364.96,-33.39 363.87,-40.3"/>
</a>
</g>
</g>
<!-- Node10 -->
<g id="Node000010" class="node">
<title>Node10</title>
<g id="a_Node000010"><a xlink:href="../../db/de9/_c_k_most_correlated_test_8cc.html#a550e1f0a501cda708bd8243f3aa45c91" target="_top" xlink:title=" ">
<polygon fill="white" stroke="#666666" points="147.25,-90.5 0,-90.5 0,-71.25 147.25,-71.25 147.25,-90.5"/>
<text text-anchor="middle" x="73.62" y="-77" font-family="Helvetica,sans-Serif" font-size="10.00">BOOST_AUTO_TEST_CASE</text>
</a>
</g>
</g>
<!-- Node9&#45;&gt;Node10 -->
<g id="edge9_Node000009_Node000010" class="edge">
<title>Node9&#45;&gt;Node10</title>
<g id="a_edge9_Node000009_Node000010"><a xlink:title=" ">
<path fill="none" stroke="#63b8ff" d="M187.01,-80.88C174.03,-80.88 160.53,-80.88 147.58,-80.88"/>
<polygon fill="#63b8ff" stroke="#63b8ff" points="186.74,-84.38 196.74,-80.88 186.74,-77.38 186.74,-84.38"/>
</a>
</g>
</g>
</g>
</svg>
