<?xml version="1.0" encoding="UTF-8" standalone="no"?>
<!DOCTYPE svg PUBLIC "-//W3C//DTD SVG 1.1//EN"
 "http://www.w3.org/Graphics/SVG/1.1/DTD/svg11.dtd">
<!-- Generated by graphviz version 10.0.1 (20240210.2158)
 -->
<!-- Title: ml::core::CPackedBitVector::contract Pages: 1 -->
<svg width="495pt" height="102pt"
 viewBox="0.00 0.00 494.75 101.87" xmlns="http://www.w3.org/2000/svg" xmlns:xlink="http://www.w3.org/1999/xlink">
<g id="graph0" class="graph" transform="scale(1 1) rotate(0) translate(4 97.87)">
<title>ml::core::CPackedBitVector::contract</title>
<!-- Node1 -->
<g id="Node000001" class="node">
<title>Node1</title>
<g id="a_Node000001"><a xlink:title="Contract the vector by popping a component from the start.">
<polygon fill="#999999" stroke="#666666" points="138.25,-79.5 0,-79.5 0,-49 138.25,-49 138.25,-79.5"/>
<text text-anchor="start" x="8" y="-66" font-family="Helvetica,sans-Serif" font-size="10.00">ml::core::CPackedBitVector</text>
<text text-anchor="middle" x="69.12" y="-54.75" font-family="Helvetica,sans-Serif" font-size="10.00">::contract</text>
</a>
</g>
</g>
<!-- Node2 -->
<g id="Node000002" class="node">
<title>Node2</title>
<g id="a_Node000002"><a xlink:href="../../d6/d52/classml_1_1core_1_1_c_packed_bit_vector.html#ae9a4d87a78e7e3718e0299017868b307" target="_top" xlink:title=" ">
<polygon fill="white" stroke="#666666" points="486.75,-76.5 348.5,-76.5 348.5,-46 486.75,-46 486.75,-76.5"/>
<text text-anchor="start" x="356.5" y="-63" font-family="Helvetica,sans-Serif" font-size="10.00">ml::core::CPackedBitVector</text>
<text text-anchor="middle" x="417.62" y="-51.75" font-family="Helvetica,sans-Serif" font-size="10.00">::bytes</text>
</a>
</g>
</g>
<!-- Node1&#45;&gt;Node2 -->
<g id="edge1_Node000001_Node000002" class="edge">
<title>Node1&#45;&gt;Node2</title>
<g id="a_edge1_Node000001_Node000002"><a xlink:title=" ">
<path fill="none" stroke="#63b8ff" d="M127.82,-80C142.82,-83.41 159.04,-86.52 174.25,-88.25 235.3,-95.19 251.55,-96.02 312.5,-88.25 326.61,-86.45 341.53,-83.33 355.54,-79.84"/>
<polygon fill="#63b8ff" stroke="#63b8ff" points="356.29,-83.26 365.09,-77.36 354.53,-76.49 356.29,-83.26"/>
</a>
</g>
</g>
<!-- Node3 -->
<g id="Node000003" class="node">
<title>Node3</title>
<g id="a_Node000003"><a xlink:href="../../d6/d52/classml_1_1core_1_1_c_packed_bit_vector.html#ae6d9c61f436a57a38691bb19b4054e73" target="_top" xlink:title=" ">
<polygon fill="white" stroke="#666666" points="312.5,-79.5 174.25,-79.5 174.25,-49 312.5,-49 312.5,-79.5"/>
<text text-anchor="start" x="182.25" y="-66" font-family="Helvetica,sans-Serif" font-size="10.00">ml::core::CPackedBitVector</text>
<text text-anchor="middle" x="243.38" y="-54.75" font-family="Helvetica,sans-Serif" font-size="10.00">::readRunLength</text>
</a>
</g>
</g>
<!-- Node1&#45;&gt;Node3 -->
<g id="edge2_Node000001_Node000003" class="edge">
<title>Node1&#45;&gt;Node3</title>
<g id="a_edge2_Node000001_Node000003"><a xlink:title=" ">
<path fill="none" stroke="#63b8ff" d="M138.7,-64.25C146.45,-64.25 154.4,-64.25 162.29,-64.25"/>
<polygon fill="#63b8ff" stroke="#63b8ff" points="162.24,-67.75 172.24,-64.25 162.24,-60.75 162.24,-67.75"/>
</a>
</g>
</g>
<!-- Node4 -->
<g id="Node000004" class="node">
<title>Node4</title>
<g id="a_Node000004"><a xlink:href="../../d6/d52/classml_1_1core_1_1_c_packed_bit_vector.html#a495d71889bdd3fa04554c3a69bfe4140" target="_top" xlink:title=" ">
<polygon fill="white" stroke="#666666" points="312.5,-30.5 174.25,-30.5 174.25,0 312.5,0 312.5,-30.5"/>
<text text-anchor="start" x="182.25" y="-17" font-family="Helvetica,sans-Serif" font-size="10.00">ml::core::CPackedBitVector</text>
<text text-anchor="middle" x="243.38" y="-5.75" font-family="Helvetica,sans-Serif" font-size="10.00">::writeRunLength</text>
</a>
</g>
</g>
<!-- Node1&#45;&gt;Node4 -->
<g id="edge3_Node000001_Node000004" class="edge">
<title>Node1&#45;&gt;Node4</title>
<g id="a_edge3_Node000001_Node000004"><a xlink:title=" ">
<path fill="none" stroke="#63b8ff" d="M125.1,-48.61C141.33,-43.99 159.27,-38.89 176.14,-34.09"/>
<polygon fill="#63b8ff" stroke="#63b8ff" points="176.92,-37.51 185.58,-31.41 175,-30.78 176.92,-37.51"/>
</a>
</g>
</g>
<!-- Node4&#45;&gt;Node2 -->
<g id="edge4_Node000004_Node000002" class="edge">
<title>Node4&#45;&gt;Node2</title>
<g id="a_edge4_Node000004_Node000002"><a xlink:title=" ">
<path fill="none" stroke="#63b8ff" d="M303.17,-30.95C317.23,-34.71 332.37,-38.75 346.87,-42.62"/>
<polygon fill="#63b8ff" stroke="#63b8ff" points="345.77,-45.95 356.34,-45.15 347.58,-39.19 345.77,-45.95"/>
</a>
</g>
</g>
</g>
</svg>
