<?xml version="1.0" encoding="UTF-8" standalone="no"?>
<!DOCTYPE svg PUBLIC "-//W3C//DTD SVG 1.1//EN"
 "http://www.w3.org/Graphics/SVG/1.1/DTD/svg11.dtd">
<!-- Generated by graphviz version 10.0.1 (20240210.2158)
 -->
<!-- Title: ml::core::CPackedBitVector::popRunLength Pages: 1 -->
<!--zoomable 463 -->

<svg id="main" version="1.1" xmlns="http://www.w3.org/2000/svg" xmlns:xlink="http://www.w3.org/1999/xlink" xml:space="preserve" onload="init(evt)">
<style type="text/css"><![CDATA[
.node, .edge {opacity: 0.7;}
.node.selected, .edge.selected {opacity: 1;}
.edge:hover path { stroke: red; }
.edge:hover polygon { stroke: red; fill: red; }
]]></style>

<defs>
  <circle id="rim" cx="0" cy="0" r="7"/>
  <circle id="rim2" cx="0" cy="0" r="3.5"/>
  <g id="zoomPlus">
    <use xlink:href="#rim" fill="#404040"><set attributeName="fill" to="#808080" begin="zoomplus.mouseover" end="zoomplus.mouseout"/></use>
    <path d="M-4,0h8M0,-4v8" fill="none" stroke="white" stroke-width="1.5" pointer-events="none"/>
  </g>
  <g id="zoomMin">
    <use xlink:href="#rim" fill="#404040"><set attributeName="fill" to="#808080" begin="zoomminus.mouseover" end="zoomminus.mouseout"/></use>
    <path d="M-4,0h8" fill="none" stroke="white" stroke-width="1.5" pointer-events="none"/>
  </g>
  <g id="arrowUp" transform="translate(30 24)">
    <use xlink:href="#rim"/>
    <path pointer-events="none" fill="none" stroke="white" stroke-width="1.5" d="M0,-3.0v7 M-2.5,-0.5L0,-3.0L2.5,-0.5"/>
  </g>
  <g id="arrowRight" transform="rotate(90) translate(36 -43)">
    <use xlink:href="#rim"/>
    <path pointer-events="none" fill="none" stroke="white" stroke-width="1.5" d="M0,-3.0v7 M-2.5,-0.5L0,-3.0L2.5,-0.5"/>
  </g>
  <g id="arrowDown" transform="rotate(180) translate(-30 -48)">
    <use xlink:href="#rim"/>
    <path pointer-events="none" fill="none" stroke="white" stroke-width="1.5" d="M0,-3.0v7 M-2.5,-0.5L0,-3.0L2.5,-0.5"/>
  </g>
  <g id="arrowLeft" transform="rotate(270) translate(-36 17)">
    <use xlink:href="#rim"/>
    <path pointer-events="none" fill="none" stroke="white" stroke-width="1.5" d="M0,-3.0v7 M-2.5,-0.5L0,-3.0L2.5,-0.5"/>
  </g>
  <g id="resetDef">
    <use xlink:href="#rim2" fill="#404040"><set attributeName="fill" to="#808080" begin="reset.mouseover" end="reset.mouseout"/></use>
  </g>
</defs>
<script type="application/ecmascript">
var viewWidth = 1095;
var viewHeight = 463;
var sectionId = 'dynsection-36';
</script>
<script type="application/ecmascript" xlink:href="../../svg.min.js"/>
<svg id="graph" class="graph">
<g id="viewport">
<title>ml::core::CPackedBitVector::popRunLength</title>
<!-- Node1 -->
<g id="Node000001" class="node">
<title>Node1</title>
<g id="a_Node000001"><a xlink:title=" ">
<polygon fill="#999999" stroke="#666666" points="1086.75,-223.88 948.5,-223.88 948.5,-193.38 1086.75,-193.38 1086.75,-223.88"/>
<text text-anchor="start" x="956.5" y="-210.38" font-family="Helvetica,sans-Serif" font-size="10.00">ml::core::CPackedBitVector</text>
<text text-anchor="middle" x="1017.62" y="-199.12" font-family="Helvetica,sans-Serif" font-size="10.00">::popRunLength</text>
</a>
</g>
</g>
<!-- Node2 -->
<g id="Node000002" class="node">
<title>Node2</title>
<g id="a_Node000002"><a xlink:href="../../d6/de3/classml_1_1core_1_1_c_packed_bit_vector_1_1_c_one_bit_index_const_iterator.html#a80606b71ef84b019c74e24f60d269a38" target="_top" xlink:title=" ">
<polygon fill="white" stroke="#666666" points="713.12,-245.5 572.62,-245.5 572.62,-203.75 713.12,-203.75 713.12,-245.5"/>
<text text-anchor="start" x="580.62" y="-232" font-family="Helvetica,sans-Serif" font-size="10.00">ml::core::CPackedBitVector</text>
<text text-anchor="start" x="580.62" y="-220.75" font-family="Helvetica,sans-Serif" font-size="10.00">::COneBitIndexConstIterator</text>
<text text-anchor="middle" x="642.88" y="-209.5" font-family="Helvetica,sans-Serif" font-size="10.00">::COneBitIndexConstIterator</text>
</a>
</g>
</g>
<!-- Node1&#45;&gt;Node2 -->
<g id="edge1_Node000001_Node000002" class="edge">
<title>Node1&#45;&gt;Node2</title>
<g id="a_edge1_Node000001_Node000002"><a xlink:title=" ">
<path fill="none" stroke="#63b8ff" d="M982.87,-230.06C963.18,-241.28 937.38,-253.86 912.5,-259.62 843.22,-275.68 822.75,-270.66 752.5,-259.62 734.59,-256.81 715.61,-251.54 698.6,-245.92"/>
<polygon fill="#63b8ff" stroke="#63b8ff" points="984.42,-233.21 991.27,-225.12 980.87,-227.17 984.42,-233.21"/>
</a>
</g>
</g>
<!-- Node3 -->
<g id="Node000003" class="node">
<title>Node3</title>
<g id="a_Node000003"><a xlink:href="../../d6/d52/classml_1_1core_1_1_c_packed_bit_vector.html#ac0eebb5df26a9562043d149bbfb20ab8" target="_top" xlink:title=" ">
<polygon fill="white" stroke="#666666" points="901.62,-336.88 763.38,-336.88 763.38,-306.38 901.62,-306.38 901.62,-336.88"/>
<text text-anchor="start" x="771.38" y="-323.38" font-family="Helvetica,sans-Serif" font-size="10.00">ml::core::CPackedBitVector</text>
<text text-anchor="middle" x="832.5" y="-312.12" font-family="Helvetica,sans-Serif" font-size="10.00">::lineScan</text>
</a>
</g>
</g>
<!-- Node1&#45;&gt;Node3 -->
<g id="edge2_Node000001_Node000003" class="edge">
<title>Node1&#45;&gt;Node3</title>
<g id="a_edge2_Node000001_Node000003"><a xlink:title=" ">
<path fill="none" stroke="#63b8ff" d="M992.67,-231.78C972.57,-250.23 942.43,-275.67 912.5,-292.62 903.6,-297.67 893.66,-302.12 883.92,-305.93"/>
<polygon fill="#63b8ff" stroke="#63b8ff" points="994.87,-234.52 999.79,-225.14 990.09,-229.4 994.87,-234.52"/>
</a>
</g>
</g>
<!-- Node14 -->
<g id="Node000014" class="node">
<title>Node14</title>
<g id="a_Node000014"><a xlink:href="../../d6/d52/classml_1_1core_1_1_c_packed_bit_vector.html#ac582602b19389fed9da4f70a615d1e6f" target="_top" xlink:title="Get the i&#39;th component (no bounds checking).">
<polygon fill="white" stroke="#666666" points="901.62,-250.88 763.38,-250.88 763.38,-220.38 901.62,-220.38 901.62,-250.88"/>
<text text-anchor="start" x="771.38" y="-237.38" font-family="Helvetica,sans-Serif" font-size="10.00">ml::core::CPackedBitVector</text>
<text text-anchor="middle" x="832.5" y="-226.12" font-family="Helvetica,sans-Serif" font-size="10.00">::operator()</text>
</a>
</g>
</g>
<!-- Node1&#45;&gt;Node14 -->
<g id="edge13_Node000001_Node000014" class="edge">
<title>Node1&#45;&gt;Node14</title>
<g id="a_edge13_Node000001_Node000014"><a xlink:title=" ">
<path fill="none" stroke="#63b8ff" d="M937.04,-220.36C925.32,-222.09 913.33,-223.85 901.87,-225.55"/>
<polygon fill="#63b8ff" stroke="#63b8ff" points="937.3,-223.86 946.68,-218.94 936.27,-216.93 937.3,-223.86"/>
</a>
</g>
</g>
<!-- Node15 -->
<g id="Node000015" class="node">
<title>Node15</title>
<g id="a_Node000015"><a xlink:href="../../d1/dce/classanonymous__namespace_02_c_packed_bit_vector_test_8cc_03_1_1_c_packed_bit_vector_internals.html#aaf497e4060710fe9ce43c12a9d28630f" target="_top" xlink:title=" ">
<polygon fill="white" stroke="#666666" points="912.5,-143.12 752.5,-143.12 752.5,-90.12 912.5,-90.12 912.5,-143.12"/>
<text text-anchor="start" x="760.5" y="-129.62" font-family="Helvetica,sans-Serif" font-size="10.00">anonymous_namespace</text>
<text text-anchor="start" x="760.5" y="-118.38" font-family="Helvetica,sans-Serif" font-size="10.00">{CPackedBitVectorTest</text>
<text text-anchor="start" x="760.5" y="-107.12" font-family="Helvetica,sans-Serif" font-size="10.00">::cc}::CPackedBitVectorInternals</text>
<text text-anchor="middle" x="832.5" y="-95.88" font-family="Helvetica,sans-Serif" font-size="10.00">::popRunLength</text>
</a>
</g>
</g>
<!-- Node1&#45;&gt;Node15 -->
<g id="edge14_Node000001_Node000015" class="edge">
<title>Node1&#45;&gt;Node15</title>
<g id="a_edge14_Node000001_Node000015"><a xlink:title=" ">
<path fill="none" stroke="#63b8ff" d="M979.73,-187.45C960,-176.37 935.16,-162.82 912.5,-151.62 906.99,-148.9 901.21,-146.15 895.4,-143.45"/>
<polygon fill="#63b8ff" stroke="#63b8ff" points="977.8,-190.38 988.23,-192.25 981.25,-184.28 977.8,-190.38"/>
</a>
</g>
</g>
<!-- Node17 -->
<g id="Node000017" class="node">
<title>Node17</title>
<g id="a_Node000017"><a xlink:href="../../d6/de3/classml_1_1core_1_1_c_packed_bit_vector_1_1_c_one_bit_index_const_iterator.html#a42860e6ab73691fa47aa35e32968c0b5" target="_top" xlink:title=" ">
<polygon fill="white" stroke="#666666" points="902.75,-202.5 762.25,-202.5 762.25,-160.75 902.75,-160.75 902.75,-202.5"/>
<text text-anchor="start" x="770.25" y="-189" font-family="Helvetica,sans-Serif" font-size="10.00">ml::core::CPackedBitVector</text>
<text text-anchor="start" x="770.25" y="-177.75" font-family="Helvetica,sans-Serif" font-size="10.00">::COneBitIndexConstIterator</text>
<text text-anchor="middle" x="832.5" y="-166.5" font-family="Helvetica,sans-Serif" font-size="10.00">::skipRun</text>
</a>
</g>
</g>
<!-- Node1&#45;&gt;Node17 -->
<g id="edge16_Node000001_Node000017" class="edge">
<title>Node1&#45;&gt;Node17</title>
<g id="a_edge16_Node000001_Node000017"><a xlink:title=" ">
<path fill="none" stroke="#63b8ff" d="M936.99,-196.88C925.7,-195.22 914.17,-193.52 903.09,-191.88"/>
<polygon fill="#63b8ff" stroke="#63b8ff" points="936.27,-200.32 946.68,-198.31 937.3,-193.39 936.27,-200.32"/>
</a>
</g>
</g>
<!-- Node18 -->
<g id="Node000018" class="node">
<title>Node18</title>
<g id="a_Node000018"><a xlink:href="../../d6/d52/classml_1_1core_1_1_c_packed_bit_vector.html#a647673196a40f9ac493204b9833fbb5b" target="_top" xlink:title="Convert to a bit vector.">
<polygon fill="white" stroke="#666666" points="901.62,-68.88 763.38,-68.88 763.38,-38.38 901.62,-38.38 901.62,-68.88"/>
<text text-anchor="start" x="771.38" y="-55.38" font-family="Helvetica,sans-Serif" font-size="10.00">ml::core::CPackedBitVector</text>
<text text-anchor="middle" x="832.5" y="-44.12" font-family="Helvetica,sans-Serif" font-size="10.00">::toBitVector</text>
</a>
</g>
</g>
<!-- Node1&#45;&gt;Node18 -->
<g id="edge18_Node000001_Node000018" class="edge">
<title>Node1&#45;&gt;Node18</title>
<g id="a_edge18_Node000001_Node000018"><a xlink:title=" ">
<path fill="none" stroke="#63b8ff" d="M1002.27,-183.57C984.62,-154.85 952.06,-108.19 912.5,-80.62 906.2,-76.23 899.12,-72.5 891.85,-69.35"/>
<polygon fill="#63b8ff" stroke="#63b8ff" points="999.17,-185.2 1007.31,-191.97 1005.17,-181.6 999.17,-185.2"/>
</a>
</g>
</g>
<!-- Node4 -->
<g id="Node000004" class="node">
<title>Node4</title>
<g id="a_Node000004"><a xlink:href="../../d6/d52/classml_1_1core_1_1_c_packed_bit_vector.html#a629f201d3113c10de014edf398a36a3b" target="_top" xlink:title=" ">
<polygon fill="white" stroke="#666666" points="712,-302.88 573.75,-302.88 573.75,-272.38 712,-272.38 712,-302.88"/>
<text text-anchor="start" x="581.75" y="-289.38" font-family="Helvetica,sans-Serif" font-size="10.00">ml::core::CPackedBitVector</text>
<text text-anchor="middle" x="642.88" y="-278.12" font-family="Helvetica,sans-Serif" font-size="10.00">::bitwise</text>
</a>
</g>
</g>
<!-- Node3&#45;&gt;Node4 -->
<g id="edge3_Node000003_Node000004" class="edge">
<title>Node3&#45;&gt;Node4</title>
<g id="a_edge3_Node000003_Node000004"><a xlink:title=" ">
<path fill="none" stroke="#63b8ff" d="M751.97,-307.21C738.75,-304.82 725.14,-302.35 712.22,-300.01"/>
<polygon fill="#63b8ff" stroke="#63b8ff" points="751.01,-310.6 761.48,-308.94 752.26,-303.71 751.01,-310.6"/>
</a>
</g>
</g>
<!-- Node8 -->
<g id="Node000008" class="node">
<title>Node8</title>
<g id="a_Node000008"><a xlink:href="../../d6/d52/classml_1_1core_1_1_c_packed_bit_vector.html#ab185b65c26283d2e2e16fd5d25b812b3" target="_top" xlink:title="Inner product.">
<polygon fill="white" stroke="#666666" points="712,-369.88 573.75,-369.88 573.75,-339.38 712,-339.38 712,-369.88"/>
<text text-anchor="start" x="581.75" y="-356.38" font-family="Helvetica,sans-Serif" font-size="10.00">ml::core::CPackedBitVector</text>
<text text-anchor="middle" x="642.88" y="-345.12" font-family="Helvetica,sans-Serif" font-size="10.00">::inner</text>
</a>
</g>
</g>
<!-- Node3&#45;&gt;Node8 -->
<g id="edge7_Node000003_Node000008" class="edge">
<title>Node3&#45;&gt;Node8</title>
<g id="a_edge7_Node000003_Node000008"><a xlink:title=" ">
<path fill="none" stroke="#63b8ff" d="M751.97,-335.61C738.75,-337.94 725.14,-340.33 712.22,-342.6"/>
<polygon fill="#63b8ff" stroke="#63b8ff" points="752.23,-339.12 761.48,-333.94 751.02,-332.23 752.23,-339.12"/>
</a>
</g>
</g>
<!-- Node5 -->
<g id="Node000005" class="node">
<title>Node5</title>
<g id="a_Node000005"><a xlink:href="../../d6/d52/classml_1_1core_1_1_c_packed_bit_vector.html#acc7327856ef0eead14baf0534fb877d6" target="_top" xlink:title="Update to the bitwise and of this and other.">
<polygon fill="white" stroke="#666666" points="523.88,-326.88 385.62,-326.88 385.62,-296.38 523.88,-296.38 523.88,-326.88"/>
<text text-anchor="start" x="393.62" y="-313.38" font-family="Helvetica,sans-Serif" font-size="10.00">ml::core::CPackedBitVector</text>
<text text-anchor="middle" x="454.75" y="-302.12" font-family="Helvetica,sans-Serif" font-size="10.00">::operator&amp;=</text>
</a>
</g>
</g>
<!-- Node4&#45;&gt;Node5 -->
<g id="edge4_Node000004_Node000005" class="edge">
<title>Node4&#45;&gt;Node5</title>
<g id="a_edge4_Node000004_Node000005"><a xlink:title=" ">
<path fill="none" stroke="#63b8ff" d="M562.3,-297.89C549.59,-299.52 536.54,-301.21 524.12,-302.81"/>
<polygon fill="#63b8ff" stroke="#63b8ff" points="562.39,-301.4 571.86,-296.65 561.5,-294.46 562.39,-301.4"/>
</a>
</g>
</g>
<!-- Node6 -->
<g id="Node000006" class="node">
<title>Node6</title>
<g id="a_Node000006"><a xlink:href="../../d6/d52/classml_1_1core_1_1_c_packed_bit_vector.html#aedad0e16cadd02fb0c7f6f9ccd91fc1d" target="_top" xlink:title="Update to the bitwise xor of this and other.">
<polygon fill="white" stroke="#666666" points="523.88,-277.88 385.62,-277.88 385.62,-247.38 523.88,-247.38 523.88,-277.88"/>
<text text-anchor="start" x="393.62" y="-264.38" font-family="Helvetica,sans-Serif" font-size="10.00">ml::core::CPackedBitVector</text>
<text text-anchor="middle" x="454.75" y="-253.12" font-family="Helvetica,sans-Serif" font-size="10.00">::operator^=</text>
</a>
</g>
</g>
<!-- Node4&#45;&gt;Node6 -->
<g id="edge5_Node000004_Node000006" class="edge">
<title>Node4&#45;&gt;Node6</title>
<g id="a_edge5_Node000004_Node000006"><a xlink:title=" ">
<path fill="none" stroke="#63b8ff" d="M562.3,-276.94C549.59,-275.23 536.54,-273.48 524.12,-271.81"/>
<polygon fill="#63b8ff" stroke="#63b8ff" points="561.48,-280.36 571.86,-278.22 562.42,-273.42 561.48,-280.36"/>
</a>
</g>
</g>
<!-- Node7 -->
<g id="Node000007" class="node">
<title>Node7</title>
<g id="a_Node000007"><a xlink:href="../../d6/d52/classml_1_1core_1_1_c_packed_bit_vector.html#a84beb97ead75948e7118b06d2a0c752f" target="_top" xlink:title="Update to the bitwise or of this and other.">
<polygon fill="white" stroke="#666666" points="523.88,-228.88 385.62,-228.88 385.62,-198.38 523.88,-198.38 523.88,-228.88"/>
<text text-anchor="start" x="393.62" y="-215.38" font-family="Helvetica,sans-Serif" font-size="10.00">ml::core::CPackedBitVector</text>
<text text-anchor="middle" x="454.75" y="-204.12" font-family="Helvetica,sans-Serif" font-size="10.00">::operator|=</text>
</a>
</g>
</g>
<!-- Node4&#45;&gt;Node7 -->
<g id="edge6_Node000004_Node000007" class="edge">
<title>Node4&#45;&gt;Node7</title>
<g id="a_edge6_Node000004_Node000007"><a xlink:title=" ">
<path fill="none" stroke="#63b8ff" d="M597.15,-267.31C568.72,-254.42 536.62,-239.93 533.25,-238.62 524.94,-235.42 516.03,-232.28 507.31,-229.37"/>
<polygon fill="#63b8ff" stroke="#63b8ff" points="595.47,-270.4 606.03,-271.34 598.36,-264.02 595.47,-270.4"/>
</a>
</g>
</g>
<!-- Node9 -->
<g id="Node000009" class="node">
<title>Node9</title>
<g id="a_Node000009"><a xlink:href="../../d8/d57/_c_packed_bit_vector_test_8cc.html#ac4e319dcef8b8375ad7968b7341ea453" target="_top" xlink:title=" ">
<polygon fill="white" stroke="#666666" points="528.38,-364.25 381.12,-364.25 381.12,-345 528.38,-345 528.38,-364.25"/>
<text text-anchor="middle" x="454.75" y="-350.75" font-family="Helvetica,sans-Serif" font-size="10.00">BOOST_AUTO_TEST_CASE</text>
</a>
</g>
</g>
<!-- Node8&#45;&gt;Node9 -->
<g id="edge8_Node000008_Node000009" class="edge">
<title>Node8&#45;&gt;Node9</title>
<g id="a_edge8_Node000008_Node000009"><a xlink:title=" ">
<path fill="none" stroke="#63b8ff" d="M561.99,-354.62C550.97,-354.62 539.7,-354.62 528.81,-354.62"/>
<polygon fill="#63b8ff" stroke="#63b8ff" points="561.85,-358.13 571.85,-354.63 561.85,-351.13 561.85,-358.13"/>
</a>
</g>
</g>
<!-- Node10 -->
<g id="Node000010" class="node">
<title>Node10</title>
<g id="a_Node000010"><a xlink:href="../../df/d0a/structml_1_1maths_1_1common_1_1_c_k_most_correlated_1_1_s_correlation.html#a6c5f31d8960d415f9b022f028a0ae177" target="_top" xlink:title=" ">
<polygon fill="white" stroke="#666666" points="533.25,-424.5 376.25,-424.5 376.25,-382.75 533.25,-382.75 533.25,-424.5"/>
<text text-anchor="start" x="384.25" y="-411" font-family="Helvetica,sans-Serif" font-size="10.00">ml::maths::common::</text>
<text text-anchor="start" x="384.25" y="-399.75" font-family="Helvetica,sans-Serif" font-size="10.00">CKMostCorrelated::SCorrelation</text>
<text text-anchor="middle" x="454.75" y="-388.5" font-family="Helvetica,sans-Serif" font-size="10.00">::correlation</text>
</a>
</g>
</g>
<!-- Node8&#45;&gt;Node10 -->
<g id="edge9_Node000008_Node000010" class="edge">
<title>Node8&#45;&gt;Node10</title>
<g id="a_edge9_Node000008_Node000010"><a xlink:title=" ">
<path fill="none" stroke="#63b8ff" d="M571.09,-373.26C558.78,-376.5 545.92,-379.89 533.43,-383.17"/>
<polygon fill="#63b8ff" stroke="#63b8ff" points="571.97,-376.65 580.75,-370.72 570.19,-369.88 571.97,-376.65"/>
</a>
</g>
</g>
<!-- Node11 -->
<g id="Node000011" class="node">
<title>Node11</title>
<g id="a_Node000011"><a xlink:href="../../d8/de0/namespaceanonymous__namespace_02_c_k_most_correlated_test_8cc_03.html#ac5eabf80b6d499328f4a97a1298dbd3d" target="_top" xlink:title=" ">
<polygon fill="white" stroke="#666666" points="324.88,-454.5 198.62,-454.5 198.62,-412.75 324.88,-412.75 324.88,-454.5"/>
<text text-anchor="start" x="206.62" y="-441" font-family="Helvetica,sans-Serif" font-size="10.00">anonymous_namespace</text>
<text text-anchor="start" x="206.62" y="-429.75" font-family="Helvetica,sans-Serif" font-size="10.00">{CKMostCorrelatedTest</text>
<text text-anchor="middle" x="261.75" y="-418.5" font-family="Helvetica,sans-Serif" font-size="10.00">::cc}::estimateCorrelation</text>
</a>
</g>
</g>
<!-- Node10&#45;&gt;Node11 -->
<g id="edge10_Node000010_Node000011" class="edge">
<title>Node10&#45;&gt;Node11</title>
<g id="a_edge10_Node000010_Node000011"><a xlink:title=" ">
<path fill="none" stroke="#63b8ff" d="M364.67,-417.62C351.36,-419.71 337.88,-421.82 325.28,-423.8"/>
<polygon fill="#63b8ff" stroke="#63b8ff" points="364.96,-421.11 374.29,-416.11 363.87,-414.2 364.96,-421.11"/>
</a>
</g>
</g>
<!-- Node13 -->
<g id="Node000013" class="node">
<title>Node13</title>
<g id="a_Node000013"><a xlink:href="../../df/d0a/structml_1_1maths_1_1common_1_1_c_k_most_correlated_1_1_s_correlation.html#a1605b642b62cb8e1cf1ba6eea3479e82" target="_top" xlink:title=" ">
<polygon fill="white" stroke="#666666" points="340.25,-394.5 183.25,-394.5 183.25,-352.75 340.25,-352.75 340.25,-394.5"/>
<text text-anchor="start" x="191.25" y="-381" font-family="Helvetica,sans-Serif" font-size="10.00">ml::maths::common::</text>
<text text-anchor="start" x="191.25" y="-369.75" font-family="Helvetica,sans-Serif" font-size="10.00">CKMostCorrelated::SCorrelation</text>
<text text-anchor="middle" x="261.75" y="-358.5" font-family="Helvetica,sans-Serif" font-size="10.00">::SCorrelation</text>
</a>
</g>
</g>
<!-- Node10&#45;&gt;Node13 -->
<g id="edge12_Node000010_Node000013" class="edge">
<title>Node10&#45;&gt;Node13</title>
<g id="a_edge12_Node000010_Node000013"><a xlink:title=" ">
<path fill="none" stroke="#63b8ff" d="M364.5,-389.61C356.47,-388.35 348.38,-387.08 340.46,-385.83"/>
<polygon fill="#63b8ff" stroke="#63b8ff" points="363.87,-393.05 374.29,-391.14 364.96,-386.14 363.87,-393.05"/>
</a>
</g>
</g>
<!-- Node12 -->
<g id="Node000012" class="node">
<title>Node12</title>
<g id="a_Node000012"><a xlink:href="../../db/de9/_c_k_most_correlated_test_8cc.html#a550e1f0a501cda708bd8243f3aa45c91" target="_top" xlink:title=" ">
<polygon fill="white" stroke="#666666" points="147.25,-443.25 0,-443.25 0,-424 147.25,-424 147.25,-443.25"/>
<text text-anchor="middle" x="73.62" y="-429.75" font-family="Helvetica,sans-Serif" font-size="10.00">BOOST_AUTO_TEST_CASE</text>
</a>
</g>
</g>
<!-- Node11&#45;&gt;Node12 -->
<g id="edge11_Node000011_Node000012" class="edge">
<title>Node11&#45;&gt;Node12</title>
<g id="a_edge11_Node000011_Node000012"><a xlink:title=" ">
<path fill="none" stroke="#63b8ff" d="M187.01,-433.62C174.03,-433.62 160.53,-433.62 147.58,-433.62"/>
<polygon fill="#63b8ff" stroke="#63b8ff" points="186.74,-437.13 196.74,-433.63 186.74,-430.13 186.74,-437.13"/>
</a>
</g>
</g>
<!-- Node16 -->
<g id="Node000016" class="node">
<title>Node16</title>
<g id="a_Node000016"><a xlink:href="../../d8/d57/_c_packed_bit_vector_test_8cc.html#aa40a9e380eb4f85a32d799bb0380af69" target="_top" xlink:title=" ">
<polygon fill="white" stroke="#666666" points="716.5,-130.25 569.25,-130.25 569.25,-111 716.5,-111 716.5,-130.25"/>
<text text-anchor="middle" x="642.88" y="-116.75" font-family="Helvetica,sans-Serif" font-size="10.00">BOOST_AUTO_TEST_CASE</text>
</a>
</g>
</g>
<!-- Node15&#45;&gt;Node16 -->
<g id="edge15_Node000015_Node000016" class="edge">
<title>Node15&#45;&gt;Node16</title>
<g id="a_edge15_Node000015_Node000016"><a xlink:title=" ">
<path fill="none" stroke="#63b8ff" d="M740.89,-118.56C732.85,-118.73 724.78,-118.9 716.92,-119.07"/>
<polygon fill="#63b8ff" stroke="#63b8ff" points="740.77,-122.06 750.69,-118.35 740.62,-115.06 740.77,-122.06"/>
</a>
</g>
</g>
<!-- Node17&#45;&gt;Node2 -->
<g id="edge17_Node000017_Node000002" class="edge">
<title>Node17&#45;&gt;Node2</title>
<g id="a_edge17_Node000017_Node000002"><a xlink:title=" ">
<path fill="none" stroke="#63b8ff" d="M751,-200.07C738.47,-202.95 725.62,-205.89 713.36,-208.7"/>
<polygon fill="#63b8ff" stroke="#63b8ff" points="751.46,-203.56 760.43,-197.91 749.9,-196.74 751.46,-203.56"/>
</a>
</g>
</g>
<!-- Node19 -->
<g id="Node000019" class="node">
<title>Node19</title>
<g id="a_Node000019"><a xlink:href="../../d8/d57/_c_packed_bit_vector_test_8cc.html#a23dd3e0a57f96366c2c3df3de7d98676" target="_top" xlink:title=" ">
<polygon fill="white" stroke="#666666" points="716.5,-56.25 569.25,-56.25 569.25,-37 716.5,-37 716.5,-56.25"/>
<text text-anchor="middle" x="642.88" y="-42.75" font-family="Helvetica,sans-Serif" font-size="10.00">BOOST_AUTO_TEST_CASE</text>
</a>
</g>
</g>
<!-- Node18&#45;&gt;Node19 -->
<g id="edge19_Node000018_Node000019" class="edge">
<title>Node18&#45;&gt;Node19</title>
<g id="a_edge19_Node000018_Node000019"><a xlink:title=" ">
<path fill="none" stroke="#63b8ff" d="M751.59,-50.64C740.1,-50.21 728.31,-49.78 716.96,-49.35"/>
<polygon fill="#63b8ff" stroke="#63b8ff" points="751.33,-54.14 761.45,-51.01 751.59,-47.14 751.33,-54.14"/>
</a>
</g>
</g>
<!-- Node20 -->
<g id="Node000020" class="node">
<title>Node20</title>
<g id="a_Node000020"><a xlink:href="../../d8/d57/_c_packed_bit_vector_test_8cc.html#af8c05f1099b6e39241d27c05cac65fe4" target="_top" xlink:title=" ">
<polygon fill="white" stroke="#666666" points="716.5,-19.25 569.25,-19.25 569.25,0 716.5,0 716.5,-19.25"/>
<text text-anchor="middle" x="642.88" y="-5.75" font-family="Helvetica,sans-Serif" font-size="10.00">BOOST_AUTO_TEST_CASE</text>
</a>
</g>
</g>
<!-- Node18&#45;&gt;Node20 -->
<g id="edge20_Node000018_Node000020" class="edge">
<title>Node18&#45;&gt;Node20</title>
<g id="a_edge20_Node000018_Node000020"><a xlink:title=" ">
<path fill="none" stroke="#63b8ff" d="M753.48,-35.33C730.66,-29.98 706.56,-24.33 686.79,-19.69"/>
<polygon fill="#63b8ff" stroke="#63b8ff" points="752.55,-38.71 763.08,-37.58 754.15,-31.89 752.55,-38.71"/>
</a>
</g>
</g>
<!-- Node21 -->
<g id="Node000021" class="node">
<title>Node21</title>
<g id="a_Node000021"><a xlink:href="../../d8/d57/_c_packed_bit_vector_test_8cc.html#a5b4e77d7a53d3e1ee113fa43e9e1ddfd" target="_top" xlink:title=" ">
<polygon fill="white" stroke="#666666" points="716.5,-93.25 569.25,-93.25 569.25,-74 716.5,-74 716.5,-93.25"/>
<text text-anchor="middle" x="642.88" y="-79.75" font-family="Helvetica,sans-Serif" font-size="10.00">BOOST_AUTO_TEST_CASE</text>
</a>
</g>
</g>
<!-- Node18&#45;&gt;Node21 -->
<g id="edge21_Node000018_Node000021" class="edge">
<title>Node18&#45;&gt;Node21</title>
<g id="a_edge21_Node000018_Node000021"><a xlink:title=" ">
<path fill="none" stroke="#63b8ff" d="M751.66,-66.39C736.71,-68.78 721.28,-71.25 706.93,-73.54"/>
<polygon fill="#63b8ff" stroke="#63b8ff" points="752.15,-69.86 761.47,-64.82 751.04,-62.94 752.15,-69.86"/>
</a>
</g>
</g>
</g>
</svg>

<g id="navigator" transform="translate(0 0)" fill="#404254">
  <rect fill="#f2f5e9" fill-opacity="0.5" stroke="#606060" stroke-width=".5" x="0" y="0" width="60" height="60"/>
  <use id="zoomplus" xlink:href="#zoomPlus" x="17" y="9" onmousedown="handleZoom(evt,'in')"/>
  <use id="zoomminus" xlink:href="#zoomMin" x="42" y="9" onmousedown="handleZoom(evt,'out')"/>
  <use id="reset" xlink:href="#resetDef" x="30" y="36" onmousedown="handleReset()"/>
   <use id="arrowup" xlink:href="#arrowUp" x="0" y="0" onmousedown="handlePan(0,-1)"/>
  <use id="arrowright" xlink:href="#arrowRight" x="0" y="0" onmousedown="handlePan(1,0)"/>
  <use id="arrowdown" xlink:href="#arrowDown" x="0" y="0" onmousedown="handlePan(0,1)"/>
  <use id="arrowleft" xlink:href="#arrowLeft" x="0" y="0" onmousedown="handlePan(-1,0)"/>
</g>
<svg viewBox="0 0 15 15" width="100%" height="30px" preserveAspectRatio="xMaxYMin meet">
 <g id="arrow_out" transform="scale(0.3 0.3)">
  <a xlink:href="classml_1_1core_1_1_c_packed_bit_vector_a1fd3c1271bf4d576ec2e62b2645b9177_icgraph_org.svg" target="_base">
   <rect id="button" ry="5" rx="5" y="6" x="6" height="38" width="38"
        fill="#f2f5e9" fill-opacity="0.5" stroke="#606060" stroke-width="1.0"/>
   <path id="arrow"
     d="M 11.500037,31.436501 C 11.940474,20.09759 22.043105,11.32322 32.158766,21.979434 L 37.068811,17.246167 C 37.068811,17.246167 37.088388,32 37.088388,32 L 22.160133,31.978069 C 22.160133,31.978069 26.997745,27.140456 26.997745,27.140456 C 18.528582,18.264221 13.291696,25.230495 11.500037,31.436501 z"
     style="fill:#404040;"/>
  </a>
 </g>
</svg>

<style type='text/css'>
<![CDATA[
[data-mouse-over-selected='false'] { opacity: 0.7; }
[data-mouse-over-selected='true']  { opacity: 1.0; }
]]>
</style>
<script type="application/ecmascript"><![CDATA[
document.addEventListener('DOMContentLoaded', (event) => {
  highlightEdges();
  highlightAdjacentNodes();
});
]]></script>
</svg>
