<?xml version="1.0" encoding="UTF-8" standalone="no"?>
<!DOCTYPE svg PUBLIC "-//W3C//DTD SVG 1.1//EN"
 "http://www.w3.org/Graphics/SVG/1.1/DTD/svg11.dtd">
<!-- Generated by graphviz version 10.0.1 (20240210.2158)
 -->
<!-- Title: ml::model::CLocalCategoryId::index Pages: 1 -->
<svg width="606pt" height="252pt"
 viewBox="0.00 0.00 605.75 252.12" xmlns="http://www.w3.org/2000/svg" xmlns:xlink="http://www.w3.org/1999/xlink">
<g id="graph0" class="graph" transform="scale(1 1) rotate(0) translate(4 248.12)">
<title>ml::model::CLocalCategoryId::index</title>
<!-- Node1 -->
<g id="Node000001" class="node">
<title>Node1</title>
<g id="a_Node000001"><a xlink:title=" ">
<polygon fill="#999999" stroke="#666666" points="597.75,-146.5 462.5,-146.5 462.5,-116 597.75,-116 597.75,-146.5"/>
<text text-anchor="start" x="470.5" y="-133" font-family="Helvetica,sans-Serif" font-size="10.00">ml::model::CLocalCategory</text>
<text text-anchor="middle" x="530.12" y="-121.75" font-family="Helvetica,sans-Serif" font-size="10.00">Id::index</text>
</a>
</g>
</g>
<!-- Node2 -->
<g id="Node000002" class="node">
<title>Node2</title>
<g id="a_Node000002"><a xlink:href="../../dc/d68/classml_1_1model_1_1_c_token_list_data_categorizer_base.html#ac37176cfc2f4e23df1e8216e33d6b980" target="_top" xlink:title=" ">
<polygon fill="white" stroke="#666666" points="426.5,-195.5 238,-195.5 238,-165 426.5,-165 426.5,-195.5"/>
<text text-anchor="start" x="246" y="-182" font-family="Helvetica,sans-Serif" font-size="10.00">ml::model::CTokenListData</text>
<text text-anchor="middle" x="332.25" y="-170.75" font-family="Helvetica,sans-Serif" font-size="10.00">CategorizerBase::cacheReverseSearch</text>
</a>
</g>
</g>
<!-- Node1&#45;&gt;Node2 -->
<g id="edge1_Node000001_Node000002" class="edge">
<title>Node1&#45;&gt;Node2</title>
<g id="a_edge1_Node000001_Node000002"><a xlink:title=" ">
<path fill="none" stroke="#63b8ff" d="M455.34,-149.71C435.8,-154.6 414.9,-159.82 396.01,-164.55"/>
<polygon fill="#63b8ff" stroke="#63b8ff" points="456.02,-153.15 464.87,-147.32 454.32,-146.35 456.02,-153.15"/>
</a>
</g>
</g>
<!-- Node3 -->
<g id="Node000003" class="node">
<title>Node3</title>
<g id="a_Node000003"><a xlink:href="../../dc/d68/classml_1_1model_1_1_c_token_list_data_categorizer_base.html#aa0338078a16c42827915bf8e648d4106" target="_top" xlink:title=" ">
<polygon fill="white" stroke="#666666" points="178.75,-244.12 23.25,-244.12 23.25,-202.38 178.75,-202.38 178.75,-244.12"/>
<text text-anchor="start" x="31.25" y="-230.62" font-family="Helvetica,sans-Serif" font-size="10.00">ml::model::CTokenListData</text>
<text text-anchor="start" x="31.25" y="-219.38" font-family="Helvetica,sans-Serif" font-size="10.00">CategorizerBase::writeCategory</text>
<text text-anchor="middle" x="101" y="-208.12" font-family="Helvetica,sans-Serif" font-size="10.00">IfChanged</text>
</a>
</g>
</g>
<!-- Node1&#45;&gt;Node3 -->
<g id="edge8_Node000001_Node000003" class="edge">
<title>Node1&#45;&gt;Node3</title>
<g id="a_edge8_Node000001_Node000003"><a xlink:title=" ">
<path fill="none" stroke="#63b8ff" d="M504.85,-154.57C485.37,-171.69 456.41,-193.72 426.5,-204.25 345.59,-232.73 246.36,-234.08 179.09,-230.49"/>
<polygon fill="#63b8ff" stroke="#63b8ff" points="507.18,-157.19 512.24,-147.89 502.48,-152 507.18,-157.19"/>
</a>
</g>
</g>
<!-- Node5 -->
<g id="Node000005" class="node">
<title>Node5</title>
<g id="a_Node000005"><a xlink:href="../../d1/d2f/classml_1_1api_1_1_c_per_partition_category_id_mapper.html#ab74ec12b98c376e682a9186a40c4f4eb" target="_top" xlink:title=" ">
<polygon fill="white" stroke="#666666" points="407,-146.5 257.5,-146.5 257.5,-116 407,-116 407,-146.5"/>
<text text-anchor="start" x="265.5" y="-133" font-family="Helvetica,sans-Serif" font-size="10.00">ml::api::CPerPartitionCategory</text>
<text text-anchor="middle" x="332.25" y="-121.75" font-family="Helvetica,sans-Serif" font-size="10.00">IdMapper::map</text>
</a>
</g>
</g>
<!-- Node1&#45;&gt;Node5 -->
<g id="edge4_Node000001_Node000005" class="edge">
<title>Node1&#45;&gt;Node5</title>
<g id="a_edge4_Node000001_Node000005"><a xlink:title=" ">
<path fill="none" stroke="#63b8ff" d="M450.87,-131.25C436.46,-131.25 421.47,-131.25 407.2,-131.25"/>
<polygon fill="#63b8ff" stroke="#63b8ff" points="450.75,-134.75 460.75,-131.25 450.75,-127.75 450.75,-134.75"/>
</a>
</g>
</g>
<!-- Node6 -->
<g id="Node000006" class="node">
<title>Node6</title>
<g id="a_Node000006"><a xlink:href="../../dc/d68/classml_1_1model_1_1_c_token_list_data_categorizer_base.html#a9c8d17ab6e18cf274cea4629818a0647" target="_top" xlink:title=" ">
<polygon fill="white" stroke="#666666" points="407.75,-97.5 256.75,-97.5 256.75,-67 407.75,-67 407.75,-97.5"/>
<text text-anchor="start" x="264.75" y="-84" font-family="Helvetica,sans-Serif" font-size="10.00">ml::model::CTokenListData</text>
<text text-anchor="middle" x="332.25" y="-72.75" font-family="Helvetica,sans-Serif" font-size="10.00">CategorizerBase::numMatches</text>
</a>
</g>
</g>
<!-- Node1&#45;&gt;Node6 -->
<g id="edge5_Node000001_Node000006" class="edge">
<title>Node1&#45;&gt;Node6</title>
<g id="a_edge5_Node000001_Node000006"><a xlink:title=" ">
<path fill="none" stroke="#63b8ff" d="M455.34,-112.79C435.8,-107.9 414.9,-102.68 396.01,-97.95"/>
<polygon fill="#63b8ff" stroke="#63b8ff" points="454.32,-116.15 464.87,-115.18 456.02,-109.35 454.32,-116.15"/>
</a>
</g>
</g>
<!-- Node7 -->
<g id="Node000007" class="node">
<title>Node7</title>
<g id="a_Node000007"><a xlink:href="../../dc/d68/classml_1_1model_1_1_c_token_list_data_categorizer_base.html#ad93a280dfa0183057a3b66dffe9d2b1e" target="_top" xlink:title=" ">
<polygon fill="white" stroke="#666666" points="420.5,-30.5 244,-30.5 244,0 420.5,0 420.5,-30.5"/>
<text text-anchor="start" x="252" y="-17" font-family="Helvetica,sans-Serif" font-size="10.00">ml::model::CTokenListData</text>
<text text-anchor="middle" x="332.25" y="-5.75" font-family="Helvetica,sans-Serif" font-size="10.00">CategorizerBase::usurpedCategories</text>
</a>
</g>
</g>
<!-- Node1&#45;&gt;Node7 -->
<g id="edge6_Node000001_Node000007" class="edge">
<title>Node1&#45;&gt;Node7</title>
<g id="a_edge6_Node000001_Node000007"><a xlink:title=" ">
<path fill="none" stroke="#63b8ff" d="M500.51,-108.7C480.44,-93.45 452.63,-73.39 426.5,-58.25 408.92,-48.06 388.5,-38.42 371.26,-30.86"/>
<polygon fill="#63b8ff" stroke="#63b8ff" points="498.16,-111.31 508.22,-114.63 502.43,-105.76 498.16,-111.31"/>
</a>
</g>
</g>
<!-- Node2&#45;&gt;Node3 -->
<g id="edge2_Node000002_Node000003" class="edge">
<title>Node2&#45;&gt;Node3</title>
<g id="a_edge2_Node000002_Node000003"><a xlink:title=" ">
<path fill="none" stroke="#63b8ff" d="M236.37,-198.05C217.28,-201.63 197.44,-205.35 179.04,-208.8"/>
<polygon fill="#63b8ff" stroke="#63b8ff" points="236.84,-201.52 246.02,-196.24 235.55,-194.64 236.84,-201.52"/>
</a>
</g>
</g>
<!-- Node4 -->
<g id="Node000004" class="node">
<title>Node4</title>
<g id="a_Node000004"><a xlink:href="../../dc/d68/classml_1_1model_1_1_c_token_list_data_categorizer_base.html#a66e9244ef674cf221fd0d88e31659433" target="_top" xlink:title=" ">
<polygon fill="white" stroke="#666666" points="202,-184.5 0,-184.5 0,-154 202,-154 202,-184.5"/>
<text text-anchor="start" x="8" y="-171" font-family="Helvetica,sans-Serif" font-size="10.00">ml::model::CTokenListData</text>
<text text-anchor="middle" x="101" y="-159.75" font-family="Helvetica,sans-Serif" font-size="10.00">CategorizerBase::writeChangedCategories</text>
</a>
</g>
</g>
<!-- Node2&#45;&gt;Node4 -->
<g id="edge3_Node000002_Node000004" class="edge">
<title>Node2&#45;&gt;Node4</title>
<g id="a_edge3_Node000002_Node000004"><a xlink:title=" ">
<path fill="none" stroke="#63b8ff" d="M226.42,-175.22C218.41,-174.84 210.34,-174.45 202.36,-174.07"/>
<polygon fill="#63b8ff" stroke="#63b8ff" points="226.01,-178.7 236.16,-175.69 226.34,-171.71 226.01,-178.7"/>
</a>
</g>
</g>
<!-- Node7&#45;&gt;Node7 -->
<g id="edge7_Node000007_Node000007" class="edge">
<title>Node7&#45;&gt;Node7</title>
<g id="a_edge7_Node000007_Node000007"><a xlink:title=" ">
<path fill="none" stroke="#63b8ff" d="M365.43,-42.2C360.01,-45.97 348.95,-48.5 332.25,-48.5 301.72,-48.5 290.03,-40.06 297.19,-30.99"/>
<polygon fill="#63b8ff" stroke="#63b8ff" points="368.86,-42.92 367.06,-32.48 361.96,-41.76 368.86,-42.92"/>
</a>
</g>
</g>
</g>
</svg>
