<?xml version="1.0" encoding="UTF-8" standalone="no"?>
<!DOCTYPE svg PUBLIC "-//W3C//DTD SVG 1.1//EN"
 "http://www.w3.org/Graphics/SVG/1.1/DTD/svg11.dtd">
<!-- Generated by graphviz version 10.0.1 (20240210.2158)
 -->
<!-- Title: ml::model::CMetricBucketGatherer::initializeFeatureData Pages: 1 -->
<svg width="540pt" height="88pt"
 viewBox="0.00 0.00 539.75 87.50" xmlns="http://www.w3.org/2000/svg" xmlns:xlink="http://www.w3.org/1999/xlink">
<g id="graph0" class="graph" transform="scale(1 1) rotate(0) translate(4 83.5)">
<title>ml::model::CMetricBucketGatherer::initializeFeatureData</title>
<!-- Node1 -->
<g id="Node000001" class="node">
<title>Node1</title>
<g id="a_Node000001"><a xlink:title="Initialize the feature data gatherers.">
<polygon fill="#999999" stroke="#666666" points="531.75,-54.5 383,-54.5 383,-24 531.75,-24 531.75,-54.5"/>
<text text-anchor="start" x="391" y="-41" font-family="Helvetica,sans-Serif" font-size="10.00">ml::model::CMetricBucket</text>
<text text-anchor="middle" x="457.38" y="-29.75" font-family="Helvetica,sans-Serif" font-size="10.00">Gatherer::initializeFeatureData</text>
</a>
</g>
</g>
<!-- Node2 -->
<g id="Node000002" class="node">
<title>Node2</title>
<g id="a_Node000002"><a xlink:href="../../dc/d65/classml_1_1model_1_1_c_metric_bucket_gatherer.html#a4e7dc00661edd1c059355d1cbeb838fa" target="_top" xlink:title="Clear this data gatherer.">
<polygon fill="white" stroke="#666666" points="330.88,-79.5 200.88,-79.5 200.88,-49 330.88,-49 330.88,-79.5"/>
<text text-anchor="start" x="208.88" y="-66" font-family="Helvetica,sans-Serif" font-size="10.00">ml::model::CMetricBucket</text>
<text text-anchor="middle" x="265.88" y="-54.75" font-family="Helvetica,sans-Serif" font-size="10.00">Gatherer::clear</text>
</a>
</g>
</g>
<!-- Node1&#45;&gt;Node2 -->
<g id="edge1_Node000001_Node000002" class="edge">
<title>Node1&#45;&gt;Node2</title>
<g id="a_edge1_Node000001_Node000002"><a xlink:title=" ">
<path fill="none" stroke="#63b8ff" d="M371.34,-50.47C357.87,-52.25 344.14,-54.06 331.24,-55.76"/>
<polygon fill="#63b8ff" stroke="#63b8ff" points="371.61,-53.96 381.07,-49.19 370.69,-47.02 371.61,-53.96"/>
</a>
</g>
</g>
<!-- Node3 -->
<g id="Node000003" class="node">
<title>Node3</title>
<g id="a_Node000003"><a xlink:href="../../dc/d65/classml_1_1model_1_1_c_metric_bucket_gatherer.html#a4a041ddc13ae2df86910a60d47ede95d" target="_top" xlink:title=" ">
<polygon fill="white" stroke="#666666" points="347,-30.5 184.75,-30.5 184.75,0 347,0 347,-30.5"/>
<text text-anchor="start" x="192.75" y="-17" font-family="Helvetica,sans-Serif" font-size="10.00">ml::model::CMetricBucket</text>
<text text-anchor="middle" x="265.88" y="-5.75" font-family="Helvetica,sans-Serif" font-size="10.00">Gatherer::CMetricBucketGatherer</text>
</a>
</g>
</g>
<!-- Node1&#45;&gt;Node3 -->
<g id="edge2_Node000001_Node000003" class="edge">
<title>Node1&#45;&gt;Node3</title>
<g id="a_edge2_Node000001_Node000003"><a xlink:title=" ">
<path fill="none" stroke="#63b8ff" d="M371.37,-28.48C363.39,-27.47 355.32,-26.45 347.38,-25.45"/>
<polygon fill="#63b8ff" stroke="#63b8ff" points="370.7,-31.93 381.07,-29.71 371.58,-24.98 370.7,-31.93"/>
</a>
</g>
</g>
<!-- Node4 -->
<g id="Node000004" class="node">
<title>Node4</title>
<g id="a_Node000004"><a xlink:href="../../dc/d65/classml_1_1model_1_1_c_metric_bucket_gatherer.html#abc07cc1160846092f4e464d33806598e" target="_top" xlink:title=" ">
<polygon fill="white" stroke="#666666" points="148.75,-30.5 0,-30.5 0,0 148.75,0 148.75,-30.5"/>
<text text-anchor="start" x="8" y="-17" font-family="Helvetica,sans-Serif" font-size="10.00">ml::model::CMetricBucket</text>
<text text-anchor="middle" x="74.38" y="-5.75" font-family="Helvetica,sans-Serif" font-size="10.00">Gatherer::cloneForPersistence</text>
</a>
</g>
</g>
<!-- Node3&#45;&gt;Node4 -->
<g id="edge3_Node000003_Node000004" class="edge">
<title>Node3&#45;&gt;Node4</title>
<g id="a_edge3_Node000003_Node000004"><a xlink:title=" ">
<path fill="none" stroke="#63b8ff" d="M173.2,-15.25C165.16,-15.25 157.1,-15.25 149.24,-15.25"/>
<polygon fill="#63b8ff" stroke="#63b8ff" points="173,-18.75 183,-15.25 173,-11.75 173,-18.75"/>
</a>
</g>
</g>
</g>
</svg>
