<?xml version="1.0" encoding="UTF-8" standalone="no"?>
<!DOCTYPE svg PUBLIC "-//W3C//DTD SVG 1.1//EN"
 "http://www.w3.org/Graphics/SVG/1.1/DTD/svg11.dtd">
<!-- Generated by graphviz version 10.0.1 (20240210.2158)
 -->
<!-- Title: ml::model::CMetricBucketGatherer::recyclePeople Pages: 1 -->
<svg width="680pt" height="76pt"
 viewBox="0.00 0.00 680.25 75.88" xmlns="http://www.w3.org/2000/svg" xmlns:xlink="http://www.w3.org/1999/xlink">
<g id="graph0" class="graph" transform="scale(1 1) rotate(0) translate(4 71.88)">
<title>ml::model::CMetricBucketGatherer::recyclePeople</title>
<!-- Node1 -->
<g id="Node000001" class="node">
<title>Node1</title>
<g id="a_Node000001"><a xlink:title="Stop gathering data on the people identified by peopleToRemove.">
<polygon fill="#999999" stroke="#666666" points="130,-45.88 0,-45.88 0,-15.37 130,-15.37 130,-45.88"/>
<text text-anchor="start" x="8" y="-32.38" font-family="Helvetica,sans-Serif" font-size="10.00">ml::model::CMetricBucket</text>
<text text-anchor="middle" x="65" y="-21.12" font-family="Helvetica,sans-Serif" font-size="10.00">Gatherer::recyclePeople</text>
</a>
</g>
</g>
<!-- Node2 -->
<g id="Node000002" class="node">
<title>Node2</title>
<g id="a_Node000002"><a xlink:href="../../d4/d01/classml_1_1model_1_1_c_bucket_gatherer.html#a2fe5889882e39d0134993002dc51c8e2" target="_top" xlink:title="Stop gathering data on the people identified by peopleToRemove.">
<polygon fill="white" stroke="#666666" points="306.5,-67.88 166,-67.88 166,-37.38 306.5,-37.38 306.5,-67.88"/>
<text text-anchor="start" x="174" y="-54.38" font-family="Helvetica,sans-Serif" font-size="10.00">ml::model::CBucketGatherer</text>
<text text-anchor="middle" x="236.25" y="-43.12" font-family="Helvetica,sans-Serif" font-size="10.00">::recyclePeople</text>
</a>
</g>
</g>
<!-- Node1&#45;&gt;Node2 -->
<g id="edge1_Node000001_Node000002" class="edge">
<title>Node1&#45;&gt;Node2</title>
<g id="a_edge1_Node000001_Node000002"><a xlink:title=" ">
<path fill="none" stroke="#63b8ff" d="M130.47,-39.01C138.28,-40.02 146.33,-41.07 154.34,-42.11"/>
<polygon fill="#63b8ff" stroke="#63b8ff" points="153.73,-45.56 164.1,-43.38 154.64,-38.62 153.73,-45.56"/>
</a>
</g>
</g>
<!-- Node3 -->
<g id="Node000003" class="node">
<title>Node3</title>
<g id="a_Node000003"><a xlink:href="../../d4/d01/classml_1_1model_1_1_c_bucket_gatherer.html#ab27631f14f5ae505aeb401f3d56f57a9" target="_top" xlink:title=" ">
<polygon fill="white" stroke="#666666" points="483,-45.88 342.5,-45.88 342.5,-15.37 483,-15.37 483,-45.88"/>
<text text-anchor="start" x="350.5" y="-32.38" font-family="Helvetica,sans-Serif" font-size="10.00">ml::model::CBucketGatherer</text>
<text text-anchor="middle" x="412.75" y="-21.12" font-family="Helvetica,sans-Serif" font-size="10.00">::remove</text>
</a>
</g>
</g>
<!-- Node1&#45;&gt;Node3 -->
<g id="edge5_Node000001_Node000003" class="edge">
<title>Node1&#45;&gt;Node3</title>
<g id="a_edge5_Node000001_Node000003"><a xlink:title=" ">
<path fill="none" stroke="#63b8ff" d="M130.28,-29.15C142.16,-28.93 154.45,-28.74 166,-28.62 228.44,-28 244.06,-28.03 306.5,-28.62 314.33,-28.7 322.48,-28.8 330.63,-28.93"/>
<polygon fill="#63b8ff" stroke="#63b8ff" points="330.55,-32.43 340.6,-29.09 330.66,-25.43 330.55,-32.43"/>
</a>
</g>
</g>
<!-- Node2&#45;&gt;Node3 -->
<g id="edge2_Node000002_Node000003" class="edge">
<title>Node2&#45;&gt;Node3</title>
<g id="a_edge2_Node000002_Node000003"><a xlink:title=" ">
<path fill="none" stroke="#63b8ff" d="M306.97,-43.84C314.84,-42.84 322.91,-41.83 330.91,-40.82"/>
<polygon fill="#63b8ff" stroke="#63b8ff" points="331.16,-44.31 340.64,-39.59 330.28,-37.37 331.16,-44.31"/>
</a>
</g>
</g>
<!-- Node4 -->
<g id="Node000004" class="node">
<title>Node4</title>
<g id="a_Node000004"><a xlink:href="../../d0/de2/classml_1_1model_1_1_c_bucket_queue.html#aaac5e7883124c0e9e52148da200bf513" target="_top" xlink:title=" ">
<polygon fill="white" stroke="#666666" points="661.38,-67.88 529.88,-67.88 529.88,-37.38 661.38,-37.38 661.38,-67.88"/>
<text text-anchor="start" x="537.88" y="-54.38" font-family="Helvetica,sans-Serif" font-size="10.00">ml::model::CBucketQueue</text>
<text text-anchor="middle" x="595.62" y="-43.12" font-family="Helvetica,sans-Serif" font-size="10.00">::begin</text>
</a>
</g>
</g>
<!-- Node3&#45;&gt;Node4 -->
<g id="edge3_Node000003_Node000004" class="edge">
<title>Node3&#45;&gt;Node4</title>
<g id="a_edge3_Node000003_Node000004"><a xlink:title=" ">
<path fill="none" stroke="#63b8ff" d="M483.42,-39.1C494.77,-40.48 506.57,-41.92 518.07,-43.31"/>
<polygon fill="#63b8ff" stroke="#63b8ff" points="517.59,-46.78 527.94,-44.51 518.43,-39.83 517.59,-46.78"/>
</a>
</g>
</g>
<!-- Node5 -->
<g id="Node000005" class="node">
<title>Node5</title>
<g id="a_Node000005"><a xlink:href="../../d0/de2/classml_1_1model_1_1_c_bucket_queue.html#a9ec72fa26aac807ff6f7f2df6a6aea47" target="_top" xlink:title="Returns an iterator pointing to the end of the queue.">
<polygon fill="white" stroke="#666666" points="672.25,-19.25 519,-19.25 519,0 672.25,0 672.25,-19.25"/>
<text text-anchor="middle" x="595.62" y="-5.75" font-family="Helvetica,sans-Serif" font-size="10.00">ml::model::CBucketQueue::end</text>
</a>
</g>
</g>
<!-- Node3&#45;&gt;Node5 -->
<g id="edge4_Node000003_Node000005" class="edge">
<title>Node3&#45;&gt;Node5</title>
<g id="a_edge4_Node000003_Node000005"><a xlink:title=" ">
<path fill="none" stroke="#63b8ff" d="M483.42,-22.54C491.27,-21.62 499.34,-20.69 507.37,-19.76"/>
<polygon fill="#63b8ff" stroke="#63b8ff" points="507.64,-23.25 517.17,-18.62 506.84,-16.29 507.64,-23.25"/>
</a>
</g>
</g>
</g>
</svg>
