<?xml version="1.0" encoding="UTF-8" standalone="no"?>
<!DOCTYPE svg PUBLIC "-//W3C//DTD SVG 1.1//EN"
 "http://www.w3.org/Graphics/SVG/1.1/DTD/svg11.dtd">
<!-- Generated by graphviz version 10.0.1 (20240210.2158)
 -->
<!-- Title: ml::model::CAnomalyDetectorModelConfig::configureModelPlot Pages: 1 -->
<!--zoomable 298 -->

<svg id="main" version="1.1" xmlns="http://www.w3.org/2000/svg" xmlns:xlink="http://www.w3.org/1999/xlink" xml:space="preserve" onload="init(evt)">
<style type="text/css"><![CDATA[
.node, .edge {opacity: 0.7;}
.node.selected, .edge.selected {opacity: 1;}
.edge:hover path { stroke: red; }
.edge:hover polygon { stroke: red; fill: red; }
]]></style>

<defs>
  <circle id="rim" cx="0" cy="0" r="7"/>
  <circle id="rim2" cx="0" cy="0" r="3.5"/>
  <g id="zoomPlus">
    <use xlink:href="#rim" fill="#404040"><set attributeName="fill" to="#808080" begin="zoomplus.mouseover" end="zoomplus.mouseout"/></use>
    <path d="M-4,0h8M0,-4v8" fill="none" stroke="white" stroke-width="1.5" pointer-events="none"/>
  </g>
  <g id="zoomMin">
    <use xlink:href="#rim" fill="#404040"><set attributeName="fill" to="#808080" begin="zoomminus.mouseover" end="zoomminus.mouseout"/></use>
    <path d="M-4,0h8" fill="none" stroke="white" stroke-width="1.5" pointer-events="none"/>
  </g>
  <g id="arrowUp" transform="translate(30 24)">
    <use xlink:href="#rim"/>
    <path pointer-events="none" fill="none" stroke="white" stroke-width="1.5" d="M0,-3.0v7 M-2.5,-0.5L0,-3.0L2.5,-0.5"/>
  </g>
  <g id="arrowRight" transform="rotate(90) translate(36 -43)">
    <use xlink:href="#rim"/>
    <path pointer-events="none" fill="none" stroke="white" stroke-width="1.5" d="M0,-3.0v7 M-2.5,-0.5L0,-3.0L2.5,-0.5"/>
  </g>
  <g id="arrowDown" transform="rotate(180) translate(-30 -48)">
    <use xlink:href="#rim"/>
    <path pointer-events="none" fill="none" stroke="white" stroke-width="1.5" d="M0,-3.0v7 M-2.5,-0.5L0,-3.0L2.5,-0.5"/>
  </g>
  <g id="arrowLeft" transform="rotate(270) translate(-36 17)">
    <use xlink:href="#rim"/>
    <path pointer-events="none" fill="none" stroke="white" stroke-width="1.5" d="M0,-3.0v7 M-2.5,-0.5L0,-3.0L2.5,-0.5"/>
  </g>
  <g id="resetDef">
    <use xlink:href="#rim2" fill="#404040"><set attributeName="fill" to="#808080" begin="reset.mouseover" end="reset.mouseout"/></use>
  </g>
</defs>
<script type="application/ecmascript">
var viewWidth = 841;
var viewHeight = 298;
var sectionId = 'dynsection-11';
</script>
<script type="application/ecmascript" xlink:href="../../svg.min.js"/>
<svg id="graph" class="graph">
<g id="viewport">
<title>ml::model::CAnomalyDetectorModelConfig::configureModelPlot</title>
<!-- Node1 -->
<g id="Node000001" class="node">
<title>Node1</title>
<g id="a_Node000001"><a xlink:title="Configure modelPlotConfig params from file.">
<polygon fill="#999999" stroke="#666666" points="833,-208.5 673,-208.5 673,-178 833,-178 833,-208.5"/>
<text text-anchor="start" x="681" y="-195" font-family="Helvetica,sans-Serif" font-size="10.00">ml::model::CAnomalyDetector</text>
<text text-anchor="middle" x="753" y="-183.75" font-family="Helvetica,sans-Serif" font-size="10.00">ModelConfig::configureModelPlot</text>
</a>
</g>
</g>
<!-- Node1&#45;&gt;Node1 -->
<g id="edge2_Node000001_Node000001" class="edge">
<title>Node1&#45;&gt;Node1</title>
<g id="a_edge2_Node000001_Node000001"><a xlink:title=" ">
<path fill="none" stroke="#63b8ff" d="M784.8,-220.2C779.6,-223.97 769,-226.5 753,-226.5 723.74,-226.5 712.54,-218.06 719.4,-208.99"/>
<polygon fill="#63b8ff" stroke="#63b8ff" points="788.23,-220.91 786.36,-210.48 781.32,-219.8 788.23,-220.91"/>
</a>
</g>
</g>
<!-- Node2 -->
<g id="Node000002" class="node">
<title>Node2</title>
<g id="a_Node000002"><a xlink:href="../../d6/d6a/_c_anomaly_detector_model_config_test_8cc.html#a2df7e0a31393056990628cf68fd5b108" target="_top" xlink:title=" ">
<polygon fill="white" stroke="#666666" points="637,-239.88 489.75,-239.88 489.75,-220.62 637,-220.62 637,-239.88"/>
<text text-anchor="middle" x="563.38" y="-226.38" font-family="Helvetica,sans-Serif" font-size="10.00">BOOST_AUTO_TEST_CASE</text>
</a>
</g>
</g>
<!-- Node1&#45;&gt;Node2 -->
<g id="edge1_Node000001_Node000002" class="edge">
<title>Node1&#45;&gt;Node2</title>
<g id="a_edge1_Node000001_Node000002"><a xlink:title=" ">
<path fill="none" stroke="#63b8ff" d="M661.78,-211.04C645.93,-214.17 629.96,-217.32 615.65,-220.14"/>
<polygon fill="#63b8ff" stroke="#63b8ff" points="662.08,-214.55 671.22,-209.18 660.73,-207.68 662.08,-214.55"/>
</a>
</g>
</g>
<!-- Node3 -->
<g id="Node000003" class="node">
<title>Node3</title>
<g id="a_Node000003"><a xlink:href="../../d2/dab/bin_2autodetect_2_main_8cc.html#a3c04138a5bfe5d72780bb7e82a18e627" target="_top" xlink:title="Analyse event rates and metric time series for anomalies.">
<polygon fill="white" stroke="#666666" points="581.88,-202.88 544.88,-202.88 544.88,-183.62 581.88,-183.62 581.88,-202.88"/>
<text text-anchor="middle" x="563.38" y="-189.38" font-family="Helvetica,sans-Serif" font-size="10.00">main</text>
</a>
</g>
</g>
<!-- Node1&#45;&gt;Node3 -->
<g id="edge3_Node000001_Node000003" class="edge">
<title>Node1&#45;&gt;Node3</title>
<g id="a_edge3_Node000001_Node000003"><a xlink:title=" ">
<path fill="none" stroke="#63b8ff" d="M661.21,-193.25C631.1,-193.25 600.58,-193.25 582.06,-193.25"/>
<polygon fill="#63b8ff" stroke="#63b8ff" points="661.19,-196.75 671.19,-193.25 661.19,-189.75 661.19,-196.75"/>
</a>
</g>
</g>
<!-- Node4 -->
<g id="Node000004" class="node">
<title>Node4</title>
<g id="a_Node000004"><a xlink:href="../../da/d7b/classml_1_1api_1_1_c_config_updater.html#a936d0d1b75f7867cdbb335343f19f7b9" target="_top" xlink:title=" ">
<polygon fill="white" stroke="#666666" points="624.25,-165.5 502.5,-165.5 502.5,-135 624.25,-135 624.25,-165.5"/>
<text text-anchor="start" x="510.5" y="-152" font-family="Helvetica,sans-Serif" font-size="10.00">ml::api::CConfigUpdater</text>
<text text-anchor="middle" x="563.38" y="-140.75" font-family="Helvetica,sans-Serif" font-size="10.00">::update</text>
</a>
</g>
</g>
<!-- Node1&#45;&gt;Node4 -->
<g id="edge4_Node000001_Node000004" class="edge">
<title>Node1&#45;&gt;Node4</title>
<g id="a_edge4_Node000001_Node000004"><a xlink:title=" ">
<path fill="none" stroke="#63b8ff" d="M672.49,-175.03C656.48,-171.36 639.89,-167.56 624.66,-164.07"/>
<polygon fill="#63b8ff" stroke="#63b8ff" points="671.46,-178.38 681.99,-177.21 673.03,-171.56 671.46,-178.38"/>
</a>
</g>
</g>
<!-- Node5 -->
<g id="Node000005" class="node">
<title>Node5</title>
<g id="a_Node000005"><a xlink:href="../../d3/dcb/_c_config_updater_test_8cc.html#a5989ef494b22ae52d7c76c6a2caf9abb" target="_top" xlink:title=" ">
<polygon fill="white" stroke="#666666" points="453.75,-289.88 306.5,-289.88 306.5,-270.62 453.75,-270.62 453.75,-289.88"/>
<text text-anchor="middle" x="380.12" y="-276.38" font-family="Helvetica,sans-Serif" font-size="10.00">BOOST_AUTO_TEST_CASE</text>
</a>
</g>
</g>
<!-- Node4&#45;&gt;Node5 -->
<g id="edge5_Node000004_Node000005" class="edge">
<title>Node4&#45;&gt;Node5</title>
<g id="a_edge5_Node000004_Node000005"><a xlink:title=" ">
<path fill="none" stroke="#63b8ff" d="M492.61,-171.76C491.63,-172.56 490.67,-173.39 489.75,-174.25 458.85,-203.08 485.72,-234.62 453.75,-262.25 450.11,-265.39 446.01,-268 441.65,-270.17"/>
<polygon fill="#63b8ff" stroke="#63b8ff" points="494.53,-174.68 500.85,-166.18 490.61,-168.89 494.53,-174.68"/>
</a>
</g>
</g>
<!-- Node6 -->
<g id="Node000006" class="node">
<title>Node6</title>
<g id="a_Node000006"><a xlink:href="../../d3/dcb/_c_config_updater_test_8cc.html#afcb6534b19df209ff360f24ee8e0fbae" target="_top" xlink:title=" ">
<polygon fill="white" stroke="#666666" points="453.75,-252.88 306.5,-252.88 306.5,-233.62 453.75,-233.62 453.75,-252.88"/>
<text text-anchor="middle" x="380.12" y="-239.38" font-family="Helvetica,sans-Serif" font-size="10.00">BOOST_AUTO_TEST_CASE</text>
</a>
</g>
</g>
<!-- Node4&#45;&gt;Node6 -->
<g id="edge6_Node000004_Node000006" class="edge">
<title>Node4&#45;&gt;Node6</title>
<g id="a_edge6_Node000004_Node000006"><a xlink:title=" ">
<path fill="none" stroke="#63b8ff" d="M493.87,-171.4C492.46,-172.31 491.08,-173.26 489.75,-174.25 467.46,-190.77 476.66,-209.59 453.75,-225.25 449.14,-228.4 444.03,-231 438.71,-233.15"/>
<polygon fill="#63b8ff" stroke="#63b8ff" points="495.31,-174.61 502.31,-166.66 491.88,-168.51 495.31,-174.61"/>
</a>
</g>
</g>
<!-- Node7 -->
<g id="Node000007" class="node">
<title>Node7</title>
<g id="a_Node000007"><a xlink:href="../../d3/dcb/_c_config_updater_test_8cc.html#aa11f776dfb04b7cb5146d1a3c0869f4b" target="_top" xlink:title=" ">
<polygon fill="white" stroke="#666666" points="453.75,-215.88 306.5,-215.88 306.5,-196.62 453.75,-196.62 453.75,-215.88"/>
<text text-anchor="middle" x="380.12" y="-202.38" font-family="Helvetica,sans-Serif" font-size="10.00">BOOST_AUTO_TEST_CASE</text>
</a>
</g>
</g>
<!-- Node4&#45;&gt;Node7 -->
<g id="edge7_Node000004_Node000007" class="edge">
<title>Node4&#45;&gt;Node7</title>
<g id="a_edge7_Node000004_Node000007"><a xlink:title=" ">
<path fill="none" stroke="#63b8ff" d="M503.18,-169.53C498.63,-171.1 494.11,-172.68 489.75,-174.25 473.59,-180.06 470.12,-183.06 453.75,-188.25 444.71,-191.11 434.92,-193.81 425.54,-196.2"/>
<polygon fill="#63b8ff" stroke="#63b8ff" points="504.04,-172.93 512.38,-166.4 501.79,-166.31 504.04,-172.93"/>
</a>
</g>
</g>
<!-- Node8 -->
<g id="Node000008" class="node">
<title>Node8</title>
<g id="a_Node000008"><a xlink:href="../../d3/dcb/_c_config_updater_test_8cc.html#a7ee686923ef73f004c660e1315679cec" target="_top" xlink:title=" ">
<polygon fill="white" stroke="#666666" points="453.75,-178.88 306.5,-178.88 306.5,-159.62 453.75,-159.62 453.75,-178.88"/>
<text text-anchor="middle" x="380.12" y="-165.38" font-family="Helvetica,sans-Serif" font-size="10.00">BOOST_AUTO_TEST_CASE</text>
</a>
</g>
</g>
<!-- Node4&#45;&gt;Node8 -->
<g id="edge8_Node000004_Node000008" class="edge">
<title>Node4&#45;&gt;Node8</title>
<g id="a_edge8_Node000004_Node000008"><a xlink:title=" ">
<path fill="none" stroke="#63b8ff" d="M490.67,-157.77C478.66,-159.03 466.17,-160.33 454.13,-161.6"/>
<polygon fill="#63b8ff" stroke="#63b8ff" points="490.94,-161.26 500.52,-156.73 490.21,-154.3 490.94,-161.26"/>
</a>
</g>
</g>
<!-- Node9 -->
<g id="Node000009" class="node">
<title>Node9</title>
<g id="a_Node000009"><a xlink:href="../../d3/dcb/_c_config_updater_test_8cc.html#a34045e6f415c2e4ecb57a3a62b77faf7" target="_top" xlink:title=" ">
<polygon fill="white" stroke="#666666" points="453.75,-141.88 306.5,-141.88 306.5,-122.62 453.75,-122.62 453.75,-141.88"/>
<text text-anchor="middle" x="380.12" y="-128.38" font-family="Helvetica,sans-Serif" font-size="10.00">BOOST_AUTO_TEST_CASE</text>
</a>
</g>
</g>
<!-- Node4&#45;&gt;Node9 -->
<g id="edge9_Node000004_Node000009" class="edge">
<title>Node4&#45;&gt;Node9</title>
<g id="a_edge9_Node000004_Node000009"><a xlink:title=" ">
<path fill="none" stroke="#63b8ff" d="M490.67,-143.13C478.66,-141.94 466.17,-140.7 454.13,-139.5"/>
<polygon fill="#63b8ff" stroke="#63b8ff" points="490.22,-146.6 500.52,-144.11 490.91,-139.64 490.22,-146.6"/>
</a>
</g>
</g>
<!-- Node10 -->
<g id="Node000010" class="node">
<title>Node10</title>
<g id="a_Node000010"><a xlink:href="../../d3/dcb/_c_config_updater_test_8cc.html#a64a800ce2d1ef786fc1a54a932c9c9af" target="_top" xlink:title=" ">
<polygon fill="white" stroke="#666666" points="453.75,-104.88 306.5,-104.88 306.5,-85.62 453.75,-85.62 453.75,-104.88"/>
<text text-anchor="middle" x="380.12" y="-91.38" font-family="Helvetica,sans-Serif" font-size="10.00">BOOST_AUTO_TEST_CASE</text>
</a>
</g>
</g>
<!-- Node4&#45;&gt;Node10 -->
<g id="edge10_Node000004_Node000010" class="edge">
<title>Node4&#45;&gt;Node10</title>
<g id="a_edge10_Node000004_Node000010"><a xlink:title=" ">
<path fill="none" stroke="#63b8ff" d="M508.51,-130.89C491.13,-124.92 471.72,-118.53 453.75,-113.25 444.28,-110.47 434.03,-107.75 424.3,-105.31"/>
<polygon fill="#63b8ff" stroke="#63b8ff" points="507.02,-134.07 517.61,-134.05 509.31,-127.46 507.02,-134.07"/>
</a>
</g>
</g>
<!-- Node11 -->
<g id="Node000011" class="node">
<title>Node11</title>
<g id="a_Node000011"><a xlink:href="../../d3/dcb/_c_config_updater_test_8cc.html#a90162308bc9c1bb526bffba8148b998f" target="_top" xlink:title=" ">
<polygon fill="white" stroke="#666666" points="453.75,-67.88 306.5,-67.88 306.5,-48.62 453.75,-48.62 453.75,-67.88"/>
<text text-anchor="middle" x="380.12" y="-54.38" font-family="Helvetica,sans-Serif" font-size="10.00">BOOST_AUTO_TEST_CASE</text>
</a>
</g>
</g>
<!-- Node4&#45;&gt;Node11 -->
<g id="edge11_Node000004_Node000011" class="edge">
<title>Node4&#45;&gt;Node11</title>
<g id="a_edge11_Node000004_Node000011"><a xlink:title=" ">
<path fill="none" stroke="#63b8ff" d="M535.02,-127.54C513.98,-111.13 483.56,-89.58 453.75,-76.25 446.75,-73.12 439.12,-70.48 431.53,-68.26"/>
<polygon fill="#63b8ff" stroke="#63b8ff" points="532.8,-130.25 542.8,-133.73 537.15,-124.77 532.8,-130.25"/>
</a>
</g>
</g>
<!-- Node12 -->
<g id="Node000012" class="node">
<title>Node12</title>
<g id="a_Node000012"><a xlink:href="../../d9/dee/classml_1_1api_1_1_c_anomaly_job.html#aba7a8783ddbfeab47636a4e32da19384" target="_top" xlink:title="Update configuration.">
<polygon fill="white" stroke="#666666" points="436.5,-30.5 323.75,-30.5 323.75,0 436.5,0 436.5,-30.5"/>
<text text-anchor="start" x="331.75" y="-17" font-family="Helvetica,sans-Serif" font-size="10.00">ml::api::CAnomalyJob</text>
<text text-anchor="middle" x="380.12" y="-5.75" font-family="Helvetica,sans-Serif" font-size="10.00">::updateConfig</text>
</a>
</g>
</g>
<!-- Node4&#45;&gt;Node12 -->
<g id="edge12_Node000004_Node000012" class="edge">
<title>Node4&#45;&gt;Node12</title>
<g id="a_edge12_Node000004_Node000012"><a xlink:title=" ">
<path fill="none" stroke="#63b8ff" d="M544.28,-125.82C524.58,-100.8 490.87,-62.41 453.75,-39.25 448.45,-35.95 442.66,-33.05 436.72,-30.52"/>
<polygon fill="#63b8ff" stroke="#63b8ff" points="541.32,-127.71 550.2,-133.49 546.87,-123.44 541.32,-127.71"/>
</a>
</g>
</g>
<!-- Node13 -->
<g id="Node000013" class="node">
<title>Node13</title>
<g id="a_Node000013"><a xlink:href="../../d9/dee/classml_1_1api_1_1_c_anomaly_job.html#a176e0e5e3eaa3e802ff4da6773e33c35" target="_top" xlink:title=" ">
<polygon fill="white" stroke="#666666" points="270.5,-30.5 148.75,-30.5 148.75,0 270.5,0 270.5,-30.5"/>
<text text-anchor="start" x="156.75" y="-17" font-family="Helvetica,sans-Serif" font-size="10.00">ml::api::CAnomalyJob</text>
<text text-anchor="middle" x="209.62" y="-5.75" font-family="Helvetica,sans-Serif" font-size="10.00">::handleControlMessage</text>
</a>
</g>
</g>
<!-- Node12&#45;&gt;Node13 -->
<g id="edge13_Node000012_Node000013" class="edge">
<title>Node12&#45;&gt;Node13</title>
<g id="a_edge13_Node000012_Node000013"><a xlink:title=" ">
<path fill="none" stroke="#63b8ff" d="M312.2,-15.25C298.54,-15.25 284.25,-15.25 270.85,-15.25"/>
<polygon fill="#63b8ff" stroke="#63b8ff" points="311.97,-18.75 321.97,-15.25 311.97,-11.75 311.97,-18.75"/>
</a>
</g>
</g>
<!-- Node14 -->
<g id="Node000014" class="node">
<title>Node14</title>
<g id="a_Node000014"><a xlink:href="../../d9/dee/classml_1_1api_1_1_c_anomaly_job.html#a7b4418f8987b9618eb3534c80d8d1617" target="_top" xlink:title=" ">
<polygon fill="white" stroke="#666666" points="112.75,-30.5 0,-30.5 0,0 112.75,0 112.75,-30.5"/>
<text text-anchor="start" x="8" y="-17" font-family="Helvetica,sans-Serif" font-size="10.00">ml::api::CAnomalyJob</text>
<text text-anchor="middle" x="56.38" y="-5.75" font-family="Helvetica,sans-Serif" font-size="10.00">::handleRecord</text>
</a>
</g>
</g>
<!-- Node13&#45;&gt;Node14 -->
<g id="edge14_Node000013_Node000014" class="edge">
<title>Node13&#45;&gt;Node14</title>
<g id="a_edge14_Node000013_Node000014"><a xlink:title=" ">
<path fill="none" stroke="#63b8ff" d="M137.05,-15.25C128.96,-15.25 120.81,-15.25 112.96,-15.25"/>
<polygon fill="#63b8ff" stroke="#63b8ff" points="136.9,-18.75 146.9,-15.25 136.9,-11.75 136.9,-18.75"/>
</a>
</g>
</g>
</g>
</svg>

<g id="navigator" transform="translate(0 0)" fill="#404254">
  <rect fill="#f2f5e9" fill-opacity="0.5" stroke="#606060" stroke-width=".5" x="0" y="0" width="60" height="60"/>
  <use id="zoomplus" xlink:href="#zoomPlus" x="17" y="9" onmousedown="handleZoom(evt,'in')"/>
  <use id="zoomminus" xlink:href="#zoomMin" x="42" y="9" onmousedown="handleZoom(evt,'out')"/>
  <use id="reset" xlink:href="#resetDef" x="30" y="36" onmousedown="handleReset()"/>
   <use id="arrowup" xlink:href="#arrowUp" x="0" y="0" onmousedown="handlePan(0,-1)"/>
  <use id="arrowright" xlink:href="#arrowRight" x="0" y="0" onmousedown="handlePan(1,0)"/>
  <use id="arrowdown" xlink:href="#arrowDown" x="0" y="0" onmousedown="handlePan(0,1)"/>
  <use id="arrowleft" xlink:href="#arrowLeft" x="0" y="0" onmousedown="handlePan(-1,0)"/>
</g>
<svg viewBox="0 0 15 15" width="100%" height="30px" preserveAspectRatio="xMaxYMin meet">
 <g id="arrow_out" transform="scale(0.3 0.3)">
  <a xlink:href="classml_1_1model_1_1_c_anomaly_detector_model_config_af7b2f2eeee4aed2d6c441f9f60c3f9d4_icgraph_org.svg" target="_base">
   <rect id="button" ry="5" rx="5" y="6" x="6" height="38" width="38"
        fill="#f2f5e9" fill-opacity="0.5" stroke="#606060" stroke-width="1.0"/>
   <path id="arrow"
     d="M 11.500037,31.436501 C 11.940474,20.09759 22.043105,11.32322 32.158766,21.979434 L 37.068811,17.246167 C 37.068811,17.246167 37.088388,32 37.088388,32 L 22.160133,31.978069 C 22.160133,31.978069 26.997745,27.140456 26.997745,27.140456 C 18.528582,18.264221 13.291696,25.230495 11.500037,31.436501 z"
     style="fill:#404040;"/>
  </a>
 </g>
</svg>

<style type='text/css'>
<![CDATA[
[data-mouse-over-selected='false'] { opacity: 0.7; }
[data-mouse-over-selected='true']  { opacity: 1.0; }
]]>
</style>
<script type="application/ecmascript"><![CDATA[
document.addEventListener('DOMContentLoaded', (event) => {
  highlightEdges();
  highlightAdjacentNodes();
});
]]></script>
</svg>
