<?xml version="1.0" encoding="UTF-8" standalone="no"?>
<!DOCTYPE svg PUBLIC "-//W3C//DTD SVG 1.1//EN"
 "http://www.w3.org/Graphics/SVG/1.1/DTD/svg11.dtd">
<!-- Generated by graphviz version 10.0.1 (20240210.2158)
 -->
<!-- Title: ml::model::CAnomalyDetectorModelConfig::init Pages: 1 -->
<!--zoomable 683 -->

<svg id="main" version="1.1" xmlns="http://www.w3.org/2000/svg" xmlns:xlink="http://www.w3.org/1999/xlink" xml:space="preserve" onload="init(evt)">
<style type="text/css"><![CDATA[
.node, .edge {opacity: 0.7;}
.node.selected, .edge.selected {opacity: 1;}
.edge:hover path { stroke: red; }
.edge:hover polygon { stroke: red; fill: red; }
]]></style>

<defs>
  <circle id="rim" cx="0" cy="0" r="7"/>
  <circle id="rim2" cx="0" cy="0" r="3.5"/>
  <g id="zoomPlus">
    <use xlink:href="#rim" fill="#404040"><set attributeName="fill" to="#808080" begin="zoomplus.mouseover" end="zoomplus.mouseout"/></use>
    <path d="M-4,0h8M0,-4v8" fill="none" stroke="white" stroke-width="1.5" pointer-events="none"/>
  </g>
  <g id="zoomMin">
    <use xlink:href="#rim" fill="#404040"><set attributeName="fill" to="#808080" begin="zoomminus.mouseover" end="zoomminus.mouseout"/></use>
    <path d="M-4,0h8" fill="none" stroke="white" stroke-width="1.5" pointer-events="none"/>
  </g>
  <g id="arrowUp" transform="translate(30 24)">
    <use xlink:href="#rim"/>
    <path pointer-events="none" fill="none" stroke="white" stroke-width="1.5" d="M0,-3.0v7 M-2.5,-0.5L0,-3.0L2.5,-0.5"/>
  </g>
  <g id="arrowRight" transform="rotate(90) translate(36 -43)">
    <use xlink:href="#rim"/>
    <path pointer-events="none" fill="none" stroke="white" stroke-width="1.5" d="M0,-3.0v7 M-2.5,-0.5L0,-3.0L2.5,-0.5"/>
  </g>
  <g id="arrowDown" transform="rotate(180) translate(-30 -48)">
    <use xlink:href="#rim"/>
    <path pointer-events="none" fill="none" stroke="white" stroke-width="1.5" d="M0,-3.0v7 M-2.5,-0.5L0,-3.0L2.5,-0.5"/>
  </g>
  <g id="arrowLeft" transform="rotate(270) translate(-36 17)">
    <use xlink:href="#rim"/>
    <path pointer-events="none" fill="none" stroke="white" stroke-width="1.5" d="M0,-3.0v7 M-2.5,-0.5L0,-3.0L2.5,-0.5"/>
  </g>
  <g id="resetDef">
    <use xlink:href="#rim2" fill="#404040"><set attributeName="fill" to="#808080" begin="reset.mouseover" end="reset.mouseout"/></use>
  </g>
</defs>
<script type="application/ecmascript">
var viewWidth = 746;
var viewHeight = 683;
var sectionId = 'dynsection-24';
</script>
<script type="application/ecmascript" xlink:href="../../svg.min.js"/>
<svg id="graph" class="graph">
<g id="viewport">
<title>ml::model::CAnomalyDetectorModelConfig::init</title>
<!-- Node1 -->
<g id="Node000001" class="node">
<title>Node1</title>
<g id="a_Node000001"><a xlink:title="Populate the parameters from a property tree.">
<polygon fill="#999999" stroke="#666666" points="148,-334.5 0,-334.5 0,-304 148,-304 148,-334.5"/>
<text text-anchor="start" x="8" y="-321" font-family="Helvetica,sans-Serif" font-size="10.00">ml::model::CAnomalyDetector</text>
<text text-anchor="middle" x="74" y="-309.75" font-family="Helvetica,sans-Serif" font-size="10.00">ModelConfig::init</text>
</a>
</g>
</g>
<!-- Node2 -->
<g id="Node000002" class="node">
<title>Node2</title>
<g id="a_Node000002"><a xlink:href="../../db/d5f/classml_1_1model_1_1_c_anomaly_detector_model_config.html#a53176a76b24692949db64e31a03948d7" target="_top" xlink:title=" ">
<polygon fill="white" stroke="#666666" points="332,-334.5 184,-334.5 184,-304 332,-304 332,-334.5"/>
<text text-anchor="start" x="192" y="-321" font-family="Helvetica,sans-Serif" font-size="10.00">ml::model::CAnomalyDetector</text>
<text text-anchor="middle" x="258" y="-309.75" font-family="Helvetica,sans-Serif" font-size="10.00">ModelConfig::processStanza</text>
</a>
</g>
</g>
<!-- Node1&#45;&gt;Node2 -->
<g id="edge1_Node000001_Node000002" class="edge">
<title>Node1&#45;&gt;Node2</title>
<g id="a_edge1_Node000001_Node000002"><a xlink:title=" ">
<path fill="none" stroke="#63b8ff" d="M148.24,-319.25C156.16,-319.25 164.27,-319.25 172.31,-319.25"/>
<polygon fill="#63b8ff" stroke="#63b8ff" points="172.1,-322.75 182.1,-319.25 172.1,-315.75 172.1,-322.75"/>
</a>
</g>
</g>
<!-- Node3 -->
<g id="Node000003" class="node">
<title>Node3</title>
<g id="a_Node000003"><a xlink:href="../../db/d5f/classml_1_1model_1_1_c_anomaly_detector_model_config.html#a731761d0883c18953a3d0578cf18e7bc" target="_top" xlink:title="Set the style and parameter value for raw score aggregation.">
<polygon fill="white" stroke="#666666" points="566.62,-674.5 383.38,-674.5 383.38,-644 566.62,-644 566.62,-674.5"/>
<text text-anchor="start" x="391.38" y="-661" font-family="Helvetica,sans-Serif" font-size="10.00">ml::model::CAnomalyDetector</text>
<text text-anchor="middle" x="475" y="-649.75" font-family="Helvetica,sans-Serif" font-size="10.00">ModelConfig::aggregationStyleParams</text>
</a>
</g>
</g>
<!-- Node2&#45;&gt;Node3 -->
<g id="edge2_Node000002_Node000003" class="edge">
<title>Node2&#45;&gt;Node3</title>
<g id="a_edge2_Node000002_Node000003"><a xlink:title=" ">
<path fill="none" stroke="#63b8ff" d="M259.4,-334.84C261.61,-386.12 275.89,-551.04 368,-634.25 369.85,-635.92 371.8,-637.49 373.82,-638.96"/>
<polygon fill="#63b8ff" stroke="#63b8ff" points="371.5,-641.64 381.84,-643.97 375.21,-635.7 371.5,-641.64"/>
</a>
</g>
</g>
<!-- Node4 -->
<g id="Node000004" class="node">
<title>Node4</title>
<g id="a_Node000004"><a xlink:href="../../db/d5f/classml_1_1model_1_1_c_anomaly_detector_model_config.html#a928bc41c16aebf4138d3bb3c8d27e256" target="_top" xlink:title="Get the bucket length.">
<polygon fill="white" stroke="#666666" points="549,-625.5 401,-625.5 401,-595 549,-595 549,-625.5"/>
<text text-anchor="start" x="409" y="-612" font-family="Helvetica,sans-Serif" font-size="10.00">ml::model::CAnomalyDetector</text>
<text text-anchor="middle" x="475" y="-600.75" font-family="Helvetica,sans-Serif" font-size="10.00">ModelConfig::bucketLength</text>
</a>
</g>
</g>
<!-- Node2&#45;&gt;Node4 -->
<g id="edge3_Node000002_Node000004" class="edge">
<title>Node2&#45;&gt;Node4</title>
<g id="a_edge3_Node000002_Node000004"><a xlink:title=" ">
<path fill="none" stroke="#63b8ff" d="M260.45,-334.77C265.62,-380.86 287.4,-517.96 368,-586.25 374.51,-591.76 382.02,-596.08 389.98,-599.44"/>
<polygon fill="#63b8ff" stroke="#63b8ff" points="388.64,-602.68 399.24,-602.83 391.04,-596.11 388.64,-602.68"/>
</a>
</g>
</g>
<!-- Node5 -->
<g id="Node000005" class="node">
<title>Node5</title>
<g id="a_Node000005"><a xlink:href="../../db/d5f/classml_1_1model_1_1_c_anomaly_detector_model_config.html#a2d8f7017909a6d10f11f815b33211c5c" target="_top" xlink:title=" ">
<polygon fill="white" stroke="#666666" points="558,-559.12 392,-559.12 392,-517.38 558,-517.38 558,-559.12"/>
<text text-anchor="start" x="400" y="-545.62" font-family="Helvetica,sans-Serif" font-size="10.00">ml::model::CAnomalyDetector</text>
<text text-anchor="start" x="400" y="-534.38" font-family="Helvetica,sans-Serif" font-size="10.00">ModelConfig::bucketNormalization</text>
<text text-anchor="middle" x="475" y="-523.12" font-family="Helvetica,sans-Serif" font-size="10.00">Factor</text>
</a>
</g>
</g>
<!-- Node2&#45;&gt;Node5 -->
<g id="edge4_Node000002_Node000005" class="edge">
<title>Node2&#45;&gt;Node5</title>
<g id="a_edge4_Node000002_Node000005"><a xlink:title=" ">
<path fill="none" stroke="#63b8ff" d="M263.53,-334.92C274.83,-371.19 307.79,-461.35 368,-508.25 372.21,-511.53 376.76,-514.45 381.53,-517.05"/>
<polygon fill="#63b8ff" stroke="#63b8ff" points="379.7,-520.06 390.23,-521.29 382.77,-513.76 379.7,-520.06"/>
</a>
</g>
</g>
<!-- Node6 -->
<g id="Node000006" class="node">
<title>Node6</title>
<g id="a_Node000006"><a xlink:href="../../db/d5f/classml_1_1model_1_1_c_anomaly_detector_model_config.html#ad54579708519aa0a7ecf7ebb049dfb41" target="_top" xlink:title="Get the rate at which the models lose information.">
<polygon fill="white" stroke="#666666" points="549,-499.5 401,-499.5 401,-469 549,-469 549,-499.5"/>
<text text-anchor="start" x="409" y="-486" font-family="Helvetica,sans-Serif" font-size="10.00">ml::model::CAnomalyDetector</text>
<text text-anchor="middle" x="475" y="-474.75" font-family="Helvetica,sans-Serif" font-size="10.00">ModelConfig::decayRate</text>
</a>
</g>
</g>
<!-- Node2&#45;&gt;Node6 -->
<g id="edge6_Node000002_Node000006" class="edge">
<title>Node2&#45;&gt;Node6</title>
<g id="a_edge6_Node000002_Node000006"><a xlink:title=" ">
<path fill="none" stroke="#63b8ff" d="M266.46,-334.68C281.42,-363.88 317.96,-427.15 368,-459.25 374.78,-463.6 382.25,-467.2 389.97,-470.17"/>
<polygon fill="#63b8ff" stroke="#63b8ff" points="388.61,-473.4 399.21,-473.35 390.89,-466.78 388.61,-473.4"/>
</a>
</g>
</g>
<!-- Node7 -->
<g id="Node000007" class="node">
<title>Node7</title>
<g id="a_Node000007"><a xlink:href="../../db/d5f/classml_1_1model_1_1_c_anomaly_detector_model_config.html#ad708938c61acd59b0a5b161a8735c408" target="_top" xlink:title=" ">
<polygon fill="white" stroke="#666666" points="549,-432.5 401,-432.5 401,-402 549,-402 549,-432.5"/>
<text text-anchor="start" x="409" y="-419" font-family="Helvetica,sans-Serif" font-size="10.00">ml::model::CAnomalyDetector</text>
<text text-anchor="middle" x="475" y="-407.75" font-family="Helvetica,sans-Serif" font-size="10.00">ModelConfig::factory</text>
</a>
</g>
</g>
<!-- Node2&#45;&gt;Node7 -->
<g id="edge7_Node000002_Node000007" class="edge">
<title>Node2&#45;&gt;Node7</title>
<g id="a_edge7_Node000002_Node000007"><a xlink:title=" ">
<path fill="none" stroke="#63b8ff" d="M277.85,-334.98C298.65,-351.57 333.76,-377.33 368,-392.25 374.93,-395.27 382.28,-397.95 389.75,-400.34"/>
<polygon fill="#63b8ff" stroke="#63b8ff" points="388.71,-403.68 399.3,-403.18 390.71,-396.97 388.71,-403.68"/>
</a>
</g>
</g>
<!-- Node9 -->
<g id="Node000009" class="node">
<title>Node9</title>
<g id="a_Node000009"><a xlink:href="../../db/d5f/classml_1_1model_1_1_c_anomaly_detector_model_config.html#a0916ba7f52e2a0ccab3abc9922c91818" target="_top" xlink:title="Get the maximum anomalous probability.">
<polygon fill="white" stroke="#666666" points="582,-383.5 368,-383.5 368,-353 582,-353 582,-383.5"/>
<text text-anchor="start" x="376" y="-370" font-family="Helvetica,sans-Serif" font-size="10.00">ml::model::CAnomalyDetector</text>
<text text-anchor="middle" x="475" y="-358.75" font-family="Helvetica,sans-Serif" font-size="10.00">ModelConfig::maximumAnomalousProbability</text>
</a>
</g>
</g>
<!-- Node2&#45;&gt;Node9 -->
<g id="edge10_Node000002_Node000009" class="edge">
<title>Node2&#45;&gt;Node9</title>
<g id="a_edge10_Node000002_Node000009"><a xlink:title=" ">
<path fill="none" stroke="#63b8ff" d="M327.91,-334.96C348.94,-339.75 372.23,-345.06 393.93,-350"/>
<polygon fill="#63b8ff" stroke="#63b8ff" points="393.1,-353.4 403.63,-352.21 394.66,-346.58 393.1,-353.4"/>
</a>
</g>
</g>
<!-- Node10 -->
<g id="Node000010" class="node">
<title>Node10</title>
<g id="a_Node000010"><a xlink:href="../../db/d5f/classml_1_1model_1_1_c_anomaly_detector_model_config.html#a8a17fed04d65855ded1107a7c5cd8768" target="_top" xlink:title=" ">
<polygon fill="white" stroke="#666666" points="549,-334.5 401,-334.5 401,-304 549,-304 549,-334.5"/>
<text text-anchor="start" x="409" y="-321" font-family="Helvetica,sans-Serif" font-size="10.00">ml::model::CAnomalyDetector</text>
<text text-anchor="middle" x="475" y="-309.75" font-family="Helvetica,sans-Serif" font-size="10.00">ModelConfig::noiseMultiplier</text>
</a>
</g>
</g>
<!-- Node2&#45;&gt;Node10 -->
<g id="edge11_Node000002_Node000010" class="edge">
<title>Node2&#45;&gt;Node10</title>
<g id="a_edge11_Node000002_Node000010"><a xlink:title=" ">
<path fill="none" stroke="#63b8ff" d="M332.39,-319.25C350.71,-319.25 370.5,-319.25 389.32,-319.25"/>
<polygon fill="#63b8ff" stroke="#63b8ff" points="389.06,-322.75 399.06,-319.25 389.06,-315.75 389.06,-322.75"/>
</a>
</g>
</g>
<!-- Node11 -->
<g id="Node000011" class="node">
<title>Node11</title>
<g id="a_Node000011"><a xlink:href="../../db/d5f/classml_1_1model_1_1_c_anomaly_detector_model_config.html#aa34085014c1101af12f78aeabc114b6b" target="_top" xlink:title=" ">
<polygon fill="white" stroke="#666666" points="549,-285.5 401,-285.5 401,-255 549,-255 549,-285.5"/>
<text text-anchor="start" x="409" y="-272" font-family="Helvetica,sans-Serif" font-size="10.00">ml::model::CAnomalyDetector</text>
<text text-anchor="middle" x="475" y="-260.75" font-family="Helvetica,sans-Serif" font-size="10.00">ModelConfig::noisePercentile</text>
</a>
</g>
</g>
<!-- Node2&#45;&gt;Node11 -->
<g id="edge12_Node000002_Node000011" class="edge">
<title>Node2&#45;&gt;Node11</title>
<g id="a_edge12_Node000002_Node000011"><a xlink:title=" ">
<path fill="none" stroke="#63b8ff" d="M327.91,-303.54C348.94,-298.75 372.23,-293.44 393.93,-288.5"/>
<polygon fill="#63b8ff" stroke="#63b8ff" points="394.66,-291.92 403.63,-286.29 393.1,-285.1 394.66,-291.92"/>
</a>
</g>
</g>
<!-- Node12 -->
<g id="Node000012" class="node">
<title>Node12</title>
<g id="a_Node000012"><a xlink:href="../../d1/dfa/classml_1_1core_1_1_c_string_utils.html#afea61023e297471afe5deb168dbcb112" target="_top" xlink:title="Replace adjacent whitespace characters with single spaces.">
<polygon fill="white" stroke="#666666" points="532.88,-236.5 417.12,-236.5 417.12,-206 532.88,-206 532.88,-236.5"/>
<text text-anchor="start" x="425.12" y="-223" font-family="Helvetica,sans-Serif" font-size="10.00">ml::core::CStringUtils</text>
<text text-anchor="middle" x="475" y="-211.75" font-family="Helvetica,sans-Serif" font-size="10.00">::normaliseWhitespace</text>
</a>
</g>
</g>
<!-- Node2&#45;&gt;Node12 -->
<g id="edge13_Node000002_Node000012" class="edge">
<title>Node2&#45;&gt;Node12</title>
<g id="a_edge13_Node000002_Node000012"><a xlink:title=" ">
<path fill="none" stroke="#63b8ff" d="M277.85,-303.52C298.65,-286.93 333.76,-261.17 368,-246.25 379.8,-241.11 392.82,-236.94 405.57,-233.58"/>
<polygon fill="#63b8ff" stroke="#63b8ff" points="406.34,-236.99 415.2,-231.2 404.66,-230.2 406.34,-236.99"/>
</a>
</g>
</g>
<!-- Node13 -->
<g id="Node000013" class="node">
<title>Node13</title>
<g id="a_Node000013"><a xlink:href="../../db/d5f/classml_1_1model_1_1_c_anomaly_detector_model_config.html#abe066ee9653c9e4d0d67688633335b75" target="_top" xlink:title="Get the normalized anomaly score knot points.">
<polygon fill="white" stroke="#666666" points="559.88,-188.12 390.12,-188.12 390.12,-146.38 559.88,-146.38 559.88,-188.12"/>
<text text-anchor="start" x="398.12" y="-174.62" font-family="Helvetica,sans-Serif" font-size="10.00">ml::model::CAnomalyDetector</text>
<text text-anchor="start" x="398.12" y="-163.38" font-family="Helvetica,sans-Serif" font-size="10.00">ModelConfig::normalizedScoreKnot</text>
<text text-anchor="middle" x="475" y="-152.12" font-family="Helvetica,sans-Serif" font-size="10.00">Points</text>
</a>
</g>
</g>
<!-- Node2&#45;&gt;Node13 -->
<g id="edge14_Node000002_Node000013" class="edge">
<title>Node2&#45;&gt;Node13</title>
<g id="a_edge14_Node000002_Node000013"><a xlink:title=" ">
<path fill="none" stroke="#63b8ff" d="M268.67,-303.57C285.56,-277.52 322.96,-225.4 368,-197.25 371.58,-195.01 375.32,-192.94 379.18,-191.02"/>
<polygon fill="#63b8ff" stroke="#63b8ff" points="380.59,-194.22 388.25,-186.9 377.7,-187.85 380.59,-194.22"/>
</a>
</g>
</g>
<!-- Node14 -->
<g id="Node000014" class="node">
<title>Node14</title>
<g id="a_Node000014"><a xlink:href="../../d1/dfa/classml_1_1core_1_1_c_string_utils.html#a932b52350cb193f474a02ee4758edc22" target="_top" xlink:title="Convert a string to a type.">
<polygon fill="white" stroke="#666666" points="530.25,-128.5 419.75,-128.5 419.75,-98 530.25,-98 530.25,-128.5"/>
<text text-anchor="start" x="427.75" y="-115" font-family="Helvetica,sans-Serif" font-size="10.00">ml::core::CStringUtils</text>
<text text-anchor="middle" x="475" y="-103.75" font-family="Helvetica,sans-Serif" font-size="10.00">::stringToType</text>
</a>
</g>
</g>
<!-- Node2&#45;&gt;Node14 -->
<g id="edge15_Node000002_Node000014" class="edge">
<title>Node2&#45;&gt;Node14</title>
<g id="a_edge15_Node000002_Node000014"><a xlink:title=" ">
<path fill="none" stroke="#63b8ff" d="M263.63,-303.67C275.04,-268.11 308.05,-180.68 368,-137.25 379.81,-128.69 394.15,-123.12 408.42,-119.5"/>
<polygon fill="#63b8ff" stroke="#63b8ff" points="408.79,-123 417.8,-117.43 407.28,-116.17 408.79,-123"/>
</a>
</g>
</g>
<!-- Node15 -->
<g id="Node000015" class="node">
<title>Node15</title>
<g id="a_Node000015"><a xlink:href="../../d1/dfa/classml_1_1core_1_1_c_string_utils.html#a504ec34c7321cc8c90aeedb7879bb152" target="_top" xlink:title=" ">
<polygon fill="white" stroke="#666666" points="530.25,-79.5 419.75,-79.5 419.75,-49 530.25,-49 530.25,-79.5"/>
<text text-anchor="start" x="427.75" y="-66" font-family="Helvetica,sans-Serif" font-size="10.00">ml::core::CStringUtils</text>
<text text-anchor="middle" x="475" y="-54.75" font-family="Helvetica,sans-Serif" font-size="10.00">::tokenise</text>
</a>
</g>
</g>
<!-- Node2&#45;&gt;Node15 -->
<g id="edge16_Node000002_Node000015" class="edge">
<title>Node2&#45;&gt;Node15</title>
<g id="a_edge16_Node000002_Node000015"><a xlink:title=" ">
<path fill="none" stroke="#63b8ff" d="M261.63,-303.52C269.5,-261.64 296.87,-146.76 368,-89.25 379.54,-79.92 393.97,-73.96 408.43,-70.18"/>
<polygon fill="#63b8ff" stroke="#63b8ff" points="408.99,-73.64 417.97,-68.03 407.45,-66.82 408.99,-73.64"/>
</a>
</g>
</g>
<!-- Node16 -->
<g id="Node000016" class="node">
<title>Node16</title>
<g id="a_Node000016"><a xlink:href="../../d1/dfa/classml_1_1core_1_1_c_string_utils.html#a35b1abce0123c6332e361d19f2c92a04" target="_top" xlink:title="Trim whitespace characters from the beginning and end of a string.">
<polygon fill="white" stroke="#666666" points="530.25,-30.5 419.75,-30.5 419.75,0 530.25,0 530.25,-30.5"/>
<text text-anchor="start" x="427.75" y="-17" font-family="Helvetica,sans-Serif" font-size="10.00">ml::core::CStringUtils</text>
<text text-anchor="middle" x="475" y="-5.75" font-family="Helvetica,sans-Serif" font-size="10.00">::trimWhitespace</text>
</a>
</g>
</g>
<!-- Node2&#45;&gt;Node16 -->
<g id="edge17_Node000002_Node000016" class="edge">
<title>Node2&#45;&gt;Node16</title>
<g id="a_edge17_Node000002_Node000016"><a xlink:title=" ">
<path fill="none" stroke="#63b8ff" d="M260.18,-303.76C264.63,-256.43 284.75,-112.53 368,-40.25 379.32,-30.42 393.8,-24.28 408.39,-20.49"/>
<polygon fill="#63b8ff" stroke="#63b8ff" points="409.03,-23.93 418.04,-18.35 407.52,-17.1 409.03,-23.93"/>
</a>
</g>
</g>
<!-- Node5&#45;&gt;Node5 -->
<g id="edge5_Node000005_Node000005" class="edge">
<title>Node5&#45;&gt;Node5</title>
<g id="a_edge5_Node000005_Node000005"><a xlink:title=" ">
<path fill="none" stroke="#63b8ff" d="M437.51,-559.44C433.94,-568.92 446.44,-577.12 475,-577.12 491.96,-577.12 503.26,-574.23 508.89,-569.9"/>
<polygon fill="#63b8ff" stroke="#63b8ff" points="512.05,-571.47 512,-560.87 505.43,-569.19 512.05,-571.47"/>
</a>
</g>
</g>
<!-- Node7&#45;&gt;Node7 -->
<g id="edge9_Node000007_Node000007" class="edge">
<title>Node7&#45;&gt;Node7</title>
<g id="a_edge9_Node000007_Node000007"><a xlink:title=" ">
<path fill="none" stroke="#63b8ff" d="M439.01,-432.99C431.66,-442.06 443.66,-450.5 475,-450.5 492.14,-450.5 503.49,-447.97 509.06,-444.2"/>
<polygon fill="#63b8ff" stroke="#63b8ff" points="512.49,-444.93 510.74,-434.48 505.59,-443.74 512.49,-444.93"/>
</a>
</g>
</g>
<!-- Node8 -->
<g id="Node000008" class="node">
<title>Node8</title>
<g id="a_Node000008"><a xlink:href="../../db/d69/classml_1_1model_1_1_c_search_key.html#a7bda6bb372b0d85dcbdcc3932fee829c" target="_top" xlink:title="Get an identifier for this search.">
<polygon fill="white" stroke="#666666" points="738.25,-432.5 618,-432.5 618,-402 738.25,-402 738.25,-432.5"/>
<text text-anchor="start" x="626" y="-419" font-family="Helvetica,sans-Serif" font-size="10.00">ml::model::CSearchKey</text>
<text text-anchor="middle" x="678.12" y="-407.75" font-family="Helvetica,sans-Serif" font-size="10.00">::detectorIndex</text>
</a>
</g>
</g>
<!-- Node7&#45;&gt;Node8 -->
<g id="edge8_Node000007_Node000008" class="edge">
<title>Node7&#45;&gt;Node8</title>
<g id="a_edge8_Node000007_Node000008"><a xlink:title=" ">
<path fill="none" stroke="#63b8ff" d="M549.46,-417.25C568.05,-417.25 587.97,-417.25 606.42,-417.25"/>
<polygon fill="#63b8ff" stroke="#63b8ff" points="606.17,-420.75 616.17,-417.25 606.17,-413.75 606.17,-420.75"/>
</a>
</g>
</g>
<!-- Node17 -->
<g id="Node000017" class="node">
<title>Node17</title>
<g id="a_Node000017"><a xlink:href="../../d1/dfa/classml_1_1core_1_1_c_string_utils.html#a735030108b69ffc78cd71c89e6ffe322" target="_top" xlink:title="Trim certain characters from the beginning and end of a string.">
<polygon fill="white" stroke="#666666" points="733.38,-30.5 622.88,-30.5 622.88,0 733.38,0 733.38,-30.5"/>
<text text-anchor="start" x="630.88" y="-17" font-family="Helvetica,sans-Serif" font-size="10.00">ml::core::CStringUtils</text>
<text text-anchor="middle" x="678.12" y="-5.75" font-family="Helvetica,sans-Serif" font-size="10.00">::trim</text>
</a>
</g>
</g>
<!-- Node16&#45;&gt;Node17 -->
<g id="edge18_Node000016_Node000017" class="edge">
<title>Node16&#45;&gt;Node17</title>
<g id="a_edge18_Node000016_Node000017"><a xlink:title=" ">
<path fill="none" stroke="#63b8ff" d="M530.69,-15.25C555.52,-15.25 585.09,-15.25 611.14,-15.25"/>
<polygon fill="#63b8ff" stroke="#63b8ff" points="610.93,-18.75 620.93,-15.25 610.93,-11.75 610.93,-18.75"/>
</a>
</g>
</g>
</g>
</svg>

<g id="navigator" transform="translate(0 0)" fill="#404254">
  <rect fill="#f2f5e9" fill-opacity="0.5" stroke="#606060" stroke-width=".5" x="0" y="0" width="60" height="60"/>
  <use id="zoomplus" xlink:href="#zoomPlus" x="17" y="9" onmousedown="handleZoom(evt,'in')"/>
  <use id="zoomminus" xlink:href="#zoomMin" x="42" y="9" onmousedown="handleZoom(evt,'out')"/>
  <use id="reset" xlink:href="#resetDef" x="30" y="36" onmousedown="handleReset()"/>
   <use id="arrowup" xlink:href="#arrowUp" x="0" y="0" onmousedown="handlePan(0,-1)"/>
  <use id="arrowright" xlink:href="#arrowRight" x="0" y="0" onmousedown="handlePan(1,0)"/>
  <use id="arrowdown" xlink:href="#arrowDown" x="0" y="0" onmousedown="handlePan(0,1)"/>
  <use id="arrowleft" xlink:href="#arrowLeft" x="0" y="0" onmousedown="handlePan(-1,0)"/>
</g>
<svg viewBox="0 0 15 15" width="100%" height="30px" preserveAspectRatio="xMaxYMin meet">
 <g id="arrow_out" transform="scale(0.3 0.3)">
  <a xlink:href="classml_1_1model_1_1_c_anomaly_detector_model_config_acf1935358cc75badb999a020bd325ae3_cgraph_org.svg" target="_base">
   <rect id="button" ry="5" rx="5" y="6" x="6" height="38" width="38"
        fill="#f2f5e9" fill-opacity="0.5" stroke="#606060" stroke-width="1.0"/>
   <path id="arrow"
     d="M 11.500037,31.436501 C 11.940474,20.09759 22.043105,11.32322 32.158766,21.979434 L 37.068811,17.246167 C 37.068811,17.246167 37.088388,32 37.088388,32 L 22.160133,31.978069 C 22.160133,31.978069 26.997745,27.140456 26.997745,27.140456 C 18.528582,18.264221 13.291696,25.230495 11.500037,31.436501 z"
     style="fill:#404040;"/>
  </a>
 </g>
</svg>

<style type='text/css'>
<![CDATA[
[data-mouse-over-selected='false'] { opacity: 0.7; }
[data-mouse-over-selected='true']  { opacity: 1.0; }
]]>
</style>
<script type="application/ecmascript"><![CDATA[
document.addEventListener('DOMContentLoaded', (event) => {
  highlightEdges();
  highlightAdjacentNodes();
});
]]></script>
</svg>
