<?xml version="1.0" encoding="UTF-8" standalone="no"?>
<!DOCTYPE svg PUBLIC "-//W3C//DTD SVG 1.1//EN"
 "http://www.w3.org/Graphics/SVG/1.1/DTD/svg11.dtd">
<!-- Generated by graphviz version 10.0.1 (20240210.2158)
 -->
<!-- Title: ml::model::CAnomalyDetectorModelConfig::modelPruneWindow Pages: 1 -->
<svg width="1012pt" height="112pt"
 viewBox="0.00 0.00 1012.25 111.50" xmlns="http://www.w3.org/2000/svg" xmlns:xlink="http://www.w3.org/1999/xlink">
<g id="graph0" class="graph" transform="scale(1 1) rotate(0) translate(4 107.5)">
<title>ml::model::CAnomalyDetectorModelConfig::modelPruneWindow</title>
<!-- Node1 -->
<g id="Node000001" class="node">
<title>Node1</title>
<g id="a_Node000001"><a xlink:title=" ">
<polygon fill="#999999" stroke="#666666" points="1004.25,-78.5 840.5,-78.5 840.5,-48 1004.25,-48 1004.25,-78.5"/>
<text text-anchor="start" x="848.5" y="-65" font-family="Helvetica,sans-Serif" font-size="10.00">ml::model::CAnomalyDetector</text>
<text text-anchor="middle" x="922.38" y="-53.75" font-family="Helvetica,sans-Serif" font-size="10.00">ModelConfig::modelPruneWindow</text>
</a>
</g>
</g>
<!-- Node2 -->
<g id="Node000002" class="node">
<title>Node2</title>
<g id="a_Node000002"><a xlink:href="../../db/d5f/classml_1_1model_1_1_c_anomaly_detector_model_config.html#a3d2930483971a2bffa16b55e18c05cdb" target="_top" xlink:title=" ">
<polygon fill="white" stroke="#666666" points="804.5,-103.5 640.75,-103.5 640.75,-73 804.5,-73 804.5,-103.5"/>
<text text-anchor="start" x="648.75" y="-90" font-family="Helvetica,sans-Serif" font-size="10.00">ml::model::CAnomalyDetector</text>
<text text-anchor="middle" x="722.62" y="-78.75" font-family="Helvetica,sans-Serif" font-size="10.00">ModelConfig::modelPruneWindow</text>
</a>
</g>
</g>
<!-- Node1&#45;&gt;Node2 -->
<g id="edge1_Node000001_Node000002" class="edge">
<title>Node1&#45;&gt;Node2</title>
<g id="a_edge1_Node000001_Node000002"><a xlink:title=" ">
<path fill="none" stroke="#63b8ff" d="M828.85,-74.95C820.86,-75.96 812.81,-76.98 804.92,-77.97"/>
<polygon fill="#63b8ff" stroke="#63b8ff" points="829.1,-78.44 838.58,-73.72 828.22,-71.5 829.1,-78.44"/>
</a>
</g>
</g>
<!-- Node3 -->
<g id="Node000003" class="node">
<title>Node3</title>
<g id="a_Node000003"><a xlink:href="../../d9/dee/classml_1_1api_1_1_c_anomaly_job.html#a13e6b57c735a0fbab0c720e3f82b6f7d" target="_top" xlink:title="Write out the results for the bucket starting at bucketStartTime.">
<polygon fill="white" stroke="#666666" points="779,-54.5 666.25,-54.5 666.25,-24 779,-24 779,-54.5"/>
<text text-anchor="start" x="674.25" y="-41" font-family="Helvetica,sans-Serif" font-size="10.00">ml::api::CAnomalyJob</text>
<text text-anchor="middle" x="722.62" y="-29.75" font-family="Helvetica,sans-Serif" font-size="10.00">::outputResults</text>
</a>
</g>
</g>
<!-- Node1&#45;&gt;Node3 -->
<g id="edge2_Node000001_Node000003" class="edge">
<title>Node1&#45;&gt;Node3</title>
<g id="a_edge2_Node000001_Node000003"><a xlink:title=" ">
<path fill="none" stroke="#63b8ff" d="M828.98,-52.04C811.99,-49.97 794.75,-47.88 779.27,-46"/>
<polygon fill="#63b8ff" stroke="#63b8ff" points="828.24,-55.47 838.58,-53.2 829.08,-48.52 828.24,-55.47"/>
</a>
</g>
</g>
<!-- Node4 -->
<g id="Node000004" class="node">
<title>Node4</title>
<g id="a_Node000004"><a xlink:href="../../d9/dee/classml_1_1api_1_1_c_anomaly_job.html#a2fd3ad014eff086eb116db9026050cf5" target="_top" xlink:title="Output any results new results which are available at time.">
<polygon fill="white" stroke="#666666" points="602.12,-79.5 468.38,-79.5 468.38,-49 602.12,-49 602.12,-79.5"/>
<text text-anchor="start" x="476.38" y="-66" font-family="Helvetica,sans-Serif" font-size="10.00">ml::api::CAnomalyJob</text>
<text text-anchor="middle" x="535.25" y="-54.75" font-family="Helvetica,sans-Serif" font-size="10.00">::outputBucketResultsUntil</text>
</a>
</g>
</g>
<!-- Node3&#45;&gt;Node4 -->
<g id="edge3_Node000003_Node000004" class="edge">
<title>Node3&#45;&gt;Node4</title>
<g id="a_edge3_Node000003_Node000004"><a xlink:title=" ">
<path fill="none" stroke="#63b8ff" d="M654.77,-48.27C637.74,-50.56 619.45,-53.03 602.45,-55.32"/>
<polygon fill="#63b8ff" stroke="#63b8ff" points="654.81,-51.79 664.26,-46.99 653.88,-44.86 654.81,-51.79"/>
</a>
</g>
</g>
<!-- Node8 -->
<g id="Node000008" class="node">
<title>Node8</title>
<g id="a_Node000008"><a xlink:href="../../d9/dee/classml_1_1api_1_1_c_anomaly_job.html#a9f65dd0e424bca17de0073ad974fa819" target="_top" xlink:title=" ">
<polygon fill="white" stroke="#666666" points="604.75,-30.5 465.75,-30.5 465.75,0 604.75,0 604.75,-30.5"/>
<text text-anchor="start" x="473.75" y="-17" font-family="Helvetica,sans-Serif" font-size="10.00">ml::api::CAnomalyJob</text>
<text text-anchor="middle" x="535.25" y="-5.75" font-family="Helvetica,sans-Serif" font-size="10.00">::outputResultsWithinRange</text>
</a>
</g>
</g>
<!-- Node3&#45;&gt;Node8 -->
<g id="edge8_Node000003_Node000008" class="edge">
<title>Node3&#45;&gt;Node8</title>
<g id="a_edge8_Node000003_Node000008"><a xlink:title=" ">
<path fill="none" stroke="#63b8ff" d="M654.79,-30.6C638.64,-28.51 621.36,-26.27 605.12,-24.17"/>
<polygon fill="#63b8ff" stroke="#63b8ff" points="653.89,-34.01 664.25,-31.82 654.79,-27.07 653.89,-34.01"/>
</a>
</g>
</g>
<!-- Node5 -->
<g id="Node000005" class="node">
<title>Node5</title>
<g id="a_Node000005"><a xlink:href="../../d9/dee/classml_1_1api_1_1_c_anomaly_job.html#a9680062014284b51fb38536b2a5dafb8" target="_top" xlink:title=" ">
<polygon fill="white" stroke="#666666" points="424.5,-79.5 311.75,-79.5 311.75,-49 424.5,-49 424.5,-79.5"/>
<text text-anchor="start" x="319.75" y="-66" font-family="Helvetica,sans-Serif" font-size="10.00">ml::api::CAnomalyJob</text>
<text text-anchor="middle" x="368.12" y="-54.75" font-family="Helvetica,sans-Serif" font-size="10.00">::advanceTime</text>
</a>
</g>
</g>
<!-- Node4&#45;&gt;Node5 -->
<g id="edge4_Node000004_Node000005" class="edge">
<title>Node4&#45;&gt;Node5</title>
<g id="a_edge4_Node000004_Node000005"><a xlink:title=" ">
<path fill="none" stroke="#63b8ff" d="M456.83,-64.25C446,-64.25 435.06,-64.25 424.74,-64.25"/>
<polygon fill="#63b8ff" stroke="#63b8ff" points="456.53,-67.75 466.53,-64.25 456.53,-60.75 456.53,-67.75"/>
</a>
</g>
</g>
<!-- Node7 -->
<g id="Node000007" class="node">
<title>Node7</title>
<g id="a_Node000007"><a xlink:href="../../d9/dee/classml_1_1api_1_1_c_anomaly_job.html#a7b4418f8987b9618eb3534c80d8d1617" target="_top" xlink:title=" ">
<polygon fill="white" stroke="#666666" points="112.75,-100.5 0,-100.5 0,-70 112.75,-70 112.75,-100.5"/>
<text text-anchor="start" x="8" y="-87" font-family="Helvetica,sans-Serif" font-size="10.00">ml::api::CAnomalyJob</text>
<text text-anchor="middle" x="56.38" y="-75.75" font-family="Helvetica,sans-Serif" font-size="10.00">::handleRecord</text>
</a>
</g>
</g>
<!-- Node4&#45;&gt;Node7 -->
<g id="edge7_Node000004_Node000007" class="edge">
<title>Node4&#45;&gt;Node7</title>
<g id="a_edge7_Node000004_Node000007"><a xlink:title=" ">
<path fill="none" stroke="#63b8ff" d="M465.22,-82.41C453.46,-84.84 441.31,-86.94 429.75,-88.25 317.97,-100.92 186.12,-94.98 113.11,-89.88"/>
<polygon fill="#63b8ff" stroke="#63b8ff" points="465.83,-85.86 474.86,-80.32 464.35,-79.02 465.83,-85.86"/>
</a>
</g>
</g>
<!-- Node6 -->
<g id="Node000006" class="node">
<title>Node6</title>
<g id="a_Node000006"><a xlink:href="../../d9/dee/classml_1_1api_1_1_c_anomaly_job.html#a176e0e5e3eaa3e802ff4da6773e33c35" target="_top" xlink:title=" ">
<polygon fill="white" stroke="#666666" points="270.5,-79.5 148.75,-79.5 148.75,-49 270.5,-49 270.5,-79.5"/>
<text text-anchor="start" x="156.75" y="-66" font-family="Helvetica,sans-Serif" font-size="10.00">ml::api::CAnomalyJob</text>
<text text-anchor="middle" x="209.62" y="-54.75" font-family="Helvetica,sans-Serif" font-size="10.00">::handleControlMessage</text>
</a>
</g>
</g>
<!-- Node5&#45;&gt;Node6 -->
<g id="edge5_Node000005_Node000006" class="edge">
<title>Node5&#45;&gt;Node6</title>
<g id="a_edge5_Node000005_Node000006"><a xlink:title=" ">
<path fill="none" stroke="#63b8ff" d="M300.2,-64.25C290.45,-64.25 280.45,-64.25 270.84,-64.25"/>
<polygon fill="#63b8ff" stroke="#63b8ff" points="299.99,-67.75 309.99,-64.25 299.99,-60.75 299.99,-67.75"/>
</a>
</g>
</g>
<!-- Node6&#45;&gt;Node7 -->
<g id="edge6_Node000006_Node000007" class="edge">
<title>Node6&#45;&gt;Node7</title>
<g id="a_edge6_Node000006_Node000007"><a xlink:title=" ">
<path fill="none" stroke="#63b8ff" d="M137.05,-74.19C128.96,-75.31 120.81,-76.44 112.96,-77.53"/>
<polygon fill="#63b8ff" stroke="#63b8ff" points="137.49,-77.66 146.91,-72.82 136.53,-70.73 137.49,-77.66"/>
</a>
</g>
</g>
<!-- Node9 -->
<g id="Node000009" class="node">
<title>Node9</title>
<g id="a_Node000009"><a xlink:href="../../d9/dee/classml_1_1api_1_1_c_anomaly_job.html#ad73da3c668b230305f4bed2fe3fc5b2c" target="_top" xlink:title="Generate interim results.">
<polygon fill="white" stroke="#666666" points="429.75,-30.5 306.5,-30.5 306.5,0 429.75,0 429.75,-30.5"/>
<text text-anchor="start" x="314.5" y="-17" font-family="Helvetica,sans-Serif" font-size="10.00">ml::api::CAnomalyJob</text>
<text text-anchor="middle" x="368.12" y="-5.75" font-family="Helvetica,sans-Serif" font-size="10.00">::generateInterimResults</text>
</a>
</g>
</g>
<!-- Node8&#45;&gt;Node9 -->
<g id="edge9_Node000008_Node000009" class="edge">
<title>Node8&#45;&gt;Node9</title>
<g id="a_edge9_Node000008_Node000009"><a xlink:title=" ">
<path fill="none" stroke="#63b8ff" d="M454.24,-15.25C446.13,-15.25 437.99,-15.25 430.13,-15.25"/>
<polygon fill="#63b8ff" stroke="#63b8ff" points="454.14,-18.75 464.14,-15.25 454.14,-11.75 454.14,-18.75"/>
</a>
</g>
</g>
<!-- Node9&#45;&gt;Node6 -->
<g id="edge10_Node000009_Node000006" class="edge">
<title>Node9&#45;&gt;Node6</title>
<g id="a_edge10_Node000009_Node000006"><a xlink:title=" ">
<path fill="none" stroke="#63b8ff" d="M306.41,-34.26C291.36,-38.97 275.39,-43.97 260.9,-48.51"/>
<polygon fill="#63b8ff" stroke="#63b8ff" points="307.24,-37.67 315.73,-31.34 305.14,-30.99 307.24,-37.67"/>
</a>
</g>
</g>
</g>
</svg>
