<?xml version="1.0" encoding="UTF-8" standalone="no"?>
<!DOCTYPE svg PUBLIC "-//W3C//DTD SVG 1.1//EN"
 "http://www.w3.org/Graphics/SVG/1.1/DTD/svg11.dtd">
<!-- Generated by graphviz version 10.0.1 (20240210.2158)
 -->
<!-- Title: ml::model::CMetricModel::featureData Pages: 1 -->
<svg width="836pt" height="125pt"
 viewBox="0.00 0.00 835.75 124.88" xmlns="http://www.w3.org/2000/svg" xmlns:xlink="http://www.w3.org/1999/xlink">
<g id="graph0" class="graph" transform="scale(1 1) rotate(0) translate(4 120.88)">
<title>ml::model::CMetricModel::featureData</title>
<!-- Node1 -->
<g id="Node000001" class="node">
<title>Node1</title>
<g id="a_Node000001"><a xlink:title=" ">
<polygon fill="#999999" stroke="#666666" points="125.5,-67.88 0,-67.88 0,-37.38 125.5,-37.38 125.5,-67.88"/>
<text text-anchor="start" x="8" y="-54.38" font-family="Helvetica,sans-Serif" font-size="10.00">ml::model::CMetricModel</text>
<text text-anchor="middle" x="62.75" y="-43.12" font-family="Helvetica,sans-Serif" font-size="10.00">::featureData</text>
</a>
</g>
</g>
<!-- Node2 -->
<g id="Node000002" class="node">
<title>Node2</title>
<g id="a_Node000002"><a xlink:href="../../d1/d04/classml_1_1model_1_1_c_individual_model.html#a136ad554666ee7f01783c3a2832bf828" target="_top" xlink:title=" ">
<polygon fill="white" stroke="#666666" points="301.25,-67.88 161.5,-67.88 161.5,-37.38 301.25,-37.38 301.25,-67.88"/>
<text text-anchor="start" x="169.5" y="-54.38" font-family="Helvetica,sans-Serif" font-size="10.00">ml::model::CIndividualModel</text>
<text text-anchor="middle" x="231.38" y="-43.12" font-family="Helvetica,sans-Serif" font-size="10.00">::featureData</text>
</a>
</g>
</g>
<!-- Node1&#45;&gt;Node2 -->
<g id="edge1_Node000001_Node000002" class="edge">
<title>Node1&#45;&gt;Node2</title>
<g id="a_edge1_Node000001_Node000002"><a xlink:title=" ">
<path fill="none" stroke="#63b8ff" d="M125.79,-52.62C133.66,-52.62 141.79,-52.62 149.88,-52.62"/>
<polygon fill="#63b8ff" stroke="#63b8ff" points="149.76,-56.13 159.76,-52.63 149.76,-49.13 149.76,-56.13"/>
</a>
</g>
</g>
<!-- Node2&#45;&gt;Node2 -->
<g id="edge6_Node000002_Node000002" class="edge">
<title>Node2&#45;&gt;Node2</title>
<g id="a_edge6_Node000002_Node000002"><a xlink:title=" ">
<path fill="none" stroke="#63b8ff" d="M201.49,-68.36C195.4,-77.43 205.36,-85.88 231.38,-85.88 245.6,-85.88 255.03,-83.35 259.65,-79.58"/>
<polygon fill="#63b8ff" stroke="#63b8ff" points="263.09,-80.25 261.04,-69.86 256.16,-79.26 263.09,-80.25"/>
</a>
</g>
</g>
<!-- Node3 -->
<g id="Node000003" class="node">
<title>Node3</title>
<g id="a_Node000003"><a xlink:href="../../d1/d04/classml_1_1model_1_1_c_individual_model.html#a130ae59445e9fead1a64589376ca5c22" target="_top" xlink:title="Check if bucket statistics are available for the specified time.">
<polygon fill="white" stroke="#666666" points="477,-67.88 337.25,-67.88 337.25,-37.38 477,-37.38 477,-67.88"/>
<text text-anchor="start" x="345.25" y="-54.38" font-family="Helvetica,sans-Serif" font-size="10.00">ml::model::CIndividualModel</text>
<text text-anchor="middle" x="407.12" y="-43.12" font-family="Helvetica,sans-Serif" font-size="10.00">::bucketStatsAvailable</text>
</a>
</g>
</g>
<!-- Node2&#45;&gt;Node3 -->
<g id="edge2_Node000002_Node000003" class="edge">
<title>Node2&#45;&gt;Node3</title>
<g id="a_edge2_Node000002_Node000003"><a xlink:title=" ">
<path fill="none" stroke="#63b8ff" d="M301.54,-52.62C309.46,-52.62 317.57,-52.62 325.62,-52.62"/>
<polygon fill="#63b8ff" stroke="#63b8ff" points="325.4,-56.13 335.4,-52.63 325.4,-49.13 325.4,-56.13"/>
</a>
</g>
</g>
<!-- Node7 -->
<g id="Node000007" class="node">
<title>Node7</title>
<g id="a_Node000007"><a xlink:href="../../df/d9c/namespaceml_1_1model__t.html#ada583ac75540d0fcaac3a90317bafd3e" target="_top" xlink:title="Get a string description of a model type.">
<polygon fill="white" stroke="#666666" points="453,-19.25 361.25,-19.25 361.25,0 453,0 453,-19.25"/>
<text text-anchor="middle" x="407.12" y="-5.75" font-family="Helvetica,sans-Serif" font-size="10.00">ml::model_t::print</text>
</a>
</g>
</g>
<!-- Node2&#45;&gt;Node7 -->
<g id="edge7_Node000002_Node000007" class="edge">
<title>Node2&#45;&gt;Node7</title>
<g id="a_edge7_Node000002_Node000007"><a xlink:title=" ">
<path fill="none" stroke="#63b8ff" d="M295.59,-36.98C314.88,-32.21 335.85,-27.02 354.29,-22.45"/>
<polygon fill="#63b8ff" stroke="#63b8ff" points="355.07,-25.87 363.93,-20.07 353.38,-19.07 355.07,-25.87"/>
</a>
</g>
</g>
<!-- Node9 -->
<g id="Node000009" class="node">
<title>Node9</title>
<g id="a_Node000009"><a xlink:href="../../d1/d04/classml_1_1model_1_1_c_individual_model.html#aed340fb88b07676ae12a60f9d1f9d8c8" target="_top" xlink:title="Print the current bucketing interval.">
<polygon fill="white" stroke="#666666" points="477,-116.88 337.25,-116.88 337.25,-86.38 477,-86.38 477,-116.88"/>
<text text-anchor="start" x="345.25" y="-103.38" font-family="Helvetica,sans-Serif" font-size="10.00">ml::model::CIndividualModel</text>
<text text-anchor="middle" x="407.12" y="-92.12" font-family="Helvetica,sans-Serif" font-size="10.00">::printCurrentBucket</text>
</a>
</g>
</g>
<!-- Node2&#45;&gt;Node9 -->
<g id="edge9_Node000002_Node000009" class="edge">
<title>Node2&#45;&gt;Node9</title>
<g id="a_edge9_Node000002_Node000009"><a xlink:title=" ">
<path fill="none" stroke="#63b8ff" d="M287.83,-68.26C304.2,-72.88 322.3,-77.99 339.31,-82.78"/>
<polygon fill="#63b8ff" stroke="#63b8ff" points="338.27,-86.13 348.85,-85.47 340.17,-79.39 338.27,-86.13"/>
</a>
</g>
</g>
<!-- Node4 -->
<g id="Node000004" class="node">
<title>Node4</title>
<g id="a_Node000004"><a xlink:href="../../da/d88/classml_1_1model_1_1_c_anomaly_detector_model.html#aba56af5c27a1bb113941c81977171f5e" target="_top" xlink:title="Get the length of the time interval used to aggregate data.">
<polygon fill="white" stroke="#666666" points="661,-67.88 513,-67.88 513,-37.38 661,-37.38 661,-67.88"/>
<text text-anchor="start" x="521" y="-54.38" font-family="Helvetica,sans-Serif" font-size="10.00">ml::model::CAnomalyDetector</text>
<text text-anchor="middle" x="587" y="-43.12" font-family="Helvetica,sans-Serif" font-size="10.00">Model::bucketLength</text>
</a>
</g>
</g>
<!-- Node3&#45;&gt;Node4 -->
<g id="edge3_Node000003_Node000004" class="edge">
<title>Node3&#45;&gt;Node4</title>
<g id="a_edge3_Node000003_Node000004"><a xlink:title=" ">
<path fill="none" stroke="#63b8ff" d="M477.41,-52.62C485.3,-52.62 493.4,-52.62 501.46,-52.62"/>
<polygon fill="#63b8ff" stroke="#63b8ff" points="501.28,-56.13 511.28,-52.63 501.28,-49.13 501.28,-56.13"/>
</a>
</g>
</g>
<!-- Node6 -->
<g id="Node000006" class="node">
<title>Node6</title>
<g id="a_Node000006"><a xlink:href="../../d1/d04/classml_1_1model_1_1_c_individual_model.html#a4a4c3b8c1b879528e4356799a5bca3b9" target="_top" xlink:title="Get the start time of the current bucket.">
<polygon fill="white" stroke="#666666" points="656.88,-116.88 517.12,-116.88 517.12,-86.38 656.88,-86.38 656.88,-116.88"/>
<text text-anchor="start" x="525.12" y="-103.38" font-family="Helvetica,sans-Serif" font-size="10.00">ml::model::CIndividualModel</text>
<text text-anchor="middle" x="587" y="-92.12" font-family="Helvetica,sans-Serif" font-size="10.00">::currentBucketStartTime</text>
</a>
</g>
</g>
<!-- Node3&#45;&gt;Node6 -->
<g id="edge5_Node000003_Node000006" class="edge">
<title>Node3&#45;&gt;Node6</title>
<g id="a_edge5_Node000003_Node000006"><a xlink:title=" ">
<path fill="none" stroke="#63b8ff" d="M464.89,-68.26C481.82,-72.93 500.54,-78.08 518.1,-82.92"/>
<polygon fill="#63b8ff" stroke="#63b8ff" points="516.82,-86.2 527.39,-85.48 518.68,-79.45 516.82,-86.2"/>
</a>
</g>
</g>
<!-- Node5 -->
<g id="Node000005" class="node">
<title>Node5</title>
<g id="a_Node000005"><a xlink:href="../../d0/d91/classml_1_1model_1_1_c_data_gatherer.html#acea33437fdc2fb56e45d93d41deffc87" target="_top" xlink:title="Get the length of the bucketing time interval.">
<polygon fill="white" stroke="#666666" points="827.75,-67.88 697,-67.88 697,-37.38 827.75,-37.38 827.75,-67.88"/>
<text text-anchor="start" x="705" y="-54.38" font-family="Helvetica,sans-Serif" font-size="10.00">ml::model::CDataGatherer</text>
<text text-anchor="middle" x="762.38" y="-43.12" font-family="Helvetica,sans-Serif" font-size="10.00">::bucketLength</text>
</a>
</g>
</g>
<!-- Node4&#45;&gt;Node5 -->
<g id="edge4_Node000004_Node000005" class="edge">
<title>Node4&#45;&gt;Node5</title>
<g id="a_edge4_Node000004_Node000005"><a xlink:title=" ">
<path fill="none" stroke="#63b8ff" d="M661.28,-52.62C669.16,-52.62 677.2,-52.62 685.12,-52.62"/>
<polygon fill="#63b8ff" stroke="#63b8ff" points="685.09,-56.13 695.09,-52.63 685.09,-49.13 685.09,-56.13"/>
</a>
</g>
</g>
<!-- Node8 -->
<g id="Node000008" class="node">
<title>Node8</title>
<g id="a_Node000008"><a xlink:href="../../d3/d2e/private_8h.html#a1c6de65cc31c36fe2ede0d438531d327" target="_top" xlink:title=" ">
<polygon fill="white" stroke="#666666" points="604.38,-19.25 569.62,-19.25 569.62,0 604.38,0 604.38,-19.25"/>
<text text-anchor="middle" x="587" y="-5.75" font-family="Helvetica,sans-Serif" font-size="10.00">type</text>
</a>
</g>
</g>
<!-- Node7&#45;&gt;Node8 -->
<g id="edge8_Node000007_Node000008" class="edge">
<title>Node7&#45;&gt;Node8</title>
<g id="a_edge8_Node000007_Node000008"><a xlink:title=" ">
<path fill="none" stroke="#63b8ff" d="M453.47,-9.62C486.47,-9.62 530.1,-9.62 558.11,-9.62"/>
<polygon fill="#63b8ff" stroke="#63b8ff" points="557.92,-13.13 567.92,-9.63 557.92,-6.13 557.92,-13.13"/>
</a>
</g>
</g>
<!-- Node9&#45;&gt;Node4 -->
<g id="edge10_Node000009_Node000004" class="edge">
<title>Node9&#45;&gt;Node4</title>
<g id="a_edge10_Node000009_Node000004"><a xlink:title=" ">
<path fill="none" stroke="#63b8ff" d="M464.89,-85.99C481.82,-81.32 500.54,-76.17 518.1,-71.33"/>
<polygon fill="#63b8ff" stroke="#63b8ff" points="518.68,-74.8 527.39,-68.77 516.82,-68.05 518.68,-74.8"/>
</a>
</g>
</g>
<!-- Node9&#45;&gt;Node6 -->
<g id="edge11_Node000009_Node000006" class="edge">
<title>Node9&#45;&gt;Node6</title>
<g id="a_edge11_Node000009_Node000006"><a xlink:title=" ">
<path fill="none" stroke="#63b8ff" d="M477.41,-101.62C486.63,-101.62 496.15,-101.62 505.54,-101.62"/>
<polygon fill="#63b8ff" stroke="#63b8ff" points="505.4,-105.13 515.4,-101.63 505.4,-98.13 505.4,-105.13"/>
</a>
</g>
</g>
</g>
</svg>
