<?xml version="1.0" encoding="UTF-8" standalone="no"?>
<!DOCTYPE svg PUBLIC "-//W3C//DTD SVG 1.1//EN"
 "http://www.w3.org/Graphics/SVG/1.1/DTD/svg11.dtd">
<!-- Generated by graphviz version 10.0.1 (20240210.2158)
 -->
<!-- Title: ml::model::CMetricModel::CMetricModel Pages: 1 -->
<!--zoomable 689 -->

<svg id="main" version="1.1" xmlns="http://www.w3.org/2000/svg" xmlns:xlink="http://www.w3.org/1999/xlink" xml:space="preserve" onload="init(evt)">
<style type="text/css"><![CDATA[
.node, .edge {opacity: 0.7;}
.node.selected, .edge.selected {opacity: 1;}
.edge:hover path { stroke: red; }
.edge:hover polygon { stroke: red; fill: red; }
]]></style>

<defs>
  <circle id="rim" cx="0" cy="0" r="7"/>
  <circle id="rim2" cx="0" cy="0" r="3.5"/>
  <g id="zoomPlus">
    <use xlink:href="#rim" fill="#404040"><set attributeName="fill" to="#808080" begin="zoomplus.mouseover" end="zoomplus.mouseout"/></use>
    <path d="M-4,0h8M0,-4v8" fill="none" stroke="white" stroke-width="1.5" pointer-events="none"/>
  </g>
  <g id="zoomMin">
    <use xlink:href="#rim" fill="#404040"><set attributeName="fill" to="#808080" begin="zoomminus.mouseover" end="zoomminus.mouseout"/></use>
    <path d="M-4,0h8" fill="none" stroke="white" stroke-width="1.5" pointer-events="none"/>
  </g>
  <g id="arrowUp" transform="translate(30 24)">
    <use xlink:href="#rim"/>
    <path pointer-events="none" fill="none" stroke="white" stroke-width="1.5" d="M0,-3.0v7 M-2.5,-0.5L0,-3.0L2.5,-0.5"/>
  </g>
  <g id="arrowRight" transform="rotate(90) translate(36 -43)">
    <use xlink:href="#rim"/>
    <path pointer-events="none" fill="none" stroke="white" stroke-width="1.5" d="M0,-3.0v7 M-2.5,-0.5L0,-3.0L2.5,-0.5"/>
  </g>
  <g id="arrowDown" transform="rotate(180) translate(-30 -48)">
    <use xlink:href="#rim"/>
    <path pointer-events="none" fill="none" stroke="white" stroke-width="1.5" d="M0,-3.0v7 M-2.5,-0.5L0,-3.0L2.5,-0.5"/>
  </g>
  <g id="arrowLeft" transform="rotate(270) translate(-36 17)">
    <use xlink:href="#rim"/>
    <path pointer-events="none" fill="none" stroke="white" stroke-width="1.5" d="M0,-3.0v7 M-2.5,-0.5L0,-3.0L2.5,-0.5"/>
  </g>
  <g id="resetDef">
    <use xlink:href="#rim2" fill="#404040"><set attributeName="fill" to="#808080" begin="reset.mouseover" end="reset.mouseout"/></use>
  </g>
</defs>
<script type="application/ecmascript">
var viewWidth = 709;
var viewHeight = 689;
var sectionId = 'dynsection-3';
</script>
<script type="application/ecmascript" xlink:href="../../svg.min.js"/>
<svg id="graph" class="graph">
<g id="viewport">
<title>ml::model::CMetricModel::CMetricModel</title>
<!-- Node1 -->
<g id="Node000001" class="node">
<title>Node1</title>
<g id="a_Node000001"><a xlink:title=" ">
<polygon fill="#999999" stroke="#666666" points="125.5,-355.5 0,-355.5 0,-325 125.5,-325 125.5,-355.5"/>
<text text-anchor="start" x="8" y="-342" font-family="Helvetica,sans-Serif" font-size="10.00">ml::model::CMetricModel</text>
<text text-anchor="middle" x="62.75" y="-330.75" font-family="Helvetica,sans-Serif" font-size="10.00">::CMetricModel</text>
</a>
</g>
</g>
<!-- Node2 -->
<g id="Node000002" class="node">
<title>Node2</title>
<g id="a_Node000002"><a xlink:href="../../da/dfb/classml_1_1model_1_1_c_metric_model.html#a2a17aefca31ae55eb498c8b09f8c64bc" target="_top" xlink:title="Restore reading state from traverser.">
<polygon fill="white" stroke="#666666" points="306.88,-355.5 179.88,-355.5 179.88,-325 306.88,-325 306.88,-355.5"/>
<text text-anchor="start" x="187.88" y="-342" font-family="Helvetica,sans-Serif" font-size="10.00">ml::model::CMetricModel</text>
<text text-anchor="middle" x="243.38" y="-330.75" font-family="Helvetica,sans-Serif" font-size="10.00">::acceptRestoreTraverser</text>
</a>
</g>
</g>
<!-- Node1&#45;&gt;Node2 -->
<g id="edge1_Node000001_Node000002" class="edge">
<title>Node1&#45;&gt;Node2</title>
<g id="a_edge1_Node000001_Node000002"><a xlink:title=" ">
<path fill="none" stroke="#63b8ff" d="M125.97,-340.25C139.64,-340.25 154.24,-340.25 168.32,-340.25"/>
<polygon fill="#63b8ff" stroke="#63b8ff" points="167.95,-343.75 177.95,-340.25 167.95,-336.75 167.95,-343.75"/>
</a>
</g>
</g>
<!-- Node16 -->
<g id="Node000016" class="node">
<title>Node16</title>
<g id="a_Node000016"><a xlink:href="../../d2/d3f/classml_1_1core_1_1_c_state_restore_traverser.html#a210456e80c83786dec276d39556fd9e4" target="_top" xlink:title=" ">
<polygon fill="white" stroke="#666666" points="700.75,-680.5 537,-680.5 537,-650 700.75,-650 700.75,-680.5"/>
<text text-anchor="start" x="545" y="-667" font-family="Helvetica,sans-Serif" font-size="10.00">ml::core::CStateRestoreTraverser</text>
<text text-anchor="middle" x="618.88" y="-655.75" font-family="Helvetica,sans-Serif" font-size="10.00">::traverseSubLevel</text>
</a>
</g>
</g>
<!-- Node1&#45;&gt;Node16 -->
<g id="edge22_Node000001_Node000016" class="edge">
<title>Node1&#45;&gt;Node16</title>
<g id="a_edge22_Node000001_Node000016"><a xlink:title=" ">
<path fill="none" stroke="#63b8ff" d="M83.77,-355.94C146.87,-404.68 348.53,-555.33 537,-640.25 541.22,-642.15 545.63,-643.96 550.11,-645.68"/>
<polygon fill="#63b8ff" stroke="#63b8ff" points="548.64,-648.87 559.23,-648.99 551.03,-642.29 548.64,-648.87"/>
</a>
</g>
</g>
<!-- Node19 -->
<g id="Node000019" class="node">
<title>Node19</title>
<g id="a_Node000019"><a xlink:href="../../d2/d3f/classml_1_1core_1_1_c_state_restore_traverser.html#aca803b26910f74a487f9dfd94ab7d305" target="_top" xlink:title=" ">
<polygon fill="white" stroke="#666666" points="325.25,-306.5 161.5,-306.5 161.5,-276 325.25,-276 325.25,-306.5"/>
<text text-anchor="start" x="169.5" y="-293" font-family="Helvetica,sans-Serif" font-size="10.00">ml::core::CStateRestoreTraverser</text>
<text text-anchor="middle" x="243.38" y="-281.75" font-family="Helvetica,sans-Serif" font-size="10.00">::setBadState</text>
</a>
</g>
</g>
<!-- Node1&#45;&gt;Node19 -->
<g id="edge21_Node000001_Node000019" class="edge">
<title>Node1&#45;&gt;Node19</title>
<g id="a_edge21_Node000001_Node000019"><a xlink:title=" ">
<path fill="none" stroke="#63b8ff" d="M120.76,-324.61C137.75,-319.95 156.55,-314.79 174.19,-309.96"/>
<polygon fill="#63b8ff" stroke="#63b8ff" points="174.81,-313.41 183.53,-307.39 172.96,-306.66 174.81,-313.41"/>
</a>
</g>
</g>
<!-- Node3 -->
<g id="Node000003" class="node">
<title>Node3</title>
<g id="a_Node000003"><a xlink:href="../../d1/d04/classml_1_1model_1_1_c_individual_model.html#a4cdec68d47c3fc48c1f9bcc497561dc6" target="_top" xlink:title="Restore the model reading state from the supplied traverser.">
<polygon fill="white" stroke="#666666" points="501,-355.5 361.25,-355.5 361.25,-325 501,-325 501,-355.5"/>
<text text-anchor="start" x="369.25" y="-342" font-family="Helvetica,sans-Serif" font-size="10.00">ml::model::CIndividualModel</text>
<text text-anchor="middle" x="431.12" y="-330.75" font-family="Helvetica,sans-Serif" font-size="10.00">::doAcceptRestoreTraverser</text>
</a>
</g>
</g>
<!-- Node2&#45;&gt;Node3 -->
<g id="edge2_Node000002_Node000003" class="edge">
<title>Node2&#45;&gt;Node3</title>
<g id="a_edge2_Node000002_Node000003"><a xlink:title=" ">
<path fill="none" stroke="#63b8ff" d="M307.26,-340.25C320.88,-340.25 335.47,-340.25 349.66,-340.25"/>
<polygon fill="#63b8ff" stroke="#63b8ff" points="349.41,-343.75 359.41,-340.25 349.41,-336.75 349.41,-343.75"/>
</a>
</g>
</g>
<!-- Node8 -->
<g id="Node000008" class="node">
<title>Node8</title>
<g id="a_Node000008"><a xlink:href="../../d2/d3f/classml_1_1core_1_1_c_state_restore_traverser.html#af68782b2ed0c98177d130d9196f97889" target="_top" xlink:title=" ">
<polygon fill="white" stroke="#666666" points="700.75,-79.5 537,-79.5 537,-49 700.75,-49 700.75,-79.5"/>
<text text-anchor="start" x="545" y="-66" font-family="Helvetica,sans-Serif" font-size="10.00">ml::core::CStateRestoreTraverser</text>
<text text-anchor="middle" x="618.88" y="-54.75" font-family="Helvetica,sans-Serif" font-size="10.00">::name</text>
</a>
</g>
</g>
<!-- Node2&#45;&gt;Node8 -->
<g id="edge18_Node000002_Node000008" class="edge">
<title>Node2&#45;&gt;Node8</title>
<g id="a_edge18_Node000002_Node000008"><a xlink:title=" ">
<path fill="none" stroke="#63b8ff" d="M306.79,-324.63C313.24,-321.95 319.52,-318.84 325.25,-315.25 442.15,-241.97 419.69,-160.87 537,-88.25 538.99,-87.02 541.06,-85.84 543.17,-84.72"/>
<polygon fill="#63b8ff" stroke="#63b8ff" points="544.45,-87.99 551.99,-80.56 541.46,-81.66 544.45,-87.99"/>
</a>
</g>
</g>
<!-- Node9 -->
<g id="Node000009" class="node">
<title>Node9</title>
<g id="a_Node000009"><a xlink:href="../../d2/d3f/classml_1_1core_1_1_c_state_restore_traverser.html#a733d8051e128c5d7421707afadb31ab7" target="_top" xlink:title=" ">
<polygon fill="white" stroke="#666666" points="700.75,-30.5 537,-30.5 537,0 700.75,0 700.75,-30.5"/>
<text text-anchor="start" x="545" y="-17" font-family="Helvetica,sans-Serif" font-size="10.00">ml::core::CStateRestoreTraverser</text>
<text text-anchor="middle" x="618.88" y="-5.75" font-family="Helvetica,sans-Serif" font-size="10.00">::next</text>
</a>
</g>
</g>
<!-- Node2&#45;&gt;Node9 -->
<g id="edge19_Node000002_Node000009" class="edge">
<title>Node2&#45;&gt;Node9</title>
<g id="a_edge19_Node000002_Node000009"><a xlink:title=" ">
<path fill="none" stroke="#63b8ff" d="M307.36,-328.64C314.1,-325.24 320.29,-320.87 325.25,-315.25 386.15,-246.21 303.3,-182.79 361.25,-111.25 401.32,-61.78 469.62,-37.8 525.7,-26.17"/>
<polygon fill="#63b8ff" stroke="#63b8ff" points="526.11,-29.66 535.25,-24.3 524.76,-22.79 526.11,-29.66"/>
</a>
</g>
</g>
<!-- Node2&#45;&gt;Node16 -->
<g id="edge20_Node000002_Node000016" class="edge">
<title>Node2&#45;&gt;Node16</title>
<g id="a_edge20_Node000002_Node000016"><a xlink:title=" ">
<path fill="none" stroke="#63b8ff" d="M262.54,-355.94C306.06,-393.94 418.78,-494.83 501,-590.25 518.88,-610.99 514.77,-624.27 537,-640.25 539.04,-641.71 541.16,-643.09 543.35,-644.39"/>
<polygon fill="#63b8ff" stroke="#63b8ff" points="541.5,-647.37 551.98,-648.9 544.74,-641.17 541.5,-647.37"/>
</a>
</g>
</g>
<!-- Node4 -->
<g id="Node000004" class="node">
<title>Node4</title>
<g id="a_Node000004"><a xlink:href="../../df/d9c/namespaceml_1_1model__t.html#a9ac31e9688577d75c839165d8ac1b667" target="_top" xlink:title="Get the dimension of the feature feature.">
<polygon fill="white" stroke="#666666" points="677.5,-484.88 560.25,-484.88 560.25,-465.62 677.5,-465.62 677.5,-484.88"/>
<text text-anchor="middle" x="618.88" y="-471.38" font-family="Helvetica,sans-Serif" font-size="10.00">ml::model_t::dimension</text>
</a>
</g>
</g>
<!-- Node3&#45;&gt;Node4 -->
<g id="edge3_Node000003_Node000004" class="edge">
<title>Node3&#45;&gt;Node4</title>
<g id="a_edge3_Node000003_Node000004"><a xlink:title=" ">
<path fill="none" stroke="#63b8ff" d="M441.61,-355.77C457.86,-380.98 493.51,-430.58 537,-456.25 540.87,-458.54 545,-460.55 549.26,-462.31"/>
<polygon fill="#63b8ff" stroke="#63b8ff" points="548.06,-465.6 558.65,-465.72 550.44,-459.02 548.06,-465.6"/>
</a>
</g>
</g>
<!-- Node5 -->
<g id="Node000005" class="node">
<title>Node5</title>
<g id="a_Node000005"><a xlink:href="../../d2/d3f/classml_1_1core_1_1_c_state_restore_traverser.html#a5edc44a999e2965a2cb2bc3312963f67" target="_top" xlink:title="Is the state document unintelligible?">
<polygon fill="white" stroke="#666666" points="700.75,-447.5 537,-447.5 537,-417 700.75,-417 700.75,-447.5"/>
<text text-anchor="start" x="545" y="-434" font-family="Helvetica,sans-Serif" font-size="10.00">ml::core::CStateRestoreTraverser</text>
<text text-anchor="middle" x="618.88" y="-422.75" font-family="Helvetica,sans-Serif" font-size="10.00">::haveBadState</text>
</a>
</g>
</g>
<!-- Node3&#45;&gt;Node5 -->
<g id="edge4_Node000003_Node000005" class="edge">
<title>Node3&#45;&gt;Node5</title>
<g id="a_edge4_Node000003_Node000005"><a xlink:title=" ">
<path fill="none" stroke="#63b8ff" d="M452.85,-355.88C473.34,-370.73 506.03,-392.89 537,-407.25 541.01,-409.11 545.19,-410.88 549.46,-412.55"/>
<polygon fill="#63b8ff" stroke="#63b8ff" points="548.14,-415.79 558.74,-415.98 550.57,-409.23 548.14,-415.79"/>
</a>
</g>
</g>
<!-- Node6 -->
<g id="Node000006" class="node">
<title>Node6</title>
<g id="a_Node000006"><a xlink:href="../../d1/d04/classml_1_1model_1_1_c_individual_model.html#a16fd96d2e0ba306806a92562aa2acc8d" target="_top" xlink:title="Get the last time each persion was seen.">
<polygon fill="white" stroke="#666666" points="688.75,-398.5 549,-398.5 549,-368 688.75,-368 688.75,-398.5"/>
<text text-anchor="start" x="557" y="-385" font-family="Helvetica,sans-Serif" font-size="10.00">ml::model::CIndividualModel</text>
<text text-anchor="middle" x="618.88" y="-373.75" font-family="Helvetica,sans-Serif" font-size="10.00">::lastBucketTimes</text>
</a>
</g>
</g>
<!-- Node3&#45;&gt;Node6 -->
<g id="edge5_Node000003_Node000006" class="edge">
<title>Node3&#45;&gt;Node6</title>
<g id="a_edge5_Node000003_Node000006"><a xlink:title=" ">
<path fill="none" stroke="#63b8ff" d="M499.97,-355.96C512.56,-358.87 525.81,-361.94 538.69,-364.92"/>
<polygon fill="#63b8ff" stroke="#63b8ff" points="537.89,-368.33 548.43,-367.17 539.47,-361.51 537.89,-368.33"/>
</a>
</g>
</g>
<!-- Node7 -->
<g id="Node000007" class="node">
<title>Node7</title>
<g id="a_Node000007"><a xlink:href="../../db/dc5/namespaceml_1_1core.html#a93bcdc8ec5834bac60be504a29341a09" target="_top" xlink:title=" ">
<polygon fill="white" stroke="#666666" points="672.62,-349.88 565.12,-349.88 565.12,-330.62 672.62,-330.62 672.62,-349.88"/>
<text text-anchor="middle" x="618.88" y="-336.38" font-family="Helvetica,sans-Serif" font-size="10.00">ml::core::make_triple</text>
</a>
</g>
</g>
<!-- Node3&#45;&gt;Node7 -->
<g id="edge6_Node000003_Node000007" class="edge">
<title>Node3&#45;&gt;Node7</title>
<g id="a_edge6_Node000003_Node000007"><a xlink:title=" ">
<path fill="none" stroke="#63b8ff" d="M501.29,-340.25C518.39,-340.25 536.63,-340.25 553.49,-340.25"/>
<polygon fill="#63b8ff" stroke="#63b8ff" points="553.4,-343.75 563.4,-340.25 553.4,-336.75 553.4,-343.75"/>
</a>
</g>
</g>
<!-- Node3&#45;&gt;Node8 -->
<g id="edge7_Node000003_Node000008" class="edge">
<title>Node3&#45;&gt;Node8</title>
<g id="a_edge7_Node000003_Node000008"><a xlink:title=" ">
<path fill="none" stroke="#63b8ff" d="M447.43,-324.76C463.24,-307.86 487.46,-279.32 501,-250.25 532.14,-183.39 486.7,-142.19 537,-88.25 537.37,-87.85 537.76,-87.45 538.14,-87.06"/>
<polygon fill="#63b8ff" stroke="#63b8ff" points="540.34,-89.79 545.9,-80.78 535.93,-84.35 540.34,-89.79"/>
</a>
</g>
</g>
<!-- Node3&#45;&gt;Node9 -->
<g id="edge8_Node000003_Node000009" class="edge">
<title>Node3&#45;&gt;Node9</title>
<g id="a_edge8_Node000003_Node000009"><a xlink:title=" ">
<path fill="none" stroke="#63b8ff" d="M435.6,-324.76C448.31,-269.33 493.81,-81.9 537,-40.25 538.04,-39.25 539.12,-38.28 540.24,-37.36"/>
<polygon fill="#63b8ff" stroke="#63b8ff" points="541.94,-40.44 548.16,-31.86 537.95,-34.69 541.94,-40.44"/>
</a>
</g>
</g>
<!-- Node10 -->
<g id="Node000010" class="node">
<title>Node10</title>
<g id="a_Node000010"><a xlink:href="../../da/d88/classml_1_1model_1_1_c_anomaly_detector_model.html#ac686c4aa0380892a80c605adbdf36842" target="_top" xlink:title="Get the global configuration parameters.">
<polygon fill="white" stroke="#666666" points="692.88,-312.5 544.88,-312.5 544.88,-282 692.88,-282 692.88,-312.5"/>
<text text-anchor="start" x="552.88" y="-299" font-family="Helvetica,sans-Serif" font-size="10.00">ml::model::CAnomalyDetector</text>
<text text-anchor="middle" x="618.88" y="-287.75" font-family="Helvetica,sans-Serif" font-size="10.00">Model::params</text>
</a>
</g>
</g>
<!-- Node3&#45;&gt;Node10 -->
<g id="edge9_Node000003_Node000010" class="edge">
<title>Node3&#45;&gt;Node10</title>
<g id="a_edge9_Node000003_Node000010"><a xlink:title=" ">
<path fill="none" stroke="#63b8ff" d="M499.97,-324.54C512.56,-321.63 525.81,-318.56 538.69,-315.58"/>
<polygon fill="#63b8ff" stroke="#63b8ff" points="539.47,-318.99 548.43,-313.33 537.89,-312.17 539.47,-318.99"/>
</a>
</g>
</g>
<!-- Node11 -->
<g id="Node000011" class="node">
<title>Node11</title>
<g id="a_Node000011"><a xlink:href="../../da/d88/classml_1_1model_1_1_c_anomaly_detector_model.html#ae8ee1fb659a027d9ce811237b0757e6e" target="_top" xlink:title="Get the person bucket counts.">
<polygon fill="white" stroke="#666666" points="692.88,-263.5 544.88,-263.5 544.88,-233 692.88,-233 692.88,-263.5"/>
<text text-anchor="start" x="552.88" y="-250" font-family="Helvetica,sans-Serif" font-size="10.00">ml::model::CAnomalyDetector</text>
<text text-anchor="middle" x="618.88" y="-238.75" font-family="Helvetica,sans-Serif" font-size="10.00">Model::personBucketCounts</text>
</a>
</g>
</g>
<!-- Node3&#45;&gt;Node11 -->
<g id="edge10_Node000003_Node000011" class="edge">
<title>Node3&#45;&gt;Node11</title>
<g id="a_edge10_Node000003_Node000011"><a xlink:title=" ">
<path fill="none" stroke="#63b8ff" d="M452.85,-324.62C473.34,-309.77 506.03,-287.61 537,-273.25 541.01,-271.39 545.19,-269.62 549.46,-267.95"/>
<polygon fill="#63b8ff" stroke="#63b8ff" points="550.57,-271.27 558.74,-264.52 548.14,-264.71 550.57,-271.27"/>
</a>
</g>
</g>
<!-- Node12 -->
<g id="Node000012" class="node">
<title>Node12</title>
<g id="a_Node000012"><a xlink:href="../../da/d88/classml_1_1model_1_1_c_anomaly_detector_model.html#ad5549af33ca664300303c1db6fa7e2ca" target="_top" xlink:title="Get the frequency of the person identified by pid.">
<polygon fill="white" stroke="#666666" points="692.88,-214.5 544.88,-214.5 544.88,-184 692.88,-184 692.88,-214.5"/>
<text text-anchor="start" x="552.88" y="-201" font-family="Helvetica,sans-Serif" font-size="10.00">ml::model::CAnomalyDetector</text>
<text text-anchor="middle" x="618.88" y="-189.75" font-family="Helvetica,sans-Serif" font-size="10.00">Model::personFrequency</text>
</a>
</g>
</g>
<!-- Node3&#45;&gt;Node12 -->
<g id="edge11_Node000003_Node000012" class="edge">
<title>Node3&#45;&gt;Node12</title>
<g id="a_edge11_Node000003_Node000012"><a xlink:title=" ">
<path fill="none" stroke="#63b8ff" d="M442.08,-324.66C458.74,-299.81 494.65,-251.26 537,-224.25 539.44,-222.69 541.98,-221.23 544.6,-219.85"/>
<polygon fill="#63b8ff" stroke="#63b8ff" points="546.06,-223.03 553.61,-215.6 543.07,-216.7 546.06,-223.03"/>
</a>
</g>
</g>
<!-- Node13 -->
<g id="Node000013" class="node">
<title>Node13</title>
<g id="a_Node000013"><a xlink:href="../../de/df5/classml_1_1core_1_1_c_persist_utils.html#a072afe5547a4892cfb84eafcda2619c2" target="_top" xlink:title="Restore collection reading state from traverser expecting tag for elements.">
<polygon fill="white" stroke="#666666" points="676.75,-165.5 561,-165.5 561,-135 676.75,-135 676.75,-165.5"/>
<text text-anchor="start" x="569" y="-152" font-family="Helvetica,sans-Serif" font-size="10.00">ml::core::CPersistUtils</text>
<text text-anchor="middle" x="618.88" y="-140.75" font-family="Helvetica,sans-Serif" font-size="10.00">::restore</text>
</a>
</g>
</g>
<!-- Node3&#45;&gt;Node13 -->
<g id="edge12_Node000003_Node000013" class="edge">
<title>Node3&#45;&gt;Node13</title>
<g id="a_edge12_Node000003_Node000013"><a xlink:title=" ">
<path fill="none" stroke="#63b8ff" d="M445.61,-324.71C460.32,-307.31 484.02,-277.92 501,-250.25 520.34,-218.74 509,-199.39 537,-175.25 541.1,-171.72 545.69,-168.68 550.55,-166.08"/>
<polygon fill="#63b8ff" stroke="#63b8ff" points="551.85,-169.33 559.45,-161.95 548.91,-162.98 551.85,-169.33"/>
</a>
</g>
</g>
<!-- Node14 -->
<g id="Node000014" class="node">
<title>Node14</title>
<g id="a_Node000014"><a xlink:href="../../d6/d52/namespaceml_1_1maths__t.html#aea37ff2381c8daf8bd351ffb7ee6a5d0" target="_top" xlink:title="Set the count weight in weights to weight.">
<polygon fill="white" stroke="#666666" points="675.62,-116.88 562.12,-116.88 562.12,-97.62 675.62,-97.62 675.62,-116.88"/>
<text text-anchor="middle" x="618.88" y="-103.38" font-family="Helvetica,sans-Serif" font-size="10.00">ml::maths_t::setCount</text>
</a>
</g>
</g>
<!-- Node3&#45;&gt;Node14 -->
<g id="edge13_Node000003_Node000014" class="edge">
<title>Node3&#45;&gt;Node14</title>
<g id="a_edge13_Node000003_Node000014"><a xlink:title=" ">
<path fill="none" stroke="#63b8ff" d="M447.06,-324.58C462.57,-307.53 486.54,-278.87 501,-250.25 526.88,-199.03 495.38,-165.76 537,-126.25 541.21,-122.26 546.09,-119.05 551.33,-116.48"/>
<polygon fill="#63b8ff" stroke="#63b8ff" points="552.39,-119.82 560.36,-112.85 549.77,-113.33 552.39,-119.82"/>
</a>
</g>
</g>
<!-- Node15 -->
<g id="Node000015" class="node">
<title>Node15</title>
<g id="a_Node000015"><a xlink:href="../../d1/dfa/classml_1_1core_1_1_c_string_utils.html#a932b52350cb193f474a02ee4758edc22" target="_top" xlink:title="Convert a string to a type.">
<polygon fill="white" stroke="#666666" points="674.12,-631.5 563.62,-631.5 563.62,-601 674.12,-601 674.12,-631.5"/>
<text text-anchor="start" x="571.62" y="-618" font-family="Helvetica,sans-Serif" font-size="10.00">ml::core::CStringUtils</text>
<text text-anchor="middle" x="618.88" y="-606.75" font-family="Helvetica,sans-Serif" font-size="10.00">::stringToType</text>
</a>
</g>
</g>
<!-- Node3&#45;&gt;Node15 -->
<g id="edge14_Node000003_Node000015" class="edge">
<title>Node3&#45;&gt;Node15</title>
<g id="a_edge14_Node000003_Node000015"><a xlink:title=" ">
<path fill="none" stroke="#63b8ff" d="M439.8,-355.93C453,-383.16 480.57,-441.08 501,-491.25 518.82,-535 502.84,-558.62 537,-591.25 541.7,-595.74 547.18,-599.42 553.05,-602.44"/>
<polygon fill="#63b8ff" stroke="#63b8ff" points="551.25,-605.48 561.81,-606.32 554.08,-599.07 551.25,-605.48"/>
</a>
</g>
</g>
<!-- Node3&#45;&gt;Node16 -->
<g id="edge15_Node000003_Node000016" class="edge">
<title>Node3&#45;&gt;Node16</title>
<g id="a_edge15_Node000003_Node000016"><a xlink:title=" ">
<path fill="none" stroke="#63b8ff" d="M440.38,-355.71C454.46,-382.61 483.32,-440.05 501,-491.25 523.24,-555.65 490.36,-590.59 537,-640.25 537.86,-641.16 538.74,-642.04 539.66,-642.88"/>
<polygon fill="#63b8ff" stroke="#63b8ff" points="537.33,-645.51 547.41,-648.76 541.56,-639.93 537.33,-645.51"/>
</a>
</g>
</g>
<!-- Node17 -->
<g id="Node000017" class="node">
<title>Node17</title>
<g id="a_Node000017"><a xlink:href="../../d4/d0a/classml_1_1maths__t_1_1_c_unit_weights.html#ab810619bd835e01fc3f4e1fbd1706487" target="_top" xlink:title="Get a conformable unit weight for weight.">
<polygon fill="white" stroke="#666666" points="686.12,-582.5 551.62,-582.5 551.62,-552 686.12,-552 686.12,-582.5"/>
<text text-anchor="start" x="559.62" y="-569" font-family="Helvetica,sans-Serif" font-size="10.00">ml::maths_t::CUnitWeights</text>
<text text-anchor="middle" x="618.88" y="-557.75" font-family="Helvetica,sans-Serif" font-size="10.00">::unit</text>
</a>
</g>
</g>
<!-- Node3&#45;&gt;Node17 -->
<g id="edge16_Node000003_Node000017" class="edge">
<title>Node3&#45;&gt;Node17</title>
<g id="a_edge16_Node000003_Node000017"><a xlink:title=" ">
<path fill="none" stroke="#63b8ff" d="M438.35,-355.81C455.7,-398.46 505.38,-515.84 537,-542.25 538.47,-543.48 540.01,-544.65 541.59,-545.76"/>
<polygon fill="#63b8ff" stroke="#63b8ff" points="539.48,-548.57 549.85,-550.75 543.09,-542.58 539.48,-548.57"/>
</a>
</g>
</g>
<!-- Node18 -->
<g id="Node000018" class="node">
<title>Node18</title>
<g id="a_Node000018"><a xlink:href="../../d2/d3f/classml_1_1core_1_1_c_state_restore_traverser.html#a296f348a615834e66071cdd4b2802ea7" target="_top" xlink:title=" ">
<polygon fill="white" stroke="#666666" points="700.75,-533.5 537,-533.5 537,-503 700.75,-503 700.75,-533.5"/>
<text text-anchor="start" x="545" y="-520" font-family="Helvetica,sans-Serif" font-size="10.00">ml::core::CStateRestoreTraverser</text>
<text text-anchor="middle" x="618.88" y="-508.75" font-family="Helvetica,sans-Serif" font-size="10.00">::value</text>
</a>
</g>
</g>
<!-- Node3&#45;&gt;Node18 -->
<g id="edge17_Node000003_Node000018" class="edge">
<title>Node3&#45;&gt;Node18</title>
<g id="a_edge17_Node000003_Node000018"><a xlink:title=" ">
<path fill="none" stroke="#63b8ff" d="M438.47,-355.98C451.87,-387.17 486.06,-457.05 537,-494.25 538.37,-495.25 539.78,-496.21 541.22,-497.12"/>
<polygon fill="#63b8ff" stroke="#63b8ff" points="539.42,-500.13 549.86,-501.89 542.8,-494 539.42,-500.13"/>
</a>
</g>
</g>
</g>
</svg>

<g id="navigator" transform="translate(0 0)" fill="#404254">
  <rect fill="#f2f5e9" fill-opacity="0.5" stroke="#606060" stroke-width=".5" x="0" y="0" width="60" height="60"/>
  <use id="zoomplus" xlink:href="#zoomPlus" x="17" y="9" onmousedown="handleZoom(evt,'in')"/>
  <use id="zoomminus" xlink:href="#zoomMin" x="42" y="9" onmousedown="handleZoom(evt,'out')"/>
  <use id="reset" xlink:href="#resetDef" x="30" y="36" onmousedown="handleReset()"/>
   <use id="arrowup" xlink:href="#arrowUp" x="0" y="0" onmousedown="handlePan(0,-1)"/>
  <use id="arrowright" xlink:href="#arrowRight" x="0" y="0" onmousedown="handlePan(1,0)"/>
  <use id="arrowdown" xlink:href="#arrowDown" x="0" y="0" onmousedown="handlePan(0,1)"/>
  <use id="arrowleft" xlink:href="#arrowLeft" x="0" y="0" onmousedown="handlePan(-1,0)"/>
</g>
<svg viewBox="0 0 15 15" width="100%" height="30px" preserveAspectRatio="xMaxYMin meet">
 <g id="arrow_out" transform="scale(0.3 0.3)">
  <a xlink:href="classml_1_1model_1_1_c_metric_model_af612a9f6e4723891cf536bf1c97229f3_cgraph_org.svg" target="_base">
   <rect id="button" ry="5" rx="5" y="6" x="6" height="38" width="38"
        fill="#f2f5e9" fill-opacity="0.5" stroke="#606060" stroke-width="1.0"/>
   <path id="arrow"
     d="M 11.500037,31.436501 C 11.940474,20.09759 22.043105,11.32322 32.158766,21.979434 L 37.068811,17.246167 C 37.068811,17.246167 37.088388,32 37.088388,32 L 22.160133,31.978069 C 22.160133,31.978069 26.997745,27.140456 26.997745,27.140456 C 18.528582,18.264221 13.291696,25.230495 11.500037,31.436501 z"
     style="fill:#404040;"/>
  </a>
 </g>
</svg>

<style type='text/css'>
<![CDATA[
[data-mouse-over-selected='false'] { opacity: 0.7; }
[data-mouse-over-selected='true']  { opacity: 1.0; }
]]>
</style>
<script type="application/ecmascript"><![CDATA[
document.addEventListener('DOMContentLoaded', (event) => {
  highlightEdges();
  highlightAdjacentNodes();
});
]]></script>
</svg>
