<?xml version="1.0" encoding="UTF-8" standalone="no"?>
<!DOCTYPE svg PUBLIC "-//W3C//DTD SVG 1.1//EN"
 "http://www.w3.org/Graphics/SVG/1.1/DTD/svg11.dtd">
<!-- Generated by graphviz version 10.0.1 (20240210.2158)
 -->
<!-- Title: ml::model::CCountingModelFactory::features Pages: 1 -->
<svg width="345pt" height="69pt"
 viewBox="0.00 0.00 344.50 68.88" xmlns="http://www.w3.org/2000/svg" xmlns:xlink="http://www.w3.org/1999/xlink">
<g id="graph0" class="graph" transform="scale(1 1) rotate(0) translate(4 64.88)">
<title>ml::model::CCountingModelFactory::features</title>
<!-- Node1 -->
<g id="Node000001" class="node">
<title>Node1</title>
<g id="a_Node000001"><a xlink:title="Set the features which will be modeled.">
<polygon fill="#999999" stroke="#666666" points="336.5,-42.88 199,-42.88 199,-12.37 336.5,-12.37 336.5,-42.88"/>
<text text-anchor="start" x="207" y="-29.38" font-family="Helvetica,sans-Serif" font-size="10.00">ml::model::CCountingModel</text>
<text text-anchor="middle" x="267.75" y="-18.12" font-family="Helvetica,sans-Serif" font-size="10.00">Factory::features</text>
</a>
</g>
</g>
<!-- Node1&#45;&gt;Node1 -->
<g id="edge3_Node000001_Node000001" class="edge">
<title>Node1&#45;&gt;Node1</title>
<g id="a_edge3_Node000001_Node000001"><a xlink:title=" ">
<path fill="none" stroke="#63b8ff" d="M298.98,-54.58C293.88,-58.35 283.47,-60.88 267.75,-60.88 239.01,-60.88 228.01,-52.43 234.75,-43.36"/>
<polygon fill="#63b8ff" stroke="#63b8ff" points="302.42,-55.28 300.52,-44.86 295.5,-54.19 302.42,-55.28"/>
</a>
</g>
</g>
<!-- Node2 -->
<g id="Node000002" class="node">
<title>Node2</title>
<g id="a_Node000002"><a xlink:href="../../d7/d26/_c_counting_model_test_8cc.html#a41316982f546b1f08a56adff44df03f4" target="_top" xlink:title=" ">
<polygon fill="white" stroke="#666666" points="163,-56.25 0,-56.25 0,-37 163,-37 163,-56.25"/>
<text text-anchor="middle" x="81.5" y="-42.75" font-family="Helvetica,sans-Serif" font-size="10.00">BOOST_FIXTURE_TEST_CASE</text>
</a>
</g>
</g>
<!-- Node1&#45;&gt;Node2 -->
<g id="edge1_Node000001_Node000002" class="edge">
<title>Node1&#45;&gt;Node2</title>
<g id="a_edge1_Node000001_Node000002"><a xlink:title=" ">
<path fill="none" stroke="#63b8ff" d="M187.22,-35.83C179.32,-36.64 171.31,-37.47 163.4,-38.28"/>
<polygon fill="#63b8ff" stroke="#63b8ff" points="187.57,-39.31 197.16,-34.8 186.85,-32.35 187.57,-39.31"/>
</a>
</g>
</g>
<!-- Node3 -->
<g id="Node000003" class="node">
<title>Node3</title>
<g id="a_Node000003"><a xlink:href="../../d7/d26/_c_counting_model_test_8cc.html#a0ab450c5740e0de502bc2dd580f35e05" target="_top" xlink:title=" ">
<polygon fill="white" stroke="#666666" points="163,-19.25 0,-19.25 0,0 163,0 163,-19.25"/>
<text text-anchor="middle" x="81.5" y="-5.75" font-family="Helvetica,sans-Serif" font-size="10.00">BOOST_FIXTURE_TEST_CASE</text>
</a>
</g>
</g>
<!-- Node1&#45;&gt;Node3 -->
<g id="edge2_Node000001_Node000003" class="edge">
<title>Node1&#45;&gt;Node3</title>
<g id="a_edge2_Node000001_Node000003"><a xlink:title=" ">
<path fill="none" stroke="#63b8ff" d="M187.22,-19.86C179.32,-19.08 171.31,-18.3 163.4,-17.53"/>
<polygon fill="#63b8ff" stroke="#63b8ff" points="186.87,-23.34 197.16,-20.83 187.55,-16.37 186.87,-23.34"/>
</a>
</g>
</g>
</g>
</svg>
