<?xml version="1.0" encoding="UTF-8" standalone="no"?>
<!DOCTYPE svg PUBLIC "-//W3C//DTD SVG 1.1//EN"
 "http://www.w3.org/Graphics/SVG/1.1/DTD/svg11.dtd">
<!-- Generated by graphviz version 10.0.1 (20240210.2158)
 -->
<!-- Title: ml::model::CCountingModelFactory::makeDataGatherer Pages: 1 -->
<!--zoomable 125 -->

<svg id="main" version="1.1" xmlns="http://www.w3.org/2000/svg" xmlns:xlink="http://www.w3.org/1999/xlink" xml:space="preserve" onload="init(evt)">
<style type="text/css"><![CDATA[
.node, .edge {opacity: 0.7;}
.node.selected, .edge.selected {opacity: 1;}
.edge:hover path { stroke: red; }
.edge:hover polygon { stroke: red; fill: red; }
]]></style>

<defs>
  <circle id="rim" cx="0" cy="0" r="7"/>
  <circle id="rim2" cx="0" cy="0" r="3.5"/>
  <g id="zoomPlus">
    <use xlink:href="#rim" fill="#404040"><set attributeName="fill" to="#808080" begin="zoomplus.mouseover" end="zoomplus.mouseout"/></use>
    <path d="M-4,0h8M0,-4v8" fill="none" stroke="white" stroke-width="1.5" pointer-events="none"/>
  </g>
  <g id="zoomMin">
    <use xlink:href="#rim" fill="#404040"><set attributeName="fill" to="#808080" begin="zoomminus.mouseover" end="zoomminus.mouseout"/></use>
    <path d="M-4,0h8" fill="none" stroke="white" stroke-width="1.5" pointer-events="none"/>
  </g>
  <g id="arrowUp" transform="translate(30 24)">
    <use xlink:href="#rim"/>
    <path pointer-events="none" fill="none" stroke="white" stroke-width="1.5" d="M0,-3.0v7 M-2.5,-0.5L0,-3.0L2.5,-0.5"/>
  </g>
  <g id="arrowRight" transform="rotate(90) translate(36 -43)">
    <use xlink:href="#rim"/>
    <path pointer-events="none" fill="none" stroke="white" stroke-width="1.5" d="M0,-3.0v7 M-2.5,-0.5L0,-3.0L2.5,-0.5"/>
  </g>
  <g id="arrowDown" transform="rotate(180) translate(-30 -48)">
    <use xlink:href="#rim"/>
    <path pointer-events="none" fill="none" stroke="white" stroke-width="1.5" d="M0,-3.0v7 M-2.5,-0.5L0,-3.0L2.5,-0.5"/>
  </g>
  <g id="arrowLeft" transform="rotate(270) translate(-36 17)">
    <use xlink:href="#rim"/>
    <path pointer-events="none" fill="none" stroke="white" stroke-width="1.5" d="M0,-3.0v7 M-2.5,-0.5L0,-3.0L2.5,-0.5"/>
  </g>
  <g id="resetDef">
    <use xlink:href="#rim2" fill="#404040"><set attributeName="fill" to="#808080" begin="reset.mouseover" end="reset.mouseout"/></use>
  </g>
</defs>
<script type="application/ecmascript">
var viewWidth = 693;
var viewHeight = 125;
var sectionId = 'dynsection-11';
</script>
<script type="application/ecmascript" xlink:href="../../svg.min.js"/>
<svg id="graph" class="graph">
<g id="viewport">
<title>ml::model::CCountingModelFactory::makeDataGatherer</title>
<!-- Node1 -->
<g id="Node000001" class="node">
<title>Node1</title>
<g id="a_Node000001"><a xlink:title=" ">
<polygon fill="#999999" stroke="#666666" points="137.5,-94.88 0,-94.88 0,-64.38 137.5,-64.38 137.5,-94.88"/>
<text text-anchor="start" x="8" y="-81.38" font-family="Helvetica,sans-Serif" font-size="10.00">ml::model::CCountingModel</text>
<text text-anchor="middle" x="68.75" y="-70.12" font-family="Helvetica,sans-Serif" font-size="10.00">Factory::makeDataGatherer</text>
</a>
</g>
</g>
<!-- Node2 -->
<g id="Node000002" class="node">
<title>Node2</title>
<g id="a_Node000002"><a xlink:href="../../da/d0d/classml_1_1model_1_1_c_model_factory.html#a4c2361335ef97eebb66e5e2852ef0f4e" target="_top" xlink:title="Get global model configuration parameters.">
<polygon fill="white" stroke="#666666" points="478.5,-116.88 347,-116.88 347,-86.38 478.5,-86.38 478.5,-116.88"/>
<text text-anchor="start" x="355" y="-103.38" font-family="Helvetica,sans-Serif" font-size="10.00">ml::model::CModelFactory</text>
<text text-anchor="middle" x="412.75" y="-92.12" font-family="Helvetica,sans-Serif" font-size="10.00">::modelParams</text>
</a>
</g>
</g>
<!-- Node1&#45;&gt;Node2 -->
<g id="edge1_Node000001_Node000002" class="edge">
<title>Node1&#45;&gt;Node2</title>
<g id="a_edge1_Node000001_Node000002"><a xlink:title=" ">
<path fill="none" stroke="#63b8ff" d="M137.73,-84C194.73,-87.66 276.09,-92.9 335.34,-96.71"/>
<polygon fill="#63b8ff" stroke="#63b8ff" points="334.8,-100.18 345,-97.33 335.25,-93.2 334.8,-100.18"/>
</a>
</g>
</g>
<!-- Node3 -->
<g id="Node000003" class="node">
<title>Node3</title>
<g id="a_Node000003"><a xlink:href="../../d7/d98/classml_1_1model_1_1_c_counting_model_factory.html#af359a037715d1a840ca2e76f64bbe14e" target="_top" xlink:title="Get the search key corresponding to this factory.">
<polygon fill="white" stroke="#666666" points="311,-73.88 173.5,-73.88 173.5,-43.38 311,-43.38 311,-73.88"/>
<text text-anchor="start" x="181.5" y="-60.38" font-family="Helvetica,sans-Serif" font-size="10.00">ml::model::CCountingModel</text>
<text text-anchor="middle" x="242.25" y="-49.12" font-family="Helvetica,sans-Serif" font-size="10.00">Factory::searchKey</text>
</a>
</g>
</g>
<!-- Node1&#45;&gt;Node3 -->
<g id="edge2_Node000001_Node000003" class="edge">
<title>Node1&#45;&gt;Node3</title>
<g id="a_edge2_Node000001_Node000003"><a xlink:title=" ">
<path fill="none" stroke="#63b8ff" d="M137.53,-71.33C145.49,-70.35 153.66,-69.35 161.75,-68.36"/>
<polygon fill="#63b8ff" stroke="#63b8ff" points="162.12,-71.84 171.62,-67.15 161.26,-64.89 162.12,-71.84"/>
</a>
</g>
</g>
<!-- Node3&#45;&gt;Node2 -->
<g id="edge10_Node000003_Node000002" class="edge">
<title>Node3&#45;&gt;Node2</title>
<g id="a_edge10_Node000003_Node000002"><a xlink:title=" ">
<path fill="none" stroke="#63b8ff" d="M304.56,-74.27C315.83,-77.15 327.69,-80.17 339.24,-83.12"/>
<polygon fill="#63b8ff" stroke="#63b8ff" points="338.18,-86.46 348.74,-85.54 339.91,-79.68 338.18,-86.46"/>
</a>
</g>
</g>
<!-- Node4 -->
<g id="Node000004" class="node">
<title>Node4</title>
<g id="a_Node000004"><a xlink:href="../../d4/d1f/namespaceml_1_1model_1_1function__t.html#a1f7f2573b471fabd80efd3225eed55d8" target="_top" xlink:title="The inverse mapping from features to function.">
<polygon fill="white" stroke="#666666" points="462.38,-67.88 363.12,-67.88 363.12,-37.38 462.38,-37.38 462.38,-67.88"/>
<text text-anchor="start" x="371.12" y="-54.38" font-family="Helvetica,sans-Serif" font-size="10.00">ml::model::function</text>
<text text-anchor="middle" x="412.75" y="-43.12" font-family="Helvetica,sans-Serif" font-size="10.00">_t::function</text>
</a>
</g>
</g>
<!-- Node3&#45;&gt;Node4 -->
<g id="edge3_Node000003_Node000004" class="edge">
<title>Node3&#45;&gt;Node4</title>
<g id="a_edge3_Node000003_Node000004"><a xlink:title=" ">
<path fill="none" stroke="#63b8ff" d="M311.3,-56.2C324.65,-55.73 338.57,-55.23 351.64,-54.77"/>
<polygon fill="#63b8ff" stroke="#63b8ff" points="351.49,-58.27 361.36,-54.42 351.24,-51.28 351.49,-58.27"/>
</a>
</g>
</g>
<!-- Node5 -->
<g id="Node000005" class="node">
<title>Node5</title>
<g id="a_Node000005"><a xlink:href="../../d4/d1f/namespaceml_1_1model_1_1function__t.html#abb2b62461ba7b3fcde91fc087dc7cbc6" target="_top" xlink:title="Get the mapping from function to data features.">
<polygon fill="white" stroke="#666666" points="613.75,-116.88 514.5,-116.88 514.5,-86.38 613.75,-86.38 613.75,-116.88"/>
<text text-anchor="start" x="522.5" y="-103.38" font-family="Helvetica,sans-Serif" font-size="10.00">ml::model::function</text>
<text text-anchor="middle" x="564.12" y="-92.12" font-family="Helvetica,sans-Serif" font-size="10.00">_t::features</text>
</a>
</g>
</g>
<!-- Node4&#45;&gt;Node5 -->
<g id="edge4_Node000004_Node000005" class="edge">
<title>Node4&#45;&gt;Node5</title>
<g id="a_edge4_Node000004_Node000005"><a xlink:title=" ">
<path fill="none" stroke="#63b8ff" d="M462.66,-62.29C481.78,-67.99 503.46,-75.19 521.77,-81.95"/>
<polygon fill="#63b8ff" stroke="#63b8ff" points="520.4,-85.17 530.99,-85.43 522.88,-78.62 520.4,-85.17"/>
</a>
</g>
</g>
<!-- Node6 -->
<g id="Node000006" class="node">
<title>Node6</title>
<g id="a_Node000006"><a xlink:href="../../d4/d1f/namespaceml_1_1model_1_1function__t.html#aa88a7200c31df8bfe9ff9021e06f86f8" target="_top" xlink:title="Get a string description of function.">
<polygon fill="white" stroke="#666666" points="613.75,-67.88 514.5,-67.88 514.5,-37.38 613.75,-37.38 613.75,-67.88"/>
<text text-anchor="start" x="522.5" y="-54.38" font-family="Helvetica,sans-Serif" font-size="10.00">ml::model::function</text>
<text text-anchor="middle" x="564.12" y="-43.12" font-family="Helvetica,sans-Serif" font-size="10.00">_t::print</text>
</a>
</g>
</g>
<!-- Node4&#45;&gt;Node6 -->
<g id="edge6_Node000004_Node000006" class="edge">
<title>Node4&#45;&gt;Node6</title>
<g id="a_edge6_Node000004_Node000006"><a xlink:title=" ">
<path fill="none" stroke="#63b8ff" d="M462.66,-46.25C475.43,-45.86 489.34,-45.78 502.63,-45.98"/>
<polygon fill="#63b8ff" stroke="#63b8ff" points="502.51,-49.48 512.59,-46.21 502.67,-42.48 502.51,-49.48"/>
</a>
</g>
</g>
<!-- Node7 -->
<g id="Node000007" class="node">
<title>Node7</title>
<g id="a_Node000007"><a xlink:href="../../df/d9c/namespaceml_1_1model__t.html#ada583ac75540d0fcaac3a90317bafd3e" target="_top" xlink:title="Get a string description of a model type.">
<polygon fill="white" stroke="#666666" points="610,-19.25 518.25,-19.25 518.25,0 610,0 610,-19.25"/>
<text text-anchor="middle" x="564.12" y="-5.75" font-family="Helvetica,sans-Serif" font-size="10.00">ml::model_t::print</text>
</a>
</g>
</g>
<!-- Node4&#45;&gt;Node7 -->
<g id="edge8_Node000004_Node000007" class="edge">
<title>Node4&#45;&gt;Node7</title>
<g id="a_edge8_Node000004_Node000007"><a xlink:title=" ">
<path fill="none" stroke="#63b8ff" d="M462.66,-38.55C480.25,-33.48 500.01,-27.79 517.33,-22.81"/>
<polygon fill="#63b8ff" stroke="#63b8ff" points="518.21,-26.2 526.85,-20.07 516.27,-19.47 518.21,-26.2"/>
</a>
</g>
</g>
<!-- Node5&#45;&gt;Node4 -->
<g id="edge5_Node000005_Node000004" class="edge">
<title>Node5&#45;&gt;Node4</title>
<g id="a_edge5_Node000005_Node000004"><a xlink:title=" ">
<path fill="none" stroke="#63b8ff" d="M514.28,-91.98C495.22,-86.3 473.61,-79.13 455.32,-72.38"/>
<polygon fill="#63b8ff" stroke="#63b8ff" points="456.71,-69.17 446.12,-68.91 454.23,-75.71 456.71,-69.17"/>
</a>
</g>
</g>
<!-- Node6&#45;&gt;Node4 -->
<g id="edge7_Node000006_Node000004" class="edge">
<title>Node6&#45;&gt;Node4</title>
<g id="a_edge7_Node000006_Node000004"><a xlink:title=" ">
<path fill="none" stroke="#63b8ff" d="M514.1,-59.01C501.33,-59.39 487.42,-59.47 474.13,-59.26"/>
<polygon fill="#63b8ff" stroke="#63b8ff" points="474.25,-55.77 464.17,-59.04 474.09,-62.76 474.25,-55.77"/>
</a>
</g>
</g>
<!-- Node8 -->
<g id="Node000008" class="node">
<title>Node8</title>
<g id="a_Node000008"><a xlink:href="../../d3/d2e/private_8h.html#a1c6de65cc31c36fe2ede0d438531d327" target="_top" xlink:title=" ">
<polygon fill="white" stroke="#666666" points="684.5,-19.25 649.75,-19.25 649.75,0 684.5,0 684.5,-19.25"/>
<text text-anchor="middle" x="667.12" y="-5.75" font-family="Helvetica,sans-Serif" font-size="10.00">type</text>
</a>
</g>
</g>
<!-- Node7&#45;&gt;Node8 -->
<g id="edge9_Node000007_Node000008" class="edge">
<title>Node7&#45;&gt;Node8</title>
<g id="a_edge9_Node000007_Node000008"><a xlink:title=" ">
<path fill="none" stroke="#63b8ff" d="M610.31,-9.62C619.73,-9.62 629.41,-9.62 638,-9.62"/>
<polygon fill="#63b8ff" stroke="#63b8ff" points="637.77,-13.13 647.77,-9.63 637.77,-6.13 637.77,-13.13"/>
</a>
</g>
</g>
</g>
</svg>

<g id="navigator" transform="translate(0 0)" fill="#404254">
  <rect fill="#f2f5e9" fill-opacity="0.5" stroke="#606060" stroke-width=".5" x="0" y="0" width="60" height="60"/>
  <use id="zoomplus" xlink:href="#zoomPlus" x="17" y="9" onmousedown="handleZoom(evt,'in')"/>
  <use id="zoomminus" xlink:href="#zoomMin" x="42" y="9" onmousedown="handleZoom(evt,'out')"/>
  <use id="reset" xlink:href="#resetDef" x="30" y="36" onmousedown="handleReset()"/>
   <use id="arrowup" xlink:href="#arrowUp" x="0" y="0" onmousedown="handlePan(0,-1)"/>
  <use id="arrowright" xlink:href="#arrowRight" x="0" y="0" onmousedown="handlePan(1,0)"/>
  <use id="arrowdown" xlink:href="#arrowDown" x="0" y="0" onmousedown="handlePan(0,1)"/>
  <use id="arrowleft" xlink:href="#arrowLeft" x="0" y="0" onmousedown="handlePan(-1,0)"/>
</g>
<svg viewBox="0 0 15 15" width="100%" height="30px" preserveAspectRatio="xMaxYMin meet">
 <g id="arrow_out" transform="scale(0.3 0.3)">
  <a xlink:href="classml_1_1model_1_1_c_counting_model_factory_ab86431f0eaceb538261b121023c72daf_cgraph_org.svg" target="_base">
   <rect id="button" ry="5" rx="5" y="6" x="6" height="38" width="38"
        fill="#f2f5e9" fill-opacity="0.5" stroke="#606060" stroke-width="1.0"/>
   <path id="arrow"
     d="M 11.500037,31.436501 C 11.940474,20.09759 22.043105,11.32322 32.158766,21.979434 L 37.068811,17.246167 C 37.068811,17.246167 37.088388,32 37.088388,32 L 22.160133,31.978069 C 22.160133,31.978069 26.997745,27.140456 26.997745,27.140456 C 18.528582,18.264221 13.291696,25.230495 11.500037,31.436501 z"
     style="fill:#404040;"/>
  </a>
 </g>
</svg>

<style type='text/css'>
<![CDATA[
[data-mouse-over-selected='false'] { opacity: 0.7; }
[data-mouse-over-selected='true']  { opacity: 1.0; }
]]>
</style>
<script type="application/ecmascript"><![CDATA[
document.addEventListener('DOMContentLoaded', (event) => {
  highlightEdges();
  highlightAdjacentNodes();
});
]]></script>
</svg>
