<?xml version="1.0" encoding="UTF-8" standalone="no"?>
<!DOCTYPE svg PUBLIC "-//W3C//DTD SVG 1.1//EN"
 "http://www.w3.org/Graphics/SVG/1.1/DTD/svg11.dtd">
<!-- Generated by graphviz version 10.0.1 (20240210.2158)
 -->
<!-- Title: ml::maths::common::CXMeans::improveStructure Pages: 1 -->
<svg width="550pt" height="88pt"
 viewBox="0.00 0.00 549.50 87.50" xmlns="http://www.w3.org/2000/svg" xmlns:xlink="http://www.w3.org/1999/xlink">
<g id="graph0" class="graph" transform="scale(1 1) rotate(0) translate(4 83.5)">
<title>ml::maths::common::CXMeans::improveStructure</title>
<!-- Node1 -->
<g id="Node000001" class="node">
<title>Node1</title>
<g id="a_Node000001"><a xlink:title=" ">
<polygon fill="#999999" stroke="#666666" points="139.75,-54.5 0,-54.5 0,-24 139.75,-24 139.75,-54.5"/>
<text text-anchor="start" x="8" y="-41" font-family="Helvetica,sans-Serif" font-size="10.00">ml::maths::common::</text>
<text text-anchor="middle" x="69.88" y="-29.75" font-family="Helvetica,sans-Serif" font-size="10.00">CXMeans::improveStructure</text>
</a>
</g>
</g>
<!-- Node2 -->
<g id="Node000002" class="node">
<title>Node2</title>
<g id="a_Node000002"><a xlink:href="../../d4/dd3/classml_1_1maths_1_1common_1_1_c_x_means.html#a9ff14f3e228d5d65f467b522c376eeae" target="_top" xlink:title="Get the best centres found to date.">
<polygon fill="white" stroke="#666666" points="310.25,-79.5 201.25,-79.5 201.25,-49 310.25,-49 310.25,-79.5"/>
<text text-anchor="start" x="209.25" y="-66" font-family="Helvetica,sans-Serif" font-size="10.00">ml::maths::common::</text>
<text text-anchor="middle" x="255.75" y="-54.75" font-family="Helvetica,sans-Serif" font-size="10.00">CXMeans::centres</text>
</a>
</g>
</g>
<!-- Node1&#45;&gt;Node2 -->
<g id="edge1_Node000001_Node000002" class="edge">
<title>Node1&#45;&gt;Node2</title>
<g id="a_edge1_Node000001_Node000002"><a xlink:title=" ">
<path fill="none" stroke="#63b8ff" d="M140.13,-48.67C156.27,-50.86 173.4,-53.19 189.36,-55.36"/>
<polygon fill="#63b8ff" stroke="#63b8ff" points="188.87,-58.83 199.25,-56.7 189.81,-51.89 188.87,-58.83"/>
</a>
</g>
</g>
<!-- Node3 -->
<g id="Node000003" class="node">
<title>Node3</title>
<g id="a_Node000003"><a xlink:href="../../d4/dd3/classml_1_1maths_1_1common_1_1_c_x_means.html#a290e0545fda1942cfd946105dad856af" target="_top" xlink:title=" ">
<polygon fill="white" stroke="#666666" points="335.75,-30.5 175.75,-30.5 175.75,0 335.75,0 335.75,-30.5"/>
<text text-anchor="start" x="183.75" y="-17" font-family="Helvetica,sans-Serif" font-size="10.00">ml::maths::common::</text>
<text text-anchor="middle" x="255.75" y="-5.75" font-family="Helvetica,sans-Serif" font-size="10.00">CXMeans::generateSeedCentres</text>
</a>
</g>
</g>
<!-- Node1&#45;&gt;Node3 -->
<g id="edge2_Node000001_Node000003" class="edge">
<title>Node1&#45;&gt;Node3</title>
<g id="a_edge2_Node000001_Node000003"><a xlink:title=" ">
<path fill="none" stroke="#63b8ff" d="M140.13,-30.21C147.95,-29.19 156,-28.14 164.04,-27.09"/>
<polygon fill="#63b8ff" stroke="#63b8ff" points="164.41,-30.57 173.87,-25.81 163.5,-23.63 164.41,-30.57"/>
</a>
</g>
</g>
<!-- Node4 -->
<g id="Node000004" class="node">
<title>Node4</title>
<g id="a_Node000004"><a xlink:href="../../d9/db0/classml_1_1maths_1_1common_1_1_c_k_means_plus_plus_initialization.html#a2e1ba44f04a59aa41b4cf849f8530951" target="_top" xlink:title=" ">
<polygon fill="white" stroke="#666666" points="541.5,-30.5 371.75,-30.5 371.75,0 541.5,0 541.5,-30.5"/>
<text text-anchor="start" x="379.75" y="-17" font-family="Helvetica,sans-Serif" font-size="10.00">ml::maths::common::</text>
<text text-anchor="middle" x="456.62" y="-5.75" font-family="Helvetica,sans-Serif" font-size="10.00">CKMeansPlusPlusInitialization::run</text>
</a>
</g>
</g>
<!-- Node3&#45;&gt;Node4 -->
<g id="edge3_Node000003_Node000004" class="edge">
<title>Node3&#45;&gt;Node4</title>
<g id="a_edge3_Node000003_Node000004"><a xlink:title=" ">
<path fill="none" stroke="#63b8ff" d="M336.21,-15.25C344.08,-15.25 352.12,-15.25 360.13,-15.25"/>
<polygon fill="#63b8ff" stroke="#63b8ff" points="359.89,-18.75 369.89,-15.25 359.89,-11.75 359.89,-18.75"/>
</a>
</g>
</g>
<!-- Node4&#45;&gt;Node4 -->
<g id="edge4_Node000004_Node000004" class="edge">
<title>Node4&#45;&gt;Node4</title>
<g id="a_edge4_Node000004_Node000004"><a xlink:title=" ">
<path fill="none" stroke="#63b8ff" d="M421.03,-30.99C413.77,-40.06 425.63,-48.5 456.62,-48.5 473.58,-48.5 484.8,-45.97 490.31,-42.2"/>
<polygon fill="#63b8ff" stroke="#63b8ff" points="493.74,-42.92 491.97,-32.48 486.84,-41.75 493.74,-42.92"/>
</a>
</g>
</g>
</g>
</svg>
