<?xml version="1.0" encoding="UTF-8" standalone="no"?>
<!DOCTYPE svg PUBLIC "-//W3C//DTD SVG 1.1//EN"
 "http://www.w3.org/Graphics/SVG/1.1/DTD/svg11.dtd">
<!-- Generated by graphviz version 10.0.1 (20240210.2158)
 -->
<!-- Title: ml::maths::common::CKMostCorrelated::SCorrelation::correlation Pages: 1 -->
<svg width="541pt" height="110pt"
 viewBox="0.00 0.00 541.25 109.75" xmlns="http://www.w3.org/2000/svg" xmlns:xlink="http://www.w3.org/1999/xlink">
<g id="graph0" class="graph" transform="scale(1 1) rotate(0) translate(4 105.75)">
<title>ml::maths::common::CKMostCorrelated::SCorrelation::correlation</title>
<!-- Node1 -->
<g id="Node000001" class="node">
<title>Node1</title>
<g id="a_Node000001"><a xlink:title=" ">
<polygon fill="#999999" stroke="#666666" points="533.25,-71.75 376.25,-71.75 376.25,-30 533.25,-30 533.25,-71.75"/>
<text text-anchor="start" x="384.25" y="-58.25" font-family="Helvetica,sans-Serif" font-size="10.00">ml::maths::common::</text>
<text text-anchor="start" x="384.25" y="-47" font-family="Helvetica,sans-Serif" font-size="10.00">CKMostCorrelated::SCorrelation</text>
<text text-anchor="middle" x="454.75" y="-35.75" font-family="Helvetica,sans-Serif" font-size="10.00">::correlation</text>
</a>
</g>
</g>
<!-- Node2 -->
<g id="Node000002" class="node">
<title>Node2</title>
<g id="a_Node000002"><a xlink:href="../../d8/de0/namespaceanonymous__namespace_02_c_k_most_correlated_test_8cc_03.html#ac5eabf80b6d499328f4a97a1298dbd3d" target="_top" xlink:title=" ">
<polygon fill="white" stroke="#666666" points="324.88,-101.75 198.62,-101.75 198.62,-60 324.88,-60 324.88,-101.75"/>
<text text-anchor="start" x="206.62" y="-88.25" font-family="Helvetica,sans-Serif" font-size="10.00">anonymous_namespace</text>
<text text-anchor="start" x="206.62" y="-77" font-family="Helvetica,sans-Serif" font-size="10.00">{CKMostCorrelatedTest</text>
<text text-anchor="middle" x="261.75" y="-65.75" font-family="Helvetica,sans-Serif" font-size="10.00">::cc}::estimateCorrelation</text>
</a>
</g>
</g>
<!-- Node1&#45;&gt;Node2 -->
<g id="edge1_Node000001_Node000002" class="edge">
<title>Node1&#45;&gt;Node2</title>
<g id="a_edge1_Node000001_Node000002"><a xlink:title=" ">
<path fill="none" stroke="#63b8ff" d="M364.67,-64.87C351.36,-66.96 337.88,-69.07 325.28,-71.05"/>
<polygon fill="#63b8ff" stroke="#63b8ff" points="364.96,-68.36 374.29,-63.36 363.87,-61.45 364.96,-68.36"/>
</a>
</g>
</g>
<!-- Node4 -->
<g id="Node000004" class="node">
<title>Node4</title>
<g id="a_Node000004"><a xlink:href="../../df/d0a/structml_1_1maths_1_1common_1_1_c_k_most_correlated_1_1_s_correlation.html#a1605b642b62cb8e1cf1ba6eea3479e82" target="_top" xlink:title=" ">
<polygon fill="white" stroke="#666666" points="340.25,-41.75 183.25,-41.75 183.25,0 340.25,0 340.25,-41.75"/>
<text text-anchor="start" x="191.25" y="-28.25" font-family="Helvetica,sans-Serif" font-size="10.00">ml::maths::common::</text>
<text text-anchor="start" x="191.25" y="-17" font-family="Helvetica,sans-Serif" font-size="10.00">CKMostCorrelated::SCorrelation</text>
<text text-anchor="middle" x="261.75" y="-5.75" font-family="Helvetica,sans-Serif" font-size="10.00">::SCorrelation</text>
</a>
</g>
</g>
<!-- Node1&#45;&gt;Node4 -->
<g id="edge3_Node000001_Node000004" class="edge">
<title>Node1&#45;&gt;Node4</title>
<g id="a_edge3_Node000001_Node000004"><a xlink:title=" ">
<path fill="none" stroke="#63b8ff" d="M364.5,-36.86C356.47,-35.6 348.38,-34.33 340.46,-33.08"/>
<polygon fill="#63b8ff" stroke="#63b8ff" points="363.87,-40.3 374.29,-38.39 364.96,-33.39 363.87,-40.3"/>
</a>
</g>
</g>
<!-- Node3 -->
<g id="Node000003" class="node">
<title>Node3</title>
<g id="a_Node000003"><a xlink:href="../../db/de9/_c_k_most_correlated_test_8cc.html#a550e1f0a501cda708bd8243f3aa45c91" target="_top" xlink:title=" ">
<polygon fill="white" stroke="#666666" points="147.25,-90.5 0,-90.5 0,-71.25 147.25,-71.25 147.25,-90.5"/>
<text text-anchor="middle" x="73.62" y="-77" font-family="Helvetica,sans-Serif" font-size="10.00">BOOST_AUTO_TEST_CASE</text>
</a>
</g>
</g>
<!-- Node2&#45;&gt;Node3 -->
<g id="edge2_Node000002_Node000003" class="edge">
<title>Node2&#45;&gt;Node3</title>
<g id="a_edge2_Node000002_Node000003"><a xlink:title=" ">
<path fill="none" stroke="#63b8ff" d="M187.01,-80.88C174.03,-80.88 160.53,-80.88 147.58,-80.88"/>
<polygon fill="#63b8ff" stroke="#63b8ff" points="186.74,-84.38 196.74,-80.88 186.74,-77.38 186.74,-84.38"/>
</a>
</g>
</g>
</g>
</svg>
