<?xml version="1.0" encoding="UTF-8" standalone="no"?>
<!DOCTYPE svg PUBLIC "-//W3C//DTD SVG 1.1//EN"
 "http://www.w3.org/Graphics/SVG/1.1/DTD/svg11.dtd">
<!-- Generated by graphviz version 10.0.1 (20240210.2158)
 -->
<!-- Title: include/maths/common/CMultivariateNormalConjugate.h Pages: 1 -->
<svg width="1260pt" height="116pt"
 viewBox="0.00 0.00 1260.25 116.25" xmlns="http://www.w3.org/2000/svg" xmlns:xlink="http://www.w3.org/1999/xlink">
<g id="graph0" class="graph" transform="scale(1 1) rotate(0) translate(4 112.25)">
<title>include/maths/common/CMultivariateNormalConjugate.h</title>
<!-- Node1 -->
<g id="Node000001" class="node">
<title>Node1</title>
<g id="a_Node000001"><a xlink:title=" ">
<polygon fill="#999999" stroke="#666666" points="735.88,-108.25 575.12,-108.25 575.12,-77.75 735.88,-77.75 735.88,-108.25"/>
<text text-anchor="start" x="583.12" y="-94.75" font-family="Helvetica,sans-Serif" font-size="10.00">include/maths/common</text>
<text text-anchor="middle" x="655.5" y="-83.5" font-family="Helvetica,sans-Serif" font-size="10.00">/CMultivariateNormalConjugate.h</text>
</a>
</g>
</g>
<!-- Node2 -->
<g id="Node000002" class="node">
<title>Node2</title>
<g id="a_Node000002"><a xlink:href="../../d8/d03/_c_multivariate_normal_conjugate_factory_8cc.html" target="_top" xlink:title=" ">
<polygon fill="white" stroke="#666666" points="157,-36.12 0,-36.12 0,-5.62 157,-5.62 157,-36.12"/>
<text text-anchor="start" x="8" y="-22.62" font-family="Helvetica,sans-Serif" font-size="10.00">lib/maths/common/CMultivariate</text>
<text text-anchor="middle" x="78.5" y="-11.38" font-family="Helvetica,sans-Serif" font-size="10.00">NormalConjugateFactory.cc</text>
</a>
</g>
</g>
<!-- Node1&#45;&gt;Node2 -->
<g id="edge1_Node000001_Node000002" class="edge">
<title>Node1&#45;&gt;Node2</title>
<g id="a_edge1_Node000001_Node000002"><a xlink:title=" ">
<path fill="none" stroke="#63b8ff" d="M563.22,-85.83C464.58,-78.46 303.82,-64.23 166.5,-41.75 157.69,-40.31 148.44,-38.52 139.38,-36.62"/>
<polygon fill="#63b8ff" stroke="#63b8ff" points="562.9,-89.31 573.13,-86.56 563.41,-82.33 562.9,-89.31"/>
</a>
</g>
</g>
<!-- Node3 -->
<g id="Node000003" class="node">
<title>Node3</title>
<g id="a_Node000003"><a xlink:href="../../dc/d5d/_c_multivariate_multimodal_prior_test_8cc.html" target="_top" xlink:title=" ">
<polygon fill="white" stroke="#666666" points="351.75,-36.12 175.25,-36.12 175.25,-5.62 351.75,-5.62 351.75,-36.12"/>
<text text-anchor="start" x="183.25" y="-22.62" font-family="Helvetica,sans-Serif" font-size="10.00">lib/maths/common/unittest</text>
<text text-anchor="middle" x="263.5" y="-11.38" font-family="Helvetica,sans-Serif" font-size="10.00">/CMultivariateMultimodalPriorTest.cc</text>
</a>
</g>
</g>
<!-- Node1&#45;&gt;Node3 -->
<g id="edge2_Node000001_Node000003" class="edge">
<title>Node1&#45;&gt;Node3</title>
<g id="a_edge2_Node000001_Node000003"><a xlink:title=" ">
<path fill="none" stroke="#63b8ff" d="M563.54,-77.03C505.51,-67.4 429.02,-54.36 361.5,-41.75 352.88,-40.14 343.85,-38.39 334.9,-36.62"/>
<polygon fill="#63b8ff" stroke="#63b8ff" points="562.96,-80.48 573.4,-78.66 564.11,-73.58 562.96,-80.48"/>
</a>
</g>
</g>
<!-- Node4 -->
<g id="Node000004" class="node">
<title>Node4</title>
<g id="a_Node000004"><a xlink:href="../../d3/dcf/_c_multivariate_normal_conjugate_test_8cc.html" target="_top" xlink:title=" ">
<polygon fill="white" stroke="#666666" points="554.88,-36.12 370.12,-36.12 370.12,-5.62 554.88,-5.62 554.88,-36.12"/>
<text text-anchor="start" x="378.12" y="-22.62" font-family="Helvetica,sans-Serif" font-size="10.00">lib/maths/common/unittest</text>
<text text-anchor="middle" x="462.5" y="-11.38" font-family="Helvetica,sans-Serif" font-size="10.00">/CMultivariateNormalConjugateTest.cc</text>
</a>
</g>
</g>
<!-- Node1&#45;&gt;Node4 -->
<g id="edge3_Node000001_Node000004" class="edge">
<title>Node1&#45;&gt;Node4</title>
<g id="a_edge3_Node000001_Node000004"><a xlink:title=" ">
<path fill="none" stroke="#63b8ff" d="M604.62,-73.51C572.84,-61.97 532.49,-47.3 502.91,-36.56"/>
<polygon fill="#63b8ff" stroke="#63b8ff" points="603.02,-76.66 613.62,-76.78 605.41,-70.08 603.02,-76.66"/>
</a>
</g>
</g>
<!-- Node5 -->
<g id="Node000005" class="node">
<title>Node5</title>
<g id="a_Node000005"><a xlink:href="../../d2/d51/_c_multivariate_one_of_n_prior_test_8cc.html" target="_top" xlink:title=" ">
<polygon fill="white" stroke="#666666" points="738.12,-36.12 572.88,-36.12 572.88,-5.62 738.12,-5.62 738.12,-36.12"/>
<text text-anchor="start" x="580.88" y="-22.62" font-family="Helvetica,sans-Serif" font-size="10.00">lib/maths/common/unittest</text>
<text text-anchor="middle" x="655.5" y="-11.38" font-family="Helvetica,sans-Serif" font-size="10.00">/CMultivariateOneOfNPriorTest.cc</text>
</a>
</g>
</g>
<!-- Node1&#45;&gt;Node5 -->
<g id="edge4_Node000001_Node000005" class="edge">
<title>Node1&#45;&gt;Node5</title>
<g id="a_edge4_Node000001_Node000005"><a xlink:title=" ">
<path fill="none" stroke="#63b8ff" d="M655.5,-66.02C655.5,-56.01 655.5,-44.94 655.5,-36.39"/>
<polygon fill="#63b8ff" stroke="#63b8ff" points="652,-65.96 655.5,-75.96 659,-65.96 652,-65.96"/>
</a>
</g>
</g>
<!-- Node6 -->
<g id="Node000006" class="node">
<title>Node6</title>
<g id="a_Node000006"><a xlink:href="../../d0/d25/_c_time_series_model_8cc.html" target="_top" xlink:title=" ">
<polygon fill="white" stroke="#666666" points="872.38,-36.12 756.62,-36.12 756.62,-5.62 872.38,-5.62 872.38,-36.12"/>
<text text-anchor="start" x="764.62" y="-22.62" font-family="Helvetica,sans-Serif" font-size="10.00">lib/maths/time_series</text>
<text text-anchor="middle" x="814.5" y="-11.38" font-family="Helvetica,sans-Serif" font-size="10.00">/CTimeSeriesModel.cc</text>
</a>
</g>
</g>
<!-- Node1&#45;&gt;Node6 -->
<g id="edge5_Node000001_Node000006" class="edge">
<title>Node1&#45;&gt;Node6</title>
<g id="a_edge5_Node000001_Node000006"><a xlink:title=" ">
<path fill="none" stroke="#63b8ff" d="M699.13,-72.76C725.04,-61.33 757.37,-47.07 781.21,-36.56"/>
<polygon fill="#63b8ff" stroke="#63b8ff" points="697.95,-69.45 690.22,-76.69 700.78,-75.86 697.95,-69.45"/>
</a>
</g>
</g>
<!-- Node7 -->
<g id="Node000007" class="node">
<title>Node7</title>
<g id="a_Node000007"><a xlink:href="../../d9/d15/_c_time_series_model_test_8cc.html" target="_top" xlink:title=" ">
<polygon fill="white" stroke="#666666" points="1060.38,-36.12 890.62,-36.12 890.62,-5.62 1060.38,-5.62 1060.38,-36.12"/>
<text text-anchor="start" x="898.62" y="-22.62" font-family="Helvetica,sans-Serif" font-size="10.00">lib/maths/time_series</text>
<text text-anchor="middle" x="975.5" y="-11.38" font-family="Helvetica,sans-Serif" font-size="10.00">/unittest/CTimeSeriesModelTest.cc</text>
</a>
</g>
</g>
<!-- Node1&#45;&gt;Node7 -->
<g id="edge6_Node000001_Node000007" class="edge">
<title>Node1&#45;&gt;Node7</title>
<g id="a_edge6_Node000001_Node000007"><a xlink:title=" ">
<path fill="none" stroke="#63b8ff" d="M733.72,-74.86C787.18,-63.14 857.28,-47.78 908.23,-36.62"/>
<polygon fill="#63b8ff" stroke="#63b8ff" points="733.08,-71.42 724.06,-76.98 734.58,-78.25 733.08,-71.42"/>
</a>
</g>
</g>
<!-- Node8 -->
<g id="Node000008" class="node">
<title>Node8</title>
<g id="a_Node000008"><a xlink:href="../../d0/da9/_c_probability_and_influence_calculator_test_8cc.html" target="_top" xlink:title=" ">
<polygon fill="white" stroke="#666666" points="1252.25,-41.75 1078.75,-41.75 1078.75,0 1252.25,0 1252.25,-41.75"/>
<text text-anchor="start" x="1086.75" y="-28.25" font-family="Helvetica,sans-Serif" font-size="10.00">lib/model/unittest</text>
<text text-anchor="start" x="1086.75" y="-17" font-family="Helvetica,sans-Serif" font-size="10.00">/CProbabilityAndInfluenceCalculator</text>
<text text-anchor="middle" x="1165.5" y="-5.75" font-family="Helvetica,sans-Serif" font-size="10.00">Test.cc</text>
</a>
</g>
</g>
<!-- Node1&#45;&gt;Node8 -->
<g id="edge7_Node000001_Node000008" class="edge">
<title>Node1&#45;&gt;Node8</title>
<g id="a_edge7_Node000001_Node000008"><a xlink:title=" ">
<path fill="none" stroke="#63b8ff" d="M747.63,-83.04C831.73,-74.34 959.35,-59.8 1069.5,-41.75 1072.44,-41.27 1075.43,-40.76 1078.44,-40.23"/>
<polygon fill="#63b8ff" stroke="#63b8ff" points="747.4,-79.55 737.82,-84.05 748.12,-86.51 747.4,-79.55"/>
</a>
</g>
</g>
</g>
</svg>
