<?xml version="1.0" encoding="UTF-8" standalone="no"?>
<!DOCTYPE svg PUBLIC "-//W3C//DTD SVG 1.1//EN"
 "http://www.w3.org/Graphics/SVG/1.1/DTD/svg11.dtd">
<!-- Generated by graphviz version 10.0.1 (20240210.2158)
 -->
<!-- Title: ml::maths::analytics::COutliers::estimateMemoryUsedByCompute Pages: 1 -->
<svg width="397pt" height="83pt"
 viewBox="0.00 0.00 397.00 83.12" xmlns="http://www.w3.org/2000/svg" xmlns:xlink="http://www.w3.org/1999/xlink">
<g id="graph0" class="graph" transform="scale(1 1) rotate(0) translate(4 79.12)">
<title>ml::maths::analytics::COutliers::estimateMemoryUsedByCompute</title>
<!-- Node1 -->
<g id="Node000001" class="node">
<title>Node1</title>
<g id="a_Node000001"><a xlink:title=" ">
<polygon fill="#999999" stroke="#666666" points="389,-57.12 247,-57.12 247,-15.38 389,-15.38 389,-57.12"/>
<text text-anchor="start" x="255" y="-43.62" font-family="Helvetica,sans-Serif" font-size="10.00">ml::maths::analytics</text>
<text text-anchor="start" x="255" y="-32.38" font-family="Helvetica,sans-Serif" font-size="10.00">::COutliers::estimateMemory</text>
<text text-anchor="middle" x="318" y="-21.12" font-family="Helvetica,sans-Serif" font-size="10.00">UsedByCompute</text>
</a>
</g>
</g>
<!-- Node1&#45;&gt;Node1 -->
<g id="edge3_Node000001_Node000001" class="edge">
<title>Node1&#45;&gt;Node1</title>
<g id="a_edge3_Node000001_Node000001"><a xlink:title=" ">
<path fill="none" stroke="#63b8ff" d="M353.45,-67.9C347.56,-72.23 335.74,-75.12 318,-75.12 288.12,-75.12 275.04,-66.92 278.78,-57.44"/>
<polygon fill="#63b8ff" stroke="#63b8ff" points="356.61,-69.46 356.71,-58.87 350.02,-67.09 356.61,-69.46"/>
</a>
</g>
</g>
<!-- Node2 -->
<g id="Node000002" class="node">
<title>Node2</title>
<g id="a_Node000002"><a xlink:href="../../d9/ddb/_c_outliers_test_8cc.html#a6e4fb7aca3a08daf649a3ba43e7ea042" target="_top" xlink:title=" ">
<polygon fill="white" stroke="#666666" points="179.12,-67.88 31.88,-67.88 31.88,-48.62 179.12,-48.62 179.12,-67.88"/>
<text text-anchor="middle" x="105.5" y="-54.38" font-family="Helvetica,sans-Serif" font-size="10.00">BOOST_AUTO_TEST_CASE</text>
</a>
</g>
</g>
<!-- Node1&#45;&gt;Node2 -->
<g id="edge1_Node000001_Node000002" class="edge">
<title>Node1&#45;&gt;Node2</title>
<g id="a_edge1_Node000001_Node000002"><a xlink:title=" ">
<path fill="none" stroke="#63b8ff" d="M235.28,-44.79C216.84,-46.72 197.39,-48.75 179.34,-50.64"/>
<polygon fill="#63b8ff" stroke="#63b8ff" points="235.53,-48.28 245.11,-43.76 234.8,-41.32 235.53,-48.28"/>
</a>
</g>
</g>
<!-- Node3 -->
<g id="Node000003" class="node">
<title>Node3</title>
<g id="a_Node000003"><a xlink:href="../../d2/d7c/classml_1_1api_1_1_c_data_frame_outliers_runner.html#ac8dc5ac3ff0d60e0816e6ec937ad1fb3" target="_top" xlink:title=" ">
<polygon fill="white" stroke="#666666" points="211,-30.5 0,-30.5 0,0 211,0 211,-30.5"/>
<text text-anchor="start" x="8" y="-17" font-family="Helvetica,sans-Serif" font-size="10.00">ml::api::CDataFrameOutliers</text>
<text text-anchor="middle" x="105.5" y="-5.75" font-family="Helvetica,sans-Serif" font-size="10.00">Runner::estimateBookkeepingMemoryUsage</text>
</a>
</g>
</g>
<!-- Node1&#45;&gt;Node3 -->
<g id="edge2_Node000001_Node000003" class="edge">
<title>Node1&#45;&gt;Node3</title>
<g id="a_edge2_Node000001_Node000003"><a xlink:title=" ">
<path fill="none" stroke="#63b8ff" d="M235.26,-28.1C227.41,-27.31 219.37,-26.51 211.34,-25.71"/>
<polygon fill="#63b8ff" stroke="#63b8ff" points="234.81,-31.57 245.11,-29.08 235.5,-24.6 234.81,-31.57"/>
</a>
</g>
</g>
</g>
</svg>
