<?xml version="1.0" encoding="UTF-8" standalone="no"?>
<!DOCTYPE svg PUBLIC "-//W3C//DTD SVG 1.1//EN"
 "http://www.w3.org/Graphics/SVG/1.1/DTD/svg11.dtd">
<!-- Generated by graphviz version 10.0.1 (20240210.2158)
 -->
<!-- Title: lib/api/CBenchMarker.cc Pages: 1 -->
<svg width="2235pt" height="393pt"
 viewBox="0.00 0.00 2234.75 392.50" xmlns="http://www.w3.org/2000/svg" xmlns:xlink="http://www.w3.org/1999/xlink">
<g id="graph0" class="graph" transform="scale(1 1) rotate(0) translate(4 388.5)">
<title>lib/api/CBenchMarker.cc</title>
<!-- Node1 -->
<g id="Node000001" class="node">
<title>Node1</title>
<g id="a_Node000001"><a xlink:title=" ">
<polygon fill="#999999" stroke="#666666" points="2052.25,-384.5 1929.75,-384.5 1929.75,-365.25 2052.25,-365.25 2052.25,-384.5"/>
<text text-anchor="middle" x="1991" y="-371" font-family="Helvetica,sans-Serif" font-size="10.00">lib/api/CBenchMarker.cc</text>
</a>
</g>
</g>
<!-- Node2 -->
<g id="Node000002" class="node">
<title>Node2</title>
<g id="a_Node000002"><a xlink:href="../../d9/d20/_c_bench_marker_8h.html" target="_top" xlink:title=" ">
<polygon fill="white" stroke="#666666" points="430.25,-201.88 325.75,-201.88 325.75,-182.62 430.25,-182.62 430.25,-201.88"/>
<text text-anchor="middle" x="378" y="-188.38" font-family="Helvetica,sans-Serif" font-size="10.00">api/CBenchMarker.h</text>
</a>
</g>
</g>
<!-- Node1&#45;&gt;Node2 -->
<g id="edge1_Node000001_Node000002" class="edge">
<title>Node1&#45;&gt;Node2</title>
<g id="a_edge1_Node000001_Node000002"><a xlink:title=" ">
<path fill="none" stroke="#63b8ff" d="M1929.53,-373.07C1689.11,-369.39 812.68,-350.87 547,-274 492.84,-258.33 434.51,-226.84 402.51,-208.15"/>
<polygon fill="#63b8ff" stroke="#63b8ff" points="404.4,-205.2 394.02,-203.12 400.84,-211.23 404.4,-205.2"/>
</a>
</g>
</g>
<!-- Node14 -->
<g id="Node000014" class="node">
<title>Node14</title>
<g id="a_Node000014"><a xlink:href="../../d2/d53/_c_logger_8h.html" target="_top" xlink:title=" ">
<polygon fill="white" stroke="#666666" points="1106,-329.25 1024,-329.25 1024,-310 1106,-310 1106,-329.25"/>
<text text-anchor="middle" x="1065" y="-315.75" font-family="Helvetica,sans-Serif" font-size="10.00">core/CLogger.h</text>
</a>
</g>
</g>
<!-- Node1&#45;&gt;Node14 -->
<g id="edge15_Node000001_Node000014" class="edge">
<title>Node1&#45;&gt;Node14</title>
<g id="a_edge15_Node000001_Node000014"><a xlink:title=" ">
<path fill="none" stroke="#63b8ff" d="M1929.53,-370.34C1758.3,-360.49 1278.01,-332.87 1117.78,-323.66"/>
<polygon fill="#63b8ff" stroke="#63b8ff" points="1118.06,-320.17 1107.87,-323.09 1117.66,-327.16 1118.06,-320.17"/>
</a>
</g>
</g>
<!-- Node30 -->
<g id="Node000030" class="node">
<title>Node30</title>
<g id="a_Node000030"><a xlink:title=" ">
<polygon fill="#e0e0e0" stroke="#999999" points="1965,-135.38 1907,-135.38 1907,-116.12 1965,-116.12 1965,-135.38"/>
<text text-anchor="middle" x="1936" y="-121.88" font-family="Helvetica,sans-Serif" font-size="10.00">functional</text>
</a>
</g>
</g>
<!-- Node1&#45;&gt;Node30 -->
<g id="edge68_Node000001_Node000030" class="edge">
<title>Node1&#45;&gt;Node30</title>
<g id="a_edge68_Node000001_Node000030"><a xlink:title=" ">
<path fill="none" stroke="#63b8ff" d="M1988.98,-364.79C1981.01,-328.98 1951.67,-197.18 1940.43,-146.65"/>
<polygon fill="#63b8ff" stroke="#63b8ff" points="1943.9,-146.14 1938.31,-137.14 1937.07,-147.66 1943.9,-146.14"/>
</a>
</g>
</g>
<!-- Node34 -->
<g id="Node000034" class="node">
<title>Node34</title>
<g id="a_Node000034"><a xlink:title=" ">
<polygon fill="#e0e0e0" stroke="#999999" points="2034.62,-135.38 1983.38,-135.38 1983.38,-116.12 2034.62,-116.12 2034.62,-135.38"/>
<text text-anchor="middle" x="2009" y="-121.88" font-family="Helvetica,sans-Serif" font-size="10.00">sstream</text>
</a>
</g>
</g>
<!-- Node1&#45;&gt;Node34 -->
<g id="edge70_Node000001_Node000034" class="edge">
<title>Node1&#45;&gt;Node34</title>
<g id="a_edge70_Node000001_Node000034"><a xlink:title=" ">
<path fill="none" stroke="#63b8ff" d="M1991.66,-364.79C1994.26,-329.06 2003.83,-197.74 2007.53,-146.97"/>
<polygon fill="#63b8ff" stroke="#63b8ff" points="2011.01,-147.4 2008.24,-137.17 2004.02,-146.89 2011.01,-147.4"/>
</a>
</g>
</g>
<!-- Node40 -->
<g id="Node000040" class="node">
<title>Node40</title>
<g id="a_Node000040"><a xlink:href="../../db/d04/_core_types_8h.html" target="_top" xlink:title=" ">
<polygon fill="white" stroke="#666666" points="2112.62,-329.25 2019.38,-329.25 2019.38,-310 2112.62,-310 2112.62,-329.25"/>
<text text-anchor="middle" x="2066" y="-315.75" font-family="Helvetica,sans-Serif" font-size="10.00">core/CoreTypes.h</text>
</a>
</g>
</g>
<!-- Node1&#45;&gt;Node40 -->
<g id="edge65_Node000001_Node000040" class="edge">
<title>Node1&#45;&gt;Node40</title>
<g id="a_edge65_Node000001_Node000040"><a xlink:title=" ">
<path fill="none" stroke="#63b8ff" d="M2003.72,-364.84C2014.71,-357.04 2030.84,-345.59 2043.93,-336.29"/>
<polygon fill="#63b8ff" stroke="#63b8ff" points="2045.85,-339.22 2051.98,-330.58 2041.8,-333.51 2045.85,-339.22"/>
</a>
</g>
</g>
<!-- Node42 -->
<g id="Node000042" class="node">
<title>Node42</title>
<g id="a_Node000042"><a xlink:title=" ">
<polygon fill="#e0e0e0" stroke="#999999" points="2179.5,-329.25 2130.5,-329.25 2130.5,-310 2179.5,-310 2179.5,-329.25"/>
<text text-anchor="middle" x="2155" y="-315.75" font-family="Helvetica,sans-Serif" font-size="10.00">fstream</text>
</a>
</g>
</g>
<!-- Node1&#45;&gt;Node42 -->
<g id="edge67_Node000001_Node000042" class="edge">
<title>Node1&#45;&gt;Node42</title>
<g id="a_edge67_Node000001_Node000042"><a xlink:title=" ">
<path fill="none" stroke="#63b8ff" d="M2018.82,-364.84C2046.45,-355.87 2088.94,-342.07 2119.1,-332.28"/>
<polygon fill="#63b8ff" stroke="#63b8ff" points="2120.13,-335.63 2128.56,-329.21 2117.97,-328.97 2120.13,-335.63"/>
</a>
</g>
</g>
<!-- Node43 -->
<g id="Node000043" class="node">
<title>Node43</title>
<g id="a_Node000043"><a xlink:title=" ">
<polygon fill="#e0e0e0" stroke="#999999" points="2226.75,-329.25 2197.25,-329.25 2197.25,-310 2226.75,-310 2226.75,-329.25"/>
<text text-anchor="middle" x="2212" y="-315.75" font-family="Helvetica,sans-Serif" font-size="10.00">set</text>
</a>
</g>
</g>
<!-- Node1&#45;&gt;Node43 -->
<g id="edge69_Node000001_Node000043" class="edge">
<title>Node1&#45;&gt;Node43</title>
<g id="a_edge69_Node000001_Node000043"><a xlink:title=" ">
<path fill="none" stroke="#63b8ff" d="M2039.9,-364.8C2077.74,-357.34 2131.61,-345.78 2186.1,-329.83"/>
<polygon fill="#63b8ff" stroke="#63b8ff" points="2186.97,-333.23 2195.56,-327.02 2184.97,-326.52 2186.97,-333.23"/>
</a>
</g>
</g>
<!-- Node3 -->
<g id="Node000003" class="node">
<title>Node3</title>
<g id="a_Node000003"><a xlink:href="../../dc/d08/_c_regex_8h.html" target="_top" xlink:title=" ">
<polygon fill="white" stroke="#666666" points="82,-135.38 0,-135.38 0,-116.12 82,-116.12 82,-135.38"/>
<text text-anchor="middle" x="41" y="-121.88" font-family="Helvetica,sans-Serif" font-size="10.00">core/CRegex.h</text>
</a>
</g>
</g>
<!-- Node2&#45;&gt;Node3 -->
<g id="edge2_Node000002_Node000003" class="edge">
<title>Node2&#45;&gt;Node3</title>
<g id="a_edge2_Node000002_Node000003"><a xlink:title=" ">
<path fill="none" stroke="#63b8ff" d="M325.3,-183.71C267.48,-175.05 172.1,-159.6 91,-141 88.05,-140.32 85.02,-139.58 81.97,-138.8"/>
<polygon fill="#63b8ff" stroke="#63b8ff" points="83.04,-135.46 72.47,-136.24 81.22,-142.22 83.04,-135.46"/>
</a>
</g>
</g>
<!-- Node6 -->
<g id="Node000006" class="node">
<title>Node6</title>
<g id="a_Node000006"><a xlink:title=" ">
<polygon fill="#e0e0e0" stroke="#999999" points="471,-74.5 431,-74.5 431,-55.25 471,-55.25 471,-74.5"/>
<text text-anchor="middle" x="451" y="-61" font-family="Helvetica,sans-Serif" font-size="10.00">string</text>
</a>
</g>
</g>
<!-- Node2&#45;&gt;Node6 -->
<g id="edge12_Node000002_Node000006" class="edge">
<title>Node2&#45;&gt;Node6</title>
<g id="a_edge12_Node000002_Node000006"><a xlink:title=" ">
<path fill="none" stroke="#63b8ff" d="M349.89,-182.23C312.72,-168.82 254.59,-141.81 279,-110.5 317.17,-61.53 354.63,-88.6 419.63,-74.73"/>
<polygon fill="#63b8ff" stroke="#63b8ff" points="420.4,-78.15 429.28,-72.38 418.73,-71.35 420.4,-78.15"/>
</a>
</g>
</g>
<!-- Node7 -->
<g id="Node000007" class="node">
<title>Node7</title>
<g id="a_Node000007"><a xlink:href="../../d1/dfd/_c_local_category_id_8h.html" target="_top" xlink:title=" ">
<polygon fill="white" stroke="#666666" points="232.12,-135.38 99.88,-135.38 99.88,-116.12 232.12,-116.12 232.12,-135.38"/>
<text text-anchor="middle" x="166" y="-121.88" font-family="Helvetica,sans-Serif" font-size="10.00">model/CLocalCategoryId.h</text>
</a>
</g>
</g>
<!-- Node2&#45;&gt;Node7 -->
<g id="edge6_Node000002_Node000007" class="edge">
<title>Node2&#45;&gt;Node7</title>
<g id="a_edge6_Node000002_Node000007"><a xlink:title=" ">
<path fill="none" stroke="#63b8ff" d="M348.08,-182.15C311.06,-170.89 247.9,-151.67 206.56,-139.09"/>
<polygon fill="#63b8ff" stroke="#63b8ff" points="207.81,-135.81 197.22,-136.25 205.77,-142.51 207.81,-135.81"/>
</a>
</g>
</g>
<!-- Node10 -->
<g id="Node000010" class="node">
<title>Node10</title>
<g id="a_Node000010"><a xlink:href="../../d9/dd6/api_2_import_export_8h.html" target="_top" xlink:title=" ">
<polygon fill="white" stroke="#666666" points="384.12,-135.38 287.88,-135.38 287.88,-116.12 384.12,-116.12 384.12,-135.38"/>
<text text-anchor="middle" x="336" y="-121.88" font-family="Helvetica,sans-Serif" font-size="10.00">api/ImportExport.h</text>
</a>
</g>
</g>
<!-- Node2&#45;&gt;Node10 -->
<g id="edge10_Node000002_Node000010" class="edge">
<title>Node2&#45;&gt;Node10</title>
<g id="a_edge10_Node000002_Node000010"><a xlink:title=" ">
<path fill="none" stroke="#63b8ff" d="M372.16,-182.28C365.95,-172.75 355.97,-157.41 348.06,-145.27"/>
<polygon fill="#63b8ff" stroke="#63b8ff" points="351.01,-143.38 342.62,-136.91 345.14,-147.2 351.01,-143.38"/>
</a>
</g>
</g>
<!-- Node11 -->
<g id="Node000011" class="node">
<title>Node11</title>
<g id="a_Node000011"><a xlink:title=" ">
<polygon fill="#e0e0e0" stroke="#999999" points="437.38,-135.38 402.62,-135.38 402.62,-116.12 437.38,-116.12 437.38,-135.38"/>
<text text-anchor="middle" x="420" y="-121.88" font-family="Helvetica,sans-Serif" font-size="10.00">map</text>
</a>
</g>
</g>
<!-- Node2&#45;&gt;Node11 -->
<g id="edge11_Node000002_Node000011" class="edge">
<title>Node2&#45;&gt;Node11</title>
<g id="a_edge11_Node000002_Node000011"><a xlink:title=" ">
<path fill="none" stroke="#63b8ff" d="M383.84,-182.28C390.05,-172.75 400.03,-157.41 407.94,-145.27"/>
<polygon fill="#63b8ff" stroke="#63b8ff" points="410.86,-147.2 413.38,-136.91 404.99,-143.38 410.86,-147.2"/>
</a>
</g>
</g>
<!-- Node12 -->
<g id="Node000012" class="node">
<title>Node12</title>
<g id="a_Node000012"><a xlink:title=" ">
<polygon fill="#e0e0e0" stroke="#999999" points="532.62,-135.38 493.38,-135.38 493.38,-116.12 532.62,-116.12 532.62,-135.38"/>
<text text-anchor="middle" x="513" y="-121.88" font-family="Helvetica,sans-Serif" font-size="10.00">utility</text>
</a>
</g>
</g>
<!-- Node2&#45;&gt;Node12 -->
<g id="edge13_Node000002_Node000012" class="edge">
<title>Node2&#45;&gt;Node12</title>
<g id="a_edge13_Node000002_Node000012"><a xlink:title=" ">
<path fill="none" stroke="#63b8ff" d="M397.06,-182.15C419.67,-171.34 457.61,-153.21 483.91,-140.65"/>
<polygon fill="#63b8ff" stroke="#63b8ff" points="485.16,-143.93 492.68,-136.46 482.14,-137.61 485.16,-143.93"/>
</a>
</g>
</g>
<!-- Node13 -->
<g id="Node000013" class="node">
<title>Node13</title>
<g id="a_Node000013"><a xlink:title=" ">
<polygon fill="#e0e0e0" stroke="#999999" points="532.5,-74.5 489.5,-74.5 489.5,-55.25 532.5,-55.25 532.5,-74.5"/>
<text text-anchor="middle" x="511" y="-61" font-family="Helvetica,sans-Serif" font-size="10.00">vector</text>
</a>
</g>
</g>
<!-- Node2&#45;&gt;Node13 -->
<g id="edge14_Node000002_Node000013" class="edge">
<title>Node2&#45;&gt;Node13</title>
<g id="a_edge14_Node000002_Node000013"><a xlink:title=" ">
<path fill="none" stroke="#63b8ff" d="M391.98,-182.26C406.23,-172.79 428.66,-157.06 446,-141 465.49,-122.95 485.06,-99.42 497.56,-83.55"/>
<polygon fill="#63b8ff" stroke="#63b8ff" points="500.07,-86.01 503.43,-75.96 494.54,-81.72 500.07,-86.01"/>
</a>
</g>
</g>
<!-- Node4 -->
<g id="Node000004" class="node">
<title>Node4</title>
<g id="a_Node000004"><a xlink:href="../../dd/d0e/core_2_import_export_8h.html" target="_top" xlink:title=" ">
<polygon fill="white" stroke="#666666" points="1236.12,-19.25 1133.88,-19.25 1133.88,0 1236.12,0 1236.12,-19.25"/>
<text text-anchor="middle" x="1185" y="-5.75" font-family="Helvetica,sans-Serif" font-size="10.00">core/ImportExport.h</text>
</a>
</g>
</g>
<!-- Node3&#45;&gt;Node4 -->
<g id="edge3_Node000003_Node000004" class="edge">
<title>Node3&#45;&gt;Node4</title>
<g id="a_edge3_Node000003_Node000004"><a xlink:title=" ">
<path fill="none" stroke="#63b8ff" d="M35.26,-115.68C26.7,-100.91 13.21,-71.66 29,-55.25 67.13,-15.62 886.4,-11.14 1122.09,-10.67"/>
<polygon fill="#63b8ff" stroke="#63b8ff" points="1122.02,-14.17 1132.01,-10.65 1122,-7.17 1122.02,-14.17"/>
</a>
</g>
</g>
<!-- Node5 -->
<g id="Node000005" class="node">
<title>Node5</title>
<g id="a_Node000005"><a xlink:title=" ">
<polygon fill="#e0e0e0" stroke="#999999" points="123.88,-74.5 38.12,-74.5 38.12,-55.25 123.88,-55.25 123.88,-74.5"/>
<text text-anchor="middle" x="81" y="-61" font-family="Helvetica,sans-Serif" font-size="10.00">boost/regex.hpp</text>
</a>
</g>
</g>
<!-- Node3&#45;&gt;Node5 -->
<g id="edge4_Node000003_Node000005" class="edge">
<title>Node3&#45;&gt;Node5</title>
<g id="a_edge4_Node000003_Node000005"><a xlink:title=" ">
<path fill="none" stroke="#63b8ff" d="M47.08,-115.81C52.71,-107.51 61.28,-94.89 68.4,-84.42"/>
<polygon fill="#63b8ff" stroke="#63b8ff" points="71.29,-86.39 74.02,-76.15 65.5,-82.46 71.29,-86.39"/>
</a>
</g>
</g>
<!-- Node3&#45;&gt;Node6 -->
<g id="edge5_Node000003_Node000006" class="edge">
<title>Node3&#45;&gt;Node6</title>
<g id="a_edge5_Node000003_Node000006"><a xlink:title=" ">
<path fill="none" stroke="#63b8ff" d="M69.62,-115.69C76.56,-113.75 84,-111.87 91,-110.5 232.69,-82.81 274.88,-102.69 419.47,-74.66"/>
<polygon fill="#63b8ff" stroke="#63b8ff" points="419.91,-78.14 429.04,-72.76 418.55,-71.28 419.91,-78.14"/>
</a>
</g>
</g>
<!-- Node7&#45;&gt;Node6 -->
<g id="edge9_Node000007_Node000006" class="edge">
<title>Node7&#45;&gt;Node6</title>
<g id="a_edge9_Node000007_Node000006"><a xlink:title=" ">
<path fill="none" stroke="#63b8ff" d="M215.38,-115.64C273.77,-104.77 368.58,-86.8 419.68,-74.84"/>
<polygon fill="#63b8ff" stroke="#63b8ff" points="420.42,-78.26 429.31,-72.51 418.77,-71.45 420.42,-78.26"/>
</a>
</g>
</g>
<!-- Node8 -->
<g id="Node000008" class="node">
<title>Node8</title>
<g id="a_Node000008"><a xlink:href="../../de/d8d/model_2_import_export_8h.html" target="_top" xlink:title=" ">
<polygon fill="white" stroke="#666666" points="251.88,-74.5 142.12,-74.5 142.12,-55.25 251.88,-55.25 251.88,-74.5"/>
<text text-anchor="middle" x="197" y="-61" font-family="Helvetica,sans-Serif" font-size="10.00">model/ImportExport.h</text>
</a>
</g>
</g>
<!-- Node7&#45;&gt;Node8 -->
<g id="edge7_Node000007_Node000008" class="edge">
<title>Node7&#45;&gt;Node8</title>
<g id="a_edge7_Node000007_Node000008"><a xlink:title=" ">
<path fill="none" stroke="#63b8ff" d="M170.71,-115.81C174.99,-107.68 181.44,-95.42 186.89,-85.08"/>
<polygon fill="#63b8ff" stroke="#63b8ff" points="189.98,-86.72 191.54,-76.24 183.79,-83.46 189.98,-86.72"/>
</a>
</g>
</g>
<!-- Node9 -->
<g id="Node000009" class="node">
<title>Node9</title>
<g id="a_Node000009"><a xlink:title=" ">
<polygon fill="#e0e0e0" stroke="#999999" points="413.25,-74.5 368.75,-74.5 368.75,-55.25 413.25,-55.25 413.25,-74.5"/>
<text text-anchor="middle" x="391" y="-61" font-family="Helvetica,sans-Serif" font-size="10.00">iosfwd</text>
</a>
</g>
</g>
<!-- Node7&#45;&gt;Node9 -->
<g id="edge8_Node000007_Node000009" class="edge">
<title>Node7&#45;&gt;Node9</title>
<g id="a_edge8_Node000007_Node000009"><a xlink:title=" ">
<path fill="none" stroke="#63b8ff" d="M200.66,-115.68C243.25,-104.53 315.04,-85.75 357.22,-74.71"/>
<polygon fill="#63b8ff" stroke="#63b8ff" points="358.03,-78.12 366.82,-72.2 356.26,-71.35 358.03,-78.12"/>
</a>
</g>
</g>
<!-- Node14&#45;&gt;Node4 -->
<g id="edge32_Node000014_Node000004" class="edge">
<title>Node14&#45;&gt;Node4</title>
<g id="a_edge32_Node000014_Node000004"><a xlink:title=" ">
<path fill="none" stroke="#63b8ff" d="M1023.76,-317.18C903.39,-311.86 561,-288.38 561,-193.25 561,-193.25 561,-193.25 561,-124.75 561,-75.61 601.38,-73.53 647,-55.25 731.8,-21.26 999.47,-13.16 1122.29,-11.23"/>
<polygon fill="#63b8ff" stroke="#63b8ff" points="1122.25,-14.73 1132.2,-11.08 1122.15,-7.73 1122.25,-14.73"/>
</a>
</g>
</g>
<!-- Node14&#45;&gt;Node9 -->
<g id="edge63_Node000014_Node000009" class="edge">
<title>Node14&#45;&gt;Node9</title>
<g id="a_edge63_Node000014_Node000009"><a xlink:title=" ">
<path fill="none" stroke="#63b8ff" d="M1023.72,-311.78C978.02,-303.91 902.31,-290 838,-274 738.87,-249.34 702.31,-265.17 618,-207.5 572.79,-176.58 587.3,-141.28 542,-110.5 537.03,-107.12 467.62,-87.32 424.66,-75.26"/>
<polygon fill="#63b8ff" stroke="#63b8ff" points="425.61,-71.89 415.03,-72.56 423.72,-78.63 425.61,-71.89"/>
</a>
</g>
</g>
<!-- Node15 -->
<g id="Node000015" class="node">
<title>Node15</title>
<g id="a_Node000015"><a xlink:href="../../d3/db8/_c_logger_throttler_8h.html" target="_top" xlink:title=" ">
<polygon fill="white" stroke="#666666" points="745,-201.88 627,-201.88 627,-182.62 745,-182.62 745,-201.88"/>
<text text-anchor="middle" x="686" y="-188.38" font-family="Helvetica,sans-Serif" font-size="10.00">core/CLoggerThrottler.h</text>
</a>
</g>
</g>
<!-- Node14&#45;&gt;Node15 -->
<g id="edge16_Node000014_Node000015" class="edge">
<title>Node14&#45;&gt;Node15</title>
<g id="a_edge16_Node000014_Node000015"><a xlink:title=" ">
<path fill="none" stroke="#63b8ff" d="M1037.44,-309.51C970.71,-287.43 800.36,-231.08 724.02,-205.83"/>
<polygon fill="#63b8ff" stroke="#63b8ff" points="725.49,-202.63 714.9,-202.81 723.29,-209.27 725.49,-202.63"/>
</a>
</g>
</g>
<!-- Node17 -->
<g id="Node000017" class="node">
<title>Node17</title>
<g id="a_Node000017"><a xlink:href="../../d7/d88/_c_named_pipe_factory_8h.html" target="_top" xlink:title=" ">
<polygon fill="white" stroke="#666666" points="976,-201.88 840,-201.88 840,-182.62 976,-182.62 976,-201.88"/>
<text text-anchor="middle" x="908" y="-188.38" font-family="Helvetica,sans-Serif" font-size="10.00">core/CNamedPipeFactory.h</text>
</a>
</g>
</g>
<!-- Node14&#45;&gt;Node17 -->
<g id="edge20_Node000014_Node000017" class="edge">
<title>Node14&#45;&gt;Node17</title>
<g id="a_edge20_Node000014_Node000017"><a xlink:title=" ">
<path fill="none" stroke="#63b8ff" d="M1051.71,-309.74C1038.78,-300.98 1018.69,-287.03 1002,-274 974.87,-252.82 944.94,-226.58 926.31,-209.87"/>
<polygon fill="#63b8ff" stroke="#63b8ff" points="928.79,-207.4 919.02,-203.3 924.1,-212.6 928.79,-207.4"/>
</a>
</g>
</g>
<!-- Node20 -->
<g id="Node000020" class="node">
<title>Node20</title>
<g id="a_Node000020"><a xlink:title=" ">
<polygon fill="#e0e0e0" stroke="#999999" points="1024.62,-135.38 979.38,-135.38 979.38,-116.12 1024.62,-116.12 1024.62,-135.38"/>
<text text-anchor="middle" x="1002" y="-121.88" font-family="Helvetica,sans-Serif" font-size="10.00">atomic</text>
</a>
</g>
</g>
<!-- Node14&#45;&gt;Node20 -->
<g id="edge61_Node000014_Node000020" class="edge">
<title>Node14&#45;&gt;Node20</title>
<g id="a_edge61_Node000014_Node000020"><a xlink:title=" ">
<path fill="none" stroke="#63b8ff" d="M1062.05,-309.63C1052.43,-280.35 1021.9,-187.35 1008.46,-146.41"/>
<polygon fill="#63b8ff" stroke="#63b8ff" points="1011.79,-145.35 1005.35,-136.94 1005.14,-147.54 1011.79,-145.35"/>
</a>
</g>
</g>
<!-- Node22 -->
<g id="Node000022" class="node">
<title>Node22</title>
<g id="a_Node000022"><a xlink:title=" ">
<polygon fill="#e0e0e0" stroke="#999999" points="1087.62,-135.38 1042.38,-135.38 1042.38,-116.12 1087.62,-116.12 1087.62,-135.38"/>
<text text-anchor="middle" x="1065" y="-121.88" font-family="Helvetica,sans-Serif" font-size="10.00">stdio.h</text>
</a>
</g>
</g>
<!-- Node14&#45;&gt;Node22 -->
<g id="edge64_Node000014_Node000022" class="edge">
<title>Node14&#45;&gt;Node22</title>
<g id="a_edge64_Node000014_Node000022"><a xlink:title=" ">
<path fill="none" stroke="#63b8ff" d="M1065,-309.63C1065,-280.48 1065,-188.15 1065,-146.94"/>
<polygon fill="#63b8ff" stroke="#63b8ff" points="1068.5,-147.02 1065,-137.02 1061.5,-147.02 1068.5,-147.02"/>
</a>
</g>
</g>
<!-- Node23 -->
<g id="Node000023" class="node">
<title>Node23</title>
<g id="a_Node000023"><a xlink:href="../../db/d30/_c_non_copyable_8h.html" target="_top" xlink:title=" ">
<polygon fill="white" stroke="#666666" points="1223.38,-268.38 1110.62,-268.38 1110.62,-249.12 1223.38,-249.12 1223.38,-268.38"/>
<text text-anchor="middle" x="1167" y="-254.88" font-family="Helvetica,sans-Serif" font-size="10.00">core/CNonCopyable.h</text>
</a>
</g>
</g>
<!-- Node14&#45;&gt;Node23 -->
<g id="edge30_Node000014_Node000023" class="edge">
<title>Node14&#45;&gt;Node23</title>
<g id="a_edge30_Node000014_Node000023"><a xlink:title=" ">
<path fill="none" stroke="#63b8ff" d="M1080.49,-309.68C1096.67,-300.35 1122.3,-285.55 1141.48,-274.48"/>
<polygon fill="#63b8ff" stroke="#63b8ff" points="1143.14,-277.56 1150.05,-269.53 1139.64,-271.5 1143.14,-277.56"/>
</a>
</g>
</g>
<!-- Node24 -->
<g id="Node000024" class="node">
<title>Node24</title>
<g id="a_Node000024"><a xlink:href="../../d7/dcd/_log_macros_8h.html" target="_top" xlink:title=" ">
<polygon fill="white" stroke="#666666" points="1541,-268.38 1447,-268.38 1447,-249.12 1541,-249.12 1541,-268.38"/>
<text text-anchor="middle" x="1494" y="-254.88" font-family="Helvetica,sans-Serif" font-size="10.00">core/LogMacros.h</text>
</a>
</g>
</g>
<!-- Node14&#45;&gt;Node24 -->
<g id="edge33_Node000014_Node000024" class="edge">
<title>Node14&#45;&gt;Node24</title>
<g id="a_edge33_Node000014_Node000024"><a xlink:title=" ">
<path fill="none" stroke="#63b8ff" d="M1106.13,-312.98C1182.68,-302.47 1347.21,-279.9 1435.37,-267.8"/>
<polygon fill="#63b8ff" stroke="#63b8ff" points="1435.58,-271.3 1445.01,-266.47 1434.63,-264.37 1435.58,-271.3"/>
</a>
</g>
</g>
<!-- Node14&#45;&gt;Node30 -->
<g id="edge62_Node000014_Node000030" class="edge">
<title>Node14&#45;&gt;Node30</title>
<g id="a_edge62_Node000014_Node000030"><a xlink:title=" ">
<path fill="none" stroke="#63b8ff" d="M1106.37,-316.26C1190.32,-311.15 1386.59,-297.58 1550,-274 1625.55,-263.1 1824.44,-251.24 1887,-207.5 1908.38,-192.55 1922.11,-165 1929.44,-146.28"/>
<polygon fill="#63b8ff" stroke="#63b8ff" points="1932.64,-147.74 1932.75,-137.14 1926.06,-145.35 1932.64,-147.74"/>
</a>
</g>
</g>
<!-- Node39 -->
<g id="Node000039" class="node">
<title>Node39</title>
<g id="a_Node000039"><a xlink:title=" ">
<polygon fill="#e0e0e0" stroke="#999999" points="1925.38,-274 1794.62,-274 1794.62,-243.5 1925.38,-243.5 1925.38,-274"/>
<text text-anchor="start" x="1802.62" y="-260.5" font-family="Helvetica,sans-Serif" font-size="10.00">boost/log/sources/severity</text>
<text text-anchor="middle" x="1860" y="-249.25" font-family="Helvetica,sans-Serif" font-size="10.00">_logger.hpp</text>
</a>
</g>
</g>
<!-- Node14&#45;&gt;Node39 -->
<g id="edge60_Node000014_Node000039" class="edge">
<title>Node14&#45;&gt;Node39</title>
<g id="a_edge60_Node000014_Node000039"><a xlink:title=" ">
<path fill="none" stroke="#63b8ff" d="M1106.32,-317.73C1216.38,-314.98 1525.67,-304.88 1781,-274 1781.67,-273.92 1782.34,-273.84 1783.02,-273.75"/>
<polygon fill="#63b8ff" stroke="#63b8ff" points="1783.21,-277.26 1792.64,-272.43 1782.25,-270.32 1783.21,-277.26"/>
</a>
</g>
</g>
<!-- Node15&#45;&gt;Node4 -->
<g id="edge17_Node000015_Node000004" class="edge">
<title>Node15&#45;&gt;Node4</title>
<g id="a_edge17_Node000015_Node000004"><a xlink:title=" ">
<path fill="none" stroke="#63b8ff" d="M679.91,-182.23C664.48,-158.18 627.39,-91.85 661,-55.25 691.68,-21.85 990.44,-13.41 1122.62,-11.31"/>
<polygon fill="#63b8ff" stroke="#63b8ff" points="1122.29,-14.82 1132.23,-11.17 1122.18,-7.82 1122.29,-14.82"/>
</a>
</g>
</g>
<!-- Node15&#45;&gt;Node12 -->
<g id="edge19_Node000015_Node000012" class="edge">
<title>Node15&#45;&gt;Node12</title>
<g id="a_edge19_Node000015_Node000012"><a xlink:title=" ">
<path fill="none" stroke="#63b8ff" d="M661.58,-182.15C630.62,-170.6 577.23,-150.7 543.59,-138.15"/>
<polygon fill="#63b8ff" stroke="#63b8ff" points="545.01,-134.95 534.41,-134.73 542.56,-141.51 545.01,-134.95"/>
</a>
</g>
</g>
<!-- Node16 -->
<g id="Node000016" class="node">
<title>Node16</title>
<g id="a_Node000016"><a xlink:title=" ">
<polygon fill="#e0e0e0" stroke="#999999" points="1383.62,-19.25 1338.38,-19.25 1338.38,0 1383.62,0 1383.62,-19.25"/>
<text text-anchor="middle" x="1361" y="-5.75" font-family="Helvetica,sans-Serif" font-size="10.00">cstdint</text>
</a>
</g>
</g>
<!-- Node15&#45;&gt;Node16 -->
<g id="edge18_Node000015_Node000016" class="edge">
<title>Node15&#45;&gt;Node16</title>
<g id="a_edge18_Node000015_Node000016"><a xlink:title=" ">
<path fill="none" stroke="#63b8ff" d="M699.4,-182.19C724.87,-165.41 782.48,-129.49 836,-110.5 1014.33,-47.24 1241.71,-21.38 1326.82,-13.49"/>
<polygon fill="#63b8ff" stroke="#63b8ff" points="1326.94,-16.99 1336.59,-12.61 1326.31,-10.02 1326.94,-16.99"/>
</a>
</g>
</g>
<!-- Node17&#45;&gt;Node4 -->
<g id="edge23_Node000017_Node000004" class="edge">
<title>Node17&#45;&gt;Node4</title>
<g id="a_edge23_Node000017_Node000004"><a xlink:title=" ">
<path fill="none" stroke="#63b8ff" d="M884.89,-182.15C867.96,-174.12 846.22,-160.6 836,-141 829.73,-128.98 827.84,-121.32 836,-110.5 870.43,-64.84 1031.45,-33.72 1122.26,-19.48"/>
<polygon fill="#63b8ff" stroke="#63b8ff" points="1122.67,-22.96 1132.02,-17.97 1121.6,-16.04 1122.67,-22.96"/>
</a>
</g>
</g>
<!-- Node17&#45;&gt;Node6 -->
<g id="edge28_Node000017_Node000006" class="edge">
<title>Node17&#45;&gt;Node6</title>
<g id="a_edge28_Node000017_Node000006"><a xlink:title=" ">
<path fill="none" stroke="#63b8ff" d="M879,-182.21C851.56,-173.21 809.55,-158.28 775,-141 752.39,-129.7 750.7,-119.29 727,-110.5 626.35,-73.14 590.64,-96.74 482.54,-74.72"/>
<polygon fill="#63b8ff" stroke="#63b8ff" points="483.49,-71.35 472.98,-72.69 482.03,-78.19 483.49,-71.35"/>
</a>
</g>
</g>
<!-- Node17&#45;&gt;Node9 -->
<g id="edge26_Node000017_Node000009" class="edge">
<title>Node17&#45;&gt;Node9</title>
<g id="a_edge26_Node000017_Node000009"><a xlink:title=" ">
<path fill="none" stroke="#63b8ff" d="M875.27,-182.13C803.96,-162.28 638.84,-116.46 613,-110.5 532.28,-91.88 508.1,-93.89 424.67,-74.96"/>
<polygon fill="#63b8ff" stroke="#63b8ff" points="425.64,-71.59 415.1,-72.75 424.06,-78.41 425.64,-71.59"/>
</a>
</g>
</g>
<!-- Node18 -->
<g id="Node000018" class="node">
<title>Node18</title>
<g id="a_Node000018"><a xlink:href="../../d7/dc2/_c_non_instantiatable_8h.html" target="_top" xlink:title=" ">
<polygon fill="white" stroke="#666666" points="1346,-74.5 1216,-74.5 1216,-55.25 1346,-55.25 1346,-74.5"/>
<text text-anchor="middle" x="1281" y="-61" font-family="Helvetica,sans-Serif" font-size="10.00">core/CNonInstantiatable.h</text>
</a>
</g>
</g>
<!-- Node17&#45;&gt;Node18 -->
<g id="edge21_Node000017_Node000018" class="edge">
<title>Node17&#45;&gt;Node18</title>
<g id="a_edge21_Node000017_Node000018"><a xlink:title=" ">
<path fill="none" stroke="#63b8ff" d="M892.09,-182.16C867.14,-166.81 823.85,-135.03 846,-110.5 869.51,-84.46 1085.86,-72.76 1204.31,-68.27"/>
<polygon fill="#63b8ff" stroke="#63b8ff" points="1204.43,-71.76 1214.29,-67.9 1204.17,-64.77 1204.43,-71.76"/>
</a>
</g>
</g>
<!-- Node19 -->
<g id="Node000019" class="node">
<title>Node19</title>
<g id="a_Node000019"><a xlink:href="../../da/d3e/_windows_safe_8h.html" target="_top" xlink:title=" ">
<polygon fill="white" stroke="#666666" points="961.38,-135.38 854.62,-135.38 854.62,-116.12 961.38,-116.12 961.38,-135.38"/>
<text text-anchor="middle" x="908" y="-121.88" font-family="Helvetica,sans-Serif" font-size="10.00">core/WindowsSafe.h</text>
</a>
</g>
</g>
<!-- Node17&#45;&gt;Node19 -->
<g id="edge24_Node000017_Node000019" class="edge">
<title>Node17&#45;&gt;Node19</title>
<g id="a_edge24_Node000017_Node000019"><a xlink:title=" ">
<path fill="none" stroke="#63b8ff" d="M908,-182.28C908,-173.23 908,-158.95 908,-147.13"/>
<polygon fill="#63b8ff" stroke="#63b8ff" points="911.5,-147.16 908,-137.16 904.5,-147.16 911.5,-147.16"/>
</a>
</g>
</g>
<!-- Node17&#45;&gt;Node20 -->
<g id="edge25_Node000017_Node000020" class="edge">
<title>Node17&#45;&gt;Node20</title>
<g id="a_edge25_Node000017_Node000020"><a xlink:title=" ">
<path fill="none" stroke="#63b8ff" d="M921.07,-182.28C936.14,-171.94 961.17,-154.77 979.41,-142.25"/>
<polygon fill="#63b8ff" stroke="#63b8ff" points="981.22,-145.25 987.49,-136.71 977.26,-139.48 981.22,-145.25"/>
</a>
</g>
</g>
<!-- Node21 -->
<g id="Node000021" class="node">
<title>Node21</title>
<g id="a_Node000021"><a xlink:title=" ">
<polygon fill="#e0e0e0" stroke="#999999" points="1156.62,-135.38 1105.38,-135.38 1105.38,-116.12 1156.62,-116.12 1156.62,-135.38"/>
<text text-anchor="middle" x="1131" y="-121.88" font-family="Helvetica,sans-Serif" font-size="10.00">memory</text>
</a>
</g>
</g>
<!-- Node17&#45;&gt;Node21 -->
<g id="edge27_Node000017_Node000021" class="edge">
<title>Node17&#45;&gt;Node21</title>
<g id="a_edge27_Node000017_Node000021"><a xlink:title=" ">
<path fill="none" stroke="#63b8ff" d="M948.67,-182.14C987.27,-173.1 1046.7,-158.14 1097,-141 1097.98,-140.67 1098.97,-140.32 1099.97,-139.96"/>
<polygon fill="#63b8ff" stroke="#63b8ff" points="1101.21,-143.23 1109.27,-136.35 1098.68,-136.7 1101.21,-143.23"/>
</a>
</g>
</g>
<!-- Node17&#45;&gt;Node22 -->
<g id="edge29_Node000017_Node000022" class="edge">
<title>Node17&#45;&gt;Node22</title>
<g id="a_edge29_Node000017_Node000022"><a xlink:title=" ">
<path fill="none" stroke="#63b8ff" d="M931.84,-182.16C957.29,-172.37 998.72,-156.13 1034,-141 1034.48,-140.8 1034.96,-140.59 1035.44,-140.38"/>
<polygon fill="#63b8ff" stroke="#63b8ff" points="1036.63,-143.68 1044.34,-136.41 1033.78,-137.29 1036.63,-143.68"/>
</a>
</g>
</g>
<!-- Node18&#45;&gt;Node4 -->
<g id="edge22_Node000018_Node000004" class="edge">
<title>Node18&#45;&gt;Node4</title>
<g id="a_edge22_Node000018_Node000004"><a xlink:title=" ">
<path fill="none" stroke="#63b8ff" d="M1264.71,-54.84C1250.1,-46.73 1228.37,-34.68 1211.29,-25.21"/>
<polygon fill="#63b8ff" stroke="#63b8ff" points="1213.13,-22.23 1202.69,-20.44 1209.74,-28.35 1213.13,-22.23"/>
</a>
</g>
</g>
<!-- Node23&#45;&gt;Node4 -->
<g id="edge31_Node000023_Node000004" class="edge">
<title>Node23&#45;&gt;Node4</title>
<g id="a_edge31_Node000023_Node000004"><a xlink:title=" ">
<path fill="none" stroke="#63b8ff" d="M1167.66,-248.66C1170.26,-212.93 1179.83,-81.61 1183.53,-30.85"/>
<polygon fill="#63b8ff" stroke="#63b8ff" points="1187.01,-31.27 1184.24,-21.04 1180.02,-30.76 1187.01,-31.27"/>
</a>
</g>
</g>
<!-- Node24&#45;&gt;Node6 -->
<g id="edge59_Node000024_Node000006" class="edge">
<title>Node24&#45;&gt;Node6</title>
<g id="a_edge59_Node000024_Node000006"><a xlink:title=" ">
<path fill="none" stroke="#63b8ff" d="M1456.7,-248.65C1423.51,-239.96 1374.01,-225.54 1333,-207.5 1254.43,-172.94 1248.27,-134.99 1166,-110.5 1022.98,-67.93 647.8,-98.97 482.51,-74.39"/>
<polygon fill="#63b8ff" stroke="#63b8ff" points="483.38,-70.99 472.95,-72.85 482.26,-77.9 483.38,-70.99"/>
</a>
</g>
</g>
<!-- Node25 -->
<g id="Node000025" class="node">
<title>Node25</title>
<g id="a_Node000025"><a xlink:href="../../d2/dae/_c_container_printer_8h.html" target="_top" xlink:title=" ">
<polygon fill="white" stroke="#666666" points="1465.62,-201.88 1342.38,-201.88 1342.38,-182.62 1465.62,-182.62 1465.62,-201.88"/>
<text text-anchor="middle" x="1404" y="-188.38" font-family="Helvetica,sans-Serif" font-size="10.00">core/CContainerPrinter.h</text>
</a>
</g>
</g>
<!-- Node24&#45;&gt;Node25 -->
<g id="edge34_Node000024_Node000025" class="edge">
<title>Node24&#45;&gt;Node25</title>
<g id="a_edge34_Node000024_Node000025"><a xlink:title=" ">
<path fill="none" stroke="#63b8ff" d="M1481.49,-248.78C1467.06,-238.44 1443.09,-221.27 1425.63,-208.75"/>
<polygon fill="#63b8ff" stroke="#63b8ff" points="1428.1,-206.21 1417.93,-203.23 1424.02,-211.9 1428.1,-206.21"/>
</a>
</g>
</g>
<!-- Node24&#45;&gt;Node34 -->
<g id="edge58_Node000024_Node000034" class="edge">
<title>Node24&#45;&gt;Node34</title>
<g id="a_edge58_Node000024_Node000034"><a xlink:title=" ">
<path fill="none" stroke="#63b8ff" d="M1493.05,-248.77C1491.82,-231.8 1491.9,-195.09 1513,-177 1591.01,-110.11 1874,-164.66 1974,-141 1975.64,-140.61 1977.3,-140.16 1978.96,-139.66"/>
<polygon fill="#63b8ff" stroke="#63b8ff" points="1980.05,-142.99 1988.3,-136.34 1977.71,-136.39 1980.05,-142.99"/>
</a>
</g>
</g>
<!-- Node36 -->
<g id="Node000036" class="node">
<title>Node36</title>
<g id="a_Node000036"><a xlink:title=" ">
<polygon fill="#e0e0e0" stroke="#999999" points="1653.75,-201.88 1522.25,-201.88 1522.25,-182.62 1653.75,-182.62 1653.75,-201.88"/>
<text text-anchor="middle" x="1588" y="-188.38" font-family="Helvetica,sans-Serif" font-size="10.00">boost/current_function.hpp</text>
</a>
</g>
</g>
<!-- Node24&#45;&gt;Node36 -->
<g id="edge55_Node000024_Node000036" class="edge">
<title>Node24&#45;&gt;Node36</title>
<g id="a_edge55_Node000024_Node000036"><a xlink:title=" ">
<path fill="none" stroke="#63b8ff" d="M1507.07,-248.78C1522.14,-238.44 1547.17,-221.27 1565.41,-208.75"/>
<polygon fill="#63b8ff" stroke="#63b8ff" points="1567.22,-211.75 1573.49,-203.21 1563.26,-205.98 1567.22,-211.75"/>
</a>
</g>
</g>
<!-- Node37 -->
<g id="Node000037" class="node">
<title>Node37</title>
<g id="a_Node000037"><a xlink:title=" ">
<polygon fill="#e0e0e0" stroke="#999999" points="1812.25,-207.5 1671.75,-207.5 1671.75,-177 1812.25,-177 1812.25,-207.5"/>
<text text-anchor="start" x="1679.75" y="-194" font-family="Helvetica,sans-Serif" font-size="10.00">boost/log/utility/manipulators</text>
<text text-anchor="middle" x="1742" y="-182.75" font-family="Helvetica,sans-Serif" font-size="10.00">/add_value.hpp</text>
</a>
</g>
</g>
<!-- Node24&#45;&gt;Node37 -->
<g id="edge56_Node000024_Node000037" class="edge">
<title>Node24&#45;&gt;Node37</title>
<g id="a_edge56_Node000024_Node000037"><a xlink:title=" ">
<path fill="none" stroke="#63b8ff" d="M1529.01,-248.65C1566.71,-238.84 1627.6,-223 1674.65,-210.77"/>
<polygon fill="#63b8ff" stroke="#63b8ff" points="1675.41,-214.18 1684.21,-208.28 1673.65,-207.41 1675.41,-214.18"/>
</a>
</g>
</g>
<!-- Node38 -->
<g id="Node000038" class="node">
<title>Node38</title>
<g id="a_Node000038"><a xlink:title=" ">
<polygon fill="#e0e0e0" stroke="#999999" points="1878.12,-201.88 1829.88,-201.88 1829.88,-182.62 1878.12,-182.62 1878.12,-201.88"/>
<text text-anchor="middle" x="1854" y="-188.38" font-family="Helvetica,sans-Serif" font-size="10.00">cstddef</text>
</a>
</g>
</g>
<!-- Node24&#45;&gt;Node38 -->
<g id="edge57_Node000024_Node000038" class="edge">
<title>Node24&#45;&gt;Node38</title>
<g id="a_edge57_Node000024_Node000038"><a xlink:title=" ">
<path fill="none" stroke="#63b8ff" d="M1541.38,-254.28C1605.72,-248.71 1723.85,-235.44 1821,-207.5 1822.35,-207.11 1823.72,-206.68 1825.09,-206.22"/>
<polygon fill="#63b8ff" stroke="#63b8ff" points="1825.96,-209.63 1834.04,-202.78 1823.45,-203.1 1825.96,-209.63"/>
</a>
</g>
</g>
<!-- Node25&#45;&gt;Node4 -->
<g id="edge45_Node000025_Node000004" class="edge">
<title>Node25&#45;&gt;Node4</title>
<g id="a_edge45_Node000025_Node000004"><a xlink:title=" ">
<path fill="none" stroke="#63b8ff" d="M1412.4,-182.2C1425.27,-167.17 1447.27,-136.19 1436,-110.5 1421.44,-77.3 1408.04,-72.21 1376,-55.25 1336.14,-34.15 1286.41,-22.94 1247.69,-17.03"/>
<polygon fill="#63b8ff" stroke="#63b8ff" points="1248.46,-13.61 1238.06,-15.65 1247.46,-20.54 1248.46,-13.61"/>
</a>
</g>
</g>
<!-- Node25&#45;&gt;Node6 -->
<g id="edge53_Node000025_Node000006" class="edge">
<title>Node25&#45;&gt;Node6</title>
<g id="a_edge53_Node000025_Node000006"><a xlink:title=" ">
<path fill="none" stroke="#63b8ff" d="M1383.14,-182.19C1360.88,-172.41 1324.67,-156.19 1294,-141 1268.25,-128.25 1264.7,-118.15 1237,-110.5 1078.07,-66.61 663.91,-101.19 482.78,-74.43"/>
<polygon fill="#63b8ff" stroke="#63b8ff" points="483.37,-70.98 472.94,-72.86 482.27,-77.89 483.37,-70.98"/>
</a>
</g>
</g>
<!-- Node25&#45;&gt;Node18 -->
<g id="edge35_Node000025_Node000018" class="edge">
<title>Node25&#45;&gt;Node18</title>
<g id="a_edge35_Node000025_Node000018"><a xlink:title=" ">
<path fill="none" stroke="#63b8ff" d="M1380.69,-182.13C1361.81,-173.78 1335.56,-159.86 1318,-141 1303.01,-124.9 1292.82,-101.6 1286.98,-85.22"/>
<polygon fill="#63b8ff" stroke="#63b8ff" points="1290.45,-84.55 1283.98,-76.16 1283.81,-86.76 1290.45,-84.55"/>
</a>
</g>
</g>
<!-- Node25&#45;&gt;Node21 -->
<g id="edge49_Node000025_Node000021" class="edge">
<title>Node25&#45;&gt;Node21</title>
<g id="a_edge49_Node000025_Node000021"><a xlink:title=" ">
<path fill="none" stroke="#63b8ff" d="M1365.46,-182.15C1312.99,-169.75 1219.7,-147.71 1168.03,-135.5"/>
<polygon fill="#63b8ff" stroke="#63b8ff" points="1169.06,-132.15 1158.53,-133.25 1167.45,-138.96 1169.06,-132.15"/>
</a>
</g>
</g>
<!-- Node26 -->
<g id="Node000026" class="node">
<title>Node26</title>
<g id="a_Node000026"><a xlink:href="../../d9/d88/_c_string_utils_8h.html" target="_top" xlink:title=" ">
<polygon fill="white" stroke="#666666" points="1426.62,-135.38 1327.38,-135.38 1327.38,-116.12 1426.62,-116.12 1426.62,-135.38"/>
<text text-anchor="middle" x="1377" y="-121.88" font-family="Helvetica,sans-Serif" font-size="10.00">core/CStringUtils.h</text>
</a>
</g>
</g>
<!-- Node25&#45;&gt;Node26 -->
<g id="edge36_Node000025_Node000026" class="edge">
<title>Node25&#45;&gt;Node26</title>
<g id="a_edge36_Node000025_Node000026"><a xlink:title=" ">
<path fill="none" stroke="#63b8ff" d="M1400.25,-182.28C1396.34,-172.94 1390.09,-158.03 1385.06,-146.01"/>
<polygon fill="#63b8ff" stroke="#63b8ff" points="1388.4,-144.91 1381.31,-137.04 1381.94,-147.61 1388.4,-144.91"/>
</a>
</g>
</g>
<!-- Node29 -->
<g id="Node000029" class="node">
<title>Node29</title>
<g id="a_Node000029"><a xlink:title=" ">
<polygon fill="#e0e0e0" stroke="#999999" points="1606.62,-141 1483.38,-141 1483.38,-110.5 1606.62,-110.5 1606.62,-141"/>
<text text-anchor="start" x="1491.38" y="-127.5" font-family="Helvetica,sans-Serif" font-size="10.00">boost/log/sources/record</text>
<text text-anchor="middle" x="1545" y="-116.25" font-family="Helvetica,sans-Serif" font-size="10.00">_ostream.hpp</text>
</a>
</g>
</g>
<!-- Node25&#45;&gt;Node29 -->
<g id="edge46_Node000025_Node000029" class="edge">
<title>Node25&#45;&gt;Node29</title>
<g id="a_edge46_Node000025_Node000029"><a xlink:title=" ">
<path fill="none" stroke="#63b8ff" d="M1423.9,-182.15C1444.25,-172.84 1476.49,-158.09 1502.59,-146.15"/>
<polygon fill="#63b8ff" stroke="#63b8ff" points="1503.96,-149.37 1511.6,-142.03 1501.05,-143.01 1503.96,-149.37"/>
</a>
</g>
</g>
<!-- Node25&#45;&gt;Node30 -->
<g id="edge47_Node000025_Node000030" class="edge">
<title>Node25&#45;&gt;Node30</title>
<g id="a_edge47_Node000025_Node000030"><a xlink:title=" ">
<path fill="none" stroke="#63b8ff" d="M1448.49,-182.14C1458.8,-180.24 1469.76,-178.4 1480,-177 1664.75,-151.79 1716.12,-182.12 1898,-141 1900.03,-140.54 1902.09,-140 1904.15,-139.4"/>
<polygon fill="#63b8ff" stroke="#63b8ff" points="1905.19,-142.74 1913.57,-136.26 1902.98,-136.1 1905.19,-142.74"/>
</a>
</g>
</g>
<!-- Node31 -->
<g id="Node000031" class="node">
<title>Node31</title>
<g id="a_Node000031"><a xlink:title=" ">
<polygon fill="#e0e0e0" stroke="#999999" points="1671,-135.38 1625,-135.38 1625,-116.12 1671,-116.12 1671,-135.38"/>
<text text-anchor="middle" x="1648" y="-121.88" font-family="Helvetica,sans-Serif" font-size="10.00">iterator</text>
</a>
</g>
</g>
<!-- Node25&#45;&gt;Node31 -->
<g id="edge48_Node000025_Node000031" class="edge">
<title>Node25&#45;&gt;Node31</title>
<g id="a_edge48_Node000025_Node000031"><a xlink:title=" ">
<path fill="none" stroke="#63b8ff" d="M1454,-182.14C1497.43,-173.57 1561.71,-159.34 1616,-141 1616.96,-140.68 1617.93,-140.33 1618.9,-139.98"/>
<polygon fill="#63b8ff" stroke="#63b8ff" points="1619.92,-143.34 1627.88,-136.35 1617.29,-136.85 1619.92,-143.34"/>
</a>
</g>
</g>
<!-- Node32 -->
<g id="Node000032" class="node">
<title>Node32</title>
<g id="a_Node000032"><a xlink:title=" ">
<polygon fill="#e0e0e0" stroke="#999999" points="1738.88,-135.38 1689.12,-135.38 1689.12,-116.12 1738.88,-116.12 1738.88,-135.38"/>
<text text-anchor="middle" x="1714" y="-121.88" font-family="Helvetica,sans-Serif" font-size="10.00">optional</text>
</a>
</g>
</g>
<!-- Node25&#45;&gt;Node32 -->
<g id="edge50_Node000025_Node000032" class="edge">
<title>Node25&#45;&gt;Node32</title>
<g id="a_edge50_Node000025_Node000032"><a xlink:title=" ">
<path fill="none" stroke="#63b8ff" d="M1452.24,-182.15C1461.45,-180.43 1471.02,-178.65 1480,-177 1568.83,-160.68 1593.39,-166.61 1680,-141 1681.35,-140.6 1682.71,-140.17 1684.08,-139.71"/>
<polygon fill="#63b8ff" stroke="#63b8ff" points="1684.95,-143.12 1693.07,-136.32 1682.48,-136.57 1684.95,-143.12"/>
</a>
</g>
</g>
<!-- Node33 -->
<g id="Node000033" class="node">
<title>Node33</title>
<g id="a_Node000033"><a xlink:title=" ">
<polygon fill="#e0e0e0" stroke="#999999" points="1808.62,-135.38 1757.38,-135.38 1757.38,-116.12 1808.62,-116.12 1808.62,-135.38"/>
<text text-anchor="middle" x="1783" y="-121.88" font-family="Helvetica,sans-Serif" font-size="10.00">ostream</text>
</a>
</g>
</g>
<!-- Node25&#45;&gt;Node33 -->
<g id="edge51_Node000025_Node000033" class="edge">
<title>Node25&#45;&gt;Node33</title>
<g id="a_edge51_Node000025_Node000033"><a xlink:title=" ">
<path fill="none" stroke="#63b8ff" d="M1450.56,-182.13C1460.27,-180.33 1470.46,-178.53 1480,-177 1598.66,-157.92 1631.86,-171.91 1748,-141 1749.59,-140.58 1751.19,-140.1 1752.81,-139.59"/>
<polygon fill="#63b8ff" stroke="#63b8ff" points="1753.68,-143 1761.89,-136.3 1751.29,-136.42 1753.68,-143"/>
</a>
</g>
</g>
<!-- Node25&#45;&gt;Node34 -->
<g id="edge52_Node000025_Node000034" class="edge">
<title>Node25&#45;&gt;Node34</title>
<g id="a_edge52_Node000025_Node000034"><a xlink:title=" ">
<path fill="none" stroke="#63b8ff" d="M1447.67,-182.19C1458.22,-180.24 1469.48,-178.36 1480,-177 1698.31,-148.67 1759.64,-191.12 1974,-141 1975.64,-140.62 1977.3,-140.17 1978.96,-139.67"/>
<polygon fill="#63b8ff" stroke="#63b8ff" points="1980.05,-143 1988.31,-136.36 1977.71,-136.4 1980.05,-143"/>
</a>
</g>
</g>
<!-- Node35 -->
<g id="Node000035" class="node">
<title>Node35</title>
<g id="a_Node000035"><a xlink:title=" ">
<polygon fill="#e0e0e0" stroke="#999999" points="1888.88,-135.38 1827.12,-135.38 1827.12,-116.12 1888.88,-116.12 1888.88,-135.38"/>
<text text-anchor="middle" x="1858" y="-121.88" font-family="Helvetica,sans-Serif" font-size="10.00">type_traits</text>
</a>
</g>
</g>
<!-- Node25&#45;&gt;Node35 -->
<g id="edge54_Node000025_Node000035" class="edge">
<title>Node25&#45;&gt;Node35</title>
<g id="a_edge54_Node000025_Node000035"><a xlink:title=" ">
<path fill="none" stroke="#63b8ff" d="M1449.31,-182.15C1459.39,-180.29 1470.04,-178.46 1480,-177 1629.47,-155.06 1670.71,-174.58 1818,-141 1820.16,-140.51 1822.36,-139.94 1824.56,-139.31"/>
<polygon fill="#63b8ff" stroke="#63b8ff" points="1825.53,-142.67 1833.99,-136.3 1823.4,-136.01 1825.53,-142.67"/>
</a>
</g>
</g>
<!-- Node26&#45;&gt;Node4 -->
<g id="edge42_Node000026_Node000004" class="edge">
<title>Node26&#45;&gt;Node4</title>
<g id="a_edge42_Node000026_Node000004"><a xlink:title=" ">
<path fill="none" stroke="#63b8ff" d="M1376.79,-115.64C1375.94,-100.81 1372.06,-71.48 1355,-55.25 1326.37,-28.02 1283.21,-16.92 1247.55,-12.6"/>
<polygon fill="#63b8ff" stroke="#63b8ff" points="1248.07,-9.13 1237.76,-11.58 1247.34,-16.09 1248.07,-9.13"/>
</a>
</g>
</g>
<!-- Node26&#45;&gt;Node6 -->
<g id="edge43_Node000026_Node000006" class="edge">
<title>Node26&#45;&gt;Node6</title>
<g id="a_edge43_Node000026_Node000006"><a xlink:title=" ">
<path fill="none" stroke="#63b8ff" d="M1327.04,-116.82C1310.52,-114.45 1292,-112.07 1275,-110.5 926.5,-78.34 830.77,-132.2 482.62,-74.5"/>
<polygon fill="#63b8ff" stroke="#63b8ff" points="483.38,-71.08 472.94,-72.88 482.22,-77.99 483.38,-71.08"/>
</a>
</g>
</g>
<!-- Node26&#45;&gt;Node13 -->
<g id="edge44_Node000026_Node000013" class="edge">
<title>Node26&#45;&gt;Node13</title>
<g id="a_edge44_Node000026_Node000013"><a xlink:title=" ">
<path fill="none" stroke="#63b8ff" d="M1327.03,-116.95C1310.5,-114.59 1291.99,-112.18 1275,-110.5 993,-82.61 650.59,-70.22 544.17,-66.86"/>
<polygon fill="#63b8ff" stroke="#63b8ff" points="544.55,-63.37 534.44,-66.56 544.33,-70.37 544.55,-63.37"/>
</a>
</g>
</g>
<!-- Node26&#45;&gt;Node18 -->
<g id="edge41_Node000026_Node000018" class="edge">
<title>Node26&#45;&gt;Node18</title>
<g id="a_edge41_Node000026_Node000018"><a xlink:title=" ">
<path fill="none" stroke="#63b8ff" d="M1362.42,-115.81C1347.34,-106.56 1323.51,-91.95 1305.52,-80.92"/>
<polygon fill="#63b8ff" stroke="#63b8ff" points="1307.36,-77.94 1297.01,-75.69 1303.7,-83.9 1307.36,-77.94"/>
</a>
</g>
</g>
<!-- Node27 -->
<g id="Node000027" class="node">
<title>Node27</title>
<g id="a_Node000027"><a xlink:href="../../d6/dbf/_c_i_e_e_e754_8h.html" target="_top" xlink:title=" ">
<polygon fill="white" stroke="#666666" points="1554.25,-74.5 1461.75,-74.5 1461.75,-55.25 1554.25,-55.25 1554.25,-74.5"/>
<text text-anchor="middle" x="1508" y="-61" font-family="Helvetica,sans-Serif" font-size="10.00">core/CIEEE754.h</text>
</a>
</g>
</g>
<!-- Node26&#45;&gt;Node27 -->
<g id="edge37_Node000026_Node000027" class="edge">
<title>Node26&#45;&gt;Node27</title>
<g id="a_edge37_Node000026_Node000027"><a xlink:title=" ">
<path fill="none" stroke="#63b8ff" d="M1397.18,-115.68C1418.69,-106.01 1452.98,-90.6 1477.72,-79.48"/>
<polygon fill="#63b8ff" stroke="#63b8ff" points="1478.94,-82.77 1486.63,-75.48 1476.07,-76.39 1478.94,-82.77"/>
</a>
</g>
</g>
<!-- Node27&#45;&gt;Node4 -->
<g id="edge38_Node000027_Node000004" class="edge">
<title>Node27&#45;&gt;Node4</title>
<g id="a_edge38_Node000027_Node000004"><a xlink:title=" ">
<path fill="none" stroke="#63b8ff" d="M1461.38,-56.19C1405.13,-46.92 1310.34,-31.29 1247.71,-20.96"/>
<polygon fill="#63b8ff" stroke="#63b8ff" points="1248.34,-17.52 1237.91,-19.35 1247.2,-24.43 1248.34,-17.52"/>
</a>
</g>
</g>
<!-- Node27&#45;&gt;Node16 -->
<g id="edge39_Node000027_Node000016" class="edge">
<title>Node27&#45;&gt;Node16</title>
<g id="a_edge39_Node000027_Node000016"><a xlink:title=" ">
<path fill="none" stroke="#63b8ff" d="M1483.06,-54.84C1458.73,-46.03 1421.54,-32.56 1394.61,-22.8"/>
<polygon fill="#63b8ff" stroke="#63b8ff" points="1396.14,-19.63 1385.54,-19.51 1393.75,-26.21 1396.14,-19.63"/>
</a>
</g>
</g>
<!-- Node28 -->
<g id="Node000028" class="node">
<title>Node28</title>
<g id="a_Node000028"><a xlink:title=" ">
<polygon fill="#e0e0e0" stroke="#999999" points="1530.62,-19.25 1485.38,-19.25 1485.38,0 1530.62,0 1530.62,-19.25"/>
<text text-anchor="middle" x="1508" y="-5.75" font-family="Helvetica,sans-Serif" font-size="10.00">cstring</text>
</a>
</g>
</g>
<!-- Node27&#45;&gt;Node28 -->
<g id="edge40_Node000027_Node000028" class="edge">
<title>Node27&#45;&gt;Node28</title>
<g id="a_edge40_Node000027_Node000028"><a xlink:title=" ">
<path fill="none" stroke="#63b8ff" d="M1508,-55.08C1508,-48.57 1508,-39.42 1508,-31.12"/>
<polygon fill="#63b8ff" stroke="#63b8ff" points="1511.5,-31.12 1508,-21.12 1504.5,-31.12 1511.5,-31.12"/>
</a>
</g>
</g>
<!-- Node41 -->
<g id="Node000041" class="node">
<title>Node41</title>
<g id="a_Node000041"><a xlink:title=" ">
<polygon fill="#e0e0e0" stroke="#999999" points="2087.5,-268.38 2044.5,-268.38 2044.5,-249.12 2087.5,-249.12 2087.5,-268.38"/>
<text text-anchor="middle" x="2066" y="-254.88" font-family="Helvetica,sans-Serif" font-size="10.00">time.h</text>
</a>
</g>
</g>
<!-- Node40&#45;&gt;Node41 -->
<g id="edge66_Node000040_Node000041" class="edge">
<title>Node40&#45;&gt;Node41</title>
<g id="a_edge66_Node000040_Node000041"><a xlink:title=" ">
<path fill="none" stroke="#63b8ff" d="M2066,-309.68C2066,-301.9 2066,-290.33 2066,-280.28"/>
<polygon fill="#63b8ff" stroke="#63b8ff" points="2069.5,-280.29 2066,-270.29 2062.5,-280.29 2069.5,-280.29"/>
</a>
</g>
</g>
</g>
</svg>
