<?xml version="1.0" encoding="UTF-8" standalone="no"?>
<!DOCTYPE svg PUBLIC "-//W3C//DTD SVG 1.1//EN"
 "http://www.w3.org/Graphics/SVG/1.1/DTD/svg11.dtd">
<!-- Generated by graphviz version 10.0.1 (20240210.2158)
 -->
<!-- Title: ml::maths::common::CSolvers::leftBracket Pages: 1 -->
<svg width="484pt" height="136pt"
 viewBox="0.00 0.00 484.25 135.88" xmlns="http://www.w3.org/2000/svg" xmlns:xlink="http://www.w3.org/1999/xlink">
<g id="graph0" class="graph" transform="scale(1 1) rotate(0) translate(4 131.88)">
<title>ml::maths::common::CSolvers::leftBracket</title>
<!-- Node1 -->
<g id="Node000001" class="node">
<title>Node1</title>
<g id="a_Node000001"><a xlink:title=" ">
<polygon fill="#999999" stroke="#666666" points="476.25,-84.5 366.5,-84.5 366.5,-54 476.25,-54 476.25,-84.5"/>
<text text-anchor="start" x="374.5" y="-71" font-family="Helvetica,sans-Serif" font-size="10.00">ml::maths::common::</text>
<text text-anchor="middle" x="421.38" y="-59.75" font-family="Helvetica,sans-Serif" font-size="10.00">CSolvers::leftBracket</text>
</a>
</g>
</g>
<!-- Node2 -->
<g id="Node000002" class="node">
<title>Node2</title>
<g id="a_Node000002"><a xlink:href="../../da/d78/_c_solvers_test_8cc.html#a4d353e43e54901ffbb416b07a016f827" target="_top" xlink:title=" ">
<polygon fill="white" stroke="#666666" points="330.5,-127.88 183.25,-127.88 183.25,-108.62 330.5,-108.62 330.5,-127.88"/>
<text text-anchor="middle" x="256.88" y="-114.38" font-family="Helvetica,sans-Serif" font-size="10.00">BOOST_AUTO_TEST_CASE</text>
</a>
</g>
</g>
<!-- Node1&#45;&gt;Node2 -->
<g id="edge1_Node000001_Node000002" class="edge">
<title>Node1&#45;&gt;Node2</title>
<g id="a_edge1_Node000001_Node000002"><a xlink:title=" ">
<path fill="none" stroke="#63b8ff" d="M364.69,-88.47C353.42,-92.19 341.61,-95.95 330.5,-99.25 320.13,-102.33 308.85,-105.41 298.34,-108.17"/>
<polygon fill="#63b8ff" stroke="#63b8ff" points="365.48,-91.9 373.86,-85.42 363.27,-85.26 365.48,-91.9"/>
</a>
</g>
</g>
<!-- Node3 -->
<g id="Node000003" class="node">
<title>Node3</title>
<g id="a_Node000003"><a xlink:href="../../db/db1/classml_1_1maths_1_1common_1_1_c_tools_1_1_c_mixture_probability_of_less_likely_sample.html#a07191a45620661c948478bcfe386dc2d" target="_top" xlink:title=" ">
<polygon fill="white" stroke="#666666" points="327.12,-90.12 186.62,-90.12 186.62,-48.38 327.12,-48.38 327.12,-90.12"/>
<text text-anchor="start" x="194.62" y="-76.62" font-family="Helvetica,sans-Serif" font-size="10.00">ml::maths::common::</text>
<text text-anchor="start" x="194.62" y="-65.38" font-family="Helvetica,sans-Serif" font-size="10.00">CTools::CMixtureProbability</text>
<text text-anchor="middle" x="256.88" y="-54.12" font-family="Helvetica,sans-Serif" font-size="10.00">OfLessLikelySample::leftTail</text>
</a>
</g>
</g>
<!-- Node1&#45;&gt;Node3 -->
<g id="edge2_Node000001_Node000003" class="edge">
<title>Node1&#45;&gt;Node3</title>
<g id="a_edge2_Node000001_Node000003"><a xlink:title=" ">
<path fill="none" stroke="#63b8ff" d="M354.95,-69.25C345.86,-69.25 336.51,-69.25 327.36,-69.25"/>
<polygon fill="#63b8ff" stroke="#63b8ff" points="354.75,-72.75 364.75,-69.25 354.75,-65.75 354.75,-72.75"/>
</a>
</g>
</g>
<!-- Node5 -->
<g id="Node000005" class="node">
<title>Node5</title>
<g id="a_Node000005"><a xlink:href="../../d6/dd5/namespaceml_1_1maths_1_1common.html#ad68b0196d3b447bdea1c1e22e61e652b" target="_top" xlink:title=" ">
<polygon fill="white" stroke="#666666" points="311.38,-30.5 202.38,-30.5 202.38,0 311.38,0 311.38,-30.5"/>
<text text-anchor="start" x="210.38" y="-17" font-family="Helvetica,sans-Serif" font-size="10.00">ml::maths::common::</text>
<text text-anchor="middle" x="256.88" y="-5.75" font-family="Helvetica,sans-Serif" font-size="10.00">quantile</text>
</a>
</g>
</g>
<!-- Node1&#45;&gt;Node5 -->
<g id="edge4_Node000001_Node000005" class="edge">
<title>Node1&#45;&gt;Node5</title>
<g id="a_edge4_Node000001_Node000005"><a xlink:title=" ">
<path fill="none" stroke="#63b8ff" d="M363.09,-50.1C352.27,-46.49 341.04,-42.75 330.5,-39.25 322.43,-36.57 313.86,-33.73 305.54,-30.98"/>
<polygon fill="#63b8ff" stroke="#63b8ff" points="361.71,-53.33 372.3,-53.17 363.92,-46.69 361.71,-53.33"/>
</a>
</g>
</g>
<!-- Node4 -->
<g id="Node000004" class="node">
<title>Node4</title>
<g id="a_Node000004"><a xlink:href="../../dd/d5e/maths_2common_2unittest_2_c_tools_test_8cc.html#a055d62a69cd86de855d10e2869f88e1c" target="_top" xlink:title=" ">
<polygon fill="white" stroke="#666666" points="147.25,-78.88 0,-78.88 0,-59.62 147.25,-59.62 147.25,-78.88"/>
<text text-anchor="middle" x="73.62" y="-65.38" font-family="Helvetica,sans-Serif" font-size="10.00">BOOST_AUTO_TEST_CASE</text>
</a>
</g>
</g>
<!-- Node3&#45;&gt;Node4 -->
<g id="edge3_Node000003_Node000004" class="edge">
<title>Node3&#45;&gt;Node4</title>
<g id="a_edge3_Node000003_Node000004"><a xlink:title=" ">
<path fill="none" stroke="#63b8ff" d="M174.9,-69.25C165.81,-69.25 156.59,-69.25 147.6,-69.25"/>
<polygon fill="#63b8ff" stroke="#63b8ff" points="174.8,-72.75 184.8,-69.25 174.8,-65.75 174.8,-72.75"/>
</a>
</g>
</g>
</g>
</svg>
