<?xml version="1.0" encoding="UTF-8" standalone="no"?>
<!DOCTYPE svg PUBLIC "-//W3C//DTD SVG 1.1//EN"
 "http://www.w3.org/Graphics/SVG/1.1/DTD/svg11.dtd">
<!-- Generated by graphviz version 10.0.1 (20240210.2158)
 -->
<!-- Title: ml::spikeyDaily Pages: 1 -->
<!--zoomable 656 -->

<svg id="main" version="1.1" xmlns="http://www.w3.org/2000/svg" xmlns:xlink="http://www.w3.org/1999/xlink" xml:space="preserve" onload="init(evt)">
<style type="text/css"><![CDATA[
.node, .edge {opacity: 0.7;}
.node.selected, .edge.selected {opacity: 1;}
.edge:hover path { stroke: red; }
.edge:hover polygon { stroke: red; fill: red; }
]]></style>

<defs>
  <circle id="rim" cx="0" cy="0" r="7"/>
  <circle id="rim2" cx="0" cy="0" r="3.5"/>
  <g id="zoomPlus">
    <use xlink:href="#rim" fill="#404040"><set attributeName="fill" to="#808080" begin="zoomplus.mouseover" end="zoomplus.mouseout"/></use>
    <path d="M-4,0h8M0,-4v8" fill="none" stroke="white" stroke-width="1.5" pointer-events="none"/>
  </g>
  <g id="zoomMin">
    <use xlink:href="#rim" fill="#404040"><set attributeName="fill" to="#808080" begin="zoomminus.mouseover" end="zoomminus.mouseout"/></use>
    <path d="M-4,0h8" fill="none" stroke="white" stroke-width="1.5" pointer-events="none"/>
  </g>
  <g id="arrowUp" transform="translate(30 24)">
    <use xlink:href="#rim"/>
    <path pointer-events="none" fill="none" stroke="white" stroke-width="1.5" d="M0,-3.0v7 M-2.5,-0.5L0,-3.0L2.5,-0.5"/>
  </g>
  <g id="arrowRight" transform="rotate(90) translate(36 -43)">
    <use xlink:href="#rim"/>
    <path pointer-events="none" fill="none" stroke="white" stroke-width="1.5" d="M0,-3.0v7 M-2.5,-0.5L0,-3.0L2.5,-0.5"/>
  </g>
  <g id="arrowDown" transform="rotate(180) translate(-30 -48)">
    <use xlink:href="#rim"/>
    <path pointer-events="none" fill="none" stroke="white" stroke-width="1.5" d="M0,-3.0v7 M-2.5,-0.5L0,-3.0L2.5,-0.5"/>
  </g>
  <g id="arrowLeft" transform="rotate(270) translate(-36 17)">
    <use xlink:href="#rim"/>
    <path pointer-events="none" fill="none" stroke="white" stroke-width="1.5" d="M0,-3.0v7 M-2.5,-0.5L0,-3.0L2.5,-0.5"/>
  </g>
  <g id="resetDef">
    <use xlink:href="#rim2" fill="#404040"><set attributeName="fill" to="#808080" begin="reset.mouseover" end="reset.mouseout"/></use>
  </g>
</defs>
<script type="application/ecmascript">
var viewWidth = 275;
var viewHeight = 656;
var sectionId = 'dynsection-6';
</script>
<script type="application/ecmascript" xlink:href="../../svg.min.js"/>
<svg id="graph" class="graph">
<g id="viewport">
<title>ml::spikeyDaily</title>
<!-- Node1 -->
<g id="Node000001" class="node">
<title>Node1</title>
<g id="a_Node000001"><a xlink:title="Spikey daily periodic.">
<polygon fill="#999999" stroke="#666666" points="266.75,-333.25 183.25,-333.25 183.25,-314 266.75,-314 266.75,-333.25"/>
<text text-anchor="middle" x="225" y="-319.75" font-family="Helvetica,sans-Serif" font-size="10.00">ml::spikeyDaily</text>
</a>
</g>
</g>
<!-- Node2 -->
<g id="Node000002" class="node">
<title>Node2</title>
<g id="a_Node000002"><a xlink:href="../../d4/d4e/_c_signal_test_8cc.html#a674b98ac239cf416807119da3d74f939" target="_top" xlink:title=" ">
<polygon fill="white" stroke="#666666" points="147.25,-648.25 0,-648.25 0,-629 147.25,-629 147.25,-648.25"/>
<text text-anchor="middle" x="73.62" y="-634.75" font-family="Helvetica,sans-Serif" font-size="10.00">BOOST_AUTO_TEST_CASE</text>
</a>
</g>
</g>
<!-- Node1&#45;&gt;Node2 -->
<g id="edge1_Node000001_Node000002" class="edge">
<title>Node1&#45;&gt;Node2</title>
<g id="a_edge1_Node000001_Node000002"><a xlink:title=" ">
<path fill="none" stroke="#63b8ff" d="M221.37,-344.68C213.31,-405.76 187.09,-581.18 147.25,-620.62 144.11,-623.73 140.53,-626.33 136.67,-628.5"/>
<polygon fill="#63b8ff" stroke="#63b8ff" points="224.81,-345.33 222.62,-334.97 217.87,-344.44 224.81,-345.33"/>
</a>
</g>
</g>
<!-- Node3 -->
<g id="Node000003" class="node">
<title>Node3</title>
<g id="a_Node000003"><a xlink:href="../../d2/d85/_c_time_series_test_for_change_test_8cc.html#ab6fd2880b4cf5ca8aa9b60c77b33e8f6" target="_top" xlink:title=" ">
<polygon fill="white" stroke="#666666" points="147.25,-611.25 0,-611.25 0,-592 147.25,-592 147.25,-611.25"/>
<text text-anchor="middle" x="73.62" y="-597.75" font-family="Helvetica,sans-Serif" font-size="10.00">BOOST_AUTO_TEST_CASE</text>
</a>
</g>
</g>
<!-- Node1&#45;&gt;Node3 -->
<g id="edge2_Node000001_Node000003" class="edge">
<title>Node1&#45;&gt;Node3</title>
<g id="a_edge2_Node000001_Node000003"><a xlink:title=" ">
<path fill="none" stroke="#63b8ff" d="M224.36,-345.05C223.97,-394.64 215.77,-518.06 147.25,-583.62 143.97,-586.77 140.22,-589.39 136.2,-591.57"/>
<polygon fill="#63b8ff" stroke="#63b8ff" points="227.86,-345.12 224.32,-335.13 220.86,-345.15 227.86,-345.12"/>
</a>
</g>
</g>
<!-- Node4 -->
<g id="Node000004" class="node">
<title>Node4</title>
<g id="a_Node000004"><a xlink:href="../../d4/d97/_c_time_series_test_for_seasonality_test_8cc.html#aeb411e74803c3af75b59c39b65ae8545" target="_top" xlink:title=" ">
<polygon fill="white" stroke="#666666" points="147.25,-574.25 0,-574.25 0,-555 147.25,-555 147.25,-574.25"/>
<text text-anchor="middle" x="73.62" y="-560.75" font-family="Helvetica,sans-Serif" font-size="10.00">BOOST_AUTO_TEST_CASE</text>
</a>
</g>
</g>
<!-- Node1&#45;&gt;Node4 -->
<g id="edge3_Node000001_Node000004" class="edge">
<title>Node1&#45;&gt;Node4</title>
<g id="a_edge3_Node000001_Node000004"><a xlink:title=" ">
<path fill="none" stroke="#63b8ff" d="M223.15,-344.68C220.19,-388.94 206.91,-492.03 147.25,-546.62 143.8,-549.78 139.88,-552.41 135.7,-554.59"/>
<polygon fill="#63b8ff" stroke="#63b8ff" points="226.64,-345.08 223.68,-334.91 219.65,-344.71 226.64,-345.08"/>
</a>
</g>
</g>
<!-- Node5 -->
<g id="Node000005" class="node">
<title>Node5</title>
<g id="a_Node000005"><a xlink:href="../../d4/d97/_c_time_series_test_for_seasonality_test_8cc.html#a2631ed1ae69fa57bab00289e98e79cc9" target="_top" xlink:title=" ">
<polygon fill="white" stroke="#666666" points="147.25,-537.25 0,-537.25 0,-518 147.25,-518 147.25,-537.25"/>
<text text-anchor="middle" x="73.62" y="-523.75" font-family="Helvetica,sans-Serif" font-size="10.00">BOOST_AUTO_TEST_CASE</text>
</a>
</g>
</g>
<!-- Node1&#45;&gt;Node5 -->
<g id="edge4_Node000001_Node000005" class="edge">
<title>Node1&#45;&gt;Node5</title>
<g id="a_edge4_Node000001_Node000005"><a xlink:title=" ">
<path fill="none" stroke="#63b8ff" d="M221.48,-344.86C215.71,-383.65 197.89,-465.99 147.25,-509.62 143.61,-512.76 139.5,-515.37 135.14,-517.53"/>
<polygon fill="#63b8ff" stroke="#63b8ff" points="224.94,-345.37 222.8,-334.99 218,-344.44 224.94,-345.37"/>
</a>
</g>
</g>
<!-- Node6 -->
<g id="Node000006" class="node">
<title>Node6</title>
<g id="a_Node000006"><a xlink:href="../../d4/d97/_c_time_series_test_for_seasonality_test_8cc.html#adfd6cbceb878e00bca4ae9b7b6c87bd0" target="_top" xlink:title=" ">
<polygon fill="white" stroke="#666666" points="147.25,-500.25 0,-500.25 0,-481 147.25,-481 147.25,-500.25"/>
<text text-anchor="middle" x="73.62" y="-486.75" font-family="Helvetica,sans-Serif" font-size="10.00">BOOST_AUTO_TEST_CASE</text>
</a>
</g>
</g>
<!-- Node1&#45;&gt;Node6 -->
<g id="edge5_Node000001_Node000006" class="edge">
<title>Node1&#45;&gt;Node6</title>
<g id="a_edge5_Node000001_Node000006"><a xlink:title=" ">
<path fill="none" stroke="#63b8ff" d="M219.23,-344.24C210.62,-376.67 189.35,-439.34 147.25,-472.62 143.28,-475.77 138.83,-478.37 134.14,-480.52"/>
<polygon fill="#63b8ff" stroke="#63b8ff" points="222.54,-345.43 221.56,-334.88 215.75,-343.74 222.54,-345.43"/>
</a>
</g>
</g>
<!-- Node7 -->
<g id="Node000007" class="node">
<title>Node7</title>
<g id="a_Node000007"><a xlink:href="../../d4/d97/_c_time_series_test_for_seasonality_test_8cc.html#ad110076f1f1d1f4e093dd1e7857d5bfd" target="_top" xlink:title=" ">
<polygon fill="white" stroke="#666666" points="147.25,-463.25 0,-463.25 0,-444 147.25,-444 147.25,-463.25"/>
<text text-anchor="middle" x="73.62" y="-449.75" font-family="Helvetica,sans-Serif" font-size="10.00">BOOST_AUTO_TEST_CASE</text>
</a>
</g>
</g>
<!-- Node1&#45;&gt;Node7 -->
<g id="edge6_Node000001_Node000007" class="edge">
<title>Node1&#45;&gt;Node7</title>
<g id="a_edge6_Node000001_Node000007"><a xlink:title=" ">
<path fill="none" stroke="#63b8ff" d="M215.68,-343.79C204.14,-369.19 180.84,-412.32 147.25,-435.62 142.66,-438.81 137.56,-441.43 132.26,-443.59"/>
<polygon fill="#63b8ff" stroke="#63b8ff" points="218.77,-345.46 219.55,-334.89 212.35,-342.67 218.77,-345.46"/>
</a>
</g>
</g>
<!-- Node8 -->
<g id="Node000008" class="node">
<title>Node8</title>
<g id="a_Node000008"><a xlink:href="../../dd/d0d/_c_time_series_segmentation_test_8cc.html#a0e784ae66d51d8008317b70fb96acb5b" target="_top" xlink:title=" ">
<polygon fill="white" stroke="#666666" points="147.25,-426.25 0,-426.25 0,-407 147.25,-407 147.25,-426.25"/>
<text text-anchor="middle" x="73.62" y="-412.75" font-family="Helvetica,sans-Serif" font-size="10.00">BOOST_AUTO_TEST_CASE</text>
</a>
</g>
</g>
<!-- Node1&#45;&gt;Node8 -->
<g id="edge7_Node000001_Node000008" class="edge">
<title>Node1&#45;&gt;Node8</title>
<g id="a_edge7_Node000001_Node000008"><a xlink:title=" ">
<path fill="none" stroke="#63b8ff" d="M209.89,-342.23C195.86,-359.42 172.79,-384.39 147.25,-398.62 141.58,-401.79 135.35,-404.4 129,-406.56"/>
<polygon fill="#63b8ff" stroke="#63b8ff" points="212.32,-344.8 215.77,-334.79 206.83,-340.46 212.32,-344.8"/>
</a>
</g>
</g>
<!-- Node9 -->
<g id="Node000009" class="node">
<title>Node9</title>
<g id="a_Node000009"><a xlink:href="../../dd/d0d/_c_time_series_segmentation_test_8cc.html#ad096e540b32e47a933e28620acc586df" target="_top" xlink:title=" ">
<polygon fill="white" stroke="#666666" points="147.25,-389.25 0,-389.25 0,-370 147.25,-370 147.25,-389.25"/>
<text text-anchor="middle" x="73.62" y="-375.75" font-family="Helvetica,sans-Serif" font-size="10.00">BOOST_AUTO_TEST_CASE</text>
</a>
</g>
</g>
<!-- Node1&#45;&gt;Node9 -->
<g id="edge8_Node000001_Node000009" class="edge">
<title>Node1&#45;&gt;Node9</title>
<g id="a_edge8_Node000001_Node000009"><a xlink:title=" ">
<path fill="none" stroke="#63b8ff" d="M196.75,-338.92C182.36,-346.53 164.21,-355.41 147.25,-361.62 139.08,-364.62 130.21,-367.28 121.57,-369.58"/>
<polygon fill="#63b8ff" stroke="#63b8ff" points="198.03,-342.21 205.16,-334.38 194.7,-336.05 198.03,-342.21"/>
</a>
</g>
</g>
<!-- Node10 -->
<g id="Node000010" class="node">
<title>Node10</title>
<g id="a_Node000010"><a xlink:href="../../dd/d0d/_c_time_series_segmentation_test_8cc.html#a47d1a478861f0e02cb71d8524a28d2bc" target="_top" xlink:title=" ">
<polygon fill="white" stroke="#666666" points="147.25,-352.25 0,-352.25 0,-333 147.25,-333 147.25,-352.25"/>
<text text-anchor="middle" x="73.62" y="-338.75" font-family="Helvetica,sans-Serif" font-size="10.00">BOOST_AUTO_TEST_CASE</text>
</a>
</g>
</g>
<!-- Node1&#45;&gt;Node10 -->
<g id="edge9_Node000001_Node000010" class="edge">
<title>Node1&#45;&gt;Node10</title>
<g id="a_edge9_Node000001_Node000010"><a xlink:title=" ">
<path fill="none" stroke="#63b8ff" d="M171.37,-330.32C163.64,-331.3 155.57,-332.33 147.52,-333.35"/>
<polygon fill="#63b8ff" stroke="#63b8ff" points="171.81,-333.79 181.29,-329.06 170.92,-326.85 171.81,-333.79"/>
</a>
</g>
</g>
<!-- Node11 -->
<g id="Node000011" class="node">
<title>Node11</title>
<g id="a_Node000011"><a xlink:href="../../d2/d85/_c_time_series_test_for_change_test_8cc.html#a51cb3a96be6e10a3f2dff8ef985b6028" target="_top" xlink:title=" ">
<polygon fill="white" stroke="#666666" points="147.25,-315.25 0,-315.25 0,-296 147.25,-296 147.25,-315.25"/>
<text text-anchor="middle" x="73.62" y="-301.75" font-family="Helvetica,sans-Serif" font-size="10.00">BOOST_AUTO_TEST_CASE</text>
</a>
</g>
</g>
<!-- Node1&#45;&gt;Node11 -->
<g id="edge10_Node000001_Node000011" class="edge">
<title>Node1&#45;&gt;Node11</title>
<g id="a_edge10_Node000001_Node000011"><a xlink:title=" ">
<path fill="none" stroke="#63b8ff" d="M171.37,-317.28C163.64,-316.35 155.57,-315.38 147.52,-314.41"/>
<polygon fill="#63b8ff" stroke="#63b8ff" points="170.94,-320.76 181.28,-318.48 171.78,-313.81 170.94,-320.76"/>
</a>
</g>
</g>
<!-- Node12 -->
<g id="Node000012" class="node">
<title>Node12</title>
<g id="a_Node000012"><a xlink:href="../../d4/d97/_c_time_series_test_for_seasonality_test_8cc.html#a27e7f8bfec36bb2616fb2fb87bafedce" target="_top" xlink:title=" ">
<polygon fill="white" stroke="#666666" points="147.25,-278.25 0,-278.25 0,-259 147.25,-259 147.25,-278.25"/>
<text text-anchor="middle" x="73.62" y="-264.75" font-family="Helvetica,sans-Serif" font-size="10.00">BOOST_AUTO_TEST_CASE</text>
</a>
</g>
</g>
<!-- Node1&#45;&gt;Node12 -->
<g id="edge11_Node000001_Node000012" class="edge">
<title>Node1&#45;&gt;Node12</title>
<g id="a_edge11_Node000001_Node000012"><a xlink:title=" ">
<path fill="none" stroke="#63b8ff" d="M195.72,-308.26C181.48,-300.97 163.77,-292.58 147.25,-286.62 139.06,-283.67 130.19,-281.03 121.54,-278.74"/>
<polygon fill="#63b8ff" stroke="#63b8ff" points="194.03,-311.32 204.51,-312.85 197.27,-305.12 194.03,-311.32"/>
</a>
</g>
</g>
<!-- Node13 -->
<g id="Node000013" class="node">
<title>Node13</title>
<g id="a_Node000013"><a xlink:href="../../d4/d97/_c_time_series_test_for_seasonality_test_8cc.html#a08b56196a00cab4075c1aebd5d4b1ddf" target="_top" xlink:title=" ">
<polygon fill="white" stroke="#666666" points="147.25,-241.25 0,-241.25 0,-222 147.25,-222 147.25,-241.25"/>
<text text-anchor="middle" x="73.62" y="-227.75" font-family="Helvetica,sans-Serif" font-size="10.00">BOOST_AUTO_TEST_CASE</text>
</a>
</g>
</g>
<!-- Node1&#45;&gt;Node13 -->
<g id="edge12_Node000001_Node000013" class="edge">
<title>Node1&#45;&gt;Node13</title>
<g id="a_edge12_Node000001_Node000013"><a xlink:title=" ">
<path fill="none" stroke="#63b8ff" d="M209.61,-305C195.52,-288.05 172.53,-263.6 147.25,-249.62 141.57,-246.48 135.33,-243.88 128.98,-241.73"/>
<polygon fill="#63b8ff" stroke="#63b8ff" points="206.53,-306.76 215.53,-312.35 211.98,-302.37 206.53,-306.76"/>
</a>
</g>
</g>
<!-- Node14 -->
<g id="Node000014" class="node">
<title>Node14</title>
<g id="a_Node000014"><a xlink:href="../../d4/d97/_c_time_series_test_for_seasonality_test_8cc.html#a7db55993f2f5a5a2b744f7963258232f" target="_top" xlink:title=" ">
<polygon fill="white" stroke="#666666" points="147.25,-204.25 0,-204.25 0,-185 147.25,-185 147.25,-204.25"/>
<text text-anchor="middle" x="73.62" y="-190.75" font-family="Helvetica,sans-Serif" font-size="10.00">BOOST_AUTO_TEST_CASE</text>
</a>
</g>
</g>
<!-- Node1&#45;&gt;Node14 -->
<g id="edge13_Node000001_Node000014" class="edge">
<title>Node1&#45;&gt;Node14</title>
<g id="a_edge13_Node000001_Node000014"><a xlink:title=" ">
<path fill="none" stroke="#63b8ff" d="M215.46,-303.26C203.81,-278.04 180.52,-235.6 147.25,-212.62 142.65,-209.45 137.55,-206.84 132.25,-204.68"/>
<polygon fill="#63b8ff" stroke="#63b8ff" points="212.13,-304.39 219.37,-312.12 218.53,-301.56 212.13,-304.39"/>
</a>
</g>
</g>
<!-- Node15 -->
<g id="Node000015" class="node">
<title>Node15</title>
<g id="a_Node000015"><a xlink:href="../../d4/d97/_c_time_series_test_for_seasonality_test_8cc.html#ad5a2bd7fb451ec72fc1b1d765223629b" target="_top" xlink:title=" ">
<polygon fill="white" stroke="#666666" points="147.25,-167.25 0,-167.25 0,-148 147.25,-148 147.25,-167.25"/>
<text text-anchor="middle" x="73.62" y="-153.75" font-family="Helvetica,sans-Serif" font-size="10.00">BOOST_AUTO_TEST_CASE</text>
</a>
</g>
</g>
<!-- Node1&#45;&gt;Node15 -->
<g id="edge14_Node000001_Node000015" class="edge">
<title>Node1&#45;&gt;Node15</title>
<g id="a_edge14_Node000001_Node000015"><a xlink:title=" ">
<path fill="none" stroke="#63b8ff" d="M219.06,-302.68C210.32,-270.33 188.97,-208.52 147.25,-175.62 143.27,-172.49 138.82,-169.89 134.13,-167.74"/>
<polygon fill="#63b8ff" stroke="#63b8ff" points="215.59,-303.21 221.44,-312.04 222.37,-301.49 215.59,-303.21"/>
</a>
</g>
</g>
<!-- Node16 -->
<g id="Node000016" class="node">
<title>Node16</title>
<g id="a_Node000016"><a xlink:href="../../d4/d97/_c_time_series_test_for_seasonality_test_8cc.html#a03ac0313c2c9ab9fc4d1e962fd317466" target="_top" xlink:title=" ">
<polygon fill="white" stroke="#666666" points="147.25,-130.25 0,-130.25 0,-111 147.25,-111 147.25,-130.25"/>
<text text-anchor="middle" x="73.62" y="-116.75" font-family="Helvetica,sans-Serif" font-size="10.00">BOOST_AUTO_TEST_CASE</text>
</a>
</g>
</g>
<!-- Node1&#45;&gt;Node16 -->
<g id="edge15_Node000001_Node000016" class="edge">
<title>Node1&#45;&gt;Node16</title>
<g id="a_edge15_Node000001_Node000016"><a xlink:title=" ">
<path fill="none" stroke="#63b8ff" d="M221.44,-302.5C215.61,-263.91 197.7,-182.01 147.25,-138.62 143.61,-135.49 139.5,-132.89 135.14,-130.73"/>
<polygon fill="#63b8ff" stroke="#63b8ff" points="217.96,-302.87 222.78,-312.31 224.9,-301.93 217.96,-302.87"/>
</a>
</g>
</g>
<!-- Node17 -->
<g id="Node000017" class="node">
<title>Node17</title>
<g id="a_Node000017"><a xlink:href="../../d4/d97/_c_time_series_test_for_seasonality_test_8cc.html#a7d74fb7eb12a2263334e078fa3bf9032" target="_top" xlink:title=" ">
<polygon fill="white" stroke="#666666" points="147.25,-93.25 0,-93.25 0,-74 147.25,-74 147.25,-93.25"/>
<text text-anchor="middle" x="73.62" y="-79.75" font-family="Helvetica,sans-Serif" font-size="10.00">BOOST_AUTO_TEST_CASE</text>
</a>
</g>
</g>
<!-- Node1&#45;&gt;Node17 -->
<g id="edge16_Node000001_Node000017" class="edge">
<title>Node1&#45;&gt;Node17</title>
<g id="a_edge16_Node000001_Node000017"><a xlink:title=" ">
<path fill="none" stroke="#63b8ff" d="M223.12,-302.66C220.1,-258.59 206.7,-155.96 147.25,-101.62 143.8,-98.47 139.88,-95.85 135.7,-93.67"/>
<polygon fill="#63b8ff" stroke="#63b8ff" points="219.61,-302.59 223.66,-312.38 226.6,-302.2 219.61,-302.59"/>
</a>
</g>
</g>
<!-- Node18 -->
<g id="Node000018" class="node">
<title>Node18</title>
<g id="a_Node000018"><a xlink:href="../../d2/d85/_c_time_series_test_for_change_test_8cc.html#a68ba6c4d1a4147f2ccf8975f72868b24" target="_top" xlink:title=" ">
<polygon fill="white" stroke="#666666" points="147.25,-56.25 0,-56.25 0,-37 147.25,-37 147.25,-56.25"/>
<text text-anchor="middle" x="73.62" y="-42.75" font-family="Helvetica,sans-Serif" font-size="10.00">BOOST_AUTO_TEST_CASE</text>
</a>
</g>
</g>
<!-- Node1&#45;&gt;Node18 -->
<g id="edge17_Node000001_Node000018" class="edge">
<title>Node1&#45;&gt;Node18</title>
<g id="a_edge17_Node000001_Node000018"><a xlink:title=" ">
<path fill="none" stroke="#63b8ff" d="M224.33,-302.28C223.89,-252.88 215.56,-129.92 147.25,-64.62 143.96,-61.48 140.22,-58.86 136.2,-56.68"/>
<polygon fill="#63b8ff" stroke="#63b8ff" points="220.83,-302.15 224.31,-312.16 227.83,-302.17 220.83,-302.15"/>
</a>
</g>
</g>
<!-- Node19 -->
<g id="Node000019" class="node">
<title>Node19</title>
<g id="a_Node000019"><a xlink:href="../../d2/d85/_c_time_series_test_for_change_test_8cc.html#a4cf09c4e0e0b99325e2e6453a3847972" target="_top" xlink:title=" ">
<polygon fill="white" stroke="#666666" points="147.25,-19.25 0,-19.25 0,0 147.25,0 147.25,-19.25"/>
<text text-anchor="middle" x="73.62" y="-5.75" font-family="Helvetica,sans-Serif" font-size="10.00">BOOST_AUTO_TEST_CASE</text>
</a>
</g>
</g>
<!-- Node1&#45;&gt;Node19 -->
<g id="edge18_Node000001_Node000019" class="edge">
<title>Node1&#45;&gt;Node19</title>
<g id="a_edge18_Node000001_Node000019"><a xlink:title=" ">
<path fill="none" stroke="#63b8ff" d="M221.3,-302.24C213.15,-240.99 186.89,-66.84 147.25,-27.62 144.11,-24.52 140.52,-21.92 136.66,-19.75"/>
<polygon fill="#63b8ff" stroke="#63b8ff" points="217.81,-302.54 222.57,-312 224.75,-301.63 217.81,-302.54"/>
</a>
</g>
</g>
</g>
</svg>

<g id="navigator" transform="translate(0 0)" fill="#404254">
  <rect fill="#f2f5e9" fill-opacity="0.5" stroke="#606060" stroke-width=".5" x="0" y="0" width="60" height="60"/>
  <use id="zoomplus" xlink:href="#zoomPlus" x="17" y="9" onmousedown="handleZoom(evt,'in')"/>
  <use id="zoomminus" xlink:href="#zoomMin" x="42" y="9" onmousedown="handleZoom(evt,'out')"/>
  <use id="reset" xlink:href="#resetDef" x="30" y="36" onmousedown="handleReset()"/>
   <use id="arrowup" xlink:href="#arrowUp" x="0" y="0" onmousedown="handlePan(0,-1)"/>
  <use id="arrowright" xlink:href="#arrowRight" x="0" y="0" onmousedown="handlePan(1,0)"/>
  <use id="arrowdown" xlink:href="#arrowDown" x="0" y="0" onmousedown="handlePan(0,1)"/>
  <use id="arrowleft" xlink:href="#arrowLeft" x="0" y="0" onmousedown="handlePan(-1,0)"/>
</g>
<svg viewBox="0 0 15 15" width="100%" height="30px" preserveAspectRatio="xMaxYMin meet">
 <g id="arrow_out" transform="scale(0.3 0.3)">
  <a xlink:href="namespaceml_a8fe17d089c480f0a429cf483332c69d1_icgraph_org.svg" target="_base">
   <rect id="button" ry="5" rx="5" y="6" x="6" height="38" width="38"
        fill="#f2f5e9" fill-opacity="0.5" stroke="#606060" stroke-width="1.0"/>
   <path id="arrow"
     d="M 11.500037,31.436501 C 11.940474,20.09759 22.043105,11.32322 32.158766,21.979434 L 37.068811,17.246167 C 37.068811,17.246167 37.088388,32 37.088388,32 L 22.160133,31.978069 C 22.160133,31.978069 26.997745,27.140456 26.997745,27.140456 C 18.528582,18.264221 13.291696,25.230495 11.500037,31.436501 z"
     style="fill:#404040;"/>
  </a>
 </g>
</svg>

<style type='text/css'>
<![CDATA[
[data-mouse-over-selected='false'] { opacity: 0.7; }
[data-mouse-over-selected='true']  { opacity: 1.0; }
]]>
</style>
<script type="application/ecmascript"><![CDATA[
document.addEventListener('DOMContentLoaded', (event) => {
  highlightEdges();
  highlightAdjacentNodes();
});
]]></script>
</svg>
