<?xml version="1.0" encoding="UTF-8" standalone="no"?>
<!DOCTYPE svg PUBLIC "-//W3C//DTD SVG 1.1//EN"
 "http://www.w3.org/Graphics/SVG/1.1/DTD/svg11.dtd">
<!-- Generated by graphviz version 10.0.1 (20240210.2158)
 -->
<!-- Title: ml::model::hierarchical_results_detail::SNode Pages: 1 -->
<!--zoomable 174 -->

<svg id="main" version="1.1" xmlns="http://www.w3.org/2000/svg" xmlns:xlink="http://www.w3.org/1999/xlink" xml:space="preserve" onload="init(evt)">
<style type="text/css"><![CDATA[
.node, .edge {opacity: 0.7;}
.node.selected, .edge.selected {opacity: 1;}
.edge:hover path { stroke: red; }
.edge:hover polygon { stroke: red; fill: red; }
]]></style>

<defs>
  <circle id="rim" cx="0" cy="0" r="7"/>
  <circle id="rim2" cx="0" cy="0" r="3.5"/>
  <g id="zoomPlus">
    <use xlink:href="#rim" fill="#404040"><set attributeName="fill" to="#808080" begin="zoomplus.mouseover" end="zoomplus.mouseout"/></use>
    <path d="M-4,0h8M0,-4v8" fill="none" stroke="white" stroke-width="1.5" pointer-events="none"/>
  </g>
  <g id="zoomMin">
    <use xlink:href="#rim" fill="#404040"><set attributeName="fill" to="#808080" begin="zoomminus.mouseover" end="zoomminus.mouseout"/></use>
    <path d="M-4,0h8" fill="none" stroke="white" stroke-width="1.5" pointer-events="none"/>
  </g>
  <g id="arrowUp" transform="translate(30 24)">
    <use xlink:href="#rim"/>
    <path pointer-events="none" fill="none" stroke="white" stroke-width="1.5" d="M0,-3.0v7 M-2.5,-0.5L0,-3.0L2.5,-0.5"/>
  </g>
  <g id="arrowRight" transform="rotate(90) translate(36 -43)">
    <use xlink:href="#rim"/>
    <path pointer-events="none" fill="none" stroke="white" stroke-width="1.5" d="M0,-3.0v7 M-2.5,-0.5L0,-3.0L2.5,-0.5"/>
  </g>
  <g id="arrowDown" transform="rotate(180) translate(-30 -48)">
    <use xlink:href="#rim"/>
    <path pointer-events="none" fill="none" stroke="white" stroke-width="1.5" d="M0,-3.0v7 M-2.5,-0.5L0,-3.0L2.5,-0.5"/>
  </g>
  <g id="arrowLeft" transform="rotate(270) translate(-36 17)">
    <use xlink:href="#rim"/>
    <path pointer-events="none" fill="none" stroke="white" stroke-width="1.5" d="M0,-3.0v7 M-2.5,-0.5L0,-3.0L2.5,-0.5"/>
  </g>
  <g id="resetDef">
    <use xlink:href="#rim2" fill="#404040"><set attributeName="fill" to="#808080" begin="reset.mouseover" end="reset.mouseout"/></use>
  </g>
</defs>
<script type="application/ecmascript">
var viewWidth = 889;
var viewHeight = 174;
var sectionId = 'dynsection-0';
</script>
<script type="application/ecmascript" xlink:href="../../svg.min.js"/>
<svg id="graph" class="graph">
<g id="viewport">
<title>ml::model::hierarchical_results_detail::SNode</title>
<!-- Node1 -->
<g id="Node000001" class="node">
<title>Node1</title>
<g id="a_Node000001"><a xlink:title="A node of the hierarchical results tree.">
<polygon fill="#999999" stroke="#666666" points="881,-86.5 766,-86.5 766,-56 881,-56 881,-86.5"/>
<text text-anchor="start" x="774" y="-73" font-family="Helvetica,sans-Serif" font-size="10.00">ml::model::hierarchical</text>
<text text-anchor="middle" x="823.5" y="-61.75" font-family="Helvetica,sans-Serif" font-size="10.00">_results_detail::SNode</text>
</a>
</g>
</g>
<!-- Node1&#45;&gt;Node1 -->
<g id="edge1_Node000001_Node000001" class="edge">
<title>Node1&#45;&gt;Node1</title>
<g id="a_edge1_Node000001_Node000001"><a xlink:title=" ">
<path fill="none" stroke="#9a32cd" stroke-dasharray="5,2" d="M802.16,-98.2C805.65,-101.97 812.76,-104.5 823.5,-104.5 843.13,-104.5 850.65,-96.06 846.05,-86.99"/>
<polygon fill="#9a32cd" stroke="#9a32cd" points="805.66,-98.06 801.11,-88.49 798.71,-98.81 805.66,-98.06"/>
</a>
</g>
<text text-anchor="middle" x="823.5" y="-106.25" font-family="Helvetica,sans-Serif" font-size="10.00" fill="grey"> s_Parent</text>
</g>
<!-- Node2 -->
<g id="Node000002" class="node">
<title>Node2</title>
<g id="a_Node000002"><a xlink:href="../../d6/de7/structml_1_1model_1_1hierarchical__results__detail_1_1_s_result_spec.html" target="_top" xlink:title="The data fully describing a result node.">
<polygon fill="white" stroke="#666666" points="617.12,-141.5 474.38,-141.5 474.38,-111 617.12,-111 617.12,-141.5"/>
<text text-anchor="start" x="482.38" y="-128" font-family="Helvetica,sans-Serif" font-size="10.00">ml::model::hierarchical</text>
<text text-anchor="middle" x="545.75" y="-116.75" font-family="Helvetica,sans-Serif" font-size="10.00">_results_detail::SResultSpec</text>
</a>
</g>
</g>
<!-- Node2&#45;&gt;Node1 -->
<g id="edge2_Node000001_Node000002" class="edge">
<title>Node2&#45;&gt;Node1</title>
<g id="a_edge2_Node000001_Node000002"><a xlink:title=" ">
<path fill="none" stroke="#9a32cd" stroke-dasharray="5,2" d="M628.64,-110.02C665.18,-102.77 708.75,-94.1 748,-86.25 753.69,-85.11 759.63,-83.92 765.56,-82.73"/>
<polygon fill="#9a32cd" stroke="#9a32cd" points="628.15,-106.55 619.03,-111.93 629.52,-113.42 628.15,-106.55"/>
</a>
</g>
<text text-anchor="middle" x="696.25" y="-107" font-family="Helvetica,sans-Serif" font-size="10.00" fill="grey"> s_Spec</text>
</g>
<!-- Node3 -->
<g id="Node000003" class="node">
<title>Node3</title>
<g id="a_Node000003"><a xlink:href="../../d6/de8/classml_1_1core_1_1_c_small_vector.html" target="_top" xlink:title=" ">
<polygon fill="white" stroke="#666666" points="279.75,-165.5 161.75,-165.5 161.75,-135 279.75,-135 279.75,-165.5"/>
<text text-anchor="start" x="169.75" y="-152" font-family="Helvetica,sans-Serif" font-size="10.00">ml::core::CSmallVector</text>
<text text-anchor="middle" x="220.75" y="-140.75" font-family="Helvetica,sans-Serif" font-size="10.00">&lt; std::string, 1 &gt;</text>
</a>
</g>
</g>
<!-- Node3&#45;&gt;Node2 -->
<g id="edge3_Node000002_Node000003" class="edge">
<title>Node3&#45;&gt;Node2</title>
<g id="a_edge3_Node000002_Node000003"><a xlink:title=" ">
<path fill="none" stroke="#9a32cd" stroke-dasharray="5,2" d="M291.43,-145.07C345.38,-141.06 419.8,-135.53 474.02,-131.51"/>
<polygon fill="#9a32cd" stroke="#9a32cd" points="291.47,-141.56 281.75,-145.79 291.98,-148.54 291.47,-141.56"/>
</a>
</g>
<text text-anchor="middle" x="377.25" y="-145" font-family="Helvetica,sans-Serif" font-size="10.00" fill="grey"> s_ScheduledEventDescriptions</text>
</g>
<!-- Node4 -->
<g id="Node000004" class="node">
<title>Node4</title>
<g id="a_Node000004"><a xlink:title=" ">
<polygon fill="white" stroke="#666666" points="115,-140.5 0,-140.5 0,-110 115,-110 115,-140.5"/>
<text text-anchor="start" x="8" y="-127" font-family="Helvetica,sans-Serif" font-size="10.00">boost::container::small</text>
<text text-anchor="middle" x="57.5" y="-115.75" font-family="Helvetica,sans-Serif" font-size="10.00">_vector&lt; T, N &gt;</text>
</a>
</g>
</g>
<!-- Node4&#45;&gt;Node3 -->
<g id="edge4_Node000003_Node000004" class="edge">
<title>Node4&#45;&gt;Node3</title>
<g id="a_edge4_Node000003_Node000004"><a xlink:title=" ">
<path fill="none" stroke="#63b8ff" d="M126.4,-135.78C138.07,-137.59 150.11,-139.45 161.51,-141.22"/>
<polygon fill="#63b8ff" stroke="#63b8ff" points="127.26,-132.37 116.85,-134.3 126.19,-139.29 127.26,-132.37"/>
</a>
</g>
</g>
<!-- Node6 -->
<g id="Node000006" class="node">
<title>Node6</title>
<g id="a_Node000006"><a xlink:href="../../d6/de8/classml_1_1core_1_1_c_small_vector.html" target="_top" xlink:title=" ">
<polygon fill="white" stroke="#666666" points="287.25,-116.5 154.25,-116.5 154.25,-86 287.25,-86 287.25,-116.5"/>
<text text-anchor="start" x="162.25" y="-103" font-family="Helvetica,sans-Serif" font-size="10.00">ml::core::CSmallVector</text>
<text text-anchor="middle" x="220.75" y="-91.75" font-family="Helvetica,sans-Serif" font-size="10.00">&lt; SAttributeProbability, 1 &gt;</text>
</a>
</g>
</g>
<!-- Node4&#45;&gt;Node6 -->
<g id="edge7_Node000006_Node000004" class="edge">
<title>Node4&#45;&gt;Node6</title>
<g id="a_edge7_Node000006_Node000004"><a xlink:title=" ">
<path fill="none" stroke="#63b8ff" d="M126.6,-115.11C135.6,-113.78 144.81,-112.4 153.77,-111.07"/>
<polygon fill="#63b8ff" stroke="#63b8ff" points="126.22,-111.63 116.85,-116.57 127.25,-118.56 126.22,-111.63"/>
</a>
</g>
</g>
<!-- Node5 -->
<g id="Node000005" class="node">
<title>Node5</title>
<g id="a_Node000005"><a xlink:href="../../df/d20/structml_1_1model_1_1_s_annotated_probability.html" target="_top" xlink:title="A collection of data describing the result of a model probability calculation.">
<polygon fill="white" stroke="#666666" points="626.5,-80.88 465,-80.88 465,-61.62 626.5,-61.62 626.5,-80.88"/>
<text text-anchor="middle" x="545.75" y="-67.38" font-family="Helvetica,sans-Serif" font-size="10.00">ml::model::SAnnotatedProbability</text>
</a>
</g>
</g>
<!-- Node5&#45;&gt;Node1 -->
<g id="edge5_Node000001_Node000005" class="edge">
<title>Node5&#45;&gt;Node1</title>
<g id="a_edge5_Node000001_Node000005"><a xlink:title=" ">
<path fill="none" stroke="#9a32cd" stroke-dasharray="5,2" d="M638.29,-71.25C680.43,-71.25 729.1,-71.25 765.83,-71.25"/>
<polygon fill="#9a32cd" stroke="#9a32cd" points="638.39,-67.75 628.39,-71.25 638.39,-74.75 638.39,-67.75"/>
</a>
</g>
<text text-anchor="middle" x="696.25" y="-73" font-family="Helvetica,sans-Serif" font-size="10.00" fill="grey"> s_AnnotatedProbability</text>
</g>
<!-- Node6&#45;&gt;Node5 -->
<g id="edge6_Node000005_Node000006" class="edge">
<title>Node6&#45;&gt;Node5</title>
<g id="a_edge6_Node000005_Node000006"><a xlink:title=" ">
<path fill="none" stroke="#9a32cd" stroke-dasharray="5,2" d="M298.9,-94.08C348.9,-89.44 413.9,-83.4 464.5,-78.7"/>
<polygon fill="#9a32cd" stroke="#9a32cd" points="298.64,-90.59 289.01,-95 299.29,-97.56 298.64,-90.59"/>
</a>
</g>
<text text-anchor="middle" x="377.25" y="-94" font-family="Helvetica,sans-Serif" font-size="10.00" fill="grey"> s_AttributeProbabilities</text>
</g>
<!-- Node7 -->
<g id="Node000007" class="node">
<title>Node7</title>
<g id="a_Node000007"><a xlink:href="../../d6/d9a/classml_1_1model__t_1_1_c_result_type.html" target="_top" xlink:title="Describes the result type.">
<polygon fill="white" stroke="#666666" points="285.75,-67.88 155.75,-67.88 155.75,-48.62 285.75,-48.62 285.75,-67.88"/>
<text text-anchor="middle" x="220.75" y="-54.38" font-family="Helvetica,sans-Serif" font-size="10.00">ml::model_t::CResultType</text>
</a>
</g>
</g>
<!-- Node7&#45;&gt;Node5 -->
<g id="edge8_Node000005_Node000007" class="edge">
<title>Node7&#45;&gt;Node5</title>
<g id="a_edge8_Node000005_Node000007"><a xlink:title=" ">
<path fill="none" stroke="#9a32cd" stroke-dasharray="5,2" d="M297.29,-58.65C341.04,-59.19 397.16,-60.37 447,-63 452.78,-63.3 458.75,-63.67 464.76,-64.09"/>
<polygon fill="#9a32cd" stroke="#9a32cd" points="297.42,-55.16 287.38,-58.54 297.34,-62.16 297.42,-55.16"/>
</a>
</g>
<text text-anchor="middle" x="377.25" y="-64" font-family="Helvetica,sans-Serif" font-size="10.00" fill="grey"> s_ResultType</text>
</g>
<!-- Node8 -->
<g id="Node000008" class="node">
<title>Node8</title>
<g id="a_Node000008"><a xlink:href="../../dc/d00/structml_1_1maths_1_1common_1_1_s_anomaly_score_explanation.html" target="_top" xlink:title="Describes the impact of different factors on the anomaly score.">
<polygon fill="white" stroke="#666666" points="289.5,-30.5 152,-30.5 152,0 289.5,0 289.5,-30.5"/>
<text text-anchor="start" x="160" y="-17" font-family="Helvetica,sans-Serif" font-size="10.00">ml::maths::common::</text>
<text text-anchor="middle" x="220.75" y="-5.75" font-family="Helvetica,sans-Serif" font-size="10.00">SAnomalyScoreExplanation</text>
</a>
</g>
</g>
<!-- Node8&#45;&gt;Node5 -->
<g id="edge9_Node000005_Node000008" class="edge">
<title>Node8&#45;&gt;Node5</title>
<g id="a_edge9_Node000005_Node000008"><a xlink:title=" ">
<path fill="none" stroke="#9a32cd" stroke-dasharray="5,2" d="M301.04,-18.21C344.86,-21.52 399.81,-28.47 447,-43 455.6,-45.65 456.56,-49.13 465,-52.25 474.34,-55.71 484.54,-58.69 494.43,-61.21"/>
<polygon fill="#9a32cd" stroke="#9a32cd" points="301.3,-14.72 291.08,-17.51 300.81,-21.7 301.3,-14.72"/>
</a>
</g>
<text text-anchor="middle" x="377.25" y="-44" font-family="Helvetica,sans-Serif" font-size="10.00" fill="grey"> s_AnomalyScoreExplanation</text>
</g>
<!-- Node9 -->
<g id="Node000009" class="node">
<title>Node9</title>
<g id="a_Node000009"><a xlink:href="../../da/d88/classml_1_1model_1_1_c_anomaly_detector_model.html" target="_top" xlink:title="The model interface.">
<polygon fill="white" stroke="#666666" points="619.75,-43.5 471.75,-43.5 471.75,-13 619.75,-13 619.75,-43.5"/>
<text text-anchor="start" x="479.75" y="-30" font-family="Helvetica,sans-Serif" font-size="10.00">ml::model::CAnomalyDetector</text>
<text text-anchor="middle" x="545.75" y="-18.75" font-family="Helvetica,sans-Serif" font-size="10.00">Model</text>
</a>
</g>
</g>
<!-- Node9&#45;&gt;Node1 -->
<g id="edge10_Node000001_Node000009" class="edge">
<title>Node9&#45;&gt;Node1</title>
<g id="a_edge10_Node000001_Node000009"><a xlink:title=" ">
<path fill="none" stroke="#9a32cd" stroke-dasharray="5,2" d="M631.04,-38.63C667.14,-43.4 709.72,-49.45 748,-56 753.73,-56.98 759.68,-58.07 765.63,-59.21"/>
<polygon fill="#9a32cd" stroke="#9a32cd" points="631.93,-35.22 621.56,-37.39 631.02,-42.16 631.93,-35.22"/>
</a>
</g>
<text text-anchor="middle" x="696.25" y="-57" font-family="Helvetica,sans-Serif" font-size="10.00" fill="grey"> s_Model</text>
</g>
</g>
</svg>

<g id="navigator" transform="translate(0 0)" fill="#404254">
  <rect fill="#f2f5e9" fill-opacity="0.5" stroke="#606060" stroke-width=".5" x="0" y="0" width="60" height="60"/>
  <use id="zoomplus" xlink:href="#zoomPlus" x="17" y="9" onmousedown="handleZoom(evt,'in')"/>
  <use id="zoomminus" xlink:href="#zoomMin" x="42" y="9" onmousedown="handleZoom(evt,'out')"/>
  <use id="reset" xlink:href="#resetDef" x="30" y="36" onmousedown="handleReset()"/>
   <use id="arrowup" xlink:href="#arrowUp" x="0" y="0" onmousedown="handlePan(0,-1)"/>
  <use id="arrowright" xlink:href="#arrowRight" x="0" y="0" onmousedown="handlePan(1,0)"/>
  <use id="arrowdown" xlink:href="#arrowDown" x="0" y="0" onmousedown="handlePan(0,1)"/>
  <use id="arrowleft" xlink:href="#arrowLeft" x="0" y="0" onmousedown="handlePan(-1,0)"/>
</g>
<svg viewBox="0 0 15 15" width="100%" height="30px" preserveAspectRatio="xMaxYMin meet">
 <g id="arrow_out" transform="scale(0.3 0.3)">
  <a xlink:href="structml_1_1model_1_1hierarchical__results__detail_1_1_s_node__coll__graph_org.svg" target="_base">
   <rect id="button" ry="5" rx="5" y="6" x="6" height="38" width="38"
        fill="#f2f5e9" fill-opacity="0.5" stroke="#606060" stroke-width="1.0"/>
   <path id="arrow"
     d="M 11.500037,31.436501 C 11.940474,20.09759 22.043105,11.32322 32.158766,21.979434 L 37.068811,17.246167 C 37.068811,17.246167 37.088388,32 37.088388,32 L 22.160133,31.978069 C 22.160133,31.978069 26.997745,27.140456 26.997745,27.140456 C 18.528582,18.264221 13.291696,25.230495 11.500037,31.436501 z"
     style="fill:#404040;"/>
  </a>
 </g>
</svg>

<style type='text/css'>
<![CDATA[
[data-mouse-over-selected='false'] { opacity: 0.7; }
[data-mouse-over-selected='true']  { opacity: 1.0; }
]]>
</style>
<script type="application/ecmascript"><![CDATA[
document.addEventListener('DOMContentLoaded', (event) => {
  highlightEdges();
  highlightAdjacentNodes();
});
]]></script>
</svg>
