<?xml version="1.0" encoding="UTF-8" standalone="no"?>
<!DOCTYPE svg PUBLIC "-//W3C//DTD SVG 1.1//EN"
 "http://www.w3.org/Graphics/SVG/1.1/DTD/svg11.dtd">
<!-- Generated by graphviz version 10.0.1 (20240210.2158)
 -->
<!-- Title: ml::model::CSampleGatherer::print Pages: 1 -->
<svg width="493pt" height="186pt"
 viewBox="0.00 0.00 492.50 185.50" xmlns="http://www.w3.org/2000/svg" xmlns:xlink="http://www.w3.org/1999/xlink">
<g id="graph0" class="graph" transform="scale(1 1) rotate(0) translate(4 181.5)">
<title>ml::model::CSampleGatherer::print</title>
<!-- Node1 -->
<g id="Node000001" class="node">
<title>Node1</title>
<g id="a_Node000001"><a xlink:title="Print this gatherer for debug.">
<polygon fill="#999999" stroke="#666666" points="142.75,-103.5 0,-103.5 0,-73 142.75,-73 142.75,-103.5"/>
<text text-anchor="start" x="8" y="-90" font-family="Helvetica,sans-Serif" font-size="10.00">ml::model::CSampleGatherer</text>
<text text-anchor="middle" x="71.38" y="-78.75" font-family="Helvetica,sans-Serif" font-size="10.00">::print</text>
</a>
</g>
</g>
<!-- Node2 -->
<g id="Node000002" class="node">
<title>Node2</title>
<g id="a_Node000002"><a xlink:href="../../d3/d6e/classml_1_1model_1_1_c_data_classifier.html#a2512b4dff7a14110b893430ef9ca7bcf" target="_top" xlink:title="Check if the values are all integers.">
<polygon fill="white" stroke="#666666" points="313.25,-177.5 178.75,-177.5 178.75,-147 313.25,-147 313.25,-177.5"/>
<text text-anchor="start" x="186.75" y="-164" font-family="Helvetica,sans-Serif" font-size="10.00">ml::model::CDataClassifier</text>
<text text-anchor="middle" x="246" y="-152.75" font-family="Helvetica,sans-Serif" font-size="10.00">::isInteger</text>
</a>
</g>
</g>
<!-- Node1&#45;&gt;Node2 -->
<g id="edge1_Node000001_Node000002" class="edge">
<title>Node1&#45;&gt;Node2</title>
<g id="a_edge1_Node000001_Node000002"><a xlink:title=" ">
<path fill="none" stroke="#63b8ff" d="M104.7,-103.86C125.65,-113.8 153.61,-126.73 178.75,-137.25 182.84,-138.96 187.1,-140.69 191.39,-142.39"/>
<polygon fill="#63b8ff" stroke="#63b8ff" points="190.06,-145.63 200.65,-146 192.6,-139.11 190.06,-145.63"/>
</a>
</g>
</g>
<!-- Node3 -->
<g id="Node000003" class="node">
<title>Node3</title>
<g id="a_Node000003"><a xlink:href="../../d3/d6e/classml_1_1model_1_1_c_data_classifier.html#a13f98651d1e94c14420b79f4a2b11f23" target="_top" xlink:title="Check if the values are all positive.">
<polygon fill="white" stroke="#666666" points="313.25,-128.5 178.75,-128.5 178.75,-98 313.25,-98 313.25,-128.5"/>
<text text-anchor="start" x="186.75" y="-115" font-family="Helvetica,sans-Serif" font-size="10.00">ml::model::CDataClassifier</text>
<text text-anchor="middle" x="246" y="-103.75" font-family="Helvetica,sans-Serif" font-size="10.00">::isNonNegative</text>
</a>
</g>
</g>
<!-- Node1&#45;&gt;Node3 -->
<g id="edge2_Node000001_Node000003" class="edge">
<title>Node1&#45;&gt;Node3</title>
<g id="a_edge2_Node000001_Node000003"><a xlink:title=" ">
<path fill="none" stroke="#63b8ff" d="M143.09,-98.49C151,-99.64 159.09,-100.81 167.08,-101.97"/>
<polygon fill="#63b8ff" stroke="#63b8ff" points="166.4,-105.4 176.79,-103.37 167.4,-98.48 166.4,-105.4"/>
</a>
</g>
</g>
<!-- Node4 -->
<g id="Node000004" class="node">
<title>Node4</title>
<g id="a_Node000004"><a xlink:href="../../d0/de2/classml_1_1model_1_1_c_bucket_queue.html#adda705fe2b338be1bac74ce58a3b91fe" target="_top" xlink:title="Prints the contents of the queue.">
<polygon fill="white" stroke="#666666" points="311.75,-79.5 180.25,-79.5 180.25,-49 311.75,-49 311.75,-79.5"/>
<text text-anchor="start" x="188.25" y="-66" font-family="Helvetica,sans-Serif" font-size="10.00">ml::model::CBucketQueue</text>
<text text-anchor="middle" x="246" y="-54.75" font-family="Helvetica,sans-Serif" font-size="10.00">::print</text>
</a>
</g>
</g>
<!-- Node1&#45;&gt;Node4 -->
<g id="edge3_Node000001_Node000004" class="edge">
<title>Node1&#45;&gt;Node4</title>
<g id="a_edge3_Node000001_Node000004"><a xlink:title=" ">
<path fill="none" stroke="#63b8ff" d="M143.09,-78.42C151.57,-77.24 160.26,-76.03 168.81,-74.84"/>
<polygon fill="#63b8ff" stroke="#63b8ff" points="169.03,-78.35 178.45,-73.5 168.06,-71.41 169.03,-78.35"/>
</a>
</g>
</g>
<!-- Node6 -->
<g id="Node000006" class="node">
<title>Node6</title>
<g id="a_Node000006"><a xlink:href="../../db/de5/classml_1_1model_1_1_c_sample_queue.html#a96b861c6c587f8f9d767e2ff0176a7a5" target="_top" xlink:title="Prints the contents of the queue.">
<polygon fill="white" stroke="#666666" points="312.88,-30.5 179.12,-30.5 179.12,0 312.88,0 312.88,-30.5"/>
<text text-anchor="start" x="187.12" y="-17" font-family="Helvetica,sans-Serif" font-size="10.00">ml::model::CSampleQueue</text>
<text text-anchor="middle" x="246" y="-5.75" font-family="Helvetica,sans-Serif" font-size="10.00">::print</text>
</a>
</g>
</g>
<!-- Node1&#45;&gt;Node6 -->
<g id="edge5_Node000001_Node000006" class="edge">
<title>Node1&#45;&gt;Node6</title>
<g id="a_edge5_Node000001_Node000006"><a xlink:title=" ">
<path fill="none" stroke="#63b8ff" d="M105.68,-72.57C126.53,-62.92 154.04,-50.48 178.75,-40.25 182.85,-38.55 187.11,-36.84 191.41,-35.14"/>
<polygon fill="#63b8ff" stroke="#63b8ff" points="192.62,-38.43 200.67,-31.54 190.08,-31.9 192.62,-38.43"/>
</a>
</g>
</g>
<!-- Node5 -->
<g id="Node000005" class="node">
<title>Node5</title>
<g id="a_Node000005"><a xlink:href="../../d2/d5e/classml_1_1core_1_1_c_container_printer.html#aff22734ba0c60a2f359a27b5d004622a" target="_top" xlink:title="Fallback print.">
<polygon fill="white" stroke="#666666" points="484.5,-54.5 349.25,-54.5 349.25,-24 484.5,-24 484.5,-54.5"/>
<text text-anchor="start" x="357.25" y="-41" font-family="Helvetica,sans-Serif" font-size="10.00">ml::core::CContainerPrinter</text>
<text text-anchor="middle" x="416.88" y="-29.75" font-family="Helvetica,sans-Serif" font-size="10.00">::print</text>
</a>
</g>
</g>
<!-- Node4&#45;&gt;Node5 -->
<g id="edge4_Node000004_Node000005" class="edge">
<title>Node4&#45;&gt;Node5</title>
<g id="a_edge4_Node000004_Node000005"><a xlink:title=" ">
<path fill="none" stroke="#63b8ff" d="M311.81,-54.66C320.28,-53.4 329.03,-52.11 337.7,-50.82"/>
<polygon fill="#63b8ff" stroke="#63b8ff" points="338.13,-54.3 347.51,-49.37 337.1,-47.37 338.13,-54.3"/>
</a>
</g>
</g>
<!-- Node6&#45;&gt;Node5 -->
<g id="edge6_Node000006_Node000005" class="edge">
<title>Node6&#45;&gt;Node5</title>
<g id="a_edge6_Node000006_Node000005"><a xlink:title=" ">
<path fill="none" stroke="#63b8ff" d="M313.26,-24.67C321.33,-25.81 329.63,-26.99 337.85,-28.16"/>
<polygon fill="#63b8ff" stroke="#63b8ff" points="337.08,-31.59 347.48,-29.53 338.07,-24.66 337.08,-31.59"/>
</a>
</g>
</g>
</g>
</svg>
