<?xml version="1.0" encoding="UTF-8" standalone="no"?>
<!DOCTYPE svg PUBLIC "-//W3C//DTD SVG 1.1//EN"
 "http://www.w3.org/Graphics/SVG/1.1/DTD/svg11.dtd">
<!-- Generated by graphviz version 10.0.1 (20240210.2158)
 -->
<!-- Title: ml::api::CDataFrameTrainBoostedTreeClassifierRunner::inferenceModelDefinition Pages: 1 -->
<!--zoomable 382 -->

<svg id="main" version="1.1" xmlns="http://www.w3.org/2000/svg" xmlns:xlink="http://www.w3.org/1999/xlink" xml:space="preserve" onload="init(evt)">
<style type="text/css"><![CDATA[
.node, .edge {opacity: 0.7;}
.node.selected, .edge.selected {opacity: 1;}
.edge:hover path { stroke: red; }
.edge:hover polygon { stroke: red; fill: red; }
]]></style>

<defs>
  <circle id="rim" cx="0" cy="0" r="7"/>
  <circle id="rim2" cx="0" cy="0" r="3.5"/>
  <g id="zoomPlus">
    <use xlink:href="#rim" fill="#404040"><set attributeName="fill" to="#808080" begin="zoomplus.mouseover" end="zoomplus.mouseout"/></use>
    <path d="M-4,0h8M0,-4v8" fill="none" stroke="white" stroke-width="1.5" pointer-events="none"/>
  </g>
  <g id="zoomMin">
    <use xlink:href="#rim" fill="#404040"><set attributeName="fill" to="#808080" begin="zoomminus.mouseover" end="zoomminus.mouseout"/></use>
    <path d="M-4,0h8" fill="none" stroke="white" stroke-width="1.5" pointer-events="none"/>
  </g>
  <g id="arrowUp" transform="translate(30 24)">
    <use xlink:href="#rim"/>
    <path pointer-events="none" fill="none" stroke="white" stroke-width="1.5" d="M0,-3.0v7 M-2.5,-0.5L0,-3.0L2.5,-0.5"/>
  </g>
  <g id="arrowRight" transform="rotate(90) translate(36 -43)">
    <use xlink:href="#rim"/>
    <path pointer-events="none" fill="none" stroke="white" stroke-width="1.5" d="M0,-3.0v7 M-2.5,-0.5L0,-3.0L2.5,-0.5"/>
  </g>
  <g id="arrowDown" transform="rotate(180) translate(-30 -48)">
    <use xlink:href="#rim"/>
    <path pointer-events="none" fill="none" stroke="white" stroke-width="1.5" d="M0,-3.0v7 M-2.5,-0.5L0,-3.0L2.5,-0.5"/>
  </g>
  <g id="arrowLeft" transform="rotate(270) translate(-36 17)">
    <use xlink:href="#rim"/>
    <path pointer-events="none" fill="none" stroke="white" stroke-width="1.5" d="M0,-3.0v7 M-2.5,-0.5L0,-3.0L2.5,-0.5"/>
  </g>
  <g id="resetDef">
    <use xlink:href="#rim2" fill="#404040"><set attributeName="fill" to="#808080" begin="reset.mouseover" end="reset.mouseout"/></use>
  </g>
</defs>
<script type="application/ecmascript">
var viewWidth = 552;
var viewHeight = 382;
var sectionId = 'dynsection-3';
</script>
<script type="application/ecmascript" xlink:href="../../svg.min.js"/>
<svg id="graph" class="graph">
<g id="viewport">
<title>ml::api::CDataFrameTrainBoostedTreeClassifierRunner::inferenceModelDefinition</title>
<!-- Node1 -->
<g id="Node000001" class="node">
<title>Node1</title>
<g id="a_Node000001"><a xlink:title=" ">
<polygon fill="#999999" stroke="#666666" points="144.25,-281.12 0,-281.12 0,-239.38 144.25,-239.38 144.25,-281.12"/>
<text text-anchor="start" x="8" y="-267.62" font-family="Helvetica,sans-Serif" font-size="10.00">ml::api::CDataFrameTrain</text>
<text text-anchor="start" x="8" y="-256.38" font-family="Helvetica,sans-Serif" font-size="10.00">BoostedTreeClassifierRunner</text>
<text text-anchor="middle" x="72.12" y="-245.12" font-family="Helvetica,sans-Serif" font-size="10.00">::inferenceModelDefinition</text>
</a>
</g>
</g>
<!-- Node2 -->
<g id="Node000002" class="node">
<title>Node2</title>
<g id="a_Node000002"><a xlink:href="../../d9/d8c/classml_1_1api_1_1_c_data_frame_train_boosted_tree_runner.html#acc3b40db273c62478ca23a0efc14c4e6" target="_top" xlink:title="Write the boosted tree and custom processors to builder.">
<polygon fill="white" stroke="#666666" points="326.75,-321.5 188.5,-321.5 188.5,-291 326.75,-291 326.75,-321.5"/>
<text text-anchor="start" x="196.5" y="-308" font-family="Helvetica,sans-Serif" font-size="10.00">ml::api::CDataFrameTrain</text>
<text text-anchor="middle" x="257.62" y="-296.75" font-family="Helvetica,sans-Serif" font-size="10.00">BoostedTreeRunner::accept</text>
</a>
</g>
</g>
<!-- Node1&#45;&gt;Node2 -->
<g id="edge1_Node000001_Node000002" class="edge">
<title>Node1&#45;&gt;Node2</title>
<g id="a_edge1_Node000001_Node000002"><a xlink:title=" ">
<path fill="none" stroke="#63b8ff" d="M144.6,-278.17C157.21,-281.33 170.35,-284.62 183.02,-287.8"/>
<polygon fill="#63b8ff" stroke="#63b8ff" points="181.98,-291.15 192.53,-290.18 183.68,-284.36 181.98,-291.15"/>
</a>
</g>
</g>
<!-- Node5 -->
<g id="Node000005" class="node">
<title>Node5</title>
<g id="a_Node000005"><a xlink:href="../../d9/d8c/classml_1_1api_1_1_c_data_frame_train_boosted_tree_runner.html#ad38582202a6b0a5e186d836c2c5f2a04" target="_top" xlink:title=" ">
<polygon fill="white" stroke="#666666" points="538.88,-275.5 375.88,-275.5 375.88,-245 538.88,-245 538.88,-275.5"/>
<text text-anchor="start" x="383.88" y="-262" font-family="Helvetica,sans-Serif" font-size="10.00">ml::api::CDataFrameTrain</text>
<text text-anchor="middle" x="457.38" y="-250.75" font-family="Helvetica,sans-Serif" font-size="10.00">BoostedTreeRunner::boostedTree</text>
</a>
</g>
</g>
<!-- Node1&#45;&gt;Node5 -->
<g id="edge5_Node000001_Node000005" class="edge">
<title>Node1&#45;&gt;Node5</title>
<g id="a_edge5_Node000001_Node000005"><a xlink:title=" ">
<path fill="none" stroke="#63b8ff" d="M144.31,-260.25C206.32,-260.25 296.61,-260.25 364.14,-260.25"/>
<polygon fill="#63b8ff" stroke="#63b8ff" points="364.11,-263.75 374.11,-260.25 364.11,-256.75 364.11,-263.75"/>
</a>
</g>
</g>
<!-- Node6 -->
<g id="Node000006" class="node">
<title>Node6</title>
<g id="a_Node000006"><a xlink:href="../../d8/d04/classml_1_1api_1_1_c_boosted_tree_inference_model_builder.html#a35f625a159c6ef5f47a3dccba34e9327" target="_top" xlink:title=" ">
<polygon fill="white" stroke="#666666" points="335,-153.5 180.25,-153.5 180.25,-123 335,-123 335,-153.5"/>
<text text-anchor="start" x="188.25" y="-140" font-family="Helvetica,sans-Serif" font-size="10.00">ml::api::CBoostedTreeInference</text>
<text text-anchor="middle" x="257.62" y="-128.75" font-family="Helvetica,sans-Serif" font-size="10.00">ModelBuilder::build</text>
</a>
</g>
</g>
<!-- Node1&#45;&gt;Node6 -->
<g id="edge6_Node000001_Node000006" class="edge">
<title>Node1&#45;&gt;Node6</title>
<g id="a_edge6_Node000001_Node000006"><a xlink:title=" ">
<path fill="none" stroke="#63b8ff" d="M105.09,-239C138.36,-216.88 190.21,-182.41 223.8,-160.08"/>
<polygon fill="#63b8ff" stroke="#63b8ff" points="225.52,-163.13 231.91,-154.68 221.65,-157.3 225.52,-163.13"/>
</a>
</g>
</g>
<!-- Node3 -->
<g id="Node000003" class="node">
<title>Node3</title>
<g id="a_Node000003"><a xlink:href="../../d3/d6d/classml_1_1maths_1_1analytics_1_1_c_boosted_tree.html#af766d3ce9f11fdfcc85cc301e675fdd5" target="_top" xlink:title="Visit this tree trainer.">
<polygon fill="white" stroke="#666666" points="517.5,-373.5 397.25,-373.5 397.25,-343 517.5,-343 517.5,-373.5"/>
<text text-anchor="start" x="405.25" y="-360" font-family="Helvetica,sans-Serif" font-size="10.00">ml::maths::analytics</text>
<text text-anchor="middle" x="457.38" y="-348.75" font-family="Helvetica,sans-Serif" font-size="10.00">::CBoostedTree::accept</text>
</a>
</g>
</g>
<!-- Node2&#45;&gt;Node3 -->
<g id="edge2_Node000002_Node000003" class="edge">
<title>Node2&#45;&gt;Node3</title>
<g id="a_edge2_Node000002_Node000003"><a xlink:title=" ">
<path fill="none" stroke="#63b8ff" d="M318.49,-321.99C339.79,-327.59 363.96,-333.95 386.06,-339.76"/>
<polygon fill="#63b8ff" stroke="#63b8ff" points="385.03,-343.11 395.59,-342.27 386.81,-336.34 385.03,-343.11"/>
</a>
</g>
</g>
<!-- Node4 -->
<g id="Node000004" class="node">
<title>Node4</title>
<g id="a_Node000004"><a xlink:href="../../d8/d04/classml_1_1api_1_1_c_boosted_tree_inference_model_builder.html#a402dd52abad41870d31f2b2cc02887b6" target="_top" xlink:title=" ">
<polygon fill="white" stroke="#666666" points="543.75,-324.5 371,-324.5 371,-294 543.75,-294 543.75,-324.5"/>
<text text-anchor="start" x="379" y="-311" font-family="Helvetica,sans-Serif" font-size="10.00">ml::api::CBoostedTreeInference</text>
<text text-anchor="middle" x="457.38" y="-299.75" font-family="Helvetica,sans-Serif" font-size="10.00">ModelBuilder::addCustomProcessor</text>
</a>
</g>
</g>
<!-- Node2&#45;&gt;Node4 -->
<g id="edge3_Node000002_Node000004" class="edge">
<title>Node2&#45;&gt;Node4</title>
<g id="a_edge3_Node000002_Node000004"><a xlink:title=" ">
<path fill="none" stroke="#63b8ff" d="M327.23,-307.29C337.67,-307.45 348.59,-307.61 359.49,-307.78"/>
<polygon fill="#63b8ff" stroke="#63b8ff" points="359.25,-311.28 369.3,-307.93 359.35,-304.28 359.25,-311.28"/>
</a>
</g>
</g>
<!-- Node2&#45;&gt;Node5 -->
<g id="edge4_Node000002_Node000005" class="edge">
<title>Node2&#45;&gt;Node5</title>
<g id="a_edge4_Node000002_Node000005"><a xlink:title=" ">
<path fill="none" stroke="#63b8ff" d="M326.13,-290.55C342.74,-286.68 360.67,-282.51 377.76,-278.54"/>
<polygon fill="#63b8ff" stroke="#63b8ff" points="378.42,-281.98 387.37,-276.3 376.84,-275.16 378.42,-281.98"/>
</a>
</g>
</g>
<!-- Node7 -->
<g id="Node000007" class="node">
<title>Node7</title>
<g id="a_Node000007"><a xlink:href="../../d3/dc0/classml_1_1api_1_1_c_inference_model_definition.html#a5a4522a3bc86b9ed38dc9952717a15d0" target="_top" xlink:title=" ">
<polygon fill="white" stroke="#666666" points="536.62,-226.5 378.12,-226.5 378.12,-196 536.62,-196 536.62,-226.5"/>
<text text-anchor="start" x="386.12" y="-213" font-family="Helvetica,sans-Serif" font-size="10.00">ml::api::CInferenceModel</text>
<text text-anchor="middle" x="457.38" y="-201.75" font-family="Helvetica,sans-Serif" font-size="10.00">Definition::customPreprocessors</text>
</a>
</g>
</g>
<!-- Node6&#45;&gt;Node7 -->
<g id="edge7_Node000006_Node000007" class="edge">
<title>Node6&#45;&gt;Node7</title>
<g id="a_edge7_Node000006_Node000007"><a xlink:title=" ">
<path fill="none" stroke="#63b8ff" d="M292.14,-153.8C314.26,-163.76 344.04,-176.58 371,-186.25 376.63,-188.27 382.52,-190.25 388.45,-192.16"/>
<polygon fill="#63b8ff" stroke="#63b8ff" points="387.09,-195.4 397.68,-195.05 389.19,-188.72 387.09,-195.4"/>
</a>
</g>
</g>
<!-- Node8 -->
<g id="Node000008" class="node">
<title>Node8</title>
<g id="a_Node000008"><a xlink:href="../../d3/dc0/classml_1_1api_1_1_c_inference_model_definition.html#a517cc5803783f43e494fd30d67583e29" target="_top" xlink:title=" ">
<polygon fill="white" stroke="#666666" points="520.12,-177.5 394.62,-177.5 394.62,-147 520.12,-147 520.12,-177.5"/>
<text text-anchor="start" x="402.62" y="-164" font-family="Helvetica,sans-Serif" font-size="10.00">ml::api::CInferenceModel</text>
<text text-anchor="middle" x="457.38" y="-152.75" font-family="Helvetica,sans-Serif" font-size="10.00">Definition::preprocessors</text>
</a>
</g>
</g>
<!-- Node6&#45;&gt;Node8 -->
<g id="edge8_Node000006_Node000008" class="edge">
<title>Node6&#45;&gt;Node8</title>
<g id="a_edge8_Node000006_Node000008"><a xlink:title=" ">
<path fill="none" stroke="#63b8ff" d="M335.36,-147.56C351.09,-149.47 367.6,-151.48 383.2,-153.37"/>
<polygon fill="#63b8ff" stroke="#63b8ff" points="382.52,-156.81 392.86,-154.54 383.36,-149.86 382.52,-156.81"/>
</a>
</g>
</g>
<!-- Node9 -->
<g id="Node000009" class="node">
<title>Node9</title>
<g id="a_Node000009"><a xlink:href="../../d8/d04/classml_1_1api_1_1_c_boosted_tree_inference_model_builder.html#ab3ba7a6c24107583e8d935cce0ea0091" target="_top" xlink:title=" ">
<polygon fill="white" stroke="#666666" points="540,-128.5 374.75,-128.5 374.75,-98 540,-98 540,-128.5"/>
<text text-anchor="start" x="382.75" y="-115" font-family="Helvetica,sans-Serif" font-size="10.00">ml::api::CBoostedTreeInference</text>
<text text-anchor="middle" x="457.38" y="-103.75" font-family="Helvetica,sans-Serif" font-size="10.00">ModelBuilder::setAggregateOutput</text>
</a>
</g>
</g>
<!-- Node6&#45;&gt;Node9 -->
<g id="edge9_Node000006_Node000009" class="edge">
<title>Node6&#45;&gt;Node9</title>
<g id="a_edge9_Node000006_Node000009"><a xlink:title=" ">
<path fill="none" stroke="#63b8ff" d="M335.36,-128.55C344.47,-127.4 353.84,-126.21 363.15,-125.04"/>
<polygon fill="#63b8ff" stroke="#63b8ff" points="363.46,-128.52 372.94,-123.8 362.58,-121.58 363.46,-128.52"/>
</a>
</g>
</g>
<!-- Node10 -->
<g id="Node000010" class="node">
<title>Node10</title>
<g id="a_Node000010"><a xlink:href="../../d8/d04/classml_1_1api_1_1_c_boosted_tree_inference_model_builder.html#a00792a09ea46e29d2255ca63b719ed85" target="_top" xlink:title=" ">
<polygon fill="white" stroke="#666666" points="534.75,-79.5 380,-79.5 380,-49 534.75,-49 534.75,-79.5"/>
<text text-anchor="start" x="388" y="-66" font-family="Helvetica,sans-Serif" font-size="10.00">ml::api::CBoostedTreeInference</text>
<text text-anchor="middle" x="457.38" y="-54.75" font-family="Helvetica,sans-Serif" font-size="10.00">ModelBuilder::setTargetType</text>
</a>
</g>
</g>
<!-- Node6&#45;&gt;Node10 -->
<g id="edge10_Node000006_Node000010" class="edge">
<title>Node6&#45;&gt;Node10</title>
<g id="a_edge10_Node000006_Node000010"><a xlink:title=" ">
<path fill="none" stroke="#63b8ff" d="M291.62,-122.55C313.78,-112.33 343.79,-99.12 371,-89.25 376.63,-87.21 382.5,-85.21 388.43,-83.3"/>
<polygon fill="#63b8ff" stroke="#63b8ff" points="389.17,-86.73 397.66,-80.39 387.07,-80.05 389.17,-86.73"/>
</a>
</g>
</g>
<!-- Node11 -->
<g id="Node000011" class="node">
<title>Node11</title>
<g id="a_Node000011"><a xlink:href="../../d3/dc0/classml_1_1api_1_1_c_inference_model_definition.html#a72052c57e93733e1e75ec20604df916b" target="_top" xlink:title=" ">
<polygon fill="white" stroke="#666666" points="520.12,-30.5 394.62,-30.5 394.62,0 520.12,0 520.12,-30.5"/>
<text text-anchor="start" x="402.62" y="-17" font-family="Helvetica,sans-Serif" font-size="10.00">ml::api::CInferenceModel</text>
<text text-anchor="middle" x="457.38" y="-5.75" font-family="Helvetica,sans-Serif" font-size="10.00">Definition::trainedModel</text>
</a>
</g>
</g>
<!-- Node6&#45;&gt;Node11 -->
<g id="edge11_Node000006_Node000011" class="edge">
<title>Node6&#45;&gt;Node11</title>
<g id="a_edge11_Node000006_Node000011"><a xlink:title=" ">
<path fill="none" stroke="#63b8ff" d="M272.31,-122.66C292.04,-101.12 330.59,-62.38 371,-40.25 375.11,-38 379.45,-35.93 383.91,-34.03"/>
<polygon fill="#63b8ff" stroke="#63b8ff" points="385.01,-37.35 393.05,-30.45 382.46,-30.84 385.01,-37.35"/>
</a>
</g>
</g>
</g>
</svg>

<g id="navigator" transform="translate(0 0)" fill="#404254">
  <rect fill="#f2f5e9" fill-opacity="0.5" stroke="#606060" stroke-width=".5" x="0" y="0" width="60" height="60"/>
  <use id="zoomplus" xlink:href="#zoomPlus" x="17" y="9" onmousedown="handleZoom(evt,'in')"/>
  <use id="zoomminus" xlink:href="#zoomMin" x="42" y="9" onmousedown="handleZoom(evt,'out')"/>
  <use id="reset" xlink:href="#resetDef" x="30" y="36" onmousedown="handleReset()"/>
   <use id="arrowup" xlink:href="#arrowUp" x="0" y="0" onmousedown="handlePan(0,-1)"/>
  <use id="arrowright" xlink:href="#arrowRight" x="0" y="0" onmousedown="handlePan(1,0)"/>
  <use id="arrowdown" xlink:href="#arrowDown" x="0" y="0" onmousedown="handlePan(0,1)"/>
  <use id="arrowleft" xlink:href="#arrowLeft" x="0" y="0" onmousedown="handlePan(-1,0)"/>
</g>
<svg viewBox="0 0 15 15" width="100%" height="30px" preserveAspectRatio="xMaxYMin meet">
 <g id="arrow_out" transform="scale(0.3 0.3)">
  <a xlink:href="classml_1_1api_1_1_c_data_frame_train_boosted_tree_classifier_runner_a06a0fac72d5e6b08e91a67fe5dd2ffbd_cgraph_org.svg" target="_base">
   <rect id="button" ry="5" rx="5" y="6" x="6" height="38" width="38"
        fill="#f2f5e9" fill-opacity="0.5" stroke="#606060" stroke-width="1.0"/>
   <path id="arrow"
     d="M 11.500037,31.436501 C 11.940474,20.09759 22.043105,11.32322 32.158766,21.979434 L 37.068811,17.246167 C 37.068811,17.246167 37.088388,32 37.088388,32 L 22.160133,31.978069 C 22.160133,31.978069 26.997745,27.140456 26.997745,27.140456 C 18.528582,18.264221 13.291696,25.230495 11.500037,31.436501 z"
     style="fill:#404040;"/>
  </a>
 </g>
</svg>

<style type='text/css'>
<![CDATA[
[data-mouse-over-selected='false'] { opacity: 0.7; }
[data-mouse-over-selected='true']  { opacity: 1.0; }
]]>
</style>
<script type="application/ecmascript"><![CDATA[
document.addEventListener('DOMContentLoaded', (event) => {
  highlightEdges();
  highlightAdjacentNodes();
});
]]></script>
</svg>
