<?xml version="1.0" encoding="UTF-8" standalone="no"?>
<!DOCTYPE svg PUBLIC "-//W3C//DTD SVG 1.1//EN"
 "http://www.w3.org/Graphics/SVG/1.1/DTD/svg11.dtd">
<!-- Generated by graphviz version 10.0.1 (20240210.2158)
 -->
<!-- Title: ml::model::CHierarchicalResults::newLeaf Pages: 1 -->
<!--zoomable 360 -->

<svg id="main" version="1.1" xmlns="http://www.w3.org/2000/svg" xmlns:xlink="http://www.w3.org/1999/xlink" xml:space="preserve" onload="init(evt)">
<style type="text/css"><![CDATA[
.node, .edge {opacity: 0.7;}
.node.selected, .edge.selected {opacity: 1;}
.edge:hover path { stroke: red; }
.edge:hover polygon { stroke: red; fill: red; }
]]></style>

<defs>
  <circle id="rim" cx="0" cy="0" r="7"/>
  <circle id="rim2" cx="0" cy="0" r="3.5"/>
  <g id="zoomPlus">
    <use xlink:href="#rim" fill="#404040"><set attributeName="fill" to="#808080" begin="zoomplus.mouseover" end="zoomplus.mouseout"/></use>
    <path d="M-4,0h8M0,-4v8" fill="none" stroke="white" stroke-width="1.5" pointer-events="none"/>
  </g>
  <g id="zoomMin">
    <use xlink:href="#rim" fill="#404040"><set attributeName="fill" to="#808080" begin="zoomminus.mouseover" end="zoomminus.mouseout"/></use>
    <path d="M-4,0h8" fill="none" stroke="white" stroke-width="1.5" pointer-events="none"/>
  </g>
  <g id="arrowUp" transform="translate(30 24)">
    <use xlink:href="#rim"/>
    <path pointer-events="none" fill="none" stroke="white" stroke-width="1.5" d="M0,-3.0v7 M-2.5,-0.5L0,-3.0L2.5,-0.5"/>
  </g>
  <g id="arrowRight" transform="rotate(90) translate(36 -43)">
    <use xlink:href="#rim"/>
    <path pointer-events="none" fill="none" stroke="white" stroke-width="1.5" d="M0,-3.0v7 M-2.5,-0.5L0,-3.0L2.5,-0.5"/>
  </g>
  <g id="arrowDown" transform="rotate(180) translate(-30 -48)">
    <use xlink:href="#rim"/>
    <path pointer-events="none" fill="none" stroke="white" stroke-width="1.5" d="M0,-3.0v7 M-2.5,-0.5L0,-3.0L2.5,-0.5"/>
  </g>
  <g id="arrowLeft" transform="rotate(270) translate(-36 17)">
    <use xlink:href="#rim"/>
    <path pointer-events="none" fill="none" stroke="white" stroke-width="1.5" d="M0,-3.0v7 M-2.5,-0.5L0,-3.0L2.5,-0.5"/>
  </g>
  <g id="resetDef">
    <use xlink:href="#rim2" fill="#404040"><set attributeName="fill" to="#808080" begin="reset.mouseover" end="reset.mouseout"/></use>
  </g>
</defs>
<script type="application/ecmascript">
var viewWidth = 692;
var viewHeight = 360;
var sectionId = 'dynsection-15';
</script>
<script type="application/ecmascript" xlink:href="../../svg.min.js"/>
<svg id="graph" class="graph">
<g id="viewport">
<title>ml::model::CHierarchicalResults::newLeaf</title>
<!-- Node1 -->
<g id="Node000001" class="node">
<title>Node1</title>
<g id="a_Node000001"><a xlink:title="Create a new leaf node for the simple search simpleSearch.">
<polygon fill="#999999" stroke="#666666" points="683.5,-100.88 559.5,-100.88 559.5,-70.38 683.5,-70.38 683.5,-100.88"/>
<text text-anchor="start" x="567.5" y="-87.38" font-family="Helvetica,sans-Serif" font-size="10.00">ml::model::CHierarchical</text>
<text text-anchor="middle" x="621.5" y="-76.12" font-family="Helvetica,sans-Serif" font-size="10.00">Results::newLeaf</text>
</a>
</g>
</g>
<!-- Node2 -->
<g id="Node000002" class="node">
<title>Node2</title>
<g id="a_Node000002"><a xlink:href="../../d5/df2/classml_1_1model_1_1_c_hierarchical_results.html#a3025adbfa186fbaa313b56be03c1e00d" target="_top" xlink:title=" ">
<polygon fill="white" stroke="#666666" points="508.5,-133.88 382.25,-133.88 382.25,-103.38 508.5,-103.38 508.5,-133.88"/>
<text text-anchor="start" x="390.25" y="-120.38" font-family="Helvetica,sans-Serif" font-size="10.00">ml::model::CHierarchical</text>
<text text-anchor="middle" x="445.38" y="-109.12" font-family="Helvetica,sans-Serif" font-size="10.00">Results::addModelResult</text>
</a>
</g>
</g>
<!-- Node1&#45;&gt;Node2 -->
<g id="edge1_Node000001_Node000002" class="edge">
<title>Node1&#45;&gt;Node2</title>
<g id="a_edge1_Node000001_Node000002"><a xlink:title=" ">
<path fill="none" stroke="#63b8ff" d="M547.89,-99.39C534.96,-101.84 521.59,-104.37 508.97,-106.76"/>
<polygon fill="#63b8ff" stroke="#63b8ff" points="548.45,-102.84 557.62,-97.54 547.15,-95.96 548.45,-102.84"/>
</a>
</g>
</g>
<!-- Node18 -->
<g id="Node000018" class="node">
<title>Node18</title>
<g id="a_Node000018"><a xlink:href="../../d5/df2/classml_1_1model_1_1_c_hierarchical_results.html#a4d84c18ca5918bd2a44398fee2bde7a6" target="_top" xlink:title="Add a dummy result for a simple count detector.">
<polygon fill="white" stroke="#666666" points="523.5,-76.88 367.25,-76.88 367.25,-46.38 523.5,-46.38 523.5,-76.88"/>
<text text-anchor="start" x="375.25" y="-63.38" font-family="Helvetica,sans-Serif" font-size="10.00">ml::model::CHierarchical</text>
<text text-anchor="middle" x="445.38" y="-52.12" font-family="Helvetica,sans-Serif" font-size="10.00">Results::addSimpleCountResult</text>
</a>
</g>
</g>
<!-- Node1&#45;&gt;Node18 -->
<g id="edge17_Node000001_Node000018" class="edge">
<title>Node1&#45;&gt;Node18</title>
<g id="a_edge17_Node000001_Node000018"><a xlink:title=" ">
<path fill="none" stroke="#63b8ff" d="M547.75,-75.6C539.9,-74.52 531.89,-73.41 523.99,-72.32"/>
<polygon fill="#63b8ff" stroke="#63b8ff" points="547.23,-79.06 557.61,-76.96 548.18,-72.12 547.23,-79.06"/>
</a>
</g>
</g>
<!-- Node3 -->
<g id="Node000003" class="node">
<title>Node3</title>
<g id="a_Node000003"><a xlink:href="../../d9/d4c/namespaceanonymous__namespace_02_c_hierarchical_results_test_8cc_03.html#a616ab8aea75ca36383741dbb9cb44a08" target="_top" xlink:title=" ">
<polygon fill="white" stroke="#666666" points="322.62,-256.5 191.88,-256.5 191.88,-214.75 322.62,-214.75 322.62,-256.5"/>
<text text-anchor="start" x="199.88" y="-243" font-family="Helvetica,sans-Serif" font-size="10.00">anonymous_namespace</text>
<text text-anchor="start" x="199.88" y="-231.75" font-family="Helvetica,sans-Serif" font-size="10.00">{CHierarchicalResultsTest</text>
<text text-anchor="middle" x="257.25" y="-220.5" font-family="Helvetica,sans-Serif" font-size="10.00">::cc}::addResult</text>
</a>
</g>
</g>
<!-- Node2&#45;&gt;Node3 -->
<g id="edge2_Node000002_Node000003" class="edge">
<title>Node2&#45;&gt;Node3</title>
<g id="a_edge2_Node000002_Node000003"><a xlink:title=" ">
<path fill="none" stroke="#63b8ff" d="M418.55,-141.7C396.49,-160.6 363.33,-187.14 331.25,-205.62 325.91,-208.7 320.19,-211.63 314.39,-214.35"/>
<polygon fill="#63b8ff" stroke="#63b8ff" points="420.61,-144.55 425.87,-135.36 416.02,-139.27 420.61,-144.55"/>
</a>
</g>
</g>
<!-- Node4 -->
<g id="Node000004" class="node">
<title>Node4</title>
<g id="a_Node000004"><a xlink:href="../../d9/d4c/namespaceanonymous__namespace_02_c_hierarchical_results_test_8cc_03.html#aabd643dc250214fd01d952f600169ad1" target="_top" xlink:title=" ">
<polygon fill="white" stroke="#666666" points="322.62,-196.5 191.88,-196.5 191.88,-154.75 322.62,-154.75 322.62,-196.5"/>
<text text-anchor="start" x="199.88" y="-183" font-family="Helvetica,sans-Serif" font-size="10.00">anonymous_namespace</text>
<text text-anchor="start" x="199.88" y="-171.75" font-family="Helvetica,sans-Serif" font-size="10.00">{CHierarchicalResultsTest</text>
<text text-anchor="middle" x="257.25" y="-160.5" font-family="Helvetica,sans-Serif" font-size="10.00">::cc}::addResult</text>
</a>
</g>
</g>
<!-- Node2&#45;&gt;Node4 -->
<g id="edge3_Node000002_Node000004" class="edge">
<title>Node2&#45;&gt;Node4</title>
<g id="a_edge3_Node000002_Node000004"><a xlink:title=" ">
<path fill="none" stroke="#63b8ff" d="M382.1,-137.7C363.12,-143.51 342.22,-149.91 323.08,-155.77"/>
<polygon fill="#63b8ff" stroke="#63b8ff" points="383.04,-141.07 391.58,-134.79 380.99,-134.38 383.04,-141.07"/>
</a>
</g>
</g>
<!-- Node15 -->
<g id="Node000015" class="node">
<title>Node15</title>
<g id="a_Node000015"><a xlink:href="../../da/d88/classml_1_1model_1_1_c_anomaly_detector_model.html#a1c4afad651751c12256677a9552284e7" target="_top" xlink:title=" ">
<polygon fill="white" stroke="#666666" points="331.25,-61.88 183.25,-61.88 183.25,-31.38 331.25,-31.38 331.25,-61.88"/>
<text text-anchor="start" x="191.25" y="-48.38" font-family="Helvetica,sans-Serif" font-size="10.00">ml::model::CAnomalyDetector</text>
<text text-anchor="middle" x="257.25" y="-37.12" font-family="Helvetica,sans-Serif" font-size="10.00">Model::addResults</text>
</a>
</g>
</g>
<!-- Node2&#45;&gt;Node15 -->
<g id="edge14_Node000002_Node000015" class="edge">
<title>Node2&#45;&gt;Node15</title>
<g id="a_edge14_Node000002_Node000015"><a xlink:title=" ">
<path fill="none" stroke="#63b8ff" d="M397.38,-98.47C369.39,-86.5 338.02,-73.17 331.25,-70.62 323.76,-67.81 315.77,-64.99 307.92,-62.34"/>
<polygon fill="#63b8ff" stroke="#63b8ff" points="395.92,-101.65 406.49,-102.37 398.67,-95.21 395.92,-101.65"/>
</a>
</g>
</g>
<!-- Node16 -->
<g id="Node000016" class="node">
<title>Node16</title>
<g id="a_Node000016"><a xlink:href="../../dc/dfe/_c_hierarchical_results_test_8cc.html#a24dda7913a68cff0d5365fdbaf46848b" target="_top" xlink:title=" ">
<polygon fill="white" stroke="#666666" points="330.88,-136.25 183.62,-136.25 183.62,-117 330.88,-117 330.88,-136.25"/>
<text text-anchor="middle" x="257.25" y="-122.75" font-family="Helvetica,sans-Serif" font-size="10.00">BOOST_AUTO_TEST_CASE</text>
</a>
</g>
</g>
<!-- Node2&#45;&gt;Node16 -->
<g id="edge15_Node000002_Node000016" class="edge">
<title>Node2&#45;&gt;Node16</title>
<g id="a_edge15_Node000002_Node000016"><a xlink:title=" ">
<path fill="none" stroke="#63b8ff" d="M370.64,-121.79C357.66,-122.35 344.16,-122.93 331.2,-123.49"/>
<polygon fill="#63b8ff" stroke="#63b8ff" points="370.53,-125.3 380.37,-121.38 370.23,-118.31 370.53,-125.3"/>
</a>
</g>
</g>
<!-- Node17 -->
<g id="Node000017" class="node">
<title>Node17</title>
<g id="a_Node000017"><a xlink:href="../../dc/dfe/_c_hierarchical_results_test_8cc.html#a6694eb0eb37e536c27368fec75533e95" target="_top" xlink:title=" ">
<polygon fill="white" stroke="#666666" points="330.88,-99.25 183.62,-99.25 183.62,-80 330.88,-80 330.88,-99.25"/>
<text text-anchor="middle" x="257.25" y="-85.75" font-family="Helvetica,sans-Serif" font-size="10.00">BOOST_AUTO_TEST_CASE</text>
</a>
</g>
</g>
<!-- Node2&#45;&gt;Node17 -->
<g id="edge16_Node000002_Node000017" class="edge">
<title>Node2&#45;&gt;Node17</title>
<g id="a_edge16_Node000002_Node000017"><a xlink:title=" ">
<path fill="none" stroke="#63b8ff" d="M370.61,-107.13C354.92,-104.69 338.46,-102.12 323.12,-99.73"/>
<polygon fill="#63b8ff" stroke="#63b8ff" points="369.97,-110.57 380.38,-108.65 371.04,-103.66 369.97,-110.57"/>
</a>
</g>
</g>
<!-- Node5 -->
<g id="Node000005" class="node">
<title>Node5</title>
<g id="a_Node000005"><a xlink:href="../../dc/dfe/_c_hierarchical_results_test_8cc.html#a2e44674b86fd85262f8e562b95b5c6ca" target="_top" xlink:title=" ">
<polygon fill="white" stroke="#666666" points="147.25,-352.25 0,-352.25 0,-333 147.25,-333 147.25,-352.25"/>
<text text-anchor="middle" x="73.62" y="-338.75" font-family="Helvetica,sans-Serif" font-size="10.00">BOOST_AUTO_TEST_CASE</text>
</a>
</g>
</g>
<!-- Node4&#45;&gt;Node5 -->
<g id="edge4_Node000004_Node000005" class="edge">
<title>Node4&#45;&gt;Node5</title>
<g id="a_edge4_Node000004_Node000005"><a xlink:title=" ">
<path fill="none" stroke="#63b8ff" d="M184.66,-204.13C184.18,-204.62 183.71,-205.12 183.25,-205.62 146.1,-246.53 187.3,-286.56 147.25,-324.62 143.95,-327.76 140.2,-330.37 136.18,-332.55"/>
<polygon fill="#63b8ff" stroke="#63b8ff" points="186.67,-207.02 192.01,-197.86 182.13,-201.69 186.67,-207.02"/>
</a>
</g>
</g>
<!-- Node6 -->
<g id="Node000006" class="node">
<title>Node6</title>
<g id="a_Node000006"><a xlink:href="../../dc/dfe/_c_hierarchical_results_test_8cc.html#ac1b0f4f2ea7518792f36a65653d8289b" target="_top" xlink:title=" ">
<polygon fill="white" stroke="#666666" points="147.25,-315.25 0,-315.25 0,-296 147.25,-296 147.25,-315.25"/>
<text text-anchor="middle" x="73.62" y="-301.75" font-family="Helvetica,sans-Serif" font-size="10.00">BOOST_AUTO_TEST_CASE</text>
</a>
</g>
</g>
<!-- Node4&#45;&gt;Node6 -->
<g id="edge5_Node000004_Node000006" class="edge">
<title>Node4&#45;&gt;Node6</title>
<g id="a_edge5_Node000004_Node000006"><a xlink:title=" ">
<path fill="none" stroke="#63b8ff" d="M185.17,-203.83C184.51,-204.42 183.87,-205.01 183.25,-205.62 154.77,-233.43 177.69,-261.98 147.25,-287.62 143.47,-290.81 139.22,-293.44 134.71,-295.62"/>
<polygon fill="#63b8ff" stroke="#63b8ff" points="187.28,-206.62 193.09,-197.76 183.02,-201.06 187.28,-206.62"/>
</a>
</g>
</g>
<!-- Node7 -->
<g id="Node000007" class="node">
<title>Node7</title>
<g id="a_Node000007"><a xlink:href="../../dc/dfe/_c_hierarchical_results_test_8cc.html#a13ce335c2593e03b2ccfa13aadf38c49" target="_top" xlink:title=" ">
<polygon fill="white" stroke="#666666" points="147.25,-278.25 0,-278.25 0,-259 147.25,-259 147.25,-278.25"/>
<text text-anchor="middle" x="73.62" y="-264.75" font-family="Helvetica,sans-Serif" font-size="10.00">BOOST_AUTO_TEST_CASE</text>
</a>
</g>
</g>
<!-- Node4&#45;&gt;Node7 -->
<g id="edge6_Node000004_Node000007" class="edge">
<title>Node4&#45;&gt;Node7</title>
<g id="a_edge6_Node000004_Node000007"><a xlink:title=" ">
<path fill="none" stroke="#63b8ff" d="M187.37,-202.7C185.96,-203.65 184.59,-204.62 183.25,-205.62 162.75,-220.98 168.82,-236.81 147.25,-250.62 142.33,-253.78 136.89,-256.38 131.27,-258.52"/>
<polygon fill="#63b8ff" stroke="#63b8ff" points="189,-205.8 195.74,-197.63 185.38,-199.82 189,-205.8"/>
</a>
</g>
</g>
<!-- Node8 -->
<g id="Node000008" class="node">
<title>Node8</title>
<g id="a_Node000008"><a xlink:href="../../dc/dfe/_c_hierarchical_results_test_8cc.html#aa8b21e6477a16c2deb3fccdea3f90c49" target="_top" xlink:title=" ">
<polygon fill="white" stroke="#666666" points="147.25,-241.25 0,-241.25 0,-222 147.25,-222 147.25,-241.25"/>
<text text-anchor="middle" x="73.62" y="-227.75" font-family="Helvetica,sans-Serif" font-size="10.00">BOOST_AUTO_TEST_CASE</text>
</a>
</g>
</g>
<!-- Node4&#45;&gt;Node8 -->
<g id="edge7_Node000004_Node000008" class="edge">
<title>Node4&#45;&gt;Node8</title>
<g id="a_edge7_Node000004_Node000008"><a xlink:title=" ">
<path fill="none" stroke="#63b8ff" d="M187.75,-200.59C174.39,-205.15 160.44,-209.7 147.25,-213.62 137.91,-216.4 127.81,-219.1 118.2,-221.52"/>
<polygon fill="#63b8ff" stroke="#63b8ff" points="188.57,-204.01 196.88,-197.43 186.28,-197.39 188.57,-204.01"/>
</a>
</g>
</g>
<!-- Node9 -->
<g id="Node000009" class="node">
<title>Node9</title>
<g id="a_Node000009"><a xlink:href="../../dc/dfe/_c_hierarchical_results_test_8cc.html#a4bb1feb91748d39e0942a7cde629f3eb" target="_top" xlink:title=" ">
<polygon fill="white" stroke="#666666" points="147.25,-204.25 0,-204.25 0,-185 147.25,-185 147.25,-204.25"/>
<text text-anchor="middle" x="73.62" y="-190.75" font-family="Helvetica,sans-Serif" font-size="10.00">BOOST_AUTO_TEST_CASE</text>
</a>
</g>
</g>
<!-- Node4&#45;&gt;Node9 -->
<g id="edge8_Node000004_Node000009" class="edge">
<title>Node4&#45;&gt;Node9</title>
<g id="a_edge8_Node000004_Node000009"><a xlink:title=" ">
<path fill="none" stroke="#63b8ff" d="M180,-183.6C169.32,-184.72 158.36,-185.86 147.75,-186.98"/>
<polygon fill="#63b8ff" stroke="#63b8ff" points="180.36,-187.08 189.94,-182.56 179.63,-180.12 180.36,-187.08"/>
</a>
</g>
</g>
<!-- Node10 -->
<g id="Node000010" class="node">
<title>Node10</title>
<g id="a_Node000010"><a xlink:href="../../dc/dfe/_c_hierarchical_results_test_8cc.html#a2232b72afbcf8296c8df09fbe46e4d4c" target="_top" xlink:title=" ">
<polygon fill="white" stroke="#666666" points="147.25,-167.25 0,-167.25 0,-148 147.25,-148 147.25,-167.25"/>
<text text-anchor="middle" x="73.62" y="-153.75" font-family="Helvetica,sans-Serif" font-size="10.00">BOOST_AUTO_TEST_CASE</text>
</a>
</g>
</g>
<!-- Node4&#45;&gt;Node10 -->
<g id="edge9_Node000004_Node000010" class="edge">
<title>Node4&#45;&gt;Node10</title>
<g id="a_edge9_Node000004_Node000010"><a xlink:title=" ">
<path fill="none" stroke="#63b8ff" d="M180,-168.07C169.32,-167.01 158.36,-165.92 147.75,-164.87"/>
<polygon fill="#63b8ff" stroke="#63b8ff" points="179.65,-171.55 189.94,-169.05 180.34,-164.58 179.65,-171.55"/>
</a>
</g>
</g>
<!-- Node11 -->
<g id="Node000011" class="node">
<title>Node11</title>
<g id="a_Node000011"><a xlink:href="../../dc/dfe/_c_hierarchical_results_test_8cc.html#afe0cf637be3abb876f9cc9cbcd62a63c" target="_top" xlink:title=" ">
<polygon fill="white" stroke="#666666" points="147.25,-130.25 0,-130.25 0,-111 147.25,-111 147.25,-130.25"/>
<text text-anchor="middle" x="73.62" y="-116.75" font-family="Helvetica,sans-Serif" font-size="10.00">BOOST_AUTO_TEST_CASE</text>
</a>
</g>
</g>
<!-- Node4&#45;&gt;Node11 -->
<g id="edge10_Node000004_Node000011" class="edge">
<title>Node4&#45;&gt;Node11</title>
<g id="a_edge10_Node000004_Node000011"><a xlink:title=" ">
<path fill="none" stroke="#63b8ff" d="M185.72,-150.72C172.97,-146.49 159.76,-142.29 147.25,-138.62 137.78,-135.85 127.53,-133.13 117.8,-130.69"/>
<polygon fill="#63b8ff" stroke="#63b8ff" points="184.26,-153.92 194.85,-153.78 186.48,-147.28 184.26,-153.92"/>
</a>
</g>
</g>
<!-- Node12 -->
<g id="Node000012" class="node">
<title>Node12</title>
<g id="a_Node000012"><a xlink:href="../../dc/dfe/_c_hierarchical_results_test_8cc.html#a5c25dc64e04261e18404aba166a1cc46" target="_top" xlink:title=" ">
<polygon fill="white" stroke="#666666" points="147.25,-93.25 0,-93.25 0,-74 147.25,-74 147.25,-93.25"/>
<text text-anchor="middle" x="73.62" y="-79.75" font-family="Helvetica,sans-Serif" font-size="10.00">BOOST_AUTO_TEST_CASE</text>
</a>
</g>
</g>
<!-- Node4&#45;&gt;Node12 -->
<g id="edge11_Node000004_Node000012" class="edge">
<title>Node4&#45;&gt;Node12</title>
<g id="a_edge11_Node000004_Node000012"><a xlink:title=" ">
<path fill="none" stroke="#63b8ff" d="M187.38,-148.53C185.97,-147.59 184.59,-146.62 183.25,-145.62 162.95,-130.59 168.6,-115.13 147.25,-101.62 142.2,-98.43 136.62,-95.8 130.86,-93.64"/>
<polygon fill="#63b8ff" stroke="#63b8ff" points="185.4,-151.42 195.78,-153.58 189.01,-145.42 185.4,-151.42"/>
</a>
</g>
</g>
<!-- Node13 -->
<g id="Node000013" class="node">
<title>Node13</title>
<g id="a_Node000013"><a xlink:href="../../dc/dfe/_c_hierarchical_results_test_8cc.html#aeac65144d281f6842d7f75686dd50ccd" target="_top" xlink:title=" ">
<polygon fill="white" stroke="#666666" points="147.25,-56.25 0,-56.25 0,-37 147.25,-37 147.25,-56.25"/>
<text text-anchor="middle" x="73.62" y="-42.75" font-family="Helvetica,sans-Serif" font-size="10.00">BOOST_AUTO_TEST_CASE</text>
</a>
</g>
</g>
<!-- Node4&#45;&gt;Node13 -->
<g id="edge12_Node000004_Node000013" class="edge">
<title>Node4&#45;&gt;Node13</title>
<g id="a_edge12_Node000004_Node000013"><a xlink:title=" ">
<path fill="none" stroke="#63b8ff" d="M185.17,-147.42C184.52,-146.83 183.88,-146.23 183.25,-145.62 155,-118.17 177.44,-89.94 147.25,-64.62 143.47,-61.45 139.21,-58.83 134.7,-56.65"/>
<polygon fill="#63b8ff" stroke="#63b8ff" points="183.03,-150.19 193.1,-153.48 187.28,-144.63 183.03,-150.19"/>
</a>
</g>
</g>
<!-- Node14 -->
<g id="Node000014" class="node">
<title>Node14</title>
<g id="a_Node000014"><a xlink:href="../../dc/dfe/_c_hierarchical_results_test_8cc.html#a06410b296233d223c852e8d5c2ab9fdb" target="_top" xlink:title=" ">
<polygon fill="white" stroke="#666666" points="147.25,-19.25 0,-19.25 0,0 147.25,0 147.25,-19.25"/>
<text text-anchor="middle" x="73.62" y="-5.75" font-family="Helvetica,sans-Serif" font-size="10.00">BOOST_AUTO_TEST_CASE</text>
</a>
</g>
</g>
<!-- Node4&#45;&gt;Node14 -->
<g id="edge13_Node000004_Node000014" class="edge">
<title>Node4&#45;&gt;Node14</title>
<g id="a_edge13_Node000004_Node000014"><a xlink:title=" ">
<path fill="none" stroke="#63b8ff" d="M184.66,-147.12C184.18,-146.63 183.71,-146.13 183.25,-145.62 146.34,-105.08 187.04,-65.35 147.25,-27.62 143.95,-24.5 140.2,-21.89 136.17,-19.71"/>
<polygon fill="#63b8ff" stroke="#63b8ff" points="182.13,-149.56 192.01,-153.38 186.67,-144.23 182.13,-149.56"/>
</a>
</g>
</g>
<!-- Node18&#45;&gt;Node15 -->
<g id="edge18_Node000018_Node000015" class="edge">
<title>Node18&#45;&gt;Node15</title>
<g id="a_edge18_Node000018_Node000015"><a xlink:title=" ">
<path fill="none" stroke="#63b8ff" d="M355.5,-54.46C347.47,-53.82 339.41,-53.17 331.54,-52.53"/>
<polygon fill="#63b8ff" stroke="#63b8ff" points="355.03,-57.94 365.28,-55.25 355.59,-50.96 355.03,-57.94"/>
</a>
</g>
</g>
</g>
</svg>

<g id="navigator" transform="translate(0 0)" fill="#404254">
  <rect fill="#f2f5e9" fill-opacity="0.5" stroke="#606060" stroke-width=".5" x="0" y="0" width="60" height="60"/>
  <use id="zoomplus" xlink:href="#zoomPlus" x="17" y="9" onmousedown="handleZoom(evt,'in')"/>
  <use id="zoomminus" xlink:href="#zoomMin" x="42" y="9" onmousedown="handleZoom(evt,'out')"/>
  <use id="reset" xlink:href="#resetDef" x="30" y="36" onmousedown="handleReset()"/>
   <use id="arrowup" xlink:href="#arrowUp" x="0" y="0" onmousedown="handlePan(0,-1)"/>
  <use id="arrowright" xlink:href="#arrowRight" x="0" y="0" onmousedown="handlePan(1,0)"/>
  <use id="arrowdown" xlink:href="#arrowDown" x="0" y="0" onmousedown="handlePan(0,1)"/>
  <use id="arrowleft" xlink:href="#arrowLeft" x="0" y="0" onmousedown="handlePan(-1,0)"/>
</g>
<svg viewBox="0 0 15 15" width="100%" height="30px" preserveAspectRatio="xMaxYMin meet">
 <g id="arrow_out" transform="scale(0.3 0.3)">
  <a xlink:href="classml_1_1model_1_1_c_hierarchical_results_af0c1c424e1387b17b3fc3d3512e24364_icgraph_org.svg" target="_base">
   <rect id="button" ry="5" rx="5" y="6" x="6" height="38" width="38"
        fill="#f2f5e9" fill-opacity="0.5" stroke="#606060" stroke-width="1.0"/>
   <path id="arrow"
     d="M 11.500037,31.436501 C 11.940474,20.09759 22.043105,11.32322 32.158766,21.979434 L 37.068811,17.246167 C 37.068811,17.246167 37.088388,32 37.088388,32 L 22.160133,31.978069 C 22.160133,31.978069 26.997745,27.140456 26.997745,27.140456 C 18.528582,18.264221 13.291696,25.230495 11.500037,31.436501 z"
     style="fill:#404040;"/>
  </a>
 </g>
</svg>

<style type='text/css'>
<![CDATA[
[data-mouse-over-selected='false'] { opacity: 0.7; }
[data-mouse-over-selected='true']  { opacity: 1.0; }
]]>
</style>
<script type="application/ecmascript"><![CDATA[
document.addEventListener('DOMContentLoaded', (event) => {
  highlightEdges();
  highlightAdjacentNodes();
});
]]></script>
</svg>
