<?xml version="1.0" encoding="UTF-8" standalone="no"?>
<!DOCTYPE svg PUBLIC "-//W3C//DTD SVG 1.1//EN"
 "http://www.w3.org/Graphics/SVG/1.1/DTD/svg11.dtd">
<!-- Generated by graphviz version 10.0.1 (20240210.2158)
 -->
<!-- Title: ml::maths::analytics::anonymous_namespace{CBoostedTreeFactory::cc}::minBoundary Pages: 1 -->
<svg width="468pt" height="149pt"
 viewBox="0.00 0.00 467.75 149.12" xmlns="http://www.w3.org/2000/svg" xmlns:xlink="http://www.w3.org/1999/xlink">
<g id="graph0" class="graph" transform="scale(1 1) rotate(0) translate(4 145.12)">
<title>ml::maths::analytics::anonymous_namespace{CBoostedTreeFactory::cc}::minBoundary</title>
<!-- Node1 -->
<g id="Node000001" class="node">
<title>Node1</title>
<g id="a_Node000001"><a xlink:title=" ">
<polygon fill="#999999" stroke="#666666" points="127.75,-86.38 0,-86.38 0,-33.38 127.75,-33.38 127.75,-86.38"/>
<text text-anchor="start" x="8" y="-72.88" font-family="Helvetica,sans-Serif" font-size="10.00">ml::maths::analytics</text>
<text text-anchor="start" x="8" y="-61.62" font-family="Helvetica,sans-Serif" font-size="10.00">::anonymous_namespace</text>
<text text-anchor="start" x="8" y="-50.38" font-family="Helvetica,sans-Serif" font-size="10.00">{CBoostedTreeFactory::</text>
<text text-anchor="middle" x="63.88" y="-39.12" font-family="Helvetica,sans-Serif" font-size="10.00">cc}::minBoundary</text>
</a>
</g>
</g>
<!-- Node1&#45;&gt;Node1 -->
<g id="edge4_Node000001_Node000001" class="edge">
<title>Node1&#45;&gt;Node1</title>
<g id="a_edge4_Node000001_Node000001"><a xlink:title=" ">
<path fill="none" stroke="#63b8ff" d="M32.99,-86.81C32.33,-96.49 42.62,-104.38 63.88,-104.38 76.49,-104.38 85.25,-101.59 90.14,-97.31"/>
<polygon fill="#63b8ff" stroke="#63b8ff" points="93.33,-98.76 94.15,-88.2 86.92,-95.94 93.33,-98.76"/>
</a>
</g>
</g>
<!-- Node2 -->
<g id="Node000002" class="node">
<title>Node2</title>
<g id="a_Node000002"><a xlink:href="../../df/d22/classml_1_1maths_1_1analytics_1_1_c_boosted_tree_parameter.html#a018e589f30c4fb2d13b9fab64257d766" target="_top" xlink:title="Convert value from its value used by BO for fine tuning.">
<polygon fill="white" stroke="#666666" points="293.75,-119.75 163.75,-119.75 163.75,-78 293.75,-78 293.75,-119.75"/>
<text text-anchor="start" x="171.75" y="-106.25" font-family="Helvetica,sans-Serif" font-size="10.00">ml::maths::analytics</text>
<text text-anchor="start" x="171.75" y="-95" font-family="Helvetica,sans-Serif" font-size="10.00">::CBoostedTreeParameter</text>
<text text-anchor="middle" x="228.75" y="-83.75" font-family="Helvetica,sans-Serif" font-size="10.00">::fromSearchValue</text>
</a>
</g>
</g>
<!-- Node1&#45;&gt;Node2 -->
<g id="edge1_Node000001_Node000002" class="edge">
<title>Node1&#45;&gt;Node2</title>
<g id="a_edge1_Node000001_Node000002"><a xlink:title=" ">
<path fill="none" stroke="#63b8ff" d="M127.85,-74.95C135.85,-76.87 144.1,-78.84 152.27,-80.8"/>
<polygon fill="#63b8ff" stroke="#63b8ff" points="151.32,-84.17 161.86,-83.1 152.95,-77.37 151.32,-84.17"/>
</a>
</g>
</g>
<!-- Node5 -->
<g id="Node000005" class="node">
<title>Node5</title>
<g id="a_Node000005"><a xlink:href="../../df/d22/classml_1_1maths_1_1analytics_1_1_c_boosted_tree_parameter.html#a75b0ce2554d3b35d9f49556aa932010d" target="_top" xlink:title="Get the unscaled value converted to a search value.">
<polygon fill="white" stroke="#666666" points="293.75,-41.75 163.75,-41.75 163.75,0 293.75,0 293.75,-41.75"/>
<text text-anchor="start" x="171.75" y="-28.25" font-family="Helvetica,sans-Serif" font-size="10.00">ml::maths::analytics</text>
<text text-anchor="start" x="171.75" y="-17" font-family="Helvetica,sans-Serif" font-size="10.00">::CBoostedTreeParameter</text>
<text text-anchor="middle" x="228.75" y="-5.75" font-family="Helvetica,sans-Serif" font-size="10.00">::toSearchValue</text>
</a>
</g>
</g>
<!-- Node1&#45;&gt;Node5 -->
<g id="edge5_Node000001_Node000005" class="edge">
<title>Node1&#45;&gt;Node5</title>
<g id="a_edge5_Node000001_Node000005"><a xlink:title=" ">
<path fill="none" stroke="#63b8ff" d="M127.85,-44.8C135.85,-42.88 144.1,-40.91 152.27,-38.95"/>
<polygon fill="#63b8ff" stroke="#63b8ff" points="152.95,-42.38 161.86,-36.65 151.32,-35.58 152.95,-42.38"/>
</a>
</g>
</g>
<!-- Node3 -->
<g id="Node000003" class="node">
<title>Node3</title>
<g id="a_Node000003"><a xlink:href="../../dd/d55/classml_1_1maths_1_1common_1_1_c_tools.html#ad274bfc63fa66be17ff93bd668a4d6a4" target="_top" xlink:title="A version of std::log which is stable across platforms.">
<polygon fill="white" stroke="#666666" points="449.25,-141.12 340.25,-141.12 340.25,-110.62 449.25,-110.62 449.25,-141.12"/>
<text text-anchor="start" x="348.25" y="-127.62" font-family="Helvetica,sans-Serif" font-size="10.00">ml::maths::common::</text>
<text text-anchor="middle" x="394.75" y="-116.38" font-family="Helvetica,sans-Serif" font-size="10.00">CTools::stableExp</text>
</a>
</g>
</g>
<!-- Node2&#45;&gt;Node3 -->
<g id="edge2_Node000002_Node000003" class="edge">
<title>Node2&#45;&gt;Node3</title>
<g id="a_edge2_Node000002_Node000003"><a xlink:title=" ">
<path fill="none" stroke="#63b8ff" d="M294.1,-109.47C305.47,-111.34 317.32,-113.29 328.71,-115.17"/>
<polygon fill="#63b8ff" stroke="#63b8ff" points="327.99,-118.6 338.43,-116.77 329.13,-111.69 327.99,-118.6"/>
</a>
</g>
</g>
<!-- Node4 -->
<g id="Node000004" class="node">
<title>Node4</title>
<g id="a_Node000004"><a xlink:href="../../df/d22/classml_1_1maths_1_1analytics_1_1_c_boosted_tree_parameter.html#a2f705c05556ad6e8e2503e357e24a628" target="_top" xlink:title="Get the value.">
<polygon fill="white" stroke="#666666" points="459.75,-92.75 329.75,-92.75 329.75,-51 459.75,-51 459.75,-92.75"/>
<text text-anchor="start" x="337.75" y="-79.25" font-family="Helvetica,sans-Serif" font-size="10.00">ml::maths::analytics</text>
<text text-anchor="start" x="337.75" y="-68" font-family="Helvetica,sans-Serif" font-size="10.00">::CBoostedTreeParameter</text>
<text text-anchor="middle" x="394.75" y="-56.75" font-family="Helvetica,sans-Serif" font-size="10.00">::value</text>
</a>
</g>
</g>
<!-- Node2&#45;&gt;Node4 -->
<g id="edge3_Node000002_Node000004" class="edge">
<title>Node2&#45;&gt;Node4</title>
<g id="a_edge3_Node000002_Node000004"><a xlink:title=" ">
<path fill="none" stroke="#63b8ff" d="M294.1,-88.28C301.96,-86.99 310.06,-85.65 318.08,-84.33"/>
<polygon fill="#63b8ff" stroke="#63b8ff" points="318.53,-87.81 327.83,-82.73 317.39,-80.9 318.53,-87.81"/>
</a>
</g>
</g>
<!-- Node5&#45;&gt;Node5 -->
<g id="edge6_Node000005_Node000005" class="edge">
<title>Node5&#45;&gt;Node5</title>
<g id="a_edge6_Node000005_Node000005"><a xlink:title=" ">
<path fill="none" stroke="#63b8ff" d="M198.32,-42.07C195.42,-51.55 205.56,-59.75 228.75,-59.75 242.15,-59.75 251.2,-57.01 255.89,-52.86"/>
<polygon fill="#63b8ff" stroke="#63b8ff" points="259.17,-54.1 258.74,-43.52 252.47,-52.06 259.17,-54.1"/>
</a>
</g>
</g>
</g>
</svg>
