<?xml version="1.0" encoding="UTF-8" standalone="no"?>
<!DOCTYPE svg PUBLIC "-//W3C//DTD SVG 1.1//EN"
 "http://www.w3.org/Graphics/SVG/1.1/DTD/svg11.dtd">
<!-- Generated by graphviz version 10.0.1 (20240210.2158)
 -->
<!-- Title: ml::maths::common::CKdTree::postorderDepthFirst Pages: 1 -->
<svg width="339pt" height="57pt"
 viewBox="0.00 0.00 338.50 56.50" xmlns="http://www.w3.org/2000/svg" xmlns:xlink="http://www.w3.org/1999/xlink">
<g id="graph0" class="graph" transform="scale(1 1) rotate(0) translate(4 52.5)">
<title>ml::maths::common::CKdTree::postorderDepthFirst</title>
<!-- Node1 -->
<g id="Node000001" class="node">
<title>Node1</title>
<g id="a_Node000001"><a xlink:title="Visit the branch rooted at node with f in post&#45;order.">
<polygon fill="#999999" stroke="#666666" points="147.25,-30.5 0,-30.5 0,0 147.25,0 147.25,-30.5"/>
<text text-anchor="start" x="8" y="-17" font-family="Helvetica,sans-Serif" font-size="10.00">ml::maths::common::</text>
<text text-anchor="middle" x="73.62" y="-5.75" font-family="Helvetica,sans-Serif" font-size="10.00">CKdTree::postorderDepthFirst</text>
</a>
</g>
</g>
<!-- Node2 -->
<g id="Node000002" class="node">
<title>Node2</title>
<g id="a_Node000002"><a xlink:href="../../de/dc9/classml_1_1maths_1_1common_1_1_c_kd_tree.html#a2edb4631ca5869b569b972d0a4b3365e" target="_top" xlink:title=" ">
<polygon fill="white" stroke="#666666" points="330.5,-30.5 183.25,-30.5 183.25,0 330.5,0 330.5,-30.5"/>
<text text-anchor="start" x="191.25" y="-17" font-family="Helvetica,sans-Serif" font-size="10.00">ml::maths::common::</text>
<text text-anchor="middle" x="256.88" y="-5.75" font-family="Helvetica,sans-Serif" font-size="10.00">CKdTree::postorderDepthFirst</text>
</a>
</g>
</g>
<!-- Node1&#45;&gt;Node2 -->
<g id="edge1_Node000001_Node000002" class="edge">
<title>Node1&#45;&gt;Node2</title>
<g id="a_edge1_Node000001_Node000002"><a xlink:title=" ">
<path fill="none" stroke="#63b8ff" d="M147.56,-15.25C155.45,-15.25 163.53,-15.25 171.54,-15.25"/>
<polygon fill="#63b8ff" stroke="#63b8ff" points="171.28,-18.75 181.28,-15.25 171.28,-11.75 171.28,-18.75"/>
</a>
</g>
</g>
<!-- Node2&#45;&gt;Node2 -->
<g id="edge2_Node000002_Node000002" class="edge">
<title>Node2&#45;&gt;Node2</title>
<g id="a_edge2_Node000002_Node000002"><a xlink:title=" ">
<path fill="none" stroke="#63b8ff" d="M224.4,-30.99C217.78,-40.06 228.6,-48.5 256.88,-48.5 272.34,-48.5 282.58,-45.97 287.61,-42.2"/>
<polygon fill="#63b8ff" stroke="#63b8ff" points="291.04,-42.9 289.11,-32.48 284.12,-41.83 291.04,-42.9"/>
</a>
</g>
</g>
</g>
</svg>
