<?xml version="1.0" encoding="UTF-8" standalone="no"?>
<!DOCTYPE svg PUBLIC "-//W3C//DTD SVG 1.1//EN"
 "http://www.w3.org/Graphics/SVG/1.1/DTD/svg11.dtd">
<!-- Generated by graphviz version 10.0.1 (20240210.2158)
 -->
<!-- Title: include/core/CCompressOStream.h Pages: 1 -->
<svg width="1142pt" height="260pt"
 viewBox="0.00 0.00 1142.33 259.50" xmlns="http://www.w3.org/2000/svg" xmlns:xlink="http://www.w3.org/1999/xlink">
<g id="graph0" class="graph" transform="scale(1 1) rotate(0) translate(4 255.5)">
<title>include/core/CCompressOStream.h</title>
<!-- Node1 -->
<g id="Node000001" class="node">
<title>Node1</title>
<g id="a_Node000001"><a xlink:title=" ">
<polygon fill="#999999" stroke="#666666" points="345.83,-251.5 174.58,-251.5 174.58,-232.25 345.83,-232.25 345.83,-251.5"/>
<text text-anchor="middle" x="260.21" y="-238" font-family="Helvetica,sans-Serif" font-size="10.00">include/core/CCompressOStream.h</text>
</a>
</g>
</g>
<!-- Node2 -->
<g id="Node000002" class="node">
<title>Node2</title>
<g id="a_Node000002"><a xlink:href="../../d2/d52/_c_dual_thread_stream_buf_8h.html" target="_top" xlink:title=" ">
<polygon fill="white" stroke="#666666" points="463.33,-196.25 313.08,-196.25 313.08,-177 463.33,-177 463.33,-196.25"/>
<text text-anchor="middle" x="388.21" y="-182.75" font-family="Helvetica,sans-Serif" font-size="10.00">core/CDualThreadStreamBuf.h</text>
</a>
</g>
</g>
<!-- Node1&#45;&gt;Node2 -->
<g id="edge1_Node000001_Node000002" class="edge">
<title>Node1&#45;&gt;Node2</title>
<g id="a_edge1_Node000001_Node000002"><a xlink:title=" ">
<path fill="none" stroke="#63b8ff" d="M281.92,-231.84C302.24,-223.39 332.85,-210.65 356.02,-201.02"/>
<polygon fill="#63b8ff" stroke="#63b8ff" points="357.1,-204.36 364.99,-197.28 354.41,-197.89 357.1,-204.36"/>
</a>
</g>
</g>
<!-- Node5 -->
<g id="Node000005" class="node">
<title>Node5</title>
<g id="a_Node000005"><a xlink:href="../../dd/d0e/core_2_import_export_8h.html" target="_top" xlink:title=" ">
<polygon fill="white" stroke="#666666" points="551.33,-19.25 449.08,-19.25 449.08,0 551.33,0 551.33,-19.25"/>
<text text-anchor="middle" x="500.21" y="-5.75" font-family="Helvetica,sans-Serif" font-size="10.00">core/ImportExport.h</text>
</a>
</g>
</g>
<!-- Node1&#45;&gt;Node5 -->
<g id="edge38_Node000001_Node000005" class="edge">
<title>Node1&#45;&gt;Node5</title>
<g id="a_edge38_Node000001_Node000005"><a xlink:title=" ">
<path fill="none" stroke="#63b8ff" d="M178.98,-231.78C127.9,-224.58 68.03,-212.93 48.21,-196.25 -0.42,-155.31 -18.59,-102.25 24.21,-55.25 51.51,-25.26 314.57,-15.05 437.49,-11.9"/>
<polygon fill="#63b8ff" stroke="#63b8ff" points="437.51,-15.4 447.42,-11.66 437.34,-8.4 437.51,-15.4"/>
</a>
</g>
</g>
<!-- Node13 -->
<g id="Node000013" class="node">
<title>Node13</title>
<g id="a_Node000013"><a xlink:href="../../d5/d66/_c_state_compressor_8h.html" target="_top" xlink:title=" ">
<polygon fill="white" stroke="#666666" points="885.83,-196.25 756.58,-196.25 756.58,-177 885.83,-177 885.83,-196.25"/>
<text text-anchor="middle" x="821.21" y="-182.75" font-family="Helvetica,sans-Serif" font-size="10.00">core/CStateCompressor.h</text>
</a>
</g>
</g>
<!-- Node1&#45;&gt;Node13 -->
<g id="edge18_Node000001_Node000013" class="edge">
<title>Node1&#45;&gt;Node13</title>
<g id="a_edge18_Node000001_Node000013"><a xlink:title=" ">
<path fill="none" stroke="#63b8ff" d="M346.33,-232.7C455.28,-222.36 641.19,-204.71 745.13,-194.85"/>
<polygon fill="#63b8ff" stroke="#63b8ff" points="745.34,-198.34 754.96,-193.91 744.68,-191.37 745.34,-198.34"/>
</a>
</g>
</g>
<!-- Node22 -->
<g id="Node000022" class="node">
<title>Node22</title>
<g id="a_Node000022"><a xlink:href="../../df/d7a/_c_thread_8h.html" target="_top" xlink:title=" ">
<polygon fill="white" stroke="#666666" points="140.96,-196.25 57.46,-196.25 57.46,-177 140.96,-177 140.96,-196.25"/>
<text text-anchor="middle" x="99.21" y="-182.75" font-family="Helvetica,sans-Serif" font-size="10.00">core/CThread.h</text>
</a>
</g>
</g>
<!-- Node1&#45;&gt;Node22 -->
<g id="edge32_Node000001_Node000022" class="edge">
<title>Node1&#45;&gt;Node22</title>
<g id="a_edge32_Node000001_Node000022"><a xlink:title=" ">
<path fill="none" stroke="#63b8ff" d="M232.9,-231.84C206.65,-223.16 166.73,-209.96 137.35,-200.24"/>
<polygon fill="#63b8ff" stroke="#63b8ff" points="138.68,-196.99 128.09,-197.18 136.49,-203.64 138.68,-196.99"/>
</a>
</g>
</g>
<!-- Node3 -->
<g id="Node000003" class="node">
<title>Node3</title>
<g id="a_Node000003"><a xlink:href="../../d8/da3/_c_condition_8h.html" target="_top" xlink:title=" ">
<polygon fill="white" stroke="#666666" points="600.58,-135.38 505.83,-135.38 505.83,-116.12 600.58,-116.12 600.58,-135.38"/>
<text text-anchor="middle" x="553.21" y="-121.88" font-family="Helvetica,sans-Serif" font-size="10.00">core/CCondition.h</text>
</a>
</g>
</g>
<!-- Node2&#45;&gt;Node3 -->
<g id="edge2_Node000002_Node000003" class="edge">
<title>Node2&#45;&gt;Node3</title>
<g id="a_edge2_Node000002_Node000003"><a xlink:title=" ">
<path fill="none" stroke="#63b8ff" d="M413.63,-176.55C441.36,-166.66 485.98,-150.74 517.29,-139.57"/>
<polygon fill="#63b8ff" stroke="#63b8ff" points="518.09,-143 526.33,-136.34 515.74,-136.4 518.09,-143"/>
</a>
</g>
</g>
<!-- Node2&#45;&gt;Node5 -->
<g id="edge14_Node000002_Node000005" class="edge">
<title>Node2&#45;&gt;Node5</title>
<g id="a_edge14_Node000002_Node000005"><a xlink:title=" ">
<path fill="none" stroke="#63b8ff" d="M463.8,-180.41C520.35,-174.75 590.93,-163.34 609.21,-141 643.9,-98.6 570.92,-49.12 528.21,-25.13"/>
<polygon fill="#63b8ff" stroke="#63b8ff" points="530.12,-22.19 519.67,-20.46 526.76,-28.33 530.12,-22.19"/>
</a>
</g>
</g>
<!-- Node9 -->
<g id="Node000009" class="node">
<title>Node9</title>
<g id="a_Node000009"><a xlink:href="../../d2/d78/_c_mutex_8h.html" target="_top" xlink:title=" ">
<polygon fill="white" stroke="#666666" points="173.46,-135.38 92.96,-135.38 92.96,-116.12 173.46,-116.12 173.46,-135.38"/>
<text text-anchor="middle" x="133.21" y="-121.88" font-family="Helvetica,sans-Serif" font-size="10.00">core/CMutex.h</text>
</a>
</g>
</g>
<!-- Node2&#45;&gt;Node9 -->
<g id="edge9_Node000002_Node000009" class="edge">
<title>Node2&#45;&gt;Node9</title>
<g id="a_edge9_Node000002_Node000009"><a xlink:title=" ">
<path fill="none" stroke="#63b8ff" d="M348.92,-176.55C304.56,-166.31 232.25,-149.62 183.72,-138.41"/>
<polygon fill="#63b8ff" stroke="#63b8ff" points="184.54,-135.01 174.01,-136.17 182.97,-141.83 184.54,-135.01"/>
</a>
</g>
</g>
<!-- Node10 -->
<g id="Node000010" class="node">
<title>Node10</title>
<g id="a_Node000010"><a xlink:title=" ">
<polygon fill="#e0e0e0" stroke="#999999" points="347.58,-135.38 228.83,-135.38 228.83,-116.12 347.58,-116.12 347.58,-135.38"/>
<text text-anchor="middle" x="288.21" y="-121.88" font-family="Helvetica,sans-Serif" font-size="10.00">boost/scoped_array.hpp</text>
</a>
</g>
</g>
<!-- Node2&#45;&gt;Node10 -->
<g id="edge15_Node000002_Node000010" class="edge">
<title>Node2&#45;&gt;Node10</title>
<g id="a_edge15_Node000002_Node000010"><a xlink:title=" ">
<path fill="none" stroke="#63b8ff" d="M373.02,-176.68C357.16,-167.35 332.03,-152.55 313.23,-141.48"/>
<polygon fill="#63b8ff" stroke="#63b8ff" points="315.24,-138.6 304.84,-136.54 311.69,-144.63 315.24,-138.6"/>
</a>
</g>
</g>
<!-- Node11 -->
<g id="Node000011" class="node">
<title>Node11</title>
<g id="a_Node000011"><a xlink:title=" ">
<polygon fill="#e0e0e0" stroke="#999999" points="410.83,-135.38 365.58,-135.38 365.58,-116.12 410.83,-116.12 410.83,-135.38"/>
<text text-anchor="middle" x="388.21" y="-121.88" font-family="Helvetica,sans-Serif" font-size="10.00">atomic</text>
</a>
</g>
</g>
<!-- Node2&#45;&gt;Node11 -->
<g id="edge16_Node000002_Node000011" class="edge">
<title>Node2&#45;&gt;Node11</title>
<g id="a_edge16_Node000002_Node000011"><a xlink:title=" ">
<path fill="none" stroke="#63b8ff" d="M388.21,-176.68C388.21,-168.9 388.21,-157.33 388.21,-147.28"/>
<polygon fill="#63b8ff" stroke="#63b8ff" points="391.71,-147.29 388.21,-137.29 384.71,-147.29 391.71,-147.29"/>
</a>
</g>
</g>
<!-- Node12 -->
<g id="Node000012" class="node">
<title>Node12</title>
<g id="a_Node000012"><a xlink:title=" ">
<polygon fill="#e0e0e0" stroke="#999999" points="487.96,-135.38 428.46,-135.38 428.46,-116.12 487.96,-116.12 487.96,-135.38"/>
<text text-anchor="middle" x="458.21" y="-121.88" font-family="Helvetica,sans-Serif" font-size="10.00">streambuf</text>
</a>
</g>
</g>
<!-- Node2&#45;&gt;Node12 -->
<g id="edge17_Node000002_Node000012" class="edge">
<title>Node2&#45;&gt;Node12</title>
<g id="a_edge17_Node000002_Node000012"><a xlink:title=" ">
<path fill="none" stroke="#63b8ff" d="M398.84,-176.68C409.43,-167.78 425.92,-153.91 438.84,-143.04"/>
<polygon fill="#63b8ff" stroke="#63b8ff" points="440.92,-145.87 446.32,-136.75 436.41,-140.51 440.92,-145.87"/>
</a>
</g>
</g>
<!-- Node4 -->
<g id="Node000004" class="node">
<title>Node4</title>
<g id="a_Node000004"><a xlink:href="../../db/d30/_c_non_copyable_8h.html" target="_top" xlink:title=" ">
<polygon fill="white" stroke="#666666" points="514.58,-74.5 401.83,-74.5 401.83,-55.25 514.58,-55.25 514.58,-74.5"/>
<text text-anchor="middle" x="458.21" y="-61" font-family="Helvetica,sans-Serif" font-size="10.00">core/CNonCopyable.h</text>
</a>
</g>
</g>
<!-- Node3&#45;&gt;Node4 -->
<g id="edge3_Node000003_Node000004" class="edge">
<title>Node3&#45;&gt;Node4</title>
<g id="a_edge3_Node000003_Node000004"><a xlink:title=" ">
<path fill="none" stroke="#63b8ff" d="M538.78,-115.81C523.85,-106.56 500.28,-91.95 482.48,-80.92"/>
<polygon fill="#63b8ff" stroke="#63b8ff" points="484.4,-77.99 474.06,-75.7 480.72,-83.94 484.4,-77.99"/>
</a>
</g>
</g>
<!-- Node3&#45;&gt;Node5 -->
<g id="edge5_Node000003_Node000005" class="edge">
<title>Node3&#45;&gt;Node5</title>
<g id="a_edge5_Node000003_Node000005"><a xlink:title=" ">
<path fill="none" stroke="#63b8ff" d="M549.52,-115.67C544.04,-102.31 533.32,-76.64 523.21,-55.25 519.16,-46.68 514.4,-37.34 510.26,-29.43"/>
<polygon fill="#63b8ff" stroke="#63b8ff" points="513.45,-27.97 505.68,-20.76 507.26,-31.24 513.45,-27.97"/>
</a>
</g>
</g>
<!-- Node6 -->
<g id="Node000006" class="node">
<title>Node6</title>
<g id="a_Node000006"><a xlink:href="../../da/d3e/_windows_safe_8h.html" target="_top" xlink:title=" ">
<polygon fill="white" stroke="#666666" points="155.58,-74.5 48.83,-74.5 48.83,-55.25 155.58,-55.25 155.58,-74.5"/>
<text text-anchor="middle" x="102.21" y="-61" font-family="Helvetica,sans-Serif" font-size="10.00">core/WindowsSafe.h</text>
</a>
</g>
</g>
<!-- Node3&#45;&gt;Node6 -->
<g id="edge6_Node000003_Node000006" class="edge">
<title>Node3&#45;&gt;Node6</title>
<g id="a_edge6_Node000003_Node000006"><a xlink:title=" ">
<path fill="none" stroke="#63b8ff" d="M520.51,-115.63C512.9,-113.73 504.81,-111.89 497.21,-110.5 435.56,-99.23 262.58,-81.49 167.26,-72.13"/>
<polygon fill="#63b8ff" stroke="#63b8ff" points="167.83,-68.67 157.54,-71.18 167.15,-75.64 167.83,-68.67"/>
</a>
</g>
</g>
<!-- Node7 -->
<g id="Node000007" class="node">
<title>Node7</title>
<g id="a_Node000007"><a xlink:title=" ">
<polygon fill="#e0e0e0" stroke="#999999" points="267.46,-74.5 210.96,-74.5 210.96,-55.25 267.46,-55.25 267.46,-74.5"/>
<text text-anchor="middle" x="239.21" y="-61" font-family="Helvetica,sans-Serif" font-size="10.00">pthread.h</text>
</a>
</g>
</g>
<!-- Node3&#45;&gt;Node7 -->
<g id="edge7_Node000003_Node000007" class="edge">
<title>Node3&#45;&gt;Node7</title>
<g id="a_edge7_Node000003_Node000007"><a xlink:title=" ">
<path fill="none" stroke="#63b8ff" d="M519.25,-115.66C512,-113.84 504.37,-112.03 497.21,-110.5 420.29,-94.09 329.49,-79.48 278.71,-71.73"/>
<polygon fill="#63b8ff" stroke="#63b8ff" points="279.51,-68.31 269.09,-70.27 278.46,-75.23 279.51,-68.31"/>
</a>
</g>
</g>
<!-- Node8 -->
<g id="Node000008" class="node">
<title>Node8</title>
<g id="a_Node000008"><a xlink:title=" ">
<polygon fill="#e0e0e0" stroke="#999999" points="653.83,-74.5 608.58,-74.5 608.58,-55.25 653.83,-55.25 653.83,-74.5"/>
<text text-anchor="middle" x="631.21" y="-61" font-family="Helvetica,sans-Serif" font-size="10.00">cstdint</text>
</a>
</g>
</g>
<!-- Node3&#45;&gt;Node8 -->
<g id="edge8_Node000003_Node000008" class="edge">
<title>Node3&#45;&gt;Node8</title>
<g id="a_edge8_Node000003_Node000008"><a xlink:title=" ">
<path fill="none" stroke="#63b8ff" d="M565.06,-115.81C577.08,-106.73 595.95,-92.49 610.46,-81.54"/>
<polygon fill="#63b8ff" stroke="#63b8ff" points="612.17,-84.63 618.04,-75.81 607.95,-79.04 612.17,-84.63"/>
</a>
</g>
</g>
<!-- Node4&#45;&gt;Node5 -->
<g id="edge4_Node000004_Node000005" class="edge">
<title>Node4&#45;&gt;Node5</title>
<g id="a_edge4_Node000004_Node000005"><a xlink:title=" ">
<path fill="none" stroke="#63b8ff" d="M465.14,-55.08C470.82,-47.88 479.05,-37.46 486.1,-28.51"/>
<polygon fill="#63b8ff" stroke="#63b8ff" points="488.74,-30.82 492.19,-20.8 483.24,-26.48 488.74,-30.82"/>
</a>
</g>
</g>
<!-- Node9&#45;&gt;Node4 -->
<g id="edge10_Node000009_Node000004" class="edge">
<title>Node9&#45;&gt;Node4</title>
<g id="a_edge10_Node000009_Node000004"><a xlink:title=" ">
<path fill="none" stroke="#63b8ff" d="M165.64,-115.66C172.72,-113.82 180.19,-112 187.21,-110.5 255.77,-95.84 334.98,-83.3 389.98,-75.28"/>
<polygon fill="#63b8ff" stroke="#63b8ff" points="390.45,-78.75 399.84,-73.85 389.44,-71.82 390.45,-78.75"/>
</a>
</g>
</g>
<!-- Node9&#45;&gt;Node5 -->
<g id="edge11_Node000009_Node000005" class="edge">
<title>Node9&#45;&gt;Node5</title>
<g id="a_edge11_Node000009_Node000005"><a xlink:title=" ">
<path fill="none" stroke="#63b8ff" d="M139.19,-115.7C149.85,-100.4 173.69,-69.69 202.21,-55.25 242.27,-34.96 362.63,-21.81 437.56,-15.36"/>
<polygon fill="#63b8ff" stroke="#63b8ff" points="437.55,-18.87 447.22,-14.54 436.96,-11.89 437.55,-18.87"/>
</a>
</g>
</g>
<!-- Node9&#45;&gt;Node6 -->
<g id="edge12_Node000009_Node000006" class="edge">
<title>Node9&#45;&gt;Node6</title>
<g id="a_edge12_Node000009_Node000006"><a xlink:title=" ">
<path fill="none" stroke="#63b8ff" d="M128.5,-115.81C124.22,-107.68 117.76,-95.42 112.32,-85.08"/>
<polygon fill="#63b8ff" stroke="#63b8ff" points="115.42,-83.46 107.67,-76.24 109.23,-86.72 115.42,-83.46"/>
</a>
</g>
</g>
<!-- Node9&#45;&gt;Node7 -->
<g id="edge13_Node000009_Node000007" class="edge">
<title>Node9&#45;&gt;Node7</title>
<g id="a_edge13_Node000009_Node000007"><a xlink:title=" ">
<path fill="none" stroke="#63b8ff" d="M149.31,-115.81C166.2,-106.43 193.01,-91.54 212.96,-80.45"/>
<polygon fill="#63b8ff" stroke="#63b8ff" points="214.59,-83.55 221.63,-75.64 211.19,-77.43 214.59,-83.55"/>
</a>
</g>
</g>
<!-- Node13&#45;&gt;Node5 -->
<g id="edge27_Node000013_Node000005" class="edge">
<title>Node13&#45;&gt;Node5</title>
<g id="a_edge27_Node000013_Node000005"><a xlink:title=" ">
<path fill="none" stroke="#63b8ff" d="M846.46,-176.56C899.24,-156.31 1012.7,-105.29 967.21,-55.25 940.54,-25.91 684.26,-15.39 563.09,-12.03"/>
<polygon fill="#63b8ff" stroke="#63b8ff" points="563.4,-8.54 553.31,-11.77 563.22,-15.53 563.4,-8.54"/>
</a>
</g>
</g>
<!-- Node14 -->
<g id="Node000014" class="node">
<title>Node14</title>
<g id="a_Node000014"><a xlink:href="../../d0/da7/_c_data_adder_8h.html" target="_top" xlink:title=" ">
<polygon fill="white" stroke="#666666" points="870.83,-135.38 771.58,-135.38 771.58,-116.12 870.83,-116.12 870.83,-135.38"/>
<text text-anchor="middle" x="821.21" y="-121.88" font-family="Helvetica,sans-Serif" font-size="10.00">core/CDataAdder.h</text>
</a>
</g>
</g>
<!-- Node13&#45;&gt;Node14 -->
<g id="edge19_Node000013_Node000014" class="edge">
<title>Node13&#45;&gt;Node14</title>
<g id="a_edge19_Node000013_Node000014"><a xlink:title=" ">
<path fill="none" stroke="#63b8ff" d="M821.21,-176.68C821.21,-168.9 821.21,-157.33 821.21,-147.28"/>
<polygon fill="#63b8ff" stroke="#63b8ff" points="824.71,-147.29 821.21,-137.29 817.71,-147.29 824.71,-147.29"/>
</a>
</g>
</g>
<!-- Node17 -->
<g id="Node000017" class="node">
<title>Node17</title>
<g id="a_Node000017"><a xlink:title=" ">
<polygon fill="#e0e0e0" stroke="#999999" points="957.83,-74.5 906.58,-74.5 906.58,-55.25 957.83,-55.25 957.83,-74.5"/>
<text text-anchor="middle" x="932.21" y="-61" font-family="Helvetica,sans-Serif" font-size="10.00">memory</text>
</a>
</g>
</g>
<!-- Node13&#45;&gt;Node17 -->
<g id="edge30_Node000013_Node000017" class="edge">
<title>Node13&#45;&gt;Node17</title>
<g id="a_edge30_Node000013_Node000017"><a xlink:title=" ">
<path fill="none" stroke="#63b8ff" d="M835.33,-176.82C847.95,-168.53 866.52,-155.28 880.21,-141 896.8,-123.7 911.92,-100.64 921.53,-84.66"/>
<polygon fill="#63b8ff" stroke="#63b8ff" points="924.46,-86.58 926.49,-76.18 918.42,-83.05 924.46,-86.58"/>
</a>
</g>
</g>
<!-- Node19 -->
<g id="Node000019" class="node">
<title>Node19</title>
<g id="a_Node000019"><a xlink:title=" ">
<polygon fill="#e0e0e0" stroke="#999999" points="1134.33,-141 1014.08,-141 1014.08,-110.5 1134.33,-110.5 1134.33,-141"/>
<text text-anchor="start" x="1022.08" y="-127.5" font-family="Helvetica,sans-Serif" font-size="10.00">boost/iostreams/filtering</text>
<text text-anchor="middle" x="1074.21" y="-116.25" font-family="Helvetica,sans-Serif" font-size="10.00">_stream.hpp</text>
</a>
</g>
</g>
<!-- Node13&#45;&gt;Node19 -->
<g id="edge28_Node000013_Node000019" class="edge">
<title>Node13&#45;&gt;Node19</title>
<g id="a_edge28_Node000013_Node000019"><a xlink:title=" ">
<path fill="none" stroke="#63b8ff" d="M860.19,-176.55C898.09,-167.73 956.55,-154.13 1002.81,-143.37"/>
<polygon fill="#63b8ff" stroke="#63b8ff" points="1003.56,-146.78 1012.51,-141.11 1001.97,-139.97 1003.56,-146.78"/>
</a>
</g>
</g>
<!-- Node20 -->
<g id="Node000020" class="node">
<title>Node20</title>
<g id="a_Node000020"><a xlink:title=" ">
<polygon fill="#e0e0e0" stroke="#999999" points="684.61,-135.38 655.81,-135.38 655.81,-116.12 684.61,-116.12 684.61,-135.38"/>
<text text-anchor="middle" x="670.21" y="-121.88" font-family="Helvetica,sans-Serif" font-size="10.00">ios</text>
</a>
</g>
</g>
<!-- Node13&#45;&gt;Node20 -->
<g id="edge29_Node000013_Node000020" class="edge">
<title>Node13&#45;&gt;Node20</title>
<g id="a_edge29_Node000013_Node000020"><a xlink:title=" ">
<path fill="none" stroke="#63b8ff" d="M788.87,-176.51C764.68,-169.22 730.78,-158.03 693.6,-140.54"/>
<polygon fill="#63b8ff" stroke="#63b8ff" points="695.44,-137.54 684.92,-136.36 692.4,-143.85 695.44,-137.54"/>
</a>
</g>
</g>
<!-- Node21 -->
<g id="Node000021" class="node">
<title>Node21</title>
<g id="a_Node000021"><a xlink:title=" ">
<polygon fill="#e0e0e0" stroke="#999999" points="753.83,-135.38 702.58,-135.38 702.58,-116.12 753.83,-116.12 753.83,-135.38"/>
<text text-anchor="middle" x="728.21" y="-121.88" font-family="Helvetica,sans-Serif" font-size="10.00">ostream</text>
</a>
</g>
</g>
<!-- Node13&#45;&gt;Node21 -->
<g id="edge31_Node000013_Node000021" class="edge">
<title>Node13&#45;&gt;Node21</title>
<g id="a_edge31_Node000013_Node000021"><a xlink:title=" ">
<path fill="none" stroke="#63b8ff" d="M807.08,-176.68C792.47,-167.43 769.39,-152.82 751.97,-141.79"/>
<polygon fill="#63b8ff" stroke="#63b8ff" points="754.07,-138.98 743.75,-136.59 750.32,-144.89 754.07,-138.98"/>
</a>
</g>
</g>
<!-- Node14&#45;&gt;Node4 -->
<g id="edge20_Node000014_Node000004" class="edge">
<title>Node14&#45;&gt;Node4</title>
<g id="a_edge20_Node000014_Node000004"><a xlink:title=" ">
<path fill="none" stroke="#63b8ff" d="M786.67,-115.69C778.98,-113.83 770.84,-111.99 763.21,-110.5 682.25,-94.67 588.19,-81.72 526.17,-73.93"/>
<polygon fill="#63b8ff" stroke="#63b8ff" points="526.84,-70.48 516.48,-72.72 525.97,-77.43 526.84,-70.48"/>
</a>
</g>
</g>
<!-- Node14&#45;&gt;Node5 -->
<g id="edge21_Node000014_Node000005" class="edge">
<title>Node14&#45;&gt;Node5</title>
<g id="a_edge21_Node000014_Node000005"><a xlink:title=" ">
<path fill="none" stroke="#63b8ff" d="M811.73,-115.68C795.45,-100.62 760.48,-70.63 725.21,-55.25 673.22,-32.58 609.43,-21.32 563.07,-15.79"/>
<polygon fill="#63b8ff" stroke="#63b8ff" points="563.51,-12.32 553.18,-14.68 562.72,-19.28 563.51,-12.32"/>
</a>
</g>
</g>
<!-- Node14&#45;&gt;Node8 -->
<g id="edge22_Node000014_Node000008" class="edge">
<title>Node14&#45;&gt;Node8</title>
<g id="a_edge22_Node000014_Node000008"><a xlink:title=" ">
<path fill="none" stroke="#63b8ff" d="M791.94,-115.68C757.75,-105.09 701.28,-87.59 665.19,-76.4"/>
<polygon fill="#63b8ff" stroke="#63b8ff" points="666.27,-73.08 655.68,-73.46 664.2,-79.76 666.27,-73.08"/>
</a>
</g>
</g>
<!-- Node15 -->
<g id="Node000015" class="node">
<title>Node15</title>
<g id="a_Node000015"><a xlink:title=" ">
<polygon fill="#e0e0e0" stroke="#999999" points="888.21,-74.5 830.21,-74.5 830.21,-55.25 888.21,-55.25 888.21,-74.5"/>
<text text-anchor="middle" x="859.21" y="-61" font-family="Helvetica,sans-Serif" font-size="10.00">functional</text>
</a>
</g>
</g>
<!-- Node14&#45;&gt;Node15 -->
<g id="edge23_Node000014_Node000015" class="edge">
<title>Node14&#45;&gt;Node15</title>
<g id="a_edge23_Node000014_Node000015"><a xlink:title=" ">
<path fill="none" stroke="#63b8ff" d="M826.98,-115.81C832.34,-107.51 840.48,-94.89 847.24,-84.42"/>
<polygon fill="#63b8ff" stroke="#63b8ff" points="850.08,-86.47 852.56,-76.17 844.2,-82.68 850.08,-86.47"/>
</a>
</g>
</g>
<!-- Node16 -->
<g id="Node000016" class="node">
<title>Node16</title>
<g id="a_Node000016"><a xlink:title=" ">
<polygon fill="#e0e0e0" stroke="#999999" points="716.46,-74.5 671.96,-74.5 671.96,-55.25 716.46,-55.25 716.46,-74.5"/>
<text text-anchor="middle" x="694.21" y="-61" font-family="Helvetica,sans-Serif" font-size="10.00">iosfwd</text>
</a>
</g>
</g>
<!-- Node14&#45;&gt;Node16 -->
<g id="edge24_Node000014_Node000016" class="edge">
<title>Node14&#45;&gt;Node16</title>
<g id="a_edge24_Node000014_Node000016"><a xlink:title=" ">
<path fill="none" stroke="#63b8ff" d="M801.64,-115.68C780.89,-106.06 747.85,-90.74 723.88,-79.63"/>
<polygon fill="#63b8ff" stroke="#63b8ff" points="725.51,-76.53 714.96,-75.5 722.56,-82.88 725.51,-76.53"/>
</a>
</g>
</g>
<!-- Node14&#45;&gt;Node17 -->
<g id="edge25_Node000014_Node000017" class="edge">
<title>Node14&#45;&gt;Node17</title>
<g id="a_edge25_Node000014_Node000017"><a xlink:title=" ">
<path fill="none" stroke="#63b8ff" d="M838.07,-115.81C855.91,-106.34 884.35,-91.26 905.3,-80.15"/>
<polygon fill="#63b8ff" stroke="#63b8ff" points="906.66,-83.39 913.85,-75.61 903.38,-77.2 906.66,-83.39"/>
</a>
</g>
</g>
<!-- Node18 -->
<g id="Node000018" class="node">
<title>Node18</title>
<g id="a_Node000018"><a xlink:title=" ">
<polygon fill="#e0e0e0" stroke="#999999" points="812.21,-74.5 772.21,-74.5 772.21,-55.25 812.21,-55.25 812.21,-74.5"/>
<text text-anchor="middle" x="792.21" y="-61" font-family="Helvetica,sans-Serif" font-size="10.00">string</text>
</a>
</g>
</g>
<!-- Node14&#45;&gt;Node18 -->
<g id="edge26_Node000014_Node000018" class="edge">
<title>Node14&#45;&gt;Node18</title>
<g id="a_edge26_Node000014_Node000018"><a xlink:title=" ">
<path fill="none" stroke="#63b8ff" d="M816.8,-115.81C812.8,-107.68 806.76,-95.42 801.67,-85.08"/>
<polygon fill="#63b8ff" stroke="#63b8ff" points="804.88,-83.68 797.32,-76.26 798.6,-86.78 804.88,-83.68"/>
</a>
</g>
</g>
<!-- Node22&#45;&gt;Node4 -->
<g id="edge34_Node000022_Node000004" class="edge">
<title>Node22&#45;&gt;Node4</title>
<g id="a_edge34_Node000022_Node000004"><a xlink:title=" ">
<path fill="none" stroke="#63b8ff" d="M118.23,-176.64C135.43,-168.23 161.2,-154.91 182.21,-141 200.27,-129.04 200.53,-119.54 220.21,-110.5 274.14,-85.71 340.97,-74.69 390.07,-69.79"/>
<polygon fill="#63b8ff" stroke="#63b8ff" points="390.38,-73.28 400.02,-68.87 389.73,-66.31 390.38,-73.28"/>
</a>
</g>
</g>
<!-- Node22&#45;&gt;Node5 -->
<g id="edge35_Node000022_Node000005" class="edge">
<title>Node22&#45;&gt;Node5</title>
<g id="a_edge35_Node000022_Node000005"><a xlink:title=" ">
<path fill="none" stroke="#63b8ff" d="M81.1,-176.63C68.04,-169.07 51.34,-156.95 43.21,-141 25.89,-107.03 14.58,-83.49 40.21,-55.25 66.4,-26.39 317.77,-15.63 437.46,-12.12"/>
<polygon fill="#63b8ff" stroke="#63b8ff" points="437.55,-15.62 447.45,-11.84 437.35,-8.63 437.55,-15.62"/>
</a>
</g>
</g>
<!-- Node22&#45;&gt;Node6 -->
<g id="edge36_Node000022_Node000006" class="edge">
<title>Node22&#45;&gt;Node6</title>
<g id="a_edge36_Node000022_Node000006"><a xlink:title=" ">
<path fill="none" stroke="#63b8ff" d="M84.38,-176.74C72.93,-168.94 57.94,-156.44 51.21,-141 45.79,-128.57 45.61,-122.84 51.21,-110.5 56.59,-98.65 66.84,-88.7 76.76,-81.23"/>
<polygon fill="#63b8ff" stroke="#63b8ff" points="78.51,-84.28 84.74,-75.71 74.52,-78.52 78.51,-84.28"/>
</a>
</g>
</g>
<!-- Node22&#45;&gt;Node7 -->
<g id="edge37_Node000022_Node000007" class="edge">
<title>Node22&#45;&gt;Node7</title>
<g id="a_edge37_Node000022_Node000007"><a xlink:title=" ">
<path fill="none" stroke="#63b8ff" d="M93.41,-176.77C84.31,-161.63 69.17,-130.48 84.21,-110.5 98.07,-92.08 158.21,-78.9 199.37,-71.83"/>
<polygon fill="#63b8ff" stroke="#63b8ff" points="199.89,-75.29 209.19,-70.21 198.75,-68.39 199.89,-75.29"/>
</a>
</g>
</g>
<!-- Node22&#45;&gt;Node9 -->
<g id="edge33_Node000022_Node000009" class="edge">
<title>Node22&#45;&gt;Node9</title>
<g id="a_edge33_Node000022_Node000009"><a xlink:title=" ">
<path fill="none" stroke="#63b8ff" d="M104.37,-176.68C109.12,-168.47 116.3,-156.03 122.31,-145.62"/>
<polygon fill="#63b8ff" stroke="#63b8ff" points="125.27,-147.5 127.24,-137.09 119.21,-144 125.27,-147.5"/>
</a>
</g>
</g>
</g>
</svg>
