<?xml version="1.0" encoding="UTF-8" standalone="no"?>
<!DOCTYPE svg PUBLIC "-//W3C//DTD SVG 1.1//EN"
 "http://www.w3.org/Graphics/SVG/1.1/DTD/svg11.dtd">
<!-- Generated by graphviz version 10.0.1 (20240210.2158)
 -->
<!-- Title: ml::controller::CResponseJsonWriter::writeResponse Pages: 1 -->
<svg width="871pt" height="163pt"
 viewBox="0.00 0.00 871.00 162.88" xmlns="http://www.w3.org/2000/svg" xmlns:xlink="http://www.w3.org/1999/xlink">
<g id="graph0" class="graph" transform="scale(1 1) rotate(0) translate(4 158.88)">
<title>ml::controller::CResponseJsonWriter::writeResponse</title>
<!-- Node1 -->
<g id="Node000001" class="node">
<title>Node1</title>
<g id="a_Node000001"><a xlink:title="Writes a response in JSON format.">
<polygon fill="#999999" stroke="#666666" points="863,-100.5 729.25,-100.5 729.25,-70 863,-70 863,-100.5"/>
<text text-anchor="start" x="737.25" y="-87" font-family="Helvetica,sans-Serif" font-size="10.00">ml::controller::CResponse</text>
<text text-anchor="middle" x="796.12" y="-75.75" font-family="Helvetica,sans-Serif" font-size="10.00">JsonWriter::writeResponse</text>
</a>
</g>
</g>
<!-- Node2 -->
<g id="Node000002" class="node">
<title>Node2</title>
<g id="a_Node000002"><a xlink:href="../../d2/d23/_c_response_json_writer_test_8cc.html#afa40afd4d8cc19ab6375921d805b6817" target="_top" xlink:title=" ">
<polygon fill="white" stroke="#666666" points="693.25,-154.88 546,-154.88 546,-135.62 693.25,-135.62 693.25,-154.88"/>
<text text-anchor="middle" x="619.62" y="-141.38" font-family="Helvetica,sans-Serif" font-size="10.00">BOOST_AUTO_TEST_CASE</text>
</a>
</g>
</g>
<!-- Node1&#45;&gt;Node2 -->
<g id="edge1_Node000001_Node000002" class="edge">
<title>Node1&#45;&gt;Node2</title>
<g id="a_edge1_Node000001_Node000002"><a xlink:title=" ">
<path fill="none" stroke="#63b8ff" d="M740.48,-104.79C725.21,-110.19 708.6,-116 693.25,-121.25 679.55,-125.93 664.35,-130.98 651.42,-135.23"/>
<polygon fill="#63b8ff" stroke="#63b8ff" points="741.63,-108.1 749.89,-101.46 739.3,-101.5 741.63,-108.1"/>
</a>
</g>
</g>
<!-- Node3 -->
<g id="Node000003" class="node">
<title>Node3</title>
<g id="a_Node000003"><a xlink:href="../../d4/dee/classml_1_1controller_1_1_c_command_processor.html#a0d03f54974a384b21b3a0e9447d584ed" target="_top" xlink:title="Parse and handle a single command.">
<polygon fill="white" stroke="#666666" points="510,-79.5 370.25,-79.5 370.25,-49 510,-49 510,-79.5"/>
<text text-anchor="start" x="378.25" y="-66" font-family="Helvetica,sans-Serif" font-size="10.00">ml::controller::CCommand</text>
<text text-anchor="middle" x="440.12" y="-54.75" font-family="Helvetica,sans-Serif" font-size="10.00">Processor::handleCommand</text>
</a>
</g>
</g>
<!-- Node1&#45;&gt;Node3 -->
<g id="edge2_Node000001_Node000003" class="edge">
<title>Node1&#45;&gt;Node3</title>
<g id="a_edge2_Node000001_Node000003"><a xlink:title=" ">
<path fill="none" stroke="#63b8ff" d="M717.59,-91.13C668.3,-93.64 603.22,-94.71 546,-88.25 530.69,-86.52 514.35,-83.41 499.25,-80"/>
<polygon fill="#63b8ff" stroke="#63b8ff" points="717.5,-94.64 727.3,-90.6 717.12,-87.65 717.5,-94.64"/>
</a>
</g>
</g>
<!-- Node8 -->
<g id="Node000008" class="node">
<title>Node8</title>
<g id="a_Node000008"><a xlink:href="../../d4/dee/classml_1_1controller_1_1_c_command_processor.html#a5399a6cc2d7409b7e32bc4351478a5de" target="_top" xlink:title=" ">
<polygon fill="white" stroke="#666666" points="685,-79.5 554.25,-79.5 554.25,-49 685,-49 685,-79.5"/>
<text text-anchor="start" x="562.25" y="-66" font-family="Helvetica,sans-Serif" font-size="10.00">ml::controller::CCommand</text>
<text text-anchor="middle" x="619.62" y="-54.75" font-family="Helvetica,sans-Serif" font-size="10.00">Processor::handleKill</text>
</a>
</g>
</g>
<!-- Node1&#45;&gt;Node8 -->
<g id="edge7_Node000001_Node000008" class="edge">
<title>Node1&#45;&gt;Node8</title>
<g id="a_edge7_Node000001_Node000008"><a xlink:title=" ">
<path fill="none" stroke="#63b8ff" d="M717.9,-75.96C706.99,-74.64 695.88,-73.31 685.24,-72.03"/>
<polygon fill="#63b8ff" stroke="#63b8ff" points="717.3,-79.41 727.65,-77.13 718.14,-72.46 717.3,-79.41"/>
</a>
</g>
</g>
<!-- Node9 -->
<g id="Node000009" class="node">
<title>Node9</title>
<g id="a_Node000009"><a xlink:href="../../d4/dee/classml_1_1controller_1_1_c_command_processor.html#af394d23cad5d828afdd85bff2bb9bd6f" target="_top" xlink:title=" ">
<polygon fill="white" stroke="#666666" points="685,-30.5 554.25,-30.5 554.25,0 685,0 685,-30.5"/>
<text text-anchor="start" x="562.25" y="-17" font-family="Helvetica,sans-Serif" font-size="10.00">ml::controller::CCommand</text>
<text text-anchor="middle" x="619.62" y="-5.75" font-family="Helvetica,sans-Serif" font-size="10.00">Processor::handleStart</text>
</a>
</g>
</g>
<!-- Node1&#45;&gt;Node9 -->
<g id="edge9_Node000001_Node000009" class="edge">
<title>Node1&#45;&gt;Node9</title>
<g id="a_edge9_Node000001_Node000009"><a xlink:title=" ">
<path fill="none" stroke="#63b8ff" d="M751.09,-64.83C733.27,-56.82 712.42,-47.77 693.25,-40.25 685.18,-37.09 676.53,-33.92 668.11,-30.95"/>
<polygon fill="#63b8ff" stroke="#63b8ff" points="749.54,-67.97 760.09,-68.9 752.42,-61.59 749.54,-67.97"/>
</a>
</g>
</g>
<!-- Node4 -->
<g id="Node000004" class="node">
<title>Node4</title>
<g id="a_Node000004"><a xlink:href="../../d4/dee/classml_1_1controller_1_1_c_command_processor.html#a2e4cd261fc33d531a0b3e5355c21b37b" target="_top" xlink:title=" ">
<polygon fill="white" stroke="#666666" points="334.25,-79.5 183.25,-79.5 183.25,-49 334.25,-49 334.25,-79.5"/>
<text text-anchor="start" x="191.25" y="-66" font-family="Helvetica,sans-Serif" font-size="10.00">ml::controller::CCommand</text>
<text text-anchor="middle" x="258.75" y="-54.75" font-family="Helvetica,sans-Serif" font-size="10.00">Processor::processCommands</text>
</a>
</g>
</g>
<!-- Node3&#45;&gt;Node4 -->
<g id="edge3_Node000003_Node000004" class="edge">
<title>Node3&#45;&gt;Node4</title>
<g id="a_edge3_Node000003_Node000004"><a xlink:title=" ">
<path fill="none" stroke="#63b8ff" d="M358.3,-64.25C350.4,-64.25 342.4,-64.25 334.57,-64.25"/>
<polygon fill="#63b8ff" stroke="#63b8ff" points="358.26,-67.75 368.26,-64.25 358.26,-60.75 358.26,-67.75"/>
</a>
</g>
</g>
<!-- Node5 -->
<g id="Node000005" class="node">
<title>Node5</title>
<g id="a_Node000005"><a xlink:href="../../d1/d60/_c_command_processor_test_8cc.html#a00d1b8d4c6dd6779fd9e54d060c49bbc" target="_top" xlink:title=" ">
<polygon fill="white" stroke="#666666" points="147.25,-110.88 0,-110.88 0,-91.62 147.25,-91.62 147.25,-110.88"/>
<text text-anchor="middle" x="73.62" y="-97.38" font-family="Helvetica,sans-Serif" font-size="10.00">BOOST_AUTO_TEST_CASE</text>
</a>
</g>
</g>
<!-- Node4&#45;&gt;Node5 -->
<g id="edge4_Node000004_Node000005" class="edge">
<title>Node4&#45;&gt;Node5</title>
<g id="a_edge4_Node000004_Node000005"><a xlink:title=" ">
<path fill="none" stroke="#63b8ff" d="M171.84,-81.61C155.63,-84.88 139.19,-88.21 124.55,-91.16"/>
<polygon fill="#63b8ff" stroke="#63b8ff" points="172.41,-85.06 181.52,-79.65 171.02,-78.2 172.41,-85.06"/>
</a>
</g>
</g>
<!-- Node6 -->
<g id="Node000006" class="node">
<title>Node6</title>
<g id="a_Node000006"><a xlink:href="../../d1/d60/_c_command_processor_test_8cc.html#a1878fab60995de6672316062758ee612" target="_top" xlink:title=" ">
<polygon fill="white" stroke="#666666" points="147.25,-73.88 0,-73.88 0,-54.62 147.25,-54.62 147.25,-73.88"/>
<text text-anchor="middle" x="73.62" y="-60.38" font-family="Helvetica,sans-Serif" font-size="10.00">BOOST_AUTO_TEST_CASE</text>
</a>
</g>
</g>
<!-- Node4&#45;&gt;Node6 -->
<g id="edge5_Node000004_Node000006" class="edge">
<title>Node4&#45;&gt;Node6</title>
<g id="a_edge5_Node000004_Node000006"><a xlink:title=" ">
<path fill="none" stroke="#63b8ff" d="M171.7,-64.25C163.66,-64.25 155.56,-64.25 147.65,-64.25"/>
<polygon fill="#63b8ff" stroke="#63b8ff" points="171.49,-67.75 181.49,-64.25 171.49,-60.75 171.49,-67.75"/>
</a>
</g>
</g>
<!-- Node7 -->
<g id="Node000007" class="node">
<title>Node7</title>
<g id="a_Node000007"><a xlink:href="../../d9/d56/bin_2controller_2_main_8cc.html#a3c04138a5bfe5d72780bb7e82a18e627" target="_top" xlink:title="Controller to start other ML processes.">
<polygon fill="white" stroke="#666666" points="92.12,-36.88 55.12,-36.88 55.12,-17.62 92.12,-17.62 92.12,-36.88"/>
<text text-anchor="middle" x="73.62" y="-23.38" font-family="Helvetica,sans-Serif" font-size="10.00">main</text>
</a>
</g>
</g>
<!-- Node4&#45;&gt;Node7 -->
<g id="edge6_Node000004_Node000007" class="edge">
<title>Node4&#45;&gt;Node7</title>
<g id="a_edge6_Node000004_Node000007"><a xlink:title=" ">
<path fill="none" stroke="#63b8ff" d="M172.01,-46.93C142.02,-40.87 111.18,-34.64 92.46,-30.85"/>
<polygon fill="#63b8ff" stroke="#63b8ff" points="171.02,-50.3 181.52,-48.85 172.41,-43.44 171.02,-50.3"/>
</a>
</g>
</g>
<!-- Node8&#45;&gt;Node3 -->
<g id="edge8_Node000008_Node000003" class="edge">
<title>Node8&#45;&gt;Node3</title>
<g id="a_edge8_Node000008_Node000003"><a xlink:title=" ">
<path fill="none" stroke="#63b8ff" d="M542.35,-64.25C531.69,-64.25 520.78,-64.25 510.27,-64.25"/>
<polygon fill="#63b8ff" stroke="#63b8ff" points="542.28,-67.75 552.28,-64.25 542.28,-60.75 542.28,-67.75"/>
</a>
</g>
</g>
<!-- Node9&#45;&gt;Node3 -->
<g id="edge10_Node000009_Node000003" class="edge">
<title>Node9&#45;&gt;Node3</title>
<g id="a_edge10_Node000009_Node000003"><a xlink:title=" ">
<path fill="none" stroke="#63b8ff" d="M551.25,-33.85C533.75,-38.68 515.06,-43.84 498.15,-48.51"/>
<polygon fill="#63b8ff" stroke="#63b8ff" points="551.81,-37.33 560.52,-31.29 549.95,-30.58 551.81,-37.33"/>
</a>
</g>
</g>
</g>
</svg>
