<?xml version="1.0" encoding="UTF-8" standalone="no"?>
<!DOCTYPE svg PUBLIC "-//W3C//DTD SVG 1.1//EN"
 "http://www.w3.org/Graphics/SVG/1.1/DTD/svg11.dtd">
<!-- Generated by graphviz version 10.0.1 (20240210.2158)
 -->
<!-- Title: include/maths/common/CAgglomerativeClusterer.h Pages: 1 -->
<svg width="279pt" height="94pt"
 viewBox="0.00 0.00 279.00 93.75" xmlns="http://www.w3.org/2000/svg" xmlns:xlink="http://www.w3.org/1999/xlink">
<g id="graph0" class="graph" transform="scale(1 1) rotate(0) translate(4 89.75)">
<title>include/maths/common/CAgglomerativeClusterer.h</title>
<!-- Node1 -->
<g id="Node000001" class="node">
<title>Node1</title>
<g id="a_Node000001"><a xlink:title=" ">
<polygon fill="#999999" stroke="#666666" points="257.5,-85.75 121.5,-85.75 121.5,-55.25 257.5,-55.25 257.5,-85.75"/>
<text text-anchor="start" x="129.5" y="-72.25" font-family="Helvetica,sans-Serif" font-size="10.00">include/maths/common</text>
<text text-anchor="middle" x="189.5" y="-61" font-family="Helvetica,sans-Serif" font-size="10.00">/CAgglomerativeClusterer.h</text>
</a>
</g>
</g>
<!-- Node2 -->
<g id="Node000002" class="node">
<title>Node2</title>
<g id="a_Node000002"><a xlink:href="../../d2/de5/maths_2common_2_import_export_8h.html" target="_top" xlink:title=" ">
<polygon fill="white" stroke="#666666" points="151,-19.25 0,-19.25 0,0 151,0 151,-19.25"/>
<text text-anchor="middle" x="75.5" y="-5.75" font-family="Helvetica,sans-Serif" font-size="10.00">maths/common/ImportExport.h</text>
</a>
</g>
</g>
<!-- Node1&#45;&gt;Node2 -->
<g id="edge1_Node000001_Node000002" class="edge">
<title>Node1&#45;&gt;Node2</title>
<g id="a_edge1_Node000001_Node000002"><a xlink:title=" ">
<path fill="none" stroke="#63b8ff" d="M161.03,-54.8C143.33,-45.66 120.7,-33.97 103.16,-24.91"/>
<polygon fill="#63b8ff" stroke="#63b8ff" points="104.82,-21.83 94.33,-20.35 101.61,-28.05 104.82,-21.83"/>
</a>
</g>
</g>
<!-- Node3 -->
<g id="Node000003" class="node">
<title>Node3</title>
<g id="a_Node000003"><a xlink:title=" ">
<polygon fill="#e0e0e0" stroke="#999999" points="209.5,-19.25 169.5,-19.25 169.5,0 209.5,0 209.5,-19.25"/>
<text text-anchor="middle" x="189.5" y="-5.75" font-family="Helvetica,sans-Serif" font-size="10.00">string</text>
</a>
</g>
</g>
<!-- Node1&#45;&gt;Node3 -->
<g id="edge2_Node000001_Node000003" class="edge">
<title>Node1&#45;&gt;Node3</title>
<g id="a_edge2_Node000001_Node000003"><a xlink:title=" ">
<path fill="none" stroke="#63b8ff" d="M189.5,-54.95C189.5,-47.71 189.5,-38.84 189.5,-30.94"/>
<polygon fill="#63b8ff" stroke="#63b8ff" points="193,-31.21 189.5,-21.21 186,-31.21 193,-31.21"/>
</a>
</g>
</g>
<!-- Node4 -->
<g id="Node000004" class="node">
<title>Node4</title>
<g id="a_Node000004"><a xlink:title=" ">
<polygon fill="#e0e0e0" stroke="#999999" points="271,-19.25 228,-19.25 228,0 271,0 271,-19.25"/>
<text text-anchor="middle" x="249.5" y="-5.75" font-family="Helvetica,sans-Serif" font-size="10.00">vector</text>
</a>
</g>
</g>
<!-- Node1&#45;&gt;Node4 -->
<g id="edge3_Node000001_Node000004" class="edge">
<title>Node1&#45;&gt;Node4</title>
<g id="a_edge3_Node000001_Node000004"><a xlink:title=" ">
<path fill="none" stroke="#63b8ff" d="M204.33,-54.95C212.76,-46.67 223.37,-36.27 232.18,-27.62"/>
<polygon fill="#63b8ff" stroke="#63b8ff" points="234.48,-30.26 239.17,-20.76 229.58,-25.27 234.48,-30.26"/>
</a>
</g>
</g>
</g>
</svg>
