<?xml version="1.0" encoding="UTF-8" standalone="no"?>
<!DOCTYPE svg PUBLIC "-//W3C//DTD SVG 1.1//EN"
 "http://www.w3.org/Graphics/SVG/1.1/DTD/svg11.dtd">
<!-- Generated by graphviz version 10.0.1 (20240210.2158)
 -->
<!-- Title: ml::model::CInterimBucketCorrector::corrections Pages: 1 -->
<svg width="650pt" height="196pt"
 viewBox="0.00 0.00 650.25 196.12" xmlns="http://www.w3.org/2000/svg" xmlns:xlink="http://www.w3.org/1999/xlink">
<g id="graph0" class="graph" transform="scale(1 1) rotate(0) translate(4 192.12)">
<title>ml::model::CInterimBucketCorrector::corrections</title>
<!-- Node1 -->
<g id="Node000001" class="node">
<title>Node1</title>
<g id="a_Node000001"><a xlink:title=" ">
<polygon fill="#999999" stroke="#666666" points="133,-81.5 0,-81.5 0,-51 133,-51 133,-81.5"/>
<text text-anchor="start" x="8" y="-68" font-family="Helvetica,sans-Serif" font-size="10.00">ml::model::CInterimBucket</text>
<text text-anchor="middle" x="66.5" y="-56.75" font-family="Helvetica,sans-Serif" font-size="10.00">Corrector::corrections</text>
</a>
</g>
</g>
<!-- Node2 -->
<g id="Node000002" class="node">
<title>Node2</title>
<g id="a_Node000002"><a xlink:href="../../da/d78/classml_1_1model_1_1_c_interim_bucket_corrector.html#a1f051096771a0e8365131fbc32841522" target="_top" xlink:title=" ">
<polygon fill="white" stroke="#666666" points="302,-103.5 169,-103.5 169,-73 302,-73 302,-103.5"/>
<text text-anchor="start" x="177" y="-90" font-family="Helvetica,sans-Serif" font-size="10.00">ml::model::CInterimBucket</text>
<text text-anchor="middle" x="235.5" y="-78.75" font-family="Helvetica,sans-Serif" font-size="10.00">Corrector::corrections</text>
</a>
</g>
</g>
<!-- Node1&#45;&gt;Node2 -->
<g id="edge1_Node000001_Node000002" class="edge">
<title>Node1&#45;&gt;Node2</title>
<g id="a_edge1_Node000001_Node000002"><a xlink:title=" ">
<path fill="none" stroke="#63b8ff" d="M133.02,-74.88C140.97,-75.93 149.15,-77.01 157.25,-78.07"/>
<polygon fill="#63b8ff" stroke="#63b8ff" points="156.74,-81.54 167.12,-79.37 157.66,-74.6 156.74,-81.54"/>
</a>
</g>
</g>
<!-- Node8 -->
<g id="Node000008" class="node">
<title>Node8</title>
<g id="a_Node000008"><a xlink:href="../../dd/d55/classml_1_1maths_1_1common_1_1_c_tools.html#a0ee3c8a8c133d36faa270f96ff48ae21" target="_top" xlink:title=" ">
<polygon fill="white" stroke="#666666" points="459,-60.5 350,-60.5 350,-30 459,-30 459,-60.5"/>
<text text-anchor="start" x="358" y="-47" font-family="Helvetica,sans-Serif" font-size="10.00">ml::maths::common::</text>
<text text-anchor="middle" x="404.5" y="-35.75" font-family="Helvetica,sans-Serif" font-size="10.00">CTools::truncate</text>
</a>
</g>
</g>
<!-- Node1&#45;&gt;Node8 -->
<g id="edge8_Node000001_Node000008" class="edge">
<title>Node1&#45;&gt;Node8</title>
<g id="a_edge8_Node000001_Node000008"><a xlink:title=" ">
<path fill="none" stroke="#63b8ff" d="M133.48,-62.13C192.7,-58.43 279.13,-53.02 338.15,-49.33"/>
<polygon fill="#63b8ff" stroke="#63b8ff" points="338.3,-52.83 348.06,-48.71 337.86,-45.85 338.3,-52.83"/>
</a>
</g>
</g>
<!-- Node3 -->
<g id="Node000003" class="node">
<title>Node3</title>
<g id="a_Node000003"><a xlink:href="../../d6/dd5/namespaceml_1_1maths_1_1common.html#aa139fb07823365e51bd2f01178d7a61a" target="_top" xlink:title="Compute the mode for distribution.">
<polygon fill="white" stroke="#666666" points="471,-97.88 338,-97.88 338,-78.62 471,-78.62 471,-97.88"/>
<text text-anchor="middle" x="404.5" y="-84.38" font-family="Helvetica,sans-Serif" font-size="10.00">ml::maths::common::mode</text>
</a>
</g>
</g>
<!-- Node2&#45;&gt;Node3 -->
<g id="edge2_Node000002_Node000003" class="edge">
<title>Node2&#45;&gt;Node3</title>
<g id="a_edge2_Node000002_Node000003"><a xlink:title=" ">
<path fill="none" stroke="#63b8ff" d="M302.02,-88.25C309.97,-88.25 318.15,-88.25 326.25,-88.25"/>
<polygon fill="#63b8ff" stroke="#63b8ff" points="326.1,-91.75 336.1,-88.25 326.1,-84.75 326.1,-91.75"/>
</a>
</g>
</g>
<!-- Node2&#45;&gt;Node8 -->
<g id="edge7_Node000002_Node000008" class="edge">
<title>Node2&#45;&gt;Node8</title>
<g id="a_edge7_Node000002_Node000008"><a xlink:title=" ">
<path fill="none" stroke="#63b8ff" d="M297.26,-72.6C310.8,-69.12 325.21,-65.41 338.9,-61.88"/>
<polygon fill="#63b8ff" stroke="#63b8ff" points="339.41,-65.37 348.22,-59.48 337.67,-58.59 339.41,-65.37"/>
</a>
</g>
</g>
<!-- Node4 -->
<g id="Node000004" class="node">
<title>Node4</title>
<g id="a_Node000004"><a xlink:href="../../d0/d1c/classml_1_1maths_1_1common_1_1_c_log_t_distribution.html#a128ce0a627956e7931be0358fe995d2d" target="_top" xlink:title=" ">
<polygon fill="white" stroke="#666666" points="642.25,-188.12 507,-188.12 507,-146.38 642.25,-146.38 642.25,-188.12"/>
<text text-anchor="start" x="515" y="-174.62" font-family="Helvetica,sans-Serif" font-size="10.00">ml::maths::common::</text>
<text text-anchor="start" x="515" y="-163.38" font-family="Helvetica,sans-Serif" font-size="10.00">CLogTDistribution::degrees</text>
<text text-anchor="middle" x="574.62" y="-152.12" font-family="Helvetica,sans-Serif" font-size="10.00">Freedom</text>
</a>
</g>
</g>
<!-- Node3&#45;&gt;Node4 -->
<g id="edge3_Node000003_Node000004" class="edge">
<title>Node3&#45;&gt;Node4</title>
<g id="a_edge3_Node000003_Node000004"><a xlink:title=" ">
<path fill="none" stroke="#63b8ff" d="M426.03,-98.36C446.48,-108.38 478.8,-124.1 507,-137.25 509.76,-138.54 512.59,-139.85 515.45,-141.16"/>
<polygon fill="#63b8ff" stroke="#63b8ff" points="513.95,-144.33 524.5,-145.31 516.87,-137.96 513.95,-144.33"/>
</a>
</g>
</g>
<!-- Node5 -->
<g id="Node000005" class="node">
<title>Node5</title>
<g id="a_Node000005"><a xlink:href="../../d0/d1c/classml_1_1maths_1_1common_1_1_c_log_t_distribution.html#a4267908e2f6c547fd21f75a77f6bee78" target="_top" xlink:title=" ">
<polygon fill="white" stroke="#666666" points="641.88,-128.5 507.38,-128.5 507.38,-98 641.88,-98 641.88,-128.5"/>
<text text-anchor="start" x="515.38" y="-115" font-family="Helvetica,sans-Serif" font-size="10.00">ml::maths::common::</text>
<text text-anchor="middle" x="574.62" y="-103.75" font-family="Helvetica,sans-Serif" font-size="10.00">CLogTDistribution::location</text>
</a>
</g>
</g>
<!-- Node3&#45;&gt;Node5 -->
<g id="edge4_Node000003_Node000005" class="edge">
<title>Node3&#45;&gt;Node5</title>
<g id="a_edge4_Node000003_Node000005"><a xlink:title=" ">
<path fill="none" stroke="#63b8ff" d="M471.46,-98.06C479.41,-99.24 487.57,-100.45 495.66,-101.66"/>
<polygon fill="#63b8ff" stroke="#63b8ff" points="495.12,-105.11 505.52,-103.12 496.15,-98.19 495.12,-105.11"/>
</a>
</g>
</g>
<!-- Node6 -->
<g id="Node000006" class="node">
<title>Node6</title>
<g id="a_Node000006"><a xlink:href="../../dd/d55/classml_1_1maths_1_1common_1_1_c_tools.html#aa0600053da91719428498ec9968916c3" target="_top" xlink:title="Compute .">
<polygon fill="white" stroke="#666666" points="629.12,-79.5 520.12,-79.5 520.12,-49 629.12,-49 629.12,-79.5"/>
<text text-anchor="start" x="528.12" y="-66" font-family="Helvetica,sans-Serif" font-size="10.00">ml::maths::common::</text>
<text text-anchor="middle" x="574.62" y="-54.75" font-family="Helvetica,sans-Serif" font-size="10.00">CTools::pow2</text>
</a>
</g>
</g>
<!-- Node3&#45;&gt;Node6 -->
<g id="edge5_Node000003_Node000006" class="edge">
<title>Node3&#45;&gt;Node6</title>
<g id="a_edge5_Node000003_Node000006"><a xlink:title=" ">
<path fill="none" stroke="#63b8ff" d="M471.46,-78.83C483.72,-77.08 496.51,-75.26 508.74,-73.51"/>
<polygon fill="#63b8ff" stroke="#63b8ff" points="508.87,-77.03 518.27,-72.15 507.88,-70.1 508.87,-77.03"/>
</a>
</g>
</g>
<!-- Node7 -->
<g id="Node000007" class="node">
<title>Node7</title>
<g id="a_Node000007"><a xlink:href="../../d0/d1c/classml_1_1maths_1_1common_1_1_c_log_t_distribution.html#a8f03f27080a2f59d3da535b4b4f228ef" target="_top" xlink:title=" ">
<polygon fill="white" stroke="#666666" points="636.62,-30.5 512.62,-30.5 512.62,0 636.62,0 636.62,-30.5"/>
<text text-anchor="start" x="520.62" y="-17" font-family="Helvetica,sans-Serif" font-size="10.00">ml::maths::common::</text>
<text text-anchor="middle" x="574.62" y="-5.75" font-family="Helvetica,sans-Serif" font-size="10.00">CLogTDistribution::scale</text>
</a>
</g>
</g>
<!-- Node3&#45;&gt;Node7 -->
<g id="edge6_Node000003_Node000007" class="edge">
<title>Node3&#45;&gt;Node7</title>
<g id="a_edge6_Node000003_Node000007"><a xlink:title=" ">
<path fill="none" stroke="#63b8ff" d="M449.42,-78.13C456.83,-75.69 464.28,-72.75 471,-69.25 489.22,-59.76 489.16,-50.43 507,-40.25 509.82,-38.64 512.76,-37.1 515.76,-35.63"/>
<polygon fill="#63b8ff" stroke="#63b8ff" points="517.14,-38.85 524.79,-31.53 514.24,-32.48 517.14,-38.85"/>
</a>
</g>
</g>
</g>
</svg>
