<?xml version="1.0" encoding="UTF-8" standalone="no"?>
<!DOCTYPE svg PUBLIC "-//W3C//DTD SVG 1.1//EN"
 "http://www.w3.org/Graphics/SVG/1.1/DTD/svg11.dtd">
<!-- Generated by graphviz version 10.0.1 (20240210.2158)
 -->
<!-- Title: ml::model::CInterimBucketCorrector::currentBucketCount Pages: 1 -->
<!--zoomable 322 -->

<svg id="main" version="1.1" xmlns="http://www.w3.org/2000/svg" xmlns:xlink="http://www.w3.org/1999/xlink" xml:space="preserve" onload="init(evt)">
<style type="text/css"><![CDATA[
.node, .edge {opacity: 0.7;}
.node.selected, .edge.selected {opacity: 1;}
.edge:hover path { stroke: red; }
.edge:hover polygon { stroke: red; fill: red; }
]]></style>

<defs>
  <circle id="rim" cx="0" cy="0" r="7"/>
  <circle id="rim2" cx="0" cy="0" r="3.5"/>
  <g id="zoomPlus">
    <use xlink:href="#rim" fill="#404040"><set attributeName="fill" to="#808080" begin="zoomplus.mouseover" end="zoomplus.mouseout"/></use>
    <path d="M-4,0h8M0,-4v8" fill="none" stroke="white" stroke-width="1.5" pointer-events="none"/>
  </g>
  <g id="zoomMin">
    <use xlink:href="#rim" fill="#404040"><set attributeName="fill" to="#808080" begin="zoomminus.mouseover" end="zoomminus.mouseout"/></use>
    <path d="M-4,0h8" fill="none" stroke="white" stroke-width="1.5" pointer-events="none"/>
  </g>
  <g id="arrowUp" transform="translate(30 24)">
    <use xlink:href="#rim"/>
    <path pointer-events="none" fill="none" stroke="white" stroke-width="1.5" d="M0,-3.0v7 M-2.5,-0.5L0,-3.0L2.5,-0.5"/>
  </g>
  <g id="arrowRight" transform="rotate(90) translate(36 -43)">
    <use xlink:href="#rim"/>
    <path pointer-events="none" fill="none" stroke="white" stroke-width="1.5" d="M0,-3.0v7 M-2.5,-0.5L0,-3.0L2.5,-0.5"/>
  </g>
  <g id="arrowDown" transform="rotate(180) translate(-30 -48)">
    <use xlink:href="#rim"/>
    <path pointer-events="none" fill="none" stroke="white" stroke-width="1.5" d="M0,-3.0v7 M-2.5,-0.5L0,-3.0L2.5,-0.5"/>
  </g>
  <g id="arrowLeft" transform="rotate(270) translate(-36 17)">
    <use xlink:href="#rim"/>
    <path pointer-events="none" fill="none" stroke="white" stroke-width="1.5" d="M0,-3.0v7 M-2.5,-0.5L0,-3.0L2.5,-0.5"/>
  </g>
  <g id="resetDef">
    <use xlink:href="#rim2" fill="#404040"><set attributeName="fill" to="#808080" begin="reset.mouseover" end="reset.mouseout"/></use>
  </g>
</defs>
<script type="application/ecmascript">
var viewWidth = 779;
var viewHeight = 322;
var sectionId = 'dynsection-10';
</script>
<script type="application/ecmascript" xlink:href="../../svg.min.js"/>
<svg id="graph" class="graph">
<g id="viewport">
<title>ml::model::CInterimBucketCorrector::currentBucketCount</title>
<!-- Node1 -->
<g id="Node000001" class="node">
<title>Node1</title>
<g id="a_Node000001"><a xlink:title="Updates the current count in the bucket.">
<polygon fill="#999999" stroke="#666666" points="149.5,-181.12 0,-181.12 0,-150.62 149.5,-150.62 149.5,-181.12"/>
<text text-anchor="start" x="8" y="-167.62" font-family="Helvetica,sans-Serif" font-size="10.00">ml::model::CInterimBucket</text>
<text text-anchor="middle" x="74.75" y="-156.38" font-family="Helvetica,sans-Serif" font-size="10.00">Corrector::currentBucketCount</text>
</a>
</g>
</g>
<!-- Node2 -->
<g id="Node000002" class="node">
<title>Node2</title>
<g id="a_Node000002"><a xlink:href="../../da/d78/classml_1_1model_1_1_c_interim_bucket_corrector.html#abe9d3f9130d7a7ec00bf8f72ee1cd350" target="_top" xlink:title=" ">
<polygon fill="white" stroke="#666666" points="379.25,-181.12 185.5,-181.12 185.5,-150.62 379.25,-150.62 379.25,-181.12"/>
<text text-anchor="start" x="193.5" y="-167.62" font-family="Helvetica,sans-Serif" font-size="10.00">ml::model::CInterimBucket</text>
<text text-anchor="middle" x="282.38" y="-156.38" font-family="Helvetica,sans-Serif" font-size="10.00">Corrector::estimateBucketCompleteness</text>
</a>
</g>
</g>
<!-- Node1&#45;&gt;Node2 -->
<g id="edge1_Node000001_Node000002" class="edge">
<title>Node1&#45;&gt;Node2</title>
<g id="a_edge1_Node000001_Node000002"><a xlink:title=" ">
<path fill="none" stroke="#63b8ff" d="M149.99,-165.88C157.73,-165.88 165.7,-165.88 173.72,-165.88"/>
<polygon fill="#63b8ff" stroke="#63b8ff" points="173.54,-169.38 183.54,-165.88 173.54,-162.38 173.54,-169.38"/>
</a>
</g>
</g>
<!-- Node3 -->
<g id="Node000003" class="node">
<title>Node3</title>
<g id="a_Node000003"><a xlink:href="../../da/d78/classml_1_1model_1_1_c_interim_bucket_corrector.html#a50c102c6ee8d61183bda25633c2cc13d" target="_top" xlink:title="Returns the mid point in the bucket that contains time.">
<polygon fill="white" stroke="#666666" points="564.75,-314.12 415.25,-314.12 415.25,-283.62 564.75,-283.62 564.75,-314.12"/>
<text text-anchor="start" x="423.25" y="-300.62" font-family="Helvetica,sans-Serif" font-size="10.00">ml::model::CInterimBucket</text>
<text text-anchor="middle" x="490" y="-289.38" font-family="Helvetica,sans-Serif" font-size="10.00">Corrector::calcBucketMidPoint</text>
</a>
</g>
</g>
<!-- Node2&#45;&gt;Node3 -->
<g id="edge2_Node000002_Node000003" class="edge">
<title>Node2&#45;&gt;Node3</title>
<g id="a_edge2_Node000002_Node000003"><a xlink:title=" ">
<path fill="none" stroke="#63b8ff" d="M298.19,-181.4C321.21,-204.73 367.88,-248.83 415.25,-274.88 417.73,-276.24 420.3,-277.54 422.92,-278.78"/>
<polygon fill="#63b8ff" stroke="#63b8ff" points="421.32,-281.9 431.88,-282.66 424.1,-275.47 421.32,-281.9"/>
</a>
</g>
</g>
<!-- Node5 -->
<g id="Node000005" class="node">
<title>Node5</title>
<g id="a_Node000005"><a xlink:href="../../de/dbe/classml_1_1maths_1_1time__series_1_1_c_time_series_decomposition.html#ad9c482d83e793ddaa2742f058c8196a3" target="_top" xlink:title="Check if the decomposition has any initialized components.">
<polygon fill="white" stroke="#666666" points="562.12,-265.75 417.88,-265.75 417.88,-224 562.12,-224 562.12,-265.75"/>
<text text-anchor="start" x="425.88" y="-252.25" font-family="Helvetica,sans-Serif" font-size="10.00">ml::maths::time_series</text>
<text text-anchor="start" x="425.88" y="-241" font-family="Helvetica,sans-Serif" font-size="10.00">::CTimeSeriesDecomposition</text>
<text text-anchor="middle" x="490" y="-229.75" font-family="Helvetica,sans-Serif" font-size="10.00">::initialized</text>
</a>
</g>
</g>
<!-- Node2&#45;&gt;Node5 -->
<g id="edge4_Node000002_Node000005" class="edge">
<title>Node2&#45;&gt;Node5</title>
<g id="a_edge4_Node000002_Node000005"><a xlink:title=" ">
<path fill="none" stroke="#63b8ff" d="M324,-181.48C352.3,-192.36 390.68,-207.1 423.3,-219.63"/>
<polygon fill="#63b8ff" stroke="#63b8ff" points="421.67,-222.75 432.26,-223.07 424.18,-216.22 421.67,-222.75"/>
</a>
</g>
</g>
<!-- Node7 -->
<g id="Node000007" class="node">
<title>Node7</title>
<g id="a_Node000007"><a xlink:href="../../d4/d55/classml_1_1maths_1_1common_1_1_c_basic_statistics.html#a9a136b1823e9938247cd29bb0ffea440" target="_top" xlink:title="Compute the mean of a pair.">
<polygon fill="white" stroke="#666666" points="549.75,-206.12 430.25,-206.12 430.25,-175.62 549.75,-175.62 549.75,-206.12"/>
<text text-anchor="start" x="438.25" y="-192.62" font-family="Helvetica,sans-Serif" font-size="10.00">ml::maths::common::</text>
<text text-anchor="middle" x="490" y="-181.38" font-family="Helvetica,sans-Serif" font-size="10.00">CBasicStatistics::mean</text>
</a>
</g>
</g>
<!-- Node2&#45;&gt;Node7 -->
<g id="edge6_Node000002_Node000007" class="edge">
<title>Node2&#45;&gt;Node7</title>
<g id="a_edge6_Node000002_Node000007"><a xlink:title=" ">
<path fill="none" stroke="#63b8ff" d="M379.56,-177.57C392.69,-179.17 405.96,-180.78 418.51,-182.3"/>
<polygon fill="#63b8ff" stroke="#63b8ff" points="417.96,-185.76 428.31,-183.5 418.81,-178.81 417.96,-185.76"/>
</a>
</g>
</g>
<!-- Node8 -->
<g id="Node000008" class="node">
<title>Node8</title>
<g id="a_Node000008"><a xlink:href="../../d7/d11/classml_1_1maths_1_1common_1_1_c_vector_nx1.html#a6fac916c38208a962dafb549def6bf47" target="_top" xlink:title="Get the mean of the vector components.">
<polygon fill="white" stroke="#666666" points="544.5,-157.12 435.5,-157.12 435.5,-126.62 544.5,-126.62 544.5,-157.12"/>
<text text-anchor="start" x="443.5" y="-143.62" font-family="Helvetica,sans-Serif" font-size="10.00">ml::maths::common::</text>
<text text-anchor="middle" x="490" y="-132.38" font-family="Helvetica,sans-Serif" font-size="10.00">CVectorNx1::mean</text>
</a>
</g>
</g>
<!-- Node2&#45;&gt;Node8 -->
<g id="edge7_Node000002_Node000008" class="edge">
<title>Node2&#45;&gt;Node8</title>
<g id="a_edge7_Node000002_Node000008"><a xlink:title=" ">
<path fill="none" stroke="#63b8ff" d="M379.56,-154.65C394.66,-152.89 409.94,-151.1 424.11,-149.45"/>
<polygon fill="#63b8ff" stroke="#63b8ff" points="424.18,-152.96 433.7,-148.33 423.36,-146.01 424.18,-152.96"/>
</a>
</g>
</g>
<!-- Node10 -->
<g id="Node000010" class="node">
<title>Node10</title>
<g id="a_Node000010"><a xlink:href="../../dd/d55/classml_1_1maths_1_1common_1_1_c_tools.html#a0ee3c8a8c133d36faa270f96ff48ae21" target="_top" xlink:title=" ">
<polygon fill="white" stroke="#666666" points="544.5,-108.12 435.5,-108.12 435.5,-77.62 544.5,-77.62 544.5,-108.12"/>
<text text-anchor="start" x="443.5" y="-94.62" font-family="Helvetica,sans-Serif" font-size="10.00">ml::maths::common::</text>
<text text-anchor="middle" x="490" y="-83.38" font-family="Helvetica,sans-Serif" font-size="10.00">CTools::truncate</text>
</a>
</g>
</g>
<!-- Node2&#45;&gt;Node10 -->
<g id="edge9_Node000002_Node000010" class="edge">
<title>Node2&#45;&gt;Node10</title>
<g id="a_edge9_Node000002_Node000010"><a xlink:title=" ">
<path fill="none" stroke="#63b8ff" d="M325.75,-150.18C351.57,-140.68 385.25,-128.42 415.25,-117.88 420.54,-116.02 426.04,-114.11 431.56,-112.21"/>
<polygon fill="#63b8ff" stroke="#63b8ff" points="432.37,-115.63 440.7,-109.08 430.1,-109.01 432.37,-115.63"/>
</a>
</g>
</g>
<!-- Node11 -->
<g id="Node000011" class="node">
<title>Node11</title>
<g id="a_Node000011"><a xlink:href="../../de/dbe/classml_1_1maths_1_1time__series_1_1_c_time_series_decomposition.html#afdcd8ff75da6b504042205027b9790b8" target="_top" xlink:title=" ">
<polygon fill="white" stroke="#666666" points="562.12,-41.75 417.88,-41.75 417.88,0 562.12,0 562.12,-41.75"/>
<text text-anchor="start" x="425.88" y="-28.25" font-family="Helvetica,sans-Serif" font-size="10.00">ml::maths::time_series</text>
<text text-anchor="start" x="425.88" y="-17" font-family="Helvetica,sans-Serif" font-size="10.00">::CTimeSeriesDecomposition</text>
<text text-anchor="middle" x="490" y="-5.75" font-family="Helvetica,sans-Serif" font-size="10.00">::value</text>
</a>
</g>
</g>
<!-- Node2&#45;&gt;Node11 -->
<g id="edge10_Node000002_Node000011" class="edge">
<title>Node2&#45;&gt;Node11</title>
<g id="a_edge10_Node000002_Node000011"><a xlink:title=" ">
<path fill="none" stroke="#63b8ff" d="M303.67,-150.39C329.34,-130.92 375.06,-96.7 415.25,-68.88 425.05,-62.09 435.74,-54.98 445.85,-48.37"/>
<polygon fill="#63b8ff" stroke="#63b8ff" points="447.57,-51.42 454.05,-43.04 443.76,-45.55 447.57,-51.42"/>
</a>
</g>
</g>
<!-- Node4 -->
<g id="Node000004" class="node">
<title>Node4</title>
<g id="a_Node000004"><a xlink:href="../../d2/d3e/classml_1_1maths_1_1common_1_1_c_integer_tools.html#af6730dab6229fee67aaa34a8290491ad" target="_top" xlink:title=" ">
<polygon fill="white" stroke="#666666" points="740.12,-314.12 631.12,-314.12 631.12,-283.62 740.12,-283.62 740.12,-314.12"/>
<text text-anchor="start" x="639.12" y="-300.62" font-family="Helvetica,sans-Serif" font-size="10.00">ml::maths::common::</text>
<text text-anchor="middle" x="685.62" y="-289.38" font-family="Helvetica,sans-Serif" font-size="10.00">CIntegerTools::floor</text>
</a>
</g>
</g>
<!-- Node3&#45;&gt;Node4 -->
<g id="edge3_Node000003_Node000004" class="edge">
<title>Node3&#45;&gt;Node4</title>
<g id="a_edge3_Node000003_Node000004"><a xlink:title=" ">
<path fill="none" stroke="#63b8ff" d="M565.03,-298.88C582.98,-298.88 602.04,-298.88 619.55,-298.88"/>
<polygon fill="#63b8ff" stroke="#63b8ff" points="619.29,-302.38 629.29,-298.88 619.29,-295.38 619.29,-302.38"/>
</a>
</g>
</g>
<!-- Node6 -->
<g id="Node000006" class="node">
<title>Node6</title>
<g id="a_Node000006"><a xlink:href="../../de/d9a/classml_1_1maths_1_1time__series_1_1_c_time_series_decomposition_detail_1_1_c_components.html#a484f8f20b8acc0e40b845689835786f1" target="_top" xlink:title="Check if the decomposition has any initialized components.">
<polygon fill="white" stroke="#666666" points="770.5,-265.75 600.75,-265.75 600.75,-224 770.5,-224 770.5,-265.75"/>
<text text-anchor="start" x="608.75" y="-252.25" font-family="Helvetica,sans-Serif" font-size="10.00">ml::maths::time_series</text>
<text text-anchor="start" x="608.75" y="-241" font-family="Helvetica,sans-Serif" font-size="10.00">::CTimeSeriesDecompositionDetail</text>
<text text-anchor="middle" x="685.62" y="-229.75" font-family="Helvetica,sans-Serif" font-size="10.00">::CComponents::initialized</text>
</a>
</g>
</g>
<!-- Node5&#45;&gt;Node6 -->
<g id="edge5_Node000005_Node000006" class="edge">
<title>Node5&#45;&gt;Node6</title>
<g id="a_edge5_Node000005_Node000006"><a xlink:title=" ">
<path fill="none" stroke="#63b8ff" d="M562.55,-244.88C571.18,-244.88 580.11,-244.88 589.02,-244.88"/>
<polygon fill="#63b8ff" stroke="#63b8ff" points="588.76,-248.38 598.76,-244.88 588.76,-241.38 588.76,-248.38"/>
</a>
</g>
</g>
<!-- Node9 -->
<g id="Node000009" class="node">
<title>Node9</title>
<g id="a_Node000009"><a xlink:href="../../d8/d97/structml_1_1maths_1_1common_1_1linear__algebra__detail_1_1_s_vector.html#ada04f2e25f36a218828e4742dd9cfafa" target="_top" xlink:title=" ">
<polygon fill="white" stroke="#666666" points="740.12,-168.38 631.12,-168.38 631.12,-115.38 740.12,-115.38 740.12,-168.38"/>
<text text-anchor="start" x="639.12" y="-154.88" font-family="Helvetica,sans-Serif" font-size="10.00">ml::maths::common::</text>
<text text-anchor="start" x="639.12" y="-143.62" font-family="Helvetica,sans-Serif" font-size="10.00">linear_algebra_detail</text>
<text text-anchor="start" x="639.12" y="-132.38" font-family="Helvetica,sans-Serif" font-size="10.00">::SVector&lt; std::array</text>
<text text-anchor="middle" x="685.62" y="-121.12" font-family="Helvetica,sans-Serif" font-size="10.00">&lt; T, N &gt; &gt;::mean</text>
</a>
</g>
</g>
<!-- Node8&#45;&gt;Node9 -->
<g id="edge8_Node000008_Node000009" class="edge">
<title>Node8&#45;&gt;Node9</title>
<g id="a_edge8_Node000008_Node000009"><a xlink:title=" ">
<path fill="none" stroke="#63b8ff" d="M544.94,-141.88C568.02,-141.88 595.19,-141.88 619.39,-141.88"/>
<polygon fill="#63b8ff" stroke="#63b8ff" points="619.13,-145.38 629.13,-141.88 619.13,-138.38 619.13,-145.38"/>
</a>
</g>
</g>
<!-- Node11&#45;&gt;Node11 -->
<g id="edge12_Node000011_Node000011" class="edge">
<title>Node11&#45;&gt;Node11</title>
<g id="a_edge12_Node000011_Node000011"><a xlink:title=" ">
<path fill="none" stroke="#63b8ff" d="M453.89,-42.07C450.45,-51.55 462.49,-59.75 490,-59.75 505.9,-59.75 516.64,-57.01 522.2,-52.86"/>
<polygon fill="#63b8ff" stroke="#63b8ff" points="525.48,-54.09 525.59,-43.49 518.9,-51.7 525.48,-54.09"/>
</a>
</g>
</g>
<!-- Node12 -->
<g id="Node000012" class="node">
<title>Node12</title>
<g id="a_Node000012"><a xlink:href="../../d6/dd5/namespaceml_1_1maths_1_1common.html#aa45d10b6e40c1949cbc383c2ec4980c2" target="_top" xlink:title="Overload maximum for CVectorNx1.">
<polygon fill="white" stroke="#666666" points="749.5,-30.5 621.75,-30.5 621.75,-11.25 749.5,-11.25 749.5,-30.5"/>
<text text-anchor="middle" x="685.62" y="-17" font-family="Helvetica,sans-Serif" font-size="10.00">ml::maths::common::max</text>
</a>
</g>
</g>
<!-- Node11&#45;&gt;Node12 -->
<g id="edge11_Node000011_Node000012" class="edge">
<title>Node11&#45;&gt;Node12</title>
<g id="a_edge11_Node000011_Node000012"><a xlink:title=" ">
<path fill="none" stroke="#63b8ff" d="M562.55,-20.88C578.07,-20.88 594.51,-20.88 610.14,-20.88"/>
<polygon fill="#63b8ff" stroke="#63b8ff" points="609.84,-24.38 619.84,-20.88 609.84,-17.38 609.84,-24.38"/>
</a>
</g>
</g>
</g>
</svg>

<g id="navigator" transform="translate(0 0)" fill="#404254">
  <rect fill="#f2f5e9" fill-opacity="0.5" stroke="#606060" stroke-width=".5" x="0" y="0" width="60" height="60"/>
  <use id="zoomplus" xlink:href="#zoomPlus" x="17" y="9" onmousedown="handleZoom(evt,'in')"/>
  <use id="zoomminus" xlink:href="#zoomMin" x="42" y="9" onmousedown="handleZoom(evt,'out')"/>
  <use id="reset" xlink:href="#resetDef" x="30" y="36" onmousedown="handleReset()"/>
   <use id="arrowup" xlink:href="#arrowUp" x="0" y="0" onmousedown="handlePan(0,-1)"/>
  <use id="arrowright" xlink:href="#arrowRight" x="0" y="0" onmousedown="handlePan(1,0)"/>
  <use id="arrowdown" xlink:href="#arrowDown" x="0" y="0" onmousedown="handlePan(0,1)"/>
  <use id="arrowleft" xlink:href="#arrowLeft" x="0" y="0" onmousedown="handlePan(-1,0)"/>
</g>
<svg viewBox="0 0 15 15" width="100%" height="30px" preserveAspectRatio="xMaxYMin meet">
 <g id="arrow_out" transform="scale(0.3 0.3)">
  <a xlink:href="classml_1_1model_1_1_c_interim_bucket_corrector_a855652769684962d96e28a346873cc62_cgraph_org.svg" target="_base">
   <rect id="button" ry="5" rx="5" y="6" x="6" height="38" width="38"
        fill="#f2f5e9" fill-opacity="0.5" stroke="#606060" stroke-width="1.0"/>
   <path id="arrow"
     d="M 11.500037,31.436501 C 11.940474,20.09759 22.043105,11.32322 32.158766,21.979434 L 37.068811,17.246167 C 37.068811,17.246167 37.088388,32 37.088388,32 L 22.160133,31.978069 C 22.160133,31.978069 26.997745,27.140456 26.997745,27.140456 C 18.528582,18.264221 13.291696,25.230495 11.500037,31.436501 z"
     style="fill:#404040;"/>
  </a>
 </g>
</svg>

<style type='text/css'>
<![CDATA[
[data-mouse-over-selected='false'] { opacity: 0.7; }
[data-mouse-over-selected='true']  { opacity: 1.0; }
]]>
</style>
<script type="application/ecmascript"><![CDATA[
document.addEventListener('DOMContentLoaded', (event) => {
  highlightEdges();
  highlightAdjacentNodes();
});
]]></script>
</svg>
