<?xml version="1.0" encoding="UTF-8" standalone="no"?>
<!DOCTYPE svg PUBLIC "-//W3C//DTD SVG 1.1//EN"
 "http://www.w3.org/Graphics/SVG/1.1/DTD/svg11.dtd">
<!-- Generated by graphviz version 10.0.1 (20240210.2158)
 -->
<!-- Title: include/model/CDataClassifier.h Pages: 1 -->
<!--zoomable 227 -->

<svg id="main" version="1.1" xmlns="http://www.w3.org/2000/svg" xmlns:xlink="http://www.w3.org/1999/xlink" xml:space="preserve" onload="init(evt)">
<style type="text/css"><![CDATA[
.node, .edge {opacity: 0.7;}
.node.selected, .edge.selected {opacity: 1;}
.edge:hover path { stroke: red; }
.edge:hover polygon { stroke: red; fill: red; }
]]></style>

<defs>
  <circle id="rim" cx="0" cy="0" r="7"/>
  <circle id="rim2" cx="0" cy="0" r="3.5"/>
  <g id="zoomPlus">
    <use xlink:href="#rim" fill="#404040"><set attributeName="fill" to="#808080" begin="zoomplus.mouseover" end="zoomplus.mouseout"/></use>
    <path d="M-4,0h8M0,-4v8" fill="none" stroke="white" stroke-width="1.5" pointer-events="none"/>
  </g>
  <g id="zoomMin">
    <use xlink:href="#rim" fill="#404040"><set attributeName="fill" to="#808080" begin="zoomminus.mouseover" end="zoomminus.mouseout"/></use>
    <path d="M-4,0h8" fill="none" stroke="white" stroke-width="1.5" pointer-events="none"/>
  </g>
  <g id="arrowUp" transform="translate(30 24)">
    <use xlink:href="#rim"/>
    <path pointer-events="none" fill="none" stroke="white" stroke-width="1.5" d="M0,-3.0v7 M-2.5,-0.5L0,-3.0L2.5,-0.5"/>
  </g>
  <g id="arrowRight" transform="rotate(90) translate(36 -43)">
    <use xlink:href="#rim"/>
    <path pointer-events="none" fill="none" stroke="white" stroke-width="1.5" d="M0,-3.0v7 M-2.5,-0.5L0,-3.0L2.5,-0.5"/>
  </g>
  <g id="arrowDown" transform="rotate(180) translate(-30 -48)">
    <use xlink:href="#rim"/>
    <path pointer-events="none" fill="none" stroke="white" stroke-width="1.5" d="M0,-3.0v7 M-2.5,-0.5L0,-3.0L2.5,-0.5"/>
  </g>
  <g id="arrowLeft" transform="rotate(270) translate(-36 17)">
    <use xlink:href="#rim"/>
    <path pointer-events="none" fill="none" stroke="white" stroke-width="1.5" d="M0,-3.0v7 M-2.5,-0.5L0,-3.0L2.5,-0.5"/>
  </g>
  <g id="resetDef">
    <use xlink:href="#rim2" fill="#404040"><set attributeName="fill" to="#808080" begin="reset.mouseover" end="reset.mouseout"/></use>
  </g>
</defs>
<script type="application/ecmascript">
var viewWidth = 946;
var viewHeight = 227;
var sectionId = 'dynsection-1';
</script>
<script type="application/ecmascript" xlink:href="../../svg.min.js"/>
<svg id="graph" class="graph">
<g id="viewport">
<title>include/model/CDataClassifier.h</title>
<!-- Node1 -->
<g id="Node000001" class="node">
<title>Node1</title>
<g id="a_Node000001"><a xlink:title=" ">
<polygon fill="#999999" stroke="#666666" points="760,-218.75 603.75,-218.75 603.75,-199.5 760,-199.5 760,-218.75"/>
<text text-anchor="middle" x="681.88" y="-205.25" font-family="Helvetica,sans-Serif" font-size="10.00">include/model/CDataClassifier.h</text>
</a>
</g>
</g>
<!-- Node2 -->
<g id="Node000002" class="node">
<title>Node2</title>
<g id="a_Node000002"><a xlink:href="../../df/d06/_c_gatherer_tools_8h.html" target="_top" xlink:title=" ">
<polygon fill="white" stroke="#666666" points="601.62,-97 446.12,-97 446.12,-77.75 601.62,-77.75 601.62,-97"/>
<text text-anchor="middle" x="523.88" y="-83.5" font-family="Helvetica,sans-Serif" font-size="10.00">include/model/CGathererTools.h</text>
</a>
</g>
</g>
<!-- Node1&#45;&gt;Node2 -->
<g id="edge1_Node000001_Node000002" class="edge">
<title>Node1&#45;&gt;Node2</title>
<g id="a_edge1_Node000001_Node000002"><a xlink:title=" ">
<path fill="none" stroke="#63b8ff" d="M646.75,-194.7C629.06,-187.03 607.82,-176.36 590.88,-163.5 564.7,-143.64 540.84,-112.43 530.01,-97.26"/>
<polygon fill="#63b8ff" stroke="#63b8ff" points="645.27,-197.88 655.85,-198.51 647.97,-191.42 645.27,-197.88"/>
</a>
</g>
</g>
<!-- Node9 -->
<g id="Node000009" class="node">
<title>Node9</title>
<g id="a_Node000009"><a xlink:href="../../de/d4d/_c_sample_gatherer_8h.html" target="_top" xlink:title=" ">
<polygon fill="white" stroke="#666666" points="764.12,-163.5 599.62,-163.5 599.62,-144.25 764.12,-144.25 764.12,-163.5"/>
<text text-anchor="middle" x="681.88" y="-150" font-family="Helvetica,sans-Serif" font-size="10.00">include/model/CSampleGatherer.h</text>
</a>
</g>
</g>
<!-- Node1&#45;&gt;Node9 -->
<g id="edge8_Node000001_Node000009" class="edge">
<title>Node1&#45;&gt;Node9</title>
<g id="a_edge8_Node000001_Node000009"><a xlink:title=" ">
<path fill="none" stroke="#63b8ff" d="M681.88,-187.88C681.88,-179.59 681.88,-170.42 681.88,-163.86"/>
<polygon fill="#63b8ff" stroke="#63b8ff" points="678.38,-187.82 681.88,-197.82 685.38,-187.82 678.38,-187.82"/>
</a>
</g>
</g>
<!-- Node11 -->
<g id="Node000011" class="node">
<title>Node11</title>
<g id="a_Node000011"><a xlink:href="../../da/d68/_c_data_classifier_8cc.html" target="_top" xlink:title=" ">
<polygon fill="white" stroke="#666666" points="923.12,-163.5 782.62,-163.5 782.62,-144.25 923.12,-144.25 923.12,-163.5"/>
<text text-anchor="middle" x="852.88" y="-150" font-family="Helvetica,sans-Serif" font-size="10.00">lib/model/CDataClassifier.cc</text>
</a>
</g>
</g>
<!-- Node1&#45;&gt;Node11 -->
<g id="edge12_Node000001_Node000011" class="edge">
<title>Node1&#45;&gt;Node11</title>
<g id="a_edge12_Node000001_Node000011"><a xlink:title=" ">
<path fill="none" stroke="#63b8ff" d="M721.81,-195.69C753.02,-185.97 795.67,-172.69 823.72,-163.95"/>
<polygon fill="#63b8ff" stroke="#63b8ff" points="720.84,-192.33 712.33,-198.64 722.92,-199.01 720.84,-192.33"/>
</a>
</g>
</g>
<!-- Node3 -->
<g id="Node000003" class="node">
<title>Node3</title>
<g id="a_Node000003"><a xlink:href="../../d0/dad/_c_gatherer_tools_8cc.html" target="_top" xlink:title=" ">
<polygon fill="white" stroke="#666666" points="139.75,-24.88 0,-24.88 0,-5.63 139.75,-5.63 139.75,-24.88"/>
<text text-anchor="middle" x="69.88" y="-11.38" font-family="Helvetica,sans-Serif" font-size="10.00">lib/model/CGathererTools.cc</text>
</a>
</g>
</g>
<!-- Node2&#45;&gt;Node3 -->
<g id="edge2_Node000002_Node000003" class="edge">
<title>Node2&#45;&gt;Node3</title>
<g id="a_edge2_Node000002_Node000003"><a xlink:title=" ">
<path fill="none" stroke="#63b8ff" d="M447.42,-75.68C371.56,-64.91 252.04,-47.49 148.88,-30.5 139.11,-28.89 128.69,-27.08 118.72,-25.3"/>
<polygon fill="#63b8ff" stroke="#63b8ff" points="446.85,-79.14 457.25,-77.07 447.84,-72.2 446.85,-79.14"/>
</a>
</g>
</g>
<!-- Node4 -->
<g id="Node000004" class="node">
<title>Node4</title>
<g id="a_Node000004"><a xlink:href="../../d3/de2/_c_metric_bucket_gatherer_8cc.html" target="_top" xlink:title=" ">
<polygon fill="white" stroke="#666666" points="937.62,-24.88 764.12,-24.88 764.12,-5.63 937.62,-5.63 937.62,-24.88"/>
<text text-anchor="middle" x="850.88" y="-11.38" font-family="Helvetica,sans-Serif" font-size="10.00">lib/model/CMetricBucketGatherer.cc</text>
</a>
</g>
</g>
<!-- Node2&#45;&gt;Node4 -->
<g id="edge3_Node000002_Node000004" class="edge">
<title>Node2&#45;&gt;Node4</title>
<g id="a_edge3_Node000002_Node000004"><a xlink:title=" ">
<path fill="none" stroke="#63b8ff" d="M573.7,-74.83C585.85,-72.06 598.82,-69.14 610.88,-66.5 678.87,-51.62 757.91,-35.25 806.15,-25.36"/>
<polygon fill="#63b8ff" stroke="#63b8ff" points="573.26,-71.34 564.29,-76.98 574.82,-78.16 573.26,-71.34"/>
</a>
</g>
</g>
<!-- Node5 -->
<g id="Node000005" class="node">
<title>Node5</title>
<g id="a_Node000005"><a xlink:href="../../d3/d54/_c_metric_model_8cc.html" target="_top" xlink:title=" ">
<polygon fill="white" stroke="#666666" points="290,-24.88 157.75,-24.88 157.75,-5.63 290,-5.63 290,-24.88"/>
<text text-anchor="middle" x="223.88" y="-11.38" font-family="Helvetica,sans-Serif" font-size="10.00">lib/model/CMetricModel.cc</text>
</a>
</g>
</g>
<!-- Node2&#45;&gt;Node5 -->
<g id="edge4_Node000002_Node000005" class="edge">
<title>Node2&#45;&gt;Node5</title>
<g id="a_edge4_Node000002_Node000005"><a xlink:title=" ">
<path fill="none" stroke="#63b8ff" d="M473.99,-74.71C414.62,-60.84 316.75,-37.96 262.72,-25.33"/>
<polygon fill="#63b8ff" stroke="#63b8ff" points="472.95,-78.07 483.49,-76.93 474.55,-71.25 472.95,-78.07"/>
</a>
</g>
</g>
<!-- Node6 -->
<g id="Node000006" class="node">
<title>Node6</title>
<g id="a_Node000006"><a xlink:href="../../dd/df6/_c_metric_population_model_8cc.html" target="_top" xlink:title=" ">
<polygon fill="white" stroke="#666666" points="446,-30.5 307.75,-30.5 307.75,0 446,0 446,-30.5"/>
<text text-anchor="start" x="315.75" y="-17" font-family="Helvetica,sans-Serif" font-size="10.00">lib/model/CMetricPopulation</text>
<text text-anchor="middle" x="376.88" y="-5.75" font-family="Helvetica,sans-Serif" font-size="10.00">Model.cc</text>
</a>
</g>
</g>
<!-- Node2&#45;&gt;Node6 -->
<g id="edge5_Node000002_Node000006" class="edge">
<title>Node2&#45;&gt;Node6</title>
<g id="a_edge5_Node000002_Node000006"><a xlink:title=" ">
<path fill="none" stroke="#63b8ff" d="M494.59,-72.41C469.46,-60.42 433.35,-43.19 407.76,-30.98"/>
<polygon fill="#63b8ff" stroke="#63b8ff" points="493.06,-75.55 503.59,-76.7 496.07,-69.23 493.06,-75.55"/>
</a>
</g>
</g>
<!-- Node7 -->
<g id="Node000007" class="node">
<title>Node7</title>
<g id="a_Node000007"><a xlink:href="../../dc/db1/_c_gatherer_tools_test_8cc.html" target="_top" xlink:title=" ">
<polygon fill="white" stroke="#666666" points="583.62,-30.5 464.12,-30.5 464.12,0 583.62,0 583.62,-30.5"/>
<text text-anchor="start" x="472.12" y="-17" font-family="Helvetica,sans-Serif" font-size="10.00">lib/model/unittest</text>
<text text-anchor="middle" x="523.88" y="-5.75" font-family="Helvetica,sans-Serif" font-size="10.00">/CGathererToolsTest.cc</text>
</a>
</g>
</g>
<!-- Node2&#45;&gt;Node7 -->
<g id="edge6_Node000002_Node000007" class="edge">
<title>Node2&#45;&gt;Node7</title>
<g id="a_edge6_Node000002_Node000007"><a xlink:title=" ">
<path fill="none" stroke="#63b8ff" d="M523.88,-66.17C523.88,-54.91 523.88,-41.14 523.88,-30.92"/>
<polygon fill="#63b8ff" stroke="#63b8ff" points="520.38,-65.98 523.88,-75.98 527.38,-65.98 520.38,-65.98"/>
</a>
</g>
</g>
<!-- Node8 -->
<g id="Node000008" class="node">
<title>Node8</title>
<g id="a_Node000008"><a xlink:href="../../df/d7a/_c_metric_data_gatherer_test_8cc.html" target="_top" xlink:title=" ">
<polygon fill="white" stroke="#666666" points="746,-30.5 601.75,-30.5 601.75,0 746,0 746,-30.5"/>
<text text-anchor="start" x="609.75" y="-17" font-family="Helvetica,sans-Serif" font-size="10.00">lib/model/unittest</text>
<text text-anchor="middle" x="673.88" y="-5.75" font-family="Helvetica,sans-Serif" font-size="10.00">/CMetricDataGathererTest.cc</text>
</a>
</g>
</g>
<!-- Node2&#45;&gt;Node8 -->
<g id="edge7_Node000002_Node000008" class="edge">
<title>Node2&#45;&gt;Node8</title>
<g id="a_edge7_Node000002_Node000008"><a xlink:title=" ">
<path fill="none" stroke="#63b8ff" d="M553.41,-72.57C579.07,-60.57 616.13,-43.25 642.36,-30.98"/>
<polygon fill="#63b8ff" stroke="#63b8ff" points="552.13,-69.3 544.55,-76.71 555.09,-75.65 552.13,-69.3"/>
</a>
</g>
</g>
<!-- Node9&#45;&gt;Node2 -->
<g id="edge9_Node000009_Node000002" class="edge">
<title>Node9&#45;&gt;Node2</title>
<g id="a_edge9_Node000009_Node000002"><a xlink:title=" ">
<path fill="none" stroke="#63b8ff" d="M648.92,-139.42C618.07,-126.83 572.83,-108.36 546.06,-97.43"/>
<polygon fill="#63b8ff" stroke="#63b8ff" points="647.59,-142.66 658.17,-143.2 650.24,-136.18 647.59,-142.66"/>
</a>
</g>
</g>
<!-- Node9&#45;&gt;Node4 -->
<g id="edge10_Node000009_Node000004" class="edge">
<title>Node9&#45;&gt;Node4</title>
<g id="a_edge10_Node000009_Node000004"><a xlink:title=" ">
<path fill="none" stroke="#63b8ff" d="M726.39,-140.2C746.31,-133.03 769.24,-122.58 786.88,-108.25 816.32,-84.32 838.04,-43.47 846.72,-25.36"/>
<polygon fill="#63b8ff" stroke="#63b8ff" points="725.45,-136.82 717.11,-143.36 727.71,-143.45 725.45,-136.82"/>
</a>
</g>
</g>
<!-- Node10 -->
<g id="Node000010" class="node">
<title>Node10</title>
<g id="a_Node000010"><a xlink:href="../../dc/d42/_c_metric_population_data_gatherer_test_8cc.html" target="_top" xlink:title=" ">
<polygon fill="white" stroke="#666666" points="777.75,-108.25 620,-108.25 620,-66.5 777.75,-66.5 777.75,-108.25"/>
<text text-anchor="start" x="628" y="-94.75" font-family="Helvetica,sans-Serif" font-size="10.00">lib/model/unittest</text>
<text text-anchor="start" x="628" y="-83.5" font-family="Helvetica,sans-Serif" font-size="10.00">/CMetricPopulationDataGatherer</text>
<text text-anchor="middle" x="698.88" y="-72.25" font-family="Helvetica,sans-Serif" font-size="10.00">Test.cc</text>
</a>
</g>
</g>
<!-- Node9&#45;&gt;Node10 -->
<g id="edge11_Node000009_Node000010" class="edge">
<title>Node9&#45;&gt;Node10</title>
<g id="a_edge11_Node000009_Node000010"><a xlink:title=" ">
<path fill="none" stroke="#63b8ff" d="M687.11,-133C689.15,-125.28 691.48,-116.44 693.52,-108.68"/>
<polygon fill="#63b8ff" stroke="#63b8ff" points="683.79,-131.88 684.62,-142.44 690.56,-133.67 683.79,-131.88"/>
</a>
</g>
</g>
</g>
</svg>

<g id="navigator" transform="translate(0 0)" fill="#404254">
  <rect fill="#f2f5e9" fill-opacity="0.5" stroke="#606060" stroke-width=".5" x="0" y="0" width="60" height="60"/>
  <use id="zoomplus" xlink:href="#zoomPlus" x="17" y="9" onmousedown="handleZoom(evt,'in')"/>
  <use id="zoomminus" xlink:href="#zoomMin" x="42" y="9" onmousedown="handleZoom(evt,'out')"/>
  <use id="reset" xlink:href="#resetDef" x="30" y="36" onmousedown="handleReset()"/>
   <use id="arrowup" xlink:href="#arrowUp" x="0" y="0" onmousedown="handlePan(0,-1)"/>
  <use id="arrowright" xlink:href="#arrowRight" x="0" y="0" onmousedown="handlePan(1,0)"/>
  <use id="arrowdown" xlink:href="#arrowDown" x="0" y="0" onmousedown="handlePan(0,1)"/>
  <use id="arrowleft" xlink:href="#arrowLeft" x="0" y="0" onmousedown="handlePan(-1,0)"/>
</g>
<svg viewBox="0 0 15 15" width="100%" height="30px" preserveAspectRatio="xMaxYMin meet">
 <g id="arrow_out" transform="scale(0.3 0.3)">
  <a xlink:href="_c_data_classifier_8h__dep__incl_org.svg" target="_base">
   <rect id="button" ry="5" rx="5" y="6" x="6" height="38" width="38"
        fill="#f2f5e9" fill-opacity="0.5" stroke="#606060" stroke-width="1.0"/>
   <path id="arrow"
     d="M 11.500037,31.436501 C 11.940474,20.09759 22.043105,11.32322 32.158766,21.979434 L 37.068811,17.246167 C 37.068811,17.246167 37.088388,32 37.088388,32 L 22.160133,31.978069 C 22.160133,31.978069 26.997745,27.140456 26.997745,27.140456 C 18.528582,18.264221 13.291696,25.230495 11.500037,31.436501 z"
     style="fill:#404040;"/>
  </a>
 </g>
</svg>

<style type='text/css'>
<![CDATA[
[data-mouse-over-selected='false'] { opacity: 0.7; }
[data-mouse-over-selected='true']  { opacity: 1.0; }
]]>
</style>
<script type="application/ecmascript"><![CDATA[
document.addEventListener('DOMContentLoaded', (event) => {
  highlightEdges();
  highlightAdjacentNodes();
});
]]></script>
</svg>
