<?xml version="1.0" encoding="UTF-8" standalone="no"?>
<!DOCTYPE svg PUBLIC "-//W3C//DTD SVG 1.1//EN"
 "http://www.w3.org/Graphics/SVG/1.1/DTD/svg11.dtd">
<!-- Generated by graphviz version 10.0.1 (20240210.2158)
 -->
<!-- Title: ml::maths::time_series::CCalendarComponentAdaptiveBucketing::acceptPersistInserter Pages: 1 -->
<svg width="1187pt" height="229pt"
 viewBox="0.00 0.00 1186.50 228.82" xmlns="http://www.w3.org/2000/svg" xmlns:xlink="http://www.w3.org/1999/xlink">
<g id="graph0" class="graph" transform="scale(1 1) rotate(0) translate(4 224.82)">
<title>ml::maths::time_series::CCalendarComponentAdaptiveBucketing::acceptPersistInserter</title>
<!-- Node1 -->
<g id="Node000001" class="node">
<title>Node1</title>
<g id="a_Node000001"><a xlink:title="Persist by passing information to the supplied inserter.">
<polygon fill="#999999" stroke="#666666" points="158.5,-121.12 0,-121.12 0,-79.38 158.5,-79.38 158.5,-121.12"/>
<text text-anchor="start" x="8" y="-107.62" font-family="Helvetica,sans-Serif" font-size="10.00">ml::maths::time_series</text>
<text text-anchor="start" x="8" y="-96.38" font-family="Helvetica,sans-Serif" font-size="10.00">::CCalendarComponentAdaptive</text>
<text text-anchor="middle" x="79.25" y="-85.12" font-family="Helvetica,sans-Serif" font-size="10.00">Bucketing::acceptPersistInserter</text>
</a>
</g>
</g>
<!-- Node2 -->
<g id="Node000002" class="node">
<title>Node2</title>
<g id="a_Node000002"><a xlink:href="../../d7/d17/classml_1_1maths_1_1time__series_1_1_c_adaptive_bucketing.html#a6a792bfd62f5be866d0d38af51199167" target="_top" xlink:title="Get the accept persist function bound to this object.">
<polygon fill="white" stroke="#666666" points="332.38,-175.12 208.38,-175.12 208.38,-133.38 332.38,-133.38 332.38,-175.12"/>
<text text-anchor="start" x="216.38" y="-161.62" font-family="Helvetica,sans-Serif" font-size="10.00">ml::maths::time_series</text>
<text text-anchor="start" x="216.38" y="-150.38" font-family="Helvetica,sans-Serif" font-size="10.00">::CAdaptiveBucketing::</text>
<text text-anchor="middle" x="270.38" y="-139.12" font-family="Helvetica,sans-Serif" font-size="10.00">getAcceptPersistInserter</text>
</a>
</g>
</g>
<!-- Node1&#45;&gt;Node2 -->
<g id="edge1_Node000001_Node000002" class="edge">
<title>Node1&#45;&gt;Node2</title>
<g id="a_edge1_Node000001_Node000002"><a xlink:title=" ">
<path fill="none" stroke="#63b8ff" d="M155,-121.59C168.85,-125.55 183.29,-129.67 197.07,-133.6"/>
<polygon fill="#63b8ff" stroke="#63b8ff" points="195.91,-136.92 206.49,-136.3 197.84,-130.18 195.91,-136.92"/>
</a>
</g>
</g>
<!-- Node4 -->
<g id="Node000004" class="node">
<title>Node4</title>
<g id="a_Node000004"><a xlink:href="../../d6/d96/classml_1_1core_1_1_c_state_persist_inserter.html#a21319d2ecfcb0ab1aceecf2a5a463d3a" target="_top" xlink:title="Store a name/value.">
<polygon fill="white" stroke="#666666" points="735.25,-218.5 583.5,-218.5 583.5,-188 735.25,-188 735.25,-218.5"/>
<text text-anchor="start" x="591.5" y="-205" font-family="Helvetica,sans-Serif" font-size="10.00">ml::core::CStatePersistInserter</text>
<text text-anchor="middle" x="659.38" y="-193.75" font-family="Helvetica,sans-Serif" font-size="10.00">::insertValue</text>
</a>
</g>
</g>
<!-- Node1&#45;&gt;Node4 -->
<g id="edge11_Node000001_Node000004" class="edge">
<title>Node1&#45;&gt;Node4</title>
<g id="a_edge11_Node000001_Node000004"><a xlink:title=" ">
<path fill="none" stroke="#63b8ff" d="M100.72,-121.33C121.99,-141.66 157.33,-171.21 194.5,-184.25 320.02,-228.29 476.5,-223.44 571.84,-214.44"/>
<polygon fill="#63b8ff" stroke="#63b8ff" points="572.05,-217.94 581.66,-213.47 571.36,-210.97 572.05,-217.94"/>
</a>
</g>
</g>
<!-- Node11 -->
<g id="Node000011" class="node">
<title>Node11</title>
<g id="a_Node000011"><a xlink:href="../../d6/d96/classml_1_1core_1_1_c_state_persist_inserter.html#a599589fbf44e55664572fd485a2ac497" target="_top" xlink:title=" ">
<polygon fill="white" stroke="#666666" points="346.25,-115.5 194.5,-115.5 194.5,-85 346.25,-85 346.25,-115.5"/>
<text text-anchor="start" x="202.5" y="-102" font-family="Helvetica,sans-Serif" font-size="10.00">ml::core::CStatePersistInserter</text>
<text text-anchor="middle" x="270.38" y="-90.75" font-family="Helvetica,sans-Serif" font-size="10.00">::insertLevel</text>
</a>
</g>
</g>
<!-- Node1&#45;&gt;Node11 -->
<g id="edge10_Node000001_Node000011" class="edge">
<title>Node1&#45;&gt;Node11</title>
<g id="a_edge10_Node000001_Node000011"><a xlink:title=" ">
<path fill="none" stroke="#63b8ff" d="M158.81,-100.25C166.75,-100.25 174.83,-100.25 182.84,-100.25"/>
<polygon fill="#63b8ff" stroke="#63b8ff" points="182.58,-103.75 192.58,-100.25 182.58,-96.75 182.58,-103.75"/>
</a>
</g>
</g>
<!-- Node12 -->
<g id="Node000012" class="node">
<title>Node12</title>
<g id="a_Node000012"><a xlink:href="../../de/df5/classml_1_1core_1_1_c_persist_utils.html#a82a406707dfde7a86539a04a2437e9e9" target="_top" xlink:title="Persist collection passing state to inserter using tag for elements.">
<polygon fill="white" stroke="#666666" points="328.25,-66.5 212.5,-66.5 212.5,-36 328.25,-36 328.25,-66.5"/>
<text text-anchor="start" x="220.5" y="-53" font-family="Helvetica,sans-Serif" font-size="10.00">ml::core::CPersistUtils</text>
<text text-anchor="middle" x="270.38" y="-41.75" font-family="Helvetica,sans-Serif" font-size="10.00">::persist</text>
</a>
</g>
</g>
<!-- Node1&#45;&gt;Node12 -->
<g id="edge12_Node000001_Node000012" class="edge">
<title>Node1&#45;&gt;Node12</title>
<g id="a_edge12_Node000001_Node000012"><a xlink:title=" ">
<path fill="none" stroke="#63b8ff" d="M158.81,-79.9C172.91,-76.24 187.49,-72.47 201.26,-68.9"/>
<polygon fill="#63b8ff" stroke="#63b8ff" points="201.83,-72.36 210.64,-66.47 200.08,-65.59 201.83,-72.36"/>
</a>
</g>
</g>
<!-- Node13 -->
<g id="Node000013" class="node">
<title>Node13</title>
<g id="a_Node000013"><a xlink:href="../../d9/d43/classml_1_1maths_1_1time__series_1_1_c_calendar_feature.html#a8563020cb3f0bfc8bec78c8cd65c895e" target="_top" xlink:title="Convert to a delimited string.">
<polygon fill="white" stroke="#666666" points="539.25,-30.5 382.25,-30.5 382.25,0 539.25,0 539.25,-30.5"/>
<text text-anchor="start" x="390.25" y="-17" font-family="Helvetica,sans-Serif" font-size="10.00">ml::maths::time_series</text>
<text text-anchor="middle" x="460.75" y="-5.75" font-family="Helvetica,sans-Serif" font-size="10.00">::CCalendarFeature::toDelimited</text>
</a>
</g>
</g>
<!-- Node1&#45;&gt;Node13 -->
<g id="edge13_Node000001_Node000013" class="edge">
<title>Node1&#45;&gt;Node13</title>
<g id="a_edge13_Node000001_Node000013"><a xlink:title=" ">
<path fill="none" stroke="#63b8ff" d="M105.04,-78.9C126.96,-61.46 160.62,-37.99 194.5,-27.25 251.2,-9.28 318.13,-6.38 370.57,-7.92"/>
<polygon fill="#63b8ff" stroke="#63b8ff" points="370.24,-11.41 380.36,-8.27 370.49,-4.41 370.24,-11.41"/>
</a>
</g>
</g>
<!-- Node3 -->
<g id="Node000003" class="node">
<title>Node3</title>
<g id="a_Node000003"><a xlink:href="../../d7/d17/classml_1_1maths_1_1time__series_1_1_c_adaptive_bucketing.html#a092dd41c0e723bf1939f280c99bcc53e" target="_top" xlink:title="Persist by passing information to the supplied inserter.">
<polygon fill="white" stroke="#666666" points="519.38,-170.12 402.12,-170.12 402.12,-128.38 519.38,-128.38 519.38,-170.12"/>
<text text-anchor="start" x="410.12" y="-156.62" font-family="Helvetica,sans-Serif" font-size="10.00">ml::maths::time_series</text>
<text text-anchor="start" x="410.12" y="-145.38" font-family="Helvetica,sans-Serif" font-size="10.00">::CAdaptiveBucketing::</text>
<text text-anchor="middle" x="460.75" y="-134.12" font-family="Helvetica,sans-Serif" font-size="10.00">acceptPersistInserter</text>
</a>
</g>
</g>
<!-- Node2&#45;&gt;Node3 -->
<g id="edge2_Node000002_Node000003" class="edge">
<title>Node2&#45;&gt;Node3</title>
<g id="a_edge2_Node000002_Node000003"><a xlink:title=" ">
<path fill="none" stroke="#63b8ff" d="M332.8,-152.62C351.29,-152.13 371.7,-151.59 390.66,-151.08"/>
<polygon fill="#63b8ff" stroke="#63b8ff" points="390.51,-154.59 400.42,-150.82 390.33,-147.59 390.51,-154.59"/>
</a>
</g>
</g>
<!-- Node3&#45;&gt;Node4 -->
<g id="edge3_Node000003_Node000004" class="edge">
<title>Node3&#45;&gt;Node4</title>
<g id="a_edge3_Node000003_Node000004"><a xlink:title=" ">
<path fill="none" stroke="#63b8ff" d="M519.68,-165.16C541.78,-171.23 567.17,-178.2 590.14,-184.51"/>
<polygon fill="#63b8ff" stroke="#63b8ff" points="589.17,-187.87 599.74,-187.15 591.02,-181.12 589.17,-187.87"/>
</a>
</g>
</g>
<!-- Node5 -->
<g id="Node000005" class="node">
<title>Node5</title>
<g id="a_Node000005"><a xlink:href="../../d0/d3b/classml_1_1maths_1_1common_1_1_c_basic_statistics_1_1_c_order_statistics_stack.html#a6e4d055c5561dd719ef8b826c6ac1dc1" target="_top" xlink:title="Create a member function template so this class works with CPersistUtils::persist.">
<polygon fill="white" stroke="#666666" points="743.5,-170.12 575.25,-170.12 575.25,-128.38 743.5,-128.38 743.5,-170.12"/>
<text text-anchor="start" x="583.25" y="-156.62" font-family="Helvetica,sans-Serif" font-size="10.00">ml::maths::common::</text>
<text text-anchor="start" x="583.25" y="-145.38" font-family="Helvetica,sans-Serif" font-size="10.00">CBasicStatistics::COrderStatistics</text>
<text text-anchor="middle" x="659.38" y="-134.12" font-family="Helvetica,sans-Serif" font-size="10.00">Stack::toDelimited</text>
</a>
</g>
</g>
<!-- Node3&#45;&gt;Node5 -->
<g id="edge4_Node000003_Node000005" class="edge">
<title>Node3&#45;&gt;Node5</title>
<g id="a_edge4_Node000003_Node000005"><a xlink:title=" ">
<path fill="none" stroke="#63b8ff" d="M519.68,-149.25C533.49,-149.25 548.59,-149.25 563.58,-149.25"/>
<polygon fill="#63b8ff" stroke="#63b8ff" points="563.48,-152.75 573.48,-149.25 563.48,-145.75 563.48,-152.75"/>
</a>
</g>
</g>
<!-- Node6 -->
<g id="Node000006" class="node">
<title>Node6</title>
<g id="a_Node000006"><a xlink:href="../../dc/dbb/structml_1_1maths_1_1common_1_1_c_basic_statistics_1_1_s_sample_central_moments.html#aaef61f5660b9649997b6fc2879e4bec7" target="_top" xlink:title="Convert to a delimited string.">
<polygon fill="white" stroke="#666666" points="742.75,-110.12 576,-110.12 576,-68.38 742.75,-68.38 742.75,-110.12"/>
<text text-anchor="start" x="584" y="-96.62" font-family="Helvetica,sans-Serif" font-size="10.00">ml::maths::common::</text>
<text text-anchor="start" x="584" y="-85.38" font-family="Helvetica,sans-Serif" font-size="10.00">CBasicStatistics::SSampleCentral</text>
<text text-anchor="middle" x="659.38" y="-74.12" font-family="Helvetica,sans-Serif" font-size="10.00">Moments::toDelimited</text>
</a>
</g>
</g>
<!-- Node3&#45;&gt;Node6 -->
<g id="edge5_Node000003_Node000006" class="edge">
<title>Node3&#45;&gt;Node6</title>
<g id="a_edge5_Node000003_Node000006"><a xlink:title=" ">
<path fill="none" stroke="#63b8ff" d="M519.68,-131.57C537.76,-126.06 558.04,-119.87 577.39,-113.96"/>
<polygon fill="#63b8ff" stroke="#63b8ff" points="578.35,-117.33 586.9,-111.06 576.31,-110.63 578.35,-117.33"/>
</a>
</g>
</g>
<!-- Node10 -->
<g id="Node000010" class="node">
<title>Node10</title>
<g id="a_Node000010"><a xlink:href="../../de/df5/classml_1_1core_1_1_c_persist_utils.html#a518f0e6de0314125f712f6daec7ba0dd" target="_top" xlink:title="Wrapper for containers of built in types.">
<polygon fill="white" stroke="#666666" points="717.25,-43.5 601.5,-43.5 601.5,-13 717.25,-13 717.25,-43.5"/>
<text text-anchor="start" x="609.5" y="-30" font-family="Helvetica,sans-Serif" font-size="10.00">ml::core::CPersistUtils</text>
<text text-anchor="middle" x="659.38" y="-18.75" font-family="Helvetica,sans-Serif" font-size="10.00">::toString</text>
</a>
</g>
</g>
<!-- Node3&#45;&gt;Node10 -->
<g id="edge9_Node000003_Node000010" class="edge">
<title>Node3&#45;&gt;Node10</title>
<g id="a_edge9_Node000003_Node000010"><a xlink:title=" ">
<path fill="none" stroke="#63b8ff" d="M484.12,-127.99C505.97,-108.11 540.86,-78.65 575.25,-59.25 582.35,-55.24 590.07,-51.57 597.85,-48.26"/>
<polygon fill="#63b8ff" stroke="#63b8ff" points="599.08,-51.54 607.03,-44.54 596.45,-45.05 599.08,-51.54"/>
</a>
</g>
</g>
<!-- Node7 -->
<g id="Node000007" class="node">
<title>Node7</title>
<g id="a_Node000007"><a xlink:href="../../d4/dba/namespaceml_1_1maths_1_1common_1_1basic__statistics__detail.html#a89ea1ef7f82c3dba1c2cd58ab2ff09f8" target="_top" xlink:title="Function to do conversion to a string.">
<polygon fill="white" stroke="#666666" points="892.25,-110.12 779.5,-110.12 779.5,-68.38 892.25,-68.38 892.25,-110.12"/>
<text text-anchor="start" x="787.5" y="-96.62" font-family="Helvetica,sans-Serif" font-size="10.00">ml::maths::common::</text>
<text text-anchor="start" x="787.5" y="-85.38" font-family="Helvetica,sans-Serif" font-size="10.00">basic_statistics_detail</text>
<text text-anchor="middle" x="835.88" y="-74.12" font-family="Helvetica,sans-Serif" font-size="10.00">::typeToString</text>
</a>
</g>
</g>
<!-- Node6&#45;&gt;Node7 -->
<g id="edge6_Node000006_Node000007" class="edge">
<title>Node6&#45;&gt;Node7</title>
<g id="a_edge6_Node000006_Node000007"><a xlink:title=" ">
<path fill="none" stroke="#63b8ff" d="M743.03,-89.25C751.41,-89.25 759.85,-89.25 768.03,-89.25"/>
<polygon fill="#63b8ff" stroke="#63b8ff" points="767.89,-92.75 777.89,-89.25 767.89,-85.75 767.89,-92.75"/>
</a>
</g>
</g>
<!-- Node8 -->
<g id="Node000008" class="node">
<title>Node8</title>
<g id="a_Node000008"><a xlink:href="../../d1/dfa/classml_1_1core_1_1_c_string_utils.html#a17d4f57243425912a8b30e144a698df1" target="_top" xlink:title="Convert a double to a string with the specified precision.">
<polygon fill="white" stroke="#666666" points="1038.75,-104.5 928.25,-104.5 928.25,-74 1038.75,-74 1038.75,-104.5"/>
<text text-anchor="start" x="936.25" y="-91" font-family="Helvetica,sans-Serif" font-size="10.00">ml::core::CStringUtils</text>
<text text-anchor="middle" x="983.5" y="-79.75" font-family="Helvetica,sans-Serif" font-size="10.00">::typeToStringPrecise</text>
</a>
</g>
</g>
<!-- Node7&#45;&gt;Node8 -->
<g id="edge7_Node000007_Node000008" class="edge">
<title>Node7&#45;&gt;Node8</title>
<g id="a_edge7_Node000007_Node000008"><a xlink:title=" ">
<path fill="none" stroke="#63b8ff" d="M892.34,-89.25C900.32,-89.25 908.59,-89.25 916.74,-89.25"/>
<polygon fill="#63b8ff" stroke="#63b8ff" points="916.63,-92.75 926.63,-89.25 916.63,-85.75 916.63,-92.75"/>
</a>
</g>
</g>
<!-- Node9 -->
<g id="Node000009" class="node">
<title>Node9</title>
<g id="a_Node000009"><a xlink:href="../../d2/d08/classml_1_1core_1_1_c_i_e_e_e754.html#a1a14ca6caea95a6f76caf65b824b9e2c" target="_top" xlink:title=" ">
<polygon fill="white" stroke="#666666" points="1178.5,-104.5 1074.75,-104.5 1074.75,-74 1178.5,-74 1178.5,-104.5"/>
<text text-anchor="start" x="1082.75" y="-91" font-family="Helvetica,sans-Serif" font-size="10.00">ml::core::CIEEE754</text>
<text text-anchor="middle" x="1126.62" y="-79.75" font-family="Helvetica,sans-Serif" font-size="10.00">::round</text>
</a>
</g>
</g>
<!-- Node8&#45;&gt;Node9 -->
<g id="edge8_Node000008_Node000009" class="edge">
<title>Node8&#45;&gt;Node9</title>
<g id="a_edge8_Node000008_Node000009"><a xlink:title=" ">
<path fill="none" stroke="#63b8ff" d="M1039.06,-89.25C1046.97,-89.25 1055.16,-89.25 1063.21,-89.25"/>
<polygon fill="#63b8ff" stroke="#63b8ff" points="1062.93,-92.75 1072.93,-89.25 1062.93,-85.75 1062.93,-92.75"/>
</a>
</g>
</g>
<!-- Node13&#45;&gt;Node10 -->
<g id="edge14_Node000013_Node000010" class="edge">
<title>Node13&#45;&gt;Node10</title>
<g id="a_edge14_Node000013_Node000010"><a xlink:title=" ">
<path fill="none" stroke="#63b8ff" d="M539.74,-20.41C556.38,-21.51 573.83,-22.66 590.08,-23.73"/>
<polygon fill="#63b8ff" stroke="#63b8ff" points="589.38,-27.2 599.59,-24.36 589.85,-20.21 589.38,-27.2"/>
</a>
</g>
</g>
</g>
</svg>
