<?xml version="1.0" encoding="UTF-8" standalone="no"?>
<!DOCTYPE svg PUBLIC "-//W3C//DTD SVG 1.1//EN"
 "http://www.w3.org/Graphics/SVG/1.1/DTD/svg11.dtd">
<!-- Generated by graphviz version 10.0.1 (20240210.2158)
 -->
<!-- Title: ml::maths::time_series::CCalendarComponentAdaptiveBucketing::memoryUsage Pages: 1 -->
<!--zoomable 128 -->

<svg id="main" version="1.1" xmlns="http://www.w3.org/2000/svg" xmlns:xlink="http://www.w3.org/1999/xlink" xml:space="preserve" onload="init(evt)">
<style type="text/css"><![CDATA[
.node, .edge {opacity: 0.7;}
.node.selected, .edge.selected {opacity: 1;}
.edge:hover path { stroke: red; }
.edge:hover polygon { stroke: red; fill: red; }
]]></style>

<defs>
  <circle id="rim" cx="0" cy="0" r="7"/>
  <circle id="rim2" cx="0" cy="0" r="3.5"/>
  <g id="zoomPlus">
    <use xlink:href="#rim" fill="#404040"><set attributeName="fill" to="#808080" begin="zoomplus.mouseover" end="zoomplus.mouseout"/></use>
    <path d="M-4,0h8M0,-4v8" fill="none" stroke="white" stroke-width="1.5" pointer-events="none"/>
  </g>
  <g id="zoomMin">
    <use xlink:href="#rim" fill="#404040"><set attributeName="fill" to="#808080" begin="zoomminus.mouseover" end="zoomminus.mouseout"/></use>
    <path d="M-4,0h8" fill="none" stroke="white" stroke-width="1.5" pointer-events="none"/>
  </g>
  <g id="arrowUp" transform="translate(30 24)">
    <use xlink:href="#rim"/>
    <path pointer-events="none" fill="none" stroke="white" stroke-width="1.5" d="M0,-3.0v7 M-2.5,-0.5L0,-3.0L2.5,-0.5"/>
  </g>
  <g id="arrowRight" transform="rotate(90) translate(36 -43)">
    <use xlink:href="#rim"/>
    <path pointer-events="none" fill="none" stroke="white" stroke-width="1.5" d="M0,-3.0v7 M-2.5,-0.5L0,-3.0L2.5,-0.5"/>
  </g>
  <g id="arrowDown" transform="rotate(180) translate(-30 -48)">
    <use xlink:href="#rim"/>
    <path pointer-events="none" fill="none" stroke="white" stroke-width="1.5" d="M0,-3.0v7 M-2.5,-0.5L0,-3.0L2.5,-0.5"/>
  </g>
  <g id="arrowLeft" transform="rotate(270) translate(-36 17)">
    <use xlink:href="#rim"/>
    <path pointer-events="none" fill="none" stroke="white" stroke-width="1.5" d="M0,-3.0v7 M-2.5,-0.5L0,-3.0L2.5,-0.5"/>
  </g>
  <g id="resetDef">
    <use xlink:href="#rim2" fill="#404040"><set attributeName="fill" to="#808080" begin="reset.mouseover" end="reset.mouseout"/></use>
  </g>
</defs>
<script type="application/ecmascript">
var viewWidth = 849;
var viewHeight = 128;
var sectionId = 'dynsection-27';
</script>
<script type="application/ecmascript" xlink:href="../../svg.min.js"/>
<svg id="graph" class="graph">
<g id="viewport">
<title>ml::maths::time_series::CCalendarComponentAdaptiveBucketing::memoryUsage</title>
<!-- Node1 -->
<g id="Node000001" class="node">
<title>Node1</title>
<g id="a_Node000001"><a xlink:title="Get the memory used by this component.">
<polygon fill="#999999" stroke="#666666" points="157,-65.75 0,-65.75 0,-24 157,-24 157,-65.75"/>
<text text-anchor="start" x="8" y="-52.25" font-family="Helvetica,sans-Serif" font-size="10.00">ml::maths::time_series</text>
<text text-anchor="start" x="8" y="-41" font-family="Helvetica,sans-Serif" font-size="10.00">::CCalendarComponentAdaptive</text>
<text text-anchor="middle" x="78.5" y="-29.75" font-family="Helvetica,sans-Serif" font-size="10.00">Bucketing::memoryUsage</text>
</a>
</g>
</g>
<!-- Node2 -->
<g id="Node000002" class="node">
<title>Node2</title>
<g id="a_Node000002"><a xlink:href="../../d0/d74/namespaceml_1_1core_1_1memory.html#a50fe883268170c17625e18a0c5fea04b" target="_top" xlink:title="Default implementation for non&#45;pointer types.">
<polygon fill="white" stroke="#666666" points="501,-54.5 346.25,-54.5 346.25,-35.25 501,-35.25 501,-54.5"/>
<text text-anchor="middle" x="423.62" y="-41" font-family="Helvetica,sans-Serif" font-size="10.00">ml::core::memory::dynamicSize</text>
</a>
</g>
</g>
<!-- Node1&#45;&gt;Node2 -->
<g id="edge1_Node000001_Node000002" class="edge">
<title>Node1&#45;&gt;Node2</title>
<g id="a_edge1_Node000001_Node000002"><a xlink:title=" ">
<path fill="none" stroke="#63b8ff" d="M157.32,-49.53C169.27,-50.09 181.46,-50.57 193,-50.88 245.09,-52.25 258.16,-52.26 310.25,-50.88 318.17,-50.66 326.4,-50.37 334.65,-50.02"/>
<polygon fill="#63b8ff" stroke="#63b8ff" points="334.53,-53.53 344.36,-49.59 334.22,-46.54 334.53,-53.53"/>
</a>
</g>
</g>
<!-- Node6 -->
<g id="Node000006" class="node">
<title>Node6</title>
<g id="a_Node000006"><a xlink:href="../../d7/d17/classml_1_1maths_1_1time__series_1_1_c_adaptive_bucketing.html#afddd43799ed1941b8eb5aab45f1c028c" target="_top" xlink:title="Get the memory used by this component.">
<polygon fill="white" stroke="#666666" points="310.25,-41.75 193,-41.75 193,0 310.25,0 310.25,-41.75"/>
<text text-anchor="start" x="201" y="-28.25" font-family="Helvetica,sans-Serif" font-size="10.00">ml::maths::time_series</text>
<text text-anchor="start" x="201" y="-17" font-family="Helvetica,sans-Serif" font-size="10.00">::CAdaptiveBucketing::</text>
<text text-anchor="middle" x="251.62" y="-5.75" font-family="Helvetica,sans-Serif" font-size="10.00">memoryUsage</text>
</a>
</g>
</g>
<!-- Node1&#45;&gt;Node6 -->
<g id="edge6_Node000001_Node000006" class="edge">
<title>Node1&#45;&gt;Node6</title>
<g id="a_edge6_Node000001_Node000006"><a xlink:title=" ">
<path fill="none" stroke="#63b8ff" d="M157.05,-34C165.17,-32.86 173.38,-31.71 181.39,-30.59"/>
<polygon fill="#63b8ff" stroke="#63b8ff" points="181.64,-34.08 191.06,-29.23 180.67,-27.15 181.64,-34.08"/>
</a>
</g>
</g>
<!-- Node3 -->
<g id="Node000003" class="node">
<title>Node3</title>
<g id="a_Node000003"><a xlink:href="../../d9/d0b/structml_1_1core_1_1memory__detail_1_1_s_memory_dynamic_size.html#a49a680749a1d1861b69990d788154833" target="_top" xlink:title=" ">
<polygon fill="white" stroke="#666666" points="665.5,-119.75 537,-119.75 537,-78 665.5,-78 665.5,-119.75"/>
<text text-anchor="start" x="545" y="-106.25" font-family="Helvetica,sans-Serif" font-size="10.00">ml::core::memory_detail</text>
<text text-anchor="start" x="545" y="-95" font-family="Helvetica,sans-Serif" font-size="10.00">::SMemoryDynamicSize::</text>
<text text-anchor="middle" x="601.25" y="-83.75" font-family="Helvetica,sans-Serif" font-size="10.00">dispatch</text>
</a>
</g>
</g>
<!-- Node2&#45;&gt;Node3 -->
<g id="edge2_Node000002_Node000003" class="edge">
<title>Node2&#45;&gt;Node3</title>
<g id="a_edge2_Node000002_Node000003"><a xlink:title=" ">
<path fill="none" stroke="#63b8ff" d="M457.25,-54.91C476.52,-60.83 501.75,-68.59 525.64,-75.94"/>
<polygon fill="#63b8ff" stroke="#63b8ff" points="524.47,-79.24 535.06,-78.83 526.53,-72.55 524.47,-79.24"/>
</a>
</g>
</g>
<!-- Node4 -->
<g id="Node000004" class="node">
<title>Node4</title>
<g id="a_Node000004"><a xlink:href="../../db/df7/namespaceml_1_1core_1_1memory__detail.html#ac2d4d02cd0f6d8d7d1355958a49fce43" target="_top" xlink:title="Check if we expect an overloaded dynamicSize function.">
<polygon fill="white" stroke="#666666" points="664,-60.12 538.5,-60.12 538.5,-29.62 664,-29.62 664,-60.12"/>
<text text-anchor="start" x="546.5" y="-46.62" font-family="Helvetica,sans-Serif" font-size="10.00">ml::core::memory_detail</text>
<text text-anchor="middle" x="601.25" y="-35.38" font-family="Helvetica,sans-Serif" font-size="10.00">::expectMemoryOverload</text>
</a>
</g>
</g>
<!-- Node2&#45;&gt;Node4 -->
<g id="edge3_Node000002_Node000004" class="edge">
<title>Node2&#45;&gt;Node4</title>
<g id="a_edge3_Node000002_Node000004"><a xlink:title=" ">
<path fill="none" stroke="#63b8ff" d="M501.4,-44.88C509.84,-44.88 518.42,-44.88 526.82,-44.88"/>
<polygon fill="#63b8ff" stroke="#63b8ff" points="526.61,-48.38 536.61,-44.88 526.61,-41.38 526.61,-48.38"/>
</a>
</g>
</g>
<!-- Node5 -->
<g id="Node000005" class="node">
<title>Node5</title>
<g id="a_Node000005"><a xlink:href="../../d2/d21/structml_1_1core_1_1memory__detail_1_1_s_dynamic_size_always_zero.html#a710ac6fc2d5760a396bb2d46a66a73b2" target="_top" xlink:title=" ">
<polygon fill="white" stroke="#666666" points="840.5,-43.75 701.5,-43.75 701.5,-2 840.5,-2 840.5,-43.75"/>
<text text-anchor="start" x="709.5" y="-30.25" font-family="Helvetica,sans-Serif" font-size="10.00">ml::core::memory_detail</text>
<text text-anchor="start" x="709.5" y="-19" font-family="Helvetica,sans-Serif" font-size="10.00">::SDynamicSizeAlwaysZero</text>
<text text-anchor="middle" x="771" y="-7.75" font-family="Helvetica,sans-Serif" font-size="10.00">::value</text>
</a>
</g>
</g>
<!-- Node2&#45;&gt;Node5 -->
<g id="edge5_Node000002_Node000005" class="edge">
<title>Node2&#45;&gt;Node5</title>
<g id="a_edge5_Node000002_Node000005"><a xlink:title=" ">
<path fill="none" stroke="#63b8ff" d="M462.28,-34.76C483.95,-29.46 511.8,-23.54 537,-20.88 593.8,-14.88 608.39,-20.33 665.5,-20.88 673.33,-20.95 681.49,-21.06 689.65,-21.18"/>
<polygon fill="#63b8ff" stroke="#63b8ff" points="689.57,-24.68 699.63,-21.35 689.69,-17.68 689.57,-24.68"/>
</a>
</g>
</g>
<!-- Node4&#45;&gt;Node5 -->
<g id="edge4_Node000004_Node000005" class="edge">
<title>Node4&#45;&gt;Node5</title>
<g id="a_edge4_Node000004_Node000005"><a xlink:title=" ">
<path fill="none" stroke="#63b8ff" d="M664.24,-36.75C672.61,-35.65 681.29,-34.51 689.92,-33.38"/>
<polygon fill="#63b8ff" stroke="#63b8ff" points="690.25,-36.86 699.71,-32.09 689.34,-29.92 690.25,-36.86"/>
</a>
</g>
</g>
<!-- Node6&#45;&gt;Node2 -->
<g id="edge7_Node000006_Node000002" class="edge">
<title>Node6&#45;&gt;Node2</title>
<g id="a_edge7_Node000006_Node000002"><a xlink:title=" ">
<path fill="none" stroke="#63b8ff" d="M310.65,-29.07C320.09,-30.4 330.02,-31.8 339.91,-33.2"/>
<polygon fill="#63b8ff" stroke="#63b8ff" points="339.13,-36.62 349.52,-34.55 340.11,-29.69 339.13,-36.62"/>
</a>
</g>
</g>
</g>
</svg>

<g id="navigator" transform="translate(0 0)" fill="#404254">
  <rect fill="#f2f5e9" fill-opacity="0.5" stroke="#606060" stroke-width=".5" x="0" y="0" width="60" height="60"/>
  <use id="zoomplus" xlink:href="#zoomPlus" x="17" y="9" onmousedown="handleZoom(evt,'in')"/>
  <use id="zoomminus" xlink:href="#zoomMin" x="42" y="9" onmousedown="handleZoom(evt,'out')"/>
  <use id="reset" xlink:href="#resetDef" x="30" y="36" onmousedown="handleReset()"/>
   <use id="arrowup" xlink:href="#arrowUp" x="0" y="0" onmousedown="handlePan(0,-1)"/>
  <use id="arrowright" xlink:href="#arrowRight" x="0" y="0" onmousedown="handlePan(1,0)"/>
  <use id="arrowdown" xlink:href="#arrowDown" x="0" y="0" onmousedown="handlePan(0,1)"/>
  <use id="arrowleft" xlink:href="#arrowLeft" x="0" y="0" onmousedown="handlePan(-1,0)"/>
</g>
<svg viewBox="0 0 15 15" width="100%" height="30px" preserveAspectRatio="xMaxYMin meet">
 <g id="arrow_out" transform="scale(0.3 0.3)">
  <a xlink:href="classml_1_1maths_1_1time__series_1_1_c_calendar_component_adaptive_bucketing_a5be447d89a126c84f3672f8d94bebd11_cgraph_org.svg" target="_base">
   <rect id="button" ry="5" rx="5" y="6" x="6" height="38" width="38"
        fill="#f2f5e9" fill-opacity="0.5" stroke="#606060" stroke-width="1.0"/>
   <path id="arrow"
     d="M 11.500037,31.436501 C 11.940474,20.09759 22.043105,11.32322 32.158766,21.979434 L 37.068811,17.246167 C 37.068811,17.246167 37.088388,32 37.088388,32 L 22.160133,31.978069 C 22.160133,31.978069 26.997745,27.140456 26.997745,27.140456 C 18.528582,18.264221 13.291696,25.230495 11.500037,31.436501 z"
     style="fill:#404040;"/>
  </a>
 </g>
</svg>

<style type='text/css'>
<![CDATA[
[data-mouse-over-selected='false'] { opacity: 0.7; }
[data-mouse-over-selected='true']  { opacity: 1.0; }
]]>
</style>
<script type="application/ecmascript"><![CDATA[
document.addEventListener('DOMContentLoaded', (event) => {
  highlightEdges();
  highlightAdjacentNodes();
});
]]></script>
</svg>
