<?xml version="1.0" encoding="UTF-8" standalone="no"?>
<!DOCTYPE svg PUBLIC "-//W3C//DTD SVG 1.1//EN"
 "http://www.w3.org/Graphics/SVG/1.1/DTD/svg11.dtd">
<!-- Generated by graphviz version 10.0.1 (20240210.2158)
 -->
<!-- Title: ml::maths::common::CXMeansOnline::swap Pages: 1 -->
<svg width="364pt" height="61pt"
 viewBox="0.00 0.00 364.25 60.50" xmlns="http://www.w3.org/2000/svg" xmlns:xlink="http://www.w3.org/1999/xlink">
<g id="graph0" class="graph" transform="scale(1 1) rotate(0) translate(4 56.5)">
<title>ml::maths::common::CXMeansOnline::swap</title>
<!-- Node1 -->
<g id="Node000001" class="node">
<title>Node1</title>
<g id="a_Node000001"><a xlink:title="Efficiently swap the contents of two x&#45;means objects.">
<polygon fill="#999999" stroke="#666666" points="116.5,-30.5 0,-30.5 0,0 116.5,0 116.5,-30.5"/>
<text text-anchor="start" x="8" y="-17" font-family="Helvetica,sans-Serif" font-size="10.00">ml::maths::common::</text>
<text text-anchor="middle" x="58.25" y="-5.75" font-family="Helvetica,sans-Serif" font-size="10.00">CXMeansOnline::swap</text>
</a>
</g>
</g>
<!-- Node2 -->
<g id="Node000002" class="node">
<title>Node2</title>
<g id="a_Node000002"><a xlink:href="../../d5/d42/classml_1_1maths_1_1common_1_1_c_clusterer.html#a6bf5f137b400d73883e777a1ff726080" target="_top" xlink:title="Swap the CClusterer state of two derived objects.">
<polygon fill="white" stroke="#666666" points="261.5,-52.5 152.5,-52.5 152.5,-22 261.5,-22 261.5,-52.5"/>
<text text-anchor="start" x="160.5" y="-39" font-family="Helvetica,sans-Serif" font-size="10.00">ml::maths::common::</text>
<text text-anchor="middle" x="207" y="-27.75" font-family="Helvetica,sans-Serif" font-size="10.00">CClusterer::swap</text>
</a>
</g>
</g>
<!-- Node1&#45;&gt;Node2 -->
<g id="edge1_Node000001_Node000002" class="edge">
<title>Node1&#45;&gt;Node2</title>
<g id="a_edge1_Node000001_Node000002"><a xlink:title=" ">
<path fill="none" stroke="#63b8ff" d="M116.83,-23.88C124.8,-25.08 133.03,-26.31 141.12,-27.52"/>
<polygon fill="#63b8ff" stroke="#63b8ff" points="140.51,-30.97 150.92,-28.99 141.55,-24.05 140.51,-30.97"/>
</a>
</g>
</g>
<!-- Node3 -->
<g id="Node000003" class="node">
<title>Node3</title>
<g id="a_Node000003"><a xlink:href="../../d8/dcc/namespacestd.html#a434882411757f6c0833c939d997bc4e3" target="_top" xlink:title=" ">
<polygon fill="white" stroke="#666666" points="356.25,-24.88 297.5,-24.88 297.5,-5.63 356.25,-5.63 356.25,-24.88"/>
<text text-anchor="middle" x="326.88" y="-11.38" font-family="Helvetica,sans-Serif" font-size="10.00">std::swap</text>
</a>
</g>
</g>
<!-- Node1&#45;&gt;Node3 -->
<g id="edge4_Node000001_Node000003" class="edge">
<title>Node1&#45;&gt;Node3</title>
<g id="a_edge4_Node000001_Node000003"><a xlink:title=" ">
<path fill="none" stroke="#63b8ff" d="M116.95,-13.82C128.71,-13.58 141,-13.37 152.5,-13.25 200.94,-12.73 213.06,-12.5 261.5,-13.25 269.31,-13.37 277.66,-13.58 285.66,-13.81"/>
<polygon fill="#63b8ff" stroke="#63b8ff" points="285.42,-17.3 295.53,-14.12 285.64,-10.31 285.42,-17.3"/>
</a>
</g>
</g>
<!-- Node2&#45;&gt;Node3 -->
<g id="edge2_Node000002_Node000003" class="edge">
<title>Node2&#45;&gt;Node3</title>
<g id="a_edge2_Node000002_Node000003"><a xlink:title=" ">
<path fill="none" stroke="#63b8ff" d="M261.76,-27.22C270,-25.68 278.38,-24.11 286.24,-22.65"/>
<polygon fill="#63b8ff" stroke="#63b8ff" points="286.64,-26.13 295.83,-20.86 285.36,-19.25 286.64,-26.13"/>
</a>
</g>
</g>
<!-- Node3&#45;&gt;Node3 -->
<g id="edge3_Node000003_Node000003" class="edge">
<title>Node3&#45;&gt;Node3</title>
<g id="a_edge3_Node000003_Node000003"><a xlink:title=" ">
<path fill="none" stroke="#63b8ff" d="M308.11,-25.16C299.55,-33.77 305.8,-42.88 326.88,-42.88 338.4,-42.88 345.49,-40.15 348.15,-36.28"/>
<polygon fill="#63b8ff" stroke="#63b8ff" points="351.59,-35.62 345.98,-26.64 344.77,-37.16 351.59,-35.62"/>
</a>
</g>
</g>
</g>
</svg>
