<?xml version="1.0" encoding="UTF-8" standalone="no"?>
<!DOCTYPE svg PUBLIC "-//W3C//DTD SVG 1.1//EN"
 "http://www.w3.org/Graphics/SVG/1.1/DTD/svg11.dtd">
<!-- Generated by graphviz version 10.0.1 (20240210.2158)
 -->
<!-- Title: ml::maths::common::CXMeansOnline::sample Pages: 1 -->
<svg width="445pt" height="57pt"
 viewBox="0.00 0.00 444.50 56.50" xmlns="http://www.w3.org/2000/svg" xmlns:xlink="http://www.w3.org/1999/xlink">

<svg id="main" version="1.1" xmlns="http://www.w3.org/2000/svg" xmlns:xlink="http://www.w3.org/1999/xlink" xml:space="preserve" onload="init(evt)">
<style type="text/css"><![CDATA[
.node, .edge {opacity: 0.7;}
.node.selected, .edge.selected {opacity: 1;}
.edge:hover path { stroke: red; }
.edge:hover polygon { stroke: red; fill: red; }
]]></style>
<script type="application/ecmascript" xlink:href="../../svg.min.js"/>
<svg id="graph" class="graph">
<g id="graph0" class="graph" transform="scale(1 1) rotate(0) translate(4 52.5)">
<title>ml::maths::common::CXMeansOnline::sample</title>
<!-- Node1 -->
<g id="Node000001" class="node">
<title>Node1</title>
<g id="a_Node000001"><a xlink:title=" ">
<polygon fill="#999999" stroke="#666666" points="124.75,-30.5 0,-30.5 0,0 124.75,0 124.75,-30.5"/>
<text text-anchor="start" x="8" y="-17" font-family="Helvetica,sans-Serif" font-size="10.00">ml::maths::common::</text>
<text text-anchor="middle" x="62.38" y="-5.75" font-family="Helvetica,sans-Serif" font-size="10.00">CXMeansOnline::sample</text>
</a>
</g>
</g>
<!-- Node2 -->
<g id="Node000002" class="node">
<title>Node2</title>
<g id="a_Node000002"><a xlink:href="../../d9/db4/classml_1_1maths_1_1common_1_1_c_x_means_online.html#a064fa6dd7a75362d732046a98332c4d6" target="_top" xlink:title=" ">
<polygon fill="white" stroke="#666666" points="283.25,-30.5 160.75,-30.5 160.75,0 283.25,0 283.25,-30.5"/>
<text text-anchor="start" x="168.75" y="-17" font-family="Helvetica,sans-Serif" font-size="10.00">ml::maths::common::</text>
<text text-anchor="middle" x="222" y="-5.75" font-family="Helvetica,sans-Serif" font-size="10.00">CXMeansOnline::cluster</text>
</a>
</g>
</g>
<!-- Node1&#45;&gt;Node2 -->
<g id="edge1_Node000001_Node000002" class="edge">
<title>Node1&#45;&gt;Node2</title>
<g id="a_edge1_Node000001_Node000002"><a xlink:title=" ">
<path fill="none" stroke="#63b8ff" d="M125.22,-15.25C132.99,-15.25 140.98,-15.25 148.89,-15.25"/>
<polygon fill="#63b8ff" stroke="#63b8ff" points="148.85,-18.75 158.85,-15.25 148.85,-11.75 148.85,-18.75"/>
</a>
</g>
</g>
<!-- Node2&#45;&gt;Node2 -->
<g id="edge2_Node000002_Node000002" class="edge">
<title>Node2&#45;&gt;Node2</title>
<g id="a_edge2_Node000002_Node000002"><a xlink:title=" ">
<path fill="none" stroke="#63b8ff" d="M194.38,-30.99C188.74,-40.06 197.95,-48.5 222,-48.5 235.15,-48.5 243.87,-45.97 248.14,-42.2"/>
<polygon fill="#63b8ff" stroke="#63b8ff" points="251.58,-42.86 249.42,-32.49 244.64,-41.94 251.58,-42.86"/>
</a>
</g>
</g>
<!-- Node3 -->
<g id="Node000003" class="node">
<title>Node3</title>
<g id="a_Node000003"><a xlink:href="../../d9/db4/classml_1_1maths_1_1common_1_1_c_x_means_online.html#a3596fdd65798421a6755966082b8d22f" target="_top" xlink:title="The total count of points.">
<polygon fill="white" stroke="#666666" points="436.5,-30.5 319.25,-30.5 319.25,0 436.5,0 436.5,-30.5"/>
<text text-anchor="start" x="327.25" y="-17" font-family="Helvetica,sans-Serif" font-size="10.00">ml::maths::common::</text>
<text text-anchor="middle" x="377.88" y="-5.75" font-family="Helvetica,sans-Serif" font-size="10.00">CXMeansOnline::count</text>
</a>
</g>
</g>
<!-- Node2&#45;&gt;Node3 -->
<g id="edge3_Node000002_Node000003" class="edge">
<title>Node2&#45;&gt;Node3</title>
<g id="a_edge3_Node000002_Node000003"><a xlink:title=" ">
<path fill="none" stroke="#63b8ff" d="M283.37,-8.64C291.33,-8.5 299.53,-8.47 307.62,-8.53"/>
<polygon fill="#63b8ff" stroke="#63b8ff" points="307.38,-12.03 317.43,-8.67 307.48,-5.03 307.38,-12.03"/>
</a>
</g>
</g>
<!-- Node3&#45;&gt;Node2 -->
<g id="edge4_Node000003_Node000002" class="edge">
<title>Node3&#45;&gt;Node2</title>
<g id="a_edge4_Node000003_Node000002"><a xlink:title=" ">
<path fill="none" stroke="#63b8ff" d="M318.94,-21.81C311.04,-21.97 302.86,-22.03 294.75,-21.99"/>
<polygon fill="#63b8ff" stroke="#63b8ff" points="294.93,-18.49 284.89,-21.88 294.85,-25.49 294.93,-18.49"/>
</a>
</g>
</g>
<!-- Node3&#45;&gt;Node3 -->
<g id="edge5_Node000003_Node000003" class="edge">
<title>Node3&#45;&gt;Node3</title>
<g id="a_edge5_Node000003_Node000003"><a xlink:title=" ">
<path fill="none" stroke="#63b8ff" d="M350.25,-30.99C344.62,-40.06 353.82,-48.5 377.88,-48.5 391.03,-48.5 399.74,-45.97 404.02,-42.2"/>
<polygon fill="#63b8ff" stroke="#63b8ff" points="407.46,-42.86 405.3,-32.49 400.52,-41.94 407.46,-42.86"/>
</a>
</g>
</g>
</g>
</svg>
</svg>

<style type='text/css'>
<![CDATA[
[data-mouse-over-selected='false'] { opacity: 0.7; }
[data-mouse-over-selected='true']  { opacity: 1.0; }
]]>
</style>
<script type="application/ecmascript"><![CDATA[
document.addEventListener('DOMContentLoaded', (event) => {
  highlightEdges();
  highlightAdjacentNodes();
});
]]></script>
</svg>
