<?xml version="1.0" encoding="UTF-8" standalone="no"?>
<!DOCTYPE svg PUBLIC "-//W3C//DTD SVG 1.1//EN"
 "http://www.w3.org/Graphics/SVG/1.1/DTD/svg11.dtd">
<!-- Generated by graphviz version 10.0.1 (20240210.2158)
 -->
<!-- Title: ml::maths::common::CXMeansOnline::acceptPersistInserter Pages: 1 -->
<svg width="520pt" height="323pt"
 viewBox="0.00 0.00 520.25 322.75" xmlns="http://www.w3.org/2000/svg" xmlns:xlink="http://www.w3.org/1999/xlink">
<g id="graph0" class="graph" transform="scale(1 1) rotate(0) translate(4 318.75)">
<title>ml::maths::common::CXMeansOnline::acceptPersistInserter</title>
<!-- Node1 -->
<g id="Node000001" class="node">
<title>Node1</title>
<g id="a_Node000001"><a xlink:title="Persist state by passing information to the supplied inserter.">
<polygon fill="#999999" stroke="#666666" points="153.25,-168.75 0,-168.75 0,-127 153.25,-127 153.25,-168.75"/>
<text text-anchor="start" x="8" y="-155.25" font-family="Helvetica,sans-Serif" font-size="10.00">ml::maths::common::</text>
<text text-anchor="start" x="8" y="-144" font-family="Helvetica,sans-Serif" font-size="10.00">CXMeansOnline::acceptPersist</text>
<text text-anchor="middle" x="76.62" y="-132.75" font-family="Helvetica,sans-Serif" font-size="10.00">Inserter</text>
</a>
</g>
</g>
<!-- Node2 -->
<g id="Node000002" class="node">
<title>Node2</title>
<g id="a_Node000002"><a xlink:href="../../d5/d01/classml_1_1maths_1_1common_1_1_c_clusterer_types_1_1_c_index_generator.html#a566dc8ffc6ed1de651bb174789492c10" target="_top" xlink:title="Persist state by passing information to the supplied inserter.">
<polygon fill="white" stroke="#666666" points="359,-314.75 189.25,-314.75 189.25,-273 359,-273 359,-314.75"/>
<text text-anchor="start" x="197.25" y="-301.25" font-family="Helvetica,sans-Serif" font-size="10.00">ml::maths::common::</text>
<text text-anchor="start" x="197.25" y="-290" font-family="Helvetica,sans-Serif" font-size="10.00">CClustererTypes::CIndexGenerator</text>
<text text-anchor="middle" x="274.12" y="-278.75" font-family="Helvetica,sans-Serif" font-size="10.00">::acceptPersistInserter</text>
</a>
</g>
</g>
<!-- Node1&#45;&gt;Node2 -->
<g id="edge1_Node000001_Node000002" class="edge">
<title>Node1&#45;&gt;Node2</title>
<g id="a_edge1_Node000001_Node000002"><a xlink:title=" ">
<path fill="none" stroke="#63b8ff" d="M93.1,-169.16C112.8,-194.88 149.12,-237.92 189.25,-263.88 191.1,-265.07 193,-266.23 194.95,-267.35"/>
<polygon fill="#63b8ff" stroke="#63b8ff" points="193.16,-270.36 203.64,-271.9 196.41,-264.16 193.16,-270.36"/>
</a>
</g>
</g>
<!-- Node4 -->
<g id="Node000004" class="node">
<title>Node4</title>
<g id="a_Node000004"><a xlink:href="../../d9/db4/classml_1_1maths_1_1common_1_1_c_x_means_online.html#a064fa6dd7a75362d732046a98332c4d6" target="_top" xlink:title=" ">
<polygon fill="white" stroke="#666666" points="335.38,-237.12 212.88,-237.12 212.88,-206.62 335.38,-206.62 335.38,-237.12"/>
<text text-anchor="start" x="220.88" y="-223.62" font-family="Helvetica,sans-Serif" font-size="10.00">ml::maths::common::</text>
<text text-anchor="middle" x="274.12" y="-212.38" font-family="Helvetica,sans-Serif" font-size="10.00">CXMeansOnline::cluster</text>
</a>
</g>
</g>
<!-- Node1&#45;&gt;Node4 -->
<g id="edge3_Node000001_Node000004" class="edge">
<title>Node1&#45;&gt;Node4</title>
<g id="a_edge3_Node000001_Node000004"><a xlink:title=" ">
<path fill="none" stroke="#63b8ff" d="M122.72,-169.19C142.85,-178.31 167,-188.71 189.25,-196.88 194.64,-198.85 200.26,-200.79 205.94,-202.66"/>
<polygon fill="#63b8ff" stroke="#63b8ff" points="204.83,-205.98 215.42,-205.69 206.96,-199.31 204.83,-205.98"/>
</a>
</g>
</g>
<!-- Node6 -->
<g id="Node000006" class="node">
<title>Node6</title>
<g id="a_Node000006"><a xlink:href="../../d6/d96/classml_1_1core_1_1_c_state_persist_inserter.html#a599589fbf44e55664572fd485a2ac497" target="_top" xlink:title=" ">
<polygon fill="white" stroke="#666666" points="350,-188.12 198.25,-188.12 198.25,-157.62 350,-157.62 350,-188.12"/>
<text text-anchor="start" x="206.25" y="-174.62" font-family="Helvetica,sans-Serif" font-size="10.00">ml::core::CStatePersistInserter</text>
<text text-anchor="middle" x="274.12" y="-163.38" font-family="Helvetica,sans-Serif" font-size="10.00">::insertLevel</text>
</a>
</g>
</g>
<!-- Node1&#45;&gt;Node6 -->
<g id="edge8_Node000001_Node000006" class="edge">
<title>Node1&#45;&gt;Node6</title>
<g id="a_edge8_Node000001_Node000006"><a xlink:title=" ">
<path fill="none" stroke="#63b8ff" d="M153.49,-157.58C164.32,-158.96 175.54,-160.4 186.56,-161.8"/>
<polygon fill="#63b8ff" stroke="#63b8ff" points="186.08,-165.27 196.44,-163.07 186.97,-158.33 186.08,-165.27"/>
</a>
</g>
</g>
<!-- Node7 -->
<g id="Node000007" class="node">
<title>Node7</title>
<g id="a_Node000007"><a xlink:href="../../d6/d96/classml_1_1core_1_1_c_state_persist_inserter.html#a21319d2ecfcb0ab1aceecf2a5a463d3a" target="_top" xlink:title="Store a name/value.">
<polygon fill="white" stroke="#666666" points="350,-139.12 198.25,-139.12 198.25,-108.62 350,-108.62 350,-139.12"/>
<text text-anchor="start" x="206.25" y="-125.62" font-family="Helvetica,sans-Serif" font-size="10.00">ml::core::CStatePersistInserter</text>
<text text-anchor="middle" x="274.12" y="-114.38" font-family="Helvetica,sans-Serif" font-size="10.00">::insertValue</text>
</a>
</g>
</g>
<!-- Node1&#45;&gt;Node7 -->
<g id="edge9_Node000001_Node000007" class="edge">
<title>Node1&#45;&gt;Node7</title>
<g id="a_edge9_Node000001_Node000007"><a xlink:title=" ">
<path fill="none" stroke="#63b8ff" d="M153.49,-138.56C164.32,-137.23 175.54,-135.86 186.56,-134.5"/>
<polygon fill="#63b8ff" stroke="#63b8ff" points="186.94,-137.98 196.44,-133.29 186.09,-131.03 186.94,-137.98"/>
</a>
</g>
</g>
<!-- Node8 -->
<g id="Node000008" class="node">
<title>Node8</title>
<g id="a_Node000008"><a xlink:href="../../d5/d2c/classml_1_1core_1_1_c_float_storage.html#a7c35fbd89f1e059926cccf0d53d6f62f" target="_top" xlink:title="Convert to a string.">
<polygon fill="white" stroke="#666666" points="334.25,-90.12 214,-90.12 214,-59.62 334.25,-59.62 334.25,-90.12"/>
<text text-anchor="start" x="222" y="-76.62" font-family="Helvetica,sans-Serif" font-size="10.00">ml::core::CFloatStorage</text>
<text text-anchor="middle" x="274.12" y="-65.38" font-family="Helvetica,sans-Serif" font-size="10.00">::toString</text>
</a>
</g>
</g>
<!-- Node1&#45;&gt;Node8 -->
<g id="edge10_Node000001_Node000008" class="edge">
<title>Node1&#45;&gt;Node8</title>
<g id="a_edge10_Node000001_Node000008"><a xlink:title=" ">
<path fill="none" stroke="#63b8ff" d="M123.85,-126.57C143.76,-117.76 167.44,-107.79 189.25,-99.88 194.87,-97.84 200.75,-95.83 206.67,-93.9"/>
<polygon fill="#63b8ff" stroke="#63b8ff" points="207.42,-97.34 215.89,-90.97 205.3,-90.67 207.42,-97.34"/>
</a>
</g>
</g>
<!-- Node9 -->
<g id="Node000009" class="node">
<title>Node9</title>
<g id="a_Node000009"><a xlink:href="../../d8/dca/classml_1_1maths_1_1common_1_1_c_p_r_n_g_1_1_c_xor_o_shiro128_plus.html#ade2dfc116d155a15eb089bf70a67e174" target="_top" xlink:title="Persist to a string.">
<polygon fill="white" stroke="#666666" points="347.38,-41.75 200.88,-41.75 200.88,0 347.38,0 347.38,-41.75"/>
<text text-anchor="start" x="208.88" y="-28.25" font-family="Helvetica,sans-Serif" font-size="10.00">ml::maths::common::</text>
<text text-anchor="start" x="208.88" y="-17" font-family="Helvetica,sans-Serif" font-size="10.00">CPRNG::CXorOShiro128Plus</text>
<text text-anchor="middle" x="274.12" y="-5.75" font-family="Helvetica,sans-Serif" font-size="10.00">::toString</text>
</a>
</g>
</g>
<!-- Node1&#45;&gt;Node9 -->
<g id="edge11_Node000001_Node000009" class="edge">
<title>Node1&#45;&gt;Node9</title>
<g id="a_edge11_Node000001_Node000009"><a xlink:title=" ">
<path fill="none" stroke="#63b8ff" d="M97.2,-126.74C118.19,-105.15 153.35,-71.88 189.25,-50.88 191.42,-49.61 193.65,-48.38 195.93,-47.19"/>
<polygon fill="#63b8ff" stroke="#63b8ff" points="197.32,-50.4 204.79,-42.89 194.27,-44.1 197.32,-50.4"/>
</a>
</g>
</g>
<!-- Node3 -->
<g id="Node000003" class="node">
<title>Node3</title>
<g id="a_Node000003"><a xlink:href="../../de/df5/classml_1_1core_1_1_c_persist_utils.html#a82a406707dfde7a86539a04a2437e9e9" target="_top" xlink:title="Persist collection passing state to inserter using tag for elements.">
<polygon fill="white" stroke="#666666" points="511.5,-309.12 395.75,-309.12 395.75,-278.62 511.5,-278.62 511.5,-309.12"/>
<text text-anchor="start" x="403.75" y="-295.62" font-family="Helvetica,sans-Serif" font-size="10.00">ml::core::CPersistUtils</text>
<text text-anchor="middle" x="453.62" y="-284.38" font-family="Helvetica,sans-Serif" font-size="10.00">::persist</text>
</a>
</g>
</g>
<!-- Node2&#45;&gt;Node3 -->
<g id="edge2_Node000002_Node000003" class="edge">
<title>Node2&#45;&gt;Node3</title>
<g id="a_edge2_Node000002_Node000003"><a xlink:title=" ">
<path fill="none" stroke="#63b8ff" d="M359.46,-293.88C367.72,-293.88 376.04,-293.88 384.13,-293.88"/>
<polygon fill="#63b8ff" stroke="#63b8ff" points="383.85,-297.38 393.85,-293.88 383.85,-290.38 383.85,-297.38"/>
</a>
</g>
</g>
<!-- Node4&#45;&gt;Node4 -->
<g id="edge4_Node000004_Node000004" class="edge">
<title>Node4&#45;&gt;Node4</title>
<g id="a_edge4_Node000004_Node000004"><a xlink:title=" ">
<path fill="none" stroke="#63b8ff" d="M242.32,-237.61C235.83,-246.68 246.43,-255.12 274.12,-255.12 289.27,-255.12 299.31,-252.6 304.23,-248.83"/>
<polygon fill="#63b8ff" stroke="#63b8ff" points="307.66,-249.52 305.7,-239.11 300.74,-248.47 307.66,-249.52"/>
</a>
</g>
</g>
<!-- Node5 -->
<g id="Node000005" class="node">
<title>Node5</title>
<g id="a_Node000005"><a xlink:href="../../d9/db4/classml_1_1maths_1_1common_1_1_c_x_means_online.html#a3596fdd65798421a6755966082b8d22f" target="_top" xlink:title="The total count of points.">
<polygon fill="white" stroke="#666666" points="512.25,-237.12 395,-237.12 395,-206.62 512.25,-206.62 512.25,-237.12"/>
<text text-anchor="start" x="403" y="-223.62" font-family="Helvetica,sans-Serif" font-size="10.00">ml::maths::common::</text>
<text text-anchor="middle" x="453.62" y="-212.38" font-family="Helvetica,sans-Serif" font-size="10.00">CXMeansOnline::count</text>
</a>
</g>
</g>
<!-- Node4&#45;&gt;Node5 -->
<g id="edge5_Node000004_Node000005" class="edge">
<title>Node4&#45;&gt;Node5</title>
<g id="a_edge5_Node000004_Node000005"><a xlink:title=" ">
<path fill="none" stroke="#63b8ff" d="M335.71,-215.44C351.07,-215.09 367.68,-215.03 383.42,-215.27"/>
<polygon fill="#63b8ff" stroke="#63b8ff" points="383.12,-218.77 393.19,-215.47 383.27,-211.77 383.12,-218.77"/>
</a>
</g>
</g>
<!-- Node5&#45;&gt;Node4 -->
<g id="edge6_Node000005_Node000004" class="edge">
<title>Node5&#45;&gt;Node4</title>
<g id="a_edge6_Node000005_Node000004"><a xlink:title=" ">
<path fill="none" stroke="#63b8ff" d="M394.71,-228.25C379.5,-228.63 362.93,-228.72 347.09,-228.52"/>
<polygon fill="#63b8ff" stroke="#63b8ff" points="347.29,-225.02 337.23,-228.34 347.16,-232.02 347.29,-225.02"/>
</a>
</g>
</g>
<!-- Node5&#45;&gt;Node5 -->
<g id="edge7_Node000005_Node000005" class="edge">
<title>Node5&#45;&gt;Node5</title>
<g id="a_edge7_Node000005_Node000005"><a xlink:title=" ">
<path fill="none" stroke="#63b8ff" d="M421.82,-237.61C415.33,-246.68 425.93,-255.12 453.62,-255.12 468.77,-255.12 478.81,-252.6 483.73,-248.83"/>
<polygon fill="#63b8ff" stroke="#63b8ff" points="487.16,-249.52 485.2,-239.11 480.24,-248.47 487.16,-249.52"/>
</a>
</g>
</g>
<!-- Node10 -->
<g id="Node000010" class="node">
<title>Node10</title>
<g id="a_Node000010"><a xlink:href="../../de/df5/classml_1_1core_1_1_c_persist_utils.html#a518f0e6de0314125f712f6daec7ba0dd" target="_top" xlink:title="Wrapper for containers of built in types.">
<polygon fill="white" stroke="#666666" points="511.5,-36.12 395.75,-36.12 395.75,-5.62 511.5,-5.62 511.5,-36.12"/>
<text text-anchor="start" x="403.75" y="-22.62" font-family="Helvetica,sans-Serif" font-size="10.00">ml::core::CPersistUtils</text>
<text text-anchor="middle" x="453.62" y="-11.38" font-family="Helvetica,sans-Serif" font-size="10.00">::toString</text>
</a>
</g>
</g>
<!-- Node9&#45;&gt;Node10 -->
<g id="edge12_Node000009_Node000010" class="edge">
<title>Node9&#45;&gt;Node10</title>
<g id="a_edge12_Node000009_Node000010"><a xlink:title=" ">
<path fill="none" stroke="#63b8ff" d="M347.83,-20.88C359.88,-20.88 372.33,-20.88 384.26,-20.88"/>
<polygon fill="#63b8ff" stroke="#63b8ff" points="384,-24.38 394,-20.88 384,-17.38 384,-24.38"/>
</a>
</g>
</g>
</g>
</svg>
