<?xml version="1.0" encoding="UTF-8" standalone="no"?>
<!DOCTYPE svg PUBLIC "-//W3C//DTD SVG 1.1//EN"
 "http://www.w3.org/Graphics/SVG/1.1/DTD/svg11.dtd">
<!-- Generated by graphviz version 10.0.1 (20240210.2158)
 -->
<!-- Title: ml::maths::common::CXMeansOnline::maybeSplit Pages: 1 -->
<svg width="466pt" height="116pt"
 viewBox="0.00 0.00 465.50 116.12" xmlns="http://www.w3.org/2000/svg" xmlns:xlink="http://www.w3.org/1999/xlink">
<g id="graph0" class="graph" transform="scale(1 1) rotate(0) translate(4 112.12)">
<title>ml::maths::common::CXMeansOnline::maybeSplit</title>
<!-- Node1 -->
<g id="Node000001" class="node">
<title>Node1</title>
<g id="a_Node000001"><a xlink:title="Split cluster if we find a good split.">
<polygon fill="#999999" stroke="#666666" points="142,-63.12 0,-63.12 0,-32.62 142,-32.62 142,-63.12"/>
<text text-anchor="start" x="8" y="-49.62" font-family="Helvetica,sans-Serif" font-size="10.00">ml::maths::common::</text>
<text text-anchor="middle" x="71" y="-38.38" font-family="Helvetica,sans-Serif" font-size="10.00">CXMeansOnline::maybeSplit</text>
</a>
</g>
</g>
<!-- Node2 -->
<g id="Node000002" class="node">
<title>Node2</title>
<g id="a_Node000002"><a xlink:href="../../d9/db4/classml_1_1maths_1_1common_1_1_c_x_means_online.html#a064fa6dd7a75362d732046a98332c4d6" target="_top" xlink:title=" ">
<polygon fill="white" stroke="#666666" points="302.38,-90.12 179.88,-90.12 179.88,-59.62 302.38,-59.62 302.38,-90.12"/>
<text text-anchor="start" x="187.88" y="-76.62" font-family="Helvetica,sans-Serif" font-size="10.00">ml::maths::common::</text>
<text text-anchor="middle" x="241.12" y="-65.38" font-family="Helvetica,sans-Serif" font-size="10.00">CXMeansOnline::cluster</text>
</a>
</g>
</g>
<!-- Node1&#45;&gt;Node2 -->
<g id="edge1_Node000001_Node000002" class="edge">
<title>Node1&#45;&gt;Node2</title>
<g id="a_edge1_Node000001_Node000002"><a xlink:title=" ">
<path fill="none" stroke="#63b8ff" d="M142.33,-59.17C150.9,-60.55 159.66,-61.95 168.26,-63.33"/>
<polygon fill="#63b8ff" stroke="#63b8ff" points="167.5,-66.76 177.93,-64.89 168.61,-59.85 167.5,-66.76"/>
</a>
</g>
</g>
<!-- Node4 -->
<g id="Node000004" class="node">
<title>Node4</title>
<g id="a_Node000004"><a xlink:href="../../d5/d42/classml_1_1maths_1_1common_1_1_c_clusterer.html#ab45fb80d5020067beaa42956b2359fdb" target="_top" xlink:title=" ">
<polygon fill="white" stroke="#666666" points="304.25,-41.75 178,-41.75 178,0 304.25,0 304.25,-41.75"/>
<text text-anchor="start" x="186" y="-28.25" font-family="Helvetica,sans-Serif" font-size="10.00">ml::maths::common::</text>
<text text-anchor="start" x="186" y="-17" font-family="Helvetica,sans-Serif" font-size="10.00">CClusterer&lt; CVectorNx1</text>
<text text-anchor="middle" x="241.12" y="-5.75" font-family="Helvetica,sans-Serif" font-size="10.00">&lt; T, N &gt; &gt;::splitFunc</text>
</a>
</g>
</g>
<!-- Node1&#45;&gt;Node4 -->
<g id="edge6_Node000001_Node000004" class="edge">
<title>Node1&#45;&gt;Node4</title>
<g id="a_edge6_Node000001_Node000004"><a xlink:title=" ">
<path fill="none" stroke="#63b8ff" d="M142.33,-36.58C150.28,-35.3 158.4,-34 166.39,-32.72"/>
<polygon fill="#63b8ff" stroke="#63b8ff" points="166.76,-36.2 176.08,-31.16 165.65,-29.29 166.76,-36.2"/>
</a>
</g>
</g>
<!-- Node2&#45;&gt;Node2 -->
<g id="edge2_Node000002_Node000002" class="edge">
<title>Node2&#45;&gt;Node2</title>
<g id="a_edge2_Node000002_Node000002"><a xlink:title=" ">
<path fill="none" stroke="#63b8ff" d="M213.17,-90.61C207.47,-99.68 216.78,-108.12 241.12,-108.12 254.44,-108.12 263.25,-105.6 267.58,-101.83"/>
<polygon fill="#63b8ff" stroke="#63b8ff" points="271.02,-102.49 268.88,-92.11 264.08,-101.56 271.02,-102.49"/>
</a>
</g>
</g>
<!-- Node3 -->
<g id="Node000003" class="node">
<title>Node3</title>
<g id="a_Node000003"><a xlink:href="../../d9/db4/classml_1_1maths_1_1common_1_1_c_x_means_online.html#a3596fdd65798421a6755966082b8d22f" target="_top" xlink:title="The total count of points.">
<polygon fill="white" stroke="#666666" points="457.5,-90.12 340.25,-90.12 340.25,-59.62 457.5,-59.62 457.5,-90.12"/>
<text text-anchor="start" x="348.25" y="-76.62" font-family="Helvetica,sans-Serif" font-size="10.00">ml::maths::common::</text>
<text text-anchor="middle" x="398.88" y="-65.38" font-family="Helvetica,sans-Serif" font-size="10.00">CXMeansOnline::count</text>
</a>
</g>
</g>
<!-- Node2&#45;&gt;Node3 -->
<g id="edge3_Node000002_Node000003" class="edge">
<title>Node2&#45;&gt;Node3</title>
<g id="a_edge3_Node000002_Node000003"><a xlink:title=" ">
<path fill="none" stroke="#63b8ff" d="M302.79,-68.27C311.28,-68.12 320.06,-68.09 328.7,-68.16"/>
<polygon fill="#63b8ff" stroke="#63b8ff" points="328.37,-71.66 338.42,-68.3 328.47,-64.66 328.37,-71.66"/>
</a>
</g>
</g>
<!-- Node3&#45;&gt;Node2 -->
<g id="edge4_Node000003_Node000002" class="edge">
<title>Node3&#45;&gt;Node2</title>
<g id="a_edge4_Node000003_Node000002"><a xlink:title=" ">
<path fill="none" stroke="#63b8ff" d="M339.93,-81.42C331.5,-81.6 322.74,-81.66 314.08,-81.61"/>
<polygon fill="#63b8ff" stroke="#63b8ff" points="314.34,-78.11 304.3,-81.49 314.26,-85.11 314.34,-78.11"/>
</a>
</g>
</g>
<!-- Node3&#45;&gt;Node3 -->
<g id="edge5_Node000003_Node000003" class="edge">
<title>Node3&#45;&gt;Node3</title>
<g id="a_edge5_Node000003_Node000003"><a xlink:title=" ">
<path fill="none" stroke="#63b8ff" d="M370.92,-90.61C365.22,-99.68 374.53,-108.12 398.88,-108.12 412.19,-108.12 421,-105.6 425.33,-101.83"/>
<polygon fill="#63b8ff" stroke="#63b8ff" points="428.77,-102.49 426.63,-92.11 421.83,-101.56 428.77,-102.49"/>
</a>
</g>
</g>
</g>
</svg>
