<?xml version="1.0" encoding="UTF-8" standalone="no"?>
<!DOCTYPE svg PUBLIC "-//W3C//DTD SVG 1.1//EN"
 "http://www.w3.org/Graphics/SVG/1.1/DTD/svg11.dtd">
<!-- Generated by graphviz version 10.0.1 (20240210.2158)
 -->
<!-- Title: ml::model::CLimits::init Pages: 1 -->
<svg width="732pt" height="88pt"
 viewBox="0.00 0.00 732.00 87.50" xmlns="http://www.w3.org/2000/svg" xmlns:xlink="http://www.w3.org/1999/xlink">
<g id="graph0" class="graph" transform="scale(1 1) rotate(0) translate(4 83.5)">
<title>ml::model::CLimits::init</title>
<!-- Node1 -->
<g id="Node000001" class="node">
<title>Node1</title>
<g id="a_Node000001"><a xlink:title=" ">
<polygon fill="#999999" stroke="#666666" points="98.5,-54.5 0,-54.5 0,-24 98.5,-24 98.5,-54.5"/>
<text text-anchor="start" x="8" y="-41" font-family="Helvetica,sans-Serif" font-size="10.00">ml::model::CLimits</text>
<text text-anchor="middle" x="49.25" y="-29.75" font-family="Helvetica,sans-Serif" font-size="10.00">::init</text>
</a>
</g>
</g>
<!-- Node2 -->
<g id="Node000002" class="node">
<title>Node2</title>
<g id="a_Node000002"><a xlink:href="../../df/d58/classml_1_1model_1_1_c_limits.html#a2bf5ba08c4de49480b22b15d242029a9" target="_top" xlink:title=" ">
<polygon fill="white" stroke="#666666" points="257,-79.5 158.5,-79.5 158.5,-49 257,-49 257,-79.5"/>
<text text-anchor="start" x="166.5" y="-66" font-family="Helvetica,sans-Serif" font-size="10.00">ml::model::CLimits</text>
<text text-anchor="middle" x="207.75" y="-54.75" font-family="Helvetica,sans-Serif" font-size="10.00">::maxExamples</text>
</a>
</g>
</g>
<!-- Node1&#45;&gt;Node2 -->
<g id="edge1_Node000001_Node000002" class="edge">
<title>Node1&#45;&gt;Node2</title>
<g id="a_edge1_Node000001_Node000002"><a xlink:title=" ">
<path fill="none" stroke="#63b8ff" d="M98.91,-47.02C114.07,-49.45 130.97,-52.15 146.81,-54.68"/>
<polygon fill="#63b8ff" stroke="#63b8ff" points="146.2,-58.12 156.63,-56.24 147.3,-51.21 146.2,-58.12"/>
</a>
</g>
</g>
<!-- Node3 -->
<g id="Node000003" class="node">
<title>Node3</title>
<g id="a_Node000003"><a xlink:href="../../d4/d25/classml_1_1model_1_1_c_resource_monitor.html#a525baae0430affe818c37cff796c78bb" target="_top" xlink:title="Set the internal memory limit, as specified in a limits config file.">
<polygon fill="white" stroke="#666666" points="281,-30.5 134.5,-30.5 134.5,0 281,0 281,-30.5"/>
<text text-anchor="start" x="142.5" y="-17" font-family="Helvetica,sans-Serif" font-size="10.00">ml::model::CResourceMonitor</text>
<text text-anchor="middle" x="207.75" y="-5.75" font-family="Helvetica,sans-Serif" font-size="10.00">::memoryLimit</text>
</a>
</g>
</g>
<!-- Node1&#45;&gt;Node3 -->
<g id="edge2_Node000001_Node000003" class="edge">
<title>Node1&#45;&gt;Node3</title>
<g id="a_edge2_Node000001_Node000003"><a xlink:title=" ">
<path fill="none" stroke="#63b8ff" d="M98.91,-31.79C106.62,-30.61 114.78,-29.35 123.02,-28.09"/>
<polygon fill="#63b8ff" stroke="#63b8ff" points="123.43,-31.57 132.78,-26.59 122.37,-24.65 123.43,-31.57"/>
</a>
</g>
</g>
<!-- Node4 -->
<g id="Node000004" class="node">
<title>Node4</title>
<g id="a_Node000004"><a xlink:href="../../d4/d25/classml_1_1model_1_1_c_resource_monitor.html#a48617536e82f59b14f00cde169e2d3d4" target="_top" xlink:title=" ">
<polygon fill="white" stroke="#666666" points="515.25,-30.5 317,-30.5 317,0 515.25,0 515.25,-30.5"/>
<text text-anchor="start" x="325" y="-17" font-family="Helvetica,sans-Serif" font-size="10.00">ml::model::CResourceMonitor</text>
<text text-anchor="middle" x="416.12" y="-5.75" font-family="Helvetica,sans-Serif" font-size="10.00">::updateMemoryLimitsAndPruneThreshold</text>
</a>
</g>
</g>
<!-- Node3&#45;&gt;Node4 -->
<g id="edge3_Node000003_Node000004" class="edge">
<title>Node3&#45;&gt;Node4</title>
<g id="a_edge3_Node000003_Node000004"><a xlink:title=" ">
<path fill="none" stroke="#63b8ff" d="M281.22,-15.25C289.04,-15.25 297.11,-15.25 305.24,-15.25"/>
<polygon fill="#63b8ff" stroke="#63b8ff" points="305.23,-18.75 315.23,-15.25 305.23,-11.75 305.23,-18.75"/>
</a>
</g>
</g>
<!-- Node5 -->
<g id="Node000005" class="node">
<title>Node5</title>
<g id="a_Node000005"><a xlink:href="../../d4/d25/classml_1_1model_1_1_c_resource_monitor.html#a5282f2aeaff74272552051064aa92bcd" target="_top" xlink:title="Returns the amount by which reported memory usage is scaled depending on the type of persistence in u...">
<polygon fill="white" stroke="#666666" points="724,-30.5 551.25,-30.5 551.25,0 724,0 724,-30.5"/>
<text text-anchor="start" x="559.25" y="-17" font-family="Helvetica,sans-Serif" font-size="10.00">ml::model::CResourceMonitor</text>
<text text-anchor="middle" x="637.62" y="-5.75" font-family="Helvetica,sans-Serif" font-size="10.00">::persistenceMemoryIncreaseFactor</text>
</a>
</g>
</g>
<!-- Node4&#45;&gt;Node5 -->
<g id="edge4_Node000004_Node000005" class="edge">
<title>Node4&#45;&gt;Node5</title>
<g id="a_edge4_Node000004_Node000005"><a xlink:title=" ">
<path fill="none" stroke="#63b8ff" d="M515.64,-15.25C523.53,-15.25 531.49,-15.25 539.37,-15.25"/>
<polygon fill="#63b8ff" stroke="#63b8ff" points="539.32,-18.75 549.32,-15.25 539.32,-11.75 539.32,-18.75"/>
</a>
</g>
</g>
</g>
</svg>
