<?xml version="1.0" encoding="UTF-8" standalone="no"?>
<!DOCTYPE svg PUBLIC "-//W3C//DTD SVG 1.1//EN"
 "http://www.w3.org/Graphics/SVG/1.1/DTD/svg11.dtd">
<!-- Generated by graphviz version 10.0.1 (20240210.2158)
 -->
<!-- Title: lib/test/CMultiFileDataAdder.cc Pages: 1 -->
<!--zoomable 393 -->

<svg id="main" version="1.1" xmlns="http://www.w3.org/2000/svg" xmlns:xlink="http://www.w3.org/1999/xlink" xml:space="preserve" onload="init(evt)">
<style type="text/css"><![CDATA[
.node, .edge {opacity: 0.7;}
.node.selected, .edge.selected {opacity: 1;}
.edge:hover path { stroke: red; }
.edge:hover polygon { stroke: red; fill: red; }
]]></style>

<defs>
  <circle id="rim" cx="0" cy="0" r="7"/>
  <circle id="rim2" cx="0" cy="0" r="3.5"/>
  <g id="zoomPlus">
    <use xlink:href="#rim" fill="#404040"><set attributeName="fill" to="#808080" begin="zoomplus.mouseover" end="zoomplus.mouseout"/></use>
    <path d="M-4,0h8M0,-4v8" fill="none" stroke="white" stroke-width="1.5" pointer-events="none"/>
  </g>
  <g id="zoomMin">
    <use xlink:href="#rim" fill="#404040"><set attributeName="fill" to="#808080" begin="zoomminus.mouseover" end="zoomminus.mouseout"/></use>
    <path d="M-4,0h8" fill="none" stroke="white" stroke-width="1.5" pointer-events="none"/>
  </g>
  <g id="arrowUp" transform="translate(30 24)">
    <use xlink:href="#rim"/>
    <path pointer-events="none" fill="none" stroke="white" stroke-width="1.5" d="M0,-3.0v7 M-2.5,-0.5L0,-3.0L2.5,-0.5"/>
  </g>
  <g id="arrowRight" transform="rotate(90) translate(36 -43)">
    <use xlink:href="#rim"/>
    <path pointer-events="none" fill="none" stroke="white" stroke-width="1.5" d="M0,-3.0v7 M-2.5,-0.5L0,-3.0L2.5,-0.5"/>
  </g>
  <g id="arrowDown" transform="rotate(180) translate(-30 -48)">
    <use xlink:href="#rim"/>
    <path pointer-events="none" fill="none" stroke="white" stroke-width="1.5" d="M0,-3.0v7 M-2.5,-0.5L0,-3.0L2.5,-0.5"/>
  </g>
  <g id="arrowLeft" transform="rotate(270) translate(-36 17)">
    <use xlink:href="#rim"/>
    <path pointer-events="none" fill="none" stroke="white" stroke-width="1.5" d="M0,-3.0v7 M-2.5,-0.5L0,-3.0L2.5,-0.5"/>
  </g>
  <g id="resetDef">
    <use xlink:href="#rim2" fill="#404040"><set attributeName="fill" to="#808080" begin="reset.mouseover" end="reset.mouseout"/></use>
  </g>
</defs>
<script type="application/ecmascript">
var viewWidth = 1971;
var viewHeight = 393;
var sectionId = 'dynsection-0';
</script>
<script type="application/ecmascript" xlink:href="../../svg.min.js"/>
<svg id="graph" class="graph">
<g id="viewport">
<title>lib/test/CMultiFileDataAdder.cc</title>
<!-- Node1 -->
<g id="Node000001" class="node">
<title>Node1</title>
<g id="a_Node000001"><a xlink:title=" ">
<polygon fill="#999999" stroke="#666666" points="1760.88,-384.5 1609.12,-384.5 1609.12,-365.25 1760.88,-365.25 1760.88,-384.5"/>
<text text-anchor="middle" x="1685" y="-371" font-family="Helvetica,sans-Serif" font-size="10.00">lib/test/CMultiFileDataAdder.cc</text>
</a>
</g>
</g>
<!-- Node2 -->
<g id="Node000002" class="node">
<title>Node2</title>
<g id="a_Node000002"><a xlink:href="../../de/d5d/_c_multi_file_data_adder_8h.html" target="_top" xlink:title=" ">
<polygon fill="white" stroke="#666666" points="305.88,-268.38 172.12,-268.38 172.12,-249.12 305.88,-249.12 305.88,-268.38"/>
<text text-anchor="middle" x="239" y="-254.88" font-family="Helvetica,sans-Serif" font-size="10.00">test/CMultiFileDataAdder.h</text>
</a>
</g>
</g>
<!-- Node1&#45;&gt;Node2 -->
<g id="edge1_Node000001_Node000002" class="edge">
<title>Node1&#45;&gt;Node2</title>
<g id="a_edge1_Node000001_Node000002"><a xlink:title=" ">
<path fill="none" stroke="#63b8ff" d="M1608.81,-372.98C1349.41,-369.68 510.08,-356.95 392,-329.25 343.94,-317.97 292.56,-291.24 263.26,-274.41"/>
<polygon fill="#63b8ff" stroke="#63b8ff" points="265.21,-271.5 254.81,-269.47 261.67,-277.54 265.21,-271.5"/>
</a>
</g>
</g>
<!-- Node9 -->
<g id="Node000009" class="node">
<title>Node9</title>
<g id="a_Node000009"><a xlink:title=" ">
<polygon fill="#e0e0e0" stroke="#999999" points="401.62,-135.38 350.38,-135.38 350.38,-116.12 401.62,-116.12 401.62,-135.38"/>
<text text-anchor="middle" x="376" y="-121.88" font-family="Helvetica,sans-Serif" font-size="10.00">memory</text>
</a>
</g>
</g>
<!-- Node1&#45;&gt;Node9 -->
<g id="edge66_Node000001_Node000009" class="edge">
<title>Node1&#45;&gt;Node9</title>
<g id="a_edge66_Node000001_Node000009"><a xlink:title=" ">
<path fill="none" stroke="#63b8ff" d="M1608.68,-372.64C1471.81,-369.69 1175.74,-360.02 928,-329.25 797.79,-313.08 761.61,-318 638,-274 542.43,-239.98 440.91,-172.71 397.6,-142.31"/>
<polygon fill="#63b8ff" stroke="#63b8ff" points="399.76,-139.55 389.57,-136.62 395.71,-145.26 399.76,-139.55"/>
</a>
</g>
</g>
<!-- Node12 -->
<g id="Node000012" class="node">
<title>Node12</title>
<g id="a_Node000012"><a xlink:href="../../d2/d53/_c_logger_8h.html" target="_top" xlink:title=" ">
<polygon fill="white" stroke="#666666" points="1019,-329.25 937,-329.25 937,-310 1019,-310 1019,-329.25"/>
<text text-anchor="middle" x="978" y="-315.75" font-family="Helvetica,sans-Serif" font-size="10.00">core/CLogger.h</text>
</a>
</g>
</g>
<!-- Node1&#45;&gt;Node12 -->
<g id="edge13_Node000001_Node000012" class="edge">
<title>Node1&#45;&gt;Node12</title>
<g id="a_edge13_Node000001_Node000012"><a xlink:title=" ">
<path fill="none" stroke="#63b8ff" d="M1608.67,-368.13C1464.25,-357.25 1154.45,-333.91 1030.67,-324.59"/>
<polygon fill="#63b8ff" stroke="#63b8ff" points="1031.03,-321.11 1020.8,-323.85 1030.51,-328.09 1031.03,-321.11"/>
</a>
</g>
</g>
<!-- Node22 -->
<g id="Node000022" class="node">
<title>Node22</title>
<g id="a_Node000022"><a xlink:href="../../d9/d88/_c_string_utils_8h.html" target="_top" xlink:title=" ">
<polygon fill="white" stroke="#666666" points="1774.62,-135.38 1675.38,-135.38 1675.38,-116.12 1774.62,-116.12 1774.62,-135.38"/>
<text text-anchor="middle" x="1725" y="-121.88" font-family="Helvetica,sans-Serif" font-size="10.00">core/CStringUtils.h</text>
</a>
</g>
</g>
<!-- Node1&#45;&gt;Node22 -->
<g id="edge62_Node000001_Node000022" class="edge">
<title>Node1&#45;&gt;Node22</title>
<g id="a_edge62_Node000001_Node000022"><a xlink:title=" ">
<path fill="none" stroke="#63b8ff" d="M1686.47,-364.79C1692.25,-329.06 1713.51,-197.74 1721.73,-146.97"/>
<polygon fill="#63b8ff" stroke="#63b8ff" points="1725.17,-147.59 1723.32,-137.15 1718.26,-146.47 1725.17,-147.59"/>
</a>
</g>
</g>
<!-- Node36 -->
<g id="Node000036" class="node">
<title>Node36</title>
<g id="a_Node000036"><a xlink:title=" ">
<polygon fill="#e0e0e0" stroke="#999999" points="1819.38,-329.25 1712.62,-329.25 1712.62,-310 1819.38,-310 1819.38,-329.25"/>
<text text-anchor="middle" x="1766" y="-315.75" font-family="Helvetica,sans-Serif" font-size="10.00">boost/filesystem.hpp</text>
</a>
</g>
</g>
<!-- Node1&#45;&gt;Node36 -->
<g id="edge63_Node000001_Node000036" class="edge">
<title>Node1&#45;&gt;Node36</title>
<g id="a_edge63_Node000001_Node000036"><a xlink:title=" ">
<path fill="none" stroke="#63b8ff" d="M1698.74,-364.84C1710.73,-356.96 1728.37,-345.36 1742.58,-336.02"/>
<polygon fill="#63b8ff" stroke="#63b8ff" points="1744.49,-338.95 1750.93,-330.53 1740.65,-333.1 1744.49,-338.95"/>
</a>
</g>
</g>
<!-- Node37 -->
<g id="Node000037" class="node">
<title>Node37</title>
<g id="a_Node000037"><a xlink:title=" ">
<polygon fill="#e0e0e0" stroke="#999999" points="1895,-329.25 1837,-329.25 1837,-310 1895,-310 1895,-329.25"/>
<text text-anchor="middle" x="1866" y="-315.75" font-family="Helvetica,sans-Serif" font-size="10.00">exception</text>
</a>
</g>
</g>
<!-- Node1&#45;&gt;Node37 -->
<g id="edge64_Node000001_Node000037" class="edge">
<title>Node1&#45;&gt;Node37</title>
<g id="a_edge64_Node000001_Node000037"><a xlink:title=" ">
<path fill="none" stroke="#63b8ff" d="M1715.7,-364.84C1746.06,-355.91 1792.66,-342.2 1825.92,-332.42"/>
<polygon fill="#63b8ff" stroke="#63b8ff" points="1826.59,-335.87 1835.2,-329.69 1824.61,-329.15 1826.59,-335.87"/>
</a>
</g>
</g>
<!-- Node38 -->
<g id="Node000038" class="node">
<title>Node38</title>
<g id="a_Node000038"><a xlink:title=" ">
<polygon fill="#e0e0e0" stroke="#999999" points="1962.5,-329.25 1913.5,-329.25 1913.5,-310 1962.5,-310 1962.5,-329.25"/>
<text text-anchor="middle" x="1938" y="-315.75" font-family="Helvetica,sans-Serif" font-size="10.00">fstream</text>
</a>
</g>
</g>
<!-- Node1&#45;&gt;Node38 -->
<g id="edge65_Node000001_Node000038" class="edge">
<title>Node1&#45;&gt;Node38</title>
<g id="a_edge65_Node000001_Node000038"><a xlink:title=" ">
<path fill="none" stroke="#63b8ff" d="M1732.99,-364.78C1775.02,-356.65 1838.01,-344.12 1902.03,-329.61"/>
<polygon fill="#63b8ff" stroke="#63b8ff" points="1902.7,-333.05 1911.67,-327.41 1901.15,-326.22 1902.7,-333.05"/>
</a>
</g>
</g>
<!-- Node3 -->
<g id="Node000003" class="node">
<title>Node3</title>
<g id="a_Node000003"><a xlink:href="../../d0/da7/_c_data_adder_8h.html" target="_top" xlink:title=" ">
<polygon fill="white" stroke="#666666" points="343.62,-201.88 244.38,-201.88 244.38,-182.62 343.62,-182.62 343.62,-201.88"/>
<text text-anchor="middle" x="294" y="-188.38" font-family="Helvetica,sans-Serif" font-size="10.00">core/CDataAdder.h</text>
</a>
</g>
</g>
<!-- Node2&#45;&gt;Node3 -->
<g id="edge2_Node000002_Node000003" class="edge">
<title>Node2&#45;&gt;Node3</title>
<g id="a_edge2_Node000002_Node000003"><a xlink:title=" ">
<path fill="none" stroke="#63b8ff" d="M246.65,-248.78C255.02,-238.96 268.65,-222.98 279.14,-210.67"/>
<polygon fill="#63b8ff" stroke="#63b8ff" points="281.61,-213.17 285.44,-203.29 276.28,-208.63 281.61,-213.17"/>
</a>
</g>
</g>
<!-- Node10 -->
<g id="Node000010" class="node">
<title>Node10</title>
<g id="a_Node000010"><a xlink:title=" ">
<polygon fill="#e0e0e0" stroke="#999999" points="507,-74.5 467,-74.5 467,-55.25 507,-55.25 507,-74.5"/>
<text text-anchor="middle" x="487" y="-61" font-family="Helvetica,sans-Serif" font-size="10.00">string</text>
</a>
</g>
</g>
<!-- Node2&#45;&gt;Node10 -->
<g id="edge12_Node000002_Node000010" class="edge">
<title>Node2&#45;&gt;Node10</title>
<g id="a_edge12_Node000002_Node000010"><a xlink:title=" ">
<path fill="none" stroke="#63b8ff" d="M238.08,-248.87C237.09,-238.84 235.58,-222.02 235,-207.5 233.19,-162 231.9,-138.26 268,-110.5 297.02,-88.18 402.28,-74.52 455.59,-68.88"/>
<polygon fill="#63b8ff" stroke="#63b8ff" points="455.64,-72.39 465.24,-67.89 454.93,-65.43 455.64,-72.39"/>
</a>
</g>
</g>
<!-- Node11 -->
<g id="Node000011" class="node">
<title>Node11</title>
<g id="a_Node000011"><a xlink:href="../../d4/dc2/test_2_import_export_8h.html" target="_top" xlink:title=" ">
<polygon fill="white" stroke="#666666" points="172,-201.88 72,-201.88 72,-182.62 172,-182.62 172,-201.88"/>
<text text-anchor="middle" x="122" y="-188.38" font-family="Helvetica,sans-Serif" font-size="10.00">test/ImportExport.h</text>
</a>
</g>
</g>
<!-- Node2&#45;&gt;Node11 -->
<g id="edge11_Node000002_Node000011" class="edge">
<title>Node2&#45;&gt;Node11</title>
<g id="a_edge11_Node000002_Node000011"><a xlink:title=" ">
<path fill="none" stroke="#63b8ff" d="M222.48,-248.65C203.23,-238.03 171.17,-220.35 148.44,-207.82"/>
<polygon fill="#63b8ff" stroke="#63b8ff" points="150.2,-204.8 139.76,-203.04 146.82,-210.93 150.2,-204.8"/>
</a>
</g>
</g>
<!-- Node4 -->
<g id="Node000004" class="node">
<title>Node4</title>
<g id="a_Node000004"><a xlink:href="../../db/d30/_c_non_copyable_8h.html" target="_top" xlink:title=" ">
<polygon fill="white" stroke="#666666" points="935.38,-135.38 822.62,-135.38 822.62,-116.12 935.38,-116.12 935.38,-135.38"/>
<text text-anchor="middle" x="879" y="-121.88" font-family="Helvetica,sans-Serif" font-size="10.00">core/CNonCopyable.h</text>
</a>
</g>
</g>
<!-- Node3&#45;&gt;Node4 -->
<g id="edge3_Node000003_Node000004" class="edge">
<title>Node3&#45;&gt;Node4</title>
<g id="a_edge3_Node000003_Node000004"><a xlink:title=" ">
<path fill="none" stroke="#63b8ff" d="M344.02,-186.59C431.65,-178.31 618.56,-160.09 776,-141 787.41,-139.62 799.51,-138.04 811.26,-136.45"/>
<polygon fill="#63b8ff" stroke="#63b8ff" points="811.44,-139.96 820.88,-135.14 810.5,-133.02 811.44,-139.96"/>
</a>
</g>
</g>
<!-- Node5 -->
<g id="Node000005" class="node">
<title>Node5</title>
<g id="a_Node000005"><a xlink:href="../../dd/d0e/core_2_import_export_8h.html" target="_top" xlink:title=" ">
<polygon fill="white" stroke="#666666" points="1128.12,-19.25 1025.88,-19.25 1025.88,0 1128.12,0 1128.12,-19.25"/>
<text text-anchor="middle" x="1077" y="-5.75" font-family="Helvetica,sans-Serif" font-size="10.00">core/ImportExport.h</text>
</a>
</g>
</g>
<!-- Node3&#45;&gt;Node5 -->
<g id="edge5_Node000003_Node000005" class="edge">
<title>Node3&#45;&gt;Node5</title>
<g id="a_edge5_Node000003_Node000005"><a xlink:title=" ">
<path fill="none" stroke="#63b8ff" d="M286.16,-182.13C273.42,-166.17 251.29,-132.76 268,-110.5 320.79,-40.17 371.44,-70.78 458,-55.25 659.01,-19.2 901.7,-12.07 1014.15,-10.8"/>
<polygon fill="#63b8ff" stroke="#63b8ff" points="1014.12,-14.3 1024.08,-10.7 1014.05,-7.3 1014.12,-14.3"/>
</a>
</g>
</g>
<!-- Node6 -->
<g id="Node000006" class="node">
<title>Node6</title>
<g id="a_Node000006"><a xlink:title=" ">
<polygon fill="#e0e0e0" stroke="#999999" points="168.62,-19.25 123.38,-19.25 123.38,0 168.62,0 168.62,-19.25"/>
<text text-anchor="middle" x="146" y="-5.75" font-family="Helvetica,sans-Serif" font-size="10.00">cstdint</text>
</a>
</g>
</g>
<!-- Node3&#45;&gt;Node6 -->
<g id="edge6_Node000003_Node000006" class="edge">
<title>Node3&#45;&gt;Node6</title>
<g id="a_edge6_Node000003_Node000006"><a xlink:title=" ">
<path fill="none" stroke="#63b8ff" d="M270.62,-182.2C251.7,-173.89 225.43,-159.98 208,-141 177.86,-108.19 159.68,-58.07 151.39,-30.51"/>
<polygon fill="#63b8ff" stroke="#63b8ff" points="154.79,-29.69 148.68,-21.04 148.06,-31.61 154.79,-29.69"/>
</a>
</g>
</g>
<!-- Node7 -->
<g id="Node000007" class="node">
<title>Node7</title>
<g id="a_Node000007"><a xlink:title=" ">
<polygon fill="#e0e0e0" stroke="#999999" points="1011,-135.38 953,-135.38 953,-116.12 1011,-116.12 1011,-135.38"/>
<text text-anchor="middle" x="982" y="-121.88" font-family="Helvetica,sans-Serif" font-size="10.00">functional</text>
</a>
</g>
</g>
<!-- Node3&#45;&gt;Node7 -->
<g id="edge7_Node000003_Node000007" class="edge">
<title>Node3&#45;&gt;Node7</title>
<g id="a_edge7_Node000003_Node000007"><a xlink:title=" ">
<path fill="none" stroke="#63b8ff" d="M343.97,-187.77C491.18,-177.48 914.82,-147.46 944,-141 946.03,-140.55 948.09,-140.02 950.16,-139.42"/>
<polygon fill="#63b8ff" stroke="#63b8ff" points="951.19,-142.77 959.58,-136.3 948.99,-136.12 951.19,-142.77"/>
</a>
</g>
</g>
<!-- Node8 -->
<g id="Node000008" class="node">
<title>Node8</title>
<g id="a_Node000008"><a xlink:title=" ">
<polygon fill="#e0e0e0" stroke="#999999" points="332.25,-135.38 287.75,-135.38 287.75,-116.12 332.25,-116.12 332.25,-135.38"/>
<text text-anchor="middle" x="310" y="-121.88" font-family="Helvetica,sans-Serif" font-size="10.00">iosfwd</text>
</a>
</g>
</g>
<!-- Node3&#45;&gt;Node8 -->
<g id="edge8_Node000003_Node000008" class="edge">
<title>Node3&#45;&gt;Node8</title>
<g id="a_edge8_Node000003_Node000008"><a xlink:title=" ">
<path fill="none" stroke="#63b8ff" d="M296.22,-182.28C298.49,-173.14 302.09,-158.64 305.04,-146.75"/>
<polygon fill="#63b8ff" stroke="#63b8ff" points="308.42,-147.66 307.43,-137.11 301.62,-145.97 308.42,-147.66"/>
</a>
</g>
</g>
<!-- Node3&#45;&gt;Node9 -->
<g id="edge9_Node000003_Node000009" class="edge">
<title>Node3&#45;&gt;Node9</title>
<g id="a_edge9_Node000003_Node000009"><a xlink:title=" ">
<path fill="none" stroke="#63b8ff" d="M305.4,-182.28C318.3,-172.13 339.57,-155.4 355.4,-142.95"/>
<polygon fill="#63b8ff" stroke="#63b8ff" points="357.55,-145.72 363.24,-136.79 353.22,-140.22 357.55,-145.72"/>
</a>
</g>
</g>
<!-- Node3&#45;&gt;Node10 -->
<g id="edge10_Node000003_Node000010" class="edge">
<title>Node3&#45;&gt;Node10</title>
<g id="a_edge10_Node000003_Node000010"><a xlink:title=" ">
<path fill="none" stroke="#63b8ff" d="M288.28,-182.37C278.66,-166.21 261.88,-131.68 279,-110.5 300.81,-83.52 402.62,-72.11 455.28,-67.94"/>
<polygon fill="#63b8ff" stroke="#63b8ff" points="455.4,-71.44 465.11,-67.21 454.88,-64.46 455.4,-71.44"/>
</a>
</g>
</g>
<!-- Node4&#45;&gt;Node5 -->
<g id="edge4_Node000004_Node000005" class="edge">
<title>Node4&#45;&gt;Node5</title>
<g id="a_edge4_Node000004_Node000005"><a xlink:title=" ">
<path fill="none" stroke="#63b8ff" d="M894.54,-115.79C928.5,-96.22 1009.65,-49.44 1051.33,-25.42"/>
<polygon fill="#63b8ff" stroke="#63b8ff" points="1053.03,-28.48 1059.95,-20.45 1049.54,-22.41 1053.03,-28.48"/>
</a>
</g>
</g>
<!-- Node12&#45;&gt;Node4 -->
<g id="edge28_Node000012_Node000004" class="edge">
<title>Node12&#45;&gt;Node4</title>
<g id="a_edge28_Node000012_Node000004"><a xlink:title=" ">
<path fill="none" stroke="#63b8ff" d="M1019.45,-315.56C1073.08,-310.63 1162,-298.85 1182,-274 1209.03,-240.42 1210.11,-209.68 1182,-177 1147.12,-136.45 996.6,-150.73 944,-141 939.34,-140.14 934.49,-139.18 929.65,-138.19"/>
<polygon fill="#63b8ff" stroke="#63b8ff" points="930.43,-134.78 919.93,-136.14 928.99,-141.63 930.43,-134.78"/>
</a>
</g>
</g>
<!-- Node12&#45;&gt;Node5 -->
<g id="edge29_Node000012_Node000005" class="edge">
<title>Node12&#45;&gt;Node5</title>
<g id="a_edge29_Node000012_Node000005"><a xlink:title=" ">
<path fill="none" stroke="#63b8ff" d="M1019.04,-314.19C1150.6,-299.02 1557.33,-244.31 1628,-141 1684.99,-57.69 1295.97,-24.14 1139.84,-14.13"/>
<polygon fill="#63b8ff" stroke="#63b8ff" points="1140.28,-10.65 1130.08,-13.52 1139.84,-17.64 1140.28,-10.65"/>
</a>
</g>
</g>
<!-- Node12&#45;&gt;Node7 -->
<g id="edge59_Node000012_Node000007" class="edge">
<title>Node12&#45;&gt;Node7</title>
<g id="a_edge59_Node000012_Node000007"><a xlink:title=" ">
<path fill="none" stroke="#63b8ff" d="M1019.36,-316.97C1080.55,-313.57 1190.61,-303.41 1215,-274 1242.52,-240.82 1242.64,-210.09 1215,-177 1157.38,-108.02 1102.18,-166.52 1016,-141 1014.65,-140.6 1013.29,-140.17 1011.92,-139.7"/>
<polygon fill="#63b8ff" stroke="#63b8ff" points="1013.52,-136.57 1002.93,-136.32 1011.05,-143.12 1013.52,-136.57"/>
</a>
</g>
</g>
<!-- Node12&#45;&gt;Node8 -->
<g id="edge60_Node000012_Node000008" class="edge">
<title>Node12&#45;&gt;Node8</title>
<g id="a_edge60_Node000012_Node000008"><a xlink:title=" ">
<path fill="none" stroke="#63b8ff" d="M936.67,-317.06C871.88,-313.75 742.97,-303.71 638,-274 519.75,-240.54 389.39,-171.46 335.48,-141.33"/>
<polygon fill="#63b8ff" stroke="#63b8ff" points="337.5,-138.45 327.07,-136.59 334.06,-144.55 337.5,-138.45"/>
</a>
</g>
</g>
<!-- Node13 -->
<g id="Node000013" class="node">
<title>Node13</title>
<g id="a_Node000013"><a xlink:href="../../d3/db8/_c_logger_throttler_8h.html" target="_top" xlink:title=" ">
<polygon fill="white" stroke="#666666" points="118,-74.5 0,-74.5 0,-55.25 118,-55.25 118,-74.5"/>
<text text-anchor="middle" x="59" y="-61" font-family="Helvetica,sans-Serif" font-size="10.00">core/CLoggerThrottler.h</text>
</a>
</g>
</g>
<!-- Node12&#45;&gt;Node13 -->
<g id="edge14_Node000012_Node000013" class="edge">
<title>Node12&#45;&gt;Node13</title>
<g id="a_edge14_Node000012_Node000013"><a xlink:title=" ">
<path fill="none" stroke="#63b8ff" d="M936.73,-317.64C781.34,-313.75 236.67,-298.48 163,-274 112.35,-257.17 88.87,-254.18 63,-207.5 41.6,-168.89 48.24,-114.82 54.12,-85.94"/>
<polygon fill="#63b8ff" stroke="#63b8ff" points="57.49,-86.9 56.26,-76.38 50.66,-85.37 57.49,-86.9"/>
</a>
</g>
</g>
<!-- Node15 -->
<g id="Node000015" class="node">
<title>Node15</title>
<g id="a_Node000015"><a xlink:href="../../d7/d88/_c_named_pipe_factory_8h.html" target="_top" xlink:title=" ">
<polygon fill="white" stroke="#666666" points="660,-201.88 524,-201.88 524,-182.62 660,-182.62 660,-201.88"/>
<text text-anchor="middle" x="592" y="-188.38" font-family="Helvetica,sans-Serif" font-size="10.00">core/CNamedPipeFactory.h</text>
</a>
</g>
</g>
<!-- Node12&#45;&gt;Node15 -->
<g id="edge18_Node000012_Node000015" class="edge">
<title>Node12&#45;&gt;Node15</title>
<g id="a_edge18_Node000012_Node000015"><a xlink:title=" ">
<path fill="none" stroke="#63b8ff" d="M936.79,-319.34C878.33,-318.84 769.18,-312.22 686,-274 653.72,-259.17 623.98,-229.88 606.93,-210.95"/>
<polygon fill="#63b8ff" stroke="#63b8ff" points="609.63,-208.73 600.42,-203.5 604.36,-213.34 609.63,-208.73"/>
</a>
</g>
</g>
<!-- Node18 -->
<g id="Node000018" class="node">
<title>Node18</title>
<g id="a_Node000018"><a xlink:title=" ">
<polygon fill="#e0e0e0" stroke="#999999" points="703.62,-135.38 658.38,-135.38 658.38,-116.12 703.62,-116.12 703.62,-135.38"/>
<text text-anchor="middle" x="681" y="-121.88" font-family="Helvetica,sans-Serif" font-size="10.00">atomic</text>
</a>
</g>
</g>
<!-- Node12&#45;&gt;Node18 -->
<g id="edge58_Node000012_Node000018" class="edge">
<title>Node12&#45;&gt;Node18</title>
<g id="a_edge58_Node000012_Node000018"><a xlink:title=" ">
<path fill="none" stroke="#63b8ff" d="M936.64,-314.49C900.89,-309.39 848.97,-298.19 810,-274 755.76,-240.33 711.66,-176.79 692.03,-145.34"/>
<polygon fill="#63b8ff" stroke="#63b8ff" points="695.11,-143.67 686.91,-136.95 689.13,-147.31 695.11,-143.67"/>
</a>
</g>
</g>
<!-- Node19 -->
<g id="Node000019" class="node">
<title>Node19</title>
<g id="a_Node000019"><a xlink:title=" ">
<polygon fill="#e0e0e0" stroke="#999999" points="766.62,-135.38 721.38,-135.38 721.38,-116.12 766.62,-116.12 766.62,-135.38"/>
<text text-anchor="middle" x="744" y="-121.88" font-family="Helvetica,sans-Serif" font-size="10.00">stdio.h</text>
</a>
</g>
</g>
<!-- Node12&#45;&gt;Node19 -->
<g id="edge61_Node000012_Node000019" class="edge">
<title>Node12&#45;&gt;Node19</title>
<g id="a_edge61_Node000012_Node000019"><a xlink:title=" ">
<path fill="none" stroke="#63b8ff" d="M947.9,-309.58C904.07,-294.95 822.72,-262.11 775,-207.5 759.82,-190.13 751.69,-164.53 747.62,-146.83"/>
<polygon fill="#63b8ff" stroke="#63b8ff" points="751.11,-146.38 745.68,-137.28 744.25,-147.78 751.11,-146.38"/>
</a>
</g>
</g>
<!-- Node20 -->
<g id="Node000020" class="node">
<title>Node20</title>
<g id="a_Node000020"><a xlink:href="../../d7/dcd/_log_macros_8h.html" target="_top" xlink:title=" ">
<polygon fill="white" stroke="#666666" points="1025,-268.38 931,-268.38 931,-249.12 1025,-249.12 1025,-268.38"/>
<text text-anchor="middle" x="978" y="-254.88" font-family="Helvetica,sans-Serif" font-size="10.00">core/LogMacros.h</text>
</a>
</g>
</g>
<!-- Node12&#45;&gt;Node20 -->
<g id="edge30_Node000012_Node000020" class="edge">
<title>Node12&#45;&gt;Node20</title>
<g id="a_edge30_Node000012_Node000020"><a xlink:title=" ">
<path fill="none" stroke="#63b8ff" d="M978,-309.68C978,-301.9 978,-290.33 978,-280.28"/>
<polygon fill="#63b8ff" stroke="#63b8ff" points="981.5,-280.29 978,-270.29 974.5,-280.29 981.5,-280.29"/>
</a>
</g>
</g>
<!-- Node35 -->
<g id="Node000035" class="node">
<title>Node35</title>
<g id="a_Node000035"><a xlink:title=" ">
<polygon fill="#e0e0e0" stroke="#999999" points="1173.38,-274 1042.62,-274 1042.62,-243.5 1173.38,-243.5 1173.38,-274"/>
<text text-anchor="start" x="1050.62" y="-260.5" font-family="Helvetica,sans-Serif" font-size="10.00">boost/log/sources/severity</text>
<text text-anchor="middle" x="1108" y="-249.25" font-family="Helvetica,sans-Serif" font-size="10.00">_logger.hpp</text>
</a>
</g>
</g>
<!-- Node12&#45;&gt;Node35 -->
<g id="edge57_Node000012_Node000035" class="edge">
<title>Node12&#45;&gt;Node35</title>
<g id="a_edge57_Node000012_Node000035"><a xlink:title=" ">
<path fill="none" stroke="#63b8ff" d="M998.03,-309.55C1015.86,-301.48 1042.55,-289.39 1065.16,-279.15"/>
<polygon fill="#63b8ff" stroke="#63b8ff" points="1066.51,-282.38 1074.17,-275.07 1063.62,-276.01 1066.51,-282.38"/>
</a>
</g>
</g>
<!-- Node13&#45;&gt;Node5 -->
<g id="edge15_Node000013_Node000005" class="edge">
<title>Node13&#45;&gt;Node5</title>
<g id="a_edge15_Node000013_Node000005"><a xlink:title=" ">
<path fill="none" stroke="#63b8ff" d="M118.45,-60.34C145.73,-58.75 178.51,-56.86 208,-55.25 510.17,-38.75 871.55,-20.75 1014.45,-13.7"/>
<polygon fill="#63b8ff" stroke="#63b8ff" points="1014.24,-17.21 1024.06,-13.22 1013.9,-10.22 1014.24,-17.21"/>
</a>
</g>
</g>
<!-- Node13&#45;&gt;Node6 -->
<g id="edge16_Node000013_Node000006" class="edge">
<title>Node13&#45;&gt;Node6</title>
<g id="a_edge16_Node000013_Node000006"><a xlink:title=" ">
<path fill="none" stroke="#63b8ff" d="M73.76,-54.84C86.88,-46.81 106.32,-34.91 121.73,-25.48"/>
<polygon fill="#63b8ff" stroke="#63b8ff" points="123.18,-28.7 129.88,-20.49 119.52,-22.73 123.18,-28.7"/>
</a>
</g>
</g>
<!-- Node14 -->
<g id="Node000014" class="node">
<title>Node14</title>
<g id="a_Node000014"><a xlink:title=" ">
<polygon fill="#e0e0e0" stroke="#999999" points="78.62,-19.25 39.38,-19.25 39.38,0 78.62,0 78.62,-19.25"/>
<text text-anchor="middle" x="59" y="-5.75" font-family="Helvetica,sans-Serif" font-size="10.00">utility</text>
</a>
</g>
</g>
<!-- Node13&#45;&gt;Node14 -->
<g id="edge17_Node000013_Node000014" class="edge">
<title>Node13&#45;&gt;Node14</title>
<g id="a_edge17_Node000013_Node000014"><a xlink:title=" ">
<path fill="none" stroke="#63b8ff" d="M59,-55.08C59,-48.57 59,-39.42 59,-31.12"/>
<polygon fill="#63b8ff" stroke="#63b8ff" points="62.5,-31.12 59,-21.12 55.5,-31.12 62.5,-31.12"/>
</a>
</g>
</g>
<!-- Node15&#45;&gt;Node5 -->
<g id="edge21_Node000015_Node000005" class="edge">
<title>Node15&#45;&gt;Node5</title>
<g id="a_edge21_Node000015_Node000005"><a xlink:title=" ">
<path fill="none" stroke="#63b8ff" d="M591.77,-182.22C591.85,-165.49 594.58,-129.64 615,-110.5 672.3,-56.78 902.23,-27.56 1014.58,-16.23"/>
<polygon fill="#63b8ff" stroke="#63b8ff" points="1014.62,-19.74 1024.22,-15.28 1013.93,-12.78 1014.62,-19.74"/>
</a>
</g>
</g>
<!-- Node15&#45;&gt;Node8 -->
<g id="edge24_Node000015_Node000008" class="edge">
<title>Node15&#45;&gt;Node8</title>
<g id="a_edge24_Node000015_Node000008"><a xlink:title=" ">
<path fill="none" stroke="#63b8ff" d="M524.59,-182.13C473.42,-174.16 401.76,-160.75 341,-141 340.04,-140.69 339.07,-140.35 338.09,-140"/>
<polygon fill="#63b8ff" stroke="#63b8ff" points="339.73,-136.89 329.15,-136.34 337.08,-143.37 339.73,-136.89"/>
</a>
</g>
</g>
<!-- Node15&#45;&gt;Node9 -->
<g id="edge25_Node000015_Node000009" class="edge">
<title>Node15&#45;&gt;Node9</title>
<g id="a_edge25_Node000015_Node000009"><a xlink:title=" ">
<path fill="none" stroke="#63b8ff" d="M557.74,-182.17C522.13,-172.56 464.87,-156.66 416,-141 414.42,-140.49 412.81,-139.97 411.19,-139.43"/>
<polygon fill="#63b8ff" stroke="#63b8ff" points="412.48,-136.17 401.89,-136.23 410.21,-142.79 412.48,-136.17"/>
</a>
</g>
</g>
<!-- Node15&#45;&gt;Node10 -->
<g id="edge26_Node000015_Node000010" class="edge">
<title>Node15&#45;&gt;Node10</title>
<g id="a_edge26_Node000015_Node000010"><a xlink:title=" ">
<path fill="none" stroke="#63b8ff" d="M523.71,-184.35C495.8,-177.78 466.11,-165.16 449,-141 435.81,-122.38 452.83,-98.54 468.13,-82.76"/>
<polygon fill="#63b8ff" stroke="#63b8ff" points="470.4,-85.43 475.16,-75.97 465.54,-80.4 470.4,-85.43"/>
</a>
</g>
</g>
<!-- Node16 -->
<g id="Node000016" class="node">
<title>Node16</title>
<g id="a_Node000016"><a xlink:href="../../d7/dc2/_c_non_instantiatable_8h.html" target="_top" xlink:title=" ">
<polygon fill="white" stroke="#666666" points="1410,-74.5 1280,-74.5 1280,-55.25 1410,-55.25 1410,-74.5"/>
<text text-anchor="middle" x="1345" y="-61" font-family="Helvetica,sans-Serif" font-size="10.00">core/CNonInstantiatable.h</text>
</a>
</g>
</g>
<!-- Node15&#45;&gt;Node16 -->
<g id="edge19_Node000015_Node000016" class="edge">
<title>Node15&#45;&gt;Node16</title>
<g id="a_edge19_Node000015_Node000016"><a xlink:title=" ">
<path fill="none" stroke="#63b8ff" d="M595.3,-182.2C602.19,-164.75 619.95,-126.75 649,-110.5 701.94,-80.88 1098.48,-70.29 1268.25,-67.08"/>
<polygon fill="#63b8ff" stroke="#63b8ff" points="1268.14,-70.59 1278.07,-66.9 1268.01,-63.59 1268.14,-70.59"/>
</a>
</g>
</g>
<!-- Node17 -->
<g id="Node000017" class="node">
<title>Node17</title>
<g id="a_Node000017"><a xlink:href="../../da/d3e/_windows_safe_8h.html" target="_top" xlink:title=" ">
<polygon fill="white" stroke="#666666" points="564.38,-135.38 457.62,-135.38 457.62,-116.12 564.38,-116.12 564.38,-135.38"/>
<text text-anchor="middle" x="511" y="-121.88" font-family="Helvetica,sans-Serif" font-size="10.00">core/WindowsSafe.h</text>
</a>
</g>
</g>
<!-- Node15&#45;&gt;Node17 -->
<g id="edge22_Node000015_Node000017" class="edge">
<title>Node15&#45;&gt;Node17</title>
<g id="a_edge22_Node000015_Node000017"><a xlink:title=" ">
<path fill="none" stroke="#63b8ff" d="M580.74,-182.28C567.99,-172.13 546.98,-155.4 531.35,-142.95"/>
<polygon fill="#63b8ff" stroke="#63b8ff" points="533.62,-140.28 523.61,-136.79 529.25,-145.76 533.62,-140.28"/>
</a>
</g>
</g>
<!-- Node15&#45;&gt;Node18 -->
<g id="edge23_Node000015_Node000018" class="edge">
<title>Node15&#45;&gt;Node18</title>
<g id="a_edge23_Node000015_Node000018"><a xlink:title=" ">
<path fill="none" stroke="#63b8ff" d="M604.38,-182.28C618.51,-172.04 641.9,-155.09 659.13,-142.6"/>
<polygon fill="#63b8ff" stroke="#63b8ff" points="661.17,-145.44 667.22,-136.74 657.07,-139.77 661.17,-145.44"/>
</a>
</g>
</g>
<!-- Node15&#45;&gt;Node19 -->
<g id="edge27_Node000015_Node000019" class="edge">
<title>Node15&#45;&gt;Node19</title>
<g id="a_edge27_Node000015_Node000019"><a xlink:title=" ">
<path fill="none" stroke="#63b8ff" d="M614.41,-182.24C638.78,-172.37 678.82,-155.95 713,-141 713.47,-140.79 713.95,-140.58 714.44,-140.37"/>
<polygon fill="#63b8ff" stroke="#63b8ff" points="715.64,-143.67 723.32,-136.38 712.77,-137.28 715.64,-143.67"/>
</a>
</g>
</g>
<!-- Node16&#45;&gt;Node5 -->
<g id="edge20_Node000016_Node000005" class="edge">
<title>Node16&#45;&gt;Node5</title>
<g id="a_edge20_Node000016_Node000005"><a xlink:title=" ">
<path fill="none" stroke="#63b8ff" d="M1299.23,-54.78C1253.46,-45.69 1182.97,-31.68 1133.69,-21.89"/>
<polygon fill="#63b8ff" stroke="#63b8ff" points="1134.55,-18.49 1124.06,-19.98 1133.19,-25.36 1134.55,-18.49"/>
</a>
</g>
</g>
<!-- Node20&#45;&gt;Node10 -->
<g id="edge56_Node000020_Node000010" class="edge">
<title>Node20&#45;&gt;Node10</title>
<g id="a_edge56_Node000020_Node000010"><a xlink:title=" ">
<path fill="none" stroke="#63b8ff" d="M930.61,-255.44C892.77,-251.12 840.82,-239.31 808,-207.5 775.4,-175.91 810.64,-139.84 776,-110.5 737.61,-77.99 585.48,-69.07 518.71,-66.7"/>
<polygon fill="#63b8ff" stroke="#63b8ff" points="518.9,-63.21 508.79,-66.38 518.67,-70.2 518.9,-63.21"/>
</a>
</g>
</g>
<!-- Node21 -->
<g id="Node000021" class="node">
<title>Node21</title>
<g id="a_Node000021"><a xlink:href="../../d2/dae/_c_container_printer_8h.html" target="_top" xlink:title=" ">
<polygon fill="white" stroke="#666666" points="1390.62,-201.88 1267.38,-201.88 1267.38,-182.62 1390.62,-182.62 1390.62,-201.88"/>
<text text-anchor="middle" x="1329" y="-188.38" font-family="Helvetica,sans-Serif" font-size="10.00">core/CContainerPrinter.h</text>
</a>
</g>
</g>
<!-- Node20&#45;&gt;Node21 -->
<g id="edge31_Node000020_Node000021" class="edge">
<title>Node20&#45;&gt;Node21</title>
<g id="a_edge31_Node000020_Node000021"><a xlink:title=" ">
<path fill="none" stroke="#63b8ff" d="M1011.95,-248.64C1019.2,-246.83 1026.84,-245.02 1034,-243.5 1109.2,-227.55 1196.02,-213.25 1255.91,-204.03"/>
<polygon fill="#63b8ff" stroke="#63b8ff" points="1256.29,-207.51 1265.64,-202.53 1255.23,-200.59 1256.29,-207.51"/>
</a>
</g>
</g>
<!-- Node30 -->
<g id="Node000030" class="node">
<title>Node30</title>
<g id="a_Node000030"><a xlink:title=" ">
<polygon fill="#e0e0e0" stroke="#999999" points="1618.62,-135.38 1567.38,-135.38 1567.38,-116.12 1618.62,-116.12 1618.62,-135.38"/>
<text text-anchor="middle" x="1593" y="-121.88" font-family="Helvetica,sans-Serif" font-size="10.00">sstream</text>
</a>
</g>
</g>
<!-- Node20&#45;&gt;Node30 -->
<g id="edge55_Node000020_Node000030" class="edge">
<title>Node20&#45;&gt;Node30</title>
<g id="a_edge55_Node000020_Node000030"><a xlink:title=" ">
<path fill="none" stroke="#63b8ff" d="M1010.1,-248.7C1017.87,-246.75 1026.19,-244.87 1034,-243.5 1194.99,-215.27 1241.52,-247.49 1400,-207.5 1462.02,-191.85 1530.05,-159.52 1566.47,-140.86"/>
<polygon fill="#63b8ff" stroke="#63b8ff" points="1567.68,-144.17 1574.95,-136.46 1564.46,-137.96 1567.68,-144.17"/>
</a>
</g>
</g>
<!-- Node32 -->
<g id="Node000032" class="node">
<title>Node32</title>
<g id="a_Node000032"><a xlink:title=" ">
<polygon fill="#e0e0e0" stroke="#999999" points="1172.75,-201.88 1041.25,-201.88 1041.25,-182.62 1172.75,-182.62 1172.75,-201.88"/>
<text text-anchor="middle" x="1107" y="-188.38" font-family="Helvetica,sans-Serif" font-size="10.00">boost/current_function.hpp</text>
</a>
</g>
</g>
<!-- Node20&#45;&gt;Node32 -->
<g id="edge52_Node000020_Node000032" class="edge">
<title>Node20&#45;&gt;Node32</title>
<g id="a_edge52_Node000020_Node000032"><a xlink:title=" ">
<path fill="none" stroke="#63b8ff" d="M996.21,-248.65C1017.72,-237.89 1053.75,-219.87 1078.86,-207.32"/>
<polygon fill="#63b8ff" stroke="#63b8ff" points="1080.15,-210.59 1087.53,-202.99 1077.02,-204.33 1080.15,-210.59"/>
</a>
</g>
</g>
<!-- Node33 -->
<g id="Node000033" class="node">
<title>Node33</title>
<g id="a_Node000033"><a xlink:title=" ">
<polygon fill="#e0e0e0" stroke="#999999" points="957.25,-207.5 816.75,-207.5 816.75,-177 957.25,-177 957.25,-207.5"/>
<text text-anchor="start" x="824.75" y="-194" font-family="Helvetica,sans-Serif" font-size="10.00">boost/log/utility/manipulators</text>
<text text-anchor="middle" x="887" y="-182.75" font-family="Helvetica,sans-Serif" font-size="10.00">/add_value.hpp</text>
</a>
</g>
</g>
<!-- Node20&#45;&gt;Node33 -->
<g id="edge53_Node000020_Node000033" class="edge">
<title>Node20&#45;&gt;Node33</title>
<g id="a_edge53_Node000020_Node000033"><a xlink:title=" ">
<path fill="none" stroke="#63b8ff" d="M965.35,-248.78C952.85,-239.93 933.29,-226.06 916.84,-214.4"/>
<polygon fill="#63b8ff" stroke="#63b8ff" points="919,-211.64 908.82,-208.72 914.95,-217.35 919,-211.64"/>
</a>
</g>
</g>
<!-- Node34 -->
<g id="Node000034" class="node">
<title>Node34</title>
<g id="a_Node000034"><a xlink:title=" ">
<polygon fill="#e0e0e0" stroke="#999999" points="1023.12,-201.88 974.88,-201.88 974.88,-182.62 1023.12,-182.62 1023.12,-201.88"/>
<text text-anchor="middle" x="999" y="-188.38" font-family="Helvetica,sans-Serif" font-size="10.00">cstddef</text>
</a>
</g>
</g>
<!-- Node20&#45;&gt;Node34 -->
<g id="edge54_Node000020_Node000034" class="edge">
<title>Node20&#45;&gt;Node34</title>
<g id="a_edge54_Node000020_Node000034"><a xlink:title=" ">
<path fill="none" stroke="#63b8ff" d="M980.92,-248.78C983.93,-239.54 988.72,-224.83 992.61,-212.88"/>
<polygon fill="#63b8ff" stroke="#63b8ff" points="995.87,-214.17 995.64,-203.58 989.21,-212.01 995.87,-214.17"/>
</a>
</g>
</g>
<!-- Node21&#45;&gt;Node5 -->
<g id="edge42_Node000021_Node000005" class="edge">
<title>Node21&#45;&gt;Node5</title>
<g id="a_edge42_Node000021_Node000005"><a xlink:title=" ">
<path fill="none" stroke="#63b8ff" d="M1270.41,-182.16C1205.37,-171.53 1107.92,-153.76 1096,-141 1068.1,-111.15 1069.89,-59.47 1073.51,-30.97"/>
<polygon fill="#63b8ff" stroke="#63b8ff" points="1076.96,-31.57 1074.98,-21.16 1070.04,-30.53 1076.96,-31.57"/>
</a>
</g>
</g>
<!-- Node21&#45;&gt;Node7 -->
<g id="edge44_Node000021_Node000007" class="edge">
<title>Node21&#45;&gt;Node7</title>
<g id="a_edge44_Node000021_Node000007"><a xlink:title=" ">
<path fill="none" stroke="#63b8ff" d="M1281.6,-182.15C1272.14,-180.39 1262.26,-178.6 1253,-177 1151.91,-159.55 1124.69,-165.22 1025,-141 1022.58,-140.41 1020.1,-139.75 1017.61,-139.04"/>
<polygon fill="#63b8ff" stroke="#63b8ff" points="1018.85,-135.76 1008.26,-136.18 1016.8,-142.46 1018.85,-135.76"/>
</a>
</g>
</g>
<!-- Node21&#45;&gt;Node9 -->
<g id="edge46_Node000021_Node000009" class="edge">
<title>Node21&#45;&gt;Node9</title>
<g id="a_edge46_Node000021_Node000009"><a xlink:title=" ">
<path fill="none" stroke="#63b8ff" d="M1267.19,-184.6C1240.94,-181.95 1210,-179.04 1182,-177 856.69,-153.26 772.79,-180.35 449,-141 437.17,-139.56 424.39,-137.31 412.88,-135.02"/>
<polygon fill="#63b8ff" stroke="#63b8ff" points="413.85,-131.65 403.35,-133.05 412.44,-138.5 413.85,-131.65"/>
</a>
</g>
</g>
<!-- Node21&#45;&gt;Node10 -->
<g id="edge50_Node000021_Node000010" class="edge">
<title>Node21&#45;&gt;Node10</title>
<g id="a_edge50_Node000021_Node000010"><a xlink:title=" ">
<path fill="none" stroke="#63b8ff" d="M1280.49,-182.15C1204.11,-167.82 1064.26,-141.53 1063,-141 1041.44,-131.84 1042.01,-118.54 1020,-110.5 926.96,-76.51 618.8,-68.18 518.7,-66.35"/>
<polygon fill="#63b8ff" stroke="#63b8ff" points="518.87,-62.85 508.81,-66.18 518.75,-69.85 518.87,-62.85"/>
</a>
</g>
</g>
<!-- Node21&#45;&gt;Node16 -->
<g id="edge32_Node000021_Node000016" class="edge">
<title>Node21&#45;&gt;Node16</title>
<g id="a_edge32_Node000021_Node000016"><a xlink:title=" ">
<path fill="none" stroke="#63b8ff" d="M1391.06,-183.17C1440.58,-175.3 1504.19,-161.5 1520,-141 1551.02,-100.76 1481.73,-81.76 1421.38,-73"/>
<polygon fill="#63b8ff" stroke="#63b8ff" points="1422.13,-69.57 1411.75,-71.68 1421.18,-76.5 1422.13,-69.57"/>
</a>
</g>
</g>
<!-- Node21&#45;&gt;Node22 -->
<g id="edge33_Node000021_Node000022" class="edge">
<title>Node21&#45;&gt;Node22</title>
<g id="a_edge33_Node000021_Node000022"><a xlink:title=" ">
<path fill="none" stroke="#63b8ff" d="M1384.9,-182.15C1458.51,-170.16 1587.51,-149.14 1663.71,-136.73"/>
<polygon fill="#63b8ff" stroke="#63b8ff" points="1664.22,-140.2 1673.52,-135.13 1663.09,-133.29 1664.22,-140.2"/>
</a>
</g>
</g>
<!-- Node26 -->
<g id="Node000026" class="node">
<title>Node26</title>
<g id="a_Node000026"><a xlink:title=" ">
<polygon fill="#e0e0e0" stroke="#999999" points="1308.62,-141 1185.38,-141 1185.38,-110.5 1308.62,-110.5 1308.62,-141"/>
<text text-anchor="start" x="1193.38" y="-127.5" font-family="Helvetica,sans-Serif" font-size="10.00">boost/log/sources/record</text>
<text text-anchor="middle" x="1247" y="-116.25" font-family="Helvetica,sans-Serif" font-size="10.00">_ostream.hpp</text>
</a>
</g>
</g>
<!-- Node21&#45;&gt;Node26 -->
<g id="edge43_Node000021_Node000026" class="edge">
<title>Node21&#45;&gt;Node26</title>
<g id="a_edge43_Node000021_Node000026"><a xlink:title=" ">
<path fill="none" stroke="#63b8ff" d="M1317.6,-182.28C1306.45,-173.51 1289.04,-159.82 1274.3,-148.23"/>
<polygon fill="#63b8ff" stroke="#63b8ff" points="1276.76,-145.71 1266.74,-142.28 1272.44,-151.21 1276.76,-145.71"/>
</a>
</g>
</g>
<!-- Node27 -->
<g id="Node000027" class="node">
<title>Node27</title>
<g id="a_Node000027"><a xlink:title=" ">
<polygon fill="#e0e0e0" stroke="#999999" points="1373,-135.38 1327,-135.38 1327,-116.12 1373,-116.12 1373,-135.38"/>
<text text-anchor="middle" x="1350" y="-121.88" font-family="Helvetica,sans-Serif" font-size="10.00">iterator</text>
</a>
</g>
</g>
<!-- Node21&#45;&gt;Node27 -->
<g id="edge45_Node000021_Node000027" class="edge">
<title>Node21&#45;&gt;Node27</title>
<g id="a_edge45_Node000021_Node000027"><a xlink:title=" ">
<path fill="none" stroke="#63b8ff" d="M1331.92,-182.28C1334.93,-173.04 1339.72,-158.33 1343.61,-146.38"/>
<polygon fill="#63b8ff" stroke="#63b8ff" points="1346.87,-147.67 1346.64,-137.08 1340.21,-145.51 1346.87,-147.67"/>
</a>
</g>
</g>
<!-- Node28 -->
<g id="Node000028" class="node">
<title>Node28</title>
<g id="a_Node000028"><a xlink:title=" ">
<polygon fill="#e0e0e0" stroke="#999999" points="1440.88,-135.38 1391.12,-135.38 1391.12,-116.12 1440.88,-116.12 1440.88,-135.38"/>
<text text-anchor="middle" x="1416" y="-121.88" font-family="Helvetica,sans-Serif" font-size="10.00">optional</text>
</a>
</g>
</g>
<!-- Node21&#45;&gt;Node28 -->
<g id="edge47_Node000021_Node000028" class="edge">
<title>Node21&#45;&gt;Node28</title>
<g id="a_edge47_Node000021_Node000028"><a xlink:title=" ">
<path fill="none" stroke="#63b8ff" d="M1341.1,-182.28C1354.91,-172.04 1377.78,-155.09 1394.62,-142.6"/>
<polygon fill="#63b8ff" stroke="#63b8ff" points="1396.56,-145.52 1402.51,-136.75 1392.39,-139.9 1396.56,-145.52"/>
</a>
</g>
</g>
<!-- Node29 -->
<g id="Node000029" class="node">
<title>Node29</title>
<g id="a_Node000029"><a xlink:title=" ">
<polygon fill="#e0e0e0" stroke="#999999" points="1510.62,-135.38 1459.38,-135.38 1459.38,-116.12 1510.62,-116.12 1510.62,-135.38"/>
<text text-anchor="middle" x="1485" y="-121.88" font-family="Helvetica,sans-Serif" font-size="10.00">ostream</text>
</a>
</g>
</g>
<!-- Node21&#45;&gt;Node29 -->
<g id="edge48_Node000021_Node000029" class="edge">
<title>Node21&#45;&gt;Node29</title>
<g id="a_edge48_Node000021_Node000029"><a xlink:title=" ">
<path fill="none" stroke="#63b8ff" d="M1351.02,-182.15C1377.5,-171.2 1422.17,-152.73 1452.59,-140.15"/>
<polygon fill="#63b8ff" stroke="#63b8ff" points="1453.79,-143.44 1461.69,-136.39 1451.11,-136.97 1453.79,-143.44"/>
</a>
</g>
</g>
<!-- Node21&#45;&gt;Node30 -->
<g id="edge49_Node000021_Node000030" class="edge">
<title>Node21&#45;&gt;Node30</title>
<g id="a_edge49_Node000021_Node000030"><a xlink:title=" ">
<path fill="none" stroke="#63b8ff" d="M1377.49,-182.14C1423.16,-173.15 1493.27,-158.27 1553,-141 1554.72,-140.5 1556.47,-139.97 1558.24,-139.42"/>
<polygon fill="#63b8ff" stroke="#63b8ff" points="1559.22,-142.78 1567.6,-136.3 1557.01,-136.14 1559.22,-142.78"/>
</a>
</g>
</g>
<!-- Node31 -->
<g id="Node000031" class="node">
<title>Node31</title>
<g id="a_Node000031"><a xlink:title=" ">
<polygon fill="#e0e0e0" stroke="#999999" points="1166.88,-135.38 1105.12,-135.38 1105.12,-116.12 1166.88,-116.12 1166.88,-135.38"/>
<text text-anchor="middle" x="1136" y="-121.88" font-family="Helvetica,sans-Serif" font-size="10.00">type_traits</text>
</a>
</g>
</g>
<!-- Node21&#45;&gt;Node31 -->
<g id="edge51_Node000021_Node000031" class="edge">
<title>Node21&#45;&gt;Node31</title>
<g id="a_edge51_Node000021_Node000031"><a xlink:title=" ">
<path fill="none" stroke="#63b8ff" d="M1300.73,-182.2C1269.97,-172.29 1219.38,-155.85 1176,-141 1174.47,-140.48 1172.92,-139.94 1171.35,-139.4"/>
<polygon fill="#63b8ff" stroke="#63b8ff" points="1172.95,-136.25 1162.36,-136.24 1170.64,-142.86 1172.95,-136.25"/>
</a>
</g>
</g>
<!-- Node22&#45;&gt;Node5 -->
<g id="edge39_Node000022_Node000005" class="edge">
<title>Node22&#45;&gt;Node5</title>
<g id="a_edge39_Node000022_Node000005"><a xlink:title=" ">
<path fill="none" stroke="#63b8ff" d="M1715.99,-115.73C1699.81,-100.19 1664.05,-68.73 1627,-55.25 1538.93,-23.21 1264.25,-14.08 1139.62,-11.55"/>
<polygon fill="#63b8ff" stroke="#63b8ff" points="1139.97,-8.06 1129.91,-11.37 1139.84,-15.06 1139.97,-8.06"/>
</a>
</g>
</g>
<!-- Node22&#45;&gt;Node10 -->
<g id="edge40_Node000022_Node000010" class="edge">
<title>Node22&#45;&gt;Node10</title>
<g id="a_edge40_Node000022_Node000010"><a xlink:title=" ">
<path fill="none" stroke="#63b8ff" d="M1675.28,-116.4C1660.14,-114.14 1643.42,-111.93 1628,-110.5 1189.65,-69.85 653.23,-66.14 518.72,-65.88"/>
<polygon fill="#63b8ff" stroke="#63b8ff" points="518.83,-62.38 508.83,-65.86 518.82,-69.38 518.83,-62.38"/>
</a>
</g>
</g>
<!-- Node22&#45;&gt;Node16 -->
<g id="edge38_Node000022_Node000016" class="edge">
<title>Node22&#45;&gt;Node16</title>
<g id="a_edge38_Node000022_Node000016"><a xlink:title=" ">
<path fill="none" stroke="#63b8ff" d="M1674.93,-116.99C1608.32,-106.67 1490.21,-88.37 1414.85,-76.7"/>
<polygon fill="#63b8ff" stroke="#63b8ff" points="1415.51,-73.26 1405.1,-75.19 1414.44,-80.18 1415.51,-73.26"/>
</a>
</g>
</g>
<!-- Node23 -->
<g id="Node000023" class="node">
<title>Node23</title>
<g id="a_Node000023"><a xlink:href="../../d6/dbf/_c_i_e_e_e754_8h.html" target="_top" xlink:title=" ">
<polygon fill="white" stroke="#666666" points="1771.25,-74.5 1678.75,-74.5 1678.75,-55.25 1771.25,-55.25 1771.25,-74.5"/>
<text text-anchor="middle" x="1725" y="-61" font-family="Helvetica,sans-Serif" font-size="10.00">core/CIEEE754.h</text>
</a>
</g>
</g>
<!-- Node22&#45;&gt;Node23 -->
<g id="edge34_Node000022_Node000023" class="edge">
<title>Node22&#45;&gt;Node23</title>
<g id="a_edge34_Node000022_Node000023"><a xlink:title=" ">
<path fill="none" stroke="#63b8ff" d="M1725,-115.81C1725,-108.03 1725,-96.45 1725,-86.41"/>
<polygon fill="#63b8ff" stroke="#63b8ff" points="1728.5,-86.41 1725,-76.41 1721.5,-86.41 1728.5,-86.41"/>
</a>
</g>
</g>
<!-- Node25 -->
<g id="Node000025" class="node">
<title>Node25</title>
<g id="a_Node000025"><a xlink:title=" ">
<polygon fill="#e0e0e0" stroke="#999999" points="1832.5,-74.5 1789.5,-74.5 1789.5,-55.25 1832.5,-55.25 1832.5,-74.5"/>
<text text-anchor="middle" x="1811" y="-61" font-family="Helvetica,sans-Serif" font-size="10.00">vector</text>
</a>
</g>
</g>
<!-- Node22&#45;&gt;Node25 -->
<g id="edge41_Node000022_Node000025" class="edge">
<title>Node22&#45;&gt;Node25</title>
<g id="a_edge41_Node000022_Node000025"><a xlink:title=" ">
<path fill="none" stroke="#63b8ff" d="M1738.06,-115.81C1751.45,-106.64 1772.52,-92.22 1788.58,-81.23"/>
<polygon fill="#63b8ff" stroke="#63b8ff" points="1790.29,-84.29 1796.57,-75.76 1786.34,-78.52 1790.29,-84.29"/>
</a>
</g>
</g>
<!-- Node23&#45;&gt;Node5 -->
<g id="edge35_Node000023_Node000005" class="edge">
<title>Node23&#45;&gt;Node5</title>
<g id="a_edge35_Node000023_Node000005"><a xlink:title=" ">
<path fill="none" stroke="#63b8ff" d="M1678.53,-56.88C1673.96,-56.29 1669.39,-55.73 1665,-55.25 1474.02,-34.3 1247.07,-20.09 1139.5,-13.99"/>
<polygon fill="#63b8ff" stroke="#63b8ff" points="1139.92,-10.51 1129.74,-13.44 1139.53,-17.5 1139.92,-10.51"/>
</a>
</g>
</g>
<!-- Node23&#45;&gt;Node6 -->
<g id="edge36_Node000023_Node000006" class="edge">
<title>Node23&#45;&gt;Node6</title>
<g id="a_edge36_Node000023_Node000006"><a xlink:title=" ">
<path fill="none" stroke="#63b8ff" d="M1678.6,-62.31C1443.35,-54.38 385.6,-18.71 180.51,-11.79"/>
<polygon fill="#63b8ff" stroke="#63b8ff" points="180.64,-8.29 170.53,-11.45 180.41,-15.29 180.64,-8.29"/>
</a>
</g>
</g>
<!-- Node24 -->
<g id="Node000024" class="node">
<title>Node24</title>
<g id="a_Node000024"><a xlink:title=" ">
<polygon fill="#e0e0e0" stroke="#999999" points="1747.62,-19.25 1702.38,-19.25 1702.38,0 1747.62,0 1747.62,-19.25"/>
<text text-anchor="middle" x="1725" y="-5.75" font-family="Helvetica,sans-Serif" font-size="10.00">cstring</text>
</a>
</g>
</g>
<!-- Node23&#45;&gt;Node24 -->
<g id="edge37_Node000023_Node000024" class="edge">
<title>Node23&#45;&gt;Node24</title>
<g id="a_edge37_Node000023_Node000024"><a xlink:title=" ">
<path fill="none" stroke="#63b8ff" d="M1725,-55.08C1725,-48.57 1725,-39.42 1725,-31.12"/>
<polygon fill="#63b8ff" stroke="#63b8ff" points="1728.5,-31.12 1725,-21.12 1721.5,-31.12 1728.5,-31.12"/>
</a>
</g>
</g>
</g>
</svg>

<g id="navigator" transform="translate(0 0)" fill="#404254">
  <rect fill="#f2f5e9" fill-opacity="0.5" stroke="#606060" stroke-width=".5" x="0" y="0" width="60" height="60"/>
  <use id="zoomplus" xlink:href="#zoomPlus" x="17" y="9" onmousedown="handleZoom(evt,'in')"/>
  <use id="zoomminus" xlink:href="#zoomMin" x="42" y="9" onmousedown="handleZoom(evt,'out')"/>
  <use id="reset" xlink:href="#resetDef" x="30" y="36" onmousedown="handleReset()"/>
   <use id="arrowup" xlink:href="#arrowUp" x="0" y="0" onmousedown="handlePan(0,-1)"/>
  <use id="arrowright" xlink:href="#arrowRight" x="0" y="0" onmousedown="handlePan(1,0)"/>
  <use id="arrowdown" xlink:href="#arrowDown" x="0" y="0" onmousedown="handlePan(0,1)"/>
  <use id="arrowleft" xlink:href="#arrowLeft" x="0" y="0" onmousedown="handlePan(-1,0)"/>
</g>
<svg viewBox="0 0 15 15" width="100%" height="30px" preserveAspectRatio="xMaxYMin meet">
 <g id="arrow_out" transform="scale(0.3 0.3)">
  <a xlink:href="_c_multi_file_data_adder_8cc__incl_org.svg" target="_base">
   <rect id="button" ry="5" rx="5" y="6" x="6" height="38" width="38"
        fill="#f2f5e9" fill-opacity="0.5" stroke="#606060" stroke-width="1.0"/>
   <path id="arrow"
     d="M 11.500037,31.436501 C 11.940474,20.09759 22.043105,11.32322 32.158766,21.979434 L 37.068811,17.246167 C 37.068811,17.246167 37.088388,32 37.088388,32 L 22.160133,31.978069 C 22.160133,31.978069 26.997745,27.140456 26.997745,27.140456 C 18.528582,18.264221 13.291696,25.230495 11.500037,31.436501 z"
     style="fill:#404040;"/>
  </a>
 </g>
</svg>

<style type='text/css'>
<![CDATA[
[data-mouse-over-selected='false'] { opacity: 0.7; }
[data-mouse-over-selected='true']  { opacity: 1.0; }
]]>
</style>
<script type="application/ecmascript"><![CDATA[
document.addEventListener('DOMContentLoaded', (event) => {
  highlightEdges();
  highlightAdjacentNodes();
});
]]></script>
</svg>
