<?xml version="1.0" encoding="UTF-8" standalone="no"?>
<!DOCTYPE svg PUBLIC "-//W3C//DTD SVG 1.1//EN"
 "http://www.w3.org/Graphics/SVG/1.1/DTD/svg11.dtd">
<!-- Generated by graphviz version 10.0.1 (20240210.2158)
 -->
<!-- Title: ml::core::CProcess::startDispatcher Pages: 1 -->
<svg width="245pt" height="94pt"
 viewBox="0.00 0.00 244.75 93.88" xmlns="http://www.w3.org/2000/svg" xmlns:xlink="http://www.w3.org/1999/xlink">
<g id="graph0" class="graph" transform="scale(1 1) rotate(0) translate(4 89.88)">
<title>ml::core::CProcess::startDispatcher</title>
<!-- Node1 -->
<g id="Node000001" class="node">
<title>Node1</title>
<g id="a_Node000001"><a xlink:title=" ">
<polygon fill="#999999" stroke="#666666" points="100.75,-45.88 0,-45.88 0,-15.37 100.75,-15.37 100.75,-45.88"/>
<text text-anchor="start" x="8" y="-32.38" font-family="Helvetica,sans-Serif" font-size="10.00">ml::core::CProcess</text>
<text text-anchor="middle" x="50.38" y="-21.12" font-family="Helvetica,sans-Serif" font-size="10.00">::startDispatcher</text>
</a>
</g>
</g>
<!-- Node2 -->
<g id="Node000002" class="node">
<title>Node2</title>
<g id="a_Node000002"><a xlink:href="../../dd/dbf/classml_1_1core_1_1_c_logger.html#acf1a4d893bb267652eda4d3c8f197f7d" target="_top" xlink:title=" ">
<polygon fill="white" stroke="#666666" points="236.75,-67.88 136.75,-67.88 136.75,-37.38 236.75,-37.38 236.75,-67.88"/>
<text text-anchor="start" x="144.75" y="-54.38" font-family="Helvetica,sans-Serif" font-size="10.00">ml::core::CLogger::</text>
<text text-anchor="middle" x="186.75" y="-43.12" font-family="Helvetica,sans-Serif" font-size="10.00">instance</text>
</a>
</g>
</g>
<!-- Node1&#45;&gt;Node2 -->
<g id="edge1_Node000001_Node000002" class="edge">
<title>Node1&#45;&gt;Node2</title>
<g id="a_edge1_Node000001_Node000002"><a xlink:title=" ">
<path fill="none" stroke="#63b8ff" d="M101.03,-38.75C108.86,-40.04 117.02,-41.37 125.06,-42.69"/>
<polygon fill="#63b8ff" stroke="#63b8ff" points="124.37,-46.12 134.81,-44.28 125.5,-39.21 124.37,-46.12"/>
</a>
</g>
</g>
<!-- Node3 -->
<g id="Node000003" class="node">
<title>Node3</title>
<g id="a_Node000003"><a xlink:href="../../d2/d09/_main_for_services_8h.html#aafa15aa8fcd9d344278943c3334d2ecb" target="_top" xlink:title=" ">
<polygon fill="white" stroke="#666666" points="210.5,-19.25 163,-19.25 163,0 210.5,0 210.5,-19.25"/>
<text text-anchor="middle" x="186.75" y="-5.75" font-family="Helvetica,sans-Serif" font-size="10.00">mlMain</text>
</a>
</g>
</g>
<!-- Node1&#45;&gt;Node3 -->
<g id="edge3_Node000001_Node000003" class="edge">
<title>Node1&#45;&gt;Node3</title>
<g id="a_edge3_Node000001_Node000003"><a xlink:title=" ">
<path fill="none" stroke="#63b8ff" d="M101.03,-22.87C117.83,-20.24 136.2,-17.37 151.53,-14.97"/>
<polygon fill="#63b8ff" stroke="#63b8ff" points="151.75,-18.48 161.09,-13.48 150.67,-11.57 151.75,-18.48"/>
</a>
</g>
</g>
<!-- Node2&#45;&gt;Node2 -->
<g id="edge2_Node000002_Node000002" class="edge">
<title>Node2&#45;&gt;Node2</title>
<g id="a_edge2_Node000002_Node000002"><a xlink:title=" ">
<path fill="none" stroke="#63b8ff" d="M162.58,-68.36C157.65,-77.43 165.71,-85.88 186.75,-85.88 198.26,-85.88 205.88,-83.35 209.62,-79.58"/>
<polygon fill="#63b8ff" stroke="#63b8ff" points="213.07,-80.2 210.74,-69.86 206.12,-79.4 213.07,-80.2"/>
</a>
</g>
</g>
</g>
</svg>
