<?xml version="1.0" encoding="UTF-8" standalone="no"?>
<!DOCTYPE svg PUBLIC "-//W3C//DTD SVG 1.1//EN"
 "http://www.w3.org/Graphics/SVG/1.1/DTD/svg11.dtd">
<!-- Generated by graphviz version 10.0.1 (20240210.2158)
 -->
<!-- Title: ml::maths::common::CKMostCorrelated::add Pages: 1 -->
<svg width="330pt" height="294pt"
 viewBox="0.00 0.00 329.50 294.12" xmlns="http://www.w3.org/2000/svg" xmlns:xlink="http://www.w3.org/1999/xlink">

<svg id="main" version="1.1" xmlns="http://www.w3.org/2000/svg" xmlns:xlink="http://www.w3.org/1999/xlink" xml:space="preserve" onload="init(evt)">
<style type="text/css"><![CDATA[
.node, .edge {opacity: 0.7;}
.node.selected, .edge.selected {opacity: 1;}
.edge:hover path { stroke: red; }
.edge:hover polygon { stroke: red; fill: red; }
]]></style>
<script type="application/ecmascript" xlink:href="../../svg.min.js"/>
<svg id="graph" class="graph">
<g id="graph0" class="graph" transform="scale(1 1) rotate(0) translate(4 290.12)">
<title>ml::maths::common::CKMostCorrelated::add</title>
<!-- Node1 -->
<g id="Node000001" class="node">
<title>Node1</title>
<g id="a_Node000001"><a xlink:title="Add the value x for the variable X.">
<polygon fill="#999999" stroke="#666666" points="118.75,-152.5 0,-152.5 0,-122 118.75,-122 118.75,-152.5"/>
<text text-anchor="start" x="8" y="-139" font-family="Helvetica,sans-Serif" font-size="10.00">ml::maths::common::</text>
<text text-anchor="middle" x="59.38" y="-127.75" font-family="Helvetica,sans-Serif" font-size="10.00">CKMostCorrelated::add</text>
</a>
</g>
</g>
<!-- Node2 -->
<g id="Node000002" class="node">
<title>Node2</title>
<g id="a_Node000002"><a xlink:href="../../dc/dbb/structml_1_1maths_1_1common_1_1_c_basic_statistics_1_1_s_sample_central_moments.html#acc61d392a0de1c035fe149a84fd252ca" target="_top" xlink:title="Update the moments with the collection x.">
<polygon fill="white" stroke="#666666" points="321.5,-286.12 154.75,-286.12 154.75,-244.38 321.5,-244.38 321.5,-286.12"/>
<text text-anchor="start" x="162.75" y="-272.62" font-family="Helvetica,sans-Serif" font-size="10.00">ml::maths::common::</text>
<text text-anchor="start" x="162.75" y="-261.38" font-family="Helvetica,sans-Serif" font-size="10.00">CBasicStatistics::SSampleCentral</text>
<text text-anchor="middle" x="238.12" y="-250.12" font-family="Helvetica,sans-Serif" font-size="10.00">Moments::add</text>
</a>
</g>
</g>
<!-- Node1&#45;&gt;Node2 -->
<g id="edge1_Node000001_Node000002" class="edge">
<title>Node1&#45;&gt;Node2</title>
<g id="a_edge1_Node000001_Node000002"><a xlink:title=" ">
<path fill="none" stroke="#63b8ff" d="M71.78,-152.97C88.01,-174.33 119.7,-212.45 154.75,-235.25 156.57,-236.43 158.44,-237.58 160.35,-238.68"/>
<polygon fill="#63b8ff" stroke="#63b8ff" points="158.39,-241.6 168.87,-243.19 161.66,-235.42 158.39,-241.6"/>
</a>
</g>
</g>
<!-- Node3 -->
<g id="Node000003" class="node">
<title>Node3</title>
<g id="a_Node000003"><a xlink:href="../../d4/d55/classml_1_1maths_1_1common_1_1_c_basic_statistics.html#a6a8651e3b13d0aaa6577af10dfdd97f7" target="_top" xlink:title="Extract the count from an accumulator object.">
<polygon fill="white" stroke="#666666" points="297.88,-226.5 178.38,-226.5 178.38,-196 297.88,-196 297.88,-226.5"/>
<text text-anchor="start" x="186.38" y="-213" font-family="Helvetica,sans-Serif" font-size="10.00">ml::maths::common::</text>
<text text-anchor="middle" x="238.12" y="-201.75" font-family="Helvetica,sans-Serif" font-size="10.00">CBasicStatistics::count</text>
</a>
</g>
</g>
<!-- Node1&#45;&gt;Node3 -->
<g id="edge2_Node000001_Node000003" class="edge">
<title>Node1&#45;&gt;Node3</title>
<g id="a_edge2_Node000001_Node000003"><a xlink:title=" ">
<path fill="none" stroke="#63b8ff" d="M87.41,-152.99C105.94,-163.35 131.33,-176.71 154.75,-186.25 159.6,-188.22 164.66,-190.13 169.79,-191.94"/>
<polygon fill="#63b8ff" stroke="#63b8ff" points="168.34,-195.14 178.93,-195.04 170.59,-188.51 168.34,-195.14"/>
</a>
</g>
</g>
<!-- Node4 -->
<g id="Node000004" class="node">
<title>Node4</title>
<g id="a_Node000004"><a xlink:href="../../d4/d55/classml_1_1maths_1_1common_1_1_c_basic_statistics.html#a9a136b1823e9938247cd29bb0ffea440" target="_top" xlink:title="Compute the mean of a pair.">
<polygon fill="white" stroke="#666666" points="297.88,-177.5 178.38,-177.5 178.38,-147 297.88,-147 297.88,-177.5"/>
<text text-anchor="start" x="186.38" y="-164" font-family="Helvetica,sans-Serif" font-size="10.00">ml::maths::common::</text>
<text text-anchor="middle" x="238.12" y="-152.75" font-family="Helvetica,sans-Serif" font-size="10.00">CBasicStatistics::mean</text>
</a>
</g>
</g>
<!-- Node1&#45;&gt;Node4 -->
<g id="edge3_Node000001_Node000004" class="edge">
<title>Node1&#45;&gt;Node4</title>
<g id="a_edge3_Node000001_Node000004"><a xlink:title=" ">
<path fill="none" stroke="#63b8ff" d="M119.23,-145.57C134.42,-147.72 150.93,-150.06 166.65,-152.28"/>
<polygon fill="#63b8ff" stroke="#63b8ff" points="166.03,-155.73 176.43,-153.66 167.01,-148.8 166.03,-155.73"/>
</a>
</g>
</g>
<!-- Node5 -->
<g id="Node000005" class="node">
<title>Node5</title>
<g id="a_Node000005"><a xlink:href="../../d0/ddc/classml_1_1maths_1_1common_1_1_c_k_most_correlated.html#ab6d5675bdb4104969cb24f6b16acaa38" target="_top" xlink:title="Get the variable moments.">
<polygon fill="white" stroke="#666666" points="309.88,-128.5 166.38,-128.5 166.38,-98 309.88,-98 309.88,-128.5"/>
<text text-anchor="start" x="174.38" y="-115" font-family="Helvetica,sans-Serif" font-size="10.00">ml::maths::common::</text>
<text text-anchor="middle" x="238.12" y="-103.75" font-family="Helvetica,sans-Serif" font-size="10.00">CKMostCorrelated::moments</text>
</a>
</g>
</g>
<!-- Node1&#45;&gt;Node5 -->
<g id="edge4_Node000001_Node000005" class="edge">
<title>Node1&#45;&gt;Node5</title>
<g id="a_edge4_Node000001_Node000005"><a xlink:title=" ">
<path fill="none" stroke="#63b8ff" d="M119.23,-129.26C130.57,-127.72 142.64,-126.08 154.57,-124.46"/>
<polygon fill="#63b8ff" stroke="#63b8ff" points="155,-127.93 164.44,-123.12 154.06,-121 155,-127.93"/>
</a>
</g>
</g>
<!-- Node6 -->
<g id="Node000006" class="node">
<title>Node6</title>
<g id="a_Node000006"><a xlink:href="../../d0/ddc/classml_1_1maths_1_1common_1_1_c_k_most_correlated.html#ac25371051c14bae4925cb663fda67da0" target="_top" xlink:title="Get the projected residuals.">
<polygon fill="white" stroke="#666666" points="309.5,-79.5 166.75,-79.5 166.75,-49 309.5,-49 309.5,-79.5"/>
<text text-anchor="start" x="174.75" y="-66" font-family="Helvetica,sans-Serif" font-size="10.00">ml::maths::common::</text>
<text text-anchor="middle" x="238.12" y="-54.75" font-family="Helvetica,sans-Serif" font-size="10.00">CKMostCorrelated::projected</text>
</a>
</g>
</g>
<!-- Node1&#45;&gt;Node6 -->
<g id="edge5_Node000001_Node000006" class="edge">
<title>Node1&#45;&gt;Node6</title>
<g id="a_edge5_Node000001_Node000006"><a xlink:title=" ">
<path fill="none" stroke="#63b8ff" d="M87.86,-121.65C106.37,-111.55 131.56,-98.58 154.75,-89.25 159.69,-87.26 164.85,-85.34 170.07,-83.51"/>
<polygon fill="#63b8ff" stroke="#63b8ff" points="171.04,-86.88 179.4,-80.37 168.8,-80.25 171.04,-86.88"/>
</a>
</g>
</g>
<!-- Node7 -->
<g id="Node000007" class="node">
<title>Node7</title>
<g id="a_Node000007"><a xlink:href="../../d4/d55/classml_1_1maths_1_1common_1_1_c_basic_statistics.html#a53b366eca7a0bae43e1c6d54573f3dcb" target="_top" xlink:title=" ">
<polygon fill="white" stroke="#666666" points="304.25,-30.5 172,-30.5 172,0 304.25,0 304.25,-30.5"/>
<text text-anchor="start" x="180" y="-17" font-family="Helvetica,sans-Serif" font-size="10.00">ml::maths::common::</text>
<text text-anchor="middle" x="238.12" y="-5.75" font-family="Helvetica,sans-Serif" font-size="10.00">CBasicStatistics::variance</text>
</a>
</g>
</g>
<!-- Node1&#45;&gt;Node7 -->
<g id="edge6_Node000001_Node000007" class="edge">
<title>Node1&#45;&gt;Node7</title>
<g id="a_edge6_Node000001_Node000007"><a xlink:title=" ">
<path fill="none" stroke="#63b8ff" d="M71.37,-121.78C87.36,-100.4 119.03,-62 154.75,-40.25 157.5,-38.57 160.38,-37 163.33,-35.53"/>
<polygon fill="#63b8ff" stroke="#63b8ff" points="164.56,-38.82 172.25,-31.52 161.69,-32.43 164.56,-38.82"/>
</a>
</g>
</g>
</g>
</svg>
</svg>

<style type='text/css'>
<![CDATA[
[data-mouse-over-selected='false'] { opacity: 0.7; }
[data-mouse-over-selected='true']  { opacity: 1.0; }
]]>
</style>
<script type="application/ecmascript"><![CDATA[
document.addEventListener('DOMContentLoaded', (event) => {
  highlightEdges();
  highlightAdjacentNodes();
});
]]></script>
</svg>
