<?xml version="1.0" encoding="UTF-8" standalone="no"?>
<!DOCTYPE svg PUBLIC "-//W3C//DTD SVG 1.1//EN"
 "http://www.w3.org/Graphics/SVG/1.1/DTD/svg11.dtd">
<!-- Generated by graphviz version 10.0.1 (20240210.2158)
 -->
<!-- Title: ml::maths::common::CKMostCorrelated::mostCorrelated Pages: 1 -->
<!--zoomable 255 -->

<svg id="main" version="1.1" xmlns="http://www.w3.org/2000/svg" xmlns:xlink="http://www.w3.org/1999/xlink" xml:space="preserve" onload="init(evt)">
<style type="text/css"><![CDATA[
.node, .edge {opacity: 0.7;}
.node.selected, .edge.selected {opacity: 1;}
.edge:hover path { stroke: red; }
.edge:hover polygon { stroke: red; fill: red; }
]]></style>

<defs>
  <circle id="rim" cx="0" cy="0" r="7"/>
  <circle id="rim2" cx="0" cy="0" r="3.5"/>
  <g id="zoomPlus">
    <use xlink:href="#rim" fill="#404040"><set attributeName="fill" to="#808080" begin="zoomplus.mouseover" end="zoomplus.mouseout"/></use>
    <path d="M-4,0h8M0,-4v8" fill="none" stroke="white" stroke-width="1.5" pointer-events="none"/>
  </g>
  <g id="zoomMin">
    <use xlink:href="#rim" fill="#404040"><set attributeName="fill" to="#808080" begin="zoomminus.mouseover" end="zoomminus.mouseout"/></use>
    <path d="M-4,0h8" fill="none" stroke="white" stroke-width="1.5" pointer-events="none"/>
  </g>
  <g id="arrowUp" transform="translate(30 24)">
    <use xlink:href="#rim"/>
    <path pointer-events="none" fill="none" stroke="white" stroke-width="1.5" d="M0,-3.0v7 M-2.5,-0.5L0,-3.0L2.5,-0.5"/>
  </g>
  <g id="arrowRight" transform="rotate(90) translate(36 -43)">
    <use xlink:href="#rim"/>
    <path pointer-events="none" fill="none" stroke="white" stroke-width="1.5" d="M0,-3.0v7 M-2.5,-0.5L0,-3.0L2.5,-0.5"/>
  </g>
  <g id="arrowDown" transform="rotate(180) translate(-30 -48)">
    <use xlink:href="#rim"/>
    <path pointer-events="none" fill="none" stroke="white" stroke-width="1.5" d="M0,-3.0v7 M-2.5,-0.5L0,-3.0L2.5,-0.5"/>
  </g>
  <g id="arrowLeft" transform="rotate(270) translate(-36 17)">
    <use xlink:href="#rim"/>
    <path pointer-events="none" fill="none" stroke="white" stroke-width="1.5" d="M0,-3.0v7 M-2.5,-0.5L0,-3.0L2.5,-0.5"/>
  </g>
  <g id="resetDef">
    <use xlink:href="#rim2" fill="#404040"><set attributeName="fill" to="#808080" begin="reset.mouseover" end="reset.mouseout"/></use>
  </g>
</defs>
<script type="application/ecmascript">
var viewWidth = 539;
var viewHeight = 255;
var sectionId = 'dynsection-23';
</script>
<script type="application/ecmascript" xlink:href="../../svg.min.js"/>
<svg id="graph" class="graph">
<g id="viewport">
<title>ml::maths::common::CKMostCorrelated::mostCorrelated</title>
<!-- Node1 -->
<g id="Node000001" class="node">
<title>Node1</title>
<g id="a_Node000001"><a xlink:title=" ">
<polygon fill="#999999" stroke="#666666" points="169.75,-133.5 0,-133.5 0,-103 169.75,-103 169.75,-133.5"/>
<text text-anchor="start" x="8" y="-120" font-family="Helvetica,sans-Serif" font-size="10.00">ml::maths::common::</text>
<text text-anchor="middle" x="84.88" y="-108.75" font-family="Helvetica,sans-Serif" font-size="10.00">CKMostCorrelated::mostCorrelated</text>
</a>
</g>
</g>
<!-- Node2 -->
<g id="Node000002" class="node">
<title>Node2</title>
<g id="a_Node000002"><a xlink:href="../../d9/d6e/classml_1_1maths_1_1common_1_1_c_basic_statistics_1_1_c_order_statistics_impl.html#a161be897a50a9000cc53f01f869b3c4a" target="_top" xlink:title="Remove all statistics.">
<polygon fill="white" stroke="#666666" points="374.75,-247.12 206.5,-247.12 206.5,-205.38 374.75,-205.38 374.75,-247.12"/>
<text text-anchor="start" x="214.5" y="-233.62" font-family="Helvetica,sans-Serif" font-size="10.00">ml::maths::common::</text>
<text text-anchor="start" x="214.5" y="-222.38" font-family="Helvetica,sans-Serif" font-size="10.00">CBasicStatistics::COrderStatistics</text>
<text text-anchor="middle" x="290.62" y="-211.12" font-family="Helvetica,sans-Serif" font-size="10.00">Impl::clear</text>
</a>
</g>
</g>
<!-- Node1&#45;&gt;Node2 -->
<g id="edge1_Node000001_Node000002" class="edge">
<title>Node1&#45;&gt;Node2</title>
<g id="a_edge1_Node000001_Node000002"><a xlink:title=" ">
<path fill="none" stroke="#63b8ff" d="M106.63,-133.91C129.86,-150.91 169.04,-178.06 205.75,-196.25 208.67,-197.7 211.68,-199.11 214.75,-200.49"/>
<polygon fill="#63b8ff" stroke="#63b8ff" points="213.36,-203.7 223.93,-204.41 216.11,-197.26 213.36,-203.7"/>
</a>
</g>
</g>
<!-- Node3 -->
<g id="Node000003" class="node">
<title>Node3</title>
<g id="a_Node000003"><a xlink:href="../../d6/d52/classml_1_1core_1_1_c_packed_bit_vector.html#aae429f3ade684c422d9f25ec88301131" target="_top" xlink:title="Get the dimension.">
<polygon fill="white" stroke="#666666" points="359.75,-187.5 221.5,-187.5 221.5,-157 359.75,-157 359.75,-187.5"/>
<text text-anchor="start" x="229.5" y="-174" font-family="Helvetica,sans-Serif" font-size="10.00">ml::core::CPackedBitVector</text>
<text text-anchor="middle" x="290.62" y="-162.75" font-family="Helvetica,sans-Serif" font-size="10.00">::dimension</text>
</a>
</g>
</g>
<!-- Node1&#45;&gt;Node3 -->
<g id="edge2_Node000001_Node000003" class="edge">
<title>Node1&#45;&gt;Node3</title>
<g id="a_edge2_Node000001_Node000003"><a xlink:title=" ">
<path fill="none" stroke="#63b8ff" d="M145.08,-133.94C168.31,-140.1 195.16,-147.21 219.36,-153.63"/>
<polygon fill="#63b8ff" stroke="#63b8ff" points="218.24,-156.95 228.81,-156.13 220.04,-150.19 218.24,-156.95"/>
</a>
</g>
</g>
<!-- Node4 -->
<g id="Node000004" class="node">
<title>Node4</title>
<g id="a_Node000004"><a xlink:href="../../df/d0a/structml_1_1maths_1_1common_1_1_c_k_most_correlated_1_1_s_correlation.html#abdd1387e3799884f449f4a2c48608f88" target="_top" xlink:title=" ">
<polygon fill="white" stroke="#666666" points="369.12,-139.12 212.12,-139.12 212.12,-97.38 369.12,-97.38 369.12,-139.12"/>
<text text-anchor="start" x="220.12" y="-125.62" font-family="Helvetica,sans-Serif" font-size="10.00">ml::maths::common::</text>
<text text-anchor="start" x="220.12" y="-114.38" font-family="Helvetica,sans-Serif" font-size="10.00">CKMostCorrelated::SCorrelation</text>
<text text-anchor="middle" x="290.62" y="-103.12" font-family="Helvetica,sans-Serif" font-size="10.00">::distance</text>
</a>
</g>
</g>
<!-- Node1&#45;&gt;Node4 -->
<g id="edge3_Node000001_Node000004" class="edge">
<title>Node1&#45;&gt;Node4</title>
<g id="a_edge3_Node000001_Node000004"><a xlink:title=" ">
<path fill="none" stroke="#63b8ff" d="M170.22,-118.25C180.24,-118.25 190.5,-118.25 200.58,-118.25"/>
<polygon fill="#63b8ff" stroke="#63b8ff" points="200.36,-121.75 210.36,-118.25 200.36,-114.75 200.36,-121.75"/>
</a>
</g>
</g>
<!-- Node6 -->
<g id="Node000006" class="node">
<title>Node6</title>
<g id="a_Node000006"><a xlink:href="../../d6/d52/classml_1_1core_1_1_c_packed_bit_vector.html#a8099c4cbd9ef3dc7ee8b611290f2b701" target="_top" xlink:title="Manhattan norm.">
<polygon fill="white" stroke="#666666" points="359.75,-79.5 221.5,-79.5 221.5,-49 359.75,-49 359.75,-79.5"/>
<text text-anchor="start" x="229.5" y="-66" font-family="Helvetica,sans-Serif" font-size="10.00">ml::core::CPackedBitVector</text>
<text text-anchor="middle" x="290.62" y="-54.75" font-family="Helvetica,sans-Serif" font-size="10.00">::manhattan</text>
</a>
</g>
</g>
<!-- Node1&#45;&gt;Node6 -->
<g id="edge5_Node000001_Node000006" class="edge">
<title>Node1&#45;&gt;Node6</title>
<g id="a_edge5_Node000001_Node000006"><a xlink:title=" ">
<path fill="none" stroke="#63b8ff" d="M145.08,-102.56C168.31,-96.4 195.16,-89.29 219.36,-82.87"/>
<polygon fill="#63b8ff" stroke="#63b8ff" points="220.04,-86.31 228.81,-80.37 218.24,-79.55 220.04,-86.31"/>
</a>
</g>
</g>
<!-- Node7 -->
<g id="Node000007" class="node">
<title>Node7</title>
<g id="a_Node000007"><a xlink:href="../../d0/ddc/classml_1_1maths_1_1common_1_1_c_k_most_correlated.html#af1cc73c542ac0e55492bb3b58a988b76" target="_top" xlink:title="Get the most correlated variables.">
<polygon fill="white" stroke="#666666" points="375.5,-30.5 205.75,-30.5 205.75,0 375.5,0 375.5,-30.5"/>
<text text-anchor="start" x="213.75" y="-17" font-family="Helvetica,sans-Serif" font-size="10.00">ml::maths::common::</text>
<text text-anchor="middle" x="290.62" y="-5.75" font-family="Helvetica,sans-Serif" font-size="10.00">CKMostCorrelated::mostCorrelated</text>
</a>
</g>
</g>
<!-- Node1&#45;&gt;Node7 -->
<g id="edge6_Node000001_Node000007" class="edge">
<title>Node1&#45;&gt;Node7</title>
<g id="a_edge6_Node000001_Node000007"><a xlink:title=" ">
<path fill="none" stroke="#63b8ff" d="M106.04,-102.52C129.04,-85.21 168.34,-57.55 205.75,-40.25 209.94,-38.31 214.31,-36.48 218.77,-34.76"/>
<polygon fill="#63b8ff" stroke="#63b8ff" points="219.65,-38.17 227.86,-31.46 217.26,-31.59 219.65,-38.17"/>
</a>
</g>
</g>
<!-- Node5 -->
<g id="Node000005" class="node">
<title>Node5</title>
<g id="a_Node000005"><a xlink:href="../../d4/d55/classml_1_1maths_1_1common_1_1_c_basic_statistics.html#a9a136b1823e9938247cd29bb0ffea440" target="_top" xlink:title="Compute the mean of a pair.">
<polygon fill="white" stroke="#666666" points="531,-133.5 411.5,-133.5 411.5,-103 531,-103 531,-133.5"/>
<text text-anchor="start" x="419.5" y="-120" font-family="Helvetica,sans-Serif" font-size="10.00">ml::maths::common::</text>
<text text-anchor="middle" x="471.25" y="-108.75" font-family="Helvetica,sans-Serif" font-size="10.00">CBasicStatistics::mean</text>
</a>
</g>
</g>
<!-- Node4&#45;&gt;Node5 -->
<g id="edge4_Node000004_Node000005" class="edge">
<title>Node4&#45;&gt;Node5</title>
<g id="a_edge4_Node000004_Node000005"><a xlink:title=" ">
<path fill="none" stroke="#63b8ff" d="M369.45,-118.25C379.52,-118.25 389.79,-118.25 399.73,-118.25"/>
<polygon fill="#63b8ff" stroke="#63b8ff" points="399.7,-121.75 409.7,-118.25 399.7,-114.75 399.7,-121.75"/>
</a>
</g>
</g>
</g>
</svg>

<g id="navigator" transform="translate(0 0)" fill="#404254">
  <rect fill="#f2f5e9" fill-opacity="0.5" stroke="#606060" stroke-width=".5" x="0" y="0" width="60" height="60"/>
  <use id="zoomplus" xlink:href="#zoomPlus" x="17" y="9" onmousedown="handleZoom(evt,'in')"/>
  <use id="zoomminus" xlink:href="#zoomMin" x="42" y="9" onmousedown="handleZoom(evt,'out')"/>
  <use id="reset" xlink:href="#resetDef" x="30" y="36" onmousedown="handleReset()"/>
   <use id="arrowup" xlink:href="#arrowUp" x="0" y="0" onmousedown="handlePan(0,-1)"/>
  <use id="arrowright" xlink:href="#arrowRight" x="0" y="0" onmousedown="handlePan(1,0)"/>
  <use id="arrowdown" xlink:href="#arrowDown" x="0" y="0" onmousedown="handlePan(0,1)"/>
  <use id="arrowleft" xlink:href="#arrowLeft" x="0" y="0" onmousedown="handlePan(-1,0)"/>
</g>
<svg viewBox="0 0 15 15" width="100%" height="30px" preserveAspectRatio="xMaxYMin meet">
 <g id="arrow_out" transform="scale(0.3 0.3)">
  <a xlink:href="classml_1_1maths_1_1common_1_1_c_k_most_correlated_a9d07d9f6d5419a1ff63138653a9da89d_cgraph_org.svg" target="_base">
   <rect id="button" ry="5" rx="5" y="6" x="6" height="38" width="38"
        fill="#f2f5e9" fill-opacity="0.5" stroke="#606060" stroke-width="1.0"/>
   <path id="arrow"
     d="M 11.500037,31.436501 C 11.940474,20.09759 22.043105,11.32322 32.158766,21.979434 L 37.068811,17.246167 C 37.068811,17.246167 37.088388,32 37.088388,32 L 22.160133,31.978069 C 22.160133,31.978069 26.997745,27.140456 26.997745,27.140456 C 18.528582,18.264221 13.291696,25.230495 11.500037,31.436501 z"
     style="fill:#404040;"/>
  </a>
 </g>
</svg>

<style type='text/css'>
<![CDATA[
[data-mouse-over-selected='false'] { opacity: 0.7; }
[data-mouse-over-selected='true']  { opacity: 1.0; }
]]>
</style>
<script type="application/ecmascript"><![CDATA[
document.addEventListener('DOMContentLoaded', (event) => {
  highlightEdges();
  highlightAdjacentNodes();
});
]]></script>
</svg>
