<?xml version="1.0" encoding="UTF-8" standalone="no"?>
<!DOCTYPE svg PUBLIC "-//W3C//DTD SVG 1.1//EN"
 "http://www.w3.org/Graphics/SVG/1.1/DTD/svg11.dtd">
<!-- Generated by graphviz version 10.0.1 (20240210.2158)
 -->
<!-- Title: include/api/CNdJsonInputParser.h Pages: 1 -->
<svg width="998pt" height="105pt"
 viewBox="0.00 0.00 997.50 105.00" xmlns="http://www.w3.org/2000/svg" xmlns:xlink="http://www.w3.org/1999/xlink">
<g id="graph0" class="graph" transform="scale(1 1) rotate(0) translate(4 101)">
<title>include/api/CNdJsonInputParser.h</title>
<!-- Node1 -->
<g id="Node000001" class="node">
<title>Node1</title>
<g id="a_Node000001"><a xlink:title=" ">
<polygon fill="#999999" stroke="#666666" points="550.62,-97 422.12,-97 422.12,-66.5 550.62,-66.5 550.62,-97"/>
<text text-anchor="start" x="430.12" y="-83.5" font-family="Helvetica,sans-Serif" font-size="10.00">include/api/CNdJsonInput</text>
<text text-anchor="middle" x="486.38" y="-72.25" font-family="Helvetica,sans-Serif" font-size="10.00">Parser.h</text>
</a>
</g>
</g>
<!-- Node2 -->
<g id="Node000002" class="node">
<title>Node2</title>
<g id="a_Node000002"><a xlink:href="../../d4/d06/_c_nd_json_input_parser_8cc.html" target="_top" xlink:title=" ">
<polygon fill="white" stroke="#666666" points="148.75,-24.88 0,-24.88 0,-5.63 148.75,-5.63 148.75,-24.88"/>
<text text-anchor="middle" x="74.38" y="-11.38" font-family="Helvetica,sans-Serif" font-size="10.00">lib/api/CNdJsonInputParser.cc</text>
</a>
</g>
</g>
<!-- Node1&#45;&gt;Node2 -->
<g id="edge1_Node000001_Node000002" class="edge">
<title>Node1&#45;&gt;Node2</title>
<g id="a_edge1_Node000001_Node000002"><a xlink:title=" ">
<path fill="none" stroke="#63b8ff" d="M410.47,-69.56C343.74,-59.63 244.04,-44.56 157.38,-30.5 147.42,-28.88 136.8,-27.11 126.6,-25.37"/>
<polygon fill="#63b8ff" stroke="#63b8ff" points="409.8,-73 420.21,-71.01 410.83,-66.08 409.8,-73"/>
</a>
</g>
</g>
<!-- Node3 -->
<g id="Node000003" class="node">
<title>Node3</title>
<g id="a_Node000003"><a xlink:href="../../d5/d82/lib_2api_2dump__state_2_main_8cc.html" target="_top" xlink:title=" ">
<polygon fill="white" stroke="#666666" points="262.12,-30.5 166.62,-30.5 166.62,0 262.12,0 262.12,-30.5"/>
<text text-anchor="start" x="174.62" y="-17" font-family="Helvetica,sans-Serif" font-size="10.00">lib/api/dump_state</text>
<text text-anchor="middle" x="214.38" y="-5.75" font-family="Helvetica,sans-Serif" font-size="10.00">/Main.cc</text>
</a>
</g>
</g>
<!-- Node1&#45;&gt;Node3 -->
<g id="edge2_Node000001_Node000003" class="edge">
<title>Node1&#45;&gt;Node3</title>
<g id="a_edge2_Node000001_Node000003"><a xlink:title=" ">
<path fill="none" stroke="#63b8ff" d="M411.26,-63.49C369.95,-53.93 317.79,-41.73 271.38,-30.5 268.5,-29.8 265.54,-29.08 262.56,-28.35"/>
<polygon fill="#63b8ff" stroke="#63b8ff" points="410.34,-66.87 420.87,-65.71 411.91,-60.05 410.34,-66.87"/>
</a>
</g>
</g>
<!-- Node4 -->
<g id="Node000004" class="node">
<title>Node4</title>
<g id="a_Node000004"><a xlink:href="../../d4/d7c/_c_anomaly_job_test_8cc.html" target="_top" xlink:title=" ">
<polygon fill="white" stroke="#666666" points="406.12,-30.5 280.62,-30.5 280.62,0 406.12,0 406.12,-30.5"/>
<text text-anchor="start" x="288.62" y="-17" font-family="Helvetica,sans-Serif" font-size="10.00">lib/api/unittest/CAnomaly</text>
<text text-anchor="middle" x="343.38" y="-5.75" font-family="Helvetica,sans-Serif" font-size="10.00">JobTest.cc</text>
</a>
</g>
</g>
<!-- Node1&#45;&gt;Node4 -->
<g id="edge3_Node000001_Node000004" class="edge">
<title>Node1&#45;&gt;Node4</title>
<g id="a_edge3_Node000001_Node000004"><a xlink:title=" ">
<path fill="none" stroke="#63b8ff" d="M443.62,-61.47C421.84,-51.64 395.78,-39.89 375.7,-30.83"/>
<polygon fill="#63b8ff" stroke="#63b8ff" points="441.99,-64.57 452.55,-65.49 444.87,-58.19 441.99,-64.57"/>
</a>
</g>
</g>
<!-- Node5 -->
<g id="Node000005" class="node">
<title>Node5</title>
<g id="a_Node000005"><a xlink:href="../../d0/da1/_c_multi_file_data_adder_test_8cc.html" target="_top" xlink:title=" ">
<polygon fill="white" stroke="#666666" points="548.38,-30.5 424.38,-30.5 424.38,0 548.38,0 548.38,-30.5"/>
<text text-anchor="start" x="432.38" y="-17" font-family="Helvetica,sans-Serif" font-size="10.00">lib/api/unittest/CMultiFile</text>
<text text-anchor="middle" x="486.38" y="-5.75" font-family="Helvetica,sans-Serif" font-size="10.00">DataAdderTest.cc</text>
</a>
</g>
</g>
<!-- Node1&#45;&gt;Node5 -->
<g id="edge4_Node000001_Node000005" class="edge">
<title>Node1&#45;&gt;Node5</title>
<g id="a_edge4_Node000001_Node000005"><a xlink:title=" ">
<path fill="none" stroke="#63b8ff" d="M486.38,-54.81C486.38,-46.64 486.38,-37.91 486.38,-30.83"/>
<polygon fill="#63b8ff" stroke="#63b8ff" points="482.88,-54.6 486.38,-64.6 489.88,-54.6 482.88,-54.6"/>
</a>
</g>
</g>
<!-- Node6 -->
<g id="Node000006" class="node">
<title>Node6</title>
<g id="a_Node000006"><a xlink:href="../../d5/d98/_c_nd_json_input_parser_test_8cc.html" target="_top" xlink:title=" ">
<polygon fill="white" stroke="#666666" points="687.88,-30.5 566.88,-30.5 566.88,0 687.88,0 687.88,-30.5"/>
<text text-anchor="start" x="574.88" y="-17" font-family="Helvetica,sans-Serif" font-size="10.00">lib/api/unittest/CNdJson</text>
<text text-anchor="middle" x="627.38" y="-5.75" font-family="Helvetica,sans-Serif" font-size="10.00">InputParserTest.cc</text>
</a>
</g>
</g>
<!-- Node1&#45;&gt;Node6 -->
<g id="edge5_Node000001_Node000006" class="edge">
<title>Node1&#45;&gt;Node6</title>
<g id="a_edge5_Node000001_Node000006"><a xlink:title=" ">
<path fill="none" stroke="#63b8ff" d="M528.82,-61.33C550.24,-51.53 575.79,-39.85 595.51,-30.83"/>
<polygon fill="#63b8ff" stroke="#63b8ff" points="527.38,-58.14 519.75,-65.48 530.3,-64.51 527.38,-58.14"/>
</a>
</g>
</g>
<!-- Node7 -->
<g id="Node000007" class="node">
<title>Node7</title>
<g id="a_Node000007"><a xlink:href="../../df/df3/_c_persistence_manager_test_8cc.html" target="_top" xlink:title=" ">
<polygon fill="white" stroke="#666666" points="844.88,-30.5 705.88,-30.5 705.88,0 844.88,0 844.88,-30.5"/>
<text text-anchor="start" x="713.88" y="-17" font-family="Helvetica,sans-Serif" font-size="10.00">lib/api/unittest/CPersistence</text>
<text text-anchor="middle" x="775.38" y="-5.75" font-family="Helvetica,sans-Serif" font-size="10.00">ManagerTest.cc</text>
</a>
</g>
</g>
<!-- Node1&#45;&gt;Node7 -->
<g id="edge6_Node000001_Node000007" class="edge">
<title>Node1&#45;&gt;Node7</title>
<g id="a_edge6_Node000001_Node000007"><a xlink:title=" ">
<path fill="none" stroke="#63b8ff" d="M561.92,-63.89C607.65,-53.68 665.42,-40.79 709.32,-30.99"/>
<polygon fill="#63b8ff" stroke="#63b8ff" points="561.35,-60.43 552.35,-66.03 562.87,-67.26 561.35,-60.43"/>
</a>
</g>
</g>
<!-- Node8 -->
<g id="Node000008" class="node">
<title>Node8</title>
<g id="a_Node000008"><a xlink:href="../../d4/de2/_c_single_stream_data_adder_test_8cc.html" target="_top" xlink:title=" ">
<polygon fill="white" stroke="#666666" points="989.5,-30.5 863.25,-30.5 863.25,0 989.5,0 989.5,-30.5"/>
<text text-anchor="start" x="871.25" y="-17" font-family="Helvetica,sans-Serif" font-size="10.00">lib/api/unittest/CSingle</text>
<text text-anchor="middle" x="926.38" y="-5.75" font-family="Helvetica,sans-Serif" font-size="10.00">StreamDataAdderTest.cc</text>
</a>
</g>
</g>
<!-- Node1&#45;&gt;Node8 -->
<g id="edge7_Node000001_Node000008" class="edge">
<title>Node1&#45;&gt;Node8</title>
<g id="a_edge7_Node000001_Node000008"><a xlink:title=" ">
<path fill="none" stroke="#63b8ff" d="M562.17,-71.74C636.71,-62.57 753.65,-47.33 854.38,-30.5 857.14,-30.04 859.96,-29.55 862.81,-29.04"/>
<polygon fill="#63b8ff" stroke="#63b8ff" points="562.04,-68.23 552.54,-72.92 562.89,-75.18 562.04,-68.23"/>
</a>
</g>
</g>
</g>
</svg>
