<?xml version="1.0" encoding="UTF-8" standalone="no"?>
<!DOCTYPE svg PUBLIC "-//W3C//DTD SVG 1.1//EN"
 "http://www.w3.org/Graphics/SVG/1.1/DTD/svg11.dtd">
<!-- Generated by graphviz version 10.0.1 (20240210.2158)
 -->
<!-- Title: include/maths/common/CPoissonMeanConjugate.h Pages: 1 -->
<svg width="1154pt" height="105pt"
 viewBox="0.00 0.00 1153.88 105.00" xmlns="http://www.w3.org/2000/svg" xmlns:xlink="http://www.w3.org/1999/xlink">
<g id="graph0" class="graph" transform="scale(1 1) rotate(0) translate(4 101)">
<title>include/maths/common/CPoissonMeanConjugate.h</title>
<!-- Node1 -->
<g id="Node000001" class="node">
<title>Node1</title>
<g id="a_Node000001"><a xlink:title=" ">
<polygon fill="#999999" stroke="#666666" points="628.12,-97 489.88,-97 489.88,-66.5 628.12,-66.5 628.12,-97"/>
<text text-anchor="start" x="497.88" y="-83.5" font-family="Helvetica,sans-Serif" font-size="10.00">include/maths/common</text>
<text text-anchor="middle" x="559" y="-72.25" font-family="Helvetica,sans-Serif" font-size="10.00">/CPoissonMeanConjugate.h</text>
</a>
</g>
</g>
<!-- Node2 -->
<g id="Node000002" class="node">
<title>Node2</title>
<g id="a_Node000002"><a xlink:href="../../d9/d74/_c_poisson_mean_conjugate_8cc.html" target="_top" xlink:title=" ">
<polygon fill="white" stroke="#666666" points="142,-30.5 0,-30.5 0,0 142,0 142,-30.5"/>
<text text-anchor="start" x="8" y="-17" font-family="Helvetica,sans-Serif" font-size="10.00">lib/maths/common/CPoisson</text>
<text text-anchor="middle" x="71" y="-5.75" font-family="Helvetica,sans-Serif" font-size="10.00">MeanConjugate.cc</text>
</a>
</g>
</g>
<!-- Node1&#45;&gt;Node2 -->
<g id="edge1_Node000001_Node000002" class="edge">
<title>Node1&#45;&gt;Node2</title>
<g id="a_edge1_Node000001_Node000002"><a xlink:title=" ">
<path fill="none" stroke="#63b8ff" d="M478.24,-72.1C395.81,-62.96 264.24,-47.55 151,-30.5 148.21,-30.08 145.37,-29.64 142.5,-29.18"/>
<polygon fill="#63b8ff" stroke="#63b8ff" points="477.71,-75.56 488.04,-73.18 478.48,-68.6 477.71,-75.56"/>
</a>
</g>
</g>
<!-- Node3 -->
<g id="Node000003" class="node">
<title>Node3</title>
<g id="a_Node000003"><a xlink:href="../../da/dbe/_c_prior_state_serialiser_8cc.html" target="_top" xlink:title=" ">
<polygon fill="white" stroke="#666666" points="310.12,-30.5 159.88,-30.5 159.88,0 310.12,0 310.12,-30.5"/>
<text text-anchor="start" x="167.88" y="-17" font-family="Helvetica,sans-Serif" font-size="10.00">lib/maths/common/CPriorState</text>
<text text-anchor="middle" x="235" y="-5.75" font-family="Helvetica,sans-Serif" font-size="10.00">Serialiser.cc</text>
</a>
</g>
</g>
<!-- Node1&#45;&gt;Node3 -->
<g id="edge2_Node000001_Node000003" class="edge">
<title>Node1&#45;&gt;Node3</title>
<g id="a_edge2_Node000001_Node000003"><a xlink:title=" ">
<path fill="none" stroke="#63b8ff" d="M478.32,-64.69C426.4,-54.35 359.43,-41.02 308.9,-30.96"/>
<polygon fill="#63b8ff" stroke="#63b8ff" points="477.52,-68.1 488.01,-66.62 478.89,-61.23 477.52,-68.1"/>
</a>
</g>
</g>
<!-- Node4 -->
<g id="Node000004" class="node">
<title>Node4</title>
<g id="a_Node000004"><a xlink:href="../../d7/d56/_c_one_of_n_prior_test_8cc.html" target="_top" xlink:title=" ">
<polygon fill="white" stroke="#666666" points="459.75,-30.5 328.25,-30.5 328.25,0 459.75,0 459.75,-30.5"/>
<text text-anchor="start" x="336.25" y="-17" font-family="Helvetica,sans-Serif" font-size="10.00">lib/maths/common/unittest</text>
<text text-anchor="middle" x="394" y="-5.75" font-family="Helvetica,sans-Serif" font-size="10.00">/COneOfNPriorTest.cc</text>
</a>
</g>
</g>
<!-- Node1&#45;&gt;Node4 -->
<g id="edge3_Node000001_Node000004" class="edge">
<title>Node1&#45;&gt;Node4</title>
<g id="a_edge3_Node000001_Node000004"><a xlink:title=" ">
<path fill="none" stroke="#63b8ff" d="M511.07,-62.01C485.76,-52.12 455.15,-40.15 431.58,-30.94"/>
<polygon fill="#63b8ff" stroke="#63b8ff" points="509.56,-65.18 520.15,-65.56 512.11,-58.66 509.56,-65.18"/>
</a>
</g>
</g>
<!-- Node5 -->
<g id="Node000005" class="node">
<title>Node5</title>
<g id="a_Node000005"><a xlink:href="../../d2/d79/_c_poisson_mean_conjugate_test_8cc.html" target="_top" xlink:title=" ">
<polygon fill="white" stroke="#666666" points="640.12,-30.5 477.88,-30.5 477.88,0 640.12,0 640.12,-30.5"/>
<text text-anchor="start" x="485.88" y="-17" font-family="Helvetica,sans-Serif" font-size="10.00">lib/maths/common/unittest</text>
<text text-anchor="middle" x="559" y="-5.75" font-family="Helvetica,sans-Serif" font-size="10.00">/CPoissonMeanConjugateTest.cc</text>
</a>
</g>
</g>
<!-- Node1&#45;&gt;Node5 -->
<g id="edge4_Node000001_Node000005" class="edge">
<title>Node1&#45;&gt;Node5</title>
<g id="a_edge4_Node000001_Node000005"><a xlink:title=" ">
<path fill="none" stroke="#63b8ff" d="M559,-54.81C559,-46.64 559,-37.91 559,-30.83"/>
<polygon fill="#63b8ff" stroke="#63b8ff" points="555.5,-54.6 559,-64.6 562.5,-54.6 555.5,-54.6"/>
</a>
</g>
</g>
<!-- Node6 -->
<g id="Node000006" class="node">
<title>Node6</title>
<g id="a_Node000006"><a xlink:href="../../dd/d6c/_c_maths_memory_test_8cc.html" target="_top" xlink:title=" ">
<polygon fill="white" stroke="#666666" points="814.12,-30.5 657.88,-30.5 657.88,0 814.12,0 814.12,-30.5"/>
<text text-anchor="start" x="665.88" y="-17" font-family="Helvetica,sans-Serif" font-size="10.00">lib/maths/time_series</text>
<text text-anchor="middle" x="736" y="-5.75" font-family="Helvetica,sans-Serif" font-size="10.00">/unittest/CMathsMemoryTest.cc</text>
</a>
</g>
</g>
<!-- Node1&#45;&gt;Node6 -->
<g id="edge5_Node000001_Node000006" class="edge">
<title>Node1&#45;&gt;Node6</title>
<g id="a_edge5_Node000001_Node000006"><a xlink:title=" ">
<path fill="none" stroke="#63b8ff" d="M609.69,-62.28C636.98,-52.33 670.18,-40.24 695.69,-30.94"/>
<polygon fill="#63b8ff" stroke="#63b8ff" points="608.78,-58.88 600.59,-65.6 611.18,-65.46 608.78,-58.88"/>
</a>
</g>
</g>
<!-- Node7 -->
<g id="Node000007" class="node">
<title>Node7</title>
<g id="a_Node000007"><a xlink:href="../../dd/d32/_c_event_rate_model_factory_8cc.html" target="_top" xlink:title=" ">
<polygon fill="white" stroke="#666666" points="970.12,-30.5 831.88,-30.5 831.88,0 970.12,0 970.12,-30.5"/>
<text text-anchor="start" x="839.88" y="-17" font-family="Helvetica,sans-Serif" font-size="10.00">lib/model/CEventRateModel</text>
<text text-anchor="middle" x="901" y="-5.75" font-family="Helvetica,sans-Serif" font-size="10.00">Factory.cc</text>
</a>
</g>
</g>
<!-- Node1&#45;&gt;Node7 -->
<g id="edge6_Node000001_Node000007" class="edge">
<title>Node1&#45;&gt;Node7</title>
<g id="a_edge6_Node000001_Node000007"><a xlink:title=" ">
<path fill="none" stroke="#63b8ff" d="M639.64,-65.54C697.94,-54.55 775.91,-39.84 831.48,-29.36"/>
<polygon fill="#63b8ff" stroke="#63b8ff" points="639.29,-62.05 630.11,-67.34 640.58,-68.93 639.29,-62.05"/>
</a>
</g>
</g>
<!-- Node8 -->
<g id="Node000008" class="node">
<title>Node8</title>
<g id="a_Node000008"><a xlink:href="../../de/dd1/_c_event_rate_population_model_factory_8cc.html" target="_top" xlink:title=" ">
<polygon fill="white" stroke="#666666" points="1145.88,-30.5 988.12,-30.5 988.12,0 1145.88,0 1145.88,-30.5"/>
<text text-anchor="start" x="996.12" y="-17" font-family="Helvetica,sans-Serif" font-size="10.00">lib/model/CEventRatePopulation</text>
<text text-anchor="middle" x="1067" y="-5.75" font-family="Helvetica,sans-Serif" font-size="10.00">ModelFactory.cc</text>
</a>
</g>
</g>
<!-- Node1&#45;&gt;Node8 -->
<g id="edge7_Node000001_Node000008" class="edge">
<title>Node1&#45;&gt;Node8</title>
<g id="a_edge7_Node000001_Node000008"><a xlink:title=" ">
<path fill="none" stroke="#63b8ff" d="M639.94,-72.07C724.61,-62.76 861.33,-47.06 979,-30.5 981.91,-30.09 984.88,-29.66 987.87,-29.22"/>
<polygon fill="#63b8ff" stroke="#63b8ff" points="639.66,-68.58 630.11,-73.15 640.43,-75.54 639.66,-68.58"/>
</a>
</g>
</g>
</g>
</svg>
