<?xml version="1.0" encoding="UTF-8" standalone="no"?>
<!DOCTYPE svg PUBLIC "-//W3C//DTD SVG 1.1//EN"
 "http://www.w3.org/Graphics/SVG/1.1/DTD/svg11.dtd">
<!-- Generated by graphviz version 10.0.1 (20240210.2158)
 -->
<!-- Title: ml::maths::common::CMemoryMappedDenseMatrix::reseat Pages: 1 -->
<svg width="348pt" height="230pt"
 viewBox="0.00 0.00 347.50 229.75" xmlns="http://www.w3.org/2000/svg" xmlns:xlink="http://www.w3.org/1999/xlink">
<g id="graph0" class="graph" transform="scale(1 1) rotate(0) translate(4 225.75)">
<title>ml::maths::common::CMemoryMappedDenseMatrix::reseat</title>
<!-- Node1 -->
<g id="Node000001" class="node">
<title>Node1</title>
<g id="a_Node000001"><a xlink:title=" ">
<polygon fill="#999999" stroke="#666666" points="339.5,-131.75 190.75,-131.75 190.75,-90 339.5,-90 339.5,-131.75"/>
<text text-anchor="start" x="198.75" y="-118.25" font-family="Helvetica,sans-Serif" font-size="10.00">ml::maths::common::</text>
<text text-anchor="start" x="198.75" y="-107" font-family="Helvetica,sans-Serif" font-size="10.00">CMemoryMappedDenseMatrix</text>
<text text-anchor="middle" x="265.12" y="-95.75" font-family="Helvetica,sans-Serif" font-size="10.00">::reseat</text>
</a>
</g>
</g>
<!-- Node2 -->
<g id="Node000002" class="node">
<title>Node2</title>
<g id="a_Node000002"><a xlink:href="../../db/d0a/classml_1_1maths_1_1common_1_1_c_memory_mapped_dense_matrix.html#ab99883b900e845b502279d313964e7cd" target="_top" xlink:title=" ">
<polygon fill="white" stroke="#666666" points="154.75,-221.75 0,-221.75 0,-180 154.75,-180 154.75,-221.75"/>
<text text-anchor="start" x="8" y="-208.25" font-family="Helvetica,sans-Serif" font-size="10.00">ml::maths::common::</text>
<text text-anchor="start" x="8" y="-197" font-family="Helvetica,sans-Serif" font-size="10.00">CMemoryMappedDenseMatrix</text>
<text text-anchor="middle" x="77.38" y="-185.75" font-family="Helvetica,sans-Serif" font-size="10.00">::CMemoryMappedDenseMatrix</text>
</a>
</g>
</g>
<!-- Node1&#45;&gt;Node2 -->
<g id="edge1_Node000001_Node000002" class="edge">
<title>Node1&#45;&gt;Node2</title>
<g id="a_edge1_Node000001_Node000002"><a xlink:title=" ">
<path fill="none" stroke="#63b8ff" d="M218.5,-137.6C199.13,-148.5 176.13,-160.86 154.75,-170.88 148.43,-173.84 141.73,-176.76 135.03,-179.56"/>
<polygon fill="#63b8ff" stroke="#63b8ff" points="219.98,-140.78 226.95,-132.8 216.53,-134.7 219.98,-140.78"/>
</a>
</g>
</g>
<!-- Node3 -->
<g id="Node000003" class="node">
<title>Node3</title>
<g id="a_Node000003"><a xlink:href="../../db/d0a/classml_1_1maths_1_1common_1_1_c_memory_mapped_dense_matrix.html#ae422c21ffb25277566cbe77f8519811c" target="_top" xlink:title=" ">
<polygon fill="white" stroke="#666666" points="154.75,-161.75 0,-161.75 0,-120 154.75,-120 154.75,-161.75"/>
<text text-anchor="start" x="8" y="-148.25" font-family="Helvetica,sans-Serif" font-size="10.00">ml::maths::common::</text>
<text text-anchor="start" x="8" y="-137" font-family="Helvetica,sans-Serif" font-size="10.00">CMemoryMappedDenseMatrix</text>
<text text-anchor="middle" x="77.38" y="-125.75" font-family="Helvetica,sans-Serif" font-size="10.00">::CMemoryMappedDenseMatrix</text>
</a>
</g>
</g>
<!-- Node1&#45;&gt;Node3 -->
<g id="edge2_Node000001_Node000003" class="edge">
<title>Node1&#45;&gt;Node3</title>
<g id="a_edge2_Node000001_Node000003"><a xlink:title=" ">
<path fill="none" stroke="#63b8ff" d="M179.15,-124.6C171.1,-125.9 162.97,-127.21 155.01,-128.5"/>
<polygon fill="#63b8ff" stroke="#63b8ff" points="179.64,-128.07 188.95,-123.02 178.52,-121.16 179.64,-128.07"/>
</a>
</g>
</g>
<!-- Node4 -->
<g id="Node000004" class="node">
<title>Node4</title>
<g id="a_Node000004"><a xlink:href="../../db/d0a/classml_1_1maths_1_1common_1_1_c_memory_mapped_dense_matrix.html#a4d189133b8c84acd0820ba715b3cd441" target="_top" xlink:title=" ">
<polygon fill="white" stroke="#666666" points="151.75,-101.75 3,-101.75 3,-60 151.75,-60 151.75,-101.75"/>
<text text-anchor="start" x="11" y="-88.25" font-family="Helvetica,sans-Serif" font-size="10.00">ml::maths::common::</text>
<text text-anchor="start" x="11" y="-77" font-family="Helvetica,sans-Serif" font-size="10.00">CMemoryMappedDenseMatrix</text>
<text text-anchor="middle" x="77.38" y="-65.75" font-family="Helvetica,sans-Serif" font-size="10.00">::operator=</text>
</a>
</g>
</g>
<!-- Node1&#45;&gt;Node4 -->
<g id="edge3_Node000001_Node000004" class="edge">
<title>Node1&#45;&gt;Node4</title>
<g id="a_edge3_Node000001_Node000004"><a xlink:title=" ">
<path fill="none" stroke="#63b8ff" d="M179.36,-97.19C170.22,-95.71 160.97,-94.21 151.97,-92.76"/>
<polygon fill="#63b8ff" stroke="#63b8ff" points="178.52,-100.59 188.95,-98.73 179.64,-93.68 178.52,-100.59"/>
</a>
</g>
</g>
<!-- Node5 -->
<g id="Node000005" class="node">
<title>Node5</title>
<g id="a_Node000005"><a xlink:href="../../db/d0a/classml_1_1maths_1_1common_1_1_c_memory_mapped_dense_matrix.html#a79c4f3184af84cd7b87bd19183ab6b69" target="_top" xlink:title=" ">
<polygon fill="white" stroke="#666666" points="151.75,-41.75 3,-41.75 3,0 151.75,0 151.75,-41.75"/>
<text text-anchor="start" x="11" y="-28.25" font-family="Helvetica,sans-Serif" font-size="10.00">ml::maths::common::</text>
<text text-anchor="start" x="11" y="-17" font-family="Helvetica,sans-Serif" font-size="10.00">CMemoryMappedDenseMatrix</text>
<text text-anchor="middle" x="77.38" y="-5.75" font-family="Helvetica,sans-Serif" font-size="10.00">::operator=</text>
</a>
</g>
</g>
<!-- Node1&#45;&gt;Node5 -->
<g id="edge4_Node000001_Node000005" class="edge">
<title>Node1&#45;&gt;Node5</title>
<g id="a_edge4_Node000001_Node000005"><a xlink:title=" ">
<path fill="none" stroke="#63b8ff" d="M218.5,-84.15C199.13,-73.25 176.13,-60.89 154.75,-50.88 148.43,-47.91 141.73,-44.99 135.03,-42.19"/>
<polygon fill="#63b8ff" stroke="#63b8ff" points="216.53,-87.05 226.95,-88.95 219.98,-80.97 216.53,-87.05"/>
</a>
</g>
</g>
</g>
</svg>
