<?xml version="1.0" encoding="UTF-8" standalone="no"?>
<!DOCTYPE svg PUBLIC "-//W3C//DTD SVG 1.1//EN"
 "http://www.w3.org/Graphics/SVG/1.1/DTD/svg11.dtd">
<!-- Generated by graphviz version 10.0.1 (20240210.2158)
 -->
<!-- Title: ml::maths::time_series::CTimeSeriesDecompositionDetail::CComponents::meanVarianceScale Pages: 1 -->
<svg width="565pt" height="185pt"
 viewBox="0.00 0.00 564.50 184.50" xmlns="http://www.w3.org/2000/svg" xmlns:xlink="http://www.w3.org/1999/xlink">
<g id="graph0" class="graph" transform="scale(1 1) rotate(0) translate(4 180.5)">
<title>ml::maths::time_series::CTimeSeriesDecompositionDetail::CComponents::meanVarianceScale</title>
<!-- Node1 -->
<g id="Node000001" class="node">
<title>Node1</title>
<g id="a_Node000001"><a xlink:title="Get the mean error variance scale for the components.">
<polygon fill="#999999" stroke="#666666" points="556.5,-71.75 379.25,-71.75 379.25,-30 556.5,-30 556.5,-71.75"/>
<text text-anchor="start" x="387.25" y="-58.25" font-family="Helvetica,sans-Serif" font-size="10.00">ml::maths::time_series</text>
<text text-anchor="start" x="387.25" y="-47" font-family="Helvetica,sans-Serif" font-size="10.00">::CTimeSeriesDecompositionDetail</text>
<text text-anchor="middle" x="467.88" y="-35.75" font-family="Helvetica,sans-Serif" font-size="10.00">::CComponents::meanVarianceScale</text>
</a>
</g>
</g>
<!-- Node2 -->
<g id="Node000002" class="node">
<title>Node2</title>
<g id="a_Node000002"><a xlink:href="../../de/dbe/classml_1_1maths_1_1time__series_1_1_c_time_series_decomposition.html#ab562a4ffc88bfe6bda6bfb98c9ceb486" target="_top" xlink:title="Get the mean variance of the baseline.">
<polygon fill="white" stroke="#666666" points="343.25,-101.75 199,-101.75 199,-60 343.25,-60 343.25,-101.75"/>
<text text-anchor="start" x="207" y="-88.25" font-family="Helvetica,sans-Serif" font-size="10.00">ml::maths::time_series</text>
<text text-anchor="start" x="207" y="-77" font-family="Helvetica,sans-Serif" font-size="10.00">::CTimeSeriesDecomposition</text>
<text text-anchor="middle" x="271.12" y="-65.75" font-family="Helvetica,sans-Serif" font-size="10.00">::meanVariance</text>
</a>
</g>
</g>
<!-- Node1&#45;&gt;Node2 -->
<g id="edge1_Node000001_Node000002" class="edge">
<title>Node1&#45;&gt;Node2</title>
<g id="a_edge1_Node000001_Node000002"><a xlink:title=" ">
<path fill="none" stroke="#63b8ff" d="M367.53,-66.18C359.49,-67.42 351.46,-68.65 343.66,-69.85"/>
<polygon fill="#63b8ff" stroke="#63b8ff" points="368.05,-69.64 377.41,-64.66 366.99,-62.72 368.05,-69.64"/>
</a>
</g>
</g>
<!-- Node6 -->
<g id="Node000006" class="node">
<title>Node6</title>
<g id="a_Node000006"><a xlink:href="../../de/dbe/classml_1_1maths_1_1time__series_1_1_c_time_series_decomposition.html#a9a96365f38ebfb0d8156486139573cff" target="_top" xlink:title="Compute the variance scale weight to apply at time.">
<polygon fill="white" stroke="#666666" points="153.62,-41.75 9.38,-41.75 9.38,0 153.62,0 153.62,-41.75"/>
<text text-anchor="start" x="17.38" y="-28.25" font-family="Helvetica,sans-Serif" font-size="10.00">ml::maths::time_series</text>
<text text-anchor="start" x="17.38" y="-17" font-family="Helvetica,sans-Serif" font-size="10.00">::CTimeSeriesDecomposition</text>
<text text-anchor="middle" x="81.5" y="-5.75" font-family="Helvetica,sans-Serif" font-size="10.00">::varianceScaleWeight</text>
</a>
</g>
</g>
<!-- Node1&#45;&gt;Node6 -->
<g id="edge6_Node000001_Node000006" class="edge">
<title>Node1&#45;&gt;Node6</title>
<g id="a_edge6_Node000001_Node000006"><a xlink:title=" ">
<path fill="none" stroke="#63b8ff" d="M367.78,-43.14C300.92,-37.92 214.25,-31.16 154.07,-26.46"/>
<polygon fill="#63b8ff" stroke="#63b8ff" points="367.42,-46.62 377.66,-43.91 367.97,-39.64 367.42,-46.62"/>
</a>
</g>
</g>
<!-- Node3 -->
<g id="Node000003" class="node">
<title>Node3</title>
<g id="a_Node000003"><a xlink:href="../../d0/da9/_c_time_series_decomposition_test_8cc.html#a5cd5006a4b218f7446eb333f91a0942c" target="_top" xlink:title=" ">
<polygon fill="white" stroke="#666666" points="163,-176.5 0,-176.5 0,-157.25 163,-157.25 163,-176.5"/>
<text text-anchor="middle" x="81.5" y="-163" font-family="Helvetica,sans-Serif" font-size="10.00">BOOST_FIXTURE_TEST_CASE</text>
</a>
</g>
</g>
<!-- Node2&#45;&gt;Node3 -->
<g id="edge2_Node000002_Node000003" class="edge">
<title>Node2&#45;&gt;Node3</title>
<g id="a_edge2_Node000002_Node000003"><a xlink:title=" ">
<path fill="none" stroke="#63b8ff" d="M233.22,-108.8C213.33,-122.65 187.83,-138.59 163,-148.88 155.46,-152 147.28,-154.62 139.13,-156.82"/>
<polygon fill="#63b8ff" stroke="#63b8ff" points="235.15,-111.72 241.27,-103.07 231.1,-106.02 235.15,-111.72"/>
</a>
</g>
</g>
<!-- Node4 -->
<g id="Node000004" class="node">
<title>Node4</title>
<g id="a_Node000004"><a xlink:href="../../d0/da9/_c_time_series_decomposition_test_8cc.html#a82430f863f5febc6eb3c86e6a4311050" target="_top" xlink:title=" ">
<polygon fill="white" stroke="#666666" points="163,-139.5 0,-139.5 0,-120.25 163,-120.25 163,-139.5"/>
<text text-anchor="middle" x="81.5" y="-126" font-family="Helvetica,sans-Serif" font-size="10.00">BOOST_FIXTURE_TEST_CASE</text>
</a>
</g>
</g>
<!-- Node2&#45;&gt;Node4 -->
<g id="edge3_Node000002_Node000004" class="edge">
<title>Node2&#45;&gt;Node4</title>
<g id="a_edge3_Node000002_Node000004"><a xlink:title=" ">
<path fill="none" stroke="#63b8ff" d="M187.82,-104.3C179.45,-106.57 171.06,-108.8 163,-110.88 151.18,-113.92 138.34,-117.04 126.45,-119.85"/>
<polygon fill="#63b8ff" stroke="#63b8ff" points="188.6,-107.71 197.32,-101.7 186.75,-100.96 188.6,-107.71"/>
</a>
</g>
</g>
<!-- Node5 -->
<g id="Node000005" class="node">
<title>Node5</title>
<g id="a_Node000005"><a xlink:href="../../de/dbe/classml_1_1maths_1_1time__series_1_1_c_time_series_decomposition.html#af48fad15657dd25f7f13c1e16b319e3d" target="_top" xlink:title=" ">
<polygon fill="white" stroke="#666666" points="153.62,-101.75 9.38,-101.75 9.38,-60 153.62,-60 153.62,-101.75"/>
<text text-anchor="start" x="17.38" y="-88.25" font-family="Helvetica,sans-Serif" font-size="10.00">ml::maths::time_series</text>
<text text-anchor="start" x="17.38" y="-77" font-family="Helvetica,sans-Serif" font-size="10.00">::CTimeSeriesDecomposition</text>
<text text-anchor="middle" x="81.5" y="-65.75" font-family="Helvetica,sans-Serif" font-size="10.00">::forecast</text>
</a>
</g>
</g>
<!-- Node2&#45;&gt;Node5 -->
<g id="edge4_Node000002_Node000005" class="edge">
<title>Node2&#45;&gt;Node5</title>
<g id="a_edge4_Node000002_Node000005"><a xlink:title=" ">
<path fill="none" stroke="#63b8ff" d="M187.24,-80.88C176.18,-80.88 164.92,-80.88 154.08,-80.88"/>
<polygon fill="#63b8ff" stroke="#63b8ff" points="187.14,-84.38 197.14,-80.88 187.14,-77.38 187.14,-84.38"/>
</a>
</g>
</g>
<!-- Node2&#45;&gt;Node6 -->
<g id="edge5_Node000002_Node000006" class="edge">
<title>Node2&#45;&gt;Node6</title>
<g id="a_edge5_Node000002_Node000006"><a xlink:title=" ">
<path fill="none" stroke="#63b8ff" d="M192.58,-56.08C178.2,-51.48 163.3,-46.71 149.28,-42.23"/>
<polygon fill="#63b8ff" stroke="#63b8ff" points="191.41,-59.38 202.01,-59.09 193.55,-52.71 191.41,-59.38"/>
</a>
</g>
</g>
</g>
</svg>
