<?xml version="1.0" encoding="UTF-8" standalone="no"?>
<!DOCTYPE svg PUBLIC "-//W3C//DTD SVG 1.1//EN"
 "http://www.w3.org/Graphics/SVG/1.1/DTD/svg11.dtd">
<!-- Generated by graphviz version 10.0.1 (20240210.2158)
 -->
<!-- Title: ml::maths::time_series::CTimeSeriesDecompositionDetail::CComponents::decayRate Pages: 1 -->
<svg width="737pt" height="175pt"
 viewBox="0.00 0.00 737.25 175.25" xmlns="http://www.w3.org/2000/svg" xmlns:xlink="http://www.w3.org/1999/xlink">
<g id="graph0" class="graph" transform="scale(1 1) rotate(0) translate(4 171.25)">
<title>ml::maths::time_series::CTimeSeriesDecompositionDetail::CComponents::decayRate</title>
<!-- Node1 -->
<g id="Node000001" class="node">
<title>Node1</title>
<g id="a_Node000001"><a xlink:title="Set the decay rate.">
<polygon fill="#999999" stroke="#666666" points="729.25,-104.5 559.5,-104.5 559.5,-62.75 729.25,-62.75 729.25,-104.5"/>
<text text-anchor="start" x="567.5" y="-91" font-family="Helvetica,sans-Serif" font-size="10.00">ml::maths::time_series</text>
<text text-anchor="start" x="567.5" y="-79.75" font-family="Helvetica,sans-Serif" font-size="10.00">::CTimeSeriesDecompositionDetail</text>
<text text-anchor="middle" x="644.38" y="-68.5" font-family="Helvetica,sans-Serif" font-size="10.00">::CComponents::decayRate</text>
</a>
</g>
</g>
<!-- Node2 -->
<g id="Node000002" class="node">
<title>Node2</title>
<g id="a_Node000002"><a xlink:href="../../de/dbe/classml_1_1maths_1_1time__series_1_1_c_time_series_decomposition.html#a5881e96ad769ff712162854e06e266ed" target="_top" xlink:title="Get the decay rate.">
<polygon fill="white" stroke="#666666" points="523.5,-129.5 379.25,-129.5 379.25,-87.75 523.5,-87.75 523.5,-129.5"/>
<text text-anchor="start" x="387.25" y="-116" font-family="Helvetica,sans-Serif" font-size="10.00">ml::maths::time_series</text>
<text text-anchor="start" x="387.25" y="-104.75" font-family="Helvetica,sans-Serif" font-size="10.00">::CTimeSeriesDecomposition</text>
<text text-anchor="middle" x="451.38" y="-93.5" font-family="Helvetica,sans-Serif" font-size="10.00">::decayRate</text>
</a>
</g>
</g>
<!-- Node1&#45;&gt;Node2 -->
<g id="edge1_Node000001_Node000002" class="edge">
<title>Node1&#45;&gt;Node2</title>
<g id="a_edge1_Node000001_Node000002"><a xlink:title=" ">
<path fill="none" stroke="#63b8ff" d="M547.67,-96.15C539.6,-97.21 531.54,-98.26 523.71,-99.29"/>
<polygon fill="#63b8ff" stroke="#63b8ff" points="548.08,-99.63 557.54,-94.86 547.17,-92.69 548.08,-99.63"/>
</a>
</g>
</g>
<!-- Node3 -->
<g id="Node000003" class="node">
<title>Node3</title>
<g id="a_Node000003"><a xlink:href="../../de/dbe/classml_1_1maths_1_1time__series_1_1_c_time_series_decomposition.html#a73da9caacd0251b4fb70364e6ac10548" target="_top" xlink:title="Set the decay rate.">
<polygon fill="white" stroke="#666666" points="343.25,-104.5 199,-104.5 199,-62.75 343.25,-62.75 343.25,-104.5"/>
<text text-anchor="start" x="207" y="-91" font-family="Helvetica,sans-Serif" font-size="10.00">ml::maths::time_series</text>
<text text-anchor="start" x="207" y="-79.75" font-family="Helvetica,sans-Serif" font-size="10.00">::CTimeSeriesDecomposition</text>
<text text-anchor="middle" x="271.12" y="-68.5" font-family="Helvetica,sans-Serif" font-size="10.00">::decayRate</text>
</a>
</g>
</g>
<!-- Node1&#45;&gt;Node3 -->
<g id="edge8_Node000001_Node000003" class="edge">
<title>Node1&#45;&gt;Node3</title>
<g id="a_edge8_Node000001_Node000003"><a xlink:title=" ">
<path fill="none" stroke="#63b8ff" d="M547.96,-79.28C539.69,-79.02 531.45,-78.79 523.5,-78.62 459.4,-77.29 443.34,-77.13 379.25,-78.62 367.71,-78.89 355.48,-79.33 343.56,-79.83"/>
<polygon fill="#63b8ff" stroke="#63b8ff" points="547.6,-82.77 557.72,-79.62 547.84,-75.78 547.6,-82.77"/>
</a>
</g>
</g>
<!-- Node2&#45;&gt;Node3 -->
<g id="edge2_Node000002_Node000003" class="edge">
<title>Node2&#45;&gt;Node3</title>
<g id="a_edge2_Node000002_Node000003"><a xlink:title=" ">
<path fill="none" stroke="#63b8ff" d="M367.63,-97.02C359.61,-95.89 351.52,-94.76 343.62,-93.65"/>
<polygon fill="#63b8ff" stroke="#63b8ff" points="367.01,-100.47 377.4,-98.39 367.99,-93.54 367.01,-100.47"/>
</a>
</g>
</g>
<!-- Node4 -->
<g id="Node000004" class="node">
<title>Node4</title>
<g id="a_Node000004"><a xlink:href="../../d0/da9/_c_time_series_decomposition_test_8cc.html#aa6e7191d99df015fef8879cc35acabcf" target="_top" xlink:title=" ">
<polygon fill="white" stroke="#666666" points="163,-167.25 0,-167.25 0,-148 163,-148 163,-167.25"/>
<text text-anchor="middle" x="81.5" y="-153.75" font-family="Helvetica,sans-Serif" font-size="10.00">BOOST_FIXTURE_TEST_CASE</text>
</a>
</g>
</g>
<!-- Node3&#45;&gt;Node4 -->
<g id="edge3_Node000003_Node000004" class="edge">
<title>Node3&#45;&gt;Node4</title>
<g id="a_edge3_Node000003_Node000004"><a xlink:title=" ">
<path fill="none" stroke="#63b8ff" d="M225.01,-110.57C206.33,-120.83 184.12,-131.9 163,-139.62 154.66,-142.68 145.64,-145.31 136.76,-147.54"/>
<polygon fill="#63b8ff" stroke="#63b8ff" points="226.66,-113.65 233.68,-105.71 223.24,-107.54 226.66,-113.65"/>
</a>
</g>
</g>
<!-- Node5 -->
<g id="Node000005" class="node">
<title>Node5</title>
<g id="a_Node000005"><a xlink:href="../../d0/da9/_c_time_series_decomposition_test_8cc.html#ae59d63e9eddb311544f1069371d55d2d" target="_top" xlink:title=" ">
<polygon fill="white" stroke="#666666" points="163,-130.25 0,-130.25 0,-111 163,-111 163,-130.25"/>
<text text-anchor="middle" x="81.5" y="-116.75" font-family="Helvetica,sans-Serif" font-size="10.00">BOOST_FIXTURE_TEST_CASE</text>
</a>
</g>
</g>
<!-- Node3&#45;&gt;Node5 -->
<g id="edge4_Node000003_Node000005" class="edge">
<title>Node3&#45;&gt;Node5</title>
<g id="a_edge4_Node000003_Node000005"><a xlink:title=" ">
<path fill="none" stroke="#63b8ff" d="M187.37,-99.94C169.09,-103.55 150.24,-107.27 133.65,-110.54"/>
<polygon fill="#63b8ff" stroke="#63b8ff" points="188.04,-103.38 197.17,-98.01 186.68,-96.51 188.04,-103.38"/>
</a>
</g>
</g>
<!-- Node6 -->
<g id="Node000006" class="node">
<title>Node6</title>
<g id="a_Node000006"><a xlink:href="../../d0/da9/_c_time_series_decomposition_test_8cc.html#aef5a8857b10a60709470dd25cc8fe10e" target="_top" xlink:title=" ">
<polygon fill="white" stroke="#666666" points="163,-93.25 0,-93.25 0,-74 163,-74 163,-93.25"/>
<text text-anchor="middle" x="81.5" y="-79.75" font-family="Helvetica,sans-Serif" font-size="10.00">BOOST_FIXTURE_TEST_CASE</text>
</a>
</g>
</g>
<!-- Node3&#45;&gt;Node6 -->
<g id="edge5_Node000003_Node000006" class="edge">
<title>Node3&#45;&gt;Node6</title>
<g id="a_edge5_Node000003_Node000006"><a xlink:title=" ">
<path fill="none" stroke="#63b8ff" d="M187.21,-83.62C179.34,-83.62 171.35,-83.62 163.49,-83.62"/>
<polygon fill="#63b8ff" stroke="#63b8ff" points="187.14,-87.13 197.14,-83.63 187.14,-80.13 187.14,-87.13"/>
</a>
</g>
</g>
<!-- Node7 -->
<g id="Node000007" class="node">
<title>Node7</title>
<g id="a_Node000007"><a xlink:href="../../d0/da9/_c_time_series_decomposition_test_8cc.html#aab271baedce8409a164cc1b5d2fd8f4a" target="_top" xlink:title=" ">
<polygon fill="white" stroke="#666666" points="163,-56.25 0,-56.25 0,-37 163,-37 163,-56.25"/>
<text text-anchor="middle" x="81.5" y="-42.75" font-family="Helvetica,sans-Serif" font-size="10.00">BOOST_FIXTURE_TEST_CASE</text>
</a>
</g>
</g>
<!-- Node3&#45;&gt;Node7 -->
<g id="edge6_Node000003_Node000007" class="edge">
<title>Node3&#45;&gt;Node7</title>
<g id="a_edge6_Node000003_Node000007"><a xlink:title=" ">
<path fill="none" stroke="#63b8ff" d="M187.37,-67.31C169.09,-63.7 150.24,-59.98 133.65,-56.71"/>
<polygon fill="#63b8ff" stroke="#63b8ff" points="186.68,-70.74 197.17,-69.24 188.04,-63.87 186.68,-70.74"/>
</a>
</g>
</g>
<!-- Node8 -->
<g id="Node000008" class="node">
<title>Node8</title>
<g id="a_Node000008"><a xlink:href="../../d0/da9/_c_time_series_decomposition_test_8cc.html#a1b19faa9fbce83f5f41bdb2ae950b300" target="_top" xlink:title=" ">
<polygon fill="white" stroke="#666666" points="163,-19.25 0,-19.25 0,0 163,0 163,-19.25"/>
<text text-anchor="middle" x="81.5" y="-5.75" font-family="Helvetica,sans-Serif" font-size="10.00">BOOST_FIXTURE_TEST_CASE</text>
</a>
</g>
</g>
<!-- Node3&#45;&gt;Node8 -->
<g id="edge7_Node000003_Node000008" class="edge">
<title>Node3&#45;&gt;Node8</title>
<g id="a_edge7_Node000003_Node000008"><a xlink:title=" ">
<path fill="none" stroke="#63b8ff" d="M225.01,-56.68C206.33,-46.42 184.12,-35.35 163,-27.62 154.66,-24.57 145.64,-21.94 136.76,-19.71"/>
<polygon fill="#63b8ff" stroke="#63b8ff" points="223.24,-59.71 233.68,-61.54 226.66,-53.6 223.24,-59.71"/>
</a>
</g>
</g>
</g>
</svg>
