<?xml version="1.0" encoding="UTF-8" standalone="no"?>
<!DOCTYPE svg PUBLIC "-//W3C//DTD SVG 1.1//EN"
 "http://www.w3.org/Graphics/SVG/1.1/DTD/svg11.dtd">
<!-- Generated by graphviz version 10.0.1 (20240210.2158)
 -->
<!-- Title: ml::maths::analytics::boosted_tree_detail::CArgMinMsleImpl Pages: 1 -->
<svg width="867pt" height="253pt"
 viewBox="0.00 0.00 866.50 253.38" xmlns="http://www.w3.org/2000/svg" xmlns:xlink="http://www.w3.org/1999/xlink">
<g id="graph0" class="graph" transform="scale(1 1) rotate(0) translate(4 249.38)">
<title>ml::maths::analytics::boosted_tree_detail::CArgMinMsleImpl</title>
<!-- Node1 -->
<g id="Node000001" class="node">
<title>Node1</title>
<g id="a_Node000001"><a xlink:title="Finds the value to add to a set of predictions which approximately minimises the regularised mean squ...">
<polygon fill="#999999" stroke="#666666" points="858.5,-145.75 751.75,-145.75 751.75,-104 858.5,-104 858.5,-145.75"/>
<text text-anchor="start" x="759.75" y="-132.25" font-family="Helvetica,sans-Serif" font-size="10.00">ml::maths::analytics</text>
<text text-anchor="start" x="759.75" y="-121" font-family="Helvetica,sans-Serif" font-size="10.00">::boosted_tree_detail</text>
<text text-anchor="middle" x="805.12" y="-109.75" font-family="Helvetica,sans-Serif" font-size="10.00">::CArgMinMsleImpl</text>
</a>
</g>
</g>
<!-- Node2 -->
<g id="Node000002" class="node">
<title>Node2</title>
<g id="a_Node000002"><a xlink:href="../../db/da8/classml_1_1maths_1_1analytics_1_1boosted__tree__detail_1_1_c_arg_min_loss_impl.html" target="_top" xlink:title=" ">
<polygon fill="white" stroke="#666666" points="577.75,-235.75 471,-235.75 471,-194 577.75,-194 577.75,-235.75"/>
<text text-anchor="start" x="479" y="-222.25" font-family="Helvetica,sans-Serif" font-size="10.00">ml::maths::analytics</text>
<text text-anchor="start" x="479" y="-211" font-family="Helvetica,sans-Serif" font-size="10.00">::boosted_tree_detail</text>
<text text-anchor="middle" x="524.38" y="-199.75" font-family="Helvetica,sans-Serif" font-size="10.00">::CArgMinLossImpl</text>
</a>
</g>
</g>
<!-- Node2&#45;&gt;Node1 -->
<g id="edge1_Node000001_Node000002" class="edge">
<title>Node2&#45;&gt;Node1</title>
<g id="a_edge1_Node000001_Node000002"><a xlink:title=" ">
<path fill="none" stroke="#63b8ff" d="M589.17,-207.65C631.38,-201.37 687.3,-190.16 733.75,-170.88 748.85,-164.61 764.21,-155.02 776.71,-146.21"/>
<polygon fill="#63b8ff" stroke="#63b8ff" points="588.83,-204.16 579.42,-209.04 589.81,-211.09 588.83,-204.16"/>
</a>
</g>
</g>
<!-- Node3 -->
<g id="Node000003" class="node">
<title>Node3</title>
<g id="a_Node000003"><a xlink:href="../../d4/d5a/classml_1_1maths_1_1common_1_1_c_basic_statistics_1_1_c_min_max.html" target="_top" xlink:title=" ">
<polygon fill="white" stroke="#666666" points="593.12,-175.75 455.62,-175.75 455.62,-134 593.12,-134 593.12,-175.75"/>
<text text-anchor="start" x="463.62" y="-162.25" font-family="Helvetica,sans-Serif" font-size="10.00">ml::maths::common::</text>
<text text-anchor="start" x="463.62" y="-151" font-family="Helvetica,sans-Serif" font-size="10.00">CBasicStatistics::CMinMax</text>
<text text-anchor="middle" x="524.38" y="-139.75" font-family="Helvetica,sans-Serif" font-size="10.00">&lt; double &gt;</text>
</a>
</g>
</g>
<!-- Node3&#45;&gt;Node1 -->
<g id="edge2_Node000001_Node000003" class="edge">
<title>Node3&#45;&gt;Node1</title>
<g id="a_edge2_Node000001_Node000003"><a xlink:title=" ">
<path fill="none" stroke="#9a32cd" stroke-dasharray="5,2" d="M604.95,-146.31C651.95,-141.25 710.16,-134.99 751.48,-130.54"/>
<polygon fill="#9a32cd" stroke="#9a32cd" points="604.64,-142.82 595.07,-147.37 605.39,-149.78 604.64,-142.82"/>
</a>
</g>
<text text-anchor="middle" x="677.88" y="-156.88" font-family="Helvetica,sans-Serif" font-size="10.00" fill="grey"> m_ExpPredictionMinMax</text>
<text text-anchor="middle" x="677.88" y="-145.62" font-family="Helvetica,sans-Serif" font-size="10.00" fill="grey">m_LogActualMinMax</text>
</g>
<!-- Node4 -->
<g id="Node000004" class="node">
<title>Node4</title>
<g id="a_Node000004"><a xlink:title=" ">
<polygon fill="white" stroke="#666666" points="358.12,-240.75 220.62,-240.75 220.62,-199 358.12,-199 358.12,-240.75"/>
<text text-anchor="start" x="228.62" y="-227.25" font-family="Helvetica,sans-Serif" font-size="10.00">boost::addable&lt; CMinMax</text>
<text text-anchor="start" x="228.62" y="-216" font-family="Helvetica,sans-Serif" font-size="10.00">&lt; double, std::less&lt;double&gt;</text>
<text text-anchor="middle" x="289.38" y="-204.75" font-family="Helvetica,sans-Serif" font-size="10.00">, std::greater&lt;double&gt; &gt; &gt;</text>
</a>
</g>
</g>
<!-- Node4&#45;&gt;Node3 -->
<g id="edge3_Node000003_Node000004" class="edge">
<title>Node4&#45;&gt;Node3</title>
<g id="a_edge3_Node000003_Node000004"><a xlink:title=" ">
<path fill="none" stroke="#8b1a1a" d="M369.32,-197.85C397.22,-190.07 428.34,-181.39 455.27,-173.87"/>
<polygon fill="#8b1a1a" stroke="#8b1a1a" points="368.54,-194.43 359.85,-200.49 370.43,-201.18 368.54,-194.43"/>
</a>
</g>
</g>
<!-- Node5 -->
<g id="Node000005" class="node">
<title>Node5</title>
<g id="a_Node000005"><a xlink:href="../../d0/d3b/classml_1_1maths_1_1common_1_1_c_basic_statistics_1_1_c_order_statistics_stack.html" target="_top" xlink:title=" ">
<polygon fill="white" stroke="#666666" points="373.5,-181.38 205.25,-181.38 205.25,-128.38 373.5,-128.38 373.5,-181.38"/>
<text text-anchor="start" x="213.25" y="-167.88" font-family="Helvetica,sans-Serif" font-size="10.00">ml::maths::common::</text>
<text text-anchor="start" x="213.25" y="-156.62" font-family="Helvetica,sans-Serif" font-size="10.00">CBasicStatistics::COrderStatistics</text>
<text text-anchor="start" x="213.25" y="-145.38" font-family="Helvetica,sans-Serif" font-size="10.00">Stack&lt; double, 1, std::less</text>
<text text-anchor="middle" x="289.38" y="-134.12" font-family="Helvetica,sans-Serif" font-size="10.00">&lt; double &gt; &gt;</text>
</a>
</g>
</g>
<!-- Node5&#45;&gt;Node3 -->
<g id="edge4_Node000003_Node000005" class="edge">
<title>Node5&#45;&gt;Node3</title>
<g id="a_edge4_Node000003_Node000005"><a xlink:title=" ">
<path fill="none" stroke="#9a32cd" stroke-dasharray="5,2" d="M385.26,-154.88C408.77,-154.88 433.5,-154.88 455.43,-154.88"/>
<polygon fill="#9a32cd" stroke="#9a32cd" points="385.35,-151.38 375.35,-154.88 385.35,-158.38 385.35,-151.38"/>
</a>
</g>
<text text-anchor="middle" x="409.12" y="-156.62" font-family="Helvetica,sans-Serif" font-size="10.00" fill="grey"> m_Min</text>
</g>
<!-- Node6 -->
<g id="Node000006" class="node">
<title>Node6</title>
<g id="a_Node000006"><a xlink:href="../../d9/d6e/classml_1_1maths_1_1common_1_1_c_basic_statistics_1_1_c_order_statistics_impl.html" target="_top" xlink:title=" ">
<polygon fill="white" stroke="#666666" points="168.25,-245.38 0,-245.38 0,-192.38 168.25,-192.38 168.25,-245.38"/>
<text text-anchor="start" x="8" y="-231.88" font-family="Helvetica,sans-Serif" font-size="10.00">ml::maths::common::</text>
<text text-anchor="start" x="8" y="-220.62" font-family="Helvetica,sans-Serif" font-size="10.00">CBasicStatistics::COrderStatistics</text>
<text text-anchor="start" x="8" y="-209.38" font-family="Helvetica,sans-Serif" font-size="10.00">Impl&lt; double, std::array&lt; double,</text>
<text text-anchor="middle" x="84.12" y="-198.12" font-family="Helvetica,sans-Serif" font-size="10.00"> N &gt;, std::less&lt; double &gt; &gt;</text>
</a>
</g>
</g>
<!-- Node6&#45;&gt;Node5 -->
<g id="edge5_Node000005_Node000006" class="edge">
<title>Node6&#45;&gt;Node5</title>
<g id="a_edge5_Node000005_Node000006"><a xlink:title=" ">
<path fill="none" stroke="#63b8ff" d="M179.38,-189.2C187.87,-186.52 196.43,-183.83 204.82,-181.18"/>
<polygon fill="#63b8ff" stroke="#63b8ff" points="178.61,-185.77 170.12,-192.11 180.71,-192.45 178.61,-185.77"/>
</a>
</g>
</g>
<!-- Node7 -->
<g id="Node000007" class="node">
<title>Node7</title>
<g id="a_Node000007"><a xlink:title=" ">
<polygon fill="white" stroke="#666666" points="164.88,-174.75 3.38,-174.75 3.38,-133 164.88,-133 164.88,-174.75"/>
<text text-anchor="start" x="11.38" y="-161.25" font-family="Helvetica,sans-Serif" font-size="10.00">boost::addable&lt; COrderStatistics</text>
<text text-anchor="start" x="11.38" y="-150" font-family="Helvetica,sans-Serif" font-size="10.00">Stack&lt; double, N, std::less</text>
<text text-anchor="middle" x="84.12" y="-138.75" font-family="Helvetica,sans-Serif" font-size="10.00">&lt; double &gt; &gt; &gt;</text>
</a>
</g>
</g>
<!-- Node7&#45;&gt;Node5 -->
<g id="edge6_Node000005_Node000007" class="edge">
<title>Node7&#45;&gt;Node5</title>
<g id="a_edge6_Node000005_Node000007"><a xlink:title=" ">
<path fill="none" stroke="#8b1a1a" d="M176.63,-154.33C186.1,-154.37 195.69,-154.42 205.07,-154.47"/>
<polygon fill="#8b1a1a" stroke="#8b1a1a" points="176.69,-150.83 166.68,-154.28 176.66,-157.83 176.69,-150.83"/>
</a>
</g>
</g>
<!-- Node8 -->
<g id="Node000008" class="node">
<title>Node8</title>
<g id="a_Node000008"><a xlink:href="../../d0/d3b/classml_1_1maths_1_1common_1_1_c_basic_statistics_1_1_c_order_statistics_stack.html" target="_top" xlink:title=" ">
<polygon fill="white" stroke="#666666" points="373.5,-110.38 205.25,-110.38 205.25,-57.38 373.5,-57.38 373.5,-110.38"/>
<text text-anchor="start" x="213.25" y="-96.88" font-family="Helvetica,sans-Serif" font-size="10.00">ml::maths::common::</text>
<text text-anchor="start" x="213.25" y="-85.62" font-family="Helvetica,sans-Serif" font-size="10.00">CBasicStatistics::COrderStatistics</text>
<text text-anchor="start" x="213.25" y="-74.38" font-family="Helvetica,sans-Serif" font-size="10.00">Stack&lt; double, 1, std::greater</text>
<text text-anchor="middle" x="289.38" y="-63.12" font-family="Helvetica,sans-Serif" font-size="10.00">&lt; double &gt; &gt;</text>
</a>
</g>
</g>
<!-- Node8&#45;&gt;Node3 -->
<g id="edge7_Node000003_Node000008" class="edge">
<title>Node8&#45;&gt;Node3</title>
<g id="a_edge7_Node000003_Node000008"><a xlink:title=" ">
<path fill="none" stroke="#9a32cd" stroke-dasharray="5,2" d="M384.62,-112.59C408.32,-119.82 433.3,-127.43 455.43,-134.17"/>
<polygon fill="#9a32cd" stroke="#9a32cd" points="385.87,-109.32 375.28,-109.75 383.83,-116.01 385.87,-109.32"/>
</a>
</g>
<text text-anchor="middle" x="409.12" y="-124.62" font-family="Helvetica,sans-Serif" font-size="10.00" fill="grey"> m_Max</text>
</g>
<!-- Node9 -->
<g id="Node000009" class="node">
<title>Node9</title>
<g id="a_Node000009"><a xlink:href="../../d9/d6e/classml_1_1maths_1_1common_1_1_c_basic_statistics_1_1_c_order_statistics_impl.html" target="_top" xlink:title=" ">
<polygon fill="white" stroke="#666666" points="168.25,-112.38 0,-112.38 0,-59.38 168.25,-59.38 168.25,-112.38"/>
<text text-anchor="start" x="8" y="-98.88" font-family="Helvetica,sans-Serif" font-size="10.00">ml::maths::common::</text>
<text text-anchor="start" x="8" y="-87.62" font-family="Helvetica,sans-Serif" font-size="10.00">CBasicStatistics::COrderStatistics</text>
<text text-anchor="start" x="8" y="-76.38" font-family="Helvetica,sans-Serif" font-size="10.00">Impl&lt; double, std::array&lt; double,</text>
<text text-anchor="middle" x="84.12" y="-65.12" font-family="Helvetica,sans-Serif" font-size="10.00"> N &gt;, std::greater&lt; double &gt; &gt;</text>
</a>
</g>
</g>
<!-- Node9&#45;&gt;Node8 -->
<g id="edge8_Node000008_Node000009" class="edge">
<title>Node9&#45;&gt;Node8</title>
<g id="a_edge8_Node000008_Node000009"><a xlink:title=" ">
<path fill="none" stroke="#63b8ff" d="M179.94,-84.94C188.25,-84.86 196.62,-84.78 204.82,-84.7"/>
<polygon fill="#63b8ff" stroke="#63b8ff" points="180.15,-81.44 170.19,-85.04 180.22,-88.44 180.15,-81.44"/>
</a>
</g>
</g>
<!-- Node10 -->
<g id="Node000010" class="node">
<title>Node10</title>
<g id="a_Node000010"><a xlink:title=" ">
<polygon fill="white" stroke="#666666" points="164.88,-41.75 3.38,-41.75 3.38,0 164.88,0 164.88,-41.75"/>
<text text-anchor="start" x="11.38" y="-28.25" font-family="Helvetica,sans-Serif" font-size="10.00">boost::addable&lt; COrderStatistics</text>
<text text-anchor="start" x="11.38" y="-17" font-family="Helvetica,sans-Serif" font-size="10.00">Stack&lt; double, N, std::greater</text>
<text text-anchor="middle" x="84.12" y="-5.75" font-family="Helvetica,sans-Serif" font-size="10.00">&lt; double &gt; &gt; &gt;</text>
</a>
</g>
</g>
<!-- Node10&#45;&gt;Node8 -->
<g id="edge9_Node000008_Node000010" class="edge">
<title>Node10&#45;&gt;Node8</title>
<g id="a_edge9_Node000008_Node000010"><a xlink:title=" ">
<path fill="none" stroke="#8b1a1a" d="M164.83,-45.58C177.97,-49.65 191.62,-53.88 204.84,-57.98"/>
<polygon fill="#8b1a1a" stroke="#8b1a1a" points="165.97,-42.27 155.38,-42.65 163.9,-48.96 165.97,-42.27"/>
</a>
</g>
</g>
<!-- Node11 -->
<g id="Node000011" class="node">
<title>Node11</title>
<g id="a_Node000011"><a xlink:href="../../d8/d84/structml_1_1maths_1_1common_1_1_c_basic_statistics_1_1_s_sample_mean_var.html" target="_top" xlink:title=" ">
<polygon fill="white" stroke="#666666" points="604,-115.75 444.75,-115.75 444.75,-74 604,-74 604,-115.75"/>
<text text-anchor="start" x="452.75" y="-102.25" font-family="Helvetica,sans-Serif" font-size="10.00">ml::maths::common::</text>
<text text-anchor="start" x="452.75" y="-91" font-family="Helvetica,sans-Serif" font-size="10.00">CBasicStatistics::SSampleMean</text>
<text text-anchor="middle" x="524.38" y="-79.75" font-family="Helvetica,sans-Serif" font-size="10.00">Var&lt; double &gt;</text>
</a>
</g>
</g>
<!-- Node11&#45;&gt;Node1 -->
<g id="edge10_Node000001_Node000011" class="edge">
<title>Node11&#45;&gt;Node1</title>
<g id="a_edge10_Node000001_Node000011"><a xlink:title=" ">
<path fill="none" stroke="#9a32cd" stroke-dasharray="5,2" d="M615.39,-104.56C660.37,-109.4 713.23,-115.09 751.55,-119.22"/>
<polygon fill="#9a32cd" stroke="#9a32cd" points="615.96,-101.1 605.64,-103.51 615.21,-108.06 615.96,-101.1"/>
</a>
</g>
<text text-anchor="middle" x="677.88" y="-117.62" font-family="Helvetica,sans-Serif" font-size="10.00" fill="grey"> m_MeanLogActual</text>
</g>
<!-- Node12 -->
<g id="Node000012" class="node">
<title>Node12</title>
<g id="a_Node000012"><a xlink:href="../../d5/d01/structml_1_1maths_1_1common_1_1_c_basic_statistics_1_1_s_sample_mean.html" target="_top" xlink:title=" ">
<polygon fill="white" stroke="#666666" points="604,-55.75 444.75,-55.75 444.75,-14 604,-14 604,-55.75"/>
<text text-anchor="start" x="452.75" y="-42.25" font-family="Helvetica,sans-Serif" font-size="10.00">ml::maths::common::</text>
<text text-anchor="start" x="452.75" y="-31" font-family="Helvetica,sans-Serif" font-size="10.00">CBasicStatistics::SSampleMean</text>
<text text-anchor="middle" x="524.38" y="-19.75" font-family="Helvetica,sans-Serif" font-size="10.00">&lt; double &gt;</text>
</a>
</g>
</g>
<!-- Node12&#45;&gt;Node1 -->
<g id="edge11_Node000001_Node000012" class="edge">
<title>Node12&#45;&gt;Node1</title>
<g id="a_edge11_Node000001_Node000012"><a xlink:title=" ">
<path fill="none" stroke="#9a32cd" stroke-dasharray="5,2" d="M615.1,-54.13C652.35,-63.23 695.69,-75.27 733.75,-89.62 744.23,-93.58 755.22,-98.62 765.32,-103.64"/>
<polygon fill="#9a32cd" stroke="#9a32cd" points="616.27,-50.81 605.73,-51.87 614.63,-57.62 616.27,-50.81"/>
</a>
</g>
<text text-anchor="middle" x="677.88" y="-90.62" font-family="Helvetica,sans-Serif" font-size="10.00" fill="grey"> m_MeanError</text>
</g>
</g>
</svg>
