<?xml version="1.0" encoding="UTF-8" standalone="no"?>
<!DOCTYPE svg PUBLIC "-//W3C//DTD SVG 1.1//EN"
 "http://www.w3.org/Graphics/SVG/1.1/DTD/svg11.dtd">
<!-- Generated by graphviz version 10.0.1 (20240210.2158)
 -->
<!-- Title: ml::maths::analytics::CBoostedTreeNode::acceptRestoreTraverser Pages: 1 -->
<svg width="592pt" height="313pt"
 viewBox="0.00 0.00 591.50 313.12" xmlns="http://www.w3.org/2000/svg" xmlns:xlink="http://www.w3.org/1999/xlink">
<g id="graph0" class="graph" transform="scale(1 1) rotate(0) translate(4 309.12)">
<title>ml::maths::analytics::CBoostedTreeNode::acceptRestoreTraverser</title>
<!-- Node1 -->
<g id="Node000001" class="node">
<title>Node1</title>
<g id="a_Node000001"><a xlink:title="Populate the object from serialized data.">
<polygon fill="#999999" stroke="#666666" points="178,-232.12 0,-232.12 0,-190.38 178,-190.38 178,-232.12"/>
<text text-anchor="start" x="8" y="-218.62" font-family="Helvetica,sans-Serif" font-size="10.00">ml::maths::analytics</text>
<text text-anchor="start" x="8" y="-207.38" font-family="Helvetica,sans-Serif" font-size="10.00">::CBoostedTreeNode::acceptRestore</text>
<text text-anchor="middle" x="89" y="-196.12" font-family="Helvetica,sans-Serif" font-size="10.00">Traverser</text>
</a>
</g>
</g>
<!-- Node2 -->
<g id="Node000002" class="node">
<title>Node2</title>
<g id="a_Node000002"><a xlink:href="../../d3/df5/namespaceml_1_1maths_1_1analytics_1_1boosted__tree__detail.html#a7c4783f644d41b2f28dbcc3d26b3b583" target="_top" xlink:title="Get the split used for storing missing values.">
<polygon fill="white" stroke="#666666" points="552,-305.12 445.25,-305.12 445.25,-263.38 552,-263.38 552,-305.12"/>
<text text-anchor="start" x="453.25" y="-291.62" font-family="Helvetica,sans-Serif" font-size="10.00">ml::maths::analytics</text>
<text text-anchor="start" x="453.25" y="-280.38" font-family="Helvetica,sans-Serif" font-size="10.00">::boosted_tree_detail</text>
<text text-anchor="middle" x="498.62" y="-269.12" font-family="Helvetica,sans-Serif" font-size="10.00">::missingSplit</text>
</a>
</g>
</g>
<!-- Node1&#45;&gt;Node2 -->
<g id="edge1_Node000001_Node000002" class="edge">
<title>Node1&#45;&gt;Node2</title>
<g id="a_edge1_Node000001_Node000002"><a xlink:title=" ">
<path fill="none" stroke="#63b8ff" d="M116.16,-232.31C140.03,-250.09 177.12,-274.2 214,-284.25 287.27,-304.21 375.19,-300.13 433.52,-293.72"/>
<polygon fill="#63b8ff" stroke="#63b8ff" points="433.74,-297.22 443.27,-292.59 432.94,-290.26 433.74,-297.22"/>
</a>
</g>
</g>
<!-- Node3 -->
<g id="Node000003" class="node">
<title>Node3</title>
<g id="a_Node000003"><a xlink:href="../../d2/d3f/classml_1_1core_1_1_c_state_restore_traverser.html#af68782b2ed0c98177d130d9196f97889" target="_top" xlink:title=" ">
<polygon fill="white" stroke="#666666" points="377.75,-275.5 214,-275.5 214,-245 377.75,-245 377.75,-275.5"/>
<text text-anchor="start" x="222" y="-262" font-family="Helvetica,sans-Serif" font-size="10.00">ml::core::CStateRestoreTraverser</text>
<text text-anchor="middle" x="295.88" y="-250.75" font-family="Helvetica,sans-Serif" font-size="10.00">::name</text>
</a>
</g>
</g>
<!-- Node1&#45;&gt;Node3 -->
<g id="edge2_Node000001_Node000003" class="edge">
<title>Node1&#45;&gt;Node3</title>
<g id="a_edge2_Node000001_Node000003"><a xlink:title=" ">
<path fill="none" stroke="#63b8ff" d="M178.37,-232.39C191.52,-235.53 204.99,-238.75 217.88,-241.84"/>
<polygon fill="#63b8ff" stroke="#63b8ff" points="217.03,-245.23 227.57,-244.15 218.66,-238.42 217.03,-245.23"/>
</a>
</g>
</g>
<!-- Node4 -->
<g id="Node000004" class="node">
<title>Node4</title>
<g id="a_Node000004"><a xlink:href="../../d2/d3f/classml_1_1core_1_1_c_state_restore_traverser.html#a733d8051e128c5d7421707afadb31ab7" target="_top" xlink:title=" ">
<polygon fill="white" stroke="#666666" points="377.75,-226.5 214,-226.5 214,-196 377.75,-196 377.75,-226.5"/>
<text text-anchor="start" x="222" y="-213" font-family="Helvetica,sans-Serif" font-size="10.00">ml::core::CStateRestoreTraverser</text>
<text text-anchor="middle" x="295.88" y="-201.75" font-family="Helvetica,sans-Serif" font-size="10.00">::next</text>
</a>
</g>
</g>
<!-- Node1&#45;&gt;Node4 -->
<g id="edge3_Node000001_Node000004" class="edge">
<title>Node1&#45;&gt;Node4</title>
<g id="a_edge3_Node000001_Node000004"><a xlink:title=" ">
<path fill="none" stroke="#63b8ff" d="M178.37,-211.25C186.23,-211.25 194.2,-211.25 202.1,-211.25"/>
<polygon fill="#63b8ff" stroke="#63b8ff" points="202.07,-214.75 212.07,-211.25 202.07,-207.75 202.07,-214.75"/>
</a>
</g>
</g>
<!-- Node5 -->
<g id="Node000005" class="node">
<title>Node5</title>
<g id="a_Node000005"><a xlink:href="../../de/df5/classml_1_1core_1_1_c_persist_utils.html#a072afe5547a4892cfb84eafcda2619c2" target="_top" xlink:title="Restore collection reading state from traverser expecting tag for elements.">
<polygon fill="white" stroke="#666666" points="353.75,-177.5 238,-177.5 238,-147 353.75,-147 353.75,-177.5"/>
<text text-anchor="start" x="246" y="-164" font-family="Helvetica,sans-Serif" font-size="10.00">ml::core::CPersistUtils</text>
<text text-anchor="middle" x="295.88" y="-152.75" font-family="Helvetica,sans-Serif" font-size="10.00">::restore</text>
</a>
</g>
</g>
<!-- Node1&#45;&gt;Node5 -->
<g id="edge4_Node000001_Node000005" class="edge">
<title>Node1&#45;&gt;Node5</title>
<g id="a_edge4_Node000001_Node000005"><a xlink:title=" ">
<path fill="none" stroke="#63b8ff" d="M178.37,-190.11C194.49,-186.26 211.09,-182.29 226.52,-178.6"/>
<polygon fill="#63b8ff" stroke="#63b8ff" points="227.15,-182.05 236.06,-176.32 225.52,-175.24 227.15,-182.05"/>
</a>
</g>
</g>
<!-- Node6 -->
<g id="Node000006" class="node">
<title>Node6</title>
<g id="a_Node000006"><a xlink:href="../../d1/d51/classml_1_1maths_1_1analytics_1_1_c_boosted_tree_node.html#a42e6819a8b46bf371aa44e5d17a7d709" target="_top" xlink:title="Split this node and add its child nodes to tree.">
<polygon fill="white" stroke="#666666" points="362,-128.5 229.75,-128.5 229.75,-98 362,-98 362,-128.5"/>
<text text-anchor="start" x="237.75" y="-115" font-family="Helvetica,sans-Serif" font-size="10.00">ml::maths::analytics</text>
<text text-anchor="middle" x="295.88" y="-103.75" font-family="Helvetica,sans-Serif" font-size="10.00">::CBoostedTreeNode::split</text>
</a>
</g>
</g>
<!-- Node1&#45;&gt;Node6 -->
<g id="edge5_Node000001_Node000006" class="edge">
<title>Node1&#45;&gt;Node6</title>
<g id="a_edge5_Node000001_Node000006"><a xlink:title=" ">
<path fill="none" stroke="#63b8ff" d="M121.54,-189.9C145.97,-174.07 181.09,-152.78 214,-138.25 218.31,-136.35 222.81,-134.53 227.38,-132.8"/>
<polygon fill="#63b8ff" stroke="#63b8ff" points="228.48,-136.13 236.71,-129.46 226.11,-129.54 228.48,-136.13"/>
</a>
</g>
</g>
<!-- Node6&#45;&gt;Node2 -->
<g id="edge9_Node000006_Node000002" class="edge">
<title>Node6&#45;&gt;Node2</title>
<g id="a_edge9_Node000006_Node000002"><a xlink:title=" ">
<path fill="none" stroke="#63b8ff" d="M362.14,-127.35C367.83,-130.32 373.16,-133.91 377.75,-138.25 411.16,-169.85 384.17,-200.04 413.75,-235.25 420.75,-243.59 429.56,-250.84 438.82,-257.02"/>
<polygon fill="#63b8ff" stroke="#63b8ff" points="436.94,-259.97 447.28,-262.27 440.63,-254.02 436.94,-259.97"/>
</a>
</g>
</g>
<!-- Node7 -->
<g id="Node000007" class="node">
<title>Node7</title>
<g id="a_Node000007"><a xlink:href="../../d1/d51/classml_1_1maths_1_1analytics_1_1_c_boosted_tree_node.html#a504ccbfff880668549a1dd6e8b5b3dd6" target="_top" xlink:title="Get the total curvature at the rows below this node.">
<polygon fill="white" stroke="#666666" points="576,-226.5 421.25,-226.5 421.25,-196 576,-196 576,-226.5"/>
<text text-anchor="start" x="429.25" y="-213" font-family="Helvetica,sans-Serif" font-size="10.00">ml::maths::analytics</text>
<text text-anchor="middle" x="498.62" y="-201.75" font-family="Helvetica,sans-Serif" font-size="10.00">::CBoostedTreeNode::curvature</text>
</a>
</g>
</g>
<!-- Node6&#45;&gt;Node7 -->
<g id="edge6_Node000006_Node000007" class="edge">
<title>Node6&#45;&gt;Node7</title>
<g id="a_edge6_Node000006_Node000007"><a xlink:title=" ">
<path fill="none" stroke="#63b8ff" d="M360.94,-128.81C366.87,-131.49 372.58,-134.61 377.75,-138.25 399.55,-153.6 391.87,-171.01 413.75,-186.25 415.83,-187.7 417.99,-189.06 420.21,-190.35"/>
<polygon fill="#63b8ff" stroke="#63b8ff" points="418.48,-193.39 428.98,-194.82 421.66,-187.16 418.48,-193.39"/>
</a>
</g>
</g>
<!-- Node8 -->
<g id="Node000008" class="node">
<title>Node8</title>
<g id="a_Node000008"><a xlink:href="../../d1/d51/classml_1_1maths_1_1analytics_1_1_c_boosted_tree_node.html#a04605d21c452d04e82829e8fcbafd860" target="_top" xlink:title="Get the gain of the split.">
<polygon fill="white" stroke="#666666" points="564.75,-177.5 432.5,-177.5 432.5,-147 564.75,-147 564.75,-177.5"/>
<text text-anchor="start" x="440.5" y="-164" font-family="Helvetica,sans-Serif" font-size="10.00">ml::maths::analytics</text>
<text text-anchor="middle" x="498.62" y="-152.75" font-family="Helvetica,sans-Serif" font-size="10.00">::CBoostedTreeNode::gain</text>
</a>
</g>
</g>
<!-- Node6&#45;&gt;Node8 -->
<g id="edge7_Node000006_Node000008" class="edge">
<title>Node6&#45;&gt;Node8</title>
<g id="a_edge7_Node000006_Node000008"><a xlink:title=" ">
<path fill="none" stroke="#63b8ff" d="M361.22,-128.96C380.67,-133.7 402.2,-138.96 422.3,-143.86"/>
<polygon fill="#63b8ff" stroke="#63b8ff" points="421.28,-147.22 431.83,-146.19 422.94,-140.42 421.28,-147.22"/>
</a>
</g>
</g>
<!-- Node9 -->
<g id="Node000009" class="node">
<title>Node9</title>
<g id="a_Node000009"><a xlink:href="../../d1/d51/classml_1_1maths_1_1analytics_1_1_c_boosted_tree_node.html#a37bb43ee7b2d80e3fe8c10f429106dfd" target="_top" xlink:title="Get the gain variance for alternative splits.">
<polygon fill="white" stroke="#666666" points="583.5,-128.5 413.75,-128.5 413.75,-98 583.5,-98 583.5,-128.5"/>
<text text-anchor="start" x="421.75" y="-115" font-family="Helvetica,sans-Serif" font-size="10.00">ml::maths::analytics</text>
<text text-anchor="middle" x="498.62" y="-103.75" font-family="Helvetica,sans-Serif" font-size="10.00">::CBoostedTreeNode::gainVariance</text>
</a>
</g>
</g>
<!-- Node6&#45;&gt;Node9 -->
<g id="edge8_Node000006_Node000009" class="edge">
<title>Node6&#45;&gt;Node9</title>
<g id="a_edge8_Node000006_Node000009"><a xlink:title=" ">
<path fill="none" stroke="#63b8ff" d="M362.33,-113.25C375.11,-113.25 388.76,-113.25 402.28,-113.25"/>
<polygon fill="#63b8ff" stroke="#63b8ff" points="402.08,-116.75 412.08,-113.25 402.08,-109.75 402.08,-116.75"/>
</a>
</g>
</g>
<!-- Node10 -->
<g id="Node000010" class="node">
<title>Node10</title>
<g id="a_Node000010"><a xlink:href="../../d1/d51/classml_1_1maths_1_1analytics_1_1_c_boosted_tree_node.html#a995c81ccb79662a20b1bad467ce335fa" target="_top" xlink:title="Get the feature index of the split.">
<polygon fill="white" stroke="#666666" points="581.25,-79.5 416,-79.5 416,-49 581.25,-49 581.25,-79.5"/>
<text text-anchor="start" x="424" y="-66" font-family="Helvetica,sans-Serif" font-size="10.00">ml::maths::analytics</text>
<text text-anchor="middle" x="498.62" y="-54.75" font-family="Helvetica,sans-Serif" font-size="10.00">::CBoostedTreeNode::splitFeature</text>
</a>
</g>
</g>
<!-- Node6&#45;&gt;Node10 -->
<g id="edge10_Node000006_Node000010" class="edge">
<title>Node6&#45;&gt;Node10</title>
<g id="a_edge10_Node000006_Node000010"><a xlink:title=" ">
<path fill="none" stroke="#63b8ff" d="M361.22,-97.54C380.67,-92.8 402.2,-87.54 422.3,-82.64"/>
<polygon fill="#63b8ff" stroke="#63b8ff" points="422.94,-86.08 431.83,-80.31 421.28,-79.28 422.94,-86.08"/>
</a>
</g>
</g>
<!-- Node11 -->
<g id="Node000011" class="node">
<title>Node11</title>
<g id="a_Node000011"><a xlink:href="../../d1/d51/classml_1_1maths_1_1analytics_1_1_c_boosted_tree_node.html#a3b3f0243ca480659bc02c5ed6ce2b855" target="_top" xlink:title="Get the feature value at which to split .">
<polygon fill="white" stroke="#666666" points="576.75,-30.5 420.5,-30.5 420.5,0 576.75,0 576.75,-30.5"/>
<text text-anchor="start" x="428.5" y="-17" font-family="Helvetica,sans-Serif" font-size="10.00">ml::maths::analytics</text>
<text text-anchor="middle" x="498.62" y="-5.75" font-family="Helvetica,sans-Serif" font-size="10.00">::CBoostedTreeNode::splitValue</text>
</a>
</g>
</g>
<!-- Node6&#45;&gt;Node11 -->
<g id="edge11_Node000006_Node000011" class="edge">
<title>Node6&#45;&gt;Node11</title>
<g id="a_edge11_Node000006_Node000011"><a xlink:title=" ">
<path fill="none" stroke="#63b8ff" d="M317.87,-97.7C340.54,-81.5 378.21,-56.29 413.75,-40.25 418.03,-38.32 422.51,-36.48 427.06,-34.76"/>
<polygon fill="#63b8ff" stroke="#63b8ff" points="428.12,-38.1 436.36,-31.43 425.77,-31.5 428.12,-38.1"/>
</a>
</g>
</g>
</g>
</svg>
