<?xml version="1.0" encoding="UTF-8" standalone="no"?>
<!DOCTYPE svg PUBLIC "-//W3C//DTD SVG 1.1//EN"
 "http://www.w3.org/Graphics/SVG/1.1/DTD/svg11.dtd">
<!-- Generated by graphviz version 10.0.1 (20240210.2158)
 -->
<!-- Title: ml::maths::analytics::CTreeShapFeatureImportance::shap Pages: 1 -->
<!--zoomable 503 -->

<svg id="main" version="1.1" xmlns="http://www.w3.org/2000/svg" xmlns:xlink="http://www.w3.org/1999/xlink" xml:space="preserve" onload="init(evt)">
<style type="text/css"><![CDATA[
.node, .edge {opacity: 0.7;}
.node.selected, .edge.selected {opacity: 1;}
.edge:hover path { stroke: red; }
.edge:hover polygon { stroke: red; fill: red; }
]]></style>

<defs>
  <circle id="rim" cx="0" cy="0" r="7"/>
  <circle id="rim2" cx="0" cy="0" r="3.5"/>
  <g id="zoomPlus">
    <use xlink:href="#rim" fill="#404040"><set attributeName="fill" to="#808080" begin="zoomplus.mouseover" end="zoomplus.mouseout"/></use>
    <path d="M-4,0h8M0,-4v8" fill="none" stroke="white" stroke-width="1.5" pointer-events="none"/>
  </g>
  <g id="zoomMin">
    <use xlink:href="#rim" fill="#404040"><set attributeName="fill" to="#808080" begin="zoomminus.mouseover" end="zoomminus.mouseout"/></use>
    <path d="M-4,0h8" fill="none" stroke="white" stroke-width="1.5" pointer-events="none"/>
  </g>
  <g id="arrowUp" transform="translate(30 24)">
    <use xlink:href="#rim"/>
    <path pointer-events="none" fill="none" stroke="white" stroke-width="1.5" d="M0,-3.0v7 M-2.5,-0.5L0,-3.0L2.5,-0.5"/>
  </g>
  <g id="arrowRight" transform="rotate(90) translate(36 -43)">
    <use xlink:href="#rim"/>
    <path pointer-events="none" fill="none" stroke="white" stroke-width="1.5" d="M0,-3.0v7 M-2.5,-0.5L0,-3.0L2.5,-0.5"/>
  </g>
  <g id="arrowDown" transform="rotate(180) translate(-30 -48)">
    <use xlink:href="#rim"/>
    <path pointer-events="none" fill="none" stroke="white" stroke-width="1.5" d="M0,-3.0v7 M-2.5,-0.5L0,-3.0L2.5,-0.5"/>
  </g>
  <g id="arrowLeft" transform="rotate(270) translate(-36 17)">
    <use xlink:href="#rim"/>
    <path pointer-events="none" fill="none" stroke="white" stroke-width="1.5" d="M0,-3.0v7 M-2.5,-0.5L0,-3.0L2.5,-0.5"/>
  </g>
  <g id="resetDef">
    <use xlink:href="#rim2" fill="#404040"><set attributeName="fill" to="#808080" begin="reset.mouseover" end="reset.mouseout"/></use>
  </g>
</defs>
<script type="application/ecmascript">
var viewWidth = 943;
var viewHeight = 503;
var sectionId = 'dynsection-13';
</script>
<script type="application/ecmascript" xlink:href="../../svg.min.js"/>
<svg id="graph" class="graph">
<g id="viewport">
<title>ml::maths::analytics::CTreeShapFeatureImportance::shap</title>
<!-- Node1 -->
<g id="Node000001" class="node">
<title>Node1</title>
<g id="a_Node000001"><a xlink:title=" ">
<polygon fill="#999999" stroke="#666666" points="180.25,-319.5 0,-319.5 0,-289 180.25,-289 180.25,-319.5"/>
<text text-anchor="start" x="8" y="-306" font-family="Helvetica,sans-Serif" font-size="10.00">ml::maths::analytics</text>
<text text-anchor="middle" x="90.12" y="-294.75" font-family="Helvetica,sans-Serif" font-size="10.00">::CTreeShapFeatureImportance::shap</text>
</a>
</g>
</g>
<!-- Node2 -->
<g id="Node000002" class="node">
<title>Node2</title>
<g id="a_Node000002"><a xlink:href="../../d8/d6e/classml_1_1maths_1_1analytics_1_1_c_data_frame_category_encoder.html#ae66e195c5cec9b28a80617541fd9ffff" target="_top" xlink:title="Get a row reference which encodes the categories in row.">
<polygon fill="white" stroke="#666666" points="370.25,-484.12 216.25,-484.12 216.25,-442.38 370.25,-442.38 370.25,-484.12"/>
<text text-anchor="start" x="224.25" y="-470.62" font-family="Helvetica,sans-Serif" font-size="10.00">ml::maths::analytics</text>
<text text-anchor="start" x="224.25" y="-459.38" font-family="Helvetica,sans-Serif" font-size="10.00">::CDataFrameCategoryEncoder</text>
<text text-anchor="middle" x="293.25" y="-448.12" font-family="Helvetica,sans-Serif" font-size="10.00">::encode</text>
</a>
</g>
</g>
<!-- Node1&#45;&gt;Node2 -->
<g id="edge1_Node000001_Node000002" class="edge">
<title>Node1&#45;&gt;Node2</title>
<g id="a_edge1_Node000001_Node000002"><a xlink:title=" ">
<path fill="none" stroke="#63b8ff" d="M102.59,-319.83C122.85,-346.39 167.45,-400.7 216.25,-433.25 217.87,-434.33 219.54,-435.39 221.24,-436.41"/>
<polygon fill="#63b8ff" stroke="#63b8ff" points="219.54,-439.47 229.99,-441.21 222.91,-433.33 219.54,-439.47"/>
</a>
</g>
</g>
<!-- Node3 -->
<g id="Node000003" class="node">
<title>Node3</title>
<g id="a_Node000003"><a xlink:href="../../d8/d6e/classml_1_1maths_1_1analytics_1_1_c_data_frame_category_encoder.html#ac9a84afde055b3d270394a4eaf728442" target="_top" xlink:title=" ">
<polygon fill="white" stroke="#666666" points="370.25,-424.12 216.25,-424.12 216.25,-382.38 370.25,-382.38 370.25,-424.12"/>
<text text-anchor="start" x="224.25" y="-410.62" font-family="Helvetica,sans-Serif" font-size="10.00">ml::maths::analytics</text>
<text text-anchor="start" x="224.25" y="-399.38" font-family="Helvetica,sans-Serif" font-size="10.00">::CDataFrameCategoryEncoder</text>
<text text-anchor="middle" x="293.25" y="-388.12" font-family="Helvetica,sans-Serif" font-size="10.00">::numberInputColumns</text>
</a>
</g>
</g>
<!-- Node1&#45;&gt;Node3 -->
<g id="edge2_Node000001_Node000003" class="edge">
<title>Node1&#45;&gt;Node3</title>
<g id="a_edge2_Node000001_Node000003"><a xlink:title=" ">
<path fill="none" stroke="#63b8ff" d="M122.99,-319.94C154.08,-335.24 201.93,-358.79 238.84,-376.96"/>
<polygon fill="#63b8ff" stroke="#63b8ff" points="237.06,-379.98 247.57,-381.26 240.15,-373.7 237.06,-379.98"/>
</a>
</g>
</g>
<!-- Node6 -->
<g id="Node000006" class="node">
<title>Node6</title>
<g id="a_Node000006"><a xlink:href="../../db/dc5/namespaceml_1_1core.html#a0a2362a18f8564c40c8d85480d6645ca" target="_top" xlink:title=" ">
<polygon fill="white" stroke="#666666" points="337.25,-133.5 249.25,-133.5 249.25,-103 337.25,-103 337.25,-133.5"/>
<text text-anchor="start" x="257.25" y="-120" font-family="Helvetica,sans-Serif" font-size="10.00">ml::core::parallel</text>
<text text-anchor="middle" x="293.25" y="-108.75" font-family="Helvetica,sans-Serif" font-size="10.00">_for_each</text>
</a>
</g>
</g>
<!-- Node1&#45;&gt;Node6 -->
<g id="edge5_Node000001_Node000006" class="edge">
<title>Node1&#45;&gt;Node6</title>
<g id="a_edge5_Node000001_Node000006"><a xlink:title=" ">
<path fill="none" stroke="#63b8ff" d="M107.93,-288.71C143.27,-256.02 225.48,-180 267.12,-141.49"/>
<polygon fill="#63b8ff" stroke="#63b8ff" points="269.28,-144.26 274.24,-134.9 264.53,-139.12 269.28,-144.26"/>
</a>
</g>
</g>
<!-- Node15 -->
<g id="Node000015" class="node">
<title>Node15</title>
<g id="a_Node000015"><a xlink:href="../../d8/de4/classml_1_1maths_1_1analytics_1_1_c_tree_shap_feature_importance.html#ae511194413951c56cfcad20bacc7a108" target="_top" xlink:title=" ">
<polygon fill="white" stroke="#666666" points="369.88,-325.12 216.62,-325.12 216.62,-283.38 369.88,-283.38 369.88,-325.12"/>
<text text-anchor="start" x="224.62" y="-311.62" font-family="Helvetica,sans-Serif" font-size="10.00">ml::maths::analytics</text>
<text text-anchor="start" x="224.62" y="-300.38" font-family="Helvetica,sans-Serif" font-size="10.00">::CTreeShapFeatureImportance</text>
<text text-anchor="middle" x="293.25" y="-289.12" font-family="Helvetica,sans-Serif" font-size="10.00">::shapRecursive</text>
</a>
</g>
</g>
<!-- Node1&#45;&gt;Node15 -->
<g id="edge14_Node000001_Node000015" class="edge">
<title>Node1&#45;&gt;Node15</title>
<g id="a_edge14_Node000001_Node000015"><a xlink:title=" ">
<path fill="none" stroke="#63b8ff" d="M180.51,-297.54C188.64,-297.48 196.87,-297.49 204.98,-297.55"/>
<polygon fill="#63b8ff" stroke="#63b8ff" points="204.79,-301.05 214.83,-297.67 204.87,-294.05 204.79,-301.05"/>
</a>
</g>
</g>
<!-- Node25 -->
<g id="Node000025" class="node">
<title>Node25</title>
<g id="a_Node000025"><a xlink:href="../../db/d5d/namespaceml_1_1maths_1_1common_1_1las.html#ad394918852715da2d44a8775c80c7e87" target="_top" xlink:title="Get the concomitant zero vector.">
<polygon fill="white" stroke="#666666" points="347.75,-57.5 238.75,-57.5 238.75,-27 347.75,-27 347.75,-57.5"/>
<text text-anchor="start" x="246.75" y="-44" font-family="Helvetica,sans-Serif" font-size="10.00">ml::maths::common::</text>
<text text-anchor="middle" x="293.25" y="-32.75" font-family="Helvetica,sans-Serif" font-size="10.00">las::zero</text>
</a>
</g>
</g>
<!-- Node1&#45;&gt;Node25 -->
<g id="edge34_Node000001_Node000025" class="edge">
<title>Node1&#45;&gt;Node25</title>
<g id="a_edge34_Node000001_Node000025"><a xlink:title=" ">
<path fill="none" stroke="#63b8ff" d="M97.64,-288.5C113.59,-251.36 157.56,-156.74 216.25,-94.25 227.06,-82.73 240.85,-72.36 253.71,-63.96"/>
<polygon fill="#63b8ff" stroke="#63b8ff" points="255.41,-67.03 262.01,-58.75 251.68,-61.1 255.41,-67.03"/>
</a>
</g>
</g>
<!-- Node4 -->
<g id="Node000004" class="node">
<title>Node4</title>
<g id="a_Node000004"><a xlink:href="../../d8/d6e/classml_1_1maths_1_1analytics_1_1_c_data_frame_category_encoder.html#a54d4f939dcc443a52d0c9052357a41b2" target="_top" xlink:title="Get the encoded feature at position encodedColumnIndex.">
<polygon fill="white" stroke="#666666" points="561.38,-495.12 407.38,-495.12 407.38,-453.38 561.38,-453.38 561.38,-495.12"/>
<text text-anchor="start" x="415.38" y="-481.62" font-family="Helvetica,sans-Serif" font-size="10.00">ml::maths::analytics</text>
<text text-anchor="start" x="415.38" y="-470.38" font-family="Helvetica,sans-Serif" font-size="10.00">::CDataFrameCategoryEncoder</text>
<text text-anchor="middle" x="484.38" y="-459.12" font-family="Helvetica,sans-Serif" font-size="10.00">::encoding</text>
</a>
</g>
</g>
<!-- Node3&#45;&gt;Node4 -->
<g id="edge3_Node000003_Node000004" class="edge">
<title>Node3&#45;&gt;Node4</title>
<g id="a_edge3_Node000003_Node000004"><a xlink:title=" ">
<path fill="none" stroke="#63b8ff" d="M350.99,-424.55C371.47,-432.24 394.78,-440.99 416.07,-448.98"/>
<polygon fill="#63b8ff" stroke="#63b8ff" points="414.66,-452.19 425.25,-452.43 417.12,-445.64 414.66,-452.19"/>
</a>
</g>
</g>
<!-- Node5 -->
<g id="Node000005" class="node">
<title>Node5</title>
<g id="a_Node000005"><a xlink:href="../../df/dc1/classml_1_1maths_1_1analytics_1_1_c_data_frame_category_encoder_1_1_c_encoding.html#a0b7fd8ffd29cb41e55ca60fdfbef022c" target="_top" xlink:title=" ">
<polygon fill="white" stroke="#666666" points="561.75,-435.12 407,-435.12 407,-393.38 561.75,-393.38 561.75,-435.12"/>
<text text-anchor="start" x="415" y="-421.62" font-family="Helvetica,sans-Serif" font-size="10.00">ml::maths::analytics</text>
<text text-anchor="start" x="415" y="-410.38" font-family="Helvetica,sans-Serif" font-size="10.00">::CDataFrameCategoryEncoder</text>
<text text-anchor="middle" x="484.38" y="-399.12" font-family="Helvetica,sans-Serif" font-size="10.00">::CEncoding::inputColumnIndex</text>
</a>
</g>
</g>
<!-- Node3&#45;&gt;Node5 -->
<g id="edge4_Node000003_Node000005" class="edge">
<title>Node3&#45;&gt;Node5</title>
<g id="a_edge4_Node000003_Node000005"><a xlink:title=" ">
<path fill="none" stroke="#63b8ff" d="M370.63,-407.69C378.81,-408.17 387.17,-408.65 395.46,-409.14"/>
<polygon fill="#63b8ff" stroke="#63b8ff" points="395.01,-412.62 405.2,-409.7 395.42,-405.63 395.01,-412.62"/>
</a>
</g>
</g>
<!-- Node7 -->
<g id="Node000007" class="node">
<title>Node7</title>
<g id="a_Node000007"><a xlink:href="../../d1/d87/namespaceml_1_1core_1_1concurrency__detail.html#aca729744cf1ab3ce2d0f17c4d6e8f3e3" target="_top" xlink:title=" ">
<polygon fill="white" stroke="#666666" points="546.38,-79.5 422.38,-79.5 422.38,-49 546.38,-49 546.38,-79.5"/>
<text text-anchor="start" x="430.38" y="-66" font-family="Helvetica,sans-Serif" font-size="10.00">ml::core::concurrency</text>
<text text-anchor="middle" x="484.38" y="-54.75" font-family="Helvetica,sans-Serif" font-size="10.00">_detail::parallel_for_each</text>
</a>
</g>
</g>
<!-- Node6&#45;&gt;Node7 -->
<g id="edge6_Node000006_Node000007" class="edge">
<title>Node6&#45;&gt;Node7</title>
<g id="a_edge6_Node000006_Node000007"><a xlink:title=" ">
<path fill="none" stroke="#63b8ff" d="M337.64,-105.86C361.31,-99.1 391.11,-90.59 417.59,-83.03"/>
<polygon fill="#63b8ff" stroke="#63b8ff" points="418.2,-86.5 426.86,-80.39 416.28,-79.77 418.2,-86.5"/>
</a>
</g>
</g>
<!-- Node14 -->
<g id="Node000014" class="node">
<title>Node14</title>
<g id="a_Node000014"><a xlink:href="../../df/d10/classml_1_1core_1_1concurrency__detail_1_1_c_default_async_executor_busy_for_scope.html#aa9e8bc64fe6b9fd35860e1be6c34db52" target="_top" xlink:title=" ">
<polygon fill="white" stroke="#666666" points="562.5,-139.12 406.25,-139.12 406.25,-97.38 562.5,-97.38 562.5,-139.12"/>
<text text-anchor="start" x="414.25" y="-125.62" font-family="Helvetica,sans-Serif" font-size="10.00">ml::core::concurrency</text>
<text text-anchor="start" x="414.25" y="-114.38" font-family="Helvetica,sans-Serif" font-size="10.00">_detail::CDefaultAsyncExecutor</text>
<text text-anchor="middle" x="484.38" y="-103.12" font-family="Helvetica,sans-Serif" font-size="10.00">BusyForScope::wasBusy</text>
</a>
</g>
</g>
<!-- Node6&#45;&gt;Node14 -->
<g id="edge13_Node000006_Node000014" class="edge">
<title>Node6&#45;&gt;Node14</title>
<g id="a_edge13_Node000006_Node000014"><a xlink:title=" ">
<path fill="none" stroke="#63b8ff" d="M337.64,-118.25C354.67,-118.25 374.88,-118.25 394.74,-118.25"/>
<polygon fill="#63b8ff" stroke="#63b8ff" points="394.52,-121.75 404.52,-118.25 394.52,-114.75 394.52,-121.75"/>
</a>
</g>
</g>
<!-- Node8 -->
<g id="Node000008" class="node">
<title>Node8</title>
<g id="a_Node000008"><a xlink:href="../../db/dc5/namespaceml_1_1core.html#aefce23c29106b3507fb80ce9ce64a10d" target="_top" xlink:title=" ">
<polygon fill="white" stroke="#666666" points="716.88,-118.88 633.38,-118.88 633.38,-99.62 716.88,-99.62 716.88,-118.88"/>
<text text-anchor="middle" x="675.12" y="-105.38" font-family="Helvetica,sans-Serif" font-size="10.00">ml::core::async</text>
</a>
</g>
</g>
<!-- Node7&#45;&gt;Node8 -->
<g id="edge7_Node000007_Node000008" class="edge">
<title>Node7&#45;&gt;Node8</title>
<g id="a_edge7_Node000007_Node000008"><a xlink:title=" ">
<path fill="none" stroke="#63b8ff" d="M546.66,-78.86C570.99,-84.66 598.67,-91.26 622.02,-96.83"/>
<polygon fill="#63b8ff" stroke="#63b8ff" points="621.08,-100.2 631.62,-99.12 622.7,-93.39 621.08,-100.2"/>
</a>
</g>
</g>
<!-- Node11 -->
<g id="Node000011" class="node">
<title>Node11</title>
<g id="a_Node000011"><a xlink:href="../../db/dc5/namespaceml_1_1core.html#a514736cf5469484b399fb7dd913c754d" target="_top" xlink:title=" ">
<polygon fill="white" stroke="#666666" points="751.75,-73.88 598.5,-73.88 598.5,-54.62 751.75,-54.62 751.75,-73.88"/>
<text text-anchor="middle" x="675.12" y="-60.38" font-family="Helvetica,sans-Serif" font-size="10.00">ml::core::defaultAsyncExecutor</text>
</a>
</g>
</g>
<!-- Node7&#45;&gt;Node11 -->
<g id="edge10_Node000007_Node000011" class="edge">
<title>Node7&#45;&gt;Node11</title>
<g id="a_edge10_Node000007_Node000011"><a xlink:title=" ">
<path fill="none" stroke="#63b8ff" d="M546.66,-64.25C559.52,-64.25 573.33,-64.25 586.94,-64.25"/>
<polygon fill="#63b8ff" stroke="#63b8ff" points="586.78,-67.75 596.78,-64.25 586.78,-60.75 586.78,-67.75"/>
</a>
</g>
</g>
<!-- Node13 -->
<g id="Node000013" class="node">
<title>Node13</title>
<g id="a_Node000013"><a xlink:href="../../db/dc5/namespaceml_1_1core.html#a0d31866d6ef3973344ddfbf398d09fc0" target="_top" xlink:title="Get the conjunction of all futures.">
<polygon fill="white" stroke="#666666" points="737.88,-36.5 612.38,-36.5 612.38,-6 737.88,-6 737.88,-36.5"/>
<text text-anchor="start" x="620.38" y="-23" font-family="Helvetica,sans-Serif" font-size="10.00">ml::core::get_conjunction</text>
<text text-anchor="middle" x="675.12" y="-11.75" font-family="Helvetica,sans-Serif" font-size="10.00">_of_all</text>
</a>
</g>
</g>
<!-- Node7&#45;&gt;Node13 -->
<g id="edge12_Node000007_Node000013" class="edge">
<title>Node7&#45;&gt;Node13</title>
<g id="a_edge12_Node000007_Node000013"><a xlink:title=" ">
<path fill="none" stroke="#63b8ff" d="M546.66,-50.29C564.04,-46.33 583.14,-41.98 601.14,-37.88"/>
<polygon fill="#63b8ff" stroke="#63b8ff" points="601.73,-41.33 610.71,-35.7 600.18,-34.51 601.73,-41.33"/>
</a>
</g>
</g>
<!-- Node9 -->
<g id="Node000009" class="node">
<title>Node9</title>
<g id="a_Node000009"><a xlink:href="../../d1/d87/namespaceml_1_1core_1_1concurrency__detail.html#abed0bdc95d236dd9d9e52120448fd049" target="_top" xlink:title=" ">
<polygon fill="white" stroke="#666666" points="935,-184.12 787.75,-184.12 787.75,-142.38 935,-142.38 935,-184.12"/>
<text text-anchor="start" x="795.75" y="-170.62" font-family="Helvetica,sans-Serif" font-size="10.00">ml::core::concurrency</text>
<text text-anchor="start" x="795.75" y="-159.38" font-family="Helvetica,sans-Serif" font-size="10.00">_detail::invokeAndWriteResult</text>
<text text-anchor="middle" x="861.38" y="-148.12" font-family="Helvetica,sans-Serif" font-size="10.00">ToPromise</text>
</a>
</g>
</g>
<!-- Node8&#45;&gt;Node9 -->
<g id="edge8_Node000008_Node000009" class="edge">
<title>Node8&#45;&gt;Node9</title>
<g id="a_edge8_Node000008_Node000009"><a xlink:title=" ">
<path fill="none" stroke="#63b8ff" d="M710.35,-119.28C729.21,-124.81 753.52,-131.93 777.05,-138.83"/>
<polygon fill="#63b8ff" stroke="#63b8ff" points="775.76,-142.1 786.34,-141.55 777.72,-135.38 775.76,-142.1"/>
</a>
</g>
</g>
<!-- Node10 -->
<g id="Node000010" class="node">
<title>Node10</title>
<g id="a_Node000010"><a xlink:href="../../d5/d40/classml_1_1core_1_1_c_executor.html#a5665713543d485a2b3afa13030ad5a97" target="_top" xlink:title=" ">
<polygon fill="white" stroke="#666666" points="913.25,-124.5 809.5,-124.5 809.5,-94 913.25,-94 913.25,-124.5"/>
<text text-anchor="start" x="817.5" y="-111" font-family="Helvetica,sans-Serif" font-size="10.00">ml::core::CExecutor</text>
<text text-anchor="middle" x="861.38" y="-99.75" font-family="Helvetica,sans-Serif" font-size="10.00">::schedule</text>
</a>
</g>
</g>
<!-- Node8&#45;&gt;Node10 -->
<g id="edge9_Node000008_Node000010" class="edge">
<title>Node8&#45;&gt;Node10</title>
<g id="a_edge9_Node000008_Node000010"><a xlink:title=" ">
<path fill="none" stroke="#63b8ff" d="M717.02,-109.25C740.76,-109.25 771.17,-109.25 797.87,-109.25"/>
<polygon fill="#63b8ff" stroke="#63b8ff" points="797.54,-112.75 807.54,-109.25 797.54,-105.75 797.54,-112.75"/>
</a>
</g>
</g>
<!-- Node12 -->
<g id="Node000012" class="node">
<title>Node12</title>
<g id="a_Node000012"><a xlink:href="../../df/d30/classml_1_1core_1_1anonymous__namespace_02_concurrency_8cc_03_1_1_c_executor_holder.html#afcebfc23de1baba7d76523d8d201f97c" target="_top" xlink:title=" ">
<polygon fill="white" stroke="#666666" points="929.38,-76.12 793.38,-76.12 793.38,-34.38 929.38,-34.38 929.38,-76.12"/>
<text text-anchor="start" x="801.38" y="-62.62" font-family="Helvetica,sans-Serif" font-size="10.00">ml::core::anonymous</text>
<text text-anchor="start" x="801.38" y="-51.38" font-family="Helvetica,sans-Serif" font-size="10.00">_namespace{Concurrency</text>
<text text-anchor="middle" x="861.38" y="-40.12" font-family="Helvetica,sans-Serif" font-size="10.00">::cc}::CExecutorHolder::get</text>
</a>
</g>
</g>
<!-- Node11&#45;&gt;Node12 -->
<g id="edge11_Node000011_Node000012" class="edge">
<title>Node11&#45;&gt;Node12</title>
<g id="a_edge11_Node000011_Node000012"><a xlink:title=" ">
<path fill="none" stroke="#63b8ff" d="M752.13,-60.54C761.89,-60.06 771.9,-59.57 781.7,-59.09"/>
<polygon fill="#63b8ff" stroke="#63b8ff" points="781.76,-62.59 791.58,-58.61 781.42,-55.6 781.76,-62.59"/>
</a>
</g>
</g>
<!-- Node15&#45;&gt;Node1 -->
<g id="edge22_Node000015_Node000001" class="edge">
<title>Node15&#45;&gt;Node1</title>
<g id="a_edge22_Node000015_Node000001"><a xlink:title=" ">
<path fill="none" stroke="#63b8ff" d="M216.35,-310.82C208.3,-310.94 200.03,-311 191.77,-311"/>
<polygon fill="#63b8ff" stroke="#63b8ff" points="192.04,-307.5 182.03,-310.97 192.01,-314.5 192.04,-307.5"/>
</a>
</g>
</g>
<!-- Node15&#45;&gt;Node4 -->
<g id="edge15_Node000015_Node000004" class="edge">
<title>Node15&#45;&gt;Node4</title>
<g id="a_edge15_Node000015_Node000004"><a xlink:title=" ">
<path fill="none" stroke="#63b8ff" d="M322.24,-325.44C337.72,-338.13 356.53,-355.25 370.25,-373.25 391.7,-401.38 380.03,-420.49 406.25,-444.25 407.15,-445.07 408.08,-445.87 409.04,-446.65"/>
<polygon fill="#63b8ff" stroke="#63b8ff" points="406.72,-449.29 416.9,-452.22 410.77,-443.58 406.72,-449.29"/>
</a>
</g>
</g>
<!-- Node15&#45;&gt;Node5 -->
<g id="edge19_Node000015_Node000005" class="edge">
<title>Node15&#45;&gt;Node5</title>
<g id="a_edge19_Node000015_Node000005"><a xlink:title=" ">
<path fill="none" stroke="#63b8ff" d="M320.18,-325.62C342.13,-342.99 374.93,-367.32 406.25,-384.25 408.74,-385.6 411.3,-386.91 413.91,-388.19"/>
<polygon fill="#63b8ff" stroke="#63b8ff" points="412.24,-391.28 422.78,-392.33 415.2,-384.93 412.24,-391.28"/>
</a>
</g>
</g>
<!-- Node15&#45;&gt;Node15 -->
<g id="edge23_Node000015_Node000015" class="edge">
<title>Node15&#45;&gt;Node15</title>
<g id="a_edge23_Node000015_Node000015"><a xlink:title=" ">
<path fill="none" stroke="#63b8ff" d="M257.97,-325.44C254.61,-334.92 266.37,-343.12 293.25,-343.12 308.79,-343.12 319.27,-340.38 324.71,-336.24"/>
<polygon fill="#63b8ff" stroke="#63b8ff" points="327.98,-337.46 328.02,-326.87 321.39,-335.13 327.98,-337.46"/>
</a>
</g>
</g>
<!-- Node16 -->
<g id="Node000016" class="node">
<title>Node16</title>
<g id="a_Node000016"><a xlink:href="../../d8/de4/classml_1_1maths_1_1analytics_1_1_c_tree_shap_feature_importance.html#a8a1436e5b999dbe66bbf1881738aa6de" target="_top" xlink:title="Extend the path object, update the variables and factorial scaling coefficients.">
<polygon fill="white" stroke="#666666" points="561,-375.12 407.75,-375.12 407.75,-333.38 561,-333.38 561,-375.12"/>
<text text-anchor="start" x="415.75" y="-361.62" font-family="Helvetica,sans-Serif" font-size="10.00">ml::maths::analytics</text>
<text text-anchor="start" x="415.75" y="-350.38" font-family="Helvetica,sans-Serif" font-size="10.00">::CTreeShapFeatureImportance</text>
<text text-anchor="middle" x="484.38" y="-339.12" font-family="Helvetica,sans-Serif" font-size="10.00">::extendPath</text>
</a>
</g>
</g>
<!-- Node15&#45;&gt;Node16 -->
<g id="edge16_Node000015_Node000016" class="edge">
<title>Node15&#45;&gt;Node16</title>
<g id="a_edge16_Node000015_Node000016"><a xlink:title=" ">
<path fill="none" stroke="#63b8ff" d="M370.36,-324.37C378.95,-326.64 387.74,-328.97 396.46,-331.27"/>
<polygon fill="#63b8ff" stroke="#63b8ff" points="395.4,-334.61 405.96,-333.78 397.19,-327.84 395.4,-334.61"/>
</a>
</g>
</g>
<!-- Node19 -->
<g id="Node000019" class="node">
<title>Node19</title>
<g id="a_Node000019"><a xlink:href="../../d4/da6/namespaceml.html#ad281564c6956f9a94ad02cfd663d150d" target="_top" xlink:title="Scales time input to generator.">
<polygon fill="white" stroke="#666666" points="512.25,-236.88 456.5,-236.88 456.5,-217.62 512.25,-217.62 512.25,-236.88"/>
<text text-anchor="middle" x="484.38" y="-223.38" font-family="Helvetica,sans-Serif" font-size="10.00">ml::scale</text>
</a>
</g>
</g>
<!-- Node15&#45;&gt;Node19 -->
<g id="edge20_Node000015_Node000019" class="edge">
<title>Node15&#45;&gt;Node19</title>
<g id="a_edge20_Node000015_Node000019"><a xlink:title=" ">
<path fill="none" stroke="#63b8ff" d="M346.68,-282.9C379.06,-269.72 419.71,-253.17 448.24,-241.55"/>
<polygon fill="#63b8ff" stroke="#63b8ff" points="449.19,-244.95 457.14,-237.93 446.55,-238.46 449.19,-244.95"/>
</a>
</g>
</g>
<!-- Node20 -->
<g id="Node000020" class="node">
<title>Node20</title>
<g id="a_Node000020"><a xlink:href="../../d8/de4/classml_1_1maths_1_1analytics_1_1_c_tree_shap_feature_importance.html#a591849b910e5844cca487ab88e5809ba" target="_top" xlink:title="Sum the scaling coefficients for the scalePath without the feature defined in pathIndex.">
<polygon fill="white" stroke="#666666" points="561,-199.12 407.75,-199.12 407.75,-157.38 561,-157.38 561,-199.12"/>
<text text-anchor="start" x="415.75" y="-185.62" font-family="Helvetica,sans-Serif" font-size="10.00">ml::maths::analytics</text>
<text text-anchor="start" x="415.75" y="-174.38" font-family="Helvetica,sans-Serif" font-size="10.00">::CTreeShapFeatureImportance</text>
<text text-anchor="middle" x="484.38" y="-163.12" font-family="Helvetica,sans-Serif" font-size="10.00">::sumUnwoundPath</text>
</a>
</g>
</g>
<!-- Node15&#45;&gt;Node20 -->
<g id="edge24_Node000015_Node000020" class="edge">
<title>Node15&#45;&gt;Node20</title>
<g id="a_edge24_Node000015_Node000020"><a xlink:title=" ">
<path fill="none" stroke="#63b8ff" d="M314.46,-283.16C335.7,-261.95 370.88,-229.44 406.25,-208.25 408.27,-207.04 410.35,-205.86 412.47,-204.71"/>
<polygon fill="#63b8ff" stroke="#63b8ff" points="413.94,-207.89 421.3,-200.27 410.79,-201.64 413.94,-207.89"/>
</a>
</g>
</g>
<!-- Node23 -->
<g id="Node000023" class="node">
<title>Node23</title>
<g id="a_Node000023"><a xlink:href="../../d8/de4/classml_1_1maths_1_1analytics_1_1_c_tree_shap_feature_importance.html#a4c6421e66db5d157a81dd2e0cfe77255" target="_top" xlink:title="Updated the scaling coefficients in the path if the feature defined in pathIndex was seen again.">
<polygon fill="white" stroke="#666666" points="561,-315.12 407.75,-315.12 407.75,-273.38 561,-273.38 561,-315.12"/>
<text text-anchor="start" x="415.75" y="-301.62" font-family="Helvetica,sans-Serif" font-size="10.00">ml::maths::analytics</text>
<text text-anchor="start" x="415.75" y="-290.38" font-family="Helvetica,sans-Serif" font-size="10.00">::CTreeShapFeatureImportance</text>
<text text-anchor="middle" x="484.38" y="-279.12" font-family="Helvetica,sans-Serif" font-size="10.00">::unwindPath</text>
</a>
</g>
</g>
<!-- Node15&#45;&gt;Node23 -->
<g id="edge28_Node000015_Node000023" class="edge">
<title>Node15&#45;&gt;Node23</title>
<g id="a_edge28_Node000015_Node000023"><a xlink:title=" ">
<path fill="none" stroke="#63b8ff" d="M370.36,-300.23C378.85,-299.78 387.55,-299.32 396.17,-298.86"/>
<polygon fill="#63b8ff" stroke="#63b8ff" points="396.11,-302.37 405.91,-298.35 395.74,-295.38 396.11,-302.37"/>
</a>
</g>
</g>
<!-- Node17 -->
<g id="Node000017" class="node">
<title>Node17</title>
<g id="a_Node000017"><a xlink:href="../../d0/d19/classml_1_1maths_1_1analytics_1_1_c_tree_shap_feature_importance_1_1_c_split_path.html#a467556c7fe887225fa28c9defede3626" target="_top" xlink:title=" ">
<polygon fill="white" stroke="#666666" points="751.75,-367.12 598.5,-367.12 598.5,-325.38 751.75,-325.38 751.75,-367.12"/>
<text text-anchor="start" x="606.5" y="-353.62" font-family="Helvetica,sans-Serif" font-size="10.00">ml::maths::analytics</text>
<text text-anchor="start" x="606.5" y="-342.38" font-family="Helvetica,sans-Serif" font-size="10.00">::CTreeShapFeatureImportance</text>
<text text-anchor="middle" x="675.12" y="-331.12" font-family="Helvetica,sans-Serif" font-size="10.00">::CSplitPath::scale</text>
</a>
</g>
</g>
<!-- Node16&#45;&gt;Node17 -->
<g id="edge17_Node000016_Node000017" class="edge">
<title>Node16&#45;&gt;Node17</title>
<g id="a_edge17_Node000016_Node000017"><a xlink:title=" ">
<path fill="none" stroke="#63b8ff" d="M561.33,-351.03C569.64,-350.68 578.15,-350.32 586.59,-349.96"/>
<polygon fill="#63b8ff" stroke="#63b8ff" points="586.66,-353.46 596.51,-349.54 586.37,-346.47 586.66,-353.46"/>
</a>
</g>
</g>
<!-- Node18 -->
<g id="Node000018" class="node">
<title>Node18</title>
<g id="a_Node000018"><a xlink:href="../../d0/d19/classml_1_1maths_1_1analytics_1_1_c_tree_shap_feature_importance_1_1_c_split_path.html#aa538cffef3979a4bf2407125fb102830" target="_top" xlink:title=" ">
<polygon fill="white" stroke="#666666" points="751.75,-427.12 598.5,-427.12 598.5,-385.38 751.75,-385.38 751.75,-427.12"/>
<text text-anchor="start" x="606.5" y="-413.62" font-family="Helvetica,sans-Serif" font-size="10.00">ml::maths::analytics</text>
<text text-anchor="start" x="606.5" y="-402.38" font-family="Helvetica,sans-Serif" font-size="10.00">::CTreeShapFeatureImportance</text>
<text text-anchor="middle" x="675.12" y="-391.12" font-family="Helvetica,sans-Serif" font-size="10.00">::CSplitPath::setValues</text>
</a>
</g>
</g>
<!-- Node16&#45;&gt;Node18 -->
<g id="edge18_Node000016_Node000018" class="edge">
<title>Node16&#45;&gt;Node18</title>
<g id="a_edge18_Node000016_Node000018"><a xlink:title=" ">
<path fill="none" stroke="#63b8ff" d="M561.33,-375.18C569.83,-377.52 578.54,-379.92 587.16,-382.29"/>
<polygon fill="#63b8ff" stroke="#63b8ff" points="585.99,-385.6 596.56,-384.88 587.85,-378.85 585.99,-385.6"/>
</a>
</g>
</g>
<!-- Node19&#45;&gt;Node19 -->
<g id="edge21_Node000019_Node000019" class="edge">
<title>Node19&#45;&gt;Node19</title>
<g id="a_edge21_Node000019_Node000019"><a xlink:title=" ">
<path fill="none" stroke="#63b8ff" d="M456.21,-236.16C440.15,-245.05 449.54,-254.88 484.38,-254.88 508.32,-254.88 520.25,-250.23 520.14,-244.44"/>
<polygon fill="#63b8ff" stroke="#63b8ff" points="522.91,-242.28 513.57,-237.28 517.75,-247.01 522.91,-242.28"/>
</a>
</g>
</g>
<!-- Node20&#45;&gt;Node17 -->
<g id="edge27_Node000020_Node000017" class="edge">
<title>Node20&#45;&gt;Node17</title>
<g id="a_edge27_Node000020_Node000017"><a xlink:title=" ">
<path fill="none" stroke="#63b8ff" d="M552.26,-199.56C555.97,-202.14 559.43,-205.02 562.5,-208.25 597.39,-244.9 563.74,-279.49 598.5,-316.25 599.08,-316.87 599.68,-317.47 600.29,-318.06"/>
<polygon fill="#63b8ff" stroke="#63b8ff" points="597.75,-320.51 607.71,-324.12 602.18,-315.09 597.75,-320.51"/>
</a>
</g>
</g>
<!-- Node21 -->
<g id="Node000021" class="node">
<title>Node21</title>
<g id="a_Node000021"><a xlink:href="../../d0/d19/classml_1_1maths_1_1analytics_1_1_c_tree_shap_feature_importance_1_1_c_split_path.html#af89ba12ee19a5a9cfd952badd42251aa" target="_top" xlink:title=" ">
<polygon fill="white" stroke="#666666" points="751.75,-247.12 598.5,-247.12 598.5,-205.38 751.75,-205.38 751.75,-247.12"/>
<text text-anchor="start" x="606.5" y="-233.62" font-family="Helvetica,sans-Serif" font-size="10.00">ml::maths::analytics</text>
<text text-anchor="start" x="606.5" y="-222.38" font-family="Helvetica,sans-Serif" font-size="10.00">::CTreeShapFeatureImportance</text>
<text text-anchor="middle" x="675.12" y="-211.12" font-family="Helvetica,sans-Serif" font-size="10.00">::CSplitPath::fractionOnes</text>
</a>
</g>
</g>
<!-- Node20&#45;&gt;Node21 -->
<g id="edge25_Node000020_Node000021" class="edge">
<title>Node20&#45;&gt;Node21</title>
<g id="a_edge25_Node000020_Node000021"><a xlink:title=" ">
<path fill="none" stroke="#63b8ff" d="M561.33,-197.57C569.74,-199.7 578.34,-201.89 586.87,-204.06"/>
<polygon fill="#63b8ff" stroke="#63b8ff" points="586,-207.45 596.55,-206.52 587.72,-200.67 586,-207.45"/>
</a>
</g>
</g>
<!-- Node22 -->
<g id="Node000022" class="node">
<title>Node22</title>
<g id="a_Node000022"><a xlink:href="../../d0/d19/classml_1_1maths_1_1analytics_1_1_c_tree_shap_feature_importance_1_1_c_split_path.html#afca45519b3f1c1d86924149c54d25ae0" target="_top" xlink:title=" ">
<polygon fill="white" stroke="#666666" points="751.75,-187.12 598.5,-187.12 598.5,-145.38 751.75,-145.38 751.75,-187.12"/>
<text text-anchor="start" x="606.5" y="-173.62" font-family="Helvetica,sans-Serif" font-size="10.00">ml::maths::analytics</text>
<text text-anchor="start" x="606.5" y="-162.38" font-family="Helvetica,sans-Serif" font-size="10.00">::CTreeShapFeatureImportance</text>
<text text-anchor="middle" x="675.12" y="-151.12" font-family="Helvetica,sans-Serif" font-size="10.00">::CSplitPath::fractionZeros</text>
</a>
</g>
</g>
<!-- Node20&#45;&gt;Node22 -->
<g id="edge26_Node000020_Node000022" class="edge">
<title>Node20&#45;&gt;Node22</title>
<g id="a_edge26_Node000020_Node000022"><a xlink:title=" ">
<path fill="none" stroke="#63b8ff" d="M561.33,-173.42C569.64,-172.89 578.15,-172.35 586.59,-171.82"/>
<polygon fill="#63b8ff" stroke="#63b8ff" points="586.75,-175.31 596.51,-171.18 586.3,-168.33 586.75,-175.31"/>
</a>
</g>
</g>
<!-- Node23&#45;&gt;Node17 -->
<g id="edge32_Node000023_Node000017" class="edge">
<title>Node23&#45;&gt;Node17</title>
<g id="a_edge32_Node000023_Node000017"><a xlink:title=" ">
<path fill="none" stroke="#63b8ff" d="M561.33,-315.18C569.83,-317.52 578.54,-319.92 587.16,-322.29"/>
<polygon fill="#63b8ff" stroke="#63b8ff" points="585.99,-325.6 596.56,-324.88 587.85,-318.85 585.99,-325.6"/>
</a>
</g>
</g>
<!-- Node23&#45;&gt;Node18 -->
<g id="edge33_Node000023_Node000018" class="edge">
<title>Node23&#45;&gt;Node18</title>
<g id="a_edge33_Node000023_Node000018"><a xlink:title=" ">
<path fill="none" stroke="#63b8ff" d="M549.36,-315.54C554,-318.15 558.44,-321.05 562.5,-324.25 584.57,-341.66 576.49,-358.76 598.5,-376.25 599.78,-377.27 601.1,-378.25 602.45,-379.21"/>
<polygon fill="#63b8ff" stroke="#63b8ff" points="600.16,-381.9 610.49,-384.28 603.9,-375.98 600.16,-381.9"/>
</a>
</g>
</g>
<!-- Node23&#45;&gt;Node21 -->
<g id="edge30_Node000023_Node000021" class="edge">
<title>Node23&#45;&gt;Node21</title>
<g id="a_edge30_Node000023_Node000021"><a xlink:title=" ">
<path fill="none" stroke="#63b8ff" d="M544.58,-272.92C563.46,-266.12 584.54,-258.53 604.11,-251.47"/>
<polygon fill="#63b8ff" stroke="#63b8ff" points="605.16,-254.82 613.38,-248.13 602.79,-248.23 605.16,-254.82"/>
</a>
</g>
</g>
<!-- Node23&#45;&gt;Node22 -->
<g id="edge31_Node000023_Node000022" class="edge">
<title>Node23&#45;&gt;Node22</title>
<g id="a_edge31_Node000023_Node000022"><a xlink:title=" ">
<path fill="none" stroke="#63b8ff" d="M550.55,-273.02C554.81,-270.41 558.85,-267.5 562.5,-264.25 588.04,-241.51 573.04,-219.07 598.5,-196.25 599.28,-195.55 600.08,-194.86 600.9,-194.19"/>
<polygon fill="#63b8ff" stroke="#63b8ff" points="602.86,-197.09 608.98,-188.45 598.8,-191.39 602.86,-197.09"/>
</a>
</g>
</g>
<!-- Node24 -->
<g id="Node000024" class="node">
<title>Node24</title>
<g id="a_Node000024"><a xlink:href="../../d0/d19/classml_1_1maths_1_1analytics_1_1_c_tree_shap_feature_importance_1_1_c_split_path.html#a19d86792728a080d8dba432535d19f08" target="_top" xlink:title=" ">
<polygon fill="white" stroke="#666666" points="751.75,-307.12 598.5,-307.12 598.5,-265.38 751.75,-265.38 751.75,-307.12"/>
<text text-anchor="start" x="606.5" y="-293.62" font-family="Helvetica,sans-Serif" font-size="10.00">ml::maths::analytics</text>
<text text-anchor="start" x="606.5" y="-282.38" font-family="Helvetica,sans-Serif" font-size="10.00">::CTreeShapFeatureImportance</text>
<text text-anchor="middle" x="675.12" y="-271.12" font-family="Helvetica,sans-Serif" font-size="10.00">::CSplitPath::featureIndex</text>
</a>
</g>
</g>
<!-- Node23&#45;&gt;Node24 -->
<g id="edge29_Node000023_Node000024" class="edge">
<title>Node23&#45;&gt;Node24</title>
<g id="a_edge29_Node000023_Node000024"><a xlink:title=" ">
<path fill="none" stroke="#63b8ff" d="M561.33,-291.03C569.64,-290.68 578.15,-290.32 586.59,-289.96"/>
<polygon fill="#63b8ff" stroke="#63b8ff" points="586.66,-293.46 596.51,-289.54 586.37,-286.47 586.66,-293.46"/>
</a>
</g>
</g>
<!-- Node26 -->
<g id="Node000026" class="node">
<title>Node26</title>
<g id="a_Node000026"><a xlink:href="../../db/d5d/namespaceml_1_1maths_1_1common_1_1las.html#a92aae861f23cd3021cc276aeb9dbf89d" target="_top" xlink:title="Get the dimension of one of our internal vectors.">
<polygon fill="white" stroke="#666666" points="538.88,-30.5 429.88,-30.5 429.88,0 538.88,0 538.88,-30.5"/>
<text text-anchor="start" x="437.88" y="-17" font-family="Helvetica,sans-Serif" font-size="10.00">ml::maths::common::</text>
<text text-anchor="middle" x="484.38" y="-5.75" font-family="Helvetica,sans-Serif" font-size="10.00">las::dimension</text>
</a>
</g>
</g>
<!-- Node25&#45;&gt;Node26 -->
<g id="edge35_Node000025_Node000026" class="edge">
<title>Node25&#45;&gt;Node26</title>
<g id="a_edge35_Node000025_Node000026"><a xlink:title=" ">
<path fill="none" stroke="#63b8ff" d="M348.19,-34.55C370.05,-31.43 395.48,-27.8 418.35,-24.53"/>
<polygon fill="#63b8ff" stroke="#63b8ff" points="418.78,-28.01 428.19,-23.13 417.8,-21.08 418.78,-28.01"/>
</a>
</g>
</g>
</g>
</svg>

<g id="navigator" transform="translate(0 0)" fill="#404254">
  <rect fill="#f2f5e9" fill-opacity="0.5" stroke="#606060" stroke-width=".5" x="0" y="0" width="60" height="60"/>
  <use id="zoomplus" xlink:href="#zoomPlus" x="17" y="9" onmousedown="handleZoom(evt,'in')"/>
  <use id="zoomminus" xlink:href="#zoomMin" x="42" y="9" onmousedown="handleZoom(evt,'out')"/>
  <use id="reset" xlink:href="#resetDef" x="30" y="36" onmousedown="handleReset()"/>
   <use id="arrowup" xlink:href="#arrowUp" x="0" y="0" onmousedown="handlePan(0,-1)"/>
  <use id="arrowright" xlink:href="#arrowRight" x="0" y="0" onmousedown="handlePan(1,0)"/>
  <use id="arrowdown" xlink:href="#arrowDown" x="0" y="0" onmousedown="handlePan(0,1)"/>
  <use id="arrowleft" xlink:href="#arrowLeft" x="0" y="0" onmousedown="handlePan(-1,0)"/>
</g>
<svg viewBox="0 0 15 15" width="100%" height="30px" preserveAspectRatio="xMaxYMin meet">
 <g id="arrow_out" transform="scale(0.3 0.3)">
  <a xlink:href="classml_1_1maths_1_1analytics_1_1_c_tree_shap_feature_importance_a1eb5da143c11ded3e38c1660dd1f906b_cgraph_org.svg" target="_base">
   <rect id="button" ry="5" rx="5" y="6" x="6" height="38" width="38"
        fill="#f2f5e9" fill-opacity="0.5" stroke="#606060" stroke-width="1.0"/>
   <path id="arrow"
     d="M 11.500037,31.436501 C 11.940474,20.09759 22.043105,11.32322 32.158766,21.979434 L 37.068811,17.246167 C 37.068811,17.246167 37.088388,32 37.088388,32 L 22.160133,31.978069 C 22.160133,31.978069 26.997745,27.140456 26.997745,27.140456 C 18.528582,18.264221 13.291696,25.230495 11.500037,31.436501 z"
     style="fill:#404040;"/>
  </a>
 </g>
</svg>

<style type='text/css'>
<![CDATA[
[data-mouse-over-selected='false'] { opacity: 0.7; }
[data-mouse-over-selected='true']  { opacity: 1.0; }
]]>
</style>
<script type="application/ecmascript"><![CDATA[
document.addEventListener('DOMContentLoaded', (event) => {
  highlightEdges();
  highlightAdjacentNodes();
});
]]></script>
</svg>
