<?xml version="1.0" encoding="UTF-8" standalone="no"?>
<!DOCTYPE svg PUBLIC "-//W3C//DTD SVG 1.1//EN"
 "http://www.w3.org/Graphics/SVG/1.1/DTD/svg11.dtd">
<!-- Generated by graphviz version 10.0.1 (20240210.2158)
 -->
<!-- Title: ml::maths::common::CMultimodalPrior::CModeSplitCallback::operator() Pages: 1 -->
<svg width="496pt" height="245pt"
 viewBox="0.00 0.00 496.25 244.50" xmlns="http://www.w3.org/2000/svg" xmlns:xlink="http://www.w3.org/1999/xlink">
<g id="graph0" class="graph" transform="scale(1 1) rotate(0) translate(4 240.5)">
<title>ml::maths::common::CMultimodalPrior::CModeSplitCallback::operator()</title>
<!-- Node1 -->
<g id="Node000001" class="node">
<title>Node1</title>
<g id="a_Node000001"><a xlink:title=" ">
<polygon fill="#999999" stroke="#666666" points="148,-134.12 0,-134.12 0,-92.38 148,-92.38 148,-134.12"/>
<text text-anchor="start" x="8" y="-120.62" font-family="Helvetica,sans-Serif" font-size="10.00">ml::maths::common::</text>
<text text-anchor="start" x="8" y="-109.38" font-family="Helvetica,sans-Serif" font-size="10.00">CMultimodalPrior::CModeSplit</text>
<text text-anchor="middle" x="74" y="-98.12" font-family="Helvetica,sans-Serif" font-size="10.00">Callback::operator()</text>
</a>
</g>
</g>
<!-- Node2 -->
<g id="Node000002" class="node">
<title>Node2</title>
<g id="a_Node000002"><a xlink:href="../../d6/d52/namespaceml_1_1maths__t.html#ae77f71115a9c46136580ec0072ccc53c" target="_top" xlink:title="Get a weights array with count weight weight.">
<polygon fill="white" stroke="#666666" points="314.38,-194.88 186.62,-194.88 186.62,-175.62 314.38,-175.62 314.38,-194.88"/>
<text text-anchor="middle" x="250.5" y="-181.38" font-family="Helvetica,sans-Serif" font-size="10.00">ml::maths_t::countWeight</text>
</a>
</g>
</g>
<!-- Node1&#45;&gt;Node2 -->
<g id="edge1_Node000001_Node000002" class="edge">
<title>Node1&#45;&gt;Node2</title>
<g id="a_edge1_Node000001_Node000002"><a xlink:title=" ">
<path fill="none" stroke="#63b8ff" d="M126.41,-134.46C154.79,-146.17 189.28,-160.4 214.53,-170.82"/>
<polygon fill="#63b8ff" stroke="#63b8ff" points="213.1,-174.02 223.68,-174.6 215.77,-167.55 213.1,-174.02"/>
</a>
</g>
</g>
<!-- Node4 -->
<g id="Node000004" class="node">
<title>Node4</title>
<g id="a_Node000004"><a xlink:href="../../d6/dd5/namespaceml_1_1maths_1_1common.html#aa139fb07823365e51bd2f01178d7a61a" target="_top" xlink:title="Compute the mode for distribution.">
<polygon fill="white" stroke="#666666" points="317,-122.88 184,-122.88 184,-103.62 317,-103.62 317,-122.88"/>
<text text-anchor="middle" x="250.5" y="-109.38" font-family="Helvetica,sans-Serif" font-size="10.00">ml::maths::common::mode</text>
</a>
</g>
</g>
<!-- Node1&#45;&gt;Node4 -->
<g id="edge3_Node000001_Node000004" class="edge">
<title>Node1&#45;&gt;Node4</title>
<g id="a_edge3_Node000001_Node000004"><a xlink:title=" ">
<path fill="none" stroke="#63b8ff" d="M148.5,-113.25C156.32,-113.25 164.29,-113.25 172.16,-113.25"/>
<polygon fill="#63b8ff" stroke="#63b8ff" points="172.06,-116.75 182.06,-113.25 172.06,-109.75 172.06,-116.75"/>
</a>
</g>
</g>
<!-- Node9 -->
<g id="Node000009" class="node">
<title>Node9</title>
<g id="a_Node000009"><a xlink:href="../../d6/d99/classml_1_1maths_1_1common_1_1_c_prior.html#a0df265355cd8ccdeeea29ed14037d89d" target="_top" xlink:title="Get the number of samples received to date.">
<polygon fill="white" stroke="#666666" points="310.62,-85.5 190.38,-85.5 190.38,-55 310.62,-55 310.62,-85.5"/>
<text text-anchor="start" x="198.38" y="-72" font-family="Helvetica,sans-Serif" font-size="10.00">ml::maths::common::</text>
<text text-anchor="middle" x="250.5" y="-60.75" font-family="Helvetica,sans-Serif" font-size="10.00">CPrior::numberSamples</text>
</a>
</g>
</g>
<!-- Node1&#45;&gt;Node9 -->
<g id="edge8_Node000001_Node000009" class="edge">
<title>Node1&#45;&gt;Node9</title>
<g id="a_edge8_Node000001_Node000009"><a xlink:title=" ">
<path fill="none" stroke="#63b8ff" d="M148.5,-95.14C158.58,-92.65 168.92,-90.11 178.95,-87.64"/>
<polygon fill="#63b8ff" stroke="#63b8ff" points="179.77,-91.04 188.64,-85.25 178.09,-84.24 179.77,-91.04"/>
</a>
</g>
</g>
<!-- Node3 -->
<g id="Node000003" class="node">
<title>Node3</title>
<g id="a_Node000003"><a xlink:href="../../d4/d0a/classml_1_1maths__t_1_1_c_unit_weights.html#ab810619bd835e01fc3f4e1fbd1706487" target="_top" xlink:title="Get a conformable unit weight for weight.">
<polygon fill="white" stroke="#666666" points="487.88,-236.5 353.38,-236.5 353.38,-206 487.88,-206 487.88,-236.5"/>
<text text-anchor="start" x="361.38" y="-223" font-family="Helvetica,sans-Serif" font-size="10.00">ml::maths_t::CUnitWeights</text>
<text text-anchor="middle" x="420.62" y="-211.75" font-family="Helvetica,sans-Serif" font-size="10.00">::unit</text>
</a>
</g>
</g>
<!-- Node2&#45;&gt;Node3 -->
<g id="edge2_Node000002_Node000003" class="edge">
<title>Node2&#45;&gt;Node3</title>
<g id="a_edge2_Node000002_Node000003"><a xlink:title=" ">
<path fill="none" stroke="#63b8ff" d="M298.78,-195.37C312.17,-198.24 327.11,-201.44 341.79,-204.58"/>
<polygon fill="#63b8ff" stroke="#63b8ff" points="340.95,-207.98 351.46,-206.66 342.42,-201.14 340.95,-207.98"/>
</a>
</g>
</g>
<!-- Node5 -->
<g id="Node000005" class="node">
<title>Node5</title>
<g id="a_Node000005"><a xlink:href="../../d0/d1c/classml_1_1maths_1_1common_1_1_c_log_t_distribution.html#a128ce0a627956e7931be0358fe995d2d" target="_top" xlink:title=" ">
<polygon fill="white" stroke="#666666" points="488.25,-188.12 353,-188.12 353,-146.38 488.25,-146.38 488.25,-188.12"/>
<text text-anchor="start" x="361" y="-174.62" font-family="Helvetica,sans-Serif" font-size="10.00">ml::maths::common::</text>
<text text-anchor="start" x="361" y="-163.38" font-family="Helvetica,sans-Serif" font-size="10.00">CLogTDistribution::degrees</text>
<text text-anchor="middle" x="420.62" y="-152.12" font-family="Helvetica,sans-Serif" font-size="10.00">Freedom</text>
</a>
</g>
</g>
<!-- Node4&#45;&gt;Node5 -->
<g id="edge4_Node000004_Node000005" class="edge">
<title>Node4&#45;&gt;Node5</title>
<g id="a_edge4_Node000004_Node000005"><a xlink:title=" ">
<path fill="none" stroke="#63b8ff" d="M282.73,-123.28C299.63,-128.71 321.32,-135.68 342.43,-142.46"/>
<polygon fill="#63b8ff" stroke="#63b8ff" points="341.36,-145.79 351.95,-145.51 343.5,-139.12 341.36,-145.79"/>
</a>
</g>
</g>
<!-- Node6 -->
<g id="Node000006" class="node">
<title>Node6</title>
<g id="a_Node000006"><a xlink:href="../../d0/d1c/classml_1_1maths_1_1common_1_1_c_log_t_distribution.html#a4267908e2f6c547fd21f75a77f6bee78" target="_top" xlink:title=" ">
<polygon fill="white" stroke="#666666" points="487.88,-128.5 353.38,-128.5 353.38,-98 487.88,-98 487.88,-128.5"/>
<text text-anchor="start" x="361.38" y="-115" font-family="Helvetica,sans-Serif" font-size="10.00">ml::maths::common::</text>
<text text-anchor="middle" x="420.62" y="-103.75" font-family="Helvetica,sans-Serif" font-size="10.00">CLogTDistribution::location</text>
</a>
</g>
</g>
<!-- Node4&#45;&gt;Node6 -->
<g id="edge5_Node000004_Node000006" class="edge">
<title>Node4&#45;&gt;Node6</title>
<g id="a_edge5_Node000004_Node000006"><a xlink:title=" ">
<path fill="none" stroke="#63b8ff" d="M317.46,-113.25C325.41,-113.25 333.57,-113.25 341.66,-113.25"/>
<polygon fill="#63b8ff" stroke="#63b8ff" points="341.51,-116.75 351.51,-113.25 341.51,-109.75 341.51,-116.75"/>
</a>
</g>
</g>
<!-- Node7 -->
<g id="Node000007" class="node">
<title>Node7</title>
<g id="a_Node000007"><a xlink:href="../../dd/d55/classml_1_1maths_1_1common_1_1_c_tools.html#aa0600053da91719428498ec9968916c3" target="_top" xlink:title="Compute .">
<polygon fill="white" stroke="#666666" points="475.12,-79.5 366.12,-79.5 366.12,-49 475.12,-49 475.12,-79.5"/>
<text text-anchor="start" x="374.12" y="-66" font-family="Helvetica,sans-Serif" font-size="10.00">ml::maths::common::</text>
<text text-anchor="middle" x="420.62" y="-54.75" font-family="Helvetica,sans-Serif" font-size="10.00">CTools::pow2</text>
</a>
</g>
</g>
<!-- Node4&#45;&gt;Node7 -->
<g id="edge6_Node000004_Node000007" class="edge">
<title>Node4&#45;&gt;Node7</title>
<g id="a_edge6_Node000004_Node000007"><a xlink:title=" ">
<path fill="none" stroke="#63b8ff" d="M286.18,-103.21C296.13,-100.32 307,-97.16 317,-94.25 329.27,-90.68 342.36,-86.86 354.94,-83.18"/>
<polygon fill="#63b8ff" stroke="#63b8ff" points="355.77,-86.59 364.38,-80.42 353.8,-79.87 355.77,-86.59"/>
</a>
</g>
</g>
<!-- Node8 -->
<g id="Node000008" class="node">
<title>Node8</title>
<g id="a_Node000008"><a xlink:href="../../d0/d1c/classml_1_1maths_1_1common_1_1_c_log_t_distribution.html#a8f03f27080a2f59d3da535b4b4f228ef" target="_top" xlink:title=" ">
<polygon fill="white" stroke="#666666" points="482.62,-30.5 358.62,-30.5 358.62,0 482.62,0 482.62,-30.5"/>
<text text-anchor="start" x="366.62" y="-17" font-family="Helvetica,sans-Serif" font-size="10.00">ml::maths::common::</text>
<text text-anchor="middle" x="420.62" y="-5.75" font-family="Helvetica,sans-Serif" font-size="10.00">CLogTDistribution::scale</text>
</a>
</g>
</g>
<!-- Node4&#45;&gt;Node8 -->
<g id="edge7_Node000004_Node000008" class="edge">
<title>Node4&#45;&gt;Node8</title>
<g id="a_edge7_Node000004_Node000008"><a xlink:title=" ">
<path fill="none" stroke="#63b8ff" d="M300.53,-103.22C306.38,-100.84 312.03,-97.89 317,-94.25 340.26,-77.2 330.41,-58.18 353,-40.25 354.53,-39.04 356.13,-37.88 357.77,-36.77"/>
<polygon fill="#63b8ff" stroke="#63b8ff" points="359.49,-39.82 366.36,-31.75 355.96,-33.77 359.49,-39.82"/>
</a>
</g>
</g>
</g>
</svg>
