<?xml version="1.0" encoding="UTF-8" standalone="no"?>
<!DOCTYPE svg PUBLIC "-//W3C//DTD SVG 1.1//EN"
 "http://www.w3.org/Graphics/SVG/1.1/DTD/svg11.dtd">
<!-- Generated by graphviz version 10.0.1 (20240210.2158)
 -->
<!-- Title: include/model/CRuleScope.h Pages: 1 -->
<svg width="1554pt" height="315pt"
 viewBox="0.00 0.00 1553.50 314.75" xmlns="http://www.w3.org/2000/svg" xmlns:xlink="http://www.w3.org/1999/xlink">
<g id="graph0" class="graph" transform="scale(1 1) rotate(0) translate(4 310.75)">
<title>include/model/CRuleScope.h</title>
<!-- Node1 -->
<g id="Node000001" class="node">
<title>Node1</title>
<g id="a_Node000001"><a xlink:title=" ">
<polygon fill="#999999" stroke="#666666" points="348.25,-306.75 205.5,-306.75 205.5,-287.5 348.25,-287.5 348.25,-306.75"/>
<text text-anchor="middle" x="276.88" y="-293.25" font-family="Helvetica,sans-Serif" font-size="10.00">include/model/CRuleScope.h</text>
</a>
</g>
</g>
<!-- Node2 -->
<g id="Node000002" class="node">
<title>Node2</title>
<g id="a_Node000002"><a xlink:href="../../de/d8d/model_2_import_export_8h.html" target="_top" xlink:title=" ">
<polygon fill="white" stroke="#666666" points="109.75,-251.5 0,-251.5 0,-232.25 109.75,-232.25 109.75,-251.5"/>
<text text-anchor="middle" x="54.88" y="-238" font-family="Helvetica,sans-Serif" font-size="10.00">model/ImportExport.h</text>
</a>
</g>
</g>
<!-- Node1&#45;&gt;Node2 -->
<g id="edge1_Node000001_Node000002" class="edge">
<title>Node1&#45;&gt;Node2</title>
<g id="a_edge1_Node000001_Node000002"><a xlink:title=" ">
<path fill="none" stroke="#63b8ff" d="M238.96,-287.03C201.61,-278.07 144.37,-264.34 103.65,-254.57"/>
<polygon fill="#63b8ff" stroke="#63b8ff" points="104.64,-251.21 94.1,-252.28 103.01,-258.02 104.64,-251.21"/>
</a>
</g>
</g>
<!-- Node3 -->
<g id="Node000003" class="node">
<title>Node3</title>
<g id="a_Node000003"><a xlink:href="../../d8/d1e/_c_pattern_set_8h.html" target="_top" xlink:title=" ">
<polygon fill="white" stroke="#666666" points="326.88,-135.38 226.88,-135.38 226.88,-116.12 326.88,-116.12 326.88,-135.38"/>
<text text-anchor="middle" x="276.88" y="-121.88" font-family="Helvetica,sans-Serif" font-size="10.00">core/CPatternSet.h</text>
</a>
</g>
</g>
<!-- Node1&#45;&gt;Node3 -->
<g id="edge2_Node000001_Node000003" class="edge">
<title>Node1&#45;&gt;Node3</title>
<g id="a_edge2_Node000001_Node000003"><a xlink:title=" ">
<path fill="none" stroke="#63b8ff" d="M276.88,-287.02C276.88,-260.59 276.88,-183.41 276.88,-146.66"/>
<polygon fill="#63b8ff" stroke="#63b8ff" points="280.38,-147.01 276.88,-137.01 273.38,-147.01 280.38,-147.01"/>
</a>
</g>
</g>
<!-- Node7 -->
<g id="Node000007" class="node">
<title>Node7</title>
<g id="a_Node000007"><a xlink:title=" ">
<polygon fill="#e0e0e0" stroke="#999999" points="494.88,-19.25 454.88,-19.25 454.88,0 494.88,0 494.88,-19.25"/>
<text text-anchor="middle" x="474.88" y="-5.75" font-family="Helvetica,sans-Serif" font-size="10.00">string</text>
</a>
</g>
</g>
<!-- Node1&#45;&gt;Node7 -->
<g id="edge39_Node000001_Node000007" class="edge">
<title>Node1&#45;&gt;Node7</title>
<g id="a_edge39_Node000001_Node000007"><a xlink:title=" ">
<path fill="none" stroke="#63b8ff" d="M280.15,-287.35C290.78,-259.56 326.4,-171.7 373.88,-110.5 388.53,-91.6 396.71,-91.16 413.88,-74.5 429.79,-59.05 447.19,-40.67 459.32,-27.6"/>
<polygon fill="#63b8ff" stroke="#63b8ff" points="461.56,-30.34 465.76,-20.62 456.41,-25.59 461.56,-30.34"/>
</a>
</g>
</g>
<!-- Node8 -->
<g id="Node000008" class="node">
<title>Node8</title>
<g id="a_Node000008"><a xlink:title=" ">
<polygon fill="#e0e0e0" stroke="#999999" points="216.38,-19.25 173.38,-19.25 173.38,0 216.38,0 216.38,-19.25"/>
<text text-anchor="middle" x="194.88" y="-5.75" font-family="Helvetica,sans-Serif" font-size="10.00">vector</text>
</a>
</g>
</g>
<!-- Node1&#45;&gt;Node8 -->
<g id="edge40_Node000001_Node000008" class="edge">
<title>Node1&#45;&gt;Node8</title>
<g id="a_edge40_Node000001_Node000008"><a xlink:title=" ">
<path fill="none" stroke="#63b8ff" d="M245.68,-287.1C204.7,-273.11 137.88,-241.96 137.88,-187.62 137.88,-187.62 137.88,-187.62 137.88,-124.75 137.88,-87.47 162.52,-49.87 179.4,-28.49"/>
<polygon fill="#63b8ff" stroke="#63b8ff" points="182.09,-30.73 185.75,-20.79 176.69,-26.28 182.09,-30.73"/>
</a>
</g>
</g>
<!-- Node9 -->
<g id="Node000009" class="node">
<title>Node9</title>
<g id="a_Node000009"><a xlink:href="../../d5/dbf/_c_triple_8h.html" target="_top" xlink:title=" ">
<polygon fill="white" stroke="#666666" points="945.62,-251.5 868.12,-251.5 868.12,-232.25 945.62,-232.25 945.62,-251.5"/>
<text text-anchor="middle" x="906.88" y="-238" font-family="Helvetica,sans-Serif" font-size="10.00">core/CTriple.h</text>
</a>
</g>
</g>
<!-- Node1&#45;&gt;Node9 -->
<g id="edge11_Node000001_Node000009" class="edge">
<title>Node1&#45;&gt;Node9</title>
<g id="a_edge11_Node000001_Node000009"><a xlink:title=" ">
<path fill="none" stroke="#63b8ff" d="M348.53,-290.07C477.33,-279.18 744.91,-256.57 856.4,-247.14"/>
<polygon fill="#63b8ff" stroke="#63b8ff" points="856.46,-250.65 866.13,-246.32 855.87,-243.67 856.46,-250.65"/>
</a>
</g>
</g>
<!-- Node4 -->
<g id="Node000004" class="node">
<title>Node4</title>
<g id="a_Node000004"><a xlink:href="../../de/df5/_c_flat_prefix_tree_8h.html" target="_top" xlink:title=" ">
<polygon fill="white" stroke="#666666" points="357.38,-74.5 242.38,-74.5 242.38,-55.25 357.38,-55.25 357.38,-74.5"/>
<text text-anchor="middle" x="299.88" y="-61" font-family="Helvetica,sans-Serif" font-size="10.00">core/CFlatPrefixTree.h</text>
</a>
</g>
</g>
<!-- Node3&#45;&gt;Node4 -->
<g id="edge3_Node000003_Node000004" class="edge">
<title>Node3&#45;&gt;Node4</title>
<g id="a_edge3_Node000003_Node000004"><a xlink:title=" ">
<path fill="none" stroke="#63b8ff" d="M280.37,-115.81C283.51,-107.77 288.23,-95.68 292.24,-85.41"/>
<polygon fill="#63b8ff" stroke="#63b8ff" points="295.42,-86.9 295.8,-76.31 288.9,-84.35 295.42,-86.9"/>
</a>
</g>
</g>
<!-- Node5 -->
<g id="Node000005" class="node">
<title>Node5</title>
<g id="a_Node000005"><a xlink:href="../../dd/d0e/core_2_import_export_8h.html" target="_top" xlink:title=" ">
<polygon fill="white" stroke="#666666" points="437,-19.25 334.75,-19.25 334.75,0 437,0 437,-19.25"/>
<text text-anchor="middle" x="385.88" y="-5.75" font-family="Helvetica,sans-Serif" font-size="10.00">core/ImportExport.h</text>
</a>
</g>
</g>
<!-- Node3&#45;&gt;Node5 -->
<g id="edge8_Node000003_Node000005" class="edge">
<title>Node3&#45;&gt;Node5</title>
<g id="a_edge8_Node000003_Node000005"><a xlink:title=" ">
<path fill="none" stroke="#63b8ff" d="M303.85,-115.72C323.65,-107.78 349.81,-94.37 365.88,-74.5 376.06,-61.91 381.08,-44.1 383.54,-30.49"/>
<polygon fill="#63b8ff" stroke="#63b8ff" points="386.96,-31.33 384.94,-20.93 380.03,-30.31 386.96,-31.33"/>
</a>
</g>
</g>
<!-- Node3&#45;&gt;Node7 -->
<g id="edge9_Node000003_Node000007" class="edge">
<title>Node3&#45;&gt;Node7</title>
<g id="a_edge9_Node000003_Node000007"><a xlink:title=" ">
<path fill="none" stroke="#63b8ff" d="M299.63,-115.75C322.13,-106.52 357.24,-91.17 385.88,-74.5 410.84,-59.97 437.51,-40.2 455.07,-26.52"/>
<polygon fill="#63b8ff" stroke="#63b8ff" points="456.95,-29.49 462.63,-20.55 452.61,-24 456.95,-29.49"/>
</a>
</g>
</g>
<!-- Node3&#45;&gt;Node8 -->
<g id="edge10_Node000003_Node000008" class="edge">
<title>Node3&#45;&gt;Node8</title>
<g id="a_edge10_Node000003_Node000008"><a xlink:title=" ">
<path fill="none" stroke="#63b8ff" d="M268.24,-115.91C258.96,-106.18 244.05,-89.89 232.88,-74.5 222.44,-60.12 212.24,-42.74 205.04,-29.74"/>
<polygon fill="#63b8ff" stroke="#63b8ff" points="208.12,-28.08 200.27,-20.95 201.97,-31.41 208.12,-28.08"/>
</a>
</g>
</g>
<!-- Node4&#45;&gt;Node5 -->
<g id="edge4_Node000004_Node000005" class="edge">
<title>Node4&#45;&gt;Node5</title>
<g id="a_edge4_Node000004_Node000005"><a xlink:title=" ">
<path fill="none" stroke="#63b8ff" d="M314.46,-54.84C327.31,-46.89 346.29,-35.14 361.45,-25.75"/>
<polygon fill="#63b8ff" stroke="#63b8ff" points="363.27,-28.74 369.93,-20.5 359.58,-22.79 363.27,-28.74"/>
</a>
</g>
</g>
<!-- Node6 -->
<g id="Node000006" class="node">
<title>Node6</title>
<g id="a_Node000006"><a xlink:title=" ">
<polygon fill="#e0e0e0" stroke="#999999" points="316.5,-19.25 271.25,-19.25 271.25,0 316.5,0 316.5,-19.25"/>
<text text-anchor="middle" x="293.88" y="-5.75" font-family="Helvetica,sans-Serif" font-size="10.00">cstdint</text>
</a>
</g>
</g>
<!-- Node4&#45;&gt;Node6 -->
<g id="edge5_Node000004_Node000006" class="edge">
<title>Node4&#45;&gt;Node6</title>
<g id="a_edge5_Node000004_Node000006"><a xlink:title=" ">
<path fill="none" stroke="#63b8ff" d="M298.88,-55.08C298.14,-48.49 297.1,-39.21 296.15,-30.82"/>
<polygon fill="#63b8ff" stroke="#63b8ff" points="299.65,-30.66 295.06,-21.11 292.7,-31.44 299.65,-30.66"/>
</a>
</g>
</g>
<!-- Node4&#45;&gt;Node7 -->
<g id="edge6_Node000004_Node000007" class="edge">
<title>Node4&#45;&gt;Node7</title>
<g id="a_edge6_Node000004_Node000007"><a xlink:title=" ">
<path fill="none" stroke="#63b8ff" d="M329.56,-54.84C361.4,-45.15 411.73,-29.84 444.01,-20.02"/>
<polygon fill="#63b8ff" stroke="#63b8ff" points="444.62,-23.49 453.17,-17.23 442.59,-16.79 444.62,-23.49"/>
</a>
</g>
</g>
<!-- Node4&#45;&gt;Node8 -->
<g id="edge7_Node000004_Node000008" class="edge">
<title>Node4&#45;&gt;Node8</title>
<g id="a_edge7_Node000004_Node000008"><a xlink:title=" ">
<path fill="none" stroke="#63b8ff" d="M282.06,-54.84C265.85,-46.62 241.64,-34.34 222.84,-24.81"/>
<polygon fill="#63b8ff" stroke="#63b8ff" points="224.63,-21.79 214.12,-20.39 221.46,-28.03 224.63,-21.79"/>
</a>
</g>
</g>
<!-- Node10 -->
<g id="Node000010" class="node">
<title>Node10</title>
<g id="a_Node000010"><a xlink:href="../../d7/d42/_c_memory_dec_8h.html" target="_top" xlink:title=" ">
<polygon fill="white" stroke="#666666" points="1028.25,-196.25 921.5,-196.25 921.5,-177 1028.25,-177 1028.25,-196.25"/>
<text text-anchor="middle" x="974.88" y="-182.75" font-family="Helvetica,sans-Serif" font-size="10.00">core/CMemoryDec.h</text>
</a>
</g>
</g>
<!-- Node9&#45;&gt;Node10 -->
<g id="edge12_Node000009_Node000010" class="edge">
<title>Node9&#45;&gt;Node10</title>
<g id="a_edge12_Node000009_Node000010"><a xlink:title=" ">
<path fill="none" stroke="#63b8ff" d="M918.41,-231.84C928.34,-224.07 942.89,-212.67 954.73,-203.4"/>
<polygon fill="#63b8ff" stroke="#63b8ff" points="956.6,-206.38 962.32,-197.46 952.29,-200.87 956.6,-206.38"/>
</a>
</g>
</g>
<!-- Node14 -->
<g id="Node000014" class="node">
<title>Node14</title>
<g id="a_Node000014"><a xlink:title=" ">
<polygon fill="#e0e0e0" stroke="#999999" points="1545.5,-19.25 1494.25,-19.25 1494.25,0 1545.5,0 1545.5,-19.25"/>
<text text-anchor="middle" x="1519.88" y="-5.75" font-family="Helvetica,sans-Serif" font-size="10.00">ostream</text>
</a>
</g>
</g>
<!-- Node9&#45;&gt;Node14 -->
<g id="edge38_Node000009_Node000014" class="edge">
<title>Node9&#45;&gt;Node14</title>
<g id="a_edge38_Node000009_Node000014"><a xlink:title=" ">
<path fill="none" stroke="#63b8ff" d="M945.86,-240.07C1067.35,-236.75 1435.97,-220.2 1518.88,-141 1548.52,-112.68 1536.72,-59.17 1527.28,-30.29"/>
<polygon fill="#63b8ff" stroke="#63b8ff" points="1530.63,-29.27 1524.01,-21 1524.02,-31.59 1530.63,-29.27"/>
</a>
</g>
</g>
<!-- Node25 -->
<g id="Node000025" class="node">
<title>Node25</title>
<g id="a_Node000025"><a xlink:title=" ">
<polygon fill="#e0e0e0" stroke="#999999" points="431,-135.38 382.75,-135.38 382.75,-116.12 431,-116.12 431,-135.38"/>
<text text-anchor="middle" x="406.88" y="-121.88" font-family="Helvetica,sans-Serif" font-size="10.00">cstddef</text>
</a>
</g>
</g>
<!-- Node9&#45;&gt;Node25 -->
<g id="edge37_Node000009_Node000025" class="edge">
<title>Node9&#45;&gt;Node25</title>
<g id="a_edge37_Node000009_Node000025"><a xlink:title=" ">
<path fill="none" stroke="#63b8ff" d="M867.76,-235.18C786.67,-222.8 594.87,-190.51 439.88,-141 438.89,-140.68 437.89,-140.35 436.88,-140"/>
<polygon fill="#63b8ff" stroke="#63b8ff" points="438.18,-136.75 427.59,-136.39 435.64,-143.27 438.18,-136.75"/>
</a>
</g>
</g>
<!-- Node26 -->
<g id="Node000026" class="node">
<title>Node26</title>
<g id="a_Node000026"><a xlink:title=" ">
<polygon fill="#e0e0e0" stroke="#999999" points="903.75,-196.25 776,-196.25 776,-177 903.75,-177 903.75,-196.25"/>
<text text-anchor="middle" x="839.88" y="-182.75" font-family="Helvetica,sans-Serif" font-size="10.00">boost/functional/hash.hpp</text>
</a>
</g>
</g>
<!-- Node9&#45;&gt;Node26 -->
<g id="edge35_Node000009_Node000026" class="edge">
<title>Node9&#45;&gt;Node26</title>
<g id="a_edge35_Node000009_Node000026"><a xlink:title=" ">
<path fill="none" stroke="#63b8ff" d="M895.51,-231.84C885.83,-224.15 871.68,-212.9 860.07,-203.68"/>
<polygon fill="#63b8ff" stroke="#63b8ff" points="862.26,-200.95 852.26,-197.47 857.91,-206.43 862.26,-200.95"/>
</a>
</g>
</g>
<!-- Node27 -->
<g id="Node000027" class="node">
<title>Node27</title>
<g id="a_Node000027"><a xlink:title=" ">
<polygon fill="#e0e0e0" stroke="#999999" points="1149,-196.25 1046.75,-196.25 1046.75,-177 1149,-177 1149,-196.25"/>
<text text-anchor="middle" x="1097.88" y="-182.75" font-family="Helvetica,sans-Serif" font-size="10.00">boost/operators.hpp</text>
</a>
</g>
</g>
<!-- Node9&#45;&gt;Node27 -->
<g id="edge36_Node000009_Node000027" class="edge">
<title>Node9&#45;&gt;Node27</title>
<g id="a_edge36_Node000009_Node000027"><a xlink:title=" ">
<path fill="none" stroke="#63b8ff" d="M939.28,-231.84C970.97,-223.01 1019.44,-209.49 1054.46,-199.73"/>
<polygon fill="#63b8ff" stroke="#63b8ff" points="1055.16,-203.17 1063.86,-197.11 1053.28,-196.42 1055.16,-203.17"/>
</a>
</g>
</g>
<!-- Node10&#45;&gt;Node7 -->
<g id="edge32_Node000010_Node000007" class="edge">
<title>Node10&#45;&gt;Node7</title>
<g id="a_edge32_Node000010_Node000007"><a xlink:title=" ">
<path fill="none" stroke="#63b8ff" d="M958.07,-176.52C942.59,-167.92 919.17,-154.39 899.88,-141 882.08,-128.66 881.24,-120.2 861.88,-110.5 738.97,-48.93 574.53,-22.84 506.44,-14.19"/>
<polygon fill="#63b8ff" stroke="#63b8ff" points="507.11,-10.75 496.75,-13 506.25,-17.69 507.11,-10.75"/>
</a>
</g>
</g>
<!-- Node10&#45;&gt;Node8 -->
<g id="edge34_Node000010_Node000008" class="edge">
<title>Node10&#45;&gt;Node8</title>
<g id="a_edge34_Node000010_Node000008"><a xlink:title=" ">
<path fill="none" stroke="#63b8ff" d="M921.14,-177.86C918.35,-177.55 915.58,-177.26 912.88,-177 835.9,-169.67 275.81,-192.22 217.88,-141 186.83,-113.55 188.11,-60.09 191.58,-30.87"/>
<polygon fill="#63b8ff" stroke="#63b8ff" points="195.01,-31.55 192.95,-21.16 188.08,-30.57 195.01,-31.55"/>
</a>
</g>
</g>
<!-- Node11 -->
<g id="Node000011" class="node">
<title>Node11</title>
<g id="a_Node000011"><a xlink:href="../../db/d45/_c_memory_fwd_8h.html" target="_top" xlink:title=" ">
<polygon fill="white" stroke="#666666" points="1460.62,-135.38 1353.12,-135.38 1353.12,-116.12 1460.62,-116.12 1460.62,-135.38"/>
<text text-anchor="middle" x="1406.88" y="-121.88" font-family="Helvetica,sans-Serif" font-size="10.00">core/CMemoryFwd.h</text>
</a>
</g>
</g>
<!-- Node10&#45;&gt;Node11 -->
<g id="edge13_Node000010_Node000011" class="edge">
<title>Node10&#45;&gt;Node11</title>
<g id="a_edge13_Node000010_Node000011"><a xlink:title=" ">
<path fill="none" stroke="#63b8ff" d="M1028.48,-178.22C1031.66,-177.8 1034.81,-177.39 1037.88,-177 1171.51,-159.86 1205.93,-162.84 1338.88,-141 1344.18,-140.13 1349.69,-139.13 1355.18,-138.07"/>
<polygon fill="#63b8ff" stroke="#63b8ff" points="1355.74,-141.53 1364.87,-136.14 1354.38,-134.67 1355.74,-141.53"/>
</a>
</g>
</g>
<!-- Node13 -->
<g id="Node000013" class="node">
<title>Node13</title>
<g id="a_Node000013"><a xlink:title=" ">
<polygon fill="#e0e0e0" stroke="#999999" points="1374.5,-19.25 1323.25,-19.25 1323.25,0 1374.5,0 1374.5,-19.25"/>
<text text-anchor="middle" x="1348.88" y="-5.75" font-family="Helvetica,sans-Serif" font-size="10.00">memory</text>
</a>
</g>
</g>
<!-- Node10&#45;&gt;Node13 -->
<g id="edge31_Node000010_Node000013" class="edge">
<title>Node10&#45;&gt;Node13</title>
<g id="a_edge31_Node000010_Node000013"><a xlink:title=" ">
<path fill="none" stroke="#63b8ff" d="M1028.47,-178.08C1031.65,-177.7 1034.8,-177.33 1037.88,-177 1087.96,-171.58 1449.83,-171.57 1489.88,-141 1521.33,-116.99 1537.93,-86.68 1513.88,-55.25 1498.43,-35.07 1429.78,-21.91 1386.04,-15.42"/>
<polygon fill="#63b8ff" stroke="#63b8ff" points="1386.59,-11.96 1376.2,-14.02 1385.6,-18.89 1386.59,-11.96"/>
</a>
</g>
</g>
<!-- Node15 -->
<g id="Node000015" class="node">
<title>Node15</title>
<g id="a_Node000015"><a xlink:title=" ">
<polygon fill="#e0e0e0" stroke="#999999" points="1220.88,-74.5 1162.88,-74.5 1162.88,-55.25 1220.88,-55.25 1220.88,-74.5"/>
<text text-anchor="middle" x="1191.88" y="-61" font-family="Helvetica,sans-Serif" font-size="10.00">functional</text>
</a>
</g>
</g>
<!-- Node10&#45;&gt;Node15 -->
<g id="edge30_Node000010_Node000015" class="edge">
<title>Node10&#45;&gt;Node15</title>
<g id="a_edge30_Node000010_Node000015"><a xlink:title=" ">
<path fill="none" stroke="#63b8ff" d="M1028.49,-178.28C1031.67,-177.84 1034.81,-177.42 1037.88,-177 1097.42,-168.92 1266.31,-186.23 1305.88,-141 1314.8,-130.8 1313.52,-121.7 1305.88,-110.5 1297.11,-97.66 1261.13,-84.92 1231.9,-76.36"/>
<polygon fill="#63b8ff" stroke="#63b8ff" points="1233.13,-73.07 1222.56,-73.71 1231.22,-79.8 1233.13,-73.07"/>
</a>
</g>
</g>
<!-- Node17 -->
<g id="Node000017" class="node">
<title>Node17</title>
<g id="a_Node000017"><a xlink:title=" ">
<polygon fill="#e0e0e0" stroke="#999999" points="1504.75,-74.5 1443,-74.5 1443,-55.25 1504.75,-55.25 1504.75,-74.5"/>
<text text-anchor="middle" x="1473.88" y="-61" font-family="Helvetica,sans-Serif" font-size="10.00">type_traits</text>
</a>
</g>
</g>
<!-- Node10&#45;&gt;Node17 -->
<g id="edge33_Node000010_Node000017" class="edge">
<title>Node10&#45;&gt;Node17</title>
<g id="a_edge33_Node000010_Node000017"><a xlink:title=" ">
<path fill="none" stroke="#63b8ff" d="M1028.47,-178.09C1031.65,-177.71 1034.8,-177.34 1037.88,-177 1085.75,-171.73 1436.33,-175.56 1469.88,-141 1483.71,-126.75 1482.52,-102.91 1479.27,-85.91"/>
<polygon fill="#63b8ff" stroke="#63b8ff" points="1482.75,-85.4 1477.07,-76.45 1475.93,-86.99 1482.75,-85.4"/>
</a>
</g>
</g>
<!-- Node18 -->
<g id="Node000018" class="node">
<title>Node18</title>
<g id="a_Node000018"><a xlink:title=" ">
<polygon fill="#e0e0e0" stroke="#999999" points="553.12,-141 448.62,-141 448.62,-110.5 553.12,-110.5 553.12,-141"/>
<text text-anchor="start" x="456.62" y="-127.5" font-family="Helvetica,sans-Serif" font-size="10.00">boost/circular_buffer</text>
<text text-anchor="middle" x="500.88" y="-116.25" font-family="Helvetica,sans-Serif" font-size="10.00">_fwd.hpp</text>
</a>
</g>
</g>
<!-- Node10&#45;&gt;Node18 -->
<g id="edge22_Node000010_Node000018" class="edge">
<title>Node10&#45;&gt;Node18</title>
<g id="a_edge22_Node000010_Node000018"><a xlink:title=" ">
<path fill="none" stroke="#63b8ff" d="M921.12,-178.03C918.33,-177.67 915.57,-177.33 912.88,-177 760.84,-158.63 718.51,-166.5 564.64,-141.33"/>
<polygon fill="#63b8ff" stroke="#63b8ff" points="565.29,-137.89 554.86,-139.71 564.15,-144.8 565.29,-137.89"/>
</a>
</g>
</g>
<!-- Node19 -->
<g id="Node000019" class="node">
<title>Node19</title>
<g id="a_Node000019"><a xlink:title=" ">
<polygon fill="#e0e0e0" stroke="#999999" points="696.62,-141 571.12,-141 571.12,-110.5 696.62,-110.5 696.62,-141"/>
<text text-anchor="start" x="579.12" y="-127.5" font-family="Helvetica,sans-Serif" font-size="10.00">boost/container/container</text>
<text text-anchor="middle" x="633.88" y="-116.25" font-family="Helvetica,sans-Serif" font-size="10.00">_fwd.hpp</text>
</a>
</g>
</g>
<!-- Node10&#45;&gt;Node19 -->
<g id="edge23_Node000010_Node000019" class="edge">
<title>Node10&#45;&gt;Node19</title>
<g id="a_edge23_Node000010_Node000019"><a xlink:title=" ">
<path fill="none" stroke="#63b8ff" d="M921.2,-177.22C869.29,-168.98 788.1,-155.8 708.32,-141.41"/>
<polygon fill="#63b8ff" stroke="#63b8ff" points="709.02,-137.98 698.56,-139.64 707.77,-144.87 709.02,-137.98"/>
</a>
</g>
</g>
<!-- Node20 -->
<g id="Node000020" class="node">
<title>Node20</title>
<g id="a_Node000020"><a xlink:title=" ">
<polygon fill="#e0e0e0" stroke="#999999" points="852.62,-141 715.12,-141 715.12,-110.5 852.62,-110.5 852.62,-141"/>
<text text-anchor="start" x="723.12" y="-127.5" font-family="Helvetica,sans-Serif" font-size="10.00">boost/multi_index_container</text>
<text text-anchor="middle" x="783.88" y="-116.25" font-family="Helvetica,sans-Serif" font-size="10.00">_fwd.hpp</text>
</a>
</g>
</g>
<!-- Node10&#45;&gt;Node20 -->
<g id="edge24_Node000010_Node000020" class="edge">
<title>Node10&#45;&gt;Node20</title>
<g id="a_edge24_Node000010_Node000020"><a xlink:title=" ">
<path fill="none" stroke="#63b8ff" d="M945.45,-176.55C918.07,-168.11 876.47,-155.29 842.34,-144.77"/>
<polygon fill="#63b8ff" stroke="#63b8ff" points="843.58,-141.49 832.99,-141.89 841.52,-148.18 843.58,-141.49"/>
</a>
</g>
</g>
<!-- Node21 -->
<g id="Node000021" class="node">
<title>Node21</title>
<g id="a_Node000021"><a xlink:title=" ">
<polygon fill="#e0e0e0" stroke="#999999" points="1040.62,-141 909.12,-141 909.12,-110.5 1040.62,-110.5 1040.62,-141"/>
<text text-anchor="start" x="917.12" y="-127.5" font-family="Helvetica,sans-Serif" font-size="10.00">boost/unordered/unordered</text>
<text text-anchor="middle" x="974.88" y="-116.25" font-family="Helvetica,sans-Serif" font-size="10.00">_map_fwd.hpp</text>
</a>
</g>
</g>
<!-- Node10&#45;&gt;Node21 -->
<g id="edge25_Node000010_Node000021" class="edge">
<title>Node10&#45;&gt;Node21</title>
<g id="a_edge25_Node000010_Node000021"><a xlink:title=" ">
<path fill="none" stroke="#63b8ff" d="M974.88,-176.68C974.88,-170.23 974.88,-161.16 974.88,-152.51"/>
<polygon fill="#63b8ff" stroke="#63b8ff" points="978.38,-152.8 974.88,-142.8 971.38,-152.8 978.38,-152.8"/>
</a>
</g>
</g>
<!-- Node22 -->
<g id="Node000022" class="node">
<title>Node22</title>
<g id="a_Node000022"><a xlink:title=" ">
<polygon fill="#e0e0e0" stroke="#999999" points="1190.62,-141 1059.12,-141 1059.12,-110.5 1190.62,-110.5 1190.62,-141"/>
<text text-anchor="start" x="1067.12" y="-127.5" font-family="Helvetica,sans-Serif" font-size="10.00">boost/unordered/unordered</text>
<text text-anchor="middle" x="1124.88" y="-116.25" font-family="Helvetica,sans-Serif" font-size="10.00">_set_fwd.hpp</text>
</a>
</g>
</g>
<!-- Node10&#45;&gt;Node22 -->
<g id="edge26_Node000010_Node000022" class="edge">
<title>Node10&#45;&gt;Node22</title>
<g id="a_edge26_Node000010_Node000022"><a xlink:title=" ">
<path fill="none" stroke="#63b8ff" d="M997.98,-176.55C1018.93,-168.33 1050.47,-155.95 1076.86,-145.6"/>
<polygon fill="#63b8ff" stroke="#63b8ff" points="1078,-148.91 1086.03,-142 1075.44,-142.39 1078,-148.91"/>
</a>
</g>
</g>
<!-- Node23 -->
<g id="Node000023" class="node">
<title>Node23</title>
<g id="a_Node000023"><a xlink:title=" ">
<polygon fill="#e0e0e0" stroke="#999999" points="1240.75,-135.38 1209,-135.38 1209,-116.12 1240.75,-116.12 1240.75,-135.38"/>
<text text-anchor="middle" x="1224.88" y="-121.88" font-family="Helvetica,sans-Serif" font-size="10.00">any</text>
</a>
</g>
</g>
<!-- Node10&#45;&gt;Node23 -->
<g id="edge27_Node000010_Node000023" class="edge">
<title>Node10&#45;&gt;Node23</title>
<g id="a_edge27_Node000010_Node000023"><a xlink:title=" ">
<path fill="none" stroke="#63b8ff" d="M1028.54,-177.03C1084.78,-167.65 1169.14,-152.46 1199.88,-141 1200.1,-140.91 1200.33,-140.83 1200.56,-140.74"/>
<polygon fill="#63b8ff" stroke="#63b8ff" points="1201.85,-144 1209.35,-136.52 1198.82,-137.69 1201.85,-144"/>
</a>
</g>
</g>
<!-- Node24 -->
<g id="Node000024" class="node">
<title>Node24</title>
<g id="a_Node000024"><a xlink:title=" ">
<polygon fill="#e0e0e0" stroke="#999999" points="1296.75,-135.38 1259,-135.38 1259,-116.12 1296.75,-116.12 1296.75,-135.38"/>
<text text-anchor="middle" x="1277.88" y="-121.88" font-family="Helvetica,sans-Serif" font-size="10.00">array</text>
</a>
</g>
</g>
<!-- Node10&#45;&gt;Node24 -->
<g id="edge28_Node000010_Node000024" class="edge">
<title>Node10&#45;&gt;Node24</title>
<g id="a_edge28_Node000010_Node000024"><a xlink:title=" ">
<path fill="none" stroke="#63b8ff" d="M1028.65,-177.81C1102.7,-166.92 1229.27,-147.73 1249.88,-141 1250.52,-140.79 1251.17,-140.56 1251.83,-140.33"/>
<polygon fill="#63b8ff" stroke="#63b8ff" points="1253.1,-143.59 1260.86,-136.38 1250.3,-137.18 1253.1,-143.59"/>
</a>
</g>
</g>
<!-- Node10&#45;&gt;Node25 -->
<g id="edge29_Node000010_Node000025" class="edge">
<title>Node10&#45;&gt;Node25</title>
<g id="a_edge29_Node000010_Node000025"><a xlink:title=" ">
<path fill="none" stroke="#63b8ff" d="M921.13,-177.94C918.34,-177.61 915.58,-177.29 912.88,-177 703.25,-154.46 644.57,-191.48 439.88,-141 438.48,-140.66 437.06,-140.26 435.65,-139.82"/>
<polygon fill="#63b8ff" stroke="#63b8ff" points="437.01,-136.59 426.42,-136.38 434.57,-143.15 437.01,-136.59"/>
</a>
</g>
</g>
<!-- Node12 -->
<g id="Node000012" class="node">
<title>Node12</title>
<g id="a_Node000012"><a xlink:href="../../dd/d19/_c_memory_usage_8h.html" target="_top" xlink:title=" ">
<polygon fill="white" stroke="#666666" points="1356.5,-74.5 1239.25,-74.5 1239.25,-55.25 1356.5,-55.25 1356.5,-74.5"/>
<text text-anchor="middle" x="1297.88" y="-61" font-family="Helvetica,sans-Serif" font-size="10.00">core/CMemoryUsage.h</text>
</a>
</g>
</g>
<!-- Node11&#45;&gt;Node12 -->
<g id="edge14_Node000011_Node000012" class="edge">
<title>Node11&#45;&gt;Node12</title>
<g id="a_edge14_Node000011_Node000012"><a xlink:title=" ">
<path fill="none" stroke="#63b8ff" d="M1390.32,-115.81C1372.87,-106.38 1345.13,-91.4 1324.58,-80.3"/>
<polygon fill="#63b8ff" stroke="#63b8ff" points="1326.38,-77.29 1315.92,-75.62 1323.05,-83.45 1326.38,-77.29"/>
</a>
</g>
</g>
<!-- Node11&#45;&gt;Node15 -->
<g id="edge19_Node000011_Node000015" class="edge">
<title>Node11&#45;&gt;Node15</title>
<g id="a_edge19_Node000011_Node000015"><a xlink:title=" ">
<path fill="none" stroke="#63b8ff" d="M1373.75,-115.68C1335.64,-105.24 1273.06,-88.11 1232.16,-76.91"/>
<polygon fill="#63b8ff" stroke="#63b8ff" points="1233.26,-73.58 1222.69,-74.31 1231.41,-80.33 1233.26,-73.58"/>
</a>
</g>
</g>
<!-- Node16 -->
<g id="Node000016" class="node">
<title>Node16</title>
<g id="a_Node000016"><a xlink:title=" ">
<polygon fill="#e0e0e0" stroke="#999999" points="1424.75,-74.5 1375,-74.5 1375,-55.25 1424.75,-55.25 1424.75,-74.5"/>
<text text-anchor="middle" x="1399.88" y="-61" font-family="Helvetica,sans-Serif" font-size="10.00">optional</text>
</a>
</g>
</g>
<!-- Node11&#45;&gt;Node16 -->
<g id="edge20_Node000011_Node000016" class="edge">
<title>Node11&#45;&gt;Node16</title>
<g id="a_edge20_Node000011_Node000016"><a xlink:title=" ">
<path fill="none" stroke="#63b8ff" d="M1405.81,-115.81C1404.88,-107.94 1403.48,-96.2 1402.28,-86.07"/>
<polygon fill="#63b8ff" stroke="#63b8ff" points="1405.78,-85.92 1401.13,-76.4 1398.83,-86.75 1405.78,-85.92"/>
</a>
</g>
</g>
<!-- Node11&#45;&gt;Node17 -->
<g id="edge21_Node000011_Node000017" class="edge">
<title>Node11&#45;&gt;Node17</title>
<g id="a_edge21_Node000011_Node000017"><a xlink:title=" ">
<path fill="none" stroke="#63b8ff" d="M1417.05,-115.81C1427.09,-106.99 1442.66,-93.3 1454.97,-82.48"/>
<polygon fill="#63b8ff" stroke="#63b8ff" points="1457.26,-85.13 1462.47,-75.9 1452.64,-79.87 1457.26,-85.13"/>
</a>
</g>
</g>
<!-- Node12&#45;&gt;Node5 -->
<g id="edge15_Node000012_Node000005" class="edge">
<title>Node12&#45;&gt;Node5</title>
<g id="a_edge15_Node000012_Node000005"><a xlink:title=" ">
<path fill="none" stroke="#63b8ff" d="M1238.93,-56.11C1235.87,-55.79 1232.84,-55.51 1229.88,-55.25 886.09,-25.6 795.08,-51.53 448.6,-19.41"/>
<polygon fill="#63b8ff" stroke="#63b8ff" points="449.01,-15.93 438.73,-18.48 448.36,-22.9 449.01,-15.93"/>
</a>
</g>
</g>
<!-- Node12&#45;&gt;Node7 -->
<g id="edge18_Node000012_Node000007" class="edge">
<title>Node12&#45;&gt;Node7</title>
<g id="a_edge18_Node000012_Node000007"><a xlink:title=" ">
<path fill="none" stroke="#63b8ff" d="M1238.93,-56.15C1235.87,-55.83 1232.84,-55.53 1229.88,-55.25 950.05,-29.26 610.4,-15.54 506.54,-11.73"/>
<polygon fill="#63b8ff" stroke="#63b8ff" points="506.97,-8.25 496.85,-11.38 506.71,-15.24 506.97,-8.25"/>
</a>
</g>
</g>
<!-- Node12&#45;&gt;Node13 -->
<g id="edge16_Node000012_Node000013" class="edge">
<title>Node12&#45;&gt;Node13</title>
<g id="a_edge16_Node000012_Node000013"><a xlink:title=" ">
<path fill="none" stroke="#63b8ff" d="M1306.3,-55.08C1313.41,-47.65 1323.82,-36.79 1332.56,-27.66"/>
<polygon fill="#63b8ff" stroke="#63b8ff" points="1334.83,-30.35 1339.22,-20.7 1329.78,-25.5 1334.83,-30.35"/>
</a>
</g>
</g>
<!-- Node12&#45;&gt;Node14 -->
<g id="edge17_Node000012_Node000014" class="edge">
<title>Node12&#45;&gt;Node14</title>
<g id="a_edge17_Node000012_Node000014"><a xlink:title=" ">
<path fill="none" stroke="#63b8ff" d="M1335.79,-54.78C1376.9,-44.92 1442.1,-29.28 1482.86,-19.5"/>
<polygon fill="#63b8ff" stroke="#63b8ff" points="1483.54,-22.94 1492.45,-17.2 1481.91,-16.13 1483.54,-22.94"/>
</a>
</g>
</g>
</g>
</svg>
