<?xml version="1.0" encoding="UTF-8" standalone="no"?>
<!DOCTYPE svg PUBLIC "-//W3C//DTD SVG 1.1//EN"
 "http://www.w3.org/Graphics/SVG/1.1/DTD/svg11.dtd">
<!-- Generated by graphviz version 10.0.1 (20240210.2158)
 -->
<!-- Title: ml::core::CTriple::debugMemoryUsage Pages: 1 -->
<svg width="991pt" height="175pt"
 viewBox="0.00 0.00 991.25 175.12" xmlns="http://www.w3.org/2000/svg" xmlns:xlink="http://www.w3.org/1999/xlink">
<g id="graph0" class="graph" transform="scale(1 1) rotate(0) translate(4 171.12)">
<title>ml::core::CTriple::debugMemoryUsage</title>
<!-- Node1 -->
<g id="Node000001" class="node">
<title>Node1</title>
<g id="a_Node000001"><a xlink:title=" ">
<polygon fill="#999999" stroke="#666666" points="106,-70.5 0,-70.5 0,-40 106,-40 106,-70.5"/>
<text text-anchor="start" x="8" y="-57" font-family="Helvetica,sans-Serif" font-size="10.00">ml::core::CTriple::</text>
<text text-anchor="middle" x="53" y="-45.75" font-family="Helvetica,sans-Serif" font-size="10.00">debugMemoryUsage</text>
</a>
</g>
</g>
<!-- Node2 -->
<g id="Node000002" class="node">
<title>Node2</title>
<g id="a_Node000002"><a xlink:href="../../d8/ddf/namespaceml_1_1core_1_1memory__debug.html#af9da9b8dc9d9ea16d09112f4ac614c2c" target="_top" xlink:title="Default implementation for non&#45;pointer types.">
<polygon fill="white" stroke="#666666" points="266,-70.5 142,-70.5 142,-40 266,-40 266,-70.5"/>
<text text-anchor="start" x="150" y="-57" font-family="Helvetica,sans-Serif" font-size="10.00">ml::core::memory_debug</text>
<text text-anchor="middle" x="204" y="-45.75" font-family="Helvetica,sans-Serif" font-size="10.00">::dynamicSize</text>
</a>
</g>
</g>
<!-- Node1&#45;&gt;Node2 -->
<g id="edge1_Node000001_Node000002" class="edge">
<title>Node1&#45;&gt;Node2</title>
<g id="a_edge1_Node000001_Node000002"><a xlink:title=" ">
<path fill="none" stroke="#63b8ff" d="M106.11,-55.25C113.93,-55.25 122.1,-55.25 130.25,-55.25"/>
<polygon fill="#63b8ff" stroke="#63b8ff" points="130.2,-58.75 140.2,-55.25 130.2,-51.75 130.2,-58.75"/>
</a>
</g>
</g>
<!-- Node3 -->
<g id="Node000003" class="node">
<title>Node3</title>
<g id="a_Node000003"><a xlink:href="../../de/df0/structml_1_1core_1_1memory__detail_1_1_s_debug_memory_dynamic_size.html#a0b0baf0a3d6bf2367e46016e88a0ad32" target="_top" xlink:title=" ">
<polygon fill="white" stroke="#666666" points="453,-109.12 302,-109.12 302,-67.38 453,-67.38 453,-109.12"/>
<text text-anchor="start" x="310" y="-95.62" font-family="Helvetica,sans-Serif" font-size="10.00">ml::core::memory_detail</text>
<text text-anchor="start" x="310" y="-84.38" font-family="Helvetica,sans-Serif" font-size="10.00">::SDebugMemoryDynamicSize</text>
<text text-anchor="middle" x="377.5" y="-73.12" font-family="Helvetica,sans-Serif" font-size="10.00">::dispatch</text>
</a>
</g>
</g>
<!-- Node2&#45;&gt;Node3 -->
<g id="edge2_Node000002_Node000003" class="edge">
<title>Node2&#45;&gt;Node3</title>
<g id="a_edge2_Node000002_Node000003"><a xlink:title=" ">
<path fill="none" stroke="#63b8ff" d="M266.43,-67.07C274.29,-68.58 282.46,-70.15 290.62,-71.72"/>
<polygon fill="#63b8ff" stroke="#63b8ff" points="289.75,-75.12 300.23,-73.58 291.08,-68.25 289.75,-75.12"/>
</a>
</g>
</g>
<!-- Node8 -->
<g id="Node000008" class="node">
<title>Node8</title>
<g id="a_Node000008"><a xlink:href="../../db/df7/namespaceml_1_1core_1_1memory__detail.html#aa0a3d5d3341bb51e9df11ef0ea542a6a" target="_top" xlink:title="Check if we expect an overloaded dynamicSize function.">
<polygon fill="white" stroke="#666666" points="643.38,-30.5 489.38,-30.5 489.38,0 643.38,0 643.38,-30.5"/>
<text text-anchor="start" x="497.38" y="-17" font-family="Helvetica,sans-Serif" font-size="10.00">ml::core::memory_detail</text>
<text text-anchor="middle" x="566.38" y="-5.75" font-family="Helvetica,sans-Serif" font-size="10.00">::expectDebugMemoryOverload</text>
</a>
</g>
</g>
<!-- Node2&#45;&gt;Node8 -->
<g id="edge8_Node000002_Node000008" class="edge">
<title>Node2&#45;&gt;Node8</title>
<g id="a_edge8_Node000002_Node000008"><a xlink:title=" ">
<path fill="none" stroke="#63b8ff" d="M266.13,-48.46C324.32,-42.01 412.48,-32.22 478.05,-24.94"/>
<polygon fill="#63b8ff" stroke="#63b8ff" points="478.14,-28.45 487.69,-23.87 477.37,-21.5 478.14,-28.45"/>
</a>
</g>
</g>
<!-- Node4 -->
<g id="Node000004" class="node">
<title>Node4</title>
<g id="a_Node000004"><a xlink:href="../../d0/d74/namespaceml_1_1core_1_1memory.html#a50fe883268170c17625e18a0c5fea04b" target="_top" xlink:title="Default implementation for non&#45;pointer types.">
<polygon fill="white" stroke="#666666" points="643.75,-99.88 489,-99.88 489,-80.62 643.75,-80.62 643.75,-99.88"/>
<text text-anchor="middle" x="566.38" y="-86.38" font-family="Helvetica,sans-Serif" font-size="10.00">ml::core::memory::dynamicSize</text>
</a>
</g>
</g>
<!-- Node3&#45;&gt;Node4 -->
<g id="edge3_Node000003_Node000004" class="edge">
<title>Node3&#45;&gt;Node4</title>
<g id="a_edge3_Node000003_Node000004"><a xlink:title=" ">
<path fill="none" stroke="#63b8ff" d="M453.43,-89.05C461.3,-89.14 469.35,-89.22 477.35,-89.31"/>
<polygon fill="#63b8ff" stroke="#63b8ff" points="477.04,-92.8 487.08,-89.41 477.12,-85.81 477.04,-92.8"/>
</a>
</g>
</g>
<!-- Node5 -->
<g id="Node000005" class="node">
<title>Node5</title>
<g id="a_Node000005"><a xlink:href="../../d9/d0b/structml_1_1core_1_1memory__detail_1_1_s_memory_dynamic_size.html#a49a680749a1d1861b69990d788154833" target="_top" xlink:title=" ">
<polygon fill="white" stroke="#666666" points="808.25,-167.12 679.75,-167.12 679.75,-125.38 808.25,-125.38 808.25,-167.12"/>
<text text-anchor="start" x="687.75" y="-153.62" font-family="Helvetica,sans-Serif" font-size="10.00">ml::core::memory_detail</text>
<text text-anchor="start" x="687.75" y="-142.38" font-family="Helvetica,sans-Serif" font-size="10.00">::SMemoryDynamicSize::</text>
<text text-anchor="middle" x="744" y="-131.12" font-family="Helvetica,sans-Serif" font-size="10.00">dispatch</text>
</a>
</g>
</g>
<!-- Node4&#45;&gt;Node5 -->
<g id="edge4_Node000004_Node000005" class="edge">
<title>Node4&#45;&gt;Node5</title>
<g id="a_edge4_Node000004_Node000005"><a xlink:title=" ">
<path fill="none" stroke="#63b8ff" d="M598.77,-100.26C618.28,-106.48 644.24,-114.76 668.74,-122.57"/>
<polygon fill="#63b8ff" stroke="#63b8ff" points="667.47,-125.84 678.06,-125.54 669.6,-119.17 667.47,-125.84"/>
</a>
</g>
</g>
<!-- Node6 -->
<g id="Node000006" class="node">
<title>Node6</title>
<g id="a_Node000006"><a xlink:href="../../db/df7/namespaceml_1_1core_1_1memory__detail.html#ac2d4d02cd0f6d8d7d1355958a49fce43" target="_top" xlink:title="Check if we expect an overloaded dynamicSize function.">
<polygon fill="white" stroke="#666666" points="806.75,-107.5 681.25,-107.5 681.25,-77 806.75,-77 806.75,-107.5"/>
<text text-anchor="start" x="689.25" y="-94" font-family="Helvetica,sans-Serif" font-size="10.00">ml::core::memory_detail</text>
<text text-anchor="middle" x="744" y="-82.75" font-family="Helvetica,sans-Serif" font-size="10.00">::expectMemoryOverload</text>
</a>
</g>
</g>
<!-- Node4&#45;&gt;Node6 -->
<g id="edge5_Node000004_Node000006" class="edge">
<title>Node4&#45;&gt;Node6</title>
<g id="a_edge5_Node000004_Node000006"><a xlink:title=" ">
<path fill="none" stroke="#63b8ff" d="M644.15,-91.12C652.59,-91.22 661.17,-91.32 669.57,-91.41"/>
<polygon fill="#63b8ff" stroke="#63b8ff" points="669.32,-94.91 679.36,-91.53 669.4,-87.91 669.32,-94.91"/>
</a>
</g>
</g>
<!-- Node7 -->
<g id="Node000007" class="node">
<title>Node7</title>
<g id="a_Node000007"><a xlink:href="../../d2/d21/structml_1_1core_1_1memory__detail_1_1_s_dynamic_size_always_zero.html#a710ac6fc2d5760a396bb2d46a66a73b2" target="_top" xlink:title=" ">
<polygon fill="white" stroke="#666666" points="983.25,-70.12 844.25,-70.12 844.25,-28.38 983.25,-28.38 983.25,-70.12"/>
<text text-anchor="start" x="852.25" y="-56.62" font-family="Helvetica,sans-Serif" font-size="10.00">ml::core::memory_detail</text>
<text text-anchor="start" x="852.25" y="-45.38" font-family="Helvetica,sans-Serif" font-size="10.00">::SDynamicSizeAlwaysZero</text>
<text text-anchor="middle" x="913.75" y="-34.12" font-family="Helvetica,sans-Serif" font-size="10.00">::value</text>
</a>
</g>
</g>
<!-- Node4&#45;&gt;Node7 -->
<g id="edge7_Node000004_Node000007" class="edge">
<title>Node4&#45;&gt;Node7</title>
<g id="a_edge7_Node000004_Node000007"><a xlink:title=" ">
<path fill="none" stroke="#63b8ff" d="M612.84,-80.15C633.21,-75.93 657.6,-71.31 679.75,-68.25 730.33,-61.26 787.46,-56.55 832.49,-53.57"/>
<polygon fill="#63b8ff" stroke="#63b8ff" points="832.7,-57.06 842.46,-52.93 832.25,-50.08 832.7,-57.06"/>
</a>
</g>
</g>
<!-- Node6&#45;&gt;Node7 -->
<g id="edge6_Node000006_Node000007" class="edge">
<title>Node6&#45;&gt;Node7</title>
<g id="a_edge6_Node000006_Node000007"><a xlink:title=" ">
<path fill="none" stroke="#63b8ff" d="M806.04,-76.6C814.76,-74.37 823.84,-72.04 832.86,-69.73"/>
<polygon fill="#63b8ff" stroke="#63b8ff" points="833.52,-73.17 842.34,-67.3 831.78,-66.39 833.52,-73.17"/>
</a>
</g>
</g>
<!-- Node8&#45;&gt;Node7 -->
<g id="edge9_Node000008_Node000007" class="edge">
<title>Node8&#45;&gt;Node7</title>
<g id="a_edge9_Node000008_Node000007"><a xlink:title=" ">
<path fill="none" stroke="#63b8ff" d="M643.68,-20.6C691.1,-24.17 753.29,-29.29 808.25,-35.25 816.19,-36.11 824.47,-37.09 832.73,-38.11"/>
<polygon fill="#63b8ff" stroke="#63b8ff" points="832.09,-41.56 842.45,-39.34 832.97,-34.61 832.09,-41.56"/>
</a>
</g>
</g>
</g>
</svg>
