<?xml version="1.0" encoding="UTF-8" standalone="no"?>
<!DOCTYPE svg PUBLIC "-//W3C//DTD SVG 1.1//EN"
 "http://www.w3.org/Graphics/SVG/1.1/DTD/svg11.dtd">
<!-- Generated by graphviz version 10.0.1 (20240210.2158)
 -->
<!-- Title: ml::maths::time_series::CSeasonalComponentAdaptiveBucketing::shiftOrigin Pages: 1 -->
<svg width="514pt" height="158pt"
 viewBox="0.00 0.00 514.25 157.75" xmlns="http://www.w3.org/2000/svg" xmlns:xlink="http://www.w3.org/1999/xlink">
<g id="graph0" class="graph" transform="scale(1 1) rotate(0) translate(4 153.75)">
<title>ml::maths::time_series::CSeasonalComponentAdaptiveBucketing::shiftOrigin</title>
<!-- Node1 -->
<g id="Node000001" class="node">
<title>Node1</title>
<g id="a_Node000001"><a xlink:title="Shift the regressions&#39; time origin to time.">
<polygon fill="#999999" stroke="#666666" points="158.5,-95.75 0,-95.75 0,-54 158.5,-54 158.5,-95.75"/>
<text text-anchor="start" x="8" y="-82.25" font-family="Helvetica,sans-Serif" font-size="10.00">ml::maths::time_series</text>
<text text-anchor="start" x="8" y="-71" font-family="Helvetica,sans-Serif" font-size="10.00">::CSeasonalComponentAdaptive</text>
<text text-anchor="middle" x="79.25" y="-59.75" font-family="Helvetica,sans-Serif" font-size="10.00">Bucketing::shiftOrigin</text>
</a>
</g>
</g>
<!-- Node2 -->
<g id="Node000002" class="node">
<title>Node2</title>
<g id="a_Node000002"><a xlink:href="../../d7/d17/classml_1_1maths_1_1time__series_1_1_c_adaptive_bucketing.html#a6d4f51305a1c7a66545e3c32c65b64b4" target="_top" xlink:title="Compute the index of the bucket to which time belongs.">
<polygon fill="white" stroke="#666666" points="332.38,-149.75 215.12,-149.75 215.12,-108 332.38,-108 332.38,-149.75"/>
<text text-anchor="start" x="223.12" y="-136.25" font-family="Helvetica,sans-Serif" font-size="10.00">ml::maths::time_series</text>
<text text-anchor="start" x="223.12" y="-125" font-family="Helvetica,sans-Serif" font-size="10.00">::CAdaptiveBucketing::</text>
<text text-anchor="middle" x="273.75" y="-113.75" font-family="Helvetica,sans-Serif" font-size="10.00">bucket</text>
</a>
</g>
</g>
<!-- Node1&#45;&gt;Node2 -->
<g id="edge1_Node000001_Node000002" class="edge">
<title>Node1&#45;&gt;Node2</title>
<g id="a_edge1_Node000001_Node000002"><a xlink:title=" ">
<path fill="none" stroke="#63b8ff" d="M156.33,-96.22C171.98,-100.61 188.36,-105.2 203.74,-109.52"/>
<polygon fill="#63b8ff" stroke="#63b8ff" points="202.71,-112.86 213.28,-112.19 204.6,-106.12 202.71,-112.86"/>
</a>
</g>
</g>
<!-- Node4 -->
<g id="Node000004" class="node">
<title>Node4</title>
<g id="a_Node000004"><a xlink:href="../../d2/d3e/classml_1_1maths_1_1common_1_1_c_integer_tools.html#af6730dab6229fee67aaa34a8290491ad" target="_top" xlink:title=" ">
<polygon fill="white" stroke="#666666" points="328.25,-90.12 219.25,-90.12 219.25,-59.62 328.25,-59.62 328.25,-90.12"/>
<text text-anchor="start" x="227.25" y="-76.62" font-family="Helvetica,sans-Serif" font-size="10.00">ml::maths::common::</text>
<text text-anchor="middle" x="273.75" y="-65.38" font-family="Helvetica,sans-Serif" font-size="10.00">CIntegerTools::floor</text>
</a>
</g>
</g>
<!-- Node1&#45;&gt;Node4 -->
<g id="edge3_Node000001_Node000004" class="edge">
<title>Node1&#45;&gt;Node4</title>
<g id="a_edge3_Node000001_Node000004"><a xlink:title=" ">
<path fill="none" stroke="#63b8ff" d="M158.82,-74.88C175.05,-74.88 191.98,-74.88 207.66,-74.88"/>
<polygon fill="#63b8ff" stroke="#63b8ff" points="207.33,-78.38 217.33,-74.88 207.33,-71.38 207.33,-78.38"/>
</a>
</g>
</g>
<!-- Node5 -->
<g id="Node000005" class="node">
<title>Node5</title>
<g id="a_Node000005"><a xlink:href="../../db/de4/classml_1_1maths_1_1time__series_1_1_c_seasonal_component_adaptive_bucketing.html#a9094abe278a9f173f58ad5e40b5b00c2" target="_top" xlink:title="Get the time provider.">
<polygon fill="white" stroke="#666666" points="353,-41.75 194.5,-41.75 194.5,0 353,0 353,-41.75"/>
<text text-anchor="start" x="202.5" y="-28.25" font-family="Helvetica,sans-Serif" font-size="10.00">ml::maths::time_series</text>
<text text-anchor="start" x="202.5" y="-17" font-family="Helvetica,sans-Serif" font-size="10.00">::CSeasonalComponentAdaptive</text>
<text text-anchor="middle" x="273.75" y="-5.75" font-family="Helvetica,sans-Serif" font-size="10.00">Bucketing::time</text>
</a>
</g>
</g>
<!-- Node1&#45;&gt;Node5 -->
<g id="edge4_Node000001_Node000005" class="edge">
<title>Node1&#45;&gt;Node5</title>
<g id="a_edge4_Node000001_Node000005"><a xlink:title=" ">
<path fill="none" stroke="#63b8ff" d="M156.33,-53.53C165.95,-50.83 175.85,-48.06 185.63,-45.31"/>
<polygon fill="#63b8ff" stroke="#63b8ff" points="186.45,-48.72 195.13,-42.65 184.56,-41.98 186.45,-48.72"/>
</a>
</g>
</g>
<!-- Node3 -->
<g id="Node000003" class="node">
<title>Node3</title>
<g id="a_Node000003"><a xlink:href="../../d7/d17/classml_1_1maths_1_1time__series_1_1_c_adaptive_bucketing.html#accb62bcb1fa68ef47631b2139e00b790" target="_top" xlink:title="Get the offset w.r.t. the start of the bucketing of time.">
<polygon fill="white" stroke="#666666" points="506.25,-149.75 389,-149.75 389,-108 506.25,-108 506.25,-149.75"/>
<text text-anchor="start" x="397" y="-136.25" font-family="Helvetica,sans-Serif" font-size="10.00">ml::maths::time_series</text>
<text text-anchor="start" x="397" y="-125" font-family="Helvetica,sans-Serif" font-size="10.00">::CAdaptiveBucketing::</text>
<text text-anchor="middle" x="447.62" y="-113.75" font-family="Helvetica,sans-Serif" font-size="10.00">offset</text>
</a>
</g>
</g>
<!-- Node2&#45;&gt;Node3 -->
<g id="edge2_Node000002_Node000003" class="edge">
<title>Node2&#45;&gt;Node3</title>
<g id="a_edge2_Node000002_Node000003"><a xlink:title=" ">
<path fill="none" stroke="#63b8ff" d="M332.46,-128.88C346.91,-128.88 362.57,-128.88 377.51,-128.88"/>
<polygon fill="#63b8ff" stroke="#63b8ff" points="377.26,-132.38 387.26,-128.88 377.26,-125.38 377.26,-132.38"/>
</a>
</g>
</g>
</g>
</svg>
