<?xml version="1.0" encoding="UTF-8" standalone="no"?>
<!DOCTYPE svg PUBLIC "-//W3C//DTD SVG 1.1//EN"
 "http://www.w3.org/Graphics/SVG/1.1/DTD/svg11.dtd">
<!-- Generated by graphviz version 10.0.1 (20240210.2158)
 -->
<!-- Title: ml::maths::time_series::CSeasonalComponentAdaptiveBucketing::initialize Pages: 1 -->
<svg width="361pt" height="158pt"
 viewBox="0.00 0.00 361.00 157.75" xmlns="http://www.w3.org/2000/svg" xmlns:xlink="http://www.w3.org/1999/xlink">
<g id="graph0" class="graph" transform="scale(1 1) rotate(0) translate(4 153.75)">
<title>ml::maths::time_series::CSeasonalComponentAdaptiveBucketing::initialize</title>
<!-- Node1 -->
<g id="Node000001" class="node">
<title>Node1</title>
<g id="a_Node000001"><a xlink:title=" ">
<polygon fill="#999999" stroke="#666666" points="158.5,-95.75 0,-95.75 0,-54 158.5,-54 158.5,-95.75"/>
<text text-anchor="start" x="8" y="-82.25" font-family="Helvetica,sans-Serif" font-size="10.00">ml::maths::time_series</text>
<text text-anchor="start" x="8" y="-71" font-family="Helvetica,sans-Serif" font-size="10.00">::CSeasonalComponentAdaptive</text>
<text text-anchor="middle" x="79.25" y="-59.75" font-family="Helvetica,sans-Serif" font-size="10.00">Bucketing::initialize</text>
</a>
</g>
</g>
<!-- Node2 -->
<g id="Node000002" class="node">
<title>Node2</title>
<g id="a_Node000002"><a xlink:href="../../d7/d17/classml_1_1maths_1_1time__series_1_1_c_adaptive_bucketing.html#aee4b961577250cd3b17e0cc93e50d922" target="_top" xlink:title=" ">
<polygon fill="white" stroke="#666666" points="332.38,-149.75 215.12,-149.75 215.12,-108 332.38,-108 332.38,-149.75"/>
<text text-anchor="start" x="223.12" y="-136.25" font-family="Helvetica,sans-Serif" font-size="10.00">ml::maths::time_series</text>
<text text-anchor="start" x="223.12" y="-125" font-family="Helvetica,sans-Serif" font-size="10.00">::CAdaptiveBucketing::</text>
<text text-anchor="middle" x="273.75" y="-113.75" font-family="Helvetica,sans-Serif" font-size="10.00">initialize</text>
</a>
</g>
</g>
<!-- Node1&#45;&gt;Node2 -->
<g id="edge1_Node000001_Node000002" class="edge">
<title>Node1&#45;&gt;Node2</title>
<g id="a_edge1_Node000001_Node000002"><a xlink:title=" ">
<path fill="none" stroke="#63b8ff" d="M156.33,-96.22C171.98,-100.61 188.36,-105.2 203.74,-109.52"/>
<polygon fill="#63b8ff" stroke="#63b8ff" points="202.71,-112.86 213.28,-112.19 204.6,-106.12 202.71,-112.86"/>
</a>
</g>
</g>
<!-- Node3 -->
<g id="Node000003" class="node">
<title>Node3</title>
<g id="a_Node000003"><a xlink:href="../../d7/d17/classml_1_1maths_1_1time__series_1_1_c_adaptive_bucketing.html#a83bf2ff948fc0a5e9dbd5079a9ad3918" target="_top" xlink:title="Get the number of buckets.">
<polygon fill="white" stroke="#666666" points="341.38,-90.12 206.12,-90.12 206.12,-59.62 341.38,-59.62 341.38,-90.12"/>
<text text-anchor="start" x="214.12" y="-76.62" font-family="Helvetica,sans-Serif" font-size="10.00">ml::maths::time_series</text>
<text text-anchor="middle" x="273.75" y="-65.38" font-family="Helvetica,sans-Serif" font-size="10.00">::CAdaptiveBucketing::size</text>
</a>
</g>
</g>
<!-- Node1&#45;&gt;Node3 -->
<g id="edge2_Node000001_Node000003" class="edge">
<title>Node1&#45;&gt;Node3</title>
<g id="a_edge2_Node000001_Node000003"><a xlink:title=" ">
<path fill="none" stroke="#63b8ff" d="M158.82,-74.88C170.64,-74.88 182.83,-74.88 194.64,-74.88"/>
<polygon fill="#63b8ff" stroke="#63b8ff" points="194.3,-78.38 204.3,-74.88 194.3,-71.38 194.3,-78.38"/>
</a>
</g>
</g>
<!-- Node4 -->
<g id="Node000004" class="node">
<title>Node4</title>
<g id="a_Node000004"><a xlink:href="../../db/de4/classml_1_1maths_1_1time__series_1_1_c_seasonal_component_adaptive_bucketing.html#a9094abe278a9f173f58ad5e40b5b00c2" target="_top" xlink:title="Get the time provider.">
<polygon fill="white" stroke="#666666" points="353,-41.75 194.5,-41.75 194.5,0 353,0 353,-41.75"/>
<text text-anchor="start" x="202.5" y="-28.25" font-family="Helvetica,sans-Serif" font-size="10.00">ml::maths::time_series</text>
<text text-anchor="start" x="202.5" y="-17" font-family="Helvetica,sans-Serif" font-size="10.00">::CSeasonalComponentAdaptive</text>
<text text-anchor="middle" x="273.75" y="-5.75" font-family="Helvetica,sans-Serif" font-size="10.00">Bucketing::time</text>
</a>
</g>
</g>
<!-- Node1&#45;&gt;Node4 -->
<g id="edge3_Node000001_Node000004" class="edge">
<title>Node1&#45;&gt;Node4</title>
<g id="a_edge3_Node000001_Node000004"><a xlink:title=" ">
<path fill="none" stroke="#63b8ff" d="M156.33,-53.53C165.95,-50.83 175.85,-48.06 185.63,-45.31"/>
<polygon fill="#63b8ff" stroke="#63b8ff" points="186.45,-48.72 195.13,-42.65 184.56,-41.98 186.45,-48.72"/>
</a>
</g>
</g>
</g>
</svg>
