<?xml version="1.0" encoding="UTF-8" standalone="no"?>
<!DOCTYPE svg PUBLIC "-//W3C//DTD SVG 1.1//EN"
 "http://www.w3.org/Graphics/SVG/1.1/DTD/svg11.dtd">
<!-- Generated by graphviz version 10.0.1 (20240210.2158)
 -->
<!-- Title: ml::maths::time_series::CSeasonalComponentAdaptiveBucketing::propagateForwardsByTime Pages: 1 -->
<svg width="741pt" height="338pt"
 viewBox="0.00 0.00 741.00 337.75" xmlns="http://www.w3.org/2000/svg" xmlns:xlink="http://www.w3.org/1999/xlink">
<g id="graph0" class="graph" transform="scale(1 1) rotate(0) translate(4 333.75)">
<title>ml::maths::time_series::CSeasonalComponentAdaptiveBucketing::propagateForwardsByTime</title>
<!-- Node1 -->
<g id="Node000001" class="node">
<title>Node1</title>
<g id="a_Node000001"><a xlink:title=" ">
<polygon fill="#999999" stroke="#666666" points="182.5,-161.75 0,-161.75 0,-120 182.5,-120 182.5,-161.75"/>
<text text-anchor="start" x="8" y="-148.25" font-family="Helvetica,sans-Serif" font-size="10.00">ml::maths::time_series</text>
<text text-anchor="start" x="8" y="-137" font-family="Helvetica,sans-Serif" font-size="10.00">::CSeasonalComponentAdaptive</text>
<text text-anchor="middle" x="91.25" y="-125.75" font-family="Helvetica,sans-Serif" font-size="10.00">Bucketing::propagateForwardsByTime</text>
</a>
</g>
</g>
<!-- Node2 -->
<g id="Node000002" class="node">
<title>Node2</title>
<g id="a_Node000002"><a xlink:href="../../d7/d17/classml_1_1maths_1_1time__series_1_1_c_adaptive_bucketing.html#a1ee1d5be2458c03b7b2651344030d1d5" target="_top" xlink:title="Age the force moments.">
<polygon fill="white" stroke="#666666" points="364.25,-270.12 231.25,-270.12 231.25,-239.62 364.25,-239.62 364.25,-270.12"/>
<text text-anchor="start" x="239.25" y="-256.62" font-family="Helvetica,sans-Serif" font-size="10.00">ml::maths::time_series</text>
<text text-anchor="middle" x="297.75" y="-245.38" font-family="Helvetica,sans-Serif" font-size="10.00">::CAdaptiveBucketing::age</text>
</a>
</g>
</g>
<!-- Node1&#45;&gt;Node2 -->
<g id="edge1_Node000001_Node000002" class="edge">
<title>Node1&#45;&gt;Node2</title>
<g id="a_edge1_Node000001_Node000002"><a xlink:title=" ">
<path fill="none" stroke="#63b8ff" d="M116.82,-162.07C141.21,-182.18 180.36,-212.05 218.5,-230.88 221.43,-232.32 224.46,-233.7 227.55,-235.01"/>
<polygon fill="#63b8ff" stroke="#63b8ff" points="226.25,-238.26 236.84,-238.67 228.82,-231.75 226.25,-238.26"/>
</a>
</g>
</g>
<!-- Node6 -->
<g id="Node000006" class="node">
<title>Node6</title>
<g id="a_Node000006"><a xlink:href="../../d7/d17/classml_1_1maths_1_1time__series_1_1_c_adaptive_bucketing.html#a6d4f51305a1c7a66545e3c32c65b64b4" target="_top" xlink:title="Compute the index of the bucket to which time belongs.">
<polygon fill="white" stroke="#666666" points="356.38,-221.75 239.12,-221.75 239.12,-180 356.38,-180 356.38,-221.75"/>
<text text-anchor="start" x="247.12" y="-208.25" font-family="Helvetica,sans-Serif" font-size="10.00">ml::maths::time_series</text>
<text text-anchor="start" x="247.12" y="-197" font-family="Helvetica,sans-Serif" font-size="10.00">::CAdaptiveBucketing::</text>
<text text-anchor="middle" x="297.75" y="-185.75" font-family="Helvetica,sans-Serif" font-size="10.00">bucket</text>
</a>
</g>
</g>
<!-- Node1&#45;&gt;Node6 -->
<g id="edge5_Node000001_Node000006" class="edge">
<title>Node1&#45;&gt;Node6</title>
<g id="a_edge5_Node000001_Node000006"><a xlink:title=" ">
<path fill="none" stroke="#63b8ff" d="M164.92,-162.2C185.36,-168.19 207.53,-174.7 227.74,-180.63"/>
<polygon fill="#63b8ff" stroke="#63b8ff" points="226.72,-183.98 237.3,-183.43 228.69,-177.26 226.72,-183.98"/>
</a>
</g>
</g>
<!-- Node8 -->
<g id="Node000008" class="node">
<title>Node8</title>
<g id="a_Node000008"><a xlink:href="../../d7/d17/classml_1_1maths_1_1time__series_1_1_c_adaptive_bucketing.html#a259b158f8ed05aa83b21cc6bdbf2b64a" target="_top" xlink:title="Get the rate at which the bucketing loses information.">
<polygon fill="white" stroke="#666666" points="356.38,-161.75 239.12,-161.75 239.12,-120 356.38,-120 356.38,-161.75"/>
<text text-anchor="start" x="247.12" y="-148.25" font-family="Helvetica,sans-Serif" font-size="10.00">ml::maths::time_series</text>
<text text-anchor="start" x="247.12" y="-137" font-family="Helvetica,sans-Serif" font-size="10.00">::CAdaptiveBucketing::</text>
<text text-anchor="middle" x="297.75" y="-125.75" font-family="Helvetica,sans-Serif" font-size="10.00">decayRate</text>
</a>
</g>
</g>
<!-- Node1&#45;&gt;Node8 -->
<g id="edge7_Node000001_Node000008" class="edge">
<title>Node1&#45;&gt;Node8</title>
<g id="a_edge7_Node000001_Node000008"><a xlink:title=" ">
<path fill="none" stroke="#63b8ff" d="M182.84,-140.88C197.85,-140.88 213.19,-140.88 227.56,-140.88"/>
<polygon fill="#63b8ff" stroke="#63b8ff" points="227.33,-144.38 237.33,-140.88 227.33,-137.38 227.33,-144.38"/>
</a>
</g>
</g>
<!-- Node9 -->
<g id="Node000009" class="node">
<title>Node9</title>
<g id="a_Node000009"><a xlink:href="../../d7/d17/classml_1_1maths_1_1time__series_1_1_c_adaptive_bucketing.html#a94e6921385917f4f4e412d167ccbaf63" target="_top" xlink:title="Check if the bucketing has been initialized.">
<polygon fill="white" stroke="#666666" points="356.38,-101.75 239.12,-101.75 239.12,-60 356.38,-60 356.38,-101.75"/>
<text text-anchor="start" x="247.12" y="-88.25" font-family="Helvetica,sans-Serif" font-size="10.00">ml::maths::time_series</text>
<text text-anchor="start" x="247.12" y="-77" font-family="Helvetica,sans-Serif" font-size="10.00">::CAdaptiveBucketing::</text>
<text text-anchor="middle" x="297.75" y="-65.75" font-family="Helvetica,sans-Serif" font-size="10.00">initialized</text>
</a>
</g>
</g>
<!-- Node1&#45;&gt;Node9 -->
<g id="edge8_Node000001_Node000009" class="edge">
<title>Node1&#45;&gt;Node9</title>
<g id="a_edge8_Node000001_Node000009"><a xlink:title=" ">
<path fill="none" stroke="#63b8ff" d="M164.92,-119.55C185.36,-113.56 207.53,-107.05 227.74,-101.12"/>
<polygon fill="#63b8ff" stroke="#63b8ff" points="228.69,-104.49 237.3,-98.32 226.72,-97.77 228.69,-104.49"/>
</a>
</g>
</g>
<!-- Node10 -->
<g id="Node000010" class="node">
<title>Node10</title>
<g id="a_Node000010"><a xlink:href="../../db/de4/classml_1_1maths_1_1time__series_1_1_c_seasonal_component_adaptive_bucketing.html#a9094abe278a9f173f58ad5e40b5b00c2" target="_top" xlink:title="Get the time provider.">
<polygon fill="white" stroke="#666666" points="377,-41.75 218.5,-41.75 218.5,0 377,0 377,-41.75"/>
<text text-anchor="start" x="226.5" y="-28.25" font-family="Helvetica,sans-Serif" font-size="10.00">ml::maths::time_series</text>
<text text-anchor="start" x="226.5" y="-17" font-family="Helvetica,sans-Serif" font-size="10.00">::CSeasonalComponentAdaptive</text>
<text text-anchor="middle" x="297.75" y="-5.75" font-family="Helvetica,sans-Serif" font-size="10.00">Bucketing::time</text>
</a>
</g>
</g>
<!-- Node1&#45;&gt;Node10 -->
<g id="edge9_Node000001_Node000010" class="edge">
<title>Node1&#45;&gt;Node10</title>
<g id="a_edge9_Node000001_Node000010"><a xlink:title=" ">
<path fill="none" stroke="#63b8ff" d="M117.58,-119.87C142.22,-100.19 181.27,-70.86 218.5,-50.88 221.02,-49.52 223.62,-48.2 226.27,-46.91"/>
<polygon fill="#63b8ff" stroke="#63b8ff" points="227.67,-50.11 235.29,-42.74 224.74,-43.76 227.67,-50.11"/>
</a>
</g>
</g>
<!-- Node3 -->
<g id="Node000003" class="node">
<title>Node3</title>
<g id="a_Node000003"><a xlink:href="../../dc/dbb/structml_1_1maths_1_1common_1_1_c_basic_statistics_1_1_s_sample_central_moments.html#ac8ed3ffac05aa18c71f9f05d973506ec" target="_top" xlink:title=" ">
<polygon fill="white" stroke="#666666" points="579.75,-329.75 413,-329.75 413,-288 579.75,-288 579.75,-329.75"/>
<text text-anchor="start" x="421" y="-316.25" font-family="Helvetica,sans-Serif" font-size="10.00">ml::maths::common::</text>
<text text-anchor="start" x="421" y="-305" font-family="Helvetica,sans-Serif" font-size="10.00">CBasicStatistics::SSampleCentral</text>
<text text-anchor="middle" x="496.38" y="-293.75" font-family="Helvetica,sans-Serif" font-size="10.00">Moments::age</text>
</a>
</g>
</g>
<!-- Node2&#45;&gt;Node3 -->
<g id="edge2_Node000002_Node000003" class="edge">
<title>Node2&#45;&gt;Node3</title>
<g id="a_edge2_Node000002_Node000003"><a xlink:title=" ">
<path fill="none" stroke="#63b8ff" d="M355.89,-270.57C371.85,-274.95 389.58,-279.82 406.9,-284.58"/>
<polygon fill="#63b8ff" stroke="#63b8ff" points="405.58,-287.84 416.15,-287.12 407.43,-281.09 405.58,-287.84"/>
</a>
</g>
</g>
<!-- Node4 -->
<g id="Node000004" class="node">
<title>Node4</title>
<g id="a_Node000004"><a xlink:href="../../d7/d17/classml_1_1maths_1_1time__series_1_1_c_adaptive_bucketing.html#abb82eda3e1056a9cea92799517a3c033" target="_top" xlink:title="Get the total count of in the bucketing.">
<polygon fill="white" stroke="#666666" points="567,-270.12 425.75,-270.12 425.75,-239.62 567,-239.62 567,-270.12"/>
<text text-anchor="start" x="433.75" y="-256.62" font-family="Helvetica,sans-Serif" font-size="10.00">ml::maths::time_series</text>
<text text-anchor="middle" x="496.38" y="-245.38" font-family="Helvetica,sans-Serif" font-size="10.00">::CAdaptiveBucketing::count</text>
</a>
</g>
</g>
<!-- Node2&#45;&gt;Node4 -->
<g id="edge3_Node000002_Node000004" class="edge">
<title>Node2&#45;&gt;Node4</title>
<g id="a_edge3_Node000002_Node000004"><a xlink:title=" ">
<path fill="none" stroke="#63b8ff" d="M364.5,-254.88C380.37,-254.88 397.52,-254.88 414.02,-254.88"/>
<polygon fill="#63b8ff" stroke="#63b8ff" points="413.79,-258.38 423.79,-254.88 413.79,-251.38 413.79,-258.38"/>
</a>
</g>
</g>
<!-- Node5 -->
<g id="Node000005" class="node">
<title>Node5</title>
<g id="a_Node000005"><a xlink:href="../../d7/d17/classml_1_1maths_1_1time__series_1_1_c_adaptive_bucketing.html#a46c659da01617c9298587c1c52d3025d" target="_top" xlink:title="Get the count in bucket.">
<polygon fill="white" stroke="#666666" points="733,-275.75 615.75,-275.75 615.75,-234 733,-234 733,-275.75"/>
<text text-anchor="start" x="623.75" y="-262.25" font-family="Helvetica,sans-Serif" font-size="10.00">ml::maths::time_series</text>
<text text-anchor="start" x="623.75" y="-251" font-family="Helvetica,sans-Serif" font-size="10.00">::CAdaptiveBucketing::</text>
<text text-anchor="middle" x="674.38" y="-239.75" font-family="Helvetica,sans-Serif" font-size="10.00">bucketCount</text>
</a>
</g>
</g>
<!-- Node4&#45;&gt;Node5 -->
<g id="edge4_Node000004_Node000005" class="edge">
<title>Node4&#45;&gt;Node5</title>
<g id="a_edge4_Node000004_Node000005"><a xlink:title=" ">
<path fill="none" stroke="#63b8ff" d="M567.44,-254.88C579.5,-254.88 592.03,-254.88 604.07,-254.88"/>
<polygon fill="#63b8ff" stroke="#63b8ff" points="603.91,-258.38 613.91,-254.88 603.91,-251.38 603.91,-258.38"/>
</a>
</g>
</g>
<!-- Node7 -->
<g id="Node000007" class="node">
<title>Node7</title>
<g id="a_Node000007"><a xlink:href="../../d7/d17/classml_1_1maths_1_1time__series_1_1_c_adaptive_bucketing.html#accb62bcb1fa68ef47631b2139e00b790" target="_top" xlink:title="Get the offset w.r.t. the start of the bucketing of time.">
<polygon fill="white" stroke="#666666" points="555,-221.75 437.75,-221.75 437.75,-180 555,-180 555,-221.75"/>
<text text-anchor="start" x="445.75" y="-208.25" font-family="Helvetica,sans-Serif" font-size="10.00">ml::maths::time_series</text>
<text text-anchor="start" x="445.75" y="-197" font-family="Helvetica,sans-Serif" font-size="10.00">::CAdaptiveBucketing::</text>
<text text-anchor="middle" x="496.38" y="-185.75" font-family="Helvetica,sans-Serif" font-size="10.00">offset</text>
</a>
</g>
</g>
<!-- Node6&#45;&gt;Node7 -->
<g id="edge6_Node000006_Node000007" class="edge">
<title>Node6&#45;&gt;Node7</title>
<g id="a_edge6_Node000006_Node000007"><a xlink:title=" ">
<path fill="none" stroke="#63b8ff" d="M356.68,-200.88C378.48,-200.88 403.5,-200.88 426.22,-200.88"/>
<polygon fill="#63b8ff" stroke="#63b8ff" points="426.01,-204.38 436.01,-200.88 426.01,-197.38 426.01,-204.38"/>
</a>
</g>
</g>
</g>
</svg>
