<?xml version="1.0" encoding="UTF-8" standalone="no"?>
<!DOCTYPE svg PUBLIC "-//W3C//DTD SVG 1.1//EN"
 "http://www.w3.org/Graphics/SVG/1.1/DTD/svg11.dtd">
<!-- Generated by graphviz version 10.0.1 (20240210.2158)
 -->
<!-- Title: ml::model::CProbabilityAndInfluenceCalculator Pages: 1 -->
<!--zoomable 175 -->

<svg id="main" version="1.1" xmlns="http://www.w3.org/2000/svg" xmlns:xlink="http://www.w3.org/1999/xlink" xml:space="preserve" onload="init(evt)">
<style type="text/css"><![CDATA[
.node, .edge {opacity: 0.7;}
.node.selected, .edge.selected {opacity: 1;}
.edge:hover path { stroke: red; }
.edge:hover polygon { stroke: red; fill: red; }
]]></style>

<defs>
  <circle id="rim" cx="0" cy="0" r="7"/>
  <circle id="rim2" cx="0" cy="0" r="3.5"/>
  <g id="zoomPlus">
    <use xlink:href="#rim" fill="#404040"><set attributeName="fill" to="#808080" begin="zoomplus.mouseover" end="zoomplus.mouseout"/></use>
    <path d="M-4,0h8M0,-4v8" fill="none" stroke="white" stroke-width="1.5" pointer-events="none"/>
  </g>
  <g id="zoomMin">
    <use xlink:href="#rim" fill="#404040"><set attributeName="fill" to="#808080" begin="zoomminus.mouseover" end="zoomminus.mouseout"/></use>
    <path d="M-4,0h8" fill="none" stroke="white" stroke-width="1.5" pointer-events="none"/>
  </g>
  <g id="arrowUp" transform="translate(30 24)">
    <use xlink:href="#rim"/>
    <path pointer-events="none" fill="none" stroke="white" stroke-width="1.5" d="M0,-3.0v7 M-2.5,-0.5L0,-3.0L2.5,-0.5"/>
  </g>
  <g id="arrowRight" transform="rotate(90) translate(36 -43)">
    <use xlink:href="#rim"/>
    <path pointer-events="none" fill="none" stroke="white" stroke-width="1.5" d="M0,-3.0v7 M-2.5,-0.5L0,-3.0L2.5,-0.5"/>
  </g>
  <g id="arrowDown" transform="rotate(180) translate(-30 -48)">
    <use xlink:href="#rim"/>
    <path pointer-events="none" fill="none" stroke="white" stroke-width="1.5" d="M0,-3.0v7 M-2.5,-0.5L0,-3.0L2.5,-0.5"/>
  </g>
  <g id="arrowLeft" transform="rotate(270) translate(-36 17)">
    <use xlink:href="#rim"/>
    <path pointer-events="none" fill="none" stroke="white" stroke-width="1.5" d="M0,-3.0v7 M-2.5,-0.5L0,-3.0L2.5,-0.5"/>
  </g>
  <g id="resetDef">
    <use xlink:href="#rim2" fill="#404040"><set attributeName="fill" to="#808080" begin="reset.mouseover" end="reset.mouseout"/></use>
  </g>
</defs>
<script type="application/ecmascript">
var viewWidth = 628;
var viewHeight = 175;
var sectionId = 'dynsection-0';
</script>
<script type="application/ecmascript" xlink:href="../../svg.min.js"/>
<svg id="graph" class="graph">
<g id="viewport">
<title>ml::model::CProbabilityAndInfluenceCalculator</title>
<!-- Node1 -->
<g id="Node000001" class="node">
<title>Node1</title>
<g id="a_Node000001"><a xlink:title="Computes the overall probability and influences on a collection of feature values and corresponding i...">
<polygon fill="#999999" stroke="#666666" points="619.75,-102.5 484.5,-102.5 484.5,-72 619.75,-72 619.75,-102.5"/>
<text text-anchor="start" x="492.5" y="-89" font-family="Helvetica,sans-Serif" font-size="10.00">ml::model::CProbabilityAnd</text>
<text text-anchor="middle" x="552.12" y="-77.75" font-family="Helvetica,sans-Serif" font-size="10.00">InfluenceCalculator</text>
</a>
</g>
</g>
<!-- Node2 -->
<g id="Node000002" class="node">
<title>Node2</title>
<g id="a_Node000002"><a xlink:href="../../df/de1/classml_1_1model_1_1_c_influence_calculator.html" target="_top" xlink:title="Interface for influence calculations.">
<polygon fill="white" stroke="#666666" points="317.25,-166.88 161,-166.88 161,-147.62 317.25,-147.62 317.25,-166.88"/>
<text text-anchor="middle" x="239.12" y="-153.38" font-family="Helvetica,sans-Serif" font-size="10.00">ml::model::CInfluenceCalculator</text>
</a>
</g>
</g>
<!-- Node2&#45;&gt;Node1 -->
<g id="edge1_Node000001_Node000002" class="edge">
<title>Node2&#45;&gt;Node1</title>
<g id="a_edge1_Node000001_Node000002"><a xlink:title=" ">
<path fill="none" stroke="#9a32cd" stroke-dasharray="5,2" d="M328.95,-154.54C371.33,-151.36 422.32,-144.77 466.5,-131.25 488.03,-124.66 510.57,-112.66 526.97,-102.85"/>
<polygon fill="#9a32cd" stroke="#9a32cd" points="328.76,-151.04 319.03,-155.22 329.25,-158.03 328.76,-151.04"/>
</a>
</g>
<text text-anchor="middle" x="400.88" y="-155" font-family="Helvetica,sans-Serif" font-size="10.00" fill="grey"> m_InfluenceCalculator</text>
</g>
<!-- Node3 -->
<g id="Node000003" class="node">
<title>Node3</title>
<g id="a_Node000003"><a xlink:href="../../d0/d45/classml_1_1core_1_1_c_non_copyable.html" target="_top" xlink:title="Equivalent to boost::noncopyable.">
<polygon fill="white" stroke="#666666" points="124,-166.88 0,-166.88 0,-147.62 124,-147.62 124,-166.88"/>
<text text-anchor="middle" x="62" y="-153.38" font-family="Helvetica,sans-Serif" font-size="10.00">ml::core::CNonCopyable</text>
</a>
</g>
</g>
<!-- Node3&#45;&gt;Node2 -->
<g id="edge2_Node000002_Node000003" class="edge">
<title>Node3&#45;&gt;Node2</title>
<g id="a_edge2_Node000002_Node000003"><a xlink:title=" ">
<path fill="none" stroke="#8b1a1a" d="M135.71,-157.25C143.93,-157.25 152.32,-157.25 160.59,-157.25"/>
<polygon fill="#8b1a1a" stroke="#8b1a1a" points="135.76,-153.75 125.76,-157.25 135.76,-160.75 135.76,-153.75"/>
</a>
</g>
</g>
<!-- Node4 -->
<g id="Node000004" class="node">
<title>Node4</title>
<g id="a_Node000004"><a xlink:href="../../d6/d2f/classml_1_1model_1_1_c_model_tools_1_1_c_probability_aggregator.html" target="_top" xlink:title="Manages the aggregation of probabilities.">
<polygon fill="white" stroke="#666666" points="300.38,-128.5 177.88,-128.5 177.88,-98 300.38,-98 300.38,-128.5"/>
<text text-anchor="start" x="185.88" y="-115" font-family="Helvetica,sans-Serif" font-size="10.00">ml::model::CModelTools</text>
<text text-anchor="middle" x="239.12" y="-103.75" font-family="Helvetica,sans-Serif" font-size="10.00">::CProbabilityAggregator</text>
</a>
</g>
</g>
<!-- Node4&#45;&gt;Node1 -->
<g id="edge3_Node000001_Node000004" class="edge">
<title>Node4&#45;&gt;Node1</title>
<g id="a_edge3_Node000001_Node000004"><a xlink:title=" ">
<path fill="none" stroke="#9a32cd" stroke-dasharray="5,2" d="M312.27,-107.22C364.11,-102.89 433.48,-97.09 484.11,-92.85"/>
<polygon fill="#9a32cd" stroke="#9a32cd" points="312.01,-103.73 302.34,-108.05 312.59,-110.7 312.01,-103.73"/>
</a>
</g>
<text text-anchor="middle" x="400.88" y="-117.25" font-family="Helvetica,sans-Serif" font-size="10.00" fill="grey"> m_Probability</text>
<text text-anchor="middle" x="400.88" y="-106" font-family="Helvetica,sans-Serif" font-size="10.00" fill="grey">m_ProbabilityTemplate</text>
</g>
<!-- Node5 -->
<g id="Node000005" class="node">
<title>Node5</title>
<g id="a_Node000005"><a xlink:href="../../df/d4f/classml_1_1model_1_1_c_model_tools_1_1_c_probability_cache.html" target="_top" xlink:title="A cache of the probability calculation to use in cases that many probabilities are being computed fro...">
<polygon fill="white" stroke="#666666" points="300,-79.5 178.25,-79.5 178.25,-49 300,-49 300,-79.5"/>
<text text-anchor="start" x="186.25" y="-66" font-family="Helvetica,sans-Serif" font-size="10.00">ml::model::CModelTools</text>
<text text-anchor="middle" x="239.12" y="-54.75" font-family="Helvetica,sans-Serif" font-size="10.00">::CProbabilityCache</text>
</a>
</g>
</g>
<!-- Node5&#45;&gt;Node1 -->
<g id="edge4_Node000001_Node000005" class="edge">
<title>Node5&#45;&gt;Node1</title>
<g id="a_edge4_Node000001_Node000005"><a xlink:title=" ">
<path fill="none" stroke="#9a32cd" stroke-dasharray="5,2" d="M311.55,-67.71C356.14,-70.08 414.71,-73.6 466.5,-78 472.24,-78.49 478.2,-79.04 484.17,-79.63"/>
<polygon fill="#9a32cd" stroke="#9a32cd" points="311.92,-64.22 301.75,-67.19 311.55,-71.21 311.92,-64.22"/>
</a>
</g>
<text text-anchor="middle" x="400.88" y="-79" font-family="Helvetica,sans-Serif" font-size="10.00" fill="grey"> m_ProbabilityCache</text>
</g>
<!-- Node6 -->
<g id="Node000006" class="node">
<title>Node6</title>
<g id="a_Node000006"><a xlink:href="../../dc/d00/structml_1_1maths_1_1common_1_1_s_anomaly_score_explanation.html" target="_top" xlink:title="Describes the impact of different factors on the anomaly score.">
<polygon fill="white" stroke="#666666" points="307.88,-30.5 170.38,-30.5 170.38,0 307.88,0 307.88,-30.5"/>
<text text-anchor="start" x="178.38" y="-17" font-family="Helvetica,sans-Serif" font-size="10.00">ml::maths::common::</text>
<text text-anchor="middle" x="239.12" y="-5.75" font-family="Helvetica,sans-Serif" font-size="10.00">SAnomalyScoreExplanation</text>
</a>
</g>
</g>
<!-- Node6&#45;&gt;Node1 -->
<g id="edge5_Node000001_Node000006" class="edge">
<title>Node6&#45;&gt;Node1</title>
<g id="a_edge5_Node000001_Node000006"><a xlink:title=" ">
<path fill="none" stroke="#9a32cd" stroke-dasharray="5,2" d="M319.52,-24.15C363.37,-30.15 418.52,-39.47 466.5,-53 483.58,-57.82 501.92,-64.98 517.14,-71.5"/>
<polygon fill="#9a32cd" stroke="#9a32cd" points="320.21,-20.71 309.84,-22.86 319.29,-27.65 320.21,-20.71"/>
</a>
</g>
<text text-anchor="middle" x="400.88" y="-54" font-family="Helvetica,sans-Serif" font-size="10.00" fill="grey"> m_AnomalyScoreExplanation</text>
</g>
</g>
</svg>

<g id="navigator" transform="translate(0 0)" fill="#404254">
  <rect fill="#f2f5e9" fill-opacity="0.5" stroke="#606060" stroke-width=".5" x="0" y="0" width="60" height="60"/>
  <use id="zoomplus" xlink:href="#zoomPlus" x="17" y="9" onmousedown="handleZoom(evt,'in')"/>
  <use id="zoomminus" xlink:href="#zoomMin" x="42" y="9" onmousedown="handleZoom(evt,'out')"/>
  <use id="reset" xlink:href="#resetDef" x="30" y="36" onmousedown="handleReset()"/>
   <use id="arrowup" xlink:href="#arrowUp" x="0" y="0" onmousedown="handlePan(0,-1)"/>
  <use id="arrowright" xlink:href="#arrowRight" x="0" y="0" onmousedown="handlePan(1,0)"/>
  <use id="arrowdown" xlink:href="#arrowDown" x="0" y="0" onmousedown="handlePan(0,1)"/>
  <use id="arrowleft" xlink:href="#arrowLeft" x="0" y="0" onmousedown="handlePan(-1,0)"/>
</g>
<svg viewBox="0 0 15 15" width="100%" height="30px" preserveAspectRatio="xMaxYMin meet">
 <g id="arrow_out" transform="scale(0.3 0.3)">
  <a xlink:href="classml_1_1model_1_1_c_probability_and_influence_calculator__coll__graph_org.svg" target="_base">
   <rect id="button" ry="5" rx="5" y="6" x="6" height="38" width="38"
        fill="#f2f5e9" fill-opacity="0.5" stroke="#606060" stroke-width="1.0"/>
   <path id="arrow"
     d="M 11.500037,31.436501 C 11.940474,20.09759 22.043105,11.32322 32.158766,21.979434 L 37.068811,17.246167 C 37.068811,17.246167 37.088388,32 37.088388,32 L 22.160133,31.978069 C 22.160133,31.978069 26.997745,27.140456 26.997745,27.140456 C 18.528582,18.264221 13.291696,25.230495 11.500037,31.436501 z"
     style="fill:#404040;"/>
  </a>
 </g>
</svg>

<style type='text/css'>
<![CDATA[
[data-mouse-over-selected='false'] { opacity: 0.7; }
[data-mouse-over-selected='true']  { opacity: 1.0; }
]]>
</style>
<script type="application/ecmascript"><![CDATA[
document.addEventListener('DOMContentLoaded', (event) => {
  highlightEdges();
  highlightAdjacentNodes();
});
]]></script>
</svg>
