<?xml version="1.0" encoding="UTF-8" standalone="no"?>
<!DOCTYPE svg PUBLIC "-//W3C//DTD SVG 1.1//EN"
 "http://www.w3.org/Graphics/SVG/1.1/DTD/svg11.dtd">
<!-- Generated by graphviz version 10.0.1 (20240210.2158)
 -->
<!-- Title: ml::core::CVectorRange::pop_back Pages: 1 -->
<svg width="309pt" height="76pt"
 viewBox="0.00 0.00 309.25 75.88" xmlns="http://www.w3.org/2000/svg" xmlns:xlink="http://www.w3.org/1999/xlink">
<g id="graph0" class="graph" transform="scale(1 1) rotate(0) translate(4 71.88)">
<title>ml::core::CVectorRange::pop_back</title>
<!-- Node1 -->
<g id="Node000001" class="node">
<title>Node1</title>
<g id="a_Node000001"><a xlink:title=" ">
<polygon fill="#999999" stroke="#666666" points="121.75,-51.5 0,-51.5 0,-21 121.75,-21 121.75,-51.5"/>
<text text-anchor="start" x="8" y="-38" font-family="Helvetica,sans-Serif" font-size="10.00">ml::core::CVectorRange</text>
<text text-anchor="middle" x="60.88" y="-26.75" font-family="Helvetica,sans-Serif" font-size="10.00">::pop_back</text>
</a>
</g>
</g>
<!-- Node2 -->
<g id="Node000002" class="node">
<title>Node2</title>
<g id="a_Node000002"><a xlink:href="../../d6/db2/classml_1_1core_1_1_c_vector_range.html#ab6fbb4bab268325e51ba4f5230174cef" target="_top" xlink:title="Input iterator to end of range.">
<polygon fill="white" stroke="#666666" points="301.25,-67.88 157.75,-67.88 157.75,-48.62 301.25,-48.62 301.25,-67.88"/>
<text text-anchor="middle" x="229.5" y="-54.38" font-family="Helvetica,sans-Serif" font-size="10.00">ml::core::CVectorRange::end</text>
</a>
</g>
</g>
<!-- Node1&#45;&gt;Node2 -->
<g id="edge1_Node000001_Node000002" class="edge">
<title>Node1&#45;&gt;Node2</title>
<g id="a_edge1_Node000001_Node000002"><a xlink:title=" ">
<path fill="none" stroke="#63b8ff" d="M122.03,-44.19C129.82,-45.22 137.91,-46.29 145.99,-47.36"/>
<polygon fill="#63b8ff" stroke="#63b8ff" points="145.5,-50.82 155.87,-48.66 146.41,-43.88 145.5,-50.82"/>
</a>
</g>
</g>
<!-- Node3 -->
<g id="Node000003" class="node">
<title>Node3</title>
<g id="a_Node000003"><a xlink:href="../../d6/db2/classml_1_1core_1_1_c_vector_range.html#ae83b260eb8c1a6509387f5368ad89981" target="_top" xlink:title="Remove the element at pos.">
<polygon fill="white" stroke="#666666" points="290.38,-30.5 168.62,-30.5 168.62,0 290.38,0 290.38,-30.5"/>
<text text-anchor="start" x="176.62" y="-17" font-family="Helvetica,sans-Serif" font-size="10.00">ml::core::CVectorRange</text>
<text text-anchor="middle" x="229.5" y="-5.75" font-family="Helvetica,sans-Serif" font-size="10.00">::erase</text>
</a>
</g>
</g>
<!-- Node1&#45;&gt;Node3 -->
<g id="edge2_Node000001_Node000003" class="edge">
<title>Node1&#45;&gt;Node3</title>
<g id="a_edge2_Node000001_Node000003"><a xlink:title=" ">
<path fill="none" stroke="#63b8ff" d="M122.03,-28.67C133.4,-27.24 145.4,-25.72 157.08,-24.25"/>
<polygon fill="#63b8ff" stroke="#63b8ff" points="157.17,-27.77 166.65,-23.04 156.29,-20.82 157.17,-27.77"/>
</a>
</g>
</g>
</g>
</svg>
