<?xml version="1.0" encoding="UTF-8" standalone="no"?>
<!DOCTYPE svg PUBLIC "-//W3C//DTD SVG 1.1//EN"
 "http://www.w3.org/Graphics/SVG/1.1/DTD/svg11.dtd">
<!-- Generated by graphviz version 10.0.1 (20240210.2158)
 -->
<!-- Title: ml::core::CMemoryUsage::compress Pages: 1 -->
<svg width="321pt" height="76pt"
 viewBox="0.00 0.00 320.50 75.88" xmlns="http://www.w3.org/2000/svg" xmlns:xlink="http://www.w3.org/1999/xlink">
<g id="graph0" class="graph" transform="scale(1 1) rotate(0) translate(4 71.88)">
<title>ml::core::CMemoryUsage::compress</title>
<!-- Node1 -->
<g id="Node000001" class="node">
<title>Node1</title>
<g id="a_Node000001"><a xlink:title="Aggregate big collections of child items together.">
<polygon fill="#999999" stroke="#666666" points="312.5,-51.5 184,-51.5 184,-21 312.5,-21 312.5,-51.5"/>
<text text-anchor="start" x="192" y="-38" font-family="Helvetica,sans-Serif" font-size="10.00">ml::core::CMemoryUsage</text>
<text text-anchor="middle" x="248.25" y="-26.75" font-family="Helvetica,sans-Serif" font-size="10.00">::compress</text>
</a>
</g>
</g>
<!-- Node2 -->
<g id="Node000002" class="node">
<title>Node2</title>
<g id="a_Node000002"><a xlink:href="../../d6/d9f/_c_memory_usage_test_8cc.html#a05629f5dad30d393081509ff6c2dcab1" target="_top" xlink:title=" ">
<polygon fill="white" stroke="#666666" points="147.62,-67.88 0.38,-67.88 0.38,-48.62 147.62,-48.62 147.62,-67.88"/>
<text text-anchor="middle" x="74" y="-54.38" font-family="Helvetica,sans-Serif" font-size="10.00">BOOST_AUTO_TEST_CASE</text>
</a>
</g>
</g>
<!-- Node1&#45;&gt;Node2 -->
<g id="edge1_Node000001_Node000002" class="edge">
<title>Node1&#45;&gt;Node2</title>
<g id="a_edge1_Node000001_Node000002"><a xlink:title=" ">
<path fill="none" stroke="#63b8ff" d="M172.31,-45.82C164.24,-46.85 156.03,-47.9 147.98,-48.93"/>
<polygon fill="#63b8ff" stroke="#63b8ff" points="172.62,-49.31 182.1,-44.57 171.74,-42.37 172.62,-49.31"/>
</a>
</g>
</g>
<!-- Node3 -->
<g id="Node000003" class="node">
<title>Node3</title>
<g id="a_Node000003"><a xlink:href="../../da/de5/classml_1_1model_1_1_c_anomaly_detector.html#ae10b818992248fb6db9129e90a5ccebd" target="_top" xlink:title="Print the detector memory usage to the given stream.">
<polygon fill="white" stroke="#666666" points="148,-30.5 0,-30.5 0,0 148,0 148,-30.5"/>
<text text-anchor="start" x="8" y="-17" font-family="Helvetica,sans-Serif" font-size="10.00">ml::model::CAnomalyDetector</text>
<text text-anchor="middle" x="74" y="-5.75" font-family="Helvetica,sans-Serif" font-size="10.00">::showMemoryUsage</text>
</a>
</g>
</g>
<!-- Node1&#45;&gt;Node3 -->
<g id="edge2_Node000001_Node000003" class="edge">
<title>Node1&#45;&gt;Node3</title>
<g id="a_edge2_Node000001_Node000003"><a xlink:title=" ">
<path fill="none" stroke="#63b8ff" d="M172.4,-27.12C164.4,-26.15 156.26,-25.16 148.28,-24.18"/>
<polygon fill="#63b8ff" stroke="#63b8ff" points="171.75,-30.57 182.1,-28.31 172.59,-23.62 171.75,-30.57"/>
</a>
</g>
</g>
</g>
</svg>
