<?xml version="1.0" encoding="UTF-8" standalone="no"?>
<!DOCTYPE svg PUBLIC "-//W3C//DTD SVG 1.1//EN"
 "http://www.w3.org/Graphics/SVG/1.1/DTD/svg11.dtd">
<!-- Generated by graphviz version 10.0.1 (20240210.2158)
 -->
<!-- Title: ml::maths::common::CBayesianOptimisation::maximumExpectedImprovement Pages: 1 -->
<!--zoomable 1119 -->

<svg id="main" version="1.1" xmlns="http://www.w3.org/2000/svg" xmlns:xlink="http://www.w3.org/1999/xlink" xml:space="preserve" onload="init(evt)">
<style type="text/css"><![CDATA[
.node, .edge {opacity: 0.7;}
.node.selected, .edge.selected {opacity: 1;}
.edge:hover path { stroke: red; }
.edge:hover polygon { stroke: red; fill: red; }
]]></style>

<defs>
  <circle id="rim" cx="0" cy="0" r="7"/>
  <circle id="rim2" cx="0" cy="0" r="3.5"/>
  <g id="zoomPlus">
    <use xlink:href="#rim" fill="#404040"><set attributeName="fill" to="#808080" begin="zoomplus.mouseover" end="zoomplus.mouseout"/></use>
    <path d="M-4,0h8M0,-4v8" fill="none" stroke="white" stroke-width="1.5" pointer-events="none"/>
  </g>
  <g id="zoomMin">
    <use xlink:href="#rim" fill="#404040"><set attributeName="fill" to="#808080" begin="zoomminus.mouseover" end="zoomminus.mouseout"/></use>
    <path d="M-4,0h8" fill="none" stroke="white" stroke-width="1.5" pointer-events="none"/>
  </g>
  <g id="arrowUp" transform="translate(30 24)">
    <use xlink:href="#rim"/>
    <path pointer-events="none" fill="none" stroke="white" stroke-width="1.5" d="M0,-3.0v7 M-2.5,-0.5L0,-3.0L2.5,-0.5"/>
  </g>
  <g id="arrowRight" transform="rotate(90) translate(36 -43)">
    <use xlink:href="#rim"/>
    <path pointer-events="none" fill="none" stroke="white" stroke-width="1.5" d="M0,-3.0v7 M-2.5,-0.5L0,-3.0L2.5,-0.5"/>
  </g>
  <g id="arrowDown" transform="rotate(180) translate(-30 -48)">
    <use xlink:href="#rim"/>
    <path pointer-events="none" fill="none" stroke="white" stroke-width="1.5" d="M0,-3.0v7 M-2.5,-0.5L0,-3.0L2.5,-0.5"/>
  </g>
  <g id="arrowLeft" transform="rotate(270) translate(-36 17)">
    <use xlink:href="#rim"/>
    <path pointer-events="none" fill="none" stroke="white" stroke-width="1.5" d="M0,-3.0v7 M-2.5,-0.5L0,-3.0L2.5,-0.5"/>
  </g>
  <g id="resetDef">
    <use xlink:href="#rim2" fill="#404040"><set attributeName="fill" to="#808080" begin="reset.mouseover" end="reset.mouseout"/></use>
  </g>
</defs>
<script type="application/ecmascript">
var viewWidth = 1069;
var viewHeight = 1119;
var sectionId = 'dynsection-43';
</script>
<script type="application/ecmascript" xlink:href="../../svg.min.js"/>
<svg id="graph" class="graph">
<g id="viewport">
<title>ml::maths::common::CBayesianOptimisation::maximumExpectedImprovement</title>
<!-- Node1 -->
<g id="Node000001" class="node">
<title>Node1</title>
<g id="a_Node000001"><a xlink:title=" ">
<polygon fill="#999999" stroke="#666666" points="163,-498.12 0,-498.12 0,-456.38 163,-456.38 163,-498.12"/>
<text text-anchor="start" x="8" y="-484.62" font-family="Helvetica,sans-Serif" font-size="10.00">ml::maths::common::</text>
<text text-anchor="start" x="8" y="-473.38" font-family="Helvetica,sans-Serif" font-size="10.00">CBayesianOptimisation</text>
<text text-anchor="middle" x="81.5" y="-462.12" font-family="Helvetica,sans-Serif" font-size="10.00">::maximumExpectedImprovement</text>
</a>
</g>
</g>
<!-- Node2 -->
<g id="Node000002" class="node">
<title>Node2</title>
<g id="a_Node000002"><a xlink:href="../../dc/dbb/structml_1_1maths_1_1common_1_1_c_basic_statistics_1_1_s_sample_central_moments.html#acc61d392a0de1c035fe149a84fd252ca" target="_top" xlink:title="Update the moments with the collection x.">
<polygon fill="white" stroke="#666666" points="743.5,-487.12 576.75,-487.12 576.75,-445.38 743.5,-445.38 743.5,-487.12"/>
<text text-anchor="start" x="584.75" y="-473.62" font-family="Helvetica,sans-Serif" font-size="10.00">ml::maths::common::</text>
<text text-anchor="start" x="584.75" y="-462.38" font-family="Helvetica,sans-Serif" font-size="10.00">CBasicStatistics::SSampleCentral</text>
<text text-anchor="middle" x="660.12" y="-451.12" font-family="Helvetica,sans-Serif" font-size="10.00">Moments::add</text>
</a>
</g>
</g>
<!-- Node1&#45;&gt;Node2 -->
<g id="edge1_Node000001_Node000002" class="edge">
<title>Node1&#45;&gt;Node2</title>
<g id="a_edge1_Node000001_Node000002"><a xlink:title=" ">
<path fill="none" stroke="#63b8ff" d="M163.28,-475.71C268.91,-473.69 453.61,-470.17 565.31,-468.04"/>
<polygon fill="#63b8ff" stroke="#63b8ff" points="565.11,-471.54 575.04,-467.85 564.98,-464.55 565.11,-471.54"/>
</a>
</g>
</g>
<!-- Node3 -->
<g id="Node000003" class="node">
<title>Node3</title>
<g id="a_Node000003"><a xlink:href="../../d1/d92/classml_1_1maths_1_1common_1_1_c_bayesian_optimisation.html#ad39c80082ef1364256b5d2bbe715350c" target="_top" xlink:title=" ">
<polygon fill="white" stroke="#666666" points="515.25,-1073.12 396.5,-1073.12 396.5,-1031.38 515.25,-1031.38 515.25,-1073.12"/>
<text text-anchor="start" x="404.5" y="-1059.62" font-family="Helvetica,sans-Serif" font-size="10.00">ml::maths::common::</text>
<text text-anchor="start" x="404.5" y="-1048.38" font-family="Helvetica,sans-Serif" font-size="10.00">CBayesianOptimisation</text>
<text text-anchor="middle" x="455.88" y="-1037.12" font-family="Helvetica,sans-Serif" font-size="10.00">::dissimilarity</text>
</a>
</g>
</g>
<!-- Node1&#45;&gt;Node3 -->
<g id="edge2_Node000001_Node000003" class="edge">
<title>Node1&#45;&gt;Node3</title>
<g id="a_edge2_Node000001_Node000003"><a xlink:title=" ">
<path fill="none" stroke="#63b8ff" d="M94.5,-498.5C115.17,-534.89 159.14,-611.31 199,-674.25 282.48,-806.07 388.91,-958.72 433.6,-1022.18"/>
<polygon fill="#63b8ff" stroke="#63b8ff" points="430.49,-1023.84 439.12,-1030 436.21,-1019.81 430.49,-1023.84"/>
</a>
</g>
</g>
<!-- Node7 -->
<g id="Node000007" class="node">
<title>Node7</title>
<g id="a_Node000007"><a xlink:href="../../d1/d92/classml_1_1maths_1_1common_1_1_c_bayesian_optimisation.html#ae22a6c0548bf9df2f4c71b63434bd5da" target="_top" xlink:title=" ">
<polygon fill="white" stroke="#666666" points="326.38,-90.12 207.62,-90.12 207.62,-48.38 326.38,-48.38 326.38,-90.12"/>
<text text-anchor="start" x="215.62" y="-76.62" font-family="Helvetica,sans-Serif" font-size="10.00">ml::maths::common::</text>
<text text-anchor="start" x="215.62" y="-65.38" font-family="Helvetica,sans-Serif" font-size="10.00">CBayesianOptimisation</text>
<text text-anchor="middle" x="267" y="-54.12" font-family="Helvetica,sans-Serif" font-size="10.00">::from01</text>
</a>
</g>
</g>
<!-- Node1&#45;&gt;Node7 -->
<g id="edge6_Node000001_Node000007" class="edge">
<title>Node1&#45;&gt;Node7</title>
<g id="a_edge6_Node000001_Node000007"><a xlink:title=" ">
<path fill="none" stroke="#63b8ff" d="M83.58,-456.04C87.78,-394.54 107.65,-213.58 199,-104.25 201.05,-101.8 203.32,-99.49 205.74,-97.33"/>
<polygon fill="#63b8ff" stroke="#63b8ff" points="207.56,-100.35 213.31,-91.46 203.26,-94.82 207.56,-100.35"/>
</a>
</g>
</g>
<!-- Node8 -->
<g id="Node000008" class="node">
<title>Node8</title>
<g id="a_Node000008"><a xlink:href="../../dd/dc8/classml_1_1maths_1_1common_1_1_c_maths_funcs.html#ab52348364d83f5ba2b81c8caa25544c5" target="_top" xlink:title="Neither infinite nor NaN.">
<polygon fill="white" stroke="#666666" points="324.5,-30.5 209.5,-30.5 209.5,0 324.5,0 324.5,-30.5"/>
<text text-anchor="start" x="217.5" y="-17" font-family="Helvetica,sans-Serif" font-size="10.00">ml::maths::common::</text>
<text text-anchor="middle" x="267" y="-5.75" font-family="Helvetica,sans-Serif" font-size="10.00">CMathsFuncs::isFinite</text>
</a>
</g>
</g>
<!-- Node1&#45;&gt;Node8 -->
<g id="edge7_Node000001_Node000008" class="edge">
<title>Node1&#45;&gt;Node8</title>
<g id="a_edge7_Node000001_Node000008"><a xlink:title=" ">
<path fill="none" stroke="#63b8ff" d="M85.52,-455.88C97.09,-376.87 140.82,-102.53 199,-39.25 199.47,-38.74 199.95,-38.24 200.45,-37.75"/>
<polygon fill="#63b8ff" stroke="#63b8ff" points="202.46,-40.62 208.09,-31.65 198.09,-35.15 202.46,-40.62"/>
</a>
</g>
</g>
<!-- Node9 -->
<g id="Node000009" class="node">
<title>Node9</title>
<g id="a_Node000009"><a xlink:href="../../d1/d92/classml_1_1maths_1_1common_1_1_c_bayesian_optimisation.html#a5ca70926f9908916ada88324e7249188" target="_top" xlink:title="Compute the maximum likelihood kernel parameters.">
<polygon fill="white" stroke="#666666" points="335,-370.12 199,-370.12 199,-328.38 335,-328.38 335,-370.12"/>
<text text-anchor="start" x="207" y="-356.62" font-family="Helvetica,sans-Serif" font-size="10.00">ml::maths::common::</text>
<text text-anchor="start" x="207" y="-345.38" font-family="Helvetica,sans-Serif" font-size="10.00">CBayesianOptimisation</text>
<text text-anchor="middle" x="267" y="-334.12" font-family="Helvetica,sans-Serif" font-size="10.00">::maximumLikelihoodKernel</text>
</a>
</g>
</g>
<!-- Node1&#45;&gt;Node9 -->
<g id="edge8_Node000001_Node000009" class="edge">
<title>Node1&#45;&gt;Node9</title>
<g id="a_edge8_Node000001_Node000009"><a xlink:title=" ">
<path fill="none" stroke="#63b8ff" d="M112.8,-456.11C143.88,-434.44 192.36,-400.61 226.45,-376.84"/>
<polygon fill="#63b8ff" stroke="#63b8ff" points="228.21,-379.88 234.41,-371.28 224.21,-374.13 228.21,-379.88"/>
</a>
</g>
</g>
<!-- Node18 -->
<g id="Node000018" class="node">
<title>Node18</title>
<g id="a_Node000018"><a xlink:href="../../dd/d55/classml_1_1maths_1_1common_1_1_c_tools.html#aa0600053da91719428498ec9968916c3" target="_top" xlink:title="Compute .">
<polygon fill="white" stroke="#666666" points="1060.5,-711.5 951.5,-711.5 951.5,-681 1060.5,-681 1060.5,-711.5"/>
<text text-anchor="start" x="959.5" y="-698" font-family="Helvetica,sans-Serif" font-size="10.00">ml::maths::common::</text>
<text text-anchor="middle" x="1006" y="-686.75" font-family="Helvetica,sans-Serif" font-size="10.00">CTools::pow2</text>
</a>
</g>
</g>
<!-- Node1&#45;&gt;Node18 -->
<g id="edge49_Node000001_Node000018" class="edge">
<title>Node1&#45;&gt;Node18</title>
<g id="a_edge49_Node000001_Node000018"><a xlink:title=" ">
<path fill="none" stroke="#63b8ff" d="M91.62,-456.13C126.42,-379.18 258.89,-118.25 454.88,-118.25 454.88,-118.25 454.88,-118.25 661.12,-118.25 779.38,-118.25 837.07,-107.75 915.5,-196.25 978.83,-267.71 999.06,-576.03 1003.79,-669.37"/>
<polygon fill="#63b8ff" stroke="#63b8ff" points="1000.29,-669.51 1004.27,-679.33 1007.28,-669.17 1000.29,-669.51"/>
</a>
</g>
</g>
<!-- Node20 -->
<g id="Node000020" class="node">
<title>Node20</title>
<g id="a_Node000020"><a xlink:href="../../d1/d92/classml_1_1maths_1_1common_1_1_c_bayesian_optimisation.html#ae8bd58620b57c40bf70bc798d3a17203" target="_top" xlink:title=" ">
<polygon fill="white" stroke="#666666" points="719.5,-633.12 600.75,-633.12 600.75,-591.38 719.5,-591.38 719.5,-633.12"/>
<text text-anchor="start" x="608.75" y="-619.62" font-family="Helvetica,sans-Serif" font-size="10.00">ml::maths::common::</text>
<text text-anchor="start" x="608.75" y="-608.38" font-family="Helvetica,sans-Serif" font-size="10.00">CBayesianOptimisation</text>
<text text-anchor="middle" x="660.12" y="-597.12" font-family="Helvetica,sans-Serif" font-size="10.00">::meanErrorVariance</text>
</a>
</g>
</g>
<!-- Node1&#45;&gt;Node20 -->
<g id="edge37_Node000001_Node000020" class="edge">
<title>Node1&#45;&gt;Node20</title>
<g id="a_edge37_Node000001_Node000020"><a xlink:title=" ">
<path fill="none" stroke="#63b8ff" d="M123.62,-498.53C145.51,-509.1 173.18,-521.29 199,-529.25 333.82,-570.83 497.68,-594.21 588.99,-604.94"/>
<polygon fill="#63b8ff" stroke="#63b8ff" points="588.47,-608.4 598.8,-606.07 589.27,-601.44 588.47,-608.4"/>
</a>
</g>
</g>
<!-- Node21 -->
<g id="Node000021" class="node">
<title>Node21</title>
<g id="a_Node000021"><a xlink:href="../../d4/d55/classml_1_1maths_1_1common_1_1_c_basic_statistics.html#a9a136b1823e9938247cd29bb0ffea440" target="_top" xlink:title="Compute the mean of a pair.">
<polygon fill="white" stroke="#666666" points="907.25,-530.5 787.75,-530.5 787.75,-500 907.25,-500 907.25,-530.5"/>
<text text-anchor="start" x="795.75" y="-517" font-family="Helvetica,sans-Serif" font-size="10.00">ml::maths::common::</text>
<text text-anchor="middle" x="847.5" y="-505.75" font-family="Helvetica,sans-Serif" font-size="10.00">CBasicStatistics::mean</text>
</a>
</g>
</g>
<!-- Node1&#45;&gt;Node21 -->
<g id="edge36_Node000001_Node000021" class="edge">
<title>Node1&#45;&gt;Node21</title>
<g id="a_edge36_Node000001_Node000021"><a xlink:title=" ">
<path fill="none" stroke="#63b8ff" d="M163.31,-484.63C175.27,-485.6 187.45,-486.51 199,-487.25 408.73,-500.78 657.1,-509.47 776.08,-513.18"/>
<polygon fill="#63b8ff" stroke="#63b8ff" points="775.92,-516.68 786.02,-513.49 776.13,-509.68 775.92,-516.68"/>
</a>
</g>
</g>
<!-- Node28 -->
<g id="Node000028" class="node">
<title>Node28</title>
<g id="a_Node000028"><a xlink:href="../../d1/d92/classml_1_1maths_1_1common_1_1_c_bayesian_optimisation.html#ae12a0fedd9f76f818a2de29eb297f491" target="_top" xlink:title=" ">
<polygon fill="white" stroke="#666666" points="537.75,-869.75 374,-869.75 374,-816.75 537.75,-816.75 537.75,-869.75"/>
<text text-anchor="start" x="382" y="-856.25" font-family="Helvetica,sans-Serif" font-size="10.00">ml::maths::common::</text>
<text text-anchor="start" x="382" y="-845" font-family="Helvetica,sans-Serif" font-size="10.00">CBayesianOptimisation</text>
<text text-anchor="start" x="382" y="-833.75" font-family="Helvetica,sans-Serif" font-size="10.00">::minusExpectedImprovementAnd</text>
<text text-anchor="middle" x="455.88" y="-822.5" font-family="Helvetica,sans-Serif" font-size="10.00">Gradient</text>
</a>
</g>
</g>
<!-- Node1&#45;&gt;Node28 -->
<g id="edge38_Node000001_Node000028" class="edge">
<title>Node1&#45;&gt;Node28</title>
<g id="a_edge38_Node000001_Node000028"><a xlink:title=" ">
<path fill="none" stroke="#63b8ff" d="M104.13,-498.51C165.91,-559.23 343.58,-733.86 419.64,-808.62"/>
<polygon fill="#63b8ff" stroke="#63b8ff" points="416.87,-810.81 426.46,-815.32 421.78,-805.81 416.87,-810.81"/>
</a>
</g>
</g>
<!-- Node4 -->
<g id="Node000004" class="node">
<title>Node4</title>
<g id="a_Node000004"><a xlink:href="../../db/d5d/namespaceml_1_1maths_1_1common_1_1las.html#a4e786dc51dafb50d3686bbb5dbfa7623" target="_top" xlink:title="Euclidean distance implementation for one of our internal vectors.">
<polygon fill="white" stroke="#666666" points="714.62,-1110.5 605.62,-1110.5 605.62,-1080 714.62,-1080 714.62,-1110.5"/>
<text text-anchor="start" x="613.62" y="-1097" font-family="Helvetica,sans-Serif" font-size="10.00">ml::maths::common::</text>
<text text-anchor="middle" x="660.12" y="-1085.75" font-family="Helvetica,sans-Serif" font-size="10.00">las::distance</text>
</a>
</g>
</g>
<!-- Node3&#45;&gt;Node4 -->
<g id="edge3_Node000003_Node000004" class="edge">
<title>Node3&#45;&gt;Node4</title>
<g id="a_edge3_Node000003_Node000004"><a xlink:title=" ">
<path fill="none" stroke="#63b8ff" d="M515.65,-1064.75C540.33,-1069.99 569.13,-1076.12 594.42,-1081.49"/>
<polygon fill="#63b8ff" stroke="#63b8ff" points="593.41,-1084.86 603.91,-1083.51 594.86,-1078.01 593.41,-1084.86"/>
</a>
</g>
</g>
<!-- Node6 -->
<g id="Node000006" class="node">
<title>Node6</title>
<g id="a_Node000006"><a xlink:href="../../d6/dd5/namespaceml_1_1maths_1_1common.html#ad2c1dddb40aa1fe32aab4fb6c320b595" target="_top" xlink:title="Overload minimum for CVectorNx1.">
<polygon fill="white" stroke="#666666" points="722.5,-1061.88 597.75,-1061.88 597.75,-1042.62 722.5,-1042.62 722.5,-1061.88"/>
<text text-anchor="middle" x="660.12" y="-1048.38" font-family="Helvetica,sans-Serif" font-size="10.00">ml::maths::common::min</text>
</a>
</g>
</g>
<!-- Node3&#45;&gt;Node6 -->
<g id="edge5_Node000003_Node000006" class="edge">
<title>Node3&#45;&gt;Node6</title>
<g id="a_edge5_Node000003_Node000006"><a xlink:title=" ">
<path fill="none" stroke="#63b8ff" d="M515.65,-1052.25C537.6,-1052.25 562.8,-1052.25 585.89,-1052.25"/>
<polygon fill="#63b8ff" stroke="#63b8ff" points="585.88,-1055.75 595.88,-1052.25 585.88,-1048.75 585.88,-1055.75"/>
</a>
</g>
</g>
<!-- Node5 -->
<g id="Node000005" class="node">
<title>Node5</title>
<g id="a_Node000005"><a xlink:href="../../db/d5d/namespaceml_1_1maths_1_1common_1_1las.html#a92aae861f23cd3021cc276aeb9dbf89d" target="_top" xlink:title="Get the dimension of one of our internal vectors.">
<polygon fill="white" stroke="#666666" points="902,-1067.5 793,-1067.5 793,-1037 902,-1037 902,-1067.5"/>
<text text-anchor="start" x="801" y="-1054" font-family="Helvetica,sans-Serif" font-size="10.00">ml::maths::common::</text>
<text text-anchor="middle" x="847.5" y="-1042.75" font-family="Helvetica,sans-Serif" font-size="10.00">las::dimension</text>
</a>
</g>
</g>
<!-- Node4&#45;&gt;Node5 -->
<g id="edge4_Node000004_Node000005" class="edge">
<title>Node4&#45;&gt;Node5</title>
<g id="a_edge4_Node000004_Node000005"><a xlink:title=" ">
<path fill="none" stroke="#63b8ff" d="M714.74,-1082.81C735.6,-1077.98 759.68,-1072.39 781.5,-1067.33"/>
<polygon fill="#63b8ff" stroke="#63b8ff" points="782.26,-1070.75 791.21,-1065.08 780.67,-1063.93 782.26,-1070.75"/>
</a>
</g>
</g>
<!-- Node10 -->
<g id="Node000010" class="node">
<title>Node10</title>
<g id="a_Node000010"><a xlink:href="../../dc/d5c/classml_1_1maths_1_1common_1_1_c_orderings.html#a5a201aef02e6c31059f2ce7699456e60" target="_top" xlink:title="Calls lexicographicalCompareWith supplying std::less&lt;&gt; for comparison.">
<polygon fill="white" stroke="#666666" points="523.88,-292.12 387.88,-292.12 387.88,-250.38 523.88,-250.38 523.88,-292.12"/>
<text text-anchor="start" x="395.88" y="-278.62" font-family="Helvetica,sans-Serif" font-size="10.00">ml::maths::common::</text>
<text text-anchor="start" x="395.88" y="-267.38" font-family="Helvetica,sans-Serif" font-size="10.00">COrderings::lexicographical</text>
<text text-anchor="middle" x="455.88" y="-256.12" font-family="Helvetica,sans-Serif" font-size="10.00">Compare</text>
</a>
</g>
</g>
<!-- Node9&#45;&gt;Node10 -->
<g id="edge9_Node000009_Node000010" class="edge">
<title>Node9&#45;&gt;Node10</title>
<g id="a_edge9_Node000009_Node000010"><a xlink:title=" ">
<path fill="none" stroke="#63b8ff" d="M311.46,-327.91C329.68,-319.25 351.2,-309.38 371,-301.25 374.8,-299.69 378.71,-298.13 382.68,-296.59"/>
<polygon fill="#63b8ff" stroke="#63b8ff" points="383.73,-299.93 391.83,-293.1 381.24,-293.39 383.73,-299.93"/>
</a>
</g>
</g>
<!-- Node13 -->
<g id="Node000013" class="node">
<title>Node13</title>
<g id="a_Node000013"><a xlink:href="../../dd/d55/classml_1_1maths_1_1common_1_1_c_tools.html#aa109a900bcefae1f4d36f8b89d71d93a" target="_top" xlink:title="Linearly interpolate a function on the interval [a, b].">
<polygon fill="white" stroke="#666666" points="520.5,-340.5 391.25,-340.5 391.25,-310 520.5,-310 520.5,-340.5"/>
<text text-anchor="start" x="399.25" y="-327" font-family="Helvetica,sans-Serif" font-size="10.00">ml::maths::common::</text>
<text text-anchor="middle" x="455.88" y="-315.75" font-family="Helvetica,sans-Serif" font-size="10.00">CTools::linearlyInterpolate</text>
</a>
</g>
</g>
<!-- Node9&#45;&gt;Node13 -->
<g id="edge13_Node000009_Node000013" class="edge">
<title>Node9&#45;&gt;Node13</title>
<g id="a_edge13_Node000009_Node000013"><a xlink:title=" ">
<path fill="none" stroke="#63b8ff" d="M335.47,-340.59C349.88,-338.73 365.19,-336.77 379.86,-334.88"/>
<polygon fill="#63b8ff" stroke="#63b8ff" points="379.97,-338.4 389.44,-333.65 379.07,-331.46 379.97,-338.4"/>
</a>
</g>
</g>
<!-- Node15 -->
<g id="Node000015" class="node">
<title>Node15</title>
<g id="a_Node000015"><a xlink:href="../../d1/d92/classml_1_1maths_1_1common_1_1_c_bayesian_optimisation.html#a5e1b086ca80daefce8765bc99ed77ae7" target="_top" xlink:title=" ">
<polygon fill="white" stroke="#666666" points="528.75,-663.12 383,-663.12 383,-621.38 528.75,-621.38 528.75,-663.12"/>
<text text-anchor="start" x="391" y="-649.62" font-family="Helvetica,sans-Serif" font-size="10.00">ml::maths::common::</text>
<text text-anchor="start" x="391" y="-638.38" font-family="Helvetica,sans-Serif" font-size="10.00">CBayesianOptimisation</text>
<text text-anchor="middle" x="455.88" y="-627.12" font-family="Helvetica,sans-Serif" font-size="10.00">::minusLikelihoodAndGradient</text>
</a>
</g>
</g>
<!-- Node9&#45;&gt;Node15 -->
<g id="edge16_Node000009_Node000015" class="edge">
<title>Node9&#45;&gt;Node15</title>
<g id="a_edge16_Node000009_Node000015"><a xlink:title=" ">
<path fill="none" stroke="#63b8ff" d="M281.44,-370.32C313.95,-421.3 396.99,-551.5 435.15,-611.33"/>
<polygon fill="#63b8ff" stroke="#63b8ff" points="432.16,-613.15 440.49,-619.7 438.07,-609.39 432.16,-613.15"/>
</a>
</g>
</g>
<!-- Node23 -->
<g id="Node000023" class="node">
<title>Node23</title>
<g id="a_Node000023"><a xlink:href="../../d1/d92/classml_1_1maths_1_1common_1_1_c_bayesian_optimisation.html#a7f8ac7deefb524098468e89c8ed1cc3d" target="_top" xlink:title=" ">
<polygon fill="white" stroke="#666666" points="515.25,-449.12 396.5,-449.12 396.5,-407.38 515.25,-407.38 515.25,-449.12"/>
<text text-anchor="start" x="404.5" y="-435.62" font-family="Helvetica,sans-Serif" font-size="10.00">ml::maths::common::</text>
<text text-anchor="start" x="404.5" y="-424.38" font-family="Helvetica,sans-Serif" font-size="10.00">CBayesianOptimisation</text>
<text text-anchor="middle" x="455.88" y="-413.12" font-family="Helvetica,sans-Serif" font-size="10.00">::precondition</text>
</a>
</g>
</g>
<!-- Node9&#45;&gt;Node23 -->
<g id="edge27_Node000009_Node000023" class="edge">
<title>Node9&#45;&gt;Node23</title>
<g id="a_edge27_Node000009_Node000023"><a xlink:title=" ">
<path fill="none" stroke="#63b8ff" d="M310.41,-370.61C328.84,-379.58 350.79,-389.85 371,-398.25 375.83,-400.26 380.85,-402.26 385.93,-404.22"/>
<polygon fill="#63b8ff" stroke="#63b8ff" points="384.37,-407.37 394.96,-407.64 386.85,-400.83 384.37,-407.37"/>
</a>
</g>
</g>
<!-- Node25 -->
<g id="Node000025" class="node">
<title>Node25</title>
<g id="a_Node000025"><a xlink:href="../../d4/da6/namespaceml.html#ad281564c6956f9a94ad02cfd663d150d" target="_top" xlink:title="Scales time input to generator.">
<polygon fill="white" stroke="#666666" points="483.75,-213.88 428,-213.88 428,-194.62 483.75,-194.62 483.75,-213.88"/>
<text text-anchor="middle" x="455.88" y="-200.38" font-family="Helvetica,sans-Serif" font-size="10.00">ml::scale</text>
</a>
</g>
</g>
<!-- Node9&#45;&gt;Node25 -->
<g id="edge32_Node000009_Node000025" class="edge">
<title>Node9&#45;&gt;Node25</title>
<g id="a_edge32_Node000009_Node000025"><a xlink:title=" ">
<path fill="none" stroke="#63b8ff" d="M283.85,-328.18C302.55,-304.5 335.59,-266.12 371,-241.25 385.04,-231.39 402.14,-223.27 417.22,-217.17"/>
<polygon fill="#63b8ff" stroke="#63b8ff" points="418.3,-220.51 426.36,-213.64 415.77,-213.98 418.3,-220.51"/>
</a>
</g>
</g>
<!-- Node26 -->
<g id="Node000026" class="node">
<title>Node26</title>
<g id="a_Node000026"><a xlink:href="../../d3/d93/classml_1_1maths_1_1common_1_1_c_sampling.html#af8e0be3f74ee47910215dda353dd810f" target="_top" xlink:title=" ">
<polygon fill="white" stroke="#666666" points="540.75,-176.5 371,-176.5 371,-146 540.75,-146 540.75,-176.5"/>
<text text-anchor="start" x="379" y="-163" font-family="Helvetica,sans-Serif" font-size="10.00">ml::maths::common::</text>
<text text-anchor="middle" x="455.88" y="-151.75" font-family="Helvetica,sans-Serif" font-size="10.00">CSampling::sobolSequenceSample</text>
</a>
</g>
</g>
<!-- Node9&#45;&gt;Node26 -->
<g id="edge34_Node000009_Node000026" class="edge">
<title>Node9&#45;&gt;Node26</title>
<g id="a_edge34_Node000009_Node000026"><a xlink:title=" ">
<path fill="none" stroke="#63b8ff" d="M275.57,-327.88C289.11,-292.74 320.87,-222.92 371,-185.25 372.32,-184.25 373.69,-183.3 375.09,-182.39"/>
<polygon fill="#63b8ff" stroke="#63b8ff" points="376.46,-185.63 383.43,-177.65 373.01,-179.54 376.46,-185.63"/>
</a>
</g>
</g>
<!-- Node27 -->
<g id="Node000027" class="node">
<title>Node27</title>
<g id="a_Node000027"><a xlink:href="../../dd/d55/classml_1_1maths_1_1common_1_1_c_tools.html#ad274bfc63fa66be17ff93bd668a4d6a4" target="_top" xlink:title="A version of std::log which is stable across platforms.">
<polygon fill="white" stroke="#666666" points="510.38,-389.5 401.38,-389.5 401.38,-359 510.38,-359 510.38,-389.5"/>
<text text-anchor="start" x="409.38" y="-376" font-family="Helvetica,sans-Serif" font-size="10.00">ml::maths::common::</text>
<text text-anchor="middle" x="455.88" y="-364.75" font-family="Helvetica,sans-Serif" font-size="10.00">CTools::stableExp</text>
</a>
</g>
</g>
<!-- Node9&#45;&gt;Node27 -->
<g id="edge35_Node000009_Node000027" class="edge">
<title>Node9&#45;&gt;Node27</title>
<g id="a_edge35_Node000009_Node000027"><a xlink:title=" ">
<path fill="none" stroke="#63b8ff" d="M335.47,-358.28C353.13,-360.64 372.15,-363.18 389.69,-365.53"/>
<polygon fill="#63b8ff" stroke="#63b8ff" points="389.1,-368.98 399.48,-366.84 390.03,-362.04 389.1,-368.98"/>
</a>
</g>
</g>
<!-- Node11 -->
<g id="Node000011" class="node">
<title>Node11</title>
<g id="a_Node000011"><a xlink:href="../../dc/d5c/classml_1_1maths_1_1common_1_1_c_orderings.html#ae59743d66349e20f589c98333e2118ff" target="_top" xlink:title=" ">
<polygon fill="white" stroke="#666666" points="728.12,-247.12 592.12,-247.12 592.12,-205.38 728.12,-205.38 728.12,-247.12"/>
<text text-anchor="start" x="600.12" y="-233.62" font-family="Helvetica,sans-Serif" font-size="10.00">ml::maths::common::</text>
<text text-anchor="start" x="600.12" y="-222.38" font-family="Helvetica,sans-Serif" font-size="10.00">COrderings::lexicographical</text>
<text text-anchor="middle" x="660.12" y="-211.12" font-family="Helvetica,sans-Serif" font-size="10.00">CompareWith</text>
</a>
</g>
</g>
<!-- Node10&#45;&gt;Node11 -->
<g id="edge10_Node000010_Node000011" class="edge">
<title>Node10&#45;&gt;Node11</title>
<g id="a_edge10_Node000010_Node000011"><a xlink:title=" ">
<path fill="none" stroke="#63b8ff" d="M524.22,-256.27C542.29,-252.25 561.99,-247.86 580.61,-243.72"/>
<polygon fill="#63b8ff" stroke="#63b8ff" points="581.25,-247.16 590.25,-241.57 579.73,-240.33 581.25,-247.16"/>
</a>
</g>
</g>
<!-- Node12 -->
<g id="Node000012" class="node">
<title>Node12</title>
<g id="a_Node000012"><a xlink:href="../../dc/d5c/classml_1_1maths_1_1common_1_1_c_orderings.html#ac28e26aa59df21d5c8b12b9ca580b957" target="_top" xlink:title=" ">
<polygon fill="white" stroke="#666666" points="915.5,-247.12 779.5,-247.12 779.5,-205.38 915.5,-205.38 915.5,-247.12"/>
<text text-anchor="start" x="787.5" y="-233.62" font-family="Helvetica,sans-Serif" font-size="10.00">ml::maths::common::</text>
<text text-anchor="start" x="787.5" y="-222.38" font-family="Helvetica,sans-Serif" font-size="10.00">COrderings::lexicographical</text>
<text text-anchor="middle" x="847.5" y="-211.12" font-family="Helvetica,sans-Serif" font-size="10.00">CompareAt</text>
</a>
</g>
</g>
<!-- Node11&#45;&gt;Node12 -->
<g id="edge11_Node000011_Node000012" class="edge">
<title>Node11&#45;&gt;Node12</title>
<g id="a_edge11_Node000011_Node000012"><a xlink:title=" ">
<path fill="none" stroke="#63b8ff" d="M728.57,-226.25C741.3,-226.25 754.72,-226.25 767.76,-226.25"/>
<polygon fill="#63b8ff" stroke="#63b8ff" points="767.59,-229.75 777.59,-226.25 767.59,-222.75 767.59,-229.75"/>
</a>
</g>
</g>
<!-- Node12&#45;&gt;Node12 -->
<g id="edge12_Node000012_Node000012" class="edge">
<title>Node12&#45;&gt;Node12</title>
<g id="a_edge12_Node000012_Node000012"><a xlink:title=" ">
<path fill="none" stroke="#63b8ff" d="M818.25,-247.44C815.46,-256.92 825.21,-265.12 847.5,-265.12 860.39,-265.12 869.08,-262.38 873.59,-258.24"/>
<polygon fill="#63b8ff" stroke="#63b8ff" points="876.87,-259.48 876.33,-248.9 870.15,-257.51 876.87,-259.48"/>
</a>
</g>
</g>
<!-- Node14 -->
<g id="Node000014" class="node">
<title>Node14</title>
<g id="a_Node000014"><a xlink:href="../../d8/dcc/namespacestd.html#a434882411757f6c0833c939d997bc4e3" target="_top" xlink:title=" ">
<polygon fill="white" stroke="#666666" points="689.5,-284.88 630.75,-284.88 630.75,-265.62 689.5,-265.62 689.5,-284.88"/>
<text text-anchor="middle" x="660.12" y="-271.38" font-family="Helvetica,sans-Serif" font-size="10.00">std::swap</text>
</a>
</g>
</g>
<!-- Node13&#45;&gt;Node14 -->
<g id="edge14_Node000013_Node000014" class="edge">
<title>Node13&#45;&gt;Node14</title>
<g id="a_edge14_Node000013_Node000014"><a xlink:title=" ">
<path fill="none" stroke="#63b8ff" d="M520.31,-309.57C552.69,-301.56 591.08,-292.07 619.28,-285.1"/>
<polygon fill="#63b8ff" stroke="#63b8ff" points="619.97,-288.54 628.84,-282.74 618.29,-281.74 619.97,-288.54"/>
</a>
</g>
</g>
<!-- Node14&#45;&gt;Node14 -->
<g id="edge15_Node000014_Node000014" class="edge">
<title>Node14&#45;&gt;Node14</title>
<g id="a_edge15_Node000014_Node000014"><a xlink:title=" ">
<path fill="none" stroke="#63b8ff" d="M630.79,-285.16C617.41,-293.77 627.19,-302.88 660.12,-302.88 679.17,-302.88 690.47,-299.83 694.03,-295.6"/>
<polygon fill="#63b8ff" stroke="#63b8ff" points="697.28,-294.31 690.07,-286.55 690.87,-297.11 697.28,-294.31"/>
</a>
</g>
</g>
<!-- Node16 -->
<g id="Node000016" class="node">
<title>Node16</title>
<g id="a_Node000016"><a xlink:href="../../d1/d92/classml_1_1maths_1_1common_1_1_c_bayesian_optimisation.html#abf51451ad15bac08b729405954e04406" target="_top" xlink:title=" ">
<polygon fill="white" stroke="#666666" points="719.5,-693.12 600.75,-693.12 600.75,-651.38 719.5,-651.38 719.5,-693.12"/>
<text text-anchor="start" x="608.75" y="-679.62" font-family="Helvetica,sans-Serif" font-size="10.00">ml::maths::common::</text>
<text text-anchor="start" x="608.75" y="-668.38" font-family="Helvetica,sans-Serif" font-size="10.00">CBayesianOptimisation</text>
<text text-anchor="middle" x="660.12" y="-657.12" font-family="Helvetica,sans-Serif" font-size="10.00">::dKerneld</text>
</a>
</g>
</g>
<!-- Node15&#45;&gt;Node16 -->
<g id="edge17_Node000015_Node000016" class="edge">
<title>Node15&#45;&gt;Node16</title>
<g id="a_edge17_Node000015_Node000016"><a xlink:title=" ">
<path fill="none" stroke="#63b8ff" d="M529.04,-652.95C548.57,-655.85 569.68,-658.98 589.1,-661.86"/>
<polygon fill="#63b8ff" stroke="#63b8ff" points="588.41,-665.3 598.81,-663.3 589.43,-658.37 588.41,-665.3"/>
</a>
</g>
</g>
<!-- Node17 -->
<g id="Node000017" class="node">
<title>Node17</title>
<g id="a_Node000017"><a xlink:href="../../d1/d92/classml_1_1maths_1_1common_1_1_c_bayesian_optimisation.html#ac3af30f71d1bce0c35edd78cc2a0cf35" target="_top" xlink:title=" ">
<polygon fill="white" stroke="#666666" points="906.88,-742.12 788.12,-742.12 788.12,-700.38 906.88,-700.38 906.88,-742.12"/>
<text text-anchor="start" x="796.12" y="-728.62" font-family="Helvetica,sans-Serif" font-size="10.00">ml::maths::common::</text>
<text text-anchor="start" x="796.12" y="-717.38" font-family="Helvetica,sans-Serif" font-size="10.00">CBayesianOptimisation</text>
<text text-anchor="middle" x="847.5" y="-706.12" font-family="Helvetica,sans-Serif" font-size="10.00">::kernel</text>
</a>
</g>
</g>
<!-- Node15&#45;&gt;Node17 -->
<g id="edge23_Node000015_Node000017" class="edge">
<title>Node15&#45;&gt;Node17</title>
<g id="a_edge23_Node000015_Node000017"><a xlink:title=" ">
<path fill="none" stroke="#63b8ff" d="M490.31,-663.49C513.59,-677.12 545.89,-693.8 576.75,-702.25 642.8,-720.33 721.17,-723.98 776.36,-723.77"/>
<polygon fill="#63b8ff" stroke="#63b8ff" points="776.29,-727.27 786.26,-723.68 776.23,-720.27 776.29,-727.27"/>
</a>
</g>
</g>
<!-- Node19 -->
<g id="Node000019" class="node">
<title>Node19</title>
<g id="a_Node000019"><a xlink:href="../../d1/d92/classml_1_1maths_1_1common_1_1_c_bayesian_optimisation.html#ab3a224d52c65ca93bacb53b1992ba873" target="_top" xlink:title=" ">
<polygon fill="white" stroke="#666666" points="719.5,-791.12 600.75,-791.12 600.75,-749.38 719.5,-749.38 719.5,-791.12"/>
<text text-anchor="start" x="608.75" y="-777.62" font-family="Helvetica,sans-Serif" font-size="10.00">ml::maths::common::</text>
<text text-anchor="start" x="608.75" y="-766.38" font-family="Helvetica,sans-Serif" font-size="10.00">CBayesianOptimisation</text>
<text text-anchor="middle" x="660.12" y="-755.12" font-family="Helvetica,sans-Serif" font-size="10.00">::function</text>
</a>
</g>
</g>
<!-- Node15&#45;&gt;Node19 -->
<g id="edge22_Node000015_Node000019" class="edge">
<title>Node15&#45;&gt;Node19</title>
<g id="a_edge22_Node000015_Node000019"><a xlink:title=" ">
<path fill="none" stroke="#63b8ff" d="M480.35,-663.44C503.61,-683.69 540.86,-714.18 576.75,-735.25 582.03,-738.35 587.63,-741.32 593.33,-744.13"/>
<polygon fill="#63b8ff" stroke="#63b8ff" points="591.75,-747.26 602.29,-748.37 594.74,-740.93 591.75,-747.26"/>
</a>
</g>
</g>
<!-- Node15&#45;&gt;Node20 -->
<g id="edge24_Node000015_Node000020" class="edge">
<title>Node15&#45;&gt;Node20</title>
<g id="a_edge24_Node000015_Node000020"><a xlink:title=" ">
<path fill="none" stroke="#63b8ff" d="M529.04,-631.55C548.57,-628.65 569.68,-625.52 589.1,-622.64"/>
<polygon fill="#63b8ff" stroke="#63b8ff" points="589.43,-626.13 598.81,-621.2 588.41,-619.2 589.43,-626.13"/>
</a>
</g>
</g>
<!-- Node22 -->
<g id="Node000022" class="node">
<title>Node22</title>
<g id="a_Node000022"><a xlink:href="../../dd/d55/classml_1_1maths_1_1common_1_1_c_tools.html#a94bfaf7bfdeb4d2466949bde27e48cc9" target="_top" xlink:title="Compute a value from x which will be stable across platforms.">
<polygon fill="white" stroke="#666666" points="714.62,-573.5 605.62,-573.5 605.62,-543 714.62,-543 714.62,-573.5"/>
<text text-anchor="start" x="613.62" y="-560" font-family="Helvetica,sans-Serif" font-size="10.00">ml::maths::common::</text>
<text text-anchor="middle" x="660.12" y="-548.75" font-family="Helvetica,sans-Serif" font-size="10.00">CTools::stable</text>
</a>
</g>
</g>
<!-- Node15&#45;&gt;Node22 -->
<g id="edge26_Node000015_Node000022" class="edge">
<title>Node15&#45;&gt;Node22</title>
<g id="a_edge26_Node000015_Node000022"><a xlink:title=" ">
<path fill="none" stroke="#63b8ff" d="M494.94,-620.98C518.11,-608.6 548.58,-593.3 576.75,-582.25 582.47,-580.01 588.49,-577.86 594.55,-575.84"/>
<polygon fill="#63b8ff" stroke="#63b8ff" points="595.58,-579.19 604.04,-572.82 593.44,-572.52 595.58,-579.19"/>
</a>
</g>
</g>
<!-- Node16&#45;&gt;Node17 -->
<g id="edge18_Node000016_Node000017" class="edge">
<title>Node16&#45;&gt;Node17</title>
<g id="a_edge18_Node000016_Node000017"><a xlink:title=" ">
<path fill="none" stroke="#63b8ff" d="M719.78,-687.75C737.96,-692.56 758.16,-697.9 777,-702.88"/>
<polygon fill="#63b8ff" stroke="#63b8ff" points="775.88,-706.2 786.45,-705.38 777.67,-699.44 775.88,-706.2"/>
</a>
</g>
</g>
<!-- Node16&#45;&gt;Node18 -->
<g id="edge21_Node000016_Node000018" class="edge">
<title>Node16&#45;&gt;Node18</title>
<g id="a_edge21_Node000016_Node000018"><a xlink:title=" ">
<path fill="none" stroke="#63b8ff" d="M719.85,-676.35C780.89,-680.61 876.19,-687.26 939.6,-691.69"/>
<polygon fill="#63b8ff" stroke="#63b8ff" points="939.32,-695.17 949.54,-692.38 939.81,-688.19 939.32,-695.17"/>
</a>
</g>
</g>
<!-- Node17&#45;&gt;Node17 -->
<g id="edge19_Node000017_Node000017" class="edge">
<title>Node17&#45;&gt;Node17</title>
<g id="a_edge19_Node000017_Node000017"><a xlink:title=" ">
<path fill="none" stroke="#63b8ff" d="M818.25,-742.44C815.46,-751.92 825.21,-760.12 847.5,-760.12 860.39,-760.12 869.08,-757.38 873.59,-753.24"/>
<polygon fill="#63b8ff" stroke="#63b8ff" points="876.87,-754.48 876.33,-743.9 870.15,-752.51 876.87,-754.48"/>
</a>
</g>
</g>
<!-- Node17&#45;&gt;Node18 -->
<g id="edge20_Node000017_Node000018" class="edge">
<title>Node17&#45;&gt;Node18</title>
<g id="a_edge20_Node000017_Node000018"><a xlink:title=" ">
<path fill="none" stroke="#63b8ff" d="M907.22,-711.87C917.91,-710.16 929.11,-708.37 939.97,-706.64"/>
<polygon fill="#63b8ff" stroke="#63b8ff" points="940.3,-710.13 949.62,-705.1 939.19,-703.22 940.3,-710.13"/>
</a>
</g>
</g>
<!-- Node20&#45;&gt;Node21 -->
<g id="edge25_Node000020_Node000021" class="edge">
<title>Node20&#45;&gt;Node21</title>
<g id="a_edge25_Node000020_Node000021"><a xlink:title=" ">
<path fill="none" stroke="#63b8ff" d="M719.88,-592.72C727.94,-589.51 736.01,-585.99 743.5,-582.25 769.25,-569.4 796.47,-551.48 816.45,-537.41"/>
<polygon fill="#63b8ff" stroke="#63b8ff" points="818.31,-540.39 824.41,-531.73 814.24,-534.69 818.31,-540.39"/>
</a>
</g>
</g>
<!-- Node23&#45;&gt;Node2 -->
<g id="edge28_Node000023_Node000002" class="edge">
<title>Node23&#45;&gt;Node2</title>
<g id="a_edge28_Node000023_Node000002"><a xlink:title=" ">
<path fill="none" stroke="#63b8ff" d="M515.65,-439.29C531.24,-442.22 548.48,-445.46 565.43,-448.65"/>
<polygon fill="#63b8ff" stroke="#63b8ff" points="564.55,-452.04 575.02,-450.45 565.84,-445.16 564.55,-452.04"/>
</a>
</g>
</g>
<!-- Node23&#45;&gt;Node18 -->
<g id="edge30_Node000023_Node000018" class="edge">
<title>Node23&#45;&gt;Node18</title>
<g id="a_edge30_Node000023_Node000018"><a xlink:title=" ">
<path fill="none" stroke="#63b8ff" d="M515.52,-417.66C534.94,-414.63 556.71,-411.75 576.75,-410.25 731.12,-398.72 807.61,-380.24 915.5,-491.25 965.49,-542.69 989.94,-626.61 999.67,-669.37"/>
<polygon fill="#63b8ff" stroke="#63b8ff" points="996.23,-670.01 1001.77,-679.04 1003.07,-668.53 996.23,-670.01"/>
</a>
</g>
</g>
<!-- Node23&#45;&gt;Node21 -->
<g id="edge29_Node000023_Node000021" class="edge">
<title>Node23&#45;&gt;Node21</title>
<g id="a_edge29_Node000023_Node000021"><a xlink:title=" ">
<path fill="none" stroke="#63b8ff" d="M515.62,-419.57C574.95,-413.15 668.32,-409.56 743.5,-436.25 775.18,-447.49 804.91,-472.45 824.21,-491.33"/>
<polygon fill="#63b8ff" stroke="#63b8ff" points="821.72,-493.79 831.24,-498.43 826.69,-488.86 821.72,-493.79"/>
</a>
</g>
</g>
<!-- Node24 -->
<g id="Node000024" class="node">
<title>Node24</title>
<g id="a_Node000024"><a xlink:href="../../d4/d55/classml_1_1maths_1_1common_1_1_c_basic_statistics.html#a53b366eca7a0bae43e1c6d54573f3dcb" target="_top" xlink:title=" ">
<polygon fill="white" stroke="#666666" points="726.25,-351.5 594,-351.5 594,-321 726.25,-321 726.25,-351.5"/>
<text text-anchor="start" x="602" y="-338" font-family="Helvetica,sans-Serif" font-size="10.00">ml::maths::common::</text>
<text text-anchor="middle" x="660.12" y="-326.75" font-family="Helvetica,sans-Serif" font-size="10.00">CBasicStatistics::variance</text>
</a>
</g>
</g>
<!-- Node23&#45;&gt;Node24 -->
<g id="edge31_Node000023_Node000024" class="edge">
<title>Node23&#45;&gt;Node24</title>
<g id="a_edge31_Node000023_Node000024"><a xlink:title=" ">
<path fill="none" stroke="#63b8ff" d="M515.56,-410.67C524.27,-407.1 532.94,-402.96 540.75,-398.25 559.34,-387.04 558.14,-376.41 576.75,-365.25 582.25,-361.95 588.18,-358.95 594.24,-356.24"/>
<polygon fill="#63b8ff" stroke="#63b8ff" points="595.25,-359.62 603.14,-352.54 592.56,-353.15 595.25,-359.62"/>
</a>
</g>
</g>
<!-- Node25&#45;&gt;Node25 -->
<g id="edge33_Node000025_Node000025" class="edge">
<title>Node25&#45;&gt;Node25</title>
<g id="a_edge33_Node000025_Node000025"><a xlink:title=" ">
<path fill="none" stroke="#63b8ff" d="M427.73,-213.3C412.19,-222.15 421.57,-231.88 455.88,-231.88 478.93,-231.88 490.72,-227.49 491.27,-221.92"/>
<polygon fill="#63b8ff" stroke="#63b8ff" points="494.11,-219.86 484.99,-214.46 488.75,-224.37 494.11,-219.86"/>
</a>
</g>
</g>
<!-- Node28&#45;&gt;Node17 -->
<g id="edge41_Node000028_Node000017" class="edge">
<title>Node28&#45;&gt;Node17</title>
<g id="a_edge41_Node000028_Node000017"><a xlink:title=" ">
<path fill="none" stroke="#63b8ff" d="M538.06,-835.64C609.47,-828.12 707.49,-815.54 743.5,-800.25 771.2,-788.49 798.03,-767.5 817.36,-750.11"/>
<polygon fill="#63b8ff" stroke="#63b8ff" points="819.6,-752.8 824.58,-743.45 814.86,-747.66 819.6,-752.8"/>
</a>
</g>
</g>
<!-- Node28&#45;&gt;Node18 -->
<g id="edge46_Node000028_Node000018" class="edge">
<title>Node28&#45;&gt;Node18</title>
<g id="a_edge46_Node000028_Node000018"><a xlink:title=" ">
<path fill="none" stroke="#63b8ff" d="M503.35,-870.25C524.92,-881.26 551.36,-892.7 576.75,-898.25 649.15,-914.07 671.33,-915.11 743.5,-898.25 826.53,-878.85 849.65,-867.42 915.5,-813.25 947.44,-786.98 974.74,-747.21 990.52,-721.48"/>
<polygon fill="#63b8ff" stroke="#63b8ff" points="993.45,-723.39 995.59,-713.01 987.45,-719.79 993.45,-723.39"/>
</a>
</g>
</g>
<!-- Node28&#45;&gt;Node19 -->
<g id="edge39_Node000028_Node000019" class="edge">
<title>Node28&#45;&gt;Node19</title>
<g id="a_edge39_Node000028_Node000019"><a xlink:title=" ">
<path fill="none" stroke="#63b8ff" d="M531.61,-816.27C550.61,-809.42 570.95,-802.08 589.68,-795.32"/>
<polygon fill="#63b8ff" stroke="#63b8ff" points="590.85,-798.61 599.07,-791.93 588.47,-792.03 590.85,-798.61"/>
</a>
</g>
</g>
<!-- Node28&#45;&gt;Node20 -->
<g id="edge45_Node000028_Node000020" class="edge">
<title>Node28&#45;&gt;Node20</title>
<g id="a_edge45_Node000028_Node000020"><a xlink:title=" ">
<path fill="none" stroke="#63b8ff" d="M466.06,-816.5C482.02,-773.8 518.83,-690.16 576.75,-642.25 580.93,-638.79 585.54,-635.72 590.38,-632.99"/>
<polygon fill="#63b8ff" stroke="#63b8ff" points="591.87,-636.15 599.23,-628.52 588.72,-629.9 591.87,-636.15"/>
</a>
</g>
</g>
<!-- Node29 -->
<g id="Node000029" class="node">
<title>Node29</title>
<g id="a_Node000029"><a xlink:href="../../dd/dc8/classml_1_1maths_1_1common_1_1_c_maths_funcs.html#a55029f09f9f7e9eb786219fefbb8ff72" target="_top" xlink:title="Check if value is NaN.">
<polygon fill="white" stroke="#666666" points="714.62,-975.5 605.62,-975.5 605.62,-945 714.62,-945 714.62,-975.5"/>
<text text-anchor="start" x="613.62" y="-962" font-family="Helvetica,sans-Serif" font-size="10.00">ml::maths::common::</text>
<text text-anchor="middle" x="660.12" y="-950.75" font-family="Helvetica,sans-Serif" font-size="10.00">CMathsFuncs::isNan</text>
</a>
</g>
</g>
<!-- Node28&#45;&gt;Node29 -->
<g id="edge40_Node000028_Node000029" class="edge">
<title>Node28&#45;&gt;Node29</title>
<g id="a_edge40_Node000028_Node000029"><a xlink:title=" ">
<path fill="none" stroke="#63b8ff" d="M487.73,-869.88C510.99,-888.93 544.33,-914.13 576.75,-931.25 583,-934.55 589.7,-937.61 596.48,-940.4"/>
<polygon fill="#63b8ff" stroke="#63b8ff" points="595.16,-943.65 605.75,-944.03 597.71,-937.13 595.16,-943.65"/>
</a>
</g>
</g>
<!-- Node30 -->
<g id="Node000030" class="node">
<title>Node30</title>
<g id="a_Node000030"><a xlink:href="../../d1/d92/classml_1_1maths_1_1common_1_1_c_bayesian_optimisation.html#a1fbfc98c04fb1484fd2130baf2c35f01" target="_top" xlink:title=" ">
<polygon fill="white" stroke="#666666" points="719.5,-889.12 600.75,-889.12 600.75,-847.38 719.5,-847.38 719.5,-889.12"/>
<text text-anchor="start" x="608.75" y="-875.62" font-family="Helvetica,sans-Serif" font-size="10.00">ml::maths::common::</text>
<text text-anchor="start" x="608.75" y="-864.38" font-family="Helvetica,sans-Serif" font-size="10.00">CBayesianOptimisation</text>
<text text-anchor="middle" x="660.12" y="-853.12" font-family="Helvetica,sans-Serif" font-size="10.00">::kernelCovariates</text>
</a>
</g>
</g>
<!-- Node28&#45;&gt;Node30 -->
<g id="edge42_Node000028_Node000030" class="edge">
<title>Node28&#45;&gt;Node30</title>
<g id="a_edge42_Node000028_Node000030"><a xlink:title=" ">
<path fill="none" stroke="#63b8ff" d="M537.97,-853.27C554.94,-855.37 572.69,-857.57 589.2,-859.61"/>
<polygon fill="#63b8ff" stroke="#63b8ff" points="588.56,-863.05 598.92,-860.81 589.42,-856.11 588.56,-863.05"/>
</a>
</g>
</g>
<!-- Node31 -->
<g id="Node000031" class="node">
<title>Node31</title>
<g id="a_Node000031"><a xlink:href="../../db/d5d/namespaceml_1_1maths_1_1common_1_1las.html#ad394918852715da2d44a8775c80c7e87" target="_top" xlink:title="Get the concomitant zero vector.">
<polygon fill="white" stroke="#666666" points="714.62,-1024.5 605.62,-1024.5 605.62,-994 714.62,-994 714.62,-1024.5"/>
<text text-anchor="start" x="613.62" y="-1011" font-family="Helvetica,sans-Serif" font-size="10.00">ml::maths::common::</text>
<text text-anchor="middle" x="660.12" y="-999.75" font-family="Helvetica,sans-Serif" font-size="10.00">las::zero</text>
</a>
</g>
</g>
<!-- Node28&#45;&gt;Node31 -->
<g id="edge47_Node000028_Node000031" class="edge">
<title>Node28&#45;&gt;Node31</title>
<g id="a_edge47_Node000028_Node000031"><a xlink:title=" ">
<path fill="none" stroke="#63b8ff" d="M472.91,-870.16C493.2,-901.95 531.07,-954.3 576.75,-984.25 582.27,-987.87 588.35,-990.99 594.61,-993.67"/>
<polygon fill="#63b8ff" stroke="#63b8ff" points="593.28,-996.9 603.87,-997.23 595.79,-990.37 593.28,-996.9"/>
</a>
</g>
</g>
<!-- Node30&#45;&gt;Node17 -->
<g id="edge43_Node000030_Node000017" class="edge">
<title>Node30&#45;&gt;Node17</title>
<g id="a_edge43_Node000030_Node000017"><a xlink:title=" ">
<path fill="none" stroke="#63b8ff" d="M719.95,-846.94C728.17,-842.92 736.26,-838.36 743.5,-833.25 775.85,-810.43 805.62,-775.94 824.74,-751.28"/>
<polygon fill="#63b8ff" stroke="#63b8ff" points="827.35,-753.63 830.62,-743.55 821.78,-749.39 827.35,-753.63"/>
</a>
</g>
</g>
<!-- Node30&#45;&gt;Node18 -->
<g id="edge44_Node000030_Node000018" class="edge">
<title>Node30&#45;&gt;Node18</title>
<g id="a_edge44_Node000030_Node000018"><a xlink:title=" ">
<path fill="none" stroke="#63b8ff" d="M719.81,-851.21C772.95,-834.45 852.35,-806.06 915.5,-769.25 939.4,-755.32 963.53,-735.21 980.7,-719.62"/>
<polygon fill="#63b8ff" stroke="#63b8ff" points="982.94,-722.32 987.9,-712.96 978.18,-717.18 982.94,-722.32"/>
</a>
</g>
</g>
<!-- Node31&#45;&gt;Node5 -->
<g id="edge48_Node000031_Node000005" class="edge">
<title>Node31&#45;&gt;Node5</title>
<g id="a_edge48_Node000031_Node000005"><a xlink:title=" ">
<path fill="none" stroke="#63b8ff" d="M714.74,-1021.69C735.6,-1026.52 759.68,-1032.11 781.5,-1037.17"/>
<polygon fill="#63b8ff" stroke="#63b8ff" points="780.67,-1040.57 791.21,-1039.42 782.26,-1033.75 780.67,-1040.57"/>
</a>
</g>
</g>
</g>
</svg>

<g id="navigator" transform="translate(0 0)" fill="#404254">
  <rect fill="#f2f5e9" fill-opacity="0.5" stroke="#606060" stroke-width=".5" x="0" y="0" width="60" height="60"/>
  <use id="zoomplus" xlink:href="#zoomPlus" x="17" y="9" onmousedown="handleZoom(evt,'in')"/>
  <use id="zoomminus" xlink:href="#zoomMin" x="42" y="9" onmousedown="handleZoom(evt,'out')"/>
  <use id="reset" xlink:href="#resetDef" x="30" y="36" onmousedown="handleReset()"/>
   <use id="arrowup" xlink:href="#arrowUp" x="0" y="0" onmousedown="handlePan(0,-1)"/>
  <use id="arrowright" xlink:href="#arrowRight" x="0" y="0" onmousedown="handlePan(1,0)"/>
  <use id="arrowdown" xlink:href="#arrowDown" x="0" y="0" onmousedown="handlePan(0,1)"/>
  <use id="arrowleft" xlink:href="#arrowLeft" x="0" y="0" onmousedown="handlePan(-1,0)"/>
</g>
<svg viewBox="0 0 15 15" width="100%" height="30px" preserveAspectRatio="xMaxYMin meet">
 <g id="arrow_out" transform="scale(0.3 0.3)">
  <a xlink:href="classml_1_1maths_1_1common_1_1_c_bayesian_optimisation_a105ec0dc8c3e89ea1f038dba5ee36f71_cgraph_org.svg" target="_base">
   <rect id="button" ry="5" rx="5" y="6" x="6" height="38" width="38"
        fill="#f2f5e9" fill-opacity="0.5" stroke="#606060" stroke-width="1.0"/>
   <path id="arrow"
     d="M 11.500037,31.436501 C 11.940474,20.09759 22.043105,11.32322 32.158766,21.979434 L 37.068811,17.246167 C 37.068811,17.246167 37.088388,32 37.088388,32 L 22.160133,31.978069 C 22.160133,31.978069 26.997745,27.140456 26.997745,27.140456 C 18.528582,18.264221 13.291696,25.230495 11.500037,31.436501 z"
     style="fill:#404040;"/>
  </a>
 </g>
</svg>

<style type='text/css'>
<![CDATA[
[data-mouse-over-selected='false'] { opacity: 0.7; }
[data-mouse-over-selected='true']  { opacity: 1.0; }
]]>
</style>
<script type="application/ecmascript"><![CDATA[
document.addEventListener('DOMContentLoaded', (event) => {
  highlightEdges();
  highlightAdjacentNodes();
});
]]></script>
</svg>
