<?xml version="1.0" encoding="UTF-8" standalone="no"?>
<!DOCTYPE svg PUBLIC "-//W3C//DTD SVG 1.1//EN"
 "http://www.w3.org/Graphics/SVG/1.1/DTD/svg11.dtd">
<!-- Generated by graphviz version 10.0.1 (20240210.2158)
 -->
<!-- Title: ml::api::CNdJsonOutputWriter::writeField Pages: 1 -->
<svg width="520pt" height="137pt"
 viewBox="0.00 0.00 519.50 136.50" xmlns="http://www.w3.org/2000/svg" xmlns:xlink="http://www.w3.org/1999/xlink">
<g id="graph0" class="graph" transform="scale(1 1) rotate(0) translate(4 132.5)">
<title>ml::api::CNdJsonOutputWriter::writeField</title>
<!-- Node1 -->
<g id="Node000001" class="node">
<title>Node1</title>
<g id="a_Node000001"><a xlink:title="Write a single field to the document.">
<polygon fill="#999999" stroke="#666666" points="147.25,-79.5 0,-79.5 0,-49 147.25,-49 147.25,-79.5"/>
<text text-anchor="start" x="8" y="-66" font-family="Helvetica,sans-Serif" font-size="10.00">ml::api::CNdJsonOutputWriter</text>
<text text-anchor="middle" x="73.62" y="-54.75" font-family="Helvetica,sans-Serif" font-size="10.00">::writeField</text>
</a>
</g>
</g>
<!-- Node2 -->
<g id="Node000002" class="node">
<title>Node2</title>
<g id="a_Node000002"><a xlink:href="../../de/d68/classml_1_1core_1_1_c_boost_json_writer_base.html#aa83f6b8bf6f7cbeecdd920880a43afab" target="_top" xlink:title=" ">
<polygon fill="white" stroke="#666666" points="329.75,-128.5 192.25,-128.5 192.25,-98 329.75,-98 329.75,-128.5"/>
<text text-anchor="start" x="200.25" y="-115" font-family="Helvetica,sans-Serif" font-size="10.00">ml::core::CBoostJsonWriter</text>
<text text-anchor="middle" x="261" y="-103.75" font-family="Helvetica,sans-Serif" font-size="10.00">Base::addDoubleFieldToObj</text>
</a>
</g>
</g>
<!-- Node1&#45;&gt;Node2 -->
<g id="edge1_Node000001_Node000002" class="edge">
<title>Node1&#45;&gt;Node2</title>
<g id="a_edge1_Node000001_Node000002"><a xlink:title=" ">
<path fill="none" stroke="#63b8ff" d="M134.04,-79.96C151.75,-84.64 171.33,-89.81 189.67,-94.66"/>
<polygon fill="#63b8ff" stroke="#63b8ff" points="188.57,-97.99 199.14,-97.16 190.36,-91.22 188.57,-97.99"/>
</a>
</g>
</g>
<!-- Node4 -->
<g id="Node000004" class="node">
<title>Node4</title>
<g id="a_Node000004"><a xlink:href="../../de/d68/classml_1_1core_1_1_c_boost_json_writer_base.html#ac40688d77c7e2cb06f91410e15377644" target="_top" xlink:title=" ">
<polygon fill="white" stroke="#666666" points="338.75,-79.5 183.25,-79.5 183.25,-49 338.75,-49 338.75,-79.5"/>
<text text-anchor="start" x="191.25" y="-66" font-family="Helvetica,sans-Serif" font-size="10.00">ml::core::CBoostJsonWriter</text>
<text text-anchor="middle" x="261" y="-54.75" font-family="Helvetica,sans-Serif" font-size="10.00">Base::addStringFieldCopyToObj</text>
</a>
</g>
</g>
<!-- Node1&#45;&gt;Node4 -->
<g id="edge3_Node000001_Node000004" class="edge">
<title>Node1&#45;&gt;Node4</title>
<g id="a_edge3_Node000001_Node000004"><a xlink:title=" ">
<path fill="none" stroke="#63b8ff" d="M147.62,-64.25C155.47,-64.25 163.52,-64.25 171.53,-64.25"/>
<polygon fill="#63b8ff" stroke="#63b8ff" points="171.28,-67.75 181.28,-64.25 171.28,-60.75 171.28,-67.75"/>
</a>
</g>
</g>
<!-- Node5 -->
<g id="Node000005" class="node">
<title>Node5</title>
<g id="a_Node000005"><a xlink:href="../../d1/dfa/classml_1_1core_1_1_c_string_utils.html#a932b52350cb193f474a02ee4758edc22" target="_top" xlink:title="Convert a string to a type.">
<polygon fill="white" stroke="#666666" points="316.25,-30.5 205.75,-30.5 205.75,0 316.25,0 316.25,-30.5"/>
<text text-anchor="start" x="213.75" y="-17" font-family="Helvetica,sans-Serif" font-size="10.00">ml::core::CStringUtils</text>
<text text-anchor="middle" x="261" y="-5.75" font-family="Helvetica,sans-Serif" font-size="10.00">::stringToType</text>
</a>
</g>
</g>
<!-- Node1&#45;&gt;Node5 -->
<g id="edge5_Node000001_Node000005" class="edge">
<title>Node1&#45;&gt;Node5</title>
<g id="a_edge5_Node000001_Node000005"><a xlink:title=" ">
<path fill="none" stroke="#63b8ff" d="M134.04,-48.54C153.25,-43.47 174.66,-37.81 194.3,-32.62"/>
<polygon fill="#63b8ff" stroke="#63b8ff" points="195.08,-36.03 203.85,-30.09 193.29,-29.26 195.08,-36.03"/>
</a>
</g>
</g>
<!-- Node3 -->
<g id="Node000003" class="node">
<title>Node3</title>
<g id="a_Node000003"><a xlink:href="../../de/d68/classml_1_1core_1_1_c_boost_json_writer_base.html#afe6d17598dcff2539e025599f8e092e3" target="_top" xlink:title=" ">
<polygon fill="white" stroke="#666666" points="511.5,-103.5 374.75,-103.5 374.75,-73 511.5,-73 511.5,-103.5"/>
<text text-anchor="start" x="382.75" y="-90" font-family="Helvetica,sans-Serif" font-size="10.00">ml::core::CBoostJsonWriter</text>
<text text-anchor="middle" x="443.12" y="-78.75" font-family="Helvetica,sans-Serif" font-size="10.00">Base::addMember</text>
</a>
</g>
</g>
<!-- Node2&#45;&gt;Node3 -->
<g id="edge2_Node000002_Node000003" class="edge">
<title>Node2&#45;&gt;Node3</title>
<g id="a_edge2_Node000002_Node000003"><a xlink:title=" ">
<path fill="none" stroke="#63b8ff" d="M330.1,-103.8C340.89,-102.3 352.14,-100.74 363.16,-99.21"/>
<polygon fill="#63b8ff" stroke="#63b8ff" points="363.61,-102.68 373.03,-97.84 362.64,-95.75 363.61,-102.68"/>
</a>
</g>
</g>
<!-- Node4&#45;&gt;Node3 -->
<g id="edge4_Node000004_Node000003" class="edge">
<title>Node4&#45;&gt;Node3</title>
<g id="a_edge4_Node000004_Node000003"><a xlink:title=" ">
<path fill="none" stroke="#63b8ff" d="M339.17,-74.53C347.16,-75.6 355.28,-76.68 363.28,-77.74"/>
<polygon fill="#63b8ff" stroke="#63b8ff" points="362.61,-81.19 372.98,-79.04 363.53,-74.25 362.61,-81.19"/>
</a>
</g>
</g>
</g>
</svg>
