<?xml version="1.0" encoding="UTF-8" standalone="no"?>
<!DOCTYPE svg PUBLIC "-//W3C//DTD SVG 1.1//EN"
 "http://www.w3.org/Graphics/SVG/1.1/DTD/svg11.dtd">
<!-- Generated by graphviz version 10.0.1 (20240210.2158)
 -->
<!-- Title: ml::maths::analytics::boosted_tree_detail::CArgMinPseudoHuberImpl::bucket Pages: 1 -->
<!--zoomable 120 -->

<svg id="main" version="1.1" xmlns="http://www.w3.org/2000/svg" xmlns:xlink="http://www.w3.org/1999/xlink" xml:space="preserve" onload="init(evt)">
<style type="text/css"><![CDATA[
.node, .edge {opacity: 0.7;}
.node.selected, .edge.selected {opacity: 1;}
.edge:hover path { stroke: red; }
.edge:hover polygon { stroke: red; fill: red; }
]]></style>

<defs>
  <circle id="rim" cx="0" cy="0" r="7"/>
  <circle id="rim2" cx="0" cy="0" r="3.5"/>
  <g id="zoomPlus">
    <use xlink:href="#rim" fill="#404040"><set attributeName="fill" to="#808080" begin="zoomplus.mouseover" end="zoomplus.mouseout"/></use>
    <path d="M-4,0h8M0,-4v8" fill="none" stroke="white" stroke-width="1.5" pointer-events="none"/>
  </g>
  <g id="zoomMin">
    <use xlink:href="#rim" fill="#404040"><set attributeName="fill" to="#808080" begin="zoomminus.mouseover" end="zoomminus.mouseout"/></use>
    <path d="M-4,0h8" fill="none" stroke="white" stroke-width="1.5" pointer-events="none"/>
  </g>
  <g id="arrowUp" transform="translate(30 24)">
    <use xlink:href="#rim"/>
    <path pointer-events="none" fill="none" stroke="white" stroke-width="1.5" d="M0,-3.0v7 M-2.5,-0.5L0,-3.0L2.5,-0.5"/>
  </g>
  <g id="arrowRight" transform="rotate(90) translate(36 -43)">
    <use xlink:href="#rim"/>
    <path pointer-events="none" fill="none" stroke="white" stroke-width="1.5" d="M0,-3.0v7 M-2.5,-0.5L0,-3.0L2.5,-0.5"/>
  </g>
  <g id="arrowDown" transform="rotate(180) translate(-30 -48)">
    <use xlink:href="#rim"/>
    <path pointer-events="none" fill="none" stroke="white" stroke-width="1.5" d="M0,-3.0v7 M-2.5,-0.5L0,-3.0L2.5,-0.5"/>
  </g>
  <g id="arrowLeft" transform="rotate(270) translate(-36 17)">
    <use xlink:href="#rim"/>
    <path pointer-events="none" fill="none" stroke="white" stroke-width="1.5" d="M0,-3.0v7 M-2.5,-0.5L0,-3.0L2.5,-0.5"/>
  </g>
  <g id="resetDef">
    <use xlink:href="#rim2" fill="#404040"><set attributeName="fill" to="#808080" begin="reset.mouseover" end="reset.mouseout"/></use>
  </g>
</defs>
<script type="application/ecmascript">
var viewWidth = 517;
var viewHeight = 120;
var sectionId = 'dynsection-3';
</script>
<script type="application/ecmascript" xlink:href="../../svg.min.js"/>
<svg id="graph" class="graph">
<g id="viewport">
<title>ml::maths::analytics::boosted_tree_detail::CArgMinPseudoHuberImpl::bucket</title>
<!-- Node1 -->
<g id="Node000001" class="node">
<title>Node1</title>
<g id="a_Node000001"><a xlink:title=" ">
<polygon fill="#999999" stroke="#666666" points="508.5,-85 370.25,-85 370.25,-32 508.5,-32 508.5,-85"/>
<text text-anchor="start" x="378.25" y="-71.5" font-family="Helvetica,sans-Serif" font-size="10.00">ml::maths::analytics</text>
<text text-anchor="start" x="378.25" y="-60.25" font-family="Helvetica,sans-Serif" font-size="10.00">::boosted_tree_detail</text>
<text text-anchor="start" x="378.25" y="-49" font-family="Helvetica,sans-Serif" font-size="10.00">::CArgMinPseudoHuberImpl</text>
<text text-anchor="middle" x="439.38" y="-37.75" font-family="Helvetica,sans-Serif" font-size="10.00">::bucket</text>
</a>
</g>
</g>
<!-- Node2 -->
<g id="Node000002" class="node">
<title>Node2</title>
<g id="a_Node000002"><a xlink:href="../../d6/d53/classml_1_1maths_1_1analytics_1_1boosted__tree__detail_1_1_c_arg_min_pseudo_huber_impl.html#a50b4037b0ad0f9c69a8f51c6d240037b" target="_top" xlink:title=" ">
<polygon fill="white" stroke="#666666" points="334.25,-112.38 174.25,-112.38 174.25,-70.62 334.25,-70.62 334.25,-112.38"/>
<text text-anchor="start" x="182.25" y="-98.88" font-family="Helvetica,sans-Serif" font-size="10.00">ml::maths::analytics</text>
<text text-anchor="start" x="182.25" y="-87.62" font-family="Helvetica,sans-Serif" font-size="10.00">::boosted_tree_detail</text>
<text text-anchor="middle" x="254.25" y="-76.38" font-family="Helvetica,sans-Serif" font-size="10.00">::CArgMinPseudoHuberImpl::add</text>
</a>
</g>
</g>
<!-- Node1&#45;&gt;Node2 -->
<g id="edge1_Node000001_Node000002" class="edge">
<title>Node1&#45;&gt;Node2</title>
<g id="a_edge1_Node000001_Node000002"><a xlink:title=" ">
<path fill="none" stroke="#63b8ff" d="M358.76,-72.85C350.79,-74.28 342.69,-75.74 334.72,-77.18"/>
<polygon fill="#63b8ff" stroke="#63b8ff" points="359.22,-76.32 368.44,-71.1 357.97,-69.43 359.22,-76.32"/>
</a>
</g>
</g>
<!-- Node3 -->
<g id="Node000003" class="node">
<title>Node3</title>
<g id="a_Node000003"><a xlink:href="../../d6/d53/classml_1_1maths_1_1analytics_1_1boosted__tree__detail_1_1_c_arg_min_pseudo_huber_impl.html#ae60c1fe3b5029d45057489209618285e" target="_top" xlink:title=" ">
<polygon fill="white" stroke="#666666" points="323.38,-53 185.12,-53 185.12,0 323.38,0 323.38,-53"/>
<text text-anchor="start" x="193.12" y="-39.5" font-family="Helvetica,sans-Serif" font-size="10.00">ml::maths::analytics</text>
<text text-anchor="start" x="193.12" y="-28.25" font-family="Helvetica,sans-Serif" font-size="10.00">::boosted_tree_detail</text>
<text text-anchor="start" x="193.12" y="-17" font-family="Helvetica,sans-Serif" font-size="10.00">::CArgMinPseudoHuberImpl</text>
<text text-anchor="middle" x="254.25" y="-5.75" font-family="Helvetica,sans-Serif" font-size="10.00">::objective</text>
</a>
</g>
</g>
<!-- Node1&#45;&gt;Node3 -->
<g id="edge2_Node000001_Node000003" class="edge">
<title>Node1&#45;&gt;Node3</title>
<g id="a_edge2_Node000001_Node000003"><a xlink:title=" ">
<path fill="none" stroke="#63b8ff" d="M358.79,-44.59C347.07,-42.55 335.08,-40.45 323.62,-38.45"/>
<polygon fill="#63b8ff" stroke="#63b8ff" points="357.98,-48 368.43,-46.28 359.19,-41.11 357.98,-48"/>
</a>
</g>
</g>
<!-- Node4 -->
<g id="Node000004" class="node">
<title>Node4</title>
<g id="a_Node000004"><a xlink:href="../../d6/d53/classml_1_1maths_1_1analytics_1_1boosted__tree__detail_1_1_c_arg_min_pseudo_huber_impl.html#ae628995e21cacc5966d5ebef415d34d6" target="_top" xlink:title=" ">
<polygon fill="white" stroke="#666666" points="138.25,-53 0,-53 0,0 138.25,0 138.25,-53"/>
<text text-anchor="start" x="8" y="-39.5" font-family="Helvetica,sans-Serif" font-size="10.00">ml::maths::analytics</text>
<text text-anchor="start" x="8" y="-28.25" font-family="Helvetica,sans-Serif" font-size="10.00">::boosted_tree_detail</text>
<text text-anchor="start" x="8" y="-17" font-family="Helvetica,sans-Serif" font-size="10.00">::CArgMinPseudoHuberImpl</text>
<text text-anchor="middle" x="69.12" y="-5.75" font-family="Helvetica,sans-Serif" font-size="10.00">::value</text>
</a>
</g>
</g>
<!-- Node3&#45;&gt;Node4 -->
<g id="edge3_Node000003_Node000004" class="edge">
<title>Node3&#45;&gt;Node4</title>
<g id="a_edge3_Node000003_Node000004"><a xlink:title=" ">
<path fill="none" stroke="#63b8ff" d="M173.31,-26.5C161.7,-26.5 149.84,-26.5 138.49,-26.5"/>
<polygon fill="#63b8ff" stroke="#63b8ff" points="173.29,-30 183.29,-26.5 173.29,-23 173.29,-30"/>
</a>
</g>
</g>
</g>
</svg>

<g id="navigator" transform="translate(0 0)" fill="#404254">
  <rect fill="#f2f5e9" fill-opacity="0.5" stroke="#606060" stroke-width=".5" x="0" y="0" width="60" height="60"/>
  <use id="zoomplus" xlink:href="#zoomPlus" x="17" y="9" onmousedown="handleZoom(evt,'in')"/>
  <use id="zoomminus" xlink:href="#zoomMin" x="42" y="9" onmousedown="handleZoom(evt,'out')"/>
  <use id="reset" xlink:href="#resetDef" x="30" y="36" onmousedown="handleReset()"/>
   <use id="arrowup" xlink:href="#arrowUp" x="0" y="0" onmousedown="handlePan(0,-1)"/>
  <use id="arrowright" xlink:href="#arrowRight" x="0" y="0" onmousedown="handlePan(1,0)"/>
  <use id="arrowdown" xlink:href="#arrowDown" x="0" y="0" onmousedown="handlePan(0,1)"/>
  <use id="arrowleft" xlink:href="#arrowLeft" x="0" y="0" onmousedown="handlePan(-1,0)"/>
</g>
<svg viewBox="0 0 15 15" width="100%" height="30px" preserveAspectRatio="xMaxYMin meet">
 <g id="arrow_out" transform="scale(0.3 0.3)">
  <a xlink:href="classml_1_1maths_1_1analytics_1_1boosted__tree__detail_1_1_c_arg_min_pseudo_huber_impl_a3fcc53bfa1589a9c27f9121ab5d2f6c0_icgraph_org.svg" target="_base">
   <rect id="button" ry="5" rx="5" y="6" x="6" height="38" width="38"
        fill="#f2f5e9" fill-opacity="0.5" stroke="#606060" stroke-width="1.0"/>
   <path id="arrow"
     d="M 11.500037,31.436501 C 11.940474,20.09759 22.043105,11.32322 32.158766,21.979434 L 37.068811,17.246167 C 37.068811,17.246167 37.088388,32 37.088388,32 L 22.160133,31.978069 C 22.160133,31.978069 26.997745,27.140456 26.997745,27.140456 C 18.528582,18.264221 13.291696,25.230495 11.500037,31.436501 z"
     style="fill:#404040;"/>
  </a>
 </g>
</svg>

<style type='text/css'>
<![CDATA[
[data-mouse-over-selected='false'] { opacity: 0.7; }
[data-mouse-over-selected='true']  { opacity: 1.0; }
]]>
</style>
<script type="application/ecmascript"><![CDATA[
document.addEventListener('DOMContentLoaded', (event) => {
  highlightEdges();
  highlightAdjacentNodes();
});
]]></script>
</svg>
