<?xml version="1.0" encoding="UTF-8" standalone="no"?>
<!DOCTYPE svg PUBLIC "-//W3C//DTD SVG 1.1//EN"
 "http://www.w3.org/Graphics/SVG/1.1/DTD/svg11.dtd">
<!-- Generated by graphviz version 10.0.1 (20240210.2158)
 -->
<!-- Title: ml::core::compressed_lfu_cache_detail::CCompressedLfuCache::CCompressedLfuCache Pages: 1 -->
<svg width="601pt" height="76pt"
 viewBox="0.00 0.00 600.50 75.88" xmlns="http://www.w3.org/2000/svg" xmlns:xlink="http://www.w3.org/1999/xlink">
<g id="graph0" class="graph" transform="scale(1 1) rotate(0) translate(4 71.88)">
<title>ml::core::compressed_lfu_cache_detail::CCompressedLfuCache::CCompressedLfuCache</title>
<!-- Node1 -->
<g id="Node000001" class="node">
<title>Node1</title>
<g id="a_Node000001"><a xlink:title=" ">
<polygon fill="#999999" stroke="#666666" points="169,-51.5 0,-51.5 0,-9.75 169,-9.75 169,-51.5"/>
<text text-anchor="start" x="8" y="-38" font-family="Helvetica,sans-Serif" font-size="10.00">ml::core::compressed</text>
<text text-anchor="start" x="8" y="-26.75" font-family="Helvetica,sans-Serif" font-size="10.00">_lfu_cache_detail::CCompressed</text>
<text text-anchor="middle" x="84.5" y="-15.5" font-family="Helvetica,sans-Serif" font-size="10.00">LfuCache::CCompressedLfuCache</text>
</a>
</g>
</g>
<!-- Node2 -->
<g id="Node000002" class="node">
<title>Node2</title>
<g id="a_Node000002"><a xlink:href="../../d3/d2e/classml_1_1core_1_1compressed__lfu__cache__detail_1_1_c_compressed_lfu_cache.html#a8183ee3ea3879bcb1b6a85dbc1ef26c4" target="_top" xlink:title=" ">
<polygon fill="white" stroke="#666666" points="392,-51.5 205,-51.5 205,-9.75 392,-9.75 392,-51.5"/>
<text text-anchor="start" x="213" y="-38" font-family="Helvetica,sans-Serif" font-size="10.00">ml::core::compressed</text>
<text text-anchor="start" x="213" y="-26.75" font-family="Helvetica,sans-Serif" font-size="10.00">_lfu_cache_detail::CCompressed</text>
<text text-anchor="middle" x="298.5" y="-15.5" font-family="Helvetica,sans-Serif" font-size="10.00">LfuCache::computeMemoryParameters</text>
</a>
</g>
</g>
<!-- Node1&#45;&gt;Node2 -->
<g id="edge1_Node000001_Node000002" class="edge">
<title>Node1&#45;&gt;Node2</title>
<g id="a_edge1_Node000001_Node000002"><a xlink:title=" ">
<path fill="none" stroke="#63b8ff" d="M169.29,-30.62C177.15,-30.62 185.19,-30.62 193.22,-30.62"/>
<polygon fill="#63b8ff" stroke="#63b8ff" points="193.02,-34.13 203.02,-30.63 193.02,-27.13 193.02,-34.13"/>
</a>
</g>
</g>
<!-- Node3 -->
<g id="Node000003" class="node">
<title>Node3</title>
<g id="a_Node000003"><a xlink:href="../../dd/d75/classml_1_1core_1_1_c_compressed_dictionary.html#a13928a12bd86baccea13712035961802" target="_top" xlink:title="Get a translator for the dictionary.">
<polygon fill="white" stroke="#666666" points="592.5,-67.88 428,-67.88 428,-37.38 592.5,-37.38 592.5,-67.88"/>
<text text-anchor="start" x="436" y="-54.38" font-family="Helvetica,sans-Serif" font-size="10.00">ml::core::CCompressedDictionary</text>
<text text-anchor="middle" x="510.25" y="-43.12" font-family="Helvetica,sans-Serif" font-size="10.00">::translator</text>
</a>
</g>
</g>
<!-- Node2&#45;&gt;Node3 -->
<g id="edge2_Node000002_Node000003" class="edge">
<title>Node2&#45;&gt;Node3</title>
<g id="a_edge2_Node000002_Node000003"><a xlink:title=" ">
<path fill="none" stroke="#63b8ff" d="M392.42,-40.37C400.38,-41.21 408.45,-42.05 416.42,-42.89"/>
<polygon fill="#63b8ff" stroke="#63b8ff" points="415.78,-46.34 426.09,-43.9 416.51,-39.38 415.78,-46.34"/>
</a>
</g>
</g>
<!-- Node4 -->
<g id="Node000004" class="node">
<title>Node4</title>
<g id="a_Node000004"><a xlink:href="../../dd/da5/_c_resource_limit_test_8cc.html#adfff002e956fa0ecb7a8a4d4ce39f79f" target="_top" xlink:title=" ">
<polygon fill="white" stroke="#666666" points="534,-19.25 486.5,-19.25 486.5,0 534,0 534,-19.25"/>
<text text-anchor="middle" x="510.25" y="-5.75" font-family="Helvetica,sans-Serif" font-size="10.00">VALUE</text>
</a>
</g>
</g>
<!-- Node2&#45;&gt;Node4 -->
<g id="edge3_Node000002_Node000004" class="edge">
<title>Node2&#45;&gt;Node4</title>
<g id="a_edge3_Node000002_Node000004"><a xlink:title=" ">
<path fill="none" stroke="#63b8ff" d="M392.42,-21.32C421.77,-18.38 452.38,-15.32 474.91,-13.06"/>
<polygon fill="#63b8ff" stroke="#63b8ff" points="475.11,-16.56 484.71,-12.08 474.41,-9.6 475.11,-16.56"/>
</a>
</g>
</g>
</g>
</svg>
