<?xml version="1.0" encoding="UTF-8" standalone="no"?>
<!DOCTYPE svg PUBLIC "-//W3C//DTD SVG 1.1//EN"
 "http://www.w3.org/Graphics/SVG/1.1/DTD/svg11.dtd">
<!-- Generated by graphviz version 10.0.1 (20240210.2158)
 -->
<!-- Title: ml::core::compressed_lfu_cache_detail::CCompressedLfuCache::checkInvariants Pages: 1 -->
<svg width="562pt" height="74pt"
 viewBox="0.00 0.00 562.25 73.75" xmlns="http://www.w3.org/2000/svg" xmlns:xlink="http://www.w3.org/1999/xlink">
<g id="graph0" class="graph" transform="scale(1 1) rotate(0) translate(4 69.75)">
<title>ml::core::compressed_lfu_cache_detail::CCompressedLfuCache::checkInvariants</title>
<!-- Node1 -->
<g id="Node000001" class="node">
<title>Node1</title>
<g id="a_Node000001"><a xlink:title=" ">
<polygon fill="#999999" stroke="#666666" points="160.75,-65.75 0,-65.75 0,-24 160.75,-24 160.75,-65.75"/>
<text text-anchor="start" x="8" y="-52.25" font-family="Helvetica,sans-Serif" font-size="10.00">ml::core::compressed</text>
<text text-anchor="start" x="8" y="-41" font-family="Helvetica,sans-Serif" font-size="10.00">_lfu_cache_detail::CCompressed</text>
<text text-anchor="middle" x="80.38" y="-29.75" font-family="Helvetica,sans-Serif" font-size="10.00">LfuCache::checkInvariants</text>
</a>
</g>
</g>
<!-- Node2 -->
<g id="Node000002" class="node">
<title>Node2</title>
<g id="a_Node000002"><a xlink:href="../../d3/d2e/classml_1_1core_1_1compressed__lfu__cache__detail_1_1_c_compressed_lfu_cache.html#aabbe813ad8ae2be858782aa73b1174cc" target="_top" xlink:title=" ">
<polygon fill="white" stroke="#666666" points="554.25,-65.75 393.5,-65.75 393.5,-24 554.25,-24 554.25,-65.75"/>
<text text-anchor="start" x="401.5" y="-52.25" font-family="Helvetica,sans-Serif" font-size="10.00">ml::core::compressed</text>
<text text-anchor="start" x="401.5" y="-41" font-family="Helvetica,sans-Serif" font-size="10.00">_lfu_cache_detail::CCompressed</text>
<text text-anchor="middle" x="473.88" y="-29.75" font-family="Helvetica,sans-Serif" font-size="10.00">LfuCache::guardRead</text>
</a>
</g>
</g>
<!-- Node1&#45;&gt;Node2 -->
<g id="edge1_Node000001_Node000002" class="edge">
<title>Node1&#45;&gt;Node2</title>
<g id="a_edge1_Node000001_Node000002"><a xlink:title=" ">
<path fill="none" stroke="#63b8ff" d="M161.11,-49.56C173.05,-50.11 185.22,-50.58 196.75,-50.88 268.17,-52.73 286.08,-52.73 357.5,-50.88 365.43,-50.67 373.66,-50.38 381.91,-50.05"/>
<polygon fill="#63b8ff" stroke="#63b8ff" points="381.79,-53.56 391.63,-49.63 381.49,-46.56 381.79,-53.56"/>
</a>
</g>
</g>
<!-- Node3 -->
<g id="Node000003" class="node">
<title>Node3</title>
<g id="a_Node000003"><a xlink:href="../../d3/d2e/classml_1_1core_1_1compressed__lfu__cache__detail_1_1_c_compressed_lfu_cache.html#a2426540285a32170285656b325c99e2a" target="_top" xlink:title=" ">
<polygon fill="white" stroke="#666666" points="357.5,-41.75 196.75,-41.75 196.75,0 357.5,0 357.5,-41.75"/>
<text text-anchor="start" x="204.75" y="-28.25" font-family="Helvetica,sans-Serif" font-size="10.00">ml::core::compressed</text>
<text text-anchor="start" x="204.75" y="-17" font-family="Helvetica,sans-Serif" font-size="10.00">_lfu_cache_detail::CCompressed</text>
<text text-anchor="middle" x="277.12" y="-5.75" font-family="Helvetica,sans-Serif" font-size="10.00">LfuCache::stats</text>
</a>
</g>
</g>
<!-- Node1&#45;&gt;Node3 -->
<g id="edge2_Node000001_Node000003" class="edge">
<title>Node1&#45;&gt;Node3</title>
<g id="a_edge2_Node000001_Node000003"><a xlink:title=" ">
<path fill="none" stroke="#63b8ff" d="M161.15,-35.04C169.07,-34.07 177.16,-33.07 185.19,-32.08"/>
<polygon fill="#63b8ff" stroke="#63b8ff" points="185.48,-35.57 194.97,-30.88 184.62,-28.63 185.48,-35.57"/>
</a>
</g>
</g>
<!-- Node3&#45;&gt;Node2 -->
<g id="edge3_Node000003_Node000002" class="edge">
<title>Node3&#45;&gt;Node2</title>
<g id="a_edge3_Node000003_Node000002"><a xlink:title=" ">
<path fill="none" stroke="#63b8ff" d="M357.9,-30.71C365.82,-31.68 373.91,-32.68 381.94,-33.67"/>
<polygon fill="#63b8ff" stroke="#63b8ff" points="381.37,-37.12 391.72,-34.87 382.23,-30.18 381.37,-37.12"/>
</a>
</g>
</g>
</g>
</svg>
