<?xml version="1.0" encoding="UTF-8" standalone="no"?>
<!DOCTYPE svg PUBLIC "-//W3C//DTD SVG 1.1//EN"
 "http://www.w3.org/Graphics/SVG/1.1/DTD/svg11.dtd">
<!-- Generated by graphviz version 10.0.1 (20240210.2158)
 -->
<!-- Title: ml::core::compressed_lfu_cache_detail::CCompressedLfuCache::guardWrite Pages: 1 -->
<svg width="543pt" height="170pt"
 viewBox="0.00 0.00 542.75 169.75" xmlns="http://www.w3.org/2000/svg" xmlns:xlink="http://www.w3.org/1999/xlink">
<g id="graph0" class="graph" transform="scale(1 1) rotate(0) translate(4 165.75)">
<title>ml::core::compressed_lfu_cache_detail::CCompressedLfuCache::guardWrite</title>
<!-- Node1 -->
<g id="Node000001" class="node">
<title>Node1</title>
<g id="a_Node000001"><a xlink:title=" ">
<polygon fill="#999999" stroke="#666666" points="534.75,-101.75 374,-101.75 374,-60 534.75,-60 534.75,-101.75"/>
<text text-anchor="start" x="382" y="-88.25" font-family="Helvetica,sans-Serif" font-size="10.00">ml::core::compressed</text>
<text text-anchor="start" x="382" y="-77" font-family="Helvetica,sans-Serif" font-size="10.00">_lfu_cache_detail::CCompressed</text>
<text text-anchor="middle" x="454.38" y="-65.75" font-family="Helvetica,sans-Serif" font-size="10.00">LfuCache::guardWrite</text>
</a>
</g>
</g>
<!-- Node2 -->
<g id="Node000002" class="node">
<title>Node2</title>
<g id="a_Node000002"><a xlink:href="../../d3/d2e/classml_1_1core_1_1compressed__lfu__cache__detail_1_1_c_compressed_lfu_cache.html#adfb5d375fa271b1847634a00554506ac" target="_top" xlink:title=" ">
<polygon fill="white" stroke="#666666" points="338,-161.75 177.25,-161.75 177.25,-120 338,-120 338,-161.75"/>
<text text-anchor="start" x="185.25" y="-148.25" font-family="Helvetica,sans-Serif" font-size="10.00">ml::core::compressed</text>
<text text-anchor="start" x="185.25" y="-137" font-family="Helvetica,sans-Serif" font-size="10.00">_lfu_cache_detail::CCompressed</text>
<text text-anchor="middle" x="257.62" y="-125.75" font-family="Helvetica,sans-Serif" font-size="10.00">LfuCache::clear</text>
</a>
</g>
</g>
<!-- Node1&#45;&gt;Node2 -->
<g id="edge1_Node000001_Node000002" class="edge">
<title>Node1&#45;&gt;Node2</title>
<g id="a_edge1_Node000001_Node000002"><a xlink:title=" ">
<path fill="none" stroke="#63b8ff" d="M373.32,-105.54C358.27,-110.18 342.64,-114.99 327.94,-119.52"/>
<polygon fill="#63b8ff" stroke="#63b8ff" points="374.19,-108.93 382.72,-102.64 372.13,-102.24 374.19,-108.93"/>
</a>
</g>
</g>
<!-- Node4 -->
<g id="Node000004" class="node">
<title>Node4</title>
<g id="a_Node000004"><a xlink:href="../../d3/d2e/classml_1_1core_1_1compressed__lfu__cache__detail_1_1_c_compressed_lfu_cache.html#a590cb09f1ad2568b1e3d0ae0ac24b108" target="_top" xlink:title=" ">
<polygon fill="white" stroke="#666666" points="338,-101.75 177.25,-101.75 177.25,-60 338,-60 338,-101.75"/>
<text text-anchor="start" x="185.25" y="-88.25" font-family="Helvetica,sans-Serif" font-size="10.00">ml::core::compressed</text>
<text text-anchor="start" x="185.25" y="-77" font-family="Helvetica,sans-Serif" font-size="10.00">_lfu_cache_detail::CCompressed</text>
<text text-anchor="middle" x="257.62" y="-65.75" font-family="Helvetica,sans-Serif" font-size="10.00">LfuCache::lookup</text>
</a>
</g>
</g>
<!-- Node1&#45;&gt;Node4 -->
<g id="edge3_Node000001_Node000004" class="edge">
<title>Node1&#45;&gt;Node4</title>
<g id="a_edge3_Node000001_Node000004"><a xlink:title=" ">
<path fill="none" stroke="#63b8ff" d="M362.31,-80.88C354.28,-80.88 346.2,-80.88 338.28,-80.88"/>
<polygon fill="#63b8ff" stroke="#63b8ff" points="362.09,-84.38 372.09,-80.88 362.09,-77.38 362.09,-84.38"/>
</a>
</g>
</g>
<!-- Node6 -->
<g id="Node000006" class="node">
<title>Node6</title>
<g id="a_Node000006"><a xlink:href="../../d3/d2e/classml_1_1core_1_1compressed__lfu__cache__detail_1_1_c_compressed_lfu_cache.html#ae8fa90151254378202c3634ee56c1ba7" target="_top" xlink:title=" ">
<polygon fill="white" stroke="#666666" points="338,-41.75 177.25,-41.75 177.25,0 338,0 338,-41.75"/>
<text text-anchor="start" x="185.25" y="-28.25" font-family="Helvetica,sans-Serif" font-size="10.00">ml::core::compressed</text>
<text text-anchor="start" x="185.25" y="-17" font-family="Helvetica,sans-Serif" font-size="10.00">_lfu_cache_detail::CCompressed</text>
<text text-anchor="middle" x="257.62" y="-5.75" font-family="Helvetica,sans-Serif" font-size="10.00">LfuCache::resize</text>
</a>
</g>
</g>
<!-- Node1&#45;&gt;Node6 -->
<g id="edge5_Node000001_Node000006" class="edge">
<title>Node1&#45;&gt;Node6</title>
<g id="a_edge5_Node000001_Node000006"><a xlink:title=" ">
<path fill="none" stroke="#63b8ff" d="M373.32,-56.21C358.27,-51.57 342.64,-46.76 327.94,-42.23"/>
<polygon fill="#63b8ff" stroke="#63b8ff" points="372.13,-59.51 382.72,-59.11 374.19,-52.82 372.13,-59.51"/>
</a>
</g>
</g>
<!-- Node3 -->
<g id="Node000003" class="node">
<title>Node3</title>
<g id="a_Node000003"><a xlink:href="../../d2/d0f/classml_1_1torch_1_1_c_command_parser_1_1_c_request_cache.html#a659e5ba593f304bc8b70bcd8c0d6c153" target="_top" xlink:title=" ">
<polygon fill="white" stroke="#666666" points="141.25,-156.12 0,-156.12 0,-125.62 141.25,-125.62 141.25,-156.12"/>
<text text-anchor="start" x="8" y="-142.62" font-family="Helvetica,sans-Serif" font-size="10.00">ml::torch::CCommandParser</text>
<text text-anchor="middle" x="70.62" y="-131.38" font-family="Helvetica,sans-Serif" font-size="10.00">::CRequestCache::clear</text>
</a>
</g>
</g>
<!-- Node2&#45;&gt;Node3 -->
<g id="edge2_Node000002_Node000003" class="edge">
<title>Node2&#45;&gt;Node3</title>
<g id="a_edge2_Node000002_Node000003"><a xlink:title=" ">
<path fill="none" stroke="#63b8ff" d="M165.49,-140.88C157.45,-140.88 149.39,-140.88 141.56,-140.88"/>
<polygon fill="#63b8ff" stroke="#63b8ff" points="165.31,-144.38 175.31,-140.88 165.31,-137.38 165.31,-144.38"/>
</a>
</g>
</g>
<!-- Node5 -->
<g id="Node000005" class="node">
<title>Node5</title>
<g id="a_Node000005"><a xlink:href="../../d2/d0f/classml_1_1torch_1_1_c_command_parser_1_1_c_request_cache.html#a1342e839d333ad8ded7d709c9e6ff750" target="_top" xlink:title=" ">
<polygon fill="white" stroke="#666666" points="141.25,-96.12 0,-96.12 0,-65.62 141.25,-65.62 141.25,-96.12"/>
<text text-anchor="start" x="8" y="-82.62" font-family="Helvetica,sans-Serif" font-size="10.00">ml::torch::CCommandParser</text>
<text text-anchor="middle" x="70.62" y="-71.38" font-family="Helvetica,sans-Serif" font-size="10.00">::CRequestCache::lookup</text>
</a>
</g>
</g>
<!-- Node4&#45;&gt;Node5 -->
<g id="edge4_Node000004_Node000005" class="edge">
<title>Node4&#45;&gt;Node5</title>
<g id="a_edge4_Node000004_Node000005"><a xlink:title=" ">
<path fill="none" stroke="#63b8ff" d="M165.49,-80.88C157.45,-80.88 149.39,-80.88 141.56,-80.88"/>
<polygon fill="#63b8ff" stroke="#63b8ff" points="165.31,-84.38 175.31,-80.88 165.31,-77.38 165.31,-84.38"/>
</a>
</g>
</g>
<!-- Node7 -->
<g id="Node000007" class="node">
<title>Node7</title>
<g id="a_Node000007"><a xlink:href="../../d2/d0f/classml_1_1torch_1_1_c_command_parser_1_1_c_request_cache.html#a25bc17da8d5c095e3aa08c1c989b7949" target="_top" xlink:title=" ">
<polygon fill="white" stroke="#666666" points="141.25,-36.12 0,-36.12 0,-5.62 141.25,-5.62 141.25,-36.12"/>
<text text-anchor="start" x="8" y="-22.62" font-family="Helvetica,sans-Serif" font-size="10.00">ml::torch::CCommandParser</text>
<text text-anchor="middle" x="70.62" y="-11.38" font-family="Helvetica,sans-Serif" font-size="10.00">::CRequestCache::resize</text>
</a>
</g>
</g>
<!-- Node6&#45;&gt;Node7 -->
<g id="edge6_Node000006_Node000007" class="edge">
<title>Node6&#45;&gt;Node7</title>
<g id="a_edge6_Node000006_Node000007"><a xlink:title=" ">
<path fill="none" stroke="#63b8ff" d="M165.49,-20.88C157.45,-20.88 149.39,-20.88 141.56,-20.88"/>
<polygon fill="#63b8ff" stroke="#63b8ff" points="165.31,-24.38 175.31,-20.88 165.31,-17.38 165.31,-24.38"/>
</a>
</g>
</g>
</g>
</svg>
