<?xml version="1.0" encoding="UTF-8" standalone="no"?>
<!DOCTYPE svg PUBLIC "-//W3C//DTD SVG 1.1//EN"
 "http://www.w3.org/Graphics/SVG/1.1/DTD/svg11.dtd">
<!-- Generated by graphviz version 10.0.1 (20240210.2158)
 -->
<!-- Title: ml::core::parallel_for_each Pages: 1 -->
<svg width="661pt" height="204pt"
 viewBox="0.00 0.00 660.75 203.75" xmlns="http://www.w3.org/2000/svg" xmlns:xlink="http://www.w3.org/1999/xlink">
<g id="graph0" class="graph" transform="scale(1 1) rotate(0) translate(4 199.75)">
<title>ml::core::parallel_for_each</title>
<!-- Node1 -->
<g id="Node000001" class="node">
<title>Node1</title>
<g id="a_Node000001"><a xlink:title=" ">
<polygon fill="#999999" stroke="#666666" points="88,-63.12 0,-63.12 0,-32.62 88,-32.62 88,-63.12"/>
<text text-anchor="start" x="8" y="-49.62" font-family="Helvetica,sans-Serif" font-size="10.00">ml::core::parallel</text>
<text text-anchor="middle" x="44" y="-38.38" font-family="Helvetica,sans-Serif" font-size="10.00">_for_each</text>
</a>
</g>
</g>
<!-- Node2 -->
<g id="Node000002" class="node">
<title>Node2</title>
<g id="a_Node000002"><a xlink:href="../../d1/d87/namespaceml_1_1core_1_1concurrency__detail.html#aca729744cf1ab3ce2d0f17c4d6e8f3e3" target="_top" xlink:title=" ">
<polygon fill="white" stroke="#666666" points="264.12,-90.12 140.12,-90.12 140.12,-59.62 264.12,-59.62 264.12,-90.12"/>
<text text-anchor="start" x="148.12" y="-76.62" font-family="Helvetica,sans-Serif" font-size="10.00">ml::core::concurrency</text>
<text text-anchor="middle" x="202.12" y="-65.38" font-family="Helvetica,sans-Serif" font-size="10.00">_detail::parallel_for_each</text>
</a>
</g>
</g>
<!-- Node1&#45;&gt;Node2 -->
<g id="edge1_Node000001_Node000002" class="edge">
<title>Node1&#45;&gt;Node2</title>
<g id="a_edge1_Node000001_Node000002"><a xlink:title=" ">
<path fill="none" stroke="#63b8ff" d="M88.49,-55.4C101.02,-57.56 115.04,-59.99 128.82,-62.37"/>
<polygon fill="#63b8ff" stroke="#63b8ff" points="127.84,-65.75 138.29,-64.01 129.04,-58.86 127.84,-65.75"/>
</a>
</g>
</g>
<!-- Node9 -->
<g id="Node000009" class="node">
<title>Node9</title>
<g id="a_Node000009"><a xlink:href="../../df/d10/classml_1_1core_1_1concurrency__detail_1_1_c_default_async_executor_busy_for_scope.html#aa9e8bc64fe6b9fd35860e1be6c34db52" target="_top" xlink:title=" ">
<polygon fill="white" stroke="#666666" points="280.25,-41.75 124,-41.75 124,0 280.25,0 280.25,-41.75"/>
<text text-anchor="start" x="132" y="-28.25" font-family="Helvetica,sans-Serif" font-size="10.00">ml::core::concurrency</text>
<text text-anchor="start" x="132" y="-17" font-family="Helvetica,sans-Serif" font-size="10.00">_detail::CDefaultAsyncExecutor</text>
<text text-anchor="middle" x="202.12" y="-5.75" font-family="Helvetica,sans-Serif" font-size="10.00">BusyForScope::wasBusy</text>
</a>
</g>
</g>
<!-- Node1&#45;&gt;Node9 -->
<g id="edge8_Node000001_Node000009" class="edge">
<title>Node1&#45;&gt;Node9</title>
<g id="a_edge8_Node000001_Node000009"><a xlink:title=" ">
<path fill="none" stroke="#63b8ff" d="M88.49,-40.35C96.14,-39.03 104.35,-37.61 112.72,-36.16"/>
<polygon fill="#63b8ff" stroke="#63b8ff" points="113.04,-39.66 122.3,-34.51 111.85,-32.76 113.04,-39.66"/>
</a>
</g>
</g>
<!-- Node3 -->
<g id="Node000003" class="node">
<title>Node3</title>
<g id="a_Node000003"><a xlink:href="../../db/dc5/namespaceml_1_1core.html#aefce23c29106b3507fb80ce9ce64a10d" target="_top" xlink:title=" ">
<polygon fill="white" stroke="#666666" points="434.62,-130.5 351.12,-130.5 351.12,-111.25 434.62,-111.25 434.62,-130.5"/>
<text text-anchor="middle" x="392.88" y="-117" font-family="Helvetica,sans-Serif" font-size="10.00">ml::core::async</text>
</a>
</g>
</g>
<!-- Node2&#45;&gt;Node3 -->
<g id="edge2_Node000002_Node000003" class="edge">
<title>Node2&#45;&gt;Node3</title>
<g id="a_edge2_Node000002_Node000003"><a xlink:title=" ">
<path fill="none" stroke="#63b8ff" d="M264.41,-89.81C288.74,-95.74 316.42,-102.49 339.77,-108.18"/>
<polygon fill="#63b8ff" stroke="#63b8ff" points="338.83,-111.55 349.37,-110.52 340.48,-104.75 338.83,-111.55"/>
</a>
</g>
</g>
<!-- Node6 -->
<g id="Node000006" class="node">
<title>Node6</title>
<g id="a_Node000006"><a xlink:href="../../db/dc5/namespaceml_1_1core.html#a514736cf5469484b399fb7dd913c754d" target="_top" xlink:title=" ">
<polygon fill="white" stroke="#666666" points="469.5,-84.5 316.25,-84.5 316.25,-65.25 469.5,-65.25 469.5,-84.5"/>
<text text-anchor="middle" x="392.88" y="-71" font-family="Helvetica,sans-Serif" font-size="10.00">ml::core::defaultAsyncExecutor</text>
</a>
</g>
</g>
<!-- Node2&#45;&gt;Node6 -->
<g id="edge5_Node000002_Node000006" class="edge">
<title>Node2&#45;&gt;Node6</title>
<g id="a_edge5_Node000002_Node000006"><a xlink:title=" ">
<path fill="none" stroke="#63b8ff" d="M264.41,-74.88C277.27,-74.88 291.08,-74.88 304.69,-74.88"/>
<polygon fill="#63b8ff" stroke="#63b8ff" points="304.53,-78.38 314.53,-74.88 304.53,-71.38 304.53,-78.38"/>
</a>
</g>
</g>
<!-- Node8 -->
<g id="Node000008" class="node">
<title>Node8</title>
<g id="a_Node000008"><a xlink:href="../../db/dc5/namespaceml_1_1core.html#a0d31866d6ef3973344ddfbf398d09fc0" target="_top" xlink:title="Get the conjunction of all futures.">
<polygon fill="white" stroke="#666666" points="455.62,-47.12 330.12,-47.12 330.12,-16.62 455.62,-16.62 455.62,-47.12"/>
<text text-anchor="start" x="338.12" y="-33.62" font-family="Helvetica,sans-Serif" font-size="10.00">ml::core::get_conjunction</text>
<text text-anchor="middle" x="392.88" y="-22.38" font-family="Helvetica,sans-Serif" font-size="10.00">_of_all</text>
</a>
</g>
</g>
<!-- Node2&#45;&gt;Node8 -->
<g id="edge7_Node000002_Node000008" class="edge">
<title>Node2&#45;&gt;Node8</title>
<g id="a_edge7_Node000002_Node000008"><a xlink:title=" ">
<path fill="none" stroke="#63b8ff" d="M264.41,-60.91C281.79,-56.95 300.89,-52.6 318.89,-48.5"/>
<polygon fill="#63b8ff" stroke="#63b8ff" points="319.48,-51.96 328.46,-46.32 317.93,-45.13 319.48,-51.96"/>
</a>
</g>
</g>
<!-- Node4 -->
<g id="Node000004" class="node">
<title>Node4</title>
<g id="a_Node000004"><a xlink:href="../../d1/d87/namespaceml_1_1core_1_1concurrency__detail.html#abed0bdc95d236dd9d9e52120448fd049" target="_top" xlink:title=" ">
<polygon fill="white" stroke="#666666" points="652.75,-195.75 505.5,-195.75 505.5,-154 652.75,-154 652.75,-195.75"/>
<text text-anchor="start" x="513.5" y="-182.25" font-family="Helvetica,sans-Serif" font-size="10.00">ml::core::concurrency</text>
<text text-anchor="start" x="513.5" y="-171" font-family="Helvetica,sans-Serif" font-size="10.00">_detail::invokeAndWriteResult</text>
<text text-anchor="middle" x="579.12" y="-159.75" font-family="Helvetica,sans-Serif" font-size="10.00">ToPromise</text>
</a>
</g>
</g>
<!-- Node3&#45;&gt;Node4 -->
<g id="edge3_Node000003_Node000004" class="edge">
<title>Node3&#45;&gt;Node4</title>
<g id="a_edge3_Node000003_Node000004"><a xlink:title=" ">
<path fill="none" stroke="#63b8ff" d="M428.1,-130.91C446.96,-136.43 471.27,-143.56 494.8,-150.45"/>
<polygon fill="#63b8ff" stroke="#63b8ff" points="493.51,-153.72 504.09,-153.18 495.47,-147 493.51,-153.72"/>
</a>
</g>
</g>
<!-- Node5 -->
<g id="Node000005" class="node">
<title>Node5</title>
<g id="a_Node000005"><a xlink:href="../../d5/d40/classml_1_1core_1_1_c_executor.html#a5665713543d485a2b3afa13030ad5a97" target="_top" xlink:title=" ">
<polygon fill="white" stroke="#666666" points="631,-136.12 527.25,-136.12 527.25,-105.62 631,-105.62 631,-136.12"/>
<text text-anchor="start" x="535.25" y="-122.62" font-family="Helvetica,sans-Serif" font-size="10.00">ml::core::CExecutor</text>
<text text-anchor="middle" x="579.12" y="-111.38" font-family="Helvetica,sans-Serif" font-size="10.00">::schedule</text>
</a>
</g>
</g>
<!-- Node3&#45;&gt;Node5 -->
<g id="edge4_Node000003_Node000005" class="edge">
<title>Node3&#45;&gt;Node5</title>
<g id="a_edge4_Node000003_Node000005"><a xlink:title=" ">
<path fill="none" stroke="#63b8ff" d="M434.77,-120.88C458.51,-120.88 488.92,-120.88 515.62,-120.88"/>
<polygon fill="#63b8ff" stroke="#63b8ff" points="515.29,-124.38 525.29,-120.88 515.29,-117.38 515.29,-124.38"/>
</a>
</g>
</g>
<!-- Node7 -->
<g id="Node000007" class="node">
<title>Node7</title>
<g id="a_Node000007"><a xlink:href="../../df/d30/classml_1_1core_1_1anonymous__namespace_02_concurrency_8cc_03_1_1_c_executor_holder.html#afcebfc23de1baba7d76523d8d201f97c" target="_top" xlink:title=" ">
<polygon fill="white" stroke="#666666" points="647.12,-87.75 511.12,-87.75 511.12,-46 647.12,-46 647.12,-87.75"/>
<text text-anchor="start" x="519.12" y="-74.25" font-family="Helvetica,sans-Serif" font-size="10.00">ml::core::anonymous</text>
<text text-anchor="start" x="519.12" y="-63" font-family="Helvetica,sans-Serif" font-size="10.00">_namespace{Concurrency</text>
<text text-anchor="middle" x="579.12" y="-51.75" font-family="Helvetica,sans-Serif" font-size="10.00">::cc}::CExecutorHolder::get</text>
</a>
</g>
</g>
<!-- Node6&#45;&gt;Node7 -->
<g id="edge6_Node000006_Node000007" class="edge">
<title>Node6&#45;&gt;Node7</title>
<g id="a_edge6_Node000006_Node000007"><a xlink:title=" ">
<path fill="none" stroke="#63b8ff" d="M469.88,-71.57C479.64,-71.15 489.65,-70.72 499.45,-70.29"/>
<polygon fill="#63b8ff" stroke="#63b8ff" points="499.49,-73.79 509.33,-69.86 499.18,-66.8 499.49,-73.79"/>
</a>
</g>
</g>
</g>
</svg>
