<?xml version="1.0" encoding="UTF-8" standalone="no"?>
<!DOCTYPE svg PUBLIC "-//W3C//DTD SVG 1.1//EN"
 "http://www.w3.org/Graphics/SVG/1.1/DTD/svg11.dtd">
<!-- Generated by graphviz version 10.0.1 (20240210.2158)
 -->
<!-- Title: ml::maths::time_series::CTimeSeriesCorrelations::refresh Pages: 1 -->
<svg width="988pt" height="614pt"
 viewBox="0.00 0.00 988.25 613.69" xmlns="http://www.w3.org/2000/svg" xmlns:xlink="http://www.w3.org/1999/xlink">
<g id="graph0" class="graph" transform="scale(1 1) rotate(0) translate(4 609.69)">
<title>ml::maths::time_series::CTimeSeriesCorrelations::refresh</title>
<!-- Node1 -->
<g id="Node000001" class="node">
<title>Node1</title>
<g id="a_Node000001"><a xlink:title=" ">
<polygon fill="#999999" stroke="#666666" points="131.5,-299.69 0,-299.69 0,-257.94 131.5,-257.94 131.5,-299.69"/>
<text text-anchor="start" x="8" y="-286.19" font-family="Helvetica,sans-Serif" font-size="10.00">ml::maths::time_series</text>
<text text-anchor="start" x="8" y="-274.94" font-family="Helvetica,sans-Serif" font-size="10.00">::CTimeSeriesCorrelations</text>
<text text-anchor="middle" x="65.75" y="-263.69" font-family="Helvetica,sans-Serif" font-size="10.00">::refresh</text>
</a>
</g>
</g>
<!-- Node2 -->
<g id="Node000002" class="node">
<title>Node2</title>
<g id="a_Node000002"><a xlink:href="../../df/d82/classml_1_1maths_1_1time__series_1_1_c_time_series_correlate_model_allocator.html#a6a1d3124eec3b12a2009d0645b0bf866" target="_top" xlink:title="Check if we can still allocate any correlations.">
<polygon fill="white" stroke="#666666" points="350.75,-605.69 167.5,-605.69 167.5,-563.94 350.75,-563.94 350.75,-605.69"/>
<text text-anchor="start" x="175.5" y="-592.19" font-family="Helvetica,sans-Serif" font-size="10.00">ml::maths::time_series</text>
<text text-anchor="start" x="175.5" y="-580.94" font-family="Helvetica,sans-Serif" font-size="10.00">::CTimeSeriesCorrelateModelAllocator</text>
<text text-anchor="middle" x="259.12" y="-569.69" font-family="Helvetica,sans-Serif" font-size="10.00">::areAllocationsAllowed</text>
</a>
</g>
</g>
<!-- Node1&#45;&gt;Node2 -->
<g id="edge1_Node000001_Node000002" class="edge">
<title>Node1&#45;&gt;Node2</title>
<g id="a_edge1_Node000001_Node000002"><a xlink:title=" ">
<path fill="none" stroke="#63b8ff" d="M68.36,-300.14C73.37,-351.41 93.18,-482.71 167.5,-554.81 168.12,-555.42 168.76,-556.01 169.41,-556.6"/>
<polygon fill="#63b8ff" stroke="#63b8ff" points="167.17,-559.29 177.24,-562.58 171.42,-553.73 167.17,-559.29"/>
</a>
</g>
</g>
<!-- Node3 -->
<g id="Node000003" class="node">
<title>Node3</title>
<g id="a_Node000003"><a xlink:href="../../d0/ddc/classml_1_1maths_1_1common_1_1_c_k_most_correlated.html#a818ac740d3ed9c6e2130aea1286f51f3" target="_top" xlink:title="Check if the correlations may have just changed.">
<polygon fill="white" stroke="#666666" points="329,-546.06 189.25,-546.06 189.25,-515.56 329,-515.56 329,-546.06"/>
<text text-anchor="start" x="197.25" y="-532.56" font-family="Helvetica,sans-Serif" font-size="10.00">ml::maths::common::</text>
<text text-anchor="middle" x="259.12" y="-521.31" font-family="Helvetica,sans-Serif" font-size="10.00">CKMostCorrelated::changed</text>
</a>
</g>
</g>
<!-- Node1&#45;&gt;Node3 -->
<g id="edge2_Node000001_Node000003" class="edge">
<title>Node1&#45;&gt;Node3</title>
<g id="a_edge2_Node000001_Node000003"><a xlink:title=" ">
<path fill="none" stroke="#63b8ff" d="M69.89,-300.05C77.71,-345.21 102.34,-451.17 167.5,-506.81 170.95,-509.76 174.73,-512.35 178.72,-514.63"/>
<polygon fill="#63b8ff" stroke="#63b8ff" points="177.12,-517.75 187.64,-519 180.2,-511.46 177.12,-517.75"/>
</a>
</g>
</g>
<!-- Node4 -->
<g id="Node000004" class="node">
<title>Node4</title>
<g id="a_Node000004"><a xlink:href="../../df/d82/classml_1_1maths_1_1time__series_1_1_c_time_series_correlate_model_allocator.html#abcf17dd193055008a9a879c5dcba4454" target="_top" xlink:title="Get the chunk size in which to allocate correlations.">
<polygon fill="white" stroke="#666666" points="350.75,-497.69 167.5,-497.69 167.5,-455.94 350.75,-455.94 350.75,-497.69"/>
<text text-anchor="start" x="175.5" y="-484.19" font-family="Helvetica,sans-Serif" font-size="10.00">ml::maths::time_series</text>
<text text-anchor="start" x="175.5" y="-472.94" font-family="Helvetica,sans-Serif" font-size="10.00">::CTimeSeriesCorrelateModelAllocator</text>
<text text-anchor="middle" x="259.12" y="-461.69" font-family="Helvetica,sans-Serif" font-size="10.00">::chunkSize</text>
</a>
</g>
</g>
<!-- Node1&#45;&gt;Node4 -->
<g id="edge3_Node000001_Node000004" class="edge">
<title>Node1&#45;&gt;Node4</title>
<g id="a_edge3_Node000001_Node000004"><a xlink:title=" ">
<path fill="none" stroke="#63b8ff" d="M73.94,-300.19C86.98,-335.75 117.85,-407.07 167.5,-446.81 168.63,-447.72 169.78,-448.59 170.97,-449.44"/>
<polygon fill="#63b8ff" stroke="#63b8ff" points="168.86,-452.26 179.18,-454.66 172.61,-446.35 168.86,-452.26"/>
</a>
</g>
</g>
<!-- Node5 -->
<g id="Node000005" class="node">
<title>Node5</title>
<g id="a_Node000005"><a xlink:href="../../d3/d09/classml_1_1maths_1_1time__series_1_1_c_time_series_correlations.html#a230bd35b8e13a152626a408d4b8a947c" target="_top" xlink:title="Get the ids of the time series correlated with id.">
<polygon fill="white" stroke="#666666" points="324.88,-419.69 193.38,-419.69 193.38,-377.94 324.88,-377.94 324.88,-419.69"/>
<text text-anchor="start" x="201.38" y="-406.19" font-family="Helvetica,sans-Serif" font-size="10.00">ml::maths::time_series</text>
<text text-anchor="start" x="201.38" y="-394.94" font-family="Helvetica,sans-Serif" font-size="10.00">::CTimeSeriesCorrelations</text>
<text text-anchor="middle" x="259.12" y="-383.69" font-family="Helvetica,sans-Serif" font-size="10.00">::correlated</text>
</a>
</g>
</g>
<!-- Node1&#45;&gt;Node5 -->
<g id="edge4_Node000001_Node000005" class="edge">
<title>Node1&#45;&gt;Node5</title>
<g id="a_edge4_Node000001_Node000005"><a xlink:title=" ">
<path fill="none" stroke="#63b8ff" d="M85.64,-300.13C104.56,-320.33 135.42,-350.26 167.5,-368.81 172.4,-371.65 177.6,-374.26 182.93,-376.65"/>
<polygon fill="#63b8ff" stroke="#63b8ff" points="181.35,-379.78 191.93,-380.42 184.05,-373.33 181.35,-379.78"/>
</a>
</g>
</g>
<!-- Node6 -->
<g id="Node000006" class="node">
<title>Node6</title>
<g id="a_Node000006"><a xlink:href="../../df/d82/classml_1_1maths_1_1time__series_1_1_c_time_series_correlate_model_allocator.html#a138c1c29bbdbbf87842cab3ada47cff1" target="_top" xlink:title="Check if correlations exceeds the memory limit.">
<polygon fill="white" stroke="#666666" points="350.75,-359.69 167.5,-359.69 167.5,-317.94 350.75,-317.94 350.75,-359.69"/>
<text text-anchor="start" x="175.5" y="-346.19" font-family="Helvetica,sans-Serif" font-size="10.00">ml::maths::time_series</text>
<text text-anchor="start" x="175.5" y="-334.94" font-family="Helvetica,sans-Serif" font-size="10.00">::CTimeSeriesCorrelateModelAllocator</text>
<text text-anchor="middle" x="259.12" y="-323.69" font-family="Helvetica,sans-Serif" font-size="10.00">::exceedsLimit</text>
</a>
</g>
</g>
<!-- Node1&#45;&gt;Node6 -->
<g id="edge6_Node000001_Node000006" class="edge">
<title>Node1&#45;&gt;Node6</title>
<g id="a_edge6_Node000001_Node000006"><a xlink:title=" ">
<path fill="none" stroke="#63b8ff" d="M131.81,-299.21C147.04,-303.99 163.43,-309.13 179.19,-314.07"/>
<polygon fill="#63b8ff" stroke="#63b8ff" points="177.95,-317.35 188.54,-317 180.04,-310.67 177.95,-317.35"/>
</a>
</g>
</g>
<!-- Node7 -->
<g id="Node000007" class="node">
<title>Node7</title>
<g id="a_Node000007"><a xlink:href="../../df/d82/classml_1_1maths_1_1time__series_1_1_c_time_series_correlate_model_allocator.html#a72ae3bb43938dbb09dcec0031a443249" target="_top" xlink:title="Get the maximum number of correlations we should model.">
<polygon fill="white" stroke="#666666" points="350.75,-299.69 167.5,-299.69 167.5,-257.94 350.75,-257.94 350.75,-299.69"/>
<text text-anchor="start" x="175.5" y="-286.19" font-family="Helvetica,sans-Serif" font-size="10.00">ml::maths::time_series</text>
<text text-anchor="start" x="175.5" y="-274.94" font-family="Helvetica,sans-Serif" font-size="10.00">::CTimeSeriesCorrelateModelAllocator</text>
<text text-anchor="middle" x="259.12" y="-263.69" font-family="Helvetica,sans-Serif" font-size="10.00">::maxNumberCorrelations</text>
</a>
</g>
</g>
<!-- Node1&#45;&gt;Node7 -->
<g id="edge7_Node000001_Node000007" class="edge">
<title>Node1&#45;&gt;Node7</title>
<g id="a_edge7_Node000001_Node000007"><a xlink:title=" ">
<path fill="none" stroke="#63b8ff" d="M131.81,-278.81C139.54,-278.81 147.57,-278.81 155.67,-278.81"/>
<polygon fill="#63b8ff" stroke="#63b8ff" points="155.62,-282.31 165.62,-278.81 155.62,-275.31 155.62,-282.31"/>
</a>
</g>
</g>
<!-- Node8 -->
<g id="Node000008" class="node">
<title>Node8</title>
<g id="a_Node000008"><a xlink:href="../../d0/ddc/classml_1_1maths_1_1common_1_1_c_k_most_correlated.html#af1cc73c542ac0e55492bb3b58a988b76" target="_top" xlink:title="Get the most correlated variables.">
<polygon fill="white" stroke="#666666" points="344,-240.06 174.25,-240.06 174.25,-209.56 344,-209.56 344,-240.06"/>
<text text-anchor="start" x="182.25" y="-226.56" font-family="Helvetica,sans-Serif" font-size="10.00">ml::maths::common::</text>
<text text-anchor="middle" x="259.12" y="-215.31" font-family="Helvetica,sans-Serif" font-size="10.00">CKMostCorrelated::mostCorrelated</text>
</a>
</g>
</g>
<!-- Node1&#45;&gt;Node8 -->
<g id="edge8_Node000001_Node000008" class="edge">
<title>Node1&#45;&gt;Node8</title>
<g id="a_edge8_Node000001_Node000008"><a xlink:title=" ">
<path fill="none" stroke="#63b8ff" d="M131.97,-259.08C143.78,-255.6 155.99,-252.05 167.5,-248.81 173.82,-247.04 180.41,-245.22 187.01,-243.43"/>
<polygon fill="#63b8ff" stroke="#63b8ff" points="187.89,-246.81 196.63,-240.83 186.07,-240.06 187.89,-246.81"/>
</a>
</g>
</g>
<!-- Node9 -->
<g id="Node000009" class="node">
<title>Node9</title>
<g id="a_Node000009"><a xlink:href="../../df/d82/classml_1_1maths_1_1time__series_1_1_c_time_series_correlate_model_allocator.html#a7de4874534719c8adcfa4ae4a59c6e05" target="_top" xlink:title="Create a new prior for a correlation model.">
<polygon fill="white" stroke="#666666" points="350.75,-191.69 167.5,-191.69 167.5,-149.94 350.75,-149.94 350.75,-191.69"/>
<text text-anchor="start" x="175.5" y="-178.19" font-family="Helvetica,sans-Serif" font-size="10.00">ml::maths::time_series</text>
<text text-anchor="start" x="175.5" y="-166.94" font-family="Helvetica,sans-Serif" font-size="10.00">::CTimeSeriesCorrelateModelAllocator</text>
<text text-anchor="middle" x="259.12" y="-155.69" font-family="Helvetica,sans-Serif" font-size="10.00">::newPrior</text>
</a>
</g>
</g>
<!-- Node1&#45;&gt;Node9 -->
<g id="edge9_Node000001_Node000009" class="edge">
<title>Node1&#45;&gt;Node9</title>
<g id="a_edge9_Node000001_Node000009"><a xlink:title=" ">
<path fill="none" stroke="#63b8ff" d="M89.59,-257.44C109.05,-240.19 138.41,-216.3 167.5,-200.81 170.31,-199.32 173.21,-197.88 176.17,-196.49"/>
<polygon fill="#63b8ff" stroke="#63b8ff" points="177.28,-199.83 185.03,-192.6 174.47,-193.42 177.28,-199.83"/>
</a>
</g>
</g>
<!-- Node10 -->
<g id="Node000010" class="node">
<title>Node10</title>
<g id="a_Node000010"><a xlink:href="../../d3/d09/classml_1_1maths_1_1time__series_1_1_c_time_series_correlations.html#a4f3de1745d118b3a48dd2e0e49deb08a" target="_top" xlink:title=" ">
<polygon fill="white" stroke="#666666" points="324.88,-131.69 193.38,-131.69 193.38,-89.94 324.88,-89.94 324.88,-131.69"/>
<text text-anchor="start" x="201.38" y="-118.19" font-family="Helvetica,sans-Serif" font-size="10.00">ml::maths::time_series</text>
<text text-anchor="start" x="201.38" y="-106.94" font-family="Helvetica,sans-Serif" font-size="10.00">::CTimeSeriesCorrelations</text>
<text text-anchor="middle" x="259.12" y="-95.69" font-family="Helvetica,sans-Serif" font-size="10.00">::refreshLookup</text>
</a>
</g>
</g>
<!-- Node1&#45;&gt;Node10 -->
<g id="edge10_Node000001_Node000010" class="edge">
<title>Node1&#45;&gt;Node10</title>
<g id="a_edge10_Node000001_Node000010"><a xlink:title=" ">
<path fill="none" stroke="#63b8ff" d="M76.84,-257.61C92.25,-227.41 124.47,-172.18 167.5,-140.81 172.35,-137.28 177.65,-134.14 183.17,-131.36"/>
<polygon fill="#63b8ff" stroke="#63b8ff" points="184.27,-134.7 191.91,-127.36 181.36,-128.34 184.27,-134.7"/>
</a>
</g>
</g>
<!-- Node11 -->
<g id="Node000011" class="node">
<title>Node11</title>
<g id="a_Node000011"><a xlink:href="../../dc/d5c/classml_1_1maths_1_1common_1_1_c_orderings.html#a01bb26b2c071c6d75a4b7bede94c7136" target="_top" xlink:title="Overload for default operator&lt; comparison.">
<polygon fill="white" stroke="#666666" points="332.75,-72.06 185.5,-72.06 185.5,-41.56 332.75,-41.56 332.75,-72.06"/>
<text text-anchor="start" x="193.5" y="-58.56" font-family="Helvetica,sans-Serif" font-size="10.00">ml::maths::common::</text>
<text text-anchor="middle" x="259.12" y="-47.31" font-family="Helvetica,sans-Serif" font-size="10.00">COrderings::simultaneousSort</text>
</a>
</g>
</g>
<!-- Node1&#45;&gt;Node11 -->
<g id="edge11_Node000001_Node000011" class="edge">
<title>Node1&#45;&gt;Node11</title>
<g id="a_edge11_Node000001_Node000011"><a xlink:title=" ">
<path fill="none" stroke="#63b8ff" d="M71.45,-257.56C81.59,-216.84 109.44,-127.71 167.5,-80.81 169.91,-78.87 172.46,-77.08 175.12,-75.43"/>
<polygon fill="#63b8ff" stroke="#63b8ff" points="176.65,-78.59 183.83,-70.8 173.36,-72.41 176.65,-78.59"/>
</a>
</g>
</g>
<!-- Node12 -->
<g id="Node000012" class="node">
<title>Node12</title>
<g id="a_Node000012"><a xlink:href="../../dc/d5c/classml_1_1maths_1_1common_1_1_c_orderings.html#aaf1103e5c428d67f245c11be5ee75024" target="_top" xlink:title=" ">
<polygon fill="white" stroke="#666666" points="554.25,-50.06 386.75,-50.06 386.75,-19.56 554.25,-19.56 554.25,-50.06"/>
<text text-anchor="start" x="394.75" y="-36.56" font-family="Helvetica,sans-Serif" font-size="10.00">ml::maths::common::</text>
<text text-anchor="middle" x="470.5" y="-25.31" font-family="Helvetica,sans-Serif" font-size="10.00">COrderings::simultaneousSortWith</text>
</a>
</g>
</g>
<!-- Node1&#45;&gt;Node12 -->
<g id="edge18_Node000001_Node000012" class="edge">
<title>Node1&#45;&gt;Node12</title>
<g id="a_edge18_Node000001_Node000012"><a xlink:title=" ">
<path fill="none" stroke="#63b8ff" d="M67.97,-257.53C72.11,-207.89 90.09,-84.76 167.5,-32.81 239.73,15.66 345.17,0.46 410.45,-16.23"/>
<polygon fill="#63b8ff" stroke="#63b8ff" points="409.33,-19.56 419.9,-18.75 411.13,-12.79 409.33,-19.56"/>
</a>
</g>
</g>
<!-- Node5&#45;&gt;Node5 -->
<g id="edge5_Node000005_Node000005" class="edge">
<title>Node5&#45;&gt;Node5</title>
<g id="a_edge5_Node000005_Node000005"><a xlink:title=" ">
<path fill="none" stroke="#63b8ff" d="M223.43,-420.01C220.03,-429.49 231.93,-437.69 259.12,-437.69 274.85,-437.69 285.45,-434.95 290.95,-430.8"/>
<polygon fill="#63b8ff" stroke="#63b8ff" points="294.23,-432.03 294.31,-421.43 287.64,-429.67 294.23,-432.03"/>
</a>
</g>
</g>
<!-- Node11&#45;&gt;Node12 -->
<g id="edge12_Node000011_Node000012" class="edge">
<title>Node11&#45;&gt;Node12</title>
<g id="a_edge12_Node000011_Node000012"><a xlink:title=" ">
<path fill="none" stroke="#63b8ff" d="M333.06,-49.15C346.66,-47.72 361.04,-46.21 375.17,-44.73"/>
<polygon fill="#63b8ff" stroke="#63b8ff" points="375.35,-48.23 384.93,-43.7 374.61,-41.27 375.35,-48.23"/>
</a>
</g>
</g>
<!-- Node13 -->
<g id="Node000013" class="node">
<title>Node13</title>
<g id="a_Node000013"><a xlink:href="../../d6/dd5/namespaceml_1_1maths_1_1common.html#a89623dbfeec6e6b6599645ef8fd3f4d1" target="_top" xlink:title="Free swap picked up by std:: algorithms etc.">
<polygon fill="white" stroke="#666666" points="722.5,-65.44 590.25,-65.44 590.25,-46.19 722.5,-46.19 722.5,-65.44"/>
<text text-anchor="middle" x="656.38" y="-51.94" font-family="Helvetica,sans-Serif" font-size="10.00">ml::maths::common::swap</text>
</a>
</g>
</g>
<!-- Node12&#45;&gt;Node13 -->
<g id="edge13_Node000012_Node000013" class="edge">
<title>Node12&#45;&gt;Node13</title>
<g id="a_edge13_Node000012_Node000013"><a xlink:title=" ">
<path fill="none" stroke="#63b8ff" d="M554.56,-44.3C562.49,-45.21 570.51,-46.12 578.38,-47.02"/>
<polygon fill="#63b8ff" stroke="#63b8ff" points="577.93,-50.49 588.26,-48.15 578.73,-43.54 577.93,-50.49"/>
</a>
</g>
</g>
<!-- Node15 -->
<g id="Node000015" class="node">
<title>Node15</title>
<g id="a_Node000015"><a xlink:href="../../d8/dcc/namespacestd.html#a434882411757f6c0833c939d997bc4e3" target="_top" xlink:title=" ">
<polygon fill="white" stroke="#666666" points="980.25,-46.44 921.5,-46.44 921.5,-27.19 980.25,-27.19 980.25,-46.44"/>
<text text-anchor="middle" x="950.88" y="-32.94" font-family="Helvetica,sans-Serif" font-size="10.00">std::swap</text>
</a>
</g>
</g>
<!-- Node12&#45;&gt;Node15 -->
<g id="edge17_Node000012_Node000015" class="edge">
<title>Node12&#45;&gt;Node15</title>
<g id="a_edge17_Node000012_Node000015"><a xlink:title=" ">
<path fill="none" stroke="#63b8ff" d="M554.37,-34.06C637.96,-33.47 770.69,-33.03 885.5,-34.81 893.31,-34.94 901.66,-35.14 909.66,-35.37"/>
<polygon fill="#63b8ff" stroke="#63b8ff" points="909.42,-38.87 919.53,-35.68 909.64,-31.87 909.42,-38.87"/>
</a>
</g>
</g>
<!-- Node14 -->
<g id="Node000014" class="node">
<title>Node14</title>
<g id="a_Node000014"><a xlink:href="../../de/d86/classml_1_1maths_1_1common_1_1_c_symmetric_matrix.html#aa75a541cfcefc1486352316761c24ed0" target="_top" xlink:title="Efficiently swap the contents of two matrices.">
<polygon fill="white" stroke="#666666" points="885.5,-74.06 758.5,-74.06 758.5,-43.56 885.5,-43.56 885.5,-74.06"/>
<text text-anchor="start" x="766.5" y="-60.56" font-family="Helvetica,sans-Serif" font-size="10.00">ml::maths::common::</text>
<text text-anchor="middle" x="822" y="-49.31" font-family="Helvetica,sans-Serif" font-size="10.00">CSymmetricMatrix::swap</text>
</a>
</g>
</g>
<!-- Node13&#45;&gt;Node14 -->
<g id="edge14_Node000013_Node000014" class="edge">
<title>Node13&#45;&gt;Node14</title>
<g id="a_edge14_Node000013_Node000014"><a xlink:title=" ">
<path fill="none" stroke="#63b8ff" d="M722.98,-57.02C730.75,-57.16 738.72,-57.31 746.6,-57.45"/>
<polygon fill="#63b8ff" stroke="#63b8ff" points="746.46,-60.95 756.52,-57.63 746.59,-53.95 746.46,-60.95"/>
</a>
</g>
</g>
<!-- Node14&#45;&gt;Node15 -->
<g id="edge15_Node000014_Node000015" class="edge">
<title>Node14&#45;&gt;Node15</title>
<g id="a_edge15_Node000014_Node000015"><a xlink:title=" ">
<path fill="none" stroke="#63b8ff" d="M885.69,-47.94C893.9,-46.52 902.13,-45.09 909.82,-43.76"/>
<polygon fill="#63b8ff" stroke="#63b8ff" points="910.27,-47.24 919.52,-42.08 909.07,-40.34 910.27,-47.24"/>
</a>
</g>
</g>
<!-- Node15&#45;&gt;Node15 -->
<g id="edge16_Node000015_Node000015" class="edge">
<title>Node15&#45;&gt;Node15</title>
<g id="a_edge16_Node000015_Node000015"><a xlink:title=" ">
<path fill="none" stroke="#63b8ff" d="M930.7,-46.73C921.5,-55.33 928.22,-64.44 950.88,-64.44 963.26,-64.44 970.89,-61.72 973.75,-57.84"/>
<polygon fill="#63b8ff" stroke="#63b8ff" points="977.17,-57.09 971.41,-48.2 970.37,-58.74 977.17,-57.09"/>
</a>
</g>
</g>
</g>
</svg>
