<?xml version="1.0" encoding="UTF-8" standalone="no"?>
<!DOCTYPE svg PUBLIC "-//W3C//DTD SVG 1.1//EN"
 "http://www.w3.org/Graphics/SVG/1.1/DTD/svg11.dtd">
<!-- Generated by graphviz version 10.0.1 (20240210.2158)
 -->
<!-- Title: ml::maths::common::CGammaRateConjugate::propagateForwardsByTime Pages: 1 -->
<!--zoomable 293 -->

<svg id="main" version="1.1" xmlns="http://www.w3.org/2000/svg" xmlns:xlink="http://www.w3.org/1999/xlink" xml:space="preserve" onload="init(evt)">
<style type="text/css"><![CDATA[
.node, .edge {opacity: 0.7;}
.node.selected, .edge.selected {opacity: 1;}
.edge:hover path { stroke: red; }
.edge:hover polygon { stroke: red; fill: red; }
]]></style>

<defs>
  <circle id="rim" cx="0" cy="0" r="7"/>
  <circle id="rim2" cx="0" cy="0" r="3.5"/>
  <g id="zoomPlus">
    <use xlink:href="#rim" fill="#404040"><set attributeName="fill" to="#808080" begin="zoomplus.mouseover" end="zoomplus.mouseout"/></use>
    <path d="M-4,0h8M0,-4v8" fill="none" stroke="white" stroke-width="1.5" pointer-events="none"/>
  </g>
  <g id="zoomMin">
    <use xlink:href="#rim" fill="#404040"><set attributeName="fill" to="#808080" begin="zoomminus.mouseover" end="zoomminus.mouseout"/></use>
    <path d="M-4,0h8" fill="none" stroke="white" stroke-width="1.5" pointer-events="none"/>
  </g>
  <g id="arrowUp" transform="translate(30 24)">
    <use xlink:href="#rim"/>
    <path pointer-events="none" fill="none" stroke="white" stroke-width="1.5" d="M0,-3.0v7 M-2.5,-0.5L0,-3.0L2.5,-0.5"/>
  </g>
  <g id="arrowRight" transform="rotate(90) translate(36 -43)">
    <use xlink:href="#rim"/>
    <path pointer-events="none" fill="none" stroke="white" stroke-width="1.5" d="M0,-3.0v7 M-2.5,-0.5L0,-3.0L2.5,-0.5"/>
  </g>
  <g id="arrowDown" transform="rotate(180) translate(-30 -48)">
    <use xlink:href="#rim"/>
    <path pointer-events="none" fill="none" stroke="white" stroke-width="1.5" d="M0,-3.0v7 M-2.5,-0.5L0,-3.0L2.5,-0.5"/>
  </g>
  <g id="arrowLeft" transform="rotate(270) translate(-36 17)">
    <use xlink:href="#rim"/>
    <path pointer-events="none" fill="none" stroke="white" stroke-width="1.5" d="M0,-3.0v7 M-2.5,-0.5L0,-3.0L2.5,-0.5"/>
  </g>
  <g id="resetDef">
    <use xlink:href="#rim2" fill="#404040"><set attributeName="fill" to="#808080" begin="reset.mouseover" end="reset.mouseout"/></use>
  </g>
</defs>
<script type="application/ecmascript">
var viewWidth = 665;
var viewHeight = 293;
var sectionId = 'dynsection-58';
</script>
<script type="application/ecmascript" xlink:href="../../svg.min.js"/>
<svg id="graph" class="graph">
<g id="viewport">
<title>ml::maths::common::CGammaRateConjugate::propagateForwardsByTime</title>
<!-- Node1 -->
<g id="Node000001" class="node">
<title>Node1</title>
<g id="a_Node000001"><a xlink:title=" ">
<polygon fill="#999999" stroke="#666666" points="139,-168.12 0,-168.12 0,-126.38 139,-126.38 139,-168.12"/>
<text text-anchor="start" x="8" y="-154.62" font-family="Helvetica,sans-Serif" font-size="10.00">ml::maths::common::</text>
<text text-anchor="start" x="8" y="-143.38" font-family="Helvetica,sans-Serif" font-size="10.00">CGammaRateConjugate</text>
<text text-anchor="middle" x="69.5" y="-132.12" font-family="Helvetica,sans-Serif" font-size="10.00">::propagateForwardsByTime</text>
</a>
</g>
</g>
<!-- Node2 -->
<g id="Node000002" class="node">
<title>Node2</title>
<g id="a_Node000002"><a xlink:href="../../dc/dbb/structml_1_1maths_1_1common_1_1_c_basic_statistics_1_1_s_sample_central_moments.html#ac8ed3ffac05aa18c71f9f05d973506ec" target="_top" xlink:title=" ">
<polygon fill="white" stroke="#666666" points="341.75,-285.12 175,-285.12 175,-243.38 341.75,-243.38 341.75,-285.12"/>
<text text-anchor="start" x="183" y="-271.62" font-family="Helvetica,sans-Serif" font-size="10.00">ml::maths::common::</text>
<text text-anchor="start" x="183" y="-260.38" font-family="Helvetica,sans-Serif" font-size="10.00">CBasicStatistics::SSampleCentral</text>
<text text-anchor="middle" x="258.38" y="-249.12" font-family="Helvetica,sans-Serif" font-size="10.00">Moments::age</text>
</a>
</g>
</g>
<!-- Node1&#45;&gt;Node2 -->
<g id="edge1_Node000001_Node000002" class="edge">
<title>Node1&#45;&gt;Node2</title>
<g id="a_edge1_Node000001_Node000002"><a xlink:title=" ">
<path fill="none" stroke="#63b8ff" d="M93.69,-168.38C114.05,-186.19 145.02,-211.54 175,-229.25 180.27,-232.36 185.86,-235.34 191.56,-238.16"/>
<polygon fill="#63b8ff" stroke="#63b8ff" points="189.98,-241.29 200.52,-242.41 192.98,-234.96 189.98,-241.29"/>
</a>
</g>
</g>
<!-- Node3 -->
<g id="Node000003" class="node">
<title>Node3</title>
<g id="a_Node000003"><a xlink:href="../../d4/d55/classml_1_1maths_1_1common_1_1_c_basic_statistics.html#a6a8651e3b13d0aaa6577af10dfdd97f7" target="_top" xlink:title="Extract the count from an accumulator object.">
<polygon fill="white" stroke="#666666" points="656.5,-133.5 537,-133.5 537,-103 656.5,-103 656.5,-133.5"/>
<text text-anchor="start" x="545" y="-120" font-family="Helvetica,sans-Serif" font-size="10.00">ml::maths::common::</text>
<text text-anchor="middle" x="596.75" y="-108.75" font-family="Helvetica,sans-Serif" font-size="10.00">CBasicStatistics::count</text>
</a>
</g>
</g>
<!-- Node1&#45;&gt;Node3 -->
<g id="edge2_Node000001_Node000003" class="edge">
<title>Node1&#45;&gt;Node3</title>
<g id="a_edge2_Node000001_Node000003"><a xlink:title=" ">
<path fill="none" stroke="#63b8ff" d="M105.85,-168.59C125.47,-179.18 150.75,-190.85 175,-196.25 311.26,-226.61 474.18,-170.37 551.21,-138.31"/>
<polygon fill="#63b8ff" stroke="#63b8ff" points="552.26,-141.67 560.1,-134.55 549.53,-135.22 552.26,-141.67"/>
</a>
</g>
</g>
<!-- Node4 -->
<g id="Node000004" class="node">
<title>Node4</title>
<g id="a_Node000004"><a xlink:href="../../d6/d99/classml_1_1maths_1_1common_1_1_c_prior.html#a1ca970f775765a617f276528656c7351" target="_top" xlink:title="Get the rate at which the prior returns to non&#45;informative.">
<polygon fill="white" stroke="#666666" points="312.88,-187.5 203.88,-187.5 203.88,-157 312.88,-157 312.88,-187.5"/>
<text text-anchor="start" x="211.88" y="-174" font-family="Helvetica,sans-Serif" font-size="10.00">ml::maths::common::</text>
<text text-anchor="middle" x="258.38" y="-162.75" font-family="Helvetica,sans-Serif" font-size="10.00">CPrior::decayRate</text>
</a>
</g>
</g>
<!-- Node1&#45;&gt;Node4 -->
<g id="edge3_Node000001_Node000004" class="edge">
<title>Node1&#45;&gt;Node4</title>
<g id="a_edge3_Node000001_Node000004"><a xlink:title=" ">
<path fill="none" stroke="#63b8ff" d="M139.29,-156.45C156.7,-158.78 175.35,-161.28 192.56,-163.58"/>
<polygon fill="#63b8ff" stroke="#63b8ff" points="191.76,-167 202.14,-164.86 192.69,-160.07 191.76,-167"/>
</a>
</g>
</g>
<!-- Node5 -->
<g id="Node000005" class="node">
<title>Node5</title>
<g id="a_Node000005"><a xlink:href="../../dd/dc8/classml_1_1maths_1_1common_1_1_c_maths_funcs.html#ab52348364d83f5ba2b81c8caa25544c5" target="_top" xlink:title="Neither infinite nor NaN.">
<polygon fill="white" stroke="#666666" points="315.88,-138.5 200.88,-138.5 200.88,-108 315.88,-108 315.88,-138.5"/>
<text text-anchor="start" x="208.88" y="-125" font-family="Helvetica,sans-Serif" font-size="10.00">ml::maths::common::</text>
<text text-anchor="middle" x="258.38" y="-113.75" font-family="Helvetica,sans-Serif" font-size="10.00">CMathsFuncs::isFinite</text>
</a>
</g>
</g>
<!-- Node1&#45;&gt;Node5 -->
<g id="edge4_Node000001_Node000005" class="edge">
<title>Node1&#45;&gt;Node5</title>
<g id="a_edge4_Node000001_Node000005"><a xlink:title=" ">
<path fill="none" stroke="#63b8ff" d="M139.29,-138.42C155.69,-136.31 173.19,-134.06 189.55,-131.96"/>
<polygon fill="#63b8ff" stroke="#63b8ff" points="189.69,-135.47 199.17,-130.73 188.8,-128.53 189.69,-135.47"/>
</a>
</g>
</g>
<!-- Node6 -->
<g id="Node000006" class="node">
<title>Node6</title>
<g id="a_Node000006"><a xlink:href="../../d3/d20/classml_1_1maths_1_1common_1_1_c_gamma_rate_conjugate.html#a6f32d138689c010c6dc54ab247ef7d9a" target="_top" xlink:title="Check if this is a non&#45;informative prior.">
<polygon fill="white" stroke="#666666" points="320,-90.12 196.75,-90.12 196.75,-48.38 320,-48.38 320,-90.12"/>
<text text-anchor="start" x="204.75" y="-76.62" font-family="Helvetica,sans-Serif" font-size="10.00">ml::maths::common::</text>
<text text-anchor="start" x="204.75" y="-65.38" font-family="Helvetica,sans-Serif" font-size="10.00">CGammaRateConjugate</text>
<text text-anchor="middle" x="258.38" y="-54.12" font-family="Helvetica,sans-Serif" font-size="10.00">::isNonInformative</text>
</a>
</g>
</g>
<!-- Node1&#45;&gt;Node6 -->
<g id="edge5_Node000001_Node000006" class="edge">
<title>Node1&#45;&gt;Node6</title>
<g id="a_edge5_Node000001_Node000006"><a xlink:title=" ">
<path fill="none" stroke="#63b8ff" d="M114.9,-125.89C133.34,-117.27 155.06,-107.45 175,-99.25 178.81,-97.68 182.74,-96.11 186.72,-94.55"/>
<polygon fill="#63b8ff" stroke="#63b8ff" points="187.83,-97.88 195.9,-91.02 185.31,-91.34 187.83,-97.88"/>
</a>
</g>
</g>
<!-- Node9 -->
<g id="Node000009" class="node">
<title>Node9</title>
<g id="a_Node000009"><a xlink:href="../../d6/d99/classml_1_1maths_1_1common_1_1_c_prior.html#a0df265355cd8ccdeeea29ed14037d89d" target="_top" xlink:title="Get the number of samples received to date.">
<polygon fill="white" stroke="#666666" points="318.5,-30.5 198.25,-30.5 198.25,0 318.5,0 318.5,-30.5"/>
<text text-anchor="start" x="206.25" y="-17" font-family="Helvetica,sans-Serif" font-size="10.00">ml::maths::common::</text>
<text text-anchor="middle" x="258.38" y="-5.75" font-family="Helvetica,sans-Serif" font-size="10.00">CPrior::numberSamples</text>
</a>
</g>
</g>
<!-- Node1&#45;&gt;Node9 -->
<g id="edge10_Node000001_Node000009" class="edge">
<title>Node1&#45;&gt;Node9</title>
<g id="a_edge10_Node000001_Node000009"><a xlink:title=" ">
<path fill="none" stroke="#63b8ff" d="M85.42,-126.2C103.79,-101.79 137.24,-62.02 175,-39.25 179.02,-36.83 183.29,-34.64 187.7,-32.66"/>
<polygon fill="#63b8ff" stroke="#63b8ff" points="188.82,-35.98 196.78,-28.99 186.19,-29.49 188.82,-35.98"/>
</a>
</g>
</g>
<!-- Node6&#45;&gt;Node3 -->
<g id="edge6_Node000006_Node000003" class="edge">
<title>Node6&#45;&gt;Node3</title>
<g id="a_edge6_Node000006_Node000003"><a xlink:title=" ">
<path fill="none" stroke="#63b8ff" d="M320.41,-86.72C338.72,-91.41 358.94,-96.07 377.75,-99.25 426.65,-107.52 482.36,-112.3 525.22,-114.99"/>
<polygon fill="#63b8ff" stroke="#63b8ff" points="524.97,-118.48 535.16,-115.59 525.39,-111.5 524.97,-118.48"/>
</a>
</g>
</g>
<!-- Node7 -->
<g id="Node000007" class="node">
<title>Node7</title>
<g id="a_Node000007"><a xlink:href="../../d3/d20/classml_1_1maths_1_1common_1_1_c_gamma_rate_conjugate.html#a04fe7c04ef3a6bdcd7c2d666cbac3ed5" target="_top" xlink:title=" ">
<polygon fill="white" stroke="#666666" points="501,-90.12 377.75,-90.12 377.75,-48.38 501,-48.38 501,-90.12"/>
<text text-anchor="start" x="385.75" y="-76.62" font-family="Helvetica,sans-Serif" font-size="10.00">ml::maths::common::</text>
<text text-anchor="start" x="385.75" y="-65.38" font-family="Helvetica,sans-Serif" font-size="10.00">CGammaRateConjugate</text>
<text text-anchor="middle" x="439.38" y="-54.12" font-family="Helvetica,sans-Serif" font-size="10.00">::priorRate</text>
</a>
</g>
</g>
<!-- Node6&#45;&gt;Node7 -->
<g id="edge7_Node000006_Node000007" class="edge">
<title>Node6&#45;&gt;Node7</title>
<g id="a_edge7_Node000006_Node000007"><a xlink:title=" ">
<path fill="none" stroke="#63b8ff" d="M320.48,-69.25C335.16,-69.25 350.99,-69.25 366.13,-69.25"/>
<polygon fill="#63b8ff" stroke="#63b8ff" points="366.04,-72.75 376.04,-69.25 366.04,-65.75 366.04,-72.75"/>
</a>
</g>
</g>
<!-- Node7&#45;&gt;Node3 -->
<g id="edge8_Node000007_Node000003" class="edge">
<title>Node7&#45;&gt;Node3</title>
<g id="a_edge8_Node000007_Node000003"><a xlink:title=" ">
<path fill="none" stroke="#63b8ff" d="M501.34,-88.48C512.43,-91.97 524,-95.62 535.09,-99.12"/>
<polygon fill="#63b8ff" stroke="#63b8ff" points="533.95,-102.43 544.54,-102.1 536.05,-95.75 533.95,-102.43"/>
</a>
</g>
</g>
<!-- Node8 -->
<g id="Node000008" class="node">
<title>Node8</title>
<g id="a_Node000008"><a xlink:href="../../d4/d55/classml_1_1maths_1_1common_1_1_c_basic_statistics.html#a9a136b1823e9938247cd29bb0ffea440" target="_top" xlink:title="Compute the mean of a pair.">
<polygon fill="white" stroke="#666666" points="656.5,-84.5 537,-84.5 537,-54 656.5,-54 656.5,-84.5"/>
<text text-anchor="start" x="545" y="-71" font-family="Helvetica,sans-Serif" font-size="10.00">ml::maths::common::</text>
<text text-anchor="middle" x="596.75" y="-59.75" font-family="Helvetica,sans-Serif" font-size="10.00">CBasicStatistics::mean</text>
</a>
</g>
</g>
<!-- Node7&#45;&gt;Node8 -->
<g id="edge9_Node000007_Node000008" class="edge">
<title>Node7&#45;&gt;Node8</title>
<g id="a_edge9_Node000007_Node000008"><a xlink:title=" ">
<path fill="none" stroke="#63b8ff" d="M501.34,-69.25C509.25,-69.25 517.41,-69.25 525.47,-69.25"/>
<polygon fill="#63b8ff" stroke="#63b8ff" points="525.23,-72.75 535.23,-69.25 525.23,-65.75 525.23,-72.75"/>
</a>
</g>
</g>
</g>
</svg>

<g id="navigator" transform="translate(0 0)" fill="#404254">
  <rect fill="#f2f5e9" fill-opacity="0.5" stroke="#606060" stroke-width=".5" x="0" y="0" width="60" height="60"/>
  <use id="zoomplus" xlink:href="#zoomPlus" x="17" y="9" onmousedown="handleZoom(evt,'in')"/>
  <use id="zoomminus" xlink:href="#zoomMin" x="42" y="9" onmousedown="handleZoom(evt,'out')"/>
  <use id="reset" xlink:href="#resetDef" x="30" y="36" onmousedown="handleReset()"/>
   <use id="arrowup" xlink:href="#arrowUp" x="0" y="0" onmousedown="handlePan(0,-1)"/>
  <use id="arrowright" xlink:href="#arrowRight" x="0" y="0" onmousedown="handlePan(1,0)"/>
  <use id="arrowdown" xlink:href="#arrowDown" x="0" y="0" onmousedown="handlePan(0,1)"/>
  <use id="arrowleft" xlink:href="#arrowLeft" x="0" y="0" onmousedown="handlePan(-1,0)"/>
</g>
<svg viewBox="0 0 15 15" width="100%" height="30px" preserveAspectRatio="xMaxYMin meet">
 <g id="arrow_out" transform="scale(0.3 0.3)">
  <a xlink:href="classml_1_1maths_1_1common_1_1_c_gamma_rate_conjugate_a7c44260a641896d2c2ecb19615bb944a_cgraph_org.svg" target="_base">
   <rect id="button" ry="5" rx="5" y="6" x="6" height="38" width="38"
        fill="#f2f5e9" fill-opacity="0.5" stroke="#606060" stroke-width="1.0"/>
   <path id="arrow"
     d="M 11.500037,31.436501 C 11.940474,20.09759 22.043105,11.32322 32.158766,21.979434 L 37.068811,17.246167 C 37.068811,17.246167 37.088388,32 37.088388,32 L 22.160133,31.978069 C 22.160133,31.978069 26.997745,27.140456 26.997745,27.140456 C 18.528582,18.264221 13.291696,25.230495 11.500037,31.436501 z"
     style="fill:#404040;"/>
  </a>
 </g>
</svg>

<style type='text/css'>
<![CDATA[
[data-mouse-over-selected='false'] { opacity: 0.7; }
[data-mouse-over-selected='true']  { opacity: 1.0; }
]]>
</style>
<script type="application/ecmascript"><![CDATA[
document.addEventListener('DOMContentLoaded', (event) => {
  highlightEdges();
  highlightAdjacentNodes();
});
]]></script>
</svg>
