<?xml version="1.0" encoding="UTF-8" standalone="no"?>
<!DOCTYPE svg PUBLIC "-//W3C//DTD SVG 1.1//EN"
 "http://www.w3.org/Graphics/SVG/1.1/DTD/svg11.dtd">
<!-- Generated by graphviz version 10.0.1 (20240210.2158)
 -->
<!-- Title: ml::maths::common::CKMeansOnline1d::memoryUsage Pages: 1 -->
<svg width="706pt" height="126pt"
 viewBox="0.00 0.00 705.75 125.75" xmlns="http://www.w3.org/2000/svg" xmlns:xlink="http://www.w3.org/1999/xlink">
<g id="graph0" class="graph" transform="scale(1 1) rotate(0) translate(4 121.75)">
<title>ml::maths::common::CKMeansOnline1d::memoryUsage</title>
<!-- Node1 -->
<g id="Node000001" class="node">
<title>Node1</title>
<g id="a_Node000001"><a xlink:title="Get the memory used by this component.">
<polygon fill="#999999" stroke="#666666" points="167.5,-58.12 0,-58.12 0,-27.62 167.5,-27.62 167.5,-58.12"/>
<text text-anchor="start" x="8" y="-44.62" font-family="Helvetica,sans-Serif" font-size="10.00">ml::maths::common::</text>
<text text-anchor="middle" x="83.75" y="-33.38" font-family="Helvetica,sans-Serif" font-size="10.00">CKMeansOnline1d::memoryUsage</text>
</a>
</g>
</g>
<!-- Node2 -->
<g id="Node000002" class="node">
<title>Node2</title>
<g id="a_Node000002"><a xlink:href="../../d0/d74/namespaceml_1_1core_1_1memory.html#a50fe883268170c17625e18a0c5fea04b" target="_top" xlink:title="Default implementation for non&#45;pointer types.">
<polygon fill="white" stroke="#666666" points="358.25,-52.5 203.5,-52.5 203.5,-33.25 358.25,-33.25 358.25,-52.5"/>
<text text-anchor="middle" x="280.88" y="-39" font-family="Helvetica,sans-Serif" font-size="10.00">ml::core::memory::dynamicSize</text>
</a>
</g>
</g>
<!-- Node1&#45;&gt;Node2 -->
<g id="edge1_Node000001_Node000002" class="edge">
<title>Node1&#45;&gt;Node2</title>
<g id="a_edge1_Node000001_Node000002"><a xlink:title=" ">
<path fill="none" stroke="#63b8ff" d="M167.78,-42.88C175.75,-42.88 183.85,-42.88 191.86,-42.88"/>
<polygon fill="#63b8ff" stroke="#63b8ff" points="191.59,-46.38 201.59,-42.88 191.59,-39.38 191.59,-46.38"/>
</a>
</g>
</g>
<!-- Node3 -->
<g id="Node000003" class="node">
<title>Node3</title>
<g id="a_Node000003"><a xlink:href="../../d9/d0b/structml_1_1core_1_1memory__detail_1_1_s_memory_dynamic_size.html#a49a680749a1d1861b69990d788154833" target="_top" xlink:title=" ">
<polygon fill="white" stroke="#666666" points="522.75,-117.75 394.25,-117.75 394.25,-76 522.75,-76 522.75,-117.75"/>
<text text-anchor="start" x="402.25" y="-104.25" font-family="Helvetica,sans-Serif" font-size="10.00">ml::core::memory_detail</text>
<text text-anchor="start" x="402.25" y="-93" font-family="Helvetica,sans-Serif" font-size="10.00">::SMemoryDynamicSize::</text>
<text text-anchor="middle" x="458.5" y="-81.75" font-family="Helvetica,sans-Serif" font-size="10.00">dispatch</text>
</a>
</g>
</g>
<!-- Node2&#45;&gt;Node3 -->
<g id="edge2_Node000002_Node000003" class="edge">
<title>Node2&#45;&gt;Node3</title>
<g id="a_edge2_Node000002_Node000003"><a xlink:title=" ">
<path fill="none" stroke="#63b8ff" d="M314.5,-52.91C333.77,-58.83 359,-66.59 382.89,-73.94"/>
<polygon fill="#63b8ff" stroke="#63b8ff" points="381.72,-77.24 392.31,-76.83 383.78,-70.55 381.72,-77.24"/>
</a>
</g>
</g>
<!-- Node4 -->
<g id="Node000004" class="node">
<title>Node4</title>
<g id="a_Node000004"><a xlink:href="../../db/df7/namespaceml_1_1core_1_1memory__detail.html#ac2d4d02cd0f6d8d7d1355958a49fce43" target="_top" xlink:title="Check if we expect an overloaded dynamicSize function.">
<polygon fill="white" stroke="#666666" points="521.25,-58.12 395.75,-58.12 395.75,-27.62 521.25,-27.62 521.25,-58.12"/>
<text text-anchor="start" x="403.75" y="-44.62" font-family="Helvetica,sans-Serif" font-size="10.00">ml::core::memory_detail</text>
<text text-anchor="middle" x="458.5" y="-33.38" font-family="Helvetica,sans-Serif" font-size="10.00">::expectMemoryOverload</text>
</a>
</g>
</g>
<!-- Node2&#45;&gt;Node4 -->
<g id="edge3_Node000002_Node000004" class="edge">
<title>Node2&#45;&gt;Node4</title>
<g id="a_edge3_Node000002_Node000004"><a xlink:title=" ">
<path fill="none" stroke="#63b8ff" d="M358.65,-42.88C367.09,-42.88 375.67,-42.88 384.07,-42.88"/>
<polygon fill="#63b8ff" stroke="#63b8ff" points="383.86,-46.38 393.86,-42.88 383.86,-39.38 383.86,-46.38"/>
</a>
</g>
</g>
<!-- Node5 -->
<g id="Node000005" class="node">
<title>Node5</title>
<g id="a_Node000005"><a xlink:href="../../d2/d21/structml_1_1core_1_1memory__detail_1_1_s_dynamic_size_always_zero.html#a710ac6fc2d5760a396bb2d46a66a73b2" target="_top" xlink:title=" ">
<polygon fill="white" stroke="#666666" points="697.75,-41.75 558.75,-41.75 558.75,0 697.75,0 697.75,-41.75"/>
<text text-anchor="start" x="566.75" y="-28.25" font-family="Helvetica,sans-Serif" font-size="10.00">ml::core::memory_detail</text>
<text text-anchor="start" x="566.75" y="-17" font-family="Helvetica,sans-Serif" font-size="10.00">::SDynamicSizeAlwaysZero</text>
<text text-anchor="middle" x="628.25" y="-5.75" font-family="Helvetica,sans-Serif" font-size="10.00">::value</text>
</a>
</g>
</g>
<!-- Node2&#45;&gt;Node5 -->
<g id="edge5_Node000002_Node000005" class="edge">
<title>Node2&#45;&gt;Node5</title>
<g id="a_edge5_Node000002_Node000005"><a xlink:title=" ">
<path fill="none" stroke="#63b8ff" d="M319.53,-32.76C341.2,-27.46 369.05,-21.54 394.25,-18.88 451.05,-12.88 465.64,-18.33 522.75,-18.88 530.58,-18.95 538.74,-19.06 546.9,-19.18"/>
<polygon fill="#63b8ff" stroke="#63b8ff" points="546.82,-22.68 556.88,-19.35 546.94,-15.68 546.82,-22.68"/>
</a>
</g>
</g>
<!-- Node4&#45;&gt;Node5 -->
<g id="edge4_Node000004_Node000005" class="edge">
<title>Node4&#45;&gt;Node5</title>
<g id="a_edge4_Node000004_Node000005"><a xlink:title=" ">
<path fill="none" stroke="#63b8ff" d="M521.49,-34.75C529.86,-33.65 538.54,-32.51 547.17,-31.38"/>
<polygon fill="#63b8ff" stroke="#63b8ff" points="547.5,-34.86 556.96,-30.09 546.59,-27.92 547.5,-34.86"/>
</a>
</g>
</g>
</g>
</svg>
