<?xml version="1.0" encoding="UTF-8" standalone="no"?>
<!DOCTYPE svg PUBLIC "-//W3C//DTD SVG 1.1//EN"
 "http://www.w3.org/Graphics/SVG/1.1/DTD/svg11.dtd">
<!-- Generated by graphviz version 10.0.1 (20240210.2158)
 -->
<!-- Title: ml::maths::common::CKMeansOnline1d::sample Pages: 1 -->
<svg width="671pt" height="158pt"
 viewBox="0.00 0.00 671.25 158.12" xmlns="http://www.w3.org/2000/svg" xmlns:xlink="http://www.w3.org/1999/xlink">
<g id="graph0" class="graph" transform="scale(1 1) rotate(0) translate(4 154.12)">
<title>ml::maths::common::CKMeansOnline1d::sample</title>
<!-- Node1 -->
<g id="Node000001" class="node">
<title>Node1</title>
<g id="a_Node000001"><a xlink:title=" ">
<polygon fill="#999999" stroke="#666666" points="663.25,-122.12 528,-122.12 528,-91.62 663.25,-91.62 663.25,-122.12"/>
<text text-anchor="start" x="536" y="-108.62" font-family="Helvetica,sans-Serif" font-size="10.00">ml::maths::common::</text>
<text text-anchor="middle" x="595.62" y="-97.38" font-family="Helvetica,sans-Serif" font-size="10.00">CKMeansOnline1d::sample</text>
</a>
</g>
</g>
<!-- Node2 -->
<g id="Node000002" class="node">
<title>Node2</title>
<g id="a_Node000002"><a xlink:href="../../dc/ddd/classml_1_1maths_1_1common_1_1_c_k_means_online1d.html#acd4160fd795d81a2f9f64c1c233fa094" target="_top" xlink:title=" ">
<polygon fill="white" stroke="#666666" points="299,-150.12 179.5,-150.12 179.5,-119.62 299,-119.62 299,-150.12"/>
<text text-anchor="start" x="187.5" y="-136.62" font-family="Helvetica,sans-Serif" font-size="10.00">ml::maths::common::</text>
<text text-anchor="middle" x="239.25" y="-125.38" font-family="Helvetica,sans-Serif" font-size="10.00">CKMeansOnline1d::add</text>
</a>
</g>
</g>
<!-- Node1&#45;&gt;Node2 -->
<g id="edge1_Node000001_Node000002" class="edge">
<title>Node1&#45;&gt;Node2</title>
<g id="a_edge1_Node000001_Node000002"><a xlink:title=" ">
<path fill="none" stroke="#63b8ff" d="M516.47,-113.05C450.97,-118.23 358.9,-125.5 299.4,-130.2"/>
<polygon fill="#63b8ff" stroke="#63b8ff" points="516.35,-116.57 526.04,-112.29 515.8,-109.59 516.35,-116.57"/>
</a>
</g>
</g>
<!-- Node4 -->
<g id="Node000004" class="node">
<title>Node4</title>
<g id="a_Node000004"><a xlink:href="../../dc/ddd/classml_1_1maths_1_1common_1_1_c_k_means_online1d.html#a50506d8b4237c138dcb37d41d2ec71b4" target="_top" xlink:title=" ">
<polygon fill="white" stroke="#666666" points="492,-101.12 359,-101.12 359,-70.62 492,-70.62 492,-101.12"/>
<text text-anchor="start" x="367" y="-87.62" font-family="Helvetica,sans-Serif" font-size="10.00">ml::maths::common::</text>
<text text-anchor="middle" x="425.5" y="-76.38" font-family="Helvetica,sans-Serif" font-size="10.00">CKMeansOnline1d::cluster</text>
</a>
</g>
</g>
<!-- Node1&#45;&gt;Node4 -->
<g id="edge3_Node000001_Node000004" class="edge">
<title>Node1&#45;&gt;Node4</title>
<g id="a_edge3_Node000001_Node000004"><a xlink:title=" ">
<path fill="none" stroke="#63b8ff" d="M516.41,-97.11C508.37,-96.1 500.26,-95.09 492.38,-94.1"/>
<polygon fill="#63b8ff" stroke="#63b8ff" points="515.84,-100.56 526.19,-98.33 516.7,-93.61 515.84,-100.56"/>
</a>
</g>
</g>
<!-- Node3 -->
<g id="Node000003" class="node">
<title>Node3</title>
<g id="a_Node000003"><a xlink:href="../../dc/ddd/classml_1_1maths_1_1common_1_1_c_k_means_online1d.html#ad83de322d780db3b7107206f8122aec3" target="_top" xlink:title="Update the clustering with points.">
<polygon fill="white" stroke="#666666" points="119.5,-150.12 0,-150.12 0,-119.62 119.5,-119.62 119.5,-150.12"/>
<text text-anchor="start" x="8" y="-136.62" font-family="Helvetica,sans-Serif" font-size="10.00">ml::maths::common::</text>
<text text-anchor="middle" x="59.75" y="-125.38" font-family="Helvetica,sans-Serif" font-size="10.00">CKMeansOnline1d::add</text>
</a>
</g>
</g>
<!-- Node2&#45;&gt;Node3 -->
<g id="edge2_Node000002_Node000003" class="edge">
<title>Node2&#45;&gt;Node3</title>
<g id="a_edge2_Node000002_Node000003"><a xlink:title=" ">
<path fill="none" stroke="#63b8ff" d="M167.77,-134.88C151.91,-134.88 135.24,-134.88 119.9,-134.88"/>
<polygon fill="#63b8ff" stroke="#63b8ff" points="167.63,-138.38 177.63,-134.88 167.63,-131.38 167.63,-138.38"/>
</a>
</g>
</g>
<!-- Node4&#45;&gt;Node2 -->
<g id="edge6_Node000004_Node000002" class="edge">
<title>Node4&#45;&gt;Node2</title>
<g id="a_edge6_Node000004_Node000002"><a xlink:title=" ">
<path fill="none" stroke="#63b8ff" d="M354.32,-104.54C336.17,-109.37 316.81,-114.51 299.29,-119.17"/>
<polygon fill="#63b8ff" stroke="#63b8ff" points="355.21,-107.92 363.98,-101.97 353.42,-101.16 355.21,-107.92"/>
</a>
</g>
</g>
<!-- Node5 -->
<g id="Node000005" class="node">
<title>Node5</title>
<g id="a_Node000005"><a xlink:href="../../dc/ddd/classml_1_1maths_1_1common_1_1_c_k_means_online1d.html#ac51ddb1b133c35d446fa00f0b62c9edd" target="_top" xlink:title="Persist state by passing information to the supplied inserter.">
<polygon fill="white" stroke="#666666" points="321.12,-101.75 157.38,-101.75 157.38,-60 321.12,-60 321.12,-101.75"/>
<text text-anchor="start" x="165.38" y="-88.25" font-family="Helvetica,sans-Serif" font-size="10.00">ml::maths::common::</text>
<text text-anchor="start" x="165.38" y="-77" font-family="Helvetica,sans-Serif" font-size="10.00">CKMeansOnline1d::acceptPersist</text>
<text text-anchor="middle" x="239.25" y="-65.75" font-family="Helvetica,sans-Serif" font-size="10.00">Inserter</text>
</a>
</g>
</g>
<!-- Node4&#45;&gt;Node5 -->
<g id="edge4_Node000004_Node000005" class="edge">
<title>Node4&#45;&gt;Node5</title>
<g id="a_edge4_Node000004_Node000005"><a xlink:title=" ">
<path fill="none" stroke="#63b8ff" d="M347.11,-83.77C338.66,-83.55 330.04,-83.31 321.55,-83.08"/>
<polygon fill="#63b8ff" stroke="#63b8ff" points="346.9,-87.27 356.99,-84.04 347.09,-80.27 346.9,-87.27"/>
</a>
</g>
</g>
<!-- Node6 -->
<g id="Node000006" class="node">
<title>Node6</title>
<g id="a_Node000006"><a xlink:href="../../dc/ddd/classml_1_1maths_1_1common_1_1_c_k_means_online1d.html#a00764f896ab03897b785484cd5658bc9" target="_top" xlink:title="Restore by traversing a state document.">
<polygon fill="white" stroke="#666666" points="323,-41.75 155.5,-41.75 155.5,0 323,0 323,-41.75"/>
<text text-anchor="start" x="163.5" y="-28.25" font-family="Helvetica,sans-Serif" font-size="10.00">ml::maths::common::</text>
<text text-anchor="start" x="163.5" y="-17" font-family="Helvetica,sans-Serif" font-size="10.00">CKMeansOnline1d::acceptRestore</text>
<text text-anchor="middle" x="239.25" y="-5.75" font-family="Helvetica,sans-Serif" font-size="10.00">Traverser</text>
</a>
</g>
</g>
<!-- Node4&#45;&gt;Node6 -->
<g id="edge5_Node000004_Node000006" class="edge">
<title>Node4&#45;&gt;Node6</title>
<g id="a_edge5_Node000004_Node000006"><a xlink:title=" ">
<path fill="none" stroke="#63b8ff" d="M369.27,-66.39C347.68,-58.78 322.87,-50.02 300.8,-42.24"/>
<polygon fill="#63b8ff" stroke="#63b8ff" points="367.88,-69.61 378.47,-69.64 370.2,-63.01 367.88,-69.61"/>
</a>
</g>
</g>
</g>
</svg>
