<?xml version="1.0" encoding="UTF-8" standalone="no"?>
<!DOCTYPE svg PUBLIC "-//W3C//DTD SVG 1.1//EN"
 "http://www.w3.org/Graphics/SVG/1.1/DTD/svg11.dtd">
<!-- Generated by graphviz version 10.0.1 (20240210.2158)
 -->
<!-- Title: ml::maths::time_series::CDecompositionComponent Pages: 1 -->
<svg width="498pt" height="110pt"
 viewBox="0.00 0.00 497.75 109.75" xmlns="http://www.w3.org/2000/svg" xmlns:xlink="http://www.w3.org/1999/xlink">
<g id="graph0" class="graph" transform="scale(1 1) rotate(0) translate(4 105.75)">
<title>ml::maths::time_series::CDecompositionComponent</title>
<!-- Node1 -->
<g id="Node000001" class="node">
<title>Node1</title>
<g id="a_Node000001"><a xlink:title="Common functionality used by our decomposition component classes.">
<polygon fill="#999999" stroke="#666666" points="145,-65.12 0,-65.12 0,-34.62 145,-34.62 145,-65.12"/>
<text text-anchor="start" x="8" y="-51.62" font-family="Helvetica,sans-Serif" font-size="10.00">ml::maths::time_series</text>
<text text-anchor="middle" x="72.5" y="-40.38" font-family="Helvetica,sans-Serif" font-size="10.00">::CDecompositionComponent</text>
</a>
</g>
</g>
<!-- Node2 -->
<g id="Node000002" class="node">
<title>Node2</title>
<g id="a_Node000002"><a xlink:href="../../d2/da4/classml_1_1maths_1_1time__series_1_1_c_calendar_component.html" target="_top" xlink:title="Estimates a calendar component of a time series.">
<polygon fill="white" stroke="#666666" points="300.5,-93.12 181.75,-93.12 181.75,-62.62 300.5,-62.62 300.5,-93.12"/>
<text text-anchor="start" x="189.75" y="-79.62" font-family="Helvetica,sans-Serif" font-size="10.00">ml::maths::time_series</text>
<text text-anchor="middle" x="241.12" y="-68.38" font-family="Helvetica,sans-Serif" font-size="10.00">::CCalendarComponent</text>
</a>
</g>
</g>
<!-- Node1&#45;&gt;Node2 -->
<g id="edge1_Node000001_Node000002" class="edge">
<title>Node1&#45;&gt;Node2</title>
<g id="a_edge1_Node000001_Node000002"><a xlink:title=" ">
<path fill="none" stroke="#8b1a1a" d="M156.24,-63.78C164.72,-65.2 173.2,-66.63 181.34,-68"/>
<polygon fill="#8b1a1a" stroke="#8b1a1a" points="157.07,-60.37 146.62,-62.16 155.91,-67.27 157.07,-60.37"/>
</a>
</g>
</g>
<!-- Node4 -->
<g id="Node000004" class="node">
<title>Node4</title>
<g id="a_Node000004"><a xlink:href="../../d1/d1d/classml_1_1maths_1_1time__series_1_1_c_seasonal_component.html" target="_top" xlink:title="Estimates a seasonal component of a time series.">
<polygon fill="white" stroke="#666666" points="301.25,-41.12 181,-41.12 181,-10.62 301.25,-10.62 301.25,-41.12"/>
<text text-anchor="start" x="189" y="-27.62" font-family="Helvetica,sans-Serif" font-size="10.00">ml::maths::time_series</text>
<text text-anchor="middle" x="241.12" y="-16.38" font-family="Helvetica,sans-Serif" font-size="10.00">::CSeasonalComponent</text>
</a>
</g>
</g>
<!-- Node1&#45;&gt;Node4 -->
<g id="edge3_Node000001_Node000004" class="edge">
<title>Node1&#45;&gt;Node4</title>
<g id="a_edge3_Node000001_Node000004"><a xlink:title=" ">
<path fill="none" stroke="#8b1a1a" d="M156.28,-37.95C164.47,-36.77 172.68,-35.59 180.57,-34.45"/>
<polygon fill="#8b1a1a" stroke="#8b1a1a" points="156.03,-34.45 146.63,-39.34 157.03,-41.38 156.03,-34.45"/>
</a>
</g>
</g>
<!-- Node3 -->
<g id="Node000003" class="node">
<title>Node3</title>
<g id="a_Node000003"><a xlink:href="../../d8/dca/classanonymous__namespace_02_c_calendar_component_test_8cc_03_1_1_c_test_calendar_component.html" target="_top" xlink:title=" ">
<polygon fill="white" stroke="#666666" points="489,-101.75 338,-101.75 338,-60 489,-60 489,-101.75"/>
<text text-anchor="start" x="346" y="-88.25" font-family="Helvetica,sans-Serif" font-size="10.00">anonymous_namespace</text>
<text text-anchor="start" x="346" y="-77" font-family="Helvetica,sans-Serif" font-size="10.00">{CCalendarComponentTest.cc}</text>
<text text-anchor="middle" x="413.5" y="-65.75" font-family="Helvetica,sans-Serif" font-size="10.00">::CTestCalendarComponent</text>
</a>
</g>
</g>
<!-- Node2&#45;&gt;Node3 -->
<g id="edge2_Node000002_Node000003" class="edge">
<title>Node2&#45;&gt;Node3</title>
<g id="a_edge2_Node000002_Node000003"><a xlink:title=" ">
<path fill="none" stroke="#63b8ff" d="M312.05,-79.11C320.44,-79.25 329.05,-79.41 337.51,-79.55"/>
<polygon fill="#63b8ff" stroke="#63b8ff" points="312.33,-75.61 302.27,-78.93 312.21,-82.61 312.33,-75.61"/>
</a>
</g>
</g>
<!-- Node5 -->
<g id="Node000005" class="node">
<title>Node5</title>
<g id="a_Node000005"><a xlink:href="../../d2/dbc/classanonymous__namespace_02_c_seasonal_component_test_8cc_03_1_1_c_test_seasonal_component.html" target="_top" xlink:title=" ">
<polygon fill="white" stroke="#666666" points="489.75,-41.75 337.25,-41.75 337.25,0 489.75,0 489.75,-41.75"/>
<text text-anchor="start" x="345.25" y="-28.25" font-family="Helvetica,sans-Serif" font-size="10.00">anonymous_namespace</text>
<text text-anchor="start" x="345.25" y="-17" font-family="Helvetica,sans-Serif" font-size="10.00">{CSeasonalComponentTest.cc}</text>
<text text-anchor="middle" x="413.5" y="-5.75" font-family="Helvetica,sans-Serif" font-size="10.00">::CTestSeasonalComponent</text>
</a>
</g>
</g>
<!-- Node4&#45;&gt;Node5 -->
<g id="edge4_Node000004_Node000005" class="edge">
<title>Node4&#45;&gt;Node5</title>
<g id="a_edge4_Node000004_Node000005"><a xlink:title=" ">
<path fill="none" stroke="#63b8ff" d="M313.04,-23.79C320.88,-23.56 328.88,-23.33 336.77,-23.1"/>
<polygon fill="#63b8ff" stroke="#63b8ff" points="313.12,-20.29 303.23,-24.08 313.33,-27.29 313.12,-20.29"/>
</a>
</g>
</g>
</g>
</svg>
