<?xml version="1.0" encoding="UTF-8" standalone="no"?>
<!DOCTYPE svg PUBLIC "-//W3C//DTD SVG 1.1//EN"
 "http://www.w3.org/Graphics/SVG/1.1/DTD/svg11.dtd">
<!-- Generated by graphviz version 10.0.1 (20240210.2158)
 -->
<!-- Title: ml::model::CBucketQueue::begin Pages: 1 -->
<svg width="685pt" height="491pt"
 viewBox="0.00 0.00 684.75 490.80" xmlns="http://www.w3.org/2000/svg" xmlns:xlink="http://www.w3.org/1999/xlink">
<g id="graph0" class="graph" transform="scale(1 1) rotate(0) translate(4 486.8)">
<title>ml::model::CBucketQueue::begin</title>
<!-- Node1 -->
<g id="Node000001" class="node">
<title>Node1</title>
<g id="a_Node000001"><a xlink:title=" ">
<polygon fill="#999999" stroke="#666666" points="676.75,-273.81 545.25,-273.81 545.25,-243.31 676.75,-243.31 676.75,-273.81"/>
<text text-anchor="start" x="553.25" y="-260.31" font-family="Helvetica,sans-Serif" font-size="10.00">ml::model::CBucketQueue</text>
<text text-anchor="middle" x="611" y="-249.06" font-family="Helvetica,sans-Serif" font-size="10.00">::begin</text>
</a>
</g>
</g>
<!-- Node2 -->
<g id="Node000002" class="node">
<title>Node2</title>
<g id="a_Node000002"><a xlink:href="../../de/d3c/_c_bucket_queue_test_8cc.html#a6eb2ab9edcab78fe594e208575832aed" target="_top" xlink:title=" ">
<polygon fill="white" stroke="#666666" points="509.25,-290.19 362,-290.19 362,-270.94 509.25,-270.94 509.25,-290.19"/>
<text text-anchor="middle" x="435.62" y="-276.69" font-family="Helvetica,sans-Serif" font-size="10.00">BOOST_AUTO_TEST_CASE</text>
</a>
</g>
</g>
<!-- Node1&#45;&gt;Node2 -->
<g id="edge1_Node000001_Node000002" class="edge">
<title>Node1&#45;&gt;Node2</title>
<g id="a_edge1_Node000001_Node000002"><a xlink:title=" ">
<path fill="none" stroke="#63b8ff" d="M533.73,-268.24C525.72,-269.26 517.58,-270.29 509.61,-271.3"/>
<polygon fill="#63b8ff" stroke="#63b8ff" points="533.97,-271.74 543.45,-267.01 533.09,-264.8 533.97,-271.74"/>
</a>
</g>
</g>
<!-- Node3 -->
<g id="Node000003" class="node">
<title>Node3</title>
<g id="a_Node000003"><a xlink:href="../../d4/d01/classml_1_1model_1_1_c_bucket_gatherer.html#ab27631f14f5ae505aeb401f3d56f57a9" target="_top" xlink:title=" ">
<polygon fill="white" stroke="#666666" points="505.88,-252.81 365.38,-252.81 365.38,-222.31 505.88,-222.31 505.88,-252.81"/>
<text text-anchor="start" x="373.38" y="-239.31" font-family="Helvetica,sans-Serif" font-size="10.00">ml::model::CBucketGatherer</text>
<text text-anchor="middle" x="435.62" y="-228.06" font-family="Helvetica,sans-Serif" font-size="10.00">::remove</text>
</a>
</g>
</g>
<!-- Node1&#45;&gt;Node3 -->
<g id="edge2_Node000001_Node000003" class="edge">
<title>Node1&#45;&gt;Node3</title>
<g id="a_edge2_Node000001_Node000003"><a xlink:title=" ">
<path fill="none" stroke="#63b8ff" d="M533.81,-249.33C524.59,-248.22 515.22,-247.08 506.1,-245.98"/>
<polygon fill="#63b8ff" stroke="#63b8ff" points="533.1,-252.77 543.45,-250.5 533.94,-245.82 533.1,-252.77"/>
</a>
</g>
</g>
<!-- Node4 -->
<g id="Node000004" class="node">
<title>Node4</title>
<g id="a_Node000004"><a xlink:href="../../d4/d01/classml_1_1model_1_1_c_bucket_gatherer.html#a5aa5b28fbf86b461353d5844764afa89" target="_top" xlink:title="Stop gathering data on the attributes identified by attributesToRemove.">
<polygon fill="white" stroke="#666666" points="326,-438.81 185.5,-438.81 185.5,-408.31 326,-408.31 326,-438.81"/>
<text text-anchor="start" x="193.5" y="-425.31" font-family="Helvetica,sans-Serif" font-size="10.00">ml::model::CBucketGatherer</text>
<text text-anchor="middle" x="255.75" y="-414.06" font-family="Helvetica,sans-Serif" font-size="10.00">::recycleAttributes</text>
</a>
</g>
</g>
<!-- Node3&#45;&gt;Node4 -->
<g id="edge3_Node000003_Node000004" class="edge">
<title>Node3&#45;&gt;Node4</title>
<g id="a_edge3_Node000003_Node000004"><a xlink:title=" ">
<path fill="none" stroke="#63b8ff" d="M363.44,-260.1C362.95,-260.58 362.47,-261.07 362,-261.56 319.9,-306.04 366.35,-348.49 326,-394.56 321.28,-399.96 315.39,-404.37 309.05,-407.98"/>
<polygon fill="#63b8ff" stroke="#63b8ff" points="365.29,-263.1 370.98,-254.16 360.96,-257.6 365.29,-263.1"/>
</a>
</g>
</g>
<!-- Node5 -->
<g id="Node000005" class="node">
<title>Node5</title>
<g id="a_Node000005"><a xlink:href="../../d8/d55/classml_1_1model_1_1_c_event_rate_bucket_gatherer.html#ada2b9089aedcce8d848a7b2b1d44e4a6" target="_top" xlink:title="Stop gathering data on the attributes identified by attributesToRemove.">
<polygon fill="white" stroke="#666666" points="149.5,-471.81 0,-471.81 0,-441.31 149.5,-441.31 149.5,-471.81"/>
<text text-anchor="start" x="8" y="-458.31" font-family="Helvetica,sans-Serif" font-size="10.00">ml::model::CEventRateBucket</text>
<text text-anchor="middle" x="74.75" y="-447.06" font-family="Helvetica,sans-Serif" font-size="10.00">Gatherer::recycleAttributes</text>
</a>
</g>
</g>
<!-- Node3&#45;&gt;Node5 -->
<g id="edge6_Node000003_Node000005" class="edge">
<title>Node3&#45;&gt;Node5</title>
<g id="a_edge6_Node000003_Node000005"><a xlink:title=" ">
<path fill="none" stroke="#63b8ff" d="M363.07,-260.39C362.71,-260.77 362.35,-261.16 362,-261.56 306.39,-324.79 389.98,-392.82 326,-447.56 272.41,-493.42 186.22,-484.77 130.29,-472.28"/>
<polygon fill="#63b8ff" stroke="#63b8ff" points="365.04,-263.31 370.41,-254.18 360.52,-257.97 365.04,-263.31"/>
</a>
</g>
</g>
<!-- Node6 -->
<g id="Node000006" class="node">
<title>Node6</title>
<g id="a_Node000006"><a xlink:href="../../dc/d65/classml_1_1model_1_1_c_metric_bucket_gatherer.html#adaceafb3f03d6f440ceb1357a8000a66" target="_top" xlink:title="Stop gathering data on the attributes identified by attributesToRemove.">
<polygon fill="white" stroke="#666666" points="141.25,-404.81 8.25,-404.81 8.25,-374.31 141.25,-374.31 141.25,-404.81"/>
<text text-anchor="start" x="16.25" y="-391.31" font-family="Helvetica,sans-Serif" font-size="10.00">ml::model::CMetricBucket</text>
<text text-anchor="middle" x="74.75" y="-380.06" font-family="Helvetica,sans-Serif" font-size="10.00">Gatherer::recycleAttributes</text>
</a>
</g>
</g>
<!-- Node3&#45;&gt;Node6 -->
<g id="edge7_Node000003_Node000006" class="edge">
<title>Node3&#45;&gt;Node6</title>
<g id="a_edge7_Node000003_Node000006"><a xlink:title=" ">
<path fill="none" stroke="#63b8ff" d="M363.95,-259.82C363.29,-260.39 362.64,-260.97 362,-261.56 330.86,-290.74 359.43,-324.05 326,-350.56 274.06,-391.75 196.52,-397.96 141.53,-396.09"/>
<polygon fill="#63b8ff" stroke="#63b8ff" points="365.89,-262.73 372.05,-254.11 361.86,-257.01 365.89,-262.73"/>
</a>
</g>
</g>
<!-- Node7 -->
<g id="Node000007" class="node">
<title>Node7</title>
<g id="a_Node000007"><a xlink:href="../../d4/d01/classml_1_1model_1_1_c_bucket_gatherer.html#a2fe5889882e39d0134993002dc51c8e2" target="_top" xlink:title="Stop gathering data on the people identified by peopleToRemove.">
<polygon fill="white" stroke="#666666" points="326,-314.81 185.5,-314.81 185.5,-284.31 326,-284.31 326,-314.81"/>
<text text-anchor="start" x="193.5" y="-301.31" font-family="Helvetica,sans-Serif" font-size="10.00">ml::model::CBucketGatherer</text>
<text text-anchor="middle" x="255.75" y="-290.06" font-family="Helvetica,sans-Serif" font-size="10.00">::recyclePeople</text>
</a>
</g>
</g>
<!-- Node3&#45;&gt;Node7 -->
<g id="edge8_Node000003_Node000007" class="edge">
<title>Node3&#45;&gt;Node7</title>
<g id="a_edge8_Node000003_Node000007"><a xlink:title=" ">
<path fill="none" stroke="#63b8ff" d="M375.69,-256.89C371.06,-258.45 366.45,-260.03 362,-261.56 341.34,-268.7 318.52,-276.91 299.42,-283.86"/>
<polygon fill="#63b8ff" stroke="#63b8ff" points="376.71,-260.24 385.08,-253.74 374.48,-253.6 376.71,-260.24"/>
</a>
</g>
</g>
<!-- Node8 -->
<g id="Node000008" class="node">
<title>Node8</title>
<g id="a_Node000008"><a xlink:href="../../d8/d55/classml_1_1model_1_1_c_event_rate_bucket_gatherer.html#a2f73010e86fc7e067f970bbb3fbfd35f" target="_top" xlink:title="Stop gathering data on the people identified by peopleToRemove.">
<polygon fill="white" stroke="#666666" points="149.5,-342.81 0,-342.81 0,-312.31 149.5,-312.31 149.5,-342.81"/>
<text text-anchor="start" x="8" y="-329.31" font-family="Helvetica,sans-Serif" font-size="10.00">ml::model::CEventRateBucket</text>
<text text-anchor="middle" x="74.75" y="-318.06" font-family="Helvetica,sans-Serif" font-size="10.00">Gatherer::recyclePeople</text>
</a>
</g>
</g>
<!-- Node3&#45;&gt;Node8 -->
<g id="edge11_Node000003_Node000008" class="edge">
<title>Node3&#45;&gt;Node8</title>
<g id="a_edge11_Node000003_Node000008"><a xlink:title=" ">
<path fill="none" stroke="#63b8ff" d="M365.4,-258.98C364.24,-259.81 363.1,-260.67 362,-261.56 337.26,-281.65 353.49,-307.45 326,-323.56 270.34,-356.2 195.05,-352.32 141.63,-343.31"/>
<polygon fill="#63b8ff" stroke="#63b8ff" points="366.84,-262.2 373.56,-254 363.2,-256.22 366.84,-262.2"/>
</a>
</g>
</g>
<!-- Node9 -->
<g id="Node000009" class="node">
<title>Node9</title>
<g id="a_Node000009"><a xlink:href="../../dc/d65/classml_1_1model_1_1_c_metric_bucket_gatherer.html#a324c69bf5abcc3792c3678feccaa4b12" target="_top" xlink:title="Stop gathering data on the people identified by peopleToRemove.">
<polygon fill="white" stroke="#666666" points="139.75,-282.81 9.75,-282.81 9.75,-252.31 139.75,-252.31 139.75,-282.81"/>
<text text-anchor="start" x="17.75" y="-269.31" font-family="Helvetica,sans-Serif" font-size="10.00">ml::model::CMetricBucket</text>
<text text-anchor="middle" x="74.75" y="-258.06" font-family="Helvetica,sans-Serif" font-size="10.00">Gatherer::recyclePeople</text>
</a>
</g>
</g>
<!-- Node3&#45;&gt;Node9 -->
<g id="edge12_Node000003_Node000009" class="edge">
<title>Node3&#45;&gt;Node9</title>
<g id="a_edge12_Node000003_Node000009"><a xlink:title=" ">
<path fill="none" stroke="#63b8ff" d="M353.65,-244.33C289.06,-249.73 199.81,-257.19 140.05,-262.19"/>
<polygon fill="#63b8ff" stroke="#63b8ff" points="353.82,-247.83 363.5,-243.51 353.24,-240.85 353.82,-247.83"/>
</a>
</g>
</g>
<!-- Node10 -->
<g id="Node000010" class="node">
<title>Node10</title>
<g id="a_Node000010"><a xlink:href="../../d4/d01/classml_1_1model_1_1_c_bucket_gatherer.html#acc7098738f4418a4ca6f9b4cce71e3bd" target="_top" xlink:title=" ">
<polygon fill="white" stroke="#666666" points="326,-190.81 185.5,-190.81 185.5,-160.31 326,-160.31 326,-190.81"/>
<text text-anchor="start" x="193.5" y="-177.31" font-family="Helvetica,sans-Serif" font-size="10.00">ml::model::CBucketGatherer</text>
<text text-anchor="middle" x="255.75" y="-166.06" font-family="Helvetica,sans-Serif" font-size="10.00">::removeAttributes</text>
</a>
</g>
</g>
<!-- Node3&#45;&gt;Node10 -->
<g id="edge13_Node000003_Node000010" class="edge">
<title>Node3&#45;&gt;Node10</title>
<g id="a_edge13_Node000003_Node000010"><a xlink:title=" ">
<path fill="none" stroke="#63b8ff" d="M379.02,-218.18C354.22,-209.54 325.37,-199.48 301.93,-191.31"/>
<polygon fill="#63b8ff" stroke="#63b8ff" points="377.72,-221.43 388.31,-221.42 380.02,-214.82 377.72,-221.43"/>
</a>
</g>
</g>
<!-- Node11 -->
<g id="Node000011" class="node">
<title>Node11</title>
<g id="a_Node000011"><a xlink:href="../../d8/d55/classml_1_1model_1_1_c_event_rate_bucket_gatherer.html#a5c9eb24e7ca4548cfaf372e03404e34b" target="_top" xlink:title=" ">
<polygon fill="white" stroke="#666666" points="149.5,-220.81 0,-220.81 0,-190.31 149.5,-190.31 149.5,-220.81"/>
<text text-anchor="start" x="8" y="-207.31" font-family="Helvetica,sans-Serif" font-size="10.00">ml::model::CEventRateBucket</text>
<text text-anchor="middle" x="74.75" y="-196.06" font-family="Helvetica,sans-Serif" font-size="10.00">Gatherer::removeAttributes</text>
</a>
</g>
</g>
<!-- Node3&#45;&gt;Node11 -->
<g id="edge16_Node000003_Node000011" class="edge">
<title>Node3&#45;&gt;Node11</title>
<g id="a_edge16_Node000003_Node000011"><a xlink:title=" ">
<path fill="none" stroke="#63b8ff" d="M353.85,-230.36C292.67,-224.91 209.28,-217.47 149.81,-212.17"/>
<polygon fill="#63b8ff" stroke="#63b8ff" points="353.23,-233.82 363.5,-231.22 353.85,-226.85 353.23,-233.82"/>
</a>
</g>
</g>
<!-- Node12 -->
<g id="Node000012" class="node">
<title>Node12</title>
<g id="a_Node000012"><a xlink:href="../../dc/d65/classml_1_1model_1_1_c_metric_bucket_gatherer.html#abb6a41e8a5118585267cdb37bef906f8" target="_top" xlink:title=" ">
<polygon fill="white" stroke="#666666" points="141.62,-155.81 7.88,-155.81 7.88,-125.31 141.62,-125.31 141.62,-155.81"/>
<text text-anchor="start" x="15.88" y="-142.31" font-family="Helvetica,sans-Serif" font-size="10.00">ml::model::CMetricBucket</text>
<text text-anchor="middle" x="74.75" y="-131.06" font-family="Helvetica,sans-Serif" font-size="10.00">Gatherer::removeAttributes</text>
</a>
</g>
</g>
<!-- Node3&#45;&gt;Node12 -->
<g id="edge17_Node000003_Node000012" class="edge">
<title>Node3&#45;&gt;Node12</title>
<g id="a_edge17_Node000003_Node000012"><a xlink:title=" ">
<path fill="none" stroke="#63b8ff" d="M413.16,-213.65C392.97,-192.99 360.71,-164.5 326,-151.56 266.61,-129.42 193.73,-128.93 141.97,-132.61"/>
<polygon fill="#63b8ff" stroke="#63b8ff" points="410.58,-216.01 420.01,-220.85 415.66,-211.19 410.58,-216.01"/>
</a>
</g>
</g>
<!-- Node13 -->
<g id="Node000013" class="node">
<title>Node13</title>
<g id="a_Node000013"><a xlink:href="../../d4/d01/classml_1_1model_1_1_c_bucket_gatherer.html#ae6d21714b6e8d2ee23d4a064c04d1da2" target="_top" xlink:title=" ">
<polygon fill="white" stroke="#666666" points="326,-66.81 185.5,-66.81 185.5,-36.31 326,-36.31 326,-66.81"/>
<text text-anchor="start" x="193.5" y="-53.31" font-family="Helvetica,sans-Serif" font-size="10.00">ml::model::CBucketGatherer</text>
<text text-anchor="middle" x="255.75" y="-42.06" font-family="Helvetica,sans-Serif" font-size="10.00">::removePeople</text>
</a>
</g>
</g>
<!-- Node3&#45;&gt;Node13 -->
<g id="edge18_Node000003_Node000013" class="edge">
<title>Node3&#45;&gt;Node13</title>
<g id="a_edge18_Node000003_Node000013"><a xlink:title=" ">
<path fill="none" stroke="#63b8ff" d="M422.7,-211.88C405.65,-177.7 371.31,-117.28 326,-80.56 319.52,-75.31 311.95,-70.87 304.24,-67.17"/>
<polygon fill="#63b8ff" stroke="#63b8ff" points="419.43,-213.18 426.95,-220.64 425.73,-210.12 419.43,-213.18"/>
</a>
</g>
</g>
<!-- Node14 -->
<g id="Node000014" class="node">
<title>Node14</title>
<g id="a_Node000014"><a xlink:href="../../d8/d55/classml_1_1model_1_1_c_event_rate_bucket_gatherer.html#a431b5ea1104138c6af7e92d0ea17b31a" target="_top" xlink:title=" ">
<polygon fill="white" stroke="#666666" points="149.5,-100.81 0,-100.81 0,-70.31 149.5,-70.31 149.5,-100.81"/>
<text text-anchor="start" x="8" y="-87.31" font-family="Helvetica,sans-Serif" font-size="10.00">ml::model::CEventRateBucket</text>
<text text-anchor="middle" x="74.75" y="-76.06" font-family="Helvetica,sans-Serif" font-size="10.00">Gatherer::removePeople</text>
</a>
</g>
</g>
<!-- Node3&#45;&gt;Node14 -->
<g id="edge21_Node000003_Node000014" class="edge">
<title>Node3&#45;&gt;Node14</title>
<g id="a_edge21_Node000003_Node000014"><a xlink:title=" ">
<path fill="none" stroke="#63b8ff" d="M417.84,-212.78C398.8,-186.8 365.25,-146.96 326,-126.56 271.41,-98.19 201.84,-88.58 149.92,-85.7"/>
<polygon fill="#63b8ff" stroke="#63b8ff" points="414.87,-214.65 423.53,-220.76 420.57,-210.59 414.87,-214.65"/>
</a>
</g>
</g>
<!-- Node15 -->
<g id="Node000015" class="node">
<title>Node15</title>
<g id="a_Node000015"><a xlink:href="../../dc/d65/classml_1_1model_1_1_c_metric_bucket_gatherer.html#a9b3811506c3d897a6067942effddbcfd" target="_top" xlink:title=" ">
<polygon fill="white" stroke="#666666" points="139.75,-38.81 9.75,-38.81 9.75,-8.31 139.75,-8.31 139.75,-38.81"/>
<text text-anchor="start" x="17.75" y="-25.31" font-family="Helvetica,sans-Serif" font-size="10.00">ml::model::CMetricBucket</text>
<text text-anchor="middle" x="74.75" y="-14.06" font-family="Helvetica,sans-Serif" font-size="10.00">Gatherer::removePeople</text>
</a>
</g>
</g>
<!-- Node3&#45;&gt;Node15 -->
<g id="edge22_Node000003_Node000015" class="edge">
<title>Node3&#45;&gt;Node15</title>
<g id="a_edge22_Node000003_Node000015"><a xlink:title=" ">
<path fill="none" stroke="#63b8ff" d="M429.9,-211.05C420.01,-164.38 392.28,-68.63 326,-27.56 269.76,7.28 191.91,2.09 138.03,-7.83"/>
<polygon fill="#63b8ff" stroke="#63b8ff" points="426.41,-211.44 431.8,-220.57 433.28,-210.08 426.41,-211.44"/>
</a>
</g>
</g>
<!-- Node4&#45;&gt;Node5 -->
<g id="edge4_Node000004_Node000005" class="edge">
<title>Node4&#45;&gt;Node5</title>
<g id="a_edge4_Node000004_Node000005"><a xlink:title=" ">
<path fill="none" stroke="#63b8ff" d="M173.78,-438.49C165.77,-439.97 157.66,-441.46 149.71,-442.93"/>
<polygon fill="#63b8ff" stroke="#63b8ff" points="174.34,-441.95 183.54,-436.69 173.07,-435.06 174.34,-441.95"/>
</a>
</g>
</g>
<!-- Node4&#45;&gt;Node6 -->
<g id="edge5_Node000004_Node000006" class="edge">
<title>Node4&#45;&gt;Node6</title>
<g id="a_edge5_Node000004_Node000006"><a xlink:title=" ">
<path fill="none" stroke="#63b8ff" d="M173.83,-408.19C163,-406.14 152,-404.05 141.47,-402.05"/>
<polygon fill="#63b8ff" stroke="#63b8ff" points="173.07,-411.61 183.54,-410.04 174.37,-404.73 173.07,-411.61"/>
</a>
</g>
</g>
<!-- Node7&#45;&gt;Node8 -->
<g id="edge9_Node000007_Node000008" class="edge">
<title>Node7&#45;&gt;Node8</title>
<g id="a_edge9_Node000007_Node000008"><a xlink:title=" ">
<path fill="none" stroke="#63b8ff" d="M173.78,-312.23C165.77,-313.48 157.66,-314.75 149.71,-315.99"/>
<polygon fill="#63b8ff" stroke="#63b8ff" points="174.2,-315.71 183.54,-310.7 173.12,-308.79 174.2,-315.71"/>
</a>
</g>
</g>
<!-- Node7&#45;&gt;Node9 -->
<g id="edge10_Node000007_Node000009" class="edge">
<title>Node7&#45;&gt;Node9</title>
<g id="a_edge10_Node000007_Node000009"><a xlink:title=" ">
<path fill="none" stroke="#63b8ff" d="M173.8,-285.09C162.48,-283.07 150.97,-281.01 140.02,-279.05"/>
<polygon fill="#63b8ff" stroke="#63b8ff" points="173.08,-288.52 183.54,-286.83 174.31,-281.63 173.08,-288.52"/>
</a>
</g>
</g>
<!-- Node10&#45;&gt;Node11 -->
<g id="edge14_Node000010_Node000011" class="edge">
<title>Node10&#45;&gt;Node11</title>
<g id="a_edge14_Node000010_Node000011"><a xlink:title=" ">
<path fill="none" stroke="#63b8ff" d="M173.78,-189.13C165.77,-190.48 157.66,-191.84 149.71,-193.17"/>
<polygon fill="#63b8ff" stroke="#63b8ff" points="174.25,-192.6 183.54,-187.5 173.1,-185.7 174.25,-192.6"/>
</a>
</g>
</g>
<!-- Node10&#45;&gt;Node12 -->
<g id="edge15_Node000010_Node000012" class="edge">
<title>Node10&#45;&gt;Node12</title>
<g id="a_edge15_Node000010_Node000012"><a xlink:title=" ">
<path fill="none" stroke="#63b8ff" d="M173.99,-159.77C163.3,-157.68 152.45,-155.56 142.05,-153.53"/>
<polygon fill="#63b8ff" stroke="#63b8ff" points="173.06,-163.16 183.55,-161.64 174.4,-156.29 173.06,-163.16"/>
</a>
</g>
</g>
<!-- Node13&#45;&gt;Node14 -->
<g id="edge19_Node000013_Node000014" class="edge">
<title>Node13&#45;&gt;Node14</title>
<g id="a_edge19_Node000013_Node000014"><a xlink:title=" ">
<path fill="none" stroke="#63b8ff" d="M173.78,-66.94C165.77,-68.47 157.66,-70.01 149.71,-71.51"/>
<polygon fill="#63b8ff" stroke="#63b8ff" points="174.37,-70.39 183.54,-65.09 173.07,-63.52 174.37,-70.39"/>
</a>
</g>
</g>
<!-- Node13&#45;&gt;Node15 -->
<g id="edge20_Node000013_Node000015" class="edge">
<title>Node13&#45;&gt;Node15</title>
<g id="a_edge20_Node000013_Node000015"><a xlink:title=" ">
<path fill="none" stroke="#63b8ff" d="M173.8,-38.9C162.48,-37.13 150.97,-35.33 140.02,-33.62"/>
<polygon fill="#63b8ff" stroke="#63b8ff" points="173.12,-42.34 183.54,-40.42 174.2,-35.42 173.12,-42.34"/>
</a>
</g>
</g>
</g>
</svg>
