<?xml version="1.0" encoding="UTF-8" standalone="no"?>
<!DOCTYPE svg PUBLIC "-//W3C//DTD SVG 1.1//EN"
 "http://www.w3.org/Graphics/SVG/1.1/DTD/svg11.dtd">
<!-- Generated by graphviz version 10.0.1 (20240210.2158)
 -->
<!-- Title: ml::maths::common::CRandomProjectionClusterer::generateProjections Pages: 1 -->
<!--zoomable 340 -->

<svg id="main" version="1.1" xmlns="http://www.w3.org/2000/svg" xmlns:xlink="http://www.w3.org/1999/xlink" xml:space="preserve" onload="init(evt)">
<style type="text/css"><![CDATA[
.node, .edge {opacity: 0.7;}
.node.selected, .edge.selected {opacity: 1;}
.edge:hover path { stroke: red; }
.edge:hover polygon { stroke: red; fill: red; }
]]></style>

<defs>
  <circle id="rim" cx="0" cy="0" r="7"/>
  <circle id="rim2" cx="0" cy="0" r="3.5"/>
  <g id="zoomPlus">
    <use xlink:href="#rim" fill="#404040"><set attributeName="fill" to="#808080" begin="zoomplus.mouseover" end="zoomplus.mouseout"/></use>
    <path d="M-4,0h8M0,-4v8" fill="none" stroke="white" stroke-width="1.5" pointer-events="none"/>
  </g>
  <g id="zoomMin">
    <use xlink:href="#rim" fill="#404040"><set attributeName="fill" to="#808080" begin="zoomminus.mouseover" end="zoomminus.mouseout"/></use>
    <path d="M-4,0h8" fill="none" stroke="white" stroke-width="1.5" pointer-events="none"/>
  </g>
  <g id="arrowUp" transform="translate(30 24)">
    <use xlink:href="#rim"/>
    <path pointer-events="none" fill="none" stroke="white" stroke-width="1.5" d="M0,-3.0v7 M-2.5,-0.5L0,-3.0L2.5,-0.5"/>
  </g>
  <g id="arrowRight" transform="rotate(90) translate(36 -43)">
    <use xlink:href="#rim"/>
    <path pointer-events="none" fill="none" stroke="white" stroke-width="1.5" d="M0,-3.0v7 M-2.5,-0.5L0,-3.0L2.5,-0.5"/>
  </g>
  <g id="arrowDown" transform="rotate(180) translate(-30 -48)">
    <use xlink:href="#rim"/>
    <path pointer-events="none" fill="none" stroke="white" stroke-width="1.5" d="M0,-3.0v7 M-2.5,-0.5L0,-3.0L2.5,-0.5"/>
  </g>
  <g id="arrowLeft" transform="rotate(270) translate(-36 17)">
    <use xlink:href="#rim"/>
    <path pointer-events="none" fill="none" stroke="white" stroke-width="1.5" d="M0,-3.0v7 M-2.5,-0.5L0,-3.0L2.5,-0.5"/>
  </g>
  <g id="resetDef">
    <use xlink:href="#rim2" fill="#404040"><set attributeName="fill" to="#808080" begin="reset.mouseover" end="reset.mouseout"/></use>
  </g>
</defs>
<script type="application/ecmascript">
var viewWidth = 865;
var viewHeight = 340;
var sectionId = 'dynsection-3';
</script>
<script type="application/ecmascript" xlink:href="../../svg.min.js"/>
<svg id="graph" class="graph">
<g id="viewport">
<title>ml::maths::common::CRandomProjectionClusterer::generateProjections</title>
<!-- Node1 -->
<g id="Node000001" class="node">
<title>Node1</title>
<g id="a_Node000001"><a xlink:title="Generate b random projections.">
<polygon fill="#999999" stroke="#666666" points="143.5,-180.12 0,-180.12 0,-138.38 143.5,-138.38 143.5,-180.12"/>
<text text-anchor="start" x="8" y="-166.62" font-family="Helvetica,sans-Serif" font-size="10.00">ml::maths::common::</text>
<text text-anchor="start" x="8" y="-155.38" font-family="Helvetica,sans-Serif" font-size="10.00">CRandomProjectionClusterer</text>
<text text-anchor="middle" x="71.75" y="-144.12" font-family="Helvetica,sans-Serif" font-size="10.00">::generateProjections</text>
</a>
</g>
</g>
<!-- Node2 -->
<g id="Node000002" class="node">
<title>Node2</title>
<g id="a_Node000002"><a xlink:href="../../d3/d93/classml_1_1maths_1_1common_1_1_c_sampling.html#acdaa76bc07ddbc929d93e35ab4ff1bcf" target="_top" xlink:title=" ">
<polygon fill="white" stroke="#666666" points="317.38,-210.5 185.12,-210.5 185.12,-180 317.38,-180 317.38,-210.5"/>
<text text-anchor="start" x="193.12" y="-197" font-family="Helvetica,sans-Serif" font-size="10.00">ml::maths::common::</text>
<text text-anchor="middle" x="251.25" y="-185.75" font-family="Helvetica,sans-Serif" font-size="10.00">CSampling::normalSample</text>
</a>
</g>
</g>
<!-- Node1&#45;&gt;Node2 -->
<g id="edge1_Node000001_Node000002" class="edge">
<title>Node1&#45;&gt;Node2</title>
<g id="a_edge1_Node000001_Node000002"><a xlink:title=" ">
<path fill="none" stroke="#63b8ff" d="M143.92,-173.69C153.73,-175.67 163.84,-177.73 173.74,-179.73"/>
<polygon fill="#63b8ff" stroke="#63b8ff" points="172.83,-183.12 183.33,-181.68 174.22,-176.26 172.83,-183.12"/>
</a>
</g>
</g>
<!-- Node9 -->
<g id="Node000009" class="node">
<title>Node9</title>
<g id="a_Node000009"><a xlink:href="../../da/d44/classml_1_1maths_1_1common_1_1_c_orthogonaliser.html#a61726991be03c8561eee39ffcafb2881" target="_top" xlink:title=" ">
<polygon fill="white" stroke="#666666" points="323,-153.12 179.5,-153.12 179.5,-111.38 323,-111.38 323,-153.12"/>
<text text-anchor="start" x="187.5" y="-139.62" font-family="Helvetica,sans-Serif" font-size="10.00">ml::maths::common::</text>
<text text-anchor="start" x="187.5" y="-128.38" font-family="Helvetica,sans-Serif" font-size="10.00">COrthogonaliser::orthonormal</text>
<text text-anchor="middle" x="251.25" y="-117.12" font-family="Helvetica,sans-Serif" font-size="10.00">Basis</text>
</a>
</g>
</g>
<!-- Node1&#45;&gt;Node9 -->
<g id="edge8_Node000001_Node000009" class="edge">
<title>Node1&#45;&gt;Node9</title>
<g id="a_edge8_Node000001_Node000009"><a xlink:title=" ">
<path fill="none" stroke="#63b8ff" d="M143.92,-148.42C151.79,-147.23 159.85,-146 167.84,-144.79"/>
<polygon fill="#63b8ff" stroke="#63b8ff" points="168.2,-148.27 177.56,-143.31 167.15,-141.35 168.2,-148.27"/>
</a>
</g>
</g>
<!-- Node3 -->
<g id="Node000003" class="node">
<title>Node3</title>
<g id="a_Node000003"><a xlink:href="../../d6/dd5/namespaceml_1_1maths_1_1common.html#a37f8b7909e617ad623600aead4cfc868" target="_top" xlink:title="Compute the distribution mean.">
<polygon fill="white" stroke="#666666" points="497.25,-210.88 364.25,-210.88 364.25,-191.62 497.25,-191.62 497.25,-210.88"/>
<text text-anchor="middle" x="430.75" y="-197.38" font-family="Helvetica,sans-Serif" font-size="10.00">ml::maths::common::mean</text>
</a>
</g>
</g>
<!-- Node2&#45;&gt;Node3 -->
<g id="edge2_Node000002_Node000003" class="edge">
<title>Node2&#45;&gt;Node3</title>
<g id="a_edge2_Node000002_Node000003"><a xlink:title=" ">
<path fill="none" stroke="#63b8ff" d="M317.84,-197.47C329.1,-197.85 340.89,-198.25 352.42,-198.64"/>
<polygon fill="#63b8ff" stroke="#63b8ff" points="352.21,-202.13 362.32,-198.97 352.45,-195.13 352.21,-202.13"/>
</a>
</g>
</g>
<!-- Node4 -->
<g id="Node000004" class="node">
<title>Node4</title>
<g id="a_Node000004"><a xlink:href="../../d6/dd5/namespaceml_1_1maths_1_1common.html#aa139fb07823365e51bd2f01178d7a61a" target="_top" xlink:title="Compute the mode for distribution.">
<polygon fill="white" stroke="#666666" points="678.62,-217.88 545.62,-217.88 545.62,-198.62 678.62,-198.62 678.62,-217.88"/>
<text text-anchor="middle" x="612.12" y="-204.38" font-family="Helvetica,sans-Serif" font-size="10.00">ml::maths::common::mode</text>
</a>
</g>
</g>
<!-- Node3&#45;&gt;Node4 -->
<g id="edge3_Node000003_Node000004" class="edge">
<title>Node3&#45;&gt;Node4</title>
<g id="a_edge3_Node000003_Node000004"><a xlink:title=" ">
<path fill="none" stroke="#63b8ff" d="M497.52,-203.82C509.34,-204.28 521.76,-204.76 533.87,-205.24"/>
<polygon fill="#63b8ff" stroke="#63b8ff" points="533.72,-208.73 543.85,-205.62 533.99,-201.74 533.72,-208.73"/>
</a>
</g>
</g>
<!-- Node5 -->
<g id="Node000005" class="node">
<title>Node5</title>
<g id="a_Node000005"><a xlink:href="../../d0/d1c/classml_1_1maths_1_1common_1_1_c_log_t_distribution.html#a128ce0a627956e7931be0358fe995d2d" target="_top" xlink:title=" ">
<polygon fill="white" stroke="#666666" points="857,-332.12 721.75,-332.12 721.75,-290.38 857,-290.38 857,-332.12"/>
<text text-anchor="start" x="729.75" y="-318.62" font-family="Helvetica,sans-Serif" font-size="10.00">ml::maths::common::</text>
<text text-anchor="start" x="729.75" y="-307.38" font-family="Helvetica,sans-Serif" font-size="10.00">CLogTDistribution::degrees</text>
<text text-anchor="middle" x="789.38" y="-296.12" font-family="Helvetica,sans-Serif" font-size="10.00">Freedom</text>
</a>
</g>
</g>
<!-- Node4&#45;&gt;Node5 -->
<g id="edge4_Node000004_Node000005" class="edge">
<title>Node4&#45;&gt;Node5</title>
<g id="a_edge4_Node000004_Node000005"><a xlink:title=" ">
<path fill="none" stroke="#63b8ff" d="M626.38,-218.23C646.39,-233.05 685.81,-261.27 721.75,-281.25 723.91,-282.45 726.13,-283.64 728.39,-284.82"/>
<polygon fill="#63b8ff" stroke="#63b8ff" points="726.58,-287.83 737.09,-289.2 729.72,-281.58 726.58,-287.83"/>
</a>
</g>
</g>
<!-- Node6 -->
<g id="Node000006" class="node">
<title>Node6</title>
<g id="a_Node000006"><a xlink:href="../../d0/d1c/classml_1_1maths_1_1common_1_1_c_log_t_distribution.html#a4267908e2f6c547fd21f75a77f6bee78" target="_top" xlink:title=" ">
<polygon fill="white" stroke="#666666" points="856.62,-272.5 722.12,-272.5 722.12,-242 856.62,-242 856.62,-272.5"/>
<text text-anchor="start" x="730.12" y="-259" font-family="Helvetica,sans-Serif" font-size="10.00">ml::maths::common::</text>
<text text-anchor="middle" x="789.38" y="-247.75" font-family="Helvetica,sans-Serif" font-size="10.00">CLogTDistribution::location</text>
</a>
</g>
</g>
<!-- Node4&#45;&gt;Node6 -->
<g id="edge5_Node000004_Node000006" class="edge">
<title>Node4&#45;&gt;Node6</title>
<g id="a_edge5_Node000004_Node000006"><a xlink:title=" ">
<path fill="none" stroke="#63b8ff" d="M649.01,-218.28C669.77,-224.09 696.56,-231.58 721.09,-238.44"/>
<polygon fill="#63b8ff" stroke="#63b8ff" points="720.15,-241.81 730.72,-241.13 722.03,-235.07 720.15,-241.81"/>
</a>
</g>
</g>
<!-- Node7 -->
<g id="Node000007" class="node">
<title>Node7</title>
<g id="a_Node000007"><a xlink:href="../../dd/d55/classml_1_1maths_1_1common_1_1_c_tools.html#aa0600053da91719428498ec9968916c3" target="_top" xlink:title="Compute .">
<polygon fill="white" stroke="#666666" points="843.88,-223.5 734.88,-223.5 734.88,-193 843.88,-193 843.88,-223.5"/>
<text text-anchor="start" x="742.88" y="-210" font-family="Helvetica,sans-Serif" font-size="10.00">ml::maths::common::</text>
<text text-anchor="middle" x="789.38" y="-198.75" font-family="Helvetica,sans-Serif" font-size="10.00">CTools::pow2</text>
</a>
</g>
</g>
<!-- Node4&#45;&gt;Node7 -->
<g id="edge6_Node000004_Node000007" class="edge">
<title>Node4&#45;&gt;Node7</title>
<g id="a_edge6_Node000004_Node000007"><a xlink:title=" ">
<path fill="none" stroke="#63b8ff" d="M678.88,-208.25C693.36,-208.25 708.7,-208.25 723.16,-208.25"/>
<polygon fill="#63b8ff" stroke="#63b8ff" points="723.03,-211.75 733.03,-208.25 723.03,-204.75 723.03,-211.75"/>
</a>
</g>
</g>
<!-- Node8 -->
<g id="Node000008" class="node">
<title>Node8</title>
<g id="a_Node000008"><a xlink:href="../../d0/d1c/classml_1_1maths_1_1common_1_1_c_log_t_distribution.html#a8f03f27080a2f59d3da535b4b4f228ef" target="_top" xlink:title=" ">
<polygon fill="white" stroke="#666666" points="851.38,-174.5 727.38,-174.5 727.38,-144 851.38,-144 851.38,-174.5"/>
<text text-anchor="start" x="735.38" y="-161" font-family="Helvetica,sans-Serif" font-size="10.00">ml::maths::common::</text>
<text text-anchor="middle" x="789.38" y="-149.75" font-family="Helvetica,sans-Serif" font-size="10.00">CLogTDistribution::scale</text>
</a>
</g>
</g>
<!-- Node4&#45;&gt;Node8 -->
<g id="edge7_Node000004_Node000008" class="edge">
<title>Node4&#45;&gt;Node8</title>
<g id="a_edge7_Node000004_Node000008"><a xlink:title=" ">
<path fill="none" stroke="#63b8ff" d="M649.01,-198.22C669.77,-192.41 696.56,-184.92 721.09,-178.06"/>
<polygon fill="#63b8ff" stroke="#63b8ff" points="722.03,-181.43 730.72,-175.37 720.15,-174.69 722.03,-181.43"/>
</a>
</g>
</g>
<!-- Node10 -->
<g id="Node000010" class="node">
<title>Node10</title>
<g id="a_Node000010"><a xlink:href="../../da/d44/classml_1_1maths_1_1common_1_1_c_orthogonaliser.html#a46230d84d985b62998f8537a9885e8d2" target="_top" xlink:title=" ">
<polygon fill="white" stroke="#666666" points="502.5,-134.12 359,-134.12 359,-92.38 502.5,-92.38 502.5,-134.12"/>
<text text-anchor="start" x="367" y="-120.62" font-family="Helvetica,sans-Serif" font-size="10.00">ml::maths::common::</text>
<text text-anchor="start" x="367" y="-109.38" font-family="Helvetica,sans-Serif" font-size="10.00">COrthogonaliser::orthonormal</text>
<text text-anchor="middle" x="430.75" y="-98.12" font-family="Helvetica,sans-Serif" font-size="10.00">BasisImpl</text>
</a>
</g>
</g>
<!-- Node9&#45;&gt;Node10 -->
<g id="edge9_Node000009_Node000010" class="edge">
<title>Node9&#45;&gt;Node10</title>
<g id="a_edge9_Node000009_Node000010"><a xlink:title=" ">
<path fill="none" stroke="#63b8ff" d="M323.42,-124.63C331.29,-123.79 339.35,-122.93 347.34,-122.07"/>
<polygon fill="#63b8ff" stroke="#63b8ff" points="347.49,-125.58 357.06,-121.03 346.74,-118.62 347.49,-125.58"/>
</a>
</g>
</g>
<!-- Node11 -->
<g id="Node000011" class="node">
<title>Node11</title>
<g id="a_Node000011"><a xlink:href="../../da/d44/classml_1_1maths_1_1common_1_1_c_orthogonaliser.html#ad207ab1d93d9116bfa539b1c703ffd3c" target="_top" xlink:title=" ">
<polygon fill="white" stroke="#666666" points="680.5,-177.5 543.75,-177.5 543.75,-147 680.5,-147 680.5,-177.5"/>
<text text-anchor="start" x="551.75" y="-164" font-family="Helvetica,sans-Serif" font-size="10.00">ml::maths::common::</text>
<text text-anchor="middle" x="612.12" y="-152.75" font-family="Helvetica,sans-Serif" font-size="10.00">COrthogonaliser::dimension</text>
</a>
</g>
</g>
<!-- Node10&#45;&gt;Node11 -->
<g id="edge10_Node000010_Node000011" class="edge">
<title>Node10&#45;&gt;Node11</title>
<g id="a_edge10_Node000010_Node000011"><a xlink:title=" ">
<path fill="none" stroke="#63b8ff" d="M502.9,-132.69C516.05,-136.28 529.74,-140.02 542.8,-143.59"/>
<polygon fill="#63b8ff" stroke="#63b8ff" points="541.56,-146.88 552.13,-146.14 543.41,-140.12 541.56,-146.88"/>
</a>
</g>
</g>
<!-- Node13 -->
<g id="Node000013" class="node">
<title>Node13</title>
<g id="a_Node000013"><a xlink:href="../../da/d44/classml_1_1maths_1_1common_1_1_c_orthogonaliser.html#a0b5ebeaff235beb9db236b60547e785a" target="_top" xlink:title=" ">
<polygon fill="white" stroke="#666666" points="684.62,-128.5 539.62,-128.5 539.62,-98 684.62,-98 684.62,-128.5"/>
<text text-anchor="start" x="547.62" y="-115" font-family="Helvetica,sans-Serif" font-size="10.00">ml::maths::common::</text>
<text text-anchor="middle" x="612.12" y="-103.75" font-family="Helvetica,sans-Serif" font-size="10.00">COrthogonaliser::readColumn</text>
</a>
</g>
</g>
<!-- Node10&#45;&gt;Node13 -->
<g id="edge12_Node000010_Node000013" class="edge">
<title>Node10&#45;&gt;Node13</title>
<g id="a_edge12_Node000010_Node000013"><a xlink:title=" ">
<path fill="none" stroke="#63b8ff" d="M502.9,-113.25C511.11,-113.25 519.53,-113.25 527.87,-113.25"/>
<polygon fill="#63b8ff" stroke="#63b8ff" points="527.67,-116.75 537.67,-113.25 527.67,-109.75 527.67,-116.75"/>
</a>
</g>
</g>
<!-- Node14 -->
<g id="Node000014" class="node">
<title>Node14</title>
<g id="a_Node000014"><a xlink:href="../../da/d44/classml_1_1maths_1_1common_1_1_c_orthogonaliser.html#a22d70337267548fe9fa4bbbf85015e67" target="_top" xlink:title=" ">
<polygon fill="white" stroke="#666666" points="671.5,-79.5 552.75,-79.5 552.75,-49 671.5,-49 671.5,-79.5"/>
<text text-anchor="start" x="560.75" y="-66" font-family="Helvetica,sans-Serif" font-size="10.00">ml::maths::common::</text>
<text text-anchor="middle" x="612.12" y="-54.75" font-family="Helvetica,sans-Serif" font-size="10.00">COrthogonaliser::resize</text>
</a>
</g>
</g>
<!-- Node10&#45;&gt;Node14 -->
<g id="edge14_Node000010_Node000014" class="edge">
<title>Node10&#45;&gt;Node14</title>
<g id="a_edge14_Node000010_Node000014"><a xlink:title=" ">
<path fill="none" stroke="#63b8ff" d="M502.9,-93.81C516.05,-90.22 529.74,-86.48 542.8,-82.91"/>
<polygon fill="#63b8ff" stroke="#63b8ff" points="543.41,-86.38 552.13,-80.36 541.56,-79.62 543.41,-86.38"/>
</a>
</g>
</g>
<!-- Node15 -->
<g id="Node000015" class="node">
<title>Node15</title>
<g id="a_Node000015"><a xlink:href="../../da/d44/classml_1_1maths_1_1common_1_1_c_orthogonaliser.html#a0da44b5174462a96a4fb04eca3627b61" target="_top" xlink:title=" ">
<polygon fill="white" stroke="#666666" points="685.75,-30.5 538.5,-30.5 538.5,0 685.75,0 685.75,-30.5"/>
<text text-anchor="start" x="546.5" y="-17" font-family="Helvetica,sans-Serif" font-size="10.00">ml::maths::common::</text>
<text text-anchor="middle" x="612.12" y="-5.75" font-family="Helvetica,sans-Serif" font-size="10.00">COrthogonaliser::writeColumn</text>
</a>
</g>
</g>
<!-- Node10&#45;&gt;Node15 -->
<g id="edge15_Node000010_Node000015" class="edge">
<title>Node10&#45;&gt;Node15</title>
<g id="a_edge15_Node000010_Node000015"><a xlink:title=" ">
<path fill="none" stroke="#63b8ff" d="M458.58,-91.89C479.45,-76.05 509.61,-54.77 538.5,-40.25 542,-38.49 545.66,-36.81 549.38,-35.2"/>
<polygon fill="#63b8ff" stroke="#63b8ff" points="550.65,-38.46 558.61,-31.47 548.02,-31.98 550.65,-38.46"/>
</a>
</g>
</g>
<!-- Node12 -->
<g id="Node000012" class="node">
<title>Node12</title>
<g id="a_Node000012"><a xlink:href="../../db/d5d/namespaceml_1_1maths_1_1common_1_1las.html#a92aae861f23cd3021cc276aeb9dbf89d" target="_top" xlink:title="Get the dimension of one of our internal vectors.">
<polygon fill="white" stroke="#666666" points="843.88,-125.5 734.88,-125.5 734.88,-95 843.88,-95 843.88,-125.5"/>
<text text-anchor="start" x="742.88" y="-112" font-family="Helvetica,sans-Serif" font-size="10.00">ml::maths::common::</text>
<text text-anchor="middle" x="789.38" y="-100.75" font-family="Helvetica,sans-Serif" font-size="10.00">las::dimension</text>
</a>
</g>
</g>
<!-- Node11&#45;&gt;Node12 -->
<g id="edge11_Node000011_Node000012" class="edge">
<title>Node11&#45;&gt;Node12</title>
<g id="a_edge11_Node000011_Node000012"><a xlink:title=" ">
<path fill="none" stroke="#63b8ff" d="M666.18,-146.51C684.63,-141.03 705.5,-134.84 724.72,-129.14"/>
<polygon fill="#63b8ff" stroke="#63b8ff" points="725.46,-132.57 734.05,-126.37 723.47,-125.86 725.46,-132.57"/>
</a>
</g>
</g>
<!-- Node13&#45;&gt;Node12 -->
<g id="edge13_Node000013_Node000012" class="edge">
<title>Node13&#45;&gt;Node12</title>
<g id="a_edge13_Node000013_Node000012"><a xlink:title=" ">
<path fill="none" stroke="#63b8ff" d="M684.91,-112.02C697.58,-111.8 710.7,-111.58 723.17,-111.37"/>
<polygon fill="#63b8ff" stroke="#63b8ff" points="722.96,-114.87 732.9,-111.2 722.84,-107.87 722.96,-114.87"/>
</a>
</g>
</g>
<!-- Node15&#45;&gt;Node12 -->
<g id="edge16_Node000015_Node000012" class="edge">
<title>Node15&#45;&gt;Node12</title>
<g id="a_edge16_Node000015_Node000012"><a xlink:title=" ">
<path fill="none" stroke="#63b8ff" d="M664.24,-30.9C671.59,-33.71 678.96,-36.84 685.75,-40.25 712.25,-53.55 739.89,-72.76 759.8,-87.69"/>
<polygon fill="#63b8ff" stroke="#63b8ff" points="757.64,-90.44 767.71,-93.71 761.88,-84.87 757.64,-90.44"/>
</a>
</g>
</g>
</g>
</svg>

<g id="navigator" transform="translate(0 0)" fill="#404254">
  <rect fill="#f2f5e9" fill-opacity="0.5" stroke="#606060" stroke-width=".5" x="0" y="0" width="60" height="60"/>
  <use id="zoomplus" xlink:href="#zoomPlus" x="17" y="9" onmousedown="handleZoom(evt,'in')"/>
  <use id="zoomminus" xlink:href="#zoomMin" x="42" y="9" onmousedown="handleZoom(evt,'out')"/>
  <use id="reset" xlink:href="#resetDef" x="30" y="36" onmousedown="handleReset()"/>
   <use id="arrowup" xlink:href="#arrowUp" x="0" y="0" onmousedown="handlePan(0,-1)"/>
  <use id="arrowright" xlink:href="#arrowRight" x="0" y="0" onmousedown="handlePan(1,0)"/>
  <use id="arrowdown" xlink:href="#arrowDown" x="0" y="0" onmousedown="handlePan(0,1)"/>
  <use id="arrowleft" xlink:href="#arrowLeft" x="0" y="0" onmousedown="handlePan(-1,0)"/>
</g>
<svg viewBox="0 0 15 15" width="100%" height="30px" preserveAspectRatio="xMaxYMin meet">
 <g id="arrow_out" transform="scale(0.3 0.3)">
  <a xlink:href="classml_1_1maths_1_1common_1_1_c_random_projection_clusterer_aea5fd07d815eefdedd55f0cbe59a10e7_cgraph_org.svg" target="_base">
   <rect id="button" ry="5" rx="5" y="6" x="6" height="38" width="38"
        fill="#f2f5e9" fill-opacity="0.5" stroke="#606060" stroke-width="1.0"/>
   <path id="arrow"
     d="M 11.500037,31.436501 C 11.940474,20.09759 22.043105,11.32322 32.158766,21.979434 L 37.068811,17.246167 C 37.068811,17.246167 37.088388,32 37.088388,32 L 22.160133,31.978069 C 22.160133,31.978069 26.997745,27.140456 26.997745,27.140456 C 18.528582,18.264221 13.291696,25.230495 11.500037,31.436501 z"
     style="fill:#404040;"/>
  </a>
 </g>
</svg>

<style type='text/css'>
<![CDATA[
[data-mouse-over-selected='false'] { opacity: 0.7; }
[data-mouse-over-selected='true']  { opacity: 1.0; }
]]>
</style>
<script type="application/ecmascript"><![CDATA[
document.addEventListener('DOMContentLoaded', (event) => {
  highlightEdges();
  highlightAdjacentNodes();
});
]]></script>
</svg>
