<?xml version="1.0" encoding="UTF-8" standalone="no"?>
<!DOCTYPE svg PUBLIC "-//W3C//DTD SVG 1.1//EN"
 "http://www.w3.org/Graphics/SVG/1.1/DTD/svg11.dtd">
<!-- Generated by graphviz version 10.0.1 (20240210.2158)
 -->
<!-- Title: ml::model::CEventRateModel::correlates Pages: 1 -->
<svg width="334pt" height="88pt"
 viewBox="0.00 0.00 334.00 87.50" xmlns="http://www.w3.org/2000/svg" xmlns:xlink="http://www.w3.org/1999/xlink">
<g id="graph0" class="graph" transform="scale(1 1) rotate(0) translate(4 83.5)">
<title>ml::model::CEventRateModel::correlates</title>
<!-- Node1 -->
<g id="Node000001" class="node">
<title>Node1</title>
<g id="a_Node000001"><a xlink:title=" ">
<polygon fill="#999999" stroke="#666666" points="326,-54.5 181,-54.5 181,-24 326,-24 326,-54.5"/>
<text text-anchor="start" x="189" y="-41" font-family="Helvetica,sans-Serif" font-size="10.00">ml::model::CEventRateModel</text>
<text text-anchor="middle" x="253.5" y="-29.75" font-family="Helvetica,sans-Serif" font-size="10.00">::correlates</text>
</a>
</g>
</g>
<!-- Node2 -->
<g id="Node000002" class="node">
<title>Node2</title>
<g id="a_Node000002"><a xlink:href="../../dc/d14/classml_1_1model_1_1_c_event_rate_model.html#a859435dc2079e62468fe75e069353edf" target="_top" xlink:title=" ">
<polygon fill="white" stroke="#666666" points="145,-79.5 0,-79.5 0,-49 145,-49 145,-79.5"/>
<text text-anchor="start" x="8" y="-66" font-family="Helvetica,sans-Serif" font-size="10.00">ml::model::CEventRateModel</text>
<text text-anchor="middle" x="72.5" y="-54.75" font-family="Helvetica,sans-Serif" font-size="10.00">::computeProbability</text>
</a>
</g>
</g>
<!-- Node1&#45;&gt;Node2 -->
<g id="edge1_Node000001_Node000002" class="edge">
<title>Node1&#45;&gt;Node2</title>
<g id="a_edge1_Node000001_Node000002"><a xlink:title=" ">
<path fill="none" stroke="#63b8ff" d="M169.41,-50.86C161.35,-51.98 153.22,-53.12 145.29,-54.22"/>
<polygon fill="#63b8ff" stroke="#63b8ff" points="169.81,-54.33 179.23,-49.48 168.84,-47.4 169.81,-54.33"/>
</a>
</g>
</g>
<!-- Node3 -->
<g id="Node000003" class="node">
<title>Node3</title>
<g id="a_Node000003"><a xlink:href="../../dc/d14/classml_1_1model_1_1_c_event_rate_model.html#a6ab02a238c5ad4ffdcd811c520ce1a03" target="_top" xlink:title=" ">
<polygon fill="white" stroke="#666666" points="145,-30.5 0,-30.5 0,0 145,0 145,-30.5"/>
<text text-anchor="start" x="8" y="-17" font-family="Helvetica,sans-Serif" font-size="10.00">ml::model::CEventRateModel</text>
<text text-anchor="middle" x="72.5" y="-5.75" font-family="Helvetica,sans-Serif" font-size="10.00">::fill</text>
</a>
</g>
</g>
<!-- Node1&#45;&gt;Node3 -->
<g id="edge2_Node000001_Node000003" class="edge">
<title>Node1&#45;&gt;Node3</title>
<g id="a_edge2_Node000001_Node000003"><a xlink:title=" ">
<path fill="none" stroke="#63b8ff" d="M169.41,-28.11C161.35,-27.03 153.22,-25.94 145.29,-24.88"/>
<polygon fill="#63b8ff" stroke="#63b8ff" points="168.85,-31.57 179.23,-29.43 169.78,-24.63 168.85,-31.57"/>
</a>
</g>
</g>
</g>
</svg>
