<?xml version="1.0" encoding="UTF-8" standalone="no"?>
<!DOCTYPE svg PUBLIC "-//W3C//DTD SVG 1.1//EN"
 "http://www.w3.org/Graphics/SVG/1.1/DTD/svg11.dtd">
<!-- Generated by graphviz version 10.0.1 (20240210.2158)
 -->
<!-- Title: ml::model::CEventRateModel::fill Pages: 1 -->
<svg width="1238pt" height="769pt"
 viewBox="0.00 0.00 1238.25 768.50" xmlns="http://www.w3.org/2000/svg" xmlns:xlink="http://www.w3.org/1999/xlink">
<g id="graph0" class="graph" transform="scale(1 1) rotate(0) translate(4 764.5)">
<title>ml::model::CEventRateModel::fill</title>
<!-- Node1 -->
<g id="Node000001" class="node">
<title>Node1</title>
<g id="a_Node000001"><a xlink:title=" ">
<polygon fill="#999999" stroke="#666666" points="145,-398.5 0,-398.5 0,-368 145,-368 145,-398.5"/>
<text text-anchor="start" x="8" y="-385" font-family="Helvetica,sans-Serif" font-size="10.00">ml::model::CEventRateModel</text>
<text text-anchor="middle" x="72.5" y="-373.75" font-family="Helvetica,sans-Serif" font-size="10.00">::fill</text>
</a>
</g>
</g>
<!-- Node2 -->
<g id="Node000002" class="node">
<title>Node2</title>
<g id="a_Node000002"><a xlink:href="../../d7/d92/classml_1_1maths_1_1common_1_1_c_model.html#a723df93e21eba7a5aad0bcaa6ce05a3f" target="_top" xlink:title="Get the correlated time series identifier pairs if any.">
<polygon fill="white" stroke="#666666" points="508.5,-760.5 399.5,-760.5 399.5,-730 508.5,-730 508.5,-760.5"/>
<text text-anchor="start" x="407.5" y="-747" font-family="Helvetica,sans-Serif" font-size="10.00">ml::maths::common::</text>
<text text-anchor="middle" x="454" y="-735.75" font-family="Helvetica,sans-Serif" font-size="10.00">CModel::correlates</text>
</a>
</g>
</g>
<!-- Node1&#45;&gt;Node2 -->
<g id="edge1_Node000001_Node000002" class="edge">
<title>Node1&#45;&gt;Node2</title>
<g id="a_edge1_Node000001_Node000002"><a xlink:title=" ">
<path fill="none" stroke="#63b8ff" d="M73.27,-398.68C73.37,-451.76 81.49,-628.03 181,-710.25 238.5,-757.76 327.48,-760.23 387.88,-754.99"/>
<polygon fill="#63b8ff" stroke="#63b8ff" points="388.07,-758.49 397.68,-754.04 387.39,-751.52 388.07,-758.49"/>
</a>
</g>
</g>
<!-- Node3 -->
<g id="Node000003" class="node">
<title>Node3</title>
<g id="a_Node000003"><a xlink:href="../../dc/d14/classml_1_1model_1_1_c_event_rate_model.html#a10cd03277a27c2747d9427e09e762d61" target="_top" xlink:title=" ">
<polygon fill="white" stroke="#666666" points="335,-668.5 190,-668.5 190,-638 335,-638 335,-668.5"/>
<text text-anchor="start" x="198" y="-655" font-family="Helvetica,sans-Serif" font-size="10.00">ml::model::CEventRateModel</text>
<text text-anchor="middle" x="262.5" y="-643.75" font-family="Helvetica,sans-Serif" font-size="10.00">::correlates</text>
</a>
</g>
</g>
<!-- Node1&#45;&gt;Node3 -->
<g id="edge2_Node000001_Node000003" class="edge">
<title>Node1&#45;&gt;Node3</title>
<g id="a_edge2_Node000001_Node000003"><a xlink:title=" ">
<path fill="none" stroke="#63b8ff" d="M76.11,-398.96C83.98,-441.4 111.35,-559.56 181,-624.25 184.06,-627.1 187.43,-629.67 190.99,-631.99"/>
<polygon fill="#63b8ff" stroke="#63b8ff" points="189.07,-634.92 199.49,-636.82 192.53,-628.84 189.07,-634.92"/>
</a>
</g>
</g>
<!-- Node5 -->
<g id="Node000005" class="node">
<title>Node5</title>
<g id="a_Node000005"><a xlink:href="../../dc/d14/classml_1_1model_1_1_c_event_rate_model.html#a2f61313330f61da9c0d9493c0c02a720" target="_top" xlink:title=" ">
<polygon fill="white" stroke="#666666" points="526.5,-711.5 381.5,-711.5 381.5,-681 526.5,-681 526.5,-711.5"/>
<text text-anchor="start" x="389.5" y="-698" font-family="Helvetica,sans-Serif" font-size="10.00">ml::model::CEventRateModel</text>
<text text-anchor="middle" x="454" y="-686.75" font-family="Helvetica,sans-Serif" font-size="10.00">::featureData</text>
</a>
</g>
</g>
<!-- Node1&#45;&gt;Node5 -->
<g id="edge22_Node000001_Node000005" class="edge">
<title>Node1&#45;&gt;Node5</title>
<g id="a_edge22_Node000001_Node000005"><a xlink:title=" ">
<path fill="none" stroke="#63b8ff" d="M73.73,-398.75C75.38,-448.86 88.06,-607.33 181,-677.25 234.39,-717.42 311.6,-719.07 370.13,-712.46"/>
<polygon fill="#63b8ff" stroke="#63b8ff" points="370.2,-715.98 379.7,-711.28 369.34,-709.03 370.2,-715.98"/>
</a>
</g>
</g>
<!-- Node14 -->
<g id="Node000014" class="node">
<title>Node14</title>
<g id="a_Node000014"><a xlink:href="../../d1/d04/classml_1_1model_1_1_c_individual_model.html#a5f74bd0ea087594ff5a842bcd6950874" target="_top" xlink:title="Get a read only model corresponding to feature of the person pid.">
<polygon fill="white" stroke="#666666" points="523.88,-607.5 384.12,-607.5 384.12,-577 523.88,-577 523.88,-607.5"/>
<text text-anchor="start" x="392.12" y="-594" font-family="Helvetica,sans-Serif" font-size="10.00">ml::model::CIndividualModel</text>
<text text-anchor="middle" x="454" y="-582.75" font-family="Helvetica,sans-Serif" font-size="10.00">::model</text>
</a>
</g>
</g>
<!-- Node1&#45;&gt;Node14 -->
<g id="edge28_Node000001_Node000014" class="edge">
<title>Node1&#45;&gt;Node14</title>
<g id="a_edge28_Node000001_Node000014"><a xlink:title=" ">
<path fill="none" stroke="#63b8ff" d="M76.02,-398.96C83.48,-439.5 109.56,-547.57 181,-591.25 242.51,-628.85 327.38,-621.96 385.88,-610.27"/>
<polygon fill="#63b8ff" stroke="#63b8ff" points="386.31,-613.76 395.37,-608.28 384.87,-606.91 386.31,-613.76"/>
</a>
</g>
</g>
<!-- Node15 -->
<g id="Node000015" class="node">
<title>Node15</title>
<g id="a_Node000015"><a xlink:href="../../da/d88/classml_1_1model_1_1_c_anomaly_detector_model.html#ac686c4aa0380892a80c605adbdf36842" target="_top" xlink:title="Get the global configuration parameters.">
<polygon fill="white" stroke="#666666" points="528,-558.5 380,-558.5 380,-528 528,-528 528,-558.5"/>
<text text-anchor="start" x="388" y="-545" font-family="Helvetica,sans-Serif" font-size="10.00">ml::model::CAnomalyDetector</text>
<text text-anchor="middle" x="454" y="-533.75" font-family="Helvetica,sans-Serif" font-size="10.00">Model::params</text>
</a>
</g>
</g>
<!-- Node1&#45;&gt;Node15 -->
<g id="edge30_Node000001_Node000015" class="edge">
<title>Node1&#45;&gt;Node15</title>
<g id="a_edge30_Node000001_Node000015"><a xlink:title=" ">
<path fill="none" stroke="#63b8ff" d="M82.08,-398.75C97.81,-425.52 134.02,-479.97 181,-505.25 212.62,-522.26 301.18,-532.41 368.74,-537.88"/>
<polygon fill="#63b8ff" stroke="#63b8ff" points="368.07,-541.34 378.31,-538.64 368.61,-534.36 368.07,-541.34"/>
</a>
</g>
</g>
<!-- Node16 -->
<g id="Node000016" class="node">
<title>Node16</title>
<g id="a_Node000016"><a xlink:href="../../dc/d14/classml_1_1model_1_1_c_event_rate_model.html#a64f199858ad518924390bf1031c8cc7f" target="_top" xlink:title="Get the interim corrections of the current bucket.">
<polygon fill="white" stroke="#666666" points="344,-496.5 181,-496.5 181,-466 344,-466 344,-496.5"/>
<text text-anchor="start" x="189" y="-483" font-family="Helvetica,sans-Serif" font-size="10.00">ml::model::CEventRateModel</text>
<text text-anchor="middle" x="262.5" y="-471.75" font-family="Helvetica,sans-Serif" font-size="10.00">::currentBucketInterimCorrections</text>
</a>
</g>
</g>
<!-- Node1&#45;&gt;Node16 -->
<g id="edge20_Node000001_Node000016" class="edge">
<title>Node1&#45;&gt;Node16</title>
<g id="a_edge20_Node000001_Node000016"><a xlink:title=" ">
<path fill="none" stroke="#63b8ff" d="M92.64,-398.84C113.35,-415.06 147.87,-440.29 181,-456.25 184.89,-458.13 188.96,-459.9 193.11,-461.57"/>
<polygon fill="#63b8ff" stroke="#63b8ff" points="191.53,-464.72 202.12,-464.99 194.01,-458.17 191.53,-464.72"/>
</a>
</g>
</g>
<!-- Node17 -->
<g id="Node000017" class="node">
<title>Node17</title>
<g id="a_Node000017"><a xlink:href="../../da/d88/classml_1_1model_1_1_c_anomaly_detector_model.html#a8156c7269ff8ea6a19dfeef12c5a1bb1" target="_top" xlink:title="Get the time series data gatherer.">
<polygon fill="white" stroke="#666666" points="336.5,-447.5 188.5,-447.5 188.5,-417 336.5,-417 336.5,-447.5"/>
<text text-anchor="start" x="196.5" y="-434" font-family="Helvetica,sans-Serif" font-size="10.00">ml::model::CAnomalyDetector</text>
<text text-anchor="middle" x="262.5" y="-422.75" font-family="Helvetica,sans-Serif" font-size="10.00">Model::dataGatherer</text>
</a>
</g>
</g>
<!-- Node1&#45;&gt;Node17 -->
<g id="edge21_Node000001_Node000017" class="edge">
<title>Node1&#45;&gt;Node17</title>
<g id="a_edge21_Node000001_Node000017"><a xlink:title=" ">
<path fill="none" stroke="#63b8ff" d="M133.76,-398.96C151.72,-403.64 171.58,-408.81 190.18,-413.66"/>
<polygon fill="#63b8ff" stroke="#63b8ff" points="189.23,-417.03 199.79,-416.17 191,-410.26 189.23,-417.03"/>
</a>
</g>
</g>
<!-- Node18 -->
<g id="Node000018" class="node">
<title>Node18</title>
<g id="a_Node000018"><a xlink:href="../../d1/d04/classml_1_1model_1_1_c_individual_model.html#a8f8c91fb6478936a720c0454122f1137" target="_top" xlink:title="Get the first time each person was seen.">
<polygon fill="white" stroke="#666666" points="332.38,-398.5 192.62,-398.5 192.62,-368 332.38,-368 332.38,-398.5"/>
<text text-anchor="start" x="200.62" y="-385" font-family="Helvetica,sans-Serif" font-size="10.00">ml::model::CIndividualModel</text>
<text text-anchor="middle" x="262.5" y="-373.75" font-family="Helvetica,sans-Serif" font-size="10.00">::firstBucketTimes</text>
</a>
</g>
</g>
<!-- Node1&#45;&gt;Node18 -->
<g id="edge23_Node000001_Node000018" class="edge">
<title>Node1&#45;&gt;Node18</title>
<g id="a_edge23_Node000001_Node000018"><a xlink:title=" ">
<path fill="none" stroke="#63b8ff" d="M145.38,-383.25C157.01,-383.25 169.11,-383.25 180.93,-383.25"/>
<polygon fill="#63b8ff" stroke="#63b8ff" points="180.63,-386.75 190.63,-383.25 180.63,-379.75 180.63,-386.75"/>
</a>
</g>
</g>
<!-- Node19 -->
<g id="Node000019" class="node">
<title>Node19</title>
<g id="a_Node000019"><a xlink:href="../../da/d88/classml_1_1model_1_1_c_anomaly_detector_model.html#a7fadcee4f4940693cb21616f1121753d" target="_top" xlink:title=" ">
<polygon fill="white" stroke="#666666" points="336.5,-582.5 188.5,-582.5 188.5,-552 336.5,-552 336.5,-582.5"/>
<text text-anchor="start" x="196.5" y="-569" font-family="Helvetica,sans-Serif" font-size="10.00">ml::model::CAnomalyDetector</text>
<text text-anchor="middle" x="262.5" y="-557.75" font-family="Helvetica,sans-Serif" font-size="10.00">Model::initialCountWeight</text>
</a>
</g>
</g>
<!-- Node1&#45;&gt;Node19 -->
<g id="edge24_Node000001_Node000019" class="edge">
<title>Node1&#45;&gt;Node19</title>
<g id="a_edge24_Node000001_Node000019"><a xlink:title=" ">
<path fill="none" stroke="#63b8ff" d="M80.28,-398.83C94.49,-429.78 130.36,-499.34 181,-538.25 185.02,-541.34 189.39,-544.12 193.96,-546.61"/>
<polygon fill="#63b8ff" stroke="#63b8ff" points="192.33,-549.71 202.85,-550.98 195.41,-543.43 192.33,-549.71"/>
</a>
</g>
</g>
<!-- Node20 -->
<g id="Node000020" class="node">
<title>Node20</title>
<g id="a_Node000020"><a xlink:href="../../dc/d14/classml_1_1model_1_1_c_event_rate_model.html#aa09c77e05cb1488db95b077ba4e6ee1c" target="_top" xlink:title="Get the object which calculates corrections for interim buckets.">
<polygon fill="white" stroke="#666666" points="335,-349.5 190,-349.5 190,-319 335,-319 335,-349.5"/>
<text text-anchor="start" x="198" y="-336" font-family="Helvetica,sans-Serif" font-size="10.00">ml::model::CEventRateModel</text>
<text text-anchor="middle" x="262.5" y="-324.75" font-family="Helvetica,sans-Serif" font-size="10.00">::interimValueCorrector</text>
</a>
</g>
</g>
<!-- Node1&#45;&gt;Node20 -->
<g id="edge26_Node000001_Node000020" class="edge">
<title>Node1&#45;&gt;Node20</title>
<g id="a_edge26_Node000001_Node000020"><a xlink:title=" ">
<path fill="none" stroke="#63b8ff" d="M133.76,-367.54C151.72,-362.86 171.58,-357.69 190.18,-352.84"/>
<polygon fill="#63b8ff" stroke="#63b8ff" points="191,-356.24 199.79,-350.33 189.23,-349.47 191,-356.24"/>
</a>
</g>
</g>
<!-- Node21 -->
<g id="Node000021" class="node">
<title>Node21</title>
<g id="a_Node000021"><a xlink:href="../../db/dc5/namespaceml_1_1core.html#a93bcdc8ec5834bac60be504a29341a09" target="_top" xlink:title=" ">
<polygon fill="white" stroke="#666666" points="316.25,-300.88 208.75,-300.88 208.75,-281.62 316.25,-281.62 316.25,-300.88"/>
<text text-anchor="middle" x="262.5" y="-287.38" font-family="Helvetica,sans-Serif" font-size="10.00">ml::core::make_triple</text>
</a>
</g>
</g>
<!-- Node1&#45;&gt;Node21 -->
<g id="edge27_Node000001_Node000021" class="edge">
<title>Node1&#45;&gt;Node21</title>
<g id="a_edge27_Node000001_Node000021"><a xlink:title=" ">
<path fill="none" stroke="#63b8ff" d="M92.05,-367.51C112.54,-350.91 147.13,-325.14 181,-310.25 186.29,-307.93 191.9,-305.86 197.61,-304.04"/>
<polygon fill="#63b8ff" stroke="#63b8ff" points="198.56,-307.4 207.18,-301.24 196.6,-300.69 198.56,-307.4"/>
</a>
</g>
</g>
<!-- Node22 -->
<g id="Node000022" class="node">
<title>Node22</title>
<g id="a_Node000022"><a xlink:href="../../df/d9c/namespaceml_1_1model__t.html#a1f18453bbc8ddb255e00279217d2fb73" target="_top" xlink:title="Offset count features so that their range starts at zero.">
<polygon fill="white" stroke="#666666" points="324.5,-263.5 200.5,-263.5 200.5,-233 324.5,-233 324.5,-263.5"/>
<text text-anchor="start" x="208.5" y="-250" font-family="Helvetica,sans-Serif" font-size="10.00">ml::model_t::offsetCount</text>
<text text-anchor="middle" x="262.5" y="-238.75" font-family="Helvetica,sans-Serif" font-size="10.00">ToZero</text>
</a>
</g>
</g>
<!-- Node1&#45;&gt;Node22 -->
<g id="edge29_Node000001_Node000022" class="edge">
<title>Node1&#45;&gt;Node22</title>
<g id="a_edge29_Node000001_Node000022"><a xlink:title=" ">
<path fill="none" stroke="#63b8ff" d="M84.5,-367.53C102.13,-343.5 139.03,-297.73 181,-272.25 183.8,-270.55 186.74,-268.96 189.76,-267.48"/>
<polygon fill="#63b8ff" stroke="#63b8ff" points="191.15,-270.69 198.89,-263.45 188.33,-264.28 191.15,-270.69"/>
</a>
</g>
</g>
<!-- Node23 -->
<g id="Node000023" class="node">
<title>Node23</title>
<g id="a_Node000023"><a xlink:href="../../df/d9c/namespaceml_1_1model__t.html#a9bec5dc001991ededfd1236f79f6ee55" target="_top" xlink:title="Get the type of probability calculation to use for feature.">
<polygon fill="white" stroke="#666666" points="321.12,-214.5 203.88,-214.5 203.88,-184 321.12,-184 321.12,-214.5"/>
<text text-anchor="start" x="211.88" y="-201" font-family="Helvetica,sans-Serif" font-size="10.00">ml::model_t::probability</text>
<text text-anchor="middle" x="262.5" y="-189.75" font-family="Helvetica,sans-Serif" font-size="10.00">Calculation</text>
</a>
</g>
</g>
<!-- Node1&#45;&gt;Node23 -->
<g id="edge31_Node000001_Node000023" class="edge">
<title>Node1&#45;&gt;Node23</title>
<g id="a_edge31_Node000001_Node000023"><a xlink:title=" ">
<path fill="none" stroke="#63b8ff" d="M79.81,-367.56C93.41,-335.7 128.56,-263.18 181,-224.25 184.83,-221.4 189,-218.88 193.34,-216.63"/>
<polygon fill="#63b8ff" stroke="#63b8ff" points="194.72,-219.85 202.38,-212.53 191.82,-213.48 194.72,-219.85"/>
</a>
</g>
</g>
<!-- Node24 -->
<g id="Node000024" class="node">
<title>Node24</title>
<g id="a_Node000024"><a xlink:href="../../df/d9c/namespaceml_1_1model__t.html#a853aa9a4b9f915b3ae6f919dc41a3941" target="_top" xlink:title=" ">
<polygon fill="white" stroke="#666666" points="331.25,-165.5 193.75,-165.5 193.75,-135 331.25,-135 331.25,-165.5"/>
<text text-anchor="start" x="201.75" y="-152" font-family="Helvetica,sans-Serif" font-size="10.00">ml::model_t::requiresInterim</text>
<text text-anchor="middle" x="262.5" y="-140.75" font-family="Helvetica,sans-Serif" font-size="10.00">ResultAdjustment</text>
</a>
</g>
</g>
<!-- Node1&#45;&gt;Node24 -->
<g id="edge32_Node000001_Node000024" class="edge">
<title>Node1&#45;&gt;Node24</title>
<g id="a_edge32_Node000001_Node000024"><a xlink:title=" ">
<path fill="none" stroke="#63b8ff" d="M77.14,-367.58C86.92,-328.97 117.44,-228.51 181,-175.25 182.47,-174.02 183.99,-172.85 185.57,-171.74"/>
<polygon fill="#63b8ff" stroke="#63b8ff" points="187.03,-174.95 193.77,-166.78 183.41,-168.96 187.03,-174.95"/>
</a>
</g>
</g>
<!-- Node25 -->
<g id="Node000025" class="node">
<title>Node25</title>
<g id="a_Node000025"><a xlink:href="../../df/d9c/namespaceml_1_1model__t.html#a9dbb1ae4b63416ba57ecfbef586163c8" target="_top" xlink:title=" ">
<polygon fill="white" stroke="#666666" points="325.62,-116.88 199.38,-116.88 199.38,-97.62 325.62,-97.62 325.62,-116.88"/>
<text text-anchor="middle" x="262.5" y="-103.38" font-family="Helvetica,sans-Serif" font-size="10.00">ml::model_t::sampleTime</text>
</a>
</g>
</g>
<!-- Node1&#45;&gt;Node25 -->
<g id="edge33_Node000001_Node000025" class="edge">
<title>Node1&#45;&gt;Node25</title>
<g id="a_edge33_Node000001_Node000025"><a xlink:title=" ">
<path fill="none" stroke="#63b8ff" d="M75.16,-367.7C80.82,-322.79 103.53,-191.93 181,-126.25 183.52,-124.12 186.23,-122.21 189.08,-120.52"/>
<polygon fill="#63b8ff" stroke="#63b8ff" points="190.47,-123.74 197.89,-116.17 187.37,-117.46 190.47,-123.74"/>
</a>
</g>
</g>
<!-- Node26 -->
<g id="Node000026" class="node">
<title>Node26</title>
<g id="a_Node000026"><a xlink:href="../../d6/d52/namespaceml_1_1maths__t.html#a12dee901580c43334316b37a5d113eb3" target="_top" xlink:title="Get a weights array with seasonal variance scale weight.">
<polygon fill="white" stroke="#666666" points="337.62,-79.5 187.38,-79.5 187.38,-49 337.62,-49 337.62,-79.5"/>
<text text-anchor="start" x="195.38" y="-66" font-family="Helvetica,sans-Serif" font-size="10.00">ml::maths_t::seasonalVariance</text>
<text text-anchor="middle" x="262.5" y="-54.75" font-family="Helvetica,sans-Serif" font-size="10.00">ScaleWeight</text>
</a>
</g>
</g>
<!-- Node1&#45;&gt;Node26 -->
<g id="edge34_Node000001_Node000026" class="edge">
<title>Node1&#45;&gt;Node26</title>
<g id="a_edge34_Node000001_Node000026"><a xlink:title=" ">
<path fill="none" stroke="#63b8ff" d="M74.43,-367.82C78.19,-319.22 96.49,-167.86 181,-88.25 181.64,-87.65 182.29,-87.06 182.95,-86.49"/>
<polygon fill="#63b8ff" stroke="#63b8ff" points="184.91,-89.4 191.03,-80.75 180.85,-83.69 184.91,-89.4"/>
</a>
</g>
</g>
<!-- Node28 -->
<g id="Node000028" class="node">
<title>Node28</title>
<g id="a_Node000028"><a xlink:href="../../d7/d92/classml_1_1maths_1_1common_1_1_c_model.html#aa8472dde5e74067b20c594ac2b2fe671" target="_top" xlink:title="Fill in the seasonal variance scale at time.">
<polygon fill="white" stroke="#666666" points="324.88,-30.5 200.12,-30.5 200.12,0 324.88,0 324.88,-30.5"/>
<text text-anchor="start" x="208.12" y="-17" font-family="Helvetica,sans-Serif" font-size="10.00">ml::maths::common::</text>
<text text-anchor="middle" x="262.5" y="-5.75" font-family="Helvetica,sans-Serif" font-size="10.00">CModel::seasonalWeight</text>
</a>
</g>
</g>
<!-- Node1&#45;&gt;Node28 -->
<g id="edge36_Node000001_Node000028" class="edge">
<title>Node1&#45;&gt;Node28</title>
<g id="a_edge36_Node000001_Node000028"><a xlink:title=" ">
<path fill="none" stroke="#63b8ff" d="M73.56,-367.72C74.64,-314.18 85.56,-135.44 181,-40.25 183.78,-37.48 186.86,-35.01 190.14,-32.82"/>
<polygon fill="#63b8ff" stroke="#63b8ff" points="191.57,-36.04 198.56,-28.08 188.13,-29.94 191.57,-36.04"/>
</a>
</g>
</g>
<!-- Node3&#45;&gt;Node2 -->
<g id="edge3_Node000003_Node000002" class="edge">
<title>Node3&#45;&gt;Node2</title>
<g id="a_edge3_Node000003_Node000002"><a xlink:title=" ">
<path fill="none" stroke="#63b8ff" d="M287.33,-668.77C310.38,-683.34 346.64,-705.12 380,-720.25 384,-722.07 388.18,-723.83 392.42,-725.52"/>
<polygon fill="#63b8ff" stroke="#63b8ff" points="391.02,-728.73 401.61,-729.03 393.51,-722.19 391.02,-728.73"/>
</a>
</g>
</g>
<!-- Node4 -->
<g id="Node000004" class="node">
<title>Node4</title>
<g id="a_Node000004"><a xlink:href="../../df/d9c/namespaceml_1_1model__t.html#a9ac31e9688577d75c839165d8ac1b667" target="_top" xlink:title="Get the dimension of the feature feature.">
<polygon fill="white" stroke="#666666" points="512.62,-662.88 395.38,-662.88 395.38,-643.62 512.62,-643.62 512.62,-662.88"/>
<text text-anchor="middle" x="454" y="-649.38" font-family="Helvetica,sans-Serif" font-size="10.00">ml::model_t::dimension</text>
</a>
</g>
</g>
<!-- Node3&#45;&gt;Node4 -->
<g id="edge4_Node000003_Node000004" class="edge">
<title>Node3&#45;&gt;Node4</title>
<g id="a_edge4_Node000003_Node000004"><a xlink:title=" ">
<path fill="none" stroke="#63b8ff" d="M335.41,-653.25C351.25,-653.25 368,-653.25 383.73,-653.25"/>
<polygon fill="#63b8ff" stroke="#63b8ff" points="383.47,-656.75 393.47,-653.25 383.47,-649.75 383.47,-656.75"/>
</a>
</g>
</g>
<!-- Node3&#45;&gt;Node5 -->
<g id="edge5_Node000003_Node000005" class="edge">
<title>Node3&#45;&gt;Node5</title>
<g id="a_edge5_Node000003_Node000005"><a xlink:title=" ">
<path fill="none" stroke="#63b8ff" d="M332.72,-668.96C345.69,-671.9 359.34,-675 372.62,-678.01"/>
<polygon fill="#63b8ff" stroke="#63b8ff" points="371.65,-681.38 382.18,-680.18 373.2,-674.55 371.65,-681.38"/>
</a>
</g>
</g>
<!-- Node3&#45;&gt;Node14 -->
<g id="edge17_Node000003_Node000014" class="edge">
<title>Node3&#45;&gt;Node14</title>
<g id="a_edge17_Node000003_Node000014"><a xlink:title=" ">
<path fill="none" stroke="#63b8ff" d="M312.3,-637.54C337.06,-629.57 367.34,-619.83 393.45,-611.42"/>
<polygon fill="#63b8ff" stroke="#63b8ff" points="394.48,-614.77 402.92,-608.37 392.33,-608.1 394.48,-614.77"/>
</a>
</g>
</g>
<!-- Node3&#45;&gt;Node15 -->
<g id="edge19_Node000003_Node000015" class="edge">
<title>Node3&#45;&gt;Node15</title>
<g id="a_edge19_Node000003_Node000015"><a xlink:title=" ">
<path fill="none" stroke="#63b8ff" d="M283.38,-637.62C311.09,-616.03 360.13,-578.6 380,-568.25 383.27,-566.55 386.68,-564.92 390.16,-563.38"/>
<polygon fill="#63b8ff" stroke="#63b8ff" points="391.45,-566.63 399.35,-559.57 388.77,-560.17 391.45,-566.63"/>
</a>
</g>
</g>
<!-- Node6 -->
<g id="Node000006" class="node">
<title>Node6</title>
<g id="a_Node000006"><a xlink:href="../../d1/d04/classml_1_1model_1_1_c_individual_model.html#a136ad554666ee7f01783c3a2832bf828" target="_top" xlink:title=" ">
<polygon fill="white" stroke="#666666" points="703.75,-711.5 564,-711.5 564,-681 703.75,-681 703.75,-711.5"/>
<text text-anchor="start" x="572" y="-698" font-family="Helvetica,sans-Serif" font-size="10.00">ml::model::CIndividualModel</text>
<text text-anchor="middle" x="633.88" y="-686.75" font-family="Helvetica,sans-Serif" font-size="10.00">::featureData</text>
</a>
</g>
</g>
<!-- Node5&#45;&gt;Node6 -->
<g id="edge6_Node000005_Node000006" class="edge">
<title>Node5&#45;&gt;Node6</title>
<g id="a_edge6_Node000005_Node000006"><a xlink:title=" ">
<path fill="none" stroke="#63b8ff" d="M526.84,-696.25C535.19,-696.25 543.75,-696.25 552.21,-696.25"/>
<polygon fill="#63b8ff" stroke="#63b8ff" points="552.14,-699.75 562.14,-696.25 552.14,-692.75 552.14,-699.75"/>
</a>
</g>
</g>
<!-- Node6&#45;&gt;Node6 -->
<g id="edge11_Node000006_Node000006" class="edge">
<title>Node6&#45;&gt;Node6</title>
<g id="a_edge11_Node000006_Node000006"><a xlink:title=" ">
<path fill="none" stroke="#63b8ff" d="M602.73,-711.99C596.38,-721.06 606.76,-729.5 633.88,-729.5 648.7,-729.5 658.53,-726.97 663.35,-723.2"/>
<polygon fill="#63b8ff" stroke="#63b8ff" points="666.78,-723.89 664.8,-713.48 659.86,-722.86 666.78,-723.89"/>
</a>
</g>
</g>
<!-- Node7 -->
<g id="Node000007" class="node">
<title>Node7</title>
<g id="a_Node000007"><a xlink:href="../../d1/d04/classml_1_1model_1_1_c_individual_model.html#a130ae59445e9fead1a64589376ca5c22" target="_top" xlink:title="Check if bucket statistics are available for the specified time.">
<polygon fill="white" stroke="#666666" points="879.5,-711.5 739.75,-711.5 739.75,-681 879.5,-681 879.5,-711.5"/>
<text text-anchor="start" x="747.75" y="-698" font-family="Helvetica,sans-Serif" font-size="10.00">ml::model::CIndividualModel</text>
<text text-anchor="middle" x="809.62" y="-686.75" font-family="Helvetica,sans-Serif" font-size="10.00">::bucketStatsAvailable</text>
</a>
</g>
</g>
<!-- Node6&#45;&gt;Node7 -->
<g id="edge7_Node000006_Node000007" class="edge">
<title>Node6&#45;&gt;Node7</title>
<g id="a_edge7_Node000006_Node000007"><a xlink:title=" ">
<path fill="none" stroke="#63b8ff" d="M704.04,-696.25C711.96,-696.25 720.07,-696.25 728.12,-696.25"/>
<polygon fill="#63b8ff" stroke="#63b8ff" points="727.9,-699.75 737.9,-696.25 727.9,-692.75 727.9,-699.75"/>
</a>
</g>
</g>
<!-- Node11 -->
<g id="Node000011" class="node">
<title>Node11</title>
<g id="a_Node000011"><a xlink:href="../../df/d9c/namespaceml_1_1model__t.html#ada583ac75540d0fcaac3a90317bafd3e" target="_top" xlink:title="Get a string description of a model type.">
<polygon fill="white" stroke="#666666" points="855.5,-662.88 763.75,-662.88 763.75,-643.62 855.5,-643.62 855.5,-662.88"/>
<text text-anchor="middle" x="809.62" y="-649.38" font-family="Helvetica,sans-Serif" font-size="10.00">ml::model_t::print</text>
</a>
</g>
</g>
<!-- Node6&#45;&gt;Node11 -->
<g id="edge12_Node000006_Node000011" class="edge">
<title>Node6&#45;&gt;Node11</title>
<g id="a_edge12_Node000006_Node000011"><a xlink:title=" ">
<path fill="none" stroke="#63b8ff" d="M698.09,-680.6C717.38,-675.83 738.35,-670.64 756.79,-666.08"/>
<polygon fill="#63b8ff" stroke="#63b8ff" points="757.57,-669.49 766.43,-663.69 755.88,-662.7 757.57,-669.49"/>
</a>
</g>
</g>
<!-- Node13 -->
<g id="Node000013" class="node">
<title>Node13</title>
<g id="a_Node000013"><a xlink:href="../../d1/d04/classml_1_1model_1_1_c_individual_model.html#aed340fb88b07676ae12a60f9d1f9d8c8" target="_top" xlink:title="Print the current bucketing interval.">
<polygon fill="white" stroke="#666666" points="879.5,-760.5 739.75,-760.5 739.75,-730 879.5,-730 879.5,-760.5"/>
<text text-anchor="start" x="747.75" y="-747" font-family="Helvetica,sans-Serif" font-size="10.00">ml::model::CIndividualModel</text>
<text text-anchor="middle" x="809.62" y="-735.75" font-family="Helvetica,sans-Serif" font-size="10.00">::printCurrentBucket</text>
</a>
</g>
</g>
<!-- Node6&#45;&gt;Node13 -->
<g id="edge14_Node000006_Node000013" class="edge">
<title>Node6&#45;&gt;Node13</title>
<g id="a_edge14_Node000006_Node000013"><a xlink:title=" ">
<path fill="none" stroke="#63b8ff" d="M690.33,-711.89C706.7,-716.51 724.8,-721.61 741.81,-726.41"/>
<polygon fill="#63b8ff" stroke="#63b8ff" points="740.77,-729.75 751.35,-729.1 742.67,-723.01 740.77,-729.75"/>
</a>
</g>
</g>
<!-- Node8 -->
<g id="Node000008" class="node">
<title>Node8</title>
<g id="a_Node000008"><a xlink:href="../../da/d88/classml_1_1model_1_1_c_anomaly_detector_model.html#aba56af5c27a1bb113941c81977171f5e" target="_top" xlink:title="Get the length of the time interval used to aggregate data.">
<polygon fill="white" stroke="#666666" points="1063.5,-711.5 915.5,-711.5 915.5,-681 1063.5,-681 1063.5,-711.5"/>
<text text-anchor="start" x="923.5" y="-698" font-family="Helvetica,sans-Serif" font-size="10.00">ml::model::CAnomalyDetector</text>
<text text-anchor="middle" x="989.5" y="-686.75" font-family="Helvetica,sans-Serif" font-size="10.00">Model::bucketLength</text>
</a>
</g>
</g>
<!-- Node7&#45;&gt;Node8 -->
<g id="edge8_Node000007_Node000008" class="edge">
<title>Node7&#45;&gt;Node8</title>
<g id="a_edge8_Node000007_Node000008"><a xlink:title=" ">
<path fill="none" stroke="#63b8ff" d="M879.91,-696.25C887.8,-696.25 895.9,-696.25 903.96,-696.25"/>
<polygon fill="#63b8ff" stroke="#63b8ff" points="903.78,-699.75 913.78,-696.25 903.78,-692.75 903.78,-699.75"/>
</a>
</g>
</g>
<!-- Node10 -->
<g id="Node000010" class="node">
<title>Node10</title>
<g id="a_Node000010"><a xlink:href="../../d1/d04/classml_1_1model_1_1_c_individual_model.html#a4a4c3b8c1b879528e4356799a5bca3b9" target="_top" xlink:title="Get the start time of the current bucket.">
<polygon fill="white" stroke="#666666" points="1059.38,-760.5 919.62,-760.5 919.62,-730 1059.38,-730 1059.38,-760.5"/>
<text text-anchor="start" x="927.62" y="-747" font-family="Helvetica,sans-Serif" font-size="10.00">ml::model::CIndividualModel</text>
<text text-anchor="middle" x="989.5" y="-735.75" font-family="Helvetica,sans-Serif" font-size="10.00">::currentBucketStartTime</text>
</a>
</g>
</g>
<!-- Node7&#45;&gt;Node10 -->
<g id="edge10_Node000007_Node000010" class="edge">
<title>Node7&#45;&gt;Node10</title>
<g id="a_edge10_Node000007_Node000010"><a xlink:title=" ">
<path fill="none" stroke="#63b8ff" d="M867.39,-711.89C884.32,-716.55 903.04,-721.71 920.6,-726.54"/>
<polygon fill="#63b8ff" stroke="#63b8ff" points="919.32,-729.82 929.89,-729.11 921.18,-723.08 919.32,-729.82"/>
</a>
</g>
</g>
<!-- Node9 -->
<g id="Node000009" class="node">
<title>Node9</title>
<g id="a_Node000009"><a xlink:href="../../d0/d91/classml_1_1model_1_1_c_data_gatherer.html#acea33437fdc2fb56e45d93d41deffc87" target="_top" xlink:title="Get the length of the bucketing time interval.">
<polygon fill="white" stroke="#666666" points="1230.25,-711.5 1099.5,-711.5 1099.5,-681 1230.25,-681 1230.25,-711.5"/>
<text text-anchor="start" x="1107.5" y="-698" font-family="Helvetica,sans-Serif" font-size="10.00">ml::model::CDataGatherer</text>
<text text-anchor="middle" x="1164.88" y="-686.75" font-family="Helvetica,sans-Serif" font-size="10.00">::bucketLength</text>
</a>
</g>
</g>
<!-- Node8&#45;&gt;Node9 -->
<g id="edge9_Node000008_Node000009" class="edge">
<title>Node8&#45;&gt;Node9</title>
<g id="a_edge9_Node000008_Node000009"><a xlink:title=" ">
<path fill="none" stroke="#63b8ff" d="M1063.78,-696.25C1071.66,-696.25 1079.7,-696.25 1087.62,-696.25"/>
<polygon fill="#63b8ff" stroke="#63b8ff" points="1087.59,-699.75 1097.59,-696.25 1087.59,-692.75 1087.59,-699.75"/>
</a>
</g>
</g>
<!-- Node12 -->
<g id="Node000012" class="node">
<title>Node12</title>
<g id="a_Node000012"><a xlink:href="../../d3/d2e/private_8h.html#a1c6de65cc31c36fe2ede0d438531d327" target="_top" xlink:title=" ">
<polygon fill="white" stroke="#666666" points="1006.88,-662.88 972.12,-662.88 972.12,-643.62 1006.88,-643.62 1006.88,-662.88"/>
<text text-anchor="middle" x="989.5" y="-649.38" font-family="Helvetica,sans-Serif" font-size="10.00">type</text>
</a>
</g>
</g>
<!-- Node11&#45;&gt;Node12 -->
<g id="edge13_Node000011_Node000012" class="edge">
<title>Node11&#45;&gt;Node12</title>
<g id="a_edge13_Node000011_Node000012"><a xlink:title=" ">
<path fill="none" stroke="#63b8ff" d="M855.97,-653.25C888.97,-653.25 932.6,-653.25 960.61,-653.25"/>
<polygon fill="#63b8ff" stroke="#63b8ff" points="960.42,-656.75 970.42,-653.25 960.42,-649.75 960.42,-656.75"/>
</a>
</g>
</g>
<!-- Node13&#45;&gt;Node8 -->
<g id="edge15_Node000013_Node000008" class="edge">
<title>Node13&#45;&gt;Node8</title>
<g id="a_edge15_Node000013_Node000008"><a xlink:title=" ">
<path fill="none" stroke="#63b8ff" d="M867.39,-729.61C884.32,-724.95 903.04,-719.79 920.6,-714.96"/>
<polygon fill="#63b8ff" stroke="#63b8ff" points="921.18,-718.42 929.89,-712.39 919.32,-711.68 921.18,-718.42"/>
</a>
</g>
</g>
<!-- Node13&#45;&gt;Node10 -->
<g id="edge16_Node000013_Node000010" class="edge">
<title>Node13&#45;&gt;Node10</title>
<g id="a_edge16_Node000013_Node000010"><a xlink:title=" ">
<path fill="none" stroke="#63b8ff" d="M879.91,-745.25C889.13,-745.25 898.65,-745.25 908.04,-745.25"/>
<polygon fill="#63b8ff" stroke="#63b8ff" points="907.9,-748.75 917.9,-745.25 907.9,-741.75 907.9,-748.75"/>
</a>
</g>
</g>
<!-- Node14&#45;&gt;Node14 -->
<g id="edge18_Node000014_Node000014" class="edge">
<title>Node14&#45;&gt;Node14</title>
<g id="a_edge18_Node000014_Node000014"><a xlink:title=" ">
<path fill="none" stroke="#63b8ff" d="M422.13,-607.99C415.62,-617.06 426.25,-625.5 454,-625.5 469.18,-625.5 479.23,-622.97 484.17,-619.2"/>
<polygon fill="#63b8ff" stroke="#63b8ff" points="487.6,-619.9 485.65,-609.48 480.68,-618.84 487.6,-619.9"/>
</a>
</g>
</g>
<!-- Node19&#45;&gt;Node15 -->
<g id="edge25_Node000019_Node000015" class="edge">
<title>Node19&#45;&gt;Node15</title>
<g id="a_edge25_Node000019_Node000015"><a xlink:title=" ">
<path fill="none" stroke="#63b8ff" d="M336.77,-557.97C347.09,-556.66 357.78,-555.31 368.29,-553.98"/>
<polygon fill="#63b8ff" stroke="#63b8ff" points="368.63,-557.46 378.12,-552.73 367.75,-550.52 368.63,-557.46"/>
</a>
</g>
</g>
<!-- Node27 -->
<g id="Node000027" class="node">
<title>Node27</title>
<g id="a_Node000027"><a xlink:href="../../d4/d0a/classml_1_1maths__t_1_1_c_unit_weights.html#ab810619bd835e01fc3f4e1fbd1706487" target="_top" xlink:title="Get a conformable unit weight for weight.">
<polygon fill="white" stroke="#666666" points="521.25,-79.5 386.75,-79.5 386.75,-49 521.25,-49 521.25,-79.5"/>
<text text-anchor="start" x="394.75" y="-66" font-family="Helvetica,sans-Serif" font-size="10.00">ml::maths_t::CUnitWeights</text>
<text text-anchor="middle" x="454" y="-54.75" font-family="Helvetica,sans-Serif" font-size="10.00">::unit</text>
</a>
</g>
</g>
<!-- Node26&#45;&gt;Node27 -->
<g id="edge35_Node000026_Node000027" class="edge">
<title>Node26&#45;&gt;Node27</title>
<g id="a_edge35_Node000026_Node000027"><a xlink:title=" ">
<path fill="none" stroke="#63b8ff" d="M338.12,-64.25C350.34,-64.25 363.01,-64.25 375.3,-64.25"/>
<polygon fill="#63b8ff" stroke="#63b8ff" points="374.93,-67.75 384.93,-64.25 374.93,-60.75 374.93,-67.75"/>
</a>
</g>
</g>
</g>
</svg>
