<?xml version="1.0" encoding="UTF-8" standalone="no"?>
<!DOCTYPE svg PUBLIC "-//W3C//DTD SVG 1.1//EN"
 "http://www.w3.org/Graphics/SVG/1.1/DTD/svg11.dtd">
<!-- Generated by graphviz version 10.0.1 (20240210.2158)
 -->
<!-- Title: ml::maths::common::CXMeansOnline1d Pages: 1 -->
<svg width="900pt" height="309pt"
 viewBox="0.00 0.00 900.25 308.62" xmlns="http://www.w3.org/2000/svg" xmlns:xlink="http://www.w3.org/1999/xlink">
<g id="graph0" class="graph" transform="scale(1 1) rotate(0) translate(4 304.62)">
<title>ml::maths::common::CXMeansOnline1d</title>
<!-- Node1 -->
<g id="Node000001" class="node">
<title>Node1</title>
<g id="a_Node000001"><a xlink:title="A single pass online clusterer based on the x&#45;means algorithm of Pelleg and Moore.">
<polygon fill="#999999" stroke="#666666" points="892.25,-137.12 783.25,-137.12 783.25,-106.62 892.25,-106.62 892.25,-137.12"/>
<text text-anchor="start" x="791.25" y="-123.62" font-family="Helvetica,sans-Serif" font-size="10.00">ml::maths::common::</text>
<text text-anchor="middle" x="837.75" y="-112.38" font-family="Helvetica,sans-Serif" font-size="10.00">CXMeansOnline1d</text>
</a>
</g>
</g>
<!-- Node2 -->
<g id="Node000002" class="node">
<title>Node2</title>
<g id="a_Node000002"><a xlink:href="../../d5/d42/classml_1_1maths_1_1common_1_1_c_clusterer.html" target="_top" xlink:title="Interface for clustering functionality.">
<polygon fill="white" stroke="#666666" points="558.62,-276.5 484.88,-276.5 484.88,-257.25 558.62,-257.25 558.62,-276.5"/>
<text text-anchor="middle" x="521.75" y="-263" font-family="Helvetica,sans-Serif" font-size="10.00">CClusterer1d</text>
</a>
</g>
</g>
<!-- Node2&#45;&gt;Node1 -->
<g id="edge1_Node000001_Node000002" class="edge">
<title>Node2&#45;&gt;Node1</title>
<g id="a_edge1_Node000001_Node000002"><a xlink:title=" ">
<path fill="none" stroke="#63b8ff" d="M570.13,-274.67C622.2,-280.65 706.25,-282.47 765.25,-244.88 804.62,-219.79 824.83,-164.7 832.71,-137.59"/>
<polygon fill="#63b8ff" stroke="#63b8ff" points="570.76,-271.22 560.4,-273.44 569.88,-278.16 570.76,-271.22"/>
</a>
</g>
</g>
<!-- Node3 -->
<g id="Node000003" class="node">
<title>Node3</title>
<g id="a_Node000003"><a xlink:href="../../d3/d5e/classml_1_1maths_1_1common_1_1_c_clusterer_types.html" target="_top" xlink:title="Factors out the non&#45;template part of CClusterer for improved compile times.">
<polygon fill="white" stroke="#666666" points="413.75,-282.12 304.75,-282.12 304.75,-251.62 413.75,-251.62 413.75,-282.12"/>
<text text-anchor="start" x="312.75" y="-268.62" font-family="Helvetica,sans-Serif" font-size="10.00">ml::maths::common::</text>
<text text-anchor="middle" x="359.25" y="-257.38" font-family="Helvetica,sans-Serif" font-size="10.00">CClustererTypes</text>
</a>
</g>
</g>
<!-- Node3&#45;&gt;Node2 -->
<g id="edge2_Node000002_Node000003" class="edge">
<title>Node3&#45;&gt;Node2</title>
<g id="a_edge2_Node000002_Node000003"><a xlink:title=" ">
<path fill="none" stroke="#63b8ff" d="M425.47,-266.88C445.59,-266.88 467.01,-266.88 484.44,-266.88"/>
<polygon fill="#63b8ff" stroke="#63b8ff" points="425.65,-263.38 415.65,-266.88 425.65,-270.38 425.65,-263.38"/>
</a>
</g>
</g>
<!-- Node4 -->
<g id="Node000004" class="node">
<title>Node4</title>
<g id="a_Node000004"><a xlink:href="../../d2/d43/classml_1_1core_1_1_c_persistence_tag.html" target="_top" xlink:title="Convenience container class for holding persistence tags.">
<polygon fill="white" stroke="#666666" points="132.25,-276.5 0,-276.5 0,-257.25 132.25,-257.25 132.25,-276.5"/>
<text text-anchor="middle" x="66.12" y="-263" font-family="Helvetica,sans-Serif" font-size="10.00">ml::core::CPersistenceTag</text>
</a>
</g>
</g>
<!-- Node4&#45;&gt;Node3 -->
<g id="edge3_Node000003_Node000004" class="edge">
<title>Node4&#45;&gt;Node3</title>
<g id="a_edge3_Node000003_Node000004"><a xlink:title=" ">
<path fill="none" stroke="#9a32cd" stroke-dasharray="5,2" d="M143.66,-266.88C194.2,-266.88 259.19,-266.88 304.34,-266.88"/>
<polygon fill="#9a32cd" stroke="#9a32cd" points="143.97,-263.38 133.97,-266.88 143.97,-270.38 143.97,-263.38"/>
</a>
</g>
<text text-anchor="middle" x="218.5" y="-291.12" font-family="Helvetica,sans-Serif" font-size="10.00" fill="grey"> K_MEANS_ONLINE_1D_TAG</text>
<text text-anchor="middle" x="218.5" y="-279.88" font-family="Helvetica,sans-Serif" font-size="10.00" fill="grey">X_MEANS_ONLINE_1D_TAG</text>
<text text-anchor="middle" x="218.5" y="-268.62" font-family="Helvetica,sans-Serif" font-size="10.00" fill="grey">X_MEANS_ONLINE_TAG</text>
</g>
<!-- Node5 -->
<g id="Node000005" class="node">
<title>Node5</title>
<g id="a_Node000005"><a xlink:href="../../d1/d55/classml_1_1maths_1_1common_1_1_c_available_mode_distributions.html" target="_top" xlink:title="Encodes the distributions available to model the modes.">
<polygon fill="white" stroke="#666666" points="592.75,-239.12 450.75,-239.12 450.75,-208.62 592.75,-208.62 592.75,-239.12"/>
<text text-anchor="start" x="458.75" y="-225.62" font-family="Helvetica,sans-Serif" font-size="10.00">ml::maths::common::</text>
<text text-anchor="middle" x="521.75" y="-214.38" font-family="Helvetica,sans-Serif" font-size="10.00">CAvailableModeDistributions</text>
</a>
</g>
</g>
<!-- Node5&#45;&gt;Node1 -->
<g id="edge4_Node000001_Node000005" class="edge">
<title>Node5&#45;&gt;Node1</title>
<g id="a_edge4_Node000001_Node000005"><a xlink:title=" ">
<path fill="none" stroke="#9a32cd" stroke-dasharray="5,2" d="M604.3,-231.06C653.39,-231.94 715.76,-226.76 765.25,-201.88 793.87,-187.48 816.31,-156.32 827.95,-137.41"/>
<polygon fill="#9a32cd" stroke="#9a32cd" points="604.69,-227.57 594.6,-230.79 604.5,-234.56 604.69,-227.57"/>
</a>
</g>
<text text-anchor="middle" x="688" y="-232.62" font-family="Helvetica,sans-Serif" font-size="10.00" fill="grey"> m_AvailableDistributions</text>
</g>
<!-- Node6 -->
<g id="Node000006" class="node">
<title>Node6</title>
<g id="a_Node000006"><a xlink:href="../../d5/d2c/classml_1_1core_1_1_c_float_storage.html" target="_top" xlink:title="This class should be used in place of float whenever that class is required.">
<polygon fill="white" stroke="#666666" points="581.88,-139.5 461.62,-139.5 461.62,-120.25 581.88,-120.25 581.88,-139.5"/>
<text text-anchor="middle" x="521.75" y="-126" font-family="Helvetica,sans-Serif" font-size="10.00">ml::core::CFloatStorage</text>
</a>
</g>
</g>
<!-- Node6&#45;&gt;Node1 -->
<g id="edge5_Node000001_Node000006" class="edge">
<title>Node6&#45;&gt;Node1</title>
<g id="a_edge5_Node000001_Node000006"><a xlink:title=" ">
<path fill="none" stroke="#9a32cd" stroke-dasharray="5,2" d="M593.54,-124.01C599.36,-123.66 605.15,-123.35 610.75,-123.12 669.56,-120.71 737.04,-120.7 782.84,-121.1"/>
<polygon fill="#9a32cd" stroke="#9a32cd" points="593.62,-120.49 583.87,-124.63 594.08,-127.48 593.62,-120.49"/>
</a>
</g>
<text text-anchor="middle" x="688" y="-192.12" font-family="Helvetica,sans-Serif" font-size="10.00" fill="grey"> m_DecayRate</text>
<text text-anchor="middle" x="688" y="-180.88" font-family="Helvetica,sans-Serif" font-size="10.00" fill="grey">m_HistoryLength</text>
<text text-anchor="middle" x="688" y="-169.62" font-family="Helvetica,sans-Serif" font-size="10.00" fill="grey">m_InitialDecayRate</text>
<text text-anchor="middle" x="688" y="-158.38" font-family="Helvetica,sans-Serif" font-size="10.00" fill="grey">m_MinimumCategoryCount</text>
<text text-anchor="middle" x="688" y="-147.12" font-family="Helvetica,sans-Serif" font-size="10.00" fill="grey">m_MinimumClusterCount</text>
<text text-anchor="middle" x="688" y="-135.88" font-family="Helvetica,sans-Serif" font-size="10.00" fill="grey">m_MinimumClusterFraction</text>
<text text-anchor="middle" x="688" y="-124.62" font-family="Helvetica,sans-Serif" font-size="10.00" fill="grey">m_WinsorizationConfidenceInterval</text>
</g>
<!-- Node7 -->
<g id="Node000007" class="node">
<title>Node7</title>
<g id="a_Node000007"><a xlink:href="../../da/d52/structml_1_1maths_1_1common_1_1_c_basic_statistics_1_1_s_min.html" target="_top" xlink:title=" ">
<polygon fill="white" stroke="#666666" points="580.75,-101.75 462.75,-101.75 462.75,-60 580.75,-60 580.75,-101.75"/>
<text text-anchor="start" x="470.75" y="-88.25" font-family="Helvetica,sans-Serif" font-size="10.00">ml::maths::common::</text>
<text text-anchor="start" x="470.75" y="-77" font-family="Helvetica,sans-Serif" font-size="10.00">CBasicStatistics::SMin</text>
<text text-anchor="middle" x="521.75" y="-65.75" font-family="Helvetica,sans-Serif" font-size="10.00">&lt; double &gt;</text>
</a>
</g>
</g>
<!-- Node7&#45;&gt;Node1 -->
<g id="edge6_Node000001_Node000007" class="edge">
<title>Node7&#45;&gt;Node1</title>
<g id="a_edge6_Node000001_Node000007"><a xlink:title=" ">
<path fill="none" stroke="#9a32cd" stroke-dasharray="5,2" d="M592.17,-85.7C640.82,-89.64 707.26,-96.11 765.25,-105.62 771.03,-106.57 777.04,-107.7 783.01,-108.92"/>
<polygon fill="#9a32cd" stroke="#9a32cd" points="592.58,-82.22 582.34,-84.93 592.03,-89.2 592.58,-82.22"/>
</a>
</g>
<text text-anchor="middle" x="688" y="-106.62" font-family="Helvetica,sans-Serif" font-size="10.00" fill="grey"> m_Smallest</text>
</g>
<!-- Node8 -->
<g id="Node000008" class="node">
<title>Node8</title>
<g id="a_Node000008"><a xlink:href="../../da/df8/structml_1_1maths_1_1common_1_1_c_basic_statistics_1_1_s_max.html" target="_top" xlink:title=" ">
<polygon fill="white" stroke="#666666" points="582.25,-41.75 461.25,-41.75 461.25,0 582.25,0 582.25,-41.75"/>
<text text-anchor="start" x="469.25" y="-28.25" font-family="Helvetica,sans-Serif" font-size="10.00">ml::maths::common::</text>
<text text-anchor="start" x="469.25" y="-17" font-family="Helvetica,sans-Serif" font-size="10.00">CBasicStatistics::SMax</text>
<text text-anchor="middle" x="521.75" y="-5.75" font-family="Helvetica,sans-Serif" font-size="10.00">&lt; double &gt;</text>
</a>
</g>
</g>
<!-- Node8&#45;&gt;Node1 -->
<g id="edge7_Node000001_Node000008" class="edge">
<title>Node8&#45;&gt;Node1</title>
<g id="a_edge7_Node000001_Node000008"><a xlink:title=" ">
<path fill="none" stroke="#9a32cd" stroke-dasharray="5,2" d="M593.87,-28.05C643.47,-34.88 710.34,-47.8 765.25,-71.62 785.15,-80.26 805.13,-94.93 818.89,-106.19"/>
<polygon fill="#9a32cd" stroke="#9a32cd" points="594.48,-24.6 584.11,-26.76 593.56,-31.54 594.48,-24.6"/>
</a>
</g>
<text text-anchor="middle" x="688" y="-72.62" font-family="Helvetica,sans-Serif" font-size="10.00" fill="grey"> m_Largest</text>
</g>
</g>
</svg>
