<?xml version="1.0" encoding="UTF-8" standalone="no"?>
<!DOCTYPE svg PUBLIC "-//W3C//DTD SVG 1.1//EN"
 "http://www.w3.org/Graphics/SVG/1.1/DTD/svg11.dtd">
<!-- Generated by graphviz version 10.0.1 (20240210.2158)
 -->
<!-- Title: ml::maths::common::CModelProbabilityParams::weights Pages: 1 -->
<svg width="722pt" height="110pt"
 viewBox="0.00 0.00 722.25 109.75" xmlns="http://www.w3.org/2000/svg" xmlns:xlink="http://www.w3.org/1999/xlink">
<g id="graph0" class="graph" transform="scale(1 1) rotate(0) translate(4 105.75)">
<title>ml::maths::common::CModelProbabilityParams::weights</title>
<!-- Node1 -->
<g id="Node000001" class="node">
<title>Node1</title>
<g id="a_Node000001"><a xlink:title="Get the values&#39; weights.">
<polygon fill="#999999" stroke="#666666" points="714.25,-71.75 585,-71.75 585,-30 714.25,-30 714.25,-71.75"/>
<text text-anchor="start" x="593" y="-58.25" font-family="Helvetica,sans-Serif" font-size="10.00">ml::maths::common::</text>
<text text-anchor="start" x="593" y="-47" font-family="Helvetica,sans-Serif" font-size="10.00">CModelProbabilityParams</text>
<text text-anchor="middle" x="649.62" y="-35.75" font-family="Helvetica,sans-Serif" font-size="10.00">::weights</text>
</a>
</g>
</g>
<!-- Node2 -->
<g id="Node000002" class="node">
<title>Node2</title>
<g id="a_Node000002"><a xlink:href="../../dd/d6d/classml_1_1maths_1_1common_1_1_c_model_probability_params.html#a007a9b4d0dc9ac83dc3c99eb21081ddf" target="_top" xlink:title="Add a value&#39;s weights.">
<polygon fill="white" stroke="#666666" points="549,-101.75 419.75,-101.75 419.75,-60 549,-60 549,-101.75"/>
<text text-anchor="start" x="427.75" y="-88.25" font-family="Helvetica,sans-Serif" font-size="10.00">ml::maths::common::</text>
<text text-anchor="start" x="427.75" y="-77" font-family="Helvetica,sans-Serif" font-size="10.00">CModelProbabilityParams</text>
<text text-anchor="middle" x="484.38" y="-65.75" font-family="Helvetica,sans-Serif" font-size="10.00">::addWeights</text>
</a>
</g>
</g>
<!-- Node1&#45;&gt;Node2 -->
<g id="edge1_Node000001_Node000002" class="edge">
<title>Node1&#45;&gt;Node2</title>
<g id="a_edge1_Node000001_Node000002"><a xlink:title=" ">
<path fill="none" stroke="#63b8ff" d="M573.29,-64.72C565.25,-66.2 557.13,-67.69 549.24,-69.14"/>
<polygon fill="#63b8ff" stroke="#63b8ff" points="573.88,-68.17 583.08,-62.92 572.62,-61.28 573.88,-68.17"/>
</a>
</g>
</g>
<!-- Node5 -->
<g id="Node000005" class="node">
<title>Node5</title>
<g id="a_Node000005"><a xlink:href="../../dd/d6d/classml_1_1maths_1_1common_1_1_c_model_probability_params.html#ae9fadfe771c3e48678d625a6a0326e40" target="_top" xlink:title="Set the values&#39; weights.">
<polygon fill="white" stroke="#666666" points="549,-41.75 419.75,-41.75 419.75,0 549,0 549,-41.75"/>
<text text-anchor="start" x="427.75" y="-28.25" font-family="Helvetica,sans-Serif" font-size="10.00">ml::maths::common::</text>
<text text-anchor="start" x="427.75" y="-17" font-family="Helvetica,sans-Serif" font-size="10.00">CModelProbabilityParams</text>
<text text-anchor="middle" x="484.38" y="-5.75" font-family="Helvetica,sans-Serif" font-size="10.00">::weights</text>
</a>
</g>
</g>
<!-- Node1&#45;&gt;Node5 -->
<g id="edge5_Node000001_Node000005" class="edge">
<title>Node1&#45;&gt;Node5</title>
<g id="a_edge5_Node000001_Node000005"><a xlink:title=" ">
<path fill="none" stroke="#63b8ff" d="M573.29,-37.03C565.25,-35.55 557.13,-34.06 549.24,-32.61"/>
<polygon fill="#63b8ff" stroke="#63b8ff" points="572.62,-40.47 583.08,-38.83 573.88,-33.58 572.62,-40.47"/>
</a>
</g>
</g>
<!-- Node3 -->
<g id="Node000003" class="node">
<title>Node3</title>
<g id="a_Node000003"><a xlink:href="../../d0/da9/_c_probability_and_influence_calculator_test_8cc.html#adacf1c21ee64f9bdf5b1c4471078449a" target="_top" xlink:title=" ">
<polygon fill="white" stroke="#666666" points="147.25,-89.5 0,-89.5 0,-70.25 147.25,-70.25 147.25,-89.5"/>
<text text-anchor="middle" x="73.62" y="-76" font-family="Helvetica,sans-Serif" font-size="10.00">BOOST_AUTO_TEST_CASE</text>
</a>
</g>
</g>
<!-- Node2&#45;&gt;Node3 -->
<g id="edge2_Node000002_Node000003" class="edge">
<title>Node2&#45;&gt;Node3</title>
<g id="a_edge2_Node000002_Node000003"><a xlink:title=" ">
<path fill="none" stroke="#63b8ff" d="M407.89,-85.06C399.74,-85.4 391.58,-85.68 383.75,-85.88 294.67,-88.11 272.33,-88.33 183.25,-85.88 171.73,-85.56 159.54,-85.05 147.64,-84.46"/>
<polygon fill="#63b8ff" stroke="#63b8ff" points="408,-88.56 417.84,-84.63 407.69,-81.57 408,-88.56"/>
</a>
</g>
</g>
<!-- Node4 -->
<g id="Node000004" class="node">
<title>Node4</title>
<g id="a_Node000004"><a xlink:href="../../da/d82/namespaceanonymous__namespace_02_c_probability_and_influence_calculator_test_8cc_03.html#a219259c6d79d4b107831957ec59d7950" target="_top" xlink:title=" ">
<polygon fill="white" stroke="#666666" points="383.75,-76.75 183.25,-76.75 183.25,-35 383.75,-35 383.75,-76.75"/>
<text text-anchor="start" x="191.25" y="-63.25" font-family="Helvetica,sans-Serif" font-size="10.00">anonymous_namespace</text>
<text text-anchor="start" x="191.25" y="-52" font-family="Helvetica,sans-Serif" font-size="10.00">{CProbabilityAndInfluenceCalculator</text>
<text text-anchor="middle" x="283.5" y="-40.75" font-family="Helvetica,sans-Serif" font-size="10.00">Test::cc}::testProbabilityAndGetInfluences</text>
</a>
</g>
</g>
<!-- Node2&#45;&gt;Node4 -->
<g id="edge3_Node000002_Node000004" class="edge">
<title>Node2&#45;&gt;Node4</title>
<g id="a_edge3_Node000002_Node000004"><a xlink:title=" ">
<path fill="none" stroke="#63b8ff" d="M408.09,-71.41C400.28,-70.43 392.26,-69.42 384.24,-68.41"/>
<polygon fill="#63b8ff" stroke="#63b8ff" points="407.49,-74.86 417.85,-72.64 408.37,-67.92 407.49,-74.86"/>
</a>
</g>
</g>
<!-- Node4&#45;&gt;Node3 -->
<g id="edge4_Node000004_Node000003" class="edge">
<title>Node4&#45;&gt;Node3</title>
<g id="a_edge4_Node000004_Node000003"><a xlink:title=" ">
<path fill="none" stroke="#63b8ff" d="M171.41,-68.7C163.34,-69.63 155.34,-70.56 147.59,-71.45"/>
<polygon fill="#63b8ff" stroke="#63b8ff" points="171.79,-72.18 181.32,-67.56 170.99,-65.23 171.79,-72.18"/>
</a>
</g>
</g>
</g>
</svg>
