<?xml version="1.0" encoding="UTF-8" standalone="no"?>
<!DOCTYPE svg PUBLIC "-//W3C//DTD SVG 1.1//EN"
 "http://www.w3.org/Graphics/SVG/1.1/DTD/svg11.dtd">
<!-- Generated by graphviz version 10.0.1 (20240210.2158)
 -->
<!-- Title: ml::maths::common::CModelProbabilityParams::calculation Pages: 1 -->
<svg width="722pt" height="74pt"
 viewBox="0.00 0.00 722.25 73.75" xmlns="http://www.w3.org/2000/svg" xmlns:xlink="http://www.w3.org/1999/xlink">
<g id="graph0" class="graph" transform="scale(1 1) rotate(0) translate(4 69.75)">
<title>ml::maths::common::CModelProbabilityParams::calculation</title>
<!-- Node1 -->
<g id="Node000001" class="node">
<title>Node1</title>
<g id="a_Node000001"><a xlink:title="Get the i&#39;th coordinate&#39;s calculation style.">
<polygon fill="#999999" stroke="#666666" points="714.25,-65.75 585,-65.75 585,-24 714.25,-24 714.25,-65.75"/>
<text text-anchor="start" x="593" y="-52.25" font-family="Helvetica,sans-Serif" font-size="10.00">ml::maths::common::</text>
<text text-anchor="start" x="593" y="-41" font-family="Helvetica,sans-Serif" font-size="10.00">CModelProbabilityParams</text>
<text text-anchor="middle" x="649.62" y="-29.75" font-family="Helvetica,sans-Serif" font-size="10.00">::calculation</text>
</a>
</g>
</g>
<!-- Node2 -->
<g id="Node000002" class="node">
<title>Node2</title>
<g id="a_Node000002"><a xlink:href="../../dd/d6d/classml_1_1maths_1_1common_1_1_c_model_probability_params.html#acb640c951eadf29ba67c75c3aa06fcd8" target="_top" xlink:title="Add a coordinate&#39;s calculation style.">
<polygon fill="white" stroke="#666666" points="549,-65.75 419.75,-65.75 419.75,-24 549,-24 549,-65.75"/>
<text text-anchor="start" x="427.75" y="-52.25" font-family="Helvetica,sans-Serif" font-size="10.00">ml::maths::common::</text>
<text text-anchor="start" x="427.75" y="-41" font-family="Helvetica,sans-Serif" font-size="10.00">CModelProbabilityParams</text>
<text text-anchor="middle" x="484.38" y="-29.75" font-family="Helvetica,sans-Serif" font-size="10.00">::addCalculation</text>
</a>
</g>
</g>
<!-- Node1&#45;&gt;Node2 -->
<g id="edge1_Node000001_Node000002" class="edge">
<title>Node1&#45;&gt;Node2</title>
<g id="a_edge1_Node000001_Node000002"><a xlink:title=" ">
<path fill="none" stroke="#63b8ff" d="M573.29,-44.88C565.25,-44.88 557.13,-44.88 549.24,-44.88"/>
<polygon fill="#63b8ff" stroke="#63b8ff" points="573.06,-48.38 583.06,-44.88 573.06,-41.38 573.06,-48.38"/>
</a>
</g>
</g>
<!-- Node3 -->
<g id="Node000003" class="node">
<title>Node3</title>
<g id="a_Node000003"><a xlink:href="../../d0/da9/_c_probability_and_influence_calculator_test_8cc.html#adacf1c21ee64f9bdf5b1c4471078449a" target="_top" xlink:title=" ">
<polygon fill="white" stroke="#666666" points="147.25,-54.5 0,-54.5 0,-35.25 147.25,-35.25 147.25,-54.5"/>
<text text-anchor="middle" x="73.62" y="-41" font-family="Helvetica,sans-Serif" font-size="10.00">BOOST_AUTO_TEST_CASE</text>
</a>
</g>
</g>
<!-- Node2&#45;&gt;Node3 -->
<g id="edge2_Node000002_Node000003" class="edge">
<title>Node2&#45;&gt;Node3</title>
<g id="a_edge2_Node000002_Node000003"><a xlink:title=" ">
<path fill="none" stroke="#63b8ff" d="M407.89,-49.9C399.75,-50.3 391.58,-50.64 383.75,-50.88 294.68,-53.55 272.33,-53.33 183.25,-50.88 171.73,-50.56 159.54,-50.05 147.64,-49.46"/>
<polygon fill="#63b8ff" stroke="#63b8ff" points="408.04,-53.4 417.85,-49.38 407.68,-46.41 408.04,-53.4"/>
</a>
</g>
</g>
<!-- Node4 -->
<g id="Node000004" class="node">
<title>Node4</title>
<g id="a_Node000004"><a xlink:href="../../da/d82/namespaceanonymous__namespace_02_c_probability_and_influence_calculator_test_8cc_03.html#a219259c6d79d4b107831957ec59d7950" target="_top" xlink:title=" ">
<polygon fill="white" stroke="#666666" points="383.75,-41.75 183.25,-41.75 183.25,0 383.75,0 383.75,-41.75"/>
<text text-anchor="start" x="191.25" y="-28.25" font-family="Helvetica,sans-Serif" font-size="10.00">anonymous_namespace</text>
<text text-anchor="start" x="191.25" y="-17" font-family="Helvetica,sans-Serif" font-size="10.00">{CProbabilityAndInfluenceCalculator</text>
<text text-anchor="middle" x="283.5" y="-5.75" font-family="Helvetica,sans-Serif" font-size="10.00">Test::cc}::testProbabilityAndGetInfluences</text>
</a>
</g>
</g>
<!-- Node2&#45;&gt;Node4 -->
<g id="edge3_Node000002_Node000004" class="edge">
<title>Node2&#45;&gt;Node4</title>
<g id="a_edge3_Node000002_Node000004"><a xlink:title=" ">
<path fill="none" stroke="#63b8ff" d="M408.09,-35.79C400.28,-34.85 392.26,-33.88 384.24,-32.91"/>
<polygon fill="#63b8ff" stroke="#63b8ff" points="407.51,-39.24 417.85,-36.97 408.34,-32.29 407.51,-39.24"/>
</a>
</g>
</g>
<!-- Node4&#45;&gt;Node3 -->
<g id="edge4_Node000004_Node000003" class="edge">
<title>Node4&#45;&gt;Node3</title>
<g id="a_edge4_Node000004_Node000003"><a xlink:title=" ">
<path fill="none" stroke="#63b8ff" d="M171.41,-33.7C163.34,-34.63 155.34,-35.56 147.59,-36.45"/>
<polygon fill="#63b8ff" stroke="#63b8ff" points="171.79,-37.18 181.32,-32.56 170.99,-30.23 171.79,-37.18"/>
</a>
</g>
</g>
</g>
</svg>
