<?xml version="1.0" encoding="UTF-8" standalone="no"?>
<!DOCTYPE svg PUBLIC "-//W3C//DTD SVG 1.1//EN"
 "http://www.w3.org/Graphics/SVG/1.1/DTD/svg11.dtd">
<!-- Generated by graphviz version 10.0.1 (20240210.2158)
 -->
<!-- Title: ml::maths::analytics::outliers_detail::CLof::compute Pages: 1 -->
<svg width="1102pt" height="494pt"
 viewBox="0.00 0.00 1101.50 494.12" xmlns="http://www.w3.org/2000/svg" xmlns:xlink="http://www.w3.org/1999/xlink">
<g id="graph0" class="graph" transform="scale(1 1) rotate(0) translate(4 490.12)">
<title>ml::maths::analytics::outliers_detail::CLof::compute</title>
<!-- Node1 -->
<g id="Node000001" class="node">
<title>Node1</title>
<g id="a_Node000001"><a xlink:title=" ">
<polygon fill="#999999" stroke="#666666" points="109,-323.75 0,-323.75 0,-282 109,-282 109,-323.75"/>
<text text-anchor="start" x="8" y="-310.25" font-family="Helvetica,sans-Serif" font-size="10.00">ml::maths::analytics</text>
<text text-anchor="start" x="8" y="-299" font-family="Helvetica,sans-Serif" font-size="10.00">::outliers_detail::CLof</text>
<text text-anchor="middle" x="54.5" y="-287.75" font-family="Helvetica,sans-Serif" font-size="10.00">::compute</text>
</a>
</g>
</g>
<!-- Node2 -->
<g id="Node000002" class="node">
<title>Node2</title>
<g id="a_Node000002"><a xlink:href="../../db/d6f/classml_1_1maths_1_1analytics_1_1outliers__detail_1_1_c_lof.html#a727de73e65ab0e0ccd23c257ab23e8e5" target="_top" xlink:title=" ">
<polygon fill="white" stroke="#666666" points="307.62,-374.75 163.38,-374.75 163.38,-333 307.62,-333 307.62,-374.75"/>
<text text-anchor="start" x="171.38" y="-361.25" font-family="Helvetica,sans-Serif" font-size="10.00">ml::maths::analytics</text>
<text text-anchor="start" x="171.38" y="-350" font-family="Helvetica,sans-Serif" font-size="10.00">::outliers_detail::CLof</text>
<text text-anchor="middle" x="235.5" y="-338.75" font-family="Helvetica,sans-Serif" font-size="10.00">::computeLocalOutlierFactors</text>
</a>
</g>
</g>
<!-- Node1&#45;&gt;Node2 -->
<g id="edge1_Node000001_Node000002" class="edge">
<title>Node1&#45;&gt;Node2</title>
<g id="a_edge1_Node000001_Node000002"><a xlink:title=" ">
<path fill="none" stroke="#63b8ff" d="M109.21,-318.18C122.66,-322.01 137.42,-326.21 151.92,-330.35"/>
<polygon fill="#63b8ff" stroke="#63b8ff" points="150.91,-333.7 161.49,-333.07 152.83,-326.97 150.91,-333.7"/>
</a>
</g>
</g>
<!-- Node14 -->
<g id="Node000014" class="node">
<title>Node14</title>
<g id="a_Node000014"><a xlink:href="../../db/d6f/classml_1_1maths_1_1analytics_1_1outliers__detail_1_1_c_lof.html#ae5acf4ec33cc84c4ee71f263752268a2" target="_top" xlink:title=" ">
<polygon fill="white" stroke="#666666" points="326,-293.75 145,-293.75 145,-252 326,-252 326,-293.75"/>
<text text-anchor="start" x="153" y="-280.25" font-family="Helvetica,sans-Serif" font-size="10.00">ml::maths::analytics</text>
<text text-anchor="start" x="153" y="-269" font-family="Helvetica,sans-Serif" font-size="10.00">::outliers_detail::CLof</text>
<text text-anchor="middle" x="235.5" y="-257.75" font-family="Helvetica,sans-Serif" font-size="10.00">::computeLocalReachabilityDistances</text>
</a>
</g>
</g>
<!-- Node1&#45;&gt;Node14 -->
<g id="edge13_Node000001_Node000014" class="edge">
<title>Node1&#45;&gt;Node14</title>
<g id="a_edge13_Node000001_Node000014"><a xlink:title=" ">
<path fill="none" stroke="#63b8ff" d="M109.21,-293.87C116.92,-292.58 125.07,-291.22 133.34,-289.83"/>
<polygon fill="#63b8ff" stroke="#63b8ff" points="133.91,-293.28 143.19,-288.18 132.75,-286.38 133.91,-293.28"/>
</a>
</g>
</g>
<!-- Node3 -->
<g id="Node000003" class="node">
<title>Node3</title>
<g id="a_Node000003"><a xlink:href="../../dc/dbb/structml_1_1maths_1_1common_1_1_c_basic_statistics_1_1_s_sample_central_moments.html#acc61d392a0de1c035fe149a84fd252ca" target="_top" xlink:title="Update the moments with the collection x.">
<polygon fill="white" stroke="#666666" points="528.75,-464.75 362,-464.75 362,-423 528.75,-423 528.75,-464.75"/>
<text text-anchor="start" x="370" y="-451.25" font-family="Helvetica,sans-Serif" font-size="10.00">ml::maths::common::</text>
<text text-anchor="start" x="370" y="-440" font-family="Helvetica,sans-Serif" font-size="10.00">CBasicStatistics::SSampleCentral</text>
<text text-anchor="middle" x="445.38" y="-428.75" font-family="Helvetica,sans-Serif" font-size="10.00">Moments::add</text>
</a>
</g>
</g>
<!-- Node2&#45;&gt;Node3 -->
<g id="edge2_Node000002_Node000003" class="edge">
<title>Node2&#45;&gt;Node3</title>
<g id="a_edge2_Node000002_Node000003"><a xlink:title=" ">
<path fill="none" stroke="#63b8ff" d="M278.44,-375.18C302.61,-387.14 333.72,-402 362,-413.88 365.62,-415.39 369.34,-416.91 373.12,-418.41"/>
<polygon fill="#63b8ff" stroke="#63b8ff" points="371.83,-421.67 382.42,-422.04 374.37,-415.15 371.83,-421.67"/>
</a>
</g>
</g>
<!-- Node4 -->
<g id="Node000004" class="node">
<title>Node4</title>
<g id="a_Node000004"><a xlink:href="../../d4/d55/classml_1_1maths_1_1common_1_1_c_basic_statistics.html#a9a136b1823e9938247cd29bb0ffea440" target="_top" xlink:title="Compute the mean of a pair.">
<polygon fill="white" stroke="#666666" points="505.12,-405.12 385.62,-405.12 385.62,-374.62 505.12,-374.62 505.12,-405.12"/>
<text text-anchor="start" x="393.62" y="-391.62" font-family="Helvetica,sans-Serif" font-size="10.00">ml::maths::common::</text>
<text text-anchor="middle" x="445.38" y="-380.38" font-family="Helvetica,sans-Serif" font-size="10.00">CBasicStatistics::mean</text>
</a>
</g>
</g>
<!-- Node2&#45;&gt;Node4 -->
<g id="edge3_Node000002_Node000004" class="edge">
<title>Node2&#45;&gt;Node4</title>
<g id="a_edge3_Node000002_Node000004"><a xlink:title=" ">
<path fill="none" stroke="#63b8ff" d="M308.04,-366.26C329.44,-369.97 352.88,-374.03 374.2,-377.72"/>
<polygon fill="#63b8ff" stroke="#63b8ff" points="373.52,-381.16 383.97,-379.41 374.71,-374.26 373.52,-381.16"/>
</a>
</g>
</g>
<!-- Node5 -->
<g id="Node000005" class="node">
<title>Node5</title>
<g id="a_Node000005"><a xlink:href="../../db/dc5/namespaceml_1_1core.html#a0a2362a18f8564c40c8d85480d6645ca" target="_top" xlink:title=" ">
<polygon fill="white" stroke="#666666" points="489.38,-356.12 401.38,-356.12 401.38,-325.62 489.38,-325.62 489.38,-356.12"/>
<text text-anchor="start" x="409.38" y="-342.62" font-family="Helvetica,sans-Serif" font-size="10.00">ml::core::parallel</text>
<text text-anchor="middle" x="445.38" y="-331.38" font-family="Helvetica,sans-Serif" font-size="10.00">_for_each</text>
</a>
</g>
</g>
<!-- Node2&#45;&gt;Node5 -->
<g id="edge4_Node000002_Node000005" class="edge">
<title>Node2&#45;&gt;Node5</title>
<g id="a_edge4_Node000002_Node000005"><a xlink:title=" ">
<path fill="none" stroke="#63b8ff" d="M308.04,-349.4C334.7,-347.73 364.53,-345.87 389.47,-344.31"/>
<polygon fill="#63b8ff" stroke="#63b8ff" points="389.65,-347.8 399.41,-343.69 389.21,-340.82 389.65,-347.8"/>
</a>
</g>
</g>
<!-- Node6 -->
<g id="Node000006" class="node">
<title>Node6</title>
<g id="a_Node000006"><a xlink:href="../../d1/d87/namespaceml_1_1core_1_1concurrency__detail.html#aca729744cf1ab3ce2d0f17c4d6e8f3e3" target="_top" xlink:title=" ">
<polygon fill="white" stroke="#666666" points="704.88,-383.12 580.88,-383.12 580.88,-352.62 704.88,-352.62 704.88,-383.12"/>
<text text-anchor="start" x="588.88" y="-369.62" font-family="Helvetica,sans-Serif" font-size="10.00">ml::core::concurrency</text>
<text text-anchor="middle" x="642.88" y="-358.38" font-family="Helvetica,sans-Serif" font-size="10.00">_detail::parallel_for_each</text>
</a>
</g>
</g>
<!-- Node5&#45;&gt;Node6 -->
<g id="edge5_Node000005_Node000006" class="edge">
<title>Node5&#45;&gt;Node6</title>
<g id="a_edge5_Node000005_Node000006"><a xlink:title=" ">
<path fill="none" stroke="#63b8ff" d="M489.76,-346.87C513.09,-350.09 542.48,-354.15 569.18,-357.84"/>
<polygon fill="#63b8ff" stroke="#63b8ff" points="568.56,-361.28 578.94,-359.18 569.51,-354.35 568.56,-361.28"/>
</a>
</g>
</g>
<!-- Node13 -->
<g id="Node000013" class="node">
<title>Node13</title>
<g id="a_Node000013"><a xlink:href="../../df/d10/classml_1_1core_1_1concurrency__detail_1_1_c_default_async_executor_busy_for_scope.html#aa9e8bc64fe6b9fd35860e1be6c34db52" target="_top" xlink:title=" ">
<polygon fill="white" stroke="#666666" points="721,-334.75 564.75,-334.75 564.75,-293 721,-293 721,-334.75"/>
<text text-anchor="start" x="572.75" y="-321.25" font-family="Helvetica,sans-Serif" font-size="10.00">ml::core::concurrency</text>
<text text-anchor="start" x="572.75" y="-310" font-family="Helvetica,sans-Serif" font-size="10.00">_detail::CDefaultAsyncExecutor</text>
<text text-anchor="middle" x="642.88" y="-298.75" font-family="Helvetica,sans-Serif" font-size="10.00">BusyForScope::wasBusy</text>
</a>
</g>
</g>
<!-- Node5&#45;&gt;Node13 -->
<g id="edge12_Node000005_Node000013" class="edge">
<title>Node5&#45;&gt;Node13</title>
<g id="a_edge12_Node000005_Node000013"><a xlink:title=" ">
<path fill="none" stroke="#63b8ff" d="M489.76,-334.88C508.53,-332.29 531.21,-329.16 553.27,-326.11"/>
<polygon fill="#63b8ff" stroke="#63b8ff" points="553.45,-329.62 562.88,-324.79 552.49,-322.69 553.45,-329.62"/>
</a>
</g>
</g>
<!-- Node7 -->
<g id="Node000007" class="node">
<title>Node7</title>
<g id="a_Node000007"><a xlink:href="../../db/dc5/namespaceml_1_1core.html#aefce23c29106b3507fb80ce9ce64a10d" target="_top" xlink:title=" ">
<polygon fill="white" stroke="#666666" points="875.38,-426.5 791.88,-426.5 791.88,-407.25 875.38,-407.25 875.38,-426.5"/>
<text text-anchor="middle" x="833.62" y="-413" font-family="Helvetica,sans-Serif" font-size="10.00">ml::core::async</text>
</a>
</g>
</g>
<!-- Node6&#45;&gt;Node7 -->
<g id="edge6_Node000006_Node000007" class="edge">
<title>Node6&#45;&gt;Node7</title>
<g id="a_edge6_Node000006_Node000007"><a xlink:title=" ">
<path fill="none" stroke="#63b8ff" d="M704.38,-383.58C729.7,-390.15 758.77,-397.7 782.82,-403.95"/>
<polygon fill="#63b8ff" stroke="#63b8ff" points="781.81,-407.3 792.37,-406.43 783.57,-400.52 781.81,-407.3"/>
</a>
</g>
</g>
<!-- Node10 -->
<g id="Node000010" class="node">
<title>Node10</title>
<g id="a_Node000010"><a xlink:href="../../db/dc5/namespaceml_1_1core.html#a514736cf5469484b399fb7dd913c754d" target="_top" xlink:title=" ">
<polygon fill="white" stroke="#666666" points="910.25,-377.5 757,-377.5 757,-358.25 910.25,-358.25 910.25,-377.5"/>
<text text-anchor="middle" x="833.62" y="-364" font-family="Helvetica,sans-Serif" font-size="10.00">ml::core::defaultAsyncExecutor</text>
</a>
</g>
</g>
<!-- Node6&#45;&gt;Node10 -->
<g id="edge9_Node000006_Node000010" class="edge">
<title>Node6&#45;&gt;Node10</title>
<g id="a_edge9_Node000006_Node000010"><a xlink:title=" ">
<path fill="none" stroke="#63b8ff" d="M705.16,-367.88C718.02,-367.88 731.83,-367.88 745.44,-367.88"/>
<polygon fill="#63b8ff" stroke="#63b8ff" points="745.28,-371.38 755.28,-367.88 745.28,-364.38 745.28,-371.38"/>
</a>
</g>
</g>
<!-- Node12 -->
<g id="Node000012" class="node">
<title>Node12</title>
<g id="a_Node000012"><a xlink:href="../../db/dc5/namespaceml_1_1core.html#a0d31866d6ef3973344ddfbf398d09fc0" target="_top" xlink:title="Get the conjunction of all futures.">
<polygon fill="white" stroke="#666666" points="896.38,-340.12 770.88,-340.12 770.88,-309.62 896.38,-309.62 896.38,-340.12"/>
<text text-anchor="start" x="778.88" y="-326.62" font-family="Helvetica,sans-Serif" font-size="10.00">ml::core::get_conjunction</text>
<text text-anchor="middle" x="833.62" y="-315.38" font-family="Helvetica,sans-Serif" font-size="10.00">_of_all</text>
</a>
</g>
</g>
<!-- Node6&#45;&gt;Node12 -->
<g id="edge11_Node000006_Node000012" class="edge">
<title>Node6&#45;&gt;Node12</title>
<g id="a_edge11_Node000006_Node000012"><a xlink:title=" ">
<path fill="none" stroke="#63b8ff" d="M705.16,-353.91C722.54,-349.95 741.64,-345.6 759.64,-341.5"/>
<polygon fill="#63b8ff" stroke="#63b8ff" points="760.23,-344.96 769.21,-339.32 758.68,-338.13 760.23,-344.96"/>
</a>
</g>
</g>
<!-- Node8 -->
<g id="Node000008" class="node">
<title>Node8</title>
<g id="a_Node000008"><a xlink:href="../../d1/d87/namespaceml_1_1core_1_1concurrency__detail.html#abed0bdc95d236dd9d9e52120448fd049" target="_top" xlink:title=" ">
<polygon fill="white" stroke="#666666" points="1093.5,-437.75 946.25,-437.75 946.25,-396 1093.5,-396 1093.5,-437.75"/>
<text text-anchor="start" x="954.25" y="-424.25" font-family="Helvetica,sans-Serif" font-size="10.00">ml::core::concurrency</text>
<text text-anchor="start" x="954.25" y="-413" font-family="Helvetica,sans-Serif" font-size="10.00">_detail::invokeAndWriteResult</text>
<text text-anchor="middle" x="1019.88" y="-401.75" font-family="Helvetica,sans-Serif" font-size="10.00">ToPromise</text>
</a>
</g>
</g>
<!-- Node7&#45;&gt;Node8 -->
<g id="edge7_Node000007_Node000008" class="edge">
<title>Node7&#45;&gt;Node8</title>
<g id="a_edge7_Node000007_Node000008"><a xlink:title=" ">
<path fill="none" stroke="#63b8ff" d="M875.52,-416.88C892.96,-416.88 914,-416.88 934.52,-416.88"/>
<polygon fill="#63b8ff" stroke="#63b8ff" points="934.32,-420.38 944.32,-416.88 934.32,-413.38 934.32,-420.38"/>
</a>
</g>
</g>
<!-- Node9 -->
<g id="Node000009" class="node">
<title>Node9</title>
<g id="a_Node000009"><a xlink:href="../../d5/d40/classml_1_1core_1_1_c_executor.html#a5665713543d485a2b3afa13030ad5a97" target="_top" xlink:title=" ">
<polygon fill="white" stroke="#666666" points="1071.75,-486.12 968,-486.12 968,-455.62 1071.75,-455.62 1071.75,-486.12"/>
<text text-anchor="start" x="976" y="-472.62" font-family="Helvetica,sans-Serif" font-size="10.00">ml::core::CExecutor</text>
<text text-anchor="middle" x="1019.88" y="-461.38" font-family="Helvetica,sans-Serif" font-size="10.00">::schedule</text>
</a>
</g>
</g>
<!-- Node7&#45;&gt;Node9 -->
<g id="edge8_Node000007_Node000009" class="edge">
<title>Node7&#45;&gt;Node9</title>
<g id="a_edge8_Node000007_Node000009"><a xlink:title=" ">
<path fill="none" stroke="#63b8ff" d="M868.85,-426.91C893.49,-434.13 927.42,-444.07 956.78,-452.68"/>
<polygon fill="#63b8ff" stroke="#63b8ff" points="955.75,-456.02 966.33,-455.47 957.72,-449.3 955.75,-456.02"/>
</a>
</g>
</g>
<!-- Node11 -->
<g id="Node000011" class="node">
<title>Node11</title>
<g id="a_Node000011"><a xlink:href="../../df/d30/classml_1_1core_1_1anonymous__namespace_02_concurrency_8cc_03_1_1_c_executor_holder.html#afcebfc23de1baba7d76523d8d201f97c" target="_top" xlink:title=" ">
<polygon fill="white" stroke="#666666" points="1087.88,-377.75 951.88,-377.75 951.88,-336 1087.88,-336 1087.88,-377.75"/>
<text text-anchor="start" x="959.88" y="-364.25" font-family="Helvetica,sans-Serif" font-size="10.00">ml::core::anonymous</text>
<text text-anchor="start" x="959.88" y="-353" font-family="Helvetica,sans-Serif" font-size="10.00">_namespace{Concurrency</text>
<text text-anchor="middle" x="1019.88" y="-341.75" font-family="Helvetica,sans-Serif" font-size="10.00">::cc}::CExecutorHolder::get</text>
</a>
</g>
</g>
<!-- Node10&#45;&gt;Node11 -->
<g id="edge10_Node000010_Node000011" class="edge">
<title>Node10&#45;&gt;Node11</title>
<g id="a_edge10_Node000010_Node000011"><a xlink:title=" ">
<path fill="none" stroke="#63b8ff" d="M910.63,-363.34C920.39,-362.75 930.4,-362.16 940.2,-361.57"/>
<polygon fill="#63b8ff" stroke="#63b8ff" points="940.3,-365.07 950.08,-360.98 939.89,-358.08 940.3,-365.07"/>
</a>
</g>
</g>
<!-- Node14&#45;&gt;Node3 -->
<g id="edge14_Node000014_Node000003" class="edge">
<title>Node14&#45;&gt;Node3</title>
<g id="a_edge14_Node000014_Node000003"><a xlink:title=" ">
<path fill="none" stroke="#63b8ff" d="M287.26,-294.09C301.23,-301.83 315.43,-311.74 326,-323.88 354.3,-356.36 331.06,-383.89 362,-413.88 362.74,-414.59 363.5,-415.29 364.28,-415.98"/>
<polygon fill="#63b8ff" stroke="#63b8ff" points="361.88,-418.56 371.97,-421.79 366.1,-412.97 361.88,-418.56"/>
</a>
</g>
</g>
<!-- Node14&#45;&gt;Node4 -->
<g id="edge19_Node000014_Node000004" class="edge">
<title>Node14&#45;&gt;Node4</title>
<g id="a_edge19_Node000014_Node000004"><a xlink:title=" ">
<path fill="none" stroke="#63b8ff" d="M280.26,-294.02C295.45,-302.32 312.14,-312.57 326,-323.88 344.79,-339.2 341.62,-351.74 362,-364.88 366.14,-367.54 370.58,-369.94 375.17,-372.09"/>
<polygon fill="#63b8ff" stroke="#63b8ff" points="373.44,-375.16 384.02,-375.82 376.17,-368.71 373.44,-375.16"/>
</a>
</g>
</g>
<!-- Node14&#45;&gt;Node5 -->
<g id="edge21_Node000014_Node000005" class="edge">
<title>Node14&#45;&gt;Node5</title>
<g id="a_edge21_Node000014_Node000005"><a xlink:title=" ">
<path fill="none" stroke="#63b8ff" d="M295.34,-294.24C316.3,-301.65 340.12,-309.86 362,-316.88 371.07,-319.79 380.76,-322.74 390.18,-325.53"/>
<polygon fill="#63b8ff" stroke="#63b8ff" points="389.03,-328.84 399.61,-328.3 391,-322.13 389.03,-328.84"/>
</a>
</g>
</g>
<!-- Node15 -->
<g id="Node000015" class="node">
<title>Node15</title>
<g id="a_Node000015"><a xlink:href="../../db/dc5/namespaceml_1_1core.html#a431b4fea7f6773cde688df54f64ae210" target="_top" xlink:title=" ">
<polygon fill="white" stroke="#666666" points="507.75,-150.12 383,-150.12 383,-119.62 507.75,-119.62 507.75,-150.12"/>
<text text-anchor="start" x="391" y="-136.62" font-family="Helvetica,sans-Serif" font-size="10.00">ml::core::bindRetrievable</text>
<text text-anchor="middle" x="445.38" y="-125.38" font-family="Helvetica,sans-Serif" font-size="10.00">State</text>
</a>
</g>
</g>
<!-- Node14&#45;&gt;Node15 -->
<g id="edge15_Node000014_Node000015" class="edge">
<title>Node14&#45;&gt;Node15</title>
<g id="a_edge15_Node000014_Node000015"><a xlink:title=" ">
<path fill="none" stroke="#63b8ff" d="M254.29,-251.65C276.84,-226.07 318.08,-183.47 362,-158.88 365.35,-157 368.86,-155.26 372.47,-153.64"/>
<polygon fill="#63b8ff" stroke="#63b8ff" points="373.48,-157.01 381.42,-149.99 370.84,-150.53 373.48,-157.01"/>
</a>
</g>
</g>
<!-- Node16 -->
<g id="Node000016" class="node">
<title>Node16</title>
<g id="a_Node000016"><a xlink:href="../../db/d6f/classml_1_1maths_1_1analytics_1_1outliers__detail_1_1_c_lof.html#aaf3b721c70432ebd1a989949ad8e77ed" target="_top" xlink:title=" ">
<polygon fill="white" stroke="#666666" points="499.88,-101.75 390.88,-101.75 390.88,-60 499.88,-60 499.88,-101.75"/>
<text text-anchor="start" x="398.88" y="-88.25" font-family="Helvetica,sans-Serif" font-size="10.00">ml::maths::analytics</text>
<text text-anchor="start" x="398.88" y="-77" font-family="Helvetica,sans-Serif" font-size="10.00">::outliers_detail::CLof</text>
<text text-anchor="middle" x="445.38" y="-65.75" font-family="Helvetica,sans-Serif" font-size="10.00">::distance</text>
</a>
</g>
</g>
<!-- Node14&#45;&gt;Node16 -->
<g id="edge16_Node000014_Node000016" class="edge">
<title>Node14&#45;&gt;Node16</title>
<g id="a_edge16_Node000014_Node000016"><a xlink:title=" ">
<path fill="none" stroke="#63b8ff" d="M247.68,-251.64C266.74,-217.36 308.69,-149.78 362,-110.88 367.65,-106.75 373.92,-103.14 380.41,-100"/>
<polygon fill="#63b8ff" stroke="#63b8ff" points="381.63,-103.29 389.35,-96.04 378.79,-96.89 381.63,-103.29"/>
</a>
</g>
</g>
<!-- Node17 -->
<g id="Node000017" class="node">
<title>Node17</title>
<g id="a_Node000017"><a xlink:href="../../dc/dfa/classml_1_1maths_1_1analytics_1_1outliers__detail_1_1_c_nearest_neighbour_method.html#acc93291a41d61f74d48314abbc068acc" target="_top" xlink:title="The number of nearest neighbours.">
<polygon fill="white" stroke="#666666" points="510.38,-41.75 380.38,-41.75 380.38,0 510.38,0 510.38,-41.75"/>
<text text-anchor="start" x="388.38" y="-28.25" font-family="Helvetica,sans-Serif" font-size="10.00">ml::maths::analytics</text>
<text text-anchor="start" x="388.38" y="-17" font-family="Helvetica,sans-Serif" font-size="10.00">::outliers_detail::CNearest</text>
<text text-anchor="middle" x="445.38" y="-5.75" font-family="Helvetica,sans-Serif" font-size="10.00">NeighbourMethod::k</text>
</a>
</g>
</g>
<!-- Node14&#45;&gt;Node17 -->
<g id="edge17_Node000014_Node000017" class="edge">
<title>Node14&#45;&gt;Node17</title>
<g id="a_edge17_Node000014_Node000017"><a xlink:title=" ">
<path fill="none" stroke="#63b8ff" d="M242.93,-251.58C257.2,-207.81 295.62,-107.1 362,-50.88 364.64,-48.64 367.47,-46.56 370.42,-44.63"/>
<polygon fill="#63b8ff" stroke="#63b8ff" points="372,-47.76 378.91,-39.72 368.5,-41.69 372,-47.76"/>
</a>
</g>
</g>
<!-- Node18 -->
<g id="Node000018" class="node">
<title>Node18</title>
<g id="a_Node000018"><a xlink:href="../../db/d6f/classml_1_1maths_1_1analytics_1_1outliers__detail_1_1_c_lof.html#a3faf298daeab7c0de080e6e333de7a11" target="_top" xlink:title=" ">
<polygon fill="white" stroke="#666666" points="499.88,-307.75 390.88,-307.75 390.88,-266 499.88,-266 499.88,-307.75"/>
<text text-anchor="start" x="398.88" y="-294.25" font-family="Helvetica,sans-Serif" font-size="10.00">ml::maths::analytics</text>
<text text-anchor="start" x="398.88" y="-283" font-family="Helvetica,sans-Serif" font-size="10.00">::outliers_detail::CLof</text>
<text text-anchor="middle" x="445.38" y="-271.75" font-family="Helvetica,sans-Serif" font-size="10.00">::kDistanceIndex</text>
</a>
</g>
</g>
<!-- Node14&#45;&gt;Node18 -->
<g id="edge18_Node000014_Node000018" class="edge">
<title>Node14&#45;&gt;Node18</title>
<g id="a_edge18_Node000014_Node000018"><a xlink:title=" ">
<path fill="none" stroke="#63b8ff" d="M326.47,-278.93C344.21,-280.13 362.5,-281.36 379.23,-282.49"/>
<polygon fill="#63b8ff" stroke="#63b8ff" points="378.82,-285.97 389.03,-283.15 379.29,-278.98 378.82,-285.97"/>
</a>
</g>
</g>
<!-- Node19 -->
<g id="Node000019" class="node">
<title>Node19</title>
<g id="a_Node000019"><a xlink:href="../../d6/dd5/namespaceml_1_1maths_1_1common.html#ad2c1dddb40aa1fe32aab4fb6c320b595" target="_top" xlink:title="Overload minimum for CVectorNx1.">
<polygon fill="white" stroke="#666666" points="507.75,-247.5 383,-247.5 383,-228.25 507.75,-228.25 507.75,-247.5"/>
<text text-anchor="middle" x="445.38" y="-234" font-family="Helvetica,sans-Serif" font-size="10.00">ml::maths::common::min</text>
</a>
</g>
</g>
<!-- Node14&#45;&gt;Node19 -->
<g id="edge20_Node000014_Node000019" class="edge">
<title>Node14&#45;&gt;Node19</title>
<g id="a_edge20_Node000014_Node000019"><a xlink:title=" ">
<path fill="none" stroke="#63b8ff" d="M326.47,-257.73C342.03,-255.11 358.02,-252.41 373.01,-249.89"/>
<polygon fill="#63b8ff" stroke="#63b8ff" points="373.47,-253.36 382.75,-248.25 372.31,-246.46 373.47,-253.36"/>
</a>
</g>
</g>
<!-- Node20 -->
<g id="Node000020" class="node">
<title>Node20</title>
<g id="a_Node000020"><a xlink:href="../../db/d6f/classml_1_1maths_1_1analytics_1_1outliers__detail_1_1_c_lof.html#a34111bfa86033271942f331dfb5e1ecc" target="_top" xlink:title=" ">
<polygon fill="white" stroke="#666666" points="500.62,-209.75 390.12,-209.75 390.12,-168 500.62,-168 500.62,-209.75"/>
<text text-anchor="start" x="398.12" y="-196.25" font-family="Helvetica,sans-Serif" font-size="10.00">ml::maths::analytics</text>
<text text-anchor="start" x="398.12" y="-185" font-family="Helvetica,sans-Serif" font-size="10.00">::outliers_detail::CLof</text>
<text text-anchor="middle" x="445.38" y="-173.75" font-family="Helvetica,sans-Serif" font-size="10.00">::reachabilityDistance</text>
</a>
</g>
</g>
<!-- Node14&#45;&gt;Node20 -->
<g id="edge22_Node000014_Node000020" class="edge">
<title>Node14&#45;&gt;Node20</title>
<g id="a_edge22_Node000014_Node000020"><a xlink:title=" ">
<path fill="none" stroke="#63b8ff" d="M284.21,-251.59C307.53,-241.37 336.09,-229.16 362,-218.88 367.57,-216.66 373.38,-214.42 379.21,-212.22"/>
<polygon fill="#63b8ff" stroke="#63b8ff" points="380.15,-215.6 388.29,-208.82 377.7,-209.05 380.15,-215.6"/>
</a>
</g>
</g>
</g>
</svg>
