<?xml version="1.0" encoding="UTF-8" standalone="no"?>
<!DOCTYPE svg PUBLIC "-//W3C//DTD SVG 1.1//EN"
 "http://www.w3.org/Graphics/SVG/1.1/DTD/svg11.dtd">
<!-- Generated by graphviz version 10.0.1 (20240210.2158)
 -->
<!-- Title: ml::model::anonymous_namespace{CMetricBucketGatherer::cc}::SExtractFeatureData::featureData Pages: 1 -->
<svg width="1060pt" height="259pt"
 viewBox="0.00 0.00 1060.25 258.50" xmlns="http://www.w3.org/2000/svg" xmlns:xlink="http://www.w3.org/1999/xlink">
<g id="graph0" class="graph" transform="scale(1 1) rotate(0) translate(4 254.5)">
<title>ml::model::anonymous_namespace{CMetricBucketGatherer::cc}::SExtractFeatureData::featureData</title>
<!-- Node1 -->
<g id="Node000001" class="node">
<title>Node1</title>
<g id="a_Node000001"><a xlink:title=" ">
<polygon fill="#999999" stroke="#666666" points="177.25,-157.75 0,-157.75 0,-104.75 177.25,-104.75 177.25,-157.75"/>
<text text-anchor="start" x="8" y="-144.25" font-family="Helvetica,sans-Serif" font-size="10.00">ml::model::anonymous</text>
<text text-anchor="start" x="8" y="-133" font-family="Helvetica,sans-Serif" font-size="10.00">_namespace{CMetricBucketGatherer</text>
<text text-anchor="start" x="8" y="-121.75" font-family="Helvetica,sans-Serif" font-size="10.00">::cc}::SExtractFeatureData::</text>
<text text-anchor="middle" x="88.62" y="-110.5" font-family="Helvetica,sans-Serif" font-size="10.00">featureData</text>
</a>
</g>
</g>
<!-- Node2 -->
<g id="Node000002" class="node">
<title>Node2</title>
<g id="a_Node000002"><a xlink:href="../../d0/d91/classml_1_1model_1_1_c_data_gatherer.html#a92ae7d8205e44f988b79208fb8da93e5" target="_top" xlink:title=" ">
<polygon fill="white" stroke="#666666" points="348.88,-232.5 218.12,-232.5 218.12,-202 348.88,-202 348.88,-232.5"/>
<text text-anchor="start" x="226.12" y="-219" font-family="Helvetica,sans-Serif" font-size="10.00">ml::model::CDataGatherer</text>
<text text-anchor="middle" x="283.5" y="-207.75" font-family="Helvetica,sans-Serif" font-size="10.00">::attributeName</text>
</a>
</g>
</g>
<!-- Node1&#45;&gt;Node2 -->
<g id="edge1_Node000001_Node000002" class="edge">
<title>Node1&#45;&gt;Node2</title>
<g id="a_edge1_Node000001_Node000002"><a xlink:title=" ">
<path fill="none" stroke="#63b8ff" d="M146.98,-158.21C167.78,-167.85 191.51,-178.69 213.25,-188.25 219.98,-191.21 227.11,-194.28 234.14,-197.26"/>
<polygon fill="#63b8ff" stroke="#63b8ff" points="232.33,-200.29 242.9,-200.95 235.05,-193.84 232.33,-200.29"/>
</a>
</g>
</g>
<!-- Node3 -->
<g id="Node000003" class="node">
<title>Node3</title>
<g id="a_Node000003"><a xlink:href="../../d4/d01/classml_1_1model_1_1_c_bucket_gatherer.html#a90e223289901def64d3ea439b8e55318" target="_top" xlink:title=" ">
<polygon fill="white" stroke="#666666" points="530.25,-140.5 389.75,-140.5 389.75,-110 530.25,-110 530.25,-140.5"/>
<text text-anchor="start" x="397.75" y="-127" font-family="Helvetica,sans-Serif" font-size="10.00">ml::model::CBucketGatherer</text>
<text text-anchor="middle" x="460" y="-115.75" font-family="Helvetica,sans-Serif" font-size="10.00">::bucketCounts</text>
</a>
</g>
</g>
<!-- Node1&#45;&gt;Node3 -->
<g id="edge3_Node000001_Node000003" class="edge">
<title>Node1&#45;&gt;Node3</title>
<g id="a_edge3_Node000001_Node000003"><a xlink:title=" ">
<path fill="none" stroke="#63b8ff" d="M177.45,-150.44C189.43,-152.43 201.61,-154.13 213.25,-155.25 275.41,-161.23 291.91,-163.89 353.75,-155.25 370.19,-152.95 387.66,-148.73 403.55,-144.17"/>
<polygon fill="#63b8ff" stroke="#63b8ff" points="404.23,-147.61 412.81,-141.4 402.23,-140.91 404.23,-147.61"/>
</a>
</g>
</g>
<!-- Node7 -->
<g id="Node000007" class="node">
<title>Node7</title>
<g id="a_Node000007"><a xlink:href="../../d4/d01/classml_1_1model_1_1_c_bucket_gatherer.html#a96707bd6d2f781ad546d70db455813cc" target="_top" xlink:title="Get a reference to the owning data gatherer.">
<polygon fill="white" stroke="#666666" points="353.75,-146.5 213.25,-146.5 213.25,-116 353.75,-116 353.75,-146.5"/>
<text text-anchor="start" x="221.25" y="-133" font-family="Helvetica,sans-Serif" font-size="10.00">ml::model::CBucketGatherer</text>
<text text-anchor="middle" x="283.5" y="-121.75" font-family="Helvetica,sans-Serif" font-size="10.00">::dataGatherer</text>
</a>
</g>
</g>
<!-- Node1&#45;&gt;Node7 -->
<g id="edge8_Node000001_Node000007" class="edge">
<title>Node1&#45;&gt;Node7</title>
<g id="a_edge8_Node000001_Node000007"><a xlink:title=" ">
<path fill="none" stroke="#63b8ff" d="M177.6,-131.25C185.54,-131.25 193.56,-131.25 201.44,-131.25"/>
<polygon fill="#63b8ff" stroke="#63b8ff" points="201.35,-134.75 211.35,-131.25 201.35,-127.75 201.35,-134.75"/>
</a>
</g>
</g>
<!-- Node8 -->
<g id="Node000008" class="node">
<title>Node8</title>
<g id="a_Node000008"><a xlink:href="../../d4/d01/classml_1_1model_1_1_c_bucket_gatherer.html#a32ec9e67fa740e3dafa3b9b9a4d3f769" target="_top" xlink:title="Has this pid/cid pair had only explicit null records?">
<polygon fill="white" stroke="#666666" points="353.75,-97.5 213.25,-97.5 213.25,-67 353.75,-67 353.75,-97.5"/>
<text text-anchor="start" x="221.25" y="-84" font-family="Helvetica,sans-Serif" font-size="10.00">ml::model::CBucketGatherer</text>
<text text-anchor="middle" x="283.5" y="-72.75" font-family="Helvetica,sans-Serif" font-size="10.00">::hasExplicitNullsOnly</text>
</a>
</g>
</g>
<!-- Node1&#45;&gt;Node8 -->
<g id="edge9_Node000001_Node000008" class="edge">
<title>Node1&#45;&gt;Node8</title>
<g id="a_edge9_Node000001_Node000008"><a xlink:title=" ">
<path fill="none" stroke="#63b8ff" d="M177.6,-108.9C188.25,-106.19 199.04,-103.45 209.45,-100.81"/>
<polygon fill="#63b8ff" stroke="#63b8ff" points="210.26,-104.21 219.09,-98.36 208.54,-97.43 210.26,-104.21"/>
</a>
</g>
</g>
<!-- Node9 -->
<g id="Node000009" class="node">
<title>Node9</title>
<g id="a_Node000009"><a xlink:href="../../d0/d91/classml_1_1model_1_1_c_data_gatherer.html#a3391c4680b77f33e420de8f1be5d99a9" target="_top" xlink:title=" ">
<polygon fill="white" stroke="#666666" points="348.88,-30.5 218.12,-30.5 218.12,0 348.88,0 348.88,-30.5"/>
<text text-anchor="start" x="226.12" y="-17" font-family="Helvetica,sans-Serif" font-size="10.00">ml::model::CDataGatherer</text>
<text text-anchor="middle" x="283.5" y="-5.75" font-family="Helvetica,sans-Serif" font-size="10.00">::personName</text>
</a>
</g>
</g>
<!-- Node1&#45;&gt;Node9 -->
<g id="edge12_Node000001_Node000009" class="edge">
<title>Node1&#45;&gt;Node9</title>
<g id="a_edge12_Node000001_Node000009"><a xlink:title=" ">
<path fill="none" stroke="#63b8ff" d="M134.36,-104.35C168.5,-83.81 214.92,-55.9 246.64,-36.82"/>
<polygon fill="#63b8ff" stroke="#63b8ff" points="248.33,-39.89 255.09,-31.73 244.72,-33.89 248.33,-39.89"/>
</a>
</g>
</g>
<!-- Node2&#45;&gt;Node2 -->
<g id="edge2_Node000002_Node000002" class="edge">
<title>Node2&#45;&gt;Node2</title>
<g id="a_edge2_Node000002_Node000002"><a xlink:title=" ">
<path fill="none" stroke="#63b8ff" d="M252.22,-232.99C245.84,-242.06 256.27,-250.5 283.5,-250.5 298.39,-250.5 308.26,-247.97 313.1,-244.2"/>
<polygon fill="#63b8ff" stroke="#63b8ff" points="316.54,-244.89 314.55,-234.48 309.61,-243.86 316.54,-244.89"/>
</a>
</g>
</g>
<!-- Node4 -->
<g id="Node000004" class="node">
<title>Node4</title>
<g id="a_Node000004"><a xlink:href="../../d0/de2/classml_1_1model_1_1_c_bucket_queue.html#a8dfde94df2220a17e8f3770b069cca6d" target="_top" xlink:title=" ">
<polygon fill="white" stroke="#666666" points="717.25,-112.88 566.25,-112.88 566.25,-93.62 717.25,-93.62 717.25,-112.88"/>
<text text-anchor="middle" x="641.75" y="-99.38" font-family="Helvetica,sans-Serif" font-size="10.00">ml::model::CBucketQueue::get</text>
</a>
</g>
</g>
<!-- Node3&#45;&gt;Node4 -->
<g id="edge4_Node000003_Node000004" class="edge">
<title>Node3&#45;&gt;Node4</title>
<g id="a_edge4_Node000003_Node000004"><a xlink:title=" ">
<path fill="none" stroke="#63b8ff" d="M530.5,-116.74C538.35,-115.78 546.43,-114.79 554.47,-113.81"/>
<polygon fill="#63b8ff" stroke="#63b8ff" points="554.77,-117.3 564.27,-112.61 553.92,-110.35 554.77,-117.3"/>
</a>
</g>
</g>
<!-- Node5 -->
<g id="Node000005" class="node">
<title>Node5</title>
<g id="a_Node000005"><a xlink:href="../../d0/de2/classml_1_1model_1_1_c_bucket_queue.html#ac2375c571d8c64d3b70899ffd4603cab" target="_top" xlink:title="Get the index of the bucket containing time.">
<polygon fill="white" stroke="#666666" points="884.75,-118.5 753.25,-118.5 753.25,-88 884.75,-88 884.75,-118.5"/>
<text text-anchor="start" x="761.25" y="-105" font-family="Helvetica,sans-Serif" font-size="10.00">ml::model::CBucketQueue</text>
<text text-anchor="middle" x="819" y="-93.75" font-family="Helvetica,sans-Serif" font-size="10.00">::index</text>
</a>
</g>
</g>
<!-- Node4&#45;&gt;Node5 -->
<g id="edge5_Node000004_Node000005" class="edge">
<title>Node4&#45;&gt;Node5</title>
<g id="a_edge5_Node000004_Node000005"><a xlink:title=" ">
<path fill="none" stroke="#63b8ff" d="M717.58,-103.25C725.46,-103.25 733.47,-103.25 741.37,-103.25"/>
<polygon fill="#63b8ff" stroke="#63b8ff" points="741.31,-106.75 751.31,-103.25 741.31,-99.75 741.31,-106.75"/>
</a>
</g>
</g>
<!-- Node5&#45;&gt;Node5 -->
<g id="edge6_Node000005_Node000005" class="edge">
<title>Node5&#45;&gt;Node5</title>
<g id="a_edge6_Node000005_Node000005"><a xlink:title=" ">
<path fill="none" stroke="#63b8ff" d="M789.32,-118.99C783.26,-128.06 793.16,-136.5 819,-136.5 833.13,-136.5 842.5,-133.97 847.09,-130.2"/>
<polygon fill="#63b8ff" stroke="#63b8ff" points="850.53,-130.88 848.47,-120.48 843.6,-129.89 850.53,-130.88"/>
</a>
</g>
</g>
<!-- Node6 -->
<g id="Node000006" class="node">
<title>Node6</title>
<g id="a_Node000006"><a xlink:href="../../d0/de2/classml_1_1model_1_1_c_bucket_queue.html#a419b759a87b64a8194fe198fd0909204" target="_top" xlink:title="Returns the size of the queue.">
<polygon fill="white" stroke="#666666" points="1052.25,-118.5 920.75,-118.5 920.75,-88 1052.25,-88 1052.25,-118.5"/>
<text text-anchor="start" x="928.75" y="-105" font-family="Helvetica,sans-Serif" font-size="10.00">ml::model::CBucketQueue</text>
<text text-anchor="middle" x="986.5" y="-93.75" font-family="Helvetica,sans-Serif" font-size="10.00">::size</text>
</a>
</g>
</g>
<!-- Node5&#45;&gt;Node6 -->
<g id="edge7_Node000005_Node000006" class="edge">
<title>Node5&#45;&gt;Node6</title>
<g id="a_edge7_Node000005_Node000006"><a xlink:title=" ">
<path fill="none" stroke="#63b8ff" d="M884.93,-103.25C892.88,-103.25 901.04,-103.25 909.13,-103.25"/>
<polygon fill="#63b8ff" stroke="#63b8ff" points="908.97,-106.75 918.97,-103.25 908.97,-99.75 908.97,-106.75"/>
</a>
</g>
</g>
<!-- Node8&#45;&gt;Node3 -->
<g id="edge10_Node000008_Node000003" class="edge">
<title>Node8&#45;&gt;Node3</title>
<g id="a_edge10_Node000008_Node000003"><a xlink:title=" ">
<path fill="none" stroke="#63b8ff" d="M347.99,-97.9C359.78,-100.8 372.2,-103.86 384.28,-106.84"/>
<polygon fill="#63b8ff" stroke="#63b8ff" points="383.25,-110.19 393.79,-109.18 384.92,-103.39 383.25,-110.19"/>
</a>
</g>
</g>
<!-- Node8&#45;&gt;Node4 -->
<g id="edge11_Node000008_Node000004" class="edge">
<title>Node8&#45;&gt;Node4</title>
<g id="a_edge11_Node000008_Node000004"><a xlink:title=" ">
<path fill="none" stroke="#63b8ff" d="M354.03,-86.35C411.41,-89.73 493.1,-94.55 554.62,-98.17"/>
<polygon fill="#63b8ff" stroke="#63b8ff" points="554.16,-101.65 564.35,-98.75 554.57,-94.66 554.16,-101.65"/>
</a>
</g>
</g>
<!-- Node9&#45;&gt;Node9 -->
<g id="edge13_Node000009_Node000009" class="edge">
<title>Node9&#45;&gt;Node9</title>
<g id="a_edge13_Node000009_Node000009"><a xlink:title=" ">
<path fill="none" stroke="#63b8ff" d="M252.22,-30.99C245.84,-40.06 256.27,-48.5 283.5,-48.5 298.39,-48.5 308.26,-45.97 313.1,-42.2"/>
<polygon fill="#63b8ff" stroke="#63b8ff" points="316.54,-42.89 314.55,-32.48 309.61,-41.86 316.54,-42.89"/>
</a>
</g>
</g>
</g>
</svg>
