<?xml version="1.0" encoding="UTF-8" standalone="no"?>
<!DOCTYPE svg PUBLIC "-//W3C//DTD SVG 1.1//EN"
 "http://www.w3.org/Graphics/SVG/1.1/DTD/svg11.dtd">
<!-- Generated by graphviz version 10.0.1 (20240210.2158)
 -->
<!-- Title: ml::core::CStaticThreadPool::shutdown Pages: 1 -->
<svg width="324pt" height="88pt"
 viewBox="0.00 0.00 323.50 87.50" xmlns="http://www.w3.org/2000/svg" xmlns:xlink="http://www.w3.org/1999/xlink">
<g id="graph0" class="graph" transform="scale(1 1) rotate(0) translate(4 83.5)">
<title>ml::core::CStaticThreadPool::shutdown</title>
<!-- Node1 -->
<g id="Node000001" class="node">
<title>Node1</title>
<g id="a_Node000001"><a xlink:title=" ">
<polygon fill="#999999" stroke="#666666" points="315.5,-54.5 175.75,-54.5 175.75,-24 315.5,-24 315.5,-54.5"/>
<text text-anchor="start" x="183.75" y="-41" font-family="Helvetica,sans-Serif" font-size="10.00">ml::core::CStaticThreadPool</text>
<text text-anchor="middle" x="245.62" y="-29.75" font-family="Helvetica,sans-Serif" font-size="10.00">::shutdown</text>
</a>
</g>
</g>
<!-- Node2 -->
<g id="Node000002" class="node">
<title>Node2</title>
<g id="a_Node000002"><a xlink:href="../../d3/d9d/classml_1_1core_1_1_c_static_thread_pool.html#a30c615fc405803fd59ece5c9b58f63f2" target="_top" xlink:title=" ">
<polygon fill="white" stroke="#666666" points="139.75,-79.5 0,-79.5 0,-49 139.75,-49 139.75,-79.5"/>
<text text-anchor="start" x="8" y="-66" font-family="Helvetica,sans-Serif" font-size="10.00">ml::core::CStaticThreadPool</text>
<text text-anchor="middle" x="69.88" y="-54.75" font-family="Helvetica,sans-Serif" font-size="10.00">::CStaticThreadPool</text>
</a>
</g>
</g>
<!-- Node1&#45;&gt;Node2 -->
<g id="edge1_Node000001_Node000002" class="edge">
<title>Node1&#45;&gt;Node2</title>
<g id="a_edge1_Node000001_Node000002"><a xlink:title=" ">
<path fill="none" stroke="#63b8ff" d="M164.16,-50.83C156.12,-51.98 148,-53.15 140.09,-54.29"/>
<polygon fill="#63b8ff" stroke="#63b8ff" points="164.56,-54.31 173.96,-49.42 163.56,-47.38 164.56,-54.31"/>
</a>
</g>
</g>
<!-- Node3 -->
<g id="Node000003" class="node">
<title>Node3</title>
<g id="a_Node000003"><a xlink:href="../../d3/d9d/classml_1_1core_1_1_c_static_thread_pool.html#aa32c7dd5a9a369854d965964a884034a" target="_top" xlink:title=" ">
<polygon fill="white" stroke="#666666" points="139.75,-30.5 0,-30.5 0,0 139.75,0 139.75,-30.5"/>
<text text-anchor="start" x="8" y="-17" font-family="Helvetica,sans-Serif" font-size="10.00">ml::core::CStaticThreadPool</text>
<text text-anchor="middle" x="69.88" y="-5.75" font-family="Helvetica,sans-Serif" font-size="10.00">::~CStaticThreadPool</text>
</a>
</g>
</g>
<!-- Node1&#45;&gt;Node3 -->
<g id="edge2_Node000001_Node000003" class="edge">
<title>Node1&#45;&gt;Node3</title>
<g id="a_edge2_Node000001_Node000003"><a xlink:title=" ">
<path fill="none" stroke="#63b8ff" d="M164.16,-28.14C156.12,-27.02 148,-25.9 140.09,-24.81"/>
<polygon fill="#63b8ff" stroke="#63b8ff" points="163.57,-31.59 173.96,-29.49 164.53,-24.65 163.57,-31.59"/>
</a>
</g>
</g>
</g>
</svg>
