<?xml version="1.0" encoding="UTF-8" standalone="no"?>
<!DOCTYPE svg PUBLIC "-//W3C//DTD SVG 1.1//EN"
 "http://www.w3.org/Graphics/SVG/1.1/DTD/svg11.dtd">
<!-- Generated by graphviz version 10.0.1 (20240210.2158)
 -->
<!-- Title: ml::model::CAnomalyDetector::keyAcceptPersistInserter Pages: 1 -->
<svg width="532pt" height="88pt"
 viewBox="0.00 0.00 531.50 87.50" xmlns="http://www.w3.org/2000/svg" xmlns:xlink="http://www.w3.org/1999/xlink">
<g id="graph0" class="graph" transform="scale(1 1) rotate(0) translate(4 83.5)">
<title>ml::model::CAnomalyDetector::keyAcceptPersistInserter</title>
<!-- Node1 -->
<g id="Node000001" class="node">
<title>Node1</title>
<g id="a_Node000001"><a xlink:title=" ">
<polygon fill="#999999" stroke="#666666" points="148,-54.5 0,-54.5 0,-24 148,-24 148,-54.5"/>
<text text-anchor="start" x="8" y="-41" font-family="Helvetica,sans-Serif" font-size="10.00">ml::model::CAnomalyDetector</text>
<text text-anchor="middle" x="74" y="-29.75" font-family="Helvetica,sans-Serif" font-size="10.00">::keyAcceptPersistInserter</text>
</a>
</g>
</g>
<!-- Node2 -->
<g id="Node000002" class="node">
<title>Node2</title>
<g id="a_Node000002"><a xlink:href="../../db/d69/classml_1_1model_1_1_c_search_key.html#a55edc1fdfc164c41088ea1c891d07c5b" target="_top" xlink:title="Persist state by passing information to the supplied inserter.">
<polygon fill="white" stroke="#666666" points="320,-79.5 199.75,-79.5 199.75,-49 320,-49 320,-79.5"/>
<text text-anchor="start" x="207.75" y="-66" font-family="Helvetica,sans-Serif" font-size="10.00">ml::model::CSearchKey</text>
<text text-anchor="middle" x="259.88" y="-54.75" font-family="Helvetica,sans-Serif" font-size="10.00">::acceptPersistInserter</text>
</a>
</g>
</g>
<!-- Node1&#45;&gt;Node2 -->
<g id="edge1_Node000001_Node000002" class="edge">
<title>Node1&#45;&gt;Node2</title>
<g id="a_edge1_Node000001_Node000002"><a xlink:title=" ">
<path fill="none" stroke="#63b8ff" d="M148.46,-49.24C161.54,-51.02 175.14,-52.86 188.13,-54.63"/>
<polygon fill="#63b8ff" stroke="#63b8ff" points="187.49,-58.08 197.87,-55.96 188.44,-51.14 187.49,-58.08"/>
</a>
</g>
</g>
<!-- Node4 -->
<g id="Node000004" class="node">
<title>Node4</title>
<g id="a_Node000004"><a xlink:href="../../d6/d96/classml_1_1core_1_1_c_state_persist_inserter.html#a599589fbf44e55664572fd485a2ac497" target="_top" xlink:title=" ">
<polygon fill="white" stroke="#666666" points="335.75,-30.5 184,-30.5 184,0 335.75,0 335.75,-30.5"/>
<text text-anchor="start" x="192" y="-17" font-family="Helvetica,sans-Serif" font-size="10.00">ml::core::CStatePersistInserter</text>
<text text-anchor="middle" x="259.88" y="-5.75" font-family="Helvetica,sans-Serif" font-size="10.00">::insertLevel</text>
</a>
</g>
</g>
<!-- Node1&#45;&gt;Node4 -->
<g id="edge3_Node000001_Node000004" class="edge">
<title>Node1&#45;&gt;Node4</title>
<g id="a_edge3_Node000001_Node000004"><a xlink:title=" ">
<path fill="none" stroke="#63b8ff" d="M148.46,-29.66C156.35,-28.63 164.43,-27.58 172.45,-26.53"/>
<polygon fill="#63b8ff" stroke="#63b8ff" points="172.76,-30.02 182.22,-25.25 171.85,-23.08 172.76,-30.02"/>
</a>
</g>
</g>
<!-- Node3 -->
<g id="Node000003" class="node">
<title>Node3</title>
<g id="a_Node000003"><a xlink:href="../../d6/d96/classml_1_1core_1_1_c_state_persist_inserter.html#a21319d2ecfcb0ab1aceecf2a5a463d3a" target="_top" xlink:title="Store a name/value.">
<polygon fill="white" stroke="#666666" points="523.5,-79.5 371.75,-79.5 371.75,-49 523.5,-49 523.5,-79.5"/>
<text text-anchor="start" x="379.75" y="-66" font-family="Helvetica,sans-Serif" font-size="10.00">ml::core::CStatePersistInserter</text>
<text text-anchor="middle" x="447.62" y="-54.75" font-family="Helvetica,sans-Serif" font-size="10.00">::insertValue</text>
</a>
</g>
</g>
<!-- Node2&#45;&gt;Node3 -->
<g id="edge2_Node000002_Node000003" class="edge">
<title>Node2&#45;&gt;Node3</title>
<g id="a_edge2_Node000002_Node000003"><a xlink:title=" ">
<path fill="none" stroke="#63b8ff" d="M320.41,-64.25C333.1,-64.25 346.74,-64.25 360.2,-64.25"/>
<polygon fill="#63b8ff" stroke="#63b8ff" points="359.92,-67.75 369.92,-64.25 359.92,-60.75 359.92,-67.75"/>
</a>
</g>
</g>
</g>
</svg>
