<?xml version="1.0" encoding="UTF-8" standalone="no"?>
<!DOCTYPE svg PUBLIC "-//W3C//DTD SVG 1.1//EN"
 "http://www.w3.org/Graphics/SVG/1.1/DTD/svg11.dtd">
<!-- Generated by graphviz version 10.0.1 (20240210.2158)
 -->
<!-- Title: ml::model::CAnomalyDetector::buildResults Pages: 1 -->
<!--zoomable 389 -->

<svg id="main" version="1.1" xmlns="http://www.w3.org/2000/svg" xmlns:xlink="http://www.w3.org/1999/xlink" xml:space="preserve" onload="init(evt)">
<style type="text/css"><![CDATA[
.node, .edge {opacity: 0.7;}
.node.selected, .edge.selected {opacity: 1;}
.edge:hover path { stroke: red; }
.edge:hover polygon { stroke: red; fill: red; }
]]></style>

<defs>
  <circle id="rim" cx="0" cy="0" r="7"/>
  <circle id="rim2" cx="0" cy="0" r="3.5"/>
  <g id="zoomPlus">
    <use xlink:href="#rim" fill="#404040"><set attributeName="fill" to="#808080" begin="zoomplus.mouseover" end="zoomplus.mouseout"/></use>
    <path d="M-4,0h8M0,-4v8" fill="none" stroke="white" stroke-width="1.5" pointer-events="none"/>
  </g>
  <g id="zoomMin">
    <use xlink:href="#rim" fill="#404040"><set attributeName="fill" to="#808080" begin="zoomminus.mouseover" end="zoomminus.mouseout"/></use>
    <path d="M-4,0h8" fill="none" stroke="white" stroke-width="1.5" pointer-events="none"/>
  </g>
  <g id="arrowUp" transform="translate(30 24)">
    <use xlink:href="#rim"/>
    <path pointer-events="none" fill="none" stroke="white" stroke-width="1.5" d="M0,-3.0v7 M-2.5,-0.5L0,-3.0L2.5,-0.5"/>
  </g>
  <g id="arrowRight" transform="rotate(90) translate(36 -43)">
    <use xlink:href="#rim"/>
    <path pointer-events="none" fill="none" stroke="white" stroke-width="1.5" d="M0,-3.0v7 M-2.5,-0.5L0,-3.0L2.5,-0.5"/>
  </g>
  <g id="arrowDown" transform="rotate(180) translate(-30 -48)">
    <use xlink:href="#rim"/>
    <path pointer-events="none" fill="none" stroke="white" stroke-width="1.5" d="M0,-3.0v7 M-2.5,-0.5L0,-3.0L2.5,-0.5"/>
  </g>
  <g id="arrowLeft" transform="rotate(270) translate(-36 17)">
    <use xlink:href="#rim"/>
    <path pointer-events="none" fill="none" stroke="white" stroke-width="1.5" d="M0,-3.0v7 M-2.5,-0.5L0,-3.0L2.5,-0.5"/>
  </g>
  <g id="resetDef">
    <use xlink:href="#rim2" fill="#404040"><set attributeName="fill" to="#808080" begin="reset.mouseover" end="reset.mouseout"/></use>
  </g>
</defs>
<script type="application/ecmascript">
var viewWidth = 1465;
var viewHeight = 389;
var sectionId = 'dynsection-13';
</script>
<script type="application/ecmascript" xlink:href="../../svg.min.js"/>
<svg id="graph" class="graph">
<g id="viewport">
<title>ml::model::CAnomalyDetector::buildResults</title>
<!-- Node1 -->
<g id="Node000001" class="node">
<title>Node1</title>
<g id="a_Node000001"><a xlink:title="Update the results with this detector model&#39;s results.">
<polygon fill="#999999" stroke="#666666" points="148,-211.5 0,-211.5 0,-181 148,-181 148,-211.5"/>
<text text-anchor="start" x="8" y="-198" font-family="Helvetica,sans-Serif" font-size="10.00">ml::model::CAnomalyDetector</text>
<text text-anchor="middle" x="74" y="-186.75" font-family="Helvetica,sans-Serif" font-size="10.00">::buildResults</text>
</a>
</g>
</g>
<!-- Node2 -->
<g id="Node000002" class="node">
<title>Node2</title>
<g id="a_Node000002"><a xlink:href="../../da/de5/classml_1_1model_1_1_c_anomaly_detector.html#a0bd562ebde300c9318a312a9020420fc" target="_top" xlink:title="Get the bucket length.">
<polygon fill="white" stroke="#666666" points="516,-380.5 368,-380.5 368,-350 516,-350 516,-380.5"/>
<text text-anchor="start" x="376" y="-367" font-family="Helvetica,sans-Serif" font-size="10.00">ml::model::CAnomalyDetector</text>
<text text-anchor="middle" x="442" y="-355.75" font-family="Helvetica,sans-Serif" font-size="10.00">::bucketLength</text>
</a>
</g>
</g>
<!-- Node1&#45;&gt;Node2 -->
<g id="edge1_Node000001_Node000002" class="edge">
<title>Node1&#45;&gt;Node2</title>
<g id="a_edge1_Node000001_Node000002"><a xlink:title=" ">
<path fill="none" stroke="#63b8ff" d="M81.95,-211.64C96.27,-241.33 132.11,-306.16 184,-335.25 236.2,-364.52 303.67,-371.45 356.38,-371.36"/>
<polygon fill="#63b8ff" stroke="#63b8ff" points="356.26,-374.86 366.22,-371.25 356.18,-367.87 356.26,-374.86"/>
</a>
</g>
</g>
<!-- Node3 -->
<g id="Node000003" class="node">
<title>Node3</title>
<g id="a_Node000003"><a xlink:href="../../db/d5f/classml_1_1model_1_1_c_anomaly_detector_model_config.html#a742354d4ac7a6d46f6d6b3c39f8a155e" target="_top" xlink:title="Set the data bucketing interval.">
<polygon fill="white" stroke="#666666" points="516,-282.5 368,-282.5 368,-252 516,-252 516,-282.5"/>
<text text-anchor="start" x="376" y="-269" font-family="Helvetica,sans-Serif" font-size="10.00">ml::model::CAnomalyDetector</text>
<text text-anchor="middle" x="442" y="-257.75" font-family="Helvetica,sans-Serif" font-size="10.00">ModelConfig::bucketLength</text>
</a>
</g>
</g>
<!-- Node1&#45;&gt;Node3 -->
<g id="edge2_Node000001_Node000003" class="edge">
<title>Node1&#45;&gt;Node3</title>
<g id="a_edge2_Node000001_Node000003"><a xlink:title=" ">
<path fill="none" stroke="#63b8ff" d="M105.15,-211.9C126.57,-222.28 156.32,-235.24 184,-242.25 240.46,-256.56 305.81,-262.78 356.48,-265.44"/>
<polygon fill="#63b8ff" stroke="#63b8ff" points="356.04,-268.92 366.2,-265.91 356.38,-261.93 356.04,-268.92"/>
</a>
</g>
</g>
<!-- Node6 -->
<g id="Node000006" class="node">
<title>Node6</title>
<g id="a_Node000006"><a xlink:href="../../da/de5/classml_1_1model_1_1_c_anomaly_detector.html#a82f53955869f9555fa4335a54cafe2ac" target="_top" xlink:title=" ">
<polygon fill="white" stroke="#666666" points="332,-326.5 184,-326.5 184,-296 332,-296 332,-326.5"/>
<text text-anchor="start" x="192" y="-313" font-family="Helvetica,sans-Serif" font-size="10.00">ml::model::CAnomalyDetector</text>
<text text-anchor="middle" x="258" y="-301.75" font-family="Helvetica,sans-Serif" font-size="10.00">::buildResultsHelper</text>
</a>
</g>
</g>
<!-- Node1&#45;&gt;Node6 -->
<g id="edge6_Node000001_Node000006" class="edge">
<title>Node1&#45;&gt;Node6</title>
<g id="a_edge6_Node000001_Node000006"><a xlink:title=" ">
<path fill="none" stroke="#63b8ff" d="M93.03,-211.78C113.96,-229.34 149.97,-258.1 184,-278.25 191.57,-282.74 199.86,-287.02 208.05,-290.93"/>
<polygon fill="#63b8ff" stroke="#63b8ff" points="206.39,-294.02 216.93,-295.03 209.32,-287.66 206.39,-294.02"/>
</a>
</g>
</g>
<!-- Node9 -->
<g id="Node000009" class="node">
<title>Node9</title>
<g id="a_Node000009"><a xlink:href="../../d4/d25/classml_1_1model_1_1_c_resource_monitor.html#a017c483afa2953800923ab6f0da0d9c6" target="_top" xlink:title="Clears all extra memory.">
<polygon fill="white" stroke="#666666" points="699.25,-152.5 552.75,-152.5 552.75,-122 699.25,-122 699.25,-152.5"/>
<text text-anchor="start" x="560.75" y="-139" font-family="Helvetica,sans-Serif" font-size="10.00">ml::model::CResourceMonitor</text>
<text text-anchor="middle" x="626" y="-127.75" font-family="Helvetica,sans-Serif" font-size="10.00">::clearExtraMemory</text>
</a>
</g>
</g>
<!-- Node1&#45;&gt;Node9 -->
<g id="edge11_Node000001_Node000009" class="edge">
<title>Node1&#45;&gt;Node9</title>
<g id="a_edge11_Node000001_Node000009"><a xlink:title=" ">
<path fill="none" stroke="#63b8ff" d="M148.32,-188.38C250.19,-177.46 434.06,-157.73 541.22,-146.24"/>
<polygon fill="#63b8ff" stroke="#63b8ff" points="541.55,-149.72 551.12,-145.18 540.8,-142.76 541.55,-149.72"/>
</a>
</g>
</g>
<!-- Node17 -->
<g id="Node000017" class="node">
<title>Node17</title>
<g id="a_Node000017"><a xlink:href="../../d2/d3e/classml_1_1maths_1_1common_1_1_c_integer_tools.html#af6730dab6229fee67aaa34a8290491ad" target="_top" xlink:title=" ">
<polygon fill="white" stroke="#666666" points="312.5,-128.5 203.5,-128.5 203.5,-98 312.5,-98 312.5,-128.5"/>
<text text-anchor="start" x="211.5" y="-115" font-family="Helvetica,sans-Serif" font-size="10.00">ml::maths::common::</text>
<text text-anchor="middle" x="258" y="-103.75" font-family="Helvetica,sans-Serif" font-size="10.00">CIntegerTools::floor</text>
</a>
</g>
</g>
<!-- Node1&#45;&gt;Node17 -->
<g id="edge22_Node000001_Node000017" class="edge">
<title>Node1&#45;&gt;Node17</title>
<g id="a_edge22_Node000001_Node000017"><a xlink:title=" ">
<path fill="none" stroke="#63b8ff" d="M104.76,-180.68C126.5,-169.52 156.8,-154.37 184,-142.25 190.86,-139.19 198.15,-136.11 205.37,-133.15"/>
<polygon fill="#63b8ff" stroke="#63b8ff" points="206.46,-136.48 214.42,-129.49 203.84,-129.99 206.46,-136.48"/>
</a>
</g>
</g>
<!-- Node18 -->
<g id="Node000018" class="node">
<title>Node18</title>
<g id="a_Node000018"><a xlink:href="../../df/d58/classml_1_1model_1_1_c_limits.html#ac4583bfef9fed58d9a2fbd066fbbb75f" target="_top" xlink:title="Access to the resource monitor.">
<polygon fill="white" stroke="#666666" points="307.25,-79.5 208.75,-79.5 208.75,-49 307.25,-49 307.25,-79.5"/>
<text text-anchor="start" x="216.75" y="-66" font-family="Helvetica,sans-Serif" font-size="10.00">ml::model::CLimits</text>
<text text-anchor="middle" x="258" y="-54.75" font-family="Helvetica,sans-Serif" font-size="10.00">::resourceMonitor</text>
</a>
</g>
</g>
<!-- Node1&#45;&gt;Node18 -->
<g id="edge23_Node000001_Node000018" class="edge">
<title>Node1&#45;&gt;Node18</title>
<g id="a_edge23_Node000001_Node000018"><a xlink:title=" ">
<path fill="none" stroke="#63b8ff" d="M87.07,-180.57C105.58,-157.51 143.16,-114.46 184,-89.25 188.47,-86.49 193.28,-83.99 198.22,-81.74"/>
<polygon fill="#63b8ff" stroke="#63b8ff" points="199.21,-85.12 207.09,-78.03 196.51,-78.66 199.21,-85.12"/>
</a>
</g>
</g>
<!-- Node19 -->
<g id="Node000019" class="node">
<title>Node19</title>
<g id="a_Node000019"><a xlink:href="../../da/de5/classml_1_1model_1_1_c_anomaly_detector.html#ab059a961c32c5243f63c122596c30abd" target="_top" xlink:title="Sample the model in the interval [startTime, endTime].">
<polygon fill="white" stroke="#666666" points="332,-233.5 184,-233.5 184,-203 332,-203 332,-233.5"/>
<text text-anchor="start" x="192" y="-220" font-family="Helvetica,sans-Serif" font-size="10.00">ml::model::CAnomalyDetector</text>
<text text-anchor="middle" x="258" y="-208.75" font-family="Helvetica,sans-Serif" font-size="10.00">::sample</text>
</a>
</g>
</g>
<!-- Node1&#45;&gt;Node19 -->
<g id="edge24_Node000001_Node000019" class="edge">
<title>Node1&#45;&gt;Node19</title>
<g id="a_edge24_Node000001_Node000019"><a xlink:title=" ">
<path fill="none" stroke="#63b8ff" d="M148.24,-205.1C156.16,-206.06 164.27,-207.04 172.31,-208.01"/>
<polygon fill="#63b8ff" stroke="#63b8ff" points="171.76,-211.47 182.11,-209.2 172.6,-204.52 171.76,-211.47"/>
</a>
</g>
</g>
<!-- Node27 -->
<g id="Node000027" class="node">
<title>Node27</title>
<g id="a_Node000027"><a xlink:href="../../da/de5/classml_1_1model_1_1_c_anomaly_detector.html#af52bc9edca07cb59e19e21cb845cfa3a" target="_top" xlink:title="Updates the last sampled bucket.">
<polygon fill="white" stroke="#666666" points="332,-30.5 184,-30.5 184,0 332,0 332,-30.5"/>
<text text-anchor="start" x="192" y="-17" font-family="Helvetica,sans-Serif" font-size="10.00">ml::model::CAnomalyDetector</text>
<text text-anchor="middle" x="258" y="-5.75" font-family="Helvetica,sans-Serif" font-size="10.00">::updateLastSampledBucket</text>
</a>
</g>
</g>
<!-- Node1&#45;&gt;Node27 -->
<g id="edge37_Node000001_Node000027" class="edge">
<title>Node1&#45;&gt;Node27</title>
<g id="a_edge37_Node000001_Node000027"><a xlink:title=" ">
<path fill="none" stroke="#63b8ff" d="M81.85,-180.5C96.23,-149.23 132.53,-79.01 184,-40.25 185.77,-38.92 187.61,-37.66 189.51,-36.46"/>
<polygon fill="#63b8ff" stroke="#63b8ff" points="191.03,-39.62 198.09,-31.72 187.64,-33.49 191.03,-39.62"/>
</a>
</g>
</g>
<!-- Node4 -->
<g id="Node000004" class="node">
<title>Node4</title>
<g id="a_Node000004"><a xlink:href="../../db/d5f/classml_1_1model_1_1_c_anomaly_detector_model_config.html#ad708938c61acd59b0a5b161a8735c408" target="_top" xlink:title=" ">
<polygon fill="white" stroke="#666666" points="700,-273.5 552,-273.5 552,-243 700,-243 700,-273.5"/>
<text text-anchor="start" x="560" y="-260" font-family="Helvetica,sans-Serif" font-size="10.00">ml::model::CAnomalyDetector</text>
<text text-anchor="middle" x="626" y="-248.75" font-family="Helvetica,sans-Serif" font-size="10.00">ModelConfig::factory</text>
</a>
</g>
</g>
<!-- Node3&#45;&gt;Node4 -->
<g id="edge3_Node000003_Node000004" class="edge">
<title>Node3&#45;&gt;Node4</title>
<g id="a_edge3_Node000003_Node000004"><a xlink:title=" ">
<path fill="none" stroke="#63b8ff" d="M516.24,-263.63C524.16,-263.24 532.27,-262.84 540.31,-262.44"/>
<polygon fill="#63b8ff" stroke="#63b8ff" points="540.29,-265.94 550.1,-261.95 539.94,-258.95 540.29,-265.94"/>
</a>
</g>
</g>
<!-- Node4&#45;&gt;Node4 -->
<g id="edge5_Node000004_Node000004" class="edge">
<title>Node4&#45;&gt;Node4</title>
<g id="a_edge5_Node000004_Node000004"><a xlink:title=" ">
<path fill="none" stroke="#63b8ff" d="M593.53,-273.99C586.9,-283.06 597.73,-291.5 626,-291.5 641.46,-291.5 651.71,-288.97 656.73,-285.2"/>
<polygon fill="#63b8ff" stroke="#63b8ff" points="660.16,-285.9 658.24,-275.48 653.25,-284.83 660.16,-285.9"/>
</a>
</g>
</g>
<!-- Node5 -->
<g id="Node000005" class="node">
<title>Node5</title>
<g id="a_Node000005"><a xlink:href="../../db/d69/classml_1_1model_1_1_c_search_key.html#a7bda6bb372b0d85dcbdcc3932fee829c" target="_top" xlink:title="Get an identifier for this search.">
<polygon fill="white" stroke="#666666" points="869.38,-273.5 749.12,-273.5 749.12,-243 869.38,-243 869.38,-273.5"/>
<text text-anchor="start" x="757.12" y="-260" font-family="Helvetica,sans-Serif" font-size="10.00">ml::model::CSearchKey</text>
<text text-anchor="middle" x="809.25" y="-248.75" font-family="Helvetica,sans-Serif" font-size="10.00">::detectorIndex</text>
</a>
</g>
</g>
<!-- Node4&#45;&gt;Node5 -->
<g id="edge4_Node000004_Node000005" class="edge">
<title>Node4&#45;&gt;Node5</title>
<g id="a_edge4_Node000004_Node000005"><a xlink:title=" ">
<path fill="none" stroke="#63b8ff" d="M700.46,-258.25C712.66,-258.25 725.28,-258.25 737.41,-258.25"/>
<polygon fill="#63b8ff" stroke="#63b8ff" points="737.34,-261.75 747.34,-258.25 737.34,-254.75 737.34,-261.75"/>
</a>
</g>
</g>
<!-- Node6&#45;&gt;Node2 -->
<g id="edge7_Node000006_Node000002" class="edge">
<title>Node6&#45;&gt;Node2</title>
<g id="a_edge7_Node000006_Node000002"><a xlink:title=" ">
<path fill="none" stroke="#63b8ff" d="M311.64,-326.87C332.11,-332.94 355.76,-339.96 377.19,-346.32"/>
<polygon fill="#63b8ff" stroke="#63b8ff" points="376.13,-349.65 386.71,-349.14 378.12,-342.94 376.13,-349.65"/>
</a>
</g>
</g>
<!-- Node6&#45;&gt;Node3 -->
<g id="edge8_Node000006_Node000003" class="edge">
<title>Node6&#45;&gt;Node3</title>
<g id="a_edge8_Node000006_Node000003"><a xlink:title=" ">
<path fill="none" stroke="#63b8ff" d="M323.94,-295.55C337.31,-292.32 351.5,-288.89 365.22,-285.57"/>
<polygon fill="#63b8ff" stroke="#63b8ff" points="365.72,-289.05 374.62,-283.3 364.08,-282.25 365.72,-289.05"/>
</a>
</g>
</g>
<!-- Node7 -->
<g id="Node000007" class="node">
<title>Node7</title>
<g id="a_Node000007"><a xlink:href="../../da/de5/classml_1_1model_1_1_c_anomaly_detector.html#a7b72a8daaa40b863b1a3baca51630e9e" target="_top" xlink:title="Get a description of this anomaly detector.">
<polygon fill="white" stroke="#666666" points="516,-331.5 368,-331.5 368,-301 516,-301 516,-331.5"/>
<text text-anchor="start" x="376" y="-318" font-family="Helvetica,sans-Serif" font-size="10.00">ml::model::CAnomalyDetector</text>
<text text-anchor="middle" x="442" y="-306.75" font-family="Helvetica,sans-Serif" font-size="10.00">::description</text>
</a>
</g>
</g>
<!-- Node6&#45;&gt;Node7 -->
<g id="edge9_Node000006_Node000007" class="edge">
<title>Node6&#45;&gt;Node7</title>
<g id="a_edge9_Node000006_Node000007"><a xlink:title=" ">
<path fill="none" stroke="#63b8ff" d="M332.24,-313.26C340.16,-313.48 348.27,-313.7 356.31,-313.92"/>
<polygon fill="#63b8ff" stroke="#63b8ff" points="356.01,-317.42 366.1,-314.19 356.2,-310.42 356.01,-317.42"/>
</a>
</g>
</g>
<!-- Node8 -->
<g id="Node000008" class="node">
<title>Node8</title>
<g id="a_Node000008"><a xlink:href="../../d2/d5e/classml_1_1core_1_1_c_container_printer.html#aff22734ba0c60a2f359a27b5d004622a" target="_top" xlink:title="Fallback print.">
<polygon fill="white" stroke="#666666" points="693.62,-340.5 558.38,-340.5 558.38,-310 693.62,-310 693.62,-340.5"/>
<text text-anchor="start" x="566.38" y="-327" font-family="Helvetica,sans-Serif" font-size="10.00">ml::core::CContainerPrinter</text>
<text text-anchor="middle" x="626" y="-315.75" font-family="Helvetica,sans-Serif" font-size="10.00">::print</text>
</a>
</g>
</g>
<!-- Node7&#45;&gt;Node8 -->
<g id="edge10_Node000007_Node000008" class="edge">
<title>Node7&#45;&gt;Node8</title>
<g id="a_edge10_Node000007_Node000008"><a xlink:title=" ">
<path fill="none" stroke="#63b8ff" d="M516.24,-319.87C526.29,-320.37 536.63,-320.88 546.77,-321.38"/>
<polygon fill="#63b8ff" stroke="#63b8ff" points="546.42,-324.87 556.58,-321.87 546.76,-317.88 546.42,-324.87"/>
</a>
</g>
</g>
<!-- Node10 -->
<g id="Node000010" class="node">
<title>Node10</title>
<g id="a_Node000010"><a xlink:href="../../d4/d25/classml_1_1model_1_1_c_resource_monitor.html#a1cf1c108bb07110b0d95c2e5b9e99ad5" target="_top" xlink:title=" ">
<polygon fill="white" stroke="#666666" points="882.5,-152.5 736,-152.5 736,-122 882.5,-122 882.5,-152.5"/>
<text text-anchor="start" x="744" y="-139" font-family="Helvetica,sans-Serif" font-size="10.00">ml::model::CResourceMonitor</text>
<text text-anchor="middle" x="809.25" y="-127.75" font-family="Helvetica,sans-Serif" font-size="10.00">::updateAllowAllocations</text>
</a>
</g>
</g>
<!-- Node9&#45;&gt;Node10 -->
<g id="edge12_Node000009_Node000010" class="edge">
<title>Node9&#45;&gt;Node10</title>
<g id="a_edge12_Node000009_Node000010"><a xlink:title=" ">
<path fill="none" stroke="#63b8ff" d="M699.68,-137.25C707.71,-137.25 715.94,-137.25 724.1,-137.25"/>
<polygon fill="#63b8ff" stroke="#63b8ff" points="724.04,-140.75 734.04,-137.25 724.04,-133.75 724.04,-140.75"/>
</a>
</g>
</g>
<!-- Node11 -->
<g id="Node000011" class="node">
<title>Node11</title>
<g id="a_Node000011"><a xlink:href="../../d4/d25/classml_1_1model_1_1_c_resource_monitor.html#a666a89154a86726709e80b1800861a8f" target="_top" xlink:title=" ">
<polygon fill="white" stroke="#666666" points="1069.12,-119.5 922.62,-119.5 922.62,-89 1069.12,-89 1069.12,-119.5"/>
<text text-anchor="start" x="930.62" y="-106" font-family="Helvetica,sans-Serif" font-size="10.00">ml::model::CResourceMonitor</text>
<text text-anchor="middle" x="995.88" y="-94.75" font-family="Helvetica,sans-Serif" font-size="10.00">::adjustedUsage</text>
</a>
</g>
</g>
<!-- Node10&#45;&gt;Node11 -->
<g id="edge13_Node000010_Node000011" class="edge">
<title>Node10&#45;&gt;Node11</title>
<g id="a_edge13_Node000010_Node000011"><a xlink:title=" ">
<path fill="none" stroke="#63b8ff" d="M882.95,-124.25C892.14,-122.61 901.59,-120.92 910.93,-119.25"/>
<polygon fill="#63b8ff" stroke="#63b8ff" points="911.52,-122.7 920.75,-117.5 910.29,-115.81 911.52,-122.7"/>
</a>
</g>
</g>
<!-- Node13 -->
<g id="Node000013" class="node">
<title>Node13</title>
<g id="a_Node000013"><a xlink:href="../../d3/d6d/classml_1_1core_1_1_c_program_counters.html#a0669d71b56b650d4392e16b7ebf83570" target="_top" xlink:title="Provide access to the relevant counter from the collection.">
<polygon fill="white" stroke="#666666" points="1266.25,-43.5 1125,-43.5 1125,-13 1266.25,-13 1266.25,-43.5"/>
<text text-anchor="start" x="1133" y="-30" font-family="Helvetica,sans-Serif" font-size="10.00">ml::core::CProgramCounters</text>
<text text-anchor="middle" x="1195.62" y="-18.75" font-family="Helvetica,sans-Serif" font-size="10.00">::counter</text>
</a>
</g>
</g>
<!-- Node10&#45;&gt;Node13 -->
<g id="edge16_Node000010_Node000013" class="edge">
<title>Node10&#45;&gt;Node13</title>
<g id="a_edge16_Node000010_Node000013"><a xlink:title=" ">
<path fill="none" stroke="#63b8ff" d="M834.66,-121.68C856,-108.74 888.22,-90.81 918.5,-80.25 982.17,-58.06 1057.59,-44.67 1113.5,-37.05"/>
<polygon fill="#63b8ff" stroke="#63b8ff" points="1113.82,-40.54 1123.27,-35.75 1112.9,-33.6 1113.82,-40.54"/>
</a>
</g>
</g>
<!-- Node14 -->
<g id="Node000014" class="node">
<title>Node14</title>
<g id="a_Node000014"><a xlink:href="../../d4/d25/classml_1_1model_1_1_c_resource_monitor.html#adaa0f7f080ef8046ac0829817b886a3e" target="_top" xlink:title="Get the high memory limit with margin applied.">
<polygon fill="white" stroke="#666666" points="1069.12,-235.5 922.62,-235.5 922.62,-205 1069.12,-205 1069.12,-235.5"/>
<text text-anchor="start" x="930.62" y="-222" font-family="Helvetica,sans-Serif" font-size="10.00">ml::model::CResourceMonitor</text>
<text text-anchor="middle" x="995.88" y="-210.75" font-family="Helvetica,sans-Serif" font-size="10.00">::highLimit</text>
</a>
</g>
</g>
<!-- Node10&#45;&gt;Node14 -->
<g id="edge18_Node000010_Node000014" class="edge">
<title>Node10&#45;&gt;Node14</title>
<g id="a_edge18_Node000010_Node000014"><a xlink:title=" ">
<path fill="none" stroke="#63b8ff" d="M836.3,-152.88C857.84,-165.4 889.49,-182.84 918.5,-195.25 922.83,-197.1 927.34,-198.9 931.92,-200.63"/>
<polygon fill="#63b8ff" stroke="#63b8ff" points="930.64,-203.88 941.23,-204 933.02,-197.3 930.64,-203.88"/>
</a>
</g>
</g>
<!-- Node15 -->
<g id="Node000015" class="node">
<title>Node15</title>
<g id="a_Node000015"><a xlink:href="../../d4/d25/classml_1_1model_1_1_c_resource_monitor.html#a0b836618d7b75d94a8adf9669d8be908" target="_top" xlink:title="Get the low memory limit with margin applied.">
<polygon fill="white" stroke="#666666" points="1069.12,-186.5 922.62,-186.5 922.62,-156 1069.12,-156 1069.12,-186.5"/>
<text text-anchor="start" x="930.62" y="-173" font-family="Helvetica,sans-Serif" font-size="10.00">ml::model::CResourceMonitor</text>
<text text-anchor="middle" x="995.88" y="-161.75" font-family="Helvetica,sans-Serif" font-size="10.00">::lowLimit</text>
</a>
</g>
</g>
<!-- Node10&#45;&gt;Node15 -->
<g id="edge19_Node000010_Node000015" class="edge">
<title>Node10&#45;&gt;Node15</title>
<g id="a_edge19_Node000010_Node000015"><a xlink:title=" ">
<path fill="none" stroke="#63b8ff" d="M882.95,-150.64C892.14,-152.33 901.59,-154.07 910.93,-155.79"/>
<polygon fill="#63b8ff" stroke="#63b8ff" points="910.28,-159.23 920.75,-157.6 911.55,-152.35 910.28,-159.23"/>
</a>
</g>
</g>
<!-- Node16 -->
<g id="Node000016" class="node">
<title>Node16</title>
<g id="a_Node000016"><a xlink:href="../../d4/d25/classml_1_1model_1_1_c_resource_monitor.html#aed60c474bb11e41c1cd328ced5655fc7" target="_top" xlink:title="Returns the sum of used memory plus any extra memory.">
<polygon fill="white" stroke="#666666" points="1069.12,-33.5 922.62,-33.5 922.62,-3 1069.12,-3 1069.12,-33.5"/>
<text text-anchor="start" x="930.62" y="-20" font-family="Helvetica,sans-Serif" font-size="10.00">ml::model::CResourceMonitor</text>
<text text-anchor="middle" x="995.88" y="-8.75" font-family="Helvetica,sans-Serif" font-size="10.00">::totalMemory</text>
</a>
</g>
</g>
<!-- Node10&#45;&gt;Node16 -->
<g id="edge20_Node000010_Node000016" class="edge">
<title>Node10&#45;&gt;Node16</title>
<g id="a_edge20_Node000010_Node000016"><a xlink:title=" ">
<path fill="none" stroke="#63b8ff" d="M825.49,-121.72C845.38,-102.17 881.98,-68.56 918.5,-47.25 924.07,-44 930.07,-40.99 936.18,-38.23"/>
<polygon fill="#63b8ff" stroke="#63b8ff" points="937.27,-41.57 945.1,-34.44 934.53,-35.13 937.27,-41.57"/>
</a>
</g>
</g>
<!-- Node11&#45;&gt;Node11 -->
<g id="edge14_Node000011_Node000011" class="edge">
<title>Node11&#45;&gt;Node11</title>
<g id="a_edge14_Node000011_Node000011"><a xlink:title=" ">
<path fill="none" stroke="#63b8ff" d="M962.8,-119.99C956.06,-129.06 967.08,-137.5 995.88,-137.5 1011.62,-137.5 1022.06,-134.97 1027.17,-131.2"/>
<polygon fill="#63b8ff" stroke="#63b8ff" points="1030.6,-131.9 1028.71,-121.48 1023.69,-130.81 1030.6,-131.9"/>
</a>
</g>
</g>
<!-- Node12 -->
<g id="Node000012" class="node">
<title>Node12</title>
<g id="a_Node000012"><a xlink:href="../../d4/d25/classml_1_1model_1_1_c_resource_monitor.html#a5282f2aeaff74272552051064aa92bcd" target="_top" xlink:title="Returns the amount by which reported memory usage is scaled depending on the type of persistence in u...">
<polygon fill="white" stroke="#666666" points="1282,-119.5 1109.25,-119.5 1109.25,-89 1282,-89 1282,-119.5"/>
<text text-anchor="start" x="1117.25" y="-106" font-family="Helvetica,sans-Serif" font-size="10.00">ml::model::CResourceMonitor</text>
<text text-anchor="middle" x="1195.62" y="-94.75" font-family="Helvetica,sans-Serif" font-size="10.00">::persistenceMemoryIncreaseFactor</text>
</a>
</g>
</g>
<!-- Node11&#45;&gt;Node12 -->
<g id="edge15_Node000011_Node000012" class="edge">
<title>Node11&#45;&gt;Node12</title>
<g id="a_edge15_Node000011_Node000012"><a xlink:title=" ">
<path fill="none" stroke="#63b8ff" d="M1069.39,-104.25C1078.66,-104.25 1088.26,-104.25 1097.84,-104.25"/>
<polygon fill="#63b8ff" stroke="#63b8ff" points="1097.53,-107.75 1107.53,-104.25 1097.53,-100.75 1097.53,-107.75"/>
</a>
</g>
</g>
<!-- Node13&#45;&gt;Node13 -->
<g id="edge17_Node000013_Node000013" class="edge">
<title>Node13&#45;&gt;Node13</title>
<g id="a_edge17_Node000013_Node000013"><a xlink:title=" ">
<path fill="none" stroke="#63b8ff" d="M1161.62,-43.99C1154.69,-53.06 1166.02,-61.5 1195.62,-61.5 1211.82,-61.5 1222.54,-58.97 1227.8,-55.2"/>
<polygon fill="#63b8ff" stroke="#63b8ff" points="1231.23,-55.91 1229.38,-45.48 1224.32,-54.79 1231.23,-55.91"/>
</a>
</g>
</g>
<!-- Node16&#45;&gt;Node13 -->
<g id="edge21_Node000016_Node000013" class="edge">
<title>Node16&#45;&gt;Node13</title>
<g id="a_edge21_Node000016_Node000013"><a xlink:title=" ">
<path fill="none" stroke="#63b8ff" d="M1069.39,-21.92C1083.79,-22.65 1099,-23.41 1113.67,-24.16"/>
<polygon fill="#63b8ff" stroke="#63b8ff" points="1113.08,-27.63 1123.25,-24.64 1113.44,-20.64 1113.08,-27.63"/>
</a>
</g>
</g>
<!-- Node19&#45;&gt;Node2 -->
<g id="edge25_Node000019_Node000002" class="edge">
<title>Node19&#45;&gt;Node2</title>
<g id="a_edge25_Node000019_Node000002"><a xlink:title=" ">
<path fill="none" stroke="#63b8ff" d="M277.77,-233.97C293.19,-247.33 315.16,-267.46 332,-287.25 350.46,-308.94 345.37,-322.97 368,-340.25 369.76,-341.59 371.59,-342.86 373.48,-344.07"/>
<polygon fill="#63b8ff" stroke="#63b8ff" points="371.6,-347.03 382.04,-348.83 375.01,-340.91 371.6,-347.03"/>
</a>
</g>
</g>
<!-- Node19&#45;&gt;Node3 -->
<g id="edge26_Node000019_Node000003" class="edge">
<title>Node19&#45;&gt;Node3</title>
<g id="a_edge26_Node000019_Node000003"><a xlink:title=" ">
<path fill="none" stroke="#63b8ff" d="M317.34,-233.96C334.64,-238.62 353.77,-243.76 371.7,-248.59"/>
<polygon fill="#63b8ff" stroke="#63b8ff" points="370.65,-251.94 381.22,-251.16 372.47,-245.18 370.65,-251.94"/>
</a>
</g>
</g>
<!-- Node20 -->
<g id="Node000020" class="node">
<title>Node20</title>
<g id="a_Node000020"><a xlink:href="../../d4/d25/classml_1_1model_1_1_c_resource_monitor.html#a1fe23e430ce7a98d9ce61fd19e7446b5" target="_top" xlink:title="Recalculate the memory usage regardless of whether there is a memory limit.">
<polygon fill="white" stroke="#666666" points="699.25,-214.5 552.75,-214.5 552.75,-184 699.25,-184 699.25,-214.5"/>
<text text-anchor="start" x="560.75" y="-201" font-family="Helvetica,sans-Serif" font-size="10.00">ml::model::CResourceMonitor</text>
<text text-anchor="middle" x="626" y="-189.75" font-family="Helvetica,sans-Serif" font-size="10.00">::forceRefresh</text>
</a>
</g>
</g>
<!-- Node19&#45;&gt;Node20 -->
<g id="edge27_Node000019_Node000020" class="edge">
<title>Node19&#45;&gt;Node20</title>
<g id="a_edge27_Node000019_Node000020"><a xlink:title=" ">
<path fill="none" stroke="#63b8ff" d="M319.44,-202.5C335.14,-199.09 352.11,-195.98 368,-194.25 425.52,-187.99 490.7,-189.36 541.02,-192.23"/>
<polygon fill="#63b8ff" stroke="#63b8ff" points="540.79,-195.72 550.99,-192.83 541.22,-188.73 540.79,-195.72"/>
</a>
</g>
</g>
<!-- Node26 -->
<g id="Node000026" class="node">
<title>Node26</title>
<g id="a_Node000026"><a xlink:href="../../d4/d25/classml_1_1model_1_1_c_resource_monitor.html#a86ff39cf29b848aaaf719f583b6b85b6" target="_top" xlink:title="Recalculate the memory usage if there is a memory limit.">
<polygon fill="white" stroke="#666666" points="515.25,-233.5 368.75,-233.5 368.75,-203 515.25,-203 515.25,-233.5"/>
<text text-anchor="start" x="376.75" y="-220" font-family="Helvetica,sans-Serif" font-size="10.00">ml::model::CResourceMonitor</text>
<text text-anchor="middle" x="442" y="-208.75" font-family="Helvetica,sans-Serif" font-size="10.00">::refresh</text>
</a>
</g>
</g>
<!-- Node19&#45;&gt;Node26 -->
<g id="edge35_Node000019_Node000026" class="edge">
<title>Node19&#45;&gt;Node26</title>
<g id="a_edge35_Node000019_Node000026"><a xlink:title=" ">
<path fill="none" stroke="#63b8ff" d="M332.24,-218.25C340.46,-218.25 348.87,-218.25 357.21,-218.25"/>
<polygon fill="#63b8ff" stroke="#63b8ff" points="356.99,-221.75 366.99,-218.25 356.99,-214.75 356.99,-221.75"/>
</a>
</g>
</g>
<!-- Node20&#45;&gt;Node10 -->
<g id="edge34_Node000020_Node000010" class="edge">
<title>Node20&#45;&gt;Node10</title>
<g id="a_edge34_Node000020_Node000010"><a xlink:title=" ">
<path fill="none" stroke="#63b8ff" d="M672.74,-183.6C696.69,-175.41 726.23,-165.31 751.62,-156.62"/>
<polygon fill="#63b8ff" stroke="#63b8ff" points="752.45,-160.04 760.78,-153.49 750.19,-153.41 752.45,-160.04"/>
</a>
</g>
</g>
<!-- Node21 -->
<g id="Node000021" class="node">
<title>Node21</title>
<g id="a_Node000021"><a xlink:href="../../d4/d25/classml_1_1model_1_1_c_resource_monitor.html#ab98d5a5316283e47e262b02400df076c" target="_top" xlink:title="Update the given model and recalculate the total usage.">
<polygon fill="white" stroke="#666666" points="882.5,-217.5 736,-217.5 736,-187 882.5,-187 882.5,-217.5"/>
<text text-anchor="start" x="744" y="-204" font-family="Helvetica,sans-Serif" font-size="10.00">ml::model::CResourceMonitor</text>
<text text-anchor="middle" x="809.25" y="-192.75" font-family="Helvetica,sans-Serif" font-size="10.00">::memUsage</text>
</a>
</g>
</g>
<!-- Node20&#45;&gt;Node21 -->
<g id="edge28_Node000020_Node000021" class="edge">
<title>Node20&#45;&gt;Node21</title>
<g id="a_edge28_Node000020_Node000021"><a xlink:title=" ">
<path fill="none" stroke="#63b8ff" d="M699.68,-200.45C707.71,-200.59 715.94,-200.72 724.1,-200.86"/>
<polygon fill="#63b8ff" stroke="#63b8ff" points="723.99,-204.36 734.04,-201.02 724.1,-197.36 723.99,-204.36"/>
</a>
</g>
</g>
<!-- Node22 -->
<g id="Node000022" class="node">
<title>Node22</title>
<g id="a_Node000022"><a xlink:href="../../d0/d74/namespaceml_1_1core_1_1memory.html#a50fe883268170c17625e18a0c5fea04b" target="_top" xlink:title="Default implementation for non&#45;pointer types.">
<polygon fill="white" stroke="#666666" points="1073.25,-272.88 918.5,-272.88 918.5,-253.62 1073.25,-253.62 1073.25,-272.88"/>
<text text-anchor="middle" x="995.88" y="-259.38" font-family="Helvetica,sans-Serif" font-size="10.00">ml::core::memory::dynamicSize</text>
</a>
</g>
</g>
<!-- Node21&#45;&gt;Node22 -->
<g id="edge29_Node000021_Node000022" class="edge">
<title>Node21&#45;&gt;Node22</title>
<g id="a_edge29_Node000021_Node000022"><a xlink:title=" ">
<path fill="none" stroke="#63b8ff" d="M846.91,-217.8C867.69,-226.28 894.29,-236.58 918.5,-244.25 925.17,-246.36 932.22,-248.39 939.24,-250.28"/>
<polygon fill="#63b8ff" stroke="#63b8ff" points="938.16,-253.62 948.72,-252.76 939.93,-246.85 938.16,-253.62"/>
</a>
</g>
</g>
<!-- Node23 -->
<g id="Node000023" class="node">
<title>Node23</title>
<g id="a_Node000023"><a xlink:href="../../d9/d0b/structml_1_1core_1_1memory__detail_1_1_s_memory_dynamic_size.html#a49a680749a1d1861b69990d788154833" target="_top" xlink:title=" ">
<polygon fill="white" stroke="#666666" points="1259.88,-338.12 1131.38,-338.12 1131.38,-296.38 1259.88,-296.38 1259.88,-338.12"/>
<text text-anchor="start" x="1139.38" y="-324.62" font-family="Helvetica,sans-Serif" font-size="10.00">ml::core::memory_detail</text>
<text text-anchor="start" x="1139.38" y="-313.38" font-family="Helvetica,sans-Serif" font-size="10.00">::SMemoryDynamicSize::</text>
<text text-anchor="middle" x="1195.62" y="-302.12" font-family="Helvetica,sans-Serif" font-size="10.00">dispatch</text>
</a>
</g>
</g>
<!-- Node22&#45;&gt;Node23 -->
<g id="edge30_Node000022_Node000023" class="edge">
<title>Node22&#45;&gt;Node23</title>
<g id="a_edge30_Node000022_Node000023"><a xlink:title=" ">
<path fill="none" stroke="#63b8ff" d="M1033.61,-273.28C1057.98,-279.94 1090.82,-288.9 1120.49,-297.01"/>
<polygon fill="#63b8ff" stroke="#63b8ff" points="1119.23,-300.29 1129.8,-299.55 1121.07,-293.54 1119.23,-300.29"/>
</a>
</g>
</g>
<!-- Node24 -->
<g id="Node000024" class="node">
<title>Node24</title>
<g id="a_Node000024"><a xlink:href="../../db/df7/namespaceml_1_1core_1_1memory__detail.html#ac2d4d02cd0f6d8d7d1355958a49fce43" target="_top" xlink:title="Check if we expect an overloaded dynamicSize function.">
<polygon fill="white" stroke="#666666" points="1258.38,-278.5 1132.88,-278.5 1132.88,-248 1258.38,-248 1258.38,-278.5"/>
<text text-anchor="start" x="1140.88" y="-265" font-family="Helvetica,sans-Serif" font-size="10.00">ml::core::memory_detail</text>
<text text-anchor="middle" x="1195.62" y="-253.75" font-family="Helvetica,sans-Serif" font-size="10.00">::expectMemoryOverload</text>
</a>
</g>
</g>
<!-- Node22&#45;&gt;Node24 -->
<g id="edge31_Node000022_Node000024" class="edge">
<title>Node22&#45;&gt;Node24</title>
<g id="a_edge31_Node000022_Node000024"><a xlink:title=" ">
<path fill="none" stroke="#63b8ff" d="M1073.61,-263.25C1089.34,-263.25 1105.85,-263.25 1121.45,-263.25"/>
<polygon fill="#63b8ff" stroke="#63b8ff" points="1121.1,-266.75 1131.1,-263.25 1121.1,-259.75 1121.1,-266.75"/>
</a>
</g>
</g>
<!-- Node25 -->
<g id="Node000025" class="node">
<title>Node25</title>
<g id="a_Node000025"><a xlink:href="../../d2/d21/structml_1_1core_1_1memory__detail_1_1_s_dynamic_size_always_zero.html#a710ac6fc2d5760a396bb2d46a66a73b2" target="_top" xlink:title=" ">
<polygon fill="white" stroke="#666666" points="1457,-262.12 1318,-262.12 1318,-220.38 1457,-220.38 1457,-262.12"/>
<text text-anchor="start" x="1326" y="-248.62" font-family="Helvetica,sans-Serif" font-size="10.00">ml::core::memory_detail</text>
<text text-anchor="start" x="1326" y="-237.38" font-family="Helvetica,sans-Serif" font-size="10.00">::SDynamicSizeAlwaysZero</text>
<text text-anchor="middle" x="1387.5" y="-226.12" font-family="Helvetica,sans-Serif" font-size="10.00">::value</text>
</a>
</g>
</g>
<!-- Node22&#45;&gt;Node25 -->
<g id="edge33_Node000022_Node000025" class="edge">
<title>Node22&#45;&gt;Node25</title>
<g id="a_edge33_Node000022_Node000025"><a xlink:title=" ">
<path fill="none" stroke="#63b8ff" d="M1034.53,-253.14C1056.2,-247.84 1084.05,-241.91 1109.25,-239.25 1175.42,-232.26 1250.96,-233.4 1306.47,-235.93"/>
<polygon fill="#63b8ff" stroke="#63b8ff" points="1305.97,-239.41 1316.13,-236.4 1306.31,-232.42 1305.97,-239.41"/>
</a>
</g>
</g>
<!-- Node24&#45;&gt;Node25 -->
<g id="edge32_Node000024_Node000025" class="edge">
<title>Node24&#45;&gt;Node25</title>
<g id="a_edge32_Node000024_Node000025"><a xlink:title=" ">
<path fill="none" stroke="#63b8ff" d="M1258.8,-256.05C1273.94,-254.29 1290.35,-252.39 1306.2,-250.55"/>
<polygon fill="#63b8ff" stroke="#63b8ff" points="1306.59,-254.03 1316.12,-249.4 1305.78,-247.08 1306.59,-254.03"/>
</a>
</g>
</g>
<!-- Node26&#45;&gt;Node20 -->
<g id="edge36_Node000026_Node000020" class="edge">
<title>Node26&#45;&gt;Node20</title>
<g id="a_edge36_Node000026_Node000020"><a xlink:title=" ">
<path fill="none" stroke="#63b8ff" d="M515.72,-210.66C524.02,-209.79 532.54,-208.9 540.97,-208.02"/>
<polygon fill="#63b8ff" stroke="#63b8ff" points="541.31,-211.51 550.89,-206.99 540.58,-204.54 541.31,-211.51"/>
</a>
</g>
</g>
</g>
</svg>

<g id="navigator" transform="translate(0 0)" fill="#404254">
  <rect fill="#f2f5e9" fill-opacity="0.5" stroke="#606060" stroke-width=".5" x="0" y="0" width="60" height="60"/>
  <use id="zoomplus" xlink:href="#zoomPlus" x="17" y="9" onmousedown="handleZoom(evt,'in')"/>
  <use id="zoomminus" xlink:href="#zoomMin" x="42" y="9" onmousedown="handleZoom(evt,'out')"/>
  <use id="reset" xlink:href="#resetDef" x="30" y="36" onmousedown="handleReset()"/>
   <use id="arrowup" xlink:href="#arrowUp" x="0" y="0" onmousedown="handlePan(0,-1)"/>
  <use id="arrowright" xlink:href="#arrowRight" x="0" y="0" onmousedown="handlePan(1,0)"/>
  <use id="arrowdown" xlink:href="#arrowDown" x="0" y="0" onmousedown="handlePan(0,1)"/>
  <use id="arrowleft" xlink:href="#arrowLeft" x="0" y="0" onmousedown="handlePan(-1,0)"/>
</g>
<svg viewBox="0 0 15 15" width="100%" height="30px" preserveAspectRatio="xMaxYMin meet">
 <g id="arrow_out" transform="scale(0.3 0.3)">
  <a xlink:href="classml_1_1model_1_1_c_anomaly_detector_a8c242e575ca46e218cb088b9398a1231_cgraph_org.svg" target="_base">
   <rect id="button" ry="5" rx="5" y="6" x="6" height="38" width="38"
        fill="#f2f5e9" fill-opacity="0.5" stroke="#606060" stroke-width="1.0"/>
   <path id="arrow"
     d="M 11.500037,31.436501 C 11.940474,20.09759 22.043105,11.32322 32.158766,21.979434 L 37.068811,17.246167 C 37.068811,17.246167 37.088388,32 37.088388,32 L 22.160133,31.978069 C 22.160133,31.978069 26.997745,27.140456 26.997745,27.140456 C 18.528582,18.264221 13.291696,25.230495 11.500037,31.436501 z"
     style="fill:#404040;"/>
  </a>
 </g>
</svg>

<style type='text/css'>
<![CDATA[
[data-mouse-over-selected='false'] { opacity: 0.7; }
[data-mouse-over-selected='true']  { opacity: 1.0; }
]]>
</style>
<script type="application/ecmascript"><![CDATA[
document.addEventListener('DOMContentLoaded', (event) => {
  highlightEdges();
  highlightAdjacentNodes();
});
]]></script>
</svg>
