<?xml version="1.0" encoding="UTF-8" standalone="no"?>
<!DOCTYPE svg PUBLIC "-//W3C//DTD SVG 1.1//EN"
 "http://www.w3.org/Graphics/SVG/1.1/DTD/svg11.dtd">
<!-- Generated by graphviz version 10.0.1 (20240210.2158)
 -->
<!-- Title: ml::core::CRegexFilter::apply Pages: 1 -->
<svg width="497pt" height="187pt"
 viewBox="0.00 0.00 497.00 186.88" xmlns="http://www.w3.org/2000/svg" xmlns:xlink="http://www.w3.org/1999/xlink">

<svg id="main" version="1.1" xmlns="http://www.w3.org/2000/svg" xmlns:xlink="http://www.w3.org/1999/xlink" xml:space="preserve" onload="init(evt)">
<style type="text/css"><![CDATA[
.node, .edge {opacity: 0.7;}
.node.selected, .edge.selected {opacity: 1;}
.edge:hover path { stroke: red; }
.edge:hover polygon { stroke: red; fill: red; }
]]></style>
<script type="application/ecmascript" xlink:href="../../svg.min.js"/>
<svg id="graph" class="graph">
<g id="graph0" class="graph" transform="scale(1 1) rotate(0) translate(4 182.88)">
<title>ml::core::CRegexFilter::apply</title>
<!-- Node1 -->
<g id="Node000001" class="node">
<title>Node1</title>
<g id="a_Node000001"><a xlink:title="Applies the filter to target.">
<polygon fill="#999999" stroke="#666666" points="489,-110.5 374,-110.5 374,-80 489,-80 489,-110.5"/>
<text text-anchor="start" x="382" y="-97" font-family="Helvetica,sans-Serif" font-size="10.00">ml::core::CRegexFilter</text>
<text text-anchor="middle" x="431.5" y="-85.75" font-family="Helvetica,sans-Serif" font-size="10.00">::apply</text>
</a>
</g>
</g>
<!-- Node2 -->
<g id="Node000002" class="node">
<title>Node2</title>
<g id="a_Node000002"><a xlink:href="../../d9/d19/_c_regex_filter_test_8cc.html#a656196dd9a1f089f5642c6936adae4f9" target="_top" xlink:title=" ">
<polygon fill="white" stroke="#666666" points="336.12,-178.88 188.88,-178.88 188.88,-159.62 336.12,-159.62 336.12,-178.88"/>
<text text-anchor="middle" x="262.5" y="-165.38" font-family="Helvetica,sans-Serif" font-size="10.00">BOOST_AUTO_TEST_CASE</text>
</a>
</g>
</g>
<!-- Node1&#45;&gt;Node2 -->
<g id="edge1_Node000001_Node000002" class="edge">
<title>Node1&#45;&gt;Node2</title>
<g id="a_edge1_Node000001_Node000002"><a xlink:title=" ">
<path fill="none" stroke="#63b8ff" d="M399.97,-117.01C382.52,-128.6 359.82,-142.26 338,-151.25 330.49,-154.34 322.34,-156.98 314.26,-159.21"/>
<polygon fill="#63b8ff" stroke="#63b8ff" points="401.52,-120.19 407.83,-111.69 397.59,-114.4 401.52,-120.19"/>
</a>
</g>
</g>
<!-- Node3 -->
<g id="Node000003" class="node">
<title>Node3</title>
<g id="a_Node000003"><a xlink:href="../../d9/d19/_c_regex_filter_test_8cc.html#abceded748bb9d4917706ca772b2e03d0" target="_top" xlink:title=" ">
<polygon fill="white" stroke="#666666" points="336.12,-141.88 188.88,-141.88 188.88,-122.62 336.12,-122.62 336.12,-141.88"/>
<text text-anchor="middle" x="262.5" y="-128.38" font-family="Helvetica,sans-Serif" font-size="10.00">BOOST_AUTO_TEST_CASE</text>
</a>
</g>
</g>
<!-- Node1&#45;&gt;Node3 -->
<g id="edge2_Node000001_Node000003" class="edge">
<title>Node1&#45;&gt;Node3</title>
<g id="a_edge2_Node000001_Node000003"><a xlink:title=" ">
<path fill="none" stroke="#63b8ff" d="M362.88,-110.23C344.83,-114.23 325.75,-118.46 309.18,-122.13"/>
<polygon fill="#63b8ff" stroke="#63b8ff" points="363.48,-113.68 372.48,-108.1 361.96,-106.85 363.48,-113.68"/>
</a>
</g>
</g>
<!-- Node4 -->
<g id="Node000004" class="node">
<title>Node4</title>
<g id="a_Node000004"><a xlink:href="../../d9/d19/_c_regex_filter_test_8cc.html#ab638c6b3f75fdb30045f2e56abd235ee" target="_top" xlink:title=" ">
<polygon fill="white" stroke="#666666" points="336.12,-104.88 188.88,-104.88 188.88,-85.62 336.12,-85.62 336.12,-104.88"/>
<text text-anchor="middle" x="262.5" y="-91.38" font-family="Helvetica,sans-Serif" font-size="10.00">BOOST_AUTO_TEST_CASE</text>
</a>
</g>
</g>
<!-- Node1&#45;&gt;Node4 -->
<g id="edge3_Node000001_Node000004" class="edge">
<title>Node1&#45;&gt;Node4</title>
<g id="a_edge3_Node000001_Node000004"><a xlink:title=" ">
<path fill="none" stroke="#63b8ff" d="M362.49,-95.25C353.94,-95.25 345.18,-95.25 336.56,-95.25"/>
<polygon fill="#63b8ff" stroke="#63b8ff" points="362.45,-98.75 372.45,-95.25 362.45,-91.75 362.45,-98.75"/>
</a>
</g>
</g>
<!-- Node5 -->
<g id="Node000005" class="node">
<title>Node5</title>
<g id="a_Node000005"><a xlink:href="../../d9/d19/_c_regex_filter_test_8cc.html#a740124aec1f2d03b0bbc0cfdeac9c29a" target="_top" xlink:title=" ">
<polygon fill="white" stroke="#666666" points="336.12,-67.88 188.88,-67.88 188.88,-48.62 336.12,-48.62 336.12,-67.88"/>
<text text-anchor="middle" x="262.5" y="-54.38" font-family="Helvetica,sans-Serif" font-size="10.00">BOOST_AUTO_TEST_CASE</text>
</a>
</g>
</g>
<!-- Node1&#45;&gt;Node5 -->
<g id="edge4_Node000001_Node000005" class="edge">
<title>Node1&#45;&gt;Node5</title>
<g id="a_edge4_Node000001_Node000005"><a xlink:title=" ">
<path fill="none" stroke="#63b8ff" d="M362.88,-80.27C344.83,-76.27 325.75,-72.04 309.18,-68.37"/>
<polygon fill="#63b8ff" stroke="#63b8ff" points="361.96,-83.65 372.48,-82.4 363.48,-76.82 361.96,-83.65"/>
</a>
</g>
</g>
<!-- Node6 -->
<g id="Node000006" class="node">
<title>Node6</title>
<g id="a_Node000006"><a xlink:href="../../d3/d8f/classml_1_1api_1_1_c_field_data_categorizer.html#aac21b11f7ed43197729993aea4520cda" target="_top" xlink:title=" ">
<polygon fill="white" stroke="#666666" points="338,-30.5 187,-30.5 187,0 338,0 338,-30.5"/>
<text text-anchor="start" x="195" y="-17" font-family="Helvetica,sans-Serif" font-size="10.00">ml::api::CFieldDataCategorizer</text>
<text text-anchor="middle" x="262.5" y="-5.75" font-family="Helvetica,sans-Serif" font-size="10.00">::computeAndUpdateCategory</text>
</a>
</g>
</g>
<!-- Node1&#45;&gt;Node6 -->
<g id="edge5_Node000001_Node000006" class="edge">
<title>Node1&#45;&gt;Node6</title>
<g id="a_edge5_Node000001_Node000006"><a xlink:title=" ">
<path fill="none" stroke="#63b8ff" d="M398.99,-73.65C381.55,-62.36 359.18,-48.91 338,-39.25 331.45,-36.26 324.42,-33.48 317.38,-30.95"/>
<polygon fill="#63b8ff" stroke="#63b8ff" points="396.59,-76.26 406.86,-78.84 400.43,-70.41 396.59,-76.26"/>
</a>
</g>
</g>
<!-- Node7 -->
<g id="Node000007" class="node">
<title>Node7</title>
<g id="a_Node000007"><a xlink:href="../../d3/d8f/classml_1_1api_1_1_c_field_data_categorizer.html#ad9934d581fe7465d1317a23c0664ca82" target="_top" xlink:title=" ">
<polygon fill="white" stroke="#666666" points="151,-30.5 0,-30.5 0,0 151,0 151,-30.5"/>
<text text-anchor="start" x="8" y="-17" font-family="Helvetica,sans-Serif" font-size="10.00">ml::api::CFieldDataCategorizer</text>
<text text-anchor="middle" x="75.5" y="-5.75" font-family="Helvetica,sans-Serif" font-size="10.00">::handleRecord</text>
</a>
</g>
</g>
<!-- Node6&#45;&gt;Node7 -->
<g id="edge6_Node000006_Node000007" class="edge">
<title>Node6&#45;&gt;Node7</title>
<g id="a_edge6_Node000006_Node000007"><a xlink:title=" ">
<path fill="none" stroke="#63b8ff" d="M175.26,-15.25C167.25,-15.25 159.18,-15.25 151.29,-15.25"/>
<polygon fill="#63b8ff" stroke="#63b8ff" points="175.01,-18.75 185.01,-15.25 175.01,-11.75 175.01,-18.75"/>
</a>
</g>
</g>
</g>
</svg>
</svg>

<style type='text/css'>
<![CDATA[
[data-mouse-over-selected='false'] { opacity: 0.7; }
[data-mouse-over-selected='true']  { opacity: 1.0; }
]]>
</style>
<script type="application/ecmascript"><![CDATA[
document.addEventListener('DOMContentLoaded', (event) => {
  highlightEdges();
  highlightAdjacentNodes();
});
]]></script>
</svg>
