<?xml version="1.0" encoding="UTF-8" standalone="no"?>
<!DOCTYPE svg PUBLIC "-//W3C//DTD SVG 1.1//EN"
 "http://www.w3.org/Graphics/SVG/1.1/DTD/svg11.dtd">
<!-- Generated by graphviz version 10.0.1 (20240210.2158)
 -->
<!-- Title: ml::model::CMetricPopulationModel::model Pages: 1 -->
<!--zoomable 657 -->

<svg id="main" version="1.1" xmlns="http://www.w3.org/2000/svg" xmlns:xlink="http://www.w3.org/1999/xlink" xml:space="preserve" onload="init(evt)">
<style type="text/css"><![CDATA[
.node, .edge {opacity: 0.7;}
.node.selected, .edge.selected {opacity: 1;}
.edge:hover path { stroke: red; }
.edge:hover polygon { stroke: red; fill: red; }
]]></style>

<defs>
  <circle id="rim" cx="0" cy="0" r="7"/>
  <circle id="rim2" cx="0" cy="0" r="3.5"/>
  <g id="zoomPlus">
    <use xlink:href="#rim" fill="#404040"><set attributeName="fill" to="#808080" begin="zoomplus.mouseover" end="zoomplus.mouseout"/></use>
    <path d="M-4,0h8M0,-4v8" fill="none" stroke="white" stroke-width="1.5" pointer-events="none"/>
  </g>
  <g id="zoomMin">
    <use xlink:href="#rim" fill="#404040"><set attributeName="fill" to="#808080" begin="zoomminus.mouseover" end="zoomminus.mouseout"/></use>
    <path d="M-4,0h8" fill="none" stroke="white" stroke-width="1.5" pointer-events="none"/>
  </g>
  <g id="arrowUp" transform="translate(30 24)">
    <use xlink:href="#rim"/>
    <path pointer-events="none" fill="none" stroke="white" stroke-width="1.5" d="M0,-3.0v7 M-2.5,-0.5L0,-3.0L2.5,-0.5"/>
  </g>
  <g id="arrowRight" transform="rotate(90) translate(36 -43)">
    <use xlink:href="#rim"/>
    <path pointer-events="none" fill="none" stroke="white" stroke-width="1.5" d="M0,-3.0v7 M-2.5,-0.5L0,-3.0L2.5,-0.5"/>
  </g>
  <g id="arrowDown" transform="rotate(180) translate(-30 -48)">
    <use xlink:href="#rim"/>
    <path pointer-events="none" fill="none" stroke="white" stroke-width="1.5" d="M0,-3.0v7 M-2.5,-0.5L0,-3.0L2.5,-0.5"/>
  </g>
  <g id="arrowLeft" transform="rotate(270) translate(-36 17)">
    <use xlink:href="#rim"/>
    <path pointer-events="none" fill="none" stroke="white" stroke-width="1.5" d="M0,-3.0v7 M-2.5,-0.5L0,-3.0L2.5,-0.5"/>
  </g>
  <g id="resetDef">
    <use xlink:href="#rim2" fill="#404040"><set attributeName="fill" to="#808080" begin="reset.mouseover" end="reset.mouseout"/></use>
  </g>
</defs>
<script type="application/ecmascript">
var viewWidth = 725;
var viewHeight = 657;
var sectionId = 'dynsection-36';
</script>
<script type="application/ecmascript" xlink:href="../../svg.min.js"/>
<svg id="graph" class="graph">
<g id="viewport">
<title>ml::model::CMetricPopulationModel::model</title>
<!-- Node1 -->
<g id="Node000001" class="node">
<title>Node1</title>
<g id="a_Node000001"><a xlink:title=" ">
<polygon fill="#999999" stroke="#666666" points="717.25,-317.5 572.25,-317.5 572.25,-287 717.25,-287 717.25,-317.5"/>
<text text-anchor="start" x="580.25" y="-304" font-family="Helvetica,sans-Serif" font-size="10.00">ml::model::CMetricPopulation</text>
<text text-anchor="middle" x="644.75" y="-292.75" font-family="Helvetica,sans-Serif" font-size="10.00">Model::model</text>
</a>
</g>
</g>
<!-- Node1&#45;&gt;Node1 -->
<g id="edge20_Node000001_Node000001" class="edge">
<title>Node1&#45;&gt;Node1</title>
<g id="a_edge20_Node000001_Node000001"><a xlink:title=" ">
<path fill="none" stroke="#63b8ff" d="M675.92,-329.2C670.82,-332.97 660.43,-335.5 644.75,-335.5 616.07,-335.5 605.09,-327.06 611.81,-317.99"/>
<polygon fill="#63b8ff" stroke="#63b8ff" points="679.35,-329.9 677.45,-319.48 672.44,-328.82 679.35,-329.9"/>
</a>
</g>
</g>
<!-- Node2 -->
<g id="Node000002" class="node">
<title>Node2</title>
<g id="a_Node000002"><a xlink:href="../../d2/d49/classml_1_1model_1_1_c_metric_population_model.html#a8e8476792d09c0f2fcbe18a1d579af4e" target="_top" xlink:title="Add to the contents of the object.">
<polygon fill="white" stroke="#666666" points="344.75,-562.5 191.5,-562.5 191.5,-532 344.75,-532 344.75,-562.5"/>
<text text-anchor="start" x="199.5" y="-549" font-family="Helvetica,sans-Serif" font-size="10.00">ml::model::CMetricPopulation</text>
<text text-anchor="middle" x="268.12" y="-537.75" font-family="Helvetica,sans-Serif" font-size="10.00">Model::acceptRestoreTraverser</text>
</a>
</g>
</g>
<!-- Node1&#45;&gt;Node2 -->
<g id="edge1_Node000001_Node000002" class="edge">
<title>Node1&#45;&gt;Node2</title>
<g id="a_edge1_Node000001_Node000002"><a xlink:title=" ">
<path fill="none" stroke="#63b8ff" d="M637.16,-328.71C625.01,-371.67 594.78,-456 536.25,-498.25 480.82,-538.27 402.48,-548.67 344.97,-550.17"/>
<polygon fill="#63b8ff" stroke="#63b8ff" points="640.5,-329.79 639.73,-319.23 633.74,-327.97 640.5,-329.79"/>
</a>
</g>
</g>
<!-- Node4 -->
<g id="Node000004" class="node">
<title>Node4</title>
<g id="a_Node000004"><a xlink:href="../../d2/d49/classml_1_1model_1_1_c_metric_population_model.html#a62671b447ad01f481dfbaecf30570106" target="_top" xlink:title=" ">
<polygon fill="white" stroke="#666666" points="531.38,-391.5 386.38,-391.5 386.38,-361 531.38,-361 531.38,-391.5"/>
<text text-anchor="start" x="394.38" y="-378" font-family="Helvetica,sans-Serif" font-size="10.00">ml::model::CMetricPopulation</text>
<text text-anchor="middle" x="458.88" y="-366.75" font-family="Helvetica,sans-Serif" font-size="10.00">Model::baselineBucketMean</text>
</a>
</g>
</g>
<!-- Node1&#45;&gt;Node4 -->
<g id="edge3_Node000001_Node000004" class="edge">
<title>Node1&#45;&gt;Node4</title>
<g id="a_edge3_Node000001_Node000004"><a xlink:title=" ">
<path fill="none" stroke="#63b8ff" d="M601.55,-322.8C581.91,-332.02 558.12,-342.72 536.25,-351.25 527.93,-354.5 519,-357.68 510.28,-360.63"/>
<polygon fill="#63b8ff" stroke="#63b8ff" points="602.79,-326.09 610.33,-318.64 599.79,-319.76 602.79,-326.09"/>
</a>
</g>
</g>
<!-- Node5 -->
<g id="Node000005" class="node">
<title>Node5</title>
<g id="a_Node000005"><a xlink:href="../../d2/d49/classml_1_1model_1_1_c_metric_population_model.html#a27ec593b5693111444a833c8755b50b2" target="_top" xlink:title=" ">
<polygon fill="white" stroke="#666666" points="531.38,-342.5 386.38,-342.5 386.38,-312 531.38,-312 531.38,-342.5"/>
<text text-anchor="start" x="394.38" y="-329" font-family="Helvetica,sans-Serif" font-size="10.00">ml::model::CMetricPopulation</text>
<text text-anchor="middle" x="458.88" y="-317.75" font-family="Helvetica,sans-Serif" font-size="10.00">Model::checksum</text>
</a>
</g>
</g>
<!-- Node1&#45;&gt;Node5 -->
<g id="edge4_Node000001_Node000005" class="edge">
<title>Node1&#45;&gt;Node5</title>
<g id="a_edge4_Node000001_Node000005"><a xlink:title=" ">
<path fill="none" stroke="#63b8ff" d="M560.62,-313.55C550.97,-314.86 541.19,-316.19 531.71,-317.48"/>
<polygon fill="#63b8ff" stroke="#63b8ff" points="560.93,-317.04 570.37,-312.23 559.99,-310.11 560.93,-317.04"/>
</a>
</g>
</g>
<!-- Node6 -->
<g id="Node000006" class="node">
<title>Node6</title>
<g id="a_Node000006"><a xlink:href="../../d2/d49/classml_1_1model_1_1_c_metric_population_model.html#a1a2e74445fca492090e7d8b34da78123" target="_top" xlink:title=" ">
<polygon fill="white" stroke="#666666" points="536.25,-293.5 381.5,-293.5 381.5,-263 536.25,-263 536.25,-293.5"/>
<text text-anchor="start" x="389.5" y="-280" font-family="Helvetica,sans-Serif" font-size="10.00">ml::model::CMetricPopulation</text>
<text text-anchor="middle" x="458.88" y="-268.75" font-family="Helvetica,sans-Serif" font-size="10.00">Model::CMetricPopulationModel</text>
</a>
</g>
</g>
<!-- Node1&#45;&gt;Node6 -->
<g id="edge5_Node000001_Node000006" class="edge">
<title>Node1&#45;&gt;Node6</title>
<g id="a_edge5_Node000001_Node000006"><a xlink:title=" ">
<path fill="none" stroke="#63b8ff" d="M560.63,-291.4C552.61,-290.35 544.51,-289.3 536.56,-288.26"/>
<polygon fill="#63b8ff" stroke="#63b8ff" points="560,-294.85 570.37,-292.67 560.91,-287.91 560,-294.85"/>
</a>
</g>
</g>
<!-- Node7 -->
<g id="Node000007" class="node">
<title>Node7</title>
<g id="a_Node000007"><a xlink:href="../../d2/d49/classml_1_1model_1_1_c_metric_population_model.html#ad2fdd6df07e14ca9b0a11821e7314121" target="_top" xlink:title=" ">
<polygon fill="white" stroke="#666666" points="531.38,-489.5 386.38,-489.5 386.38,-459 531.38,-459 531.38,-489.5"/>
<text text-anchor="start" x="394.38" y="-476" font-family="Helvetica,sans-Serif" font-size="10.00">ml::model::CMetricPopulation</text>
<text text-anchor="middle" x="458.88" y="-464.75" font-family="Helvetica,sans-Serif" font-size="10.00">Model::correlates</text>
</a>
</g>
</g>
<!-- Node1&#45;&gt;Node7 -->
<g id="edge6_Node000001_Node000007" class="edge">
<title>Node1&#45;&gt;Node7</title>
<g id="a_edge6_Node000001_Node000007"><a xlink:title=" ">
<path fill="none" stroke="#63b8ff" d="M631.52,-327.72C614.55,-360.45 580.85,-416.88 536.25,-449.25 531.28,-452.86 525.77,-455.96 520.04,-458.63"/>
<polygon fill="#63b8ff" stroke="#63b8ff" points="634.56,-329.46 635.94,-318.95 628.31,-326.3 634.56,-329.46"/>
</a>
</g>
</g>
<!-- Node13 -->
<g id="Node000013" class="node">
<title>Node13</title>
<g id="a_Node000013"><a xlink:href="../../d2/d49/classml_1_1model_1_1_c_metric_population_model.html#afb94cfdc11fb1b766cc1ed100134d114" target="_top" xlink:title="Skip sampling the interval endTime &#45; startTime.">
<polygon fill="white" stroke="#666666" points="531.38,-244.5 386.38,-244.5 386.38,-214 531.38,-214 531.38,-244.5"/>
<text text-anchor="start" x="394.38" y="-231" font-family="Helvetica,sans-Serif" font-size="10.00">ml::model::CMetricPopulation</text>
<text text-anchor="middle" x="458.88" y="-219.75" font-family="Helvetica,sans-Serif" font-size="10.00">Model::doSkipSampling</text>
</a>
</g>
</g>
<!-- Node1&#45;&gt;Node13 -->
<g id="edge13_Node000001_Node000013" class="edge">
<title>Node1&#45;&gt;Node13</title>
<g id="a_edge13_Node000001_Node000013"><a xlink:title=" ">
<path fill="none" stroke="#63b8ff" d="M600.8,-281.85C581.3,-272.9 557.81,-262.57 536.25,-254.25 527.92,-251.04 518.98,-247.87 510.26,-244.92"/>
<polygon fill="#63b8ff" stroke="#63b8ff" points="599.27,-284.99 609.81,-286.02 602.21,-278.64 599.27,-284.99"/>
</a>
</g>
</g>
<!-- Node14 -->
<g id="Node000014" class="node">
<title>Node14</title>
<g id="a_Node000014"><a xlink:href="../../d2/d49/classml_1_1model_1_1_c_metric_population_model.html#ad1b7111685b6d39fa4be3325acbde9e8" target="_top" xlink:title=" ">
<polygon fill="white" stroke="#666666" points="531.38,-440.5 386.38,-440.5 386.38,-410 531.38,-410 531.38,-440.5"/>
<text text-anchor="start" x="394.38" y="-427" font-family="Helvetica,sans-Serif" font-size="10.00">ml::model::CMetricPopulation</text>
<text text-anchor="middle" x="458.88" y="-415.75" font-family="Helvetica,sans-Serif" font-size="10.00">Model::fill</text>
</a>
</g>
</g>
<!-- Node1&#45;&gt;Node14 -->
<g id="edge14_Node000001_Node000014" class="edge">
<title>Node1&#45;&gt;Node14</title>
<g id="a_edge14_Node000001_Node000014"><a xlink:title=" ">
<path fill="none" stroke="#63b8ff" d="M623.11,-326.16C602.95,-348.18 570.38,-380.35 536.25,-400.25 530.22,-403.76 523.64,-406.86 516.94,-409.56"/>
<polygon fill="#63b8ff" stroke="#63b8ff" points="625.62,-328.6 629.7,-318.82 620.41,-323.92 625.62,-328.6"/>
</a>
</g>
</g>
<!-- Node15 -->
<g id="Node000015" class="node">
<title>Node15</title>
<g id="a_Node000015"><a xlink:href="../../d2/d49/classml_1_1model_1_1_c_metric_population_model.html#a8a2c0ed4ca0eff978e5310d306a17bb6" target="_top" xlink:title="Initialize the feature models.">
<polygon fill="white" stroke="#666666" points="531.38,-605.5 386.38,-605.5 386.38,-575 531.38,-575 531.38,-605.5"/>
<text text-anchor="start" x="394.38" y="-592" font-family="Helvetica,sans-Serif" font-size="10.00">ml::model::CMetricPopulation</text>
<text text-anchor="middle" x="458.88" y="-580.75" font-family="Helvetica,sans-Serif" font-size="10.00">Model::initialize</text>
</a>
</g>
</g>
<!-- Node1&#45;&gt;Node15 -->
<g id="edge16_Node000001_Node000015" class="edge">
<title>Node1&#45;&gt;Node15</title>
<g id="a_edge16_Node000001_Node000015"><a xlink:title=" ">
<path fill="none" stroke="#63b8ff" d="M639.45,-328.8C629.88,-379.81 602.23,-492.33 536.25,-558.25 529.54,-564.96 521.21,-570.33 512.55,-574.62"/>
<polygon fill="#63b8ff" stroke="#63b8ff" points="642.84,-329.72 641.15,-319.26 635.95,-328.49 642.84,-329.72"/>
</a>
</g>
</g>
<!-- Node18 -->
<g id="Node000018" class="node">
<title>Node18</title>
<g id="a_Node000018"><a xlink:href="../../d2/d49/classml_1_1model_1_1_c_metric_population_model.html#ae0e525c5b7ccee96f012f4e8b480748d" target="_top" xlink:title=" ">
<polygon fill="white" stroke="#666666" points="531.38,-195.5 386.38,-195.5 386.38,-165 531.38,-165 531.38,-195.5"/>
<text text-anchor="start" x="394.38" y="-182" font-family="Helvetica,sans-Serif" font-size="10.00">ml::model::CMetricPopulation</text>
<text text-anchor="middle" x="458.88" y="-170.75" font-family="Helvetica,sans-Serif" font-size="10.00">Model::model</text>
</a>
</g>
</g>
<!-- Node1&#45;&gt;Node18 -->
<g id="edge21_Node000001_Node000018" class="edge">
<title>Node1&#45;&gt;Node18</title>
<g id="a_edge21_Node000001_Node000018"><a xlink:title=" ">
<path fill="none" stroke="#63b8ff" d="M622.72,-278.23C602.5,-256.45 570.09,-224.86 536.25,-205.25 530.21,-201.75 523.62,-198.67 516.92,-195.97"/>
<polygon fill="#63b8ff" stroke="#63b8ff" points="620.01,-280.46 629.34,-285.49 625.19,-275.74 620.01,-280.46"/>
</a>
</g>
</g>
<!-- Node19 -->
<g id="Node000019" class="node">
<title>Node19</title>
<g id="a_Node000019"><a xlink:href="../../df/dd1/classml_1_1model_1_1_c_metric_population_model_details_view.html#a8e065652be418e62f06047e217aac094" target="_top" xlink:title="Get the time series model for feature and byFieldId.">
<polygon fill="white" stroke="#666666" points="531.38,-146.5 386.38,-146.5 386.38,-116 531.38,-116 531.38,-146.5"/>
<text text-anchor="start" x="394.38" y="-133" font-family="Helvetica,sans-Serif" font-size="10.00">ml::model::CMetricPopulation</text>
<text text-anchor="middle" x="458.88" y="-121.75" font-family="Helvetica,sans-Serif" font-size="10.00">ModelDetailsView::model</text>
</a>
</g>
</g>
<!-- Node1&#45;&gt;Node19 -->
<g id="edge22_Node000001_Node000019" class="edge">
<title>Node1&#45;&gt;Node19</title>
<g id="a_edge22_Node000001_Node000019"><a xlink:title=" ">
<path fill="none" stroke="#63b8ff" d="M631.21,-276.45C614.11,-243.88 580.47,-188.24 536.25,-156.25 531.28,-152.65 525.76,-149.55 520.02,-146.89"/>
<polygon fill="#63b8ff" stroke="#63b8ff" points="628.01,-277.88 635.68,-285.2 634.25,-274.7 628.01,-277.88"/>
</a>
</g>
</g>
<!-- Node20 -->
<g id="Node000020" class="node">
<title>Node20</title>
<g id="a_Node000020"><a xlink:href="../../d2/d49/classml_1_1model_1_1_c_metric_population_model.html#aee59e116a3bb9c8d76bc359b9d7ab554" target="_top" xlink:title=" ">
<polygon fill="white" stroke="#666666" points="531.38,-79.5 386.38,-79.5 386.38,-49 531.38,-49 531.38,-79.5"/>
<text text-anchor="start" x="394.38" y="-66" font-family="Helvetica,sans-Serif" font-size="10.00">ml::model::CMetricPopulation</text>
<text text-anchor="middle" x="458.88" y="-54.75" font-family="Helvetica,sans-Serif" font-size="10.00">Model::sample</text>
</a>
</g>
</g>
<!-- Node1&#45;&gt;Node20 -->
<g id="edge23_Node000001_Node000020" class="edge">
<title>Node1&#45;&gt;Node20</title>
<g id="a_edge23_Node000001_Node000020"><a xlink:title=" ">
<path fill="none" stroke="#63b8ff" d="M634.65,-275.94C619.56,-235.5 586.03,-157.48 536.25,-107.25 525.11,-96.01 510.42,-86.81 496.9,-79.84"/>
<polygon fill="#63b8ff" stroke="#63b8ff" points="631.35,-277.13 638.05,-285.33 637.93,-274.74 631.35,-277.13"/>
</a>
</g>
</g>
<!-- Node21 -->
<g id="Node000021" class="node">
<title>Node21</title>
<g id="a_Node000021"><a xlink:href="../../d2/d49/classml_1_1model_1_1_c_metric_population_model.html#a3129c816691714c77a93551c544f116a" target="_top" xlink:title="Should this model be persisted?">
<polygon fill="white" stroke="#666666" points="531.38,-30.5 386.38,-30.5 386.38,0 531.38,0 531.38,-30.5"/>
<text text-anchor="start" x="394.38" y="-17" font-family="Helvetica,sans-Serif" font-size="10.00">ml::model::CMetricPopulation</text>
<text text-anchor="middle" x="458.88" y="-5.75" font-family="Helvetica,sans-Serif" font-size="10.00">Model::shouldPersist</text>
</a>
</g>
</g>
<!-- Node1&#45;&gt;Node21 -->
<g id="edge25_Node000001_Node000021" class="edge">
<title>Node1&#45;&gt;Node21</title>
<g id="a_edge25_Node000001_Node000021"><a xlink:title=" ">
<path fill="none" stroke="#63b8ff" d="M640.23,-275.36C631.93,-222.67 606.26,-105.33 536.25,-40.25 532.37,-36.64 527.95,-33.55 523.25,-30.91"/>
<polygon fill="#63b8ff" stroke="#63b8ff" points="636.77,-275.84 641.69,-285.22 643.69,-274.82 636.77,-275.84"/>
</a>
</g>
</g>
<!-- Node3 -->
<g id="Node000003" class="node">
<title>Node3</title>
<g id="a_Node000003"><a xlink:href="../../d2/d49/classml_1_1model_1_1_c_metric_population_model.html#a457145bf09b5ea76f7b8174152355d1d" target="_top" xlink:title=" ">
<polygon fill="white" stroke="#666666" points="154.75,-580.5 0,-580.5 0,-550 154.75,-550 154.75,-580.5"/>
<text text-anchor="start" x="8" y="-567" font-family="Helvetica,sans-Serif" font-size="10.00">ml::model::CMetricPopulation</text>
<text text-anchor="middle" x="77.38" y="-555.75" font-family="Helvetica,sans-Serif" font-size="10.00">Model::CMetricPopulationModel</text>
</a>
</g>
</g>
<!-- Node2&#45;&gt;Node3 -->
<g id="edge2_Node000002_Node000003" class="edge">
<title>Node2&#45;&gt;Node3</title>
<g id="a_edge2_Node000002_Node000003"><a xlink:title=" ">
<path fill="none" stroke="#63b8ff" d="M179.93,-555.56C171.64,-556.36 163.28,-557.15 155.1,-557.93"/>
<polygon fill="#63b8ff" stroke="#63b8ff" points="180.04,-559.07 189.66,-554.64 179.38,-552.1 180.04,-559.07"/>
</a>
</g>
</g>
<!-- Node7&#45;&gt;Node2 -->
<g id="edge7_Node000007_Node000002" class="edge">
<title>Node7&#45;&gt;Node2</title>
<g id="a_edge7_Node000007_Node000002"><a xlink:title=" ">
<path fill="none" stroke="#63b8ff" d="M413,-494.48C392.57,-503.42 367.99,-513.79 345.5,-522.25 337.01,-525.44 327.91,-528.63 319.06,-531.6"/>
<polygon fill="#63b8ff" stroke="#63b8ff" points="414.14,-497.8 421.88,-490.57 411.32,-491.4 414.14,-497.8"/>
</a>
</g>
</g>
<!-- Node8 -->
<g id="Node000008" class="node">
<title>Node8</title>
<g id="a_Node000008"><a xlink:href="../../d2/d49/classml_1_1model_1_1_c_metric_population_model.html#af6632807d37c6df6ffb2bfcc82638e52" target="_top" xlink:title="Clear out large state objects for people/attributes that are pruned.">
<polygon fill="white" stroke="#666666" points="341.75,-464.5 194.5,-464.5 194.5,-434 341.75,-434 341.75,-464.5"/>
<text text-anchor="start" x="202.5" y="-451" font-family="Helvetica,sans-Serif" font-size="10.00">ml::model::CMetricPopulation</text>
<text text-anchor="middle" x="268.12" y="-439.75" font-family="Helvetica,sans-Serif" font-size="10.00">Model::clearPrunedResources</text>
</a>
</g>
</g>
<!-- Node7&#45;&gt;Node8 -->
<g id="edge8_Node000007_Node000008" class="edge">
<title>Node7&#45;&gt;Node8</title>
<g id="a_edge8_Node000007_Node000008"><a xlink:title=" ">
<path fill="none" stroke="#63b8ff" d="M374.74,-463.24C363.85,-461.8 352.77,-460.33 342.07,-458.91"/>
<polygon fill="#63b8ff" stroke="#63b8ff" points="374.1,-466.69 384.48,-464.53 375.02,-459.75 374.1,-466.69"/>
</a>
</g>
</g>
<!-- Node10 -->
<g id="Node000010" class="node">
<title>Node10</title>
<g id="a_Node000010"><a xlink:href="../../d2/d49/classml_1_1model_1_1_c_metric_population_model.html#a29261a9ee0d70391b539f75c8320d008" target="_top" xlink:title=" ">
<polygon fill="white" stroke="#666666" points="340.62,-366.5 195.62,-366.5 195.62,-336 340.62,-336 340.62,-366.5"/>
<text text-anchor="start" x="203.62" y="-353" font-family="Helvetica,sans-Serif" font-size="10.00">ml::model::CMetricPopulation</text>
<text text-anchor="middle" x="268.12" y="-341.75" font-family="Helvetica,sans-Serif" font-size="10.00">Model::computeProbability</text>
</a>
</g>
</g>
<!-- Node7&#45;&gt;Node10 -->
<g id="edge10_Node000007_Node000010" class="edge">
<title>Node7&#45;&gt;Node10</title>
<g id="a_edge10_Node000007_Node000010"><a xlink:title=" ">
<path fill="none" stroke="#63b8ff" d="M386.03,-452.84C384.46,-451.7 382.95,-450.51 381.5,-449.25 354.17,-425.55 372.83,-399.95 345.5,-376.25 341.28,-372.59 336.52,-369.47 331.48,-366.8"/>
<polygon fill="#63b8ff" stroke="#63b8ff" points="383.88,-455.62 394.23,-457.9 387.56,-449.67 383.88,-455.62"/>
</a>
</g>
</g>
<!-- Node11 -->
<g id="Node000011" class="node">
<title>Node11</title>
<g id="a_Node000011"><a xlink:href="../../d2/d49/classml_1_1model_1_1_c_metric_population_model.html#a2d322f5d2ad2d97a1b67acb3ffaeb25e" target="_top" xlink:title=" ">
<polygon fill="white" stroke="#666666" points="340.62,-415.5 195.62,-415.5 195.62,-385 340.62,-385 340.62,-415.5"/>
<text text-anchor="start" x="203.62" y="-402" font-family="Helvetica,sans-Serif" font-size="10.00">ml::model::CMetricPopulation</text>
<text text-anchor="middle" x="268.12" y="-390.75" font-family="Helvetica,sans-Serif" font-size="10.00">Model::createNewModels</text>
</a>
</g>
</g>
<!-- Node7&#45;&gt;Node11 -->
<g id="edge11_Node000007_Node000011" class="edge">
<title>Node7&#45;&gt;Node11</title>
<g id="a_edge11_Node000007_Node000011"><a xlink:title=" ">
<path fill="none" stroke="#63b8ff" d="M393.1,-454.43C389.13,-452.79 385.23,-451.06 381.5,-449.25 364.2,-440.85 362.8,-433.65 345.5,-425.25 338.47,-421.84 330.86,-418.72 323.27,-415.93"/>
<polygon fill="#63b8ff" stroke="#63b8ff" points="391.73,-457.66 402.32,-458.02 394.27,-451.13 391.73,-457.66"/>
</a>
</g>
</g>
<!-- Node12 -->
<g id="Node000012" class="node">
<title>Node12</title>
<g id="a_Node000012"><a xlink:href="../../d2/d49/classml_1_1model_1_1_c_metric_population_model.html#a62ff462ed78c1152687fa12f3a9fbe02" target="_top" xlink:title="Initialize the time series models for recycled attributes and/or people.">
<polygon fill="white" stroke="#666666" points="343.25,-513.5 193,-513.5 193,-483 343.25,-483 343.25,-513.5"/>
<text text-anchor="start" x="201" y="-500" font-family="Helvetica,sans-Serif" font-size="10.00">ml::model::CMetricPopulation</text>
<text text-anchor="middle" x="268.12" y="-488.75" font-family="Helvetica,sans-Serif" font-size="10.00">Model::updateRecycledModels</text>
</a>
</g>
</g>
<!-- Node7&#45;&gt;Node12 -->
<g id="edge12_Node000007_Node000012" class="edge">
<title>Node7&#45;&gt;Node12</title>
<g id="a_edge12_Node000007_Node000012"><a xlink:title=" ">
<path fill="none" stroke="#63b8ff" d="M374.82,-484.81C364.44,-486.13 353.88,-487.47 343.64,-488.77"/>
<polygon fill="#63b8ff" stroke="#63b8ff" points="375,-488.32 384.48,-483.58 374.12,-481.37 375,-488.32"/>
</a>
</g>
</g>
<!-- Node9 -->
<g id="Node000009" class="node">
<title>Node9</title>
<g id="a_Node000009"><a xlink:href="../../d2/d49/classml_1_1model_1_1_c_metric_population_model.html#a85882ed6b58e6c5fd11cb647dbc77b86" target="_top" xlink:title=" ">
<polygon fill="white" stroke="#666666" points="149.88,-464.5 4.88,-464.5 4.88,-434 149.88,-434 149.88,-464.5"/>
<text text-anchor="start" x="12.88" y="-451" font-family="Helvetica,sans-Serif" font-size="10.00">ml::model::CMetricPopulation</text>
<text text-anchor="middle" x="77.38" y="-439.75" font-family="Helvetica,sans-Serif" font-size="10.00">Model::prune</text>
</a>
</g>
</g>
<!-- Node8&#45;&gt;Node9 -->
<g id="edge9_Node000008_Node000009" class="edge">
<title>Node8&#45;&gt;Node9</title>
<g id="a_edge9_Node000008_Node000009"><a xlink:title=" ">
<path fill="none" stroke="#63b8ff" d="M182.88,-449.25C171.98,-449.25 160.9,-449.25 150.22,-449.25"/>
<polygon fill="#63b8ff" stroke="#63b8ff" points="182.64,-452.75 192.64,-449.25 182.64,-445.75 182.64,-452.75"/>
</a>
</g>
</g>
<!-- Node14&#45;&gt;Node10 -->
<g id="edge15_Node000014_Node000010" class="edge">
<title>Node14&#45;&gt;Node10</title>
<g id="a_edge15_Node000014_Node000010"><a xlink:title=" ">
<path fill="none" stroke="#63b8ff" d="M393.1,-405.43C389.13,-403.79 385.23,-402.06 381.5,-400.25 364.2,-391.85 362.8,-384.65 345.5,-376.25 338.47,-372.84 330.86,-369.72 323.27,-366.93"/>
<polygon fill="#63b8ff" stroke="#63b8ff" points="391.73,-408.66 402.32,-409.02 394.27,-402.13 391.73,-408.66"/>
</a>
</g>
</g>
<!-- Node15&#45;&gt;Node3 -->
<g id="edge19_Node000015_Node000003" class="edge">
<title>Node15&#45;&gt;Node3</title>
<g id="a_edge19_Node000015_Node000003"><a xlink:title=" ">
<path fill="none" stroke="#63b8ff" d="M374.95,-584.79C309.51,-580.48 218.91,-574.51 155.12,-570.31"/>
<polygon fill="#63b8ff" stroke="#63b8ff" points="374.33,-588.25 384.54,-585.42 374.79,-581.27 374.33,-588.25"/>
</a>
</g>
</g>
<!-- Node16 -->
<g id="Node000016" class="node">
<title>Node16</title>
<g id="a_Node000016"><a xlink:href="../../d2/d49/classml_1_1model_1_1_c_metric_population_model.html#a0b665760d945f82464df05e6139ddc93" target="_top" xlink:title=" ">
<polygon fill="white" stroke="#666666" points="345.5,-648.5 190.75,-648.5 190.75,-618 345.5,-618 345.5,-648.5"/>
<text text-anchor="start" x="198.75" y="-635" font-family="Helvetica,sans-Serif" font-size="10.00">ml::model::CMetricPopulation</text>
<text text-anchor="middle" x="268.12" y="-623.75" font-family="Helvetica,sans-Serif" font-size="10.00">Model::CMetricPopulationModel</text>
</a>
</g>
</g>
<!-- Node15&#45;&gt;Node16 -->
<g id="edge17_Node000015_Node000016" class="edge">
<title>Node15&#45;&gt;Node16</title>
<g id="a_edge17_Node000015_Node000016"><a xlink:title=" ">
<path fill="none" stroke="#63b8ff" d="M377.94,-608.46C364.72,-611.47 351.12,-614.57 338.2,-617.51"/>
<polygon fill="#63b8ff" stroke="#63b8ff" points="378.48,-611.93 387.45,-606.29 376.93,-605.1 378.48,-611.93"/>
</a>
</g>
</g>
<!-- Node17 -->
<g id="Node000017" class="node">
<title>Node17</title>
<g id="a_Node000017"><a xlink:href="../../d2/d49/classml_1_1model_1_1_c_metric_population_model.html#aec8409e613696df163d439f7ada93410" target="_top" xlink:title=" ">
<polygon fill="white" stroke="#666666" points="149.88,-648.5 4.88,-648.5 4.88,-618 149.88,-618 149.88,-648.5"/>
<text text-anchor="start" x="12.88" y="-635" font-family="Helvetica,sans-Serif" font-size="10.00">ml::model::CMetricPopulation</text>
<text text-anchor="middle" x="77.38" y="-623.75" font-family="Helvetica,sans-Serif" font-size="10.00">Model::cloneForPersistence</text>
</a>
</g>
</g>
<!-- Node16&#45;&gt;Node17 -->
<g id="edge18_Node000016_Node000017" class="edge">
<title>Node16&#45;&gt;Node17</title>
<g id="a_edge18_Node000016_Node000017"><a xlink:title=" ">
<path fill="none" stroke="#63b8ff" d="M179.07,-633.25C169.4,-633.25 159.64,-633.25 150.2,-633.25"/>
<polygon fill="#63b8ff" stroke="#63b8ff" points="178.84,-636.75 188.84,-633.25 178.84,-629.75 178.84,-636.75"/>
</a>
</g>
</g>
<!-- Node20&#45;&gt;Node20 -->
<g id="edge24_Node000020_Node000020" class="edge">
<title>Node20&#45;&gt;Node20</title>
<g id="a_edge24_Node000020_Node000020"><a xlink:title=" ">
<path fill="none" stroke="#63b8ff" d="M490.05,-91.2C484.95,-94.97 474.56,-97.5 458.88,-97.5 430.2,-97.5 419.22,-89.06 425.94,-79.99"/>
<polygon fill="#63b8ff" stroke="#63b8ff" points="493.48,-91.9 491.58,-81.48 486.56,-90.82 493.48,-91.9"/>
</a>
</g>
</g>
</g>
</svg>

<g id="navigator" transform="translate(0 0)" fill="#404254">
  <rect fill="#f2f5e9" fill-opacity="0.5" stroke="#606060" stroke-width=".5" x="0" y="0" width="60" height="60"/>
  <use id="zoomplus" xlink:href="#zoomPlus" x="17" y="9" onmousedown="handleZoom(evt,'in')"/>
  <use id="zoomminus" xlink:href="#zoomMin" x="42" y="9" onmousedown="handleZoom(evt,'out')"/>
  <use id="reset" xlink:href="#resetDef" x="30" y="36" onmousedown="handleReset()"/>
   <use id="arrowup" xlink:href="#arrowUp" x="0" y="0" onmousedown="handlePan(0,-1)"/>
  <use id="arrowright" xlink:href="#arrowRight" x="0" y="0" onmousedown="handlePan(1,0)"/>
  <use id="arrowdown" xlink:href="#arrowDown" x="0" y="0" onmousedown="handlePan(0,1)"/>
  <use id="arrowleft" xlink:href="#arrowLeft" x="0" y="0" onmousedown="handlePan(-1,0)"/>
</g>
<svg viewBox="0 0 15 15" width="100%" height="30px" preserveAspectRatio="xMaxYMin meet">
 <g id="arrow_out" transform="scale(0.3 0.3)">
  <a xlink:href="classml_1_1model_1_1_c_metric_population_model_a9d01e0c353a938402db76b498a332b61_icgraph_org.svg" target="_base">
   <rect id="button" ry="5" rx="5" y="6" x="6" height="38" width="38"
        fill="#f2f5e9" fill-opacity="0.5" stroke="#606060" stroke-width="1.0"/>
   <path id="arrow"
     d="M 11.500037,31.436501 C 11.940474,20.09759 22.043105,11.32322 32.158766,21.979434 L 37.068811,17.246167 C 37.068811,17.246167 37.088388,32 37.088388,32 L 22.160133,31.978069 C 22.160133,31.978069 26.997745,27.140456 26.997745,27.140456 C 18.528582,18.264221 13.291696,25.230495 11.500037,31.436501 z"
     style="fill:#404040;"/>
  </a>
 </g>
</svg>

<style type='text/css'>
<![CDATA[
[data-mouse-over-selected='false'] { opacity: 0.7; }
[data-mouse-over-selected='true']  { opacity: 1.0; }
]]>
</style>
<script type="application/ecmascript"><![CDATA[
document.addEventListener('DOMContentLoaded', (event) => {
  highlightEdges();
  highlightAdjacentNodes();
});
]]></script>
</svg>
