<?xml version="1.0" encoding="UTF-8" standalone="no"?>
<!DOCTYPE svg PUBLIC "-//W3C//DTD SVG 1.1//EN"
 "http://www.w3.org/Graphics/SVG/1.1/DTD/svg11.dtd">
<!-- Generated by graphviz version 10.0.1 (20240210.2158)
 -->
<!-- Title: ml::model::CMetricPopulationModel::baselineBucketMean Pages: 1 -->
<svg width="552pt" height="376pt"
 viewBox="0.00 0.00 551.75 375.50" xmlns="http://www.w3.org/2000/svg" xmlns:xlink="http://www.w3.org/1999/xlink">
<g id="graph0" class="graph" transform="scale(1 1) rotate(0) translate(4 371.5)">
<title>ml::model::CMetricPopulationModel::baselineBucketMean</title>
<!-- Node1 -->
<g id="Node000001" class="node">
<title>Node1</title>
<g id="a_Node000001"><a xlink:title=" ">
<polygon fill="#999999" stroke="#666666" points="145,-189.5 0,-189.5 0,-159 145,-159 145,-189.5"/>
<text text-anchor="start" x="8" y="-176" font-family="Helvetica,sans-Serif" font-size="10.00">ml::model::CMetricPopulation</text>
<text text-anchor="middle" x="72.5" y="-164.75" font-family="Helvetica,sans-Serif" font-size="10.00">Model::baselineBucketMean</text>
</a>
</g>
</g>
<!-- Node2 -->
<g id="Node000002" class="node">
<title>Node2</title>
<g id="a_Node000002"><a xlink:href="../../dc/d29/classml_1_1model_1_1_c_population_model.html#a49055a13eaa9a897d3b22f3178341ae4" target="_top" xlink:title="Correct baseline with corrections for interim results.">
<polygon fill="white" stroke="#666666" points="347.75,-367.5 203.5,-367.5 203.5,-337 347.75,-337 347.75,-367.5"/>
<text text-anchor="start" x="211.5" y="-354" font-family="Helvetica,sans-Serif" font-size="10.00">ml::model::CPopulationModel</text>
<text text-anchor="middle" x="275.62" y="-342.75" font-family="Helvetica,sans-Serif" font-size="10.00">::correctBaselineForInterim</text>
</a>
</g>
</g>
<!-- Node1&#45;&gt;Node2 -->
<g id="edge1_Node000001_Node000002" class="edge">
<title>Node1&#45;&gt;Node2</title>
<g id="a_edge1_Node000001_Node000002"><a xlink:title=" ">
<path fill="none" stroke="#63b8ff" d="M80.52,-189.88C94.92,-220.19 130.75,-287.14 181,-323.25 185.43,-326.43 190.22,-329.27 195.21,-331.81"/>
<polygon fill="#63b8ff" stroke="#63b8ff" points="193.75,-334.99 204.3,-335.96 196.66,-328.62 193.75,-334.99"/>
</a>
</g>
</g>
<!-- Node4 -->
<g id="Node000004" class="node">
<title>Node4</title>
<g id="a_Node000004"><a xlink:href="../../d3/d2e/private_8h.html#a1c6de65cc31c36fe2ede0d438531d327" target="_top" xlink:title=" ">
<polygon fill="white" stroke="#666666" points="492.38,-318.88 457.62,-318.88 457.62,-299.62 492.38,-299.62 492.38,-318.88"/>
<text text-anchor="middle" x="475" y="-305.38" font-family="Helvetica,sans-Serif" font-size="10.00">type</text>
</a>
</g>
</g>
<!-- Node1&#45;&gt;Node4 -->
<g id="edge12_Node000001_Node000004" class="edge">
<title>Node1&#45;&gt;Node4</title>
<g id="a_edge12_Node000001_Node000004"><a xlink:title=" ">
<path fill="none" stroke="#63b8ff" d="M82.36,-189.76C98.26,-215.91 134.39,-268.07 181,-290.25 270.23,-332.7 392.32,-321.76 446.35,-313.94"/>
<polygon fill="#63b8ff" stroke="#63b8ff" points="446.54,-317.45 455.9,-312.48 445.48,-310.53 446.54,-317.45"/>
</a>
</g>
</g>
<!-- Node5 -->
<g id="Node000005" class="node">
<title>Node5</title>
<g id="a_Node000005"><a xlink:href="../../d2/d49/classml_1_1model_1_1_c_metric_population_model.html#a82dabafff18ac31145b9ea2792e06edc" target="_top" xlink:title="Get the interim corrections of the current bucket.">
<polygon fill="white" stroke="#666666" points="370.25,-281.5 181,-281.5 181,-251 370.25,-251 370.25,-281.5"/>
<text text-anchor="start" x="189" y="-268" font-family="Helvetica,sans-Serif" font-size="10.00">ml::model::CMetricPopulation</text>
<text text-anchor="middle" x="275.62" y="-256.75" font-family="Helvetica,sans-Serif" font-size="10.00">Model::currentBucketInterimCorrections</text>
</a>
</g>
</g>
<!-- Node1&#45;&gt;Node5 -->
<g id="edge4_Node000001_Node000005" class="edge">
<title>Node1&#45;&gt;Node5</title>
<g id="a_edge4_Node000001_Node000005"><a xlink:title=" ">
<path fill="none" stroke="#63b8ff" d="M94.29,-189.83C115.22,-204.86 148.92,-227.34 181,-241.25 185.64,-243.26 190.48,-245.15 195.41,-246.9"/>
<polygon fill="#63b8ff" stroke="#63b8ff" points="194.28,-250.22 204.87,-250.07 196.5,-243.58 194.28,-250.22"/>
</a>
</g>
</g>
<!-- Node6 -->
<g id="Node000006" class="node">
<title>Node6</title>
<g id="a_Node000006"><a xlink:href="../../d2/d49/classml_1_1model_1_1_c_metric_population_model.html#a9d01e0c353a938402db76b498a332b61" target="_top" xlink:title=" ">
<polygon fill="white" stroke="#666666" points="348.12,-214.5 203.12,-214.5 203.12,-184 348.12,-184 348.12,-214.5"/>
<text text-anchor="start" x="211.12" y="-201" font-family="Helvetica,sans-Serif" font-size="10.00">ml::model::CMetricPopulation</text>
<text text-anchor="middle" x="275.62" y="-189.75" font-family="Helvetica,sans-Serif" font-size="10.00">Model::model</text>
</a>
</g>
</g>
<!-- Node1&#45;&gt;Node6 -->
<g id="edge5_Node000001_Node000006" class="edge">
<title>Node1&#45;&gt;Node6</title>
<g id="a_edge5_Node000001_Node000006"><a xlink:title=" ">
<path fill="none" stroke="#63b8ff" d="M145.26,-183.17C160.33,-185.04 176.34,-187.03 191.78,-188.95"/>
<polygon fill="#63b8ff" stroke="#63b8ff" points="191.04,-192.39 201.39,-190.15 191.9,-185.44 191.04,-192.39"/>
</a>
</g>
</g>
<!-- Node7 -->
<g id="Node000007" class="node">
<title>Node7</title>
<g id="a_Node000007"><a xlink:href="../../d7/d92/classml_1_1maths_1_1common_1_1_c_model.html#a4bc1b7ea6b3560af80df77b1741443ba" target="_top" xlink:title="Get the best (least MSE) predicted value at time.">
<polygon fill="white" stroke="#666666" points="330.12,-165.5 221.12,-165.5 221.12,-135 330.12,-135 330.12,-165.5"/>
<text text-anchor="start" x="229.12" y="-152" font-family="Helvetica,sans-Serif" font-size="10.00">ml::maths::common::</text>
<text text-anchor="middle" x="275.62" y="-140.75" font-family="Helvetica,sans-Serif" font-size="10.00">CModel::predict</text>
</a>
</g>
</g>
<!-- Node1&#45;&gt;Node7 -->
<g id="edge7_Node000001_Node000007" class="edge">
<title>Node1&#45;&gt;Node7</title>
<g id="a_edge7_Node000001_Node000007"><a xlink:title=" ">
<path fill="none" stroke="#63b8ff" d="M145.26,-165.69C166.3,-163.18 189.17,-160.45 209.75,-157.99"/>
<polygon fill="#63b8ff" stroke="#63b8ff" points="209.9,-161.5 219.42,-156.84 209.07,-154.55 209.9,-161.5"/>
</a>
</g>
</g>
<!-- Node8 -->
<g id="Node000008" class="node">
<title>Node8</title>
<g id="a_Node000008"><a xlink:href="../../d6/dd5/namespaceml_1_1maths_1_1common.html#a76cd2d98ee5eb75044bd14d645246a83" target="_top" xlink:title="Get the support for a log&#45;t distribution.">
<polygon fill="white" stroke="#666666" points="330.12,-116.5 221.12,-116.5 221.12,-86 330.12,-86 330.12,-116.5"/>
<text text-anchor="start" x="229.12" y="-103" font-family="Helvetica,sans-Serif" font-size="10.00">ml::maths::common::</text>
<text text-anchor="middle" x="275.62" y="-91.75" font-family="Helvetica,sans-Serif" font-size="10.00">support</text>
</a>
</g>
</g>
<!-- Node1&#45;&gt;Node8 -->
<g id="edge8_Node000001_Node000008" class="edge">
<title>Node1&#45;&gt;Node8</title>
<g id="a_edge8_Node000001_Node000008"><a xlink:title=" ">
<path fill="none" stroke="#63b8ff" d="M104.95,-158.62C126.1,-148.5 154.8,-135.53 181,-126.25 190.22,-122.98 200.08,-119.91 209.81,-117.12"/>
<polygon fill="#63b8ff" stroke="#63b8ff" points="210.55,-120.54 219.25,-114.49 208.67,-113.8 210.55,-120.54"/>
</a>
</g>
</g>
<!-- Node9 -->
<g id="Node000009" class="node">
<title>Node9</title>
<g id="a_Node000009"><a xlink:href="../../df/d9c/namespaceml_1_1model__t.html#acad0365d71f4758aea2e1835732074c7" target="_top" xlink:title="Get the support for feature.">
<polygon fill="white" stroke="#666666" points="328.25,-67.88 223,-67.88 223,-48.62 328.25,-48.62 328.25,-67.88"/>
<text text-anchor="middle" x="275.62" y="-54.38" font-family="Helvetica,sans-Serif" font-size="10.00">ml::model_t::support</text>
</a>
</g>
</g>
<!-- Node1&#45;&gt;Node9 -->
<g id="edge9_Node000001_Node000009" class="edge">
<title>Node1&#45;&gt;Node9</title>
<g id="a_edge9_Node000001_Node000009"><a xlink:title=" ">
<path fill="none" stroke="#63b8ff" d="M85.92,-158.7C104.27,-136.86 140.82,-97.51 181,-77.25 190.56,-72.43 201.26,-68.83 211.9,-66.14"/>
<polygon fill="#63b8ff" stroke="#63b8ff" points="212.47,-69.6 221.46,-63.99 210.93,-62.77 212.47,-69.6"/>
</a>
</g>
</g>
<!-- Node11 -->
<g id="Node000011" class="node">
<title>Node11</title>
<g id="a_Node000011"><a xlink:href="../../dd/d55/classml_1_1maths_1_1common_1_1_c_tools.html#a0ee3c8a8c133d36faa270f96ff48ae21" target="_top" xlink:title=" ">
<polygon fill="white" stroke="#666666" points="330.12,-30.5 221.12,-30.5 221.12,0 330.12,0 330.12,-30.5"/>
<text text-anchor="start" x="229.12" y="-17" font-family="Helvetica,sans-Serif" font-size="10.00">ml::maths::common::</text>
<text text-anchor="middle" x="275.62" y="-5.75" font-family="Helvetica,sans-Serif" font-size="10.00">CTools::truncate</text>
</a>
</g>
</g>
<!-- Node1&#45;&gt;Node11 -->
<g id="edge11_Node000001_Node000011" class="edge">
<title>Node1&#45;&gt;Node11</title>
<g id="a_edge11_Node000001_Node000011"><a xlink:title=" ">
<path fill="none" stroke="#63b8ff" d="M81.48,-158.58C96.77,-130.19 132.97,-70.35 181,-39.25 189.69,-33.62 199.63,-29.32 209.71,-26.02"/>
<polygon fill="#63b8ff" stroke="#63b8ff" points="210.58,-29.41 219.2,-23.24 208.62,-22.69 210.58,-29.41"/>
</a>
</g>
</g>
<!-- Node3 -->
<g id="Node000003" class="node">
<title>Node3</title>
<g id="a_Node000003"><a xlink:href="../../df/d9c/namespaceml_1_1model__t.html#a853aa9a4b9f915b3ae6f919dc41a3941" target="_top" xlink:title=" ">
<polygon fill="white" stroke="#666666" points="543.75,-367.5 406.25,-367.5 406.25,-337 543.75,-337 543.75,-367.5"/>
<text text-anchor="start" x="414.25" y="-354" font-family="Helvetica,sans-Serif" font-size="10.00">ml::model_t::requiresInterim</text>
<text text-anchor="middle" x="475" y="-342.75" font-family="Helvetica,sans-Serif" font-size="10.00">ResultAdjustment</text>
</a>
</g>
</g>
<!-- Node2&#45;&gt;Node3 -->
<g id="edge2_Node000002_Node000003" class="edge">
<title>Node2&#45;&gt;Node3</title>
<g id="a_edge2_Node000002_Node000003"><a xlink:title=" ">
<path fill="none" stroke="#63b8ff" d="M348.16,-352.25C363.34,-352.25 379.45,-352.25 394.9,-352.25"/>
<polygon fill="#63b8ff" stroke="#63b8ff" points="394.49,-355.75 404.49,-352.25 394.49,-348.75 394.49,-355.75"/>
</a>
</g>
</g>
<!-- Node2&#45;&gt;Node4 -->
<g id="edge3_Node000002_Node000004" class="edge">
<title>Node2&#45;&gt;Node4</title>
<g id="a_edge3_Node000002_Node000004"><a xlink:title=" ">
<path fill="none" stroke="#63b8ff" d="M348.16,-336.67C382.26,-329.24 421.04,-320.79 446.43,-315.26"/>
<polygon fill="#63b8ff" stroke="#63b8ff" points="446.91,-318.73 455.94,-313.19 445.42,-311.89 446.91,-318.73"/>
</a>
</g>
</g>
<!-- Node6&#45;&gt;Node6 -->
<g id="edge6_Node000006_Node000006" class="edge">
<title>Node6&#45;&gt;Node6</title>
<g id="a_edge6_Node000006_Node000006"><a xlink:title=" ">
<path fill="none" stroke="#63b8ff" d="M240.3,-214.99C233.09,-224.06 244.86,-232.5 275.62,-232.5 292.45,-232.5 303.59,-229.97 309.06,-226.2"/>
<polygon fill="#63b8ff" stroke="#63b8ff" points="312.49,-226.92 310.7,-216.48 305.59,-225.76 312.49,-226.92"/>
</a>
</g>
</g>
<!-- Node10 -->
<g id="Node000010" class="node">
<title>Node10</title>
<g id="a_Node000010"><a xlink:href="../../df/d9c/namespaceml_1_1model__t.html#a9ac31e9688577d75c839165d8ac1b667" target="_top" xlink:title="Get the dimension of the feature feature.">
<polygon fill="white" stroke="#666666" points="533.62,-67.88 416.38,-67.88 416.38,-48.62 533.62,-48.62 533.62,-67.88"/>
<text text-anchor="middle" x="475" y="-54.38" font-family="Helvetica,sans-Serif" font-size="10.00">ml::model_t::dimension</text>
</a>
</g>
</g>
<!-- Node9&#45;&gt;Node10 -->
<g id="edge10_Node000009_Node000010" class="edge">
<title>Node9&#45;&gt;Node10</title>
<g id="a_edge10_Node000009_Node000010"><a xlink:title=" ">
<path fill="none" stroke="#63b8ff" d="M328.74,-58.25C352.02,-58.25 379.78,-58.25 404.76,-58.25"/>
<polygon fill="#63b8ff" stroke="#63b8ff" points="404.51,-61.75 414.51,-58.25 404.51,-54.75 404.51,-61.75"/>
</a>
</g>
</g>
</g>
</svg>
