<?xml version="1.0" encoding="UTF-8" standalone="no"?>
<!DOCTYPE svg PUBLIC "-//W3C//DTD SVG 1.1//EN"
 "http://www.w3.org/Graphics/SVG/1.1/DTD/svg11.dtd">
<!-- Generated by graphviz version 10.0.1 (20240210.2158)
 -->
<!-- Title: ml::maths::time_series::CCalendarComponent::initialize Pages: 1 -->
<!--zoomable 327 -->

<svg id="main" version="1.1" xmlns="http://www.w3.org/2000/svg" xmlns:xlink="http://www.w3.org/1999/xlink" xml:space="preserve" onload="init(evt)">
<style type="text/css"><![CDATA[
.node, .edge {opacity: 0.7;}
.node.selected, .edge.selected {opacity: 1;}
.edge:hover path { stroke: red; }
.edge:hover polygon { stroke: red; fill: red; }
]]></style>

<defs>
  <circle id="rim" cx="0" cy="0" r="7"/>
  <circle id="rim2" cx="0" cy="0" r="3.5"/>
  <g id="zoomPlus">
    <use xlink:href="#rim" fill="#404040"><set attributeName="fill" to="#808080" begin="zoomplus.mouseover" end="zoomplus.mouseout"/></use>
    <path d="M-4,0h8M0,-4v8" fill="none" stroke="white" stroke-width="1.5" pointer-events="none"/>
  </g>
  <g id="zoomMin">
    <use xlink:href="#rim" fill="#404040"><set attributeName="fill" to="#808080" begin="zoomminus.mouseover" end="zoomminus.mouseout"/></use>
    <path d="M-4,0h8" fill="none" stroke="white" stroke-width="1.5" pointer-events="none"/>
  </g>
  <g id="arrowUp" transform="translate(30 24)">
    <use xlink:href="#rim"/>
    <path pointer-events="none" fill="none" stroke="white" stroke-width="1.5" d="M0,-3.0v7 M-2.5,-0.5L0,-3.0L2.5,-0.5"/>
  </g>
  <g id="arrowRight" transform="rotate(90) translate(36 -43)">
    <use xlink:href="#rim"/>
    <path pointer-events="none" fill="none" stroke="white" stroke-width="1.5" d="M0,-3.0v7 M-2.5,-0.5L0,-3.0L2.5,-0.5"/>
  </g>
  <g id="arrowDown" transform="rotate(180) translate(-30 -48)">
    <use xlink:href="#rim"/>
    <path pointer-events="none" fill="none" stroke="white" stroke-width="1.5" d="M0,-3.0v7 M-2.5,-0.5L0,-3.0L2.5,-0.5"/>
  </g>
  <g id="arrowLeft" transform="rotate(270) translate(-36 17)">
    <use xlink:href="#rim"/>
    <path pointer-events="none" fill="none" stroke="white" stroke-width="1.5" d="M0,-3.0v7 M-2.5,-0.5L0,-3.0L2.5,-0.5"/>
  </g>
  <g id="resetDef">
    <use xlink:href="#rim2" fill="#404040"><set attributeName="fill" to="#808080" begin="reset.mouseover" end="reset.mouseout"/></use>
  </g>
</defs>
<script type="application/ecmascript">
var viewWidth = 700;
var viewHeight = 327;
var sectionId = 'dynsection-15';
</script>
<script type="application/ecmascript" xlink:href="../../svg.min.js"/>
<svg id="graph" class="graph">
<g id="viewport">
<title>ml::maths::time_series::CCalendarComponent::initialize</title>
<!-- Node1 -->
<g id="Node000001" class="node">
<title>Node1</title>
<g id="a_Node000001"><a xlink:title="Initialize the adaptive bucketing.">
<polygon fill="#999999" stroke="#666666" points="124.75,-112.12 0,-112.12 0,-70.38 124.75,-70.38 124.75,-112.12"/>
<text text-anchor="start" x="8" y="-98.62" font-family="Helvetica,sans-Serif" font-size="10.00">ml::maths::time_series</text>
<text text-anchor="start" x="8" y="-87.38" font-family="Helvetica,sans-Serif" font-size="10.00">::CCalendarComponent::</text>
<text text-anchor="middle" x="62.38" y="-76.12" font-family="Helvetica,sans-Serif" font-size="10.00">initialize</text>
</a>
</g>
</g>
<!-- Node2 -->
<g id="Node000002" class="node">
<title>Node2</title>
<g id="a_Node000002"><a xlink:href="../../d2/da4/classml_1_1maths_1_1time__series_1_1_c_calendar_component.html#a7d16389504c7ed3db6507202d65ef575" target="_top" xlink:title="Clear all data.">
<polygon fill="white" stroke="#666666" points="312.12,-223.5 166.38,-223.5 166.38,-193 312.12,-193 312.12,-223.5"/>
<text text-anchor="start" x="174.38" y="-210" font-family="Helvetica,sans-Serif" font-size="10.00">ml::maths::time_series</text>
<text text-anchor="middle" x="239.25" y="-198.75" font-family="Helvetica,sans-Serif" font-size="10.00">::CCalendarComponent::clear</text>
</a>
</g>
</g>
<!-- Node1&#45;&gt;Node2 -->
<g id="edge1_Node000001_Node000002" class="edge">
<title>Node1&#45;&gt;Node2</title>
<g id="a_edge1_Node000001_Node000002"><a xlink:title=" ">
<path fill="none" stroke="#63b8ff" d="M95.04,-112.44C126.35,-133.38 174.03,-165.29 205.66,-186.45"/>
<polygon fill="#63b8ff" stroke="#63b8ff" points="203.41,-189.15 213.66,-191.8 207.3,-183.33 203.41,-189.15"/>
</a>
</g>
</g>
<!-- Node9 -->
<g id="Node000009" class="node">
<title>Node9</title>
<g id="a_Node000009"><a xlink:href="../../de/d1f/classml_1_1maths_1_1time__series_1_1_c_calendar_component_adaptive_bucketing.html#acdfe6bc38f68ac9feb1533852df71517" target="_top" xlink:title=" ">
<polygon fill="white" stroke="#666666" points="317.75,-112.12 160.75,-112.12 160.75,-70.38 317.75,-70.38 317.75,-112.12"/>
<text text-anchor="start" x="168.75" y="-98.62" font-family="Helvetica,sans-Serif" font-size="10.00">ml::maths::time_series</text>
<text text-anchor="start" x="168.75" y="-87.38" font-family="Helvetica,sans-Serif" font-size="10.00">::CCalendarComponentAdaptive</text>
<text text-anchor="middle" x="239.25" y="-76.12" font-family="Helvetica,sans-Serif" font-size="10.00">Bucketing::initialize</text>
</a>
</g>
</g>
<!-- Node1&#45;&gt;Node9 -->
<g id="edge8_Node000001_Node000009" class="edge">
<title>Node1&#45;&gt;Node9</title>
<g id="a_edge8_Node000001_Node000009"><a xlink:title=" ">
<path fill="none" stroke="#63b8ff" d="M125.03,-91.25C132.78,-91.25 140.83,-91.25 148.9,-91.25"/>
<polygon fill="#63b8ff" stroke="#63b8ff" points="148.79,-94.75 158.79,-91.25 148.79,-87.75 148.79,-94.75"/>
</a>
</g>
</g>
<!-- Node13 -->
<g id="Node000013" class="node">
<title>Node13</title>
<g id="a_Node000013"><a xlink:href="../../d3/dc9/classml_1_1maths_1_1time__series_1_1_c_decomposition_component.html#ae5fdbab311799e4ff5fa5c6142020635" target="_top" xlink:title="Get the maximum size to use for the bucketing.">
<polygon fill="white" stroke="#666666" points="311.75,-52.12 166.75,-52.12 166.75,-10.38 311.75,-10.38 311.75,-52.12"/>
<text text-anchor="start" x="174.75" y="-38.62" font-family="Helvetica,sans-Serif" font-size="10.00">ml::maths::time_series</text>
<text text-anchor="start" x="174.75" y="-27.38" font-family="Helvetica,sans-Serif" font-size="10.00">::CDecompositionComponent</text>
<text text-anchor="middle" x="239.25" y="-16.12" font-family="Helvetica,sans-Serif" font-size="10.00">::maxSize</text>
</a>
</g>
</g>
<!-- Node1&#45;&gt;Node13 -->
<g id="edge12_Node000001_Node000013" class="edge">
<title>Node1&#45;&gt;Node13</title>
<g id="a_edge12_Node000001_Node000013"><a xlink:title=" ">
<path fill="none" stroke="#63b8ff" d="M125.03,-70.1C138.06,-65.62 151.94,-60.86 165.35,-56.26"/>
<polygon fill="#63b8ff" stroke="#63b8ff" points="166.22,-59.66 174.54,-53.11 163.95,-53.04 166.22,-59.66"/>
</a>
</g>
</g>
<!-- Node3 -->
<g id="Node000003" class="node">
<title>Node3</title>
<g id="a_Node000003"><a xlink:href="../../de/d1f/classml_1_1maths_1_1time__series_1_1_c_calendar_component_adaptive_bucketing.html#a22d3f8880e91a70d54cb0fa07a967589" target="_top" xlink:title=" ">
<polygon fill="white" stroke="#666666" points="510.75,-319.12 353.75,-319.12 353.75,-277.38 510.75,-277.38 510.75,-319.12"/>
<text text-anchor="start" x="361.75" y="-305.62" font-family="Helvetica,sans-Serif" font-size="10.00">ml::maths::time_series</text>
<text text-anchor="start" x="361.75" y="-294.38" font-family="Helvetica,sans-Serif" font-size="10.00">::CCalendarComponentAdaptive</text>
<text text-anchor="middle" x="432.25" y="-283.12" font-family="Helvetica,sans-Serif" font-size="10.00">Bucketing::clear</text>
</a>
</g>
</g>
<!-- Node2&#45;&gt;Node3 -->
<g id="edge2_Node000002_Node000003" class="edge">
<title>Node2&#45;&gt;Node3</title>
<g id="a_edge2_Node000002_Node000003"><a xlink:title=" ">
<path fill="none" stroke="#63b8ff" d="M267.78,-223.97C290.49,-236.65 323.74,-254.56 353.75,-268.25 356.87,-269.67 360.07,-271.09 363.32,-272.48"/>
<polygon fill="#63b8ff" stroke="#63b8ff" points="361.83,-275.65 372.4,-276.29 364.53,-269.2 361.83,-275.65"/>
</a>
</g>
</g>
<!-- Node5 -->
<g id="Node000005" class="node">
<title>Node5</title>
<g id="a_Node000005"><a xlink:href="../../d3/dc9/classml_1_1maths_1_1time__series_1_1_c_decomposition_component.html#a0962ce7ea8a1498c1c48b43a7f39db3d" target="_top" xlink:title="Clear all data.">
<polygon fill="white" stroke="#666666" points="504.75,-259.12 359.75,-259.12 359.75,-217.38 504.75,-217.38 504.75,-259.12"/>
<text text-anchor="start" x="367.75" y="-245.62" font-family="Helvetica,sans-Serif" font-size="10.00">ml::maths::time_series</text>
<text text-anchor="start" x="367.75" y="-234.38" font-family="Helvetica,sans-Serif" font-size="10.00">::CDecompositionComponent</text>
<text text-anchor="middle" x="432.25" y="-223.12" font-family="Helvetica,sans-Serif" font-size="10.00">::clear</text>
</a>
</g>
</g>
<!-- Node2&#45;&gt;Node5 -->
<g id="edge4_Node000002_Node000005" class="edge">
<title>Node2&#45;&gt;Node5</title>
<g id="a_edge4_Node000002_Node000005"><a xlink:title=" ">
<path fill="none" stroke="#63b8ff" d="M312.46,-219.59C324.07,-221.41 336.16,-223.32 348.01,-225.17"/>
<polygon fill="#63b8ff" stroke="#63b8ff" points="347.34,-228.61 357.76,-226.71 348.42,-221.7 347.34,-228.61"/>
</a>
</g>
</g>
<!-- Node8 -->
<g id="Node000008" class="node">
<title>Node8</title>
<g id="a_Node000008"><a xlink:href="../../d7/d17/classml_1_1maths_1_1time__series_1_1_c_adaptive_bucketing.html#a94e6921385917f4f4e412d167ccbaf63" target="_top" xlink:title="Check if the bucketing has been initialized.">
<polygon fill="white" stroke="#666666" points="490.88,-199.12 373.62,-199.12 373.62,-157.38 490.88,-157.38 490.88,-199.12"/>
<text text-anchor="start" x="381.62" y="-185.62" font-family="Helvetica,sans-Serif" font-size="10.00">ml::maths::time_series</text>
<text text-anchor="start" x="381.62" y="-174.38" font-family="Helvetica,sans-Serif" font-size="10.00">::CAdaptiveBucketing::</text>
<text text-anchor="middle" x="432.25" y="-163.12" font-family="Helvetica,sans-Serif" font-size="10.00">initialized</text>
</a>
</g>
</g>
<!-- Node2&#45;&gt;Node8 -->
<g id="edge7_Node000002_Node000008" class="edge">
<title>Node2&#45;&gt;Node8</title>
<g id="a_edge7_Node000002_Node000008"><a xlink:title=" ">
<path fill="none" stroke="#63b8ff" d="M312.46,-196.91C328.77,-194.35 346.04,-191.63 362.21,-189.09"/>
<polygon fill="#63b8ff" stroke="#63b8ff" points="362.38,-192.61 371.72,-187.6 361.29,-185.7 362.38,-192.61"/>
</a>
</g>
</g>
<!-- Node4 -->
<g id="Node000004" class="node">
<title>Node4</title>
<g id="a_Node000004"><a xlink:href="../../d7/d17/classml_1_1maths_1_1time__series_1_1_c_adaptive_bucketing.html#ab0af8e4d8ac3614dac357876ee23e91f" target="_top" xlink:title=" ">
<polygon fill="white" stroke="#666666" points="688.38,-313.5 550.12,-313.5 550.12,-283 688.38,-283 688.38,-313.5"/>
<text text-anchor="start" x="558.12" y="-300" font-family="Helvetica,sans-Serif" font-size="10.00">ml::maths::time_series</text>
<text text-anchor="middle" x="619.25" y="-288.75" font-family="Helvetica,sans-Serif" font-size="10.00">::CAdaptiveBucketing::clear</text>
</a>
</g>
</g>
<!-- Node3&#45;&gt;Node4 -->
<g id="edge3_Node000003_Node000004" class="edge">
<title>Node3&#45;&gt;Node4</title>
<g id="a_edge3_Node000003_Node000004"><a xlink:title=" ">
<path fill="none" stroke="#63b8ff" d="M511.17,-298.25C520.2,-298.25 529.41,-298.25 538.46,-298.25"/>
<polygon fill="#63b8ff" stroke="#63b8ff" points="538.3,-301.75 548.3,-298.25 538.3,-294.75 538.3,-301.75"/>
</a>
</g>
</g>
<!-- Node6 -->
<g id="Node000006" class="node">
<title>Node6</title>
<g id="a_Node000006"><a xlink:href="../../d1/d87/classml_1_1maths_1_1time__series_1_1_c_decomposition_component_1_1_c_packed_splines.html#a56aeb88c79e113285c10d6c541b80ffd" target="_top" xlink:title="Clear the splines.">
<polygon fill="white" stroke="#666666" points="691.75,-262.12 546.75,-262.12 546.75,-220.38 691.75,-220.38 691.75,-262.12"/>
<text text-anchor="start" x="554.75" y="-248.62" font-family="Helvetica,sans-Serif" font-size="10.00">ml::maths::time_series</text>
<text text-anchor="start" x="554.75" y="-237.38" font-family="Helvetica,sans-Serif" font-size="10.00">::CDecompositionComponent</text>
<text text-anchor="middle" x="619.25" y="-226.12" font-family="Helvetica,sans-Serif" font-size="10.00">::CPackedSplines::clear</text>
</a>
</g>
</g>
<!-- Node5&#45;&gt;Node6 -->
<g id="edge5_Node000005_Node000006" class="edge">
<title>Node5&#45;&gt;Node6</title>
<g id="a_edge5_Node000005_Node000006"><a xlink:title=" ">
<path fill="none" stroke="#63b8ff" d="M505.04,-239.41C514.93,-239.57 525.15,-239.74 535.22,-239.9"/>
<polygon fill="#63b8ff" stroke="#63b8ff" points="534.93,-243.4 544.99,-240.06 535.04,-236.4 534.93,-243.4"/>
</a>
</g>
</g>
<!-- Node7 -->
<g id="Node000007" class="node">
<title>Node7</title>
<g id="a_Node000007"><a xlink:href="../../d1/d87/classml_1_1maths_1_1time__series_1_1_c_decomposition_component_1_1_c_packed_splines.html#a638a84f6600ed79cb6063c02dd83b38b" target="_top" xlink:title="Check if the splines have been initialized.">
<polygon fill="white" stroke="#666666" points="691.75,-202.12 546.75,-202.12 546.75,-160.38 691.75,-160.38 691.75,-202.12"/>
<text text-anchor="start" x="554.75" y="-188.62" font-family="Helvetica,sans-Serif" font-size="10.00">ml::maths::time_series</text>
<text text-anchor="start" x="554.75" y="-177.38" font-family="Helvetica,sans-Serif" font-size="10.00">::CDecompositionComponent</text>
<text text-anchor="middle" x="619.25" y="-166.12" font-family="Helvetica,sans-Serif" font-size="10.00">::CPackedSplines::initialized</text>
</a>
</g>
</g>
<!-- Node5&#45;&gt;Node7 -->
<g id="edge6_Node000005_Node000007" class="edge">
<title>Node5&#45;&gt;Node7</title>
<g id="a_edge6_Node000005_Node000007"><a xlink:title=" ">
<path fill="none" stroke="#63b8ff" d="M502.4,-216.94C514.03,-213.36 526.19,-209.62 538.07,-205.96"/>
<polygon fill="#63b8ff" stroke="#63b8ff" points="538.9,-209.36 547.43,-203.07 536.84,-202.67 538.9,-209.36"/>
</a>
</g>
</g>
<!-- Node10 -->
<g id="Node000010" class="node">
<title>Node10</title>
<g id="a_Node000010"><a xlink:href="../../d7/d17/classml_1_1maths_1_1time__series_1_1_c_adaptive_bucketing.html#aee4b961577250cd3b17e0cc93e50d922" target="_top" xlink:title=" ">
<polygon fill="white" stroke="#666666" points="490.88,-139.12 373.62,-139.12 373.62,-97.38 490.88,-97.38 490.88,-139.12"/>
<text text-anchor="start" x="381.62" y="-125.62" font-family="Helvetica,sans-Serif" font-size="10.00">ml::maths::time_series</text>
<text text-anchor="start" x="381.62" y="-114.38" font-family="Helvetica,sans-Serif" font-size="10.00">::CAdaptiveBucketing::</text>
<text text-anchor="middle" x="432.25" y="-103.12" font-family="Helvetica,sans-Serif" font-size="10.00">initialize</text>
</a>
</g>
</g>
<!-- Node9&#45;&gt;Node10 -->
<g id="edge9_Node000009_Node000010" class="edge">
<title>Node9&#45;&gt;Node10</title>
<g id="a_edge9_Node000009_Node000010"><a xlink:title=" ">
<path fill="none" stroke="#63b8ff" d="M318.21,-102.27C332.7,-104.32 347.75,-106.45 361.95,-108.45"/>
<polygon fill="#63b8ff" stroke="#63b8ff" points="361.25,-111.89 371.64,-109.82 362.23,-104.96 361.25,-111.89"/>
</a>
</g>
</g>
<!-- Node11 -->
<g id="Node000011" class="node">
<title>Node11</title>
<g id="a_Node000011"><a xlink:href="../../d7/d17/classml_1_1maths_1_1time__series_1_1_c_adaptive_bucketing.html#a83bf2ff948fc0a5e9dbd5079a9ad3918" target="_top" xlink:title="Get the number of buckets.">
<polygon fill="white" stroke="#666666" points="499.88,-79.5 364.62,-79.5 364.62,-49 499.88,-49 499.88,-79.5"/>
<text text-anchor="start" x="372.62" y="-66" font-family="Helvetica,sans-Serif" font-size="10.00">ml::maths::time_series</text>
<text text-anchor="middle" x="432.25" y="-54.75" font-family="Helvetica,sans-Serif" font-size="10.00">::CAdaptiveBucketing::size</text>
</a>
</g>
</g>
<!-- Node9&#45;&gt;Node11 -->
<g id="edge10_Node000009_Node000011" class="edge">
<title>Node9&#45;&gt;Node11</title>
<g id="a_edge10_Node000009_Node000011"><a xlink:title=" ">
<path fill="none" stroke="#63b8ff" d="M318.21,-80.23C329.66,-78.61 341.46,-76.94 352.92,-75.32"/>
<polygon fill="#63b8ff" stroke="#63b8ff" points="353.33,-78.8 362.74,-73.94 352.35,-71.87 353.33,-78.8"/>
</a>
</g>
</g>
<!-- Node12 -->
<g id="Node000012" class="node">
<title>Node12</title>
<g id="a_Node000012"><a xlink:href="../../d9/d43/classml_1_1maths_1_1time__series_1_1_c_calendar_feature.html#a383db66bf90ea9dd68ac211166aad5af" target="_top" xlink:title="Get this feature&#39;s window.">
<polygon fill="white" stroke="#666666" points="502.5,-30.5 362,-30.5 362,0 502.5,0 502.5,-30.5"/>
<text text-anchor="start" x="370" y="-17" font-family="Helvetica,sans-Serif" font-size="10.00">ml::maths::time_series</text>
<text text-anchor="middle" x="432.25" y="-5.75" font-family="Helvetica,sans-Serif" font-size="10.00">::CCalendarFeature::window</text>
</a>
</g>
</g>
<!-- Node9&#45;&gt;Node12 -->
<g id="edge11_Node000009_Node000012" class="edge">
<title>Node9&#45;&gt;Node12</title>
<g id="a_edge11_Node000009_Node000012"><a xlink:title=" ">
<path fill="none" stroke="#63b8ff" d="M298.24,-69.97C304.89,-67.19 311.51,-64.25 317.75,-61.25 334.44,-53.21 336.84,-47.8 353.75,-40.25 357.96,-38.37 362.36,-36.56 366.82,-34.84"/>
<polygon fill="#63b8ff" stroke="#63b8ff" points="367.72,-38.24 375.9,-31.5 365.3,-31.67 367.72,-38.24"/>
</a>
</g>
</g>
</g>
</svg>

<g id="navigator" transform="translate(0 0)" fill="#404254">
  <rect fill="#f2f5e9" fill-opacity="0.5" stroke="#606060" stroke-width=".5" x="0" y="0" width="60" height="60"/>
  <use id="zoomplus" xlink:href="#zoomPlus" x="17" y="9" onmousedown="handleZoom(evt,'in')"/>
  <use id="zoomminus" xlink:href="#zoomMin" x="42" y="9" onmousedown="handleZoom(evt,'out')"/>
  <use id="reset" xlink:href="#resetDef" x="30" y="36" onmousedown="handleReset()"/>
   <use id="arrowup" xlink:href="#arrowUp" x="0" y="0" onmousedown="handlePan(0,-1)"/>
  <use id="arrowright" xlink:href="#arrowRight" x="0" y="0" onmousedown="handlePan(1,0)"/>
  <use id="arrowdown" xlink:href="#arrowDown" x="0" y="0" onmousedown="handlePan(0,1)"/>
  <use id="arrowleft" xlink:href="#arrowLeft" x="0" y="0" onmousedown="handlePan(-1,0)"/>
</g>
<svg viewBox="0 0 15 15" width="100%" height="30px" preserveAspectRatio="xMaxYMin meet">
 <g id="arrow_out" transform="scale(0.3 0.3)">
  <a xlink:href="classml_1_1maths_1_1time__series_1_1_c_calendar_component_abf93d70fb6c9be460d1b8046a33cdc91_cgraph_org.svg" target="_base">
   <rect id="button" ry="5" rx="5" y="6" x="6" height="38" width="38"
        fill="#f2f5e9" fill-opacity="0.5" stroke="#606060" stroke-width="1.0"/>
   <path id="arrow"
     d="M 11.500037,31.436501 C 11.940474,20.09759 22.043105,11.32322 32.158766,21.979434 L 37.068811,17.246167 C 37.068811,17.246167 37.088388,32 37.088388,32 L 22.160133,31.978069 C 22.160133,31.978069 26.997745,27.140456 26.997745,27.140456 C 18.528582,18.264221 13.291696,25.230495 11.500037,31.436501 z"
     style="fill:#404040;"/>
  </a>
 </g>
</svg>

<style type='text/css'>
<![CDATA[
[data-mouse-over-selected='false'] { opacity: 0.7; }
[data-mouse-over-selected='true']  { opacity: 1.0; }
]]>
</style>
<script type="application/ecmascript"><![CDATA[
document.addEventListener('DOMContentLoaded', (event) => {
  highlightEdges();
  highlightAdjacentNodes();
});
]]></script>
</svg>
