<?xml version="1.0" encoding="UTF-8" standalone="no"?>
<!DOCTYPE svg PUBLIC "-//W3C//DTD SVG 1.1//EN"
 "http://www.w3.org/Graphics/SVG/1.1/DTD/svg11.dtd">
<!-- Generated by graphviz version 10.0.1 (20240210.2158)
 -->
<!-- Title: ml::maths::time_series::CCalendarComponent::decayRate Pages: 1 -->
<svg width="447pt" height="74pt"
 viewBox="0.00 0.00 446.75 73.75" xmlns="http://www.w3.org/2000/svg" xmlns:xlink="http://www.w3.org/1999/xlink">
<g id="graph0" class="graph" transform="scale(1 1) rotate(0) translate(4 69.75)">
<title>ml::maths::time_series::CCalendarComponent::decayRate</title>
<!-- Node1 -->
<g id="Node000001" class="node">
<title>Node1</title>
<g id="a_Node000001"><a xlink:title="Set the rate at which the seasonal component loses information.">
<polygon fill="#999999" stroke="#666666" points="124.75,-65.75 0,-65.75 0,-24 124.75,-24 124.75,-65.75"/>
<text text-anchor="start" x="8" y="-52.25" font-family="Helvetica,sans-Serif" font-size="10.00">ml::maths::time_series</text>
<text text-anchor="start" x="8" y="-41" font-family="Helvetica,sans-Serif" font-size="10.00">::CCalendarComponent::</text>
<text text-anchor="middle" x="62.38" y="-29.75" font-family="Helvetica,sans-Serif" font-size="10.00">decayRate</text>
</a>
</g>
</g>
<!-- Node2 -->
<g id="Node000002" class="node">
<title>Node2</title>
<g id="a_Node000002"><a xlink:href="../../d7/d17/classml_1_1maths_1_1time__series_1_1_c_adaptive_bucketing.html#af22de4a85a4679f67fbdd9de4a8d3643" target="_top" xlink:title="Set the rate at which the bucketing loses information.">
<polygon fill="white" stroke="#666666" points="438.75,-65.75 321.5,-65.75 321.5,-24 438.75,-24 438.75,-65.75"/>
<text text-anchor="start" x="329.5" y="-52.25" font-family="Helvetica,sans-Serif" font-size="10.00">ml::maths::time_series</text>
<text text-anchor="start" x="329.5" y="-41" font-family="Helvetica,sans-Serif" font-size="10.00">::CAdaptiveBucketing::</text>
<text text-anchor="middle" x="380.12" y="-29.75" font-family="Helvetica,sans-Serif" font-size="10.00">decayRate</text>
</a>
</g>
</g>
<!-- Node1&#45;&gt;Node2 -->
<g id="edge1_Node000001_Node000002" class="edge">
<title>Node1&#45;&gt;Node2</title>
<g id="a_edge1_Node000001_Node000002"><a xlink:title=" ">
<path fill="none" stroke="#63b8ff" d="M125.16,-49.26C136.97,-49.93 149.24,-50.52 160.75,-50.88 216.17,-52.58 230.08,-52.65 285.5,-50.88 293.36,-50.62 301.58,-50.25 309.75,-49.82"/>
<polygon fill="#63b8ff" stroke="#63b8ff" points="309.92,-53.31 319.71,-49.25 309.52,-46.33 309.92,-53.31"/>
</a>
</g>
</g>
<!-- Node3 -->
<g id="Node000003" class="node">
<title>Node3</title>
<g id="a_Node000003"><a xlink:href="../../d2/da4/classml_1_1maths_1_1time__series_1_1_c_calendar_component.html#ae48beef29735bd67790f2ee828dca509" target="_top" xlink:title="Get the rate at which the seasonal component loses information.">
<polygon fill="white" stroke="#666666" points="285.5,-41.75 160.75,-41.75 160.75,0 285.5,0 285.5,-41.75"/>
<text text-anchor="start" x="168.75" y="-28.25" font-family="Helvetica,sans-Serif" font-size="10.00">ml::maths::time_series</text>
<text text-anchor="start" x="168.75" y="-17" font-family="Helvetica,sans-Serif" font-size="10.00">::CCalendarComponent::</text>
<text text-anchor="middle" x="223.12" y="-5.75" font-family="Helvetica,sans-Serif" font-size="10.00">decayRate</text>
</a>
</g>
</g>
<!-- Node1&#45;&gt;Node3 -->
<g id="edge2_Node000001_Node000003" class="edge">
<title>Node1&#45;&gt;Node3</title>
<g id="a_edge2_Node000001_Node000003"><a xlink:title=" ">
<path fill="none" stroke="#63b8ff" d="M125.21,-35.53C133.08,-34.34 141.19,-33.11 149.21,-31.9"/>
<polygon fill="#63b8ff" stroke="#63b8ff" points="149.6,-35.38 158.97,-30.42 148.55,-28.46 149.6,-35.38"/>
</a>
</g>
</g>
<!-- Node3&#45;&gt;Node2 -->
<g id="edge3_Node000003_Node000002" class="edge">
<title>Node3&#45;&gt;Node2</title>
<g id="a_edge3_Node000003_Node000002"><a xlink:title=" ">
<path fill="none" stroke="#63b8ff" d="M285.83,-30.43C293.75,-31.66 301.9,-32.92 309.93,-34.16"/>
<polygon fill="#63b8ff" stroke="#63b8ff" points="309.25,-37.6 319.66,-35.67 310.32,-30.68 309.25,-37.6"/>
</a>
</g>
</g>
</g>
</svg>
