<?xml version="1.0" encoding="UTF-8" standalone="no"?>
<!DOCTYPE svg PUBLIC "-//W3C//DTD SVG 1.1//EN"
 "http://www.w3.org/Graphics/SVG/1.1/DTD/svg11.dtd">
<!-- Generated by graphviz version 10.0.1 (20240210.2158)
 -->
<!-- Title: ml::maths::analytics::anonymous_namespace{COutliers::cc}::signedMemoryUsage Pages: 1 -->
<svg width="716pt" height="126pt"
 viewBox="0.00 0.00 716.25 125.75" xmlns="http://www.w3.org/2000/svg" xmlns:xlink="http://www.w3.org/1999/xlink">
<g id="graph0" class="graph" transform="scale(1 1) rotate(0) translate(4 121.75)">
<title>ml::maths::analytics::anonymous_namespace{COutliers::cc}::signedMemoryUsage</title>
<!-- Node1 -->
<g id="Node000001" class="node">
<title>Node1</title>
<g id="a_Node000001"><a xlink:title=" ">
<polygon fill="#999999" stroke="#666666" points="178,-63.75 0,-63.75 0,-22 178,-22 178,-63.75"/>
<text text-anchor="start" x="8" y="-50.25" font-family="Helvetica,sans-Serif" font-size="10.00">ml::maths::analytics</text>
<text text-anchor="start" x="8" y="-39" font-family="Helvetica,sans-Serif" font-size="10.00">::anonymous_namespace</text>
<text text-anchor="middle" x="89" y="-27.75" font-family="Helvetica,sans-Serif" font-size="10.00">{COutliers::cc}::signedMemoryUsage</text>
</a>
</g>
</g>
<!-- Node1&#45;&gt;Node1 -->
<g id="edge6_Node000001_Node000001" class="edge">
<title>Node1&#45;&gt;Node1</title>
<g id="a_edge6_Node000001_Node000001"><a xlink:title=" ">
<path fill="none" stroke="#63b8ff" d="M51.65,-64.07C48.09,-73.55 60.54,-81.75 89,-81.75 105.9,-81.75 117.15,-78.86 122.76,-74.53"/>
<polygon fill="#63b8ff" stroke="#63b8ff" points="125.92,-76.09 125.86,-65.5 119.3,-73.82 125.92,-76.09"/>
</a>
</g>
</g>
<!-- Node2 -->
<g id="Node000002" class="node">
<title>Node2</title>
<g id="a_Node000002"><a xlink:href="../../d0/d74/namespaceml_1_1core_1_1memory.html#a50fe883268170c17625e18a0c5fea04b" target="_top" xlink:title="Default implementation for non&#45;pointer types.">
<polygon fill="white" stroke="#666666" points="368.75,-52.5 214,-52.5 214,-33.25 368.75,-33.25 368.75,-52.5"/>
<text text-anchor="middle" x="291.38" y="-39" font-family="Helvetica,sans-Serif" font-size="10.00">ml::core::memory::dynamicSize</text>
</a>
</g>
</g>
<!-- Node1&#45;&gt;Node2 -->
<g id="edge1_Node000001_Node000002" class="edge">
<title>Node1&#45;&gt;Node2</title>
<g id="a_edge1_Node000001_Node000002"><a xlink:title=" ">
<path fill="none" stroke="#63b8ff" d="M178.47,-42.88C186.36,-42.88 194.35,-42.88 202.23,-42.88"/>
<polygon fill="#63b8ff" stroke="#63b8ff" points="202.18,-46.38 212.18,-42.88 202.18,-39.38 202.18,-46.38"/>
</a>
</g>
</g>
<!-- Node3 -->
<g id="Node000003" class="node">
<title>Node3</title>
<g id="a_Node000003"><a xlink:href="../../d9/d0b/structml_1_1core_1_1memory__detail_1_1_s_memory_dynamic_size.html#a49a680749a1d1861b69990d788154833" target="_top" xlink:title=" ">
<polygon fill="white" stroke="#666666" points="533.25,-117.75 404.75,-117.75 404.75,-76 533.25,-76 533.25,-117.75"/>
<text text-anchor="start" x="412.75" y="-104.25" font-family="Helvetica,sans-Serif" font-size="10.00">ml::core::memory_detail</text>
<text text-anchor="start" x="412.75" y="-93" font-family="Helvetica,sans-Serif" font-size="10.00">::SMemoryDynamicSize::</text>
<text text-anchor="middle" x="469" y="-81.75" font-family="Helvetica,sans-Serif" font-size="10.00">dispatch</text>
</a>
</g>
</g>
<!-- Node2&#45;&gt;Node3 -->
<g id="edge2_Node000002_Node000003" class="edge">
<title>Node2&#45;&gt;Node3</title>
<g id="a_edge2_Node000002_Node000003"><a xlink:title=" ">
<path fill="none" stroke="#63b8ff" d="M325,-52.91C344.27,-58.83 369.5,-66.59 393.39,-73.94"/>
<polygon fill="#63b8ff" stroke="#63b8ff" points="392.22,-77.24 402.81,-76.83 394.28,-70.55 392.22,-77.24"/>
</a>
</g>
</g>
<!-- Node4 -->
<g id="Node000004" class="node">
<title>Node4</title>
<g id="a_Node000004"><a xlink:href="../../db/df7/namespaceml_1_1core_1_1memory__detail.html#ac2d4d02cd0f6d8d7d1355958a49fce43" target="_top" xlink:title="Check if we expect an overloaded dynamicSize function.">
<polygon fill="white" stroke="#666666" points="531.75,-58.12 406.25,-58.12 406.25,-27.62 531.75,-27.62 531.75,-58.12"/>
<text text-anchor="start" x="414.25" y="-44.62" font-family="Helvetica,sans-Serif" font-size="10.00">ml::core::memory_detail</text>
<text text-anchor="middle" x="469" y="-33.38" font-family="Helvetica,sans-Serif" font-size="10.00">::expectMemoryOverload</text>
</a>
</g>
</g>
<!-- Node2&#45;&gt;Node4 -->
<g id="edge3_Node000002_Node000004" class="edge">
<title>Node2&#45;&gt;Node4</title>
<g id="a_edge3_Node000002_Node000004"><a xlink:title=" ">
<path fill="none" stroke="#63b8ff" d="M369.15,-42.88C377.59,-42.88 386.17,-42.88 394.57,-42.88"/>
<polygon fill="#63b8ff" stroke="#63b8ff" points="394.36,-46.38 404.36,-42.88 394.36,-39.38 394.36,-46.38"/>
</a>
</g>
</g>
<!-- Node5 -->
<g id="Node000005" class="node">
<title>Node5</title>
<g id="a_Node000005"><a xlink:href="../../d2/d21/structml_1_1core_1_1memory__detail_1_1_s_dynamic_size_always_zero.html#a710ac6fc2d5760a396bb2d46a66a73b2" target="_top" xlink:title=" ">
<polygon fill="white" stroke="#666666" points="708.25,-41.75 569.25,-41.75 569.25,0 708.25,0 708.25,-41.75"/>
<text text-anchor="start" x="577.25" y="-28.25" font-family="Helvetica,sans-Serif" font-size="10.00">ml::core::memory_detail</text>
<text text-anchor="start" x="577.25" y="-17" font-family="Helvetica,sans-Serif" font-size="10.00">::SDynamicSizeAlwaysZero</text>
<text text-anchor="middle" x="638.75" y="-5.75" font-family="Helvetica,sans-Serif" font-size="10.00">::value</text>
</a>
</g>
</g>
<!-- Node2&#45;&gt;Node5 -->
<g id="edge5_Node000002_Node000005" class="edge">
<title>Node2&#45;&gt;Node5</title>
<g id="a_edge5_Node000002_Node000005"><a xlink:title=" ">
<path fill="none" stroke="#63b8ff" d="M330.03,-32.76C351.7,-27.46 379.55,-21.54 404.75,-18.88 461.55,-12.88 476.14,-18.33 533.25,-18.88 541.08,-18.95 549.24,-19.06 557.4,-19.18"/>
<polygon fill="#63b8ff" stroke="#63b8ff" points="557.32,-22.68 567.38,-19.35 557.44,-15.68 557.32,-22.68"/>
</a>
</g>
</g>
<!-- Node4&#45;&gt;Node5 -->
<g id="edge4_Node000004_Node000005" class="edge">
<title>Node4&#45;&gt;Node5</title>
<g id="a_edge4_Node000004_Node000005"><a xlink:title=" ">
<path fill="none" stroke="#63b8ff" d="M531.99,-34.75C540.36,-33.65 549.04,-32.51 557.67,-31.38"/>
<polygon fill="#63b8ff" stroke="#63b8ff" points="558,-34.86 567.46,-30.09 557.09,-27.92 558,-34.86"/>
</a>
</g>
</g>
</g>
</svg>
