<?xml version="1.0" encoding="UTF-8" standalone="no"?>
<!DOCTYPE svg PUBLIC "-//W3C//DTD SVG 1.1//EN"
 "http://www.w3.org/Graphics/SVG/1.1/DTD/svg11.dtd">
<!-- Generated by graphviz version 10.0.1 (20240210.2158)
 -->
<!-- Title: ml::core::CCompressOStream::CCompressThread Pages: 1 -->
<!--zoomable 193 -->

<svg id="main" version="1.1" xmlns="http://www.w3.org/2000/svg" xmlns:xlink="http://www.w3.org/1999/xlink" xml:space="preserve" onload="init(evt)">
<style type="text/css"><![CDATA[
.node, .edge {opacity: 0.7;}
.node.selected, .edge.selected {opacity: 1;}
.edge:hover path { stroke: red; }
.edge:hover polygon { stroke: red; fill: red; }
]]></style>

<defs>
  <circle id="rim" cx="0" cy="0" r="7"/>
  <circle id="rim2" cx="0" cy="0" r="3.5"/>
  <g id="zoomPlus">
    <use xlink:href="#rim" fill="#404040"><set attributeName="fill" to="#808080" begin="zoomplus.mouseover" end="zoomplus.mouseout"/></use>
    <path d="M-4,0h8M0,-4v8" fill="none" stroke="white" stroke-width="1.5" pointer-events="none"/>
  </g>
  <g id="zoomMin">
    <use xlink:href="#rim" fill="#404040"><set attributeName="fill" to="#808080" begin="zoomminus.mouseover" end="zoomminus.mouseout"/></use>
    <path d="M-4,0h8" fill="none" stroke="white" stroke-width="1.5" pointer-events="none"/>
  </g>
  <g id="arrowUp" transform="translate(30 24)">
    <use xlink:href="#rim"/>
    <path pointer-events="none" fill="none" stroke="white" stroke-width="1.5" d="M0,-3.0v7 M-2.5,-0.5L0,-3.0L2.5,-0.5"/>
  </g>
  <g id="arrowRight" transform="rotate(90) translate(36 -43)">
    <use xlink:href="#rim"/>
    <path pointer-events="none" fill="none" stroke="white" stroke-width="1.5" d="M0,-3.0v7 M-2.5,-0.5L0,-3.0L2.5,-0.5"/>
  </g>
  <g id="arrowDown" transform="rotate(180) translate(-30 -48)">
    <use xlink:href="#rim"/>
    <path pointer-events="none" fill="none" stroke="white" stroke-width="1.5" d="M0,-3.0v7 M-2.5,-0.5L0,-3.0L2.5,-0.5"/>
  </g>
  <g id="arrowLeft" transform="rotate(270) translate(-36 17)">
    <use xlink:href="#rim"/>
    <path pointer-events="none" fill="none" stroke="white" stroke-width="1.5" d="M0,-3.0v7 M-2.5,-0.5L0,-3.0L2.5,-0.5"/>
  </g>
  <g id="resetDef">
    <use xlink:href="#rim2" fill="#404040"><set attributeName="fill" to="#808080" begin="reset.mouseover" end="reset.mouseout"/></use>
  </g>
</defs>
<script type="application/ecmascript">
var viewWidth = 1340;
var viewHeight = 193;
var sectionId = 'dynsection-1';
</script>
<script type="application/ecmascript" xlink:href="../../svg.min.js"/>
<svg id="graph" class="graph">
<g id="viewport">
<title>ml::core::CCompressOStream::CCompressThread</title>
<!-- Node1 -->
<g id="Node000001" class="node">
<title>Node1</title>
<g id="a_Node000001"><a xlink:title=" ">
<polygon fill="#999999" stroke="#666666" points="1070.25,-135.88 921.5,-135.88 921.5,-105.38 1070.25,-105.38 1070.25,-135.88"/>
<text text-anchor="start" x="929.5" y="-122.38" font-family="Helvetica,sans-Serif" font-size="10.00">ml::core::CCompressOStream</text>
<text text-anchor="middle" x="995.88" y="-111.12" font-family="Helvetica,sans-Serif" font-size="10.00">::CCompressThread</text>
</a>
</g>
</g>
<!-- Node5 -->
<g id="Node000005" class="node">
<title>Node5</title>
<g id="a_Node000005"><a xlink:href="../../d1/db3/classml_1_1core_1_1_c_compress_o_stream.html" target="_top" xlink:title="An output stream that writes to a boost filtering_stream endpoint.">
<polygon fill="white" stroke="#666666" points="1332.25,-128.25 1183.5,-128.25 1183.5,-109 1332.25,-109 1332.25,-128.25"/>
<text text-anchor="middle" x="1257.88" y="-114.75" font-family="Helvetica,sans-Serif" font-size="10.00">ml::core::CCompressOStream</text>
</a>
</g>
</g>
<!-- Node1&#45;&gt;Node5 -->
<g id="edge13_Node000005_Node000001" class="edge">
<title>Node1&#45;&gt;Node5</title>
<g id="a_edge13_Node000005_Node000001"><a xlink:title=" ">
<path fill="none" stroke="#9a32cd" stroke-dasharray="5,2" d="M1082.06,-119.97C1114.77,-119.72 1151.8,-119.43 1183.33,-119.19"/>
<polygon fill="#9a32cd" stroke="#9a32cd" points="1082.17,-116.47 1072.2,-120.05 1082.23,-123.47 1082.17,-116.47"/>
</a>
</g>
<text text-anchor="middle" x="1126.88" y="-121.38" font-family="Helvetica,sans-Serif" font-size="10.00" fill="grey"> m_UploadThread</text>
</g>
<!-- Node2 -->
<g id="Node000002" class="node">
<title>Node2</title>
<g id="a_Node000002"><a xlink:href="../../dd/d6b/classml_1_1core_1_1_c_thread.html" target="_top" xlink:title="Basic wrapper class around pthread_create etc.">
<polygon fill="white" stroke="#666666" points="469.25,-141.25 374.5,-141.25 374.5,-122 469.25,-122 469.25,-141.25"/>
<text text-anchor="middle" x="421.88" y="-127.75" font-family="Helvetica,sans-Serif" font-size="10.00">ml::core::CThread</text>
</a>
</g>
</g>
<!-- Node2&#45;&gt;Node1 -->
<g id="edge1_Node000001_Node000002" class="edge">
<title>Node2&#45;&gt;Node1</title>
<g id="a_edge1_Node000001_Node000002"><a xlink:title=" ">
<path fill="none" stroke="#63b8ff" d="M480.97,-130.51C585.75,-128.49 806.15,-124.25 921.29,-122.04"/>
<polygon fill="#63b8ff" stroke="#63b8ff" points="481.13,-127 471.2,-130.7 481.26,-134 481.13,-127"/>
</a>
</g>
</g>
<!-- Node3 -->
<g id="Node000003" class="node">
<title>Node3</title>
<g id="a_Node000003"><a xlink:href="../../d0/d45/classml_1_1core_1_1_c_non_copyable.html" target="_top" xlink:title="Equivalent to boost::noncopyable.">
<polygon fill="white" stroke="#666666" points="124,-118.25 0,-118.25 0,-99 124,-99 124,-118.25"/>
<text text-anchor="middle" x="62" y="-104.75" font-family="Helvetica,sans-Serif" font-size="10.00">ml::core::CNonCopyable</text>
</a>
</g>
</g>
<!-- Node3&#45;&gt;Node2 -->
<g id="edge2_Node000002_Node000003" class="edge">
<title>Node3&#45;&gt;Node2</title>
<g id="a_edge2_Node000002_Node000003"><a xlink:title=" ">
<path fill="none" stroke="#8b1a1a" d="M135.24,-113.27C206.56,-117.85 313.5,-124.72 374.27,-128.63"/>
<polygon fill="#8b1a1a" stroke="#8b1a1a" points="135.83,-109.8 125.62,-112.65 135.38,-116.78 135.83,-109.8"/>
</a>
</g>
</g>
<!-- Node4 -->
<g id="Node000004" class="node">
<title>Node4</title>
<g id="a_Node000004"><a xlink:href="../../d9/d39/classml_1_1core_1_1_c_mutex.html" target="_top" xlink:title="Wrapper class around pthread mutex.">
<polygon fill="white" stroke="#666666" points="262.5,-78.25 170.75,-78.25 170.75,-59 262.5,-59 262.5,-78.25"/>
<text text-anchor="middle" x="216.62" y="-64.75" font-family="Helvetica,sans-Serif" font-size="10.00">ml::core::CMutex</text>
</a>
</g>
</g>
<!-- Node3&#45;&gt;Node4 -->
<g id="edge4_Node000004_Node000003" class="edge">
<title>Node3&#45;&gt;Node4</title>
<g id="a_edge4_Node000004_Node000003"><a xlink:title=" ">
<path fill="none" stroke="#8b1a1a" d="M112.48,-95.66C133.45,-90.16 157.51,-83.85 177.12,-78.72"/>
<polygon fill="#8b1a1a" stroke="#8b1a1a" points="111.76,-92.23 102.98,-98.15 113.54,-99 111.76,-92.23"/>
</a>
</g>
</g>
<!-- Node9 -->
<g id="Node000009" class="node">
<title>Node9</title>
<g id="a_Node000009"><a xlink:href="../../d1/d57/classml_1_1core_1_1_c_condition.html" target="_top" xlink:title="Wrapper around pthread_cond_wait.">
<polygon fill="white" stroke="#666666" points="474.88,-19.25 368.88,-19.25 368.88,0 474.88,0 474.88,-19.25"/>
<text text-anchor="middle" x="421.88" y="-5.75" font-family="Helvetica,sans-Serif" font-size="10.00">ml::core::CCondition</text>
</a>
</g>
</g>
<!-- Node3&#45;&gt;Node9 -->
<g id="edge11_Node000009_Node000003" class="edge">
<title>Node3&#45;&gt;Node9</title>
<g id="a_edge11_Node000009_Node000003"><a xlink:title=" ">
<path fill="none" stroke="#8b1a1a" d="M86.37,-92.01C105.63,-78.95 134.06,-61.12 161,-49.62 215.74,-26.27 231.42,-23.6 290.25,-14.62 315.83,-10.72 344.53,-9.31 368.5,-8.93"/>
<polygon fill="#8b1a1a" stroke="#8b1a1a" points="84.43,-89.1 78.19,-97.66 88.4,-94.86 84.43,-89.1"/>
</a>
</g>
</g>
<!-- Node11 -->
<g id="Node000011" class="node">
<title>Node11</title>
<g id="a_Node000011"><a xlink:href="../../d8/d48/classml_1_1core_1_1_c_data_adder.html" target="_top" xlink:title="Abstract interface for data adder.">
<polygon fill="white" stroke="#666666" points="272.25,-176.25 161,-176.25 161,-157 272.25,-157 272.25,-176.25"/>
<text text-anchor="middle" x="216.62" y="-162.75" font-family="Helvetica,sans-Serif" font-size="10.00">ml::core::CDataAdder</text>
</a>
</g>
</g>
<!-- Node3&#45;&gt;Node11 -->
<g id="edge17_Node000011_Node000003" class="edge">
<title>Node3&#45;&gt;Node11</title>
<g id="a_edge17_Node000011_Node000003"><a xlink:title=" ">
<path fill="none" stroke="#8b1a1a" d="M100,-122.69C127.53,-133.15 164.45,-147.18 189.09,-156.54"/>
<polygon fill="#8b1a1a" stroke="#8b1a1a" points="101.59,-119.55 91,-119.27 99.1,-126.09 101.59,-119.55"/>
</a>
</g>
</g>
<!-- Node4&#45;&gt;Node2 -->
<g id="edge3_Node000002_Node000004" class="edge">
<title>Node4&#45;&gt;Node2</title>
<g id="a_edge3_Node000002_Node000004"><a xlink:title=" ">
<path fill="none" stroke="#9a32cd" stroke-dasharray="5,2" d="M274.27,-73.76C296.42,-77.53 321.39,-84.06 342,-95.38 351.99,-100.86 350.23,-107.77 360,-113.62 365.2,-116.74 370.97,-119.35 376.84,-121.52"/>
<polygon fill="#9a32cd" stroke="#9a32cd" points="274.9,-70.32 264.48,-72.26 273.84,-77.24 274.9,-70.32"/>
</a>
</g>
<text text-anchor="middle" x="316.12" y="-96.38" font-family="Helvetica,sans-Serif" font-size="10.00" fill="grey"> m_IdMutex</text>
</g>
<!-- Node7 -->
<g id="Node000007" class="node">
<title>Node7</title>
<g id="a_Node000007"><a xlink:href="../../d1/d43/classml_1_1core_1_1_c_dual_thread_stream_buf.html" target="_top" xlink:title="A stream buffer where reads and writes are processed in different threads.">
<polygon fill="white" stroke="#666666" points="822.5,-74.25 661,-74.25 661,-55 822.5,-55 822.5,-74.25"/>
<text text-anchor="middle" x="741.75" y="-60.75" font-family="Helvetica,sans-Serif" font-size="10.00">ml::core::CDualThreadStreamBuf</text>
</a>
</g>
</g>
<!-- Node4&#45;&gt;Node7 -->
<g id="edge9_Node000007_Node000004" class="edge">
<title>Node4&#45;&gt;Node7</title>
<g id="a_edge9_Node000007_Node000004"><a xlink:title=" ">
<path fill="none" stroke="#9a32cd" stroke-dasharray="5,2" d="M274.05,-66.55C300.19,-65.69 331.68,-64.8 360,-64.38 463.77,-62.83 583.46,-63.27 660.52,-63.85"/>
<polygon fill="#9a32cd" stroke="#9a32cd" points="274.21,-63.05 264.34,-66.88 274.45,-70.04 274.21,-63.05"/>
</a>
</g>
<text text-anchor="middle" x="421.88" y="-65.38" font-family="Helvetica,sans-Serif" font-size="10.00" fill="grey"> m_IntermediateBufferMutex</text>
</g>
<!-- Node4&#45;&gt;Node9 -->
<g id="edge12_Node000009_Node000004" class="edge">
<title>Node4&#45;&gt;Node9</title>
<g id="a_edge12_Node000009_Node000004"><a xlink:title=" ">
<path fill="none" stroke="#9a32cd" stroke-dasharray="5,2" d="M242.69,-52.81C256.28,-44.91 273.66,-35.9 290.25,-30.38 315.31,-22.04 344.21,-17.01 368.45,-13.99"/>
<polygon fill="#9a32cd" stroke="#9a32cd" points="241.19,-49.63 234.41,-57.77 244.78,-55.63 241.19,-49.63"/>
</a>
</g>
<text text-anchor="middle" x="316.12" y="-32.38" font-family="Helvetica,sans-Serif" font-size="10.00" fill="grey"> m_Mutex</text>
</g>
<!-- Node5&#45;&gt;Node1 -->
<g id="edge5_Node000001_Node000005" class="edge">
<title>Node5&#45;&gt;Node1</title>
<g id="a_edge5_Node000001_Node000005"><a xlink:title=" ">
<path fill="none" stroke="#9a32cd" stroke-dasharray="5,2" d="M1198.12,-106.61C1187.32,-104.84 1176.1,-103.31 1165.5,-102.38 1131.3,-99.36 1122.42,-99 1088.25,-102.38 1081.81,-103.01 1075.15,-103.9 1068.5,-104.93"/>
<polygon fill="#9a32cd" stroke="#9a32cd" points="1197.25,-110.01 1207.7,-108.25 1198.44,-103.11 1197.25,-110.01"/>
</a>
</g>
<text text-anchor="middle" x="1126.88" y="-103.38" font-family="Helvetica,sans-Serif" font-size="10.00" fill="grey"> m_Stream</text>
</g>
<!-- Node6 -->
<g id="Node000006" class="node">
<title>Node6</title>
<g id="a_Node000006"><a xlink:title=" ">
<polygon fill="white" stroke="#666666" points="1031.25,-173.25 960.5,-173.25 960.5,-154 1031.25,-154 1031.25,-173.25"/>
<text text-anchor="middle" x="995.88" y="-159.75" font-family="Helvetica,sans-Serif" font-size="10.00">std::ostream</text>
</a>
</g>
</g>
<!-- Node6&#45;&gt;Node5 -->
<g id="edge6_Node000005_Node000006" class="edge">
<title>Node6&#45;&gt;Node5</title>
<g id="a_edge6_Node000005_Node000006"><a xlink:title=" ">
<path fill="none" stroke="#63b8ff" d="M1042.4,-155.83C1076.34,-150.02 1123.82,-141.86 1165.5,-134.62 1176.45,-132.72 1188.13,-130.69 1199.36,-128.72"/>
<polygon fill="#63b8ff" stroke="#63b8ff" points="1042.19,-152.32 1032.93,-157.46 1043.38,-159.22 1042.19,-152.32"/>
</a>
</g>
</g>
<!-- Node7&#45;&gt;Node1 -->
<g id="edge14_Node000001_Node000007" class="edge">
<title>Node7&#45;&gt;Node1</title>
<g id="a_edge14_Node000001_Node000007"><a xlink:title=" ">
<path fill="none" stroke="#9a32cd" stroke-dasharray="5,2" d="M803.97,-77C834.01,-83.19 870.7,-90.94 903.5,-98.38 912.58,-100.43 922.14,-102.68 931.53,-104.92"/>
<polygon fill="#9a32cd" stroke="#9a32cd" points="804.78,-73.59 794.28,-75.01 803.38,-80.45 804.78,-73.59"/>
</a>
</g>
<text text-anchor="middle" x="872" y="-99.38" font-family="Helvetica,sans-Serif" font-size="10.00" fill="grey"> m_StreamBuf</text>
</g>
<!-- Node7&#45;&gt;Node5 -->
<g id="edge7_Node000005_Node000007" class="edge">
<title>Node7&#45;&gt;Node5</title>
<g id="a_edge7_Node000005_Node000007"><a xlink:title=" ">
<path fill="none" stroke="#9a32cd" stroke-dasharray="5,2" d="M834.15,-65.87C920.23,-68.33 1052.49,-75.42 1165.5,-95.62 1184.18,-98.96 1204.69,-104 1221.54,-108.51"/>
<polygon fill="#9a32cd" stroke="#9a32cd" points="834.44,-62.38 824.35,-65.61 834.25,-69.38 834.44,-62.38"/>
</a>
</g>
<text text-anchor="middle" x="995.88" y="-83.38" font-family="Helvetica,sans-Serif" font-size="10.00" fill="grey"> m_StreamBuf</text>
</g>
<!-- Node8 -->
<g id="Node000008" class="node">
<title>Node8</title>
<g id="a_Node000008"><a xlink:title=" ">
<polygon fill="white" stroke="#666666" points="461.38,-104.25 382.38,-104.25 382.38,-85 461.38,-85 461.38,-104.25"/>
<text text-anchor="middle" x="421.88" y="-90.75" font-family="Helvetica,sans-Serif" font-size="10.00">std::streambuf</text>
</a>
</g>
</g>
<!-- Node8&#45;&gt;Node7 -->
<g id="edge8_Node000007_Node000008" class="edge">
<title>Node8&#45;&gt;Node7</title>
<g id="a_edge8_Node000007_Node000008"><a xlink:title=" ">
<path fill="none" stroke="#63b8ff" d="M473.08,-89.89C523.4,-85.14 601.64,-77.75 660.56,-72.19"/>
<polygon fill="#63b8ff" stroke="#63b8ff" points="472.99,-86.38 463.36,-90.8 473.64,-93.35 472.99,-86.38"/>
</a>
</g>
</g>
<!-- Node9&#45;&gt;Node7 -->
<g id="edge10_Node000007_Node000009" class="edge">
<title>Node9&#45;&gt;Node7</title>
<g id="a_edge10_Node000007_Node000009"><a xlink:title=" ">
<path fill="none" stroke="#9a32cd" stroke-dasharray="5,2" d="M486.49,-11.54C530.8,-13.86 591.02,-19 643,-30.38 669,-36.07 697.61,-46.62 717.12,-54.52"/>
<polygon fill="#9a32cd" stroke="#9a32cd" points="486.69,-8.04 476.53,-11.05 486.35,-15.03 486.69,-8.04"/>
</a>
</g>
<text text-anchor="middle" x="572.38" y="-32.38" font-family="Helvetica,sans-Serif" font-size="10.00" fill="grey"> m_IntermediateBufferCondition</text>
</g>
<!-- Node10 -->
<g id="Node000010" class="node">
<title>Node10</title>
<g id="a_Node000010"><a xlink:href="../../d7/de1/classml_1_1core_1_1_c_state_compressor_1_1_c_chunk_filter.html" target="_top" xlink:title=" ">
<polygon fill="white" stroke="#666666" points="643,-184.88 501.75,-184.88 501.75,-154.38 643,-154.38 643,-184.88"/>
<text text-anchor="start" x="509.75" y="-171.38" font-family="Helvetica,sans-Serif" font-size="10.00">ml::core::CStateCompressor</text>
<text text-anchor="middle" x="572.38" y="-160.12" font-family="Helvetica,sans-Serif" font-size="10.00">::CChunkFilter</text>
</a>
</g>
</g>
<!-- Node10&#45;&gt;Node1 -->
<g id="edge15_Node000001_Node000010" class="edge">
<title>Node10&#45;&gt;Node1</title>
<g id="a_edge15_Node000001_Node000010"><a xlink:title=" ">
<path fill="none" stroke="#9a32cd" stroke-dasharray="5,2" d="M654.77,-163.73C721.73,-158.4 819.01,-149.56 903.5,-137.62 909.25,-136.81 915.19,-135.89 921.16,-134.91"/>
<polygon fill="#9a32cd" stroke="#9a32cd" points="654.66,-160.22 644.97,-164.5 655.21,-167.2 654.66,-160.22"/>
</a>
</g>
<text text-anchor="middle" x="741.75" y="-164.38" font-family="Helvetica,sans-Serif" font-size="10.00" fill="grey"> m_FilterSink</text>
</g>
<!-- Node11&#45;&gt;Node10 -->
<g id="edge16_Node000010_Node000011" class="edge">
<title>Node11&#45;&gt;Node10</title>
<g id="a_edge16_Node000010_Node000011"><a xlink:title=" ">
<path fill="none" stroke="#9a32cd" stroke-dasharray="5,2" d="M283.72,-167.19C345.75,-167.71 438.19,-168.5 501.43,-169.03"/>
<polygon fill="#9a32cd" stroke="#9a32cd" points="284.05,-163.69 274.02,-167.1 283.99,-170.69 284.05,-163.69"/>
</a>
</g>
<text text-anchor="middle" x="316.12" y="-168.38" font-family="Helvetica,sans-Serif" font-size="10.00" fill="grey"> m_Adder</text>
</g>
</g>
</svg>

<g id="navigator" transform="translate(0 0)" fill="#404254">
  <rect fill="#f2f5e9" fill-opacity="0.5" stroke="#606060" stroke-width=".5" x="0" y="0" width="60" height="60"/>
  <use id="zoomplus" xlink:href="#zoomPlus" x="17" y="9" onmousedown="handleZoom(evt,'in')"/>
  <use id="zoomminus" xlink:href="#zoomMin" x="42" y="9" onmousedown="handleZoom(evt,'out')"/>
  <use id="reset" xlink:href="#resetDef" x="30" y="36" onmousedown="handleReset()"/>
   <use id="arrowup" xlink:href="#arrowUp" x="0" y="0" onmousedown="handlePan(0,-1)"/>
  <use id="arrowright" xlink:href="#arrowRight" x="0" y="0" onmousedown="handlePan(1,0)"/>
  <use id="arrowdown" xlink:href="#arrowDown" x="0" y="0" onmousedown="handlePan(0,1)"/>
  <use id="arrowleft" xlink:href="#arrowLeft" x="0" y="0" onmousedown="handlePan(-1,0)"/>
</g>
<svg viewBox="0 0 15 15" width="100%" height="30px" preserveAspectRatio="xMaxYMin meet">
 <g id="arrow_out" transform="scale(0.3 0.3)">
  <a xlink:href="classml_1_1core_1_1_c_compress_o_stream_1_1_c_compress_thread__coll__graph_org.svg" target="_base">
   <rect id="button" ry="5" rx="5" y="6" x="6" height="38" width="38"
        fill="#f2f5e9" fill-opacity="0.5" stroke="#606060" stroke-width="1.0"/>
   <path id="arrow"
     d="M 11.500037,31.436501 C 11.940474,20.09759 22.043105,11.32322 32.158766,21.979434 L 37.068811,17.246167 C 37.068811,17.246167 37.088388,32 37.088388,32 L 22.160133,31.978069 C 22.160133,31.978069 26.997745,27.140456 26.997745,27.140456 C 18.528582,18.264221 13.291696,25.230495 11.500037,31.436501 z"
     style="fill:#404040;"/>
  </a>
 </g>
</svg>

<style type='text/css'>
<![CDATA[
[data-mouse-over-selected='false'] { opacity: 0.7; }
[data-mouse-over-selected='true']  { opacity: 1.0; }
]]>
</style>
<script type="application/ecmascript"><![CDATA[
document.addEventListener('DOMContentLoaded', (event) => {
  highlightEdges();
  highlightAdjacentNodes();
});
]]></script>
</svg>
