<?xml version="1.0" encoding="UTF-8" standalone="no"?>
<!DOCTYPE svg PUBLIC "-//W3C//DTD SVG 1.1//EN"
 "http://www.w3.org/Graphics/SVG/1.1/DTD/svg11.dtd">
<!-- Generated by graphviz version 10.0.1 (20240210.2158)
 -->
<!-- Title: ml::maths::analytics::CBoostedTreeHyperparameters::leafWeightPenaltyMultiplier Pages: 1 -->
<svg width="860pt" height="555pt"
 viewBox="0.00 0.00 860.25 555.12" xmlns="http://www.w3.org/2000/svg" xmlns:xlink="http://www.w3.org/1999/xlink">
<g id="graph0" class="graph" transform="scale(1 1) rotate(0) translate(4 551.12)">
<title>ml::maths::analytics::CBoostedTreeHyperparameters::leafWeightPenaltyMultiplier</title>
<!-- Node1 -->
<g id="Node000001" class="node">
<title>Node1</title>
<g id="a_Node000001"><a xlink:title="Get the writeable multiplier of the square leaf weight penalty.">
<polygon fill="#999999" stroke="#666666" points="852.25,-391.38 692.25,-391.38 692.25,-349.62 852.25,-349.62 852.25,-391.38"/>
<text text-anchor="start" x="700.25" y="-377.88" font-family="Helvetica,sans-Serif" font-size="10.00">ml::maths::analytics</text>
<text text-anchor="start" x="700.25" y="-366.62" font-family="Helvetica,sans-Serif" font-size="10.00">::CBoostedTreeHyperparameters</text>
<text text-anchor="middle" x="772.25" y="-355.38" font-family="Helvetica,sans-Serif" font-size="10.00">::leafWeightPenaltyMultiplier</text>
</a>
</g>
</g>
<!-- Node2 -->
<g id="Node000002" class="node">
<title>Node2</title>
<g id="a_Node000002"><a xlink:href="../../d5/dda/_c_boosted_tree_hyperparameters_test_8cc.html#ad995144b8c8d970e726a4cb5c149f386" target="_top" xlink:title=" ">
<polygon fill="white" stroke="#666666" points="643.12,-547.12 495.88,-547.12 495.88,-527.88 643.12,-527.88 643.12,-547.12"/>
<text text-anchor="middle" x="569.5" y="-533.62" font-family="Helvetica,sans-Serif" font-size="10.00">BOOST_AUTO_TEST_CASE</text>
</a>
</g>
</g>
<!-- Node1&#45;&gt;Node2 -->
<g id="edge1_Node000001_Node000002" class="edge">
<title>Node1&#45;&gt;Node2</title>
<g id="a_edge1_Node000001_Node000002"><a xlink:title=" ">
<path fill="none" stroke="#63b8ff" d="M755.89,-401.65C737.23,-436.09 702.41,-490.55 656.25,-519.5 651.22,-522.65 645.74,-525.26 640.05,-527.42"/>
<polygon fill="#63b8ff" stroke="#63b8ff" points="758.89,-403.46 760.46,-392.99 752.7,-400.2 758.89,-403.46"/>
</a>
</g>
</g>
<!-- Node3 -->
<g id="Node000003" class="node">
<title>Node3</title>
<g id="a_Node000003"><a xlink:href="../../d5/dda/_c_boosted_tree_hyperparameters_test_8cc.html#a37fd6cac82a7ddb795e04fba38975a08" target="_top" xlink:title=" ">
<polygon fill="white" stroke="#666666" points="643.12,-510.12 495.88,-510.12 495.88,-490.88 643.12,-490.88 643.12,-510.12"/>
<text text-anchor="middle" x="569.5" y="-496.62" font-family="Helvetica,sans-Serif" font-size="10.00">BOOST_AUTO_TEST_CASE</text>
</a>
</g>
</g>
<!-- Node1&#45;&gt;Node3 -->
<g id="edge2_Node000001_Node000003" class="edge">
<title>Node1&#45;&gt;Node3</title>
<g id="a_edge2_Node000001_Node000003"><a xlink:title=" ">
<path fill="none" stroke="#63b8ff" d="M748.73,-400.47C727.69,-426.27 693.93,-462.43 656.25,-482.5 650.34,-485.65 643.93,-488.24 637.37,-490.39"/>
<polygon fill="#63b8ff" stroke="#63b8ff" points="751.46,-402.67 754.95,-392.67 745.98,-398.31 751.46,-402.67"/>
</a>
</g>
</g>
<!-- Node4 -->
<g id="Node000004" class="node">
<title>Node4</title>
<g id="a_Node000004"><a xlink:href="../../d5/dda/_c_boosted_tree_hyperparameters_test_8cc.html#a4e1c0e0de9f626fad962689ed85016bf" target="_top" xlink:title=" ">
<polygon fill="white" stroke="#666666" points="643.12,-473.12 495.88,-473.12 495.88,-453.88 643.12,-453.88 643.12,-473.12"/>
<text text-anchor="middle" x="569.5" y="-459.62" font-family="Helvetica,sans-Serif" font-size="10.00">BOOST_AUTO_TEST_CASE</text>
</a>
</g>
</g>
<!-- Node1&#45;&gt;Node4 -->
<g id="edge3_Node000001_Node000004" class="edge">
<title>Node1&#45;&gt;Node4</title>
<g id="a_edge3_Node000001_Node000004"><a xlink:title=" ">
<path fill="none" stroke="#63b8ff" d="M735.8,-398.59C714,-414.56 684.84,-433.67 656.25,-445.5 648.66,-448.64 640.46,-451.26 632.24,-453.43"/>
<polygon fill="#63b8ff" stroke="#63b8ff" points="737.84,-401.43 743.76,-392.64 733.65,-395.82 737.84,-401.43"/>
</a>
</g>
</g>
<!-- Node5 -->
<g id="Node000005" class="node">
<title>Node5</title>
<g id="a_Node000005"><a xlink:href="../../d5/dda/_c_boosted_tree_hyperparameters_test_8cc.html#a2b3a881306243787cf8fd45a756d5977" target="_top" xlink:title=" ">
<polygon fill="white" stroke="#666666" points="643.12,-436.12 495.88,-436.12 495.88,-416.88 643.12,-416.88 643.12,-436.12"/>
<text text-anchor="middle" x="569.5" y="-422.62" font-family="Helvetica,sans-Serif" font-size="10.00">BOOST_AUTO_TEST_CASE</text>
</a>
</g>
</g>
<!-- Node1&#45;&gt;Node5 -->
<g id="edge4_Node000001_Node000005" class="edge">
<title>Node1&#45;&gt;Node5</title>
<g id="a_edge4_Node000001_Node000005"><a xlink:title=" ">
<path fill="none" stroke="#63b8ff" d="M700.17,-395.37C685.73,-400.03 670.57,-404.64 656.25,-408.5 645.67,-411.35 634.26,-414.02 623.33,-416.38"/>
<polygon fill="#63b8ff" stroke="#63b8ff" points="701.2,-398.71 709.62,-392.27 699.03,-392.06 701.2,-398.71"/>
</a>
</g>
</g>
<!-- Node6 -->
<g id="Node000006" class="node">
<title>Node6</title>
<g id="a_Node000006"><a xlink:href="../../d5/dda/_c_boosted_tree_hyperparameters_test_8cc.html#af21c9ddaf2e16d345b7039f29e443fa0" target="_top" xlink:title=" ">
<polygon fill="white" stroke="#666666" points="643.12,-399.12 495.88,-399.12 495.88,-379.88 643.12,-379.88 643.12,-399.12"/>
<text text-anchor="middle" x="569.5" y="-385.62" font-family="Helvetica,sans-Serif" font-size="10.00">BOOST_AUTO_TEST_CASE</text>
</a>
</g>
</g>
<!-- Node1&#45;&gt;Node6 -->
<g id="edge5_Node000001_Node000006" class="edge">
<title>Node1&#45;&gt;Node6</title>
<g id="a_edge5_Node000001_Node000006"><a xlink:title=" ">
<path fill="none" stroke="#63b8ff" d="M680.56,-379.08C668.11,-380.26 655.46,-381.46 643.39,-382.6"/>
<polygon fill="#63b8ff" stroke="#63b8ff" points="680.78,-382.58 690.4,-378.15 680.12,-375.61 680.78,-382.58"/>
</a>
</g>
</g>
<!-- Node7 -->
<g id="Node000007" class="node">
<title>Node7</title>
<g id="a_Node000007"><a xlink:href="../../d5/dda/_c_boosted_tree_hyperparameters_test_8cc.html#a4183512580fb2100a1968f89f957dcb3" target="_top" xlink:title=" ">
<polygon fill="white" stroke="#666666" points="643.12,-362.12 495.88,-362.12 495.88,-342.88 643.12,-342.88 643.12,-362.12"/>
<text text-anchor="middle" x="569.5" y="-348.62" font-family="Helvetica,sans-Serif" font-size="10.00">BOOST_AUTO_TEST_CASE</text>
</a>
</g>
</g>
<!-- Node1&#45;&gt;Node7 -->
<g id="edge6_Node000001_Node000007" class="edge">
<title>Node1&#45;&gt;Node7</title>
<g id="a_edge6_Node000001_Node000007"><a xlink:title=" ">
<path fill="none" stroke="#63b8ff" d="M680.56,-362.37C668.11,-361.25 655.46,-360.12 643.39,-359.04"/>
<polygon fill="#63b8ff" stroke="#63b8ff" points="680.13,-365.84 690.4,-363.25 680.75,-358.87 680.13,-365.84"/>
</a>
</g>
</g>
<!-- Node8 -->
<g id="Node000008" class="node">
<title>Node8</title>
<g id="a_Node000008"><a xlink:href="../../d5/dda/_c_boosted_tree_hyperparameters_test_8cc.html#a9f588347bc5306f084ac12d50d113614" target="_top" xlink:title=" ">
<polygon fill="white" stroke="#666666" points="643.12,-325.12 495.88,-325.12 495.88,-305.88 643.12,-305.88 643.12,-325.12"/>
<text text-anchor="middle" x="569.5" y="-311.62" font-family="Helvetica,sans-Serif" font-size="10.00">BOOST_AUTO_TEST_CASE</text>
</a>
</g>
</g>
<!-- Node1&#45;&gt;Node8 -->
<g id="edge7_Node000001_Node000008" class="edge">
<title>Node1&#45;&gt;Node8</title>
<g id="a_edge7_Node000001_Node000008"><a xlink:title=" ">
<path fill="none" stroke="#63b8ff" d="M698.01,-345.68C684.21,-341.36 669.85,-337.1 656.25,-333.5 645.52,-330.65 633.93,-327.97 622.85,-325.58"/>
<polygon fill="#63b8ff" stroke="#63b8ff" points="696.9,-349 707.49,-348.68 699.02,-342.32 696.9,-349"/>
</a>
</g>
</g>
<!-- Node9 -->
<g id="Node000009" class="node">
<title>Node9</title>
<g id="a_Node000009"><a xlink:href="../../d7/d16/classml_1_1maths_1_1analytics_1_1_c_boosted_tree_leaf_node_statistics_scratch.html#abf8d02e25f46d9d9d0dbe61376e66999" target="_top" xlink:title=" ">
<polygon fill="white" stroke="#666666" points="438.12,-297.38 263.88,-297.38 263.88,-255.62 438.12,-255.62 438.12,-297.38"/>
<text text-anchor="start" x="271.88" y="-283.88" font-family="Helvetica,sans-Serif" font-size="10.00">ml::maths::analytics</text>
<text text-anchor="start" x="271.88" y="-272.62" font-family="Helvetica,sans-Serif" font-size="10.00">::CBoostedTreeLeafNodeStatistics</text>
<text text-anchor="middle" x="351" y="-261.38" font-family="Helvetica,sans-Serif" font-size="10.00">Scratch::computeBestSplitStatistics</text>
</a>
</g>
</g>
<!-- Node1&#45;&gt;Node9 -->
<g id="edge8_Node000001_Node000009" class="edge">
<title>Node1&#45;&gt;Node9</title>
<g id="a_edge8_Node000001_Node000009"><a xlink:title=" ">
<path fill="none" stroke="#63b8ff" d="M737.88,-342.52C716.1,-325.98 686.24,-306.39 656.25,-296.5 585.5,-273.15 500.57,-269.43 438.45,-270.82"/>
<polygon fill="#63b8ff" stroke="#63b8ff" points="735.47,-345.07 745.51,-348.45 739.77,-339.55 735.47,-345.07"/>
</a>
</g>
</g>
<!-- Node14 -->
<g id="Node000014" class="node">
<title>Node14</title>
<g id="a_Node000014"><a xlink:href="../../dd/d3e/classml_1_1maths_1_1analytics_1_1_c_boosted_tree_leaf_node_statistics_incremental.html#a87c50aeebda7b2f957a61606295451ba" target="_top" xlink:title=" ">
<polygon fill="white" stroke="#666666" points="656.25,-189.38 482.75,-189.38 482.75,-147.62 656.25,-147.62 656.25,-189.38"/>
<text text-anchor="start" x="490.75" y="-175.88" font-family="Helvetica,sans-Serif" font-size="10.00">ml::maths::analytics</text>
<text text-anchor="start" x="490.75" y="-164.62" font-family="Helvetica,sans-Serif" font-size="10.00">::CBoostedTreeLeafNodeStatistics</text>
<text text-anchor="middle" x="569.5" y="-153.38" font-family="Helvetica,sans-Serif" font-size="10.00">Incremental::featureBestSplitSearch</text>
</a>
</g>
</g>
<!-- Node1&#45;&gt;Node14 -->
<g id="edge13_Node000001_Node000014" class="edge">
<title>Node1&#45;&gt;Node14</title>
<g id="a_edge13_Node000001_Node000014"><a xlink:title=" ">
<path fill="none" stroke="#63b8ff" d="M757.96,-339.21C740.15,-300.85 705.05,-236.3 656.25,-198.5 652.01,-195.22 647.38,-192.28 642.55,-189.65"/>
<polygon fill="#63b8ff" stroke="#63b8ff" points="754.59,-340.25 761.9,-347.91 760.96,-337.36 754.59,-340.25"/>
</a>
</g>
</g>
<!-- Node19 -->
<g id="Node000019" class="node">
<title>Node19</title>
<g id="a_Node000019"><a xlink:href="../../d7/d16/classml_1_1maths_1_1analytics_1_1_c_boosted_tree_leaf_node_statistics_scratch.html#a7bf7df4a4e12a976495091fd48ea307f" target="_top" xlink:title=" ">
<polygon fill="white" stroke="#666666" points="653.62,-249.38 485.38,-249.38 485.38,-207.62 653.62,-207.62 653.62,-249.38"/>
<text text-anchor="start" x="493.38" y="-235.88" font-family="Helvetica,sans-Serif" font-size="10.00">ml::maths::analytics</text>
<text text-anchor="start" x="493.38" y="-224.62" font-family="Helvetica,sans-Serif" font-size="10.00">::CBoostedTreeLeafNodeStatistics</text>
<text text-anchor="middle" x="569.5" y="-213.38" font-family="Helvetica,sans-Serif" font-size="10.00">Scratch::featureBestSplitSearch</text>
</a>
</g>
</g>
<!-- Node1&#45;&gt;Node19 -->
<g id="edge19_Node000001_Node000019" class="edge">
<title>Node1&#45;&gt;Node19</title>
<g id="a_edge19_Node000001_Node000019"><a xlink:title=" ">
<path fill="none" stroke="#63b8ff" d="M745.21,-340.96C723.32,-317.53 690.23,-285.2 656.25,-263.5 648.26,-258.39 639.39,-253.78 630.48,-249.71"/>
<polygon fill="#63b8ff" stroke="#63b8ff" points="742.38,-343.06 751.72,-348.05 747.53,-338.32 742.38,-343.06"/>
</a>
</g>
</g>
<!-- Node10 -->
<g id="Node000010" class="node">
<title>Node10</title>
<g id="a_Node000010"><a xlink:href="../../da/d0f/_c_boosted_tree_leaf_node_statistics_test_8cc.html#a12e25436cd30e1de9f5cd30640b2318d" target="_top" xlink:title=" ">
<polygon fill="white" stroke="#666666" points="183.25,-232.12 36,-232.12 36,-212.88 183.25,-212.88 183.25,-232.12"/>
<text text-anchor="middle" x="109.62" y="-218.62" font-family="Helvetica,sans-Serif" font-size="10.00">BOOST_AUTO_TEST_CASE</text>
</a>
</g>
</g>
<!-- Node9&#45;&gt;Node10 -->
<g id="edge9_Node000009_Node000010" class="edge">
<title>Node9&#45;&gt;Node10</title>
<g id="a_edge9_Node000009_Node000010"><a xlink:title=" ">
<path fill="none" stroke="#63b8ff" d="M264.16,-252.36C249.24,-248.5 233.84,-244.72 219.25,-241.5 204.67,-238.28 188.89,-235.26 173.99,-232.61"/>
<polygon fill="#63b8ff" stroke="#63b8ff" points="262.89,-255.65 273.45,-254.8 264.67,-248.88 262.89,-255.65"/>
</a>
</g>
</g>
<!-- Node11 -->
<g id="Node000011" class="node">
<title>Node11</title>
<g id="a_Node000011"><a xlink:href="../../d7/d16/classml_1_1maths_1_1analytics_1_1_c_boosted_tree_leaf_node_statistics_scratch.html#a7bc4acc23ebf2e84fbbbad033bae6113" target="_top" xlink:title="Only called by split but is public so it&#39;s accessible to std::make_shared.">
<polygon fill="white" stroke="#666666" points="210.62,-445 8.62,-445 8.62,-392 210.62,-392 210.62,-445"/>
<text text-anchor="start" x="16.62" y="-431.5" font-family="Helvetica,sans-Serif" font-size="10.00">ml::maths::analytics</text>
<text text-anchor="start" x="16.62" y="-420.25" font-family="Helvetica,sans-Serif" font-size="10.00">::CBoostedTreeLeafNodeStatistics</text>
<text text-anchor="start" x="16.62" y="-409" font-family="Helvetica,sans-Serif" font-size="10.00">Scratch::CBoostedTreeLeafNodeStatistics</text>
<text text-anchor="middle" x="109.62" y="-397.75" font-family="Helvetica,sans-Serif" font-size="10.00">Scratch</text>
</a>
</g>
</g>
<!-- Node9&#45;&gt;Node11 -->
<g id="edge10_Node000009_Node000011" class="edge">
<title>Node9&#45;&gt;Node11</title>
<g id="a_edge10_Node000009_Node000011"><a xlink:title=" ">
<path fill="none" stroke="#63b8ff" d="M321.21,-305.5C296.16,-329.32 257.9,-362.45 219.25,-383.5 213.94,-386.39 208.36,-389.09 202.64,-391.6"/>
<polygon fill="#63b8ff" stroke="#63b8ff" points="323.32,-308.32 328.09,-298.86 318.46,-303.28 323.32,-308.32"/>
</a>
</g>
</g>
<!-- Node12 -->
<g id="Node000012" class="node">
<title>Node12</title>
<g id="a_Node000012"><a xlink:href="../../d7/d16/classml_1_1maths_1_1analytics_1_1_c_boosted_tree_leaf_node_statistics_scratch.html#a4c5bded390aac813ca64a15a3c0fbc79" target="_top" xlink:title="Only called by split but is public so it&#39;s accessible to std::make_shared.">
<polygon fill="white" stroke="#666666" points="210.62,-374 8.62,-374 8.62,-321 210.62,-321 210.62,-374"/>
<text text-anchor="start" x="16.62" y="-360.5" font-family="Helvetica,sans-Serif" font-size="10.00">ml::maths::analytics</text>
<text text-anchor="start" x="16.62" y="-349.25" font-family="Helvetica,sans-Serif" font-size="10.00">::CBoostedTreeLeafNodeStatistics</text>
<text text-anchor="start" x="16.62" y="-338" font-family="Helvetica,sans-Serif" font-size="10.00">Scratch::CBoostedTreeLeafNodeStatistics</text>
<text text-anchor="middle" x="109.62" y="-326.75" font-family="Helvetica,sans-Serif" font-size="10.00">Scratch</text>
</a>
</g>
</g>
<!-- Node9&#45;&gt;Node12 -->
<g id="edge11_Node000009_Node000012" class="edge">
<title>Node9&#45;&gt;Node12</title>
<g id="a_edge11_Node000009_Node000012"><a xlink:title=" ">
<path fill="none" stroke="#63b8ff" d="M267.26,-301.04C246.05,-307.33 223.11,-314.13 201.51,-320.54"/>
<polygon fill="#63b8ff" stroke="#63b8ff" points="268.14,-304.43 276.73,-298.23 266.15,-297.72 268.14,-304.43"/>
</a>
</g>
</g>
<!-- Node13 -->
<g id="Node000013" class="node">
<title>Node13</title>
<g id="a_Node000013"><a xlink:href="../../d7/d16/classml_1_1maths_1_1analytics_1_1_c_boosted_tree_leaf_node_statistics_scratch.html#a01bd47ba3a2b2abbc45d007a428820da" target="_top" xlink:title=" ">
<polygon fill="white" stroke="#666666" points="210.62,-303 8.62,-303 8.62,-250 210.62,-250 210.62,-303"/>
<text text-anchor="start" x="16.62" y="-289.5" font-family="Helvetica,sans-Serif" font-size="10.00">ml::maths::analytics</text>
<text text-anchor="start" x="16.62" y="-278.25" font-family="Helvetica,sans-Serif" font-size="10.00">::CBoostedTreeLeafNodeStatistics</text>
<text text-anchor="start" x="16.62" y="-267" font-family="Helvetica,sans-Serif" font-size="10.00">Scratch::CBoostedTreeLeafNodeStatistics</text>
<text text-anchor="middle" x="109.62" y="-255.75" font-family="Helvetica,sans-Serif" font-size="10.00">Scratch</text>
</a>
</g>
</g>
<!-- Node9&#45;&gt;Node13 -->
<g id="edge12_Node000009_Node000013" class="edge">
<title>Node9&#45;&gt;Node13</title>
<g id="a_edge12_Node000009_Node000013"><a xlink:title=" ">
<path fill="none" stroke="#63b8ff" d="M252.21,-276.5C238.53,-276.5 224.47,-276.5 210.75,-276.5"/>
<polygon fill="#63b8ff" stroke="#63b8ff" points="252.07,-280 262.07,-276.5 252.07,-273 252.07,-280"/>
</a>
</g>
</g>
<!-- Node15 -->
<g id="Node000015" class="node">
<title>Node15</title>
<g id="a_Node000015"><a xlink:href="../../dd/d3e/classml_1_1maths_1_1analytics_1_1_c_boosted_tree_leaf_node_statistics_incremental.html#a148adb8fd7b6ad022e084aba0fb48d9f" target="_top" xlink:title=" ">
<polygon fill="white" stroke="#666666" points="446.75,-189.38 255.25,-189.38 255.25,-147.62 446.75,-147.62 446.75,-189.38"/>
<text text-anchor="start" x="263.25" y="-175.88" font-family="Helvetica,sans-Serif" font-size="10.00">ml::maths::analytics</text>
<text text-anchor="start" x="263.25" y="-164.62" font-family="Helvetica,sans-Serif" font-size="10.00">::CBoostedTreeLeafNodeStatistics</text>
<text text-anchor="middle" x="351" y="-153.38" font-family="Helvetica,sans-Serif" font-size="10.00">Incremental::computeBestSplitStatistics</text>
</a>
</g>
</g>
<!-- Node14&#45;&gt;Node15 -->
<g id="edge14_Node000014_Node000015" class="edge">
<title>Node14&#45;&gt;Node15</title>
<g id="a_edge14_Node000014_Node000015"><a xlink:title=" ">
<path fill="none" stroke="#63b8ff" d="M470.84,-168.5C462.96,-168.5 455.01,-168.5 447.15,-168.5"/>
<polygon fill="#63b8ff" stroke="#63b8ff" points="470.8,-172 480.8,-168.5 470.8,-165 470.8,-172"/>
</a>
</g>
</g>
<!-- Node15&#45;&gt;Node10 -->
<g id="edge15_Node000015_Node000010" class="edge">
<title>Node15&#45;&gt;Node10</title>
<g id="a_edge15_Node000015_Node000010"><a xlink:title=" ">
<path fill="none" stroke="#63b8ff" d="M266.93,-192.77C251.17,-196.98 234.76,-201.09 219.25,-204.5 206.09,-207.39 191.94,-210.06 178.34,-212.4"/>
<polygon fill="#63b8ff" stroke="#63b8ff" points="267.52,-196.24 276.26,-190.25 265.69,-189.48 267.52,-196.24"/>
</a>
</g>
</g>
<!-- Node16 -->
<g id="Node000016" class="node">
<title>Node16</title>
<g id="a_Node000016"><a xlink:href="../../dd/d3e/classml_1_1maths_1_1analytics_1_1_c_boosted_tree_leaf_node_statistics_incremental.html#a35d65536888b061faf1fb6a447347a99" target="_top" xlink:title="Only called by split but is public so it&#39;s accessible to std::make_shared.">
<polygon fill="white" stroke="#666666" points="219.25,-195 0,-195 0,-142 219.25,-142 219.25,-195"/>
<text text-anchor="start" x="8" y="-181.5" font-family="Helvetica,sans-Serif" font-size="10.00">ml::maths::analytics</text>
<text text-anchor="start" x="8" y="-170.25" font-family="Helvetica,sans-Serif" font-size="10.00">::CBoostedTreeLeafNodeStatistics</text>
<text text-anchor="start" x="8" y="-159" font-family="Helvetica,sans-Serif" font-size="10.00">Incremental::CBoostedTreeLeafNodeStatistics</text>
<text text-anchor="middle" x="109.62" y="-147.75" font-family="Helvetica,sans-Serif" font-size="10.00">Incremental</text>
</a>
</g>
</g>
<!-- Node15&#45;&gt;Node16 -->
<g id="edge16_Node000015_Node000016" class="edge">
<title>Node15&#45;&gt;Node16</title>
<g id="a_edge16_Node000015_Node000016"><a xlink:title=" ">
<path fill="none" stroke="#63b8ff" d="M243.8,-168.5C235.8,-168.5 227.71,-168.5 219.69,-168.5"/>
<polygon fill="#63b8ff" stroke="#63b8ff" points="243.54,-172 253.54,-168.5 243.54,-165 243.54,-172"/>
</a>
</g>
</g>
<!-- Node17 -->
<g id="Node000017" class="node">
<title>Node17</title>
<g id="a_Node000017"><a xlink:href="../../dd/d3e/classml_1_1maths_1_1analytics_1_1_c_boosted_tree_leaf_node_statistics_incremental.html#af3b4e69634a5df9f9c05993f4c91eada" target="_top" xlink:title="Only called by split but is public so it&#39;s accessible to std::make_shared.">
<polygon fill="white" stroke="#666666" points="219.25,-124 0,-124 0,-71 219.25,-71 219.25,-124"/>
<text text-anchor="start" x="8" y="-110.5" font-family="Helvetica,sans-Serif" font-size="10.00">ml::maths::analytics</text>
<text text-anchor="start" x="8" y="-99.25" font-family="Helvetica,sans-Serif" font-size="10.00">::CBoostedTreeLeafNodeStatistics</text>
<text text-anchor="start" x="8" y="-88" font-family="Helvetica,sans-Serif" font-size="10.00">Incremental::CBoostedTreeLeafNodeStatistics</text>
<text text-anchor="middle" x="109.62" y="-76.75" font-family="Helvetica,sans-Serif" font-size="10.00">Incremental</text>
</a>
</g>
</g>
<!-- Node15&#45;&gt;Node17 -->
<g id="edge17_Node000015_Node000017" class="edge">
<title>Node15&#45;&gt;Node17</title>
<g id="a_edge17_Node000015_Node000017"><a xlink:title=" ">
<path fill="none" stroke="#63b8ff" d="M267.26,-143.96C246.05,-137.67 223.11,-130.87 201.51,-124.46"/>
<polygon fill="#63b8ff" stroke="#63b8ff" points="266.15,-147.28 276.73,-146.77 268.14,-140.57 266.15,-147.28"/>
</a>
</g>
</g>
<!-- Node18 -->
<g id="Node000018" class="node">
<title>Node18</title>
<g id="a_Node000018"><a xlink:href="../../dd/d3e/classml_1_1maths_1_1analytics_1_1_c_boosted_tree_leaf_node_statistics_incremental.html#a58fd2782d8c92cc89789b5307d1dd44e" target="_top" xlink:title=" ">
<polygon fill="white" stroke="#666666" points="219.25,-53 0,-53 0,0 219.25,0 219.25,-53"/>
<text text-anchor="start" x="8" y="-39.5" font-family="Helvetica,sans-Serif" font-size="10.00">ml::maths::analytics</text>
<text text-anchor="start" x="8" y="-28.25" font-family="Helvetica,sans-Serif" font-size="10.00">::CBoostedTreeLeafNodeStatistics</text>
<text text-anchor="start" x="8" y="-17" font-family="Helvetica,sans-Serif" font-size="10.00">Incremental::CBoostedTreeLeafNodeStatistics</text>
<text text-anchor="middle" x="109.62" y="-5.75" font-family="Helvetica,sans-Serif" font-size="10.00">Incremental</text>
</a>
</g>
</g>
<!-- Node15&#45;&gt;Node18 -->
<g id="edge18_Node000015_Node000018" class="edge">
<title>Node15&#45;&gt;Node18</title>
<g id="a_edge18_Node000015_Node000018"><a xlink:title=" ">
<path fill="none" stroke="#63b8ff" d="M321.21,-139.5C296.16,-115.68 257.9,-82.55 219.25,-61.5 213.94,-58.61 208.36,-55.91 202.64,-53.4"/>
<polygon fill="#63b8ff" stroke="#63b8ff" points="318.46,-141.72 328.09,-146.14 323.32,-136.68 318.46,-141.72"/>
</a>
</g>
</g>
<!-- Node19&#45;&gt;Node9 -->
<g id="edge20_Node000019_Node000009" class="edge">
<title>Node19&#45;&gt;Node9</title>
<g id="a_edge20_Node000019_Node000009"><a xlink:title=" ">
<path fill="none" stroke="#63b8ff" d="M473.92,-249.47C462.17,-252.07 450.2,-254.73 438.58,-257.3"/>
<polygon fill="#63b8ff" stroke="#63b8ff" points="474.62,-252.9 483.63,-247.32 473.11,-246.06 474.62,-252.9"/>
</a>
</g>
</g>
</g>
</svg>
