<?xml version="1.0" encoding="UTF-8" standalone="no"?>
<!DOCTYPE svg PUBLIC "-//W3C//DTD SVG 1.1//EN"
 "http://www.w3.org/Graphics/SVG/1.1/DTD/svg11.dtd">
<!-- Generated by graphviz version 10.0.1 (20240210.2158)
 -->
<!-- Title: ml::maths::analytics::CBoostedTreeHyperparameters::initializeTunableHyperparameters Pages: 1 -->
<svg width="554pt" height="110pt"
 viewBox="0.00 0.00 554.00 109.75" xmlns="http://www.w3.org/2000/svg" xmlns:xlink="http://www.w3.org/1999/xlink">
<g id="graph0" class="graph" transform="scale(1 1) rotate(0) translate(4 105.75)">
<title>ml::maths::analytics::CBoostedTreeHyperparameters::initializeTunableHyperparameters</title>
<!-- Node1 -->
<g id="Node000001" class="node">
<title>Node1</title>
<g id="a_Node000001"><a xlink:title=" ">
<polygon fill="#999999" stroke="#666666" points="546,-71.75 379.25,-71.75 379.25,-30 546,-30 546,-71.75"/>
<text text-anchor="start" x="387.25" y="-58.25" font-family="Helvetica,sans-Serif" font-size="10.00">ml::maths::analytics</text>
<text text-anchor="start" x="387.25" y="-47" font-family="Helvetica,sans-Serif" font-size="10.00">::CBoostedTreeHyperparameters</text>
<text text-anchor="middle" x="462.62" y="-35.75" font-family="Helvetica,sans-Serif" font-size="10.00">::initializeTunableHyperparameters</text>
</a>
</g>
</g>
<!-- Node2 -->
<g id="Node000002" class="node">
<title>Node2</title>
<g id="a_Node000002"><a xlink:href="../../dd/d06/classml_1_1maths_1_1analytics_1_1_c_boosted_tree_hyperparameters.html#ad0d2daccbd63946c3fb1100401085a84" target="_top" xlink:title=" ">
<polygon fill="white" stroke="#666666" points="343.25,-101.75 183.25,-101.75 183.25,-60 343.25,-60 343.25,-101.75"/>
<text text-anchor="start" x="191.25" y="-88.25" font-family="Helvetica,sans-Serif" font-size="10.00">ml::maths::analytics</text>
<text text-anchor="start" x="191.25" y="-77" font-family="Helvetica,sans-Serif" font-size="10.00">::CBoostedTreeHyperparameters</text>
<text text-anchor="middle" x="263.25" y="-65.75" font-family="Helvetica,sans-Serif" font-size="10.00">::CBoostedTreeHyperparameters</text>
</a>
</g>
</g>
<!-- Node1&#45;&gt;Node2 -->
<g id="edge1_Node000001_Node000002" class="edge">
<title>Node1&#45;&gt;Node2</title>
<g id="a_edge1_Node000001_Node000002"><a xlink:title=" ">
<path fill="none" stroke="#63b8ff" d="M367.56,-65.17C359.58,-66.38 351.57,-67.6 343.73,-68.79"/>
<polygon fill="#63b8ff" stroke="#63b8ff" points="367.92,-68.66 377.28,-63.69 366.87,-61.74 367.92,-68.66"/>
</a>
</g>
</g>
<!-- Node3 -->
<g id="Node000003" class="node">
<title>Node3</title>
<g id="a_Node000003"><a xlink:href="../../dd/d06/classml_1_1maths_1_1analytics_1_1_c_boosted_tree_hyperparameters.html#a84ef962b8ae2b90feed06de1d334654f" target="_top" xlink:title="Reset search state.">
<polygon fill="white" stroke="#666666" points="343.25,-41.75 183.25,-41.75 183.25,0 343.25,0 343.25,-41.75"/>
<text text-anchor="start" x="191.25" y="-28.25" font-family="Helvetica,sans-Serif" font-size="10.00">ml::maths::analytics</text>
<text text-anchor="start" x="191.25" y="-17" font-family="Helvetica,sans-Serif" font-size="10.00">::CBoostedTreeHyperparameters</text>
<text text-anchor="middle" x="263.25" y="-5.75" font-family="Helvetica,sans-Serif" font-size="10.00">::resetFineTuneSearch</text>
</a>
</g>
</g>
<!-- Node1&#45;&gt;Node3 -->
<g id="edge2_Node000001_Node000003" class="edge">
<title>Node1&#45;&gt;Node3</title>
<g id="a_edge2_Node000001_Node000003"><a xlink:title=" ">
<path fill="none" stroke="#63b8ff" d="M367.56,-36.58C359.58,-35.37 351.57,-34.15 343.73,-32.96"/>
<polygon fill="#63b8ff" stroke="#63b8ff" points="366.87,-40.01 377.28,-38.06 367.92,-33.09 366.87,-40.01"/>
</a>
</g>
</g>
<!-- Node4 -->
<g id="Node000004" class="node">
<title>Node4</title>
<g id="a_Node000004"><a xlink:href="../../d5/dda/_c_boosted_tree_hyperparameters_test_8cc.html#a9f588347bc5306f084ac12d50d113614" target="_top" xlink:title=" ">
<polygon fill="white" stroke="#666666" points="147.25,-30.5 0,-30.5 0,-11.25 147.25,-11.25 147.25,-30.5"/>
<text text-anchor="middle" x="73.62" y="-17" font-family="Helvetica,sans-Serif" font-size="10.00">BOOST_AUTO_TEST_CASE</text>
</a>
</g>
</g>
<!-- Node3&#45;&gt;Node4 -->
<g id="edge3_Node000003_Node000004" class="edge">
<title>Node3&#45;&gt;Node4</title>
<g id="a_edge3_Node000003_Node000004"><a xlink:title=" ">
<path fill="none" stroke="#63b8ff" d="M171.64,-20.88C163.6,-20.88 155.53,-20.88 147.67,-20.88"/>
<polygon fill="#63b8ff" stroke="#63b8ff" points="171.44,-24.38 181.44,-20.88 171.44,-17.38 171.44,-24.38"/>
</a>
</g>
</g>
</g>
</svg>
