<?xml version="1.0" encoding="UTF-8" standalone="no"?>
<!DOCTYPE svg PUBLIC "-//W3C//DTD SVG 1.1//EN"
 "http://www.w3.org/Graphics/SVG/1.1/DTD/svg11.dtd">
<!-- Generated by graphviz version 10.0.1 (20240210.2158)
 -->
<!-- Title: ml::api::CDataFrameOutliersRunner::numberExtraColumns Pages: 1 -->
<svg width="342pt" height="88pt"
 viewBox="0.00 0.00 341.50 87.50" xmlns="http://www.w3.org/2000/svg" xmlns:xlink="http://www.w3.org/1999/xlink">
<g id="graph0" class="graph" transform="scale(1 1) rotate(0) translate(4 83.5)">
<title>ml::api::CDataFrameOutliersRunner::numberExtraColumns</title>
<!-- Node1 -->
<g id="Node000001" class="node">
<title>Node1</title>
<g id="a_Node000001"><a xlink:title=" ">
<polygon fill="#999999" stroke="#666666" points="148,-54.5 0,-54.5 0,-24 148,-24 148,-54.5"/>
<text text-anchor="start" x="8" y="-41" font-family="Helvetica,sans-Serif" font-size="10.00">ml::api::CDataFrameOutliers</text>
<text text-anchor="middle" x="74" y="-29.75" font-family="Helvetica,sans-Serif" font-size="10.00">Runner::numberExtraColumns</text>
</a>
</g>
</g>
<!-- Node2 -->
<g id="Node000002" class="node">
<title>Node2</title>
<g id="a_Node000002"><a xlink:href="../../db/d6b/classml_1_1api_1_1_c_data_frame_analysis_specification.html#a44c16e88bb1cd971b27f46fc9a86bb22" target="_top" xlink:title=" ">
<polygon fill="white" stroke="#666666" points="333.5,-79.5 184,-79.5 184,-49 333.5,-49 333.5,-79.5"/>
<text text-anchor="start" x="192" y="-66" font-family="Helvetica,sans-Serif" font-size="10.00">ml::api::CDataFrameAnalysis</text>
<text text-anchor="middle" x="258.75" y="-54.75" font-family="Helvetica,sans-Serif" font-size="10.00">Specification::numberColumns</text>
</a>
</g>
</g>
<!-- Node1&#45;&gt;Node2 -->
<g id="edge1_Node000001_Node000002" class="edge">
<title>Node1&#45;&gt;Node2</title>
<g id="a_edge1_Node000001_Node000002"><a xlink:title=" ">
<path fill="none" stroke="#63b8ff" d="M148.28,-49.27C156.18,-50.35 164.26,-51.46 172.28,-52.56"/>
<polygon fill="#63b8ff" stroke="#63b8ff" points="171.68,-56.01 182.06,-53.9 172.63,-49.07 171.68,-56.01"/>
</a>
</g>
</g>
<!-- Node3 -->
<g id="Node000003" class="node">
<title>Node3</title>
<g id="a_Node000003"><a xlink:href="../../d1/da2/classml_1_1api_1_1_c_data_frame_analysis_runner.html#a9d883f040388a02b556fc7bbc279c0e7" target="_top" xlink:title=" ">
<polygon fill="white" stroke="#666666" points="331.25,-30.5 186.25,-30.5 186.25,0 331.25,0 331.25,-30.5"/>
<text text-anchor="start" x="194.25" y="-17" font-family="Helvetica,sans-Serif" font-size="10.00">ml::api::CDataFrameAnalysis</text>
<text text-anchor="middle" x="258.75" y="-5.75" font-family="Helvetica,sans-Serif" font-size="10.00">Runner::spec</text>
</a>
</g>
</g>
<!-- Node1&#45;&gt;Node3 -->
<g id="edge2_Node000001_Node000003" class="edge">
<title>Node1&#45;&gt;Node3</title>
<g id="a_edge2_Node000001_Node000003"><a xlink:title=" ">
<path fill="none" stroke="#63b8ff" d="M148.28,-29.63C157.01,-28.48 165.96,-27.3 174.81,-26.14"/>
<polygon fill="#63b8ff" stroke="#63b8ff" points="174.98,-29.65 184.44,-24.88 174.07,-22.71 174.98,-29.65"/>
</a>
</g>
</g>
</g>
</svg>
