<?xml version="1.0" encoding="UTF-8" standalone="no"?>
<!DOCTYPE svg PUBLIC "-//W3C//DTD SVG 1.1//EN"
 "http://www.w3.org/Graphics/SVG/1.1/DTD/svg11.dtd">
<!-- Generated by graphviz version 10.0.1 (20240210.2158)
 -->
<!-- Title: ml::maths::time_series::CSignal::ifft Pages: 1 -->
<svg width="438pt" height="161pt"
 viewBox="0.00 0.00 437.75 160.88" xmlns="http://www.w3.org/2000/svg" xmlns:xlink="http://www.w3.org/1999/xlink">

<svg id="main" version="1.1" xmlns="http://www.w3.org/2000/svg" xmlns:xlink="http://www.w3.org/1999/xlink" xml:space="preserve" onload="init(evt)">
<style type="text/css"><![CDATA[
.node, .edge {opacity: 0.7;}
.node.selected, .edge.selected {opacity: 1;}
.edge:hover path { stroke: red; }
.edge:hover polygon { stroke: red; fill: red; }
]]></style>
<script type="application/ecmascript" xlink:href="../../svg.min.js"/>
<svg id="graph" class="graph">
<g id="graph0" class="graph" transform="scale(1 1) rotate(0) translate(4 156.88)">
<title>ml::maths::time_series::CSignal::ifft</title>
<!-- Node1 -->
<g id="Node000001" class="node">
<title>Node1</title>
<g id="a_Node000001"><a xlink:title=" ">
<polygon fill="#999999" stroke="#666666" points="115.75,-85.88 0,-85.88 0,-55.38 115.75,-55.38 115.75,-85.88"/>
<text text-anchor="start" x="8" y="-72.38" font-family="Helvetica,sans-Serif" font-size="10.00">ml::maths::time_series</text>
<text text-anchor="middle" x="57.88" y="-61.12" font-family="Helvetica,sans-Serif" font-size="10.00">::CSignal::ifft</text>
</a>
</g>
</g>
<!-- Node2 -->
<g id="Node000002" class="node">
<title>Node2</title>
<g id="a_Node000002"><a xlink:href="../../dc/deb/classml_1_1maths_1_1time__series_1_1_c_signal.html#ac7ad188bc6d92945541cc2abe5f6e7be" target="_top" xlink:title="Compute the conjugate of f.">
<polygon fill="white" stroke="#666666" points="267.5,-152.88 151.75,-152.88 151.75,-122.38 267.5,-122.38 267.5,-152.88"/>
<text text-anchor="start" x="159.75" y="-139.38" font-family="Helvetica,sans-Serif" font-size="10.00">ml::maths::time_series</text>
<text text-anchor="middle" x="209.62" y="-128.12" font-family="Helvetica,sans-Serif" font-size="10.00">::CSignal::conj</text>
</a>
</g>
</g>
<!-- Node1&#45;&gt;Node2 -->
<g id="edge1_Node000001_Node000002" class="edge">
<title>Node1&#45;&gt;Node2</title>
<g id="a_edge1_Node000001_Node000002"><a xlink:title=" ">
<path fill="none" stroke="#63b8ff" d="M93.24,-86.27C110.74,-94.21 132.36,-103.98 151.75,-112.62 155.25,-114.19 158.88,-115.8 162.54,-117.41"/>
<polygon fill="#63b8ff" stroke="#63b8ff" points="160.85,-120.5 171.41,-121.33 163.68,-114.09 160.85,-120.5"/>
</a>
</g>
</g>
<!-- Node3 -->
<g id="Node000003" class="node">
<title>Node3</title>
<g id="a_Node000003"><a xlink:href="../../dc/deb/classml_1_1maths_1_1time__series_1_1_c_signal.html#a395c664814fb97af115aa71ef2b985d5" target="_top" xlink:title=" ">
<polygon fill="white" stroke="#666666" points="267.5,-85.88 151.75,-85.88 151.75,-55.38 267.5,-55.38 267.5,-85.88"/>
<text text-anchor="start" x="159.75" y="-72.38" font-family="Helvetica,sans-Serif" font-size="10.00">ml::maths::time_series</text>
<text text-anchor="middle" x="209.62" y="-61.12" font-family="Helvetica,sans-Serif" font-size="10.00">::CSignal::fft</text>
</a>
</g>
</g>
<!-- Node1&#45;&gt;Node3 -->
<g id="edge2_Node000001_Node000003" class="edge">
<title>Node1&#45;&gt;Node3</title>
<g id="a_edge2_Node000001_Node000003"><a xlink:title=" ">
<path fill="none" stroke="#63b8ff" d="M115.92,-64.05C123.89,-63.89 132.16,-63.84 140.32,-63.9"/>
<polygon fill="#63b8ff" stroke="#63b8ff" points="140.18,-67.4 150.23,-64.03 140.28,-60.4 140.18,-67.4"/>
</a>
</g>
</g>
<!-- Node6 -->
<g id="Node000006" class="node">
<title>Node6</title>
<g id="a_Node000006"><a xlink:href="../../d4/da6/namespaceml.html#ad281564c6956f9a94ad02cfd663d150d" target="_top" xlink:title="Scales time input to generator.">
<polygon fill="white" stroke="#666666" points="237.5,-19.25 181.75,-19.25 181.75,0 237.5,0 237.5,-19.25"/>
<text text-anchor="middle" x="209.62" y="-5.75" font-family="Helvetica,sans-Serif" font-size="10.00">ml::scale</text>
</a>
</g>
</g>
<!-- Node1&#45;&gt;Node6 -->
<g id="edge7_Node000001_Node000006" class="edge">
<title>Node1&#45;&gt;Node6</title>
<g id="a_edge7_Node000001_Node000006"><a xlink:title=" ">
<path fill="none" stroke="#63b8ff" d="M97.44,-54.92C120.82,-45.39 150.44,-33.33 173.23,-24.04"/>
<polygon fill="#63b8ff" stroke="#63b8ff" points="174.47,-27.32 182.41,-20.3 171.83,-20.84 174.47,-27.32"/>
</a>
</g>
</g>
<!-- Node3&#45;&gt;Node1 -->
<g id="edge5_Node000003_Node000001" class="edge">
<title>Node3&#45;&gt;Node1</title>
<g id="a_edge5_Node000003_Node000001"><a xlink:title=" ">
<path fill="none" stroke="#63b8ff" d="M151.74,-77.2C143.77,-77.36 135.51,-77.41 127.34,-77.35"/>
<polygon fill="#63b8ff" stroke="#63b8ff" points="127.48,-73.85 117.43,-77.22 127.38,-80.85 127.48,-73.85"/>
</a>
</g>
</g>
<!-- Node3&#45;&gt;Node3 -->
<g id="edge3_Node000003_Node000003" class="edge">
<title>Node3&#45;&gt;Node3</title>
<g id="a_edge3_Node000003_Node000003"><a xlink:title=" ">
<path fill="none" stroke="#63b8ff" d="M182.73,-86.36C177.25,-95.43 186.21,-103.88 209.62,-103.88 222.43,-103.88 230.91,-101.35 235.07,-97.58"/>
<polygon fill="#63b8ff" stroke="#63b8ff" points="238.52,-98.23 236.32,-87.86 231.58,-97.33 238.52,-98.23"/>
</a>
</g>
</g>
<!-- Node4 -->
<g id="Node000004" class="node">
<title>Node4</title>
<g id="a_Node000004"><a xlink:href="../../dc/deb/classml_1_1maths_1_1time__series_1_1_c_signal.html#a186d572e4b8e600162833b1d2c2e0b47" target="_top" xlink:title="Compute the Hadamard product of fx and fy.">
<polygon fill="white" stroke="#666666" points="424.5,-109.88 308.75,-109.88 308.75,-79.38 424.5,-79.38 424.5,-109.88"/>
<text text-anchor="start" x="316.75" y="-96.38" font-family="Helvetica,sans-Serif" font-size="10.00">ml::maths::time_series</text>
<text text-anchor="middle" x="366.62" y="-85.12" font-family="Helvetica,sans-Serif" font-size="10.00">::CSignal::hadamard</text>
</a>
</g>
</g>
<!-- Node3&#45;&gt;Node4 -->
<g id="edge4_Node000003_Node000004" class="edge">
<title>Node3&#45;&gt;Node4</title>
<g id="a_edge4_Node000003_Node000004"><a xlink:title=" ">
<path fill="none" stroke="#63b8ff" d="M267.9,-79.49C277.38,-80.96 287.3,-82.5 297.03,-84"/>
<polygon fill="#63b8ff" stroke="#63b8ff" points="296.41,-87.45 306.83,-85.52 297.48,-80.53 296.41,-87.45"/>
</a>
</g>
</g>
<!-- Node5 -->
<g id="Node000005" class="node">
<title>Node5</title>
<g id="a_Node000005"><a xlink:href="../../d2/d3e/classml_1_1maths_1_1common_1_1_c_integer_tools.html#ab1ff99bf159b9988d30f115f34a3a933" target="_top" xlink:title=" ">
<polygon fill="white" stroke="#666666" points="429.75,-60.88 303.5,-60.88 303.5,-30.38 429.75,-30.38 429.75,-60.88"/>
<text text-anchor="start" x="311.5" y="-47.38" font-family="Helvetica,sans-Serif" font-size="10.00">ml::maths::common::</text>
<text text-anchor="middle" x="366.62" y="-36.12" font-family="Helvetica,sans-Serif" font-size="10.00">CIntegerTools::nextPow2</text>
</a>
</g>
</g>
<!-- Node3&#45;&gt;Node5 -->
<g id="edge6_Node000003_Node000005" class="edge">
<title>Node3&#45;&gt;Node5</title>
<g id="a_edge6_Node000003_Node000005"><a xlink:title=" ">
<path fill="none" stroke="#63b8ff" d="M267.9,-61.39C275.7,-60.13 283.79,-58.82 291.82,-57.53"/>
<polygon fill="#63b8ff" stroke="#63b8ff" points="292.3,-61 301.62,-55.95 291.19,-54.09 292.3,-61"/>
</a>
</g>
</g>
<!-- Node6&#45;&gt;Node6 -->
<g id="edge8_Node000006_Node000006" class="edge">
<title>Node6&#45;&gt;Node6</title>
<g id="a_edge8_Node000006_Node000006"><a xlink:title=" ">
<path fill="none" stroke="#63b8ff" d="M185.87,-19.54C175.03,-28.15 182.95,-37.25 209.62,-37.25 224.63,-37.25 233.7,-34.37 236.84,-30.32"/>
<polygon fill="#63b8ff" stroke="#63b8ff" points="240.23,-29.43 233.84,-20.98 233.56,-31.57 240.23,-29.43"/>
</a>
</g>
</g>
</g>
</svg>
</svg>

<style type='text/css'>
<![CDATA[
[data-mouse-over-selected='false'] { opacity: 0.7; }
[data-mouse-over-selected='true']  { opacity: 1.0; }
]]>
</style>
<script type="application/ecmascript"><![CDATA[
document.addEventListener('DOMContentLoaded', (event) => {
  highlightEdges();
  highlightAdjacentNodes();
});
]]></script>
</svg>
