<?xml version="1.0" encoding="UTF-8" standalone="no"?>
<!DOCTYPE svg PUBLIC "-//W3C//DTD SVG 1.1//EN"
 "http://www.w3.org/Graphics/SVG/1.1/DTD/svg11.dtd">
<!-- Generated by graphviz version 10.0.1 (20240210.2158)
 -->
<!-- Title: lib/api/CIoManager.cc Pages: 1 -->
<svg width="1688pt" height="393pt"
 viewBox="0.00 0.00 1688.00 392.50" xmlns="http://www.w3.org/2000/svg" xmlns:xlink="http://www.w3.org/1999/xlink">
<g id="graph0" class="graph" transform="scale(1 1) rotate(0) translate(4 388.5)">
<title>lib/api/CIoManager.cc</title>
<!-- Node1 -->
<g id="Node000001" class="node">
<title>Node1</title>
<g id="a_Node000001"><a xlink:title=" ">
<polygon fill="#999999" stroke="#666666" points="624.88,-384.5 514.38,-384.5 514.38,-365.25 624.88,-365.25 624.88,-384.5"/>
<text text-anchor="middle" x="569.62" y="-371" font-family="Helvetica,sans-Serif" font-size="10.00">lib/api/CIoManager.cc</text>
</a>
</g>
</g>
<!-- Node2 -->
<g id="Node000002" class="node">
<title>Node2</title>
<g id="a_Node000002"><a xlink:href="../../db/d91/_c_io_manager_8h.html" target="_top" xlink:title=" ">
<polygon fill="white" stroke="#666666" points="405.88,-329.25 313.38,-329.25 313.38,-310 405.88,-310 405.88,-329.25"/>
<text text-anchor="middle" x="359.62" y="-315.75" font-family="Helvetica,sans-Serif" font-size="10.00">api/CIoManager.h</text>
</a>
</g>
</g>
<!-- Node1&#45;&gt;Node2 -->
<g id="edge1_Node000001_Node000002" class="edge">
<title>Node1&#45;&gt;Node2</title>
<g id="a_edge1_Node000001_Node000002"><a xlink:title=" ">
<path fill="none" stroke="#63b8ff" d="M534,-364.84C498.85,-355.93 444.94,-342.26 406.36,-332.48"/>
<polygon fill="#63b8ff" stroke="#63b8ff" points="407.44,-329.14 396.89,-330.07 405.72,-335.93 407.44,-329.14"/>
</a>
</g>
</g>
<!-- Node7 -->
<g id="Node000007" class="node">
<title>Node7</title>
<g id="a_Node000007"><a xlink:title=" ">
<polygon fill="#e0e0e0" stroke="#999999" points="245.25,-201.88 200,-201.88 200,-182.62 245.25,-182.62 245.25,-201.88"/>
<text text-anchor="middle" x="222.62" y="-188.38" font-family="Helvetica,sans-Serif" font-size="10.00">atomic</text>
</a>
</g>
</g>
<!-- Node1&#45;&gt;Node7 -->
<g id="edge69_Node000001_Node000007" class="edge">
<title>Node1&#45;&gt;Node7</title>
<g id="a_edge69_Node000001_Node000007"><a xlink:title=" ">
<path fill="none" stroke="#63b8ff" d="M514.01,-368.38C416.89,-357.41 223.35,-329 188.62,-274 175.74,-253.6 191.88,-227.48 206.02,-210.56"/>
<polygon fill="#63b8ff" stroke="#63b8ff" points="208.42,-213.12 212.46,-203.33 203.2,-208.46 208.42,-213.12"/>
</a>
</g>
</g>
<!-- Node13 -->
<g id="Node000013" class="node">
<title>Node13</title>
<g id="a_Node000013"><a xlink:href="../../d4/dd9/_c_blocking_call_canceller_thread_8h.html" target="_top" xlink:title=" ">
<polygon fill="white" stroke="#666666" points="141.25,-274 0,-274 0,-243.5 141.25,-243.5 141.25,-274"/>
<text text-anchor="start" x="8" y="-260.5" font-family="Helvetica,sans-Serif" font-size="10.00">core/CBlockingCallCanceller</text>
<text text-anchor="middle" x="70.62" y="-249.25" font-family="Helvetica,sans-Serif" font-size="10.00">Thread.h</text>
</a>
</g>
</g>
<!-- Node1&#45;&gt;Node13 -->
<g id="edge15_Node000001_Node000013" class="edge">
<title>Node1&#45;&gt;Node13</title>
<g id="a_edge15_Node000001_Node000013"><a xlink:title=" ">
<path fill="none" stroke="#63b8ff" d="M513.89,-371.79C416.34,-367.5 218.98,-355.77 155.62,-329.25 130.47,-318.72 106.88,-298.26 90.97,-282.25"/>
<polygon fill="#63b8ff" stroke="#63b8ff" points="93.88,-280.23 84.43,-275.45 88.84,-285.08 93.88,-280.23"/>
</a>
</g>
</g>
<!-- Node18 -->
<g id="Node000018" class="node">
<title>Node18</title>
<g id="a_Node000018"><a xlink:href="../../d2/d53/_c_logger_8h.html" target="_top" xlink:title=" ">
<polygon fill="white" stroke="#666666" points="610.62,-329.25 528.62,-329.25 528.62,-310 610.62,-310 610.62,-329.25"/>
<text text-anchor="middle" x="569.62" y="-315.75" font-family="Helvetica,sans-Serif" font-size="10.00">core/CLogger.h</text>
</a>
</g>
</g>
<!-- Node1&#45;&gt;Node18 -->
<g id="edge29_Node000001_Node000018" class="edge">
<title>Node1&#45;&gt;Node18</title>
<g id="a_edge29_Node000001_Node000018"><a xlink:title=" ">
<path fill="none" stroke="#63b8ff" d="M569.62,-365.08C569.62,-358.57 569.62,-349.42 569.62,-341.12"/>
<polygon fill="#63b8ff" stroke="#63b8ff" points="573.13,-341.12 569.63,-331.12 566.13,-341.12 573.13,-341.12"/>
</a>
</g>
</g>
<!-- Node39 -->
<g id="Node000039" class="node">
<title>Node39</title>
<g id="a_Node000039"><a xlink:title=" ">
<polygon fill="#e0e0e0" stroke="#999999" points="678.12,-329.25 629.12,-329.25 629.12,-310 678.12,-310 678.12,-329.25"/>
<text text-anchor="middle" x="653.62" y="-315.75" font-family="Helvetica,sans-Serif" font-size="10.00">fstream</text>
</a>
</g>
</g>
<!-- Node1&#45;&gt;Node39 -->
<g id="edge70_Node000001_Node000039" class="edge">
<title>Node1&#45;&gt;Node39</title>
<g id="a_edge70_Node000001_Node000039"><a xlink:title=" ">
<path fill="none" stroke="#63b8ff" d="M583.87,-364.84C596.42,-356.89 614.96,-345.14 629.77,-335.75"/>
<polygon fill="#63b8ff" stroke="#63b8ff" points="631.46,-338.82 638.03,-330.51 627.71,-332.91 631.46,-338.82"/>
</a>
</g>
</g>
<!-- Node40 -->
<g id="Node000040" class="node">
<title>Node40</title>
<g id="a_Node000040"><a xlink:title=" ">
<polygon fill="#e0e0e0" stroke="#999999" points="725.02,-329.25 696.23,-329.25 696.23,-310 725.02,-310 725.02,-329.25"/>
<text text-anchor="middle" x="710.62" y="-315.75" font-family="Helvetica,sans-Serif" font-size="10.00">ios</text>
</a>
</g>
</g>
<!-- Node1&#45;&gt;Node40 -->
<g id="edge71_Node000001_Node000040" class="edge">
<title>Node1&#45;&gt;Node40</title>
<g id="a_edge71_Node000001_Node000040"><a xlink:title=" ">
<path fill="none" stroke="#63b8ff" d="M593.54,-364.84C619.14,-355.17 659.57,-339.91 685.59,-330.08"/>
<polygon fill="#63b8ff" stroke="#63b8ff" points="686.56,-333.45 694.68,-326.65 684.09,-326.91 686.56,-333.45"/>
</a>
</g>
</g>
<!-- Node41 -->
<g id="Node000041" class="node">
<title>Node41</title>
<g id="a_Node000041"><a xlink:title=" ">
<polygon fill="#e0e0e0" stroke="#999999" points="796.38,-329.25 742.88,-329.25 742.88,-310 796.38,-310 796.38,-329.25"/>
<text text-anchor="middle" x="769.62" y="-315.75" font-family="Helvetica,sans-Serif" font-size="10.00">iostream</text>
</a>
</g>
</g>
<!-- Node1&#45;&gt;Node41 -->
<g id="edge72_Node000001_Node000041" class="edge">
<title>Node1&#45;&gt;Node41</title>
<g id="a_edge72_Node000001_Node000041"><a xlink:title=" ">
<path fill="none" stroke="#63b8ff" d="M603.55,-364.84C639.1,-355.38 694.82,-340.54 731.78,-330.7"/>
<polygon fill="#63b8ff" stroke="#63b8ff" points="732.37,-334.16 741.14,-328.21 730.57,-327.4 732.37,-334.16"/>
</a>
</g>
</g>
<!-- Node3 -->
<g id="Node000003" class="node">
<title>Node3</title>
<g id="a_Node000003"><a xlink:href="../../d7/d88/_c_named_pipe_factory_8h.html" target="_top" xlink:title=" ">
<polygon fill="white" stroke="#666666" points="637.62,-268.38 501.62,-268.38 501.62,-249.12 637.62,-249.12 637.62,-268.38"/>
<text text-anchor="middle" x="569.62" y="-254.88" font-family="Helvetica,sans-Serif" font-size="10.00">core/CNamedPipeFactory.h</text>
</a>
</g>
</g>
<!-- Node2&#45;&gt;Node3 -->
<g id="edge2_Node000002_Node000003" class="edge">
<title>Node2&#45;&gt;Node3</title>
<g id="a_edge2_Node000002_Node000003"><a xlink:title=" ">
<path fill="none" stroke="#63b8ff" d="M391.98,-309.55C427.97,-299.46 486.31,-283.11 526.24,-271.91"/>
<polygon fill="#63b8ff" stroke="#63b8ff" points="527.09,-275.31 535.78,-269.24 525.21,-268.57 527.09,-275.31"/>
</a>
</g>
</g>
<!-- Node8 -->
<g id="Node000008" class="node">
<title>Node8</title>
<g id="a_Node000008"><a xlink:title=" ">
<polygon fill="#e0e0e0" stroke="#999999" points="393.88,-201.88 349.38,-201.88 349.38,-182.62 393.88,-182.62 393.88,-201.88"/>
<text text-anchor="middle" x="371.62" y="-188.38" font-family="Helvetica,sans-Serif" font-size="10.00">iosfwd</text>
</a>
</g>
</g>
<!-- Node2&#45;&gt;Node8 -->
<g id="edge13_Node000002_Node000008" class="edge">
<title>Node2&#45;&gt;Node8</title>
<g id="a_edge13_Node000002_Node000008"><a xlink:title=" ">
<path fill="none" stroke="#63b8ff" d="M360.49,-309.61C362.4,-289.64 367.03,-241.26 369.68,-213.58"/>
<polygon fill="#63b8ff" stroke="#63b8ff" points="373.16,-213.98 370.63,-203.69 366.19,-213.31 373.16,-213.98"/>
</a>
</g>
</g>
<!-- Node10 -->
<g id="Node000010" class="node">
<title>Node10</title>
<g id="a_Node000010"><a xlink:title=" ">
<polygon fill="#e0e0e0" stroke="#999999" points="593.62,-74.5 553.62,-74.5 553.62,-55.25 593.62,-55.25 593.62,-74.5"/>
<text text-anchor="middle" x="573.62" y="-61" font-family="Helvetica,sans-Serif" font-size="10.00">string</text>
</a>
</g>
</g>
<!-- Node2&#45;&gt;Node10 -->
<g id="edge14_Node000002_Node000010" class="edge">
<title>Node2&#45;&gt;Node10</title>
<g id="a_edge14_Node000002_Node000010"><a xlink:title=" ">
<path fill="none" stroke="#63b8ff" d="M354.79,-309.82C342.56,-286.22 313.22,-220.43 340.62,-177 385.44,-105.97 489.5,-79.38 542.06,-70.24"/>
<polygon fill="#63b8ff" stroke="#63b8ff" points="542.54,-73.7 551.85,-68.65 541.42,-66.79 542.54,-73.7"/>
</a>
</g>
</g>
<!-- Node12 -->
<g id="Node000012" class="node">
<title>Node12</title>
<g id="a_Node000012"><a xlink:href="../../d9/dd6/api_2_import_export_8h.html" target="_top" xlink:title=" ">
<polygon fill="white" stroke="#666666" points="293.75,-268.38 197.5,-268.38 197.5,-249.12 293.75,-249.12 293.75,-268.38"/>
<text text-anchor="middle" x="245.62" y="-254.88" font-family="Helvetica,sans-Serif" font-size="10.00">api/ImportExport.h</text>
</a>
</g>
</g>
<!-- Node2&#45;&gt;Node12 -->
<g id="edge12_Node000002_Node000012" class="edge">
<title>Node2&#45;&gt;Node12</title>
<g id="a_edge12_Node000002_Node000012"><a xlink:title=" ">
<path fill="none" stroke="#63b8ff" d="M342.31,-309.68C323.98,-300.22 294.78,-285.14 273.26,-274.02"/>
<polygon fill="#63b8ff" stroke="#63b8ff" points="274.94,-270.95 264.45,-269.47 271.73,-277.17 274.94,-270.95"/>
</a>
</g>
</g>
<!-- Node4 -->
<g id="Node000004" class="node">
<title>Node4</title>
<g id="a_Node000004"><a xlink:href="../../d7/dc2/_c_non_instantiatable_8h.html" target="_top" xlink:title=" ">
<polygon fill="white" stroke="#666666" points="875.62,-74.5 745.62,-74.5 745.62,-55.25 875.62,-55.25 875.62,-74.5"/>
<text text-anchor="middle" x="810.62" y="-61" font-family="Helvetica,sans-Serif" font-size="10.00">core/CNonInstantiatable.h</text>
</a>
</g>
</g>
<!-- Node3&#45;&gt;Node4 -->
<g id="edge3_Node000003_Node000004" class="edge">
<title>Node3&#45;&gt;Node4</title>
<g id="a_edge3_Node000003_Node000004"><a xlink:title=" ">
<path fill="none" stroke="#63b8ff" d="M567.83,-248.88C563.2,-223.26 553.82,-148.54 592.62,-110.5 612.55,-90.96 679.42,-79.27 733.9,-72.78"/>
<polygon fill="#63b8ff" stroke="#63b8ff" points="734.27,-76.26 743.81,-71.65 733.48,-69.31 734.27,-76.26"/>
</a>
</g>
</g>
<!-- Node5 -->
<g id="Node000005" class="node">
<title>Node5</title>
<g id="a_Node000005"><a xlink:href="../../dd/d0e/core_2_import_export_8h.html" target="_top" xlink:title=" ">
<polygon fill="white" stroke="#666666" points="861.75,-19.25 759.5,-19.25 759.5,0 861.75,0 861.75,-19.25"/>
<text text-anchor="middle" x="810.62" y="-5.75" font-family="Helvetica,sans-Serif" font-size="10.00">core/ImportExport.h</text>
</a>
</g>
</g>
<!-- Node3&#45;&gt;Node5 -->
<g id="edge5_Node000003_Node000005" class="edge">
<title>Node3&#45;&gt;Node5</title>
<g id="a_edge5_Node000003_Node000005"><a xlink:title=" ">
<path fill="none" stroke="#63b8ff" d="M551.14,-248.69C536.32,-240.29 516.57,-226.26 507.62,-207.5 477.66,-144.64 486.13,-93.03 544.62,-55.25 577.35,-34.12 679.89,-21.6 747.68,-15.43"/>
<polygon fill="#63b8ff" stroke="#63b8ff" points="747.91,-18.93 757.56,-14.56 747.29,-11.95 747.91,-18.93"/>
</a>
</g>
</g>
<!-- Node6 -->
<g id="Node000006" class="node">
<title>Node6</title>
<g id="a_Node000006"><a xlink:href="../../da/d3e/_windows_safe_8h.html" target="_top" xlink:title=" ">
<polygon fill="white" stroke="#666666" points="440,-74.5 333.25,-74.5 333.25,-55.25 440,-55.25 440,-74.5"/>
<text text-anchor="middle" x="386.62" y="-61" font-family="Helvetica,sans-Serif" font-size="10.00">core/WindowsSafe.h</text>
</a>
</g>
</g>
<!-- Node3&#45;&gt;Node6 -->
<g id="edge6_Node000003_Node000006" class="edge">
<title>Node3&#45;&gt;Node6</title>
<g id="a_edge6_Node000003_Node000006"><a xlink:title=" ">
<path fill="none" stroke="#63b8ff" d="M524.67,-248.66C498.72,-241.37 467.08,-228.75 445.62,-207.5 411.18,-173.39 395.89,-116.2 389.93,-85.98"/>
<polygon fill="#63b8ff" stroke="#63b8ff" points="393.41,-85.54 388.19,-76.32 386.52,-86.79 393.41,-85.54"/>
</a>
</g>
</g>
<!-- Node3&#45;&gt;Node7 -->
<g id="edge7_Node000003_Node000007" class="edge">
<title>Node3&#45;&gt;Node7</title>
<g id="a_edge7_Node000003_Node000007"><a xlink:title=" ">
<path fill="none" stroke="#63b8ff" d="M520.64,-248.65C449.21,-235.37 318.27,-211.03 256.53,-199.55"/>
<polygon fill="#63b8ff" stroke="#63b8ff" points="257.45,-196.16 246.98,-197.78 256.17,-203.05 257.45,-196.16"/>
</a>
</g>
</g>
<!-- Node3&#45;&gt;Node8 -->
<g id="edge8_Node000003_Node000008" class="edge">
<title>Node3&#45;&gt;Node8</title>
<g id="a_edge8_Node000003_Node000008"><a xlink:title=" ">
<path fill="none" stroke="#63b8ff" d="M537.73,-248.64C504.89,-239.07 452.34,-223.26 407.62,-207.5 406.48,-207.1 405.33,-206.68 404.16,-206.26"/>
<polygon fill="#63b8ff" stroke="#63b8ff" points="405.62,-203.07 395.03,-202.8 403.14,-209.61 405.62,-203.07"/>
</a>
</g>
</g>
<!-- Node9 -->
<g id="Node000009" class="node">
<title>Node9</title>
<g id="a_Node000009"><a xlink:title=" ">
<polygon fill="#e0e0e0" stroke="#999999" points="653.25,-135.38 602,-135.38 602,-116.12 653.25,-116.12 653.25,-135.38"/>
<text text-anchor="middle" x="627.62" y="-121.88" font-family="Helvetica,sans-Serif" font-size="10.00">memory</text>
</a>
</g>
</g>
<!-- Node3&#45;&gt;Node9 -->
<g id="edge9_Node000003_Node000009" class="edge">
<title>Node3&#45;&gt;Node9</title>
<g id="a_edge9_Node000003_Node000009"><a xlink:title=" ">
<path fill="none" stroke="#63b8ff" d="M571.15,-248.93C573.98,-233.7 580.88,-201.76 592.62,-177 598.05,-165.57 605.99,-153.91 612.94,-144.71"/>
<polygon fill="#63b8ff" stroke="#63b8ff" points="615.57,-147.02 618.99,-137 610.06,-142.7 615.57,-147.02"/>
</a>
</g>
</g>
<!-- Node3&#45;&gt;Node10 -->
<g id="edge10_Node000003_Node000010" class="edge">
<title>Node3&#45;&gt;Node10</title>
<g id="a_edge10_Node000003_Node000010"><a xlink:title=" ">
<path fill="none" stroke="#63b8ff" d="M556.58,-248.73C544.92,-239.81 528.63,-224.97 521.62,-207.5 505.58,-167.48 503.62,-149.67 521.62,-110.5 527.08,-98.62 537.44,-88.72 547.48,-81.28"/>
<polygon fill="#63b8ff" stroke="#63b8ff" points="549.28,-84.29 555.58,-75.78 545.35,-78.5 549.28,-84.29"/>
</a>
</g>
</g>
<!-- Node11 -->
<g id="Node000011" class="node">
<title>Node11</title>
<g id="a_Node000011"><a xlink:title=" ">
<polygon fill="#e0e0e0" stroke="#999999" points="647.25,-201.88 602,-201.88 602,-182.62 647.25,-182.62 647.25,-201.88"/>
<text text-anchor="middle" x="624.62" y="-188.38" font-family="Helvetica,sans-Serif" font-size="10.00">stdio.h</text>
</a>
</g>
</g>
<!-- Node3&#45;&gt;Node11 -->
<g id="edge11_Node000003_Node000011" class="edge">
<title>Node3&#45;&gt;Node11</title>
<g id="a_edge11_Node000003_Node000011"><a xlink:title=" ">
<path fill="none" stroke="#63b8ff" d="M577.27,-248.78C585.65,-238.96 599.28,-222.98 609.77,-210.67"/>
<polygon fill="#63b8ff" stroke="#63b8ff" points="612.24,-213.17 616.06,-203.29 606.91,-208.63 612.24,-213.17"/>
</a>
</g>
</g>
<!-- Node4&#45;&gt;Node5 -->
<g id="edge4_Node000004_Node000005" class="edge">
<title>Node4&#45;&gt;Node5</title>
<g id="a_edge4_Node000004_Node000005"><a xlink:title=" ">
<path fill="none" stroke="#63b8ff" d="M810.62,-55.08C810.62,-48.57 810.62,-39.42 810.62,-31.12"/>
<polygon fill="#63b8ff" stroke="#63b8ff" points="814.13,-31.12 810.63,-21.12 807.13,-31.12 814.13,-31.12"/>
</a>
</g>
</g>
<!-- Node13&#45;&gt;Node5 -->
<g id="edge27_Node000013_Node000005" class="edge">
<title>Node13&#45;&gt;Node5</title>
<g id="a_edge27_Node000013_Node000005"><a xlink:title=" ">
<path fill="none" stroke="#63b8ff" d="M64.43,-243.09C49.86,-206.01 18.21,-107.72 67.62,-55.25 90.8,-30.64 572.72,-16.44 747.78,-12.08"/>
<polygon fill="#63b8ff" stroke="#63b8ff" points="747.68,-15.58 757.59,-11.84 747.51,-8.59 747.68,-15.58"/>
</a>
</g>
</g>
<!-- Node13&#45;&gt;Node7 -->
<g id="edge28_Node000013_Node000007" class="edge">
<title>Node13&#45;&gt;Node7</title>
<g id="a_edge28_Node000013_Node000007"><a xlink:title=" ">
<path fill="none" stroke="#63b8ff" d="M105.12,-243.11C130.91,-232.17 165.89,-217.32 190.97,-206.68"/>
<polygon fill="#63b8ff" stroke="#63b8ff" points="192.16,-209.98 200,-202.85 189.43,-203.54 192.16,-209.98"/>
</a>
</g>
</g>
<!-- Node14 -->
<g id="Node000014" class="node">
<title>Node14</title>
<g id="a_Node000014"><a xlink:href="../../df/d7a/_c_thread_8h.html" target="_top" xlink:title=" ">
<polygon fill="white" stroke="#666666" points="162.38,-201.88 78.88,-201.88 78.88,-182.62 162.38,-182.62 162.38,-201.88"/>
<text text-anchor="middle" x="120.62" y="-188.38" font-family="Helvetica,sans-Serif" font-size="10.00">core/CThread.h</text>
</a>
</g>
</g>
<!-- Node13&#45;&gt;Node14 -->
<g id="edge16_Node000013_Node000014" class="edge">
<title>Node13&#45;&gt;Node14</title>
<g id="a_edge16_Node000013_Node000014"><a xlink:title=" ">
<path fill="none" stroke="#63b8ff" d="M81.97,-243.11C89.32,-233.64 98.93,-221.23 106.74,-211.16"/>
<polygon fill="#63b8ff" stroke="#63b8ff" points="109.5,-213.32 112.86,-203.27 103.97,-209.03 109.5,-213.32"/>
</a>
</g>
</g>
<!-- Node14&#45;&gt;Node5 -->
<g id="edge24_Node000014_Node000005" class="edge">
<title>Node14&#45;&gt;Node5</title>
<g id="a_edge24_Node000014_Node000005"><a xlink:title=" ">
<path fill="none" stroke="#63b8ff" d="M113.06,-182.28C93.79,-158.35 46.79,-92.28 81.62,-55.25 104.3,-31.14 575.07,-16.67 747.8,-12.16"/>
<polygon fill="#63b8ff" stroke="#63b8ff" points="747.8,-15.66 757.71,-11.9 747.62,-8.66 747.8,-15.66"/>
</a>
</g>
</g>
<!-- Node14&#45;&gt;Node6 -->
<g id="edge25_Node000014_Node000006" class="edge">
<title>Node14&#45;&gt;Node6</title>
<g id="a_edge25_Node000014_Node000006"><a xlink:title=" ">
<path fill="none" stroke="#63b8ff" d="M147.21,-182.17C173.8,-172.81 215.65,-157.33 250.62,-141 290.76,-122.26 335.36,-96.66 362.19,-80.7"/>
<polygon fill="#63b8ff" stroke="#63b8ff" points="363.8,-83.81 370.58,-75.67 360.2,-77.81 363.8,-83.81"/>
</a>
</g>
</g>
<!-- Node15 -->
<g id="Node000015" class="node">
<title>Node15</title>
<g id="a_Node000015"><a xlink:href="../../d2/d78/_c_mutex_8h.html" target="_top" xlink:title=" ">
<polygon fill="white" stroke="#666666" points="217.88,-135.38 137.38,-135.38 137.38,-116.12 217.88,-116.12 217.88,-135.38"/>
<text text-anchor="middle" x="177.62" y="-121.88" font-family="Helvetica,sans-Serif" font-size="10.00">core/CMutex.h</text>
</a>
</g>
</g>
<!-- Node14&#45;&gt;Node15 -->
<g id="edge17_Node000014_Node000015" class="edge">
<title>Node14&#45;&gt;Node15</title>
<g id="a_edge17_Node000014_Node000015"><a xlink:title=" ">
<path fill="none" stroke="#63b8ff" d="M128.55,-182.28C137.23,-172.46 151.36,-156.48 162.23,-144.17"/>
<polygon fill="#63b8ff" stroke="#63b8ff" points="164.77,-146.59 168.76,-136.78 159.52,-141.95 164.77,-146.59"/>
</a>
</g>
</g>
<!-- Node16 -->
<g id="Node000016" class="node">
<title>Node16</title>
<g id="a_Node000016"><a xlink:href="../../db/d30/_c_non_copyable_8h.html" target="_top" xlink:title=" ">
<polygon fill="white" stroke="#666666" points="315,-74.5 202.25,-74.5 202.25,-55.25 315,-55.25 315,-74.5"/>
<text text-anchor="middle" x="258.62" y="-61" font-family="Helvetica,sans-Serif" font-size="10.00">core/CNonCopyable.h</text>
</a>
</g>
</g>
<!-- Node14&#45;&gt;Node16 -->
<g id="edge23_Node000014_Node000016" class="edge">
<title>Node14&#45;&gt;Node16</title>
<g id="a_edge23_Node000014_Node000016"><a xlink:title=" ">
<path fill="none" stroke="#63b8ff" d="M154.52,-182.15C177.45,-174.47 207.01,-161.41 226.62,-141 241.34,-125.69 249.79,-102.57 254.27,-86.02"/>
<polygon fill="#63b8ff" stroke="#63b8ff" points="257.66,-86.91 256.6,-76.36 250.85,-85.26 257.66,-86.91"/>
</a>
</g>
</g>
<!-- Node17 -->
<g id="Node000017" class="node">
<title>Node17</title>
<g id="a_Node000017"><a xlink:title=" ">
<polygon fill="#e0e0e0" stroke="#999999" points="146.88,-74.5 90.38,-74.5 90.38,-55.25 146.88,-55.25 146.88,-74.5"/>
<text text-anchor="middle" x="118.62" y="-61" font-family="Helvetica,sans-Serif" font-size="10.00">pthread.h</text>
</a>
</g>
</g>
<!-- Node14&#45;&gt;Node17 -->
<g id="edge26_Node000014_Node000017" class="edge">
<title>Node14&#45;&gt;Node17</title>
<g id="a_edge26_Node000014_Node000017"><a xlink:title=" ">
<path fill="none" stroke="#63b8ff" d="M120.48,-182.23C120.16,-162.26 119.39,-113.89 118.95,-86.21"/>
<polygon fill="#63b8ff" stroke="#63b8ff" points="122.45,-86.27 118.79,-76.32 115.45,-86.38 122.45,-86.27"/>
</a>
</g>
</g>
<!-- Node15&#45;&gt;Node5 -->
<g id="edge20_Node000015_Node000005" class="edge">
<title>Node15&#45;&gt;Node5</title>
<g id="a_edge20_Node000015_Node000005"><a xlink:title=" ">
<path fill="none" stroke="#63b8ff" d="M176.67,-115.85C175.6,-100.78 175.95,-70.39 193.62,-55.25 235.06,-19.75 599.47,-12.49 748.01,-11.01"/>
<polygon fill="#63b8ff" stroke="#63b8ff" points="747.69,-14.51 757.66,-10.92 747.63,-7.51 747.69,-14.51"/>
</a>
</g>
</g>
<!-- Node15&#45;&gt;Node6 -->
<g id="edge21_Node000015_Node000006" class="edge">
<title>Node15&#45;&gt;Node6</title>
<g id="a_edge21_Node000015_Node000006"><a xlink:title=" ">
<path fill="none" stroke="#63b8ff" d="M209.82,-115.68C245.65,-105.59 303.7,-89.23 343.45,-78.04"/>
<polygon fill="#63b8ff" stroke="#63b8ff" points="344.26,-81.45 352.93,-75.37 342.36,-74.71 344.26,-81.45"/>
</a>
</g>
</g>
<!-- Node15&#45;&gt;Node16 -->
<g id="edge18_Node000015_Node000016" class="edge">
<title>Node15&#45;&gt;Node16</title>
<g id="a_edge18_Node000015_Node000016"><a xlink:title=" ">
<path fill="none" stroke="#63b8ff" d="M189.93,-115.81C202.42,-106.73 222.01,-92.49 237.08,-81.54"/>
<polygon fill="#63b8ff" stroke="#63b8ff" points="238.95,-84.5 244.98,-75.79 234.84,-78.84 238.95,-84.5"/>
</a>
</g>
</g>
<!-- Node15&#45;&gt;Node17 -->
<g id="edge22_Node000015_Node000017" class="edge">
<title>Node15&#45;&gt;Node17</title>
<g id="a_edge22_Node000015_Node000017"><a xlink:title=" ">
<path fill="none" stroke="#63b8ff" d="M168.66,-115.81C159.91,-107.08 146.38,-93.57 135.59,-82.8"/>
<polygon fill="#63b8ff" stroke="#63b8ff" points="138.29,-80.56 128.74,-75.97 133.35,-85.51 138.29,-80.56"/>
</a>
</g>
</g>
<!-- Node16&#45;&gt;Node5 -->
<g id="edge19_Node000016_Node000005" class="edge">
<title>Node16&#45;&gt;Node5</title>
<g id="a_edge19_Node000016_Node000005"><a xlink:title=" ">
<path fill="none" stroke="#63b8ff" d="M315.49,-56.3C318.58,-55.94 321.64,-55.58 324.62,-55.25 476.25,-38.39 654.99,-23.17 747.71,-15.63"/>
<polygon fill="#63b8ff" stroke="#63b8ff" points="747.93,-19.12 757.62,-14.82 747.37,-12.14 747.93,-19.12"/>
</a>
</g>
</g>
<!-- Node18&#45;&gt;Node3 -->
<g id="edge34_Node000018_Node000003" class="edge">
<title>Node18&#45;&gt;Node3</title>
<g id="a_edge34_Node000018_Node000003"><a xlink:title=" ">
<path fill="none" stroke="#63b8ff" d="M569.62,-309.68C569.62,-301.9 569.62,-290.33 569.62,-280.28"/>
<polygon fill="#63b8ff" stroke="#63b8ff" points="573.13,-280.29 569.63,-270.29 566.13,-280.29 573.13,-280.29"/>
</a>
</g>
</g>
<!-- Node18&#45;&gt;Node5 -->
<g id="edge36_Node000018_Node000005" class="edge">
<title>Node18&#45;&gt;Node5</title>
<g id="a_edge36_Node000018_Node000005"><a xlink:title=" ">
<path fill="none" stroke="#63b8ff" d="M611.07,-311.3C613.96,-310.85 616.84,-310.41 619.62,-310 753.38,-290.5 787.85,-293.39 921.62,-274 1167.52,-238.35 1328.13,-348.62 1464.62,-141 1472.07,-129.67 1473.46,-120.78 1464.62,-110.5 1445.34,-88.04 1032.91,-36.98 873.11,-17.95"/>
<polygon fill="#63b8ff" stroke="#63b8ff" points="873.89,-14.52 863.55,-16.81 873.07,-21.47 873.89,-14.52"/>
</a>
</g>
</g>
<!-- Node18&#45;&gt;Node7 -->
<g id="edge65_Node000018_Node000007" class="edge">
<title>Node18&#45;&gt;Node7</title>
<g id="a_edge65_Node000018_Node000007"><a xlink:title=" ">
<path fill="none" stroke="#63b8ff" d="M536.42,-309.57C506.24,-301.11 460.6,-287.75 421.62,-274 361.04,-252.63 291.86,-223.44 253.1,-206.65"/>
<polygon fill="#63b8ff" stroke="#63b8ff" points="254.96,-203.64 244.4,-202.86 252.17,-210.06 254.96,-203.64"/>
</a>
</g>
</g>
<!-- Node18&#45;&gt;Node8 -->
<g id="edge67_Node000018_Node000008" class="edge">
<title>Node18&#45;&gt;Node8</title>
<g id="a_edge67_Node000018_Node000008"><a xlink:title=" ">
<path fill="none" stroke="#63b8ff" d="M553.14,-309.65C537.37,-300.93 513.03,-287.11 492.62,-274 472.91,-261.33 469.03,-256.63 449.62,-243.5 431.67,-231.36 411.05,-218.1 395.52,-208.25"/>
<polygon fill="#63b8ff" stroke="#63b8ff" points="397.73,-205.51 387.41,-203.13 393.99,-211.43 397.73,-205.51"/>
</a>
</g>
</g>
<!-- Node18&#45;&gt;Node11 -->
<g id="edge68_Node000018_Node000011" class="edge">
<title>Node18&#45;&gt;Node11</title>
<g id="a_edge68_Node000018_Node000011"><a xlink:title=" ">
<path fill="none" stroke="#63b8ff" d="M599.54,-309.64C616.59,-302.81 636.52,-291.54 646.62,-274 657.92,-254.4 647.34,-228.77 637.31,-211.7"/>
<polygon fill="#63b8ff" stroke="#63b8ff" points="640.47,-210.15 632.16,-203.58 634.57,-213.9 640.47,-210.15"/>
</a>
</g>
</g>
<!-- Node18&#45;&gt;Node16 -->
<g id="edge35_Node000018_Node000016" class="edge">
<title>Node18&#45;&gt;Node16</title>
<g id="a_edge35_Node000018_Node000016"><a xlink:title=" ">
<path fill="none" stroke="#63b8ff" d="M540.86,-309.66C516.14,-301.55 479.82,-288.66 449.62,-274 443.24,-270.9 345.58,-212.57 340.62,-207.5 304.5,-170.53 278.3,-114.58 266.17,-85.3"/>
<polygon fill="#63b8ff" stroke="#63b8ff" points="269.51,-84.21 262.53,-76.24 263.01,-86.82 269.51,-84.21"/>
</a>
</g>
</g>
<!-- Node19 -->
<g id="Node000019" class="node">
<title>Node19</title>
<g id="a_Node000019"><a xlink:href="../../d3/db8/_c_logger_throttler_8h.html" target="_top" xlink:title=" ">
<polygon fill="white" stroke="#666666" points="1580.62,-74.5 1462.62,-74.5 1462.62,-55.25 1580.62,-55.25 1580.62,-74.5"/>
<text text-anchor="middle" x="1521.62" y="-61" font-family="Helvetica,sans-Serif" font-size="10.00">core/CLoggerThrottler.h</text>
</a>
</g>
</g>
<!-- Node18&#45;&gt;Node19 -->
<g id="edge30_Node000018_Node000019" class="edge">
<title>Node18&#45;&gt;Node19</title>
<g id="a_edge30_Node000018_Node000019"><a xlink:title=" ">
<path fill="none" stroke="#63b8ff" d="M611.04,-311.05C613.94,-310.66 616.82,-310.3 619.62,-310 668.17,-304.84 1461.85,-307.22 1497.62,-274 1550.28,-225.1 1535.96,-127.72 1526.67,-85.81"/>
<polygon fill="#63b8ff" stroke="#63b8ff" points="1530.1,-85.1 1524.39,-76.18 1523.29,-86.71 1530.1,-85.1"/>
</a>
</g>
</g>
<!-- Node22 -->
<g id="Node000022" class="node">
<title>Node22</title>
<g id="a_Node000022"><a xlink:href="../../d7/dcd/_log_macros_8h.html" target="_top" xlink:title=" ">
<polygon fill="white" stroke="#666666" points="912.62,-268.38 818.62,-268.38 818.62,-249.12 912.62,-249.12 912.62,-268.38"/>
<text text-anchor="middle" x="865.62" y="-254.88" font-family="Helvetica,sans-Serif" font-size="10.00">core/LogMacros.h</text>
</a>
</g>
</g>
<!-- Node18&#45;&gt;Node22 -->
<g id="edge37_Node000018_Node000022" class="edge">
<title>Node18&#45;&gt;Node22</title>
<g id="a_edge37_Node000018_Node000022"><a xlink:title=" ">
<path fill="none" stroke="#63b8ff" d="M611.09,-310.38C662.7,-300.11 751.08,-282.53 808.93,-271.03"/>
<polygon fill="#63b8ff" stroke="#63b8ff" points="809.46,-274.49 818.58,-269.11 808.09,-267.62 809.46,-274.49"/>
</a>
</g>
</g>
<!-- Node29 -->
<g id="Node000029" class="node">
<title>Node29</title>
<g id="a_Node000029"><a xlink:title=" ">
<polygon fill="#e0e0e0" stroke="#999999" points="729.62,-135.38 671.62,-135.38 671.62,-116.12 729.62,-116.12 729.62,-135.38"/>
<text text-anchor="middle" x="700.62" y="-121.88" font-family="Helvetica,sans-Serif" font-size="10.00">functional</text>
</a>
</g>
</g>
<!-- Node18&#45;&gt;Node29 -->
<g id="edge66_Node000018_Node000029" class="edge">
<title>Node18&#45;&gt;Node29</title>
<g id="a_edge66_Node000018_Node000029"><a xlink:title=" ">
<path fill="none" stroke="#63b8ff" d="M606.09,-309.56C625.83,-302.86 649.08,-291.74 663.62,-274 694.05,-236.91 699.91,-178.13 700.76,-147.25"/>
<polygon fill="#63b8ff" stroke="#63b8ff" points="704.26,-147.42 700.86,-137.38 697.26,-147.35 704.26,-147.42"/>
</a>
</g>
</g>
<!-- Node38 -->
<g id="Node000038" class="node">
<title>Node38</title>
<g id="a_Node000038"><a xlink:title=" ">
<polygon fill="#e0e0e0" stroke="#999999" points="1680,-274 1549.25,-274 1549.25,-243.5 1680,-243.5 1680,-274"/>
<text text-anchor="start" x="1557.25" y="-260.5" font-family="Helvetica,sans-Serif" font-size="10.00">boost/log/sources/severity</text>
<text text-anchor="middle" x="1614.62" y="-249.25" font-family="Helvetica,sans-Serif" font-size="10.00">_logger.hpp</text>
</a>
</g>
</g>
<!-- Node18&#45;&gt;Node38 -->
<g id="edge64_Node000018_Node000038" class="edge">
<title>Node18&#45;&gt;Node38</title>
<g id="a_edge64_Node000018_Node000038"><a xlink:title=" ">
<path fill="none" stroke="#63b8ff" d="M611.04,-311.05C613.94,-310.65 616.82,-310.3 619.62,-310 1024.8,-267.28 1130.61,-318.27 1535.62,-274 1536.3,-273.93 1536.97,-273.85 1537.65,-273.77"/>
<polygon fill="#63b8ff" stroke="#63b8ff" points="1537.8,-277.28 1547.27,-272.53 1536.91,-270.34 1537.8,-277.28"/>
</a>
</g>
</g>
<!-- Node19&#45;&gt;Node5 -->
<g id="edge31_Node000019_Node000005" class="edge">
<title>Node19&#45;&gt;Node5</title>
<g id="a_edge31_Node000019_Node000005"><a xlink:title=" ">
<path fill="none" stroke="#63b8ff" d="M1462.31,-56.15C1459.37,-55.83 1456.47,-55.53 1453.62,-55.25 1241.25,-34.43 988.47,-19.87 873.34,-13.79"/>
<polygon fill="#63b8ff" stroke="#63b8ff" points="873.65,-10.3 863.48,-13.27 873.28,-17.29 873.65,-10.3"/>
</a>
</g>
</g>
<!-- Node20 -->
<g id="Node000020" class="node">
<title>Node20</title>
<g id="a_Node000020"><a xlink:title=" ">
<polygon fill="#e0e0e0" stroke="#999999" points="1484.25,-19.25 1439,-19.25 1439,0 1484.25,0 1484.25,-19.25"/>
<text text-anchor="middle" x="1461.62" y="-5.75" font-family="Helvetica,sans-Serif" font-size="10.00">cstdint</text>
</a>
</g>
</g>
<!-- Node19&#45;&gt;Node20 -->
<g id="edge32_Node000019_Node000020" class="edge">
<title>Node19&#45;&gt;Node20</title>
<g id="a_edge32_Node000019_Node000020"><a xlink:title=" ">
<path fill="none" stroke="#63b8ff" d="M1511.45,-54.84C1502.86,-47.22 1490.36,-36.12 1480.02,-26.95"/>
<polygon fill="#63b8ff" stroke="#63b8ff" points="1482.59,-24.55 1472.78,-20.53 1477.94,-29.79 1482.59,-24.55"/>
</a>
</g>
</g>
<!-- Node21 -->
<g id="Node000021" class="node">
<title>Node21</title>
<g id="a_Node000021"><a xlink:title=" ">
<polygon fill="#e0e0e0" stroke="#999999" points="1541.25,-19.25 1502,-19.25 1502,0 1541.25,0 1541.25,-19.25"/>
<text text-anchor="middle" x="1521.62" y="-5.75" font-family="Helvetica,sans-Serif" font-size="10.00">utility</text>
</a>
</g>
</g>
<!-- Node19&#45;&gt;Node21 -->
<g id="edge33_Node000019_Node000021" class="edge">
<title>Node19&#45;&gt;Node21</title>
<g id="a_edge33_Node000019_Node000021"><a xlink:title=" ">
<path fill="none" stroke="#63b8ff" d="M1521.62,-55.08C1521.62,-48.57 1521.62,-39.42 1521.62,-31.12"/>
<polygon fill="#63b8ff" stroke="#63b8ff" points="1525.13,-31.12 1521.63,-21.12 1518.13,-31.12 1525.13,-31.12"/>
</a>
</g>
</g>
<!-- Node22&#45;&gt;Node10 -->
<g id="edge63_Node000022_Node000010" class="edge">
<title>Node22&#45;&gt;Node10</title>
<g id="a_edge63_Node000022_Node000010"><a xlink:title=" ">
<path fill="none" stroke="#63b8ff" d="M841.35,-248.78C777.75,-225.1 609.96,-161.28 592.62,-141 579.53,-125.68 575.26,-102.56 573.96,-86.02"/>
<polygon fill="#63b8ff" stroke="#63b8ff" points="577.47,-86.23 573.52,-76.4 570.48,-86.55 577.47,-86.23"/>
</a>
</g>
</g>
<!-- Node23 -->
<g id="Node000023" class="node">
<title>Node23</title>
<g id="a_Node000023"><a xlink:href="../../d2/dae/_c_container_printer_8h.html" target="_top" xlink:title=" ">
<polygon fill="white" stroke="#666666" points="927.25,-201.88 804,-201.88 804,-182.62 927.25,-182.62 927.25,-201.88"/>
<text text-anchor="middle" x="865.62" y="-188.38" font-family="Helvetica,sans-Serif" font-size="10.00">core/CContainerPrinter.h</text>
</a>
</g>
</g>
<!-- Node22&#45;&gt;Node23 -->
<g id="edge38_Node000022_Node000023" class="edge">
<title>Node22&#45;&gt;Node23</title>
<g id="a_edge38_Node000022_Node000023"><a xlink:title=" ">
<path fill="none" stroke="#63b8ff" d="M865.62,-248.78C865.62,-239.73 865.62,-225.45 865.62,-213.63"/>
<polygon fill="#63b8ff" stroke="#63b8ff" points="869.13,-213.66 865.63,-203.66 862.13,-213.66 869.13,-213.66"/>
</a>
</g>
</g>
<!-- Node33 -->
<g id="Node000033" class="node">
<title>Node33</title>
<g id="a_Node000033"><a xlink:title=" ">
<polygon fill="#e0e0e0" stroke="#999999" points="799.25,-135.38 748,-135.38 748,-116.12 799.25,-116.12 799.25,-135.38"/>
<text text-anchor="middle" x="773.62" y="-121.88" font-family="Helvetica,sans-Serif" font-size="10.00">sstream</text>
</a>
</g>
</g>
<!-- Node22&#45;&gt;Node33 -->
<g id="edge62_Node000022_Node000033" class="edge">
<title>Node22&#45;&gt;Node33</title>
<g id="a_edge62_Node000022_Node000033"><a xlink:title=" ">
<path fill="none" stroke="#63b8ff" d="M846.13,-248.79C829.96,-240.37 807.59,-226.26 794.62,-207.5 782.16,-189.46 777.1,-164.53 775.04,-147.16"/>
<polygon fill="#63b8ff" stroke="#63b8ff" points="778.53,-146.96 774.13,-137.33 771.56,-147.61 778.53,-146.96"/>
</a>
</g>
</g>
<!-- Node35 -->
<g id="Node000035" class="node">
<title>Node35</title>
<g id="a_Node000035"><a xlink:title=" ">
<polygon fill="#e0e0e0" stroke="#999999" points="1143.38,-201.88 1011.88,-201.88 1011.88,-182.62 1143.38,-182.62 1143.38,-201.88"/>
<text text-anchor="middle" x="1077.62" y="-188.38" font-family="Helvetica,sans-Serif" font-size="10.00">boost/current_function.hpp</text>
</a>
</g>
</g>
<!-- Node22&#45;&gt;Node35 -->
<g id="edge59_Node000022_Node000035" class="edge">
<title>Node22&#45;&gt;Node35</title>
<g id="a_edge59_Node000022_Node000035"><a xlink:title=" ">
<path fill="none" stroke="#63b8ff" d="M895.55,-248.65C932.56,-237.39 995.72,-218.17 1037.07,-205.59"/>
<polygon fill="#63b8ff" stroke="#63b8ff" points="1037.86,-209.01 1046.4,-202.75 1035.82,-202.31 1037.86,-209.01"/>
</a>
</g>
</g>
<!-- Node36 -->
<g id="Node000036" class="node">
<title>Node36</title>
<g id="a_Node000036"><a xlink:title=" ">
<polygon fill="#e0e0e0" stroke="#999999" points="1301.88,-207.5 1161.38,-207.5 1161.38,-177 1301.88,-177 1301.88,-207.5"/>
<text text-anchor="start" x="1169.38" y="-194" font-family="Helvetica,sans-Serif" font-size="10.00">boost/log/utility/manipulators</text>
<text text-anchor="middle" x="1231.62" y="-182.75" font-family="Helvetica,sans-Serif" font-size="10.00">/add_value.hpp</text>
</a>
</g>
</g>
<!-- Node22&#45;&gt;Node36 -->
<g id="edge60_Node000022_Node000036" class="edge">
<title>Node22&#45;&gt;Node36</title>
<g id="a_edge60_Node000022_Node000036"><a xlink:title=" ">
<path fill="none" stroke="#63b8ff" d="M913.12,-249.51C967.77,-240.01 1060.53,-223.84 1149.84,-207.99"/>
<polygon fill="#63b8ff" stroke="#63b8ff" points="1150.27,-211.47 1159.5,-206.27 1149.04,-204.58 1150.27,-211.47"/>
</a>
</g>
</g>
<!-- Node37 -->
<g id="Node000037" class="node">
<title>Node37</title>
<g id="a_Node000037"><a xlink:title=" ">
<polygon fill="#e0e0e0" stroke="#999999" points="993.75,-201.88 945.5,-201.88 945.5,-182.62 993.75,-182.62 993.75,-201.88"/>
<text text-anchor="middle" x="969.62" y="-188.38" font-family="Helvetica,sans-Serif" font-size="10.00">cstddef</text>
</a>
</g>
</g>
<!-- Node22&#45;&gt;Node37 -->
<g id="edge61_Node000022_Node000037" class="edge">
<title>Node22&#45;&gt;Node37</title>
<g id="a_edge61_Node000022_Node000037"><a xlink:title=" ">
<path fill="none" stroke="#63b8ff" d="M880.09,-248.78C896.91,-238.35 924.96,-220.95 945.19,-208.4"/>
<polygon fill="#63b8ff" stroke="#63b8ff" points="947.01,-211.39 953.67,-203.15 943.32,-205.44 947.01,-211.39"/>
</a>
</g>
</g>
<!-- Node23&#45;&gt;Node4 -->
<g id="edge39_Node000023_Node000004" class="edge">
<title>Node23&#45;&gt;Node4</title>
<g id="a_edge39_Node000023_Node000004"><a xlink:title=" ">
<path fill="none" stroke="#63b8ff" d="M863.97,-182.43C860.9,-167.21 853.54,-135.28 841.62,-110.5 837.14,-101.17 830.81,-91.65 825.04,-83.8"/>
<polygon fill="#63b8ff" stroke="#63b8ff" points="827.99,-81.91 819.12,-76.11 822.44,-86.17 827.99,-81.91"/>
</a>
</g>
</g>
<!-- Node23&#45;&gt;Node5 -->
<g id="edge49_Node000023_Node000005" class="edge">
<title>Node23&#45;&gt;Node5</title>
<g id="a_edge49_Node000023_Node000005"><a xlink:title=" ">
<path fill="none" stroke="#63b8ff" d="M870.45,-182.27C882.02,-159.42 908.66,-97.81 884.62,-55.25 876.81,-41.4 862.78,-31.37 849.02,-24.37"/>
<polygon fill="#63b8ff" stroke="#63b8ff" points="850.58,-21.24 840.04,-20.23 847.65,-27.6 850.58,-21.24"/>
</a>
</g>
</g>
<!-- Node23&#45;&gt;Node9 -->
<g id="edge53_Node000023_Node000009" class="edge">
<title>Node23&#45;&gt;Node9</title>
<g id="a_edge53_Node000023_Node000009"><a xlink:title=" ">
<path fill="none" stroke="#63b8ff" d="M821.15,-182.18C779.68,-173.26 716.31,-158.47 662.62,-141 661.47,-140.62 660.3,-140.23 659.12,-139.82"/>
<polygon fill="#63b8ff" stroke="#63b8ff" points="660.55,-136.62 649.96,-136.37 658.09,-143.17 660.55,-136.62"/>
</a>
</g>
</g>
<!-- Node23&#45;&gt;Node10 -->
<g id="edge57_Node000023_Node000010" class="edge">
<title>Node23&#45;&gt;Node10</title>
<g id="a_edge57_Node000023_Node000010"><a xlink:title=" ">
<path fill="none" stroke="#63b8ff" d="M862.03,-182.24C854.73,-165.22 836.47,-128.42 808.62,-110.5 775.36,-89.09 661.45,-74.83 605.35,-68.94"/>
<polygon fill="#63b8ff" stroke="#63b8ff" points="605.8,-65.47 595.5,-67.93 605.09,-72.43 605.8,-65.47"/>
</a>
</g>
</g>
<!-- Node24 -->
<g id="Node000024" class="node">
<title>Node24</title>
<g id="a_Node000024"><a xlink:href="../../d9/d88/_c_string_utils_8h.html" target="_top" xlink:title=" ">
<polygon fill="white" stroke="#666666" points="1031.25,-135.38 932,-135.38 932,-116.12 1031.25,-116.12 1031.25,-135.38"/>
<text text-anchor="middle" x="981.62" y="-121.88" font-family="Helvetica,sans-Serif" font-size="10.00">core/CStringUtils.h</text>
</a>
</g>
</g>
<!-- Node23&#45;&gt;Node24 -->
<g id="edge40_Node000023_Node000024" class="edge">
<title>Node23&#45;&gt;Node24</title>
<g id="a_edge40_Node000023_Node000024"><a xlink:title=" ">
<path fill="none" stroke="#63b8ff" d="M881.75,-182.28C900.78,-171.7 932.67,-153.97 955.3,-141.39"/>
<polygon fill="#63b8ff" stroke="#63b8ff" points="956.9,-144.5 963.94,-136.59 953.5,-138.39 956.9,-144.5"/>
</a>
</g>
</g>
<!-- Node28 -->
<g id="Node000028" class="node">
<title>Node28</title>
<g id="a_Node000028"><a xlink:title=" ">
<polygon fill="#e0e0e0" stroke="#999999" points="1391.25,-141 1268,-141 1268,-110.5 1391.25,-110.5 1391.25,-141"/>
<text text-anchor="start" x="1276" y="-127.5" font-family="Helvetica,sans-Serif" font-size="10.00">boost/log/sources/record</text>
<text text-anchor="middle" x="1329.62" y="-116.25" font-family="Helvetica,sans-Serif" font-size="10.00">_ostream.hpp</text>
</a>
</g>
</g>
<!-- Node23&#45;&gt;Node28 -->
<g id="edge50_Node000023_Node000028" class="edge">
<title>Node23&#45;&gt;Node28</title>
<g id="a_edge50_Node000023_Node000028"><a xlink:title=" ">
<path fill="none" stroke="#63b8ff" d="M907.94,-182.13C917.36,-180.28 927.31,-178.45 936.62,-177 1075.3,-155.37 1114.37,-162.78 1256.41,-141.25"/>
<polygon fill="#63b8ff" stroke="#63b8ff" points="1256.88,-144.71 1266.23,-139.73 1255.81,-137.8 1256.88,-144.71"/>
</a>
</g>
</g>
<!-- Node23&#45;&gt;Node29 -->
<g id="edge51_Node000023_Node000029" class="edge">
<title>Node23&#45;&gt;Node29</title>
<g id="a_edge51_Node000023_Node000029"><a xlink:title=" ">
<path fill="none" stroke="#63b8ff" d="M842.33,-182.15C814.2,-171.15 766.66,-152.56 734.48,-139.99"/>
<polygon fill="#63b8ff" stroke="#63b8ff" points="735.79,-136.74 725.21,-136.36 733.25,-143.26 735.79,-136.74"/>
</a>
</g>
</g>
<!-- Node30 -->
<g id="Node000030" class="node">
<title>Node30</title>
<g id="a_Node000030"><a xlink:title=" ">
<polygon fill="#e0e0e0" stroke="#999999" points="1455.62,-135.38 1409.62,-135.38 1409.62,-116.12 1455.62,-116.12 1455.62,-135.38"/>
<text text-anchor="middle" x="1432.62" y="-121.88" font-family="Helvetica,sans-Serif" font-size="10.00">iterator</text>
</a>
</g>
</g>
<!-- Node23&#45;&gt;Node30 -->
<g id="edge52_Node000023_Node000030" class="edge">
<title>Node23&#45;&gt;Node30</title>
<g id="a_edge52_Node000023_Node000030"><a xlink:title=" ">
<path fill="none" stroke="#63b8ff" d="M906.41,-182.19C916.26,-180.24 926.79,-178.36 936.62,-177 1141.51,-148.6 1200.12,-191.81 1400.62,-141 1401.98,-140.66 1403.36,-140.26 1404.73,-139.82"/>
<polygon fill="#63b8ff" stroke="#63b8ff" points="1405.57,-143.24 1413.66,-136.39 1403.07,-136.71 1405.57,-143.24"/>
</a>
</g>
</g>
<!-- Node31 -->
<g id="Node000031" class="node">
<title>Node31</title>
<g id="a_Node000031"><a xlink:title=" ">
<polygon fill="#e0e0e0" stroke="#999999" points="1099.5,-135.38 1049.75,-135.38 1049.75,-116.12 1099.5,-116.12 1099.5,-135.38"/>
<text text-anchor="middle" x="1074.62" y="-121.88" font-family="Helvetica,sans-Serif" font-size="10.00">optional</text>
</a>
</g>
</g>
<!-- Node23&#45;&gt;Node31 -->
<g id="edge54_Node000023_Node000031" class="edge">
<title>Node23&#45;&gt;Node31</title>
<g id="a_edge54_Node000023_Node000031"><a xlink:title=" ">
<path fill="none" stroke="#63b8ff" d="M901.88,-182.17C937.54,-172.93 993.36,-157.63 1040.62,-141 1041.6,-140.66 1042.59,-140.3 1043.59,-139.93"/>
<polygon fill="#63b8ff" stroke="#63b8ff" points="1044.84,-143.2 1052.87,-136.29 1042.28,-136.68 1044.84,-143.2"/>
</a>
</g>
</g>
<!-- Node32 -->
<g id="Node000032" class="node">
<title>Node32</title>
<g id="a_Node000032"><a xlink:title=" ">
<polygon fill="#e0e0e0" stroke="#999999" points="1169.25,-135.38 1118,-135.38 1118,-116.12 1169.25,-116.12 1169.25,-135.38"/>
<text text-anchor="middle" x="1143.62" y="-121.88" font-family="Helvetica,sans-Serif" font-size="10.00">ostream</text>
</a>
</g>
</g>
<!-- Node23&#45;&gt;Node32 -->
<g id="edge55_Node000023_Node000032" class="edge">
<title>Node23&#45;&gt;Node32</title>
<g id="a_edge55_Node000023_Node000032"><a xlink:title=" ">
<path fill="none" stroke="#63b8ff" d="M910.78,-182.13C978.42,-168.45 1099.17,-143.88 1108.62,-141 1109.97,-140.59 1111.33,-140.15 1112.7,-139.69"/>
<polygon fill="#63b8ff" stroke="#63b8ff" points="1113.54,-143.11 1121.7,-136.35 1111.11,-136.55 1113.54,-143.11"/>
</a>
</g>
</g>
<!-- Node23&#45;&gt;Node33 -->
<g id="edge56_Node000023_Node000033" class="edge">
<title>Node23&#45;&gt;Node33</title>
<g id="a_edge56_Node000023_Node000033"><a xlink:title=" ">
<path fill="none" stroke="#63b8ff" d="M852.83,-182.28C838.15,-171.99 813.81,-154.93 795.98,-142.43"/>
<polygon fill="#63b8ff" stroke="#63b8ff" points="798.04,-139.59 787.84,-136.72 794.02,-145.33 798.04,-139.59"/>
</a>
</g>
</g>
<!-- Node34 -->
<g id="Node000034" class="node">
<title>Node34</title>
<g id="a_Node000034"><a xlink:title=" ">
<polygon fill="#e0e0e0" stroke="#999999" points="1249.5,-135.38 1187.75,-135.38 1187.75,-116.12 1249.5,-116.12 1249.5,-135.38"/>
<text text-anchor="middle" x="1218.62" y="-121.88" font-family="Helvetica,sans-Serif" font-size="10.00">type_traits</text>
</a>
</g>
</g>
<!-- Node23&#45;&gt;Node34 -->
<g id="edge58_Node000023_Node000034" class="edge">
<title>Node23&#45;&gt;Node34</title>
<g id="a_edge58_Node000023_Node000034"><a xlink:title=" ">
<path fill="none" stroke="#63b8ff" d="M909.12,-182.16C918.19,-180.37 927.71,-178.56 936.62,-177 1043.74,-158.3 1073.13,-167.37 1178.62,-141 1180.63,-140.5 1182.68,-139.94 1184.73,-139.33"/>
<polygon fill="#63b8ff" stroke="#63b8ff" points="1185.72,-142.69 1194.15,-136.28 1183.56,-136.03 1185.72,-142.69"/>
</a>
</g>
</g>
<!-- Node24&#45;&gt;Node4 -->
<g id="edge45_Node000024_Node000004" class="edge">
<title>Node24&#45;&gt;Node4</title>
<g id="a_edge45_Node000024_Node000004"><a xlink:title=" ">
<path fill="none" stroke="#63b8ff" d="M955.28,-115.68C926.54,-105.78 880.29,-89.86 847.85,-78.69"/>
<polygon fill="#63b8ff" stroke="#63b8ff" points="849.02,-75.39 838.43,-75.45 846.75,-82.01 849.02,-75.39"/>
</a>
</g>
</g>
<!-- Node24&#45;&gt;Node5 -->
<g id="edge46_Node000024_Node000005" class="edge">
<title>Node24&#45;&gt;Node5</title>
<g id="a_edge46_Node000024_Node000005"><a xlink:title=" ">
<path fill="none" stroke="#63b8ff" d="M975.49,-115.93C965.08,-101.51 942.62,-72.75 917.62,-55.25 897.92,-41.45 873.29,-30.81 852.63,-23.39"/>
<polygon fill="#63b8ff" stroke="#63b8ff" points="853.95,-20.14 843.36,-20.19 851.67,-26.76 853.95,-20.14"/>
</a>
</g>
</g>
<!-- Node24&#45;&gt;Node10 -->
<g id="edge47_Node000024_Node000010" class="edge">
<title>Node24&#45;&gt;Node10</title>
<g id="a_edge47_Node000024_Node000010"><a xlink:title=" ">
<path fill="none" stroke="#63b8ff" d="M931.6,-117.53C846.31,-105.22 675.18,-80.53 604.87,-70.38"/>
<polygon fill="#63b8ff" stroke="#63b8ff" points="605.61,-66.95 595.22,-68.99 604.61,-73.88 605.61,-66.95"/>
</a>
</g>
</g>
<!-- Node25 -->
<g id="Node000025" class="node">
<title>Node25</title>
<g id="a_Node000025"><a xlink:href="../../d6/dbf/_c_i_e_e_e754_8h.html" target="_top" xlink:title=" ">
<polygon fill="white" stroke="#666666" points="1444.88,-74.5 1352.38,-74.5 1352.38,-55.25 1444.88,-55.25 1444.88,-74.5"/>
<text text-anchor="middle" x="1398.62" y="-61" font-family="Helvetica,sans-Serif" font-size="10.00">core/CIEEE754.h</text>
</a>
</g>
</g>
<!-- Node24&#45;&gt;Node25 -->
<g id="edge41_Node000024_Node000025" class="edge">
<title>Node24&#45;&gt;Node25</title>
<g id="a_edge41_Node000024_Node000025"><a xlink:title=" ">
<path fill="none" stroke="#63b8ff" d="M1016.43,-115.65C1024.35,-113.78 1032.75,-111.94 1040.62,-110.5 1145.69,-91.33 1269.61,-77.9 1340.66,-71.07"/>
<polygon fill="#63b8ff" stroke="#63b8ff" points="1340.9,-74.56 1350.52,-70.13 1340.23,-67.59 1340.9,-74.56"/>
</a>
</g>
</g>
<!-- Node27 -->
<g id="Node000027" class="node">
<title>Node27</title>
<g id="a_Node000027"><a xlink:title=" ">
<polygon fill="#e0e0e0" stroke="#999999" points="1013.12,-74.5 970.12,-74.5 970.12,-55.25 1013.12,-55.25 1013.12,-74.5"/>
<text text-anchor="middle" x="991.62" y="-61" font-family="Helvetica,sans-Serif" font-size="10.00">vector</text>
</a>
</g>
</g>
<!-- Node24&#45;&gt;Node27 -->
<g id="edge48_Node000024_Node000027" class="edge">
<title>Node24&#45;&gt;Node27</title>
<g id="a_edge48_Node000024_Node000027"><a xlink:title=" ">
<path fill="none" stroke="#63b8ff" d="M983.14,-115.81C984.48,-107.94 986.47,-96.2 988.19,-86.07"/>
<polygon fill="#63b8ff" stroke="#63b8ff" points="991.61,-86.84 989.84,-76.39 984.71,-85.67 991.61,-86.84"/>
</a>
</g>
</g>
<!-- Node25&#45;&gt;Node5 -->
<g id="edge42_Node000025_Node000005" class="edge">
<title>Node25&#45;&gt;Node5</title>
<g id="a_edge42_Node000025_Node000005"><a xlink:title=" ">
<path fill="none" stroke="#63b8ff" d="M1352.15,-56.92C1347.58,-56.32 1343.02,-55.75 1338.62,-55.25 1170.92,-36.13 972.37,-21.49 873.35,-14.73"/>
<polygon fill="#63b8ff" stroke="#63b8ff" points="873.79,-11.26 863.57,-14.07 873.31,-18.24 873.79,-11.26"/>
</a>
</g>
</g>
<!-- Node25&#45;&gt;Node20 -->
<g id="edge43_Node000025_Node000020" class="edge">
<title>Node25&#45;&gt;Node20</title>
<g id="a_edge43_Node000025_Node000020"><a xlink:title=" ">
<path fill="none" stroke="#63b8ff" d="M1409.31,-54.84C1418.33,-47.22 1431.46,-36.12 1442.31,-26.95"/>
<polygon fill="#63b8ff" stroke="#63b8ff" points="1444.56,-29.63 1449.94,-20.5 1440.04,-24.28 1444.56,-29.63"/>
</a>
</g>
</g>
<!-- Node26 -->
<g id="Node000026" class="node">
<title>Node26</title>
<g id="a_Node000026"><a xlink:title=" ">
<polygon fill="#e0e0e0" stroke="#999999" points="1421.25,-19.25 1376,-19.25 1376,0 1421.25,0 1421.25,-19.25"/>
<text text-anchor="middle" x="1398.62" y="-5.75" font-family="Helvetica,sans-Serif" font-size="10.00">cstring</text>
</a>
</g>
</g>
<!-- Node25&#45;&gt;Node26 -->
<g id="edge44_Node000025_Node000026" class="edge">
<title>Node25&#45;&gt;Node26</title>
<g id="a_edge44_Node000025_Node000026"><a xlink:title=" ">
<path fill="none" stroke="#63b8ff" d="M1398.62,-55.08C1398.62,-48.57 1398.62,-39.42 1398.62,-31.12"/>
<polygon fill="#63b8ff" stroke="#63b8ff" points="1402.13,-31.12 1398.63,-21.12 1395.13,-31.12 1402.13,-31.12"/>
</a>
</g>
</g>
</g>
</svg>
