<?xml version="1.0" encoding="UTF-8" standalone="no"?>
<!DOCTYPE svg PUBLIC "-//W3C//DTD SVG 1.1//EN"
 "http://www.w3.org/Graphics/SVG/1.1/DTD/svg11.dtd">
<!-- Generated by graphviz version 10.0.1 (20240210.2158)
 -->
<!-- Title: ml::core::CFlatPrefixTree::build Pages: 1 -->
<svg width="537pt" height="106pt"
 viewBox="0.00 0.00 537.00 105.50" xmlns="http://www.w3.org/2000/svg" xmlns:xlink="http://www.w3.org/1999/xlink">
<g id="graph0" class="graph" transform="scale(1 1) rotate(0) translate(4 101.5)">
<title>ml::core::CFlatPrefixTree::build</title>
<!-- Node1 -->
<g id="Node000001" class="node">
<title>Node1</title>
<g id="a_Node000001"><a xlink:title=" ">
<polygon fill="#999999" stroke="#666666" points="126.25,-54.5 0,-54.5 0,-24 126.25,-24 126.25,-54.5"/>
<text text-anchor="start" x="8" y="-41" font-family="Helvetica,sans-Serif" font-size="10.00">ml::core::CFlatPrefixTree</text>
<text text-anchor="middle" x="63.12" y="-29.75" font-family="Helvetica,sans-Serif" font-size="10.00">::build</text>
</a>
</g>
</g>
<!-- Node2 -->
<g id="Node000002" class="node">
<title>Node2</title>
<g id="a_Node000002"><a xlink:href="../../d5/d9a/classml_1_1core_1_1_c_flat_prefix_tree.html#a3c93c774f1385bee9d579c358ea7462b" target="_top" xlink:title="The recursive building helper.">
<polygon fill="white" stroke="#666666" points="288.5,-79.5 162.25,-79.5 162.25,-49 288.5,-49 288.5,-79.5"/>
<text text-anchor="start" x="170.25" y="-66" font-family="Helvetica,sans-Serif" font-size="10.00">ml::core::CFlatPrefixTree</text>
<text text-anchor="middle" x="225.38" y="-54.75" font-family="Helvetica,sans-Serif" font-size="10.00">::buildRecursively</text>
</a>
</g>
</g>
<!-- Node1&#45;&gt;Node2 -->
<g id="edge1_Node000001_Node000002" class="edge">
<title>Node1&#45;&gt;Node2</title>
<g id="a_edge1_Node000001_Node000002"><a xlink:title=" ">
<path fill="none" stroke="#63b8ff" d="M126.54,-48.99C134.43,-50.22 142.55,-51.48 150.59,-52.74"/>
<polygon fill="#63b8ff" stroke="#63b8ff" points="149.95,-56.18 160.37,-54.26 151.03,-49.27 149.95,-56.18"/>
</a>
</g>
</g>
<!-- Node5 -->
<g id="Node000005" class="node">
<title>Node5</title>
<g id="a_Node000005"><a xlink:href="../../d5/d9a/classml_1_1core_1_1_c_flat_prefix_tree.html#ad06d73c85fb99d9a9888376159c88fd4" target="_top" xlink:title="Pretty&#45;prints the tree.">
<polygon fill="white" stroke="#666666" points="288.5,-30.5 162.25,-30.5 162.25,0 288.5,0 288.5,-30.5"/>
<text text-anchor="start" x="170.25" y="-17" font-family="Helvetica,sans-Serif" font-size="10.00">ml::core::CFlatPrefixTree</text>
<text text-anchor="middle" x="225.38" y="-5.75" font-family="Helvetica,sans-Serif" font-size="10.00">::print</text>
</a>
</g>
</g>
<!-- Node1&#45;&gt;Node5 -->
<g id="edge5_Node000001_Node000005" class="edge">
<title>Node1&#45;&gt;Node5</title>
<g id="a_edge5_Node000001_Node000005"><a xlink:title=" ">
<path fill="none" stroke="#63b8ff" d="M126.54,-29.9C134.43,-28.72 142.55,-27.5 150.59,-26.3"/>
<polygon fill="#63b8ff" stroke="#63b8ff" points="151,-29.78 160.37,-24.84 149.96,-22.86 151,-29.78"/>
</a>
</g>
</g>
<!-- Node2&#45;&gt;Node2 -->
<g id="edge2_Node000002_Node000002" class="edge">
<title>Node2&#45;&gt;Node2</title>
<g id="a_edge2_Node000002_Node000002"><a xlink:title=" ">
<path fill="none" stroke="#63b8ff" d="M196.62,-79.99C190.76,-89.06 200.34,-97.5 225.38,-97.5 239.07,-97.5 248.14,-94.97 252.58,-91.2"/>
<polygon fill="#63b8ff" stroke="#63b8ff" points="256.03,-91.87 253.92,-81.49 249.09,-90.92 256.03,-91.87"/>
</a>
</g>
</g>
<!-- Node3 -->
<g id="Node000003" class="node">
<title>Node3</title>
<g id="a_Node000003"><a xlink:href="../../d5/d9a/classml_1_1core_1_1_c_flat_prefix_tree.html#ad118d5a20419d6b6f4739b353fe9ba34" target="_top" xlink:title=" ">
<polygon fill="white" stroke="#666666" points="458.25,-79.5 324.5,-79.5 324.5,-49 458.25,-49 458.25,-79.5"/>
<text text-anchor="start" x="332.5" y="-66" font-family="Helvetica,sans-Serif" font-size="10.00">ml::core::CFlatPrefixTree</text>
<text text-anchor="middle" x="391.38" y="-54.75" font-family="Helvetica,sans-Serif" font-size="10.00">::extractDistinctCharacters</text>
</a>
</g>
</g>
<!-- Node2&#45;&gt;Node3 -->
<g id="edge3_Node000002_Node000003" class="edge">
<title>Node2&#45;&gt;Node3</title>
<g id="a_edge3_Node000002_Node000003"><a xlink:title=" ">
<path fill="none" stroke="#63b8ff" d="M288.84,-64.25C296.72,-64.25 304.85,-64.25 312.92,-64.25"/>
<polygon fill="#63b8ff" stroke="#63b8ff" points="312.75,-67.75 322.75,-64.25 312.75,-60.75 312.75,-67.75"/>
</a>
</g>
</g>
<!-- Node4 -->
<g id="Node000004" class="node">
<title>Node4</title>
<g id="a_Node000004"><a xlink:href="../../d3/d2e/private_8h.html#a1c6de65cc31c36fe2ede0d438531d327" target="_top" xlink:title=" ">
<polygon fill="white" stroke="#666666" points="529,-48.88 494.25,-48.88 494.25,-29.62 529,-29.62 529,-48.88"/>
<text text-anchor="middle" x="511.62" y="-35.38" font-family="Helvetica,sans-Serif" font-size="10.00">type</text>
</a>
</g>
</g>
<!-- Node3&#45;&gt;Node4 -->
<g id="edge4_Node000003_Node000004" class="edge">
<title>Node3&#45;&gt;Node4</title>
<g id="a_edge4_Node000003_Node000004"><a xlink:title=" ">
<path fill="none" stroke="#63b8ff" d="M458.41,-50.29C466.92,-48.49 475.24,-46.73 482.64,-45.17"/>
<polygon fill="#63b8ff" stroke="#63b8ff" points="483.22,-48.62 492.28,-43.13 481.77,-41.77 483.22,-48.62"/>
</a>
</g>
</g>
<!-- Node6 -->
<g id="Node000006" class="node">
<title>Node6</title>
<g id="a_Node000006"><a xlink:href="../../d1/dfa/classml_1_1core_1_1_c_string_utils.html#a0309dd25326b7d77c70fe5e6949b9e71" target="_top" xlink:title="Convert a type to a string.">
<polygon fill="white" stroke="#666666" points="446.62,-30.5 336.12,-30.5 336.12,0 446.62,0 446.62,-30.5"/>
<text text-anchor="start" x="344.12" y="-17" font-family="Helvetica,sans-Serif" font-size="10.00">ml::core::CStringUtils</text>
<text text-anchor="middle" x="391.38" y="-5.75" font-family="Helvetica,sans-Serif" font-size="10.00">::typeToString</text>
</a>
</g>
</g>
<!-- Node5&#45;&gt;Node6 -->
<g id="edge6_Node000005_Node000006" class="edge">
<title>Node5&#45;&gt;Node6</title>
<g id="a_edge6_Node000005_Node000006"><a xlink:title=" ">
<path fill="none" stroke="#63b8ff" d="M288.84,-15.25C300.57,-15.25 312.87,-15.25 324.7,-15.25"/>
<polygon fill="#63b8ff" stroke="#63b8ff" points="324.34,-18.75 334.34,-15.25 324.34,-11.75 324.34,-18.75"/>
</a>
</g>
</g>
<!-- Node6&#45;&gt;Node4 -->
<g id="edge7_Node000006_Node000004" class="edge">
<title>Node6&#45;&gt;Node4</title>
<g id="a_edge7_Node000006_Node000004"><a xlink:title=" ">
<path fill="none" stroke="#63b8ff" d="M447,-26.34C459.4,-28.85 472.06,-31.42 482.8,-33.6"/>
<polygon fill="#63b8ff" stroke="#63b8ff" points="481.99,-37.01 492.49,-35.57 483.39,-30.15 481.99,-37.01"/>
</a>
</g>
</g>
</g>
</svg>
