<?xml version="1.0" encoding="UTF-8" standalone="no"?>
<!DOCTYPE svg PUBLIC "-//W3C//DTD SVG 1.1//EN"
 "http://www.w3.org/Graphics/SVG/1.1/DTD/svg11.dtd">
<!-- Generated by graphviz version 10.0.1 (20240210.2158)
 -->
<!-- Title: ml::core::CFlatPrefixTree::clear Pages: 1 -->
<!--zoomable 656 -->

<svg id="main" version="1.1" xmlns="http://www.w3.org/2000/svg" xmlns:xlink="http://www.w3.org/1999/xlink" xml:space="preserve" onload="init(evt)">
<style type="text/css"><![CDATA[
.node, .edge {opacity: 0.7;}
.node.selected, .edge.selected {opacity: 1;}
.edge:hover path { stroke: red; }
.edge:hover polygon { stroke: red; fill: red; }
]]></style>

<defs>
  <circle id="rim" cx="0" cy="0" r="7"/>
  <circle id="rim2" cx="0" cy="0" r="3.5"/>
  <g id="zoomPlus">
    <use xlink:href="#rim" fill="#404040"><set attributeName="fill" to="#808080" begin="zoomplus.mouseover" end="zoomplus.mouseout"/></use>
    <path d="M-4,0h8M0,-4v8" fill="none" stroke="white" stroke-width="1.5" pointer-events="none"/>
  </g>
  <g id="zoomMin">
    <use xlink:href="#rim" fill="#404040"><set attributeName="fill" to="#808080" begin="zoomminus.mouseover" end="zoomminus.mouseout"/></use>
    <path d="M-4,0h8" fill="none" stroke="white" stroke-width="1.5" pointer-events="none"/>
  </g>
  <g id="arrowUp" transform="translate(30 24)">
    <use xlink:href="#rim"/>
    <path pointer-events="none" fill="none" stroke="white" stroke-width="1.5" d="M0,-3.0v7 M-2.5,-0.5L0,-3.0L2.5,-0.5"/>
  </g>
  <g id="arrowRight" transform="rotate(90) translate(36 -43)">
    <use xlink:href="#rim"/>
    <path pointer-events="none" fill="none" stroke="white" stroke-width="1.5" d="M0,-3.0v7 M-2.5,-0.5L0,-3.0L2.5,-0.5"/>
  </g>
  <g id="arrowDown" transform="rotate(180) translate(-30 -48)">
    <use xlink:href="#rim"/>
    <path pointer-events="none" fill="none" stroke="white" stroke-width="1.5" d="M0,-3.0v7 M-2.5,-0.5L0,-3.0L2.5,-0.5"/>
  </g>
  <g id="arrowLeft" transform="rotate(270) translate(-36 17)">
    <use xlink:href="#rim"/>
    <path pointer-events="none" fill="none" stroke="white" stroke-width="1.5" d="M0,-3.0v7 M-2.5,-0.5L0,-3.0L2.5,-0.5"/>
  </g>
  <g id="resetDef">
    <use xlink:href="#rim2" fill="#404040"><set attributeName="fill" to="#808080" begin="reset.mouseover" end="reset.mouseout"/></use>
  </g>
</defs>
<script type="application/ecmascript">
var viewWidth = 658;
var viewHeight = 656;
var sectionId = 'dynsection-4';
</script>
<script type="application/ecmascript" xlink:href="../../svg.min.js"/>
<svg id="graph" class="graph">
<g id="viewport">
<title>ml::core::CFlatPrefixTree::clear</title>
<!-- Node1 -->
<g id="Node000001" class="node">
<title>Node1</title>
<g id="a_Node000001"><a xlink:title="Clears the tree.">
<polygon fill="#999999" stroke="#666666" points="649.75,-357.88 523.5,-357.88 523.5,-327.38 649.75,-327.38 649.75,-357.88"/>
<text text-anchor="start" x="531.5" y="-344.38" font-family="Helvetica,sans-Serif" font-size="10.00">ml::core::CFlatPrefixTree</text>
<text text-anchor="middle" x="586.62" y="-333.12" font-family="Helvetica,sans-Serif" font-size="10.00">::clear</text>
</a>
</g>
</g>
<!-- Node2 -->
<g id="Node000002" class="node">
<title>Node2</title>
<g id="a_Node000002"><a xlink:href="../../dd/d58/classml_1_1core_1_1_c_pattern_set.html#a62424ef1b7965a18841cf83339115a8a" target="_top" xlink:title="Clears the set.">
<polygon fill="white" stroke="#666666" points="487.5,-357.88 376.25,-357.88 376.25,-327.38 487.5,-327.38 487.5,-357.88"/>
<text text-anchor="start" x="384.25" y="-344.38" font-family="Helvetica,sans-Serif" font-size="10.00">ml::core::CPatternSet</text>
<text text-anchor="middle" x="431.88" y="-333.12" font-family="Helvetica,sans-Serif" font-size="10.00">::clear</text>
</a>
</g>
</g>
<!-- Node1&#45;&gt;Node2 -->
<g id="edge1_Node000001_Node000002" class="edge">
<title>Node1&#45;&gt;Node2</title>
<g id="a_edge1_Node000001_Node000002"><a xlink:title=" ">
<path fill="none" stroke="#63b8ff" d="M511.71,-342.62C503.65,-342.62 495.54,-342.62 487.76,-342.62"/>
<polygon fill="#63b8ff" stroke="#63b8ff" points="511.54,-346.13 521.54,-342.63 511.54,-339.13 511.54,-346.13"/>
</a>
</g>
</g>
<!-- Node3 -->
<g id="Node000003" class="node">
<title>Node3</title>
<g id="a_Node000003"><a xlink:href="../../df/d89/_c_pattern_set_test_8cc.html#ac36f3fe5f0c60b67c640e9f9dae6c4ac" target="_top" xlink:title=" ">
<polygon fill="white" stroke="#666666" points="155.12,-648.25 7.88,-648.25 7.88,-629 155.12,-629 155.12,-648.25"/>
<text text-anchor="middle" x="81.5" y="-634.75" font-family="Helvetica,sans-Serif" font-size="10.00">BOOST_AUTO_TEST_CASE</text>
</a>
</g>
</g>
<!-- Node2&#45;&gt;Node3 -->
<g id="edge2_Node000002_Node000003" class="edge">
<title>Node2&#45;&gt;Node3</title>
<g id="a_edge2_Node000002_Node000003"><a xlink:title=" ">
<path fill="none" stroke="#63b8ff" d="M414.57,-367.63C377.21,-422.78 279.61,-555.09 163,-620.62 157.38,-623.78 151.25,-626.39 144.96,-628.53"/>
<polygon fill="#63b8ff" stroke="#63b8ff" points="417.34,-369.79 419.99,-359.53 411.52,-365.89 417.34,-369.79"/>
</a>
</g>
</g>
<!-- Node4 -->
<g id="Node000004" class="node">
<title>Node4</title>
<g id="a_Node000004"><a xlink:href="../../dd/d58/classml_1_1core_1_1_c_pattern_set.html#a0e1df1f6949768637ed03219bb3fc485" target="_top" xlink:title="Initialise the set from JSON that is an array of strings.">
<polygon fill="white" stroke="#666666" points="325.25,-357.88 214,-357.88 214,-327.38 325.25,-327.38 325.25,-357.88"/>
<text text-anchor="start" x="222" y="-344.38" font-family="Helvetica,sans-Serif" font-size="10.00">ml::core::CPatternSet</text>
<text text-anchor="middle" x="269.62" y="-333.12" font-family="Helvetica,sans-Serif" font-size="10.00">::initFromJson</text>
</a>
</g>
</g>
<!-- Node2&#45;&gt;Node4 -->
<g id="edge3_Node000002_Node000004" class="edge">
<title>Node2&#45;&gt;Node4</title>
<g id="a_edge3_Node000002_Node000004"><a xlink:title=" ">
<path fill="none" stroke="#63b8ff" d="M364.88,-342.62C351.83,-342.62 338.26,-342.62 325.62,-342.62"/>
<polygon fill="#63b8ff" stroke="#63b8ff" points="364.66,-346.13 374.66,-342.63 364.66,-339.13 364.66,-346.13"/>
</a>
</g>
</g>
<!-- Node22 -->
<g id="Node000022" class="node">
<title>Node22</title>
<g id="a_Node000022"><a xlink:href="../../d1/d13/classml_1_1api_1_1_c_anomaly_job_config_1_1_c_filter_config.html#a54a49ed50f63fadad963e61276f26097" target="_top" xlink:title=" ">
<polygon fill="white" stroke="#666666" points="340.25,-308.88 199,-308.88 199,-278.38 340.25,-278.38 340.25,-308.88"/>
<text text-anchor="start" x="207" y="-295.38" font-family="Helvetica,sans-Serif" font-size="10.00">ml::api::CAnomalyJobConfig</text>
<text text-anchor="middle" x="269.62" y="-284.12" font-family="Helvetica,sans-Serif" font-size="10.00">::CFilterConfig::parse</text>
</a>
</g>
</g>
<!-- Node2&#45;&gt;Node22 -->
<g id="edge22_Node000002_Node000022" class="edge">
<title>Node2&#45;&gt;Node22</title>
<g id="a_edge22_Node000002_Node000022"><a xlink:title=" ">
<path fill="none" stroke="#63b8ff" d="M369.16,-323.75C353.61,-319 337.09,-313.95 322.11,-309.37"/>
<polygon fill="#63b8ff" stroke="#63b8ff" points="367.7,-326.97 378.28,-326.54 369.74,-320.27 367.7,-326.97"/>
</a>
</g>
</g>
<!-- Node4&#45;&gt;Node3 -->
<g id="edge4_Node000004_Node000003" class="edge">
<title>Node4&#45;&gt;Node3</title>
<g id="a_edge4_Node000004_Node000003"><a xlink:title=" ">
<path fill="none" stroke="#63b8ff" d="M255.77,-368.32C240.88,-398.7 216.19,-451.04 199,-497.62 179.28,-551.06 204.56,-581.67 163,-620.62 159.66,-623.76 155.89,-626.39 151.86,-628.6"/>
<polygon fill="#63b8ff" stroke="#63b8ff" points="258.82,-370.04 260.11,-359.53 252.54,-366.94 258.82,-370.04"/>
</a>
</g>
</g>
<!-- Node5 -->
<g id="Node000005" class="node">
<title>Node5</title>
<g id="a_Node000005"><a xlink:href="../../df/d89/_c_pattern_set_test_8cc.html#a1394ed48abe6ea5e1c77c7b3354e571a" target="_top" xlink:title=" ">
<polygon fill="white" stroke="#666666" points="155.12,-611.25 7.88,-611.25 7.88,-592 155.12,-592 155.12,-611.25"/>
<text text-anchor="middle" x="81.5" y="-597.75" font-family="Helvetica,sans-Serif" font-size="10.00">BOOST_AUTO_TEST_CASE</text>
</a>
</g>
</g>
<!-- Node4&#45;&gt;Node5 -->
<g id="edge5_Node000004_Node000005" class="edge">
<title>Node4&#45;&gt;Node5</title>
<g id="a_edge5_Node000004_Node000005"><a xlink:title=" ">
<path fill="none" stroke="#63b8ff" d="M256.9,-368.2C242.89,-398.85 218.87,-451.83 199,-497.62 182.51,-535.64 194.77,-557.02 163,-583.62 159.27,-586.75 155.11,-589.36 150.7,-591.55"/>
<polygon fill="#63b8ff" stroke="#63b8ff" points="259.97,-369.89 260.95,-359.34 253.6,-366.98 259.97,-369.89"/>
</a>
</g>
</g>
<!-- Node6 -->
<g id="Node000006" class="node">
<title>Node6</title>
<g id="a_Node000006"><a xlink:href="../../df/d89/_c_pattern_set_test_8cc.html#afce31e64d4e4dfa441e836c8a7de3ef1" target="_top" xlink:title=" ">
<polygon fill="white" stroke="#666666" points="155.12,-574.25 7.88,-574.25 7.88,-555 155.12,-555 155.12,-574.25"/>
<text text-anchor="middle" x="81.5" y="-560.75" font-family="Helvetica,sans-Serif" font-size="10.00">BOOST_AUTO_TEST_CASE</text>
</a>
</g>
</g>
<!-- Node4&#45;&gt;Node6 -->
<g id="edge6_Node000004_Node000006" class="edge">
<title>Node4&#45;&gt;Node6</title>
<g id="a_edge6_Node000004_Node000006"><a xlink:title=" ">
<path fill="none" stroke="#63b8ff" d="M258.4,-368.65C238.45,-418.15 193.63,-523.03 163,-546.62 158.92,-549.77 154.39,-552.39 149.62,-554.56"/>
<polygon fill="#63b8ff" stroke="#63b8ff" points="261.57,-370.15 262.03,-359.56 255.07,-367.55 261.57,-370.15"/>
</a>
</g>
</g>
<!-- Node7 -->
<g id="Node000007" class="node">
<title>Node7</title>
<g id="a_Node000007"><a xlink:href="../../df/d89/_c_pattern_set_test_8cc.html#a9057a27b1bc4a2d72c10dd00f40150a5" target="_top" xlink:title=" ">
<polygon fill="white" stroke="#666666" points="155.12,-537.25 7.88,-537.25 7.88,-518 155.12,-518 155.12,-537.25"/>
<text text-anchor="middle" x="81.5" y="-523.75" font-family="Helvetica,sans-Serif" font-size="10.00">BOOST_AUTO_TEST_CASE</text>
</a>
</g>
</g>
<!-- Node4&#45;&gt;Node7 -->
<g id="edge7_Node000004_Node000007" class="edge">
<title>Node4&#45;&gt;Node7</title>
<g id="a_edge7_Node000004_Node000007"><a xlink:title=" ">
<path fill="none" stroke="#63b8ff" d="M259.55,-368.71C245.16,-406.04 213.46,-474.1 163,-509.62 158.55,-512.76 153.65,-515.36 148.53,-517.51"/>
<polygon fill="#63b8ff" stroke="#63b8ff" points="262.73,-370.19 262.93,-359.6 256.17,-367.76 262.73,-370.19"/>
</a>
</g>
</g>
<!-- Node8 -->
<g id="Node000008" class="node">
<title>Node8</title>
<g id="a_Node000008"><a xlink:href="../../df/d89/_c_pattern_set_test_8cc.html#aab7315497ec14d32bb272ab393c87bca" target="_top" xlink:title=" ">
<polygon fill="white" stroke="#666666" points="155.12,-500.25 7.88,-500.25 7.88,-481 155.12,-481 155.12,-500.25"/>
<text text-anchor="middle" x="81.5" y="-486.75" font-family="Helvetica,sans-Serif" font-size="10.00">BOOST_AUTO_TEST_CASE</text>
</a>
</g>
</g>
<!-- Node4&#45;&gt;Node8 -->
<g id="edge8_Node000004_Node000008" class="edge">
<title>Node4&#45;&gt;Node8</title>
<g id="a_edge8_Node000004_Node000008"><a xlink:title=" ">
<path fill="none" stroke="#63b8ff" d="M255.09,-367.99C237.81,-397.84 205.03,-446.61 163,-472.62 157.89,-475.79 152.28,-478.4 146.49,-480.56"/>
<polygon fill="#63b8ff" stroke="#63b8ff" points="257.95,-370.04 259.81,-359.61 251.85,-366.61 257.95,-370.04"/>
</a>
</g>
</g>
<!-- Node9 -->
<g id="Node000009" class="node">
<title>Node9</title>
<g id="a_Node000009"><a xlink:href="../../df/d89/_c_pattern_set_test_8cc.html#a1deb146505583f2af7beaa9d2c666523" target="_top" xlink:title=" ">
<polygon fill="white" stroke="#666666" points="155.12,-463.25 7.88,-463.25 7.88,-444 155.12,-444 155.12,-463.25"/>
<text text-anchor="middle" x="81.5" y="-449.75" font-family="Helvetica,sans-Serif" font-size="10.00">BOOST_AUTO_TEST_CASE</text>
</a>
</g>
</g>
<!-- Node4&#45;&gt;Node9 -->
<g id="edge9_Node000004_Node000009" class="edge">
<title>Node4&#45;&gt;Node9</title>
<g id="a_edge9_Node000004_Node000009"><a xlink:title=" ">
<path fill="none" stroke="#63b8ff" d="M247.99,-366.66C228.3,-388.02 196.72,-418.46 163,-435.62 156.75,-438.81 149.94,-441.43 143.02,-443.6"/>
<polygon fill="#63b8ff" stroke="#63b8ff" points="250.57,-369.02 254.65,-359.25 245.36,-364.34 250.57,-369.02"/>
</a>
</g>
</g>
<!-- Node10 -->
<g id="Node000010" class="node">
<title>Node10</title>
<g id="a_Node000010"><a xlink:href="../../df/d89/_c_pattern_set_test_8cc.html#adfbb7cc6a5bc1b14ba96ae401aaa2709" target="_top" xlink:title=" ">
<polygon fill="white" stroke="#666666" points="155.12,-426.25 7.88,-426.25 7.88,-407 155.12,-407 155.12,-426.25"/>
<text text-anchor="middle" x="81.5" y="-412.75" font-family="Helvetica,sans-Serif" font-size="10.00">BOOST_AUTO_TEST_CASE</text>
</a>
</g>
</g>
<!-- Node4&#45;&gt;Node10 -->
<g id="edge10_Node000004_Node000010" class="edge">
<title>Node4&#45;&gt;Node10</title>
<g id="a_edge10_Node000004_Node000010"><a xlink:title=" ">
<path fill="none" stroke="#63b8ff" d="M234.25,-363.87C214.11,-375.54 187.82,-389.46 163,-398.62 154.67,-401.7 145.65,-404.34 136.77,-406.58"/>
<polygon fill="#63b8ff" stroke="#63b8ff" points="235.76,-367.04 242.59,-358.95 232.2,-361.01 235.76,-367.04"/>
</a>
</g>
</g>
<!-- Node11 -->
<g id="Node000011" class="node">
<title>Node11</title>
<g id="a_Node000011"><a xlink:href="../../df/d89/_c_pattern_set_test_8cc.html#a022d3af94d50662ea1cb80ab6cece70a" target="_top" xlink:title=" ">
<polygon fill="white" stroke="#666666" points="155.12,-389.25 7.88,-389.25 7.88,-370 155.12,-370 155.12,-389.25"/>
<text text-anchor="middle" x="81.5" y="-375.75" font-family="Helvetica,sans-Serif" font-size="10.00">BOOST_AUTO_TEST_CASE</text>
</a>
</g>
</g>
<!-- Node4&#45;&gt;Node11 -->
<g id="edge11_Node000004_Node000011" class="edge">
<title>Node4&#45;&gt;Node11</title>
<g id="a_edge11_Node000004_Node000011"><a xlink:title=" ">
<path fill="none" stroke="#63b8ff" d="M202.26,-355.82C179.58,-360.33 154.58,-365.3 133.31,-369.52"/>
<polygon fill="#63b8ff" stroke="#63b8ff" points="202.93,-359.25 212.05,-353.87 201.56,-352.39 202.93,-359.25"/>
</a>
</g>
</g>
<!-- Node12 -->
<g id="Node000012" class="node">
<title>Node12</title>
<g id="a_Node000012"><a xlink:href="../../df/d89/_c_pattern_set_test_8cc.html#a1190fb4c166702cd4a332b85bc3ef643" target="_top" xlink:title=" ">
<polygon fill="white" stroke="#666666" points="155.12,-352.25 7.88,-352.25 7.88,-333 155.12,-333 155.12,-352.25"/>
<text text-anchor="middle" x="81.5" y="-338.75" font-family="Helvetica,sans-Serif" font-size="10.00">BOOST_AUTO_TEST_CASE</text>
</a>
</g>
</g>
<!-- Node4&#45;&gt;Node12 -->
<g id="edge12_Node000004_Node000012" class="edge">
<title>Node4&#45;&gt;Node12</title>
<g id="a_edge12_Node000004_Node000012"><a xlink:title=" ">
<path fill="none" stroke="#63b8ff" d="M202.17,-342.62C187.01,-342.62 170.82,-342.62 155.4,-342.62"/>
<polygon fill="#63b8ff" stroke="#63b8ff" points="202.02,-346.13 212.02,-342.63 202.02,-339.13 202.02,-346.13"/>
</a>
</g>
</g>
<!-- Node13 -->
<g id="Node000013" class="node">
<title>Node13</title>
<g id="a_Node000013"><a xlink:href="../../df/d89/_c_pattern_set_test_8cc.html#a02af7929e79cb1f724627f08b1b12185" target="_top" xlink:title=" ">
<polygon fill="white" stroke="#666666" points="155.12,-315.25 7.88,-315.25 7.88,-296 155.12,-296 155.12,-315.25"/>
<text text-anchor="middle" x="81.5" y="-301.75" font-family="Helvetica,sans-Serif" font-size="10.00">BOOST_AUTO_TEST_CASE</text>
</a>
</g>
</g>
<!-- Node4&#45;&gt;Node13 -->
<g id="edge13_Node000004_Node000013" class="edge">
<title>Node4&#45;&gt;Node13</title>
<g id="a_edge13_Node000004_Node000013"><a xlink:title=" ">
<path fill="none" stroke="#63b8ff" d="M202.26,-329.43C179.58,-324.92 154.58,-319.95 133.31,-315.73"/>
<polygon fill="#63b8ff" stroke="#63b8ff" points="201.56,-332.86 212.05,-331.38 202.93,-326 201.56,-332.86"/>
</a>
</g>
</g>
<!-- Node14 -->
<g id="Node000014" class="node">
<title>Node14</title>
<g id="a_Node000014"><a xlink:href="../../d1/d8d/_c_detection_rules_json_parser_test_8cc.html#a7413c83f6bfcf5fa05276529e0503c0d" target="_top" xlink:title=" ">
<polygon fill="white" stroke="#666666" points="155.12,-278.25 7.88,-278.25 7.88,-259 155.12,-259 155.12,-278.25"/>
<text text-anchor="middle" x="81.5" y="-264.75" font-family="Helvetica,sans-Serif" font-size="10.00">BOOST_AUTO_TEST_CASE</text>
</a>
</g>
</g>
<!-- Node4&#45;&gt;Node14 -->
<g id="edge14_Node000004_Node000014" class="edge">
<title>Node4&#45;&gt;Node14</title>
<g id="a_edge14_Node000004_Node000014"><a xlink:title=" ">
<path fill="none" stroke="#63b8ff" d="M207.75,-322.3C204.74,-320.82 201.81,-319.26 199,-317.62 180.76,-306.99 181.87,-296.1 163,-286.62 156.73,-283.48 149.91,-280.87 142.98,-278.72"/>
<polygon fill="#63b8ff" stroke="#63b8ff" points="206.25,-325.46 216.8,-326.39 209.13,-319.08 206.25,-325.46"/>
</a>
</g>
</g>
<!-- Node15 -->
<g id="Node000015" class="node">
<title>Node15</title>
<g id="a_Node000015"><a xlink:href="../../d1/d8d/_c_detection_rules_json_parser_test_8cc.html#a43b02d1b99821e04b110f4875e74d5cc" target="_top" xlink:title=" ">
<polygon fill="white" stroke="#666666" points="155.12,-241.25 7.88,-241.25 7.88,-222 155.12,-222 155.12,-241.25"/>
<text text-anchor="middle" x="81.5" y="-227.75" font-family="Helvetica,sans-Serif" font-size="10.00">BOOST_AUTO_TEST_CASE</text>
</a>
</g>
</g>
<!-- Node4&#45;&gt;Node15 -->
<g id="edge15_Node000004_Node000015" class="edge">
<title>Node4&#45;&gt;Node15</title>
<g id="a_edge15_Node000004_Node000015"><a xlink:title=" ">
<path fill="none" stroke="#63b8ff" d="M204.15,-321.65C202.36,-320.39 200.64,-319.04 199,-317.62 173.16,-295.22 190.18,-270.37 163,-249.62 158.9,-246.5 154.36,-243.89 149.59,-241.73"/>
<polygon fill="#63b8ff" stroke="#63b8ff" points="201.94,-324.4 212.3,-326.6 205.57,-318.42 201.94,-324.4"/>
</a>
</g>
</g>
<!-- Node16 -->
<g id="Node000016" class="node">
<title>Node16</title>
<g id="a_Node000016"><a xlink:href="../../d1/d8d/_c_detection_rules_json_parser_test_8cc.html#a9369dc111456937cb4ce48fa7738b851" target="_top" xlink:title=" ">
<polygon fill="white" stroke="#666666" points="155.12,-204.25 7.88,-204.25 7.88,-185 155.12,-185 155.12,-204.25"/>
<text text-anchor="middle" x="81.5" y="-190.75" font-family="Helvetica,sans-Serif" font-size="10.00">BOOST_AUTO_TEST_CASE</text>
</a>
</g>
</g>
<!-- Node4&#45;&gt;Node16 -->
<g id="edge16_Node000004_Node000016" class="edge">
<title>Node4&#45;&gt;Node16</title>
<g id="a_edge16_Node000004_Node000016"><a xlink:title=" ">
<path fill="none" stroke="#63b8ff" d="M204.08,-322.16C202.29,-320.75 200.59,-319.24 199,-317.62 164.37,-282.49 199.75,-245.53 163,-212.62 159.48,-209.47 155.53,-206.83 151.32,-204.63"/>
<polygon fill="#63b8ff" stroke="#63b8ff" points="202.11,-325.05 212.39,-327.61 205.95,-319.2 202.11,-325.05"/>
</a>
</g>
</g>
<!-- Node17 -->
<g id="Node000017" class="node">
<title>Node17</title>
<g id="a_Node000017"><a xlink:href="../../d1/d8d/_c_detection_rules_json_parser_test_8cc.html#ab8aeaf7287a2f85392eceaa1d67e4a82" target="_top" xlink:title=" ">
<polygon fill="white" stroke="#666666" points="155.12,-167.25 7.88,-167.25 7.88,-148 155.12,-148 155.12,-167.25"/>
<text text-anchor="middle" x="81.5" y="-153.75" font-family="Helvetica,sans-Serif" font-size="10.00">BOOST_AUTO_TEST_CASE</text>
</a>
</g>
</g>
<!-- Node4&#45;&gt;Node17 -->
<g id="edge17_Node000004_Node000017" class="edge">
<title>Node4&#45;&gt;Node17</title>
<g id="a_edge17_Node000004_Node000017"><a xlink:title=" ">
<path fill="none" stroke="#63b8ff" d="M204.46,-322.79C202.51,-321.2 200.68,-319.48 199,-317.62 155.23,-269.42 209.69,-221.01 163,-175.62 159.82,-172.53 156.22,-169.92 152.37,-167.73"/>
<polygon fill="#63b8ff" stroke="#63b8ff" points="202.13,-325.44 212.38,-328.13 206.04,-319.63 202.13,-325.44"/>
</a>
</g>
</g>
<!-- Node18 -->
<g id="Node000018" class="node">
<title>Node18</title>
<g id="a_Node000018"><a xlink:href="../../d2/d5e/_c_detection_rule_test_8cc.html#ab74b81f93055a7b2b354c82e33b725d3" target="_top" xlink:title=" ">
<polygon fill="white" stroke="#666666" points="163,-130.25 0,-130.25 0,-111 163,-111 163,-130.25"/>
<text text-anchor="middle" x="81.5" y="-116.75" font-family="Helvetica,sans-Serif" font-size="10.00">BOOST_FIXTURE_TEST_CASE</text>
</a>
</g>
</g>
<!-- Node4&#45;&gt;Node18 -->
<g id="edge18_Node000004_Node000018" class="edge">
<title>Node4&#45;&gt;Node18</title>
<g id="a_edge18_Node000004_Node000018"><a xlink:title=" ">
<path fill="none" stroke="#63b8ff" d="M204.46,-322.99C202.5,-321.35 200.67,-319.56 199,-317.62 145.97,-256.21 219.76,-196.62 163,-138.62 159.89,-135.45 156.36,-132.78 152.55,-130.54"/>
<polygon fill="#63b8ff" stroke="#63b8ff" points="202.27,-325.73 212.5,-328.51 206.23,-319.96 202.27,-325.73"/>
</a>
</g>
</g>
<!-- Node19 -->
<g id="Node000019" class="node">
<title>Node19</title>
<g id="a_Node000019"><a xlink:href="../../d2/d5e/_c_detection_rule_test_8cc.html#ab3d2c36d20c60308c08300fa2be5e6a7" target="_top" xlink:title=" ">
<polygon fill="white" stroke="#666666" points="163,-93.25 0,-93.25 0,-74 163,-74 163,-93.25"/>
<text text-anchor="middle" x="81.5" y="-79.75" font-family="Helvetica,sans-Serif" font-size="10.00">BOOST_FIXTURE_TEST_CASE</text>
</a>
</g>
</g>
<!-- Node4&#45;&gt;Node19 -->
<g id="edge19_Node000004_Node000019" class="edge">
<title>Node4&#45;&gt;Node19</title>
<g id="a_edge19_Node000004_Node000019"><a xlink:title=" ">
<path fill="none" stroke="#63b8ff" d="M204.38,-323.06C202.44,-321.4 200.64,-319.59 199,-317.62 136.63,-242.91 229.91,-172.3 163,-101.62 160.05,-98.5 156.68,-95.87 153.04,-93.65"/>
<polygon fill="#63b8ff" stroke="#63b8ff" points="202.14,-325.77 212.35,-328.63 206.15,-320.03 202.14,-325.77"/>
</a>
</g>
</g>
<!-- Node20 -->
<g id="Node000020" class="node">
<title>Node20</title>
<g id="a_Node000020"><a xlink:href="../../d2/d5e/_c_detection_rule_test_8cc.html#ad55f30d621848ecaa77f9260b71b6af3" target="_top" xlink:title=" ">
<polygon fill="white" stroke="#666666" points="163,-56.25 0,-56.25 0,-37 163,-37 163,-56.25"/>
<text text-anchor="middle" x="81.5" y="-42.75" font-family="Helvetica,sans-Serif" font-size="10.00">BOOST_FIXTURE_TEST_CASE</text>
</a>
</g>
</g>
<!-- Node4&#45;&gt;Node20 -->
<g id="edge20_Node000004_Node000020" class="edge">
<title>Node4&#45;&gt;Node20</title>
<g id="a_edge20_Node000004_Node000020"><a xlink:title=" ">
<path fill="none" stroke="#63b8ff" d="M204.44,-323.21C202.47,-321.51 200.65,-319.65 199,-317.62 127.26,-229.58 240.09,-148.03 163,-64.62 160.08,-61.47 156.75,-58.81 153.12,-56.56"/>
<polygon fill="#63b8ff" stroke="#63b8ff" points="202.37,-326.04 212.57,-328.92 206.39,-320.31 202.37,-326.04"/>
</a>
</g>
</g>
<!-- Node21 -->
<g id="Node000021" class="node">
<title>Node21</title>
<g id="a_Node000021"><a xlink:href="../../d9/d0f/_c_event_rate_population_model_test_8cc.html#a46eaa3d97cf343b742c3170cacc17377" target="_top" xlink:title=" ">
<polygon fill="white" stroke="#666666" points="163,-19.25 0,-19.25 0,0 163,0 163,-19.25"/>
<text text-anchor="middle" x="81.5" y="-5.75" font-family="Helvetica,sans-Serif" font-size="10.00">BOOST_FIXTURE_TEST_CASE</text>
</a>
</g>
</g>
<!-- Node4&#45;&gt;Node21 -->
<g id="edge21_Node000004_Node000021" class="edge">
<title>Node4&#45;&gt;Node21</title>
<g id="a_edge21_Node000004_Node000021"><a xlink:title=" ">
<path fill="none" stroke="#63b8ff" d="M204.39,-323.25C202.44,-321.53 200.63,-319.66 199,-317.62 117.86,-216.21 250.3,-123.78 163,-27.62 160.21,-24.55 157.02,-21.94 153.55,-19.73"/>
<polygon fill="#63b8ff" stroke="#63b8ff" points="202.3,-326.06 212.49,-328.98 206.34,-320.35 202.3,-326.06"/>
</a>
</g>
</g>
</g>
</svg>

<g id="navigator" transform="translate(0 0)" fill="#404254">
  <rect fill="#f2f5e9" fill-opacity="0.5" stroke="#606060" stroke-width=".5" x="0" y="0" width="60" height="60"/>
  <use id="zoomplus" xlink:href="#zoomPlus" x="17" y="9" onmousedown="handleZoom(evt,'in')"/>
  <use id="zoomminus" xlink:href="#zoomMin" x="42" y="9" onmousedown="handleZoom(evt,'out')"/>
  <use id="reset" xlink:href="#resetDef" x="30" y="36" onmousedown="handleReset()"/>
   <use id="arrowup" xlink:href="#arrowUp" x="0" y="0" onmousedown="handlePan(0,-1)"/>
  <use id="arrowright" xlink:href="#arrowRight" x="0" y="0" onmousedown="handlePan(1,0)"/>
  <use id="arrowdown" xlink:href="#arrowDown" x="0" y="0" onmousedown="handlePan(0,1)"/>
  <use id="arrowleft" xlink:href="#arrowLeft" x="0" y="0" onmousedown="handlePan(-1,0)"/>
</g>
<svg viewBox="0 0 15 15" width="100%" height="30px" preserveAspectRatio="xMaxYMin meet">
 <g id="arrow_out" transform="scale(0.3 0.3)">
  <a xlink:href="classml_1_1core_1_1_c_flat_prefix_tree_ac3d4b4ced0b4fa847a0405f2535cf732_icgraph_org.svg" target="_base">
   <rect id="button" ry="5" rx="5" y="6" x="6" height="38" width="38"
        fill="#f2f5e9" fill-opacity="0.5" stroke="#606060" stroke-width="1.0"/>
   <path id="arrow"
     d="M 11.500037,31.436501 C 11.940474,20.09759 22.043105,11.32322 32.158766,21.979434 L 37.068811,17.246167 C 37.068811,17.246167 37.088388,32 37.088388,32 L 22.160133,31.978069 C 22.160133,31.978069 26.997745,27.140456 26.997745,27.140456 C 18.528582,18.264221 13.291696,25.230495 11.500037,31.436501 z"
     style="fill:#404040;"/>
  </a>
 </g>
</svg>

<style type='text/css'>
<![CDATA[
[data-mouse-over-selected='false'] { opacity: 0.7; }
[data-mouse-over-selected='true']  { opacity: 1.0; }
]]>
</style>
<script type="application/ecmascript"><![CDATA[
document.addEventListener('DOMContentLoaded', (event) => {
  highlightEdges();
  highlightAdjacentNodes();
});
]]></script>
</svg>
