<?xml version="1.0" encoding="UTF-8" standalone="no"?>
<!DOCTYPE svg PUBLIC "-//W3C//DTD SVG 1.1//EN"
 "http://www.w3.org/Graphics/SVG/1.1/DTD/svg11.dtd">
<!-- Generated by graphviz version 10.0.1 (20240210.2158)
 -->
<!-- Title: ml::core::CRegex::search Pages: 1 -->
<!--zoomable 384 -->

<svg id="main" version="1.1" xmlns="http://www.w3.org/2000/svg" xmlns:xlink="http://www.w3.org/1999/xlink" xml:space="preserve" onload="init(evt)">
<style type="text/css"><![CDATA[
.node, .edge {opacity: 0.7;}
.node.selected, .edge.selected {opacity: 1;}
.edge:hover path { stroke: red; }
.edge:hover polygon { stroke: red; fill: red; }
]]></style>

<defs>
  <circle id="rim" cx="0" cy="0" r="7"/>
  <circle id="rim2" cx="0" cy="0" r="3.5"/>
  <g id="zoomPlus">
    <use xlink:href="#rim" fill="#404040"><set attributeName="fill" to="#808080" begin="zoomplus.mouseover" end="zoomplus.mouseout"/></use>
    <path d="M-4,0h8M0,-4v8" fill="none" stroke="white" stroke-width="1.5" pointer-events="none"/>
  </g>
  <g id="zoomMin">
    <use xlink:href="#rim" fill="#404040"><set attributeName="fill" to="#808080" begin="zoomminus.mouseover" end="zoomminus.mouseout"/></use>
    <path d="M-4,0h8" fill="none" stroke="white" stroke-width="1.5" pointer-events="none"/>
  </g>
  <g id="arrowUp" transform="translate(30 24)">
    <use xlink:href="#rim"/>
    <path pointer-events="none" fill="none" stroke="white" stroke-width="1.5" d="M0,-3.0v7 M-2.5,-0.5L0,-3.0L2.5,-0.5"/>
  </g>
  <g id="arrowRight" transform="rotate(90) translate(36 -43)">
    <use xlink:href="#rim"/>
    <path pointer-events="none" fill="none" stroke="white" stroke-width="1.5" d="M0,-3.0v7 M-2.5,-0.5L0,-3.0L2.5,-0.5"/>
  </g>
  <g id="arrowDown" transform="rotate(180) translate(-30 -48)">
    <use xlink:href="#rim"/>
    <path pointer-events="none" fill="none" stroke="white" stroke-width="1.5" d="M0,-3.0v7 M-2.5,-0.5L0,-3.0L2.5,-0.5"/>
  </g>
  <g id="arrowLeft" transform="rotate(270) translate(-36 17)">
    <use xlink:href="#rim"/>
    <path pointer-events="none" fill="none" stroke="white" stroke-width="1.5" d="M0,-3.0v7 M-2.5,-0.5L0,-3.0L2.5,-0.5"/>
  </g>
  <g id="resetDef">
    <use xlink:href="#rim2" fill="#404040"><set attributeName="fill" to="#808080" begin="reset.mouseover" end="reset.mouseout"/></use>
  </g>
</defs>
<script type="application/ecmascript">
var viewWidth = 694;
var viewHeight = 384;
var sectionId = 'dynsection-9';
</script>
<script type="application/ecmascript" xlink:href="../../svg.min.js"/>
<svg id="graph" class="graph">
<g id="viewport">
<title>ml::core::CRegex::search</title>
<!-- Node1 -->
<g id="Node000001" class="node">
<title>Node1</title>
<g id="a_Node000001"><a xlink:title="Find the position within a string at which this regex first matches.">
<polygon fill="#999999" stroke="#666666" points="685.75,-154.25 557.25,-154.25 557.25,-135 685.75,-135 685.75,-154.25"/>
<text text-anchor="middle" x="621.5" y="-140.75" font-family="Helvetica,sans-Serif" font-size="10.00">ml::core::CRegex::search</text>
</a>
</g>
</g>
<!-- Node2 -->
<g id="Node000002" class="node">
<title>Node2</title>
<g id="a_Node000002"><a xlink:href="../../d1/de7/classml_1_1api_1_1_c_bench_marker.html#a09f181d1c19480a04386fbb116c789ce" target="_top" xlink:title="Add a message together with the category ML assigned to it.">
<polygon fill="white" stroke="#666666" points="505.88,-325.88 389.38,-325.88 389.38,-295.38 505.88,-295.38 505.88,-325.88"/>
<text text-anchor="start" x="397.38" y="-312.38" font-family="Helvetica,sans-Serif" font-size="10.00">ml::api::CBenchMarker</text>
<text text-anchor="middle" x="447.62" y="-301.12" font-family="Helvetica,sans-Serif" font-size="10.00">::addResult</text>
</a>
</g>
</g>
<!-- Node1&#45;&gt;Node2 -->
<g id="edge1_Node000001_Node000002" class="edge">
<title>Node1&#45;&gt;Node2</title>
<g id="a_edge1_Node000001_Node000002"><a xlink:title=" ">
<path fill="none" stroke="#63b8ff" d="M611.49,-164.62C596.83,-195.02 564.96,-252.77 521.25,-285.62 516.45,-289.23 511.1,-292.34 505.53,-295.02"/>
<polygon fill="#63b8ff" stroke="#63b8ff" points="614.56,-166.33 615.62,-155.79 608.22,-163.37 614.56,-166.33"/>
</a>
</g>
</g>
<!-- Node3 -->
<g id="Node000003" class="node">
<title>Node3</title>
<g id="a_Node000003"><a xlink:href="../../d9/de8/classml_1_1core_1_1_c_regex_filter.html#a50a0b3dedff9e869f9d22ba689f9801c" target="_top" xlink:title="Applies the filter to target.">
<polygon fill="white" stroke="#666666" points="505.12,-276.88 390.12,-276.88 390.12,-246.38 505.12,-246.38 505.12,-276.88"/>
<text text-anchor="start" x="398.12" y="-263.38" font-family="Helvetica,sans-Serif" font-size="10.00">ml::core::CRegexFilter</text>
<text text-anchor="middle" x="447.62" y="-252.12" font-family="Helvetica,sans-Serif" font-size="10.00">::apply</text>
</a>
</g>
</g>
<!-- Node1&#45;&gt;Node3 -->
<g id="edge2_Node000001_Node000003" class="edge">
<title>Node1&#45;&gt;Node3</title>
<g id="a_edge2_Node000001_Node000003"><a xlink:title=" ">
<path fill="none" stroke="#63b8ff" d="M605.27,-163.09C587.2,-183.9 555.23,-217.44 521.25,-237.62 516,-240.74 510.29,-243.52 504.46,-245.97"/>
<polygon fill="#63b8ff" stroke="#63b8ff" points="607.76,-165.56 611.57,-155.67 602.42,-161.03 607.76,-165.56"/>
</a>
</g>
</g>
<!-- Node10 -->
<g id="Node000010" class="node">
<title>Node10</title>
<g id="a_Node000010"><a xlink:href="../../d2/dc0/_c_regex_test_8cc.html#abac349db25c8a3ad21a70383b8006ff1" target="_top" xlink:title=" ">
<polygon fill="white" stroke="#666666" points="521.25,-228.25 374,-228.25 374,-209 521.25,-209 521.25,-228.25"/>
<text text-anchor="middle" x="447.62" y="-214.75" font-family="Helvetica,sans-Serif" font-size="10.00">BOOST_AUTO_TEST_CASE</text>
</a>
</g>
</g>
<!-- Node1&#45;&gt;Node10 -->
<g id="edge9_Node000001_Node000010" class="edge">
<title>Node1&#45;&gt;Node10</title>
<g id="a_edge9_Node000001_Node000010"><a xlink:title=" ">
<path fill="none" stroke="#63b8ff" d="M595.64,-160.7C576.07,-172.78 547.76,-189.01 521.25,-199.62 512.66,-203.07 503.25,-206.06 494.13,-208.59"/>
<polygon fill="#63b8ff" stroke="#63b8ff" points="597.39,-163.73 604,-155.45 593.67,-157.8 597.39,-163.73"/>
</a>
</g>
</g>
<!-- Node11 -->
<g id="Node000011" class="node">
<title>Node11</title>
<g id="a_Node000011"><a xlink:href="../../d9/d8c/namespaceanonymous__namespace_02_c_anomaly_job_test_8cc_03.html#a1d56509b9eb88dd4e0fc3d6ceb9ddc4d" target="_top" xlink:title=" ">
<polygon fill="white" stroke="#666666" points="508.5,-190.5 386.75,-190.5 386.75,-148.75 508.5,-148.75 508.5,-190.5"/>
<text text-anchor="start" x="394.75" y="-177" font-family="Helvetica,sans-Serif" font-size="10.00">anonymous_namespace</text>
<text text-anchor="start" x="394.75" y="-165.75" font-family="Helvetica,sans-Serif" font-size="10.00">{CAnomalyJobTest::cc}</text>
<text text-anchor="middle" x="447.62" y="-154.5" font-family="Helvetica,sans-Serif" font-size="10.00">::findLine</text>
</a>
</g>
</g>
<!-- Node1&#45;&gt;Node11 -->
<g id="edge10_Node000001_Node000011" class="edge">
<title>Node1&#45;&gt;Node11</title>
<g id="a_edge10_Node000001_Node000011"><a xlink:title=" ">
<path fill="none" stroke="#63b8ff" d="M545.75,-155.5C533.37,-157.3 520.69,-159.14 508.74,-160.88"/>
<polygon fill="#63b8ff" stroke="#63b8ff" points="546.1,-158.98 555.49,-154.08 545.09,-152.06 546.1,-158.98"/>
</a>
</g>
</g>
<!-- Node14 -->
<g id="Node000014" class="node">
<title>Node14</title>
<g id="a_Node000014"><a xlink:href="../../dd/dea/classml_1_1core_1_1_c_regex.html#a9d720e978d8d0385e3c1132615c2b200" target="_top" xlink:title=" ">
<polygon fill="white" stroke="#666666" points="511.88,-130.25 383.38,-130.25 383.38,-111 511.88,-111 511.88,-130.25"/>
<text text-anchor="middle" x="447.62" y="-116.75" font-family="Helvetica,sans-Serif" font-size="10.00">ml::core::CRegex::search</text>
</a>
</g>
</g>
<!-- Node1&#45;&gt;Node14 -->
<g id="edge13_Node000001_Node000014" class="edge">
<title>Node1&#45;&gt;Node14</title>
<g id="a_edge13_Node000001_Node000014"><a xlink:title=" ">
<path fill="none" stroke="#63b8ff" d="M545.87,-134.2C534.63,-132.64 523.14,-131.03 512.16,-129.5"/>
<polygon fill="#63b8ff" stroke="#63b8ff" points="545.1,-137.63 555.49,-135.55 546.07,-130.7 545.1,-137.63"/>
</a>
</g>
</g>
<!-- Node15 -->
<g id="Node000015" class="node">
<title>Node15</title>
<g id="a_Node000015"><a xlink:href="../../dd/dea/classml_1_1core_1_1_c_regex.html#a1c3983c92aa9436bf1e4a3a50dd9aa84" target="_top" xlink:title=" ">
<polygon fill="white" stroke="#666666" points="511.88,-93.25 383.38,-93.25 383.38,-74 511.88,-74 511.88,-93.25"/>
<text text-anchor="middle" x="447.62" y="-79.75" font-family="Helvetica,sans-Serif" font-size="10.00">ml::core::CRegex::search</text>
</a>
</g>
</g>
<!-- Node1&#45;&gt;Node15 -->
<g id="edge14_Node000001_Node000015" class="edge">
<title>Node1&#45;&gt;Node15</title>
<g id="a_edge14_Node000001_Node000015"><a xlink:title=" ">
<path fill="none" stroke="#63b8ff" d="M589.67,-129.69C570.33,-120.72 544.71,-109.55 521.25,-101.62 512.64,-98.71 503.3,-96.05 494.29,-93.71"/>
<polygon fill="#63b8ff" stroke="#63b8ff" points="588.07,-132.81 598.61,-133.9 591.05,-126.47 588.07,-132.81"/>
</a>
</g>
</g>
<!-- Node16 -->
<g id="Node000016" class="node">
<title>Node16</title>
<g id="a_Node000016"><a xlink:href="../../dd/dea/classml_1_1core_1_1_c_regex.html#ac6d5906b2a4cabd18d10c7ba1127ffcd" target="_top" xlink:title=" ">
<polygon fill="white" stroke="#666666" points="511.88,-56.25 383.38,-56.25 383.38,-37 511.88,-37 511.88,-56.25"/>
<text text-anchor="middle" x="447.62" y="-42.75" font-family="Helvetica,sans-Serif" font-size="10.00">ml::core::CRegex::search</text>
</a>
</g>
</g>
<!-- Node1&#45;&gt;Node16 -->
<g id="edge15_Node000001_Node000016" class="edge">
<title>Node1&#45;&gt;Node16</title>
<g id="a_edge15_Node000001_Node000016"><a xlink:title=" ">
<path fill="none" stroke="#63b8ff" d="M603.02,-126.49C584.41,-108.22 553.28,-80.52 521.25,-64.62 514.97,-61.51 508.1,-58.9 501.18,-56.74"/>
<polygon fill="#63b8ff" stroke="#63b8ff" points="600.5,-128.91 610.03,-133.53 605.46,-123.98 600.5,-128.91"/>
</a>
</g>
</g>
<!-- Node17 -->
<g id="Node000017" class="node">
<title>Node17</title>
<g id="a_Node000017"><a xlink:href="../../d5/d82/lib_2api_2dump__state_2_main_8cc.html#ae5cc4704a61a8ade4e1f42ff40a36922" target="_top" xlink:title=" ">
<polygon fill="white" stroke="#666666" points="488.62,-19.25 406.62,-19.25 406.62,0 488.62,0 488.62,-19.25"/>
<text text-anchor="middle" x="447.62" y="-5.75" font-family="Helvetica,sans-Serif" font-size="10.00">versionNumber</text>
</a>
</g>
</g>
<!-- Node1&#45;&gt;Node17 -->
<g id="edge16_Node000001_Node000017" class="edge">
<title>Node1&#45;&gt;Node17</title>
<g id="a_edge16_Node000001_Node000017"><a xlink:title=" ">
<path fill="none" stroke="#63b8ff" d="M609.33,-125.02C593.3,-98.71 561.24,-52.43 521.25,-27.62 511.54,-21.6 499.92,-17.59 488.85,-14.92"/>
<polygon fill="#63b8ff" stroke="#63b8ff" points="606.15,-126.52 614.26,-133.35 612.18,-122.96 606.15,-126.52"/>
</a>
</g>
</g>
<!-- Node4 -->
<g id="Node000004" class="node">
<title>Node4</title>
<g id="a_Node000004"><a xlink:href="../../d9/d19/_c_regex_filter_test_8cc.html#a656196dd9a1f089f5642c6936adae4f9" target="_top" xlink:title=" ">
<polygon fill="white" stroke="#666666" points="336.12,-376.25 188.88,-376.25 188.88,-357 336.12,-357 336.12,-376.25"/>
<text text-anchor="middle" x="262.5" y="-362.75" font-family="Helvetica,sans-Serif" font-size="10.00">BOOST_AUTO_TEST_CASE</text>
</a>
</g>
</g>
<!-- Node3&#45;&gt;Node4 -->
<g id="edge3_Node000003_Node000004" class="edge">
<title>Node3&#45;&gt;Node4</title>
<g id="a_edge3_Node000003_Node000004"><a xlink:title=" ">
<path fill="none" stroke="#63b8ff" d="M380.07,-282.16C377.96,-283.56 375.92,-285.04 374,-286.62 349.39,-306.86 363.54,-329.57 338,-348.62 333.73,-351.81 328.98,-354.43 324,-356.6"/>
<polygon fill="#63b8ff" stroke="#63b8ff" points="381.5,-285.38 388.44,-277.38 378.02,-279.3 381.5,-285.38"/>
</a>
</g>
</g>
<!-- Node5 -->
<g id="Node000005" class="node">
<title>Node5</title>
<g id="a_Node000005"><a xlink:href="../../d9/d19/_c_regex_filter_test_8cc.html#abceded748bb9d4917706ca772b2e03d0" target="_top" xlink:title=" ">
<polygon fill="white" stroke="#666666" points="336.12,-339.25 188.88,-339.25 188.88,-320 336.12,-320 336.12,-339.25"/>
<text text-anchor="middle" x="262.5" y="-325.75" font-family="Helvetica,sans-Serif" font-size="10.00">BOOST_AUTO_TEST_CASE</text>
</a>
</g>
</g>
<!-- Node3&#45;&gt;Node5 -->
<g id="edge4_Node000003_Node000005" class="edge">
<title>Node3&#45;&gt;Node5</title>
<g id="a_edge4_Node000003_Node000005"><a xlink:title=" ">
<path fill="none" stroke="#63b8ff" d="M384.87,-281.55C381.15,-283.16 377.5,-284.85 374,-286.62 356.63,-295.43 355.77,-303.65 338,-311.62 331.08,-314.73 323.55,-317.35 316.02,-319.54"/>
<polygon fill="#63b8ff" stroke="#63b8ff" points="386.14,-284.81 394.09,-277.8 383.5,-278.32 386.14,-284.81"/>
</a>
</g>
</g>
<!-- Node6 -->
<g id="Node000006" class="node">
<title>Node6</title>
<g id="a_Node000006"><a xlink:href="../../d9/d19/_c_regex_filter_test_8cc.html#ab638c6b3f75fdb30045f2e56abd235ee" target="_top" xlink:title=" ">
<polygon fill="white" stroke="#666666" points="336.12,-302.25 188.88,-302.25 188.88,-283 336.12,-283 336.12,-302.25"/>
<text text-anchor="middle" x="262.5" y="-288.75" font-family="Helvetica,sans-Serif" font-size="10.00">BOOST_AUTO_TEST_CASE</text>
</a>
</g>
</g>
<!-- Node3&#45;&gt;Node6 -->
<g id="edge5_Node000003_Node000006" class="edge">
<title>Node3&#45;&gt;Node6</title>
<g id="a_edge5_Node000003_Node000006"><a xlink:title=" ">
<path fill="none" stroke="#63b8ff" d="M378.58,-273.14C360.42,-276.22 340.93,-279.52 323.25,-282.51"/>
<polygon fill="#63b8ff" stroke="#63b8ff" points="378.92,-276.64 388.19,-271.52 377.75,-269.73 378.92,-276.64"/>
</a>
</g>
</g>
<!-- Node7 -->
<g id="Node000007" class="node">
<title>Node7</title>
<g id="a_Node000007"><a xlink:href="../../d9/d19/_c_regex_filter_test_8cc.html#a740124aec1f2d03b0bbc0cfdeac9c29a" target="_top" xlink:title=" ">
<polygon fill="white" stroke="#666666" points="336.12,-265.25 188.88,-265.25 188.88,-246 336.12,-246 336.12,-265.25"/>
<text text-anchor="middle" x="262.5" y="-251.75" font-family="Helvetica,sans-Serif" font-size="10.00">BOOST_AUTO_TEST_CASE</text>
</a>
</g>
</g>
<!-- Node3&#45;&gt;Node7 -->
<g id="edge6_Node000003_Node000007" class="edge">
<title>Node3&#45;&gt;Node7</title>
<g id="a_edge6_Node000003_Node000007"><a xlink:title=" ">
<path fill="none" stroke="#63b8ff" d="M378.43,-259.39C364.79,-258.94 350.4,-258.47 336.6,-258.02"/>
<polygon fill="#63b8ff" stroke="#63b8ff" points="378.06,-262.88 388.17,-259.71 378.29,-255.88 378.06,-262.88"/>
</a>
</g>
</g>
<!-- Node8 -->
<g id="Node000008" class="node">
<title>Node8</title>
<g id="a_Node000008"><a xlink:href="../../d3/d8f/classml_1_1api_1_1_c_field_data_categorizer.html#aac21b11f7ed43197729993aea4520cda" target="_top" xlink:title=" ">
<polygon fill="white" stroke="#666666" points="338,-227.88 187,-227.88 187,-197.38 338,-197.38 338,-227.88"/>
<text text-anchor="start" x="195" y="-214.38" font-family="Helvetica,sans-Serif" font-size="10.00">ml::api::CFieldDataCategorizer</text>
<text text-anchor="middle" x="262.5" y="-203.12" font-family="Helvetica,sans-Serif" font-size="10.00">::computeAndUpdateCategory</text>
</a>
</g>
</g>
<!-- Node3&#45;&gt;Node8 -->
<g id="edge7_Node000003_Node000008" class="edge">
<title>Node3&#45;&gt;Node8</title>
<g id="a_edge7_Node000003_Node000008"><a xlink:title=" ">
<path fill="none" stroke="#63b8ff" d="M378.67,-243.44C360.16,-238.49 340.26,-233.16 322.3,-228.36"/>
<polygon fill="#63b8ff" stroke="#63b8ff" points="377.66,-246.79 388.22,-246 379.47,-240.03 377.66,-246.79"/>
</a>
</g>
</g>
<!-- Node9 -->
<g id="Node000009" class="node">
<title>Node9</title>
<g id="a_Node000009"><a xlink:href="../../d3/d8f/classml_1_1api_1_1_c_field_data_categorizer.html#ad9934d581fe7465d1317a23c0664ca82" target="_top" xlink:title=" ">
<polygon fill="white" stroke="#666666" points="151,-227.88 0,-227.88 0,-197.38 151,-197.38 151,-227.88"/>
<text text-anchor="start" x="8" y="-214.38" font-family="Helvetica,sans-Serif" font-size="10.00">ml::api::CFieldDataCategorizer</text>
<text text-anchor="middle" x="75.5" y="-203.12" font-family="Helvetica,sans-Serif" font-size="10.00">::handleRecord</text>
</a>
</g>
</g>
<!-- Node8&#45;&gt;Node9 -->
<g id="edge8_Node000008_Node000009" class="edge">
<title>Node8&#45;&gt;Node9</title>
<g id="a_edge8_Node000008_Node000009"><a xlink:title=" ">
<path fill="none" stroke="#63b8ff" d="M175.26,-212.62C167.25,-212.62 159.18,-212.62 151.29,-212.62"/>
<polygon fill="#63b8ff" stroke="#63b8ff" points="175.01,-216.13 185.01,-212.63 175.01,-209.13 175.01,-216.13"/>
</a>
</g>
</g>
<!-- Node12 -->
<g id="Node000012" class="node">
<title>Node12</title>
<g id="a_Node000012"><a xlink:href="../../d4/d7c/_c_anomaly_job_test_8cc.html#a1c24b7586202d7618f6a3a05c35f6dc1" target="_top" xlink:title=" ">
<polygon fill="white" stroke="#666666" points="336.12,-179.25 188.88,-179.25 188.88,-160 336.12,-160 336.12,-179.25"/>
<text text-anchor="middle" x="262.5" y="-165.75" font-family="Helvetica,sans-Serif" font-size="10.00">BOOST_AUTO_TEST_CASE</text>
</a>
</g>
</g>
<!-- Node11&#45;&gt;Node12 -->
<g id="edge11_Node000011_Node000012" class="edge">
<title>Node11&#45;&gt;Node12</title>
<g id="a_edge11_Node000011_Node000012"><a xlink:title=" ">
<path fill="none" stroke="#63b8ff" d="M374.99,-169.62C362.35,-169.62 349.19,-169.62 336.52,-169.62"/>
<polygon fill="#63b8ff" stroke="#63b8ff" points="374.9,-173.13 384.9,-169.63 374.9,-166.13 374.9,-173.13"/>
</a>
</g>
</g>
<!-- Node13 -->
<g id="Node000013" class="node">
<title>Node13</title>
<g id="a_Node000013"><a xlink:href="../../d4/d7c/_c_anomaly_job_test_8cc.html#a825eccea72c0de79e8382aaef2a5bf1c" target="_top" xlink:title=" ">
<polygon fill="white" stroke="#666666" points="336.12,-142.25 188.88,-142.25 188.88,-123 336.12,-123 336.12,-142.25"/>
<text text-anchor="middle" x="262.5" y="-128.75" font-family="Helvetica,sans-Serif" font-size="10.00">BOOST_AUTO_TEST_CASE</text>
</a>
</g>
</g>
<!-- Node11&#45;&gt;Node13 -->
<g id="edge12_Node000011_Node000013" class="edge">
<title>Node11&#45;&gt;Node13</title>
<g id="a_edge12_Node000011_Node000013"><a xlink:title=" ">
<path fill="none" stroke="#63b8ff" d="M375.4,-155.23C354.67,-151.05 332.47,-146.56 313.36,-142.7"/>
<polygon fill="#63b8ff" stroke="#63b8ff" points="374.43,-158.61 384.93,-157.16 375.82,-151.75 374.43,-158.61"/>
</a>
</g>
</g>
<!-- Node18 -->
<g id="Node000018" class="node">
<title>Node18</title>
<g id="a_Node000018"><a xlink:href="../../d5/d82/lib_2api_2dump__state_2_main_8cc.html#a3c04138a5bfe5d72780bb7e82a18e627" target="_top" xlink:title=" ">
<polygon fill="white" stroke="#666666" points="281,-19.25 244,-19.25 244,0 281,0 281,-19.25"/>
<text text-anchor="middle" x="262.5" y="-5.75" font-family="Helvetica,sans-Serif" font-size="10.00">main</text>
</a>
</g>
</g>
<!-- Node17&#45;&gt;Node18 -->
<g id="edge17_Node000017_Node000018" class="edge">
<title>Node17&#45;&gt;Node18</title>
<g id="a_edge17_Node000017_Node000018"><a xlink:title=" ">
<path fill="none" stroke="#63b8ff" d="M395.04,-9.62C356.99,-9.62 307.48,-9.62 281.4,-9.62"/>
<polygon fill="#63b8ff" stroke="#63b8ff" points="394.92,-13.13 404.92,-9.63 394.92,-6.13 394.92,-13.13"/>
</a>
</g>
</g>
</g>
</svg>

<g id="navigator" transform="translate(0 0)" fill="#404254">
  <rect fill="#f2f5e9" fill-opacity="0.5" stroke="#606060" stroke-width=".5" x="0" y="0" width="60" height="60"/>
  <use id="zoomplus" xlink:href="#zoomPlus" x="17" y="9" onmousedown="handleZoom(evt,'in')"/>
  <use id="zoomminus" xlink:href="#zoomMin" x="42" y="9" onmousedown="handleZoom(evt,'out')"/>
  <use id="reset" xlink:href="#resetDef" x="30" y="36" onmousedown="handleReset()"/>
   <use id="arrowup" xlink:href="#arrowUp" x="0" y="0" onmousedown="handlePan(0,-1)"/>
  <use id="arrowright" xlink:href="#arrowRight" x="0" y="0" onmousedown="handlePan(1,0)"/>
  <use id="arrowdown" xlink:href="#arrowDown" x="0" y="0" onmousedown="handlePan(0,1)"/>
  <use id="arrowleft" xlink:href="#arrowLeft" x="0" y="0" onmousedown="handlePan(-1,0)"/>
</g>
<svg viewBox="0 0 15 15" width="100%" height="30px" preserveAspectRatio="xMaxYMin meet">
 <g id="arrow_out" transform="scale(0.3 0.3)">
  <a xlink:href="classml_1_1core_1_1_c_regex_a025ebeb4a7c43e0932719c071061734e_icgraph_org.svg" target="_base">
   <rect id="button" ry="5" rx="5" y="6" x="6" height="38" width="38"
        fill="#f2f5e9" fill-opacity="0.5" stroke="#606060" stroke-width="1.0"/>
   <path id="arrow"
     d="M 11.500037,31.436501 C 11.940474,20.09759 22.043105,11.32322 32.158766,21.979434 L 37.068811,17.246167 C 37.068811,17.246167 37.088388,32 37.088388,32 L 22.160133,31.978069 C 22.160133,31.978069 26.997745,27.140456 26.997745,27.140456 C 18.528582,18.264221 13.291696,25.230495 11.500037,31.436501 z"
     style="fill:#404040;"/>
  </a>
 </g>
</svg>

<style type='text/css'>
<![CDATA[
[data-mouse-over-selected='false'] { opacity: 0.7; }
[data-mouse-over-selected='true']  { opacity: 1.0; }
]]>
</style>
<script type="application/ecmascript"><![CDATA[
document.addEventListener('DOMContentLoaded', (event) => {
  highlightEdges();
  highlightAdjacentNodes();
});
]]></script>
</svg>
