<?xml version="1.0" encoding="UTF-8" standalone="no"?>
<!DOCTYPE svg PUBLIC "-//W3C//DTD SVG 1.1//EN"
 "http://www.w3.org/Graphics/SVG/1.1/DTD/svg11.dtd">
<!-- Generated by graphviz version 10.0.1 (20240210.2158)
 -->
<!-- Title: ml::core::CRegex::tokenise Pages: 1 -->
<svg width="463pt" height="64pt"
 viewBox="0.00 0.00 463.25 64.25" xmlns="http://www.w3.org/2000/svg" xmlns:xlink="http://www.w3.org/1999/xlink">

<svg id="main" version="1.1" xmlns="http://www.w3.org/2000/svg" xmlns:xlink="http://www.w3.org/1999/xlink" xml:space="preserve" onload="init(evt)">
<style type="text/css"><![CDATA[
.node, .edge {opacity: 0.7;}
.node.selected, .edge.selected {opacity: 1;}
.edge:hover path { stroke: red; }
.edge:hover polygon { stroke: red; fill: red; }
]]></style>
<script type="application/ecmascript" xlink:href="../../svg.min.js"/>
<svg id="graph" class="graph">
<g id="graph0" class="graph" transform="scale(1 1) rotate(0) translate(4 60.25)">
<title>ml::core::CRegex::tokenise</title>
<!-- Node1 -->
<g id="Node000001" class="node">
<title>Node1</title>
<g id="a_Node000001"><a xlink:title=" ">
<polygon fill="#999999" stroke="#666666" points="136,-19.25 0,-19.25 0,0 136,0 136,-19.25"/>
<text text-anchor="middle" x="68" y="-5.75" font-family="Helvetica,sans-Serif" font-size="10.00">ml::core::CRegex::tokenise</text>
</a>
</g>
</g>
<!-- Node2 -->
<g id="Node000002" class="node">
<title>Node2</title>
<g id="a_Node000002"><a xlink:href="../../dd/dea/classml_1_1core_1_1_c_regex.html#a7e4833803d42770d9effe93c1cc1c368" target="_top" xlink:title="Simple match test for a string.">
<polygon fill="white" stroke="#666666" points="308.75,-38.25 172,-38.25 172,-19 308.75,-19 308.75,-38.25"/>
<text text-anchor="middle" x="240.38" y="-24.75" font-family="Helvetica,sans-Serif" font-size="10.00">ml::core::CRegex::matches</text>
</a>
</g>
</g>
<!-- Node1&#45;&gt;Node2 -->
<g id="edge1_Node000001_Node000002" class="edge">
<title>Node1&#45;&gt;Node2</title>
<g id="a_edge1_Node000001_Node000002"><a xlink:title=" ">
<path fill="none" stroke="#63b8ff" d="M136.34,-17.13C144.24,-18.02 152.36,-18.92 160.4,-19.82"/>
<polygon fill="#63b8ff" stroke="#63b8ff" points="159.86,-23.28 170.19,-20.91 160.64,-16.32 159.86,-23.28"/>
</a>
</g>
</g>
<!-- Node3 -->
<g id="Node000003" class="node">
<title>Node3</title>
<g id="a_Node000003"><a xlink:href="../../dd/dea/classml_1_1core_1_1_c_regex.html#a63fb8c58c14c3319f3f0308306f7adcb" target="_top" xlink:title="Get the pattern string (not a reference due to boost API)">
<polygon fill="white" stroke="#666666" points="455.25,-19.25 344.75,-19.25 344.75,0 455.25,0 455.25,-19.25"/>
<text text-anchor="middle" x="400" y="-5.75" font-family="Helvetica,sans-Serif" font-size="10.00">ml::core::CRegex::str</text>
</a>
</g>
</g>
<!-- Node1&#45;&gt;Node3 -->
<g id="edge4_Node000001_Node000003" class="edge">
<title>Node1&#45;&gt;Node3</title>
<g id="a_edge4_Node000001_Node000003"><a xlink:title=" ">
<path fill="none" stroke="#63b8ff" d="M136.18,-9.62C193.65,-9.62 275.91,-9.62 333.04,-9.62"/>
<polygon fill="#63b8ff" stroke="#63b8ff" points="332.95,-13.13 342.95,-9.63 332.95,-6.13 332.95,-13.13"/>
</a>
</g>
</g>
<!-- Node2&#45;&gt;Node2 -->
<g id="edge2_Node000002_Node000002" class="edge">
<title>Node2&#45;&gt;Node2</title>
<g id="a_edge2_Node000002_Node000002"><a xlink:title=" ">
<path fill="none" stroke="#63b8ff" d="M215.38,-38.54C203.99,-47.15 212.32,-56.25 240.38,-56.25 256.16,-56.25 265.7,-53.37 269,-49.32"/>
<polygon fill="#63b8ff" stroke="#63b8ff" points="272.36,-48.33 265.85,-39.97 265.73,-50.57 272.36,-48.33"/>
</a>
</g>
</g>
<!-- Node2&#45;&gt;Node3 -->
<g id="edge3_Node000002_Node000003" class="edge">
<title>Node2&#45;&gt;Node3</title>
<g id="a_edge3_Node000002_Node000003"><a xlink:title=" ">
<path fill="none" stroke="#63b8ff" d="M309.14,-20.46C317.19,-19.49 325.4,-18.5 333.42,-17.53"/>
<polygon fill="#63b8ff" stroke="#63b8ff" points="333.59,-21.03 343.1,-16.36 332.75,-14.09 333.59,-21.03"/>
</a>
</g>
</g>
</g>
</svg>
</svg>

<style type='text/css'>
<![CDATA[
[data-mouse-over-selected='false'] { opacity: 0.7; }
[data-mouse-over-selected='true']  { opacity: 1.0; }
]]>
</style>
<script type="application/ecmascript"><![CDATA[
document.addEventListener('DOMContentLoaded', (event) => {
  highlightEdges();
  highlightAdjacentNodes();
});
]]></script>
</svg>
