<?xml version="1.0" encoding="UTF-8" standalone="no"?>
<!DOCTYPE svg PUBLIC "-//W3C//DTD SVG 1.1//EN"
 "http://www.w3.org/Graphics/SVG/1.1/DTD/svg11.dtd">
<!-- Generated by graphviz version 10.0.1 (20240210.2158)
 -->
<!-- Title: ml::model::CResourceMonitor::addExtraMemory Pages: 1 -->
<svg width="728pt" height="241pt"
 viewBox="0.00 0.00 728.25 240.50" xmlns="http://www.w3.org/2000/svg" xmlns:xlink="http://www.w3.org/1999/xlink">
<g id="graph0" class="graph" transform="scale(1 1) rotate(0) translate(4 236.5)">
<title>ml::model::CResourceMonitor::addExtraMemory</title>
<!-- Node1 -->
<g id="Node000001" class="node">
<title>Node1</title>
<g id="a_Node000001"><a xlink:title=" ">
<polygon fill="#999999" stroke="#666666" points="146.5,-128.5 0,-128.5 0,-98 146.5,-98 146.5,-128.5"/>
<text text-anchor="start" x="8" y="-115" font-family="Helvetica,sans-Serif" font-size="10.00">ml::model::CResourceMonitor</text>
<text text-anchor="middle" x="73.25" y="-103.75" font-family="Helvetica,sans-Serif" font-size="10.00">::addExtraMemory</text>
</a>
</g>
</g>
<!-- Node2 -->
<g id="Node000002" class="node">
<title>Node2</title>
<g id="a_Node000002"><a xlink:href="../../d4/d25/classml_1_1model_1_1_c_resource_monitor.html#a1cf1c108bb07110b0d95c2e5b9e99ad5" target="_top" xlink:title=" ">
<polygon fill="white" stroke="#666666" points="329,-128.5 182.5,-128.5 182.5,-98 329,-98 329,-128.5"/>
<text text-anchor="start" x="190.5" y="-115" font-family="Helvetica,sans-Serif" font-size="10.00">ml::model::CResourceMonitor</text>
<text text-anchor="middle" x="255.75" y="-103.75" font-family="Helvetica,sans-Serif" font-size="10.00">::updateAllowAllocations</text>
</a>
</g>
</g>
<!-- Node1&#45;&gt;Node2 -->
<g id="edge1_Node000001_Node000002" class="edge">
<title>Node1&#45;&gt;Node2</title>
<g id="a_edge1_Node000001_Node000002"><a xlink:title=" ">
<path fill="none" stroke="#63b8ff" d="M146.89,-113.25C154.81,-113.25 162.92,-113.25 170.96,-113.25"/>
<polygon fill="#63b8ff" stroke="#63b8ff" points="170.75,-116.75 180.75,-113.25 170.75,-109.75 170.75,-116.75"/>
</a>
</g>
</g>
<!-- Node3 -->
<g id="Node000003" class="node">
<title>Node3</title>
<g id="a_Node000003"><a xlink:href="../../d4/d25/classml_1_1model_1_1_c_resource_monitor.html#a666a89154a86726709e80b1800861a8f" target="_top" xlink:title=" ">
<polygon fill="white" stroke="#666666" points="511.5,-214.5 365,-214.5 365,-184 511.5,-184 511.5,-214.5"/>
<text text-anchor="start" x="373" y="-201" font-family="Helvetica,sans-Serif" font-size="10.00">ml::model::CResourceMonitor</text>
<text text-anchor="middle" x="438.25" y="-189.75" font-family="Helvetica,sans-Serif" font-size="10.00">::adjustedUsage</text>
</a>
</g>
</g>
<!-- Node2&#45;&gt;Node3 -->
<g id="edge2_Node000002_Node000003" class="edge">
<title>Node2&#45;&gt;Node3</title>
<g id="a_edge2_Node000002_Node000003"><a xlink:title=" ">
<path fill="none" stroke="#63b8ff" d="M284.39,-128.81C306.03,-140.75 337.05,-157.32 365,-170.25 371.68,-173.34 378.78,-176.42 385.83,-179.37"/>
<polygon fill="#63b8ff" stroke="#63b8ff" points="384.07,-182.43 394.65,-182.99 386.73,-175.96 384.07,-182.43"/>
</a>
</g>
</g>
<!-- Node5 -->
<g id="Node000005" class="node">
<title>Node5</title>
<g id="a_Node000005"><a xlink:href="../../d3/d6d/classml_1_1core_1_1_c_program_counters.html#a0669d71b56b650d4392e16b7ebf83570" target="_top" xlink:title="Provide access to the relevant counter from the collection.">
<polygon fill="white" stroke="#666666" points="704.5,-89.5 563.25,-89.5 563.25,-59 704.5,-59 704.5,-89.5"/>
<text text-anchor="start" x="571.25" y="-76" font-family="Helvetica,sans-Serif" font-size="10.00">ml::core::CProgramCounters</text>
<text text-anchor="middle" x="633.88" y="-64.75" font-family="Helvetica,sans-Serif" font-size="10.00">::counter</text>
</a>
</g>
</g>
<!-- Node2&#45;&gt;Node5 -->
<g id="edge5_Node000002_Node000005" class="edge">
<title>Node2&#45;&gt;Node5</title>
<g id="a_edge5_Node000002_Node000005"><a xlink:title=" ">
<path fill="none" stroke="#63b8ff" d="M312.43,-128.96C364.56,-141.22 444.28,-153.66 511.5,-137.25 544.19,-129.27 577.89,-110.81 601.46,-95.93"/>
<polygon fill="#63b8ff" stroke="#63b8ff" points="603.15,-99 609.64,-90.63 599.35,-93.13 603.15,-99"/>
</a>
</g>
</g>
<!-- Node6 -->
<g id="Node000006" class="node">
<title>Node6</title>
<g id="a_Node000006"><a xlink:href="../../d4/d25/classml_1_1model_1_1_c_resource_monitor.html#adaa0f7f080ef8046ac0829817b886a3e" target="_top" xlink:title="Get the high memory limit with margin applied.">
<polygon fill="white" stroke="#666666" points="511.5,-128.5 365,-128.5 365,-98 511.5,-98 511.5,-128.5"/>
<text text-anchor="start" x="373" y="-115" font-family="Helvetica,sans-Serif" font-size="10.00">ml::model::CResourceMonitor</text>
<text text-anchor="middle" x="438.25" y="-103.75" font-family="Helvetica,sans-Serif" font-size="10.00">::highLimit</text>
</a>
</g>
</g>
<!-- Node2&#45;&gt;Node6 -->
<g id="edge7_Node000002_Node000006" class="edge">
<title>Node2&#45;&gt;Node6</title>
<g id="a_edge7_Node000002_Node000006"><a xlink:title=" ">
<path fill="none" stroke="#63b8ff" d="M329.39,-113.25C337.31,-113.25 345.42,-113.25 353.46,-113.25"/>
<polygon fill="#63b8ff" stroke="#63b8ff" points="353.25,-116.75 363.25,-113.25 353.25,-109.75 353.25,-116.75"/>
</a>
</g>
</g>
<!-- Node7 -->
<g id="Node000007" class="node">
<title>Node7</title>
<g id="a_Node000007"><a xlink:href="../../d4/d25/classml_1_1model_1_1_c_resource_monitor.html#a0b836618d7b75d94a8adf9669d8be908" target="_top" xlink:title="Get the low memory limit with margin applied.">
<polygon fill="white" stroke="#666666" points="511.5,-79.5 365,-79.5 365,-49 511.5,-49 511.5,-79.5"/>
<text text-anchor="start" x="373" y="-66" font-family="Helvetica,sans-Serif" font-size="10.00">ml::model::CResourceMonitor</text>
<text text-anchor="middle" x="438.25" y="-54.75" font-family="Helvetica,sans-Serif" font-size="10.00">::lowLimit</text>
</a>
</g>
</g>
<!-- Node2&#45;&gt;Node7 -->
<g id="edge8_Node000002_Node000007" class="edge">
<title>Node2&#45;&gt;Node7</title>
<g id="a_edge8_Node000002_Node000007"><a xlink:title=" ">
<path fill="none" stroke="#63b8ff" d="M314.36,-97.61C331.53,-92.95 350.53,-87.79 368.35,-82.96"/>
<polygon fill="#63b8ff" stroke="#63b8ff" points="369.07,-86.39 377.8,-80.39 367.23,-79.63 369.07,-86.39"/>
</a>
</g>
</g>
<!-- Node8 -->
<g id="Node000008" class="node">
<title>Node8</title>
<g id="a_Node000008"><a xlink:href="../../d4/d25/classml_1_1model_1_1_c_resource_monitor.html#aed60c474bb11e41c1cd328ced5655fc7" target="_top" xlink:title="Returns the sum of used memory plus any extra memory.">
<polygon fill="white" stroke="#666666" points="511.5,-30.5 365,-30.5 365,0 511.5,0 511.5,-30.5"/>
<text text-anchor="start" x="373" y="-17" font-family="Helvetica,sans-Serif" font-size="10.00">ml::model::CResourceMonitor</text>
<text text-anchor="middle" x="438.25" y="-5.75" font-family="Helvetica,sans-Serif" font-size="10.00">::totalMemory</text>
</a>
</g>
</g>
<!-- Node2&#45;&gt;Node8 -->
<g id="edge9_Node000002_Node000008" class="edge">
<title>Node2&#45;&gt;Node8</title>
<g id="a_edge9_Node000002_Node000008"><a xlink:title=" ">
<path fill="none" stroke="#63b8ff" d="M276.53,-97.59C297.53,-81.53 332.15,-56.66 365,-40.25 368.49,-38.51 372.13,-36.83 375.84,-35.24"/>
<polygon fill="#63b8ff" stroke="#63b8ff" points="377.06,-38.52 385.02,-31.52 374.43,-32.03 377.06,-38.52"/>
</a>
</g>
</g>
<!-- Node3&#45;&gt;Node3 -->
<g id="edge3_Node000003_Node000003" class="edge">
<title>Node3&#45;&gt;Node3</title>
<g id="a_edge3_Node000003_Node000003"><a xlink:title=" ">
<path fill="none" stroke="#63b8ff" d="M405.91,-214.99C399.31,-224.06 410.09,-232.5 438.25,-232.5 453.65,-232.5 463.85,-229.97 468.86,-226.2"/>
<polygon fill="#63b8ff" stroke="#63b8ff" points="472.29,-226.9 470.36,-216.48 465.37,-225.83 472.29,-226.9"/>
</a>
</g>
</g>
<!-- Node4 -->
<g id="Node000004" class="node">
<title>Node4</title>
<g id="a_Node000004"><a xlink:href="../../d4/d25/classml_1_1model_1_1_c_resource_monitor.html#a5282f2aeaff74272552051064aa92bcd" target="_top" xlink:title="Returns the amount by which reported memory usage is scaled depending on the type of persistence in u...">
<polygon fill="white" stroke="#666666" points="720.25,-214.5 547.5,-214.5 547.5,-184 720.25,-184 720.25,-214.5"/>
<text text-anchor="start" x="555.5" y="-201" font-family="Helvetica,sans-Serif" font-size="10.00">ml::model::CResourceMonitor</text>
<text text-anchor="middle" x="633.88" y="-189.75" font-family="Helvetica,sans-Serif" font-size="10.00">::persistenceMemoryIncreaseFactor</text>
</a>
</g>
</g>
<!-- Node3&#45;&gt;Node4 -->
<g id="edge4_Node000003_Node000004" class="edge">
<title>Node3&#45;&gt;Node4</title>
<g id="a_edge4_Node000003_Node000004"><a xlink:title=" ">
<path fill="none" stroke="#63b8ff" d="M511.9,-199.25C519.7,-199.25 527.73,-199.25 535.76,-199.25"/>
<polygon fill="#63b8ff" stroke="#63b8ff" points="535.58,-202.75 545.58,-199.25 535.58,-195.75 535.58,-202.75"/>
</a>
</g>
</g>
<!-- Node5&#45;&gt;Node5 -->
<g id="edge6_Node000005_Node000005" class="edge">
<title>Node5&#45;&gt;Node5</title>
<g id="a_edge6_Node000005_Node000005"><a xlink:title=" ">
<path fill="none" stroke="#63b8ff" d="M599.21,-89.99C592.14,-99.06 603.69,-107.5 633.88,-107.5 650.38,-107.5 661.32,-104.97 666.68,-101.2"/>
<polygon fill="#63b8ff" stroke="#63b8ff" points="670.11,-101.92 668.29,-91.48 663.21,-100.77 670.11,-101.92"/>
</a>
</g>
</g>
<!-- Node8&#45;&gt;Node5 -->
<g id="edge10_Node000008_Node000005" class="edge">
<title>Node8&#45;&gt;Node5</title>
<g id="a_edge10_Node000008_Node000005"><a xlink:title=" ">
<path fill="none" stroke="#63b8ff" d="M490.88,-30.98C515.39,-38.45 544.87,-47.44 570.61,-55.28"/>
<polygon fill="#63b8ff" stroke="#63b8ff" points="569.35,-58.55 579.94,-58.12 571.39,-51.86 569.35,-58.55"/>
</a>
</g>
</g>
</g>
</svg>
