<?xml version="1.0" encoding="UTF-8" standalone="no"?>
<!DOCTYPE svg PUBLIC "-//W3C//DTD SVG 1.1//EN"
 "http://www.w3.org/Graphics/SVG/1.1/DTD/svg11.dtd">
<!-- Generated by graphviz version 10.0.1 (20240210.2158)
 -->
<!-- Title: ml::model::CResourceMonitor::sendMemoryUsageReport Pages: 1 -->
<!--zoomable 470 -->

<svg id="main" version="1.1" xmlns="http://www.w3.org/2000/svg" xmlns:xlink="http://www.w3.org/1999/xlink" xml:space="preserve" onload="init(evt)">
<style type="text/css"><![CDATA[
.node, .edge {opacity: 0.7;}
.node.selected, .edge.selected {opacity: 1;}
.edge:hover path { stroke: red; }
.edge:hover polygon { stroke: red; fill: red; }
]]></style>

<defs>
  <circle id="rim" cx="0" cy="0" r="7"/>
  <circle id="rim2" cx="0" cy="0" r="3.5"/>
  <g id="zoomPlus">
    <use xlink:href="#rim" fill="#404040"><set attributeName="fill" to="#808080" begin="zoomplus.mouseover" end="zoomplus.mouseout"/></use>
    <path d="M-4,0h8M0,-4v8" fill="none" stroke="white" stroke-width="1.5" pointer-events="none"/>
  </g>
  <g id="zoomMin">
    <use xlink:href="#rim" fill="#404040"><set attributeName="fill" to="#808080" begin="zoomminus.mouseover" end="zoomminus.mouseout"/></use>
    <path d="M-4,0h8" fill="none" stroke="white" stroke-width="1.5" pointer-events="none"/>
  </g>
  <g id="arrowUp" transform="translate(30 24)">
    <use xlink:href="#rim"/>
    <path pointer-events="none" fill="none" stroke="white" stroke-width="1.5" d="M0,-3.0v7 M-2.5,-0.5L0,-3.0L2.5,-0.5"/>
  </g>
  <g id="arrowRight" transform="rotate(90) translate(36 -43)">
    <use xlink:href="#rim"/>
    <path pointer-events="none" fill="none" stroke="white" stroke-width="1.5" d="M0,-3.0v7 M-2.5,-0.5L0,-3.0L2.5,-0.5"/>
  </g>
  <g id="arrowDown" transform="rotate(180) translate(-30 -48)">
    <use xlink:href="#rim"/>
    <path pointer-events="none" fill="none" stroke="white" stroke-width="1.5" d="M0,-3.0v7 M-2.5,-0.5L0,-3.0L2.5,-0.5"/>
  </g>
  <g id="arrowLeft" transform="rotate(270) translate(-36 17)">
    <use xlink:href="#rim"/>
    <path pointer-events="none" fill="none" stroke="white" stroke-width="1.5" d="M0,-3.0v7 M-2.5,-0.5L0,-3.0L2.5,-0.5"/>
  </g>
  <g id="resetDef">
    <use xlink:href="#rim2" fill="#404040"><set attributeName="fill" to="#808080" begin="reset.mouseover" end="reset.mouseout"/></use>
  </g>
</defs>
<script type="application/ecmascript">
var viewWidth = 900;
var viewHeight = 470;
var sectionId = 'dynsection-44';
</script>
<script type="application/ecmascript" xlink:href="../../svg.min.js"/>
<svg id="graph" class="graph">
<g id="viewport">
<title>ml::model::CResourceMonitor::sendMemoryUsageReport</title>
<!-- Node1 -->
<g id="Node000001" class="node">
<title>Node1</title>
<g id="a_Node000001"><a xlink:title="Send a memory usage report.">
<polygon fill="#999999" stroke="#666666" points="146.5,-421.5 0,-421.5 0,-391 146.5,-391 146.5,-421.5"/>
<text text-anchor="start" x="8" y="-408" font-family="Helvetica,sans-Serif" font-size="10.00">ml::model::CResourceMonitor</text>
<text text-anchor="middle" x="73.25" y="-396.75" font-family="Helvetica,sans-Serif" font-size="10.00">::sendMemoryUsageReport</text>
</a>
</g>
</g>
<!-- Node2 -->
<g id="Node000002" class="node">
<title>Node2</title>
<g id="a_Node000002"><a xlink:href="../../d3/d6d/classml_1_1core_1_1_c_program_counters.html#a0669d71b56b650d4392e16b7ebf83570" target="_top" xlink:title="Provide access to the relevant counter from the collection.">
<polygon fill="white" stroke="#666666" points="704.5,-443.5 563.25,-443.5 563.25,-413 704.5,-413 704.5,-443.5"/>
<text text-anchor="start" x="571.25" y="-430" font-family="Helvetica,sans-Serif" font-size="10.00">ml::core::CProgramCounters</text>
<text text-anchor="middle" x="633.88" y="-418.75" font-family="Helvetica,sans-Serif" font-size="10.00">::counter</text>
</a>
</g>
</g>
<!-- Node1&#45;&gt;Node2 -->
<g id="edge1_Node000001_Node000002" class="edge">
<title>Node1&#45;&gt;Node2</title>
<g id="a_edge1_Node000001_Node000002"><a xlink:title=" ">
<path fill="none" stroke="#63b8ff" d="M136.97,-421.99C151.83,-425.37 167.67,-428.69 182.5,-431.25 326.89,-456.15 365.68,-466.53 511.5,-452.25 525.42,-450.89 540.1,-448.67 554.27,-446.11"/>
<polygon fill="#63b8ff" stroke="#63b8ff" points="554.83,-449.57 564.01,-444.28 553.53,-442.69 554.83,-449.57"/>
</a>
</g>
</g>
<!-- Node3 -->
<g id="Node000003" class="node">
<title>Node3</title>
<g id="a_Node000003"><a xlink:href="../../d4/d25/classml_1_1model_1_1_c_resource_monitor.html#a5f82e91dd4ca8a852f8429b1c8a05477" target="_top" xlink:title="Create a memory usage report.">
<polygon fill="white" stroke="#666666" points="329,-400.5 182.5,-400.5 182.5,-370 329,-370 329,-400.5"/>
<text text-anchor="start" x="190.5" y="-387" font-family="Helvetica,sans-Serif" font-size="10.00">ml::model::CResourceMonitor</text>
<text text-anchor="middle" x="255.75" y="-375.75" font-family="Helvetica,sans-Serif" font-size="10.00">::createMemoryUsageReport</text>
</a>
</g>
</g>
<!-- Node1&#45;&gt;Node3 -->
<g id="edge3_Node000001_Node000003" class="edge">
<title>Node1&#45;&gt;Node3</title>
<g id="a_edge3_Node000001_Node000003"><a xlink:title=" ">
<path fill="none" stroke="#63b8ff" d="M146.89,-397.8C154.81,-396.88 162.92,-395.93 170.96,-395"/>
<polygon fill="#63b8ff" stroke="#63b8ff" points="171.23,-398.49 180.76,-393.86 170.42,-391.54 171.23,-398.49"/>
</a>
</g>
</g>
<!-- Node6 -->
<g id="Node000006" class="node">
<title>Node6</title>
<g id="a_Node000006"><a xlink:href="../../d4/d25/classml_1_1model_1_1_c_resource_monitor.html#aed60c474bb11e41c1cd328ced5655fc7" target="_top" xlink:title="Returns the sum of used memory plus any extra memory.">
<polygon fill="white" stroke="#666666" points="511.5,-443.5 365,-443.5 365,-413 511.5,-413 511.5,-443.5"/>
<text text-anchor="start" x="373" y="-430" font-family="Helvetica,sans-Serif" font-size="10.00">ml::model::CResourceMonitor</text>
<text text-anchor="middle" x="438.25" y="-418.75" font-family="Helvetica,sans-Serif" font-size="10.00">::totalMemory</text>
</a>
</g>
</g>
<!-- Node1&#45;&gt;Node6 -->
<g id="edge23_Node000001_Node000006" class="edge">
<title>Node1&#45;&gt;Node6</title>
<g id="a_edge23_Node000001_Node000006"><a xlink:title=" ">
<path fill="none" stroke="#63b8ff" d="M146.84,-410.65C206.44,-414.26 290.9,-419.38 353.39,-423.17"/>
<polygon fill="#63b8ff" stroke="#63b8ff" points="353.09,-426.66 363.28,-423.77 353.51,-419.67 353.09,-426.66"/>
</a>
</g>
</g>
<!-- Node7 -->
<g id="Node000007" class="node">
<title>Node7</title>
<g id="a_Node000007"><a xlink:href="../../d4/d25/classml_1_1model_1_1_c_resource_monitor.html#abedfc9148cb757e009bec2f83b645354" target="_top" xlink:title=" ">
<polygon fill="white" stroke="#666666" points="329,-154.5 182.5,-154.5 182.5,-124 329,-124 329,-154.5"/>
<text text-anchor="start" x="190.5" y="-141" font-family="Helvetica,sans-Serif" font-size="10.00">ml::model::CResourceMonitor</text>
<text text-anchor="middle" x="255.75" y="-129.75" font-family="Helvetica,sans-Serif" font-size="10.00">::isMemoryStable</text>
</a>
</g>
</g>
<!-- Node1&#45;&gt;Node7 -->
<g id="edge11_Node000001_Node000007" class="edge">
<title>Node1&#45;&gt;Node7</title>
<g id="a_edge11_Node000001_Node000007"><a xlink:title=" ">
<path fill="none" stroke="#63b8ff" d="M84.73,-390.74C114.77,-346.32 201.3,-218.31 237.99,-164.04"/>
<polygon fill="#63b8ff" stroke="#63b8ff" points="240.69,-166.3 243.39,-156.06 234.89,-162.38 240.69,-166.3"/>
</a>
</g>
</g>
<!-- Node2&#45;&gt;Node2 -->
<g id="edge2_Node000002_Node000002" class="edge">
<title>Node2&#45;&gt;Node2</title>
<g id="a_edge2_Node000002_Node000002"><a xlink:title=" ">
<path fill="none" stroke="#63b8ff" d="M600.21,-443.99C593.34,-453.06 604.56,-461.5 633.88,-461.5 649.91,-461.5 660.53,-458.97 665.74,-455.2"/>
<polygon fill="#63b8ff" stroke="#63b8ff" points="669.17,-455.91 667.3,-445.48 662.26,-454.8 669.17,-455.91"/>
</a>
</g>
</g>
<!-- Node3&#45;&gt;Node2 -->
<g id="edge7_Node000003_Node000002" class="edge">
<title>Node3&#45;&gt;Node2</title>
<g id="a_edge7_Node000003_Node000002"><a xlink:title=" ">
<path fill="none" stroke="#63b8ff" d="M329.47,-388.34C380.56,-391.07 450.41,-395.96 511.5,-404.25 524.55,-406.02 538.32,-408.32 551.71,-410.79"/>
<polygon fill="#63b8ff" stroke="#63b8ff" points="550.87,-414.2 561.35,-412.62 552.18,-407.32 550.87,-414.2"/>
</a>
</g>
</g>
<!-- Node4 -->
<g id="Node000004" class="node">
<title>Node4</title>
<g id="a_Node000004"><a xlink:href="../../d4/d25/classml_1_1model_1_1_c_resource_monitor.html#a666a89154a86726709e80b1800861a8f" target="_top" xlink:title=" ">
<polygon fill="white" stroke="#666666" points="511.5,-301.5 365,-301.5 365,-271 511.5,-271 511.5,-301.5"/>
<text text-anchor="start" x="373" y="-288" font-family="Helvetica,sans-Serif" font-size="10.00">ml::model::CResourceMonitor</text>
<text text-anchor="middle" x="438.25" y="-276.75" font-family="Helvetica,sans-Serif" font-size="10.00">::adjustedUsage</text>
</a>
</g>
</g>
<!-- Node3&#45;&gt;Node4 -->
<g id="edge4_Node000003_Node000004" class="edge">
<title>Node3&#45;&gt;Node4</title>
<g id="a_edge4_Node000003_Node000004"><a xlink:title=" ">
<path fill="none" stroke="#63b8ff" d="M285.35,-369.56C315.98,-352.76 364.76,-326.01 398.75,-307.37"/>
<polygon fill="#63b8ff" stroke="#63b8ff" points="400.37,-310.47 407.46,-302.59 397.01,-304.33 400.37,-310.47"/>
</a>
</g>
</g>
<!-- Node5 -->
<g id="Node000005" class="node">
<title>Node5</title>
<g id="a_Node000005"><a xlink:href="../../d4/d25/classml_1_1model_1_1_c_resource_monitor.html#a5282f2aeaff74272552051064aa92bcd" target="_top" xlink:title="Returns the amount by which reported memory usage is scaled depending on the type of persistence in u...">
<polygon fill="white" stroke="#666666" points="720.25,-331.5 547.5,-331.5 547.5,-301 720.25,-301 720.25,-331.5"/>
<text text-anchor="start" x="555.5" y="-318" font-family="Helvetica,sans-Serif" font-size="10.00">ml::model::CResourceMonitor</text>
<text text-anchor="middle" x="633.88" y="-306.75" font-family="Helvetica,sans-Serif" font-size="10.00">::persistenceMemoryIncreaseFactor</text>
</a>
</g>
</g>
<!-- Node3&#45;&gt;Node5 -->
<g id="edge8_Node000003_Node000005" class="edge">
<title>Node3&#45;&gt;Node5</title>
<g id="a_edge8_Node000003_Node000005"><a xlink:title=" ">
<path fill="none" stroke="#63b8ff" d="M329.27,-371.95C388.09,-361.15 471.54,-345.85 536.07,-334.01"/>
<polygon fill="#63b8ff" stroke="#63b8ff" points="536.38,-337.51 545.58,-332.26 535.11,-330.63 536.38,-337.51"/>
</a>
</g>
</g>
<!-- Node3&#45;&gt;Node6 -->
<g id="edge9_Node000003_Node000006" class="edge">
<title>Node3&#45;&gt;Node6</title>
<g id="a_edge9_Node000003_Node000006"><a xlink:title=" ">
<path fill="none" stroke="#63b8ff" d="M322.68,-400.96C334.91,-403.87 347.78,-406.94 360.31,-409.92"/>
<polygon fill="#63b8ff" stroke="#63b8ff" points="359.18,-413.25 369.72,-412.16 360.81,-406.44 359.18,-413.25"/>
</a>
</g>
</g>
<!-- Node4&#45;&gt;Node4 -->
<g id="edge5_Node000004_Node000004" class="edge">
<title>Node4&#45;&gt;Node4</title>
<g id="a_edge5_Node000004_Node000004"><a xlink:title=" ">
<path fill="none" stroke="#63b8ff" d="M405.91,-301.99C399.31,-311.06 410.09,-319.5 438.25,-319.5 453.65,-319.5 463.85,-316.97 468.86,-313.2"/>
<polygon fill="#63b8ff" stroke="#63b8ff" points="472.29,-313.9 470.36,-303.48 465.37,-312.83 472.29,-313.9"/>
</a>
</g>
</g>
<!-- Node4&#45;&gt;Node5 -->
<g id="edge6_Node000004_Node000005" class="edge">
<title>Node4&#45;&gt;Node5</title>
<g id="a_edge6_Node000004_Node000005"><a xlink:title=" ">
<path fill="none" stroke="#63b8ff" d="M511.9,-297.51C519.7,-298.72 527.73,-299.96 535.76,-301.2"/>
<polygon fill="#63b8ff" stroke="#63b8ff" points="535.18,-304.66 545.6,-302.73 536.25,-297.74 535.18,-304.66"/>
</a>
</g>
</g>
<!-- Node6&#45;&gt;Node2 -->
<g id="edge10_Node000006_Node000002" class="edge">
<title>Node6&#45;&gt;Node2</title>
<g id="a_edge10_Node000006_Node000002"><a xlink:title=" ">
<path fill="none" stroke="#63b8ff" d="M511.9,-428.25C524.85,-428.25 538.41,-428.25 551.58,-428.25"/>
<polygon fill="#63b8ff" stroke="#63b8ff" points="551.51,-431.75 561.51,-428.25 551.51,-424.75 551.51,-431.75"/>
</a>
</g>
</g>
<!-- Node8 -->
<g id="Node000008" class="node">
<title>Node8</title>
<g id="a_Node000008"><a xlink:href="../../d4/d55/classml_1_1maths_1_1common_1_1_c_basic_statistics.html#a6a8651e3b13d0aaa6577af10dfdd97f7" target="_top" xlink:title="Extract the count from an accumulator object.">
<polygon fill="white" stroke="#666666" points="498,-252.5 378.5,-252.5 378.5,-222 498,-222 498,-252.5"/>
<text text-anchor="start" x="386.5" y="-239" font-family="Helvetica,sans-Serif" font-size="10.00">ml::maths::common::</text>
<text text-anchor="middle" x="438.25" y="-227.75" font-family="Helvetica,sans-Serif" font-size="10.00">CBasicStatistics::count</text>
</a>
</g>
</g>
<!-- Node7&#45;&gt;Node8 -->
<g id="edge12_Node000007_Node000008" class="edge">
<title>Node7&#45;&gt;Node8</title>
<g id="a_edge12_Node000007_Node000008"><a xlink:title=" ">
<path fill="none" stroke="#63b8ff" d="M276.53,-154.91C297.53,-170.97 332.15,-195.84 365,-212.25 368.49,-213.99 372.13,-215.67 375.84,-217.26"/>
<polygon fill="#63b8ff" stroke="#63b8ff" points="374.43,-220.47 385.02,-220.98 377.06,-213.98 374.43,-220.47"/>
</a>
</g>
</g>
<!-- Node9 -->
<g id="Node000009" class="node">
<title>Node9</title>
<g id="a_Node000009"><a xlink:href="../../dd/dc8/classml_1_1maths_1_1common_1_1_c_maths_funcs.html#a55029f09f9f7e9eb786219fefbb8ff72" target="_top" xlink:title="Check if value is NaN.">
<polygon fill="white" stroke="#666666" points="492.75,-203.5 383.75,-203.5 383.75,-173 492.75,-173 492.75,-203.5"/>
<text text-anchor="start" x="391.75" y="-190" font-family="Helvetica,sans-Serif" font-size="10.00">ml::maths::common::</text>
<text text-anchor="middle" x="438.25" y="-178.75" font-family="Helvetica,sans-Serif" font-size="10.00">CMathsFuncs::isNan</text>
</a>
</g>
</g>
<!-- Node7&#45;&gt;Node9 -->
<g id="edge13_Node000007_Node000009" class="edge">
<title>Node7&#45;&gt;Node9</title>
<g id="a_edge13_Node000007_Node000009"><a xlink:title=" ">
<path fill="none" stroke="#63b8ff" d="M314.36,-154.89C332.81,-159.9 353.38,-165.48 372.32,-170.62"/>
<polygon fill="#63b8ff" stroke="#63b8ff" points="371.23,-173.95 381.8,-173.2 373.06,-167.2 371.23,-173.95"/>
</a>
</g>
</g>
<!-- Node10 -->
<g id="Node000010" class="node">
<title>Node10</title>
<g id="a_Node000010"><a xlink:href="../../d4/d55/classml_1_1maths_1_1common_1_1_c_basic_statistics.html#a9a136b1823e9938247cd29bb0ffea440" target="_top" xlink:title="Compute the mean of a pair.">
<polygon fill="white" stroke="#666666" points="498,-154.5 378.5,-154.5 378.5,-124 498,-124 498,-154.5"/>
<text text-anchor="start" x="386.5" y="-141" font-family="Helvetica,sans-Serif" font-size="10.00">ml::maths::common::</text>
<text text-anchor="middle" x="438.25" y="-129.75" font-family="Helvetica,sans-Serif" font-size="10.00">CBasicStatistics::mean</text>
</a>
</g>
</g>
<!-- Node7&#45;&gt;Node10 -->
<g id="edge14_Node000007_Node000010" class="edge">
<title>Node7&#45;&gt;Node10</title>
<g id="a_edge14_Node000007_Node000010"><a xlink:title=" ">
<path fill="none" stroke="#63b8ff" d="M329.39,-139.25C341.64,-139.25 354.33,-139.25 366.53,-139.25"/>
<polygon fill="#63b8ff" stroke="#63b8ff" points="366.53,-142.75 376.53,-139.25 366.53,-135.75 366.53,-142.75"/>
</a>
</g>
</g>
<!-- Node11 -->
<g id="Node000011" class="node">
<title>Node11</title>
<g id="a_Node000011"><a xlink:href="../../d6/dd5/namespaceml_1_1maths_1_1common.html#a37f8b7909e617ad623600aead4cfc868" target="_top" xlink:title="Compute the distribution mean.">
<polygon fill="white" stroke="#666666" points="504.75,-105.88 371.75,-105.88 371.75,-86.62 504.75,-86.62 504.75,-105.88"/>
<text text-anchor="middle" x="438.25" y="-92.38" font-family="Helvetica,sans-Serif" font-size="10.00">ml::maths::common::mean</text>
</a>
</g>
</g>
<!-- Node7&#45;&gt;Node11 -->
<g id="edge15_Node000007_Node000011" class="edge">
<title>Node7&#45;&gt;Node11</title>
<g id="a_edge15_Node000007_Node000011"><a xlink:title=" ">
<path fill="none" stroke="#63b8ff" d="M322.68,-123.54C342.8,-118.75 364.66,-113.54 383.85,-108.97"/>
<polygon fill="#63b8ff" stroke="#63b8ff" points="384.41,-112.44 393.32,-106.71 382.79,-105.63 384.41,-112.44"/>
</a>
</g>
</g>
<!-- Node15 -->
<g id="Node000015" class="node">
<title>Node15</title>
<g id="a_Node000015"><a xlink:href="../../dd/d55/classml_1_1maths_1_1common_1_1_c_tools.html#aa0600053da91719428498ec9968916c3" target="_top" xlink:title="Compute .">
<polygon fill="white" stroke="#666666" points="878.38,-68.5 769.38,-68.5 769.38,-38 878.38,-38 878.38,-68.5"/>
<text text-anchor="start" x="777.38" y="-55" font-family="Helvetica,sans-Serif" font-size="10.00">ml::maths::common::</text>
<text text-anchor="middle" x="823.88" y="-43.75" font-family="Helvetica,sans-Serif" font-size="10.00">CTools::pow2</text>
</a>
</g>
</g>
<!-- Node7&#45;&gt;Node15 -->
<g id="edge21_Node000007_Node000015" class="edge">
<title>Node7&#45;&gt;Node15</title>
<g id="a_edge21_Node000007_Node000015"><a xlink:title=" ">
<path fill="none" stroke="#63b8ff" d="M276.98,-123.76C297.78,-108.81 331.76,-87.03 365,-77.25 500.15,-37.47 667.29,-41.22 757.58,-47.33"/>
<polygon fill="#63b8ff" stroke="#63b8ff" points="757.27,-50.82 767.49,-48.04 757.76,-43.83 757.27,-50.82"/>
</a>
</g>
</g>
<!-- Node17 -->
<g id="Node000017" class="node">
<title>Node17</title>
<g id="a_Node000017"><a xlink:href="../../d4/d55/classml_1_1maths_1_1common_1_1_c_basic_statistics.html#a53b366eca7a0bae43e1c6d54573f3dcb" target="_top" xlink:title=" ">
<polygon fill="white" stroke="#666666" points="504.38,-30.5 372.12,-30.5 372.12,0 504.38,0 504.38,-30.5"/>
<text text-anchor="start" x="380.12" y="-17" font-family="Helvetica,sans-Serif" font-size="10.00">ml::maths::common::</text>
<text text-anchor="middle" x="438.25" y="-5.75" font-family="Helvetica,sans-Serif" font-size="10.00">CBasicStatistics::variance</text>
</a>
</g>
</g>
<!-- Node7&#45;&gt;Node17 -->
<g id="edge22_Node000007_Node000017" class="edge">
<title>Node7&#45;&gt;Node17</title>
<g id="a_edge22_Node000007_Node000017"><a xlink:title=" ">
<path fill="none" stroke="#63b8ff" d="M271.21,-123.62C290.82,-103.14 327.72,-67.16 365,-44.25 370.11,-41.11 375.62,-38.19 381.24,-35.5"/>
<polygon fill="#63b8ff" stroke="#63b8ff" points="382.34,-38.84 390.02,-31.55 379.46,-32.46 382.34,-38.84"/>
</a>
</g>
</g>
<!-- Node12 -->
<g id="Node000012" class="node">
<title>Node12</title>
<g id="a_Node000012"><a xlink:href="../../d6/dd5/namespaceml_1_1maths_1_1common.html#aa139fb07823365e51bd2f01178d7a61a" target="_top" xlink:title="Compute the mode for distribution.">
<polygon fill="white" stroke="#666666" points="700.38,-111.88 567.38,-111.88 567.38,-92.62 700.38,-92.62 700.38,-111.88"/>
<text text-anchor="middle" x="633.88" y="-98.38" font-family="Helvetica,sans-Serif" font-size="10.00">ml::maths::common::mode</text>
</a>
</g>
</g>
<!-- Node11&#45;&gt;Node12 -->
<g id="edge16_Node000011_Node000012" class="edge">
<title>Node11&#45;&gt;Node12</title>
<g id="a_edge16_Node000011_Node000012"><a xlink:title=" ">
<path fill="none" stroke="#63b8ff" d="M505.07,-98.29C521.28,-98.79 538.79,-99.33 555.5,-99.85"/>
<polygon fill="#63b8ff" stroke="#63b8ff" points="555.29,-103.35 565.39,-100.16 555.51,-96.35 555.29,-103.35"/>
</a>
</g>
</g>
<!-- Node13 -->
<g id="Node000013" class="node">
<title>Node13</title>
<g id="a_Node000013"><a xlink:href="../../d0/d1c/classml_1_1maths_1_1common_1_1_c_log_t_distribution.html#a128ce0a627956e7931be0358fe995d2d" target="_top" xlink:title=" ">
<polygon fill="white" stroke="#666666" points="891.5,-226.12 756.25,-226.12 756.25,-184.38 891.5,-184.38 891.5,-226.12"/>
<text text-anchor="start" x="764.25" y="-212.62" font-family="Helvetica,sans-Serif" font-size="10.00">ml::maths::common::</text>
<text text-anchor="start" x="764.25" y="-201.38" font-family="Helvetica,sans-Serif" font-size="10.00">CLogTDistribution::degrees</text>
<text text-anchor="middle" x="823.88" y="-190.12" font-family="Helvetica,sans-Serif" font-size="10.00">Freedom</text>
</a>
</g>
</g>
<!-- Node12&#45;&gt;Node13 -->
<g id="edge17_Node000012_Node000013" class="edge">
<title>Node12&#45;&gt;Node13</title>
<g id="a_edge17_Node000012_Node000013"><a xlink:title=" ">
<path fill="none" stroke="#63b8ff" d="M650.25,-112.3C672.96,-126.97 717.04,-154.72 756.25,-175.25 758.62,-176.49 761.05,-177.73 763.52,-178.96"/>
<polygon fill="#63b8ff" stroke="#63b8ff" points="761.91,-182.07 772.44,-183.29 764.97,-175.77 761.91,-182.07"/>
</a>
</g>
</g>
<!-- Node14 -->
<g id="Node000014" class="node">
<title>Node14</title>
<g id="a_Node000014"><a xlink:href="../../d0/d1c/classml_1_1maths_1_1common_1_1_c_log_t_distribution.html#a4267908e2f6c547fd21f75a77f6bee78" target="_top" xlink:title=" ">
<polygon fill="white" stroke="#666666" points="891.12,-166.5 756.62,-166.5 756.62,-136 891.12,-136 891.12,-166.5"/>
<text text-anchor="start" x="764.62" y="-153" font-family="Helvetica,sans-Serif" font-size="10.00">ml::maths::common::</text>
<text text-anchor="middle" x="823.88" y="-141.75" font-family="Helvetica,sans-Serif" font-size="10.00">CLogTDistribution::location</text>
</a>
</g>
</g>
<!-- Node12&#45;&gt;Node14 -->
<g id="edge18_Node000012_Node000014" class="edge">
<title>Node12&#45;&gt;Node14</title>
<g id="a_edge18_Node000012_Node000014"><a xlink:title=" ">
<path fill="none" stroke="#63b8ff" d="M673.37,-112.28C695.94,-118.17 725.15,-125.78 751.76,-132.72"/>
<polygon fill="#63b8ff" stroke="#63b8ff" points="750.56,-136.02 761.12,-135.16 752.33,-129.25 750.56,-136.02"/>
</a>
</g>
</g>
<!-- Node12&#45;&gt;Node15 -->
<g id="edge19_Node000012_Node000015" class="edge">
<title>Node12&#45;&gt;Node15</title>
<g id="a_edge19_Node000012_Node000015"><a xlink:title=" ">
<path fill="none" stroke="#63b8ff" d="M673.37,-92.22C697.75,-85.86 729.88,-77.49 758.1,-70.13"/>
<polygon fill="#63b8ff" stroke="#63b8ff" points="758.85,-73.55 767.64,-67.65 757.08,-66.78 758.85,-73.55"/>
</a>
</g>
</g>
<!-- Node16 -->
<g id="Node000016" class="node">
<title>Node16</title>
<g id="a_Node000016"><a xlink:href="../../d0/d1c/classml_1_1maths_1_1common_1_1_c_log_t_distribution.html#a8f03f27080a2f59d3da535b4b4f228ef" target="_top" xlink:title=" ">
<polygon fill="white" stroke="#666666" points="885.88,-117.5 761.88,-117.5 761.88,-87 885.88,-87 885.88,-117.5"/>
<text text-anchor="start" x="769.88" y="-104" font-family="Helvetica,sans-Serif" font-size="10.00">ml::maths::common::</text>
<text text-anchor="middle" x="823.88" y="-92.75" font-family="Helvetica,sans-Serif" font-size="10.00">CLogTDistribution::scale</text>
</a>
</g>
</g>
<!-- Node12&#45;&gt;Node16 -->
<g id="edge20_Node000012_Node000016" class="edge">
<title>Node12&#45;&gt;Node16</title>
<g id="a_edge20_Node000012_Node000016"><a xlink:title=" ">
<path fill="none" stroke="#63b8ff" d="M700.63,-102.25C716.72,-102.25 734.02,-102.25 750.4,-102.25"/>
<polygon fill="#63b8ff" stroke="#63b8ff" points="750.06,-105.75 760.06,-102.25 750.06,-98.75 750.06,-105.75"/>
</a>
</g>
</g>
</g>
</svg>

<g id="navigator" transform="translate(0 0)" fill="#404254">
  <rect fill="#f2f5e9" fill-opacity="0.5" stroke="#606060" stroke-width=".5" x="0" y="0" width="60" height="60"/>
  <use id="zoomplus" xlink:href="#zoomPlus" x="17" y="9" onmousedown="handleZoom(evt,'in')"/>
  <use id="zoomminus" xlink:href="#zoomMin" x="42" y="9" onmousedown="handleZoom(evt,'out')"/>
  <use id="reset" xlink:href="#resetDef" x="30" y="36" onmousedown="handleReset()"/>
   <use id="arrowup" xlink:href="#arrowUp" x="0" y="0" onmousedown="handlePan(0,-1)"/>
  <use id="arrowright" xlink:href="#arrowRight" x="0" y="0" onmousedown="handlePan(1,0)"/>
  <use id="arrowdown" xlink:href="#arrowDown" x="0" y="0" onmousedown="handlePan(0,1)"/>
  <use id="arrowleft" xlink:href="#arrowLeft" x="0" y="0" onmousedown="handlePan(-1,0)"/>
</g>
<svg viewBox="0 0 15 15" width="100%" height="30px" preserveAspectRatio="xMaxYMin meet">
 <g id="arrow_out" transform="scale(0.3 0.3)">
  <a xlink:href="classml_1_1model_1_1_c_resource_monitor_abeebb44ec8686a7ebfc7cc8a545b18e7_cgraph_org.svg" target="_base">
   <rect id="button" ry="5" rx="5" y="6" x="6" height="38" width="38"
        fill="#f2f5e9" fill-opacity="0.5" stroke="#606060" stroke-width="1.0"/>
   <path id="arrow"
     d="M 11.500037,31.436501 C 11.940474,20.09759 22.043105,11.32322 32.158766,21.979434 L 37.068811,17.246167 C 37.068811,17.246167 37.088388,32 37.088388,32 L 22.160133,31.978069 C 22.160133,31.978069 26.997745,27.140456 26.997745,27.140456 C 18.528582,18.264221 13.291696,25.230495 11.500037,31.436501 z"
     style="fill:#404040;"/>
  </a>
 </g>
</svg>

<style type='text/css'>
<![CDATA[
[data-mouse-over-selected='false'] { opacity: 0.7; }
[data-mouse-over-selected='true']  { opacity: 1.0; }
]]>
</style>
<script type="application/ecmascript"><![CDATA[
document.addEventListener('DOMContentLoaded', (event) => {
  highlightEdges();
  highlightAdjacentNodes();
});
]]></script>
</svg>
