<?xml version="1.0" encoding="UTF-8" standalone="no"?>
<!DOCTYPE svg PUBLIC "-//W3C//DTD SVG 1.1//EN"
 "http://www.w3.org/Graphics/SVG/1.1/DTD/svg11.dtd">
<!-- Generated by graphviz version 10.0.1 (20240210.2158)
 -->
<!-- Title: ml::core::CTimeUtils::strptimeSilent Pages: 1 -->
<svg width="282pt" height="241pt"
 viewBox="0.00 0.00 281.50 240.50" xmlns="http://www.w3.org/2000/svg" xmlns:xlink="http://www.w3.org/1999/xlink">
<g id="graph0" class="graph" transform="scale(1 1) rotate(0) translate(4 236.5)">
<title>ml::core::CTimeUtils::strptimeSilent</title>
<!-- Node1 -->
<g id="Node000001" class="node">
<title>Node1</title>
<g id="a_Node000001"><a xlink:title="Same strptime interface as above, but doesn&#39;t print any error messages.">
<polygon fill="#999999" stroke="#666666" points="106.75,-122.5 0,-122.5 0,-92 106.75,-92 106.75,-122.5"/>
<text text-anchor="start" x="8" y="-109" font-family="Helvetica,sans-Serif" font-size="10.00">ml::core::CTimeUtils</text>
<text text-anchor="middle" x="53.38" y="-97.75" font-family="Helvetica,sans-Serif" font-size="10.00">::strptimeSilent</text>
</a>
</g>
</g>
<!-- Node2 -->
<g id="Node000002" class="node">
<title>Node2</title>
<g id="a_Node000002"><a xlink:href="../../d3/dbc/classml_1_1core_1_1_c_timezone.html#a2902c3156d206af22cc5a10ada54cbe9" target="_top" xlink:title="Get the singleton instance.">
<polygon fill="white" stroke="#666666" points="261.88,-214.5 154.38,-214.5 154.38,-184 261.88,-184 261.88,-214.5"/>
<text text-anchor="start" x="162.38" y="-201" font-family="Helvetica,sans-Serif" font-size="10.00">ml::core::CTimezone</text>
<text text-anchor="middle" x="208.12" y="-189.75" font-family="Helvetica,sans-Serif" font-size="10.00">::instance</text>
</a>
</g>
</g>
<!-- Node1&#45;&gt;Node2 -->
<g id="edge1_Node000001_Node000002" class="edge">
<title>Node1&#45;&gt;Node2</title>
<g id="a_edge1_Node000001_Node000002"><a xlink:title=" ">
<path fill="none" stroke="#63b8ff" d="M71.96,-122.94C89.1,-137.65 116.36,-159.5 142.75,-174.25 145.6,-175.84 148.56,-177.37 151.59,-178.85"/>
<polygon fill="#63b8ff" stroke="#63b8ff" points="150.13,-182.03 160.68,-182.98 153.03,-175.65 150.13,-182.03"/>
</a>
</g>
</g>
<!-- Node3 -->
<g id="Node000003" class="node">
<title>Node3</title>
<g id="a_Node000003"><a xlink:href="../../d3/dbc/classml_1_1core_1_1_c_timezone.html#a5fd3ab180b8213700bbb129bb31d79fd" target="_top" xlink:title=" ">
<polygon fill="white" stroke="#666666" points="261.88,-165.5 154.38,-165.5 154.38,-135 261.88,-135 261.88,-165.5"/>
<text text-anchor="start" x="162.38" y="-152" font-family="Helvetica,sans-Serif" font-size="10.00">ml::core::CTimezone</text>
<text text-anchor="middle" x="208.12" y="-140.75" font-family="Helvetica,sans-Serif" font-size="10.00">::localToUtc</text>
</a>
</g>
</g>
<!-- Node1&#45;&gt;Node3 -->
<g id="edge3_Node000001_Node000003" class="edge">
<title>Node1&#45;&gt;Node3</title>
<g id="a_edge3_Node000001_Node000003"><a xlink:title=" ">
<path fill="none" stroke="#63b8ff" d="M106.94,-122.05C118.57,-125.32 131.02,-128.83 143.05,-132.21"/>
<polygon fill="#63b8ff" stroke="#63b8ff" points="141.91,-135.53 152.48,-134.87 143.81,-128.79 141.91,-135.53"/>
</a>
</g>
</g>
<!-- Node4 -->
<g id="Node000004" class="node">
<title>Node4</title>
<g id="a_Node000004"><a xlink:href="../../dd/df4/classml_1_1core_1_1_c_time_utils.html#aac7a09b1eb8cb23144bbf5535678fa76" target="_top" xlink:title="Current time in seconds since the epoch.">
<polygon fill="white" stroke="#666666" points="273.5,-116.88 142.75,-116.88 142.75,-97.62 273.5,-97.62 273.5,-116.88"/>
<text text-anchor="middle" x="208.12" y="-103.38" font-family="Helvetica,sans-Serif" font-size="10.00">ml::core::CTimeUtils::now</text>
</a>
</g>
</g>
<!-- Node1&#45;&gt;Node4 -->
<g id="edge4_Node000001_Node000004" class="edge">
<title>Node1&#45;&gt;Node4</title>
<g id="a_edge4_Node000001_Node000004"><a xlink:title=" ">
<path fill="none" stroke="#63b8ff" d="M106.94,-107.25C114.69,-107.25 122.79,-107.25 130.89,-107.25"/>
<polygon fill="#63b8ff" stroke="#63b8ff" points="130.8,-110.75 140.8,-107.25 130.8,-103.75 130.8,-110.75"/>
</a>
</g>
</g>
<!-- Node5 -->
<g id="Node000005" class="node">
<title>Node5</title>
<g id="a_Node000005"><a xlink:href="../../d1/da1/classml_1_1core_1_1_c_str_p_time.html#a33a5ec8b16f0d92b9d31c2adcd5024f6" target="_top" xlink:title=" ">
<polygon fill="white" stroke="#666666" points="261.12,-79.5 155.12,-79.5 155.12,-49 261.12,-49 261.12,-79.5"/>
<text text-anchor="start" x="163.12" y="-66" font-family="Helvetica,sans-Serif" font-size="10.00">ml::core::CStrPTime</text>
<text text-anchor="middle" x="208.12" y="-54.75" font-family="Helvetica,sans-Serif" font-size="10.00">::strPTime</text>
</a>
</g>
</g>
<!-- Node1&#45;&gt;Node5 -->
<g id="edge5_Node000001_Node000005" class="edge">
<title>Node1&#45;&gt;Node5</title>
<g id="a_edge5_Node000001_Node000005"><a xlink:title=" ">
<path fill="none" stroke="#63b8ff" d="M106.94,-92.45C118.77,-89.12 131.44,-85.55 143.66,-82.12"/>
<polygon fill="#63b8ff" stroke="#63b8ff" points="144.58,-85.49 153.26,-79.41 142.69,-78.75 144.58,-85.49"/>
</a>
</g>
</g>
<!-- Node6 -->
<g id="Node000006" class="node">
<title>Node6</title>
<g id="a_Node000006"><a xlink:href="../../d3/dbc/classml_1_1core_1_1_c_timezone.html#a105014c82ea43b365e7f7431d81f6dc7" target="_top" xlink:title="Convert a UTC time to local time in the current timezone.">
<polygon fill="white" stroke="#666666" points="261.88,-30.5 154.38,-30.5 154.38,0 261.88,0 261.88,-30.5"/>
<text text-anchor="start" x="162.38" y="-17" font-family="Helvetica,sans-Serif" font-size="10.00">ml::core::CTimezone</text>
<text text-anchor="middle" x="208.12" y="-5.75" font-family="Helvetica,sans-Serif" font-size="10.00">::utcToLocal</text>
</a>
</g>
</g>
<!-- Node1&#45;&gt;Node6 -->
<g id="edge6_Node000001_Node000006" class="edge">
<title>Node1&#45;&gt;Node6</title>
<g id="a_edge6_Node000001_Node000006"><a xlink:title=" ">
<path fill="none" stroke="#63b8ff" d="M71.96,-91.56C89.1,-76.85 116.36,-55 142.75,-40.25 145.6,-38.66 148.56,-37.13 151.59,-35.65"/>
<polygon fill="#63b8ff" stroke="#63b8ff" points="153.03,-38.85 160.68,-31.52 150.13,-32.47 153.03,-38.85"/>
</a>
</g>
</g>
<!-- Node2&#45;&gt;Node2 -->
<g id="edge2_Node000002_Node000002" class="edge">
<title>Node2&#45;&gt;Node2</title>
<g id="a_edge2_Node000002_Node000002"><a xlink:title=" ">
<path fill="none" stroke="#63b8ff" d="M180.7,-214.99C175.11,-224.06 184.25,-232.5 208.12,-232.5 221.18,-232.5 229.83,-229.97 234.08,-226.2"/>
<polygon fill="#63b8ff" stroke="#63b8ff" points="237.52,-226.86 235.35,-216.49 230.58,-225.95 237.52,-226.86"/>
</a>
</g>
</g>
</g>
</svg>
