<?xml version="1.0" encoding="UTF-8" standalone="no"?>
<!DOCTYPE svg PUBLIC "-//W3C//DTD SVG 1.1//EN"
 "http://www.w3.org/Graphics/SVG/1.1/DTD/svg11.dtd">
<!-- Generated by graphviz version 10.0.1 (20240210.2158)
 -->
<!-- Title: ml::api::CDataFrameAnalysisInstrumentation::memoryCounterType Pages: 1 -->
<!--zoomable 68 -->

<svg id="main" version="1.1" xmlns="http://www.w3.org/2000/svg" xmlns:xlink="http://www.w3.org/1999/xlink" xml:space="preserve" onload="init(evt)">
<style type="text/css"><![CDATA[
.node, .edge {opacity: 0.7;}
.node.selected, .edge.selected {opacity: 1;}
.edge:hover path { stroke: red; }
.edge:hover polygon { stroke: red; fill: red; }
]]></style>

<defs>
  <circle id="rim" cx="0" cy="0" r="7"/>
  <circle id="rim2" cx="0" cy="0" r="3.5"/>
  <g id="zoomPlus">
    <use xlink:href="#rim" fill="#404040"><set attributeName="fill" to="#808080" begin="zoomplus.mouseover" end="zoomplus.mouseout"/></use>
    <path d="M-4,0h8M0,-4v8" fill="none" stroke="white" stroke-width="1.5" pointer-events="none"/>
  </g>
  <g id="zoomMin">
    <use xlink:href="#rim" fill="#404040"><set attributeName="fill" to="#808080" begin="zoomminus.mouseover" end="zoomminus.mouseout"/></use>
    <path d="M-4,0h8" fill="none" stroke="white" stroke-width="1.5" pointer-events="none"/>
  </g>
  <g id="arrowUp" transform="translate(30 24)">
    <use xlink:href="#rim"/>
    <path pointer-events="none" fill="none" stroke="white" stroke-width="1.5" d="M0,-3.0v7 M-2.5,-0.5L0,-3.0L2.5,-0.5"/>
  </g>
  <g id="arrowRight" transform="rotate(90) translate(36 -43)">
    <use xlink:href="#rim"/>
    <path pointer-events="none" fill="none" stroke="white" stroke-width="1.5" d="M0,-3.0v7 M-2.5,-0.5L0,-3.0L2.5,-0.5"/>
  </g>
  <g id="arrowDown" transform="rotate(180) translate(-30 -48)">
    <use xlink:href="#rim"/>
    <path pointer-events="none" fill="none" stroke="white" stroke-width="1.5" d="M0,-3.0v7 M-2.5,-0.5L0,-3.0L2.5,-0.5"/>
  </g>
  <g id="arrowLeft" transform="rotate(270) translate(-36 17)">
    <use xlink:href="#rim"/>
    <path pointer-events="none" fill="none" stroke="white" stroke-width="1.5" d="M0,-3.0v7 M-2.5,-0.5L0,-3.0L2.5,-0.5"/>
  </g>
  <g id="resetDef">
    <use xlink:href="#rim2" fill="#404040"><set attributeName="fill" to="#808080" begin="reset.mouseover" end="reset.mouseout"/></use>
  </g>
</defs>
<script type="application/ecmascript">
var viewWidth = 969;
var viewHeight = 68;
var sectionId = 'dynsection-7';
</script>
<script type="application/ecmascript" xlink:href="../../svg.min.js"/>
<svg id="graph" class="graph">
<g id="viewport">
<title>ml::api::CDataFrameAnalysisInstrumentation::memoryCounterType</title>
<!-- Node1 -->
<g id="Node000001" class="node">
<title>Node1</title>
<g id="a_Node000001"><a xlink:title=" ">
<polygon fill="#999999" stroke="#666666" points="960.5,-60.12 780.25,-60.12 780.25,-29.62 960.5,-29.62 960.5,-60.12"/>
<text text-anchor="start" x="788.25" y="-46.62" font-family="Helvetica,sans-Serif" font-size="10.00">ml::api::CDataFrameAnalysis</text>
<text text-anchor="middle" x="870.38" y="-35.38" font-family="Helvetica,sans-Serif" font-size="10.00">Instrumentation::memoryCounterType</text>
</a>
</g>
</g>
<!-- Node2 -->
<g id="Node000002" class="node">
<title>Node2</title>
<g id="a_Node000002"><a xlink:href="../../dd/df4/classml_1_1api_1_1_c_data_frame_analysis_instrumentation.html#a0d90929ce7f99928dab9f03afdef543f" target="_top" xlink:title="Adds delta to the memory usage statistics.">
<polygon fill="white" stroke="#666666" points="182.5,-60.12 0,-60.12 0,-29.62 182.5,-29.62 182.5,-60.12"/>
<text text-anchor="start" x="8" y="-46.62" font-family="Helvetica,sans-Serif" font-size="10.00">ml::api::CDataFrameAnalysis</text>
<text text-anchor="middle" x="91.25" y="-35.38" font-family="Helvetica,sans-Serif" font-size="10.00">Instrumentation::updateMemoryUsage</text>
</a>
</g>
</g>
<!-- Node1&#45;&gt;Node2 -->
<g id="edge1_Node000001_Node000002" class="edge">
<title>Node1&#45;&gt;Node2</title>
<g id="a_edge1_Node000001_Node000002"><a xlink:title=" ">
<path fill="none" stroke="#63b8ff" d="M768.6,-47.36C760.36,-47.54 752.17,-47.71 744.25,-47.88 510.63,-52.6 452.12,-52.59 218.5,-47.88 206.99,-47.64 194.89,-47.38 182.93,-47.11"/>
<polygon fill="#63b8ff" stroke="#63b8ff" points="768.41,-50.86 778.33,-47.14 768.25,-43.86 768.41,-50.86"/>
</a>
</g>
</g>
<!-- Node3 -->
<g id="Node000003" class="node">
<title>Node3</title>
<g id="a_Node000003"><a xlink:href="../../dd/df4/classml_1_1api_1_1_c_data_frame_analysis_instrumentation.html#acbe6404a281a08095a409f625636383b" target="_top" xlink:title=" ">
<polygon fill="white" stroke="#666666" points="744.25,-39.12 598.5,-39.12 598.5,-8.62 744.25,-8.62 744.25,-39.12"/>
<text text-anchor="start" x="606.5" y="-25.62" font-family="Helvetica,sans-Serif" font-size="10.00">ml::api::CDataFrameAnalysis</text>
<text text-anchor="middle" x="671.38" y="-14.38" font-family="Helvetica,sans-Serif" font-size="10.00">Instrumentation::writeMemory</text>
</a>
</g>
</g>
<!-- Node1&#45;&gt;Node3 -->
<g id="edge2_Node000001_Node000003" class="edge">
<title>Node1&#45;&gt;Node3</title>
<g id="a_edge2_Node000001_Node000003"><a xlink:title=" ">
<path fill="none" stroke="#63b8ff" d="M768.45,-34.12C760.41,-33.26 752.39,-32.4 744.61,-31.57"/>
<polygon fill="#63b8ff" stroke="#63b8ff" points="767.99,-37.59 778.3,-35.17 768.73,-30.63 767.99,-37.59"/>
</a>
</g>
</g>
<!-- Node4 -->
<g id="Node000004" class="node">
<title>Node4</title>
<g id="a_Node000004"><a xlink:href="../../dd/df4/classml_1_1api_1_1_c_data_frame_analysis_instrumentation.html#ad468a34d6678c35a5ef466e11ae26686" target="_top" xlink:title=" ">
<polygon fill="white" stroke="#666666" points="562.5,-41.75 399.5,-41.75 399.5,0 562.5,0 562.5,-41.75"/>
<text text-anchor="start" x="407.5" y="-28.25" font-family="Helvetica,sans-Serif" font-size="10.00">ml::api::CDataFrameAnalysis</text>
<text text-anchor="start" x="407.5" y="-17" font-family="Helvetica,sans-Serif" font-size="10.00">Instrumentation::writeMemoryAnd</text>
<text text-anchor="middle" x="481" y="-5.75" font-family="Helvetica,sans-Serif" font-size="10.00">AnalysisStats</text>
</a>
</g>
</g>
<!-- Node3&#45;&gt;Node4 -->
<g id="edge3_Node000003_Node000004" class="edge">
<title>Node3&#45;&gt;Node4</title>
<g id="a_edge3_Node000003_Node000004"><a xlink:title=" ">
<path fill="none" stroke="#63b8ff" d="M586.62,-22.54C578.73,-22.42 570.75,-22.29 562.89,-22.16"/>
<polygon fill="#63b8ff" stroke="#63b8ff" points="586.52,-26.04 596.57,-22.7 586.63,-19.04 586.52,-26.04"/>
</a>
</g>
</g>
<!-- Node5 -->
<g id="Node000005" class="node">
<title>Node5</title>
<g id="a_Node000005"><a xlink:href="../../dd/df4/classml_1_1api_1_1_c_data_frame_analysis_instrumentation.html#ac3fce8ac4a7482b764ee05d46589e681" target="_top" xlink:title=" ">
<polygon fill="white" stroke="#666666" points="363.5,-39.12 218.5,-39.12 218.5,-8.62 363.5,-8.62 363.5,-39.12"/>
<text text-anchor="start" x="226.5" y="-25.62" font-family="Helvetica,sans-Serif" font-size="10.00">ml::api::CDataFrameAnalysis</text>
<text text-anchor="middle" x="291" y="-14.38" font-family="Helvetica,sans-Serif" font-size="10.00">Instrumentation::flush</text>
</a>
</g>
</g>
<!-- Node4&#45;&gt;Node5 -->
<g id="edge4_Node000004_Node000005" class="edge">
<title>Node4&#45;&gt;Node5</title>
<g id="a_edge4_Node000004_Node000005"><a xlink:title=" ">
<path fill="none" stroke="#63b8ff" d="M387.83,-22.35C379.78,-22.47 371.71,-22.6 363.86,-22.73"/>
<polygon fill="#63b8ff" stroke="#63b8ff" points="387.72,-25.85 397.67,-22.19 387.61,-18.85 387.72,-25.85"/>
</a>
</g>
</g>
<!-- Node5&#45;&gt;Node2 -->
<g id="edge5_Node000005_Node000002" class="edge">
<title>Node5&#45;&gt;Node2</title>
<g id="a_edge5_Node000005_Node000002"><a xlink:title=" ">
<path fill="none" stroke="#63b8ff" d="M206.87,-32.7C198.89,-33.55 190.76,-34.41 182.71,-35.27"/>
<polygon fill="#63b8ff" stroke="#63b8ff" points="206.97,-36.21 216.54,-31.68 206.23,-29.25 206.97,-36.21"/>
</a>
</g>
</g>
</g>
</svg>

<g id="navigator" transform="translate(0 0)" fill="#404254">
  <rect fill="#f2f5e9" fill-opacity="0.5" stroke="#606060" stroke-width=".5" x="0" y="0" width="60" height="60"/>
  <use id="zoomplus" xlink:href="#zoomPlus" x="17" y="9" onmousedown="handleZoom(evt,'in')"/>
  <use id="zoomminus" xlink:href="#zoomMin" x="42" y="9" onmousedown="handleZoom(evt,'out')"/>
  <use id="reset" xlink:href="#resetDef" x="30" y="36" onmousedown="handleReset()"/>
   <use id="arrowup" xlink:href="#arrowUp" x="0" y="0" onmousedown="handlePan(0,-1)"/>
  <use id="arrowright" xlink:href="#arrowRight" x="0" y="0" onmousedown="handlePan(1,0)"/>
  <use id="arrowdown" xlink:href="#arrowDown" x="0" y="0" onmousedown="handlePan(0,1)"/>
  <use id="arrowleft" xlink:href="#arrowLeft" x="0" y="0" onmousedown="handlePan(-1,0)"/>
</g>
<svg viewBox="0 0 15 15" width="100%" height="30px" preserveAspectRatio="xMaxYMin meet">
 <g id="arrow_out" transform="scale(0.3 0.3)">
  <a xlink:href="classml_1_1api_1_1_c_data_frame_analysis_instrumentation_a901b351eff5064f87dcd311cfe8bac04_icgraph_org.svg" target="_base">
   <rect id="button" ry="5" rx="5" y="6" x="6" height="38" width="38"
        fill="#f2f5e9" fill-opacity="0.5" stroke="#606060" stroke-width="1.0"/>
   <path id="arrow"
     d="M 11.500037,31.436501 C 11.940474,20.09759 22.043105,11.32322 32.158766,21.979434 L 37.068811,17.246167 C 37.068811,17.246167 37.088388,32 37.088388,32 L 22.160133,31.978069 C 22.160133,31.978069 26.997745,27.140456 26.997745,27.140456 C 18.528582,18.264221 13.291696,25.230495 11.500037,31.436501 z"
     style="fill:#404040;"/>
  </a>
 </g>
</svg>

<style type='text/css'>
<![CDATA[
[data-mouse-over-selected='false'] { opacity: 0.7; }
[data-mouse-over-selected='true']  { opacity: 1.0; }
]]>
</style>
<script type="application/ecmascript"><![CDATA[
document.addEventListener('DOMContentLoaded', (event) => {
  highlightEdges();
  highlightAdjacentNodes();
});
]]></script>
</svg>
