<?xml version="1.0" encoding="UTF-8" standalone="no"?>
<!DOCTYPE svg PUBLIC "-//W3C//DTD SVG 1.1//EN"
 "http://www.w3.org/Graphics/SVG/1.1/DTD/svg11.dtd">
<!-- Generated by graphviz version 10.0.1 (20240210.2158)
 -->
<!-- Title: ml::core::CTimeUtils::strptimeSilent Pages: 1 -->
<!--zoomable 282 -->

<svg id="main" version="1.1" xmlns="http://www.w3.org/2000/svg" xmlns:xlink="http://www.w3.org/1999/xlink" xml:space="preserve" onload="init(evt)">
<style type="text/css"><![CDATA[
.node, .edge {opacity: 0.7;}
.node.selected, .edge.selected {opacity: 1;}
.edge:hover path { stroke: red; }
.edge:hover polygon { stroke: red; fill: red; }
]]></style>

<defs>
  <circle id="rim" cx="0" cy="0" r="7"/>
  <circle id="rim2" cx="0" cy="0" r="3.5"/>
  <g id="zoomPlus">
    <use xlink:href="#rim" fill="#404040"><set attributeName="fill" to="#808080" begin="zoomplus.mouseover" end="zoomplus.mouseout"/></use>
    <path d="M-4,0h8M0,-4v8" fill="none" stroke="white" stroke-width="1.5" pointer-events="none"/>
  </g>
  <g id="zoomMin">
    <use xlink:href="#rim" fill="#404040"><set attributeName="fill" to="#808080" begin="zoomminus.mouseover" end="zoomminus.mouseout"/></use>
    <path d="M-4,0h8" fill="none" stroke="white" stroke-width="1.5" pointer-events="none"/>
  </g>
  <g id="arrowUp" transform="translate(30 24)">
    <use xlink:href="#rim"/>
    <path pointer-events="none" fill="none" stroke="white" stroke-width="1.5" d="M0,-3.0v7 M-2.5,-0.5L0,-3.0L2.5,-0.5"/>
  </g>
  <g id="arrowRight" transform="rotate(90) translate(36 -43)">
    <use xlink:href="#rim"/>
    <path pointer-events="none" fill="none" stroke="white" stroke-width="1.5" d="M0,-3.0v7 M-2.5,-0.5L0,-3.0L2.5,-0.5"/>
  </g>
  <g id="arrowDown" transform="rotate(180) translate(-30 -48)">
    <use xlink:href="#rim"/>
    <path pointer-events="none" fill="none" stroke="white" stroke-width="1.5" d="M0,-3.0v7 M-2.5,-0.5L0,-3.0L2.5,-0.5"/>
  </g>
  <g id="arrowLeft" transform="rotate(270) translate(-36 17)">
    <use xlink:href="#rim"/>
    <path pointer-events="none" fill="none" stroke="white" stroke-width="1.5" d="M0,-3.0v7 M-2.5,-0.5L0,-3.0L2.5,-0.5"/>
  </g>
  <g id="resetDef">
    <use xlink:href="#rim2" fill="#404040"><set attributeName="fill" to="#808080" begin="reset.mouseover" end="reset.mouseout"/></use>
  </g>
</defs>
<script type="application/ecmascript">
var viewWidth = 628;
var viewHeight = 282;
var sectionId = 'dynsection-10';
</script>
<script type="application/ecmascript" xlink:href="../../svg.min.js"/>
<svg id="graph" class="graph">
<g id="viewport">
<title>ml::core::CTimeUtils::strptimeSilent</title>
<!-- Node1 -->
<g id="Node000001" class="node">
<title>Node1</title>
<g id="a_Node000001"><a xlink:title="Same strptime interface as above, but doesn&#39;t print any error messages.">
<polygon fill="#999999" stroke="#666666" points="619.75,-188.5 513,-188.5 513,-158 619.75,-158 619.75,-188.5"/>
<text text-anchor="start" x="521" y="-175" font-family="Helvetica,sans-Serif" font-size="10.00">ml::core::CTimeUtils</text>
<text text-anchor="middle" x="566.38" y="-163.75" font-family="Helvetica,sans-Serif" font-size="10.00">::strptimeSilent</text>
</a>
</g>
</g>
<!-- Node2 -->
<g id="Node000002" class="node">
<title>Node2</title>
<g id="a_Node000002"><a xlink:href="../../dd/df4/classml_1_1core_1_1_c_time_utils.html#a434c88caec4e09188ee0a69fd2d1b29d" target="_top" xlink:title=" ">
<polygon fill="white" stroke="#666666" points="477,-188.5 370.25,-188.5 370.25,-158 477,-158 477,-188.5"/>
<text text-anchor="start" x="378.25" y="-175" font-family="Helvetica,sans-Serif" font-size="10.00">ml::core::CTimeUtils</text>
<text text-anchor="middle" x="423.62" y="-163.75" font-family="Helvetica,sans-Serif" font-size="10.00">::strptime</text>
</a>
</g>
</g>
<!-- Node1&#45;&gt;Node2 -->
<g id="edge1_Node000001_Node000002" class="edge">
<title>Node1&#45;&gt;Node2</title>
<g id="a_edge1_Node000001_Node000002"><a xlink:title=" ">
<path fill="none" stroke="#63b8ff" d="M501.31,-173.25C493.26,-173.25 485.11,-173.25 477.26,-173.25"/>
<polygon fill="#63b8ff" stroke="#63b8ff" points="501.05,-176.75 511.05,-173.25 501.05,-169.75 501.05,-176.75"/>
</a>
</g>
</g>
<!-- Node3 -->
<g id="Node000003" class="node">
<title>Node3</title>
<g id="a_Node000003"><a xlink:href="../../dd/d9a/_c_time_utils_test_8cc.html#aaacc82e294de70c1391be86f0a12cd19" target="_top" xlink:title=" ">
<polygon fill="white" stroke="#666666" points="334.25,-273.88 187,-273.88 187,-254.62 334.25,-254.62 334.25,-273.88"/>
<text text-anchor="middle" x="260.62" y="-260.38" font-family="Helvetica,sans-Serif" font-size="10.00">BOOST_AUTO_TEST_CASE</text>
</a>
</g>
</g>
<!-- Node2&#45;&gt;Node3 -->
<g id="edge2_Node000002_Node000003" class="edge">
<title>Node2&#45;&gt;Node3</title>
<g id="a_edge2_Node000002_Node000003"><a xlink:title=" ">
<path fill="none" stroke="#63b8ff" d="M400.14,-196.74C383.4,-212.91 359.22,-233.67 334.25,-246.25 327.99,-249.41 321.13,-252.03 314.22,-254.21"/>
<polygon fill="#63b8ff" stroke="#63b8ff" points="402.47,-199.36 407.1,-189.83 397.54,-194.39 402.47,-199.36"/>
</a>
</g>
</g>
<!-- Node4 -->
<g id="Node000004" class="node">
<title>Node4</title>
<g id="a_Node000004"><a xlink:href="../../dd/d9a/_c_time_utils_test_8cc.html#af72c076ac1477b5145329214ba25731b" target="_top" xlink:title=" ">
<polygon fill="white" stroke="#666666" points="334.25,-236.88 187,-236.88 187,-217.62 334.25,-217.62 334.25,-236.88"/>
<text text-anchor="middle" x="260.62" y="-223.38" font-family="Helvetica,sans-Serif" font-size="10.00">BOOST_AUTO_TEST_CASE</text>
</a>
</g>
</g>
<!-- Node2&#45;&gt;Node4 -->
<g id="edge3_Node000002_Node000004" class="edge">
<title>Node2&#45;&gt;Node4</title>
<g id="a_edge3_Node000002_Node000004"><a xlink:title=" ">
<path fill="none" stroke="#63b8ff" d="M376.84,-193.36C363.28,-198.92 348.3,-204.67 334.25,-209.25 325.36,-212.15 315.72,-214.84 306.46,-217.21"/>
<polygon fill="#63b8ff" stroke="#63b8ff" points="378.09,-196.63 385.97,-189.55 375.39,-190.17 378.09,-196.63"/>
</a>
</g>
</g>
<!-- Node5 -->
<g id="Node000005" class="node">
<title>Node5</title>
<g id="a_Node000005"><a xlink:href="../../d9/d2a/classanonymous__namespace_02_c_csv_input_parser_test_8cc_03_1_1_c_time_checking_visitor.html#a4f9b970dad18e1f2c2137cb1351c504b" target="_top" xlink:title="Handle a record.">
<polygon fill="white" stroke="#666666" points="330.5,-199.75 190.75,-199.75 190.75,-146.75 330.5,-146.75 330.5,-199.75"/>
<text text-anchor="start" x="198.75" y="-186.25" font-family="Helvetica,sans-Serif" font-size="10.00">anonymous_namespace</text>
<text text-anchor="start" x="198.75" y="-175" font-family="Helvetica,sans-Serif" font-size="10.00">{CCsvInputParserTest</text>
<text text-anchor="start" x="198.75" y="-163.75" font-family="Helvetica,sans-Serif" font-size="10.00">::cc}::CTimeCheckingVisitor</text>
<text text-anchor="middle" x="260.62" y="-152.5" font-family="Helvetica,sans-Serif" font-size="10.00">::operator()</text>
</a>
</g>
</g>
<!-- Node2&#45;&gt;Node5 -->
<g id="edge4_Node000002_Node000005" class="edge">
<title>Node2&#45;&gt;Node5</title>
<g id="a_edge4_Node000002_Node000005"><a xlink:title=" ">
<path fill="none" stroke="#63b8ff" d="M358.57,-173.25C349.46,-173.25 340.07,-173.25 330.87,-173.25"/>
<polygon fill="#63b8ff" stroke="#63b8ff" points="358.39,-176.75 368.39,-173.25 358.39,-169.75 358.39,-176.75"/>
</a>
</g>
</g>
<!-- Node6 -->
<g id="Node000006" class="node">
<title>Node6</title>
<g id="a_Node000006"><a xlink:href="../../d3/d90/classml_1_1test_1_1_c_time_series_test_data.html#a58ad00e2f306e2d63ceb948fc1520ce4" target="_top" xlink:title=" ">
<polygon fill="white" stroke="#666666" points="326,-128.5 195.25,-128.5 195.25,-98 326,-98 326,-128.5"/>
<text text-anchor="start" x="203.25" y="-115" font-family="Helvetica,sans-Serif" font-size="10.00">ml::test::CTimeSeriesTest</text>
<text text-anchor="middle" x="260.62" y="-103.75" font-family="Helvetica,sans-Serif" font-size="10.00">Data::parseLine</text>
</a>
</g>
</g>
<!-- Node2&#45;&gt;Node6 -->
<g id="edge5_Node000002_Node000006" class="edge">
<title>Node2&#45;&gt;Node6</title>
<g id="a_edge5_Node000002_Node000006"><a xlink:title=" ">
<path fill="none" stroke="#63b8ff" d="M373.61,-153.38C360.84,-148.33 347.07,-142.99 334.25,-138.25 325.87,-135.15 316.9,-131.96 308.23,-128.94"/>
<polygon fill="#63b8ff" stroke="#63b8ff" points="372.06,-156.53 382.65,-156.97 374.65,-150.03 372.06,-156.53"/>
</a>
</g>
</g>
<!-- Node8 -->
<g id="Node000008" class="node">
<title>Node8</title>
<g id="a_Node000008"><a xlink:href="../../d4/dc5/classml_1_1api_1_1_c_data_processor.html#a1ce5c1193cbcbfb27a2c8477d6cd6431" target="_top" xlink:title=" ">
<polygon fill="white" stroke="#666666" points="322.62,-79.5 198.62,-79.5 198.62,-49 322.62,-49 322.62,-79.5"/>
<text text-anchor="start" x="206.62" y="-66" font-family="Helvetica,sans-Serif" font-size="10.00">ml::api::CDataProcessor</text>
<text text-anchor="middle" x="260.62" y="-54.75" font-family="Helvetica,sans-Serif" font-size="10.00">::parseTime</text>
</a>
</g>
</g>
<!-- Node2&#45;&gt;Node8 -->
<g id="edge7_Node000002_Node000008" class="edge">
<title>Node2&#45;&gt;Node8</title>
<g id="a_edge7_Node000002_Node000008"><a xlink:title=" ">
<path fill="none" stroke="#63b8ff" d="M402.36,-148.97C385.73,-130.39 360.68,-105.3 334.25,-89.25 328.44,-85.72 322.06,-82.6 315.57,-79.88"/>
<polygon fill="#63b8ff" stroke="#63b8ff" points="399.61,-151.14 408.82,-156.36 404.88,-146.53 399.61,-151.14"/>
</a>
</g>
</g>
<!-- Node7 -->
<g id="Node000007" class="node">
<title>Node7</title>
<g id="a_Node000007"><a xlink:href="../../d3/d90/classml_1_1test_1_1_c_time_series_test_data.html#ad2c7965f47f4723eefec59b212d04c67" target="_top" xlink:title=" ">
<polygon fill="white" stroke="#666666" points="140.88,-128.5 10.12,-128.5 10.12,-98 140.88,-98 140.88,-128.5"/>
<text text-anchor="start" x="18.12" y="-115" font-family="Helvetica,sans-Serif" font-size="10.00">ml::test::CTimeSeriesTest</text>
<text text-anchor="middle" x="75.5" y="-103.75" font-family="Helvetica,sans-Serif" font-size="10.00">Data::parse</text>
</a>
</g>
</g>
<!-- Node6&#45;&gt;Node7 -->
<g id="edge6_Node000006_Node000007" class="edge">
<title>Node6&#45;&gt;Node7</title>
<g id="a_edge6_Node000006_Node000007"><a xlink:title=" ">
<path fill="none" stroke="#63b8ff" d="M183.64,-113.25C169.55,-113.25 154.95,-113.25 141.23,-113.25"/>
<polygon fill="#63b8ff" stroke="#63b8ff" points="183.29,-116.75 193.29,-113.25 183.29,-109.75 183.29,-116.75"/>
</a>
</g>
</g>
<!-- Node9 -->
<g id="Node000009" class="node">
<title>Node9</title>
<g id="a_Node000009"><a xlink:href="../../d9/dee/classml_1_1api_1_1_c_anomaly_job.html#a7b4418f8987b9618eb3534c80d8d1617" target="_top" xlink:title=" ">
<polygon fill="white" stroke="#666666" points="131.88,-79.5 19.12,-79.5 19.12,-49 131.88,-49 131.88,-79.5"/>
<text text-anchor="start" x="27.12" y="-66" font-family="Helvetica,sans-Serif" font-size="10.00">ml::api::CAnomalyJob</text>
<text text-anchor="middle" x="75.5" y="-54.75" font-family="Helvetica,sans-Serif" font-size="10.00">::handleRecord</text>
</a>
</g>
</g>
<!-- Node8&#45;&gt;Node9 -->
<g id="edge8_Node000008_Node000009" class="edge">
<title>Node8&#45;&gt;Node9</title>
<g id="a_edge8_Node000008_Node000009"><a xlink:title=" ">
<path fill="none" stroke="#63b8ff" d="M186.71,-64.25C168.58,-64.25 149.43,-64.25 132.28,-64.25"/>
<polygon fill="#63b8ff" stroke="#63b8ff" points="186.62,-67.75 196.62,-64.25 186.62,-60.75 186.62,-67.75"/>
</a>
</g>
</g>
<!-- Node10 -->
<g id="Node000010" class="node">
<title>Node10</title>
<g id="a_Node000010"><a xlink:href="../../d3/d8f/classml_1_1api_1_1_c_field_data_categorizer.html#ad9934d581fe7465d1317a23c0664ca82" target="_top" xlink:title=" ">
<polygon fill="white" stroke="#666666" points="151,-30.5 0,-30.5 0,0 151,0 151,-30.5"/>
<text text-anchor="start" x="8" y="-17" font-family="Helvetica,sans-Serif" font-size="10.00">ml::api::CFieldDataCategorizer</text>
<text text-anchor="middle" x="75.5" y="-5.75" font-family="Helvetica,sans-Serif" font-size="10.00">::handleRecord</text>
</a>
</g>
</g>
<!-- Node8&#45;&gt;Node10 -->
<g id="edge9_Node000008_Node000010" class="edge">
<title>Node8&#45;&gt;Node10</title>
<g id="a_edge9_Node000008_Node000010"><a xlink:title=" ">
<path fill="none" stroke="#63b8ff" d="M189.88,-45.59C171.83,-40.76 152.59,-35.61 135.18,-30.95"/>
<polygon fill="#63b8ff" stroke="#63b8ff" points="188.9,-48.95 199.47,-48.15 190.71,-42.19 188.9,-48.95"/>
</a>
</g>
</g>
</g>
</svg>

<g id="navigator" transform="translate(0 0)" fill="#404254">
  <rect fill="#f2f5e9" fill-opacity="0.5" stroke="#606060" stroke-width=".5" x="0" y="0" width="60" height="60"/>
  <use id="zoomplus" xlink:href="#zoomPlus" x="17" y="9" onmousedown="handleZoom(evt,'in')"/>
  <use id="zoomminus" xlink:href="#zoomMin" x="42" y="9" onmousedown="handleZoom(evt,'out')"/>
  <use id="reset" xlink:href="#resetDef" x="30" y="36" onmousedown="handleReset()"/>
   <use id="arrowup" xlink:href="#arrowUp" x="0" y="0" onmousedown="handlePan(0,-1)"/>
  <use id="arrowright" xlink:href="#arrowRight" x="0" y="0" onmousedown="handlePan(1,0)"/>
  <use id="arrowdown" xlink:href="#arrowDown" x="0" y="0" onmousedown="handlePan(0,1)"/>
  <use id="arrowleft" xlink:href="#arrowLeft" x="0" y="0" onmousedown="handlePan(-1,0)"/>
</g>
<svg viewBox="0 0 15 15" width="100%" height="30px" preserveAspectRatio="xMaxYMin meet">
 <g id="arrow_out" transform="scale(0.3 0.3)">
  <a xlink:href="classml_1_1core_1_1_c_time_utils_a4d638b4d2e1922398083c83f4505f268_icgraph_org.svg" target="_base">
   <rect id="button" ry="5" rx="5" y="6" x="6" height="38" width="38"
        fill="#f2f5e9" fill-opacity="0.5" stroke="#606060" stroke-width="1.0"/>
   <path id="arrow"
     d="M 11.500037,31.436501 C 11.940474,20.09759 22.043105,11.32322 32.158766,21.979434 L 37.068811,17.246167 C 37.068811,17.246167 37.088388,32 37.088388,32 L 22.160133,31.978069 C 22.160133,31.978069 26.997745,27.140456 26.997745,27.140456 C 18.528582,18.264221 13.291696,25.230495 11.500037,31.436501 z"
     style="fill:#404040;"/>
  </a>
 </g>
</svg>

<style type='text/css'>
<![CDATA[
[data-mouse-over-selected='false'] { opacity: 0.7; }
[data-mouse-over-selected='true']  { opacity: 1.0; }
]]>
</style>
<script type="application/ecmascript"><![CDATA[
document.addEventListener('DOMContentLoaded', (event) => {
  highlightEdges();
  highlightAdjacentNodes();
});
]]></script>
</svg>
