<?xml version="1.0" encoding="UTF-8" standalone="no"?>
<!DOCTYPE svg PUBLIC "-//W3C//DTD SVG 1.1//EN"
 "http://www.w3.org/Graphics/SVG/1.1/DTD/svg11.dtd">
<!-- Generated by graphviz version 10.0.1 (20240210.2158)
 -->
<!-- Title: include/core/CWordDictionary.h Pages: 1 -->
<!--zoomable 305 -->

<svg id="main" version="1.1" xmlns="http://www.w3.org/2000/svg" xmlns:xlink="http://www.w3.org/1999/xlink" xml:space="preserve" onload="init(evt)">
<style type="text/css"><![CDATA[
.node, .edge {opacity: 0.7;}
.node.selected, .edge.selected {opacity: 1;}
.edge:hover path { stroke: red; }
.edge:hover polygon { stroke: red; fill: red; }
]]></style>

<defs>
  <circle id="rim" cx="0" cy="0" r="7"/>
  <circle id="rim2" cx="0" cy="0" r="3.5"/>
  <g id="zoomPlus">
    <use xlink:href="#rim" fill="#404040"><set attributeName="fill" to="#808080" begin="zoomplus.mouseover" end="zoomplus.mouseout"/></use>
    <path d="M-4,0h8M0,-4v8" fill="none" stroke="white" stroke-width="1.5" pointer-events="none"/>
  </g>
  <g id="zoomMin">
    <use xlink:href="#rim" fill="#404040"><set attributeName="fill" to="#808080" begin="zoomminus.mouseover" end="zoomminus.mouseout"/></use>
    <path d="M-4,0h8" fill="none" stroke="white" stroke-width="1.5" pointer-events="none"/>
  </g>
  <g id="arrowUp" transform="translate(30 24)">
    <use xlink:href="#rim"/>
    <path pointer-events="none" fill="none" stroke="white" stroke-width="1.5" d="M0,-3.0v7 M-2.5,-0.5L0,-3.0L2.5,-0.5"/>
  </g>
  <g id="arrowRight" transform="rotate(90) translate(36 -43)">
    <use xlink:href="#rim"/>
    <path pointer-events="none" fill="none" stroke="white" stroke-width="1.5" d="M0,-3.0v7 M-2.5,-0.5L0,-3.0L2.5,-0.5"/>
  </g>
  <g id="arrowDown" transform="rotate(180) translate(-30 -48)">
    <use xlink:href="#rim"/>
    <path pointer-events="none" fill="none" stroke="white" stroke-width="1.5" d="M0,-3.0v7 M-2.5,-0.5L0,-3.0L2.5,-0.5"/>
  </g>
  <g id="arrowLeft" transform="rotate(270) translate(-36 17)">
    <use xlink:href="#rim"/>
    <path pointer-events="none" fill="none" stroke="white" stroke-width="1.5" d="M0,-3.0v7 M-2.5,-0.5L0,-3.0L2.5,-0.5"/>
  </g>
  <g id="resetDef">
    <use xlink:href="#rim2" fill="#404040"><set attributeName="fill" to="#808080" begin="reset.mouseover" end="reset.mouseout"/></use>
  </g>
</defs>
<script type="application/ecmascript">
var viewWidth = 1386;
var viewHeight = 305;
var sectionId = 'dynsection-1';
</script>
<script type="application/ecmascript" xlink:href="../../svg.min.js"/>
<svg id="graph" class="graph">
<g id="viewport">
<title>include/core/CWordDictionary.h</title>
<!-- Node1 -->
<g id="Node000001" class="node">
<title>Node1</title>
<g id="a_Node000001"><a xlink:title=" ">
<polygon fill="#999999" stroke="#666666" points="959.88,-296.5 807.38,-296.5 807.38,-277.25 959.88,-277.25 959.88,-296.5"/>
<text text-anchor="middle" x="883.62" y="-283" font-family="Helvetica,sans-Serif" font-size="10.00">include/core/CWordDictionary.h</text>
</a>
</g>
</g>
<!-- Node2 -->
<g id="Node000002" class="node">
<title>Node2</title>
<g id="a_Node000002"><a xlink:href="../../d6/dc2/_c_field_data_categorizer_8h.html" target="_top" xlink:title=" ">
<polygon fill="white" stroke="#666666" points="723,-163.5 550.25,-163.5 550.25,-144.25 723,-144.25 723,-163.5"/>
<text text-anchor="middle" x="636.62" y="-150" font-family="Helvetica,sans-Serif" font-size="10.00">include/api/CFieldDataCategorizer.h</text>
</a>
</g>
</g>
<!-- Node1&#45;&gt;Node2 -->
<g id="edge1_Node000001_Node000002" class="edge">
<title>Node1&#45;&gt;Node2</title>
<g id="a_edge1_Node000001_Node000002"><a xlink:title=" ">
<path fill="none" stroke="#63b8ff" d="M801.06,-275.01C753.54,-267.37 699.59,-255.91 680.62,-241.25 654.66,-221.18 642.72,-181.57 638.51,-163.83"/>
<polygon fill="#63b8ff" stroke="#63b8ff" points="800.42,-278.45 810.84,-276.54 801.5,-271.53 800.42,-278.45"/>
</a>
</g>
</g>
<!-- Node14 -->
<g id="Node000014" class="node">
<title>Node14</title>
<g id="a_Node000014"><a xlink:href="../../d3/df2/_c_token_list_data_categorizer_8h.html" target="_top" xlink:title=" ">
<polygon fill="white" stroke="#666666" points="817.88,-241.25 689.38,-241.25 689.38,-210.75 817.88,-210.75 817.88,-241.25"/>
<text text-anchor="start" x="697.38" y="-227.75" font-family="Helvetica,sans-Serif" font-size="10.00">include/model/CTokenList</text>
<text text-anchor="middle" x="753.62" y="-216.5" font-family="Helvetica,sans-Serif" font-size="10.00">DataCategorizer.h</text>
</a>
</g>
</g>
<!-- Node1&#45;&gt;Node14 -->
<g id="edge13_Node000001_Node000014" class="edge">
<title>Node1&#45;&gt;Node14</title>
<g id="a_edge13_Node000001_Node000014"><a xlink:title=" ">
<path fill="none" stroke="#63b8ff" d="M853.12,-272.06C832.98,-262.94 806.6,-250.99 786.07,-241.69"/>
<polygon fill="#63b8ff" stroke="#63b8ff" points="851.67,-275.24 862.22,-276.18 854.55,-268.87 851.67,-275.24"/>
</a>
</g>
</g>
<!-- Node15 -->
<g id="Node000015" class="node">
<title>Node15</title>
<g id="a_Node000015"><a xlink:href="../../d3/d6e/_c_resource_monitor_test_8cc.html" target="_top" xlink:title=" ">
<polygon fill="white" stroke="#666666" points="912.12,-169.12 779.12,-169.12 779.12,-138.62 912.12,-138.62 912.12,-169.12"/>
<text text-anchor="start" x="787.12" y="-155.62" font-family="Helvetica,sans-Serif" font-size="10.00">lib/model/unittest</text>
<text text-anchor="middle" x="845.62" y="-144.38" font-family="Helvetica,sans-Serif" font-size="10.00">/CResourceMonitorTest.cc</text>
</a>
</g>
</g>
<!-- Node1&#45;&gt;Node15 -->
<g id="edge21_Node000001_Node000015" class="edge">
<title>Node1&#45;&gt;Node15</title>
<g id="a_edge21_Node000001_Node000015"><a xlink:title=" ">
<path fill="none" stroke="#63b8ff" d="M877.28,-266.15C874.83,-258.4 872.04,-249.43 869.62,-241.25 862.21,-216.18 854.19,-186.81 849.55,-169.59"/>
<polygon fill="#63b8ff" stroke="#63b8ff" points="873.91,-267.11 880.29,-275.57 880.58,-264.98 873.91,-267.11"/>
</a>
</g>
</g>
<!-- Node16 -->
<g id="Node000016" class="node">
<title>Node16</title>
<g id="a_Node000016"><a xlink:href="../../db/d4f/_c_token_list_data_categorizer_test_8cc.html" target="_top" xlink:title=" ">
<polygon fill="white" stroke="#666666" points="1069.5,-174.75 929.75,-174.75 929.75,-133 1069.5,-133 1069.5,-174.75"/>
<text text-anchor="start" x="937.75" y="-161.25" font-family="Helvetica,sans-Serif" font-size="10.00">lib/model/unittest</text>
<text text-anchor="start" x="937.75" y="-150" font-family="Helvetica,sans-Serif" font-size="10.00">/CTokenListDataCategorizer</text>
<text text-anchor="middle" x="999.62" y="-138.75" font-family="Helvetica,sans-Serif" font-size="10.00">Test.cc</text>
</a>
</g>
</g>
<!-- Node1&#45;&gt;Node16 -->
<g id="edge22_Node000001_Node000016" class="edge">
<title>Node1&#45;&gt;Node16</title>
<g id="a_edge22_Node000001_Node000016"><a xlink:title=" ">
<path fill="none" stroke="#63b8ff" d="M884.49,-265.63C886.11,-249.36 890.58,-226.66 902.62,-210.75 914.06,-195.64 930.86,-183.94 947.27,-175.23"/>
<polygon fill="#63b8ff" stroke="#63b8ff" points="881,-265.33 883.81,-275.55 887.98,-265.81 881,-265.33"/>
</a>
</g>
</g>
<!-- Node17 -->
<g id="Node000017" class="node">
<title>Node17</title>
<g id="a_Node000017"><a xlink:href="../../d1/d6f/_c_word_dictionary_8cc.html" target="_top" xlink:title=" ">
<polygon fill="white" stroke="#666666" points="1048,-235.62 911.25,-235.62 911.25,-216.38 1048,-216.38 1048,-235.62"/>
<text text-anchor="middle" x="979.62" y="-222.12" font-family="Helvetica,sans-Serif" font-size="10.00">lib/core/CWordDictionary.cc</text>
</a>
</g>
</g>
<!-- Node1&#45;&gt;Node17 -->
<g id="edge18_Node000001_Node000017" class="edge">
<title>Node1&#45;&gt;Node17</title>
<g id="a_edge18_Node000001_Node000017"><a xlink:title=" ">
<path fill="none" stroke="#63b8ff" d="M907.99,-270.93C925.94,-259.92 949.77,-245.31 964.91,-236.03"/>
<polygon fill="#63b8ff" stroke="#63b8ff" points="906.19,-267.93 899.5,-276.14 909.85,-273.9 906.19,-267.93"/>
</a>
</g>
</g>
<!-- Node18 -->
<g id="Node000018" class="node">
<title>Node18</title>
<g id="a_Node000018"><a xlink:href="../../d5/d3e/_c_word_extractor_8cc.html" target="_top" xlink:title=" ">
<polygon fill="white" stroke="#666666" points="1199.12,-235.62 1066.12,-235.62 1066.12,-216.38 1199.12,-216.38 1199.12,-235.62"/>
<text text-anchor="middle" x="1132.62" y="-222.12" font-family="Helvetica,sans-Serif" font-size="10.00">lib/core/CWordExtractor.cc</text>
</a>
</g>
</g>
<!-- Node1&#45;&gt;Node18 -->
<g id="edge19_Node000001_Node000018" class="edge">
<title>Node1&#45;&gt;Node18</title>
<g id="a_edge19_Node000001_Node000018"><a xlink:title=" ">
<path fill="none" stroke="#63b8ff" d="M932.9,-274.22C980.27,-263.02 1050.88,-246.33 1094.22,-236.08"/>
<polygon fill="#63b8ff" stroke="#63b8ff" points="932.38,-270.75 923.46,-276.46 934,-277.56 932.38,-270.75"/>
</a>
</g>
</g>
<!-- Node19 -->
<g id="Node000019" class="node">
<title>Node19</title>
<g id="a_Node000019"><a xlink:href="../../dc/d54/_c_word_dictionary_test_8cc.html" target="_top" xlink:title=" ">
<polygon fill="white" stroke="#666666" points="1377.62,-241.25 1217.62,-241.25 1217.62,-210.75 1377.62,-210.75 1377.62,-241.25"/>
<text text-anchor="start" x="1225.62" y="-227.75" font-family="Helvetica,sans-Serif" font-size="10.00">lib/core/unittest/CWordDictionary</text>
<text text-anchor="middle" x="1297.62" y="-216.5" font-family="Helvetica,sans-Serif" font-size="10.00">Test.cc</text>
</a>
</g>
</g>
<!-- Node1&#45;&gt;Node19 -->
<g id="edge20_Node000001_Node000019" class="edge">
<title>Node1&#45;&gt;Node19</title>
<g id="a_edge20_Node000001_Node000019"><a xlink:title=" ">
<path fill="none" stroke="#63b8ff" d="M964.23,-275.32C1030.03,-266.57 1125.42,-253.62 1208.62,-241.25 1211.57,-240.81 1214.56,-240.36 1217.58,-239.9"/>
<polygon fill="#63b8ff" stroke="#63b8ff" points="964.06,-271.81 954.61,-276.59 964.98,-278.75 964.06,-271.81"/>
</a>
</g>
</g>
<!-- Node3 -->
<g id="Node000003" class="node">
<title>Node3</title>
<g id="a_Node000003"><a xlink:href="../../d2/dab/bin_2autodetect_2_main_8cc.html" target="_top" xlink:title=" ">
<polygon fill="white" stroke="#666666" points="561.12,-91.38 446.12,-91.38 446.12,-72.12 561.12,-72.12 561.12,-91.38"/>
<text text-anchor="middle" x="503.62" y="-77.88" font-family="Helvetica,sans-Serif" font-size="10.00">bin/autodetect/Main.cc</text>
</a>
</g>
</g>
<!-- Node2&#45;&gt;Node3 -->
<g id="edge2_Node000002_Node000003" class="edge">
<title>Node2&#45;&gt;Node3</title>
<g id="a_edge2_Node000002_Node000003"><a xlink:title=" ">
<path fill="none" stroke="#63b8ff" d="M609.33,-138.48C582.72,-124.45 543.09,-103.56 520.67,-91.74"/>
<polygon fill="#63b8ff" stroke="#63b8ff" points="607.69,-141.58 618.17,-143.15 610.96,-135.38 607.69,-141.58"/>
</a>
</g>
</g>
<!-- Node4 -->
<g id="Node000004" class="node">
<title>Node4</title>
<g id="a_Node000004"><a xlink:href="../../de/d5e/bin_2categorize_2_main_8cc.html" target="_top" xlink:title=" ">
<polygon fill="white" stroke="#666666" points="693.75,-91.38 579.5,-91.38 579.5,-72.12 693.75,-72.12 693.75,-91.38"/>
<text text-anchor="middle" x="636.62" y="-77.88" font-family="Helvetica,sans-Serif" font-size="10.00">bin/categorize/Main.cc</text>
</a>
</g>
</g>
<!-- Node2&#45;&gt;Node4 -->
<g id="edge3_Node000002_Node000004" class="edge">
<title>Node2&#45;&gt;Node4</title>
<g id="a_edge3_Node000002_Node000004"><a xlink:title=" ">
<path fill="none" stroke="#63b8ff" d="M636.62,-132.49C636.62,-119.02 636.62,-102.01 636.62,-91.78"/>
<polygon fill="#63b8ff" stroke="#63b8ff" points="633.13,-132.48 636.63,-142.48 640.13,-132.48 633.13,-132.48"/>
</a>
</g>
</g>
<!-- Node5 -->
<g id="Node000005" class="node">
<title>Node5</title>
<g id="a_Node000005"><a xlink:href="../../d5/d77/_c_field_data_categorizer_8cc.html" target="_top" xlink:title=" ">
<polygon fill="white" stroke="#666666" points="869.12,-91.38 712.12,-91.38 712.12,-72.12 869.12,-72.12 869.12,-91.38"/>
<text text-anchor="middle" x="790.62" y="-77.88" font-family="Helvetica,sans-Serif" font-size="10.00">lib/api/CFieldDataCategorizer.cc</text>
</a>
</g>
</g>
<!-- Node2&#45;&gt;Node5 -->
<g id="edge4_Node000002_Node000005" class="edge">
<title>Node2&#45;&gt;Node5</title>
<g id="a_edge4_Node000002_Node000005"><a xlink:title=" ">
<path fill="none" stroke="#63b8ff" d="M666.6,-139.23C697.4,-125.2 744.47,-103.77 770.88,-91.74"/>
<polygon fill="#63b8ff" stroke="#63b8ff" points="665.47,-135.89 657.82,-143.22 668.37,-142.26 665.47,-135.89"/>
</a>
</g>
</g>
<!-- Node6 -->
<g id="Node000006" class="node">
<title>Node6</title>
<g id="a_Node000006"><a xlink:href="../../d5/d82/lib_2api_2dump__state_2_main_8cc.html" target="_top" xlink:title=" ">
<polygon fill="white" stroke="#666666" points="283.38,-97 187.88,-97 187.88,-66.5 283.38,-66.5 283.38,-97"/>
<text text-anchor="start" x="195.88" y="-83.5" font-family="Helvetica,sans-Serif" font-size="10.00">lib/api/dump_state</text>
<text text-anchor="middle" x="235.62" y="-72.25" font-family="Helvetica,sans-Serif" font-size="10.00">/Main.cc</text>
</a>
</g>
</g>
<!-- Node2&#45;&gt;Node6 -->
<g id="edge5_Node000002_Node000006" class="edge">
<title>Node2&#45;&gt;Node6</title>
<g id="a_edge5_Node000002_Node000006"><a xlink:title=" ">
<path fill="none" stroke="#63b8ff" d="M557.81,-142.14C487.65,-132.1 382.37,-115.85 291.62,-97 289.07,-96.47 286.46,-95.9 283.83,-95.3"/>
<polygon fill="#63b8ff" stroke="#63b8ff" points="557.3,-145.6 567.7,-143.55 558.29,-138.67 557.3,-145.6"/>
</a>
</g>
</g>
<!-- Node7 -->
<g id="Node000007" class="node">
<title>Node7</title>
<g id="a_Node000007"><a xlink:href="../../de/dd5/_c_single_field_data_categorizer_test_8cc.html" target="_top" xlink:title=" ">
<polygon fill="white" stroke="#666666" points="1027.88,-97 887.38,-97 887.38,-66.5 1027.88,-66.5 1027.88,-97"/>
<text text-anchor="start" x="895.38" y="-83.5" font-family="Helvetica,sans-Serif" font-size="10.00">lib/api/unittest/CSingle</text>
<text text-anchor="middle" x="957.62" y="-72.25" font-family="Helvetica,sans-Serif" font-size="10.00">FieldDataCategorizerTest.cc</text>
</a>
</g>
</g>
<!-- Node2&#45;&gt;Node7 -->
<g id="edge6_Node000002_Node000007" class="edge">
<title>Node2&#45;&gt;Node7</title>
<g id="a_edge6_Node000002_Node000007"><a xlink:title=" ">
<path fill="none" stroke="#63b8ff" d="M689.49,-141.33C744.42,-129.33 830.56,-110.51 890.32,-97.45"/>
<polygon fill="#63b8ff" stroke="#63b8ff" points="688.76,-137.9 679.74,-143.46 690.26,-144.74 688.76,-137.9"/>
</a>
</g>
</g>
<!-- Node8 -->
<g id="Node000008" class="node">
<title>Node8</title>
<g id="a_Node000008"><a xlink:href="../../dc/d56/_c_test_field_data_categorizer_8h.html" target="_top" xlink:title=" ">
<polygon fill="white" stroke="#666666" points="428.12,-97 301.12,-97 301.12,-66.5 428.12,-66.5 428.12,-97"/>
<text text-anchor="start" x="309.12" y="-83.5" font-family="Helvetica,sans-Serif" font-size="10.00">lib/api/unittest/CTestField</text>
<text text-anchor="middle" x="364.62" y="-72.25" font-family="Helvetica,sans-Serif" font-size="10.00">DataCategorizer.h</text>
</a>
</g>
</g>
<!-- Node2&#45;&gt;Node8 -->
<g id="edge7_Node000002_Node000008" class="edge">
<title>Node2&#45;&gt;Node8</title>
<g id="a_edge7_Node000002_Node000008"><a xlink:title=" ">
<path fill="none" stroke="#63b8ff" d="M590.36,-140.95C543.76,-128.93 471.76,-110.37 421.65,-97.45"/>
<polygon fill="#63b8ff" stroke="#63b8ff" points="589.32,-144.29 599.88,-143.4 591.07,-137.52 589.32,-144.29"/>
</a>
</g>
</g>
<!-- Node9 -->
<g id="Node000009" class="node">
<title>Node9</title>
<g id="a_Node000009"><a xlink:href="../../d6/d2e/_c_field_data_categorizer_test_8cc.html" target="_top" xlink:title=" ">
<polygon fill="white" stroke="#666666" points="129.25,-30.5 0,-30.5 0,0 129.25,0 129.25,-30.5"/>
<text text-anchor="start" x="8" y="-17" font-family="Helvetica,sans-Serif" font-size="10.00">lib/api/unittest/CFieldData</text>
<text text-anchor="middle" x="64.62" y="-5.75" font-family="Helvetica,sans-Serif" font-size="10.00">CategorizerTest.cc</text>
</a>
</g>
</g>
<!-- Node8&#45;&gt;Node9 -->
<g id="edge8_Node000008_Node000009" class="edge">
<title>Node8&#45;&gt;Node9</title>
<g id="a_edge8_Node000008_Node000009"><a xlink:title=" ">
<path fill="none" stroke="#63b8ff" d="M289.41,-64.58C240.2,-54 176.55,-40.31 129.55,-30.21"/>
<polygon fill="#63b8ff" stroke="#63b8ff" points="288.64,-67.99 299.16,-66.67 290.11,-61.15 288.64,-67.99"/>
</a>
</g>
</g>
<!-- Node10 -->
<g id="Node000010" class="node">
<title>Node10</title>
<g id="a_Node000010"><a xlink:href="../../df/df3/_c_persistence_manager_test_8cc.html" target="_top" xlink:title=" ">
<polygon fill="white" stroke="#666666" points="286.12,-30.5 147.12,-30.5 147.12,0 286.12,0 286.12,-30.5"/>
<text text-anchor="start" x="155.12" y="-17" font-family="Helvetica,sans-Serif" font-size="10.00">lib/api/unittest/CPersistence</text>
<text text-anchor="middle" x="216.62" y="-5.75" font-family="Helvetica,sans-Serif" font-size="10.00">ManagerTest.cc</text>
</a>
</g>
</g>
<!-- Node8&#45;&gt;Node10 -->
<g id="edge9_Node000008_Node000010" class="edge">
<title>Node8&#45;&gt;Node10</title>
<g id="a_edge9_Node000008_Node000010"><a xlink:title=" ">
<path fill="none" stroke="#63b8ff" d="M320.72,-61.62C298.2,-51.8 271.19,-40.03 250.33,-30.94"/>
<polygon fill="#63b8ff" stroke="#63b8ff" points="319.09,-64.72 329.65,-65.51 321.89,-58.31 319.09,-64.72"/>
</a>
</g>
</g>
<!-- Node11 -->
<g id="Node000011" class="node">
<title>Node11</title>
<g id="a_Node000011"><a xlink:href="../../d1/d67/_c_restore_previous_state_test_8cc.html" target="_top" xlink:title=" ">
<polygon fill="white" stroke="#666666" points="425.5,-30.5 303.75,-30.5 303.75,0 425.5,0 425.5,-30.5"/>
<text text-anchor="start" x="311.75" y="-17" font-family="Helvetica,sans-Serif" font-size="10.00">lib/api/unittest/CRestore</text>
<text text-anchor="middle" x="364.62" y="-5.75" font-family="Helvetica,sans-Serif" font-size="10.00">PreviousStateTest.cc</text>
</a>
</g>
</g>
<!-- Node8&#45;&gt;Node11 -->
<g id="edge10_Node000008_Node000011" class="edge">
<title>Node8&#45;&gt;Node11</title>
<g id="a_edge10_Node000008_Node000011"><a xlink:title=" ">
<path fill="none" stroke="#63b8ff" d="M364.62,-54.81C364.62,-46.64 364.62,-37.91 364.62,-30.83"/>
<polygon fill="#63b8ff" stroke="#63b8ff" points="361.13,-54.6 364.63,-64.6 368.13,-54.6 361.13,-54.6"/>
</a>
</g>
</g>
<!-- Node12 -->
<g id="Node000012" class="node">
<title>Node12</title>
<g id="a_Node000012"><a xlink:href="../../d4/de2/_c_single_stream_data_adder_test_8cc.html" target="_top" xlink:title=" ">
<polygon fill="white" stroke="#666666" points="569.75,-30.5 443.5,-30.5 443.5,0 569.75,0 569.75,-30.5"/>
<text text-anchor="start" x="451.5" y="-17" font-family="Helvetica,sans-Serif" font-size="10.00">lib/api/unittest/CSingle</text>
<text text-anchor="middle" x="506.62" y="-5.75" font-family="Helvetica,sans-Serif" font-size="10.00">StreamDataAdderTest.cc</text>
</a>
</g>
</g>
<!-- Node8&#45;&gt;Node12 -->
<g id="edge11_Node000008_Node000012" class="edge">
<title>Node8&#45;&gt;Node12</title>
<g id="a_edge11_Node000008_Node000012"><a xlink:title=" ">
<path fill="none" stroke="#63b8ff" d="M407.08,-61.47C428.71,-51.64 454.58,-39.89 474.53,-30.83"/>
<polygon fill="#63b8ff" stroke="#63b8ff" points="405.88,-58.17 398.23,-65.49 408.78,-64.54 405.88,-58.17"/>
</a>
</g>
</g>
<!-- Node13 -->
<g id="Node000013" class="node">
<title>Node13</title>
<g id="a_Node000013"><a xlink:href="../../d0/d5d/_c_test_field_data_categorizer_8cc.html" target="_top" xlink:title=" ">
<polygon fill="white" stroke="#666666" points="715.12,-30.5 588.12,-30.5 588.12,0 715.12,0 715.12,-30.5"/>
<text text-anchor="start" x="596.12" y="-17" font-family="Helvetica,sans-Serif" font-size="10.00">lib/api/unittest/CTestField</text>
<text text-anchor="middle" x="651.62" y="-5.75" font-family="Helvetica,sans-Serif" font-size="10.00">DataCategorizer.cc</text>
</a>
</g>
</g>
<!-- Node8&#45;&gt;Node13 -->
<g id="edge12_Node000008_Node000013" class="edge">
<title>Node8&#45;&gt;Node13</title>
<g id="a_edge12_Node000008_Node000013"><a xlink:title=" ">
<path fill="none" stroke="#63b8ff" d="M439.47,-63.93C485.64,-53.55 544.21,-40.39 588.11,-30.52"/>
<polygon fill="#63b8ff" stroke="#63b8ff" points="438.79,-60.5 429.8,-66.1 440.32,-67.33 438.79,-60.5"/>
</a>
</g>
</g>
<!-- Node14&#45;&gt;Node2 -->
<g id="edge14_Node000014_Node000002" class="edge">
<title>Node14&#45;&gt;Node2</title>
<g id="a_edge14_Node000014_Node000002"><a xlink:title=" ">
<path fill="none" stroke="#63b8ff" d="M719.28,-204.42C696.92,-191.01 668.84,-174.18 651.83,-163.99"/>
<polygon fill="#63b8ff" stroke="#63b8ff" points="717.42,-207.38 727.8,-209.52 721.02,-201.38 717.42,-207.38"/>
</a>
</g>
</g>
<!-- Node14&#45;&gt;Node7 -->
<g id="edge15_Node000014_Node000007" class="edge">
<title>Node14&#45;&gt;Node7</title>
<g id="a_edge15_Node000014_Node000007"><a xlink:title=" ">
<path fill="none" stroke="#63b8ff" d="M751.44,-199.17C751.18,-178.69 754.31,-150.67 770.62,-133 778.99,-123.94 839.22,-108.75 889.09,-97.44"/>
<polygon fill="#63b8ff" stroke="#63b8ff" points="747.94,-199.15 751.87,-208.99 754.93,-198.84 747.94,-199.15"/>
</a>
</g>
</g>
<!-- Node14&#45;&gt;Node15 -->
<g id="edge16_Node000014_Node000015" class="edge">
<title>Node14&#45;&gt;Node15</title>
<g id="a_edge16_Node000014_Node000015"><a xlink:title=" ">
<path fill="none" stroke="#63b8ff" d="M781.76,-203.56C796.29,-192.48 813.64,-179.25 826.59,-169.39"/>
<polygon fill="#63b8ff" stroke="#63b8ff" points="779.72,-200.71 773.89,-209.55 783.97,-206.27 779.72,-200.71"/>
</a>
</g>
</g>
<!-- Node14&#45;&gt;Node16 -->
<g id="edge17_Node000014_Node000016" class="edge">
<title>Node14&#45;&gt;Node16</title>
<g id="a_edge17_Node000014_Node000016"><a xlink:title=" ">
<path fill="none" stroke="#63b8ff" d="M816.1,-207.19C850.67,-197.34 893.74,-185.06 929.46,-174.88"/>
<polygon fill="#63b8ff" stroke="#63b8ff" points="815.31,-203.78 806.65,-209.88 817.23,-210.51 815.31,-203.78"/>
</a>
</g>
</g>
</g>
</svg>

<g id="navigator" transform="translate(0 0)" fill="#404254">
  <rect fill="#f2f5e9" fill-opacity="0.5" stroke="#606060" stroke-width=".5" x="0" y="0" width="60" height="60"/>
  <use id="zoomplus" xlink:href="#zoomPlus" x="17" y="9" onmousedown="handleZoom(evt,'in')"/>
  <use id="zoomminus" xlink:href="#zoomMin" x="42" y="9" onmousedown="handleZoom(evt,'out')"/>
  <use id="reset" xlink:href="#resetDef" x="30" y="36" onmousedown="handleReset()"/>
   <use id="arrowup" xlink:href="#arrowUp" x="0" y="0" onmousedown="handlePan(0,-1)"/>
  <use id="arrowright" xlink:href="#arrowRight" x="0" y="0" onmousedown="handlePan(1,0)"/>
  <use id="arrowdown" xlink:href="#arrowDown" x="0" y="0" onmousedown="handlePan(0,1)"/>
  <use id="arrowleft" xlink:href="#arrowLeft" x="0" y="0" onmousedown="handlePan(-1,0)"/>
</g>
<svg viewBox="0 0 15 15" width="100%" height="30px" preserveAspectRatio="xMaxYMin meet">
 <g id="arrow_out" transform="scale(0.3 0.3)">
  <a xlink:href="_c_word_dictionary_8h__dep__incl_org.svg" target="_base">
   <rect id="button" ry="5" rx="5" y="6" x="6" height="38" width="38"
        fill="#f2f5e9" fill-opacity="0.5" stroke="#606060" stroke-width="1.0"/>
   <path id="arrow"
     d="M 11.500037,31.436501 C 11.940474,20.09759 22.043105,11.32322 32.158766,21.979434 L 37.068811,17.246167 C 37.068811,17.246167 37.088388,32 37.088388,32 L 22.160133,31.978069 C 22.160133,31.978069 26.997745,27.140456 26.997745,27.140456 C 18.528582,18.264221 13.291696,25.230495 11.500037,31.436501 z"
     style="fill:#404040;"/>
  </a>
 </g>
</svg>

<style type='text/css'>
<![CDATA[
[data-mouse-over-selected='false'] { opacity: 0.7; }
[data-mouse-over-selected='true']  { opacity: 1.0; }
]]>
</style>
<script type="application/ecmascript"><![CDATA[
document.addEventListener('DOMContentLoaded', (event) => {
  highlightEdges();
  highlightAdjacentNodes();
});
]]></script>
</svg>
