<?xml version="1.0" encoding="UTF-8" standalone="no"?>
<!DOCTYPE svg PUBLIC "-//W3C//DTD SVG 1.1//EN"
 "http://www.w3.org/Graphics/SVG/1.1/DTD/svg11.dtd">
<!-- Generated by graphviz version 10.0.1 (20240210.2158)
 -->
<!-- Title: ml::maths::common::CClusterer::swap Pages: 1 -->
<svg width="461pt" height="88pt"
 viewBox="0.00 0.00 461.00 87.50" xmlns="http://www.w3.org/2000/svg" xmlns:xlink="http://www.w3.org/1999/xlink">
<g id="graph0" class="graph" transform="scale(1 1) rotate(0) translate(4 83.5)">
<title>ml::maths::common::CClusterer::swap</title>
<!-- Node1 -->
<g id="Node000001" class="node">
<title>Node1</title>
<g id="a_Node000001"><a xlink:title="Swap the CClusterer state of two derived objects.">
<polygon fill="#999999" stroke="#666666" points="453,-54.5 344,-54.5 344,-24 453,-24 453,-54.5"/>
<text text-anchor="start" x="352" y="-41" font-family="Helvetica,sans-Serif" font-size="10.00">ml::maths::common::</text>
<text text-anchor="middle" x="398.5" y="-29.75" font-family="Helvetica,sans-Serif" font-size="10.00">CClusterer::swap</text>
</a>
</g>
</g>
<!-- Node2 -->
<g id="Node000002" class="node">
<title>Node2</title>
<g id="a_Node000002"><a xlink:href="../../d7/d0b/classml_1_1maths_1_1common_1_1_c_x_means_online1d.html#a5c6173a25cbdb7e0c94c097f84a06b4c" target="_top" xlink:title="Efficiently swap the contents of two x&#45;means objects.">
<polygon fill="white" stroke="#666666" points="308,-79.5 181,-79.5 181,-49 308,-49 308,-79.5"/>
<text text-anchor="start" x="189" y="-66" font-family="Helvetica,sans-Serif" font-size="10.00">ml::maths::common::</text>
<text text-anchor="middle" x="244.5" y="-54.75" font-family="Helvetica,sans-Serif" font-size="10.00">CXMeansOnline1d::swap</text>
</a>
</g>
</g>
<!-- Node1&#45;&gt;Node2 -->
<g id="edge1_Node000001_Node000002" class="edge">
<title>Node1&#45;&gt;Node2</title>
<g id="a_edge1_Node000001_Node000002"><a xlink:title=" ">
<path fill="none" stroke="#63b8ff" d="M332.71,-49.91C324.69,-51.23 316.49,-52.57 308.49,-53.89"/>
<polygon fill="#63b8ff" stroke="#63b8ff" points="333.12,-53.39 342.42,-48.31 331.98,-46.48 333.12,-53.39"/>
</a>
</g>
</g>
<!-- Node4 -->
<g id="Node000004" class="node">
<title>Node4</title>
<g id="a_Node000004"><a xlink:href="../../d9/db4/classml_1_1maths_1_1common_1_1_c_x_means_online.html#adb37b42bfc211e846900428008b3431b" target="_top" xlink:title="Efficiently swap the contents of two x&#45;means objects.">
<polygon fill="white" stroke="#666666" points="302.75,-30.5 186.25,-30.5 186.25,0 302.75,0 302.75,-30.5"/>
<text text-anchor="start" x="194.25" y="-17" font-family="Helvetica,sans-Serif" font-size="10.00">ml::maths::common::</text>
<text text-anchor="middle" x="244.5" y="-5.75" font-family="Helvetica,sans-Serif" font-size="10.00">CXMeansOnline::swap</text>
</a>
</g>
</g>
<!-- Node1&#45;&gt;Node4 -->
<g id="edge3_Node000001_Node000004" class="edge">
<title>Node1&#45;&gt;Node4</title>
<g id="a_edge3_Node000001_Node000004"><a xlink:title=" ">
<path fill="none" stroke="#63b8ff" d="M332.86,-29.04C322.93,-27.48 312.75,-25.87 302.99,-24.33"/>
<polygon fill="#63b8ff" stroke="#63b8ff" points="331.99,-32.45 342.42,-30.55 333.08,-25.54 331.99,-32.45"/>
</a>
</g>
</g>
<!-- Node3 -->
<g id="Node000003" class="node">
<title>Node3</title>
<g id="a_Node000003"><a xlink:href="../../d7/d0b/classml_1_1maths_1_1common_1_1_c_x_means_online1d.html#ae01737b1d0ae9b22370073737615f402" target="_top" xlink:title=" ">
<polygon fill="white" stroke="#666666" points="145,-79.5 0,-79.5 0,-49 145,-49 145,-79.5"/>
<text text-anchor="start" x="8" y="-66" font-family="Helvetica,sans-Serif" font-size="10.00">ml::maths::common::</text>
<text text-anchor="middle" x="72.5" y="-54.75" font-family="Helvetica,sans-Serif" font-size="10.00">CXMeansOnline1d::operator=</text>
</a>
</g>
</g>
<!-- Node2&#45;&gt;Node3 -->
<g id="edge2_Node000002_Node000003" class="edge">
<title>Node2&#45;&gt;Node3</title>
<g id="a_edge2_Node000002_Node000003"><a xlink:title=" ">
<path fill="none" stroke="#63b8ff" d="M169.44,-64.25C161.41,-64.25 153.24,-64.25 145.24,-64.25"/>
<polygon fill="#63b8ff" stroke="#63b8ff" points="169.17,-67.75 179.17,-64.25 169.17,-60.75 169.17,-67.75"/>
</a>
</g>
</g>
<!-- Node5 -->
<g id="Node000005" class="node">
<title>Node5</title>
<g id="a_Node000005"><a xlink:href="../../d9/db4/classml_1_1maths_1_1common_1_1_c_x_means_online.html#a65b14ffff628ae6a4334f0ea642a157b" target="_top" xlink:title="The x&#45;means clusterer has value semantics.">
<polygon fill="white" stroke="#666666" points="139.75,-30.5 5.25,-30.5 5.25,0 139.75,0 139.75,-30.5"/>
<text text-anchor="start" x="13.25" y="-17" font-family="Helvetica,sans-Serif" font-size="10.00">ml::maths::common::</text>
<text text-anchor="middle" x="72.5" y="-5.75" font-family="Helvetica,sans-Serif" font-size="10.00">CXMeansOnline::operator=</text>
</a>
</g>
</g>
<!-- Node4&#45;&gt;Node5 -->
<g id="edge4_Node000004_Node000005" class="edge">
<title>Node4&#45;&gt;Node5</title>
<g id="a_edge4_Node000004_Node000005"><a xlink:title=" ">
<path fill="none" stroke="#63b8ff" d="M174.69,-15.25C163.27,-15.25 151.45,-15.25 140.09,-15.25"/>
<polygon fill="#63b8ff" stroke="#63b8ff" points="174.43,-18.75 184.43,-15.25 174.43,-11.75 174.43,-18.75"/>
</a>
</g>
</g>
</g>
</svg>
