<?xml version="1.0" encoding="UTF-8" standalone="no"?>
<!DOCTYPE svg PUBLIC "-//W3C//DTD SVG 1.1//EN"
 "http://www.w3.org/Graphics/SVG/1.1/DTD/svg11.dtd">
<!-- Generated by graphviz version 10.0.1 (20240210.2158)
 -->
<!-- Title: ml::maths::common::CIntegerTools::ceil Pages: 1 -->
<svg width="943pt" height="1015pt"
 viewBox="0.00 0.00 943.00 1014.50" xmlns="http://www.w3.org/2000/svg" xmlns:xlink="http://www.w3.org/1999/xlink">
<g id="graph0" class="graph" transform="scale(1 1) rotate(0) translate(4 1010.5)">
<title>ml::maths::common::CIntegerTools::ceil</title>
<!-- Node1 -->
<g id="Node000001" class="node">
<title>Node1</title>
<g id="a_Node000001"><a xlink:title=" ">
<polygon fill="#999999" stroke="#666666" points="935,-621.88 826,-621.88 826,-591.38 935,-591.38 935,-621.88"/>
<text text-anchor="start" x="834" y="-608.38" font-family="Helvetica,sans-Serif" font-size="10.00">ml::maths::common::</text>
<text text-anchor="middle" x="880.5" y="-597.12" font-family="Helvetica,sans-Serif" font-size="10.00">CIntegerTools::ceil</text>
</a>
</g>
</g>
<!-- Node2 -->
<g id="Node000002" class="node">
<title>Node2</title>
<g id="a_Node000002"><a xlink:href="../../da/d02/classml_1_1maths_1_1time__series_1_1_c_expanding_window.html#a275cf950c6a539e4c71d115b25537843" target="_top" xlink:title="Get the time of the first window value.">
<polygon fill="white" stroke="#666666" points="778.75,-973.88 588,-973.88 588,-943.38 778.75,-943.38 778.75,-973.88"/>
<text text-anchor="start" x="596" y="-960.38" font-family="Helvetica,sans-Serif" font-size="10.00">ml::maths::time_series</text>
<text text-anchor="middle" x="683.38" y="-949.12" font-family="Helvetica,sans-Serif" font-size="10.00">::CExpandingWindow::beginValuesTime</text>
</a>
</g>
</g>
<!-- Node1&#45;&gt;Node2 -->
<g id="edge1_Node000001_Node000002" class="edge">
<title>Node1&#45;&gt;Node2</title>
<g id="a_edge1_Node000001_Node000002"><a xlink:title=" ">
<path fill="none" stroke="#63b8ff" d="M875.78,-633.36C865.43,-703.87 834.13,-892.35 790,-934.62 786.61,-937.88 782.87,-940.72 778.88,-943.21"/>
<polygon fill="#63b8ff" stroke="#63b8ff" points="879.24,-633.89 877.2,-623.49 872.31,-632.89 879.24,-633.89"/>
</a>
</g>
</g>
<!-- Node5 -->
<g id="Node000005" class="node">
<title>Node5</title>
<g id="a_Node000005"><a xlink:href="../../dd/da5/_c_resource_limit_test_8cc.html#a76a101c76900bff93550b17da2218ab0" target="_top" xlink:title=" ">
<polygon fill="white" stroke="#666666" points="764.88,-925.25 601.88,-925.25 601.88,-906 764.88,-906 764.88,-925.25"/>
<text text-anchor="middle" x="683.38" y="-911.75" font-family="Helvetica,sans-Serif" font-size="10.00">BOOST_FIXTURE_TEST_CASE</text>
</a>
</g>
</g>
<!-- Node1&#45;&gt;Node5 -->
<g id="edge4_Node000001_Node000005" class="edge">
<title>Node1&#45;&gt;Node5</title>
<g id="a_edge4_Node000001_Node000005"><a xlink:title=" ">
<path fill="none" stroke="#63b8ff" d="M879.91,-633.65C879.22,-691.65 868.81,-828.42 790,-897.62 782.8,-903.95 774.22,-908.45 765.12,-911.62"/>
<polygon fill="#63b8ff" stroke="#63b8ff" points="883.41,-633.73 879.93,-623.72 876.41,-633.72 883.41,-633.73"/>
</a>
</g>
</g>
<!-- Node6 -->
<g id="Node000006" class="node">
<title>Node6</title>
<g id="a_Node000006"><a xlink:href="../../dd/da5/_c_resource_limit_test_8cc.html#a6bb07ad8d39d1fba2ed618f80ab16c54" target="_top" xlink:title=" ">
<polygon fill="white" stroke="#666666" points="764.88,-888.25 601.88,-888.25 601.88,-869 764.88,-869 764.88,-888.25"/>
<text text-anchor="middle" x="683.38" y="-874.75" font-family="Helvetica,sans-Serif" font-size="10.00">BOOST_FIXTURE_TEST_CASE</text>
</a>
</g>
</g>
<!-- Node1&#45;&gt;Node6 -->
<g id="edge5_Node000001_Node000006" class="edge">
<title>Node1&#45;&gt;Node6</title>
<g id="a_edge5_Node000001_Node000006"><a xlink:title=" ">
<path fill="none" stroke="#63b8ff" d="M878.52,-633.48C875.06,-685.95 859.5,-802.04 790,-860.62 782.75,-866.74 774.19,-871.13 765.14,-874.25"/>
<polygon fill="#63b8ff" stroke="#63b8ff" points="882,-633.84 879.06,-623.66 875.02,-633.46 882,-633.84"/>
</a>
</g>
</g>
<!-- Node7 -->
<g id="Node000007" class="node">
<title>Node7</title>
<g id="a_Node000007"><a xlink:href="../../d1/da9/namespaceml_1_1maths_1_1time__series_1_1anonymous__namespace_02_c_calendar_feature_8cc_03.html#a9d6f7861dd51abd24ccf4325148dfee7" target="_top" xlink:title=" ">
<polygon fill="white" stroke="#666666" points="747.25,-833.12 619.5,-833.12 619.5,-780.12 747.25,-780.12 747.25,-833.12"/>
<text text-anchor="start" x="627.5" y="-819.62" font-family="Helvetica,sans-Serif" font-size="10.00">ml::maths::time_series</text>
<text text-anchor="start" x="627.5" y="-808.38" font-family="Helvetica,sans-Serif" font-size="10.00">::anonymous_namespace</text>
<text text-anchor="start" x="627.5" y="-797.12" font-family="Helvetica,sans-Serif" font-size="10.00">{CCalendarFeature::cc}</text>
<text text-anchor="middle" x="683.38" y="-785.88" font-family="Helvetica,sans-Serif" font-size="10.00">::dayOfFirst</text>
</a>
</g>
</g>
<!-- Node1&#45;&gt;Node7 -->
<g id="edge6_Node000001_Node000007" class="edge">
<title>Node1&#45;&gt;Node7</title>
<g id="a_edge6_Node000001_Node000007"><a xlink:title=" ">
<path fill="none" stroke="#63b8ff" d="M871.1,-632.75C858.66,-667.58 832.15,-729.09 790,-765.62 777.81,-776.19 762.59,-784.19 747.54,-790.19"/>
<polygon fill="#63b8ff" stroke="#63b8ff" points="874.35,-634.06 874.29,-623.46 867.73,-631.78 874.35,-634.06"/>
</a>
</g>
</g>
<!-- Node8 -->
<g id="Node000008" class="node">
<title>Node8</title>
<g id="a_Node000008"><a xlink:href="../../de/dbe/classml_1_1maths_1_1time__series_1_1_c_time_series_decomposition.html#af48fad15657dd25f7f13c1e16b319e3d" target="_top" xlink:title=" ">
<polygon fill="white" stroke="#666666" points="521.25,-772.5 377,-772.5 377,-730.75 521.25,-730.75 521.25,-772.5"/>
<text text-anchor="start" x="385" y="-759" font-family="Helvetica,sans-Serif" font-size="10.00">ml::maths::time_series</text>
<text text-anchor="start" x="385" y="-747.75" font-family="Helvetica,sans-Serif" font-size="10.00">::CTimeSeriesDecomposition</text>
<text text-anchor="middle" x="449.12" y="-736.5" font-family="Helvetica,sans-Serif" font-size="10.00">::forecast</text>
</a>
</g>
</g>
<!-- Node1&#45;&gt;Node8 -->
<g id="edge8_Node000001_Node000008" class="edge">
<title>Node1&#45;&gt;Node8</title>
<g id="a_edge8_Node000001_Node000008"><a xlink:title=" ">
<path fill="none" stroke="#63b8ff" d="M869.36,-632.6C856.1,-662.61 829.78,-710.66 790,-732.62 706.84,-778.55 594.1,-774.29 521.73,-764.76"/>
<polygon fill="#63b8ff" stroke="#63b8ff" points="872.54,-634.05 873.21,-623.47 866.1,-631.32 872.54,-634.05"/>
</a>
</g>
</g>
<!-- Node9 -->
<g id="Node000009" class="node">
<title>Node9</title>
<g id="a_Node000009"><a xlink:href="../../d1/d32/classml_1_1maths_1_1time__series_1_1_c_trend_component.html#aa4b75825be26f2bb67a42a7fce3f1ade" target="_top" xlink:title=" ">
<polygon fill="white" stroke="#666666" points="756.25,-705.88 610.5,-705.88 610.5,-675.38 756.25,-675.38 756.25,-705.88"/>
<text text-anchor="start" x="618.5" y="-692.38" font-family="Helvetica,sans-Serif" font-size="10.00">ml::maths::time_series</text>
<text text-anchor="middle" x="683.38" y="-681.12" font-family="Helvetica,sans-Serif" font-size="10.00">::CTrendComponent::forecast</text>
</a>
</g>
</g>
<!-- Node1&#45;&gt;Node9 -->
<g id="edge9_Node000001_Node000009" class="edge">
<title>Node1&#45;&gt;Node9</title>
<g id="a_edge9_Node000001_Node000009"><a xlink:title=" ">
<path fill="none" stroke="#63b8ff" d="M852,-628.94C835.04,-641.69 812.32,-657 790,-666.62 779.47,-671.17 767.95,-674.91 756.53,-677.97"/>
<polygon fill="#63b8ff" stroke="#63b8ff" points="853.81,-631.97 859.6,-623.1 849.54,-626.43 853.81,-631.97"/>
</a>
</g>
</g>
<!-- Node13 -->
<g id="Node000013" class="node">
<title>Node13</title>
<g id="a_Node000013"><a xlink:href="../../db/dd1/namespaceanonymous__namespace_02_c_event_rate_anomaly_detector_test_8cc_03.html#a99976d32cecc938c19b13008246468d7" target="_top" xlink:title=" ">
<polygon fill="white" stroke="#666666" points="757.75,-657.5 609,-657.5 609,-615.75 757.75,-615.75 757.75,-657.5"/>
<text text-anchor="start" x="617" y="-644" font-family="Helvetica,sans-Serif" font-size="10.00">anonymous_namespace</text>
<text text-anchor="start" x="617" y="-632.75" font-family="Helvetica,sans-Serif" font-size="10.00">{CEventRateAnomalyDetector</text>
<text text-anchor="middle" x="683.38" y="-621.5" font-family="Helvetica,sans-Serif" font-size="10.00">Test::cc}::importData</text>
</a>
</g>
</g>
<!-- Node1&#45;&gt;Node13 -->
<g id="edge15_Node000001_Node000013" class="edge">
<title>Node1&#45;&gt;Node13</title>
<g id="a_edge15_Node000001_Node000013"><a xlink:title=" ">
<path fill="none" stroke="#63b8ff" d="M814.38,-616.64C796.33,-619.41 776.62,-622.44 758.12,-625.29"/>
<polygon fill="#63b8ff" stroke="#63b8ff" points="814.82,-620.11 824.17,-615.13 813.75,-613.19 814.82,-620.11"/>
</a>
</g>
</g>
<!-- Node16 -->
<g id="Node000016" class="node">
<title>Node16</title>
<g id="a_Node000016"><a xlink:href="../../de/d28/namespaceanonymous__namespace_02_c_metric_anomaly_detector_test_8cc_03.html#a9e046f42ae6df22bf7ed03732a9ce385" target="_top" xlink:title=" ">
<polygon fill="white" stroke="#666666" points="757.38,-597.5 609.38,-597.5 609.38,-555.75 757.38,-555.75 757.38,-597.5"/>
<text text-anchor="start" x="617.38" y="-584" font-family="Helvetica,sans-Serif" font-size="10.00">anonymous_namespace</text>
<text text-anchor="start" x="617.38" y="-572.75" font-family="Helvetica,sans-Serif" font-size="10.00">{CMetricAnomalyDetectorTest</text>
<text text-anchor="middle" x="683.38" y="-561.5" font-family="Helvetica,sans-Serif" font-size="10.00">::cc}::importData</text>
</a>
</g>
</g>
<!-- Node1&#45;&gt;Node16 -->
<g id="edge18_Node000001_Node000016" class="edge">
<title>Node1&#45;&gt;Node16</title>
<g id="a_edge18_Node000001_Node000016"><a xlink:title=" ">
<path fill="none" stroke="#63b8ff" d="M814.31,-596.6C796.17,-593.81 776.34,-590.76 757.75,-587.91"/>
<polygon fill="#63b8ff" stroke="#63b8ff" points="813.75,-600.06 824.17,-598.12 814.82,-593.14 813.75,-600.06"/>
</a>
</g>
</g>
<!-- Node19 -->
<g id="Node000019" class="node">
<title>Node19</title>
<g id="a_Node000019"><a xlink:href="../../df/d6c/classml_1_1maths_1_1time__series_1_1_c_time_series_decomposition_detail_1_1_c_change_point_test.html#affbb36ba83c704dfdb079baf957ea3ed" target="_top" xlink:title="The minimum time a change has to last.">
<polygon fill="white" stroke="#666666" points="790,-537.5 576.75,-537.5 576.75,-495.75 790,-495.75 790,-537.5"/>
<text text-anchor="start" x="584.75" y="-524" font-family="Helvetica,sans-Serif" font-size="10.00">ml::maths::time_series</text>
<text text-anchor="start" x="584.75" y="-512.75" font-family="Helvetica,sans-Serif" font-size="10.00">::CTimeSeriesDecompositionDetail</text>
<text text-anchor="middle" x="683.38" y="-501.5" font-family="Helvetica,sans-Serif" font-size="10.00">::CChangePointTest::minimumChangeLength</text>
</a>
</g>
</g>
<!-- Node1&#45;&gt;Node19 -->
<g id="edge21_Node000001_Node000019" class="edge">
<title>Node1&#45;&gt;Node19</title>
<g id="a_edge21_Node000001_Node000019"><a xlink:title=" ">
<path fill="none" stroke="#63b8ff" d="M851.15,-584.24C834.19,-571.74 811.77,-556.71 790,-546.62 783.17,-543.46 775.93,-540.56 768.57,-537.91"/>
<polygon fill="#63b8ff" stroke="#63b8ff" points="848.66,-586.75 858.75,-589.97 852.87,-581.16 848.66,-586.75"/>
</a>
</g>
</g>
<!-- Node20 -->
<g id="Node000020" class="node">
<title>Node20</title>
<g id="a_Node000020"><a xlink:href="../../d9/dee/classml_1_1api_1_1_c_anomaly_job.html#a9f65dd0e424bca17de0073ad974fa819" target="_top" xlink:title=" ">
<polygon fill="white" stroke="#666666" points="752.88,-477.88 613.88,-477.88 613.88,-447.38 752.88,-447.38 752.88,-477.88"/>
<text text-anchor="start" x="621.88" y="-464.38" font-family="Helvetica,sans-Serif" font-size="10.00">ml::api::CAnomalyJob</text>
<text text-anchor="middle" x="683.38" y="-453.12" font-family="Helvetica,sans-Serif" font-size="10.00">::outputResultsWithinRange</text>
</a>
</g>
</g>
<!-- Node1&#45;&gt;Node20 -->
<g id="edge22_Node000001_Node000020" class="edge">
<title>Node1&#45;&gt;Node20</title>
<g id="a_edge22_Node000001_Node000020"><a xlink:title=" ">
<path fill="none" stroke="#63b8ff" d="M867.26,-580.82C852.76,-553.14 825.97,-510.02 790,-486.62 778.97,-479.45 766.07,-474.4 753.15,-470.86"/>
<polygon fill="#63b8ff" stroke="#63b8ff" points="864.06,-582.25 871.7,-589.6 870.31,-579.09 864.06,-582.25"/>
</a>
</g>
</g>
<!-- Node24 -->
<g id="Node000024" class="node">
<title>Node24</title>
<g id="a_Node000024"><a xlink:href="../../d9/dee/classml_1_1api_1_1_c_anomaly_job.html#ad59345c07a68bbfa087e27bfec766870" target="_top" xlink:title="Reset buckets in the range specified by the control message.">
<polygon fill="white" stroke="#666666" points="739.75,-428.88 627,-428.88 627,-398.38 739.75,-398.38 739.75,-428.88"/>
<text text-anchor="start" x="635" y="-415.38" font-family="Helvetica,sans-Serif" font-size="10.00">ml::api::CAnomalyJob</text>
<text text-anchor="middle" x="683.38" y="-404.12" font-family="Helvetica,sans-Serif" font-size="10.00">::resetBuckets</text>
</a>
</g>
</g>
<!-- Node1&#45;&gt;Node24 -->
<g id="edge26_Node000001_Node000024" class="edge">
<title>Node1&#45;&gt;Node24</title>
<g id="a_edge26_Node000001_Node000024"><a xlink:title=" ">
<path fill="none" stroke="#63b8ff" d="M872.82,-580.05C861.97,-542.58 836.88,-474.77 790,-438.62 775.75,-427.64 757.43,-421.37 740.06,-417.82"/>
<polygon fill="#63b8ff" stroke="#63b8ff" points="869.42,-580.89 875.44,-589.61 876.17,-579.04 869.42,-580.89"/>
</a>
</g>
</g>
<!-- Node25 -->
<g id="Node000025" class="node">
<title>Node25</title>
<g id="a_Node000025"><a xlink:href="../../d9/dee/classml_1_1api_1_1_c_anomaly_job.html#a7921021ce1b0df63a4ca4b6dbb990f1c" target="_top" xlink:title="Restore previously saved state.">
<polygon fill="white" stroke="#666666" points="739.75,-312.88 627,-312.88 627,-282.38 739.75,-282.38 739.75,-312.88"/>
<text text-anchor="start" x="635" y="-299.38" font-family="Helvetica,sans-Serif" font-size="10.00">ml::api::CAnomalyJob</text>
<text text-anchor="middle" x="683.38" y="-288.12" font-family="Helvetica,sans-Serif" font-size="10.00">::restoreState</text>
</a>
</g>
</g>
<!-- Node1&#45;&gt;Node25 -->
<g id="edge28_Node000001_Node000025" class="edge">
<title>Node1&#45;&gt;Node25</title>
<g id="a_edge28_Node000001_Node000025"><a xlink:title=" ">
<path fill="none" stroke="#63b8ff" d="M877.72,-579.83C872.83,-527.25 854.87,-409.65 790,-340.62 776.71,-326.49 758.12,-316.87 740.23,-310.39"/>
<polygon fill="#63b8ff" stroke="#63b8ff" points="874.22,-579.98 878.53,-589.66 881.19,-579.4 874.22,-579.98"/>
</a>
</g>
</g>
<!-- Node40 -->
<g id="Node000040" class="node">
<title>Node40</title>
<g id="a_Node000040"><a xlink:href="../../d9/dee/classml_1_1api_1_1_c_anomaly_job.html#ae62a31d74c6e55172bbdb1ce33f42226" target="_top" xlink:title="Skip time to the bucket end of time, if it can be parsed.">
<polygon fill="white" stroke="#666666" points="739.75,-379.88 627,-379.88 627,-349.38 739.75,-349.38 739.75,-379.88"/>
<text text-anchor="start" x="635" y="-366.38" font-family="Helvetica,sans-Serif" font-size="10.00">ml::api::CAnomalyJob</text>
<text text-anchor="middle" x="683.38" y="-355.12" font-family="Helvetica,sans-Serif" font-size="10.00">::skipTime</text>
</a>
</g>
</g>
<!-- Node1&#45;&gt;Node40 -->
<g id="edge44_Node000001_Node000040" class="edge">
<title>Node1&#45;&gt;Node40</title>
<g id="a_edge44_Node000001_Node000040"><a xlink:title=" ">
<path fill="none" stroke="#63b8ff" d="M876.32,-579.82C869.38,-533.7 848.5,-439.5 790,-389.62 776.16,-377.83 757.75,-371.37 740.17,-367.91"/>
<polygon fill="#63b8ff" stroke="#63b8ff" points="872.82,-580.04 877.66,-589.47 879.75,-579.08 872.82,-580.04"/>
</a>
</g>
</g>
<!-- Node41 -->
<g id="Node000041" class="node">
<title>Node41</title>
<g id="a_Node000041"><a xlink:href="../../df/d6c/classml_1_1maths_1_1time__series_1_1_c_time_series_decomposition_detail_1_1_c_change_point_test.html#a85e3f601137f849495782253a6a3a2e9" target="_top" xlink:title="The start of the values given the buckets start at bucketStartTime.">
<polygon fill="white" stroke="#666666" points="774.25,-264.5 592.5,-264.5 592.5,-222.75 774.25,-222.75 774.25,-264.5"/>
<text text-anchor="start" x="600.5" y="-251" font-family="Helvetica,sans-Serif" font-size="10.00">ml::maths::time_series</text>
<text text-anchor="start" x="600.5" y="-239.75" font-family="Helvetica,sans-Serif" font-size="10.00">::CTimeSeriesDecompositionDetail</text>
<text text-anchor="middle" x="683.38" y="-228.5" font-family="Helvetica,sans-Serif" font-size="10.00">::CChangePointTest::valuesStartTime</text>
</a>
</g>
</g>
<!-- Node1&#45;&gt;Node41 -->
<g id="edge46_Node000001_Node000041" class="edge">
<title>Node1&#45;&gt;Node41</title>
<g id="a_edge46_Node000001_Node000041"><a xlink:title=" ">
<path fill="none" stroke="#63b8ff" d="M875.77,-580.06C865.32,-509.15 833.6,-317.85 790,-273.62 785.45,-269.01 780.24,-265.09 774.64,-261.77"/>
<polygon fill="#63b8ff" stroke="#63b8ff" points="872.26,-580.21 877.16,-589.6 879.19,-579.2 872.26,-580.21"/>
</a>
</g>
</g>
<!-- Node3 -->
<g id="Node000003" class="node">
<title>Node3</title>
<g id="a_Node000003"><a xlink:href="../../da/d02/classml_1_1maths_1_1time__series_1_1_c_expanding_window.html#a92b7f88f795b12951bebc4a636095827" target="_top" xlink:title="Get the end time of the windows&#39; values.">
<polygon fill="white" stroke="#666666" points="540.75,-946.88 357.5,-946.88 357.5,-916.38 540.75,-916.38 540.75,-946.88"/>
<text text-anchor="start" x="365.5" y="-933.38" font-family="Helvetica,sans-Serif" font-size="10.00">ml::maths::time_series</text>
<text text-anchor="middle" x="449.12" y="-922.12" font-family="Helvetica,sans-Serif" font-size="10.00">::CExpandingWindow::endValuesTime</text>
</a>
</g>
</g>
<!-- Node2&#45;&gt;Node3 -->
<g id="edge2_Node000002_Node000003" class="edge">
<title>Node2&#45;&gt;Node3</title>
<g id="a_edge2_Node000002_Node000003"><a xlink:title=" ">
<path fill="none" stroke="#63b8ff" d="M576.38,-946.3C564.65,-944.94 552.77,-943.56 541.25,-942.22"/>
<polygon fill="#63b8ff" stroke="#63b8ff" points="575.73,-949.75 586.07,-947.43 576.54,-942.8 575.73,-949.75"/>
</a>
</g>
</g>
<!-- Node4 -->
<g id="Node000004" class="node">
<title>Node4</title>
<g id="a_Node000004"><a xlink:href="../../da/d02/classml_1_1maths_1_1time__series_1_1_c_expanding_window.html#a109070f4aa5296505647f64748ac97fa" target="_top" xlink:title="Get the bucket values in bucketValues minus the predictions of predictor.">
<polygon fill="white" stroke="#666666" points="534.75,-1006.5 363.5,-1006.5 363.5,-964.75 534.75,-964.75 534.75,-1006.5"/>
<text text-anchor="start" x="371.5" y="-993" font-family="Helvetica,sans-Serif" font-size="10.00">ml::maths::time_series</text>
<text text-anchor="start" x="371.5" y="-981.75" font-family="Helvetica,sans-Serif" font-size="10.00">::CExpandingWindow::valuesMinus</text>
<text text-anchor="middle" x="449.12" y="-970.5" font-family="Helvetica,sans-Serif" font-size="10.00">Prediction</text>
</a>
</g>
</g>
<!-- Node2&#45;&gt;Node4 -->
<g id="edge3_Node000002_Node000004" class="edge">
<title>Node2&#45;&gt;Node4</title>
<g id="a_edge3_Node000002_Node000004"><a xlink:title=" ">
<path fill="none" stroke="#63b8ff" d="M576.47,-970.94C562.55,-972.56 548.43,-974.2 534.92,-975.77"/>
<polygon fill="#63b8ff" stroke="#63b8ff" points="576.54,-974.45 586.07,-969.82 575.73,-967.5 576.54,-974.45"/>
</a>
</g>
</g>
<!-- Node7&#45;&gt;Node7 -->
<g id="edge7_Node000007_Node000007" class="edge">
<title>Node7&#45;&gt;Node7</title>
<g id="a_edge7_Node000007_Node000007"><a xlink:title=" ">
<path fill="none" stroke="#63b8ff" d="M715.23,-843.72C709.48,-848.2 698.86,-851.12 683.38,-851.12 657.96,-851.12 645.66,-843.24 646.45,-833.56"/>
<polygon fill="#63b8ff" stroke="#63b8ff" points="718.29,-845.43 719.62,-834.92 712.03,-842.3 718.29,-845.43"/>
</a>
</g>
</g>
<!-- Node9&#45;&gt;Node8 -->
<g id="edge10_Node000009_Node000008" class="edge">
<title>Node9&#45;&gt;Node8</title>
<g id="a_edge10_Node000009_Node000008"><a xlink:title=" ">
<path fill="none" stroke="#63b8ff" d="M611.48,-709.25C583.02,-716.72 550.26,-725.33 521.73,-732.82"/>
<polygon fill="#63b8ff" stroke="#63b8ff" points="612.32,-712.64 621.1,-706.72 610.54,-705.87 612.32,-712.64"/>
</a>
</g>
</g>
<!-- Node9&#45;&gt;Node9 -->
<g id="edge11_Node000009_Node000009" class="edge">
<title>Node9&#45;&gt;Node9</title>
<g id="a_edge11_Node000009_Node000009"><a xlink:title=" ">
<path fill="none" stroke="#63b8ff" d="M716.43,-717.58C711.03,-721.35 700.01,-723.88 683.38,-723.88 652.96,-723.88 641.32,-715.43 648.44,-706.36"/>
<polygon fill="#63b8ff" stroke="#63b8ff" points="719.86,-718.29 718.06,-707.85 712.96,-717.14 719.86,-718.29"/>
</a>
</g>
</g>
<!-- Node10 -->
<g id="Node000010" class="node">
<title>Node10</title>
<g id="a_Node000010"><a xlink:href="../../d0/def/namespaceanonymous__namespace_02_c_trend_component_test_8cc_03.html#aef4f07aa6b56ffa8b24ac2ca9d46e893" target="_top" xlink:title=" ">
<polygon fill="white" stroke="#666666" points="510,-712.5 388.25,-712.5 388.25,-670.75 510,-670.75 510,-712.5"/>
<text text-anchor="start" x="396.25" y="-699" font-family="Helvetica,sans-Serif" font-size="10.00">anonymous_namespace</text>
<text text-anchor="start" x="396.25" y="-687.75" font-family="Helvetica,sans-Serif" font-size="10.00">{CTrendComponentTest</text>
<text text-anchor="middle" x="449.12" y="-676.5" font-family="Helvetica,sans-Serif" font-size="10.00">::cc}::forecastErrors</text>
</a>
</g>
</g>
<!-- Node9&#45;&gt;Node10 -->
<g id="edge12_Node000009_Node000010" class="edge">
<title>Node9&#45;&gt;Node10</title>
<g id="a_edge12_Node000009_Node000010"><a xlink:title=" ">
<path fill="none" stroke="#63b8ff" d="M598.68,-690.99C569.41,-691.11 537.15,-691.25 510.2,-691.37"/>
<polygon fill="#63b8ff" stroke="#63b8ff" points="598.66,-694.49 608.65,-690.94 598.63,-687.49 598.66,-694.49"/>
</a>
</g>
</g>
<!-- Node11 -->
<g id="Node000011" class="node">
<title>Node11</title>
<g id="a_Node000011"><a xlink:href="../../d0/def/namespaceanonymous__namespace_02_c_trend_component_test_8cc_03.html#a00bf6a87699dd2fc2b849cdd664344d3" target="_top" xlink:title=" ">
<polygon fill="white" stroke="#666666" points="321.5,-682.5 148.75,-682.5 148.75,-640.75 321.5,-640.75 321.5,-682.5"/>
<text text-anchor="start" x="156.75" y="-669" font-family="Helvetica,sans-Serif" font-size="10.00">anonymous_namespace</text>
<text text-anchor="start" x="156.75" y="-657.75" font-family="Helvetica,sans-Serif" font-size="10.00">{CTrendComponentTest</text>
<text text-anchor="middle" x="235.12" y="-646.5" font-family="Helvetica,sans-Serif" font-size="10.00">::cc}::BOOST_AUTO_TEST_CASE</text>
</a>
</g>
</g>
<!-- Node10&#45;&gt;Node11 -->
<g id="edge13_Node000010_Node000011" class="edge">
<title>Node10&#45;&gt;Node11</title>
<g id="a_edge13_Node000010_Node000011"><a xlink:title=" ">
<path fill="none" stroke="#63b8ff" d="M376.6,-681.5C359,-679.01 339.98,-676.32 321.78,-673.75"/>
<polygon fill="#63b8ff" stroke="#63b8ff" points="376.05,-684.96 386.44,-682.9 377.03,-678.03 376.05,-684.96"/>
</a>
</g>
</g>
<!-- Node12 -->
<g id="Node000012" class="node">
<title>Node12</title>
<g id="a_Node000012"><a xlink:href="../../d0/def/namespaceanonymous__namespace_02_c_trend_component_test_8cc_03.html#a78423d558b292ff5faa9f81b792a0458" target="_top" xlink:title=" ">
<polygon fill="white" stroke="#666666" points="321.5,-742.5 148.75,-742.5 148.75,-700.75 321.5,-700.75 321.5,-742.5"/>
<text text-anchor="start" x="156.75" y="-729" font-family="Helvetica,sans-Serif" font-size="10.00">anonymous_namespace</text>
<text text-anchor="start" x="156.75" y="-717.75" font-family="Helvetica,sans-Serif" font-size="10.00">{CTrendComponentTest</text>
<text text-anchor="middle" x="235.12" y="-706.5" font-family="Helvetica,sans-Serif" font-size="10.00">::cc}::BOOST_AUTO_TEST_CASE</text>
</a>
</g>
</g>
<!-- Node10&#45;&gt;Node12 -->
<g id="edge14_Node000010_Node000012" class="edge">
<title>Node10&#45;&gt;Node12</title>
<g id="a_edge14_Node000010_Node000012"><a xlink:title=" ">
<path fill="none" stroke="#63b8ff" d="M376.6,-701.75C359,-704.24 339.98,-706.93 321.78,-709.5"/>
<polygon fill="#63b8ff" stroke="#63b8ff" points="377.03,-705.22 386.44,-700.35 376.05,-698.29 377.03,-705.22"/>
</a>
</g>
</g>
<!-- Node14 -->
<g id="Node000014" class="node">
<title>Node14</title>
<g id="a_Node000014"><a xlink:href="../../d1/dde/_c_event_rate_anomaly_detector_test_8cc.html#a7cab539cf527537c9c6bcf0b03c6674b" target="_top" xlink:title=" ">
<polygon fill="white" stroke="#666666" points="522.75,-615.25 375.5,-615.25 375.5,-596 522.75,-596 522.75,-615.25"/>
<text text-anchor="middle" x="449.12" y="-601.75" font-family="Helvetica,sans-Serif" font-size="10.00">BOOST_AUTO_TEST_CASE</text>
</a>
</g>
</g>
<!-- Node13&#45;&gt;Node14 -->
<g id="edge16_Node000013_Node000014" class="edge">
<title>Node13&#45;&gt;Node14</title>
<g id="a_edge16_Node000013_Node000014"><a xlink:title=" ">
<path fill="none" stroke="#63b8ff" d="M597.16,-625.25C572.8,-622 546.49,-618.49 522.94,-615.34"/>
<polygon fill="#63b8ff" stroke="#63b8ff" points="596.7,-628.72 607.07,-626.57 597.62,-621.78 596.7,-628.72"/>
</a>
</g>
</g>
<!-- Node15 -->
<g id="Node000015" class="node">
<title>Node15</title>
<g id="a_Node000015"><a xlink:href="../../d1/dde/_c_event_rate_anomaly_detector_test_8cc.html#a1d68c9c9ad2692e9d6ddacc5a88211ac" target="_top" xlink:title=" ">
<polygon fill="white" stroke="#666666" points="522.75,-652.25 375.5,-652.25 375.5,-633 522.75,-633 522.75,-652.25"/>
<text text-anchor="middle" x="449.12" y="-638.75" font-family="Helvetica,sans-Serif" font-size="10.00">BOOST_AUTO_TEST_CASE</text>
</a>
</g>
</g>
<!-- Node13&#45;&gt;Node15 -->
<g id="edge17_Node000013_Node000015" class="edge">
<title>Node13&#45;&gt;Node15</title>
<g id="a_edge17_Node000013_Node000015"><a xlink:title=" ">
<path fill="none" stroke="#63b8ff" d="M597.16,-638.83C572.8,-639.46 546.49,-640.14 522.94,-640.74"/>
<polygon fill="#63b8ff" stroke="#63b8ff" points="597.15,-642.33 607.06,-638.57 596.97,-635.33 597.15,-642.33"/>
</a>
</g>
</g>
<!-- Node17 -->
<g id="Node000017" class="node">
<title>Node17</title>
<g id="a_Node000017"><a xlink:href="../../d8/d33/_c_metric_anomaly_detector_test_8cc.html#a7cab539cf527537c9c6bcf0b03c6674b" target="_top" xlink:title=" ">
<polygon fill="white" stroke="#666666" points="522.75,-541.25 375.5,-541.25 375.5,-522 522.75,-522 522.75,-541.25"/>
<text text-anchor="middle" x="449.12" y="-527.75" font-family="Helvetica,sans-Serif" font-size="10.00">BOOST_AUTO_TEST_CASE</text>
</a>
</g>
</g>
<!-- Node16&#45;&gt;Node17 -->
<g id="edge19_Node000016_Node000017" class="edge">
<title>Node16&#45;&gt;Node17</title>
<g id="a_edge19_Node000016_Node000017"><a xlink:title=" ">
<path fill="none" stroke="#63b8ff" d="M597.74,-560.23C565.75,-554.03 530.31,-547.16 502.17,-541.71"/>
<polygon fill="#63b8ff" stroke="#63b8ff" points="596.92,-563.63 607.4,-562.1 598.25,-556.76 596.92,-563.63"/>
</a>
</g>
</g>
<!-- Node18 -->
<g id="Node000018" class="node">
<title>Node18</title>
<g id="a_Node000018"><a xlink:href="../../d8/d33/_c_metric_anomaly_detector_test_8cc.html#a1d68c9c9ad2692e9d6ddacc5a88211ac" target="_top" xlink:title=" ">
<polygon fill="white" stroke="#666666" points="522.75,-578.25 375.5,-578.25 375.5,-559 522.75,-559 522.75,-578.25"/>
<text text-anchor="middle" x="449.12" y="-564.75" font-family="Helvetica,sans-Serif" font-size="10.00">BOOST_AUTO_TEST_CASE</text>
</a>
</g>
</g>
<!-- Node16&#45;&gt;Node18 -->
<g id="edge20_Node000016_Node000018" class="edge">
<title>Node16&#45;&gt;Node18</title>
<g id="a_edge20_Node000016_Node000018"><a xlink:title=" ">
<path fill="none" stroke="#63b8ff" d="M597.47,-573.7C573.09,-572.86 546.73,-571.95 523.13,-571.14"/>
<polygon fill="#63b8ff" stroke="#63b8ff" points="597.26,-577.2 607.38,-574.04 597.5,-570.2 597.26,-577.2"/>
</a>
</g>
</g>
<!-- Node21 -->
<g id="Node000021" class="node">
<title>Node21</title>
<g id="a_Node000021"><a xlink:href="../../d9/dee/classml_1_1api_1_1_c_anomaly_job.html#ad73da3c668b230305f4bed2fe3fc5b2c" target="_top" xlink:title="Generate interim results.">
<polygon fill="white" stroke="#666666" points="510.75,-474.88 387.5,-474.88 387.5,-444.38 510.75,-444.38 510.75,-474.88"/>
<text text-anchor="start" x="395.5" y="-461.38" font-family="Helvetica,sans-Serif" font-size="10.00">ml::api::CAnomalyJob</text>
<text text-anchor="middle" x="449.12" y="-450.12" font-family="Helvetica,sans-Serif" font-size="10.00">::generateInterimResults</text>
</a>
</g>
</g>
<!-- Node20&#45;&gt;Node21 -->
<g id="edge23_Node000020_Node000021" class="edge">
<title>Node20&#45;&gt;Node21</title>
<g id="a_edge23_Node000020_Node000021"><a xlink:title=" ">
<path fill="none" stroke="#63b8ff" d="M602.38,-461.59C572.5,-461.21 539.09,-460.77 511.19,-460.41"/>
<polygon fill="#63b8ff" stroke="#63b8ff" points="602.08,-465.09 612.12,-461.72 602.17,-458.09 602.08,-465.09"/>
</a>
</g>
</g>
<!-- Node22 -->
<g id="Node000022" class="node">
<title>Node22</title>
<g id="a_Node000022"><a xlink:href="../../d9/dee/classml_1_1api_1_1_c_anomaly_job.html#a176e0e5e3eaa3e802ff4da6773e33c35" target="_top" xlink:title=" ">
<polygon fill="white" stroke="#666666" points="296,-428.88 174.25,-428.88 174.25,-398.38 296,-398.38 296,-428.88"/>
<text text-anchor="start" x="182.25" y="-415.38" font-family="Helvetica,sans-Serif" font-size="10.00">ml::api::CAnomalyJob</text>
<text text-anchor="middle" x="235.12" y="-404.12" font-family="Helvetica,sans-Serif" font-size="10.00">::handleControlMessage</text>
</a>
</g>
</g>
<!-- Node21&#45;&gt;Node22 -->
<g id="edge24_Node000021_Node000022" class="edge">
<title>Node21&#45;&gt;Node22</title>
<g id="a_edge24_Node000021_Node000022"><a xlink:title=" ">
<path fill="none" stroke="#63b8ff" d="M376.17,-444.01C350.22,-438.38 321.21,-432.09 296.36,-426.7"/>
<polygon fill="#63b8ff" stroke="#63b8ff" points="375.1,-447.36 385.61,-446.06 376.58,-440.52 375.1,-447.36"/>
</a>
</g>
</g>
<!-- Node23 -->
<g id="Node000023" class="node">
<title>Node23</title>
<g id="a_Node000023"><a xlink:href="../../d9/dee/classml_1_1api_1_1_c_anomaly_job.html#a7b4418f8987b9618eb3534c80d8d1617" target="_top" xlink:title=" ">
<polygon fill="white" stroke="#666666" points="112.75,-428.88 0,-428.88 0,-398.38 112.75,-398.38 112.75,-428.88"/>
<text text-anchor="start" x="8" y="-415.38" font-family="Helvetica,sans-Serif" font-size="10.00">ml::api::CAnomalyJob</text>
<text text-anchor="middle" x="56.38" y="-404.12" font-family="Helvetica,sans-Serif" font-size="10.00">::handleRecord</text>
</a>
</g>
</g>
<!-- Node22&#45;&gt;Node23 -->
<g id="edge25_Node000022_Node000023" class="edge">
<title>Node22&#45;&gt;Node23</title>
<g id="a_edge25_Node000022_Node000023"><a xlink:title=" ">
<path fill="none" stroke="#63b8ff" d="M162.52,-413.62C146.01,-413.62 128.69,-413.62 112.98,-413.62"/>
<polygon fill="#63b8ff" stroke="#63b8ff" points="162.28,-417.13 172.28,-413.63 162.28,-410.13 162.28,-417.13"/>
</a>
</g>
</g>
<!-- Node24&#45;&gt;Node22 -->
<g id="edge27_Node000024_Node000022" class="edge">
<title>Node24&#45;&gt;Node22</title>
<g id="a_edge27_Node000024_Node000022"><a xlink:title=" ">
<path fill="none" stroke="#63b8ff" d="M615.5,-413.62C528.98,-413.62 379.52,-413.62 296.37,-413.62"/>
<polygon fill="#63b8ff" stroke="#63b8ff" points="615.25,-417.13 625.25,-413.63 615.25,-410.13 615.25,-417.13"/>
</a>
</g>
</g>
<!-- Node25&#45;&gt;Node25 -->
<g id="edge43_Node000025_Node000025" class="edge">
<title>Node25&#45;&gt;Node25</title>
<g id="a_edge43_Node000025_Node000025"><a xlink:title=" ">
<path fill="none" stroke="#63b8ff" d="M716.43,-324.58C711.03,-328.35 700.01,-330.88 683.38,-330.88 652.96,-330.88 641.32,-322.43 648.44,-313.36"/>
<polygon fill="#63b8ff" stroke="#63b8ff" points="719.86,-325.29 718.06,-314.85 712.96,-324.14 719.86,-325.29"/>
</a>
</g>
</g>
<!-- Node26 -->
<g id="Node000026" class="node">
<title>Node26</title>
<g id="a_Node000026"><a xlink:href="../../d7/d70/namespaceanonymous__namespace_02_c_restore_previous_state_test_8cc_03.html#ad510e3e3e957af0ca88ec08fd7cc04c9" target="_top" xlink:title=" ">
<polygon fill="white" stroke="#666666" points="538.5,-123.5 359.75,-123.5 359.75,-81.75 538.5,-81.75 538.5,-123.5"/>
<text text-anchor="start" x="367.75" y="-110" font-family="Helvetica,sans-Serif" font-size="10.00">anonymous_namespace</text>
<text text-anchor="start" x="367.75" y="-98.75" font-family="Helvetica,sans-Serif" font-size="10.00">{CRestorePreviousStateTest</text>
<text text-anchor="middle" x="449.12" y="-87.5" font-family="Helvetica,sans-Serif" font-size="10.00">::cc}::anomalyDetectorRestoreHelper</text>
</a>
</g>
</g>
<!-- Node25&#45;&gt;Node26 -->
<g id="edge29_Node000025_Node000026" class="edge">
<title>Node25&#45;&gt;Node26</title>
<g id="a_edge29_Node000025_Node000026"><a xlink:title=" ">
<path fill="none" stroke="#63b8ff" d="M615.6,-290.48C601.93,-286.88 588.24,-281.54 576.75,-273.62 552.99,-257.26 557.59,-243.04 540.75,-219.62 516.15,-185.42 485.87,-147.02 467.29,-123.84"/>
<polygon fill="#63b8ff" stroke="#63b8ff" points="614.5,-293.81 625.03,-292.66 616.08,-286.99 614.5,-293.81"/>
</a>
</g>
</g>
<!-- Node32 -->
<g id="Node000032" class="node">
<title>Node32</title>
<g id="a_Node000032"><a xlink:href="../../d4/d7c/_c_anomaly_job_test_8cc.html#ac3215c56759c5715599c2ac87be2e34c" target="_top" xlink:title=" ">
<polygon fill="white" stroke="#666666" points="522.75,-345.25 375.5,-345.25 375.5,-326 522.75,-326 522.75,-345.25"/>
<text text-anchor="middle" x="449.12" y="-331.75" font-family="Helvetica,sans-Serif" font-size="10.00">BOOST_AUTO_TEST_CASE</text>
</a>
</g>
</g>
<!-- Node25&#45;&gt;Node32 -->
<g id="edge35_Node000025_Node000032" class="edge">
<title>Node25&#45;&gt;Node32</title>
<g id="a_edge35_Node000025_Node000032"><a xlink:title=" ">
<path fill="none" stroke="#63b8ff" d="M615.48,-308.57C582.82,-313.91 543.78,-320.3 511.84,-325.53"/>
<polygon fill="#63b8ff" stroke="#63b8ff" points="615.95,-312.04 625.25,-306.97 614.82,-305.13 615.95,-312.04"/>
</a>
</g>
</g>
<!-- Node33 -->
<g id="Node000033" class="node">
<title>Node33</title>
<g id="a_Node000033"><a xlink:href="../../d4/d7c/_c_anomaly_job_test_8cc.html#a98c402a99e6f214d93ffce94942221a7" target="_top" xlink:title=" ">
<polygon fill="white" stroke="#666666" points="522.75,-308.25 375.5,-308.25 375.5,-289 522.75,-289 522.75,-308.25"/>
<text text-anchor="middle" x="449.12" y="-294.75" font-family="Helvetica,sans-Serif" font-size="10.00">BOOST_AUTO_TEST_CASE</text>
</a>
</g>
</g>
<!-- Node25&#45;&gt;Node33 -->
<g id="edge36_Node000025_Node000033" class="edge">
<title>Node25&#45;&gt;Node33</title>
<g id="a_edge36_Node000025_Node000033"><a xlink:title=" ">
<path fill="none" stroke="#63b8ff" d="M615.49,-297.91C586.51,-298.04 552.5,-298.18 522.88,-298.31"/>
<polygon fill="#63b8ff" stroke="#63b8ff" points="615.25,-301.41 625.23,-297.87 615.22,-294.41 615.25,-301.41"/>
</a>
</g>
</g>
<!-- Node34 -->
<g id="Node000034" class="node">
<title>Node34</title>
<g id="a_Node000034"><a xlink:href="../../d9/d63/namespaceanonymous__namespace_02_c_multi_file_data_adder_test_8cc_03.html#a99cddf0bb721206a82c630d4bce4fc8f" target="_top" xlink:title=" ">
<polygon fill="white" stroke="#666666" points="517.12,-270.5 381.12,-270.5 381.12,-228.75 517.12,-228.75 517.12,-270.5"/>
<text text-anchor="start" x="389.12" y="-257" font-family="Helvetica,sans-Serif" font-size="10.00">anonymous_namespace</text>
<text text-anchor="start" x="389.12" y="-245.75" font-family="Helvetica,sans-Serif" font-size="10.00">{CMultiFileDataAdderTest</text>
<text text-anchor="middle" x="449.12" y="-234.5" font-family="Helvetica,sans-Serif" font-size="10.00">::cc}::detectorPersistHelper</text>
</a>
</g>
</g>
<!-- Node25&#45;&gt;Node34 -->
<g id="edge37_Node000025_Node000034" class="edge">
<title>Node25&#45;&gt;Node34</title>
<g id="a_edge37_Node000025_Node000034"><a xlink:title=" ">
<path fill="none" stroke="#63b8ff" d="M615.66,-283.84C584.8,-277.46 548.22,-269.9 517.3,-263.51"/>
<polygon fill="#63b8ff" stroke="#63b8ff" points="614.76,-287.22 625.26,-285.82 616.18,-280.37 614.76,-287.22"/>
</a>
</g>
</g>
<!-- Node27 -->
<g id="Node000027" class="node">
<title>Node27</title>
<g id="a_Node000027"><a xlink:href="../../d1/d67/_c_restore_previous_state_test_8cc.html#aa3f1087e72eead6d4f215ef785709e5f" target="_top" xlink:title=" ">
<polygon fill="white" stroke="#666666" points="316.62,-56.25 153.62,-56.25 153.62,-37 316.62,-37 316.62,-56.25"/>
<text text-anchor="middle" x="235.12" y="-42.75" font-family="Helvetica,sans-Serif" font-size="10.00">BOOST_FIXTURE_TEST_CASE</text>
</a>
</g>
</g>
<!-- Node26&#45;&gt;Node27 -->
<g id="edge30_Node000026_Node000027" class="edge">
<title>Node26&#45;&gt;Node27</title>
<g id="a_edge30_Node000026_Node000027"><a xlink:title=" ">
<path fill="none" stroke="#63b8ff" d="M369.85,-78.02C353.91,-73.33 337.22,-68.63 321.5,-64.62 310.49,-61.82 298.61,-59.11 287.3,-56.69"/>
<polygon fill="#63b8ff" stroke="#63b8ff" points="368.7,-81.33 379.28,-80.83 370.69,-74.62 368.7,-81.33"/>
</a>
</g>
</g>
<!-- Node28 -->
<g id="Node000028" class="node">
<title>Node28</title>
<g id="a_Node000028"><a xlink:href="../../d1/d67/_c_restore_previous_state_test_8cc.html#a0c3f619167958fb549a50ac416e74e66" target="_top" xlink:title=" ">
<polygon fill="white" stroke="#666666" points="316.62,-19.25 153.62,-19.25 153.62,0 316.62,0 316.62,-19.25"/>
<text text-anchor="middle" x="235.12" y="-5.75" font-family="Helvetica,sans-Serif" font-size="10.00">BOOST_FIXTURE_TEST_CASE</text>
</a>
</g>
</g>
<!-- Node26&#45;&gt;Node28 -->
<g id="edge31_Node000026_Node000028" class="edge">
<title>Node26&#45;&gt;Node28</title>
<g id="a_edge31_Node000026_Node000028"><a xlink:title=" ">
<path fill="none" stroke="#63b8ff" d="M409.32,-75.11C385.1,-59.11 352.68,-39.76 321.5,-27.62 313.45,-24.49 304.76,-21.86 296.1,-19.67"/>
<polygon fill="#63b8ff" stroke="#63b8ff" points="407.34,-77.99 417.59,-80.67 411.24,-72.18 407.34,-77.99"/>
</a>
</g>
</g>
<!-- Node29 -->
<g id="Node000029" class="node">
<title>Node29</title>
<g id="a_Node000029"><a xlink:href="../../d1/d67/_c_restore_previous_state_test_8cc.html#a298265d7c889d1570b3b8eaef7067891" target="_top" xlink:title=" ">
<polygon fill="white" stroke="#666666" points="316.62,-167.25 153.62,-167.25 153.62,-148 316.62,-148 316.62,-167.25"/>
<text text-anchor="middle" x="235.12" y="-153.75" font-family="Helvetica,sans-Serif" font-size="10.00">BOOST_FIXTURE_TEST_CASE</text>
</a>
</g>
</g>
<!-- Node26&#45;&gt;Node29 -->
<g id="edge32_Node000026_Node000029" class="edge">
<title>Node26&#45;&gt;Node29</title>
<g id="a_edge32_Node000026_Node000029"><a xlink:title=" ">
<path fill="none" stroke="#63b8ff" d="M367.72,-127.12C352.43,-131.5 336.51,-135.85 321.5,-139.62 310.48,-142.39 298.59,-145.08 287.29,-147.5"/>
<polygon fill="#63b8ff" stroke="#63b8ff" points="368.63,-130.5 377.27,-124.36 366.69,-123.78 368.63,-130.5"/>
</a>
</g>
</g>
<!-- Node30 -->
<g id="Node000030" class="node">
<title>Node30</title>
<g id="a_Node000030"><a xlink:href="../../d1/d67/_c_restore_previous_state_test_8cc.html#a7bf2e1d16d4e8adad0e27a867229344f" target="_top" xlink:title=" ">
<polygon fill="white" stroke="#666666" points="316.62,-130.25 153.62,-130.25 153.62,-111 316.62,-111 316.62,-130.25"/>
<text text-anchor="middle" x="235.12" y="-116.75" font-family="Helvetica,sans-Serif" font-size="10.00">BOOST_FIXTURE_TEST_CASE</text>
</a>
</g>
</g>
<!-- Node26&#45;&gt;Node30 -->
<g id="edge33_Node000026_Node000030" class="edge">
<title>Node26&#45;&gt;Node30</title>
<g id="a_edge33_Node000026_Node000030"><a xlink:title=" ">
<path fill="none" stroke="#63b8ff" d="M348.17,-111.11C337.72,-112 327.2,-112.89 317.01,-113.76"/>
<polygon fill="#63b8ff" stroke="#63b8ff" points="348.27,-114.62 357.94,-110.28 347.68,-107.64 348.27,-114.62"/>
</a>
</g>
</g>
<!-- Node31 -->
<g id="Node000031" class="node">
<title>Node31</title>
<g id="a_Node000031"><a xlink:href="../../d1/d67/_c_restore_previous_state_test_8cc.html#acdd9adbe50133dc4187e536e7b60e5b6" target="_top" xlink:title=" ">
<polygon fill="white" stroke="#666666" points="316.62,-93.25 153.62,-93.25 153.62,-74 316.62,-74 316.62,-93.25"/>
<text text-anchor="middle" x="235.12" y="-79.75" font-family="Helvetica,sans-Serif" font-size="10.00">BOOST_FIXTURE_TEST_CASE</text>
</a>
</g>
</g>
<!-- Node26&#45;&gt;Node31 -->
<g id="edge34_Node000026_Node000031" class="edge">
<title>Node26&#45;&gt;Node31</title>
<g id="a_edge34_Node000026_Node000031"><a xlink:title=" ">
<path fill="none" stroke="#63b8ff" d="M348.17,-93.67C337.72,-92.73 327.2,-91.79 317.01,-90.87"/>
<polygon fill="#63b8ff" stroke="#63b8ff" points="347.67,-97.14 357.94,-94.54 348.29,-90.16 347.67,-97.14"/>
</a>
</g>
</g>
<!-- Node35 -->
<g id="Node000035" class="node">
<title>Node35</title>
<g id="a_Node000035"><a xlink:href="../../d0/da1/_c_multi_file_data_adder_test_8cc.html#a75ad4b8089341662e0b26d376a85ed69" target="_top" xlink:title=" ">
<polygon fill="white" stroke="#666666" points="308.75,-241.25 161.5,-241.25 161.5,-222 308.75,-222 308.75,-241.25"/>
<text text-anchor="middle" x="235.12" y="-227.75" font-family="Helvetica,sans-Serif" font-size="10.00">BOOST_AUTO_TEST_CASE</text>
</a>
</g>
</g>
<!-- Node34&#45;&gt;Node35 -->
<g id="edge38_Node000034_Node000035" class="edge">
<title>Node34&#45;&gt;Node35</title>
<g id="a_edge38_Node000034_Node000035"><a xlink:title=" ">
<path fill="none" stroke="#63b8ff" d="M369.34,-242.94C349.64,-241.26 328.6,-239.48 309.19,-237.83"/>
<polygon fill="#63b8ff" stroke="#63b8ff" points="368.99,-246.42 379.25,-243.78 369.58,-239.44 368.99,-246.42"/>
</a>
</g>
</g>
<!-- Node36 -->
<g id="Node000036" class="node">
<title>Node36</title>
<g id="a_Node000036"><a xlink:href="../../d0/da1/_c_multi_file_data_adder_test_8cc.html#aa0c3730f0f6051877915082e609e63fb" target="_top" xlink:title=" ">
<polygon fill="white" stroke="#666666" points="308.75,-204.25 161.5,-204.25 161.5,-185 308.75,-185 308.75,-204.25"/>
<text text-anchor="middle" x="235.12" y="-190.75" font-family="Helvetica,sans-Serif" font-size="10.00">BOOST_AUTO_TEST_CASE</text>
</a>
</g>
</g>
<!-- Node34&#45;&gt;Node36 -->
<g id="edge39_Node000034_Node000036" class="edge">
<title>Node34&#45;&gt;Node36</title>
<g id="a_edge39_Node000034_Node000036"><a xlink:title=" ">
<path fill="none" stroke="#63b8ff" d="M369.81,-225.73C353.89,-221.15 337.2,-216.57 321.5,-212.62 310.48,-209.86 298.59,-207.17 287.29,-204.75"/>
<polygon fill="#63b8ff" stroke="#63b8ff" points="368.67,-229.04 379.25,-228.46 370.62,-222.32 368.67,-229.04"/>
</a>
</g>
</g>
<!-- Node37 -->
<g id="Node000037" class="node">
<title>Node37</title>
<g id="a_Node000037"><a xlink:href="../../d0/da1/_c_multi_file_data_adder_test_8cc.html#a8c06540cf8e7d0c4fe7ccae86cca0750" target="_top" xlink:title=" ">
<polygon fill="white" stroke="#666666" points="308.75,-352.25 161.5,-352.25 161.5,-333 308.75,-333 308.75,-352.25"/>
<text text-anchor="middle" x="235.12" y="-338.75" font-family="Helvetica,sans-Serif" font-size="10.00">BOOST_AUTO_TEST_CASE</text>
</a>
</g>
</g>
<!-- Node34&#45;&gt;Node37 -->
<g id="edge40_Node000034_Node000037" class="edge">
<title>Node34&#45;&gt;Node37</title>
<g id="a_edge40_Node000034_Node000037"><a xlink:title=" ">
<path fill="none" stroke="#63b8ff" d="M370.51,-271.83C365.97,-274.19 361.59,-276.78 357.5,-279.62 336.48,-294.25 343.31,-311.2 321.5,-324.62 316.34,-327.8 310.71,-330.43 304.88,-332.59"/>
<polygon fill="#63b8ff" stroke="#63b8ff" points="371.76,-275.12 379.31,-267.68 368.77,-268.78 371.76,-275.12"/>
</a>
</g>
</g>
<!-- Node38 -->
<g id="Node000038" class="node">
<title>Node38</title>
<g id="a_Node000038"><a xlink:href="../../d0/da1/_c_multi_file_data_adder_test_8cc.html#ae97da552fb754d47d61470cb35705db3" target="_top" xlink:title=" ">
<polygon fill="white" stroke="#666666" points="308.75,-315.25 161.5,-315.25 161.5,-296 308.75,-296 308.75,-315.25"/>
<text text-anchor="middle" x="235.12" y="-301.75" font-family="Helvetica,sans-Serif" font-size="10.00">BOOST_AUTO_TEST_CASE</text>
</a>
</g>
</g>
<!-- Node34&#45;&gt;Node38 -->
<g id="edge41_Node000034_Node000038" class="edge">
<title>Node34&#45;&gt;Node38</title>
<g id="a_edge41_Node000034_Node000038"><a xlink:title=" ">
<path fill="none" stroke="#63b8ff" d="M369.85,-274.23C353.91,-278.92 337.22,-283.62 321.5,-287.62 310.49,-290.43 298.61,-293.14 287.3,-295.56"/>
<polygon fill="#63b8ff" stroke="#63b8ff" points="370.69,-277.63 379.28,-271.42 368.7,-270.92 370.69,-277.63"/>
</a>
</g>
</g>
<!-- Node39 -->
<g id="Node000039" class="node">
<title>Node39</title>
<g id="a_Node000039"><a xlink:href="../../d0/da1/_c_multi_file_data_adder_test_8cc.html#a372df859c8911f8b80d996e805390db1" target="_top" xlink:title=" ">
<polygon fill="white" stroke="#666666" points="308.75,-278.25 161.5,-278.25 161.5,-259 308.75,-259 308.75,-278.25"/>
<text text-anchor="middle" x="235.12" y="-264.75" font-family="Helvetica,sans-Serif" font-size="10.00">BOOST_AUTO_TEST_CASE</text>
</a>
</g>
</g>
<!-- Node34&#45;&gt;Node39 -->
<g id="edge42_Node000034_Node000039" class="edge">
<title>Node34&#45;&gt;Node39</title>
<g id="a_edge42_Node000034_Node000039"><a xlink:title=" ">
<path fill="none" stroke="#63b8ff" d="M369.34,-256.69C349.64,-258.45 328.6,-260.34 309.19,-262.08"/>
<polygon fill="#63b8ff" stroke="#63b8ff" points="369.6,-260.18 379.25,-255.8 368.98,-253.2 369.6,-260.18"/>
</a>
</g>
</g>
<!-- Node40&#45;&gt;Node22 -->
<g id="edge45_Node000040_Node000022" class="edge">
<title>Node40&#45;&gt;Node22</title>
<g id="a_edge45_Node000040_Node000022"><a xlink:title=" ">
<path fill="none" stroke="#63b8ff" d="M615.5,-371.97C528.98,-381.47 379.52,-397.88 296.37,-407.01"/>
<polygon fill="#63b8ff" stroke="#63b8ff" points="615.7,-375.47 625.25,-370.9 614.93,-368.51 615.7,-375.47"/>
</a>
</g>
</g>
</g>
</svg>
