<?xml version="1.0" encoding="UTF-8" standalone="no"?>
<!DOCTYPE svg PUBLIC "-//W3C//DTD SVG 1.1//EN"
 "http://www.w3.org/Graphics/SVG/1.1/DTD/svg11.dtd">
<!-- Generated by graphviz version 10.0.1 (20240210.2158)
 -->
<!-- Title: ml::maths::common::CPrior::printMarginalLikelihoodFunction Pages: 1 -->
<svg width="540pt" height="137pt"
 viewBox="0.00 0.00 539.75 136.50" xmlns="http://www.w3.org/2000/svg" xmlns:xlink="http://www.w3.org/1999/xlink">
<g id="graph0" class="graph" transform="scale(1 1) rotate(0) translate(4 132.5)">
<title>ml::maths::common::CPrior::printMarginalLikelihoodFunction</title>
<!-- Node1 -->
<g id="Node000001" class="node">
<title>Node1</title>
<g id="a_Node000001"><a xlink:title=" ">
<polygon fill="#999999" stroke="#666666" points="148.75,-85.12 0,-85.12 0,-43.38 148.75,-43.38 148.75,-85.12"/>
<text text-anchor="start" x="8" y="-71.62" font-family="Helvetica,sans-Serif" font-size="10.00">ml::maths::common::</text>
<text text-anchor="start" x="8" y="-60.38" font-family="Helvetica,sans-Serif" font-size="10.00">CPrior::printMarginalLikelihood</text>
<text text-anchor="middle" x="74.38" y="-49.12" font-family="Helvetica,sans-Serif" font-size="10.00">Function</text>
</a>
</g>
</g>
<!-- Node2 -->
<g id="Node000002" class="node">
<title>Node2</title>
<g id="a_Node000002"><a xlink:href="../../d6/d99/classml_1_1maths_1_1common_1_1_c_prior.html#a4caba9df4d9a692798410795bf1f8e56" target="_top" xlink:title=" ">
<polygon fill="white" stroke="#666666" points="332,-79.5 184.75,-79.5 184.75,-49 332,-49 332,-79.5"/>
<text text-anchor="start" x="192.75" y="-66" font-family="Helvetica,sans-Serif" font-size="10.00">ml::maths::common::</text>
<text text-anchor="middle" x="258.38" y="-54.75" font-family="Helvetica,sans-Serif" font-size="10.00">CPrior::marginalLikelihoodPlot</text>
</a>
</g>
</g>
<!-- Node1&#45;&gt;Node2 -->
<g id="edge1_Node000001_Node000002" class="edge">
<title>Node1&#45;&gt;Node2</title>
<g id="a_edge1_Node000001_Node000002"><a xlink:title=" ">
<path fill="none" stroke="#63b8ff" d="M149.14,-64.25C157.04,-64.25 165.12,-64.25 173.14,-64.25"/>
<polygon fill="#63b8ff" stroke="#63b8ff" points="172.88,-67.75 182.88,-64.25 172.88,-60.75 172.88,-67.75"/>
</a>
</g>
</g>
<!-- Node3 -->
<g id="Node000003" class="node">
<title>Node3</title>
<g id="a_Node000003"><a xlink:href="../../d6/d99/classml_1_1maths_1_1common_1_1_c_prior.html#af0e6ec0387c452be4881098dcba3cb2e" target="_top" xlink:title="Check if this is a non&#45;informative prior.">
<polygon fill="white" stroke="#666666" points="511.88,-128.5 387.88,-128.5 387.88,-98 511.88,-98 511.88,-128.5"/>
<text text-anchor="start" x="395.88" y="-115" font-family="Helvetica,sans-Serif" font-size="10.00">ml::maths::common::</text>
<text text-anchor="middle" x="449.88" y="-103.75" font-family="Helvetica,sans-Serif" font-size="10.00">CPrior::isNonInformative</text>
</a>
</g>
</g>
<!-- Node2&#45;&gt;Node3 -->
<g id="edge2_Node000002_Node000003" class="edge">
<title>Node2&#45;&gt;Node3</title>
<g id="a_edge2_Node000002_Node000003"><a xlink:title=" ">
<path fill="none" stroke="#63b8ff" d="M320.12,-79.96C338.31,-84.66 358.42,-89.86 377.25,-94.73"/>
<polygon fill="#63b8ff" stroke="#63b8ff" points="376.13,-98.05 386.69,-97.17 377.88,-91.28 376.13,-98.05"/>
</a>
</g>
</g>
<!-- Node4 -->
<g id="Node000004" class="node">
<title>Node4</title>
<g id="a_Node000004"><a xlink:href="../../d6/d99/classml_1_1maths_1_1common_1_1_c_prior.html#a98b6f04128cfad47070cbc826cba4c91" target="_top" xlink:title=" ">
<polygon fill="white" stroke="#666666" points="531.75,-79.5 368,-79.5 368,-49 531.75,-49 531.75,-79.5"/>
<text text-anchor="start" x="376" y="-66" font-family="Helvetica,sans-Serif" font-size="10.00">ml::maths::common::</text>
<text text-anchor="middle" x="449.88" y="-54.75" font-family="Helvetica,sans-Serif" font-size="10.00">CPrior::jointLogMarginalLikelihood</text>
</a>
</g>
</g>
<!-- Node2&#45;&gt;Node4 -->
<g id="edge3_Node000002_Node000004" class="edge">
<title>Node2&#45;&gt;Node4</title>
<g id="a_edge3_Node000002_Node000004"><a xlink:title=" ">
<path fill="none" stroke="#63b8ff" d="M332.37,-64.25C340.24,-64.25 348.31,-64.25 356.37,-64.25"/>
<polygon fill="#63b8ff" stroke="#63b8ff" points="356.21,-67.75 366.21,-64.25 356.21,-60.75 356.21,-67.75"/>
</a>
</g>
</g>
<!-- Node5 -->
<g id="Node000005" class="node">
<title>Node5</title>
<g id="a_Node000005"><a xlink:href="../../d6/d99/classml_1_1maths_1_1common_1_1_c_prior.html#a3c4f72902c27c46005cd085d824c1364" target="_top" xlink:title=" ">
<polygon fill="white" stroke="#666666" points="530.62,-30.5 369.12,-30.5 369.12,0 530.62,0 530.62,-30.5"/>
<text text-anchor="start" x="377.12" y="-17" font-family="Helvetica,sans-Serif" font-size="10.00">ml::maths::common::</text>
<text text-anchor="middle" x="449.88" y="-5.75" font-family="Helvetica,sans-Serif" font-size="10.00">CPrior::sampleMarginalLikelihood</text>
</a>
</g>
</g>
<!-- Node2&#45;&gt;Node5 -->
<g id="edge4_Node000002_Node000005" class="edge">
<title>Node2&#45;&gt;Node5</title>
<g id="a_edge4_Node000002_Node000005"><a xlink:title=" ">
<path fill="none" stroke="#63b8ff" d="M320.12,-48.54C338.31,-43.84 358.42,-38.64 377.25,-33.77"/>
<polygon fill="#63b8ff" stroke="#63b8ff" points="377.88,-37.22 386.69,-31.33 376.13,-30.45 377.88,-37.22"/>
</a>
</g>
</g>
</g>
</svg>
