<?xml version="1.0" encoding="UTF-8" standalone="no"?>
<!DOCTYPE svg PUBLIC "-//W3C//DTD SVG 1.1//EN"
 "http://www.w3.org/Graphics/SVG/1.1/DTD/svg11.dtd">
<!-- Generated by graphviz version 10.0.1 (20240210.2158)
 -->
<!-- Title: ml::maths::common::CRandomProjectionClustererBatch::logDeterminant Pages: 1 -->
<!--zoomable 122 -->

<svg id="main" version="1.1" xmlns="http://www.w3.org/2000/svg" xmlns:xlink="http://www.w3.org/1999/xlink" xml:space="preserve" onload="init(evt)">
<style type="text/css"><![CDATA[
.node, .edge {opacity: 0.7;}
.node.selected, .edge.selected {opacity: 1;}
.edge:hover path { stroke: red; }
.edge:hover polygon { stroke: red; fill: red; }
]]></style>

<defs>
  <circle id="rim" cx="0" cy="0" r="7"/>
  <circle id="rim2" cx="0" cy="0" r="3.5"/>
  <g id="zoomPlus">
    <use xlink:href="#rim" fill="#404040"><set attributeName="fill" to="#808080" begin="zoomplus.mouseover" end="zoomplus.mouseout"/></use>
    <path d="M-4,0h8M0,-4v8" fill="none" stroke="white" stroke-width="1.5" pointer-events="none"/>
  </g>
  <g id="zoomMin">
    <use xlink:href="#rim" fill="#404040"><set attributeName="fill" to="#808080" begin="zoomminus.mouseover" end="zoomminus.mouseout"/></use>
    <path d="M-4,0h8" fill="none" stroke="white" stroke-width="1.5" pointer-events="none"/>
  </g>
  <g id="arrowUp" transform="translate(30 24)">
    <use xlink:href="#rim"/>
    <path pointer-events="none" fill="none" stroke="white" stroke-width="1.5" d="M0,-3.0v7 M-2.5,-0.5L0,-3.0L2.5,-0.5"/>
  </g>
  <g id="arrowRight" transform="rotate(90) translate(36 -43)">
    <use xlink:href="#rim"/>
    <path pointer-events="none" fill="none" stroke="white" stroke-width="1.5" d="M0,-3.0v7 M-2.5,-0.5L0,-3.0L2.5,-0.5"/>
  </g>
  <g id="arrowDown" transform="rotate(180) translate(-30 -48)">
    <use xlink:href="#rim"/>
    <path pointer-events="none" fill="none" stroke="white" stroke-width="1.5" d="M0,-3.0v7 M-2.5,-0.5L0,-3.0L2.5,-0.5"/>
  </g>
  <g id="arrowLeft" transform="rotate(270) translate(-36 17)">
    <use xlink:href="#rim"/>
    <path pointer-events="none" fill="none" stroke="white" stroke-width="1.5" d="M0,-3.0v7 M-2.5,-0.5L0,-3.0L2.5,-0.5"/>
  </g>
  <g id="resetDef">
    <use xlink:href="#rim2" fill="#404040"><set attributeName="fill" to="#808080" begin="reset.mouseover" end="reset.mouseout"/></use>
  </g>
</defs>
<script type="application/ecmascript">
var viewWidth = 738;
var viewHeight = 122;
var sectionId = 'dynsection-8';
</script>
<script type="application/ecmascript" xlink:href="../../svg.min.js"/>
<svg id="graph" class="graph">
<g id="viewport">
<title>ml::maths::common::CRandomProjectionClustererBatch::logDeterminant</title>
<!-- Node1 -->
<g id="Node000001" class="node">
<title>Node1</title>
<g id="a_Node000001"><a xlink:title="Get the log determinant of the rank full portion of m.">
<polygon fill="#999999" stroke="#666666" points="730,-80.5 586.5,-80.5 586.5,-38.75 730,-38.75 730,-80.5"/>
<text text-anchor="start" x="594.5" y="-67" font-family="Helvetica,sans-Serif" font-size="10.00">ml::maths::common::</text>
<text text-anchor="start" x="594.5" y="-55.75" font-family="Helvetica,sans-Serif" font-size="10.00">CRandomProjectionClusterer</text>
<text text-anchor="middle" x="658.25" y="-44.5" font-family="Helvetica,sans-Serif" font-size="10.00">Batch::logDeterminant</text>
</a>
</g>
</g>
<!-- Node2 -->
<g id="Node000002" class="node">
<title>Node2</title>
<g id="a_Node000002"><a xlink:href="../../df/dc5/classml_1_1maths_1_1common_1_1_c_random_projection_clusterer_batch.html#a9bc354c5c8c226b7fbae55540d40eda2" target="_top" xlink:title=" ">
<polygon fill="white" stroke="#666666" points="550.5,-80.5 407,-80.5 407,-38.75 550.5,-38.75 550.5,-80.5"/>
<text text-anchor="start" x="415" y="-67" font-family="Helvetica,sans-Serif" font-size="10.00">ml::maths::common::</text>
<text text-anchor="start" x="415" y="-55.75" font-family="Helvetica,sans-Serif" font-size="10.00">CRandomProjectionClusterer</text>
<text text-anchor="middle" x="478.75" y="-44.5" font-family="Helvetica,sans-Serif" font-size="10.00">Batch::similarities</text>
</a>
</g>
</g>
<!-- Node1&#45;&gt;Node2 -->
<g id="edge1_Node000001_Node000002" class="edge">
<title>Node1&#45;&gt;Node2</title>
<g id="a_edge1_Node000001_Node000002"><a xlink:title=" ">
<path fill="none" stroke="#63b8ff" d="M574.58,-59.62C566.68,-59.62 558.72,-59.62 550.94,-59.62"/>
<polygon fill="#63b8ff" stroke="#63b8ff" points="574.56,-63.13 584.56,-59.63 574.56,-56.13 574.56,-63.13"/>
</a>
</g>
</g>
<!-- Node3 -->
<g id="Node000003" class="node">
<title>Node3</title>
<g id="a_Node000003"><a xlink:href="../../df/dc5/classml_1_1maths_1_1common_1_1_c_random_projection_clusterer_batch.html#ac5c49de3fff5a02af0ebf7a795b49f68" target="_top" xlink:title=" ">
<polygon fill="white" stroke="#666666" points="348.88,-113.5 205.38,-113.5 205.38,-71.75 348.88,-71.75 348.88,-113.5"/>
<text text-anchor="start" x="213.38" y="-100" font-family="Helvetica,sans-Serif" font-size="10.00">ml::maths::common::</text>
<text text-anchor="start" x="213.38" y="-88.75" font-family="Helvetica,sans-Serif" font-size="10.00">CRandomProjectionClusterer</text>
<text text-anchor="middle" x="277.12" y="-77.5" font-family="Helvetica,sans-Serif" font-size="10.00">Batch::run</text>
</a>
</g>
</g>
<!-- Node2&#45;&gt;Node3 -->
<g id="edge2_Node000002_Node000003" class="edge">
<title>Node2&#45;&gt;Node3</title>
<g id="a_edge2_Node000002_Node000003"><a xlink:title=" ">
<path fill="none" stroke="#63b8ff" d="M395.49,-73.22C380.17,-75.76 364.28,-78.38 349.32,-80.86"/>
<polygon fill="#63b8ff" stroke="#63b8ff" points="395.74,-76.73 405.03,-71.65 394.6,-69.82 395.74,-76.73"/>
</a>
</g>
</g>
<!-- Node4 -->
<g id="Node000004" class="node">
<title>Node4</title>
<g id="a_Node000004"><a xlink:href="../../d9/d66/classanonymous__namespace_02_c_random_projection_clusterer_test_8cc_03_1_1_c_random_projection_clusterer_for_test.html#a8294b6b423f3011ee5cd12c2866f68e5" target="_top" xlink:title=" ">
<polygon fill="white" stroke="#666666" points="371,-54.12 183.25,-54.12 183.25,-1.12 371,-1.12 371,-54.12"/>
<text text-anchor="start" x="191.25" y="-40.62" font-family="Helvetica,sans-Serif" font-size="10.00">anonymous_namespace</text>
<text text-anchor="start" x="191.25" y="-29.38" font-family="Helvetica,sans-Serif" font-size="10.00">{CRandomProjectionClusterer</text>
<text text-anchor="start" x="191.25" y="-18.12" font-family="Helvetica,sans-Serif" font-size="10.00">Test::cc}::CRandomProjectionClusterer</text>
<text text-anchor="middle" x="277.12" y="-6.88" font-family="Helvetica,sans-Serif" font-size="10.00">ForTest::similarities</text>
</a>
</g>
</g>
<!-- Node2&#45;&gt;Node4 -->
<g id="edge3_Node000002_Node000004" class="edge">
<title>Node2&#45;&gt;Node4</title>
<g id="a_edge3_Node000002_Node000004"><a xlink:title=" ">
<path fill="none" stroke="#63b8ff" d="M395.41,-46.43C387.45,-45.15 379.35,-43.85 371.3,-42.56"/>
<polygon fill="#63b8ff" stroke="#63b8ff" points="394.6,-49.84 405.03,-47.97 395.71,-42.93 394.6,-49.84"/>
</a>
</g>
</g>
<!-- Node5 -->
<g id="Node000005" class="node">
<title>Node5</title>
<g id="a_Node000005"><a xlink:href="../../de/d50/_c_random_projection_clusterer_test_8cc.html#a293e640ea3f34d338623f52a352d7755" target="_top" xlink:title=" ">
<polygon fill="white" stroke="#666666" points="147.25,-56.25 0,-56.25 0,-37 147.25,-37 147.25,-56.25"/>
<text text-anchor="middle" x="73.62" y="-42.75" font-family="Helvetica,sans-Serif" font-size="10.00">BOOST_AUTO_TEST_CASE</text>
</a>
</g>
</g>
<!-- Node4&#45;&gt;Node5 -->
<g id="edge4_Node000004_Node000005" class="edge">
<title>Node4&#45;&gt;Node5</title>
<g id="a_edge4_Node000004_Node000005"><a xlink:title=" ">
<path fill="none" stroke="#63b8ff" d="M171.63,-37.48C163.55,-38.24 155.51,-39 147.7,-39.73"/>
<polygon fill="#63b8ff" stroke="#63b8ff" points="171.91,-40.97 181.54,-36.54 171.25,-34 171.91,-40.97"/>
</a>
</g>
</g>
<!-- Node6 -->
<g id="Node000006" class="node">
<title>Node6</title>
<g id="a_Node000006"><a xlink:href="../../de/d50/_c_random_projection_clusterer_test_8cc.html#a651349096cbe6e43ed6d6beea6258e53" target="_top" xlink:title=" ">
<polygon fill="white" stroke="#666666" points="147.25,-19.25 0,-19.25 0,0 147.25,0 147.25,-19.25"/>
<text text-anchor="middle" x="73.62" y="-5.75" font-family="Helvetica,sans-Serif" font-size="10.00">BOOST_AUTO_TEST_CASE</text>
</a>
</g>
</g>
<!-- Node4&#45;&gt;Node6 -->
<g id="edge5_Node000004_Node000006" class="edge">
<title>Node4&#45;&gt;Node6</title>
<g id="a_edge5_Node000004_Node000006"><a xlink:title=" ">
<path fill="none" stroke="#63b8ff" d="M171.63,-18.29C163.55,-17.57 155.51,-16.85 147.7,-16.15"/>
<polygon fill="#63b8ff" stroke="#63b8ff" points="171.26,-21.77 181.54,-19.18 171.89,-14.8 171.26,-21.77"/>
</a>
</g>
</g>
</g>
</svg>

<g id="navigator" transform="translate(0 0)" fill="#404254">
  <rect fill="#f2f5e9" fill-opacity="0.5" stroke="#606060" stroke-width=".5" x="0" y="0" width="60" height="60"/>
  <use id="zoomplus" xlink:href="#zoomPlus" x="17" y="9" onmousedown="handleZoom(evt,'in')"/>
  <use id="zoomminus" xlink:href="#zoomMin" x="42" y="9" onmousedown="handleZoom(evt,'out')"/>
  <use id="reset" xlink:href="#resetDef" x="30" y="36" onmousedown="handleReset()"/>
   <use id="arrowup" xlink:href="#arrowUp" x="0" y="0" onmousedown="handlePan(0,-1)"/>
  <use id="arrowright" xlink:href="#arrowRight" x="0" y="0" onmousedown="handlePan(1,0)"/>
  <use id="arrowdown" xlink:href="#arrowDown" x="0" y="0" onmousedown="handlePan(0,1)"/>
  <use id="arrowleft" xlink:href="#arrowLeft" x="0" y="0" onmousedown="handlePan(-1,0)"/>
</g>
<svg viewBox="0 0 15 15" width="100%" height="30px" preserveAspectRatio="xMaxYMin meet">
 <g id="arrow_out" transform="scale(0.3 0.3)">
  <a xlink:href="classml_1_1maths_1_1common_1_1_c_random_projection_clusterer_batch_ad1c426853beb6ab27b16e48be53397bc_icgraph_org.svg" target="_base">
   <rect id="button" ry="5" rx="5" y="6" x="6" height="38" width="38"
        fill="#f2f5e9" fill-opacity="0.5" stroke="#606060" stroke-width="1.0"/>
   <path id="arrow"
     d="M 11.500037,31.436501 C 11.940474,20.09759 22.043105,11.32322 32.158766,21.979434 L 37.068811,17.246167 C 37.068811,17.246167 37.088388,32 37.088388,32 L 22.160133,31.978069 C 22.160133,31.978069 26.997745,27.140456 26.997745,27.140456 C 18.528582,18.264221 13.291696,25.230495 11.500037,31.436501 z"
     style="fill:#404040;"/>
  </a>
 </g>
</svg>

<style type='text/css'>
<![CDATA[
[data-mouse-over-selected='false'] { opacity: 0.7; }
[data-mouse-over-selected='true']  { opacity: 1.0; }
]]>
</style>
<script type="application/ecmascript"><![CDATA[
document.addEventListener('DOMContentLoaded', (event) => {
  highlightEdges();
  highlightAdjacentNodes();
});
]]></script>
</svg>
