<?xml version="1.0" encoding="UTF-8" standalone="no"?>
<!DOCTYPE svg PUBLIC "-//W3C//DTD SVG 1.1//EN"
 "http://www.w3.org/Graphics/SVG/1.1/DTD/svg11.dtd">
<!-- Generated by graphviz version 10.0.1 (20240210.2158)
 -->
<!-- Title: ml::maths::time_series::CCalendarFeature::fromDelimited Pages: 1 -->
<svg width="383pt" height="88pt"
 viewBox="0.00 0.00 382.75 87.50" xmlns="http://www.w3.org/2000/svg" xmlns:xlink="http://www.w3.org/1999/xlink">
<g id="graph0" class="graph" transform="scale(1 1) rotate(0) translate(4 83.5)">
<title>ml::maths::time_series::CCalendarFeature::fromDelimited</title>
<!-- Node1 -->
<g id="Node000001" class="node">
<title>Node1</title>
<g id="a_Node000001"><a xlink:title="Initialize from value.">
<polygon fill="#999999" stroke="#666666" points="374.75,-48.88 206.5,-48.88 206.5,-18.38 374.75,-18.38 374.75,-48.88"/>
<text text-anchor="start" x="214.5" y="-35.38" font-family="Helvetica,sans-Serif" font-size="10.00">ml::maths::time_series</text>
<text text-anchor="middle" x="290.62" y="-24.12" font-family="Helvetica,sans-Serif" font-size="10.00">::CCalendarFeature::fromDelimited</text>
</a>
</g>
</g>
<!-- Node2 -->
<g id="Node000002" class="node">
<title>Node2</title>
<g id="a_Node000002"><a xlink:href="../../de/d1f/classml_1_1maths_1_1time__series_1_1_c_calendar_component_adaptive_bucketing.html#aa482c81894c91c4ac9b9fa209f7f45c8" target="_top" xlink:title="Restore by traversing a state document.">
<polygon fill="white" stroke="#666666" points="170.5,-79.5 0,-79.5 0,-37.75 170.5,-37.75 170.5,-79.5"/>
<text text-anchor="start" x="8" y="-66" font-family="Helvetica,sans-Serif" font-size="10.00">ml::maths::time_series</text>
<text text-anchor="start" x="8" y="-54.75" font-family="Helvetica,sans-Serif" font-size="10.00">::CCalendarComponentAdaptive</text>
<text text-anchor="middle" x="85.25" y="-43.5" font-family="Helvetica,sans-Serif" font-size="10.00">Bucketing::acceptRestoreTraverser</text>
</a>
</g>
</g>
<!-- Node1&#45;&gt;Node2 -->
<g id="edge1_Node000001_Node000002" class="edge">
<title>Node1&#45;&gt;Node2</title>
<g id="a_edge1_Node000001_Node000002"><a xlink:title=" ">
<path fill="none" stroke="#63b8ff" d="M194.79,-45.28C186.79,-46.27 178.75,-47.25 170.84,-48.23"/>
<polygon fill="#63b8ff" stroke="#63b8ff" points="195.02,-48.78 204.52,-44.09 194.17,-41.83 195.02,-48.78"/>
</a>
</g>
</g>
<!-- Node3 -->
<g id="Node000003" class="node">
<title>Node3</title>
<g id="a_Node000003"><a xlink:href="../../da/d90/_c_calendar_feature_test_8cc.html#a1d68c9c9ad2692e9d6ddacc5a88211ac" target="_top" xlink:title=" ">
<polygon fill="white" stroke="#666666" points="158.88,-19.25 11.62,-19.25 11.62,0 158.88,0 158.88,-19.25"/>
<text text-anchor="middle" x="85.25" y="-5.75" font-family="Helvetica,sans-Serif" font-size="10.00">BOOST_AUTO_TEST_CASE</text>
</a>
</g>
</g>
<!-- Node1&#45;&gt;Node3 -->
<g id="edge2_Node000001_Node000003" class="edge">
<title>Node1&#45;&gt;Node3</title>
<g id="a_edge2_Node000001_Node000003"><a xlink:title=" ">
<path fill="none" stroke="#63b8ff" d="M194.64,-22.42C182.7,-21.01 170.64,-19.58 159.12,-18.22"/>
<polygon fill="#63b8ff" stroke="#63b8ff" points="194.18,-25.89 204.52,-23.58 195,-18.93 194.18,-25.89"/>
</a>
</g>
</g>
</g>
</svg>
