<?xml version="1.0" encoding="UTF-8" standalone="no"?>
<!DOCTYPE svg PUBLIC "-//W3C//DTD SVG 1.1//EN"
 "http://www.w3.org/Graphics/SVG/1.1/DTD/svg11.dtd">
<!-- Generated by graphviz version 10.0.1 (20240210.2158)
 -->
<!-- Title: ml::maths::time_series::CCalendarFeature::operator&lt; Pages: 1 -->
<svg width="673pt" height="68pt"
 viewBox="0.00 0.00 672.75 67.75" xmlns="http://www.w3.org/2000/svg" xmlns:xlink="http://www.w3.org/1999/xlink">
<g id="graph0" class="graph" transform="scale(1 1) rotate(0) translate(4 63.75)">
<title>ml::maths::time_series::CCalendarFeature::operator&lt;</title>
<!-- Node1 -->
<g id="Node000001" class="node">
<title>Node1</title>
<g id="a_Node000001"><a xlink:title="Total ordering of two calendar features.">
<polygon fill="#999999" stroke="#666666" points="148.75,-36.12 0,-36.12 0,-5.62 148.75,-5.62 148.75,-36.12"/>
<text text-anchor="start" x="8" y="-22.62" font-family="Helvetica,sans-Serif" font-size="10.00">ml::maths::time_series</text>
<text text-anchor="middle" x="74.38" y="-11.38" font-family="Helvetica,sans-Serif" font-size="10.00">::CCalendarFeature::operator&lt;</text>
</a>
</g>
</g>
<!-- Node2 -->
<g id="Node000002" class="node">
<title>Node2</title>
<g id="a_Node000002"><a xlink:href="../../dc/d5c/classml_1_1maths_1_1common_1_1_c_orderings.html#a5a201aef02e6c31059f2ce7699456e60" target="_top" xlink:title="Calls lexicographicalCompareWith supplying std::less&lt;&gt; for comparison.">
<polygon fill="white" stroke="#666666" points="320.75,-41.75 184.75,-41.75 184.75,0 320.75,0 320.75,-41.75"/>
<text text-anchor="start" x="192.75" y="-28.25" font-family="Helvetica,sans-Serif" font-size="10.00">ml::maths::common::</text>
<text text-anchor="start" x="192.75" y="-17" font-family="Helvetica,sans-Serif" font-size="10.00">COrderings::lexicographical</text>
<text text-anchor="middle" x="252.75" y="-5.75" font-family="Helvetica,sans-Serif" font-size="10.00">Compare</text>
</a>
</g>
</g>
<!-- Node1&#45;&gt;Node2 -->
<g id="edge1_Node000001_Node000002" class="edge">
<title>Node1&#45;&gt;Node2</title>
<g id="a_edge1_Node000001_Node000002"><a xlink:title=" ">
<path fill="none" stroke="#63b8ff" d="M149.15,-20.88C157.02,-20.88 165.04,-20.88 172.96,-20.88"/>
<polygon fill="#63b8ff" stroke="#63b8ff" points="172.94,-24.38 182.94,-20.88 172.94,-17.38 172.94,-24.38"/>
</a>
</g>
</g>
<!-- Node3 -->
<g id="Node000003" class="node">
<title>Node3</title>
<g id="a_Node000003"><a xlink:href="../../dc/d5c/classml_1_1maths_1_1common_1_1_c_orderings.html#ae59743d66349e20f589c98333e2118ff" target="_top" xlink:title=" ">
<polygon fill="white" stroke="#666666" points="492.75,-41.75 356.75,-41.75 356.75,0 492.75,0 492.75,-41.75"/>
<text text-anchor="start" x="364.75" y="-28.25" font-family="Helvetica,sans-Serif" font-size="10.00">ml::maths::common::</text>
<text text-anchor="start" x="364.75" y="-17" font-family="Helvetica,sans-Serif" font-size="10.00">COrderings::lexicographical</text>
<text text-anchor="middle" x="424.75" y="-5.75" font-family="Helvetica,sans-Serif" font-size="10.00">CompareWith</text>
</a>
</g>
</g>
<!-- Node2&#45;&gt;Node3 -->
<g id="edge2_Node000002_Node000003" class="edge">
<title>Node2&#45;&gt;Node3</title>
<g id="a_edge2_Node000002_Node000003"><a xlink:title=" ">
<path fill="none" stroke="#63b8ff" d="M320.94,-20.88C328.89,-20.88 337.05,-20.88 345.14,-20.88"/>
<polygon fill="#63b8ff" stroke="#63b8ff" points="344.98,-24.38 354.98,-20.88 344.98,-17.38 344.98,-24.38"/>
</a>
</g>
</g>
<!-- Node4 -->
<g id="Node000004" class="node">
<title>Node4</title>
<g id="a_Node000004"><a xlink:href="../../dc/d5c/classml_1_1maths_1_1common_1_1_c_orderings.html#ac28e26aa59df21d5c8b12b9ca580b957" target="_top" xlink:title=" ">
<polygon fill="white" stroke="#666666" points="664.75,-41.75 528.75,-41.75 528.75,0 664.75,0 664.75,-41.75"/>
<text text-anchor="start" x="536.75" y="-28.25" font-family="Helvetica,sans-Serif" font-size="10.00">ml::maths::common::</text>
<text text-anchor="start" x="536.75" y="-17" font-family="Helvetica,sans-Serif" font-size="10.00">COrderings::lexicographical</text>
<text text-anchor="middle" x="596.75" y="-5.75" font-family="Helvetica,sans-Serif" font-size="10.00">CompareAt</text>
</a>
</g>
</g>
<!-- Node3&#45;&gt;Node4 -->
<g id="edge3_Node000003_Node000004" class="edge">
<title>Node3&#45;&gt;Node4</title>
<g id="a_edge3_Node000003_Node000004"><a xlink:title=" ">
<path fill="none" stroke="#63b8ff" d="M492.94,-20.88C500.89,-20.88 509.05,-20.88 517.14,-20.88"/>
<polygon fill="#63b8ff" stroke="#63b8ff" points="516.98,-24.38 526.98,-20.88 516.98,-17.38 516.98,-24.38"/>
</a>
</g>
</g>
<!-- Node4&#45;&gt;Node4 -->
<g id="edge4_Node000004_Node000004" class="edge">
<title>Node4&#45;&gt;Node4</title>
<g id="a_edge4_Node000004_Node000004"><a xlink:title=" ">
<path fill="none" stroke="#63b8ff" d="M565,-42.07C561.98,-51.55 572.56,-59.75 596.75,-59.75 610.73,-59.75 620.17,-57.01 625.06,-52.86"/>
<polygon fill="#63b8ff" stroke="#63b8ff" points="628.34,-54.1 628.04,-43.51 621.67,-51.98 628.34,-54.1"/>
</a>
</g>
</g>
</g>
</svg>
