<?xml version="1.0" encoding="UTF-8" standalone="no"?>
<!DOCTYPE svg PUBLIC "-//W3C//DTD SVG 1.1//EN"
 "http://www.w3.org/Graphics/SVG/1.1/DTD/svg11.dtd">
<!-- Generated by graphviz version 10.0.1 (20240210.2158)
 -->
<!-- Title: ml::maths::time_series::CCalendarComponent Pages: 1 -->
<svg width="1016pt" height="170pt"
 viewBox="0.00 0.00 1015.50 169.75" xmlns="http://www.w3.org/2000/svg" xmlns:xlink="http://www.w3.org/1999/xlink">
<g id="graph0" class="graph" transform="scale(1 1) rotate(0) translate(4 165.75)">
<title>ml::maths::time_series::CCalendarComponent</title>
<!-- Node1 -->
<g id="Node000001" class="node">
<title>Node1</title>
<g id="a_Node000001"><a xlink:title="Estimates a calendar component of a time series.">
<polygon fill="#999999" stroke="#666666" points="1007.5,-123.12 888.75,-123.12 888.75,-92.62 1007.5,-92.62 1007.5,-123.12"/>
<text text-anchor="start" x="896.75" y="-109.62" font-family="Helvetica,sans-Serif" font-size="10.00">ml::maths::time_series</text>
<text text-anchor="middle" x="948.12" y="-98.38" font-family="Helvetica,sans-Serif" font-size="10.00">::CCalendarComponent</text>
</a>
</g>
</g>
<!-- Node2 -->
<g id="Node000002" class="node">
<title>Node2</title>
<g id="a_Node000002"><a xlink:href="../../d3/dc9/classml_1_1maths_1_1time__series_1_1_c_decomposition_component.html" target="_top" xlink:title="Common functionality used by our decomposition component classes.">
<polygon fill="white" stroke="#666666" points="786.75,-150.12 641.75,-150.12 641.75,-119.62 786.75,-119.62 786.75,-150.12"/>
<text text-anchor="start" x="649.75" y="-136.62" font-family="Helvetica,sans-Serif" font-size="10.00">ml::maths::time_series</text>
<text text-anchor="middle" x="714.25" y="-125.38" font-family="Helvetica,sans-Serif" font-size="10.00">::CDecompositionComponent</text>
</a>
</g>
</g>
<!-- Node2&#45;&gt;Node1 -->
<g id="edge1_Node000001_Node000002" class="edge">
<title>Node2&#45;&gt;Node1</title>
<g id="a_edge1_Node000001_Node000002"><a xlink:title=" ">
<path fill="none" stroke="#8b1a1a" d="M798.3,-125.21C828.15,-121.73 861.17,-117.88 888.51,-114.7"/>
<polygon fill="#8b1a1a" stroke="#8b1a1a" points="798.06,-121.71 788.53,-126.34 798.87,-128.66 798.06,-121.71"/>
</a>
</g>
</g>
<!-- Node3 -->
<g id="Node000003" class="node">
<title>Node3</title>
<g id="a_Node000003"><a xlink:href="../../d1/d87/classml_1_1maths_1_1time__series_1_1_c_decomposition_component_1_1_c_packed_splines.html" target="_top" xlink:title="A low memory representation of the value and variance splines.">
<polygon fill="white" stroke="#666666" points="550.25,-155.75 405.25,-155.75 405.25,-114 550.25,-114 550.25,-155.75"/>
<text text-anchor="start" x="413.25" y="-142.25" font-family="Helvetica,sans-Serif" font-size="10.00">ml::maths::time_series</text>
<text text-anchor="start" x="413.25" y="-131" font-family="Helvetica,sans-Serif" font-size="10.00">::CDecompositionComponent</text>
<text text-anchor="middle" x="477.75" y="-119.75" font-family="Helvetica,sans-Serif" font-size="10.00">::CPackedSplines</text>
</a>
</g>
</g>
<!-- Node3&#45;&gt;Node2 -->
<g id="edge2_Node000002_Node000003" class="edge">
<title>Node3&#45;&gt;Node2</title>
<g id="a_edge2_Node000002_Node000003"><a xlink:title=" ">
<path fill="none" stroke="#9a32cd" stroke-dasharray="5,2" d="M562.04,-134.88C587.98,-134.88 616.35,-134.88 641.43,-134.88"/>
<polygon fill="#9a32cd" stroke="#9a32cd" points="562.21,-131.38 552.21,-134.88 562.21,-138.38 562.21,-131.38"/>
</a>
</g>
<text text-anchor="middle" x="593" y="-136.62" font-family="Helvetica,sans-Serif" font-size="10.00" fill="grey"> m_Splines</text>
</g>
<!-- Node4 -->
<g id="Node000004" class="node">
<title>Node4</title>
<g id="a_Node000004"><a xlink:href="../../de/d1f/classml_1_1maths_1_1time__series_1_1_c_calendar_component_adaptive_bucketing.html" target="_top" xlink:title="An adaptive bucketing of the value of a calendar component.">
<polygon fill="white" stroke="#666666" points="792.75,-101.75 635.75,-101.75 635.75,-60 792.75,-60 792.75,-101.75"/>
<text text-anchor="start" x="643.75" y="-88.25" font-family="Helvetica,sans-Serif" font-size="10.00">ml::maths::time_series</text>
<text text-anchor="start" x="643.75" y="-77" font-family="Helvetica,sans-Serif" font-size="10.00">::CCalendarComponentAdaptive</text>
<text text-anchor="middle" x="714.25" y="-65.75" font-family="Helvetica,sans-Serif" font-size="10.00">Bucketing</text>
</a>
</g>
</g>
<!-- Node4&#45;&gt;Node1 -->
<g id="edge3_Node000001_Node000004" class="edge">
<title>Node4&#45;&gt;Node1</title>
<g id="a_edge3_Node000001_Node000004"><a xlink:title=" ">
<path fill="none" stroke="#9a32cd" stroke-dasharray="5,2" d="M804.22,-91.24C832.48,-94.53 862.99,-98.08 888.54,-101.05"/>
<polygon fill="#9a32cd" stroke="#9a32cd" points="804.95,-87.8 794.61,-90.12 804.14,-94.75 804.95,-87.8"/>
</a>
</g>
<text text-anchor="middle" x="840.75" y="-99.62" font-family="Helvetica,sans-Serif" font-size="10.00" fill="grey"> m_Bucketing</text>
</g>
<!-- Node5 -->
<g id="Node000005" class="node">
<title>Node5</title>
<g id="a_Node000005"><a xlink:href="../../d7/d17/classml_1_1maths_1_1time__series_1_1_c_adaptive_bucketing.html" target="_top" xlink:title="Common functionality used by our adaptive bucketing classes.">
<polygon fill="white" stroke="#666666" points="535.62,-96.12 419.88,-96.12 419.88,-65.62 535.62,-65.62 535.62,-96.12"/>
<text text-anchor="start" x="427.88" y="-82.62" font-family="Helvetica,sans-Serif" font-size="10.00">ml::maths::time_series</text>
<text text-anchor="middle" x="477.75" y="-71.38" font-family="Helvetica,sans-Serif" font-size="10.00">::CAdaptiveBucketing</text>
</a>
</g>
</g>
<!-- Node5&#45;&gt;Node4 -->
<g id="edge4_Node000004_Node000005" class="edge">
<title>Node5&#45;&gt;Node4</title>
<g id="a_edge4_Node000004_Node000005"><a xlink:title=" ">
<path fill="none" stroke="#63b8ff" d="M547.29,-80.88C575,-80.88 607.12,-80.88 635.67,-80.88"/>
<polygon fill="#63b8ff" stroke="#63b8ff" points="547.63,-77.38 537.63,-80.88 547.63,-84.38 547.63,-77.38"/>
</a>
</g>
</g>
<!-- Node6 -->
<g id="Node000006" class="node">
<title>Node6</title>
<g id="a_Node000006"><a xlink:href="../../da/d52/structml_1_1maths_1_1common_1_1_c_basic_statistics_1_1_s_min.html" target="_top" xlink:title=" ">
<polygon fill="white" stroke="#666666" points="167.88,-161.75 49.88,-161.75 49.88,-120 167.88,-120 167.88,-161.75"/>
<text text-anchor="start" x="57.88" y="-148.25" font-family="Helvetica,sans-Serif" font-size="10.00">ml::maths::common::</text>
<text text-anchor="start" x="57.88" y="-137" font-family="Helvetica,sans-Serif" font-size="10.00">CBasicStatistics::SMin</text>
<text text-anchor="middle" x="108.88" y="-125.75" font-family="Helvetica,sans-Serif" font-size="10.00">&lt; TFloatUInt32Pr, 2 &gt;</text>
</a>
</g>
</g>
<!-- Node6&#45;&gt;Node5 -->
<g id="edge5_Node000005_Node000006" class="edge">
<title>Node6&#45;&gt;Node5</title>
<g id="a_edge5_Node000005_Node000006"><a xlink:title=" ">
<path fill="none" stroke="#9a32cd" stroke-dasharray="5,2" d="M179.5,-146.2C237.12,-148.09 320.12,-144.92 387.25,-118.88 396.7,-115.21 396.32,-109.67 405.25,-104.88 410.9,-101.84 417.01,-99.09 423.2,-96.62"/>
<polygon fill="#9a32cd" stroke="#9a32cd" points="179.97,-142.72 169.84,-145.82 179.69,-149.71 179.97,-142.72"/>
</a>
</g>
<text text-anchor="middle" x="311.5" y="-147.62" font-family="Helvetica,sans-Serif" font-size="10.00" fill="grey"> m_LargeErrorCountPValues</text>
</g>
<!-- Node7 -->
<g id="Node000007" class="node">
<title>Node7</title>
<g id="a_Node000007"><a xlink:href="../../d5/d01/structml_1_1maths_1_1common_1_1_c_basic_statistics_1_1_s_sample_mean.html" target="_top" xlink:title=" ">
<polygon fill="white" stroke="#666666" points="188.5,-101.75 29.25,-101.75 29.25,-60 188.5,-60 188.5,-101.75"/>
<text text-anchor="start" x="37.25" y="-88.25" font-family="Helvetica,sans-Serif" font-size="10.00">ml::maths::common::</text>
<text text-anchor="start" x="37.25" y="-77" font-family="Helvetica,sans-Serif" font-size="10.00">CBasicStatistics::SSampleMean</text>
<text text-anchor="middle" x="108.88" y="-65.75" font-family="Helvetica,sans-Serif" font-size="10.00">&lt; common::CFloatStorage &gt;</text>
</a>
</g>
</g>
<!-- Node7&#45;&gt;Node5 -->
<g id="edge6_Node000005_Node000007" class="edge">
<title>Node7&#45;&gt;Node5</title>
<g id="a_edge6_Node000005_Node000007"><a xlink:title=" ">
<path fill="none" stroke="#9a32cd" stroke-dasharray="5,2" d="M199.8,-80.88C268.34,-80.88 360.66,-80.88 419.45,-80.88"/>
<polygon fill="#9a32cd" stroke="#9a32cd" points="200.09,-77.38 190.09,-80.88 200.09,-84.38 200.09,-77.38"/>
</a>
</g>
<text text-anchor="middle" x="311.5" y="-105.12" font-family="Helvetica,sans-Serif" font-size="10.00" fill="grey"> m_MeanAbsDesiredDisplacement</text>
<text text-anchor="middle" x="311.5" y="-93.88" font-family="Helvetica,sans-Serif" font-size="10.00" fill="grey">m_MeanDesiredDisplacement</text>
<text text-anchor="middle" x="311.5" y="-82.62" font-family="Helvetica,sans-Serif" font-size="10.00" fill="grey">m_MeanWeight</text>
</g>
<!-- Node8 -->
<g id="Node000008" class="node">
<title>Node8</title>
<g id="a_Node000008"><a xlink:href="../../d9/d43/classml_1_1maths_1_1time__series_1_1_c_calendar_feature.html" target="_top" xlink:title="A light weight encoding of a calendar feature.">
<polygon fill="white" stroke="#666666" points="535.62,-42.12 419.88,-42.12 419.88,-11.62 535.62,-11.62 535.62,-42.12"/>
<text text-anchor="start" x="427.88" y="-28.62" font-family="Helvetica,sans-Serif" font-size="10.00">ml::maths::time_series</text>
<text text-anchor="middle" x="477.75" y="-17.38" font-family="Helvetica,sans-Serif" font-size="10.00">::CCalendarFeature</text>
</a>
</g>
</g>
<!-- Node8&#45;&gt;Node4 -->
<g id="edge7_Node000004_Node000008" class="edge">
<title>Node8&#45;&gt;Node4</title>
<g id="a_edge7_Node000004_Node000008"><a xlink:title=" ">
<path fill="none" stroke="#9a32cd" stroke-dasharray="5,2" d="M547.29,-42.66C575,-49.04 607.12,-56.43 635.67,-63.01"/>
<polygon fill="#9a32cd" stroke="#9a32cd" points="548.12,-39.26 537.59,-40.42 546.55,-46.08 548.12,-39.26"/>
</a>
</g>
<text text-anchor="middle" x="593" y="-59.62" font-family="Helvetica,sans-Serif" font-size="10.00" fill="grey"> m_Feature</text>
</g>
<!-- Node9 -->
<g id="Node000009" class="node">
<title>Node9</title>
<g id="a_Node000009"><a xlink:title=" ">
<polygon fill="white" stroke="#666666" points="217.75,-41.75 0,-41.75 0,0 217.75,0 217.75,-41.75"/>
<text text-anchor="start" x="8" y="-28.25" font-family="Helvetica,sans-Serif" font-size="10.00">boost::less_than_comparable</text>
<text text-anchor="start" x="8" y="-17" font-family="Helvetica,sans-Serif" font-size="10.00">&lt; CCalendarFeature, boost</text>
<text text-anchor="middle" x="108.88" y="-5.75" font-family="Helvetica,sans-Serif" font-size="10.00">::equality_comparable&lt; CCalendarFeature &gt; &gt;</text>
</a>
</g>
</g>
<!-- Node9&#45;&gt;Node8 -->
<g id="edge8_Node000008_Node000009" class="edge">
<title>Node9&#45;&gt;Node8</title>
<g id="a_edge8_Node000008_Node000009"><a xlink:title=" ">
<path fill="none" stroke="#8b1a1a" d="M229.33,-22.83C293.2,-23.87 368.89,-25.11 419.58,-25.94"/>
<polygon fill="#8b1a1a" stroke="#8b1a1a" points="229.53,-19.33 219.48,-22.67 229.42,-26.33 229.53,-19.33"/>
</a>
</g>
</g>
</g>
</svg>
