<?xml version="1.0" encoding="UTF-8" standalone="no"?>
<!DOCTYPE svg PUBLIC "-//W3C//DTD SVG 1.1//EN"
 "http://www.w3.org/Graphics/SVG/1.1/DTD/svg11.dtd">
<!-- Generated by graphviz version 10.0.1 (20240210.2158)
 -->
<!-- Title: ml::model::anonymous_namespace{CEventRateBucketGatherer::cc}::STimesBucketSerializer::operator() Pages: 1 -->
<svg width="397pt" height="194pt"
 viewBox="0.00 0.00 397.00 194.12" xmlns="http://www.w3.org/2000/svg" xmlns:xlink="http://www.w3.org/1999/xlink">

<svg id="main" version="1.1" xmlns="http://www.w3.org/2000/svg" xmlns:xlink="http://www.w3.org/1999/xlink" xml:space="preserve" onload="init(evt)">
<style type="text/css"><![CDATA[
.node, .edge {opacity: 0.7;}
.node.selected, .edge.selected {opacity: 1;}
.edge:hover path { stroke: red; }
.edge:hover polygon { stroke: red; fill: red; }
]]></style>
<script type="application/ecmascript" xlink:href="../../svg.min.js"/>
<svg id="graph" class="graph">
<g id="graph0" class="graph" transform="scale(1 1) rotate(0) translate(4 190.12)">
<title>ml::model::anonymous_namespace{CEventRateBucketGatherer::cc}::STimesBucketSerializer::operator()</title>
<!-- Node1 -->
<g id="Node000001" class="node">
<title>Node1</title>
<g id="a_Node000001"><a xlink:title=" ">
<polygon fill="#999999" stroke="#666666" points="184,-125.38 0,-125.38 0,-72.38 184,-72.38 184,-125.38"/>
<text text-anchor="start" x="8" y="-111.88" font-family="Helvetica,sans-Serif" font-size="10.00">ml::model::anonymous</text>
<text text-anchor="start" x="8" y="-100.62" font-family="Helvetica,sans-Serif" font-size="10.00">_namespace{CEventRateBucket</text>
<text text-anchor="start" x="8" y="-89.38" font-family="Helvetica,sans-Serif" font-size="10.00">Gatherer::cc}::STimesBucketSerializer</text>
<text text-anchor="middle" x="92" y="-78.12" font-family="Helvetica,sans-Serif" font-size="10.00">::operator()</text>
</a>
</g>
</g>
<!-- Node2 -->
<g id="Node000002" class="node">
<title>Node2</title>
<g id="a_Node000002"><a xlink:href="../../d6/d96/classml_1_1core_1_1_c_state_persist_inserter.html#a21319d2ecfcb0ab1aceecf2a5a463d3a" target="_top" xlink:title="Store a name/value.">
<polygon fill="white" stroke="#666666" points="380.38,-186.12 228.62,-186.12 228.62,-155.62 380.38,-155.62 380.38,-186.12"/>
<text text-anchor="start" x="236.62" y="-172.62" font-family="Helvetica,sans-Serif" font-size="10.00">ml::core::CStatePersistInserter</text>
<text text-anchor="middle" x="304.5" y="-161.38" font-family="Helvetica,sans-Serif" font-size="10.00">::insertValue</text>
</a>
</g>
</g>
<!-- Node1&#45;&gt;Node2 -->
<g id="edge1_Node000001_Node000002" class="edge">
<title>Node1&#45;&gt;Node2</title>
<g id="a_edge1_Node000001_Node000002"><a xlink:title=" ">
<path fill="none" stroke="#63b8ff" d="M161.18,-125.81C180.12,-132.97 200.76,-140.49 220,-146.88 225.1,-148.57 230.4,-150.26 235.74,-151.9"/>
<polygon fill="#63b8ff" stroke="#63b8ff" points="234.68,-155.24 245.27,-154.79 236.71,-148.54 234.68,-155.24"/>
</a>
</g>
</g>
<!-- Node3 -->
<g id="Node000003" class="node">
<title>Node3</title>
<g id="a_Node000003"><a xlink:href="../../d4/d84/namespaceml_1_1model_1_1anonymous__namespace_02_c_event_rate_bucket_gatherer_8cc_03.html#adc79c7dd9f8652affdd9dc9c085585f1" target="_top" xlink:title=" ">
<polygon fill="white" stroke="#666666" points="389,-119.75 220,-119.75 220,-78 389,-78 389,-119.75"/>
<text text-anchor="start" x="228" y="-106.25" font-family="Helvetica,sans-Serif" font-size="10.00">ml::model::anonymous</text>
<text text-anchor="start" x="228" y="-95" font-family="Helvetica,sans-Serif" font-size="10.00">_namespace{CEventRateBucket</text>
<text text-anchor="middle" x="304.5" y="-83.75" font-family="Helvetica,sans-Serif" font-size="10.00">Gatherer::cc}::MEAN_TIMES_TAG</text>
</a>
</g>
</g>
<!-- Node1&#45;&gt;Node3 -->
<g id="edge2_Node000001_Node000003" class="edge">
<title>Node1&#45;&gt;Node3</title>
<g id="a_edge2_Node000001_Node000003"><a xlink:title=" ">
<path fill="none" stroke="#63b8ff" d="M184.41,-98.88C192.4,-98.88 200.51,-98.88 208.53,-98.88"/>
<polygon fill="#63b8ff" stroke="#63b8ff" points="208.28,-102.38 218.28,-98.88 208.28,-95.38 208.28,-102.38"/>
</a>
</g>
</g>
<!-- Node4 -->
<g id="Node000004" class="node">
<title>Node4</title>
<g id="a_Node000004"><a xlink:href="../../d4/d84/namespaceml_1_1model_1_1anonymous__namespace_02_c_event_rate_bucket_gatherer_8cc_03.html#a8533554b25b22512d96609e2c9e27212" target="_top" xlink:title=" ">
<polygon fill="white" stroke="#666666" points="384.12,-41.75 224.88,-41.75 224.88,0 384.12,0 384.12,-41.75"/>
<text text-anchor="start" x="232.88" y="-28.25" font-family="Helvetica,sans-Serif" font-size="10.00">ml::model::anonymous</text>
<text text-anchor="start" x="232.88" y="-17" font-family="Helvetica,sans-Serif" font-size="10.00">_namespace{CEventRateBucket</text>
<text text-anchor="middle" x="304.5" y="-5.75" font-family="Helvetica,sans-Serif" font-size="10.00">Gatherer::cc}::PERSON_TAG</text>
</a>
</g>
</g>
<!-- Node1&#45;&gt;Node4 -->
<g id="edge4_Node000001_Node000004" class="edge">
<title>Node1&#45;&gt;Node4</title>
<g id="a_edge4_Node000001_Node000004"><a xlink:title=" ">
<path fill="none" stroke="#63b8ff" d="M165.74,-71.92C188.31,-63.56 213.09,-54.38 235.33,-46.13"/>
<polygon fill="#63b8ff" stroke="#63b8ff" points="236.45,-49.45 244.61,-42.7 234.02,-42.89 236.45,-49.45"/>
</a>
</g>
</g>
<!-- Node3&#45;&gt;Node3 -->
<g id="edge3_Node000003_Node000003" class="edge">
<title>Node3&#45;&gt;Node3</title>
<g id="a_edge3_Node000003_Node000003"><a xlink:title=" ">
<path fill="none" stroke="#63b8ff" d="M265.28,-120.07C261.54,-129.55 274.62,-137.75 304.5,-137.75 322.24,-137.75 334.06,-134.86 339.95,-130.53"/>
<polygon fill="#63b8ff" stroke="#63b8ff" points="343.11,-132.09 343.21,-121.49 336.52,-129.71 343.11,-132.09"/>
</a>
</g>
</g>
<!-- Node4&#45;&gt;Node4 -->
<g id="edge5_Node000004_Node000004" class="edge">
<title>Node4&#45;&gt;Node4</title>
<g id="a_edge5_Node000004_Node000004"><a xlink:title=" ">
<path fill="none" stroke="#63b8ff" d="M265.28,-42.07C261.54,-51.55 274.62,-59.75 304.5,-59.75 322.24,-59.75 334.06,-56.86 339.95,-52.53"/>
<polygon fill="#63b8ff" stroke="#63b8ff" points="343.11,-54.09 343.21,-43.49 336.52,-51.71 343.11,-54.09"/>
</a>
</g>
</g>
</g>
</svg>
</svg>

<style type='text/css'>
<![CDATA[
[data-mouse-over-selected='false'] { opacity: 0.7; }
[data-mouse-over-selected='true']  { opacity: 1.0; }
]]>
</style>
<script type="application/ecmascript"><![CDATA[
document.addEventListener('DOMContentLoaded', (event) => {
  highlightEdges();
  highlightAdjacentNodes();
});
]]></script>
</svg>
