<?xml version="1.0" encoding="UTF-8" standalone="no"?>
<!DOCTYPE svg PUBLIC "-//W3C//DTD SVG 1.1//EN"
 "http://www.w3.org/Graphics/SVG/1.1/DTD/svg11.dtd">
<!-- Generated by graphviz version 10.0.1 (20240210.2158)
 -->
<!-- Title: ml::maths::common::anonymous_namespace{CNormalMeanPrecConjugate::cc}::detail::evaluateFunctionOnJointDistribution Pages: 1 -->
<svg width="246pt" height="72pt"
 viewBox="0.00 0.00 246.25 72.25" xmlns="http://www.w3.org/2000/svg" xmlns:xlink="http://www.w3.org/1999/xlink">
<g id="graph0" class="graph" transform="scale(1 1) rotate(0) translate(4 68.25)">
<title>ml::maths::common::anonymous_namespace{CNormalMeanPrecConjugate::cc}::detail::evaluateFunctionOnJointDistribution</title>
<!-- Node1 -->
<g id="Node000001" class="node">
<title>Node1</title>
<g id="a_Node000001"><a xlink:title=" ">
<polygon fill="#999999" stroke="#666666" points="146.5,-64.25 0,-64.25 0,0 146.5,0 146.5,-64.25"/>
<text text-anchor="start" x="8" y="-50.75" font-family="Helvetica,sans-Serif" font-size="10.00">ml::maths::common::</text>
<text text-anchor="start" x="8" y="-39.5" font-family="Helvetica,sans-Serif" font-size="10.00">anonymous_namespace</text>
<text text-anchor="start" x="8" y="-28.25" font-family="Helvetica,sans-Serif" font-size="10.00">{CNormalMeanPrecConjugate</text>
<text text-anchor="start" x="8" y="-17" font-family="Helvetica,sans-Serif" font-size="10.00">::cc}::detail::evaluateFunction</text>
<text text-anchor="middle" x="73.25" y="-5.75" font-family="Helvetica,sans-Serif" font-size="10.00">OnJointDistribution</text>
</a>
</g>
</g>
<!-- Node2 -->
<g id="Node000002" class="node">
<title>Node2</title>
<g id="a_Node000002"><a xlink:href="../../d4/da6/namespaceml.html#ad281564c6956f9a94ad02cfd663d150d" target="_top" xlink:title="Scales time input to generator.">
<polygon fill="white" stroke="#666666" points="238.25,-41.75 182.5,-41.75 182.5,-22.5 238.25,-22.5 238.25,-41.75"/>
<text text-anchor="middle" x="210.38" y="-28.25" font-family="Helvetica,sans-Serif" font-size="10.00">ml::scale</text>
</a>
</g>
</g>
<!-- Node1&#45;&gt;Node2 -->
<g id="edge1_Node000001_Node000002" class="edge">
<title>Node1&#45;&gt;Node2</title>
<g id="a_edge1_Node000001_Node000002"><a xlink:title=" ">
<path fill="none" stroke="#63b8ff" d="M146.95,-32.12C155.15,-32.12 163.25,-32.12 170.76,-32.12"/>
<polygon fill="#63b8ff" stroke="#63b8ff" points="170.49,-35.63 180.49,-32.13 170.49,-28.63 170.49,-35.63"/>
</a>
</g>
</g>
<!-- Node2&#45;&gt;Node2 -->
<g id="edge2_Node000002_Node000002" class="edge">
<title>Node2&#45;&gt;Node2</title>
<g id="a_edge2_Node000002_Node000002"><a xlink:title=" ">
<path fill="none" stroke="#63b8ff" d="M188.91,-42.04C179.12,-50.65 186.27,-59.75 210.38,-59.75 223.56,-59.75 231.67,-57.03 234.71,-53.15"/>
<polygon fill="#63b8ff" stroke="#63b8ff" points="238.11,-52.31 232.22,-43.5 231.33,-54.06 238.11,-52.31"/>
</a>
</g>
</g>
</g>
</svg>
