<?xml version="1.0" encoding="UTF-8" standalone="no"?>
<!DOCTYPE svg PUBLIC "-//W3C//DTD SVG 1.1//EN"
 "http://www.w3.org/Graphics/SVG/1.1/DTD/svg11.dtd">
<!-- Generated by graphviz version 10.0.1 (20240210.2158)
 -->
<!-- Title: ml::controller::CResponseJsonWriter Pages: 1 -->
<!--zoomable 169 -->

<svg id="main" version="1.1" xmlns="http://www.w3.org/2000/svg" xmlns:xlink="http://www.w3.org/1999/xlink" xml:space="preserve" onload="init(evt)">
<style type="text/css"><![CDATA[
.node, .edge {opacity: 0.7;}
.node.selected, .edge.selected {opacity: 1;}
.edge:hover path { stroke: red; }
.edge:hover polygon { stroke: red; fill: red; }
]]></style>

<defs>
  <circle id="rim" cx="0" cy="0" r="7"/>
  <circle id="rim2" cx="0" cy="0" r="3.5"/>
  <g id="zoomPlus">
    <use xlink:href="#rim" fill="#404040"><set attributeName="fill" to="#808080" begin="zoomplus.mouseover" end="zoomplus.mouseout"/></use>
    <path d="M-4,0h8M0,-4v8" fill="none" stroke="white" stroke-width="1.5" pointer-events="none"/>
  </g>
  <g id="zoomMin">
    <use xlink:href="#rim" fill="#404040"><set attributeName="fill" to="#808080" begin="zoomminus.mouseover" end="zoomminus.mouseout"/></use>
    <path d="M-4,0h8" fill="none" stroke="white" stroke-width="1.5" pointer-events="none"/>
  </g>
  <g id="arrowUp" transform="translate(30 24)">
    <use xlink:href="#rim"/>
    <path pointer-events="none" fill="none" stroke="white" stroke-width="1.5" d="M0,-3.0v7 M-2.5,-0.5L0,-3.0L2.5,-0.5"/>
  </g>
  <g id="arrowRight" transform="rotate(90) translate(36 -43)">
    <use xlink:href="#rim"/>
    <path pointer-events="none" fill="none" stroke="white" stroke-width="1.5" d="M0,-3.0v7 M-2.5,-0.5L0,-3.0L2.5,-0.5"/>
  </g>
  <g id="arrowDown" transform="rotate(180) translate(-30 -48)">
    <use xlink:href="#rim"/>
    <path pointer-events="none" fill="none" stroke="white" stroke-width="1.5" d="M0,-3.0v7 M-2.5,-0.5L0,-3.0L2.5,-0.5"/>
  </g>
  <g id="arrowLeft" transform="rotate(270) translate(-36 17)">
    <use xlink:href="#rim"/>
    <path pointer-events="none" fill="none" stroke="white" stroke-width="1.5" d="M0,-3.0v7 M-2.5,-0.5L0,-3.0L2.5,-0.5"/>
  </g>
  <g id="resetDef">
    <use xlink:href="#rim2" fill="#404040"><set attributeName="fill" to="#808080" begin="reset.mouseover" end="reset.mouseout"/></use>
  </g>
</defs>
<script type="application/ecmascript">
var viewWidth = 1211;
var viewHeight = 169;
var sectionId = 'dynsection-0';
</script>
<script type="application/ecmascript" xlink:href="../../svg.min.js"/>
<svg id="graph" class="graph">
<g id="viewport">
<title>ml::controller::CResponseJsonWriter</title>
<!-- Node1 -->
<g id="Node000001" class="node">
<title>Node1</title>
<g id="a_Node000001"><a xlink:title="Write a response to a controller command in JSON format.">
<polygon fill="#999999" stroke="#666666" points="1202.75,-100.5 1072.75,-100.5 1072.75,-70 1202.75,-70 1202.75,-100.5"/>
<text text-anchor="start" x="1080.75" y="-87" font-family="Helvetica,sans-Serif" font-size="10.00">ml::controller::CResponse</text>
<text text-anchor="middle" x="1137.75" y="-75.75" font-family="Helvetica,sans-Serif" font-size="10.00">JsonWriter</text>
</a>
</g>
</g>
<!-- Node2 -->
<g id="Node000002" class="node">
<title>Node2</title>
<g id="a_Node000002"><a xlink:href="../../d0/d1b/classml_1_1core_1_1_c_json_output_stream_wrapper.html" target="_top" xlink:title="A wrapper around a shared output stream for concurrent writes, handling writes.">
<polygon fill="white" stroke="#666666" points="686.25,-84.5 539.75,-84.5 539.75,-54 686.25,-54 686.25,-84.5"/>
<text text-anchor="start" x="547.75" y="-71" font-family="Helvetica,sans-Serif" font-size="10.00">ml::core::CJsonOutputStream</text>
<text text-anchor="middle" x="613" y="-59.75" font-family="Helvetica,sans-Serif" font-size="10.00">Wrapper</text>
</a>
</g>
</g>
<!-- Node2&#45;&gt;Node1 -->
<g id="edge1_Node000001_Node000002" class="edge">
<title>Node2&#45;&gt;Node1</title>
<g id="a_edge1_Node000001_Node000002"><a xlink:title=" ">
<path fill="none" stroke="#9a32cd" stroke-dasharray="5,2" d="M697.73,-70.95C774.89,-72.63 892.55,-75.44 994.75,-79 1020.15,-79.88 1048.1,-81.07 1072.43,-82.17"/>
<polygon fill="#9a32cd" stroke="#9a32cd" points="698.24,-67.46 688.16,-70.75 698.09,-74.46 698.24,-67.46"/>
</a>
</g>
<text text-anchor="middle" x="915.12" y="-80" font-family="Helvetica,sans-Serif" font-size="10.00" fill="grey"> m_WrappedOutputStream</text>
</g>
<!-- Node7 -->
<g id="Node000007" class="node">
<title>Node7</title>
<g id="a_Node000007"><a xlink:href="../../d8/dc0/classml_1_1core_1_1_c_boost_json_concurrent_line_writer.html" target="_top" xlink:title="A Json line writer for concurrently writing to a shared output stream.">
<polygon fill="white" stroke="#666666" points="994.75,-129.5 835.5,-129.5 835.5,-99 994.75,-99 994.75,-129.5"/>
<text text-anchor="start" x="843.5" y="-116" font-family="Helvetica,sans-Serif" font-size="10.00">ml::core::CBoostJsonConcurrent</text>
<text text-anchor="middle" x="915.12" y="-104.75" font-family="Helvetica,sans-Serif" font-size="10.00">LineWriter</text>
</a>
</g>
</g>
<!-- Node2&#45;&gt;Node7 -->
<g id="edge11_Node000007_Node000002" class="edge">
<title>Node2&#45;&gt;Node7</title>
<g id="a_edge11_Node000007_Node000002"><a xlink:title=" ">
<path fill="none" stroke="#9a32cd" stroke-dasharray="5,2" d="M697.65,-82.25C699.87,-82.59 702.07,-82.92 704.25,-83.25 747.59,-89.81 795.98,-96.97 835.37,-102.76"/>
<polygon fill="#9a32cd" stroke="#9a32cd" points="698.31,-78.81 687.9,-80.76 697.26,-85.73 698.31,-78.81"/>
</a>
</g>
<text text-anchor="middle" x="760.88" y="-101" font-family="Helvetica,sans-Serif" font-size="10.00" fill="grey"> m_OutputStreamWrapper</text>
</g>
<!-- Node3 -->
<g id="Node000003" class="node">
<title>Node3</title>
<g id="a_Node000003"><a xlink:href="../../d0/d45/classml_1_1core_1_1_c_non_copyable.html" target="_top" xlink:title="Equivalent to boost::noncopyable.">
<polygon fill="white" stroke="#666666" points="134.5,-110.88 10.5,-110.88 10.5,-91.62 134.5,-91.62 134.5,-110.88"/>
<text text-anchor="middle" x="72.5" y="-97.38" font-family="Helvetica,sans-Serif" font-size="10.00">ml::core::CNonCopyable</text>
</a>
</g>
</g>
<!-- Node3&#45;&gt;Node2 -->
<g id="edge2_Node000002_Node000003" class="edge">
<title>Node3&#45;&gt;Node2</title>
<g id="a_edge2_Node000002_Node000003"><a xlink:title=" ">
<path fill="none" stroke="#8b1a1a" d="M146.19,-100.42C234.98,-98.88 389.68,-94.53 521.75,-82.25 527.58,-81.71 533.61,-81.05 539.66,-80.32"/>
<polygon fill="#8b1a1a" stroke="#8b1a1a" points="146.35,-96.91 136.41,-100.58 146.47,-103.91 146.35,-96.91"/>
</a>
</g>
</g>
<!-- Node5 -->
<g id="Node000005" class="node">
<title>Node5</title>
<g id="a_Node000005"><a xlink:href="../../de/d19/classml_1_1core_1_1_c_concurrent_wrapper.html" target="_top" xlink:title=" ">
<polygon fill="white" stroke="#666666" points="376.62,-79.5 227.88,-79.5 227.88,-49 376.62,-49 376.62,-79.5"/>
<text text-anchor="start" x="235.88" y="-66" font-family="Helvetica,sans-Serif" font-size="10.00">ml::core::CConcurrentWrapper</text>
<text text-anchor="middle" x="302.25" y="-54.75" font-family="Helvetica,sans-Serif" font-size="10.00">&lt; std::ostream &gt;</text>
</a>
</g>
</g>
<!-- Node3&#45;&gt;Node5 -->
<g id="edge5_Node000005_Node000003" class="edge">
<title>Node3&#45;&gt;Node5</title>
<g id="a_edge5_Node000005_Node000003"><a xlink:title=" ">
<path fill="none" stroke="#8b1a1a" d="M146.15,-89.45C172.18,-85.22 201.54,-80.45 227.65,-76.21"/>
<polygon fill="#8b1a1a" stroke="#8b1a1a" points="145.64,-85.98 136.33,-91.04 146.76,-92.89 145.64,-85.98"/>
</a>
</g>
</g>
<!-- Node4 -->
<g id="Node000004" class="node">
<title>Node4</title>
<g id="a_Node000004"><a xlink:href="../../d2/d16/classml_1_1core_1_1_c_concurrent_queue.html" target="_top" xlink:title=" ">
<polygon fill="white" stroke="#666666" points="372.88,-30.5 231.62,-30.5 231.62,0 372.88,0 372.88,-30.5"/>
<text text-anchor="start" x="239.62" y="-17" font-family="Helvetica,sans-Serif" font-size="10.00">ml::core::CConcurrentQueue</text>
<text text-anchor="middle" x="302.25" y="-5.75" font-family="Helvetica,sans-Serif" font-size="10.00">&lt; std::string * &gt;</text>
</a>
</g>
</g>
<!-- Node4&#45;&gt;Node2 -->
<g id="edge3_Node000002_Node000004" class="edge">
<title>Node4&#45;&gt;Node2</title>
<g id="a_edge3_Node000002_Node000004"><a xlink:title=" ">
<path fill="none" stroke="#9a32cd" stroke-dasharray="5,2" d="M384.63,-27.15C425.81,-33.44 476.53,-41.59 521.75,-50 527.74,-51.11 533.93,-52.32 540.15,-53.57"/>
<polygon fill="#9a32cd" stroke="#9a32cd" points="385.19,-23.7 374.77,-25.66 384.13,-30.62 385.19,-23.7"/>
</a>
</g>
<text text-anchor="middle" x="459.12" y="-51" font-family="Helvetica,sans-Serif" font-size="10.00" fill="grey"> m_StringBufferQueue</text>
</g>
<!-- Node5&#45;&gt;Node2 -->
<g id="edge4_Node000002_Node000005" class="edge">
<title>Node5&#45;&gt;Node2</title>
<g id="a_edge4_Node000002_Node000005"><a xlink:title=" ">
<path fill="none" stroke="#9a32cd" stroke-dasharray="5,2" d="M388.29,-65.63C435.66,-66.39 494.03,-67.34 539.27,-68.07"/>
<polygon fill="#9a32cd" stroke="#9a32cd" points="388.38,-62.13 378.32,-65.47 388.27,-69.13 388.38,-62.13"/>
</a>
</g>
<text text-anchor="middle" x="459.12" y="-69" font-family="Helvetica,sans-Serif" font-size="10.00" fill="grey"> m_ConcurrentOutputStream</text>
</g>
<!-- Node6 -->
<g id="Node000006" class="node">
<title>Node6</title>
<g id="a_Node000006"><a xlink:href="../../d2/d16/classml_1_1core_1_1_c_concurrent_queue.html" target="_top" xlink:title=" ">
<polygon fill="white" stroke="#666666" points="143.12,-71.5 1.88,-71.5 1.88,-41 143.12,-41 143.12,-71.5"/>
<text text-anchor="start" x="9.88" y="-58" font-family="Helvetica,sans-Serif" font-size="10.00">ml::core::CConcurrentQueue</text>
<text text-anchor="middle" x="72.5" y="-46.75" font-family="Helvetica,sans-Serif" font-size="10.00">&lt; std::function&lt; void()&gt; &gt;</text>
</a>
</g>
</g>
<!-- Node6&#45;&gt;Node5 -->
<g id="edge6_Node000005_Node000006" class="edge">
<title>Node6&#45;&gt;Node5</title>
<g id="a_edge6_Node000005_Node000006"><a xlink:title=" ">
<path fill="none" stroke="#9a32cd" stroke-dasharray="5,2" d="M154.73,-55.76C172.3,-55.92 190.78,-56.28 208,-57 214.33,-57.26 220.89,-57.61 227.47,-58.02"/>
<polygon fill="#9a32cd" stroke="#9a32cd" points="154.87,-52.26 144.84,-55.7 154.82,-59.26 154.87,-52.26"/>
</a>
</g>
<text text-anchor="middle" x="185.5" y="-58" font-family="Helvetica,sans-Serif" font-size="10.00" fill="grey"> m_Queue</text>
</g>
<!-- Node7&#45;&gt;Node1 -->
<g id="edge7_Node000001_Node000007" class="edge">
<title>Node7&#45;&gt;Node1</title>
<g id="a_edge7_Node000001_Node000007"><a xlink:title=" ">
<path fill="none" stroke="#9a32cd" stroke-dasharray="5,2" d="M1006.28,-102.4C1028.45,-99.49 1051.74,-96.42 1072.41,-93.71"/>
<polygon fill="#9a32cd" stroke="#9a32cd" points="1006.11,-98.89 996.65,-103.66 1007.02,-105.83 1006.11,-98.89"/>
</a>
</g>
<text text-anchor="middle" x="1033.75" y="-103" font-family="Helvetica,sans-Serif" font-size="10.00" fill="grey"> m_Writer</text>
</g>
<!-- Node8 -->
<g id="Node000008" class="node">
<title>Node8</title>
<g id="a_Node000008"><a xlink:href="../../d8/dab/classml_1_1core_1_1_c_string_buf_writer.html" target="_top" xlink:title=" ">
<polygon fill="white" stroke="#666666" points="678.38,-145.88 547.62,-145.88 547.62,-126.62 678.38,-126.62 678.38,-145.88"/>
<text text-anchor="middle" x="613" y="-132.38" font-family="Helvetica,sans-Serif" font-size="10.00">ml::core::CStringBufWriter</text>
</a>
</g>
</g>
<!-- Node8&#45;&gt;Node7 -->
<g id="edge8_Node000007_Node000008" class="edge">
<title>Node8&#45;&gt;Node7</title>
<g id="a_edge8_Node000007_Node000008"><a xlink:title=" ">
<path fill="none" stroke="#63b8ff" d="M690.06,-130.67C734.4,-127.42 790.23,-123.33 835.08,-120.04"/>
<polygon fill="#63b8ff" stroke="#63b8ff" points="689.98,-127.17 680.26,-131.39 690.49,-134.15 689.98,-127.17"/>
</a>
</g>
</g>
<!-- Node9 -->
<g id="Node000009" class="node">
<title>Node9</title>
<g id="a_Node000009"><a xlink:href="../../d0/def/classml_1_1core_1_1_c_boost_json_line_writer.html" target="_top" xlink:title=" ">
<polygon fill="white" stroke="#666666" points="378.5,-154.88 226,-154.88 226,-135.62 378.5,-135.62 378.5,-154.88"/>
<text text-anchor="middle" x="302.25" y="-141.38" font-family="Helvetica,sans-Serif" font-size="10.00">TBoostJsonLineWriterStringBuf</text>
</a>
</g>
</g>
<!-- Node9&#45;&gt;Node8 -->
<g id="edge9_Node000008_Node000009" class="edge">
<title>Node9&#45;&gt;Node8</title>
<g id="a_edge9_Node000008_Node000009"><a xlink:title=" ">
<path fill="none" stroke="#63b8ff" d="M390.2,-142.72C440.05,-141.26 501.58,-139.47 547.17,-138.14"/>
<polygon fill="#63b8ff" stroke="#63b8ff" points="390.19,-139.21 380.29,-143 390.39,-146.21 390.19,-139.21"/>
</a>
</g>
</g>
<!-- Node10 -->
<g id="Node000010" class="node">
<title>Node10</title>
<g id="a_Node000010"><a xlink:href="../../de/d68/classml_1_1core_1_1_c_boost_json_writer_base.html" target="_top" xlink:title="A Json writer with fixed length allocator pool With utility functions for adding fields to JSON objec...">
<polygon fill="white" stroke="#666666" points="145,-160.5 0,-160.5 0,-130 145,-130 145,-160.5"/>
<text text-anchor="start" x="8" y="-147" font-family="Helvetica,sans-Serif" font-size="10.00">ml::core::CBoostJsonWriter</text>
<text text-anchor="middle" x="72.5" y="-135.75" font-family="Helvetica,sans-Serif" font-size="10.00">Base&lt; OUTPUT_STREAM &gt;</text>
</a>
</g>
</g>
<!-- Node10&#45;&gt;Node9 -->
<g id="edge10_Node000009_Node000010" class="edge">
<title>Node10&#45;&gt;Node9</title>
<g id="a_edge10_Node000009_Node000010"><a xlink:title=" ">
<path fill="none" stroke="#63b8ff" d="M156.52,-145.25C179.08,-145.25 203.4,-145.25 225.53,-145.25"/>
<polygon fill="#63b8ff" stroke="#63b8ff" points="156.76,-141.75 146.76,-145.25 156.76,-148.75 156.76,-141.75"/>
</a>
</g>
</g>
</g>
</svg>

<g id="navigator" transform="translate(0 0)" fill="#404254">
  <rect fill="#f2f5e9" fill-opacity="0.5" stroke="#606060" stroke-width=".5" x="0" y="0" width="60" height="60"/>
  <use id="zoomplus" xlink:href="#zoomPlus" x="17" y="9" onmousedown="handleZoom(evt,'in')"/>
  <use id="zoomminus" xlink:href="#zoomMin" x="42" y="9" onmousedown="handleZoom(evt,'out')"/>
  <use id="reset" xlink:href="#resetDef" x="30" y="36" onmousedown="handleReset()"/>
   <use id="arrowup" xlink:href="#arrowUp" x="0" y="0" onmousedown="handlePan(0,-1)"/>
  <use id="arrowright" xlink:href="#arrowRight" x="0" y="0" onmousedown="handlePan(1,0)"/>
  <use id="arrowdown" xlink:href="#arrowDown" x="0" y="0" onmousedown="handlePan(0,1)"/>
  <use id="arrowleft" xlink:href="#arrowLeft" x="0" y="0" onmousedown="handlePan(-1,0)"/>
</g>
<svg viewBox="0 0 15 15" width="100%" height="30px" preserveAspectRatio="xMaxYMin meet">
 <g id="arrow_out" transform="scale(0.3 0.3)">
  <a xlink:href="classml_1_1controller_1_1_c_response_json_writer__coll__graph_org.svg" target="_base">
   <rect id="button" ry="5" rx="5" y="6" x="6" height="38" width="38"
        fill="#f2f5e9" fill-opacity="0.5" stroke="#606060" stroke-width="1.0"/>
   <path id="arrow"
     d="M 11.500037,31.436501 C 11.940474,20.09759 22.043105,11.32322 32.158766,21.979434 L 37.068811,17.246167 C 37.068811,17.246167 37.088388,32 37.088388,32 L 22.160133,31.978069 C 22.160133,31.978069 26.997745,27.140456 26.997745,27.140456 C 18.528582,18.264221 13.291696,25.230495 11.500037,31.436501 z"
     style="fill:#404040;"/>
  </a>
 </g>
</svg>

<style type='text/css'>
<![CDATA[
[data-mouse-over-selected='false'] { opacity: 0.7; }
[data-mouse-over-selected='true']  { opacity: 1.0; }
]]>
</style>
<script type="application/ecmascript"><![CDATA[
document.addEventListener('DOMContentLoaded', (event) => {
  highlightEdges();
  highlightAdjacentNodes();
});
]]></script>
</svg>
