<?xml version="1.0" encoding="UTF-8" standalone="no"?>
<!DOCTYPE svg PUBLIC "-//W3C//DTD SVG 1.1//EN"
 "http://www.w3.org/Graphics/SVG/1.1/DTD/svg11.dtd">
<!-- Generated by graphviz version 10.0.1 (20240210.2158)
 -->
<!-- Title: ml::maths::common::CQDigest::CNode::acceptRestoreTraverser Pages: 1 -->
<svg width="374pt" height="186pt"
 viewBox="0.00 0.00 373.75 185.50" xmlns="http://www.w3.org/2000/svg" xmlns:xlink="http://www.w3.org/1999/xlink">

<svg id="main" version="1.1" xmlns="http://www.w3.org/2000/svg" xmlns:xlink="http://www.w3.org/1999/xlink" xml:space="preserve" onload="init(evt)">
<style type="text/css"><![CDATA[
.node, .edge {opacity: 0.7;}
.node.selected, .edge.selected {opacity: 1;}
.edge:hover path { stroke: red; }
.edge:hover polygon { stroke: red; fill: red; }
]]></style>
<script type="application/ecmascript" xlink:href="../../svg.min.js"/>
<svg id="graph" class="graph">
<g id="graph0" class="graph" transform="scale(1 1) rotate(0) translate(4 181.5)">
<title>ml::maths::common::CQDigest::CNode::acceptRestoreTraverser</title>
<!-- Node1 -->
<g id="Node000001" class="node">
<title>Node1</title>
<g id="a_Node000001"><a xlink:title="Create from an XML node tree.">
<polygon fill="#999999" stroke="#666666" points="166,-109.12 0,-109.12 0,-67.38 166,-67.38 166,-109.12"/>
<text text-anchor="start" x="8" y="-95.62" font-family="Helvetica,sans-Serif" font-size="10.00">ml::maths::common::</text>
<text text-anchor="start" x="8" y="-84.38" font-family="Helvetica,sans-Serif" font-size="10.00">CQDigest::CNode::acceptRestore</text>
<text text-anchor="middle" x="83" y="-73.12" font-family="Helvetica,sans-Serif" font-size="10.00">Traverser</text>
</a>
</g>
</g>
<!-- Node2 -->
<g id="Node000002" class="node">
<title>Node2</title>
<g id="a_Node000002"><a xlink:href="../../d2/d3f/classml_1_1core_1_1_c_state_restore_traverser.html#af68782b2ed0c98177d130d9196f97889" target="_top" xlink:title=" ">
<polygon fill="white" stroke="#666666" points="365.75,-177.5 202,-177.5 202,-147 365.75,-147 365.75,-177.5"/>
<text text-anchor="start" x="210" y="-164" font-family="Helvetica,sans-Serif" font-size="10.00">ml::core::CStateRestoreTraverser</text>
<text text-anchor="middle" x="283.88" y="-152.75" font-family="Helvetica,sans-Serif" font-size="10.00">::name</text>
</a>
</g>
</g>
<!-- Node1&#45;&gt;Node2 -->
<g id="edge1_Node000001_Node000002" class="edge">
<title>Node1&#45;&gt;Node2</title>
<g id="a_edge1_Node000001_Node000002"><a xlink:title=" ">
<path fill="none" stroke="#63b8ff" d="M132.4,-109.55C153.58,-118.56 178.84,-128.88 202,-137.25 207.39,-139.2 213.02,-141.13 218.68,-143.01"/>
<polygon fill="#63b8ff" stroke="#63b8ff" points="217.53,-146.32 228.12,-146.08 219.7,-139.66 217.53,-146.32"/>
</a>
</g>
</g>
<!-- Node3 -->
<g id="Node000003" class="node">
<title>Node3</title>
<g id="a_Node000003"><a xlink:href="../../d2/d3f/classml_1_1core_1_1_c_state_restore_traverser.html#a733d8051e128c5d7421707afadb31ab7" target="_top" xlink:title=" ">
<polygon fill="white" stroke="#666666" points="365.75,-128.5 202,-128.5 202,-98 365.75,-98 365.75,-128.5"/>
<text text-anchor="start" x="210" y="-115" font-family="Helvetica,sans-Serif" font-size="10.00">ml::core::CStateRestoreTraverser</text>
<text text-anchor="middle" x="283.88" y="-103.75" font-family="Helvetica,sans-Serif" font-size="10.00">::next</text>
</a>
</g>
</g>
<!-- Node1&#45;&gt;Node3 -->
<g id="edge2_Node000001_Node000003" class="edge">
<title>Node1&#45;&gt;Node3</title>
<g id="a_edge2_Node000001_Node000003"><a xlink:title=" ">
<path fill="none" stroke="#63b8ff" d="M166.33,-98.6C174.24,-99.59 182.31,-100.61 190.31,-101.61"/>
<polygon fill="#63b8ff" stroke="#63b8ff" points="189.71,-105.07 200.07,-102.84 190.58,-98.12 189.71,-105.07"/>
</a>
</g>
</g>
<!-- Node4 -->
<g id="Node000004" class="node">
<title>Node4</title>
<g id="a_Node000004"><a xlink:href="../../d1/dfa/classml_1_1core_1_1_c_string_utils.html#a932b52350cb193f474a02ee4758edc22" target="_top" xlink:title="Convert a string to a type.">
<polygon fill="white" stroke="#666666" points="339.12,-79.5 228.62,-79.5 228.62,-49 339.12,-49 339.12,-79.5"/>
<text text-anchor="start" x="236.62" y="-66" font-family="Helvetica,sans-Serif" font-size="10.00">ml::core::CStringUtils</text>
<text text-anchor="middle" x="283.88" y="-54.75" font-family="Helvetica,sans-Serif" font-size="10.00">::stringToType</text>
</a>
</g>
</g>
<!-- Node1&#45;&gt;Node4 -->
<g id="edge3_Node000001_Node000004" class="edge">
<title>Node1&#45;&gt;Node4</title>
<g id="a_edge3_Node000001_Node000004"><a xlink:title=" ">
<path fill="none" stroke="#63b8ff" d="M166.33,-78.32C183.26,-76.27 200.87,-74.15 217.12,-72.19"/>
<polygon fill="#63b8ff" stroke="#63b8ff" points="217.12,-75.71 226.63,-71.04 216.28,-68.76 217.12,-75.71"/>
</a>
</g>
</g>
<!-- Node5 -->
<g id="Node000005" class="node">
<title>Node5</title>
<g id="a_Node000005"><a xlink:href="../../d2/d3f/classml_1_1core_1_1_c_state_restore_traverser.html#a296f348a615834e66071cdd4b2802ea7" target="_top" xlink:title=" ">
<polygon fill="white" stroke="#666666" points="365.75,-30.5 202,-30.5 202,0 365.75,0 365.75,-30.5"/>
<text text-anchor="start" x="210" y="-17" font-family="Helvetica,sans-Serif" font-size="10.00">ml::core::CStateRestoreTraverser</text>
<text text-anchor="middle" x="283.88" y="-5.75" font-family="Helvetica,sans-Serif" font-size="10.00">::value</text>
</a>
</g>
</g>
<!-- Node1&#45;&gt;Node5 -->
<g id="edge4_Node000001_Node000005" class="edge">
<title>Node1&#45;&gt;Node5</title>
<g id="a_edge4_Node000001_Node000005"><a xlink:title=" ">
<path fill="none" stroke="#63b8ff" d="M133.58,-66.97C154.54,-58.26 179.3,-48.36 202,-40.25 207.62,-38.24 213.5,-36.24 219.4,-34.3"/>
<polygon fill="#63b8ff" stroke="#63b8ff" points="220.14,-37.74 228.58,-31.33 217.98,-31.08 220.14,-37.74"/>
</a>
</g>
</g>
</g>
</svg>
</svg>

<style type='text/css'>
<![CDATA[
[data-mouse-over-selected='false'] { opacity: 0.7; }
[data-mouse-over-selected='true']  { opacity: 1.0; }
]]>
</style>
<script type="application/ecmascript"><![CDATA[
document.addEventListener('DOMContentLoaded', (event) => {
  highlightEdges();
  highlightAdjacentNodes();
});
]]></script>
</svg>
