<?xml version="1.0" encoding="UTF-8" standalone="no"?>
<!DOCTYPE svg PUBLIC "-//W3C//DTD SVG 1.1//EN"
 "http://www.w3.org/Graphics/SVG/1.1/DTD/svg11.dtd">
<!-- Generated by graphviz version 10.0.1 (20240210.2158)
 -->
<!-- Title: ml::model::CBucketGatherer::removeAttributes Pages: 1 -->
<!--zoomable 125 -->

<svg id="main" version="1.1" xmlns="http://www.w3.org/2000/svg" xmlns:xlink="http://www.w3.org/1999/xlink" xml:space="preserve" onload="init(evt)">
<style type="text/css"><![CDATA[
.node, .edge {opacity: 0.7;}
.node.selected, .edge.selected {opacity: 1;}
.edge:hover path { stroke: red; }
.edge:hover polygon { stroke: red; fill: red; }
]]></style>

<defs>
  <circle id="rim" cx="0" cy="0" r="7"/>
  <circle id="rim2" cx="0" cy="0" r="3.5"/>
  <g id="zoomPlus">
    <use xlink:href="#rim" fill="#404040"><set attributeName="fill" to="#808080" begin="zoomplus.mouseover" end="zoomplus.mouseout"/></use>
    <path d="M-4,0h8M0,-4v8" fill="none" stroke="white" stroke-width="1.5" pointer-events="none"/>
  </g>
  <g id="zoomMin">
    <use xlink:href="#rim" fill="#404040"><set attributeName="fill" to="#808080" begin="zoomminus.mouseover" end="zoomminus.mouseout"/></use>
    <path d="M-4,0h8" fill="none" stroke="white" stroke-width="1.5" pointer-events="none"/>
  </g>
  <g id="arrowUp" transform="translate(30 24)">
    <use xlink:href="#rim"/>
    <path pointer-events="none" fill="none" stroke="white" stroke-width="1.5" d="M0,-3.0v7 M-2.5,-0.5L0,-3.0L2.5,-0.5"/>
  </g>
  <g id="arrowRight" transform="rotate(90) translate(36 -43)">
    <use xlink:href="#rim"/>
    <path pointer-events="none" fill="none" stroke="white" stroke-width="1.5" d="M0,-3.0v7 M-2.5,-0.5L0,-3.0L2.5,-0.5"/>
  </g>
  <g id="arrowDown" transform="rotate(180) translate(-30 -48)">
    <use xlink:href="#rim"/>
    <path pointer-events="none" fill="none" stroke="white" stroke-width="1.5" d="M0,-3.0v7 M-2.5,-0.5L0,-3.0L2.5,-0.5"/>
  </g>
  <g id="arrowLeft" transform="rotate(270) translate(-36 17)">
    <use xlink:href="#rim"/>
    <path pointer-events="none" fill="none" stroke="white" stroke-width="1.5" d="M0,-3.0v7 M-2.5,-0.5L0,-3.0L2.5,-0.5"/>
  </g>
  <g id="resetDef">
    <use xlink:href="#rim2" fill="#404040"><set attributeName="fill" to="#808080" begin="reset.mouseover" end="reset.mouseout"/></use>
  </g>
</defs>
<script type="application/ecmascript">
var viewWidth = 514;
var viewHeight = 125;
var sectionId = 'dynsection-44';
</script>
<script type="application/ecmascript" xlink:href="../../svg.min.js"/>
<svg id="graph" class="graph">
<g id="viewport">
<title>ml::model::CBucketGatherer::removeAttributes</title>
<!-- Node1 -->
<g id="Node000001" class="node">
<title>Node1</title>
<g id="a_Node000001"><a xlink:title=" ">
<polygon fill="#999999" stroke="#666666" points="140.5,-91.88 0,-91.88 0,-61.38 140.5,-61.38 140.5,-91.88"/>
<text text-anchor="start" x="8" y="-78.38" font-family="Helvetica,sans-Serif" font-size="10.00">ml::model::CBucketGatherer</text>
<text text-anchor="middle" x="70.25" y="-67.12" font-family="Helvetica,sans-Serif" font-size="10.00">::removeAttributes</text>
</a>
</g>
</g>
<!-- Node2 -->
<g id="Node000002" class="node">
<title>Node2</title>
<g id="a_Node000002"><a xlink:href="../../d0/d91/classml_1_1model_1_1_c_data_gatherer.html#a297aa68a600b7bf3938bdf0c062572c9" target="_top" xlink:title=" ">
<polygon fill="white" stroke="#666666" points="312.12,-116.88 181.38,-116.88 181.38,-86.38 312.12,-86.38 312.12,-116.88"/>
<text text-anchor="start" x="189.38" y="-103.38" font-family="Helvetica,sans-Serif" font-size="10.00">ml::model::CDataGatherer</text>
<text text-anchor="middle" x="246.75" y="-92.12" font-family="Helvetica,sans-Serif" font-size="10.00">::numberAttributes</text>
</a>
</g>
</g>
<!-- Node1&#45;&gt;Node2 -->
<g id="edge1_Node000001_Node000002" class="edge">
<title>Node1&#45;&gt;Node2</title>
<g id="a_edge1_Node000001_Node000002"><a xlink:title=" ">
<path fill="none" stroke="#63b8ff" d="M140.97,-86.61C150.45,-87.97 160.23,-89.37 169.81,-90.75"/>
<polygon fill="#63b8ff" stroke="#63b8ff" points="169.06,-94.17 179.46,-92.13 170.05,-87.24 169.06,-94.17"/>
</a>
</g>
</g>
<!-- Node4 -->
<g id="Node000004" class="node">
<title>Node4</title>
<g id="a_Node000004"><a xlink:href="../../d4/d01/classml_1_1model_1_1_c_bucket_gatherer.html#ab27631f14f5ae505aeb401f3d56f57a9" target="_top" xlink:title=" ">
<polygon fill="white" stroke="#666666" points="317,-67.88 176.5,-67.88 176.5,-37.38 317,-37.38 317,-67.88"/>
<text text-anchor="start" x="184.5" y="-54.38" font-family="Helvetica,sans-Serif" font-size="10.00">ml::model::CBucketGatherer</text>
<text text-anchor="middle" x="246.75" y="-43.12" font-family="Helvetica,sans-Serif" font-size="10.00">::remove</text>
</a>
</g>
</g>
<!-- Node1&#45;&gt;Node4 -->
<g id="edge3_Node000001_Node000004" class="edge">
<title>Node1&#45;&gt;Node4</title>
<g id="a_edge3_Node000001_Node000004"><a xlink:title=" ">
<path fill="none" stroke="#63b8ff" d="M140.97,-67.04C148.84,-65.95 156.91,-64.84 164.91,-63.74"/>
<polygon fill="#63b8ff" stroke="#63b8ff" points="165.21,-67.23 174.64,-62.4 164.26,-60.3 165.21,-67.23"/>
</a>
</g>
</g>
<!-- Node3 -->
<g id="Node000003" class="node">
<title>Node3</title>
<g id="a_Node000003"><a xlink:href="../../d3/d3b/classml_1_1model_1_1_c_dynamic_string_id_registry.html#a48738901bb6e09e5ec631806d8e6215c" target="_top" xlink:title=" ">
<polygon fill="white" stroke="#666666" points="498,-116.88 361.25,-116.88 361.25,-86.38 498,-86.38 498,-116.88"/>
<text text-anchor="start" x="369.25" y="-103.38" font-family="Helvetica,sans-Serif" font-size="10.00">ml::model::CDynamicString</text>
<text text-anchor="middle" x="429.62" y="-92.12" font-family="Helvetica,sans-Serif" font-size="10.00">IdRegistry::numberNames</text>
</a>
</g>
</g>
<!-- Node2&#45;&gt;Node3 -->
<g id="edge2_Node000002_Node000003" class="edge">
<title>Node2&#45;&gt;Node3</title>
<g id="a_edge2_Node000002_Node000003"><a xlink:title=" ">
<path fill="none" stroke="#63b8ff" d="M312.54,-101.62C324.57,-101.62 337.26,-101.62 349.66,-101.62"/>
<polygon fill="#63b8ff" stroke="#63b8ff" points="349.42,-105.13 359.42,-101.63 349.42,-98.13 349.42,-105.13"/>
</a>
</g>
</g>
<!-- Node5 -->
<g id="Node000005" class="node">
<title>Node5</title>
<g id="a_Node000005"><a xlink:href="../../d0/de2/classml_1_1model_1_1_c_bucket_queue.html#aaac5e7883124c0e9e52148da200bf513" target="_top" xlink:title=" ">
<polygon fill="white" stroke="#666666" points="495.38,-67.88 363.88,-67.88 363.88,-37.38 495.38,-37.38 495.38,-67.88"/>
<text text-anchor="start" x="371.88" y="-54.38" font-family="Helvetica,sans-Serif" font-size="10.00">ml::model::CBucketQueue</text>
<text text-anchor="middle" x="429.62" y="-43.12" font-family="Helvetica,sans-Serif" font-size="10.00">::begin</text>
</a>
</g>
</g>
<!-- Node4&#45;&gt;Node5 -->
<g id="edge4_Node000004_Node000005" class="edge">
<title>Node4&#45;&gt;Node5</title>
<g id="a_edge4_Node000004_Node000005"><a xlink:title=" ">
<path fill="none" stroke="#63b8ff" d="M317.42,-52.62C328.77,-52.62 340.57,-52.62 352.07,-52.62"/>
<polygon fill="#63b8ff" stroke="#63b8ff" points="351.93,-56.13 361.93,-52.63 351.93,-49.13 351.93,-56.13"/>
</a>
</g>
</g>
<!-- Node6 -->
<g id="Node000006" class="node">
<title>Node6</title>
<g id="a_Node000006"><a xlink:href="../../d0/de2/classml_1_1model_1_1_c_bucket_queue.html#a9ec72fa26aac807ff6f7f2df6a6aea47" target="_top" xlink:title="Returns an iterator pointing to the end of the queue.">
<polygon fill="white" stroke="#666666" points="506.25,-19.25 353,-19.25 353,0 506.25,0 506.25,-19.25"/>
<text text-anchor="middle" x="429.62" y="-5.75" font-family="Helvetica,sans-Serif" font-size="10.00">ml::model::CBucketQueue::end</text>
</a>
</g>
</g>
<!-- Node4&#45;&gt;Node6 -->
<g id="edge5_Node000004_Node000006" class="edge">
<title>Node4&#45;&gt;Node6</title>
<g id="a_edge5_Node000004_Node000006"><a xlink:title=" ">
<path fill="none" stroke="#63b8ff" d="M313.82,-36.92C333.98,-32.13 355.89,-26.92 375.11,-22.35"/>
<polygon fill="#63b8ff" stroke="#63b8ff" points="375.69,-25.81 384.61,-20.09 374.07,-19 375.69,-25.81"/>
</a>
</g>
</g>
</g>
</svg>

<g id="navigator" transform="translate(0 0)" fill="#404254">
  <rect fill="#f2f5e9" fill-opacity="0.5" stroke="#606060" stroke-width=".5" x="0" y="0" width="60" height="60"/>
  <use id="zoomplus" xlink:href="#zoomPlus" x="17" y="9" onmousedown="handleZoom(evt,'in')"/>
  <use id="zoomminus" xlink:href="#zoomMin" x="42" y="9" onmousedown="handleZoom(evt,'out')"/>
  <use id="reset" xlink:href="#resetDef" x="30" y="36" onmousedown="handleReset()"/>
   <use id="arrowup" xlink:href="#arrowUp" x="0" y="0" onmousedown="handlePan(0,-1)"/>
  <use id="arrowright" xlink:href="#arrowRight" x="0" y="0" onmousedown="handlePan(1,0)"/>
  <use id="arrowdown" xlink:href="#arrowDown" x="0" y="0" onmousedown="handlePan(0,1)"/>
  <use id="arrowleft" xlink:href="#arrowLeft" x="0" y="0" onmousedown="handlePan(-1,0)"/>
</g>
<svg viewBox="0 0 15 15" width="100%" height="30px" preserveAspectRatio="xMaxYMin meet">
 <g id="arrow_out" transform="scale(0.3 0.3)">
  <a xlink:href="classml_1_1model_1_1_c_bucket_gatherer_acc7098738f4418a4ca6f9b4cce71e3bd_cgraph_org.svg" target="_base">
   <rect id="button" ry="5" rx="5" y="6" x="6" height="38" width="38"
        fill="#f2f5e9" fill-opacity="0.5" stroke="#606060" stroke-width="1.0"/>
   <path id="arrow"
     d="M 11.500037,31.436501 C 11.940474,20.09759 22.043105,11.32322 32.158766,21.979434 L 37.068811,17.246167 C 37.068811,17.246167 37.088388,32 37.088388,32 L 22.160133,31.978069 C 22.160133,31.978069 26.997745,27.140456 26.997745,27.140456 C 18.528582,18.264221 13.291696,25.230495 11.500037,31.436501 z"
     style="fill:#404040;"/>
  </a>
 </g>
</svg>

<style type='text/css'>
<![CDATA[
[data-mouse-over-selected='false'] { opacity: 0.7; }
[data-mouse-over-selected='true']  { opacity: 1.0; }
]]>
</style>
<script type="application/ecmascript"><![CDATA[
document.addEventListener('DOMContentLoaded', (event) => {
  highlightEdges();
  highlightAdjacentNodes();
});
]]></script>
</svg>
