<?xml version="1.0" encoding="UTF-8" standalone="no"?>
<!DOCTYPE svg PUBLIC "-//W3C//DTD SVG 1.1//EN"
 "http://www.w3.org/Graphics/SVG/1.1/DTD/svg11.dtd">
<!-- Generated by graphviz version 10.0.1 (20240210.2158)
 -->
<!-- Title: ml::model::CBucketGatherer::earliestBucketStartTime Pages: 1 -->
<svg width="492pt" height="125pt"
 viewBox="0.00 0.00 491.75 124.50" xmlns="http://www.w3.org/2000/svg" xmlns:xlink="http://www.w3.org/1999/xlink">
<g id="graph0" class="graph" transform="scale(1 1) rotate(0) translate(4 120.5)">
<title>ml::model::CBucketGatherer::earliestBucketStartTime</title>
<!-- Node1 -->
<g id="Node000001" class="node">
<title>Node1</title>
<g id="a_Node000001"><a xlink:title="The earliest time for which data can still arrive.">
<polygon fill="#999999" stroke="#666666" points="140.5,-73.5 0,-73.5 0,-43 140.5,-43 140.5,-73.5"/>
<text text-anchor="start" x="8" y="-60" font-family="Helvetica,sans-Serif" font-size="10.00">ml::model::CBucketGatherer</text>
<text text-anchor="middle" x="70.25" y="-48.75" font-family="Helvetica,sans-Serif" font-size="10.00">::earliestBucketStartTime</text>
</a>
</g>
</g>
<!-- Node2 -->
<g id="Node000002" class="node">
<title>Node2</title>
<g id="a_Node000002"><a xlink:href="../../d4/d01/classml_1_1model_1_1_c_bucket_gatherer.html#abdb61d2ba82e5d05fa4133ef95d1521d" target="_top" xlink:title="Get the length of the bucketing time interval.">
<polygon fill="white" stroke="#666666" points="317,-116.5 176.5,-116.5 176.5,-86 317,-86 317,-116.5"/>
<text text-anchor="start" x="184.5" y="-103" font-family="Helvetica,sans-Serif" font-size="10.00">ml::model::CBucketGatherer</text>
<text text-anchor="middle" x="246.75" y="-91.75" font-family="Helvetica,sans-Serif" font-size="10.00">::bucketLength</text>
</a>
</g>
</g>
<!-- Node1&#45;&gt;Node2 -->
<g id="edge1_Node000001_Node000002" class="edge">
<title>Node1&#45;&gt;Node2</title>
<g id="a_edge1_Node000001_Node000002"><a xlink:title=" ">
<path fill="none" stroke="#63b8ff" d="M134.74,-73.9C146.53,-76.8 158.95,-79.86 171.03,-82.84"/>
<polygon fill="#63b8ff" stroke="#63b8ff" points="170,-86.19 180.54,-85.18 171.67,-79.39 170,-86.19"/>
</a>
</g>
</g>
<!-- Node3 -->
<g id="Node000003" class="node">
<title>Node3</title>
<g id="a_Node000003"><a xlink:href="../../d0/d91/classml_1_1model_1_1_c_data_gatherer.html#a21b1d9e3d2afadf78e163e835d969d26" target="_top" xlink:title="Get the global configuration parameters.">
<polygon fill="white" stroke="#666666" points="483.75,-94.5 353,-94.5 353,-64 483.75,-64 483.75,-94.5"/>
<text text-anchor="start" x="361" y="-81" font-family="Helvetica,sans-Serif" font-size="10.00">ml::model::CDataGatherer</text>
<text text-anchor="middle" x="418.38" y="-69.75" font-family="Helvetica,sans-Serif" font-size="10.00">::params</text>
</a>
</g>
</g>
<!-- Node1&#45;&gt;Node3 -->
<g id="edge4_Node000001_Node000003" class="edge">
<title>Node1&#45;&gt;Node3</title>
<g id="a_edge4_Node000001_Node000003"><a xlink:title=" ">
<path fill="none" stroke="#63b8ff" d="M140.88,-62.47C198.93,-66 281.5,-71.01 341.28,-74.63"/>
<polygon fill="#63b8ff" stroke="#63b8ff" points="340.83,-78.11 351.03,-75.22 341.26,-71.13 340.83,-78.11"/>
</a>
</g>
</g>
<!-- Node4 -->
<g id="Node000004" class="node">
<title>Node4</title>
<g id="a_Node000004"><a xlink:href="../../d4/d01/classml_1_1model_1_1_c_bucket_gatherer.html#a8e7d4c860df9ac287703bc9d3260549c" target="_top" xlink:title="Get the start of the current bucketing time interval.">
<polygon fill="white" stroke="#666666" points="317,-30.5 176.5,-30.5 176.5,0 317,0 317,-30.5"/>
<text text-anchor="start" x="184.5" y="-17" font-family="Helvetica,sans-Serif" font-size="10.00">ml::model::CBucketGatherer</text>
<text text-anchor="middle" x="246.75" y="-5.75" font-family="Helvetica,sans-Serif" font-size="10.00">::currentBucketStartTime</text>
</a>
</g>
</g>
<!-- Node1&#45;&gt;Node4 -->
<g id="edge3_Node000001_Node000004" class="edge">
<title>Node1&#45;&gt;Node4</title>
<g id="a_edge3_Node000001_Node000004"><a xlink:title=" ">
<path fill="none" stroke="#63b8ff" d="M134.74,-42.6C146.53,-39.7 158.95,-36.64 171.03,-33.66"/>
<polygon fill="#63b8ff" stroke="#63b8ff" points="171.67,-37.11 180.54,-31.32 170,-30.31 171.67,-37.11"/>
</a>
</g>
</g>
<!-- Node2&#45;&gt;Node3 -->
<g id="edge2_Node000002_Node000003" class="edge">
<title>Node2&#45;&gt;Node3</title>
<g id="a_edge2_Node000002_Node000003"><a xlink:title=" ">
<path fill="none" stroke="#63b8ff" d="M317.23,-92.24C325.19,-91.21 333.34,-90.15 341.38,-89.11"/>
<polygon fill="#63b8ff" stroke="#63b8ff" points="341.67,-92.6 351.14,-87.84 340.77,-85.66 341.67,-92.6"/>
</a>
</g>
</g>
</g>
</svg>
