<?xml version="1.0" encoding="UTF-8" standalone="no"?>
<!DOCTYPE svg PUBLIC "-//W3C//DTD SVG 1.1//EN"
 "http://www.w3.org/Graphics/SVG/1.1/DTD/svg11.dtd">
<!-- Generated by graphviz version 10.0.1 (20240210.2158)
 -->
<!-- Title: include/core/CBase64Filter.h Pages: 1 -->
<svg width="2425pt" height="404pt"
 viewBox="0.00 0.00 2425.12 403.75" xmlns="http://www.w3.org/2000/svg" xmlns:xlink="http://www.w3.org/1999/xlink">
<g id="graph0" class="graph" transform="scale(1 1) rotate(0) translate(4 399.75)">
<title>include/core/CBase64Filter.h</title>
<!-- Node1 -->
<g id="Node000001" class="node">
<title>Node1</title>
<g id="a_Node000001"><a xlink:title=" ">
<polygon fill="#999999" stroke="#666666" points="1821.62,-395.75 1680.38,-395.75 1680.38,-376.5 1821.62,-376.5 1821.62,-395.75"/>
<text text-anchor="middle" x="1751" y="-382.25" font-family="Helvetica,sans-Serif" font-size="10.00">include/core/CBase64Filter.h</text>
</a>
</g>
</g>
<!-- Node2 -->
<g id="Node000002" class="node">
<title>Node2</title>
<g id="a_Node000002"><a xlink:href="../../d2/d53/_c_logger_8h.html" target="_top" xlink:title=" ">
<polygon fill="white" stroke="#666666" points="533,-334.88 451,-334.88 451,-315.62 533,-315.62 533,-334.88"/>
<text text-anchor="middle" x="492" y="-321.38" font-family="Helvetica,sans-Serif" font-size="10.00">core/CLogger.h</text>
</a>
</g>
</g>
<!-- Node1&#45;&gt;Node2 -->
<g id="edge1_Node000001_Node000002" class="edge">
<title>Node1&#45;&gt;Node2</title>
<g id="a_edge1_Node000001_Node000002"><a xlink:title=" ">
<path fill="none" stroke="#63b8ff" d="M1680.16,-381.81C1452.69,-371.18 744.05,-338.04 544.67,-328.71"/>
<polygon fill="#63b8ff" stroke="#63b8ff" points="545.03,-325.23 534.88,-328.26 544.71,-332.22 545.03,-325.23"/>
</a>
</g>
</g>
<!-- Node4 -->
<g id="Node000004" class="node">
<title>Node4</title>
<g id="a_Node000004"><a xlink:href="../../dd/d0e/core_2_import_export_8h.html" target="_top" xlink:title=" ">
<polygon fill="white" stroke="#666666" points="1116.12,-19.25 1013.88,-19.25 1013.88,0 1116.12,0 1116.12,-19.25"/>
<text text-anchor="middle" x="1065" y="-5.75" font-family="Helvetica,sans-Serif" font-size="10.00">core/ImportExport.h</text>
</a>
</g>
</g>
<!-- Node1&#45;&gt;Node4 -->
<g id="edge51_Node000001_Node000004" class="edge">
<title>Node1&#45;&gt;Node4</title>
<g id="a_edge51_Node000001_Node000004"><a xlink:title=" ">
<path fill="none" stroke="#63b8ff" d="M1680.13,-381.76C1570.2,-375.89 1368.62,-362.29 1344,-340.5 1316.39,-316.07 1325,-296.62 1325,-259.75 1325,-259.75 1325,-259.75 1325,-191.25 1325,-91.85 1195.24,-42.74 1119.05,-22.48"/>
<polygon fill="#63b8ff" stroke="#63b8ff" points="1120.25,-19.18 1109.69,-20.08 1118.51,-25.96 1120.25,-19.18"/>
</a>
</g>
</g>
<!-- Node13 -->
<g id="Node000013" class="node">
<title>Node13</title>
<g id="a_Node000013"><a xlink:title=" ">
<polygon fill="#e0e0e0" stroke="#999999" points="322,-74.5 282,-74.5 282,-55.25 322,-55.25 322,-74.5"/>
<text text-anchor="middle" x="302" y="-61" font-family="Helvetica,sans-Serif" font-size="10.00">string</text>
</a>
</g>
</g>
<!-- Node1&#45;&gt;Node13 -->
<g id="edge59_Node000001_Node000013" class="edge">
<title>Node1&#45;&gt;Node13</title>
<g id="a_edge59_Node000001_Node000013"><a xlink:title=" ">
<path fill="none" stroke="#63b8ff" d="M1680.13,-384.18C1443.97,-380.78 685.04,-367.96 442,-340.5 260.05,-319.94 38,-442.86 38,-259.75 38,-259.75 38,-259.75 38,-191.25 38,-89.33 200.55,-70.16 270.55,-66.63"/>
<polygon fill="#63b8ff" stroke="#63b8ff" points="270.37,-70.14 280.21,-66.23 270.07,-63.15 270.37,-70.14"/>
</a>
</g>
</g>
<!-- Node33 -->
<g id="Node000033" class="node">
<title>Node33</title>
<g id="a_Node000033"><a xlink:title=" ">
<polygon fill="#e0e0e0" stroke="#999999" points="1500.62,-334.88 1353.38,-334.88 1353.38,-315.62 1500.62,-315.62 1500.62,-334.88"/>
<text text-anchor="middle" x="1427" y="-321.38" font-family="Helvetica,sans-Serif" font-size="10.00">boost/iostreams/concepts.hpp</text>
</a>
</g>
</g>
<!-- Node1&#45;&gt;Node33 -->
<g id="edge52_Node000001_Node000033" class="edge">
<title>Node1&#45;&gt;Node33</title>
<g id="a_edge52_Node000001_Node000033"><a xlink:title=" ">
<path fill="none" stroke="#63b8ff" d="M1701.09,-376.05C1643.77,-365.64 1549.73,-348.55 1488.09,-337.35"/>
<polygon fill="#63b8ff" stroke="#63b8ff" points="1488.93,-333.95 1478.46,-335.6 1487.67,-340.83 1488.93,-333.95"/>
</a>
</g>
</g>
<!-- Node34 -->
<g id="Node000034" class="node">
<title>Node34</title>
<g id="a_Node000034"><a xlink:title=" ">
<polygon fill="#e0e0e0" stroke="#999999" points="1671.25,-334.88 1518.75,-334.88 1518.75,-315.62 1671.25,-315.62 1671.25,-334.88"/>
<text text-anchor="middle" x="1595" y="-321.38" font-family="Helvetica,sans-Serif" font-size="10.00">boost/iostreams/operations.hpp</text>
</a>
</g>
</g>
<!-- Node1&#45;&gt;Node34 -->
<g id="edge53_Node000001_Node000034" class="edge">
<title>Node1&#45;&gt;Node34</title>
<g id="a_edge53_Node000001_Node000034"><a xlink:title=" ">
<path fill="none" stroke="#63b8ff" d="M1726.97,-376.05C1700.97,-366.24 1659.29,-350.51 1629.74,-339.36"/>
<polygon fill="#63b8ff" stroke="#63b8ff" points="1631.07,-336.12 1620.48,-335.86 1628.6,-342.67 1631.07,-336.12"/>
</a>
</g>
</g>
<!-- Node35 -->
<g id="Node000035" class="node">
<title>Node35</title>
<g id="a_Node000035"><a xlink:title=" ">
<polygon fill="#e0e0e0" stroke="#999999" points="1813,-340.5 1689,-340.5 1689,-310 1813,-310 1813,-340.5"/>
<text text-anchor="start" x="1697" y="-327" font-family="Helvetica,sans-Serif" font-size="10.00">boost/archive/iterators</text>
<text text-anchor="middle" x="1751" y="-315.75" font-family="Helvetica,sans-Serif" font-size="10.00">/base64_from_binary.hpp</text>
</a>
</g>
</g>
<!-- Node1&#45;&gt;Node35 -->
<g id="edge54_Node000001_Node000035" class="edge">
<title>Node1&#45;&gt;Node35</title>
<g id="a_edge54_Node000001_Node000035"><a xlink:title=" ">
<path fill="none" stroke="#63b8ff" d="M1751,-376.18C1751,-369.73 1751,-360.66 1751,-352.01"/>
<polygon fill="#63b8ff" stroke="#63b8ff" points="1754.5,-352.3 1751,-342.3 1747.5,-352.3 1754.5,-352.3"/>
</a>
</g>
</g>
<!-- Node36 -->
<g id="Node000036" class="node">
<title>Node36</title>
<g id="a_Node000036"><a xlink:title=" ">
<polygon fill="#e0e0e0" stroke="#999999" points="1956.75,-340.5 1831.25,-340.5 1831.25,-310 1956.75,-310 1956.75,-340.5"/>
<text text-anchor="start" x="1839.25" y="-327" font-family="Helvetica,sans-Serif" font-size="10.00">boost/archive/iterators</text>
<text text-anchor="middle" x="1894" y="-315.75" font-family="Helvetica,sans-Serif" font-size="10.00">/binary_from_base64.hpp</text>
</a>
</g>
</g>
<!-- Node1&#45;&gt;Node36 -->
<g id="edge55_Node000001_Node000036" class="edge">
<title>Node1&#45;&gt;Node36</title>
<g id="a_edge55_Node000001_Node000036"><a xlink:title=" ">
<path fill="none" stroke="#63b8ff" d="M1773.03,-376.05C1792.91,-367.87 1822.8,-355.56 1847.89,-345.23"/>
<polygon fill="#63b8ff" stroke="#63b8ff" points="1848.99,-348.56 1856.91,-341.52 1846.33,-342.09 1848.99,-348.56"/>
</a>
</g>
</g>
<!-- Node37 -->
<g id="Node000037" class="node">
<title>Node37</title>
<g id="a_Node000037"><a xlink:title=" ">
<polygon fill="#e0e0e0" stroke="#999999" points="2087.38,-340.5 1974.62,-340.5 1974.62,-310 2087.38,-310 2087.38,-340.5"/>
<text text-anchor="start" x="1982.62" y="-327" font-family="Helvetica,sans-Serif" font-size="10.00">boost/archive/iterators</text>
<text text-anchor="middle" x="2031" y="-315.75" font-family="Helvetica,sans-Serif" font-size="10.00">/transform_width.hpp</text>
</a>
</g>
</g>
<!-- Node1&#45;&gt;Node37 -->
<g id="edge56_Node000001_Node000037" class="edge">
<title>Node1&#45;&gt;Node37</title>
<g id="a_edge56_Node000001_Node000037"><a xlink:title=" ">
<path fill="none" stroke="#63b8ff" d="M1795.5,-376.04C1836.62,-367.61 1899.72,-354.59 1963.26,-341.07"/>
<polygon fill="#63b8ff" stroke="#63b8ff" points="1963.76,-344.55 1972.81,-339.04 1962.3,-337.7 1963.76,-344.55"/>
</a>
</g>
</g>
<!-- Node38 -->
<g id="Node000038" class="node">
<title>Node38</title>
<g id="a_Node000038"><a xlink:title=" ">
<polygon fill="#e0e0e0" stroke="#999999" points="2228.25,-334.88 2105.75,-334.88 2105.75,-315.62 2228.25,-315.62 2228.25,-334.88"/>
<text text-anchor="middle" x="2167" y="-321.38" font-family="Helvetica,sans-Serif" font-size="10.00">boost/circular_buffer.hpp</text>
</a>
</g>
</g>
<!-- Node1&#45;&gt;Node38 -->
<g id="edge57_Node000001_Node000038" class="edge">
<title>Node1&#45;&gt;Node38</title>
<g id="a_edge57_Node000001_Node000038"><a xlink:title=" ">
<path fill="none" stroke="#63b8ff" d="M1821.91,-377.41C1891.8,-369.46 2001.55,-356.07 2096,-340.5 2101.59,-339.58 2107.42,-338.54 2113.22,-337.45"/>
<polygon fill="#63b8ff" stroke="#63b8ff" points="2113.64,-340.94 2122.8,-335.61 2112.32,-334.06 2113.64,-340.94"/>
</a>
</g>
</g>
<!-- Node39 -->
<g id="Node000039" class="node">
<title>Node39</title>
<g id="a_Node000039"><a xlink:title=" ">
<polygon fill="#e0e0e0" stroke="#999999" points="2351.25,-340.5 2246.75,-340.5 2246.75,-310 2351.25,-310 2351.25,-340.5"/>
<text text-anchor="start" x="2254.75" y="-327" font-family="Helvetica,sans-Serif" font-size="10.00">boost/circular_buffer</text>
<text text-anchor="middle" x="2299" y="-315.75" font-family="Helvetica,sans-Serif" font-size="10.00">/base.hpp</text>
</a>
</g>
</g>
<!-- Node1&#45;&gt;Node39 -->
<g id="edge58_Node000001_Node000039" class="edge">
<title>Node1&#45;&gt;Node39</title>
<g id="a_edge58_Node000001_Node000039"><a xlink:title=" ">
<path fill="none" stroke="#63b8ff" d="M1821.79,-381.61C1914.52,-376.35 2082.28,-364.54 2235.34,-340.61"/>
<polygon fill="#63b8ff" stroke="#63b8ff" points="2235.51,-344.12 2244.83,-339.1 2234.41,-337.21 2235.51,-344.12"/>
</a>
</g>
</g>
<!-- Node40 -->
<g id="Node000040" class="node">
<title>Node40</title>
<g id="a_Node000040"><a xlink:title=" ">
<polygon fill="#e0e0e0" stroke="#999999" points="2417.12,-334.88 2368.88,-334.88 2368.88,-315.62 2417.12,-315.62 2417.12,-334.88"/>
<text text-anchor="middle" x="2393" y="-321.38" font-family="Helvetica,sans-Serif" font-size="10.00">stdint.h</text>
</a>
</g>
</g>
<!-- Node1&#45;&gt;Node40 -->
<g id="edge60_Node000001_Node000040" class="edge">
<title>Node1&#45;&gt;Node40</title>
<g id="a_edge60_Node000001_Node000040"><a xlink:title=" ">
<path fill="none" stroke="#63b8ff" d="M1821.95,-382.9C1959.96,-378.07 2259.8,-365.06 2360,-340.5 2361.4,-340.16 2362.81,-339.76 2364.23,-339.32"/>
<polygon fill="#63b8ff" stroke="#63b8ff" points="2365.31,-342.66 2373.46,-335.89 2362.87,-336.1 2365.31,-342.66"/>
</a>
</g>
</g>
<!-- Node3 -->
<g id="Node000003" class="node">
<title>Node3</title>
<g id="a_Node000003"><a xlink:href="../../d3/db8/_c_logger_throttler_8h.html" target="_top" xlink:title=" ">
<polygon fill="white" stroke="#666666" points="1543,-74.5 1425,-74.5 1425,-55.25 1543,-55.25 1543,-74.5"/>
<text text-anchor="middle" x="1484" y="-61" font-family="Helvetica,sans-Serif" font-size="10.00">core/CLoggerThrottler.h</text>
</a>
</g>
</g>
<!-- Node2&#45;&gt;Node3 -->
<g id="edge2_Node000002_Node000003" class="edge">
<title>Node2&#45;&gt;Node3</title>
<g id="a_edge2_Node000002_Node000003"><a xlink:title=" ">
<path fill="none" stroke="#63b8ff" d="M533.25,-323.23C684.11,-319.3 1200.61,-303.75 1268,-274 1292.95,-262.98 1421.72,-130.62 1467.68,-82.89"/>
<polygon fill="#63b8ff" stroke="#63b8ff" points="1470.03,-85.5 1474.43,-75.87 1464.98,-80.65 1470.03,-85.5"/>
</a>
</g>
</g>
<!-- Node2&#45;&gt;Node4 -->
<g id="edge18_Node000002_Node000004" class="edge">
<title>Node2&#45;&gt;Node4</title>
<g id="a_edge18_Node000002_Node000004"><a xlink:title=" ">
<path fill="none" stroke="#63b8ff" d="M450.81,-321.89C363.11,-316.41 160.82,-301.16 98,-274 46.2,-251.61 0,-249.69 0,-193.25 0,-193.25 0,-193.25 0,-124.75 0,-23.31 773.75,-11.88 1002.22,-10.72"/>
<polygon fill="#63b8ff" stroke="#63b8ff" points="1002.14,-14.22 1012.12,-10.68 1002.1,-7.22 1002.14,-14.22"/>
</a>
</g>
</g>
<!-- Node7 -->
<g id="Node000007" class="node">
<title>Node7</title>
<g id="a_Node000007"><a xlink:href="../../d7/d88/_c_named_pipe_factory_8h.html" target="_top" xlink:title=" ">
<polygon fill="white" stroke="#666666" points="417,-268.38 281,-268.38 281,-249.12 417,-249.12 417,-268.38"/>
<text text-anchor="middle" x="349" y="-254.88" font-family="Helvetica,sans-Serif" font-size="10.00">core/CNamedPipeFactory.h</text>
</a>
</g>
</g>
<!-- Node2&#45;&gt;Node7 -->
<g id="edge6_Node000002_Node000007" class="edge">
<title>Node2&#45;&gt;Node7</title>
<g id="a_edge6_Node000002_Node000007"><a xlink:title=" ">
<path fill="none" stroke="#63b8ff" d="M471.81,-315.15C447.75,-304.29 407.31,-286.05 379.45,-273.48"/>
<polygon fill="#63b8ff" stroke="#63b8ff" points="381.02,-270.35 370.46,-269.43 378.14,-276.73 381.02,-270.35"/>
</a>
</g>
</g>
<!-- Node10 -->
<g id="Node000010" class="node">
<title>Node10</title>
<g id="a_Node000010"><a xlink:title=" ">
<polygon fill="#e0e0e0" stroke="#999999" points="451.62,-201.88 406.38,-201.88 406.38,-182.62 451.62,-182.62 451.62,-201.88"/>
<text text-anchor="middle" x="429" y="-188.38" font-family="Helvetica,sans-Serif" font-size="10.00">atomic</text>
</a>
</g>
</g>
<!-- Node2&#45;&gt;Node10 -->
<g id="edge47_Node000002_Node000010" class="edge">
<title>Node2&#45;&gt;Node10</title>
<g id="a_edge47_Node000002_Node000010"><a xlink:title=" ">
<path fill="none" stroke="#63b8ff" d="M487.67,-315.25C477.51,-294.12 451.96,-240.99 438.17,-212.31"/>
<polygon fill="#63b8ff" stroke="#63b8ff" points="441.5,-211.18 434.02,-203.68 435.2,-214.21 441.5,-211.18"/>
</a>
</g>
</g>
<!-- Node11 -->
<g id="Node000011" class="node">
<title>Node11</title>
<g id="a_Node000011"><a xlink:title=" ">
<polygon fill="#e0e0e0" stroke="#999999" points="514.25,-201.88 469.75,-201.88 469.75,-182.62 514.25,-182.62 514.25,-201.88"/>
<text text-anchor="middle" x="492" y="-188.38" font-family="Helvetica,sans-Serif" font-size="10.00">iosfwd</text>
</a>
</g>
</g>
<!-- Node2&#45;&gt;Node11 -->
<g id="edge49_Node000002_Node000011" class="edge">
<title>Node2&#45;&gt;Node11</title>
<g id="a_edge49_Node000002_Node000011"><a xlink:title=" ">
<path fill="none" stroke="#63b8ff" d="M492,-315.25C492,-294.4 492,-242.39 492,-213.47"/>
<polygon fill="#63b8ff" stroke="#63b8ff" points="495.5,-213.83 492,-203.83 488.5,-213.83 495.5,-213.83"/>
</a>
</g>
</g>
<!-- Node14 -->
<g id="Node000014" class="node">
<title>Node14</title>
<g id="a_Node000014"><a xlink:title=" ">
<polygon fill="#e0e0e0" stroke="#999999" points="111.62,-201.88 66.38,-201.88 66.38,-182.62 111.62,-182.62 111.62,-201.88"/>
<text text-anchor="middle" x="89" y="-188.38" font-family="Helvetica,sans-Serif" font-size="10.00">stdio.h</text>
</a>
</g>
</g>
<!-- Node2&#45;&gt;Node14 -->
<g id="edge50_Node000002_Node000014" class="edge">
<title>Node2&#45;&gt;Node14</title>
<g id="a_edge50_Node000002_Node000014"><a xlink:title=" ">
<path fill="none" stroke="#63b8ff" d="M450.76,-323.6C365.73,-321.47 174.67,-312.42 124,-274 104.82,-259.45 95.99,-232.22 92.04,-213.43"/>
<polygon fill="#63b8ff" stroke="#63b8ff" points="95.51,-213 90.31,-203.77 88.62,-214.23 95.51,-213"/>
</a>
</g>
</g>
<!-- Node15 -->
<g id="Node000015" class="node">
<title>Node15</title>
<g id="a_Node000015"><a xlink:href="../../db/d30/_c_non_copyable_8h.html" target="_top" xlink:title=" ">
<polygon fill="white" stroke="#666666" points="1259.38,-268.38 1146.62,-268.38 1146.62,-249.12 1259.38,-249.12 1259.38,-268.38"/>
<text text-anchor="middle" x="1203" y="-254.88" font-family="Helvetica,sans-Serif" font-size="10.00">core/CNonCopyable.h</text>
</a>
</g>
</g>
<!-- Node2&#45;&gt;Node15 -->
<g id="edge16_Node000002_Node000015" class="edge">
<title>Node2&#45;&gt;Node15</title>
<g id="a_edge16_Node000002_Node000015"><a xlink:title=" ">
<path fill="none" stroke="#63b8ff" d="M533.44,-322.76C635.69,-318.71 908.05,-305.59 1133,-274 1139.06,-273.15 1145.39,-272.1 1151.66,-270.95"/>
<polygon fill="#63b8ff" stroke="#63b8ff" points="1152.15,-274.42 1161.31,-269.1 1150.83,-267.54 1152.15,-274.42"/>
</a>
</g>
</g>
<!-- Node16 -->
<g id="Node000016" class="node">
<title>Node16</title>
<g id="a_Node000016"><a xlink:href="../../d7/dcd/_log_macros_8h.html" target="_top" xlink:title=" ">
<polygon fill="white" stroke="#666666" points="836,-268.38 742,-268.38 742,-249.12 836,-249.12 836,-268.38"/>
<text text-anchor="middle" x="789" y="-254.88" font-family="Helvetica,sans-Serif" font-size="10.00">core/LogMacros.h</text>
</a>
</g>
</g>
<!-- Node2&#45;&gt;Node16 -->
<g id="edge19_Node000002_Node000016" class="edge">
<title>Node2&#45;&gt;Node16</title>
<g id="a_edge19_Node000002_Node000016"><a xlink:title=" ">
<path fill="none" stroke="#63b8ff" d="M533.3,-315.28C586.19,-303.79 677.95,-283.87 735.97,-271.27"/>
<polygon fill="#63b8ff" stroke="#63b8ff" points="736.59,-274.71 745.62,-269.17 735.1,-267.87 736.59,-274.71"/>
</a>
</g>
</g>
<!-- Node23 -->
<g id="Node000023" class="node">
<title>Node23</title>
<g id="a_Node000023"><a xlink:title=" ">
<polygon fill="#e0e0e0" stroke="#999999" points="1221,-135.38 1163,-135.38 1163,-116.12 1221,-116.12 1221,-135.38"/>
<text text-anchor="middle" x="1192" y="-121.88" font-family="Helvetica,sans-Serif" font-size="10.00">functional</text>
</a>
</g>
</g>
<!-- Node2&#45;&gt;Node23 -->
<g id="edge48_Node000002_Node000023" class="edge">
<title>Node2&#45;&gt;Node23</title>
<g id="a_edge48_Node000002_Node000023"><a xlink:title=" ">
<path fill="none" stroke="#63b8ff" d="M533.07,-320.07C654.97,-307.12 1012.43,-265.05 1113,-207.5 1140.58,-191.72 1164.89,-163.57 1179.02,-145.03"/>
<polygon fill="#63b8ff" stroke="#63b8ff" points="1181.77,-147.2 1184.89,-137.08 1176.14,-143.05 1181.77,-147.2"/>
</a>
</g>
</g>
<!-- Node32 -->
<g id="Node000032" class="node">
<title>Node32</title>
<g id="a_Node000032"><a xlink:title=" ">
<polygon fill="#e0e0e0" stroke="#999999" points="263.38,-274 132.62,-274 132.62,-243.5 263.38,-243.5 263.38,-274"/>
<text text-anchor="start" x="140.62" y="-260.5" font-family="Helvetica,sans-Serif" font-size="10.00">boost/log/sources/severity</text>
<text text-anchor="middle" x="198" y="-249.25" font-family="Helvetica,sans-Serif" font-size="10.00">_logger.hpp</text>
</a>
</g>
</g>
<!-- Node2&#45;&gt;Node32 -->
<g id="edge46_Node000002_Node000032" class="edge">
<title>Node2&#45;&gt;Node32</title>
<g id="a_edge46_Node000002_Node000032"><a xlink:title=" ">
<path fill="none" stroke="#63b8ff" d="M450.5,-315.15C404.94,-305.15 330.82,-288.89 274.64,-276.56"/>
<polygon fill="#63b8ff" stroke="#63b8ff" points="275.65,-273.2 265.13,-274.48 274.15,-280.04 275.65,-273.2"/>
</a>
</g>
</g>
<!-- Node3&#45;&gt;Node4 -->
<g id="edge3_Node000003_Node000004" class="edge">
<title>Node3&#45;&gt;Node4</title>
<g id="a_edge3_Node000003_Node000004"><a xlink:title=" ">
<path fill="none" stroke="#63b8ff" d="M1424.86,-56.36C1346.22,-46.36 1207.84,-28.78 1127.53,-18.57"/>
<polygon fill="#63b8ff" stroke="#63b8ff" points="1128.46,-15.16 1118.1,-17.37 1127.58,-22.11 1128.46,-15.16"/>
</a>
</g>
</g>
<!-- Node5 -->
<g id="Node000005" class="node">
<title>Node5</title>
<g id="a_Node000005"><a xlink:title=" ">
<polygon fill="#e0e0e0" stroke="#999999" points="1446.62,-19.25 1401.38,-19.25 1401.38,0 1446.62,0 1446.62,-19.25"/>
<text text-anchor="middle" x="1424" y="-5.75" font-family="Helvetica,sans-Serif" font-size="10.00">cstdint</text>
</a>
</g>
</g>
<!-- Node3&#45;&gt;Node5 -->
<g id="edge4_Node000003_Node000005" class="edge">
<title>Node3&#45;&gt;Node5</title>
<g id="a_edge4_Node000003_Node000005"><a xlink:title=" ">
<path fill="none" stroke="#63b8ff" d="M1473.82,-54.84C1465.24,-47.22 1452.73,-36.12 1442.4,-26.95"/>
<polygon fill="#63b8ff" stroke="#63b8ff" points="1444.96,-24.55 1435.16,-20.53 1440.32,-29.79 1444.96,-24.55"/>
</a>
</g>
</g>
<!-- Node6 -->
<g id="Node000006" class="node">
<title>Node6</title>
<g id="a_Node000006"><a xlink:title=" ">
<polygon fill="#e0e0e0" stroke="#999999" points="1503.62,-19.25 1464.38,-19.25 1464.38,0 1503.62,0 1503.62,-19.25"/>
<text text-anchor="middle" x="1484" y="-5.75" font-family="Helvetica,sans-Serif" font-size="10.00">utility</text>
</a>
</g>
</g>
<!-- Node3&#45;&gt;Node6 -->
<g id="edge5_Node000003_Node000006" class="edge">
<title>Node3&#45;&gt;Node6</title>
<g id="a_edge5_Node000003_Node000006"><a xlink:title=" ">
<path fill="none" stroke="#63b8ff" d="M1484,-55.08C1484,-48.57 1484,-39.42 1484,-31.12"/>
<polygon fill="#63b8ff" stroke="#63b8ff" points="1487.5,-31.12 1484,-21.12 1480.5,-31.12 1487.5,-31.12"/>
</a>
</g>
</g>
<!-- Node7&#45;&gt;Node4 -->
<g id="edge9_Node000007_Node000004" class="edge">
<title>Node7&#45;&gt;Node4</title>
<g id="a_edge9_Node000007_Node000004"><a xlink:title=" ">
<path fill="none" stroke="#63b8ff" d="M303.01,-248.63C249.68,-237.6 167.9,-219.06 159,-207.5 104.03,-136.11 133.68,-120.37 273,-55.25 338.28,-24.73 826.21,-14.29 1002.06,-11.49"/>
<polygon fill="#63b8ff" stroke="#63b8ff" points="1001.97,-14.99 1011.92,-11.34 1001.86,-7.99 1001.97,-14.99"/>
</a>
</g>
</g>
<!-- Node8 -->
<g id="Node000008" class="node">
<title>Node8</title>
<g id="a_Node000008"><a xlink:href="../../d7/dc2/_c_non_instantiatable_8h.html" target="_top" xlink:title=" ">
<polygon fill="white" stroke="#666666" points="551,-74.5 421,-74.5 421,-55.25 551,-55.25 551,-74.5"/>
<text text-anchor="middle" x="486" y="-61" font-family="Helvetica,sans-Serif" font-size="10.00">core/CNonInstantiatable.h</text>
</a>
</g>
</g>
<!-- Node7&#45;&gt;Node8 -->
<g id="edge7_Node000007_Node000008" class="edge">
<title>Node7&#45;&gt;Node8</title>
<g id="a_edge7_Node000007_Node000008"><a xlink:title=" ">
<path fill="none" stroke="#63b8ff" d="M346.52,-248.63C340.3,-223.61 326.73,-152.92 359,-110.5 371.48,-94.1 390.42,-83.7 409.9,-77.12"/>
<polygon fill="#63b8ff" stroke="#63b8ff" points="410.74,-80.53 419.3,-74.28 408.71,-73.83 410.74,-80.53"/>
</a>
</g>
</g>
<!-- Node9 -->
<g id="Node000009" class="node">
<title>Node9</title>
<g id="a_Node000009"><a xlink:href="../../da/d3e/_windows_safe_8h.html" target="_top" xlink:title=" ">
<polygon fill="white" stroke="#666666" points="274.38,-201.88 167.62,-201.88 167.62,-182.62 274.38,-182.62 274.38,-201.88"/>
<text text-anchor="middle" x="221" y="-188.38" font-family="Helvetica,sans-Serif" font-size="10.00">core/WindowsSafe.h</text>
</a>
</g>
</g>
<!-- Node7&#45;&gt;Node9 -->
<g id="edge10_Node000007_Node000009" class="edge">
<title>Node7&#45;&gt;Node9</title>
<g id="a_edge10_Node000007_Node000009"><a xlink:title=" ">
<path fill="none" stroke="#63b8ff" d="M330.93,-248.65C309.68,-237.94 274.15,-220.03 249.25,-207.49"/>
<polygon fill="#63b8ff" stroke="#63b8ff" points="250.83,-204.36 240.33,-202.99 247.68,-210.61 250.83,-204.36"/>
</a>
</g>
</g>
<!-- Node7&#45;&gt;Node10 -->
<g id="edge11_Node000007_Node000010" class="edge">
<title>Node7&#45;&gt;Node10</title>
<g id="a_edge11_Node000007_Node000010"><a xlink:title=" ">
<path fill="none" stroke="#63b8ff" d="M360.12,-248.78C372.71,-238.63 393.46,-221.9 408.91,-209.45"/>
<polygon fill="#63b8ff" stroke="#63b8ff" points="410.95,-212.3 416.53,-203.3 406.55,-206.85 410.95,-212.3"/>
</a>
</g>
</g>
<!-- Node7&#45;&gt;Node11 -->
<g id="edge12_Node000007_Node000011" class="edge">
<title>Node7&#45;&gt;Node11</title>
<g id="a_edge12_Node000007_Node000011"><a xlink:title=" ">
<path fill="none" stroke="#63b8ff" d="M369.26,-248.73C391.71,-238.71 428.98,-222.04 461,-207.5 461.34,-207.34 461.69,-207.19 462.04,-207.03"/>
<polygon fill="#63b8ff" stroke="#63b8ff" points="463.32,-210.29 470.96,-202.95 460.41,-203.93 463.32,-210.29"/>
</a>
</g>
</g>
<!-- Node12 -->
<g id="Node000012" class="node">
<title>Node12</title>
<g id="a_Node000012"><a xlink:title=" ">
<polygon fill="#e0e0e0" stroke="#999999" points="419.62,-135.38 368.38,-135.38 368.38,-116.12 419.62,-116.12 419.62,-135.38"/>
<text text-anchor="middle" x="394" y="-121.88" font-family="Helvetica,sans-Serif" font-size="10.00">memory</text>
</a>
</g>
</g>
<!-- Node7&#45;&gt;Node12 -->
<g id="edge13_Node000007_Node000012" class="edge">
<title>Node7&#45;&gt;Node12</title>
<g id="a_edge13_Node000007_Node000012"><a xlink:title=" ">
<path fill="none" stroke="#63b8ff" d="M352.09,-248.75C359.29,-227.81 377.28,-175.43 387.19,-146.58"/>
<polygon fill="#63b8ff" stroke="#63b8ff" points="390.45,-147.84 390.39,-137.25 383.83,-145.57 390.45,-147.84"/>
</a>
</g>
</g>
<!-- Node7&#45;&gt;Node13 -->
<g id="edge14_Node000007_Node000013" class="edge">
<title>Node7&#45;&gt;Node13</title>
<g id="a_edge14_Node000007_Node000013"><a xlink:title=" ">
<path fill="none" stroke="#63b8ff" d="M342.28,-248.69C328.77,-229.84 298.69,-184.53 288,-141 283.41,-122.29 288.53,-100.64 293.82,-85.4"/>
<polygon fill="#63b8ff" stroke="#63b8ff" points="297.06,-86.74 297.38,-76.15 290.52,-84.23 297.06,-86.74"/>
</a>
</g>
</g>
<!-- Node7&#45;&gt;Node14 -->
<g id="edge15_Node000007_Node000014" class="edge">
<title>Node7&#45;&gt;Node14</title>
<g id="a_edge15_Node000007_Node000014"><a xlink:title=" ">
<path fill="none" stroke="#63b8ff" d="M298.86,-248.63C253.3,-239.83 184.48,-225.25 126,-207.5 124.63,-207.08 123.24,-206.64 121.83,-206.18"/>
<polygon fill="#63b8ff" stroke="#63b8ff" points="123.14,-202.93 112.55,-202.88 120.8,-209.53 123.14,-202.93"/>
</a>
</g>
</g>
<!-- Node8&#45;&gt;Node4 -->
<g id="edge8_Node000008_Node000004" class="edge">
<title>Node8&#45;&gt;Node4</title>
<g id="a_edge8_Node000008_Node000004"><a xlink:title=" ">
<path fill="none" stroke="#63b8ff" d="M551.09,-56.67C555.79,-56.18 560.47,-55.7 565,-55.25 722.14,-39.66 907.32,-23.78 1002.12,-15.84"/>
<polygon fill="#63b8ff" stroke="#63b8ff" points="1002.32,-19.33 1012,-15.01 1001.74,-12.36 1002.32,-19.33"/>
</a>
</g>
</g>
<!-- Node15&#45;&gt;Node4 -->
<g id="edge17_Node000015_Node000004" class="edge">
<title>Node15&#45;&gt;Node4</title>
<g id="a_edge17_Node000015_Node000004"><a xlink:title=" ">
<path fill="none" stroke="#63b8ff" d="M1208.49,-248.78C1222.46,-224.72 1256.42,-157.37 1230,-110.5 1204.23,-64.77 1148.15,-37.6 1108.54,-23.4"/>
<polygon fill="#63b8ff" stroke="#63b8ff" points="1109.87,-20.16 1099.28,-20.22 1107.6,-26.78 1109.87,-20.16"/>
</a>
</g>
</g>
<!-- Node16&#45;&gt;Node13 -->
<g id="edge45_Node000016_Node000013" class="edge">
<title>Node16&#45;&gt;Node13</title>
<g id="a_edge45_Node000016_Node000013"><a xlink:title=" ">
<path fill="none" stroke="#63b8ff" d="M741.75,-251.21C697.08,-244.01 628.77,-230.31 573,-207.5 548.91,-197.65 547.15,-186.7 523,-177 453.75,-149.19 421.87,-181.2 359,-141 337.5,-127.25 321.05,-102.4 311.47,-85.06"/>
<polygon fill="#63b8ff" stroke="#63b8ff" points="314.62,-83.52 306.89,-76.28 308.42,-86.76 314.62,-83.52"/>
</a>
</g>
</g>
<!-- Node17 -->
<g id="Node000017" class="node">
<title>Node17</title>
<g id="a_Node000017"><a xlink:href="../../d2/dae/_c_container_printer_8h.html" target="_top" xlink:title=" ">
<polygon fill="white" stroke="#666666" points="705.62,-201.88 582.38,-201.88 582.38,-182.62 705.62,-182.62 705.62,-201.88"/>
<text text-anchor="middle" x="644" y="-188.38" font-family="Helvetica,sans-Serif" font-size="10.00">core/CContainerPrinter.h</text>
</a>
</g>
</g>
<!-- Node16&#45;&gt;Node17 -->
<g id="edge20_Node000016_Node000017" class="edge">
<title>Node16&#45;&gt;Node17</title>
<g id="a_edge20_Node000016_Node000017"><a xlink:title=" ">
<path fill="none" stroke="#63b8ff" d="M768.53,-248.65C744.14,-237.79 703.13,-219.55 674.87,-206.98"/>
<polygon fill="#63b8ff" stroke="#63b8ff" points="676.31,-203.79 665.75,-202.92 673.46,-210.19 676.31,-203.79"/>
</a>
</g>
</g>
<!-- Node27 -->
<g id="Node000027" class="node">
<title>Node27</title>
<g id="a_Node000027"><a xlink:title=" ">
<polygon fill="#e0e0e0" stroke="#999999" points="1144.62,-135.38 1093.38,-135.38 1093.38,-116.12 1144.62,-116.12 1144.62,-135.38"/>
<text text-anchor="middle" x="1119" y="-121.88" font-family="Helvetica,sans-Serif" font-size="10.00">sstream</text>
</a>
</g>
</g>
<!-- Node16&#45;&gt;Node27 -->
<g id="edge44_Node000016_Node000027" class="edge">
<title>Node16&#45;&gt;Node27</title>
<g id="a_edge44_Node000016_Node000027"><a xlink:title=" ">
<path fill="none" stroke="#63b8ff" d="M836.24,-255.43C910.57,-250.87 1050.25,-238.36 1088,-207.5 1106.23,-192.59 1113.76,-165.65 1116.86,-147.01"/>
<polygon fill="#63b8ff" stroke="#63b8ff" points="1120.31,-147.56 1118.17,-137.18 1113.37,-146.63 1120.31,-147.56"/>
</a>
</g>
</g>
<!-- Node29 -->
<g id="Node000029" class="node">
<title>Node29</title>
<g id="a_Node000029"><a xlink:title=" ">
<polygon fill="#e0e0e0" stroke="#999999" points="854.75,-201.88 723.25,-201.88 723.25,-182.62 854.75,-182.62 854.75,-201.88"/>
<text text-anchor="middle" x="789" y="-188.38" font-family="Helvetica,sans-Serif" font-size="10.00">boost/current_function.hpp</text>
</a>
</g>
</g>
<!-- Node16&#45;&gt;Node29 -->
<g id="edge41_Node000016_Node000029" class="edge">
<title>Node16&#45;&gt;Node29</title>
<g id="a_edge41_Node000016_Node000029"><a xlink:title=" ">
<path fill="none" stroke="#63b8ff" d="M789,-248.78C789,-239.73 789,-225.45 789,-213.63"/>
<polygon fill="#63b8ff" stroke="#63b8ff" points="792.5,-213.66 789,-203.66 785.5,-213.66 792.5,-213.66"/>
</a>
</g>
</g>
<!-- Node30 -->
<g id="Node000030" class="node">
<title>Node30</title>
<g id="a_Node000030"><a xlink:title=" ">
<polygon fill="#e0e0e0" stroke="#999999" points="1013.25,-207.5 872.75,-207.5 872.75,-177 1013.25,-177 1013.25,-207.5"/>
<text text-anchor="start" x="880.75" y="-194" font-family="Helvetica,sans-Serif" font-size="10.00">boost/log/utility/manipulators</text>
<text text-anchor="middle" x="943" y="-182.75" font-family="Helvetica,sans-Serif" font-size="10.00">/add_value.hpp</text>
</a>
</g>
</g>
<!-- Node16&#45;&gt;Node30 -->
<g id="edge42_Node000016_Node000030" class="edge">
<title>Node16&#45;&gt;Node30</title>
<g id="a_edge42_Node000016_Node000030"><a xlink:title=" ">
<path fill="none" stroke="#63b8ff" d="M810.74,-248.65C833.16,-239.25 868.8,-224.33 897.43,-212.33"/>
<polygon fill="#63b8ff" stroke="#63b8ff" points="898.76,-215.58 906.63,-208.48 896.05,-209.12 898.76,-215.58"/>
</a>
</g>
</g>
<!-- Node31 -->
<g id="Node000031" class="node">
<title>Node31</title>
<g id="a_Node000031"><a xlink:title=" ">
<polygon fill="#e0e0e0" stroke="#999999" points="1079.12,-201.88 1030.88,-201.88 1030.88,-182.62 1079.12,-182.62 1079.12,-201.88"/>
<text text-anchor="middle" x="1055" y="-188.38" font-family="Helvetica,sans-Serif" font-size="10.00">cstddef</text>
</a>
</g>
</g>
<!-- Node16&#45;&gt;Node31 -->
<g id="edge43_Node000016_Node000031" class="edge">
<title>Node16&#45;&gt;Node31</title>
<g id="a_edge43_Node000016_Node000031"><a xlink:title=" ">
<path fill="none" stroke="#63b8ff" d="M836.12,-250.37C883.69,-242.28 958.95,-227.7 1022,-207.5 1022.99,-207.18 1023.99,-206.85 1024.99,-206.5"/>
<polygon fill="#63b8ff" stroke="#63b8ff" points="1026.24,-209.77 1034.29,-202.88 1023.7,-203.24 1026.24,-209.77"/>
</a>
</g>
</g>
<!-- Node17&#45;&gt;Node4 -->
<g id="edge31_Node000017_Node000004" class="edge">
<title>Node17&#45;&gt;Node4</title>
<g id="a_edge31_Node000017_Node000004"><a xlink:title=" ">
<path fill="none" stroke="#63b8ff" d="M685.34,-182.17C694.73,-180.29 704.69,-178.45 714,-177 787.33,-165.59 992.57,-192.5 1046,-141 1075.69,-112.38 1072.98,-59.39 1068.79,-30.57"/>
<polygon fill="#63b8ff" stroke="#63b8ff" points="1072.29,-30.29 1067.18,-21.01 1065.39,-31.45 1072.29,-30.29"/>
</a>
</g>
</g>
<!-- Node17&#45;&gt;Node8 -->
<g id="edge21_Node000017_Node000008" class="edge">
<title>Node17&#45;&gt;Node8</title>
<g id="a_edge21_Node000017_Node000008"><a xlink:title=" ">
<path fill="none" stroke="#63b8ff" d="M581.97,-182.22C554.87,-175.24 524.81,-162.88 505,-141 491.47,-126.06 487.27,-102.88 486.11,-86.22"/>
<polygon fill="#63b8ff" stroke="#63b8ff" points="489.62,-86.38 485.77,-76.5 482.62,-86.62 489.62,-86.38"/>
</a>
</g>
</g>
<!-- Node17&#45;&gt;Node12 -->
<g id="edge35_Node000017_Node000012" class="edge">
<title>Node17&#45;&gt;Node12</title>
<g id="a_edge35_Node000017_Node000012"><a xlink:title=" ">
<path fill="none" stroke="#63b8ff" d="M600.2,-182.21C557.47,-173.05 490.78,-157.85 434,-141 432.28,-140.49 430.53,-139.95 428.77,-139.39"/>
<polygon fill="#63b8ff" stroke="#63b8ff" points="430,-136.11 419.41,-136.24 427.78,-142.75 430,-136.11"/>
</a>
</g>
</g>
<!-- Node17&#45;&gt;Node13 -->
<g id="edge39_Node000017_Node000013" class="edge">
<title>Node17&#45;&gt;Node13</title>
<g id="a_edge39_Node000017_Node000013"><a xlink:title=" ">
<path fill="none" stroke="#63b8ff" d="M609.7,-182.14C577.47,-173.14 528.17,-158.26 487,-141 460.14,-129.74 455.7,-122.14 429,-110.5 396.9,-96.51 358.87,-83.61 332.85,-75.32"/>
<polygon fill="#63b8ff" stroke="#63b8ff" points="334.18,-72.07 323.59,-72.4 332.08,-78.74 334.18,-72.07"/>
</a>
</g>
</g>
<!-- Node18 -->
<g id="Node000018" class="node">
<title>Node18</title>
<g id="a_Node000018"><a xlink:href="../../d9/d88/_c_string_utils_8h.html" target="_top" xlink:title=" ">
<polygon fill="white" stroke="#666666" points="613.62,-135.38 514.38,-135.38 514.38,-116.12 613.62,-116.12 613.62,-135.38"/>
<text text-anchor="middle" x="564" y="-121.88" font-family="Helvetica,sans-Serif" font-size="10.00">core/CStringUtils.h</text>
</a>
</g>
</g>
<!-- Node17&#45;&gt;Node18 -->
<g id="edge22_Node000017_Node000018" class="edge">
<title>Node17&#45;&gt;Node18</title>
<g id="a_edge22_Node000017_Node000018"><a xlink:title=" ">
<path fill="none" stroke="#63b8ff" d="M632.88,-182.28C620.29,-172.13 599.54,-155.4 584.09,-142.95"/>
<polygon fill="#63b8ff" stroke="#63b8ff" points="586.45,-140.35 576.47,-136.8 582.05,-145.8 586.45,-140.35"/>
</a>
</g>
</g>
<!-- Node22 -->
<g id="Node000022" class="node">
<title>Node22</title>
<g id="a_Node000022"><a xlink:title=" ">
<polygon fill="#e0e0e0" stroke="#999999" points="754.62,-141 631.38,-141 631.38,-110.5 754.62,-110.5 754.62,-141"/>
<text text-anchor="start" x="639.38" y="-127.5" font-family="Helvetica,sans-Serif" font-size="10.00">boost/log/sources/record</text>
<text text-anchor="middle" x="693" y="-116.25" font-family="Helvetica,sans-Serif" font-size="10.00">_ostream.hpp</text>
</a>
</g>
</g>
<!-- Node17&#45;&gt;Node22 -->
<g id="edge32_Node000017_Node000022" class="edge">
<title>Node17&#45;&gt;Node22</title>
<g id="a_edge32_Node000017_Node000022"><a xlink:title=" ">
<path fill="none" stroke="#63b8ff" d="M650.81,-182.28C657.14,-173.95 666.84,-161.19 675.34,-149.99"/>
<polygon fill="#63b8ff" stroke="#63b8ff" points="677.92,-152.38 681.19,-142.3 672.35,-148.15 677.92,-152.38"/>
</a>
</g>
</g>
<!-- Node17&#45;&gt;Node23 -->
<g id="edge33_Node000017_Node000023" class="edge">
<title>Node17&#45;&gt;Node23</title>
<g id="a_edge33_Node000017_Node000023"><a xlink:title=" ">
<path fill="none" stroke="#63b8ff" d="M684.57,-182.14C694.18,-180.22 704.42,-178.36 714,-177 908.26,-149.38 962.53,-183.86 1154,-141 1156.03,-140.55 1158.09,-140.01 1160.15,-139.41"/>
<polygon fill="#63b8ff" stroke="#63b8ff" points="1161.19,-142.76 1169.58,-136.28 1158.98,-136.11 1161.19,-142.76"/>
</a>
</g>
</g>
<!-- Node24 -->
<g id="Node000024" class="node">
<title>Node24</title>
<g id="a_Node000024"><a xlink:title=" ">
<polygon fill="#e0e0e0" stroke="#999999" points="819,-135.38 773,-135.38 773,-116.12 819,-116.12 819,-135.38"/>
<text text-anchor="middle" x="796" y="-121.88" font-family="Helvetica,sans-Serif" font-size="10.00">iterator</text>
</a>
</g>
</g>
<!-- Node17&#45;&gt;Node24 -->
<g id="edge34_Node000017_Node000024" class="edge">
<title>Node17&#45;&gt;Node24</title>
<g id="a_edge34_Node000017_Node000024"><a xlink:title=" ">
<path fill="none" stroke="#63b8ff" d="M666.18,-182.14C690.31,-172.18 730,-155.69 764,-141 764.47,-140.8 764.95,-140.59 765.43,-140.38"/>
<polygon fill="#63b8ff" stroke="#63b8ff" points="766.58,-143.7 774.33,-136.47 763.77,-137.29 766.58,-143.7"/>
</a>
</g>
</g>
<!-- Node25 -->
<g id="Node000025" class="node">
<title>Node25</title>
<g id="a_Node000025"><a xlink:title=" ">
<polygon fill="#e0e0e0" stroke="#999999" points="886.88,-135.38 837.12,-135.38 837.12,-116.12 886.88,-116.12 886.88,-135.38"/>
<text text-anchor="middle" x="862" y="-121.88" font-family="Helvetica,sans-Serif" font-size="10.00">optional</text>
</a>
</g>
</g>
<!-- Node17&#45;&gt;Node25 -->
<g id="edge36_Node000017_Node000025" class="edge">
<title>Node17&#45;&gt;Node25</title>
<g id="a_edge36_Node000017_Node000025"><a xlink:title=" ">
<path fill="none" stroke="#63b8ff" d="M682.86,-182.2C720.41,-173.09 778.69,-157.99 828,-141 828.98,-140.66 829.97,-140.31 830.97,-139.95"/>
<polygon fill="#63b8ff" stroke="#63b8ff" points="832.21,-143.22 840.26,-136.33 829.67,-136.7 832.21,-143.22"/>
</a>
</g>
</g>
<!-- Node26 -->
<g id="Node000026" class="node">
<title>Node26</title>
<g id="a_Node000026"><a xlink:title=" ">
<polygon fill="#e0e0e0" stroke="#999999" points="956.62,-135.38 905.38,-135.38 905.38,-116.12 956.62,-116.12 956.62,-135.38"/>
<text text-anchor="middle" x="931" y="-121.88" font-family="Helvetica,sans-Serif" font-size="10.00">ostream</text>
</a>
</g>
</g>
<!-- Node17&#45;&gt;Node26 -->
<g id="edge37_Node000017_Node000026" class="edge">
<title>Node17&#45;&gt;Node26</title>
<g id="a_edge37_Node000017_Node000026"><a xlink:title=" ">
<path fill="none" stroke="#63b8ff" d="M688.43,-182.17C696.92,-180.44 705.73,-178.66 714,-177 794.84,-160.78 817.01,-164.65 896,-141 897.34,-140.6 898.71,-140.16 900.08,-139.7"/>
<polygon fill="#63b8ff" stroke="#63b8ff" points="900.92,-143.13 909.09,-136.38 898.49,-136.56 900.92,-143.13"/>
</a>
</g>
</g>
<!-- Node17&#45;&gt;Node27 -->
<g id="edge38_Node000017_Node000027" class="edge">
<title>Node17&#45;&gt;Node27</title>
<g id="a_edge38_Node000017_Node000027"><a xlink:title=" ">
<path fill="none" stroke="#63b8ff" d="M684.96,-182.18C694.46,-180.28 704.56,-178.42 714,-177 875.19,-152.71 919.93,-176.62 1079,-141 1081.16,-140.52 1083.36,-139.95 1085.57,-139.33"/>
<polygon fill="#63b8ff" stroke="#63b8ff" points="1086.53,-142.7 1095,-136.33 1084.41,-136.03 1086.53,-142.7"/>
</a>
</g>
</g>
<!-- Node28 -->
<g id="Node000028" class="node">
<title>Node28</title>
<g id="a_Node000028"><a xlink:title=" ">
<polygon fill="#e0e0e0" stroke="#999999" points="1036.88,-135.38 975.12,-135.38 975.12,-116.12 1036.88,-116.12 1036.88,-135.38"/>
<text text-anchor="middle" x="1006" y="-121.88" font-family="Helvetica,sans-Serif" font-size="10.00">type_traits</text>
</a>
</g>
</g>
<!-- Node17&#45;&gt;Node28 -->
<g id="edge40_Node000017_Node000028" class="edge">
<title>Node17&#45;&gt;Node28</title>
<g id="a_edge40_Node000017_Node000028"><a xlink:title=" ">
<path fill="none" stroke="#63b8ff" d="M686.49,-182.18C695.55,-180.37 705.08,-178.54 714,-177 825.48,-157.71 856.16,-168.12 966,-141 968.01,-140.5 970.05,-139.95 972.11,-139.35"/>
<polygon fill="#63b8ff" stroke="#63b8ff" points="973.09,-142.71 981.53,-136.3 970.94,-136.04 973.09,-142.71"/>
</a>
</g>
</g>
<!-- Node18&#45;&gt;Node4 -->
<g id="edge28_Node000018_Node000004" class="edge">
<title>Node18&#45;&gt;Node4</title>
<g id="a_edge28_Node000018_Node000004"><a xlink:title=" ">
<path fill="none" stroke="#63b8ff" d="M565.53,-115.69C568.63,-100.37 577.24,-69.62 598,-55.25 630.52,-32.74 882.53,-18.7 1002.24,-13.23"/>
<polygon fill="#63b8ff" stroke="#63b8ff" points="1002.06,-16.75 1011.89,-12.8 1001.74,-9.75 1002.06,-16.75"/>
</a>
</g>
</g>
<!-- Node18&#45;&gt;Node8 -->
<g id="edge27_Node000018_Node000008" class="edge">
<title>Node18&#45;&gt;Node8</title>
<g id="a_edge27_Node000018_Node000008"><a xlink:title=" ">
<path fill="none" stroke="#63b8ff" d="M552.15,-115.81C540.13,-106.73 521.26,-92.49 506.75,-81.54"/>
<polygon fill="#63b8ff" stroke="#63b8ff" points="509.26,-79.04 499.17,-75.81 505.04,-84.63 509.26,-79.04"/>
</a>
</g>
</g>
<!-- Node18&#45;&gt;Node13 -->
<g id="edge29_Node000018_Node000013" class="edge">
<title>Node18&#45;&gt;Node13</title>
<g id="a_edge29_Node000018_Node000013"><a xlink:title=" ">
<path fill="none" stroke="#63b8ff" d="M523.64,-115.68C471.24,-103.9 380.88,-83.6 333.34,-72.92"/>
<polygon fill="#63b8ff" stroke="#63b8ff" points="334.22,-69.53 323.7,-70.75 332.69,-76.36 334.22,-69.53"/>
</a>
</g>
</g>
<!-- Node19 -->
<g id="Node000019" class="node">
<title>Node19</title>
<g id="a_Node000019"><a xlink:href="../../d6/dbf/_c_i_e_e_e754_8h.html" target="_top" xlink:title=" ">
<polygon fill="white" stroke="#666666" points="1407.25,-74.5 1314.75,-74.5 1314.75,-55.25 1407.25,-55.25 1407.25,-74.5"/>
<text text-anchor="middle" x="1361" y="-61" font-family="Helvetica,sans-Serif" font-size="10.00">core/CIEEE754.h</text>
</a>
</g>
</g>
<!-- Node18&#45;&gt;Node19 -->
<g id="edge23_Node000018_Node000019" class="edge">
<title>Node18&#45;&gt;Node19</title>
<g id="a_edge23_Node000018_Node000019"><a xlink:title=" ">
<path fill="none" stroke="#63b8ff" d="M596.61,-115.64C604.84,-113.65 613.7,-111.76 622,-110.5 873.7,-72.3 1178.29,-66.5 1303.26,-65.83"/>
<polygon fill="#63b8ff" stroke="#63b8ff" points="1302.93,-69.33 1312.92,-65.79 1302.9,-62.33 1302.93,-69.33"/>
</a>
</g>
</g>
<!-- Node21 -->
<g id="Node000021" class="node">
<title>Node21</title>
<g id="a_Node000021"><a xlink:title=" ">
<polygon fill="#e0e0e0" stroke="#999999" points="650.5,-74.5 607.5,-74.5 607.5,-55.25 650.5,-55.25 650.5,-74.5"/>
<text text-anchor="middle" x="629" y="-61" font-family="Helvetica,sans-Serif" font-size="10.00">vector</text>
</a>
</g>
</g>
<!-- Node18&#45;&gt;Node21 -->
<g id="edge30_Node000018_Node000021" class="edge">
<title>Node18&#45;&gt;Node21</title>
<g id="a_edge30_Node000018_Node000021"><a xlink:title=" ">
<path fill="none" stroke="#63b8ff" d="M573.87,-115.81C583.61,-106.99 598.72,-93.3 610.66,-82.48"/>
<polygon fill="#63b8ff" stroke="#63b8ff" points="612.85,-85.22 617.91,-75.92 608.15,-80.04 612.85,-85.22"/>
</a>
</g>
</g>
<!-- Node19&#45;&gt;Node4 -->
<g id="edge24_Node000019_Node000004" class="edge">
<title>Node19&#45;&gt;Node4</title>
<g id="a_edge24_Node000019_Node000004"><a xlink:title=" ">
<path fill="none" stroke="#63b8ff" d="M1314.42,-55.5C1263.78,-46.39 1182.61,-31.78 1126.69,-21.72"/>
<polygon fill="#63b8ff" stroke="#63b8ff" points="1127.47,-18.31 1117,-19.98 1126.23,-25.2 1127.47,-18.31"/>
</a>
</g>
</g>
<!-- Node19&#45;&gt;Node5 -->
<g id="edge25_Node000019_Node000005" class="edge">
<title>Node19&#45;&gt;Node5</title>
<g id="a_edge25_Node000019_Node000005"><a xlink:title=" ">
<path fill="none" stroke="#63b8ff" d="M1371.69,-54.84C1380.7,-47.22 1393.83,-36.12 1404.68,-26.95"/>
<polygon fill="#63b8ff" stroke="#63b8ff" points="1406.94,-29.63 1412.31,-20.5 1402.42,-24.28 1406.94,-29.63"/>
</a>
</g>
</g>
<!-- Node20 -->
<g id="Node000020" class="node">
<title>Node20</title>
<g id="a_Node000020"><a xlink:title=" ">
<polygon fill="#e0e0e0" stroke="#999999" points="1383.62,-19.25 1338.38,-19.25 1338.38,0 1383.62,0 1383.62,-19.25"/>
<text text-anchor="middle" x="1361" y="-5.75" font-family="Helvetica,sans-Serif" font-size="10.00">cstring</text>
</a>
</g>
</g>
<!-- Node19&#45;&gt;Node20 -->
<g id="edge26_Node000019_Node000020" class="edge">
<title>Node19&#45;&gt;Node20</title>
<g id="a_edge26_Node000019_Node000020"><a xlink:title=" ">
<path fill="none" stroke="#63b8ff" d="M1361,-55.08C1361,-48.57 1361,-39.42 1361,-31.12"/>
<polygon fill="#63b8ff" stroke="#63b8ff" points="1364.5,-31.12 1361,-21.12 1357.5,-31.12 1364.5,-31.12"/>
</a>
</g>
</g>
</g>
</svg>
