<?xml version="1.0" encoding="UTF-8" standalone="no"?>
<!DOCTYPE svg PUBLIC "-//W3C//DTD SVG 1.1//EN"
 "http://www.w3.org/Graphics/SVG/1.1/DTD/svg11.dtd">
<!-- Generated by graphviz version 10.0.1 (20240210.2158)
 -->
<!-- Title: ml::maths::time_series::CExpandingWindow::endValuesTime Pages: 1 -->
<svg width="849pt" height="266pt"
 viewBox="0.00 0.00 849.00 265.61" xmlns="http://www.w3.org/2000/svg" xmlns:xlink="http://www.w3.org/1999/xlink">
<g id="graph0" class="graph" transform="scale(1 1) rotate(0) translate(4 261.61)">
<title>ml::maths::time_series::CExpandingWindow::endValuesTime</title>
<!-- Node1 -->
<g id="Node000001" class="node">
<title>Node1</title>
<g id="a_Node000001"><a xlink:title="Get the end time of the windows&#39; values.">
<polygon fill="#999999" stroke="#666666" points="183.25,-64.99 0,-64.99 0,-34.49 183.25,-34.49 183.25,-64.99"/>
<text text-anchor="start" x="8" y="-51.49" font-family="Helvetica,sans-Serif" font-size="10.00">ml::maths::time_series</text>
<text text-anchor="middle" x="91.62" y="-40.24" font-family="Helvetica,sans-Serif" font-size="10.00">::CExpandingWindow::endValuesTime</text>
</a>
</g>
</g>
<!-- Node2 -->
<g id="Node000002" class="node">
<title>Node2</title>
<g id="a_Node000002"><a xlink:href="../../da/d02/classml_1_1maths_1_1time__series_1_1_c_expanding_window.html#a275cf950c6a539e4c71d115b25537843" target="_top" xlink:title="Get the time of the first window value.">
<polygon fill="white" stroke="#666666" points="410,-134.99 219.25,-134.99 219.25,-104.49 410,-104.49 410,-134.99"/>
<text text-anchor="start" x="227.25" y="-121.49" font-family="Helvetica,sans-Serif" font-size="10.00">ml::maths::time_series</text>
<text text-anchor="middle" x="314.62" y="-110.24" font-family="Helvetica,sans-Serif" font-size="10.00">::CExpandingWindow::beginValuesTime</text>
</a>
</g>
</g>
<!-- Node1&#45;&gt;Node2 -->
<g id="edge1_Node000001_Node000002" class="edge">
<title>Node1&#45;&gt;Node2</title>
<g id="a_edge1_Node000001_Node000002"><a xlink:title=" ">
<path fill="none" stroke="#63b8ff" d="M142.22,-65.45C175.21,-75.89 218.72,-89.68 253.65,-100.74"/>
<polygon fill="#63b8ff" stroke="#63b8ff" points="252.16,-103.94 262.75,-103.62 254.27,-97.27 252.16,-103.94"/>
</a>
</g>
</g>
<!-- Node3 -->
<g id="Node000003" class="node">
<title>Node3</title>
<g id="a_Node000003"><a xlink:href="../../da/d02/classml_1_1maths_1_1time__series_1_1_c_expanding_window.html#a824a6446df32e6fa757a8d236bff4604" target="_top" xlink:title="Get the current bucket length.">
<polygon fill="white" stroke="#666666" points="841,-110.99 666,-110.99 666,-80.49 841,-80.49 841,-110.99"/>
<text text-anchor="start" x="674" y="-97.49" font-family="Helvetica,sans-Serif" font-size="10.00">ml::maths::time_series</text>
<text text-anchor="middle" x="753.5" y="-86.24" font-family="Helvetica,sans-Serif" font-size="10.00">::CExpandingWindow::bucketLength</text>
</a>
</g>
</g>
<!-- Node1&#45;&gt;Node3 -->
<g id="edge9_Node000001_Node000003" class="edge">
<title>Node1&#45;&gt;Node3</title>
<g id="a_edge9_Node000001_Node000003"><a xlink:title=" ">
<path fill="none" stroke="#63b8ff" d="M155.25,-34.07C256.95,-11.39 463.39,23.14 630,-22.74 665.45,-32.5 701.01,-55.51 724.61,-73.11"/>
<polygon fill="#63b8ff" stroke="#63b8ff" points="722.38,-75.81 732.45,-79.1 726.63,-70.25 722.38,-75.81"/>
</a>
</g>
</g>
<!-- Node2&#45;&gt;Node3 -->
<g id="edge2_Node000002_Node000003" class="edge">
<title>Node2&#45;&gt;Node3</title>
<g id="a_edge2_Node000002_Node000003"><a xlink:title=" ">
<path fill="none" stroke="#63b8ff" d="M347.65,-135.49C373.49,-147.27 411.15,-162.4 446,-168.74 526.46,-183.36 551.16,-190.45 630,-168.74 665.45,-158.98 701.01,-135.97 724.61,-118.37"/>
<polygon fill="#63b8ff" stroke="#63b8ff" points="726.63,-121.23 732.45,-112.37 722.38,-115.67 726.63,-121.23"/>
</a>
</g>
</g>
<!-- Node4 -->
<g id="Node000004" class="node">
<title>Node4</title>
<g id="a_Node000004"><a xlink:href="../../d2/d3e/classml_1_1maths_1_1common_1_1_c_integer_tools.html#a146c7ffc1ffc2d4f1951d2288854bf30" target="_top" xlink:title=" ">
<polygon fill="white" stroke="#666666" points="592.5,-159.99 483.5,-159.99 483.5,-129.49 592.5,-129.49 592.5,-159.99"/>
<text text-anchor="start" x="491.5" y="-146.49" font-family="Helvetica,sans-Serif" font-size="10.00">ml::maths::common::</text>
<text text-anchor="middle" x="538" y="-135.24" font-family="Helvetica,sans-Serif" font-size="10.00">CIntegerTools::ceil</text>
</a>
</g>
</g>
<!-- Node2&#45;&gt;Node4 -->
<g id="edge3_Node000002_Node000004" class="edge">
<title>Node2&#45;&gt;Node4</title>
<g id="a_edge3_Node000002_Node000004"><a xlink:title=" ">
<path fill="none" stroke="#63b8ff" d="M410.47,-130.45C431.17,-132.79 452.63,-135.21 471.86,-137.38"/>
<polygon fill="#63b8ff" stroke="#63b8ff" points="471.38,-140.85 481.71,-138.49 472.16,-133.89 471.38,-140.85"/>
</a>
</g>
</g>
<!-- Node5 -->
<g id="Node000005" class="node">
<title>Node5</title>
<g id="a_Node000005"><a xlink:href="../../da/d02/classml_1_1maths_1_1time__series_1_1_c_expanding_window.html#ab8000e6b7e7cb9ec3e9ac86ea5881230" target="_top" xlink:title="Get the end time of the window.">
<polygon fill="white" stroke="#666666" points="615,-110.99 461,-110.99 461,-80.49 615,-80.49 615,-110.99"/>
<text text-anchor="start" x="469" y="-97.49" font-family="Helvetica,sans-Serif" font-size="10.00">ml::maths::time_series</text>
<text text-anchor="middle" x="538" y="-86.24" font-family="Helvetica,sans-Serif" font-size="10.00">::CExpandingWindow::endTime</text>
</a>
</g>
</g>
<!-- Node2&#45;&gt;Node5 -->
<g id="edge4_Node000002_Node000005" class="edge">
<title>Node2&#45;&gt;Node5</title>
<g id="a_edge4_Node000002_Node000005"><a xlink:title=" ">
<path fill="none" stroke="#63b8ff" d="M410.47,-109.46C423.45,-108.05 436.73,-106.61 449.57,-105.22"/>
<polygon fill="#63b8ff" stroke="#63b8ff" points="449.65,-108.73 459.21,-104.17 448.89,-101.77 449.65,-108.73"/>
</a>
</g>
</g>
<!-- Node6 -->
<g id="Node000006" class="node">
<title>Node6</title>
<g id="a_Node000006"><a xlink:href="../../d2/d3e/classml_1_1maths_1_1common_1_1_c_integer_tools.html#af6730dab6229fee67aaa34a8290491ad" target="_top" xlink:title=" ">
<polygon fill="white" stroke="#666666" points="592.5,-61.99 483.5,-61.99 483.5,-31.49 592.5,-31.49 592.5,-61.99"/>
<text text-anchor="start" x="491.5" y="-48.49" font-family="Helvetica,sans-Serif" font-size="10.00">ml::maths::common::</text>
<text text-anchor="middle" x="538" y="-37.24" font-family="Helvetica,sans-Serif" font-size="10.00">CIntegerTools::floor</text>
</a>
</g>
</g>
<!-- Node2&#45;&gt;Node6 -->
<g id="edge6_Node000002_Node000006" class="edge">
<title>Node2&#45;&gt;Node6</title>
<g id="a_edge6_Node000002_Node000006"><a xlink:title=" ">
<path fill="none" stroke="#63b8ff" d="M355.55,-104.04C381.2,-94.21 415.34,-81.57 446,-71.74 454.54,-69 463.59,-66.29 472.54,-63.72"/>
<polygon fill="#63b8ff" stroke="#63b8ff" points="473.24,-67.16 481.91,-61.07 471.33,-60.42 473.24,-67.16"/>
</a>
</g>
</g>
<!-- Node7 -->
<g id="Node000007" class="node">
<title>Node7</title>
<g id="a_Node000007"><a xlink:href="../../da/d02/classml_1_1maths_1_1time__series_1_1_c_expanding_window.html#a56d95bb679296928343f2b9b24bcbb40" target="_top" xlink:title=" ">
<polygon fill="white" stroke="#666666" points="630,-257.61 446,-257.61 446,-215.86 630,-215.86 630,-257.61"/>
<text text-anchor="start" x="454" y="-244.11" font-family="Helvetica,sans-Serif" font-size="10.00">ml::maths::time_series</text>
<text text-anchor="start" x="454" y="-232.86" font-family="Helvetica,sans-Serif" font-size="10.00">::CExpandingWindow::sampleAverage</text>
<text text-anchor="middle" x="538" y="-221.61" font-family="Helvetica,sans-Serif" font-size="10.00">Offset</text>
</a>
</g>
</g>
<!-- Node2&#45;&gt;Node7 -->
<g id="edge7_Node000002_Node000007" class="edge">
<title>Node2&#45;&gt;Node7</title>
<g id="a_edge7_Node000002_Node000007"><a xlink:title=" ">
<path fill="none" stroke="#63b8ff" d="M337.46,-135.33C362.76,-152.94 406.07,-181.74 446,-201.74 452.51,-205 459.4,-208.15 466.36,-211.14"/>
<polygon fill="#63b8ff" stroke="#63b8ff" points="464.59,-214.19 475.17,-214.81 467.28,-207.73 464.59,-214.19"/>
</a>
</g>
</g>
<!-- Node5&#45;&gt;Node3 -->
<g id="edge5_Node000005_Node000003" class="edge">
<title>Node5&#45;&gt;Node3</title>
<g id="a_edge5_Node000005_Node000003"><a xlink:title=" ">
<path fill="none" stroke="#63b8ff" d="M615.48,-95.74C628.06,-95.74 641.26,-95.74 654.29,-95.74"/>
<polygon fill="#63b8ff" stroke="#63b8ff" points="654.16,-99.24 664.16,-95.74 654.16,-92.24 654.16,-99.24"/>
</a>
</g>
</g>
<!-- Node8 -->
<g id="Node000008" class="node">
<title>Node8</title>
<g id="a_Node000008"><a xlink:href="../../d4/d55/classml_1_1maths_1_1common_1_1_c_basic_statistics.html#a9a136b1823e9938247cd29bb0ffea440" target="_top" xlink:title="Compute the mean of a pair.">
<polygon fill="white" stroke="#666666" points="813.25,-251.99 693.75,-251.99 693.75,-221.49 813.25,-221.49 813.25,-251.99"/>
<text text-anchor="start" x="701.75" y="-238.49" font-family="Helvetica,sans-Serif" font-size="10.00">ml::maths::common::</text>
<text text-anchor="middle" x="753.5" y="-227.24" font-family="Helvetica,sans-Serif" font-size="10.00">CBasicStatistics::mean</text>
</a>
</g>
</g>
<!-- Node7&#45;&gt;Node8 -->
<g id="edge8_Node000007_Node000008" class="edge">
<title>Node7&#45;&gt;Node8</title>
<g id="a_edge8_Node000007_Node000008"><a xlink:title=" ">
<path fill="none" stroke="#63b8ff" d="M630.47,-236.74C647.76,-236.74 665.59,-236.74 682.11,-236.74"/>
<polygon fill="#63b8ff" stroke="#63b8ff" points="681.8,-240.24 691.8,-236.74 681.8,-233.24 681.8,-240.24"/>
</a>
</g>
</g>
</g>
</svg>
