<?xml version="1.0" encoding="UTF-8" standalone="no"?>
<!DOCTYPE svg PUBLIC "-//W3C//DTD SVG 1.1//EN"
 "http://www.w3.org/Graphics/SVG/1.1/DTD/svg11.dtd">
<!-- Generated by graphviz version 10.0.1 (20240210.2158)
 -->
<!-- Title: ml::maths::time_series::CExpandingWindow::doDeflate Pages: 1 -->
<svg width="748pt" height="110pt"
 viewBox="0.00 0.00 747.75 109.75" xmlns="http://www.w3.org/2000/svg" xmlns:xlink="http://www.w3.org/1999/xlink">
<g id="graph0" class="graph" transform="scale(1 1) rotate(0) translate(4 105.75)">
<title>ml::maths::time_series::CExpandingWindow::doDeflate</title>
<!-- Node1 -->
<g id="Node000001" class="node">
<title>Node1</title>
<g id="a_Node000001"><a xlink:title="Implements deflate.">
<polygon fill="#999999" stroke="#666666" points="739.75,-66.12 581.25,-66.12 581.25,-35.62 739.75,-35.62 739.75,-66.12"/>
<text text-anchor="start" x="589.25" y="-52.62" font-family="Helvetica,sans-Serif" font-size="10.00">ml::maths::time_series</text>
<text text-anchor="middle" x="660.5" y="-41.38" font-family="Helvetica,sans-Serif" font-size="10.00">::CExpandingWindow::doDeflate</text>
</a>
</g>
</g>
<!-- Node2 -->
<g id="Node000002" class="node">
<title>Node2</title>
<g id="a_Node000002"><a xlink:href="../../da/d02/classml_1_1maths_1_1time__series_1_1_c_expanding_window.html#a04432525e07995aa40f28c533748c868" target="_top" xlink:title="Convert to a compressed representation.">
<polygon fill="white" stroke="#666666" points="545.25,-66.12 399.5,-66.12 399.5,-35.62 545.25,-35.62 545.25,-66.12"/>
<text text-anchor="start" x="407.5" y="-52.62" font-family="Helvetica,sans-Serif" font-size="10.00">ml::maths::time_series</text>
<text text-anchor="middle" x="472.38" y="-41.38" font-family="Helvetica,sans-Serif" font-size="10.00">::CExpandingWindow::deflate</text>
</a>
</g>
</g>
<!-- Node1&#45;&gt;Node2 -->
<g id="edge1_Node000001_Node000002" class="edge">
<title>Node1&#45;&gt;Node2</title>
<g id="a_edge1_Node000001_Node000002"><a xlink:title=" ">
<path fill="none" stroke="#63b8ff" d="M569.52,-50.88C561.48,-50.88 553.41,-50.88 545.54,-50.88"/>
<polygon fill="#63b8ff" stroke="#63b8ff" points="569.32,-54.38 579.32,-50.88 569.32,-47.38 569.32,-54.38"/>
</a>
</g>
</g>
<!-- Node3 -->
<g id="Node000003" class="node">
<title>Node3</title>
<g id="a_Node000003"><a xlink:href="../../da/d02/classml_1_1maths_1_1time__series_1_1_c_expanding_window.html#a72c78736d460129e377140203d2a73f1" target="_top" xlink:title="Initialize by reading state from traverser.">
<polygon fill="white" stroke="#666666" points="363.5,-101.75 183.25,-101.75 183.25,-60 363.5,-60 363.5,-101.75"/>
<text text-anchor="start" x="191.25" y="-88.25" font-family="Helvetica,sans-Serif" font-size="10.00">ml::maths::time_series</text>
<text text-anchor="start" x="191.25" y="-77" font-family="Helvetica,sans-Serif" font-size="10.00">::CExpandingWindow::acceptRestore</text>
<text text-anchor="middle" x="273.38" y="-65.75" font-family="Helvetica,sans-Serif" font-size="10.00">Traverser</text>
</a>
</g>
</g>
<!-- Node2&#45;&gt;Node3 -->
<g id="edge2_Node000002_Node000003" class="edge">
<title>Node2&#45;&gt;Node3</title>
<g id="a_edge2_Node000002_Node000003"><a xlink:title=" ">
<path fill="none" stroke="#63b8ff" d="M387.92,-63.58C379.91,-64.8 371.76,-66.05 363.69,-67.27"/>
<polygon fill="#63b8ff" stroke="#63b8ff" points="388.28,-67.07 397.64,-62.1 387.23,-60.15 388.28,-67.07"/>
</a>
</g>
</g>
<!-- Node5 -->
<g id="Node000005" class="node">
<title>Node5</title>
<g id="a_Node000005"><a xlink:href="../../da/d02/classml_1_1maths_1_1time__series_1_1_c_expanding_window.html#a76092538d279aad6815ebffdd653a54f" target="_top" xlink:title=" ">
<polygon fill="white" stroke="#666666" points="358.25,-41.75 188.5,-41.75 188.5,0 358.25,0 358.25,-41.75"/>
<text text-anchor="start" x="196.5" y="-28.25" font-family="Helvetica,sans-Serif" font-size="10.00">ml::maths::time_series</text>
<text text-anchor="start" x="196.5" y="-17" font-family="Helvetica,sans-Serif" font-size="10.00">::CExpandingWindow::CExpanding</text>
<text text-anchor="middle" x="273.38" y="-5.75" font-family="Helvetica,sans-Serif" font-size="10.00">Window</text>
</a>
</g>
</g>
<!-- Node2&#45;&gt;Node5 -->
<g id="edge4_Node000002_Node000005" class="edge">
<title>Node2&#45;&gt;Node5</title>
<g id="a_edge4_Node000002_Node000005"><a xlink:title=" ">
<path fill="none" stroke="#63b8ff" d="M387.88,-38.16C378.2,-36.69 368.31,-35.18 358.62,-33.7"/>
<polygon fill="#63b8ff" stroke="#63b8ff" points="387.23,-41.6 397.64,-39.65 388.28,-34.68 387.23,-41.6"/>
</a>
</g>
</g>
<!-- Node4 -->
<g id="Node000004" class="node">
<title>Node4</title>
<g id="a_Node000004"><a xlink:href="../../d6/d48/_c_expanding_window_test_8cc.html#a198486660676a176453a9cfe2c6324c6" target="_top" xlink:title=" ">
<polygon fill="white" stroke="#666666" points="147.25,-90.5 0,-90.5 0,-71.25 147.25,-71.25 147.25,-90.5"/>
<text text-anchor="middle" x="73.62" y="-77" font-family="Helvetica,sans-Serif" font-size="10.00">BOOST_AUTO_TEST_CASE</text>
</a>
</g>
</g>
<!-- Node3&#45;&gt;Node4 -->
<g id="edge3_Node000003_Node000004" class="edge">
<title>Node3&#45;&gt;Node4</title>
<g id="a_edge3_Node000003_Node000004"><a xlink:title=" ">
<path fill="none" stroke="#63b8ff" d="M171.43,-80.88C163.41,-80.88 155.42,-80.88 147.65,-80.88"/>
<polygon fill="#63b8ff" stroke="#63b8ff" points="171.24,-84.38 181.24,-80.88 171.24,-77.38 171.24,-84.38"/>
</a>
</g>
</g>
</g>
</svg>
