<?xml version="1.0" encoding="UTF-8" standalone="no"?>
<!DOCTYPE svg PUBLIC "-//W3C//DTD SVG 1.1//EN"
 "http://www.w3.org/Graphics/SVG/1.1/DTD/svg11.dtd">
<!-- Generated by graphviz version 10.0.1 (20240210.2158)
 -->
<!-- Title: ml::maths::common::CMultivariateMultimodalPrior::marginalLikelihoodMean Pages: 1 -->
<svg width="697pt" height="196pt"
 viewBox="0.00 0.00 696.75 196.12" xmlns="http://www.w3.org/2000/svg" xmlns:xlink="http://www.w3.org/1999/xlink">
<g id="graph0" class="graph" transform="scale(1 1) rotate(0) translate(4 192.12)">
<title>ml::maths::common::CMultivariateMultimodalPrior::marginalLikelihoodMean</title>
<!-- Node1 -->
<g id="Node000001" class="node">
<title>Node1</title>
<g id="a_Node000001"><a xlink:title="Get the mean of the marginal likelihood function.">
<polygon fill="#999999" stroke="#666666" points="141.25,-130.12 0,-130.12 0,-88.38 141.25,-88.38 141.25,-130.12"/>
<text text-anchor="start" x="8" y="-116.62" font-family="Helvetica,sans-Serif" font-size="10.00">ml::maths::common::</text>
<text text-anchor="start" x="8" y="-105.38" font-family="Helvetica,sans-Serif" font-size="10.00">CMultivariateMultimodalPrior</text>
<text text-anchor="middle" x="70.62" y="-94.12" font-family="Helvetica,sans-Serif" font-size="10.00">::marginalLikelihoodMean</text>
</a>
</g>
</g>
<!-- Node2 -->
<g id="Node000002" class="node">
<title>Node2</title>
<g id="a_Node000002"><a xlink:href="../../d6/d71/classml_1_1maths_1_1common_1_1_c_multivariate_multimodal_prior.html#aa47716c54c673390bbfe2bb6a53e9322" target="_top" xlink:title="Get the expected mean of the marginal likelihood.">
<polygon fill="white" stroke="#666666" points="348.5,-124.5 177.25,-124.5 177.25,-94 348.5,-94 348.5,-124.5"/>
<text text-anchor="start" x="185.25" y="-111" font-family="Helvetica,sans-Serif" font-size="10.00">ml::maths::common::</text>
<text text-anchor="middle" x="262.88" y="-99.75" font-family="Helvetica,sans-Serif" font-size="10.00">CMultivariateMultimodalPrior::mean</text>
</a>
</g>
</g>
<!-- Node1&#45;&gt;Node2 -->
<g id="edge1_Node000001_Node000002" class="edge">
<title>Node1&#45;&gt;Node2</title>
<g id="a_edge1_Node000001_Node000002"><a xlink:title=" ">
<path fill="none" stroke="#63b8ff" d="M141.66,-109.25C149.43,-109.25 157.45,-109.25 165.48,-109.25"/>
<polygon fill="#63b8ff" stroke="#63b8ff" points="165.31,-112.75 175.31,-109.25 165.31,-105.75 165.31,-112.75"/>
</a>
</g>
</g>
<!-- Node3 -->
<g id="Node000003" class="node">
<title>Node3</title>
<g id="a_Node000003"><a xlink:href="../../d4/d55/classml_1_1maths_1_1common_1_1_c_basic_statistics.html#a9a136b1823e9938247cd29bb0ffea440" target="_top" xlink:title="Compute the mean of a pair.">
<polygon fill="white" stroke="#666666" points="510.75,-146.5 391.25,-146.5 391.25,-116 510.75,-116 510.75,-146.5"/>
<text text-anchor="start" x="399.25" y="-133" font-family="Helvetica,sans-Serif" font-size="10.00">ml::maths::common::</text>
<text text-anchor="middle" x="451" y="-121.75" font-family="Helvetica,sans-Serif" font-size="10.00">CBasicStatistics::mean</text>
</a>
</g>
</g>
<!-- Node2&#45;&gt;Node3 -->
<g id="edge2_Node000002_Node000003" class="edge">
<title>Node2&#45;&gt;Node3</title>
<g id="a_edge2_Node000002_Node000003"><a xlink:title=" ">
<path fill="none" stroke="#63b8ff" d="M348.77,-119.28C359.08,-120.5 369.52,-121.74 379.59,-122.93"/>
<polygon fill="#63b8ff" stroke="#63b8ff" points="378.92,-126.37 389.27,-124.07 379.75,-119.42 378.92,-126.37"/>
</a>
</g>
</g>
<!-- Node4 -->
<g id="Node000004" class="node">
<title>Node4</title>
<g id="a_Node000004"><a xlink:href="../../d6/dd5/namespaceml_1_1maths_1_1common.html#aa139fb07823365e51bd2f01178d7a61a" target="_top" xlink:title="Compute the mode for distribution.">
<polygon fill="white" stroke="#666666" points="517.5,-97.88 384.5,-97.88 384.5,-78.62 517.5,-78.62 517.5,-97.88"/>
<text text-anchor="middle" x="451" y="-84.38" font-family="Helvetica,sans-Serif" font-size="10.00">ml::maths::common::mode</text>
</a>
</g>
</g>
<!-- Node2&#45;&gt;Node4 -->
<g id="edge3_Node000002_Node000004" class="edge">
<title>Node2&#45;&gt;Node4</title>
<g id="a_edge3_Node000002_Node000004"><a xlink:title=" ">
<path fill="none" stroke="#63b8ff" d="M348.77,-99.67C356.85,-98.76 365.01,-97.84 373.01,-96.94"/>
<polygon fill="#63b8ff" stroke="#63b8ff" points="373.14,-100.44 382.68,-95.85 372.35,-93.49 373.14,-100.44"/>
</a>
</g>
</g>
<!-- Node5 -->
<g id="Node000005" class="node">
<title>Node5</title>
<g id="a_Node000005"><a xlink:href="../../d0/d1c/classml_1_1maths_1_1common_1_1_c_log_t_distribution.html#a128ce0a627956e7931be0358fe995d2d" target="_top" xlink:title=" ">
<polygon fill="white" stroke="#666666" points="688.75,-188.12 553.5,-188.12 553.5,-146.38 688.75,-146.38 688.75,-188.12"/>
<text text-anchor="start" x="561.5" y="-174.62" font-family="Helvetica,sans-Serif" font-size="10.00">ml::maths::common::</text>
<text text-anchor="start" x="561.5" y="-163.38" font-family="Helvetica,sans-Serif" font-size="10.00">CLogTDistribution::degrees</text>
<text text-anchor="middle" x="621.12" y="-152.12" font-family="Helvetica,sans-Serif" font-size="10.00">Freedom</text>
</a>
</g>
</g>
<!-- Node4&#45;&gt;Node5 -->
<g id="edge4_Node000004_Node000005" class="edge">
<title>Node4&#45;&gt;Node5</title>
<g id="a_edge4_Node000004_Node000005"><a xlink:title=" ">
<path fill="none" stroke="#63b8ff" d="M495.97,-98.28C503.37,-100.73 510.81,-103.69 517.5,-107.25 535.89,-117.02 535.84,-126.21 553.5,-137.25 555.36,-138.41 557.26,-139.55 559.21,-140.67"/>
<polygon fill="#63b8ff" stroke="#63b8ff" points="557.38,-143.66 567.84,-145.33 560.71,-137.5 557.38,-143.66"/>
</a>
</g>
</g>
<!-- Node6 -->
<g id="Node000006" class="node">
<title>Node6</title>
<g id="a_Node000006"><a xlink:href="../../d0/d1c/classml_1_1maths_1_1common_1_1_c_log_t_distribution.html#a4267908e2f6c547fd21f75a77f6bee78" target="_top" xlink:title=" ">
<polygon fill="white" stroke="#666666" points="688.38,-128.5 553.88,-128.5 553.88,-98 688.38,-98 688.38,-128.5"/>
<text text-anchor="start" x="561.88" y="-115" font-family="Helvetica,sans-Serif" font-size="10.00">ml::maths::common::</text>
<text text-anchor="middle" x="621.12" y="-103.75" font-family="Helvetica,sans-Serif" font-size="10.00">CLogTDistribution::location</text>
</a>
</g>
</g>
<!-- Node4&#45;&gt;Node6 -->
<g id="edge5_Node000004_Node000006" class="edge">
<title>Node4&#45;&gt;Node6</title>
<g id="a_edge5_Node000004_Node000006"><a xlink:title=" ">
<path fill="none" stroke="#63b8ff" d="M517.96,-98.06C525.91,-99.24 534.07,-100.45 542.16,-101.66"/>
<polygon fill="#63b8ff" stroke="#63b8ff" points="541.62,-105.11 552.02,-103.12 542.65,-98.19 541.62,-105.11"/>
</a>
</g>
</g>
<!-- Node7 -->
<g id="Node000007" class="node">
<title>Node7</title>
<g id="a_Node000007"><a xlink:href="../../dd/d55/classml_1_1maths_1_1common_1_1_c_tools.html#aa0600053da91719428498ec9968916c3" target="_top" xlink:title="Compute .">
<polygon fill="white" stroke="#666666" points="675.62,-79.5 566.62,-79.5 566.62,-49 675.62,-49 675.62,-79.5"/>
<text text-anchor="start" x="574.62" y="-66" font-family="Helvetica,sans-Serif" font-size="10.00">ml::maths::common::</text>
<text text-anchor="middle" x="621.12" y="-54.75" font-family="Helvetica,sans-Serif" font-size="10.00">CTools::pow2</text>
</a>
</g>
</g>
<!-- Node4&#45;&gt;Node7 -->
<g id="edge6_Node000004_Node000007" class="edge">
<title>Node4&#45;&gt;Node7</title>
<g id="a_edge6_Node000004_Node000007"><a xlink:title=" ">
<path fill="none" stroke="#63b8ff" d="M517.96,-78.83C530.22,-77.08 543.01,-75.26 555.24,-73.51"/>
<polygon fill="#63b8ff" stroke="#63b8ff" points="555.37,-77.03 564.77,-72.15 554.38,-70.1 555.37,-77.03"/>
</a>
</g>
</g>
<!-- Node8 -->
<g id="Node000008" class="node">
<title>Node8</title>
<g id="a_Node000008"><a xlink:href="../../d0/d1c/classml_1_1maths_1_1common_1_1_c_log_t_distribution.html#a8f03f27080a2f59d3da535b4b4f228ef" target="_top" xlink:title=" ">
<polygon fill="white" stroke="#666666" points="683.12,-30.5 559.12,-30.5 559.12,0 683.12,0 683.12,-30.5"/>
<text text-anchor="start" x="567.12" y="-17" font-family="Helvetica,sans-Serif" font-size="10.00">ml::maths::common::</text>
<text text-anchor="middle" x="621.12" y="-5.75" font-family="Helvetica,sans-Serif" font-size="10.00">CLogTDistribution::scale</text>
</a>
</g>
</g>
<!-- Node4&#45;&gt;Node8 -->
<g id="edge7_Node000004_Node000008" class="edge">
<title>Node4&#45;&gt;Node8</title>
<g id="a_edge7_Node000004_Node000008"><a xlink:title=" ">
<path fill="none" stroke="#63b8ff" d="M472,-78.19C492.31,-68.12 524.78,-52.41 553.5,-40.25 557.61,-38.51 561.88,-36.77 566.19,-35.05"/>
<polygon fill="#63b8ff" stroke="#63b8ff" points="567.46,-38.32 575.5,-31.42 564.91,-31.79 567.46,-38.32"/>
</a>
</g>
</g>
</g>
</svg>
