<?xml version="1.0" encoding="UTF-8" standalone="no"?>
<!DOCTYPE svg PUBLIC "-//W3C//DTD SVG 1.1//EN"
 "http://www.w3.org/Graphics/SVG/1.1/DTD/svg11.dtd">
<!-- Generated by graphviz version 10.0.1 (20240210.2158)
 -->
<!-- Title: ml::maths::common::basic_statistics_detail::SCovariancesLedoitWolf::pow2 Pages: 1 -->
<!--zoomable 152 -->

<svg id="main" version="1.1" xmlns="http://www.w3.org/2000/svg" xmlns:xlink="http://www.w3.org/1999/xlink" xml:space="preserve" onload="init(evt)">
<style type="text/css"><![CDATA[
.node, .edge {opacity: 0.7;}
.node.selected, .edge.selected {opacity: 1;}
.edge:hover path { stroke: red; }
.edge:hover polygon { stroke: red; fill: red; }
]]></style>

<defs>
  <circle id="rim" cx="0" cy="0" r="7"/>
  <circle id="rim2" cx="0" cy="0" r="3.5"/>
  <g id="zoomPlus">
    <use xlink:href="#rim" fill="#404040"><set attributeName="fill" to="#808080" begin="zoomplus.mouseover" end="zoomplus.mouseout"/></use>
    <path d="M-4,0h8M0,-4v8" fill="none" stroke="white" stroke-width="1.5" pointer-events="none"/>
  </g>
  <g id="zoomMin">
    <use xlink:href="#rim" fill="#404040"><set attributeName="fill" to="#808080" begin="zoomminus.mouseover" end="zoomminus.mouseout"/></use>
    <path d="M-4,0h8" fill="none" stroke="white" stroke-width="1.5" pointer-events="none"/>
  </g>
  <g id="arrowUp" transform="translate(30 24)">
    <use xlink:href="#rim"/>
    <path pointer-events="none" fill="none" stroke="white" stroke-width="1.5" d="M0,-3.0v7 M-2.5,-0.5L0,-3.0L2.5,-0.5"/>
  </g>
  <g id="arrowRight" transform="rotate(90) translate(36 -43)">
    <use xlink:href="#rim"/>
    <path pointer-events="none" fill="none" stroke="white" stroke-width="1.5" d="M0,-3.0v7 M-2.5,-0.5L0,-3.0L2.5,-0.5"/>
  </g>
  <g id="arrowDown" transform="rotate(180) translate(-30 -48)">
    <use xlink:href="#rim"/>
    <path pointer-events="none" fill="none" stroke="white" stroke-width="1.5" d="M0,-3.0v7 M-2.5,-0.5L0,-3.0L2.5,-0.5"/>
  </g>
  <g id="arrowLeft" transform="rotate(270) translate(-36 17)">
    <use xlink:href="#rim"/>
    <path pointer-events="none" fill="none" stroke="white" stroke-width="1.5" d="M0,-3.0v7 M-2.5,-0.5L0,-3.0L2.5,-0.5"/>
  </g>
  <g id="resetDef">
    <use xlink:href="#rim2" fill="#404040"><set attributeName="fill" to="#808080" begin="reset.mouseover" end="reset.mouseout"/></use>
  </g>
</defs>
<script type="application/ecmascript">
var viewWidth = 906;
var viewHeight = 152;
var sectionId = 'dynsection-2';
</script>
<script type="application/ecmascript" xlink:href="../../svg.min.js"/>
<svg id="graph" class="graph">
<g id="viewport">
<title>ml::maths::common::basic_statistics_detail::SCovariancesLedoitWolf::pow2</title>
<!-- Node1 -->
<g id="Node000001" class="node">
<title>Node1</title>
<g id="a_Node000001"><a xlink:title=" ">
<polygon fill="#999999" stroke="#666666" points="898.25,-91 739.75,-91 739.75,-49.25 898.25,-49.25 898.25,-91"/>
<text text-anchor="start" x="747.75" y="-77.5" font-family="Helvetica,sans-Serif" font-size="10.00">ml::maths::common::</text>
<text text-anchor="start" x="747.75" y="-66.25" font-family="Helvetica,sans-Serif" font-size="10.00">basic_statistics_detail</text>
<text text-anchor="middle" x="819" y="-55" font-family="Helvetica,sans-Serif" font-size="10.00">::SCovariancesLedoitWolf::pow2</text>
</a>
</g>
</g>
<!-- Node2 -->
<g id="Node000002" class="node">
<title>Node2</title>
<g id="a_Node000002"><a xlink:href="../../d7/dff/structml_1_1maths_1_1common_1_1basic__statistics__detail_1_1_s_covariances_ledoit_wolf.html#ae279c75f55598280f6df675efe188b66" target="_top" xlink:title=" ">
<polygon fill="white" stroke="#666666" points="684.25,-135.62 555,-135.62 555,-82.62 684.25,-82.62 684.25,-135.62"/>
<text text-anchor="start" x="563" y="-122.12" font-family="Helvetica,sans-Serif" font-size="10.00">ml::maths::common::</text>
<text text-anchor="start" x="563" y="-110.88" font-family="Helvetica,sans-Serif" font-size="10.00">basic_statistics_detail</text>
<text text-anchor="start" x="563" y="-99.62" font-family="Helvetica,sans-Serif" font-size="10.00">::SCovariancesLedoitWolf</text>
<text text-anchor="middle" x="619.62" y="-88.38" font-family="Helvetica,sans-Serif" font-size="10.00">::estimate</text>
</a>
</g>
</g>
<!-- Node1&#45;&gt;Node2 -->
<g id="edge1_Node000001_Node000002" class="edge">
<title>Node1&#45;&gt;Node2</title>
<g id="a_edge1_Node000001_Node000002"><a xlink:title=" ">
<path fill="none" stroke="#63b8ff" d="M728.26,-87.86C713.56,-90.76 698.59,-93.72 684.68,-96.47"/>
<polygon fill="#63b8ff" stroke="#63b8ff" points="728.81,-91.32 737.94,-85.94 727.45,-84.45 728.81,-91.32"/>
</a>
</g>
</g>
<!-- Node7 -->
<g id="Node000007" class="node">
<title>Node7</title>
<g id="a_Node000007"><a xlink:href="../../d9/da3/structml_1_1maths_1_1common_1_1basic__statistics__detail_1_1_s_covariances_ledoit_wolf_3_01_c_anbe712cdfdefc5a17046f288495b42801.html#ad66a68080cb46129377b0fd5c537f4c0" target="_top" xlink:title=" ">
<polygon fill="white" stroke="#666666" points="703.75,-64.25 535.5,-64.25 535.5,0 703.75,0 703.75,-64.25"/>
<text text-anchor="start" x="543.5" y="-50.75" font-family="Helvetica,sans-Serif" font-size="10.00">ml::maths::common::</text>
<text text-anchor="start" x="543.5" y="-39.5" font-family="Helvetica,sans-Serif" font-size="10.00">basic_statistics_detail</text>
<text text-anchor="start" x="543.5" y="-28.25" font-family="Helvetica,sans-Serif" font-size="10.00">::SCovariancesLedoitWolf</text>
<text text-anchor="start" x="543.5" y="-17" font-family="Helvetica,sans-Serif" font-size="10.00">&lt; CAnnotatedVector&lt; POINT,</text>
<text text-anchor="middle" x="619.62" y="-5.75" font-family="Helvetica,sans-Serif" font-size="10.00"> SCountAndVariance &gt; &gt;::estimate</text>
</a>
</g>
</g>
<!-- Node1&#45;&gt;Node7 -->
<g id="edge7_Node000001_Node000007" class="edge">
<title>Node1&#45;&gt;Node7</title>
<g id="a_edge7_Node000001_Node000007"><a xlink:title=" ">
<path fill="none" stroke="#63b8ff" d="M728.17,-52.83C720.16,-51.29 712.07,-49.73 704.11,-48.2"/>
<polygon fill="#63b8ff" stroke="#63b8ff" points="727.46,-56.26 737.94,-54.71 728.78,-49.38 727.46,-56.26"/>
</a>
</g>
</g>
<!-- Node3 -->
<g id="Node000003" class="node">
<title>Node3</title>
<g id="a_Node000003"><a xlink:href="../../d4/d55/classml_1_1maths_1_1common_1_1_c_basic_statistics.html#a869474414e0d0ea31da714ee41adee91" target="_top" xlink:title=" ">
<polygon fill="white" stroke="#666666" points="499.5,-130 351.5,-130 351.5,-88.25 499.5,-88.25 499.5,-130"/>
<text text-anchor="start" x="359.5" y="-116.5" font-family="Helvetica,sans-Serif" font-size="10.00">ml::maths::common::</text>
<text text-anchor="start" x="359.5" y="-105.25" font-family="Helvetica,sans-Serif" font-size="10.00">CBasicStatistics::covariances</text>
<text text-anchor="middle" x="425.5" y="-94" font-family="Helvetica,sans-Serif" font-size="10.00">LedoitWolf</text>
</a>
</g>
</g>
<!-- Node2&#45;&gt;Node3 -->
<g id="edge2_Node000002_Node000003" class="edge">
<title>Node2&#45;&gt;Node3</title>
<g id="a_edge2_Node000002_Node000003"><a xlink:title=" ">
<path fill="none" stroke="#63b8ff" d="M543.34,-109.12C529.03,-109.12 514.07,-109.12 499.83,-109.12"/>
<polygon fill="#63b8ff" stroke="#63b8ff" points="543.14,-112.63 553.14,-109.13 543.14,-105.63 543.14,-112.63"/>
</a>
</g>
</g>
<!-- Node4 -->
<g id="Node000004" class="node">
<title>Node4</title>
<g id="a_Node000004"><a xlink:href="../../d8/dfa/_c_basic_statistics_test_8cc.html#a5ea1badddfda2f6aa36a2b05a01c68d9" target="_top" xlink:title=" ">
<polygon fill="white" stroke="#666666" points="315.5,-143.75 168.25,-143.75 168.25,-124.5 315.5,-124.5 315.5,-143.75"/>
<text text-anchor="middle" x="241.88" y="-130.25" font-family="Helvetica,sans-Serif" font-size="10.00">BOOST_AUTO_TEST_CASE</text>
</a>
</g>
</g>
<!-- Node3&#45;&gt;Node4 -->
<g id="edge3_Node000003_Node000004" class="edge">
<title>Node3&#45;&gt;Node4</title>
<g id="a_edge3_Node000003_Node000004"><a xlink:title=" ">
<path fill="none" stroke="#63b8ff" d="M339.89,-120.77C331.88,-121.87 323.8,-122.99 315.91,-124.07"/>
<polygon fill="#63b8ff" stroke="#63b8ff" points="340.22,-124.26 349.65,-119.43 339.27,-117.32 340.22,-124.26"/>
</a>
</g>
</g>
<!-- Node5 -->
<g id="Node000005" class="node">
<title>Node5</title>
<g id="a_Node000005"><a xlink:href="../../d5/d5b/classml_1_1maths_1_1common_1_1_c_x_means_online_1_1_c_cluster.html#a9b3a8d896fbb5c2059d2014523b5c8f6" target="_top" xlink:title=" ">
<polygon fill="white" stroke="#666666" points="308,-106 175.75,-106 175.75,-64.25 308,-64.25 308,-106"/>
<text text-anchor="start" x="183.75" y="-92.5" font-family="Helvetica,sans-Serif" font-size="10.00">ml::maths::common::</text>
<text text-anchor="start" x="183.75" y="-81.25" font-family="Helvetica,sans-Serif" font-size="10.00">CXMeansOnline::CCluster</text>
<text text-anchor="middle" x="241.88" y="-70" font-family="Helvetica,sans-Serif" font-size="10.00">::splitSearch</text>
</a>
</g>
</g>
<!-- Node3&#45;&gt;Node5 -->
<g id="edge4_Node000003_Node000005" class="edge">
<title>Node3&#45;&gt;Node5</title>
<g id="a_edge4_Node000003_Node000005"><a xlink:title=" ">
<path fill="none" stroke="#63b8ff" d="M339.75,-97.93C329.19,-96.53 318.51,-95.12 308.3,-93.77"/>
<polygon fill="#63b8ff" stroke="#63b8ff" points="339.28,-101.39 349.65,-99.23 340.19,-94.45 339.28,-101.39"/>
</a>
</g>
</g>
<!-- Node6 -->
<g id="Node000006" class="node">
<title>Node6</title>
<g id="a_Node000006"><a xlink:href="../../d5/d5b/classml_1_1maths_1_1common_1_1_c_x_means_online_1_1_c_cluster.html#a810d7b339ac2d556dbad39f33378bd06" target="_top" xlink:title=" ">
<polygon fill="white" stroke="#666666" points="132.25,-106 0,-106 0,-64.25 132.25,-64.25 132.25,-106"/>
<text text-anchor="start" x="8" y="-92.5" font-family="Helvetica,sans-Serif" font-size="10.00">ml::maths::common::</text>
<text text-anchor="start" x="8" y="-81.25" font-family="Helvetica,sans-Serif" font-size="10.00">CXMeansOnline::CCluster</text>
<text text-anchor="middle" x="66.12" y="-70" font-family="Helvetica,sans-Serif" font-size="10.00">::split</text>
</a>
</g>
</g>
<!-- Node5&#45;&gt;Node6 -->
<g id="edge5_Node000005_Node000006" class="edge">
<title>Node5&#45;&gt;Node6</title>
<g id="a_edge5_Node000005_Node000006"><a xlink:title=" ">
<path fill="none" stroke="#63b8ff" d="M164.34,-85.12C153.78,-85.12 143.02,-85.12 132.68,-85.12"/>
<polygon fill="#63b8ff" stroke="#63b8ff" points="164.17,-88.63 174.17,-85.13 164.17,-81.63 164.17,-88.63"/>
</a>
</g>
</g>
<!-- Node6&#45;&gt;Node6 -->
<g id="edge6_Node000006_Node000006" class="edge">
<title>Node6&#45;&gt;Node6</title>
<g id="a_edge6_Node000006_Node000006"><a xlink:title=" ">
<path fill="none" stroke="#63b8ff" d="M95.05,-117.11C90.06,-121.26 80.41,-124 66.12,-124 41.41,-124 30.6,-115.8 33.69,-106.32"/>
<polygon fill="#63b8ff" stroke="#63b8ff" points="98.33,-118.35 98.09,-107.76 91.67,-116.18 98.33,-118.35"/>
</a>
</g>
</g>
</g>
</svg>

<g id="navigator" transform="translate(0 0)" fill="#404254">
  <rect fill="#f2f5e9" fill-opacity="0.5" stroke="#606060" stroke-width=".5" x="0" y="0" width="60" height="60"/>
  <use id="zoomplus" xlink:href="#zoomPlus" x="17" y="9" onmousedown="handleZoom(evt,'in')"/>
  <use id="zoomminus" xlink:href="#zoomMin" x="42" y="9" onmousedown="handleZoom(evt,'out')"/>
  <use id="reset" xlink:href="#resetDef" x="30" y="36" onmousedown="handleReset()"/>
   <use id="arrowup" xlink:href="#arrowUp" x="0" y="0" onmousedown="handlePan(0,-1)"/>
  <use id="arrowright" xlink:href="#arrowRight" x="0" y="0" onmousedown="handlePan(1,0)"/>
  <use id="arrowdown" xlink:href="#arrowDown" x="0" y="0" onmousedown="handlePan(0,1)"/>
  <use id="arrowleft" xlink:href="#arrowLeft" x="0" y="0" onmousedown="handlePan(-1,0)"/>
</g>
<svg viewBox="0 0 15 15" width="100%" height="30px" preserveAspectRatio="xMaxYMin meet">
 <g id="arrow_out" transform="scale(0.3 0.3)">
  <a xlink:href="structml_1_1maths_1_1common_1_1basic__statistics__detail_1_1_s_covariances_ledoit_wolf_a53c615329239b9c713014465aaa70648_icgraph_org.svg" target="_base">
   <rect id="button" ry="5" rx="5" y="6" x="6" height="38" width="38"
        fill="#f2f5e9" fill-opacity="0.5" stroke="#606060" stroke-width="1.0"/>
   <path id="arrow"
     d="M 11.500037,31.436501 C 11.940474,20.09759 22.043105,11.32322 32.158766,21.979434 L 37.068811,17.246167 C 37.068811,17.246167 37.088388,32 37.088388,32 L 22.160133,31.978069 C 22.160133,31.978069 26.997745,27.140456 26.997745,27.140456 C 18.528582,18.264221 13.291696,25.230495 11.500037,31.436501 z"
     style="fill:#404040;"/>
  </a>
 </g>
</svg>

<style type='text/css'>
<![CDATA[
[data-mouse-over-selected='false'] { opacity: 0.7; }
[data-mouse-over-selected='true']  { opacity: 1.0; }
]]>
</style>
<script type="application/ecmascript"><![CDATA[
document.addEventListener('DOMContentLoaded', (event) => {
  highlightEdges();
  highlightAdjacentNodes();
});
]]></script>
</svg>
