<?xml version="1.0" encoding="UTF-8" standalone="no"?>
<!DOCTYPE svg PUBLIC "-//W3C//DTD SVG 1.1//EN"
 "http://www.w3.org/Graphics/SVG/1.1/DTD/svg11.dtd">
<!-- Generated by graphviz version 10.0.1 (20240210.2158)
 -->
<!-- Title: ml::maths::time_series::CTrendComponent::shiftLevel Pages: 1 -->
<svg width="507pt" height="137pt"
 viewBox="0.00 0.00 506.75 136.50" xmlns="http://www.w3.org/2000/svg" xmlns:xlink="http://www.w3.org/1999/xlink">
<g id="graph0" class="graph" transform="scale(1 1) rotate(0) translate(4 132.5)">
<title>ml::maths::time_series::CTrendComponent::shiftLevel</title>
<!-- Node1 -->
<g id="Node000001" class="node">
<title>Node1</title>
<g id="a_Node000001"><a xlink:title=" ">
<polygon fill="#999999" stroke="#666666" points="498.75,-79.5 346.25,-79.5 346.25,-49 498.75,-49 498.75,-79.5"/>
<text text-anchor="start" x="354.25" y="-66" font-family="Helvetica,sans-Serif" font-size="10.00">ml::maths::time_series</text>
<text text-anchor="middle" x="422.5" y="-54.75" font-family="Helvetica,sans-Serif" font-size="10.00">::CTrendComponent::shiftLevel</text>
</a>
</g>
</g>
<!-- Node2 -->
<g id="Node000002" class="node">
<title>Node2</title>
<g id="a_Node000002"><a xlink:href="../../d8/de3/classml_1_1maths_1_1time__series_1_1_c_level_shift.html#aa91f037cd476caa68d373b75b38b14fe" target="_top" xlink:title=" ">
<polygon fill="white" stroke="#666666" points="288.88,-128.5 173.12,-128.5 173.12,-98 288.88,-98 288.88,-128.5"/>
<text text-anchor="start" x="181.12" y="-115" font-family="Helvetica,sans-Serif" font-size="10.00">ml::maths::time_series</text>
<text text-anchor="middle" x="231" y="-103.75" font-family="Helvetica,sans-Serif" font-size="10.00">::CLevelShift::apply</text>
</a>
</g>
</g>
<!-- Node1&#45;&gt;Node2 -->
<g id="edge1_Node000001_Node000002" class="edge">
<title>Node1&#45;&gt;Node2</title>
<g id="a_edge1_Node000001_Node000002"><a xlink:title=" ">
<path fill="none" stroke="#63b8ff" d="M349.8,-82.79C329.76,-87.97 308.26,-93.53 289.18,-98.47"/>
<polygon fill="#63b8ff" stroke="#63b8ff" points="350.49,-86.23 359.29,-80.34 348.74,-79.45 350.49,-86.23"/>
</a>
</g>
</g>
<!-- Node3 -->
<g id="Node000003" class="node">
<title>Node3</title>
<g id="a_Node000003"><a xlink:href="../../d1/d32/classml_1_1maths_1_1time__series_1_1_c_trend_component.html#a5e6d2c8fd3a1b551dd5a7f86340eda02" target="_top" xlink:title="Apply a linear scale by scale.">
<polygon fill="white" stroke="#666666" points="310.25,-79.5 151.75,-79.5 151.75,-49 310.25,-49 310.25,-79.5"/>
<text text-anchor="start" x="159.75" y="-66" font-family="Helvetica,sans-Serif" font-size="10.00">ml::maths::time_series</text>
<text text-anchor="middle" x="231" y="-54.75" font-family="Helvetica,sans-Serif" font-size="10.00">::CTrendComponent::linearScale</text>
</a>
</g>
</g>
<!-- Node1&#45;&gt;Node3 -->
<g id="edge2_Node000001_Node000003" class="edge">
<title>Node1&#45;&gt;Node3</title>
<g id="a_edge2_Node000001_Node000003"><a xlink:title=" ">
<path fill="none" stroke="#63b8ff" d="M334.32,-64.25C326.44,-64.25 318.49,-64.25 310.69,-64.25"/>
<polygon fill="#63b8ff" stroke="#63b8ff" points="334.27,-67.75 344.27,-64.25 334.27,-60.75 334.27,-67.75"/>
</a>
</g>
</g>
<!-- Node5 -->
<g id="Node000005" class="node">
<title>Node5</title>
<g id="a_Node000005"><a xlink:href="../../d1/d32/classml_1_1maths_1_1time__series_1_1_c_trend_component.html#af37c85788b0d77c420855df96c3f02c7" target="_top" xlink:title=" ">
<polygon fill="white" stroke="#666666" points="307.25,-30.5 154.75,-30.5 154.75,0 307.25,0 307.25,-30.5"/>
<text text-anchor="start" x="162.75" y="-17" font-family="Helvetica,sans-Serif" font-size="10.00">ml::maths::time_series</text>
<text text-anchor="middle" x="231" y="-5.75" font-family="Helvetica,sans-Serif" font-size="10.00">::CTrendComponent::shiftLevel</text>
</a>
</g>
</g>
<!-- Node1&#45;&gt;Node5 -->
<g id="edge4_Node000001_Node000005" class="edge">
<title>Node1&#45;&gt;Node5</title>
<g id="a_edge4_Node000001_Node000005"><a xlink:title=" ">
<path fill="none" stroke="#63b8ff" d="M349.85,-45.72C331.03,-40.86 310.91,-35.65 292.72,-30.95"/>
<polygon fill="#63b8ff" stroke="#63b8ff" points="348.74,-49.05 359.29,-48.16 350.49,-42.27 348.74,-49.05"/>
</a>
</g>
</g>
<!-- Node4 -->
<g id="Node000004" class="node">
<title>Node4</title>
<g id="a_Node000004"><a xlink:href="../../d9/d5e/classml_1_1maths_1_1time__series_1_1_c_scale.html#a526c3c31890f53a641409be508af0983" target="_top" xlink:title=" ">
<polygon fill="white" stroke="#666666" points="115.75,-79.5 0,-79.5 0,-49 115.75,-49 115.75,-79.5"/>
<text text-anchor="start" x="8" y="-66" font-family="Helvetica,sans-Serif" font-size="10.00">ml::maths::time_series</text>
<text text-anchor="middle" x="57.88" y="-54.75" font-family="Helvetica,sans-Serif" font-size="10.00">::CScale::apply</text>
</a>
</g>
</g>
<!-- Node3&#45;&gt;Node4 -->
<g id="edge3_Node000003_Node000004" class="edge">
<title>Node3&#45;&gt;Node4</title>
<g id="a_edge3_Node000003_Node000004"><a xlink:title=" ">
<path fill="none" stroke="#63b8ff" d="M140.03,-64.25C131.95,-64.25 123.92,-64.25 116.24,-64.25"/>
<polygon fill="#63b8ff" stroke="#63b8ff" points="139.94,-67.75 149.94,-64.25 139.94,-60.75 139.94,-67.75"/>
</a>
</g>
</g>
</g>
</svg>
