<?xml version="1.0" encoding="UTF-8" standalone="no"?>
<!DOCTYPE svg PUBLIC "-//W3C//DTD SVG 1.1//EN"
 "http://www.w3.org/Graphics/SVG/1.1/DTD/svg11.dtd">
<!-- Generated by graphviz version 10.0.1 (20240210.2158)
 -->
<!-- Title: ml::core::CLogger::CLogger Pages: 1 -->
<svg width="425pt" height="121pt"
 viewBox="0.00 0.00 425.00 120.50" xmlns="http://www.w3.org/2000/svg" xmlns:xlink="http://www.w3.org/1999/xlink">
<g id="graph0" class="graph" transform="scale(1 1) rotate(0) translate(4 116.5)">
<title>ml::core::CLogger::CLogger</title>
<!-- Node1 -->
<g id="Node000001" class="node">
<title>Node1</title>
<g id="a_Node000001"><a xlink:title="Constructor for a singleton is private.">
<polygon fill="#999999" stroke="#666666" points="100,-87.5 0,-87.5 0,-57 100,-57 100,-87.5"/>
<text text-anchor="start" x="8" y="-74" font-family="Helvetica,sans-Serif" font-size="10.00">ml::core::CLogger::</text>
<text text-anchor="middle" x="50" y="-62.75" font-family="Helvetica,sans-Serif" font-size="10.00">CLogger</text>
</a>
</g>
</g>
<!-- Node2 -->
<g id="Node000002" class="node">
<title>Node2</title>
<g id="a_Node000002"><a xlink:href="../../d7/d0b/classml_1_1core_1_1_c_crash_handler.html#abd199fb9ffcdf0d5792232110c950d16" target="_top" xlink:title=" ">
<polygon fill="white" stroke="#666666" points="260.75,-112.5 136,-112.5 136,-82 260.75,-82 260.75,-112.5"/>
<text text-anchor="start" x="144" y="-99" font-family="Helvetica,sans-Serif" font-size="10.00">ml::core::CCrashHandler</text>
<text text-anchor="middle" x="198.38" y="-87.75" font-family="Helvetica,sans-Serif" font-size="10.00">::installCrashHandler</text>
</a>
</g>
</g>
<!-- Node1&#45;&gt;Node2 -->
<g id="edge1_Node000001_Node000002" class="edge">
<title>Node1&#45;&gt;Node2</title>
<g id="a_edge1_Node000001_Node000002"><a xlink:title=" ">
<path fill="none" stroke="#63b8ff" d="M100.15,-80.64C107.97,-81.98 116.21,-83.39 124.44,-84.79"/>
<polygon fill="#63b8ff" stroke="#63b8ff" points="123.68,-88.21 134.13,-86.45 124.86,-81.31 123.68,-88.21"/>
</a>
</g>
</g>
<!-- Node3 -->
<g id="Node000003" class="node">
<title>Node3</title>
<g id="a_Node000003"><a xlink:href="../../dd/dbf/classml_1_1core_1_1_c_logger.html#a0c404e8fe9fd645334f6ed45a8be06d3" target="_top" xlink:title=" ">
<polygon fill="white" stroke="#666666" points="248.38,-63.5 148.38,-63.5 148.38,-33 248.38,-33 248.38,-63.5"/>
<text text-anchor="start" x="156.38" y="-50" font-family="Helvetica,sans-Serif" font-size="10.00">ml::core::CLogger::</text>
<text text-anchor="middle" x="198.38" y="-38.75" font-family="Helvetica,sans-Serif" font-size="10.00">reset</text>
</a>
</g>
</g>
<!-- Node1&#45;&gt;Node3 -->
<g id="edge2_Node000001_Node000003" class="edge">
<title>Node1&#45;&gt;Node3</title>
<g id="a_edge2_Node000001_Node000003"><a xlink:title=" ">
<path fill="none" stroke="#63b8ff" d="M100.15,-64.19C111.98,-62.25 124.74,-60.16 137.02,-58.15"/>
<polygon fill="#63b8ff" stroke="#63b8ff" points="137.31,-61.64 146.61,-56.57 136.18,-54.74 137.31,-61.64"/>
</a>
</g>
</g>
<!-- Node4 -->
<g id="Node000004" class="node">
<title>Node4</title>
<g id="a_Node000004"><a xlink:href="../../d9/d03/classml_1_1core_1_1_c_os_file_funcs.html#a7025edb767e792d12d4becef06d26cfb" target="_top" xlink:title=" ">
<polygon fill="white" stroke="#666666" points="417,-97.5 296.75,-97.5 296.75,-67 417,-67 417,-97.5"/>
<text text-anchor="start" x="304.75" y="-84" font-family="Helvetica,sans-Serif" font-size="10.00">ml::core::COsFileFuncs</text>
<text text-anchor="middle" x="356.88" y="-72.75" font-family="Helvetica,sans-Serif" font-size="10.00">::dup2</text>
</a>
</g>
</g>
<!-- Node3&#45;&gt;Node4 -->
<g id="edge3_Node000003_Node000004" class="edge">
<title>Node3&#45;&gt;Node4</title>
<g id="a_edge3_Node000003_Node000004"><a xlink:title=" ">
<path fill="none" stroke="#63b8ff" d="M248.46,-58.91C260.25,-61.48 273.07,-64.26 285.61,-66.98"/>
<polygon fill="#63b8ff" stroke="#63b8ff" points="284.53,-70.33 295.04,-69.03 286.01,-63.49 284.53,-70.33"/>
</a>
</g>
</g>
<!-- Node5 -->
<g id="Node000005" class="node">
<title>Node5</title>
<g id="a_Node000005"><a xlink:href="../../d1/d3c/classml_1_1core_1_1_c_process.html#ae0537aa1b2cd74a9de8033d9ad9ce6f6" target="_top" xlink:title="Access to singleton.">
<polygon fill="white" stroke="#666666" points="407.25,-30.5 306.5,-30.5 306.5,0 407.25,0 407.25,-30.5"/>
<text text-anchor="start" x="314.5" y="-17" font-family="Helvetica,sans-Serif" font-size="10.00">ml::core::CProcess</text>
<text text-anchor="middle" x="356.88" y="-5.75" font-family="Helvetica,sans-Serif" font-size="10.00">::instance</text>
</a>
</g>
</g>
<!-- Node3&#45;&gt;Node5 -->
<g id="edge4_Node000003_Node000005" class="edge">
<title>Node3&#45;&gt;Node5</title>
<g id="a_edge4_Node000003_Node000005"><a xlink:title=" ">
<path fill="none" stroke="#63b8ff" d="M248.46,-37.9C263.25,-34.78 279.66,-31.32 295.11,-28.06"/>
<polygon fill="#63b8ff" stroke="#63b8ff" points="295.61,-31.53 304.67,-26.05 294.17,-24.69 295.61,-31.53"/>
</a>
</g>
</g>
<!-- Node5&#45;&gt;Node5 -->
<g id="edge5_Node000005_Node000005" class="edge">
<title>Node5&#45;&gt;Node5</title>
<g id="a_edge5_Node000005_Node000005"><a xlink:title=" ">
<path fill="none" stroke="#63b8ff" d="M328.79,-30.99C323.06,-40.06 332.42,-48.5 356.88,-48.5 370.25,-48.5 379.11,-45.97 383.46,-42.2"/>
<polygon fill="#63b8ff" stroke="#63b8ff" points="386.9,-42.86 384.76,-32.49 379.96,-41.93 386.9,-42.86"/>
</a>
</g>
</g>
</g>
</svg>
