<?xml version="1.0" encoding="UTF-8" standalone="no"?>
<!DOCTYPE svg PUBLIC "-//W3C//DTD SVG 1.1//EN"
 "http://www.w3.org/Graphics/SVG/1.1/DTD/svg11.dtd">
<!-- Generated by graphviz version 10.0.1 (20240210.2158)
 -->
<!-- Title: include/model/CModelDetailsView.h Pages: 1 -->
<!--zoomable 459 -->

<svg id="main" version="1.1" xmlns="http://www.w3.org/2000/svg" xmlns:xlink="http://www.w3.org/1999/xlink" xml:space="preserve" onload="init(evt)">
<style type="text/css"><![CDATA[
.node, .edge {opacity: 0.7;}
.node.selected, .edge.selected {opacity: 1;}
.edge:hover path { stroke: red; }
.edge:hover polygon { stroke: red; fill: red; }
]]></style>

<defs>
  <circle id="rim" cx="0" cy="0" r="7"/>
  <circle id="rim2" cx="0" cy="0" r="3.5"/>
  <g id="zoomPlus">
    <use xlink:href="#rim" fill="#404040"><set attributeName="fill" to="#808080" begin="zoomplus.mouseover" end="zoomplus.mouseout"/></use>
    <path d="M-4,0h8M0,-4v8" fill="none" stroke="white" stroke-width="1.5" pointer-events="none"/>
  </g>
  <g id="zoomMin">
    <use xlink:href="#rim" fill="#404040"><set attributeName="fill" to="#808080" begin="zoomminus.mouseover" end="zoomminus.mouseout"/></use>
    <path d="M-4,0h8" fill="none" stroke="white" stroke-width="1.5" pointer-events="none"/>
  </g>
  <g id="arrowUp" transform="translate(30 24)">
    <use xlink:href="#rim"/>
    <path pointer-events="none" fill="none" stroke="white" stroke-width="1.5" d="M0,-3.0v7 M-2.5,-0.5L0,-3.0L2.5,-0.5"/>
  </g>
  <g id="arrowRight" transform="rotate(90) translate(36 -43)">
    <use xlink:href="#rim"/>
    <path pointer-events="none" fill="none" stroke="white" stroke-width="1.5" d="M0,-3.0v7 M-2.5,-0.5L0,-3.0L2.5,-0.5"/>
  </g>
  <g id="arrowDown" transform="rotate(180) translate(-30 -48)">
    <use xlink:href="#rim"/>
    <path pointer-events="none" fill="none" stroke="white" stroke-width="1.5" d="M0,-3.0v7 M-2.5,-0.5L0,-3.0L2.5,-0.5"/>
  </g>
  <g id="arrowLeft" transform="rotate(270) translate(-36 17)">
    <use xlink:href="#rim"/>
    <path pointer-events="none" fill="none" stroke="white" stroke-width="1.5" d="M0,-3.0v7 M-2.5,-0.5L0,-3.0L2.5,-0.5"/>
  </g>
  <g id="resetDef">
    <use xlink:href="#rim2" fill="#404040"><set attributeName="fill" to="#808080" begin="reset.mouseover" end="reset.mouseout"/></use>
  </g>
</defs>
<script type="application/ecmascript">
var viewWidth = 1443;
var viewHeight = 459;
var sectionId = 'dynsection-0';
</script>
<script type="application/ecmascript" xlink:href="../../svg.min.js"/>
<svg id="graph" class="graph">
<g id="viewport">
<title>include/model/CModelDetailsView.h</title>
<!-- Node1 -->
<g id="Node000001" class="node">
<title>Node1</title>
<g id="a_Node000001"><a xlink:title=" ">
<polygon fill="#999999" stroke="#666666" points="1341.75,-451 1198.25,-451 1198.25,-420.5 1341.75,-420.5 1341.75,-451"/>
<text text-anchor="start" x="1206.25" y="-437.5" font-family="Helvetica,sans-Serif" font-size="10.00">include/model/CModelDetails</text>
<text text-anchor="middle" x="1270" y="-426.25" font-family="Helvetica,sans-Serif" font-size="10.00">View.h</text>
</a>
</g>
</g>
<!-- Node2 -->
<g id="Node000002" class="node">
<title>Node2</title>
<g id="a_Node000002"><a xlink:href="../../db/d04/_core_types_8h.html" target="_top" xlink:title=" ">
<polygon fill="white" stroke="#666666" points="1310.62,-201.88 1217.38,-201.88 1217.38,-182.62 1310.62,-182.62 1310.62,-201.88"/>
<text text-anchor="middle" x="1264" y="-188.38" font-family="Helvetica,sans-Serif" font-size="10.00">core/CoreTypes.h</text>
</a>
</g>
</g>
<!-- Node1&#45;&gt;Node2 -->
<g id="edge1_Node000001_Node000002" class="edge">
<title>Node1&#45;&gt;Node2</title>
<g id="a_edge1_Node000001_Node000002"><a xlink:title=" ">
<path fill="none" stroke="#63b8ff" d="M1269.63,-420.01C1268.61,-378.63 1265.69,-261.36 1264.51,-213.73"/>
<polygon fill="#63b8ff" stroke="#63b8ff" points="1268.01,-213.69 1264.26,-203.78 1261.01,-213.87 1268.01,-213.69"/>
</a>
</g>
</g>
<!-- Node4 -->
<g id="Node000004" class="node">
<title>Node4</title>
<g id="a_Node000004"><a xlink:href="../../de/d8d/model_2_import_export_8h.html" target="_top" xlink:title=" ">
<polygon fill="white" stroke="#666666" points="137.88,-323.62 28.12,-323.62 28.12,-304.38 137.88,-304.38 137.88,-323.62"/>
<text text-anchor="middle" x="83" y="-310.12" font-family="Helvetica,sans-Serif" font-size="10.00">model/ImportExport.h</text>
</a>
</g>
</g>
<!-- Node1&#45;&gt;Node4 -->
<g id="edge3_Node000001_Node000004" class="edge">
<title>Node1&#45;&gt;Node4</title>
<g id="a_edge3_Node000001_Node000004"><a xlink:title=" ">
<path fill="none" stroke="#63b8ff" d="M1198.06,-430.7C1019.98,-420.09 544.6,-388.13 152,-329.25 146.32,-328.4 140.41,-327.38 134.54,-326.29"/>
<polygon fill="#63b8ff" stroke="#63b8ff" points="135.34,-322.88 124.85,-324.4 134,-329.75 135.34,-322.88"/>
</a>
</g>
</g>
<!-- Node5 -->
<g id="Node000005" class="node">
<title>Node5</title>
<g id="a_Node000005"><a xlink:href="../../df/d27/_model_types_8h.html" target="_top" xlink:title=" ">
<polygon fill="white" stroke="#666666" points="1008,-384.5 902,-384.5 902,-365.25 1008,-365.25 1008,-384.5"/>
<text text-anchor="middle" x="955" y="-371" font-family="Helvetica,sans-Serif" font-size="10.00">model/ModelTypes.h</text>
</a>
</g>
</g>
<!-- Node1&#45;&gt;Node5 -->
<g id="edge4_Node000001_Node000005" class="edge">
<title>Node1&#45;&gt;Node5</title>
<g id="a_edge4_Node000001_Node000005"><a xlink:title=" ">
<path fill="none" stroke="#63b8ff" d="M1198.13,-421.32C1142.64,-410.95 1066.78,-396.77 1014.63,-387.02"/>
<polygon fill="#63b8ff" stroke="#63b8ff" points="1015.52,-383.63 1005.04,-385.23 1014.23,-390.51 1015.52,-383.63"/>
</a>
</g>
</g>
<!-- Node9 -->
<g id="Node000009" class="node">
<title>Node9</title>
<g id="a_Node000009"><a xlink:title=" ">
<polygon fill="#e0e0e0" stroke="#999999" points="1002.12,-135.38 953.88,-135.38 953.88,-116.12 1002.12,-116.12 1002.12,-135.38"/>
<text text-anchor="middle" x="978" y="-121.88" font-family="Helvetica,sans-Serif" font-size="10.00">cstddef</text>
</a>
</g>
</g>
<!-- Node1&#45;&gt;Node9 -->
<g id="edge50_Node000001_Node000009" class="edge">
<title>Node1&#45;&gt;Node9</title>
<g id="a_edge50_Node000001_Node000009"><a xlink:title=" ">
<path fill="none" stroke="#63b8ff" d="M1285.31,-420.07C1305.64,-398.92 1339,-357.71 1339,-315 1339,-315 1339,-315 1339,-252.12 1339,-217.68 1345.84,-199.77 1320,-177 1270.45,-133.34 1089.62,-154.63 1025,-141 1021.13,-140.18 1017.12,-139.19 1013.14,-138.12"/>
<polygon fill="#63b8ff" stroke="#63b8ff" points="1014.22,-134.79 1003.64,-135.38 1012.28,-141.52 1014.22,-134.79"/>
</a>
</g>
</g>
<!-- Node14 -->
<g id="Node000014" class="node">
<title>Node14</title>
<g id="a_Node000014"><a xlink:title=" ">
<polygon fill="#e0e0e0" stroke="#999999" points="740.5,-74.5 697.5,-74.5 697.5,-55.25 740.5,-55.25 740.5,-74.5"/>
<text text-anchor="middle" x="719" y="-61" font-family="Helvetica,sans-Serif" font-size="10.00">vector</text>
</a>
</g>
</g>
<!-- Node1&#45;&gt;Node14 -->
<g id="edge54_Node000001_Node000014" class="edge">
<title>Node1&#45;&gt;Node14</title>
<g id="a_edge54_Node000001_Node000014"><a xlink:title=" ">
<path fill="none" stroke="#63b8ff" d="M1297,-420.02C1328.7,-400.53 1377,-362.95 1377,-315 1377,-315 1377,-315 1377,-191.25 1377,-140.1 1341.55,-131.71 1295,-110.5 1197.23,-65.95 859.69,-64.71 752.17,-65.49"/>
<polygon fill="#63b8ff" stroke="#63b8ff" points="752.28,-61.99 742.31,-65.58 752.34,-68.99 752.28,-61.99"/>
</a>
</g>
</g>
<!-- Node23 -->
<g id="Node000023" class="node">
<title>Node23</title>
<g id="a_Node000023"><a xlink:title=" ">
<polygon fill="#e0e0e0" stroke="#999999" points="58,-74.5 18,-74.5 18,-55.25 58,-55.25 58,-74.5"/>
<text text-anchor="middle" x="38" y="-61" font-family="Helvetica,sans-Serif" font-size="10.00">string</text>
</a>
</g>
</g>
<!-- Node1&#45;&gt;Node23 -->
<g id="edge52_Node000001_Node000023" class="edge">
<title>Node1&#45;&gt;Node23</title>
<g id="a_edge52_Node000001_Node000023"><a xlink:title=" ">
<path fill="none" stroke="#63b8ff" d="M1198.08,-431.77C929.42,-420.16 0,-375.63 0,-315 0,-315 0,-315 0,-191.25 0,-152.16 17.13,-109.04 28.39,-84.93"/>
<polygon fill="#63b8ff" stroke="#63b8ff" points="31.46,-86.6 32.68,-76.08 25.17,-83.55 31.46,-86.6"/>
</a>
</g>
</g>
<!-- Node29 -->
<g id="Node000029" class="node">
<title>Node29</title>
<g id="a_Node000029"><a xlink:title=" ">
<polygon fill="#e0e0e0" stroke="#999999" points="1199.62,-201.88 1160.38,-201.88 1160.38,-182.62 1199.62,-182.62 1199.62,-201.88"/>
<text text-anchor="middle" x="1180" y="-188.38" font-family="Helvetica,sans-Serif" font-size="10.00">utility</text>
</a>
</g>
</g>
<!-- Node1&#45;&gt;Node29 -->
<g id="edge53_Node000001_Node000029" class="edge">
<title>Node1&#45;&gt;Node29</title>
<g id="a_edge53_Node000001_Node000029"><a xlink:title=" ">
<path fill="none" stroke="#63b8ff" d="M1264.51,-420.01C1248.99,-378.37 1204.82,-259.85 1187.3,-212.83"/>
<polygon fill="#63b8ff" stroke="#63b8ff" points="1190.66,-211.83 1183.89,-203.69 1184.1,-214.28 1190.66,-211.83"/>
</a>
</g>
</g>
<!-- Node34 -->
<g id="Node000034" class="node">
<title>Node34</title>
<g id="a_Node000034"><a xlink:title=" ">
<polygon fill="#e0e0e0" stroke="#999999" points="1434.75,-384.5 1405.25,-384.5 1405.25,-365.25 1434.75,-365.25 1434.75,-384.5"/>
<text text-anchor="middle" x="1420" y="-371" font-family="Helvetica,sans-Serif" font-size="10.00">set</text>
</a>
</g>
</g>
<!-- Node1&#45;&gt;Node34 -->
<g id="edge51_Node000001_Node000034" class="edge">
<title>Node1&#45;&gt;Node34</title>
<g id="a_edge51_Node000001_Node000034"><a xlink:title=" ">
<path fill="none" stroke="#63b8ff" d="M1307.46,-420.05C1334.46,-409.45 1370.2,-395.42 1394.09,-386.05"/>
<polygon fill="#63b8ff" stroke="#63b8ff" points="1395.33,-389.32 1403.36,-382.41 1392.77,-382.8 1395.33,-389.32"/>
</a>
</g>
</g>
<!-- Node3 -->
<g id="Node000003" class="node">
<title>Node3</title>
<g id="a_Node000003"><a xlink:title=" ">
<polygon fill="#e0e0e0" stroke="#999999" points="1285.5,-135.38 1242.5,-135.38 1242.5,-116.12 1285.5,-116.12 1285.5,-135.38"/>
<text text-anchor="middle" x="1264" y="-121.88" font-family="Helvetica,sans-Serif" font-size="10.00">time.h</text>
</a>
</g>
</g>
<!-- Node2&#45;&gt;Node3 -->
<g id="edge2_Node000002_Node000003" class="edge">
<title>Node2&#45;&gt;Node3</title>
<g id="a_edge2_Node000002_Node000003"><a xlink:title=" ">
<path fill="none" stroke="#63b8ff" d="M1264,-182.28C1264,-173.23 1264,-158.95 1264,-147.13"/>
<polygon fill="#63b8ff" stroke="#63b8ff" points="1267.5,-147.16 1264,-137.16 1260.5,-147.16 1267.5,-147.16"/>
</a>
</g>
</g>
<!-- Node5&#45;&gt;Node2 -->
<g id="edge14_Node000005_Node000002" class="edge">
<title>Node5&#45;&gt;Node2</title>
<g id="a_edge14_Node000005_Node000002"><a xlink:title=" ">
<path fill="none" stroke="#63b8ff" d="M1008.31,-368.83C1046.05,-363.39 1096.74,-352.19 1136,-329.25 1187.86,-298.95 1231.69,-241.29 1251.96,-211.73"/>
<polygon fill="#63b8ff" stroke="#63b8ff" points="1254.83,-213.73 1257.49,-203.47 1249.02,-209.83 1254.83,-213.73"/>
</a>
</g>
</g>
<!-- Node5&#45;&gt;Node4 -->
<g id="edge46_Node000005_Node000004" class="edge">
<title>Node5&#45;&gt;Node4</title>
<g id="a_edge46_Node000005_Node000004"><a xlink:title=" ">
<path fill="none" stroke="#63b8ff" d="M901.66,-373.63C772.47,-372.46 432.72,-365.83 152,-329.25 145.86,-328.45 139.45,-327.41 133.12,-326.25"/>
<polygon fill="#63b8ff" stroke="#63b8ff" points="133.84,-322.83 123.36,-324.37 132.51,-329.7 133.84,-322.83"/>
</a>
</g>
</g>
<!-- Node6 -->
<g id="Node000006" class="node">
<title>Node6</title>
<g id="a_Node000006"><a xlink:href="../../d5/d39/_c_small_vector_8h.html" target="_top" xlink:title=" ">
<polygon fill="white" stroke="#666666" points="438,-262.75 332,-262.75 332,-243.5 438,-243.5 438,-262.75"/>
<text text-anchor="middle" x="385" y="-249.25" font-family="Helvetica,sans-Serif" font-size="10.00">core/CSmallVector.h</text>
</a>
</g>
</g>
<!-- Node5&#45;&gt;Node6 -->
<g id="edge5_Node000005_Node000006" class="edge">
<title>Node5&#45;&gt;Node6</title>
<g id="a_edge5_Node000005_Node000006"><a xlink:title=" ">
<path fill="none" stroke="#63b8ff" d="M911.69,-364.78C809.21,-343.25 552.02,-289.21 439.33,-265.54"/>
<polygon fill="#63b8ff" stroke="#63b8ff" points="440.23,-262.15 429.73,-263.52 438.79,-269 440.23,-262.15"/>
</a>
</g>
</g>
<!-- Node15 -->
<g id="Node000015" class="node">
<title>Node15</title>
<g id="a_Node000015"><a xlink:href="../../d9/d32/_maths_types_8h.html" target="_top" xlink:title=" ">
<polygon fill="white" stroke="#666666" points="923,-262.75 775,-262.75 775,-243.5 923,-243.5 923,-262.75"/>
<text text-anchor="middle" x="849" y="-249.25" font-family="Helvetica,sans-Serif" font-size="10.00">maths/common/MathsTypes.h</text>
</a>
</g>
</g>
<!-- Node5&#45;&gt;Node15 -->
<g id="edge15_Node000005_Node000015" class="edge">
<title>Node5&#45;&gt;Node15</title>
<g id="a_edge15_Node000005_Node000015"><a xlink:title=" ">
<path fill="none" stroke="#63b8ff" d="M922.93,-364.79C904.31,-357.93 881.85,-346.65 868,-329.25 855.45,-313.48 851.08,-290.44 849.62,-274.04"/>
<polygon fill="#63b8ff" stroke="#63b8ff" points="853.14,-274.31 849.06,-264.53 846.15,-274.72 853.14,-274.31"/>
</a>
</g>
</g>
<!-- Node5&#45;&gt;Node23 -->
<g id="edge48_Node000005_Node000023" class="edge">
<title>Node5&#45;&gt;Node23</title>
<g id="a_edge48_Node000005_Node000023"><a xlink:title=" ">
<path fill="none" stroke="#63b8ff" d="M901.52,-372.09C725.98,-365.04 172,-333.04 57,-207.5 26.5,-174.21 29.77,-116.67 34.2,-86.19"/>
<polygon fill="#63b8ff" stroke="#63b8ff" points="37.64,-86.86 35.83,-76.42 30.73,-85.71 37.64,-86.86"/>
</a>
</g>
</g>
<!-- Node5&#45;&gt;Node29 -->
<g id="edge49_Node000005_Node000029" class="edge">
<title>Node5&#45;&gt;Node29</title>
<g id="a_edge49_Node000005_Node000029"><a xlink:title=" ">
<path fill="none" stroke="#63b8ff" d="M1008.44,-369.58C1041.43,-364.49 1082.87,-353.39 1112,-329.25 1131.27,-313.28 1159.31,-246.34 1172.55,-212.71"/>
<polygon fill="#63b8ff" stroke="#63b8ff" points="1175.67,-214.34 1176.03,-203.75 1169.14,-211.8 1175.67,-214.34"/>
</a>
</g>
</g>
<!-- Node30 -->
<g id="Node000030" class="node">
<title>Node30</title>
<g id="a_Node000030"><a xlink:href="../../db/d19/_c_time_series_multibucket_features_fwd_8h.html" target="_top" xlink:title=" ">
<polygon fill="white" stroke="#666666" points="1033.12,-329.25 876.88,-329.25 876.88,-298.75 1033.12,-298.75 1033.12,-329.25"/>
<text text-anchor="start" x="884.88" y="-315.75" font-family="Helvetica,sans-Serif" font-size="10.00">maths/time_series/CTimeSeries</text>
<text text-anchor="middle" x="955" y="-304.5" font-family="Helvetica,sans-Serif" font-size="10.00">MultibucketFeaturesFwd.h</text>
</a>
</g>
</g>
<!-- Node5&#45;&gt;Node30 -->
<g id="edge38_Node000005_Node000030" class="edge">
<title>Node5&#45;&gt;Node30</title>
<g id="a_edge38_Node000005_Node000030"><a xlink:title=" ">
<path fill="none" stroke="#63b8ff" d="M955,-364.93C955,-358.48 955,-349.41 955,-340.76"/>
<polygon fill="#63b8ff" stroke="#63b8ff" points="958.5,-341.05 955,-331.05 951.5,-341.05 958.5,-341.05"/>
</a>
</g>
</g>
<!-- Node33 -->
<g id="Node000033" class="node">
<title>Node33</title>
<g id="a_Node000033"><a xlink:title=" ">
<polygon fill="#e0e0e0" stroke="#999999" points="1102.62,-323.62 1051.38,-323.62 1051.38,-304.38 1102.62,-304.38 1102.62,-323.62"/>
<text text-anchor="middle" x="1077" y="-310.12" font-family="Helvetica,sans-Serif" font-size="10.00">memory</text>
</a>
</g>
</g>
<!-- Node5&#45;&gt;Node33 -->
<g id="edge47_Node000005_Node000033" class="edge">
<title>Node5&#45;&gt;Node33</title>
<g id="a_edge47_Node000005_Node000033"><a xlink:title=" ">
<path fill="none" stroke="#63b8ff" d="M973.8,-364.8C993.64,-355.23 1025.19,-340 1048.18,-328.91"/>
<polygon fill="#63b8ff" stroke="#63b8ff" points="1049.54,-332.14 1057.02,-324.64 1046.49,-325.84 1049.54,-332.14"/>
</a>
</g>
</g>
<!-- Node7 -->
<g id="Node000007" class="node">
<title>Node7</title>
<g id="a_Node000007"><a xlink:href="../../dd/dc4/_c_small_vector_fwd_8h.html" target="_top" xlink:title=" ">
<polygon fill="white" stroke="#666666" points="724.75,-201.88 599.25,-201.88 599.25,-182.62 724.75,-182.62 724.75,-201.88"/>
<text text-anchor="middle" x="662" y="-188.38" font-family="Helvetica,sans-Serif" font-size="10.00">core/CSmallVectorFwd.h</text>
</a>
</g>
</g>
<!-- Node6&#45;&gt;Node7 -->
<g id="edge6_Node000006_Node000007" class="edge">
<title>Node6&#45;&gt;Node7</title>
<g id="a_edge6_Node000006_Node000007"><a xlink:title=" ">
<path fill="none" stroke="#63b8ff" d="M427.67,-243.05C476.17,-232.75 555.41,-215.91 608.12,-204.7"/>
<polygon fill="#63b8ff" stroke="#63b8ff" points="608.74,-208.15 617.8,-202.65 607.29,-201.3 608.74,-208.15"/>
</a>
</g>
</g>
<!-- Node10 -->
<g id="Node000010" class="node">
<title>Node10</title>
<g id="a_Node000010"><a xlink:title=" ">
<polygon fill="#e0e0e0" stroke="#999999" points="175.5,-207.5 66.5,-207.5 66.5,-177 175.5,-177 175.5,-207.5"/>
<text text-anchor="start" x="74.5" y="-194" font-family="Helvetica,sans-Serif" font-size="10.00">boost/container/small</text>
<text text-anchor="middle" x="121" y="-182.75" font-family="Helvetica,sans-Serif" font-size="10.00">_vector.hpp</text>
</a>
</g>
</g>
<!-- Node6&#45;&gt;Node10 -->
<g id="edge9_Node000006_Node000010" class="edge">
<title>Node6&#45;&gt;Node10</title>
<g id="a_edge9_Node000006_Node000010"><a xlink:title=" ">
<path fill="none" stroke="#63b8ff" d="M344.33,-243.05C302.46,-233.72 236.56,-219.02 187.17,-208.01"/>
<polygon fill="#63b8ff" stroke="#63b8ff" points="187.95,-204.59 177.43,-205.83 186.43,-211.43 187.95,-204.59"/>
</a>
</g>
</g>
<!-- Node11 -->
<g id="Node000011" class="node">
<title>Node11</title>
<g id="a_Node000011"><a xlink:title=" ">
<polygon fill="#e0e0e0" stroke="#999999" points="266.12,-201.88 193.88,-201.88 193.88,-182.62 266.12,-182.62 266.12,-201.88"/>
<text text-anchor="middle" x="230" y="-188.38" font-family="Helvetica,sans-Serif" font-size="10.00">initializer_list</text>
</a>
</g>
</g>
<!-- Node6&#45;&gt;Node11 -->
<g id="edge10_Node000006_Node000011" class="edge">
<title>Node6&#45;&gt;Node11</title>
<g id="a_edge10_Node000006_Node000011"><a xlink:title=" ">
<path fill="none" stroke="#63b8ff" d="M361.12,-243.05C335.29,-233.24 293.88,-217.51 264.51,-206.36"/>
<polygon fill="#63b8ff" stroke="#63b8ff" points="265.91,-203.15 255.32,-202.87 263.43,-209.69 265.91,-203.15"/>
</a>
</g>
</g>
<!-- Node12 -->
<g id="Node000012" class="node">
<title>Node12</title>
<g id="a_Node000012"><a xlink:title=" ">
<polygon fill="#e0e0e0" stroke="#999999" points="335.62,-201.88 284.38,-201.88 284.38,-182.62 335.62,-182.62 335.62,-201.88"/>
<text text-anchor="middle" x="310" y="-188.38" font-family="Helvetica,sans-Serif" font-size="10.00">ostream</text>
</a>
</g>
</g>
<!-- Node6&#45;&gt;Node12 -->
<g id="edge11_Node000006_Node000012" class="edge">
<title>Node6&#45;&gt;Node12</title>
<g id="a_edge11_Node000006_Node000012"><a xlink:title=" ">
<path fill="none" stroke="#63b8ff" d="M373.61,-243.18C362.16,-234.19 344.25,-220.14 330.35,-209.23"/>
<polygon fill="#63b8ff" stroke="#63b8ff" points="332.72,-206.63 322.69,-203.21 328.39,-212.14 332.72,-206.63"/>
</a>
</g>
</g>
<!-- Node13 -->
<g id="Node000013" class="node">
<title>Node13</title>
<g id="a_Node000013"><a xlink:title=" ">
<polygon fill="#e0e0e0" stroke="#999999" points="415.88,-201.88 354.12,-201.88 354.12,-182.62 415.88,-182.62 415.88,-201.88"/>
<text text-anchor="middle" x="385" y="-188.38" font-family="Helvetica,sans-Serif" font-size="10.00">type_traits</text>
</a>
</g>
</g>
<!-- Node6&#45;&gt;Node13 -->
<g id="edge12_Node000006_Node000013" class="edge">
<title>Node6&#45;&gt;Node13</title>
<g id="a_edge12_Node000006_Node000013"><a xlink:title=" ">
<path fill="none" stroke="#63b8ff" d="M385,-243.18C385,-235.4 385,-223.83 385,-213.78"/>
<polygon fill="#63b8ff" stroke="#63b8ff" points="388.5,-213.79 385,-203.79 381.5,-213.79 388.5,-213.79"/>
</a>
</g>
</g>
<!-- Node6&#45;&gt;Node14 -->
<g id="edge13_Node000006_Node000014" class="edge">
<title>Node6&#45;&gt;Node14</title>
<g id="a_edge13_Node000006_Node000014"><a xlink:title=" ">
<path fill="none" stroke="#63b8ff" d="M394.99,-243.01C403.83,-234.52 416.6,-221.14 425,-207.5 449.28,-168.08 427.14,-139.79 463,-110.5 496.65,-83.01 624.64,-71.62 685.92,-67.67"/>
<polygon fill="#63b8ff" stroke="#63b8ff" points="685.96,-71.17 695.72,-67.07 685.53,-64.19 685.96,-71.17"/>
</a>
</g>
</g>
<!-- Node8 -->
<g id="Node000008" class="node">
<title>Node8</title>
<g id="a_Node000008"><a xlink:title=" ">
<polygon fill="#e0e0e0" stroke="#999999" points="715.75,-141 590.25,-141 590.25,-110.5 715.75,-110.5 715.75,-141"/>
<text text-anchor="start" x="598.25" y="-127.5" font-family="Helvetica,sans-Serif" font-size="10.00">boost/container/container</text>
<text text-anchor="middle" x="653" y="-116.25" font-family="Helvetica,sans-Serif" font-size="10.00">_fwd.hpp</text>
</a>
</g>
</g>
<!-- Node7&#45;&gt;Node8 -->
<g id="edge7_Node000007_Node000008" class="edge">
<title>Node7&#45;&gt;Node8</title>
<g id="a_edge7_Node000007_Node000008"><a xlink:title=" ">
<path fill="none" stroke="#63b8ff" d="M660.75,-182.28C659.67,-174.54 658.05,-162.95 656.57,-152.37"/>
<polygon fill="#63b8ff" stroke="#63b8ff" points="660.06,-152.01 655.21,-142.59 653.13,-152.98 660.06,-152.01"/>
</a>
</g>
</g>
<!-- Node7&#45;&gt;Node9 -->
<g id="edge8_Node000007_Node000009" class="edge">
<title>Node7&#45;&gt;Node9</title>
<g id="a_edge8_Node000007_Node000009"><a xlink:title=" ">
<path fill="none" stroke="#63b8ff" d="M706.6,-182.15C769.95,-169.22 884.7,-145.79 942.58,-133.98"/>
<polygon fill="#63b8ff" stroke="#63b8ff" points="943.12,-137.44 952.22,-132.01 941.72,-130.58 943.12,-137.44"/>
</a>
</g>
</g>
<!-- Node15&#45;&gt;Node2 -->
<g id="edge31_Node000015_Node000002" class="edge">
<title>Node15&#45;&gt;Node2</title>
<g id="a_edge31_Node000015_Node000002"><a xlink:title=" ">
<path fill="none" stroke="#63b8ff" d="M923.21,-245.77C996.31,-238.85 1110.95,-226.2 1209,-207.5 1212.85,-206.77 1216.82,-205.92 1220.8,-205.01"/>
<polygon fill="#63b8ff" stroke="#63b8ff" points="1221.51,-208.44 1230.41,-202.68 1219.86,-201.63 1221.51,-208.44"/>
</a>
</g>
</g>
<!-- Node15&#45;&gt;Node7 -->
<g id="edge30_Node000015_Node000007" class="edge">
<title>Node15&#45;&gt;Node7</title>
<g id="a_edge30_Node000015_Node000007"><a xlink:title=" ">
<path fill="none" stroke="#63b8ff" d="M820.19,-243.05C788.48,-233.07 737.3,-216.96 701.78,-205.77"/>
<polygon fill="#63b8ff" stroke="#63b8ff" points="702.87,-202.45 692.29,-202.79 700.77,-209.13 702.87,-202.45"/>
</a>
</g>
</g>
<!-- Node15&#45;&gt;Node9 -->
<g id="edge34_Node000015_Node000009" class="edge">
<title>Node15&#45;&gt;Node9</title>
<g id="a_edge34_Node000015_Node000009"><a xlink:title=" ">
<path fill="none" stroke="#63b8ff" d="M854.24,-243.03C863.14,-228.08 882.37,-197.88 904,-177 918.34,-163.16 936.91,-150.56 951.86,-141.44"/>
<polygon fill="#63b8ff" stroke="#63b8ff" points="953.41,-144.59 960.23,-136.48 949.84,-138.57 953.41,-144.59"/>
</a>
</g>
</g>
<!-- Node15&#45;&gt;Node14 -->
<g id="edge37_Node000015_Node000014" class="edge">
<title>Node15&#45;&gt;Node14</title>
<g id="a_edge37_Node000015_Node000014"><a xlink:title=" ">
<path fill="none" stroke="#63b8ff" d="M851.68,-243.19C856.03,-228.98 865.15,-200.41 875,-177 881.94,-160.51 888.89,-158.41 893,-141 896.11,-127.81 901.31,-121.21 893,-110.5 875.89,-88.45 797.63,-75.42 752.11,-69.57"/>
<polygon fill="#63b8ff" stroke="#63b8ff" points="752.61,-66.11 742.26,-68.36 751.76,-73.06 752.61,-66.11"/>
</a>
</g>
</g>
<!-- Node16 -->
<g id="Node000016" class="node">
<title>Node16</title>
<g id="a_Node000016"><a xlink:href="../../dd/d59/_c_float_storage_8h.html" target="_top" xlink:title=" ">
<polygon fill="white" stroke="#666666" points="581.5,-201.88 472.5,-201.88 472.5,-182.62 581.5,-182.62 581.5,-201.88"/>
<text text-anchor="middle" x="527" y="-188.38" font-family="Helvetica,sans-Serif" font-size="10.00">core/CFloatStorage.h</text>
</a>
</g>
</g>
<!-- Node15&#45;&gt;Node16 -->
<g id="edge16_Node000015_Node000016" class="edge">
<title>Node15&#45;&gt;Node16</title>
<g id="a_edge16_Node000015_Node000016"><a xlink:title=" ">
<path fill="none" stroke="#63b8ff" d="M790.98,-243.01C738.38,-234.54 658.8,-221.2 590,-207.5 585.67,-206.64 581.18,-205.7 576.68,-204.74"/>
<polygon fill="#63b8ff" stroke="#63b8ff" points="577.58,-201.35 567.06,-202.63 576.08,-208.19 577.58,-201.35"/>
</a>
</g>
</g>
<!-- Node24 -->
<g id="Node000024" class="node">
<title>Node24</title>
<g id="a_Node000024"><a xlink:href="../../d2/de5/maths_2common_2_import_export_8h.html" target="_top" xlink:title=" ">
<polygon fill="white" stroke="#666666" points="884.5,-135.38 733.5,-135.38 733.5,-116.12 884.5,-116.12 884.5,-135.38"/>
<text text-anchor="middle" x="809" y="-121.88" font-family="Helvetica,sans-Serif" font-size="10.00">maths/common/ImportExport.h</text>
</a>
</g>
</g>
<!-- Node15&#45;&gt;Node24 -->
<g id="edge32_Node000015_Node000024" class="edge">
<title>Node15&#45;&gt;Node24</title>
<g id="a_edge32_Node000015_Node000024"><a xlink:title=" ">
<path fill="none" stroke="#63b8ff" d="M819.08,-243.14C802.03,-236.31 782.11,-225.04 772,-207.5 759.79,-186.31 776.91,-160.37 791.71,-143.71"/>
<polygon fill="#63b8ff" stroke="#63b8ff" points="794.11,-146.26 798.45,-136.6 789.03,-141.45 794.11,-146.26"/>
</a>
</g>
</g>
<!-- Node27 -->
<g id="Node000027" class="node">
<title>Node27</title>
<g id="a_Node000027"><a xlink:title=" ">
<polygon fill="#e0e0e0" stroke="#999999" points="818.88,-201.88 781.12,-201.88 781.12,-182.62 818.88,-182.62 818.88,-201.88"/>
<text text-anchor="middle" x="800" y="-188.38" font-family="Helvetica,sans-Serif" font-size="10.00">array</text>
</a>
</g>
</g>
<!-- Node15&#45;&gt;Node27 -->
<g id="edge33_Node000015_Node000027" class="edge">
<title>Node15&#45;&gt;Node27</title>
<g id="a_edge33_Node000015_Node000027"><a xlink:title=" ">
<path fill="none" stroke="#63b8ff" d="M841.56,-243.18C834.43,-234.62 823.49,-221.48 814.62,-210.82"/>
<polygon fill="#63b8ff" stroke="#63b8ff" points="817.57,-208.89 808.48,-203.44 812.19,-213.36 817.57,-208.89"/>
</a>
</g>
</g>
<!-- Node28 -->
<g id="Node000028" class="node">
<title>Node28</title>
<g id="a_Node000028"><a xlink:title=" ">
<polygon fill="#e0e0e0" stroke="#999999" points="971,-201.88 913,-201.88 913,-182.62 971,-182.62 971,-201.88"/>
<text text-anchor="middle" x="942" y="-188.38" font-family="Helvetica,sans-Serif" font-size="10.00">functional</text>
</a>
</g>
</g>
<!-- Node15&#45;&gt;Node28 -->
<g id="edge35_Node000015_Node000028" class="edge">
<title>Node15&#45;&gt;Node28</title>
<g id="a_edge35_Node000015_Node000028"><a xlink:title=" ">
<path fill="none" stroke="#63b8ff" d="M863.12,-243.18C877.74,-233.93 900.82,-219.32 918.24,-208.29"/>
<polygon fill="#63b8ff" stroke="#63b8ff" points="919.89,-211.39 926.46,-203.09 916.14,-205.48 919.89,-211.39"/>
</a>
</g>
</g>
<!-- Node15&#45;&gt;Node29 -->
<g id="edge36_Node000015_Node000029" class="edge">
<title>Node15&#45;&gt;Node29</title>
<g id="a_edge36_Node000015_Node000029"><a xlink:title=" ">
<path fill="none" stroke="#63b8ff" d="M923.36,-247.91C985.65,-242.8 1076.26,-231.64 1152,-207.5 1152.65,-207.29 1153.3,-207.07 1153.96,-206.84"/>
<polygon fill="#63b8ff" stroke="#63b8ff" points="1155.22,-210.11 1163,-202.92 1152.43,-203.69 1155.22,-210.11"/>
</a>
</g>
</g>
<!-- Node17 -->
<g id="Node000017" class="node">
<title>Node17</title>
<g id="a_Node000017"><a xlink:href="../../d9/d88/_c_string_utils_8h.html" target="_top" xlink:title=" ">
<polygon fill="white" stroke="#666666" points="415.62,-135.38 316.38,-135.38 316.38,-116.12 415.62,-116.12 415.62,-135.38"/>
<text text-anchor="middle" x="366" y="-121.88" font-family="Helvetica,sans-Serif" font-size="10.00">core/CStringUtils.h</text>
</a>
</g>
</g>
<!-- Node16&#45;&gt;Node17 -->
<g id="edge17_Node000016_Node000017" class="edge">
<title>Node16&#45;&gt;Node17</title>
<g id="a_edge17_Node000016_Node000017"><a xlink:title=" ">
<path fill="none" stroke="#63b8ff" d="M504.27,-182.15C476.83,-171.15 430.44,-152.56 399.04,-139.99"/>
<polygon fill="#63b8ff" stroke="#63b8ff" points="400.6,-136.84 390.02,-136.37 398,-143.34 400.6,-136.84"/>
</a>
</g>
</g>
<!-- Node16&#45;&gt;Node24 -->
<g id="edge27_Node000016_Node000024" class="edge">
<title>Node16&#45;&gt;Node24</title>
<g id="a_edge27_Node000016_Node000024"><a xlink:title=" ">
<path fill="none" stroke="#63b8ff" d="M566.81,-182.15C616.98,-170.67 703.29,-150.93 758.19,-138.37"/>
<polygon fill="#63b8ff" stroke="#63b8ff" points="758.95,-141.79 767.92,-136.15 757.39,-134.96 758.95,-141.79"/>
</a>
</g>
</g>
<!-- Node25 -->
<g id="Node000025" class="node">
<title>Node25</title>
<g id="a_Node000025"><a xlink:title=" ">
<polygon fill="#e0e0e0" stroke="#999999" points="572.5,-135.38 529.5,-135.38 529.5,-116.12 572.5,-116.12 572.5,-135.38"/>
<text text-anchor="middle" x="551" y="-121.88" font-family="Helvetica,sans-Serif" font-size="10.00">cmath</text>
</a>
</g>
</g>
<!-- Node16&#45;&gt;Node25 -->
<g id="edge28_Node000016_Node000025" class="edge">
<title>Node16&#45;&gt;Node25</title>
<g id="a_edge28_Node000016_Node000025"><a xlink:title=" ">
<path fill="none" stroke="#63b8ff" d="M530.34,-182.28C533.78,-173.04 539.25,-158.33 543.7,-146.38"/>
<polygon fill="#63b8ff" stroke="#63b8ff" points="546.96,-147.65 547.16,-137.06 540.4,-145.21 546.96,-147.65"/>
</a>
</g>
</g>
<!-- Node26 -->
<g id="Node000026" class="node">
<title>Node26</title>
<g id="a_Node000026"><a xlink:title=" ">
<polygon fill="#e0e0e0" stroke="#999999" points="511.62,-135.38 472.38,-135.38 472.38,-116.12 511.62,-116.12 511.62,-135.38"/>
<text text-anchor="middle" x="492" y="-121.88" font-family="Helvetica,sans-Serif" font-size="10.00">limits</text>
</a>
</g>
</g>
<!-- Node16&#45;&gt;Node26 -->
<g id="edge29_Node000016_Node000026" class="edge">
<title>Node16&#45;&gt;Node26</title>
<g id="a_edge29_Node000016_Node000026"><a xlink:title=" ">
<path fill="none" stroke="#63b8ff" d="M522.13,-182.28C517.01,-172.85 508.81,-157.72 502.25,-145.63"/>
<polygon fill="#63b8ff" stroke="#63b8ff" points="505.39,-144.09 497.55,-136.97 499.24,-147.43 505.39,-144.09"/>
</a>
</g>
</g>
<!-- Node17&#45;&gt;Node14 -->
<g id="edge26_Node000017_Node000014" class="edge">
<title>Node17&#45;&gt;Node14</title>
<g id="a_edge26_Node000017_Node000014"><a xlink:title=" ">
<path fill="none" stroke="#63b8ff" d="M404.84,-115.67C413.12,-113.86 421.83,-112.04 430,-110.5 522.3,-93.12 632.13,-77.55 685.95,-70.26"/>
<polygon fill="#63b8ff" stroke="#63b8ff" points="686.22,-73.75 695.66,-68.95 685.29,-66.81 686.22,-73.75"/>
</a>
</g>
</g>
<!-- Node18 -->
<g id="Node000018" class="node">
<title>Node18</title>
<g id="a_Node000018"><a xlink:href="../../d6/dbf/_c_i_e_e_e754_8h.html" target="_top" xlink:title=" ">
<polygon fill="white" stroke="#666666" points="486.25,-74.5 393.75,-74.5 393.75,-55.25 486.25,-55.25 486.25,-74.5"/>
<text text-anchor="middle" x="440" y="-61" font-family="Helvetica,sans-Serif" font-size="10.00">core/CIEEE754.h</text>
</a>
</g>
</g>
<!-- Node17&#45;&gt;Node18 -->
<g id="edge18_Node000017_Node000018" class="edge">
<title>Node17&#45;&gt;Node18</title>
<g id="a_edge18_Node000017_Node000018"><a xlink:title=" ">
<path fill="none" stroke="#63b8ff" d="M377.24,-115.81C388.54,-106.82 406.21,-92.76 419.92,-81.85"/>
<polygon fill="#63b8ff" stroke="#63b8ff" points="421.82,-84.81 427.47,-75.84 417.47,-79.33 421.82,-84.81"/>
</a>
</g>
</g>
<!-- Node19 -->
<g id="Node000019" class="node">
<title>Node19</title>
<g id="a_Node000019"><a xlink:href="../../dd/d0e/core_2_import_export_8h.html" target="_top" xlink:title=" ">
<polygon fill="white" stroke="#666666" points="399.12,-19.25 296.88,-19.25 296.88,0 399.12,0 399.12,-19.25"/>
<text text-anchor="middle" x="348" y="-5.75" font-family="Helvetica,sans-Serif" font-size="10.00">core/ImportExport.h</text>
</a>
</g>
</g>
<!-- Node17&#45;&gt;Node19 -->
<g id="edge24_Node000017_Node000019" class="edge">
<title>Node17&#45;&gt;Node19</title>
<g id="a_edge24_Node000017_Node000019"><a xlink:title=" ">
<path fill="none" stroke="#63b8ff" d="M364.59,-115.79C361.71,-97.54 355.1,-55.66 351.15,-30.6"/>
<polygon fill="#63b8ff" stroke="#63b8ff" points="354.66,-30.37 349.64,-21.03 347.74,-31.46 354.66,-30.37"/>
</a>
</g>
</g>
<!-- Node22 -->
<g id="Node000022" class="node">
<title>Node22</title>
<g id="a_Node000022"><a xlink:href="../../d7/dc2/_c_non_instantiatable_8h.html" target="_top" xlink:title=" ">
<polygon fill="white" stroke="#666666" points="338,-74.5 208,-74.5 208,-55.25 338,-55.25 338,-74.5"/>
<text text-anchor="middle" x="273" y="-61" font-family="Helvetica,sans-Serif" font-size="10.00">core/CNonInstantiatable.h</text>
</a>
</g>
</g>
<!-- Node17&#45;&gt;Node22 -->
<g id="edge22_Node000017_Node000022" class="edge">
<title>Node17&#45;&gt;Node22</title>
<g id="a_edge22_Node000017_Node000022"><a xlink:title=" ">
<path fill="none" stroke="#63b8ff" d="M351.88,-115.81C337.26,-106.56 314.18,-91.95 296.76,-80.92"/>
<polygon fill="#63b8ff" stroke="#63b8ff" points="298.86,-78.1 288.54,-75.71 295.11,-84.02 298.86,-78.1"/>
</a>
</g>
</g>
<!-- Node17&#45;&gt;Node23 -->
<g id="edge25_Node000017_Node000023" class="edge">
<title>Node17&#45;&gt;Node23</title>
<g id="a_edge25_Node000017_Node000023"><a xlink:title=" ">
<path fill="none" stroke="#63b8ff" d="M316.18,-115.81C247.75,-103.53 126.67,-81.79 69.53,-71.53"/>
<polygon fill="#63b8ff" stroke="#63b8ff" points="70.3,-68.12 59.84,-69.79 69.06,-75.01 70.3,-68.12"/>
</a>
</g>
</g>
<!-- Node18&#45;&gt;Node19 -->
<g id="edge19_Node000018_Node000019" class="edge">
<title>Node18&#45;&gt;Node19</title>
<g id="a_edge19_Node000018_Node000019"><a xlink:title=" ">
<path fill="none" stroke="#63b8ff" d="M424.39,-54.84C410.38,-46.73 389.57,-34.68 373.2,-25.21"/>
<polygon fill="#63b8ff" stroke="#63b8ff" points="375.4,-22.44 364.99,-20.46 371.89,-28.5 375.4,-22.44"/>
</a>
</g>
</g>
<!-- Node20 -->
<g id="Node000020" class="node">
<title>Node20</title>
<g id="a_Node000020"><a xlink:title=" ">
<polygon fill="#e0e0e0" stroke="#999999" points="525.62,-19.25 480.38,-19.25 480.38,0 525.62,0 525.62,-19.25"/>
<text text-anchor="middle" x="503" y="-5.75" font-family="Helvetica,sans-Serif" font-size="10.00">cstdint</text>
</a>
</g>
</g>
<!-- Node18&#45;&gt;Node20 -->
<g id="edge20_Node000018_Node000020" class="edge">
<title>Node18&#45;&gt;Node20</title>
<g id="a_edge20_Node000018_Node000020"><a xlink:title=" ">
<path fill="none" stroke="#63b8ff" d="M450.69,-54.84C459.7,-47.22 472.83,-36.12 483.68,-26.95"/>
<polygon fill="#63b8ff" stroke="#63b8ff" points="485.94,-29.63 491.31,-20.5 481.42,-24.28 485.94,-29.63"/>
</a>
</g>
</g>
<!-- Node21 -->
<g id="Node000021" class="node">
<title>Node21</title>
<g id="a_Node000021"><a xlink:title=" ">
<polygon fill="#e0e0e0" stroke="#999999" points="462.62,-19.25 417.38,-19.25 417.38,0 462.62,0 462.62,-19.25"/>
<text text-anchor="middle" x="440" y="-5.75" font-family="Helvetica,sans-Serif" font-size="10.00">cstring</text>
</a>
</g>
</g>
<!-- Node18&#45;&gt;Node21 -->
<g id="edge21_Node000018_Node000021" class="edge">
<title>Node18&#45;&gt;Node21</title>
<g id="a_edge21_Node000018_Node000021"><a xlink:title=" ">
<path fill="none" stroke="#63b8ff" d="M440,-55.08C440,-48.57 440,-39.42 440,-31.12"/>
<polygon fill="#63b8ff" stroke="#63b8ff" points="443.5,-31.12 440,-21.12 436.5,-31.12 443.5,-31.12"/>
</a>
</g>
</g>
<!-- Node22&#45;&gt;Node19 -->
<g id="edge23_Node000022_Node000019" class="edge">
<title>Node22&#45;&gt;Node19</title>
<g id="a_edge23_Node000022_Node000019"><a xlink:title=" ">
<path fill="none" stroke="#63b8ff" d="M285.72,-54.84C296.71,-47.04 312.84,-35.59 325.93,-26.29"/>
<polygon fill="#63b8ff" stroke="#63b8ff" points="327.85,-29.22 333.98,-20.58 323.8,-23.51 327.85,-29.22"/>
</a>
</g>
</g>
<!-- Node30&#45;&gt;Node2 -->
<g id="edge39_Node000030_Node000002" class="edge">
<title>Node30&#45;&gt;Node2</title>
<g id="a_edge39_Node000030_Node000002"><a xlink:title=" ">
<path fill="none" stroke="#63b8ff" d="M992.89,-298.32C1053.75,-274.73 1172.33,-228.77 1230.37,-206.28"/>
<polygon fill="#63b8ff" stroke="#63b8ff" points="1231.34,-209.66 1239.4,-202.79 1228.81,-203.14 1231.34,-209.66"/>
</a>
</g>
</g>
<!-- Node30&#45;&gt;Node15 -->
<g id="edge44_Node000030_Node000015" class="edge">
<title>Node30&#45;&gt;Node15</title>
<g id="a_edge44_Node000030_Node000015"><a xlink:title=" ">
<path fill="none" stroke="#63b8ff" d="M928.53,-298.3C912.23,-289.24 891.42,-277.69 875.18,-268.66"/>
<polygon fill="#63b8ff" stroke="#63b8ff" points="877.02,-265.68 866.58,-263.89 873.62,-271.8 877.02,-265.68"/>
</a>
</g>
</g>
<!-- Node30&#45;&gt;Node28 -->
<g id="edge45_Node000030_Node000028" class="edge">
<title>Node30&#45;&gt;Node28</title>
<g id="a_edge45_Node000030_Node000028"><a xlink:title=" ">
<path fill="none" stroke="#63b8ff" d="M953.41,-298.32C951.1,-277.03 946.81,-237.54 944.2,-213.51"/>
<polygon fill="#63b8ff" stroke="#63b8ff" points="947.7,-213.31 943.14,-203.74 940.74,-214.06 947.7,-213.31"/>
</a>
</g>
</g>
<!-- Node31 -->
<g id="Node000031" class="node">
<title>Node31</title>
<g id="a_Node000031"><a xlink:href="../../d6/d75/_c_linear_algebra_fwd_8h.html" target="_top" xlink:title=" ">
<polygon fill="white" stroke="#666666" points="1142.62,-207.5 989.38,-207.5 989.38,-177 1142.62,-177 1142.62,-207.5"/>
<text text-anchor="start" x="997.38" y="-194" font-family="Helvetica,sans-Serif" font-size="10.00">maths/common/CLinearAlgebra</text>
<text text-anchor="middle" x="1066" y="-182.75" font-family="Helvetica,sans-Serif" font-size="10.00">Fwd.h</text>
</a>
</g>
</g>
<!-- Node30&#45;&gt;Node31 -->
<g id="edge40_Node000030_Node000031" class="edge">
<title>Node30&#45;&gt;Node31</title>
<g id="a_edge40_Node000030_Node000031"><a xlink:title=" ">
<path fill="none" stroke="#63b8ff" d="M968.61,-298.32C987.69,-277.74 1022.55,-240.12 1044.98,-215.93"/>
<polygon fill="#63b8ff" stroke="#63b8ff" points="1047.36,-218.5 1051.6,-208.79 1042.23,-213.74 1047.36,-218.5"/>
</a>
</g>
</g>
<!-- Node31&#45;&gt;Node9 -->
<g id="edge43_Node000031_Node000009" class="edge">
<title>Node31&#45;&gt;Node9</title>
<g id="a_edge43_Node000031_Node000009"><a xlink:title=" ">
<path fill="none" stroke="#63b8ff" d="M1046.03,-176.61C1032.11,-166.41 1013.55,-152.8 999.33,-142.38"/>
<polygon fill="#63b8ff" stroke="#63b8ff" points="1001.65,-139.74 991.51,-136.65 997.51,-145.39 1001.65,-139.74"/>
</a>
</g>
</g>
<!-- Node31&#45;&gt;Node24 -->
<g id="edge41_Node000031_Node000024" class="edge">
<title>Node31&#45;&gt;Node24</title>
<g id="a_edge41_Node000031_Node000024"><a xlink:title=" ">
<path fill="none" stroke="#63b8ff" d="M1007.36,-176.53C961.53,-165.03 898.67,-149.25 856.08,-138.57"/>
<polygon fill="#63b8ff" stroke="#63b8ff" points="857.2,-135.24 846.65,-136.2 855.5,-142.03 857.2,-135.24"/>
</a>
</g>
</g>
<!-- Node32 -->
<g id="Node000032" class="node">
<title>Node32</title>
<g id="a_Node000032"><a xlink:title=" ">
<polygon fill="#e0e0e0" stroke="#999999" points="1098.38,-135.38 1033.62,-135.38 1033.62,-116.12 1098.38,-116.12 1098.38,-135.38"/>
<text text-anchor="middle" x="1066" y="-121.88" font-family="Helvetica,sans-Serif" font-size="10.00">Eigen/Core</text>
</a>
</g>
</g>
<!-- Node31&#45;&gt;Node32 -->
<g id="edge42_Node000031_Node000032" class="edge">
<title>Node31&#45;&gt;Node32</title>
<g id="a_edge42_Node000031_Node000032"><a xlink:title=" ">
<path fill="none" stroke="#63b8ff" d="M1066,-176.61C1066,-167.83 1066,-156.52 1066,-146.9"/>
<polygon fill="#63b8ff" stroke="#63b8ff" points="1069.5,-147.09 1066,-137.09 1062.5,-147.09 1069.5,-147.09"/>
</a>
</g>
</g>
</g>
</svg>

<g id="navigator" transform="translate(0 0)" fill="#404254">
  <rect fill="#f2f5e9" fill-opacity="0.5" stroke="#606060" stroke-width=".5" x="0" y="0" width="60" height="60"/>
  <use id="zoomplus" xlink:href="#zoomPlus" x="17" y="9" onmousedown="handleZoom(evt,'in')"/>
  <use id="zoomminus" xlink:href="#zoomMin" x="42" y="9" onmousedown="handleZoom(evt,'out')"/>
  <use id="reset" xlink:href="#resetDef" x="30" y="36" onmousedown="handleReset()"/>
   <use id="arrowup" xlink:href="#arrowUp" x="0" y="0" onmousedown="handlePan(0,-1)"/>
  <use id="arrowright" xlink:href="#arrowRight" x="0" y="0" onmousedown="handlePan(1,0)"/>
  <use id="arrowdown" xlink:href="#arrowDown" x="0" y="0" onmousedown="handlePan(0,1)"/>
  <use id="arrowleft" xlink:href="#arrowLeft" x="0" y="0" onmousedown="handlePan(-1,0)"/>
</g>
<svg viewBox="0 0 15 15" width="100%" height="30px" preserveAspectRatio="xMaxYMin meet">
 <g id="arrow_out" transform="scale(0.3 0.3)">
  <a xlink:href="_c_model_details_view_8h__incl_org.svg" target="_base">
   <rect id="button" ry="5" rx="5" y="6" x="6" height="38" width="38"
        fill="#f2f5e9" fill-opacity="0.5" stroke="#606060" stroke-width="1.0"/>
   <path id="arrow"
     d="M 11.500037,31.436501 C 11.940474,20.09759 22.043105,11.32322 32.158766,21.979434 L 37.068811,17.246167 C 37.068811,17.246167 37.088388,32 37.088388,32 L 22.160133,31.978069 C 22.160133,31.978069 26.997745,27.140456 26.997745,27.140456 C 18.528582,18.264221 13.291696,25.230495 11.500037,31.436501 z"
     style="fill:#404040;"/>
  </a>
 </g>
</svg>

<style type='text/css'>
<![CDATA[
[data-mouse-over-selected='false'] { opacity: 0.7; }
[data-mouse-over-selected='true']  { opacity: 1.0; }
]]>
</style>
<script type="application/ecmascript"><![CDATA[
document.addEventListener('DOMContentLoaded', (event) => {
  highlightEdges();
  highlightAdjacentNodes();
});
]]></script>
</svg>
