<?xml version="1.0" encoding="UTF-8" standalone="no"?>
<!DOCTYPE svg PUBLIC "-//W3C//DTD SVG 1.1//EN"
 "http://www.w3.org/Graphics/SVG/1.1/DTD/svg11.dtd">
<!-- Generated by graphviz version 10.0.1 (20240210.2158)
 -->
<!-- Title: ml::maths::analytics::CBoostedTree::acceptRestoreTraverser Pages: 1 -->
<svg width="553pt" height="137pt"
 viewBox="0.00 0.00 552.50 136.50" xmlns="http://www.w3.org/2000/svg" xmlns:xlink="http://www.w3.org/1999/xlink">
<g id="graph0" class="graph" transform="scale(1 1) rotate(0) translate(4 132.5)">
<title>ml::maths::analytics::CBoostedTree::acceptRestoreTraverser</title>
<!-- Node1 -->
<g id="Node000001" class="node">
<title>Node1</title>
<g id="a_Node000001"><a xlink:title="Populate the object from serialized data.">
<polygon fill="#999999" stroke="#666666" points="154.75,-85.12 0,-85.12 0,-43.38 154.75,-43.38 154.75,-85.12"/>
<text text-anchor="start" x="8" y="-71.62" font-family="Helvetica,sans-Serif" font-size="10.00">ml::maths::analytics</text>
<text text-anchor="start" x="8" y="-60.38" font-family="Helvetica,sans-Serif" font-size="10.00">::CBoostedTree::acceptRestore</text>
<text text-anchor="middle" x="77.38" y="-49.12" font-family="Helvetica,sans-Serif" font-size="10.00">Traverser</text>
</a>
</g>
</g>
<!-- Node2 -->
<g id="Node000002" class="node">
<title>Node2</title>
<g id="a_Node000002"><a xlink:href="../../d8/d6e/classml_1_1maths_1_1analytics_1_1_c_data_frame_category_encoder.html#ab182ff35c52545c0e2eeacc3a7c3cadb" target="_top" xlink:title="Populate the object from serialized data.">
<polygon fill="white" stroke="#666666" points="344.75,-85.12 190.75,-85.12 190.75,-43.38 344.75,-43.38 344.75,-85.12"/>
<text text-anchor="start" x="198.75" y="-71.62" font-family="Helvetica,sans-Serif" font-size="10.00">ml::maths::analytics</text>
<text text-anchor="start" x="198.75" y="-60.38" font-family="Helvetica,sans-Serif" font-size="10.00">::CDataFrameCategoryEncoder</text>
<text text-anchor="middle" x="267.75" y="-49.12" font-family="Helvetica,sans-Serif" font-size="10.00">::acceptRestoreTraverser</text>
</a>
</g>
</g>
<!-- Node1&#45;&gt;Node2 -->
<g id="edge1_Node000001_Node000002" class="edge">
<title>Node1&#45;&gt;Node2</title>
<g id="a_edge1_Node000001_Node000002"><a xlink:title=" ">
<path fill="none" stroke="#63b8ff" d="M154.99,-64.25C162.96,-64.25 171.09,-64.25 179.16,-64.25"/>
<polygon fill="#63b8ff" stroke="#63b8ff" points="178.99,-67.75 188.99,-64.25 178.99,-60.75 178.99,-67.75"/>
</a>
</g>
</g>
<!-- Node3 -->
<g id="Node000003" class="node">
<title>Node3</title>
<g id="a_Node000003"><a xlink:href="../../d2/d3f/classml_1_1core_1_1_c_state_restore_traverser.html#af68782b2ed0c98177d130d9196f97889" target="_top" xlink:title=" ">
<polygon fill="white" stroke="#666666" points="544.5,-128.5 380.75,-128.5 380.75,-98 544.5,-98 544.5,-128.5"/>
<text text-anchor="start" x="388.75" y="-115" font-family="Helvetica,sans-Serif" font-size="10.00">ml::core::CStateRestoreTraverser</text>
<text text-anchor="middle" x="462.62" y="-103.75" font-family="Helvetica,sans-Serif" font-size="10.00">::name</text>
</a>
</g>
</g>
<!-- Node2&#45;&gt;Node3 -->
<g id="edge2_Node000002_Node000003" class="edge">
<title>Node2&#45;&gt;Node3</title>
<g id="a_edge2_Node000002_Node000003"><a xlink:title=" ">
<path fill="none" stroke="#63b8ff" d="M344.98,-83.62C359.5,-87.3 374.65,-91.15 389.05,-94.81"/>
<polygon fill="#63b8ff" stroke="#63b8ff" points="387.87,-98.12 398.42,-97.19 389.59,-91.34 387.87,-98.12"/>
</a>
</g>
</g>
<!-- Node4 -->
<g id="Node000004" class="node">
<title>Node4</title>
<g id="a_Node000004"><a xlink:href="../../d2/d3f/classml_1_1core_1_1_c_state_restore_traverser.html#a733d8051e128c5d7421707afadb31ab7" target="_top" xlink:title=" ">
<polygon fill="white" stroke="#666666" points="544.5,-79.5 380.75,-79.5 380.75,-49 544.5,-49 544.5,-79.5"/>
<text text-anchor="start" x="388.75" y="-66" font-family="Helvetica,sans-Serif" font-size="10.00">ml::core::CStateRestoreTraverser</text>
<text text-anchor="middle" x="462.62" y="-54.75" font-family="Helvetica,sans-Serif" font-size="10.00">::next</text>
</a>
</g>
</g>
<!-- Node2&#45;&gt;Node4 -->
<g id="edge3_Node000002_Node000004" class="edge">
<title>Node2&#45;&gt;Node4</title>
<g id="a_edge3_Node000002_Node000004"><a xlink:title=" ">
<path fill="none" stroke="#63b8ff" d="M344.98,-64.25C352.92,-64.25 361.06,-64.25 369.16,-64.25"/>
<polygon fill="#63b8ff" stroke="#63b8ff" points="369.04,-67.75 379.04,-64.25 369.04,-60.75 369.04,-67.75"/>
</a>
</g>
</g>
<!-- Node5 -->
<g id="Node000005" class="node">
<title>Node5</title>
<g id="a_Node000005"><a xlink:href="../../d2/d3f/classml_1_1core_1_1_c_state_restore_traverser.html#a210456e80c83786dec276d39556fd9e4" target="_top" xlink:title=" ">
<polygon fill="white" stroke="#666666" points="544.5,-30.5 380.75,-30.5 380.75,0 544.5,0 544.5,-30.5"/>
<text text-anchor="start" x="388.75" y="-17" font-family="Helvetica,sans-Serif" font-size="10.00">ml::core::CStateRestoreTraverser</text>
<text text-anchor="middle" x="462.62" y="-5.75" font-family="Helvetica,sans-Serif" font-size="10.00">::traverseSubLevel</text>
</a>
</g>
</g>
<!-- Node2&#45;&gt;Node5 -->
<g id="edge4_Node000002_Node000005" class="edge">
<title>Node2&#45;&gt;Node5</title>
<g id="a_edge4_Node000002_Node000005"><a xlink:title=" ">
<path fill="none" stroke="#63b8ff" d="M344.98,-44.88C359.5,-41.2 374.65,-37.35 389.05,-33.69"/>
<polygon fill="#63b8ff" stroke="#63b8ff" points="389.59,-37.16 398.42,-31.31 387.87,-30.38 389.59,-37.16"/>
</a>
</g>
</g>
</g>
</svg>
