<?xml version="1.0" encoding="UTF-8" standalone="no"?>
<!DOCTYPE svg PUBLIC "-//W3C//DTD SVG 1.1//EN"
 "http://www.w3.org/Graphics/SVG/1.1/DTD/svg11.dtd">
<!-- Generated by graphviz version 10.0.1 (20240210.2158)
 -->
<!-- Title: ml::maths::common::CQuantileSketch::add Pages: 1 -->
<svg width="1196pt" height="225pt"
 viewBox="0.00 0.00 1195.50 225.12" xmlns="http://www.w3.org/2000/svg" xmlns:xlink="http://www.w3.org/1999/xlink">
<g id="graph0" class="graph" transform="scale(1 1) rotate(0) translate(4 221.12)">
<title>ml::maths::common::CQuantileSketch::add</title>
<!-- Node1 -->
<g id="Node000001" class="node">
<title>Node1</title>
<g id="a_Node000001"><a xlink:title="Add x to the sketch.">
<polygon fill="#999999" stroke="#666666" points="112,-184.5 0,-184.5 0,-154 112,-154 112,-184.5"/>
<text text-anchor="start" x="8" y="-171" font-family="Helvetica,sans-Serif" font-size="10.00">ml::maths::common::</text>
<text text-anchor="middle" x="56" y="-159.75" font-family="Helvetica,sans-Serif" font-size="10.00">CQuantileSketch::add</text>
</a>
</g>
</g>
<!-- Node2 -->
<g id="Node000002" class="node">
<title>Node2</title>
<g id="a_Node000002"><a xlink:href="../../df/d85/classml_1_1maths_1_1common_1_1_c_quantile_sketch.html#adbf1a32cb30469c679be749efc3e86ff" target="_top" xlink:title="A possibly accelerated implementation of reduce.">
<polygon fill="white" stroke="#666666" points="294.5,-184.5 148,-184.5 148,-154 294.5,-154 294.5,-184.5"/>
<text text-anchor="start" x="156" y="-171" font-family="Helvetica,sans-Serif" font-size="10.00">ml::maths::common::</text>
<text text-anchor="middle" x="221.25" y="-159.75" font-family="Helvetica,sans-Serif" font-size="10.00">CQuantileSketch::fastReduce</text>
</a>
</g>
</g>
<!-- Node1&#45;&gt;Node2 -->
<g id="edge1_Node000001_Node000002" class="edge">
<title>Node1&#45;&gt;Node2</title>
<g id="a_edge1_Node000001_Node000002"><a xlink:title=" ">
<path fill="none" stroke="#63b8ff" d="M112.27,-169.25C120,-169.25 128.09,-169.25 136.21,-169.25"/>
<polygon fill="#63b8ff" stroke="#63b8ff" points="136.16,-172.75 146.16,-169.25 136.16,-165.75 136.16,-172.75"/>
</a>
</g>
</g>
<!-- Node3 -->
<g id="Node000003" class="node">
<title>Node3</title>
<g id="a_Node000003"><a xlink:href="../../df/d85/classml_1_1maths_1_1common_1_1_c_quantile_sketch.html#a512d452c8d6edc72c3407743e8fc9101" target="_top" xlink:title="Get the target size for fastReduce.">
<polygon fill="white" stroke="#666666" points="477,-217.12 330.5,-217.12 330.5,-175.38 477,-175.38 477,-217.12"/>
<text text-anchor="start" x="338.5" y="-203.62" font-family="Helvetica,sans-Serif" font-size="10.00">ml::maths::common::</text>
<text text-anchor="start" x="338.5" y="-192.38" font-family="Helvetica,sans-Serif" font-size="10.00">CQuantileSketch::fastReduce</text>
<text text-anchor="middle" x="403.75" y="-181.12" font-family="Helvetica,sans-Serif" font-size="10.00">TargetSize</text>
</a>
</g>
</g>
<!-- Node2&#45;&gt;Node3 -->
<g id="edge2_Node000002_Node000003" class="edge">
<title>Node2&#45;&gt;Node3</title>
<g id="a_edge2_Node000002_Node000003"><a xlink:title=" ">
<path fill="none" stroke="#63b8ff" d="M294.89,-180.12C302.81,-181.3 310.92,-182.51 318.96,-183.72"/>
<polygon fill="#63b8ff" stroke="#63b8ff" points="318.36,-187.17 328.77,-185.18 319.39,-180.24 318.36,-187.17"/>
</a>
</g>
</g>
<!-- Node4 -->
<g id="Node000004" class="node">
<title>Node4</title>
<g id="a_Node000004"><a xlink:href="../../df/d85/classml_1_1maths_1_1common_1_1_c_quantile_sketch.html#a947c1ae935ba81ef8dae72195ff51c91" target="_top" xlink:title="Reduce to target size.">
<polygon fill="white" stroke="#666666" points="466.5,-157.5 341,-157.5 341,-127 466.5,-127 466.5,-157.5"/>
<text text-anchor="start" x="349" y="-144" font-family="Helvetica,sans-Serif" font-size="10.00">ml::maths::common::</text>
<text text-anchor="middle" x="403.75" y="-132.75" font-family="Helvetica,sans-Serif" font-size="10.00">CQuantileSketch::reduce</text>
</a>
</g>
</g>
<!-- Node2&#45;&gt;Node4 -->
<g id="edge3_Node000002_Node000004" class="edge">
<title>Node2&#45;&gt;Node4</title>
<g id="a_edge3_Node000002_Node000004"><a xlink:title=" ">
<path fill="none" stroke="#63b8ff" d="M294.89,-158.38C306.27,-156.68 318.05,-154.92 329.45,-153.21"/>
<polygon fill="#63b8ff" stroke="#63b8ff" points="329.83,-156.7 339.21,-151.76 328.8,-149.77 329.83,-156.7"/>
</a>
</g>
</g>
<!-- Node5 -->
<g id="Node000005" class="node">
<title>Node5</title>
<g id="a_Node000005"><a xlink:href="../../df/d85/classml_1_1maths_1_1common_1_1_c_quantile_sketch.html#afac48cf1ac00c289ffa00e612dc0430b" target="_top" xlink:title="Combine any co&#45;located values.">
<polygon fill="white" stroke="#666666" points="842,-205.5 696.25,-205.5 696.25,-175 842,-175 842,-205.5"/>
<text text-anchor="start" x="704.25" y="-192" font-family="Helvetica,sans-Serif" font-size="10.00">ml::maths::common::</text>
<text text-anchor="middle" x="769.12" y="-180.75" font-family="Helvetica,sans-Serif" font-size="10.00">CQuantileSketch::deduplicate</text>
</a>
</g>
</g>
<!-- Node4&#45;&gt;Node5 -->
<g id="edge4_Node000004_Node000005" class="edge">
<title>Node4&#45;&gt;Node5</title>
<g id="a_edge4_Node000004_Node000005"><a xlink:title=" ">
<path fill="none" stroke="#63b8ff" d="M456.62,-157.88C463.57,-160.44 470.53,-163.24 477,-166.25 494.01,-174.15 494.97,-183.1 513,-188.25 568.73,-204.17 634.15,-204.33 684.78,-200.69"/>
<polygon fill="#63b8ff" stroke="#63b8ff" points="684.81,-204.2 694.5,-199.93 684.26,-197.23 684.81,-204.2"/>
</a>
</g>
</g>
<!-- Node6 -->
<g id="Node000006" class="node">
<title>Node6</title>
<g id="a_Node000006"><a xlink:href="../../df/d85/classml_1_1maths_1_1common_1_1_c_quantile_sketch.html#a9489402a0c3a783b1b5543d35c0a1a3c" target="_top" xlink:title="Compute the cost of combining vl and vr.">
<polygon fill="white" stroke="#666666" points="841.25,-138.5 697,-138.5 697,-108 841.25,-108 841.25,-138.5"/>
<text text-anchor="start" x="705" y="-125" font-family="Helvetica,sans-Serif" font-size="10.00">ml::maths::common::</text>
<text text-anchor="middle" x="769.12" y="-113.75" font-family="Helvetica,sans-Serif" font-size="10.00">CQuantileSketch::mergeCost</text>
</a>
</g>
</g>
<!-- Node4&#45;&gt;Node6 -->
<g id="edge5_Node000004_Node000006" class="edge">
<title>Node4&#45;&gt;Node6</title>
<g id="a_edge5_Node000004_Node000006"><a xlink:title=" ">
<path fill="none" stroke="#63b8ff" d="M466.8,-139.01C527.07,-135.85 618.94,-131.05 685.4,-127.58"/>
<polygon fill="#63b8ff" stroke="#63b8ff" points="685.35,-131.08 695.15,-127.07 684.98,-124.09 685.35,-131.08"/>
</a>
</g>
</g>
<!-- Node7 -->
<g id="Node000007" class="node">
<title>Node7</title>
<g id="a_Node000007"><a xlink:href="../../df/d85/classml_1_1maths_1_1common_1_1_c_quantile_sketch.html#ac9813f7e83bf8bc406b4586c7e1cc075" target="_top" xlink:title="Fully order the values.">
<polygon fill="white" stroke="#666666" points="644.88,-179.5 526.88,-179.5 526.88,-149 644.88,-149 644.88,-179.5"/>
<text text-anchor="start" x="534.88" y="-166" font-family="Helvetica,sans-Serif" font-size="10.00">ml::maths::common::</text>
<text text-anchor="middle" x="585.88" y="-154.75" font-family="Helvetica,sans-Serif" font-size="10.00">CQuantileSketch::order</text>
</a>
</g>
</g>
<!-- Node4&#45;&gt;Node7 -->
<g id="edge6_Node000004_Node000007" class="edge">
<title>Node4&#45;&gt;Node7</title>
<g id="a_edge6_Node000004_Node000007"><a xlink:title=" ">
<path fill="none" stroke="#63b8ff" d="M466.99,-149.85C482.54,-151.75 499.31,-153.8 515.19,-155.74"/>
<polygon fill="#63b8ff" stroke="#63b8ff" points="514.72,-159.21 525.07,-156.95 515.57,-152.26 514.72,-159.21"/>
</a>
</g>
</g>
<!-- Node8 -->
<g id="Node000008" class="node">
<title>Node8</title>
<g id="a_Node000008"><a xlink:href="../../df/d85/classml_1_1maths_1_1common_1_1_c_quantile_sketch.html#a0006c909afeb7ba54693ab4ba5977a19" target="_top" xlink:title="Reduce to the maximum permitted size.">
<polygon fill="white" stroke="#666666" points="658.75,-92.12 513,-92.12 513,-50.38 658.75,-50.38 658.75,-92.12"/>
<text text-anchor="start" x="521" y="-78.62" font-family="Helvetica,sans-Serif" font-size="10.00">ml::maths::common::</text>
<text text-anchor="start" x="521" y="-67.38" font-family="Helvetica,sans-Serif" font-size="10.00">CQuantileSketch::reduceWith</text>
<text text-anchor="middle" x="585.88" y="-56.12" font-family="Helvetica,sans-Serif" font-size="10.00">SuppliedCosts</text>
</a>
</g>
</g>
<!-- Node4&#45;&gt;Node8 -->
<g id="edge8_Node000004_Node000008" class="edge">
<title>Node4&#45;&gt;Node8</title>
<g id="a_edge8_Node000004_Node000008"><a xlink:title=" ">
<path fill="none" stroke="#63b8ff" d="M444.28,-126.67C466.48,-117.92 494.74,-106.78 520.09,-96.79"/>
<polygon fill="#63b8ff" stroke="#63b8ff" points="521.32,-100.06 529.34,-93.14 518.75,-93.55 521.32,-100.06"/>
</a>
</g>
</g>
<!-- Node7&#45;&gt;Node5 -->
<g id="edge7_Node000007_Node000005" class="edge">
<title>Node7&#45;&gt;Node5</title>
<g id="a_edge7_Node000007_Node000005"><a xlink:title=" ">
<path fill="none" stroke="#63b8ff" d="M645.22,-172.62C657.83,-174.43 671.41,-176.38 684.77,-178.29"/>
<polygon fill="#63b8ff" stroke="#63b8ff" points="684.02,-181.72 694.41,-179.68 685.01,-174.79 684.02,-181.72"/>
</a>
</g>
</g>
<!-- Node8&#45;&gt;Node6 -->
<g id="edge13_Node000008_Node000006" class="edge">
<title>Node8&#45;&gt;Node6</title>
<g id="a_edge13_Node000008_Node000006"><a xlink:title=" ">
<path fill="none" stroke="#63b8ff" d="M659.03,-91.95C673.29,-96.04 688.18,-100.31 702.21,-104.34"/>
<polygon fill="#63b8ff" stroke="#63b8ff" points="701.22,-107.7 711.8,-107.09 703.16,-100.97 701.22,-107.7"/>
</a>
</g>
</g>
<!-- Node9 -->
<g id="Node000009" class="node">
<title>Node9</title>
<g id="a_Node000009"><a xlink:href="../../dc/d5c/classml_1_1maths_1_1common_1_1_c_orderings.html#a5a201aef02e6c31059f2ce7699456e60" target="_top" xlink:title="Calls lexicographicalCompareWith supplying std::less&lt;&gt; for comparison.">
<polygon fill="white" stroke="#666666" points="837.12,-90.12 701.12,-90.12 701.12,-48.38 837.12,-48.38 837.12,-90.12"/>
<text text-anchor="start" x="709.12" y="-76.62" font-family="Helvetica,sans-Serif" font-size="10.00">ml::maths::common::</text>
<text text-anchor="start" x="709.12" y="-65.38" font-family="Helvetica,sans-Serif" font-size="10.00">COrderings::lexicographical</text>
<text text-anchor="middle" x="769.12" y="-54.12" font-family="Helvetica,sans-Serif" font-size="10.00">Compare</text>
</a>
</g>
</g>
<!-- Node8&#45;&gt;Node9 -->
<g id="edge9_Node000008_Node000009" class="edge">
<title>Node8&#45;&gt;Node9</title>
<g id="a_edge9_Node000008_Node000009"><a xlink:title=" ">
<path fill="none" stroke="#63b8ff" d="M659.03,-70.45C669,-70.34 679.28,-70.23 689.36,-70.12"/>
<polygon fill="#63b8ff" stroke="#63b8ff" points="689.16,-73.62 699.12,-70.01 689.08,-66.62 689.16,-73.62"/>
</a>
</g>
</g>
<!-- Node12 -->
<g id="Node000012" class="node">
<title>Node12</title>
<g id="a_Node000012"><a xlink:href="../../df/d85/classml_1_1maths_1_1common_1_1_c_quantile_sketch.html#a15fce53ec3d0f0b8823ed427cbaa2767" target="_top" xlink:title="The result of merging knots at positions l and r.">
<polygon fill="white" stroke="#666666" points="843.5,-30.5 694.75,-30.5 694.75,0 843.5,0 843.5,-30.5"/>
<text text-anchor="start" x="702.75" y="-17" font-family="Helvetica,sans-Serif" font-size="10.00">ml::maths::common::</text>
<text text-anchor="middle" x="769.12" y="-5.75" font-family="Helvetica,sans-Serif" font-size="10.00">CQuantileSketch::mergedKnot</text>
</a>
</g>
</g>
<!-- Node8&#45;&gt;Node12 -->
<g id="edge14_Node000008_Node000012" class="edge">
<title>Node8&#45;&gt;Node12</title>
<g id="a_edge14_Node000008_Node000012"><a xlink:title=" ">
<path fill="none" stroke="#63b8ff" d="M655.91,-49.92C672.5,-44.8 690.1,-39.36 706.33,-34.34"/>
<polygon fill="#63b8ff" stroke="#63b8ff" points="707.35,-37.69 715.87,-31.39 705.28,-31 707.35,-37.69"/>
</a>
</g>
</g>
<!-- Node10 -->
<g id="Node000010" class="node">
<title>Node10</title>
<g id="a_Node000010"><a xlink:href="../../dc/d5c/classml_1_1maths_1_1common_1_1_c_orderings.html#ae59743d66349e20f589c98333e2118ff" target="_top" xlink:title=" ">
<polygon fill="white" stroke="#666666" points="1015.5,-90.12 879.5,-90.12 879.5,-48.38 1015.5,-48.38 1015.5,-90.12"/>
<text text-anchor="start" x="887.5" y="-76.62" font-family="Helvetica,sans-Serif" font-size="10.00">ml::maths::common::</text>
<text text-anchor="start" x="887.5" y="-65.38" font-family="Helvetica,sans-Serif" font-size="10.00">COrderings::lexicographical</text>
<text text-anchor="middle" x="947.5" y="-54.12" font-family="Helvetica,sans-Serif" font-size="10.00">CompareWith</text>
</a>
</g>
</g>
<!-- Node9&#45;&gt;Node10 -->
<g id="edge10_Node000009_Node000010" class="edge">
<title>Node9&#45;&gt;Node10</title>
<g id="a_edge10_Node000009_Node000010"><a xlink:title=" ">
<path fill="none" stroke="#63b8ff" d="M837.56,-69.25C847.45,-69.25 857.71,-69.25 867.81,-69.25"/>
<polygon fill="#63b8ff" stroke="#63b8ff" points="867.59,-72.75 877.59,-69.25 867.59,-65.75 867.59,-72.75"/>
</a>
</g>
</g>
<!-- Node11 -->
<g id="Node000011" class="node">
<title>Node11</title>
<g id="a_Node000011"><a xlink:href="../../dc/d5c/classml_1_1maths_1_1common_1_1_c_orderings.html#ac28e26aa59df21d5c8b12b9ca580b957" target="_top" xlink:title=" ">
<polygon fill="white" stroke="#666666" points="1187.5,-90.12 1051.5,-90.12 1051.5,-48.38 1187.5,-48.38 1187.5,-90.12"/>
<text text-anchor="start" x="1059.5" y="-76.62" font-family="Helvetica,sans-Serif" font-size="10.00">ml::maths::common::</text>
<text text-anchor="start" x="1059.5" y="-65.38" font-family="Helvetica,sans-Serif" font-size="10.00">COrderings::lexicographical</text>
<text text-anchor="middle" x="1119.5" y="-54.12" font-family="Helvetica,sans-Serif" font-size="10.00">CompareAt</text>
</a>
</g>
</g>
<!-- Node10&#45;&gt;Node11 -->
<g id="edge11_Node000010_Node000011" class="edge">
<title>Node10&#45;&gt;Node11</title>
<g id="a_edge11_Node000010_Node000011"><a xlink:title=" ">
<path fill="none" stroke="#63b8ff" d="M1015.69,-69.25C1023.64,-69.25 1031.8,-69.25 1039.89,-69.25"/>
<polygon fill="#63b8ff" stroke="#63b8ff" points="1039.73,-72.75 1049.73,-69.25 1039.73,-65.75 1039.73,-72.75"/>
</a>
</g>
</g>
<!-- Node11&#45;&gt;Node11 -->
<g id="edge12_Node000011_Node000011" class="edge">
<title>Node11&#45;&gt;Node11</title>
<g id="a_edge12_Node000011_Node000011"><a xlink:title=" ">
<path fill="none" stroke="#63b8ff" d="M1087.75,-90.44C1084.73,-99.92 1095.31,-108.12 1119.5,-108.12 1133.48,-108.12 1142.92,-105.38 1147.81,-101.24"/>
<polygon fill="#63b8ff" stroke="#63b8ff" points="1151.09,-102.48 1150.79,-91.89 1144.42,-100.35 1151.09,-102.48"/>
</a>
</g>
</g>
</g>
</svg>
