<?xml version="1.0" encoding="UTF-8" standalone="no"?>
<!DOCTYPE svg PUBLIC "-//W3C//DTD SVG 1.1//EN"
 "http://www.w3.org/Graphics/SVG/1.1/DTD/svg11.dtd">
<!-- Generated by graphviz version 10.0.1 (20240210.2158)
 -->
<!-- Title: ml::core::memory_debug::dynamicSize Pages: 1 -->
<!--zoomable 240 -->

<svg id="main" version="1.1" xmlns="http://www.w3.org/2000/svg" xmlns:xlink="http://www.w3.org/1999/xlink" xml:space="preserve" onload="init(evt)">
<style type="text/css"><![CDATA[
.node, .edge {opacity: 0.7;}
.node.selected, .edge.selected {opacity: 1;}
.edge:hover path { stroke: red; }
.edge:hover polygon { stroke: red; fill: red; }
]]></style>

<defs>
  <circle id="rim" cx="0" cy="0" r="7"/>
  <circle id="rim2" cx="0" cy="0" r="3.5"/>
  <g id="zoomPlus">
    <use xlink:href="#rim" fill="#404040"><set attributeName="fill" to="#808080" begin="zoomplus.mouseover" end="zoomplus.mouseout"/></use>
    <path d="M-4,0h8M0,-4v8" fill="none" stroke="white" stroke-width="1.5" pointer-events="none"/>
  </g>
  <g id="zoomMin">
    <use xlink:href="#rim" fill="#404040"><set attributeName="fill" to="#808080" begin="zoomminus.mouseover" end="zoomminus.mouseout"/></use>
    <path d="M-4,0h8" fill="none" stroke="white" stroke-width="1.5" pointer-events="none"/>
  </g>
  <g id="arrowUp" transform="translate(30 24)">
    <use xlink:href="#rim"/>
    <path pointer-events="none" fill="none" stroke="white" stroke-width="1.5" d="M0,-3.0v7 M-2.5,-0.5L0,-3.0L2.5,-0.5"/>
  </g>
  <g id="arrowRight" transform="rotate(90) translate(36 -43)">
    <use xlink:href="#rim"/>
    <path pointer-events="none" fill="none" stroke="white" stroke-width="1.5" d="M0,-3.0v7 M-2.5,-0.5L0,-3.0L2.5,-0.5"/>
  </g>
  <g id="arrowDown" transform="rotate(180) translate(-30 -48)">
    <use xlink:href="#rim"/>
    <path pointer-events="none" fill="none" stroke="white" stroke-width="1.5" d="M0,-3.0v7 M-2.5,-0.5L0,-3.0L2.5,-0.5"/>
  </g>
  <g id="arrowLeft" transform="rotate(270) translate(-36 17)">
    <use xlink:href="#rim"/>
    <path pointer-events="none" fill="none" stroke="white" stroke-width="1.5" d="M0,-3.0v7 M-2.5,-0.5L0,-3.0L2.5,-0.5"/>
  </g>
  <g id="resetDef">
    <use xlink:href="#rim2" fill="#404040"><set attributeName="fill" to="#808080" begin="reset.mouseover" end="reset.mouseout"/></use>
  </g>
</defs>
<script type="application/ecmascript">
var viewWidth = 1169;
var viewHeight = 240;
var sectionId = 'dynsection-12';
</script>
<script type="application/ecmascript" xlink:href="../../svg.min.js"/>
<svg id="graph" class="graph">
<g id="viewport">
<title>ml::core::memory_debug::dynamicSize</title>
<!-- Node1 -->
<g id="Node000001" class="node">
<title>Node1</title>
<g id="a_Node000001"><a xlink:title=" ">
<polygon fill="#999999" stroke="#666666" points="124,-36.25 0,-36.25 0,-5.75 124,-5.75 124,-36.25"/>
<text text-anchor="start" x="8" y="-22.75" font-family="Helvetica,sans-Serif" font-size="10.00">ml::core::memory_debug</text>
<text text-anchor="middle" x="62" y="-11.5" font-family="Helvetica,sans-Serif" font-size="10.00">::dynamicSize</text>
</a>
</g>
</g>
<!-- Node2 -->
<g id="Node000002" class="node">
<title>Node2</title>
<g id="a_Node000002"><a xlink:href="../../d8/ddf/namespaceml_1_1core_1_1memory__debug.html#a19226d12d4bb5a4580449f9b9c2b6898" target="_top" xlink:title="Helper to debug container element dynamic memory usage.">
<polygon fill="white" stroke="#666666" points="284,-58.25 160,-58.25 160,-27.75 284,-27.75 284,-58.25"/>
<text text-anchor="start" x="168" y="-44.75" font-family="Helvetica,sans-Serif" font-size="10.00">ml::core::memory_debug</text>
<text text-anchor="middle" x="222" y="-33.5" font-family="Helvetica,sans-Serif" font-size="10.00">::elementDynamicSize</text>
</a>
</g>
</g>
<!-- Node1&#45;&gt;Node2 -->
<g id="edge1_Node000001_Node000002" class="edge">
<title>Node1&#45;&gt;Node2</title>
<g id="a_edge1_Node000001_Node000002"><a xlink:title=" ">
<path fill="none" stroke="#63b8ff" d="M124.09,-29.51C132,-30.61 140.16,-31.74 148.23,-32.87"/>
<polygon fill="#63b8ff" stroke="#63b8ff" points="147.67,-36.32 158.06,-34.24 148.63,-29.39 147.67,-36.32"/>
</a>
</g>
</g>
<!-- Node8 -->
<g id="Node000008" class="node">
<title>Node8</title>
<g id="a_Node000008"><a xlink:href="../../d2/d21/structml_1_1core_1_1memory__detail_1_1_s_dynamic_size_always_zero.html#a710ac6fc2d5760a396bb2d46a66a73b2" target="_top" xlink:title=" ">
<polygon fill="white" stroke="#666666" points="1161.25,-96.88 1022.25,-96.88 1022.25,-55.12 1161.25,-55.12 1161.25,-96.88"/>
<text text-anchor="start" x="1030.25" y="-83.38" font-family="Helvetica,sans-Serif" font-size="10.00">ml::core::memory_detail</text>
<text text-anchor="start" x="1030.25" y="-72.12" font-family="Helvetica,sans-Serif" font-size="10.00">::SDynamicSizeAlwaysZero</text>
<text text-anchor="middle" x="1091.75" y="-60.88" font-family="Helvetica,sans-Serif" font-size="10.00">::value</text>
</a>
</g>
</g>
<!-- Node1&#45;&gt;Node8 -->
<g id="edge12_Node000001_Node000008" class="edge">
<title>Node1&#45;&gt;Node8</title>
<g id="a_edge12_Node000001_Node000008"><a xlink:title=" ">
<path fill="none" stroke="#63b8ff" d="M124.48,-14.53C188.47,-8.36 291.64,0 381,0 381,0 381,0 745.38,0 853.9,0 881.05,-13.34 986.25,-40 998.48,-43.1 1011.32,-46.98 1023.65,-51.04"/>
<polygon fill="#63b8ff" stroke="#63b8ff" points="1022.3,-54.28 1032.89,-54.15 1024.53,-47.64 1022.3,-54.28"/>
</a>
</g>
</g>
<!-- Node3 -->
<g id="Node000003" class="node">
<title>Node3</title>
<g id="a_Node000003"><a xlink:href="../../d8/ddf/namespaceml_1_1core_1_1memory__debug.html#af9da9b8dc9d9ea16d09112f4ac614c2c" target="_top" xlink:title="Default implementation for non&#45;pointer types.">
<polygon fill="white" stroke="#666666" points="444,-96.25 320,-96.25 320,-65.75 444,-65.75 444,-96.25"/>
<text text-anchor="start" x="328" y="-82.75" font-family="Helvetica,sans-Serif" font-size="10.00">ml::core::memory_debug</text>
<text text-anchor="middle" x="382" y="-71.5" font-family="Helvetica,sans-Serif" font-size="10.00">::dynamicSize</text>
</a>
</g>
</g>
<!-- Node2&#45;&gt;Node3 -->
<g id="edge2_Node000002_Node000003" class="edge">
<title>Node2&#45;&gt;Node3</title>
<g id="a_edge2_Node000002_Node000003"><a xlink:title=" ">
<path fill="none" stroke="#63b8ff" d="M284.09,-57.69C292.09,-59.62 300.35,-61.6 308.51,-63.57"/>
<polygon fill="#63b8ff" stroke="#63b8ff" points="307.54,-66.93 318.08,-65.87 309.18,-60.13 307.54,-66.93"/>
</a>
</g>
</g>
<!-- Node2&#45;&gt;Node8 -->
<g id="edge11_Node000002_Node000008" class="edge">
<title>Node2&#45;&gt;Node8</title>
<g id="a_edge11_Node000002_Node000008"><a xlink:title=" ">
<path fill="none" stroke="#63b8ff" d="M284.4,-41.52C350.94,-40.05 460.25,-38 554.5,-38 554.5,-38 554.5,-38 745.38,-38 836.66,-38 940.7,-51.28 1010.53,-62.14"/>
<polygon fill="#63b8ff" stroke="#63b8ff" points="1009.94,-65.59 1020.37,-63.69 1011.04,-58.67 1009.94,-65.59"/>
</a>
</g>
</g>
<!-- Node4 -->
<g id="Node000004" class="node">
<title>Node4</title>
<g id="a_Node000004"><a xlink:href="../../de/df0/structml_1_1core_1_1memory__detail_1_1_s_debug_memory_dynamic_size.html#a0b0baf0a3d6bf2367e46016e88a0ad32" target="_top" xlink:title=" ">
<polygon fill="white" stroke="#666666" points="631,-163.88 480,-163.88 480,-122.12 631,-122.12 631,-163.88"/>
<text text-anchor="start" x="488" y="-150.38" font-family="Helvetica,sans-Serif" font-size="10.00">ml::core::memory_detail</text>
<text text-anchor="start" x="488" y="-139.12" font-family="Helvetica,sans-Serif" font-size="10.00">::SDebugMemoryDynamicSize</text>
<text text-anchor="middle" x="555.5" y="-127.88" font-family="Helvetica,sans-Serif" font-size="10.00">::dispatch</text>
</a>
</g>
</g>
<!-- Node3&#45;&gt;Node4 -->
<g id="edge3_Node000003_Node000004" class="edge">
<title>Node3&#45;&gt;Node4</title>
<g id="a_edge3_Node000003_Node000004"><a xlink:title=" ">
<path fill="none" stroke="#63b8ff" d="M426.28,-96.65C444.11,-103.09 465.22,-110.72 485.11,-117.91"/>
<polygon fill="#63b8ff" stroke="#63b8ff" points="483.67,-121.12 494.27,-121.22 486.05,-114.53 483.67,-121.12"/>
</a>
</g>
</g>
<!-- Node9 -->
<g id="Node000009" class="node">
<title>Node9</title>
<g id="a_Node000009"><a xlink:href="../../db/df7/namespaceml_1_1core_1_1memory__detail.html#aa0a3d5d3341bb51e9df11ef0ea542a6a" target="_top" xlink:title="Check if we expect an overloaded dynamicSize function.">
<polygon fill="white" stroke="#666666" points="821.38,-96.25 667.38,-96.25 667.38,-65.75 821.38,-65.75 821.38,-96.25"/>
<text text-anchor="start" x="675.38" y="-82.75" font-family="Helvetica,sans-Serif" font-size="10.00">ml::core::memory_detail</text>
<text text-anchor="middle" x="744.38" y="-71.5" font-family="Helvetica,sans-Serif" font-size="10.00">::expectDebugMemoryOverload</text>
</a>
</g>
</g>
<!-- Node3&#45;&gt;Node9 -->
<g id="edge9_Node000003_Node000009" class="edge">
<title>Node3&#45;&gt;Node9</title>
<g id="a_edge9_Node000003_Node000009"><a xlink:title=" ">
<path fill="none" stroke="#63b8ff" d="M444.13,-81C502.32,-81 590.48,-81 656.05,-81"/>
<polygon fill="#63b8ff" stroke="#63b8ff" points="655.68,-84.5 665.68,-81 655.68,-77.5 655.68,-84.5"/>
</a>
</g>
</g>
<!-- Node5 -->
<g id="Node000005" class="node">
<title>Node5</title>
<g id="a_Node000005"><a xlink:href="../../d0/d74/namespaceml_1_1core_1_1memory.html#a50fe883268170c17625e18a0c5fea04b" target="_top" xlink:title="Default implementation for non&#45;pointer types.">
<polygon fill="white" stroke="#666666" points="821.75,-159.62 667,-159.62 667,-140.38 821.75,-140.38 821.75,-159.62"/>
<text text-anchor="middle" x="744.38" y="-146.12" font-family="Helvetica,sans-Serif" font-size="10.00">ml::core::memory::dynamicSize</text>
</a>
</g>
</g>
<!-- Node4&#45;&gt;Node5 -->
<g id="edge4_Node000004_Node000005" class="edge">
<title>Node4&#45;&gt;Node5</title>
<g id="a_edge4_Node000004_Node000005"><a xlink:title=" ">
<path fill="none" stroke="#63b8ff" d="M631.43,-145.81C639.3,-146.1 647.35,-146.4 655.35,-146.7"/>
<polygon fill="#63b8ff" stroke="#63b8ff" points="654.96,-150.19 665.08,-147.07 655.22,-143.2 654.96,-150.19"/>
</a>
</g>
</g>
<!-- Node6 -->
<g id="Node000006" class="node">
<title>Node6</title>
<g id="a_Node000006"><a xlink:href="../../d9/d0b/structml_1_1core_1_1memory__detail_1_1_s_memory_dynamic_size.html#a49a680749a1d1861b69990d788154833" target="_top" xlink:title=" ">
<polygon fill="white" stroke="#666666" points="986.25,-231.88 857.75,-231.88 857.75,-190.12 986.25,-190.12 986.25,-231.88"/>
<text text-anchor="start" x="865.75" y="-218.38" font-family="Helvetica,sans-Serif" font-size="10.00">ml::core::memory_detail</text>
<text text-anchor="start" x="865.75" y="-207.12" font-family="Helvetica,sans-Serif" font-size="10.00">::SMemoryDynamicSize::</text>
<text text-anchor="middle" x="922" y="-195.88" font-family="Helvetica,sans-Serif" font-size="10.00">dispatch</text>
</a>
</g>
</g>
<!-- Node5&#45;&gt;Node6 -->
<g id="edge5_Node000005_Node000006" class="edge">
<title>Node5&#45;&gt;Node6</title>
<g id="a_edge5_Node000005_Node000006"><a xlink:title=" ">
<path fill="none" stroke="#63b8ff" d="M774.38,-160.07C794.67,-167.12 822.72,-176.86 848.86,-185.94"/>
<polygon fill="#63b8ff" stroke="#63b8ff" points="847.5,-189.18 858.1,-189.15 849.8,-182.56 847.5,-189.18"/>
</a>
</g>
</g>
<!-- Node7 -->
<g id="Node000007" class="node">
<title>Node7</title>
<g id="a_Node000007"><a xlink:href="../../db/df7/namespaceml_1_1core_1_1memory__detail.html#ac2d4d02cd0f6d8d7d1355958a49fce43" target="_top" xlink:title="Check if we expect an overloaded dynamicSize function.">
<polygon fill="white" stroke="#666666" points="984.75,-172.25 859.25,-172.25 859.25,-141.75 984.75,-141.75 984.75,-172.25"/>
<text text-anchor="start" x="867.25" y="-158.75" font-family="Helvetica,sans-Serif" font-size="10.00">ml::core::memory_detail</text>
<text text-anchor="middle" x="922" y="-147.5" font-family="Helvetica,sans-Serif" font-size="10.00">::expectMemoryOverload</text>
</a>
</g>
</g>
<!-- Node5&#45;&gt;Node7 -->
<g id="edge6_Node000005_Node000007" class="edge">
<title>Node5&#45;&gt;Node7</title>
<g id="a_edge6_Node000005_Node000007"><a xlink:title=" ">
<path fill="none" stroke="#63b8ff" d="M822.15,-153.06C830.59,-153.4 839.17,-153.74 847.57,-154.07"/>
<polygon fill="#63b8ff" stroke="#63b8ff" points="847.23,-157.56 857.36,-154.46 847.51,-150.57 847.23,-157.56"/>
</a>
</g>
</g>
<!-- Node5&#45;&gt;Node8 -->
<g id="edge8_Node000005_Node000008" class="edge">
<title>Node5&#45;&gt;Node8</title>
<g id="a_edge8_Node000005_Node000008"><a xlink:title=" ">
<path fill="none" stroke="#63b8ff" d="M792.31,-139.94C848.4,-127.93 943.12,-107.63 1010.82,-93.13"/>
<polygon fill="#63b8ff" stroke="#63b8ff" points="1011.33,-96.6 1020.38,-91.08 1009.87,-89.75 1011.33,-96.6"/>
</a>
</g>
</g>
<!-- Node7&#45;&gt;Node8 -->
<g id="edge7_Node000007_Node000008" class="edge">
<title>Node7&#45;&gt;Node8</title>
<g id="a_edge7_Node000007_Node000008"><a xlink:title=" ">
<path fill="none" stroke="#63b8ff" d="M957.56,-141.39C966.9,-137.11 976.99,-132.43 986.25,-128 1003.36,-119.82 1021.92,-110.68 1038.59,-102.36"/>
<polygon fill="#63b8ff" stroke="#63b8ff" points="1039.97,-105.59 1047.34,-97.98 1036.83,-99.33 1039.97,-105.59"/>
</a>
</g>
</g>
<!-- Node9&#45;&gt;Node8 -->
<g id="edge10_Node000009_Node000008" class="edge">
<title>Node9&#45;&gt;Node8</title>
<g id="a_edge10_Node000009_Node000008"><a xlink:title=" ">
<path fill="none" stroke="#63b8ff" d="M821.6,-79.9C877.54,-79.09 953.36,-77.99 1010.28,-77.17"/>
<polygon fill="#63b8ff" stroke="#63b8ff" points="1010.3,-80.67 1020.24,-77.02 1010.19,-73.67 1010.3,-80.67"/>
</a>
</g>
</g>
</g>
</svg>

<g id="navigator" transform="translate(0 0)" fill="#404254">
  <rect fill="#f2f5e9" fill-opacity="0.5" stroke="#606060" stroke-width=".5" x="0" y="0" width="60" height="60"/>
  <use id="zoomplus" xlink:href="#zoomPlus" x="17" y="9" onmousedown="handleZoom(evt,'in')"/>
  <use id="zoomminus" xlink:href="#zoomMin" x="42" y="9" onmousedown="handleZoom(evt,'out')"/>
  <use id="reset" xlink:href="#resetDef" x="30" y="36" onmousedown="handleReset()"/>
   <use id="arrowup" xlink:href="#arrowUp" x="0" y="0" onmousedown="handlePan(0,-1)"/>
  <use id="arrowright" xlink:href="#arrowRight" x="0" y="0" onmousedown="handlePan(1,0)"/>
  <use id="arrowdown" xlink:href="#arrowDown" x="0" y="0" onmousedown="handlePan(0,1)"/>
  <use id="arrowleft" xlink:href="#arrowLeft" x="0" y="0" onmousedown="handlePan(-1,0)"/>
</g>
<svg viewBox="0 0 15 15" width="100%" height="30px" preserveAspectRatio="xMaxYMin meet">
 <g id="arrow_out" transform="scale(0.3 0.3)">
  <a xlink:href="namespaceml_1_1core_1_1memory__debug_aa8a5738ac8ebb3558cb79e60377a283d_cgraph_org.svg" target="_base">
   <rect id="button" ry="5" rx="5" y="6" x="6" height="38" width="38"
        fill="#f2f5e9" fill-opacity="0.5" stroke="#606060" stroke-width="1.0"/>
   <path id="arrow"
     d="M 11.500037,31.436501 C 11.940474,20.09759 22.043105,11.32322 32.158766,21.979434 L 37.068811,17.246167 C 37.068811,17.246167 37.088388,32 37.088388,32 L 22.160133,31.978069 C 22.160133,31.978069 26.997745,27.140456 26.997745,27.140456 C 18.528582,18.264221 13.291696,25.230495 11.500037,31.436501 z"
     style="fill:#404040;"/>
  </a>
 </g>
</svg>

<style type='text/css'>
<![CDATA[
[data-mouse-over-selected='false'] { opacity: 0.7; }
[data-mouse-over-selected='true']  { opacity: 1.0; }
]]>
</style>
<script type="application/ecmascript"><![CDATA[
document.addEventListener('DOMContentLoaded', (event) => {
  highlightEdges();
  highlightAdjacentNodes();
});
]]></script>
</svg>
