<?xml version="1.0" encoding="UTF-8" standalone="no"?>
<!DOCTYPE svg PUBLIC "-//W3C//DTD SVG 1.1//EN"
 "http://www.w3.org/Graphics/SVG/1.1/DTD/svg11.dtd">
<!-- Generated by graphviz version 10.0.1 (20240210.2158)
 -->
<!-- Title: ml::maths::common::CKMeansOnline::acceptPersistInserter Pages: 1 -->
<!--zoomable 147 -->

<svg id="main" version="1.1" xmlns="http://www.w3.org/2000/svg" xmlns:xlink="http://www.w3.org/1999/xlink" xml:space="preserve" onload="init(evt)">
<style type="text/css"><![CDATA[
.node, .edge {opacity: 0.7;}
.node.selected, .edge.selected {opacity: 1;}
.edge:hover path { stroke: red; }
.edge:hover polygon { stroke: red; fill: red; }
]]></style>

<defs>
  <circle id="rim" cx="0" cy="0" r="7"/>
  <circle id="rim2" cx="0" cy="0" r="3.5"/>
  <g id="zoomPlus">
    <use xlink:href="#rim" fill="#404040"><set attributeName="fill" to="#808080" begin="zoomplus.mouseover" end="zoomplus.mouseout"/></use>
    <path d="M-4,0h8M0,-4v8" fill="none" stroke="white" stroke-width="1.5" pointer-events="none"/>
  </g>
  <g id="zoomMin">
    <use xlink:href="#rim" fill="#404040"><set attributeName="fill" to="#808080" begin="zoomminus.mouseover" end="zoomminus.mouseout"/></use>
    <path d="M-4,0h8" fill="none" stroke="white" stroke-width="1.5" pointer-events="none"/>
  </g>
  <g id="arrowUp" transform="translate(30 24)">
    <use xlink:href="#rim"/>
    <path pointer-events="none" fill="none" stroke="white" stroke-width="1.5" d="M0,-3.0v7 M-2.5,-0.5L0,-3.0L2.5,-0.5"/>
  </g>
  <g id="arrowRight" transform="rotate(90) translate(36 -43)">
    <use xlink:href="#rim"/>
    <path pointer-events="none" fill="none" stroke="white" stroke-width="1.5" d="M0,-3.0v7 M-2.5,-0.5L0,-3.0L2.5,-0.5"/>
  </g>
  <g id="arrowDown" transform="rotate(180) translate(-30 -48)">
    <use xlink:href="#rim"/>
    <path pointer-events="none" fill="none" stroke="white" stroke-width="1.5" d="M0,-3.0v7 M-2.5,-0.5L0,-3.0L2.5,-0.5"/>
  </g>
  <g id="arrowLeft" transform="rotate(270) translate(-36 17)">
    <use xlink:href="#rim"/>
    <path pointer-events="none" fill="none" stroke="white" stroke-width="1.5" d="M0,-3.0v7 M-2.5,-0.5L0,-3.0L2.5,-0.5"/>
  </g>
  <g id="resetDef">
    <use xlink:href="#rim2" fill="#404040"><set attributeName="fill" to="#808080" begin="reset.mouseover" end="reset.mouseout"/></use>
  </g>
</defs>
<script type="application/ecmascript">
var viewWidth = 501;
var viewHeight = 147;
var sectionId = 'dynsection-3';
</script>
<script type="application/ecmascript" xlink:href="../../svg.min.js"/>
<svg id="graph" class="graph">
<g id="viewport">
<title>ml::maths::common::CKMeansOnline::acceptPersistInserter</title>
<!-- Node1 -->
<g id="Node000001" class="node">
<title>Node1</title>
<g id="a_Node000001"><a xlink:title="Persist state by passing to the supplied inserter.">
<polygon fill="#999999" stroke="#666666" points="153.25,-95.75 0,-95.75 0,-54 153.25,-54 153.25,-95.75"/>
<text text-anchor="start" x="8" y="-82.25" font-family="Helvetica,sans-Serif" font-size="10.00">ml::maths::common::</text>
<text text-anchor="start" x="8" y="-71" font-family="Helvetica,sans-Serif" font-size="10.00">CKMeansOnline::acceptPersist</text>
<text text-anchor="middle" x="76.62" y="-59.75" font-family="Helvetica,sans-Serif" font-size="10.00">Inserter</text>
</a>
</g>
</g>
<!-- Node2 -->
<g id="Node000002" class="node">
<title>Node2</title>
<g id="a_Node000002"><a xlink:href="../../d6/d96/classml_1_1core_1_1_c_state_persist_inserter.html#a21319d2ecfcb0ab1aceecf2a5a463d3a" target="_top" xlink:title="Store a name/value.">
<polygon fill="white" stroke="#666666" points="341,-139.12 189.25,-139.12 189.25,-108.62 341,-108.62 341,-139.12"/>
<text text-anchor="start" x="197.25" y="-125.62" font-family="Helvetica,sans-Serif" font-size="10.00">ml::core::CStatePersistInserter</text>
<text text-anchor="middle" x="265.12" y="-114.38" font-family="Helvetica,sans-Serif" font-size="10.00">::insertValue</text>
</a>
</g>
</g>
<!-- Node1&#45;&gt;Node2 -->
<g id="edge1_Node000001_Node000002" class="edge">
<title>Node1&#45;&gt;Node2</title>
<g id="a_edge1_Node000001_Node000002"><a xlink:title=" ">
<path fill="none" stroke="#63b8ff" d="M153.48,-94.81C166.72,-98.28 180.44,-101.89 193.53,-105.33"/>
<polygon fill="#63b8ff" stroke="#63b8ff" points="192.32,-108.63 202.88,-107.78 194.1,-101.86 192.32,-108.63"/>
</a>
</g>
</g>
<!-- Node3 -->
<g id="Node000003" class="node">
<title>Node3</title>
<g id="a_Node000003"><a xlink:href="../../de/df5/classml_1_1core_1_1_c_persist_utils.html#a82a406707dfde7a86539a04a2437e9e9" target="_top" xlink:title="Persist collection passing state to inserter using tag for elements.">
<polygon fill="white" stroke="#666666" points="323,-90.12 207.25,-90.12 207.25,-59.62 323,-59.62 323,-90.12"/>
<text text-anchor="start" x="215.25" y="-76.62" font-family="Helvetica,sans-Serif" font-size="10.00">ml::core::CPersistUtils</text>
<text text-anchor="middle" x="265.12" y="-65.38" font-family="Helvetica,sans-Serif" font-size="10.00">::persist</text>
</a>
</g>
</g>
<!-- Node1&#45;&gt;Node3 -->
<g id="edge2_Node000001_Node000003" class="edge">
<title>Node1&#45;&gt;Node3</title>
<g id="a_edge2_Node000001_Node000003"><a xlink:title=" ">
<path fill="none" stroke="#63b8ff" d="M153.48,-74.88C167.43,-74.88 181.91,-74.88 195.62,-74.88"/>
<polygon fill="#63b8ff" stroke="#63b8ff" points="195.42,-78.38 205.42,-74.88 195.42,-71.38 195.42,-78.38"/>
</a>
</g>
</g>
<!-- Node4 -->
<g id="Node000004" class="node">
<title>Node4</title>
<g id="a_Node000004"><a xlink:href="../../d8/dca/classml_1_1maths_1_1common_1_1_c_p_r_n_g_1_1_c_xor_o_shiro128_plus.html#ade2dfc116d155a15eb089bf70a67e174" target="_top" xlink:title="Persist to a string.">
<polygon fill="white" stroke="#666666" points="338.38,-41.75 191.88,-41.75 191.88,0 338.38,0 338.38,-41.75"/>
<text text-anchor="start" x="199.88" y="-28.25" font-family="Helvetica,sans-Serif" font-size="10.00">ml::maths::common::</text>
<text text-anchor="start" x="199.88" y="-17" font-family="Helvetica,sans-Serif" font-size="10.00">CPRNG::CXorOShiro128Plus</text>
<text text-anchor="middle" x="265.12" y="-5.75" font-family="Helvetica,sans-Serif" font-size="10.00">::toString</text>
</a>
</g>
</g>
<!-- Node1&#45;&gt;Node4 -->
<g id="edge3_Node000001_Node000004" class="edge">
<title>Node1&#45;&gt;Node4</title>
<g id="a_edge3_Node000001_Node000004"><a xlink:title=" ">
<path fill="none" stroke="#63b8ff" d="M151.33,-53.53C160.95,-50.75 170.86,-47.88 180.62,-45.05"/>
<polygon fill="#63b8ff" stroke="#63b8ff" points="181.47,-48.45 190.11,-42.31 179.53,-41.73 181.47,-48.45"/>
</a>
</g>
</g>
<!-- Node5 -->
<g id="Node000005" class="node">
<title>Node5</title>
<g id="a_Node000005"><a xlink:href="../../de/df5/classml_1_1core_1_1_c_persist_utils.html#a518f0e6de0314125f712f6daec7ba0dd" target="_top" xlink:title="Wrapper for containers of built in types.">
<polygon fill="white" stroke="#666666" points="492.75,-36.12 377,-36.12 377,-5.62 492.75,-5.62 492.75,-36.12"/>
<text text-anchor="start" x="385" y="-22.62" font-family="Helvetica,sans-Serif" font-size="10.00">ml::core::CPersistUtils</text>
<text text-anchor="middle" x="434.88" y="-11.38" font-family="Helvetica,sans-Serif" font-size="10.00">::toString</text>
</a>
</g>
</g>
<!-- Node4&#45;&gt;Node5 -->
<g id="edge4_Node000004_Node000005" class="edge">
<title>Node4&#45;&gt;Node5</title>
<g id="a_edge4_Node000004_Node000005"><a xlink:title=" ">
<path fill="none" stroke="#63b8ff" d="M338.73,-20.88C347.53,-20.88 356.5,-20.88 365.25,-20.88"/>
<polygon fill="#63b8ff" stroke="#63b8ff" points="365.06,-24.38 375.06,-20.88 365.06,-17.38 365.06,-24.38"/>
</a>
</g>
</g>
</g>
</svg>

<g id="navigator" transform="translate(0 0)" fill="#404254">
  <rect fill="#f2f5e9" fill-opacity="0.5" stroke="#606060" stroke-width=".5" x="0" y="0" width="60" height="60"/>
  <use id="zoomplus" xlink:href="#zoomPlus" x="17" y="9" onmousedown="handleZoom(evt,'in')"/>
  <use id="zoomminus" xlink:href="#zoomMin" x="42" y="9" onmousedown="handleZoom(evt,'out')"/>
  <use id="reset" xlink:href="#resetDef" x="30" y="36" onmousedown="handleReset()"/>
   <use id="arrowup" xlink:href="#arrowUp" x="0" y="0" onmousedown="handlePan(0,-1)"/>
  <use id="arrowright" xlink:href="#arrowRight" x="0" y="0" onmousedown="handlePan(1,0)"/>
  <use id="arrowdown" xlink:href="#arrowDown" x="0" y="0" onmousedown="handlePan(0,1)"/>
  <use id="arrowleft" xlink:href="#arrowLeft" x="0" y="0" onmousedown="handlePan(-1,0)"/>
</g>
<svg viewBox="0 0 15 15" width="100%" height="30px" preserveAspectRatio="xMaxYMin meet">
 <g id="arrow_out" transform="scale(0.3 0.3)">
  <a xlink:href="classml_1_1maths_1_1common_1_1_c_k_means_online_a89c0d065c001246bf57f6df451adf864_cgraph_org.svg" target="_base">
   <rect id="button" ry="5" rx="5" y="6" x="6" height="38" width="38"
        fill="#f2f5e9" fill-opacity="0.5" stroke="#606060" stroke-width="1.0"/>
   <path id="arrow"
     d="M 11.500037,31.436501 C 11.940474,20.09759 22.043105,11.32322 32.158766,21.979434 L 37.068811,17.246167 C 37.068811,17.246167 37.088388,32 37.088388,32 L 22.160133,31.978069 C 22.160133,31.978069 26.997745,27.140456 26.997745,27.140456 C 18.528582,18.264221 13.291696,25.230495 11.500037,31.436501 z"
     style="fill:#404040;"/>
  </a>
 </g>
</svg>

<style type='text/css'>
<![CDATA[
[data-mouse-over-selected='false'] { opacity: 0.7; }
[data-mouse-over-selected='true']  { opacity: 1.0; }
]]>
</style>
<script type="application/ecmascript"><![CDATA[
document.addEventListener('DOMContentLoaded', (event) => {
  highlightEdges();
  highlightAdjacentNodes();
});
]]></script>
</svg>
