<?xml version="1.0" encoding="UTF-8" standalone="no"?>
<!DOCTYPE svg PUBLIC "-//W3C//DTD SVG 1.1//EN"
 "http://www.w3.org/Graphics/SVG/1.1/DTD/svg11.dtd">
<!-- Generated by graphviz version 10.0.1 (20240210.2158)
 -->
<!-- Title: ml::maths::time_series::CUnivariateTimeSeriesModel::addCountWeights Pages: 1 -->
<svg width="528pt" height="50pt"
 viewBox="0.00 0.00 527.75 49.75" xmlns="http://www.w3.org/2000/svg" xmlns:xlink="http://www.w3.org/1999/xlink">
<g id="graph0" class="graph" transform="scale(1 1) rotate(0) translate(4 45.75)">
<title>ml::maths::time_series::CUnivariateTimeSeriesModel::addCountWeights</title>
<!-- Node1 -->
<g id="Node000001" class="node">
<title>Node1</title>
<g id="a_Node000001"><a xlink:title="Add to trendWeights and residualWeights.">
<polygon fill="#999999" stroke="#666666" points="149.5,-41.75 0,-41.75 0,0 149.5,0 149.5,-41.75"/>
<text text-anchor="start" x="8" y="-28.25" font-family="Helvetica,sans-Serif" font-size="10.00">ml::maths::time_series</text>
<text text-anchor="start" x="8" y="-17" font-family="Helvetica,sans-Serif" font-size="10.00">::CUnivariateTimeSeriesModel</text>
<text text-anchor="middle" x="74.75" y="-5.75" font-family="Helvetica,sans-Serif" font-size="10.00">::addCountWeights</text>
</a>
</g>
</g>
<!-- Node2 -->
<g id="Node000002" class="node">
<title>Node2</title>
<g id="a_Node000002"><a xlink:href="../../d6/d52/namespaceml_1_1maths__t.html#a27d0609294633ca4e93fca86644afc03" target="_top" xlink:title="Add weight to the count weight of weights.">
<polygon fill="white" stroke="#666666" points="301.25,-30.5 185.5,-30.5 185.5,-11.25 301.25,-11.25 301.25,-30.5"/>
<text text-anchor="middle" x="243.38" y="-17" font-family="Helvetica,sans-Serif" font-size="10.00">ml::maths_t::addCount</text>
</a>
</g>
</g>
<!-- Node1&#45;&gt;Node2 -->
<g id="edge1_Node000001_Node000002" class="edge">
<title>Node1&#45;&gt;Node2</title>
<g id="a_edge1_Node000001_Node000002"><a xlink:title=" ">
<path fill="none" stroke="#63b8ff" d="M149.8,-20.88C157.75,-20.88 165.8,-20.88 173.68,-20.88"/>
<polygon fill="#63b8ff" stroke="#63b8ff" points="173.54,-24.38 183.54,-20.88 173.54,-17.38 173.54,-24.38"/>
</a>
</g>
</g>
<!-- Node3 -->
<g id="Node000003" class="node">
<title>Node3</title>
<g id="a_Node000003"><a xlink:href="../../da/d3d/structml_1_1maths__t_1_1maths__types__detail_1_1_s_weight_arithmetic.html#af64f8ddb86f3ab1c5137251e2acd0526" target="_top" xlink:title=" ">
<polygon fill="white" stroke="#666666" points="519.75,-36.12 337.25,-36.12 337.25,-5.62 519.75,-5.62 519.75,-36.12"/>
<text text-anchor="start" x="345.25" y="-22.62" font-family="Helvetica,sans-Serif" font-size="10.00">ml::maths_t::maths</text>
<text text-anchor="middle" x="428.5" y="-11.38" font-family="Helvetica,sans-Serif" font-size="10.00">_types_detail::SWeightArithmetic::add</text>
</a>
</g>
</g>
<!-- Node2&#45;&gt;Node3 -->
<g id="edge2_Node000002_Node000003" class="edge">
<title>Node2&#45;&gt;Node3</title>
<g id="a_edge2_Node000002_Node000003"><a xlink:title=" ">
<path fill="none" stroke="#63b8ff" d="M301.56,-20.88C309.28,-20.88 317.38,-20.88 325.6,-20.88"/>
<polygon fill="#63b8ff" stroke="#63b8ff" points="325.33,-24.38 335.33,-20.88 325.33,-17.38 325.33,-24.38"/>
</a>
</g>
</g>
</g>
</svg>
