<?xml version="1.0" encoding="UTF-8" standalone="no"?>
<!DOCTYPE svg PUBLIC "-//W3C//DTD SVG 1.1//EN"
 "http://www.w3.org/Graphics/SVG/1.1/DTD/svg11.dtd">
<!-- Generated by graphviz version 10.0.1 (20240210.2158)
 -->
<!-- Title: ml::maths::time_series::CUnivariateTimeSeriesModel::reinitializeStateGivenNewComponent Pages: 1 -->
<svg width="583pt" height="475pt"
 viewBox="0.00 0.00 583.25 474.75" xmlns="http://www.w3.org/2000/svg" xmlns:xlink="http://www.w3.org/1999/xlink">
<g id="graph0" class="graph" transform="scale(1 1) rotate(0) translate(4 470.75)">
<title>ml::maths::time_series::CUnivariateTimeSeriesModel::reinitializeStateGivenNewComponent</title>
<!-- Node1 -->
<g id="Node000001" class="node">
<title>Node1</title>
<g id="a_Node000001"><a xlink:title=" ">
<polygon fill="#999999" stroke="#666666" points="184.75,-217.75 0,-217.75 0,-176 184.75,-176 184.75,-217.75"/>
<text text-anchor="start" x="8" y="-204.25" font-family="Helvetica,sans-Serif" font-size="10.00">ml::maths::time_series</text>
<text text-anchor="start" x="8" y="-193" font-family="Helvetica,sans-Serif" font-size="10.00">::CUnivariateTimeSeriesModel</text>
<text text-anchor="middle" x="92.38" y="-181.75" font-family="Helvetica,sans-Serif" font-size="10.00">::reinitializeStateGivenNewComponent</text>
</a>
</g>
</g>
<!-- Node2 -->
<g id="Node000002" class="node">
<title>Node2</title>
<g id="a_Node000002"><a xlink:href="../../d3/d09/classml_1_1maths_1_1time__series_1_1_c_time_series_correlations.html#a6e2bb65f71bc88dde8ff1805da317537" target="_top" xlink:title="Clear all correlation information for time series identified id.">
<polygon fill="white" stroke="#666666" points="358.25,-385.75 226.75,-385.75 226.75,-344 358.25,-344 358.25,-385.75"/>
<text text-anchor="start" x="234.75" y="-372.25" font-family="Helvetica,sans-Serif" font-size="10.00">ml::maths::time_series</text>
<text text-anchor="start" x="234.75" y="-361" font-family="Helvetica,sans-Serif" font-size="10.00">::CTimeSeriesCorrelations</text>
<text text-anchor="middle" x="292.5" y="-349.75" font-family="Helvetica,sans-Serif" font-size="10.00">::clearCorrelationModels</text>
</a>
</g>
</g>
<!-- Node1&#45;&gt;Node2 -->
<g id="edge1_Node000001_Node000002" class="edge">
<title>Node1&#45;&gt;Node2</title>
<g id="a_edge1_Node000001_Node000002"><a xlink:title=" ">
<path fill="none" stroke="#63b8ff" d="M109.07,-217.97C131.32,-246.73 174.51,-298.48 220.75,-331.88 223.72,-334.02 226.84,-336.08 230.07,-338.04"/>
<polygon fill="#63b8ff" stroke="#63b8ff" points="228.21,-341.01 238.63,-342.92 231.67,-334.93 228.21,-341.01"/>
</a>
</g>
</g>
<!-- Node6 -->
<g id="Node000006" class="node">
<title>Node6</title>
<g id="a_Node000006"><a xlink:href="../../d4/d55/classml_1_1maths_1_1common_1_1_c_basic_statistics.html#a6a8651e3b13d0aaa6577af10dfdd97f7" target="_top" xlink:title="Extract the count from an accumulator object.">
<polygon fill="white" stroke="#666666" points="352.25,-323.12 232.75,-323.12 232.75,-292.62 352.25,-292.62 352.25,-323.12"/>
<text text-anchor="start" x="240.75" y="-309.62" font-family="Helvetica,sans-Serif" font-size="10.00">ml::maths::common::</text>
<text text-anchor="middle" x="292.5" y="-298.38" font-family="Helvetica,sans-Serif" font-size="10.00">CBasicStatistics::count</text>
</a>
</g>
</g>
<!-- Node1&#45;&gt;Node6 -->
<g id="edge6_Node000001_Node000006" class="edge">
<title>Node1&#45;&gt;Node6</title>
<g id="a_edge6_Node000001_Node000006"><a xlink:title=" ">
<path fill="none" stroke="#63b8ff" d="M119.87,-218.16C144.75,-237.35 183.61,-265.33 220.75,-283.88 223.48,-285.24 226.31,-286.56 229.2,-287.82"/>
<polygon fill="#63b8ff" stroke="#63b8ff" points="227.84,-291.05 238.42,-291.61 230.5,-284.57 227.84,-291.05"/>
</a>
</g>
</g>
<!-- Node7 -->
<g id="Node000007" class="node">
<title>Node7</title>
<g id="a_Node000007"><a xlink:href="../../d6/d52/namespaceml_1_1maths__t.html#ae77f71115a9c46136580ec0072ccc53c" target="_top" xlink:title="Get a weights array with count weight weight.">
<polygon fill="white" stroke="#666666" points="356.38,-274.5 228.62,-274.5 228.62,-255.25 356.38,-255.25 356.38,-274.5"/>
<text text-anchor="middle" x="292.5" y="-261" font-family="Helvetica,sans-Serif" font-size="10.00">ml::maths_t::countWeight</text>
</a>
</g>
</g>
<!-- Node1&#45;&gt;Node7 -->
<g id="edge7_Node000001_Node000007" class="edge">
<title>Node1&#45;&gt;Node7</title>
<g id="a_edge7_Node000001_Node000007"><a xlink:title=" ">
<path fill="none" stroke="#63b8ff" d="M144.99,-218.15C167.98,-227.25 195.52,-237.66 220.75,-245.88 227.03,-247.92 233.66,-249.91 240.26,-251.8"/>
<polygon fill="#63b8ff" stroke="#63b8ff" points="239.22,-255.14 249.79,-254.44 241.09,-248.4 239.22,-255.14"/>
</a>
</g>
</g>
<!-- Node9 -->
<g id="Node000009" class="node">
<title>Node9</title>
<g id="a_Node000009"><a xlink:href="../../d7/d92/classml_1_1maths_1_1common_1_1_c_model.html#aaf6ef5243e0533d64e9a30fe7c6b086f" target="_top" xlink:title=" ">
<polygon fill="white" stroke="#666666" points="364.25,-237.12 220.75,-237.12 220.75,-206.62 364.25,-206.62 364.25,-237.12"/>
<text text-anchor="start" x="228.75" y="-223.62" font-family="Helvetica,sans-Serif" font-size="10.00">ml::maths::common::</text>
<text text-anchor="middle" x="292.5" y="-212.38" font-family="Helvetica,sans-Serif" font-size="10.00">CModel::emptyBucketWeight</text>
</a>
</g>
</g>
<!-- Node1&#45;&gt;Node9 -->
<g id="edge9_Node000001_Node000009" class="edge">
<title>Node1&#45;&gt;Node9</title>
<g id="a_edge9_Node000001_Node000009"><a xlink:title=" ">
<path fill="none" stroke="#63b8ff" d="M185.19,-208.46C193.14,-209.46 201.16,-210.48 209.04,-211.47"/>
<polygon fill="#63b8ff" stroke="#63b8ff" points="208.59,-214.94 218.95,-212.72 209.47,-208 208.59,-214.94"/>
</a>
</g>
</g>
<!-- Node11 -->
<g id="Node000011" class="node">
<title>Node11</title>
<g id="a_Node000011"><a xlink:href="../../dc/dfe/classml_1_1maths_1_1common_1_1_c_model_params.html#af075461933550e88a2fe27fca3da944c" target="_top" xlink:title="Get the model learn rate.">
<polygon fill="white" stroke="#666666" points="358.25,-188.12 226.75,-188.12 226.75,-157.62 358.25,-157.62 358.25,-188.12"/>
<text text-anchor="start" x="234.75" y="-174.62" font-family="Helvetica,sans-Serif" font-size="10.00">ml::maths::common::</text>
<text text-anchor="middle" x="292.5" y="-163.38" font-family="Helvetica,sans-Serif" font-size="10.00">CModelParams::learnRate</text>
</a>
</g>
</g>
<!-- Node1&#45;&gt;Node11 -->
<g id="edge11_Node000001_Node000011" class="edge">
<title>Node1&#45;&gt;Node11</title>
<g id="a_edge11_Node000001_Node000011"><a xlink:title=" ">
<path fill="none" stroke="#63b8ff" d="M185.19,-185.75C195.15,-184.55 205.22,-183.33 214.98,-182.14"/>
<polygon fill="#63b8ff" stroke="#63b8ff" points="215.26,-185.64 224.76,-180.96 214.42,-178.69 215.26,-185.64"/>
</a>
</g>
</g>
<!-- Node12 -->
<g id="Node000012" class="node">
<title>Node12</title>
<g id="a_Node000012"><a xlink:href="../../d4/d55/classml_1_1maths_1_1common_1_1_c_basic_statistics.html#a9a136b1823e9938247cd29bb0ffea440" target="_top" xlink:title="Compute the mean of a pair.">
<polygon fill="white" stroke="#666666" points="352.25,-139.12 232.75,-139.12 232.75,-108.62 352.25,-108.62 352.25,-139.12"/>
<text text-anchor="start" x="240.75" y="-125.62" font-family="Helvetica,sans-Serif" font-size="10.00">ml::maths::common::</text>
<text text-anchor="middle" x="292.5" y="-114.38" font-family="Helvetica,sans-Serif" font-size="10.00">CBasicStatistics::mean</text>
</a>
</g>
</g>
<!-- Node1&#45;&gt;Node12 -->
<g id="edge12_Node000001_Node000012" class="edge">
<title>Node1&#45;&gt;Node12</title>
<g id="a_edge12_Node000001_Node000012"><a xlink:title=" ">
<path fill="none" stroke="#63b8ff" d="M149.08,-175.6C171.34,-167.17 197.22,-157.47 220.75,-148.88 225.69,-147.07 230.83,-145.21 235.99,-143.37"/>
<polygon fill="#63b8ff" stroke="#63b8ff" points="236.87,-146.77 245.11,-140.11 234.52,-140.18 236.87,-146.77"/>
</a>
</g>
</g>
<!-- Node13 -->
<g id="Node000013" class="node">
<title>Node13</title>
<g id="a_Node000013"><a xlink:href="../../d7/d92/classml_1_1maths_1_1common_1_1_c_model.html#a06ba2b1b27ee84d4ad891c82f52ec560" target="_top" xlink:title="Get read only model parameters.">
<polygon fill="white" stroke="#666666" points="347,-90.12 238,-90.12 238,-59.62 347,-59.62 347,-90.12"/>
<text text-anchor="start" x="246" y="-76.62" font-family="Helvetica,sans-Serif" font-size="10.00">ml::maths::common::</text>
<text text-anchor="middle" x="292.5" y="-65.38" font-family="Helvetica,sans-Serif" font-size="10.00">CModel::params</text>
</a>
</g>
</g>
<!-- Node1&#45;&gt;Node13 -->
<g id="edge13_Node000001_Node000013" class="edge">
<title>Node1&#45;&gt;Node13</title>
<g id="a_edge13_Node000001_Node000013"><a xlink:title=" ">
<path fill="none" stroke="#63b8ff" d="M116.71,-175.5C141.15,-154.03 181.38,-121.14 220.75,-99.88 223.8,-98.23 226.99,-96.65 230.24,-95.15"/>
<polygon fill="#63b8ff" stroke="#63b8ff" points="231.6,-98.37 239.41,-91.21 228.84,-91.94 231.6,-98.37"/>
</a>
</g>
</g>
<!-- Node14 -->
<g id="Node000014" class="node">
<title>Node14</title>
<g id="a_Node000014"><a xlink:href="../../d7/d8e/classml_1_1maths_1_1common_1_1_c_prior_1_1_c_model_filter.html#aa8c6229b93fc3c93dbc56bf55d3e5ff5" target="_top" xlink:title="Mark a model to be removed.">
<polygon fill="white" stroke="#666666" points="347,-41.75 238,-41.75 238,0 347,0 347,-41.75"/>
<text text-anchor="start" x="246" y="-28.25" font-family="Helvetica,sans-Serif" font-size="10.00">ml::maths::common::</text>
<text text-anchor="start" x="246" y="-17" font-family="Helvetica,sans-Serif" font-size="10.00">CPrior::CModelFilter</text>
<text text-anchor="middle" x="292.5" y="-5.75" font-family="Helvetica,sans-Serif" font-size="10.00">::remove</text>
</a>
</g>
</g>
<!-- Node1&#45;&gt;Node14 -->
<g id="edge14_Node000001_Node000014" class="edge">
<title>Node1&#45;&gt;Node14</title>
<g id="a_edge14_Node000001_Node000014"><a xlink:title=" ">
<path fill="none" stroke="#63b8ff" d="M107.25,-175.57C128.43,-144.48 171.59,-86.51 220.75,-50.88 222.94,-49.29 225.22,-47.77 227.57,-46.31"/>
<polygon fill="#63b8ff" stroke="#63b8ff" points="229.25,-49.38 236.23,-41.41 225.8,-43.29 229.25,-49.38"/>
</a>
</g>
</g>
<!-- Node3 -->
<g id="Node000003" class="node">
<title>Node3</title>
<g id="a_Node000003"><a xlink:href="../../d3/d09/classml_1_1maths_1_1time__series_1_1_c_time_series_correlations.html#a230bd35b8e13a152626a408d4b8a947c" target="_top" xlink:title="Get the ids of the time series correlated with id.">
<polygon fill="white" stroke="#666666" points="553.5,-448.75 422,-448.75 422,-407 553.5,-407 553.5,-448.75"/>
<text text-anchor="start" x="430" y="-435.25" font-family="Helvetica,sans-Serif" font-size="10.00">ml::maths::time_series</text>
<text text-anchor="start" x="430" y="-424" font-family="Helvetica,sans-Serif" font-size="10.00">::CTimeSeriesCorrelations</text>
<text text-anchor="middle" x="487.75" y="-412.75" font-family="Helvetica,sans-Serif" font-size="10.00">::correlated</text>
</a>
</g>
</g>
<!-- Node2&#45;&gt;Node3 -->
<g id="edge2_Node000002_Node000003" class="edge">
<title>Node2&#45;&gt;Node3</title>
<g id="a_edge2_Node000002_Node000003"><a xlink:title=" ">
<path fill="none" stroke="#63b8ff" d="M358.66,-386.12C375.44,-391.59 393.65,-397.53 410.93,-403.16"/>
<polygon fill="#63b8ff" stroke="#63b8ff" points="409.52,-406.38 420.11,-406.15 411.69,-399.72 409.52,-406.38"/>
</a>
</g>
</g>
<!-- Node4 -->
<g id="Node000004" class="node">
<title>Node4</title>
<g id="a_Node000004"><a xlink:href="../../d3/d09/classml_1_1maths_1_1time__series_1_1_c_time_series_correlations.html#a4f3de1745d118b3a48dd2e0e49deb08a" target="_top" xlink:title=" ">
<polygon fill="white" stroke="#666666" points="553.5,-388.75 422,-388.75 422,-347 553.5,-347 553.5,-388.75"/>
<text text-anchor="start" x="430" y="-375.25" font-family="Helvetica,sans-Serif" font-size="10.00">ml::maths::time_series</text>
<text text-anchor="start" x="430" y="-364" font-family="Helvetica,sans-Serif" font-size="10.00">::CTimeSeriesCorrelations</text>
<text text-anchor="middle" x="487.75" y="-352.75" font-family="Helvetica,sans-Serif" font-size="10.00">::refreshLookup</text>
</a>
</g>
</g>
<!-- Node2&#45;&gt;Node4 -->
<g id="edge4_Node000002_Node000004" class="edge">
<title>Node2&#45;&gt;Node4</title>
<g id="a_edge4_Node000002_Node000004"><a xlink:title=" ">
<path fill="none" stroke="#63b8ff" d="M358.66,-365.89C375.29,-366.14 393.31,-366.42 410.44,-366.69"/>
<polygon fill="#63b8ff" stroke="#63b8ff" points="409.98,-370.18 420.03,-366.84 410.09,-363.18 409.98,-370.18"/>
</a>
</g>
</g>
<!-- Node5 -->
<g id="Node000005" class="node">
<title>Node5</title>
<g id="a_Node000005"><a xlink:href="../../d0/ddc/classml_1_1maths_1_1common_1_1_c_k_most_correlated.html#a906adfbb27cb7dc20b2c4702eca645fb" target="_top" xlink:title="Remove the variables remove.">
<polygon fill="white" stroke="#666666" points="575.25,-329.12 400.25,-329.12 400.25,-298.62 575.25,-298.62 575.25,-329.12"/>
<text text-anchor="start" x="408.25" y="-315.62" font-family="Helvetica,sans-Serif" font-size="10.00">ml::maths::common::</text>
<text text-anchor="middle" x="487.75" y="-304.38" font-family="Helvetica,sans-Serif" font-size="10.00">CKMostCorrelated::removeVariables</text>
</a>
</g>
</g>
<!-- Node2&#45;&gt;Node5 -->
<g id="edge5_Node000002_Node000005" class="edge">
<title>Node2&#45;&gt;Node5</title>
<g id="a_edge5_Node000002_Node000005"><a xlink:title=" ">
<path fill="none" stroke="#63b8ff" d="M358.66,-347.68C377.16,-342.8 397.39,-337.46 416.2,-332.49"/>
<polygon fill="#63b8ff" stroke="#63b8ff" points="416.84,-335.94 425.62,-330.01 415.06,-329.18 416.84,-335.94"/>
</a>
</g>
</g>
<!-- Node3&#45;&gt;Node3 -->
<g id="edge3_Node000003_Node000003" class="edge">
<title>Node3&#45;&gt;Node3</title>
<g id="a_edge3_Node000003_Node000003"><a xlink:title=" ">
<path fill="none" stroke="#63b8ff" d="M451.71,-449.07C448.28,-458.55 460.29,-466.75 487.75,-466.75 503.62,-466.75 514.34,-464.01 519.88,-459.86"/>
<polygon fill="#63b8ff" stroke="#63b8ff" points="523.16,-461.09 523.27,-450.49 516.58,-458.71 523.16,-461.09"/>
</a>
</g>
</g>
<!-- Node8 -->
<g id="Node000008" class="node">
<title>Node8</title>
<g id="a_Node000008"><a xlink:href="../../d4/d0a/classml_1_1maths__t_1_1_c_unit_weights.html#ab810619bd835e01fc3f4e1fbd1706487" target="_top" xlink:title="Get a conformable unit weight for weight.">
<polygon fill="white" stroke="#666666" points="555,-280.12 420.5,-280.12 420.5,-249.62 555,-249.62 555,-280.12"/>
<text text-anchor="start" x="428.5" y="-266.62" font-family="Helvetica,sans-Serif" font-size="10.00">ml::maths_t::CUnitWeights</text>
<text text-anchor="middle" x="487.75" y="-255.38" font-family="Helvetica,sans-Serif" font-size="10.00">::unit</text>
</a>
</g>
</g>
<!-- Node7&#45;&gt;Node8 -->
<g id="edge8_Node000007_Node000008" class="edge">
<title>Node7&#45;&gt;Node8</title>
<g id="a_edge8_Node000007_Node000008"><a xlink:title=" ">
<path fill="none" stroke="#63b8ff" d="M356.78,-264.88C373.39,-264.88 391.51,-264.88 408.79,-264.88"/>
<polygon fill="#63b8ff" stroke="#63b8ff" points="408.49,-268.38 418.49,-264.88 408.49,-261.38 408.49,-268.38"/>
</a>
</g>
</g>
<!-- Node10 -->
<g id="Node000010" class="node">
<title>Node10</title>
<g id="a_Node000010"><a xlink:href="../../dd/d55/classml_1_1maths_1_1common_1_1_c_tools.html#a0ee3c8a8c133d36faa270f96ff48ae21" target="_top" xlink:title=" ">
<polygon fill="white" stroke="#666666" points="542.25,-231.12 433.25,-231.12 433.25,-200.62 542.25,-200.62 542.25,-231.12"/>
<text text-anchor="start" x="441.25" y="-217.62" font-family="Helvetica,sans-Serif" font-size="10.00">ml::maths::common::</text>
<text text-anchor="middle" x="487.75" y="-206.38" font-family="Helvetica,sans-Serif" font-size="10.00">CTools::truncate</text>
</a>
</g>
</g>
<!-- Node9&#45;&gt;Node10 -->
<g id="edge10_Node000009_Node000010" class="edge">
<title>Node9&#45;&gt;Node10</title>
<g id="a_edge10_Node000009_Node000010"><a xlink:title=" ">
<path fill="none" stroke="#63b8ff" d="M364.64,-219.67C383.26,-219.09 403.25,-218.47 421.55,-217.9"/>
<polygon fill="#63b8ff" stroke="#63b8ff" points="421.6,-221.4 431.49,-217.59 421.39,-214.4 421.6,-221.4"/>
</a>
</g>
</g>
</g>
</svg>
