<?xml version="1.0" encoding="UTF-8" standalone="no"?>
<!DOCTYPE svg PUBLIC "-//W3C//DTD SVG 1.1//EN"
 "http://www.w3.org/Graphics/SVG/1.1/DTD/svg11.dtd">
<!-- Generated by graphviz version 10.0.1 (20240210.2158)
 -->
<!-- Title: ml::maths::time_series::CUnivariateTimeSeriesModel::unpack Pages: 1 -->
<!--zoomable 483 -->

<svg id="main" version="1.1" xmlns="http://www.w3.org/2000/svg" xmlns:xlink="http://www.w3.org/1999/xlink" xml:space="preserve" onload="init(evt)">
<style type="text/css"><![CDATA[
.node, .edge {opacity: 0.7;}
.node.selected, .edge.selected {opacity: 1;}
.edge:hover path { stroke: red; }
.edge:hover polygon { stroke: red; fill: red; }
]]></style>

<defs>
  <circle id="rim" cx="0" cy="0" r="7"/>
  <circle id="rim2" cx="0" cy="0" r="3.5"/>
  <g id="zoomPlus">
    <use xlink:href="#rim" fill="#404040"><set attributeName="fill" to="#808080" begin="zoomplus.mouseover" end="zoomplus.mouseout"/></use>
    <path d="M-4,0h8M0,-4v8" fill="none" stroke="white" stroke-width="1.5" pointer-events="none"/>
  </g>
  <g id="zoomMin">
    <use xlink:href="#rim" fill="#404040"><set attributeName="fill" to="#808080" begin="zoomminus.mouseover" end="zoomminus.mouseout"/></use>
    <path d="M-4,0h8" fill="none" stroke="white" stroke-width="1.5" pointer-events="none"/>
  </g>
  <g id="arrowUp" transform="translate(30 24)">
    <use xlink:href="#rim"/>
    <path pointer-events="none" fill="none" stroke="white" stroke-width="1.5" d="M0,-3.0v7 M-2.5,-0.5L0,-3.0L2.5,-0.5"/>
  </g>
  <g id="arrowRight" transform="rotate(90) translate(36 -43)">
    <use xlink:href="#rim"/>
    <path pointer-events="none" fill="none" stroke="white" stroke-width="1.5" d="M0,-3.0v7 M-2.5,-0.5L0,-3.0L2.5,-0.5"/>
  </g>
  <g id="arrowDown" transform="rotate(180) translate(-30 -48)">
    <use xlink:href="#rim"/>
    <path pointer-events="none" fill="none" stroke="white" stroke-width="1.5" d="M0,-3.0v7 M-2.5,-0.5L0,-3.0L2.5,-0.5"/>
  </g>
  <g id="arrowLeft" transform="rotate(270) translate(-36 17)">
    <use xlink:href="#rim"/>
    <path pointer-events="none" fill="none" stroke="white" stroke-width="1.5" d="M0,-3.0v7 M-2.5,-0.5L0,-3.0L2.5,-0.5"/>
  </g>
  <g id="resetDef">
    <use xlink:href="#rim2" fill="#404040"><set attributeName="fill" to="#808080" begin="reset.mouseover" end="reset.mouseout"/></use>
  </g>
</defs>
<script type="application/ecmascript">
var viewWidth = 927;
var viewHeight = 483;
var sectionId = 'dynsection-49';
</script>
<script type="application/ecmascript" xlink:href="../../svg.min.js"/>
<svg id="graph" class="graph">
<g id="viewport">
<title>ml::maths::time_series::CUnivariateTimeSeriesModel::unpack</title>
<!-- Node1 -->
<g id="Node000001" class="node">
<title>Node1</title>
<g id="a_Node000001"><a xlink:title="Unpack the weights in weights.">
<polygon fill="#999999" stroke="#666666" points="919.25,-217.75 769.75,-217.75 769.75,-176 919.25,-176 919.25,-217.75"/>
<text text-anchor="start" x="777.75" y="-204.25" font-family="Helvetica,sans-Serif" font-size="10.00">ml::maths::time_series</text>
<text text-anchor="start" x="777.75" y="-193" font-family="Helvetica,sans-Serif" font-size="10.00">::CUnivariateTimeSeriesModel</text>
<text text-anchor="middle" x="844.5" y="-181.75" font-family="Helvetica,sans-Serif" font-size="10.00">::unpack</text>
</a>
</g>
</g>
<!-- Node2 -->
<g id="Node000002" class="node">
<title>Node2</title>
<g id="a_Node000002"><a xlink:href="../../d3/d09/classml_1_1maths_1_1time__series_1_1_c_time_series_correlations.html#a7bec4885f4946d241434d4576793c3df" target="_top" xlink:title="Add a sample for the time series identified by id.">
<polygon fill="white" stroke="#666666" points="709.75,-415.75 578.25,-415.75 578.25,-374 709.75,-374 709.75,-415.75"/>
<text text-anchor="start" x="586.25" y="-402.25" font-family="Helvetica,sans-Serif" font-size="10.00">ml::maths::time_series</text>
<text text-anchor="start" x="586.25" y="-391" font-family="Helvetica,sans-Serif" font-size="10.00">::CTimeSeriesCorrelations</text>
<text text-anchor="middle" x="644" y="-379.75" font-family="Helvetica,sans-Serif" font-size="10.00">::addSamples</text>
</a>
</g>
</g>
<!-- Node1&#45;&gt;Node2 -->
<g id="edge1_Node000001_Node000002" class="edge">
<title>Node1&#45;&gt;Node2</title>
<g id="a_edge1_Node000001_Node000002"><a xlink:title=" ">
<path fill="none" stroke="#63b8ff" d="M830.58,-228.6C813.68,-266.28 780.63,-328.56 733.75,-364.88 726.68,-370.35 718.55,-374.86 710.14,-378.57"/>
<polygon fill="#63b8ff" stroke="#63b8ff" points="833.71,-230.17 834.5,-219.6 827.3,-227.37 833.71,-230.17"/>
</a>
</g>
</g>
<!-- Node14 -->
<g id="Node000014" class="node">
<title>Node14</title>
<g id="a_Node000014"><a xlink:href="../../df/dbc/classml_1_1maths_1_1time__series_1_1_c_univariate_time_series_model.html#a0e3783014f92b8805cd76adfcd60fd80" target="_top" xlink:title=" ">
<polygon fill="white" stroke="#666666" points="718.75,-217.75 569.25,-217.75 569.25,-176 718.75,-176 718.75,-217.75"/>
<text text-anchor="start" x="577.25" y="-204.25" font-family="Helvetica,sans-Serif" font-size="10.00">ml::maths::time_series</text>
<text text-anchor="start" x="577.25" y="-193" font-family="Helvetica,sans-Serif" font-size="10.00">::CUnivariateTimeSeriesModel</text>
<text text-anchor="middle" x="644" y="-181.75" font-family="Helvetica,sans-Serif" font-size="10.00">::confidenceInterval</text>
</a>
</g>
</g>
<!-- Node1&#45;&gt;Node14 -->
<g id="edge13_Node000001_Node000014" class="edge">
<title>Node1&#45;&gt;Node14</title>
<g id="a_edge13_Node000001_Node000014"><a xlink:title=" ">
<path fill="none" stroke="#63b8ff" d="M758.02,-196.88C745.07,-196.88 731.79,-196.88 719.11,-196.88"/>
<polygon fill="#63b8ff" stroke="#63b8ff" points="757.79,-200.38 767.79,-196.88 757.79,-193.38 757.79,-200.38"/>
</a>
</g>
</g>
<!-- Node18 -->
<g id="Node000018" class="node">
<title>Node18</title>
<g id="a_Node000018"><a xlink:href="../../df/dbc/classml_1_1maths_1_1time__series_1_1_c_univariate_time_series_model.html#a3d181364115a2edf076b1165396f9edc" target="_top" xlink:title="Compute the probability for uncorrelated series.">
<polygon fill="white" stroke="#666666" points="518.25,-161.75 368.75,-161.75 368.75,-120 518.25,-120 518.25,-161.75"/>
<text text-anchor="start" x="376.75" y="-148.25" font-family="Helvetica,sans-Serif" font-size="10.00">ml::maths::time_series</text>
<text text-anchor="start" x="376.75" y="-137" font-family="Helvetica,sans-Serif" font-size="10.00">::CUnivariateTimeSeriesModel</text>
<text text-anchor="middle" x="443.5" y="-125.75" font-family="Helvetica,sans-Serif" font-size="10.00">::uncorrelatedProbability</text>
</a>
</g>
</g>
<!-- Node1&#45;&gt;Node18 -->
<g id="edge25_Node000001_Node000018" class="edge">
<title>Node1&#45;&gt;Node18</title>
<g id="a_edge25_Node000001_Node000018"><a xlink:title=" ">
<path fill="none" stroke="#63b8ff" d="M761.81,-172.84C752.4,-170.58 742.9,-168.52 733.75,-166.88 661.3,-153.82 577.41,-147.2 518.69,-143.92"/>
<polygon fill="#63b8ff" stroke="#63b8ff" points="760.76,-176.19 771.31,-175.21 762.45,-169.39 760.76,-176.19"/>
</a>
</g>
</g>
<!-- Node20 -->
<g id="Node000020" class="node">
<title>Node20</title>
<g id="a_Node000020"><a xlink:href="../../df/dbc/classml_1_1maths_1_1time__series_1_1_c_univariate_time_series_model.html#a7e62f7c23e23118c30b0b2dc0f16fe34" target="_top" xlink:title="Get the most likely value for the time series at time.">
<polygon fill="white" stroke="#666666" points="733.75,-96.12 554.25,-96.12 554.25,-65.62 733.75,-65.62 733.75,-96.12"/>
<text text-anchor="start" x="562.25" y="-82.62" font-family="Helvetica,sans-Serif" font-size="10.00">ml::maths::time_series</text>
<text text-anchor="middle" x="644" y="-71.38" font-family="Helvetica,sans-Serif" font-size="10.00">::CUnivariateTimeSeriesModel::mode</text>
</a>
</g>
</g>
<!-- Node1&#45;&gt;Node20 -->
<g id="edge21_Node000001_Node000020" class="edge">
<title>Node1&#45;&gt;Node20</title>
<g id="a_edge21_Node000001_Node000020"><a xlink:title=" ">
<path fill="none" stroke="#63b8ff" d="M797.56,-170.03C758.64,-147.28 704.18,-115.46 671.95,-96.62"/>
<polygon fill="#63b8ff" stroke="#63b8ff" points="795.39,-172.81 805.79,-174.84 798.92,-166.77 795.39,-172.81"/>
</a>
</g>
</g>
<!-- Node22 -->
<g id="Node000022" class="node">
<title>Node22</title>
<g id="a_Node000022"><a xlink:href="../../df/dbc/classml_1_1maths_1_1time__series_1_1_c_univariate_time_series_model.html#ae21bdd1d48ba7b622f5ccf8ed9100932" target="_top" xlink:title="Get the local maxima of the residual distribution.">
<polygon fill="white" stroke="#666666" points="518.25,-41.75 368.75,-41.75 368.75,0 518.25,0 518.25,-41.75"/>
<text text-anchor="start" x="376.75" y="-28.25" font-family="Helvetica,sans-Serif" font-size="10.00">ml::maths::time_series</text>
<text text-anchor="start" x="376.75" y="-17" font-family="Helvetica,sans-Serif" font-size="10.00">::CUnivariateTimeSeriesModel</text>
<text text-anchor="middle" x="443.5" y="-5.75" font-family="Helvetica,sans-Serif" font-size="10.00">::residualModes</text>
</a>
</g>
</g>
<!-- Node1&#45;&gt;Node22 -->
<g id="edge24_Node000001_Node000022" class="edge">
<title>Node1&#45;&gt;Node22</title>
<g id="a_edge24_Node000001_Node000022"><a xlink:title=" ">
<path fill="none" stroke="#63b8ff" d="M828.46,-165.7C810.75,-132.67 778.02,-81.92 733.75,-56.88 667.79,-19.56 580.03,-13.58 518.53,-15.05"/>
<polygon fill="#63b8ff" stroke="#63b8ff" points="825.27,-167.14 832.99,-174.4 831.48,-163.91 825.27,-167.14"/>
</a>
</g>
</g>
<!-- Node23 -->
<g id="Node000023" class="node">
<title>Node23</title>
<g id="a_Node000023"><a xlink:href="../../df/dbc/classml_1_1maths_1_1time__series_1_1_c_univariate_time_series_model.html#a4eea9c10d476a7439b6632c38cbfca63" target="_top" xlink:title="Update the residual models.">
<polygon fill="white" stroke="#666666" points="718.75,-355.75 569.25,-355.75 569.25,-314 718.75,-314 718.75,-355.75"/>
<text text-anchor="start" x="577.25" y="-342.25" font-family="Helvetica,sans-Serif" font-size="10.00">ml::maths::time_series</text>
<text text-anchor="start" x="577.25" y="-331" font-family="Helvetica,sans-Serif" font-size="10.00">::CUnivariateTimeSeriesModel</text>
<text text-anchor="middle" x="644" y="-319.75" font-family="Helvetica,sans-Serif" font-size="10.00">::updateResidualModels</text>
</a>
</g>
</g>
<!-- Node1&#45;&gt;Node23 -->
<g id="edge26_Node000001_Node000023" class="edge">
<title>Node1&#45;&gt;Node23</title>
<g id="a_edge26_Node000001_Node000023"><a xlink:title=" ">
<path fill="none" stroke="#63b8ff" d="M819.77,-226.78C799.27,-250.85 767.67,-284 733.75,-304.88 728.49,-308.11 722.83,-311.05 717.01,-313.71"/>
<polygon fill="#63b8ff" stroke="#63b8ff" points="822.38,-229.12 826.1,-219.2 817,-224.64 822.38,-229.12"/>
</a>
</g>
</g>
<!-- Node24 -->
<g id="Node000024" class="node">
<title>Node24</title>
<g id="a_Node000024"><a xlink:href="../../df/dbc/classml_1_1maths_1_1time__series_1_1_c_univariate_time_series_model.html#aa7c97f17985bf16b0f1b937ab0f2e73b" target="_top" xlink:title="Update the trend with samples.">
<polygon fill="white" stroke="#666666" points="718.75,-295.75 569.25,-295.75 569.25,-254 718.75,-254 718.75,-295.75"/>
<text text-anchor="start" x="577.25" y="-282.25" font-family="Helvetica,sans-Serif" font-size="10.00">ml::maths::time_series</text>
<text text-anchor="start" x="577.25" y="-271" font-family="Helvetica,sans-Serif" font-size="10.00">::CUnivariateTimeSeriesModel</text>
<text text-anchor="middle" x="644" y="-259.75" font-family="Helvetica,sans-Serif" font-size="10.00">::updateTrend</text>
</a>
</g>
</g>
<!-- Node1&#45;&gt;Node24 -->
<g id="edge28_Node000001_Node000024" class="edge">
<title>Node1&#45;&gt;Node24</title>
<g id="a_edge28_Node000001_Node000024"><a xlink:title=" ">
<path fill="none" stroke="#63b8ff" d="M786.84,-222.77C769.89,-230.21 751.18,-238.13 733.75,-244.88 726.17,-247.81 718.16,-250.74 710.18,-253.56"/>
<polygon fill="#63b8ff" stroke="#63b8ff" points="788.03,-226.07 795.76,-218.82 785.2,-219.67 788.03,-226.07"/>
</a>
</g>
</g>
<!-- Node3 -->
<g id="Node000003" class="node">
<title>Node3</title>
<g id="a_Node000003"><a xlink:href="../../df/dbc/classml_1_1maths_1_1time__series_1_1_c_univariate_time_series_model.html#abbc951e2c02da8dc7291c1e137066120" target="_top" xlink:title="Update the model with new samples.">
<polygon fill="white" stroke="#666666" points="518.25,-411.75 368.75,-411.75 368.75,-370 518.25,-370 518.25,-411.75"/>
<text text-anchor="start" x="376.75" y="-398.25" font-family="Helvetica,sans-Serif" font-size="10.00">ml::maths::time_series</text>
<text text-anchor="start" x="376.75" y="-387" font-family="Helvetica,sans-Serif" font-size="10.00">::CUnivariateTimeSeriesModel</text>
<text text-anchor="middle" x="443.5" y="-375.75" font-family="Helvetica,sans-Serif" font-size="10.00">::addSamples</text>
</a>
</g>
</g>
<!-- Node2&#45;&gt;Node3 -->
<g id="edge2_Node000002_Node000003" class="edge">
<title>Node2&#45;&gt;Node3</title>
<g id="a_edge2_Node000002_Node000003"><a xlink:title=" ">
<path fill="none" stroke="#63b8ff" d="M566.68,-393.34C550.9,-393.02 534.29,-392.68 518.59,-392.37"/>
<polygon fill="#63b8ff" stroke="#63b8ff" points="566.42,-396.83 576.49,-393.53 566.56,-389.83 566.42,-396.83"/>
</a>
</g>
</g>
<!-- Node4 -->
<g id="Node000004" class="node">
<title>Node4</title>
<g id="a_Node000004"><a xlink:href="../../d9/d15/_c_time_series_model_test_8cc.html#abc483ac7520debe8bbc5a076238e7a3b" target="_top" xlink:title=" ">
<polygon fill="white" stroke="#666666" points="331.62,-474.5 184.38,-474.5 184.38,-455.25 331.62,-455.25 331.62,-474.5"/>
<text text-anchor="middle" x="258" y="-461" font-family="Helvetica,sans-Serif" font-size="10.00">BOOST_AUTO_TEST_CASE</text>
</a>
</g>
</g>
<!-- Node3&#45;&gt;Node4 -->
<g id="edge3_Node000003_Node000004" class="edge">
<title>Node3&#45;&gt;Node4</title>
<g id="a_edge3_Node000003_Node000004"><a xlink:title=" ">
<path fill="none" stroke="#63b8ff" d="M396.4,-417.42C377.18,-427.68 354.34,-438.86 332.75,-446.88 324.6,-449.9 315.74,-452.57 307.1,-454.85"/>
<polygon fill="#63b8ff" stroke="#63b8ff" points="397.93,-420.57 405.05,-412.72 394.59,-414.42 397.93,-420.57"/>
</a>
</g>
</g>
<!-- Node5 -->
<g id="Node000005" class="node">
<title>Node5</title>
<g id="a_Node000005"><a xlink:href="../../d1/dde/_c_forecast_test_8cc.html#ad42e086bd0f9327a48da0ca36b1f8a92" target="_top" xlink:title=" ">
<polygon fill="white" stroke="#666666" points="331.62,-437.5 184.38,-437.5 184.38,-418.25 331.62,-418.25 331.62,-437.5"/>
<text text-anchor="middle" x="258" y="-424" font-family="Helvetica,sans-Serif" font-size="10.00">BOOST_AUTO_TEST_CASE</text>
</a>
</g>
</g>
<!-- Node3&#45;&gt;Node5 -->
<g id="edge4_Node000003_Node000005" class="edge">
<title>Node3&#45;&gt;Node5</title>
<g id="a_edge4_Node000003_Node000005"><a xlink:title=" ">
<path fill="none" stroke="#63b8ff" d="M357.11,-408.09C340.71,-411.4 324.03,-414.76 309.2,-417.75"/>
<polygon fill="#63b8ff" stroke="#63b8ff" points="357.8,-411.52 366.91,-406.12 356.41,-404.66 357.8,-411.52"/>
</a>
</g>
</g>
<!-- Node6 -->
<g id="Node000006" class="node">
<title>Node6</title>
<g id="a_Node000006"><a xlink:href="../../d1/dde/_c_forecast_test_8cc.html#a70cc70fe7d81a6f242ec06a81071f5bd" target="_top" xlink:title=" ">
<polygon fill="white" stroke="#666666" points="331.62,-400.5 184.38,-400.5 184.38,-381.25 331.62,-381.25 331.62,-400.5"/>
<text text-anchor="middle" x="258" y="-387" font-family="Helvetica,sans-Serif" font-size="10.00">BOOST_AUTO_TEST_CASE</text>
</a>
</g>
</g>
<!-- Node3&#45;&gt;Node6 -->
<g id="edge5_Node000003_Node000006" class="edge">
<title>Node3&#45;&gt;Node6</title>
<g id="a_edge5_Node000003_Node000006"><a xlink:title=" ">
<path fill="none" stroke="#63b8ff" d="M357.01,-390.88C348.62,-390.88 340.15,-390.88 331.89,-390.88"/>
<polygon fill="#63b8ff" stroke="#63b8ff" points="356.88,-394.38 366.88,-390.88 356.88,-387.38 356.88,-394.38"/>
</a>
</g>
</g>
<!-- Node7 -->
<g id="Node000007" class="node">
<title>Node7</title>
<g id="a_Node000007"><a xlink:href="../../d1/dde/_c_forecast_test_8cc.html#a0208c9401947e7d3e4e1b46c59f26337" target="_top" xlink:title=" ">
<polygon fill="white" stroke="#666666" points="331.62,-237.5 184.38,-237.5 184.38,-218.25 331.62,-218.25 331.62,-237.5"/>
<text text-anchor="middle" x="258" y="-224" font-family="Helvetica,sans-Serif" font-size="10.00">BOOST_AUTO_TEST_CASE</text>
</a>
</g>
</g>
<!-- Node3&#45;&gt;Node7 -->
<g id="edge6_Node000003_Node000007" class="edge">
<title>Node3&#45;&gt;Node7</title>
<g id="a_edge6_Node000003_Node000007"><a xlink:title=" ">
<path fill="none" stroke="#63b8ff" d="M369.29,-362.4C369.11,-362.22 368.93,-362.05 368.75,-361.88 338.9,-332.55 359.64,-306.94 332.75,-274.88 318.99,-258.47 298.02,-245.88 281.95,-237.88"/>
<polygon fill="#63b8ff" stroke="#63b8ff" points="366.93,-364.99 376.91,-368.55 371.33,-359.55 366.93,-364.99"/>
</a>
</g>
</g>
<!-- Node8 -->
<g id="Node000008" class="node">
<title>Node8</title>
<g id="a_Node000008"><a xlink:href="../../d9/d15/_c_time_series_model_test_8cc.html#ad5ee31f31475c4d41301af0340450ba9" target="_top" xlink:title=" ">
<polygon fill="white" stroke="#666666" points="331.62,-363.5 184.38,-363.5 184.38,-344.25 331.62,-344.25 331.62,-363.5"/>
<text text-anchor="middle" x="258" y="-350" font-family="Helvetica,sans-Serif" font-size="10.00">BOOST_AUTO_TEST_CASE</text>
</a>
</g>
</g>
<!-- Node3&#45;&gt;Node8 -->
<g id="edge7_Node000003_Node000008" class="edge">
<title>Node3&#45;&gt;Node8</title>
<g id="a_edge7_Node000003_Node000008"><a xlink:title=" ">
<path fill="none" stroke="#63b8ff" d="M357.11,-373.66C340.71,-370.35 324.03,-366.99 309.2,-364"/>
<polygon fill="#63b8ff" stroke="#63b8ff" points="356.41,-377.09 366.91,-375.63 357.8,-370.23 356.41,-377.09"/>
</a>
</g>
</g>
<!-- Node9 -->
<g id="Node000009" class="node">
<title>Node9</title>
<g id="a_Node000009"><a xlink:href="../../db/dde/classanonymous__namespace_02_c_forecast_test_8cc_03_1_1_c_test.html#a6ede2ad9f3a7a40577da81f22f10d7bf" target="_top" xlink:title=" ">
<polygon fill="white" stroke="#666666" points="318.88,-325.75 197.12,-325.75 197.12,-284 318.88,-284 318.88,-325.75"/>
<text text-anchor="start" x="205.12" y="-312.25" font-family="Helvetica,sans-Serif" font-size="10.00">anonymous_namespace</text>
<text text-anchor="start" x="205.12" y="-301" font-family="Helvetica,sans-Serif" font-size="10.00">{CForecastTest::cc}</text>
<text text-anchor="middle" x="258" y="-289.75" font-family="Helvetica,sans-Serif" font-size="10.00">::CTest::run</text>
</a>
</g>
</g>
<!-- Node3&#45;&gt;Node9 -->
<g id="edge8_Node000003_Node000009" class="edge">
<title>Node3&#45;&gt;Node9</title>
<g id="a_edge8_Node000003_Node000009"><a xlink:title=" ">
<path fill="none" stroke="#63b8ff" d="M373.8,-364.59C372.09,-363.7 370.4,-362.8 368.75,-361.88 351.29,-352.13 350.16,-344.72 332.75,-334.88 327.34,-331.81 321.55,-328.9 315.68,-326.18"/>
<polygon fill="#63b8ff" stroke="#63b8ff" points="371.97,-367.59 382.49,-368.84 375.05,-361.31 371.97,-367.59"/>
</a>
</g>
</g>
<!-- Node10 -->
<g id="Node000010" class="node">
<title>Node10</title>
<g id="a_Node000010"><a xlink:href="../../d1/dde/_c_forecast_test_8cc.html#a28992938b93647afb83a53246e509905" target="_top" xlink:title=" ">
<polygon fill="white" stroke="#666666" points="147.25,-369.5 0,-369.5 0,-350.25 147.25,-350.25 147.25,-369.5"/>
<text text-anchor="middle" x="73.62" y="-356" font-family="Helvetica,sans-Serif" font-size="10.00">BOOST_AUTO_TEST_CASE</text>
</a>
</g>
</g>
<!-- Node9&#45;&gt;Node10 -->
<g id="edge9_Node000009_Node000010" class="edge">
<title>Node9&#45;&gt;Node10</title>
<g id="a_edge9_Node000009_Node000010"><a xlink:title=" ">
<path fill="none" stroke="#63b8ff" d="M186.2,-329.69C173.3,-333.94 159.92,-338.18 147.25,-341.88 137.77,-344.64 127.52,-347.35 117.79,-349.8"/>
<polygon fill="#63b8ff" stroke="#63b8ff" points="187.08,-333.09 195.47,-326.61 184.87,-326.45 187.08,-333.09"/>
</a>
</g>
</g>
<!-- Node11 -->
<g id="Node000011" class="node">
<title>Node11</title>
<g id="a_Node000011"><a xlink:href="../../d1/dde/_c_forecast_test_8cc.html#a19e2174c93ee23be6129488081463518" target="_top" xlink:title=" ">
<polygon fill="white" stroke="#666666" points="147.25,-332.5 0,-332.5 0,-313.25 147.25,-313.25 147.25,-332.5"/>
<text text-anchor="middle" x="73.62" y="-319" font-family="Helvetica,sans-Serif" font-size="10.00">BOOST_AUTO_TEST_CASE</text>
</a>
</g>
</g>
<!-- Node9&#45;&gt;Node11 -->
<g id="edge10_Node000009_Node000011" class="edge">
<title>Node9&#45;&gt;Node11</title>
<g id="a_edge10_Node000009_Node000011"><a xlink:title=" ">
<path fill="none" stroke="#63b8ff" d="M185.49,-311.93C173,-313.17 160,-314.45 147.48,-315.68"/>
<polygon fill="#63b8ff" stroke="#63b8ff" points="185.66,-315.43 195.27,-310.97 184.98,-308.47 185.66,-315.43"/>
</a>
</g>
</g>
<!-- Node12 -->
<g id="Node000012" class="node">
<title>Node12</title>
<g id="a_Node000012"><a xlink:href="../../d1/dde/_c_forecast_test_8cc.html#a6f0a097737936cba7ec32a5bce60ca3d" target="_top" xlink:title=" ">
<polygon fill="white" stroke="#666666" points="147.25,-295.5 0,-295.5 0,-276.25 147.25,-276.25 147.25,-295.5"/>
<text text-anchor="middle" x="73.62" y="-282" font-family="Helvetica,sans-Serif" font-size="10.00">BOOST_AUTO_TEST_CASE</text>
</a>
</g>
</g>
<!-- Node9&#45;&gt;Node12 -->
<g id="edge11_Node000009_Node000012" class="edge">
<title>Node9&#45;&gt;Node12</title>
<g id="a_edge11_Node000009_Node000012"><a xlink:title=" ">
<path fill="none" stroke="#63b8ff" d="M185.49,-297.42C173,-296.12 160,-294.77 147.48,-293.47"/>
<polygon fill="#63b8ff" stroke="#63b8ff" points="184.96,-300.89 195.27,-298.44 185.69,-293.93 184.96,-300.89"/>
</a>
</g>
</g>
<!-- Node13 -->
<g id="Node000013" class="node">
<title>Node13</title>
<g id="a_Node000013"><a xlink:href="../../d1/dde/_c_forecast_test_8cc.html#a3bf9a5986a59219078bac60c69302d4b" target="_top" xlink:title=" ">
<polygon fill="white" stroke="#666666" points="147.25,-258.5 0,-258.5 0,-239.25 147.25,-239.25 147.25,-258.5"/>
<text text-anchor="middle" x="73.62" y="-245" font-family="Helvetica,sans-Serif" font-size="10.00">BOOST_AUTO_TEST_CASE</text>
</a>
</g>
</g>
<!-- Node9&#45;&gt;Node13 -->
<g id="edge12_Node000009_Node000013" class="edge">
<title>Node9&#45;&gt;Node13</title>
<g id="a_edge12_Node000009_Node000013"><a xlink:title=" ">
<path fill="none" stroke="#63b8ff" d="M188.02,-279.93C174.57,-275.36 160.52,-270.81 147.25,-266.88 137.91,-264.11 127.81,-261.42 118.19,-258.99"/>
<polygon fill="#63b8ff" stroke="#63b8ff" points="186.62,-283.15 197.22,-283.08 188.9,-276.53 186.62,-283.15"/>
</a>
</g>
</g>
<!-- Node14&#45;&gt;Node14 -->
<g id="edge15_Node000014_Node000014" class="edge">
<title>Node14&#45;&gt;Node14</title>
<g id="a_edge15_Node000014_Node000014"><a xlink:title=" ">
<path fill="none" stroke="#63b8ff" d="M677.45,-228.53C671.89,-232.86 660.74,-235.75 644,-235.75 615.8,-235.75 603.47,-227.55 606.99,-218.07"/>
<polygon fill="#63b8ff" stroke="#63b8ff" points="680.61,-230.1 680.52,-219.5 673.98,-227.84 680.61,-230.1"/>
</a>
</g>
</g>
<!-- Node15 -->
<g id="Node000015" class="node">
<title>Node15</title>
<g id="a_Node000015"><a xlink:href="../../da/db6/classanonymous__namespace_02_c_time_series_model_test_8cc_03_1_1_c_debug_generator.html#ab3fcb472ea15d8ff827499e5234c777f" target="_top" xlink:title=" ">
<polygon fill="white" stroke="#666666" points="504.75,-352.38 382.25,-352.38 382.25,-299.38 504.75,-299.38 504.75,-352.38"/>
<text text-anchor="start" x="390.25" y="-338.88" font-family="Helvetica,sans-Serif" font-size="10.00">anonymous_namespace</text>
<text text-anchor="start" x="390.25" y="-327.62" font-family="Helvetica,sans-Serif" font-size="10.00">{CTimeSeriesModelTest</text>
<text text-anchor="start" x="390.25" y="-316.38" font-family="Helvetica,sans-Serif" font-size="10.00">::cc}::CDebugGenerator</text>
<text text-anchor="middle" x="443.5" y="-305.12" font-family="Helvetica,sans-Serif" font-size="10.00">::addValueAndPrediction</text>
</a>
</g>
</g>
<!-- Node14&#45;&gt;Node15 -->
<g id="edge14_Node000014_Node000015" class="edge">
<title>Node14&#45;&gt;Node15</title>
<g id="a_edge14_Node000014_Node000015"><a xlink:title=" ">
<path fill="none" stroke="#63b8ff" d="M585.21,-223.63C574.4,-229.86 563.57,-237 554.25,-244.88 534.42,-261.62 538.52,-274.65 518.25,-290.88 514.16,-294.15 509.7,-297.21 505.08,-300.05"/>
<polygon fill="#63b8ff" stroke="#63b8ff" points="586.71,-226.8 593.77,-218.91 583.33,-220.67 586.71,-226.8"/>
</a>
</g>
</g>
<!-- Node16 -->
<g id="Node000016" class="node">
<title>Node16</title>
<g id="a_Node000016"><a xlink:href="../../df/dbc/classml_1_1maths_1_1time__series_1_1_c_univariate_time_series_model.html#aa82bbb853d097c3a42f01423bbfeccab" target="_top" xlink:title="Remove any trend components from value.">
<polygon fill="white" stroke="#666666" points="518.25,-281.75 368.75,-281.75 368.75,-240 518.25,-240 518.25,-281.75"/>
<text text-anchor="start" x="376.75" y="-268.25" font-family="Helvetica,sans-Serif" font-size="10.00">ml::maths::time_series</text>
<text text-anchor="start" x="376.75" y="-257" font-family="Helvetica,sans-Serif" font-size="10.00">::CUnivariateTimeSeriesModel</text>
<text text-anchor="middle" x="443.5" y="-245.75" font-family="Helvetica,sans-Serif" font-size="10.00">::detrend</text>
</a>
</g>
</g>
<!-- Node14&#45;&gt;Node16 -->
<g id="edge16_Node000014_Node000016" class="edge">
<title>Node14&#45;&gt;Node16</title>
<g id="a_edge16_Node000014_Node000016"><a xlink:title=" ">
<path fill="none" stroke="#63b8ff" d="M565.99,-221.71C547.72,-227.6 528.39,-233.83 510.65,-239.55"/>
<polygon fill="#63b8ff" stroke="#63b8ff" points="567.02,-225.05 575.46,-218.65 564.87,-218.39 567.02,-225.05"/>
</a>
</g>
</g>
<!-- Node17 -->
<g id="Node000017" class="node">
<title>Node17</title>
<g id="a_Node000017"><a xlink:href="../../df/dbc/classml_1_1maths_1_1time__series_1_1_c_univariate_time_series_model.html#a22f65540f489c2c05049f2367b43e2fd" target="_top" xlink:title=" ">
<polygon fill="white" stroke="#666666" points="518.25,-221.75 368.75,-221.75 368.75,-180 518.25,-180 518.25,-221.75"/>
<text text-anchor="start" x="376.75" y="-208.25" font-family="Helvetica,sans-Serif" font-size="10.00">ml::maths::time_series</text>
<text text-anchor="start" x="376.75" y="-197" font-family="Helvetica,sans-Serif" font-size="10.00">::CUnivariateTimeSeriesModel</text>
<text text-anchor="middle" x="443.5" y="-185.75" font-family="Helvetica,sans-Serif" font-size="10.00">::forecast</text>
</a>
</g>
</g>
<!-- Node14&#45;&gt;Node17 -->
<g id="edge17_Node000014_Node000017" class="edge">
<title>Node14&#45;&gt;Node17</title>
<g id="a_edge17_Node000014_Node000017"><a xlink:title=" ">
<path fill="none" stroke="#63b8ff" d="M557.52,-198.6C544.57,-198.86 531.29,-199.13 518.61,-199.38"/>
<polygon fill="#63b8ff" stroke="#63b8ff" points="557.36,-202.1 567.29,-198.4 557.22,-195.1 557.36,-202.1"/>
</a>
</g>
</g>
<!-- Node14&#45;&gt;Node18 -->
<g id="edge19_Node000014_Node000018" class="edge">
<title>Node14&#45;&gt;Node18</title>
<g id="a_edge19_Node000014_Node000018"><a xlink:title=" ">
<path fill="none" stroke="#63b8ff" d="M557.92,-172.87C544.84,-169.18 531.42,-165.4 518.61,-161.78"/>
<polygon fill="#63b8ff" stroke="#63b8ff" points="556.77,-176.19 567.35,-175.53 558.67,-169.45 556.77,-176.19"/>
</a>
</g>
</g>
<!-- Node17&#45;&gt;Node7 -->
<g id="edge18_Node000017_Node000007" class="edge">
<title>Node17&#45;&gt;Node7</title>
<g id="a_edge18_Node000017_Node000007"><a xlink:title=" ">
<path fill="none" stroke="#63b8ff" d="M357.28,-213.41C347.39,-214.87 337.38,-216.34 327.75,-217.76"/>
<polygon fill="#63b8ff" stroke="#63b8ff" points="357.51,-216.92 366.9,-212 356.49,-209.99 357.51,-216.92"/>
</a>
</g>
</g>
<!-- Node19 -->
<g id="Node000019" class="node">
<title>Node19</title>
<g id="a_Node000019"><a xlink:href="../../df/dbc/classml_1_1maths_1_1time__series_1_1_c_univariate_time_series_model.html#a24874bc00a4f05cb755223d282eeea0b" target="_top" xlink:title="Compute the probability of drawing value at time.">
<polygon fill="white" stroke="#666666" points="332.75,-161.75 183.25,-161.75 183.25,-120 332.75,-120 332.75,-161.75"/>
<text text-anchor="start" x="191.25" y="-148.25" font-family="Helvetica,sans-Serif" font-size="10.00">ml::maths::time_series</text>
<text text-anchor="start" x="191.25" y="-137" font-family="Helvetica,sans-Serif" font-size="10.00">::CUnivariateTimeSeriesModel</text>
<text text-anchor="middle" x="258" y="-125.75" font-family="Helvetica,sans-Serif" font-size="10.00">::probability</text>
</a>
</g>
</g>
<!-- Node18&#45;&gt;Node19 -->
<g id="edge20_Node000018_Node000019" class="edge">
<title>Node18&#45;&gt;Node19</title>
<g id="a_edge20_Node000018_Node000019"><a xlink:title=" ">
<path fill="none" stroke="#63b8ff" d="M357.11,-140.88C349.09,-140.88 341,-140.88 333.09,-140.88"/>
<polygon fill="#63b8ff" stroke="#63b8ff" points="356.88,-144.38 366.88,-140.88 356.88,-137.38 356.88,-144.38"/>
</a>
</g>
</g>
<!-- Node21 -->
<g id="Node000021" class="node">
<title>Node21</title>
<g id="a_Node000021"><a xlink:href="../../df/dbc/classml_1_1maths_1_1time__series_1_1_c_univariate_time_series_model.html#a2b5c91aa7f696a1ce4a27df0ebe00bbd" target="_top" xlink:title=" ">
<polygon fill="white" stroke="#666666" points="518.25,-101.75 368.75,-101.75 368.75,-60 518.25,-60 518.25,-101.75"/>
<text text-anchor="start" x="376.75" y="-88.25" font-family="Helvetica,sans-Serif" font-size="10.00">ml::maths::time_series</text>
<text text-anchor="start" x="376.75" y="-77" font-family="Helvetica,sans-Serif" font-size="10.00">::CUnivariateTimeSeriesModel</text>
<text text-anchor="middle" x="443.5" y="-65.75" font-family="Helvetica,sans-Serif" font-size="10.00">::correlateModes</text>
</a>
</g>
</g>
<!-- Node20&#45;&gt;Node21 -->
<g id="edge22_Node000020_Node000021" class="edge">
<title>Node20&#45;&gt;Node21</title>
<g id="a_edge22_Node000020_Node000021"><a xlink:title=" ">
<path fill="none" stroke="#63b8ff" d="M542.48,-80.88C534.39,-80.88 526.31,-80.88 518.45,-80.88"/>
<polygon fill="#63b8ff" stroke="#63b8ff" points="542.4,-84.38 552.4,-80.88 542.4,-77.38 542.4,-84.38"/>
</a>
</g>
</g>
<!-- Node20&#45;&gt;Node22 -->
<g id="edge23_Node000020_Node000022" class="edge">
<title>Node20&#45;&gt;Node22</title>
<g id="a_edge23_Node000020_Node000022"><a xlink:title=" ">
<path fill="none" stroke="#63b8ff" d="M580.21,-61.9C559.52,-55.64 536.37,-48.64 515.13,-42.23"/>
<polygon fill="#63b8ff" stroke="#63b8ff" points="579.07,-65.21 589.66,-64.75 581.1,-58.51 579.07,-65.21"/>
</a>
</g>
</g>
<!-- Node23&#45;&gt;Node3 -->
<g id="edge27_Node000023_Node000003" class="edge">
<title>Node23&#45;&gt;Node3</title>
<g id="a_edge27_Node000023_Node000003"><a xlink:title=" ">
<path fill="none" stroke="#63b8ff" d="M557.92,-358.88C544.84,-362.57 531.42,-366.35 518.61,-369.97"/>
<polygon fill="#63b8ff" stroke="#63b8ff" points="558.67,-362.3 567.35,-356.22 556.77,-355.56 558.67,-362.3"/>
</a>
</g>
</g>
<!-- Node24&#45;&gt;Node3 -->
<g id="edge29_Node000024_Node000003" class="edge">
<title>Node24&#45;&gt;Node3</title>
<g id="a_edge29_Node000024_Node000003"><a xlink:title=" ">
<path fill="none" stroke="#63b8ff" d="M559.01,-301.39C557.38,-302.5 555.79,-303.66 554.25,-304.88 530.7,-323.4 541.34,-342.78 518.25,-361.88 514.86,-364.68 511.16,-367.24 507.29,-369.57"/>
<polygon fill="#63b8ff" stroke="#63b8ff" points="560.74,-304.43 567.48,-296.26 557.11,-298.44 560.74,-304.43"/>
</a>
</g>
</g>
</g>
</svg>

<g id="navigator" transform="translate(0 0)" fill="#404254">
  <rect fill="#f2f5e9" fill-opacity="0.5" stroke="#606060" stroke-width=".5" x="0" y="0" width="60" height="60"/>
  <use id="zoomplus" xlink:href="#zoomPlus" x="17" y="9" onmousedown="handleZoom(evt,'in')"/>
  <use id="zoomminus" xlink:href="#zoomMin" x="42" y="9" onmousedown="handleZoom(evt,'out')"/>
  <use id="reset" xlink:href="#resetDef" x="30" y="36" onmousedown="handleReset()"/>
   <use id="arrowup" xlink:href="#arrowUp" x="0" y="0" onmousedown="handlePan(0,-1)"/>
  <use id="arrowright" xlink:href="#arrowRight" x="0" y="0" onmousedown="handlePan(1,0)"/>
  <use id="arrowdown" xlink:href="#arrowDown" x="0" y="0" onmousedown="handlePan(0,1)"/>
  <use id="arrowleft" xlink:href="#arrowLeft" x="0" y="0" onmousedown="handlePan(-1,0)"/>
</g>
<svg viewBox="0 0 15 15" width="100%" height="30px" preserveAspectRatio="xMaxYMin meet">
 <g id="arrow_out" transform="scale(0.3 0.3)">
  <a xlink:href="classml_1_1maths_1_1time__series_1_1_c_univariate_time_series_model_a96633e60ecb7e7ce9016d9404b1577d4_icgraph_org.svg" target="_base">
   <rect id="button" ry="5" rx="5" y="6" x="6" height="38" width="38"
        fill="#f2f5e9" fill-opacity="0.5" stroke="#606060" stroke-width="1.0"/>
   <path id="arrow"
     d="M 11.500037,31.436501 C 11.940474,20.09759 22.043105,11.32322 32.158766,21.979434 L 37.068811,17.246167 C 37.068811,17.246167 37.088388,32 37.088388,32 L 22.160133,31.978069 C 22.160133,31.978069 26.997745,27.140456 26.997745,27.140456 C 18.528582,18.264221 13.291696,25.230495 11.500037,31.436501 z"
     style="fill:#404040;"/>
  </a>
 </g>
</svg>

<style type='text/css'>
<![CDATA[
[data-mouse-over-selected='false'] { opacity: 0.7; }
[data-mouse-over-selected='true']  { opacity: 1.0; }
]]>
</style>
<script type="application/ecmascript"><![CDATA[
document.addEventListener('DOMContentLoaded', (event) => {
  highlightEdges();
  highlightAdjacentNodes();
});
]]></script>
</svg>
