<?xml version="1.0" encoding="UTF-8" standalone="no"?>
<!DOCTYPE svg PUBLIC "-//W3C//DTD SVG 1.1//EN"
 "http://www.w3.org/Graphics/SVG/1.1/DTD/svg11.dtd">
<!-- Generated by graphviz version 10.0.1 (20240210.2158)
 -->
<!-- Title: ml::model::CForecastDataSink::push Pages: 1 -->
<!--zoomable 245 -->

<svg id="main" version="1.1" xmlns="http://www.w3.org/2000/svg" xmlns:xlink="http://www.w3.org/1999/xlink" xml:space="preserve" onload="init(evt)">
<style type="text/css"><![CDATA[
.node, .edge {opacity: 0.7;}
.node.selected, .edge.selected {opacity: 1;}
.edge:hover path { stroke: red; }
.edge:hover polygon { stroke: red; fill: red; }
]]></style>

<defs>
  <circle id="rim" cx="0" cy="0" r="7"/>
  <circle id="rim2" cx="0" cy="0" r="3.5"/>
  <g id="zoomPlus">
    <use xlink:href="#rim" fill="#404040"><set attributeName="fill" to="#808080" begin="zoomplus.mouseover" end="zoomplus.mouseout"/></use>
    <path d="M-4,0h8M0,-4v8" fill="none" stroke="white" stroke-width="1.5" pointer-events="none"/>
  </g>
  <g id="zoomMin">
    <use xlink:href="#rim" fill="#404040"><set attributeName="fill" to="#808080" begin="zoomminus.mouseover" end="zoomminus.mouseout"/></use>
    <path d="M-4,0h8" fill="none" stroke="white" stroke-width="1.5" pointer-events="none"/>
  </g>
  <g id="arrowUp" transform="translate(30 24)">
    <use xlink:href="#rim"/>
    <path pointer-events="none" fill="none" stroke="white" stroke-width="1.5" d="M0,-3.0v7 M-2.5,-0.5L0,-3.0L2.5,-0.5"/>
  </g>
  <g id="arrowRight" transform="rotate(90) translate(36 -43)">
    <use xlink:href="#rim"/>
    <path pointer-events="none" fill="none" stroke="white" stroke-width="1.5" d="M0,-3.0v7 M-2.5,-0.5L0,-3.0L2.5,-0.5"/>
  </g>
  <g id="arrowDown" transform="rotate(180) translate(-30 -48)">
    <use xlink:href="#rim"/>
    <path pointer-events="none" fill="none" stroke="white" stroke-width="1.5" d="M0,-3.0v7 M-2.5,-0.5L0,-3.0L2.5,-0.5"/>
  </g>
  <g id="arrowLeft" transform="rotate(270) translate(-36 17)">
    <use xlink:href="#rim"/>
    <path pointer-events="none" fill="none" stroke="white" stroke-width="1.5" d="M0,-3.0v7 M-2.5,-0.5L0,-3.0L2.5,-0.5"/>
  </g>
  <g id="resetDef">
    <use xlink:href="#rim2" fill="#404040"><set attributeName="fill" to="#808080" begin="reset.mouseover" end="reset.mouseout"/></use>
  </g>
</defs>
<script type="application/ecmascript">
var viewWidth = 1274;
var viewHeight = 245;
var sectionId = 'dynsection-6';
</script>
<script type="application/ecmascript" xlink:href="../../svg.min.js"/>
<svg id="graph" class="graph">
<g id="viewport">
<title>ml::model::CForecastDataSink::push</title>
<!-- Node1 -->
<g id="Node000001" class="node">
<title>Node1</title>
<g id="a_Node000001"><a xlink:title=" ">
<polygon fill="#999999" stroke="#666666" points="1265.75,-128.5 1134.25,-128.5 1134.25,-98 1265.75,-98 1265.75,-128.5"/>
<text text-anchor="start" x="1142.25" y="-115" font-family="Helvetica,sans-Serif" font-size="10.00">ml::model::CForecastData</text>
<text text-anchor="middle" x="1200" y="-103.75" font-family="Helvetica,sans-Serif" font-size="10.00">Sink::push</text>
</a>
</g>
</g>
<!-- Node2 -->
<g id="Node000002" class="node">
<title>Node2</title>
<g id="a_Node000002"><a xlink:href="../../d3/ddd/classml_1_1model_1_1_c_forecast_data_sink_1_1_c_forecast_model_wrapper.html#a0b96f376296ff7b43997241cb0d2515e" target="_top" xlink:title=" ">
<polygon fill="white" stroke="#666666" points="1098.25,-237.12 948.75,-237.12 948.75,-195.38 1098.25,-195.38 1098.25,-237.12"/>
<text text-anchor="start" x="956.75" y="-223.62" font-family="Helvetica,sans-Serif" font-size="10.00">ml::model::CForecastData</text>
<text text-anchor="start" x="956.75" y="-212.38" font-family="Helvetica,sans-Serif" font-size="10.00">Sink::CForecastModelWrapper</text>
<text text-anchor="middle" x="1023.5" y="-201.12" font-family="Helvetica,sans-Serif" font-size="10.00">::forecast</text>
</a>
</g>
</g>
<!-- Node1&#45;&gt;Node2 -->
<g id="edge1_Node000001_Node000002" class="edge">
<title>Node1&#45;&gt;Node2</title>
<g id="a_edge1_Node000001_Node000002"><a xlink:title=" ">
<path fill="none" stroke="#63b8ff" d="M1171.28,-136.14C1151.7,-151.6 1124.38,-171.75 1098.25,-186.25 1092.69,-189.34 1086.75,-192.28 1080.74,-195.04"/>
<polygon fill="#63b8ff" stroke="#63b8ff" points="1173.43,-138.9 1179.05,-129.92 1169.06,-133.44 1173.43,-138.9"/>
</a>
</g>
</g>
<!-- Node3 -->
<g id="Node000003" class="node">
<title>Node3</title>
<g id="a_Node000003"><a xlink:href="../../df/d36/classml_1_1model_1_1_c_forecast_data_sink.html#a25968f9272e8bb40652eb5716c7b62f5" target="_top" xlink:title="Write an error message to signal a problem with forecasting.">
<polygon fill="white" stroke="#666666" points="1089.25,-177.5 957.75,-177.5 957.75,-147 1089.25,-147 1089.25,-177.5"/>
<text text-anchor="start" x="965.75" y="-164" font-family="Helvetica,sans-Serif" font-size="10.00">ml::model::CForecastData</text>
<text text-anchor="middle" x="1023.5" y="-152.75" font-family="Helvetica,sans-Serif" font-size="10.00">Sink::writeErrorMessage</text>
</a>
</g>
</g>
<!-- Node1&#45;&gt;Node3 -->
<g id="edge2_Node000001_Node000003" class="edge">
<title>Node1&#45;&gt;Node3</title>
<g id="a_edge2_Node000001_Node000003"><a xlink:title=" ">
<path fill="none" stroke="#63b8ff" d="M1132.28,-131.98C1115.21,-136.78 1097.03,-141.88 1080.56,-146.51"/>
<polygon fill="#63b8ff" stroke="#63b8ff" points="1133.17,-135.37 1141.85,-129.3 1131.28,-128.63 1133.17,-135.37"/>
</a>
</g>
</g>
<!-- Node10 -->
<g id="Node000010" class="node">
<title>Node10</title>
<g id="a_Node000010"><a xlink:href="../../df/d36/classml_1_1model_1_1_c_forecast_data_sink.html#a4f5ace014d33710ace6fe71f9fcf6149" target="_top" xlink:title=" ">
<polygon fill="white" stroke="#666666" points="1089.25,-128.5 957.75,-128.5 957.75,-98 1089.25,-98 1089.25,-128.5"/>
<text text-anchor="start" x="965.75" y="-115" font-family="Helvetica,sans-Serif" font-size="10.00">ml::model::CForecastData</text>
<text text-anchor="middle" x="1023.5" y="-103.75" font-family="Helvetica,sans-Serif" font-size="10.00">Sink::writeFinalMessage</text>
</a>
</g>
</g>
<!-- Node1&#45;&gt;Node10 -->
<g id="edge10_Node000001_Node000010" class="edge">
<title>Node1&#45;&gt;Node10</title>
<g id="a_edge10_Node000001_Node000010"><a xlink:title=" ">
<path fill="none" stroke="#63b8ff" d="M1122.63,-113.25C1111.6,-113.25 1100.32,-113.25 1089.53,-113.25"/>
<polygon fill="#63b8ff" stroke="#63b8ff" points="1122.51,-116.75 1132.51,-113.25 1122.51,-109.75 1122.51,-116.75"/>
</a>
</g>
</g>
<!-- Node12 -->
<g id="Node000012" class="node">
<title>Node12</title>
<g id="a_Node000012"><a xlink:href="../../df/d36/classml_1_1model_1_1_c_forecast_data_sink.html#a5282c983318a56e753a09b9399478e8c" target="_top" xlink:title="Write a scheduled message to signal that validation was successful.">
<polygon fill="white" stroke="#666666" points="1097.5,-79.5 949.5,-79.5 949.5,-49 1097.5,-49 1097.5,-79.5"/>
<text text-anchor="start" x="957.5" y="-66" font-family="Helvetica,sans-Serif" font-size="10.00">ml::model::CForecastData</text>
<text text-anchor="middle" x="1023.5" y="-54.75" font-family="Helvetica,sans-Serif" font-size="10.00">Sink::writeScheduledMessage</text>
</a>
</g>
</g>
<!-- Node1&#45;&gt;Node12 -->
<g id="edge13_Node000001_Node000012" class="edge">
<title>Node1&#45;&gt;Node12</title>
<g id="a_edge13_Node000001_Node000012"><a xlink:title=" ">
<path fill="none" stroke="#63b8ff" d="M1132.28,-94.52C1115.21,-89.72 1097.03,-84.62 1080.56,-79.99"/>
<polygon fill="#63b8ff" stroke="#63b8ff" points="1131.28,-97.87 1141.85,-97.2 1133.17,-91.13 1131.28,-97.87"/>
</a>
</g>
</g>
<!-- Node14 -->
<g id="Node000014" class="node">
<title>Node14</title>
<g id="a_Node000014"><a xlink:href="../../df/d36/classml_1_1model_1_1_c_forecast_data_sink.html#afa1fe7d725fe2608a5b7d177426d062b" target="_top" xlink:title="Write Statistics about the forecast, also marks the ending.">
<polygon fill="white" stroke="#666666" points="1089.25,-30.5 957.75,-30.5 957.75,0 1089.25,0 1089.25,-30.5"/>
<text text-anchor="start" x="965.75" y="-17" font-family="Helvetica,sans-Serif" font-size="10.00">ml::model::CForecastData</text>
<text text-anchor="middle" x="1023.5" y="-5.75" font-family="Helvetica,sans-Serif" font-size="10.00">Sink::writeStats</text>
</a>
</g>
</g>
<!-- Node1&#45;&gt;Node14 -->
<g id="edge16_Node000001_Node000014" class="edge">
<title>Node1&#45;&gt;Node14</title>
<g id="a_edge16_Node000001_Node000014"><a xlink:title=" ">
<path fill="none" stroke="#63b8ff" d="M1172.27,-90.44C1152.76,-74.69 1125.13,-54.14 1098.25,-40.25 1091.64,-36.84 1084.47,-33.74 1077.28,-30.97"/>
<polygon fill="#63b8ff" stroke="#63b8ff" points="1170.04,-93.14 1179.99,-96.79 1174.48,-87.73 1170.04,-93.14"/>
</a>
</g>
</g>
<!-- Node4 -->
<g id="Node000004" class="node">
<title>Node4</title>
<g id="a_Node000004"><a xlink:href="../../d4/d49/classml_1_1api_1_1_c_forecast_runner.html#a2b5245c332ee26153530e0ba3cb41a81" target="_top" xlink:title="send an error message">
<polygon fill="white" stroke="#666666" points="912.75,-177.5 784.25,-177.5 784.25,-147 912.75,-147 912.75,-177.5"/>
<text text-anchor="start" x="792.25" y="-164" font-family="Helvetica,sans-Serif" font-size="10.00">ml::api::CForecastRunner</text>
<text text-anchor="middle" x="848.5" y="-152.75" font-family="Helvetica,sans-Serif" font-size="10.00">::sendErrorMessage</text>
</a>
</g>
</g>
<!-- Node3&#45;&gt;Node4 -->
<g id="edge3_Node000003_Node000004" class="edge">
<title>Node3&#45;&gt;Node4</title>
<g id="a_edge3_Node000003_Node000004"><a xlink:title=" ">
<path fill="none" stroke="#63b8ff" d="M946.17,-162.25C935.11,-162.25 923.83,-162.25 913.05,-162.25"/>
<polygon fill="#63b8ff" stroke="#63b8ff" points="946.08,-165.75 956.08,-162.25 946.08,-158.75 946.08,-165.75"/>
</a>
</g>
</g>
<!-- Node5 -->
<g id="Node000005" class="node">
<title>Node5</title>
<g id="a_Node000005"><a xlink:href="../../d4/d49/classml_1_1api_1_1_c_forecast_runner.html#a62c5af6f1d46a8a1e3d1baa9fcb87f44" target="_top" xlink:title="pushes new jobs into the internal &#39;queue&#39; (thread boundary)">
<polygon fill="white" stroke="#666666" points="748.25,-210.5 619.75,-210.5 619.75,-180 748.25,-180 748.25,-210.5"/>
<text text-anchor="start" x="627.75" y="-197" font-family="Helvetica,sans-Serif" font-size="10.00">ml::api::CForecastRunner</text>
<text text-anchor="middle" x="684" y="-185.75" font-family="Helvetica,sans-Serif" font-size="10.00">::push</text>
</a>
</g>
</g>
<!-- Node4&#45;&gt;Node5 -->
<g id="edge4_Node000004_Node000005" class="edge">
<title>Node4&#45;&gt;Node5</title>
<g id="a_edge4_Node000004_Node000005"><a xlink:title=" ">
<path fill="none" stroke="#63b8ff" d="M773.14,-177.35C764.96,-179.01 756.69,-180.69 748.65,-182.32"/>
<polygon fill="#63b8ff" stroke="#63b8ff" points="773.62,-180.82 782.72,-175.4 772.23,-173.96 773.62,-180.82"/>
</a>
</g>
</g>
<!-- Node6 -->
<g id="Node000006" class="node">
<title>Node6</title>
<g id="a_Node000006"><a xlink:href="../../d4/d49/classml_1_1api_1_1_c_forecast_runner.html#ad8607aeb873f1214a5abd71746d22211" target="_top" xlink:title=" ">
<polygon fill="white" stroke="#666666" points="583.75,-145.5 455.25,-145.5 455.25,-115 583.75,-115 583.75,-145.5"/>
<text text-anchor="start" x="463.25" y="-132" font-family="Helvetica,sans-Serif" font-size="10.00">ml::api::CForecastRunner</text>
<text text-anchor="middle" x="519.5" y="-120.75" font-family="Helvetica,sans-Serif" font-size="10.00">::pushForecastJob</text>
</a>
</g>
</g>
<!-- Node4&#45;&gt;Node6 -->
<g id="edge9_Node000004_Node000006" class="edge">
<title>Node4&#45;&gt;Node6</title>
<g id="a_edge9_Node000004_Node000006"><a xlink:title=" ">
<path fill="none" stroke="#63b8ff" d="M772.95,-154.95C715.92,-149.37 638.13,-141.76 584.04,-136.47"/>
<polygon fill="#63b8ff" stroke="#63b8ff" points="772.26,-158.4 782.56,-155.89 772.95,-151.44 772.26,-158.4"/>
</a>
</g>
</g>
<!-- Node5&#45;&gt;Node6 -->
<g id="edge5_Node000005_Node000006" class="edge">
<title>Node5&#45;&gt;Node6</title>
<g id="a_edge5_Node000005_Node000006"><a xlink:title=" ">
<path fill="none" stroke="#63b8ff" d="M633.16,-175.31C609.57,-165.88 581.82,-154.78 559.76,-145.95"/>
<polygon fill="#63b8ff" stroke="#63b8ff" points="631.67,-178.49 642.26,-178.95 634.27,-171.99 631.67,-178.49"/>
</a>
</g>
</g>
<!-- Node7 -->
<g id="Node000007" class="node">
<title>Node7</title>
<g id="a_Node000007"><a xlink:href="../../d9/dee/classml_1_1api_1_1_c_anomaly_job.html#aa7cbbc4df294ffac26166f761afb236f" target="_top" xlink:title="Update configuration.">
<polygon fill="white" stroke="#666666" points="419.25,-145.5 306.5,-145.5 306.5,-115 419.25,-115 419.25,-145.5"/>
<text text-anchor="start" x="314.5" y="-132" font-family="Helvetica,sans-Serif" font-size="10.00">ml::api::CAnomalyJob</text>
<text text-anchor="middle" x="362.88" y="-120.75" font-family="Helvetica,sans-Serif" font-size="10.00">::doForecast</text>
</a>
</g>
</g>
<!-- Node6&#45;&gt;Node7 -->
<g id="edge6_Node000006_Node000007" class="edge">
<title>Node6&#45;&gt;Node7</title>
<g id="a_edge6_Node000006_Node000007"><a xlink:title=" ">
<path fill="none" stroke="#63b8ff" d="M443.68,-130.25C435.51,-130.25 427.31,-130.25 419.44,-130.25"/>
<polygon fill="#63b8ff" stroke="#63b8ff" points="443.65,-133.75 453.65,-130.25 443.65,-126.75 443.65,-133.75"/>
</a>
</g>
</g>
<!-- Node8 -->
<g id="Node000008" class="node">
<title>Node8</title>
<g id="a_Node000008"><a xlink:href="../../d9/dee/classml_1_1api_1_1_c_anomaly_job.html#a176e0e5e3eaa3e802ff4da6773e33c35" target="_top" xlink:title=" ">
<polygon fill="white" stroke="#666666" points="270.5,-145.5 148.75,-145.5 148.75,-115 270.5,-115 270.5,-145.5"/>
<text text-anchor="start" x="156.75" y="-132" font-family="Helvetica,sans-Serif" font-size="10.00">ml::api::CAnomalyJob</text>
<text text-anchor="middle" x="209.62" y="-120.75" font-family="Helvetica,sans-Serif" font-size="10.00">::handleControlMessage</text>
</a>
</g>
</g>
<!-- Node7&#45;&gt;Node8 -->
<g id="edge7_Node000007_Node000008" class="edge">
<title>Node7&#45;&gt;Node8</title>
<g id="a_edge7_Node000007_Node000008"><a xlink:title=" ">
<path fill="none" stroke="#63b8ff" d="M295.15,-130.25C287.08,-130.25 278.88,-130.25 270.92,-130.25"/>
<polygon fill="#63b8ff" stroke="#63b8ff" points="294.9,-133.75 304.9,-130.25 294.9,-126.75 294.9,-133.75"/>
</a>
</g>
</g>
<!-- Node9 -->
<g id="Node000009" class="node">
<title>Node9</title>
<g id="a_Node000009"><a xlink:href="../../d9/dee/classml_1_1api_1_1_c_anomaly_job.html#a7b4418f8987b9618eb3534c80d8d1617" target="_top" xlink:title=" ">
<polygon fill="white" stroke="#666666" points="112.75,-145.5 0,-145.5 0,-115 112.75,-115 112.75,-145.5"/>
<text text-anchor="start" x="8" y="-132" font-family="Helvetica,sans-Serif" font-size="10.00">ml::api::CAnomalyJob</text>
<text text-anchor="middle" x="56.38" y="-120.75" font-family="Helvetica,sans-Serif" font-size="10.00">::handleRecord</text>
</a>
</g>
</g>
<!-- Node8&#45;&gt;Node9 -->
<g id="edge8_Node000008_Node000009" class="edge">
<title>Node8&#45;&gt;Node9</title>
<g id="a_edge8_Node000008_Node000009"><a xlink:title=" ">
<path fill="none" stroke="#63b8ff" d="M137.05,-130.25C128.96,-130.25 120.81,-130.25 112.96,-130.25"/>
<polygon fill="#63b8ff" stroke="#63b8ff" points="136.9,-133.75 146.9,-130.25 136.9,-126.75 136.9,-133.75"/>
</a>
</g>
</g>
<!-- Node11 -->
<g id="Node000011" class="node">
<title>Node11</title>
<g id="a_Node000011"><a xlink:href="../../d4/d49/classml_1_1api_1_1_c_forecast_runner.html#a39596898246241b58962c7cf80e2889d" target="_top" xlink:title="send a final message">
<polygon fill="white" stroke="#666666" points="748.25,-124.5 619.75,-124.5 619.75,-94 748.25,-94 748.25,-124.5"/>
<text text-anchor="start" x="627.75" y="-111" font-family="Helvetica,sans-Serif" font-size="10.00">ml::api::CForecastRunner</text>
<text text-anchor="middle" x="684" y="-99.75" font-family="Helvetica,sans-Serif" font-size="10.00">::sendFinalMessage</text>
</a>
</g>
</g>
<!-- Node10&#45;&gt;Node11 -->
<g id="edge11_Node000010_Node000011" class="edge">
<title>Node10&#45;&gt;Node11</title>
<g id="a_edge11_Node000010_Node000011"><a xlink:title=" ">
<path fill="none" stroke="#63b8ff" d="M946.2,-112.35C886.63,-111.64 804.83,-110.67 748.73,-110.01"/>
<polygon fill="#63b8ff" stroke="#63b8ff" points="945.87,-115.84 955.91,-112.46 945.96,-108.84 945.87,-115.84"/>
</a>
</g>
</g>
<!-- Node11&#45;&gt;Node6 -->
<g id="edge12_Node000011_Node000006" class="edge">
<title>Node11&#45;&gt;Node6</title>
<g id="a_edge12_Node000011_Node000006"><a xlink:title=" ">
<path fill="none" stroke="#63b8ff" d="M608.36,-118.9C600.27,-119.94 592.1,-121 584.15,-122.02"/>
<polygon fill="#63b8ff" stroke="#63b8ff" points="608.74,-122.38 618.21,-117.62 607.84,-115.43 608.74,-122.38"/>
</a>
</g>
</g>
<!-- Node13 -->
<g id="Node000013" class="node">
<title>Node13</title>
<g id="a_Node000013"><a xlink:href="../../d4/d49/classml_1_1api_1_1_c_forecast_runner.html#a02df0c7b73d3a30116e8d839bca837b2" target="_top" xlink:title="send a scheduled message">
<polygon fill="white" stroke="#666666" points="912.75,-79.5 784.25,-79.5 784.25,-49 912.75,-49 912.75,-79.5"/>
<text text-anchor="start" x="792.25" y="-66" font-family="Helvetica,sans-Serif" font-size="10.00">ml::api::CForecastRunner</text>
<text text-anchor="middle" x="848.5" y="-54.75" font-family="Helvetica,sans-Serif" font-size="10.00">::sendScheduledMessage</text>
</a>
</g>
</g>
<!-- Node12&#45;&gt;Node13 -->
<g id="edge14_Node000012_Node000013" class="edge">
<title>Node12&#45;&gt;Node13</title>
<g id="a_edge14_Node000012_Node000013"><a xlink:title=" ">
<path fill="none" stroke="#63b8ff" d="M937.84,-64.25C929.52,-64.25 921.18,-64.25 913.13,-64.25"/>
<polygon fill="#63b8ff" stroke="#63b8ff" points="937.62,-67.75 947.62,-64.25 937.62,-60.75 937.62,-67.75"/>
</a>
</g>
</g>
<!-- Node13&#45;&gt;Node6 -->
<g id="edge15_Node000013_Node000006" class="edge">
<title>Node13&#45;&gt;Node6</title>
<g id="a_edge15_Node000013_Node000006"><a xlink:title=" ">
<path fill="none" stroke="#63b8ff" d="M772.73,-64.9C727.75,-66.82 669.72,-72.02 619.75,-85.25 594.51,-91.93 567.64,-104.49 548.23,-114.64"/>
<polygon fill="#63b8ff" stroke="#63b8ff" points="772.8,-68.4 782.66,-64.52 772.53,-61.4 772.8,-68.4"/>
</a>
</g>
</g>
<!-- Node15 -->
<g id="Node000015" class="node">
<title>Node15</title>
<g id="a_Node000015"><a xlink:href="../../d4/d49/classml_1_1api_1_1_c_forecast_runner.html#a7d8c08b07ee409abf5bc83772887ee78" target="_top" xlink:title="The worker loop.">
<polygon fill="white" stroke="#666666" points="912.75,-30.5 784.25,-30.5 784.25,0 912.75,0 912.75,-30.5"/>
<text text-anchor="start" x="792.25" y="-17" font-family="Helvetica,sans-Serif" font-size="10.00">ml::api::CForecastRunner</text>
<text text-anchor="middle" x="848.5" y="-5.75" font-family="Helvetica,sans-Serif" font-size="10.00">::forecastWorker</text>
</a>
</g>
</g>
<!-- Node14&#45;&gt;Node15 -->
<g id="edge17_Node000014_Node000015" class="edge">
<title>Node14&#45;&gt;Node15</title>
<g id="a_edge17_Node000014_Node000015"><a xlink:title=" ">
<path fill="none" stroke="#63b8ff" d="M946.17,-15.25C935.11,-15.25 923.83,-15.25 913.05,-15.25"/>
<polygon fill="#63b8ff" stroke="#63b8ff" points="946.08,-18.75 956.08,-15.25 946.08,-11.75 946.08,-18.75"/>
</a>
</g>
</g>
<!-- Node16 -->
<g id="Node000016" class="node">
<title>Node16</title>
<g id="a_Node000016"><a xlink:href="../../d4/d49/classml_1_1api_1_1_c_forecast_runner.html#a7c3b0698d5c05092e8556570ce92ac69" target="_top" xlink:title=" ">
<polygon fill="white" stroke="#666666" points="748.25,-30.5 619.75,-30.5 619.75,0 748.25,0 748.25,-30.5"/>
<text text-anchor="start" x="627.75" y="-17" font-family="Helvetica,sans-Serif" font-size="10.00">ml::api::CForecastRunner</text>
<text text-anchor="middle" x="684" y="-5.75" font-family="Helvetica,sans-Serif" font-size="10.00">::CForecastRunner</text>
</a>
</g>
</g>
<!-- Node15&#45;&gt;Node16 -->
<g id="edge18_Node000015_Node000016" class="edge">
<title>Node15&#45;&gt;Node16</title>
<g id="a_edge18_Node000015_Node000016"><a xlink:title=" ">
<path fill="none" stroke="#63b8ff" d="M772.86,-15.25C764.77,-15.25 756.6,-15.25 748.65,-15.25"/>
<polygon fill="#63b8ff" stroke="#63b8ff" points="772.69,-18.75 782.69,-15.25 772.69,-11.75 772.69,-18.75"/>
</a>
</g>
</g>
</g>
</svg>

<g id="navigator" transform="translate(0 0)" fill="#404254">
  <rect fill="#f2f5e9" fill-opacity="0.5" stroke="#606060" stroke-width=".5" x="0" y="0" width="60" height="60"/>
  <use id="zoomplus" xlink:href="#zoomPlus" x="17" y="9" onmousedown="handleZoom(evt,'in')"/>
  <use id="zoomminus" xlink:href="#zoomMin" x="42" y="9" onmousedown="handleZoom(evt,'out')"/>
  <use id="reset" xlink:href="#resetDef" x="30" y="36" onmousedown="handleReset()"/>
   <use id="arrowup" xlink:href="#arrowUp" x="0" y="0" onmousedown="handlePan(0,-1)"/>
  <use id="arrowright" xlink:href="#arrowRight" x="0" y="0" onmousedown="handlePan(1,0)"/>
  <use id="arrowdown" xlink:href="#arrowDown" x="0" y="0" onmousedown="handlePan(0,1)"/>
  <use id="arrowleft" xlink:href="#arrowLeft" x="0" y="0" onmousedown="handlePan(-1,0)"/>
</g>
<svg viewBox="0 0 15 15" width="100%" height="30px" preserveAspectRatio="xMaxYMin meet">
 <g id="arrow_out" transform="scale(0.3 0.3)">
  <a xlink:href="classml_1_1model_1_1_c_forecast_data_sink_a631f4c1e9372a3dc228ffdd4cab9fb50_icgraph_org.svg" target="_base">
   <rect id="button" ry="5" rx="5" y="6" x="6" height="38" width="38"
        fill="#f2f5e9" fill-opacity="0.5" stroke="#606060" stroke-width="1.0"/>
   <path id="arrow"
     d="M 11.500037,31.436501 C 11.940474,20.09759 22.043105,11.32322 32.158766,21.979434 L 37.068811,17.246167 C 37.068811,17.246167 37.088388,32 37.088388,32 L 22.160133,31.978069 C 22.160133,31.978069 26.997745,27.140456 26.997745,27.140456 C 18.528582,18.264221 13.291696,25.230495 11.500037,31.436501 z"
     style="fill:#404040;"/>
  </a>
 </g>
</svg>

<style type='text/css'>
<![CDATA[
[data-mouse-over-selected='false'] { opacity: 0.7; }
[data-mouse-over-selected='true']  { opacity: 1.0; }
]]>
</style>
<script type="application/ecmascript"><![CDATA[
document.addEventListener('DOMContentLoaded', (event) => {
  highlightEdges();
  highlightAdjacentNodes();
});
]]></script>
</svg>
