<?xml version="1.0" encoding="UTF-8" standalone="no"?>
<!DOCTYPE svg PUBLIC "-//W3C//DTD SVG 1.1//EN"
 "http://www.w3.org/Graphics/SVG/1.1/DTD/svg11.dtd">
<!-- Generated by graphviz version 10.0.1 (20240210.2158)
 -->
<!-- Title: ml::api::CAnomalyJob::refreshMemoryAndReport Pages: 1 -->
<svg width="1084pt" height="739pt"
 viewBox="0.00 0.00 1084.25 738.50" xmlns="http://www.w3.org/2000/svg" xmlns:xlink="http://www.w3.org/1999/xlink">
<g id="graph0" class="graph" transform="scale(1 1) rotate(0) translate(4 734.5)">
<title>ml::api::CAnomalyJob::refreshMemoryAndReport</title>
<!-- Node1 -->
<g id="Node000001" class="node">
<title>Node1</title>
<g id="a_Node000001"><a xlink:title=" ">
<polygon fill="#999999" stroke="#666666" points="133.75,-576.5 0,-576.5 0,-546 133.75,-546 133.75,-576.5"/>
<text text-anchor="start" x="8" y="-563" font-family="Helvetica,sans-Serif" font-size="10.00">ml::api::CAnomalyJob</text>
<text text-anchor="middle" x="66.88" y="-551.75" font-family="Helvetica,sans-Serif" font-size="10.00">::refreshMemoryAndReport</text>
</a>
</g>
</g>
<!-- Node2 -->
<g id="Node000002" class="node">
<title>Node2</title>
<g id="a_Node000002"><a xlink:href="../../db/d5f/classml_1_1model_1_1_c_anomaly_detector_model_config.html#a742354d4ac7a6d46f6d6b3c39f8a155e" target="_top" xlink:title="Set the data bucketing interval.">
<polygon fill="white" stroke="#666666" points="317.75,-681.5 169.75,-681.5 169.75,-651 317.75,-651 317.75,-681.5"/>
<text text-anchor="start" x="177.75" y="-668" font-family="Helvetica,sans-Serif" font-size="10.00">ml::model::CAnomalyDetector</text>
<text text-anchor="middle" x="243.75" y="-656.75" font-family="Helvetica,sans-Serif" font-size="10.00">ModelConfig::bucketLength</text>
</a>
</g>
</g>
<!-- Node1&#45;&gt;Node2 -->
<g id="edge1_Node000001_Node000002" class="edge">
<title>Node1&#45;&gt;Node2</title>
<g id="a_edge1_Node000001_Node000002"><a xlink:title=" ">
<path fill="none" stroke="#63b8ff" d="M94.06,-576.97C124.02,-594.96 173.27,-624.53 206.81,-644.67"/>
<polygon fill="#63b8ff" stroke="#63b8ff" points="205,-647.67 215.38,-649.82 208.61,-641.67 205,-647.67"/>
</a>
</g>
</g>
<!-- Node5 -->
<g id="Node000005" class="node">
<title>Node5</title>
<g id="a_Node000005"><a xlink:href="../../d4/d25/classml_1_1model_1_1_c_resource_monitor.html#a1fe23e430ce7a98d9ce61fd19e7446b5" target="_top" xlink:title="Recalculate the memory usage regardless of whether there is a memory limit.">
<polygon fill="white" stroke="#666666" points="317,-601.5 170.5,-601.5 170.5,-571 317,-571 317,-601.5"/>
<text text-anchor="start" x="178.5" y="-588" font-family="Helvetica,sans-Serif" font-size="10.00">ml::model::CResourceMonitor</text>
<text text-anchor="middle" x="243.75" y="-576.75" font-family="Helvetica,sans-Serif" font-size="10.00">::forceRefresh</text>
</a>
</g>
</g>
<!-- Node1&#45;&gt;Node5 -->
<g id="edge5_Node000001_Node000005" class="edge">
<title>Node1&#45;&gt;Node5</title>
<g id="a_edge5_Node000001_Node000005"><a xlink:title=" ">
<path fill="none" stroke="#63b8ff" d="M133.99,-570.7C142.1,-571.86 150.47,-573.06 158.8,-574.25"/>
<polygon fill="#63b8ff" stroke="#63b8ff" points="158.22,-577.7 168.61,-575.65 159.21,-570.77 158.22,-577.7"/>
</a>
</g>
</g>
<!-- Node18 -->
<g id="Node000018" class="node">
<title>Node18</title>
<g id="a_Node000018"><a xlink:href="../../df/d58/classml_1_1model_1_1_c_limits.html#ac4583bfef9fed58d9a2fbd066fbbb75f" target="_top" xlink:title="Access to the resource monitor.">
<polygon fill="white" stroke="#666666" points="293,-552.5 194.5,-552.5 194.5,-522 293,-522 293,-552.5"/>
<text text-anchor="start" x="202.5" y="-539" font-family="Helvetica,sans-Serif" font-size="10.00">ml::model::CLimits</text>
<text text-anchor="middle" x="243.75" y="-527.75" font-family="Helvetica,sans-Serif" font-size="10.00">::resourceMonitor</text>
</a>
</g>
</g>
<!-- Node1&#45;&gt;Node18 -->
<g id="edge22_Node000001_Node000018" class="edge">
<title>Node1&#45;&gt;Node18</title>
<g id="a_edge22_Node000001_Node000018"><a xlink:title=" ">
<path fill="none" stroke="#63b8ff" d="M133.99,-552.18C150.1,-549.97 167.24,-547.61 183.03,-545.45"/>
<polygon fill="#63b8ff" stroke="#63b8ff" points="183.33,-548.94 192.76,-544.11 182.38,-542 183.33,-548.94"/>
</a>
</g>
</g>
<!-- Node19 -->
<g id="Node000019" class="node">
<title>Node19</title>
<g id="a_Node000019"><a xlink:href="../../d4/d25/classml_1_1model_1_1_c_resource_monitor.html#abeebb44ec8686a7ebfc7cc8a545b18e7" target="_top" xlink:title="Send a memory usage report.">
<polygon fill="white" stroke="#666666" points="317,-442.5 170.5,-442.5 170.5,-412 317,-412 317,-442.5"/>
<text text-anchor="start" x="178.5" y="-429" font-family="Helvetica,sans-Serif" font-size="10.00">ml::model::CResourceMonitor</text>
<text text-anchor="middle" x="243.75" y="-417.75" font-family="Helvetica,sans-Serif" font-size="10.00">::sendMemoryUsageReport</text>
</a>
</g>
</g>
<!-- Node1&#45;&gt;Node19 -->
<g id="edge23_Node000001_Node000019" class="edge">
<title>Node1&#45;&gt;Node19</title>
<g id="a_edge23_Node000001_Node000019"><a xlink:title=" ">
<path fill="none" stroke="#63b8ff" d="M88.28,-545.62C119.13,-521.98 177.8,-477.02 213.29,-449.83"/>
<polygon fill="#63b8ff" stroke="#63b8ff" points="215.2,-452.77 221.01,-443.91 210.94,-447.22 215.2,-452.77"/>
</a>
</g>
</g>
<!-- Node3 -->
<g id="Node000003" class="node">
<title>Node3</title>
<g id="a_Node000003"><a xlink:href="../../db/d5f/classml_1_1model_1_1_c_anomaly_detector_model_config.html#ad708938c61acd59b0a5b161a8735c408" target="_top" xlink:title=" ">
<polygon fill="white" stroke="#666666" points="501.75,-712.5 353.75,-712.5 353.75,-682 501.75,-682 501.75,-712.5"/>
<text text-anchor="start" x="361.75" y="-699" font-family="Helvetica,sans-Serif" font-size="10.00">ml::model::CAnomalyDetector</text>
<text text-anchor="middle" x="427.75" y="-687.75" font-family="Helvetica,sans-Serif" font-size="10.00">ModelConfig::factory</text>
</a>
</g>
</g>
<!-- Node2&#45;&gt;Node3 -->
<g id="edge2_Node000002_Node000003" class="edge">
<title>Node2&#45;&gt;Node3</title>
<g id="a_edge2_Node000002_Node000003"><a xlink:title=" ">
<path fill="none" stroke="#63b8ff" d="M317.99,-678.72C325.91,-680.07 334.02,-681.46 342.06,-682.83"/>
<polygon fill="#63b8ff" stroke="#63b8ff" points="341.43,-686.27 351.87,-684.5 342.6,-679.37 341.43,-686.27"/>
</a>
</g>
</g>
<!-- Node3&#45;&gt;Node3 -->
<g id="edge4_Node000003_Node000003" class="edge">
<title>Node3&#45;&gt;Node3</title>
<g id="a_edge4_Node000003_Node000003"><a xlink:title=" ">
<path fill="none" stroke="#63b8ff" d="M395.15,-712.99C388.49,-722.06 399.36,-730.5 427.75,-730.5 443.28,-730.5 453.56,-727.97 458.61,-724.2"/>
<polygon fill="#63b8ff" stroke="#63b8ff" points="462.04,-724.9 460.12,-714.48 455.12,-723.82 462.04,-724.9"/>
</a>
</g>
</g>
<!-- Node4 -->
<g id="Node000004" class="node">
<title>Node4</title>
<g id="a_Node000004"><a xlink:href="../../db/d69/classml_1_1model_1_1_c_search_key.html#a7bda6bb372b0d85dcbdcc3932fee829c" target="_top" xlink:title="Get an identifier for this search.">
<polygon fill="white" stroke="#666666" points="675.25,-712.5 555,-712.5 555,-682 675.25,-682 675.25,-712.5"/>
<text text-anchor="start" x="563" y="-699" font-family="Helvetica,sans-Serif" font-size="10.00">ml::model::CSearchKey</text>
<text text-anchor="middle" x="615.12" y="-687.75" font-family="Helvetica,sans-Serif" font-size="10.00">::detectorIndex</text>
</a>
</g>
</g>
<!-- Node3&#45;&gt;Node4 -->
<g id="edge3_Node000003_Node000004" class="edge">
<title>Node3&#45;&gt;Node4</title>
<g id="a_edge3_Node000003_Node000004"><a xlink:title=" ">
<path fill="none" stroke="#63b8ff" d="M502.02,-697.25C515.69,-697.25 529.96,-697.25 543.56,-697.25"/>
<polygon fill="#63b8ff" stroke="#63b8ff" points="543.28,-700.75 553.28,-697.25 543.28,-693.75 543.28,-700.75"/>
</a>
</g>
</g>
<!-- Node6 -->
<g id="Node000006" class="node">
<title>Node6</title>
<g id="a_Node000006"><a xlink:href="../../d4/d25/classml_1_1model_1_1_c_resource_monitor.html#ab98d5a5316283e47e262b02400df076c" target="_top" xlink:title="Update the given model and recalculate the total usage.">
<polygon fill="white" stroke="#666666" points="501,-663.5 354.5,-663.5 354.5,-633 501,-633 501,-663.5"/>
<text text-anchor="start" x="362.5" y="-650" font-family="Helvetica,sans-Serif" font-size="10.00">ml::model::CResourceMonitor</text>
<text text-anchor="middle" x="427.75" y="-638.75" font-family="Helvetica,sans-Serif" font-size="10.00">::memUsage</text>
</a>
</g>
</g>
<!-- Node5&#45;&gt;Node6 -->
<g id="edge6_Node000005_Node000006" class="edge">
<title>Node5&#45;&gt;Node6</title>
<g id="a_edge6_Node000005_Node000006"><a xlink:title=" ">
<path fill="none" stroke="#63b8ff" d="M290.68,-601.9C314.73,-610.09 344.39,-620.19 369.88,-628.88"/>
<polygon fill="#63b8ff" stroke="#63b8ff" points="368.5,-632.1 379.09,-632.01 370.75,-625.48 368.5,-632.1"/>
</a>
</g>
</g>
<!-- Node11 -->
<g id="Node000011" class="node">
<title>Node11</title>
<g id="a_Node000011"><a xlink:href="../../d4/d25/classml_1_1model_1_1_c_resource_monitor.html#a1cf1c108bb07110b0d95c2e5b9e99ad5" target="_top" xlink:title=" ">
<polygon fill="white" stroke="#666666" points="501,-507.5 354.5,-507.5 354.5,-477 501,-477 501,-507.5"/>
<text text-anchor="start" x="362.5" y="-494" font-family="Helvetica,sans-Serif" font-size="10.00">ml::model::CResourceMonitor</text>
<text text-anchor="middle" x="427.75" y="-482.75" font-family="Helvetica,sans-Serif" font-size="10.00">::updateAllowAllocations</text>
</a>
</g>
</g>
<!-- Node5&#45;&gt;Node11 -->
<g id="edge12_Node000005_Node000011" class="edge">
<title>Node5&#45;&gt;Node11</title>
<g id="a_edge12_Node000005_Node000011"><a xlink:title=" ">
<path fill="none" stroke="#63b8ff" d="M295.63,-570.55C303.17,-567.73 310.74,-564.61 317.75,-561.25 345.59,-547.9 375.07,-528.91 396.33,-514.23"/>
<polygon fill="#63b8ff" stroke="#63b8ff" points="398.06,-517.3 404.25,-508.7 394.05,-511.56 398.06,-517.3"/>
</a>
</g>
</g>
<!-- Node7 -->
<g id="Node000007" class="node">
<title>Node7</title>
<g id="a_Node000007"><a xlink:href="../../d0/d74/namespaceml_1_1core_1_1memory.html#a50fe883268170c17625e18a0c5fea04b" target="_top" xlink:title="Default implementation for non&#45;pointer types.">
<polygon fill="white" stroke="#666666" points="692.5,-657.88 537.75,-657.88 537.75,-638.62 692.5,-638.62 692.5,-657.88"/>
<text text-anchor="middle" x="615.12" y="-644.38" font-family="Helvetica,sans-Serif" font-size="10.00">ml::core::memory::dynamicSize</text>
</a>
</g>
</g>
<!-- Node6&#45;&gt;Node7 -->
<g id="edge7_Node000006_Node000007" class="edge">
<title>Node6&#45;&gt;Node7</title>
<g id="a_edge7_Node000006_Node000007"><a xlink:title=" ">
<path fill="none" stroke="#63b8ff" d="M501.48,-648.25C509.48,-648.25 517.69,-648.25 525.85,-648.25"/>
<polygon fill="#63b8ff" stroke="#63b8ff" points="525.81,-651.75 535.81,-648.25 525.81,-644.75 525.81,-651.75"/>
</a>
</g>
</g>
<!-- Node8 -->
<g id="Node000008" class="node">
<title>Node8</title>
<g id="a_Node000008"><a xlink:href="../../d9/d0b/structml_1_1core_1_1memory__detail_1_1_s_memory_dynamic_size.html#a49a680749a1d1861b69990d788154833" target="_top" xlink:title=" ">
<polygon fill="white" stroke="#666666" points="879.12,-669.12 750.62,-669.12 750.62,-627.38 879.12,-627.38 879.12,-669.12"/>
<text text-anchor="start" x="758.62" y="-655.62" font-family="Helvetica,sans-Serif" font-size="10.00">ml::core::memory_detail</text>
<text text-anchor="start" x="758.62" y="-644.38" font-family="Helvetica,sans-Serif" font-size="10.00">::SMemoryDynamicSize::</text>
<text text-anchor="middle" x="814.88" y="-633.12" font-family="Helvetica,sans-Serif" font-size="10.00">dispatch</text>
</a>
</g>
</g>
<!-- Node7&#45;&gt;Node8 -->
<g id="edge8_Node000007_Node000008" class="edge">
<title>Node7&#45;&gt;Node8</title>
<g id="a_edge8_Node000007_Node000008"><a xlink:title=" ">
<path fill="none" stroke="#63b8ff" d="M692.86,-648.25C708,-648.25 723.87,-648.25 738.95,-648.25"/>
<polygon fill="#63b8ff" stroke="#63b8ff" points="738.79,-651.75 748.79,-648.25 738.79,-644.75 738.79,-651.75"/>
</a>
</g>
</g>
<!-- Node9 -->
<g id="Node000009" class="node">
<title>Node9</title>
<g id="a_Node000009"><a xlink:href="../../db/df7/namespaceml_1_1core_1_1memory__detail.html#ac2d4d02cd0f6d8d7d1355958a49fce43" target="_top" xlink:title="Check if we expect an overloaded dynamicSize function.">
<polygon fill="white" stroke="#666666" points="877.62,-717.5 752.12,-717.5 752.12,-687 877.62,-687 877.62,-717.5"/>
<text text-anchor="start" x="760.12" y="-704" font-family="Helvetica,sans-Serif" font-size="10.00">ml::core::memory_detail</text>
<text text-anchor="middle" x="814.88" y="-692.75" font-family="Helvetica,sans-Serif" font-size="10.00">::expectMemoryOverload</text>
</a>
</g>
</g>
<!-- Node7&#45;&gt;Node9 -->
<g id="edge9_Node000007_Node000009" class="edge">
<title>Node7&#45;&gt;Node9</title>
<g id="a_edge9_Node000007_Node000009"><a xlink:title=" ">
<path fill="none" stroke="#63b8ff" d="M652.86,-658.28C678.83,-665.37 714.44,-675.1 745.56,-683.59"/>
<polygon fill="#63b8ff" stroke="#63b8ff" points="744.33,-686.89 754.9,-686.14 746.17,-680.13 744.33,-686.89"/>
</a>
</g>
</g>
<!-- Node10 -->
<g id="Node000010" class="node">
<title>Node10</title>
<g id="a_Node000010"><a xlink:href="../../d2/d21/structml_1_1core_1_1memory__detail_1_1_s_dynamic_size_always_zero.html#a710ac6fc2d5760a396bb2d46a66a73b2" target="_top" xlink:title=" ">
<polygon fill="white" stroke="#666666" points="1076.25,-671.12 937.25,-671.12 937.25,-629.38 1076.25,-629.38 1076.25,-671.12"/>
<text text-anchor="start" x="945.25" y="-657.62" font-family="Helvetica,sans-Serif" font-size="10.00">ml::core::memory_detail</text>
<text text-anchor="start" x="945.25" y="-646.38" font-family="Helvetica,sans-Serif" font-size="10.00">::SDynamicSizeAlwaysZero</text>
<text text-anchor="middle" x="1006.75" y="-635.12" font-family="Helvetica,sans-Serif" font-size="10.00">::value</text>
</a>
</g>
</g>
<!-- Node7&#45;&gt;Node10 -->
<g id="edge11_Node000007_Node000010" class="edge">
<title>Node7&#45;&gt;Node10</title>
<g id="a_edge11_Node000007_Node000010"><a xlink:title=" ">
<path fill="none" stroke="#63b8ff" d="M645.28,-638.22C667.72,-631.05 699.67,-622.03 728.5,-618.25 804.63,-608.26 825.32,-606.88 901.25,-618.25 912.7,-619.96 924.62,-622.68 936.15,-625.82"/>
<polygon fill="#63b8ff" stroke="#63b8ff" points="935.02,-629.13 945.59,-628.52 936.94,-622.4 935.02,-629.13"/>
</a>
</g>
</g>
<!-- Node9&#45;&gt;Node10 -->
<g id="edge10_Node000009_Node000010" class="edge">
<title>Node9&#45;&gt;Node10</title>
<g id="a_edge10_Node000009_Node000010"><a xlink:title=" ">
<path fill="none" stroke="#63b8ff" d="M873.36,-686.51C889.9,-681.98 908.25,-676.95 925.88,-672.12"/>
<polygon fill="#63b8ff" stroke="#63b8ff" points="926.57,-675.56 935.29,-669.55 924.72,-668.81 926.57,-675.56"/>
</a>
</g>
</g>
<!-- Node12 -->
<g id="Node000012" class="node">
<title>Node12</title>
<g id="a_Node000012"><a xlink:href="../../d4/d25/classml_1_1model_1_1_c_resource_monitor.html#a666a89154a86726709e80b1800861a8f" target="_top" xlink:title=" ">
<polygon fill="white" stroke="#666666" points="688.38,-338.5 541.88,-338.5 541.88,-308 688.38,-308 688.38,-338.5"/>
<text text-anchor="start" x="549.88" y="-325" font-family="Helvetica,sans-Serif" font-size="10.00">ml::model::CResourceMonitor</text>
<text text-anchor="middle" x="615.12" y="-313.75" font-family="Helvetica,sans-Serif" font-size="10.00">::adjustedUsage</text>
</a>
</g>
</g>
<!-- Node11&#45;&gt;Node12 -->
<g id="edge13_Node000011_Node000012" class="edge">
<title>Node11&#45;&gt;Node12</title>
<g id="a_edge13_Node000011_Node000012"><a xlink:title=" ">
<path fill="none" stroke="#63b8ff" d="M445.86,-476.65C478.69,-446.72 550.67,-381.1 588.98,-346.18"/>
<polygon fill="#63b8ff" stroke="#63b8ff" points="590.91,-349.15 595.94,-339.83 586.19,-343.98 590.91,-349.15"/>
</a>
</g>
</g>
<!-- Node14 -->
<g id="Node000014" class="node">
<title>Node14</title>
<g id="a_Node000014"><a xlink:href="../../d3/d6d/classml_1_1core_1_1_c_program_counters.html#a0669d71b56b650d4392e16b7ebf83570" target="_top" xlink:title="Provide access to the relevant counter from the collection.">
<polygon fill="white" stroke="#666666" points="885.5,-463.5 744.25,-463.5 744.25,-433 885.5,-433 885.5,-463.5"/>
<text text-anchor="start" x="752.25" y="-450" font-family="Helvetica,sans-Serif" font-size="10.00">ml::core::CProgramCounters</text>
<text text-anchor="middle" x="814.88" y="-438.75" font-family="Helvetica,sans-Serif" font-size="10.00">::counter</text>
</a>
</g>
</g>
<!-- Node11&#45;&gt;Node14 -->
<g id="edge16_Node000011_Node000014" class="edge">
<title>Node11&#45;&gt;Node14</title>
<g id="a_edge16_Node000011_Node000014"><a xlink:title=" ">
<path fill="none" stroke="#63b8ff" d="M501.19,-483.97C567.13,-476.44 664.38,-465.33 732.87,-457.5"/>
<polygon fill="#63b8ff" stroke="#63b8ff" points="732.99,-461.01 742.53,-456.4 732.2,-454.06 732.99,-461.01"/>
</a>
</g>
</g>
<!-- Node15 -->
<g id="Node000015" class="node">
<title>Node15</title>
<g id="a_Node000015"><a xlink:href="../../d4/d25/classml_1_1model_1_1_c_resource_monitor.html#adaa0f7f080ef8046ac0829817b886a3e" target="_top" xlink:title="Get the high memory limit with margin applied.">
<polygon fill="white" stroke="#666666" points="688.38,-528.5 541.88,-528.5 541.88,-498 688.38,-498 688.38,-528.5"/>
<text text-anchor="start" x="549.88" y="-515" font-family="Helvetica,sans-Serif" font-size="10.00">ml::model::CResourceMonitor</text>
<text text-anchor="middle" x="615.12" y="-503.75" font-family="Helvetica,sans-Serif" font-size="10.00">::highLimit</text>
</a>
</g>
</g>
<!-- Node11&#45;&gt;Node15 -->
<g id="edge18_Node000011_Node000015" class="edge">
<title>Node11&#45;&gt;Node15</title>
<g id="a_edge18_Node000011_Node000015"><a xlink:title=" ">
<path fill="none" stroke="#63b8ff" d="M501.48,-500.49C510.96,-501.56 520.73,-502.67 530.37,-503.76"/>
<polygon fill="#63b8ff" stroke="#63b8ff" points="529.77,-507.22 540.1,-504.86 530.56,-500.26 529.77,-507.22"/>
</a>
</g>
</g>
<!-- Node16 -->
<g id="Node000016" class="node">
<title>Node16</title>
<g id="a_Node000016"><a xlink:href="../../d4/d25/classml_1_1model_1_1_c_resource_monitor.html#a0b836618d7b75d94a8adf9669d8be908" target="_top" xlink:title="Get the low memory limit with margin applied.">
<polygon fill="white" stroke="#666666" points="688.38,-577.5 541.88,-577.5 541.88,-547 688.38,-547 688.38,-577.5"/>
<text text-anchor="start" x="549.88" y="-564" font-family="Helvetica,sans-Serif" font-size="10.00">ml::model::CResourceMonitor</text>
<text text-anchor="middle" x="615.12" y="-552.75" font-family="Helvetica,sans-Serif" font-size="10.00">::lowLimit</text>
</a>
</g>
</g>
<!-- Node11&#45;&gt;Node16 -->
<g id="edge19_Node000011_Node000016" class="edge">
<title>Node11&#45;&gt;Node16</title>
<g id="a_edge19_Node000011_Node000016"><a xlink:title=" ">
<path fill="none" stroke="#63b8ff" d="M464.81,-507.94C485.92,-516.92 513.17,-528.17 537.75,-537.25 542.8,-539.12 548.06,-540.99 553.36,-542.82"/>
<polygon fill="#63b8ff" stroke="#63b8ff" points="552.2,-546.12 562.79,-546.03 554.45,-539.5 552.2,-546.12"/>
</a>
</g>
</g>
<!-- Node17 -->
<g id="Node000017" class="node">
<title>Node17</title>
<g id="a_Node000017"><a xlink:href="../../d4/d25/classml_1_1model_1_1_c_resource_monitor.html#aed60c474bb11e41c1cd328ced5655fc7" target="_top" xlink:title="Returns the sum of used memory plus any extra memory.">
<polygon fill="white" stroke="#666666" points="688.38,-442.5 541.88,-442.5 541.88,-412 688.38,-412 688.38,-442.5"/>
<text text-anchor="start" x="549.88" y="-429" font-family="Helvetica,sans-Serif" font-size="10.00">ml::model::CResourceMonitor</text>
<text text-anchor="middle" x="615.12" y="-417.75" font-family="Helvetica,sans-Serif" font-size="10.00">::totalMemory</text>
</a>
</g>
</g>
<!-- Node11&#45;&gt;Node17 -->
<g id="edge20_Node000011_Node000017" class="edge">
<title>Node11&#45;&gt;Node17</title>
<g id="a_edge20_Node000011_Node000017"><a xlink:title=" ">
<path fill="none" stroke="#63b8ff" d="M473.62,-476.52C499.26,-467.53 531.61,-456.18 558.81,-446.64"/>
<polygon fill="#63b8ff" stroke="#63b8ff" points="559.64,-450.06 567.91,-443.45 557.32,-443.46 559.64,-450.06"/>
</a>
</g>
</g>
<!-- Node12&#45;&gt;Node12 -->
<g id="edge14_Node000012_Node000012" class="edge">
<title>Node12&#45;&gt;Node12</title>
<g id="a_edge14_Node000012_Node000012"><a xlink:title=" ">
<path fill="none" stroke="#63b8ff" d="M581.92,-338.99C575.15,-348.06 586.21,-356.5 615.12,-356.5 630.94,-356.5 641.41,-353.97 646.55,-350.2"/>
<polygon fill="#63b8ff" stroke="#63b8ff" points="649.98,-350.91 648.09,-340.48 643.07,-349.81 649.98,-350.91"/>
</a>
</g>
</g>
<!-- Node13 -->
<g id="Node000013" class="node">
<title>Node13</title>
<g id="a_Node000013"><a xlink:href="../../d4/d25/classml_1_1model_1_1_c_resource_monitor.html#a5282f2aeaff74272552051064aa92bcd" target="_top" xlink:title="Returns the amount by which reported memory usage is scaled depending on the type of persistence in u...">
<polygon fill="white" stroke="#666666" points="901.25,-316.5 728.5,-316.5 728.5,-286 901.25,-286 901.25,-316.5"/>
<text text-anchor="start" x="736.5" y="-303" font-family="Helvetica,sans-Serif" font-size="10.00">ml::model::CResourceMonitor</text>
<text text-anchor="middle" x="814.88" y="-291.75" font-family="Helvetica,sans-Serif" font-size="10.00">::persistenceMemoryIncreaseFactor</text>
</a>
</g>
</g>
<!-- Node12&#45;&gt;Node13 -->
<g id="edge15_Node000012_Node000013" class="edge">
<title>Node12&#45;&gt;Node13</title>
<g id="a_edge15_Node000012_Node000013"><a xlink:title=" ">
<path fill="none" stroke="#63b8ff" d="M688.64,-315.18C697.91,-314.15 707.51,-313.08 717.09,-312.02"/>
<polygon fill="#63b8ff" stroke="#63b8ff" points="717.24,-315.52 726.79,-310.94 716.47,-308.57 717.24,-315.52"/>
</a>
</g>
</g>
<!-- Node14&#45;&gt;Node14 -->
<g id="edge17_Node000014_Node000014" class="edge">
<title>Node14&#45;&gt;Node14</title>
<g id="a_edge17_Node000014_Node000014"><a xlink:title=" ">
<path fill="none" stroke="#63b8ff" d="M780.87,-463.99C773.94,-473.06 785.27,-481.5 814.88,-481.5 831.07,-481.5 841.79,-478.97 847.05,-475.2"/>
<polygon fill="#63b8ff" stroke="#63b8ff" points="850.48,-475.91 848.63,-465.48 843.57,-474.79 850.48,-475.91"/>
</a>
</g>
</g>
<!-- Node17&#45;&gt;Node14 -->
<g id="edge21_Node000017_Node000014" class="edge">
<title>Node17&#45;&gt;Node14</title>
<g id="a_edge21_Node000017_Node000014"><a xlink:title=" ">
<path fill="none" stroke="#63b8ff" d="M688.64,-434.95C703.04,-436.48 718.25,-438.1 732.92,-439.65"/>
<polygon fill="#63b8ff" stroke="#63b8ff" points="732.19,-443.09 742.5,-440.67 732.93,-436.13 732.19,-443.09"/>
</a>
</g>
</g>
<!-- Node19&#45;&gt;Node14 -->
<g id="edge24_Node000019_Node000014" class="edge">
<title>Node19&#45;&gt;Node14</title>
<g id="a_edge24_Node000019_Node000014"><a xlink:title=" ">
<path fill="none" stroke="#63b8ff" d="M260.5,-442.92C280.67,-462.27 317.37,-495.22 353.75,-516.25 429.5,-560.04 451.7,-570.43 537.75,-586.25 605.39,-598.68 629.83,-614.59 692.5,-586.25 743.65,-563.12 781.83,-506.59 800.7,-473.5"/>
<polygon fill="#63b8ff" stroke="#63b8ff" points="803.64,-475.43 805.41,-464.98 797.51,-472.04 803.64,-475.43"/>
</a>
</g>
</g>
<!-- Node19&#45;&gt;Node17 -->
<g id="edge42_Node000019_Node000017" class="edge">
<title>Node19&#45;&gt;Node17</title>
<g id="a_edge42_Node000019_Node000017"><a xlink:title=" ">
<path fill="none" stroke="#63b8ff" d="M317.29,-427.25C378.43,-427.25 465.97,-427.25 530.14,-427.25"/>
<polygon fill="#63b8ff" stroke="#63b8ff" points="529.93,-430.75 539.93,-427.25 529.93,-423.75 529.93,-430.75"/>
</a>
</g>
</g>
<!-- Node20 -->
<g id="Node000020" class="node">
<title>Node20</title>
<g id="a_Node000020"><a xlink:href="../../d4/d25/classml_1_1model_1_1_c_resource_monitor.html#a5f82e91dd4ca8a852f8429b1c8a05477" target="_top" xlink:title="Create a memory usage report.">
<polygon fill="white" stroke="#666666" points="501,-399.5 354.5,-399.5 354.5,-369 501,-369 501,-399.5"/>
<text text-anchor="start" x="362.5" y="-386" font-family="Helvetica,sans-Serif" font-size="10.00">ml::model::CResourceMonitor</text>
<text text-anchor="middle" x="427.75" y="-374.75" font-family="Helvetica,sans-Serif" font-size="10.00">::createMemoryUsageReport</text>
</a>
</g>
</g>
<!-- Node19&#45;&gt;Node20 -->
<g id="edge25_Node000019_Node000020" class="edge">
<title>Node19&#45;&gt;Node20</title>
<g id="a_edge25_Node000019_Node000020"><a xlink:title=" ">
<path fill="none" stroke="#63b8ff" d="M311.23,-411.54C323.56,-408.63 336.54,-405.56 349.17,-402.58"/>
<polygon fill="#63b8ff" stroke="#63b8ff" points="349.75,-406.04 358.67,-400.33 348.14,-399.23 349.75,-406.04"/>
</a>
</g>
</g>
<!-- Node21 -->
<g id="Node000021" class="node">
<title>Node21</title>
<g id="a_Node000021"><a xlink:href="../../d4/d25/classml_1_1model_1_1_c_resource_monitor.html#abedfc9148cb757e009bec2f83b645354" target="_top" xlink:title=" ">
<polygon fill="white" stroke="#666666" points="501,-171.5 354.5,-171.5 354.5,-141 501,-141 501,-171.5"/>
<text text-anchor="start" x="362.5" y="-158" font-family="Helvetica,sans-Serif" font-size="10.00">ml::model::CResourceMonitor</text>
<text text-anchor="middle" x="427.75" y="-146.75" font-family="Helvetica,sans-Serif" font-size="10.00">::isMemoryStable</text>
</a>
</g>
</g>
<!-- Node19&#45;&gt;Node21 -->
<g id="edge30_Node000019_Node000021" class="edge">
<title>Node19&#45;&gt;Node21</title>
<g id="a_edge30_Node000019_Node000021"><a xlink:title=" ">
<path fill="none" stroke="#63b8ff" d="M255.32,-411.51C285.68,-366.31 373.27,-235.88 410.11,-181.02"/>
<polygon fill="#63b8ff" stroke="#63b8ff" points="412.86,-183.21 415.53,-172.95 407.05,-179.3 412.86,-183.21"/>
</a>
</g>
</g>
<!-- Node20&#45;&gt;Node12 -->
<g id="edge26_Node000020_Node000012" class="edge">
<title>Node20&#45;&gt;Node12</title>
<g id="a_edge26_Node000020_Node000012"><a xlink:title=" ">
<path fill="none" stroke="#63b8ff" d="M476.49,-368.54C500.71,-360.57 530.33,-350.83 555.88,-342.42"/>
<polygon fill="#63b8ff" stroke="#63b8ff" points="556.71,-345.83 565.11,-339.38 554.52,-339.18 556.71,-345.83"/>
</a>
</g>
</g>
<!-- Node20&#45;&gt;Node13 -->
<g id="edge28_Node000020_Node000013" class="edge">
<title>Node20&#45;&gt;Node13</title>
<g id="a_edge28_Node000020_Node000013"><a xlink:title=" ">
<path fill="none" stroke="#63b8ff" d="M442.33,-368.56C461.27,-348.01 497.81,-312.98 537.75,-299.25 594.89,-279.6 662.69,-279.79 716.81,-285.04"/>
<polygon fill="#63b8ff" stroke="#63b8ff" points="716.33,-288.51 726.64,-286.07 717.06,-281.54 716.33,-288.51"/>
</a>
</g>
</g>
<!-- Node20&#45;&gt;Node14 -->
<g id="edge27_Node000020_Node000014" class="edge">
<title>Node20&#45;&gt;Node14</title>
<g id="a_edge27_Node000020_Node000014"><a xlink:title=" ">
<path fill="none" stroke="#63b8ff" d="M501.46,-383.99C554.87,-385.12 628.9,-389.46 692.5,-403.25 718.55,-408.9 746.51,-418.97 769.02,-428.15"/>
<polygon fill="#63b8ff" stroke="#63b8ff" points="767.63,-431.37 778.21,-431.99 770.33,-424.91 767.63,-431.37"/>
</a>
</g>
</g>
<!-- Node20&#45;&gt;Node17 -->
<g id="edge29_Node000020_Node000017" class="edge">
<title>Node20&#45;&gt;Node17</title>
<g id="a_edge29_Node000020_Node000017"><a xlink:title=" ">
<path fill="none" stroke="#63b8ff" d="M496.46,-399.96C509.02,-402.87 522.24,-405.94 535.1,-408.92"/>
<polygon fill="#63b8ff" stroke="#63b8ff" points="534.28,-412.32 544.81,-411.17 535.86,-405.5 534.28,-412.32"/>
</a>
</g>
</g>
<!-- Node22 -->
<g id="Node000022" class="node">
<title>Node22</title>
<g id="a_Node000022"><a xlink:href="../../d4/d55/classml_1_1maths_1_1common_1_1_c_basic_statistics.html#a6a8651e3b13d0aaa6577af10dfdd97f7" target="_top" xlink:title="Extract the count from an accumulator object.">
<polygon fill="white" stroke="#666666" points="674.88,-79.5 555.38,-79.5 555.38,-49 674.88,-49 674.88,-79.5"/>
<text text-anchor="start" x="563.38" y="-66" font-family="Helvetica,sans-Serif" font-size="10.00">ml::maths::common::</text>
<text text-anchor="middle" x="615.12" y="-54.75" font-family="Helvetica,sans-Serif" font-size="10.00">CBasicStatistics::count</text>
</a>
</g>
</g>
<!-- Node21&#45;&gt;Node22 -->
<g id="edge31_Node000021_Node000022" class="edge">
<title>Node21&#45;&gt;Node22</title>
<g id="a_edge31_Node000021_Node000022"><a xlink:title=" ">
<path fill="none" stroke="#63b8ff" d="M450.85,-140.52C472.28,-125.79 506.11,-103.91 537.75,-89.25 541.77,-87.39 545.96,-85.61 550.22,-83.91"/>
<polygon fill="#63b8ff" stroke="#63b8ff" points="551.38,-87.22 559.5,-80.41 548.9,-80.67 551.38,-87.22"/>
</a>
</g>
</g>
<!-- Node23 -->
<g id="Node000023" class="node">
<title>Node23</title>
<g id="a_Node000023"><a xlink:href="../../dd/dc8/classml_1_1maths_1_1common_1_1_c_maths_funcs.html#a55029f09f9f7e9eb786219fefbb8ff72" target="_top" xlink:title="Check if value is NaN.">
<polygon fill="white" stroke="#666666" points="669.62,-30.5 560.62,-30.5 560.62,0 669.62,0 669.62,-30.5"/>
<text text-anchor="start" x="568.62" y="-17" font-family="Helvetica,sans-Serif" font-size="10.00">ml::maths::common::</text>
<text text-anchor="middle" x="615.12" y="-5.75" font-family="Helvetica,sans-Serif" font-size="10.00">CMathsFuncs::isNan</text>
</a>
</g>
</g>
<!-- Node21&#45;&gt;Node23 -->
<g id="edge32_Node000021_Node000023" class="edge">
<title>Node21&#45;&gt;Node23</title>
<g id="a_edge32_Node000021_Node000023"><a xlink:title=" ">
<path fill="none" stroke="#63b8ff" d="M439.3,-140.76C456.9,-116.05 494.61,-67.68 537.75,-40.25 541.66,-37.77 545.83,-35.5 550.15,-33.45"/>
<polygon fill="#63b8ff" stroke="#63b8ff" points="551.21,-36.81 559,-29.63 548.43,-30.38 551.21,-36.81"/>
</a>
</g>
</g>
<!-- Node24 -->
<g id="Node000024" class="node">
<title>Node24</title>
<g id="a_Node000024"><a xlink:href="../../d4/d55/classml_1_1maths_1_1common_1_1_c_basic_statistics.html#a9a136b1823e9938247cd29bb0ffea440" target="_top" xlink:title="Compute the mean of a pair.">
<polygon fill="white" stroke="#666666" points="674.88,-252.5 555.38,-252.5 555.38,-222 674.88,-222 674.88,-252.5"/>
<text text-anchor="start" x="563.38" y="-239" font-family="Helvetica,sans-Serif" font-size="10.00">ml::maths::common::</text>
<text text-anchor="middle" x="615.12" y="-227.75" font-family="Helvetica,sans-Serif" font-size="10.00">CBasicStatistics::mean</text>
</a>
</g>
</g>
<!-- Node21&#45;&gt;Node24 -->
<g id="edge33_Node000021_Node000024" class="edge">
<title>Node21&#45;&gt;Node24</title>
<g id="a_edge33_Node000021_Node000024"><a xlink:title=" ">
<path fill="none" stroke="#63b8ff" d="M455.43,-171.91C477.12,-184.21 508.75,-201.22 537.75,-213.25 541.5,-214.81 545.39,-216.32 549.34,-217.78"/>
<polygon fill="#63b8ff" stroke="#63b8ff" points="547.85,-220.96 558.44,-221.01 550.19,-214.37 547.85,-220.96"/>
</a>
</g>
</g>
<!-- Node25 -->
<g id="Node000025" class="node">
<title>Node25</title>
<g id="a_Node000025"><a xlink:href="../../d6/dd5/namespaceml_1_1maths_1_1common.html#a37f8b7909e617ad623600aead4cfc868" target="_top" xlink:title="Compute the distribution mean.">
<polygon fill="white" stroke="#666666" points="681.62,-203.88 548.62,-203.88 548.62,-184.62 681.62,-184.62 681.62,-203.88"/>
<text text-anchor="middle" x="615.12" y="-190.38" font-family="Helvetica,sans-Serif" font-size="10.00">ml::maths::common::mean</text>
</a>
</g>
</g>
<!-- Node21&#45;&gt;Node25 -->
<g id="edge34_Node000021_Node000025" class="edge">
<title>Node21&#45;&gt;Node25</title>
<g id="a_edge34_Node000021_Node000025"><a xlink:title=" ">
<path fill="none" stroke="#63b8ff" d="M501.48,-171.16C518.71,-174.69 536.9,-178.42 553.52,-181.83"/>
<polygon fill="#63b8ff" stroke="#63b8ff" points="552.76,-185.24 563.26,-183.82 554.17,-178.39 552.76,-185.24"/>
</a>
</g>
</g>
<!-- Node29 -->
<g id="Node000029" class="node">
<title>Node29</title>
<g id="a_Node000029"><a xlink:href="../../dd/d55/classml_1_1maths_1_1common_1_1_c_tools.html#aa0600053da91719428498ec9968916c3" target="_top" xlink:title="Compute .">
<polygon fill="white" stroke="#666666" points="1061.25,-163.5 952.25,-163.5 952.25,-133 1061.25,-133 1061.25,-163.5"/>
<text text-anchor="start" x="960.25" y="-150" font-family="Helvetica,sans-Serif" font-size="10.00">ml::maths::common::</text>
<text text-anchor="middle" x="1006.75" y="-138.75" font-family="Helvetica,sans-Serif" font-size="10.00">CTools::pow2</text>
</a>
</g>
</g>
<!-- Node21&#45;&gt;Node29 -->
<g id="edge40_Node000021_Node000029" class="edge">
<title>Node21&#45;&gt;Node29</title>
<g id="a_edge40_Node000021_Node000029"><a xlink:title=" ">
<path fill="none" stroke="#63b8ff" d="M501.24,-155.24C614.55,-153.67 831.88,-150.66 940.54,-149.15"/>
<polygon fill="#63b8ff" stroke="#63b8ff" points="940.51,-152.65 950.46,-149.02 940.41,-145.66 940.51,-152.65"/>
</a>
</g>
</g>
<!-- Node31 -->
<g id="Node000031" class="node">
<title>Node31</title>
<g id="a_Node000031"><a xlink:href="../../d4/d55/classml_1_1maths_1_1common_1_1_c_basic_statistics.html#a53b366eca7a0bae43e1c6d54573f3dcb" target="_top" xlink:title=" ">
<polygon fill="white" stroke="#666666" points="681.25,-128.5 549,-128.5 549,-98 681.25,-98 681.25,-128.5"/>
<text text-anchor="start" x="557" y="-115" font-family="Helvetica,sans-Serif" font-size="10.00">ml::maths::common::</text>
<text text-anchor="middle" x="615.12" y="-103.75" font-family="Helvetica,sans-Serif" font-size="10.00">CBasicStatistics::variance</text>
</a>
</g>
</g>
<!-- Node21&#45;&gt;Node31 -->
<g id="edge41_Node000021_Node000031" class="edge">
<title>Node21&#45;&gt;Node31</title>
<g id="a_edge41_Node000021_Node000031"><a xlink:title=" ">
<path fill="none" stroke="#63b8ff" d="M496.46,-140.54C509.93,-137.42 524.15,-134.12 537.88,-130.94"/>
<polygon fill="#63b8ff" stroke="#63b8ff" points="538.34,-134.42 547.29,-128.75 536.75,-127.6 538.34,-134.42"/>
</a>
</g>
</g>
<!-- Node26 -->
<g id="Node000026" class="node">
<title>Node26</title>
<g id="a_Node000026"><a xlink:href="../../d6/dd5/namespaceml_1_1maths_1_1common.html#aa139fb07823365e51bd2f01178d7a61a" target="_top" xlink:title="Compute the mode for distribution.">
<polygon fill="white" stroke="#666666" points="881.38,-211.88 748.38,-211.88 748.38,-192.62 881.38,-192.62 881.38,-211.88"/>
<text text-anchor="middle" x="814.88" y="-198.38" font-family="Helvetica,sans-Serif" font-size="10.00">ml::maths::common::mode</text>
</a>
</g>
</g>
<!-- Node25&#45;&gt;Node26 -->
<g id="edge35_Node000025_Node000026" class="edge">
<title>Node25&#45;&gt;Node26</title>
<g id="a_edge35_Node000025_Node000026"><a xlink:title=" ">
<path fill="none" stroke="#63b8ff" d="M681.97,-196.91C699.48,-197.62 718.54,-198.39 736.59,-199.12"/>
<polygon fill="#63b8ff" stroke="#63b8ff" points="736.33,-202.62 746.47,-199.52 736.62,-195.62 736.33,-202.62"/>
</a>
</g>
</g>
<!-- Node27 -->
<g id="Node000027" class="node">
<title>Node27</title>
<g id="a_Node000027"><a xlink:href="../../d0/d1c/classml_1_1maths_1_1common_1_1_c_log_t_distribution.html#a128ce0a627956e7931be0358fe995d2d" target="_top" xlink:title=" ">
<polygon fill="white" stroke="#666666" points="1074.38,-223.12 939.12,-223.12 939.12,-181.38 1074.38,-181.38 1074.38,-223.12"/>
<text text-anchor="start" x="947.12" y="-209.62" font-family="Helvetica,sans-Serif" font-size="10.00">ml::maths::common::</text>
<text text-anchor="start" x="947.12" y="-198.38" font-family="Helvetica,sans-Serif" font-size="10.00">CLogTDistribution::degrees</text>
<text text-anchor="middle" x="1006.75" y="-187.12" font-family="Helvetica,sans-Serif" font-size="10.00">Freedom</text>
</a>
</g>
</g>
<!-- Node26&#45;&gt;Node27 -->
<g id="edge36_Node000026_Node000027" class="edge">
<title>Node26&#45;&gt;Node27</title>
<g id="a_edge36_Node000026_Node000027"><a xlink:title=" ">
<path fill="none" stroke="#63b8ff" d="M881.75,-202.25C896.43,-202.25 912.14,-202.25 927.27,-202.25"/>
<polygon fill="#63b8ff" stroke="#63b8ff" points="927.19,-205.75 937.19,-202.25 927.19,-198.75 927.19,-205.75"/>
</a>
</g>
</g>
<!-- Node28 -->
<g id="Node000028" class="node">
<title>Node28</title>
<g id="a_Node000028"><a xlink:href="../../d0/d1c/classml_1_1maths_1_1common_1_1_c_log_t_distribution.html#a4267908e2f6c547fd21f75a77f6bee78" target="_top" xlink:title=" ">
<polygon fill="white" stroke="#666666" points="1074,-320.5 939.5,-320.5 939.5,-290 1074,-290 1074,-320.5"/>
<text text-anchor="start" x="947.5" y="-307" font-family="Helvetica,sans-Serif" font-size="10.00">ml::maths::common::</text>
<text text-anchor="middle" x="1006.75" y="-295.75" font-family="Helvetica,sans-Serif" font-size="10.00">CLogTDistribution::location</text>
</a>
</g>
</g>
<!-- Node26&#45;&gt;Node28 -->
<g id="edge37_Node000026_Node000028" class="edge">
<title>Node26&#45;&gt;Node28</title>
<g id="a_edge37_Node000026_Node000028"><a xlink:title=" ">
<path fill="none" stroke="#63b8ff" d="M829.13,-212.17C850.84,-228.09 895.74,-259.65 937.25,-280.25 940.7,-281.96 944.3,-283.62 947.96,-285.21"/>
<polygon fill="#63b8ff" stroke="#63b8ff" points="946.4,-288.35 956.98,-288.94 949.07,-281.89 946.4,-288.35"/>
</a>
</g>
</g>
<!-- Node26&#45;&gt;Node29 -->
<g id="edge38_Node000026_Node000029" class="edge">
<title>Node26&#45;&gt;Node29</title>
<g id="a_edge38_Node000026_Node000029"><a xlink:title=" ">
<path fill="none" stroke="#63b8ff" d="M851.14,-192.22C876.36,-185.05 911.02,-175.19 941.14,-166.63"/>
<polygon fill="#63b8ff" stroke="#63b8ff" points="941.88,-170.05 950.54,-163.95 939.97,-163.32 941.88,-170.05"/>
</a>
</g>
</g>
<!-- Node30 -->
<g id="Node000030" class="node">
<title>Node30</title>
<g id="a_Node000030"><a xlink:href="../../d0/d1c/classml_1_1maths_1_1common_1_1_c_log_t_distribution.html#a8f03f27080a2f59d3da535b4b4f228ef" target="_top" xlink:title=" ">
<polygon fill="white" stroke="#666666" points="1068.75,-271.5 944.75,-271.5 944.75,-241 1068.75,-241 1068.75,-271.5"/>
<text text-anchor="start" x="952.75" y="-258" font-family="Helvetica,sans-Serif" font-size="10.00">ml::maths::common::</text>
<text text-anchor="middle" x="1006.75" y="-246.75" font-family="Helvetica,sans-Serif" font-size="10.00">CLogTDistribution::scale</text>
</a>
</g>
</g>
<!-- Node26&#45;&gt;Node30 -->
<g id="edge39_Node000026_Node000030" class="edge">
<title>Node26&#45;&gt;Node30</title>
<g id="a_edge39_Node000026_Node000030"><a xlink:title=" ">
<path fill="none" stroke="#63b8ff" d="M851.14,-212.28C875.98,-219.34 909.97,-229.01 939.76,-237.48"/>
<polygon fill="#63b8ff" stroke="#63b8ff" points="938.49,-240.76 949.07,-240.13 940.41,-234.03 938.49,-240.76"/>
</a>
</g>
</g>
</g>
</svg>
