<?xml version="1.0" encoding="UTF-8" standalone="no"?>
<!DOCTYPE svg PUBLIC "-//W3C//DTD SVG 1.1//EN"
 "http://www.w3.org/Graphics/SVG/1.1/DTD/svg11.dtd">
<!-- Generated by graphviz version 10.0.1 (20240210.2158)
 -->
<!-- Title: ml::maths::common::CTools::CProbabilityOfLessLikelySample::tail Pages: 1 -->
<svg width="486pt" height="196pt"
 viewBox="0.00 0.00 485.75 196.12" xmlns="http://www.w3.org/2000/svg" xmlns:xlink="http://www.w3.org/1999/xlink">
<g id="graph0" class="graph" transform="scale(1 1) rotate(0) translate(4 192.12)">
<title>ml::maths::common::CTools::CProbabilityOfLessLikelySample::tail</title>
<!-- Node1 -->
<g id="Node000001" class="node">
<title>Node1</title>
<g id="a_Node000001"><a xlink:title="Update the tail.">
<polygon fill="#999999" stroke="#666666" points="137.5,-109.12 0,-109.12 0,-67.38 137.5,-67.38 137.5,-109.12"/>
<text text-anchor="start" x="8" y="-95.62" font-family="Helvetica,sans-Serif" font-size="10.00">ml::maths::common::</text>
<text text-anchor="start" x="8" y="-84.38" font-family="Helvetica,sans-Serif" font-size="10.00">CTools::CProbabilityOfLess</text>
<text text-anchor="middle" x="68.75" y="-73.12" font-family="Helvetica,sans-Serif" font-size="10.00">LikelySample::tail</text>
</a>
</g>
</g>
<!-- Node2 -->
<g id="Node000002" class="node">
<title>Node2</title>
<g id="a_Node000002"><a xlink:href="../../d6/dd5/namespaceml_1_1maths_1_1common.html#aa139fb07823365e51bd2f01178d7a61a" target="_top" xlink:title="Compute the mode for distribution.">
<polygon fill="white" stroke="#666666" points="306.5,-97.88 173.5,-97.88 173.5,-78.62 306.5,-78.62 306.5,-97.88"/>
<text text-anchor="middle" x="240" y="-84.38" font-family="Helvetica,sans-Serif" font-size="10.00">ml::maths::common::mode</text>
</a>
</g>
</g>
<!-- Node1&#45;&gt;Node2 -->
<g id="edge1_Node000001_Node000002" class="edge">
<title>Node1&#45;&gt;Node2</title>
<g id="a_edge1_Node000001_Node000002"><a xlink:title=" ">
<path fill="none" stroke="#63b8ff" d="M137.62,-88.25C145.55,-88.25 153.7,-88.25 161.75,-88.25"/>
<polygon fill="#63b8ff" stroke="#63b8ff" points="161.53,-91.75 171.53,-88.25 161.53,-84.75 161.53,-91.75"/>
</a>
</g>
</g>
<!-- Node3 -->
<g id="Node000003" class="node">
<title>Node3</title>
<g id="a_Node000003"><a xlink:href="../../d0/d1c/classml_1_1maths_1_1common_1_1_c_log_t_distribution.html#a128ce0a627956e7931be0358fe995d2d" target="_top" xlink:title=" ">
<polygon fill="white" stroke="#666666" points="477.75,-188.12 342.5,-188.12 342.5,-146.38 477.75,-146.38 477.75,-188.12"/>
<text text-anchor="start" x="350.5" y="-174.62" font-family="Helvetica,sans-Serif" font-size="10.00">ml::maths::common::</text>
<text text-anchor="start" x="350.5" y="-163.38" font-family="Helvetica,sans-Serif" font-size="10.00">CLogTDistribution::degrees</text>
<text text-anchor="middle" x="410.12" y="-152.12" font-family="Helvetica,sans-Serif" font-size="10.00">Freedom</text>
</a>
</g>
</g>
<!-- Node2&#45;&gt;Node3 -->
<g id="edge2_Node000002_Node000003" class="edge">
<title>Node2&#45;&gt;Node3</title>
<g id="a_edge2_Node000002_Node000003"><a xlink:title=" ">
<path fill="none" stroke="#63b8ff" d="M261.53,-98.36C281.98,-108.38 314.3,-124.1 342.5,-137.25 345.26,-138.54 348.09,-139.85 350.95,-141.16"/>
<polygon fill="#63b8ff" stroke="#63b8ff" points="349.45,-144.33 360,-145.31 352.37,-137.96 349.45,-144.33"/>
</a>
</g>
</g>
<!-- Node4 -->
<g id="Node000004" class="node">
<title>Node4</title>
<g id="a_Node000004"><a xlink:href="../../d0/d1c/classml_1_1maths_1_1common_1_1_c_log_t_distribution.html#a4267908e2f6c547fd21f75a77f6bee78" target="_top" xlink:title=" ">
<polygon fill="white" stroke="#666666" points="477.38,-128.5 342.88,-128.5 342.88,-98 477.38,-98 477.38,-128.5"/>
<text text-anchor="start" x="350.88" y="-115" font-family="Helvetica,sans-Serif" font-size="10.00">ml::maths::common::</text>
<text text-anchor="middle" x="410.12" y="-103.75" font-family="Helvetica,sans-Serif" font-size="10.00">CLogTDistribution::location</text>
</a>
</g>
</g>
<!-- Node2&#45;&gt;Node4 -->
<g id="edge3_Node000002_Node000004" class="edge">
<title>Node2&#45;&gt;Node4</title>
<g id="a_edge3_Node000002_Node000004"><a xlink:title=" ">
<path fill="none" stroke="#63b8ff" d="M306.96,-98.06C314.91,-99.24 323.07,-100.45 331.16,-101.66"/>
<polygon fill="#63b8ff" stroke="#63b8ff" points="330.62,-105.11 341.02,-103.12 331.65,-98.19 330.62,-105.11"/>
</a>
</g>
</g>
<!-- Node5 -->
<g id="Node000005" class="node">
<title>Node5</title>
<g id="a_Node000005"><a xlink:href="../../dd/d55/classml_1_1maths_1_1common_1_1_c_tools.html#aa0600053da91719428498ec9968916c3" target="_top" xlink:title="Compute .">
<polygon fill="white" stroke="#666666" points="464.62,-79.5 355.62,-79.5 355.62,-49 464.62,-49 464.62,-79.5"/>
<text text-anchor="start" x="363.62" y="-66" font-family="Helvetica,sans-Serif" font-size="10.00">ml::maths::common::</text>
<text text-anchor="middle" x="410.12" y="-54.75" font-family="Helvetica,sans-Serif" font-size="10.00">CTools::pow2</text>
</a>
</g>
</g>
<!-- Node2&#45;&gt;Node5 -->
<g id="edge4_Node000002_Node000005" class="edge">
<title>Node2&#45;&gt;Node5</title>
<g id="a_edge4_Node000002_Node000005"><a xlink:title=" ">
<path fill="none" stroke="#63b8ff" d="M306.96,-78.83C319.22,-77.08 332.01,-75.26 344.24,-73.51"/>
<polygon fill="#63b8ff" stroke="#63b8ff" points="344.37,-77.03 353.77,-72.15 343.38,-70.1 344.37,-77.03"/>
</a>
</g>
</g>
<!-- Node6 -->
<g id="Node000006" class="node">
<title>Node6</title>
<g id="a_Node000006"><a xlink:href="../../d0/d1c/classml_1_1maths_1_1common_1_1_c_log_t_distribution.html#a8f03f27080a2f59d3da535b4b4f228ef" target="_top" xlink:title=" ">
<polygon fill="white" stroke="#666666" points="472.12,-30.5 348.12,-30.5 348.12,0 472.12,0 472.12,-30.5"/>
<text text-anchor="start" x="356.12" y="-17" font-family="Helvetica,sans-Serif" font-size="10.00">ml::maths::common::</text>
<text text-anchor="middle" x="410.12" y="-5.75" font-family="Helvetica,sans-Serif" font-size="10.00">CLogTDistribution::scale</text>
</a>
</g>
</g>
<!-- Node2&#45;&gt;Node6 -->
<g id="edge5_Node000002_Node000006" class="edge">
<title>Node2&#45;&gt;Node6</title>
<g id="a_edge5_Node000002_Node000006"><a xlink:title=" ">
<path fill="none" stroke="#63b8ff" d="M261,-78.19C281.31,-68.12 313.78,-52.41 342.5,-40.25 346.61,-38.51 350.88,-36.77 355.19,-35.05"/>
<polygon fill="#63b8ff" stroke="#63b8ff" points="356.46,-38.32 364.5,-31.42 353.91,-31.79 356.46,-38.32"/>
</a>
</g>
</g>
</g>
</svg>
