<?xml version="1.0" encoding="UTF-8" standalone="no"?>
<!DOCTYPE svg PUBLIC "-//W3C//DTD SVG 1.1//EN"
 "http://www.w3.org/Graphics/SVG/1.1/DTD/svg11.dtd">
<!-- Generated by graphviz version 10.0.1 (20240210.2158)
 -->
<!-- Title: Graphical Class Hierarchy Pages: 1 -->
<svg width="475pt" height="223pt"
 viewBox="0.00 0.00 475.25 222.88" xmlns="http://www.w3.org/2000/svg" xmlns:xlink="http://www.w3.org/1999/xlink">
<g id="graph0" class="graph" transform="scale(1 1) rotate(0) translate(4 218.88)">
<title>Graphical Class Hierarchy</title>
<!-- Node0 -->
<g id="Node000000" class="node">
<title>Node0</title>
<g id="a_Node000000"><a xlink:href="d3/d04/classml_1_1api_1_1_c_serializable_to_json_document.html" target="_top" xlink:title="Interface for adding all elements of an inference model definition to a JSON writer.">
<polygon fill="white" stroke="#666666" points="119.5,-116.88 0,-116.88 0,-86.38 119.5,-86.38 119.5,-116.88"/>
<text text-anchor="start" x="8" y="-103.38" font-family="Helvetica,sans-Serif" font-size="10.00">ml::api::CSerializableTo</text>
<text text-anchor="middle" x="59.75" y="-92.12" font-family="Helvetica,sans-Serif" font-size="10.00">JsonDocument</text>
</a>
</g>
</g>
<!-- Node1 -->
<g id="Node000001" class="node">
<title>Node1</title>
<g id="a_Node000001"><a xlink:href="d7/d88/classml_1_1api_1_1_c_encoding_1_1_c_size_info.html" target="_top" xlink:title=" ">
<polygon fill="white" stroke="#666666" points="267.88,-165.88 168.62,-165.88 168.62,-135.38 267.88,-135.38 267.88,-165.88"/>
<text text-anchor="start" x="176.62" y="-152.38" font-family="Helvetica,sans-Serif" font-size="10.00">ml::api::CEncoding</text>
<text text-anchor="middle" x="218.25" y="-141.12" font-family="Helvetica,sans-Serif" font-size="10.00">::CSizeInfo</text>
</a>
</g>
</g>
<!-- Node0&#45;&gt;Node1 -->
<g id="edge145_Node000000_Node000001" class="edge">
<title>Node0&#45;&gt;Node1</title>
<g id="a_edge145_Node000000_Node000001"><a xlink:title=" ">
<path fill="none" stroke="#63b8ff" d="M121.29,-120.58C136.86,-125.45 153.41,-130.64 168.31,-135.3"/>
<polygon fill="#63b8ff" stroke="#63b8ff" points="122.73,-117.36 112.14,-117.72 120.64,-124.04 122.73,-117.36"/>
</a>
</g>
</g>
<!-- Node5 -->
<g id="Node000005" class="node">
<title>Node5</title>
<g id="a_Node000005"><a xlink:href="da/d68/classml_1_1api_1_1_c_inference_model_definition_1_1_c_size_info.html" target="_top" xlink:title=" ">
<polygon fill="white" stroke="#666666" points="281,-116.88 155.5,-116.88 155.5,-86.38 281,-86.38 281,-116.88"/>
<text text-anchor="start" x="163.5" y="-103.38" font-family="Helvetica,sans-Serif" font-size="10.00">ml::api::CInferenceModel</text>
<text text-anchor="middle" x="218.25" y="-92.12" font-family="Helvetica,sans-Serif" font-size="10.00">Definition::CSizeInfo</text>
</a>
</g>
</g>
<!-- Node0&#45;&gt;Node5 -->
<g id="edge149_Node000000_Node000005" class="edge">
<title>Node0&#45;&gt;Node5</title>
<g id="a_edge149_Node000000_Node000005"><a xlink:title=" ">
<path fill="none" stroke="#63b8ff" d="M131.4,-101.62C139.32,-101.62 147.34,-101.62 155.13,-101.62"/>
<polygon fill="#63b8ff" stroke="#63b8ff" points="131.43,-98.13 121.43,-101.63 131.43,-105.13 131.43,-98.13"/>
</a>
</g>
</g>
<!-- Node6 -->
<g id="Node000006" class="node">
<title>Node6</title>
<g id="a_Node000006"><a xlink:href="d6/d83/classml_1_1api_1_1_c_trained_model_1_1_c_size_info.html" target="_top" xlink:title="A measure of the model complexity.">
<polygon fill="white" stroke="#666666" points="276.88,-67.88 159.62,-67.88 159.62,-37.38 276.88,-37.38 276.88,-67.88"/>
<text text-anchor="start" x="167.62" y="-54.38" font-family="Helvetica,sans-Serif" font-size="10.00">ml::api::CTrainedModel</text>
<text text-anchor="middle" x="218.25" y="-43.12" font-family="Helvetica,sans-Serif" font-size="10.00">::CSizeInfo</text>
</a>
</g>
</g>
<!-- Node0&#45;&gt;Node6 -->
<g id="edge150_Node000000_Node000006" class="edge">
<title>Node0&#45;&gt;Node6</title>
<g id="a_edge150_Node000000_Node000006"><a xlink:title=" ">
<path fill="none" stroke="#63b8ff" d="M121.46,-82.62C136.52,-77.9 152.48,-72.9 166.97,-68.37"/>
<polygon fill="#63b8ff" stroke="#63b8ff" points="120.64,-79.21 112.14,-85.53 122.73,-85.89 120.64,-79.21"/>
</a>
</g>
</g>
<!-- Node2 -->
<g id="Node000002" class="node">
<title>Node2</title>
<g id="a_Node000002"><a xlink:href="d2/d3c/classml_1_1api_1_1_c_frequency_encoding_1_1_c_size_info.html" target="_top" xlink:title=" ">
<polygon fill="white" stroke="#666666" points="464.62,-214.88 319.62,-214.88 319.62,-184.38 464.62,-184.38 464.62,-214.88"/>
<text text-anchor="start" x="327.62" y="-201.38" font-family="Helvetica,sans-Serif" font-size="10.00">ml::api::CFrequencyEncoding</text>
<text text-anchor="middle" x="392.12" y="-190.12" font-family="Helvetica,sans-Serif" font-size="10.00">::CSizeInfo</text>
</a>
</g>
</g>
<!-- Node1&#45;&gt;Node2 -->
<g id="edge146_Node000001_Node000002" class="edge">
<title>Node1&#45;&gt;Node2</title>
<g id="a_edge146_Node000001_Node000002"><a xlink:title=" ">
<path fill="none" stroke="#63b8ff" d="M279.03,-167.67C297.59,-172.96 317.95,-178.76 336.16,-183.95"/>
<polygon fill="#63b8ff" stroke="#63b8ff" points="280.07,-164.33 269.5,-164.95 278.16,-171.06 280.07,-164.33"/>
</a>
</g>
</g>
<!-- Node3 -->
<g id="Node000003" class="node">
<title>Node3</title>
<g id="a_Node000003"><a xlink:href="dd/d10/classml_1_1api_1_1_c_one_hot_encoding_1_1_c_size_info.html" target="_top" xlink:title=" ">
<polygon fill="white" stroke="#666666" points="458.62,-165.88 325.62,-165.88 325.62,-135.38 458.62,-135.38 458.62,-165.88"/>
<text text-anchor="start" x="333.62" y="-152.38" font-family="Helvetica,sans-Serif" font-size="10.00">ml::api::COneHotEncoding</text>
<text text-anchor="middle" x="392.12" y="-141.12" font-family="Helvetica,sans-Serif" font-size="10.00">::CSizeInfo</text>
</a>
</g>
</g>
<!-- Node1&#45;&gt;Node3 -->
<g id="edge147_Node000001_Node000003" class="edge">
<title>Node1&#45;&gt;Node3</title>
<g id="a_edge147_Node000001_Node000003"><a xlink:title=" ">
<path fill="none" stroke="#63b8ff" d="M279.16,-150.62C294.03,-150.62 310.06,-150.62 325.2,-150.62"/>
<polygon fill="#63b8ff" stroke="#63b8ff" points="279.56,-147.13 269.56,-150.63 279.56,-154.13 279.56,-147.13"/>
</a>
</g>
</g>
<!-- Node4 -->
<g id="Node000004" class="node">
<title>Node4</title>
<g id="a_Node000004"><a xlink:href="dd/db4/classml_1_1api_1_1_c_target_mean_encoding_1_1_c_size_info.html" target="_top" xlink:title=" ">
<polygon fill="white" stroke="#666666" points="467.25,-116.88 317,-116.88 317,-86.38 467.25,-86.38 467.25,-116.88"/>
<text text-anchor="start" x="325" y="-103.38" font-family="Helvetica,sans-Serif" font-size="10.00">ml::api::CTargetMeanEncoding</text>
<text text-anchor="middle" x="392.12" y="-92.12" font-family="Helvetica,sans-Serif" font-size="10.00">::CSizeInfo</text>
</a>
</g>
</g>
<!-- Node1&#45;&gt;Node4 -->
<g id="edge148_Node000001_Node000004" class="edge">
<title>Node1&#45;&gt;Node4</title>
<g id="a_edge148_Node000001_Node000004"><a xlink:title=" ">
<path fill="none" stroke="#63b8ff" d="M279.03,-133.58C297.59,-128.29 317.95,-122.49 336.16,-117.3"/>
<polygon fill="#63b8ff" stroke="#63b8ff" points="278.16,-130.19 269.5,-136.3 280.07,-136.92 278.16,-130.19"/>
</a>
</g>
</g>
<!-- Node7 -->
<g id="Node000007" class="node">
<title>Node7</title>
<g id="a_Node000007"><a xlink:href="d8/d79/classml_1_1api_1_1_c_ensemble_1_1_c_size_info.html" target="_top" xlink:title=" ">
<polygon fill="white" stroke="#666666" points="443.25,-67.88 341,-67.88 341,-37.38 443.25,-37.38 443.25,-67.88"/>
<text text-anchor="start" x="349" y="-54.38" font-family="Helvetica,sans-Serif" font-size="10.00">ml::api::CEnsemble</text>
<text text-anchor="middle" x="392.12" y="-43.12" font-family="Helvetica,sans-Serif" font-size="10.00">::CSizeInfo</text>
</a>
</g>
</g>
<!-- Node6&#45;&gt;Node7 -->
<g id="edge151_Node000006_Node000007" class="edge">
<title>Node6&#45;&gt;Node7</title>
<g id="a_edge151_Node000006_Node000007"><a xlink:title=" ">
<path fill="none" stroke="#63b8ff" d="M288.31,-52.62C305.85,-52.62 324.36,-52.62 340.77,-52.62"/>
<polygon fill="#63b8ff" stroke="#63b8ff" points="288.47,-49.13 278.47,-52.63 288.47,-56.13 288.47,-49.13"/>
</a>
</g>
</g>
<!-- Node8 -->
<g id="Node000008" class="node">
<title>Node8</title>
<g id="a_Node000008"><a xlink:href="d1/df7/classml_1_1api_1_1_c_tree_1_1_c_size_info.html" target="_top" xlink:title=" ">
<polygon fill="white" stroke="#666666" points="456,-19.25 328.25,-19.25 328.25,0 456,0 456,-19.25"/>
<text text-anchor="middle" x="392.12" y="-5.75" font-family="Helvetica,sans-Serif" font-size="10.00">ml::api::CTree::CSizeInfo</text>
</a>
</g>
</g>
<!-- Node6&#45;&gt;Node8 -->
<g id="edge152_Node000006_Node000008" class="edge">
<title>Node6&#45;&gt;Node8</title>
<g id="a_edge152_Node000006_Node000008"><a xlink:title=" ">
<path fill="none" stroke="#63b8ff" d="M287.92,-35.44C309.2,-30.12 331.95,-24.43 350.66,-19.75"/>
<polygon fill="#63b8ff" stroke="#63b8ff" points="287.28,-32 278.43,-37.82 288.98,-38.79 287.28,-32"/>
</a>
</g>
</g>
</g>
</svg>
