<?xml version="1.0" encoding="UTF-8" standalone="no"?>
<!DOCTYPE svg PUBLIC "-//W3C//DTD SVG 1.1//EN"
 "http://www.w3.org/Graphics/SVG/1.1/DTD/svg11.dtd">
<!-- Generated by graphviz version 10.0.1 (20240210.2158)
 -->
<!-- Title: Graphical Class Hierarchy Pages: 1 -->
<svg width="346pt" height="88pt"
 viewBox="0.00 0.00 346.00 87.50" xmlns="http://www.w3.org/2000/svg" xmlns:xlink="http://www.w3.org/1999/xlink">
<g id="graph0" class="graph" transform="scale(1 1) rotate(0) translate(4 83.5)">
<title>Graphical Class Hierarchy</title>
<!-- Node0 -->
<g id="Node000000" class="node">
<title>Node0</title>
<g id="a_Node000000"><a xlink:href="db/d66/classml_1_1core_1_1_c_data_frame_row_slice.html" target="_top" xlink:title="CDataFrame slice storage interface.">
<polygon fill="white" stroke="#666666" points="155.5,-48.88 0,-48.88 0,-29.62 155.5,-29.62 155.5,-48.88"/>
<text text-anchor="middle" x="77.75" y="-35.38" font-family="Helvetica,sans-Serif" font-size="10.00">ml::core::CDataFrameRowSlice</text>
</a>
</g>
</g>
<!-- Node1 -->
<g id="Node000001" class="node">
<title>Node1</title>
<g id="a_Node000001"><a xlink:href="d0/dc1/classml_1_1core_1_1_c_main_memory_data_frame_row_slice.html" target="_top" xlink:title="In main memory CDataFrame slice storage.">
<polygon fill="white" stroke="#666666" points="335.75,-79.5 193.75,-79.5 193.75,-49 335.75,-49 335.75,-79.5"/>
<text text-anchor="start" x="201.75" y="-66" font-family="Helvetica,sans-Serif" font-size="10.00">ml::core::CMainMemoryData</text>
<text text-anchor="middle" x="264.75" y="-54.75" font-family="Helvetica,sans-Serif" font-size="10.00">FrameRowSlice</text>
</a>
</g>
</g>
<!-- Node0&#45;&gt;Node1 -->
<g id="edge160_Node000000_Node000001" class="edge">
<title>Node0&#45;&gt;Node1</title>
<g id="a_edge160_Node000000_Node000001"><a xlink:title=" ">
<path fill="none" stroke="#63b8ff" d="M164.64,-50.86C174.22,-52.15 183.9,-53.46 193.25,-54.72"/>
<polygon fill="#63b8ff" stroke="#63b8ff" points="165.34,-47.42 154.96,-49.55 164.4,-54.36 165.34,-47.42"/>
</a>
</g>
</g>
<!-- Node2 -->
<g id="Node000002" class="node">
<title>Node2</title>
<g id="a_Node000002"><a xlink:href="d0/dc6/classml_1_1core_1_1_c_on_disk_data_frame_row_slice.html" target="_top" xlink:title="On disk CDataFrame slice storage.">
<polygon fill="white" stroke="#666666" points="338,-30.5 191.5,-30.5 191.5,0 338,0 338,-30.5"/>
<text text-anchor="start" x="199.5" y="-17" font-family="Helvetica,sans-Serif" font-size="10.00">ml::core::COnDiskDataFrame</text>
<text text-anchor="middle" x="264.75" y="-5.75" font-family="Helvetica,sans-Serif" font-size="10.00">RowSlice</text>
</a>
</g>
</g>
<!-- Node0&#45;&gt;Node2 -->
<g id="edge161_Node000000_Node000002" class="edge">
<title>Node0&#45;&gt;Node2</title>
<g id="a_edge161_Node000000_Node000002"><a xlink:title=" ">
<path fill="none" stroke="#63b8ff" d="M167.19,-27.78C175.23,-26.73 183.32,-25.68 191.2,-24.66"/>
<polygon fill="#63b8ff" stroke="#63b8ff" points="166.83,-24.29 157.37,-29.05 167.74,-31.24 166.83,-24.29"/>
</a>
</g>
</g>
</g>
</svg>
