<?xml version="1.0" encoding="UTF-8" standalone="no"?>
<!DOCTYPE svg PUBLIC "-//W3C//DTD SVG 1.1//EN"
 "http://www.w3.org/Graphics/SVG/1.1/DTD/svg11.dtd">
<!-- Generated by graphviz version 10.0.1 (20240210.2158)
 -->
<!-- Title: Graphical Class Hierarchy Pages: 1 -->
<svg width="495pt" height="566pt"
 viewBox="0.00 0.00 494.75 566.25" xmlns="http://www.w3.org/2000/svg" xmlns:xlink="http://www.w3.org/1999/xlink">
<g id="graph0" class="graph" transform="scale(1 1) rotate(0) translate(4 562.25)">
<title>Graphical Class Hierarchy</title>
<!-- Node0 -->
<g id="Node000000" class="node">
<title>Node0</title>
<g id="a_Node000000"><a xlink:href="d2/d95/structml_1_1api_1_1_c_data_summarization_json_tags.html" target="_top" xlink:title="Shared tags used by the JSON data summarization object.">
<polygon fill="white" stroke="#666666" points="300.5,-351.88 155.5,-351.88 155.5,-321.38 300.5,-321.38 300.5,-351.88"/>
<text text-anchor="start" x="163.5" y="-338.38" font-family="Helvetica,sans-Serif" font-size="10.00">ml::api::CDataSummarization</text>
<text text-anchor="middle" x="228" y="-327.12" font-family="Helvetica,sans-Serif" font-size="10.00">JsonTags</text>
</a>
</g>
</g>
<!-- Node1 -->
<g id="Node000001" class="node">
<title>Node1</title>
<g id="a_Node000001"><a xlink:href="d7/d1e/classml_1_1api_1_1_c_data_summarization_json_writer.html" target="_top" xlink:title="Writes the data summarization as a compressed, base64 encoded and chunked JSON blob.">
<polygon fill="white" stroke="#666666" points="484.12,-286.88 339.12,-286.88 339.12,-256.38 484.12,-256.38 484.12,-286.88"/>
<text text-anchor="start" x="347.12" y="-273.38" font-family="Helvetica,sans-Serif" font-size="10.00">ml::api::CDataSummarization</text>
<text text-anchor="middle" x="411.62" y="-262.12" font-family="Helvetica,sans-Serif" font-size="10.00">JsonWriter</text>
</a>
</g>
</g>
<!-- Node0&#45;&gt;Node1 -->
<g id="edge118_Node000000_Node000001" class="edge">
<title>Node0&#45;&gt;Node1</title>
<g id="a_edge118_Node000000_Node000001"><a xlink:title=" ">
<path fill="none" stroke="#63b8ff" d="M286.03,-317.02C290.94,-315.23 295.81,-313.42 300.5,-311.62 316.69,-305.43 320.28,-302.73 336.5,-296.62 344.89,-293.47 353.88,-290.28 362.6,-287.28"/>
<polygon fill="#63b8ff" stroke="#63b8ff" points="284.95,-313.69 276.72,-320.37 287.32,-320.28 284.95,-313.69"/>
</a>
</g>
</g>
<!-- Node5 -->
<g id="Node000005" class="node">
<title>Node5</title>
<g id="a_Node000005"><a xlink:href="d8/d21/classml_1_1api_1_1_c_retrainable_model_json_reader.html" target="_top" xlink:title="Reads a compressed, base64 encoded chunked JSON representation of a data summarisation and an inferen...">
<polygon fill="white" stroke="#666666" points="478.88,-335.88 344.38,-335.88 344.38,-305.38 478.88,-305.38 478.88,-335.88"/>
<text text-anchor="start" x="352.38" y="-322.38" font-family="Helvetica,sans-Serif" font-size="10.00">ml::api::CRetrainableModel</text>
<text text-anchor="middle" x="411.62" y="-311.12" font-family="Helvetica,sans-Serif" font-size="10.00">JsonReader</text>
</a>
</g>
</g>
<!-- Node0&#45;&gt;Node5 -->
<g id="edge119_Node000000_Node000005" class="edge">
<title>Node0&#45;&gt;Node5</title>
<g id="a_edge119_Node000000_Node000005"><a xlink:title=" ">
<path fill="none" stroke="#63b8ff" d="M311.93,-329.32C322.71,-328.37 333.63,-327.41 344.09,-326.49"/>
<polygon fill="#63b8ff" stroke="#63b8ff" points="311.94,-325.8 302.29,-330.17 312.56,-332.78 311.94,-325.8"/>
</a>
</g>
</g>
<!-- Node4 -->
<g id="Node000004" class="node">
<title>Node4</title>
<g id="a_Node000004"><a xlink:href="d9/d33/classml_1_1api_1_1_c_serializable_from_compressed_chunked_json.html" target="_top" xlink:title="Utility for reading the inference model and training data summarization JSON descriptions from a stre...">
<polygon fill="white" stroke="#666666" points="293.75,-302.88 162.25,-302.88 162.25,-272.38 293.75,-272.38 293.75,-302.88"/>
<text text-anchor="start" x="170.25" y="-289.38" font-family="Helvetica,sans-Serif" font-size="10.00">ml::api::CSerializableFrom</text>
<text text-anchor="middle" x="228" y="-278.12" font-family="Helvetica,sans-Serif" font-size="10.00">CompressedChunkedJson</text>
</a>
</g>
</g>
<!-- Node4&#45;&gt;Node5 -->
<g id="edge121_Node000004_Node000005" class="edge">
<title>Node4&#45;&gt;Node5</title>
<g id="a_edge121_Node000004_Node000005"><a xlink:title=" ">
<path fill="none" stroke="#8b1a1a" d="M305.21,-301.47C318.06,-303.81 331.3,-306.21 343.88,-308.5"/>
<polygon fill="#8b1a1a" stroke="#8b1a1a" points="306.01,-298.06 295.55,-299.72 304.76,-304.95 306.01,-298.06"/>
</a>
</g>
</g>
<!-- Node3 -->
<g id="Node000003" class="node">
<title>Node3</title>
<g id="a_Node000003"><a xlink:href="de/d1d/classanonymous__namespace_02_c_serializable_to_json_test_8cc_03_1_1_c_serializable_vector.html" target="_top" xlink:title=" ">
<polygon fill="white" stroke="#666666" points="483.38,-238.5 339.88,-238.5 339.88,-196.75 483.38,-196.75 483.38,-238.5"/>
<text text-anchor="start" x="347.88" y="-225" font-family="Helvetica,sans-Serif" font-size="10.00">anonymous_namespace</text>
<text text-anchor="start" x="347.88" y="-213.75" font-family="Helvetica,sans-Serif" font-size="10.00">{CSerializableToJsonTest.cc}</text>
<text text-anchor="middle" x="411.62" y="-202.5" font-family="Helvetica,sans-Serif" font-size="10.00">::CSerializableVector</text>
</a>
</g>
</g>
<!-- Node4&#45;&gt;Node3 -->
<g id="edge120_Node000004_Node000003" class="edge">
<title>Node4&#45;&gt;Node3</title>
<g id="a_edge120_Node000004_Node000003"><a xlink:title=" ">
<path fill="none" stroke="#63b8ff" d="M288.51,-268.13C292.58,-266.65 296.61,-265.14 300.5,-263.62 316.82,-257.28 320.38,-254.47 336.5,-247.62 343.27,-244.75 350.42,-241.78 357.49,-238.88"/>
<polygon fill="#63b8ff" stroke="#63b8ff" points="287.36,-264.82 279.11,-271.46 289.7,-271.42 287.36,-264.82"/>
</a>
</g>
</g>
<!-- Node7 -->
<g id="Node000007" class="node">
<title>Node7</title>
<g id="a_Node000007"><a xlink:href="d6/d00/classml_1_1api_1_1_c_serializable_to_json_stream.html" target="_top" xlink:title="Interface for writing the inference model defition JSON description to a stream.">
<polygon fill="white" stroke="#666666" points="119.5,-326.88 0,-326.88 0,-296.38 119.5,-296.38 119.5,-326.88"/>
<text text-anchor="start" x="8" y="-313.38" font-family="Helvetica,sans-Serif" font-size="10.00">ml::api::CSerializableTo</text>
<text text-anchor="middle" x="59.75" y="-302.12" font-family="Helvetica,sans-Serif" font-size="10.00">JsonStream</text>
</a>
</g>
</g>
<!-- Node8 -->
<g id="Node000008" class="node">
<title>Node8</title>
<g id="a_Node000008"><a xlink:href="d4/d10/classml_1_1api_1_1_c_aggregate_output.html" target="_top" xlink:title="Abstract class for output aggregation.">
<polygon fill="white" stroke="#666666" points="294.12,-93.25 161.88,-93.25 161.88,-74 294.12,-74 294.12,-93.25"/>
<text text-anchor="middle" x="228" y="-79.75" font-family="Helvetica,sans-Serif" font-size="10.00">ml::api::CAggregateOutput</text>
</a>
</g>
</g>
<!-- Node7&#45;&gt;Node8 -->
<g id="edge122_Node000007_Node000008" class="edge">
<title>Node7&#45;&gt;Node8</title>
<g id="a_edge122_Node000007_Node000008"><a xlink:title=" ">
<path fill="none" stroke="#63b8ff" d="M77.7,-287.12C96.46,-260.11 127.73,-215.48 155.5,-177.62 178.18,-146.71 205.88,-110.8 219.16,-93.69"/>
<polygon fill="#63b8ff" stroke="#63b8ff" points="75.06,-284.77 72.24,-294.98 80.82,-288.76 75.06,-284.77"/>
</a>
</g>
</g>
<!-- Node13 -->
<g id="Node000013" class="node">
<title>Node13</title>
<g id="a_Node000013"><a xlink:href="d8/d06/classml_1_1api_1_1_c_custom_encoding.html" target="_top" xlink:title=" ">
<polygon fill="white" stroke="#666666" points="294.88,-539.25 161.12,-539.25 161.12,-520 294.88,-520 294.88,-539.25"/>
<text text-anchor="middle" x="228" y="-525.75" font-family="Helvetica,sans-Serif" font-size="10.00">ml::api::CCustomEncoding</text>
</a>
</g>
</g>
<!-- Node7&#45;&gt;Node13 -->
<g id="edge127_Node000007_Node000013" class="edge">
<title>Node7&#45;&gt;Node13</title>
<g id="a_edge127_Node000007_Node000013"><a xlink:title=" ">
<path fill="none" stroke="#63b8ff" d="M72.04,-337.74C87.54,-371.71 117.85,-431.76 155.5,-474.62 171.73,-493.1 194.94,-509.6 210.47,-519.6"/>
<polygon fill="#63b8ff" stroke="#63b8ff" points="75.25,-336.36 67.97,-328.66 68.87,-339.22 75.25,-336.36"/>
</a>
</g>
</g>
<!-- Node15 -->
<g id="Node000015" class="node">
<title>Node15</title>
<g id="a_Node000015"><a xlink:href="d7/d50/classml_1_1api_1_1_c_encoding.html" target="_top" xlink:title=" ">
<polygon fill="white" stroke="#666666" points="277.62,-465.25 178.38,-465.25 178.38,-446 277.62,-446 277.62,-465.25"/>
<text text-anchor="middle" x="228" y="-451.75" font-family="Helvetica,sans-Serif" font-size="10.00">ml::api::CEncoding</text>
</a>
</g>
</g>
<!-- Node7&#45;&gt;Node15 -->
<g id="edge129_Node000007_Node000015" class="edge">
<title>Node7&#45;&gt;Node15</title>
<g id="a_edge129_Node000007_Node000015"><a xlink:title=" ">
<path fill="none" stroke="#63b8ff" d="M85.19,-334.94C104.08,-352.74 131.04,-377.69 155.5,-398.62 175.4,-415.66 199.35,-434.41 213.86,-445.59"/>
<polygon fill="#63b8ff" stroke="#63b8ff" points="87.64,-332.44 77.97,-328.11 82.83,-337.52 87.64,-332.44"/>
</a>
</g>
</g>
<!-- Node2 -->
<g id="Node000002" class="node">
<title>Node2</title>
<g id="a_Node000002"><a xlink:href="d3/d07/classml_1_1api_1_1_c_serializable_to_compressed_chunked_json.html" target="_top" xlink:title="Interface for writing the inference model and training data summarization JSON descriptions to a stre...">
<polygon fill="white" stroke="#666666" points="293.75,-216.88 162.25,-216.88 162.25,-186.38 293.75,-186.38 293.75,-216.88"/>
<text text-anchor="start" x="170.25" y="-203.38" font-family="Helvetica,sans-Serif" font-size="10.00">ml::api::CSerializableTo</text>
<text text-anchor="middle" x="228" y="-192.12" font-family="Helvetica,sans-Serif" font-size="10.00">CompressedChunkedJson</text>
</a>
</g>
</g>
<!-- Node7&#45;&gt;Node2 -->
<g id="edge133_Node000007_Node000002" class="edge">
<title>Node7&#45;&gt;Node2</title>
<g id="a_edge133_Node000007_Node000002"><a xlink:title=" ">
<path fill="none" stroke="#63b8ff" d="M81.79,-287.69C99.72,-268.57 127.05,-242.31 155.5,-225.62 160.81,-222.51 166.58,-219.73 172.46,-217.27"/>
<polygon fill="#63b8ff" stroke="#63b8ff" points="79.22,-285.32 75.04,-295.05 84.38,-290.05 79.22,-285.32"/>
</a>
</g>
</g>
<!-- Node19 -->
<g id="Node000019" class="node">
<title>Node19</title>
<g id="a_Node000019"><a xlink:href="d9/dcd/classml_1_1api_1_1_c_trained_model.html" target="_top" xlink:title=" ">
<polygon fill="white" stroke="#666666" points="286.62,-389.25 169.38,-389.25 169.38,-370 286.62,-370 286.62,-389.25"/>
<text text-anchor="middle" x="228" y="-375.75" font-family="Helvetica,sans-Serif" font-size="10.00">ml::api::CTrainedModel</text>
</a>
</g>
</g>
<!-- Node7&#45;&gt;Node19 -->
<g id="edge137_Node000007_Node000019" class="edge">
<title>Node7&#45;&gt;Node19</title>
<g id="a_edge137_Node000007_Node000019"><a xlink:title=" ">
<path fill="none" stroke="#63b8ff" d="M96.7,-332.57C114.06,-342.06 135.43,-352.87 155.5,-360.62 164.25,-364 173.82,-367 183.03,-369.56"/>
<polygon fill="#63b8ff" stroke="#63b8ff" points="98.75,-329.7 88.31,-327.9 95.34,-335.82 98.75,-329.7"/>
</a>
</g>
</g>
<!-- Node22 -->
<g id="Node000022" class="node">
<title>Node22</title>
<g id="a_Node000022"><a xlink:href="d0/ddc/classml_1_1api_1_1_c_tree_1_1_c_tree_node.html" target="_top" xlink:title=" ">
<polygon fill="white" stroke="#666666" points="295.25,-254.25 160.75,-254.25 160.75,-235 295.25,-235 295.25,-254.25"/>
<text text-anchor="middle" x="228" y="-240.75" font-family="Helvetica,sans-Serif" font-size="10.00">ml::api::CTree::CTreeNode</text>
</a>
</g>
</g>
<!-- Node7&#45;&gt;Node22 -->
<g id="edge140_Node000007_Node000022" class="edge">
<title>Node7&#45;&gt;Node22</title>
<g id="a_edge140_Node000007_Node000022"><a xlink:title=" ">
<path fill="none" stroke="#63b8ff" d="M97.5,-290.74C114.73,-281.55 135.77,-271.15 155.5,-263.62 164.26,-260.28 173.84,-257.3 183.06,-254.75"/>
<polygon fill="#63b8ff" stroke="#63b8ff" points="96.29,-287.42 89.17,-295.27 99.62,-293.57 96.29,-287.42"/>
</a>
</g>
</g>
<!-- Node9 -->
<g id="Node000009" class="node">
<title>Node9</title>
<g id="a_Node000009"><a xlink:href="d6/d38/classml_1_1api_1_1_c_exponent.html" target="_top" xlink:title="Exponent aggregation.">
<polygon fill="white" stroke="#666666" points="461.62,-56.25 361.62,-56.25 361.62,-37 461.62,-37 461.62,-56.25"/>
<text text-anchor="middle" x="411.62" y="-42.75" font-family="Helvetica,sans-Serif" font-size="10.00">ml::api::CExponent</text>
</a>
</g>
</g>
<!-- Node8&#45;&gt;Node9 -->
<g id="edge123_Node000008_Node000009" class="edge">
<title>Node8&#45;&gt;Node9</title>
<g id="a_edge123_Node000008_Node000009"><a xlink:title=" ">
<path fill="none" stroke="#63b8ff" d="M289.79,-71.24C313.06,-66.5 339.3,-61.15 361.37,-56.66"/>
<polygon fill="#63b8ff" stroke="#63b8ff" points="289.21,-67.79 280.11,-73.21 290.61,-74.65 289.21,-67.79"/>
</a>
</g>
</g>
<!-- Node10 -->
<g id="Node000010" class="node">
<title>Node10</title>
<g id="a_Node000010"><a xlink:href="d3/d35/classml_1_1api_1_1_c_logistic_regression.html" target="_top" xlink:title="Logistic regression aggregation.">
<polygon fill="white" stroke="#666666" points="482.62,-19.25 340.62,-19.25 340.62,0 482.62,0 482.62,-19.25"/>
<text text-anchor="middle" x="411.62" y="-5.75" font-family="Helvetica,sans-Serif" font-size="10.00">ml::api::CLogisticRegression</text>
</a>
</g>
</g>
<!-- Node8&#45;&gt;Node10 -->
<g id="edge124_Node000008_Node000010" class="edge">
<title>Node8&#45;&gt;Node10</title>
<g id="a_edge124_Node000008_Node000010"><a xlink:title=" ">
<path fill="none" stroke="#63b8ff" d="M255.06,-67.76C276.33,-55.38 307.51,-38.51 336.5,-27.62 344.56,-24.6 353.3,-21.95 361.87,-19.68"/>
<polygon fill="#63b8ff" stroke="#63b8ff" points="253.31,-64.73 246.48,-72.83 256.87,-70.76 253.31,-64.73"/>
</a>
</g>
</g>
<!-- Node11 -->
<g id="Node000011" class="node">
<title>Node11</title>
<g id="a_Node000011"><a xlink:href="dc/ddd/classml_1_1api_1_1_c_weighted_mode.html" target="_top" xlink:title="Allows to use (weighted) majority vote for classification.">
<polygon fill="white" stroke="#666666" points="473.25,-130.25 350,-130.25 350,-111 473.25,-111 473.25,-130.25"/>
<text text-anchor="middle" x="411.62" y="-116.75" font-family="Helvetica,sans-Serif" font-size="10.00">ml::api::CWeightedMode</text>
</a>
</g>
</g>
<!-- Node8&#45;&gt;Node11 -->
<g id="edge125_Node000008_Node000011" class="edge">
<title>Node8&#45;&gt;Node11</title>
<g id="a_edge125_Node000008_Node000011"><a xlink:title=" ">
<path fill="none" stroke="#63b8ff" d="M289.74,-96C312.92,-100.72 339.04,-106.04 361.06,-110.53"/>
<polygon fill="#63b8ff" stroke="#63b8ff" points="290.61,-92.6 280.11,-94.04 289.21,-99.46 290.61,-92.6"/>
</a>
</g>
</g>
<!-- Node12 -->
<g id="Node000012" class="node">
<title>Node12</title>
<g id="a_Node000012"><a xlink:href="d2/d7a/classml_1_1api_1_1_c_weighted_sum.html" target="_top" xlink:title="Allows to use (weighted) sum for regression.">
<polygon fill="white" stroke="#666666" points="471.38,-93.25 351.88,-93.25 351.88,-74 471.38,-74 471.38,-93.25"/>
<text text-anchor="middle" x="411.62" y="-79.75" font-family="Helvetica,sans-Serif" font-size="10.00">ml::api::CWeightedSum</text>
</a>
</g>
</g>
<!-- Node8&#45;&gt;Node12 -->
<g id="edge126_Node000008_Node000012" class="edge">
<title>Node8&#45;&gt;Node12</title>
<g id="a_edge126_Node000008_Node000012"><a xlink:title=" ">
<path fill="none" stroke="#63b8ff" d="M306.06,-83.62C321.26,-83.62 336.99,-83.62 351.48,-83.62"/>
<polygon fill="#63b8ff" stroke="#63b8ff" points="306.08,-80.13 296.08,-83.63 306.08,-87.13 306.08,-80.13"/>
</a>
</g>
</g>
<!-- Node14 -->
<g id="Node000014" class="node">
<title>Node14</title>
<g id="a_Node000014"><a xlink:href="d0/d62/classml_1_1api_1_1_c_opaque_encoding.html" target="_top" xlink:title="A JSON blob defining a custom encoding or an array of custom encodings.">
<polygon fill="white" stroke="#666666" points="478.12,-558.25 345.12,-558.25 345.12,-539 478.12,-539 478.12,-558.25"/>
<text text-anchor="middle" x="411.62" y="-544.75" font-family="Helvetica,sans-Serif" font-size="10.00">ml::api::COpaqueEncoding</text>
</a>
</g>
</g>
<!-- Node13&#45;&gt;Node14 -->
<g id="edge128_Node000013_Node000014" class="edge">
<title>Node13&#45;&gt;Node14</title>
<g id="a_edge128_Node000013_Node000014"><a xlink:title=" ">
<path fill="none" stroke="#63b8ff" d="M306.44,-537.73C319.2,-539.06 332.32,-540.43 344.77,-541.74"/>
<polygon fill="#63b8ff" stroke="#63b8ff" points="307.16,-534.28 296.85,-536.72 306.43,-541.24 307.16,-534.28"/>
</a>
</g>
</g>
<!-- Node16 -->
<g id="Node000016" class="node">
<title>Node16</title>
<g id="a_Node000016"><a xlink:href="d7/d76/classml_1_1api_1_1_c_frequency_encoding.html" target="_top" xlink:title="Mapping from categorical columns to numerical values related to categorical value distribution.">
<polygon fill="white" stroke="#666666" points="484.12,-447.25 339.12,-447.25 339.12,-428 484.12,-428 484.12,-447.25"/>
<text text-anchor="middle" x="411.62" y="-433.75" font-family="Helvetica,sans-Serif" font-size="10.00">ml::api::CFrequencyEncoding</text>
</a>
</g>
</g>
<!-- Node15&#45;&gt;Node16 -->
<g id="edge130_Node000015_Node000016" class="edge">
<title>Node15&#45;&gt;Node16</title>
<g id="a_edge130_Node000015_Node000016"><a xlink:title=" ">
<path fill="none" stroke="#63b8ff" d="M289.01,-449.68C304.99,-448.09 322.4,-446.37 338.93,-444.73"/>
<polygon fill="#63b8ff" stroke="#63b8ff" points="288.78,-446.18 279.18,-450.65 289.47,-453.15 288.78,-446.18"/>
</a>
</g>
</g>
<!-- Node17 -->
<g id="Node000017" class="node">
<title>Node17</title>
<g id="a_Node000017"><a xlink:href="d9/d6f/classml_1_1api_1_1_c_one_hot_encoding.html" target="_top" xlink:title="Application of the one&#45;hot encoding function on a single column.">
<polygon fill="white" stroke="#666666" points="478.12,-521.25 345.12,-521.25 345.12,-502 478.12,-502 478.12,-521.25"/>
<text text-anchor="middle" x="411.62" y="-507.75" font-family="Helvetica,sans-Serif" font-size="10.00">ml::api::COneHotEncoding</text>
</a>
</g>
</g>
<!-- Node15&#45;&gt;Node17 -->
<g id="edge131_Node000015_Node000017" class="edge">
<title>Node15&#45;&gt;Node17</title>
<g id="a_edge131_Node000015_Node000017"><a xlink:title=" ">
<path fill="none" stroke="#63b8ff" d="M265.37,-469.52C286.05,-477.16 312.54,-486.5 336.5,-493.62 345.89,-496.42 356.05,-499.1 365.74,-501.5"/>
<polygon fill="#63b8ff" stroke="#63b8ff" points="266.84,-466.33 256.24,-466.11 264.39,-472.89 266.84,-466.33"/>
</a>
</g>
</g>
<!-- Node18 -->
<g id="Node000018" class="node">
<title>Node18</title>
<g id="a_Node000018"><a xlink:href="d9/d32/classml_1_1api_1_1_c_target_mean_encoding.html" target="_top" xlink:title="Mapping from categorical columns to numerical values related to the target value.">
<polygon fill="white" stroke="#666666" points="486.75,-484.25 336.5,-484.25 336.5,-465 486.75,-465 486.75,-484.25"/>
<text text-anchor="middle" x="411.62" y="-470.75" font-family="Helvetica,sans-Serif" font-size="10.00">ml::api::CTargetMeanEncoding</text>
</a>
</g>
</g>
<!-- Node15&#45;&gt;Node18 -->
<g id="edge132_Node000015_Node000018" class="edge">
<title>Node15&#45;&gt;Node18</title>
<g id="a_edge132_Node000015_Node000018"><a xlink:title=" ">
<path fill="none" stroke="#63b8ff" d="M288.94,-461.9C304.04,-463.48 320.44,-465.19 336.17,-466.84"/>
<polygon fill="#63b8ff" stroke="#63b8ff" points="289.49,-458.43 279.18,-460.87 288.76,-465.4 289.49,-458.43"/>
</a>
</g>
</g>
<!-- Node2&#45;&gt;Node1 -->
<g id="edge135_Node000002_Node000001" class="edge">
<title>Node2&#45;&gt;Node1</title>
<g id="a_edge135_Node000002_Node000001"><a xlink:title=" ">
<path fill="none" stroke="#63b8ff" d="M290.91,-221.43C294.18,-222.78 297.4,-224.18 300.5,-225.62 317.5,-233.55 319.46,-239.79 336.5,-247.62 343.01,-250.62 350.01,-253.4 357,-255.93"/>
<polygon fill="#63b8ff" stroke="#63b8ff" points="292.33,-218.22 281.74,-217.84 289.78,-224.74 292.33,-218.22"/>
</a>
</g>
</g>
<!-- Node2&#45;&gt;Node3 -->
<g id="edge134_Node000002_Node000003" class="edge">
<title>Node2&#45;&gt;Node3</title>
<g id="a_edge134_Node000002_Node000003"><a xlink:title=" ">
<path fill="none" stroke="#63b8ff" d="M305.29,-208.35C316.64,-209.35 328.31,-210.37 339.56,-211.36"/>
<polygon fill="#63b8ff" stroke="#63b8ff" points="305.83,-204.88 295.57,-207.49 305.22,-211.85 305.83,-204.88"/>
</a>
</g>
</g>
<!-- Node6 -->
<g id="Node000006" class="node">
<title>Node6</title>
<g id="a_Node000006"><a xlink:href="d3/dc0/classml_1_1api_1_1_c_inference_model_definition.html" target="_top" xlink:title="Technical details required for model evaluation.">
<polygon fill="white" stroke="#666666" points="474.38,-178.88 348.88,-178.88 348.88,-148.38 474.38,-148.38 474.38,-178.88"/>
<text text-anchor="start" x="356.88" y="-165.38" font-family="Helvetica,sans-Serif" font-size="10.00">ml::api::CInferenceModel</text>
<text text-anchor="middle" x="411.62" y="-154.12" font-family="Helvetica,sans-Serif" font-size="10.00">Definition</text>
</a>
</g>
</g>
<!-- Node2&#45;&gt;Node6 -->
<g id="edge136_Node000002_Node000006" class="edge">
<title>Node2&#45;&gt;Node6</title>
<g id="a_edge136_Node000002_Node000006"><a xlink:title=" ">
<path fill="none" stroke="#63b8ff" d="M305,-185.72C319.48,-182.7 334.47,-179.56 348.45,-176.63"/>
<polygon fill="#63b8ff" stroke="#63b8ff" points="304.61,-182.23 295.54,-187.7 306.04,-189.08 304.61,-182.23"/>
</a>
</g>
</g>
<!-- Node20 -->
<g id="Node000020" class="node">
<title>Node20</title>
<g id="a_Node000020"><a xlink:href="da/d46/classml_1_1api_1_1_c_ensemble.html" target="_top" xlink:title="Ensemble of a collection of trained models.">
<polygon fill="white" stroke="#666666" points="462.75,-373.25 360.5,-373.25 360.5,-354 462.75,-354 462.75,-373.25"/>
<text text-anchor="middle" x="411.62" y="-359.75" font-family="Helvetica,sans-Serif" font-size="10.00">ml::api::CEnsemble</text>
</a>
</g>
</g>
<!-- Node19&#45;&gt;Node20 -->
<g id="edge138_Node000019_Node000020" class="edge">
<title>Node19&#45;&gt;Node20</title>
<g id="a_edge138_Node000019_Node000020"><a xlink:title=" ">
<path fill="none" stroke="#63b8ff" d="M298.23,-373.53C318.86,-371.71 341.06,-369.75 360.24,-368.06"/>
<polygon fill="#63b8ff" stroke="#63b8ff" points="298.13,-370.02 288.47,-374.39 298.74,-376.99 298.13,-370.02"/>
</a>
</g>
</g>
<!-- Node21 -->
<g id="Node000021" class="node">
<title>Node21</title>
<g id="a_Node000021"><a xlink:href="de/de4/classml_1_1api_1_1_c_tree.html" target="_top" xlink:title="Classification and regression trees.">
<polygon fill="white" stroke="#666666" points="450.75,-410.25 372.5,-410.25 372.5,-391 450.75,-391 450.75,-410.25"/>
<text text-anchor="middle" x="411.62" y="-396.75" font-family="Helvetica,sans-Serif" font-size="10.00">ml::api::CTree</text>
</a>
</g>
</g>
<!-- Node19&#45;&gt;Node21 -->
<g id="edge139_Node000019_Node000021" class="edge">
<title>Node19&#45;&gt;Node21</title>
<g id="a_edge139_Node000019_Node000021"><a xlink:title=" ">
<path fill="none" stroke="#63b8ff" d="M298.27,-387.63C323.3,-390.53 350.65,-393.69 372.1,-396.17"/>
<polygon fill="#63b8ff" stroke="#63b8ff" points="298.81,-384.17 288.47,-386.5 298,-391.13 298.81,-384.17"/>
</a>
</g>
</g>
</g>
</svg>
