<?xml version="1.0" encoding="UTF-8" standalone="no"?>
<!DOCTYPE svg PUBLIC "-//W3C//DTD SVG 1.1//EN"
 "http://www.w3.org/Graphics/SVG/1.1/DTD/svg11.dtd">
<!-- Generated by graphviz version 10.0.1 (20240210.2158)
 -->
<!-- Title: ml::maths::common::basic_statistics_detail::typeToString Pages: 1 -->
<svg width="407pt" height="50pt"
 viewBox="0.00 0.00 407.00 49.75" xmlns="http://www.w3.org/2000/svg" xmlns:xlink="http://www.w3.org/1999/xlink">
<g id="graph0" class="graph" transform="scale(1 1) rotate(0) translate(4 45.75)">
<title>ml::maths::common::basic_statistics_detail::typeToString</title>
<!-- Node1 -->
<g id="Node000001" class="node">
<title>Node1</title>
<g id="a_Node000001"><a xlink:title="Function to do conversion to a string.">
<polygon fill="#999999" stroke="#666666" points="112.75,-41.75 0,-41.75 0,0 112.75,0 112.75,-41.75"/>
<text text-anchor="start" x="8" y="-28.25" font-family="Helvetica,sans-Serif" font-size="10.00">ml::maths::common::</text>
<text text-anchor="start" x="8" y="-17" font-family="Helvetica,sans-Serif" font-size="10.00">basic_statistics_detail</text>
<text text-anchor="middle" x="56.38" y="-5.75" font-family="Helvetica,sans-Serif" font-size="10.00">::typeToString</text>
</a>
</g>
</g>
<!-- Node2 -->
<g id="Node000002" class="node">
<title>Node2</title>
<g id="a_Node000002"><a xlink:href="../../d1/dfa/classml_1_1core_1_1_c_string_utils.html#a17d4f57243425912a8b30e144a698df1" target="_top" xlink:title="Convert a double to a string with the specified precision.">
<polygon fill="white" stroke="#666666" points="259.25,-36.12 148.75,-36.12 148.75,-5.62 259.25,-5.62 259.25,-36.12"/>
<text text-anchor="start" x="156.75" y="-22.62" font-family="Helvetica,sans-Serif" font-size="10.00">ml::core::CStringUtils</text>
<text text-anchor="middle" x="204" y="-11.38" font-family="Helvetica,sans-Serif" font-size="10.00">::typeToStringPrecise</text>
</a>
</g>
</g>
<!-- Node1&#45;&gt;Node2 -->
<g id="edge1_Node000001_Node000002" class="edge">
<title>Node1&#45;&gt;Node2</title>
<g id="a_edge1_Node000001_Node000002"><a xlink:title=" ">
<path fill="none" stroke="#63b8ff" d="M112.84,-20.88C120.82,-20.88 129.09,-20.88 137.24,-20.88"/>
<polygon fill="#63b8ff" stroke="#63b8ff" points="137.13,-24.38 147.13,-20.88 137.13,-17.38 137.13,-24.38"/>
</a>
</g>
</g>
<!-- Node3 -->
<g id="Node000003" class="node">
<title>Node3</title>
<g id="a_Node000003"><a xlink:href="../../d2/d08/classml_1_1core_1_1_c_i_e_e_e754.html#a1a14ca6caea95a6f76caf65b824b9e2c" target="_top" xlink:title=" ">
<polygon fill="white" stroke="#666666" points="399,-36.12 295.25,-36.12 295.25,-5.62 399,-5.62 399,-36.12"/>
<text text-anchor="start" x="303.25" y="-22.62" font-family="Helvetica,sans-Serif" font-size="10.00">ml::core::CIEEE754</text>
<text text-anchor="middle" x="347.12" y="-11.38" font-family="Helvetica,sans-Serif" font-size="10.00">::round</text>
</a>
</g>
</g>
<!-- Node2&#45;&gt;Node3 -->
<g id="edge2_Node000002_Node000003" class="edge">
<title>Node2&#45;&gt;Node3</title>
<g id="a_edge2_Node000002_Node000003"><a xlink:title=" ">
<path fill="none" stroke="#63b8ff" d="M259.56,-20.88C267.47,-20.88 275.66,-20.88 283.71,-20.88"/>
<polygon fill="#63b8ff" stroke="#63b8ff" points="283.43,-24.38 293.43,-20.88 283.43,-17.38 283.43,-24.38"/>
</a>
</g>
</g>
</g>
</svg>
