<?xml version="1.0" encoding="UTF-8" standalone="no"?>
<!DOCTYPE svg PUBLIC "-//W3C//DTD SVG 1.1//EN"
 "http://www.w3.org/Graphics/SVG/1.1/DTD/svg11.dtd">
<!-- Generated by graphviz version 10.0.1 (20240210.2158)
 -->
<!-- Title: ml::model::CHierarchicalResultsVisitor::isSimpleCount Pages: 1 -->
<svg width="710pt" height="492pt"
 viewBox="0.00 0.00 709.50 491.85" xmlns="http://www.w3.org/2000/svg" xmlns:xlink="http://www.w3.org/1999/xlink">
<g id="graph0" class="graph" transform="scale(1 1) rotate(0) translate(4 487.85)">
<title>ml::model::CHierarchicalResultsVisitor::isSimpleCount</title>
<!-- Node1 -->
<g id="Node000001" class="node">
<title>Node1</title>
<g id="a_Node000001"><a xlink:title="Check if the node is simple counting result.">
<polygon fill="#999999" stroke="#666666" points="701.5,-244.5 554.25,-244.5 554.25,-214 701.5,-214 701.5,-244.5"/>
<text text-anchor="start" x="562.25" y="-231" font-family="Helvetica,sans-Serif" font-size="10.00">ml::model::CHierarchical</text>
<text text-anchor="middle" x="627.88" y="-219.75" font-family="Helvetica,sans-Serif" font-size="10.00">ResultsVisitor::isSimpleCount</text>
</a>
</g>
</g>
<!-- Node2 -->
<g id="Node000002" class="node">
<title>Node2</title>
<g id="a_Node000002"><a xlink:href="../../d9/d3a/classml_1_1model_1_1_c_hierarchical_results_aggregator.html#a1deda1ed5dfa7726f0cd2eb646442dce" target="_top" xlink:title="Aggregate at a leaf node.">
<polygon fill="white" stroke="#666666" points="326.75,-474.5 162.25,-474.5 162.25,-444 326.75,-444 326.75,-474.5"/>
<text text-anchor="start" x="170.25" y="-461" font-family="Helvetica,sans-Serif" font-size="10.00">ml::model::CHierarchical</text>
<text text-anchor="middle" x="244.5" y="-449.75" font-family="Helvetica,sans-Serif" font-size="10.00">ResultsAggregator::aggregateLeaf</text>
</a>
</g>
</g>
<!-- Node1&#45;&gt;Node2 -->
<g id="edge1_Node000001_Node000002" class="edge">
<title>Node1&#45;&gt;Node2</title>
<g id="a_edge1_Node000001_Node000002"><a xlink:title=" ">
<path fill="none" stroke="#63b8ff" d="M622.91,-255.9C614.05,-304.72 587.7,-407.58 518.25,-452.25 455.7,-492.48 367.29,-486 308.26,-474.97"/>
<polygon fill="#63b8ff" stroke="#63b8ff" points="626.33,-256.65 624.54,-246.21 619.43,-255.49 626.33,-256.65"/>
</a>
</g>
</g>
<!-- Node4 -->
<g id="Node000004" class="node">
<title>Node4</title>
<g id="a_Node000004"><a xlink:href="../../d8/dff/classml_1_1model_1_1_c_hierarchical_results_level_set.html#a0740c5f41f1555d14604e7ed0aff051e" target="_top" xlink:title="Get and possibly add a normalizer for node.">
<polygon fill="white" stroke="#666666" points="508.5,-443.5 374.75,-443.5 374.75,-413 508.5,-413 508.5,-443.5"/>
<text text-anchor="start" x="382.75" y="-430" font-family="Helvetica,sans-Serif" font-size="10.00">ml::model::CHierarchical</text>
<text text-anchor="middle" x="441.62" y="-418.75" font-family="Helvetica,sans-Serif" font-size="10.00">ResultsLevelSet::elements</text>
</a>
</g>
</g>
<!-- Node1&#45;&gt;Node4 -->
<g id="edge3_Node000001_Node000004" class="edge">
<title>Node1&#45;&gt;Node4</title>
<g id="a_edge3_Node000001_Node000004"><a xlink:title=" ">
<path fill="none" stroke="#63b8ff" d="M617.55,-255.2C602.52,-293.38 569.36,-364.47 518.25,-404.25 514.12,-407.46 509.55,-410.25 504.76,-412.67"/>
<polygon fill="#63b8ff" stroke="#63b8ff" points="620.64,-256.92 620.93,-246.33 614.1,-254.43 620.64,-256.92"/>
</a>
</g>
</g>
<!-- Node5 -->
<g id="Node000005" class="node">
<title>Node5</title>
<g id="a_Node000005"><a xlink:href="../../d9/d3a/classml_1_1model_1_1_c_hierarchical_results_aggregator.html#abdf276717ead6fea332a08efb0db04a8" target="_top" xlink:title="Partition the child probabilities into groups to aggregate together.">
<polygon fill="white" stroke="#666666" points="510.38,-395.12 372.88,-395.12 372.88,-353.38 510.38,-353.38 510.38,-395.12"/>
<text text-anchor="start" x="380.88" y="-381.62" font-family="Helvetica,sans-Serif" font-size="10.00">ml::model::CHierarchical</text>
<text text-anchor="start" x="380.88" y="-370.38" font-family="Helvetica,sans-Serif" font-size="10.00">ResultsAggregator::partition</text>
<text text-anchor="middle" x="441.62" y="-359.12" font-family="Helvetica,sans-Serif" font-size="10.00">ChildProbabilities</text>
</a>
</g>
</g>
<!-- Node1&#45;&gt;Node5 -->
<g id="edge4_Node000001_Node000005" class="edge">
<title>Node1&#45;&gt;Node5</title>
<g id="a_edge4_Node000001_Node000005"><a xlink:title=" ">
<path fill="none" stroke="#63b8ff" d="M609.01,-253.73C589.27,-279.3 555.34,-319.11 518.25,-344.25 513.57,-347.42 508.51,-350.33 503.3,-352.99"/>
<polygon fill="#63b8ff" stroke="#63b8ff" points="611.7,-255.99 614.94,-245.9 606.12,-251.76 611.7,-255.99"/>
</a>
</g>
</g>
<!-- Node7 -->
<g id="Node000007" class="node">
<title>Node7</title>
<g id="a_Node000007"><a xlink:href="../../d1/d56/classanonymous__namespace_02_c_event_rate_anomaly_detector_test_8cc_03_1_1_c_result_writer.html#aa35ccec0d3a53ae5f005b01958a5ee6e" target="_top" xlink:title=" ">
<polygon fill="white" stroke="#666666" points="516,-335.12 367.25,-335.12 367.25,-293.38 516,-293.38 516,-335.12"/>
<text text-anchor="start" x="375.25" y="-321.62" font-family="Helvetica,sans-Serif" font-size="10.00">anonymous_namespace</text>
<text text-anchor="start" x="375.25" y="-310.38" font-family="Helvetica,sans-Serif" font-size="10.00">{CEventRateAnomalyDetector</text>
<text text-anchor="middle" x="441.62" y="-299.12" font-family="Helvetica,sans-Serif" font-size="10.00">Test::cc}::CResultWriter::visit</text>
</a>
</g>
</g>
<!-- Node1&#45;&gt;Node7 -->
<g id="edge7_Node000001_Node000007" class="edge">
<title>Node1&#45;&gt;Node7</title>
<g id="a_edge7_Node000001_Node000007"><a xlink:title=" ">
<path fill="none" stroke="#63b8ff" d="M587.53,-250.26C567.08,-260.9 541.56,-273.75 518.25,-284.25 511.68,-287.21 504.73,-290.18 497.81,-293.04"/>
<polygon fill="#63b8ff" stroke="#63b8ff" points="589.14,-253.37 596.38,-245.63 585.9,-247.17 589.14,-253.37"/>
</a>
</g>
</g>
<!-- Node8 -->
<g id="Node000008" class="node">
<title>Node8</title>
<g id="a_Node000008"><a xlink:href="../../d9/d46/classanonymous__namespace_02_c_metric_anomaly_detector_test_8cc_03_1_1_c_result_writer.html#aa86d97e0110e9b283c5497f4661a031c" target="_top" xlink:title="Visit a node.">
<polygon fill="white" stroke="#666666" points="515.62,-275.12 367.62,-275.12 367.62,-233.38 515.62,-233.38 515.62,-275.12"/>
<text text-anchor="start" x="375.62" y="-261.62" font-family="Helvetica,sans-Serif" font-size="10.00">anonymous_namespace</text>
<text text-anchor="start" x="375.62" y="-250.38" font-family="Helvetica,sans-Serif" font-size="10.00">{CMetricAnomalyDetectorTest</text>
<text text-anchor="middle" x="441.62" y="-239.12" font-family="Helvetica,sans-Serif" font-size="10.00">::cc}::CResultWriter::visit</text>
</a>
</g>
</g>
<!-- Node1&#45;&gt;Node8 -->
<g id="edge8_Node000001_Node000008" class="edge">
<title>Node1&#45;&gt;Node8</title>
<g id="a_edge8_Node000001_Node000008"><a xlink:title=" ">
<path fill="none" stroke="#63b8ff" d="M542.59,-240.69C533.69,-241.89 524.69,-243.12 515.92,-244.3"/>
<polygon fill="#63b8ff" stroke="#63b8ff" points="542.85,-244.18 552.29,-239.37 541.91,-237.25 542.85,-244.18"/>
</a>
</g>
</g>
<!-- Node9 -->
<g id="Node000009" class="node">
<title>Node9</title>
<g id="a_Node000009"><a xlink:href="../../d1/d77/class_c_result_writer.html#a939a13b7d2318cd9f8ffc90f2ede8934" target="_top" xlink:title=" ">
<polygon fill="white" stroke="#666666" points="492.38,-214.88 390.88,-214.88 390.88,-195.62 492.38,-195.62 492.38,-214.88"/>
<text text-anchor="middle" x="441.62" y="-201.38" font-family="Helvetica,sans-Serif" font-size="10.00">CResultWriter::visit</text>
</a>
</g>
</g>
<!-- Node1&#45;&gt;Node9 -->
<g id="edge9_Node000001_Node000009" class="edge">
<title>Node1&#45;&gt;Node9</title>
<g id="a_edge9_Node000001_Node000009"><a xlink:title=" ">
<path fill="none" stroke="#63b8ff" d="M542.64,-218.28C525.55,-216.05 508.1,-213.78 492.66,-211.77"/>
<polygon fill="#63b8ff" stroke="#63b8ff" points="541.92,-221.71 552.29,-219.53 542.82,-214.77 541.92,-221.71"/>
</a>
</g>
</g>
<!-- Node10 -->
<g id="Node000010" class="node">
<title>Node10</title>
<g id="a_Node000010"><a xlink:href="../../d2/d7a/classml_1_1api_1_1_c_hierarchical_results_writer.html#ac25fc5edeec8266029294a76efca6650" target="_top" xlink:title=" ">
<polygon fill="white" stroke="#666666" points="513.75,-177.5 369.5,-177.5 369.5,-147 513.75,-147 513.75,-177.5"/>
<text text-anchor="start" x="377.5" y="-164" font-family="Helvetica,sans-Serif" font-size="10.00">ml::api::CHierarchicalResults</text>
<text text-anchor="middle" x="441.62" y="-152.75" font-family="Helvetica,sans-Serif" font-size="10.00">Writer::writeIndividualResult</text>
</a>
</g>
</g>
<!-- Node1&#45;&gt;Node10 -->
<g id="edge10_Node000001_Node000010" class="edge">
<title>Node1&#45;&gt;Node10</title>
<g id="a_edge10_Node000001_Node000010"><a xlink:title=" ">
<path fill="none" stroke="#63b8ff" d="M578.75,-209.36C559.98,-201.83 538.22,-193.36 518.25,-186.25 510.33,-183.43 501.9,-180.59 493.64,-177.9"/>
<polygon fill="#63b8ff" stroke="#63b8ff" points="577.43,-212.61 588.01,-213.11 580.05,-206.12 577.43,-212.61"/>
</a>
</g>
</g>
<!-- Node12 -->
<g id="Node000012" class="node">
<title>Node12</title>
<g id="a_Node000012"><a xlink:href="../../d2/d7a/classml_1_1api_1_1_c_hierarchical_results_writer.html#a743a699f53ba9fdf84f2fae55229399a" target="_top" xlink:title=" ">
<polygon fill="white" stroke="#666666" points="513.75,-128.5 369.5,-128.5 369.5,-98 513.75,-98 513.75,-128.5"/>
<text text-anchor="start" x="377.5" y="-115" font-family="Helvetica,sans-Serif" font-size="10.00">ml::api::CHierarchicalResults</text>
<text text-anchor="middle" x="441.62" y="-103.75" font-family="Helvetica,sans-Serif" font-size="10.00">Writer::writePivotResult</text>
</a>
</g>
</g>
<!-- Node1&#45;&gt;Node12 -->
<g id="edge12_Node000001_Node000012" class="edge">
<title>Node1&#45;&gt;Node12</title>
<g id="a_edge12_Node000001_Node000012"><a xlink:title=" ">
<path fill="none" stroke="#63b8ff" d="M603.94,-205.51C583.19,-185.21 550.97,-156.48 518.25,-138.25 511.97,-134.75 505.12,-131.64 498.19,-128.91"/>
<polygon fill="#63b8ff" stroke="#63b8ff" points="601.46,-207.99 611.02,-212.57 606.4,-203.03 601.46,-207.99"/>
</a>
</g>
</g>
<!-- Node13 -->
<g id="Node000013" class="node">
<title>Node13</title>
<g id="a_Node000013"><a xlink:href="../../d2/d7a/classml_1_1api_1_1_c_hierarchical_results_writer.html#a8c34c640a67e47e08aa6034cbc4c9a86" target="_top" xlink:title=" ">
<polygon fill="white" stroke="#666666" points="513.75,-79.5 369.5,-79.5 369.5,-49 513.75,-49 513.75,-79.5"/>
<text text-anchor="start" x="377.5" y="-66" font-family="Helvetica,sans-Serif" font-size="10.00">ml::api::CHierarchicalResults</text>
<text text-anchor="middle" x="441.62" y="-54.75" font-family="Helvetica,sans-Serif" font-size="10.00">Writer::writePopulationResult</text>
</a>
</g>
</g>
<!-- Node1&#45;&gt;Node13 -->
<g id="edge14_Node000001_Node000013" class="edge">
<title>Node1&#45;&gt;Node13</title>
<g id="a_edge14_Node000001_Node000013"><a xlink:title=" ">
<path fill="none" stroke="#63b8ff" d="M613.58,-204.06C595.84,-172.79 561.59,-119.87 518.25,-89.25 513.17,-85.66 507.54,-82.56 501.7,-79.89"/>
<polygon fill="#63b8ff" stroke="#63b8ff" points="610.31,-205.38 618.21,-212.44 616.44,-202 610.31,-205.38"/>
</a>
</g>
</g>
<!-- Node14 -->
<g id="Node000014" class="node">
<title>Node14</title>
<g id="a_Node000014"><a xlink:href="../../d2/d7a/classml_1_1api_1_1_c_hierarchical_results_writer.html#a4eeb1aa94464c2e8f3e22c080cb4ae12" target="_top" xlink:title=" ">
<polygon fill="white" stroke="#666666" points="518.25,-30.5 365,-30.5 365,0 518.25,0 518.25,-30.5"/>
<text text-anchor="start" x="373" y="-17" font-family="Helvetica,sans-Serif" font-size="10.00">ml::api::CHierarchicalResults</text>
<text text-anchor="middle" x="441.62" y="-5.75" font-family="Helvetica,sans-Serif" font-size="10.00">Writer::writeSimpleCountResult</text>
</a>
</g>
</g>
<!-- Node1&#45;&gt;Node14 -->
<g id="edge16_Node000001_Node000014" class="edge">
<title>Node1&#45;&gt;Node14</title>
<g id="a_edge16_Node000001_Node000014"><a xlink:title=" ">
<path fill="none" stroke="#63b8ff" d="M618.6,-202.85C604.51,-162.13 572.04,-84.12 518.25,-40.25 513.86,-36.67 508.93,-33.59 503.76,-30.95"/>
<polygon fill="#63b8ff" stroke="#63b8ff" points="615.27,-203.94 621.76,-212.32 621.91,-201.72 615.27,-203.94"/>
</a>
</g>
</g>
<!-- Node3 -->
<g id="Node000003" class="node">
<title>Node3</title>
<g id="a_Node000003"><a xlink:href="../../d9/d3a/classml_1_1model_1_1_c_hierarchical_results_aggregator.html#aaaf9f722a5855913332ae94c8364d178" target="_top" xlink:title="Compute the aggregate probability for node.">
<polygon fill="white" stroke="#666666" points="124,-437.5 0,-437.5 0,-407 124,-407 124,-437.5"/>
<text text-anchor="start" x="8" y="-424" font-family="Helvetica,sans-Serif" font-size="10.00">ml::model::CHierarchical</text>
<text text-anchor="middle" x="62" y="-412.75" font-family="Helvetica,sans-Serif" font-size="10.00">ResultsAggregator::visit</text>
</a>
</g>
</g>
<!-- Node2&#45;&gt;Node3 -->
<g id="edge2_Node000002_Node000003" class="edge">
<title>Node2&#45;&gt;Node3</title>
<g id="a_edge2_Node000002_Node000003"><a xlink:title=" ">
<path fill="none" stroke="#63b8ff" d="M155.72,-441.26C145.15,-439.09 134.53,-436.91 124.45,-434.85"/>
<polygon fill="#63b8ff" stroke="#63b8ff" points="154.71,-444.62 165.21,-443.2 156.11,-437.76 154.71,-444.62"/>
</a>
</g>
</g>
<!-- Node6 -->
<g id="Node000006" class="node">
<title>Node6</title>
<g id="a_Node000006"><a xlink:href="../../d9/d3a/classml_1_1model_1_1_c_hierarchical_results_aggregator.html#a7cdca7a4e250095934a9b812eb3ea7a7" target="_top" xlink:title="Aggregate at internal node.">
<polygon fill="white" stroke="#666666" points="329,-401.5 160,-401.5 160,-371 329,-371 329,-401.5"/>
<text text-anchor="start" x="168" y="-388" font-family="Helvetica,sans-Serif" font-size="10.00">ml::model::CHierarchical</text>
<text text-anchor="middle" x="244.5" y="-376.75" font-family="Helvetica,sans-Serif" font-size="10.00">ResultsAggregator::aggregateNode</text>
</a>
</g>
</g>
<!-- Node5&#45;&gt;Node6 -->
<g id="edge5_Node000005_Node000006" class="edge">
<title>Node5&#45;&gt;Node6</title>
<g id="a_edge5_Node000005_Node000006"><a xlink:title=" ">
<path fill="none" stroke="#63b8ff" d="M361.19,-379.14C350.74,-379.78 340.01,-380.44 329.5,-381.08"/>
<polygon fill="#63b8ff" stroke="#63b8ff" points="361.1,-382.65 370.87,-378.54 360.67,-375.66 361.1,-382.65"/>
</a>
</g>
</g>
<!-- Node6&#45;&gt;Node3 -->
<g id="edge6_Node000006_Node000003" class="edge">
<title>Node6&#45;&gt;Node3</title>
<g id="a_edge6_Node000006_Node000003"><a xlink:title=" ">
<path fill="none" stroke="#63b8ff" d="M153.49,-404.2C143.63,-406.17 133.77,-408.13 124.38,-410.01"/>
<polygon fill="#63b8ff" stroke="#63b8ff" points="153.99,-407.67 163.11,-402.28 152.62,-400.81 153.99,-407.67"/>
</a>
</g>
</g>
<!-- Node11 -->
<g id="Node000011" class="node">
<title>Node11</title>
<g id="a_Node000011"><a xlink:href="../../d2/d7a/classml_1_1api_1_1_c_hierarchical_results_writer.html#a299c45abf554a4a915e6c6e1a2a16b15" target="_top" xlink:title="Write node.">
<polygon fill="white" stroke="#666666" points="316.62,-104.5 172.38,-104.5 172.38,-74 316.62,-74 316.62,-104.5"/>
<text text-anchor="start" x="180.38" y="-91" font-family="Helvetica,sans-Serif" font-size="10.00">ml::api::CHierarchicalResults</text>
<text text-anchor="middle" x="244.5" y="-79.75" font-family="Helvetica,sans-Serif" font-size="10.00">Writer::visit</text>
</a>
</g>
</g>
<!-- Node10&#45;&gt;Node11 -->
<g id="edge11_Node000010_Node000011" class="edge">
<title>Node10&#45;&gt;Node11</title>
<g id="a_edge11_Node000010_Node000011"><a xlink:title=" ">
<path fill="none" stroke="#63b8ff" d="M381.15,-142.98C375.67,-141.09 370.22,-139.16 365,-137.25 337.28,-127.11 306.38,-114.67 282.94,-104.99"/>
<polygon fill="#63b8ff" stroke="#63b8ff" points="379.63,-146.16 390.22,-146.07 381.88,-139.53 379.63,-146.16"/>
</a>
</g>
</g>
<!-- Node12&#45;&gt;Node11 -->
<g id="edge13_Node000012_Node000011" class="edge">
<title>Node12&#45;&gt;Node11</title>
<g id="a_edge13_Node000012_Node000011"><a xlink:title=" ">
<path fill="none" stroke="#63b8ff" d="M357.8,-103.06C344.24,-101.4 330.3,-99.68 317.04,-98.05"/>
<polygon fill="#63b8ff" stroke="#63b8ff" points="357.22,-106.52 367.57,-104.26 358.08,-99.57 357.22,-106.52"/>
</a>
</g>
</g>
<!-- Node13&#45;&gt;Node11 -->
<g id="edge15_Node000013_Node000011" class="edge">
<title>Node13&#45;&gt;Node11</title>
<g id="a_edge15_Node000013_Node000011"><a xlink:title=" ">
<path fill="none" stroke="#63b8ff" d="M357.8,-74.86C344.24,-76.6 330.3,-78.39 317.04,-80.08"/>
<polygon fill="#63b8ff" stroke="#63b8ff" points="358.1,-78.35 367.57,-73.61 357.21,-71.41 358.1,-78.35"/>
</a>
</g>
</g>
<!-- Node14&#45;&gt;Node11 -->
<g id="edge17_Node000014_Node000011" class="edge">
<title>Node14&#45;&gt;Node11</title>
<g id="a_edge17_Node000014_Node000011"><a xlink:title=" ">
<path fill="none" stroke="#63b8ff" d="M381.13,-34.48C375.66,-36.38 370.22,-38.32 365,-40.25 336.82,-50.67 305.4,-63.61 281.85,-73.57"/>
<polygon fill="#63b8ff" stroke="#63b8ff" points="381.87,-37.93 390.2,-31.38 379.61,-31.3 381.87,-37.93"/>
</a>
</g>
</g>
</g>
</svg>
