<?xml version="1.0" encoding="UTF-8" standalone="no"?>
<!DOCTYPE svg PUBLIC "-//W3C//DTD SVG 1.1//EN"
 "http://www.w3.org/Graphics/SVG/1.1/DTD/svg11.dtd">
<!-- Generated by graphviz version 10.0.1 (20240210.2158)
 -->
<!-- Title: ml::model::CHierarchicalResultsVisitor::shouldWriteResult Pages: 1 -->
<svg width="875pt" height="283pt"
 viewBox="0.00 0.00 874.75 282.50" xmlns="http://www.w3.org/2000/svg" xmlns:xlink="http://www.w3.org/1999/xlink">
<g id="graph0" class="graph" transform="scale(1 1) rotate(0) translate(4 278.5)">
<title>ml::model::CHierarchicalResultsVisitor::shouldWriteResult</title>
<!-- Node1 -->
<g id="Node000001" class="node">
<title>Node1</title>
<g id="a_Node000001"><a xlink:title="Check if we&#39;ll write a result for the node.">
<polygon fill="#999999" stroke="#666666" points="163,-168.5 0,-168.5 0,-138 163,-138 163,-168.5"/>
<text text-anchor="start" x="8" y="-155" font-family="Helvetica,sans-Serif" font-size="10.00">ml::model::CHierarchical</text>
<text text-anchor="middle" x="81.5" y="-143.75" font-family="Helvetica,sans-Serif" font-size="10.00">ResultsVisitor::shouldWriteResult</text>
</a>
</g>
</g>
<!-- Node1&#45;&gt;Node1 -->
<g id="edge11_Node000001_Node000001" class="edge">
<title>Node1&#45;&gt;Node1</title>
<g id="a_edge11_Node000001_Node000001"><a xlink:title=" ">
<path fill="none" stroke="#63b8ff" d="M46.97,-168.99C39.92,-178.06 51.43,-186.5 81.5,-186.5 97.94,-186.5 108.84,-183.97 114.18,-180.2"/>
<polygon fill="#63b8ff" stroke="#63b8ff" points="117.61,-180.92 115.79,-170.48 110.7,-179.78 117.61,-180.92"/>
</a>
</g>
</g>
<!-- Node2 -->
<g id="Node000002" class="node">
<title>Node2</title>
<g id="a_Node000002"><a xlink:href="../../d5/df2/classml_1_1model_1_1_c_hierarchical_results.html#aa156cff0339e0c616298cedf099c9b8b" target="_top" xlink:title=" ">
<polygon fill="white" stroke="#666666" points="338.38,-274.5 214.38,-274.5 214.38,-244 338.38,-244 338.38,-274.5"/>
<text text-anchor="start" x="222.38" y="-261" font-family="Helvetica,sans-Serif" font-size="10.00">ml::model::CHierarchical</text>
<text text-anchor="middle" x="276.38" y="-249.75" font-family="Helvetica,sans-Serif" font-size="10.00">Results::influencer</text>
</a>
</g>
</g>
<!-- Node1&#45;&gt;Node2 -->
<g id="edge1_Node000001_Node000002" class="edge">
<title>Node1&#45;&gt;Node2</title>
<g id="a_edge1_Node000001_Node000002"><a xlink:title=" ">
<path fill="none" stroke="#63b8ff" d="M103.11,-168.91C125.75,-185.62 163.61,-212.12 199,-230.25 205.21,-233.43 211.86,-236.46 218.54,-239.28"/>
<polygon fill="#63b8ff" stroke="#63b8ff" points="217.04,-242.45 227.62,-242.96 219.67,-235.96 217.04,-242.45"/>
</a>
</g>
</g>
<!-- Node3 -->
<g id="Node000003" class="node">
<title>Node3</title>
<g id="a_Node000003"><a xlink:href="../../dc/d05/classml_1_1model_1_1_c_hierarchical_results_visitor.html#a3578a82308dd4efac1c213646600e326" target="_top" xlink:title="Check if this node is the root node.">
<polygon fill="white" stroke="#666666" points="866.75,-193.5 742.75,-193.5 742.75,-163 866.75,-163 866.75,-193.5"/>
<text text-anchor="start" x="750.75" y="-180" font-family="Helvetica,sans-Serif" font-size="10.00">ml::model::CHierarchical</text>
<text text-anchor="middle" x="804.75" y="-168.75" font-family="Helvetica,sans-Serif" font-size="10.00">ResultsVisitor::isRoot</text>
</a>
</g>
</g>
<!-- Node1&#45;&gt;Node3 -->
<g id="edge2_Node000001_Node000003" class="edge">
<title>Node1&#45;&gt;Node3</title>
<g id="a_edge2_Node000001_Node000003"><a xlink:title=" ">
<path fill="none" stroke="#63b8ff" d="M151.18,-168.99C166.81,-171.96 183.41,-174.64 199,-176.25 390.34,-195.97 617.54,-188.49 731.28,-182.64"/>
<polygon fill="#63b8ff" stroke="#63b8ff" points="731.28,-186.15 741.08,-182.12 730.91,-179.16 731.28,-186.15"/>
</a>
</g>
</g>
<!-- Node4 -->
<g id="Node000004" class="node">
<title>Node4</title>
<g id="a_Node000004"><a xlink:href="../../dc/d05/classml_1_1model_1_1_c_hierarchical_results_visitor.html#a3c3becfe58de972509ea2f9c6597693e" target="_top" xlink:title="Check if we can ever write a result for the node.">
<polygon fill="white" stroke="#666666" points="543.75,-156.12 389.75,-156.12 389.75,-114.38 543.75,-114.38 543.75,-156.12"/>
<text text-anchor="start" x="397.75" y="-142.62" font-family="Helvetica,sans-Serif" font-size="10.00">ml::model::CHierarchical</text>
<text text-anchor="start" x="397.75" y="-131.38" font-family="Helvetica,sans-Serif" font-size="10.00">ResultsVisitor::isTypeForWhich</text>
<text text-anchor="middle" x="466.75" y="-120.12" font-family="Helvetica,sans-Serif" font-size="10.00">WeWriteResults</text>
</a>
</g>
</g>
<!-- Node1&#45;&gt;Node4 -->
<g id="edge3_Node000001_Node000004" class="edge">
<title>Node1&#45;&gt;Node4</title>
<g id="a_edge3_Node000001_Node000004"><a xlink:title=" ">
<path fill="none" stroke="#63b8ff" d="M163.43,-160.42C217.47,-163.88 290.05,-166 353.75,-159.25 361.7,-158.41 369.92,-157.24 378.13,-155.86"/>
<polygon fill="#63b8ff" stroke="#63b8ff" points="378.56,-159.34 387.79,-154.14 377.33,-152.45 378.56,-159.34"/>
</a>
</g>
</g>
<!-- Node7 -->
<g id="Node000007" class="node">
<title>Node7</title>
<g id="a_Node000007"><a xlink:href="../../dc/d05/classml_1_1model_1_1_c_hierarchical_results_visitor.html#a3ebc7b53ff4a5c697de838b970ac1830" target="_top" xlink:title="Get the nearest ancestor of the node for which we write results.">
<polygon fill="white" stroke="#666666" points="353.75,-150.12 199,-150.12 199,-108.38 353.75,-108.38 353.75,-150.12"/>
<text text-anchor="start" x="207" y="-136.62" font-family="Helvetica,sans-Serif" font-size="10.00">ml::model::CHierarchical</text>
<text text-anchor="start" x="207" y="-125.38" font-family="Helvetica,sans-Serif" font-size="10.00">ResultsVisitor::nearestAncestor</text>
<text text-anchor="middle" x="276.38" y="-114.12" font-family="Helvetica,sans-Serif" font-size="10.00">ForWhichWeWriteResults</text>
</a>
</g>
</g>
<!-- Node1&#45;&gt;Node7 -->
<g id="edge8_Node000001_Node000007" class="edge">
<title>Node1&#45;&gt;Node7</title>
<g id="a_edge8_Node000001_Node000007"><a xlink:title=" ">
<path fill="none" stroke="#63b8ff" d="M163.46,-143.18C171.38,-142.19 179.44,-141.19 187.42,-140.19"/>
<polygon fill="#63b8ff" stroke="#63b8ff" points="187.64,-143.69 197.13,-138.99 186.77,-136.75 187.64,-143.69"/>
</a>
</g>
</g>
<!-- Node8 -->
<g id="Node000008" class="node">
<title>Node8</title>
<g id="a_Node000008"><a xlink:href="../../dd/dab/structml_1_1model_1_1hierarchical__results__detail_1_1_s_node.html#ac889be9e65e4598ebddb00bd2a131eba" target="_top" xlink:title="Returns the aggregate probability for the node.">
<polygon fill="white" stroke="#666666" points="333.88,-90.12 218.88,-90.12 218.88,-48.38 333.88,-48.38 333.88,-90.12"/>
<text text-anchor="start" x="226.88" y="-76.62" font-family="Helvetica,sans-Serif" font-size="10.00">ml::model::hierarchical</text>
<text text-anchor="start" x="226.88" y="-65.38" font-family="Helvetica,sans-Serif" font-size="10.00">_results_detail::SNode</text>
<text text-anchor="middle" x="276.38" y="-54.12" font-family="Helvetica,sans-Serif" font-size="10.00">::probability</text>
</a>
</g>
</g>
<!-- Node1&#45;&gt;Node8 -->
<g id="edge10_Node000001_Node000008" class="edge">
<title>Node1&#45;&gt;Node8</title>
<g id="a_edge10_Node000001_Node000008"><a xlink:title=" ">
<path fill="none" stroke="#63b8ff" d="M114.91,-137.6C138.15,-126.52 170.3,-111.52 199,-99.25 202.51,-97.75 206.13,-96.23 209.78,-94.72"/>
<polygon fill="#63b8ff" stroke="#63b8ff" points="210.81,-98.08 218.75,-91.06 208.17,-91.6 210.81,-98.08"/>
</a>
</g>
</g>
<!-- Node9 -->
<g id="Node000009" class="node">
<title>Node9</title>
<g id="a_Node000009"><a xlink:href="../../df/d58/classml_1_1model_1_1_c_limits.html#ae5282d45eea6a950a429f65294035ead" target="_top" xlink:title=" ">
<polygon fill="white" stroke="#666666" points="348.5,-30.5 204.25,-30.5 204.25,0 348.5,0 348.5,-30.5"/>
<text text-anchor="start" x="212.25" y="-17" font-family="Helvetica,sans-Serif" font-size="10.00">ml::model::CLimits</text>
<text text-anchor="middle" x="276.38" y="-5.75" font-family="Helvetica,sans-Serif" font-size="10.00">::unusualProbabilityThreshold</text>
</a>
</g>
</g>
<!-- Node1&#45;&gt;Node9 -->
<g id="edge12_Node000001_Node000009" class="edge">
<title>Node1&#45;&gt;Node9</title>
<g id="a_edge12_Node000001_Node000009"><a xlink:title=" ">
<path fill="none" stroke="#63b8ff" d="M94.36,-137.62C113.69,-113.19 154.33,-66 199,-39.25 201.13,-37.97 203.34,-36.76 205.6,-35.6"/>
<polygon fill="#63b8ff" stroke="#63b8ff" points="206.8,-38.9 214.41,-31.54 203.87,-32.55 206.8,-38.9"/>
</a>
</g>
</g>
<!-- Node4&#45;&gt;Node3 -->
<g id="edge7_Node000004_Node000003" class="edge">
<title>Node4&#45;&gt;Node3</title>
<g id="a_edge7_Node000004_Node000003"><a xlink:title=" ">
<path fill="none" stroke="#63b8ff" d="M544.03,-152.94C555.94,-155.32 568.15,-157.52 579.75,-159.25 630.07,-166.74 687.22,-171.53 731.2,-174.43"/>
<polygon fill="#63b8ff" stroke="#63b8ff" points="730.95,-177.92 741.15,-175.06 731.39,-170.93 730.95,-177.92"/>
</a>
</g>
</g>
<!-- Node5 -->
<g id="Node000005" class="node">
<title>Node5</title>
<g id="a_Node000005"><a xlink:href="../../dc/d05/classml_1_1model_1_1_c_hierarchical_results_visitor.html#adedccb34126f54fa542741d102a483d8" target="_top" xlink:title="Check if the node is a leaf.">
<polygon fill="white" stroke="#666666" points="705.25,-150.5 581.25,-150.5 581.25,-120 705.25,-120 705.25,-150.5"/>
<text text-anchor="start" x="589.25" y="-137" font-family="Helvetica,sans-Serif" font-size="10.00">ml::model::CHierarchical</text>
<text text-anchor="middle" x="643.25" y="-125.75" font-family="Helvetica,sans-Serif" font-size="10.00">ResultsVisitor::isLeaf</text>
</a>
</g>
</g>
<!-- Node4&#45;&gt;Node5 -->
<g id="edge4_Node000004_Node000005" class="edge">
<title>Node4&#45;&gt;Node5</title>
<g id="a_edge4_Node000004_Node000005"><a xlink:title=" ">
<path fill="none" stroke="#63b8ff" d="M544.03,-135.25C552.48,-135.25 561.07,-135.25 569.48,-135.25"/>
<polygon fill="#63b8ff" stroke="#63b8ff" points="569.28,-138.75 579.28,-135.25 569.28,-131.75 569.28,-138.75"/>
</a>
</g>
</g>
<!-- Node6 -->
<g id="Node000006" class="node">
<title>Node6</title>
<g id="a_Node000006"><a xlink:href="../../dc/d05/classml_1_1model_1_1_c_hierarchical_results_visitor.html#a782a7ab20789d56e6d02c6dde2f28169" target="_top" xlink:title="Check if this is a named partition.">
<polygon fill="white" stroke="#666666" points="706.75,-101.5 579.75,-101.5 579.75,-71 706.75,-71 706.75,-101.5"/>
<text text-anchor="start" x="587.75" y="-88" font-family="Helvetica,sans-Serif" font-size="10.00">ml::model::CHierarchical</text>
<text text-anchor="middle" x="643.25" y="-76.75" font-family="Helvetica,sans-Serif" font-size="10.00">ResultsVisitor::isPartition</text>
</a>
</g>
</g>
<!-- Node4&#45;&gt;Node6 -->
<g id="edge5_Node000004_Node000006" class="edge">
<title>Node4&#45;&gt;Node6</title>
<g id="a_edge5_Node000004_Node000006"><a xlink:title=" ">
<path fill="none" stroke="#63b8ff" d="M543.78,-113.9C554.3,-110.95 565.05,-107.93 575.38,-105.03"/>
<polygon fill="#63b8ff" stroke="#63b8ff" points="576.28,-108.41 584.96,-102.34 574.38,-101.67 576.28,-108.41"/>
</a>
</g>
</g>
<!-- Node6&#45;&gt;Node3 -->
<g id="edge6_Node000006_Node000003" class="edge">
<title>Node6&#45;&gt;Node3</title>
<g id="a_edge6_Node000006_Node000003"><a xlink:title=" ">
<path fill="none" stroke="#63b8ff" d="M687.19,-101.94C693.86,-104.8 700.57,-107.93 706.75,-111.25 730.86,-124.19 756.24,-141.89 775,-155.84"/>
<polygon fill="#63b8ff" stroke="#63b8ff" points="772.86,-158.61 782.95,-161.84 777.07,-153.03 772.86,-158.61"/>
</a>
</g>
</g>
<!-- Node7&#45;&gt;Node4 -->
<g id="edge9_Node000007_Node000004" class="edge">
<title>Node7&#45;&gt;Node4</title>
<g id="a_edge9_Node000007_Node000004"><a xlink:title=" ">
<path fill="none" stroke="#63b8ff" d="M353.99,-131.69C361.96,-131.94 370.09,-132.2 378.16,-132.46"/>
<polygon fill="#63b8ff" stroke="#63b8ff" points="377.88,-135.95 387.99,-132.77 378.11,-128.96 377.88,-135.95"/>
</a>
</g>
</g>
</g>
</svg>
