<?xml version="1.0" encoding="UTF-8" standalone="no"?>
<!DOCTYPE svg PUBLIC "-//W3C//DTD SVG 1.1//EN"
 "http://www.w3.org/Graphics/SVG/1.1/DTD/svg11.dtd">
<!-- Generated by graphviz version 10.0.1 (20240210.2158)
 -->
<!-- Title: ml::model::CHierarchicalResultsVisitor::shouldWriteResult Pages: 1 -->
<!--zoomable 381 -->

<svg id="main" version="1.1" xmlns="http://www.w3.org/2000/svg" xmlns:xlink="http://www.w3.org/1999/xlink" xml:space="preserve" onload="init(evt)">
<style type="text/css"><![CDATA[
.node, .edge {opacity: 0.7;}
.node.selected, .edge.selected {opacity: 1;}
.edge:hover path { stroke: red; }
.edge:hover polygon { stroke: red; fill: red; }
]]></style>

<defs>
  <circle id="rim" cx="0" cy="0" r="7"/>
  <circle id="rim2" cx="0" cy="0" r="3.5"/>
  <g id="zoomPlus">
    <use xlink:href="#rim" fill="#404040"><set attributeName="fill" to="#808080" begin="zoomplus.mouseover" end="zoomplus.mouseout"/></use>
    <path d="M-4,0h8M0,-4v8" fill="none" stroke="white" stroke-width="1.5" pointer-events="none"/>
  </g>
  <g id="zoomMin">
    <use xlink:href="#rim" fill="#404040"><set attributeName="fill" to="#808080" begin="zoomminus.mouseover" end="zoomminus.mouseout"/></use>
    <path d="M-4,0h8" fill="none" stroke="white" stroke-width="1.5" pointer-events="none"/>
  </g>
  <g id="arrowUp" transform="translate(30 24)">
    <use xlink:href="#rim"/>
    <path pointer-events="none" fill="none" stroke="white" stroke-width="1.5" d="M0,-3.0v7 M-2.5,-0.5L0,-3.0L2.5,-0.5"/>
  </g>
  <g id="arrowRight" transform="rotate(90) translate(36 -43)">
    <use xlink:href="#rim"/>
    <path pointer-events="none" fill="none" stroke="white" stroke-width="1.5" d="M0,-3.0v7 M-2.5,-0.5L0,-3.0L2.5,-0.5"/>
  </g>
  <g id="arrowDown" transform="rotate(180) translate(-30 -48)">
    <use xlink:href="#rim"/>
    <path pointer-events="none" fill="none" stroke="white" stroke-width="1.5" d="M0,-3.0v7 M-2.5,-0.5L0,-3.0L2.5,-0.5"/>
  </g>
  <g id="arrowLeft" transform="rotate(270) translate(-36 17)">
    <use xlink:href="#rim"/>
    <path pointer-events="none" fill="none" stroke="white" stroke-width="1.5" d="M0,-3.0v7 M-2.5,-0.5L0,-3.0L2.5,-0.5"/>
  </g>
  <g id="resetDef">
    <use xlink:href="#rim2" fill="#404040"><set attributeName="fill" to="#808080" begin="reset.mouseover" end="reset.mouseout"/></use>
  </g>
</defs>
<script type="application/ecmascript">
var viewWidth = 536;
var viewHeight = 381;
var sectionId = 'dynsection-17';
</script>
<script type="application/ecmascript" xlink:href="../../svg.min.js"/>
<svg id="graph" class="graph">
<g id="viewport">
<title>ml::model::CHierarchicalResultsVisitor::shouldWriteResult</title>
<!-- Node1 -->
<g id="Node000001" class="node">
<title>Node1</title>
<g id="a_Node000001"><a xlink:title="Check if we&#39;ll write a result for the node.">
<polygon fill="#999999" stroke="#666666" points="528,-198.5 365,-198.5 365,-168 528,-168 528,-198.5"/>
<text text-anchor="start" x="373" y="-185" font-family="Helvetica,sans-Serif" font-size="10.00">ml::model::CHierarchical</text>
<text text-anchor="middle" x="446.5" y="-173.75" font-family="Helvetica,sans-Serif" font-size="10.00">ResultsVisitor::shouldWriteResult</text>
</a>
</g>
</g>
<!-- Node1&#45;&gt;Node1 -->
<g id="edge2_Node000001_Node000001" class="edge">
<title>Node1&#45;&gt;Node1</title>
<g id="a_edge2_Node000001_Node000001"><a xlink:title=" ">
<path fill="none" stroke="#63b8ff" d="M478.68,-210.2C473.42,-213.97 462.69,-216.5 446.5,-216.5 416.89,-216.5 405.56,-208.06 412.5,-198.99"/>
<polygon fill="#63b8ff" stroke="#63b8ff" points="482.11,-210.91 480.26,-200.48 475.2,-209.79 482.11,-210.91"/>
</a>
</g>
</g>
<!-- Node2 -->
<g id="Node000002" class="node">
<title>Node2</title>
<g id="a_Node000002"><a xlink:href="../../dc/dfe/_c_hierarchical_results_test_8cc.html#aeac65144d281f6842d7f75686dd50ccd" target="_top" xlink:title=" ">
<polygon fill="white" stroke="#666666" points="328.25,-372.88 181,-372.88 181,-353.62 328.25,-353.62 328.25,-372.88"/>
<text text-anchor="middle" x="254.62" y="-359.38" font-family="Helvetica,sans-Serif" font-size="10.00">BOOST_AUTO_TEST_CASE</text>
</a>
</g>
</g>
<!-- Node1&#45;&gt;Node2 -->
<g id="edge1_Node000001_Node000002" class="edge">
<title>Node1&#45;&gt;Node2</title>
<g id="a_edge1_Node000001_Node000002"><a xlink:title=" ">
<path fill="none" stroke="#63b8ff" d="M433.93,-209.02C416.45,-244.93 379.88,-309.53 329,-344.25 323.67,-347.88 317.7,-350.82 311.52,-353.2"/>
<polygon fill="#63b8ff" stroke="#63b8ff" points="436.98,-210.76 438.09,-200.23 430.65,-207.77 436.98,-210.76"/>
</a>
</g>
</g>
<!-- Node3 -->
<g id="Node000003" class="node">
<title>Node3</title>
<g id="a_Node000003"><a xlink:href="../../d1/d56/classanonymous__namespace_02_c_event_rate_anomaly_detector_test_8cc_03_1_1_c_result_writer.html#aa35ccec0d3a53ae5f005b01958a5ee6e" target="_top" xlink:title=" ">
<polygon fill="white" stroke="#666666" points="329,-335.12 180.25,-335.12 180.25,-293.38 329,-293.38 329,-335.12"/>
<text text-anchor="start" x="188.25" y="-321.62" font-family="Helvetica,sans-Serif" font-size="10.00">anonymous_namespace</text>
<text text-anchor="start" x="188.25" y="-310.38" font-family="Helvetica,sans-Serif" font-size="10.00">{CEventRateAnomalyDetector</text>
<text text-anchor="middle" x="254.62" y="-299.12" font-family="Helvetica,sans-Serif" font-size="10.00">Test::cc}::CResultWriter::visit</text>
</a>
</g>
</g>
<!-- Node1&#45;&gt;Node3 -->
<g id="edge3_Node000001_Node000003" class="edge">
<title>Node1&#45;&gt;Node3</title>
<g id="a_edge3_Node000001_Node000003"><a xlink:title=" ">
<path fill="none" stroke="#63b8ff" d="M423.12,-206.65C400.89,-228.89 364.99,-262.12 329,-284.25 323.96,-287.35 318.54,-290.25 313.01,-292.94"/>
<polygon fill="#63b8ff" stroke="#63b8ff" points="425.36,-209.37 429.89,-199.79 420.37,-204.46 425.36,-209.37"/>
</a>
</g>
</g>
<!-- Node4 -->
<g id="Node000004" class="node">
<title>Node4</title>
<g id="a_Node000004"><a xlink:href="../../d9/d46/classanonymous__namespace_02_c_metric_anomaly_detector_test_8cc_03_1_1_c_result_writer.html#aa86d97e0110e9b283c5497f4661a031c" target="_top" xlink:title="Visit a node.">
<polygon fill="white" stroke="#666666" points="328.62,-275.12 180.62,-275.12 180.62,-233.38 328.62,-233.38 328.62,-275.12"/>
<text text-anchor="start" x="188.62" y="-261.62" font-family="Helvetica,sans-Serif" font-size="10.00">anonymous_namespace</text>
<text text-anchor="start" x="188.62" y="-250.38" font-family="Helvetica,sans-Serif" font-size="10.00">{CMetricAnomalyDetectorTest</text>
<text text-anchor="middle" x="254.62" y="-239.12" font-family="Helvetica,sans-Serif" font-size="10.00">::cc}::CResultWriter::visit</text>
</a>
</g>
</g>
<!-- Node1&#45;&gt;Node4 -->
<g id="edge4_Node000001_Node000004" class="edge">
<title>Node1&#45;&gt;Node4</title>
<g id="a_edge4_Node000001_Node000004"><a xlink:title=" ">
<path fill="none" stroke="#63b8ff" d="M393.1,-202.84C368.14,-212.18 338.22,-223.36 312.68,-232.91"/>
<polygon fill="#63b8ff" stroke="#63b8ff" points="394.27,-206.14 402.41,-199.36 391.82,-199.59 394.27,-206.14"/>
</a>
</g>
</g>
<!-- Node5 -->
<g id="Node000005" class="node">
<title>Node5</title>
<g id="a_Node000005"><a xlink:href="../../d1/d77/class_c_result_writer.html#a939a13b7d2318cd9f8ffc90f2ede8934" target="_top" xlink:title=" ">
<polygon fill="white" stroke="#666666" points="305.38,-214.88 203.88,-214.88 203.88,-195.62 305.38,-195.62 305.38,-214.88"/>
<text text-anchor="middle" x="254.62" y="-201.38" font-family="Helvetica,sans-Serif" font-size="10.00">CResultWriter::visit</text>
</a>
</g>
</g>
<!-- Node1&#45;&gt;Node5 -->
<g id="edge5_Node000001_Node000005" class="edge">
<title>Node1&#45;&gt;Node5</title>
<g id="a_edge5_Node000001_Node000005"><a xlink:title=" ">
<path fill="none" stroke="#63b8ff" d="M353.39,-193.92C337,-195.82 320.49,-197.73 305.83,-199.43"/>
<polygon fill="#63b8ff" stroke="#63b8ff" points="353.67,-197.41 363.2,-192.79 352.86,-190.46 353.67,-197.41"/>
</a>
</g>
</g>
<!-- Node6 -->
<g id="Node000006" class="node">
<title>Node6</title>
<g id="a_Node000006"><a xlink:href="../../d7/d62/classml_1_1model_1_1_c_hierarchical_results_populator.html#a99749b0791539b084a8605a4790fe96a" target="_top" xlink:title="Visit node.">
<polygon fill="white" stroke="#666666" points="316.62,-177.5 192.62,-177.5 192.62,-147 316.62,-147 316.62,-177.5"/>
<text text-anchor="start" x="200.62" y="-164" font-family="Helvetica,sans-Serif" font-size="10.00">ml::model::CHierarchical</text>
<text text-anchor="middle" x="254.62" y="-152.75" font-family="Helvetica,sans-Serif" font-size="10.00">ResultsPopulator::visit</text>
</a>
</g>
</g>
<!-- Node1&#45;&gt;Node6 -->
<g id="edge6_Node000001_Node000006" class="edge">
<title>Node1&#45;&gt;Node6</title>
<g id="a_edge6_Node000001_Node000006"><a xlink:title=" ">
<path fill="none" stroke="#63b8ff" d="M353.42,-173.07C341.09,-171.7 328.7,-170.33 317.08,-169.05"/>
<polygon fill="#63b8ff" stroke="#63b8ff" points="352.87,-176.53 363.2,-174.15 353.64,-169.57 352.87,-176.53"/>
</a>
</g>
</g>
<!-- Node7 -->
<g id="Node000007" class="node">
<title>Node7</title>
<g id="a_Node000007"><a xlink:href="../../d2/d7a/classml_1_1api_1_1_c_hierarchical_results_writer.html#ac25fc5edeec8266029294a76efca6650" target="_top" xlink:title=" ">
<polygon fill="white" stroke="#666666" points="326.75,-128.5 182.5,-128.5 182.5,-98 326.75,-98 326.75,-128.5"/>
<text text-anchor="start" x="190.5" y="-115" font-family="Helvetica,sans-Serif" font-size="10.00">ml::api::CHierarchicalResults</text>
<text text-anchor="middle" x="254.62" y="-103.75" font-family="Helvetica,sans-Serif" font-size="10.00">Writer::writeIndividualResult</text>
</a>
</g>
</g>
<!-- Node1&#45;&gt;Node7 -->
<g id="edge7_Node000001_Node000007" class="edge">
<title>Node1&#45;&gt;Node7</title>
<g id="a_edge7_Node000001_Node000007"><a xlink:title=" ">
<path fill="none" stroke="#63b8ff" d="M395.34,-163.37C374.84,-155.37 350.85,-146.19 329,-138.25 320.53,-135.17 311.46,-131.99 302.7,-128.97"/>
<polygon fill="#63b8ff" stroke="#63b8ff" points="394.02,-166.61 404.61,-166.99 396.57,-160.09 394.02,-166.61"/>
</a>
</g>
</g>
<!-- Node9 -->
<g id="Node000009" class="node">
<title>Node9</title>
<g id="a_Node000009"><a xlink:href="../../d2/d7a/classml_1_1api_1_1_c_hierarchical_results_writer.html#a743a699f53ba9fdf84f2fae55229399a" target="_top" xlink:title=" ">
<polygon fill="white" stroke="#666666" points="326.75,-79.5 182.5,-79.5 182.5,-49 326.75,-49 326.75,-79.5"/>
<text text-anchor="start" x="190.5" y="-66" font-family="Helvetica,sans-Serif" font-size="10.00">ml::api::CHierarchicalResults</text>
<text text-anchor="middle" x="254.62" y="-54.75" font-family="Helvetica,sans-Serif" font-size="10.00">Writer::writePivotResult</text>
</a>
</g>
</g>
<!-- Node1&#45;&gt;Node9 -->
<g id="edge9_Node000001_Node000009" class="edge">
<title>Node1&#45;&gt;Node9</title>
<g id="a_edge9_Node000001_Node000009"><a xlink:title=" ">
<path fill="none" stroke="#63b8ff" d="M421.66,-159.77C399.32,-138.85 364.16,-108.63 329,-89.25 322.75,-85.81 315.95,-82.72 309.08,-79.99"/>
<polygon fill="#63b8ff" stroke="#63b8ff" points="419.1,-162.17 428.76,-166.52 423.92,-157.09 419.1,-162.17"/>
</a>
</g>
</g>
<!-- Node10 -->
<g id="Node000010" class="node">
<title>Node10</title>
<g id="a_Node000010"><a xlink:href="../../d2/d7a/classml_1_1api_1_1_c_hierarchical_results_writer.html#a8c34c640a67e47e08aa6034cbc4c9a86" target="_top" xlink:title=" ">
<polygon fill="white" stroke="#666666" points="326.75,-30.5 182.5,-30.5 182.5,0 326.75,0 326.75,-30.5"/>
<text text-anchor="start" x="190.5" y="-17" font-family="Helvetica,sans-Serif" font-size="10.00">ml::api::CHierarchicalResults</text>
<text text-anchor="middle" x="254.62" y="-5.75" font-family="Helvetica,sans-Serif" font-size="10.00">Writer::writePopulationResult</text>
</a>
</g>
</g>
<!-- Node1&#45;&gt;Node10 -->
<g id="edge11_Node000001_Node000010" class="edge">
<title>Node1&#45;&gt;Node10</title>
<g id="a_edge11_Node000001_Node000010"><a xlink:title=" ">
<path fill="none" stroke="#63b8ff" d="M431.18,-158.1C411.86,-126.32 374.58,-71.96 329,-40.25 323.92,-36.71 318.29,-33.64 312.48,-30.98"/>
<polygon fill="#63b8ff" stroke="#63b8ff" points="428.14,-159.83 436.25,-166.64 434.15,-156.26 428.14,-159.83"/>
</a>
</g>
</g>
<!-- Node8 -->
<g id="Node000008" class="node">
<title>Node8</title>
<g id="a_Node000008"><a xlink:href="../../d2/d7a/classml_1_1api_1_1_c_hierarchical_results_writer.html#a299c45abf554a4a915e6c6e1a2a16b15" target="_top" xlink:title="Write node.">
<polygon fill="white" stroke="#666666" points="144.25,-79.5 0,-79.5 0,-49 144.25,-49 144.25,-79.5"/>
<text text-anchor="start" x="8" y="-66" font-family="Helvetica,sans-Serif" font-size="10.00">ml::api::CHierarchicalResults</text>
<text text-anchor="middle" x="72.12" y="-54.75" font-family="Helvetica,sans-Serif" font-size="10.00">Writer::visit</text>
</a>
</g>
</g>
<!-- Node7&#45;&gt;Node8 -->
<g id="edge8_Node000007_Node000008" class="edge">
<title>Node7&#45;&gt;Node8</title>
<g id="a_edge8_Node000007_Node000008"><a xlink:title=" ">
<path fill="none" stroke="#63b8ff" d="M185.12,-94.65C167.32,-89.82 148.31,-84.66 131.11,-79.99"/>
<polygon fill="#63b8ff" stroke="#63b8ff" points="183.99,-97.97 194.56,-97.21 185.82,-91.22 183.99,-97.97"/>
</a>
</g>
</g>
<!-- Node9&#45;&gt;Node8 -->
<g id="edge10_Node000009_Node000008" class="edge">
<title>Node9&#45;&gt;Node8</title>
<g id="a_edge10_Node000009_Node000008"><a xlink:title=" ">
<path fill="none" stroke="#63b8ff" d="M170.67,-64.25C161.98,-64.25 153.19,-64.25 144.64,-64.25"/>
<polygon fill="#63b8ff" stroke="#63b8ff" points="170.51,-67.75 180.51,-64.25 170.51,-60.75 170.51,-67.75"/>
</a>
</g>
</g>
<!-- Node10&#45;&gt;Node8 -->
<g id="edge12_Node000010_Node000008" class="edge">
<title>Node10&#45;&gt;Node8</title>
<g id="a_edge12_Node000010_Node000008"><a xlink:title=" ">
<path fill="none" stroke="#63b8ff" d="M185.12,-33.85C167.32,-38.68 148.31,-43.84 131.11,-48.51"/>
<polygon fill="#63b8ff" stroke="#63b8ff" points="185.82,-37.28 194.56,-31.29 183.99,-30.53 185.82,-37.28"/>
</a>
</g>
</g>
</g>
</svg>

<g id="navigator" transform="translate(0 0)" fill="#404254">
  <rect fill="#f2f5e9" fill-opacity="0.5" stroke="#606060" stroke-width=".5" x="0" y="0" width="60" height="60"/>
  <use id="zoomplus" xlink:href="#zoomPlus" x="17" y="9" onmousedown="handleZoom(evt,'in')"/>
  <use id="zoomminus" xlink:href="#zoomMin" x="42" y="9" onmousedown="handleZoom(evt,'out')"/>
  <use id="reset" xlink:href="#resetDef" x="30" y="36" onmousedown="handleReset()"/>
   <use id="arrowup" xlink:href="#arrowUp" x="0" y="0" onmousedown="handlePan(0,-1)"/>
  <use id="arrowright" xlink:href="#arrowRight" x="0" y="0" onmousedown="handlePan(1,0)"/>
  <use id="arrowdown" xlink:href="#arrowDown" x="0" y="0" onmousedown="handlePan(0,1)"/>
  <use id="arrowleft" xlink:href="#arrowLeft" x="0" y="0" onmousedown="handlePan(-1,0)"/>
</g>
<svg viewBox="0 0 15 15" width="100%" height="30px" preserveAspectRatio="xMaxYMin meet">
 <g id="arrow_out" transform="scale(0.3 0.3)">
  <a xlink:href="classml_1_1model_1_1_c_hierarchical_results_visitor_a940f19c397c8958d3c47b8276b033d32_icgraph_org.svg" target="_base">
   <rect id="button" ry="5" rx="5" y="6" x="6" height="38" width="38"
        fill="#f2f5e9" fill-opacity="0.5" stroke="#606060" stroke-width="1.0"/>
   <path id="arrow"
     d="M 11.500037,31.436501 C 11.940474,20.09759 22.043105,11.32322 32.158766,21.979434 L 37.068811,17.246167 C 37.068811,17.246167 37.088388,32 37.088388,32 L 22.160133,31.978069 C 22.160133,31.978069 26.997745,27.140456 26.997745,27.140456 C 18.528582,18.264221 13.291696,25.230495 11.500037,31.436501 z"
     style="fill:#404040;"/>
  </a>
 </g>
</svg>

<style type='text/css'>
<![CDATA[
[data-mouse-over-selected='false'] { opacity: 0.7; }
[data-mouse-over-selected='true']  { opacity: 1.0; }
]]>
</style>
<script type="application/ecmascript"><![CDATA[
document.addEventListener('DOMContentLoaded', (event) => {
  highlightEdges();
  highlightAdjacentNodes();
});
]]></script>
</svg>
