<?xml version="1.0" encoding="UTF-8" standalone="no"?>
<!DOCTYPE svg PUBLIC "-//W3C//DTD SVG 1.1//EN"
 "http://www.w3.org/Graphics/SVG/1.1/DTD/svg11.dtd">
<!-- Generated by graphviz version 10.0.1 (20240210.2158)
 -->
<!-- Title: ml::maths::common::CAnnotatedVector::memoryUsage Pages: 1 -->
<svg width="704pt" height="126pt"
 viewBox="0.00 0.00 704.25 125.75" xmlns="http://www.w3.org/2000/svg" xmlns:xlink="http://www.w3.org/1999/xlink">
<g id="graph0" class="graph" transform="scale(1 1) rotate(0) translate(4 121.75)">
<title>ml::maths::common::CAnnotatedVector::memoryUsage</title>
<!-- Node1 -->
<g id="Node000001" class="node">
<title>Node1</title>
<g id="a_Node000001"><a xlink:title="Get the memory used by this object.">
<polygon fill="#999999" stroke="#666666" points="166,-58.12 0,-58.12 0,-27.62 166,-27.62 166,-58.12"/>
<text text-anchor="start" x="8" y="-44.62" font-family="Helvetica,sans-Serif" font-size="10.00">ml::maths::common::</text>
<text text-anchor="middle" x="83" y="-33.38" font-family="Helvetica,sans-Serif" font-size="10.00">CAnnotatedVector::memoryUsage</text>
</a>
</g>
</g>
<!-- Node2 -->
<g id="Node000002" class="node">
<title>Node2</title>
<g id="a_Node000002"><a xlink:href="../../d0/d74/namespaceml_1_1core_1_1memory.html#a50fe883268170c17625e18a0c5fea04b" target="_top" xlink:title="Default implementation for non&#45;pointer types.">
<polygon fill="white" stroke="#666666" points="356.75,-52.5 202,-52.5 202,-33.25 356.75,-33.25 356.75,-52.5"/>
<text text-anchor="middle" x="279.38" y="-39" font-family="Helvetica,sans-Serif" font-size="10.00">ml::core::memory::dynamicSize</text>
</a>
</g>
</g>
<!-- Node1&#45;&gt;Node2 -->
<g id="edge1_Node000001_Node000002" class="edge">
<title>Node1&#45;&gt;Node2</title>
<g id="a_edge1_Node000001_Node000002"><a xlink:title=" ">
<path fill="none" stroke="#63b8ff" d="M166.43,-42.88C174.29,-42.88 182.28,-42.88 190.18,-42.88"/>
<polygon fill="#63b8ff" stroke="#63b8ff" points="190.17,-46.38 200.17,-42.88 190.17,-39.38 190.17,-46.38"/>
</a>
</g>
</g>
<!-- Node3 -->
<g id="Node000003" class="node">
<title>Node3</title>
<g id="a_Node000003"><a xlink:href="../../d9/d0b/structml_1_1core_1_1memory__detail_1_1_s_memory_dynamic_size.html#a49a680749a1d1861b69990d788154833" target="_top" xlink:title=" ">
<polygon fill="white" stroke="#666666" points="521.25,-117.75 392.75,-117.75 392.75,-76 521.25,-76 521.25,-117.75"/>
<text text-anchor="start" x="400.75" y="-104.25" font-family="Helvetica,sans-Serif" font-size="10.00">ml::core::memory_detail</text>
<text text-anchor="start" x="400.75" y="-93" font-family="Helvetica,sans-Serif" font-size="10.00">::SMemoryDynamicSize::</text>
<text text-anchor="middle" x="457" y="-81.75" font-family="Helvetica,sans-Serif" font-size="10.00">dispatch</text>
</a>
</g>
</g>
<!-- Node2&#45;&gt;Node3 -->
<g id="edge2_Node000002_Node000003" class="edge">
<title>Node2&#45;&gt;Node3</title>
<g id="a_edge2_Node000002_Node000003"><a xlink:title=" ">
<path fill="none" stroke="#63b8ff" d="M313,-52.91C332.27,-58.83 357.5,-66.59 381.39,-73.94"/>
<polygon fill="#63b8ff" stroke="#63b8ff" points="380.22,-77.24 390.81,-76.83 382.28,-70.55 380.22,-77.24"/>
</a>
</g>
</g>
<!-- Node4 -->
<g id="Node000004" class="node">
<title>Node4</title>
<g id="a_Node000004"><a xlink:href="../../db/df7/namespaceml_1_1core_1_1memory__detail.html#ac2d4d02cd0f6d8d7d1355958a49fce43" target="_top" xlink:title="Check if we expect an overloaded dynamicSize function.">
<polygon fill="white" stroke="#666666" points="519.75,-58.12 394.25,-58.12 394.25,-27.62 519.75,-27.62 519.75,-58.12"/>
<text text-anchor="start" x="402.25" y="-44.62" font-family="Helvetica,sans-Serif" font-size="10.00">ml::core::memory_detail</text>
<text text-anchor="middle" x="457" y="-33.38" font-family="Helvetica,sans-Serif" font-size="10.00">::expectMemoryOverload</text>
</a>
</g>
</g>
<!-- Node2&#45;&gt;Node4 -->
<g id="edge3_Node000002_Node000004" class="edge">
<title>Node2&#45;&gt;Node4</title>
<g id="a_edge3_Node000002_Node000004"><a xlink:title=" ">
<path fill="none" stroke="#63b8ff" d="M357.15,-42.88C365.59,-42.88 374.17,-42.88 382.57,-42.88"/>
<polygon fill="#63b8ff" stroke="#63b8ff" points="382.36,-46.38 392.36,-42.88 382.36,-39.38 382.36,-46.38"/>
</a>
</g>
</g>
<!-- Node5 -->
<g id="Node000005" class="node">
<title>Node5</title>
<g id="a_Node000005"><a xlink:href="../../d2/d21/structml_1_1core_1_1memory__detail_1_1_s_dynamic_size_always_zero.html#a710ac6fc2d5760a396bb2d46a66a73b2" target="_top" xlink:title=" ">
<polygon fill="white" stroke="#666666" points="696.25,-41.75 557.25,-41.75 557.25,0 696.25,0 696.25,-41.75"/>
<text text-anchor="start" x="565.25" y="-28.25" font-family="Helvetica,sans-Serif" font-size="10.00">ml::core::memory_detail</text>
<text text-anchor="start" x="565.25" y="-17" font-family="Helvetica,sans-Serif" font-size="10.00">::SDynamicSizeAlwaysZero</text>
<text text-anchor="middle" x="626.75" y="-5.75" font-family="Helvetica,sans-Serif" font-size="10.00">::value</text>
</a>
</g>
</g>
<!-- Node2&#45;&gt;Node5 -->
<g id="edge5_Node000002_Node000005" class="edge">
<title>Node2&#45;&gt;Node5</title>
<g id="a_edge5_Node000002_Node000005"><a xlink:title=" ">
<path fill="none" stroke="#63b8ff" d="M318.03,-32.76C339.7,-27.46 367.55,-21.54 392.75,-18.88 449.55,-12.88 464.14,-18.33 521.25,-18.88 529.08,-18.95 537.24,-19.06 545.4,-19.18"/>
<polygon fill="#63b8ff" stroke="#63b8ff" points="545.32,-22.68 555.38,-19.35 545.44,-15.68 545.32,-22.68"/>
</a>
</g>
</g>
<!-- Node4&#45;&gt;Node5 -->
<g id="edge4_Node000004_Node000005" class="edge">
<title>Node4&#45;&gt;Node5</title>
<g id="a_edge4_Node000004_Node000005"><a xlink:title=" ">
<path fill="none" stroke="#63b8ff" d="M519.99,-34.75C528.36,-33.65 537.04,-32.51 545.67,-31.38"/>
<polygon fill="#63b8ff" stroke="#63b8ff" points="546,-34.86 555.46,-30.09 545.09,-27.92 546,-34.86"/>
</a>
</g>
</g>
</g>
</svg>
