<?xml version="1.0" encoding="UTF-8" standalone="no"?>
<!DOCTYPE svg PUBLIC "-//W3C//DTD SVG 1.1//EN"
 "http://www.w3.org/Graphics/SVG/1.1/DTD/svg11.dtd">
<!-- Generated by graphviz version 10.0.1 (20240210.2158)
 -->
<!-- Title: ml::maths::common::CBootstrapClusterer::separate Pages: 1 -->
<svg width="1006pt" height="158pt"
 viewBox="0.00 0.00 1005.50 158.00" xmlns="http://www.w3.org/2000/svg" xmlns:xlink="http://www.w3.org/1999/xlink">
<g id="graph0" class="graph" transform="scale(1 1) rotate(0) translate(4 154)">
<title>ml::maths::common::CBootstrapClusterer::separate</title>
<!-- Node1 -->
<g id="Node000001" class="node">
<title>Node1</title>
<g id="a_Node000001"><a xlink:title=" ">
<polygon fill="#999999" stroke="#666666" points="997.5,-111.38 888.5,-111.38 888.5,-69.62 997.5,-69.62 997.5,-111.38"/>
<text text-anchor="start" x="896.5" y="-97.88" font-family="Helvetica,sans-Serif" font-size="10.00">ml::maths::common::</text>
<text text-anchor="start" x="896.5" y="-86.62" font-family="Helvetica,sans-Serif" font-size="10.00">CBootstrapClusterer</text>
<text text-anchor="middle" x="943" y="-75.38" font-family="Helvetica,sans-Serif" font-size="10.00">::separate</text>
</a>
</g>
</g>
<!-- Node2 -->
<g id="Node000002" class="node">
<title>Node2</title>
<g id="a_Node000002"><a xlink:href="../../d4/d0e/classanonymous__namespace_02_c_bootstrap_clusterer_test_8cc_03_1_1_c_bootstrap_clusterer_for_test.html#a99f045e479d98ce28a8711d191203929" target="_top" xlink:title=" ">
<polygon fill="white" stroke="#666666" points="852.5,-150 688.75,-150 688.75,-97 852.5,-97 852.5,-150"/>
<text text-anchor="start" x="696.75" y="-136.5" font-family="Helvetica,sans-Serif" font-size="10.00">anonymous_namespace</text>
<text text-anchor="start" x="696.75" y="-125.25" font-family="Helvetica,sans-Serif" font-size="10.00">{CBootstrapClustererTest</text>
<text text-anchor="start" x="696.75" y="-114" font-family="Helvetica,sans-Serif" font-size="10.00">::cc}::CBootstrapClustererForTest</text>
<text text-anchor="middle" x="770.62" y="-102.75" font-family="Helvetica,sans-Serif" font-size="10.00">::separate</text>
</a>
</g>
</g>
<!-- Node1&#45;&gt;Node2 -->
<g id="edge1_Node000001_Node000002" class="edge">
<title>Node1&#45;&gt;Node2</title>
<g id="a_edge1_Node000001_Node000002"><a xlink:title=" ">
<path fill="none" stroke="#63b8ff" d="M876.82,-103.13C868.98,-104.64 860.91,-106.21 852.88,-107.76"/>
<polygon fill="#63b8ff" stroke="#63b8ff" points="877.45,-106.57 886.61,-101.23 876.12,-99.69 877.45,-106.57"/>
</a>
</g>
</g>
<!-- Node3 -->
<g id="Node000003" class="node">
<title>Node3</title>
<g id="a_Node000003"><a xlink:href="../../dd/d00/classml_1_1maths_1_1common_1_1_c_bootstrap_clusterer.html#a793c590c4fddad2adbd14e2eab17ed26" target="_top" xlink:title=" ">
<polygon fill="white" stroke="#666666" points="825.12,-79.38 716.12,-79.38 716.12,-37.62 825.12,-37.62 825.12,-79.38"/>
<text text-anchor="start" x="724.12" y="-65.88" font-family="Helvetica,sans-Serif" font-size="10.00">ml::maths::common::</text>
<text text-anchor="start" x="724.12" y="-54.62" font-family="Helvetica,sans-Serif" font-size="10.00">CBootstrapClusterer</text>
<text text-anchor="middle" x="770.62" y="-43.38" font-family="Helvetica,sans-Serif" font-size="10.00">::thickets</text>
</a>
</g>
</g>
<!-- Node1&#45;&gt;Node3 -->
<g id="edge2_Node000001_Node000003" class="edge">
<title>Node1&#45;&gt;Node3</title>
<g id="a_edge2_Node000001_Node000003"><a xlink:title=" ">
<path fill="none" stroke="#63b8ff" d="M877.09,-78.31C860.05,-75.11 841.86,-71.69 825.47,-68.61"/>
<polygon fill="#63b8ff" stroke="#63b8ff" points="876.13,-81.69 886.6,-80.1 877.42,-74.81 876.13,-81.69"/>
</a>
</g>
</g>
<!-- Node4 -->
<g id="Node000004" class="node">
<title>Node4</title>
<g id="a_Node000004"><a xlink:href="../../dd/d00/classml_1_1maths_1_1common_1_1_c_bootstrap_clusterer.html#a4517878593056f5244b08369013e597f" target="_top" xlink:title=" ">
<polygon fill="white" stroke="#666666" points="625.38,-112.38 516.38,-112.38 516.38,-70.62 625.38,-70.62 625.38,-112.38"/>
<text text-anchor="start" x="524.38" y="-98.88" font-family="Helvetica,sans-Serif" font-size="10.00">ml::maths::common::</text>
<text text-anchor="start" x="524.38" y="-87.62" font-family="Helvetica,sans-Serif" font-size="10.00">CBootstrapClusterer</text>
<text text-anchor="middle" x="570.88" y="-76.38" font-family="Helvetica,sans-Serif" font-size="10.00">::buildClusters</text>
</a>
</g>
</g>
<!-- Node3&#45;&gt;Node4 -->
<g id="edge3_Node000003_Node000004" class="edge">
<title>Node3&#45;&gt;Node4</title>
<g id="a_edge3_Node000003_Node000004"><a xlink:title=" ">
<path fill="none" stroke="#63b8ff" d="M704.73,-69.33C679.12,-73.6 650.05,-78.45 625.64,-82.53"/>
<polygon fill="#63b8ff" stroke="#63b8ff" points="705.07,-72.82 714.36,-67.72 703.92,-65.92 705.07,-72.82"/>
</a>
</g>
</g>
<!-- Node10 -->
<g id="Node000010" class="node">
<title>Node10</title>
<g id="a_Node000010"><a xlink:href="../../d4/d0e/classanonymous__namespace_02_c_bootstrap_clusterer_test_8cc_03_1_1_c_bootstrap_clusterer_for_test.html#a94dc5f652dd8726e2e3f66b60156154b" target="_top" xlink:title=" ">
<polygon fill="white" stroke="#666666" points="652.75,-53 489,-53 489,0 652.75,0 652.75,-53"/>
<text text-anchor="start" x="497" y="-39.5" font-family="Helvetica,sans-Serif" font-size="10.00">anonymous_namespace</text>
<text text-anchor="start" x="497" y="-28.25" font-family="Helvetica,sans-Serif" font-size="10.00">{CBootstrapClustererTest</text>
<text text-anchor="start" x="497" y="-17" font-family="Helvetica,sans-Serif" font-size="10.00">::cc}::CBootstrapClustererForTest</text>
<text text-anchor="middle" x="570.88" y="-5.75" font-family="Helvetica,sans-Serif" font-size="10.00">::thickets</text>
</a>
</g>
</g>
<!-- Node3&#45;&gt;Node10 -->
<g id="edge9_Node000003_Node000010" class="edge">
<title>Node3&#45;&gt;Node10</title>
<g id="a_edge9_Node000003_Node000010"><a xlink:title=" ">
<path fill="none" stroke="#63b8ff" d="M704.7,-47.99C688.21,-45.33 670.3,-42.43 653.12,-39.65"/>
<polygon fill="#63b8ff" stroke="#63b8ff" points="703.93,-51.41 714.36,-49.56 705.04,-44.5 703.93,-51.41"/>
</a>
</g>
</g>
<!-- Node5 -->
<g id="Node000005" class="node">
<title>Node5</title>
<g id="a_Node000005"><a xlink:href="../../dd/d00/classml_1_1maths_1_1common_1_1_c_bootstrap_clusterer.html#aa8c417f49afcfd1c33880c7e2bd4dcfd" target="_top" xlink:title=" ">
<polygon fill="white" stroke="#666666" points="453,-106.75 328.25,-106.75 328.25,-76.25 453,-76.25 453,-106.75"/>
<text text-anchor="start" x="336.25" y="-93.25" font-family="Helvetica,sans-Serif" font-size="10.00">ml::maths::common::</text>
<text text-anchor="middle" x="390.62" y="-82" font-family="Helvetica,sans-Serif" font-size="10.00">CBootstrapClusterer::run</text>
</a>
</g>
</g>
<!-- Node4&#45;&gt;Node5 -->
<g id="edge4_Node000004_Node000005" class="edge">
<title>Node4&#45;&gt;Node5</title>
<g id="a_edge4_Node000004_Node000005"><a xlink:title=" ">
<path fill="none" stroke="#63b8ff" d="M504.53,-91.5C487.76,-91.5 469.78,-91.5 453.21,-91.5"/>
<polygon fill="#63b8ff" stroke="#63b8ff" points="504.4,-95 514.4,-91.5 504.4,-88 504.4,-95"/>
</a>
</g>
</g>
<!-- Node6 -->
<g id="Node000006" class="node">
<title>Node6</title>
<g id="a_Node000006"><a xlink:href="../../d6/dd5/namespaceml_1_1maths_1_1common.html#aabd7128384bbfcd2736cf13d2ce453c2" target="_top" xlink:title="Cluster points using B bootstrap samples using k&#45;means.">
<polygon fill="white" stroke="#666666" points="292.25,-131.75 183.25,-131.75 183.25,-101.25 292.25,-101.25 292.25,-131.75"/>
<text text-anchor="start" x="191.25" y="-118.25" font-family="Helvetica,sans-Serif" font-size="10.00">ml::maths::common::</text>
<text text-anchor="middle" x="237.75" y="-107" font-family="Helvetica,sans-Serif" font-size="10.00">bootstrapCluster</text>
</a>
</g>
</g>
<!-- Node5&#45;&gt;Node6 -->
<g id="edge5_Node000005_Node000006" class="edge">
<title>Node5&#45;&gt;Node6</title>
<g id="a_edge5_Node000005_Node000006"><a xlink:title=" ">
<path fill="none" stroke="#63b8ff" d="M316.74,-103.58C308.57,-104.93 300.36,-106.29 292.49,-107.6"/>
<polygon fill="#63b8ff" stroke="#63b8ff" points="317.04,-107.08 326.33,-101.99 315.89,-100.17 317.04,-107.08"/>
</a>
</g>
</g>
<!-- Node7 -->
<g id="Node000007" class="node">
<title>Node7</title>
<g id="a_Node000007"><a xlink:href="../../d6/dd5/namespaceml_1_1maths_1_1common.html#aa90935097a74d25465b30b362d82da7d" target="_top" xlink:title=" ">
<polygon fill="white" stroke="#666666" points="292.25,-82.75 183.25,-82.75 183.25,-52.25 292.25,-52.25 292.25,-82.75"/>
<text text-anchor="start" x="191.25" y="-69.25" font-family="Helvetica,sans-Serif" font-size="10.00">ml::maths::common::</text>
<text text-anchor="middle" x="237.75" y="-58" font-family="Helvetica,sans-Serif" font-size="10.00">bootstrapCluster</text>
</a>
</g>
</g>
<!-- Node5&#45;&gt;Node7 -->
<g id="edge6_Node000005_Node000007" class="edge">
<title>Node5&#45;&gt;Node7</title>
<g id="a_edge6_Node000005_Node000007"><a xlink:title=" ">
<path fill="none" stroke="#63b8ff" d="M316.46,-79.86C308.38,-78.58 300.27,-77.29 292.49,-76.05"/>
<polygon fill="#63b8ff" stroke="#63b8ff" points="315.9,-83.32 326.33,-81.43 317,-76.4 315.9,-83.32"/>
</a>
</g>
</g>
<!-- Node8 -->
<g id="Node000008" class="node">
<title>Node8</title>
<g id="a_Node000008"><a xlink:href="../../da/dd9/_c_bootstrap_clusterer_test_8cc.html#a827f72a6bc2775ceff50425a5649ba21" target="_top" xlink:title=" ">
<polygon fill="white" stroke="#666666" points="147.25,-96.12 0,-96.12 0,-76.88 147.25,-76.88 147.25,-96.12"/>
<text text-anchor="middle" x="73.62" y="-82.62" font-family="Helvetica,sans-Serif" font-size="10.00">BOOST_AUTO_TEST_CASE</text>
</a>
</g>
</g>
<!-- Node7&#45;&gt;Node8 -->
<g id="edge7_Node000007_Node000008" class="edge">
<title>Node7&#45;&gt;Node8</title>
<g id="a_edge7_Node000007_Node000008"><a xlink:title=" ">
<path fill="none" stroke="#63b8ff" d="M171.48,-75.15C163.66,-76.07 155.63,-77.01 147.71,-77.93"/>
<polygon fill="#63b8ff" stroke="#63b8ff" points="171.74,-78.64 181.26,-74 170.92,-71.69 171.74,-78.64"/>
</a>
</g>
</g>
<!-- Node9 -->
<g id="Node000009" class="node">
<title>Node9</title>
<g id="a_Node000009"><a xlink:href="../../da/dd9/_c_bootstrap_clusterer_test_8cc.html#a8b6fd6dbbc11dcbb38b70853d4a6f621" target="_top" xlink:title=" ">
<polygon fill="white" stroke="#666666" points="147.25,-59.12 0,-59.12 0,-39.88 147.25,-39.88 147.25,-59.12"/>
<text text-anchor="middle" x="73.62" y="-45.62" font-family="Helvetica,sans-Serif" font-size="10.00">BOOST_AUTO_TEST_CASE</text>
</a>
</g>
</g>
<!-- Node7&#45;&gt;Node9 -->
<g id="edge8_Node000007_Node000009" class="edge">
<title>Node7&#45;&gt;Node9</title>
<g id="a_edge8_Node000007_Node000009"><a xlink:title=" ">
<path fill="none" stroke="#63b8ff" d="M171.48,-60.25C163.66,-59.39 155.63,-58.49 147.71,-57.61"/>
<polygon fill="#63b8ff" stroke="#63b8ff" points="170.94,-63.71 181.26,-61.34 171.71,-56.76 170.94,-63.71"/>
</a>
</g>
</g>
</g>
</svg>
