<?xml version="1.0" encoding="UTF-8" standalone="no"?>
<!DOCTYPE svg PUBLIC "-//W3C//DTD SVG 1.1//EN"
 "http://www.w3.org/Graphics/SVG/1.1/DTD/svg11.dtd">
<!-- Generated by graphviz version 10.0.1 (20240210.2158)
 -->
<!-- Title: ml::maths::analytics::CBoostedTreeLeafNodeStatistics::candidateSplits Pages: 1 -->
<svg width="1088pt" height="454pt"
 viewBox="0.00 0.00 1087.75 454.00" xmlns="http://www.w3.org/2000/svg" xmlns:xlink="http://www.w3.org/1999/xlink">
<g id="graph0" class="graph" transform="scale(1 1) rotate(0) translate(4 450)">
<title>ml::maths::analytics::CBoostedTreeLeafNodeStatistics::candidateSplits</title>
<!-- Node1 -->
<g id="Node000001" class="node">
<title>Node1</title>
<g id="a_Node000001"><a xlink:title=" ">
<polygon fill="#999999" stroke="#666666" points="1079.75,-249.38 911.5,-249.38 911.5,-207.62 1079.75,-207.62 1079.75,-249.38"/>
<text text-anchor="start" x="919.5" y="-235.88" font-family="Helvetica,sans-Serif" font-size="10.00">ml::maths::analytics</text>
<text text-anchor="start" x="919.5" y="-224.62" font-family="Helvetica,sans-Serif" font-size="10.00">::CBoostedTreeLeafNodeStatistics</text>
<text text-anchor="middle" x="995.62" y="-213.38" font-family="Helvetica,sans-Serif" font-size="10.00">::candidateSplits</text>
</a>
</g>
</g>
<!-- Node2 -->
<g id="Node000002" class="node">
<title>Node2</title>
<g id="a_Node000002"><a xlink:href="../../dd/d3e/classml_1_1maths_1_1analytics_1_1_c_boosted_tree_leaf_node_statistics_incremental.html#a87c50aeebda7b2f957a61606295451ba" target="_top" xlink:title=" ">
<polygon fill="white" stroke="#666666" points="667.12,-298.38 493.62,-298.38 493.62,-256.62 667.12,-256.62 667.12,-298.38"/>
<text text-anchor="start" x="501.62" y="-284.88" font-family="Helvetica,sans-Serif" font-size="10.00">ml::maths::analytics</text>
<text text-anchor="start" x="501.62" y="-273.62" font-family="Helvetica,sans-Serif" font-size="10.00">::CBoostedTreeLeafNodeStatistics</text>
<text text-anchor="middle" x="580.38" y="-262.38" font-family="Helvetica,sans-Serif" font-size="10.00">Incremental::featureBestSplitSearch</text>
</a>
</g>
</g>
<!-- Node1&#45;&gt;Node2 -->
<g id="edge1_Node000001_Node000002" class="edge">
<title>Node1&#45;&gt;Node2</title>
<g id="a_edge1_Node000001_Node000002"><a xlink:title=" ">
<path fill="none" stroke="#63b8ff" d="M907.4,-252.4C896.72,-254.75 885.9,-256.87 875.5,-258.5 805.99,-269.4 726.3,-274.08 667.42,-276.06"/>
<polygon fill="#63b8ff" stroke="#63b8ff" points="908.03,-255.84 917,-250.2 906.47,-249.02 908.03,-255.84"/>
</a>
</g>
</g>
<!-- Node8 -->
<g id="Node000008" class="node">
<title>Node8</title>
<g id="a_Node000008"><a xlink:href="../../d7/d16/classml_1_1maths_1_1analytics_1_1_c_boosted_tree_leaf_node_statistics_scratch.html#a7bf7df4a4e12a976495091fd48ea307f" target="_top" xlink:title=" ">
<polygon fill="white" stroke="#666666" points="873.62,-189.38 705.38,-189.38 705.38,-147.62 873.62,-147.62 873.62,-189.38"/>
<text text-anchor="start" x="713.38" y="-175.88" font-family="Helvetica,sans-Serif" font-size="10.00">ml::maths::analytics</text>
<text text-anchor="start" x="713.38" y="-164.62" font-family="Helvetica,sans-Serif" font-size="10.00">::CBoostedTreeLeafNodeStatistics</text>
<text text-anchor="middle" x="789.5" y="-153.38" font-family="Helvetica,sans-Serif" font-size="10.00">Scratch::featureBestSplitSearch</text>
</a>
</g>
</g>
<!-- Node1&#45;&gt;Node8 -->
<g id="edge7_Node000001_Node000008" class="edge">
<title>Node1&#45;&gt;Node8</title>
<g id="a_edge7_Node000001_Node000008"><a xlink:title=" ">
<path fill="none" stroke="#63b8ff" d="M911.18,-203.97C895.26,-199.29 878.71,-194.43 863.15,-189.86"/>
<polygon fill="#63b8ff" stroke="#63b8ff" points="910.05,-207.29 920.63,-206.75 912.02,-200.57 910.05,-207.29"/>
</a>
</g>
</g>
<!-- Node13 -->
<g id="Node000013" class="node">
<title>Node13</title>
<g id="a_Node000013"><a xlink:href="../../dd/d3e/classml_1_1maths_1_1analytics_1_1_c_boosted_tree_leaf_node_statistics_incremental.html#afb28f129a824d7bdfdb23527b4af13e3" target="_top" xlink:title=" ">
<polygon fill="white" stroke="#666666" points="875.5,-249.38 703.5,-249.38 703.5,-207.62 875.5,-207.62 875.5,-249.38"/>
<text text-anchor="start" x="711.5" y="-235.88" font-family="Helvetica,sans-Serif" font-size="10.00">ml::maths::analytics</text>
<text text-anchor="start" x="711.5" y="-224.62" font-family="Helvetica,sans-Serif" font-size="10.00">::CBoostedTreeLeafNodeStatistics</text>
<text text-anchor="middle" x="789.5" y="-213.38" font-family="Helvetica,sans-Serif" font-size="10.00">Incremental::penaltyForTreeChange</text>
</a>
</g>
</g>
<!-- Node1&#45;&gt;Node13 -->
<g id="edge13_Node000001_Node000013" class="edge">
<title>Node1&#45;&gt;Node13</title>
<g id="a_edge13_Node000001_Node000013"><a xlink:title=" ">
<path fill="none" stroke="#63b8ff" d="M899.55,-228.5C891.68,-228.5 883.76,-228.5 875.97,-228.5"/>
<polygon fill="#63b8ff" stroke="#63b8ff" points="899.5,-232 909.5,-228.5 899.5,-225 899.5,-232"/>
</a>
</g>
</g>
<!-- Node3 -->
<g id="Node000003" class="node">
<title>Node3</title>
<g id="a_Node000003"><a xlink:href="../../dd/d3e/classml_1_1maths_1_1analytics_1_1_c_boosted_tree_leaf_node_statistics_incremental.html#a148adb8fd7b6ad022e084aba0fb48d9f" target="_top" xlink:title=" ">
<polygon fill="white" stroke="#666666" points="452,-298.38 260.5,-298.38 260.5,-256.62 452,-256.62 452,-298.38"/>
<text text-anchor="start" x="268.5" y="-284.88" font-family="Helvetica,sans-Serif" font-size="10.00">ml::maths::analytics</text>
<text text-anchor="start" x="268.5" y="-273.62" font-family="Helvetica,sans-Serif" font-size="10.00">::CBoostedTreeLeafNodeStatistics</text>
<text text-anchor="middle" x="356.25" y="-262.38" font-family="Helvetica,sans-Serif" font-size="10.00">Incremental::computeBestSplitStatistics</text>
</a>
</g>
</g>
<!-- Node2&#45;&gt;Node3 -->
<g id="edge2_Node000002_Node000003" class="edge">
<title>Node2&#45;&gt;Node3</title>
<g id="a_edge2_Node000002_Node000003"><a xlink:title=" ">
<path fill="none" stroke="#63b8ff" d="M481.76,-277.5C471.96,-277.5 462.01,-277.5 452.24,-277.5"/>
<polygon fill="#63b8ff" stroke="#63b8ff" points="481.66,-281 491.66,-277.5 481.66,-274 481.66,-281"/>
</a>
</g>
</g>
<!-- Node4 -->
<g id="Node000004" class="node">
<title>Node4</title>
<g id="a_Node000004"><a xlink:href="../../da/d0f/_c_boosted_tree_leaf_node_statistics_test_8cc.html#a12e25436cd30e1de9f5cd30640b2318d" target="_top" xlink:title=" ">
<polygon fill="white" stroke="#666666" points="183.25,-233.12 36,-233.12 36,-213.88 183.25,-213.88 183.25,-233.12"/>
<text text-anchor="middle" x="109.62" y="-219.62" font-family="Helvetica,sans-Serif" font-size="10.00">BOOST_AUTO_TEST_CASE</text>
</a>
</g>
</g>
<!-- Node3&#45;&gt;Node4 -->
<g id="edge3_Node000003_Node000004" class="edge">
<title>Node3&#45;&gt;Node4</title>
<g id="a_edge3_Node000003_Node000004"><a xlink:title=" ">
<path fill="none" stroke="#63b8ff" d="M265.63,-253.37C250.21,-249.52 234.3,-245.75 219.25,-242.5 204.47,-239.31 188.46,-236.28 173.4,-233.61"/>
<polygon fill="#63b8ff" stroke="#63b8ff" points="264.73,-256.75 275.29,-255.81 266.45,-249.97 264.73,-256.75"/>
</a>
</g>
</g>
<!-- Node5 -->
<g id="Node000005" class="node">
<title>Node5</title>
<g id="a_Node000005"><a xlink:href="../../dd/d3e/classml_1_1maths_1_1analytics_1_1_c_boosted_tree_leaf_node_statistics_incremental.html#a35d65536888b061faf1fb6a447347a99" target="_top" xlink:title="Only called by split but is public so it&#39;s accessible to std::make_shared.">
<polygon fill="white" stroke="#666666" points="219.25,-375 0,-375 0,-322 219.25,-322 219.25,-375"/>
<text text-anchor="start" x="8" y="-361.5" font-family="Helvetica,sans-Serif" font-size="10.00">ml::maths::analytics</text>
<text text-anchor="start" x="8" y="-350.25" font-family="Helvetica,sans-Serif" font-size="10.00">::CBoostedTreeLeafNodeStatistics</text>
<text text-anchor="start" x="8" y="-339" font-family="Helvetica,sans-Serif" font-size="10.00">Incremental::CBoostedTreeLeafNodeStatistics</text>
<text text-anchor="middle" x="109.62" y="-327.75" font-family="Helvetica,sans-Serif" font-size="10.00">Incremental</text>
</a>
</g>
</g>
<!-- Node3&#45;&gt;Node5 -->
<g id="edge4_Node000003_Node000005" class="edge">
<title>Node3&#45;&gt;Node5</title>
<g id="a_edge4_Node000003_Node000005"><a xlink:title=" ">
<path fill="none" stroke="#63b8ff" d="M270.99,-301.95C249.23,-308.27 225.68,-315.11 203.51,-321.54"/>
<polygon fill="#63b8ff" stroke="#63b8ff" points="271.77,-305.37 280.4,-299.22 269.82,-298.65 271.77,-305.37"/>
</a>
</g>
</g>
<!-- Node6 -->
<g id="Node000006" class="node">
<title>Node6</title>
<g id="a_Node000006"><a xlink:href="../../dd/d3e/classml_1_1maths_1_1analytics_1_1_c_boosted_tree_leaf_node_statistics_incremental.html#af3b4e69634a5df9f9c05993f4c91eada" target="_top" xlink:title="Only called by split but is public so it&#39;s accessible to std::make_shared.">
<polygon fill="white" stroke="#666666" points="219.25,-304 0,-304 0,-251 219.25,-251 219.25,-304"/>
<text text-anchor="start" x="8" y="-290.5" font-family="Helvetica,sans-Serif" font-size="10.00">ml::maths::analytics</text>
<text text-anchor="start" x="8" y="-279.25" font-family="Helvetica,sans-Serif" font-size="10.00">::CBoostedTreeLeafNodeStatistics</text>
<text text-anchor="start" x="8" y="-268" font-family="Helvetica,sans-Serif" font-size="10.00">Incremental::CBoostedTreeLeafNodeStatistics</text>
<text text-anchor="middle" x="109.62" y="-256.75" font-family="Helvetica,sans-Serif" font-size="10.00">Incremental</text>
</a>
</g>
</g>
<!-- Node3&#45;&gt;Node6 -->
<g id="edge5_Node000003_Node000006" class="edge">
<title>Node3&#45;&gt;Node6</title>
<g id="a_edge5_Node000003_Node000006"><a xlink:title=" ">
<path fill="none" stroke="#63b8ff" d="M249.01,-277.5C239.31,-277.5 229.47,-277.5 219.74,-277.5"/>
<polygon fill="#63b8ff" stroke="#63b8ff" points="248.81,-281 258.81,-277.5 248.81,-274 248.81,-281"/>
</a>
</g>
</g>
<!-- Node7 -->
<g id="Node000007" class="node">
<title>Node7</title>
<g id="a_Node000007"><a xlink:href="../../dd/d3e/classml_1_1maths_1_1analytics_1_1_c_boosted_tree_leaf_node_statistics_incremental.html#a58fd2782d8c92cc89789b5307d1dd44e" target="_top" xlink:title=" ">
<polygon fill="white" stroke="#666666" points="219.25,-446 0,-446 0,-393 219.25,-393 219.25,-446"/>
<text text-anchor="start" x="8" y="-432.5" font-family="Helvetica,sans-Serif" font-size="10.00">ml::maths::analytics</text>
<text text-anchor="start" x="8" y="-421.25" font-family="Helvetica,sans-Serif" font-size="10.00">::CBoostedTreeLeafNodeStatistics</text>
<text text-anchor="start" x="8" y="-410" font-family="Helvetica,sans-Serif" font-size="10.00">Incremental::CBoostedTreeLeafNodeStatistics</text>
<text text-anchor="middle" x="109.62" y="-398.75" font-family="Helvetica,sans-Serif" font-size="10.00">Incremental</text>
</a>
</g>
</g>
<!-- Node3&#45;&gt;Node7 -->
<g id="edge6_Node000003_Node000007" class="edge">
<title>Node3&#45;&gt;Node7</title>
<g id="a_edge6_Node000003_Node000007"><a xlink:title=" ">
<path fill="none" stroke="#63b8ff" d="M325.09,-306.43C298.9,-330.21 259.04,-363.32 219.25,-384.5 213.83,-387.39 208.13,-390.09 202.29,-392.6"/>
<polygon fill="#63b8ff" stroke="#63b8ff" points="327.33,-309.13 332.31,-299.78 322.58,-303.98 327.33,-309.13"/>
</a>
</g>
</g>
<!-- Node9 -->
<g id="Node000009" class="node">
<title>Node9</title>
<g id="a_Node000009"><a xlink:href="../../d7/d16/classml_1_1maths_1_1analytics_1_1_c_boosted_tree_leaf_node_statistics_scratch.html#abf8d02e25f46d9d9d0dbe61376e66999" target="_top" xlink:title=" ">
<polygon fill="white" stroke="#666666" points="667.5,-189.38 493.25,-189.38 493.25,-147.62 667.5,-147.62 667.5,-189.38"/>
<text text-anchor="start" x="501.25" y="-175.88" font-family="Helvetica,sans-Serif" font-size="10.00">ml::maths::analytics</text>
<text text-anchor="start" x="501.25" y="-164.62" font-family="Helvetica,sans-Serif" font-size="10.00">::CBoostedTreeLeafNodeStatistics</text>
<text text-anchor="middle" x="580.38" y="-153.38" font-family="Helvetica,sans-Serif" font-size="10.00">Scratch::computeBestSplitStatistics</text>
</a>
</g>
</g>
<!-- Node8&#45;&gt;Node9 -->
<g id="edge8_Node000008_Node000009" class="edge">
<title>Node8&#45;&gt;Node9</title>
<g id="a_edge8_Node000008_Node000009"><a xlink:title=" ">
<path fill="none" stroke="#63b8ff" d="M693.86,-168.5C685.22,-168.5 676.5,-168.5 667.94,-168.5"/>
<polygon fill="#63b8ff" stroke="#63b8ff" points="693.64,-172 703.64,-168.5 693.64,-165 693.64,-172"/>
</a>
</g>
</g>
<!-- Node9&#45;&gt;Node4 -->
<g id="edge9_Node000009_Node000004" class="edge">
<title>Node9&#45;&gt;Node4</title>
<g id="a_edge9_Node000009_Node000004"><a xlink:title=" ">
<path fill="none" stroke="#63b8ff" d="M506.36,-193.01C490.35,-197.55 473.36,-201.72 457.25,-204.5 363.71,-220.63 254.06,-224.1 183.54,-224.39"/>
<polygon fill="#63b8ff" stroke="#63b8ff" points="507.21,-196.41 515.82,-190.25 505.24,-189.69 507.21,-196.41"/>
</a>
</g>
</g>
<!-- Node10 -->
<g id="Node000010" class="node">
<title>Node10</title>
<g id="a_Node000010"><a xlink:href="../../d7/d16/classml_1_1maths_1_1analytics_1_1_c_boosted_tree_leaf_node_statistics_scratch.html#a7bc4acc23ebf2e84fbbbad033bae6113" target="_top" xlink:title="Only called by split but is public so it&#39;s accessible to std::make_shared.">
<polygon fill="white" stroke="#666666" points="457.25,-124 255.25,-124 255.25,-71 457.25,-71 457.25,-124"/>
<text text-anchor="start" x="263.25" y="-110.5" font-family="Helvetica,sans-Serif" font-size="10.00">ml::maths::analytics</text>
<text text-anchor="start" x="263.25" y="-99.25" font-family="Helvetica,sans-Serif" font-size="10.00">::CBoostedTreeLeafNodeStatistics</text>
<text text-anchor="start" x="263.25" y="-88" font-family="Helvetica,sans-Serif" font-size="10.00">Scratch::CBoostedTreeLeafNodeStatistics</text>
<text text-anchor="middle" x="356.25" y="-76.75" font-family="Helvetica,sans-Serif" font-size="10.00">Scratch</text>
</a>
</g>
</g>
<!-- Node9&#45;&gt;Node10 -->
<g id="edge10_Node000009_Node000010" class="edge">
<title>Node9&#45;&gt;Node10</title>
<g id="a_edge10_Node000009_Node000010"><a xlink:title=" ">
<path fill="none" stroke="#63b8ff" d="M501.78,-143.7C482.33,-137.48 461.36,-130.78 441.59,-124.46"/>
<polygon fill="#63b8ff" stroke="#63b8ff" points="500.7,-147.03 511.29,-146.74 502.83,-140.36 500.7,-147.03"/>
</a>
</g>
</g>
<!-- Node11 -->
<g id="Node000011" class="node">
<title>Node11</title>
<g id="a_Node000011"><a xlink:href="../../d7/d16/classml_1_1maths_1_1analytics_1_1_c_boosted_tree_leaf_node_statistics_scratch.html#a4c5bded390aac813ca64a15a3c0fbc79" target="_top" xlink:title="Only called by split but is public so it&#39;s accessible to std::make_shared.">
<polygon fill="white" stroke="#666666" points="457.25,-53 255.25,-53 255.25,0 457.25,0 457.25,-53"/>
<text text-anchor="start" x="263.25" y="-39.5" font-family="Helvetica,sans-Serif" font-size="10.00">ml::maths::analytics</text>
<text text-anchor="start" x="263.25" y="-28.25" font-family="Helvetica,sans-Serif" font-size="10.00">::CBoostedTreeLeafNodeStatistics</text>
<text text-anchor="start" x="263.25" y="-17" font-family="Helvetica,sans-Serif" font-size="10.00">Scratch::CBoostedTreeLeafNodeStatistics</text>
<text text-anchor="middle" x="356.25" y="-5.75" font-family="Helvetica,sans-Serif" font-size="10.00">Scratch</text>
</a>
</g>
</g>
<!-- Node9&#45;&gt;Node11 -->
<g id="edge11_Node000009_Node000011" class="edge">
<title>Node9&#45;&gt;Node11</title>
<g id="a_edge11_Node000009_Node000011"><a xlink:title=" ">
<path fill="none" stroke="#63b8ff" d="M552.4,-139.32C529.13,-115.61 493.62,-82.72 457.25,-61.5 452.32,-58.63 447.13,-55.94 441.79,-53.43"/>
<polygon fill="#63b8ff" stroke="#63b8ff" points="549.58,-141.45 559.05,-146.21 554.62,-136.58 549.58,-141.45"/>
</a>
</g>
</g>
<!-- Node12 -->
<g id="Node000012" class="node">
<title>Node12</title>
<g id="a_Node000012"><a xlink:href="../../d7/d16/classml_1_1maths_1_1analytics_1_1_c_boosted_tree_leaf_node_statistics_scratch.html#a01bd47ba3a2b2abbc45d007a428820da" target="_top" xlink:title=" ">
<polygon fill="white" stroke="#666666" points="457.25,-195 255.25,-195 255.25,-142 457.25,-142 457.25,-195"/>
<text text-anchor="start" x="263.25" y="-181.5" font-family="Helvetica,sans-Serif" font-size="10.00">ml::maths::analytics</text>
<text text-anchor="start" x="263.25" y="-170.25" font-family="Helvetica,sans-Serif" font-size="10.00">::CBoostedTreeLeafNodeStatistics</text>
<text text-anchor="start" x="263.25" y="-159" font-family="Helvetica,sans-Serif" font-size="10.00">Scratch::CBoostedTreeLeafNodeStatistics</text>
<text text-anchor="middle" x="356.25" y="-147.75" font-family="Helvetica,sans-Serif" font-size="10.00">Scratch</text>
</a>
</g>
</g>
<!-- Node9&#45;&gt;Node12 -->
<g id="edge12_Node000009_Node000012" class="edge">
<title>Node9&#45;&gt;Node12</title>
<g id="a_edge12_Node000009_Node000012"><a xlink:title=" ">
<path fill="none" stroke="#63b8ff" d="M481.37,-168.5C473.46,-168.5 465.47,-168.5 457.56,-168.5"/>
<polygon fill="#63b8ff" stroke="#63b8ff" points="481.35,-172 491.35,-168.5 481.35,-165 481.35,-172"/>
</a>
</g>
</g>
<!-- Node13&#45;&gt;Node2 -->
<g id="edge14_Node000013_Node000002" class="edge">
<title>Node13&#45;&gt;Node2</title>
<g id="a_edge14_Node000013_Node000002"><a xlink:title=" ">
<path fill="none" stroke="#63b8ff" d="M692.01,-251.33C683.88,-253.25 675.68,-255.19 667.62,-257.1"/>
<polygon fill="#63b8ff" stroke="#63b8ff" points="692.66,-254.77 701.59,-249.06 691.05,-247.96 692.66,-254.77"/>
</a>
</g>
</g>
</g>
</svg>
