<?xml version="1.0" encoding="UTF-8" standalone="no"?>
<!DOCTYPE svg PUBLIC "-//W3C//DTD SVG 1.1//EN"
 "http://www.w3.org/Graphics/SVG/1.1/DTD/svg11.dtd">
<!-- Generated by graphviz version 10.0.1 (20240210.2158)
 -->
<!-- Title: ml::maths::analytics::CBoostedTreeLeafNodeStatistics::computeAggregateLossDerivativesWith Pages: 1 -->
<!--zoomable 151 -->

<svg id="main" version="1.1" xmlns="http://www.w3.org/2000/svg" xmlns:xlink="http://www.w3.org/1999/xlink" xml:space="preserve" onload="init(evt)">
<style type="text/css"><![CDATA[
.node, .edge {opacity: 0.7;}
.node.selected, .edge.selected {opacity: 1;}
.edge:hover path { stroke: red; }
.edge:hover polygon { stroke: red; fill: red; }
]]></style>

<defs>
  <circle id="rim" cx="0" cy="0" r="7"/>
  <circle id="rim2" cx="0" cy="0" r="3.5"/>
  <g id="zoomPlus">
    <use xlink:href="#rim" fill="#404040"><set attributeName="fill" to="#808080" begin="zoomplus.mouseover" end="zoomplus.mouseout"/></use>
    <path d="M-4,0h8M0,-4v8" fill="none" stroke="white" stroke-width="1.5" pointer-events="none"/>
  </g>
  <g id="zoomMin">
    <use xlink:href="#rim" fill="#404040"><set attributeName="fill" to="#808080" begin="zoomminus.mouseover" end="zoomminus.mouseout"/></use>
    <path d="M-4,0h8" fill="none" stroke="white" stroke-width="1.5" pointer-events="none"/>
  </g>
  <g id="arrowUp" transform="translate(30 24)">
    <use xlink:href="#rim"/>
    <path pointer-events="none" fill="none" stroke="white" stroke-width="1.5" d="M0,-3.0v7 M-2.5,-0.5L0,-3.0L2.5,-0.5"/>
  </g>
  <g id="arrowRight" transform="rotate(90) translate(36 -43)">
    <use xlink:href="#rim"/>
    <path pointer-events="none" fill="none" stroke="white" stroke-width="1.5" d="M0,-3.0v7 M-2.5,-0.5L0,-3.0L2.5,-0.5"/>
  </g>
  <g id="arrowDown" transform="rotate(180) translate(-30 -48)">
    <use xlink:href="#rim"/>
    <path pointer-events="none" fill="none" stroke="white" stroke-width="1.5" d="M0,-3.0v7 M-2.5,-0.5L0,-3.0L2.5,-0.5"/>
  </g>
  <g id="arrowLeft" transform="rotate(270) translate(-36 17)">
    <use xlink:href="#rim"/>
    <path pointer-events="none" fill="none" stroke="white" stroke-width="1.5" d="M0,-3.0v7 M-2.5,-0.5L0,-3.0L2.5,-0.5"/>
  </g>
  <g id="resetDef">
    <use xlink:href="#rim2" fill="#404040"><set attributeName="fill" to="#808080" begin="reset.mouseover" end="reset.mouseout"/></use>
  </g>
</defs>
<script type="application/ecmascript">
var viewWidth = 668;
var viewHeight = 151;
var sectionId = 'dynsection-14';
</script>
<script type="application/ecmascript" xlink:href="../../svg.min.js"/>
<svg id="graph" class="graph">
<g id="viewport">
<title>ml::maths::analytics::CBoostedTreeLeafNodeStatistics::computeAggregateLossDerivativesWith</title>
<!-- Node1 -->
<g id="Node000001" class="node">
<title>Node1</title>
<g id="a_Node000001"><a xlink:title=" ">
<polygon fill="#999999" stroke="#666666" points="660,-71.75 465.5,-71.75 465.5,-30 660,-30 660,-71.75"/>
<text text-anchor="start" x="473.5" y="-58.25" font-family="Helvetica,sans-Serif" font-size="10.00">ml::maths::analytics</text>
<text text-anchor="start" x="473.5" y="-47" font-family="Helvetica,sans-Serif" font-size="10.00">::CBoostedTreeLeafNodeStatistics</text>
<text text-anchor="middle" x="562.75" y="-35.75" font-family="Helvetica,sans-Serif" font-size="10.00">::computeAggregateLossDerivativesWith</text>
</a>
</g>
</g>
<!-- Node2 -->
<g id="Node000002" class="node">
<title>Node2</title>
<g id="a_Node000002"><a xlink:href="../../d8/db9/classml_1_1maths_1_1analytics_1_1_c_boosted_tree_leaf_node_statistics.html#a0237defd99251283c628bd8bf8f6fb06" target="_top" xlink:title=" ">
<polygon fill="white" stroke="#666666" points="429.5,-101.75 255.25,-101.75 255.25,-60 429.5,-60 429.5,-101.75"/>
<text text-anchor="start" x="263.25" y="-88.25" font-family="Helvetica,sans-Serif" font-size="10.00">ml::maths::analytics</text>
<text text-anchor="start" x="263.25" y="-77" font-family="Helvetica,sans-Serif" font-size="10.00">::CBoostedTreeLeafNodeStatistics</text>
<text text-anchor="middle" x="342.38" y="-65.75" font-family="Helvetica,sans-Serif" font-size="10.00">::computeAggregateLossDerivatives</text>
</a>
</g>
</g>
<!-- Node1&#45;&gt;Node2 -->
<g id="edge1_Node000001_Node000002" class="edge">
<title>Node1&#45;&gt;Node2</title>
<g id="a_edge1_Node000001_Node000002"><a xlink:title=" ">
<path fill="none" stroke="#63b8ff" d="M453.68,-65.72C445.65,-66.82 437.61,-67.93 429.73,-69.01"/>
<polygon fill="#63b8ff" stroke="#63b8ff" points="454.08,-69.2 463.51,-64.37 453.13,-62.26 454.08,-69.2"/>
</a>
</g>
</g>
<!-- Node5 -->
<g id="Node000005" class="node">
<title>Node5</title>
<g id="a_Node000005"><a xlink:href="../../d8/db9/classml_1_1maths_1_1analytics_1_1_c_boosted_tree_leaf_node_statistics.html#a5ef6beabe2a4e21700ad82f0be8065aa" target="_top" xlink:title=" ">
<polygon fill="white" stroke="#666666" points="429.5,-41.75 255.25,-41.75 255.25,0 429.5,0 429.5,-41.75"/>
<text text-anchor="start" x="263.25" y="-28.25" font-family="Helvetica,sans-Serif" font-size="10.00">ml::maths::analytics</text>
<text text-anchor="start" x="263.25" y="-17" font-family="Helvetica,sans-Serif" font-size="10.00">::CBoostedTreeLeafNodeStatistics</text>
<text text-anchor="middle" x="342.38" y="-5.75" font-family="Helvetica,sans-Serif" font-size="10.00">::computeAggregateLossDerivatives</text>
</a>
</g>
</g>
<!-- Node1&#45;&gt;Node5 -->
<g id="edge4_Node000001_Node000005" class="edge">
<title>Node1&#45;&gt;Node5</title>
<g id="a_edge4_Node000001_Node000005"><a xlink:title=" ">
<path fill="none" stroke="#63b8ff" d="M453.68,-36.03C445.65,-34.93 437.61,-33.82 429.73,-32.74"/>
<polygon fill="#63b8ff" stroke="#63b8ff" points="453.13,-39.49 463.51,-37.38 454.08,-32.55 453.13,-39.49"/>
</a>
</g>
</g>
<!-- Node3 -->
<g id="Node000003" class="node">
<title>Node3</title>
<g id="a_Node000003"><a xlink:href="../../dd/d3e/classml_1_1maths_1_1analytics_1_1_c_boosted_tree_leaf_node_statistics_incremental.html#a58fd2782d8c92cc89789b5307d1dd44e" target="_top" xlink:title=" ">
<polygon fill="white" stroke="#666666" points="219.25,-143.38 0,-143.38 0,-90.38 219.25,-90.38 219.25,-143.38"/>
<text text-anchor="start" x="8" y="-129.88" font-family="Helvetica,sans-Serif" font-size="10.00">ml::maths::analytics</text>
<text text-anchor="start" x="8" y="-118.62" font-family="Helvetica,sans-Serif" font-size="10.00">::CBoostedTreeLeafNodeStatistics</text>
<text text-anchor="start" x="8" y="-107.38" font-family="Helvetica,sans-Serif" font-size="10.00">Incremental::CBoostedTreeLeafNodeStatistics</text>
<text text-anchor="middle" x="109.62" y="-96.12" font-family="Helvetica,sans-Serif" font-size="10.00">Incremental</text>
</a>
</g>
</g>
<!-- Node2&#45;&gt;Node3 -->
<g id="edge2_Node000002_Node000003" class="edge">
<title>Node2&#45;&gt;Node3</title>
<g id="a_edge2_Node000002_Node000003"><a xlink:title=" ">
<path fill="none" stroke="#63b8ff" d="M243.63,-96.13C235.66,-97.37 227.58,-98.63 219.54,-99.88"/>
<polygon fill="#63b8ff" stroke="#63b8ff" points="243.96,-99.62 253.3,-94.62 242.88,-92.7 243.96,-99.62"/>
</a>
</g>
</g>
<!-- Node4 -->
<g id="Node000004" class="node">
<title>Node4</title>
<g id="a_Node000004"><a xlink:href="../../d7/d16/classml_1_1maths_1_1analytics_1_1_c_boosted_tree_leaf_node_statistics_scratch.html#a01bd47ba3a2b2abbc45d007a428820da" target="_top" xlink:title=" ">
<polygon fill="white" stroke="#666666" points="210.62,-72.38 8.62,-72.38 8.62,-19.38 210.62,-19.38 210.62,-72.38"/>
<text text-anchor="start" x="16.62" y="-58.88" font-family="Helvetica,sans-Serif" font-size="10.00">ml::maths::analytics</text>
<text text-anchor="start" x="16.62" y="-47.62" font-family="Helvetica,sans-Serif" font-size="10.00">::CBoostedTreeLeafNodeStatistics</text>
<text text-anchor="start" x="16.62" y="-36.38" font-family="Helvetica,sans-Serif" font-size="10.00">Scratch::CBoostedTreeLeafNodeStatistics</text>
<text text-anchor="middle" x="109.62" y="-25.12" font-family="Helvetica,sans-Serif" font-size="10.00">Scratch</text>
</a>
</g>
</g>
<!-- Node2&#45;&gt;Node4 -->
<g id="edge3_Node000002_Node000004" class="edge">
<title>Node2&#45;&gt;Node4</title>
<g id="a_edge3_Node000002_Node000004"><a xlink:title=" ">
<path fill="none" stroke="#63b8ff" d="M243.61,-66.05C232.78,-64.4 221.75,-62.73 210.89,-61.08"/>
<polygon fill="#63b8ff" stroke="#63b8ff" points="242.89,-69.48 253.3,-67.52 243.94,-62.56 242.89,-69.48"/>
</a>
</g>
</g>
</g>
</svg>

<g id="navigator" transform="translate(0 0)" fill="#404254">
  <rect fill="#f2f5e9" fill-opacity="0.5" stroke="#606060" stroke-width=".5" x="0" y="0" width="60" height="60"/>
  <use id="zoomplus" xlink:href="#zoomPlus" x="17" y="9" onmousedown="handleZoom(evt,'in')"/>
  <use id="zoomminus" xlink:href="#zoomMin" x="42" y="9" onmousedown="handleZoom(evt,'out')"/>
  <use id="reset" xlink:href="#resetDef" x="30" y="36" onmousedown="handleReset()"/>
   <use id="arrowup" xlink:href="#arrowUp" x="0" y="0" onmousedown="handlePan(0,-1)"/>
  <use id="arrowright" xlink:href="#arrowRight" x="0" y="0" onmousedown="handlePan(1,0)"/>
  <use id="arrowdown" xlink:href="#arrowDown" x="0" y="0" onmousedown="handlePan(0,1)"/>
  <use id="arrowleft" xlink:href="#arrowLeft" x="0" y="0" onmousedown="handlePan(-1,0)"/>
</g>
<svg viewBox="0 0 15 15" width="100%" height="30px" preserveAspectRatio="xMaxYMin meet">
 <g id="arrow_out" transform="scale(0.3 0.3)">
  <a xlink:href="classml_1_1maths_1_1analytics_1_1_c_boosted_tree_leaf_node_statistics_afcc48e1c1b5c538b3a440b53396c1f32_icgraph_org.svg" target="_base">
   <rect id="button" ry="5" rx="5" y="6" x="6" height="38" width="38"
        fill="#f2f5e9" fill-opacity="0.5" stroke="#606060" stroke-width="1.0"/>
   <path id="arrow"
     d="M 11.500037,31.436501 C 11.940474,20.09759 22.043105,11.32322 32.158766,21.979434 L 37.068811,17.246167 C 37.068811,17.246167 37.088388,32 37.088388,32 L 22.160133,31.978069 C 22.160133,31.978069 26.997745,27.140456 26.997745,27.140456 C 18.528582,18.264221 13.291696,25.230495 11.500037,31.436501 z"
     style="fill:#404040;"/>
  </a>
 </g>
</svg>

<style type='text/css'>
<![CDATA[
[data-mouse-over-selected='false'] { opacity: 0.7; }
[data-mouse-over-selected='true']  { opacity: 1.0; }
]]>
</style>
<script type="application/ecmascript"><![CDATA[
document.addEventListener('DOMContentLoaded', (event) => {
  highlightEdges();
  highlightAdjacentNodes();
});
]]></script>
</svg>
