<?xml version="1.0" encoding="UTF-8" standalone="no"?>
<!DOCTYPE svg PUBLIC "-//W3C//DTD SVG 1.1//EN"
 "http://www.w3.org/Graphics/SVG/1.1/DTD/svg11.dtd">
<!-- Generated by graphviz version 10.0.1 (20240210.2158)
 -->
<!-- Title: ml::core::CMemoryUsageJsonWriter::endArray Pages: 1 -->
<svg width="503pt" height="88pt"
 viewBox="0.00 0.00 503.00 87.50" xmlns="http://www.w3.org/2000/svg" xmlns:xlink="http://www.w3.org/1999/xlink">
<g id="graph0" class="graph" transform="scale(1 1) rotate(0) translate(4 83.5)">
<title>ml::core::CMemoryUsageJsonWriter::endArray</title>
<!-- Node1 -->
<g id="Node000001" class="node">
<title>Node1</title>
<g id="a_Node000001"><a xlink:title="Calls underlying JSON writer endArray.">
<polygon fill="#999999" stroke="#666666" points="149.5,-54.5 0,-54.5 0,-24 149.5,-24 149.5,-54.5"/>
<text text-anchor="start" x="8" y="-41" font-family="Helvetica,sans-Serif" font-size="10.00">ml::core::CMemoryUsageJson</text>
<text text-anchor="middle" x="74.75" y="-29.75" font-family="Helvetica,sans-Serif" font-size="10.00">Writer::endArray</text>
</a>
</g>
</g>
<!-- Node2 -->
<g id="Node000002" class="node">
<title>Node2</title>
<g id="a_Node000002"><a xlink:href="../../de/d68/classml_1_1core_1_1_c_boost_json_writer_base.html#a2824b45bbf5a6f03b0831b22a8c1d15b" target="_top" xlink:title=" ">
<polygon fill="white" stroke="#666666" points="322.25,-54.5 185.5,-54.5 185.5,-24 322.25,-24 322.25,-54.5"/>
<text text-anchor="start" x="193.5" y="-41" font-family="Helvetica,sans-Serif" font-size="10.00">ml::core::CBoostJsonWriter</text>
<text text-anchor="middle" x="253.88" y="-29.75" font-family="Helvetica,sans-Serif" font-size="10.00">Base::onArrayEnd</text>
</a>
</g>
</g>
<!-- Node1&#45;&gt;Node2 -->
<g id="edge1_Node000001_Node000002" class="edge">
<title>Node1&#45;&gt;Node2</title>
<g id="a_edge1_Node000001_Node000002"><a xlink:title=" ">
<path fill="none" stroke="#63b8ff" d="M149.84,-39.25C157.67,-39.25 165.66,-39.25 173.55,-39.25"/>
<polygon fill="#63b8ff" stroke="#63b8ff" points="173.5,-42.75 183.5,-39.25 173.5,-35.75 173.5,-42.75"/>
</a>
</g>
</g>
<!-- Node3 -->
<g id="Node000003" class="node">
<title>Node3</title>
<g id="a_Node000003"><a xlink:href="../../de/d68/classml_1_1core_1_1_c_boost_json_writer_base.html#adb061fcc70caf7532a29e853ae1a3aa5" target="_top" xlink:title=" ">
<polygon fill="white" stroke="#666666" points="495,-79.5 358.25,-79.5 358.25,-49 495,-49 495,-79.5"/>
<text text-anchor="start" x="366.25" y="-66" font-family="Helvetica,sans-Serif" font-size="10.00">ml::core::CBoostJsonWriter</text>
<text text-anchor="middle" x="426.62" y="-54.75" font-family="Helvetica,sans-Serif" font-size="10.00">Base::append</text>
</a>
</g>
</g>
<!-- Node2&#45;&gt;Node3 -->
<g id="edge2_Node000002_Node000003" class="edge">
<title>Node2&#45;&gt;Node3</title>
<g id="a_edge2_Node000002_Node000003"><a xlink:title=" ">
<path fill="none" stroke="#63b8ff" d="M322.36,-49.13C330.28,-50.29 338.41,-51.48 346.48,-52.66"/>
<polygon fill="#63b8ff" stroke="#63b8ff" points="345.89,-56.11 356.29,-54.1 346.91,-49.19 345.89,-56.11"/>
</a>
</g>
</g>
<!-- Node4 -->
<g id="Node000004" class="node">
<title>Node4</title>
<g id="a_Node000004"><a xlink:href="../../de/d68/classml_1_1core_1_1_c_boost_json_writer_base.html#a9a5d865616f6cc71fc27a44990038359" target="_top" xlink:title=" ">
<polygon fill="white" stroke="#666666" points="495,-30.5 358.25,-30.5 358.25,0 495,0 495,-30.5"/>
<text text-anchor="start" x="366.25" y="-17" font-family="Helvetica,sans-Serif" font-size="10.00">ml::core::CBoostJsonWriter</text>
<text text-anchor="middle" x="426.62" y="-5.75" font-family="Helvetica,sans-Serif" font-size="10.00">Base::checkPrerequisites</text>
</a>
</g>
</g>
<!-- Node2&#45;&gt;Node4 -->
<g id="edge3_Node000002_Node000004" class="edge">
<title>Node2&#45;&gt;Node4</title>
<g id="a_edge3_Node000002_Node000004"><a xlink:title=" ">
<path fill="none" stroke="#63b8ff" d="M322.36,-29.76C330.28,-28.65 338.41,-27.51 346.48,-26.37"/>
<polygon fill="#63b8ff" stroke="#63b8ff" points="346.88,-29.85 356.29,-25 345.9,-22.92 346.88,-29.85"/>
</a>
</g>
</g>
</g>
</svg>
