<?xml version="1.0" encoding="UTF-8" standalone="no"?>
<!DOCTYPE svg PUBLIC "-//W3C//DTD SVG 1.1//EN"
 "http://www.w3.org/Graphics/SVG/1.1/DTD/svg11.dtd">
<!-- Generated by graphviz version 10.0.1 (20240210.2158)
 -->
<!-- Title: include/api/CJsonOutputWriter.h Pages: 1 -->
<svg width="1690pt" height="227pt"
 viewBox="0.00 0.00 1689.50 226.75" xmlns="http://www.w3.org/2000/svg" xmlns:xlink="http://www.w3.org/1999/xlink">
<g id="graph0" class="graph" transform="scale(1 1) rotate(0) translate(4 222.75)">
<title>include/api/CJsonOutputWriter.h</title>
<!-- Node1 -->
<g id="Node000001" class="node">
<title>Node1</title>
<g id="a_Node000001"><a xlink:title=" ">
<polygon fill="#999999" stroke="#666666" points="879.88,-218.75 723.62,-218.75 723.62,-199.5 879.88,-199.5 879.88,-218.75"/>
<text text-anchor="middle" x="801.75" y="-205.25" font-family="Helvetica,sans-Serif" font-size="10.00">include/api/CJsonOutputWriter.h</text>
</a>
</g>
</g>
<!-- Node2 -->
<g id="Node000002" class="node">
<title>Node2</title>
<g id="a_Node000002"><a xlink:href="../../d2/dab/bin_2autodetect_2_main_8cc.html" target="_top" xlink:title=" ">
<polygon fill="white" stroke="#666666" points="556.25,-91.38 441.25,-91.38 441.25,-72.12 556.25,-72.12 556.25,-91.38"/>
<text text-anchor="middle" x="498.75" y="-77.88" font-family="Helvetica,sans-Serif" font-size="10.00">bin/autodetect/Main.cc</text>
</a>
</g>
</g>
<!-- Node1&#45;&gt;Node2 -->
<g id="edge1_Node000001_Node000002" class="edge">
<title>Node1&#45;&gt;Node2</title>
<g id="a_edge1_Node000001_Node000002"><a xlink:title=" ">
<path fill="none" stroke="#63b8ff" d="M768.99,-194.94C747.1,-186.11 717.67,-174.18 691.75,-163.5 629.29,-137.76 555.71,-106.8 520.14,-91.79"/>
<polygon fill="#63b8ff" stroke="#63b8ff" points="767.4,-198.08 777.99,-198.57 770.02,-191.58 767.4,-198.08"/>
</a>
</g>
</g>
<!-- Node3 -->
<g id="Node000003" class="node">
<title>Node3</title>
<g id="a_Node000003"><a xlink:href="../../de/d5e/bin_2categorize_2_main_8cc.html" target="_top" xlink:title=" ">
<polygon fill="white" stroke="#666666" points="801.88,-91.38 687.62,-91.38 687.62,-72.12 801.88,-72.12 801.88,-91.38"/>
<text text-anchor="middle" x="744.75" y="-77.88" font-family="Helvetica,sans-Serif" font-size="10.00">bin/categorize/Main.cc</text>
</a>
</g>
</g>
<!-- Node1&#45;&gt;Node3 -->
<g id="edge2_Node000001_Node000003" class="edge">
<title>Node1&#45;&gt;Node3</title>
<g id="a_edge2_Node000001_Node000003"><a xlink:title=" ">
<path fill="none" stroke="#63b8ff" d="M783.83,-191.03C776.62,-183.25 768.83,-173.55 763.75,-163.5 751.53,-139.34 747.01,-107.12 745.47,-91.7"/>
<polygon fill="#63b8ff" stroke="#63b8ff" points="781.27,-193.41 790.77,-198.1 786.26,-188.51 781.27,-193.41"/>
</a>
</g>
</g>
<!-- Node4 -->
<g id="Node000004" class="node">
<title>Node4</title>
<g id="a_Node000004"><a xlink:href="../../da/d6e/_c_anomaly_job_8h.html" target="_top" xlink:title=" ">
<polygon fill="white" stroke="#666666" points="566.38,-157.88 431.12,-157.88 431.12,-138.62 566.38,-138.62 566.38,-157.88"/>
<text text-anchor="middle" x="498.75" y="-144.38" font-family="Helvetica,sans-Serif" font-size="10.00">include/api/CAnomalyJob.h</text>
</a>
</g>
</g>
<!-- Node1&#45;&gt;Node4 -->
<g id="edge3_Node000001_Node000004" class="edge">
<title>Node1&#45;&gt;Node4</title>
<g id="a_edge3_Node000001_Node000004"><a xlink:title=" ">
<path fill="none" stroke="#63b8ff" d="M743.96,-196.9C686.32,-185.7 598.89,-168.71 545.48,-158.33"/>
<polygon fill="#63b8ff" stroke="#63b8ff" points="743.1,-200.29 753.58,-198.77 744.44,-193.42 743.1,-200.29"/>
</a>
</g>
</g>
<!-- Node5 -->
<g id="Node000005" class="node">
<title>Node5</title>
<g id="a_Node000005"><a xlink:href="../../df/d80/_c_anomaly_job_8cc.html" target="_top" xlink:title=" ">
<polygon fill="white" stroke="#666666" points="260.5,-91.38 141,-91.38 141,-72.12 260.5,-72.12 260.5,-91.38"/>
<text text-anchor="middle" x="200.75" y="-77.88" font-family="Helvetica,sans-Serif" font-size="10.00">lib/api/CAnomalyJob.cc</text>
</a>
</g>
</g>
<!-- Node1&#45;&gt;Node5 -->
<g id="edge28_Node000001_Node000005" class="edge">
<title>Node1&#45;&gt;Node5</title>
<g id="a_edge28_Node000001_Node000005"><a xlink:title=" ">
<path fill="none" stroke="#63b8ff" d="M712.13,-203.51C634.47,-198.12 519.53,-186.77 421.75,-163.5 345.25,-145.3 258.84,-108.81 220.68,-91.83"/>
<polygon fill="#63b8ff" stroke="#63b8ff" points="711.59,-206.98 721.8,-204.16 712.06,-200 711.59,-206.98"/>
</a>
</g>
</g>
<!-- Node6 -->
<g id="Node000006" class="node">
<title>Node6</title>
<g id="a_Node000006"><a xlink:href="../../d5/d82/lib_2api_2dump__state_2_main_8cc.html" target="_top" xlink:title=" ">
<polygon fill="white" stroke="#666666" points="669.5,-97 574,-97 574,-66.5 669.5,-66.5 669.5,-97"/>
<text text-anchor="start" x="582" y="-83.5" font-family="Helvetica,sans-Serif" font-size="10.00">lib/api/dump_state</text>
<text text-anchor="middle" x="621.75" y="-72.25" font-family="Helvetica,sans-Serif" font-size="10.00">/Main.cc</text>
</a>
</g>
</g>
<!-- Node1&#45;&gt;Node6 -->
<g id="edge31_Node000001_Node000006" class="edge">
<title>Node1&#45;&gt;Node6</title>
<g id="a_edge31_Node000001_Node000006"><a xlink:title=" ">
<path fill="none" stroke="#63b8ff" d="M779.43,-192.58C744.35,-168.14 676.8,-121.1 642.63,-97.3"/>
<polygon fill="#63b8ff" stroke="#63b8ff" points="777.36,-195.4 787.56,-198.24 781.36,-189.66 777.36,-195.4"/>
</a>
</g>
</g>
<!-- Node8 -->
<g id="Node000008" class="node">
<title>Node8</title>
<g id="a_Node000008"><a xlink:href="../../d4/de4/_c_anomaly_job_limit_test_8cc.html" target="_top" xlink:title=" ">
<polygon fill="white" stroke="#666666" points="125.5,-30.5 0,-30.5 0,0 125.5,0 125.5,-30.5"/>
<text text-anchor="start" x="8" y="-17" font-family="Helvetica,sans-Serif" font-size="10.00">lib/api/unittest/CAnomaly</text>
<text text-anchor="middle" x="62.75" y="-5.75" font-family="Helvetica,sans-Serif" font-size="10.00">JobLimitTest.cc</text>
</a>
</g>
</g>
<!-- Node1&#45;&gt;Node8 -->
<g id="edge32_Node000001_Node000008" class="edge">
<title>Node1&#45;&gt;Node8</title>
<g id="a_edge32_Node000001_Node000008"><a xlink:title=" ">
<path fill="none" stroke="#63b8ff" d="M711.91,-206.43C614.33,-203.06 454.37,-193.06 319.75,-163.5 233.18,-144.49 204.81,-147.18 131.75,-97 105.61,-79.04 83.45,-48.76 71.72,-30.83"/>
<polygon fill="#63b8ff" stroke="#63b8ff" points="711.58,-209.92 721.69,-206.75 711.81,-202.93 711.58,-209.92"/>
</a>
</g>
</g>
<!-- Node11 -->
<g id="Node000011" class="node">
<title>Node11</title>
<g id="a_Node000011"><a xlink:href="../../d0/da1/_c_multi_file_data_adder_test_8cc.html" target="_top" xlink:title=" ">
<polygon fill="white" stroke="#666666" points="1306.75,-30.5 1182.75,-30.5 1182.75,0 1306.75,0 1306.75,-30.5"/>
<text text-anchor="start" x="1190.75" y="-17" font-family="Helvetica,sans-Serif" font-size="10.00">lib/api/unittest/CMultiFile</text>
<text text-anchor="middle" x="1244.75" y="-5.75" font-family="Helvetica,sans-Serif" font-size="10.00">DataAdderTest.cc</text>
</a>
</g>
</g>
<!-- Node1&#45;&gt;Node11 -->
<g id="edge34_Node000001_Node000011" class="edge">
<title>Node1&#45;&gt;Node11</title>
<g id="a_edge34_Node000001_Node000011"><a xlink:title=" ">
<path fill="none" stroke="#63b8ff" d="M891.54,-200.9C1018.72,-188.57 1241.27,-158.6 1289.75,-97 1306.42,-75.81 1281.83,-47.66 1262.96,-30.8"/>
<polygon fill="#63b8ff" stroke="#63b8ff" points="891.43,-197.39 881.81,-201.82 892.09,-204.36 891.43,-197.39"/>
</a>
</g>
</g>
<!-- Node16 -->
<g id="Node000016" class="node">
<title>Node16</title>
<g id="a_Node000016"><a xlink:href="../../d6/dc2/_c_field_data_categorizer_8h.html" target="_top" xlink:title=" ">
<polygon fill="white" stroke="#666666" points="945.12,-157.88 772.38,-157.88 772.38,-138.62 945.12,-138.62 945.12,-157.88"/>
<text text-anchor="middle" x="858.75" y="-144.38" font-family="Helvetica,sans-Serif" font-size="10.00">include/api/CFieldDataCategorizer.h</text>
</a>
</g>
</g>
<!-- Node1&#45;&gt;Node16 -->
<g id="edge16_Node000001_Node000016" class="edge">
<title>Node1&#45;&gt;Node16</title>
<g id="a_edge16_Node000001_Node000016"><a xlink:title=" ">
<path fill="none" stroke="#63b8ff" d="M818.35,-190.98C828.7,-180.29 841.61,-166.95 850.01,-158.28"/>
<polygon fill="#63b8ff" stroke="#63b8ff" points="815.9,-188.48 811.46,-198.1 820.93,-193.35 815.9,-188.48"/>
</a>
</g>
</g>
<!-- Node18 -->
<g id="Node000018" class="node">
<title>Node18</title>
<g id="a_Node000018"><a xlink:href="../../de/dd5/_c_single_field_data_categorizer_test_8cc.html" target="_top" xlink:title=" ">
<polygon fill="white" stroke="#666666" points="1281,-97 1140.5,-97 1140.5,-66.5 1281,-66.5 1281,-97"/>
<text text-anchor="start" x="1148.5" y="-83.5" font-family="Helvetica,sans-Serif" font-size="10.00">lib/api/unittest/CSingle</text>
<text text-anchor="middle" x="1210.75" y="-72.25" font-family="Helvetica,sans-Serif" font-size="10.00">FieldDataCategorizerTest.cc</text>
</a>
</g>
</g>
<!-- Node1&#45;&gt;Node18 -->
<g id="edge35_Node000001_Node000018" class="edge">
<title>Node1&#45;&gt;Node18</title>
<g id="a_edge35_Node000001_Node000018"><a xlink:title=" ">
<path fill="none" stroke="#63b8ff" d="M843.93,-195.97C874.47,-187.12 916.72,-174.75 953.75,-163.5 1027.81,-141 1113.52,-113.84 1164.87,-97.45"/>
<polygon fill="#63b8ff" stroke="#63b8ff" points="843.33,-192.5 834.7,-198.65 845.27,-199.23 843.33,-192.5"/>
</a>
</g>
</g>
<!-- Node22 -->
<g id="Node000022" class="node">
<title>Node22</title>
<g id="a_Node000022"><a xlink:href="../../d8/d84/_c_json_output_writer_8cc.html" target="_top" xlink:title=" ">
<polygon fill="white" stroke="#666666" points="1387,-157.88 1246.5,-157.88 1246.5,-138.62 1387,-138.62 1387,-157.88"/>
<text text-anchor="middle" x="1316.75" y="-144.38" font-family="Helvetica,sans-Serif" font-size="10.00">lib/api/CJsonOutputWriter.cc</text>
</a>
</g>
</g>
<!-- Node1&#45;&gt;Node22 -->
<g id="edge29_Node000001_Node000022" class="edge">
<title>Node1&#45;&gt;Node22</title>
<g id="a_edge29_Node000001_Node000022"><a xlink:title=" ">
<path fill="none" stroke="#63b8ff" d="M891.65,-200.53C978.98,-192.75 1115.23,-179.54 1232.75,-163.5 1243.6,-162.02 1255.19,-160.21 1266.19,-158.37"/>
<polygon fill="#63b8ff" stroke="#63b8ff" points="891.35,-197.04 881.69,-201.41 891.96,-204.01 891.35,-197.04"/>
</a>
</g>
</g>
<!-- Node23 -->
<g id="Node000023" class="node">
<title>Node23</title>
<g id="a_Node000023"><a xlink:href="../../dd/db3/_c_single_field_data_categorizer_8cc.html" target="_top" xlink:title=" ">
<polygon fill="white" stroke="#666666" points="1526.25,-163.5 1405.25,-163.5 1405.25,-133 1526.25,-133 1526.25,-163.5"/>
<text text-anchor="start" x="1413.25" y="-150" font-family="Helvetica,sans-Serif" font-size="10.00">lib/api/CSingleFieldData</text>
<text text-anchor="middle" x="1465.75" y="-138.75" font-family="Helvetica,sans-Serif" font-size="10.00">Categorizer.cc</text>
</a>
</g>
</g>
<!-- Node1&#45;&gt;Node23 -->
<g id="edge30_Node000001_Node000023" class="edge">
<title>Node1&#45;&gt;Node23</title>
<g id="a_edge30_Node000001_Node000023"><a xlink:title=" ">
<path fill="none" stroke="#63b8ff" d="M891.25,-204.91C1007.84,-199.92 1217.81,-188.2 1395.75,-163.5 1398.82,-163.07 1401.96,-162.59 1405.12,-162.08"/>
<polygon fill="#63b8ff" stroke="#63b8ff" points="891.28,-201.41 881.43,-205.32 891.57,-208.4 891.28,-201.41"/>
</a>
</g>
</g>
<!-- Node24 -->
<g id="Node000024" class="node">
<title>Node24</title>
<g id="a_Node000024"><a xlink:href="../../d8/dc0/_c_json_output_writer_test_8cc.html" target="_top" xlink:title=" ">
<polygon fill="white" stroke="#666666" points="1681.5,-163.5 1544,-163.5 1544,-133 1681.5,-133 1681.5,-163.5"/>
<text text-anchor="start" x="1552" y="-150" font-family="Helvetica,sans-Serif" font-size="10.00">lib/api/unittest/CJsonOutput</text>
<text text-anchor="middle" x="1612.75" y="-138.75" font-family="Helvetica,sans-Serif" font-size="10.00">WriterTest.cc</text>
</a>
</g>
</g>
<!-- Node1&#45;&gt;Node24 -->
<g id="edge33_Node000001_Node000024" class="edge">
<title>Node1&#45;&gt;Node24</title>
<g id="a_edge33_Node000001_Node000024"><a xlink:title=" ">
<path fill="none" stroke="#63b8ff" d="M891.49,-206.12C1029.98,-202.26 1303.93,-191.51 1534.75,-163.5 1537.76,-163.14 1540.82,-162.73 1543.91,-162.29"/>
<polygon fill="#63b8ff" stroke="#63b8ff" points="891.55,-202.62 881.65,-206.39 891.74,-209.62 891.55,-202.62"/>
</a>
</g>
</g>
<!-- Node4&#45;&gt;Node2 -->
<g id="edge4_Node000004_Node000002" class="edge">
<title>Node4&#45;&gt;Node2</title>
<g id="a_edge4_Node000004_Node000002"><a xlink:title=" ">
<path fill="none" stroke="#63b8ff" d="M498.75,-126.77C498.75,-114.94 498.75,-100.66 498.75,-91.64"/>
<polygon fill="#63b8ff" stroke="#63b8ff" points="495.25,-126.77 498.75,-136.77 502.25,-126.77 495.25,-126.77"/>
</a>
</g>
</g>
<!-- Node4&#45;&gt;Node5 -->
<g id="edge5_Node000004_Node000005" class="edge">
<title>Node4&#45;&gt;Node5</title>
<g id="a_edge5_Node000004_Node000005"><a xlink:title=" ">
<path fill="none" stroke="#63b8ff" d="M445.54,-135.73C387.49,-123.17 295.74,-103.31 242.6,-91.81"/>
<polygon fill="#63b8ff" stroke="#63b8ff" points="444.69,-139.13 455.21,-137.83 446.17,-132.29 444.69,-139.13"/>
</a>
</g>
</g>
<!-- Node4&#45;&gt;Node6 -->
<g id="edge6_Node000004_Node000006" class="edge">
<title>Node4&#45;&gt;Node6</title>
<g id="a_edge6_Node000004_Node000006"><a xlink:title=" ">
<path fill="none" stroke="#63b8ff" d="M526.23,-132.84C546.44,-122.24 573.79,-107.9 594.05,-97.28"/>
<polygon fill="#63b8ff" stroke="#63b8ff" points="524.68,-129.7 517.45,-137.44 527.93,-135.9 524.68,-129.7"/>
</a>
</g>
</g>
<!-- Node7 -->
<g id="Node000007" class="node">
<title>Node7</title>
<g id="a_Node000007"><a xlink:href="../../d7/deb/_c_test_anomaly_job_8h.html" target="_top" xlink:title=" ">
<polygon fill="white" stroke="#666666" points="422.88,-97 278.62,-97 278.62,-66.5 422.88,-66.5 422.88,-97"/>
<text text-anchor="start" x="286.62" y="-83.5" font-family="Helvetica,sans-Serif" font-size="10.00">lib/api/unittest/CTestAnomaly</text>
<text text-anchor="middle" x="350.75" y="-72.25" font-family="Helvetica,sans-Serif" font-size="10.00">Job.h</text>
</a>
</g>
</g>
<!-- Node4&#45;&gt;Node7 -->
<g id="edge7_Node000004_Node000007" class="edge">
<title>Node4&#45;&gt;Node7</title>
<g id="a_edge7_Node000004_Node000007"><a xlink:title=" ">
<path fill="none" stroke="#63b8ff" d="M467.39,-133.58C443.02,-122.96 409.29,-108.26 384.36,-97.4"/>
<polygon fill="#63b8ff" stroke="#63b8ff" points="465.91,-136.75 476.47,-137.54 468.7,-130.34 465.91,-136.75"/>
</a>
</g>
</g>
<!-- Node7&#45;&gt;Node8 -->
<g id="edge8_Node000007_Node000008" class="edge">
<title>Node7&#45;&gt;Node8</title>
<g id="a_edge8_Node000007_Node000008"><a xlink:title=" ">
<path fill="none" stroke="#63b8ff" d="M273.84,-63.53C227.52,-53.15 169.28,-40.11 125.71,-30.35"/>
<polygon fill="#63b8ff" stroke="#63b8ff" points="273.04,-66.93 283.56,-65.7 274.57,-60.1 273.04,-66.93"/>
</a>
</g>
</g>
<!-- Node9 -->
<g id="Node000009" class="node">
<title>Node9</title>
<g id="a_Node000009"><a xlink:href="../../d4/d7c/_c_anomaly_job_test_8cc.html" target="_top" xlink:title=" ">
<polygon fill="white" stroke="#666666" points="269.5,-30.5 144,-30.5 144,0 269.5,0 269.5,-30.5"/>
<text text-anchor="start" x="152" y="-17" font-family="Helvetica,sans-Serif" font-size="10.00">lib/api/unittest/CAnomaly</text>
<text text-anchor="middle" x="206.75" y="-5.75" font-family="Helvetica,sans-Serif" font-size="10.00">JobTest.cc</text>
</a>
</g>
</g>
<!-- Node7&#45;&gt;Node9 -->
<g id="edge9_Node000007_Node000009" class="edge">
<title>Node7&#45;&gt;Node9</title>
<g id="a_edge9_Node000007_Node000009"><a xlink:title=" ">
<path fill="none" stroke="#63b8ff" d="M307.7,-61.47C285.76,-51.64 259.52,-39.89 239.3,-30.83"/>
<polygon fill="#63b8ff" stroke="#63b8ff" points="306.14,-64.6 316.69,-65.5 309,-58.21 306.14,-64.6"/>
</a>
</g>
</g>
<!-- Node10 -->
<g id="Node000010" class="node">
<title>Node10</title>
<g id="a_Node000010"><a xlink:href="../../da/dbb/_c_forecast_runner_test_8cc.html" target="_top" xlink:title=" ">
<polygon fill="white" stroke="#666666" points="413.5,-30.5 288,-30.5 288,0 413.5,0 413.5,-30.5"/>
<text text-anchor="start" x="296" y="-17" font-family="Helvetica,sans-Serif" font-size="10.00">lib/api/unittest/CForecast</text>
<text text-anchor="middle" x="350.75" y="-5.75" font-family="Helvetica,sans-Serif" font-size="10.00">RunnerTest.cc</text>
</a>
</g>
</g>
<!-- Node7&#45;&gt;Node10 -->
<g id="edge10_Node000007_Node000010" class="edge">
<title>Node7&#45;&gt;Node10</title>
<g id="a_edge10_Node000007_Node000010"><a xlink:title=" ">
<path fill="none" stroke="#63b8ff" d="M350.75,-54.81C350.75,-46.64 350.75,-37.91 350.75,-30.83"/>
<polygon fill="#63b8ff" stroke="#63b8ff" points="347.25,-54.6 350.75,-64.6 354.25,-54.6 347.25,-54.6"/>
</a>
</g>
</g>
<!-- Node7&#45;&gt;Node11 -->
<g id="edge11_Node000007_Node000011" class="edge">
<title>Node7&#45;&gt;Node11</title>
<g id="a_edge11_Node000007_Node000011"><a xlink:title=" ">
<path fill="none" stroke="#63b8ff" d="M434.36,-66.31C761.84,-30.74 849.77,-70.64 1173.75,-30.5 1176.62,-30.14 1179.55,-29.74 1182.5,-29.29"/>
<polygon fill="#63b8ff" stroke="#63b8ff" points="434.17,-62.81 424.61,-67.39 434.94,-69.77 434.17,-62.81"/>
</a>
</g>
</g>
<!-- Node12 -->
<g id="Node000012" class="node">
<title>Node12</title>
<g id="a_Node000012"><a xlink:href="../../df/df3/_c_persistence_manager_test_8cc.html" target="_top" xlink:title=" ">
<polygon fill="white" stroke="#666666" points="877.25,-30.5 738.25,-30.5 738.25,0 877.25,0 877.25,-30.5"/>
<text text-anchor="start" x="746.25" y="-17" font-family="Helvetica,sans-Serif" font-size="10.00">lib/api/unittest/CPersistence</text>
<text text-anchor="middle" x="807.75" y="-5.75" font-family="Helvetica,sans-Serif" font-size="10.00">ManagerTest.cc</text>
</a>
</g>
</g>
<!-- Node7&#45;&gt;Node12 -->
<g id="edge12_Node000007_Node000012" class="edge">
<title>Node7&#45;&gt;Node12</title>
<g id="a_edge12_Node000007_Node000012"><a xlink:title=" ">
<path fill="none" stroke="#63b8ff" d="M434.4,-66.16C565.21,-47.14 600.86,-49.77 728.75,-30.5 731.78,-30.04 734.88,-29.56 738,-29.06"/>
<polygon fill="#63b8ff" stroke="#63b8ff" points="434.02,-62.68 424.64,-67.6 435.04,-69.6 434.02,-62.68"/>
</a>
</g>
</g>
<!-- Node13 -->
<g id="Node000013" class="node">
<title>Node13</title>
<g id="a_Node000013"><a xlink:href="../../d1/d67/_c_restore_previous_state_test_8cc.html" target="_top" xlink:title=" ">
<polygon fill="white" stroke="#666666" points="1016.62,-30.5 894.88,-30.5 894.88,0 1016.62,0 1016.62,-30.5"/>
<text text-anchor="start" x="902.88" y="-17" font-family="Helvetica,sans-Serif" font-size="10.00">lib/api/unittest/CRestore</text>
<text text-anchor="middle" x="955.75" y="-5.75" font-family="Helvetica,sans-Serif" font-size="10.00">PreviousStateTest.cc</text>
</a>
</g>
</g>
<!-- Node7&#45;&gt;Node13 -->
<g id="edge13_Node000007_Node000013" class="edge">
<title>Node7&#45;&gt;Node13</title>
<g id="a_edge13_Node000007_Node000013"><a xlink:title=" ">
<path fill="none" stroke="#63b8ff" d="M434.32,-66.26C634.5,-41.56 688.94,-58.23 885.75,-30.5 888.7,-30.08 891.71,-29.62 894.74,-29.12"/>
<polygon fill="#63b8ff" stroke="#63b8ff" points="434.11,-62.76 424.62,-67.48 434.98,-69.71 434.11,-62.76"/>
</a>
</g>
</g>
<!-- Node14 -->
<g id="Node000014" class="node">
<title>Node14</title>
<g id="a_Node000014"><a xlink:href="../../d4/de2/_c_single_stream_data_adder_test_8cc.html" target="_top" xlink:title=" ">
<polygon fill="white" stroke="#666666" points="719.88,-30.5 593.62,-30.5 593.62,0 719.88,0 719.88,-30.5"/>
<text text-anchor="start" x="601.62" y="-17" font-family="Helvetica,sans-Serif" font-size="10.00">lib/api/unittest/CSingle</text>
<text text-anchor="middle" x="656.75" y="-5.75" font-family="Helvetica,sans-Serif" font-size="10.00">StreamDataAdderTest.cc</text>
</a>
</g>
</g>
<!-- Node7&#45;&gt;Node14 -->
<g id="edge14_Node000007_Node000014" class="edge">
<title>Node7&#45;&gt;Node14</title>
<g id="a_edge14_Node000007_Node000014"><a xlink:title=" ">
<path fill="none" stroke="#63b8ff" d="M431.79,-63.67C482.31,-53.02 546.39,-39.51 593.22,-29.64"/>
<polygon fill="#63b8ff" stroke="#63b8ff" points="431.11,-60.23 422.05,-65.72 432.56,-67.08 431.11,-60.23"/>
</a>
</g>
</g>
<!-- Node15 -->
<g id="Node000015" class="node">
<title>Node15</title>
<g id="a_Node000015"><a xlink:href="../../de/d85/_c_test_anomaly_job_8cc.html" target="_top" xlink:title=" ">
<polygon fill="white" stroke="#666666" points="575.88,-30.5 431.62,-30.5 431.62,0 575.88,0 575.88,-30.5"/>
<text text-anchor="start" x="439.62" y="-17" font-family="Helvetica,sans-Serif" font-size="10.00">lib/api/unittest/CTestAnomaly</text>
<text text-anchor="middle" x="503.75" y="-5.75" font-family="Helvetica,sans-Serif" font-size="10.00">Job.cc</text>
</a>
</g>
</g>
<!-- Node7&#45;&gt;Node15 -->
<g id="edge15_Node000007_Node000015" class="edge">
<title>Node7&#45;&gt;Node15</title>
<g id="a_edge15_Node000007_Node000015"><a xlink:title=" ">
<path fill="none" stroke="#63b8ff" d="M395.82,-61.75C419.17,-51.91 447.24,-40.07 468.9,-30.94"/>
<polygon fill="#63b8ff" stroke="#63b8ff" points="394.72,-58.42 386.86,-65.53 397.44,-64.87 394.72,-58.42"/>
</a>
</g>
</g>
<!-- Node16&#45;&gt;Node2 -->
<g id="edge17_Node000016_Node000002" class="edge">
<title>Node16&#45;&gt;Node2</title>
<g id="a_edge17_Node000016_Node000002"><a xlink:title=" ">
<path fill="none" stroke="#63b8ff" d="M789.99,-136.36C730.31,-126.71 641.65,-111.87 564.75,-97 556.58,-95.42 547.86,-93.62 539.53,-91.84"/>
<polygon fill="#63b8ff" stroke="#63b8ff" points="789.23,-139.79 799.66,-137.92 790.34,-132.87 789.23,-139.79"/>
</a>
</g>
</g>
<!-- Node16&#45;&gt;Node3 -->
<g id="edge18_Node000016_Node000003" class="edge">
<title>Node16&#45;&gt;Node3</title>
<g id="a_edge18_Node000016_Node000003"><a xlink:title=" ">
<path fill="none" stroke="#63b8ff" d="M833.15,-132.77C810.99,-120.23 779.64,-102.49 760.83,-91.85"/>
<polygon fill="#63b8ff" stroke="#63b8ff" points="831.15,-135.66 841.58,-137.54 834.6,-129.57 831.15,-135.66"/>
</a>
</g>
</g>
<!-- Node16&#45;&gt;Node6 -->
<g id="edge20_Node000016_Node000006" class="edge">
<title>Node16&#45;&gt;Node6</title>
<g id="a_edge20_Node000016_Node000006"><a xlink:title=" ">
<path fill="none" stroke="#63b8ff" d="M814.24,-135.14C773.08,-123.93 712.06,-107.33 669.8,-95.83"/>
<polygon fill="#63b8ff" stroke="#63b8ff" points="813.27,-138.5 823.84,-137.75 815.11,-131.74 813.27,-138.5"/>
</a>
</g>
</g>
<!-- Node17 -->
<g id="Node000017" class="node">
<title>Node17</title>
<g id="a_Node000017"><a xlink:href="../../d5/d77/_c_field_data_categorizer_8cc.html" target="_top" xlink:title=" ">
<polygon fill="white" stroke="#666666" points="977.25,-91.38 820.25,-91.38 820.25,-72.12 977.25,-72.12 977.25,-91.38"/>
<text text-anchor="middle" x="898.75" y="-77.88" font-family="Helvetica,sans-Serif" font-size="10.00">lib/api/CFieldDataCategorizer.cc</text>
</a>
</g>
</g>
<!-- Node16&#45;&gt;Node17 -->
<g id="edge19_Node000016_Node000017" class="edge">
<title>Node16&#45;&gt;Node17</title>
<g id="a_edge19_Node000016_Node000017"><a xlink:title=" ">
<path fill="none" stroke="#63b8ff" d="M870.29,-128.64C877.84,-116.48 887.34,-101.14 893.24,-91.64"/>
<polygon fill="#63b8ff" stroke="#63b8ff" points="867.41,-126.65 865.11,-137 873.35,-130.34 867.41,-126.65"/>
</a>
</g>
</g>
<!-- Node16&#45;&gt;Node18 -->
<g id="edge21_Node000016_Node000018" class="edge">
<title>Node16&#45;&gt;Node18</title>
<g id="a_edge21_Node000016_Node000018"><a xlink:title=" ">
<path fill="none" stroke="#63b8ff" d="M919.48,-136.12C980.78,-124.89 1075.39,-107.55 1140.04,-95.71"/>
<polygon fill="#63b8ff" stroke="#63b8ff" points="919.13,-132.63 909.93,-137.87 920.39,-139.51 919.13,-132.63"/>
</a>
</g>
</g>
<!-- Node19 -->
<g id="Node000019" class="node">
<title>Node19</title>
<g id="a_Node000019"><a xlink:href="../../dc/d56/_c_test_field_data_categorizer_8h.html" target="_top" xlink:title=" ">
<polygon fill="white" stroke="#666666" points="1122.25,-97 995.25,-97 995.25,-66.5 1122.25,-66.5 1122.25,-97"/>
<text text-anchor="start" x="1003.25" y="-83.5" font-family="Helvetica,sans-Serif" font-size="10.00">lib/api/unittest/CTestField</text>
<text text-anchor="middle" x="1058.75" y="-72.25" font-family="Helvetica,sans-Serif" font-size="10.00">DataCategorizer.h</text>
</a>
</g>
</g>
<!-- Node16&#45;&gt;Node19 -->
<g id="edge22_Node000016_Node000019" class="edge">
<title>Node16&#45;&gt;Node19</title>
<g id="a_edge22_Node000016_Node000019"><a xlink:title=" ">
<path fill="none" stroke="#63b8ff" d="M897.62,-134.71C930.76,-124.03 978.43,-108.65 1013.33,-97.4"/>
<polygon fill="#63b8ff" stroke="#63b8ff" points="896.86,-131.28 888.42,-137.68 899.01,-137.94 896.86,-131.28"/>
</a>
</g>
</g>
<!-- Node19&#45;&gt;Node12 -->
<g id="edge24_Node000019_Node000012" class="edge">
<title>Node19&#45;&gt;Node12</title>
<g id="a_edge24_Node000019_Node000012"><a xlink:title=" ">
<path fill="none" stroke="#63b8ff" d="M990.38,-63.18C951,-53.06 902.07,-40.49 864.77,-30.9"/>
<polygon fill="#63b8ff" stroke="#63b8ff" points="989.46,-66.56 1000.01,-65.66 991.2,-59.78 989.46,-66.56"/>
</a>
</g>
</g>
<!-- Node19&#45;&gt;Node13 -->
<g id="edge25_Node000019_Node000013" class="edge">
<title>Node19&#45;&gt;Node13</title>
<g id="a_edge25_Node000019_Node000013"><a xlink:title=" ">
<path fill="none" stroke="#63b8ff" d="M1025.8,-60.11C1010.57,-50.58 992.84,-39.48 979.03,-30.83"/>
<polygon fill="#63b8ff" stroke="#63b8ff" points="1023.76,-62.97 1034.09,-65.31 1027.48,-57.04 1023.76,-62.97"/>
</a>
</g>
</g>
<!-- Node19&#45;&gt;Node14 -->
<g id="edge26_Node000019_Node000014" class="edge">
<title>Node19&#45;&gt;Node14</title>
<g id="a_edge26_Node000019_Node000014"><a xlink:title=" ">
<path fill="none" stroke="#63b8ff" d="M983.81,-66.24C870.07,-47.56 838.92,-49.1 728.75,-30.5 725.99,-30.03 723.16,-29.54 720.32,-29.03"/>
<polygon fill="#63b8ff" stroke="#63b8ff" points="983.15,-69.68 993.59,-67.87 984.3,-62.77 983.15,-69.68"/>
</a>
</g>
</g>
<!-- Node20 -->
<g id="Node000020" class="node">
<title>Node20</title>
<g id="a_Node000020"><a xlink:href="../../d6/d2e/_c_field_data_categorizer_test_8cc.html" target="_top" xlink:title=" ">
<polygon fill="white" stroke="#666666" points="1164.38,-30.5 1035.12,-30.5 1035.12,0 1164.38,0 1164.38,-30.5"/>
<text text-anchor="start" x="1043.12" y="-17" font-family="Helvetica,sans-Serif" font-size="10.00">lib/api/unittest/CFieldData</text>
<text text-anchor="middle" x="1099.75" y="-5.75" font-family="Helvetica,sans-Serif" font-size="10.00">CategorizerTest.cc</text>
</a>
</g>
</g>
<!-- Node19&#45;&gt;Node20 -->
<g id="edge23_Node000019_Node000020" class="edge">
<title>Node19&#45;&gt;Node20</title>
<g id="a_edge23_Node000019_Node000020"><a xlink:title=" ">
<path fill="none" stroke="#63b8ff" d="M1074.16,-56.51C1079.65,-47.87 1085.67,-38.41 1090.48,-30.83"/>
<polygon fill="#63b8ff" stroke="#63b8ff" points="1071.28,-54.52 1068.87,-64.84 1077.18,-58.27 1071.28,-54.52"/>
</a>
</g>
</g>
<!-- Node21 -->
<g id="Node000021" class="node">
<title>Node21</title>
<g id="a_Node000021"><a xlink:href="../../d0/d5d/_c_test_field_data_categorizer_8cc.html" target="_top" xlink:title=" ">
<polygon fill="white" stroke="#666666" points="1452.25,-30.5 1325.25,-30.5 1325.25,0 1452.25,0 1452.25,-30.5"/>
<text text-anchor="start" x="1333.25" y="-17" font-family="Helvetica,sans-Serif" font-size="10.00">lib/api/unittest/CTestField</text>
<text text-anchor="middle" x="1388.75" y="-5.75" font-family="Helvetica,sans-Serif" font-size="10.00">DataCategorizer.cc</text>
</a>
</g>
</g>
<!-- Node19&#45;&gt;Node21 -->
<g id="edge27_Node000019_Node000021" class="edge">
<title>Node19&#45;&gt;Node21</title>
<g id="a_edge27_Node000019_Node000021"><a xlink:title=" ">
<path fill="none" stroke="#63b8ff" d="M1133.61,-66.12C1191.24,-54.85 1270.04,-39.45 1324.76,-28.76"/>
<polygon fill="#63b8ff" stroke="#63b8ff" points="1133.01,-62.67 1123.86,-68.02 1134.35,-69.54 1133.01,-62.67"/>
</a>
</g>
</g>
</g>
</svg>
