<?xml version="1.0" encoding="UTF-8" standalone="no"?>
<!DOCTYPE svg PUBLIC "-//W3C//DTD SVG 1.1//EN"
 "http://www.w3.org/Graphics/SVG/1.1/DTD/svg11.dtd">
<!-- Generated by graphviz version 10.0.1 (20240210.2158)
 -->
<!-- Title: ml::maths::common::CQDigest::CNodeAllocator::release Pages: 1 -->
<svg width="636pt" height="50pt"
 viewBox="0.00 0.00 636.00 49.75" xmlns="http://www.w3.org/2000/svg" xmlns:xlink="http://www.w3.org/1999/xlink">
<g id="graph0" class="graph" transform="scale(1 1) rotate(0) translate(4 45.75)">
<title>ml::maths::common::CQDigest::CNodeAllocator::release</title>
<!-- Node1 -->
<g id="Node000001" class="node">
<title>Node1</title>
<g id="a_Node000001"><a xlink:title="Recycle node.">
<polygon fill="#999999" stroke="#666666" points="628,-41.75 493.5,-41.75 493.5,0 628,0 628,-41.75"/>
<text text-anchor="start" x="501.5" y="-28.25" font-family="Helvetica,sans-Serif" font-size="10.00">ml::maths::common::</text>
<text text-anchor="start" x="501.5" y="-17" font-family="Helvetica,sans-Serif" font-size="10.00">CQDigest::CNodeAllocator</text>
<text text-anchor="middle" x="560.75" y="-5.75" font-family="Helvetica,sans-Serif" font-size="10.00">::release</text>
</a>
</g>
</g>
<!-- Node2 -->
<g id="Node000002" class="node">
<title>Node2</title>
<g id="a_Node000002"><a xlink:href="../../dc/d42/classml_1_1maths_1_1common_1_1_c_q_digest_1_1_c_node.html#ab9793b4bd47bda1b3d3b033649a2ce21" target="_top" xlink:title="Detach this node from the q&#45;digest.">
<polygon fill="white" stroke="#666666" points="457.5,-36.12 326,-36.12 326,-5.62 457.5,-5.62 457.5,-36.12"/>
<text text-anchor="start" x="334" y="-22.62" font-family="Helvetica,sans-Serif" font-size="10.00">ml::maths::common::</text>
<text text-anchor="middle" x="391.75" y="-11.38" font-family="Helvetica,sans-Serif" font-size="10.00">CQDigest::CNode::detach</text>
</a>
</g>
</g>
<!-- Node1&#45;&gt;Node2 -->
<g id="edge1_Node000001_Node000002" class="edge">
<title>Node1&#45;&gt;Node2</title>
<g id="a_edge1_Node000001_Node000002"><a xlink:title=" ">
<path fill="none" stroke="#63b8ff" d="M481.97,-20.88C473.92,-20.88 465.8,-20.88 457.91,-20.88"/>
<polygon fill="#63b8ff" stroke="#63b8ff" points="481.75,-24.38 491.75,-20.88 481.75,-17.38 481.75,-24.38"/>
</a>
</g>
</g>
<!-- Node3 -->
<g id="Node000003" class="node">
<title>Node3</title>
<g id="a_Node000003"><a xlink:href="../../dc/d42/classml_1_1maths_1_1common_1_1_c_q_digest_1_1_c_node.html#ace3b6509ca106dd32a4eb2e6370d3c16" target="_top" xlink:title=" ">
<polygon fill="white" stroke="#666666" points="290,-36.12 145,-36.12 145,-5.62 290,-5.62 290,-36.12"/>
<text text-anchor="start" x="153" y="-22.62" font-family="Helvetica,sans-Serif" font-size="10.00">ml::maths::common::</text>
<text text-anchor="middle" x="217.5" y="-11.38" font-family="Helvetica,sans-Serif" font-size="10.00">CQDigest::CNode::compress</text>
</a>
</g>
</g>
<!-- Node2&#45;&gt;Node3 -->
<g id="edge2_Node000002_Node000003" class="edge">
<title>Node2&#45;&gt;Node3</title>
<g id="a_edge2_Node000002_Node000003"><a xlink:title=" ">
<path fill="none" stroke="#63b8ff" d="M314.14,-20.88C306.23,-20.88 298.2,-20.88 290.34,-20.88"/>
<polygon fill="#63b8ff" stroke="#63b8ff" points="314.12,-24.38 324.12,-20.88 314.12,-17.38 314.12,-24.38"/>
</a>
</g>
</g>
<!-- Node4 -->
<g id="Node000004" class="node">
<title>Node4</title>
<g id="a_Node000004"><a xlink:href="../../d5/dc5/classml_1_1maths_1_1common_1_1_c_q_digest.html#a273fa405a3bd161da23532d0863b6798" target="_top" xlink:title=" ">
<polygon fill="white" stroke="#666666" points="109,-36.12 0,-36.12 0,-5.62 109,-5.62 109,-36.12"/>
<text text-anchor="start" x="8" y="-22.62" font-family="Helvetica,sans-Serif" font-size="10.00">ml::maths::common::</text>
<text text-anchor="middle" x="54.5" y="-11.38" font-family="Helvetica,sans-Serif" font-size="10.00">CQDigest::compress</text>
</a>
</g>
</g>
<!-- Node3&#45;&gt;Node4 -->
<g id="edge3_Node000003_Node000004" class="edge">
<title>Node3&#45;&gt;Node4</title>
<g id="a_edge3_Node000003_Node000004"><a xlink:title=" ">
<path fill="none" stroke="#63b8ff" d="M133.44,-20.88C125.29,-20.88 117.18,-20.88 109.44,-20.88"/>
<polygon fill="#63b8ff" stroke="#63b8ff" points="133.43,-24.38 143.43,-20.88 133.43,-17.38 133.43,-24.38"/>
</a>
</g>
</g>
</g>
</svg>
