<?xml version="1.0" encoding="UTF-8" standalone="no"?>
<!DOCTYPE svg PUBLIC "-//W3C//DTD SVG 1.1//EN"
 "http://www.w3.org/Graphics/SVG/1.1/DTD/svg11.dtd">
<!-- Generated by graphviz version 10.0.1 (20240210.2158)
 -->
<!-- Title: ml::api::CBoostedTreeInferenceModelBuilder Pages: 1 -->
<!--zoomable 98 -->

<svg id="main" version="1.1" xmlns="http://www.w3.org/2000/svg" xmlns:xlink="http://www.w3.org/1999/xlink" xml:space="preserve" onload="init(evt)">
<style type="text/css"><![CDATA[
.node, .edge {opacity: 0.7;}
.node.selected, .edge.selected {opacity: 1;}
.edge:hover path { stroke: red; }
.edge:hover polygon { stroke: red; fill: red; }
]]></style>

<defs>
  <circle id="rim" cx="0" cy="0" r="7"/>
  <circle id="rim2" cx="0" cy="0" r="3.5"/>
  <g id="zoomPlus">
    <use xlink:href="#rim" fill="#404040"><set attributeName="fill" to="#808080" begin="zoomplus.mouseover" end="zoomplus.mouseout"/></use>
    <path d="M-4,0h8M0,-4v8" fill="none" stroke="white" stroke-width="1.5" pointer-events="none"/>
  </g>
  <g id="zoomMin">
    <use xlink:href="#rim" fill="#404040"><set attributeName="fill" to="#808080" begin="zoomminus.mouseover" end="zoomminus.mouseout"/></use>
    <path d="M-4,0h8" fill="none" stroke="white" stroke-width="1.5" pointer-events="none"/>
  </g>
  <g id="arrowUp" transform="translate(30 24)">
    <use xlink:href="#rim"/>
    <path pointer-events="none" fill="none" stroke="white" stroke-width="1.5" d="M0,-3.0v7 M-2.5,-0.5L0,-3.0L2.5,-0.5"/>
  </g>
  <g id="arrowRight" transform="rotate(90) translate(36 -43)">
    <use xlink:href="#rim"/>
    <path pointer-events="none" fill="none" stroke="white" stroke-width="1.5" d="M0,-3.0v7 M-2.5,-0.5L0,-3.0L2.5,-0.5"/>
  </g>
  <g id="arrowDown" transform="rotate(180) translate(-30 -48)">
    <use xlink:href="#rim"/>
    <path pointer-events="none" fill="none" stroke="white" stroke-width="1.5" d="M0,-3.0v7 M-2.5,-0.5L0,-3.0L2.5,-0.5"/>
  </g>
  <g id="arrowLeft" transform="rotate(270) translate(-36 17)">
    <use xlink:href="#rim"/>
    <path pointer-events="none" fill="none" stroke="white" stroke-width="1.5" d="M0,-3.0v7 M-2.5,-0.5L0,-3.0L2.5,-0.5"/>
  </g>
  <g id="resetDef">
    <use xlink:href="#rim2" fill="#404040"><set attributeName="fill" to="#808080" begin="reset.mouseover" end="reset.mouseout"/></use>
  </g>
</defs>
<script type="application/ecmascript">
var viewWidth = 700;
var viewHeight = 98;
var sectionId = 'dynsection-0';
</script>
<script type="application/ecmascript" xlink:href="../../svg.min.js"/>
<svg id="graph" class="graph">
<g id="viewport">
<title>ml::api::CBoostedTreeInferenceModelBuilder</title>
<!-- Node1 -->
<g id="Node000001" class="node">
<title>Node1</title>
<g id="a_Node000001"><a xlink:title="Builds a serialisable trained model object by visiting a maths::analytics::CBoostedTree object.">
<polygon fill="#999999" stroke="#666666" points="507,-57.5 352.25,-57.5 352.25,-27 507,-27 507,-57.5"/>
<text text-anchor="start" x="360.25" y="-44" font-family="Helvetica,sans-Serif" font-size="10.00">ml::api::CBoostedTreeInference</text>
<text text-anchor="middle" x="429.62" y="-32.75" font-family="Helvetica,sans-Serif" font-size="10.00">ModelBuilder</text>
</a>
</g>
</g>
<!-- Node5 -->
<g id="Node000005" class="node">
<title>Node5</title>
<g id="a_Node000005"><a xlink:href="../../dd/d5c/classml_1_1api_1_1_c_classification_inference_model_builder.html" target="_top" xlink:title=" ">
<polygon fill="white" stroke="#666666" points="676.38,-82.5 558.38,-82.5 558.38,-52 676.38,-52 676.38,-82.5"/>
<text text-anchor="start" x="566.38" y="-69" font-family="Helvetica,sans-Serif" font-size="10.00">ml::api::CClassification</text>
<text text-anchor="middle" x="617.38" y="-57.75" font-family="Helvetica,sans-Serif" font-size="10.00">InferenceModelBuilder</text>
</a>
</g>
</g>
<!-- Node1&#45;&gt;Node5 -->
<g id="edge4_Node000001_Node000005" class="edge">
<title>Node1&#45;&gt;Node5</title>
<g id="a_edge4_Node000001_Node000005"><a xlink:title=" ">
<path fill="none" stroke="#63b8ff" d="M518.48,-54.07C531.92,-55.88 545.5,-57.71 558.09,-59.41"/>
<polygon fill="#63b8ff" stroke="#63b8ff" points="519.13,-50.63 508.75,-52.76 518.19,-57.57 519.13,-50.63"/>
</a>
</g>
</g>
<!-- Node6 -->
<g id="Node000006" class="node">
<title>Node6</title>
<g id="a_Node000006"><a xlink:href="../../d1/dbd/classml_1_1api_1_1_c_regression_inference_model_builder.html" target="_top" xlink:title=" ">
<polygon fill="white" stroke="#666666" points="691.75,-33.5 543,-33.5 543,-3 691.75,-3 691.75,-33.5"/>
<text text-anchor="start" x="551" y="-20" font-family="Helvetica,sans-Serif" font-size="10.00">ml::api::CRegressionInference</text>
<text text-anchor="middle" x="617.38" y="-8.75" font-family="Helvetica,sans-Serif" font-size="10.00">ModelBuilder</text>
</a>
</g>
</g>
<!-- Node1&#45;&gt;Node6 -->
<g id="edge5_Node000001_Node000006" class="edge">
<title>Node1&#45;&gt;Node6</title>
<g id="a_edge5_Node000001_Node000006"><a xlink:title=" ">
<path fill="none" stroke="#63b8ff" d="M518.57,-30.89C526.62,-29.85 534.71,-28.8 542.62,-27.78"/>
<polygon fill="#63b8ff" stroke="#63b8ff" points="518.22,-27.4 508.75,-32.16 519.12,-34.35 518.22,-27.4"/>
</a>
</g>
</g>
<!-- Node2 -->
<g id="Node000002" class="node">
<title>Node2</title>
<g id="a_Node000002"><a xlink:href="../../da/df0/classml_1_1maths_1_1analytics_1_1_c_boosted_tree_1_1_c_visitor.html" target="_top" xlink:title=" ">
<polygon fill="white" stroke="#666666" points="316.25,-57.5 190,-57.5 190,-27 316.25,-27 316.25,-57.5"/>
<text text-anchor="start" x="198" y="-44" font-family="Helvetica,sans-Serif" font-size="10.00">ml::maths::analytics</text>
<text text-anchor="middle" x="253.12" y="-32.75" font-family="Helvetica,sans-Serif" font-size="10.00">::CBoostedTree::CVisitor</text>
</a>
</g>
</g>
<!-- Node2&#45;&gt;Node1 -->
<g id="edge1_Node000001_Node000002" class="edge">
<title>Node2&#45;&gt;Node1</title>
<g id="a_edge1_Node000001_Node000002"><a xlink:title=" ">
<path fill="none" stroke="#63b8ff" d="M328.06,-42.25C335.96,-42.25 344.01,-42.25 351.93,-42.25"/>
<polygon fill="#63b8ff" stroke="#63b8ff" points="328.14,-38.75 318.14,-42.25 328.14,-45.75 328.14,-38.75"/>
</a>
</g>
</g>
<!-- Node3 -->
<g id="Node000003" class="node">
<title>Node3</title>
<g id="a_Node000003"><a xlink:href="../../de/d81/classml_1_1maths_1_1analytics_1_1_c_data_frame_category_encoder_1_1_c_visitor.html" target="_top" xlink:title="Visits each encoding type.">
<polygon fill="white" stroke="#666666" points="154,-90.12 0,-90.12 0,-48.38 154,-48.38 154,-90.12"/>
<text text-anchor="start" x="8" y="-76.62" font-family="Helvetica,sans-Serif" font-size="10.00">ml::maths::analytics</text>
<text text-anchor="start" x="8" y="-65.38" font-family="Helvetica,sans-Serif" font-size="10.00">::CDataFrameCategoryEncoder</text>
<text text-anchor="middle" x="77" y="-54.12" font-family="Helvetica,sans-Serif" font-size="10.00">::CVisitor</text>
</a>
</g>
</g>
<!-- Node3&#45;&gt;Node2 -->
<g id="edge2_Node000002_Node000003" class="edge">
<title>Node3&#45;&gt;Node2</title>
<g id="a_edge2_Node000002_Node000003"><a xlink:title=" ">
<path fill="none" stroke="#63b8ff" d="M165.48,-55.69C173.63,-54.42 181.79,-53.16 189.65,-51.94"/>
<polygon fill="#63b8ff" stroke="#63b8ff" points="165.22,-52.18 155.87,-57.18 166.29,-59.1 165.22,-52.18"/>
</a>
</g>
</g>
<!-- Node4 -->
<g id="Node000004" class="node">
<title>Node4</title>
<g id="a_Node000004"><a xlink:href="../../da/d0e/classml_1_1maths_1_1analytics_1_1_c_boosted_tree_node_1_1_c_visitor.html" target="_top" xlink:title=" ">
<polygon fill="white" stroke="#666666" points="151.75,-30.5 2.25,-30.5 2.25,0 151.75,0 151.75,-30.5"/>
<text text-anchor="start" x="10.25" y="-17" font-family="Helvetica,sans-Serif" font-size="10.00">ml::maths::analytics</text>
<text text-anchor="middle" x="77" y="-5.75" font-family="Helvetica,sans-Serif" font-size="10.00">::CBoostedTreeNode::CVisitor</text>
</a>
</g>
</g>
<!-- Node4&#45;&gt;Node2 -->
<g id="edge3_Node000002_Node000004" class="edge">
<title>Node4&#45;&gt;Node2</title>
<g id="a_edge3_Node000002_Node000004"><a xlink:title=" ">
<path fill="none" stroke="#63b8ff" d="M163.3,-28.48C172.17,-29.85 181.06,-31.23 189.62,-32.56"/>
<polygon fill="#63b8ff" stroke="#63b8ff" points="164.01,-25.05 153.59,-26.97 162.94,-31.96 164.01,-25.05"/>
</a>
</g>
</g>
</g>
</svg>

<g id="navigator" transform="translate(0 0)" fill="#404254">
  <rect fill="#f2f5e9" fill-opacity="0.5" stroke="#606060" stroke-width=".5" x="0" y="0" width="60" height="60"/>
  <use id="zoomplus" xlink:href="#zoomPlus" x="17" y="9" onmousedown="handleZoom(evt,'in')"/>
  <use id="zoomminus" xlink:href="#zoomMin" x="42" y="9" onmousedown="handleZoom(evt,'out')"/>
  <use id="reset" xlink:href="#resetDef" x="30" y="36" onmousedown="handleReset()"/>
   <use id="arrowup" xlink:href="#arrowUp" x="0" y="0" onmousedown="handlePan(0,-1)"/>
  <use id="arrowright" xlink:href="#arrowRight" x="0" y="0" onmousedown="handlePan(1,0)"/>
  <use id="arrowdown" xlink:href="#arrowDown" x="0" y="0" onmousedown="handlePan(0,1)"/>
  <use id="arrowleft" xlink:href="#arrowLeft" x="0" y="0" onmousedown="handlePan(-1,0)"/>
</g>
<svg viewBox="0 0 15 15" width="100%" height="30px" preserveAspectRatio="xMaxYMin meet">
 <g id="arrow_out" transform="scale(0.3 0.3)">
  <a xlink:href="classml_1_1api_1_1_c_boosted_tree_inference_model_builder__inherit__graph_org.svg" target="_base">
   <rect id="button" ry="5" rx="5" y="6" x="6" height="38" width="38"
        fill="#f2f5e9" fill-opacity="0.5" stroke="#606060" stroke-width="1.0"/>
   <path id="arrow"
     d="M 11.500037,31.436501 C 11.940474,20.09759 22.043105,11.32322 32.158766,21.979434 L 37.068811,17.246167 C 37.068811,17.246167 37.088388,32 37.088388,32 L 22.160133,31.978069 C 22.160133,31.978069 26.997745,27.140456 26.997745,27.140456 C 18.528582,18.264221 13.291696,25.230495 11.500037,31.436501 z"
     style="fill:#404040;"/>
  </a>
 </g>
</svg>

<style type='text/css'>
<![CDATA[
[data-mouse-over-selected='false'] { opacity: 0.7; }
[data-mouse-over-selected='true']  { opacity: 1.0; }
]]>
</style>
<script type="application/ecmascript"><![CDATA[
document.addEventListener('DOMContentLoaded', (event) => {
  highlightEdges();
  highlightAdjacentNodes();
});
]]></script>
</svg>
