<?xml version="1.0" encoding="UTF-8" standalone="no"?>
<!DOCTYPE svg PUBLIC "-//W3C//DTD SVG 1.1//EN"
 "http://www.w3.org/Graphics/SVG/1.1/DTD/svg11.dtd">
<!-- Generated by graphviz version 10.0.1 (20240210.2158)
 -->
<!-- Title: ml::maths::common::CBjkstUniqueValues::number Pages: 1 -->
<svg width="504pt" height="183pt"
 viewBox="0.00 0.00 503.75 182.88" xmlns="http://www.w3.org/2000/svg" xmlns:xlink="http://www.w3.org/1999/xlink">
<g id="graph0" class="graph" transform="scale(1 1) rotate(0) translate(4 178.88)">
<title>ml::maths::common::CBjkstUniqueValues::number</title>
<!-- Node1 -->
<g id="Node000001" class="node">
<title>Node1</title>
<g id="a_Node000001"><a xlink:title="Get an estimate of the number of unique values added.">
<polygon fill="#999999" stroke="#666666" points="495.75,-130.12 383.75,-130.12 383.75,-88.38 495.75,-88.38 495.75,-130.12"/>
<text text-anchor="start" x="391.75" y="-116.62" font-family="Helvetica,sans-Serif" font-size="10.00">ml::maths::common::</text>
<text text-anchor="start" x="391.75" y="-105.38" font-family="Helvetica,sans-Serif" font-size="10.00">CBjkstUniqueValues::</text>
<text text-anchor="middle" x="439.75" y="-94.12" font-family="Helvetica,sans-Serif" font-size="10.00">number</text>
</a>
</g>
</g>
<!-- Node2 -->
<g id="Node000002" class="node">
<title>Node2</title>
<g id="a_Node000002"><a xlink:href="../../de/d8a/_c_bjkst_unique_values_test_8cc.html#a054c853d4abd4ea7a352cf8ca0a6df46" target="_top" xlink:title=" ">
<polygon fill="white" stroke="#666666" points="347.75,-174.88 200.5,-174.88 200.5,-155.62 347.75,-155.62 347.75,-174.88"/>
<text text-anchor="middle" x="274.12" y="-161.38" font-family="Helvetica,sans-Serif" font-size="10.00">BOOST_AUTO_TEST_CASE</text>
</a>
</g>
</g>
<!-- Node1&#45;&gt;Node2 -->
<g id="edge1_Node000001_Node000002" class="edge">
<title>Node1&#45;&gt;Node2</title>
<g id="a_edge1_Node000001_Node000002"><a xlink:title=" ">
<path fill="none" stroke="#63b8ff" d="M381.21,-134.83C370.22,-139.27 358.71,-143.63 347.75,-147.25 338.99,-150.14 329.51,-152.82 320.37,-155.17"/>
<polygon fill="#63b8ff" stroke="#63b8ff" points="382.26,-138.18 390.17,-131.14 379.59,-131.71 382.26,-138.18"/>
</a>
</g>
</g>
<!-- Node3 -->
<g id="Node000003" class="node">
<title>Node3</title>
<g id="a_Node000003"><a xlink:href="../../de/d8a/_c_bjkst_unique_values_test_8cc.html#ae9284a33e71d07d3e2306cbbbeea3d7f" target="_top" xlink:title=" ">
<polygon fill="white" stroke="#666666" points="347.75,-137.88 200.5,-137.88 200.5,-118.62 347.75,-118.62 347.75,-137.88"/>
<text text-anchor="middle" x="274.12" y="-124.38" font-family="Helvetica,sans-Serif" font-size="10.00">BOOST_AUTO_TEST_CASE</text>
</a>
</g>
</g>
<!-- Node1&#45;&gt;Node3 -->
<g id="edge2_Node000001_Node000003" class="edge">
<title>Node1&#45;&gt;Node3</title>
<g id="a_edge2_Node000001_Node000003"><a xlink:title=" ">
<path fill="none" stroke="#63b8ff" d="M372.01,-117C364.15,-117.91 356.1,-118.85 348.16,-119.77"/>
<polygon fill="#63b8ff" stroke="#63b8ff" points="372.32,-120.49 381.85,-115.86 371.51,-113.53 372.32,-120.49"/>
</a>
</g>
</g>
<!-- Node4 -->
<g id="Node000004" class="node">
<title>Node4</title>
<g id="a_Node000004"><a xlink:href="../../de/d8a/_c_bjkst_unique_values_test_8cc.html#a973c32e012df6834d1c9147a7d4cfd95" target="_top" xlink:title=" ">
<polygon fill="white" stroke="#666666" points="347.75,-100.88 200.5,-100.88 200.5,-81.62 347.75,-81.62 347.75,-100.88"/>
<text text-anchor="middle" x="274.12" y="-87.38" font-family="Helvetica,sans-Serif" font-size="10.00">BOOST_AUTO_TEST_CASE</text>
</a>
</g>
</g>
<!-- Node1&#45;&gt;Node4 -->
<g id="edge3_Node000001_Node000004" class="edge">
<title>Node1&#45;&gt;Node4</title>
<g id="a_edge3_Node000001_Node000004"><a xlink:title=" ">
<path fill="none" stroke="#63b8ff" d="M372.01,-101.91C364.15,-101.04 356.1,-100.16 348.16,-99.28"/>
<polygon fill="#63b8ff" stroke="#63b8ff" points="371.53,-105.38 381.85,-102.99 372.29,-98.42 371.53,-105.38"/>
</a>
</g>
</g>
<!-- Node5 -->
<g id="Node000005" class="node">
<title>Node5</title>
<g id="a_Node000005"><a xlink:href="../../dc/d29/classml_1_1model_1_1_c_population_model.html#a7e3f0ac26799580475964c55e0d9b297" target="_top" xlink:title=" ">
<polygon fill="white" stroke="#666666" points="346.25,-63.5 202,-63.5 202,-33 346.25,-33 346.25,-63.5"/>
<text text-anchor="start" x="210" y="-50" font-family="Helvetica,sans-Serif" font-size="10.00">ml::model::CPopulationModel</text>
<text text-anchor="middle" x="274.12" y="-38.75" font-family="Helvetica,sans-Serif" font-size="10.00">::sampleRateWeight</text>
</a>
</g>
</g>
<!-- Node1&#45;&gt;Node5 -->
<g id="edge4_Node000001_Node000005" class="edge">
<title>Node1&#45;&gt;Node5</title>
<g id="a_edge4_Node000001_Node000005"><a xlink:title=" ">
<path fill="none" stroke="#63b8ff" d="M377.4,-83.65C367.53,-79.72 357.39,-75.8 347.75,-72.25 340.15,-69.45 332.05,-66.62 324.11,-63.94"/>
<polygon fill="#63b8ff" stroke="#63b8ff" points="375.98,-86.85 386.56,-87.34 378.59,-80.36 375.98,-86.85"/>
</a>
</g>
</g>
<!-- Node6 -->
<g id="Node000006" class="node">
<title>Node6</title>
<g id="a_Node000006"><a xlink:href="../../d0/d77/classml_1_1model_1_1_c_event_rate_population_model.html#a50dbd54cdd38c81eb0cef9cd44458c85" target="_top" xlink:title=" ">
<polygon fill="white" stroke="#666666" points="164.5,-97.5 0,-97.5 0,-67 164.5,-67 164.5,-97.5"/>
<text text-anchor="start" x="8" y="-84" font-family="Helvetica,sans-Serif" font-size="10.00">ml::model::CEventRatePopulation</text>
<text text-anchor="middle" x="82.25" y="-72.75" font-family="Helvetica,sans-Serif" font-size="10.00">Model::sample</text>
</a>
</g>
</g>
<!-- Node5&#45;&gt;Node6 -->
<g id="edge5_Node000005_Node000006" class="edge">
<title>Node5&#45;&gt;Node6</title>
<g id="a_edge5_Node000005_Node000006"><a xlink:title=" ">
<path fill="none" stroke="#63b8ff" d="M190.53,-63.04C182.03,-64.56 173.39,-66.11 164.9,-67.63"/>
<polygon fill="#63b8ff" stroke="#63b8ff" points="190.9,-66.53 200.12,-61.32 189.66,-59.64 190.9,-66.53"/>
</a>
</g>
</g>
<!-- Node7 -->
<g id="Node000007" class="node">
<title>Node7</title>
<g id="a_Node000007"><a xlink:href="../../d2/d49/classml_1_1model_1_1_c_metric_population_model.html#aee59e116a3bb9c8d76bc359b9d7ab554" target="_top" xlink:title=" ">
<polygon fill="white" stroke="#666666" points="154.75,-30.5 9.75,-30.5 9.75,0 154.75,0 154.75,-30.5"/>
<text text-anchor="start" x="17.75" y="-17" font-family="Helvetica,sans-Serif" font-size="10.00">ml::model::CMetricPopulation</text>
<text text-anchor="middle" x="82.25" y="-5.75" font-family="Helvetica,sans-Serif" font-size="10.00">Model::sample</text>
</a>
</g>
</g>
<!-- Node5&#45;&gt;Node7 -->
<g id="edge6_Node000005_Node000007" class="edge">
<title>Node5&#45;&gt;Node7</title>
<g id="a_edge6_Node000005_Node000007"><a xlink:title=" ">
<path fill="none" stroke="#63b8ff" d="M190.41,-33.87C178.62,-31.83 166.57,-29.73 155.01,-27.72"/>
<polygon fill="#63b8ff" stroke="#63b8ff" points="189.67,-37.3 200.12,-35.56 190.87,-30.4 189.67,-37.3"/>
</a>
</g>
</g>
<!-- Node7&#45;&gt;Node7 -->
<g id="edge7_Node000007_Node000007" class="edge">
<title>Node7&#45;&gt;Node7</title>
<g id="a_edge7_Node000007_Node000007"><a xlink:title=" ">
<path fill="none" stroke="#63b8ff" d="M114.43,-42.2C109.17,-45.97 98.44,-48.5 82.25,-48.5 52.64,-48.5 41.31,-40.06 48.25,-30.99"/>
<polygon fill="#63b8ff" stroke="#63b8ff" points="117.86,-42.91 116.01,-32.48 110.95,-41.79 117.86,-42.91"/>
</a>
</g>
</g>
</g>
</svg>
