<?xml version="1.0" encoding="UTF-8" standalone="no"?>
<!DOCTYPE svg PUBLIC "-//W3C//DTD SVG 1.1//EN"
 "http://www.w3.org/Graphics/SVG/1.1/DTD/svg11.dtd">
<!-- Generated by graphviz version 10.0.1 (20240210.2158)
 -->
<!-- Title: ml::core::CCondition::wait Pages: 1 -->
<!--zoomable 241 -->

<svg id="main" version="1.1" xmlns="http://www.w3.org/2000/svg" xmlns:xlink="http://www.w3.org/1999/xlink" xml:space="preserve" onload="init(evt)">
<style type="text/css"><![CDATA[
.node, .edge {opacity: 0.7;}
.node.selected, .edge.selected {opacity: 1;}
.edge:hover path { stroke: red; }
.edge:hover polygon { stroke: red; fill: red; }
]]></style>

<defs>
  <circle id="rim" cx="0" cy="0" r="7"/>
  <circle id="rim2" cx="0" cy="0" r="3.5"/>
  <g id="zoomPlus">
    <use xlink:href="#rim" fill="#404040"><set attributeName="fill" to="#808080" begin="zoomplus.mouseover" end="zoomplus.mouseout"/></use>
    <path d="M-4,0h8M0,-4v8" fill="none" stroke="white" stroke-width="1.5" pointer-events="none"/>
  </g>
  <g id="zoomMin">
    <use xlink:href="#rim" fill="#404040"><set attributeName="fill" to="#808080" begin="zoomminus.mouseover" end="zoomminus.mouseout"/></use>
    <path d="M-4,0h8" fill="none" stroke="white" stroke-width="1.5" pointer-events="none"/>
  </g>
  <g id="arrowUp" transform="translate(30 24)">
    <use xlink:href="#rim"/>
    <path pointer-events="none" fill="none" stroke="white" stroke-width="1.5" d="M0,-3.0v7 M-2.5,-0.5L0,-3.0L2.5,-0.5"/>
  </g>
  <g id="arrowRight" transform="rotate(90) translate(36 -43)">
    <use xlink:href="#rim"/>
    <path pointer-events="none" fill="none" stroke="white" stroke-width="1.5" d="M0,-3.0v7 M-2.5,-0.5L0,-3.0L2.5,-0.5"/>
  </g>
  <g id="arrowDown" transform="rotate(180) translate(-30 -48)">
    <use xlink:href="#rim"/>
    <path pointer-events="none" fill="none" stroke="white" stroke-width="1.5" d="M0,-3.0v7 M-2.5,-0.5L0,-3.0L2.5,-0.5"/>
  </g>
  <g id="arrowLeft" transform="rotate(270) translate(-36 17)">
    <use xlink:href="#rim"/>
    <path pointer-events="none" fill="none" stroke="white" stroke-width="1.5" d="M0,-3.0v7 M-2.5,-0.5L0,-3.0L2.5,-0.5"/>
  </g>
  <g id="resetDef">
    <use xlink:href="#rim2" fill="#404040"><set attributeName="fill" to="#808080" begin="reset.mouseover" end="reset.mouseout"/></use>
  </g>
</defs>
<script type="application/ecmascript">
var viewWidth = 668;
var viewHeight = 241;
var sectionId = 'dynsection-4';
</script>
<script type="application/ecmascript" xlink:href="../../svg.min.js"/>
<svg id="graph" class="graph">
<g id="viewport">
<title>ml::core::CCondition::wait</title>
<!-- Node1 -->
<g id="Node000001" class="node">
<title>Node1</title>
<g id="a_Node000001"><a xlink:title=" ">
<polygon fill="#999999" stroke="#666666" points="659.5,-158.5 553.5,-158.5 553.5,-128 659.5,-128 659.5,-158.5"/>
<text text-anchor="start" x="561.5" y="-145" font-family="Helvetica,sans-Serif" font-size="10.00">ml::core::CCondition</text>
<text text-anchor="middle" x="606.5" y="-133.75" font-family="Helvetica,sans-Serif" font-size="10.00">::wait</text>
</a>
</g>
</g>
<!-- Node2 -->
<g id="Node000002" class="node">
<title>Node2</title>
<g id="a_Node000002"><a xlink:href="../../d9/ded/classml_1_1core_1_1detail_1_1_c_tracker_thread.html#a02a54132c8b5c1592cf7a6c395ae2273" target="_top" xlink:title=" ">
<polygon fill="white" stroke="#666666" points="507.75,-232.5 380.75,-232.5 380.75,-202 507.75,-202 507.75,-232.5"/>
<text text-anchor="start" x="388.75" y="-219" font-family="Helvetica,sans-Serif" font-size="10.00">ml::core::detail::CTracker</text>
<text text-anchor="middle" x="444.25" y="-207.75" font-family="Helvetica,sans-Serif" font-size="10.00">Thread::run</text>
</a>
</g>
</g>
<!-- Node1&#45;&gt;Node2 -->
<g id="edge1_Node000001_Node000002" class="edge">
<title>Node1&#45;&gt;Node2</title>
<g id="a_edge1_Node000001_Node000002"><a xlink:title=" ">
<path fill="none" stroke="#63b8ff" d="M570.43,-164.64C554.59,-173.8 535.44,-184.23 517.5,-192.25 510.11,-195.56 502.14,-198.71 494.28,-201.59"/>
<polygon fill="#63b8ff" stroke="#63b8ff" points="572.15,-167.68 579,-159.6 568.61,-161.64 572.15,-167.68"/>
</a>
</g>
</g>
<!-- Node3 -->
<g id="Node000003" class="node">
<title>Node3</title>
<g id="a_Node000003"><a xlink:href="../../d9/ded/classml_1_1core_1_1detail_1_1_c_tracker_thread.html#ac9ec4144c58a6778e6d0b8eff984ec42" target="_top" xlink:title=" ">
<polygon fill="white" stroke="#666666" points="507.75,-183.5 380.75,-183.5 380.75,-153 507.75,-153 507.75,-183.5"/>
<text text-anchor="start" x="388.75" y="-170" font-family="Helvetica,sans-Serif" font-size="10.00">ml::core::detail::CTracker</text>
<text text-anchor="middle" x="444.25" y="-158.75" font-family="Helvetica,sans-Serif" font-size="10.00">Thread::run</text>
</a>
</g>
</g>
<!-- Node1&#45;&gt;Node3 -->
<g id="edge2_Node000001_Node000003" class="edge">
<title>Node1&#45;&gt;Node3</title>
<g id="a_edge2_Node000001_Node000003"><a xlink:title=" ">
<path fill="none" stroke="#63b8ff" d="M541.71,-153.2C530.67,-154.92 519.19,-156.71 508.17,-158.43"/>
<polygon fill="#63b8ff" stroke="#63b8ff" points="542.19,-156.67 551.53,-151.67 541.11,-149.75 542.19,-156.67"/>
</a>
</g>
</g>
<!-- Node4 -->
<g id="Node000004" class="node">
<title>Node4</title>
<g id="a_Node000004"><a xlink:href="../../d1/d43/classml_1_1core_1_1_c_dual_thread_stream_buf.html#a6764bea6fc641f4b83772b6b4529a018" target="_top" xlink:title=" ">
<polygon fill="white" stroke="#666666" points="517.5,-134.5 371,-134.5 371,-104 517.5,-104 517.5,-134.5"/>
<text text-anchor="start" x="379" y="-121" font-family="Helvetica,sans-Serif" font-size="10.00">ml::core::CDualThreadStream</text>
<text text-anchor="middle" x="444.25" y="-109.75" font-family="Helvetica,sans-Serif" font-size="10.00">Buf::swapReadBuffer</text>
</a>
</g>
</g>
<!-- Node1&#45;&gt;Node4 -->
<g id="edge3_Node000001_Node000004" class="edge">
<title>Node1&#45;&gt;Node4</title>
<g id="a_edge3_Node000001_Node000004"><a xlink:title=" ">
<path fill="none" stroke="#63b8ff" d="M541.75,-133.7C533.91,-132.53 525.86,-131.32 517.91,-130.13"/>
<polygon fill="#63b8ff" stroke="#63b8ff" points="541.12,-137.15 551.53,-135.17 542.16,-130.22 541.12,-137.15"/>
</a>
</g>
</g>
<!-- Node5 -->
<g id="Node000005" class="node">
<title>Node5</title>
<g id="a_Node000005"><a xlink:href="../../d1/d43/classml_1_1core_1_1_c_dual_thread_stream_buf.html#a273914e46f885d6b1a42214b86311ac5" target="_top" xlink:title=" ">
<polygon fill="white" stroke="#666666" points="517.5,-85.5 371,-85.5 371,-55 517.5,-55 517.5,-85.5"/>
<text text-anchor="start" x="379" y="-72" font-family="Helvetica,sans-Serif" font-size="10.00">ml::core::CDualThreadStream</text>
<text text-anchor="middle" x="444.25" y="-60.75" font-family="Helvetica,sans-Serif" font-size="10.00">Buf::swapWriteBuffer</text>
</a>
</g>
</g>
<!-- Node1&#45;&gt;Node5 -->
<g id="edge4_Node000001_Node000005" class="edge">
<title>Node1&#45;&gt;Node5</title>
<g id="a_edge4_Node000001_Node000005"><a xlink:title=" ">
<path fill="none" stroke="#63b8ff" d="M569.68,-121.95C553.97,-113.08 535.13,-103.04 517.5,-95.25 510.09,-91.98 502.12,-88.84 494.26,-85.97"/>
<polygon fill="#63b8ff" stroke="#63b8ff" points="567.78,-124.9 578.19,-126.83 571.26,-118.82 567.78,-124.9"/>
</a>
</g>
</g>
<!-- Node6 -->
<g id="Node000006" class="node">
<title>Node6</title>
<g id="a_Node000006"><a xlink:href="../../d1/d43/classml_1_1core_1_1_c_dual_thread_stream_buf.html#af51bad50ae560a7d50cb67043ac48c4f" target="_top" xlink:title="Set the end&#45;of&#45;file flag.">
<polygon fill="white" stroke="#666666" points="335,-110.5 188.5,-110.5 188.5,-80 335,-80 335,-110.5"/>
<text text-anchor="start" x="196.5" y="-97" font-family="Helvetica,sans-Serif" font-size="10.00">ml::core::CDualThreadStream</text>
<text text-anchor="middle" x="261.75" y="-85.75" font-family="Helvetica,sans-Serif" font-size="10.00">Buf::signalEndOfFile</text>
</a>
</g>
</g>
<!-- Node5&#45;&gt;Node6 -->
<g id="edge5_Node000005_Node000006" class="edge">
<title>Node5&#45;&gt;Node6</title>
<g id="a_edge5_Node000005_Node000006"><a xlink:title=" ">
<path fill="none" stroke="#63b8ff" d="M359.31,-81.88C351.27,-82.99 343.16,-84.11 335.24,-85.21"/>
<polygon fill="#63b8ff" stroke="#63b8ff" points="359.69,-85.36 369.11,-80.52 358.73,-78.42 359.69,-85.36"/>
</a>
</g>
</g>
<!-- Node12 -->
<g id="Node000012" class="node">
<title>Node12</title>
<g id="a_Node000012"><a xlink:href="../../d1/d43/classml_1_1core_1_1_c_dual_thread_stream_buf.html#a1f0f227dfff69eee020af75f12941cdb" target="_top" xlink:title=" ">
<polygon fill="white" stroke="#666666" points="335,-61.5 188.5,-61.5 188.5,-31 335,-31 335,-61.5"/>
<text text-anchor="start" x="196.5" y="-48" font-family="Helvetica,sans-Serif" font-size="10.00">ml::core::CDualThreadStream</text>
<text text-anchor="middle" x="261.75" y="-36.75" font-family="Helvetica,sans-Serif" font-size="10.00">Buf::sync</text>
</a>
</g>
</g>
<!-- Node5&#45;&gt;Node12 -->
<g id="edge11_Node000005_Node000012" class="edge">
<title>Node5&#45;&gt;Node12</title>
<g id="a_edge11_Node000005_Node000012"><a xlink:title=" ">
<path fill="none" stroke="#63b8ff" d="M359.31,-59.09C351.27,-58.02 343.16,-56.94 335.24,-55.89"/>
<polygon fill="#63b8ff" stroke="#63b8ff" points="358.74,-62.54 369.11,-60.39 359.66,-55.6 358.74,-62.54"/>
</a>
</g>
</g>
<!-- Node7 -->
<g id="Node000007" class="node">
<title>Node7</title>
<g id="a_Node000007"><a xlink:href="../../d1/d9c/_c_dual_thread_stream_buf_test_8cc.html#a43c67f9d7a9bb5e3525ef9d25213c0fa" target="_top" xlink:title=" ">
<polygon fill="white" stroke="#666666" points="149.88,-178.88 2.62,-178.88 2.62,-159.62 149.88,-159.62 149.88,-178.88"/>
<text text-anchor="middle" x="76.25" y="-165.38" font-family="Helvetica,sans-Serif" font-size="10.00">BOOST_AUTO_TEST_CASE</text>
</a>
</g>
</g>
<!-- Node6&#45;&gt;Node7 -->
<g id="edge6_Node000006_Node000007" class="edge">
<title>Node6&#45;&gt;Node7</title>
<g id="a_edge6_Node000006_Node000007"><a xlink:title=" ">
<path fill="none" stroke="#63b8ff" d="M224.99,-116.55C204.36,-128.11 177.61,-141.91 152.5,-151.25 144.32,-154.29 135.44,-156.95 126.74,-159.23"/>
<polygon fill="#63b8ff" stroke="#63b8ff" points="226.61,-119.65 233.56,-111.66 223.14,-113.57 226.61,-119.65"/>
</a>
</g>
</g>
<!-- Node8 -->
<g id="Node000008" class="node">
<title>Node8</title>
<g id="a_Node000008"><a xlink:href="../../d1/d9c/_c_dual_thread_stream_buf_test_8cc.html#a8f1c7553cd10918ce4c30da5a1806cbb" target="_top" xlink:title=" ">
<polygon fill="white" stroke="#666666" points="149.88,-141.88 2.62,-141.88 2.62,-122.62 149.88,-122.62 149.88,-141.88"/>
<text text-anchor="middle" x="76.25" y="-128.38" font-family="Helvetica,sans-Serif" font-size="10.00">BOOST_AUTO_TEST_CASE</text>
</a>
</g>
</g>
<!-- Node6&#45;&gt;Node8 -->
<g id="edge7_Node000006_Node000008" class="edge">
<title>Node6&#45;&gt;Node8</title>
<g id="a_edge7_Node000006_Node000008"><a xlink:title=" ">
<path fill="none" stroke="#63b8ff" d="M177.11,-112.12C160.06,-115.55 142.64,-119.06 127.23,-122.17"/>
<polygon fill="#63b8ff" stroke="#63b8ff" points="177.63,-115.58 186.74,-110.17 176.25,-108.72 177.63,-115.58"/>
</a>
</g>
</g>
<!-- Node9 -->
<g id="Node000009" class="node">
<title>Node9</title>
<g id="a_Node000009"><a xlink:href="../../d1/d9c/_c_dual_thread_stream_buf_test_8cc.html#a81f4a96bc254bfee7f76cded942511ec" target="_top" xlink:title=" ">
<polygon fill="white" stroke="#666666" points="149.88,-104.88 2.62,-104.88 2.62,-85.62 149.88,-85.62 149.88,-104.88"/>
<text text-anchor="middle" x="76.25" y="-91.38" font-family="Helvetica,sans-Serif" font-size="10.00">BOOST_AUTO_TEST_CASE</text>
</a>
</g>
</g>
<!-- Node6&#45;&gt;Node9 -->
<g id="edge8_Node000006_Node000009" class="edge">
<title>Node6&#45;&gt;Node9</title>
<g id="a_edge8_Node000006_Node000009"><a xlink:title=" ">
<path fill="none" stroke="#63b8ff" d="M176.97,-95.25C168.01,-95.25 158.96,-95.25 150.15,-95.25"/>
<polygon fill="#63b8ff" stroke="#63b8ff" points="176.71,-98.75 186.71,-95.25 176.71,-91.75 176.71,-98.75"/>
</a>
</g>
</g>
<!-- Node10 -->
<g id="Node000010" class="node">
<title>Node10</title>
<g id="a_Node000010"><a xlink:href="../../d1/d9c/_c_dual_thread_stream_buf_test_8cc.html#a53b5ec34d27fa4199633ea75b7549158" target="_top" xlink:title=" ">
<polygon fill="white" stroke="#666666" points="149.88,-67.88 2.62,-67.88 2.62,-48.62 149.88,-48.62 149.88,-67.88"/>
<text text-anchor="middle" x="76.25" y="-54.38" font-family="Helvetica,sans-Serif" font-size="10.00">BOOST_AUTO_TEST_CASE</text>
</a>
</g>
</g>
<!-- Node6&#45;&gt;Node10 -->
<g id="edge9_Node000006_Node000010" class="edge">
<title>Node6&#45;&gt;Node10</title>
<g id="a_edge9_Node000006_Node000010"><a xlink:title=" ">
<path fill="none" stroke="#63b8ff" d="M177.11,-78.38C160.06,-74.95 142.64,-71.44 127.23,-68.33"/>
<polygon fill="#63b8ff" stroke="#63b8ff" points="176.25,-81.78 186.74,-80.33 177.63,-74.92 176.25,-81.78"/>
</a>
</g>
</g>
<!-- Node11 -->
<g id="Node000011" class="node">
<title>Node11</title>
<g id="a_Node000011"><a xlink:href="../../df/db9/classml_1_1core_1_1_c_compress_o_stream_1_1_c_compress_thread.html#ab750e1c6f2841103e47e9265f8ab8874" target="_top" xlink:title=" ">
<polygon fill="white" stroke="#666666" points="152.5,-30.5 0,-30.5 0,0 152.5,0 152.5,-30.5"/>
<text text-anchor="start" x="8" y="-17" font-family="Helvetica,sans-Serif" font-size="10.00">ml::core::CCompressOStream</text>
<text text-anchor="middle" x="76.25" y="-5.75" font-family="Helvetica,sans-Serif" font-size="10.00">::CCompressThread::shutdown</text>
</a>
</g>
</g>
<!-- Node6&#45;&gt;Node11 -->
<g id="edge10_Node000006_Node000011" class="edge">
<title>Node6&#45;&gt;Node11</title>
<g id="a_edge10_Node000006_Node000011"><a xlink:title=" ">
<path fill="none" stroke="#63b8ff" d="M197.71,-75.08C194.54,-73.56 191.45,-71.95 188.5,-70.25 170.2,-59.72 170.93,-49.55 152.5,-39.25 146.99,-36.17 141.04,-33.42 134.97,-30.99"/>
<polygon fill="#63b8ff" stroke="#63b8ff" points="196.07,-78.18 206.63,-79.03 198.9,-71.78 196.07,-78.18"/>
</a>
</g>
</g>
</g>
</svg>

<g id="navigator" transform="translate(0 0)" fill="#404254">
  <rect fill="#f2f5e9" fill-opacity="0.5" stroke="#606060" stroke-width=".5" x="0" y="0" width="60" height="60"/>
  <use id="zoomplus" xlink:href="#zoomPlus" x="17" y="9" onmousedown="handleZoom(evt,'in')"/>
  <use id="zoomminus" xlink:href="#zoomMin" x="42" y="9" onmousedown="handleZoom(evt,'out')"/>
  <use id="reset" xlink:href="#resetDef" x="30" y="36" onmousedown="handleReset()"/>
   <use id="arrowup" xlink:href="#arrowUp" x="0" y="0" onmousedown="handlePan(0,-1)"/>
  <use id="arrowright" xlink:href="#arrowRight" x="0" y="0" onmousedown="handlePan(1,0)"/>
  <use id="arrowdown" xlink:href="#arrowDown" x="0" y="0" onmousedown="handlePan(0,1)"/>
  <use id="arrowleft" xlink:href="#arrowLeft" x="0" y="0" onmousedown="handlePan(-1,0)"/>
</g>
<svg viewBox="0 0 15 15" width="100%" height="30px" preserveAspectRatio="xMaxYMin meet">
 <g id="arrow_out" transform="scale(0.3 0.3)">
  <a xlink:href="classml_1_1core_1_1_c_condition_a3b7521bdef190c38a10e67b14ec0b5d0_icgraph_org.svg" target="_base">
   <rect id="button" ry="5" rx="5" y="6" x="6" height="38" width="38"
        fill="#f2f5e9" fill-opacity="0.5" stroke="#606060" stroke-width="1.0"/>
   <path id="arrow"
     d="M 11.500037,31.436501 C 11.940474,20.09759 22.043105,11.32322 32.158766,21.979434 L 37.068811,17.246167 C 37.068811,17.246167 37.088388,32 37.088388,32 L 22.160133,31.978069 C 22.160133,31.978069 26.997745,27.140456 26.997745,27.140456 C 18.528582,18.264221 13.291696,25.230495 11.500037,31.436501 z"
     style="fill:#404040;"/>
  </a>
 </g>
</svg>

<style type='text/css'>
<![CDATA[
[data-mouse-over-selected='false'] { opacity: 0.7; }
[data-mouse-over-selected='true']  { opacity: 1.0; }
]]>
</style>
<script type="application/ecmascript"><![CDATA[
document.addEventListener('DOMContentLoaded', (event) => {
  highlightEdges();
  highlightAdjacentNodes();
});
]]></script>
</svg>
