<?xml version="1.0" encoding="UTF-8" standalone="no"?>
<!DOCTYPE svg PUBLIC "-//W3C//DTD SVG 1.1//EN"
 "http://www.w3.org/Graphics/SVG/1.1/DTD/svg11.dtd">
<!-- Generated by graphviz version 10.0.1 (20240210.2158)
 -->
<!-- Title: ml::model::CEventRateModelDetailsView::dataTimeInterval Pages: 1 -->
<!--zoomable 253 -->

<svg id="main" version="1.1" xmlns="http://www.w3.org/2000/svg" xmlns:xlink="http://www.w3.org/1999/xlink" xml:space="preserve" onload="init(evt)">
<style type="text/css"><![CDATA[
.node, .edge {opacity: 0.7;}
.node.selected, .edge.selected {opacity: 1;}
.edge:hover path { stroke: red; }
.edge:hover polygon { stroke: red; fill: red; }
]]></style>

<defs>
  <circle id="rim" cx="0" cy="0" r="7"/>
  <circle id="rim2" cx="0" cy="0" r="3.5"/>
  <g id="zoomPlus">
    <use xlink:href="#rim" fill="#404040"><set attributeName="fill" to="#808080" begin="zoomplus.mouseover" end="zoomplus.mouseout"/></use>
    <path d="M-4,0h8M0,-4v8" fill="none" stroke="white" stroke-width="1.5" pointer-events="none"/>
  </g>
  <g id="zoomMin">
    <use xlink:href="#rim" fill="#404040"><set attributeName="fill" to="#808080" begin="zoomminus.mouseover" end="zoomminus.mouseout"/></use>
    <path d="M-4,0h8" fill="none" stroke="white" stroke-width="1.5" pointer-events="none"/>
  </g>
  <g id="arrowUp" transform="translate(30 24)">
    <use xlink:href="#rim"/>
    <path pointer-events="none" fill="none" stroke="white" stroke-width="1.5" d="M0,-3.0v7 M-2.5,-0.5L0,-3.0L2.5,-0.5"/>
  </g>
  <g id="arrowRight" transform="rotate(90) translate(36 -43)">
    <use xlink:href="#rim"/>
    <path pointer-events="none" fill="none" stroke="white" stroke-width="1.5" d="M0,-3.0v7 M-2.5,-0.5L0,-3.0L2.5,-0.5"/>
  </g>
  <g id="arrowDown" transform="rotate(180) translate(-30 -48)">
    <use xlink:href="#rim"/>
    <path pointer-events="none" fill="none" stroke="white" stroke-width="1.5" d="M0,-3.0v7 M-2.5,-0.5L0,-3.0L2.5,-0.5"/>
  </g>
  <g id="arrowLeft" transform="rotate(270) translate(-36 17)">
    <use xlink:href="#rim"/>
    <path pointer-events="none" fill="none" stroke="white" stroke-width="1.5" d="M0,-3.0v7 M-2.5,-0.5L0,-3.0L2.5,-0.5"/>
  </g>
  <g id="resetDef">
    <use xlink:href="#rim2" fill="#404040"><set attributeName="fill" to="#808080" begin="reset.mouseover" end="reset.mouseout"/></use>
  </g>
</defs>
<script type="application/ecmascript">
var viewWidth = 1232;
var viewHeight = 253;
var sectionId = 'dynsection-2';
</script>
<script type="application/ecmascript" xlink:href="../../svg.min.js"/>
<svg id="graph" class="graph">
<g id="viewport">
<title>ml::model::CEventRateModelDetailsView::dataTimeInterval</title>
<!-- Node1 -->
<g id="Node000001" class="node">
<title>Node1</title>
<g id="a_Node000001"><a xlink:title="Get the time interval from the first to last data point of byFieldId.">
<polygon fill="#999999" stroke="#666666" points="147.25,-97.5 0,-97.5 0,-67 147.25,-67 147.25,-97.5"/>
<text text-anchor="start" x="8" y="-84" font-family="Helvetica,sans-Serif" font-size="10.00">ml::model::CEventRateModel</text>
<text text-anchor="middle" x="73.62" y="-72.75" font-family="Helvetica,sans-Serif" font-size="10.00">DetailsView::dataTimeInterval</text>
</a>
</g>
</g>
<!-- Node2 -->
<g id="Node000002" class="node">
<title>Node2</title>
<g id="a_Node000002"><a xlink:href="../../da/d83/classml_1_1model_1_1_c_model_details_view.html#a9de5faae9f74562f082ef22702d77c8a" target="_top" xlink:title="Try to get the by field identifier corresponding to byFieldValue.">
<polygon fill="white" stroke="#666666" points="317.75,-146.5 188.5,-146.5 188.5,-116 317.75,-116 317.75,-146.5"/>
<text text-anchor="start" x="196.5" y="-133" font-family="Helvetica,sans-Serif" font-size="10.00">ml::model::CModelDetails</text>
<text text-anchor="middle" x="253.12" y="-121.75" font-family="Helvetica,sans-Serif" font-size="10.00">View::byFieldId</text>
</a>
</g>
</g>
<!-- Node1&#45;&gt;Node2 -->
<g id="edge1_Node000001_Node000002" class="edge">
<title>Node1&#45;&gt;Node2</title>
<g id="a_edge1_Node000001_Node000002"><a xlink:title=" ">
<path fill="none" stroke="#63b8ff" d="M131.28,-97.89C148.16,-102.55 166.84,-107.71 184.37,-112.54"/>
<polygon fill="#63b8ff" stroke="#63b8ff" points="183.07,-115.82 193.64,-115.11 184.93,-109.07 183.07,-115.82"/>
</a>
</g>
</g>
<!-- Node15 -->
<g id="Node000015" class="node">
<title>Node15</title>
<g id="a_Node000015"><a xlink:href="../../d1/d04/classml_1_1model_1_1_c_individual_model.html#a8f8c91fb6478936a720c0454122f1137" target="_top" xlink:title="Get the first time each person was seen.">
<polygon fill="white" stroke="#666666" points="323,-97.5 183.25,-97.5 183.25,-67 323,-67 323,-97.5"/>
<text text-anchor="start" x="191.25" y="-84" font-family="Helvetica,sans-Serif" font-size="10.00">ml::model::CIndividualModel</text>
<text text-anchor="middle" x="253.12" y="-72.75" font-family="Helvetica,sans-Serif" font-size="10.00">::firstBucketTimes</text>
</a>
</g>
</g>
<!-- Node1&#45;&gt;Node15 -->
<g id="edge17_Node000001_Node000015" class="edge">
<title>Node1&#45;&gt;Node15</title>
<g id="a_edge17_Node000001_Node000015"><a xlink:title=" ">
<path fill="none" stroke="#63b8ff" d="M147.59,-82.25C155.52,-82.25 163.62,-82.25 171.63,-82.25"/>
<polygon fill="#63b8ff" stroke="#63b8ff" points="171.36,-85.75 181.36,-82.25 171.36,-78.75 171.36,-85.75"/>
</a>
</g>
</g>
<!-- Node16 -->
<g id="Node000016" class="node">
<title>Node16</title>
<g id="a_Node000016"><a xlink:href="../../d1/d04/classml_1_1model_1_1_c_individual_model.html#a16fd96d2e0ba306806a92562aa2acc8d" target="_top" xlink:title="Get the last time each persion was seen.">
<polygon fill="white" stroke="#666666" points="323,-48.5 183.25,-48.5 183.25,-18 323,-18 323,-48.5"/>
<text text-anchor="start" x="191.25" y="-35" font-family="Helvetica,sans-Serif" font-size="10.00">ml::model::CIndividualModel</text>
<text text-anchor="middle" x="253.12" y="-23.75" font-family="Helvetica,sans-Serif" font-size="10.00">::lastBucketTimes</text>
</a>
</g>
</g>
<!-- Node1&#45;&gt;Node16 -->
<g id="edge18_Node000001_Node000016" class="edge">
<title>Node1&#45;&gt;Node16</title>
<g id="a_edge18_Node000001_Node000016"><a xlink:title=" ">
<path fill="none" stroke="#63b8ff" d="M131.28,-66.61C148.16,-61.95 166.84,-56.79 184.37,-51.96"/>
<polygon fill="#63b8ff" stroke="#63b8ff" points="184.93,-55.43 193.64,-49.39 183.07,-48.68 184.93,-55.43"/>
</a>
</g>
</g>
<!-- Node3 -->
<g id="Node000003" class="node">
<title>Node3</title>
<g id="a_Node000003"><a xlink:href="../../d0/d91/classml_1_1model_1_1_c_data_gatherer.html#a7ddd3ed867d3d665951c08ad67ceb814" target="_top" xlink:title=" ">
<polygon fill="white" stroke="#666666" points="498.38,-244.5 367.62,-244.5 367.62,-214 498.38,-214 498.38,-244.5"/>
<text text-anchor="start" x="375.62" y="-231" font-family="Helvetica,sans-Serif" font-size="10.00">ml::model::CDataGatherer</text>
<text text-anchor="middle" x="433" y="-219.75" font-family="Helvetica,sans-Serif" font-size="10.00">::attributeId</text>
</a>
</g>
</g>
<!-- Node2&#45;&gt;Node3 -->
<g id="edge2_Node000002_Node000003" class="edge">
<title>Node2&#45;&gt;Node3</title>
<g id="a_edge2_Node000002_Node000003"><a xlink:title=" ">
<path fill="none" stroke="#63b8ff" d="M273.19,-146.98C293.46,-163.09 326.94,-188.01 359,-204.25 362.45,-206 366.05,-207.67 369.72,-209.26"/>
<polygon fill="#63b8ff" stroke="#63b8ff" points="368.22,-212.43 378.8,-212.95 370.86,-205.94 368.22,-212.43"/>
</a>
</g>
</g>
<!-- Node11 -->
<g id="Node000011" class="node">
<title>Node11</title>
<g id="a_Node000011"><a xlink:href="../../da/d83/classml_1_1model_1_1_c_model_details_view.html#a364ae8bdfdd6c0cf18c65181eb40936c" target="_top" xlink:title="Get the underlying model.">
<polygon fill="white" stroke="#666666" points="497.62,-195.5 368.38,-195.5 368.38,-165 497.62,-165 497.62,-195.5"/>
<text text-anchor="start" x="376.38" y="-182" font-family="Helvetica,sans-Serif" font-size="10.00">ml::model::CModelDetails</text>
<text text-anchor="middle" x="433" y="-170.75" font-family="Helvetica,sans-Serif" font-size="10.00">View::base</text>
</a>
</g>
</g>
<!-- Node2&#45;&gt;Node11 -->
<g id="edge12_Node000002_Node000011" class="edge">
<title>Node2&#45;&gt;Node11</title>
<g id="a_edge12_Node000002_Node000011"><a xlink:title=" ">
<path fill="none" stroke="#63b8ff" d="M310.89,-146.89C327.82,-151.55 346.54,-156.71 364.1,-161.54"/>
<polygon fill="#63b8ff" stroke="#63b8ff" points="362.82,-164.82 373.39,-164.11 364.68,-158.08 362.82,-164.82"/>
</a>
</g>
</g>
<!-- Node12 -->
<g id="Node000012" class="node">
<title>Node12</title>
<g id="a_Node000012"><a xlink:href="../../da/d88/classml_1_1model_1_1_c_anomaly_detector_model.html#a8156c7269ff8ea6a19dfeef12c5a1bb1" target="_top" xlink:title="Get the time series data gatherer.">
<polygon fill="white" stroke="#666666" points="507,-146.5 359,-146.5 359,-116 507,-116 507,-146.5"/>
<text text-anchor="start" x="367" y="-133" font-family="Helvetica,sans-Serif" font-size="10.00">ml::model::CAnomalyDetector</text>
<text text-anchor="middle" x="433" y="-121.75" font-family="Helvetica,sans-Serif" font-size="10.00">Model::dataGatherer</text>
</a>
</g>
</g>
<!-- Node2&#45;&gt;Node12 -->
<g id="edge13_Node000002_Node000012" class="edge">
<title>Node2&#45;&gt;Node12</title>
<g id="a_edge13_Node000002_Node000012"><a xlink:title=" ">
<path fill="none" stroke="#63b8ff" d="M318.09,-131.25C327.54,-131.25 337.4,-131.25 347.19,-131.25"/>
<polygon fill="#63b8ff" stroke="#63b8ff" points="347.11,-134.75 357.11,-131.25 347.11,-127.75 347.11,-134.75"/>
</a>
</g>
</g>
<!-- Node13 -->
<g id="Node000013" class="node">
<title>Node13</title>
<g id="a_Node000013"><a xlink:href="../../da/d88/classml_1_1model_1_1_c_anomaly_detector_model.html#a0cded7b0f451fb941b0fd591e23fd581" target="_top" xlink:title="True if this is a population model.">
<polygon fill="white" stroke="#666666" points="507,-97.5 359,-97.5 359,-67 507,-67 507,-97.5"/>
<text text-anchor="start" x="367" y="-84" font-family="Helvetica,sans-Serif" font-size="10.00">ml::model::CAnomalyDetector</text>
<text text-anchor="middle" x="433" y="-72.75" font-family="Helvetica,sans-Serif" font-size="10.00">Model::isPopulation</text>
</a>
</g>
</g>
<!-- Node2&#45;&gt;Node13 -->
<g id="edge14_Node000002_Node000013" class="edge">
<title>Node2&#45;&gt;Node13</title>
<g id="a_edge14_Node000002_Node000013"><a xlink:title=" ">
<path fill="none" stroke="#63b8ff" d="M310.89,-115.61C327.82,-110.95 346.54,-105.79 364.1,-100.96"/>
<polygon fill="#63b8ff" stroke="#63b8ff" points="364.68,-104.42 373.39,-98.39 362.82,-97.68 364.68,-104.42"/>
</a>
</g>
</g>
<!-- Node14 -->
<g id="Node000014" class="node">
<title>Node14</title>
<g id="a_Node000014"><a xlink:href="../../d0/d91/classml_1_1model_1_1_c_data_gatherer.html#ae88825a3dcd39af9d9ec2c055aa435bc" target="_top" xlink:title=" ">
<polygon fill="white" stroke="#666666" points="498.38,-48.5 367.62,-48.5 367.62,-18 498.38,-18 498.38,-48.5"/>
<text text-anchor="start" x="375.62" y="-35" font-family="Helvetica,sans-Serif" font-size="10.00">ml::model::CDataGatherer</text>
<text text-anchor="middle" x="433" y="-23.75" font-family="Helvetica,sans-Serif" font-size="10.00">::personId</text>
</a>
</g>
</g>
<!-- Node2&#45;&gt;Node14 -->
<g id="edge15_Node000002_Node000014" class="edge">
<title>Node2&#45;&gt;Node14</title>
<g id="a_edge15_Node000002_Node000014"><a xlink:title=" ">
<path fill="none" stroke="#63b8ff" d="M307.28,-115.59C312.84,-112.9 318.2,-109.81 323,-106.25 344.43,-90.37 337.43,-73.93 359,-58.25 360.98,-56.81 363.05,-55.45 365.19,-54.16"/>
<polygon fill="#63b8ff" stroke="#63b8ff" points="366.4,-57.48 373.58,-49.69 363.1,-51.3 366.4,-57.48"/>
</a>
</g>
</g>
<!-- Node4 -->
<g id="Node000004" class="node">
<title>Node4</title>
<g id="a_Node000004"><a xlink:href="../../d3/d3b/classml_1_1model_1_1_c_dynamic_string_id_registry.html#a8d9d0f248ce54fe797a09237e12a58bc" target="_top" xlink:title=" ">
<polygon fill="white" stroke="#666666" points="679.75,-146.5 543,-146.5 543,-116 679.75,-116 679.75,-146.5"/>
<text text-anchor="start" x="551" y="-133" font-family="Helvetica,sans-Serif" font-size="10.00">ml::model::CDynamicString</text>
<text text-anchor="middle" x="611.38" y="-121.75" font-family="Helvetica,sans-Serif" font-size="10.00">IdRegistry::id</text>
</a>
</g>
</g>
<!-- Node3&#45;&gt;Node4 -->
<g id="edge3_Node000003_Node000004" class="edge">
<title>Node3&#45;&gt;Node4</title>
<g id="a_edge3_Node000003_Node000004"><a xlink:title=" ">
<path fill="none" stroke="#63b8ff" d="M485.82,-213.57C493.07,-210.78 500.32,-207.66 507,-204.25 534.36,-190.27 562.68,-169.78 582.74,-154.06"/>
<polygon fill="#63b8ff" stroke="#63b8ff" points="584.79,-156.91 590.43,-147.94 580.43,-151.43 584.79,-156.91"/>
</a>
</g>
</g>
<!-- Node5 -->
<g id="Node000005" class="node">
<title>Node5</title>
<g id="a_Node000005"><a xlink:href="../../d3/d3b/classml_1_1model_1_1_c_dynamic_string_id_registry.html#a81a1671a3a7bb10d96da0cb54144a3c4" target="_top" xlink:title=" ">
<polygon fill="white" stroke="#666666" points="866.38,-146.5 729.62,-146.5 729.62,-116 866.38,-116 866.38,-146.5"/>
<text text-anchor="start" x="737.62" y="-133" font-family="Helvetica,sans-Serif" font-size="10.00">ml::model::CDynamicString</text>
<text text-anchor="middle" x="798" y="-121.75" font-family="Helvetica,sans-Serif" font-size="10.00">IdRegistry::name</text>
</a>
</g>
</g>
<!-- Node4&#45;&gt;Node5 -->
<g id="edge4_Node000004_Node000005" class="edge">
<title>Node4&#45;&gt;Node5</title>
<g id="a_edge4_Node000004_Node000005"><a xlink:title=" ">
<path fill="none" stroke="#63b8ff" d="M680.07,-124.72C692.37,-124.5 705.29,-124.44 717.87,-124.56"/>
<polygon fill="#63b8ff" stroke="#63b8ff" points="717.75,-128.06 727.8,-124.7 717.84,-121.06 717.75,-128.06"/>
</a>
</g>
</g>
<!-- Node6 -->
<g id="Node000006" class="node">
<title>Node6</title>
<g id="a_Node000006"><a xlink:href="../../dd/d75/classml_1_1core_1_1_c_compressed_dictionary.html#ad9fd3a9d86ddfb73b3395df3227b851a" target="_top" xlink:title="Translate word to a dictionary word.">
<polygon fill="white" stroke="#666666" points="880.25,-79.5 715.75,-79.5 715.75,-49 880.25,-49 880.25,-79.5"/>
<text text-anchor="start" x="723.75" y="-66" font-family="Helvetica,sans-Serif" font-size="10.00">ml::core::CCompressedDictionary</text>
<text text-anchor="middle" x="798" y="-54.75" font-family="Helvetica,sans-Serif" font-size="10.00">::word</text>
</a>
</g>
</g>
<!-- Node4&#45;&gt;Node6 -->
<g id="edge6_Node000004_Node000006" class="edge">
<title>Node4&#45;&gt;Node6</title>
<g id="a_edge6_Node000004_Node000006"><a xlink:title=" ">
<path fill="none" stroke="#63b8ff" d="M655.66,-115.54C681.72,-106.08 715.13,-93.96 742.93,-83.87"/>
<polygon fill="#63b8ff" stroke="#63b8ff" points="744.04,-87.19 752.24,-80.49 741.65,-80.61 744.04,-87.19"/>
</a>
</g>
</g>
<!-- Node5&#45;&gt;Node4 -->
<g id="edge5_Node000005_Node000004" class="edge">
<title>Node5&#45;&gt;Node4</title>
<g id="a_edge5_Node000005_Node000004"><a xlink:title=" ">
<path fill="none" stroke="#63b8ff" d="M729.31,-137.78C717.02,-138 704.1,-138.06 691.51,-137.94"/>
<polygon fill="#63b8ff" stroke="#63b8ff" points="691.63,-134.44 681.59,-137.8 691.54,-141.44 691.63,-134.44"/>
</a>
</g>
</g>
<!-- Node6&#45;&gt;Node6 -->
<g id="edge11_Node000006_Node000006" class="edge">
<title>Node6&#45;&gt;Node6</title>
<g id="a_edge11_Node000006_Node000006"><a xlink:title=" ">
<path fill="none" stroke="#63b8ff" d="M764.93,-79.99C758.18,-89.06 769.2,-97.5 798,-97.5 813.75,-97.5 824.18,-94.97 829.3,-91.2"/>
<polygon fill="#63b8ff" stroke="#63b8ff" points="832.73,-91.9 830.83,-81.48 825.82,-90.81 832.73,-91.9"/>
</a>
</g>
</g>
<!-- Node7 -->
<g id="Node000007" class="node">
<title>Node7</title>
<g id="a_Node000007"><a xlink:href="../../db/d19/classml_1_1core_1_1_c_compressed_dictionary_1_1_c_translator.html#ade14a464041834a501408e4fd90d5540" target="_top" xlink:title=" ">
<polygon fill="white" stroke="#666666" points="1080.75,-128.5 916.25,-128.5 916.25,-98 1080.75,-98 1080.75,-128.5"/>
<text text-anchor="start" x="924.25" y="-115" font-family="Helvetica,sans-Serif" font-size="10.00">ml::core::CCompressedDictionary</text>
<text text-anchor="middle" x="998.5" y="-103.75" font-family="Helvetica,sans-Serif" font-size="10.00">::CTranslator::add</text>
</a>
</g>
</g>
<!-- Node6&#45;&gt;Node7 -->
<g id="edge7_Node000006_Node000007" class="edge">
<title>Node6&#45;&gt;Node7</title>
<g id="a_edge7_Node000006_Node000007"><a xlink:title=" ">
<path fill="none" stroke="#63b8ff" d="M862.63,-79.96C881.77,-84.68 902.95,-89.91 922.74,-94.8"/>
<polygon fill="#63b8ff" stroke="#63b8ff" points="921.88,-98.19 932.42,-97.19 923.55,-91.39 921.88,-98.19"/>
</a>
</g>
</g>
<!-- Node9 -->
<g id="Node000009" class="node">
<title>Node9</title>
<g id="a_Node000009"><a xlink:href="../../dd/d75/classml_1_1core_1_1_c_compressed_dictionary.html#a13928a12bd86baccea13712035961802" target="_top" xlink:title="Get a translator for the dictionary.">
<polygon fill="white" stroke="#666666" points="1080.75,-79.5 916.25,-79.5 916.25,-49 1080.75,-49 1080.75,-79.5"/>
<text text-anchor="start" x="924.25" y="-66" font-family="Helvetica,sans-Serif" font-size="10.00">ml::core::CCompressedDictionary</text>
<text text-anchor="middle" x="998.5" y="-54.75" font-family="Helvetica,sans-Serif" font-size="10.00">::translator</text>
</a>
</g>
</g>
<!-- Node6&#45;&gt;Node9 -->
<g id="edge9_Node000006_Node000009" class="edge">
<title>Node6&#45;&gt;Node9</title>
<g id="a_edge9_Node000006_Node000009"><a xlink:title=" ">
<path fill="none" stroke="#63b8ff" d="M880.6,-64.25C888.52,-64.25 896.6,-64.25 904.62,-64.25"/>
<polygon fill="#63b8ff" stroke="#63b8ff" points="904.39,-67.75 914.39,-64.25 904.39,-60.75 904.39,-67.75"/>
</a>
</g>
</g>
<!-- Node10 -->
<g id="Node000010" class="node">
<title>Node10</title>
<g id="a_Node000010"><a xlink:href="../../db/d19/classml_1_1core_1_1_c_compressed_dictionary_1_1_c_translator.html#ac2086c554c00278219bf073d2a5736c2" target="_top" xlink:title=" ">
<polygon fill="white" stroke="#666666" points="1080.75,-30.5 916.25,-30.5 916.25,0 1080.75,0 1080.75,-30.5"/>
<text text-anchor="start" x="924.25" y="-17" font-family="Helvetica,sans-Serif" font-size="10.00">ml::core::CCompressedDictionary</text>
<text text-anchor="middle" x="998.5" y="-5.75" font-family="Helvetica,sans-Serif" font-size="10.00">::CTranslator::word</text>
</a>
</g>
</g>
<!-- Node6&#45;&gt;Node10 -->
<g id="edge10_Node000006_Node000010" class="edge">
<title>Node6&#45;&gt;Node10</title>
<g id="a_edge10_Node000006_Node000010"><a xlink:title=" ">
<path fill="none" stroke="#63b8ff" d="M862.63,-48.54C881.77,-43.82 902.95,-38.59 922.74,-33.7"/>
<polygon fill="#63b8ff" stroke="#63b8ff" points="923.55,-37.11 932.42,-31.31 921.88,-30.31 923.55,-37.11"/>
</a>
</g>
</g>
<!-- Node8 -->
<g id="Node000008" class="node">
<title>Node8</title>
<g id="a_Node000008"><a xlink:href="../../d1/dbe/classml_1_1core_1_1_c_hashing.html#ade1c3a08b72697f0009fa91d14daa719" target="_top" xlink:title=" ">
<polygon fill="white" stroke="#666666" points="1224.25,-128.5 1116.75,-128.5 1116.75,-98 1224.25,-98 1224.25,-128.5"/>
<text text-anchor="start" x="1124.75" y="-115" font-family="Helvetica,sans-Serif" font-size="10.00">ml::core::CHashing</text>
<text text-anchor="middle" x="1170.5" y="-103.75" font-family="Helvetica,sans-Serif" font-size="10.00">::safeMurmurHash64</text>
</a>
</g>
</g>
<!-- Node7&#45;&gt;Node8 -->
<g id="edge8_Node000007_Node000008" class="edge">
<title>Node7&#45;&gt;Node8</title>
<g id="a_edge8_Node000007_Node000008"><a xlink:title=" ">
<path fill="none" stroke="#63b8ff" d="M1081.01,-113.25C1089.14,-113.25 1097.32,-113.25 1105.23,-113.25"/>
<polygon fill="#63b8ff" stroke="#63b8ff" points="1105.1,-116.75 1115.1,-113.25 1105.1,-109.75 1105.1,-116.75"/>
</a>
</g>
</g>
<!-- Node14&#45;&gt;Node4 -->
<g id="edge16_Node000014_Node000004" class="edge">
<title>Node14&#45;&gt;Node4</title>
<g id="a_edge16_Node000014_Node000004"><a xlink:title=" ">
<path fill="none" stroke="#63b8ff" d="M485.82,-48.93C493.07,-51.72 500.32,-54.84 507,-58.25 534.36,-72.23 562.68,-92.72 582.74,-108.44"/>
<polygon fill="#63b8ff" stroke="#63b8ff" points="580.43,-111.07 590.43,-114.56 584.79,-105.59 580.43,-111.07"/>
</a>
</g>
</g>
</g>
</svg>

<g id="navigator" transform="translate(0 0)" fill="#404254">
  <rect fill="#f2f5e9" fill-opacity="0.5" stroke="#606060" stroke-width=".5" x="0" y="0" width="60" height="60"/>
  <use id="zoomplus" xlink:href="#zoomPlus" x="17" y="9" onmousedown="handleZoom(evt,'in')"/>
  <use id="zoomminus" xlink:href="#zoomMin" x="42" y="9" onmousedown="handleZoom(evt,'out')"/>
  <use id="reset" xlink:href="#resetDef" x="30" y="36" onmousedown="handleReset()"/>
   <use id="arrowup" xlink:href="#arrowUp" x="0" y="0" onmousedown="handlePan(0,-1)"/>
  <use id="arrowright" xlink:href="#arrowRight" x="0" y="0" onmousedown="handlePan(1,0)"/>
  <use id="arrowdown" xlink:href="#arrowDown" x="0" y="0" onmousedown="handlePan(0,1)"/>
  <use id="arrowleft" xlink:href="#arrowLeft" x="0" y="0" onmousedown="handlePan(-1,0)"/>
</g>
<svg viewBox="0 0 15 15" width="100%" height="30px" preserveAspectRatio="xMaxYMin meet">
 <g id="arrow_out" transform="scale(0.3 0.3)">
  <a xlink:href="classml_1_1model_1_1_c_event_rate_model_details_view_a43ecf1b625a961315f07415d2c196431_cgraph_org.svg" target="_base">
   <rect id="button" ry="5" rx="5" y="6" x="6" height="38" width="38"
        fill="#f2f5e9" fill-opacity="0.5" stroke="#606060" stroke-width="1.0"/>
   <path id="arrow"
     d="M 11.500037,31.436501 C 11.940474,20.09759 22.043105,11.32322 32.158766,21.979434 L 37.068811,17.246167 C 37.068811,17.246167 37.088388,32 37.088388,32 L 22.160133,31.978069 C 22.160133,31.978069 26.997745,27.140456 26.997745,27.140456 C 18.528582,18.264221 13.291696,25.230495 11.500037,31.436501 z"
     style="fill:#404040;"/>
  </a>
 </g>
</svg>

<style type='text/css'>
<![CDATA[
[data-mouse-over-selected='false'] { opacity: 0.7; }
[data-mouse-over-selected='true']  { opacity: 1.0; }
]]>
</style>
<script type="application/ecmascript"><![CDATA[
document.addEventListener('DOMContentLoaded', (event) => {
  highlightEdges();
  highlightAdjacentNodes();
});
]]></script>
</svg>
