<?xml version="1.0" encoding="UTF-8" standalone="no"?>
<!DOCTYPE svg PUBLIC "-//W3C//DTD SVG 1.1//EN"
 "http://www.w3.org/Graphics/SVG/1.1/DTD/svg11.dtd">
<!-- Generated by graphviz version 10.0.1 (20240210.2158)
 -->
<!-- Title: ml::model::CSampleGatherer::SStatSerializer::operator() Pages: 1 -->
<svg width="1007pt" height="158pt"
 viewBox="0.00 0.00 1007.00 158.12" xmlns="http://www.w3.org/2000/svg" xmlns:xlink="http://www.w3.org/1999/xlink">
<g id="graph0" class="graph" transform="scale(1 1) rotate(0) translate(4 154.12)">
<title>ml::model::CSampleGatherer::SStatSerializer::operator()</title>
<!-- Node1 -->
<g id="Node000001" class="node">
<title>Node1</title>
<g id="a_Node000001"><a xlink:title=" ">
<polygon fill="#999999" stroke="#666666" points="142.75,-99.12 0,-99.12 0,-68.62 142.75,-68.62 142.75,-99.12"/>
<text text-anchor="start" x="8" y="-85.62" font-family="Helvetica,sans-Serif" font-size="10.00">ml::model::CSampleGatherer</text>
<text text-anchor="middle" x="71.38" y="-74.38" font-family="Helvetica,sans-Serif" font-size="10.00">::SStatSerializer::operator()</text>
</a>
</g>
</g>
<!-- Node2 -->
<g id="Node000002" class="node">
<title>Node2</title>
<g id="a_Node000002"><a xlink:href="../../d9/dcb/classml_1_1model_1_1_c_metric_partial_statistic.html#a632ae1f375af21ec9cb82af0ca9bda3f" target="_top" xlink:title="Persist to a state document.">
<polygon fill="white" stroke="#666666" points="305.75,-99.12 178.75,-99.12 178.75,-68.62 305.75,-68.62 305.75,-99.12"/>
<text text-anchor="start" x="186.75" y="-85.62" font-family="Helvetica,sans-Serif" font-size="10.00">ml::model::CMetricPartial</text>
<text text-anchor="middle" x="242.25" y="-74.38" font-family="Helvetica,sans-Serif" font-size="10.00">Statistic::persist</text>
</a>
</g>
</g>
<!-- Node1&#45;&gt;Node2 -->
<g id="edge1_Node000001_Node000002" class="edge">
<title>Node1&#45;&gt;Node2</title>
<g id="a_edge1_Node000001_Node000002"><a xlink:title=" ">
<path fill="none" stroke="#63b8ff" d="M143.01,-83.88C150.91,-83.88 158.97,-83.88 166.91,-83.88"/>
<polygon fill="#63b8ff" stroke="#63b8ff" points="166.91,-87.38 176.91,-83.88 166.91,-80.38 166.91,-87.38"/>
</a>
</g>
</g>
<!-- Node3 -->
<g id="Node000003" class="node">
<title>Node3</title>
<g id="a_Node000003"><a xlink:href="../../d6/d96/classml_1_1core_1_1_c_state_persist_inserter.html#a21319d2ecfcb0ab1aceecf2a5a463d3a" target="_top" xlink:title="Store a name/value.">
<polygon fill="white" stroke="#666666" points="704.5,-150.12 552.75,-150.12 552.75,-119.62 704.5,-119.62 704.5,-150.12"/>
<text text-anchor="start" x="560.75" y="-136.62" font-family="Helvetica,sans-Serif" font-size="10.00">ml::core::CStatePersistInserter</text>
<text text-anchor="middle" x="628.62" y="-125.38" font-family="Helvetica,sans-Serif" font-size="10.00">::insertValue</text>
</a>
</g>
</g>
<!-- Node2&#45;&gt;Node3 -->
<g id="edge2_Node000002_Node000003" class="edge">
<title>Node2&#45;&gt;Node3</title>
<g id="a_edge2_Node000002_Node000003"><a xlink:title=" ">
<path fill="none" stroke="#63b8ff" d="M301.82,-99.62C314.89,-102.72 328.73,-105.69 341.75,-107.88 408.1,-119.03 483.94,-125.93 540.82,-129.96"/>
<polygon fill="#63b8ff" stroke="#63b8ff" points="540.57,-133.45 550.79,-130.64 541.06,-126.46 540.57,-133.45"/>
</a>
</g>
</g>
<!-- Node4 -->
<g id="Node000004" class="node">
<title>Node4</title>
<g id="a_Node000004"><a xlink:href="../../da/d50/structml_1_1model_1_1_c_metric_statistic_wrappers.html#acdd2eb762845cbbe86d18fcd6ce357f0" target="_top" xlink:title="Persist an order statistic.">
<polygon fill="white" stroke="#666666" points="492.75,-99.12 357.5,-99.12 357.5,-68.62 492.75,-68.62 492.75,-99.12"/>
<text text-anchor="start" x="365.5" y="-85.62" font-family="Helvetica,sans-Serif" font-size="10.00">ml::model::CMetricStatistic</text>
<text text-anchor="middle" x="425.12" y="-74.38" font-family="Helvetica,sans-Serif" font-size="10.00">Wrappers::persist</text>
</a>
</g>
</g>
<!-- Node2&#45;&gt;Node4 -->
<g id="edge3_Node000002_Node000004" class="edge">
<title>Node2&#45;&gt;Node4</title>
<g id="a_edge3_Node000002_Node000004"><a xlink:title=" ">
<path fill="none" stroke="#63b8ff" d="M306,-83.88C318.92,-83.88 332.66,-83.88 346.04,-83.88"/>
<polygon fill="#63b8ff" stroke="#63b8ff" points="345.66,-87.38 355.66,-83.88 345.66,-80.38 345.66,-87.38"/>
</a>
</g>
</g>
<!-- Node6 -->
<g id="Node000006" class="node">
<title>Node6</title>
<g id="a_Node000006"><a xlink:href="../../dc/dbb/structml_1_1maths_1_1common_1_1_c_basic_statistics_1_1_s_sample_central_moments.html#aaef61f5660b9649997b6fc2879e4bec7" target="_top" xlink:title="Convert to a delimited string.">
<polygon fill="white" stroke="#666666" points="508.5,-47.75 341.75,-47.75 341.75,-6 508.5,-6 508.5,-47.75"/>
<text text-anchor="start" x="349.75" y="-34.25" font-family="Helvetica,sans-Serif" font-size="10.00">ml::maths::common::</text>
<text text-anchor="start" x="349.75" y="-23" font-family="Helvetica,sans-Serif" font-size="10.00">CBasicStatistics::SSampleCentral</text>
<text text-anchor="middle" x="425.12" y="-11.75" font-family="Helvetica,sans-Serif" font-size="10.00">Moments::toDelimited</text>
</a>
</g>
</g>
<!-- Node2&#45;&gt;Node6 -->
<g id="edge6_Node000002_Node000006" class="edge">
<title>Node2&#45;&gt;Node6</title>
<g id="a_edge6_Node000002_Node000006"><a xlink:title=" ">
<path fill="none" stroke="#63b8ff" d="M293.15,-68.15C309.35,-63.05 327.73,-57.25 345.49,-51.66"/>
<polygon fill="#63b8ff" stroke="#63b8ff" points="346.51,-55 355,-48.66 344.41,-48.33 346.51,-55"/>
</a>
</g>
</g>
<!-- Node4&#45;&gt;Node3 -->
<g id="edge4_Node000004_Node000003" class="edge">
<title>Node4&#45;&gt;Node3</title>
<g id="a_edge4_Node000004_Node000003"><a xlink:title=" ">
<path fill="none" stroke="#63b8ff" d="M488.23,-99.59C509.3,-104.93 533.03,-110.93 554.85,-116.46"/>
<polygon fill="#63b8ff" stroke="#63b8ff" points="553.71,-119.78 564.26,-118.84 555.43,-112.99 553.71,-119.78"/>
</a>
</g>
</g>
<!-- Node5 -->
<g id="Node000005" class="node">
<title>Node5</title>
<g id="a_Node000005"><a xlink:href="../../d0/d3b/classml_1_1maths_1_1common_1_1_c_basic_statistics_1_1_c_order_statistics_stack.html#a6e4d055c5561dd719ef8b826c6ac1dc1" target="_top" xlink:title="Create a member function template so this class works with CPersistUtils::persist.">
<polygon fill="white" stroke="#666666" points="712.75,-101.75 544.5,-101.75 544.5,-60 712.75,-60 712.75,-101.75"/>
<text text-anchor="start" x="552.5" y="-88.25" font-family="Helvetica,sans-Serif" font-size="10.00">ml::maths::common::</text>
<text text-anchor="start" x="552.5" y="-77" font-family="Helvetica,sans-Serif" font-size="10.00">CBasicStatistics::COrderStatistics</text>
<text text-anchor="middle" x="628.62" y="-65.75" font-family="Helvetica,sans-Serif" font-size="10.00">Stack::toDelimited</text>
</a>
</g>
</g>
<!-- Node4&#45;&gt;Node5 -->
<g id="edge5_Node000004_Node000005" class="edge">
<title>Node4&#45;&gt;Node5</title>
<g id="a_edge5_Node000004_Node000005"><a xlink:title=" ">
<path fill="none" stroke="#63b8ff" d="M493.22,-82.88C506.01,-82.69 519.62,-82.48 533.08,-82.28"/>
<polygon fill="#63b8ff" stroke="#63b8ff" points="532.87,-85.79 542.82,-82.14 532.76,-78.79 532.87,-85.79"/>
</a>
</g>
</g>
<!-- Node7 -->
<g id="Node000007" class="node">
<title>Node7</title>
<g id="a_Node000007"><a xlink:href="../../d4/dba/namespaceml_1_1maths_1_1common_1_1basic__statistics__detail.html#a89ea1ef7f82c3dba1c2cd58ab2ff09f8" target="_top" xlink:title="Function to do conversion to a string.">
<polygon fill="white" stroke="#666666" points="685,-41.75 572.25,-41.75 572.25,0 685,0 685,-41.75"/>
<text text-anchor="start" x="580.25" y="-28.25" font-family="Helvetica,sans-Serif" font-size="10.00">ml::maths::common::</text>
<text text-anchor="start" x="580.25" y="-17" font-family="Helvetica,sans-Serif" font-size="10.00">basic_statistics_detail</text>
<text text-anchor="middle" x="628.62" y="-5.75" font-family="Helvetica,sans-Serif" font-size="10.00">::typeToString</text>
</a>
</g>
</g>
<!-- Node6&#45;&gt;Node7 -->
<g id="edge7_Node000006_Node000007" class="edge">
<title>Node6&#45;&gt;Node7</title>
<g id="a_edge7_Node000006_Node000007"><a xlink:title=" ">
<path fill="none" stroke="#63b8ff" d="M508.96,-24.41C526.15,-23.9 544.07,-23.36 560.62,-22.87"/>
<polygon fill="#63b8ff" stroke="#63b8ff" points="560.42,-26.38 570.31,-22.58 560.21,-19.38 560.42,-26.38"/>
</a>
</g>
</g>
<!-- Node8 -->
<g id="Node000008" class="node">
<title>Node8</title>
<g id="a_Node000008"><a xlink:href="../../d1/dfa/classml_1_1core_1_1_c_string_utils.html#a17d4f57243425912a8b30e144a698df1" target="_top" xlink:title="Convert a double to a string with the specified precision.">
<polygon fill="white" stroke="#666666" points="859.25,-36.12 748.75,-36.12 748.75,-5.62 859.25,-5.62 859.25,-36.12"/>
<text text-anchor="start" x="756.75" y="-22.62" font-family="Helvetica,sans-Serif" font-size="10.00">ml::core::CStringUtils</text>
<text text-anchor="middle" x="804" y="-11.38" font-family="Helvetica,sans-Serif" font-size="10.00">::typeToStringPrecise</text>
</a>
</g>
</g>
<!-- Node7&#45;&gt;Node8 -->
<g id="edge8_Node000007_Node000008" class="edge">
<title>Node7&#45;&gt;Node8</title>
<g id="a_edge8_Node000007_Node000008"><a xlink:title=" ">
<path fill="none" stroke="#63b8ff" d="M685.44,-20.88C702,-20.88 720.3,-20.88 737.42,-20.88"/>
<polygon fill="#63b8ff" stroke="#63b8ff" points="736.96,-24.38 746.96,-20.88 736.96,-17.38 736.96,-24.38"/>
</a>
</g>
</g>
<!-- Node9 -->
<g id="Node000009" class="node">
<title>Node9</title>
<g id="a_Node000009"><a xlink:href="../../d2/d08/classml_1_1core_1_1_c_i_e_e_e754.html#a1a14ca6caea95a6f76caf65b824b9e2c" target="_top" xlink:title=" ">
<polygon fill="white" stroke="#666666" points="999,-36.12 895.25,-36.12 895.25,-5.62 999,-5.62 999,-36.12"/>
<text text-anchor="start" x="903.25" y="-22.62" font-family="Helvetica,sans-Serif" font-size="10.00">ml::core::CIEEE754</text>
<text text-anchor="middle" x="947.12" y="-11.38" font-family="Helvetica,sans-Serif" font-size="10.00">::round</text>
</a>
</g>
</g>
<!-- Node8&#45;&gt;Node9 -->
<g id="edge9_Node000008_Node000009" class="edge">
<title>Node8&#45;&gt;Node9</title>
<g id="a_edge9_Node000008_Node000009"><a xlink:title=" ">
<path fill="none" stroke="#63b8ff" d="M859.56,-20.88C867.47,-20.88 875.66,-20.88 883.71,-20.88"/>
<polygon fill="#63b8ff" stroke="#63b8ff" points="883.43,-24.38 893.43,-20.88 883.43,-17.38 883.43,-24.38"/>
</a>
</g>
</g>
</g>
</svg>
