<?xml version="1.0" encoding="UTF-8" standalone="no"?>
<!DOCTYPE svg PUBLIC "-//W3C//DTD SVG 1.1//EN"
 "http://www.w3.org/Graphics/SVG/1.1/DTD/svg11.dtd">
<!-- Generated by graphviz version 10.0.1 (20240210.2158)
 -->
<!-- Title: ml::model::CSampleQueue::pushFrontNewSubSample Pages: 1 -->
<!--zoomable 1396 -->

<svg id="main" version="1.1" xmlns="http://www.w3.org/2000/svg" xmlns:xlink="http://www.w3.org/1999/xlink" xml:space="preserve" onload="init(evt)">
<style type="text/css"><![CDATA[
.node, .edge {opacity: 0.7;}
.node.selected, .edge.selected {opacity: 1;}
.edge:hover path { stroke: red; }
.edge:hover polygon { stroke: red; fill: red; }
]]></style>

<defs>
  <circle id="rim" cx="0" cy="0" r="7"/>
  <circle id="rim2" cx="0" cy="0" r="3.5"/>
  <g id="zoomPlus">
    <use xlink:href="#rim" fill="#404040"><set attributeName="fill" to="#808080" begin="zoomplus.mouseover" end="zoomplus.mouseout"/></use>
    <path d="M-4,0h8M0,-4v8" fill="none" stroke="white" stroke-width="1.5" pointer-events="none"/>
  </g>
  <g id="zoomMin">
    <use xlink:href="#rim" fill="#404040"><set attributeName="fill" to="#808080" begin="zoomminus.mouseover" end="zoomminus.mouseout"/></use>
    <path d="M-4,0h8" fill="none" stroke="white" stroke-width="1.5" pointer-events="none"/>
  </g>
  <g id="arrowUp" transform="translate(30 24)">
    <use xlink:href="#rim"/>
    <path pointer-events="none" fill="none" stroke="white" stroke-width="1.5" d="M0,-3.0v7 M-2.5,-0.5L0,-3.0L2.5,-0.5"/>
  </g>
  <g id="arrowRight" transform="rotate(90) translate(36 -43)">
    <use xlink:href="#rim"/>
    <path pointer-events="none" fill="none" stroke="white" stroke-width="1.5" d="M0,-3.0v7 M-2.5,-0.5L0,-3.0L2.5,-0.5"/>
  </g>
  <g id="arrowDown" transform="rotate(180) translate(-30 -48)">
    <use xlink:href="#rim"/>
    <path pointer-events="none" fill="none" stroke="white" stroke-width="1.5" d="M0,-3.0v7 M-2.5,-0.5L0,-3.0L2.5,-0.5"/>
  </g>
  <g id="arrowLeft" transform="rotate(270) translate(-36 17)">
    <use xlink:href="#rim"/>
    <path pointer-events="none" fill="none" stroke="white" stroke-width="1.5" d="M0,-3.0v7 M-2.5,-0.5L0,-3.0L2.5,-0.5"/>
  </g>
  <g id="resetDef">
    <use xlink:href="#rim2" fill="#404040"><set attributeName="fill" to="#808080" begin="reset.mouseover" end="reset.mouseout"/></use>
  </g>
</defs>
<script type="application/ecmascript">
var viewWidth = 706;
var viewHeight = 1396;
var sectionId = 'dynsection-24';
</script>
<script type="application/ecmascript" xlink:href="../../svg.min.js"/>
<svg id="graph" class="graph">
<g id="viewport">
<title>ml::model::CSampleQueue::pushFrontNewSubSample</title>
<!-- Node1 -->
<g id="Node000001" class="node">
<title>Node1</title>
<g id="a_Node000001"><a xlink:title=" ">
<polygon fill="#999999" stroke="#666666" points="697.75,-708.88 561.75,-708.88 561.75,-678.38 697.75,-678.38 697.75,-708.88"/>
<text text-anchor="start" x="569.75" y="-695.38" font-family="Helvetica,sans-Serif" font-size="10.00">ml::model::CSampleQueue</text>
<text text-anchor="middle" x="629.75" y="-684.12" font-family="Helvetica,sans-Serif" font-size="10.00">::pushFrontNewSubSample</text>
</a>
</g>
</g>
<!-- Node2 -->
<g id="Node000002" class="node">
<title>Node2</title>
<g id="a_Node000002"><a xlink:href="../../db/de5/classml_1_1model_1_1_c_sample_queue.html#a2c8cd89ef3674857df62c662c9113de0" target="_top" xlink:title=" ">
<polygon fill="white" stroke="#666666" points="356,-703.25 200.5,-703.25 200.5,-684 356,-684 356,-703.25"/>
<text text-anchor="middle" x="278.25" y="-689.75" font-family="Helvetica,sans-Serif" font-size="10.00">ml::model::CSampleQueue::add</text>
</a>
</g>
</g>
<!-- Node1&#45;&gt;Node2 -->
<g id="edge1_Node000001_Node000002" class="edge">
<title>Node1&#45;&gt;Node2</title>
<g id="a_edge1_Node000001_Node000002"><a xlink:title=" ">
<path fill="none" stroke="#63b8ff" d="M549.94,-696.16C541.77,-696.35 533.59,-696.51 525.75,-696.62 466.31,-697.49 451.44,-697.42 392,-696.62 380.45,-696.47 368.23,-696.23 356.27,-695.95"/>
<polygon fill="#63b8ff" stroke="#63b8ff" points="550.02,-699.66 559.93,-695.91 549.84,-692.66 550.02,-699.66"/>
</a>
</g>
</g>
<!-- Node41 -->
<g id="Node000041" class="node">
<title>Node41</title>
<g id="a_Node000041"><a xlink:href="../../db/de5/classml_1_1model_1_1_c_sample_queue.html#abe9512efc7891e2a5923f74d794272a3" target="_top" xlink:title=" ">
<polygon fill="white" stroke="#666666" points="525.75,-687.88 392,-687.88 392,-657.38 525.75,-657.38 525.75,-687.88"/>
<text text-anchor="start" x="400" y="-674.38" font-family="Helvetica,sans-Serif" font-size="10.00">ml::model::CSampleQueue</text>
<text text-anchor="middle" x="458.88" y="-663.12" font-family="Helvetica,sans-Serif" font-size="10.00">::addAfterLatestStartTime</text>
</a>
</g>
</g>
<!-- Node1&#45;&gt;Node41 -->
<g id="edge40_Node000001_Node000041" class="edge">
<title>Node1&#45;&gt;Node41</title>
<g id="a_edge40_Node000001_Node000041"><a xlink:title=" ">
<path fill="none" stroke="#63b8ff" d="M550.19,-683.86C542.11,-682.85 533.97,-681.84 526.05,-680.85"/>
<polygon fill="#63b8ff" stroke="#63b8ff" points="549.66,-687.32 560.02,-685.08 550.53,-680.37 549.66,-687.32"/>
</a>
</g>
</g>
<!-- Node3 -->
<g id="Node000003" class="node">
<title>Node3</title>
<g id="a_Node000003"><a xlink:href="../../da/d18/classml_1_1model_1_1_c_sample_gatherer.html#a7c4736c5e93d96f26ce43a050956013a" target="_top" xlink:title=" ">
<polygon fill="white" stroke="#666666" points="164.5,-1388.25 0,-1388.25 0,-1369 164.5,-1369 164.5,-1388.25"/>
<text text-anchor="middle" x="82.25" y="-1374.75" font-family="Helvetica,sans-Serif" font-size="10.00">ml::model::CSampleGatherer::add</text>
</a>
</g>
</g>
<!-- Node2&#45;&gt;Node3 -->
<g id="edge2_Node000002_Node000003" class="edge">
<title>Node2&#45;&gt;Node3</title>
<g id="a_edge2_Node000002_Node000003"><a xlink:title=" ">
<path fill="none" stroke="#63b8ff" d="M276.74,-714.87C273.82,-817.9 255.97,-1264.41 164.5,-1360.62 161.51,-1363.77 158.11,-1366.42 154.43,-1368.65"/>
<polygon fill="#63b8ff" stroke="#63b8ff" points="280.24,-714.96 277,-704.88 273.24,-714.78 280.24,-714.96"/>
</a>
</g>
</g>
<!-- Node4 -->
<g id="Node000004" class="node">
<title>Node4</title>
<g id="a_Node000004"><a xlink:href="../../d5/df7/_c_sample_queue_test_8cc.html#aae82e73d9802e6460da07ee22c89c0ac" target="_top" xlink:title=" ">
<polygon fill="white" stroke="#666666" points="155.88,-1351.25 8.62,-1351.25 8.62,-1332 155.88,-1332 155.88,-1351.25"/>
<text text-anchor="middle" x="82.25" y="-1337.75" font-family="Helvetica,sans-Serif" font-size="10.00">BOOST_AUTO_TEST_CASE</text>
</a>
</g>
</g>
<!-- Node2&#45;&gt;Node4 -->
<g id="edge3_Node000002_Node000004" class="edge">
<title>Node2&#45;&gt;Node4</title>
<g id="a_edge3_Node000002_Node000004"><a xlink:title=" ">
<path fill="none" stroke="#63b8ff" d="M276.51,-714.96C272.59,-814.63 251.11,-1233.39 164.5,-1323.62 161.5,-1326.75 158.08,-1329.39 154.4,-1331.62"/>
<polygon fill="#63b8ff" stroke="#63b8ff" points="279.99,-715.38 276.87,-705.26 273,-715.12 279.99,-715.38"/>
</a>
</g>
</g>
<!-- Node5 -->
<g id="Node000005" class="node">
<title>Node5</title>
<g id="a_Node000005"><a xlink:href="../../d5/df7/_c_sample_queue_test_8cc.html#a112e7a10a64a2938cf468ac137645468" target="_top" xlink:title=" ">
<polygon fill="white" stroke="#666666" points="155.88,-1314.25 8.62,-1314.25 8.62,-1295 155.88,-1295 155.88,-1314.25"/>
<text text-anchor="middle" x="82.25" y="-1300.75" font-family="Helvetica,sans-Serif" font-size="10.00">BOOST_AUTO_TEST_CASE</text>
</a>
</g>
</g>
<!-- Node2&#45;&gt;Node5 -->
<g id="edge4_Node000002_Node000005" class="edge">
<title>Node2&#45;&gt;Node5</title>
<g id="a_edge4_Node000002_Node000005"><a xlink:title=" ">
<path fill="none" stroke="#63b8ff" d="M276.25,-714.91C271.3,-810.87 246.31,-1202.32 164.5,-1286.62 161.48,-1289.74 158.05,-1292.36 154.36,-1294.58"/>
<polygon fill="#63b8ff" stroke="#63b8ff" points="279.74,-715.28 276.73,-705.12 272.74,-714.93 279.74,-715.28"/>
</a>
</g>
</g>
<!-- Node6 -->
<g id="Node000006" class="node">
<title>Node6</title>
<g id="a_Node000006"><a xlink:href="../../d5/df7/_c_sample_queue_test_8cc.html#a3ee55b3e8241f1d64d2fe7395a4738dd" target="_top" xlink:title=" ">
<polygon fill="white" stroke="#666666" points="155.88,-1277.25 8.62,-1277.25 8.62,-1258 155.88,-1258 155.88,-1277.25"/>
<text text-anchor="middle" x="82.25" y="-1263.75" font-family="Helvetica,sans-Serif" font-size="10.00">BOOST_AUTO_TEST_CASE</text>
</a>
</g>
</g>
<!-- Node2&#45;&gt;Node6 -->
<g id="edge5_Node000002_Node000006" class="edge">
<title>Node2&#45;&gt;Node6</title>
<g id="a_edge5_Node000002_Node000006"><a xlink:title=" ">
<path fill="none" stroke="#63b8ff" d="M275.97,-714.73C269.96,-806.68 241.54,-1171.19 164.5,-1249.62 161.46,-1252.72 158.02,-1255.33 154.31,-1257.54"/>
<polygon fill="#63b8ff" stroke="#63b8ff" points="279.45,-715.13 276.59,-704.93 272.47,-714.69 279.45,-715.13"/>
</a>
</g>
</g>
<!-- Node7 -->
<g id="Node000007" class="node">
<title>Node7</title>
<g id="a_Node000007"><a xlink:href="../../d5/df7/_c_sample_queue_test_8cc.html#ac9749ba411f146bbd7431736752516b8" target="_top" xlink:title=" ">
<polygon fill="white" stroke="#666666" points="155.88,-1240.25 8.62,-1240.25 8.62,-1221 155.88,-1221 155.88,-1240.25"/>
<text text-anchor="middle" x="82.25" y="-1226.75" font-family="Helvetica,sans-Serif" font-size="10.00">BOOST_AUTO_TEST_CASE</text>
</a>
</g>
</g>
<!-- Node2&#45;&gt;Node7 -->
<g id="edge6_Node000002_Node000007" class="edge">
<title>Node2&#45;&gt;Node7</title>
<g id="a_edge6_Node000002_Node000007"><a xlink:title=" ">
<path fill="none" stroke="#63b8ff" d="M275.62,-715C268.43,-803.52 236.67,-1140.15 164.5,-1212.62 161.34,-1215.8 157.75,-1218.47 153.89,-1220.71"/>
<polygon fill="#63b8ff" stroke="#63b8ff" points="279.1,-715.35 276.4,-705.11 272.12,-714.8 279.1,-715.35"/>
</a>
</g>
</g>
<!-- Node8 -->
<g id="Node000008" class="node">
<title>Node8</title>
<g id="a_Node000008"><a xlink:href="../../d5/df7/_c_sample_queue_test_8cc.html#a0ba61f73ae86b194931b4ad133966c7d" target="_top" xlink:title=" ">
<polygon fill="white" stroke="#666666" points="155.88,-1203.25 8.62,-1203.25 8.62,-1184 155.88,-1184 155.88,-1203.25"/>
<text text-anchor="middle" x="82.25" y="-1189.75" font-family="Helvetica,sans-Serif" font-size="10.00">BOOST_AUTO_TEST_CASE</text>
</a>
</g>
</g>
<!-- Node2&#45;&gt;Node8 -->
<g id="edge7_Node000002_Node000008" class="edge">
<title>Node2&#45;&gt;Node8</title>
<g id="a_edge7_Node000002_Node000008"><a xlink:title=" ">
<path fill="none" stroke="#63b8ff" d="M275.23,-715.08C266.82,-799.72 231.87,-1109.04 164.5,-1175.62 161.31,-1178.77 157.71,-1181.42 153.83,-1183.65"/>
<polygon fill="#63b8ff" stroke="#63b8ff" points="278.71,-715.49 276.19,-705.2 271.74,-714.81 278.71,-715.49"/>
</a>
</g>
</g>
<!-- Node9 -->
<g id="Node000009" class="node">
<title>Node9</title>
<g id="a_Node000009"><a xlink:href="../../d5/df7/_c_sample_queue_test_8cc.html#a9276d491cfa4ab0814993578c756d4f8" target="_top" xlink:title=" ">
<polygon fill="white" stroke="#666666" points="155.88,-1166.25 8.62,-1166.25 8.62,-1147 155.88,-1147 155.88,-1166.25"/>
<text text-anchor="middle" x="82.25" y="-1152.75" font-family="Helvetica,sans-Serif" font-size="10.00">BOOST_AUTO_TEST_CASE</text>
</a>
</g>
</g>
<!-- Node2&#45;&gt;Node9 -->
<g id="edge8_Node000002_Node000009" class="edge">
<title>Node2&#45;&gt;Node9</title>
<g id="a_edge8_Node000002_Node000009"><a xlink:title=" ">
<path fill="none" stroke="#63b8ff" d="M274.83,-714.72C265.21,-794.7 227.21,-1077.78 164.5,-1138.62 161.29,-1141.74 157.66,-1144.37 153.77,-1146.58"/>
<polygon fill="#63b8ff" stroke="#63b8ff" points="278.25,-715.54 275.95,-705.2 271.3,-714.72 278.25,-715.54"/>
</a>
</g>
</g>
<!-- Node10 -->
<g id="Node000010" class="node">
<title>Node10</title>
<g id="a_Node000010"><a xlink:href="../../d5/df7/_c_sample_queue_test_8cc.html#a1264b365046aa61285c8eb8827e515dc" target="_top" xlink:title=" ">
<polygon fill="white" stroke="#666666" points="155.88,-1129.25 8.62,-1129.25 8.62,-1110 155.88,-1110 155.88,-1129.25"/>
<text text-anchor="middle" x="82.25" y="-1115.75" font-family="Helvetica,sans-Serif" font-size="10.00">BOOST_AUTO_TEST_CASE</text>
</a>
</g>
</g>
<!-- Node2&#45;&gt;Node10 -->
<g id="edge9_Node000002_Node000010" class="edge">
<title>Node2&#45;&gt;Node10</title>
<g id="a_edge9_Node000002_Node000010"><a xlink:title=" ">
<path fill="none" stroke="#63b8ff" d="M274.29,-714.88C263.29,-790.75 222.43,-1046.61 164.5,-1101.62 161.25,-1104.71 157.6,-1107.31 153.69,-1109.5"/>
<polygon fill="#63b8ff" stroke="#63b8ff" points="277.74,-715.49 275.68,-705.09 270.81,-714.5 277.74,-715.49"/>
</a>
</g>
</g>
<!-- Node11 -->
<g id="Node000011" class="node">
<title>Node11</title>
<g id="a_Node000011"><a xlink:href="../../d5/df7/_c_sample_queue_test_8cc.html#a5d81981ef90052927f9773b848e99933" target="_top" xlink:title=" ">
<polygon fill="white" stroke="#666666" points="155.88,-1092.25 8.62,-1092.25 8.62,-1073 155.88,-1073 155.88,-1092.25"/>
<text text-anchor="middle" x="82.25" y="-1078.75" font-family="Helvetica,sans-Serif" font-size="10.00">BOOST_AUTO_TEST_CASE</text>
</a>
</g>
</g>
<!-- Node2&#45;&gt;Node11 -->
<g id="edge10_Node000002_Node000011" class="edge">
<title>Node2&#45;&gt;Node11</title>
<g id="a_edge10_Node000002_Node000011"><a xlink:title=" ">
<path fill="none" stroke="#63b8ff" d="M277.68,-714.65C277.78,-777.89 268.95,-967.93 164.5,-1064.62 161.11,-1067.77 157.29,-1070.4 153.22,-1072.61"/>
<polygon fill="#63b8ff" stroke="#63b8ff" points="281.19,-714.93 277.58,-704.97 274.19,-715.01 281.19,-714.93"/>
</a>
</g>
</g>
<!-- Node12 -->
<g id="Node000012" class="node">
<title>Node12</title>
<g id="a_Node000012"><a xlink:href="../../d5/df7/_c_sample_queue_test_8cc.html#a5e1d1060594025b7f772955cfeeb154f" target="_top" xlink:title=" ">
<polygon fill="white" stroke="#666666" points="155.88,-1055.25 8.62,-1055.25 8.62,-1036 155.88,-1036 155.88,-1055.25"/>
<text text-anchor="middle" x="82.25" y="-1041.75" font-family="Helvetica,sans-Serif" font-size="10.00">BOOST_AUTO_TEST_CASE</text>
</a>
</g>
</g>
<!-- Node2&#45;&gt;Node12 -->
<g id="edge11_Node000002_Node000012" class="edge">
<title>Node2&#45;&gt;Node12</title>
<g id="a_edge11_Node000002_Node000012"><a xlink:title=" ">
<path fill="none" stroke="#63b8ff" d="M276.86,-714.89C274.55,-774.13 259.53,-942.3 164.5,-1027.62 160.95,-1030.81 156.97,-1033.47 152.72,-1035.7"/>
<polygon fill="#63b8ff" stroke="#63b8ff" points="280.35,-715.29 277.14,-705.2 273.35,-715.09 280.35,-715.29"/>
</a>
</g>
</g>
<!-- Node13 -->
<g id="Node000013" class="node">
<title>Node13</title>
<g id="a_Node000013"><a xlink:href="../../d5/df7/_c_sample_queue_test_8cc.html#a8a060b99d2c089b6de2a7c9df417fb5a" target="_top" xlink:title=" ">
<polygon fill="white" stroke="#666666" points="155.88,-1018.25 8.62,-1018.25 8.62,-999 155.88,-999 155.88,-1018.25"/>
<text text-anchor="middle" x="82.25" y="-1004.75" font-family="Helvetica,sans-Serif" font-size="10.00">BOOST_AUTO_TEST_CASE</text>
</a>
</g>
</g>
<!-- Node2&#45;&gt;Node13 -->
<g id="edge12_Node000002_Node000013" class="edge">
<title>Node2&#45;&gt;Node13</title>
<g id="a_edge12_Node000002_Node000013"><a xlink:title=" ">
<path fill="none" stroke="#63b8ff" d="M275.83,-715.06C270.98,-769.96 250.24,-916.48 164.5,-990.62 160.89,-993.74 156.87,-996.36 152.59,-998.54"/>
<polygon fill="#63b8ff" stroke="#63b8ff" points="279.31,-715.46 276.6,-705.22 272.33,-714.92 279.31,-715.46"/>
</a>
</g>
</g>
<!-- Node14 -->
<g id="Node000014" class="node">
<title>Node14</title>
<g id="a_Node000014"><a xlink:href="../../d5/df7/_c_sample_queue_test_8cc.html#a0b81658794730412c7a1cba8835d7efb" target="_top" xlink:title=" ">
<polygon fill="white" stroke="#666666" points="155.88,-981.25 8.62,-981.25 8.62,-962 155.88,-962 155.88,-981.25"/>
<text text-anchor="middle" x="82.25" y="-967.75" font-family="Helvetica,sans-Serif" font-size="10.00">BOOST_AUTO_TEST_CASE</text>
</a>
</g>
</g>
<!-- Node2&#45;&gt;Node14 -->
<g id="edge13_Node000002_Node000014" class="edge">
<title>Node2&#45;&gt;Node14</title>
<g id="a_edge13_Node000002_Node000014"><a xlink:title=" ">
<path fill="none" stroke="#63b8ff" d="M274.59,-714.72C267.14,-764.59 241.31,-890.26 164.5,-953.62 160.71,-956.75 156.5,-959.36 152.03,-961.55"/>
<polygon fill="#63b8ff" stroke="#63b8ff" points="278.03,-715.4 275.93,-705.02 271.1,-714.44 278.03,-715.4"/>
</a>
</g>
</g>
<!-- Node15 -->
<g id="Node000015" class="node">
<title>Node15</title>
<g id="a_Node000015"><a xlink:href="../../d5/df7/_c_sample_queue_test_8cc.html#afe35d2563c2f33305de724c4f496df96" target="_top" xlink:title=" ">
<polygon fill="white" stroke="#666666" points="155.88,-944.25 8.62,-944.25 8.62,-925 155.88,-925 155.88,-944.25"/>
<text text-anchor="middle" x="82.25" y="-930.75" font-family="Helvetica,sans-Serif" font-size="10.00">BOOST_AUTO_TEST_CASE</text>
</a>
</g>
</g>
<!-- Node2&#45;&gt;Node15 -->
<g id="edge14_Node000002_Node000015" class="edge">
<title>Node2&#45;&gt;Node15</title>
<g id="a_edge14_Node000002_Node000015"><a xlink:title=" ">
<path fill="none" stroke="#63b8ff" d="M272.95,-714.71C262.67,-759.43 232.32,-863.96 164.5,-916.62 160.39,-919.82 155.83,-922.46 151.03,-924.66"/>
<polygon fill="#63b8ff" stroke="#63b8ff" points="276.35,-715.55 275.05,-705.03 269.51,-714.06 276.35,-715.55"/>
</a>
</g>
</g>
<!-- Node16 -->
<g id="Node000016" class="node">
<title>Node16</title>
<g id="a_Node000016"><a xlink:href="../../d5/df7/_c_sample_queue_test_8cc.html#a60d14b7e7ae684e693a16c24f618776c" target="_top" xlink:title=" ">
<polygon fill="white" stroke="#666666" points="155.88,-907.25 8.62,-907.25 8.62,-888 155.88,-888 155.88,-907.25"/>
<text text-anchor="middle" x="82.25" y="-893.75" font-family="Helvetica,sans-Serif" font-size="10.00">BOOST_AUTO_TEST_CASE</text>
</a>
</g>
</g>
<!-- Node2&#45;&gt;Node16 -->
<g id="edge15_Node000002_Node000016" class="edge">
<title>Node2&#45;&gt;Node16</title>
<g id="a_edge15_Node000002_Node000016"><a xlink:title=" ">
<path fill="none" stroke="#63b8ff" d="M270.81,-714.39C257.6,-753.34 223.62,-837.25 164.5,-879.62 160.04,-882.82 155.11,-885.47 149.95,-887.66"/>
<polygon fill="#63b8ff" stroke="#63b8ff" points="274.07,-715.67 273.84,-705.08 267.42,-713.5 274.07,-715.67"/>
</a>
</g>
</g>
<!-- Node17 -->
<g id="Node000017" class="node">
<title>Node17</title>
<g id="a_Node000017"><a xlink:href="../../d5/df7/_c_sample_queue_test_8cc.html#a72a557224ea1fe9c6b98036a1189577a" target="_top" xlink:title=" ">
<polygon fill="white" stroke="#666666" points="155.88,-870.25 8.62,-870.25 8.62,-851 155.88,-851 155.88,-870.25"/>
<text text-anchor="middle" x="82.25" y="-856.75" font-family="Helvetica,sans-Serif" font-size="10.00">BOOST_AUTO_TEST_CASE</text>
</a>
</g>
</g>
<!-- Node2&#45;&gt;Node17 -->
<g id="edge16_Node000002_Node000017" class="edge">
<title>Node2&#45;&gt;Node17</title>
<g id="a_edge16_Node000002_Node000017"><a xlink:title=" ">
<path fill="none" stroke="#63b8ff" d="M267.98,-713.61C251.82,-746.11 215.3,-810.03 164.5,-842.62 159.51,-845.82 154.04,-848.46 148.37,-850.63"/>
<polygon fill="#63b8ff" stroke="#63b8ff" points="270.99,-715.42 272.18,-704.9 264.68,-712.38 270.99,-715.42"/>
</a>
</g>
</g>
<!-- Node18 -->
<g id="Node000018" class="node">
<title>Node18</title>
<g id="a_Node000018"><a xlink:href="../../d5/df7/_c_sample_queue_test_8cc.html#a5828e3abe082de42d45b4b148f108131" target="_top" xlink:title=" ">
<polygon fill="white" stroke="#666666" points="155.88,-833.25 8.62,-833.25 8.62,-814 155.88,-814 155.88,-833.25"/>
<text text-anchor="middle" x="82.25" y="-819.75" font-family="Helvetica,sans-Serif" font-size="10.00">BOOST_AUTO_TEST_CASE</text>
</a>
</g>
</g>
<!-- Node2&#45;&gt;Node18 -->
<g id="edge17_Node000002_Node000018" class="edge">
<title>Node2&#45;&gt;Node18</title>
<g id="a_edge17_Node000002_Node000018"><a xlink:title=" ">
<path fill="none" stroke="#63b8ff" d="M263.77,-712.54C244.66,-737.85 207.25,-782.27 164.5,-805.62 158.67,-808.81 152.31,-811.43 145.8,-813.59"/>
<polygon fill="#63b8ff" stroke="#63b8ff" points="266.37,-714.91 269.48,-704.78 260.73,-710.76 266.37,-714.91"/>
</a>
</g>
</g>
<!-- Node19 -->
<g id="Node000019" class="node">
<title>Node19</title>
<g id="a_Node000019"><a xlink:href="../../d5/df7/_c_sample_queue_test_8cc.html#a4db63569c4b430c10a3f213b4e24b691" target="_top" xlink:title=" ">
<polygon fill="white" stroke="#666666" points="155.88,-796.25 8.62,-796.25 8.62,-777 155.88,-777 155.88,-796.25"/>
<text text-anchor="middle" x="82.25" y="-782.75" font-family="Helvetica,sans-Serif" font-size="10.00">BOOST_AUTO_TEST_CASE</text>
</a>
</g>
</g>
<!-- Node2&#45;&gt;Node19 -->
<g id="edge18_Node000002_Node000019" class="edge">
<title>Node2&#45;&gt;Node19</title>
<g id="a_edge18_Node000002_Node000019"><a xlink:title=" ">
<path fill="none" stroke="#63b8ff" d="M256.7,-710.72C235.07,-727.86 199.39,-753.77 164.5,-768.62 157.19,-771.74 149.27,-774.34 141.34,-776.52"/>
<polygon fill="#63b8ff" stroke="#63b8ff" points="258.84,-713.5 264.42,-704.49 254.44,-708.05 258.84,-713.5"/>
</a>
</g>
</g>
<!-- Node20 -->
<g id="Node000020" class="node">
<title>Node20</title>
<g id="a_Node000020"><a xlink:href="../../d5/df7/_c_sample_queue_test_8cc.html#aae5f43730560e6ee73822016f98da301" target="_top" xlink:title=" ">
<polygon fill="white" stroke="#666666" points="155.88,-759.25 8.62,-759.25 8.62,-740 155.88,-740 155.88,-759.25"/>
<text text-anchor="middle" x="82.25" y="-745.75" font-family="Helvetica,sans-Serif" font-size="10.00">BOOST_AUTO_TEST_CASE</text>
</a>
</g>
</g>
<!-- Node2&#45;&gt;Node20 -->
<g id="edge19_Node000002_Node000020" class="edge">
<title>Node2&#45;&gt;Node20</title>
<g id="a_edge19_Node000002_Node000020"><a xlink:title=" ">
<path fill="none" stroke="#63b8ff" d="M239.41,-707.51C217.67,-715.2 189.75,-724.6 164.5,-731.62 154.34,-734.45 143.37,-737.13 132.87,-739.52"/>
<polygon fill="#63b8ff" stroke="#63b8ff" points="240.5,-710.83 248.74,-704.17 238.14,-704.24 240.5,-710.83"/>
</a>
</g>
</g>
<!-- Node21 -->
<g id="Node000021" class="node">
<title>Node21</title>
<g id="a_Node000021"><a xlink:href="../../d5/df7/_c_sample_queue_test_8cc.html#a7403bd68cc6918af8319946cc1476d48" target="_top" xlink:title=" ">
<polygon fill="white" stroke="#666666" points="155.88,-722.25 8.62,-722.25 8.62,-703 155.88,-703 155.88,-722.25"/>
<text text-anchor="middle" x="82.25" y="-708.75" font-family="Helvetica,sans-Serif" font-size="10.00">BOOST_AUTO_TEST_CASE</text>
</a>
</g>
</g>
<!-- Node2&#45;&gt;Node21 -->
<g id="edge20_Node000002_Node000021" class="edge">
<title>Node2&#45;&gt;Node21</title>
<g id="a_edge20_Node000002_Node000021"><a xlink:title=" ">
<path fill="none" stroke="#63b8ff" d="M188.72,-702.3C177.81,-703.36 166.76,-704.45 156.11,-705.49"/>
<polygon fill="#63b8ff" stroke="#63b8ff" points="188.9,-705.79 198.51,-701.34 188.22,-698.83 188.9,-705.79"/>
</a>
</g>
</g>
<!-- Node22 -->
<g id="Node000022" class="node">
<title>Node22</title>
<g id="a_Node000022"><a xlink:href="../../d5/df7/_c_sample_queue_test_8cc.html#a6b201560231471efd334783f7c0ae271" target="_top" xlink:title=" ">
<polygon fill="white" stroke="#666666" points="155.88,-685.25 8.62,-685.25 8.62,-666 155.88,-666 155.88,-685.25"/>
<text text-anchor="middle" x="82.25" y="-671.75" font-family="Helvetica,sans-Serif" font-size="10.00">BOOST_AUTO_TEST_CASE</text>
</a>
</g>
</g>
<!-- Node2&#45;&gt;Node22 -->
<g id="edge21_Node000002_Node000022" class="edge">
<title>Node2&#45;&gt;Node22</title>
<g id="a_edge21_Node000002_Node000022"><a xlink:title=" ">
<path fill="none" stroke="#63b8ff" d="M188.72,-685.41C177.81,-684.4 166.76,-683.37 156.11,-682.39"/>
<polygon fill="#63b8ff" stroke="#63b8ff" points="188.23,-688.88 198.51,-686.32 188.88,-681.91 188.23,-688.88"/>
</a>
</g>
</g>
<!-- Node23 -->
<g id="Node000023" class="node">
<title>Node23</title>
<g id="a_Node000023"><a xlink:href="../../d5/df7/_c_sample_queue_test_8cc.html#ac7d463cf1fea454d5b0f922776400e72" target="_top" xlink:title=" ">
<polygon fill="white" stroke="#666666" points="155.88,-648.25 8.62,-648.25 8.62,-629 155.88,-629 155.88,-648.25"/>
<text text-anchor="middle" x="82.25" y="-634.75" font-family="Helvetica,sans-Serif" font-size="10.00">BOOST_AUTO_TEST_CASE</text>
</a>
</g>
</g>
<!-- Node2&#45;&gt;Node23 -->
<g id="edge22_Node000002_Node000023" class="edge">
<title>Node2&#45;&gt;Node23</title>
<g id="a_edge22_Node000002_Node000023"><a xlink:title=" ">
<path fill="none" stroke="#63b8ff" d="M238.5,-679.85C216.88,-672.44 189.37,-663.44 164.5,-656.62 154.19,-653.8 143.05,-651.1 132.42,-648.7"/>
<polygon fill="#63b8ff" stroke="#63b8ff" points="237.19,-683.11 247.79,-683.07 239.49,-676.49 237.19,-683.11"/>
</a>
</g>
</g>
<!-- Node24 -->
<g id="Node000024" class="node">
<title>Node24</title>
<g id="a_Node000024"><a xlink:href="../../d5/df7/_c_sample_queue_test_8cc.html#af326d9023be52ae91b34274a58dd8173" target="_top" xlink:title=" ">
<polygon fill="white" stroke="#666666" points="155.88,-611.25 8.62,-611.25 8.62,-592 155.88,-592 155.88,-611.25"/>
<text text-anchor="middle" x="82.25" y="-597.75" font-family="Helvetica,sans-Serif" font-size="10.00">BOOST_AUTO_TEST_CASE</text>
</a>
</g>
</g>
<!-- Node2&#45;&gt;Node24 -->
<g id="edge23_Node000002_Node000024" class="edge">
<title>Node2&#45;&gt;Node24</title>
<g id="a_edge23_Node000002_Node000024"><a xlink:title=" ">
<path fill="none" stroke="#63b8ff" d="M256.31,-676.49C234.62,-659.59 199.11,-634.23 164.5,-619.62 157.05,-616.48 148.97,-613.85 140.89,-611.66"/>
<polygon fill="#63b8ff" stroke="#63b8ff" points="254.06,-679.17 264.07,-682.65 258.41,-673.69 254.06,-679.17"/>
</a>
</g>
</g>
<!-- Node25 -->
<g id="Node000025" class="node">
<title>Node25</title>
<g id="a_Node000025"><a xlink:href="../../d5/df7/_c_sample_queue_test_8cc.html#a11e84e9d7f4b3269a5d29e483ea36cb3" target="_top" xlink:title=" ">
<polygon fill="white" stroke="#666666" points="155.88,-574.25 8.62,-574.25 8.62,-555 155.88,-555 155.88,-574.25"/>
<text text-anchor="middle" x="82.25" y="-560.75" font-family="Helvetica,sans-Serif" font-size="10.00">BOOST_AUTO_TEST_CASE</text>
</a>
</g>
</g>
<!-- Node2&#45;&gt;Node25 -->
<g id="edge24_Node000002_Node000025" class="edge">
<title>Node2&#45;&gt;Node25</title>
<g id="a_edge24_Node000002_Node000025"><a xlink:title=" ">
<path fill="none" stroke="#63b8ff" d="M263.47,-674.55C244.25,-649.41 206.92,-605.68 164.5,-582.62 158.66,-579.45 152.3,-576.84 145.78,-574.68"/>
<polygon fill="#63b8ff" stroke="#63b8ff" points="260.67,-676.64 269.45,-682.57 266.28,-672.46 260.67,-676.64"/>
</a>
</g>
</g>
<!-- Node26 -->
<g id="Node000026" class="node">
<title>Node26</title>
<g id="a_Node000026"><a xlink:href="../../d5/df7/_c_sample_queue_test_8cc.html#a32a7815e78c105c023706207c2eb742d" target="_top" xlink:title=" ">
<polygon fill="white" stroke="#666666" points="155.88,-537.25 8.62,-537.25 8.62,-518 155.88,-518 155.88,-537.25"/>
<text text-anchor="middle" x="82.25" y="-523.75" font-family="Helvetica,sans-Serif" font-size="10.00">BOOST_AUTO_TEST_CASE</text>
</a>
</g>
</g>
<!-- Node2&#45;&gt;Node26 -->
<g id="edge25_Node000002_Node000026" class="edge">
<title>Node2&#45;&gt;Node26</title>
<g id="a_edge25_Node000002_Node000026"><a xlink:title=" ">
<path fill="none" stroke="#63b8ff" d="M267.94,-673.77C251.73,-641.5 215.13,-578 164.5,-545.62 159.51,-542.43 154.03,-539.8 148.36,-537.64"/>
<polygon fill="#63b8ff" stroke="#63b8ff" points="264.63,-674.96 272.15,-682.42 270.92,-671.9 264.63,-674.96"/>
</a>
</g>
</g>
<!-- Node27 -->
<g id="Node000027" class="node">
<title>Node27</title>
<g id="a_Node000027"><a xlink:href="../../d5/df7/_c_sample_queue_test_8cc.html#a198486660676a176453a9cfe2c6324c6" target="_top" xlink:title=" ">
<polygon fill="white" stroke="#666666" points="155.88,-500.25 8.62,-500.25 8.62,-481 155.88,-481 155.88,-500.25"/>
<text text-anchor="middle" x="82.25" y="-486.75" font-family="Helvetica,sans-Serif" font-size="10.00">BOOST_AUTO_TEST_CASE</text>
</a>
</g>
</g>
<!-- Node2&#45;&gt;Node27 -->
<g id="edge26_Node000002_Node000027" class="edge">
<title>Node2&#45;&gt;Node27</title>
<g id="a_edge26_Node000002_Node000027"><a xlink:title=" ">
<path fill="none" stroke="#63b8ff" d="M270.78,-672.97C257.51,-634.22 223.43,-550.76 164.5,-508.62 160.03,-505.43 155.1,-502.79 149.95,-500.61"/>
<polygon fill="#63b8ff" stroke="#63b8ff" points="267.37,-673.82 273.82,-682.23 274.02,-671.63 267.37,-673.82"/>
</a>
</g>
</g>
<!-- Node28 -->
<g id="Node000028" class="node">
<title>Node28</title>
<g id="a_Node000028"><a xlink:href="../../d5/df7/_c_sample_queue_test_8cc.html#a15738eb4fb33752c015b2555c4a94884" target="_top" xlink:title=" ">
<polygon fill="white" stroke="#666666" points="155.88,-463.25 8.62,-463.25 8.62,-444 155.88,-444 155.88,-463.25"/>
<text text-anchor="middle" x="82.25" y="-449.75" font-family="Helvetica,sans-Serif" font-size="10.00">BOOST_AUTO_TEST_CASE</text>
</a>
</g>
</g>
<!-- Node2&#45;&gt;Node28 -->
<g id="edge27_Node000002_Node000028" class="edge">
<title>Node2&#45;&gt;Node28</title>
<g id="a_edge27_Node000002_Node000028"><a xlink:title=" ">
<path fill="none" stroke="#63b8ff" d="M272.92,-672.63C262.58,-628.11 232.12,-524.05 164.5,-471.62 160.39,-468.44 155.83,-465.79 151.02,-463.6"/>
<polygon fill="#63b8ff" stroke="#63b8ff" points="269.47,-673.25 275.03,-682.26 276.3,-671.74 269.47,-673.25"/>
</a>
</g>
</g>
<!-- Node29 -->
<g id="Node000029" class="node">
<title>Node29</title>
<g id="a_Node000029"><a xlink:href="../../d5/df7/_c_sample_queue_test_8cc.html#a7a43c6bb67d3a07b57aaf731dcef2a3e" target="_top" xlink:title=" ">
<polygon fill="white" stroke="#666666" points="155.88,-426.25 8.62,-426.25 8.62,-407 155.88,-407 155.88,-426.25"/>
<text text-anchor="middle" x="82.25" y="-412.75" font-family="Helvetica,sans-Serif" font-size="10.00">BOOST_AUTO_TEST_CASE</text>
</a>
</g>
</g>
<!-- Node2&#45;&gt;Node29 -->
<g id="edge28_Node000002_Node000029" class="edge">
<title>Node2&#45;&gt;Node29</title>
<g id="a_edge28_Node000002_Node000029"><a xlink:title=" ">
<path fill="none" stroke="#63b8ff" d="M274.51,-672.27C266.94,-622.36 240.93,-497.59 164.5,-434.62 160.71,-431.5 156.49,-428.89 152.03,-426.71"/>
<polygon fill="#63b8ff" stroke="#63b8ff" points="271.02,-672.59 275.88,-682.01 277.96,-671.62 271.02,-672.59"/>
</a>
</g>
</g>
<!-- Node30 -->
<g id="Node000030" class="node">
<title>Node30</title>
<g id="a_Node000030"><a xlink:href="../../d5/df7/_c_sample_queue_test_8cc.html#ae406e8da2c7f8b0c37d5e30a01894d83" target="_top" xlink:title=" ">
<polygon fill="white" stroke="#666666" points="155.88,-389.25 8.62,-389.25 8.62,-370 155.88,-370 155.88,-389.25"/>
<text text-anchor="middle" x="82.25" y="-375.75" font-family="Helvetica,sans-Serif" font-size="10.00">BOOST_AUTO_TEST_CASE</text>
</a>
</g>
</g>
<!-- Node2&#45;&gt;Node30 -->
<g id="edge29_Node000002_Node000030" class="edge">
<title>Node2&#45;&gt;Node30</title>
<g id="a_edge29_Node000002_Node000030"><a xlink:title=" ">
<path fill="none" stroke="#63b8ff" d="M275.8,-672.26C270.9,-617.54 250.03,-471.5 164.5,-397.62 160.89,-394.51 156.86,-391.9 152.58,-389.71"/>
<polygon fill="#63b8ff" stroke="#63b8ff" points="272.3,-672.37 276.58,-682.06 279.28,-671.82 272.3,-672.37"/>
</a>
</g>
</g>
<!-- Node31 -->
<g id="Node000031" class="node">
<title>Node31</title>
<g id="a_Node000031"><a xlink:href="../../d5/df7/_c_sample_queue_test_8cc.html#a7f851615ca495f4f8a43a1158d5f9157" target="_top" xlink:title=" ">
<polygon fill="white" stroke="#666666" points="155.88,-352.25 8.62,-352.25 8.62,-333 155.88,-333 155.88,-352.25"/>
<text text-anchor="middle" x="82.25" y="-338.75" font-family="Helvetica,sans-Serif" font-size="10.00">BOOST_AUTO_TEST_CASE</text>
</a>
</g>
</g>
<!-- Node2&#45;&gt;Node31 -->
<g id="edge30_Node000002_Node000031" class="edge">
<title>Node2&#45;&gt;Node31</title>
<g id="a_edge30_Node000002_Node000031"><a xlink:title=" ">
<path fill="none" stroke="#63b8ff" d="M276.84,-672.42C274.47,-613.35 259.32,-445.68 164.5,-360.62 160.95,-357.44 156.97,-354.78 152.72,-352.56"/>
<polygon fill="#63b8ff" stroke="#63b8ff" points="273.33,-672.19 277.13,-682.08 280.32,-671.98 273.33,-672.19"/>
</a>
</g>
</g>
<!-- Node32 -->
<g id="Node000032" class="node">
<title>Node32</title>
<g id="a_Node000032"><a xlink:href="../../d5/df7/_c_sample_queue_test_8cc.html#af3a3fd33cef029c4a0045c2776f83441" target="_top" xlink:title=" ">
<polygon fill="white" stroke="#666666" points="155.88,-315.25 8.62,-315.25 8.62,-296 155.88,-296 155.88,-315.25"/>
<text text-anchor="middle" x="82.25" y="-301.75" font-family="Helvetica,sans-Serif" font-size="10.00">BOOST_AUTO_TEST_CASE</text>
</a>
</g>
</g>
<!-- Node2&#45;&gt;Node32 -->
<g id="edge31_Node000002_Node000032" class="edge">
<title>Node2&#45;&gt;Node32</title>
<g id="a_edge31_Node000002_Node000032"><a xlink:title=" ">
<path fill="none" stroke="#63b8ff" d="M277.66,-672.66C277.7,-609.58 268.72,-420.04 164.5,-323.62 161.11,-320.49 157.29,-317.85 153.21,-315.64"/>
<polygon fill="#63b8ff" stroke="#63b8ff" points="274.17,-672.27 277.57,-682.3 281.17,-672.34 274.17,-672.27"/>
</a>
</g>
</g>
<!-- Node33 -->
<g id="Node000033" class="node">
<title>Node33</title>
<g id="a_Node000033"><a xlink:href="../../d5/df7/_c_sample_queue_test_8cc.html#a3ffb8d71acf711aa090e337d046504eb" target="_top" xlink:title=" ">
<polygon fill="white" stroke="#666666" points="155.88,-278.25 8.62,-278.25 8.62,-259 155.88,-259 155.88,-278.25"/>
<text text-anchor="middle" x="82.25" y="-264.75" font-family="Helvetica,sans-Serif" font-size="10.00">BOOST_AUTO_TEST_CASE</text>
</a>
</g>
</g>
<!-- Node2&#45;&gt;Node33 -->
<g id="edge32_Node000002_Node000033" class="edge">
<title>Node2&#45;&gt;Node33</title>
<g id="a_edge32_Node000002_Node000033"><a xlink:title=" ">
<path fill="none" stroke="#63b8ff" d="M274.28,-672.42C263.25,-596.74 222.31,-341.5 164.5,-286.62 161.15,-283.44 157.36,-280.77 153.31,-278.54"/>
<polygon fill="#63b8ff" stroke="#63b8ff" points="270.79,-672.78 275.68,-682.18 277.72,-671.79 270.79,-672.78"/>
</a>
</g>
</g>
<!-- Node34 -->
<g id="Node000034" class="node">
<title>Node34</title>
<g id="a_Node000034"><a xlink:href="../../d5/df7/_c_sample_queue_test_8cc.html#a7eae36110ba916ba4bb4f1ec5bf68144" target="_top" xlink:title=" ">
<polygon fill="white" stroke="#666666" points="155.88,-241.25 8.62,-241.25 8.62,-222 155.88,-222 155.88,-241.25"/>
<text text-anchor="middle" x="82.25" y="-227.75" font-family="Helvetica,sans-Serif" font-size="10.00">BOOST_AUTO_TEST_CASE</text>
</a>
</g>
</g>
<!-- Node2&#45;&gt;Node34 -->
<g id="edge33_Node000002_Node000034" class="edge">
<title>Node2&#45;&gt;Node34</title>
<g id="a_edge33_Node000002_Node000034"><a xlink:title=" ">
<path fill="none" stroke="#63b8ff" d="M274.82,-672.58C265.18,-592.78 227.09,-310.33 164.5,-249.62 161.28,-246.51 157.66,-243.88 153.76,-241.67"/>
<polygon fill="#63b8ff" stroke="#63b8ff" points="271.29,-672.56 275.94,-682.08 278.24,-671.73 271.29,-672.56"/>
</a>
</g>
</g>
<!-- Node35 -->
<g id="Node000035" class="node">
<title>Node35</title>
<g id="a_Node000035"><a xlink:href="../../d5/df7/_c_sample_queue_test_8cc.html#a0d4d4484d85fad7c01c96ba39aa55159" target="_top" xlink:title=" ">
<polygon fill="white" stroke="#666666" points="155.88,-204.25 8.62,-204.25 8.62,-185 155.88,-185 155.88,-204.25"/>
<text text-anchor="middle" x="82.25" y="-190.75" font-family="Helvetica,sans-Serif" font-size="10.00">BOOST_AUTO_TEST_CASE</text>
</a>
</g>
</g>
<!-- Node2&#45;&gt;Node35 -->
<g id="edge34_Node000002_Node000035" class="edge">
<title>Node2&#45;&gt;Node35</title>
<g id="a_edge34_Node000002_Node000035"><a xlink:title=" ">
<path fill="none" stroke="#63b8ff" d="M275.22,-672.21C266.79,-587.75 231.76,-279.06 164.5,-212.62 161.31,-209.48 157.71,-206.83 153.83,-204.6"/>
<polygon fill="#63b8ff" stroke="#63b8ff" points="271.73,-672.46 276.18,-682.07 278.7,-671.78 271.73,-672.46"/>
</a>
</g>
</g>
<!-- Node36 -->
<g id="Node000036" class="node">
<title>Node36</title>
<g id="a_Node000036"><a xlink:href="../../d5/df7/_c_sample_queue_test_8cc.html#a0273a86f4e2f2782b55f2d85563450de" target="_top" xlink:title=" ">
<polygon fill="white" stroke="#666666" points="155.88,-167.25 8.62,-167.25 8.62,-148 155.88,-148 155.88,-167.25"/>
<text text-anchor="middle" x="82.25" y="-153.75" font-family="Helvetica,sans-Serif" font-size="10.00">BOOST_AUTO_TEST_CASE</text>
</a>
</g>
</g>
<!-- Node2&#45;&gt;Node36 -->
<g id="edge35_Node000002_Node000036" class="edge">
<title>Node2&#45;&gt;Node36</title>
<g id="a_edge35_Node000002_Node000036"><a xlink:title=" ">
<path fill="none" stroke="#63b8ff" d="M275.61,-672.29C268.4,-583.94 236.56,-247.95 164.5,-175.62 161.34,-172.45 157.75,-169.78 153.89,-167.54"/>
<polygon fill="#63b8ff" stroke="#63b8ff" points="272.12,-672.47 276.4,-682.16 279.09,-671.92 272.12,-672.47"/>
</a>
</g>
</g>
<!-- Node37 -->
<g id="Node000037" class="node">
<title>Node37</title>
<g id="a_Node000037"><a xlink:href="../../d5/df7/_c_sample_queue_test_8cc.html#a213baac7cdae7c8085df208ad3b78b61" target="_top" xlink:title=" ">
<polygon fill="white" stroke="#666666" points="155.88,-130.25 8.62,-130.25 8.62,-111 155.88,-111 155.88,-130.25"/>
<text text-anchor="middle" x="82.25" y="-116.75" font-family="Helvetica,sans-Serif" font-size="10.00">BOOST_AUTO_TEST_CASE</text>
</a>
</g>
</g>
<!-- Node2&#45;&gt;Node37 -->
<g id="edge36_Node000002_Node000037" class="edge">
<title>Node2&#45;&gt;Node37</title>
<g id="a_edge36_Node000002_Node000037"><a xlink:title=" ">
<path fill="none" stroke="#63b8ff" d="M275.96,-672.56C269.93,-580.77 241.42,-216.91 164.5,-138.62 161.46,-135.53 158.02,-132.92 154.31,-130.71"/>
<polygon fill="#63b8ff" stroke="#63b8ff" points="272.46,-672.58 276.59,-682.34 279.44,-672.14 272.46,-672.58"/>
</a>
</g>
</g>
<!-- Node38 -->
<g id="Node000038" class="node">
<title>Node38</title>
<g id="a_Node000038"><a xlink:href="../../d5/df7/_c_sample_queue_test_8cc.html#a8d70afff421984a6ee33987165d000a8" target="_top" xlink:title=" ">
<polygon fill="white" stroke="#666666" points="155.88,-93.25 8.62,-93.25 8.62,-74 155.88,-74 155.88,-93.25"/>
<text text-anchor="middle" x="82.25" y="-79.75" font-family="Helvetica,sans-Serif" font-size="10.00">BOOST_AUTO_TEST_CASE</text>
</a>
</g>
</g>
<!-- Node2&#45;&gt;Node38 -->
<g id="edge37_Node000002_Node000038" class="edge">
<title>Node2&#45;&gt;Node38</title>
<g id="a_edge37_Node000002_Node000038"><a xlink:title=" ">
<path fill="none" stroke="#63b8ff" d="M276.24,-672.38C271.27,-576.58 246.19,-185.78 164.5,-101.62 161.48,-98.51 158.05,-95.89 154.36,-93.67"/>
<polygon fill="#63b8ff" stroke="#63b8ff" points="272.74,-672.34 276.73,-682.15 279.73,-671.99 272.74,-672.34"/>
</a>
</g>
</g>
<!-- Node39 -->
<g id="Node000039" class="node">
<title>Node39</title>
<g id="a_Node000039"><a xlink:href="../../d5/df7/_c_sample_queue_test_8cc.html#a28a580e7c344a327aff828ca0779d537" target="_top" xlink:title=" ">
<polygon fill="white" stroke="#666666" points="155.88,-56.25 8.62,-56.25 8.62,-37 155.88,-37 155.88,-56.25"/>
<text text-anchor="middle" x="82.25" y="-42.75" font-family="Helvetica,sans-Serif" font-size="10.00">BOOST_AUTO_TEST_CASE</text>
</a>
</g>
</g>
<!-- Node2&#45;&gt;Node39 -->
<g id="edge38_Node000002_Node000039" class="edge">
<title>Node2&#45;&gt;Node39</title>
<g id="a_edge38_Node000002_Node000039"><a xlink:title=" ">
<path fill="none" stroke="#63b8ff" d="M276.49,-672.02C272.51,-571.95 250.9,-154.62 164.5,-64.62 161.5,-61.5 158.08,-58.86 154.4,-56.63"/>
<polygon fill="#63b8ff" stroke="#63b8ff" points="272.99,-672.15 276.86,-682.01 279.99,-671.88 272.99,-672.15"/>
</a>
</g>
</g>
<!-- Node40 -->
<g id="Node000040" class="node">
<title>Node40</title>
<g id="a_Node000040"><a xlink:href="../../d5/df7/_c_sample_queue_test_8cc.html#a962d5a17afc0f06d8ea362f9097f94f6" target="_top" xlink:title=" ">
<polygon fill="white" stroke="#666666" points="155.88,-19.25 8.62,-19.25 8.62,0 155.88,0 155.88,-19.25"/>
<text text-anchor="middle" x="82.25" y="-5.75" font-family="Helvetica,sans-Serif" font-size="10.00">BOOST_AUTO_TEST_CASE</text>
</a>
</g>
</g>
<!-- Node2&#45;&gt;Node40 -->
<g id="edge39_Node000002_Node000040" class="edge">
<title>Node2&#45;&gt;Node40</title>
<g id="a_edge39_Node000002_Node000040"><a xlink:title=" ">
<path fill="none" stroke="#63b8ff" d="M276.73,-672.41C273.79,-569.54 255.85,-123.69 164.5,-27.62 161.51,-24.48 158.11,-21.83 154.43,-19.6"/>
<polygon fill="#63b8ff" stroke="#63b8ff" points="273.23,-672.49 277,-682.39 280.23,-672.3 273.23,-672.49"/>
</a>
</g>
</g>
<!-- Node41&#45;&gt;Node2 -->
<g id="edge41_Node000041_Node000002" class="edge">
<title>Node41&#45;&gt;Node2</title>
<g id="a_edge41_Node000041_Node000002"><a xlink:title=" ">
<path fill="none" stroke="#63b8ff" d="M380.41,-681.73C372.4,-682.67 364.26,-683.63 356.26,-684.57"/>
<polygon fill="#63b8ff" stroke="#63b8ff" points="380.59,-685.24 390.11,-680.59 379.77,-678.28 380.59,-685.24"/>
</a>
</g>
</g>
</g>
</svg>

<g id="navigator" transform="translate(0 0)" fill="#404254">
  <rect fill="#f2f5e9" fill-opacity="0.5" stroke="#606060" stroke-width=".5" x="0" y="0" width="60" height="60"/>
  <use id="zoomplus" xlink:href="#zoomPlus" x="17" y="9" onmousedown="handleZoom(evt,'in')"/>
  <use id="zoomminus" xlink:href="#zoomMin" x="42" y="9" onmousedown="handleZoom(evt,'out')"/>
  <use id="reset" xlink:href="#resetDef" x="30" y="36" onmousedown="handleReset()"/>
   <use id="arrowup" xlink:href="#arrowUp" x="0" y="0" onmousedown="handlePan(0,-1)"/>
  <use id="arrowright" xlink:href="#arrowRight" x="0" y="0" onmousedown="handlePan(1,0)"/>
  <use id="arrowdown" xlink:href="#arrowDown" x="0" y="0" onmousedown="handlePan(0,1)"/>
  <use id="arrowleft" xlink:href="#arrowLeft" x="0" y="0" onmousedown="handlePan(-1,0)"/>
</g>
<svg viewBox="0 0 15 15" width="100%" height="30px" preserveAspectRatio="xMaxYMin meet">
 <g id="arrow_out" transform="scale(0.3 0.3)">
  <a xlink:href="classml_1_1model_1_1_c_sample_queue_a94d8e73f9b9bd66fbb7f74ed62ea9cca_icgraph_org.svg" target="_base">
   <rect id="button" ry="5" rx="5" y="6" x="6" height="38" width="38"
        fill="#f2f5e9" fill-opacity="0.5" stroke="#606060" stroke-width="1.0"/>
   <path id="arrow"
     d="M 11.500037,31.436501 C 11.940474,20.09759 22.043105,11.32322 32.158766,21.979434 L 37.068811,17.246167 C 37.068811,17.246167 37.088388,32 37.088388,32 L 22.160133,31.978069 C 22.160133,31.978069 26.997745,27.140456 26.997745,27.140456 C 18.528582,18.264221 13.291696,25.230495 11.500037,31.436501 z"
     style="fill:#404040;"/>
  </a>
 </g>
</svg>

<style type='text/css'>
<![CDATA[
[data-mouse-over-selected='false'] { opacity: 0.7; }
[data-mouse-over-selected='true']  { opacity: 1.0; }
]]>
</style>
<script type="application/ecmascript"><![CDATA[
document.addEventListener('DOMContentLoaded', (event) => {
  highlightEdges();
  highlightAdjacentNodes();
});
]]></script>
</svg>
