<?xml version="1.0" encoding="UTF-8" standalone="no"?>
<!DOCTYPE svg PUBLIC "-//W3C//DTD SVG 1.1//EN"
 "http://www.w3.org/Graphics/SVG/1.1/DTD/svg11.dtd">
<!-- Generated by graphviz version 10.0.1 (20240210.2158)
 -->
<!-- Title: ml::model::CDynamicStringIdRegistry::id Pages: 1 -->
<svg width="689pt" height="155pt"
 viewBox="0.00 0.00 689.25 154.50" xmlns="http://www.w3.org/2000/svg" xmlns:xlink="http://www.w3.org/1999/xlink">
<g id="graph0" class="graph" transform="scale(1 1) rotate(0) translate(4 150.5)">
<title>ml::model::CDynamicStringIdRegistry::id</title>
<!-- Node1 -->
<g id="Node000001" class="node">
<title>Node1</title>
<g id="a_Node000001"><a xlink:title=" ">
<polygon fill="#999999" stroke="#666666" points="136.75,-146.5 0,-146.5 0,-116 136.75,-116 136.75,-146.5"/>
<text text-anchor="start" x="8" y="-133" font-family="Helvetica,sans-Serif" font-size="10.00">ml::model::CDynamicString</text>
<text text-anchor="middle" x="68.38" y="-121.75" font-family="Helvetica,sans-Serif" font-size="10.00">IdRegistry::id</text>
</a>
</g>
</g>
<!-- Node2 -->
<g id="Node000002" class="node">
<title>Node2</title>
<g id="a_Node000002"><a xlink:href="../../d3/d3b/classml_1_1model_1_1_c_dynamic_string_id_registry.html#a81a1671a3a7bb10d96da0cb54144a3c4" target="_top" xlink:title=" ">
<polygon fill="white" stroke="#666666" points="323.38,-146.5 186.62,-146.5 186.62,-116 323.38,-116 323.38,-146.5"/>
<text text-anchor="start" x="194.62" y="-133" font-family="Helvetica,sans-Serif" font-size="10.00">ml::model::CDynamicString</text>
<text text-anchor="middle" x="255" y="-121.75" font-family="Helvetica,sans-Serif" font-size="10.00">IdRegistry::name</text>
</a>
</g>
</g>
<!-- Node1&#45;&gt;Node2 -->
<g id="edge1_Node000001_Node000002" class="edge">
<title>Node1&#45;&gt;Node2</title>
<g id="a_edge1_Node000001_Node000002"><a xlink:title=" ">
<path fill="none" stroke="#63b8ff" d="M137.07,-124.72C149.37,-124.5 162.29,-124.44 174.87,-124.56"/>
<polygon fill="#63b8ff" stroke="#63b8ff" points="174.75,-128.06 184.8,-124.7 174.84,-121.06 174.75,-128.06"/>
</a>
</g>
</g>
<!-- Node3 -->
<g id="Node000003" class="node">
<title>Node3</title>
<g id="a_Node000003"><a xlink:href="../../dd/d75/classml_1_1core_1_1_c_compressed_dictionary.html#ad9fd3a9d86ddfb73b3395df3227b851a" target="_top" xlink:title="Translate word to a dictionary word.">
<polygon fill="white" stroke="#666666" points="337.25,-79.5 172.75,-79.5 172.75,-49 337.25,-49 337.25,-79.5"/>
<text text-anchor="start" x="180.75" y="-66" font-family="Helvetica,sans-Serif" font-size="10.00">ml::core::CCompressedDictionary</text>
<text text-anchor="middle" x="255" y="-54.75" font-family="Helvetica,sans-Serif" font-size="10.00">::word</text>
</a>
</g>
</g>
<!-- Node1&#45;&gt;Node3 -->
<g id="edge3_Node000001_Node000003" class="edge">
<title>Node1&#45;&gt;Node3</title>
<g id="a_edge3_Node000001_Node000003"><a xlink:title=" ">
<path fill="none" stroke="#63b8ff" d="M112.66,-115.54C138.72,-106.08 172.13,-93.96 199.93,-83.87"/>
<polygon fill="#63b8ff" stroke="#63b8ff" points="201.04,-87.19 209.24,-80.49 198.65,-80.61 201.04,-87.19"/>
</a>
</g>
</g>
<!-- Node2&#45;&gt;Node1 -->
<g id="edge2_Node000002_Node000001" class="edge">
<title>Node2&#45;&gt;Node1</title>
<g id="a_edge2_Node000002_Node000001"><a xlink:title=" ">
<path fill="none" stroke="#63b8ff" d="M186.31,-137.78C174.02,-138 161.1,-138.06 148.51,-137.94"/>
<polygon fill="#63b8ff" stroke="#63b8ff" points="148.63,-134.44 138.59,-137.8 148.54,-141.44 148.63,-134.44"/>
</a>
</g>
</g>
<!-- Node3&#45;&gt;Node3 -->
<g id="edge8_Node000003_Node000003" class="edge">
<title>Node3&#45;&gt;Node3</title>
<g id="a_edge8_Node000003_Node000003"><a xlink:title=" ">
<path fill="none" stroke="#63b8ff" d="M221.93,-79.99C215.18,-89.06 226.2,-97.5 255,-97.5 270.75,-97.5 281.18,-94.97 286.3,-91.2"/>
<polygon fill="#63b8ff" stroke="#63b8ff" points="289.73,-91.9 287.83,-81.48 282.82,-90.81 289.73,-91.9"/>
</a>
</g>
</g>
<!-- Node4 -->
<g id="Node000004" class="node">
<title>Node4</title>
<g id="a_Node000004"><a xlink:href="../../db/d19/classml_1_1core_1_1_c_compressed_dictionary_1_1_c_translator.html#ade14a464041834a501408e4fd90d5540" target="_top" xlink:title=" ">
<polygon fill="white" stroke="#666666" points="537.75,-128.5 373.25,-128.5 373.25,-98 537.75,-98 537.75,-128.5"/>
<text text-anchor="start" x="381.25" y="-115" font-family="Helvetica,sans-Serif" font-size="10.00">ml::core::CCompressedDictionary</text>
<text text-anchor="middle" x="455.5" y="-103.75" font-family="Helvetica,sans-Serif" font-size="10.00">::CTranslator::add</text>
</a>
</g>
</g>
<!-- Node3&#45;&gt;Node4 -->
<g id="edge4_Node000003_Node000004" class="edge">
<title>Node3&#45;&gt;Node4</title>
<g id="a_edge4_Node000003_Node000004"><a xlink:title=" ">
<path fill="none" stroke="#63b8ff" d="M319.63,-79.96C338.77,-84.68 359.95,-89.91 379.74,-94.8"/>
<polygon fill="#63b8ff" stroke="#63b8ff" points="378.88,-98.19 389.42,-97.19 380.55,-91.39 378.88,-98.19"/>
</a>
</g>
</g>
<!-- Node6 -->
<g id="Node000006" class="node">
<title>Node6</title>
<g id="a_Node000006"><a xlink:href="../../dd/d75/classml_1_1core_1_1_c_compressed_dictionary.html#a13928a12bd86baccea13712035961802" target="_top" xlink:title="Get a translator for the dictionary.">
<polygon fill="white" stroke="#666666" points="537.75,-79.5 373.25,-79.5 373.25,-49 537.75,-49 537.75,-79.5"/>
<text text-anchor="start" x="381.25" y="-66" font-family="Helvetica,sans-Serif" font-size="10.00">ml::core::CCompressedDictionary</text>
<text text-anchor="middle" x="455.5" y="-54.75" font-family="Helvetica,sans-Serif" font-size="10.00">::translator</text>
</a>
</g>
</g>
<!-- Node3&#45;&gt;Node6 -->
<g id="edge6_Node000003_Node000006" class="edge">
<title>Node3&#45;&gt;Node6</title>
<g id="a_edge6_Node000003_Node000006"><a xlink:title=" ">
<path fill="none" stroke="#63b8ff" d="M337.6,-64.25C345.52,-64.25 353.6,-64.25 361.62,-64.25"/>
<polygon fill="#63b8ff" stroke="#63b8ff" points="361.39,-67.75 371.39,-64.25 361.39,-60.75 361.39,-67.75"/>
</a>
</g>
</g>
<!-- Node7 -->
<g id="Node000007" class="node">
<title>Node7</title>
<g id="a_Node000007"><a xlink:href="../../db/d19/classml_1_1core_1_1_c_compressed_dictionary_1_1_c_translator.html#ac2086c554c00278219bf073d2a5736c2" target="_top" xlink:title=" ">
<polygon fill="white" stroke="#666666" points="537.75,-30.5 373.25,-30.5 373.25,0 537.75,0 537.75,-30.5"/>
<text text-anchor="start" x="381.25" y="-17" font-family="Helvetica,sans-Serif" font-size="10.00">ml::core::CCompressedDictionary</text>
<text text-anchor="middle" x="455.5" y="-5.75" font-family="Helvetica,sans-Serif" font-size="10.00">::CTranslator::word</text>
</a>
</g>
</g>
<!-- Node3&#45;&gt;Node7 -->
<g id="edge7_Node000003_Node000007" class="edge">
<title>Node3&#45;&gt;Node7</title>
<g id="a_edge7_Node000003_Node000007"><a xlink:title=" ">
<path fill="none" stroke="#63b8ff" d="M319.63,-48.54C338.77,-43.82 359.95,-38.59 379.74,-33.7"/>
<polygon fill="#63b8ff" stroke="#63b8ff" points="380.55,-37.11 389.42,-31.31 378.88,-30.31 380.55,-37.11"/>
</a>
</g>
</g>
<!-- Node5 -->
<g id="Node000005" class="node">
<title>Node5</title>
<g id="a_Node000005"><a xlink:href="../../d1/dbe/classml_1_1core_1_1_c_hashing.html#ade1c3a08b72697f0009fa91d14daa719" target="_top" xlink:title=" ">
<polygon fill="white" stroke="#666666" points="681.25,-128.5 573.75,-128.5 573.75,-98 681.25,-98 681.25,-128.5"/>
<text text-anchor="start" x="581.75" y="-115" font-family="Helvetica,sans-Serif" font-size="10.00">ml::core::CHashing</text>
<text text-anchor="middle" x="627.5" y="-103.75" font-family="Helvetica,sans-Serif" font-size="10.00">::safeMurmurHash64</text>
</a>
</g>
</g>
<!-- Node4&#45;&gt;Node5 -->
<g id="edge5_Node000004_Node000005" class="edge">
<title>Node4&#45;&gt;Node5</title>
<g id="a_edge5_Node000004_Node000005"><a xlink:title=" ">
<path fill="none" stroke="#63b8ff" d="M538.01,-113.25C546.14,-113.25 554.32,-113.25 562.23,-113.25"/>
<polygon fill="#63b8ff" stroke="#63b8ff" points="562.1,-116.75 572.1,-113.25 562.1,-109.75 562.1,-116.75"/>
</a>
</g>
</g>
</g>
</svg>
