<?xml version="1.0" encoding="UTF-8" standalone="no"?>
<!DOCTYPE svg PUBLIC "-//W3C//DTD SVG 1.1//EN"
 "http://www.w3.org/Graphics/SVG/1.1/DTD/svg11.dtd">
<!-- Generated by graphviz version 10.0.1 (20240210.2158)
 -->
<!-- Title: ml::api::COneHotEncoding::hotMap Pages: 1 -->
<svg width="341pt" height="76pt"
 viewBox="0.00 0.00 340.75 75.88" xmlns="http://www.w3.org/2000/svg" xmlns:xlink="http://www.w3.org/1999/xlink">
<g id="graph0" class="graph" transform="scale(1 1) rotate(0) translate(4 71.88)">
<title>ml::api::COneHotEncoding::hotMap</title>
<!-- Node1 -->
<g id="Node000001" class="node">
<title>Node1</title>
<g id="a_Node000001"><a xlink:title="Map from the category names of the original field to the new field names.">
<polygon fill="#999999" stroke="#666666" points="332.75,-45.88 199.75,-45.88 199.75,-15.37 332.75,-15.37 332.75,-45.88"/>
<text text-anchor="start" x="207.75" y="-32.38" font-family="Helvetica,sans-Serif" font-size="10.00">ml::api::COneHotEncoding</text>
<text text-anchor="middle" x="266.25" y="-21.12" font-family="Helvetica,sans-Serif" font-size="10.00">::hotMap</text>
</a>
</g>
</g>
<!-- Node2 -->
<g id="Node000002" class="node">
<title>Node2</title>
<g id="a_Node000002"><a xlink:href="../../dd/d10/classml_1_1api_1_1_c_one_hot_encoding_1_1_c_size_info.html#a50adc1000bfd1a0f7b7fd75c68039925" target="_top" xlink:title=" ">
<polygon fill="white" stroke="#666666" points="163.75,-67.88 0,-67.88 0,-37.38 163.75,-37.38 163.75,-67.88"/>
<text text-anchor="start" x="8" y="-54.38" font-family="Helvetica,sans-Serif" font-size="10.00">ml::api::COneHotEncoding</text>
<text text-anchor="middle" x="81.88" y="-43.12" font-family="Helvetica,sans-Serif" font-size="10.00">::CSizeInfo::addToJsonDocument</text>
</a>
</g>
</g>
<!-- Node1&#45;&gt;Node2 -->
<g id="edge1_Node000001_Node000002" class="edge">
<title>Node1&#45;&gt;Node2</title>
<g id="a_edge1_Node000001_Node000002"><a xlink:title=" ">
<path fill="none" stroke="#63b8ff" d="M188,-39.94C180.13,-40.89 172.11,-41.86 164.2,-42.82"/>
<polygon fill="#63b8ff" stroke="#63b8ff" points="188.4,-43.42 197.91,-38.75 187.56,-36.47 188.4,-43.42"/>
</a>
</g>
</g>
<!-- Node3 -->
<g id="Node000003" class="node">
<title>Node3</title>
<g id="a_Node000003"><a xlink:href="../../d8/dc2/_c_boosted_tree_inference_model_builder_test_8cc.html#a47455df0a75da44940391da922696eaf" target="_top" xlink:title=" ">
<polygon fill="white" stroke="#666666" points="155.5,-19.25 8.25,-19.25 8.25,0 155.5,0 155.5,-19.25"/>
<text text-anchor="middle" x="81.88" y="-5.75" font-family="Helvetica,sans-Serif" font-size="10.00">BOOST_AUTO_TEST_CASE</text>
</a>
</g>
</g>
<!-- Node1&#45;&gt;Node3 -->
<g id="edge2_Node000001_Node000003" class="edge">
<title>Node1&#45;&gt;Node3</title>
<g id="a_edge2_Node000001_Node000003"><a xlink:title=" ">
<path fill="none" stroke="#63b8ff" d="M188.29,-21.76C177.5,-20.52 166.44,-19.25 155.72,-18.01"/>
<polygon fill="#63b8ff" stroke="#63b8ff" points="187.57,-25.2 197.9,-22.87 188.37,-18.25 187.57,-25.2"/>
</a>
</g>
</g>
</g>
</svg>
