<?xml version="1.0" encoding="UTF-8" standalone="no"?>
<!DOCTYPE svg PUBLIC "-//W3C//DTD SVG 1.1//EN"
 "http://www.w3.org/Graphics/SVG/1.1/DTD/svg11.dtd">
<!-- Generated by graphviz version 10.0.1 (20240210.2158)
 -->
<!-- Title: ml::core::CTimezone::setTimezone Pages: 1 -->
<svg width="259pt" height="106pt"
 viewBox="0.00 0.00 259.00 105.50" xmlns="http://www.w3.org/2000/svg" xmlns:xlink="http://www.w3.org/1999/xlink">
<g id="graph0" class="graph" transform="scale(1 1) rotate(0) translate(4 101.5)">
<title>ml::core::CTimezone::setTimezone</title>
<!-- Node1 -->
<g id="Node000001" class="node">
<title>Node1</title>
<g id="a_Node000001"><a xlink:title="Convenience wrapper around the setter for timezone name.">
<polygon fill="#999999" stroke="#666666" points="107.5,-54.5 0,-54.5 0,-24 107.5,-24 107.5,-54.5"/>
<text text-anchor="start" x="8" y="-41" font-family="Helvetica,sans-Serif" font-size="10.00">ml::core::CTimezone</text>
<text text-anchor="middle" x="53.75" y="-29.75" font-family="Helvetica,sans-Serif" font-size="10.00">::setTimezone</text>
</a>
</g>
</g>
<!-- Node2 -->
<g id="Node000002" class="node">
<title>Node2</title>
<g id="a_Node000002"><a xlink:href="../../d3/dbc/classml_1_1core_1_1_c_timezone.html#a2902c3156d206af22cc5a10ada54cbe9" target="_top" xlink:title="Get the singleton instance.">
<polygon fill="white" stroke="#666666" points="251,-79.5 143.5,-79.5 143.5,-49 251,-49 251,-79.5"/>
<text text-anchor="start" x="151.5" y="-66" font-family="Helvetica,sans-Serif" font-size="10.00">ml::core::CTimezone</text>
<text text-anchor="middle" x="197.25" y="-54.75" font-family="Helvetica,sans-Serif" font-size="10.00">::instance</text>
</a>
</g>
</g>
<!-- Node1&#45;&gt;Node2 -->
<g id="edge1_Node000001_Node000002" class="edge">
<title>Node1&#45;&gt;Node2</title>
<g id="a_edge1_Node000001_Node000002"><a xlink:title=" ">
<path fill="none" stroke="#63b8ff" d="M107.84,-48.63C115.73,-50.02 123.93,-51.47 132.02,-52.9"/>
<polygon fill="#63b8ff" stroke="#63b8ff" points="131.38,-56.34 141.84,-54.64 132.6,-49.45 131.38,-56.34"/>
</a>
</g>
</g>
<!-- Node3 -->
<g id="Node000003" class="node">
<title>Node3</title>
<g id="a_Node000003"><a xlink:href="../../d3/dbc/classml_1_1core_1_1_c_timezone.html#a9c7f8f529afaf758d76c8888c1391fad" target="_top" xlink:title=" ">
<polygon fill="white" stroke="#666666" points="251,-30.5 143.5,-30.5 143.5,0 251,0 251,-30.5"/>
<text text-anchor="start" x="151.5" y="-17" font-family="Helvetica,sans-Serif" font-size="10.00">ml::core::CTimezone</text>
<text text-anchor="middle" x="197.25" y="-5.75" font-family="Helvetica,sans-Serif" font-size="10.00">::timezoneName</text>
</a>
</g>
</g>
<!-- Node1&#45;&gt;Node3 -->
<g id="edge3_Node000001_Node000003" class="edge">
<title>Node1&#45;&gt;Node3</title>
<g id="a_edge3_Node000001_Node000003"><a xlink:title=" ">
<path fill="none" stroke="#63b8ff" d="M107.84,-30.25C115.73,-28.91 123.93,-27.52 132.02,-26.14"/>
<polygon fill="#63b8ff" stroke="#63b8ff" points="132.56,-29.6 141.84,-24.48 131.39,-22.7 132.56,-29.6"/>
</a>
</g>
</g>
<!-- Node2&#45;&gt;Node2 -->
<g id="edge2_Node000002_Node000002" class="edge">
<title>Node2&#45;&gt;Node2</title>
<g id="a_edge2_Node000002_Node000002"><a xlink:title=" ">
<path fill="none" stroke="#63b8ff" d="M171.82,-79.99C166.63,-89.06 175.11,-97.5 197.25,-97.5 209.36,-97.5 217.38,-94.97 221.32,-91.2"/>
<polygon fill="#63b8ff" stroke="#63b8ff" points="224.76,-91.84 222.5,-81.49 217.81,-90.99 224.76,-91.84"/>
</a>
</g>
</g>
</g>
</svg>
