<?xml version="1.0" encoding="UTF-8" standalone="no"?>
<!DOCTYPE svg PUBLIC "-//W3C//DTD SVG 1.1//EN"
 "http://www.w3.org/Graphics/SVG/1.1/DTD/svg11.dtd">
<!-- Generated by graphviz version 10.0.1 (20240210.2158)
 -->
<!-- Title: ml::api::CDetectionRulesJsonParser::hasStringMember Pages: 1 -->
<svg width="732pt" height="131pt"
 viewBox="0.00 0.00 732.00 130.50" xmlns="http://www.w3.org/2000/svg" xmlns:xlink="http://www.w3.org/1999/xlink">
<g id="graph0" class="graph" transform="scale(1 1) rotate(0) translate(4 126.5)">
<title>ml::api::CDetectionRulesJsonParser::hasStringMember</title>
<!-- Node1 -->
<g id="Node000001" class="node">
<title>Node1</title>
<g id="a_Node000001"><a xlink:title=" ">
<polygon fill="#999999" stroke="#666666" points="724,-73.5 576,-73.5 576,-43 724,-43 724,-73.5"/>
<text text-anchor="start" x="584" y="-60" font-family="Helvetica,sans-Serif" font-size="10.00">ml::api::CDetectionRules</text>
<text text-anchor="middle" x="650" y="-48.75" font-family="Helvetica,sans-Serif" font-size="10.00">JsonParser::hasStringMember</text>
</a>
</g>
</g>
<!-- Node2 -->
<g id="Node000002" class="node">
<title>Node2</title>
<g id="a_Node000002"><a xlink:href="../../d3/d1e/classml_1_1api_1_1_c_detection_rules_json_parser.html#a38aa87bb5a858cc60f48294d5f812dd3" target="_top" xlink:title=" ">
<polygon fill="white" stroke="#666666" points="540,-122.5 360.5,-122.5 360.5,-92 540,-92 540,-122.5"/>
<text text-anchor="start" x="368.5" y="-109" font-family="Helvetica,sans-Serif" font-size="10.00">ml::api::CDetectionRules</text>
<text text-anchor="middle" x="450.25" y="-97.75" font-family="Helvetica,sans-Serif" font-size="10.00">JsonParser::parseConditionAppliesTo</text>
</a>
</g>
</g>
<!-- Node1&#45;&gt;Node2 -->
<g id="edge1_Node000001_Node000002" class="edge">
<title>Node1&#45;&gt;Node2</title>
<g id="a_edge1_Node000001_Node000002"><a xlink:title=" ">
<path fill="none" stroke="#63b8ff" d="M574.51,-76.71C554.79,-81.6 533.68,-86.82 514.62,-91.55"/>
<polygon fill="#63b8ff" stroke="#63b8ff" points="575.28,-80.12 584.15,-74.32 573.6,-73.33 575.28,-80.12"/>
</a>
</g>
</g>
<!-- Node5 -->
<g id="Node000005" class="node">
<title>Node5</title>
<g id="a_Node000005"><a xlink:href="../../d3/d1e/classml_1_1api_1_1_c_detection_rules_json_parser.html#aa2d16a9769f2e5b6abaef61866c9f72e" target="_top" xlink:title=" ">
<polygon fill="white" stroke="#666666" points="537.38,-73.5 363.12,-73.5 363.12,-43 537.38,-43 537.38,-73.5"/>
<text text-anchor="start" x="371.12" y="-60" font-family="Helvetica,sans-Serif" font-size="10.00">ml::api::CDetectionRules</text>
<text text-anchor="middle" x="450.25" y="-48.75" font-family="Helvetica,sans-Serif" font-size="10.00">JsonParser::parseConditionOperator</text>
</a>
</g>
</g>
<!-- Node1&#45;&gt;Node5 -->
<g id="edge4_Node000001_Node000005" class="edge">
<title>Node1&#45;&gt;Node5</title>
<g id="a_edge4_Node000001_Node000005"><a xlink:title=" ">
<path fill="none" stroke="#63b8ff" d="M564.26,-58.25C555.51,-58.25 546.62,-58.25 537.85,-58.25"/>
<polygon fill="#63b8ff" stroke="#63b8ff" points="564.13,-61.75 574.13,-58.25 564.13,-54.75 564.13,-61.75"/>
</a>
</g>
</g>
<!-- Node6 -->
<g id="Node000006" class="node">
<title>Node6</title>
<g id="a_Node000006"><a xlink:href="../../d3/d1e/classml_1_1api_1_1_c_detection_rules_json_parser.html#ab78ec78c6c5c42dc5d69986bbde2f1ae" target="_top" xlink:title=" ">
<polygon fill="white" stroke="#666666" points="315.12,-30.5 171.62,-30.5 171.62,0 315.12,0 315.12,-30.5"/>
<text text-anchor="start" x="179.62" y="-17" font-family="Helvetica,sans-Serif" font-size="10.00">ml::api::CDetectionRules</text>
<text text-anchor="middle" x="243.38" y="-5.75" font-family="Helvetica,sans-Serif" font-size="10.00">JsonParser::parseRuleScope</text>
</a>
</g>
</g>
<!-- Node1&#45;&gt;Node6 -->
<g id="edge6_Node000001_Node000006" class="edge">
<title>Node1&#45;&gt;Node6</title>
<g id="a_edge6_Node000001_Node000006"><a xlink:title=" ">
<path fill="none" stroke="#63b8ff" d="M574.07,-40.18C562.71,-37.9 551.08,-35.82 540,-34.25 463.74,-23.47 375.54,-18.8 315.47,-16.78"/>
<polygon fill="#63b8ff" stroke="#63b8ff" points="573.33,-43.6 583.84,-42.21 574.76,-36.75 573.33,-43.6"/>
</a>
</g>
</g>
<!-- Node3 -->
<g id="Node000003" class="node">
<title>Node3</title>
<g id="a_Node000003"><a xlink:href="../../d3/d1e/classml_1_1api_1_1_c_detection_rules_json_parser.html#a4db9fb39b792cca6015e3530b3b94067" target="_top" xlink:title=" ">
<polygon fill="white" stroke="#666666" points="324.5,-79.5 162.25,-79.5 162.25,-49 324.5,-49 324.5,-79.5"/>
<text text-anchor="start" x="170.25" y="-66" font-family="Helvetica,sans-Serif" font-size="10.00">ml::api::CDetectionRules</text>
<text text-anchor="middle" x="243.38" y="-54.75" font-family="Helvetica,sans-Serif" font-size="10.00">JsonParser::parseRuleConditions</text>
</a>
</g>
</g>
<!-- Node2&#45;&gt;Node3 -->
<g id="edge2_Node000002_Node000003" class="edge">
<title>Node2&#45;&gt;Node3</title>
<g id="a_edge2_Node000002_Node000003"><a xlink:title=" ">
<path fill="none" stroke="#63b8ff" d="M363.35,-89.22C348.73,-86.15 333.66,-82.99 319.35,-79.99"/>
<polygon fill="#63b8ff" stroke="#63b8ff" points="362.43,-92.6 372.93,-91.23 363.87,-85.75 362.43,-92.6"/>
</a>
</g>
</g>
<!-- Node4 -->
<g id="Node000004" class="node">
<title>Node4</title>
<g id="a_Node000004"><a xlink:href="../../d3/d1e/classml_1_1api_1_1_c_detection_rules_json_parser.html#aeda936c0be5b391da129009db4c67891" target="_top" xlink:title=" ">
<polygon fill="white" stroke="#666666" points="126.25,-54.5 0,-54.5 0,-24 126.25,-24 126.25,-54.5"/>
<text text-anchor="start" x="8" y="-41" font-family="Helvetica,sans-Serif" font-size="10.00">ml::api::CDetectionRules</text>
<text text-anchor="middle" x="63.12" y="-29.75" font-family="Helvetica,sans-Serif" font-size="10.00">JsonParser::parseRules</text>
</a>
</g>
</g>
<!-- Node3&#45;&gt;Node4 -->
<g id="edge3_Node000003_Node000004" class="edge">
<title>Node3&#45;&gt;Node4</title>
<g id="a_edge3_Node000003_Node000004"><a xlink:title=" ">
<path fill="none" stroke="#63b8ff" d="M150.47,-51.36C142.41,-50.23 134.39,-49.1 126.66,-48.02"/>
<polygon fill="#63b8ff" stroke="#63b8ff" points="149.97,-54.82 160.36,-52.75 150.94,-47.89 149.97,-54.82"/>
</a>
</g>
</g>
<!-- Node5&#45;&gt;Node3 -->
<g id="edge5_Node000005_Node000003" class="edge">
<title>Node5&#45;&gt;Node3</title>
<g id="a_edge5_Node000005_Node000003"><a xlink:title=" ">
<path fill="none" stroke="#63b8ff" d="M351.41,-61.12C342.49,-61.38 333.53,-61.64 324.79,-61.9"/>
<polygon fill="#63b8ff" stroke="#63b8ff" points="351.26,-64.62 361.15,-60.83 351.05,-57.62 351.26,-64.62"/>
</a>
</g>
</g>
<!-- Node6&#45;&gt;Node4 -->
<g id="edge7_Node000006_Node000004" class="edge">
<title>Node6&#45;&gt;Node4</title>
<g id="a_edge7_Node000006_Node000004"><a xlink:title=" ">
<path fill="none" stroke="#63b8ff" d="M160,-26.34C148.77,-27.85 137.4,-29.38 126.6,-30.84"/>
<polygon fill="#63b8ff" stroke="#63b8ff" points="160.21,-29.84 169.66,-25.04 159.28,-22.91 160.21,-29.84"/>
</a>
</g>
</g>
</g>
</svg>
