<?xml version="1.0" encoding="UTF-8" standalone="no"?>
<!DOCTYPE svg PUBLIC "-//W3C//DTD SVG 1.1//EN"
 "http://www.w3.org/Graphics/SVG/1.1/DTD/svg11.dtd">
<!-- Generated by graphviz version 10.0.1 (20240210.2158)
 -->
<!-- Title: ml::maths::analytics::CBoostedTreeImpl::recordState Pages: 1 -->
<svg width="562pt" height="88pt"
 viewBox="0.00 0.00 561.50 87.50" xmlns="http://www.w3.org/2000/svg" xmlns:xlink="http://www.w3.org/1999/xlink">
<g id="graph0" class="graph" transform="scale(1 1) rotate(0) translate(4 83.5)">
<title>ml::maths::analytics::CBoostedTreeImpl::recordState</title>
<!-- Node1 -->
<g id="Node000001" class="node">
<title>Node1</title>
<g id="a_Node000001"><a xlink:title="Record the training state using the recordTrainState callback function.">
<polygon fill="#999999" stroke="#666666" points="160,-54.5 0,-54.5 0,-24 160,-24 160,-54.5"/>
<text text-anchor="start" x="8" y="-41" font-family="Helvetica,sans-Serif" font-size="10.00">ml::maths::analytics</text>
<text text-anchor="middle" x="80" y="-29.75" font-family="Helvetica,sans-Serif" font-size="10.00">::CBoostedTreeImpl::recordState</text>
</a>
</g>
</g>
<!-- Node2 -->
<g id="Node000002" class="node">
<title>Node2</title>
<g id="a_Node000002"><a xlink:href="../../dd/d66/classml_1_1maths_1_1analytics_1_1_c_boosted_tree_impl.html#a3529a70b3b8a47ebf20ea3beb69e0e15" target="_top" xlink:title="Persist by passing information to inserter.">
<polygon fill="white" stroke="#666666" points="365.75,-60.12 196,-60.12 196,-18.38 365.75,-18.38 365.75,-60.12"/>
<text text-anchor="start" x="204" y="-46.62" font-family="Helvetica,sans-Serif" font-size="10.00">ml::maths::analytics</text>
<text text-anchor="start" x="204" y="-35.38" font-family="Helvetica,sans-Serif" font-size="10.00">::CBoostedTreeImpl::acceptPersist</text>
<text text-anchor="middle" x="280.88" y="-24.12" font-family="Helvetica,sans-Serif" font-size="10.00">Inserter</text>
</a>
</g>
</g>
<!-- Node1&#45;&gt;Node2 -->
<g id="edge1_Node000001_Node000002" class="edge">
<title>Node1&#45;&gt;Node2</title>
<g id="a_edge1_Node000001_Node000002"><a xlink:title=" ">
<path fill="none" stroke="#63b8ff" d="M160.46,-39.25C168.33,-39.25 176.37,-39.25 184.38,-39.25"/>
<polygon fill="#63b8ff" stroke="#63b8ff" points="184.14,-42.75 194.14,-39.25 184.14,-35.75 184.14,-42.75"/>
</a>
</g>
</g>
<!-- Node3 -->
<g id="Node000003" class="node">
<title>Node3</title>
<g id="a_Node000003"><a xlink:href="../../d6/d96/classml_1_1core_1_1_c_state_persist_inserter.html#a599589fbf44e55664572fd485a2ac497" target="_top" xlink:title=" ">
<polygon fill="white" stroke="#666666" points="553.5,-79.5 401.75,-79.5 401.75,-49 553.5,-49 553.5,-79.5"/>
<text text-anchor="start" x="409.75" y="-66" font-family="Helvetica,sans-Serif" font-size="10.00">ml::core::CStatePersistInserter</text>
<text text-anchor="middle" x="477.62" y="-54.75" font-family="Helvetica,sans-Serif" font-size="10.00">::insertLevel</text>
</a>
</g>
</g>
<!-- Node2&#45;&gt;Node3 -->
<g id="edge2_Node000002_Node000003" class="edge">
<title>Node2&#45;&gt;Node3</title>
<g id="a_edge2_Node000002_Node000003"><a xlink:title=" ">
<path fill="none" stroke="#63b8ff" d="M366.16,-50.07C374.13,-51.09 382.21,-52.13 390.2,-53.16"/>
<polygon fill="#63b8ff" stroke="#63b8ff" points="389.53,-56.6 399.9,-54.4 390.42,-49.66 389.53,-56.6"/>
</a>
</g>
</g>
<!-- Node4 -->
<g id="Node000004" class="node">
<title>Node4</title>
<g id="a_Node000004"><a xlink:href="../../d6/d96/classml_1_1core_1_1_c_state_persist_inserter.html#a21319d2ecfcb0ab1aceecf2a5a463d3a" target="_top" xlink:title="Store a name/value.">
<polygon fill="white" stroke="#666666" points="553.5,-30.5 401.75,-30.5 401.75,0 553.5,0 553.5,-30.5"/>
<text text-anchor="start" x="409.75" y="-17" font-family="Helvetica,sans-Serif" font-size="10.00">ml::core::CStatePersistInserter</text>
<text text-anchor="middle" x="477.62" y="-5.75" font-family="Helvetica,sans-Serif" font-size="10.00">::insertValue</text>
</a>
</g>
</g>
<!-- Node2&#45;&gt;Node4 -->
<g id="edge3_Node000002_Node000004" class="edge">
<title>Node2&#45;&gt;Node4</title>
<g id="a_edge3_Node000002_Node000004"><a xlink:title=" ">
<path fill="none" stroke="#63b8ff" d="M366.16,-28.86C374.13,-27.88 382.21,-26.88 390.2,-25.9"/>
<polygon fill="#63b8ff" stroke="#63b8ff" points="390.4,-29.4 399.89,-24.71 389.54,-22.46 390.4,-29.4"/>
</a>
</g>
</g>
</g>
</svg>
