<?xml version="1.0" encoding="UTF-8" standalone="no"?>
<!DOCTYPE svg PUBLIC "-//W3C//DTD SVG 1.1//EN"
 "http://www.w3.org/Graphics/SVG/1.1/DTD/svg11.dtd">
<!-- Generated by graphviz version 10.0.1 (20240210.2158)
 -->
<!-- Title: ml::model::CIndividualModel::checksum Pages: 1 -->
<svg width="575pt" height="382pt"
 viewBox="0.00 0.00 575.25 381.60" xmlns="http://www.w3.org/2000/svg" xmlns:xlink="http://www.w3.org/1999/xlink">
<g id="graph0" class="graph" transform="scale(1 1) rotate(0) translate(4 377.6)">
<title>ml::model::CIndividualModel::checksum</title>
<!-- Node1 -->
<g id="Node000001" class="node">
<title>Node1</title>
<g id="a_Node000001"><a xlink:title=" ">
<polygon fill="#999999" stroke="#666666" points="139.75,-219.5 0,-219.5 0,-189 139.75,-189 139.75,-219.5"/>
<text text-anchor="start" x="8" y="-206" font-family="Helvetica,sans-Serif" font-size="10.00">ml::model::CIndividualModel</text>
<text text-anchor="middle" x="69.88" y="-194.75" font-family="Helvetica,sans-Serif" font-size="10.00">::checksum</text>
</a>
</g>
</g>
<!-- Node2 -->
<g id="Node000002" class="node">
<title>Node2</title>
<g id="a_Node000002"><a xlink:href="../../d2/da4/classml_1_1maths_1_1common_1_1_c_checksum.html#aa804e3772700b00633dd3e0a996aa3ad" target="_top" xlink:title="The basic checksum implementation.">
<polygon fill="white" stroke="#666666" points="486,-363.5 370.25,-363.5 370.25,-333 486,-333 486,-363.5"/>
<text text-anchor="start" x="378.25" y="-350" font-family="Helvetica,sans-Serif" font-size="10.00">ml::maths::common::</text>
<text text-anchor="middle" x="428.12" y="-338.75" font-family="Helvetica,sans-Serif" font-size="10.00">CChecksum::calculate</text>
</a>
</g>
</g>
<!-- Node1&#45;&gt;Node2 -->
<g id="edge1_Node000001_Node000002" class="edge">
<title>Node1&#45;&gt;Node2</title>
<g id="a_edge1_Node000001_Node000002"><a xlink:title=" ">
<path fill="none" stroke="#63b8ff" d="M76.27,-219.57C88.34,-251.17 120.84,-322.97 175.75,-351.25 232.35,-380.4 306.07,-375.35 359.02,-365.62"/>
<polygon fill="#63b8ff" stroke="#63b8ff" points="359.35,-369.12 368.5,-363.77 358.02,-362.25 359.35,-369.12"/>
</a>
</g>
</g>
<!-- Node3 -->
<g id="Node000003" class="node">
<title>Node3</title>
<g id="a_Node000003"><a xlink:href="../../da/d88/classml_1_1model_1_1_c_anomaly_detector_model.html#ade34104e77639b03a902f77f981edcea" target="_top" xlink:title=" ">
<polygon fill="white" stroke="#666666" points="323.75,-342.5 175.75,-342.5 175.75,-312 323.75,-312 323.75,-342.5"/>
<text text-anchor="start" x="183.75" y="-329" font-family="Helvetica,sans-Serif" font-size="10.00">ml::model::CAnomalyDetector</text>
<text text-anchor="middle" x="249.75" y="-317.75" font-family="Helvetica,sans-Serif" font-size="10.00">Model::checksum</text>
</a>
</g>
</g>
<!-- Node1&#45;&gt;Node3 -->
<g id="edge2_Node000001_Node000003" class="edge">
<title>Node1&#45;&gt;Node3</title>
<g id="a_edge2_Node000001_Node000003"><a xlink:title=" ">
<path fill="none" stroke="#63b8ff" d="M83.56,-219.64C101.87,-240.96 137.72,-279.42 175.75,-302.25 178.5,-303.9 181.37,-305.46 184.31,-306.93"/>
<polygon fill="#63b8ff" stroke="#63b8ff" points="182.63,-310.01 193.18,-310.97 185.53,-303.64 182.63,-310.01"/>
</a>
</g>
</g>
<!-- Node4 -->
<g id="Node000004" class="node">
<title>Node4</title>
<g id="a_Node000004"><a xlink:href="../../d1/d04/classml_1_1model_1_1_c_individual_model.html#a8a4d425a53ad88459be2732d42f41406" target="_top" xlink:title="Get the person counts in the current bucket.">
<polygon fill="white" stroke="#666666" points="322.25,-293.5 177.25,-293.5 177.25,-263 322.25,-263 322.25,-293.5"/>
<text text-anchor="start" x="185.25" y="-280" font-family="Helvetica,sans-Serif" font-size="10.00">ml::model::CIndividualModel</text>
<text text-anchor="middle" x="249.75" y="-268.75" font-family="Helvetica,sans-Serif" font-size="10.00">::currentBucketPersonCounts</text>
</a>
</g>
</g>
<!-- Node1&#45;&gt;Node4 -->
<g id="edge4_Node000001_Node000004" class="edge">
<title>Node1&#45;&gt;Node4</title>
<g id="a_edge4_Node000001_Node000004"><a xlink:title=" ">
<path fill="none" stroke="#63b8ff" d="M102.15,-219.94C122.8,-230.03 150.59,-243.1 175.75,-253.25 180.35,-255.1 185.14,-256.95 189.98,-258.74"/>
<polygon fill="#63b8ff" stroke="#63b8ff" points="188.56,-261.95 199.15,-262.06 190.94,-255.36 188.56,-261.95"/>
</a>
</g>
</g>
<!-- Node5 -->
<g id="Node000005" class="node">
<title>Node5</title>
<g id="a_Node000005"><a xlink:href="../../d1/d04/classml_1_1model_1_1_c_individual_model.html#a4a4c3b8c1b879528e4356799a5bca3b9" target="_top" xlink:title="Get the start time of the current bucket.">
<polygon fill="white" stroke="#666666" points="319.62,-244.5 179.88,-244.5 179.88,-214 319.62,-214 319.62,-244.5"/>
<text text-anchor="start" x="187.88" y="-231" font-family="Helvetica,sans-Serif" font-size="10.00">ml::model::CIndividualModel</text>
<text text-anchor="middle" x="249.75" y="-219.75" font-family="Helvetica,sans-Serif" font-size="10.00">::currentBucketStartTime</text>
</a>
</g>
</g>
<!-- Node1&#45;&gt;Node5 -->
<g id="edge5_Node000001_Node000005" class="edge">
<title>Node1&#45;&gt;Node5</title>
<g id="a_edge5_Node000001_Node000005"><a xlink:title=" ">
<path fill="none" stroke="#63b8ff" d="M140.16,-213.99C149.38,-215.28 158.9,-216.62 168.29,-217.94"/>
<polygon fill="#63b8ff" stroke="#63b8ff" points="167.77,-221.4 178.16,-219.33 168.74,-214.47 167.77,-221.4"/>
</a>
</g>
</g>
<!-- Node6 -->
<g id="Node000006" class="node">
<title>Node6</title>
<g id="a_Node000006"><a xlink:href="../../da/d88/classml_1_1model_1_1_c_anomaly_detector_model.html#a8156c7269ff8ea6a19dfeef12c5a1bb1" target="_top" xlink:title="Get the time series data gatherer.">
<polygon fill="white" stroke="#666666" points="323.75,-195.5 175.75,-195.5 175.75,-165 323.75,-165 323.75,-195.5"/>
<text text-anchor="start" x="183.75" y="-182" font-family="Helvetica,sans-Serif" font-size="10.00">ml::model::CAnomalyDetector</text>
<text text-anchor="middle" x="249.75" y="-170.75" font-family="Helvetica,sans-Serif" font-size="10.00">Model::dataGatherer</text>
</a>
</g>
</g>
<!-- Node1&#45;&gt;Node6 -->
<g id="edge6_Node000001_Node000006" class="edge">
<title>Node1&#45;&gt;Node6</title>
<g id="a_edge6_Node000001_Node000006"><a xlink:title=" ">
<path fill="none" stroke="#63b8ff" d="M140.16,-194.9C148.05,-193.84 156.15,-192.74 164.21,-191.66"/>
<polygon fill="#63b8ff" stroke="#63b8ff" points="164.6,-195.14 174.05,-190.33 163.67,-188.2 164.6,-195.14"/>
</a>
</g>
</g>
<!-- Node7 -->
<g id="Node000007" class="node">
<title>Node7</title>
<g id="a_Node000007"><a xlink:href="../../d0/d91/classml_1_1model_1_1_c_data_gatherer.html#ad433daea23da24cfde03e0c13ec15e99" target="_top" xlink:title="Check that the person is no longer being modeled.">
<polygon fill="white" stroke="#666666" points="315.12,-146.5 184.38,-146.5 184.38,-116 315.12,-116 315.12,-146.5"/>
<text text-anchor="start" x="192.38" y="-133" font-family="Helvetica,sans-Serif" font-size="10.00">ml::model::CDataGatherer</text>
<text text-anchor="middle" x="249.75" y="-121.75" font-family="Helvetica,sans-Serif" font-size="10.00">::isPersonActive</text>
</a>
</g>
</g>
<!-- Node1&#45;&gt;Node7 -->
<g id="edge7_Node000001_Node000007" class="edge">
<title>Node1&#45;&gt;Node7</title>
<g id="a_edge7_Node000001_Node000007"><a xlink:title=" ">
<path fill="none" stroke="#63b8ff" d="M102.65,-188.71C123.26,-178.88 150.83,-166.19 175.75,-156.25 180.35,-154.41 185.15,-152.59 189.99,-150.8"/>
<polygon fill="#63b8ff" stroke="#63b8ff" points="190.95,-154.18 199.17,-147.5 188.58,-147.59 190.95,-154.18"/>
</a>
</g>
</g>
<!-- Node9 -->
<g id="Node000009" class="node">
<title>Node9</title>
<g id="a_Node000009"><a xlink:href="../../d1/d04/classml_1_1model_1_1_c_individual_model.html#a5f74bd0ea087594ff5a842bcd6950874" target="_top" xlink:title="Get a read only model corresponding to feature of the person pid.">
<polygon fill="white" stroke="#666666" points="319.62,-79.5 179.88,-79.5 179.88,-49 319.62,-49 319.62,-79.5"/>
<text text-anchor="start" x="187.88" y="-66" font-family="Helvetica,sans-Serif" font-size="10.00">ml::model::CIndividualModel</text>
<text text-anchor="middle" x="249.75" y="-54.75" font-family="Helvetica,sans-Serif" font-size="10.00">::model</text>
</a>
</g>
</g>
<!-- Node1&#45;&gt;Node9 -->
<g id="edge9_Node000001_Node000009" class="edge">
<title>Node1&#45;&gt;Node9</title>
<g id="a_edge9_Node000001_Node000009"><a xlink:title=" ">
<path fill="none" stroke="#63b8ff" d="M85.6,-188.69C105.12,-168.56 141.12,-133 175.75,-107.25 186.14,-99.52 198.02,-92.02 209.14,-85.51"/>
<polygon fill="#63b8ff" stroke="#63b8ff" points="210.81,-88.59 217.75,-80.58 207.33,-82.51 210.81,-88.59"/>
</a>
</g>
</g>
<!-- Node10 -->
<g id="Node000010" class="node">
<title>Node10</title>
<g id="a_Node000010"><a xlink:href="../../da/d88/classml_1_1model_1_1_c_anomaly_detector_model.html#a7e062309a949de4c9d61ae904a16c65f" target="_top" xlink:title=" ">
<polygon fill="white" stroke="#666666" points="323.75,-30.5 175.75,-30.5 175.75,0 323.75,0 323.75,-30.5"/>
<text text-anchor="start" x="183.75" y="-17" font-family="Helvetica,sans-Serif" font-size="10.00">ml::model::CAnomalyDetector</text>
<text text-anchor="middle" x="249.75" y="-5.75" font-family="Helvetica,sans-Serif" font-size="10.00">Model::personName</text>
</a>
</g>
</g>
<!-- Node1&#45;&gt;Node10 -->
<g id="edge11_Node000001_Node000010" class="edge">
<title>Node1&#45;&gt;Node10</title>
<g id="a_edge11_Node000001_Node000010"><a xlink:title=" ">
<path fill="none" stroke="#63b8ff" d="M76.68,-188.69C89.51,-156.33 123.4,-81.38 175.75,-40.25 177.45,-38.92 179.22,-37.65 181.06,-36.45"/>
<polygon fill="#63b8ff" stroke="#63b8ff" points="182.38,-39.73 189.33,-31.73 178.91,-33.65 182.38,-39.73"/>
</a>
</g>
</g>
<!-- Node3&#45;&gt;Node2 -->
<g id="edge3_Node000003_Node000002" class="edge">
<title>Node3&#45;&gt;Node2</title>
<g id="a_edge3_Node000003_Node000002"><a xlink:title=" ">
<path fill="none" stroke="#63b8ff" d="M324.02,-335.97C335.52,-337.34 347.36,-338.75 358.75,-340.11"/>
<polygon fill="#63b8ff" stroke="#63b8ff" points="358.1,-343.56 368.44,-341.26 358.93,-336.61 358.1,-343.56"/>
</a>
</g>
</g>
<!-- Node8 -->
<g id="Node000008" class="node">
<title>Node8</title>
<g id="a_Node000008"><a xlink:href="../../d3/d3b/classml_1_1model_1_1_c_dynamic_string_id_registry.html#aadff4dfa8f362cca7a9f31d3eeea29da" target="_top" xlink:title="Check whether an identifier is active.">
<polygon fill="white" stroke="#666666" points="496.5,-146.5 359.75,-146.5 359.75,-116 496.5,-116 496.5,-146.5"/>
<text text-anchor="start" x="367.75" y="-133" font-family="Helvetica,sans-Serif" font-size="10.00">ml::model::CDynamicString</text>
<text text-anchor="middle" x="428.12" y="-121.75" font-family="Helvetica,sans-Serif" font-size="10.00">IdRegistry::isIdActive</text>
</a>
</g>
</g>
<!-- Node7&#45;&gt;Node8 -->
<g id="edge8_Node000007_Node000008" class="edge">
<title>Node7&#45;&gt;Node8</title>
<g id="a_edge8_Node000007_Node000008"><a xlink:title=" ">
<path fill="none" stroke="#63b8ff" d="M315.42,-131.25C326.08,-131.25 337.22,-131.25 348.18,-131.25"/>
<polygon fill="#63b8ff" stroke="#63b8ff" points="347.98,-134.75 357.98,-131.25 347.98,-127.75 347.98,-134.75"/>
</a>
</g>
</g>
<!-- Node9&#45;&gt;Node9 -->
<g id="edge10_Node000009_Node000009" class="edge">
<title>Node9&#45;&gt;Node9</title>
<g id="a_edge10_Node000009_Node000009"><a xlink:title=" ">
<path fill="none" stroke="#63b8ff" d="M218.14,-79.99C211.69,-89.06 222.23,-97.5 249.75,-97.5 264.8,-97.5 274.77,-94.97 279.66,-91.2"/>
<polygon fill="#63b8ff" stroke="#63b8ff" points="283.1,-91.89 281.13,-81.48 276.18,-90.85 283.1,-91.89"/>
</a>
</g>
</g>
<!-- Node11 -->
<g id="Node000011" class="node">
<title>Node11</title>
<g id="a_Node000011"><a xlink:href="../../d1/dfa/classml_1_1core_1_1_c_string_utils.html#a0309dd25326b7d77c70fe5e6949b9e71" target="_top" xlink:title="Convert a type to a string.">
<polygon fill="white" stroke="#666666" points="483.38,-30.5 372.88,-30.5 372.88,0 483.38,0 483.38,-30.5"/>
<text text-anchor="start" x="380.88" y="-17" font-family="Helvetica,sans-Serif" font-size="10.00">ml::core::CStringUtils</text>
<text text-anchor="middle" x="428.12" y="-5.75" font-family="Helvetica,sans-Serif" font-size="10.00">::typeToString</text>
</a>
</g>
</g>
<!-- Node10&#45;&gt;Node11 -->
<g id="edge12_Node000010_Node000011" class="edge">
<title>Node10&#45;&gt;Node11</title>
<g id="a_edge12_Node000010_Node000011"><a xlink:title=" ">
<path fill="none" stroke="#63b8ff" d="M324.02,-15.25C336.28,-15.25 348.94,-15.25 361.01,-15.25"/>
<polygon fill="#63b8ff" stroke="#63b8ff" points="360.86,-18.75 370.86,-15.25 360.86,-11.75 360.86,-18.75"/>
</a>
</g>
</g>
<!-- Node12 -->
<g id="Node000012" class="node">
<title>Node12</title>
<g id="a_Node000012"><a xlink:href="../../d3/d2e/private_8h.html#a1c6de65cc31c36fe2ede0d438531d327" target="_top" xlink:title=" ">
<polygon fill="white" stroke="#666666" points="567.25,-24.88 532.5,-24.88 532.5,-5.62 567.25,-5.62 567.25,-24.88"/>
<text text-anchor="middle" x="549.88" y="-11.38" font-family="Helvetica,sans-Serif" font-size="10.00">type</text>
</a>
</g>
</g>
<!-- Node11&#45;&gt;Node12 -->
<g id="edge13_Node000011_Node000012" class="edge">
<title>Node11&#45;&gt;Node12</title>
<g id="a_edge13_Node000011_Node000012"><a xlink:title=" ">
<path fill="none" stroke="#63b8ff" d="M483.74,-15.25C496.47,-15.25 509.52,-15.25 520.56,-15.25"/>
<polygon fill="#63b8ff" stroke="#63b8ff" points="520.54,-18.75 530.54,-15.25 520.54,-11.75 520.54,-18.75"/>
</a>
</g>
</g>
</g>
</svg>
