<?xml version="1.0" encoding="UTF-8" standalone="no"?>
<!DOCTYPE svg PUBLIC "-//W3C//DTD SVG 1.1//EN"
 "http://www.w3.org/Graphics/SVG/1.1/DTD/svg11.dtd">
<!-- Generated by graphviz version 10.0.1 (20240210.2158)
 -->
<!-- Title: ml::model::CIndividualModel::CIndividualModel Pages: 1 -->
<svg width="329pt" height="106pt"
 viewBox="0.00 0.00 328.75 105.50" xmlns="http://www.w3.org/2000/svg" xmlns:xlink="http://www.w3.org/1999/xlink">
<g id="graph0" class="graph" transform="scale(1 1) rotate(0) translate(4 101.5)">
<title>ml::model::CIndividualModel::CIndividualModel</title>
<!-- Node1 -->
<g id="Node000001" class="node">
<title>Node1</title>
<g id="a_Node000001"><a xlink:title=" ">
<polygon fill="#999999" stroke="#666666" points="139.75,-63.5 0,-63.5 0,-33 139.75,-33 139.75,-63.5"/>
<text text-anchor="start" x="8" y="-50" font-family="Helvetica,sans-Serif" font-size="10.00">ml::model::CIndividualModel</text>
<text text-anchor="middle" x="69.88" y="-38.75" font-family="Helvetica,sans-Serif" font-size="10.00">::CIndividualModel</text>
</a>
</g>
</g>
<!-- Node2 -->
<g id="Node000002" class="node">
<title>Node2</title>
<g id="a_Node000002"><a xlink:href="../../d7/d92/classml_1_1maths_1_1common_1_1_c_model.html#ae28345e4bfb587240bb2c0d1b141526e" target="_top" xlink:title="Create a copy of the state we need to persist passing ownership to the caller.">
<polygon fill="white" stroke="#666666" points="320.75,-97.5 175.75,-97.5 175.75,-67 320.75,-67 320.75,-97.5"/>
<text text-anchor="start" x="183.75" y="-84" font-family="Helvetica,sans-Serif" font-size="10.00">ml::maths::common::</text>
<text text-anchor="middle" x="248.25" y="-72.75" font-family="Helvetica,sans-Serif" font-size="10.00">CModel::cloneForPersistence</text>
</a>
</g>
</g>
<!-- Node1&#45;&gt;Node2 -->
<g id="edge1_Node000001_Node000002" class="edge">
<title>Node1&#45;&gt;Node2</title>
<g id="a_edge1_Node000001_Node000002"><a xlink:title=" ">
<path fill="none" stroke="#63b8ff" d="M140.08,-61.59C147.95,-63.11 156.03,-64.67 164.06,-66.21"/>
<polygon fill="#63b8ff" stroke="#63b8ff" points="163.38,-69.65 173.86,-68.1 164.7,-62.77 163.38,-69.65"/>
</a>
</g>
</g>
<!-- Node3 -->
<g id="Node000003" class="node">
<title>Node3</title>
<g id="a_Node000003"><a xlink:href="../../d1/d04/classml_1_1model_1_1_c_individual_model.html#a5f74bd0ea087594ff5a842bcd6950874" target="_top" xlink:title="Get a read only model corresponding to feature of the person pid.">
<polygon fill="white" stroke="#666666" points="318.12,-30.5 178.38,-30.5 178.38,0 318.12,0 318.12,-30.5"/>
<text text-anchor="start" x="186.38" y="-17" font-family="Helvetica,sans-Serif" font-size="10.00">ml::model::CIndividualModel</text>
<text text-anchor="middle" x="248.25" y="-5.75" font-family="Helvetica,sans-Serif" font-size="10.00">::model</text>
</a>
</g>
</g>
<!-- Node1&#45;&gt;Node3 -->
<g id="edge2_Node000001_Node000003" class="edge">
<title>Node1&#45;&gt;Node3</title>
<g id="a_edge2_Node000001_Node000003"><a xlink:title=" ">
<path fill="none" stroke="#63b8ff" d="M140.08,-35.3C148.83,-33.66 157.85,-31.98 166.76,-30.31"/>
<polygon fill="#63b8ff" stroke="#63b8ff" points="167.28,-33.77 176.47,-28.49 166,-26.89 167.28,-33.77"/>
</a>
</g>
</g>
<!-- Node3&#45;&gt;Node3 -->
<g id="edge3_Node000003_Node000003" class="edge">
<title>Node3&#45;&gt;Node3</title>
<g id="a_edge3_Node000003_Node000003"><a xlink:title=" ">
<path fill="none" stroke="#63b8ff" d="M216.64,-30.99C210.19,-40.06 220.73,-48.5 248.25,-48.5 263.3,-48.5 273.27,-45.97 278.16,-42.2"/>
<polygon fill="#63b8ff" stroke="#63b8ff" points="281.6,-42.89 279.63,-32.48 274.68,-41.85 281.6,-42.89"/>
</a>
</g>
</g>
</g>
</svg>
