<?xml version="1.0" encoding="UTF-8" standalone="no"?>
<!DOCTYPE svg PUBLIC "-//W3C//DTD SVG 1.1//EN"
 "http://www.w3.org/Graphics/SVG/1.1/DTD/svg11.dtd">
<!-- Generated by graphviz version 10.0.1 (20240210.2158)
 -->
<!-- Title: include/api/CDataFrameAnalysisSpecification.h Pages: 1 -->
<svg width="2352pt" height="316pt"
 viewBox="0.00 0.00 2351.50 315.75" xmlns="http://www.w3.org/2000/svg" xmlns:xlink="http://www.w3.org/1999/xlink">
<g id="graph0" class="graph" transform="scale(1 1) rotate(0) translate(4 311.75)">
<title>include/api/CDataFrameAnalysisSpecification.h</title>
<!-- Node1 -->
<g id="Node000001" class="node">
<title>Node1</title>
<g id="a_Node000001"><a xlink:title=" ">
<polygon fill="#999999" stroke="#666666" points="1625.88,-307.75 1466.62,-307.75 1466.62,-277.25 1625.88,-277.25 1625.88,-307.75"/>
<text text-anchor="start" x="1474.62" y="-294.25" font-family="Helvetica,sans-Serif" font-size="10.00">include/api/CDataFrameAnalysis</text>
<text text-anchor="middle" x="1546.25" y="-283" font-family="Helvetica,sans-Serif" font-size="10.00">Specification.h</text>
</a>
</g>
</g>
<!-- Node2 -->
<g id="Node000002" class="node">
<title>Node2</title>
<g id="a_Node000002"><a xlink:href="../../db/d9e/bin_2data__frame__analyzer_2_main_8cc.html" target="_top" xlink:title=" ">
<polygon fill="white" stroke="#666666" points="122.5,-241.25 0,-241.25 0,-210.75 122.5,-210.75 122.5,-241.25"/>
<text text-anchor="start" x="8" y="-227.75" font-family="Helvetica,sans-Serif" font-size="10.00">bin/data_frame_analyzer</text>
<text text-anchor="middle" x="61.25" y="-216.5" font-family="Helvetica,sans-Serif" font-size="10.00">/Main.cc</text>
</a>
</g>
</g>
<!-- Node1&#45;&gt;Node2 -->
<g id="edge1_Node000001_Node000002" class="edge">
<title>Node1&#45;&gt;Node2</title>
<g id="a_edge1_Node000001_Node000002"><a xlink:title=" ">
<path fill="none" stroke="#63b8ff" d="M1455.03,-290.06C1185.1,-285.53 393.17,-270.07 136.25,-241.25 131.9,-240.76 127.43,-240.16 122.94,-239.49"/>
<polygon fill="#63b8ff" stroke="#63b8ff" points="1454.76,-293.56 1464.82,-290.23 1454.88,-286.56 1454.76,-293.56"/>
</a>
</g>
</g>
<!-- Node3 -->
<g id="Node000003" class="node">
<title>Node3</title>
<g id="a_Node000003"><a xlink:href="../../dd/d83/_c_data_frame_train_boosted_tree_runner_8h.html" target="_top" xlink:title=" ">
<polygon fill="white" stroke="#666666" points="1201,-241.25 1057.5,-241.25 1057.5,-210.75 1201,-210.75 1201,-241.25"/>
<text text-anchor="start" x="1065.5" y="-227.75" font-family="Helvetica,sans-Serif" font-size="10.00">include/api/CDataFrameTrain</text>
<text text-anchor="middle" x="1129.25" y="-216.5" font-family="Helvetica,sans-Serif" font-size="10.00">BoostedTreeRunner.h</text>
</a>
</g>
</g>
<!-- Node1&#45;&gt;Node3 -->
<g id="edge2_Node000001_Node000003" class="edge">
<title>Node1&#45;&gt;Node3</title>
<g id="a_edge2_Node000001_Node000003"><a xlink:title=" ">
<path fill="none" stroke="#63b8ff" d="M1455.32,-277.44C1379.06,-265.64 1271.62,-249.02 1201.23,-238.13"/>
<polygon fill="#63b8ff" stroke="#63b8ff" points="1454.43,-280.84 1464.85,-278.91 1455.5,-273.92 1454.43,-280.84"/>
</a>
</g>
</g>
<!-- Node6 -->
<g id="Node000006" class="node">
<title>Node6</title>
<g id="a_Node000006"><a xlink:href="../../d1/d89/_c_data_frame_analysis_specification_8cc.html" target="_top" xlink:title=" ">
<polygon fill="white" stroke="#666666" points="525.38,-108.25 387.12,-108.25 387.12,-77.75 525.38,-77.75 525.38,-108.25"/>
<text text-anchor="start" x="395.12" y="-94.75" font-family="Helvetica,sans-Serif" font-size="10.00">lib/api/CDataFrameAnalysis</text>
<text text-anchor="middle" x="456.25" y="-83.5" font-family="Helvetica,sans-Serif" font-size="10.00">Specification.cc</text>
</a>
</g>
</g>
<!-- Node1&#45;&gt;Node6 -->
<g id="edge41_Node000001_Node000006" class="edge">
<title>Node1&#45;&gt;Node6</title>
<g id="a_edge41_Node000001_Node000006"><a xlink:title=" ">
<path fill="none" stroke="#63b8ff" d="M1454.83,-287.61C1208.97,-276.3 547.29,-240.06 475.25,-174.75 456.79,-158.01 454.6,-127.02 455.13,-108.68"/>
<polygon fill="#63b8ff" stroke="#63b8ff" points="1454.56,-291.1 1464.71,-288.06 1454.88,-284.11 1454.56,-291.1"/>
</a>
</g>
</g>
<!-- Node7 -->
<g id="Node000007" class="node">
<title>Node7</title>
<g id="a_Node000007"><a xlink:href="../../dd/d47/_c_data_frame_train_boosted_tree_classifier_runner_8cc.html" target="_top" xlink:title=" ">
<polygon fill="white" stroke="#666666" points="853.5,-108.25 695,-108.25 695,-77.75 853.5,-77.75 853.5,-108.25"/>
<text text-anchor="start" x="703" y="-94.75" font-family="Helvetica,sans-Serif" font-size="10.00">lib/api/CDataFrameTrainBoosted</text>
<text text-anchor="middle" x="774.25" y="-83.5" font-family="Helvetica,sans-Serif" font-size="10.00">TreeClassifierRunner.cc</text>
</a>
</g>
</g>
<!-- Node1&#45;&gt;Node7 -->
<g id="edge45_Node000001_Node000007" class="edge">
<title>Node1&#45;&gt;Node7</title>
<g id="a_edge45_Node000001_Node000007"><a xlink:title=" ">
<path fill="none" stroke="#63b8ff" d="M1455.21,-286.58C1332.8,-279.24 1121.98,-263.8 1048.25,-241.25 946.26,-210.05 838.55,-139.35 794.66,-108.67"/>
<polygon fill="#63b8ff" stroke="#63b8ff" points="1454.71,-290.06 1464.9,-287.16 1455.12,-283.07 1454.71,-290.06"/>
</a>
</g>
</g>
<!-- Node8 -->
<g id="Node000008" class="node">
<title>Node8</title>
<g id="a_Node000008"><a xlink:href="../../db/d4d/_c_data_frame_analysis_specification_test_8cc.html" target="_top" xlink:title=" ">
<polygon fill="white" stroke="#666666" points="281.25,-36.12 139.25,-36.12 139.25,-5.62 281.25,-5.62 281.25,-36.12"/>
<text text-anchor="start" x="147.25" y="-22.62" font-family="Helvetica,sans-Serif" font-size="10.00">lib/api/unittest/CDataFrame</text>
<text text-anchor="middle" x="210.25" y="-11.38" font-family="Helvetica,sans-Serif" font-size="10.00">AnalysisSpecificationTest.cc</text>
</a>
</g>
</g>
<!-- Node1&#45;&gt;Node8 -->
<g id="edge50_Node000001_Node000008" class="edge">
<title>Node1&#45;&gt;Node8</title>
<g id="a_edge50_Node000001_Node000008"><a xlink:title=" ">
<path fill="none" stroke="#63b8ff" d="M1454.88,-291.13C1160.76,-289.54 254.89,-281.41 207.25,-241.25 146.53,-190.06 186.71,-76.74 203.71,-36.44"/>
<polygon fill="#63b8ff" stroke="#63b8ff" points="1454.8,-294.63 1464.82,-291.18 1454.84,-287.63 1454.8,-294.63"/>
</a>
</g>
</g>
<!-- Node11 -->
<g id="Node000011" class="node">
<title>Node11</title>
<g id="a_Node000011"><a xlink:href="../../db/d0c/_c_data_frame_analysis_specification_factory_8cc.html" target="_top" xlink:title=" ">
<polygon fill="white" stroke="#666666" points="627.25,-36.12 485.25,-36.12 485.25,-5.62 627.25,-5.62 627.25,-36.12"/>
<text text-anchor="start" x="493.25" y="-22.62" font-family="Helvetica,sans-Serif" font-size="10.00">lib/test/CDataFrameAnalysis</text>
<text text-anchor="middle" x="556.25" y="-11.38" font-family="Helvetica,sans-Serif" font-size="10.00">SpecificationFactory.cc</text>
</a>
</g>
</g>
<!-- Node1&#45;&gt;Node11 -->
<g id="edge55_Node000001_Node000011" class="edge">
<title>Node1&#45;&gt;Node11</title>
<g id="a_edge55_Node000001_Node000011"><a xlink:title=" ">
<path fill="none" stroke="#63b8ff" d="M1455.02,-291.53C1248.06,-290.83 748.36,-284.55 586.25,-241.25 480.24,-212.93 423.91,-208.02 378.25,-108.25 372.61,-95.92 370.23,-88.68 378.25,-77.75 385.65,-67.67 448.95,-49.4 497.99,-36.5"/>
<polygon fill="#63b8ff" stroke="#63b8ff" points="1454.92,-295.03 1464.93,-291.56 1454.94,-288.03 1454.92,-295.03"/>
</a>
</g>
</g>
<!-- Node13 -->
<g id="Node000013" class="node">
<title>Node13</title>
<g id="a_Node000013"><a xlink:href="../../d3/d57/_c_data_frame_analysis_specification_factory_8h.html" target="_top" xlink:title=" ">
<polygon fill="white" stroke="#666666" points="1380.75,-108.25 1217.75,-108.25 1217.75,-77.75 1380.75,-77.75 1380.75,-108.25"/>
<text text-anchor="start" x="1225.75" y="-94.75" font-family="Helvetica,sans-Serif" font-size="10.00">include/test/CDataFrameAnalysis</text>
<text text-anchor="middle" x="1299.25" y="-83.5" font-family="Helvetica,sans-Serif" font-size="10.00">SpecificationFactory.h</text>
</a>
</g>
</g>
<!-- Node1&#45;&gt;Node13 -->
<g id="edge39_Node000001_Node000013" class="edge">
<title>Node1&#45;&gt;Node13</title>
<g id="a_edge39_Node000001_Node000013"><a xlink:title=" ">
<path fill="none" stroke="#63b8ff" d="M1550.99,-265.93C1555.43,-233.34 1557.49,-177.3 1527.25,-144.25 1517.11,-133.17 1442.25,-118.07 1381.03,-107.32"/>
<polygon fill="#63b8ff" stroke="#63b8ff" points="1547.55,-265.25 1549.46,-275.67 1554.46,-266.33 1547.55,-265.25"/>
</a>
</g>
</g>
<!-- Node14 -->
<g id="Node000014" class="node">
<title>Node14</title>
<g id="a_Node000014"><a xlink:href="../../d8/dc2/_c_boosted_tree_inference_model_builder_test_8cc.html" target="_top" xlink:title=" ">
<polygon fill="white" stroke="#666666" points="2016.5,-36.12 1852,-36.12 1852,-5.62 2016.5,-5.62 2016.5,-36.12"/>
<text text-anchor="start" x="1860" y="-22.62" font-family="Helvetica,sans-Serif" font-size="10.00">lib/api/unittest/CBoosted</text>
<text text-anchor="middle" x="1934.25" y="-11.38" font-family="Helvetica,sans-Serif" font-size="10.00">TreeInferenceModelBuilderTest.cc</text>
</a>
</g>
</g>
<!-- Node1&#45;&gt;Node14 -->
<g id="edge48_Node000001_Node000014" class="edge">
<title>Node1&#45;&gt;Node14</title>
<g id="a_edge48_Node000001_Node000014"><a xlink:title=" ">
<path fill="none" stroke="#63b8ff" d="M1564.36,-267.84C1570.17,-259.67 1576.36,-250.29 1581.25,-241.25 1618.55,-172.33 1586.53,-127.29 1647.25,-77.75 1715.87,-21.76 1756.42,-59.2 1843.25,-41.75 1851.34,-40.12 1859.81,-38.36 1868.2,-36.57"/>
<polygon fill="#63b8ff" stroke="#63b8ff" points="1561.55,-265.75 1558.47,-275.89 1567.2,-269.89 1561.55,-265.75"/>
</a>
</g>
</g>
<!-- Node16 -->
<g id="Node000016" class="node">
<title>Node16</title>
<g id="a_Node000016"><a xlink:href="../../d6/d82/_c_data_frame_analysis_runner_test_8cc.html" target="_top" xlink:title=" ">
<polygon fill="white" stroke="#666666" points="2170.25,-36.12 2034.25,-36.12 2034.25,-5.62 2170.25,-5.62 2170.25,-36.12"/>
<text text-anchor="start" x="2042.25" y="-22.62" font-family="Helvetica,sans-Serif" font-size="10.00">lib/api/unittest/CDataFrame</text>
<text text-anchor="middle" x="2102.25" y="-11.38" font-family="Helvetica,sans-Serif" font-size="10.00">AnalysisRunnerTest.cc</text>
</a>
</g>
</g>
<!-- Node1&#45;&gt;Node16 -->
<g id="edge49_Node000001_Node000016" class="edge">
<title>Node1&#45;&gt;Node16</title>
<g id="a_edge49_Node000001_Node000016"><a xlink:title=" ">
<path fill="none" stroke="#63b8ff" d="M1574.09,-269.53C1583.43,-261.3 1593.45,-251.45 1601.25,-241.25 1650.86,-176.34 1617.86,-123.94 1685.25,-77.75 1747.92,-34.8 1950.49,-55.28 2025.25,-41.75 2033.13,-40.32 2041.39,-38.52 2049.46,-36.59"/>
<polygon fill="#63b8ff" stroke="#63b8ff" points="1571.93,-266.77 1566.58,-275.91 1576.47,-272.1 1571.93,-266.77"/>
</a>
</g>
</g>
<!-- Node17 -->
<g id="Node000017" class="node">
<title>Node17</title>
<g id="a_Node000017"><a xlink:href="../../d9/d90/_c_data_frame_analyzer_outlier_test_8cc.html" target="_top" xlink:title=" ">
<polygon fill="white" stroke="#666666" points="2324.25,-36.12 2188.25,-36.12 2188.25,-5.62 2324.25,-5.62 2324.25,-36.12"/>
<text text-anchor="start" x="2196.25" y="-22.62" font-family="Helvetica,sans-Serif" font-size="10.00">lib/api/unittest/CDataFrame</text>
<text text-anchor="middle" x="2256.25" y="-11.38" font-family="Helvetica,sans-Serif" font-size="10.00">AnalyzerOutlierTest.cc</text>
</a>
</g>
</g>
<!-- Node1&#45;&gt;Node17 -->
<g id="edge51_Node000001_Node000017" class="edge">
<title>Node1&#45;&gt;Node17</title>
<g id="a_edge51_Node000001_Node000017"><a xlink:title=" ">
<path fill="none" stroke="#63b8ff" d="M1585.2,-271.83C1619.73,-254.72 1671.76,-229.76 1718.25,-210.75 1896.69,-137.76 2114.99,-66.52 2209.24,-36.6"/>
<polygon fill="#63b8ff" stroke="#63b8ff" points="1583.81,-268.61 1576.42,-276.2 1586.93,-274.88 1583.81,-268.61"/>
</a>
</g>
</g>
<!-- Node23 -->
<g id="Node000023" class="node">
<title>Node23</title>
<g id="a_Node000023"><a xlink:href="../../df/d91/_c_data_frame_train_boosted_tree_regression_runner_8cc.html" target="_top" xlink:title=" ">
<polygon fill="white" stroke="#666666" points="1557.5,-108.25 1399,-108.25 1399,-77.75 1557.5,-77.75 1557.5,-108.25"/>
<text text-anchor="start" x="1407" y="-94.75" font-family="Helvetica,sans-Serif" font-size="10.00">lib/api/CDataFrameTrainBoosted</text>
<text text-anchor="middle" x="1478.25" y="-83.5" font-family="Helvetica,sans-Serif" font-size="10.00">TreeRegressionRunner.cc</text>
</a>
</g>
</g>
<!-- Node1&#45;&gt;Node23 -->
<g id="edge46_Node000001_Node000023" class="edge">
<title>Node1&#45;&gt;Node23</title>
<g id="a_edge46_Node000001_Node000023"><a xlink:title=" ">
<path fill="none" stroke="#63b8ff" d="M1556.92,-266.32C1568.23,-235.48 1581.72,-182.59 1560.25,-144.25 1551.19,-128.08 1534.58,-116.49 1518.65,-108.54"/>
<polygon fill="#63b8ff" stroke="#63b8ff" points="1553.69,-264.99 1553.32,-275.58 1560.21,-267.53 1553.69,-264.99"/>
</a>
</g>
</g>
<!-- Node24 -->
<g id="Node000024" class="node">
<title>Node24</title>
<g id="a_Node000024"><a xlink:href="../../d9/d3a/_c_data_frame_train_boosted_tree_runner_8cc.html" target="_top" xlink:title=" ">
<polygon fill="white" stroke="#666666" points="1518.5,-174.75 1360,-174.75 1360,-144.25 1518.5,-144.25 1518.5,-174.75"/>
<text text-anchor="start" x="1368" y="-161.25" font-family="Helvetica,sans-Serif" font-size="10.00">lib/api/CDataFrameTrainBoosted</text>
<text text-anchor="middle" x="1439.25" y="-150" font-family="Helvetica,sans-Serif" font-size="10.00">TreeRunner.cc</text>
</a>
</g>
</g>
<!-- Node1&#45;&gt;Node24 -->
<g id="edge47_Node000001_Node000024" class="edge">
<title>Node1&#45;&gt;Node24</title>
<g id="a_edge47_Node000001_Node000024"><a xlink:title=" ">
<path fill="none" stroke="#63b8ff" d="M1527.22,-268.2C1505.19,-241.23 1469.59,-197.65 1451.16,-175.08"/>
<polygon fill="#63b8ff" stroke="#63b8ff" points="1524.4,-270.28 1533.43,-275.81 1529.82,-265.85 1524.4,-270.28"/>
</a>
</g>
</g>
<!-- Node26 -->
<g id="Node000026" class="node">
<title>Node26</title>
<g id="a_Node000026"><a xlink:href="../../de/da1/_c_data_frame_analysis_runner_8cc.html" target="_top" xlink:title=" ">
<polygon fill="white" stroke="#666666" points="1865.38,-241.25 1727.12,-241.25 1727.12,-210.75 1865.38,-210.75 1865.38,-241.25"/>
<text text-anchor="start" x="1735.12" y="-227.75" font-family="Helvetica,sans-Serif" font-size="10.00">lib/api/CDataFrameAnalysis</text>
<text text-anchor="middle" x="1796.25" y="-216.5" font-family="Helvetica,sans-Serif" font-size="10.00">Runner.cc</text>
</a>
</g>
</g>
<!-- Node1&#45;&gt;Node26 -->
<g id="edge40_Node000001_Node000026" class="edge">
<title>Node1&#45;&gt;Node26</title>
<g id="a_edge40_Node000001_Node000026"><a xlink:title=" ">
<path fill="none" stroke="#63b8ff" d="M1614.35,-273.93C1653.57,-263.81 1702.31,-251.24 1739.45,-241.65"/>
<polygon fill="#63b8ff" stroke="#63b8ff" points="1613.57,-270.52 1604.76,-276.41 1615.31,-277.3 1613.57,-270.52"/>
</a>
</g>
</g>
<!-- Node27 -->
<g id="Node000027" class="node">
<title>Node27</title>
<g id="a_Node000027"><a xlink:href="../../d2/db7/_c_data_frame_analysis_specification_json_writer_8cc.html" target="_top" xlink:title=" ">
<polygon fill="white" stroke="#666666" points="2021.38,-241.25 1883.12,-241.25 1883.12,-210.75 2021.38,-210.75 2021.38,-241.25"/>
<text text-anchor="start" x="1891.12" y="-227.75" font-family="Helvetica,sans-Serif" font-size="10.00">lib/api/CDataFrameAnalysis</text>
<text text-anchor="middle" x="1952.25" y="-216.5" font-family="Helvetica,sans-Serif" font-size="10.00">SpecificationJsonWriter.cc</text>
</a>
</g>
</g>
<!-- Node1&#45;&gt;Node27 -->
<g id="edge42_Node000001_Node000027" class="edge">
<title>Node1&#45;&gt;Node27</title>
<g id="a_edge42_Node000001_Node000027"><a xlink:title=" ">
<path fill="none" stroke="#63b8ff" d="M1637.4,-278.25C1703.28,-268.5 1794.36,-254.66 1874.25,-241.25 1877.1,-240.77 1880.01,-240.28 1882.95,-239.77"/>
<polygon fill="#63b8ff" stroke="#63b8ff" points="1637.1,-274.76 1627.72,-279.68 1638.12,-281.68 1637.1,-274.76"/>
</a>
</g>
</g>
<!-- Node28 -->
<g id="Node000028" class="node">
<title>Node28</title>
<g id="a_Node000028"><a xlink:href="../../d0/d76/_c_data_frame_analyzer_8cc.html" target="_top" xlink:title=" ">
<polygon fill="white" stroke="#666666" points="2191.12,-235.62 2039.38,-235.62 2039.38,-216.38 2191.12,-216.38 2191.12,-235.62"/>
<text text-anchor="middle" x="2115.25" y="-222.12" font-family="Helvetica,sans-Serif" font-size="10.00">lib/api/CDataFrameAnalyzer.cc</text>
</a>
</g>
</g>
<!-- Node1&#45;&gt;Node28 -->
<g id="edge43_Node000001_Node000028" class="edge">
<title>Node1&#45;&gt;Node28</title>
<g id="a_edge43_Node000001_Node000028"><a xlink:title=" ">
<path fill="none" stroke="#63b8ff" d="M1637.36,-283.76C1734.8,-275.07 1893.76,-259.76 2030.25,-241.25 2041.22,-239.76 2052.95,-237.94 2064.09,-236.11"/>
<polygon fill="#63b8ff" stroke="#63b8ff" points="1637.24,-280.25 1627.59,-284.62 1637.86,-287.23 1637.24,-280.25"/>
</a>
</g>
</g>
<!-- Node29 -->
<g id="Node000029" class="node">
<title>Node29</title>
<g id="a_Node000029"><a xlink:href="../../d6/d0f/_c_data_frame_outliers_runner_8cc.html" target="_top" xlink:title=" ">
<polygon fill="white" stroke="#666666" points="2343.5,-241.25 2209,-241.25 2209,-210.75 2343.5,-210.75 2343.5,-241.25"/>
<text text-anchor="start" x="2217" y="-227.75" font-family="Helvetica,sans-Serif" font-size="10.00">lib/api/CDataFrameOutliers</text>
<text text-anchor="middle" x="2276.25" y="-216.5" font-family="Helvetica,sans-Serif" font-size="10.00">Runner.cc</text>
</a>
</g>
</g>
<!-- Node1&#45;&gt;Node29 -->
<g id="edge44_Node000001_Node000029" class="edge">
<title>Node1&#45;&gt;Node29</title>
<g id="a_edge44_Node000001_Node000029"><a xlink:title=" ">
<path fill="none" stroke="#63b8ff" d="M1637.49,-287.62C1764.19,-281.53 2000.38,-267.59 2200.25,-241.25 2203.04,-240.88 2205.89,-240.48 2208.77,-240.05"/>
<polygon fill="#63b8ff" stroke="#63b8ff" points="1637.66,-284.11 1627.84,-288.08 1637.99,-291.1 1637.66,-284.11"/>
</a>
</g>
</g>
<!-- Node30 -->
<g id="Node000030" class="node">
<title>Node30</title>
<g id="a_Node000030"><a xlink:href="../../d9/d83/_c_data_frame_mock_analysis_runner_8h.html" target="_top" xlink:title=" ">
<polygon fill="white" stroke="#666666" points="352.25,-241.25 216.25,-241.25 216.25,-210.75 352.25,-210.75 352.25,-241.25"/>
<text text-anchor="start" x="224.25" y="-227.75" font-family="Helvetica,sans-Serif" font-size="10.00">lib/api/unittest/CDataFrame</text>
<text text-anchor="middle" x="284.25" y="-216.5" font-family="Helvetica,sans-Serif" font-size="10.00">MockAnalysisRunner.h</text>
</a>
</g>
</g>
<!-- Node1&#45;&gt;Node30 -->
<g id="edge52_Node000001_Node000030" class="edge">
<title>Node1&#45;&gt;Node30</title>
<g id="a_edge52_Node000001_Node000030"><a xlink:title=" ">
<path fill="none" stroke="#63b8ff" d="M1454.98,-291.63C1256.39,-291.03 770.47,-284.79 366.25,-241.25 361.8,-240.77 357.22,-240.2 352.61,-239.56"/>
<polygon fill="#63b8ff" stroke="#63b8ff" points="1454.69,-295.13 1464.7,-291.65 1454.71,-288.13 1454.69,-295.13"/>
</a>
</g>
</g>
<!-- Node4 -->
<g id="Node000004" class="node">
<title>Node4</title>
<g id="a_Node000004"><a xlink:href="../../d2/d15/_c_data_frame_train_boosted_tree_classifier_runner_8h.html" target="_top" xlink:title=" ">
<polygon fill="white" stroke="#666666" points="826.12,-174.75 674.38,-174.75 674.38,-144.25 826.12,-144.25 826.12,-174.75"/>
<text text-anchor="start" x="682.38" y="-161.25" font-family="Helvetica,sans-Serif" font-size="10.00">include/api/CDataFrameTrain</text>
<text text-anchor="middle" x="750.25" y="-150" font-family="Helvetica,sans-Serif" font-size="10.00">BoostedTreeClassifierRunner.h</text>
</a>
</g>
</g>
<!-- Node3&#45;&gt;Node4 -->
<g id="edge3_Node000003_Node000004" class="edge">
<title>Node3&#45;&gt;Node4</title>
<g id="a_edge3_Node000003_Node000004"><a xlink:title=" ">
<path fill="none" stroke="#63b8ff" d="M1045.96,-210.83C980.47,-199.68 889.96,-184.28 826.38,-173.46"/>
<polygon fill="#63b8ff" stroke="#63b8ff" points="1045.13,-214.23 1055.58,-212.46 1046.31,-207.33 1045.13,-214.23"/>
</a>
</g>
</g>
<!-- Node5 -->
<g id="Node000005" class="node">
<title>Node5</title>
<g id="a_Node000005"><a xlink:href="../../dd/dbd/_c_data_frame_analysis_instrumentation_8cc.html" target="_top" xlink:title=" ">
<polygon fill="white" stroke="#666666" points="1009.38,-108.25 871.12,-108.25 871.12,-77.75 1009.38,-77.75 1009.38,-108.25"/>
<text text-anchor="start" x="879.12" y="-94.75" font-family="Helvetica,sans-Serif" font-size="10.00">lib/api/CDataFrameAnalysis</text>
<text text-anchor="middle" x="940.25" y="-83.5" font-family="Helvetica,sans-Serif" font-size="10.00">Instrumentation.cc</text>
</a>
</g>
</g>
<!-- Node3&#45;&gt;Node5 -->
<g id="edge33_Node000003_Node000005" class="edge">
<title>Node3&#45;&gt;Node5</title>
<g id="a_edge33_Node000003_Node000005"><a xlink:title=" ">
<path fill="none" stroke="#63b8ff" d="M1099.13,-204.12C1060.6,-177.41 994.84,-131.84 961.29,-108.58"/>
<polygon fill="#63b8ff" stroke="#63b8ff" points="1096.84,-206.8 1107.06,-209.62 1100.83,-201.04 1096.84,-206.8"/>
</a>
</g>
</g>
<!-- Node9 -->
<g id="Node000009" class="node">
<title>Node9</title>
<g id="a_Node000009"><a xlink:href="../../dd/d78/_c_data_frame_analyzer_feature_importance_test_8cc.html" target="_top" xlink:title=" ">
<polygon fill="white" stroke="#666666" points="467.38,-36.12 299.12,-36.12 299.12,-5.62 467.38,-5.62 467.38,-36.12"/>
<text text-anchor="start" x="307.12" y="-22.62" font-family="Helvetica,sans-Serif" font-size="10.00">lib/api/unittest/CDataFrame</text>
<text text-anchor="middle" x="383.25" y="-11.38" font-family="Helvetica,sans-Serif" font-size="10.00">AnalyzerFeatureImportanceTest.cc</text>
</a>
</g>
</g>
<!-- Node3&#45;&gt;Node9 -->
<g id="edge36_Node000003_Node000009" class="edge">
<title>Node3&#45;&gt;Node9</title>
<g id="a_edge36_Node000003_Node000009"><a xlink:title=" ">
<path fill="none" stroke="#63b8ff" d="M1045.98,-223.95C894.1,-221.17 578.26,-211.05 475.25,-174.75 425.95,-157.38 402.61,-154.49 378.25,-108.25 366.28,-85.53 372.53,-54.62 378,-36.6"/>
<polygon fill="#63b8ff" stroke="#63b8ff" points="1045.49,-227.45 1055.55,-224.12 1045.62,-220.45 1045.49,-227.45"/>
</a>
</g>
</g>
<!-- Node3&#45;&gt;Node11 -->
<g id="edge38_Node000003_Node000011" class="edge">
<title>Node3&#45;&gt;Node11</title>
<g id="a_edge38_Node000003_Node000011"><a xlink:title=" ">
<path fill="none" stroke="#63b8ff" d="M1111.96,-201.03C1082.44,-160.26 1024.87,-81.45 1018.25,-77.75 943.81,-36.17 720.3,-56.07 636.25,-41.75 627.93,-40.33 619.19,-38.51 610.67,-36.55"/>
<polygon fill="#63b8ff" stroke="#63b8ff" points="1109.06,-202.99 1117.76,-209.05 1114.73,-198.89 1109.06,-202.99"/>
</a>
</g>
</g>
<!-- Node12 -->
<g id="Node000012" class="node">
<title>Node12</title>
<g id="a_Node000012"><a xlink:href="../../df/da9/_c_data_frame_train_boosted_tree_regression_runner_8h.html" target="_top" xlink:title=" ">
<polygon fill="white" stroke="#666666" points="1263.25,-174.75 1103.25,-174.75 1103.25,-144.25 1263.25,-144.25 1263.25,-174.75"/>
<text text-anchor="start" x="1111.25" y="-161.25" font-family="Helvetica,sans-Serif" font-size="10.00">include/api/CDataFrameTrain</text>
<text text-anchor="middle" x="1183.25" y="-150" font-family="Helvetica,sans-Serif" font-size="10.00">BoostedTreeRegressionRunner.h</text>
</a>
</g>
</g>
<!-- Node3&#45;&gt;Node12 -->
<g id="edge11_Node000003_Node000012" class="edge">
<title>Node3&#45;&gt;Node12</title>
<g id="a_edge11_Node000003_Node000012"><a xlink:title=" ">
<path fill="none" stroke="#63b8ff" d="M1148.84,-201.6C1156.26,-192.73 1164.49,-182.9 1171.05,-175.08"/>
<polygon fill="#63b8ff" stroke="#63b8ff" points="1146.21,-199.29 1142.48,-209.2 1151.58,-203.78 1146.21,-199.29"/>
</a>
</g>
</g>
<!-- Node3&#45;&gt;Node13 -->
<g id="edge32_Node000003_Node000013" class="edge">
<title>Node3&#45;&gt;Node13</title>
<g id="a_edge32_Node000003_Node000013"><a xlink:title=" ">
<path fill="none" stroke="#63b8ff" d="M1212.12,-209.82C1233.98,-202.36 1255.99,-191.26 1272.25,-174.75 1290.09,-156.64 1296.15,-126.41 1298.2,-108.53"/>
<polygon fill="#63b8ff" stroke="#63b8ff" points="1211.35,-206.39 1202.86,-212.74 1213.45,-213.07 1211.35,-206.39"/>
</a>
</g>
</g>
<!-- Node21 -->
<g id="Node000021" class="node">
<title>Node21</title>
<g id="a_Node000021"><a xlink:href="../../d0/d7f/_c_inference_model_metadata_test_8cc.html" target="_top" xlink:title=" ">
<polygon fill="white" stroke="#666666" points="1834.12,-36.12 1706.38,-36.12 1706.38,-5.62 1834.12,-5.62 1834.12,-36.12"/>
<text text-anchor="start" x="1714.38" y="-22.62" font-family="Helvetica,sans-Serif" font-size="10.00">lib/api/unittest/CInference</text>
<text text-anchor="middle" x="1770.25" y="-11.38" font-family="Helvetica,sans-Serif" font-size="10.00">ModelMetadataTest.cc</text>
</a>
</g>
</g>
<!-- Node3&#45;&gt;Node21 -->
<g id="edge37_Node000003_Node000021" class="edge">
<title>Node3&#45;&gt;Node21</title>
<g id="a_edge37_Node000003_Node000021"><a xlink:title=" ">
<path fill="none" stroke="#63b8ff" d="M1198.28,-207.24C1228.25,-198.7 1263.46,-187.53 1294.25,-174.75 1320.79,-163.73 1324.06,-153.52 1351.25,-144.25 1442.95,-112.98 1476.69,-145.21 1566.25,-108.25 1587.91,-99.31 1588.42,-88.48 1609.25,-77.75 1643.18,-60.28 1683.8,-46.23 1715.75,-36.59"/>
<polygon fill="#63b8ff" stroke="#63b8ff" points="1197.63,-203.79 1188.95,-209.86 1199.52,-210.53 1197.63,-203.79"/>
</a>
</g>
</g>
<!-- Node3&#45;&gt;Node24 -->
<g id="edge34_Node000003_Node000024" class="edge">
<title>Node3&#45;&gt;Node24</title>
<g id="a_edge34_Node000003_Node000024"><a xlink:title=" ">
<path fill="none" stroke="#63b8ff" d="M1211.18,-207.95C1260.15,-197.76 1321.73,-184.95 1368.55,-175.21"/>
<polygon fill="#63b8ff" stroke="#63b8ff" points="1210.54,-204.51 1201.46,-209.97 1211.97,-211.36 1210.54,-204.51"/>
</a>
</g>
</g>
<!-- Node25 -->
<g id="Node000025" class="node">
<title>Node25</title>
<g id="a_Node000025"><a xlink:href="../../d8/d56/_c_inference_model_metadata_8cc.html" target="_top" xlink:title=" ">
<polygon fill="white" stroke="#666666" points="656.62,-169.12 483.88,-169.12 483.88,-149.88 656.62,-149.88 656.62,-169.12"/>
<text text-anchor="middle" x="570.25" y="-155.62" font-family="Helvetica,sans-Serif" font-size="10.00">lib/api/CInferenceModelMetadata.cc</text>
</a>
</g>
</g>
<!-- Node3&#45;&gt;Node25 -->
<g id="edge35_Node000003_Node000025" class="edge">
<title>Node3&#45;&gt;Node25</title>
<g id="a_edge35_Node000003_Node000025"><a xlink:title=" ">
<path fill="none" stroke="#63b8ff" d="M1045.9,-217.01C952.93,-207.86 798.13,-191.9 665.25,-174.75 653.34,-173.21 640.62,-171.41 628.48,-169.62"/>
<polygon fill="#63b8ff" stroke="#63b8ff" points="1045.41,-220.48 1055.7,-217.97 1046.09,-213.51 1045.41,-220.48"/>
</a>
</g>
</g>
<!-- Node4&#45;&gt;Node5 -->
<g id="edge4_Node000004_Node000005" class="edge">
<title>Node4&#45;&gt;Node5</title>
<g id="a_edge4_Node000004_Node000005"><a xlink:title=" ">
<path fill="none" stroke="#63b8ff" d="M803.88,-140.29C833.32,-130.3 869.35,-118.07 896.98,-108.69"/>
<polygon fill="#63b8ff" stroke="#63b8ff" points="803.14,-136.85 794.8,-143.38 805.39,-143.48 803.14,-136.85"/>
</a>
</g>
</g>
<!-- Node4&#45;&gt;Node6 -->
<g id="edge5_Node000004_Node000006" class="edge">
<title>Node4&#45;&gt;Node6</title>
<g id="a_edge5_Node000004_Node000006"><a xlink:title=" ">
<path fill="none" stroke="#63b8ff" d="M671.96,-141.32C625.62,-131.16 567.52,-118.41 523.3,-108.71"/>
<polygon fill="#63b8ff" stroke="#63b8ff" points="671.17,-144.73 681.69,-143.46 672.67,-137.9 671.17,-144.73"/>
</a>
</g>
</g>
<!-- Node4&#45;&gt;Node7 -->
<g id="edge6_Node000004_Node000007" class="edge">
<title>Node4&#45;&gt;Node7</title>
<g id="a_edge6_Node000004_Node000007"><a xlink:title=" ">
<path fill="none" stroke="#63b8ff" d="M759.69,-133.13C762.79,-124.8 766.13,-115.83 768.83,-108.58"/>
<polygon fill="#63b8ff" stroke="#63b8ff" points="756.43,-131.85 756.22,-142.45 762.99,-134.29 756.43,-131.85"/>
</a>
</g>
</g>
<!-- Node4&#45;&gt;Node8 -->
<g id="edge7_Node000004_Node000008" class="edge">
<title>Node4&#45;&gt;Node8</title>
<g id="a_edge7_Node000004_Node000008"><a xlink:title=" ">
<path fill="none" stroke="#63b8ff" d="M663.13,-143.54C631.63,-135.85 596.62,-124.56 567.25,-108.25 549.79,-98.55 552.27,-86.37 534.25,-77.75 435.37,-30.44 397.79,-62.99 290.25,-41.75 282.53,-40.22 274.43,-38.44 266.48,-36.57"/>
<polygon fill="#63b8ff" stroke="#63b8ff" points="662.1,-146.89 672.63,-145.76 663.69,-140.07 662.1,-146.89"/>
</a>
</g>
</g>
<!-- Node4&#45;&gt;Node9 -->
<g id="edge8_Node000004_Node000009" class="edge">
<title>Node4&#45;&gt;Node9</title>
<g id="a_edge8_Node000004_Node000009"><a xlink:title=" ">
<path fill="none" stroke="#63b8ff" d="M704.38,-139.42C682.47,-130.19 655.92,-118.84 632.25,-108.25 603.12,-95.22 597.04,-89.19 567.25,-77.75 525.02,-61.53 475.95,-46.82 439.11,-36.58"/>
<polygon fill="#63b8ff" stroke="#63b8ff" points="702.76,-142.54 713.34,-143.18 705.48,-136.08 702.76,-142.54"/>
</a>
</g>
</g>
<!-- Node10 -->
<g id="Node000010" class="node">
<title>Node10</title>
<g id="a_Node000010"><a xlink:href="../../dc/dee/_c_data_frame_train_boosted_tree_classifier_runner_test_8cc.html" target="_top" xlink:title=" ">
<polygon fill="white" stroke="#666666" points="811.25,-41.75 645.25,-41.75 645.25,0 811.25,0 811.25,-41.75"/>
<text text-anchor="start" x="653.25" y="-28.25" font-family="Helvetica,sans-Serif" font-size="10.00">lib/api/unittest/CDataFrame</text>
<text text-anchor="start" x="653.25" y="-17" font-family="Helvetica,sans-Serif" font-size="10.00">TrainBoostedTreeClassifierRunner</text>
<text text-anchor="middle" x="728.25" y="-5.75" font-family="Helvetica,sans-Serif" font-size="10.00">Test.cc</text>
</a>
</g>
</g>
<!-- Node4&#45;&gt;Node10 -->
<g id="edge9_Node000004_Node000010" class="edge">
<title>Node4&#45;&gt;Node10</title>
<g id="a_edge9_Node000004_Node000010"><a xlink:title=" ">
<path fill="none" stroke="#63b8ff" d="M712.06,-137.41C701.77,-129.69 691.93,-119.92 686.25,-108.25 675.24,-85.61 691.83,-59.62 707.29,-42.12"/>
<polygon fill="#63b8ff" stroke="#63b8ff" points="710.06,-140.29 720.28,-143.07 714.03,-134.52 710.06,-140.29"/>
</a>
</g>
</g>
<!-- Node4&#45;&gt;Node11 -->
<g id="edge10_Node000004_Node000011" class="edge">
<title>Node4&#45;&gt;Node11</title>
<g id="a_edge10_Node000004_Node000011"><a xlink:title=" ">
<path fill="none" stroke="#63b8ff" d="M720.31,-137.41C680.64,-109.47 611.66,-60.9 577.16,-36.6"/>
<polygon fill="#63b8ff" stroke="#63b8ff" points="718.06,-140.11 728.25,-143.01 722.09,-134.39 718.06,-140.11"/>
</a>
</g>
</g>
<!-- Node12&#45;&gt;Node6 -->
<g id="edge26_Node000012_Node000006" class="edge">
<title>Node12&#45;&gt;Node6</title>
<g id="a_edge26_Node000012_Node000006"><a xlink:title=" ">
<path fill="none" stroke="#63b8ff" d="M1091.79,-150.39C944.41,-137.31 657.6,-111.86 525.69,-100.16"/>
<polygon fill="#63b8ff" stroke="#63b8ff" points="1091.24,-153.85 1101.51,-151.25 1091.86,-146.88 1091.24,-153.85"/>
</a>
</g>
</g>
<!-- Node12&#45;&gt;Node8 -->
<g id="edge28_Node000012_Node000008" class="edge">
<title>Node12&#45;&gt;Node8</title>
<g id="a_edge28_Node000012_Node000008"><a xlink:title=" ">
<path fill="none" stroke="#63b8ff" d="M1144.61,-138.57C1100.11,-115.77 1031.4,-81.14 1018.25,-77.75 704.55,3.11 610.73,-89.03 290.25,-41.75 281.47,-40.46 272.25,-38.62 263.32,-36.59"/>
<polygon fill="#63b8ff" stroke="#63b8ff" points="1142.97,-141.66 1153.46,-143.11 1146.16,-135.43 1142.97,-141.66"/>
</a>
</g>
</g>
<!-- Node12&#45;&gt;Node11 -->
<g id="edge31_Node000012_Node000011" class="edge">
<title>Node12&#45;&gt;Node11</title>
<g id="a_edge31_Node000012_Node000011"><a xlink:title=" ">
<path fill="none" stroke="#63b8ff" d="M1158.19,-136.3C1131.77,-112.99 1093.38,-79.47 1089.25,-77.75 996.02,-38.94 735.92,-57.98 636.25,-41.75 627.77,-40.37 618.88,-38.55 610.22,-36.56"/>
<polygon fill="#63b8ff" stroke="#63b8ff" points="1155.68,-138.75 1165.49,-142.75 1160.32,-133.51 1155.68,-138.75"/>
</a>
</g>
</g>
<!-- Node12&#45;&gt;Node13 -->
<g id="edge12_Node000012_Node000013" class="edge">
<title>Node12&#45;&gt;Node13</title>
<g id="a_edge12_Node000012_Node000013"><a xlink:title=" ">
<path fill="none" stroke="#63b8ff" d="M1219.39,-138.41C1236.75,-128.75 1257.18,-117.39 1273.03,-108.58"/>
<polygon fill="#63b8ff" stroke="#63b8ff" points="1217.93,-135.21 1210.89,-143.13 1221.34,-141.33 1217.93,-135.21"/>
</a>
</g>
</g>
<!-- Node18 -->
<g id="Node000018" class="node">
<title>Node18</title>
<g id="a_Node000018"><a xlink:href="../../d7/d59/_c_data_frame_analyzer_training_test_8cc.html" target="_top" xlink:title=" ">
<polygon fill="white" stroke="#666666" points="965.25,-36.12 829.25,-36.12 829.25,-5.62 965.25,-5.62 965.25,-36.12"/>
<text text-anchor="start" x="837.25" y="-22.62" font-family="Helvetica,sans-Serif" font-size="10.00">lib/api/unittest/CDataFrame</text>
<text text-anchor="middle" x="897.25" y="-11.38" font-family="Helvetica,sans-Serif" font-size="10.00">AnalyzerTrainingTest.cc</text>
</a>
</g>
</g>
<!-- Node12&#45;&gt;Node18 -->
<g id="edge29_Node000012_Node000018" class="edge">
<title>Node12&#45;&gt;Node18</title>
<g id="a_edge29_Node000012_Node000018"><a xlink:title=" ">
<path fill="none" stroke="#63b8ff" d="M1172.12,-133.57C1162.72,-115.38 1147.55,-91.57 1127.25,-77.75 1069.51,-38.43 1042.07,-58.48 974.25,-41.75 967.55,-40.1 960.53,-38.33 953.57,-36.56"/>
<polygon fill="#63b8ff" stroke="#63b8ff" points="1168.91,-134.96 1176.44,-142.42 1175.2,-131.9 1168.91,-134.96"/>
</a>
</g>
</g>
<!-- Node19 -->
<g id="Node000019" class="node">
<title>Node19</title>
<g id="a_Node000019"><a xlink:href="../../dd/dd3/_c_data_frame_train_boosted_tree_regression_runner_test_8cc.html" target="_top" xlink:title=" ">
<polygon fill="white" stroke="#666666" points="1157.38,-41.75 983.12,-41.75 983.12,0 1157.38,0 1157.38,-41.75"/>
<text text-anchor="start" x="991.12" y="-28.25" font-family="Helvetica,sans-Serif" font-size="10.00">lib/api/unittest/CDataFrame</text>
<text text-anchor="start" x="991.12" y="-17" font-family="Helvetica,sans-Serif" font-size="10.00">TrainBoostedTreeRegressionRunner</text>
<text text-anchor="middle" x="1070.25" y="-5.75" font-family="Helvetica,sans-Serif" font-size="10.00">Test.cc</text>
</a>
</g>
</g>
<!-- Node12&#45;&gt;Node19 -->
<g id="edge30_Node000012_Node000019" class="edge">
<title>Node12&#45;&gt;Node19</title>
<g id="a_edge30_Node000012_Node000019"><a xlink:title=" ">
<path fill="none" stroke="#63b8ff" d="M1182.7,-132.61C1181.16,-115.6 1176.81,-93.64 1165.25,-77.75 1154.21,-62.59 1137.71,-50.85 1121.53,-42.13"/>
<polygon fill="#63b8ff" stroke="#63b8ff" points="1179.2,-132.69 1183.29,-142.46 1186.18,-132.26 1179.2,-132.69"/>
</a>
</g>
</g>
<!-- Node12&#45;&gt;Node23 -->
<g id="edge27_Node000012_Node000023" class="edge">
<title>Node12&#45;&gt;Node23</title>
<g id="a_edge27_Node000012_Node000023"><a xlink:title=" ">
<path fill="none" stroke="#63b8ff" d="M1261.81,-141.32C1308.31,-131.16 1366.6,-118.41 1410.98,-108.71"/>
<polygon fill="#63b8ff" stroke="#63b8ff" points="1261.06,-137.9 1252.04,-143.46 1262.55,-144.74 1261.06,-137.9"/>
</a>
</g>
</g>
<!-- Node13&#45;&gt;Node8 -->
<g id="edge16_Node000013_Node000008" class="edge">
<title>Node13&#45;&gt;Node8</title>
<g id="a_edge16_Node000013_Node000008"><a xlink:title=" ">
<path fill="none" stroke="#63b8ff" d="M1206.16,-86.43C1159.64,-83.7 1102.48,-80.43 1051.25,-77.75 713.11,-60.04 625.28,-90.81 290.25,-41.75 281.47,-40.46 272.25,-38.64 263.32,-36.6"/>
<polygon fill="#63b8ff" stroke="#63b8ff" points="1205.74,-89.91 1215.93,-87 1206.15,-82.92 1205.74,-89.91"/>
</a>
</g>
</g>
<!-- Node13&#45;&gt;Node9 -->
<g id="edge17_Node000013_Node000009" class="edge">
<title>Node13&#45;&gt;Node9</title>
<g id="a_edge17_Node000013_Node000009"><a xlink:title=" ">
<path fill="none" stroke="#63b8ff" d="M1206.18,-86.5C994.55,-73.97 494.13,-44.19 476.25,-41.75 466.35,-40.4 455.94,-38.58 445.81,-36.58"/>
<polygon fill="#63b8ff" stroke="#63b8ff" points="1205.86,-89.99 1216.05,-87.08 1206.27,-83 1205.86,-89.99"/>
</a>
</g>
</g>
<!-- Node13&#45;&gt;Node10 -->
<g id="edge20_Node000013_Node000010" class="edge">
<title>Node13&#45;&gt;Node10</title>
<g id="a_edge20_Node000013_Node000010"><a xlink:title=" ">
<path fill="none" stroke="#63b8ff" d="M1206.17,-83.44C1088.4,-72.41 892.24,-53.27 820.25,-41.75 817.35,-41.29 814.39,-40.79 811.42,-40.26"/>
<polygon fill="#63b8ff" stroke="#63b8ff" points="1205.52,-86.9 1215.81,-84.35 1206.18,-79.93 1205.52,-86.9"/>
</a>
</g>
</g>
<!-- Node13&#45;&gt;Node11 -->
<g id="edge25_Node000013_Node000011" class="edge">
<title>Node13&#45;&gt;Node11</title>
<g id="a_edge25_Node000013_Node000011"><a xlink:title=" ">
<path fill="none" stroke="#63b8ff" d="M1206.25,-84.13C1180.65,-82.01 1152.88,-79.75 1127.25,-77.75 909.11,-60.72 852.32,-76.25 636.25,-41.75 627.77,-40.4 618.87,-38.58 610.22,-36.61"/>
<polygon fill="#63b8ff" stroke="#63b8ff" points="1205.69,-87.6 1215.95,-84.94 1206.27,-80.62 1205.69,-87.6"/>
</a>
</g>
</g>
<!-- Node13&#45;&gt;Node14 -->
<g id="edge13_Node000013_Node000014" class="edge">
<title>Node13&#45;&gt;Node14</title>
<g id="a_edge13_Node000013_Node000014"><a xlink:title=" ">
<path fill="none" stroke="#63b8ff" d="M1392.28,-77.59C1592.78,-54.72 1647.07,-70.83 1843.25,-41.75 1852.69,-40.35 1862.61,-38.54 1872.29,-36.58"/>
<polygon fill="#63b8ff" stroke="#63b8ff" points="1392.1,-74.08 1382.57,-78.71 1392.9,-81.04 1392.1,-74.08"/>
</a>
</g>
</g>
<!-- Node15 -->
<g id="Node000015" class="node">
<title>Node15</title>
<g id="a_Node000015"><a xlink:href="../../d8/d04/_c_data_frame_analysis_instrumentation_test_8cc.html" target="_top" xlink:title=" ">
<polygon fill="white" stroke="#666666" points="1328.88,-36.12 1175.62,-36.12 1175.62,-5.62 1328.88,-5.62 1328.88,-36.12"/>
<text text-anchor="start" x="1183.62" y="-22.62" font-family="Helvetica,sans-Serif" font-size="10.00">lib/api/unittest/CDataFrame</text>
<text text-anchor="middle" x="1252.25" y="-11.38" font-family="Helvetica,sans-Serif" font-size="10.00">AnalysisInstrumentationTest.cc</text>
</a>
</g>
</g>
<!-- Node13&#45;&gt;Node15 -->
<g id="edge14_Node000013_Node000015" class="edge">
<title>Node13&#45;&gt;Node15</title>
<g id="a_edge14_Node000013_Node000015"><a xlink:title=" ">
<path fill="none" stroke="#63b8ff" d="M1283.16,-67.99C1276.12,-57.48 1268.09,-45.5 1261.98,-36.39"/>
<polygon fill="#63b8ff" stroke="#63b8ff" points="1280.19,-69.85 1288.67,-76.21 1286.01,-65.96 1280.19,-69.85"/>
</a>
</g>
</g>
<!-- Node13&#45;&gt;Node16 -->
<g id="edge15_Node000013_Node000016" class="edge">
<title>Node13&#45;&gt;Node16</title>
<g id="a_edge15_Node000013_Node000016"><a xlink:title=" ">
<path fill="none" stroke="#63b8ff" d="M1392.42,-77.61C1673.34,-48.82 1749.63,-84.71 2025.25,-41.75 2033.71,-40.43 2042.59,-38.59 2051.18,-36.55"/>
<polygon fill="#63b8ff" stroke="#63b8ff" points="1392.14,-74.12 1382.56,-78.64 1392.87,-81.08 1392.14,-74.12"/>
</a>
</g>
</g>
<!-- Node13&#45;&gt;Node17 -->
<g id="edge18_Node000013_Node000017" class="edge">
<title>Node13&#45;&gt;Node17</title>
<g id="a_edge18_Node000013_Node000017"><a xlink:title=" ">
<path fill="none" stroke="#63b8ff" d="M1392.25,-77.65C1741.48,-43.61 1835.76,-93.35 2179.25,-41.75 2187.85,-40.46 2196.88,-38.6 2205.61,-36.53"/>
<polygon fill="#63b8ff" stroke="#63b8ff" points="1392.16,-74.14 1382.55,-78.61 1392.85,-81.1 1392.16,-74.14"/>
</a>
</g>
</g>
<!-- Node13&#45;&gt;Node18 -->
<g id="edge19_Node000013_Node000018" class="edge">
<title>Node13&#45;&gt;Node18</title>
<g id="a_edge19_Node000013_Node000018"><a xlink:title=" ">
<path fill="none" stroke="#63b8ff" d="M1206.3,-80.12C1141.07,-71.18 1051.96,-57.75 974.25,-41.75 966.81,-40.22 959.02,-38.43 951.36,-36.56"/>
<polygon fill="#63b8ff" stroke="#63b8ff" points="1205.49,-83.55 1215.87,-81.43 1206.44,-76.61 1205.49,-83.55"/>
</a>
</g>
</g>
<!-- Node13&#45;&gt;Node19 -->
<g id="edge21_Node000013_Node000019" class="edge">
<title>Node13&#45;&gt;Node19</title>
<g id="a_edge21_Node000013_Node000019"><a xlink:title=" ">
<path fill="none" stroke="#63b8ff" d="M1240.34,-73.96C1208.57,-64.23 1169.26,-52.19 1136.43,-42.14"/>
<polygon fill="#63b8ff" stroke="#63b8ff" points="1239.21,-77.27 1249.8,-76.86 1241.26,-70.58 1239.21,-77.27"/>
</a>
</g>
</g>
<!-- Node20 -->
<g id="Node000020" class="node">
<title>Node20</title>
<g id="a_Node000020"><a xlink:href="../../d1/dd0/_c_data_summarization_json_serializer_test_8cc.html" target="_top" xlink:title=" ">
<polygon fill="white" stroke="#666666" points="1520,-36.12 1346.5,-36.12 1346.5,-5.62 1520,-5.62 1520,-36.12"/>
<text text-anchor="start" x="1354.5" y="-22.62" font-family="Helvetica,sans-Serif" font-size="10.00">lib/api/unittest/CDataSummarization</text>
<text text-anchor="middle" x="1433.25" y="-11.38" font-family="Helvetica,sans-Serif" font-size="10.00">JsonSerializerTest.cc</text>
</a>
</g>
</g>
<!-- Node13&#45;&gt;Node20 -->
<g id="edge22_Node000013_Node000020" class="edge">
<title>Node13&#45;&gt;Node20</title>
<g id="a_edge22_Node000013_Node000020"><a xlink:title=" ">
<path fill="none" stroke="#63b8ff" d="M1337.49,-71.99C1359.06,-60.7 1385.55,-46.84 1405.2,-36.56"/>
<polygon fill="#63b8ff" stroke="#63b8ff" points="1335.92,-68.86 1328.68,-76.6 1339.16,-75.06 1335.92,-68.86"/>
</a>
</g>
</g>
<!-- Node13&#45;&gt;Node21 -->
<g id="edge23_Node000013_Node000021" class="edge">
<title>Node13&#45;&gt;Node21</title>
<g id="a_edge23_Node000013_Node000021"><a xlink:title=" ">
<path fill="none" stroke="#63b8ff" d="M1392.35,-77.52C1528.33,-59.56 1565.93,-67.18 1697.25,-41.75 1704.73,-40.3 1712.57,-38.49 1720.22,-36.55"/>
<polygon fill="#63b8ff" stroke="#63b8ff" points="1392.02,-74.03 1382.58,-78.83 1392.96,-80.97 1392.02,-74.03"/>
</a>
</g>
</g>
<!-- Node22 -->
<g id="Node000022" class="node">
<title>Node22</title>
<g id="a_Node000022"><a xlink:href="../../d2/d06/_c_boosted_tree_test_8cc.html" target="_top" xlink:title=" ">
<polygon fill="white" stroke="#666666" points="1688,-36.12 1538.5,-36.12 1538.5,-5.62 1688,-5.62 1688,-36.12"/>
<text text-anchor="start" x="1546.5" y="-22.62" font-family="Helvetica,sans-Serif" font-size="10.00">lib/maths/analytics</text>
<text text-anchor="middle" x="1613.25" y="-11.38" font-family="Helvetica,sans-Serif" font-size="10.00">/unittest/CBoostedTreeTest.cc</text>
</a>
</g>
</g>
<!-- Node13&#45;&gt;Node22 -->
<g id="edge24_Node000013_Node000022" class="edge">
<title>Node13&#45;&gt;Node22</title>
<g id="a_edge24_Node000013_Node000022"><a xlink:title=" ">
<path fill="none" stroke="#63b8ff" d="M1379,-74.93C1423.3,-65.36 1479.38,-53.1 1529.25,-41.75 1536.56,-40.09 1544.21,-38.32 1551.8,-36.54"/>
<polygon fill="#63b8ff" stroke="#63b8ff" points="1378.52,-71.45 1369.49,-76.98 1380,-78.29 1378.52,-71.45"/>
</a>
</g>
</g>
<!-- Node30&#45;&gt;Node8 -->
<g id="edge53_Node000030_Node000008" class="edge">
<title>Node30&#45;&gt;Node8</title>
<g id="a_edge53_Node000030_Node000008"><a xlink:title=" ">
<path fill="none" stroke="#63b8ff" d="M237.4,-204.74C225.42,-197.16 214.03,-187.27 207.25,-174.75 182.73,-129.46 197.09,-65.02 205.49,-36.46"/>
<polygon fill="#63b8ff" stroke="#63b8ff" points="235.34,-207.59 245.74,-209.57 238.84,-201.53 235.34,-207.59"/>
</a>
</g>
</g>
<!-- Node31 -->
<g id="Node000031" class="node">
<title>Node31</title>
<g id="a_Node000031"><a xlink:href="../../db/dd9/_c_data_frame_mock_analysis_runner_8cc.html" target="_top" xlink:title=" ">
<polygon fill="white" stroke="#666666" points="352.25,-174.75 216.25,-174.75 216.25,-144.25 352.25,-144.25 352.25,-174.75"/>
<text text-anchor="start" x="224.25" y="-161.25" font-family="Helvetica,sans-Serif" font-size="10.00">lib/api/unittest/CDataFrame</text>
<text text-anchor="middle" x="284.25" y="-150" font-family="Helvetica,sans-Serif" font-size="10.00">MockAnalysisRunner.cc</text>
</a>
</g>
</g>
<!-- Node30&#45;&gt;Node31 -->
<g id="edge54_Node000030_Node000031" class="edge">
<title>Node30&#45;&gt;Node31</title>
<g id="a_edge54_Node000030_Node000031"><a xlink:title=" ">
<path fill="none" stroke="#63b8ff" d="M284.25,-199.06C284.25,-190.89 284.25,-182.16 284.25,-175.08"/>
<polygon fill="#63b8ff" stroke="#63b8ff" points="280.75,-198.85 284.25,-208.85 287.75,-198.85 280.75,-198.85"/>
</a>
</g>
</g>
</g>
</svg>
