<?xml version="1.0" encoding="UTF-8" standalone="no"?>
<!DOCTYPE svg PUBLIC "-//W3C//DTD SVG 1.1//EN"
 "http://www.w3.org/Graphics/SVG/1.1/DTD/svg11.dtd">
<!-- Generated by graphviz version 10.0.1 (20240210.2158)
 -->
<!-- Title: ml::model::CStrKeyPrEqual::equal Pages: 1 -->
<svg width="318pt" height="186pt"
 viewBox="0.00 0.00 317.50 185.50" xmlns="http://www.w3.org/2000/svg" xmlns:xlink="http://www.w3.org/1999/xlink">

<svg id="main" version="1.1" xmlns="http://www.w3.org/2000/svg" xmlns:xlink="http://www.w3.org/1999/xlink" xml:space="preserve" onload="init(evt)">
<style type="text/css"><![CDATA[
.node, .edge {opacity: 0.7;}
.node.selected, .edge.selected {opacity: 1;}
.edge:hover path { stroke: red; }
.edge:hover polygon { stroke: red; fill: red; }
]]></style>
<script type="application/ecmascript" xlink:href="../../svg.min.js"/>
<svg id="graph" class="graph">
<g id="graph0" class="graph" transform="scale(1 1) rotate(0) translate(4 181.5)">
<title>ml::model::CStrKeyPrEqual::equal</title>
<!-- Node1 -->
<g id="Node000001" class="node">
<title>Node1</title>
<g id="a_Node000001"><a xlink:title=" ">
<polygon fill="#999999" stroke="#666666" points="309.5,-103.5 172.75,-103.5 172.75,-73 309.5,-73 309.5,-103.5"/>
<text text-anchor="start" x="180.75" y="-90" font-family="Helvetica,sans-Serif" font-size="10.00">ml::model::CStrKeyPrEqual</text>
<text text-anchor="middle" x="241.12" y="-78.75" font-family="Helvetica,sans-Serif" font-size="10.00">::equal</text>
</a>
</g>
</g>
<!-- Node2 -->
<g id="Node000002" class="node">
<title>Node2</title>
<g id="a_Node000002"><a xlink:href="../../d3/d2d/classml_1_1model_1_1_c_str_key_pr_equal.html#a2441a608dd1a2c4ccc0141a3c9f614fe" target="_top" xlink:title=" ">
<polygon fill="white" stroke="#666666" points="136.75,-177.5 0,-177.5 0,-147 136.75,-147 136.75,-177.5"/>
<text text-anchor="start" x="8" y="-164" font-family="Helvetica,sans-Serif" font-size="10.00">ml::model::CStrKeyPrEqual</text>
<text text-anchor="middle" x="68.38" y="-152.75" font-family="Helvetica,sans-Serif" font-size="10.00">::operator()</text>
</a>
</g>
</g>
<!-- Node1&#45;&gt;Node2 -->
<g id="edge1_Node000001_Node000002" class="edge">
<title>Node1&#45;&gt;Node2</title>
<g id="a_edge1_Node000001_Node000002"><a xlink:title=" ">
<path fill="none" stroke="#63b8ff" d="M198.52,-108.99C179.81,-118.05 157.35,-128.57 136.75,-137.25 129.28,-140.4 121.26,-143.56 113.45,-146.53"/>
<polygon fill="#63b8ff" stroke="#63b8ff" points="199.96,-112.18 207.42,-104.65 196.9,-105.89 199.96,-112.18"/>
</a>
</g>
</g>
<!-- Node3 -->
<g id="Node000003" class="node">
<title>Node3</title>
<g id="a_Node000003"><a xlink:href="../../d3/d2d/classml_1_1model_1_1_c_str_key_pr_equal.html#a0305f3e7746e3104102847c07d149c81" target="_top" xlink:title=" ">
<polygon fill="white" stroke="#666666" points="136.75,-128.5 0,-128.5 0,-98 136.75,-98 136.75,-128.5"/>
<text text-anchor="start" x="8" y="-115" font-family="Helvetica,sans-Serif" font-size="10.00">ml::model::CStrKeyPrEqual</text>
<text text-anchor="middle" x="68.38" y="-103.75" font-family="Helvetica,sans-Serif" font-size="10.00">::operator()</text>
</a>
</g>
</g>
<!-- Node1&#45;&gt;Node3 -->
<g id="edge2_Node000001_Node000003" class="edge">
<title>Node1&#45;&gt;Node3</title>
<g id="a_edge2_Node000001_Node000003"><a xlink:title=" ">
<path fill="none" stroke="#63b8ff" d="M161.33,-99.79C153.27,-100.97 145.13,-102.16 137.21,-103.32"/>
<polygon fill="#63b8ff" stroke="#63b8ff" points="161.76,-103.26 171.14,-98.35 160.74,-96.34 161.76,-103.26"/>
</a>
</g>
</g>
<!-- Node4 -->
<g id="Node000004" class="node">
<title>Node4</title>
<g id="a_Node000004"><a xlink:href="../../d3/d2d/classml_1_1model_1_1_c_str_key_pr_equal.html#aa6390d09b49e887a1cbdaaed7fac8592" target="_top" xlink:title=" ">
<polygon fill="white" stroke="#666666" points="136.75,-79.5 0,-79.5 0,-49 136.75,-49 136.75,-79.5"/>
<text text-anchor="start" x="8" y="-66" font-family="Helvetica,sans-Serif" font-size="10.00">ml::model::CStrKeyPrEqual</text>
<text text-anchor="middle" x="68.38" y="-54.75" font-family="Helvetica,sans-Serif" font-size="10.00">::operator()</text>
</a>
</g>
</g>
<!-- Node1&#45;&gt;Node4 -->
<g id="edge3_Node000001_Node000004" class="edge">
<title>Node1&#45;&gt;Node4</title>
<g id="a_edge3_Node000001_Node000004"><a xlink:title=" ">
<path fill="none" stroke="#63b8ff" d="M161.33,-77.17C153.27,-76.04 145.13,-74.9 137.21,-73.78"/>
<polygon fill="#63b8ff" stroke="#63b8ff" points="160.75,-80.63 171.14,-78.55 161.73,-73.7 160.75,-80.63"/>
</a>
</g>
</g>
<!-- Node5 -->
<g id="Node000005" class="node">
<title>Node5</title>
<g id="a_Node000005"><a xlink:href="../../d3/d2d/classml_1_1model_1_1_c_str_key_pr_equal.html#a9c57acc2709610599ddbe40e9b340368" target="_top" xlink:title=" ">
<polygon fill="white" stroke="#666666" points="136.75,-30.5 0,-30.5 0,0 136.75,0 136.75,-30.5"/>
<text text-anchor="start" x="8" y="-17" font-family="Helvetica,sans-Serif" font-size="10.00">ml::model::CStrKeyPrEqual</text>
<text text-anchor="middle" x="68.38" y="-5.75" font-family="Helvetica,sans-Serif" font-size="10.00">::operator()</text>
</a>
</g>
</g>
<!-- Node1&#45;&gt;Node5 -->
<g id="edge4_Node000001_Node000005" class="edge">
<title>Node1&#45;&gt;Node5</title>
<g id="a_edge4_Node000001_Node000005"><a xlink:title=" ">
<path fill="none" stroke="#63b8ff" d="M198.06,-67.8C179.43,-58.98 157.15,-48.76 136.75,-40.25 129.15,-37.08 120.99,-33.88 113.06,-30.89"/>
<polygon fill="#63b8ff" stroke="#63b8ff" points="196.39,-70.88 206.92,-72.02 199.4,-64.56 196.39,-70.88"/>
</a>
</g>
</g>
</g>
</svg>
</svg>

<style type='text/css'>
<![CDATA[
[data-mouse-over-selected='false'] { opacity: 0.7; }
[data-mouse-over-selected='true']  { opacity: 1.0; }
]]>
</style>
<script type="application/ecmascript"><![CDATA[
document.addEventListener('DOMContentLoaded', (event) => {
  highlightEdges();
  highlightAdjacentNodes();
});
]]></script>
</svg>
