<?xml version="1.0" encoding="UTF-8" standalone="no"?>
<!DOCTYPE svg PUBLIC "-//W3C//DTD SVG 1.1//EN"
 "http://www.w3.org/Graphics/SVG/1.1/DTD/svg11.dtd">
<!-- Generated by graphviz version 10.0.1 (20240210.2158)
 -->
<!-- Title: ml::maths::common::CPrior::CApplyOffset Pages: 1 -->
<svg width="786pt" height="148pt"
 viewBox="0.00 0.00 786.25 147.75" xmlns="http://www.w3.org/2000/svg" xmlns:xlink="http://www.w3.org/1999/xlink">
<g id="graph0" class="graph" transform="scale(1 1) rotate(0) translate(4 143.75)">
<title>ml::maths::common::CPrior::CApplyOffset</title>
<!-- Node1 -->
<g id="Node000001" class="node">
<title>Node1</title>
<g id="a_Node000001"><a xlink:title="Apply a specified offset to a prior.">
<polygon fill="#999999" stroke="#666666" points="778.25,-75.5 669.25,-75.5 669.25,-45 778.25,-45 778.25,-75.5"/>
<text text-anchor="start" x="677.25" y="-62" font-family="Helvetica,sans-Serif" font-size="10.00">ml::maths::common::</text>
<text text-anchor="middle" x="723.75" y="-50.75" font-family="Helvetica,sans-Serif" font-size="10.00">CPrior::CApplyOffset</text>
</a>
</g>
</g>
<!-- Node2 -->
<g id="Node000002" class="node">
<title>Node2</title>
<g id="a_Node000002"><a xlink:href="../../d2/d48/classml_1_1maths_1_1common_1_1_c_prior_1_1_c_offset_parameters.html" target="_top" xlink:title="Defines a set of operations to adjust the offset parameter of those priors with non&#45;negative support.">
<polygon fill="white" stroke="#666666" points="632.25,-75.5 497.75,-75.5 497.75,-45 632.25,-45 632.25,-75.5"/>
<text text-anchor="start" x="505.75" y="-62" font-family="Helvetica,sans-Serif" font-size="10.00">ml::maths::common::</text>
<text text-anchor="middle" x="565" y="-50.75" font-family="Helvetica,sans-Serif" font-size="10.00">CPrior::COffsetParameters</text>
</a>
</g>
</g>
<!-- Node2&#45;&gt;Node1 -->
<g id="edge1_Node000001_Node000002" class="edge">
<title>Node2&#45;&gt;Node1</title>
<g id="a_edge1_Node000001_Node000002"><a xlink:title=" ">
<path fill="none" stroke="#63b8ff" d="M643.98,-60.25C652.44,-60.25 660.91,-60.25 668.99,-60.25"/>
<polygon fill="#63b8ff" stroke="#63b8ff" points="643.99,-56.75 633.99,-60.25 643.99,-63.75 643.99,-56.75"/>
</a>
</g>
</g>
<!-- Node3 -->
<g id="Node000003" class="node">
<title>Node3</title>
<g id="a_Node000003"><a xlink:href="../../d6/d99/classml_1_1maths_1_1common_1_1_c_prior.html" target="_top" xlink:title="Interface for a prior distribution function.">
<polygon fill="white" stroke="#666666" points="356,-132.5 247,-132.5 247,-102 356,-102 356,-132.5"/>
<text text-anchor="start" x="255" y="-119" font-family="Helvetica,sans-Serif" font-size="10.00">ml::maths::common::</text>
<text text-anchor="middle" x="301.5" y="-107.75" font-family="Helvetica,sans-Serif" font-size="10.00">CPrior</text>
</a>
</g>
</g>
<!-- Node3&#45;&gt;Node2 -->
<g id="edge2_Node000002_Node000003" class="edge">
<title>Node3&#45;&gt;Node2</title>
<g id="a_edge2_Node000002_Node000003"><a xlink:title=" ">
<path fill="none" stroke="#9a32cd" stroke-dasharray="5,2" d="M367.51,-113.41C401.39,-110.35 443.26,-104.9 479.75,-95.25 497.51,-90.55 516.48,-82.92 531.9,-75.99"/>
<polygon fill="#9a32cd" stroke="#9a32cd" points="367.52,-109.9 357.85,-114.23 368.11,-116.87 367.52,-109.9"/>
</a>
</g>
<text text-anchor="middle" x="429.12" y="-113" font-family="Helvetica,sans-Serif" font-size="10.00" fill="grey"> m_Prior</text>
</g>
<!-- Node4 -->
<g id="Node000004" class="node">
<title>Node4</title>
<g id="a_Node000004"><a xlink:href="../../d5/d2c/classml_1_1core_1_1_c_float_storage.html" target="_top" xlink:title="This class should be used in place of float whenever that class is required.">
<polygon fill="white" stroke="#666666" points="120.25,-126.88 0,-126.88 0,-107.62 120.25,-107.62 120.25,-126.88"/>
<text text-anchor="middle" x="60.12" y="-113.38" font-family="Helvetica,sans-Serif" font-size="10.00">ml::core::CFloatStorage</text>
</a>
</g>
</g>
<!-- Node4&#45;&gt;Node3 -->
<g id="edge3_Node000003_Node000004" class="edge">
<title>Node4&#45;&gt;Node3</title>
<g id="a_edge3_Node000003_Node000004"><a xlink:title=" ">
<path fill="none" stroke="#9a32cd" stroke-dasharray="5,2" d="M131.75,-117.25C168.49,-117.25 212.69,-117.25 246.64,-117.25"/>
<polygon fill="#9a32cd" stroke="#9a32cd" points="132.12,-113.75 122.12,-117.25 132.12,-120.75 132.12,-113.75"/>
</a>
</g>
<text text-anchor="middle" x="181.38" y="-130.25" font-family="Helvetica,sans-Serif" font-size="10.00" fill="grey"> m_DecayRate</text>
<text text-anchor="middle" x="181.38" y="-119" font-family="Helvetica,sans-Serif" font-size="10.00" fill="grey">m_NumberSamples</text>
</g>
<!-- Node5 -->
<g id="Node000005" class="node">
<title>Node5</title>
<g id="a_Node000005"><a xlink:href="../../d6/de8/classml_1_1core_1_1_c_small_vector.html" target="_top" xlink:title="This inherits from boost::container::small_vector.">
<polygon fill="white" stroke="#666666" points="360.5,-79.5 242.5,-79.5 242.5,-49 360.5,-49 360.5,-79.5"/>
<text text-anchor="start" x="250.5" y="-66" font-family="Helvetica,sans-Serif" font-size="10.00">ml::core::CSmallVector</text>
<text text-anchor="middle" x="301.5" y="-54.75" font-family="Helvetica,sans-Serif" font-size="10.00">&lt; typename, size_t &gt;</text>
</a>
</g>
</g>
<!-- Node5&#45;&gt;Node2 -->
<g id="edge4_Node000002_Node000005" class="edge">
<title>Node5&#45;&gt;Node2</title>
<g id="a_edge4_Node000002_Node000005"><a xlink:title=" ">
<path fill="none" stroke="#9a32cd" stroke-dasharray="5,2" d="M372.3,-61.64C374.39,-61.59 376.46,-61.54 378.5,-61.5 417.94,-60.65 462.11,-60.33 497.45,-60.22"/>
<polygon fill="#9a32cd" stroke="#9a32cd" points="372.41,-58.14 362.51,-61.92 372.61,-65.14 372.41,-58.14"/>
</a>
</g>
<text text-anchor="middle" x="429.12" y="-85.5" font-family="Helvetica,sans-Serif" font-size="10.00" fill="grey"> m_ResamplesWeights</text>
<text text-anchor="middle" x="429.12" y="-74.25" font-family="Helvetica,sans-Serif" font-size="10.00" fill="grey">m_Samples</text>
<text text-anchor="middle" x="429.12" y="-63" font-family="Helvetica,sans-Serif" font-size="10.00" fill="grey">m_Weights</text>
</g>
<!-- Node6 -->
<g id="Node000006" class="node">
<title>Node6</title>
<g id="a_Node000006"><a xlink:title=" ">
<polygon fill="white" stroke="#666666" points="117.62,-52.5 2.62,-52.5 2.62,-22 117.62,-22 117.62,-52.5"/>
<text text-anchor="start" x="10.62" y="-39" font-family="Helvetica,sans-Serif" font-size="10.00">boost::container::small</text>
<text text-anchor="middle" x="60.12" y="-27.75" font-family="Helvetica,sans-Serif" font-size="10.00">_vector&lt; T, N &gt;</text>
</a>
</g>
</g>
<!-- Node6&#45;&gt;Node5 -->
<g id="edge5_Node000005_Node000006" class="edge">
<title>Node6&#45;&gt;Node5</title>
<g id="a_edge5_Node000005_Node000006"><a xlink:title=" ">
<path fill="none" stroke="#63b8ff" d="M129.14,-44.92C164.78,-48.94 207.99,-53.82 242.1,-57.66"/>
<polygon fill="#63b8ff" stroke="#63b8ff" points="129.69,-41.46 119.36,-43.82 128.9,-48.42 129.69,-41.46"/>
</a>
</g>
</g>
<!-- Node7 -->
<g id="Node000007" class="node">
<title>Node7</title>
<g id="a_Node000007"><a xlink:href="../../d6/de8/classml_1_1core_1_1_c_small_vector.html" target="_top" xlink:title=" ">
<polygon fill="white" stroke="#666666" points="360.5,-30.5 242.5,-30.5 242.5,0 360.5,0 360.5,-30.5"/>
<text text-anchor="start" x="250.5" y="-17" font-family="Helvetica,sans-Serif" font-size="10.00">ml::core::CSmallVector</text>
<text text-anchor="middle" x="301.5" y="-5.75" font-family="Helvetica,sans-Serif" font-size="10.00">&lt; double, 1 &gt;</text>
</a>
</g>
</g>
<!-- Node6&#45;&gt;Node7 -->
<g id="edge7_Node000007_Node000006" class="edge">
<title>Node6&#45;&gt;Node7</title>
<g id="a_edge7_Node000007_Node000006"><a xlink:title=" ">
<path fill="none" stroke="#63b8ff" d="M129.14,-31C164.78,-27.72 207.99,-23.75 242.1,-20.62"/>
<polygon fill="#63b8ff" stroke="#63b8ff" points="129,-27.5 119.36,-31.9 129.64,-34.47 129,-27.5"/>
</a>
</g>
</g>
<!-- Node7&#45;&gt;Node2 -->
<g id="edge6_Node000002_Node000007" class="edge">
<title>Node7&#45;&gt;Node2</title>
<g id="a_edge6_Node000002_Node000007"><a xlink:title=" ">
<path fill="none" stroke="#9a32cd" stroke-dasharray="5,2" d="M372.07,-26.72C404.77,-32.16 444.28,-38.81 479.75,-45 485.46,-46 491.39,-47.04 497.33,-48.1"/>
<polygon fill="#9a32cd" stroke="#9a32cd" points="372.74,-23.28 362.3,-25.09 371.59,-30.18 372.74,-23.28"/>
</a>
</g>
<text text-anchor="middle" x="429.12" y="-47" font-family="Helvetica,sans-Serif" font-size="10.00" fill="grey"> m_Resamples</text>
</g>
</g>
</svg>
