<?xml version="1.0" encoding="UTF-8" standalone="no"?>
<!DOCTYPE svg PUBLIC "-//W3C//DTD SVG 1.1//EN"
 "http://www.w3.org/Graphics/SVG/1.1/DTD/svg11.dtd">
<!-- Generated by graphviz version 10.0.1 (20240210.2158)
 -->
<!-- Title: ml::maths::common::CPoissonMeanConjugate::sampleMarginalLikelihood Pages: 1 -->
<svg width="651pt" height="582pt"
 viewBox="0.00 0.00 651.00 582.25" xmlns="http://www.w3.org/2000/svg" xmlns:xlink="http://www.w3.org/1999/xlink">
<g id="graph0" class="graph" transform="scale(1 1) rotate(0) translate(4 578.25)">
<title>ml::maths::common::CPoissonMeanConjugate::sampleMarginalLikelihood</title>
<!-- Node1 -->
<g id="Node000001" class="node">
<title>Node1</title>
<g id="a_Node000001"><a xlink:title=" ">
<polygon fill="#999999" stroke="#666666" points="643,-68.5 509.25,-68.5 509.25,-26.75 643,-26.75 643,-68.5"/>
<text text-anchor="start" x="517.25" y="-55" font-family="Helvetica,sans-Serif" font-size="10.00">ml::maths::common::</text>
<text text-anchor="start" x="517.25" y="-43.75" font-family="Helvetica,sans-Serif" font-size="10.00">CPoissonMeanConjugate</text>
<text text-anchor="middle" x="576.12" y="-32.5" font-family="Helvetica,sans-Serif" font-size="10.00">::sampleMarginalLikelihood</text>
</a>
</g>
</g>
<!-- Node2 -->
<g id="Node000002" class="node">
<title>Node2</title>
<g id="a_Node000002"><a xlink:href="../../d6/d88/classml_1_1maths_1_1common_1_1_c_poisson_mean_conjugate.html#a3a130962f14186a49d17b9fb2dd28d23" target="_top" xlink:title=" ">
<polygon fill="white" stroke="#666666" points="473.25,-289.5 346.25,-289.5 346.25,-247.75 473.25,-247.75 473.25,-289.5"/>
<text text-anchor="start" x="354.25" y="-276" font-family="Helvetica,sans-Serif" font-size="10.00">ml::maths::common::</text>
<text text-anchor="start" x="354.25" y="-264.75" font-family="Helvetica,sans-Serif" font-size="10.00">CPoissonMeanConjugate</text>
<text text-anchor="middle" x="409.75" y="-253.5" font-family="Helvetica,sans-Serif" font-size="10.00">::adjustOffset</text>
</a>
</g>
</g>
<!-- Node1&#45;&gt;Node2 -->
<g id="edge1_Node000001_Node000002" class="edge">
<title>Node1&#45;&gt;Node2</title>
<g id="a_edge1_Node000001_Node000002"><a xlink:title=" ">
<path fill="none" stroke="#63b8ff" d="M552.62,-77.89C518.81,-123.35 455.76,-208.11 426.46,-247.5"/>
<polygon fill="#63b8ff" stroke="#63b8ff" points="555.3,-80.14 558.46,-70.03 549.68,-75.96 555.3,-80.14"/>
</a>
</g>
</g>
<!-- Node18 -->
<g id="Node000018" class="node">
<title>Node18</title>
<g id="a_Node000018"><a xlink:href="../../d2/d79/_c_poisson_mean_conjugate_test_8cc.html#a7f012ec2e54e33b2d083a82f4e481d86" target="_top" xlink:title=" ">
<polygon fill="white" stroke="#666666" points="147.25,-56.25 0,-56.25 0,-37 147.25,-37 147.25,-56.25"/>
<text text-anchor="middle" x="73.62" y="-42.75" font-family="Helvetica,sans-Serif" font-size="10.00">BOOST_AUTO_TEST_CASE</text>
</a>
</g>
</g>
<!-- Node1&#45;&gt;Node18 -->
<g id="edge20_Node000001_Node000018" class="edge">
<title>Node1&#45;&gt;Node18</title>
<g id="a_edge20_Node000001_Node000018"><a xlink:title=" ">
<path fill="none" stroke="#63b8ff" d="M497.6,-47.47C402.06,-47.28 240.92,-46.96 147.54,-46.77"/>
<polygon fill="#63b8ff" stroke="#63b8ff" points="497.4,-50.97 507.41,-47.49 497.41,-43.97 497.4,-50.97"/>
</a>
</g>
</g>
<!-- Node19 -->
<g id="Node000019" class="node">
<title>Node19</title>
<g id="a_Node000019"><a xlink:href="../../d2/d79/_c_poisson_mean_conjugate_test_8cc.html#a61f30cdbee8cefe63c804f375a4d0973" target="_top" xlink:title=" ">
<polygon fill="white" stroke="#666666" points="147.25,-19.25 0,-19.25 0,0 147.25,0 147.25,-19.25"/>
<text text-anchor="middle" x="73.62" y="-5.75" font-family="Helvetica,sans-Serif" font-size="10.00">BOOST_AUTO_TEST_CASE</text>
</a>
</g>
</g>
<!-- Node1&#45;&gt;Node19 -->
<g id="edge21_Node000001_Node000019" class="edge">
<title>Node1&#45;&gt;Node19</title>
<g id="a_edge21_Node000001_Node000019"><a xlink:title=" ">
<path fill="none" stroke="#63b8ff" d="M497.6,-41.74C402.06,-34.48 240.92,-22.25 147.54,-15.16"/>
<polygon fill="#63b8ff" stroke="#63b8ff" points="497.18,-45.22 507.41,-42.48 497.71,-38.24 497.18,-45.22"/>
</a>
</g>
</g>
<!-- Node3 -->
<g id="Node000003" class="node">
<title>Node3</title>
<g id="a_Node000003"><a xlink:href="../../d6/d88/classml_1_1maths_1_1common_1_1_c_poisson_mean_conjugate.html#aaecfd47149c25c9d39e2d39c16db79f6" target="_top" xlink:title=" ">
<polygon fill="white" stroke="#666666" points="310.25,-289.5 183.25,-289.5 183.25,-247.75 310.25,-247.75 310.25,-289.5"/>
<text text-anchor="start" x="191.25" y="-276" font-family="Helvetica,sans-Serif" font-size="10.00">ml::maths::common::</text>
<text text-anchor="start" x="191.25" y="-264.75" font-family="Helvetica,sans-Serif" font-size="10.00">CPoissonMeanConjugate</text>
<text text-anchor="middle" x="246.75" y="-253.5" font-family="Helvetica,sans-Serif" font-size="10.00">::addSamples</text>
</a>
</g>
</g>
<!-- Node2&#45;&gt;Node3 -->
<g id="edge2_Node000002_Node000003" class="edge">
<title>Node2&#45;&gt;Node3</title>
<g id="a_edge2_Node000002_Node000003"><a xlink:title=" ">
<path fill="none" stroke="#63b8ff" d="M334.72,-261.89C326.64,-261.85 318.47,-261.89 310.55,-262.02"/>
<polygon fill="#63b8ff" stroke="#63b8ff" points="334.49,-265.39 344.53,-262.01 334.57,-258.39 334.49,-265.39"/>
</a>
</g>
</g>
<!-- Node3&#45;&gt;Node2 -->
<g id="edge3_Node000003_Node000002" class="edge">
<title>Node3&#45;&gt;Node2</title>
<g id="a_edge3_Node000003_Node000002"><a xlink:title=" ">
<path fill="none" stroke="#63b8ff" d="M321.88,-275.36C329.96,-275.4 338.12,-275.36 346.04,-275.23"/>
<polygon fill="#63b8ff" stroke="#63b8ff" points="322.1,-271.86 312.06,-275.25 322.02,-278.86 322.1,-271.86"/>
</a>
</g>
</g>
<!-- Node4 -->
<g id="Node000004" class="node">
<title>Node4</title>
<g id="a_Node000004"><a xlink:href="../../d2/d79/_c_poisson_mean_conjugate_test_8cc.html#ac27f2bd18c833ced31631748c67458a3" target="_top" xlink:title=" ">
<polygon fill="white" stroke="#666666" points="147.25,-352.25 0,-352.25 0,-333 147.25,-333 147.25,-352.25"/>
<text text-anchor="middle" x="73.62" y="-338.75" font-family="Helvetica,sans-Serif" font-size="10.00">BOOST_AUTO_TEST_CASE</text>
</a>
</g>
</g>
<!-- Node3&#45;&gt;Node4 -->
<g id="edge4_Node000003_Node000004" class="edge">
<title>Node3&#45;&gt;Node4</title>
<g id="a_edge4_Node000003_Node000004"><a xlink:title=" ">
<path fill="none" stroke="#63b8ff" d="M203.95,-295.76C186.89,-305.93 166.64,-316.88 147.25,-324.62 139.65,-327.66 131.39,-330.29 123.26,-332.53"/>
<polygon fill="#63b8ff" stroke="#63b8ff" points="205.58,-298.87 212.3,-290.68 201.94,-292.89 205.58,-298.87"/>
</a>
</g>
</g>
<!-- Node5 -->
<g id="Node000005" class="node">
<title>Node5</title>
<g id="a_Node000005"><a xlink:href="../../d2/d79/_c_poisson_mean_conjugate_test_8cc.html#a9e20d4075095de6aa6f34f74b203a493" target="_top" xlink:title=" ">
<polygon fill="white" stroke="#666666" points="147.25,-315.25 0,-315.25 0,-296 147.25,-296 147.25,-315.25"/>
<text text-anchor="middle" x="73.62" y="-301.75" font-family="Helvetica,sans-Serif" font-size="10.00">BOOST_AUTO_TEST_CASE</text>
</a>
</g>
</g>
<!-- Node3&#45;&gt;Node5 -->
<g id="edge5_Node000003_Node000005" class="edge">
<title>Node3&#45;&gt;Node5</title>
<g id="a_edge5_Node000003_Node000005"><a xlink:title=" ">
<path fill="none" stroke="#63b8ff" d="M171.85,-284.6C154.69,-288.31 136.89,-292.16 121.28,-295.54"/>
<polygon fill="#63b8ff" stroke="#63b8ff" points="172.49,-288.05 181.52,-282.51 171.01,-281.2 172.49,-288.05"/>
</a>
</g>
</g>
<!-- Node6 -->
<g id="Node000006" class="node">
<title>Node6</title>
<g id="a_Node000006"><a xlink:href="../../d2/d79/_c_poisson_mean_conjugate_test_8cc.html#a5c190761343fe47c41c73e777a93a36b" target="_top" xlink:title=" ">
<polygon fill="white" stroke="#666666" points="147.25,-278.25 0,-278.25 0,-259 147.25,-259 147.25,-278.25"/>
<text text-anchor="middle" x="73.62" y="-264.75" font-family="Helvetica,sans-Serif" font-size="10.00">BOOST_AUTO_TEST_CASE</text>
</a>
</g>
</g>
<!-- Node3&#45;&gt;Node6 -->
<g id="edge6_Node000003_Node000006" class="edge">
<title>Node3&#45;&gt;Node6</title>
<g id="a_edge6_Node000003_Node000006"><a xlink:title=" ">
<path fill="none" stroke="#63b8ff" d="M171.76,-268.62C163.72,-268.62 155.54,-268.62 147.51,-268.62"/>
<polygon fill="#63b8ff" stroke="#63b8ff" points="171.49,-272.13 181.49,-268.63 171.49,-265.13 171.49,-272.13"/>
</a>
</g>
</g>
<!-- Node7 -->
<g id="Node000007" class="node">
<title>Node7</title>
<g id="a_Node000007"><a xlink:href="../../d2/d79/_c_poisson_mean_conjugate_test_8cc.html#a8189fb6a14d4275d48dcc0dc1207fc17" target="_top" xlink:title=" ">
<polygon fill="white" stroke="#666666" points="147.25,-241.25 0,-241.25 0,-222 147.25,-222 147.25,-241.25"/>
<text text-anchor="middle" x="73.62" y="-227.75" font-family="Helvetica,sans-Serif" font-size="10.00">BOOST_AUTO_TEST_CASE</text>
</a>
</g>
</g>
<!-- Node3&#45;&gt;Node7 -->
<g id="edge7_Node000003_Node000007" class="edge">
<title>Node3&#45;&gt;Node7</title>
<g id="a_edge7_Node000003_Node000007"><a xlink:title=" ">
<path fill="none" stroke="#63b8ff" d="M171.85,-252.65C154.69,-248.94 136.89,-245.09 121.28,-241.71"/>
<polygon fill="#63b8ff" stroke="#63b8ff" points="171.01,-256.05 181.52,-254.74 172.49,-249.2 171.01,-256.05"/>
</a>
</g>
</g>
<!-- Node8 -->
<g id="Node000008" class="node">
<title>Node8</title>
<g id="a_Node000008"><a xlink:href="../../d2/d79/_c_poisson_mean_conjugate_test_8cc.html#a0593b6d97cde3e59af064db548633ca0" target="_top" xlink:title=" ">
<polygon fill="white" stroke="#666666" points="147.25,-204.25 0,-204.25 0,-185 147.25,-185 147.25,-204.25"/>
<text text-anchor="middle" x="73.62" y="-190.75" font-family="Helvetica,sans-Serif" font-size="10.00">BOOST_AUTO_TEST_CASE</text>
</a>
</g>
</g>
<!-- Node3&#45;&gt;Node8 -->
<g id="edge8_Node000003_Node000008" class="edge">
<title>Node3&#45;&gt;Node8</title>
<g id="a_edge8_Node000003_Node000008"><a xlink:title=" ">
<path fill="none" stroke="#63b8ff" d="M203.95,-241.49C186.89,-231.32 166.64,-220.37 147.25,-212.62 139.65,-209.59 131.39,-206.96 123.26,-204.72"/>
<polygon fill="#63b8ff" stroke="#63b8ff" points="201.94,-244.36 212.3,-246.57 205.58,-238.38 201.94,-244.36"/>
</a>
</g>
</g>
<!-- Node9 -->
<g id="Node000009" class="node">
<title>Node9</title>
<g id="a_Node000009"><a xlink:href="../../d2/d79/_c_poisson_mean_conjugate_test_8cc.html#a8ba076ed64fdfc9519ac621d60bfdd69" target="_top" xlink:title=" ">
<polygon fill="white" stroke="#666666" points="147.25,-167.25 0,-167.25 0,-148 147.25,-148 147.25,-167.25"/>
<text text-anchor="middle" x="73.62" y="-153.75" font-family="Helvetica,sans-Serif" font-size="10.00">BOOST_AUTO_TEST_CASE</text>
</a>
</g>
</g>
<!-- Node3&#45;&gt;Node9 -->
<g id="edge9_Node000003_Node000009" class="edge">
<title>Node3&#45;&gt;Node9</title>
<g id="a_edge9_Node000003_Node000009"><a xlink:title=" ">
<path fill="none" stroke="#63b8ff" d="M221.89,-239.14C203.57,-218.4 176.51,-191.6 147.25,-175.62 141.44,-172.45 135.06,-169.83 128.57,-167.66"/>
<polygon fill="#63b8ff" stroke="#63b8ff" points="219.02,-241.17 228.2,-246.46 224.32,-236.6 219.02,-241.17"/>
</a>
</g>
</g>
<!-- Node10 -->
<g id="Node000010" class="node">
<title>Node10</title>
<g id="a_Node000010"><a xlink:href="../../d2/d79/_c_poisson_mean_conjugate_test_8cc.html#ac277074ea3869a51720dabd9830b0a07" target="_top" xlink:title=" ">
<polygon fill="white" stroke="#666666" points="147.25,-130.25 0,-130.25 0,-111 147.25,-111 147.25,-130.25"/>
<text text-anchor="middle" x="73.62" y="-116.75" font-family="Helvetica,sans-Serif" font-size="10.00">BOOST_AUTO_TEST_CASE</text>
</a>
</g>
</g>
<!-- Node3&#45;&gt;Node10 -->
<g id="edge10_Node000003_Node000010" class="edge">
<title>Node3&#45;&gt;Node10</title>
<g id="a_edge10_Node000003_Node000010"><a xlink:title=" ">
<path fill="none" stroke="#63b8ff" d="M230.3,-237.57C213.82,-207.67 184.9,-163.43 147.25,-138.62 142.48,-135.48 137.2,-132.88 131.73,-130.74"/>
<polygon fill="#63b8ff" stroke="#63b8ff" points="227.09,-239 234.9,-246.16 233.27,-235.69 227.09,-239"/>
</a>
</g>
</g>
<!-- Node11 -->
<g id="Node000011" class="node">
<title>Node11</title>
<g id="a_Node000011"><a xlink:href="../../d2/d79/_c_poisson_mean_conjugate_test_8cc.html#a2b3ca0dceaafd9f87732e59b47b6ac40" target="_top" xlink:title=" ">
<polygon fill="white" stroke="#666666" points="147.25,-93.25 0,-93.25 0,-74 147.25,-74 147.25,-93.25"/>
<text text-anchor="middle" x="73.62" y="-79.75" font-family="Helvetica,sans-Serif" font-size="10.00">BOOST_AUTO_TEST_CASE</text>
</a>
</g>
</g>
<!-- Node3&#45;&gt;Node11 -->
<g id="edge11_Node000003_Node000011" class="edge">
<title>Node3&#45;&gt;Node11</title>
<g id="a_edge11_Node000003_Node000011"><a xlink:title=" ">
<path fill="none" stroke="#63b8ff" d="M235.56,-236.76C221.73,-198.72 193.31,-135.95 147.25,-101.62 142.98,-98.44 138.21,-95.82 133.22,-93.65"/>
<polygon fill="#63b8ff" stroke="#63b8ff" points="232.13,-237.54 238.74,-245.83 238.74,-235.23 232.13,-237.54"/>
</a>
</g>
</g>
<!-- Node12 -->
<g id="Node000012" class="node">
<title>Node12</title>
<g id="a_Node000012"><a xlink:href="../../d2/d79/_c_poisson_mean_conjugate_test_8cc.html#a2b4217c715aa6a2bab8967004072d2ae" target="_top" xlink:title=" ">
<polygon fill="white" stroke="#666666" points="147.25,-574.25 0,-574.25 0,-555 147.25,-555 147.25,-574.25"/>
<text text-anchor="middle" x="73.62" y="-560.75" font-family="Helvetica,sans-Serif" font-size="10.00">BOOST_AUTO_TEST_CASE</text>
</a>
</g>
</g>
<!-- Node3&#45;&gt;Node12 -->
<g id="edge12_Node000003_Node000012" class="edge">
<title>Node3&#45;&gt;Node12</title>
<g id="a_edge12_Node000003_Node000012"><a xlink:title=" ">
<path fill="none" stroke="#63b8ff" d="M243.89,-301.08C238.76,-359.21 219.49,-481.11 147.25,-546.62 143.79,-549.77 139.86,-552.38 135.67,-554.55"/>
<polygon fill="#63b8ff" stroke="#63b8ff" points="247.37,-301.44 244.67,-291.2 240.4,-300.89 247.37,-301.44"/>
</a>
</g>
</g>
<!-- Node13 -->
<g id="Node000013" class="node">
<title>Node13</title>
<g id="a_Node000013"><a xlink:href="../../d2/d79/_c_poisson_mean_conjugate_test_8cc.html#a77f1f759557467d97e8fb0d39da3db95" target="_top" xlink:title=" ">
<polygon fill="white" stroke="#666666" points="147.25,-537.25 0,-537.25 0,-518 147.25,-518 147.25,-537.25"/>
<text text-anchor="middle" x="73.62" y="-523.75" font-family="Helvetica,sans-Serif" font-size="10.00">BOOST_AUTO_TEST_CASE</text>
</a>
</g>
</g>
<!-- Node3&#45;&gt;Node13 -->
<g id="edge13_Node000003_Node000013" class="edge">
<title>Node3&#45;&gt;Node13</title>
<g id="a_edge13_Node000003_Node000013"><a xlink:title=" ">
<path fill="none" stroke="#63b8ff" d="M241.89,-300.87C233.92,-352.83 210.69,-454.77 147.25,-509.62 143.61,-512.77 139.51,-515.38 135.15,-517.55"/>
<polygon fill="#63b8ff" stroke="#63b8ff" points="245.33,-301.58 243.28,-291.19 238.4,-300.59 245.33,-301.58"/>
</a>
</g>
</g>
<!-- Node14 -->
<g id="Node000014" class="node">
<title>Node14</title>
<g id="a_Node000014"><a xlink:href="../../d2/d79/_c_poisson_mean_conjugate_test_8cc.html#a1d68c9c9ad2692e9d6ddacc5a88211ac" target="_top" xlink:title=" ">
<polygon fill="white" stroke="#666666" points="147.25,-500.25 0,-500.25 0,-481 147.25,-481 147.25,-500.25"/>
<text text-anchor="middle" x="73.62" y="-486.75" font-family="Helvetica,sans-Serif" font-size="10.00">BOOST_AUTO_TEST_CASE</text>
</a>
</g>
</g>
<!-- Node3&#45;&gt;Node14 -->
<g id="edge14_Node000003_Node000014" class="edge">
<title>Node3&#45;&gt;Node14</title>
<g id="a_edge14_Node000003_Node000014"><a xlink:title=" ">
<path fill="none" stroke="#63b8ff" d="M239.2,-300.9C228.26,-346.26 201.88,-428.27 147.25,-472.62 143.32,-475.82 138.9,-478.46 134.23,-480.63"/>
<polygon fill="#63b8ff" stroke="#63b8ff" points="242.55,-301.94 241.37,-291.42 235.73,-300.38 242.55,-301.94"/>
</a>
</g>
</g>
<!-- Node15 -->
<g id="Node000015" class="node">
<title>Node15</title>
<g id="a_Node000015"><a xlink:href="../../dd/d6c/_c_maths_memory_test_8cc.html#a7d9e2f543a1acdf0e079edab6d22a60e" target="_top" xlink:title=" ">
<polygon fill="white" stroke="#666666" points="147.25,-463.25 0,-463.25 0,-444 147.25,-444 147.25,-463.25"/>
<text text-anchor="middle" x="73.62" y="-449.75" font-family="Helvetica,sans-Serif" font-size="10.00">BOOST_AUTO_TEST_CASE</text>
</a>
</g>
</g>
<!-- Node3&#45;&gt;Node15 -->
<g id="edge15_Node000003_Node000015" class="edge">
<title>Node3&#45;&gt;Node15</title>
<g id="a_edge15_Node000003_Node000015"><a xlink:title=" ">
<path fill="none" stroke="#63b8ff" d="M235.56,-300.49C221.73,-338.53 193.31,-401.3 147.25,-435.62 142.98,-438.81 138.21,-441.43 133.22,-443.6"/>
<polygon fill="#63b8ff" stroke="#63b8ff" points="238.74,-302.02 238.74,-291.42 232.13,-299.71 238.74,-302.02"/>
</a>
</g>
</g>
<!-- Node16 -->
<g id="Node000016" class="node">
<title>Node16</title>
<g id="a_Node000016"><a xlink:href="../../d2/d79/_c_poisson_mean_conjugate_test_8cc.html#a2d1803e07cd07ffb5647e9983b09bb76" target="_top" xlink:title=" ">
<polygon fill="white" stroke="#666666" points="147.25,-426.25 0,-426.25 0,-407 147.25,-407 147.25,-426.25"/>
<text text-anchor="middle" x="73.62" y="-412.75" font-family="Helvetica,sans-Serif" font-size="10.00">BOOST_AUTO_TEST_CASE</text>
</a>
</g>
</g>
<!-- Node3&#45;&gt;Node16 -->
<g id="edge16_Node000003_Node000016" class="edge">
<title>Node3&#45;&gt;Node16</title>
<g id="a_edge16_Node000003_Node000016"><a xlink:title=" ">
<path fill="none" stroke="#63b8ff" d="M230.3,-299.68C213.82,-329.58 184.9,-373.82 147.25,-398.62 142.48,-401.77 137.2,-404.37 131.73,-406.51"/>
<polygon fill="#63b8ff" stroke="#63b8ff" points="233.27,-301.56 234.9,-291.09 227.09,-298.25 233.27,-301.56"/>
</a>
</g>
</g>
<!-- Node17 -->
<g id="Node000017" class="node">
<title>Node17</title>
<g id="a_Node000017"><a xlink:href="../../d2/d79/_c_poisson_mean_conjugate_test_8cc.html#a2c8d659343b709fde4b0714ff57d5a9d" target="_top" xlink:title=" ">
<polygon fill="white" stroke="#666666" points="147.25,-389.25 0,-389.25 0,-370 147.25,-370 147.25,-389.25"/>
<text text-anchor="middle" x="73.62" y="-375.75" font-family="Helvetica,sans-Serif" font-size="10.00">BOOST_AUTO_TEST_CASE</text>
</a>
</g>
</g>
<!-- Node3&#45;&gt;Node17 -->
<g id="edge17_Node000003_Node000017" class="edge">
<title>Node3&#45;&gt;Node17</title>
<g id="a_edge17_Node000003_Node000017"><a xlink:title=" ">
<path fill="none" stroke="#63b8ff" d="M221.89,-298.11C203.57,-318.85 176.51,-345.65 147.25,-361.62 141.44,-364.8 135.06,-367.42 128.57,-369.59"/>
<polygon fill="#63b8ff" stroke="#63b8ff" points="224.32,-300.65 228.2,-290.79 219.02,-296.08 224.32,-300.65"/>
</a>
</g>
</g>
<!-- Node3&#45;&gt;Node18 -->
<g id="edge18_Node000003_Node000018" class="edge">
<title>Node3&#45;&gt;Node18</title>
<g id="a_edge18_Node000003_Node000018"><a xlink:title=" ">
<path fill="none" stroke="#63b8ff" d="M239.2,-236.35C228.26,-190.99 201.88,-108.98 147.25,-64.62 143.32,-61.43 138.9,-58.79 134.23,-56.62"/>
<polygon fill="#63b8ff" stroke="#63b8ff" points="235.73,-236.87 241.37,-245.83 242.55,-235.31 235.73,-236.87"/>
</a>
</g>
</g>
<!-- Node3&#45;&gt;Node19 -->
<g id="edge19_Node000003_Node000019" class="edge">
<title>Node3&#45;&gt;Node19</title>
<g id="a_edge19_Node000003_Node000019"><a xlink:title=" ">
<path fill="none" stroke="#63b8ff" d="M241.89,-236.38C233.92,-184.42 210.69,-82.48 147.25,-27.62 143.61,-24.48 139.51,-21.87 135.15,-19.7"/>
<polygon fill="#63b8ff" stroke="#63b8ff" points="238.4,-236.66 243.28,-246.06 245.33,-235.67 238.4,-236.66"/>
</a>
</g>
</g>
</g>
</svg>
