<?xml version="1.0" encoding="UTF-8" standalone="no"?>
<!DOCTYPE svg PUBLIC "-//W3C//DTD SVG 1.1//EN"
 "http://www.w3.org/Graphics/SVG/1.1/DTD/svg11.dtd">
<!-- Generated by graphviz version 10.0.1 (20240210.2158)
 -->
<!-- Title: ml::maths::common::CPoissonMeanConjugate::jointLogMarginalLikelihood Pages: 1 -->
<svg width="469pt" height="222pt"
 viewBox="0.00 0.00 468.50 221.88" xmlns="http://www.w3.org/2000/svg" xmlns:xlink="http://www.w3.org/1999/xlink">

<svg id="main" version="1.1" xmlns="http://www.w3.org/2000/svg" xmlns:xlink="http://www.w3.org/1999/xlink" xml:space="preserve" onload="init(evt)">
<style type="text/css"><![CDATA[
.node, .edge {opacity: 0.7;}
.node.selected, .edge.selected {opacity: 1;}
.edge:hover path { stroke: red; }
.edge:hover polygon { stroke: red; fill: red; }
]]></style>
<script type="application/ecmascript" xlink:href="../../svg.min.js"/>
<svg id="graph" class="graph">
<g id="graph0" class="graph" transform="scale(1 1) rotate(0) translate(4 217.88)">
<title>ml::maths::common::CPoissonMeanConjugate::jointLogMarginalLikelihood</title>
<!-- Node1 -->
<g id="Node000001" class="node">
<title>Node1</title>
<g id="a_Node000001"><a xlink:title=" ">
<polygon fill="#999999" stroke="#666666" points="136,-139.12 0,-139.12 0,-97.38 136,-97.38 136,-139.12"/>
<text text-anchor="start" x="8" y="-125.62" font-family="Helvetica,sans-Serif" font-size="10.00">ml::maths::common::</text>
<text text-anchor="start" x="8" y="-114.38" font-family="Helvetica,sans-Serif" font-size="10.00">CPoissonMeanConjugate</text>
<text text-anchor="middle" x="68" y="-103.12" font-family="Helvetica,sans-Serif" font-size="10.00">::jointLogMarginalLikelihood</text>
</a>
</g>
</g>
<!-- Node2 -->
<g id="Node000002" class="node">
<title>Node2</title>
<g id="a_Node000002"><a xlink:href="../../d6/d52/namespaceml_1_1maths__t.html#a02a41a54474fbd8c36bdc5358e5427d9" target="_top" xlink:title=" ">
<polygon fill="white" stroke="#666666" points="315.5,-213.88 172,-213.88 172,-194.62 315.5,-194.62 315.5,-213.88"/>
<text text-anchor="middle" x="243.75" y="-200.38" font-family="Helvetica,sans-Serif" font-size="10.00">ml::maths_t::countForUpdate</text>
</a>
</g>
</g>
<!-- Node1&#45;&gt;Node2 -->
<g id="edge1_Node000001_Node000002" class="edge">
<title>Node1&#45;&gt;Node2</title>
<g id="a_edge1_Node000001_Node000002"><a xlink:title=" ">
<path fill="none" stroke="#63b8ff" d="M96.48,-139.56C116.48,-154.19 144.72,-173.08 172,-185.25 176.5,-187.26 181.26,-189.09 186.09,-190.76"/>
<polygon fill="#63b8ff" stroke="#63b8ff" points="184.69,-193.99 195.28,-193.69 186.82,-187.32 184.69,-193.99"/>
</a>
</g>
</g>
<!-- Node3 -->
<g id="Node000003" class="node">
<title>Node3</title>
<g id="a_Node000003"><a xlink:href="../../dd/dc8/classml_1_1maths_1_1common_1_1_c_maths_funcs.html#ad5c82e6b7ca86beebfe0e2ac507a88d8" target="_top" xlink:title="Check the floating point status of value.">
<polygon fill="white" stroke="#666666" points="303.88,-176.5 183.62,-176.5 183.62,-146 303.88,-146 303.88,-176.5"/>
<text text-anchor="start" x="191.62" y="-163" font-family="Helvetica,sans-Serif" font-size="10.00">ml::maths::common::</text>
<text text-anchor="middle" x="243.75" y="-151.75" font-family="Helvetica,sans-Serif" font-size="10.00">CMathsFuncs::fpStatus</text>
</a>
</g>
</g>
<!-- Node1&#45;&gt;Node3 -->
<g id="edge2_Node000001_Node000003" class="edge">
<title>Node1&#45;&gt;Node3</title>
<g id="a_edge2_Node000001_Node000003"><a xlink:title=" ">
<path fill="none" stroke="#63b8ff" d="M136.18,-134.87C148.09,-137.82 160.53,-140.9 172.53,-143.87"/>
<polygon fill="#63b8ff" stroke="#63b8ff" points="171.38,-147.19 181.93,-146.2 173.06,-140.4 171.38,-147.19"/>
</a>
</g>
</g>
<!-- Node5 -->
<g id="Node000005" class="node">
<title>Node5</title>
<g id="a_Node000005"><a xlink:href="../../dd/dc8/classml_1_1maths_1_1common_1_1_c_maths_funcs.html#a55029f09f9f7e9eb786219fefbb8ff72" target="_top" xlink:title="Check if value is NaN.">
<polygon fill="white" stroke="#666666" points="460.5,-133.5 351.5,-133.5 351.5,-103 460.5,-103 460.5,-133.5"/>
<text text-anchor="start" x="359.5" y="-120" font-family="Helvetica,sans-Serif" font-size="10.00">ml::maths::common::</text>
<text text-anchor="middle" x="406" y="-108.75" font-family="Helvetica,sans-Serif" font-size="10.00">CMathsFuncs::isNan</text>
</a>
</g>
</g>
<!-- Node1&#45;&gt;Node5 -->
<g id="edge5_Node000001_Node000005" class="edge">
<title>Node1&#45;&gt;Node5</title>
<g id="a_edge5_Node000001_Node000005"><a xlink:title=" ">
<path fill="none" stroke="#63b8ff" d="M136.19,-118.25C195.44,-118.25 281.23,-118.25 339.86,-118.25"/>
<polygon fill="#63b8ff" stroke="#63b8ff" points="339.69,-121.75 349.69,-118.25 339.69,-114.75 339.69,-121.75"/>
</a>
</g>
</g>
<!-- Node6 -->
<g id="Node000006" class="node">
<title>Node6</title>
<g id="a_Node000006"><a xlink:href="../../d6/d88/classml_1_1maths_1_1common_1_1_c_poisson_mean_conjugate.html#a3b9a5bf3458e15c40cdd9e7c94b587c8" target="_top" xlink:title="Check if this is a non&#45;informative prior.">
<polygon fill="white" stroke="#666666" points="307.25,-90.12 180.25,-90.12 180.25,-48.38 307.25,-48.38 307.25,-90.12"/>
<text text-anchor="start" x="188.25" y="-76.62" font-family="Helvetica,sans-Serif" font-size="10.00">ml::maths::common::</text>
<text text-anchor="start" x="188.25" y="-65.38" font-family="Helvetica,sans-Serif" font-size="10.00">CPoissonMeanConjugate</text>
<text text-anchor="middle" x="243.75" y="-54.12" font-family="Helvetica,sans-Serif" font-size="10.00">::isNonInformative</text>
</a>
</g>
</g>
<!-- Node1&#45;&gt;Node6 -->
<g id="edge6_Node000001_Node000006" class="edge">
<title>Node1&#45;&gt;Node6</title>
<g id="a_edge6_Node000001_Node000006"><a xlink:title=" ">
<path fill="none" stroke="#63b8ff" d="M136.18,-99.31C146.99,-96.26 158.24,-93.08 169.19,-89.99"/>
<polygon fill="#63b8ff" stroke="#63b8ff" points="169.89,-93.43 178.57,-87.35 167.99,-86.7 169.89,-93.43"/>
</a>
</g>
</g>
<!-- Node7 -->
<g id="Node000007" class="node">
<title>Node7</title>
<g id="a_Node000007"><a xlink:href="../../d6/d99/classml_1_1maths_1_1common_1_1_c_prior.html#a0df265355cd8ccdeeea29ed14037d89d" target="_top" xlink:title="Get the number of samples received to date.">
<polygon fill="white" stroke="#666666" points="303.88,-30.5 183.62,-30.5 183.62,0 303.88,0 303.88,-30.5"/>
<text text-anchor="start" x="191.62" y="-17" font-family="Helvetica,sans-Serif" font-size="10.00">ml::maths::common::</text>
<text text-anchor="middle" x="243.75" y="-5.75" font-family="Helvetica,sans-Serif" font-size="10.00">CPrior::numberSamples</text>
</a>
</g>
</g>
<!-- Node1&#45;&gt;Node7 -->
<g id="edge7_Node000001_Node000007" class="edge">
<title>Node1&#45;&gt;Node7</title>
<g id="a_edge7_Node000001_Node000007"><a xlink:title=" ">
<path fill="none" stroke="#63b8ff" d="M92.02,-97.03C111.95,-79.56 142.18,-55.18 172,-39.25 174.5,-37.91 177.09,-36.63 179.74,-35.4"/>
<polygon fill="#63b8ff" stroke="#63b8ff" points="180.96,-38.69 188.76,-31.52 178.19,-32.25 180.96,-38.69"/>
</a>
</g>
</g>
<!-- Node4 -->
<g id="Node000004" class="node">
<title>Node4</title>
<g id="a_Node000004"><a xlink:href="../../dd/dc8/classml_1_1maths_1_1common_1_1_c_maths_funcs.html#a8dcb5b9530155c739d53e301851003cc" target="_top" xlink:title="Check if value is infinite.">
<polygon fill="white" stroke="#666666" points="460.5,-182.5 351.5,-182.5 351.5,-152 460.5,-152 460.5,-182.5"/>
<text text-anchor="start" x="359.5" y="-169" font-family="Helvetica,sans-Serif" font-size="10.00">ml::maths::common::</text>
<text text-anchor="middle" x="406" y="-157.75" font-family="Helvetica,sans-Serif" font-size="10.00">CMathsFuncs::isInf</text>
</a>
</g>
</g>
<!-- Node3&#45;&gt;Node4 -->
<g id="edge3_Node000003_Node000004" class="edge">
<title>Node3&#45;&gt;Node4</title>
<g id="a_edge3_Node000003_Node000004"><a xlink:title=" ">
<path fill="none" stroke="#63b8ff" d="M303.97,-163.47C315.65,-163.9 327.98,-164.37 339.85,-164.81"/>
<polygon fill="#63b8ff" stroke="#63b8ff" points="339.43,-168.3 349.55,-165.17 339.69,-161.3 339.43,-168.3"/>
</a>
</g>
</g>
<!-- Node3&#45;&gt;Node5 -->
<g id="edge4_Node000003_Node000005" class="edge">
<title>Node3&#45;&gt;Node5</title>
<g id="a_edge4_Node000003_Node000005"><a xlink:title=" ">
<path fill="none" stroke="#63b8ff" d="M303.06,-145.6C315.12,-142.37 327.89,-138.94 340.16,-135.65"/>
<polygon fill="#63b8ff" stroke="#63b8ff" points="341.05,-139.03 349.8,-133.06 339.24,-132.27 341.05,-139.03"/>
</a>
</g>
</g>
</g>
</svg>
</svg>

<style type='text/css'>
<![CDATA[
[data-mouse-over-selected='false'] { opacity: 0.7; }
[data-mouse-over-selected='true']  { opacity: 1.0; }
]]>
</style>
<script type="application/ecmascript"><![CDATA[
document.addEventListener('DOMContentLoaded', (event) => {
  highlightEdges();
  highlightAdjacentNodes();
});
]]></script>
</svg>
