<?xml version="1.0" encoding="UTF-8" standalone="no"?>
<!DOCTYPE svg PUBLIC "-//W3C//DTD SVG 1.1//EN"
 "http://www.w3.org/Graphics/SVG/1.1/DTD/svg11.dtd">
<!-- Generated by graphviz version 10.0.1 (20240210.2158)
 -->
<!-- Title: ml::data_frame_analyzer::CCmdLineParser::parse Pages: 1 -->
<svg width="487pt" height="88pt"
 viewBox="0.00 0.00 486.75 87.50" xmlns="http://www.w3.org/2000/svg" xmlns:xlink="http://www.w3.org/1999/xlink">
<g id="graph0" class="graph" transform="scale(1 1) rotate(0) translate(4 83.5)">
<title>ml::data_frame_analyzer::CCmdLineParser::parse</title>
<!-- Node1 -->
<g id="Node000001" class="node">
<title>Node1</title>
<g id="a_Node000001"><a xlink:title="Parse the arguments and return options if appropriate.">
<polygon fill="#999999" stroke="#666666" points="127,-54.5 0,-54.5 0,-24 127,-24 127,-54.5"/>
<text text-anchor="start" x="8" y="-41" font-family="Helvetica,sans-Serif" font-size="10.00">ml::data_frame_analyzer</text>
<text text-anchor="middle" x="63.5" y="-29.75" font-family="Helvetica,sans-Serif" font-size="10.00">::CCmdLineParser::parse</text>
</a>
</g>
</g>
<!-- Node2 -->
<g id="Node000002" class="node">
<title>Node2</title>
<g id="a_Node000002"><a xlink:href="../../dd/d97/classml_1_1ver_1_1_c_build_info.html#ac40e99338744a4d8e27bb9208212c6f0" target="_top" xlink:title=" ">
<polygon fill="white" stroke="#666666" points="260.75,-54.5 163,-54.5 163,-24 260.75,-24 260.75,-54.5"/>
<text text-anchor="start" x="171" y="-41" font-family="Helvetica,sans-Serif" font-size="10.00">ml::ver::CBuildInfo</text>
<text text-anchor="middle" x="211.88" y="-29.75" font-family="Helvetica,sans-Serif" font-size="10.00">::fullInfo</text>
</a>
</g>
</g>
<!-- Node1&#45;&gt;Node2 -->
<g id="edge1_Node000001_Node000002" class="edge">
<title>Node1&#45;&gt;Node2</title>
<g id="a_edge1_Node000001_Node000002"><a xlink:title=" ">
<path fill="none" stroke="#63b8ff" d="M127.43,-39.25C135.34,-39.25 143.42,-39.25 151.28,-39.25"/>
<polygon fill="#63b8ff" stroke="#63b8ff" points="151.08,-42.75 161.08,-39.25 151.08,-35.75 151.08,-42.75"/>
</a>
</g>
</g>
<!-- Node3 -->
<g id="Node000003" class="node">
<title>Node3</title>
<g id="a_Node000003"><a xlink:href="../../d0/d85/classml_1_1core_1_1_c_prog_name.html#a2d4e543e27db40381e896a0d00d275e4" target="_top" xlink:title=" ">
<polygon fill="white" stroke="#666666" points="408,-79.5 296.75,-79.5 296.75,-49 408,-49 408,-79.5"/>
<text text-anchor="start" x="304.75" y="-66" font-family="Helvetica,sans-Serif" font-size="10.00">ml::core::CProgName</text>
<text text-anchor="middle" x="352.38" y="-54.75" font-family="Helvetica,sans-Serif" font-size="10.00">::progName</text>
</a>
</g>
</g>
<!-- Node2&#45;&gt;Node3 -->
<g id="edge2_Node000002_Node000003" class="edge">
<title>Node2&#45;&gt;Node3</title>
<g id="a_edge2_Node000002_Node000003"><a xlink:title=" ">
<path fill="none" stroke="#63b8ff" d="M260.93,-47.92C268.77,-49.34 277.01,-50.83 285.2,-52.3"/>
<polygon fill="#63b8ff" stroke="#63b8ff" points="284.33,-55.7 294.79,-54.04 285.57,-48.82 284.33,-55.7"/>
</a>
</g>
</g>
<!-- Node4 -->
<g id="Node000004" class="node">
<title>Node4</title>
<g id="a_Node000004"><a xlink:href="../../d1/dfa/classml_1_1core_1_1_c_string_utils.html#a0309dd25326b7d77c70fe5e6949b9e71" target="_top" xlink:title="Convert a type to a string.">
<polygon fill="white" stroke="#666666" points="407.62,-30.5 297.12,-30.5 297.12,0 407.62,0 407.62,-30.5"/>
<text text-anchor="start" x="305.12" y="-17" font-family="Helvetica,sans-Serif" font-size="10.00">ml::core::CStringUtils</text>
<text text-anchor="middle" x="352.38" y="-5.75" font-family="Helvetica,sans-Serif" font-size="10.00">::typeToString</text>
</a>
</g>
</g>
<!-- Node2&#45;&gt;Node4 -->
<g id="edge3_Node000002_Node000004" class="edge">
<title>Node2&#45;&gt;Node4</title>
<g id="a_edge3_Node000002_Node000004"><a xlink:title=" ">
<path fill="none" stroke="#63b8ff" d="M260.93,-30.92C268.88,-29.55 277.24,-28.1 285.54,-26.66"/>
<polygon fill="#63b8ff" stroke="#63b8ff" points="286.02,-30.13 295.27,-24.97 284.82,-23.23 286.02,-30.13"/>
</a>
</g>
</g>
<!-- Node5 -->
<g id="Node000005" class="node">
<title>Node5</title>
<g id="a_Node000005"><a xlink:href="../../d3/d2e/private_8h.html#a1c6de65cc31c36fe2ede0d438531d327" target="_top" xlink:title=" ">
<polygon fill="white" stroke="#666666" points="478.75,-24.88 444,-24.88 444,-5.63 478.75,-5.63 478.75,-24.88"/>
<text text-anchor="middle" x="461.38" y="-11.38" font-family="Helvetica,sans-Serif" font-size="10.00">type</text>
</a>
</g>
</g>
<!-- Node4&#45;&gt;Node5 -->
<g id="edge4_Node000004_Node000005" class="edge">
<title>Node4&#45;&gt;Node5</title>
<g id="a_edge4_Node000004_Node000005"><a xlink:title=" ">
<path fill="none" stroke="#63b8ff" d="M407.82,-15.25C416.25,-15.25 424.66,-15.25 432.19,-15.25"/>
<polygon fill="#63b8ff" stroke="#63b8ff" points="432.03,-18.75 442.03,-15.25 432.03,-11.75 432.03,-18.75"/>
</a>
</g>
</g>
</g>
</svg>
