<?xml version="1.0" encoding="UTF-8" standalone="no"?>
<!DOCTYPE svg PUBLIC "-//W3C//DTD SVG 1.1//EN"
 "http://www.w3.org/Graphics/SVG/1.1/DTD/svg11.dtd">
<!-- Generated by graphviz version 10.0.1 (20240210.2158)
 -->
<!-- Title: ml::api::CPersistenceManager::addPersistFunc Pages: 1 -->
<!--zoomable 186 -->

<svg id="main" version="1.1" xmlns="http://www.w3.org/2000/svg" xmlns:xlink="http://www.w3.org/1999/xlink" xml:space="preserve" onload="init(evt)">
<style type="text/css"><![CDATA[
.node, .edge {opacity: 0.7;}
.node.selected, .edge.selected {opacity: 1;}
.edge:hover path { stroke: red; }
.edge:hover polygon { stroke: red; fill: red; }
]]></style>

<defs>
  <circle id="rim" cx="0" cy="0" r="7"/>
  <circle id="rim2" cx="0" cy="0" r="3.5"/>
  <g id="zoomPlus">
    <use xlink:href="#rim" fill="#404040"><set attributeName="fill" to="#808080" begin="zoomplus.mouseover" end="zoomplus.mouseout"/></use>
    <path d="M-4,0h8M0,-4v8" fill="none" stroke="white" stroke-width="1.5" pointer-events="none"/>
  </g>
  <g id="zoomMin">
    <use xlink:href="#rim" fill="#404040"><set attributeName="fill" to="#808080" begin="zoomminus.mouseover" end="zoomminus.mouseout"/></use>
    <path d="M-4,0h8" fill="none" stroke="white" stroke-width="1.5" pointer-events="none"/>
  </g>
  <g id="arrowUp" transform="translate(30 24)">
    <use xlink:href="#rim"/>
    <path pointer-events="none" fill="none" stroke="white" stroke-width="1.5" d="M0,-3.0v7 M-2.5,-0.5L0,-3.0L2.5,-0.5"/>
  </g>
  <g id="arrowRight" transform="rotate(90) translate(36 -43)">
    <use xlink:href="#rim"/>
    <path pointer-events="none" fill="none" stroke="white" stroke-width="1.5" d="M0,-3.0v7 M-2.5,-0.5L0,-3.0L2.5,-0.5"/>
  </g>
  <g id="arrowDown" transform="rotate(180) translate(-30 -48)">
    <use xlink:href="#rim"/>
    <path pointer-events="none" fill="none" stroke="white" stroke-width="1.5" d="M0,-3.0v7 M-2.5,-0.5L0,-3.0L2.5,-0.5"/>
  </g>
  <g id="arrowLeft" transform="rotate(270) translate(-36 17)">
    <use xlink:href="#rim"/>
    <path pointer-events="none" fill="none" stroke="white" stroke-width="1.5" d="M0,-3.0v7 M-2.5,-0.5L0,-3.0L2.5,-0.5"/>
  </g>
  <g id="resetDef">
    <use xlink:href="#rim2" fill="#404040"><set attributeName="fill" to="#808080" begin="reset.mouseover" end="reset.mouseout"/></use>
  </g>
</defs>
<script type="application/ecmascript">
var viewWidth = 568;
var viewHeight = 186;
var sectionId = 'dynsection-4';
</script>
<script type="application/ecmascript" xlink:href="../../svg.min.js"/>
<svg id="graph" class="graph">
<g id="viewport">
<title>ml::api::CPersistenceManager::addPersistFunc</title>
<!-- Node1 -->
<g id="Node000001" class="node">
<title>Node1</title>
<g id="a_Node000001"><a xlink:title=" ">
<polygon fill="#999999" stroke="#666666" points="559.5,-103.5 411.5,-103.5 411.5,-73 559.5,-73 559.5,-103.5"/>
<text text-anchor="start" x="419.5" y="-90" font-family="Helvetica,sans-Serif" font-size="10.00">ml::api::CPersistenceManager</text>
<text text-anchor="middle" x="485.5" y="-78.75" font-family="Helvetica,sans-Serif" font-size="10.00">::addPersistFunc</text>
</a>
</g>
</g>
<!-- Node2 -->
<g id="Node000002" class="node">
<title>Node2</title>
<g id="a_Node000002"><a xlink:href="../../d9/dee/classml_1_1api_1_1_c_anomaly_job.html#ad2b28f31d440e533eef48730774bdc45" target="_top" xlink:title="Persist current state in the background.">
<polygon fill="white" stroke="#666666" points="353.75,-177.5 227.5,-177.5 227.5,-147 353.75,-147 353.75,-177.5"/>
<text text-anchor="start" x="235.5" y="-164" font-family="Helvetica,sans-Serif" font-size="10.00">ml::api::CAnomalyJob</text>
<text text-anchor="middle" x="290.62" y="-152.75" font-family="Helvetica,sans-Serif" font-size="10.00">::backgroundPersistState</text>
</a>
</g>
</g>
<!-- Node1&#45;&gt;Node2 -->
<g id="edge1_Node000001_Node000002" class="edge">
<title>Node1&#45;&gt;Node2</title>
<g id="a_edge1_Node000001_Node000002"><a xlink:title=" ">
<path fill="none" stroke="#63b8ff" d="M442.22,-108.83C422.25,-118.15 397.92,-128.91 375.5,-137.25 366.67,-140.53 357.2,-143.69 347.91,-146.6"/>
<polygon fill="#63b8ff" stroke="#63b8ff" points="443.61,-112.05 451.17,-104.62 440.63,-105.71 443.61,-112.05"/>
</a>
</g>
</g>
<!-- Node4 -->
<g id="Node000004" class="node">
<title>Node4</title>
<g id="a_Node000004"><a xlink:href="../../d3/d8f/classml_1_1api_1_1_c_field_data_categorizer.html#a01adb279c7fd317365425df860a58701" target="_top" xlink:title="Persist current state due to the periodic persistence being triggered.">
<polygon fill="white" stroke="#666666" points="375.5,-128.5 205.75,-128.5 205.75,-98 375.5,-98 375.5,-128.5"/>
<text text-anchor="start" x="213.75" y="-115" font-family="Helvetica,sans-Serif" font-size="10.00">ml::api::CFieldDataCategorizer</text>
<text text-anchor="middle" x="290.62" y="-103.75" font-family="Helvetica,sans-Serif" font-size="10.00">::periodicPersistStateInBackground</text>
</a>
</g>
</g>
<!-- Node1&#45;&gt;Node4 -->
<g id="edge3_Node000001_Node000004" class="edge">
<title>Node1&#45;&gt;Node4</title>
<g id="a_edge3_Node000001_Node000004"><a xlink:title=" ">
<path fill="none" stroke="#63b8ff" d="M399.86,-99.22C391.9,-100.25 383.82,-101.3 375.86,-102.33"/>
<polygon fill="#63b8ff" stroke="#63b8ff" points="400.06,-102.72 409.53,-97.97 399.16,-95.78 400.06,-102.72"/>
</a>
</g>
</g>
<!-- Node6 -->
<g id="Node000006" class="node">
<title>Node6</title>
<g id="a_Node000006"><a xlink:href="../../d9/dee/classml_1_1api_1_1_c_anomaly_job.html#a7192b0f547cd4fa07df19f3e440c4071" target="_top" xlink:title=" ">
<polygon fill="white" stroke="#666666" points="374,-79.5 207.25,-79.5 207.25,-49 374,-49 374,-79.5"/>
<text text-anchor="start" x="215.25" y="-66" font-family="Helvetica,sans-Serif" font-size="10.00">ml::api::CAnomalyJob</text>
<text text-anchor="middle" x="290.62" y="-54.75" font-family="Helvetica,sans-Serif" font-size="10.00">::periodicPersistStateInForeground</text>
</a>
</g>
</g>
<!-- Node1&#45;&gt;Node6 -->
<g id="edge5_Node000001_Node000006" class="edge">
<title>Node1&#45;&gt;Node6</title>
<g id="a_edge5_Node000001_Node000006"><a xlink:title=" ">
<path fill="none" stroke="#63b8ff" d="M399.63,-77.69C391.2,-76.64 382.64,-75.58 374.23,-74.53"/>
<polygon fill="#63b8ff" stroke="#63b8ff" points="399.17,-81.16 409.53,-78.92 400.04,-74.21 399.17,-81.16"/>
</a>
</g>
</g>
<!-- Node7 -->
<g id="Node000007" class="node">
<title>Node7</title>
<g id="a_Node000007"><a xlink:href="../../d3/d8f/classml_1_1api_1_1_c_field_data_categorizer.html#a8871ea9a8d160bfbe974b0f9f2fed247" target="_top" xlink:title=" ">
<polygon fill="white" stroke="#666666" points="374,-30.5 207.25,-30.5 207.25,0 374,0 374,-30.5"/>
<text text-anchor="start" x="215.25" y="-17" font-family="Helvetica,sans-Serif" font-size="10.00">ml::api::CFieldDataCategorizer</text>
<text text-anchor="middle" x="290.62" y="-5.75" font-family="Helvetica,sans-Serif" font-size="10.00">::periodicPersistStateInForeground</text>
</a>
</g>
</g>
<!-- Node1&#45;&gt;Node7 -->
<g id="edge6_Node000001_Node000007" class="edge">
<title>Node1&#45;&gt;Node7</title>
<g id="a_edge6_Node000001_Node000007"><a xlink:title=" ">
<path fill="none" stroke="#63b8ff" d="M441.74,-67.94C421.84,-58.87 397.71,-48.41 375.5,-40.25 366.66,-37 357.18,-33.86 347.89,-30.96"/>
<polygon fill="#63b8ff" stroke="#63b8ff" points="440.1,-71.04 450.65,-72.04 443.03,-64.68 440.1,-71.04"/>
</a>
</g>
</g>
<!-- Node3 -->
<g id="Node000003" class="node">
<title>Node3</title>
<g id="a_Node000003"><a xlink:href="../../d9/dee/classml_1_1api_1_1_c_anomaly_job.html#af278b58a62e36a96deadced80d5f37ee" target="_top" xlink:title="Persist current state due to the periodic persistence being triggered.">
<polygon fill="white" stroke="#666666" points="169.75,-177.5 0,-177.5 0,-147 169.75,-147 169.75,-177.5"/>
<text text-anchor="start" x="8" y="-164" font-family="Helvetica,sans-Serif" font-size="10.00">ml::api::CAnomalyJob</text>
<text text-anchor="middle" x="84.88" y="-152.75" font-family="Helvetica,sans-Serif" font-size="10.00">::periodicPersistStateInBackground</text>
</a>
</g>
</g>
<!-- Node2&#45;&gt;Node3 -->
<g id="edge2_Node000002_Node000003" class="edge">
<title>Node2&#45;&gt;Node3</title>
<g id="a_edge2_Node000002_Node000003"><a xlink:title=" ">
<path fill="none" stroke="#63b8ff" d="M215.91,-162.25C201.02,-162.25 185.26,-162.25 170.04,-162.25"/>
<polygon fill="#63b8ff" stroke="#63b8ff" points="215.6,-165.75 225.6,-162.25 215.6,-158.75 215.6,-165.75"/>
</a>
</g>
</g>
<!-- Node5 -->
<g id="Node000005" class="node">
<title>Node5</title>
<g id="a_Node000005"><a xlink:href="../../de/d5e/bin_2categorize_2_main_8cc.html#a3c04138a5bfe5d72780bb7e82a18e627" target="_top" xlink:title="Group machine generated messages into categories by similarity.">
<polygon fill="white" stroke="#666666" points="103.38,-73.88 66.38,-73.88 66.38,-54.62 103.38,-54.62 103.38,-73.88"/>
<text text-anchor="middle" x="84.88" y="-60.38" font-family="Helvetica,sans-Serif" font-size="10.00">main</text>
</a>
</g>
</g>
<!-- Node4&#45;&gt;Node5 -->
<g id="edge4_Node000004_Node000005" class="edge">
<title>Node4&#45;&gt;Node5</title>
<g id="a_edge4_Node000004_Node000005"><a xlink:title=" ">
<path fill="none" stroke="#63b8ff" d="M213.26,-94.89C173.47,-85.32 128.13,-74.41 103.71,-68.54"/>
<polygon fill="#63b8ff" stroke="#63b8ff" points="212.3,-98.25 222.84,-97.19 213.94,-91.45 212.3,-98.25"/>
</a>
</g>
</g>
<!-- Node7&#45;&gt;Node5 -->
<g id="edge7_Node000007_Node000005" class="edge">
<title>Node7&#45;&gt;Node5</title>
<g id="a_edge7_Node000007_Node000005"><a xlink:title=" ">
<path fill="none" stroke="#63b8ff" d="M213.26,-33.61C173.47,-43.18 128.13,-54.09 103.71,-59.96"/>
<polygon fill="#63b8ff" stroke="#63b8ff" points="213.94,-37.05 222.84,-31.31 212.3,-30.25 213.94,-37.05"/>
</a>
</g>
</g>
</g>
</svg>

<g id="navigator" transform="translate(0 0)" fill="#404254">
  <rect fill="#f2f5e9" fill-opacity="0.5" stroke="#606060" stroke-width=".5" x="0" y="0" width="60" height="60"/>
  <use id="zoomplus" xlink:href="#zoomPlus" x="17" y="9" onmousedown="handleZoom(evt,'in')"/>
  <use id="zoomminus" xlink:href="#zoomMin" x="42" y="9" onmousedown="handleZoom(evt,'out')"/>
  <use id="reset" xlink:href="#resetDef" x="30" y="36" onmousedown="handleReset()"/>
   <use id="arrowup" xlink:href="#arrowUp" x="0" y="0" onmousedown="handlePan(0,-1)"/>
  <use id="arrowright" xlink:href="#arrowRight" x="0" y="0" onmousedown="handlePan(1,0)"/>
  <use id="arrowdown" xlink:href="#arrowDown" x="0" y="0" onmousedown="handlePan(0,1)"/>
  <use id="arrowleft" xlink:href="#arrowLeft" x="0" y="0" onmousedown="handlePan(-1,0)"/>
</g>
<svg viewBox="0 0 15 15" width="100%" height="30px" preserveAspectRatio="xMaxYMin meet">
 <g id="arrow_out" transform="scale(0.3 0.3)">
  <a xlink:href="classml_1_1api_1_1_c_persistence_manager_a723188ea0d10c33e9955e4452ecc6010_icgraph_org.svg" target="_base">
   <rect id="button" ry="5" rx="5" y="6" x="6" height="38" width="38"
        fill="#f2f5e9" fill-opacity="0.5" stroke="#606060" stroke-width="1.0"/>
   <path id="arrow"
     d="M 11.500037,31.436501 C 11.940474,20.09759 22.043105,11.32322 32.158766,21.979434 L 37.068811,17.246167 C 37.068811,17.246167 37.088388,32 37.088388,32 L 22.160133,31.978069 C 22.160133,31.978069 26.997745,27.140456 26.997745,27.140456 C 18.528582,18.264221 13.291696,25.230495 11.500037,31.436501 z"
     style="fill:#404040;"/>
  </a>
 </g>
</svg>

<style type='text/css'>
<![CDATA[
[data-mouse-over-selected='false'] { opacity: 0.7; }
[data-mouse-over-selected='true']  { opacity: 1.0; }
]]>
</style>
<script type="application/ecmascript"><![CDATA[
document.addEventListener('DOMContentLoaded', (event) => {
  highlightEdges();
  highlightAdjacentNodes();
});
]]></script>
</svg>
