<?xml version="1.0" encoding="UTF-8" standalone="no"?>
<!DOCTYPE svg PUBLIC "-//W3C//DTD SVG 1.1//EN"
 "http://www.w3.org/Graphics/SVG/1.1/DTD/svg11.dtd">
<!-- Generated by graphviz version 10.0.1 (20240210.2158)
 -->
<!-- Title: ml::maths::time_series::CTimeSeriesMultibucketMean::range Pages: 1 -->
<!--zoomable 124 -->

<svg id="main" version="1.1" xmlns="http://www.w3.org/2000/svg" xmlns:xlink="http://www.w3.org/1999/xlink" xml:space="preserve" onload="init(evt)">
<style type="text/css"><![CDATA[
.node, .edge {opacity: 0.7;}
.node.selected, .edge.selected {opacity: 1;}
.edge:hover path { stroke: red; }
.edge:hover polygon { stroke: red; fill: red; }
]]></style>

<defs>
  <circle id="rim" cx="0" cy="0" r="7"/>
  <circle id="rim2" cx="0" cy="0" r="3.5"/>
  <g id="zoomPlus">
    <use xlink:href="#rim" fill="#404040"><set attributeName="fill" to="#808080" begin="zoomplus.mouseover" end="zoomplus.mouseout"/></use>
    <path d="M-4,0h8M0,-4v8" fill="none" stroke="white" stroke-width="1.5" pointer-events="none"/>
  </g>
  <g id="zoomMin">
    <use xlink:href="#rim" fill="#404040"><set attributeName="fill" to="#808080" begin="zoomminus.mouseover" end="zoomminus.mouseout"/></use>
    <path d="M-4,0h8" fill="none" stroke="white" stroke-width="1.5" pointer-events="none"/>
  </g>
  <g id="arrowUp" transform="translate(30 24)">
    <use xlink:href="#rim"/>
    <path pointer-events="none" fill="none" stroke="white" stroke-width="1.5" d="M0,-3.0v7 M-2.5,-0.5L0,-3.0L2.5,-0.5"/>
  </g>
  <g id="arrowRight" transform="rotate(90) translate(36 -43)">
    <use xlink:href="#rim"/>
    <path pointer-events="none" fill="none" stroke="white" stroke-width="1.5" d="M0,-3.0v7 M-2.5,-0.5L0,-3.0L2.5,-0.5"/>
  </g>
  <g id="arrowDown" transform="rotate(180) translate(-30 -48)">
    <use xlink:href="#rim"/>
    <path pointer-events="none" fill="none" stroke="white" stroke-width="1.5" d="M0,-3.0v7 M-2.5,-0.5L0,-3.0L2.5,-0.5"/>
  </g>
  <g id="arrowLeft" transform="rotate(270) translate(-36 17)">
    <use xlink:href="#rim"/>
    <path pointer-events="none" fill="none" stroke="white" stroke-width="1.5" d="M0,-3.0v7 M-2.5,-0.5L0,-3.0L2.5,-0.5"/>
  </g>
  <g id="resetDef">
    <use xlink:href="#rim2" fill="#404040"><set attributeName="fill" to="#808080" begin="reset.mouseover" end="reset.mouseout"/></use>
  </g>
</defs>
<script type="application/ecmascript">
var viewWidth = 948;
var viewHeight = 124;
var sectionId = 'dynsection-15';
</script>
<script type="application/ecmascript" xlink:href="../../svg.min.js"/>
<svg id="graph" class="graph">
<g id="viewport">
<title>ml::maths::time_series::CTimeSeriesMultibucketMean::range</title>
<!-- Node1 -->
<g id="Node000001" class="node">
<title>Node1</title>
<g id="a_Node000001"><a xlink:title="Compute the time range of window.">
<polygon fill="#999999" stroke="#666666" points="940.25,-41.75 787,-41.75 787,0 940.25,0 940.25,-41.75"/>
<text text-anchor="start" x="795" y="-28.25" font-family="Helvetica,sans-Serif" font-size="10.00">ml::maths::time_series</text>
<text text-anchor="start" x="795" y="-17" font-family="Helvetica,sans-Serif" font-size="10.00">::CTimeSeriesMultibucketMean</text>
<text text-anchor="middle" x="863.62" y="-5.75" font-family="Helvetica,sans-Serif" font-size="10.00">::range</text>
</a>
</g>
</g>
<!-- Node1&#45;&gt;Node1 -->
<g id="edge11_Node000001_Node000001" class="edge">
<title>Node1&#45;&gt;Node1</title>
<g id="a_edge11_Node000001_Node000001"><a xlink:title=" ">
<path fill="none" stroke="#63b8ff" d="M894.77,-52.86C889.39,-57.01 879.01,-59.75 863.62,-59.75 837.01,-59.75 825.37,-51.55 828.7,-42.07"/>
<polygon fill="#63b8ff" stroke="#63b8ff" points="898.05,-54.09 898.05,-43.5 891.44,-51.78 898.05,-54.09"/>
</a>
</g>
</g>
<!-- Node2 -->
<g id="Node000002" class="node">
<title>Node2</title>
<g id="a_Node000002"><a xlink:href="../../db/d84/classml_1_1maths_1_1time__series_1_1_c_time_series_multibucket_mean.html#a72e8c9ed1ed3d3e888ce8e10e36e92b0" target="_top" xlink:title="Compute the weighted mean of function on the sliding window.">
<polygon fill="white" stroke="#666666" points="751,-85.75 597.75,-85.75 597.75,-44 751,-44 751,-85.75"/>
<text text-anchor="start" x="605.75" y="-72.25" font-family="Helvetica,sans-Serif" font-size="10.00">ml::maths::time_series</text>
<text text-anchor="start" x="605.75" y="-61" font-family="Helvetica,sans-Serif" font-size="10.00">::CTimeSeriesMultibucketMean</text>
<text text-anchor="middle" x="674.38" y="-49.75" font-family="Helvetica,sans-Serif" font-size="10.00">::evaluateOnWindow</text>
</a>
</g>
</g>
<!-- Node1&#45;&gt;Node2 -->
<g id="edge1_Node000001_Node000002" class="edge">
<title>Node1&#45;&gt;Node2</title>
<g id="a_edge1_Node000001_Node000002"><a xlink:title=" ">
<path fill="none" stroke="#63b8ff" d="M775.72,-41.3C767.59,-43.21 759.39,-45.13 751.37,-47.02"/>
<polygon fill="#63b8ff" stroke="#63b8ff" points="776.33,-44.75 785.26,-39.05 774.72,-37.93 776.33,-44.75"/>
</a>
</g>
</g>
<!-- Node3 -->
<g id="Node000003" class="node">
<title>Node3</title>
<g id="a_Node000003"><a xlink:href="../../db/d84/classml_1_1maths_1_1time__series_1_1_c_time_series_multibucket_mean.html#a287d728b30e26873a45b562b3524bab1" target="_top" xlink:title="Compute the weighted count of the values in the window.">
<polygon fill="white" stroke="#666666" points="561.75,-85.75 408.5,-85.75 408.5,-44 561.75,-44 561.75,-85.75"/>
<text text-anchor="start" x="416.5" y="-72.25" font-family="Helvetica,sans-Serif" font-size="10.00">ml::maths::time_series</text>
<text text-anchor="start" x="416.5" y="-61" font-family="Helvetica,sans-Serif" font-size="10.00">::CTimeSeriesMultibucketMean</text>
<text text-anchor="middle" x="485.12" y="-49.75" font-family="Helvetica,sans-Serif" font-size="10.00">::count</text>
</a>
</g>
</g>
<!-- Node2&#45;&gt;Node3 -->
<g id="edge2_Node000002_Node000003" class="edge">
<title>Node2&#45;&gt;Node3</title>
<g id="a_edge2_Node000002_Node000003"><a xlink:title=" ">
<path fill="none" stroke="#63b8ff" d="M586.19,-64.88C578.15,-64.88 570.05,-64.88 562.12,-64.88"/>
<polygon fill="#63b8ff" stroke="#63b8ff" points="585.97,-68.38 595.97,-64.88 585.97,-61.38 585.97,-68.38"/>
</a>
</g>
</g>
<!-- Node5 -->
<g id="Node000005" class="node">
<title>Node5</title>
<g id="a_Node000005"><a xlink:href="../../db/d84/classml_1_1maths_1_1time__series_1_1_c_time_series_multibucket_mean.html#a6f0e9cfe3fc64e47f8ad5a8820cc19e1" target="_top" xlink:title="Compute the weighted mean of the values in the window.">
<polygon fill="white" stroke="#666666" points="183.25,-109.12 0,-109.12 0,-78.62 183.25,-78.62 183.25,-109.12"/>
<text text-anchor="start" x="8" y="-95.62" font-family="Helvetica,sans-Serif" font-size="10.00">ml::maths::time_series</text>
<text text-anchor="middle" x="91.62" y="-84.38" font-family="Helvetica,sans-Serif" font-size="10.00">::CTimeSeriesMultibucketMean::mean</text>
</a>
</g>
</g>
<!-- Node2&#45;&gt;Node5 -->
<g id="edge10_Node000002_Node000005" class="edge">
<title>Node2&#45;&gt;Node5</title>
<g id="a_edge10_Node000002_Node000005"><a xlink:title=" ">
<path fill="none" stroke="#63b8ff" d="M586.2,-81.67C577.99,-83.35 569.75,-84.82 561.75,-85.88 431.15,-103.12 278.3,-98.17 183.46,-94.46"/>
<polygon fill="#63b8ff" stroke="#63b8ff" points="586.84,-85.11 595.87,-79.58 585.36,-78.27 586.84,-85.11"/>
</a>
</g>
</g>
<!-- Node4 -->
<g id="Node000004" class="node">
<title>Node4</title>
<g id="a_Node000004"><a xlink:href="../../db/d84/classml_1_1maths_1_1time__series_1_1_c_time_series_multibucket_mean.html#ad146de4a1ddaa284201165019400e59a" target="_top" xlink:title="Get the feature value and weight.">
<polygon fill="white" stroke="#666666" points="372.5,-85.75 219.25,-85.75 219.25,-44 372.5,-44 372.5,-85.75"/>
<text text-anchor="start" x="227.25" y="-72.25" font-family="Helvetica,sans-Serif" font-size="10.00">ml::maths::time_series</text>
<text text-anchor="start" x="227.25" y="-61" font-family="Helvetica,sans-Serif" font-size="10.00">::CTimeSeriesMultibucketMean</text>
<text text-anchor="middle" x="295.88" y="-49.75" font-family="Helvetica,sans-Serif" font-size="10.00">::value</text>
</a>
</g>
</g>
<!-- Node3&#45;&gt;Node4 -->
<g id="edge3_Node000003_Node000004" class="edge">
<title>Node3&#45;&gt;Node4</title>
<g id="a_edge3_Node000003_Node000004"><a xlink:title=" ">
<path fill="none" stroke="#63b8ff" d="M396.94,-58.14C388.9,-58.1 380.8,-58.13 372.87,-58.23"/>
<polygon fill="#63b8ff" stroke="#63b8ff" points="396.69,-61.64 406.72,-58.22 396.75,-54.64 396.69,-61.64"/>
</a>
</g>
</g>
<!-- Node4&#45;&gt;Node1 -->
<g id="edge9_Node000004_Node000001" class="edge">
<title>Node4&#45;&gt;Node1</title>
<g id="a_edge9_Node000004_Node000001"><a xlink:title=" ">
<path fill="none" stroke="#63b8ff" d="M356.04,-39.52C372.7,-33.53 391.04,-27.99 408.5,-24.88 539.87,-1.45 696.03,-7.25 786.78,-13.87"/>
<polygon fill="#63b8ff" stroke="#63b8ff" points="354.93,-36.2 346.78,-42.97 357.37,-42.76 354.93,-36.2"/>
</a>
</g>
</g>
<!-- Node4&#45;&gt;Node2 -->
<g id="edge5_Node000004_Node000002" class="edge">
<title>Node4&#45;&gt;Node2</title>
<g id="a_edge5_Node000004_Node000002"><a xlink:title=" ">
<path fill="none" stroke="#63b8ff" d="M376.2,-40.84C386.97,-38.37 397.94,-36.27 408.5,-34.88 476.03,-25.96 494.22,-25.96 561.75,-34.88 575.97,-36.75 590.96,-39.92 605.17,-43.51"/>
<polygon fill="#63b8ff" stroke="#63b8ff" points="375.45,-37.42 366.55,-43.16 377.09,-44.22 375.45,-37.42"/>
</a>
</g>
</g>
<!-- Node4&#45;&gt;Node3 -->
<g id="edge4_Node000004_Node000003" class="edge">
<title>Node4&#45;&gt;Node3</title>
<g id="a_edge4_Node000004_Node000003"><a xlink:title=" ">
<path fill="none" stroke="#63b8ff" d="M384.17,-71.61C392.21,-71.65 400.31,-71.61 408.23,-71.52"/>
<polygon fill="#63b8ff" stroke="#63b8ff" points="384.42,-68.11 374.39,-71.53 384.36,-75.11 384.42,-68.11"/>
</a>
</g>
</g>
<!-- Node4&#45;&gt;Node5 -->
<g id="edge6_Node000004_Node000005" class="edge">
<title>Node4&#45;&gt;Node5</title>
<g id="a_edge6_Node000004_Node000005"><a xlink:title=" ">
<path fill="none" stroke="#63b8ff" d="M207.58,-70.7C190.94,-72.95 173.8,-75.52 157.99,-78.14"/>
<polygon fill="#63b8ff" stroke="#63b8ff" points="208.03,-74.17 217.49,-69.39 207.12,-67.23 208.03,-74.17"/>
</a>
</g>
</g>
<!-- Node5&#45;&gt;Node2 -->
<g id="edge7_Node000005_Node000002" class="edge">
<title>Node5&#45;&gt;Node2</title>
<g id="a_edge7_Node000005_Node000002"><a xlink:title=" ">
<path fill="none" stroke="#63b8ff" d="M194.83,-108.87C290.21,-116.53 436.25,-120.45 561.75,-103.88 586.12,-100.66 612.73,-93.65 633.85,-86.23"/>
<polygon fill="#63b8ff" stroke="#63b8ff" points="195.22,-105.39 184.97,-108.05 194.64,-112.37 195.22,-105.39"/>
</a>
</g>
</g>
<!-- Node5&#45;&gt;Node4 -->
<g id="edge8_Node000005_Node000004" class="edge">
<title>Node5&#45;&gt;Node4</title>
<g id="a_edge8_Node000005_Node000004"><a xlink:title=" ">
<path fill="none" stroke="#63b8ff" d="M195,-85.94C203.08,-84.78 211.14,-83.56 218.99,-82.32"/>
<polygon fill="#63b8ff" stroke="#63b8ff" points="194.52,-82.48 185.1,-87.34 195.49,-89.41 194.52,-82.48"/>
</a>
</g>
</g>
</g>
</svg>

<g id="navigator" transform="translate(0 0)" fill="#404254">
  <rect fill="#f2f5e9" fill-opacity="0.5" stroke="#606060" stroke-width=".5" x="0" y="0" width="60" height="60"/>
  <use id="zoomplus" xlink:href="#zoomPlus" x="17" y="9" onmousedown="handleZoom(evt,'in')"/>
  <use id="zoomminus" xlink:href="#zoomMin" x="42" y="9" onmousedown="handleZoom(evt,'out')"/>
  <use id="reset" xlink:href="#resetDef" x="30" y="36" onmousedown="handleReset()"/>
   <use id="arrowup" xlink:href="#arrowUp" x="0" y="0" onmousedown="handlePan(0,-1)"/>
  <use id="arrowright" xlink:href="#arrowRight" x="0" y="0" onmousedown="handlePan(1,0)"/>
  <use id="arrowdown" xlink:href="#arrowDown" x="0" y="0" onmousedown="handlePan(0,1)"/>
  <use id="arrowleft" xlink:href="#arrowLeft" x="0" y="0" onmousedown="handlePan(-1,0)"/>
</g>
<svg viewBox="0 0 15 15" width="100%" height="30px" preserveAspectRatio="xMaxYMin meet">
 <g id="arrow_out" transform="scale(0.3 0.3)">
  <a xlink:href="classml_1_1maths_1_1time__series_1_1_c_time_series_multibucket_mean_ab6490c969bd2562cfc9d12348e94a8c2_icgraph_org.svg" target="_base">
   <rect id="button" ry="5" rx="5" y="6" x="6" height="38" width="38"
        fill="#f2f5e9" fill-opacity="0.5" stroke="#606060" stroke-width="1.0"/>
   <path id="arrow"
     d="M 11.500037,31.436501 C 11.940474,20.09759 22.043105,11.32322 32.158766,21.979434 L 37.068811,17.246167 C 37.068811,17.246167 37.088388,32 37.088388,32 L 22.160133,31.978069 C 22.160133,31.978069 26.997745,27.140456 26.997745,27.140456 C 18.528582,18.264221 13.291696,25.230495 11.500037,31.436501 z"
     style="fill:#404040;"/>
  </a>
 </g>
</svg>

<style type='text/css'>
<![CDATA[
[data-mouse-over-selected='false'] { opacity: 0.7; }
[data-mouse-over-selected='true']  { opacity: 1.0; }
]]>
</style>
<script type="application/ecmascript"><![CDATA[
document.addEventListener('DOMContentLoaded', (event) => {
  highlightEdges();
  highlightAdjacentNodes();
});
]]></script>
</svg>
