<?xml version="1.0" encoding="UTF-8" standalone="no"?>
<!DOCTYPE svg PUBLIC "-//W3C//DTD SVG 1.1//EN"
 "http://www.w3.org/Graphics/SVG/1.1/DTD/svg11.dtd">
<!-- Generated by graphviz version 10.0.1 (20240210.2158)
 -->
<!-- Title: ml::maths::time_series::CDecompositionComponent::valueSpline Pages: 1 -->
<svg width="1143pt" height="473pt"
 viewBox="0.00 0.00 1142.75 473.12" xmlns="http://www.w3.org/2000/svg" xmlns:xlink="http://www.w3.org/1999/xlink">
<g id="graph0" class="graph" transform="scale(1 1) rotate(0) translate(4 469.12)">
<title>ml::maths::time_series::CDecompositionComponent::valueSpline</title>
<!-- Node1 -->
<g id="Node000001" class="node">
<title>Node1</title>
<g id="a_Node000001"><a xlink:title="Get the value spline.">
<polygon fill="#999999" stroke="#666666" points="1134.75,-278.12 989.75,-278.12 989.75,-236.38 1134.75,-236.38 1134.75,-278.12"/>
<text text-anchor="start" x="997.75" y="-264.62" font-family="Helvetica,sans-Serif" font-size="10.00">ml::maths::time_series</text>
<text text-anchor="start" x="997.75" y="-253.38" font-family="Helvetica,sans-Serif" font-size="10.00">::CDecompositionComponent</text>
<text text-anchor="middle" x="1062.25" y="-242.12" font-family="Helvetica,sans-Serif" font-size="10.00">::valueSpline</text>
</a>
</g>
</g>
<!-- Node2 -->
<g id="Node000002" class="node">
<title>Node2</title>
<g id="a_Node000002"><a xlink:href="../../d3/dc9/classml_1_1maths_1_1time__series_1_1_c_decomposition_component.html#aa2f6e39b6e2bc51b5eca9eae6b8a0688" target="_top" xlink:title="Create by traversing a state document.">
<polygon fill="white" stroke="#666666" points="953.38,-387.12 808.38,-387.12 808.38,-345.38 953.38,-345.38 953.38,-387.12"/>
<text text-anchor="start" x="816.38" y="-373.62" font-family="Helvetica,sans-Serif" font-size="10.00">ml::maths::time_series</text>
<text text-anchor="start" x="816.38" y="-362.38" font-family="Helvetica,sans-Serif" font-size="10.00">::CDecompositionComponent</text>
<text text-anchor="middle" x="880.88" y="-351.12" font-family="Helvetica,sans-Serif" font-size="10.00">::acceptRestoreTraverser</text>
</a>
</g>
</g>
<!-- Node1&#45;&gt;Node2 -->
<g id="edge1_Node000001_Node000002" class="edge">
<title>Node1&#45;&gt;Node2</title>
<g id="a_edge1_Node000001_Node000002"><a xlink:title=" ">
<path fill="none" stroke="#63b8ff" d="M1027.02,-285.68C1006.58,-301.8 979.63,-321.62 953.75,-336.25 948.34,-339.31 942.55,-342.24 936.69,-344.99"/>
<polygon fill="#63b8ff" stroke="#63b8ff" points="1029.12,-288.48 1034.74,-279.5 1024.75,-283.01 1029.12,-288.48"/>
</a>
</g>
</g>
<!-- Node3 -->
<g id="Node000003" class="node">
<title>Node3</title>
<g id="a_Node000003"><a xlink:href="../../d1/d87/classml_1_1maths_1_1time__series_1_1_c_decomposition_component_1_1_c_packed_splines.html#a82cbea1547e547aa9b9cd7015545c068" target="_top" xlink:title="Interpolate the value and variance functions on knots.">
<polygon fill="white" stroke="#666666" points="953.75,-327.12 808,-327.12 808,-285.38 953.75,-285.38 953.75,-327.12"/>
<text text-anchor="start" x="816" y="-313.62" font-family="Helvetica,sans-Serif" font-size="10.00">ml::maths::time_series</text>
<text text-anchor="start" x="816" y="-302.38" font-family="Helvetica,sans-Serif" font-size="10.00">::CDecompositionComponent</text>
<text text-anchor="middle" x="880.88" y="-291.12" font-family="Helvetica,sans-Serif" font-size="10.00">::CPackedSplines::interpolate</text>
</a>
</g>
</g>
<!-- Node1&#45;&gt;Node3 -->
<g id="edge2_Node000001_Node000003" class="edge">
<title>Node1&#45;&gt;Node3</title>
<g id="a_edge2_Node000001_Node000003"><a xlink:title=" ">
<path fill="none" stroke="#63b8ff" d="M978.36,-279.89C970.26,-282.11 962.09,-284.34 954.11,-286.52"/>
<polygon fill="#63b8ff" stroke="#63b8ff" points="979.14,-283.31 987.86,-277.3 977.3,-276.56 979.14,-283.31"/>
</a>
</g>
</g>
<!-- Node4 -->
<g id="Node000004" class="node">
<title>Node4</title>
<g id="a_Node000004"><a xlink:href="../../d3/dc9/classml_1_1maths_1_1time__series_1_1_c_decomposition_component.html#a2e79661e7f008e30903bcf3a46fbda24" target="_top" xlink:title=" ">
<polygon fill="white" stroke="#666666" points="769.75,-345.12 624.75,-345.12 624.75,-303.38 769.75,-303.38 769.75,-345.12"/>
<text text-anchor="start" x="632.75" y="-331.62" font-family="Helvetica,sans-Serif" font-size="10.00">ml::maths::time_series</text>
<text text-anchor="start" x="632.75" y="-320.38" font-family="Helvetica,sans-Serif" font-size="10.00">::CDecompositionComponent</text>
<text text-anchor="middle" x="697.25" y="-309.12" font-family="Helvetica,sans-Serif" font-size="10.00">::interpolate</text>
</a>
</g>
</g>
<!-- Node1&#45;&gt;Node4 -->
<g id="edge13_Node000001_Node000004" class="edge">
<title>Node1&#45;&gt;Node4</title>
<g id="a_edge13_Node000001_Node000004"><a xlink:title=" ">
<path fill="none" stroke="#63b8ff" d="M977.88,-256.48C927.95,-257.75 863.58,-262.44 808,-276.25 783.88,-282.24 758.37,-293.1 738.01,-302.98"/>
<polygon fill="#63b8ff" stroke="#63b8ff" points="977.84,-259.99 987.77,-256.28 977.7,-252.99 977.84,-259.99"/>
</a>
</g>
</g>
<!-- Node14 -->
<g id="Node000014" class="node">
<title>Node14</title>
<g id="a_Node000014"><a xlink:href="../../d3/dc9/classml_1_1maths_1_1time__series_1_1_c_decomposition_component.html#a12ba038b73ecbc680cd9f65dad842ada" target="_top" xlink:title=" ">
<polygon fill="white" stroke="#666666" points="953.38,-202.12 808.38,-202.12 808.38,-160.38 953.38,-160.38 953.38,-202.12"/>
<text text-anchor="start" x="816.38" y="-188.62" font-family="Helvetica,sans-Serif" font-size="10.00">ml::maths::time_series</text>
<text text-anchor="start" x="816.38" y="-177.38" font-family="Helvetica,sans-Serif" font-size="10.00">::CDecompositionComponent</text>
<text text-anchor="middle" x="880.88" y="-166.12" font-family="Helvetica,sans-Serif" font-size="10.00">::value</text>
</a>
</g>
</g>
<!-- Node1&#45;&gt;Node14 -->
<g id="edge14_Node000001_Node000014" class="edge">
<title>Node1&#45;&gt;Node14</title>
<g id="a_edge14_Node000001_Node000014"><a xlink:title=" ">
<path fill="none" stroke="#63b8ff" d="M1000.48,-231.5C978.29,-222.1 953.44,-211.57 932.25,-202.59"/>
<polygon fill="#63b8ff" stroke="#63b8ff" points="998.84,-234.61 1009.41,-235.29 1001.57,-228.16 998.84,-234.61"/>
</a>
</g>
</g>
<!-- Node24 -->
<g id="Node000024" class="node">
<title>Node24</title>
<g id="a_Node000024"><a xlink:href="../../d1/d1d/classml_1_1maths_1_1time__series_1_1_c_seasonal_component.html#ab7c802af6089201b90b4b79905b37417" target="_top" xlink:title="Get the value spline.">
<polygon fill="white" stroke="#666666" points="944,-142.12 817.75,-142.12 817.75,-100.38 944,-100.38 944,-142.12"/>
<text text-anchor="start" x="825.75" y="-128.62" font-family="Helvetica,sans-Serif" font-size="10.00">ml::maths::time_series</text>
<text text-anchor="start" x="825.75" y="-117.38" font-family="Helvetica,sans-Serif" font-size="10.00">::CSeasonalComponent::</text>
<text text-anchor="middle" x="880.88" y="-106.12" font-family="Helvetica,sans-Serif" font-size="10.00">valueSpline</text>
</a>
</g>
</g>
<!-- Node1&#45;&gt;Node24 -->
<g id="edge26_Node000001_Node000024" class="edge">
<title>Node1&#45;&gt;Node24</title>
<g id="a_edge26_Node000001_Node000024"><a xlink:title=" ">
<path fill="none" stroke="#63b8ff" d="M1036.91,-227.66C1016.6,-204.45 985.87,-172.61 953.75,-151.25 949.02,-148.11 943.91,-145.18 938.67,-142.5"/>
<polygon fill="#63b8ff" stroke="#63b8ff" points="1034,-229.65 1043.18,-234.94 1039.31,-225.08 1034,-229.65"/>
</a>
</g>
</g>
<!-- Node3&#45;&gt;Node4 -->
<g id="edge3_Node000003_Node000004" class="edge">
<title>Node3&#45;&gt;Node4</title>
<g id="a_edge3_Node000003_Node000004"><a xlink:title=" ">
<path fill="none" stroke="#63b8ff" d="M796.16,-314.55C787.42,-315.41 778.6,-316.29 770.01,-317.14"/>
<polygon fill="#63b8ff" stroke="#63b8ff" points="796.46,-318.03 806.06,-313.57 795.77,-311.07 796.46,-318.03"/>
</a>
</g>
</g>
<!-- Node5 -->
<g id="Node000005" class="node">
<title>Node5</title>
<g id="a_Node000005"><a xlink:href="../../d1/d87/classml_1_1maths_1_1time__series_1_1_c_decomposition_component_1_1_c_packed_splines.html#a57c1d91b46f038f7e40a2664e9b2d088" target="_top" xlink:title="Create by traversing a state document.">
<polygon fill="white" stroke="#666666" points="586.5,-465.12 380.75,-465.12 380.75,-423.38 586.5,-423.38 586.5,-465.12"/>
<text text-anchor="start" x="388.75" y="-451.62" font-family="Helvetica,sans-Serif" font-size="10.00">ml::maths::time_series</text>
<text text-anchor="start" x="388.75" y="-440.38" font-family="Helvetica,sans-Serif" font-size="10.00">::CDecompositionComponent</text>
<text text-anchor="middle" x="483.62" y="-429.12" font-family="Helvetica,sans-Serif" font-size="10.00">::CPackedSplines::acceptRestoreTraverser</text>
</a>
</g>
</g>
<!-- Node4&#45;&gt;Node5 -->
<g id="edge4_Node000004_Node000005" class="edge">
<title>Node4&#45;&gt;Node5</title>
<g id="a_edge4_Node000004_Node000005"><a xlink:title=" ">
<path fill="none" stroke="#63b8ff" d="M667.74,-353.11C646.85,-372.81 616.94,-398.15 586.5,-414.25 580.47,-417.44 574.05,-420.33 567.49,-422.95"/>
<polygon fill="#63b8ff" stroke="#63b8ff" points="669.96,-355.83 674.75,-346.38 665.11,-350.78 669.96,-355.83"/>
</a>
</g>
</g>
<!-- Node6 -->
<g id="Node000006" class="node">
<title>Node6</title>
<g id="a_Node000006"><a xlink:href="../../d2/da4/classml_1_1maths_1_1time__series_1_1_c_calendar_component.html#a52413b96720bac163a882f8bd99127c8" target="_top" xlink:title=" ">
<polygon fill="white" stroke="#666666" points="546,-405.12 421.25,-405.12 421.25,-363.38 546,-363.38 546,-405.12"/>
<text text-anchor="start" x="429.25" y="-391.62" font-family="Helvetica,sans-Serif" font-size="10.00">ml::maths::time_series</text>
<text text-anchor="start" x="429.25" y="-380.38" font-family="Helvetica,sans-Serif" font-size="10.00">::CCalendarComponent::</text>
<text text-anchor="middle" x="483.62" y="-369.12" font-family="Helvetica,sans-Serif" font-size="10.00">interpolate</text>
</a>
</g>
</g>
<!-- Node4&#45;&gt;Node6 -->
<g id="edge5_Node000004_Node000006" class="edge">
<title>Node4&#45;&gt;Node6</title>
<g id="a_edge5_Node000004_Node000006"><a xlink:title=" ">
<path fill="none" stroke="#63b8ff" d="M613.49,-347.71C591.18,-354.04 567.43,-360.77 546.48,-366.71"/>
<polygon fill="#63b8ff" stroke="#63b8ff" points="614.19,-351.15 622.85,-345.06 612.28,-344.42 614.19,-351.15"/>
</a>
</g>
</g>
<!-- Node9 -->
<g id="Node000009" class="node">
<title>Node9</title>
<g id="a_Node000009"><a xlink:href="../../d1/d1d/classml_1_1maths_1_1time__series_1_1_c_seasonal_component.html#a5928687b847c2441307221b88e60df35" target="_top" xlink:title=" ">
<polygon fill="white" stroke="#666666" points="546.75,-345.12 420.5,-345.12 420.5,-303.38 546.75,-303.38 546.75,-345.12"/>
<text text-anchor="start" x="428.5" y="-331.62" font-family="Helvetica,sans-Serif" font-size="10.00">ml::maths::time_series</text>
<text text-anchor="start" x="428.5" y="-320.38" font-family="Helvetica,sans-Serif" font-size="10.00">::CSeasonalComponent::</text>
<text text-anchor="middle" x="483.62" y="-309.12" font-family="Helvetica,sans-Serif" font-size="10.00">interpolate</text>
</a>
</g>
</g>
<!-- Node4&#45;&gt;Node9 -->
<g id="edge8_Node000004_Node000009" class="edge">
<title>Node4&#45;&gt;Node9</title>
<g id="a_edge8_Node000004_Node000009"><a xlink:title=" ">
<path fill="none" stroke="#63b8ff" d="M612.99,-324.25C591.07,-324.25 567.8,-324.25 547.17,-324.25"/>
<polygon fill="#63b8ff" stroke="#63b8ff" points="612.79,-327.75 622.79,-324.25 612.79,-320.75 612.79,-327.75"/>
</a>
</g>
</g>
<!-- Node7 -->
<g id="Node000007" class="node">
<title>Node7</title>
<g id="a_Node000007"><a xlink:href="../../d2/da4/classml_1_1maths_1_1time__series_1_1_c_calendar_component.html#a00a981aefb89b1fbd233341a369106f1" target="_top" xlink:title="Linearly scale the component&#39;s by scale.">
<polygon fill="white" stroke="#666666" points="344,-405.12 219.25,-405.12 219.25,-363.38 344,-363.38 344,-405.12"/>
<text text-anchor="start" x="227.25" y="-391.62" font-family="Helvetica,sans-Serif" font-size="10.00">ml::maths::time_series</text>
<text text-anchor="start" x="227.25" y="-380.38" font-family="Helvetica,sans-Serif" font-size="10.00">::CCalendarComponent::</text>
<text text-anchor="middle" x="281.62" y="-369.12" font-family="Helvetica,sans-Serif" font-size="10.00">linearScale</text>
</a>
</g>
</g>
<!-- Node6&#45;&gt;Node7 -->
<g id="edge6_Node000006_Node000007" class="edge">
<title>Node6&#45;&gt;Node7</title>
<g id="a_edge6_Node000006_Node000007"><a xlink:title=" ">
<path fill="none" stroke="#63b8ff" d="M409.64,-384.25C388.23,-384.25 365.04,-384.25 344.4,-384.25"/>
<polygon fill="#63b8ff" stroke="#63b8ff" points="409.47,-387.75 419.47,-384.25 409.47,-380.75 409.47,-387.75"/>
</a>
</g>
</g>
<!-- Node8 -->
<g id="Node000008" class="node">
<title>Node8</title>
<g id="a_Node000008"><a xlink:href="../../d9/d5e/classml_1_1maths_1_1time__series_1_1_c_scale.html#aaeef51dd980bf63d603f1b9123229039" target="_top" xlink:title=" ">
<polygon fill="white" stroke="#666666" points="149.12,-399.5 33.38,-399.5 33.38,-369 149.12,-369 149.12,-399.5"/>
<text text-anchor="start" x="41.38" y="-386" font-family="Helvetica,sans-Serif" font-size="10.00">ml::maths::time_series</text>
<text text-anchor="middle" x="91.25" y="-374.75" font-family="Helvetica,sans-Serif" font-size="10.00">::CScale::apply</text>
</a>
</g>
</g>
<!-- Node7&#45;&gt;Node8 -->
<g id="edge7_Node000007_Node000008" class="edge">
<title>Node7&#45;&gt;Node8</title>
<g id="a_edge7_Node000007_Node000008"><a xlink:title=" ">
<path fill="none" stroke="#63b8ff" d="M207.49,-384.25C188.28,-384.25 167.85,-384.25 149.6,-384.25"/>
<polygon fill="#63b8ff" stroke="#63b8ff" points="207.43,-387.75 217.43,-384.25 207.43,-380.75 207.43,-387.75"/>
</a>
</g>
</g>
<!-- Node10 -->
<g id="Node000010" class="node">
<title>Node10</title>
<g id="a_Node000010"><a xlink:href="../../d1/d1d/classml_1_1maths_1_1time__series_1_1_c_seasonal_component.html#aba0b2f1de40ae81b63d2916ced7c15e3" target="_top" xlink:title="Initialize the adaptive bucketing.">
<polygon fill="white" stroke="#666666" points="344.75,-260.12 218.5,-260.12 218.5,-218.38 344.75,-218.38 344.75,-260.12"/>
<text text-anchor="start" x="226.5" y="-246.62" font-family="Helvetica,sans-Serif" font-size="10.00">ml::maths::time_series</text>
<text text-anchor="start" x="226.5" y="-235.38" font-family="Helvetica,sans-Serif" font-size="10.00">::CSeasonalComponent::</text>
<text text-anchor="middle" x="281.62" y="-224.12" font-family="Helvetica,sans-Serif" font-size="10.00">initialize</text>
</a>
</g>
</g>
<!-- Node9&#45;&gt;Node10 -->
<g id="edge9_Node000009_Node000010" class="edge">
<title>Node9&#45;&gt;Node10</title>
<g id="a_edge9_Node000009_Node000010"><a xlink:title=" ">
<path fill="none" stroke="#63b8ff" d="M409.25,-304.8C399.55,-301.6 389.82,-298.07 380.75,-294.25 358.43,-284.85 334.71,-271.65 316.19,-260.54"/>
<polygon fill="#63b8ff" stroke="#63b8ff" points="408.13,-308.12 418.72,-307.81 410.25,-301.45 408.13,-308.12"/>
</a>
</g>
</g>
<!-- Node12 -->
<g id="Node000012" class="node">
<title>Node12</title>
<g id="a_Node000012"><a xlink:href="../../d1/d1d/classml_1_1maths_1_1time__series_1_1_c_seasonal_component.html#ac4bc65a11d95ba4e8449f4b8fe997aac" target="_top" xlink:title="Linearly scale the component&#39;s by scale.">
<polygon fill="white" stroke="#666666" points="344.75,-345.12 218.5,-345.12 218.5,-303.38 344.75,-303.38 344.75,-345.12"/>
<text text-anchor="start" x="226.5" y="-331.62" font-family="Helvetica,sans-Serif" font-size="10.00">ml::maths::time_series</text>
<text text-anchor="start" x="226.5" y="-320.38" font-family="Helvetica,sans-Serif" font-size="10.00">::CSeasonalComponent::</text>
<text text-anchor="middle" x="281.62" y="-309.12" font-family="Helvetica,sans-Serif" font-size="10.00">linearScale</text>
</a>
</g>
</g>
<!-- Node9&#45;&gt;Node12 -->
<g id="edge11_Node000009_Node000012" class="edge">
<title>Node9&#45;&gt;Node12</title>
<g id="a_edge11_Node000009_Node000012"><a xlink:title=" ">
<path fill="none" stroke="#63b8ff" d="M408.72,-324.25C387.76,-324.25 365.15,-324.25 344.95,-324.25"/>
<polygon fill="#63b8ff" stroke="#63b8ff" points="408.65,-327.75 418.65,-324.25 408.65,-320.75 408.65,-327.75"/>
</a>
</g>
</g>
<!-- Node11 -->
<g id="Node000011" class="node">
<title>Node11</title>
<g id="a_Node000011"><a xlink:href="../../de/da5/classml_1_1maths_1_1time__series_1_1_c_new_seasonal_component_summary.html#a4f24706e33caadc86c16b5ad00d7d6c1" target="_top" xlink:title="Create a seasonal component from the initial values.">
<polygon fill="white" stroke="#666666" points="182.5,-260.12 0,-260.12 0,-218.38 182.5,-218.38 182.5,-260.12"/>
<text text-anchor="start" x="8" y="-246.62" font-family="Helvetica,sans-Serif" font-size="10.00">ml::maths::time_series</text>
<text text-anchor="start" x="8" y="-235.38" font-family="Helvetica,sans-Serif" font-size="10.00">::CNewSeasonalComponentSummary</text>
<text text-anchor="middle" x="91.25" y="-224.12" font-family="Helvetica,sans-Serif" font-size="10.00">::createSeasonalComponent</text>
</a>
</g>
</g>
<!-- Node10&#45;&gt;Node11 -->
<g id="edge10_Node000010_Node000011" class="edge">
<title>Node10&#45;&gt;Node11</title>
<g id="a_edge10_Node000010_Node000011"><a xlink:title=" ">
<path fill="none" stroke="#63b8ff" d="M206.79,-239.25C198.91,-239.25 190.83,-239.25 182.79,-239.25"/>
<polygon fill="#63b8ff" stroke="#63b8ff" points="206.65,-242.75 216.65,-239.25 206.65,-235.75 206.65,-242.75"/>
</a>
</g>
</g>
<!-- Node13 -->
<g id="Node000013" class="node">
<title>Node13</title>
<g id="a_Node000013"><a xlink:href="../../d9/d5e/classml_1_1maths_1_1time__series_1_1_c_scale.html#a466e04eb941540e537a5b5dd3d48433b" target="_top" xlink:title=" ">
<polygon fill="white" stroke="#666666" points="149.12,-339.5 33.38,-339.5 33.38,-309 149.12,-309 149.12,-339.5"/>
<text text-anchor="start" x="41.38" y="-326" font-family="Helvetica,sans-Serif" font-size="10.00">ml::maths::time_series</text>
<text text-anchor="middle" x="91.25" y="-314.75" font-family="Helvetica,sans-Serif" font-size="10.00">::CScale::apply</text>
</a>
</g>
</g>
<!-- Node12&#45;&gt;Node13 -->
<g id="edge12_Node000012_Node000013" class="edge">
<title>Node12&#45;&gt;Node13</title>
<g id="a_edge12_Node000012_Node000013"><a xlink:title=" ">
<path fill="none" stroke="#63b8ff" d="M206.79,-324.25C187.74,-324.25 167.52,-324.25 149.46,-324.25"/>
<polygon fill="#63b8ff" stroke="#63b8ff" points="206.65,-327.75 216.65,-324.25 206.65,-320.75 206.65,-327.75"/>
</a>
</g>
</g>
<!-- Node14&#45;&gt;Node14 -->
<g id="edge20_Node000014_Node000014" class="edge">
<title>Node14&#45;&gt;Node14</title>
<g id="a_edge20_Node000014_Node000014"><a xlink:title=" ">
<path fill="none" stroke="#63b8ff" d="M910.73,-213.24C905.57,-217.38 895.62,-220.12 880.88,-220.12 855.37,-220.12 844.21,-211.92 847.4,-202.44"/>
<polygon fill="#63b8ff" stroke="#63b8ff" points="914,-214.47 913.87,-203.88 907.37,-212.24 914,-214.47"/>
</a>
</g>
</g>
<!-- Node15 -->
<g id="Node000015" class="node">
<title>Node15</title>
<g id="a_Node000015"><a xlink:href="../../d1/d87/classml_1_1maths_1_1time__series_1_1_c_decomposition_component_1_1_c_packed_splines.html#adf010f909745baf9d7c633ee2a7ec636" target="_top" xlink:title="Shift the spline values by shift.">
<polygon fill="white" stroke="#666666" points="769.75,-119.12 624.75,-119.12 624.75,-77.38 769.75,-77.38 769.75,-119.12"/>
<text text-anchor="start" x="632.75" y="-105.62" font-family="Helvetica,sans-Serif" font-size="10.00">ml::maths::time_series</text>
<text text-anchor="start" x="632.75" y="-94.38" font-family="Helvetica,sans-Serif" font-size="10.00">::CDecompositionComponent</text>
<text text-anchor="middle" x="697.25" y="-83.12" font-family="Helvetica,sans-Serif" font-size="10.00">::CPackedSplines::shift</text>
</a>
</g>
</g>
<!-- Node14&#45;&gt;Node15 -->
<g id="edge15_Node000014_Node000015" class="edge">
<title>Node14&#45;&gt;Node15</title>
<g id="a_edge15_Node000014_Node000015"><a xlink:title=" ">
<path fill="none" stroke="#63b8ff" d="M817.53,-155.47C814.3,-154.06 811.11,-152.65 808,-151.25 785.71,-141.23 761.19,-129.46 741,-119.56"/>
<polygon fill="#63b8ff" stroke="#63b8ff" points="815.95,-158.6 826.52,-159.35 818.73,-152.18 815.95,-158.6"/>
</a>
</g>
</g>
<!-- Node18 -->
<g id="Node000018" class="node">
<title>Node18</title>
<g id="a_Node000018"><a xlink:href="../../d2/da4/classml_1_1maths_1_1time__series_1_1_c_calendar_component.html#a388c580a49ddd380233c6f70e6693df1" target="_top" xlink:title=" ">
<polygon fill="white" stroke="#666666" points="771.25,-59.5 623.25,-59.5 623.25,-29 771.25,-29 771.25,-59.5"/>
<text text-anchor="start" x="631.25" y="-46" font-family="Helvetica,sans-Serif" font-size="10.00">ml::maths::time_series</text>
<text text-anchor="middle" x="697.25" y="-34.75" font-family="Helvetica,sans-Serif" font-size="10.00">::CCalendarComponent::value</text>
</a>
</g>
</g>
<!-- Node14&#45;&gt;Node18 -->
<g id="edge18_Node000014_Node000018" class="edge">
<title>Node14&#45;&gt;Node18</title>
<g id="a_edge18_Node000014_Node000018"><a xlink:title=" ">
<path fill="none" stroke="#63b8ff" d="M809.88,-153.03C809.24,-152.45 808.61,-151.86 808,-151.25 779.37,-123.02 801.75,-95.31 772,-68.25 768.51,-65.08 764.6,-62.33 760.45,-59.94"/>
<polygon fill="#63b8ff" stroke="#63b8ff" points="807.61,-155.7 817.65,-159.05 811.89,-150.16 807.61,-155.7"/>
</a>
</g>
</g>
<!-- Node20 -->
<g id="Node000020" class="node">
<title>Node20</title>
<g id="a_Node000020"><a xlink:href="../../d1/d1d/classml_1_1maths_1_1time__series_1_1_c_seasonal_component.html#af91bf6c8db20eed8e0e918aecd33429d" target="_top" xlink:title=" ">
<polygon fill="white" stroke="#666666" points="772,-196.5 622.5,-196.5 622.5,-166 772,-166 772,-196.5"/>
<text text-anchor="start" x="630.5" y="-183" font-family="Helvetica,sans-Serif" font-size="10.00">ml::maths::time_series</text>
<text text-anchor="middle" x="697.25" y="-171.75" font-family="Helvetica,sans-Serif" font-size="10.00">::CSeasonalComponent::value</text>
</a>
</g>
</g>
<!-- Node14&#45;&gt;Node20 -->
<g id="edge21_Node000014_Node000020" class="edge">
<title>Node14&#45;&gt;Node20</title>
<g id="a_edge21_Node000014_Node000020"><a xlink:title=" ">
<path fill="none" stroke="#63b8ff" d="M796.74,-181.25C788.65,-181.25 780.48,-181.25 772.49,-181.25"/>
<polygon fill="#63b8ff" stroke="#63b8ff" points="796.58,-184.75 806.58,-181.25 796.58,-177.75 796.58,-184.75"/>
</a>
</g>
</g>
<!-- Node16 -->
<g id="Node000016" class="node">
<title>Node16</title>
<g id="a_Node000016"><a xlink:href="../../d3/dc9/classml_1_1maths_1_1time__series_1_1_c_decomposition_component.html#aac2961a2574e420ad68a107ea52af27b" target="_top" xlink:title="Shift the component&#39;s values by shift.">
<polygon fill="white" stroke="#666666" points="556.12,-90.12 411.12,-90.12 411.12,-48.38 556.12,-48.38 556.12,-90.12"/>
<text text-anchor="start" x="419.12" y="-76.62" font-family="Helvetica,sans-Serif" font-size="10.00">ml::maths::time_series</text>
<text text-anchor="start" x="419.12" y="-65.38" font-family="Helvetica,sans-Serif" font-size="10.00">::CDecompositionComponent</text>
<text text-anchor="middle" x="483.62" y="-54.12" font-family="Helvetica,sans-Serif" font-size="10.00">::shiftLevel</text>
</a>
</g>
</g>
<!-- Node15&#45;&gt;Node16 -->
<g id="edge16_Node000015_Node000016" class="edge">
<title>Node15&#45;&gt;Node16</title>
<g id="a_edge16_Node000015_Node000016"><a xlink:title=" ">
<path fill="none" stroke="#63b8ff" d="M613.1,-86.85C594.35,-84.29 574.6,-81.58 556.37,-79.08"/>
<polygon fill="#63b8ff" stroke="#63b8ff" points="612.43,-90.3 622.81,-88.19 613.38,-83.36 612.43,-90.3"/>
</a>
</g>
</g>
<!-- Node17 -->
<g id="Node000017" class="node">
<title>Node17</title>
<g id="a_Node000017"><a xlink:href="../../d1/d1d/classml_1_1maths_1_1time__series_1_1_c_seasonal_component.html#a323995eaa9accda687b08756271e8adf" target="_top" xlink:title="Shift the component&#39;s values by shift.">
<polygon fill="white" stroke="#666666" points="344.75,-90.12 218.5,-90.12 218.5,-48.38 344.75,-48.38 344.75,-90.12"/>
<text text-anchor="start" x="226.5" y="-76.62" font-family="Helvetica,sans-Serif" font-size="10.00">ml::maths::time_series</text>
<text text-anchor="start" x="226.5" y="-65.38" font-family="Helvetica,sans-Serif" font-size="10.00">::CSeasonalComponent::</text>
<text text-anchor="middle" x="281.62" y="-54.12" font-family="Helvetica,sans-Serif" font-size="10.00">shiftLevel</text>
</a>
</g>
</g>
<!-- Node16&#45;&gt;Node17 -->
<g id="edge17_Node000016_Node000017" class="edge">
<title>Node16&#45;&gt;Node17</title>
<g id="a_edge17_Node000016_Node000017"><a xlink:title=" ">
<path fill="none" stroke="#63b8ff" d="M399.21,-69.25C381.06,-69.25 362.15,-69.25 344.98,-69.25"/>
<polygon fill="#63b8ff" stroke="#63b8ff" points="399.19,-72.75 409.19,-69.25 399.19,-65.75 399.19,-72.75"/>
</a>
</g>
</g>
<!-- Node19 -->
<g id="Node000019" class="node">
<title>Node19</title>
<g id="a_Node000019"><a xlink:href="../../d2/da4/classml_1_1maths_1_1time__series_1_1_c_calendar_component.html#aaec5ae27ff76668274c8b4150db795cd" target="_top" xlink:title=" ">
<polygon fill="white" stroke="#666666" points="553.88,-30.5 413.38,-30.5 413.38,0 553.88,0 553.88,-30.5"/>
<text text-anchor="start" x="421.38" y="-17" font-family="Helvetica,sans-Serif" font-size="10.00">ml::maths::time_series</text>
<text text-anchor="middle" x="483.62" y="-5.75" font-family="Helvetica,sans-Serif" font-size="10.00">::CCalendarComponent::add</text>
</a>
</g>
</g>
<!-- Node18&#45;&gt;Node19 -->
<g id="edge19_Node000018_Node000019" class="edge">
<title>Node18&#45;&gt;Node19</title>
<g id="a_edge19_Node000018_Node000019"><a xlink:title=" ">
<path fill="none" stroke="#63b8ff" d="M611.48,-32.63C592.52,-30.04 572.62,-27.31 554.36,-24.81"/>
<polygon fill="#63b8ff" stroke="#63b8ff" points="610.95,-36.09 621.33,-33.98 611.9,-29.16 610.95,-36.09"/>
</a>
</g>
</g>
<!-- Node20&#45;&gt;Node10 -->
<g id="edge24_Node000020_Node000010" class="edge">
<title>Node20&#45;&gt;Node10</title>
<g id="a_edge24_Node000020_Node000010"><a xlink:title=" ">
<path fill="none" stroke="#63b8ff" d="M610.91,-193.22C531.79,-204.31 415.95,-220.56 345.12,-230.49"/>
<polygon fill="#63b8ff" stroke="#63b8ff" points="611.39,-196.68 620.8,-191.83 610.41,-189.75 611.39,-196.68"/>
</a>
</g>
</g>
<!-- Node21 -->
<g id="Node000021" class="node">
<title>Node21</title>
<g id="a_Node000021"><a xlink:href="../../d1/d1d/classml_1_1maths_1_1time__series_1_1_c_seasonal_component.html#a954c2f848dce54b210cb10453008d50a" target="_top" xlink:title=" ">
<polygon fill="white" stroke="#666666" points="554.62,-187.5 412.62,-187.5 412.62,-157 554.62,-157 554.62,-187.5"/>
<text text-anchor="start" x="420.62" y="-174" font-family="Helvetica,sans-Serif" font-size="10.00">ml::maths::time_series</text>
<text text-anchor="middle" x="483.62" y="-162.75" font-family="Helvetica,sans-Serif" font-size="10.00">::CSeasonalComponent::add</text>
</a>
</g>
</g>
<!-- Node20&#45;&gt;Node21 -->
<g id="edge22_Node000020_Node000021" class="edge">
<title>Node20&#45;&gt;Node21</title>
<g id="a_edge22_Node000020_Node000021"><a xlink:title=" ">
<path fill="none" stroke="#63b8ff" d="M610.83,-177.62C592.31,-176.83 572.91,-176 555.04,-175.24"/>
<polygon fill="#63b8ff" stroke="#63b8ff" points="610.58,-181.11 620.72,-178.04 610.88,-174.12 610.58,-181.11"/>
</a>
</g>
</g>
<!-- Node22 -->
<g id="Node000022" class="node">
<title>Node22</title>
<g id="a_Node000022"><a xlink:href="../../d1/d1d/classml_1_1maths_1_1time__series_1_1_c_seasonal_component.html#afa5a4a5743f70ec7b4560b16cd14f2c3" target="_top" xlink:title=" ">
<polygon fill="white" stroke="#666666" points="557.25,-138.5 410,-138.5 410,-108 557.25,-108 557.25,-138.5"/>
<text text-anchor="start" x="418" y="-125" font-family="Helvetica,sans-Serif" font-size="10.00">ml::maths::time_series</text>
<text text-anchor="middle" x="483.62" y="-113.75" font-family="Helvetica,sans-Serif" font-size="10.00">::CSeasonalComponent::delta</text>
</a>
</g>
</g>
<!-- Node20&#45;&gt;Node22 -->
<g id="edge23_Node000020_Node000022" class="edge">
<title>Node20&#45;&gt;Node22</title>
<g id="a_edge23_Node000020_Node000022"><a xlink:title=" ">
<path fill="none" stroke="#63b8ff" d="M635.15,-162.27C619.35,-157.53 602.33,-152.57 586.5,-148.25 574.99,-145.11 562.7,-141.94 550.79,-138.96"/>
<polygon fill="#63b8ff" stroke="#63b8ff" points="633.83,-165.53 644.42,-165.07 635.86,-158.83 633.83,-165.53"/>
</a>
</g>
</g>
<!-- Node23 -->
<g id="Node000023" class="node">
<title>Node23</title>
<g id="a_Node000023"><a xlink:href="../../d1/d1d/classml_1_1maths_1_1time__series_1_1_c_seasonal_component.html#a9385f3bf7a005668d1ba4b19637ed8b9" target="_top" xlink:title=" ">
<polygon fill="white" stroke="#666666" points="546.75,-285.12 420.5,-285.12 420.5,-243.38 546.75,-243.38 546.75,-285.12"/>
<text text-anchor="start" x="428.5" y="-271.62" font-family="Helvetica,sans-Serif" font-size="10.00">ml::maths::time_series</text>
<text text-anchor="start" x="428.5" y="-260.38" font-family="Helvetica,sans-Serif" font-size="10.00">::CSeasonalComponent::</text>
<text text-anchor="middle" x="483.62" y="-249.12" font-family="Helvetica,sans-Serif" font-size="10.00">likelyShift</text>
</a>
</g>
</g>
<!-- Node20&#45;&gt;Node23 -->
<g id="edge25_Node000020_Node000023" class="edge">
<title>Node20&#45;&gt;Node23</title>
<g id="a_edge25_Node000020_Node000023"><a xlink:title=" ">
<path fill="none" stroke="#63b8ff" d="M652.13,-201.52C632.23,-210.41 608.35,-220.74 586.5,-229.25 573.87,-234.17 560.22,-239.12 547.14,-243.67"/>
<polygon fill="#63b8ff" stroke="#63b8ff" points="653.37,-204.8 661.06,-197.51 650.5,-198.42 653.37,-204.8"/>
</a>
</g>
</g>
</g>
</svg>
