<?xml version="1.0" encoding="UTF-8" standalone="no"?>
<!DOCTYPE svg PUBLIC "-//W3C//DTD SVG 1.1//EN"
 "http://www.w3.org/Graphics/SVG/1.1/DTD/svg11.dtd">
<!-- Generated by graphviz version 10.0.1 (20240210.2158)
 -->
<!-- Title: ml::maths::time_series::CDecompositionComponent::shiftLevel Pages: 1 -->
<svg width="1018pt" height="305pt"
 viewBox="0.00 0.00 1018.25 304.75" xmlns="http://www.w3.org/2000/svg" xmlns:xlink="http://www.w3.org/1999/xlink">
<g id="graph0" class="graph" transform="scale(1 1) rotate(0) translate(4 300.75)">
<title>ml::maths::time_series::CDecompositionComponent::shiftLevel</title>
<!-- Node1 -->
<g id="Node000001" class="node">
<title>Node1</title>
<g id="a_Node000001"><a xlink:title="Shift the component&#39;s values by shift.">
<polygon fill="#999999" stroke="#666666" points="145,-128.75 0,-128.75 0,-87 145,-87 145,-128.75"/>
<text text-anchor="start" x="8" y="-115.25" font-family="Helvetica,sans-Serif" font-size="10.00">ml::maths::time_series</text>
<text text-anchor="start" x="8" y="-104" font-family="Helvetica,sans-Serif" font-size="10.00">::CDecompositionComponent</text>
<text text-anchor="middle" x="72.5" y="-92.75" font-family="Helvetica,sans-Serif" font-size="10.00">::shiftLevel</text>
</a>
</g>
</g>
<!-- Node2 -->
<g id="Node000002" class="node">
<title>Node2</title>
<g id="a_Node000002"><a xlink:href="../../d1/d87/classml_1_1maths_1_1time__series_1_1_c_decomposition_component_1_1_c_packed_splines.html#adf010f909745baf9d7c633ee2a7ec636" target="_top" xlink:title="Shift the spline values by shift.">
<polygon fill="white" stroke="#666666" points="326,-128.75 181,-128.75 181,-87 326,-87 326,-128.75"/>
<text text-anchor="start" x="189" y="-115.25" font-family="Helvetica,sans-Serif" font-size="10.00">ml::maths::time_series</text>
<text text-anchor="start" x="189" y="-104" font-family="Helvetica,sans-Serif" font-size="10.00">::CDecompositionComponent</text>
<text text-anchor="middle" x="253.5" y="-92.75" font-family="Helvetica,sans-Serif" font-size="10.00">::CPackedSplines::shift</text>
</a>
</g>
</g>
<!-- Node1&#45;&gt;Node2 -->
<g id="edge1_Node000001_Node000002" class="edge">
<title>Node1&#45;&gt;Node2</title>
<g id="a_edge1_Node000001_Node000002"><a xlink:title=" ">
<path fill="none" stroke="#63b8ff" d="M145.27,-107.88C153.21,-107.88 161.33,-107.88 169.39,-107.88"/>
<polygon fill="#63b8ff" stroke="#63b8ff" points="169.2,-111.38 179.2,-107.88 169.2,-104.38 169.2,-111.38"/>
</a>
</g>
</g>
<!-- Node3 -->
<g id="Node000003" class="node">
<title>Node3</title>
<g id="a_Node000003"><a xlink:href="../../d3/dc9/classml_1_1maths_1_1time__series_1_1_c_decomposition_component.html#a12ba038b73ecbc680cd9f65dad842ada" target="_top" xlink:title=" ">
<polygon fill="white" stroke="#666666" points="507,-128.75 362,-128.75 362,-87 507,-87 507,-128.75"/>
<text text-anchor="start" x="370" y="-115.25" font-family="Helvetica,sans-Serif" font-size="10.00">ml::maths::time_series</text>
<text text-anchor="start" x="370" y="-104" font-family="Helvetica,sans-Serif" font-size="10.00">::CDecompositionComponent</text>
<text text-anchor="middle" x="434.5" y="-92.75" font-family="Helvetica,sans-Serif" font-size="10.00">::value</text>
</a>
</g>
</g>
<!-- Node2&#45;&gt;Node3 -->
<g id="edge2_Node000002_Node000003" class="edge">
<title>Node2&#45;&gt;Node3</title>
<g id="a_edge2_Node000002_Node000003"><a xlink:title=" ">
<path fill="none" stroke="#63b8ff" d="M326.27,-107.88C334.21,-107.88 342.33,-107.88 350.39,-107.88"/>
<polygon fill="#63b8ff" stroke="#63b8ff" points="350.2,-111.38 360.2,-107.88 350.2,-104.38 350.2,-111.38"/>
</a>
</g>
</g>
<!-- Node3&#45;&gt;Node3 -->
<g id="edge13_Node000003_Node000003" class="edge">
<title>Node3&#45;&gt;Node3</title>
<g id="a_edge13_Node000003_Node000003"><a xlink:title=" ">
<path fill="none" stroke="#63b8ff" d="M401.09,-129.07C397.91,-138.55 409.05,-146.75 434.5,-146.75 449.22,-146.75 459.14,-144.01 464.29,-139.86"/>
<polygon fill="#63b8ff" stroke="#63b8ff" points="467.57,-141.1 467.43,-130.5 460.93,-138.87 467.57,-141.1"/>
</a>
</g>
</g>
<!-- Node4 -->
<g id="Node000004" class="node">
<title>Node4</title>
<g id="a_Node000004"><a xlink:href="../../d3/dc9/classml_1_1maths_1_1time__series_1_1_c_decomposition_component.html#a97df4201d641144adf5b18796772b2f8" target="_top" xlink:title="Check if the seasonal component has been estimated.">
<polygon fill="white" stroke="#666666" points="688,-252.75 543,-252.75 543,-211 688,-211 688,-252.75"/>
<text text-anchor="start" x="551" y="-239.25" font-family="Helvetica,sans-Serif" font-size="10.00">ml::maths::time_series</text>
<text text-anchor="start" x="551" y="-228" font-family="Helvetica,sans-Serif" font-size="10.00">::CDecompositionComponent</text>
<text text-anchor="middle" x="615.5" y="-216.75" font-family="Helvetica,sans-Serif" font-size="10.00">::initialized</text>
</a>
</g>
</g>
<!-- Node3&#45;&gt;Node4 -->
<g id="edge3_Node000003_Node000004" class="edge">
<title>Node3&#45;&gt;Node4</title>
<g id="a_edge3_Node000003_Node000004"><a xlink:title=" ">
<path fill="none" stroke="#63b8ff" d="M466.27,-129.19C496.2,-149.93 541.82,-181.53 574.55,-204.2"/>
<polygon fill="#63b8ff" stroke="#63b8ff" points="572.37,-206.95 582.59,-209.77 576.36,-201.2 572.37,-206.95"/>
</a>
</g>
</g>
<!-- Node6 -->
<g id="Node000006" class="node">
<title>Node6</title>
<g id="a_Node000006"><a xlink:href="../../d5/d99/classml_1_1maths_1_1common_1_1_c_spline.html#ad30fb657633042521274a54322d0ee30" target="_top" xlink:title=" ">
<polygon fill="white" stroke="#666666" points="670,-150.12 561,-150.12 561,-119.62 670,-119.62 670,-150.12"/>
<text text-anchor="start" x="569" y="-136.62" font-family="Helvetica,sans-Serif" font-size="10.00">ml::maths::common::</text>
<text text-anchor="middle" x="615.5" y="-125.38" font-family="Helvetica,sans-Serif" font-size="10.00">CSpline::value</text>
</a>
</g>
</g>
<!-- Node3&#45;&gt;Node6 -->
<g id="edge5_Node000003_Node000006" class="edge">
<title>Node3&#45;&gt;Node6</title>
<g id="a_edge5_Node000003_Node000006"><a xlink:title=" ">
<path fill="none" stroke="#63b8ff" d="M507.27,-118.7C521.18,-120.8 535.68,-122.99 549.36,-125.05"/>
<polygon fill="#63b8ff" stroke="#63b8ff" points="548.72,-128.49 559.13,-126.52 549.76,-121.57 548.72,-128.49"/>
</a>
</g>
</g>
<!-- Node12 -->
<g id="Node000012" class="node">
<title>Node12</title>
<g id="a_Node000012"><a xlink:href="../../d3/dc9/classml_1_1maths_1_1time__series_1_1_c_decomposition_component.html#af8299f80413e15ef9efd31aaedb8052d" target="_top" xlink:title="Get the value spline.">
<polygon fill="white" stroke="#666666" points="688,-101.75 543,-101.75 543,-60 688,-60 688,-101.75"/>
<text text-anchor="start" x="551" y="-88.25" font-family="Helvetica,sans-Serif" font-size="10.00">ml::maths::time_series</text>
<text text-anchor="start" x="551" y="-77" font-family="Helvetica,sans-Serif" font-size="10.00">::CDecompositionComponent</text>
<text text-anchor="middle" x="615.5" y="-65.75" font-family="Helvetica,sans-Serif" font-size="10.00">::valueSpline</text>
</a>
</g>
</g>
<!-- Node3&#45;&gt;Node12 -->
<g id="edge14_Node000003_Node000012" class="edge">
<title>Node3&#45;&gt;Node12</title>
<g id="a_edge14_Node000003_Node000012"><a xlink:title=" ">
<path fill="none" stroke="#63b8ff" d="M507.27,-97.05C515.21,-95.85 523.33,-94.63 531.39,-93.41"/>
<polygon fill="#63b8ff" stroke="#63b8ff" points="531.85,-96.88 541.21,-91.93 530.8,-89.96 531.85,-96.88"/>
</a>
</g>
</g>
<!-- Node14 -->
<g id="Node000014" class="node">
<title>Node14</title>
<g id="a_Node000014"><a xlink:href="../../d3/dc9/classml_1_1maths_1_1time__series_1_1_c_decomposition_component.html#a3577f924b3f733c1f709efee2a826be7" target="_top" xlink:title="Get the variance spline.">
<polygon fill="white" stroke="#666666" points="688,-41.75 543,-41.75 543,0 688,0 688,-41.75"/>
<text text-anchor="start" x="551" y="-28.25" font-family="Helvetica,sans-Serif" font-size="10.00">ml::maths::time_series</text>
<text text-anchor="start" x="551" y="-17" font-family="Helvetica,sans-Serif" font-size="10.00">::CDecompositionComponent</text>
<text text-anchor="middle" x="615.5" y="-5.75" font-family="Helvetica,sans-Serif" font-size="10.00">::varianceSpline</text>
</a>
</g>
</g>
<!-- Node3&#45;&gt;Node14 -->
<g id="edge16_Node000003_Node000014" class="edge">
<title>Node3&#45;&gt;Node14</title>
<g id="a_edge16_Node000003_Node000014"><a xlink:title=" ">
<path fill="none" stroke="#63b8ff" d="M473.38,-86.71C493.78,-75.59 519.52,-62 543,-50.88 545.91,-49.5 548.9,-48.12 551.93,-46.74"/>
<polygon fill="#63b8ff" stroke="#63b8ff" points="553.22,-50 560.94,-42.74 550.38,-43.6 553.22,-50"/>
</a>
</g>
</g>
<!-- Node5 -->
<g id="Node000005" class="node">
<title>Node5</title>
<g id="a_Node000005"><a xlink:href="../../d1/d87/classml_1_1maths_1_1time__series_1_1_c_decomposition_component_1_1_c_packed_splines.html#a638a84f6600ed79cb6063c02dd83b38b" target="_top" xlink:title="Check if the splines have been initialized.">
<polygon fill="white" stroke="#666666" points="869,-296.75 724,-296.75 724,-255 869,-255 869,-296.75"/>
<text text-anchor="start" x="732" y="-283.25" font-family="Helvetica,sans-Serif" font-size="10.00">ml::maths::time_series</text>
<text text-anchor="start" x="732" y="-272" font-family="Helvetica,sans-Serif" font-size="10.00">::CDecompositionComponent</text>
<text text-anchor="middle" x="796.5" y="-260.75" font-family="Helvetica,sans-Serif" font-size="10.00">::CPackedSplines::initialized</text>
</a>
</g>
</g>
<!-- Node4&#45;&gt;Node5 -->
<g id="edge4_Node000004_Node000005" class="edge">
<title>Node4&#45;&gt;Node5</title>
<g id="a_edge4_Node000004_Node000005"><a xlink:title=" ">
<path fill="none" stroke="#63b8ff" d="M688.27,-249.52C696.3,-251.49 704.52,-253.51 712.67,-255.51"/>
<polygon fill="#63b8ff" stroke="#63b8ff" points="711.69,-258.88 722.24,-257.87 713.36,-252.08 711.69,-258.88"/>
</a>
</g>
</g>
<!-- Node7 -->
<g id="Node000007" class="node">
<title>Node7</title>
<g id="a_Node000007"><a xlink:href="../../d5/d99/classml_1_1maths_1_1common_1_1_c_spline.html#a89db4cff0eb3da52e08292f255fd20f7" target="_top" xlink:title="Get the curvatures at the knot points of the spline.">
<polygon fill="white" stroke="#666666" points="851,-237.12 742,-237.12 742,-206.62 851,-206.62 851,-237.12"/>
<text text-anchor="start" x="750" y="-223.62" font-family="Helvetica,sans-Serif" font-size="10.00">ml::maths::common::</text>
<text text-anchor="middle" x="796.5" y="-212.38" font-family="Helvetica,sans-Serif" font-size="10.00">CSpline::curvatures</text>
</a>
</g>
</g>
<!-- Node6&#45;&gt;Node7 -->
<g id="edge6_Node000006_Node000007" class="edge">
<title>Node6&#45;&gt;Node7</title>
<g id="a_edge6_Node000006_Node000007"><a xlink:title=" ">
<path fill="none" stroke="#63b8ff" d="M640.57,-150.5C661.91,-163.93 694.23,-183.23 724,-196.88 727.92,-198.67 732.01,-200.42 736.17,-202.1"/>
<polygon fill="#63b8ff" stroke="#63b8ff" points="734.56,-205.23 745.14,-205.58 737.09,-198.7 734.56,-205.23"/>
</a>
</g>
</g>
<!-- Node9 -->
<g id="Node000009" class="node">
<title>Node9</title>
<g id="a_Node000009"><a xlink:href="../../d5/d99/classml_1_1maths_1_1common_1_1_c_spline.html#a39e53abd1d0c2de07a44a358db269622" target="_top" xlink:title="Get the knot points of the spline.">
<polygon fill="white" stroke="#666666" points="851,-188.12 742,-188.12 742,-157.62 851,-157.62 851,-188.12"/>
<text text-anchor="start" x="750" y="-174.62" font-family="Helvetica,sans-Serif" font-size="10.00">ml::maths::common::</text>
<text text-anchor="middle" x="796.5" y="-163.38" font-family="Helvetica,sans-Serif" font-size="10.00">CSpline::knots</text>
</a>
</g>
</g>
<!-- Node6&#45;&gt;Node9 -->
<g id="edge8_Node000006_Node000009" class="edge">
<title>Node6&#45;&gt;Node9</title>
<g id="a_edge8_Node000006_Node000009"><a xlink:title=" ">
<path fill="none" stroke="#63b8ff" d="M670.21,-146.28C689.15,-150.3 710.65,-154.86 730.43,-159.06"/>
<polygon fill="#63b8ff" stroke="#63b8ff" points="729.53,-162.45 740.04,-161.1 730.99,-155.6 729.53,-162.45"/>
</a>
</g>
</g>
<!-- Node10 -->
<g id="Node000010" class="node">
<title>Node10</title>
<g id="a_Node000010"><a xlink:href="../../dd/d55/classml_1_1maths_1_1common_1_1_c_tools.html#a0ee3c8a8c133d36faa270f96ff48ae21" target="_top" xlink:title=" ">
<polygon fill="white" stroke="#666666" points="851,-139.12 742,-139.12 742,-108.62 851,-108.62 851,-139.12"/>
<text text-anchor="start" x="750" y="-125.62" font-family="Helvetica,sans-Serif" font-size="10.00">ml::maths::common::</text>
<text text-anchor="middle" x="796.5" y="-114.38" font-family="Helvetica,sans-Serif" font-size="10.00">CTools::truncate</text>
</a>
</g>
</g>
<!-- Node6&#45;&gt;Node10 -->
<g id="edge10_Node000006_Node000010" class="edge">
<title>Node6&#45;&gt;Node10</title>
<g id="a_edge10_Node000006_Node000010"><a xlink:title=" ">
<path fill="none" stroke="#63b8ff" d="M670.21,-131.57C689.06,-130.42 710.45,-129.1 730.15,-127.89"/>
<polygon fill="#63b8ff" stroke="#63b8ff" points="730.25,-131.39 740.01,-127.28 729.82,-124.4 730.25,-131.39"/>
</a>
</g>
</g>
<!-- Node11 -->
<g id="Node000011" class="node">
<title>Node11</title>
<g id="a_Node000011"><a xlink:href="../../d5/d99/classml_1_1maths_1_1common_1_1_c_spline.html#af9d9ce19eea5bed22ade0c33c4d922d7" target="_top" xlink:title="Get the values at the knot points of the spline.">
<polygon fill="white" stroke="#666666" points="851,-90.12 742,-90.12 742,-59.62 851,-59.62 851,-90.12"/>
<text text-anchor="start" x="750" y="-76.62" font-family="Helvetica,sans-Serif" font-size="10.00">ml::maths::common::</text>
<text text-anchor="middle" x="796.5" y="-65.38" font-family="Helvetica,sans-Serif" font-size="10.00">CSpline::values</text>
</a>
</g>
</g>
<!-- Node6&#45;&gt;Node11 -->
<g id="edge11_Node000006_Node000011" class="edge">
<title>Node6&#45;&gt;Node11</title>
<g id="a_edge11_Node000006_Node000011"><a xlink:title=" ">
<path fill="none" stroke="#63b8ff" d="M663.06,-119.27C685.88,-111.62 713.58,-102.34 737.73,-94.24"/>
<polygon fill="#63b8ff" stroke="#63b8ff" points="738.74,-97.59 747.11,-91.09 736.52,-90.95 738.74,-97.59"/>
</a>
</g>
</g>
<!-- Node8 -->
<g id="Node000008" class="node">
<title>Node8</title>
<g id="a_Node000008"><a xlink:href="../../db/dc5/namespaceml_1_1core.html#a7fabda180cc1b8ddeaa756bf40ba24c5" target="_top" xlink:title=" ">
<polygon fill="white" stroke="#666666" points="1010.25,-182.5 905,-182.5 905,-163.25 1010.25,-163.25 1010.25,-182.5"/>
<text text-anchor="middle" x="957.62" y="-169" font-family="Helvetica,sans-Serif" font-size="10.00">ml::core::unwrap_ref</text>
</a>
</g>
</g>
<!-- Node7&#45;&gt;Node8 -->
<g id="edge7_Node000007_Node000008" class="edge">
<title>Node7&#45;&gt;Node8</title>
<g id="a_edge7_Node000007_Node000008"><a xlink:title=" ">
<path fill="none" stroke="#63b8ff" d="M848.29,-206.24C869.06,-199.84 892.87,-192.51 912.86,-186.35"/>
<polygon fill="#63b8ff" stroke="#63b8ff" points="913.86,-189.71 922.39,-183.42 911.8,-183.02 913.86,-189.71"/>
</a>
</g>
</g>
<!-- Node9&#45;&gt;Node8 -->
<g id="edge9_Node000009_Node000008" class="edge">
<title>Node9&#45;&gt;Node8</title>
<g id="a_edge9_Node000009_Node000008"><a xlink:title=" ">
<path fill="none" stroke="#63b8ff" d="M851.37,-172.88C864.83,-172.88 879.38,-172.88 893.25,-172.88"/>
<polygon fill="#63b8ff" stroke="#63b8ff" points="893.18,-176.38 903.18,-172.88 893.18,-169.38 893.18,-176.38"/>
</a>
</g>
</g>
<!-- Node11&#45;&gt;Node8 -->
<g id="edge12_Node000011_Node000008" class="edge">
<title>Node11&#45;&gt;Node8</title>
<g id="a_edge12_Node000011_Node000008"><a xlink:title=" ">
<path fill="none" stroke="#63b8ff" d="M849.64,-90.62C856.32,-93.35 862.94,-96.44 869,-99.88 895.85,-115.09 922.48,-138.83 939.21,-155.08"/>
<polygon fill="#63b8ff" stroke="#63b8ff" points="936.36,-157.19 945.93,-161.74 941.29,-152.22 936.36,-157.19"/>
</a>
</g>
</g>
<!-- Node13 -->
<g id="Node000013" class="node">
<title>Node13</title>
<g id="a_Node000013"><a xlink:href="../../d1/d87/classml_1_1maths_1_1time__series_1_1_c_decomposition_component_1_1_c_packed_splines.html#af06ce53f8fd739ff1f611b52cdc0bf42" target="_top" xlink:title="Get a constant spline reference.">
<polygon fill="white" stroke="#666666" points="869,-41.75 724,-41.75 724,0 869,0 869,-41.75"/>
<text text-anchor="start" x="732" y="-28.25" font-family="Helvetica,sans-Serif" font-size="10.00">ml::maths::time_series</text>
<text text-anchor="start" x="732" y="-17" font-family="Helvetica,sans-Serif" font-size="10.00">::CDecompositionComponent</text>
<text text-anchor="middle" x="796.5" y="-5.75" font-family="Helvetica,sans-Serif" font-size="10.00">::CPackedSplines::spline</text>
</a>
</g>
</g>
<!-- Node12&#45;&gt;Node13 -->
<g id="edge15_Node000012_Node000013" class="edge">
<title>Node12&#45;&gt;Node13</title>
<g id="a_edge15_Node000012_Node000013"><a xlink:title=" ">
<path fill="none" stroke="#63b8ff" d="M680.11,-59.55C693.35,-55.11 707.42,-50.4 721.02,-45.84"/>
<polygon fill="#63b8ff" stroke="#63b8ff" points="721.99,-49.21 730.36,-42.71 719.76,-42.57 721.99,-49.21"/>
</a>
</g>
</g>
<!-- Node14&#45;&gt;Node13 -->
<g id="edge17_Node000014_Node000013" class="edge">
<title>Node14&#45;&gt;Node13</title>
<g id="a_edge17_Node000014_Node000013"><a xlink:title=" ">
<path fill="none" stroke="#63b8ff" d="M688.27,-20.88C696.21,-20.88 704.33,-20.88 712.39,-20.88"/>
<polygon fill="#63b8ff" stroke="#63b8ff" points="712.2,-24.38 722.2,-20.88 712.2,-17.38 712.2,-24.38"/>
</a>
</g>
</g>
</g>
</svg>
