<?xml version="1.0" encoding="UTF-8" standalone="no"?>
<!DOCTYPE svg PUBLIC "-//W3C//DTD SVG 1.1//EN"
 "http://www.w3.org/Graphics/SVG/1.1/DTD/svg11.dtd">
<!-- Generated by graphviz version 10.0.1 (20240210.2158)
 -->
<!-- Title: lib/api/unittest/CMockDataAdder.h Pages: 1 -->
<svg width="496pt" height="204pt"
 viewBox="0.00 0.00 495.88 204.25" xmlns="http://www.w3.org/2000/svg" xmlns:xlink="http://www.w3.org/1999/xlink">

<svg id="main" version="1.1" xmlns="http://www.w3.org/2000/svg" xmlns:xlink="http://www.w3.org/1999/xlink" xml:space="preserve" onload="init(evt)">
<style type="text/css"><![CDATA[
.node, .edge {opacity: 0.7;}
.node.selected, .edge.selected {opacity: 1;}
.edge:hover path { stroke: red; }
.edge:hover polygon { stroke: red; fill: red; }
]]></style>
<script type="application/ecmascript" xlink:href="../../svg.min.js"/>
<svg id="graph" class="graph">
<g id="graph0" class="graph" transform="scale(1 1) rotate(0) translate(4 200.25)">
<title>lib/api/unittest/CMockDataAdder.h</title>
<!-- Node1 -->
<g id="Node000001" class="node">
<title>Node1</title>
<g id="a_Node000001"><a xlink:title=" ">
<polygon fill="#999999" stroke="#666666" points="482.5,-196.25 350.25,-196.25 350.25,-165.75 482.5,-165.75 482.5,-196.25"/>
<text text-anchor="start" x="358.25" y="-182.75" font-family="Helvetica,sans-Serif" font-size="10.00">lib/api/unittest/CMockData</text>
<text text-anchor="middle" x="416.38" y="-171.5" font-family="Helvetica,sans-Serif" font-size="10.00">Adder.h</text>
</a>
</g>
</g>
<!-- Node2 -->
<g id="Node000002" class="node">
<title>Node2</title>
<g id="a_Node000002"><a xlink:href="../../d0/da7/_c_data_adder_8h.html" target="_top" xlink:title=" ">
<polygon fill="white" stroke="#666666" points="345,-129.75 245.75,-129.75 245.75,-110.5 345,-110.5 345,-129.75"/>
<text text-anchor="middle" x="295.38" y="-116.25" font-family="Helvetica,sans-Serif" font-size="10.00">core/CDataAdder.h</text>
</a>
</g>
</g>
<!-- Node1&#45;&gt;Node2 -->
<g id="edge1_Node000001_Node000002" class="edge">
<title>Node1&#45;&gt;Node2</title>
<g id="a_edge1_Node000001_Node000002"><a xlink:title=" ">
<path fill="none" stroke="#63b8ff" d="M386.15,-165.3C367.19,-156.07 342.89,-144.25 324.2,-135.15"/>
<polygon fill="#63b8ff" stroke="#63b8ff" points="325.82,-132.04 315.29,-130.82 322.75,-138.34 325.82,-132.04"/>
</a>
</g>
</g>
<!-- Node9 -->
<g id="Node000009" class="node">
<title>Node9</title>
<g id="a_Node000009"><a xlink:title=" ">
<polygon fill="#e0e0e0" stroke="#999999" points="480.38,-74.5 440.38,-74.5 440.38,-55.25 480.38,-55.25 480.38,-74.5"/>
<text text-anchor="middle" x="460.38" y="-61" font-family="Helvetica,sans-Serif" font-size="10.00">string</text>
</a>
</g>
</g>
<!-- Node1&#45;&gt;Node9 -->
<g id="edge10_Node000001_Node000009" class="edge">
<title>Node1&#45;&gt;Node9</title>
<g id="a_edge10_Node000001_Node000009"><a xlink:title=" ">
<path fill="none" stroke="#63b8ff" d="M419.63,-165.32C423.03,-151.04 428.89,-128.87 436.38,-110.5 439.94,-101.75 444.74,-92.49 449.1,-84.68"/>
<polygon fill="#63b8ff" stroke="#63b8ff" points="452.07,-86.54 454.06,-76.14 446.02,-83.03 452.07,-86.54"/>
</a>
</g>
</g>
<!-- Node10 -->
<g id="Node000010" class="node">
<title>Node10</title>
<g id="a_Node000010"><a xlink:title=" ">
<polygon fill="#e0e0e0" stroke="#999999" points="487.88,-129.75 444.88,-129.75 444.88,-110.5 487.88,-110.5 487.88,-129.75"/>
<text text-anchor="middle" x="466.38" y="-116.25" font-family="Helvetica,sans-Serif" font-size="10.00">vector</text>
</a>
</g>
</g>
<!-- Node1&#45;&gt;Node10 -->
<g id="edge11_Node000001_Node000010" class="edge">
<title>Node1&#45;&gt;Node10</title>
<g id="a_edge11_Node000001_Node000010"><a xlink:title=" ">
<path fill="none" stroke="#63b8ff" d="M428.73,-165.45C435.54,-157.43 444.05,-147.42 451.25,-138.94"/>
<polygon fill="#63b8ff" stroke="#63b8ff" points="453.88,-141.24 457.69,-131.35 448.55,-136.71 453.88,-141.24"/>
</a>
</g>
</g>
<!-- Node3 -->
<g id="Node000003" class="node">
<title>Node3</title>
<g id="a_Node000003"><a xlink:href="../../db/d30/_c_non_copyable_8h.html" target="_top" xlink:title=" ">
<polygon fill="white" stroke="#666666" points="112.75,-74.5 0,-74.5 0,-55.25 112.75,-55.25 112.75,-74.5"/>
<text text-anchor="middle" x="56.38" y="-61" font-family="Helvetica,sans-Serif" font-size="10.00">core/CNonCopyable.h</text>
</a>
</g>
</g>
<!-- Node2&#45;&gt;Node3 -->
<g id="edge2_Node000002_Node000003" class="edge">
<title>Node2&#45;&gt;Node3</title>
<g id="a_edge2_Node000002_Node000003"><a xlink:title=" ">
<path fill="none" stroke="#63b8ff" d="M254.56,-110.03C214.09,-101.01 151.94,-87.17 108.04,-77.39"/>
<polygon fill="#63b8ff" stroke="#63b8ff" points="109.02,-74.02 98.5,-75.26 107.5,-80.85 109.02,-74.02"/>
</a>
</g>
</g>
<!-- Node4 -->
<g id="Node000004" class="node">
<title>Node4</title>
<g id="a_Node000004"><a xlink:href="../../dd/d0e/core_2_import_export_8h.html" target="_top" xlink:title=" ">
<polygon fill="white" stroke="#666666" points="149.5,-19.25 47.25,-19.25 47.25,0 149.5,0 149.5,-19.25"/>
<text text-anchor="middle" x="98.38" y="-5.75" font-family="Helvetica,sans-Serif" font-size="10.00">core/ImportExport.h</text>
</a>
</g>
</g>
<!-- Node2&#45;&gt;Node4 -->
<g id="edge4_Node000002_Node000004" class="edge">
<title>Node2&#45;&gt;Node4</title>
<g id="a_edge4_Node000002_Node000004"><a xlink:title=" ">
<path fill="none" stroke="#63b8ff" d="M249.46,-110.02C221.88,-103.15 186.91,-91.87 159.38,-74.5 139.99,-62.27 122.44,-42.54 111.2,-28.24"/>
<polygon fill="#63b8ff" stroke="#63b8ff" points="114.22,-26.43 105.39,-20.58 108.64,-30.66 114.22,-26.43"/>
</a>
</g>
</g>
<!-- Node5 -->
<g id="Node000005" class="node">
<title>Node5</title>
<g id="a_Node000005"><a xlink:title=" ">
<polygon fill="#e0e0e0" stroke="#999999" points="214,-74.5 168.75,-74.5 168.75,-55.25 214,-55.25 214,-74.5"/>
<text text-anchor="middle" x="191.38" y="-61" font-family="Helvetica,sans-Serif" font-size="10.00">cstdint</text>
</a>
</g>
</g>
<!-- Node2&#45;&gt;Node5 -->
<g id="edge5_Node000002_Node000005" class="edge">
<title>Node2&#45;&gt;Node5</title>
<g id="a_edge5_Node000002_Node000005"><a xlink:title=" ">
<path fill="none" stroke="#63b8ff" d="M277.73,-110.09C261.75,-101.91 237.92,-89.71 219.34,-80.19"/>
<polygon fill="#63b8ff" stroke="#63b8ff" points="220.95,-77.08 210.45,-75.64 217.76,-83.32 220.95,-77.08"/>
</a>
</g>
</g>
<!-- Node6 -->
<g id="Node000006" class="node">
<title>Node6</title>
<g id="a_Node000006"><a xlink:title=" ">
<polygon fill="#e0e0e0" stroke="#999999" points="290.38,-74.5 232.38,-74.5 232.38,-55.25 290.38,-55.25 290.38,-74.5"/>
<text text-anchor="middle" x="261.38" y="-61" font-family="Helvetica,sans-Serif" font-size="10.00">functional</text>
</a>
</g>
</g>
<!-- Node2&#45;&gt;Node6 -->
<g id="edge6_Node000002_Node000006" class="edge">
<title>Node2&#45;&gt;Node6</title>
<g id="a_edge6_Node000002_Node000006"><a xlink:title=" ">
<path fill="none" stroke="#63b8ff" d="M289.76,-110.33C285.26,-103.28 278.79,-93.15 273.16,-84.33"/>
<polygon fill="#63b8ff" stroke="#63b8ff" points="276.26,-82.68 267.93,-76.13 270.36,-86.45 276.26,-82.68"/>
</a>
</g>
</g>
<!-- Node7 -->
<g id="Node000007" class="node">
<title>Node7</title>
<g id="a_Node000007"><a xlink:title=" ">
<polygon fill="#e0e0e0" stroke="#999999" points="352.62,-74.5 308.12,-74.5 308.12,-55.25 352.62,-55.25 352.62,-74.5"/>
<text text-anchor="middle" x="330.38" y="-61" font-family="Helvetica,sans-Serif" font-size="10.00">iosfwd</text>
</a>
</g>
</g>
<!-- Node2&#45;&gt;Node7 -->
<g id="edge7_Node000002_Node000007" class="edge">
<title>Node2&#45;&gt;Node7</title>
<g id="a_edge7_Node000002_Node000007"><a xlink:title=" ">
<path fill="none" stroke="#63b8ff" d="M301.15,-110.33C305.79,-103.28 312.45,-93.15 318.24,-84.33"/>
<polygon fill="#63b8ff" stroke="#63b8ff" points="321.07,-86.4 323.64,-76.12 315.22,-82.56 321.07,-86.4"/>
</a>
</g>
</g>
<!-- Node8 -->
<g id="Node000008" class="node">
<title>Node8</title>
<g id="a_Node000008"><a xlink:title=" ">
<polygon fill="#e0e0e0" stroke="#999999" points="422,-74.5 370.75,-74.5 370.75,-55.25 422,-55.25 422,-74.5"/>
<text text-anchor="middle" x="396.38" y="-61" font-family="Helvetica,sans-Serif" font-size="10.00">memory</text>
</a>
</g>
</g>
<!-- Node2&#45;&gt;Node8 -->
<g id="edge8_Node000002_Node000008" class="edge">
<title>Node2&#45;&gt;Node8</title>
<g id="a_edge8_Node000002_Node000008"><a xlink:title=" ">
<path fill="none" stroke="#63b8ff" d="M312.51,-110.09C328.03,-101.91 351.18,-89.71 369.22,-80.19"/>
<polygon fill="#63b8ff" stroke="#63b8ff" points="370.61,-83.42 377.82,-75.66 367.34,-77.23 370.61,-83.42"/>
</a>
</g>
</g>
<!-- Node2&#45;&gt;Node9 -->
<g id="edge9_Node000002_Node000009" class="edge">
<title>Node2&#45;&gt;Node9</title>
<g id="a_edge9_Node000002_Node000009"><a xlink:title=" ">
<path fill="none" stroke="#63b8ff" d="M323.37,-110.09C352.72,-100.62 398.73,-85.77 429.21,-75.93"/>
<polygon fill="#63b8ff" stroke="#63b8ff" points="430.19,-79.29 438.63,-72.89 428.04,-72.63 430.19,-79.29"/>
</a>
</g>
</g>
<!-- Node3&#45;&gt;Node4 -->
<g id="edge3_Node000003_Node000004" class="edge">
<title>Node3&#45;&gt;Node4</title>
<g id="a_edge3_Node000003_Node000004"><a xlink:title=" ">
<path fill="none" stroke="#63b8ff" d="M63.31,-55.08C68.99,-47.88 77.21,-37.46 84.27,-28.51"/>
<polygon fill="#63b8ff" stroke="#63b8ff" points="86.91,-30.82 90.35,-20.8 81.41,-26.48 86.91,-30.82"/>
</a>
</g>
</g>
</g>
</svg>
</svg>

<style type='text/css'>
<![CDATA[
[data-mouse-over-selected='false'] { opacity: 0.7; }
[data-mouse-over-selected='true']  { opacity: 1.0; }
]]>
</style>
<script type="application/ecmascript"><![CDATA[
document.addEventListener('DOMContentLoaded', (event) => {
  highlightEdges();
  highlightAdjacentNodes();
});
]]></script>
</svg>
