<?xml version="1.0" encoding="UTF-8" standalone="no"?>
<!DOCTYPE svg PUBLIC "-//W3C//DTD SVG 1.1//EN"
 "http://www.w3.org/Graphics/SVG/1.1/DTD/svg11.dtd">
<!-- Generated by graphviz version 10.0.1 (20240210.2158)
 -->
<!-- Title: ml::core::CBoostJsonConcurrentLineWriter::~CBoostJsonConcurrentLineWriter Pages: 1 -->
<svg width="922pt" height="177pt"
 viewBox="0.00 0.00 922.00 176.50" xmlns="http://www.w3.org/2000/svg" xmlns:xlink="http://www.w3.org/1999/xlink">
<g id="graph0" class="graph" transform="scale(1 1) rotate(0) translate(4 172.5)">
<title>ml::core::CBoostJsonConcurrentLineWriter::~CBoostJsonConcurrentLineWriter</title>
<!-- Node1 -->
<g id="Node000001" class="node">
<title>Node1</title>
<g id="a_Node000001"><a xlink:title=" ">
<polygon fill="#999999" stroke="#666666" points="173.5,-106.12 0,-106.12 0,-64.38 173.5,-64.38 173.5,-106.12"/>
<text text-anchor="start" x="8" y="-92.62" font-family="Helvetica,sans-Serif" font-size="10.00">ml::core::CBoostJsonConcurrent</text>
<text text-anchor="start" x="8" y="-81.38" font-family="Helvetica,sans-Serif" font-size="10.00">LineWriter::~CBoostJsonConcurrent</text>
<text text-anchor="middle" x="86.75" y="-70.12" font-family="Helvetica,sans-Serif" font-size="10.00">LineWriter</text>
</a>
</g>
</g>
<!-- Node2 -->
<g id="Node000002" class="node">
<title>Node2</title>
<g id="a_Node000002"><a xlink:href="../../d8/dc0/classml_1_1core_1_1_c_boost_json_concurrent_line_writer.html#ad334ee264d822aad2e5eda619049a72a" target="_top" xlink:title=" ">
<polygon fill="white" stroke="#666666" points="368.75,-125.5 209.5,-125.5 209.5,-95 368.75,-95 368.75,-125.5"/>
<text text-anchor="start" x="217.5" y="-112" font-family="Helvetica,sans-Serif" font-size="10.00">ml::core::CBoostJsonConcurrent</text>
<text text-anchor="middle" x="289.12" y="-100.75" font-family="Helvetica,sans-Serif" font-size="10.00">LineWriter::flush</text>
</a>
</g>
</g>
<!-- Node1&#45;&gt;Node2 -->
<g id="edge1_Node000001_Node000002" class="edge">
<title>Node1&#45;&gt;Node2</title>
<g id="a_edge1_Node000001_Node000002"><a xlink:title=" ">
<path fill="none" stroke="#63b8ff" d="M173.89,-96C181.82,-96.99 189.87,-97.99 197.84,-98.99"/>
<polygon fill="#63b8ff" stroke="#63b8ff" points="197.16,-102.43 207.52,-100.19 198.03,-95.48 197.16,-102.43"/>
</a>
</g>
</g>
<!-- Node5 -->
<g id="Node000005" class="node">
<title>Node5</title>
<g id="a_Node000005"><a xlink:href="../../d0/d1b/classml_1_1core_1_1_c_json_output_stream_wrapper.html#a49ff3fa4f4f6d0558c1c0e86fe6f31e5" target="_top" xlink:title="Releases a buffer from the pool, remaining data will be written before returning it.">
<polygon fill="white" stroke="#666666" points="362.38,-76.5 215.88,-76.5 215.88,-46 362.38,-46 362.38,-76.5"/>
<text text-anchor="start" x="223.88" y="-63" font-family="Helvetica,sans-Serif" font-size="10.00">ml::core::CJsonOutputStream</text>
<text text-anchor="middle" x="289.12" y="-51.75" font-family="Helvetica,sans-Serif" font-size="10.00">Wrapper::releaseBuffer</text>
</a>
</g>
</g>
<!-- Node1&#45;&gt;Node5 -->
<g id="edge4_Node000001_Node000005" class="edge">
<title>Node1&#45;&gt;Node5</title>
<g id="a_edge4_Node000001_Node000005"><a xlink:title=" ">
<path fill="none" stroke="#63b8ff" d="M173.89,-74.93C183.99,-73.72 194.28,-72.49 204.34,-71.29"/>
<polygon fill="#63b8ff" stroke="#63b8ff" points="204.57,-74.78 214.08,-70.12 203.73,-67.83 204.57,-74.78"/>
</a>
</g>
</g>
<!-- Node3 -->
<g id="Node000003" class="node">
<title>Node3</title>
<g id="a_Node000003"><a xlink:href="../../de/d68/classml_1_1core_1_1_c_boost_json_writer_base.html#a43e84f02ec131b99d4f1844f94634301" target="_top" xlink:title=" ">
<polygon fill="white" stroke="#666666" points="550.5,-119.5 413.75,-119.5 413.75,-89 550.5,-89 550.5,-119.5"/>
<text text-anchor="start" x="421.75" y="-106" font-family="Helvetica,sans-Serif" font-size="10.00">ml::core::CBoostJsonWriter</text>
<text text-anchor="middle" x="482.12" y="-94.75" font-family="Helvetica,sans-Serif" font-size="10.00">Base::flush</text>
</a>
</g>
</g>
<!-- Node2&#45;&gt;Node3 -->
<g id="edge2_Node000002_Node000003" class="edge">
<title>Node2&#45;&gt;Node3</title>
<g id="a_edge2_Node000002_Node000003"><a xlink:title=" ">
<path fill="none" stroke="#63b8ff" d="M369.19,-107.77C380.08,-107.42 391.27,-107.07 402.16,-106.73"/>
<polygon fill="#63b8ff" stroke="#63b8ff" points="401.98,-110.24 411.86,-106.43 401.76,-103.24 401.98,-110.24"/>
</a>
</g>
</g>
<!-- Node4 -->
<g id="Node000004" class="node">
<title>Node4</title>
<g id="a_Node000004"><a xlink:href="../../d0/d1b/classml_1_1core_1_1_c_json_output_stream_wrapper.html#a8eedb9769cd12d61a8c647dbbfa890de" target="_top" xlink:title=" ">
<polygon fill="white" stroke="#666666" points="555.38,-168.5 408.88,-168.5 408.88,-138 555.38,-138 555.38,-168.5"/>
<text text-anchor="start" x="416.88" y="-155" font-family="Helvetica,sans-Serif" font-size="10.00">ml::core::CJsonOutputStream</text>
<text text-anchor="middle" x="482.12" y="-143.75" font-family="Helvetica,sans-Serif" font-size="10.00">Wrapper::flush</text>
</a>
</g>
</g>
<!-- Node2&#45;&gt;Node4 -->
<g id="edge3_Node000002_Node000004" class="edge">
<title>Node2&#45;&gt;Node4</title>
<g id="a_edge3_Node000002_Node000004"><a xlink:title=" ">
<path fill="none" stroke="#63b8ff" d="M359.89,-125.96C372.96,-128.9 386.73,-132 400.11,-135.01"/>
<polygon fill="#63b8ff" stroke="#63b8ff" points="399.23,-138.4 409.75,-137.18 400.76,-131.57 399.23,-138.4"/>
</a>
</g>
</g>
<!-- Node5&#45;&gt;Node3 -->
<g id="edge5_Node000005_Node000003" class="edge">
<title>Node5&#45;&gt;Node3</title>
<g id="a_edge5_Node000005_Node000003"><a xlink:title=" ">
<path fill="none" stroke="#63b8ff" d="M359.89,-76.96C373.68,-80.06 388.25,-83.34 402.31,-86.51"/>
<polygon fill="#63b8ff" stroke="#63b8ff" points="401.46,-89.9 411.98,-88.68 403,-83.07 401.46,-89.9"/>
</a>
</g>
</g>
<!-- Node6 -->
<g id="Node000006" class="node">
<title>Node6</title>
<g id="a_Node000006"><a xlink:href="../../d2/d16/classml_1_1core_1_1_c_concurrent_queue.html#a46ab7344ef71623070f3867f3f606edd" target="_top" xlink:title=" ">
<polygon fill="white" stroke="#666666" points="736.75,-54.5 595.5,-54.5 595.5,-24 736.75,-24 736.75,-54.5"/>
<text text-anchor="start" x="603.5" y="-41" font-family="Helvetica,sans-Serif" font-size="10.00">ml::core::CConcurrentQueue</text>
<text text-anchor="middle" x="666.12" y="-29.75" font-family="Helvetica,sans-Serif" font-size="10.00">::push</text>
</a>
</g>
</g>
<!-- Node5&#45;&gt;Node6 -->
<g id="edge6_Node000005_Node000006" class="edge">
<title>Node5&#45;&gt;Node6</title>
<g id="a_edge6_Node000005_Node000006"><a xlink:title=" ">
<path fill="none" stroke="#63b8ff" d="M362.87,-56.98C426.3,-53.26 518.18,-47.87 583.97,-44.01"/>
<polygon fill="#63b8ff" stroke="#63b8ff" points="583.83,-47.53 593.61,-43.45 583.42,-40.54 583.83,-47.53"/>
</a>
</g>
</g>
<!-- Node9 -->
<g id="Node000009" class="node">
<title>Node9</title>
<g id="a_Node000009"><a xlink:href="../../d0/d1b/classml_1_1core_1_1_c_json_output_stream_wrapper.html#a3b11910081f08d9ec9987ea5aed31b29" target="_top" xlink:title=" ">
<polygon fill="white" stroke="#666666" points="559.5,-33.5 404.75,-33.5 404.75,-3 559.5,-3 559.5,-33.5"/>
<text text-anchor="start" x="412.75" y="-20" font-family="Helvetica,sans-Serif" font-size="10.00">ml::core::CJsonOutputStream</text>
<text text-anchor="middle" x="482.12" y="-8.75" font-family="Helvetica,sans-Serif" font-size="10.00">Wrapper::returnAndCheckBuffer</text>
</a>
</g>
</g>
<!-- Node5&#45;&gt;Node9 -->
<g id="edge9_Node000005_Node000009" class="edge">
<title>Node5&#45;&gt;Node9</title>
<g id="a_edge9_Node000005_Node000009"><a xlink:title=" ">
<path fill="none" stroke="#63b8ff" d="M359.89,-45.54C372.96,-42.6 386.73,-39.5 400.11,-36.49"/>
<polygon fill="#63b8ff" stroke="#63b8ff" points="400.76,-39.93 409.75,-34.32 399.23,-33.1 400.76,-39.93"/>
</a>
</g>
</g>
<!-- Node7 -->
<g id="Node000007" class="node">
<title>Node7</title>
<g id="a_Node000007"><a xlink:href="../../d2/d16/classml_1_1core_1_1_c_concurrent_queue.html#ad01c72b3a36bb2d0321c8e772457ab5c" target="_top" xlink:title=" ">
<polygon fill="white" stroke="#666666" points="914,-79.5 772.75,-79.5 772.75,-49 914,-49 914,-79.5"/>
<text text-anchor="start" x="780.75" y="-66" font-family="Helvetica,sans-Serif" font-size="10.00">ml::core::CConcurrentQueue</text>
<text text-anchor="middle" x="843.38" y="-54.75" font-family="Helvetica,sans-Serif" font-size="10.00">::notifyIfNoLongerEmpty</text>
</a>
</g>
</g>
<!-- Node6&#45;&gt;Node7 -->
<g id="edge7_Node000006_Node000007" class="edge">
<title>Node6&#45;&gt;Node7</title>
<g id="a_edge7_Node000006_Node000007"><a xlink:title=" ">
<path fill="none" stroke="#63b8ff" d="M737.14,-49.24C745.05,-50.37 753.15,-51.52 761.19,-52.67"/>
<polygon fill="#63b8ff" stroke="#63b8ff" points="760.57,-56.12 770.97,-54.06 761.56,-49.19 760.57,-56.12"/>
</a>
</g>
</g>
<!-- Node8 -->
<g id="Node000008" class="node">
<title>Node8</title>
<g id="a_Node000008"><a xlink:href="../../d2/d16/classml_1_1core_1_1_c_concurrent_queue.html#ad13122a6e7d3136f0b332d5d9be797da" target="_top" xlink:title=" ">
<polygon fill="white" stroke="#666666" points="914,-30.5 772.75,-30.5 772.75,0 914,0 914,-30.5"/>
<text text-anchor="start" x="780.75" y="-17" font-family="Helvetica,sans-Serif" font-size="10.00">ml::core::CConcurrentQueue</text>
<text text-anchor="middle" x="843.38" y="-5.75" font-family="Helvetica,sans-Serif" font-size="10.00">::waitWhileFull</text>
</a>
</g>
</g>
<!-- Node6&#45;&gt;Node8 -->
<g id="edge8_Node000006_Node000008" class="edge">
<title>Node6&#45;&gt;Node8</title>
<g id="a_edge8_Node000006_Node000008"><a xlink:title=" ">
<path fill="none" stroke="#63b8ff" d="M737.14,-29.66C745.05,-28.58 753.15,-27.47 761.19,-26.37"/>
<polygon fill="#63b8ff" stroke="#63b8ff" points="761.54,-29.85 770.97,-25.03 760.59,-22.92 761.54,-29.85"/>
</a>
</g>
</g>
<!-- Node9&#45;&gt;Node6 -->
<g id="edge10_Node000009_Node000006" class="edge">
<title>Node9&#45;&gt;Node6</title>
<g id="a_edge10_Node000009_Node000006"><a xlink:title=" ">
<path fill="none" stroke="#63b8ff" d="M559.78,-27.1C567.77,-28.02 575.91,-28.96 583.95,-29.88"/>
<polygon fill="#63b8ff" stroke="#63b8ff" points="583.38,-33.34 593.71,-31.01 584.18,-26.39 583.38,-33.34"/>
</a>
</g>
</g>
</g>
</svg>
