<?xml version="1.0" encoding="UTF-8" standalone="no"?>
<!DOCTYPE svg PUBLIC "-//W3C//DTD SVG 1.1//EN"
 "http://www.w3.org/Graphics/SVG/1.1/DTD/svg11.dtd">
<!-- Generated by graphviz version 10.0.1 (20240210.2158)
 -->
<!-- Title: ml::maths::analytics::CBoostedTreeLeafNodeStatisticsIncremental::split Pages: 1 -->
<svg width="1077pt" height="240pt"
 viewBox="0.00 0.00 1076.50 240.00" xmlns="http://www.w3.org/2000/svg" xmlns:xlink="http://www.w3.org/1999/xlink">
<g id="graph0" class="graph" transform="scale(1 1) rotate(0) translate(4 236)">
<title>ml::maths::analytics::CBoostedTreeLeafNodeStatisticsIncremental::split</title>
<!-- Node1 -->
<g id="Node000001" class="node">
<title>Node1</title>
<g id="a_Node000001"><a xlink:title=" ">
<polygon fill="#999999" stroke="#666666" points="1068.5,-188.38 900.25,-188.38 900.25,-146.62 1068.5,-146.62 1068.5,-188.38"/>
<text text-anchor="start" x="908.25" y="-174.88" font-family="Helvetica,sans-Serif" font-size="10.00">ml::maths::analytics</text>
<text text-anchor="start" x="908.25" y="-163.62" font-family="Helvetica,sans-Serif" font-size="10.00">::CBoostedTreeLeafNodeStatistics</text>
<text text-anchor="middle" x="984.38" y="-152.38" font-family="Helvetica,sans-Serif" font-size="10.00">Incremental::split</text>
</a>
</g>
</g>
<!-- Node1&#45;&gt;Node1 -->
<g id="edge10_Node000001_Node000001" class="edge">
<title>Node1&#45;&gt;Node1</title>
<g id="a_edge10_Node000001_Node000001"><a xlink:title=" ">
<path fill="none" stroke="#63b8ff" d="M1018.76,-199.15C1013.05,-203.48 1001.59,-206.38 984.38,-206.38 955.39,-206.38 942.71,-198.17 946.33,-188.69"/>
<polygon fill="#63b8ff" stroke="#63b8ff" points="1021.92,-200.72 1021.92,-190.12 1015.32,-198.41 1021.92,-200.72"/>
</a>
</g>
</g>
<!-- Node2 -->
<g id="Node000002" class="node">
<title>Node2</title>
<g id="a_Node000002"><a xlink:href="../../dd/d3e/classml_1_1maths_1_1analytics_1_1_c_boosted_tree_leaf_node_statistics_incremental.html#af3b4e69634a5df9f9c05993f4c91eada" target="_top" xlink:title="Only called by split but is public so it&#39;s accessible to std::make_shared.">
<polygon fill="white" stroke="#666666" points="219.25,-232 0,-232 0,-179 219.25,-179 219.25,-232"/>
<text text-anchor="start" x="8" y="-218.5" font-family="Helvetica,sans-Serif" font-size="10.00">ml::maths::analytics</text>
<text text-anchor="start" x="8" y="-207.25" font-family="Helvetica,sans-Serif" font-size="10.00">::CBoostedTreeLeafNodeStatistics</text>
<text text-anchor="start" x="8" y="-196" font-family="Helvetica,sans-Serif" font-size="10.00">Incremental::CBoostedTreeLeafNodeStatistics</text>
<text text-anchor="middle" x="109.62" y="-184.75" font-family="Helvetica,sans-Serif" font-size="10.00">Incremental</text>
</a>
</g>
</g>
<!-- Node1&#45;&gt;Node2 -->
<g id="edge1_Node000001_Node000002" class="edge">
<title>Node1&#45;&gt;Node2</title>
<g id="a_edge1_Node000001_Node000002"><a xlink:title=" ">
<path fill="none" stroke="#63b8ff" d="M888.63,-171.63C725.39,-178.73 392.05,-193.25 219.52,-200.76"/>
<polygon fill="#63b8ff" stroke="#63b8ff" points="888.74,-175.12 898.58,-171.19 888.43,-168.13 888.74,-175.12"/>
</a>
</g>
</g>
<!-- Node3 -->
<g id="Node000003" class="node">
<title>Node3</title>
<g id="a_Node000003"><a xlink:href="../../dd/d3e/classml_1_1maths_1_1analytics_1_1_c_boosted_tree_leaf_node_statistics_incremental.html#a87c50aeebda7b2f957a61606295451ba" target="_top" xlink:title=" ">
<polygon fill="white" stroke="#666666" points="656.25,-155.38 482.75,-155.38 482.75,-113.62 656.25,-113.62 656.25,-155.38"/>
<text text-anchor="start" x="490.75" y="-141.88" font-family="Helvetica,sans-Serif" font-size="10.00">ml::maths::analytics</text>
<text text-anchor="start" x="490.75" y="-130.62" font-family="Helvetica,sans-Serif" font-size="10.00">::CBoostedTreeLeafNodeStatistics</text>
<text text-anchor="middle" x="569.5" y="-119.38" font-family="Helvetica,sans-Serif" font-size="10.00">Incremental::featureBestSplitSearch</text>
</a>
</g>
</g>
<!-- Node1&#45;&gt;Node3 -->
<g id="edge2_Node000001_Node000003" class="edge">
<title>Node1&#45;&gt;Node3</title>
<g id="a_edge2_Node000001_Node000003"><a xlink:title=" ">
<path fill="none" stroke="#63b8ff" d="M888.68,-162.5C831.7,-159.2 757.75,-154.4 692.25,-148.5 680.7,-147.46 668.55,-146.23 656.58,-144.93"/>
<polygon fill="#63b8ff" stroke="#63b8ff" points="888.14,-165.98 898.33,-163.06 888.55,-158.99 888.14,-165.98"/>
</a>
</g>
</g>
<!-- Node8 -->
<g id="Node000008" class="node">
<title>Node8</title>
<g id="a_Node000008"><a xlink:href="../../dd/d3e/classml_1_1maths_1_1analytics_1_1_c_boosted_tree_leaf_node_statistics_incremental.html#afb28f129a824d7bdfdb23527b4af13e3" target="_top" xlink:title=" ">
<polygon fill="white" stroke="#666666" points="864.25,-139.38 692.25,-139.38 692.25,-97.62 864.25,-97.62 864.25,-139.38"/>
<text text-anchor="start" x="700.25" y="-125.88" font-family="Helvetica,sans-Serif" font-size="10.00">ml::maths::analytics</text>
<text text-anchor="start" x="700.25" y="-114.62" font-family="Helvetica,sans-Serif" font-size="10.00">::CBoostedTreeLeafNodeStatistics</text>
<text text-anchor="middle" x="778.25" y="-103.38" font-family="Helvetica,sans-Serif" font-size="10.00">Incremental::penaltyForTreeChange</text>
</a>
</g>
</g>
<!-- Node1&#45;&gt;Node8 -->
<g id="edge8_Node000001_Node000008" class="edge">
<title>Node1&#45;&gt;Node8</title>
<g id="a_edge8_Node000001_Node000008"><a xlink:title=" ">
<path fill="none" stroke="#63b8ff" d="M888.57,-144.74C880.61,-142.83 872.6,-140.91 864.72,-139.02"/>
<polygon fill="#63b8ff" stroke="#63b8ff" points="887.75,-148.14 898.29,-147.08 889.38,-141.34 887.75,-148.14"/>
</a>
</g>
</g>
<!-- Node4 -->
<g id="Node000004" class="node">
<title>Node4</title>
<g id="a_Node000004"><a xlink:href="../../dd/d3e/classml_1_1maths_1_1analytics_1_1_c_boosted_tree_leaf_node_statistics_incremental.html#a148adb8fd7b6ad022e084aba0fb48d9f" target="_top" xlink:title=" ">
<polygon fill="white" stroke="#666666" points="446.75,-155.38 255.25,-155.38 255.25,-113.62 446.75,-113.62 446.75,-155.38"/>
<text text-anchor="start" x="263.25" y="-141.88" font-family="Helvetica,sans-Serif" font-size="10.00">ml::maths::analytics</text>
<text text-anchor="start" x="263.25" y="-130.62" font-family="Helvetica,sans-Serif" font-size="10.00">::CBoostedTreeLeafNodeStatistics</text>
<text text-anchor="middle" x="351" y="-119.38" font-family="Helvetica,sans-Serif" font-size="10.00">Incremental::computeBestSplitStatistics</text>
</a>
</g>
</g>
<!-- Node3&#45;&gt;Node4 -->
<g id="edge3_Node000003_Node000004" class="edge">
<title>Node3&#45;&gt;Node4</title>
<g id="a_edge3_Node000003_Node000004"><a xlink:title=" ">
<path fill="none" stroke="#63b8ff" d="M470.84,-134.5C462.96,-134.5 455.01,-134.5 447.15,-134.5"/>
<polygon fill="#63b8ff" stroke="#63b8ff" points="470.8,-138 480.8,-134.5 470.8,-131 470.8,-138"/>
</a>
</g>
</g>
<!-- Node4&#45;&gt;Node2 -->
<g id="edge6_Node000004_Node000002" class="edge">
<title>Node4&#45;&gt;Node2</title>
<g id="a_edge6_Node000004_Node000002"><a xlink:title=" ">
<path fill="none" stroke="#63b8ff" d="M267.26,-159.04C246.05,-165.33 223.11,-172.13 201.51,-178.54"/>
<polygon fill="#63b8ff" stroke="#63b8ff" points="268.14,-162.43 276.73,-156.23 266.15,-155.72 268.14,-162.43"/>
</a>
</g>
</g>
<!-- Node5 -->
<g id="Node000005" class="node">
<title>Node5</title>
<g id="a_Node000005"><a xlink:href="../../da/d0f/_c_boosted_tree_leaf_node_statistics_test_8cc.html#a12e25436cd30e1de9f5cd30640b2318d" target="_top" xlink:title=" ">
<polygon fill="white" stroke="#666666" points="183.25,-161.12 36,-161.12 36,-141.88 183.25,-141.88 183.25,-161.12"/>
<text text-anchor="middle" x="109.62" y="-147.62" font-family="Helvetica,sans-Serif" font-size="10.00">BOOST_AUTO_TEST_CASE</text>
</a>
</g>
</g>
<!-- Node4&#45;&gt;Node5 -->
<g id="edge4_Node000004_Node000005" class="edge">
<title>Node4&#45;&gt;Node5</title>
<g id="a_edge4_Node000004_Node000005"><a xlink:title=" ">
<path fill="none" stroke="#63b8ff" d="M243.83,-142.04C223.51,-143.48 202.66,-144.96 183.67,-146.31"/>
<polygon fill="#63b8ff" stroke="#63b8ff" points="243.81,-145.55 253.54,-141.35 243.32,-138.57 243.81,-145.55"/>
</a>
</g>
</g>
<!-- Node6 -->
<g id="Node000006" class="node">
<title>Node6</title>
<g id="a_Node000006"><a xlink:href="../../dd/d3e/classml_1_1maths_1_1analytics_1_1_c_boosted_tree_leaf_node_statistics_incremental.html#a35d65536888b061faf1fb6a447347a99" target="_top" xlink:title="Only called by split but is public so it&#39;s accessible to std::make_shared.">
<polygon fill="white" stroke="#666666" points="219.25,-124 0,-124 0,-71 219.25,-71 219.25,-124"/>
<text text-anchor="start" x="8" y="-110.5" font-family="Helvetica,sans-Serif" font-size="10.00">ml::maths::analytics</text>
<text text-anchor="start" x="8" y="-99.25" font-family="Helvetica,sans-Serif" font-size="10.00">::CBoostedTreeLeafNodeStatistics</text>
<text text-anchor="start" x="8" y="-88" font-family="Helvetica,sans-Serif" font-size="10.00">Incremental::CBoostedTreeLeafNodeStatistics</text>
<text text-anchor="middle" x="109.62" y="-76.75" font-family="Helvetica,sans-Serif" font-size="10.00">Incremental</text>
</a>
</g>
</g>
<!-- Node4&#45;&gt;Node6 -->
<g id="edge5_Node000004_Node000006" class="edge">
<title>Node4&#45;&gt;Node6</title>
<g id="a_edge5_Node000004_Node000006"><a xlink:title=" ">
<path fill="none" stroke="#63b8ff" d="M243.8,-118.08C235.8,-116.85 227.71,-115.6 219.69,-114.36"/>
<polygon fill="#63b8ff" stroke="#63b8ff" points="243.14,-121.52 253.55,-119.59 244.21,-114.61 243.14,-121.52"/>
</a>
</g>
</g>
<!-- Node7 -->
<g id="Node000007" class="node">
<title>Node7</title>
<g id="a_Node000007"><a xlink:href="../../dd/d3e/classml_1_1maths_1_1analytics_1_1_c_boosted_tree_leaf_node_statistics_incremental.html#a58fd2782d8c92cc89789b5307d1dd44e" target="_top" xlink:title=" ">
<polygon fill="white" stroke="#666666" points="219.25,-53 0,-53 0,0 219.25,0 219.25,-53"/>
<text text-anchor="start" x="8" y="-39.5" font-family="Helvetica,sans-Serif" font-size="10.00">ml::maths::analytics</text>
<text text-anchor="start" x="8" y="-28.25" font-family="Helvetica,sans-Serif" font-size="10.00">::CBoostedTreeLeafNodeStatistics</text>
<text text-anchor="start" x="8" y="-17" font-family="Helvetica,sans-Serif" font-size="10.00">Incremental::CBoostedTreeLeafNodeStatistics</text>
<text text-anchor="middle" x="109.62" y="-5.75" font-family="Helvetica,sans-Serif" font-size="10.00">Incremental</text>
</a>
</g>
</g>
<!-- Node4&#45;&gt;Node7 -->
<g id="edge7_Node000004_Node000007" class="edge">
<title>Node4&#45;&gt;Node7</title>
<g id="a_edge7_Node000004_Node000007"><a xlink:title=" ">
<path fill="none" stroke="#63b8ff" d="M306.4,-107.3C281.49,-92.49 249.32,-74.58 219.25,-61.5 212.8,-58.69 206.05,-55.99 199.21,-53.42"/>
<polygon fill="#63b8ff" stroke="#63b8ff" points="304.59,-110.29 314.96,-112.44 308.19,-104.29 304.59,-110.29"/>
</a>
</g>
</g>
<!-- Node8&#45;&gt;Node3 -->
<g id="edge9_Node000008_Node000003" class="edge">
<title>Node8&#45;&gt;Node3</title>
<g id="a_edge9_Node000008_Node000003"><a xlink:title=" ">
<path fill="none" stroke="#63b8ff" d="M680.66,-125.97C672.63,-126.6 664.54,-127.22 656.59,-127.84"/>
<polygon fill="#63b8ff" stroke="#63b8ff" points="680.75,-129.48 690.45,-125.22 680.21,-122.5 680.75,-129.48"/>
</a>
</g>
</g>
</g>
</svg>
