<?xml version="1.0" encoding="UTF-8" standalone="no"?>
<!DOCTYPE svg PUBLIC "-//W3C//DTD SVG 1.1//EN"
 "http://www.w3.org/Graphics/SVG/1.1/DTD/svg11.dtd">
<!-- Generated by graphviz version 10.0.1 (20240210.2158)
 -->
<!-- Title: ml::maths::analytics::CBoostedTreeLeafNodeStatisticsIncremental::penaltyForTreeChange Pages: 1 -->
<svg width="872pt" height="240pt"
 viewBox="0.00 0.00 872.25 240.12" xmlns="http://www.w3.org/2000/svg" xmlns:xlink="http://www.w3.org/1999/xlink">
<g id="graph0" class="graph" transform="scale(1 1) rotate(0) translate(4 236.12)">
<title>ml::maths::analytics::CBoostedTreeLeafNodeStatisticsIncremental::penaltyForTreeChange</title>
<!-- Node1 -->
<g id="Node000001" class="node">
<title>Node1</title>
<g id="a_Node000001"><a xlink:title=" ">
<polygon fill="#999999" stroke="#666666" points="864.25,-153.38 692.25,-153.38 692.25,-111.62 864.25,-111.62 864.25,-153.38"/>
<text text-anchor="start" x="700.25" y="-139.88" font-family="Helvetica,sans-Serif" font-size="10.00">ml::maths::analytics</text>
<text text-anchor="start" x="700.25" y="-128.62" font-family="Helvetica,sans-Serif" font-size="10.00">::CBoostedTreeLeafNodeStatistics</text>
<text text-anchor="middle" x="778.25" y="-117.38" font-family="Helvetica,sans-Serif" font-size="10.00">Incremental::penaltyForTreeChange</text>
</a>
</g>
</g>
<!-- Node2 -->
<g id="Node000002" class="node">
<title>Node2</title>
<g id="a_Node000002"><a xlink:href="../../dd/d3e/classml_1_1maths_1_1analytics_1_1_c_boosted_tree_leaf_node_statistics_incremental.html#a87c50aeebda7b2f957a61606295451ba" target="_top" xlink:title=" ">
<polygon fill="white" stroke="#666666" points="656.25,-153.38 482.75,-153.38 482.75,-111.62 656.25,-111.62 656.25,-153.38"/>
<text text-anchor="start" x="490.75" y="-139.88" font-family="Helvetica,sans-Serif" font-size="10.00">ml::maths::analytics</text>
<text text-anchor="start" x="490.75" y="-128.62" font-family="Helvetica,sans-Serif" font-size="10.00">::CBoostedTreeLeafNodeStatistics</text>
<text text-anchor="middle" x="569.5" y="-117.38" font-family="Helvetica,sans-Serif" font-size="10.00">Incremental::featureBestSplitSearch</text>
</a>
</g>
</g>
<!-- Node1&#45;&gt;Node2 -->
<g id="edge1_Node000001_Node000002" class="edge">
<title>Node1&#45;&gt;Node2</title>
<g id="a_edge1_Node000001_Node000002"><a xlink:title=" ">
<path fill="none" stroke="#63b8ff" d="M680.66,-132.5C672.63,-132.5 664.54,-132.5 656.59,-132.5"/>
<polygon fill="#63b8ff" stroke="#63b8ff" points="680.45,-136 690.45,-132.5 680.45,-129 680.45,-136"/>
</a>
</g>
</g>
<!-- Node3 -->
<g id="Node000003" class="node">
<title>Node3</title>
<g id="a_Node000003"><a xlink:href="../../dd/d3e/classml_1_1maths_1_1analytics_1_1_c_boosted_tree_leaf_node_statistics_incremental.html#a148adb8fd7b6ad022e084aba0fb48d9f" target="_top" xlink:title=" ">
<polygon fill="white" stroke="#666666" points="446.75,-153.38 255.25,-153.38 255.25,-111.62 446.75,-111.62 446.75,-153.38"/>
<text text-anchor="start" x="263.25" y="-139.88" font-family="Helvetica,sans-Serif" font-size="10.00">ml::maths::analytics</text>
<text text-anchor="start" x="263.25" y="-128.62" font-family="Helvetica,sans-Serif" font-size="10.00">::CBoostedTreeLeafNodeStatistics</text>
<text text-anchor="middle" x="351" y="-117.38" font-family="Helvetica,sans-Serif" font-size="10.00">Incremental::computeBestSplitStatistics</text>
</a>
</g>
</g>
<!-- Node2&#45;&gt;Node3 -->
<g id="edge2_Node000002_Node000003" class="edge">
<title>Node2&#45;&gt;Node3</title>
<g id="a_edge2_Node000002_Node000003"><a xlink:title=" ">
<path fill="none" stroke="#63b8ff" d="M470.84,-132.5C462.96,-132.5 455.01,-132.5 447.15,-132.5"/>
<polygon fill="#63b8ff" stroke="#63b8ff" points="470.8,-136 480.8,-132.5 470.8,-129 470.8,-136"/>
</a>
</g>
</g>
<!-- Node4 -->
<g id="Node000004" class="node">
<title>Node4</title>
<g id="a_Node000004"><a xlink:href="../../da/d0f/_c_boosted_tree_leaf_node_statistics_test_8cc.html#a12e25436cd30e1de9f5cd30640b2318d" target="_top" xlink:title=" ">
<polygon fill="white" stroke="#666666" points="183.25,-232.12 36,-232.12 36,-212.88 183.25,-212.88 183.25,-232.12"/>
<text text-anchor="middle" x="109.62" y="-218.62" font-family="Helvetica,sans-Serif" font-size="10.00">BOOST_AUTO_TEST_CASE</text>
</a>
</g>
</g>
<!-- Node3&#45;&gt;Node4 -->
<g id="edge3_Node000003_Node000004" class="edge">
<title>Node3&#45;&gt;Node4</title>
<g id="a_edge3_Node000003_Node000004"><a xlink:title=" ">
<path fill="none" stroke="#63b8ff" d="M309.16,-159.72C284.18,-175.13 251.02,-193.48 219.25,-204.5 207.96,-208.41 195.71,-211.49 183.64,-213.9"/>
<polygon fill="#63b8ff" stroke="#63b8ff" points="310.76,-162.84 317.37,-154.56 307.04,-156.91 310.76,-162.84"/>
</a>
</g>
</g>
<!-- Node5 -->
<g id="Node000005" class="node">
<title>Node5</title>
<g id="a_Node000005"><a xlink:href="../../dd/d3e/classml_1_1maths_1_1analytics_1_1_c_boosted_tree_leaf_node_statistics_incremental.html#a35d65536888b061faf1fb6a447347a99" target="_top" xlink:title="Only called by split but is public so it&#39;s accessible to std::make_shared.">
<polygon fill="white" stroke="#666666" points="219.25,-195 0,-195 0,-142 219.25,-142 219.25,-195"/>
<text text-anchor="start" x="8" y="-181.5" font-family="Helvetica,sans-Serif" font-size="10.00">ml::maths::analytics</text>
<text text-anchor="start" x="8" y="-170.25" font-family="Helvetica,sans-Serif" font-size="10.00">::CBoostedTreeLeafNodeStatistics</text>
<text text-anchor="start" x="8" y="-159" font-family="Helvetica,sans-Serif" font-size="10.00">Incremental::CBoostedTreeLeafNodeStatistics</text>
<text text-anchor="middle" x="109.62" y="-147.75" font-family="Helvetica,sans-Serif" font-size="10.00">Incremental</text>
</a>
</g>
</g>
<!-- Node3&#45;&gt;Node5 -->
<g id="edge4_Node000003_Node000005" class="edge">
<title>Node3&#45;&gt;Node5</title>
<g id="a_edge4_Node000003_Node000005"><a xlink:title=" ">
<path fill="none" stroke="#63b8ff" d="M243.8,-148.47C235.8,-149.68 227.71,-150.89 219.69,-152.1"/>
<polygon fill="#63b8ff" stroke="#63b8ff" points="244.18,-151.95 253.55,-147 243.14,-145.03 244.18,-151.95"/>
</a>
</g>
</g>
<!-- Node6 -->
<g id="Node000006" class="node">
<title>Node6</title>
<g id="a_Node000006"><a xlink:href="../../dd/d3e/classml_1_1maths_1_1analytics_1_1_c_boosted_tree_leaf_node_statistics_incremental.html#af3b4e69634a5df9f9c05993f4c91eada" target="_top" xlink:title="Only called by split but is public so it&#39;s accessible to std::make_shared.">
<polygon fill="white" stroke="#666666" points="219.25,-124 0,-124 0,-71 219.25,-71 219.25,-124"/>
<text text-anchor="start" x="8" y="-110.5" font-family="Helvetica,sans-Serif" font-size="10.00">ml::maths::analytics</text>
<text text-anchor="start" x="8" y="-99.25" font-family="Helvetica,sans-Serif" font-size="10.00">::CBoostedTreeLeafNodeStatistics</text>
<text text-anchor="start" x="8" y="-88" font-family="Helvetica,sans-Serif" font-size="10.00">Incremental::CBoostedTreeLeafNodeStatistics</text>
<text text-anchor="middle" x="109.62" y="-76.75" font-family="Helvetica,sans-Serif" font-size="10.00">Incremental</text>
</a>
</g>
</g>
<!-- Node3&#45;&gt;Node6 -->
<g id="edge5_Node000003_Node000006" class="edge">
<title>Node3&#45;&gt;Node6</title>
<g id="a_edge5_Node000003_Node000006"><a xlink:title=" ">
<path fill="none" stroke="#63b8ff" d="M243.8,-116.97C235.8,-115.8 227.71,-114.62 219.69,-113.45"/>
<polygon fill="#63b8ff" stroke="#63b8ff" points="243.15,-120.41 253.55,-118.4 244.16,-113.49 243.15,-120.41"/>
</a>
</g>
</g>
<!-- Node7 -->
<g id="Node000007" class="node">
<title>Node7</title>
<g id="a_Node000007"><a xlink:href="../../dd/d3e/classml_1_1maths_1_1analytics_1_1_c_boosted_tree_leaf_node_statistics_incremental.html#a58fd2782d8c92cc89789b5307d1dd44e" target="_top" xlink:title=" ">
<polygon fill="white" stroke="#666666" points="219.25,-53 0,-53 0,0 219.25,0 219.25,-53"/>
<text text-anchor="start" x="8" y="-39.5" font-family="Helvetica,sans-Serif" font-size="10.00">ml::maths::analytics</text>
<text text-anchor="start" x="8" y="-28.25" font-family="Helvetica,sans-Serif" font-size="10.00">::CBoostedTreeLeafNodeStatistics</text>
<text text-anchor="start" x="8" y="-17" font-family="Helvetica,sans-Serif" font-size="10.00">Incremental::CBoostedTreeLeafNodeStatistics</text>
<text text-anchor="middle" x="109.62" y="-5.75" font-family="Helvetica,sans-Serif" font-size="10.00">Incremental</text>
</a>
</g>
</g>
<!-- Node3&#45;&gt;Node7 -->
<g id="edge6_Node000003_Node000007" class="edge">
<title>Node3&#45;&gt;Node7</title>
<g id="a_edge6_Node000003_Node000007"><a xlink:title=" ">
<path fill="none" stroke="#63b8ff" d="M304.39,-105.59C279.69,-91.66 248.36,-75.01 219.25,-62.5 211.95,-59.36 204.28,-56.33 196.53,-53.44"/>
<polygon fill="#63b8ff" stroke="#63b8ff" points="302.46,-108.52 312.88,-110.42 305.92,-102.43 302.46,-108.52"/>
</a>
</g>
</g>
</g>
</svg>
