<?xml version="1.0" encoding="UTF-8" standalone="no"?>
<!DOCTYPE svg PUBLIC "-//W3C//DTD SVG 1.1//EN"
 "http://www.w3.org/Graphics/SVG/1.1/DTD/svg11.dtd">
<!-- Generated by graphviz version 10.0.1 (20240210.2158)
 -->
<!-- Title: ml::maths::analytics::CDataFrameAnalysisInstrumentationInterface Pages: 1 -->
<svg width="800pt" height="238pt"
 viewBox="0.00 0.00 800.25 237.50" xmlns="http://www.w3.org/2000/svg" xmlns:xlink="http://www.w3.org/1999/xlink">
<g id="graph0" class="graph" transform="scale(1 1) rotate(0) translate(4 233.5)">
<title>ml::maths::analytics::CDataFrameAnalysisInstrumentationInterface</title>
<!-- Node1 -->
<g id="Node000001" class="node">
<title>Node1</title>
<g id="a_Node000001"><a xlink:title="Interface class for collecting data frame analysis job statistics owned by the maths module.">
<polygon fill="#999999" stroke="#666666" points="183.25,-143.75 0,-143.75 0,-102 183.25,-102 183.25,-143.75"/>
<text text-anchor="start" x="8" y="-130.25" font-family="Helvetica,sans-Serif" font-size="10.00">ml::maths::analytics</text>
<text text-anchor="start" x="8" y="-119" font-family="Helvetica,sans-Serif" font-size="10.00">::CDataFrameAnalysisInstrumentation</text>
<text text-anchor="middle" x="91.62" y="-107.75" font-family="Helvetica,sans-Serif" font-size="10.00">Interface</text>
</a>
</g>
</g>
<!-- Node2 -->
<g id="Node000002" class="node">
<title>Node2</title>
<g id="a_Node000002"><a xlink:href="../../dd/df4/classml_1_1api_1_1_c_data_frame_analysis_instrumentation.html" target="_top" xlink:title="Instrumentation class for collecting data frame analysis job statistics.">
<polygon fill="white" stroke="#666666" points="381.5,-192.12 236.5,-192.12 236.5,-161.62 381.5,-161.62 381.5,-192.12"/>
<text text-anchor="start" x="244.5" y="-178.62" font-family="Helvetica,sans-Serif" font-size="10.00">ml::api::CDataFrameAnalysis</text>
<text text-anchor="middle" x="309" y="-167.38" font-family="Helvetica,sans-Serif" font-size="10.00">Instrumentation</text>
</a>
</g>
</g>
<!-- Node1&#45;&gt;Node2 -->
<g id="edge1_Node000001_Node000002" class="edge">
<title>Node1&#45;&gt;Node2</title>
<g id="a_edge1_Node000001_Node000002"><a xlink:title=" ">
<path fill="none" stroke="#63b8ff" d="M188.68,-146.96C207.92,-151.78 227.67,-156.73 245.42,-161.18"/>
<polygon fill="#63b8ff" stroke="#63b8ff" points="189.77,-143.62 179.22,-144.59 188.06,-150.41 189.77,-143.62"/>
</a>
</g>
</g>
<!-- Node6 -->
<g id="Node000006" class="node">
<title>Node6</title>
<g id="a_Node000006"><a xlink:href="../../d3/d41/classml_1_1maths_1_1analytics_1_1_c_data_frame_outliers_instrumentation_interface.html" target="_top" xlink:title="Instrumentation interface for Outlier Detection jobs.">
<polygon fill="white" stroke="#666666" points="398.75,-143.75 219.25,-143.75 219.25,-102 398.75,-102 398.75,-143.75"/>
<text text-anchor="start" x="227.25" y="-130.25" font-family="Helvetica,sans-Serif" font-size="10.00">ml::maths::analytics</text>
<text text-anchor="start" x="227.25" y="-119" font-family="Helvetica,sans-Serif" font-size="10.00">::CDataFrameOutliersInstrumentation</text>
<text text-anchor="middle" x="309" y="-107.75" font-family="Helvetica,sans-Serif" font-size="10.00">Interface</text>
</a>
</g>
</g>
<!-- Node1&#45;&gt;Node6 -->
<g id="edge5_Node000001_Node000006" class="edge">
<title>Node1&#45;&gt;Node6</title>
<g id="a_edge5_Node000001_Node000006"><a xlink:title=" ">
<path fill="none" stroke="#63b8ff" d="M194.97,-122.88C203,-122.88 211.08,-122.88 219.02,-122.88"/>
<polygon fill="#63b8ff" stroke="#63b8ff" points="195.16,-119.38 185.16,-122.88 195.16,-126.38 195.16,-119.38"/>
</a>
</g>
</g>
<!-- Node9 -->
<g id="Node000009" class="node">
<title>Node9</title>
<g id="a_Node000009"><a xlink:href="../../dc/d4d/classml_1_1maths_1_1analytics_1_1_c_data_frame_train_boosted_tree_instrumentation_interface.html" target="_top" xlink:title="Instrumentation interface for Supervised Learning jobs.">
<polygon fill="white" stroke="#666666" points="386.75,-83.75 231.25,-83.75 231.25,-42 386.75,-42 386.75,-83.75"/>
<text text-anchor="start" x="239.25" y="-70.25" font-family="Helvetica,sans-Serif" font-size="10.00">ml::maths::analytics</text>
<text text-anchor="start" x="239.25" y="-59" font-family="Helvetica,sans-Serif" font-size="10.00">::CDataFrameTrainBoostedTree</text>
<text text-anchor="middle" x="309" y="-47.75" font-family="Helvetica,sans-Serif" font-size="10.00">InstrumentationInterface</text>
</a>
</g>
</g>
<!-- Node1&#45;&gt;Node9 -->
<g id="edge9_Node000001_Node000009" class="edge">
<title>Node1&#45;&gt;Node9</title>
<g id="a_edge9_Node000001_Node000009"><a xlink:title=" ">
<path fill="none" stroke="#63b8ff" d="M180.19,-98.48C197.14,-93.76 214.78,-88.85 231.34,-84.23"/>
<polygon fill="#63b8ff" stroke="#63b8ff" points="179.32,-95.09 170.62,-101.15 181.2,-101.83 179.32,-95.09"/>
</a>
</g>
</g>
<!-- Node3 -->
<g id="Node000003" class="node">
<title>Node3</title>
<g id="a_Node000003"><a xlink:href="../../df/d33/class_c_data_frame_mock_analysis_state.html" target="_top" xlink:title=" ">
<polygon fill="white" stroke="#666666" points="613.12,-229.5 456.12,-229.5 456.12,-210.25 613.12,-210.25 613.12,-229.5"/>
<text text-anchor="middle" x="534.62" y="-216" font-family="Helvetica,sans-Serif" font-size="10.00">CDataFrameMockAnalysisState</text>
</a>
</g>
</g>
<!-- Node2&#45;&gt;Node3 -->
<g id="edge2_Node000002_Node000003" class="edge">
<title>Node2&#45;&gt;Node3</title>
<g id="a_edge2_Node000002_Node000003"><a xlink:title=" ">
<path fill="none" stroke="#63b8ff" d="M392.98,-192.84C406.93,-195.52 421.25,-198.28 434.75,-200.88 449.77,-203.76 466.07,-206.9 481.03,-209.77"/>
<polygon fill="#63b8ff" stroke="#63b8ff" points="393.87,-189.45 383.39,-191 392.55,-196.32 393.87,-189.45"/>
</a>
</g>
</g>
<!-- Node4 -->
<g id="Node000004" class="node">
<title>Node4</title>
<g id="a_Node000004"><a xlink:href="../../df/ddc/classml_1_1api_1_1_c_data_frame_outliers_instrumentation.html" target="_top" xlink:title="Instrumentation class for Outlier Detection jobs.">
<polygon fill="white" stroke="#666666" points="605.25,-192.12 464,-192.12 464,-161.62 605.25,-161.62 605.25,-192.12"/>
<text text-anchor="start" x="472" y="-178.62" font-family="Helvetica,sans-Serif" font-size="10.00">ml::api::CDataFrameOutliers</text>
<text text-anchor="middle" x="534.62" y="-167.38" font-family="Helvetica,sans-Serif" font-size="10.00">Instrumentation</text>
</a>
</g>
</g>
<!-- Node2&#45;&gt;Node4 -->
<g id="edge3_Node000002_Node000004" class="edge">
<title>Node2&#45;&gt;Node4</title>
<g id="a_edge3_Node000002_Node000004"><a xlink:title=" ">
<path fill="none" stroke="#63b8ff" d="M393.21,-176.88C416.4,-176.88 441.34,-176.88 463.68,-176.88"/>
<polygon fill="#63b8ff" stroke="#63b8ff" points="393.5,-173.38 383.5,-176.88 393.5,-180.38 393.5,-173.38"/>
</a>
</g>
</g>
<!-- Node5 -->
<g id="Node000005" class="node">
<title>Node5</title>
<g id="a_Node000005"><a xlink:href="../../d4/d83/classml_1_1api_1_1_c_data_frame_train_boosted_tree_instrumentation.html" target="_top" xlink:title="Instrumentation class for Supervised Learning jobs.">
<polygon fill="white" stroke="#666666" points="604.12,-143.12 465.12,-143.12 465.12,-112.62 604.12,-112.62 604.12,-143.12"/>
<text text-anchor="start" x="473.12" y="-129.62" font-family="Helvetica,sans-Serif" font-size="10.00">ml::api::CDataFrameTrain</text>
<text text-anchor="middle" x="534.62" y="-118.38" font-family="Helvetica,sans-Serif" font-size="10.00">BoostedTreeInstrumentation</text>
</a>
</g>
</g>
<!-- Node2&#45;&gt;Node5 -->
<g id="edge4_Node000002_Node000005" class="edge">
<title>Node2&#45;&gt;Node5</title>
<g id="a_edge4_Node000002_Node000005"><a xlink:title=" ">
<path fill="none" stroke="#63b8ff" d="M392.76,-158.74C416.4,-153.56 441.91,-147.97 464.64,-142.99"/>
<polygon fill="#63b8ff" stroke="#63b8ff" points="392.18,-155.29 383.16,-160.84 393.67,-162.12 392.18,-155.29"/>
</a>
</g>
</g>
<!-- Node6&#45;&gt;Node4 -->
<g id="edge6_Node000006_Node000004" class="edge">
<title>Node6&#45;&gt;Node4</title>
<g id="a_edge6_Node000006_Node000004"><a xlink:title=" ">
<path fill="none" stroke="#63b8ff" d="M409.46,-146.89C429.53,-151.74 450.13,-156.71 468.64,-161.18"/>
<polygon fill="#63b8ff" stroke="#63b8ff" points="410.4,-143.52 399.85,-144.57 408.75,-150.32 410.4,-143.52"/>
</a>
</g>
</g>
<!-- Node7 -->
<g id="Node000007" class="node">
<title>Node7</title>
<g id="a_Node000007"><a xlink:href="../../d2/db6/classml_1_1maths_1_1analytics_1_1_c_data_frame_outliers_instrumentation_stub.html" target="_top" xlink:title="Dummies out all instrumentation for outlier detection.">
<polygon fill="white" stroke="#666666" points="634.5,-94.12 434.75,-94.12 434.75,-63.62 634.5,-63.62 634.5,-94.12"/>
<text text-anchor="start" x="442.75" y="-80.62" font-family="Helvetica,sans-Serif" font-size="10.00">ml::maths::analytics</text>
<text text-anchor="middle" x="534.62" y="-69.38" font-family="Helvetica,sans-Serif" font-size="10.00">::CDataFrameOutliersInstrumentationStub</text>
</a>
</g>
</g>
<!-- Node6&#45;&gt;Node7 -->
<g id="edge7_Node000006_Node000007" class="edge">
<title>Node6&#45;&gt;Node7</title>
<g id="a_edge7_Node000006_Node000007"><a xlink:title=" ">
<path fill="none" stroke="#63b8ff" d="M410.1,-103.18C424.66,-100.31 439.5,-97.4 453.6,-94.62"/>
<polygon fill="#63b8ff" stroke="#63b8ff" points="409.65,-99.7 400.51,-105.07 411,-106.57 409.65,-99.7"/>
</a>
</g>
</g>
<!-- Node8 -->
<g id="Node000008" class="node">
<title>Node8</title>
<g id="a_Node000008"><a xlink:href="../../d6/d8c/classanonymous__namespace_02_c_outliers_test_8cc_03_1_1_c_test_instrumentation.html" target="_top" xlink:title=" ">
<polygon fill="white" stroke="#666666" points="792.25,-101.75 670.5,-101.75 670.5,-60 792.25,-60 792.25,-101.75"/>
<text text-anchor="start" x="678.5" y="-88.25" font-family="Helvetica,sans-Serif" font-size="10.00">anonymous_namespace</text>
<text text-anchor="start" x="678.5" y="-77" font-family="Helvetica,sans-Serif" font-size="10.00">{COutliersTest.cc}::</text>
<text text-anchor="middle" x="731.38" y="-65.75" font-family="Helvetica,sans-Serif" font-size="10.00">CTestInstrumentation</text>
</a>
</g>
</g>
<!-- Node7&#45;&gt;Node8 -->
<g id="edge8_Node000007_Node000008" class="edge">
<title>Node7&#45;&gt;Node8</title>
<g id="a_edge8_Node000007_Node000008"><a xlink:title=" ">
<path fill="none" stroke="#63b8ff" d="M646.49,-80.01C654.58,-80.1 662.55,-80.18 670.16,-80.26"/>
<polygon fill="#63b8ff" stroke="#63b8ff" points="646.55,-76.51 636.51,-79.91 646.47,-83.51 646.55,-76.51"/>
</a>
</g>
</g>
<!-- Node9&#45;&gt;Node5 -->
<g id="edge10_Node000009_Node000005" class="edge">
<title>Node9&#45;&gt;Node5</title>
<g id="a_edge10_Node000009_Node000005"><a xlink:title=" ">
<path fill="none" stroke="#63b8ff" d="M384.54,-87.62C401.02,-92.85 418.43,-98.2 434.75,-102.88 445.81,-106.04 457.63,-109.22 469.11,-112.18"/>
<polygon fill="#63b8ff" stroke="#63b8ff" points="385.9,-84.38 375.31,-84.66 383.77,-91.04 385.9,-84.38"/>
</a>
</g>
</g>
<!-- Node10 -->
<g id="Node000010" class="node">
<title>Node10</title>
<g id="a_Node000010"><a xlink:href="../../d5/deb/classml_1_1maths_1_1analytics_1_1_c_data_frame_train_boosted_tree_instrumentation_stub.html" target="_top" xlink:title="Dummies out all instrumentation for supervised learning.">
<polygon fill="white" stroke="#666666" points="612.38,-44.75 456.88,-44.75 456.88,-3 612.38,-3 612.38,-44.75"/>
<text text-anchor="start" x="464.88" y="-31.25" font-family="Helvetica,sans-Serif" font-size="10.00">ml::maths::analytics</text>
<text text-anchor="start" x="464.88" y="-20" font-family="Helvetica,sans-Serif" font-size="10.00">::CDataFrameTrainBoostedTree</text>
<text text-anchor="middle" x="534.62" y="-8.75" font-family="Helvetica,sans-Serif" font-size="10.00">InstrumentationStub</text>
</a>
</g>
</g>
<!-- Node9&#45;&gt;Node10 -->
<g id="edge11_Node000009_Node000010" class="edge">
<title>Node9&#45;&gt;Node10</title>
<g id="a_edge11_Node000009_Node000010"><a xlink:title=" ">
<path fill="none" stroke="#63b8ff" d="M398.18,-47.5C417.46,-44.13 437.72,-40.6 456.52,-37.32"/>
<polygon fill="#63b8ff" stroke="#63b8ff" points="397.7,-44.03 388.45,-49.19 398.9,-50.92 397.7,-44.03"/>
</a>
</g>
</g>
<!-- Node11 -->
<g id="Node000011" class="node">
<title>Node11</title>
<g id="a_Node000011"><a xlink:href="../../de/de1/classanonymous__namespace_02_c_boosted_tree_test_8cc_03_1_1_c_test_instrumentation.html" target="_top" xlink:title=" ">
<polygon fill="white" stroke="#666666" points="792.25,-41.75 670.5,-41.75 670.5,0 792.25,0 792.25,-41.75"/>
<text text-anchor="start" x="678.5" y="-28.25" font-family="Helvetica,sans-Serif" font-size="10.00">anonymous_namespace</text>
<text text-anchor="start" x="678.5" y="-17" font-family="Helvetica,sans-Serif" font-size="10.00">{CBoostedTreeTest.cc}</text>
<text text-anchor="middle" x="731.38" y="-5.75" font-family="Helvetica,sans-Serif" font-size="10.00">::CTestInstrumentation</text>
</a>
</g>
</g>
<!-- Node10&#45;&gt;Node11 -->
<g id="edge12_Node000010_Node000011" class="edge">
<title>Node10&#45;&gt;Node11</title>
<g id="a_edge12_Node000010_Node000011"><a xlink:title=" ">
<path fill="none" stroke="#63b8ff" d="M623.91,-22.52C639.56,-22.27 655.53,-22.03 670.17,-21.8"/>
<polygon fill="#63b8ff" stroke="#63b8ff" points="624.05,-19.01 614.11,-22.67 624.16,-26.01 624.05,-19.01"/>
</a>
</g>
</g>
</g>
</svg>
