<?xml version="1.0" encoding="UTF-8" standalone="no"?>
<!DOCTYPE svg PUBLIC "-//W3C//DTD SVG 1.1//EN"
 "http://www.w3.org/Graphics/SVG/1.1/DTD/svg11.dtd">
<!-- Generated by graphviz version 10.0.1 (20240210.2158)
 -->
<!-- Title: ml::api::CSingleFieldDataCategorizer::acceptPersistInserter Pages: 1 -->
<svg width="748pt" height="180pt"
 viewBox="0.00 0.00 747.75 179.50" xmlns="http://www.w3.org/2000/svg" xmlns:xlink="http://www.w3.org/1999/xlink">
<g id="graph0" class="graph" transform="scale(1 1) rotate(0) translate(4 175.5)">
<title>ml::api::CSingleFieldDataCategorizer::acceptPersistInserter</title>
<!-- Node1 -->
<g id="Node000001" class="node">
<title>Node1</title>
<g id="a_Node000001"><a xlink:title="Used by deferred persistence functions.">
<polygon fill="#999999" stroke="#666666" points="165.25,-128.5 0,-128.5 0,-98 165.25,-98 165.25,-128.5"/>
<text text-anchor="start" x="8" y="-115" font-family="Helvetica,sans-Serif" font-size="10.00">ml::api::CSingleFieldData</text>
<text text-anchor="middle" x="82.62" y="-103.75" font-family="Helvetica,sans-Serif" font-size="10.00">Categorizer::acceptPersistInserter</text>
</a>
</g>
</g>
<!-- Node2 -->
<g id="Node000002" class="node">
<title>Node2</title>
<g id="a_Node000002"><a xlink:href="../../d4/d9e/classml_1_1api_1_1_c_category_id_mapper.html#a1465a9f6ff8a304c5dfe918f438cc7a1" target="_top" xlink:title="Persist the mapper passing information to inserter.">
<polygon fill="white" stroke="#666666" points="348.5,-171.5 209.5,-171.5 209.5,-141 348.5,-141 348.5,-171.5"/>
<text text-anchor="start" x="217.5" y="-158" font-family="Helvetica,sans-Serif" font-size="10.00">ml::api::CCategoryIdMapper</text>
<text text-anchor="middle" x="279" y="-146.75" font-family="Helvetica,sans-Serif" font-size="10.00">::acceptPersistInserter</text>
</a>
</g>
</g>
<!-- Node1&#45;&gt;Node2 -->
<g id="edge1_Node000001_Node000002" class="edge">
<title>Node1&#45;&gt;Node2</title>
<g id="a_edge1_Node000001_Node000002"><a xlink:title=" ">
<path fill="none" stroke="#63b8ff" d="M154.62,-128.96C168.8,-132.09 183.77,-135.4 198.22,-138.6"/>
<polygon fill="#63b8ff" stroke="#63b8ff" points="197.14,-141.95 207.66,-140.69 198.65,-135.11 197.14,-141.95"/>
</a>
</g>
</g>
<!-- Node3 -->
<g id="Node000003" class="node">
<title>Node3</title>
<g id="a_Node000003"><a xlink:href="../../d7/da9/classml_1_1model_1_1_c_category_examples_collector.html#ac50c7a872afade137518ba5b65e57928" target="_top" xlink:title="Persist state by passing information to the supplied inserter.">
<polygon fill="white" stroke="#666666" points="356.75,-85.5 201.25,-85.5 201.25,-55 356.75,-55 356.75,-85.5"/>
<text text-anchor="start" x="209.25" y="-72" font-family="Helvetica,sans-Serif" font-size="10.00">ml::model::CCategoryExamples</text>
<text text-anchor="middle" x="279" y="-60.75" font-family="Helvetica,sans-Serif" font-size="10.00">Collector::acceptPersistInserter</text>
</a>
</g>
</g>
<!-- Node1&#45;&gt;Node3 -->
<g id="edge2_Node000001_Node000003" class="edge">
<title>Node1&#45;&gt;Node3</title>
<g id="a_edge2_Node000001_Node000003"><a xlink:title=" ">
<path fill="none" stroke="#63b8ff" d="M154.62,-97.54C168.06,-94.57 182.22,-91.44 195.96,-88.4"/>
<polygon fill="#63b8ff" stroke="#63b8ff" points="196.38,-91.89 205.39,-86.31 194.87,-85.06 196.38,-91.89"/>
</a>
</g>
</g>
<!-- Node4 -->
<g id="Node000004" class="node">
<title>Node4</title>
<g id="a_Node000004"><a xlink:href="../../d6/d96/classml_1_1core_1_1_c_state_persist_inserter.html#a599589fbf44e55664572fd485a2ac497" target="_top" xlink:title=" ">
<polygon fill="white" stroke="#666666" points="546.38,-128.5 394.62,-128.5 394.62,-98 546.38,-98 546.38,-128.5"/>
<text text-anchor="start" x="402.62" y="-115" font-family="Helvetica,sans-Serif" font-size="10.00">ml::core::CStatePersistInserter</text>
<text text-anchor="middle" x="470.5" y="-103.75" font-family="Helvetica,sans-Serif" font-size="10.00">::insertLevel</text>
</a>
</g>
</g>
<!-- Node1&#45;&gt;Node4 -->
<g id="edge8_Node000001_Node000004" class="edge">
<title>Node1&#45;&gt;Node4</title>
<g id="a_edge8_Node000001_Node000004"><a xlink:title=" ">
<path fill="none" stroke="#63b8ff" d="M165.46,-113.25C229.32,-113.25 317.82,-113.25 382.87,-113.25"/>
<polygon fill="#63b8ff" stroke="#63b8ff" points="382.81,-116.75 392.81,-113.25 382.81,-109.75 382.81,-116.75"/>
</a>
</g>
</g>
<!-- Node3&#45;&gt;Node4 -->
<g id="edge3_Node000003_Node000004" class="edge">
<title>Node3&#45;&gt;Node4</title>
<g id="a_edge3_Node000003_Node000004"><a xlink:title=" ">
<path fill="none" stroke="#63b8ff" d="M349.22,-85.96C362.19,-88.9 375.84,-92 389.12,-95.01"/>
<polygon fill="#63b8ff" stroke="#63b8ff" points="388.15,-98.38 398.68,-97.18 389.7,-91.55 388.15,-98.38"/>
</a>
</g>
</g>
<!-- Node5 -->
<g id="Node000005" class="node">
<title>Node5</title>
<g id="a_Node000005"><a xlink:href="../../d7/da9/classml_1_1model_1_1_c_category_examples_collector.html#a75ad47809bafe3252076857394f8db44" target="_top" xlink:title=" ">
<polygon fill="white" stroke="#666666" points="548.25,-79.5 392.75,-79.5 392.75,-49 548.25,-49 548.25,-79.5"/>
<text text-anchor="start" x="400.75" y="-66" font-family="Helvetica,sans-Serif" font-size="10.00">ml::model::CCategoryExamples</text>
<text text-anchor="middle" x="470.5" y="-54.75" font-family="Helvetica,sans-Serif" font-size="10.00">Collector::persistExamples</text>
</a>
</g>
</g>
<!-- Node3&#45;&gt;Node5 -->
<g id="edge4_Node000003_Node000005" class="edge">
<title>Node3&#45;&gt;Node5</title>
<g id="a_edge4_Node000003_Node000005"><a xlink:title=" ">
<path fill="none" stroke="#63b8ff" d="M357.08,-67.81C365.02,-67.56 373.13,-67.3 381.18,-67.05"/>
<polygon fill="#63b8ff" stroke="#63b8ff" points="381.09,-70.55 390.98,-66.74 380.87,-63.55 381.09,-70.55"/>
</a>
</g>
</g>
<!-- Node6 -->
<g id="Node000006" class="node">
<title>Node6</title>
<g id="a_Node000006"><a xlink:href="../../d7/da9/classml_1_1model_1_1_c_category_examples_collector.html#aacd44abd96032a41d0c29327e15fc2a9" target="_top" xlink:title=" ">
<polygon fill="white" stroke="#666666" points="739.75,-128.5 584.25,-128.5 584.25,-98 739.75,-98 739.75,-128.5"/>
<text text-anchor="start" x="592.25" y="-115" font-family="Helvetica,sans-Serif" font-size="10.00">ml::model::CCategoryExamples</text>
<text text-anchor="middle" x="662" y="-103.75" font-family="Helvetica,sans-Serif" font-size="10.00">Collector::examples</text>
</a>
</g>
</g>
<!-- Node5&#45;&gt;Node6 -->
<g id="edge5_Node000005_Node000006" class="edge">
<title>Node5&#45;&gt;Node6</title>
<g id="a_edge5_Node000005_Node000006"><a xlink:title=" ">
<path fill="none" stroke="#63b8ff" d="M532.24,-79.96C550.43,-84.66 570.55,-89.86 589.37,-94.73"/>
<polygon fill="#63b8ff" stroke="#63b8ff" points="588.25,-98.05 598.81,-97.17 590.01,-91.28 588.25,-98.05"/>
</a>
</g>
</g>
<!-- Node7 -->
<g id="Node000007" class="node">
<title>Node7</title>
<g id="a_Node000007"><a xlink:href="../../d6/d7a/classml_1_1model_1_1_c_local_category_id.html#a21aa072b091f702f29c77caca5018d50" target="_top" xlink:title="Accessor for numeric ID.">
<polygon fill="white" stroke="#666666" points="729.62,-79.5 594.38,-79.5 594.38,-49 729.62,-49 729.62,-79.5"/>
<text text-anchor="start" x="602.38" y="-66" font-family="Helvetica,sans-Serif" font-size="10.00">ml::model::CLocalCategory</text>
<text text-anchor="middle" x="662" y="-54.75" font-family="Helvetica,sans-Serif" font-size="10.00">Id::id</text>
</a>
</g>
</g>
<!-- Node5&#45;&gt;Node7 -->
<g id="edge6_Node000005_Node000007" class="edge">
<title>Node5&#45;&gt;Node7</title>
<g id="a_edge6_Node000005_Node000007"><a xlink:title=" ">
<path fill="none" stroke="#63b8ff" d="M548.58,-64.25C559.87,-64.25 571.52,-64.25 582.84,-64.25"/>
<polygon fill="#63b8ff" stroke="#63b8ff" points="582.51,-67.75 592.51,-64.25 582.51,-60.75 582.51,-67.75"/>
</a>
</g>
</g>
<!-- Node8 -->
<g id="Node000008" class="node">
<title>Node8</title>
<g id="a_Node000008"><a xlink:href="../../d6/d96/classml_1_1core_1_1_c_state_persist_inserter.html#a21319d2ecfcb0ab1aceecf2a5a463d3a" target="_top" xlink:title="Store a name/value.">
<polygon fill="white" stroke="#666666" points="737.88,-30.5 586.12,-30.5 586.12,0 737.88,0 737.88,-30.5"/>
<text text-anchor="start" x="594.12" y="-17" font-family="Helvetica,sans-Serif" font-size="10.00">ml::core::CStatePersistInserter</text>
<text text-anchor="middle" x="662" y="-5.75" font-family="Helvetica,sans-Serif" font-size="10.00">::insertValue</text>
</a>
</g>
</g>
<!-- Node5&#45;&gt;Node8 -->
<g id="edge7_Node000005_Node000008" class="edge">
<title>Node5&#45;&gt;Node8</title>
<g id="a_edge7_Node000005_Node000008"><a xlink:title=" ">
<path fill="none" stroke="#63b8ff" d="M532.24,-48.54C550.43,-43.84 570.55,-38.64 589.37,-33.77"/>
<polygon fill="#63b8ff" stroke="#63b8ff" points="590.01,-37.22 598.81,-31.33 588.25,-30.45 590.01,-37.22"/>
</a>
</g>
</g>
</g>
</svg>
