<?xml version="1.0" encoding="UTF-8" standalone="no"?>
<!DOCTYPE svg PUBLIC "-//W3C//DTD SVG 1.1//EN"
 "http://www.w3.org/Graphics/SVG/1.1/DTD/svg11.dtd">
<!-- Generated by graphviz version 10.0.1 (20240210.2158)
 -->
<!-- Title: ml::core::CRapidXmlStatePersistInserter::nameFromCache Pages: 1 -->
<svg width="324pt" height="57pt"
 viewBox="0.00 0.00 323.50 56.50" xmlns="http://www.w3.org/2000/svg" xmlns:xlink="http://www.w3.org/1999/xlink">
<g id="graph0" class="graph" transform="scale(1 1) rotate(0) translate(4 52.5)">
<title>ml::core::CRapidXmlStatePersistInserter::nameFromCache</title>
<!-- Node1 -->
<g id="Node000001" class="node">
<title>Node1</title>
<g id="a_Node000001"><a xlink:title=" ">
<polygon fill="#999999" stroke="#666666" points="160.75,-30.5 0,-30.5 0,0 160.75,0 160.75,-30.5"/>
<text text-anchor="start" x="8" y="-17" font-family="Helvetica,sans-Serif" font-size="10.00">ml::core::CRapidXmlState</text>
<text text-anchor="middle" x="80.38" y="-5.75" font-family="Helvetica,sans-Serif" font-size="10.00">PersistInserter::nameFromCache</text>
</a>
</g>
</g>
<!-- Node2 -->
<g id="Node000002" class="node">
<title>Node2</title>
<g id="a_Node000002"><a xlink:href="../../d6/d2f/classml_1_1core_1_1_c_string_cache.html#af22bfc60f12eb1a755ac6478d79317d6" target="_top" xlink:title="Look up a char pointer when the length is not known.">
<polygon fill="white" stroke="#666666" points="315.5,-30.5 196.75,-30.5 196.75,0 315.5,0 315.5,-30.5"/>
<text text-anchor="start" x="204.75" y="-17" font-family="Helvetica,sans-Serif" font-size="10.00">ml::core::CStringCache</text>
<text text-anchor="middle" x="256.12" y="-5.75" font-family="Helvetica,sans-Serif" font-size="10.00">::stringFor</text>
</a>
</g>
</g>
<!-- Node1&#45;&gt;Node2 -->
<g id="edge1_Node000001_Node000002" class="edge">
<title>Node1&#45;&gt;Node2</title>
<g id="a_edge1_Node000001_Node000002"><a xlink:title=" ">
<path fill="none" stroke="#63b8ff" d="M161.13,-15.25C169.1,-15.25 177.15,-15.25 185.02,-15.25"/>
<polygon fill="#63b8ff" stroke="#63b8ff" points="184.85,-18.75 194.85,-15.25 184.85,-11.75 184.85,-18.75"/>
</a>
</g>
</g>
<!-- Node2&#45;&gt;Node2 -->
<g id="edge2_Node000002_Node000002" class="edge">
<title>Node2&#45;&gt;Node2</title>
<g id="a_edge2_Node000002_Node000002"><a xlink:title=" ">
<path fill="none" stroke="#63b8ff" d="M224.98,-30.99C218.63,-40.06 229.01,-48.5 256.12,-48.5 270.95,-48.5 280.78,-45.97 285.6,-42.2"/>
<polygon fill="#63b8ff" stroke="#63b8ff" points="289.03,-42.89 287.05,-32.48 282.11,-41.86 289.03,-42.89"/>
</a>
</g>
</g>
</g>
</svg>
