<?xml version="1.0" encoding="UTF-8" standalone="no"?>
<!DOCTYPE svg PUBLIC "-//W3C//DTD SVG 1.1//EN"
 "http://www.w3.org/Graphics/SVG/1.1/DTD/svg11.dtd">
<!-- Generated by graphviz version 10.0.1 (20240210.2158)
 -->
<!-- Title: ml::model::CSearchKey::partitionFieldName Pages: 1 -->
<svg width="512pt" height="204pt"
 viewBox="0.00 0.00 512.00 203.50" xmlns="http://www.w3.org/2000/svg" xmlns:xlink="http://www.w3.org/1999/xlink">
<g id="graph0" class="graph" transform="scale(1 1) rotate(0) translate(4 199.5)">
<title>ml::model::CSearchKey::partitionFieldName</title>
<!-- Node1 -->
<g id="Node000001" class="node">
<title>Node1</title>
<g id="a_Node000001"><a xlink:title="Get the partition field name.">
<polygon fill="#999999" stroke="#666666" points="504,-121.5 383.75,-121.5 383.75,-91 504,-91 504,-121.5"/>
<text text-anchor="start" x="391.75" y="-108" font-family="Helvetica,sans-Serif" font-size="10.00">ml::model::CSearchKey</text>
<text text-anchor="middle" x="443.88" y="-96.75" font-family="Helvetica,sans-Serif" font-size="10.00">::partitionFieldName</text>
</a>
</g>
</g>
<!-- Node2 -->
<g id="Node000002" class="node">
<title>Node2</title>
<g id="a_Node000002"><a xlink:href="../../dc/d14/classml_1_1model_1_1_c_event_rate_model.html#a5f6241aadc05102c032854e593798b2c" target="_top" xlink:title=" ">
<polygon fill="white" stroke="#666666" points="338,-195.5 193,-195.5 193,-165 338,-165 338,-195.5"/>
<text text-anchor="start" x="201" y="-182" font-family="Helvetica,sans-Serif" font-size="10.00">ml::model::CEventRateModel</text>
<text text-anchor="middle" x="265.5" y="-170.75" font-family="Helvetica,sans-Serif" font-size="10.00">::sample</text>
</a>
</g>
</g>
<!-- Node1&#45;&gt;Node2 -->
<g id="edge1_Node000001_Node000002" class="edge">
<title>Node1&#45;&gt;Node2</title>
<g id="a_edge1_Node000001_Node000002"><a xlink:title=" ">
<path fill="none" stroke="#63b8ff" d="M405.88,-127.25C388.56,-136.57 367.45,-147.22 347.75,-155.25 339.55,-158.59 330.73,-161.74 322.03,-164.6"/>
<polygon fill="#63b8ff" stroke="#63b8ff" points="407.17,-130.53 414.27,-122.67 403.81,-124.39 407.17,-130.53"/>
</a>
</g>
</g>
<!-- Node4 -->
<g id="Node000004" class="node">
<title>Node4</title>
<g id="a_Node000004"><a xlink:href="../../d0/d77/classml_1_1model_1_1_c_event_rate_population_model.html#a50dbd54cdd38c81eb0cef9cd44458c85" target="_top" xlink:title=" ">
<polygon fill="white" stroke="#666666" points="347.75,-146.5 183.25,-146.5 183.25,-116 347.75,-116 347.75,-146.5"/>
<text text-anchor="start" x="191.25" y="-133" font-family="Helvetica,sans-Serif" font-size="10.00">ml::model::CEventRatePopulation</text>
<text text-anchor="middle" x="265.5" y="-121.75" font-family="Helvetica,sans-Serif" font-size="10.00">Model::sample</text>
</a>
</g>
</g>
<!-- Node1&#45;&gt;Node4 -->
<g id="edge3_Node000001_Node000004" class="edge">
<title>Node1&#45;&gt;Node4</title>
<g id="a_edge3_Node000001_Node000004"><a xlink:title=" ">
<path fill="none" stroke="#63b8ff" d="M372.5,-116.23C364.49,-117.36 356.27,-118.53 348.13,-119.68"/>
<polygon fill="#63b8ff" stroke="#63b8ff" points="372.75,-119.73 382.16,-114.86 371.76,-112.79 372.75,-119.73"/>
</a>
</g>
</g>
<!-- Node5 -->
<g id="Node000005" class="node">
<title>Node5</title>
<g id="a_Node000005"><a xlink:href="../../da/dfb/classml_1_1model_1_1_c_metric_model.html#adafa1ccfb4f10c872ea039bbb2ff80b6" target="_top" xlink:title=" ">
<polygon fill="white" stroke="#666666" points="328.25,-97.5 202.75,-97.5 202.75,-67 328.25,-67 328.25,-97.5"/>
<text text-anchor="start" x="210.75" y="-84" font-family="Helvetica,sans-Serif" font-size="10.00">ml::model::CMetricModel</text>
<text text-anchor="middle" x="265.5" y="-72.75" font-family="Helvetica,sans-Serif" font-size="10.00">::sample</text>
</a>
</g>
</g>
<!-- Node1&#45;&gt;Node5 -->
<g id="edge4_Node000001_Node000005" class="edge">
<title>Node1&#45;&gt;Node5</title>
<g id="a_edge4_Node000001_Node000005"><a xlink:title=" ">
<path fill="none" stroke="#63b8ff" d="M372.67,-96.7C358.1,-94.71 342.84,-92.64 328.58,-90.7"/>
<polygon fill="#63b8ff" stroke="#63b8ff" points="371.77,-100.11 382.15,-97.99 372.72,-93.17 371.77,-100.11"/>
</a>
</g>
</g>
<!-- Node7 -->
<g id="Node000007" class="node">
<title>Node7</title>
<g id="a_Node000007"><a xlink:href="../../d2/d49/classml_1_1model_1_1_c_metric_population_model.html#aee59e116a3bb9c8d76bc359b9d7ab554" target="_top" xlink:title=" ">
<polygon fill="white" stroke="#666666" points="338,-30.5 193,-30.5 193,0 338,0 338,-30.5"/>
<text text-anchor="start" x="201" y="-17" font-family="Helvetica,sans-Serif" font-size="10.00">ml::model::CMetricPopulation</text>
<text text-anchor="middle" x="265.5" y="-5.75" font-family="Helvetica,sans-Serif" font-size="10.00">Model::sample</text>
</a>
</g>
</g>
<!-- Node1&#45;&gt;Node7 -->
<g id="edge6_Node000001_Node000007" class="edge">
<title>Node1&#45;&gt;Node7</title>
<g id="a_edge6_Node000001_Node000007"><a xlink:title=" ">
<path fill="none" stroke="#63b8ff" d="M402.59,-85.47C370.49,-68.9 326.23,-46.07 297.01,-30.99"/>
<polygon fill="#63b8ff" stroke="#63b8ff" points="400.72,-88.44 411.21,-89.91 403.93,-82.22 400.72,-88.44"/>
</a>
</g>
</g>
<!-- Node3 -->
<g id="Node000003" class="node">
<title>Node3</title>
<g id="a_Node000003"><a xlink:href="../../df/d44/_c_model_memory_test_8cc.html#a84a19efc4ae2859d720e5a7a5d5836e5" target="_top" xlink:title=" ">
<polygon fill="white" stroke="#666666" points="147.25,-189.88 0,-189.88 0,-170.62 147.25,-170.62 147.25,-189.88"/>
<text text-anchor="middle" x="73.62" y="-176.38" font-family="Helvetica,sans-Serif" font-size="10.00">BOOST_AUTO_TEST_CASE</text>
</a>
</g>
</g>
<!-- Node2&#45;&gt;Node3 -->
<g id="edge2_Node000002_Node000003" class="edge">
<title>Node2&#45;&gt;Node3</title>
<g id="a_edge2_Node000002_Node000003"><a xlink:title=" ">
<path fill="none" stroke="#63b8ff" d="M181.49,-180.25C170.15,-180.25 158.59,-180.25 147.46,-180.25"/>
<polygon fill="#63b8ff" stroke="#63b8ff" points="181.2,-183.75 191.2,-180.25 181.2,-176.75 181.2,-183.75"/>
</a>
</g>
</g>
<!-- Node6 -->
<g id="Node000006" class="node">
<title>Node6</title>
<g id="a_Node000006"><a xlink:href="../../df/d44/_c_model_memory_test_8cc.html#aadb4ceb11ad77a33ace61c59ca8117b4" target="_top" xlink:title=" ">
<polygon fill="white" stroke="#666666" points="147.25,-91.88 0,-91.88 0,-72.62 147.25,-72.62 147.25,-91.88"/>
<text text-anchor="middle" x="73.62" y="-78.38" font-family="Helvetica,sans-Serif" font-size="10.00">BOOST_AUTO_TEST_CASE</text>
</a>
</g>
</g>
<!-- Node5&#45;&gt;Node6 -->
<g id="edge5_Node000005_Node000006" class="edge">
<title>Node5&#45;&gt;Node6</title>
<g id="a_edge5_Node000005_Node000006"><a xlink:title=" ">
<path fill="none" stroke="#63b8ff" d="M191.04,-82.25C176.75,-82.25 161.77,-82.25 147.5,-82.25"/>
<polygon fill="#63b8ff" stroke="#63b8ff" points="190.81,-85.75 200.81,-82.25 190.81,-78.75 190.81,-85.75"/>
</a>
</g>
</g>
<!-- Node7&#45;&gt;Node7 -->
<g id="edge7_Node000007_Node000007" class="edge">
<title>Node7&#45;&gt;Node7</title>
<g id="a_edge7_Node000007_Node000007"><a xlink:title=" ">
<path fill="none" stroke="#63b8ff" d="M295.41,-42.2C290.52,-45.97 280.55,-48.5 265.5,-48.5 237.98,-48.5 227.44,-40.06 233.89,-30.99"/>
<polygon fill="#63b8ff" stroke="#63b8ff" points="298.85,-42.89 296.88,-32.48 291.93,-41.85 298.85,-42.89"/>
</a>
</g>
</g>
</g>
</svg>
