<?xml version="1.0" encoding="UTF-8" standalone="no"?>
<!DOCTYPE svg PUBLIC "-//W3C//DTD SVG 1.1//EN"
 "http://www.w3.org/Graphics/SVG/1.1/DTD/svg11.dtd">
<!-- Generated by graphviz version 10.0.1 (20240210.2158)
 -->
<!-- Title: ml::model::CHierarchicalResultsLevelSet::personElement Pages: 1 -->
<!--zoomable 137 -->

<svg id="main" version="1.1" xmlns="http://www.w3.org/2000/svg" xmlns:xlink="http://www.w3.org/1999/xlink" xml:space="preserve" onload="init(evt)">
<style type="text/css"><![CDATA[
.node, .edge {opacity: 0.7;}
.node.selected, .edge.selected {opacity: 1;}
.edge:hover path { stroke: red; }
.edge:hover polygon { stroke: red; fill: red; }
]]></style>

<defs>
  <circle id="rim" cx="0" cy="0" r="7"/>
  <circle id="rim2" cx="0" cy="0" r="3.5"/>
  <g id="zoomPlus">
    <use xlink:href="#rim" fill="#404040"><set attributeName="fill" to="#808080" begin="zoomplus.mouseover" end="zoomplus.mouseout"/></use>
    <path d="M-4,0h8M0,-4v8" fill="none" stroke="white" stroke-width="1.5" pointer-events="none"/>
  </g>
  <g id="zoomMin">
    <use xlink:href="#rim" fill="#404040"><set attributeName="fill" to="#808080" begin="zoomminus.mouseover" end="zoomminus.mouseout"/></use>
    <path d="M-4,0h8" fill="none" stroke="white" stroke-width="1.5" pointer-events="none"/>
  </g>
  <g id="arrowUp" transform="translate(30 24)">
    <use xlink:href="#rim"/>
    <path pointer-events="none" fill="none" stroke="white" stroke-width="1.5" d="M0,-3.0v7 M-2.5,-0.5L0,-3.0L2.5,-0.5"/>
  </g>
  <g id="arrowRight" transform="rotate(90) translate(36 -43)">
    <use xlink:href="#rim"/>
    <path pointer-events="none" fill="none" stroke="white" stroke-width="1.5" d="M0,-3.0v7 M-2.5,-0.5L0,-3.0L2.5,-0.5"/>
  </g>
  <g id="arrowDown" transform="rotate(180) translate(-30 -48)">
    <use xlink:href="#rim"/>
    <path pointer-events="none" fill="none" stroke="white" stroke-width="1.5" d="M0,-3.0v7 M-2.5,-0.5L0,-3.0L2.5,-0.5"/>
  </g>
  <g id="arrowLeft" transform="rotate(270) translate(-36 17)">
    <use xlink:href="#rim"/>
    <path pointer-events="none" fill="none" stroke="white" stroke-width="1.5" d="M0,-3.0v7 M-2.5,-0.5L0,-3.0L2.5,-0.5"/>
  </g>
  <g id="resetDef">
    <use xlink:href="#rim2" fill="#404040"><set attributeName="fill" to="#808080" begin="reset.mouseover" end="reset.mouseout"/></use>
  </g>
</defs>
<script type="application/ecmascript">
var viewWidth = 876;
var viewHeight = 137;
var sectionId = 'dynsection-13';
</script>
<script type="application/ecmascript" xlink:href="../../svg.min.js"/>
<svg id="graph" class="graph">
<g id="viewport">
<title>ml::model::CHierarchicalResultsLevelSet::personElement</title>
<!-- Node1 -->
<g id="Node000001" class="node">
<title>Node1</title>
<g id="a_Node000001"><a xlink:title=" ">
<polygon fill="#999999" stroke="#666666" points="159.25,-79.5 0,-79.5 0,-49 159.25,-49 159.25,-79.5"/>
<text text-anchor="start" x="8" y="-66" font-family="Helvetica,sans-Serif" font-size="10.00">ml::model::CHierarchical</text>
<text text-anchor="middle" x="79.62" y="-54.75" font-family="Helvetica,sans-Serif" font-size="10.00">ResultsLevelSet::personElement</text>
</a>
</g>
</g>
<!-- Node2 -->
<g id="Node000002" class="node">
<title>Node2</title>
<g id="a_Node000002"><a xlink:href="../../d8/dff/classml_1_1model_1_1_c_hierarchical_results_level_set.html#a0692e71f64d973d6baefbd289fc7497a" target="_top" xlink:title="Get an element of set by name.">
<polygon fill="white" stroke="#666666" points="323.75,-101.5 195.25,-101.5 195.25,-71 323.75,-71 323.75,-101.5"/>
<text text-anchor="start" x="203.25" y="-88" font-family="Helvetica,sans-Serif" font-size="10.00">ml::model::CHierarchical</text>
<text text-anchor="middle" x="259.5" y="-76.75" font-family="Helvetica,sans-Serif" font-size="10.00">ResultsLevelSet::element</text>
</a>
</g>
</g>
<!-- Node1&#45;&gt;Node2 -->
<g id="edge1_Node000001_Node000002" class="edge">
<title>Node1&#45;&gt;Node2</title>
<g id="a_edge1_Node000001_Node000002"><a xlink:title=" ">
<path fill="none" stroke="#63b8ff" d="M159.68,-74.03C167.6,-75.01 175.62,-76 183.49,-76.97"/>
<polygon fill="#63b8ff" stroke="#63b8ff" points="183.04,-80.44 193.39,-78.2 183.9,-73.5 183.04,-80.44"/>
</a>
</g>
</g>
<!-- Node3 -->
<g id="Node000003" class="node">
<title>Node3</title>
<g id="a_Node000003"><a xlink:href="../../dd/d75/classml_1_1core_1_1_c_compressed_dictionary.html#ad9fd3a9d86ddfb73b3395df3227b851a" target="_top" xlink:title="Translate word to a dictionary word.">
<polygon fill="white" stroke="#666666" points="524.25,-79.5 359.75,-79.5 359.75,-49 524.25,-49 524.25,-79.5"/>
<text text-anchor="start" x="367.75" y="-66" font-family="Helvetica,sans-Serif" font-size="10.00">ml::core::CCompressedDictionary</text>
<text text-anchor="middle" x="442" y="-54.75" font-family="Helvetica,sans-Serif" font-size="10.00">::word</text>
</a>
</g>
</g>
<!-- Node1&#45;&gt;Node3 -->
<g id="edge9_Node000001_Node000003" class="edge">
<title>Node1&#45;&gt;Node3</title>
<g id="a_edge9_Node000001_Node000003"><a xlink:title=" ">
<path fill="none" stroke="#63b8ff" d="M159.55,-62.69C171.51,-62.51 183.71,-62.35 195.25,-62.25 252.36,-61.75 266.64,-61.76 323.75,-62.25 331.57,-62.32 339.68,-62.41 347.82,-62.52"/>
<polygon fill="#63b8ff" stroke="#63b8ff" points="347.76,-66.02 357.81,-62.66 347.86,-59.02 347.76,-66.02"/>
</a>
</g>
</g>
<!-- Node2&#45;&gt;Node2 -->
<g id="edge2_Node000002_Node000002" class="edge">
<title>Node2&#45;&gt;Node2</title>
<g id="a_edge2_Node000002_Node000002"><a xlink:title=" ">
<path fill="none" stroke="#63b8ff" d="M227.63,-101.99C221.12,-111.06 231.75,-119.5 259.5,-119.5 274.68,-119.5 284.73,-116.97 289.67,-113.2"/>
<polygon fill="#63b8ff" stroke="#63b8ff" points="293.1,-113.9 291.15,-103.48 286.18,-112.84 293.1,-113.9"/>
</a>
</g>
</g>
<!-- Node2&#45;&gt;Node3 -->
<g id="edge3_Node000002_Node000003" class="edge">
<title>Node2&#45;&gt;Node3</title>
<g id="a_edge3_Node000002_Node000003"><a xlink:title=" ">
<path fill="none" stroke="#63b8ff" d="M324.14,-78.49C331.86,-77.55 339.88,-76.58 347.92,-75.6"/>
<polygon fill="#63b8ff" stroke="#63b8ff" points="348.28,-79.08 357.78,-74.39 347.43,-72.13 348.28,-79.08"/>
</a>
</g>
</g>
<!-- Node3&#45;&gt;Node3 -->
<g id="edge8_Node000003_Node000003" class="edge">
<title>Node3&#45;&gt;Node3</title>
<g id="a_edge8_Node000003_Node000003"><a xlink:title=" ">
<path fill="none" stroke="#63b8ff" d="M409.66,-79.99C403.06,-89.06 413.84,-97.5 442,-97.5 457.4,-97.5 467.6,-94.97 472.61,-91.2"/>
<polygon fill="#63b8ff" stroke="#63b8ff" points="476.04,-91.9 474.11,-81.48 469.12,-90.83 476.04,-91.9"/>
</a>
</g>
</g>
<!-- Node4 -->
<g id="Node000004" class="node">
<title>Node4</title>
<g id="a_Node000004"><a xlink:href="../../db/d19/classml_1_1core_1_1_c_compressed_dictionary_1_1_c_translator.html#ade14a464041834a501408e4fd90d5540" target="_top" xlink:title=" ">
<polygon fill="white" stroke="#666666" points="724.75,-128.5 560.25,-128.5 560.25,-98 724.75,-98 724.75,-128.5"/>
<text text-anchor="start" x="568.25" y="-115" font-family="Helvetica,sans-Serif" font-size="10.00">ml::core::CCompressedDictionary</text>
<text text-anchor="middle" x="642.5" y="-103.75" font-family="Helvetica,sans-Serif" font-size="10.00">::CTranslator::add</text>
</a>
</g>
</g>
<!-- Node3&#45;&gt;Node4 -->
<g id="edge4_Node000003_Node000004" class="edge">
<title>Node3&#45;&gt;Node4</title>
<g id="a_edge4_Node000003_Node000004"><a xlink:title=" ">
<path fill="none" stroke="#63b8ff" d="M506.63,-79.96C525.77,-84.68 546.95,-89.91 566.74,-94.8"/>
<polygon fill="#63b8ff" stroke="#63b8ff" points="565.88,-98.19 576.42,-97.19 567.55,-91.39 565.88,-98.19"/>
</a>
</g>
</g>
<!-- Node6 -->
<g id="Node000006" class="node">
<title>Node6</title>
<g id="a_Node000006"><a xlink:href="../../dd/d75/classml_1_1core_1_1_c_compressed_dictionary.html#a13928a12bd86baccea13712035961802" target="_top" xlink:title="Get a translator for the dictionary.">
<polygon fill="white" stroke="#666666" points="724.75,-79.5 560.25,-79.5 560.25,-49 724.75,-49 724.75,-79.5"/>
<text text-anchor="start" x="568.25" y="-66" font-family="Helvetica,sans-Serif" font-size="10.00">ml::core::CCompressedDictionary</text>
<text text-anchor="middle" x="642.5" y="-54.75" font-family="Helvetica,sans-Serif" font-size="10.00">::translator</text>
</a>
</g>
</g>
<!-- Node3&#45;&gt;Node6 -->
<g id="edge6_Node000003_Node000006" class="edge">
<title>Node3&#45;&gt;Node6</title>
<g id="a_edge6_Node000003_Node000006"><a xlink:title=" ">
<path fill="none" stroke="#63b8ff" d="M524.6,-64.25C532.52,-64.25 540.6,-64.25 548.62,-64.25"/>
<polygon fill="#63b8ff" stroke="#63b8ff" points="548.39,-67.75 558.39,-64.25 548.39,-60.75 548.39,-67.75"/>
</a>
</g>
</g>
<!-- Node7 -->
<g id="Node000007" class="node">
<title>Node7</title>
<g id="a_Node000007"><a xlink:href="../../db/d19/classml_1_1core_1_1_c_compressed_dictionary_1_1_c_translator.html#ac2086c554c00278219bf073d2a5736c2" target="_top" xlink:title=" ">
<polygon fill="white" stroke="#666666" points="724.75,-30.5 560.25,-30.5 560.25,0 724.75,0 724.75,-30.5"/>
<text text-anchor="start" x="568.25" y="-17" font-family="Helvetica,sans-Serif" font-size="10.00">ml::core::CCompressedDictionary</text>
<text text-anchor="middle" x="642.5" y="-5.75" font-family="Helvetica,sans-Serif" font-size="10.00">::CTranslator::word</text>
</a>
</g>
</g>
<!-- Node3&#45;&gt;Node7 -->
<g id="edge7_Node000003_Node000007" class="edge">
<title>Node3&#45;&gt;Node7</title>
<g id="a_edge7_Node000003_Node000007"><a xlink:title=" ">
<path fill="none" stroke="#63b8ff" d="M506.63,-48.54C525.77,-43.82 546.95,-38.59 566.74,-33.7"/>
<polygon fill="#63b8ff" stroke="#63b8ff" points="567.55,-37.11 576.42,-31.31 565.88,-30.31 567.55,-37.11"/>
</a>
</g>
</g>
<!-- Node5 -->
<g id="Node000005" class="node">
<title>Node5</title>
<g id="a_Node000005"><a xlink:href="../../d1/dbe/classml_1_1core_1_1_c_hashing.html#ade1c3a08b72697f0009fa91d14daa719" target="_top" xlink:title=" ">
<polygon fill="white" stroke="#666666" points="868.25,-128.5 760.75,-128.5 760.75,-98 868.25,-98 868.25,-128.5"/>
<text text-anchor="start" x="768.75" y="-115" font-family="Helvetica,sans-Serif" font-size="10.00">ml::core::CHashing</text>
<text text-anchor="middle" x="814.5" y="-103.75" font-family="Helvetica,sans-Serif" font-size="10.00">::safeMurmurHash64</text>
</a>
</g>
</g>
<!-- Node4&#45;&gt;Node5 -->
<g id="edge5_Node000004_Node000005" class="edge">
<title>Node4&#45;&gt;Node5</title>
<g id="a_edge5_Node000004_Node000005"><a xlink:title=" ">
<path fill="none" stroke="#63b8ff" d="M725.01,-113.25C733.14,-113.25 741.32,-113.25 749.23,-113.25"/>
<polygon fill="#63b8ff" stroke="#63b8ff" points="749.1,-116.75 759.1,-113.25 749.1,-109.75 749.1,-116.75"/>
</a>
</g>
</g>
</g>
</svg>

<g id="navigator" transform="translate(0 0)" fill="#404254">
  <rect fill="#f2f5e9" fill-opacity="0.5" stroke="#606060" stroke-width=".5" x="0" y="0" width="60" height="60"/>
  <use id="zoomplus" xlink:href="#zoomPlus" x="17" y="9" onmousedown="handleZoom(evt,'in')"/>
  <use id="zoomminus" xlink:href="#zoomMin" x="42" y="9" onmousedown="handleZoom(evt,'out')"/>
  <use id="reset" xlink:href="#resetDef" x="30" y="36" onmousedown="handleReset()"/>
   <use id="arrowup" xlink:href="#arrowUp" x="0" y="0" onmousedown="handlePan(0,-1)"/>
  <use id="arrowright" xlink:href="#arrowRight" x="0" y="0" onmousedown="handlePan(1,0)"/>
  <use id="arrowdown" xlink:href="#arrowDown" x="0" y="0" onmousedown="handlePan(0,1)"/>
  <use id="arrowleft" xlink:href="#arrowLeft" x="0" y="0" onmousedown="handlePan(-1,0)"/>
</g>
<svg viewBox="0 0 15 15" width="100%" height="30px" preserveAspectRatio="xMaxYMin meet">
 <g id="arrow_out" transform="scale(0.3 0.3)">
  <a xlink:href="classml_1_1model_1_1_c_hierarchical_results_level_set_ab04bdfd371963f8e4b1882119a3cff0c_cgraph_org.svg" target="_base">
   <rect id="button" ry="5" rx="5" y="6" x="6" height="38" width="38"
        fill="#f2f5e9" fill-opacity="0.5" stroke="#606060" stroke-width="1.0"/>
   <path id="arrow"
     d="M 11.500037,31.436501 C 11.940474,20.09759 22.043105,11.32322 32.158766,21.979434 L 37.068811,17.246167 C 37.068811,17.246167 37.088388,32 37.088388,32 L 22.160133,31.978069 C 22.160133,31.978069 26.997745,27.140456 26.997745,27.140456 C 18.528582,18.264221 13.291696,25.230495 11.500037,31.436501 z"
     style="fill:#404040;"/>
  </a>
 </g>
</svg>

<style type='text/css'>
<![CDATA[
[data-mouse-over-selected='false'] { opacity: 0.7; }
[data-mouse-over-selected='true']  { opacity: 1.0; }
]]>
</style>
<script type="application/ecmascript"><![CDATA[
document.addEventListener('DOMContentLoaded', (event) => {
  highlightEdges();
  highlightAdjacentNodes();
});
]]></script>
</svg>
