<?xml version="1.0" encoding="UTF-8" standalone="no"?>
<!DOCTYPE svg PUBLIC "-//W3C//DTD SVG 1.1//EN"
 "http://www.w3.org/Graphics/SVG/1.1/DTD/svg11.dtd">
<!-- Generated by graphviz version 10.0.1 (20240210.2158)
 -->
<!-- Title: ml::core::CCompressOStream Pages: 1 -->
<svg width="1340pt" height="200pt"
 viewBox="0.00 0.00 1340.25 200.48" xmlns="http://www.w3.org/2000/svg" xmlns:xlink="http://www.w3.org/1999/xlink">
<g id="graph0" class="graph" transform="scale(1 1) rotate(0) translate(4 196.48)">
<title>ml::core::CCompressOStream</title>
<!-- Node1 -->
<g id="Node000001" class="node">
<title>Node1</title>
<g id="a_Node000001"><a xlink:title="An output stream that writes to a boost filtering_stream endpoint.">
<polygon fill="#999999" stroke="#666666" points="1070.25,-177.48 921.5,-177.48 921.5,-158.23 1070.25,-158.23 1070.25,-177.48"/>
<text text-anchor="middle" x="995.88" y="-163.98" font-family="Helvetica,sans-Serif" font-size="10.00">ml::core::CCompressOStream</text>
</a>
</g>
</g>
<!-- Node8 -->
<g id="Node000008" class="node">
<title>Node8</title>
<g id="a_Node000008"><a xlink:href="../../df/db9/classml_1_1core_1_1_c_compress_o_stream_1_1_c_compress_thread.html" target="_top" xlink:title=" ">
<polygon fill="white" stroke="#666666" points="1332.25,-120.1 1183.5,-120.1 1183.5,-89.6 1332.25,-89.6 1332.25,-120.1"/>
<text text-anchor="start" x="1191.5" y="-106.6" font-family="Helvetica,sans-Serif" font-size="10.00">ml::core::CCompressOStream</text>
<text text-anchor="middle" x="1257.88" y="-95.35" font-family="Helvetica,sans-Serif" font-size="10.00">::CCompressThread</text>
</a>
</g>
</g>
<!-- Node1&#45;&gt;Node8 -->
<g id="edge13_Node000008_Node000001" class="edge">
<title>Node1&#45;&gt;Node8</title>
<g id="a_edge13_Node000008_Node000001"><a xlink:title=" ">
<path fill="none" stroke="#9a32cd" stroke-dasharray="5,2" d="M1082,-164.61C1109.08,-162.03 1138.9,-157.56 1165.5,-149.85 1188.94,-143.06 1213.66,-130.51 1231.47,-120.39"/>
<polygon fill="#9a32cd" stroke="#9a32cd" points="1081.75,-161.11 1072.09,-165.47 1082.35,-168.09 1081.75,-161.11"/>
</a>
</g>
<text text-anchor="middle" x="1126.88" y="-165.6" font-family="Helvetica,sans-Serif" font-size="10.00" fill="grey"> m_Stream</text>
</g>
<!-- Node2 -->
<g id="Node000002" class="node">
<title>Node2</title>
<g id="a_Node000002"><a xlink:title=" ">
<polygon fill="white" stroke="#666666" points="777.12,-182.48 706.38,-182.48 706.38,-163.23 777.12,-163.23 777.12,-182.48"/>
<text text-anchor="middle" x="741.75" y="-168.98" font-family="Helvetica,sans-Serif" font-size="10.00">std::ostream</text>
</a>
</g>
</g>
<!-- Node2&#45;&gt;Node1 -->
<g id="edge1_Node000001_Node000002" class="edge">
<title>Node2&#45;&gt;Node1</title>
<g id="a_edge1_Node000001_Node000002"><a xlink:title=" ">
<path fill="none" stroke="#63b8ff" d="M788.96,-171.93C825.9,-171.2 878.39,-170.16 921.12,-169.31"/>
<polygon fill="#63b8ff" stroke="#63b8ff" points="788.98,-168.43 779.06,-172.13 789.12,-175.43 788.98,-168.43"/>
</a>
</g>
</g>
<!-- Node3 -->
<g id="Node000003" class="node">
<title>Node3</title>
<g id="a_Node000003"><a xlink:href="../../d1/d43/classml_1_1core_1_1_c_dual_thread_stream_buf.html" target="_top" xlink:title="A stream buffer where reads and writes are processed in different threads.">
<polygon fill="white" stroke="#666666" points="822.5,-145.48 661,-145.48 661,-126.23 822.5,-126.23 822.5,-145.48"/>
<text text-anchor="middle" x="741.75" y="-131.98" font-family="Helvetica,sans-Serif" font-size="10.00">ml::core::CDualThreadStreamBuf</text>
</a>
</g>
</g>
<!-- Node3&#45;&gt;Node1 -->
<g id="edge2_Node000001_Node000003" class="edge">
<title>Node3&#45;&gt;Node1</title>
<g id="a_edge2_Node000001_Node000003"><a xlink:title=" ">
<path fill="none" stroke="#9a32cd" stroke-dasharray="5,2" d="M834.26,-146.08C856.91,-148.73 881.1,-151.67 903.5,-154.6 910.97,-155.58 918.78,-156.64 926.55,-157.73"/>
<polygon fill="#9a32cd" stroke="#9a32cd" points="834.78,-142.61 824.44,-144.93 833.97,-149.57 834.78,-142.61"/>
</a>
</g>
<text text-anchor="middle" x="872" y="-156.6" font-family="Helvetica,sans-Serif" font-size="10.00" fill="grey"> m_StreamBuf</text>
</g>
<!-- Node3&#45;&gt;Node8 -->
<g id="edge14_Node000008_Node000003" class="edge">
<title>Node3&#45;&gt;Node8</title>
<g id="a_edge14_Node000008_Node000003"><a xlink:title=" ">
<path fill="none" stroke="#9a32cd" stroke-dasharray="5,2" d="M834.05,-130.35C933.68,-124.34 1091.22,-114.84 1183.26,-109.29"/>
<polygon fill="#9a32cd" stroke="#9a32cd" points="834.08,-126.84 824.31,-130.93 834.5,-133.82 834.08,-126.84"/>
</a>
</g>
<text text-anchor="middle" x="995.88" y="-127.6" font-family="Helvetica,sans-Serif" font-size="10.00" fill="grey"> m_StreamBuf</text>
</g>
<!-- Node4 -->
<g id="Node000004" class="node">
<title>Node4</title>
<g id="a_Node000004"><a xlink:title=" ">
<polygon fill="white" stroke="#666666" points="461.38,-155.48 382.38,-155.48 382.38,-136.23 461.38,-136.23 461.38,-155.48"/>
<text text-anchor="middle" x="421.88" y="-141.98" font-family="Helvetica,sans-Serif" font-size="10.00">std::streambuf</text>
</a>
</g>
</g>
<!-- Node4&#45;&gt;Node3 -->
<g id="edge3_Node000003_Node000004" class="edge">
<title>Node4&#45;&gt;Node3</title>
<g id="a_edge3_Node000003_Node000004"><a xlink:title=" ">
<path fill="none" stroke="#63b8ff" d="M473.08,-144.27C523.4,-142.69 601.64,-140.23 660.56,-138.37"/>
<polygon fill="#63b8ff" stroke="#63b8ff" points="473.25,-140.76 463.37,-144.58 473.47,-147.76 473.25,-140.76"/>
</a>
</g>
</g>
<!-- Node5 -->
<g id="Node000005" class="node">
<title>Node5</title>
<g id="a_Node000005"><a xlink:href="../../d9/d39/classml_1_1core_1_1_c_mutex.html" target="_top" xlink:title="Wrapper class around pthread mutex.">
<polygon fill="white" stroke="#666666" points="262.5,-109.48 170.75,-109.48 170.75,-90.23 262.5,-90.23 262.5,-109.48"/>
<text text-anchor="middle" x="216.62" y="-95.98" font-family="Helvetica,sans-Serif" font-size="10.00">ml::core::CMutex</text>
</a>
</g>
</g>
<!-- Node5&#45;&gt;Node3 -->
<g id="edge4_Node000003_Node000005" class="edge">
<title>Node5&#45;&gt;Node3</title>
<g id="a_edge4_Node000003_Node000005"><a xlink:title=" ">
<path fill="none" stroke="#9a32cd" stroke-dasharray="5,2" d="M274.22,-102.88C328.1,-105.84 411.48,-110.62 483.75,-115.6 543.02,-119.69 609.93,-124.98 660.62,-129.13"/>
<polygon fill="#9a32cd" stroke="#9a32cd" points="274.53,-99.39 264.36,-102.34 274.15,-106.38 274.53,-99.39"/>
</a>
</g>
<text text-anchor="middle" x="421.88" y="-117.6" font-family="Helvetica,sans-Serif" font-size="10.00" fill="grey"> m_IntermediateBufferMutex</text>
</g>
<!-- Node7 -->
<g id="Node000007" class="node">
<title>Node7</title>
<g id="a_Node000007"><a xlink:href="../../d1/d57/classml_1_1core_1_1_c_condition.html" target="_top" xlink:title="Wrapper around pthread_cond_wait.">
<polygon fill="white" stroke="#666666" points="474.88,-192.48 368.88,-192.48 368.88,-173.23 474.88,-173.23 474.88,-192.48"/>
<text text-anchor="middle" x="421.88" y="-178.98" font-family="Helvetica,sans-Serif" font-size="10.00">ml::core::CCondition</text>
</a>
</g>
</g>
<!-- Node5&#45;&gt;Node7 -->
<g id="edge8_Node000007_Node000005" class="edge">
<title>Node5&#45;&gt;Node7</title>
<g id="a_edge8_Node000007_Node000005"><a xlink:title=" ">
<path fill="none" stroke="#9a32cd" stroke-dasharray="5,2" d="M256.08,-113.9C281.13,-123.59 314.2,-137.44 342,-152.6 350.5,-157.23 351.26,-160.71 360,-164.85 366.37,-167.87 373.37,-170.51 380.27,-172.76"/>
<polygon fill="#9a32cd" stroke="#9a32cd" points="257.53,-110.71 246.94,-110.41 255.04,-117.25 257.53,-110.71"/>
</a>
</g>
<text text-anchor="middle" x="316.12" y="-154.6" font-family="Helvetica,sans-Serif" font-size="10.00" fill="grey"> m_Mutex</text>
</g>
<!-- Node9 -->
<g id="Node000009" class="node">
<title>Node9</title>
<g id="a_Node000009"><a xlink:href="../../dd/d6b/classml_1_1core_1_1_c_thread.html" target="_top" xlink:title="Basic wrapper class around pthread_create etc.">
<polygon fill="white" stroke="#666666" points="469.25,-68.48 374.5,-68.48 374.5,-49.23 469.25,-49.23 469.25,-68.48"/>
<text text-anchor="middle" x="421.88" y="-54.98" font-family="Helvetica,sans-Serif" font-size="10.00">ml::core::CThread</text>
</a>
</g>
</g>
<!-- Node5&#45;&gt;Node9 -->
<g id="edge12_Node000009_Node000005" class="edge">
<title>Node5&#45;&gt;Node9</title>
<g id="a_edge12_Node000009_Node000005"><a xlink:title=" ">
<path fill="none" stroke="#9a32cd" stroke-dasharray="5,2" d="M266.54,-87.04C274.45,-85.12 282.56,-83.23 290.25,-81.6 317.95,-75.72 349.18,-70.24 374.16,-66.13"/>
<polygon fill="#9a32cd" stroke="#9a32cd" points="265.9,-83.59 257.04,-89.39 267.59,-90.38 265.9,-83.59"/>
</a>
</g>
<text text-anchor="middle" x="316.12" y="-83.6" font-family="Helvetica,sans-Serif" font-size="10.00" fill="grey"> m_IdMutex</text>
</g>
<!-- Node6 -->
<g id="Node000006" class="node">
<title>Node6</title>
<g id="a_Node000006"><a xlink:href="../../d0/d45/classml_1_1core_1_1_c_non_copyable.html" target="_top" xlink:title="Equivalent to boost::noncopyable.">
<polygon fill="white" stroke="#666666" points="124,-86.48 0,-86.48 0,-67.23 124,-67.23 124,-86.48"/>
<text text-anchor="middle" x="62" y="-72.98" font-family="Helvetica,sans-Serif" font-size="10.00">ml::core::CNonCopyable</text>
</a>
</g>
</g>
<!-- Node6&#45;&gt;Node5 -->
<g id="edge5_Node000005_Node000006" class="edge">
<title>Node6&#45;&gt;Node5</title>
<g id="a_edge5_Node000005_Node000006"><a xlink:title=" ">
<path fill="none" stroke="#8b1a1a" d="M135.52,-87.78C147.41,-89.57 159.42,-91.38 170.39,-93.03"/>
<polygon fill="#8b1a1a" stroke="#8b1a1a" points="136.11,-84.33 125.7,-86.3 135.06,-91.25 136.11,-84.33"/>
</a>
</g>
</g>
<!-- Node6&#45;&gt;Node7 -->
<g id="edge7_Node000007_Node000006" class="edge">
<title>Node6&#45;&gt;Node7</title>
<g id="a_edge7_Node000007_Node000006"><a xlink:title=" ">
<path fill="none" stroke="#8b1a1a" d="M95.48,-91.45C114.45,-99.8 138.93,-110.29 161,-118.85 217.71,-140.84 231.16,-149.41 290.25,-163.85 315.74,-170.08 344.56,-174.54 368.63,-177.56"/>
<polygon fill="#8b1a1a" stroke="#8b1a1a" points="96.95,-88.27 86.39,-87.42 94.11,-94.67 96.95,-88.27"/>
</a>
</g>
</g>
<!-- Node6&#45;&gt;Node9 -->
<g id="edge11_Node000009_Node000006" class="edge">
<title>Node6&#45;&gt;Node9</title>
<g id="a_edge11_Node000009_Node000006"><a xlink:title=" ">
<path fill="none" stroke="#8b1a1a" d="M135.24,-73.22C206.56,-69.63 313.5,-64.25 374.27,-61.19"/>
<polygon fill="#8b1a1a" stroke="#8b1a1a" points="135.44,-69.7 125.63,-73.7 135.79,-76.69 135.44,-69.7"/>
</a>
</g>
</g>
<!-- Node11 -->
<g id="Node000011" class="node">
<title>Node11</title>
<g id="a_Node000011"><a xlink:href="../../d8/d48/classml_1_1core_1_1_c_data_adder.html" target="_top" xlink:title="Abstract interface for data adder.">
<polygon fill="white" stroke="#666666" points="272.25,-19.48 161,-19.48 161,-0.23 272.25,-0.23 272.25,-19.48"/>
<text text-anchor="middle" x="216.62" y="-5.98" font-family="Helvetica,sans-Serif" font-size="10.00">ml::core::CDataAdder</text>
</a>
</g>
</g>
<!-- Node6&#45;&gt;Node11 -->
<g id="edge17_Node000011_Node000006" class="edge">
<title>Node6&#45;&gt;Node11</title>
<g id="a_edge17_Node000011_Node000006"><a xlink:title=" ">
<path fill="none" stroke="#8b1a1a" d="M88.89,-61.19C104.03,-52.44 123.71,-41.73 142,-33.85 154.22,-28.58 168,-23.8 180.31,-19.92"/>
<polygon fill="#8b1a1a" stroke="#8b1a1a" points="87.36,-58.03 80.51,-66.12 90.9,-64.07 87.36,-58.03"/>
</a>
</g>
</g>
<!-- Node7&#45;&gt;Node3 -->
<g id="edge6_Node000003_Node000007" class="edge">
<title>Node7&#45;&gt;Node3</title>
<g id="a_edge6_Node000003_Node000007"><a xlink:title=" ">
<path fill="none" stroke="#9a32cd" stroke-dasharray="5,2" d="M486.49,-176.41C530.56,-171.61 590.5,-164.43 643,-155.85 660.1,-153.06 678.75,-149.4 695.14,-145.97"/>
<polygon fill="#9a32cd" stroke="#9a32cd" points="486.15,-172.92 476.58,-177.47 486.9,-179.88 486.15,-172.92"/>
</a>
</g>
<text text-anchor="middle" x="572.38" y="-175.6" font-family="Helvetica,sans-Serif" font-size="10.00" fill="grey"> m_IntermediateBufferCondition</text>
</g>
<!-- Node8&#45;&gt;Node1 -->
<g id="edge9_Node000001_Node000008" class="edge">
<title>Node8&#45;&gt;Node1</title>
<g id="a_edge9_Node000001_Node000008"><a xlink:title=" ">
<path fill="none" stroke="#9a32cd" stroke-dasharray="5,2" d="M1172.05,-119.9C1145.11,-125.19 1115.3,-131.59 1088.25,-138.6 1066.97,-144.12 1043.34,-151.72 1025.44,-157.79"/>
<polygon fill="#9a32cd" stroke="#9a32cd" points="1172.37,-123.4 1181.52,-118.06 1171.04,-116.53 1172.37,-123.4"/>
</a>
</g>
<text text-anchor="middle" x="1126.88" y="-140.6" font-family="Helvetica,sans-Serif" font-size="10.00" fill="grey"> m_UploadThread</text>
</g>
<!-- Node9&#45;&gt;Node8 -->
<g id="edge10_Node000008_Node000009" class="edge">
<title>Node9&#45;&gt;Node8</title>
<g id="a_edge10_Node000008_Node000009"><a xlink:title=" ">
<path fill="none" stroke="#63b8ff" d="M480.98,-62.06C628.9,-70.21 1019.59,-91.76 1183.18,-100.79"/>
<polygon fill="#63b8ff" stroke="#63b8ff" points="481.19,-58.56 471.01,-61.51 480.8,-65.55 481.19,-58.56"/>
</a>
</g>
</g>
<!-- Node10 -->
<g id="Node000010" class="node">
<title>Node10</title>
<g id="a_Node000010"><a xlink:href="../../d7/de1/classml_1_1core_1_1_c_state_compressor_1_1_c_chunk_filter.html" target="_top" xlink:title=" ">
<polygon fill="white" stroke="#666666" points="643,-34.1 501.75,-34.1 501.75,-3.6 643,-3.6 643,-34.1"/>
<text text-anchor="start" x="509.75" y="-20.6" font-family="Helvetica,sans-Serif" font-size="10.00">ml::core::CStateCompressor</text>
<text text-anchor="middle" x="572.38" y="-9.35" font-family="Helvetica,sans-Serif" font-size="10.00">::CChunkFilter</text>
</a>
</g>
</g>
<!-- Node10&#45;&gt;Node8 -->
<g id="edge15_Node000008_Node000010" class="edge">
<title>Node10&#45;&gt;Node8</title>
<g id="a_edge15_Node000008_Node000010"><a xlink:title=" ">
<path fill="none" stroke="#9a32cd" stroke-dasharray="5,2" d="M654.69,-9.09C771.07,1.94 990.43,11.7 1165.5,-44.85 1194.03,-54.07 1222.15,-74.76 1239.5,-89.26"/>
<polygon fill="#9a32cd" stroke="#9a32cd" points="654.52,-5.59 644.91,-10.04 655.21,-12.55 654.52,-5.59"/>
</a>
</g>
<text text-anchor="middle" x="872" y="-4.6" font-family="Helvetica,sans-Serif" font-size="10.00" fill="grey"> m_FilterSink</text>
</g>
<!-- Node11&#45;&gt;Node10 -->
<g id="edge16_Node000010_Node000011" class="edge">
<title>Node11&#45;&gt;Node10</title>
<g id="a_edge16_Node000010_Node000011"><a xlink:title=" ">
<path fill="none" stroke="#9a32cd" stroke-dasharray="5,2" d="M283.72,-11.53C345.75,-13.11 438.19,-15.46 501.43,-17.07"/>
<polygon fill="#9a32cd" stroke="#9a32cd" points="284.11,-8.04 274.02,-11.29 283.93,-15.04 284.11,-8.04"/>
</a>
</g>
<text text-anchor="middle" x="316.12" y="-14.6" font-family="Helvetica,sans-Serif" font-size="10.00" fill="grey"> m_Adder</text>
</g>
</g>
</svg>
