<?xml version="1.0" encoding="UTF-8" standalone="no"?>
<!DOCTYPE svg PUBLIC "-//W3C//DTD SVG 1.1//EN"
 "http://www.w3.org/Graphics/SVG/1.1/DTD/svg11.dtd">
<!-- Generated by graphviz version 10.0.1 (20240210.2158)
 -->
<!-- Title: ml::maths::common::quantile Pages: 1 -->
<svg width="704pt" height="707pt"
 viewBox="0.00 0.00 703.50 707.25" xmlns="http://www.w3.org/2000/svg" xmlns:xlink="http://www.w3.org/1999/xlink">
<g id="graph0" class="graph" transform="scale(1 1) rotate(0) translate(4 703.25)">
<title>ml::maths::common::quantile</title>
<!-- Node1 -->
<g id="Node000001" class="node">
<title>Node1</title>
<g id="a_Node000001"><a xlink:title="Compute the q&#39;th quantile for distribution.">
<polygon fill="#999999" stroke="#666666" points="695.5,-457.88 586.5,-457.88 586.5,-427.38 695.5,-427.38 695.5,-457.88"/>
<text text-anchor="start" x="594.5" y="-444.38" font-family="Helvetica,sans-Serif" font-size="10.00">ml::maths::common::</text>
<text text-anchor="middle" x="641" y="-433.12" font-family="Helvetica,sans-Serif" font-size="10.00">quantile</text>
</a>
</g>
</g>
<!-- Node2 -->
<g id="Node000002" class="node">
<title>Node2</title>
<g id="a_Node000002"><a xlink:href="../../db/d32/_c_q_digest_test_8cc.html#a342185518fbfd6db4dcfb6bc323c0879" target="_top" xlink:title=" ">
<polygon fill="white" stroke="#666666" points="532.12,-699.25 384.88,-699.25 384.88,-680 532.12,-680 532.12,-699.25"/>
<text text-anchor="middle" x="458.5" y="-685.75" font-family="Helvetica,sans-Serif" font-size="10.00">BOOST_AUTO_TEST_CASE</text>
</a>
</g>
</g>
<!-- Node1&#45;&gt;Node2 -->
<g id="edge1_Node000001_Node000002" class="edge">
<title>Node1&#45;&gt;Node2</title>
<g id="a_edge1_Node000001_Node000002"><a xlink:title=" ">
<path fill="none" stroke="#63b8ff" d="M637.66,-469.74C631.96,-518.2 612.84,-619.46 550.5,-671.62 545.07,-676.17 538.81,-679.69 532.18,-682.39"/>
<polygon fill="#63b8ff" stroke="#63b8ff" points="641.14,-470.17 638.71,-459.86 634.17,-469.43 641.14,-470.17"/>
</a>
</g>
</g>
<!-- Node3 -->
<g id="Node000003" class="node">
<title>Node3</title>
<g id="a_Node000003"><a xlink:href="../../de/de4/_c_data_frame_utils_test_8cc.html#af1d472a8beddac219eef733199c2cc37" target="_top" xlink:title=" ">
<polygon fill="white" stroke="#666666" points="532.12,-662.25 384.88,-662.25 384.88,-643 532.12,-643 532.12,-662.25"/>
<text text-anchor="middle" x="458.5" y="-648.75" font-family="Helvetica,sans-Serif" font-size="10.00">BOOST_AUTO_TEST_CASE</text>
</a>
</g>
</g>
<!-- Node1&#45;&gt;Node3 -->
<g id="edge2_Node000001_Node000003" class="edge">
<title>Node1&#45;&gt;Node3</title>
<g id="a_edge2_Node000001_Node000003"><a xlink:title=" ">
<path fill="none" stroke="#63b8ff" d="M635.42,-469.53C626.77,-511.68 603.84,-592.8 550.5,-634.62 545.05,-638.9 538.86,-642.24 532.34,-644.85"/>
<polygon fill="#63b8ff" stroke="#63b8ff" points="638.85,-470.22 637.3,-459.74 631.98,-468.9 638.85,-470.22"/>
</a>
</g>
</g>
<!-- Node4 -->
<g id="Node000004" class="node">
<title>Node4</title>
<g id="a_Node000004"><a xlink:href="../../de/de4/_c_data_frame_utils_test_8cc.html#ac04f50b5356c12127872ae7f2156df61" target="_top" xlink:title=" ">
<polygon fill="white" stroke="#666666" points="532.12,-625.25 384.88,-625.25 384.88,-606 532.12,-606 532.12,-625.25"/>
<text text-anchor="middle" x="458.5" y="-611.75" font-family="Helvetica,sans-Serif" font-size="10.00">BOOST_AUTO_TEST_CASE</text>
</a>
</g>
</g>
<!-- Node1&#45;&gt;Node4 -->
<g id="edge3_Node000001_Node000004" class="edge">
<title>Node1&#45;&gt;Node4</title>
<g id="a_edge3_Node000001_Node000004"><a xlink:title=" ">
<path fill="none" stroke="#63b8ff" d="M632.29,-469.19C620.63,-504.4 595,-565.78 550.5,-597.62 545,-601.56 538.85,-604.69 532.42,-607.17"/>
<polygon fill="#63b8ff" stroke="#63b8ff" points="635.59,-470.37 635.26,-459.78 628.91,-468.26 635.59,-470.37"/>
</a>
</g>
</g>
<!-- Node5 -->
<g id="Node000005" class="node">
<title>Node5</title>
<g id="a_Node000005"><a xlink:href="../../db/dcc/_c_anomaly_score_test_8cc.html#a99a610f377a192869df12de832f96767" target="_top" xlink:title=" ">
<polygon fill="white" stroke="#666666" points="532.12,-588.25 384.88,-588.25 384.88,-569 532.12,-569 532.12,-588.25"/>
<text text-anchor="middle" x="458.5" y="-574.75" font-family="Helvetica,sans-Serif" font-size="10.00">BOOST_AUTO_TEST_CASE</text>
</a>
</g>
</g>
<!-- Node1&#45;&gt;Node5 -->
<g id="edge4_Node000001_Node000005" class="edge">
<title>Node1&#45;&gt;Node5</title>
<g id="a_edge4_Node000001_Node000005"><a xlink:title=" ">
<path fill="none" stroke="#63b8ff" d="M627.77,-468.19C613.29,-495.58 586.5,-538.13 550.5,-560.62 544.9,-564.12 538.76,-566.96 532.4,-569.27"/>
<polygon fill="#63b8ff" stroke="#63b8ff" points="630.77,-470.01 632.2,-459.52 624.54,-466.83 630.77,-470.01"/>
</a>
</g>
</g>
<!-- Node6 -->
<g id="Node000006" class="node">
<title>Node6</title>
<g id="a_Node000006"><a xlink:href="../../db/dcc/_c_anomaly_score_test_8cc.html#a3762211201633346d940bcce73429185" target="_top" xlink:title=" ">
<polygon fill="white" stroke="#666666" points="532.12,-551.25 384.88,-551.25 384.88,-532 532.12,-532 532.12,-551.25"/>
<text text-anchor="middle" x="458.5" y="-537.75" font-family="Helvetica,sans-Serif" font-size="10.00">BOOST_AUTO_TEST_CASE</text>
</a>
</g>
</g>
<!-- Node1&#45;&gt;Node6 -->
<g id="edge5_Node000001_Node000006" class="edge">
<title>Node1&#45;&gt;Node6</title>
<g id="a_edge5_Node000001_Node000006"><a xlink:title=" ">
<path fill="none" stroke="#63b8ff" d="M620.1,-466.67C603.44,-485.16 578.02,-509.8 550.5,-523.62 544.17,-526.81 537.32,-529.42 530.33,-531.58"/>
<polygon fill="#63b8ff" stroke="#63b8ff" points="622.59,-469.13 626.55,-459.3 617.33,-464.52 622.59,-469.13"/>
</a>
</g>
</g>
<!-- Node7 -->
<g id="Node000007" class="node">
<title>Node7</title>
<g id="a_Node000007"><a xlink:href="../../d8/d5a/_c_log_t_distribution_test_8cc.html#aa780a7daebf57fb8ecf4ea8055217e7c" target="_top" xlink:title=" ">
<polygon fill="white" stroke="#666666" points="532.12,-514.25 384.88,-514.25 384.88,-495 532.12,-495 532.12,-514.25"/>
<text text-anchor="middle" x="458.5" y="-500.75" font-family="Helvetica,sans-Serif" font-size="10.00">BOOST_AUTO_TEST_CASE</text>
</a>
</g>
</g>
<!-- Node1&#45;&gt;Node7 -->
<g id="edge6_Node000001_Node000007" class="edge">
<title>Node1&#45;&gt;Node7</title>
<g id="a_edge6_Node000001_Node000007"><a xlink:title=" ">
<path fill="none" stroke="#63b8ff" d="M603.09,-463.48C587.29,-471.69 568.39,-480.57 550.5,-486.62 541.35,-489.72 531.48,-492.35 521.75,-494.57"/>
<polygon fill="#63b8ff" stroke="#63b8ff" points="604.45,-466.72 611.64,-458.94 601.17,-460.54 604.45,-466.72"/>
</a>
</g>
</g>
<!-- Node8 -->
<g id="Node000008" class="node">
<title>Node8</title>
<g id="a_Node000008"><a xlink:href="../../d8/d5a/_c_log_t_distribution_test_8cc.html#a4afeda83b720e8029d1db70cd82e2ec6" target="_top" xlink:title=" ">
<polygon fill="white" stroke="#666666" points="532.12,-477.25 384.88,-477.25 384.88,-458 532.12,-458 532.12,-477.25"/>
<text text-anchor="middle" x="458.5" y="-463.75" font-family="Helvetica,sans-Serif" font-size="10.00">BOOST_AUTO_TEST_CASE</text>
</a>
</g>
</g>
<!-- Node1&#45;&gt;Node8 -->
<g id="edge7_Node000001_Node000008" class="edge">
<title>Node1&#45;&gt;Node8</title>
<g id="a_edge7_Node000001_Node000008"><a xlink:title=" ">
<path fill="none" stroke="#63b8ff" d="M574.95,-451.63C561.12,-453.55 546.44,-455.58 532.34,-457.54"/>
<polygon fill="#63b8ff" stroke="#63b8ff" points="575.41,-455.1 584.83,-450.27 574.45,-448.17 575.41,-455.1"/>
</a>
</g>
</g>
<!-- Node9 -->
<g id="Node000009" class="node">
<title>Node9</title>
<g id="a_Node000009"><a xlink:href="../../dd/d66/classml_1_1maths_1_1analytics_1_1_c_boosted_tree_impl.html#acbc195fb61730ab3879bac6165a4e861" target="_top" xlink:title="Get the candidate splits values for each feature.">
<polygon fill="white" stroke="#666666" points="534.38,-439.5 382.62,-439.5 382.62,-397.75 534.38,-397.75 534.38,-439.5"/>
<text text-anchor="start" x="390.62" y="-426" font-family="Helvetica,sans-Serif" font-size="10.00">ml::maths::analytics</text>
<text text-anchor="start" x="390.62" y="-414.75" font-family="Helvetica,sans-Serif" font-size="10.00">::CBoostedTreeImpl::candidate</text>
<text text-anchor="middle" x="458.5" y="-403.5" font-family="Helvetica,sans-Serif" font-size="10.00">Splits</text>
</a>
</g>
</g>
<!-- Node1&#45;&gt;Node9 -->
<g id="edge8_Node000001_Node000009" class="edge">
<title>Node1&#45;&gt;Node9</title>
<g id="a_edge8_Node000001_Node000009"><a xlink:title=" ">
<path fill="none" stroke="#63b8ff" d="M575.05,-433.99C561.96,-432.25 548.09,-430.4 534.67,-428.62"/>
<polygon fill="#63b8ff" stroke="#63b8ff" points="574.46,-437.44 584.83,-435.29 575.38,-430.5 574.46,-437.44"/>
</a>
</g>
</g>
<!-- Node10 -->
<g id="Node000010" class="node">
<title>Node10</title>
<g id="a_Node000010"><a xlink:href="../../dd/d55/classml_1_1maths_1_1common_1_1_c_tools.html#a149c9aa91b8ebefa1a885258523607f7" target="_top" xlink:title=" ">
<polygon fill="white" stroke="#666666" points="524.25,-379.88 392.75,-379.88 392.75,-349.38 524.25,-349.38 524.25,-379.88"/>
<text text-anchor="start" x="400.75" y="-366.38" font-family="Helvetica,sans-Serif" font-size="10.00">ml::maths::common::</text>
<text text-anchor="middle" x="458.5" y="-355.12" font-family="Helvetica,sans-Serif" font-size="10.00">CTools::differentialEntropy</text>
</a>
</g>
</g>
<!-- Node1&#45;&gt;Node10 -->
<g id="edge9_Node000001_Node000010" class="edge">
<title>Node1&#45;&gt;Node10</title>
<g id="a_edge9_Node000001_Node000010"><a xlink:title=" ">
<path fill="none" stroke="#63b8ff" d="M608.88,-420.83C592.19,-409.93 570.9,-397.26 550.5,-388.62 542.22,-385.12 533.3,-382.02 524.4,-379.3"/>
<polygon fill="#63b8ff" stroke="#63b8ff" points="606.62,-423.53 616.88,-426.16 610.5,-417.71 606.62,-423.53"/>
</a>
</g>
</g>
<!-- Node11 -->
<g id="Node000011" class="node">
<title>Node11</title>
<g id="a_Node000011"><a xlink:href="../../d5/dd0/classml_1_1maths_1_1common_1_1_c_log_normal_mean_prec_conjugate.html#ae3ef2decd4c12fca2c86d239e42d5457" target="_top" xlink:title=" ">
<polygon fill="white" stroke="#666666" points="550.5,-331.5 366.5,-331.5 366.5,-289.75 550.5,-289.75 550.5,-331.5"/>
<text text-anchor="start" x="374.5" y="-318" font-family="Helvetica,sans-Serif" font-size="10.00">ml::maths::common::</text>
<text text-anchor="start" x="374.5" y="-306.75" font-family="Helvetica,sans-Serif" font-size="10.00">CLogNormalMeanPrecConjugate</text>
<text text-anchor="middle" x="458.5" y="-295.5" font-family="Helvetica,sans-Serif" font-size="10.00">::marginalLikelihoodConfidenceInterval</text>
</a>
</g>
</g>
<!-- Node1&#45;&gt;Node11 -->
<g id="edge10_Node000001_Node000011" class="edge">
<title>Node1&#45;&gt;Node11</title>
<g id="a_edge10_Node000001_Node000011"><a xlink:title=" ">
<path fill="none" stroke="#63b8ff" d="M623.98,-417.73C607.95,-394.69 581.31,-361.01 550.5,-340.62 545.64,-337.41 540.42,-334.52 535.01,-331.91"/>
<polygon fill="#63b8ff" stroke="#63b8ff" points="621.02,-419.61 629.52,-425.93 626.82,-415.68 621.02,-419.61"/>
</a>
</g>
</g>
<!-- Node14 -->
<g id="Node000014" class="node">
<title>Node14</title>
<g id="a_Node000014"><a xlink:href="../../d6/dd5/namespaceml_1_1maths_1_1common.html#ad77aec8a516fe210bf7e6e10297f04f2" target="_top" xlink:title=" ">
<polygon fill="white" stroke="#666666" points="525,-271.25 392,-271.25 392,-252 525,-252 525,-271.25"/>
<text text-anchor="middle" x="458.5" y="-257.75" font-family="Helvetica,sans-Serif" font-size="10.00">ml::maths::common::mode</text>
</a>
</g>
</g>
<!-- Node1&#45;&gt;Node14 -->
<g id="edge13_Node000001_Node000014" class="edge">
<title>Node1&#45;&gt;Node14</title>
<g id="a_edge13_Node000001_Node000014"><a xlink:title=" ">
<path fill="none" stroke="#63b8ff" d="M633.08,-416.54C622,-380.13 596.69,-314.72 550.5,-280.62 542.97,-275.07 534.18,-271.05 525.09,-268.16"/>
<polygon fill="#63b8ff" stroke="#63b8ff" points="629.62,-417.18 635.76,-425.81 636.34,-415.23 629.62,-417.18"/>
</a>
</g>
</g>
<!-- Node15 -->
<g id="Node000015" class="node">
<title>Node15</title>
<g id="a_Node000015"><a xlink:href="../../d4/d6b/classml_1_1model_1_1_c_anomaly_score_1_1_c_normalizer.html#ae130e54ae625378127bfb16d3ca047a9" target="_top" xlink:title=" ">
<polygon fill="white" stroke="#666666" points="526.5,-233.88 390.5,-233.88 390.5,-203.38 526.5,-203.38 526.5,-233.88"/>
<text text-anchor="start" x="398.5" y="-220.38" font-family="Helvetica,sans-Serif" font-size="10.00">ml::model::CAnomalyScore</text>
<text text-anchor="middle" x="458.5" y="-209.12" font-family="Helvetica,sans-Serif" font-size="10.00">::CNormalizer::normalize</text>
</a>
</g>
</g>
<!-- Node1&#45;&gt;Node15 -->
<g id="edge14_Node000001_Node000015" class="edge">
<title>Node1&#45;&gt;Node15</title>
<g id="a_edge14_Node000001_Node000015"><a xlink:title=" ">
<path fill="none" stroke="#63b8ff" d="M635.57,-415.63C627.04,-372.48 604.19,-288.21 550.5,-242.62 543.53,-236.7 535.25,-232.22 526.57,-228.84"/>
<polygon fill="#63b8ff" stroke="#63b8ff" points="632.11,-416.2 637.37,-425.4 639,-414.93 632.11,-416.2"/>
</a>
</g>
</g>
<!-- Node27 -->
<g id="Node000027" class="node">
<title>Node27</title>
<g id="a_Node000027"><a xlink:href="../../d0/d80/structml_1_1maths_1_1common_1_1anonymous__namespace_02_c_mixture_distribution_8cc_03_1_1_s_quantile.html#a40cb701085c415d924d646abc7479dd9" target="_top" xlink:title=" ">
<polygon fill="white" stroke="#666666" points="524.25,-185.12 392.75,-185.12 392.75,-132.12 524.25,-132.12 524.25,-185.12"/>
<text text-anchor="start" x="400.75" y="-171.62" font-family="Helvetica,sans-Serif" font-size="10.00">ml::maths::common::</text>
<text text-anchor="start" x="400.75" y="-160.38" font-family="Helvetica,sans-Serif" font-size="10.00">anonymous_namespace</text>
<text text-anchor="start" x="400.75" y="-149.12" font-family="Helvetica,sans-Serif" font-size="10.00">{CMixtureDistribution</text>
<text text-anchor="middle" x="458.5" y="-137.88" font-family="Helvetica,sans-Serif" font-size="10.00">::cc}::SQuantile::operator()</text>
</a>
</g>
</g>
<!-- Node1&#45;&gt;Node27 -->
<g id="edge26_Node000001_Node000027" class="edge">
<title>Node1&#45;&gt;Node27</title>
<g id="a_edge26_Node000001_Node000027"><a xlink:title=" ">
<path fill="none" stroke="#63b8ff" d="M637.47,-415.51C631.39,-365.38 611.61,-257.62 550.5,-194.62 543.17,-187.06 534.05,-181.05 524.44,-176.29"/>
<polygon fill="#63b8ff" stroke="#63b8ff" points="633.99,-415.89 638.57,-425.44 640.94,-415.12 633.99,-415.89"/>
</a>
</g>
</g>
<!-- Node28 -->
<g id="Node000028" class="node">
<title>Node28</title>
<g id="a_Node000028"><a xlink:href="../../d6/dd5/namespaceml_1_1maths_1_1common.html#ad68b0196d3b447bdea1c1e22e61e652b" target="_top" xlink:title=" ">
<polygon fill="white" stroke="#666666" points="513,-113.88 404,-113.88 404,-83.38 513,-83.38 513,-113.88"/>
<text text-anchor="start" x="412" y="-100.38" font-family="Helvetica,sans-Serif" font-size="10.00">ml::maths::common::</text>
<text text-anchor="middle" x="458.5" y="-89.12" font-family="Helvetica,sans-Serif" font-size="10.00">quantile</text>
</a>
</g>
</g>
<!-- Node1&#45;&gt;Node28 -->
<g id="edge27_Node000001_Node000028" class="edge">
<title>Node1&#45;&gt;Node28</title>
<g id="a_edge27_Node000001_Node000028"><a xlink:title=" ">
<path fill="none" stroke="#63b8ff" d="M640.73,-415.77C640.87,-354.83 632.34,-205.02 550.5,-123.62 540.51,-113.69 526.96,-107.61 513.37,-103.91"/>
<polygon fill="#63b8ff" stroke="#63b8ff" points="637.24,-415.5 640.62,-425.54 644.24,-415.58 637.24,-415.5"/>
</a>
</g>
</g>
<!-- Node12 -->
<g id="Node000012" class="node">
<title>Node12</title>
<g id="a_Node000012"><a xlink:href="../../d7/dc7/_c_log_normal_mean_prec_conjugate_test_8cc.html#a55bbf7636623fd2a7f99058f166e8005" target="_top" xlink:title=" ">
<polygon fill="white" stroke="#666666" points="330.5,-395.25 183.25,-395.25 183.25,-376 330.5,-376 330.5,-395.25"/>
<text text-anchor="middle" x="256.88" y="-381.75" font-family="Helvetica,sans-Serif" font-size="10.00">BOOST_AUTO_TEST_CASE</text>
</a>
</g>
</g>
<!-- Node11&#45;&gt;Node12 -->
<g id="edge11_Node000011_Node000012" class="edge">
<title>Node11&#45;&gt;Node12</title>
<g id="a_edge11_Node000011_Node000012"><a xlink:title=" ">
<path fill="none" stroke="#63b8ff" d="M375.24,-336.35C372.26,-337.72 369.33,-339.15 366.5,-340.62 348.77,-349.88 348.57,-359.05 330.5,-367.62 323.93,-370.74 316.76,-373.36 309.56,-375.54"/>
<polygon fill="#63b8ff" stroke="#63b8ff" points="376.37,-339.67 384.16,-332.49 373.59,-333.24 376.37,-339.67"/>
</a>
</g>
</g>
<!-- Node13 -->
<g id="Node000013" class="node">
<title>Node13</title>
<g id="a_Node000013"><a xlink:href="../../d7/dc7/_c_log_normal_mean_prec_conjugate_test_8cc.html#a8189fb6a14d4275d48dcc0dc1207fc17" target="_top" xlink:title=" ">
<polygon fill="white" stroke="#666666" points="330.5,-358.25 183.25,-358.25 183.25,-339 330.5,-339 330.5,-358.25"/>
<text text-anchor="middle" x="256.88" y="-344.75" font-family="Helvetica,sans-Serif" font-size="10.00">BOOST_AUTO_TEST_CASE</text>
</a>
</g>
</g>
<!-- Node11&#45;&gt;Node13 -->
<g id="edge12_Node000011_Node000013" class="edge">
<title>Node11&#45;&gt;Node13</title>
<g id="a_edge12_Node000011_Node000013"><a xlink:title=" ">
<path fill="none" stroke="#63b8ff" d="M355.06,-330.12C339.82,-333.03 324.66,-335.91 311,-338.51"/>
<polygon fill="#63b8ff" stroke="#63b8ff" points="355.5,-333.6 364.67,-328.3 354.19,-326.73 355.5,-333.6"/>
</a>
</g>
</g>
<!-- Node16 -->
<g id="Node000016" class="node">
<title>Node16</title>
<g id="a_Node000016"><a xlink:href="../../db/dcc/_c_anomaly_score_test_8cc.html#ae114264c7ba113ad53554ceb8c0d6160" target="_top" xlink:title=" ">
<polygon fill="white" stroke="#666666" points="330.5,-321.25 183.25,-321.25 183.25,-302 330.5,-302 330.5,-321.25"/>
<text text-anchor="middle" x="256.88" y="-307.75" font-family="Helvetica,sans-Serif" font-size="10.00">BOOST_AUTO_TEST_CASE</text>
</a>
</g>
</g>
<!-- Node15&#45;&gt;Node16 -->
<g id="edge15_Node000015_Node000016" class="edge">
<title>Node15&#45;&gt;Node16</title>
<g id="a_edge15_Node000015_Node000016"><a xlink:title=" ">
<path fill="none" stroke="#63b8ff" d="M379.66,-235.04C375.04,-237.25 370.61,-239.77 366.5,-242.62 343.71,-258.45 353.41,-277.97 330.5,-293.62 325.89,-296.78 320.78,-299.38 315.46,-301.52"/>
<polygon fill="#63b8ff" stroke="#63b8ff" points="380.77,-238.37 388.61,-231.24 378.04,-231.92 380.77,-238.37"/>
</a>
</g>
</g>
<!-- Node17 -->
<g id="Node000017" class="node">
<title>Node17</title>
<g id="a_Node000017"><a xlink:href="../../db/dcc/_c_anomaly_score_test_8cc.html#a481ea2d7a9a12b38aeb56d775fcc8439" target="_top" xlink:title=" ">
<polygon fill="white" stroke="#666666" points="330.5,-284.25 183.25,-284.25 183.25,-265 330.5,-265 330.5,-284.25"/>
<text text-anchor="middle" x="256.88" y="-270.75" font-family="Helvetica,sans-Serif" font-size="10.00">BOOST_AUTO_TEST_CASE</text>
</a>
</g>
</g>
<!-- Node15&#45;&gt;Node17 -->
<g id="edge16_Node000015_Node000017" class="edge">
<title>Node15&#45;&gt;Node17</title>
<g id="a_edge16_Node000015_Node000017"><a xlink:title=" ">
<path fill="none" stroke="#63b8ff" d="M383.17,-237.49C377.5,-239.15 371.9,-240.87 366.5,-242.62 350.17,-247.93 346.87,-251.44 330.5,-256.62 321.46,-259.49 311.67,-262.18 302.29,-264.57"/>
<polygon fill="#63b8ff" stroke="#63b8ff" points="383.97,-240.9 392.63,-234.78 382.05,-234.17 383.97,-240.9"/>
</a>
</g>
</g>
<!-- Node18 -->
<g id="Node000018" class="node">
<title>Node18</title>
<g id="a_Node000018"><a xlink:href="../../db/dcc/_c_anomaly_score_test_8cc.html#ab858b89cfa840c047b0052e6fa11ae92" target="_top" xlink:title=" ">
<polygon fill="white" stroke="#666666" points="330.5,-247.25 183.25,-247.25 183.25,-228 330.5,-228 330.5,-247.25"/>
<text text-anchor="middle" x="256.88" y="-233.75" font-family="Helvetica,sans-Serif" font-size="10.00">BOOST_AUTO_TEST_CASE</text>
</a>
</g>
</g>
<!-- Node15&#45;&gt;Node18 -->
<g id="edge17_Node000015_Node000018" class="edge">
<title>Node15&#45;&gt;Node18</title>
<g id="a_edge17_Node000015_Node000018"><a xlink:title=" ">
<path fill="none" stroke="#63b8ff" d="M378.81,-226.12C362.95,-227.62 346.35,-229.2 330.71,-230.69"/>
<polygon fill="#63b8ff" stroke="#63b8ff" points="379.06,-229.61 388.69,-225.17 378.4,-222.64 379.06,-229.61"/>
</a>
</g>
</g>
<!-- Node19 -->
<g id="Node000019" class="node">
<title>Node19</title>
<g id="a_Node000019"><a xlink:href="../../db/dcc/_c_anomaly_score_test_8cc.html#ac6f92dfdc2c7155262fbc1fa7a6f9c9b" target="_top" xlink:title=" ">
<polygon fill="white" stroke="#666666" points="330.5,-210.25 183.25,-210.25 183.25,-191 330.5,-191 330.5,-210.25"/>
<text text-anchor="middle" x="256.88" y="-196.75" font-family="Helvetica,sans-Serif" font-size="10.00">BOOST_AUTO_TEST_CASE</text>
</a>
</g>
</g>
<!-- Node15&#45;&gt;Node19 -->
<g id="edge18_Node000015_Node000019" class="edge">
<title>Node15&#45;&gt;Node19</title>
<g id="a_edge18_Node000015_Node000019"><a xlink:title=" ">
<path fill="none" stroke="#63b8ff" d="M378.81,-211.53C362.95,-210.1 346.35,-208.6 330.71,-207.19"/>
<polygon fill="#63b8ff" stroke="#63b8ff" points="378.41,-215.01 388.69,-212.42 379.04,-208.04 378.41,-215.01"/>
</a>
</g>
</g>
<!-- Node20 -->
<g id="Node000020" class="node">
<title>Node20</title>
<g id="a_Node000020"><a xlink:href="../../db/dcc/_c_anomaly_score_test_8cc.html#a206765bd17937656a77564435f281407" target="_top" xlink:title=" ">
<polygon fill="white" stroke="#666666" points="330.5,-173.25 183.25,-173.25 183.25,-154 330.5,-154 330.5,-173.25"/>
<text text-anchor="middle" x="256.88" y="-159.75" font-family="Helvetica,sans-Serif" font-size="10.00">BOOST_AUTO_TEST_CASE</text>
</a>
</g>
</g>
<!-- Node15&#45;&gt;Node20 -->
<g id="edge19_Node000015_Node000020" class="edge">
<title>Node15&#45;&gt;Node20</title>
<g id="a_edge19_Node000015_Node000020"><a xlink:title=" ">
<path fill="none" stroke="#63b8ff" d="M384.26,-199.92C378.23,-198.19 372.25,-196.42 366.5,-194.62 350.26,-189.56 346.78,-186.57 330.5,-181.62 321.3,-178.83 311.35,-176.15 301.86,-173.75"/>
<polygon fill="#63b8ff" stroke="#63b8ff" points="383.09,-203.22 393.66,-202.55 384.98,-196.48 383.09,-203.22"/>
</a>
</g>
</g>
<!-- Node21 -->
<g id="Node000021" class="node">
<title>Node21</title>
<g id="a_Node000021"><a xlink:href="../../db/dcc/_c_anomaly_score_test_8cc.html#aee390ef4c32d155058a3b39238cf5a3b" target="_top" xlink:title=" ">
<polygon fill="white" stroke="#666666" points="330.5,-136.25 183.25,-136.25 183.25,-117 330.5,-117 330.5,-136.25"/>
<text text-anchor="middle" x="256.88" y="-122.75" font-family="Helvetica,sans-Serif" font-size="10.00">BOOST_AUTO_TEST_CASE</text>
</a>
</g>
</g>
<!-- Node15&#45;&gt;Node21 -->
<g id="edge20_Node000015_Node000021" class="edge">
<title>Node15&#45;&gt;Node21</title>
<g id="a_edge20_Node000015_Node000021"><a xlink:title=" ">
<path fill="none" stroke="#63b8ff" d="M379.69,-202.17C375.07,-199.96 370.63,-197.46 366.5,-194.62 343.94,-179.11 353.18,-159.97 330.5,-144.62 325.77,-141.42 320.51,-138.79 315.06,-136.62"/>
<polygon fill="#63b8ff" stroke="#63b8ff" points="378.08,-205.29 388.65,-205.95 380.8,-198.84 378.08,-205.29"/>
</a>
</g>
</g>
<!-- Node22 -->
<g id="Node000022" class="node">
<title>Node22</title>
<g id="a_Node000022"><a xlink:href="../../db/dcc/_c_anomaly_score_test_8cc.html#a7f4980c7ed547f1d9a03fcc64706f91e" target="_top" xlink:title=" ">
<polygon fill="white" stroke="#666666" points="330.5,-99.25 183.25,-99.25 183.25,-80 330.5,-80 330.5,-99.25"/>
<text text-anchor="middle" x="256.88" y="-85.75" font-family="Helvetica,sans-Serif" font-size="10.00">BOOST_AUTO_TEST_CASE</text>
</a>
</g>
</g>
<!-- Node15&#45;&gt;Node22 -->
<g id="edge21_Node000015_Node000022" class="edge">
<title>Node15&#45;&gt;Node22</title>
<g id="a_edge21_Node000015_Node000022"><a xlink:title=" ">
<path fill="none" stroke="#63b8ff" d="M380,-203.85C375.15,-201.25 370.59,-198.2 366.5,-194.62 334.99,-167.09 362.22,-134.92 330.5,-107.62 326.86,-104.49 322.75,-101.88 318.39,-99.72"/>
<polygon fill="#63b8ff" stroke="#63b8ff" points="378.35,-206.95 388.9,-207.96 381.28,-200.59 378.35,-206.95"/>
</a>
</g>
</g>
<!-- Node23 -->
<g id="Node000023" class="node">
<title>Node23</title>
<g id="a_Node000023"><a xlink:href="../../d0/d02/classml_1_1api_1_1_c_result_normalizer.html#a29f8ba360b99d9cb76efcfc345e8c0ea" target="_top" xlink:title="Handle a record to be normalized.">
<polygon fill="white" stroke="#666666" points="324.12,-61.88 189.62,-61.88 189.62,-31.38 324.12,-31.38 324.12,-61.88"/>
<text text-anchor="start" x="197.62" y="-48.38" font-family="Helvetica,sans-Serif" font-size="10.00">ml::api::CResultNormalizer</text>
<text text-anchor="middle" x="256.88" y="-37.12" font-family="Helvetica,sans-Serif" font-size="10.00">::handleRecord</text>
</a>
</g>
</g>
<!-- Node15&#45;&gt;Node23 -->
<g id="edge22_Node000015_Node000023" class="edge">
<title>Node15&#45;&gt;Node23</title>
<g id="a_edge22_Node000015_Node000023"><a xlink:title=" ">
<path fill="none" stroke="#63b8ff" d="M379.79,-204.5C374.96,-201.75 370.46,-198.49 366.5,-194.62 325.42,-154.55 370.33,-111.94 330.5,-70.62 327.46,-67.47 323.99,-64.73 320.27,-62.35"/>
<polygon fill="#63b8ff" stroke="#63b8ff" points="378.22,-207.62 388.75,-208.8 381.25,-201.31 378.22,-207.62"/>
</a>
</g>
</g>
<!-- Node24 -->
<g id="Node000024" class="node">
<title>Node24</title>
<g id="a_Node000024"><a xlink:href="../../d6/dbc/_c_result_normalizer_test_8cc.html#a12d34b0229b9e8638d007b7c863d3e03" target="_top" xlink:title=" ">
<polygon fill="white" stroke="#666666" points="147.25,-93.25 0,-93.25 0,-74 147.25,-74 147.25,-93.25"/>
<text text-anchor="middle" x="73.62" y="-79.75" font-family="Helvetica,sans-Serif" font-size="10.00">BOOST_AUTO_TEST_CASE</text>
</a>
</g>
</g>
<!-- Node23&#45;&gt;Node24 -->
<g id="edge23_Node000023_Node000024" class="edge">
<title>Node23&#45;&gt;Node24</title>
<g id="a_edge23_Node000023_Node000024"><a xlink:title=" ">
<path fill="none" stroke="#63b8ff" d="M177.93,-62.54C159.7,-66.26 140.78,-70.12 124.19,-73.51"/>
<polygon fill="#63b8ff" stroke="#63b8ff" points="178.58,-65.98 187.67,-60.55 177.18,-59.12 178.58,-65.98"/>
</a>
</g>
</g>
<!-- Node25 -->
<g id="Node000025" class="node">
<title>Node25</title>
<g id="a_Node000025"><a xlink:href="../../d6/dbc/_c_result_normalizer_test_8cc.html#aeef8465b7684a4e2f933f8f6490067f6" target="_top" xlink:title=" ">
<polygon fill="white" stroke="#666666" points="147.25,-56.25 0,-56.25 0,-37 147.25,-37 147.25,-56.25"/>
<text text-anchor="middle" x="73.62" y="-42.75" font-family="Helvetica,sans-Serif" font-size="10.00">BOOST_AUTO_TEST_CASE</text>
</a>
</g>
</g>
<!-- Node23&#45;&gt;Node25 -->
<g id="edge24_Node000023_Node000025" class="edge">
<title>Node23&#45;&gt;Node25</title>
<g id="a_edge24_Node000023_Node000025"><a xlink:title=" ">
<path fill="none" stroke="#63b8ff" d="M177.92,-46.62C167.86,-46.62 157.59,-46.62 147.61,-46.62"/>
<polygon fill="#63b8ff" stroke="#63b8ff" points="177.64,-50.13 187.64,-46.63 177.64,-43.13 177.64,-50.13"/>
</a>
</g>
</g>
<!-- Node26 -->
<g id="Node000026" class="node">
<title>Node26</title>
<g id="a_Node000026"><a xlink:href="../../da/d21/bin_2normalize_2_main_8cc.html#a3c04138a5bfe5d72780bb7e82a18e627" target="_top" xlink:title="Normalise anomaly scores and/or probabilties in results.">
<polygon fill="white" stroke="#666666" points="92.12,-19.25 55.12,-19.25 55.12,0 92.12,0 92.12,-19.25"/>
<text text-anchor="middle" x="73.62" y="-5.75" font-family="Helvetica,sans-Serif" font-size="10.00">main</text>
</a>
</g>
</g>
<!-- Node23&#45;&gt;Node26 -->
<g id="edge25_Node000023_Node000026" class="edge">
<title>Node23&#45;&gt;Node26</title>
<g id="a_edge25_Node000023_Node000026"><a xlink:title=" ">
<path fill="none" stroke="#63b8ff" d="M178.03,-30.73C146.24,-24.24 112.31,-17.32 92.31,-13.24"/>
<polygon fill="#63b8ff" stroke="#63b8ff" points="177.18,-34.13 187.67,-32.7 178.58,-27.27 177.18,-34.13"/>
</a>
</g>
</g>
</g>
</svg>
