<?xml version="1.0" encoding="UTF-8" standalone="no"?>
<!DOCTYPE svg PUBLIC "-//W3C//DTD SVG 1.1//EN"
 "http://www.w3.org/Graphics/SVG/1.1/DTD/svg11.dtd">
<!-- Generated by graphviz version 10.0.1 (20240210.2158)
 -->
<!-- Title: ml::maths::common::complement Pages: 1 -->
<!--zoomable 163 -->

<svg id="main" version="1.1" xmlns="http://www.w3.org/2000/svg" xmlns:xlink="http://www.w3.org/1999/xlink" xml:space="preserve" onload="init(evt)">
<style type="text/css"><![CDATA[
.node, .edge {opacity: 0.7;}
.node.selected, .edge.selected {opacity: 1;}
.edge:hover path { stroke: red; }
.edge:hover polygon { stroke: red; fill: red; }
]]></style>

<defs>
  <circle id="rim" cx="0" cy="0" r="7"/>
  <circle id="rim2" cx="0" cy="0" r="3.5"/>
  <g id="zoomPlus">
    <use xlink:href="#rim" fill="#404040"><set attributeName="fill" to="#808080" begin="zoomplus.mouseover" end="zoomplus.mouseout"/></use>
    <path d="M-4,0h8M0,-4v8" fill="none" stroke="white" stroke-width="1.5" pointer-events="none"/>
  </g>
  <g id="zoomMin">
    <use xlink:href="#rim" fill="#404040"><set attributeName="fill" to="#808080" begin="zoomminus.mouseover" end="zoomminus.mouseout"/></use>
    <path d="M-4,0h8" fill="none" stroke="white" stroke-width="1.5" pointer-events="none"/>
  </g>
  <g id="arrowUp" transform="translate(30 24)">
    <use xlink:href="#rim"/>
    <path pointer-events="none" fill="none" stroke="white" stroke-width="1.5" d="M0,-3.0v7 M-2.5,-0.5L0,-3.0L2.5,-0.5"/>
  </g>
  <g id="arrowRight" transform="rotate(90) translate(36 -43)">
    <use xlink:href="#rim"/>
    <path pointer-events="none" fill="none" stroke="white" stroke-width="1.5" d="M0,-3.0v7 M-2.5,-0.5L0,-3.0L2.5,-0.5"/>
  </g>
  <g id="arrowDown" transform="rotate(180) translate(-30 -48)">
    <use xlink:href="#rim"/>
    <path pointer-events="none" fill="none" stroke="white" stroke-width="1.5" d="M0,-3.0v7 M-2.5,-0.5L0,-3.0L2.5,-0.5"/>
  </g>
  <g id="arrowLeft" transform="rotate(270) translate(-36 17)">
    <use xlink:href="#rim"/>
    <path pointer-events="none" fill="none" stroke="white" stroke-width="1.5" d="M0,-3.0v7 M-2.5,-0.5L0,-3.0L2.5,-0.5"/>
  </g>
  <g id="resetDef">
    <use xlink:href="#rim2" fill="#404040"><set attributeName="fill" to="#808080" begin="reset.mouseover" end="reset.mouseout"/></use>
  </g>
</defs>
<script type="application/ecmascript">
var viewWidth = 686;
var viewHeight = 163;
var sectionId = 'dynsection-12';
</script>
<script type="application/ecmascript" xlink:href="../../svg.min.js"/>
<svg id="graph" class="graph">
<g id="viewport">
<title>ml::maths::common::complement</title>
<!-- Node1 -->
<g id="Node000001" class="node">
<title>Node1</title>
<g id="a_Node000001"><a xlink:title="Get the complement distribution of mode.">
<polygon fill="#999999" stroke="#666666" points="677.5,-117.12 568.5,-117.12 568.5,-86.62 677.5,-86.62 677.5,-117.12"/>
<text text-anchor="start" x="576.5" y="-103.62" font-family="Helvetica,sans-Serif" font-size="10.00">ml::maths::common::</text>
<text text-anchor="middle" x="623" y="-92.38" font-family="Helvetica,sans-Serif" font-size="10.00">complement</text>
</a>
</g>
</g>
<!-- Node2 -->
<g id="Node000002" class="node">
<title>Node2</title>
<g id="a_Node000002"><a xlink:href="../../d2/d5e/_c_boosted_tree_loss_test_8cc.html#a91dbe8657b37e71b7bec624980f1b917" target="_top" xlink:title=" ">
<polygon fill="white" stroke="#666666" points="531.75,-154.5 384.5,-154.5 384.5,-135.25 531.75,-135.25 531.75,-154.5"/>
<text text-anchor="middle" x="458.12" y="-141" font-family="Helvetica,sans-Serif" font-size="10.00">BOOST_AUTO_TEST_CASE</text>
</a>
</g>
</g>
<!-- Node1&#45;&gt;Node2 -->
<g id="edge1_Node000001_Node000002" class="edge">
<title>Node1&#45;&gt;Node2</title>
<g id="a_edge1_Node000001_Node000002"><a xlink:title=" ">
<path fill="none" stroke="#63b8ff" d="M557.22,-119.32C548.91,-121.53 540.5,-123.77 532.5,-125.88 521.43,-128.79 509.41,-131.92 498.36,-134.78"/>
<polygon fill="#63b8ff" stroke="#63b8ff" points="557.85,-122.77 566.6,-116.81 556.04,-116.01 557.85,-122.77"/>
</a>
</g>
</g>
<!-- Node3 -->
<g id="Node000003" class="node">
<title>Node3</title>
<g id="a_Node000003"><a xlink:href="../../d6/dd5/namespaceml_1_1maths_1_1common.html#a818eec42a016e8cbadf9400a8c40b573" target="_top" xlink:title=" ">
<polygon fill="white" stroke="#666666" points="512.62,-117.12 403.62,-117.12 403.62,-86.62 512.62,-86.62 512.62,-117.12"/>
<text text-anchor="start" x="411.62" y="-103.62" font-family="Helvetica,sans-Serif" font-size="10.00">ml::maths::common::</text>
<text text-anchor="middle" x="458.12" y="-92.38" font-family="Helvetica,sans-Serif" font-size="10.00">cdfComplement</text>
</a>
</g>
</g>
<!-- Node1&#45;&gt;Node3 -->
<g id="edge2_Node000001_Node000003" class="edge">
<title>Node1&#45;&gt;Node3</title>
<g id="a_edge2_Node000001_Node000003"><a xlink:title=" ">
<path fill="none" stroke="#63b8ff" d="M556.73,-101.88C542.17,-101.88 526.89,-101.88 512.85,-101.88"/>
<polygon fill="#63b8ff" stroke="#63b8ff" points="556.7,-105.38 566.7,-101.88 556.7,-98.38 556.7,-105.38"/>
</a>
</g>
</g>
<!-- Node4 -->
<g id="Node000004" class="node">
<title>Node4</title>
<g id="a_Node000004"><a xlink:href="../../d0/dce/classml_1_1maths_1_1common_1_1_c_one_of_n_prior.html#ab6421aa97dca9f4d4ecad943e65b4fef" target="_top" xlink:title="The common c.d.f. implementation.">
<polygon fill="white" stroke="#666666" points="532.5,-68.75 383.75,-68.75 383.75,-27 532.5,-27 532.5,-68.75"/>
<text text-anchor="start" x="391.75" y="-55.25" font-family="Helvetica,sans-Serif" font-size="10.00">ml::maths::common::</text>
<text text-anchor="start" x="391.75" y="-44" font-family="Helvetica,sans-Serif" font-size="10.00">COneOfNPrior::minusLogJoint</text>
<text text-anchor="middle" x="458.12" y="-32.75" font-family="Helvetica,sans-Serif" font-size="10.00">CdfImpl</text>
</a>
</g>
</g>
<!-- Node1&#45;&gt;Node4 -->
<g id="edge3_Node000001_Node000004" class="edge">
<title>Node1&#45;&gt;Node4</title>
<g id="a_edge3_Node000001_Node000004"><a xlink:title=" ">
<path fill="none" stroke="#63b8ff" d="M564.07,-82.67C550.89,-78.3 536.82,-73.63 523.4,-69.18"/>
<polygon fill="#63b8ff" stroke="#63b8ff" points="562.86,-85.95 573.45,-85.78 565.06,-79.31 562.86,-85.95"/>
</a>
</g>
</g>
<!-- Node5 -->
<g id="Node000005" class="node">
<title>Node5</title>
<g id="a_Node000005"><a xlink:href="../../d0/dce/classml_1_1maths_1_1common_1_1_c_one_of_n_prior.html#a86efb794ccd51fab8f1efaaf2f363743" target="_top" xlink:title=" ">
<polygon fill="white" stroke="#666666" points="347.75,-90.12 183.25,-90.12 183.25,-59.62 347.75,-59.62 347.75,-90.12"/>
<text text-anchor="start" x="191.25" y="-76.62" font-family="Helvetica,sans-Serif" font-size="10.00">ml::maths::common::</text>
<text text-anchor="middle" x="265.5" y="-65.38" font-family="Helvetica,sans-Serif" font-size="10.00">COneOfNPrior::minusLogJointCdf</text>
</a>
</g>
</g>
<!-- Node4&#45;&gt;Node5 -->
<g id="edge4_Node000004_Node000005" class="edge">
<title>Node4&#45;&gt;Node5</title>
<g id="a_edge4_Node000004_Node000005"><a xlink:title=" ">
<path fill="none" stroke="#63b8ff" d="M372.24,-59.9C364.26,-61.03 356.19,-62.17 348.24,-63.3"/>
<polygon fill="#63b8ff" stroke="#63b8ff" points="372.52,-63.39 381.93,-58.53 371.53,-56.46 372.52,-63.39"/>
</a>
</g>
</g>
<!-- Node8 -->
<g id="Node000008" class="node">
<title>Node8</title>
<g id="a_Node000008"><a xlink:href="../../d0/dce/classml_1_1maths_1_1common_1_1_c_one_of_n_prior.html#a8807b328291eb5697dd496c039877c69" target="_top" xlink:title=" ">
<polygon fill="white" stroke="#666666" points="339.88,-41.75 191.12,-41.75 191.12,0 339.88,0 339.88,-41.75"/>
<text text-anchor="start" x="199.12" y="-28.25" font-family="Helvetica,sans-Serif" font-size="10.00">ml::maths::common::</text>
<text text-anchor="start" x="199.12" y="-17" font-family="Helvetica,sans-Serif" font-size="10.00">COneOfNPrior::minusLogJoint</text>
<text text-anchor="middle" x="265.5" y="-5.75" font-family="Helvetica,sans-Serif" font-size="10.00">CdfComplement</text>
</a>
</g>
</g>
<!-- Node4&#45;&gt;Node8 -->
<g id="edge7_Node000004_Node000008" class="edge">
<title>Node4&#45;&gt;Node8</title>
<g id="a_edge7_Node000004_Node000008"><a xlink:title=" ">
<path fill="none" stroke="#63b8ff" d="M372.04,-35.82C361.46,-34.32 350.71,-32.8 340.32,-31.33"/>
<polygon fill="#63b8ff" stroke="#63b8ff" points="371.53,-39.29 381.93,-37.22 372.52,-32.36 371.53,-39.29"/>
</a>
</g>
</g>
<!-- Node6 -->
<g id="Node000006" class="node">
<title>Node6</title>
<g id="a_Node000006"><a xlink:href="../../d7/d56/_c_one_of_n_prior_test_8cc.html#a5c190761343fe47c41c73e777a93a36b" target="_top" xlink:title=" ">
<polygon fill="white" stroke="#666666" points="147.25,-79.5 0,-79.5 0,-60.25 147.25,-60.25 147.25,-79.5"/>
<text text-anchor="middle" x="73.62" y="-66" font-family="Helvetica,sans-Serif" font-size="10.00">BOOST_AUTO_TEST_CASE</text>
</a>
</g>
</g>
<!-- Node5&#45;&gt;Node6 -->
<g id="edge5_Node000005_Node000006" class="edge">
<title>Node5&#45;&gt;Node6</title>
<g id="a_edge5_Node000005_Node000006"><a xlink:title=" ">
<path fill="none" stroke="#63b8ff" d="M171.51,-72.43C163.45,-72.21 155.37,-72 147.5,-71.79"/>
<polygon fill="#63b8ff" stroke="#63b8ff" points="171.27,-75.92 181.36,-72.69 171.46,-68.92 171.27,-75.92"/>
</a>
</g>
</g>
<!-- Node7 -->
<g id="Node000007" class="node">
<title>Node7</title>
<g id="a_Node000007"><a xlink:href="../../d7/d56/_c_one_of_n_prior_test_8cc.html#a8189fb6a14d4275d48dcc0dc1207fc17" target="_top" xlink:title=" ">
<polygon fill="white" stroke="#666666" points="147.25,-38.5 0,-38.5 0,-19.25 147.25,-19.25 147.25,-38.5"/>
<text text-anchor="middle" x="73.62" y="-25" font-family="Helvetica,sans-Serif" font-size="10.00">BOOST_AUTO_TEST_CASE</text>
</a>
</g>
</g>
<!-- Node5&#45;&gt;Node7 -->
<g id="edge6_Node000005_Node000007" class="edge">
<title>Node5&#45;&gt;Node7</title>
<g id="a_edge6_Node000005_Node000007"><a xlink:title=" ">
<path fill="none" stroke="#63b8ff" d="M188.51,-56.47C163.86,-50.49 137.43,-44.09 116.24,-38.96"/>
<polygon fill="#63b8ff" stroke="#63b8ff" points="187.67,-59.86 198.22,-58.82 189.32,-53.06 187.67,-59.86"/>
</a>
</g>
</g>
<!-- Node8&#45;&gt;Node6 -->
<g id="edge8_Node000008_Node000006" class="edge">
<title>Node8&#45;&gt;Node6</title>
<g id="a_edge8_Node000008_Node000006"><a xlink:title=" ">
<path fill="none" stroke="#63b8ff" d="M179.94,-42.7C156.86,-48.65 132.95,-54.82 113.76,-59.78"/>
<polygon fill="#63b8ff" stroke="#63b8ff" points="180.54,-46.16 189.35,-40.27 178.79,-39.38 180.54,-46.16"/>
</a>
</g>
</g>
<!-- Node8&#45;&gt;Node7 -->
<g id="edge9_Node000008_Node000007" class="edge">
<title>Node8&#45;&gt;Node7</title>
<g id="a_edge9_Node000008_Node000007"><a xlink:title=" ">
<path fill="none" stroke="#63b8ff" d="M179.4,-24.46C168.8,-24.91 158.04,-25.36 147.64,-25.8"/>
<polygon fill="#63b8ff" stroke="#63b8ff" points="179.46,-27.96 189.31,-24.04 179.17,-20.97 179.46,-27.96"/>
</a>
</g>
</g>
</g>
</svg>

<g id="navigator" transform="translate(0 0)" fill="#404254">
  <rect fill="#f2f5e9" fill-opacity="0.5" stroke="#606060" stroke-width=".5" x="0" y="0" width="60" height="60"/>
  <use id="zoomplus" xlink:href="#zoomPlus" x="17" y="9" onmousedown="handleZoom(evt,'in')"/>
  <use id="zoomminus" xlink:href="#zoomMin" x="42" y="9" onmousedown="handleZoom(evt,'out')"/>
  <use id="reset" xlink:href="#resetDef" x="30" y="36" onmousedown="handleReset()"/>
   <use id="arrowup" xlink:href="#arrowUp" x="0" y="0" onmousedown="handlePan(0,-1)"/>
  <use id="arrowright" xlink:href="#arrowRight" x="0" y="0" onmousedown="handlePan(1,0)"/>
  <use id="arrowdown" xlink:href="#arrowDown" x="0" y="0" onmousedown="handlePan(0,1)"/>
  <use id="arrowleft" xlink:href="#arrowLeft" x="0" y="0" onmousedown="handlePan(-1,0)"/>
</g>
<svg viewBox="0 0 15 15" width="100%" height="30px" preserveAspectRatio="xMaxYMin meet">
 <g id="arrow_out" transform="scale(0.3 0.3)">
  <a xlink:href="namespaceml_1_1maths_1_1common_a49679dd24c6dfeaf8869aa75a338de6d_icgraph_org.svg" target="_base">
   <rect id="button" ry="5" rx="5" y="6" x="6" height="38" width="38"
        fill="#f2f5e9" fill-opacity="0.5" stroke="#606060" stroke-width="1.0"/>
   <path id="arrow"
     d="M 11.500037,31.436501 C 11.940474,20.09759 22.043105,11.32322 32.158766,21.979434 L 37.068811,17.246167 C 37.068811,17.246167 37.088388,32 37.088388,32 L 22.160133,31.978069 C 22.160133,31.978069 26.997745,27.140456 26.997745,27.140456 C 18.528582,18.264221 13.291696,25.230495 11.500037,31.436501 z"
     style="fill:#404040;"/>
  </a>
 </g>
</svg>

<style type='text/css'>
<![CDATA[
[data-mouse-over-selected='false'] { opacity: 0.7; }
[data-mouse-over-selected='true']  { opacity: 1.0; }
]]>
</style>
<script type="application/ecmascript"><![CDATA[
document.addEventListener('DOMContentLoaded', (event) => {
  highlightEdges();
  highlightAdjacentNodes();
});
]]></script>
</svg>
