<?xml version="1.0" encoding="UTF-8" standalone="no"?>
<!DOCTYPE svg PUBLIC "-//W3C//DTD SVG 1.1//EN"
 "http://www.w3.org/Graphics/SVG/1.1/DTD/svg11.dtd">
<!-- Generated by graphviz version 10.0.1 (20240210.2158)
 -->
<!-- Title: ml::maths::common::cdf Pages: 1 -->
<svg width="302pt" height="301pt"
 viewBox="0.00 0.00 301.75 300.50" xmlns="http://www.w3.org/2000/svg" xmlns:xlink="http://www.w3.org/1999/xlink">

<svg id="main" version="1.1" xmlns="http://www.w3.org/2000/svg" xmlns:xlink="http://www.w3.org/1999/xlink" xml:space="preserve" onload="init(evt)">
<style type="text/css"><![CDATA[
.node, .edge {opacity: 0.7;}
.node.selected, .edge.selected {opacity: 1;}
.edge:hover path { stroke: red; }
.edge:hover polygon { stroke: red; fill: red; }
]]></style>
<script type="application/ecmascript" xlink:href="../../svg.min.js"/>
<svg id="graph" class="graph">
<g id="graph0" class="graph" transform="scale(1 1) rotate(0) translate(4 296.5)">
<title>ml::maths::common::cdf</title>
<!-- Node1 -->
<g id="Node000001" class="node">
<title>Node1</title>
<g id="a_Node000001"><a xlink:title="Compute the c.d.f. at x for distribution.">
<polygon fill="#999999" stroke="#666666" points="122.5,-153.25 0,-153.25 0,-134 122.5,-134 122.5,-153.25"/>
<text text-anchor="middle" x="61.25" y="-139.75" font-family="Helvetica,sans-Serif" font-size="10.00">ml::maths::common::cdf</text>
</a>
</g>
</g>
<!-- Node2 -->
<g id="Node000002" class="node">
<title>Node2</title>
<g id="a_Node000002"><a xlink:href="../../d0/d1c/classml_1_1maths_1_1common_1_1_c_log_t_distribution.html#a128ce0a627956e7931be0358fe995d2d" target="_top" xlink:title=" ">
<polygon fill="white" stroke="#666666" points="293.75,-292.5 158.5,-292.5 158.5,-250.75 293.75,-250.75 293.75,-292.5"/>
<text text-anchor="start" x="166.5" y="-279" font-family="Helvetica,sans-Serif" font-size="10.00">ml::maths::common::</text>
<text text-anchor="start" x="166.5" y="-267.75" font-family="Helvetica,sans-Serif" font-size="10.00">CLogTDistribution::degrees</text>
<text text-anchor="middle" x="226.12" y="-256.5" font-family="Helvetica,sans-Serif" font-size="10.00">Freedom</text>
</a>
</g>
</g>
<!-- Node1&#45;&gt;Node2 -->
<g id="edge1_Node000001_Node000002" class="edge">
<title>Node1&#45;&gt;Node2</title>
<g id="a_edge1_Node000001_Node000002"><a xlink:title=" ">
<path fill="none" stroke="#63b8ff" d="M70.01,-153.73C85.21,-172.97 120.74,-215.31 158.5,-241.62 160.04,-242.7 161.62,-243.75 163.24,-244.77"/>
<polygon fill="#63b8ff" stroke="#63b8ff" points="161.09,-247.57 171.49,-249.59 164.63,-241.53 161.09,-247.57"/>
</a>
</g>
</g>
<!-- Node3 -->
<g id="Node000003" class="node">
<title>Node3</title>
<g id="a_Node000003"><a xlink:href="../../dd/dc8/classml_1_1maths_1_1common_1_1_c_maths_funcs.html#a55029f09f9f7e9eb786219fefbb8ff72" target="_top" xlink:title="Check if value is NaN.">
<polygon fill="white" stroke="#666666" points="280.62,-232.88 171.62,-232.88 171.62,-202.38 280.62,-202.38 280.62,-232.88"/>
<text text-anchor="start" x="179.62" y="-219.38" font-family="Helvetica,sans-Serif" font-size="10.00">ml::maths::common::</text>
<text text-anchor="middle" x="226.12" y="-208.12" font-family="Helvetica,sans-Serif" font-size="10.00">CMathsFuncs::isNan</text>
</a>
</g>
</g>
<!-- Node1&#45;&gt;Node3 -->
<g id="edge2_Node000001_Node000003" class="edge">
<title>Node1&#45;&gt;Node3</title>
<g id="a_edge2_Node000001_Node000003"><a xlink:title=" ">
<path fill="none" stroke="#63b8ff" d="M80.41,-153.64C99.54,-164.01 130.7,-180.38 158.5,-192.62 162.46,-194.37 166.58,-196.1 170.74,-197.8"/>
<polygon fill="#63b8ff" stroke="#63b8ff" points="169.13,-200.92 179.71,-201.35 171.71,-194.41 169.13,-200.92"/>
</a>
</g>
</g>
<!-- Node4 -->
<g id="Node000004" class="node">
<title>Node4</title>
<g id="a_Node000004"><a xlink:href="../../d0/d1c/classml_1_1maths_1_1common_1_1_c_log_t_distribution.html#a4267908e2f6c547fd21f75a77f6bee78" target="_top" xlink:title=" ">
<polygon fill="white" stroke="#666666" points="293.38,-183.88 158.88,-183.88 158.88,-153.38 293.38,-153.38 293.38,-183.88"/>
<text text-anchor="start" x="166.88" y="-170.38" font-family="Helvetica,sans-Serif" font-size="10.00">ml::maths::common::</text>
<text text-anchor="middle" x="226.12" y="-159.12" font-family="Helvetica,sans-Serif" font-size="10.00">CLogTDistribution::location</text>
</a>
</g>
</g>
<!-- Node1&#45;&gt;Node4 -->
<g id="edge3_Node000001_Node000004" class="edge">
<title>Node1&#45;&gt;Node4</title>
<g id="a_edge3_Node000001_Node000004"><a xlink:title=" ">
<path fill="none" stroke="#63b8ff" d="M122.9,-152.93C130.86,-154.16 139.1,-155.42 147.3,-156.68"/>
<polygon fill="#63b8ff" stroke="#63b8ff" points="146.5,-160.1 156.91,-158.15 147.56,-153.18 146.5,-160.1"/>
</a>
</g>
</g>
<!-- Node5 -->
<g id="Node000005" class="node">
<title>Node5</title>
<g id="a_Node000005"><a xlink:href="../../dd/d55/classml_1_1maths_1_1common_1_1_c_tools.html#a3b1d398255cd218c09ddfe9f75cfa829" target="_top" xlink:title=" ">
<polygon fill="white" stroke="#666666" points="280.62,-134.88 171.62,-134.88 171.62,-104.38 280.62,-104.38 280.62,-134.88"/>
<text text-anchor="start" x="179.62" y="-121.38" font-family="Helvetica,sans-Serif" font-size="10.00">ml::maths::common::</text>
<text text-anchor="middle" x="226.12" y="-110.12" font-family="Helvetica,sans-Serif" font-size="10.00">CTools::safeCdf</text>
</a>
</g>
</g>
<!-- Node1&#45;&gt;Node5 -->
<g id="edge4_Node000001_Node000005" class="edge">
<title>Node1&#45;&gt;Node5</title>
<g id="a_edge4_Node000001_Node000005"><a xlink:title=" ">
<path fill="none" stroke="#63b8ff" d="M122.9,-134.69C135.02,-132.9 147.79,-131.02 160.05,-129.21"/>
<polygon fill="#63b8ff" stroke="#63b8ff" points="160.25,-132.72 169.64,-127.8 159.23,-125.8 160.25,-132.72"/>
</a>
</g>
</g>
<!-- Node6 -->
<g id="Node000006" class="node">
<title>Node6</title>
<g id="a_Node000006"><a xlink:href="../../d0/d1c/classml_1_1maths_1_1common_1_1_c_log_t_distribution.html#a8f03f27080a2f59d3da535b4b4f228ef" target="_top" xlink:title=" ">
<polygon fill="white" stroke="#666666" points="288.12,-85.88 164.12,-85.88 164.12,-55.38 288.12,-55.38 288.12,-85.88"/>
<text text-anchor="start" x="172.12" y="-72.38" font-family="Helvetica,sans-Serif" font-size="10.00">ml::maths::common::</text>
<text text-anchor="middle" x="226.12" y="-61.12" font-family="Helvetica,sans-Serif" font-size="10.00">CLogTDistribution::scale</text>
</a>
</g>
</g>
<!-- Node1&#45;&gt;Node6 -->
<g id="edge5_Node000001_Node000006" class="edge">
<title>Node1&#45;&gt;Node6</title>
<g id="a_edge5_Node000001_Node000006"><a xlink:title=" ">
<path fill="none" stroke="#63b8ff" d="M80.79,-133.66C99.97,-123.52 130.94,-107.63 158.5,-95.62 162.53,-93.87 166.72,-92.12 170.95,-90.41"/>
<polygon fill="#63b8ff" stroke="#63b8ff" points="172.07,-93.73 180.09,-86.81 169.5,-87.22 172.07,-93.73"/>
</a>
</g>
</g>
<!-- Node7 -->
<g id="Node000007" class="node">
<title>Node7</title>
<g id="a_Node000007"><a xlink:href="../../d4/da6/namespaceml.html#ad281564c6956f9a94ad02cfd663d150d" target="_top" xlink:title="Scales time input to generator.">
<polygon fill="white" stroke="#666666" points="254,-19.25 198.25,-19.25 198.25,0 254,0 254,-19.25"/>
<text text-anchor="middle" x="226.12" y="-5.75" font-family="Helvetica,sans-Serif" font-size="10.00">ml::scale</text>
</a>
</g>
</g>
<!-- Node1&#45;&gt;Node7 -->
<g id="edge6_Node000001_Node000007" class="edge">
<title>Node1&#45;&gt;Node7</title>
<g id="a_edge6_Node000001_Node000007"><a xlink:title=" ">
<path fill="none" stroke="#63b8ff" d="M70.48,-133.62C86.2,-114.94 122.19,-74.12 158.5,-46.62 169.24,-38.49 181.98,-30.97 193.42,-24.87"/>
<polygon fill="#63b8ff" stroke="#63b8ff" points="194.85,-28.07 202.13,-20.38 191.64,-21.85 194.85,-28.07"/>
</a>
</g>
</g>
<!-- Node7&#45;&gt;Node7 -->
<g id="edge7_Node000007_Node000007" class="edge">
<title>Node7&#45;&gt;Node7</title>
<g id="a_edge7_Node000007_Node000007"><a xlink:title=" ">
<path fill="none" stroke="#63b8ff" d="M200.31,-19.54C188.54,-28.15 197.14,-37.25 226.12,-37.25 242.43,-37.25 252.28,-34.37 255.69,-30.32"/>
<polygon fill="#63b8ff" stroke="#63b8ff" points="259.03,-29.26 252.43,-20.97 252.42,-31.56 259.03,-29.26"/>
</a>
</g>
</g>
</g>
</svg>
</svg>

<style type='text/css'>
<![CDATA[
[data-mouse-over-selected='false'] { opacity: 0.7; }
[data-mouse-over-selected='true']  { opacity: 1.0; }
]]>
</style>
<script type="application/ecmascript"><![CDATA[
document.addEventListener('DOMContentLoaded', (event) => {
  highlightEdges();
  highlightAdjacentNodes();
});
]]></script>
</svg>
