<?xml version="1.0" encoding="UTF-8" standalone="no"?>
<!DOCTYPE svg PUBLIC "-//W3C//DTD SVG 1.1//EN"
 "http://www.w3.org/Graphics/SVG/1.1/DTD/svg11.dtd">
<!-- Generated by graphviz version 10.0.1 (20240210.2158)
 -->
<!-- Title: ml::maths::common::operator&lt;&lt; Pages: 1 -->
<svg width="309pt" height="173pt"
 viewBox="0.00 0.00 308.50 172.50" xmlns="http://www.w3.org/2000/svg" xmlns:xlink="http://www.w3.org/1999/xlink">

<svg id="main" version="1.1" xmlns="http://www.w3.org/2000/svg" xmlns:xlink="http://www.w3.org/1999/xlink" xml:space="preserve" onload="init(evt)">
<style type="text/css"><![CDATA[
.node, .edge {opacity: 0.7;}
.node.selected, .edge.selected {opacity: 1;}
.edge:hover path { stroke: red; }
.edge:hover polygon { stroke: red; fill: red; }
]]></style>
<script type="application/ecmascript" xlink:href="../../svg.min.js"/>
<svg id="graph" class="graph">
<g id="graph0" class="graph" transform="scale(1 1) rotate(0) translate(4 168.5)">
<title>ml::maths::common::operator&lt;&lt;</title>
<!-- Node1 -->
<g id="Node000001" class="node">
<title>Node1</title>
<g id="a_Node000001"><a xlink:title=" ">
<polygon fill="#999999" stroke="#666666" points="109,-97.5 0,-97.5 0,-67 109,-67 109,-97.5"/>
<text text-anchor="start" x="8" y="-84" font-family="Helvetica,sans-Serif" font-size="10.00">ml::maths::common::</text>
<text text-anchor="middle" x="54.5" y="-72.75" font-family="Helvetica,sans-Serif" font-size="10.00">operator&lt;&lt;</text>
</a>
</g>
</g>
<!-- Node2 -->
<g id="Node000002" class="node">
<title>Node2</title>
<g id="a_Node000002"><a xlink:href="../../d6/d4c/classml_1_1maths_1_1common_1_1_c_x_means_1_1_c_cluster.html#a00e4e57461187bfdf48cdffd62e02a22" target="_top" xlink:title="Set the cluster centre.">
<polygon fill="white" stroke="#666666" points="291.5,-146.5 154,-146.5 154,-116 291.5,-116 291.5,-146.5"/>
<text text-anchor="start" x="162" y="-133" font-family="Helvetica,sans-Serif" font-size="10.00">ml::maths::common::</text>
<text text-anchor="middle" x="222.75" y="-121.75" font-family="Helvetica,sans-Serif" font-size="10.00">CXMeans::CCluster::centre</text>
</a>
</g>
</g>
<!-- Node1&#45;&gt;Node2 -->
<g id="edge1_Node000001_Node000002" class="edge">
<title>Node1&#45;&gt;Node2</title>
<g id="a_edge1_Node000001_Node000002"><a xlink:title=" ">
<path fill="none" stroke="#63b8ff" d="M108.56,-97.89C124.08,-102.46 141.21,-107.51 157.36,-112.27"/>
<polygon fill="#63b8ff" stroke="#63b8ff" points="156.31,-115.61 166.89,-115.08 158.28,-108.9 156.31,-115.61"/>
</a>
</g>
</g>
<!-- Node3 -->
<g id="Node000003" class="node">
<title>Node3</title>
<g id="a_Node000003"><a xlink:href="../../d6/d4c/classml_1_1maths_1_1common_1_1_c_x_means_1_1_c_cluster.html#afeffde355ed98c884a424d9346c4c954" target="_top" xlink:title="Get the cluster checksum.">
<polygon fill="white" stroke="#666666" points="300.5,-97.5 145,-97.5 145,-67 300.5,-67 300.5,-97.5"/>
<text text-anchor="start" x="153" y="-84" font-family="Helvetica,sans-Serif" font-size="10.00">ml::maths::common::</text>
<text text-anchor="middle" x="222.75" y="-72.75" font-family="Helvetica,sans-Serif" font-size="10.00">CXMeans::CCluster::checksum</text>
</a>
</g>
</g>
<!-- Node1&#45;&gt;Node3 -->
<g id="edge3_Node000001_Node000003" class="edge">
<title>Node1&#45;&gt;Node3</title>
<g id="a_edge3_Node000001_Node000003"><a xlink:title=" ">
<path fill="none" stroke="#63b8ff" d="M109.48,-82.25C117.15,-82.25 125.19,-82.25 133.31,-82.25"/>
<polygon fill="#63b8ff" stroke="#63b8ff" points="133.28,-85.75 143.28,-82.25 133.28,-78.75 133.28,-85.75"/>
</a>
</g>
</g>
<!-- Node4 -->
<g id="Node000004" class="node">
<title>Node4</title>
<g id="a_Node000004"><a xlink:href="../../d6/d4c/classml_1_1maths_1_1common_1_1_c_x_means_1_1_c_cluster.html#a4deecdaa2dccab53c345bc67ef614f47" target="_top" xlink:title="Set the cluster cost.">
<polygon fill="white" stroke="#666666" points="287.38,-30.5 158.12,-30.5 158.12,0 287.38,0 287.38,-30.5"/>
<text text-anchor="start" x="166.12" y="-17" font-family="Helvetica,sans-Serif" font-size="10.00">ml::maths::common::</text>
<text text-anchor="middle" x="222.75" y="-5.75" font-family="Helvetica,sans-Serif" font-size="10.00">CXMeans::CCluster::cost</text>
</a>
</g>
</g>
<!-- Node1&#45;&gt;Node4 -->
<g id="edge4_Node000001_Node000004" class="edge">
<title>Node1&#45;&gt;Node4</title>
<g id="a_edge4_Node000001_Node000004"><a xlink:title=" ">
<path fill="none" stroke="#63b8ff" d="M94.48,-66.54C117.64,-57.21 147.23,-45.28 172.06,-35.28"/>
<polygon fill="#63b8ff" stroke="#63b8ff" points="173.36,-38.53 181.32,-31.54 170.74,-32.03 173.36,-38.53"/>
</a>
</g>
</g>
<!-- Node2&#45;&gt;Node2 -->
<g id="edge2_Node000002_Node000002" class="edge">
<title>Node2&#45;&gt;Node2</title>
<g id="a_edge2_Node000002_Node000002"><a xlink:title=" ">
<path fill="none" stroke="#63b8ff" d="M192.94,-146.99C186.85,-156.06 196.79,-164.5 222.75,-164.5 236.95,-164.5 246.35,-161.97 250.97,-158.2"/>
<polygon fill="#63b8ff" stroke="#63b8ff" points="254.4,-158.88 252.35,-148.48 247.47,-157.89 254.4,-158.88"/>
</a>
</g>
</g>
<!-- Node4&#45;&gt;Node4 -->
<g id="edge5_Node000004_Node000004" class="edge">
<title>Node4&#45;&gt;Node4</title>
<g id="a_edge5_Node000004_Node000004"><a xlink:title=" ">
<path fill="none" stroke="#63b8ff" d="M192.94,-30.99C186.85,-40.06 196.79,-48.5 222.75,-48.5 236.95,-48.5 246.35,-45.97 250.97,-42.2"/>
<polygon fill="#63b8ff" stroke="#63b8ff" points="254.4,-42.88 252.35,-32.48 247.47,-41.89 254.4,-42.88"/>
</a>
</g>
</g>
</g>
</svg>
</svg>

<style type='text/css'>
<![CDATA[
[data-mouse-over-selected='false'] { opacity: 0.7; }
[data-mouse-over-selected='true']  { opacity: 1.0; }
]]>
</style>
<script type="application/ecmascript"><![CDATA[
document.addEventListener('DOMContentLoaded', (event) => {
  highlightEdges();
  highlightAdjacentNodes();
});
]]></script>
</svg>
