<?xml version="1.0" encoding="UTF-8" standalone="no"?>
<!DOCTYPE svg PUBLIC "-//W3C//DTD SVG 1.1//EN"
 "http://www.w3.org/Graphics/SVG/1.1/DTD/svg11.dtd">
<!-- Generated by graphviz version 10.0.1 (20240210.2158)
 -->
<!-- Title: ml::model::CTokenListDataCategorizer::tokenToIdAndWeight Pages: 1 -->
<svg width="349pt" height="88pt"
 viewBox="0.00 0.00 349.00 87.50" xmlns="http://www.w3.org/2000/svg" xmlns:xlink="http://www.w3.org/1999/xlink">
<g id="graph0" class="graph" transform="scale(1 1) rotate(0) translate(4 83.5)">
<title>ml::model::CTokenListDataCategorizer::tokenToIdAndWeight</title>
<!-- Node1 -->
<g id="Node000001" class="node">
<title>Node1</title>
<g id="a_Node000001"><a xlink:title=" ">
<polygon fill="#999999" stroke="#666666" points="162.25,-54.5 0,-54.5 0,-24 162.25,-24 162.25,-54.5"/>
<text text-anchor="start" x="8" y="-41" font-family="Helvetica,sans-Serif" font-size="10.00">ml::model::CTokenListData</text>
<text text-anchor="middle" x="81.12" y="-29.75" font-family="Helvetica,sans-Serif" font-size="10.00">Categorizer::tokenToIdAndWeight</text>
</a>
</g>
</g>
<!-- Node2 -->
<g id="Node000002" class="node">
<title>Node2</title>
<g id="a_Node000002"><a xlink:href="../../dc/d68/classml_1_1model_1_1_c_token_list_data_categorizer_base.html#a2808256424bb55efee70bd81b1b8ae6c" target="_top" xlink:title=" ">
<polygon fill="white" stroke="#666666" points="341,-79.5 198.25,-79.5 198.25,-49 341,-49 341,-79.5"/>
<text text-anchor="start" x="206.25" y="-66" font-family="Helvetica,sans-Serif" font-size="10.00">ml::model::CTokenListData</text>
<text text-anchor="middle" x="269.62" y="-54.75" font-family="Helvetica,sans-Serif" font-size="10.00">CategorizerBase::idForToken</text>
</a>
</g>
</g>
<!-- Node1&#45;&gt;Node2 -->
<g id="edge1_Node000001_Node000002" class="edge">
<title>Node1&#45;&gt;Node2</title>
<g id="a_edge1_Node000001_Node000002"><a xlink:title=" ">
<path fill="none" stroke="#63b8ff" d="M162.57,-50.03C170.54,-51.1 178.65,-52.19 186.64,-53.26"/>
<polygon fill="#63b8ff" stroke="#63b8ff" points="185.95,-56.7 196.33,-54.56 186.88,-49.76 185.95,-56.7"/>
</a>
</g>
</g>
<!-- Node3 -->
<g id="Node000003" class="node">
<title>Node3</title>
<g id="a_Node000003"><a xlink:href="../../da/de9/classml_1_1core_1_1_c_word_dictionary.html#a6febde37add40cd4fb7357b6b7571daf" target="_top" xlink:title=" ">
<polygon fill="white" stroke="#666666" points="335.38,-30.5 203.88,-30.5 203.88,0 335.38,0 335.38,-30.5"/>
<text text-anchor="start" x="211.88" y="-17" font-family="Helvetica,sans-Serif" font-size="10.00">ml::core::CWordDictionary</text>
<text text-anchor="middle" x="269.62" y="-5.75" font-family="Helvetica,sans-Serif" font-size="10.00">::partOfSpeech</text>
</a>
</g>
</g>
<!-- Node1&#45;&gt;Node3 -->
<g id="edge2_Node000001_Node000003" class="edge">
<title>Node1&#45;&gt;Node3</title>
<g id="a_edge2_Node000001_Node000003"><a xlink:title=" ">
<path fill="none" stroke="#63b8ff" d="M162.57,-28.9C172.42,-27.63 182.46,-26.34 192.25,-25.08"/>
<polygon fill="#63b8ff" stroke="#63b8ff" points="192.62,-28.56 202.09,-23.81 191.73,-21.62 192.62,-28.56"/>
</a>
</g>
</g>
</g>
</svg>
