<?xml version="1.0" encoding="UTF-8" standalone="no"?>
<!DOCTYPE svg PUBLIC "-//W3C//DTD SVG 1.1//EN"
 "http://www.w3.org/Graphics/SVG/1.1/DTD/svg11.dtd">
<!-- Generated by graphviz version 10.0.1 (20240210.2158)
 -->
<!-- Title: ml::maths::common::CPRNG::CXorOShiro128Plus::toString Pages: 1 -->
<!--zoomable 342 -->

<svg id="main" version="1.1" xmlns="http://www.w3.org/2000/svg" xmlns:xlink="http://www.w3.org/1999/xlink" xml:space="preserve" onload="init(evt)">
<style type="text/css"><![CDATA[
.node, .edge {opacity: 0.7;}
.node.selected, .edge.selected {opacity: 1;}
.edge:hover path { stroke: red; }
.edge:hover polygon { stroke: red; fill: red; }
]]></style>

<defs>
  <circle id="rim" cx="0" cy="0" r="7"/>
  <circle id="rim2" cx="0" cy="0" r="3.5"/>
  <g id="zoomPlus">
    <use xlink:href="#rim" fill="#404040"><set attributeName="fill" to="#808080" begin="zoomplus.mouseover" end="zoomplus.mouseout"/></use>
    <path d="M-4,0h8M0,-4v8" fill="none" stroke="white" stroke-width="1.5" pointer-events="none"/>
  </g>
  <g id="zoomMin">
    <use xlink:href="#rim" fill="#404040"><set attributeName="fill" to="#808080" begin="zoomminus.mouseover" end="zoomminus.mouseout"/></use>
    <path d="M-4,0h8" fill="none" stroke="white" stroke-width="1.5" pointer-events="none"/>
  </g>
  <g id="arrowUp" transform="translate(30 24)">
    <use xlink:href="#rim"/>
    <path pointer-events="none" fill="none" stroke="white" stroke-width="1.5" d="M0,-3.0v7 M-2.5,-0.5L0,-3.0L2.5,-0.5"/>
  </g>
  <g id="arrowRight" transform="rotate(90) translate(36 -43)">
    <use xlink:href="#rim"/>
    <path pointer-events="none" fill="none" stroke="white" stroke-width="1.5" d="M0,-3.0v7 M-2.5,-0.5L0,-3.0L2.5,-0.5"/>
  </g>
  <g id="arrowDown" transform="rotate(180) translate(-30 -48)">
    <use xlink:href="#rim"/>
    <path pointer-events="none" fill="none" stroke="white" stroke-width="1.5" d="M0,-3.0v7 M-2.5,-0.5L0,-3.0L2.5,-0.5"/>
  </g>
  <g id="arrowLeft" transform="rotate(270) translate(-36 17)">
    <use xlink:href="#rim"/>
    <path pointer-events="none" fill="none" stroke="white" stroke-width="1.5" d="M0,-3.0v7 M-2.5,-0.5L0,-3.0L2.5,-0.5"/>
  </g>
  <g id="resetDef">
    <use xlink:href="#rim2" fill="#404040"><set attributeName="fill" to="#808080" begin="reset.mouseover" end="reset.mouseout"/></use>
  </g>
</defs>
<script type="application/ecmascript">
var viewWidth = 743;
var viewHeight = 342;
var sectionId = 'dynsection-12';
</script>
<script type="application/ecmascript" xlink:href="../../svg.min.js"/>
<svg id="graph" class="graph">
<g id="viewport">
<title>ml::maths::common::CPRNG::CXorOShiro128Plus::toString</title>
<!-- Node1 -->
<g id="Node000001" class="node">
<title>Node1</title>
<g id="a_Node000001"><a xlink:title="Persist to a string.">
<polygon fill="#999999" stroke="#666666" points="735.25,-169.5 588.75,-169.5 588.75,-127.75 735.25,-127.75 735.25,-169.5"/>
<text text-anchor="start" x="596.75" y="-156" font-family="Helvetica,sans-Serif" font-size="10.00">ml::maths::common::</text>
<text text-anchor="start" x="596.75" y="-144.75" font-family="Helvetica,sans-Serif" font-size="10.00">CPRNG::CXorOShiro128Plus</text>
<text text-anchor="middle" x="662" y="-133.5" font-family="Helvetica,sans-Serif" font-size="10.00">::toString</text>
</a>
</g>
</g>
<!-- Node2 -->
<g id="Node000002" class="node">
<title>Node2</title>
<g id="a_Node000002"><a xlink:href="../../d1/d92/classml_1_1maths_1_1common_1_1_c_bayesian_optimisation.html#a94afe530cefc662df551daeca82331b9" target="_top" xlink:title="Persist by passing information to inserter.">
<polygon fill="white" stroke="#666666" points="535.5,-326.5 416.75,-326.5 416.75,-284.75 535.5,-284.75 535.5,-326.5"/>
<text text-anchor="start" x="424.75" y="-313" font-family="Helvetica,sans-Serif" font-size="10.00">ml::maths::common::</text>
<text text-anchor="start" x="424.75" y="-301.75" font-family="Helvetica,sans-Serif" font-size="10.00">CBayesianOptimisation</text>
<text text-anchor="middle" x="476.12" y="-290.5" font-family="Helvetica,sans-Serif" font-size="10.00">::acceptPersistInserter</text>
</a>
</g>
</g>
<!-- Node1&#45;&gt;Node2 -->
<g id="edge1_Node000001_Node000002" class="edge">
<title>Node1&#45;&gt;Node2</title>
<g id="a_edge1_Node000001_Node000002"><a xlink:title=" ">
<path fill="none" stroke="#63b8ff" d="M638.9,-179.08C618.71,-205.32 586.87,-242.9 552.75,-268.62 545.05,-274.43 536.29,-279.7 527.53,-284.33"/>
<polygon fill="#63b8ff" stroke="#63b8ff" points="641.64,-181.27 644.88,-171.18 636.05,-177.04 641.64,-181.27"/>
</a>
</g>
</g>
<!-- Node5 -->
<g id="Node000005" class="node">
<title>Node5</title>
<g id="a_Node000005"><a xlink:href="../../d0/d3b/classml_1_1maths_1_1common_1_1_c_k_means_online.html#a89c0d065c001246bf57f6df451adf864" target="_top" xlink:title="Persist state by passing to the supplied inserter.">
<polygon fill="white" stroke="#666666" points="552.75,-259.5 399.5,-259.5 399.5,-217.75 552.75,-217.75 552.75,-259.5"/>
<text text-anchor="start" x="407.5" y="-246" font-family="Helvetica,sans-Serif" font-size="10.00">ml::maths::common::</text>
<text text-anchor="start" x="407.5" y="-234.75" font-family="Helvetica,sans-Serif" font-size="10.00">CKMeansOnline::acceptPersist</text>
<text text-anchor="middle" x="476.12" y="-223.5" font-family="Helvetica,sans-Serif" font-size="10.00">Inserter</text>
</a>
</g>
</g>
<!-- Node1&#45;&gt;Node5 -->
<g id="edge4_Node000001_Node000005" class="edge">
<title>Node1&#45;&gt;Node5</title>
<g id="a_edge4_Node000001_Node000005"><a xlink:title=" ">
<path fill="none" stroke="#63b8ff" d="M615.59,-175.5C596.48,-186.36 573.82,-198.66 552.75,-208.62 546.49,-211.58 539.86,-214.51 533.23,-217.31"/>
<polygon fill="#63b8ff" stroke="#63b8ff" points="617.27,-178.57 624.21,-170.56 613.79,-172.49 617.27,-178.57"/>
</a>
</g>
</g>
<!-- Node8 -->
<g id="Node000008" class="node">
<title>Node8</title>
<g id="a_Node000008"><a xlink:href="../../d9/db4/classml_1_1maths_1_1common_1_1_c_x_means_online.html#a3941e6bfcb14e67cb0431ead8dce2965" target="_top" xlink:title="Persist state by passing information to the supplied inserter.">
<polygon fill="white" stroke="#666666" points="552.75,-199.5 399.5,-199.5 399.5,-157.75 552.75,-157.75 552.75,-199.5"/>
<text text-anchor="start" x="407.5" y="-186" font-family="Helvetica,sans-Serif" font-size="10.00">ml::maths::common::</text>
<text text-anchor="start" x="407.5" y="-174.75" font-family="Helvetica,sans-Serif" font-size="10.00">CXMeansOnline::acceptPersist</text>
<text text-anchor="middle" x="476.12" y="-163.5" font-family="Helvetica,sans-Serif" font-size="10.00">Inserter</text>
</a>
</g>
</g>
<!-- Node1&#45;&gt;Node8 -->
<g id="edge7_Node000001_Node000008" class="edge">
<title>Node1&#45;&gt;Node8</title>
<g id="a_edge7_Node000001_Node000008"><a xlink:title=" ">
<path fill="none" stroke="#63b8ff" d="M577.13,-162.31C569.15,-163.61 561.09,-164.93 553.2,-166.21"/>
<polygon fill="#63b8ff" stroke="#63b8ff" points="577.53,-165.79 586.83,-160.73 576.4,-158.88 577.53,-165.79"/>
</a>
</g>
</g>
<!-- Node10 -->
<g id="Node000010" class="node">
<title>Node10</title>
<g id="a_Node000010"><a xlink:href="../../d5/d9a/classml_1_1maths_1_1time__series_1_1_c_decay_rate_controller.html#af24ea7f945df417b643de0c2bb5b0356" target="_top" xlink:title="Persist by passing state to inserter.">
<polygon fill="white" stroke="#666666" points="536.62,-139.5 415.62,-139.5 415.62,-97.75 536.62,-97.75 536.62,-139.5"/>
<text text-anchor="start" x="423.62" y="-126" font-family="Helvetica,sans-Serif" font-size="10.00">ml::maths::time_series</text>
<text text-anchor="start" x="423.62" y="-114.75" font-family="Helvetica,sans-Serif" font-size="10.00">::CDecayRateController</text>
<text text-anchor="middle" x="476.12" y="-103.5" font-family="Helvetica,sans-Serif" font-size="10.00">::acceptPersistInserter</text>
</a>
</g>
</g>
<!-- Node1&#45;&gt;Node10 -->
<g id="edge9_Node000001_Node000010" class="edge">
<title>Node1&#45;&gt;Node10</title>
<g id="a_edge9_Node000001_Node000010"><a xlink:title=" ">
<path fill="none" stroke="#63b8ff" d="M577.02,-134.92C563.47,-132.71 549.68,-130.46 536.85,-128.37"/>
<polygon fill="#63b8ff" stroke="#63b8ff" points="576.4,-138.37 586.83,-136.52 577.53,-131.46 576.4,-138.37"/>
</a>
</g>
</g>
<!-- Node12 -->
<g id="Node000012" class="node">
<title>Node12</title>
<g id="a_Node000012"><a xlink:href="../../d1/d1d/classml_1_1maths_1_1time__series_1_1_c_seasonal_component.html#aeb29980902a370584104bbb6a3dd24e1" target="_top" xlink:title="Persist state by passing information to inserter.">
<polygon fill="white" stroke="#666666" points="539.25,-79.5 413,-79.5 413,-37.75 539.25,-37.75 539.25,-79.5"/>
<text text-anchor="start" x="421" y="-66" font-family="Helvetica,sans-Serif" font-size="10.00">ml::maths::time_series</text>
<text text-anchor="start" x="421" y="-54.75" font-family="Helvetica,sans-Serif" font-size="10.00">::CSeasonalComponent::</text>
<text text-anchor="middle" x="476.12" y="-43.5" font-family="Helvetica,sans-Serif" font-size="10.00">acceptPersistInserter</text>
</a>
</g>
</g>
<!-- Node1&#45;&gt;Node12 -->
<g id="edge11_Node000001_Node000012" class="edge">
<title>Node1&#45;&gt;Node12</title>
<g id="a_edge11_Node000001_Node000012"><a xlink:title=" ">
<path fill="none" stroke="#63b8ff" d="M615.59,-121.75C596.48,-110.89 573.82,-98.59 552.75,-88.62 546.49,-85.67 539.86,-82.74 533.23,-79.94"/>
<polygon fill="#63b8ff" stroke="#63b8ff" points="613.79,-124.76 624.21,-126.69 617.27,-118.68 613.79,-124.76"/>
</a>
</g>
</g>
<!-- Node13 -->
<g id="Node000013" class="node">
<title>Node13</title>
<g id="a_Node000013"><a xlink:href="../../d6/d83/_c_p_r_n_g_test_8cc.html#ab2bf31b5f5e1d367567b0408b75f8e72" target="_top" xlink:title=" ">
<polygon fill="white" stroke="#666666" points="549.75,-19.25 402.5,-19.25 402.5,0 549.75,0 549.75,-19.25"/>
<text text-anchor="middle" x="476.12" y="-5.75" font-family="Helvetica,sans-Serif" font-size="10.00">BOOST_AUTO_TEST_CASE</text>
</a>
</g>
</g>
<!-- Node1&#45;&gt;Node13 -->
<g id="edge12_Node000001_Node000013" class="edge">
<title>Node1&#45;&gt;Node13</title>
<g id="a_edge12_Node000001_Node000013"><a xlink:title=" ">
<path fill="none" stroke="#63b8ff" d="M641.39,-118.14C622.11,-90.63 590.17,-51.13 552.75,-28.62 546.72,-25 540.02,-22.06 533.16,-19.68"/>
<polygon fill="#63b8ff" stroke="#63b8ff" points="638.28,-119.8 646.82,-126.07 644.06,-115.84 638.28,-119.8"/>
</a>
</g>
</g>
<!-- Node3 -->
<g id="Node000003" class="node">
<title>Node3</title>
<g id="a_Node000003"><a xlink:href="../../d0/d57/namespaceanonymous__namespace_02_c_bayesian_optimisation_test_8cc_03.html#a58322eb9c36cf4e07cf238194be27129" target="_top" xlink:title=" ">
<polygon fill="white" stroke="#666666" points="363.5,-333.5 183.25,-333.5 183.25,-291.75 363.5,-291.75 363.5,-333.5"/>
<text text-anchor="start" x="191.25" y="-320" font-family="Helvetica,sans-Serif" font-size="10.00">anonymous_namespace</text>
<text text-anchor="start" x="191.25" y="-308.75" font-family="Helvetica,sans-Serif" font-size="10.00">{CBayesianOptimisationTest</text>
<text text-anchor="middle" x="273.38" y="-297.5" font-family="Helvetica,sans-Serif" font-size="10.00">::cc}::testPersistRestoreIsIdempotent</text>
</a>
</g>
</g>
<!-- Node2&#45;&gt;Node3 -->
<g id="edge2_Node000002_Node000003" class="edge">
<title>Node2&#45;&gt;Node3</title>
<g id="a_edge2_Node000002_Node000003"><a xlink:title=" ">
<path fill="none" stroke="#63b8ff" d="M405.01,-308.07C391.66,-308.54 377.52,-309.03 363.66,-309.51"/>
<polygon fill="#63b8ff" stroke="#63b8ff" points="405.14,-311.57 415.01,-307.72 404.89,-304.57 405.14,-311.57"/>
</a>
</g>
</g>
<!-- Node4 -->
<g id="Node000004" class="node">
<title>Node4</title>
<g id="a_Node000004"><a xlink:href="../../dc/d91/_c_bayesian_optimisation_test_8cc.html#a52d376a907c6ff06c8d34fac289179aa" target="_top" xlink:title=" ">
<polygon fill="white" stroke="#666666" points="147.25,-322.25 0,-322.25 0,-303 147.25,-303 147.25,-322.25"/>
<text text-anchor="middle" x="73.62" y="-308.75" font-family="Helvetica,sans-Serif" font-size="10.00">BOOST_AUTO_TEST_CASE</text>
</a>
</g>
</g>
<!-- Node3&#45;&gt;Node4 -->
<g id="edge3_Node000003_Node000004" class="edge">
<title>Node3&#45;&gt;Node4</title>
<g id="a_edge3_Node000003_Node000004"><a xlink:title=" ">
<path fill="none" stroke="#63b8ff" d="M171.43,-312.62C163.41,-312.62 155.42,-312.62 147.65,-312.62"/>
<polygon fill="#63b8ff" stroke="#63b8ff" points="171.24,-316.13 181.24,-312.63 171.24,-309.13 171.24,-316.13"/>
</a>
</g>
</g>
<!-- Node6 -->
<g id="Node000006" class="node">
<title>Node6</title>
<g id="a_Node000006"><a xlink:href="../../d5/d5b/classml_1_1maths_1_1common_1_1_c_x_means_online_1_1_c_cluster.html#a15511fbecb154de25661208bfc20dd71" target="_top" xlink:title="Persist state by passing information to the supplied inserter.">
<polygon fill="white" stroke="#666666" points="339.5,-273.5 207.25,-273.5 207.25,-231.75 339.5,-231.75 339.5,-273.5"/>
<text text-anchor="start" x="215.25" y="-260" font-family="Helvetica,sans-Serif" font-size="10.00">ml::maths::common::</text>
<text text-anchor="start" x="215.25" y="-248.75" font-family="Helvetica,sans-Serif" font-size="10.00">CXMeansOnline::CCluster</text>
<text text-anchor="middle" x="273.38" y="-237.5" font-family="Helvetica,sans-Serif" font-size="10.00">::acceptPersistInserter</text>
</a>
</g>
</g>
<!-- Node5&#45;&gt;Node6 -->
<g id="edge5_Node000005_Node000006" class="edge">
<title>Node5&#45;&gt;Node6</title>
<g id="a_edge5_Node000005_Node000006"><a xlink:title=" ">
<path fill="none" stroke="#63b8ff" d="M388.12,-244.69C371.93,-245.82 355.27,-246.98 339.86,-248.06"/>
<polygon fill="#63b8ff" stroke="#63b8ff" points="387.99,-248.21 397.72,-244.02 387.5,-241.23 387.99,-248.21"/>
</a>
</g>
</g>
<!-- Node7 -->
<g id="Node000007" class="node">
<title>Node7</title>
<g id="a_Node000007"><a xlink:href="../../d8/dd1/_c_k_means_online_test_8cc.html#a1d68c9c9ad2692e9d6ddacc5a88211ac" target="_top" xlink:title=" ">
<polygon fill="white" stroke="#666666" points="347,-213.25 199.75,-213.25 199.75,-194 347,-194 347,-213.25"/>
<text text-anchor="middle" x="273.38" y="-199.75" font-family="Helvetica,sans-Serif" font-size="10.00">BOOST_AUTO_TEST_CASE</text>
</a>
</g>
</g>
<!-- Node5&#45;&gt;Node7 -->
<g id="edge6_Node000005_Node000007" class="edge">
<title>Node5&#45;&gt;Node7</title>
<g id="a_edge6_Node000005_Node000007"><a xlink:title=" ">
<path fill="none" stroke="#63b8ff" d="M387.92,-223.42C369.08,-220.14 349.61,-216.74 332.22,-213.71"/>
<polygon fill="#63b8ff" stroke="#63b8ff" points="387.29,-226.86 397.74,-225.13 388.49,-219.97 387.29,-226.86"/>
</a>
</g>
</g>
<!-- Node9 -->
<g id="Node000009" class="node">
<title>Node9</title>
<g id="a_Node000009"><a xlink:href="../../d2/d17/_c_x_means_online_test_8cc.html#a1d68c9c9ad2692e9d6ddacc5a88211ac" target="_top" xlink:title=" ">
<polygon fill="white" stroke="#666666" points="347,-176.25 199.75,-176.25 199.75,-157 347,-157 347,-176.25"/>
<text text-anchor="middle" x="273.38" y="-162.75" font-family="Helvetica,sans-Serif" font-size="10.00">BOOST_AUTO_TEST_CASE</text>
</a>
</g>
</g>
<!-- Node8&#45;&gt;Node9 -->
<g id="edge8_Node000008_Node000009" class="edge">
<title>Node8&#45;&gt;Node9</title>
<g id="a_edge8_Node000008_Node000009"><a xlink:title=" ">
<path fill="none" stroke="#63b8ff" d="M387.96,-173.41C374.43,-172.61 360.57,-171.78 347.39,-170.99"/>
<polygon fill="#63b8ff" stroke="#63b8ff" points="387.53,-176.89 397.72,-174 387.95,-169.91 387.53,-176.89"/>
</a>
</g>
</g>
<!-- Node11 -->
<g id="Node000011" class="node">
<title>Node11</title>
<g id="a_Node000011"><a xlink:href="../../d2/d92/_c_decay_rate_controller_test_8cc.html#a1d68c9c9ad2692e9d6ddacc5a88211ac" target="_top" xlink:title=" ">
<polygon fill="white" stroke="#666666" points="347,-128.25 199.75,-128.25 199.75,-109 347,-109 347,-128.25"/>
<text text-anchor="middle" x="273.38" y="-114.75" font-family="Helvetica,sans-Serif" font-size="10.00">BOOST_AUTO_TEST_CASE</text>
</a>
</g>
</g>
<!-- Node10&#45;&gt;Node11 -->
<g id="edge10_Node000010_Node000011" class="edge">
<title>Node10&#45;&gt;Node11</title>
<g id="a_edge10_Node000010_Node000011"><a xlink:title=" ">
<path fill="none" stroke="#63b8ff" d="M403.91,-118.62C385.49,-118.62 365.64,-118.62 347.15,-118.62"/>
<polygon fill="#63b8ff" stroke="#63b8ff" points="403.65,-122.13 413.65,-118.63 403.65,-115.13 403.65,-122.13"/>
</a>
</g>
</g>
</g>
</svg>

<g id="navigator" transform="translate(0 0)" fill="#404254">
  <rect fill="#f2f5e9" fill-opacity="0.5" stroke="#606060" stroke-width=".5" x="0" y="0" width="60" height="60"/>
  <use id="zoomplus" xlink:href="#zoomPlus" x="17" y="9" onmousedown="handleZoom(evt,'in')"/>
  <use id="zoomminus" xlink:href="#zoomMin" x="42" y="9" onmousedown="handleZoom(evt,'out')"/>
  <use id="reset" xlink:href="#resetDef" x="30" y="36" onmousedown="handleReset()"/>
   <use id="arrowup" xlink:href="#arrowUp" x="0" y="0" onmousedown="handlePan(0,-1)"/>
  <use id="arrowright" xlink:href="#arrowRight" x="0" y="0" onmousedown="handlePan(1,0)"/>
  <use id="arrowdown" xlink:href="#arrowDown" x="0" y="0" onmousedown="handlePan(0,1)"/>
  <use id="arrowleft" xlink:href="#arrowLeft" x="0" y="0" onmousedown="handlePan(-1,0)"/>
</g>
<svg viewBox="0 0 15 15" width="100%" height="30px" preserveAspectRatio="xMaxYMin meet">
 <g id="arrow_out" transform="scale(0.3 0.3)">
  <a xlink:href="classml_1_1maths_1_1common_1_1_c_p_r_n_g_1_1_c_xor_o_shiro128_plus_ade2dfc116d155a15eb089bf70a67e174_icgraph_org.svg" target="_base">
   <rect id="button" ry="5" rx="5" y="6" x="6" height="38" width="38"
        fill="#f2f5e9" fill-opacity="0.5" stroke="#606060" stroke-width="1.0"/>
   <path id="arrow"
     d="M 11.500037,31.436501 C 11.940474,20.09759 22.043105,11.32322 32.158766,21.979434 L 37.068811,17.246167 C 37.068811,17.246167 37.088388,32 37.088388,32 L 22.160133,31.978069 C 22.160133,31.978069 26.997745,27.140456 26.997745,27.140456 C 18.528582,18.264221 13.291696,25.230495 11.500037,31.436501 z"
     style="fill:#404040;"/>
  </a>
 </g>
</svg>

<style type='text/css'>
<![CDATA[
[data-mouse-over-selected='false'] { opacity: 0.7; }
[data-mouse-over-selected='true']  { opacity: 1.0; }
]]>
</style>
<script type="application/ecmascript"><![CDATA[
document.addEventListener('DOMContentLoaded', (event) => {
  highlightEdges();
  highlightAdjacentNodes();
});
]]></script>
</svg>
