<?xml version="1.0" encoding="UTF-8" standalone="no"?>
<!DOCTYPE svg PUBLIC "-//W3C//DTD SVG 1.1//EN"
 "http://www.w3.org/Graphics/SVG/1.1/DTD/svg11.dtd">
<!-- Generated by graphviz version 10.0.1 (20240210.2158)
 -->
<!-- Title: lib/model/unittest/Mocks.h Pages: 1 -->
<svg width="531pt" height="105pt"
 viewBox="0.00 0.00 530.62 105.00" xmlns="http://www.w3.org/2000/svg" xmlns:xlink="http://www.w3.org/1999/xlink">
<g id="graph0" class="graph" transform="scale(1 1) rotate(0) translate(4 101)">
<title>lib/model/unittest/Mocks.h</title>
<!-- Node1 -->
<g id="Node000001" class="node">
<title>Node1</title>
<g id="a_Node000001"><a xlink:title=" ">
<polygon fill="#999999" stroke="#666666" points="325.62,-97 235.38,-97 235.38,-66.5 325.62,-66.5 325.62,-97"/>
<text text-anchor="start" x="243.38" y="-83.5" font-family="Helvetica,sans-Serif" font-size="10.00">lib/model/unittest</text>
<text text-anchor="middle" x="280.5" y="-72.25" font-family="Helvetica,sans-Serif" font-size="10.00">/Mocks.h</text>
</a>
</g>
</g>
<!-- Node2 -->
<g id="Node000002" class="node">
<title>Node2</title>
<g id="a_Node000002"><a xlink:href="../../d2/d5e/_c_detection_rule_test_8cc.html" target="_top" xlink:title=" ">
<polygon fill="white" stroke="#666666" points="121,-30.5 0,-30.5 0,0 121,0 121,-30.5"/>
<text text-anchor="start" x="8" y="-17" font-family="Helvetica,sans-Serif" font-size="10.00">lib/model/unittest</text>
<text text-anchor="middle" x="60.5" y="-5.75" font-family="Helvetica,sans-Serif" font-size="10.00">/CDetectionRuleTest.cc</text>
</a>
</g>
</g>
<!-- Node1&#45;&gt;Node2 -->
<g id="edge1_Node000001_Node000002" class="edge">
<title>Node1&#45;&gt;Node2</title>
<g id="a_edge1_Node000001_Node000002"><a xlink:title=" ">
<path fill="none" stroke="#63b8ff" d="M223.91,-64.16C188.9,-53.9 144.36,-40.84 110.63,-30.95"/>
<polygon fill="#63b8ff" stroke="#63b8ff" points="222.88,-67.5 233.46,-66.96 224.85,-60.79 222.88,-67.5"/>
</a>
</g>
</g>
<!-- Node3 -->
<g id="Node000003" class="node">
<title>Node3</title>
<g id="a_Node000003"><a xlink:href="../../d6/d0c/_c_model_details_view_test_8cc.html" target="_top" xlink:title=" ">
<polygon fill="white" stroke="#666666" points="276.25,-30.5 138.75,-30.5 138.75,0 276.25,0 276.25,-30.5"/>
<text text-anchor="start" x="146.75" y="-17" font-family="Helvetica,sans-Serif" font-size="10.00">lib/model/unittest</text>
<text text-anchor="middle" x="207.5" y="-5.75" font-family="Helvetica,sans-Serif" font-size="10.00">/CModelDetailsViewTest.cc</text>
</a>
</g>
</g>
<!-- Node1&#45;&gt;Node3 -->
<g id="edge2_Node000001_Node000003" class="edge">
<title>Node1&#45;&gt;Node3</title>
<g id="a_edge2_Node000001_Node000003"><a xlink:title=" ">
<path fill="none" stroke="#63b8ff" d="M255.59,-58.74C245.16,-49.53 233.32,-39.06 224,-30.83"/>
<polygon fill="#63b8ff" stroke="#63b8ff" points="252.99,-61.11 262.8,-65.11 257.62,-55.87 252.99,-61.11"/>
</a>
</g>
</g>
<!-- Node4 -->
<g id="Node000004" class="node">
<title>Node4</title>
<g id="a_Node000004"><a xlink:href="../../d2/dc4/_c_rule_condition_test_8cc.html" target="_top" xlink:title=" ">
<polygon fill="white" stroke="#666666" points="414.62,-30.5 294.38,-30.5 294.38,0 414.62,0 414.62,-30.5"/>
<text text-anchor="start" x="302.38" y="-17" font-family="Helvetica,sans-Serif" font-size="10.00">lib/model/unittest</text>
<text text-anchor="middle" x="354.5" y="-5.75" font-family="Helvetica,sans-Serif" font-size="10.00">/CRuleConditionTest.cc</text>
</a>
</g>
</g>
<!-- Node1&#45;&gt;Node4 -->
<g id="edge3_Node000001_Node000004" class="edge">
<title>Node1&#45;&gt;Node4</title>
<g id="a_edge3_Node000001_Node000004"><a xlink:title=" ">
<path fill="none" stroke="#63b8ff" d="M305.75,-58.74C316.32,-49.53 328.33,-39.06 337.77,-30.83"/>
<polygon fill="#63b8ff" stroke="#63b8ff" points="303.67,-55.91 298.43,-65.12 308.27,-61.19 303.67,-55.91"/>
</a>
</g>
</g>
<!-- Node5 -->
<g id="Node000005" class="node">
<title>Node5</title>
<g id="a_Node000005"><a xlink:href="../../d7/d66/_mocks_8cc.html" target="_top" xlink:title=" ">
<polygon fill="white" stroke="#666666" points="522.62,-30.5 432.38,-30.5 432.38,0 522.62,0 522.62,-30.5"/>
<text text-anchor="start" x="440.38" y="-17" font-family="Helvetica,sans-Serif" font-size="10.00">lib/model/unittest</text>
<text text-anchor="middle" x="477.5" y="-5.75" font-family="Helvetica,sans-Serif" font-size="10.00">/Mocks.cc</text>
</a>
</g>
</g>
<!-- Node1&#45;&gt;Node5 -->
<g id="edge4_Node000001_Node000005" class="edge">
<title>Node1&#45;&gt;Node5</title>
<g id="a_edge4_Node000001_Node000005"><a xlink:title=" ">
<path fill="none" stroke="#63b8ff" d="M336.11,-62.54C366.63,-52.55 403.99,-40.32 432.63,-30.94"/>
<polygon fill="#63b8ff" stroke="#63b8ff" points="335.06,-59.21 326.64,-65.64 337.23,-65.86 335.06,-59.21"/>
</a>
</g>
</g>
</g>
</svg>
