<?xml version="1.0" encoding="UTF-8" standalone="no"?>
<!DOCTYPE svg PUBLIC "-//W3C//DTD SVG 1.1//EN"
 "http://www.w3.org/Graphics/SVG/1.1/DTD/svg11.dtd">
<!-- Generated by graphviz version 10.0.1 (20240210.2158)
 -->
<!-- Title: include/maths/common/CQDigest.h Pages: 1 -->
<svg width="595pt" height="149pt"
 viewBox="0.00 0.00 594.88 149.00" xmlns="http://www.w3.org/2000/svg" xmlns:xlink="http://www.w3.org/1999/xlink">
<g id="graph0" class="graph" transform="scale(1 1) rotate(0) translate(4 145)">
<title>include/maths/common/CQDigest.h</title>
<!-- Node1 -->
<g id="Node000001" class="node">
<title>Node1</title>
<g id="a_Node000001"><a xlink:title=" ">
<polygon fill="#999999" stroke="#666666" points="451,-141 333.75,-141 333.75,-110.5 451,-110.5 451,-141"/>
<text text-anchor="start" x="341.75" y="-127.5" font-family="Helvetica,sans-Serif" font-size="10.00">include/maths/common</text>
<text text-anchor="middle" x="392.38" y="-116.25" font-family="Helvetica,sans-Serif" font-size="10.00">/CQDigest.h</text>
</a>
</g>
</g>
<!-- Node2 -->
<g id="Node000002" class="node">
<title>Node2</title>
<g id="a_Node000002"><a xlink:href="../../db/d30/_c_non_copyable_8h.html" target="_top" xlink:title=" ">
<polygon fill="white" stroke="#666666" points="112.75,-74.5 0,-74.5 0,-55.25 112.75,-55.25 112.75,-74.5"/>
<text text-anchor="middle" x="56.38" y="-61" font-family="Helvetica,sans-Serif" font-size="10.00">core/CNonCopyable.h</text>
</a>
</g>
</g>
<!-- Node1&#45;&gt;Node2 -->
<g id="edge1_Node000001_Node000002" class="edge">
<title>Node1&#45;&gt;Node2</title>
<g id="a_edge1_Node000001_Node000002"><a xlink:title=" ">
<path fill="none" stroke="#63b8ff" d="M333.46,-114.43C273.49,-103.92 180.83,-87.68 119.41,-76.92"/>
<polygon fill="#63b8ff" stroke="#63b8ff" points="120.26,-73.52 109.81,-75.24 119.06,-80.41 120.26,-73.52"/>
</a>
</g>
</g>
<!-- Node4 -->
<g id="Node000004" class="node">
<title>Node4</title>
<g id="a_Node000004"><a xlink:href="../../d2/de5/maths_2common_2_import_export_8h.html" target="_top" xlink:title=" ">
<polygon fill="white" stroke="#666666" points="281.88,-74.5 130.88,-74.5 130.88,-55.25 281.88,-55.25 281.88,-74.5"/>
<text text-anchor="middle" x="206.38" y="-61" font-family="Helvetica,sans-Serif" font-size="10.00">maths/common/ImportExport.h</text>
</a>
</g>
</g>
<!-- Node1&#45;&gt;Node4 -->
<g id="edge3_Node000001_Node000004" class="edge">
<title>Node1&#45;&gt;Node4</title>
<g id="a_edge3_Node000001_Node000004"><a xlink:title=" ">
<path fill="none" stroke="#63b8ff" d="M345.92,-110.05C315.1,-100.29 275.1,-87.63 245.82,-78.36"/>
<polygon fill="#63b8ff" stroke="#63b8ff" points="247.21,-75.13 236.62,-75.45 245.09,-81.8 247.21,-75.13"/>
</a>
</g>
</g>
<!-- Node5 -->
<g id="Node000005" class="node">
<title>Node5</title>
<g id="a_Node000005"><a xlink:title=" ">
<polygon fill="#e0e0e0" stroke="#999999" points="345,-74.5 299.75,-74.5 299.75,-55.25 345,-55.25 345,-74.5"/>
<text text-anchor="middle" x="322.38" y="-61" font-family="Helvetica,sans-Serif" font-size="10.00">cstdint</text>
</a>
</g>
</g>
<!-- Node1&#45;&gt;Node5 -->
<g id="edge4_Node000001_Node000005" class="edge">
<title>Node1&#45;&gt;Node5</title>
<g id="a_edge4_Node000001_Node000005"><a xlink:title=" ">
<path fill="none" stroke="#63b8ff" d="M375.07,-110.2C365.03,-101.75 352.35,-91.08 341.94,-82.33"/>
<polygon fill="#63b8ff" stroke="#63b8ff" points="344.23,-79.68 334.32,-75.93 339.72,-85.04 344.23,-79.68"/>
</a>
</g>
</g>
<!-- Node6 -->
<g id="Node000006" class="node">
<title>Node6</title>
<g id="a_Node000006"><a xlink:title=" ">
<polygon fill="#e0e0e0" stroke="#999999" points="421.38,-74.5 363.38,-74.5 363.38,-55.25 421.38,-55.25 421.38,-74.5"/>
<text text-anchor="middle" x="392.38" y="-61" font-family="Helvetica,sans-Serif" font-size="10.00">functional</text>
</a>
</g>
</g>
<!-- Node1&#45;&gt;Node6 -->
<g id="edge5_Node000001_Node000006" class="edge">
<title>Node1&#45;&gt;Node6</title>
<g id="a_edge5_Node000001_Node000006"><a xlink:title=" ">
<path fill="none" stroke="#63b8ff" d="M392.38,-110.2C392.38,-102.96 392.38,-94.09 392.38,-86.19"/>
<polygon fill="#63b8ff" stroke="#63b8ff" points="395.88,-86.46 392.38,-76.46 388.88,-86.46 395.88,-86.46"/>
</a>
</g>
</g>
<!-- Node7 -->
<g id="Node000007" class="node">
<title>Node7</title>
<g id="a_Node000007"><a xlink:title=" ">
<polygon fill="#e0e0e0" stroke="#999999" points="467.77,-74.5 438.98,-74.5 438.98,-55.25 467.77,-55.25 467.77,-74.5"/>
<text text-anchor="middle" x="453.38" y="-61" font-family="Helvetica,sans-Serif" font-size="10.00">list</text>
</a>
</g>
</g>
<!-- Node1&#45;&gt;Node7 -->
<g id="edge6_Node000001_Node000007" class="edge">
<title>Node1&#45;&gt;Node7</title>
<g id="a_edge6_Node000001_Node000007"><a xlink:title=" ">
<path fill="none" stroke="#63b8ff" d="M407.45,-110.2C416.03,-101.92 426.81,-91.52 435.77,-82.87"/>
<polygon fill="#63b8ff" stroke="#63b8ff" points="438.12,-85.47 442.88,-76 433.26,-80.43 438.12,-85.47"/>
</a>
</g>
</g>
<!-- Node8 -->
<g id="Node000008" class="node">
<title>Node8</title>
<g id="a_Node000008"><a xlink:title=" ">
<polygon fill="#e0e0e0" stroke="#999999" points="525.38,-74.5 485.38,-74.5 485.38,-55.25 525.38,-55.25 525.38,-74.5"/>
<text text-anchor="middle" x="505.38" y="-61" font-family="Helvetica,sans-Serif" font-size="10.00">string</text>
</a>
</g>
</g>
<!-- Node1&#45;&gt;Node8 -->
<g id="edge7_Node000001_Node000008" class="edge">
<title>Node1&#45;&gt;Node8</title>
<g id="a_edge7_Node000001_Node000008"><a xlink:title=" ">
<path fill="none" stroke="#63b8ff" d="M420.6,-110.05C438.14,-100.91 460.58,-89.22 477.96,-80.16"/>
<polygon fill="#63b8ff" stroke="#63b8ff" points="479.45,-83.33 486.7,-75.6 476.22,-77.12 479.45,-83.33"/>
</a>
</g>
</g>
<!-- Node9 -->
<g id="Node000009" class="node">
<title>Node9</title>
<g id="a_Node000009"><a xlink:title=" ">
<polygon fill="#e0e0e0" stroke="#999999" points="586.88,-74.5 543.88,-74.5 543.88,-55.25 586.88,-55.25 586.88,-74.5"/>
<text text-anchor="middle" x="565.38" y="-61" font-family="Helvetica,sans-Serif" font-size="10.00">vector</text>
</a>
</g>
</g>
<!-- Node1&#45;&gt;Node9 -->
<g id="edge8_Node000001_Node000009" class="edge">
<title>Node1&#45;&gt;Node9</title>
<g id="a_edge8_Node000001_Node000009"><a xlink:title=" ">
<path fill="none" stroke="#63b8ff" d="M435.58,-110.05C465.84,-99.75 505.62,-86.21 533.13,-76.85"/>
<polygon fill="#63b8ff" stroke="#63b8ff" points="533.97,-80.26 542.31,-73.72 531.72,-73.63 533.97,-80.26"/>
</a>
</g>
</g>
<!-- Node3 -->
<g id="Node000003" class="node">
<title>Node3</title>
<g id="a_Node000003"><a xlink:href="../../dd/d0e/core_2_import_export_8h.html" target="_top" xlink:title=" ">
<polygon fill="white" stroke="#666666" points="107.5,-19.25 5.25,-19.25 5.25,0 107.5,0 107.5,-19.25"/>
<text text-anchor="middle" x="56.38" y="-5.75" font-family="Helvetica,sans-Serif" font-size="10.00">core/ImportExport.h</text>
</a>
</g>
</g>
<!-- Node2&#45;&gt;Node3 -->
<g id="edge2_Node000002_Node000003" class="edge">
<title>Node2&#45;&gt;Node3</title>
<g id="a_edge2_Node000002_Node000003"><a xlink:title=" ">
<path fill="none" stroke="#63b8ff" d="M56.38,-55.08C56.38,-48.57 56.38,-39.42 56.38,-31.12"/>
<polygon fill="#63b8ff" stroke="#63b8ff" points="59.88,-31.12 56.38,-21.12 52.88,-31.12 59.88,-31.12"/>
</a>
</g>
</g>
</g>
</svg>
