<?xml version="1.0" encoding="UTF-8" standalone="no"?>
<!DOCTYPE svg PUBLIC "-//W3C//DTD SVG 1.1//EN"
 "http://www.w3.org/Graphics/SVG/1.1/DTD/svg11.dtd">
<!-- Generated by graphviz version 10.0.1 (20240210.2158)
 -->
<!-- Title: ml::model::CTokenListDataCategorizerBase::computeCategory Pages: 1 -->
<svg width="790pt" height="642pt"
 viewBox="0.00 0.00 789.75 641.50" xmlns="http://www.w3.org/2000/svg" xmlns:xlink="http://www.w3.org/1999/xlink">
<g id="graph0" class="graph" transform="scale(1 1) rotate(0) translate(4 637.5)">
<title>ml::model::CTokenListDataCategorizerBase::computeCategory</title>
<!-- Node1 -->
<g id="Node000001" class="node">
<title>Node1</title>
<g id="a_Node000001"><a xlink:title=" ">
<polygon fill="#999999" stroke="#666666" points="172,-302.5 0,-302.5 0,-272 172,-272 172,-302.5"/>
<text text-anchor="start" x="8" y="-289" font-family="Helvetica,sans-Serif" font-size="10.00">ml::model::CTokenListData</text>
<text text-anchor="middle" x="86" y="-277.75" font-family="Helvetica,sans-Serif" font-size="10.00">CategorizerBase::computeCategory</text>
</a>
</g>
</g>
<!-- Node2 -->
<g id="Node000002" class="node">
<title>Node2</title>
<g id="a_Node000002"><a xlink:href="../../dc/d68/classml_1_1model_1_1_c_token_list_data_categorizer_base.html#aa05e1d6efc7248cb68b98058f966faef" target="_top" xlink:title="Add a match to an existing category.">
<polygon fill="white" stroke="#666666" points="388.25,-619.5 211,-619.5 211,-589 388.25,-589 388.25,-619.5"/>
<text text-anchor="start" x="219" y="-606" font-family="Helvetica,sans-Serif" font-size="10.00">ml::model::CTokenListData</text>
<text text-anchor="middle" x="299.62" y="-594.75" font-family="Helvetica,sans-Serif" font-size="10.00">CategorizerBase::addCategoryMatch</text>
</a>
</g>
</g>
<!-- Node1&#45;&gt;Node2 -->
<g id="edge1_Node000001_Node000002" class="edge">
<title>Node1&#45;&gt;Node2</title>
<g id="a_edge1_Node000001_Node000002"><a xlink:title=" ">
<path fill="none" stroke="#63b8ff" d="M89.87,-302.71C99.05,-348.11 131.66,-482.8 208,-561.25 216.92,-570.42 228.19,-577.87 239.72,-583.83"/>
<polygon fill="#63b8ff" stroke="#63b8ff" points="237.97,-586.87 248.5,-588.03 241,-580.56 237.97,-586.87"/>
</a>
</g>
</g>
<!-- Node3 -->
<g id="Node000003" class="node">
<title>Node3</title>
<g id="a_Node000003"><a xlink:href="../../dc/d68/classml_1_1model_1_1_c_token_list_data_categorizer_base.html#af76a6f9a170d56b50222cb8883a501c4" target="_top" xlink:title="Is the category considered rare?">
<polygon fill="white" stroke="#666666" points="616.5,-633.5 427.25,-633.5 427.25,-603 616.5,-603 616.5,-633.5"/>
<text text-anchor="start" x="435.25" y="-620" font-family="Helvetica,sans-Serif" font-size="10.00">ml::model::CTokenListData</text>
<text text-anchor="middle" x="521.88" y="-608.75" font-family="Helvetica,sans-Serif" font-size="10.00">CategorizerBase::isCategoryCountRare</text>
</a>
</g>
</g>
<!-- Node1&#45;&gt;Node3 -->
<g id="edge16_Node000001_Node000003" class="edge">
<title>Node1&#45;&gt;Node3</title>
<g id="a_edge16_Node000001_Node000003"><a xlink:title=" ">
<path fill="none" stroke="#63b8ff" d="M91.89,-302.99C104.73,-341.86 142.93,-443.4 208,-501.25 227.74,-518.8 402.25,-584.71 427.25,-593.25 433.42,-595.36 439.87,-597.4 446.37,-599.35"/>
<polygon fill="#63b8ff" stroke="#63b8ff" points="445.28,-602.68 455.86,-602.11 447.24,-595.96 445.28,-602.68"/>
</a>
</g>
</g>
<!-- Node4 -->
<g id="Node000004" class="node">
<title>Node4</title>
<g id="a_Node000004"><a xlink:href="../../dc/d68/classml_1_1model_1_1_c_token_list_data_categorizer_base.html#af0bbd60e14a2d5b958a8330a4573622e" target="_top" xlink:title=" ">
<polygon fill="white" stroke="#666666" points="383.38,-492.12 215.88,-492.12 215.88,-450.38 383.38,-450.38 383.38,-492.12"/>
<text text-anchor="start" x="223.88" y="-478.62" font-family="Helvetica,sans-Serif" font-size="10.00">ml::model::CTokenListData</text>
<text text-anchor="start" x="223.88" y="-467.38" font-family="Helvetica,sans-Serif" font-size="10.00">CategorizerBase::addPretokenised</text>
<text text-anchor="middle" x="299.62" y="-456.12" font-family="Helvetica,sans-Serif" font-size="10.00">Tokens</text>
</a>
</g>
</g>
<!-- Node1&#45;&gt;Node4 -->
<g id="edge3_Node000001_Node000004" class="edge">
<title>Node1&#45;&gt;Node4</title>
<g id="a_edge3_Node000001_Node000004"><a xlink:title=" ">
<path fill="none" stroke="#63b8ff" d="M95.09,-302.82C111.94,-333.74 153.74,-403.14 208,-441.25 209.59,-442.36 211.21,-443.44 212.88,-444.47"/>
<polygon fill="#63b8ff" stroke="#63b8ff" points="211.02,-447.44 221.45,-449.26 214.43,-441.33 211.02,-447.44"/>
</a>
</g>
</g>
<!-- Node11 -->
<g id="Node000011" class="node">
<title>Node11</title>
<g id="a_Node000011"><a xlink:href="../../da/d11/classml_1_1model_1_1_c_data_categorizer.html#a8b6a496f2879b45ef6f8f4941e948afd" target="_top" xlink:title=" ">
<polygon fill="white" stroke="#666666" points="371.38,-432.5 227.88,-432.5 227.88,-402 371.38,-402 371.38,-432.5"/>
<text text-anchor="start" x="235.88" y="-419" font-family="Helvetica,sans-Serif" font-size="10.00">ml::model::CDataCategorizer</text>
<text text-anchor="middle" x="299.62" y="-407.75" font-family="Helvetica,sans-Serif" font-size="10.00">::areNewCategoriesAllowed</text>
</a>
</g>
</g>
<!-- Node1&#45;&gt;Node11 -->
<g id="edge10_Node000001_Node000011" class="edge">
<title>Node1&#45;&gt;Node11</title>
<g id="a_edge10_Node000001_Node000011"><a xlink:title=" ">
<path fill="none" stroke="#63b8ff" d="M100.65,-302.88C121.51,-325.83 163.63,-368.47 208,-392.25 211.41,-394.08 214.97,-395.78 218.62,-397.37"/>
<polygon fill="#63b8ff" stroke="#63b8ff" points="217.09,-400.53 227.68,-400.98 219.68,-394.03 217.09,-400.53"/>
</a>
</g>
</g>
<!-- Node14 -->
<g id="Node000014" class="node">
<title>Node14</title>
<g id="a_Node000014"><a xlink:href="../../dc/d29/classml_1_1model_1_1_c_token_list_category.html#a4bff5eacff3ef1466e3983adf84e9d3b" target="_top" xlink:title=" ">
<polygon fill="white" stroke="#666666" points="376.62,-383.5 222.62,-383.5 222.62,-353 376.62,-353 376.62,-383.5"/>
<text text-anchor="start" x="230.62" y="-370" font-family="Helvetica,sans-Serif" font-size="10.00">ml::model::CTokenListCategory</text>
<text text-anchor="middle" x="299.62" y="-358.75" font-family="Helvetica,sans-Serif" font-size="10.00">::baseTokenIds</text>
</a>
</g>
</g>
<!-- Node1&#45;&gt;Node14 -->
<g id="edge13_Node000001_Node000014" class="edge">
<title>Node1&#45;&gt;Node14</title>
<g id="a_edge13_Node000001_Node000014"><a xlink:title=" ">
<path fill="none" stroke="#63b8ff" d="M116.2,-302.84C140.31,-315.27 175.71,-332.48 208,-344.25 212.9,-346.04 218,-347.75 223.16,-349.39"/>
<polygon fill="#63b8ff" stroke="#63b8ff" points="221.79,-352.63 232.37,-352.19 223.82,-345.93 221.79,-352.63"/>
</a>
</g>
</g>
<!-- Node15 -->
<g id="Node000015" class="node">
<title>Node15</title>
<g id="a_Node000015"><a xlink:href="../../dc/d68/classml_1_1model_1_1_c_token_list_data_categorizer_base.html#a418d74a5dbbf511f78979ea6a38c05db" target="_top" xlink:title=" ">
<polygon fill="white" stroke="#666666" points="376.25,-335.12 223,-335.12 223,-293.38 376.25,-293.38 376.25,-335.12"/>
<text text-anchor="start" x="231" y="-321.62" font-family="Helvetica,sans-Serif" font-size="10.00">ml::model::CTokenListData</text>
<text text-anchor="start" x="231" y="-310.38" font-family="Helvetica,sans-Serif" font-size="10.00">CategorizerBase::discardLatest</text>
<text text-anchor="middle" x="299.62" y="-299.12" font-family="Helvetica,sans-Serif" font-size="10.00">Tokens</text>
</a>
</g>
</g>
<!-- Node1&#45;&gt;Node15 -->
<g id="edge14_Node000001_Node000015" class="edge">
<title>Node1&#45;&gt;Node15</title>
<g id="a_edge14_Node000001_Node000015"><a xlink:title=" ">
<path fill="none" stroke="#63b8ff" d="M172.47,-298.15C185.33,-299.8 198.61,-301.49 211.51,-303.14"/>
<polygon fill="#63b8ff" stroke="#63b8ff" points="210.87,-306.58 221.23,-304.38 211.75,-299.64 210.87,-306.58"/>
</a>
</g>
</g>
<!-- Node16 -->
<g id="Node000016" class="node">
<title>Node16</title>
<g id="a_Node000016"><a xlink:href="../../d6/d7a/classml_1_1model_1_1_c_local_category_id.html#a2b52fe735b5cdbf771546430a767a551" target="_top" xlink:title="Get an object representing a hard failure.">
<polygon fill="white" stroke="#666666" points="367.25,-275.5 232,-275.5 232,-245 367.25,-245 367.25,-275.5"/>
<text text-anchor="start" x="240" y="-262" font-family="Helvetica,sans-Serif" font-size="10.00">ml::model::CLocalCategory</text>
<text text-anchor="middle" x="299.62" y="-250.75" font-family="Helvetica,sans-Serif" font-size="10.00">Id::hardFailure</text>
</a>
</g>
</g>
<!-- Node1&#45;&gt;Node16 -->
<g id="edge15_Node000001_Node000016" class="edge">
<title>Node1&#45;&gt;Node16</title>
<g id="a_edge15_Node000001_Node000016"><a xlink:title=" ">
<path fill="none" stroke="#63b8ff" d="M172.47,-276.35C188.34,-274.32 204.86,-272.21 220.5,-270.22"/>
<polygon fill="#63b8ff" stroke="#63b8ff" points="220.74,-273.72 230.21,-268.98 219.85,-266.77 220.74,-273.72"/>
</a>
</g>
</g>
<!-- Node17 -->
<g id="Node000017" class="node">
<title>Node17</title>
<g id="a_Node000017"><a xlink:href="../../dc/d68/classml_1_1model_1_1_c_token_list_data_categorizer_base.html#a9ad5433dcd9464e445c63eb6d4f0db3a" target="_top" xlink:title=" ">
<polygon fill="white" stroke="#666666" points="391.25,-226.5 208,-226.5 208,-196 391.25,-196 391.25,-226.5"/>
<text text-anchor="start" x="216" y="-213" font-family="Helvetica,sans-Serif" font-size="10.00">ml::model::CTokenListData</text>
<text text-anchor="middle" x="299.62" y="-201.75" font-family="Helvetica,sans-Serif" font-size="10.00">CategorizerBase::maxMatchingWeight</text>
</a>
</g>
</g>
<!-- Node1&#45;&gt;Node17 -->
<g id="edge17_Node000001_Node000017" class="edge">
<title>Node1&#45;&gt;Node17</title>
<g id="a_edge17_Node000001_Node000017"><a xlink:title=" ">
<path fill="none" stroke="#63b8ff" d="M120.96,-271.54C144.96,-260.78 178.06,-246.64 208,-236.25 214.03,-234.16 220.32,-232.12 226.67,-230.18"/>
<polygon fill="#63b8ff" stroke="#63b8ff" points="227.32,-233.63 235.91,-227.42 225.32,-226.93 227.32,-233.63"/>
</a>
</g>
</g>
<!-- Node18 -->
<g id="Node000018" class="node">
<title>Node18</title>
<g id="a_Node000018"><a xlink:href="../../dc/d68/classml_1_1model_1_1_c_token_list_data_categorizer_base.html#a6f3a97fbd9cc96ebac69c6b9acda05e3" target="_top" xlink:title=" ">
<polygon fill="white" stroke="#666666" points="389.75,-177.5 209.5,-177.5 209.5,-147 389.75,-147 389.75,-177.5"/>
<text text-anchor="start" x="217.5" y="-164" font-family="Helvetica,sans-Serif" font-size="10.00">ml::model::CTokenListData</text>
<text text-anchor="middle" x="299.62" y="-152.75" font-family="Helvetica,sans-Serif" font-size="10.00">CategorizerBase::minMatchingWeight</text>
</a>
</g>
</g>
<!-- Node1&#45;&gt;Node18 -->
<g id="edge18_Node000001_Node000018" class="edge">
<title>Node1&#45;&gt;Node18</title>
<g id="a_edge18_Node000001_Node000018"><a xlink:title=" ">
<path fill="none" stroke="#63b8ff" d="M101.51,-271.66C122.81,-249.69 164.73,-209.77 208,-187.25 211.61,-185.37 215.39,-183.62 219.25,-181.99"/>
<polygon fill="#63b8ff" stroke="#63b8ff" points="220.18,-185.38 228.24,-178.5 217.65,-178.85 220.18,-185.38"/>
</a>
</g>
</g>
<!-- Node19 -->
<g id="Node000019" class="node">
<title>Node19</title>
<g id="a_Node000019"><a xlink:href="../../dc/d68/classml_1_1model_1_1_c_token_list_data_categorizer_base.html#a318cde95ce60044fed98925266065705" target="_top" xlink:title="Compute similarity between two vectors.">
<polygon fill="white" stroke="#666666" points="367.25,-128.5 232,-128.5 232,-98 367.25,-98 367.25,-128.5"/>
<text text-anchor="start" x="240" y="-115" font-family="Helvetica,sans-Serif" font-size="10.00">ml::model::CTokenListData</text>
<text text-anchor="middle" x="299.62" y="-103.75" font-family="Helvetica,sans-Serif" font-size="10.00">CategorizerBase::similarity</text>
</a>
</g>
</g>
<!-- Node1&#45;&gt;Node19 -->
<g id="edge19_Node000001_Node000019" class="edge">
<title>Node1&#45;&gt;Node19</title>
<g id="a_edge19_Node000001_Node000019"><a xlink:title=" ">
<path fill="none" stroke="#63b8ff" d="M95.07,-271.96C111.87,-241.65 153.61,-173.8 208,-138.25 212.19,-135.51 216.67,-133.07 221.32,-130.9"/>
<polygon fill="#63b8ff" stroke="#63b8ff" points="222.43,-134.23 230.31,-127.14 219.73,-127.77 222.43,-134.23"/>
</a>
</g>
</g>
<!-- Node20 -->
<g id="Node000020" class="node">
<title>Node20</title>
<g id="a_Node000020"><a xlink:href="../../d6/d7a/classml_1_1model_1_1_c_local_category_id.html#a3c0715602003ea63a265a98b7001cf6a" target="_top" xlink:title="Get an object representing a soft failure.">
<polygon fill="white" stroke="#666666" points="367.25,-79.5 232,-79.5 232,-49 367.25,-49 367.25,-79.5"/>
<text text-anchor="start" x="240" y="-66" font-family="Helvetica,sans-Serif" font-size="10.00">ml::model::CLocalCategory</text>
<text text-anchor="middle" x="299.62" y="-54.75" font-family="Helvetica,sans-Serif" font-size="10.00">Id::softFailure</text>
</a>
</g>
</g>
<!-- Node1&#45;&gt;Node20 -->
<g id="edge20_Node000001_Node000020" class="edge">
<title>Node1&#45;&gt;Node20</title>
<g id="a_edge20_Node000001_Node000020"><a xlink:title=" ">
<path fill="none" stroke="#63b8ff" d="M92.01,-271.63C104.87,-234.13 142.68,-138.46 208,-89.25 212.07,-86.18 216.49,-83.49 221.13,-81.13"/>
<polygon fill="#63b8ff" stroke="#63b8ff" points="222.46,-84.37 230.16,-77.09 219.6,-77.98 222.46,-84.37"/>
</a>
</g>
</g>
<!-- Node21 -->
<g id="Node000021" class="node">
<title>Node21</title>
<g id="a_Node000021"><a xlink:href="../../dc/d68/classml_1_1model_1_1_c_token_list_data_categorizer_base.html#a930b60df98d2c16798b21942e7fdb62f" target="_top" xlink:title=" ">
<polygon fill="white" stroke="#666666" points="378.12,-30.5 221.12,-30.5 221.12,0 378.12,0 378.12,-30.5"/>
<text text-anchor="start" x="229.12" y="-17" font-family="Helvetica,sans-Serif" font-size="10.00">ml::model::CTokenListData</text>
<text text-anchor="middle" x="299.62" y="-5.75" font-family="Helvetica,sans-Serif" font-size="10.00">CategorizerBase::tokeniseString</text>
</a>
</g>
</g>
<!-- Node1&#45;&gt;Node21 -->
<g id="edge21_Node000001_Node000021" class="edge">
<title>Node1&#45;&gt;Node21</title>
<g id="a_edge21_Node000001_Node000021"><a xlink:title=" ">
<path fill="none" stroke="#63b8ff" d="M89.97,-271.77C99.14,-228.27 131.17,-103.95 208,-40.25 209.51,-39 211.08,-37.81 212.7,-36.67"/>
<polygon fill="#63b8ff" stroke="#63b8ff" points="214.38,-39.75 221.15,-31.6 210.78,-33.75 214.38,-39.75"/>
</a>
</g>
</g>
<!-- Node2&#45;&gt;Node3 -->
<g id="edge2_Node000002_Node000003" class="edge">
<title>Node2&#45;&gt;Node3</title>
<g id="a_edge2_Node000002_Node000003"><a xlink:title=" ">
<path fill="none" stroke="#63b8ff" d="M388.62,-609.84C397.47,-610.41 406.51,-610.98 415.52,-611.55"/>
<polygon fill="#63b8ff" stroke="#63b8ff" points="415.17,-615.04 425.37,-612.18 415.61,-608.05 415.17,-615.04"/>
</a>
</g>
</g>
<!-- Node5 -->
<g id="Node000005" class="node">
<title>Node5</title>
<g id="a_Node000005"><a xlink:href="../../dc/d3c/classml_1_1core_1_1_c_csv_line_parser.html#ac2b799a8fc9225349382919ab69bd831" target="_top" xlink:title="Are we at the end of the current line?">
<polygon fill="white" stroke="#666666" points="586.5,-584.5 457.25,-584.5 457.25,-554 586.5,-554 586.5,-584.5"/>
<text text-anchor="start" x="465.25" y="-571" font-family="Helvetica,sans-Serif" font-size="10.00">ml::core::CCsvLineParser</text>
<text text-anchor="middle" x="521.88" y="-559.75" font-family="Helvetica,sans-Serif" font-size="10.00">::atEnd</text>
</a>
</g>
</g>
<!-- Node4&#45;&gt;Node5 -->
<g id="edge4_Node000004_Node000005" class="edge">
<title>Node4&#45;&gt;Node5</title>
<g id="a_edge4_Node000004_Node000005"><a xlink:title=" ">
<path fill="none" stroke="#63b8ff" d="M332.22,-492.59C357.14,-508.64 393.25,-530.2 427.25,-544.25 433.33,-546.76 439.73,-549.09 446.22,-551.23"/>
<polygon fill="#63b8ff" stroke="#63b8ff" points="445.14,-554.56 455.73,-554.2 447.23,-547.88 445.14,-554.56"/>
</a>
</g>
</g>
<!-- Node6 -->
<g id="Node000006" class="node">
<title>Node6</title>
<g id="a_Node000006"><a xlink:href="../../dc/d3c/classml_1_1core_1_1_c_csv_line_parser.html#a8991e90dbdc45aad71dfb48d4f9dd3ff" target="_top" xlink:title="Parse the next token from the current line.">
<polygon fill="white" stroke="#666666" points="586.5,-535.5 457.25,-535.5 457.25,-505 586.5,-505 586.5,-535.5"/>
<text text-anchor="start" x="465.25" y="-522" font-family="Helvetica,sans-Serif" font-size="10.00">ml::core::CCsvLineParser</text>
<text text-anchor="middle" x="521.88" y="-510.75" font-family="Helvetica,sans-Serif" font-size="10.00">::parseNext</text>
</a>
</g>
</g>
<!-- Node4&#45;&gt;Node6 -->
<g id="edge5_Node000004_Node000006" class="edge">
<title>Node4&#45;&gt;Node6</title>
<g id="a_edge5_Node000004_Node000006"><a xlink:title=" ">
<path fill="none" stroke="#63b8ff" d="M383.58,-489.7C403.96,-494.24 425.66,-499.07 445.65,-503.52"/>
<polygon fill="#63b8ff" stroke="#63b8ff" points="444.89,-506.93 455.41,-505.69 446.41,-500.1 444.89,-506.93"/>
</a>
</g>
</g>
<!-- Node8 -->
<g id="Node000008" class="node">
<title>Node8</title>
<g id="a_Node000008"><a xlink:href="../../dc/d3c/classml_1_1core_1_1_c_csv_line_parser.html#acb26fafa5e2b8be13dfb95f02a1ee268" target="_top" xlink:title="Supply a new CSV string to be parsed.">
<polygon fill="white" stroke="#666666" points="586.5,-486.5 457.25,-486.5 457.25,-456 586.5,-456 586.5,-486.5"/>
<text text-anchor="start" x="465.25" y="-473" font-family="Helvetica,sans-Serif" font-size="10.00">ml::core::CCsvLineParser</text>
<text text-anchor="middle" x="521.88" y="-461.75" font-family="Helvetica,sans-Serif" font-size="10.00">::reset</text>
</a>
</g>
</g>
<!-- Node4&#45;&gt;Node8 -->
<g id="edge7_Node000004_Node000008" class="edge">
<title>Node4&#45;&gt;Node8</title>
<g id="a_edge7_Node000004_Node000008"><a xlink:title=" ">
<path fill="none" stroke="#63b8ff" d="M383.58,-471.25C403.86,-471.25 425.46,-471.25 445.38,-471.25"/>
<polygon fill="#63b8ff" stroke="#63b8ff" points="445.37,-474.75 455.37,-471.25 445.37,-467.75 445.37,-474.75"/>
</a>
</g>
</g>
<!-- Node9 -->
<g id="Node000009" class="node">
<title>Node9</title>
<g id="a_Node000009"><a xlink:href="../../dc/d68/classml_1_1model_1_1_c_token_list_data_categorizer_base.html#a19b46de6b679ea039ee0cd3d0129db10" target="_top" xlink:title=" ">
<polygon fill="white" stroke="#666666" points="589.5,-437.5 454.25,-437.5 454.25,-407 589.5,-407 589.5,-437.5"/>
<text text-anchor="start" x="462.25" y="-424" font-family="Helvetica,sans-Serif" font-size="10.00">ml::model::CTokenListData</text>
<text text-anchor="middle" x="521.88" y="-412.75" font-family="Helvetica,sans-Serif" font-size="10.00">CategorizerBase::reset</text>
</a>
</g>
</g>
<!-- Node4&#45;&gt;Node9 -->
<g id="edge8_Node000004_Node000009" class="edge">
<title>Node4&#45;&gt;Node9</title>
<g id="a_edge8_Node000004_Node000009"><a xlink:title=" ">
<path fill="none" stroke="#63b8ff" d="M383.58,-452.8C402.95,-448.49 423.51,-443.91 442.66,-439.65"/>
<polygon fill="#63b8ff" stroke="#63b8ff" points="443.28,-443.1 452.28,-437.51 441.76,-436.27 443.28,-443.1"/>
</a>
</g>
</g>
<!-- Node10 -->
<g id="Node000010" class="node">
<title>Node10</title>
<g id="a_Node000010"><a xlink:href="../../dc/d68/classml_1_1model_1_1_c_token_list_data_categorizer_base.html#afd12feb6da217e117c3f0f3081ebbaa7" target="_top" xlink:title=" ">
<polygon fill="white" stroke="#666666" points="614.25,-388.5 429.5,-388.5 429.5,-358 614.25,-358 614.25,-388.5"/>
<text text-anchor="start" x="437.5" y="-375" font-family="Helvetica,sans-Serif" font-size="10.00">ml::model::CTokenListData</text>
<text text-anchor="middle" x="521.88" y="-363.75" font-family="Helvetica,sans-Serif" font-size="10.00">CategorizerBase::tokenToIdAndWeight</text>
</a>
</g>
</g>
<!-- Node4&#45;&gt;Node10 -->
<g id="edge9_Node000004_Node000010" class="edge">
<title>Node4&#45;&gt;Node10</title>
<g id="a_edge9_Node000004_Node000010"><a xlink:title=" ">
<path fill="none" stroke="#63b8ff" d="M375.9,-450.07C381.27,-447.44 386.45,-444.51 391.25,-441.25 411.87,-427.24 406.23,-411.64 427.25,-398.25 429.82,-396.61 432.5,-395.08 435.25,-393.65"/>
<polygon fill="#63b8ff" stroke="#63b8ff" points="436.54,-396.91 444.14,-389.52 433.6,-390.56 436.54,-396.91"/>
</a>
</g>
</g>
<!-- Node7 -->
<g id="Node000007" class="node">
<title>Node7</title>
<g id="a_Node000007"><a xlink:href="../../dc/d3c/classml_1_1core_1_1_c_csv_line_parser.html#a9c8154e0969717f2ae39167194ca606b" target="_top" xlink:title=" ">
<polygon fill="white" stroke="#666666" points="781.75,-535.5 652.5,-535.5 652.5,-505 781.75,-505 781.75,-535.5"/>
<text text-anchor="start" x="660.5" y="-522" font-family="Helvetica,sans-Serif" font-size="10.00">ml::core::CCsvLineParser</text>
<text text-anchor="middle" x="717.12" y="-510.75" font-family="Helvetica,sans-Serif" font-size="10.00">::parseNextToken</text>
</a>
</g>
</g>
<!-- Node6&#45;&gt;Node7 -->
<g id="edge6_Node000006_Node000007" class="edge">
<title>Node6&#45;&gt;Node7</title>
<g id="a_edge6_Node000006_Node000007"><a xlink:title=" ">
<path fill="none" stroke="#63b8ff" d="M586.96,-520.25C604.17,-520.25 622.95,-520.25 640.71,-520.25"/>
<polygon fill="#63b8ff" stroke="#63b8ff" points="640.7,-523.75 650.7,-520.25 640.7,-516.75 640.7,-523.75"/>
</a>
</g>
</g>
<!-- Node12 -->
<g id="Node000012" class="node">
<title>Node12</title>
<g id="a_Node000012"><a xlink:href="../../d4/d25/classml_1_1model_1_1_c_resource_monitor.html#a9d41535256aa6f009df9509076a9af5b" target="_top" xlink:title=" ">
<polygon fill="white" stroke="#666666" points="595.12,-339.5 448.62,-339.5 448.62,-309 595.12,-309 595.12,-339.5"/>
<text text-anchor="start" x="456.62" y="-326" font-family="Helvetica,sans-Serif" font-size="10.00">ml::model::CResourceMonitor</text>
<text text-anchor="middle" x="521.88" y="-314.75" font-family="Helvetica,sans-Serif" font-size="10.00">::areAllocationsAllowed</text>
</a>
</g>
</g>
<!-- Node11&#45;&gt;Node12 -->
<g id="edge11_Node000011_Node000012" class="edge">
<title>Node11&#45;&gt;Node12</title>
<g id="a_edge11_Node000011_Node000012"><a xlink:title=" ">
<path fill="none" stroke="#63b8ff" d="M371.71,-402.2C378.57,-399.42 385.21,-396.13 391.25,-392.25 412.21,-378.77 406.23,-362.64 427.25,-349.25 430.72,-347.04 434.38,-345.03 438.16,-343.19"/>
<polygon fill="#63b8ff" stroke="#63b8ff" points="439.25,-346.53 447.02,-339.33 436.45,-340.11 439.25,-346.53"/>
</a>
</g>
</g>
<!-- Node13 -->
<g id="Node000013" class="node">
<title>Node13</title>
<g id="a_Node000013"><a xlink:href="../../df/d58/classml_1_1model_1_1_c_limits.html#ac4583bfef9fed58d9a2fbd066fbbb75f" target="_top" xlink:title="Access to the resource monitor.">
<polygon fill="white" stroke="#666666" points="571.12,-290.5 472.62,-290.5 472.62,-260 571.12,-260 571.12,-290.5"/>
<text text-anchor="start" x="480.62" y="-277" font-family="Helvetica,sans-Serif" font-size="10.00">ml::model::CLimits</text>
<text text-anchor="middle" x="521.88" y="-265.75" font-family="Helvetica,sans-Serif" font-size="10.00">::resourceMonitor</text>
</a>
</g>
</g>
<!-- Node11&#45;&gt;Node13 -->
<g id="edge12_Node000011_Node000013" class="edge">
<title>Node11&#45;&gt;Node13</title>
<g id="a_edge12_Node000011_Node000013"><a xlink:title=" ">
<path fill="none" stroke="#63b8ff" d="M371.81,-404.74C378.89,-401.48 385.55,-397.39 391.25,-392.25 423.87,-362.86 394.51,-329.51 427.25,-300.25 436.85,-291.67 449.09,-285.98 461.52,-282.23"/>
<polygon fill="#63b8ff" stroke="#63b8ff" points="462.17,-285.67 470.97,-279.78 460.41,-278.9 462.17,-285.67"/>
</a>
</g>
</g>
</g>
</svg>
