<?xml version="1.0" encoding="UTF-8" standalone="no"?>
<!DOCTYPE svg PUBLIC "-//W3C//DTD SVG 1.1//EN"
 "http://www.w3.org/Graphics/SVG/1.1/DTD/svg11.dtd">
<!-- Generated by graphviz version 10.0.1 (20240210.2158)
 -->
<!-- Title: ml::model::CTokenListDataCategorizerBase::writeChangedCategories Pages: 1 -->
<!--zoomable 186 -->

<svg id="main" version="1.1" xmlns="http://www.w3.org/2000/svg" xmlns:xlink="http://www.w3.org/1999/xlink" xml:space="preserve" onload="init(evt)">
<style type="text/css"><![CDATA[
.node, .edge {opacity: 0.7;}
.node.selected, .edge.selected {opacity: 1;}
.edge:hover path { stroke: red; }
.edge:hover polygon { stroke: red; fill: red; }
]]></style>

<defs>
  <circle id="rim" cx="0" cy="0" r="7"/>
  <circle id="rim2" cx="0" cy="0" r="3.5"/>
  <g id="zoomPlus">
    <use xlink:href="#rim" fill="#404040"><set attributeName="fill" to="#808080" begin="zoomplus.mouseover" end="zoomplus.mouseout"/></use>
    <path d="M-4,0h8M0,-4v8" fill="none" stroke="white" stroke-width="1.5" pointer-events="none"/>
  </g>
  <g id="zoomMin">
    <use xlink:href="#rim" fill="#404040"><set attributeName="fill" to="#808080" begin="zoomminus.mouseover" end="zoomminus.mouseout"/></use>
    <path d="M-4,0h8" fill="none" stroke="white" stroke-width="1.5" pointer-events="none"/>
  </g>
  <g id="arrowUp" transform="translate(30 24)">
    <use xlink:href="#rim"/>
    <path pointer-events="none" fill="none" stroke="white" stroke-width="1.5" d="M0,-3.0v7 M-2.5,-0.5L0,-3.0L2.5,-0.5"/>
  </g>
  <g id="arrowRight" transform="rotate(90) translate(36 -43)">
    <use xlink:href="#rim"/>
    <path pointer-events="none" fill="none" stroke="white" stroke-width="1.5" d="M0,-3.0v7 M-2.5,-0.5L0,-3.0L2.5,-0.5"/>
  </g>
  <g id="arrowDown" transform="rotate(180) translate(-30 -48)">
    <use xlink:href="#rim"/>
    <path pointer-events="none" fill="none" stroke="white" stroke-width="1.5" d="M0,-3.0v7 M-2.5,-0.5L0,-3.0L2.5,-0.5"/>
  </g>
  <g id="arrowLeft" transform="rotate(270) translate(-36 17)">
    <use xlink:href="#rim"/>
    <path pointer-events="none" fill="none" stroke="white" stroke-width="1.5" d="M0,-3.0v7 M-2.5,-0.5L0,-3.0L2.5,-0.5"/>
  </g>
  <g id="resetDef">
    <use xlink:href="#rim2" fill="#404040"><set attributeName="fill" to="#808080" begin="reset.mouseover" end="reset.mouseout"/></use>
  </g>
</defs>
<script type="application/ecmascript">
var viewWidth = 625;
var viewHeight = 186;
var sectionId = 'dynsection-39';
</script>
<script type="application/ecmascript" xlink:href="../../svg.min.js"/>
<svg id="graph" class="graph">
<g id="viewport">
<title>ml::model::CTokenListDataCategorizerBase::writeChangedCategories</title>
<!-- Node1 -->
<g id="Node000001" class="node">
<title>Node1</title>
<g id="a_Node000001"><a xlink:title=" ">
<polygon fill="#999999" stroke="#666666" points="202,-103.5 0,-103.5 0,-73 202,-73 202,-103.5"/>
<text text-anchor="start" x="8" y="-90" font-family="Helvetica,sans-Serif" font-size="10.00">ml::model::CTokenListData</text>
<text text-anchor="middle" x="101" y="-78.75" font-family="Helvetica,sans-Serif" font-size="10.00">CategorizerBase::writeChangedCategories</text>
</a>
</g>
</g>
<!-- Node2 -->
<g id="Node000002" class="node">
<title>Node2</title>
<g id="a_Node000002"><a xlink:href="../../dc/d68/classml_1_1model_1_1_c_token_list_data_categorizer_base.html#ac37176cfc2f4e23df1e8216e33d6b980" target="_top" xlink:title=" ">
<polygon fill="white" stroke="#666666" points="426.5,-103.5 238,-103.5 238,-73 426.5,-73 426.5,-103.5"/>
<text text-anchor="start" x="246" y="-90" font-family="Helvetica,sans-Serif" font-size="10.00">ml::model::CTokenListData</text>
<text text-anchor="middle" x="332.25" y="-78.75" font-family="Helvetica,sans-Serif" font-size="10.00">CategorizerBase::cacheReverseSearch</text>
</a>
</g>
</g>
<!-- Node1&#45;&gt;Node2 -->
<g id="edge1_Node000001_Node000002" class="edge">
<title>Node1&#45;&gt;Node2</title>
<g id="a_edge1_Node000001_Node000002"><a xlink:title=" ">
<path fill="none" stroke="#63b8ff" d="M202.22,-88.25C210.24,-88.25 218.37,-88.25 226.42,-88.25"/>
<polygon fill="#63b8ff" stroke="#63b8ff" points="226.24,-91.75 236.24,-88.25 226.24,-84.75 226.24,-91.75"/>
</a>
</g>
</g>
<!-- Node3 -->
<g id="Node000003" class="node">
<title>Node3</title>
<g id="a_Node000003"><a xlink:href="../../dc/d29/classml_1_1model_1_1_c_token_list_category.html#a4bff5eacff3ef1466e3983adf84e9d3b" target="_top" xlink:title=" ">
<polygon fill="white" stroke="#666666" points="616.5,-177.5 462.5,-177.5 462.5,-147 616.5,-147 616.5,-177.5"/>
<text text-anchor="start" x="470.5" y="-164" font-family="Helvetica,sans-Serif" font-size="10.00">ml::model::CTokenListCategory</text>
<text text-anchor="middle" x="539.5" y="-152.75" font-family="Helvetica,sans-Serif" font-size="10.00">::baseTokenIds</text>
</a>
</g>
</g>
<!-- Node2&#45;&gt;Node3 -->
<g id="edge2_Node000002_Node000003" class="edge">
<title>Node2&#45;&gt;Node3</title>
<g id="a_edge2_Node000002_Node000003"><a xlink:title=" ">
<path fill="none" stroke="#63b8ff" d="M373.25,-103.94C398.7,-113.79 432.41,-126.6 462.5,-137.25 467.85,-139.14 473.42,-141.07 479.01,-142.96"/>
<polygon fill="#63b8ff" stroke="#63b8ff" points="477.71,-146.22 488.3,-146.08 479.94,-139.58 477.71,-146.22"/>
</a>
</g>
</g>
<!-- Node4 -->
<g id="Node000004" class="node">
<title>Node4</title>
<g id="a_Node000004"><a xlink:href="../../d6/d7a/classml_1_1model_1_1_c_local_category_id.html#a4f6c7412af5d3b0649a076d7fc1190e9" target="_top" xlink:title=" ">
<polygon fill="white" stroke="#666666" points="607.12,-128.5 471.88,-128.5 471.88,-98 607.12,-98 607.12,-128.5"/>
<text text-anchor="start" x="479.88" y="-115" font-family="Helvetica,sans-Serif" font-size="10.00">ml::model::CLocalCategory</text>
<text text-anchor="middle" x="539.5" y="-103.75" font-family="Helvetica,sans-Serif" font-size="10.00">Id::index</text>
</a>
</g>
</g>
<!-- Node2&#45;&gt;Node4 -->
<g id="edge3_Node000002_Node000004" class="edge">
<title>Node2&#45;&gt;Node4</title>
<g id="a_edge3_Node000002_Node000004"><a xlink:title=" ">
<path fill="none" stroke="#63b8ff" d="M426.87,-99.65C438.01,-101.01 449.29,-102.38 460.19,-103.71"/>
<polygon fill="#63b8ff" stroke="#63b8ff" points="459.53,-107.16 469.88,-104.89 460.38,-100.21 459.53,-107.16"/>
</a>
</g>
</g>
<!-- Node5 -->
<g id="Node000005" class="node">
<title>Node5</title>
<g id="a_Node000005"><a xlink:href="../../d6/d7a/classml_1_1model_1_1_c_local_category_id.html#a2738e48dceafdad16f35b2dfb3500465" target="_top" xlink:title="Does the object represent a soft failure?">
<polygon fill="white" stroke="#666666" points="607.12,-79.5 471.88,-79.5 471.88,-49 607.12,-49 607.12,-79.5"/>
<text text-anchor="start" x="479.88" y="-66" font-family="Helvetica,sans-Serif" font-size="10.00">ml::model::CLocalCategory</text>
<text text-anchor="middle" x="539.5" y="-54.75" font-family="Helvetica,sans-Serif" font-size="10.00">Id::isSoftFailure</text>
</a>
</g>
</g>
<!-- Node2&#45;&gt;Node5 -->
<g id="edge4_Node000002_Node000005" class="edge">
<title>Node2&#45;&gt;Node5</title>
<g id="a_edge4_Node000002_Node000005"><a xlink:title=" ">
<path fill="none" stroke="#63b8ff" d="M426.87,-77.3C438.01,-76 449.29,-74.68 460.19,-73.41"/>
<polygon fill="#63b8ff" stroke="#63b8ff" points="460.36,-76.91 469.88,-72.27 459.54,-69.96 460.36,-76.91"/>
</a>
</g>
</g>
<!-- Node6 -->
<g id="Node000006" class="node">
<title>Node6</title>
<g id="a_Node000006"><a xlink:href="../../d6/d7a/classml_1_1model_1_1_c_local_category_id.html#a578496142b73983101e1eb8f0157062d" target="_top" xlink:title="Does the object represent a valid category?">
<polygon fill="white" stroke="#666666" points="607.12,-30.5 471.88,-30.5 471.88,0 607.12,0 607.12,-30.5"/>
<text text-anchor="start" x="479.88" y="-17" font-family="Helvetica,sans-Serif" font-size="10.00">ml::model::CLocalCategory</text>
<text text-anchor="middle" x="539.5" y="-5.75" font-family="Helvetica,sans-Serif" font-size="10.00">Id::isValid</text>
</a>
</g>
</g>
<!-- Node2&#45;&gt;Node6 -->
<g id="edge5_Node000002_Node000006" class="edge">
<title>Node2&#45;&gt;Node6</title>
<g id="a_edge5_Node000002_Node000006"><a xlink:title=" ">
<path fill="none" stroke="#63b8ff" d="M374.43,-72.5C399.75,-62.94 432.9,-50.61 462.5,-40.25 467.85,-38.38 473.43,-36.46 479.03,-34.57"/>
<polygon fill="#63b8ff" stroke="#63b8ff" points="479.95,-37.96 488.32,-31.46 477.73,-31.32 479.95,-37.96"/>
</a>
</g>
</g>
</g>
</svg>

<g id="navigator" transform="translate(0 0)" fill="#404254">
  <rect fill="#f2f5e9" fill-opacity="0.5" stroke="#606060" stroke-width=".5" x="0" y="0" width="60" height="60"/>
  <use id="zoomplus" xlink:href="#zoomPlus" x="17" y="9" onmousedown="handleZoom(evt,'in')"/>
  <use id="zoomminus" xlink:href="#zoomMin" x="42" y="9" onmousedown="handleZoom(evt,'out')"/>
  <use id="reset" xlink:href="#resetDef" x="30" y="36" onmousedown="handleReset()"/>
   <use id="arrowup" xlink:href="#arrowUp" x="0" y="0" onmousedown="handlePan(0,-1)"/>
  <use id="arrowright" xlink:href="#arrowRight" x="0" y="0" onmousedown="handlePan(1,0)"/>
  <use id="arrowdown" xlink:href="#arrowDown" x="0" y="0" onmousedown="handlePan(0,1)"/>
  <use id="arrowleft" xlink:href="#arrowLeft" x="0" y="0" onmousedown="handlePan(-1,0)"/>
</g>
<svg viewBox="0 0 15 15" width="100%" height="30px" preserveAspectRatio="xMaxYMin meet">
 <g id="arrow_out" transform="scale(0.3 0.3)">
  <a xlink:href="classml_1_1model_1_1_c_token_list_data_categorizer_base_a66e9244ef674cf221fd0d88e31659433_cgraph_org.svg" target="_base">
   <rect id="button" ry="5" rx="5" y="6" x="6" height="38" width="38"
        fill="#f2f5e9" fill-opacity="0.5" stroke="#606060" stroke-width="1.0"/>
   <path id="arrow"
     d="M 11.500037,31.436501 C 11.940474,20.09759 22.043105,11.32322 32.158766,21.979434 L 37.068811,17.246167 C 37.068811,17.246167 37.088388,32 37.088388,32 L 22.160133,31.978069 C 22.160133,31.978069 26.997745,27.140456 26.997745,27.140456 C 18.528582,18.264221 13.291696,25.230495 11.500037,31.436501 z"
     style="fill:#404040;"/>
  </a>
 </g>
</svg>

<style type='text/css'>
<![CDATA[
[data-mouse-over-selected='false'] { opacity: 0.7; }
[data-mouse-over-selected='true']  { opacity: 1.0; }
]]>
</style>
<script type="application/ecmascript"><![CDATA[
document.addEventListener('DOMContentLoaded', (event) => {
  highlightEdges();
  highlightAdjacentNodes();
});
]]></script>
</svg>
