<?xml version="1.0" encoding="UTF-8" standalone="no"?>
<!DOCTYPE svg PUBLIC "-//W3C//DTD SVG 1.1//EN"
 "http://www.w3.org/Graphics/SVG/1.1/DTD/svg11.dtd">
<!-- Generated by graphviz version 10.0.1 (20240210.2158)
 -->
<!-- Title: ml::model::CTokenListDataCategorizerBase::acceptPersistInserter Pages: 1 -->
<svg width="541pt" height="125pt"
 viewBox="0.00 0.00 540.50 124.50" xmlns="http://www.w3.org/2000/svg" xmlns:xlink="http://www.w3.org/1999/xlink">
<g id="graph0" class="graph" transform="scale(1 1) rotate(0) translate(4 120.5)">
<title>ml::model::CTokenListDataCategorizerBase::acceptPersistInserter</title>
<!-- Node1 -->
<g id="Node000001" class="node">
<title>Node1</title>
<g id="a_Node000001"><a xlink:title="Used by deferred persistence functions.">
<polygon fill="#999999" stroke="#666666" points="154.75,-79.12 0,-79.12 0,-37.38 154.75,-37.38 154.75,-79.12"/>
<text text-anchor="start" x="8" y="-65.62" font-family="Helvetica,sans-Serif" font-size="10.00">ml::model::CTokenListData</text>
<text text-anchor="start" x="8" y="-54.38" font-family="Helvetica,sans-Serif" font-size="10.00">CategorizerBase::acceptPersist</text>
<text text-anchor="middle" x="77.38" y="-43.12" font-family="Helvetica,sans-Serif" font-size="10.00">Inserter</text>
</a>
</g>
</g>
<!-- Node2 -->
<g id="Node000002" class="node">
<title>Node2</title>
<g id="a_Node000002"><a xlink:href="../../dc/d29/classml_1_1model_1_1_c_token_list_category.html#a6ab13ef3e7676cfc9ac9a21b4b5150c7" target="_top" xlink:title="Persist state by passing information to the supplied inserter.">
<polygon fill="white" stroke="#666666" points="344.75,-116.5 190.75,-116.5 190.75,-86 344.75,-86 344.75,-116.5"/>
<text text-anchor="start" x="198.75" y="-103" font-family="Helvetica,sans-Serif" font-size="10.00">ml::model::CTokenListCategory</text>
<text text-anchor="middle" x="267.75" y="-91.75" font-family="Helvetica,sans-Serif" font-size="10.00">::acceptPersistInserter</text>
</a>
</g>
</g>
<!-- Node1&#45;&gt;Node2 -->
<g id="edge1_Node000001_Node000002" class="edge">
<title>Node1&#45;&gt;Node2</title>
<g id="a_edge1_Node000001_Node000002"><a xlink:title=" ">
<path fill="none" stroke="#63b8ff" d="M154.99,-75.74C165.5,-78.14 176.31,-80.61 186.88,-83.02"/>
<polygon fill="#63b8ff" stroke="#63b8ff" points="185.77,-86.36 196.3,-85.17 187.33,-79.53 185.77,-86.36"/>
</a>
</g>
</g>
<!-- Node3 -->
<g id="Node000003" class="node">
<title>Node3</title>
<g id="a_Node000003"><a xlink:href="../../d6/d96/classml_1_1core_1_1_c_state_persist_inserter.html#a21319d2ecfcb0ab1aceecf2a5a463d3a" target="_top" xlink:title="Store a name/value.">
<polygon fill="white" stroke="#666666" points="532.5,-94.5 380.75,-94.5 380.75,-64 532.5,-64 532.5,-94.5"/>
<text text-anchor="start" x="388.75" y="-81" font-family="Helvetica,sans-Serif" font-size="10.00">ml::core::CStatePersistInserter</text>
<text text-anchor="middle" x="456.62" y="-69.75" font-family="Helvetica,sans-Serif" font-size="10.00">::insertValue</text>
</a>
</g>
</g>
<!-- Node1&#45;&gt;Node3 -->
<g id="edge4_Node000001_Node000003" class="edge">
<title>Node1&#45;&gt;Node3</title>
<g id="a_edge4_Node000001_Node000003"><a xlink:title=" ">
<path fill="none" stroke="#63b8ff" d="M155.17,-62.52C217.26,-65.98 304.65,-70.85 369.18,-74.44"/>
<polygon fill="#63b8ff" stroke="#63b8ff" points="368.85,-77.93 379.03,-74.99 369.24,-70.94 368.85,-77.93"/>
</a>
</g>
</g>
<!-- Node4 -->
<g id="Node000004" class="node">
<title>Node4</title>
<g id="a_Node000004"><a xlink:href="../../d6/d96/classml_1_1core_1_1_c_state_persist_inserter.html#a599589fbf44e55664572fd485a2ac497" target="_top" xlink:title=" ">
<polygon fill="white" stroke="#666666" points="343.62,-30.5 191.88,-30.5 191.88,0 343.62,0 343.62,-30.5"/>
<text text-anchor="start" x="199.88" y="-17" font-family="Helvetica,sans-Serif" font-size="10.00">ml::core::CStatePersistInserter</text>
<text text-anchor="middle" x="267.75" y="-5.75" font-family="Helvetica,sans-Serif" font-size="10.00">::insertLevel</text>
</a>
</g>
</g>
<!-- Node1&#45;&gt;Node4 -->
<g id="edge3_Node000001_Node000004" class="edge">
<title>Node1&#45;&gt;Node4</title>
<g id="a_edge3_Node000001_Node000004"><a xlink:title=" ">
<path fill="none" stroke="#63b8ff" d="M154.99,-40.76C165.5,-38.36 176.31,-35.89 186.88,-33.48"/>
<polygon fill="#63b8ff" stroke="#63b8ff" points="187.33,-36.97 196.3,-31.33 185.77,-30.14 187.33,-36.97"/>
</a>
</g>
</g>
<!-- Node2&#45;&gt;Node3 -->
<g id="edge2_Node000002_Node000003" class="edge">
<title>Node2&#45;&gt;Node3</title>
<g id="a_edge2_Node000002_Node000003"><a xlink:title=" ">
<path fill="none" stroke="#63b8ff" d="M345.03,-92.27C352.99,-91.33 361.12,-90.38 369.17,-89.43"/>
<polygon fill="#63b8ff" stroke="#63b8ff" points="369.47,-92.92 378.99,-88.27 368.65,-85.96 369.47,-92.92"/>
</a>
</g>
</g>
</g>
</svg>
