<?xml version="1.0" encoding="UTF-8" standalone="no"?>
<!DOCTYPE svg PUBLIC "-//W3C//DTD SVG 1.1//EN"
 "http://www.w3.org/Graphics/SVG/1.1/DTD/svg11.dtd">
<!-- Generated by graphviz version 10.0.1 (20240210.2158)
 -->
<!-- Title: ml::maths::analytics::CBoostedTreeLeafNodeStatistics::CWorkspace::recycle Pages: 1 -->
<svg width="1084pt" height="284pt"
 viewBox="0.00 0.00 1084.00 284.00" xmlns="http://www.w3.org/2000/svg" xmlns:xlink="http://www.w3.org/1999/xlink">
<g id="graph0" class="graph" transform="scale(1 1) rotate(0) translate(4 280)">
<title>ml::maths::analytics::CBoostedTreeLeafNodeStatistics::CWorkspace::recycle</title>
<!-- Node1 -->
<g id="Node000001" class="node">
<title>Node1</title>
<g id="a_Node000001"><a xlink:title="Capture the derivatives object to use later.">
<polygon fill="#999999" stroke="#666666" points="1076,-215.38 907.75,-215.38 907.75,-173.62 1076,-173.62 1076,-215.38"/>
<text text-anchor="start" x="915.75" y="-201.88" font-family="Helvetica,sans-Serif" font-size="10.00">ml::maths::analytics</text>
<text text-anchor="start" x="915.75" y="-190.62" font-family="Helvetica,sans-Serif" font-size="10.00">::CBoostedTreeLeafNodeStatistics</text>
<text text-anchor="middle" x="991.88" y="-179.38" font-family="Helvetica,sans-Serif" font-size="10.00">::CWorkspace::recycle</text>
</a>
</g>
</g>
<!-- Node2 -->
<g id="Node000002" class="node">
<title>Node2</title>
<g id="a_Node000002"><a xlink:href="../../dd/d3e/classml_1_1maths_1_1analytics_1_1_c_boosted_tree_leaf_node_statistics_incremental.html#a35d65536888b061faf1fb6a447347a99" target="_top" xlink:title="Only called by split but is public so it&#39;s accessible to std::make_shared.">
<polygon fill="white" stroke="#666666" points="871.75,-276 652.5,-276 652.5,-223 871.75,-223 871.75,-276"/>
<text text-anchor="start" x="660.5" y="-262.5" font-family="Helvetica,sans-Serif" font-size="10.00">ml::maths::analytics</text>
<text text-anchor="start" x="660.5" y="-251.25" font-family="Helvetica,sans-Serif" font-size="10.00">::CBoostedTreeLeafNodeStatistics</text>
<text text-anchor="start" x="660.5" y="-240" font-family="Helvetica,sans-Serif" font-size="10.00">Incremental::CBoostedTreeLeafNodeStatistics</text>
<text text-anchor="middle" x="762.12" y="-228.75" font-family="Helvetica,sans-Serif" font-size="10.00">Incremental</text>
</a>
</g>
</g>
<!-- Node1&#45;&gt;Node2 -->
<g id="edge1_Node000001_Node000002" class="edge">
<title>Node1&#45;&gt;Node2</title>
<g id="a_edge1_Node000001_Node000002"><a xlink:title=" ">
<path fill="none" stroke="#63b8ff" d="M896.42,-217.31C888.32,-219.27 880.08,-221.26 871.88,-223.24"/>
<polygon fill="#63b8ff" stroke="#63b8ff" points="896.99,-220.77 905.89,-215.02 895.35,-213.97 896.99,-220.77"/>
</a>
</g>
</g>
<!-- Node3 -->
<g id="Node000003" class="node">
<title>Node3</title>
<g id="a_Node000003"><a xlink:href="../../d7/d16/classml_1_1maths_1_1analytics_1_1_c_boosted_tree_leaf_node_statistics_scratch.html#a7bc4acc23ebf2e84fbbbad033bae6113" target="_top" xlink:title="Only called by split but is public so it&#39;s accessible to std::make_shared.">
<polygon fill="white" stroke="#666666" points="202,-232 0,-232 0,-179 202,-179 202,-232"/>
<text text-anchor="start" x="8" y="-218.5" font-family="Helvetica,sans-Serif" font-size="10.00">ml::maths::analytics</text>
<text text-anchor="start" x="8" y="-207.25" font-family="Helvetica,sans-Serif" font-size="10.00">::CBoostedTreeLeafNodeStatistics</text>
<text text-anchor="start" x="8" y="-196" font-family="Helvetica,sans-Serif" font-size="10.00">Scratch::CBoostedTreeLeafNodeStatistics</text>
<text text-anchor="middle" x="101" y="-184.75" font-family="Helvetica,sans-Serif" font-size="10.00">Scratch</text>
</a>
</g>
</g>
<!-- Node1&#45;&gt;Node3 -->
<g id="edge2_Node000001_Node000003" class="edge">
<title>Node1&#45;&gt;Node3</title>
<g id="a_edge2_Node000001_Node000003"><a xlink:title=" ">
<path fill="none" stroke="#63b8ff" d="M895.89,-195.68C726.77,-197.77 375.04,-202.12 202.22,-204.26"/>
<polygon fill="#63b8ff" stroke="#63b8ff" points="895.78,-199.18 905.74,-195.55 895.7,-192.18 895.78,-199.18"/>
</a>
</g>
</g>
<!-- Node4 -->
<g id="Node000004" class="node">
<title>Node4</title>
<g id="a_Node000004"><a xlink:href="../../d7/d16/classml_1_1maths_1_1analytics_1_1_c_boosted_tree_leaf_node_statistics_scratch.html#a4ebbfaeb4f8d7850feb01ef65b1c2f4a" target="_top" xlink:title=" ">
<polygon fill="white" stroke="#666666" points="846.25,-128.38 678,-128.38 678,-86.62 846.25,-86.62 846.25,-128.38"/>
<text text-anchor="start" x="686" y="-114.88" font-family="Helvetica,sans-Serif" font-size="10.00">ml::maths::analytics</text>
<text text-anchor="start" x="686" y="-103.62" font-family="Helvetica,sans-Serif" font-size="10.00">::CBoostedTreeLeafNodeStatistics</text>
<text text-anchor="middle" x="762.12" y="-92.38" font-family="Helvetica,sans-Serif" font-size="10.00">Scratch::split</text>
</a>
</g>
</g>
<!-- Node1&#45;&gt;Node4 -->
<g id="edge3_Node000001_Node000004" class="edge">
<title>Node1&#45;&gt;Node4</title>
<g id="a_edge3_Node000001_Node000004"><a xlink:title=" ">
<path fill="none" stroke="#63b8ff" d="M924.55,-169.16C891.08,-156.38 850.94,-141.04 819.05,-128.86"/>
<polygon fill="#63b8ff" stroke="#63b8ff" points="923.16,-172.38 933.75,-172.68 925.65,-165.84 923.16,-172.38"/>
</a>
</g>
</g>
<!-- Node4&#45;&gt;Node4 -->
<g id="edge11_Node000004_Node000004" class="edge">
<title>Node4&#45;&gt;Node4</title>
<g id="a_edge11_Node000004_Node000004"><a xlink:title=" ">
<path fill="none" stroke="#63b8ff" d="M800.2,-139.32C793.75,-143.56 781.06,-146.38 762.12,-146.38 729.82,-146.38 715.68,-138.17 719.72,-128.69"/>
<polygon fill="#63b8ff" stroke="#63b8ff" points="803.43,-140.68 803.96,-130.09 796.94,-138.03 803.43,-140.68"/>
</a>
</g>
</g>
<!-- Node5 -->
<g id="Node000005" class="node">
<title>Node5</title>
<g id="a_Node000005"><a xlink:href="../../d7/d16/classml_1_1maths_1_1analytics_1_1_c_boosted_tree_leaf_node_statistics_scratch.html#a4c5bded390aac813ca64a15a3c0fbc79" target="_top" xlink:title="Only called by split but is public so it&#39;s accessible to std::make_shared.">
<polygon fill="white" stroke="#666666" points="202,-53 0,-53 0,0 202,0 202,-53"/>
<text text-anchor="start" x="8" y="-39.5" font-family="Helvetica,sans-Serif" font-size="10.00">ml::maths::analytics</text>
<text text-anchor="start" x="8" y="-28.25" font-family="Helvetica,sans-Serif" font-size="10.00">::CBoostedTreeLeafNodeStatistics</text>
<text text-anchor="start" x="8" y="-17" font-family="Helvetica,sans-Serif" font-size="10.00">Scratch::CBoostedTreeLeafNodeStatistics</text>
<text text-anchor="middle" x="101" y="-5.75" font-family="Helvetica,sans-Serif" font-size="10.00">Scratch</text>
</a>
</g>
</g>
<!-- Node4&#45;&gt;Node5 -->
<g id="edge4_Node000004_Node000005" class="edge">
<title>Node4&#45;&gt;Node5</title>
<g id="a_edge4_Node000004_Node000005"><a xlink:title=" ">
<path fill="none" stroke="#63b8ff" d="M666.78,-86.43C650.09,-83.13 632.82,-79.99 616.5,-77.5 473.42,-55.63 306.46,-41.08 202.47,-33.3"/>
<polygon fill="#63b8ff" stroke="#63b8ff" points="665.68,-89.78 676.17,-88.32 667.06,-82.92 665.68,-89.78"/>
</a>
</g>
</g>
<!-- Node6 -->
<g id="Node000006" class="node">
<title>Node6</title>
<g id="a_Node000006"><a xlink:href="../../d7/d16/classml_1_1maths_1_1analytics_1_1_c_boosted_tree_leaf_node_statistics_scratch.html#a7bf7df4a4e12a976495091fd48ea307f" target="_top" xlink:title=" ">
<polygon fill="white" stroke="#666666" points="616.5,-128.38 448.25,-128.38 448.25,-86.62 616.5,-86.62 616.5,-128.38"/>
<text text-anchor="start" x="456.25" y="-114.88" font-family="Helvetica,sans-Serif" font-size="10.00">ml::maths::analytics</text>
<text text-anchor="start" x="456.25" y="-103.62" font-family="Helvetica,sans-Serif" font-size="10.00">::CBoostedTreeLeafNodeStatistics</text>
<text text-anchor="middle" x="532.38" y="-92.38" font-family="Helvetica,sans-Serif" font-size="10.00">Scratch::featureBestSplitSearch</text>
</a>
</g>
</g>
<!-- Node4&#45;&gt;Node6 -->
<g id="edge5_Node000004_Node000006" class="edge">
<title>Node4&#45;&gt;Node6</title>
<g id="a_edge5_Node000004_Node000006"><a xlink:title=" ">
<path fill="none" stroke="#63b8ff" d="M666.35,-107.5C649.93,-107.5 632.97,-107.5 616.88,-107.5"/>
<polygon fill="#63b8ff" stroke="#63b8ff" points="666.1,-111 676.1,-107.5 666.1,-104 666.1,-111"/>
</a>
</g>
</g>
<!-- Node7 -->
<g id="Node000007" class="node">
<title>Node7</title>
<g id="a_Node000007"><a xlink:href="../../d7/d16/classml_1_1maths_1_1analytics_1_1_c_boosted_tree_leaf_node_statistics_scratch.html#abf8d02e25f46d9d9d0dbe61376e66999" target="_top" xlink:title=" ">
<polygon fill="white" stroke="#666666" points="412.25,-128.38 238,-128.38 238,-86.62 412.25,-86.62 412.25,-128.38"/>
<text text-anchor="start" x="246" y="-114.88" font-family="Helvetica,sans-Serif" font-size="10.00">ml::maths::analytics</text>
<text text-anchor="start" x="246" y="-103.62" font-family="Helvetica,sans-Serif" font-size="10.00">::CBoostedTreeLeafNodeStatistics</text>
<text text-anchor="middle" x="325.12" y="-92.38" font-family="Helvetica,sans-Serif" font-size="10.00">Scratch::computeBestSplitStatistics</text>
</a>
</g>
</g>
<!-- Node6&#45;&gt;Node7 -->
<g id="edge6_Node000006_Node000007" class="edge">
<title>Node6&#45;&gt;Node7</title>
<g id="a_edge6_Node000006_Node000007"><a xlink:title=" ">
<path fill="none" stroke="#63b8ff" d="M436.61,-107.5C428.58,-107.5 420.49,-107.5 412.54,-107.5"/>
<polygon fill="#63b8ff" stroke="#63b8ff" points="436.38,-111 446.38,-107.5 436.38,-104 436.38,-111"/>
</a>
</g>
</g>
<!-- Node7&#45;&gt;Node3 -->
<g id="edge8_Node000007_Node000003" class="edge">
<title>Node7&#45;&gt;Node3</title>
<g id="a_edge8_Node000007_Node000003"><a xlink:title=" ">
<path fill="none" stroke="#63b8ff" d="M276.42,-134.08C254.15,-145.97 227.08,-159.7 202,-170.5 195.58,-173.26 188.86,-175.98 182.08,-178.6"/>
<polygon fill="#63b8ff" stroke="#63b8ff" points="277.81,-137.3 284.95,-129.48 274.49,-131.14 277.81,-137.3"/>
</a>
</g>
</g>
<!-- Node7&#45;&gt;Node5 -->
<g id="edge9_Node000007_Node000005" class="edge">
<title>Node7&#45;&gt;Node5</title>
<g id="a_edge9_Node000007_Node000005"><a xlink:title=" ">
<path fill="none" stroke="#63b8ff" d="M255.95,-82.28C238.38,-75.8 219.49,-68.87 202,-62.5 193.94,-59.56 185.51,-56.51 177.1,-53.47"/>
<polygon fill="#63b8ff" stroke="#63b8ff" points="254.68,-85.54 265.27,-85.71 257.1,-78.97 254.68,-85.54"/>
</a>
</g>
</g>
<!-- Node8 -->
<g id="Node000008" class="node">
<title>Node8</title>
<g id="a_Node000008"><a xlink:href="../../da/d0f/_c_boosted_tree_leaf_node_statistics_test_8cc.html#a12e25436cd30e1de9f5cd30640b2318d" target="_top" xlink:title=" ">
<polygon fill="white" stroke="#666666" points="174.62,-161.12 27.38,-161.12 27.38,-141.88 174.62,-141.88 174.62,-161.12"/>
<text text-anchor="middle" x="101" y="-147.62" font-family="Helvetica,sans-Serif" font-size="10.00">BOOST_AUTO_TEST_CASE</text>
</a>
</g>
</g>
<!-- Node7&#45;&gt;Node8 -->
<g id="edge7_Node000007_Node000008" class="edge">
<title>Node7&#45;&gt;Node8</title>
<g id="a_edge7_Node000007_Node000008"><a xlink:title=" ">
<path fill="none" stroke="#63b8ff" d="M226.79,-128.51C218.41,-130.23 210.06,-131.92 202,-133.5 188.41,-136.17 173.75,-138.89 159.96,-141.39"/>
<polygon fill="#63b8ff" stroke="#63b8ff" points="227.23,-132 236.31,-126.54 225.81,-125.14 227.23,-132"/>
</a>
</g>
</g>
<!-- Node9 -->
<g id="Node000009" class="node">
<title>Node9</title>
<g id="a_Node000009"><a xlink:href="../../d7/d16/classml_1_1maths_1_1analytics_1_1_c_boosted_tree_leaf_node_statistics_scratch.html#a01bd47ba3a2b2abbc45d007a428820da" target="_top" xlink:title=" ">
<polygon fill="white" stroke="#666666" points="202,-124 0,-124 0,-71 202,-71 202,-124"/>
<text text-anchor="start" x="8" y="-110.5" font-family="Helvetica,sans-Serif" font-size="10.00">ml::maths::analytics</text>
<text text-anchor="start" x="8" y="-99.25" font-family="Helvetica,sans-Serif" font-size="10.00">::CBoostedTreeLeafNodeStatistics</text>
<text text-anchor="start" x="8" y="-88" font-family="Helvetica,sans-Serif" font-size="10.00">Scratch::CBoostedTreeLeafNodeStatistics</text>
<text text-anchor="middle" x="101" y="-76.75" font-family="Helvetica,sans-Serif" font-size="10.00">Scratch</text>
</a>
</g>
</g>
<!-- Node7&#45;&gt;Node9 -->
<g id="edge10_Node000007_Node000009" class="edge">
<title>Node7&#45;&gt;Node9</title>
<g id="a_edge10_Node000007_Node000009"><a xlink:title=" ">
<path fill="none" stroke="#63b8ff" d="M226.12,-103.09C218.21,-102.73 210.22,-102.37 202.31,-102.02"/>
<polygon fill="#63b8ff" stroke="#63b8ff" points="225.95,-106.58 236.1,-103.54 226.27,-99.59 225.95,-106.58"/>
</a>
</g>
</g>
</g>
</svg>
