<?xml version="1.0" encoding="UTF-8" standalone="no"?>
<!DOCTYPE svg PUBLIC "-//W3C//DTD SVG 1.1//EN"
 "http://www.w3.org/Graphics/SVG/1.1/DTD/svg11.dtd">
<!-- Generated by graphviz version 10.0.1 (20240210.2158)
 -->
<!-- Title: ml::model::CRuleScope::check Pages: 1 -->
<svg width="498pt" height="360pt"
 viewBox="0.00 0.00 497.75 360.25" xmlns="http://www.w3.org/2000/svg" xmlns:xlink="http://www.w3.org/1999/xlink">
<g id="graph0" class="graph" transform="scale(1 1) rotate(0) translate(4 356.25)">
<title>ml::model::CRuleScope::check</title>
<!-- Node1 -->
<g id="Node000001" class="node">
<title>Node1</title>
<g id="a_Node000001"><a xlink:title="Check whether the given series is in the rule scope.">
<polygon fill="#999999" stroke="#666666" points="489.75,-190.88 369.5,-190.88 369.5,-160.38 489.75,-160.38 489.75,-190.88"/>
<text text-anchor="start" x="377.5" y="-177.38" font-family="Helvetica,sans-Serif" font-size="10.00">ml::model::CRuleScope</text>
<text text-anchor="middle" x="429.62" y="-166.12" font-family="Helvetica,sans-Serif" font-size="10.00">::check</text>
</a>
</g>
</g>
<!-- Node2 -->
<g id="Node000002" class="node">
<title>Node2</title>
<g id="a_Node000002"><a xlink:href="../../da/dfc/classml_1_1model_1_1_c_detection_rule.html#afefe332637dda78b3f8c3476f3ec99e9" target="_top" xlink:title=" ">
<polygon fill="white" stroke="#666666" points="333.5,-190.88 199,-190.88 199,-160.38 333.5,-160.38 333.5,-190.88"/>
<text text-anchor="start" x="207" y="-177.38" font-family="Helvetica,sans-Serif" font-size="10.00">ml::model::CDetectionRule</text>
<text text-anchor="middle" x="266.25" y="-166.12" font-family="Helvetica,sans-Serif" font-size="10.00">::apply</text>
</a>
</g>
</g>
<!-- Node1&#45;&gt;Node2 -->
<g id="edge1_Node000001_Node000002" class="edge">
<title>Node1&#45;&gt;Node2</title>
<g id="a_edge1_Node000001_Node000002"><a xlink:title=" ">
<path fill="none" stroke="#63b8ff" d="M358.14,-175.62C350.05,-175.62 341.81,-175.62 333.78,-175.62"/>
<polygon fill="#63b8ff" stroke="#63b8ff" points="357.94,-179.13 367.94,-175.63 357.94,-172.13 357.94,-179.13"/>
</a>
</g>
</g>
<!-- Node3 -->
<g id="Node000003" class="node">
<title>Node3</title>
<g id="a_Node000003"><a xlink:href="../../d2/d5e/_c_detection_rule_test_8cc.html#ab74b81f93055a7b2b354c82e33b725d3" target="_top" xlink:title=" ">
<polygon fill="white" stroke="#666666" points="163,-352.25 0,-352.25 0,-333 163,-333 163,-352.25"/>
<text text-anchor="middle" x="81.5" y="-338.75" font-family="Helvetica,sans-Serif" font-size="10.00">BOOST_FIXTURE_TEST_CASE</text>
</a>
</g>
</g>
<!-- Node2&#45;&gt;Node3 -->
<g id="edge2_Node000002_Node000003" class="edge">
<title>Node2&#45;&gt;Node3</title>
<g id="a_edge2_Node000002_Node000003"><a xlink:title=" ">
<path fill="none" stroke="#63b8ff" d="M254.73,-201.58C239.63,-235.4 208.53,-293.83 163,-324.62 158.26,-327.83 153.03,-330.48 147.58,-332.66"/>
<polygon fill="#63b8ff" stroke="#63b8ff" points="257.89,-203.09 258.63,-192.52 251.46,-200.32 257.89,-203.09"/>
</a>
</g>
</g>
<!-- Node4 -->
<g id="Node000004" class="node">
<title>Node4</title>
<g id="a_Node000004"><a xlink:href="../../d2/d5e/_c_detection_rule_test_8cc.html#ab3d2c36d20c60308c08300fa2be5e6a7" target="_top" xlink:title=" ">
<polygon fill="white" stroke="#666666" points="163,-315.25 0,-315.25 0,-296 163,-296 163,-315.25"/>
<text text-anchor="middle" x="81.5" y="-301.75" font-family="Helvetica,sans-Serif" font-size="10.00">BOOST_FIXTURE_TEST_CASE</text>
</a>
</g>
</g>
<!-- Node2&#45;&gt;Node4 -->
<g id="edge3_Node000002_Node000004" class="edge">
<title>Node2&#45;&gt;Node4</title>
<g id="a_edge3_Node000002_Node000004"><a xlink:title=" ">
<path fill="none" stroke="#63b8ff" d="M249.38,-200.55C231.55,-226.42 200.2,-266.06 163,-287.62 157.55,-290.79 151.59,-293.39 145.47,-295.54"/>
<polygon fill="#63b8ff" stroke="#63b8ff" points="252.24,-202.57 254.9,-192.31 246.42,-198.67 252.24,-202.57"/>
</a>
</g>
</g>
<!-- Node5 -->
<g id="Node000005" class="node">
<title>Node5</title>
<g id="a_Node000005"><a xlink:href="../../d2/d5e/_c_detection_rule_test_8cc.html#aadd0ea9b59db8d007b6249ea3b7f7d15" target="_top" xlink:title=" ">
<polygon fill="white" stroke="#666666" points="163,-278.25 0,-278.25 0,-259 163,-259 163,-278.25"/>
<text text-anchor="middle" x="81.5" y="-264.75" font-family="Helvetica,sans-Serif" font-size="10.00">BOOST_FIXTURE_TEST_CASE</text>
</a>
</g>
</g>
<!-- Node2&#45;&gt;Node5 -->
<g id="edge4_Node000002_Node000005" class="edge">
<title>Node2&#45;&gt;Node5</title>
<g id="a_edge4_Node000002_Node000005"><a xlink:title=" ">
<path fill="none" stroke="#63b8ff" d="M239.95,-198.85C220.33,-215.63 191.72,-237.58 163,-250.62 156.09,-253.76 148.59,-256.38 141.04,-258.54"/>
<polygon fill="#63b8ff" stroke="#63b8ff" points="242.2,-201.53 247.42,-192.31 237.59,-196.26 242.2,-201.53"/>
</a>
</g>
</g>
<!-- Node6 -->
<g id="Node000006" class="node">
<title>Node6</title>
<g id="a_Node000006"><a xlink:href="../../d2/d5e/_c_detection_rule_test_8cc.html#af101a172986d01a9758a38077292916a" target="_top" xlink:title=" ">
<polygon fill="white" stroke="#666666" points="163,-241.25 0,-241.25 0,-222 163,-222 163,-241.25"/>
<text text-anchor="middle" x="81.5" y="-227.75" font-family="Helvetica,sans-Serif" font-size="10.00">BOOST_FIXTURE_TEST_CASE</text>
</a>
</g>
</g>
<!-- Node2&#45;&gt;Node6 -->
<g id="edge5_Node000002_Node000006" class="edge">
<title>Node2&#45;&gt;Node6</title>
<g id="a_edge5_Node000002_Node000006"><a xlink:title=" ">
<path fill="none" stroke="#63b8ff" d="M216.19,-195.4C199.48,-201.72 180.58,-208.42 163,-213.62 153.25,-216.51 142.72,-219.18 132.58,-221.53"/>
<polygon fill="#63b8ff" stroke="#63b8ff" points="217.33,-198.71 225.41,-191.86 214.82,-192.17 217.33,-198.71"/>
</a>
</g>
</g>
<!-- Node7 -->
<g id="Node000007" class="node">
<title>Node7</title>
<g id="a_Node000007"><a xlink:href="../../d2/d5e/_c_detection_rule_test_8cc.html#ac7e6fc8e60de54f665acfa59f26de5b9" target="_top" xlink:title=" ">
<polygon fill="white" stroke="#666666" points="163,-204.25 0,-204.25 0,-185 163,-185 163,-204.25"/>
<text text-anchor="middle" x="81.5" y="-190.75" font-family="Helvetica,sans-Serif" font-size="10.00">BOOST_FIXTURE_TEST_CASE</text>
</a>
</g>
</g>
<!-- Node2&#45;&gt;Node7 -->
<g id="edge6_Node000002_Node000007" class="edge">
<title>Node2&#45;&gt;Node7</title>
<g id="a_edge6_Node000002_Node000007"><a xlink:title=" ">
<path fill="none" stroke="#63b8ff" d="M187.52,-183.71C179.49,-184.54 171.32,-185.39 163.26,-186.23"/>
<polygon fill="#63b8ff" stroke="#63b8ff" points="187.67,-187.21 197.25,-182.69 186.94,-180.25 187.67,-187.21"/>
</a>
</g>
</g>
<!-- Node8 -->
<g id="Node000008" class="node">
<title>Node8</title>
<g id="a_Node000008"><a xlink:href="../../d2/d5e/_c_detection_rule_test_8cc.html#a34b245c51f485fb95af670e23af32903" target="_top" xlink:title=" ">
<polygon fill="white" stroke="#666666" points="163,-167.25 0,-167.25 0,-148 163,-148 163,-167.25"/>
<text text-anchor="middle" x="81.5" y="-153.75" font-family="Helvetica,sans-Serif" font-size="10.00">BOOST_FIXTURE_TEST_CASE</text>
</a>
</g>
</g>
<!-- Node2&#45;&gt;Node8 -->
<g id="edge7_Node000002_Node000008" class="edge">
<title>Node2&#45;&gt;Node8</title>
<g id="a_edge7_Node000002_Node000008"><a xlink:title=" ">
<path fill="none" stroke="#63b8ff" d="M187.52,-167.97C179.49,-167.18 171.32,-166.37 163.26,-165.58"/>
<polygon fill="#63b8ff" stroke="#63b8ff" points="186.95,-171.43 197.25,-168.93 187.64,-164.46 186.95,-171.43"/>
</a>
</g>
</g>
<!-- Node9 -->
<g id="Node000009" class="node">
<title>Node9</title>
<g id="a_Node000009"><a xlink:href="../../d2/d5e/_c_detection_rule_test_8cc.html#a8f526915f8c0a50c0fcfce4d2bed430b" target="_top" xlink:title=" ">
<polygon fill="white" stroke="#666666" points="163,-130.25 0,-130.25 0,-111 163,-111 163,-130.25"/>
<text text-anchor="middle" x="81.5" y="-116.75" font-family="Helvetica,sans-Serif" font-size="10.00">BOOST_FIXTURE_TEST_CASE</text>
</a>
</g>
</g>
<!-- Node2&#45;&gt;Node9 -->
<g id="edge8_Node000002_Node000009" class="edge">
<title>Node2&#45;&gt;Node9</title>
<g id="a_edge8_Node000002_Node000009"><a xlink:title=" ">
<path fill="none" stroke="#63b8ff" d="M215.3,-156.11C198.8,-150.05 180.25,-143.65 163,-138.62 153.1,-135.74 142.4,-133.05 132.14,-130.68"/>
<polygon fill="#63b8ff" stroke="#63b8ff" points="213.81,-159.29 224.4,-159.5 216.25,-152.73 213.81,-159.29"/>
</a>
</g>
</g>
<!-- Node10 -->
<g id="Node000010" class="node">
<title>Node10</title>
<g id="a_Node000010"><a xlink:href="../../d2/d5e/_c_detection_rule_test_8cc.html#ad55f30d621848ecaa77f9260b71b6af3" target="_top" xlink:title=" ">
<polygon fill="white" stroke="#666666" points="163,-93.25 0,-93.25 0,-74 163,-74 163,-93.25"/>
<text text-anchor="middle" x="81.5" y="-79.75" font-family="Helvetica,sans-Serif" font-size="10.00">BOOST_FIXTURE_TEST_CASE</text>
</a>
</g>
</g>
<!-- Node2&#45;&gt;Node10 -->
<g id="edge9_Node000002_Node000010" class="edge">
<title>Node2&#45;&gt;Node10</title>
<g id="a_edge9_Node000002_Node000010"><a xlink:title=" ">
<path fill="none" stroke="#63b8ff" d="M239.9,-152.73C220.25,-136.17 191.63,-114.52 163,-101.62 156.08,-98.51 148.57,-95.91 141.02,-93.75"/>
<polygon fill="#63b8ff" stroke="#63b8ff" points="237.51,-155.29 247.37,-159.17 242.08,-149.99 237.51,-155.29"/>
</a>
</g>
</g>
<!-- Node11 -->
<g id="Node000011" class="node">
<title>Node11</title>
<g id="a_Node000011"><a xlink:href="../../d2/d5e/_c_detection_rule_test_8cc.html#a276f5510011b5bad16640e03f564c0c0" target="_top" xlink:title=" ">
<polygon fill="white" stroke="#666666" points="163,-56.25 0,-56.25 0,-37 163,-37 163,-56.25"/>
<text text-anchor="middle" x="81.5" y="-42.75" font-family="Helvetica,sans-Serif" font-size="10.00">BOOST_FIXTURE_TEST_CASE</text>
</a>
</g>
</g>
<!-- Node2&#45;&gt;Node11 -->
<g id="edge10_Node000002_Node000011" class="edge">
<title>Node2&#45;&gt;Node11</title>
<g id="a_edge10_Node000002_Node000011"><a xlink:title=" ">
<path fill="none" stroke="#63b8ff" d="M249.03,-150.5C231.12,-124.86 199.87,-85.89 163,-64.62 157.54,-61.48 151.58,-58.88 145.45,-56.74"/>
<polygon fill="#63b8ff" stroke="#63b8ff" points="246.08,-152.38 254.59,-158.69 251.87,-148.45 246.08,-152.38"/>
</a>
</g>
</g>
<!-- Node12 -->
<g id="Node000012" class="node">
<title>Node12</title>
<g id="a_Node000012"><a xlink:href="../../d2/d5e/_c_detection_rule_test_8cc.html#a7624c19d169513801571d590219c5239" target="_top" xlink:title=" ">
<polygon fill="white" stroke="#666666" points="163,-19.25 0,-19.25 0,0 163,0 163,-19.25"/>
<text text-anchor="middle" x="81.5" y="-5.75" font-family="Helvetica,sans-Serif" font-size="10.00">BOOST_FIXTURE_TEST_CASE</text>
</a>
</g>
</g>
<!-- Node2&#45;&gt;Node12 -->
<g id="edge11_Node000002_Node000012" class="edge">
<title>Node2&#45;&gt;Node12</title>
<g id="a_edge11_Node000002_Node000012"><a xlink:title=" ">
<path fill="none" stroke="#63b8ff" d="M254.68,-149.84C239.53,-116.25 208.37,-58.21 163,-27.62 158.25,-24.42 153.02,-21.78 147.57,-19.61"/>
<polygon fill="#63b8ff" stroke="#63b8ff" points="251.39,-151.06 258.6,-158.83 257.81,-148.26 251.39,-151.06"/>
</a>
</g>
</g>
</g>
</svg>
