<?xml version="1.0" encoding="UTF-8" standalone="no"?>
<!DOCTYPE svg PUBLIC "-//W3C//DTD SVG 1.1//EN"
 "http://www.w3.org/Graphics/SVG/1.1/DTD/svg11.dtd">
<!-- Generated by graphviz version 10.0.1 (20240210.2158)
 -->
<!-- Title: ml::maths::common::CMultimodalPrior::CMultimodalPrior Pages: 1 -->
<!--zoomable 186 -->

<svg id="main" version="1.1" xmlns="http://www.w3.org/2000/svg" xmlns:xlink="http://www.w3.org/1999/xlink" xml:space="preserve" onload="init(evt)">
<style type="text/css"><![CDATA[
.node, .edge {opacity: 0.7;}
.node.selected, .edge.selected {opacity: 1;}
.edge:hover path { stroke: red; }
.edge:hover polygon { stroke: red; fill: red; }
]]></style>

<defs>
  <circle id="rim" cx="0" cy="0" r="7"/>
  <circle id="rim2" cx="0" cy="0" r="3.5"/>
  <g id="zoomPlus">
    <use xlink:href="#rim" fill="#404040"><set attributeName="fill" to="#808080" begin="zoomplus.mouseover" end="zoomplus.mouseout"/></use>
    <path d="M-4,0h8M0,-4v8" fill="none" stroke="white" stroke-width="1.5" pointer-events="none"/>
  </g>
  <g id="zoomMin">
    <use xlink:href="#rim" fill="#404040"><set attributeName="fill" to="#808080" begin="zoomminus.mouseover" end="zoomminus.mouseout"/></use>
    <path d="M-4,0h8" fill="none" stroke="white" stroke-width="1.5" pointer-events="none"/>
  </g>
  <g id="arrowUp" transform="translate(30 24)">
    <use xlink:href="#rim"/>
    <path pointer-events="none" fill="none" stroke="white" stroke-width="1.5" d="M0,-3.0v7 M-2.5,-0.5L0,-3.0L2.5,-0.5"/>
  </g>
  <g id="arrowRight" transform="rotate(90) translate(36 -43)">
    <use xlink:href="#rim"/>
    <path pointer-events="none" fill="none" stroke="white" stroke-width="1.5" d="M0,-3.0v7 M-2.5,-0.5L0,-3.0L2.5,-0.5"/>
  </g>
  <g id="arrowDown" transform="rotate(180) translate(-30 -48)">
    <use xlink:href="#rim"/>
    <path pointer-events="none" fill="none" stroke="white" stroke-width="1.5" d="M0,-3.0v7 M-2.5,-0.5L0,-3.0L2.5,-0.5"/>
  </g>
  <g id="arrowLeft" transform="rotate(270) translate(-36 17)">
    <use xlink:href="#rim"/>
    <path pointer-events="none" fill="none" stroke="white" stroke-width="1.5" d="M0,-3.0v7 M-2.5,-0.5L0,-3.0L2.5,-0.5"/>
  </g>
  <g id="resetDef">
    <use xlink:href="#rim2" fill="#404040"><set attributeName="fill" to="#808080" begin="reset.mouseover" end="reset.mouseout"/></use>
  </g>
</defs>
<script type="application/ecmascript">
var viewWidth = 517;
var viewHeight = 186;
var sectionId = 'dynsection-2';
</script>
<script type="application/ecmascript" xlink:href="../../svg.min.js"/>
<svg id="graph" class="graph">
<g id="viewport">
<title>ml::maths::common::CMultimodalPrior::CMultimodalPrior</title>
<!-- Node1 -->
<g id="Node000001" class="node">
<title>Node1</title>
<g id="a_Node000001"><a xlink:title="Create a new (empty) multimodal prior.">
<polygon fill="#999999" stroke="#666666" points="508.5,-109.12 356.75,-109.12 356.75,-67.38 508.5,-67.38 508.5,-109.12"/>
<text text-anchor="start" x="364.75" y="-95.62" font-family="Helvetica,sans-Serif" font-size="10.00">ml::maths::common::</text>
<text text-anchor="start" x="364.75" y="-84.38" font-family="Helvetica,sans-Serif" font-size="10.00">CMultimodalPrior::CMultimodal</text>
<text text-anchor="middle" x="432.62" y="-73.12" font-family="Helvetica,sans-Serif" font-size="10.00">Prior</text>
</a>
</g>
</g>
<!-- Node2 -->
<g id="Node000002" class="node">
<title>Node2</title>
<g id="a_Node000002"><a xlink:href="../../dc/d23/classml_1_1maths_1_1common_1_1_c_multimodal_prior.html#a97aa2d15af04f195937ddaa9ca64caf1" target="_top" xlink:title=" ">
<polygon fill="white" stroke="#666666" points="320.75,-103.5 200.5,-103.5 200.5,-73 320.75,-73 320.75,-103.5"/>
<text text-anchor="start" x="208.5" y="-90" font-family="Helvetica,sans-Serif" font-size="10.00">ml::maths::common::</text>
<text text-anchor="middle" x="260.62" y="-78.75" font-family="Helvetica,sans-Serif" font-size="10.00">CMultimodalPrior::clone</text>
</a>
</g>
</g>
<!-- Node1&#45;&gt;Node2 -->
<g id="edge1_Node000001_Node000002" class="edge">
<title>Node1&#45;&gt;Node2</title>
<g id="a_edge1_Node000001_Node000002"><a xlink:title=" ">
<path fill="none" stroke="#63b8ff" d="M345.15,-88.25C337.06,-88.25 328.99,-88.25 321.23,-88.25"/>
<polygon fill="#63b8ff" stroke="#63b8ff" points="345.05,-91.75 355.05,-88.25 345.05,-84.75 345.05,-91.75"/>
</a>
</g>
</g>
<!-- Node3 -->
<g id="Node000003" class="node">
<title>Node3</title>
<g id="a_Node000003"><a xlink:href="../../d9/db0/classml_1_1model_1_1_c_event_rate_model_factory.html#a9a9c1ec344485a1a5265d163c7c0f312" target="_top" xlink:title=" ">
<polygon fill="white" stroke="#666666" points="154.75,-177.5 9.75,-177.5 9.75,-147 154.75,-147 154.75,-177.5"/>
<text text-anchor="start" x="17.75" y="-164" font-family="Helvetica,sans-Serif" font-size="10.00">ml::model::CEventRateModel</text>
<text text-anchor="middle" x="82.25" y="-152.75" font-family="Helvetica,sans-Serif" font-size="10.00">Factory::defaultPrior</text>
</a>
</g>
</g>
<!-- Node2&#45;&gt;Node3 -->
<g id="edge2_Node000002_Node000003" class="edge">
<title>Node2&#45;&gt;Node3</title>
<g id="a_edge2_Node000002_Node000003"><a xlink:title=" ">
<path fill="none" stroke="#63b8ff" d="M222.63,-109.25C205.31,-118.57 184.2,-129.22 164.5,-137.25 156.3,-140.59 147.48,-143.74 138.78,-146.6"/>
<polygon fill="#63b8ff" stroke="#63b8ff" points="223.92,-112.53 231.02,-104.67 220.56,-106.39 223.92,-112.53"/>
</a>
</g>
</g>
<!-- Node4 -->
<g id="Node000004" class="node">
<title>Node4</title>
<g id="a_Node000004"><a xlink:href="../../df/dad/classml_1_1model_1_1_c_event_rate_population_model_factory.html#a3ab98cd34165e78d7ddaf8d0994891eb" target="_top" xlink:title=" ">
<polygon fill="white" stroke="#666666" points="164.5,-128.5 0,-128.5 0,-98 164.5,-98 164.5,-128.5"/>
<text text-anchor="start" x="8" y="-115" font-family="Helvetica,sans-Serif" font-size="10.00">ml::model::CEventRatePopulation</text>
<text text-anchor="middle" x="82.25" y="-103.75" font-family="Helvetica,sans-Serif" font-size="10.00">ModelFactory::defaultPrior</text>
</a>
</g>
</g>
<!-- Node2&#45;&gt;Node4 -->
<g id="edge3_Node000002_Node000004" class="edge">
<title>Node2&#45;&gt;Node4</title>
<g id="a_edge3_Node000002_Node000004"><a xlink:title=" ">
<path fill="none" stroke="#63b8ff" d="M189.25,-98.23C181.24,-99.36 173.02,-100.53 164.88,-101.68"/>
<polygon fill="#63b8ff" stroke="#63b8ff" points="189.5,-101.73 198.91,-96.86 188.51,-94.79 189.5,-101.73"/>
</a>
</g>
</g>
<!-- Node5 -->
<g id="Node000005" class="node">
<title>Node5</title>
<g id="a_Node000005"><a xlink:href="../../db/d97/classml_1_1model_1_1_c_metric_model_factory.html#a81ab4d3924f55a8285294fcd4b1f00b2" target="_top" xlink:title=" ">
<polygon fill="white" stroke="#666666" points="161.5,-79.5 3,-79.5 3,-49 161.5,-49 161.5,-79.5"/>
<text text-anchor="start" x="11" y="-66" font-family="Helvetica,sans-Serif" font-size="10.00">ml::model::CMetricModelFactory</text>
<text text-anchor="middle" x="82.25" y="-54.75" font-family="Helvetica,sans-Serif" font-size="10.00">::defaultPrior</text>
</a>
</g>
</g>
<!-- Node2&#45;&gt;Node5 -->
<g id="edge4_Node000002_Node000005" class="edge">
<title>Node2&#45;&gt;Node5</title>
<g id="a_edge4_Node000002_Node000005"><a xlink:title=" ">
<path fill="none" stroke="#63b8ff" d="M189.15,-78.66C180.14,-77.43 170.87,-76.17 161.74,-74.93"/>
<polygon fill="#63b8ff" stroke="#63b8ff" points="188.52,-82.11 198.9,-79.99 189.47,-75.17 188.52,-82.11"/>
</a>
</g>
</g>
<!-- Node6 -->
<g id="Node000006" class="node">
<title>Node6</title>
<g id="a_Node000006"><a xlink:href="../../d4/db9/classml_1_1model_1_1_c_metric_population_model_factory.html#af231a0eff97605c30487253f9e2c699a" target="_top" xlink:title=" ">
<polygon fill="white" stroke="#666666" points="154.75,-30.5 9.75,-30.5 9.75,0 154.75,0 154.75,-30.5"/>
<text text-anchor="start" x="17.75" y="-17" font-family="Helvetica,sans-Serif" font-size="10.00">ml::model::CMetricPopulation</text>
<text text-anchor="middle" x="82.25" y="-5.75" font-family="Helvetica,sans-Serif" font-size="10.00">ModelFactory::defaultPrior</text>
</a>
</g>
</g>
<!-- Node2&#45;&gt;Node6 -->
<g id="edge5_Node000002_Node000006" class="edge">
<title>Node2&#45;&gt;Node6</title>
<g id="a_edge5_Node000002_Node000006"><a xlink:title=" ">
<path fill="none" stroke="#63b8ff" d="M222.2,-67.53C204.95,-58.45 184.01,-48.11 164.5,-40.25 156.29,-36.94 147.46,-33.81 138.76,-30.96"/>
<polygon fill="#63b8ff" stroke="#63b8ff" points="220.09,-70.37 230.56,-71.98 223.38,-64.19 220.09,-70.37"/>
</a>
</g>
</g>
</g>
</svg>

<g id="navigator" transform="translate(0 0)" fill="#404254">
  <rect fill="#f2f5e9" fill-opacity="0.5" stroke="#606060" stroke-width=".5" x="0" y="0" width="60" height="60"/>
  <use id="zoomplus" xlink:href="#zoomPlus" x="17" y="9" onmousedown="handleZoom(evt,'in')"/>
  <use id="zoomminus" xlink:href="#zoomMin" x="42" y="9" onmousedown="handleZoom(evt,'out')"/>
  <use id="reset" xlink:href="#resetDef" x="30" y="36" onmousedown="handleReset()"/>
   <use id="arrowup" xlink:href="#arrowUp" x="0" y="0" onmousedown="handlePan(0,-1)"/>
  <use id="arrowright" xlink:href="#arrowRight" x="0" y="0" onmousedown="handlePan(1,0)"/>
  <use id="arrowdown" xlink:href="#arrowDown" x="0" y="0" onmousedown="handlePan(0,1)"/>
  <use id="arrowleft" xlink:href="#arrowLeft" x="0" y="0" onmousedown="handlePan(-1,0)"/>
</g>
<svg viewBox="0 0 15 15" width="100%" height="30px" preserveAspectRatio="xMaxYMin meet">
 <g id="arrow_out" transform="scale(0.3 0.3)">
  <a xlink:href="classml_1_1maths_1_1common_1_1_c_multimodal_prior_a166e7c34e3b917f05ad87a0ef5497354_icgraph_org.svg" target="_base">
   <rect id="button" ry="5" rx="5" y="6" x="6" height="38" width="38"
        fill="#f2f5e9" fill-opacity="0.5" stroke="#606060" stroke-width="1.0"/>
   <path id="arrow"
     d="M 11.500037,31.436501 C 11.940474,20.09759 22.043105,11.32322 32.158766,21.979434 L 37.068811,17.246167 C 37.068811,17.246167 37.088388,32 37.088388,32 L 22.160133,31.978069 C 22.160133,31.978069 26.997745,27.140456 26.997745,27.140456 C 18.528582,18.264221 13.291696,25.230495 11.500037,31.436501 z"
     style="fill:#404040;"/>
  </a>
 </g>
</svg>

<style type='text/css'>
<![CDATA[
[data-mouse-over-selected='false'] { opacity: 0.7; }
[data-mouse-over-selected='true']  { opacity: 1.0; }
]]>
</style>
<script type="application/ecmascript"><![CDATA[
document.addEventListener('DOMContentLoaded', (event) => {
  highlightEdges();
  highlightAdjacentNodes();
});
]]></script>
</svg>
