<?xml version="1.0" encoding="UTF-8" standalone="no"?>
<!DOCTYPE svg PUBLIC "-//W3C//DTD SVG 1.1//EN"
 "http://www.w3.org/Graphics/SVG/1.1/DTD/svg11.dtd">
<!-- Generated by graphviz version 10.0.1 (20240210.2158)
 -->
<!-- Title: ml::maths::common::CMultimodalPrior::decayRate Pages: 1 -->
<svg width="532pt" height="290pt"
 viewBox="0.00 0.00 532.25 289.75" xmlns="http://www.w3.org/2000/svg" xmlns:xlink="http://www.w3.org/1999/xlink">
<g id="graph0" class="graph" transform="scale(1 1) rotate(0) translate(4 285.75)">
<title>ml::maths::common::CMultimodalPrior::decayRate</title>
<!-- Node1 -->
<g id="Node000001" class="node">
<title>Node1</title>
<g id="a_Node000001"><a xlink:title="Get the rate at which the prior returns to non&#45;informative.">
<polygon fill="#999999" stroke="#666666" points="524.25,-156.12 380,-156.12 380,-125.62 524.25,-125.62 524.25,-156.12"/>
<text text-anchor="start" x="388" y="-142.62" font-family="Helvetica,sans-Serif" font-size="10.00">ml::maths::common::</text>
<text text-anchor="middle" x="452.12" y="-131.38" font-family="Helvetica,sans-Serif" font-size="10.00">CMultimodalPrior::decayRate</text>
</a>
</g>
</g>
<!-- Node2 -->
<g id="Node000002" class="node">
<title>Node2</title>
<g id="a_Node000002"><a xlink:href="../../dc/d23/classml_1_1maths_1_1common_1_1_c_multimodal_prior.html#a56fde52a0945b795cf8d3b658af13945" target="_top" xlink:title="Persist state by passing information to the supplied inserter.">
<polygon fill="white" stroke="#666666" points="342.12,-281.75 185.12,-281.75 185.12,-240 342.12,-240 342.12,-281.75"/>
<text text-anchor="start" x="193.12" y="-268.25" font-family="Helvetica,sans-Serif" font-size="10.00">ml::maths::common::</text>
<text text-anchor="start" x="193.12" y="-257" font-family="Helvetica,sans-Serif" font-size="10.00">CMultimodalPrior::acceptPersist</text>
<text text-anchor="middle" x="263.62" y="-245.75" font-family="Helvetica,sans-Serif" font-size="10.00">Inserter</text>
</a>
</g>
</g>
<!-- Node1&#45;&gt;Node2 -->
<g id="edge1_Node000001_Node000002" class="edge">
<title>Node1&#45;&gt;Node2</title>
<g id="a_edge1_Node000001_Node000002"><a xlink:title=" ">
<path fill="none" stroke="#63b8ff" d="M427.97,-164.37C407.39,-184.21 375.72,-212.29 344,-230.88 338.66,-234 332.94,-236.91 327.1,-239.59"/>
<polygon fill="#63b8ff" stroke="#63b8ff" points="430.3,-166.98 435,-157.48 425.41,-161.98 430.3,-166.98"/>
</a>
</g>
</g>
<!-- Node4 -->
<g id="Node000004" class="node">
<title>Node4</title>
<g id="a_Node000004"><a xlink:href="../../dc/d23/classml_1_1maths_1_1common_1_1_c_multimodal_prior.html#afbb3432d2b3b96ac13617debbd15cc90" target="_top" xlink:title="Read parameters from traverser.">
<polygon fill="white" stroke="#666666" points="344,-221.75 183.25,-221.75 183.25,-180 344,-180 344,-221.75"/>
<text text-anchor="start" x="191.25" y="-208.25" font-family="Helvetica,sans-Serif" font-size="10.00">ml::maths::common::</text>
<text text-anchor="start" x="191.25" y="-197" font-family="Helvetica,sans-Serif" font-size="10.00">CMultimodalPrior::acceptRestore</text>
<text text-anchor="middle" x="263.62" y="-185.75" font-family="Helvetica,sans-Serif" font-size="10.00">Traverser</text>
</a>
</g>
</g>
<!-- Node1&#45;&gt;Node4 -->
<g id="edge3_Node000001_Node000004" class="edge">
<title>Node1&#45;&gt;Node4</title>
<g id="a_edge3_Node000001_Node000004"><a xlink:title=" ">
<path fill="none" stroke="#63b8ff" d="M391.78,-159.97C372.37,-166.21 350.68,-173.19 330.8,-179.59"/>
<polygon fill="#63b8ff" stroke="#63b8ff" points="392.72,-163.34 401.17,-156.95 390.58,-156.68 392.72,-163.34"/>
</a>
</g>
</g>
<!-- Node5 -->
<g id="Node000005" class="node">
<title>Node5</title>
<g id="a_Node000005"><a xlink:href="../../dc/d23/classml_1_1maths_1_1common_1_1_c_multimodal_prior.html#ac65b5a3c6147a10f843171acf148f0e0" target="_top" xlink:title="Create a mixture of normals.">
<polygon fill="white" stroke="#666666" points="339.5,-161.75 187.75,-161.75 187.75,-120 339.5,-120 339.5,-161.75"/>
<text text-anchor="start" x="195.75" y="-148.25" font-family="Helvetica,sans-Serif" font-size="10.00">ml::maths::common::</text>
<text text-anchor="start" x="195.75" y="-137" font-family="Helvetica,sans-Serif" font-size="10.00">CMultimodalPrior::CMultimodal</text>
<text text-anchor="middle" x="263.62" y="-125.75" font-family="Helvetica,sans-Serif" font-size="10.00">Prior</text>
</a>
</g>
</g>
<!-- Node1&#45;&gt;Node5 -->
<g id="edge4_Node000001_Node000005" class="edge">
<title>Node1&#45;&gt;Node5</title>
<g id="a_edge4_Node000001_Node000005"><a xlink:title=" ">
<path fill="none" stroke="#63b8ff" d="M368.12,-140.88C358.66,-140.88 349.06,-140.88 339.72,-140.88"/>
<polygon fill="#63b8ff" stroke="#63b8ff" points="368.04,-144.38 378.04,-140.88 368.04,-137.38 368.04,-144.38"/>
</a>
</g>
</g>
<!-- Node6 -->
<g id="Node000006" class="node">
<title>Node6</title>
<g id="a_Node000006"><a xlink:href="../../dc/d23/classml_1_1maths_1_1common_1_1_c_multimodal_prior.html#a79629ca691767bb95df0e186dec6dd34" target="_top" xlink:title=" ">
<polygon fill="white" stroke="#666666" points="333.5,-101.75 193.75,-101.75 193.75,-60 333.5,-60 333.5,-101.75"/>
<text text-anchor="start" x="201.75" y="-88.25" font-family="Helvetica,sans-Serif" font-size="10.00">ml::maths::common::</text>
<text text-anchor="start" x="201.75" y="-77" font-family="Helvetica,sans-Serif" font-size="10.00">CMultimodalPrior::propagate</text>
<text text-anchor="middle" x="263.62" y="-65.75" font-family="Helvetica,sans-Serif" font-size="10.00">ForwardsByTime</text>
</a>
</g>
</g>
<!-- Node1&#45;&gt;Node6 -->
<g id="edge5_Node000001_Node000006" class="edge">
<title>Node1&#45;&gt;Node6</title>
<g id="a_edge5_Node000001_Node000006"><a xlink:title=" ">
<path fill="none" stroke="#63b8ff" d="M391.78,-121.78C372.37,-115.54 350.68,-108.56 330.8,-102.16"/>
<polygon fill="#63b8ff" stroke="#63b8ff" points="390.58,-125.07 401.17,-124.8 392.72,-118.41 390.58,-125.07"/>
</a>
</g>
</g>
<!-- Node9 -->
<g id="Node000009" class="node">
<title>Node9</title>
<g id="a_Node000009"><a xlink:href="../../dc/d23/classml_1_1maths_1_1common_1_1_c_multimodal_prior.html#a50122ad7e37fa64e71f02281431d45e0" target="_top" xlink:title="Reset the prior to non&#45;informative.">
<polygon fill="white" stroke="#666666" points="333.12,-41.75 194.12,-41.75 194.12,0 333.12,0 333.12,-41.75"/>
<text text-anchor="start" x="202.12" y="-28.25" font-family="Helvetica,sans-Serif" font-size="10.00">ml::maths::common::</text>
<text text-anchor="start" x="202.12" y="-17" font-family="Helvetica,sans-Serif" font-size="10.00">CMultimodalPrior::setToNon</text>
<text text-anchor="middle" x="263.62" y="-5.75" font-family="Helvetica,sans-Serif" font-size="10.00">Informative</text>
</a>
</g>
</g>
<!-- Node1&#45;&gt;Node9 -->
<g id="edge8_Node000001_Node000009" class="edge">
<title>Node1&#45;&gt;Node9</title>
<g id="a_edge8_Node000001_Node000009"><a xlink:title=" ">
<path fill="none" stroke="#63b8ff" d="M427.97,-117.38C407.39,-97.54 375.72,-69.46 344,-50.88 338.66,-47.75 332.94,-44.84 327.1,-42.16"/>
<polygon fill="#63b8ff" stroke="#63b8ff" points="425.41,-119.77 435,-124.27 430.3,-114.77 425.41,-119.77"/>
</a>
</g>
</g>
<!-- Node3 -->
<g id="Node000003" class="node">
<title>Node3</title>
<g id="a_Node000003"><a xlink:href="../../df/d0f/_c_multimodal_prior_test_8cc.html#a1d68c9c9ad2692e9d6ddacc5a88211ac" target="_top" xlink:title=" ">
<polygon fill="white" stroke="#666666" points="147.25,-270.5 0,-270.5 0,-251.25 147.25,-251.25 147.25,-270.5"/>
<text text-anchor="middle" x="73.62" y="-257" font-family="Helvetica,sans-Serif" font-size="10.00">BOOST_AUTO_TEST_CASE</text>
</a>
</g>
</g>
<!-- Node2&#45;&gt;Node3 -->
<g id="edge2_Node000002_Node000003" class="edge">
<title>Node2&#45;&gt;Node3</title>
<g id="a_edge2_Node000002_Node000003"><a xlink:title=" ">
<path fill="none" stroke="#63b8ff" d="M173.45,-260.88C164.78,-260.88 156.05,-260.88 147.56,-260.88"/>
<polygon fill="#63b8ff" stroke="#63b8ff" points="173.29,-264.38 183.29,-260.88 173.29,-257.38 173.29,-264.38"/>
</a>
</g>
</g>
<!-- Node7 -->
<g id="Node000007" class="node">
<title>Node7</title>
<g id="a_Node000007"><a xlink:href="../../df/d0f/_c_multimodal_prior_test_8cc.html#a8189fb6a14d4275d48dcc0dc1207fc17" target="_top" xlink:title=" ">
<polygon fill="white" stroke="#666666" points="147.25,-108.5 0,-108.5 0,-89.25 147.25,-89.25 147.25,-108.5"/>
<text text-anchor="middle" x="73.62" y="-95" font-family="Helvetica,sans-Serif" font-size="10.00">BOOST_AUTO_TEST_CASE</text>
</a>
</g>
</g>
<!-- Node6&#45;&gt;Node7 -->
<g id="edge6_Node000006_Node000007" class="edge">
<title>Node6&#45;&gt;Node7</title>
<g id="a_edge6_Node000006_Node000007"><a xlink:title=" ">
<path fill="none" stroke="#63b8ff" d="M182.05,-88.59C170.56,-89.69 158.8,-90.82 147.47,-91.9"/>
<polygon fill="#63b8ff" stroke="#63b8ff" points="182.29,-92.08 191.92,-87.65 181.63,-85.11 182.29,-92.08"/>
</a>
</g>
</g>
<!-- Node8 -->
<g id="Node000008" class="node">
<title>Node8</title>
<g id="a_Node000008"><a xlink:href="../../df/d0f/_c_multimodal_prior_test_8cc.html#a2c8d659343b709fde4b0714ff57d5a9d" target="_top" xlink:title=" ">
<polygon fill="white" stroke="#666666" points="147.25,-71.5 0,-71.5 0,-52.25 147.25,-52.25 147.25,-71.5"/>
<text text-anchor="middle" x="73.62" y="-58" font-family="Helvetica,sans-Serif" font-size="10.00">BOOST_AUTO_TEST_CASE</text>
</a>
</g>
</g>
<!-- Node6&#45;&gt;Node8 -->
<g id="edge7_Node000006_Node000008" class="edge">
<title>Node6&#45;&gt;Node8</title>
<g id="a_edge7_Node000006_Node000008"><a xlink:title=" ">
<path fill="none" stroke="#63b8ff" d="M182.05,-72.73C170.56,-71.57 158.8,-70.38 147.47,-69.24"/>
<polygon fill="#63b8ff" stroke="#63b8ff" points="181.61,-76.21 191.92,-73.73 182.32,-69.24 181.61,-76.21"/>
</a>
</g>
</g>
</g>
</svg>
