<?xml version="1.0" encoding="UTF-8" standalone="no"?>
<!DOCTYPE svg PUBLIC "-//W3C//DTD SVG 1.1//EN"
 "http://www.w3.org/Graphics/SVG/1.1/DTD/svg11.dtd">
<!-- Generated by graphviz version 10.0.1 (20240210.2158)
 -->
<!-- Title: ml::maths::analytics::CBoostedTreeLeafNodeStatistics::CDerivatives Pages: 1 -->
<svg width="629pt" height="110pt"
 viewBox="0.00 0.00 628.50 109.75" xmlns="http://www.w3.org/2000/svg" xmlns:xlink="http://www.w3.org/1999/xlink">
<g id="graph0" class="graph" transform="scale(1 1) rotate(0) translate(4 105.75)">
<title>ml::maths::analytics::CBoostedTreeLeafNodeStatistics::CDerivatives</title>
<!-- Node1 -->
<g id="Node000001" class="node">
<title>Node1</title>
<g id="a_Node000001"><a xlink:title="Accumulates aggregate derivatives.">
<polygon fill="#999999" stroke="#666666" points="620.5,-71.75 452.25,-71.75 452.25,-30 620.5,-30 620.5,-71.75"/>
<text text-anchor="start" x="460.25" y="-58.25" font-family="Helvetica,sans-Serif" font-size="10.00">ml::maths::analytics</text>
<text text-anchor="start" x="460.25" y="-47" font-family="Helvetica,sans-Serif" font-size="10.00">::CBoostedTreeLeafNodeStatistics</text>
<text text-anchor="middle" x="536.38" y="-35.75" font-family="Helvetica,sans-Serif" font-size="10.00">::CDerivatives</text>
</a>
</g>
</g>
<!-- Node2 -->
<g id="Node000002" class="node">
<title>Node2</title>
<g id="a_Node000002"><a xlink:href="../../d1/df3/classml_1_1maths_1_1common_1_1_c_memory_mapped_dense_vector.html" target="_top" xlink:title=" ">
<polygon fill="white" stroke="#666666" points="357,-101.75 206.75,-101.75 206.75,-60 357,-60 357,-101.75"/>
<text text-anchor="start" x="214.75" y="-88.25" font-family="Helvetica,sans-Serif" font-size="10.00">ml::maths::common::</text>
<text text-anchor="start" x="214.75" y="-77" font-family="Helvetica,sans-Serif" font-size="10.00">CMemoryMappedDenseVector</text>
<text text-anchor="middle" x="281.88" y="-65.75" font-family="Helvetica,sans-Serif" font-size="10.00">&lt; double, Eigen::Aligned16 &gt;</text>
</a>
</g>
</g>
<!-- Node2&#45;&gt;Node1 -->
<g id="edge1_Node000001_Node000002" class="edge">
<title>Node2&#45;&gt;Node1</title>
<g id="a_edge1_Node000001_Node000002"><a xlink:title=" ">
<path fill="none" stroke="#9a32cd" stroke-dasharray="5,2" d="M368.6,-70.69C395.46,-67.5 425.06,-63.98 451.78,-60.81"/>
<polygon fill="#9a32cd" stroke="#9a32cd" points="368.29,-67.2 358.77,-71.86 369.11,-74.15 368.29,-67.2"/>
</a>
</g>
<text text-anchor="middle" x="404.62" y="-70.62" font-family="Helvetica,sans-Serif" font-size="10.00" fill="grey"> m_Gradient</text>
</g>
<!-- Node3 -->
<g id="Node000003" class="node">
<title>Node3</title>
<g id="a_Node000003"><a xlink:href="../../db/d69/class_eigen_1_1_map.html" target="_top" xlink:title=" ">
<polygon fill="white" stroke="#666666" points="169.75,-96.12 0,-96.12 0,-65.62 169.75,-65.62 169.75,-96.12"/>
<text text-anchor="start" x="8" y="-82.62" font-family="Helvetica,sans-Serif" font-size="10.00">Eigen::Map&lt; CDenseVector</text>
<text text-anchor="middle" x="84.88" y="-71.38" font-family="Helvetica,sans-Serif" font-size="10.00">&lt; double &gt;::TBase, ALIGNMENT &gt;</text>
</a>
</g>
</g>
<!-- Node3&#45;&gt;Node2 -->
<g id="edge2_Node000002_Node000003" class="edge">
<title>Node3&#45;&gt;Node2</title>
<g id="a_edge2_Node000002_Node000003"><a xlink:title=" ">
<path fill="none" stroke="#63b8ff" d="M181.45,-80.88C189.88,-80.88 198.33,-80.88 206.55,-80.88"/>
<polygon fill="#63b8ff" stroke="#63b8ff" points="181.5,-77.38 171.5,-80.88 181.5,-84.38 181.5,-77.38"/>
</a>
</g>
</g>
<!-- Node4 -->
<g id="Node000004" class="node">
<title>Node4</title>
<g id="a_Node000004"><a xlink:href="../../db/d0a/classml_1_1maths_1_1common_1_1_c_memory_mapped_dense_matrix.html" target="_top" xlink:title=" ">
<polygon fill="white" stroke="#666666" points="356.25,-41.75 207.5,-41.75 207.5,0 356.25,0 356.25,-41.75"/>
<text text-anchor="start" x="215.5" y="-28.25" font-family="Helvetica,sans-Serif" font-size="10.00">ml::maths::common::</text>
<text text-anchor="start" x="215.5" y="-17" font-family="Helvetica,sans-Serif" font-size="10.00">CMemoryMappedDenseMatrix</text>
<text text-anchor="middle" x="281.88" y="-5.75" font-family="Helvetica,sans-Serif" font-size="10.00">&lt; double, Eigen::Aligned16 &gt;</text>
</a>
</g>
</g>
<!-- Node4&#45;&gt;Node1 -->
<g id="edge3_Node000001_Node000004" class="edge">
<title>Node4&#45;&gt;Node1</title>
<g id="a_edge3_Node000001_Node000004"><a xlink:title=" ">
<path fill="none" stroke="#9a32cd" stroke-dasharray="5,2" d="M367.98,-30.99C395.02,-34.2 424.88,-37.75 451.81,-40.95"/>
<polygon fill="#9a32cd" stroke="#9a32cd" points="368.43,-27.52 358.09,-29.81 367.61,-34.47 368.43,-27.52"/>
</a>
</g>
<text text-anchor="middle" x="404.62" y="-40.62" font-family="Helvetica,sans-Serif" font-size="10.00" fill="grey"> m_Curvature</text>
</g>
<!-- Node5 -->
<g id="Node000005" class="node">
<title>Node5</title>
<g id="a_Node000005"><a xlink:href="../../db/d69/class_eigen_1_1_map.html" target="_top" xlink:title=" ">
<polygon fill="white" stroke="#666666" points="169.75,-36.12 0,-36.12 0,-5.62 169.75,-5.62 169.75,-36.12"/>
<text text-anchor="start" x="8" y="-22.62" font-family="Helvetica,sans-Serif" font-size="10.00">Eigen::Map&lt; CDenseMatrix</text>
<text text-anchor="middle" x="84.88" y="-11.38" font-family="Helvetica,sans-Serif" font-size="10.00">&lt; double &gt;::TBase, ALIGNMENT &gt;</text>
</a>
</g>
</g>
<!-- Node5&#45;&gt;Node4 -->
<g id="edge4_Node000004_Node000005" class="edge">
<title>Node5&#45;&gt;Node4</title>
<g id="a_edge4_Node000004_Node000005"><a xlink:title=" ">
<path fill="none" stroke="#63b8ff" d="M181.35,-20.88C190.02,-20.88 198.72,-20.88 207.16,-20.88"/>
<polygon fill="#63b8ff" stroke="#63b8ff" points="181.5,-17.38 171.5,-20.88 181.5,-24.38 181.5,-17.38"/>
</a>
</g>
</g>
</g>
</svg>
