<?xml version="1.0" encoding="UTF-8" standalone="no"?>
<!DOCTYPE svg PUBLIC "-//W3C//DTD SVG 1.1//EN"
 "http://www.w3.org/Graphics/SVG/1.1/DTD/svg11.dtd">
<!-- Generated by graphviz version 10.0.1 (20240210.2158)
 -->
<!-- Title: ml::maths::analytics::CBoostedTreeLeafNodeStatistics::CDerivatives Pages: 1 -->
<!--zoomable 110 -->

<svg id="main" version="1.1" xmlns="http://www.w3.org/2000/svg" xmlns:xlink="http://www.w3.org/1999/xlink" xml:space="preserve" onload="init(evt)">
<style type="text/css"><![CDATA[
.node, .edge {opacity: 0.7;}
.node.selected, .edge.selected {opacity: 1;}
.edge:hover path { stroke: red; }
.edge:hover polygon { stroke: red; fill: red; }
]]></style>

<defs>
  <circle id="rim" cx="0" cy="0" r="7"/>
  <circle id="rim2" cx="0" cy="0" r="3.5"/>
  <g id="zoomPlus">
    <use xlink:href="#rim" fill="#404040"><set attributeName="fill" to="#808080" begin="zoomplus.mouseover" end="zoomplus.mouseout"/></use>
    <path d="M-4,0h8M0,-4v8" fill="none" stroke="white" stroke-width="1.5" pointer-events="none"/>
  </g>
  <g id="zoomMin">
    <use xlink:href="#rim" fill="#404040"><set attributeName="fill" to="#808080" begin="zoomminus.mouseover" end="zoomminus.mouseout"/></use>
    <path d="M-4,0h8" fill="none" stroke="white" stroke-width="1.5" pointer-events="none"/>
  </g>
  <g id="arrowUp" transform="translate(30 24)">
    <use xlink:href="#rim"/>
    <path pointer-events="none" fill="none" stroke="white" stroke-width="1.5" d="M0,-3.0v7 M-2.5,-0.5L0,-3.0L2.5,-0.5"/>
  </g>
  <g id="arrowRight" transform="rotate(90) translate(36 -43)">
    <use xlink:href="#rim"/>
    <path pointer-events="none" fill="none" stroke="white" stroke-width="1.5" d="M0,-3.0v7 M-2.5,-0.5L0,-3.0L2.5,-0.5"/>
  </g>
  <g id="arrowDown" transform="rotate(180) translate(-30 -48)">
    <use xlink:href="#rim"/>
    <path pointer-events="none" fill="none" stroke="white" stroke-width="1.5" d="M0,-3.0v7 M-2.5,-0.5L0,-3.0L2.5,-0.5"/>
  </g>
  <g id="arrowLeft" transform="rotate(270) translate(-36 17)">
    <use xlink:href="#rim"/>
    <path pointer-events="none" fill="none" stroke="white" stroke-width="1.5" d="M0,-3.0v7 M-2.5,-0.5L0,-3.0L2.5,-0.5"/>
  </g>
  <g id="resetDef">
    <use xlink:href="#rim2" fill="#404040"><set attributeName="fill" to="#808080" begin="reset.mouseover" end="reset.mouseout"/></use>
  </g>
</defs>
<script type="application/ecmascript">
var viewWidth = 629;
var viewHeight = 110;
var sectionId = 'dynsection-0';
</script>
<script type="application/ecmascript" xlink:href="../../svg.min.js"/>
<svg id="graph" class="graph">
<g id="viewport">
<title>ml::maths::analytics::CBoostedTreeLeafNodeStatistics::CDerivatives</title>
<!-- Node1 -->
<g id="Node000001" class="node">
<title>Node1</title>
<g id="a_Node000001"><a xlink:title="Accumulates aggregate derivatives.">
<polygon fill="#999999" stroke="#666666" points="620.5,-71.75 452.25,-71.75 452.25,-30 620.5,-30 620.5,-71.75"/>
<text text-anchor="start" x="460.25" y="-58.25" font-family="Helvetica,sans-Serif" font-size="10.00">ml::maths::analytics</text>
<text text-anchor="start" x="460.25" y="-47" font-family="Helvetica,sans-Serif" font-size="10.00">::CBoostedTreeLeafNodeStatistics</text>
<text text-anchor="middle" x="536.38" y="-35.75" font-family="Helvetica,sans-Serif" font-size="10.00">::CDerivatives</text>
</a>
</g>
</g>
<!-- Node2 -->
<g id="Node000002" class="node">
<title>Node2</title>
<g id="a_Node000002"><a xlink:href="../../d1/df3/classml_1_1maths_1_1common_1_1_c_memory_mapped_dense_vector.html" target="_top" xlink:title=" ">
<polygon fill="white" stroke="#666666" points="357,-101.75 206.75,-101.75 206.75,-60 357,-60 357,-101.75"/>
<text text-anchor="start" x="214.75" y="-88.25" font-family="Helvetica,sans-Serif" font-size="10.00">ml::maths::common::</text>
<text text-anchor="start" x="214.75" y="-77" font-family="Helvetica,sans-Serif" font-size="10.00">CMemoryMappedDenseVector</text>
<text text-anchor="middle" x="281.88" y="-65.75" font-family="Helvetica,sans-Serif" font-size="10.00">&lt; double, Eigen::Aligned16 &gt;</text>
</a>
</g>
</g>
<!-- Node2&#45;&gt;Node1 -->
<g id="edge1_Node000001_Node000002" class="edge">
<title>Node2&#45;&gt;Node1</title>
<g id="a_edge1_Node000001_Node000002"><a xlink:title=" ">
<path fill="none" stroke="#9a32cd" stroke-dasharray="5,2" d="M368.6,-70.69C395.46,-67.5 425.06,-63.98 451.78,-60.81"/>
<polygon fill="#9a32cd" stroke="#9a32cd" points="368.29,-67.2 358.77,-71.86 369.11,-74.15 368.29,-67.2"/>
</a>
</g>
<text text-anchor="middle" x="404.62" y="-70.62" font-family="Helvetica,sans-Serif" font-size="10.00" fill="grey"> m_Gradient</text>
</g>
<!-- Node3 -->
<g id="Node000003" class="node">
<title>Node3</title>
<g id="a_Node000003"><a xlink:href="../../db/d69/class_eigen_1_1_map.html" target="_top" xlink:title=" ">
<polygon fill="white" stroke="#666666" points="169.75,-96.12 0,-96.12 0,-65.62 169.75,-65.62 169.75,-96.12"/>
<text text-anchor="start" x="8" y="-82.62" font-family="Helvetica,sans-Serif" font-size="10.00">Eigen::Map&lt; CDenseVector</text>
<text text-anchor="middle" x="84.88" y="-71.38" font-family="Helvetica,sans-Serif" font-size="10.00">&lt; double &gt;::TBase, ALIGNMENT &gt;</text>
</a>
</g>
</g>
<!-- Node3&#45;&gt;Node2 -->
<g id="edge2_Node000002_Node000003" class="edge">
<title>Node3&#45;&gt;Node2</title>
<g id="a_edge2_Node000002_Node000003"><a xlink:title=" ">
<path fill="none" stroke="#63b8ff" d="M181.45,-80.88C189.88,-80.88 198.33,-80.88 206.55,-80.88"/>
<polygon fill="#63b8ff" stroke="#63b8ff" points="181.5,-77.38 171.5,-80.88 181.5,-84.38 181.5,-77.38"/>
</a>
</g>
</g>
<!-- Node4 -->
<g id="Node000004" class="node">
<title>Node4</title>
<g id="a_Node000004"><a xlink:href="../../db/d0a/classml_1_1maths_1_1common_1_1_c_memory_mapped_dense_matrix.html" target="_top" xlink:title=" ">
<polygon fill="white" stroke="#666666" points="356.25,-41.75 207.5,-41.75 207.5,0 356.25,0 356.25,-41.75"/>
<text text-anchor="start" x="215.5" y="-28.25" font-family="Helvetica,sans-Serif" font-size="10.00">ml::maths::common::</text>
<text text-anchor="start" x="215.5" y="-17" font-family="Helvetica,sans-Serif" font-size="10.00">CMemoryMappedDenseMatrix</text>
<text text-anchor="middle" x="281.88" y="-5.75" font-family="Helvetica,sans-Serif" font-size="10.00">&lt; double, Eigen::Aligned16 &gt;</text>
</a>
</g>
</g>
<!-- Node4&#45;&gt;Node1 -->
<g id="edge3_Node000001_Node000004" class="edge">
<title>Node4&#45;&gt;Node1</title>
<g id="a_edge3_Node000001_Node000004"><a xlink:title=" ">
<path fill="none" stroke="#9a32cd" stroke-dasharray="5,2" d="M367.98,-30.99C395.02,-34.2 424.88,-37.75 451.81,-40.95"/>
<polygon fill="#9a32cd" stroke="#9a32cd" points="368.43,-27.52 358.09,-29.81 367.61,-34.47 368.43,-27.52"/>
</a>
</g>
<text text-anchor="middle" x="404.62" y="-40.62" font-family="Helvetica,sans-Serif" font-size="10.00" fill="grey"> m_Curvature</text>
</g>
<!-- Node5 -->
<g id="Node000005" class="node">
<title>Node5</title>
<g id="a_Node000005"><a xlink:href="../../db/d69/class_eigen_1_1_map.html" target="_top" xlink:title=" ">
<polygon fill="white" stroke="#666666" points="169.75,-36.12 0,-36.12 0,-5.62 169.75,-5.62 169.75,-36.12"/>
<text text-anchor="start" x="8" y="-22.62" font-family="Helvetica,sans-Serif" font-size="10.00">Eigen::Map&lt; CDenseMatrix</text>
<text text-anchor="middle" x="84.88" y="-11.38" font-family="Helvetica,sans-Serif" font-size="10.00">&lt; double &gt;::TBase, ALIGNMENT &gt;</text>
</a>
</g>
</g>
<!-- Node5&#45;&gt;Node4 -->
<g id="edge4_Node000004_Node000005" class="edge">
<title>Node5&#45;&gt;Node4</title>
<g id="a_edge4_Node000004_Node000005"><a xlink:title=" ">
<path fill="none" stroke="#63b8ff" d="M181.35,-20.88C190.02,-20.88 198.72,-20.88 207.16,-20.88"/>
<polygon fill="#63b8ff" stroke="#63b8ff" points="181.5,-17.38 171.5,-20.88 181.5,-24.38 181.5,-17.38"/>
</a>
</g>
</g>
</g>
</svg>

<g id="navigator" transform="translate(0 0)" fill="#404254">
  <rect fill="#f2f5e9" fill-opacity="0.5" stroke="#606060" stroke-width=".5" x="0" y="0" width="60" height="60"/>
  <use id="zoomplus" xlink:href="#zoomPlus" x="17" y="9" onmousedown="handleZoom(evt,'in')"/>
  <use id="zoomminus" xlink:href="#zoomMin" x="42" y="9" onmousedown="handleZoom(evt,'out')"/>
  <use id="reset" xlink:href="#resetDef" x="30" y="36" onmousedown="handleReset()"/>
   <use id="arrowup" xlink:href="#arrowUp" x="0" y="0" onmousedown="handlePan(0,-1)"/>
  <use id="arrowright" xlink:href="#arrowRight" x="0" y="0" onmousedown="handlePan(1,0)"/>
  <use id="arrowdown" xlink:href="#arrowDown" x="0" y="0" onmousedown="handlePan(0,1)"/>
  <use id="arrowleft" xlink:href="#arrowLeft" x="0" y="0" onmousedown="handlePan(-1,0)"/>
</g>
<svg viewBox="0 0 15 15" width="100%" height="30px" preserveAspectRatio="xMaxYMin meet">
 <g id="arrow_out" transform="scale(0.3 0.3)">
  <a xlink:href="classml_1_1maths_1_1analytics_1_1_c_boosted_tree_leaf_node_statistics_1_1_c_derivatives__coll__graph_org.svg" target="_base">
   <rect id="button" ry="5" rx="5" y="6" x="6" height="38" width="38"
        fill="#f2f5e9" fill-opacity="0.5" stroke="#606060" stroke-width="1.0"/>
   <path id="arrow"
     d="M 11.500037,31.436501 C 11.940474,20.09759 22.043105,11.32322 32.158766,21.979434 L 37.068811,17.246167 C 37.068811,17.246167 37.088388,32 37.088388,32 L 22.160133,31.978069 C 22.160133,31.978069 26.997745,27.140456 26.997745,27.140456 C 18.528582,18.264221 13.291696,25.230495 11.500037,31.436501 z"
     style="fill:#404040;"/>
  </a>
 </g>
</svg>

<style type='text/css'>
<![CDATA[
[data-mouse-over-selected='false'] { opacity: 0.7; }
[data-mouse-over-selected='true']  { opacity: 1.0; }
]]>
</style>
<script type="application/ecmascript"><![CDATA[
document.addEventListener('DOMContentLoaded', (event) => {
  highlightEdges();
  highlightAdjacentNodes();
});
]]></script>
</svg>
