<?xml version="1.0" encoding="UTF-8" standalone="no"?>
<!DOCTYPE svg PUBLIC "-//W3C//DTD SVG 1.1//EN"
 "http://www.w3.org/Graphics/SVG/1.1/DTD/svg11.dtd">
<!-- Generated by graphviz version 10.0.1 (20240210.2158)
 -->
<!-- Title: ml::model::CModelDetailsView::byFieldValue Pages: 1 -->
<!--zoomable 186 -->

<svg id="main" version="1.1" xmlns="http://www.w3.org/2000/svg" xmlns:xlink="http://www.w3.org/1999/xlink" xml:space="preserve" onload="init(evt)">
<style type="text/css"><![CDATA[
.node, .edge {opacity: 0.7;}
.node.selected, .edge.selected {opacity: 1;}
.edge:hover path { stroke: red; }
.edge:hover polygon { stroke: red; fill: red; }
]]></style>

<defs>
  <circle id="rim" cx="0" cy="0" r="7"/>
  <circle id="rim2" cx="0" cy="0" r="3.5"/>
  <g id="zoomPlus">
    <use xlink:href="#rim" fill="#404040"><set attributeName="fill" to="#808080" begin="zoomplus.mouseover" end="zoomplus.mouseout"/></use>
    <path d="M-4,0h8M0,-4v8" fill="none" stroke="white" stroke-width="1.5" pointer-events="none"/>
  </g>
  <g id="zoomMin">
    <use xlink:href="#rim" fill="#404040"><set attributeName="fill" to="#808080" begin="zoomminus.mouseover" end="zoomminus.mouseout"/></use>
    <path d="M-4,0h8" fill="none" stroke="white" stroke-width="1.5" pointer-events="none"/>
  </g>
  <g id="arrowUp" transform="translate(30 24)">
    <use xlink:href="#rim"/>
    <path pointer-events="none" fill="none" stroke="white" stroke-width="1.5" d="M0,-3.0v7 M-2.5,-0.5L0,-3.0L2.5,-0.5"/>
  </g>
  <g id="arrowRight" transform="rotate(90) translate(36 -43)">
    <use xlink:href="#rim"/>
    <path pointer-events="none" fill="none" stroke="white" stroke-width="1.5" d="M0,-3.0v7 M-2.5,-0.5L0,-3.0L2.5,-0.5"/>
  </g>
  <g id="arrowDown" transform="rotate(180) translate(-30 -48)">
    <use xlink:href="#rim"/>
    <path pointer-events="none" fill="none" stroke="white" stroke-width="1.5" d="M0,-3.0v7 M-2.5,-0.5L0,-3.0L2.5,-0.5"/>
  </g>
  <g id="arrowLeft" transform="rotate(270) translate(-36 17)">
    <use xlink:href="#rim"/>
    <path pointer-events="none" fill="none" stroke="white" stroke-width="1.5" d="M0,-3.0v7 M-2.5,-0.5L0,-3.0L2.5,-0.5"/>
  </g>
  <g id="resetDef">
    <use xlink:href="#rim2" fill="#404040"><set attributeName="fill" to="#808080" begin="reset.mouseover" end="reset.mouseout"/></use>
  </g>
</defs>
<script type="application/ecmascript">
var viewWidth = 539;
var viewHeight = 186;
var sectionId = 'dynsection-8';
</script>
<script type="application/ecmascript" xlink:href="../../svg.min.js"/>
<svg id="graph" class="graph">
<g id="viewport">
<title>ml::model::CModelDetailsView::byFieldValue</title>
<!-- Node1 -->
<g id="Node000001" class="node">
<title>Node1</title>
<g id="a_Node000001"><a xlink:title="Get the by field corresponding to (pid, cid).">
<polygon fill="#999999" stroke="#666666" points="129.25,-103.5 0,-103.5 0,-73 129.25,-73 129.25,-103.5"/>
<text text-anchor="start" x="8" y="-90" font-family="Helvetica,sans-Serif" font-size="10.00">ml::model::CModelDetails</text>
<text text-anchor="middle" x="64.62" y="-78.75" font-family="Helvetica,sans-Serif" font-size="10.00">View::byFieldValue</text>
</a>
</g>
</g>
<!-- Node2 -->
<g id="Node000002" class="node">
<title>Node2</title>
<g id="a_Node000002"><a xlink:href="../../da/d88/classml_1_1model_1_1_c_anomaly_detector_model.html#ac4491ee1698a736ee50659cc0194f2ae" target="_top" xlink:title=" ">
<polygon fill="white" stroke="#666666" points="313.25,-177.5 165.25,-177.5 165.25,-147 313.25,-147 313.25,-177.5"/>
<text text-anchor="start" x="173.25" y="-164" font-family="Helvetica,sans-Serif" font-size="10.00">ml::model::CAnomalyDetector</text>
<text text-anchor="middle" x="239.25" y="-152.75" font-family="Helvetica,sans-Serif" font-size="10.00">Model::attributeName</text>
</a>
</g>
</g>
<!-- Node1&#45;&gt;Node2 -->
<g id="edge1_Node000001_Node000002" class="edge">
<title>Node1&#45;&gt;Node2</title>
<g id="a_edge1_Node000001_Node000002"><a xlink:title=" ">
<path fill="none" stroke="#63b8ff" d="M94.81,-103.83C114.44,-114 141.04,-127.2 165.25,-137.25 169.63,-139.07 174.2,-140.87 178.82,-142.61"/>
<polygon fill="#63b8ff" stroke="#63b8ff" points="177.61,-145.89 188.21,-146.04 180.02,-139.32 177.61,-145.89"/>
</a>
</g>
</g>
<!-- Node5 -->
<g id="Node000005" class="node">
<title>Node5</title>
<g id="a_Node000005"><a xlink:href="../../da/d83/classml_1_1model_1_1_c_model_details_view.html#a364ae8bdfdd6c0cf18c65181eb40936c" target="_top" xlink:title="Get the underlying model.">
<polygon fill="white" stroke="#666666" points="303.88,-128.5 174.62,-128.5 174.62,-98 303.88,-98 303.88,-128.5"/>
<text text-anchor="start" x="182.62" y="-115" font-family="Helvetica,sans-Serif" font-size="10.00">ml::model::CModelDetails</text>
<text text-anchor="middle" x="239.25" y="-103.75" font-family="Helvetica,sans-Serif" font-size="10.00">View::base</text>
</a>
</g>
</g>
<!-- Node1&#45;&gt;Node5 -->
<g id="edge4_Node000001_Node000005" class="edge">
<title>Node1&#45;&gt;Node5</title>
<g id="a_edge4_Node000001_Node000005"><a xlink:title=" ">
<path fill="none" stroke="#63b8ff" d="M129.41,-97.49C140.36,-99.07 151.83,-100.73 163.05,-102.36"/>
<polygon fill="#63b8ff" stroke="#63b8ff" points="162.25,-105.78 172.65,-103.75 163.25,-98.85 162.25,-105.78"/>
</a>
</g>
</g>
<!-- Node6 -->
<g id="Node000006" class="node">
<title>Node6</title>
<g id="a_Node000006"><a xlink:href="../../da/d88/classml_1_1model_1_1_c_anomaly_detector_model.html#a0cded7b0f451fb941b0fd591e23fd581" target="_top" xlink:title="True if this is a population model.">
<polygon fill="white" stroke="#666666" points="313.25,-79.5 165.25,-79.5 165.25,-49 313.25,-49 313.25,-79.5"/>
<text text-anchor="start" x="173.25" y="-66" font-family="Helvetica,sans-Serif" font-size="10.00">ml::model::CAnomalyDetector</text>
<text text-anchor="middle" x="239.25" y="-54.75" font-family="Helvetica,sans-Serif" font-size="10.00">Model::isPopulation</text>
</a>
</g>
</g>
<!-- Node1&#45;&gt;Node6 -->
<g id="edge5_Node000001_Node000006" class="edge">
<title>Node1&#45;&gt;Node6</title>
<g id="a_edge5_Node000001_Node000006"><a xlink:title=" ">
<path fill="none" stroke="#63b8ff" d="M129.41,-79.38C137.25,-78.29 145.35,-77.17 153.43,-76.04"/>
<polygon fill="#63b8ff" stroke="#63b8ff" points="153.89,-79.51 163.32,-74.67 152.93,-72.58 153.89,-79.51"/>
</a>
</g>
</g>
<!-- Node7 -->
<g id="Node000007" class="node">
<title>Node7</title>
<g id="a_Node000007"><a xlink:href="../../da/d88/classml_1_1model_1_1_c_anomaly_detector_model.html#a7e062309a949de4c9d61ae904a16c65f" target="_top" xlink:title=" ">
<polygon fill="white" stroke="#666666" points="313.25,-30.5 165.25,-30.5 165.25,0 313.25,0 313.25,-30.5"/>
<text text-anchor="start" x="173.25" y="-17" font-family="Helvetica,sans-Serif" font-size="10.00">ml::model::CAnomalyDetector</text>
<text text-anchor="middle" x="239.25" y="-5.75" font-family="Helvetica,sans-Serif" font-size="10.00">Model::personName</text>
</a>
</g>
</g>
<!-- Node1&#45;&gt;Node7 -->
<g id="edge6_Node000001_Node000007" class="edge">
<title>Node1&#45;&gt;Node7</title>
<g id="a_edge6_Node000001_Node000007"><a xlink:title=" ">
<path fill="none" stroke="#63b8ff" d="M95.72,-72.59C115.27,-62.71 141.45,-50.02 165.25,-40.25 169.64,-38.45 174.22,-36.66 178.84,-34.93"/>
<polygon fill="#63b8ff" stroke="#63b8ff" points="180.03,-38.22 188.23,-31.51 177.63,-31.65 180.03,-38.22"/>
</a>
</g>
</g>
<!-- Node3 -->
<g id="Node000003" class="node">
<title>Node3</title>
<g id="a_Node000003"><a xlink:href="../../d1/dfa/classml_1_1core_1_1_c_string_utils.html#a0309dd25326b7d77c70fe5e6949b9e71" target="_top" xlink:title="Convert a type to a string.">
<polygon fill="white" stroke="#666666" points="459.75,-103.5 349.25,-103.5 349.25,-73 459.75,-73 459.75,-103.5"/>
<text text-anchor="start" x="357.25" y="-90" font-family="Helvetica,sans-Serif" font-size="10.00">ml::core::CStringUtils</text>
<text text-anchor="middle" x="404.5" y="-78.75" font-family="Helvetica,sans-Serif" font-size="10.00">::typeToString</text>
</a>
</g>
</g>
<!-- Node2&#45;&gt;Node3 -->
<g id="edge2_Node000002_Node000003" class="edge">
<title>Node2&#45;&gt;Node3</title>
<g id="a_edge2_Node000002_Node000003"><a xlink:title=" ">
<path fill="none" stroke="#63b8ff" d="M289.77,-146.55C297.71,-143.67 305.77,-140.53 313.25,-137.25 331.77,-129.12 351.6,-118.57 367.94,-109.35"/>
<polygon fill="#63b8ff" stroke="#63b8ff" points="369.37,-112.56 376.31,-104.56 365.89,-106.49 369.37,-112.56"/>
</a>
</g>
</g>
<!-- Node4 -->
<g id="Node000004" class="node">
<title>Node4</title>
<g id="a_Node000004"><a xlink:href="../../d3/d2e/private_8h.html#a1c6de65cc31c36fe2ede0d438531d327" target="_top" xlink:title=" ">
<polygon fill="white" stroke="#666666" points="530.5,-97.88 495.75,-97.88 495.75,-78.62 530.5,-78.62 530.5,-97.88"/>
<text text-anchor="middle" x="513.12" y="-84.38" font-family="Helvetica,sans-Serif" font-size="10.00">type</text>
</a>
</g>
</g>
<!-- Node3&#45;&gt;Node4 -->
<g id="edge3_Node000003_Node000004" class="edge">
<title>Node3&#45;&gt;Node4</title>
<g id="a_edge3_Node000003_Node000004"><a xlink:title=" ">
<path fill="none" stroke="#63b8ff" d="M460.06,-88.25C468.33,-88.25 476.56,-88.25 483.96,-88.25"/>
<polygon fill="#63b8ff" stroke="#63b8ff" points="483.96,-91.75 493.96,-88.25 483.96,-84.75 483.96,-91.75"/>
</a>
</g>
</g>
<!-- Node7&#45;&gt;Node3 -->
<g id="edge7_Node000007_Node000003" class="edge">
<title>Node7&#45;&gt;Node3</title>
<g id="a_edge7_Node000007_Node000003"><a xlink:title=" ">
<path fill="none" stroke="#63b8ff" d="M289.35,-30.87C297.42,-33.77 305.63,-36.94 313.25,-40.25 331.45,-48.15 350.97,-58.3 367.18,-67.23"/>
<polygon fill="#63b8ff" stroke="#63b8ff" points="365.04,-70.05 375.48,-71.87 368.46,-63.94 365.04,-70.05"/>
</a>
</g>
</g>
</g>
</svg>

<g id="navigator" transform="translate(0 0)" fill="#404254">
  <rect fill="#f2f5e9" fill-opacity="0.5" stroke="#606060" stroke-width=".5" x="0" y="0" width="60" height="60"/>
  <use id="zoomplus" xlink:href="#zoomPlus" x="17" y="9" onmousedown="handleZoom(evt,'in')"/>
  <use id="zoomminus" xlink:href="#zoomMin" x="42" y="9" onmousedown="handleZoom(evt,'out')"/>
  <use id="reset" xlink:href="#resetDef" x="30" y="36" onmousedown="handleReset()"/>
   <use id="arrowup" xlink:href="#arrowUp" x="0" y="0" onmousedown="handlePan(0,-1)"/>
  <use id="arrowright" xlink:href="#arrowRight" x="0" y="0" onmousedown="handlePan(1,0)"/>
  <use id="arrowdown" xlink:href="#arrowDown" x="0" y="0" onmousedown="handlePan(0,1)"/>
  <use id="arrowleft" xlink:href="#arrowLeft" x="0" y="0" onmousedown="handlePan(-1,0)"/>
</g>
<svg viewBox="0 0 15 15" width="100%" height="30px" preserveAspectRatio="xMaxYMin meet">
 <g id="arrow_out" transform="scale(0.3 0.3)">
  <a xlink:href="classml_1_1model_1_1_c_model_details_view_ad3a2ca3ad6991d44777c6e7b1572b42f_cgraph_org.svg" target="_base">
   <rect id="button" ry="5" rx="5" y="6" x="6" height="38" width="38"
        fill="#f2f5e9" fill-opacity="0.5" stroke="#606060" stroke-width="1.0"/>
   <path id="arrow"
     d="M 11.500037,31.436501 C 11.940474,20.09759 22.043105,11.32322 32.158766,21.979434 L 37.068811,17.246167 C 37.068811,17.246167 37.088388,32 37.088388,32 L 22.160133,31.978069 C 22.160133,31.978069 26.997745,27.140456 26.997745,27.140456 C 18.528582,18.264221 13.291696,25.230495 11.500037,31.436501 z"
     style="fill:#404040;"/>
  </a>
 </g>
</svg>

<style type='text/css'>
<![CDATA[
[data-mouse-over-selected='false'] { opacity: 0.7; }
[data-mouse-over-selected='true']  { opacity: 1.0; }
]]>
</style>
<script type="application/ecmascript"><![CDATA[
document.addEventListener('DOMContentLoaded', (event) => {
  highlightEdges();
  highlightAdjacentNodes();
});
]]></script>
</svg>
